<svg width="350" height="62" viewBox="0 0 350 62" fill="none" xmlns="http://www.w3.org/2000/svg">
<g filter="url(#filter0_d_7051_5627)">
<rect x="6.5" y="2.5" width="337" height="49" rx="11.5" fill="#FBFBFB" stroke="#B9B9B9"/>
<path d="M32.5916 20.0413V20.2413H32.7916H37.9583C38.933 20.2413 39.8677 20.6285 40.5569 21.3177C41.2461 22.0069 41.6333 22.9417 41.6333 23.9163V35.5413C41.6333 36.516 41.2461 37.4508 40.5569 38.14C39.8677 38.8292 38.933 39.2163 37.9583 39.2163H25.0416C24.067 39.2163 23.1322 38.8292 22.443 38.14C21.7538 37.4508 21.3666 36.516 21.3666 35.5413V23.9163C21.3666 22.9417 21.7538 22.0069 22.443 21.3177C23.1322 20.6285 24.067 20.2413 25.0416 20.2413H30.2083H30.4083V20.0413V18.388V18.2725L30.3083 18.2148C29.9481 18.0068 29.6486 17.7082 29.4395 17.3487C29.2306 16.9893 29.1192 16.5815 29.1166 16.1658C29.1168 15.5339 29.3679 14.9279 29.8147 14.4811C30.2617 14.0341 30.8679 13.783 31.5 13.783C32.1321 13.783 32.7383 14.0341 33.1852 14.4811C33.6321 14.9279 33.8831 15.5339 33.8833 16.1658C33.8807 16.5815 33.7694 16.9893 33.5604 17.3487C33.3514 17.7082 33.0518 18.0068 32.6916 18.2148L32.5916 18.2725V18.388V20.0413ZM33.9157 22.6732L33.9778 22.4247H33.7216H29.2783H29.0221L29.0843 22.6732L29.7301 25.2565L29.768 25.408H29.9241H33.0758H33.2319L33.2698 25.2565L33.9157 22.6732ZM26.8119 22.5779L26.775 22.4247H26.6175H25.0416C24.646 22.4247 24.2666 22.5818 23.9869 22.8616C23.7071 23.1413 23.55 23.5207 23.55 23.9163V35.5413C23.55 35.937 23.7071 36.3164 23.9869 36.5961C24.2666 36.8759 24.646 37.033 25.0416 37.033H37.9583C38.3539 37.033 38.7333 36.8759 39.0131 36.5961C39.2928 36.3164 39.45 35.937 39.45 35.5413V23.9163C39.45 23.5207 39.2928 23.1413 39.0131 22.8616C38.7333 22.5818 38.3539 22.4247 37.9583 22.4247H36.3825H36.2249L36.188 22.5779L35.1808 26.7618C35.1807 26.7619 35.1807 26.7621 35.1807 26.7622C35.1208 27.0043 34.98 27.2185 34.7815 27.3694C34.5828 27.5203 34.3385 27.5987 34.0891 27.5914L34.0891 27.5913H34.0833H28.9166V27.5913L28.9108 27.5914C28.6614 27.5987 28.4171 27.5203 28.2185 27.3694C28.02 27.2185 27.8791 27.0043 27.8193 26.7622C27.8192 26.7621 27.8192 26.7619 27.8191 26.7618L26.8119 22.5779ZM27.0185 30.7587C27.198 30.6387 27.409 30.5747 27.625 30.5747C27.9145 30.5747 28.1922 30.6897 28.3969 30.8944C28.6016 31.0991 28.7166 31.3768 28.7166 31.6663C28.7166 31.8823 28.6526 32.0933 28.5326 32.2728C28.4127 32.4524 28.2422 32.5923 28.0427 32.6749C27.8432 32.7575 27.6237 32.7792 27.412 32.737C27.2002 32.6949 27.0057 32.5909 26.853 32.4383C26.7004 32.2856 26.5964 32.0911 26.5543 31.8793C26.5121 31.6676 26.5338 31.4481 26.6164 31.2486C26.699 31.0491 26.8389 30.8786 27.0185 30.7587ZM17.8114 29.6028C18.0161 29.398 18.2938 29.283 18.5833 29.283C18.8728 29.283 19.1505 29.398 19.3552 29.6028C19.5599 29.8075 19.675 30.0851 19.675 30.3747V32.958C19.675 33.2475 19.5599 33.5252 19.3552 33.7299C19.1505 33.9347 18.8728 34.0497 18.5833 34.0497C18.2938 34.0497 18.0161 33.9347 17.8114 33.7299C17.6066 33.5252 17.4916 33.2475 17.4916 32.958V30.3747C17.4916 30.0851 17.6066 29.8075 17.8114 29.6028ZM43.6447 29.6028C43.8494 29.398 44.1271 29.283 44.4166 29.283C44.7062 29.283 44.9838 29.398 45.1886 29.6028C45.3933 29.8075 45.5083 30.0851 45.5083 30.3747V32.958C45.5083 33.2475 45.3933 33.5252 45.1886 33.7299C44.9838 33.9347 44.7062 34.0497 44.4166 34.0497C44.1271 34.0497 43.8494 33.9347 43.6447 33.7299C43.44 33.5252 43.325 33.2475 43.325 32.958V30.3747C43.325 30.0851 43.44 29.8075 43.6447 29.6028ZM34.7685 30.7587C34.948 30.6387 35.159 30.5747 35.375 30.5747C35.6645 30.5747 35.9422 30.6897 36.1469 30.8944C36.3516 31.0991 36.4666 31.3768 36.4666 31.6663C36.4666 31.8823 36.4026 32.0933 36.2826 32.2728C36.1627 32.4524 35.9922 32.5923 35.7927 32.6749C35.5932 32.7575 35.3737 32.7792 35.162 32.737C34.9502 32.6949 34.7557 32.5909 34.603 32.4383C34.4504 32.2856 34.3464 32.0911 34.3043 31.8793C34.2621 31.6676 34.2838 31.4481 34.3664 31.2486C34.449 31.0491 34.5889 30.8786 34.7685 30.7587Z" fill="#7D7D7D" stroke="white" stroke-width="0.4"/>
<path d="M59.424 37.928V17H61.296V37.928H59.424ZM76.5979 35V19.928H81.4459C83.1019 19.928 84.3659 20.348 85.2379 21.188C86.1179 22.02 86.5579 23.152 86.5579 24.584C86.5579 26 86.1179 27.124 85.2379 27.956C84.3659 28.78 83.1019 29.192 81.4459 29.192H78.4939V35H76.5979ZM78.4939 27.56H81.4459C82.4939 27.56 83.2859 27.292 83.8219 26.756C84.3659 26.22 84.6379 25.496 84.6379 24.584C84.6379 23.656 84.3659 22.916 83.8219 22.364C83.2859 21.812 82.4939 21.536 81.4459 21.536H78.4939V27.56ZM92.3349 35V19.928H97.5909C99.3109 19.928 100.611 20.34 101.491 21.164C102.379 21.98 102.823 23.056 102.823 24.392C102.823 25.712 102.379 26.784 101.491 27.608C100.611 28.424 99.3109 28.832 97.5909 28.832H94.2069V35H92.3349ZM100.783 35L96.4629 28.16H98.5029L103.207 35H100.783ZM94.2069 27.512H97.4469C98.5749 27.512 99.4309 27.236 100.015 26.684C100.607 26.124 100.903 25.4 100.903 24.512C100.903 23.6 100.619 22.876 100.051 22.34C99.4909 21.804 98.6709 21.536 97.5909 21.536H94.2069V27.512ZM114.758 35.288C113.51 35.288 112.394 35 111.41 34.424C110.426 33.848 109.65 32.984 109.082 31.832C108.514 30.672 108.23 29.224 108.23 27.488C108.23 25.728 108.514 24.272 109.082 23.12C109.65 21.96 110.426 21.096 111.41 20.528C112.394 19.952 113.51 19.664 114.758 19.664C116.006 19.664 117.122 19.952 118.106 20.528C119.09 21.104 119.866 21.972 120.434 23.132C121.002 24.292 121.286 25.744 121.286 27.488C121.286 29.24 121.002 30.696 120.434 31.856C119.866 33.008 119.09 33.868 118.106 34.436C117.122 35.004 116.006 35.288 114.758 35.288ZM114.758 33.56C116.174 33.56 117.29 33.044 118.106 32.012C118.93 30.98 119.342 29.464 119.342 27.464C119.342 25.504 118.93 23.996 118.106 22.94C117.29 21.876 116.174 21.344 114.758 21.344C113.358 21.344 112.242 21.876 111.41 22.94C110.586 24.004 110.174 25.52 110.174 27.488C110.174 29.48 110.586 30.992 111.41 32.024C112.242 33.048 113.358 33.56 114.758 33.56ZM127.322 19.928H130.01L135.194 30.344H135.002L140.186 19.928H142.802V35H140.906V21.872H141.242L135.722 33.104H134.474L128.978 21.944H129.194V35H127.322V19.928ZM149.995 35V19.928H154.843C156.499 19.928 157.763 20.348 158.635 21.188C159.515 22.02 159.955 23.152 159.955 24.584C159.955 26 159.515 27.124 158.635 27.956C157.763 28.78 156.499 29.192 154.843 29.192H151.891V35H149.995ZM151.891 27.56H154.843C155.891 27.56 156.683 27.292 157.219 26.756C157.763 26.22 158.035 25.496 158.035 24.584C158.035 23.656 157.763 22.916 157.219 22.364C156.683 21.812 155.891 21.536 154.843 21.536H151.891V27.56ZM178.651 35.288C177.643 35.288 176.719 35.108 175.879 34.748C175.039 34.38 174.363 33.84 173.851 33.128C173.339 32.416 173.075 31.536 173.059 30.488H174.883C174.883 31.192 175.055 31.772 175.399 32.228C175.743 32.676 176.199 33.012 176.767 33.236C177.335 33.452 177.955 33.56 178.627 33.56C179.355 33.56 179.987 33.444 180.523 33.212C181.059 32.98 181.471 32.676 181.759 32.3C182.055 31.916 182.203 31.496 182.203 31.04C182.203 30.4 182.007 29.884 181.615 29.492C181.223 29.092 180.643 28.768 179.875 28.52L177.211 27.584C175.963 27.136 175.019 26.624 174.379 26.048C173.739 25.472 173.419 24.664 173.419 23.624C173.419 22.456 173.867 21.504 174.763 20.768C175.667 20.032 176.947 19.664 178.603 19.664C180.139 19.664 181.339 20.02 182.203 20.732C183.067 21.436 183.563 22.384 183.691 23.576H181.843C181.723 22.88 181.395 22.34 180.859 21.956C180.331 21.564 179.579 21.368 178.603 21.368C177.611 21.368 176.839 21.588 176.287 22.028C175.735 22.468 175.459 23.024 175.459 23.696C175.459 24.248 175.631 24.688 175.975 25.016C176.327 25.336 176.875 25.624 177.619 25.88L180.739 26.96C181.819 27.32 182.671 27.824 183.295 28.472C183.927 29.12 184.243 29.96 184.243 30.992C184.243 31.792 184.027 32.516 183.595 33.164C183.171 33.812 182.543 34.328 181.711 34.712C180.879 35.096 179.859 35.288 178.651 35.288ZM190.399 19.928H192.271V29.552C192.271 30.968 192.627 31.992 193.339 32.624C194.051 33.248 194.983 33.56 196.135 33.56C197.279 33.56 198.203 33.248 198.907 32.624C199.619 31.992 199.975 30.968 199.975 29.552V19.928H201.847V29.552C201.847 30.816 201.611 31.876 201.139 32.732C200.675 33.58 200.015 34.22 199.159 34.652C198.303 35.076 197.295 35.288 196.135 35.288C194.975 35.288 193.963 35.076 193.099 34.652C192.243 34.22 191.579 33.58 191.107 32.732C190.635 31.876 190.399 30.816 190.399 29.552V19.928ZM214.119 35.288C212.919 35.288 211.827 34.976 210.843 34.352C209.859 33.728 209.075 32.844 208.491 31.7C207.907 30.556 207.615 29.2 207.615 27.632C207.615 26.328 207.803 25.18 208.179 24.188C208.555 23.196 209.071 22.364 209.727 21.692C210.383 21.02 211.135 20.516 211.983 20.18C212.839 19.836 213.743 19.664 214.695 19.664C215.871 19.664 216.903 19.908 217.791 20.396C218.679 20.876 219.439 21.64 220.071 22.688L218.295 23.312C217.759 22.648 217.183 22.16 216.567 21.848C215.959 21.528 215.311 21.368 214.623 21.368C213.719 21.368 212.887 21.62 212.127 22.124C211.367 22.628 210.755 23.348 210.291 24.284C209.835 25.22 209.607 26.336 209.607 27.632C209.607 28.784 209.795 29.808 210.171 30.704C210.547 31.592 211.079 32.292 211.767 32.804C212.463 33.308 213.287 33.56 214.239 33.56C214.967 33.56 215.619 33.392 216.195 33.056C216.779 32.72 217.239 32.216 217.575 31.544C217.911 30.864 218.079 30.008 218.079 28.976H218.655C218.655 30.256 218.503 31.368 218.199 32.312C217.895 33.256 217.407 33.988 216.735 34.508C216.071 35.028 215.199 35.288 214.119 35.288ZM218.415 35L218.079 31.448V28.928L214.287 28.808V27.536H219.903V35H218.415ZM231.964 35.288C230.764 35.288 229.672 34.976 228.688 34.352C227.704 33.728 226.92 32.844 226.336 31.7C225.752 30.556 225.46 29.2 225.46 27.632C225.46 26.328 225.648 25.18 226.024 24.188C226.4 23.196 226.916 22.364 227.572 21.692C228.228 21.02 228.98 20.516 229.828 20.18C230.684 19.836 231.588 19.664 232.54 19.664C233.716 19.664 234.748 19.908 235.636 20.396C236.524 20.876 237.284 21.64 237.916 22.688L236.14 23.312C235.604 22.648 235.028 22.16 234.412 21.848C233.804 21.528 233.156 21.368 232.468 21.368C231.564 21.368 230.732 21.62 229.972 22.124C229.212 22.628 228.6 23.348 228.136 24.284C227.68 25.22 227.452 26.336 227.452 27.632C227.452 28.784 227.64 29.808 228.016 30.704C228.392 31.592 228.924 32.292 229.612 32.804C230.308 33.308 231.132 33.56 232.084 33.56C232.812 33.56 233.464 33.392 234.04 33.056C234.624 32.72 235.084 32.216 235.42 31.544C235.756 30.864 235.924 30.008 235.924 28.976H236.5C236.5 30.256 236.348 31.368 236.044 32.312C235.74 33.256 235.252 33.988 234.58 34.508C233.916 35.028 233.044 35.288 231.964 35.288ZM236.26 35L235.924 31.448V28.928L232.132 28.808V27.536H237.748V35H236.26ZM244.481 35V19.928H253.769V21.536H246.353V26.6H253.337V28.208H246.353V33.368H253.769V35H244.481ZM265.206 35.288C264.198 35.288 263.274 35.108 262.434 34.748C261.594 34.38 260.918 33.84 260.406 33.128C259.894 32.416 259.63 31.536 259.614 30.488H261.438C261.438 31.192 261.61 31.772 261.954 32.228C262.298 32.676 262.754 33.012 263.322 33.236C263.89 33.452 264.51 33.56 265.182 33.56C265.91 33.56 266.542 33.444 267.078 33.212C267.614 32.98 268.026 32.676 268.314 32.3C268.61 31.916 268.758 31.496 268.758 31.04C268.758 30.4 268.562 29.884 268.17 29.492C267.778 29.092 267.198 28.768 266.43 28.52L263.766 27.584C262.518 27.136 261.574 26.624 260.934 26.048C260.294 25.472 259.974 24.664 259.974 23.624C259.974 22.456 260.422 21.504 261.318 20.768C262.222 20.032 263.502 19.664 265.158 19.664C266.694 19.664 267.894 20.02 268.758 20.732C269.622 21.436 270.118 22.384 270.246 23.576H268.398C268.278 22.88 267.95 22.34 267.414 21.956C266.886 21.564 266.134 21.368 265.158 21.368C264.166 21.368 263.394 21.588 262.842 22.028C262.29 22.468 262.014 23.024 262.014 23.696C262.014 24.248 262.186 24.688 262.53 25.016C262.882 25.336 263.43 25.624 264.174 25.88L267.294 26.96C268.374 27.32 269.226 27.824 269.85 28.472C270.482 29.12 270.798 29.96 270.798 30.992C270.798 31.792 270.582 32.516 270.15 33.164C269.726 33.812 269.098 34.328 268.266 34.712C267.434 35.096 266.414 35.288 265.206 35.288ZM275.01 21.536V19.928H286.746V21.536H281.382L281.802 21.104V35H279.93V21.104L280.35 21.536H275.01ZM291.713 35V19.928H293.585V35H291.713ZM306.168 35.288C304.92 35.288 303.804 35 302.82 34.424C301.836 33.848 301.06 32.984 300.492 31.832C299.924 30.672 299.64 29.224 299.64 27.488C299.64 25.728 299.924 24.272 300.492 23.12C301.06 21.96 301.836 21.096 302.82 20.528C303.804 19.952 304.92 19.664 306.168 19.664C307.416 19.664 308.532 19.952 309.516 20.528C310.5 21.104 311.276 21.972 311.844 23.132C312.412 24.292 312.696 25.744 312.696 27.488C312.696 29.24 312.412 30.696 311.844 31.856C311.276 33.008 310.5 33.868 309.516 34.436C308.532 35.004 307.416 35.288 306.168 35.288ZM306.168 33.56C307.584 33.56 308.7 33.044 309.516 32.012C310.34 30.98 310.752 29.464 310.752 27.464C310.752 25.504 310.34 23.996 309.516 22.94C308.7 21.876 307.584 21.344 306.168 21.344C304.768 21.344 303.652 21.876 302.82 22.94C301.996 24.004 301.584 25.52 301.584 27.488C301.584 29.48 301.996 30.992 302.82 32.024C303.652 33.048 304.768 33.56 306.168 33.56ZM318.708 19.928H320.94L328.596 32.336H328.428V19.928H330.3V35H328.212L320.292 22.184H320.58V35H318.708V19.928Z" fill="#7D7D7D"/>
</g>
<defs>
<filter id="filter0_d_7051_5627" x="0" y="0" width="350" height="62" filterUnits="userSpaceOnUse" color-interpolation-filters="sRGB">
<feFlood flood-opacity="0" result="BackgroundImageFix"/>
<feColorMatrix in="SourceAlpha" type="matrix" values="0 0 0 0 0 0 0 0 0 0 0 0 0 0 0 0 0 0 127 0" result="hardAlpha"/>
<feOffset dy="4"/>
<feGaussianBlur stdDeviation="3"/>
<feComposite in2="hardAlpha" operator="out"/>
<feColorMatrix type="matrix" values="0 0 0 0 0 0 0 0 0 0 0 0 0 0 0 0 0 0 0.05 0"/>
<feBlend mode="normal" in2="BackgroundImageFix" result="effect1_dropShadow_7051_5627"/>
<feBlend mode="normal" in="SourceGraphic" in2="effect1_dropShadow_7051_5627" result="shape"/>
</filter>
</defs>
</svg>
