<svg width="364" height="62" viewBox="0 0 364 62" fill="none" xmlns="http://www.w3.org/2000/svg">
<g filter="url(#filter0_d_7059_5829)">
<rect x="6.5" y="2.5" width="351" height="49" rx="11.5" fill="#FBFBFB" stroke="#B9B9B9"/>
<path d="M32.8219 20.0413V20.2413H33.0219H38.233C39.217 20.2413 40.1605 20.6289 40.8558 21.3183C41.551 22.0077 41.9413 22.9422 41.9413 23.9163V35.5413C41.9413 36.5155 41.551 37.45 40.8558 38.1394C40.1605 38.8287 39.217 39.2163 38.233 39.2163H25.2053C24.2212 39.2163 23.2778 38.8287 22.5825 38.1394C21.8873 37.45 21.497 36.5155 21.497 35.5413V23.9163C21.497 22.9422 21.8873 22.0077 22.5825 21.3183C23.2778 20.6289 24.2212 20.2413 25.2053 20.2413H30.4164H30.6164V20.0413V18.388V18.272L30.5157 18.2144C30.1521 18.0063 29.8499 17.7075 29.6391 17.348C29.4284 16.9887 29.3162 16.5811 29.3136 16.1657C29.3138 15.5344 29.5668 14.9286 30.0176 14.4817C30.4686 14.0345 31.0806 13.783 31.7191 13.783C32.3577 13.783 32.9697 14.0345 33.4207 14.4817C33.8715 14.9286 34.1245 15.5344 34.1247 16.1657C34.122 16.5811 34.0099 16.9887 33.7992 17.348C33.5884 17.7075 33.2862 18.0063 32.9226 18.2144L32.8219 18.272V18.388V20.0413ZM34.1538 22.6736L34.2166 22.4247H33.9599H29.4784H29.2217L29.2844 22.6736L29.9358 25.2569L29.9739 25.408H30.1298H33.3085H33.4643L33.5024 25.2569L34.1538 22.6736ZM26.989 22.5775L26.9519 22.4247H26.7947H25.2053C24.8073 22.4247 24.4252 22.5814 24.1433 22.861C23.8613 23.1406 23.7025 23.5202 23.7025 23.9163V35.5413C23.7025 35.9375 23.8613 36.3171 24.1433 36.5967C24.4252 36.8763 24.8073 37.033 25.2053 37.033H38.233C38.631 37.033 39.013 36.8763 39.295 36.5967C39.577 36.3171 39.7358 35.9375 39.7358 35.5413V23.9163C39.7358 23.5202 39.577 23.1406 39.295 22.861C39.013 22.5814 38.631 22.4247 38.233 22.4247H36.6436H36.4864L36.4493 22.5775L35.4334 26.7614C35.4333 26.7615 35.4333 26.7616 35.4333 26.7618C35.373 27.0035 35.231 27.2178 35.0305 27.3689C34.8299 27.5201 34.5828 27.5987 34.3305 27.5914L34.3305 27.5913H34.3247H29.1136V27.5913L29.1078 27.5914C28.8555 27.5987 28.6084 27.5201 28.4077 27.3689C28.2073 27.2178 28.0653 27.0036 28.005 26.7619C28.005 26.7617 28.005 26.7616 28.0049 26.7614L26.989 22.5775ZM27.1975 30.7591C27.3789 30.6389 27.5923 30.5747 27.8108 30.5747C28.1039 30.5747 28.3845 30.6901 28.5912 30.895C28.7978 31.0999 28.9136 31.3774 28.9136 31.6663C28.9136 31.8819 28.8491 32.0927 28.7282 32.2722C28.6072 32.4517 28.4351 32.5918 28.2334 32.6747C28.0317 32.7575 27.8096 32.7792 27.5954 32.737C27.3811 32.6947 27.1846 32.5905 27.0304 32.4377C26.8763 32.2849 26.7716 32.0904 26.7292 31.879C26.6868 31.6676 26.7085 31.4484 26.7918 31.2491C26.875 31.0499 27.0161 30.8793 27.1975 30.7591ZM17.9111 29.6034C18.1177 29.3984 18.3984 29.283 18.6914 29.283C18.9845 29.283 19.2651 29.3984 19.4718 29.6034C19.6784 29.8082 19.7942 30.0857 19.7942 30.3747V32.958C19.7942 33.247 19.6784 33.5245 19.4718 33.7293C19.2651 33.9342 18.9845 34.0497 18.6914 34.0497C18.3984 34.0497 18.1177 33.9342 17.9111 33.7293C17.7044 33.5245 17.5887 33.247 17.5887 32.958V30.3747C17.5887 30.0857 17.7044 29.8082 17.9111 29.6034ZM43.9665 29.6034C44.1731 29.3984 44.4538 29.283 44.7468 29.283C45.0399 29.283 45.3205 29.3984 45.5272 29.6034C45.7338 29.8082 45.8496 30.0857 45.8496 30.3747V32.958C45.8496 33.247 45.7338 33.5245 45.5272 33.7293C45.3205 33.9342 45.0399 34.0497 44.7468 34.0497C44.4538 34.0497 44.1731 33.9342 43.9665 33.7293C43.7598 33.5245 43.6441 33.247 43.6441 32.958V30.3747C43.6441 30.0857 43.7598 29.8082 43.9665 29.6034ZM35.0141 30.7591C35.1955 30.6389 35.409 30.5747 35.6274 30.5747C35.9205 30.5747 36.2012 30.6901 36.4078 30.895C36.6145 31.0999 36.7302 31.3774 36.7302 31.6663C36.7302 31.8819 36.6658 32.0927 36.5448 32.2722C36.4238 32.4517 36.2517 32.5918 36.05 32.6747C35.8483 32.7575 35.6262 32.7792 35.412 32.737C35.1977 32.6947 35.0012 32.5905 34.8471 32.4377C34.693 32.2849 34.5882 32.0904 34.5458 31.879C34.5034 31.6676 34.5251 31.4484 34.6084 31.2491C34.6916 31.0499 34.8327 30.8793 35.0141 30.7591Z" fill="#7D7D7D" stroke="white" stroke-width="0.4"/>
<path d="M59.424 37.928V17H61.296V37.928H59.424ZM81.8779 35.288C80.5499 35.288 79.4059 34.956 78.4459 34.292C77.4859 33.62 76.7459 32.692 76.2259 31.508C75.7059 30.316 75.4459 28.936 75.4459 27.368C75.4459 25.696 75.7259 24.288 76.2859 23.144C76.8539 22 77.6219 21.136 78.5899 20.552C79.5659 19.96 80.6619 19.664 81.8779 19.664C83.4859 19.664 84.7779 20.068 85.7539 20.876C86.7379 21.676 87.4139 22.72 87.7819 24.008L85.7659 24.416C85.4539 23.48 84.9539 22.736 84.2659 22.184C83.5859 21.624 82.7899 21.344 81.8779 21.344C81.0859 21.344 80.3539 21.572 79.6819 22.028C79.0179 22.476 78.4819 23.148 78.0739 24.044C77.6659 24.94 77.4619 26.048 77.4619 27.368C77.4619 28.568 77.6219 29.636 77.9419 30.572C78.2699 31.508 78.7579 32.244 79.4059 32.78C80.0619 33.316 80.8859 33.584 81.8779 33.584C83.0699 33.584 84.0139 33.264 84.7099 32.624C85.4139 31.984 85.7659 31.144 85.7659 30.104H87.8059C87.8059 31.184 87.5579 32.112 87.0619 32.888C86.5659 33.656 85.8699 34.248 84.9739 34.664C84.0859 35.08 83.0539 35.288 81.8779 35.288ZM99.0926 35.288C97.8446 35.288 96.7286 35 95.7446 34.424C94.7606 33.848 93.9846 32.984 93.4166 31.832C92.8486 30.672 92.5646 29.224 92.5646 27.488C92.5646 25.728 92.8486 24.272 93.4166 23.12C93.9846 21.96 94.7606 21.096 95.7446 20.528C96.7286 19.952 97.8446 19.664 99.0926 19.664C100.341 19.664 101.457 19.952 102.441 20.528C103.425 21.104 104.201 21.972 104.769 23.132C105.337 24.292 105.621 25.744 105.621 27.488C105.621 29.24 105.337 30.696 104.769 31.856C104.201 33.008 103.425 33.868 102.441 34.436C101.457 35.004 100.341 35.288 99.0926 35.288ZM99.0926 33.56C100.509 33.56 101.625 33.044 102.441 32.012C103.265 30.98 103.677 29.464 103.677 27.464C103.677 25.504 103.265 23.996 102.441 22.94C101.625 21.876 100.509 21.344 99.0926 21.344C97.6926 21.344 96.5766 21.876 95.7446 22.94C94.9206 24.004 94.5086 25.52 94.5086 27.488C94.5086 29.48 94.9206 30.992 95.7446 32.024C96.5766 33.048 97.6926 33.56 99.0926 33.56ZM111.633 19.928H113.865L121.521 32.336H121.353V19.928H123.225V35H121.137L113.217 22.184H113.505V35H111.633V19.928ZM128.183 21.536V19.928H139.919V21.536H134.555L134.975 21.104V35H133.103V21.104L133.523 21.536H128.183ZM144.863 35V19.928H154.151V21.536H146.735V26.6H153.719V28.208H146.735V33.368H154.151V35H144.863ZM160.739 19.928H162.971L170.627 32.336H170.459V19.928H172.331V35H170.243L162.323 22.184H162.611V35H160.739V19.928ZM177.289 21.536V19.928H189.025V21.536H183.661L184.081 21.104V35H182.209V21.104L182.629 21.536H177.289ZM206.912 35.288C205.904 35.288 204.98 35.108 204.14 34.748C203.3 34.38 202.624 33.84 202.112 33.128C201.6 32.416 201.336 31.536 201.32 30.488H203.144C203.144 31.192 203.316 31.772 203.66 32.228C204.004 32.676 204.46 33.012 205.028 33.236C205.596 33.452 206.216 33.56 206.888 33.56C207.616 33.56 208.248 33.444 208.784 33.212C209.32 32.98 209.732 32.676 210.02 32.3C210.316 31.916 210.464 31.496 210.464 31.04C210.464 30.4 210.268 29.884 209.876 29.492C209.484 29.092 208.904 28.768 208.136 28.52L205.472 27.584C204.224 27.136 203.28 26.624 202.64 26.048C202 25.472 201.68 24.664 201.68 23.624C201.68 22.456 202.128 21.504 203.024 20.768C203.928 20.032 205.208 19.664 206.864 19.664C208.4 19.664 209.6 20.02 210.464 20.732C211.328 21.436 211.824 22.384 211.952 23.576H210.104C209.984 22.88 209.656 22.34 209.12 21.956C208.592 21.564 207.84 21.368 206.864 21.368C205.872 21.368 205.1 21.588 204.548 22.028C203.996 22.468 203.72 23.024 203.72 23.696C203.72 24.248 203.892 24.688 204.236 25.016C204.588 25.336 205.136 25.624 205.88 25.88L209 26.96C210.08 27.32 210.932 27.824 211.556 28.472C212.188 29.12 212.504 29.96 212.504 30.992C212.504 31.792 212.288 32.516 211.856 33.164C211.432 33.812 210.804 34.328 209.972 34.712C209.14 35.096 208.12 35.288 206.912 35.288ZM216.716 21.536V19.928H228.452V21.536H223.088L223.508 21.104V35H221.636V21.104L222.056 21.536H216.716ZM230.635 35L235.819 19.928H238.099L243.163 35H241.195L239.923 31.136H233.923L232.603 35H230.635ZM234.403 29.672H239.443L236.923 22.208L234.403 29.672ZM245.352 21.536V19.928H257.088V21.536H251.724L252.144 21.104V35H250.272V21.104L250.692 21.536H245.352ZM262.031 35V19.928H271.319V21.536H263.903V26.6H270.887V28.208H263.903V33.368H271.319V35H262.031ZM277.932 19.928H280.62L285.804 30.344H285.612L290.796 19.928H293.412V35H291.516V21.872H291.852L286.332 33.104H285.084L279.588 21.944H279.804V35H277.932V19.928ZM300.628 35V19.928H309.916V21.536H302.5V26.6H309.484V28.208H302.5V33.368H309.916V35H300.628ZM316.505 19.928H318.737L326.393 32.336H326.225V19.928H328.097V35H326.009L318.089 22.184H318.377V35H316.505V19.928ZM333.055 21.536V19.928H344.791V21.536H339.427L339.847 21.104V35H337.975V21.104L338.395 21.536H333.055Z" fill="#7D7D7D"/>
</g>
<defs>
<filter id="filter0_d_7059_5829" x="0" y="0" width="364" height="62" filterUnits="userSpaceOnUse" color-interpolation-filters="sRGB">
<feFlood flood-opacity="0" result="BackgroundImageFix"/>
<feColorMatrix in="SourceAlpha" type="matrix" values="0 0 0 0 0 0 0 0 0 0 0 0 0 0 0 0 0 0 127 0" result="hardAlpha"/>
<feOffset dy="4"/>
<feGaussianBlur stdDeviation="3"/>
<feComposite in2="hardAlpha" operator="out"/>
<feColorMatrix type="matrix" values="0 0 0 0 0 0 0 0 0 0 0 0 0 0 0 0 0 0 0.05 0"/>
<feBlend mode="normal" in2="BackgroundImageFix" result="effect1_dropShadow_7059_5829"/>
<feBlend mode="normal" in="SourceGraphic" in2="effect1_dropShadow_7059_5829" result="shape"/>
</filter>
</defs>
</svg>
