<svg width="312" height="62" viewBox="0 0 312 62" fill="none" xmlns="http://www.w3.org/2000/svg">
<g filter="url(#filter0_d_7099_5772)">
<rect x="6.5" y="2.5" width="299" height="49" rx="11.5" fill="#FBFBFB" stroke="#B9B9B9"/>
<path d="M28.324 29.5339L28.324 29.5339L28.3263 29.5358C29.2253 30.2606 30.3453 30.6559 31.5002 30.6559C32.655 30.6559 33.775 30.2606 34.674 29.5358L34.5485 29.3801L34.6763 29.5339C34.8993 29.3486 35.1868 29.2594 35.4755 29.286C35.6185 29.2992 35.7575 29.3404 35.8845 29.4073C36.0116 29.4742 36.1242 29.5654 36.2159 29.6758C36.4013 29.8988 36.4905 30.1863 36.4638 30.475C36.4372 30.7638 36.297 31.0301 36.074 31.2155L36.0737 31.2157C34.7904 32.287 33.1718 32.8738 31.5002 32.8738C29.8285 32.8738 28.2099 32.287 26.9267 31.2157L26.9263 31.2155C26.7034 31.0301 26.5631 30.7638 26.5365 30.475C26.5099 30.1863 26.5991 29.8988 26.7844 29.6758C26.9697 29.4529 27.2361 29.3126 27.5248 29.286C27.8135 29.2594 28.101 29.3486 28.324 29.5339ZM28.2317 24.824C28.0521 24.944 27.8411 25.008 27.6252 25.008C27.3356 25.008 27.058 24.893 26.8532 24.6883C26.6485 24.4835 26.5335 24.2059 26.5335 23.9163C26.5335 23.7004 26.5975 23.4894 26.7175 23.3098C26.8374 23.1303 27.0079 22.9904 27.2074 22.9078C27.4069 22.8251 27.6264 22.8035 27.8381 22.8457C28.0499 22.8878 28.2444 22.9917 28.3971 23.1444C28.5498 23.2971 28.6537 23.4916 28.6959 23.7034C28.738 23.9151 28.7164 24.1346 28.6337 24.3341C28.5511 24.5336 28.4112 24.7041 28.2317 24.824ZM34.7687 23.0087C34.9482 22.8887 35.1593 22.8247 35.3752 22.8247C35.6647 22.8247 35.9424 22.9397 36.1471 23.1444C36.3518 23.3491 36.4668 23.6268 36.4668 23.9163C36.4668 24.1323 36.4028 24.3433 36.2829 24.5228C36.1629 24.7024 35.9924 24.8423 35.7929 24.9249C35.5935 25.0075 35.374 25.0292 35.1622 24.987C34.9504 24.9449 34.7559 24.8409 34.6032 24.6883C34.4506 24.5356 34.3466 24.3411 34.3045 24.1293C34.2624 23.9176 34.284 23.6981 34.3666 23.4986C34.4492 23.2991 34.5891 23.1286 34.7687 23.0087ZM24.4352 15.9262C26.5264 14.5288 28.985 13.783 31.5002 13.783C33.1701 13.783 34.8238 14.1119 36.3666 14.751C37.9095 15.3901 39.3114 16.3268 40.4922 17.5076C41.6731 18.6885 42.6098 20.0904 43.2488 21.6332C43.8879 23.1761 44.2168 24.8297 44.2168 26.4997C44.2168 29.0148 43.471 31.4734 42.0737 33.5647C40.6764 35.6559 38.6903 37.2859 36.3666 38.2483C34.043 39.2108 31.4861 39.4627 29.0193 38.972C26.5525 38.4813 24.2866 37.2702 22.5081 35.4917C20.7297 33.7133 19.5185 31.4474 19.0278 28.9806C18.5372 26.5138 18.789 23.9569 19.7515 21.6332C20.714 19.3095 22.3439 17.3235 24.4352 15.9262ZM25.6482 35.2578C27.3804 36.4152 29.4169 37.033 31.5002 37.033C34.2938 37.033 36.973 35.9233 38.9484 33.9479C40.9237 31.9725 42.0335 29.2933 42.0335 26.4997C42.0335 24.4164 41.4157 22.3799 40.2583 20.6477C39.1009 18.9155 37.4558 17.5654 35.5311 16.7681C33.6064 15.9709 31.4885 15.7623 29.4452 16.1687C27.402 16.5752 25.5251 17.5784 24.052 19.0515C22.5789 20.5246 21.5757 22.4015 21.1692 24.4447C20.7628 26.488 20.9714 28.6059 21.7686 30.5306C22.5659 32.4553 23.916 34.1004 25.6482 35.2578Z" fill="#7D7D7D" stroke="white" stroke-width="0.4"/>
<path d="M59.424 37.928V17H61.296V37.928H59.424ZM81.4699 35.288C80.4619 35.288 79.5379 35.108 78.6979 34.748C77.8579 34.38 77.1819 33.84 76.6699 33.128C76.1579 32.416 75.8939 31.536 75.8779 30.488H77.7019C77.7019 31.192 77.8739 31.772 78.2179 32.228C78.5619 32.676 79.0179 33.012 79.5859 33.236C80.1539 33.452 80.7739 33.56 81.4459 33.56C82.1739 33.56 82.8059 33.444 83.3419 33.212C83.8779 32.98 84.2899 32.676 84.5779 32.3C84.8739 31.916 85.0219 31.496 85.0219 31.04C85.0219 30.4 84.8259 29.884 84.4339 29.492C84.0419 29.092 83.4619 28.768 82.6939 28.52L80.0299 27.584C78.7819 27.136 77.8379 26.624 77.1979 26.048C76.5579 25.472 76.2379 24.664 76.2379 23.624C76.2379 22.456 76.6859 21.504 77.5819 20.768C78.4859 20.032 79.7659 19.664 81.4219 19.664C82.9579 19.664 84.1579 20.02 85.0219 20.732C85.8859 21.436 86.3819 22.384 86.5099 23.576H84.6619C84.5419 22.88 84.2139 22.34 83.6779 21.956C83.1499 21.564 82.3979 21.368 81.4219 21.368C80.4299 21.368 79.6579 21.588 79.1059 22.028C78.5539 22.468 78.2779 23.024 78.2779 23.696C78.2779 24.248 78.4499 24.688 78.7939 25.016C79.1459 25.336 79.6939 25.624 80.4379 25.88L83.5579 26.96C84.6379 27.32 85.4899 27.824 86.1139 28.472C86.7459 29.12 87.0619 29.96 87.0619 30.992C87.0619 31.792 86.8459 32.516 86.4139 33.164C85.9899 33.812 85.3619 34.328 84.5299 34.712C83.6979 35.096 82.6779 35.288 81.4699 35.288ZM93.5537 35V19.928H95.4257V35H93.5537ZM102.68 19.928H105.368L110.552 30.344H110.36L115.544 19.928H118.16V35H116.264V21.872H116.6L111.08 33.104H109.832L104.336 21.944H104.552V35H102.68V19.928ZM125.353 35V19.928H130.201C131.857 19.928 133.121 20.348 133.993 21.188C134.873 22.02 135.313 23.152 135.313 24.584C135.313 26 134.873 27.124 133.993 27.956C133.121 28.78 131.857 29.192 130.201 29.192H127.249V35H125.353ZM127.249 27.56H130.201C131.249 27.56 132.041 27.292 132.577 26.756C133.121 26.22 133.393 25.496 133.393 24.584C133.393 23.656 133.121 22.916 132.577 22.364C132.041 21.812 131.249 21.536 130.201 21.536H127.249V27.56ZM142.962 19.928V33.368H149.682V35H141.09V19.928H142.962ZM154.692 35V19.928H163.98V21.536H156.564V26.6H163.548V28.208H156.564V33.368H163.98V35H154.692ZM178.688 35V19.928H183.944C185.664 19.928 186.964 20.34 187.844 21.164C188.732 21.98 189.176 23.056 189.176 24.392C189.176 25.712 188.732 26.784 187.844 27.608C186.964 28.424 185.664 28.832 183.944 28.832H180.56V35H178.688ZM187.136 35L182.816 28.16H184.856L189.56 35H187.136ZM180.56 27.512H183.8C184.928 27.512 185.784 27.236 186.368 26.684C186.96 26.124 187.256 25.4 187.256 24.512C187.256 23.6 186.972 22.876 186.404 22.34C185.844 21.804 185.024 21.536 183.944 21.536H180.56V27.512ZM195.759 35V19.928H205.047V21.536H197.631V26.6H204.615V28.208H197.631V33.368H205.047V35H195.759ZM216.988 35.288C215.74 35.288 214.624 35 213.64 34.424C212.656 33.848 211.88 32.984 211.312 31.832C210.744 30.672 210.46 29.224 210.46 27.488C210.46 25.728 210.744 24.272 211.312 23.12C211.88 21.96 212.656 21.096 213.64 20.528C214.624 19.952 215.74 19.664 216.988 19.664C218.236 19.664 219.352 19.952 220.336 20.528C221.32 21.104 222.096 21.972 222.664 23.132C223.232 24.292 223.516 25.744 223.516 27.488C223.516 29.24 223.232 30.696 222.664 31.856C222.096 33.008 221.32 33.868 220.336 34.436C219.352 35.004 218.236 35.288 216.988 35.288ZM221.5 39.008C220.796 39.008 220.16 38.824 219.592 38.456C219.024 38.096 218.5 37.568 218.02 36.872L216.46 34.64L218.14 34.112L219.532 36.104C219.796 36.464 220.068 36.716 220.348 36.86C220.636 37.012 220.916 37.096 221.188 37.112C221.612 37.112 222.004 37.056 222.364 36.944C222.724 36.832 223.108 36.68 223.516 36.488V38.552C223.156 38.704 222.812 38.816 222.484 38.888C222.156 38.968 221.828 39.008 221.5 39.008ZM216.988 33.56C218.404 33.56 219.52 33.044 220.336 32.012C221.16 30.98 221.572 29.464 221.572 27.464C221.572 25.504 221.16 23.996 220.336 22.94C219.52 21.876 218.404 21.344 216.988 21.344C215.588 21.344 214.472 21.876 213.64 22.94C212.816 24.004 212.404 25.52 212.404 27.488C212.404 29.48 212.816 30.992 213.64 32.024C214.472 33.048 215.588 33.56 216.988 33.56ZM229.357 19.928H231.229V29.552C231.229 30.968 231.585 31.992 232.297 32.624C233.009 33.248 233.941 33.56 235.093 33.56C236.237 33.56 237.161 33.248 237.865 32.624C238.577 31.992 238.933 30.968 238.933 29.552V19.928H240.805V29.552C240.805 30.816 240.569 31.876 240.097 32.732C239.633 33.58 238.973 34.22 238.117 34.652C237.261 35.076 236.253 35.288 235.093 35.288C233.933 35.288 232.921 35.076 232.057 34.652C231.201 34.22 230.537 33.58 230.065 32.732C229.593 31.876 229.357 30.816 229.357 29.552V19.928ZM247.748 35V19.928H257.036V21.536H249.62V26.6H256.604V28.208H249.62V33.368H257.036V35H247.748ZM268.473 35.288C267.465 35.288 266.541 35.108 265.701 34.748C264.861 34.38 264.185 33.84 263.673 33.128C263.161 32.416 262.897 31.536 262.881 30.488H264.705C264.705 31.192 264.877 31.772 265.221 32.228C265.565 32.676 266.021 33.012 266.589 33.236C267.157 33.452 267.777 33.56 268.449 33.56C269.177 33.56 269.809 33.444 270.345 33.212C270.881 32.98 271.293 32.676 271.581 32.3C271.877 31.916 272.025 31.496 272.025 31.04C272.025 30.4 271.829 29.884 271.437 29.492C271.045 29.092 270.465 28.768 269.697 28.52L267.033 27.584C265.785 27.136 264.841 26.624 264.201 26.048C263.561 25.472 263.241 24.664 263.241 23.624C263.241 22.456 263.689 21.504 264.585 20.768C265.489 20.032 266.769 19.664 268.425 19.664C269.961 19.664 271.161 20.02 272.025 20.732C272.889 21.436 273.385 22.384 273.513 23.576H271.665C271.545 22.88 271.217 22.34 270.681 21.956C270.153 21.564 269.401 21.368 268.425 21.368C267.433 21.368 266.661 21.588 266.109 22.028C265.557 22.468 265.281 23.024 265.281 23.696C265.281 24.248 265.453 24.688 265.797 25.016C266.149 25.336 266.697 25.624 267.441 25.88L270.561 26.96C271.641 27.32 272.493 27.824 273.117 28.472C273.749 29.12 274.065 29.96 274.065 30.992C274.065 31.792 273.849 32.516 273.417 33.164C272.993 33.812 272.365 34.328 271.533 34.712C270.701 35.096 269.681 35.288 268.473 35.288ZM278.277 21.536V19.928H290.013V21.536H284.649L285.069 21.104V35H283.197V21.104L283.617 21.536H278.277Z" fill="#7D7D7D"/>
</g>
<defs>
<filter id="filter0_d_7099_5772" x="0" y="0" width="312" height="62" filterUnits="userSpaceOnUse" color-interpolation-filters="sRGB">
<feFlood flood-opacity="0" result="BackgroundImageFix"/>
<feColorMatrix in="SourceAlpha" type="matrix" values="0 0 0 0 0 0 0 0 0 0 0 0 0 0 0 0 0 0 127 0" result="hardAlpha"/>
<feOffset dy="4"/>
<feGaussianBlur stdDeviation="3"/>
<feComposite in2="hardAlpha" operator="out"/>
<feColorMatrix type="matrix" values="0 0 0 0 0 0 0 0 0 0 0 0 0 0 0 0 0 0 0.05 0"/>
<feBlend mode="normal" in2="BackgroundImageFix" result="effect1_dropShadow_7099_5772"/>
<feBlend mode="normal" in="SourceGraphic" in2="effect1_dropShadow_7099_5772" result="shape"/>
</filter>
</defs>
</svg>
