<svg width="330" height="62" viewBox="0 0 330 62" fill="none" xmlns="http://www.w3.org/2000/svg">
<g filter="url(#filter0_d_7079_5800)">
<rect x="6.5" y="2.5" width="317" height="49" rx="11.5" fill="#F1F3FF" stroke="#ABB4E5"/>
<path d="M34.6738 29.5358L34.6738 29.5358L34.6761 29.5339C34.8991 29.3486 35.1866 29.2594 35.4753 29.286C35.6183 29.2992 35.7572 29.3404 35.8843 29.4073C36.0113 29.4742 36.1239 29.5654 36.2157 29.6758C36.401 29.8988 36.4902 30.1863 36.4636 30.475C36.437 30.7638 36.2967 31.0301 36.0738 31.2155L36.0734 31.2157C34.7902 32.287 33.1716 32.8738 31.4999 32.8738C29.8283 32.8738 28.2097 32.287 26.9264 31.2157L26.9261 31.2155C26.7031 31.0301 26.5629 30.7638 26.5363 30.475C26.5096 30.1863 26.5988 29.8988 26.7841 29.6758C26.9695 29.4529 27.2358 29.3126 27.5246 29.286C27.8133 29.2594 28.1008 29.3486 28.3238 29.5339L28.3237 29.5339L28.3261 29.5358C29.2251 30.2606 30.3451 30.6559 31.4999 30.6559C32.6547 30.6559 33.7748 30.2606 34.6738 29.5358ZM28.2314 24.824C28.0519 24.944 27.8408 25.008 27.6249 25.008C27.3354 25.008 27.0577 24.893 26.853 24.6883C26.6483 24.4835 26.5333 24.2059 26.5333 23.9163C26.5333 23.7004 26.5973 23.4894 26.7172 23.3098C26.8372 23.1303 27.0077 22.9904 27.2072 22.9078C27.4066 22.8251 27.6261 22.8035 27.8379 22.8457C28.0497 22.8878 28.2442 22.9917 28.3968 23.1444C28.5495 23.2971 28.6535 23.4916 28.6956 23.7034C28.7377 23.9151 28.7161 24.1346 28.6335 24.3341C28.5509 24.5336 28.4109 24.7041 28.2314 24.824ZM34.7684 23.0087C34.948 22.8887 35.159 22.8247 35.3749 22.8247C35.6645 22.8247 35.9421 22.9397 36.1468 23.1444C36.3516 23.3491 36.4666 23.6268 36.4666 23.9163C36.4666 24.1323 36.4026 24.3433 36.2826 24.5228C36.1627 24.7024 35.9922 24.8423 35.7927 24.9249C35.5932 25.0075 35.3737 25.0292 35.162 24.987C34.9502 24.9449 34.7557 24.8409 34.603 24.6883C34.4503 24.5356 34.3464 24.3411 34.3042 24.1293C34.2621 23.9176 34.2837 23.6981 34.3664 23.4986C34.449 23.2991 34.5889 23.1286 34.7684 23.0087ZM24.4349 15.9262C26.5262 14.5288 28.9848 13.783 31.4999 13.783C33.1699 13.783 34.8235 14.1119 36.3664 14.751C37.9092 15.3901 39.3111 16.3268 40.492 17.5076C41.6728 18.6885 42.6095 20.0904 43.2486 21.6332C43.8877 23.1761 44.2166 24.8297 44.2166 26.4997C44.2166 29.0148 43.4708 31.4734 42.0734 33.5647C40.6761 35.6559 38.69 37.2859 36.3664 38.2483C34.0427 39.2108 31.4858 39.4627 29.019 38.972C26.5522 38.4813 24.2863 37.2702 22.5079 35.4917C20.7294 33.7133 19.5183 31.4474 19.0276 28.9806C18.5369 26.5138 18.7888 23.9569 19.7513 21.6332C20.7138 19.3095 22.3437 17.3235 24.4349 15.9262ZM25.6479 35.2578C27.3801 36.4152 29.4166 37.033 31.4999 37.033C34.2935 37.033 36.9727 35.9233 38.9481 33.9479C40.9235 31.9725 42.0333 29.2933 42.0333 26.4997C42.0333 24.4164 41.4155 22.3799 40.2581 20.6477C39.1007 18.9155 37.4556 17.5654 35.5309 16.7681C33.6061 15.9709 31.4882 15.7623 29.445 16.1687C27.4017 16.5752 25.5248 17.5784 24.0517 19.0515C22.5786 20.5246 21.5754 22.4015 21.169 24.4447C20.7626 26.488 20.9712 28.6059 21.7684 30.5306C22.5656 32.4553 23.9157 34.1004 25.6479 35.2578Z" fill="#6071CE" stroke="white" stroke-width="0.4"/>
<path d="M59.424 37.928V17H61.296V37.928H59.424ZM76.6459 35V19.928H85.8139V21.536H78.5179V26.552H85.3099V28.16H78.5179V35H76.6459ZM91.6078 35V19.928H100.896V21.536H93.4798V26.6H100.464V28.208H93.4798V33.368H100.896V35H91.6078ZM105.708 35L110.892 19.928H113.172L118.236 35H116.268L114.996 31.136H108.996L107.676 35H105.708ZM109.476 29.672H114.516L111.996 22.208L109.476 29.672ZM120.425 21.536V19.928H132.161V21.536H126.797L127.217 21.104V35H125.345V21.104L125.765 21.536H120.425ZM136.793 19.928H138.665V29.552C138.665 30.968 139.021 31.992 139.733 32.624C140.445 33.248 141.377 33.56 142.529 33.56C143.673 33.56 144.597 33.248 145.301 32.624C146.013 31.992 146.369 30.968 146.369 29.552V19.928H148.241V29.552C148.241 30.816 148.005 31.876 147.533 32.732C147.069 33.58 146.409 34.22 145.553 34.652C144.697 35.076 143.689 35.288 142.529 35.288C141.369 35.288 140.357 35.076 139.493 34.652C138.637 34.22 137.973 33.58 137.501 32.732C137.029 31.876 136.793 30.816 136.793 29.552V19.928ZM155.208 35V19.928H160.464C162.184 19.928 163.484 20.34 164.364 21.164C165.252 21.98 165.696 23.056 165.696 24.392C165.696 25.712 165.252 26.784 164.364 27.608C163.484 28.424 162.184 28.832 160.464 28.832H157.08V35H155.208ZM163.656 35L159.336 28.16H161.376L166.08 35H163.656ZM157.08 27.512H160.32C161.448 27.512 162.304 27.236 162.888 26.684C163.48 26.124 163.776 25.4 163.776 24.512C163.776 23.6 163.492 22.876 162.924 22.34C162.364 21.804 161.544 21.536 160.464 21.536H157.08V27.512ZM172.28 35V19.928H181.568V21.536H174.152V26.6H181.136V28.208H174.152V33.368H181.568V35H172.28ZM196.276 35V19.928H201.532C203.252 19.928 204.552 20.34 205.432 21.164C206.32 21.98 206.764 23.056 206.764 24.392C206.764 25.712 206.32 26.784 205.432 27.608C204.552 28.424 203.252 28.832 201.532 28.832H198.148V35H196.276ZM204.724 35L200.404 28.16H202.444L207.148 35H204.724ZM198.148 27.512H201.388C202.516 27.512 203.372 27.236 203.956 26.684C204.548 26.124 204.844 25.4 204.844 24.512C204.844 23.6 204.56 22.876 203.992 22.34C203.432 21.804 202.612 21.536 201.532 21.536H198.148V27.512ZM213.347 35V19.928H222.635V21.536H215.219V26.6H222.203V28.208H215.219V33.368H222.635V35H213.347ZM234.575 35.288C233.327 35.288 232.211 35 231.227 34.424C230.243 33.848 229.467 32.984 228.899 31.832C228.331 30.672 228.047 29.224 228.047 27.488C228.047 25.728 228.331 24.272 228.899 23.12C229.467 21.96 230.243 21.096 231.227 20.528C232.211 19.952 233.327 19.664 234.575 19.664C235.823 19.664 236.939 19.952 237.923 20.528C238.907 21.104 239.683 21.972 240.251 23.132C240.819 24.292 241.103 25.744 241.103 27.488C241.103 29.24 240.819 30.696 240.251 31.856C239.683 33.008 238.907 33.868 237.923 34.436C236.939 35.004 235.823 35.288 234.575 35.288ZM239.087 39.008C238.383 39.008 237.747 38.824 237.179 38.456C236.611 38.096 236.087 37.568 235.607 36.872L234.047 34.64L235.727 34.112L237.119 36.104C237.383 36.464 237.655 36.716 237.935 36.86C238.223 37.012 238.503 37.096 238.775 37.112C239.199 37.112 239.591 37.056 239.951 36.944C240.311 36.832 240.695 36.68 241.103 36.488V38.552C240.743 38.704 240.399 38.816 240.071 38.888C239.743 38.968 239.415 39.008 239.087 39.008ZM234.575 33.56C235.991 33.56 237.107 33.044 237.923 32.012C238.747 30.98 239.159 29.464 239.159 27.464C239.159 25.504 238.747 23.996 237.923 22.94C237.107 21.876 235.991 21.344 234.575 21.344C233.175 21.344 232.059 21.876 231.227 22.94C230.403 24.004 229.991 25.52 229.991 27.488C229.991 29.48 230.403 30.992 231.227 32.024C232.059 33.048 233.175 33.56 234.575 33.56ZM246.944 19.928H248.816V29.552C248.816 30.968 249.172 31.992 249.884 32.624C250.596 33.248 251.528 33.56 252.68 33.56C253.824 33.56 254.748 33.248 255.452 32.624C256.164 31.992 256.52 30.968 256.52 29.552V19.928H258.392V29.552C258.392 30.816 258.156 31.876 257.684 32.732C257.22 33.58 256.56 34.22 255.704 34.652C254.848 35.076 253.84 35.288 252.68 35.288C251.52 35.288 250.508 35.076 249.644 34.652C248.788 34.22 248.124 33.58 247.652 32.732C247.18 31.876 246.944 30.816 246.944 29.552V19.928ZM265.336 35V19.928H274.624V21.536H267.208V26.6H274.192V28.208H267.208V33.368H274.624V35H265.336ZM286.061 35.288C285.053 35.288 284.129 35.108 283.289 34.748C282.449 34.38 281.773 33.84 281.261 33.128C280.749 32.416 280.485 31.536 280.469 30.488H282.293C282.293 31.192 282.465 31.772 282.809 32.228C283.153 32.676 283.609 33.012 284.177 33.236C284.745 33.452 285.365 33.56 286.037 33.56C286.765 33.56 287.397 33.444 287.933 33.212C288.469 32.98 288.881 32.676 289.169 32.3C289.465 31.916 289.613 31.496 289.613 31.04C289.613 30.4 289.417 29.884 289.025 29.492C288.633 29.092 288.053 28.768 287.285 28.52L284.621 27.584C283.373 27.136 282.429 26.624 281.789 26.048C281.149 25.472 280.829 24.664 280.829 23.624C280.829 22.456 281.277 21.504 282.173 20.768C283.077 20.032 284.357 19.664 286.013 19.664C287.549 19.664 288.749 20.02 289.613 20.732C290.477 21.436 290.973 22.384 291.101 23.576H289.253C289.133 22.88 288.805 22.34 288.269 21.956C287.741 21.564 286.989 21.368 286.013 21.368C285.021 21.368 284.249 21.588 283.697 22.028C283.145 22.468 282.869 23.024 282.869 23.696C282.869 24.248 283.041 24.688 283.385 25.016C283.737 25.336 284.285 25.624 285.029 25.88L288.149 26.96C289.229 27.32 290.081 27.824 290.705 28.472C291.337 29.12 291.653 29.96 291.653 30.992C291.653 31.792 291.437 32.516 291.005 33.164C290.581 33.812 289.953 34.328 289.121 34.712C288.289 35.096 287.269 35.288 286.061 35.288ZM295.864 21.536V19.928H307.6V21.536H302.236L302.656 21.104V35H300.784V21.104L301.204 21.536H295.864Z" fill="#6071CE"/>
</g>
<defs>
<filter id="filter0_d_7079_5800" x="0" y="0" width="330" height="62" filterUnits="userSpaceOnUse" color-interpolation-filters="sRGB">
<feFlood flood-opacity="0" result="BackgroundImageFix"/>
<feColorMatrix in="SourceAlpha" type="matrix" values="0 0 0 0 0 0 0 0 0 0 0 0 0 0 0 0 0 0 127 0" result="hardAlpha"/>
<feOffset dy="4"/>
<feGaussianBlur stdDeviation="3"/>
<feComposite in2="hardAlpha" operator="out"/>
<feColorMatrix type="matrix" values="0 0 0 0 0 0 0 0 0 0 0 0 0 0 0 0 0 0 0.05 0"/>
<feBlend mode="normal" in2="BackgroundImageFix" result="effect1_dropShadow_7079_5800"/>
<feBlend mode="normal" in="SourceGraphic" in2="effect1_dropShadow_7079_5800" result="shape"/>
</filter>
</defs>
</svg>
