<svg width="288" height="62" viewBox="0 0 288 62" fill="none" xmlns="http://www.w3.org/2000/svg">
<g filter="url(#filter0_d_7073_5923)">
<rect x="6.5" y="2.5" width="275" height="49" rx="11.5" fill="#F1F3FF" stroke="#ABB4E5"/>
<path d="M32.5917 20.0413V20.2413H32.7917H37.9584C38.9331 20.2413 39.8678 20.6285 40.557 21.3177C41.2462 22.0069 41.6334 22.9417 41.6334 23.9163V35.5413C41.6334 36.516 41.2462 37.4508 40.557 38.14C39.8678 38.8292 38.9331 39.2163 37.9584 39.2163H25.0417C24.0671 39.2163 23.1323 38.8292 22.4431 38.14C21.7539 37.4508 21.3667 36.516 21.3667 35.5413V23.9163C21.3667 22.9417 21.7539 22.0069 22.4431 21.3177C23.1323 20.6285 24.0671 20.2413 25.0417 20.2413H30.2084H30.4084V20.0413V18.388V18.2725L30.3084 18.2148C29.9482 18.0068 29.6487 17.7082 29.4396 17.3487C29.2307 16.9893 29.1194 16.5815 29.1167 16.1658C29.1169 15.5339 29.368 14.9279 29.8148 14.4811C30.2618 14.0341 30.868 13.783 31.5001 13.783C32.1322 13.783 32.7384 14.0341 33.1854 14.4811C33.6322 14.9279 33.8833 15.5339 33.8834 16.1658C33.8808 16.5815 33.7695 16.9893 33.5605 17.3487C33.3515 17.7082 33.052 18.0068 32.6918 18.2148L32.5917 18.2725V18.388V20.0413ZM33.9158 22.6732L33.9779 22.4247H33.7217H29.2784H29.0223L29.0844 22.6732L29.7302 25.2565L29.7681 25.408H29.9242H33.0759H33.2321L33.2699 25.2565L33.9158 22.6732ZM26.812 22.5779L26.7751 22.4247H26.6176H25.0417C24.6461 22.4247 24.2667 22.5818 23.987 22.8616C23.7072 23.1413 23.5501 23.5207 23.5501 23.9163V35.5413C23.5501 35.937 23.7072 36.3164 23.987 36.5961C24.2667 36.8759 24.6461 37.033 25.0417 37.033H37.9584C38.354 37.033 38.7334 36.8759 39.0132 36.5961C39.2929 36.3164 39.4501 35.937 39.4501 35.5413V23.9163C39.4501 23.5207 39.2929 23.1413 39.0132 22.8616C38.7334 22.5818 38.354 22.4247 37.9584 22.4247H36.3826H36.225L36.1881 22.5779L35.1809 26.7618C35.1809 26.7619 35.1808 26.7621 35.1808 26.7623C35.1209 27.0043 34.9801 27.2185 34.7816 27.3694C34.583 27.5203 34.3386 27.5987 34.0892 27.5914L34.0892 27.5913H34.0834H28.9167V27.5913L28.9109 27.5914C28.6615 27.5987 28.4172 27.5203 28.2186 27.3694C28.0201 27.2185 27.8792 27.0043 27.8194 26.7622C27.8193 26.7621 27.8193 26.7619 27.8193 26.7618L26.812 22.5779ZM27.0186 30.7587C27.1981 30.6387 27.4092 30.5747 27.6251 30.5747C27.9146 30.5747 28.1923 30.6897 28.397 30.8944C28.6017 31.0991 28.7167 31.3768 28.7167 31.6663C28.7167 31.8823 28.6527 32.0933 28.5328 32.2728C28.4128 32.4524 28.2423 32.5923 28.0428 32.6749C27.8434 32.7575 27.6239 32.7792 27.4121 32.737C27.2003 32.6949 27.0058 32.5909 26.8532 32.4383C26.7005 32.2856 26.5965 32.0911 26.5544 31.8793C26.5123 31.6676 26.5339 31.4481 26.6165 31.2486C26.6991 31.0491 26.8391 30.8786 27.0186 30.7587ZM17.8115 29.6028C18.0162 29.398 18.2939 29.283 18.5834 29.283C18.8729 29.283 19.1506 29.398 19.3553 29.6028C19.5601 29.8075 19.6751 30.0851 19.6751 30.3747V32.958C19.6751 33.2475 19.5601 33.5252 19.3553 33.7299C19.1506 33.9347 18.8729 34.0497 18.5834 34.0497C18.2939 34.0497 18.0162 33.9347 17.8115 33.7299C17.6068 33.5252 17.4917 33.2475 17.4917 32.958V30.3747C17.4917 30.0851 17.6068 29.8075 17.8115 29.6028ZM43.6448 29.6028C43.8495 29.398 44.1272 29.283 44.4167 29.283C44.7063 29.283 44.9839 29.398 45.1887 29.6028C45.3934 29.8075 45.5084 30.0851 45.5084 30.3747V32.958C45.5084 33.2475 45.3934 33.5252 45.1887 33.7299C44.9839 33.9347 44.7063 34.0497 44.4167 34.0497C44.1272 34.0497 43.8495 33.9347 43.6448 33.7299C43.4401 33.5252 43.3251 33.2475 43.3251 32.958V30.3747C43.3251 30.0851 43.4401 29.8075 43.6448 29.6028ZM34.7686 30.7587C34.9481 30.6387 35.1592 30.5747 35.3751 30.5747C35.6646 30.5747 35.9423 30.6897 36.147 30.8944C36.3517 31.0991 36.4667 31.3768 36.4667 31.6663C36.4667 31.8823 36.4027 32.0933 36.2828 32.2728C36.1628 32.4524 35.9923 32.5923 35.7928 32.6749C35.5934 32.7575 35.3739 32.7792 35.1621 32.737C34.9503 32.6949 34.7558 32.5909 34.6032 32.4383C34.4505 32.2856 34.3465 32.0911 34.3044 31.8793C34.2623 31.6676 34.2839 31.4481 34.3665 31.2486C34.4491 31.0491 34.5891 30.8786 34.7686 30.7587Z" fill="#6071CE" stroke="white" stroke-width="0.4"/>
<path d="M59.424 37.928V17H61.296V37.928H59.424ZM76.6459 19.928H81.0619C82.5819 19.928 83.9019 20.24 85.0219 20.864C86.1419 21.48 87.0099 22.352 87.6259 23.48C88.2419 24.608 88.5499 25.936 88.5499 27.464C88.5499 28.976 88.2419 30.296 87.6259 31.424C87.0099 32.552 86.1419 33.432 85.0219 34.064C83.9019 34.688 82.5819 35 81.0619 35H76.6459V19.928ZM78.5179 21.584V33.368H81.0619C82.1979 33.368 83.1739 33.112 83.9899 32.6C84.8139 32.088 85.4459 31.388 85.8859 30.5C86.3339 29.604 86.5579 28.592 86.5579 27.464C86.5579 26.328 86.3339 25.32 85.8859 24.44C85.4459 23.552 84.8139 22.856 83.9899 22.352C83.1739 21.84 82.1979 21.584 81.0619 21.584H78.5179ZM94.8896 35V19.928H96.7616V35H94.8896ZM108.84 35.288C107.832 35.288 106.908 35.108 106.068 34.748C105.228 34.38 104.552 33.84 104.04 33.128C103.528 32.416 103.264 31.536 103.248 30.488H105.072C105.072 31.192 105.244 31.772 105.588 32.228C105.932 32.676 106.388 33.012 106.956 33.236C107.524 33.452 108.144 33.56 108.816 33.56C109.544 33.56 110.176 33.444 110.712 33.212C111.248 32.98 111.66 32.676 111.948 32.3C112.244 31.916 112.392 31.496 112.392 31.04C112.392 30.4 112.196 29.884 111.804 29.492C111.412 29.092 110.832 28.768 110.064 28.52L107.4 27.584C106.152 27.136 105.208 26.624 104.568 26.048C103.928 25.472 103.608 24.664 103.608 23.624C103.608 22.456 104.056 21.504 104.952 20.768C105.856 20.032 107.136 19.664 108.792 19.664C110.328 19.664 111.528 20.02 112.392 20.732C113.256 21.436 113.752 22.384 113.88 23.576H112.032C111.912 22.88 111.584 22.34 111.048 21.956C110.52 21.564 109.768 21.368 108.792 21.368C107.8 21.368 107.028 21.588 106.476 22.028C105.924 22.468 105.648 23.024 105.648 23.696C105.648 24.248 105.82 24.688 106.164 25.016C106.516 25.336 107.064 25.624 107.808 25.88L110.928 26.96C112.008 27.32 112.86 27.824 113.484 28.472C114.116 29.12 114.432 29.96 114.432 30.992C114.432 31.792 114.216 32.516 113.784 33.164C113.36 33.812 112.732 34.328 111.9 34.712C111.068 35.096 110.048 35.288 108.84 35.288ZM120.876 35V19.928H125.724C127.38 19.928 128.644 20.348 129.516 21.188C130.396 22.02 130.836 23.152 130.836 24.584C130.836 26 130.396 27.124 129.516 27.956C128.644 28.78 127.38 29.192 125.724 29.192H122.772V35H120.876ZM122.772 27.56H125.724C126.772 27.56 127.564 27.292 128.1 26.756C128.644 26.22 128.916 25.496 128.916 24.584C128.916 23.656 128.644 22.916 128.1 22.364C127.564 21.812 126.772 21.536 125.724 21.536H122.772V27.56ZM138.485 19.928V33.368H145.205V35H136.613V19.928H138.485ZM148.44 35L153.624 19.928H155.904L160.968 35H159L157.728 31.136H151.728L150.408 35H148.44ZM152.208 29.672H157.248L154.728 22.208L152.208 29.672ZM171.653 35.288C170.325 35.288 169.181 34.956 168.221 34.292C167.261 33.62 166.521 32.692 166.001 31.508C165.481 30.316 165.221 28.936 165.221 27.368C165.221 25.696 165.501 24.288 166.061 23.144C166.629 22 167.397 21.136 168.365 20.552C169.341 19.96 170.437 19.664 171.653 19.664C173.261 19.664 174.553 20.068 175.529 20.876C176.513 21.676 177.189 22.72 177.557 24.008L175.541 24.416C175.229 23.48 174.729 22.736 174.041 22.184C173.361 21.624 172.565 21.344 171.653 21.344C170.861 21.344 170.129 21.572 169.457 22.028C168.793 22.476 168.257 23.148 167.849 24.044C167.441 24.94 167.237 26.048 167.237 27.368C167.237 28.568 167.397 29.636 167.717 30.572C168.045 31.508 168.533 32.244 169.181 32.78C169.837 33.316 170.661 33.584 171.653 33.584C172.845 33.584 173.789 33.264 174.485 32.624C175.189 31.984 175.541 31.144 175.541 30.104H177.581C177.581 31.184 177.333 32.112 176.837 32.888C176.341 33.656 175.645 34.248 174.749 34.664C173.861 35.08 172.829 35.288 171.653 35.288ZM183.516 35V19.928H192.804V21.536H185.388V26.6H192.372V28.208H185.388V33.368H192.804V35H183.516ZM199.416 19.928H202.104L207.288 30.344H207.096L212.28 19.928H214.896V35H213V21.872H213.336L207.816 33.104H206.568L201.072 21.944H201.288V35H199.416V19.928ZM222.112 35V19.928H231.4V21.536H223.984V26.6H230.968V28.208H223.984V33.368H231.4V35H222.112ZM237.989 19.928H240.221L247.877 32.336H247.709V19.928H249.581V35H247.493L239.573 22.184H239.861V35H237.989V19.928ZM254.539 21.536V19.928H266.275V21.536H260.911L261.331 21.104V35H259.459V21.104L259.879 21.536H254.539Z" fill="#6071CE"/>
</g>
<defs>
<filter id="filter0_d_7073_5923" x="0" y="0" width="288" height="62" filterUnits="userSpaceOnUse" color-interpolation-filters="sRGB">
<feFlood flood-opacity="0" result="BackgroundImageFix"/>
<feColorMatrix in="SourceAlpha" type="matrix" values="0 0 0 0 0 0 0 0 0 0 0 0 0 0 0 0 0 0 127 0" result="hardAlpha"/>
<feOffset dy="4"/>
<feGaussianBlur stdDeviation="3"/>
<feComposite in2="hardAlpha" operator="out"/>
<feColorMatrix type="matrix" values="0 0 0 0 0 0 0 0 0 0 0 0 0 0 0 0 0 0 0.05 0"/>
<feBlend mode="normal" in2="BackgroundImageFix" result="effect1_dropShadow_7073_5923"/>
<feBlend mode="normal" in="SourceGraphic" in2="effect1_dropShadow_7073_5923" result="shape"/>
</filter>
</defs>
</svg>
