<svg width="364" height="62" viewBox="0 0 364 62" fill="none" xmlns="http://www.w3.org/2000/svg">
<g filter="url(#filter0_d_7057_5811)">
<rect x="6.5" y="2.5" width="351" height="49" rx="11.5" fill="#FBFBFB" stroke="#B9B9B9"/>
<path d="M32.2217 20.0413V20.2413H32.4217H37.517C38.4765 20.2413 39.3974 20.6278 40.0767 21.3167C40.7562 22.0057 41.1384 22.9408 41.1384 23.9163V35.5413C41.1384 36.5169 40.7562 37.452 40.0767 38.1409C39.3974 38.8298 38.4765 39.2163 37.517 39.2163H24.7787C23.8191 39.2163 22.8983 38.8298 22.2189 38.1409C21.5394 37.452 21.1572 36.5169 21.1572 35.5413V23.9163C21.1572 22.9408 21.5394 22.0057 22.2189 21.3167C22.8983 20.6278 23.8191 20.2413 24.7787 20.2413H29.874H30.074V20.0413V18.388V18.2733L29.975 18.2154C29.6203 18.0078 29.3251 17.7094 29.1188 17.3497C28.9127 16.9901 28.8027 16.5819 28.8002 16.1656C28.8004 15.5329 29.0483 14.9267 29.4888 14.4801C29.9293 14.0334 30.5261 13.783 31.1478 13.783C31.7696 13.783 32.3664 14.0334 32.8069 14.4801C33.2473 14.9266 33.4953 15.5328 33.4955 16.1655C33.4929 16.5818 33.383 16.9901 33.1768 17.3497C32.9706 17.7094 32.6753 18.0078 32.3206 18.2154L32.2217 18.2733V18.388V20.0413ZM33.533 22.6726L33.5941 22.4247H33.3388H28.9568H28.7015L28.7627 22.6726L29.3996 25.2559L29.4371 25.408H29.5938H32.7019H32.8586L32.8961 25.2559L33.533 22.6726ZM26.5274 22.5785L26.4908 22.4247H26.3328H24.7787C24.3869 22.4247 24.0117 22.5825 23.7356 22.8626C23.4595 23.1425 23.3049 23.5216 23.3049 23.9163V35.5413C23.3049 35.9361 23.4595 36.3152 23.7356 36.5951C24.0117 36.8752 24.3869 37.033 24.7787 37.033H37.517C37.9087 37.033 38.2839 36.8752 38.5601 36.5951C38.8362 36.3152 38.9908 35.9361 38.9908 35.5413V23.9163C38.9908 23.5216 38.8362 23.1425 38.5601 22.8626C38.2839 22.5825 37.9087 22.4247 37.517 22.4247H35.9629H35.8048L35.7683 22.5785L34.775 26.7624C34.7749 26.7626 34.7749 26.7628 34.7748 26.763C34.7156 27.0056 34.5765 27.2197 34.3813 27.3702C34.1859 27.5208 33.9459 27.5987 33.7014 27.5914L33.7014 27.5913H33.6955H28.6002V27.5913L28.5943 27.5914C28.3497 27.5987 28.1098 27.5208 27.9144 27.3702C27.7191 27.2197 27.58 27.0055 27.5208 26.7629C27.5208 26.7627 27.5207 26.7625 27.5207 26.7624L26.5274 22.5785ZM26.7308 30.7579C26.9074 30.6383 27.1146 30.5747 27.3263 30.5747C27.6102 30.5747 27.8831 30.689 28.0847 30.8934C28.2864 31.098 28.4002 31.3759 28.4002 31.6663C28.4002 31.8829 28.3368 32.0943 28.2185 32.2739C28.1002 32.4535 27.9323 32.593 27.7364 32.6753C27.5405 32.7576 27.3251 32.779 27.1174 32.7371C26.9096 32.6952 26.7184 32.5917 26.568 32.4393C26.4176 32.2868 26.3149 32.0921 26.2733 31.8798C26.2316 31.6675 26.253 31.4475 26.3346 31.2477C26.4163 31.0479 26.5543 30.8776 26.7308 30.7579ZM17.6512 29.6018C17.8528 29.3973 18.1257 29.283 18.4096 29.283C18.6935 29.283 18.9663 29.3973 19.1679 29.6018C19.3696 29.8063 19.4834 30.0843 19.4834 30.3747V32.958C19.4834 33.2484 19.3696 33.5264 19.1679 33.7309C18.9663 33.9353 18.6935 34.0497 18.4096 34.0497C18.1257 34.0497 17.8528 33.9353 17.6512 33.7309C17.4495 33.5264 17.3357 33.2484 17.3357 32.958V30.3747C17.3357 30.0843 17.4495 29.8063 17.6512 29.6018ZM43.1278 29.6018C43.3294 29.3973 43.6022 29.283 43.8861 29.283C44.17 29.283 44.4428 29.3973 44.6444 29.6018C44.8461 29.8063 44.9599 30.0843 44.9599 30.3747V32.958C44.9599 33.2484 44.8461 33.5264 44.6444 33.7309C44.4428 33.9353 44.17 34.0497 43.8861 34.0497C43.6022 34.0497 43.3294 33.9353 43.1278 33.7309C42.9261 33.5264 42.8123 33.2484 42.8123 32.958V30.3747C42.8123 30.0843 42.9261 29.8063 43.1278 29.6018ZM34.3738 30.7579C34.5503 30.6383 34.7575 30.5747 34.9693 30.5747C35.2532 30.5747 35.526 30.689 35.7276 30.8934C35.9293 31.098 36.0431 31.3759 36.0431 31.6663C36.0431 31.8829 35.9798 32.0943 35.8615 32.2739C35.7431 32.4535 35.5752 32.593 35.3793 32.6753C35.1835 32.7576 34.9681 32.779 34.7603 32.7371C34.5526 32.6952 34.3613 32.5917 34.211 32.4393C34.0606 32.2868 33.9579 32.0921 33.9162 31.8798C33.8746 31.6675 33.896 31.4475 33.9776 31.2477C34.0592 31.0479 34.1972 30.8776 34.3738 30.7579Z" fill="#7D7D7D" stroke="white" stroke-width="0.4"/>
<path d="M59.424 37.928V17H61.296V37.928H59.424ZM81.8779 35.288C80.5499 35.288 79.4059 34.956 78.4459 34.292C77.4859 33.62 76.7459 32.692 76.2259 31.508C75.7059 30.316 75.4459 28.936 75.4459 27.368C75.4459 25.696 75.7259 24.288 76.2859 23.144C76.8539 22 77.6219 21.136 78.5899 20.552C79.5659 19.96 80.6619 19.664 81.8779 19.664C83.4859 19.664 84.7779 20.068 85.7539 20.876C86.7379 21.676 87.4139 22.72 87.7819 24.008L85.7659 24.416C85.4539 23.48 84.9539 22.736 84.2659 22.184C83.5859 21.624 82.7899 21.344 81.8779 21.344C81.0859 21.344 80.3539 21.572 79.6819 22.028C79.0179 22.476 78.4819 23.148 78.0739 24.044C77.6659 24.94 77.4619 26.048 77.4619 27.368C77.4619 28.568 77.6219 29.636 77.9419 30.572C78.2699 31.508 78.7579 32.244 79.4059 32.78C80.0619 33.316 80.8859 33.584 81.8779 33.584C83.0699 33.584 84.0139 33.264 84.7099 32.624C85.4139 31.984 85.7659 31.144 85.7659 30.104H87.8059C87.8059 31.184 87.5579 32.112 87.0619 32.888C86.5659 33.656 85.8699 34.248 84.9739 34.664C84.0859 35.08 83.0539 35.288 81.8779 35.288ZM99.0926 35.288C97.8446 35.288 96.7286 35 95.7446 34.424C94.7606 33.848 93.9846 32.984 93.4166 31.832C92.8486 30.672 92.5646 29.224 92.5646 27.488C92.5646 25.728 92.8486 24.272 93.4166 23.12C93.9846 21.96 94.7606 21.096 95.7446 20.528C96.7286 19.952 97.8446 19.664 99.0926 19.664C100.341 19.664 101.457 19.952 102.441 20.528C103.425 21.104 104.201 21.972 104.769 23.132C105.337 24.292 105.621 25.744 105.621 27.488C105.621 29.24 105.337 30.696 104.769 31.856C104.201 33.008 103.425 33.868 102.441 34.436C101.457 35.004 100.341 35.288 99.0926 35.288ZM99.0926 33.56C100.509 33.56 101.625 33.044 102.441 32.012C103.265 30.98 103.677 29.464 103.677 27.464C103.677 25.504 103.265 23.996 102.441 22.94C101.625 21.876 100.509 21.344 99.0926 21.344C97.6926 21.344 96.5766 21.876 95.7446 22.94C94.9206 24.004 94.5086 25.52 94.5086 27.488C94.5086 29.48 94.9206 30.992 95.7446 32.024C96.5766 33.048 97.6926 33.56 99.0926 33.56ZM111.633 19.928H113.865L121.521 32.336H121.353V19.928H123.225V35H121.137L113.217 22.184H113.505V35H111.633V19.928ZM128.183 21.536V19.928H139.919V21.536H134.555L134.975 21.104V35H133.103V21.104L133.523 21.536H128.183ZM144.863 35V19.928H154.151V21.536H146.735V26.6H153.719V28.208H146.735V33.368H154.151V35H144.863ZM160.739 19.928H162.971L170.627 32.336H170.459V19.928H172.331V35H170.243L162.323 22.184H162.611V35H160.739V19.928ZM177.289 21.536V19.928H189.025V21.536H183.661L184.081 21.104V35H182.209V21.104L182.629 21.536H177.289ZM206.912 35.288C205.904 35.288 204.98 35.108 204.14 34.748C203.3 34.38 202.624 33.84 202.112 33.128C201.6 32.416 201.336 31.536 201.32 30.488H203.144C203.144 31.192 203.316 31.772 203.66 32.228C204.004 32.676 204.46 33.012 205.028 33.236C205.596 33.452 206.216 33.56 206.888 33.56C207.616 33.56 208.248 33.444 208.784 33.212C209.32 32.98 209.732 32.676 210.02 32.3C210.316 31.916 210.464 31.496 210.464 31.04C210.464 30.4 210.268 29.884 209.876 29.492C209.484 29.092 208.904 28.768 208.136 28.52L205.472 27.584C204.224 27.136 203.28 26.624 202.64 26.048C202 25.472 201.68 24.664 201.68 23.624C201.68 22.456 202.128 21.504 203.024 20.768C203.928 20.032 205.208 19.664 206.864 19.664C208.4 19.664 209.6 20.02 210.464 20.732C211.328 21.436 211.824 22.384 211.952 23.576H210.104C209.984 22.88 209.656 22.34 209.12 21.956C208.592 21.564 207.84 21.368 206.864 21.368C205.872 21.368 205.1 21.588 204.548 22.028C203.996 22.468 203.72 23.024 203.72 23.696C203.72 24.248 203.892 24.688 204.236 25.016C204.588 25.336 205.136 25.624 205.88 25.88L209 26.96C210.08 27.32 210.932 27.824 211.556 28.472C212.188 29.12 212.504 29.96 212.504 30.992C212.504 31.792 212.288 32.516 211.856 33.164C211.432 33.812 210.804 34.328 209.972 34.712C209.14 35.096 208.12 35.288 206.912 35.288ZM216.716 21.536V19.928H228.452V21.536H223.088L223.508 21.104V35H221.636V21.104L222.056 21.536H216.716ZM230.635 35L235.819 19.928H238.099L243.163 35H241.195L239.923 31.136H233.923L232.603 35H230.635ZM234.403 29.672H239.443L236.923 22.208L234.403 29.672ZM245.352 21.536V19.928H257.088V21.536H251.724L252.144 21.104V35H250.272V21.104L250.692 21.536H245.352ZM262.031 35V19.928H271.319V21.536H263.903V26.6H270.887V28.208H263.903V33.368H271.319V35H262.031ZM277.932 19.928H280.62L285.804 30.344H285.612L290.796 19.928H293.412V35H291.516V21.872H291.852L286.332 33.104H285.084L279.588 21.944H279.804V35H277.932V19.928ZM300.628 35V19.928H309.916V21.536H302.5V26.6H309.484V28.208H302.5V33.368H309.916V35H300.628ZM316.505 19.928H318.737L326.393 32.336H326.225V19.928H328.097V35H326.009L318.089 22.184H318.377V35H316.505V19.928ZM333.055 21.536V19.928H344.791V21.536H339.427L339.847 21.104V35H337.975V21.104L338.395 21.536H333.055Z" fill="#7D7D7D"/>
</g>
<defs>
<filter id="filter0_d_7057_5811" x="0" y="0" width="364" height="62" filterUnits="userSpaceOnUse" color-interpolation-filters="sRGB">
<feFlood flood-opacity="0" result="BackgroundImageFix"/>
<feColorMatrix in="SourceAlpha" type="matrix" values="0 0 0 0 0 0 0 0 0 0 0 0 0 0 0 0 0 0 127 0" result="hardAlpha"/>
<feOffset dy="4"/>
<feGaussianBlur stdDeviation="3"/>
<feComposite in2="hardAlpha" operator="out"/>
<feColorMatrix type="matrix" values="0 0 0 0 0 0 0 0 0 0 0 0 0 0 0 0 0 0 0.05 0"/>
<feBlend mode="normal" in2="BackgroundImageFix" result="effect1_dropShadow_7057_5811"/>
<feBlend mode="normal" in="SourceGraphic" in2="effect1_dropShadow_7057_5811" result="shape"/>
</filter>
</defs>
</svg>
