<svg width="300" height="62" viewBox="0 0 300 62" fill="none" xmlns="http://www.w3.org/2000/svg">
<g filter="url(#filter0_d_7096_5779)">
<path d="M18 2.5H282C288.351 2.5 293.5 7.64873 293.5 14V40C293.5 46.3513 288.351 51.5 282 51.5H18C11.6487 51.5 6.5 46.3513 6.5 40V14C6.5 7.64873 11.6487 2.5 18 2.5Z" fill="#FBFBFB" stroke="#B9B9B9"/>
<path d="M28.324 29.5339L28.324 29.5339L28.3263 29.5358C29.2253 30.2606 30.3453 30.6559 31.5002 30.6559C32.655 30.6559 33.775 30.2606 34.674 29.5358L34.5485 29.3801L34.6763 29.5339C34.8993 29.3486 35.1868 29.2594 35.4755 29.286C35.6185 29.2992 35.7575 29.3404 35.8845 29.4073C36.0116 29.4742 36.1242 29.5654 36.2159 29.6758C36.4013 29.8988 36.4905 30.1863 36.4638 30.475C36.4372 30.7638 36.297 31.0301 36.074 31.2155L36.0737 31.2157C34.7904 32.287 33.1718 32.8738 31.5002 32.8738C29.8285 32.8738 28.2099 32.287 26.9267 31.2157L26.9263 31.2155C26.7034 31.0301 26.5631 30.7638 26.5365 30.475C26.5099 30.1863 26.5991 29.8988 26.7844 29.6758C26.9697 29.4529 27.2361 29.3126 27.5248 29.286C27.8135 29.2594 28.101 29.3486 28.324 29.5339ZM28.2317 24.824C28.0521 24.944 27.8411 25.008 27.6252 25.008C27.3356 25.008 27.058 24.893 26.8532 24.6883C26.6485 24.4835 26.5335 24.2059 26.5335 23.9163C26.5335 23.7004 26.5975 23.4894 26.7175 23.3098C26.8374 23.1303 27.0079 22.9904 27.2074 22.9078C27.4069 22.8251 27.6264 22.8035 27.8381 22.8457C28.0499 22.8878 28.2444 22.9917 28.3971 23.1444C28.5498 23.2971 28.6537 23.4916 28.6959 23.7034C28.738 23.9151 28.7164 24.1346 28.6337 24.3341C28.5511 24.5336 28.4112 24.7041 28.2317 24.824ZM34.7687 23.0087C34.9482 22.8887 35.1593 22.8247 35.3752 22.8247C35.6647 22.8247 35.9424 22.9397 36.1471 23.1444C36.3518 23.3491 36.4668 23.6268 36.4668 23.9163C36.4668 24.1323 36.4028 24.3433 36.2829 24.5228C36.1629 24.7024 35.9924 24.8423 35.7929 24.9249C35.5935 25.0075 35.374 25.0292 35.1622 24.987C34.9504 24.9449 34.7559 24.8409 34.6032 24.6883C34.4506 24.5356 34.3466 24.3411 34.3045 24.1293C34.2624 23.9176 34.284 23.6981 34.3666 23.4986C34.4492 23.2991 34.5891 23.1286 34.7687 23.0087ZM24.4352 15.9262C26.5264 14.5288 28.985 13.783 31.5002 13.783C33.1701 13.783 34.8238 14.1119 36.3666 14.751C37.9095 15.3901 39.3114 16.3268 40.4922 17.5076C41.6731 18.6885 42.6098 20.0904 43.2488 21.6332C43.8879 23.1761 44.2168 24.8297 44.2168 26.4997C44.2168 29.0148 43.471 31.4734 42.0737 33.5647C40.6764 35.6559 38.6903 37.2859 36.3666 38.2483C34.043 39.2108 31.4861 39.4627 29.0193 38.972C26.5525 38.4813 24.2866 37.2702 22.5081 35.4917C20.7297 33.7133 19.5185 31.4474 19.0278 28.9806C18.5372 26.5138 18.789 23.9569 19.7515 21.6332C20.714 19.3095 22.3439 17.3235 24.4352 15.9262ZM25.6482 35.2578C27.3804 36.4152 29.4169 37.033 31.5002 37.033C34.2938 37.033 36.973 35.9233 38.9484 33.9479C40.9237 31.9725 42.0335 29.2933 42.0335 26.4997C42.0335 24.4164 41.4157 22.3799 40.2583 20.6477C39.1009 18.9155 37.4558 17.5654 35.5311 16.7681C33.6064 15.9709 31.4885 15.7623 29.4452 16.1687C27.402 16.5752 25.5251 17.5784 24.052 19.0515C22.5789 20.5246 21.5757 22.4015 21.1692 24.4447C20.7628 26.488 20.9714 28.6059 21.7686 30.5306C22.5659 32.4553 23.916 34.1004 25.6482 35.2578Z" fill="#7D7D7D" stroke="white" stroke-width="0.4"/>
<path d="M59.424 37.928V17H61.296V37.928H59.424ZM76.6219 19.928H78.8539L86.5099 32.336H86.3419V19.928H88.2139V35H86.1259L78.2059 22.184H78.4939V35H76.6219V19.928ZM95.4281 35V19.928H104.716V21.536H97.3001V26.6H104.284V28.208H97.3001V33.368H104.716V35H95.4281ZM116.633 35.288C115.433 35.288 114.341 34.976 113.357 34.352C112.373 33.728 111.589 32.844 111.005 31.7C110.421 30.556 110.129 29.2 110.129 27.632C110.129 26.328 110.317 25.18 110.693 24.188C111.069 23.196 111.585 22.364 112.241 21.692C112.897 21.02 113.649 20.516 114.497 20.18C115.353 19.836 116.257 19.664 117.209 19.664C118.385 19.664 119.417 19.908 120.305 20.396C121.193 20.876 121.953 21.64 122.585 22.688L120.809 23.312C120.273 22.648 119.697 22.16 119.081 21.848C118.473 21.528 117.825 21.368 117.137 21.368C116.233 21.368 115.401 21.62 114.641 22.124C113.881 22.628 113.269 23.348 112.805 24.284C112.349 25.22 112.121 26.336 112.121 27.632C112.121 28.784 112.309 29.808 112.685 30.704C113.061 31.592 113.593 32.292 114.281 32.804C114.977 33.308 115.801 33.56 116.753 33.56C117.481 33.56 118.133 33.392 118.709 33.056C119.293 32.72 119.753 32.216 120.089 31.544C120.425 30.864 120.593 30.008 120.593 28.976H121.169C121.169 30.256 121.017 31.368 120.713 32.312C120.409 33.256 119.921 33.988 119.249 34.508C118.585 35.028 117.713 35.288 116.633 35.288ZM120.929 35L120.593 31.448V28.928L116.801 28.808V27.536H122.417V35H120.929ZM127.374 35L132.558 19.928H134.838L139.902 35H137.934L136.662 31.136H130.662L129.342 35H127.374ZM131.142 29.672H136.182L133.662 22.208L131.142 29.672ZM142.091 21.536V19.928H153.827V21.536H148.463L148.883 21.104V35H147.011V21.104L147.431 21.536H142.091ZM158.794 35V19.928H160.666V35H158.794ZM172.121 33.008L176.585 19.928H178.577L173.201 35H171.257L165.929 19.928H167.921L172.361 33.008H172.121ZM183.797 35V19.928H193.085V21.536H185.669V26.6H192.653V28.208H185.669V33.368H193.085V35H183.797ZM207.793 35V19.928H213.049C214.769 19.928 216.069 20.34 216.949 21.164C217.837 21.98 218.281 23.056 218.281 24.392C218.281 25.712 217.837 26.784 216.949 27.608C216.069 28.424 214.769 28.832 213.049 28.832H209.665V35H207.793ZM216.241 35L211.921 28.16H213.961L218.665 35H216.241ZM209.665 27.512H212.905C214.033 27.512 214.889 27.236 215.473 26.684C216.065 26.124 216.361 25.4 216.361 24.512C216.361 23.6 216.077 22.876 215.509 22.34C214.949 21.804 214.129 21.536 213.049 21.536H209.665V27.512ZM224.864 35V19.928H234.152V21.536H226.736V26.6H233.72V28.208H226.736V33.368H234.152V35H224.864ZM245.589 35.288C244.581 35.288 243.657 35.108 242.817 34.748C241.977 34.38 241.301 33.84 240.789 33.128C240.277 32.416 240.013 31.536 239.997 30.488H241.821C241.821 31.192 241.993 31.772 242.337 32.228C242.681 32.676 243.137 33.012 243.705 33.236C244.273 33.452 244.893 33.56 245.565 33.56C246.293 33.56 246.925 33.444 247.461 33.212C247.997 32.98 248.409 32.676 248.697 32.3C248.993 31.916 249.141 31.496 249.141 31.04C249.141 30.4 248.945 29.884 248.553 29.492C248.161 29.092 247.581 28.768 246.813 28.52L244.149 27.584C242.901 27.136 241.957 26.624 241.317 26.048C240.677 25.472 240.357 24.664 240.357 23.624C240.357 22.456 240.805 21.504 241.701 20.768C242.605 20.032 243.885 19.664 245.541 19.664C247.077 19.664 248.277 20.02 249.141 20.732C250.005 21.436 250.501 22.384 250.629 23.576H248.781C248.661 22.88 248.333 22.34 247.797 21.956C247.269 21.564 246.517 21.368 245.541 21.368C244.549 21.368 243.777 21.588 243.225 22.028C242.673 22.468 242.397 23.024 242.397 23.696C242.397 24.248 242.569 24.688 242.913 25.016C243.265 25.336 243.813 25.624 244.557 25.88L247.677 26.96C248.757 27.32 249.609 27.824 250.233 28.472C250.865 29.12 251.181 29.96 251.181 30.992C251.181 31.792 250.965 32.516 250.533 33.164C250.109 33.812 249.481 34.328 248.649 34.712C247.817 35.096 246.797 35.288 245.589 35.288ZM257.624 35V19.928H262.472C264.128 19.928 265.392 20.348 266.264 21.188C267.144 22.02 267.584 23.152 267.584 24.584C267.584 26 267.144 27.124 266.264 27.956C265.392 28.78 264.128 29.192 262.472 29.192H259.52V35H257.624ZM259.52 27.56H262.472C263.52 27.56 264.312 27.292 264.848 26.756C265.392 26.22 265.664 25.496 265.664 24.584C265.664 23.656 265.392 22.916 264.848 22.364C264.312 21.812 263.52 21.536 262.472 21.536H259.52V27.56ZM271.658 33.884C271.658 33.508 271.79 33.184 272.054 32.912C272.318 32.64 272.65 32.504 273.05 32.504C273.45 32.504 273.79 32.64 274.07 32.912C274.35 33.184 274.49 33.508 274.49 33.884C274.49 34.26 274.35 34.576 274.07 34.832C273.79 35.088 273.45 35.216 273.05 35.216C272.65 35.216 272.318 35.088 272.054 34.832C271.79 34.568 271.658 34.252 271.658 33.884Z" fill="#7D7D7D"/>
</g>
<defs>
<filter id="filter0_d_7096_5779" x="0" y="0" width="300" height="62" filterUnits="userSpaceOnUse" color-interpolation-filters="sRGB">
<feFlood flood-opacity="0" result="BackgroundImageFix"/>
<feColorMatrix in="SourceAlpha" type="matrix" values="0 0 0 0 0 0 0 0 0 0 0 0 0 0 0 0 0 0 127 0" result="hardAlpha"/>
<feOffset dy="4"/>
<feGaussianBlur stdDeviation="3"/>
<feComposite in2="hardAlpha" operator="out"/>
<feColorMatrix type="matrix" values="0 0 0 0 0 0 0 0 0 0 0 0 0 0 0 0 0 0 0.05 0"/>
<feBlend mode="normal" in2="BackgroundImageFix" result="effect1_dropShadow_7096_5779"/>
<feBlend mode="normal" in="SourceGraphic" in2="effect1_dropShadow_7096_5779" result="shape"/>
</filter>
</defs>
</svg>
