<svg width="348" height="62" viewBox="0 0 348 62" fill="none" xmlns="http://www.w3.org/2000/svg">
<g filter="url(#filter0_d_7090_5776)">
<path d="M18 2.5H330C336.351 2.5 341.5 7.64873 341.5 14V40C341.5 46.3513 336.351 51.5 330 51.5H18C11.6487 51.5 6.5 46.3513 6.5 40V14C6.5 7.64873 11.6487 2.5 18 2.5Z" fill="#FFF2EA" stroke="#B49981"/>
<path d="M28.3238 29.5339L28.3238 29.5339L28.3261 29.5358C29.2251 30.2606 30.3452 30.6559 31.5 30.6559C32.6548 30.6559 33.7749 30.2606 34.6739 29.5358L34.5483 29.3801L34.6762 29.5339C34.8992 29.3486 35.1866 29.2594 35.4754 29.286C35.6183 29.2992 35.7573 29.3404 35.8843 29.4073C36.0114 29.4742 36.124 29.5654 36.2158 29.6758C36.4011 29.8988 36.4903 30.1863 36.4637 30.475C36.437 30.7638 36.2968 31.0301 36.0738 31.2155L36.0735 31.2157C34.7902 32.287 33.1716 32.8738 31.5 32.8738C29.8284 32.8738 28.2098 32.287 26.9265 31.2157L26.9262 31.2155C26.7032 31.0301 26.563 30.7638 26.5363 30.475C26.5097 30.1863 26.5989 29.8988 26.7842 29.6758C26.9696 29.4529 27.2359 29.3126 27.5246 29.286C27.8134 29.2594 28.1008 29.3486 28.3238 29.5339ZM28.2315 24.824C28.052 24.944 27.8409 25.008 27.625 25.008C27.3355 25.008 27.0578 24.893 26.8531 24.6883C26.6483 24.4835 26.5333 24.2059 26.5333 23.9163C26.5333 23.7004 26.5974 23.4894 26.7173 23.3098C26.8373 23.1303 27.0078 22.9904 27.2072 22.9078C27.4067 22.8251 27.6262 22.8035 27.838 22.8457C28.0497 22.8878 28.2443 22.9917 28.3969 23.1444C28.5496 23.2971 28.6536 23.4916 28.6957 23.7034C28.7378 23.9151 28.7162 24.1346 28.6336 24.3341C28.5509 24.5336 28.411 24.7041 28.2315 24.824ZM34.7685 23.0087C34.948 22.8887 35.1591 22.8247 35.375 22.8247C35.6645 22.8247 35.9422 22.9397 36.1469 23.1444C36.3517 23.3491 36.4667 23.6268 36.4667 23.9163C36.4667 24.1323 36.4026 24.3433 36.2827 24.5228C36.1627 24.7024 35.9922 24.8423 35.7928 24.9249C35.5933 25.0075 35.3738 25.0292 35.162 24.987C34.9503 24.9449 34.7557 24.8409 34.6031 24.6883C34.4504 24.5356 34.3464 24.3411 34.3043 24.1293C34.2622 23.9176 34.2838 23.6981 34.3664 23.4986C34.4491 23.2991 34.589 23.1286 34.7685 23.0087ZM24.435 15.9262C26.5262 14.5288 28.9849 13.783 31.5 13.783C33.17 13.783 34.8236 14.1119 36.3665 14.751C37.9093 15.3901 39.3112 16.3268 40.492 17.5076C41.6729 18.6885 42.6096 20.0904 43.2487 21.6332C43.8877 23.1761 44.2167 24.8297 44.2167 26.4997C44.2167 29.0148 43.4708 31.4734 42.0735 33.5647C40.6762 35.6559 38.6901 37.2859 36.3665 38.2483C34.0428 39.2108 31.4859 39.4627 29.0191 38.972C26.5523 38.4813 24.2864 37.2702 22.508 35.4917C20.7295 33.7133 19.5184 31.4474 19.0277 28.9806C18.537 26.5138 18.7888 23.9569 19.7513 21.6332C20.7138 19.3095 22.3438 17.3235 24.435 15.9262ZM25.648 35.2578C27.3802 36.4152 29.4167 37.033 31.5 37.033C34.2936 37.033 36.9728 35.9233 38.9482 33.9479C40.9236 31.9725 42.0333 29.2933 42.0333 26.4997C42.0333 24.4164 41.4156 22.3799 40.2581 20.6477C39.1007 18.9155 37.4556 17.5654 35.5309 16.7681C33.6062 15.9709 31.4883 15.7623 29.445 16.1687C27.4018 16.5752 25.5249 17.5784 24.0518 19.0515C22.5787 20.5246 21.5755 22.4015 21.1691 24.4447C20.7626 26.488 20.9712 28.6059 21.7685 30.5306C22.5657 32.4553 23.9158 34.1004 25.648 35.2578Z" fill="#997452" stroke="white" stroke-width="0.4"/>
<path d="M59.424 37.928V17H61.296V37.928H59.424ZM76.6459 35V19.928H81.9019C83.6219 19.928 84.9219 20.34 85.8019 21.164C86.6899 21.98 87.1339 23.056 87.1339 24.392C87.1339 25.712 86.6899 26.784 85.8019 27.608C84.9219 28.424 83.6219 28.832 81.9019 28.832H78.5179V35H76.6459ZM85.0939 35L80.7739 28.16H82.8139L87.5179 35H85.0939ZM78.5179 27.512H81.7579C82.8859 27.512 83.7419 27.236 84.3259 26.684C84.9179 26.124 85.2139 25.4 85.2139 24.512C85.2139 23.6 84.9299 22.876 84.3619 22.34C83.8019 21.804 82.9819 21.536 81.9019 21.536H78.5179V27.512ZM93.7172 35V19.928H103.005V21.536H95.5892V26.6H102.573V28.208H95.5892V33.368H103.005V35H93.7172ZM109.57 35V19.928H114.418C116.074 19.928 117.338 20.348 118.21 21.188C119.09 22.02 119.53 23.152 119.53 24.584C119.53 26 119.09 27.124 118.21 27.956C117.338 28.78 116.074 29.192 114.418 29.192H111.466V35H109.57ZM111.466 27.56H114.418C115.466 27.56 116.258 27.292 116.794 26.756C117.338 26.22 117.61 25.496 117.61 24.584C117.61 23.656 117.338 22.916 116.794 22.364C116.258 21.812 115.466 21.536 114.418 21.536H111.466V27.56ZM125.307 19.928H127.179V26.576H134.643V19.928H136.491V35H134.643V28.184H127.179V35H125.307V19.928ZM143.762 35V19.928H149.018C150.738 19.928 152.038 20.34 152.918 21.164C153.806 21.98 154.25 23.056 154.25 24.392C154.25 25.712 153.806 26.784 152.918 27.608C152.038 28.424 150.738 28.832 149.018 28.832H145.634V35H143.762ZM152.21 35L147.89 28.16H149.93L154.634 35H152.21ZM145.634 27.512H148.874C150.002 27.512 150.858 27.236 151.442 26.684C152.034 26.124 152.33 25.4 152.33 24.512C152.33 23.6 152.046 22.876 151.478 22.34C150.918 21.804 150.098 21.536 149.018 21.536H145.634V27.512ZM159.057 35L164.241 19.928H166.521L171.585 35H169.617L168.345 31.136H162.345L161.025 35H159.057ZM162.825 29.672H167.865L165.345 22.208L162.825 29.672ZM181.862 35.288C180.854 35.288 179.93 35.108 179.09 34.748C178.25 34.38 177.574 33.84 177.062 33.128C176.55 32.416 176.286 31.536 176.27 30.488H178.094C178.094 31.192 178.266 31.772 178.61 32.228C178.954 32.676 179.41 33.012 179.978 33.236C180.546 33.452 181.166 33.56 181.838 33.56C182.566 33.56 183.198 33.444 183.734 33.212C184.27 32.98 184.682 32.676 184.97 32.3C185.266 31.916 185.414 31.496 185.414 31.04C185.414 30.4 185.218 29.884 184.826 29.492C184.434 29.092 183.854 28.768 183.086 28.52L180.422 27.584C179.174 27.136 178.23 26.624 177.59 26.048C176.95 25.472 176.63 24.664 176.63 23.624C176.63 22.456 177.078 21.504 177.974 20.768C178.878 20.032 180.158 19.664 181.814 19.664C183.35 19.664 184.55 20.02 185.414 20.732C186.278 21.436 186.774 22.384 186.902 23.576H185.054C184.934 22.88 184.606 22.34 184.07 21.956C183.542 21.564 182.79 21.368 181.814 21.368C180.822 21.368 180.05 21.588 179.498 22.028C178.946 22.468 178.67 23.024 178.67 23.696C178.67 24.248 178.842 24.688 179.186 25.016C179.538 25.336 180.086 25.624 180.83 25.88L183.95 26.96C185.03 27.32 185.882 27.824 186.506 28.472C187.138 29.12 187.454 29.96 187.454 30.992C187.454 31.792 187.238 32.516 186.806 33.164C186.382 33.812 185.754 34.328 184.922 34.712C184.09 35.096 183.07 35.288 181.862 35.288ZM193.922 35V19.928H203.21V21.536H195.794V26.6H202.778V28.208H195.794V33.368H203.21V35H193.922ZM217.918 35V19.928H223.174C224.894 19.928 226.194 20.34 227.074 21.164C227.962 21.98 228.406 23.056 228.406 24.392C228.406 25.712 227.962 26.784 227.074 27.608C226.194 28.424 224.894 28.832 223.174 28.832H219.79V35H217.918ZM226.366 35L222.046 28.16H224.086L228.79 35H226.366ZM219.79 27.512H223.03C224.158 27.512 225.014 27.236 225.598 26.684C226.19 26.124 226.486 25.4 226.486 24.512C226.486 23.6 226.202 22.876 225.634 22.34C225.074 21.804 224.254 21.536 223.174 21.536H219.79V27.512ZM234.989 35V19.928H244.277V21.536H236.861V26.6H243.845V28.208H236.861V33.368H244.277V35H234.989ZM256.218 35.288C254.97 35.288 253.854 35 252.87 34.424C251.886 33.848 251.11 32.984 250.542 31.832C249.974 30.672 249.69 29.224 249.69 27.488C249.69 25.728 249.974 24.272 250.542 23.12C251.11 21.96 251.886 21.096 252.87 20.528C253.854 19.952 254.97 19.664 256.218 19.664C257.466 19.664 258.582 19.952 259.566 20.528C260.55 21.104 261.326 21.972 261.894 23.132C262.462 24.292 262.746 25.744 262.746 27.488C262.746 29.24 262.462 30.696 261.894 31.856C261.326 33.008 260.55 33.868 259.566 34.436C258.582 35.004 257.466 35.288 256.218 35.288ZM260.73 39.008C260.026 39.008 259.39 38.824 258.822 38.456C258.254 38.096 257.73 37.568 257.25 36.872L255.69 34.64L257.37 34.112L258.762 36.104C259.026 36.464 259.298 36.716 259.578 36.86C259.866 37.012 260.146 37.096 260.418 37.112C260.842 37.112 261.234 37.056 261.594 36.944C261.954 36.832 262.338 36.68 262.746 36.488V38.552C262.386 38.704 262.042 38.816 261.714 38.888C261.386 38.968 261.058 39.008 260.73 39.008ZM256.218 33.56C257.634 33.56 258.75 33.044 259.566 32.012C260.39 30.98 260.802 29.464 260.802 27.464C260.802 25.504 260.39 23.996 259.566 22.94C258.75 21.876 257.634 21.344 256.218 21.344C254.818 21.344 253.702 21.876 252.87 22.94C252.046 24.004 251.634 25.52 251.634 27.488C251.634 29.48 252.046 30.992 252.87 32.024C253.702 33.048 254.818 33.56 256.218 33.56ZM268.586 19.928H270.458V29.552C270.458 30.968 270.814 31.992 271.526 32.624C272.238 33.248 273.17 33.56 274.322 33.56C275.466 33.56 276.39 33.248 277.094 32.624C277.806 31.992 278.162 30.968 278.162 29.552V19.928H280.034V29.552C280.034 30.816 279.798 31.876 279.326 32.732C278.862 33.58 278.202 34.22 277.346 34.652C276.49 35.076 275.482 35.288 274.322 35.288C273.162 35.288 272.15 35.076 271.286 34.652C270.43 34.22 269.766 33.58 269.294 32.732C268.822 31.876 268.586 30.816 268.586 29.552V19.928ZM286.978 35V19.928H296.266V21.536H288.85V26.6H295.834V28.208H288.85V33.368H296.266V35H286.978ZM307.703 35.288C306.695 35.288 305.771 35.108 304.931 34.748C304.091 34.38 303.415 33.84 302.903 33.128C302.391 32.416 302.127 31.536 302.111 30.488H303.935C303.935 31.192 304.107 31.772 304.451 32.228C304.795 32.676 305.251 33.012 305.819 33.236C306.387 33.452 307.007 33.56 307.679 33.56C308.407 33.56 309.039 33.444 309.575 33.212C310.111 32.98 310.523 32.676 310.811 32.3C311.107 31.916 311.255 31.496 311.255 31.04C311.255 30.4 311.059 29.884 310.667 29.492C310.275 29.092 309.695 28.768 308.927 28.52L306.263 27.584C305.015 27.136 304.071 26.624 303.431 26.048C302.791 25.472 302.471 24.664 302.471 23.624C302.471 22.456 302.919 21.504 303.815 20.768C304.719 20.032 305.999 19.664 307.655 19.664C309.191 19.664 310.391 20.02 311.255 20.732C312.119 21.436 312.615 22.384 312.743 23.576H310.895C310.775 22.88 310.447 22.34 309.911 21.956C309.383 21.564 308.631 21.368 307.655 21.368C306.663 21.368 305.891 21.588 305.339 22.028C304.787 22.468 304.511 23.024 304.511 23.696C304.511 24.248 304.683 24.688 305.027 25.016C305.379 25.336 305.927 25.624 306.671 25.88L309.791 26.96C310.871 27.32 311.723 27.824 312.347 28.472C312.979 29.12 313.295 29.96 313.295 30.992C313.295 31.792 313.079 32.516 312.647 33.164C312.223 33.812 311.595 34.328 310.763 34.712C309.931 35.096 308.911 35.288 307.703 35.288ZM317.506 21.536V19.928H329.242V21.536H323.878L324.298 21.104V35H322.426V21.104L322.846 21.536H317.506Z" fill="#997452"/>
</g>
<defs>
<filter id="filter0_d_7090_5776" x="0" y="0" width="348" height="62" filterUnits="userSpaceOnUse" color-interpolation-filters="sRGB">
<feFlood flood-opacity="0" result="BackgroundImageFix"/>
<feColorMatrix in="SourceAlpha" type="matrix" values="0 0 0 0 0 0 0 0 0 0 0 0 0 0 0 0 0 0 127 0" result="hardAlpha"/>
<feOffset dy="4"/>
<feGaussianBlur stdDeviation="3"/>
<feComposite in2="hardAlpha" operator="out"/>
<feColorMatrix type="matrix" values="0 0 0 0 0 0 0 0 0 0 0 0 0 0 0 0 0 0 0.05 0"/>
<feBlend mode="normal" in2="BackgroundImageFix" result="effect1_dropShadow_7090_5776"/>
<feBlend mode="normal" in="SourceGraphic" in2="effect1_dropShadow_7090_5776" result="shape"/>
</filter>
</defs>
</svg>
