<svg width="396" height="62" viewBox="0 0 396 62" fill="none" xmlns="http://www.w3.org/2000/svg">
<g filter="url(#filter0_d_7100_5775)">
<path d="M18 2.5H378C384.351 2.5 389.5 7.64873 389.5 14V40C389.5 46.3513 384.351 51.5 378 51.5H18C11.6487 51.5 6.5 46.3513 6.5 40V14C6.5 7.64873 11.6487 2.5 18 2.5Z" fill="#FFF2EA" stroke="#B49981"/>
<path d="M28.324 29.5339L28.324 29.5339L28.3263 29.5358C29.2253 30.2606 30.3453 30.6559 31.5002 30.6559C32.655 30.6559 33.775 30.2606 34.674 29.5358L34.5485 29.3801L34.6763 29.5339C34.8993 29.3486 35.1868 29.2594 35.4755 29.286C35.6185 29.2992 35.7575 29.3404 35.8845 29.4073C36.0116 29.4742 36.1242 29.5654 36.2159 29.6758C36.4013 29.8988 36.4905 30.1863 36.4638 30.475C36.4372 30.7638 36.297 31.0301 36.074 31.2155L36.0737 31.2157C34.7904 32.287 33.1718 32.8738 31.5002 32.8738C29.8285 32.8738 28.2099 32.287 26.9267 31.2157L26.9263 31.2155C26.7034 31.0301 26.5631 30.7638 26.5365 30.475C26.5099 30.1863 26.5991 29.8988 26.7844 29.6758C26.9697 29.4529 27.2361 29.3126 27.5248 29.286C27.8135 29.2594 28.101 29.3486 28.324 29.5339ZM28.2317 24.824C28.0521 24.944 27.8411 25.008 27.6252 25.008C27.3356 25.008 27.058 24.893 26.8532 24.6883C26.6485 24.4835 26.5335 24.2059 26.5335 23.9163C26.5335 23.7004 26.5975 23.4894 26.7175 23.3098C26.8374 23.1303 27.0079 22.9904 27.2074 22.9078C27.4069 22.8251 27.6264 22.8035 27.8381 22.8457C28.0499 22.8878 28.2444 22.9917 28.3971 23.1444C28.5498 23.2971 28.6537 23.4916 28.6959 23.7034C28.738 23.9151 28.7164 24.1346 28.6337 24.3341C28.5511 24.5336 28.4112 24.7041 28.2317 24.824ZM34.7687 23.0087C34.9482 22.8887 35.1593 22.8247 35.3752 22.8247C35.6647 22.8247 35.9424 22.9397 36.1471 23.1444C36.3518 23.3491 36.4668 23.6268 36.4668 23.9163C36.4668 24.1323 36.4028 24.3433 36.2829 24.5228C36.1629 24.7024 35.9924 24.8423 35.7929 24.9249C35.5935 25.0075 35.374 25.0292 35.1622 24.987C34.9504 24.9449 34.7559 24.8409 34.6032 24.6883C34.4506 24.5356 34.3466 24.3411 34.3045 24.1293C34.2624 23.9176 34.284 23.6981 34.3666 23.4986C34.4492 23.2991 34.5891 23.1286 34.7687 23.0087ZM24.4352 15.9262C26.5264 14.5288 28.985 13.783 31.5002 13.783C33.1701 13.783 34.8238 14.1119 36.3666 14.751C37.9095 15.3901 39.3114 16.3268 40.4922 17.5076C41.6731 18.6885 42.6098 20.0904 43.2488 21.6332C43.8879 23.1761 44.2168 24.8297 44.2168 26.4997C44.2168 29.0148 43.471 31.4734 42.0737 33.5647C40.6764 35.6559 38.6903 37.2859 36.3666 38.2483C34.043 39.2108 31.4861 39.4627 29.0193 38.972C26.5525 38.4813 24.2866 37.2702 22.5081 35.4917C20.7297 33.7133 19.5185 31.4474 19.0278 28.9806C18.5372 26.5138 18.789 23.9569 19.7515 21.6332C20.714 19.3095 22.3439 17.3235 24.4352 15.9262ZM25.6482 35.2578C27.3804 36.4152 29.4169 37.033 31.5002 37.033C34.2938 37.033 36.973 35.9233 38.9484 33.9479C40.9237 31.9725 42.0335 29.2933 42.0335 26.4997C42.0335 24.4164 41.4157 22.3799 40.2583 20.6477C39.1009 18.9155 37.4558 17.5654 35.5311 16.7681C33.6064 15.9709 31.4885 15.7623 29.4452 16.1687C27.402 16.5752 25.5251 17.5784 24.052 19.0515C22.5789 20.5246 21.5757 22.4015 21.1692 24.4447C20.7628 26.488 20.9714 28.6059 21.7686 30.5306C22.5659 32.4553 23.916 34.1004 25.6482 35.2578Z" fill="#997452" stroke="white" stroke-width="0.4"/>
<path d="M59.424 37.928V17H61.296V37.928H59.424ZM76.6219 19.928H78.8539L86.5099 32.336H86.3419V19.928H88.2139V35H86.1259L78.2059 22.184H78.4939V35H76.6219V19.928ZM95.4281 35V19.928H104.716V21.536H97.3001V26.6H104.284V28.208H97.3001V33.368H104.716V35H95.4281ZM109.241 19.928H111.353L115.265 33.344H114.713L118.721 21.488H119.993L123.953 33.248H123.425L127.913 19.928H130.001L124.673 35H122.705L119.225 24.776H119.585L115.985 35H114.017L109.241 19.928ZM148.501 35.288C147.173 35.288 146.029 34.956 145.069 34.292C144.109 33.62 143.369 32.692 142.849 31.508C142.329 30.316 142.069 28.936 142.069 27.368C142.069 25.696 142.349 24.288 142.909 23.144C143.477 22 144.245 21.136 145.213 20.552C146.189 19.96 147.285 19.664 148.501 19.664C150.109 19.664 151.401 20.068 152.377 20.876C153.361 21.676 154.037 22.72 154.405 24.008L152.389 24.416C152.077 23.48 151.577 22.736 150.889 22.184C150.209 21.624 149.413 21.344 148.501 21.344C147.709 21.344 146.977 21.572 146.305 22.028C145.641 22.476 145.105 23.148 144.697 24.044C144.289 24.94 144.085 26.048 144.085 27.368C144.085 28.568 144.245 29.636 144.565 30.572C144.893 31.508 145.381 32.244 146.029 32.78C146.685 33.316 147.509 33.584 148.501 33.584C149.693 33.584 150.637 33.264 151.333 32.624C152.037 31.984 152.389 31.144 152.389 30.104H154.429C154.429 31.184 154.181 32.112 153.685 32.888C153.189 33.656 152.493 34.248 151.597 34.664C150.709 35.08 149.677 35.288 148.501 35.288ZM165.716 35.288C164.468 35.288 163.352 35 162.368 34.424C161.384 33.848 160.608 32.984 160.04 31.832C159.472 30.672 159.188 29.224 159.188 27.488C159.188 25.728 159.472 24.272 160.04 23.12C160.608 21.96 161.384 21.096 162.368 20.528C163.352 19.952 164.468 19.664 165.716 19.664C166.964 19.664 168.08 19.952 169.064 20.528C170.048 21.104 170.824 21.972 171.392 23.132C171.96 24.292 172.244 25.744 172.244 27.488C172.244 29.24 171.96 30.696 171.392 31.856C170.824 33.008 170.048 33.868 169.064 34.436C168.08 35.004 166.964 35.288 165.716 35.288ZM165.716 33.56C167.132 33.56 168.248 33.044 169.064 32.012C169.888 30.98 170.3 29.464 170.3 27.464C170.3 25.504 169.888 23.996 169.064 22.94C168.248 21.876 167.132 21.344 165.716 21.344C164.316 21.344 163.2 21.876 162.368 22.94C161.544 24.004 161.132 25.52 161.132 27.488C161.132 29.48 161.544 30.992 162.368 32.024C163.2 33.048 164.316 33.56 165.716 33.56ZM178.256 19.928H180.488L188.144 32.336H187.976V19.928H189.848V35H187.76L179.84 22.184H180.128V35H178.256V19.928ZM194.807 21.536V19.928H206.543V21.536H201.179L201.599 21.104V35H199.727V21.104L200.147 21.536H194.807ZM211.486 35V19.928H220.774V21.536H213.358V26.6H220.342V28.208H213.358V33.368H220.774V35H211.486ZM227.362 19.928H229.594L237.25 32.336H237.082V19.928H238.954V35H236.866L228.946 22.184H229.234V35H227.362V19.928ZM243.913 21.536V19.928H255.649V21.536H250.285L250.705 21.104V35H248.833V21.104L249.253 21.536H243.913ZM268.712 35V19.928H273.968C275.688 19.928 276.988 20.34 277.868 21.164C278.756 21.98 279.2 23.056 279.2 24.392C279.2 25.712 278.756 26.784 277.868 27.608C276.988 28.424 275.688 28.832 273.968 28.832H270.584V35H268.712ZM277.16 35L272.84 28.16H274.88L279.584 35H277.16ZM270.584 27.512H273.824C274.952 27.512 275.808 27.236 276.392 26.684C276.984 26.124 277.28 25.4 277.28 24.512C277.28 23.6 276.996 22.876 276.428 22.34C275.868 21.804 275.048 21.536 273.968 21.536H270.584V27.512ZM285.783 35V19.928H295.071V21.536H287.655V26.6H294.639V28.208H287.655V33.368H295.071V35H285.783ZM307.011 35.288C305.763 35.288 304.647 35 303.663 34.424C302.679 33.848 301.903 32.984 301.335 31.832C300.767 30.672 300.483 29.224 300.483 27.488C300.483 25.728 300.767 24.272 301.335 23.12C301.903 21.96 302.679 21.096 303.663 20.528C304.647 19.952 305.763 19.664 307.011 19.664C308.259 19.664 309.375 19.952 310.359 20.528C311.343 21.104 312.119 21.972 312.687 23.132C313.255 24.292 313.539 25.744 313.539 27.488C313.539 29.24 313.255 30.696 312.687 31.856C312.119 33.008 311.343 33.868 310.359 34.436C309.375 35.004 308.259 35.288 307.011 35.288ZM311.523 39.008C310.819 39.008 310.183 38.824 309.615 38.456C309.047 38.096 308.523 37.568 308.043 36.872L306.483 34.64L308.163 34.112L309.555 36.104C309.819 36.464 310.091 36.716 310.371 36.86C310.659 37.012 310.939 37.096 311.211 37.112C311.635 37.112 312.027 37.056 312.387 36.944C312.747 36.832 313.131 36.68 313.539 36.488V38.552C313.179 38.704 312.835 38.816 312.507 38.888C312.179 38.968 311.851 39.008 311.523 39.008ZM307.011 33.56C308.427 33.56 309.543 33.044 310.359 32.012C311.183 30.98 311.595 29.464 311.595 27.464C311.595 25.504 311.183 23.996 310.359 22.94C309.543 21.876 308.427 21.344 307.011 21.344C305.611 21.344 304.495 21.876 303.663 22.94C302.839 24.004 302.427 25.52 302.427 27.488C302.427 29.48 302.839 30.992 303.663 32.024C304.495 33.048 305.611 33.56 307.011 33.56ZM319.38 19.928H321.252V29.552C321.252 30.968 321.608 31.992 322.32 32.624C323.032 33.248 323.964 33.56 325.116 33.56C326.26 33.56 327.184 33.248 327.888 32.624C328.6 31.992 328.956 30.968 328.956 29.552V19.928H330.828V29.552C330.828 30.816 330.592 31.876 330.12 32.732C329.656 33.58 328.996 34.22 328.14 34.652C327.284 35.076 326.276 35.288 325.116 35.288C323.956 35.288 322.944 35.076 322.08 34.652C321.224 34.22 320.56 33.58 320.088 32.732C319.616 31.876 319.38 30.816 319.38 29.552V19.928ZM337.772 35V19.928H347.06V21.536H339.644V26.6H346.628V28.208H339.644V33.368H347.06V35H337.772ZM358.496 35.288C357.488 35.288 356.564 35.108 355.724 34.748C354.884 34.38 354.208 33.84 353.696 33.128C353.184 32.416 352.92 31.536 352.904 30.488H354.728C354.728 31.192 354.9 31.772 355.244 32.228C355.588 32.676 356.044 33.012 356.612 33.236C357.18 33.452 357.8 33.56 358.472 33.56C359.2 33.56 359.832 33.444 360.368 33.212C360.904 32.98 361.316 32.676 361.604 32.3C361.9 31.916 362.048 31.496 362.048 31.04C362.048 30.4 361.852 29.884 361.46 29.492C361.068 29.092 360.488 28.768 359.72 28.52L357.056 27.584C355.808 27.136 354.864 26.624 354.224 26.048C353.584 25.472 353.264 24.664 353.264 23.624C353.264 22.456 353.712 21.504 354.608 20.768C355.512 20.032 356.792 19.664 358.448 19.664C359.984 19.664 361.184 20.02 362.048 20.732C362.912 21.436 363.408 22.384 363.536 23.576H361.688C361.568 22.88 361.24 22.34 360.704 21.956C360.176 21.564 359.424 21.368 358.448 21.368C357.456 21.368 356.684 21.588 356.132 22.028C355.58 22.468 355.304 23.024 355.304 23.696C355.304 24.248 355.476 24.688 355.82 25.016C356.172 25.336 356.72 25.624 357.464 25.88L360.584 26.96C361.664 27.32 362.516 27.824 363.14 28.472C363.772 29.12 364.088 29.96 364.088 30.992C364.088 31.792 363.872 32.516 363.44 33.164C363.016 33.812 362.388 34.328 361.556 34.712C360.724 35.096 359.704 35.288 358.496 35.288ZM368.3 21.536V19.928H380.036V21.536H374.672L375.092 21.104V35H373.22V21.104L373.64 21.536H368.3Z" fill="#997452"/>
</g>
<defs>
<filter id="filter0_d_7100_5775" x="0" y="0" width="396" height="62" filterUnits="userSpaceOnUse" color-interpolation-filters="sRGB">
<feFlood flood-opacity="0" result="BackgroundImageFix"/>
<feColorMatrix in="SourceAlpha" type="matrix" values="0 0 0 0 0 0 0 0 0 0 0 0 0 0 0 0 0 0 127 0" result="hardAlpha"/>
<feOffset dy="4"/>
<feGaussianBlur stdDeviation="3"/>
<feComposite in2="hardAlpha" operator="out"/>
<feColorMatrix type="matrix" values="0 0 0 0 0 0 0 0 0 0 0 0 0 0 0 0 0 0 0.05 0"/>
<feBlend mode="normal" in2="BackgroundImageFix" result="effect1_dropShadow_7100_5775"/>
<feBlend mode="normal" in="SourceGraphic" in2="effect1_dropShadow_7100_5775" result="shape"/>
</filter>
</defs>
</svg>
