<svg width="348" height="62" viewBox="0 0 348 62" fill="none" xmlns="http://www.w3.org/2000/svg">
<g filter="url(#filter0_d_6951_5418)">
<rect x="6.5" y="2.5" width="335" height="49" rx="11.5" fill="#FBFBFB" stroke="#B4B4B4"/>
<path d="M32.5916 20.0413V20.2413H32.7916H37.9583C38.933 20.2413 39.8677 20.6285 40.5569 21.3177C41.2461 22.0069 41.6333 22.9417 41.6333 23.9163V35.5413C41.6333 36.516 41.2461 37.4508 40.5569 38.14C39.8677 38.8292 38.933 39.2163 37.9583 39.2163H25.0416C24.067 39.2163 23.1322 38.8292 22.443 38.14C21.7538 37.4508 21.3666 36.516 21.3666 35.5413V23.9163C21.3666 22.9417 21.7538 22.0069 22.443 21.3177C23.1322 20.6285 24.067 20.2413 25.0416 20.2413H30.2083H30.4083V20.0413V18.388V18.2725L30.3083 18.2148C29.9481 18.0068 29.6486 17.7082 29.4395 17.3487C29.2306 16.9893 29.1192 16.5815 29.1166 16.1658C29.1168 15.5339 29.3679 14.9279 29.8147 14.4811C30.2617 14.0341 30.8679 13.783 31.5 13.783C32.1321 13.783 32.7383 14.0341 33.1852 14.4811C33.6321 14.9279 33.8831 15.5339 33.8833 16.1658C33.8807 16.5815 33.7694 16.9893 33.5604 17.3487C33.3514 17.7082 33.0518 18.0068 32.6916 18.2148L32.5916 18.2725V18.388V20.0413ZM33.9157 22.6732L33.9778 22.4247H33.7216H29.2783H29.0221L29.0843 22.6732L29.7301 25.2565L29.768 25.408H29.9241H33.0758H33.2319L33.2698 25.2565L33.9157 22.6732ZM26.8119 22.5779L26.775 22.4247H26.6175H25.0416C24.646 22.4247 24.2666 22.5818 23.9869 22.8616C23.7071 23.1413 23.55 23.5207 23.55 23.9163V35.5413C23.55 35.937 23.7071 36.3164 23.9869 36.5961C24.2666 36.8759 24.646 37.033 25.0416 37.033H37.9583C38.3539 37.033 38.7333 36.8759 39.0131 36.5961C39.2928 36.3164 39.45 35.937 39.45 35.5413V23.9163C39.45 23.5207 39.2928 23.1413 39.0131 22.8616C38.7333 22.5818 38.3539 22.4247 37.9583 22.4247H36.3825H36.2249L36.188 22.5779L35.1808 26.7618C35.1807 26.7619 35.1807 26.7621 35.1807 26.7622C35.1208 27.0043 34.98 27.2185 34.7815 27.3694C34.5828 27.5203 34.3385 27.5987 34.0891 27.5914L34.0891 27.5913H34.0833H28.9166V27.5913L28.9108 27.5914C28.6614 27.5987 28.4171 27.5203 28.2185 27.3694C28.02 27.2185 27.8791 27.0043 27.8193 26.7622C27.8192 26.7621 27.8192 26.7619 27.8191 26.7618L26.8119 22.5779ZM27.0185 30.7587C27.198 30.6387 27.409 30.5747 27.625 30.5747C27.9145 30.5747 28.1922 30.6897 28.3969 30.8944C28.6016 31.0991 28.7166 31.3768 28.7166 31.6663C28.7166 31.8823 28.6526 32.0933 28.5326 32.2728C28.4127 32.4524 28.2422 32.5923 28.0427 32.6749C27.8432 32.7575 27.6237 32.7792 27.412 32.737C27.2002 32.6949 27.0057 32.5909 26.853 32.4383C26.7004 32.2856 26.5964 32.0911 26.5543 31.8793C26.5121 31.6676 26.5338 31.4481 26.6164 31.2486C26.699 31.0491 26.8389 30.8786 27.0185 30.7587ZM17.8114 29.6028C18.0161 29.398 18.2938 29.283 18.5833 29.283C18.8728 29.283 19.1505 29.398 19.3552 29.6028C19.5599 29.8075 19.675 30.0851 19.675 30.3747V32.958C19.675 33.2475 19.5599 33.5252 19.3552 33.7299C19.1505 33.9347 18.8728 34.0497 18.5833 34.0497C18.2938 34.0497 18.0161 33.9347 17.8114 33.7299C17.6066 33.5252 17.4916 33.2475 17.4916 32.958V30.3747C17.4916 30.0851 17.6066 29.8075 17.8114 29.6028ZM43.6447 29.6028C43.8494 29.398 44.1271 29.283 44.4166 29.283C44.7062 29.283 44.9838 29.398 45.1886 29.6028C45.3933 29.8075 45.5083 30.0851 45.5083 30.3747V32.958C45.5083 33.2475 45.3933 33.5252 45.1886 33.7299C44.9838 33.9347 44.7062 34.0497 44.4166 34.0497C44.1271 34.0497 43.8494 33.9347 43.6447 33.7299C43.44 33.5252 43.325 33.2475 43.325 32.958V30.3747C43.325 30.0851 43.44 29.8075 43.6447 29.6028ZM34.7685 30.7587C34.948 30.6387 35.159 30.5747 35.375 30.5747C35.6645 30.5747 35.9422 30.6897 36.1469 30.8944C36.3516 31.0991 36.4666 31.3768 36.4666 31.6663C36.4666 31.8823 36.4026 32.0933 36.2826 32.2728C36.1627 32.4524 35.9922 32.5923 35.7927 32.6749C35.5932 32.7575 35.3737 32.7792 35.162 32.737C34.9502 32.6949 34.7557 32.5909 34.603 32.4383C34.4504 32.2856 34.3464 32.0911 34.3043 31.8793C34.2621 31.6676 34.2838 31.4481 34.3664 31.2486C34.449 31.0491 34.5889 30.8786 34.7685 30.7587Z" fill="#7D7D7D" stroke="white" stroke-width="0.4"/>
<path d="M59.424 37.928V17H61.296V37.928H59.424ZM81.8779 35.288C80.5499 35.288 79.4059 34.956 78.4459 34.292C77.4859 33.62 76.7459 32.692 76.2259 31.508C75.7059 30.316 75.4459 28.936 75.4459 27.368C75.4459 25.696 75.7259 24.288 76.2859 23.144C76.8539 22 77.6219 21.136 78.5899 20.552C79.5659 19.96 80.6619 19.664 81.8779 19.664C83.4859 19.664 84.7779 20.068 85.7539 20.876C86.7379 21.676 87.4139 22.72 87.7819 24.008L85.7659 24.416C85.4539 23.48 84.9539 22.736 84.2659 22.184C83.5859 21.624 82.7899 21.344 81.8779 21.344C81.0859 21.344 80.3539 21.572 79.6819 22.028C79.0179 22.476 78.4819 23.148 78.0739 24.044C77.6659 24.94 77.4619 26.048 77.4619 27.368C77.4619 28.568 77.6219 29.636 77.9419 30.572C78.2699 31.508 78.7579 32.244 79.4059 32.78C80.0619 33.316 80.8859 33.584 81.8779 33.584C83.0699 33.584 84.0139 33.264 84.7099 32.624C85.4139 31.984 85.7659 31.144 85.7659 30.104H87.8059C87.8059 31.184 87.5579 32.112 87.0619 32.888C86.5659 33.656 85.8699 34.248 84.9739 34.664C84.0859 35.08 83.0539 35.288 81.8779 35.288ZM99.0926 35.288C97.8446 35.288 96.7286 35 95.7446 34.424C94.7606 33.848 93.9846 32.984 93.4166 31.832C92.8486 30.672 92.5646 29.224 92.5646 27.488C92.5646 25.728 92.8486 24.272 93.4166 23.12C93.9846 21.96 94.7606 21.096 95.7446 20.528C96.7286 19.952 97.8446 19.664 99.0926 19.664C100.341 19.664 101.457 19.952 102.441 20.528C103.425 21.104 104.201 21.972 104.769 23.132C105.337 24.292 105.621 25.744 105.621 27.488C105.621 29.24 105.337 30.696 104.769 31.856C104.201 33.008 103.425 33.868 102.441 34.436C101.457 35.004 100.341 35.288 99.0926 35.288ZM99.0926 33.56C100.509 33.56 101.625 33.044 102.441 32.012C103.265 30.98 103.677 29.464 103.677 27.464C103.677 25.504 103.265 23.996 102.441 22.94C101.625 21.876 100.509 21.344 99.0926 21.344C97.6926 21.344 96.5766 21.876 95.7446 22.94C94.9206 24.004 94.5086 25.52 94.5086 27.488C94.5086 29.48 94.9206 30.992 95.7446 32.024C96.5766 33.048 97.6926 33.56 99.0926 33.56ZM111.633 19.928H113.865L121.521 32.336H121.353V19.928H123.225V35H121.137L113.217 22.184H113.505V35H111.633V19.928ZM130.463 35V19.928H139.631V21.536H132.335V26.552H139.127V28.16H132.335V35H130.463ZM145.449 35V19.928H147.321V35H145.449ZM154.576 35V19.928H159.832C161.552 19.928 162.852 20.34 163.732 21.164C164.62 21.98 165.064 23.056 165.064 24.392C165.064 25.712 164.62 26.784 163.732 27.608C162.852 28.424 161.552 28.832 159.832 28.832H156.448V35H154.576ZM163.024 35L158.704 28.16H160.744L165.448 35H163.024ZM156.448 27.512H159.688C160.816 27.512 161.672 27.236 162.256 26.684C162.848 26.124 163.144 25.4 163.144 24.512C163.144 23.6 162.86 22.876 162.292 22.34C161.732 21.804 160.912 21.536 159.832 21.536H156.448V27.512ZM171.671 19.928H174.359L179.543 30.344H179.351L184.535 19.928H187.151V35H185.255V21.872H185.591L180.071 33.104H178.823L173.327 21.944H173.543V35H171.671V19.928ZM192.591 35L197.775 19.928H200.055L205.119 35H203.151L201.879 31.136H195.879L194.559 35H192.591ZM196.359 29.672H201.399L198.879 22.208L196.359 29.672ZM207.308 21.536V19.928H219.044V21.536H213.68L214.1 21.104V35H212.228V21.104L212.648 21.536H207.308ZM224.011 35V19.928H225.883V35H224.011ZM238.466 35.288C237.218 35.288 236.102 35 235.118 34.424C234.134 33.848 233.358 32.984 232.79 31.832C232.222 30.672 231.938 29.224 231.938 27.488C231.938 25.728 232.222 24.272 232.79 23.12C233.358 21.96 234.134 21.096 235.118 20.528C236.102 19.952 237.218 19.664 238.466 19.664C239.714 19.664 240.83 19.952 241.814 20.528C242.798 21.104 243.574 21.972 244.142 23.132C244.71 24.292 244.994 25.744 244.994 27.488C244.994 29.24 244.71 30.696 244.142 31.856C243.574 33.008 242.798 33.868 241.814 34.436C240.83 35.004 239.714 35.288 238.466 35.288ZM238.466 33.56C239.882 33.56 240.998 33.044 241.814 32.012C242.638 30.98 243.05 29.464 243.05 27.464C243.05 25.504 242.638 23.996 241.814 22.94C240.998 21.876 239.882 21.344 238.466 21.344C237.066 21.344 235.95 21.876 235.118 22.94C234.294 24.004 233.882 25.52 233.882 27.488C233.882 29.48 234.294 30.992 235.118 32.024C235.95 33.048 237.066 33.56 238.466 33.56ZM251.006 19.928H253.238L260.894 32.336H260.726V19.928H262.598V35H260.51L252.59 22.184H252.878V35H251.006V19.928ZM277.932 35V19.928H283.188C284.908 19.928 286.208 20.34 287.088 21.164C287.976 21.98 288.42 23.056 288.42 24.392C288.42 25.712 287.976 26.784 287.088 27.608C286.208 28.424 284.908 28.832 283.188 28.832H279.804V35H277.932ZM286.38 35L282.06 28.16H284.1L288.804 35H286.38ZM279.804 27.512H283.044C284.172 27.512 285.028 27.236 285.612 26.684C286.204 26.124 286.5 25.4 286.5 24.512C286.5 23.6 286.216 22.876 285.648 22.34C285.088 21.804 284.268 21.536 283.188 21.536H279.804V27.512ZM295.003 35V19.928H304.291V21.536H296.875V26.6H303.859V28.208H296.875V33.368H304.291V35H295.003ZM316.232 35.288C314.984 35.288 313.868 35 312.884 34.424C311.9 33.848 311.124 32.984 310.556 31.832C309.988 30.672 309.704 29.224 309.704 27.488C309.704 25.728 309.988 24.272 310.556 23.12C311.124 21.96 311.9 21.096 312.884 20.528C313.868 19.952 314.984 19.664 316.232 19.664C317.48 19.664 318.596 19.952 319.58 20.528C320.564 21.104 321.34 21.972 321.908 23.132C322.476 24.292 322.76 25.744 322.76 27.488C322.76 29.24 322.476 30.696 321.908 31.856C321.34 33.008 320.564 33.868 319.58 34.436C318.596 35.004 317.48 35.288 316.232 35.288ZM320.744 39.008C320.04 39.008 319.404 38.824 318.836 38.456C318.268 38.096 317.744 37.568 317.264 36.872L315.704 34.64L317.384 34.112L318.776 36.104C319.04 36.464 319.312 36.716 319.592 36.86C319.88 37.012 320.16 37.096 320.432 37.112C320.856 37.112 321.248 37.056 321.608 36.944C321.968 36.832 322.352 36.68 322.76 36.488V38.552C322.4 38.704 322.056 38.816 321.728 38.888C321.4 38.968 321.072 39.008 320.744 39.008ZM316.232 33.56C317.648 33.56 318.764 33.044 319.58 32.012C320.404 30.98 320.816 29.464 320.816 27.464C320.816 25.504 320.404 23.996 319.58 22.94C318.764 21.876 317.648 21.344 316.232 21.344C314.832 21.344 313.716 21.876 312.884 22.94C312.06 24.004 311.648 25.52 311.648 27.488C311.648 29.48 312.06 30.992 312.884 32.024C313.716 33.048 314.832 33.56 316.232 33.56ZM327.233 33.884C327.233 33.508 327.365 33.184 327.629 32.912C327.893 32.64 328.225 32.504 328.625 32.504C329.025 32.504 329.365 32.64 329.645 32.912C329.925 33.184 330.065 33.508 330.065 33.884C330.065 34.26 329.925 34.576 329.645 34.832C329.365 35.088 329.025 35.216 328.625 35.216C328.225 35.216 327.893 35.088 327.629 34.832C327.365 34.568 327.233 34.252 327.233 33.884Z" fill="#7D7D7D"/>
</g>
<defs>
<filter id="filter0_d_6951_5418" x="0" y="0" width="348" height="62" filterUnits="userSpaceOnUse" color-interpolation-filters="sRGB">
<feFlood flood-opacity="0" result="BackgroundImageFix"/>
<feColorMatrix in="SourceAlpha" type="matrix" values="0 0 0 0 0 0 0 0 0 0 0 0 0 0 0 0 0 0 127 0" result="hardAlpha"/>
<feOffset dy="4"/>
<feGaussianBlur stdDeviation="3"/>
<feComposite in2="hardAlpha" operator="out"/>
<feColorMatrix type="matrix" values="0 0 0 0 0 0 0 0 0 0 0 0 0 0 0 0 0 0 0.05 0"/>
<feBlend mode="normal" in2="BackgroundImageFix" result="effect1_dropShadow_6951_5418"/>
<feBlend mode="normal" in="SourceGraphic" in2="effect1_dropShadow_6951_5418" result="shape"/>
</filter>
</defs>
</svg>
