<svg width="323" height="62" viewBox="0 0 323 62" fill="none" xmlns="http://www.w3.org/2000/svg">
<g filter="url(#filter0_d_7079_5821)">
<path d="M18 2.5H305C311.351 2.5 316.5 7.64873 316.5 14V40C316.5 46.3513 311.351 51.5 305 51.5H18C11.6487 51.5 6.5 46.3513 6.5 40V14C6.5 7.64873 11.6487 2.5 18 2.5Z" fill="#FBFBFB" stroke="#B9B9B9"/>
<path d="M32.5658 20.0413V20.2413H32.7658H37.9275C38.9011 20.2413 39.8349 20.6285 40.5234 21.3177C41.212 22.0068 41.5988 22.9416 41.5988 23.9163V35.5413C41.5988 36.5161 41.212 37.4508 40.5234 38.14C39.8349 38.8292 38.9011 39.2163 37.9275 39.2163H25.0233C24.0497 39.2163 23.1159 38.8292 22.4274 38.14C21.7389 37.4508 21.352 36.5161 21.352 35.5413V23.9163C21.352 22.9416 21.7389 22.0068 22.4274 21.3177C23.1159 20.6285 24.0497 20.2413 25.0233 20.2413H30.185H30.385V20.0413V18.388V18.2726L30.2851 18.2148C29.9252 18.0069 29.626 17.7083 29.4172 17.3487C29.2084 16.9893 29.0972 16.5815 29.0946 16.1658C29.0947 15.5338 29.3456 14.9278 29.792 14.481C30.2385 14.0341 30.844 13.783 31.4754 13.783C32.1068 13.783 32.7123 14.0341 33.1589 14.481C33.6052 14.9278 33.8561 15.5338 33.8563 16.1658C33.8536 16.5815 33.7424 16.9893 33.5337 17.3487C33.3248 17.7083 33.0256 18.0069 32.6658 18.2148L32.5658 18.2726V18.388V20.0413ZM33.889 22.6731L33.951 22.4247H33.6949H29.2559H28.9998L29.0618 22.6731L29.7071 25.2565L29.7449 25.408H29.9011H33.0497H33.2059L33.2438 25.2565L33.889 22.6731ZM26.7921 22.5779L26.7552 22.4247H26.5976H25.0233C24.628 22.4247 24.2488 22.5819 23.9693 22.8616C23.6899 23.1414 23.5329 23.5208 23.5329 23.9163V35.5413C23.5329 35.9369 23.6899 36.3163 23.9693 36.596C24.2488 36.8758 24.628 37.033 25.0233 37.033H37.9275C38.3229 37.033 38.702 36.8758 38.9815 36.596C39.261 36.3163 39.418 35.9369 39.418 35.5413V23.9163C39.418 23.5208 39.261 23.1414 38.9815 22.8616C38.702 22.5819 38.3229 22.4247 37.9275 22.4247H36.3532H36.1956L36.1588 22.5779L35.1525 26.7618C35.1525 26.762 35.1524 26.7622 35.1524 26.7624C35.0926 27.0044 34.9518 27.2186 34.7536 27.3694C34.5552 27.5204 34.3111 27.5987 34.0621 27.5914L34.0621 27.5913H34.0563H28.8946V27.5913L28.8887 27.5914C28.6397 27.5987 28.3957 27.5204 28.1973 27.3694C27.999 27.2186 27.8583 27.0044 27.7985 26.7624C27.7984 26.7622 27.7984 26.762 27.7983 26.7618L26.7921 22.5779ZM26.9984 30.7586C27.1777 30.6387 27.3885 30.5747 27.6041 30.5747C27.8933 30.5747 28.1706 30.6896 28.3751 30.8944C28.5796 31.0991 28.6946 31.3768 28.6946 31.6663C28.6946 31.8823 28.6306 32.0934 28.5107 32.2729C28.3909 32.4524 28.2206 32.5923 28.0214 32.6749C27.8221 32.7575 27.6029 32.7791 27.3915 32.737C27.18 32.6949 26.9857 32.591 26.8332 32.4383C26.6807 32.2857 26.5768 32.0912 26.5347 31.8794C26.4926 31.6676 26.5142 31.448 26.5968 31.2485C26.6793 31.049 26.8191 30.8785 26.9984 30.7586ZM17.8002 29.6027C18.0047 29.398 18.282 29.283 18.5712 29.283C18.8603 29.283 19.1377 29.398 19.3422 29.6027C19.5467 29.8074 19.6616 30.0851 19.6616 30.3747V32.958C19.6616 33.2476 19.5467 33.5253 19.3422 33.73C19.1377 33.9347 18.8603 34.0497 18.5712 34.0497C18.282 34.0497 18.0047 33.9347 17.8002 33.73C17.5957 33.5253 17.4808 33.2476 17.4808 32.958V30.3747C17.4808 30.0851 17.5957 29.8074 17.8002 29.6027ZM43.6087 29.6027C43.8132 29.398 44.0905 29.283 44.3796 29.283C44.6688 29.283 44.9461 29.398 45.1506 29.6027C45.3551 29.8074 45.4701 30.0851 45.4701 30.3747V32.958C45.4701 33.2476 45.3551 33.5253 45.1506 33.73C44.9461 33.9347 44.6688 34.0497 44.3796 34.0497C44.0905 34.0497 43.8132 33.9347 43.6087 33.73C43.4042 33.5253 43.2892 33.2476 43.2892 32.958V30.3747C43.2892 30.0851 43.4042 29.8074 43.6087 29.6027ZM34.741 30.7586C34.9203 30.6387 35.1311 30.5747 35.3467 30.5747C35.6358 30.5747 35.9132 30.6896 36.1177 30.8944C36.3222 31.0991 36.4371 31.3768 36.4371 31.6663C36.4371 31.8823 36.3731 32.0934 36.2533 32.2729C36.1334 32.4524 35.9631 32.5923 35.7639 32.6749C35.5647 32.7575 35.3455 32.7791 35.134 32.737C34.9225 32.6949 34.7282 32.591 34.5757 32.4383C34.4232 32.2857 34.3193 32.0912 34.2772 31.8794C34.2351 31.6676 34.2567 31.448 34.3393 31.2485C34.4218 31.049 34.5616 30.8785 34.741 30.7586Z" fill="#7D7D7D" stroke="white" stroke-width="0.4"/>
<path d="M59.424 37.928V17H61.296V37.928H59.424ZM76.6459 35V19.928H78.5179V35H76.6459ZM85.7484 19.928H87.9804L95.6364 32.336H95.4684V19.928H97.3404V35H95.2524L87.3324 22.184H87.6204V35H85.7484V19.928ZM102.299 21.536V19.928H114.035V21.536H108.671L109.091 21.104V35H107.219V21.104L107.639 21.536H102.299ZM118.978 35V19.928H128.266V21.536H120.85V26.6H127.834V28.208H120.85V33.368H128.266V35H118.978ZM134.855 19.928H137.087L144.743 32.336H144.575V19.928H146.447V35H144.359L136.439 22.184H136.727V35H134.855V19.928ZM151.405 21.536V19.928H163.141V21.536H157.777L158.197 21.104V35H156.325V21.104L156.745 21.536H151.405ZM176.18 19.928H178.412L186.068 32.336H185.9V19.928H187.772V35H185.684L177.764 22.184H178.052V35H176.18V19.928ZM200.338 35.288C199.09 35.288 197.974 35 196.99 34.424C196.006 33.848 195.23 32.984 194.662 31.832C194.094 30.672 193.81 29.224 193.81 27.488C193.81 25.728 194.094 24.272 194.662 23.12C195.23 21.96 196.006 21.096 196.99 20.528C197.974 19.952 199.09 19.664 200.338 19.664C201.586 19.664 202.702 19.952 203.686 20.528C204.67 21.104 205.446 21.972 206.014 23.132C206.582 24.292 206.866 25.744 206.866 27.488C206.866 29.24 206.582 30.696 206.014 31.856C205.446 33.008 204.67 33.868 203.686 34.436C202.702 35.004 201.586 35.288 200.338 35.288ZM200.338 33.56C201.754 33.56 202.87 33.044 203.686 32.012C204.51 30.98 204.922 29.464 204.922 27.464C204.922 25.504 204.51 23.996 203.686 22.94C202.87 21.876 201.754 21.344 200.338 21.344C198.938 21.344 197.822 21.876 196.99 22.94C196.166 24.004 195.754 25.52 195.754 27.488C195.754 29.48 196.166 30.992 196.99 32.024C197.822 33.048 198.938 33.56 200.338 33.56ZM220.997 19.928H223.685L228.869 30.344H228.677L233.861 19.928H236.477V35H234.581V21.872H234.917L229.397 33.104H228.149L222.653 21.944H222.869V35H220.997V19.928ZM241.918 35L247.102 19.928H249.382L254.446 35H252.478L251.206 31.136H245.206L243.886 35H241.918ZM245.686 29.672H250.726L248.206 22.208L245.686 29.672ZM256.635 21.536V19.928H268.371V21.536H263.007L263.427 21.104V35H261.555V21.104L261.975 21.536H256.635ZM278.57 35.288C277.242 35.288 276.098 34.956 275.138 34.292C274.178 33.62 273.438 32.692 272.918 31.508C272.398 30.316 272.138 28.936 272.138 27.368C272.138 25.696 272.418 24.288 272.978 23.144C273.546 22 274.314 21.136 275.282 20.552C276.258 19.96 277.354 19.664 278.57 19.664C280.178 19.664 281.47 20.068 282.446 20.876C283.43 21.676 284.106 22.72 284.474 24.008L282.458 24.416C282.146 23.48 281.646 22.736 280.958 22.184C280.278 21.624 279.482 21.344 278.57 21.344C277.778 21.344 277.046 21.572 276.374 22.028C275.71 22.476 275.174 23.148 274.766 24.044C274.358 24.94 274.154 26.048 274.154 27.368C274.154 28.568 274.314 29.636 274.634 30.572C274.962 31.508 275.45 32.244 276.098 32.78C276.754 33.316 277.578 33.584 278.57 33.584C279.762 33.584 280.706 33.264 281.402 32.624C282.106 31.984 282.458 31.144 282.458 30.104H284.498C284.498 31.184 284.25 32.112 283.754 32.888C283.258 33.656 282.562 34.248 281.666 34.664C280.778 35.08 279.746 35.288 278.57 35.288ZM290.457 19.928H292.329V26.576H299.793V19.928H301.641V35H299.793V28.184H292.329V35H290.457V19.928Z" fill="#7D7D7D"/>
</g>
<defs>
<filter id="filter0_d_7079_5821" x="0" y="0" width="323" height="62" filterUnits="userSpaceOnUse" color-interpolation-filters="sRGB">
<feFlood flood-opacity="0" result="BackgroundImageFix"/>
<feColorMatrix in="SourceAlpha" type="matrix" values="0 0 0 0 0 0 0 0 0 0 0 0 0 0 0 0 0 0 127 0" result="hardAlpha"/>
<feOffset dy="4"/>
<feGaussianBlur stdDeviation="3"/>
<feComposite in2="hardAlpha" operator="out"/>
<feColorMatrix type="matrix" values="0 0 0 0 0 0 0 0 0 0 0 0 0 0 0 0 0 0 0.05 0"/>
<feBlend mode="normal" in2="BackgroundImageFix" result="effect1_dropShadow_7079_5821"/>
<feBlend mode="normal" in="SourceGraphic" in2="effect1_dropShadow_7079_5821" result="shape"/>
</filter>
</defs>
</svg>
