<svg width="396" height="62" viewBox="0 0 396 62" fill="none" xmlns="http://www.w3.org/2000/svg">
<g filter="url(#filter0_d_7100_5779)">
<path d="M18 2.5H378C384.351 2.5 389.5 7.64873 389.5 14V40C389.5 46.3513 384.351 51.5 378 51.5H18C11.6487 51.5 6.5 46.3513 6.5 40V14C6.5 7.64873 11.6487 2.5 18 2.5Z" fill="#FFF2EA" stroke="#B49981"/>
<path d="M32.5915 20.0413V20.2413H32.7915H37.9582C38.9328 20.2413 39.8676 20.6285 40.5568 21.3177C41.246 22.0069 41.6332 22.9417 41.6332 23.9163V35.5413C41.6332 36.516 41.246 37.4508 40.5568 38.14C39.8676 38.8292 38.9328 39.2163 37.9582 39.2163H25.0415C24.0668 39.2163 23.1321 38.8292 22.4429 38.14C21.7537 37.4508 21.3665 36.516 21.3665 35.5413V23.9163C21.3665 22.9417 21.7537 22.0069 22.4429 21.3177C23.1321 20.6285 24.0668 20.2413 25.0415 20.2413H30.2082H30.4082V20.0413V18.388V18.2725L30.3082 18.2148C29.948 18.0068 29.6484 17.7082 29.4394 17.3487C29.2304 16.9893 29.1191 16.5815 29.1165 16.1658C29.1167 15.5339 29.3677 14.9279 29.8146 14.4811C30.2615 14.0341 30.8677 13.783 31.4998 13.783C32.1319 13.783 32.7381 14.0341 33.1851 14.4811C33.6319 14.9279 33.883 15.5339 33.8832 16.1658C33.8806 16.5815 33.7692 16.9893 33.5603 17.3487C33.3512 17.7082 33.0517 18.0068 32.6915 18.2148L32.5915 18.2725V18.388V20.0413ZM33.9155 22.6732L33.9777 22.4247H33.7215H29.2782H29.022L29.0841 22.6732L29.73 25.2565L29.7678 25.408H29.924H33.0757H33.2318L33.2697 25.2565L33.9155 22.6732ZM26.8118 22.5779L26.7749 22.4247H26.6173H25.0415C24.6459 22.4247 24.2665 22.5818 23.9867 22.8616C23.707 23.1413 23.5498 23.5207 23.5498 23.9163V35.5413C23.5498 35.937 23.707 36.3164 23.9867 36.5961C24.2665 36.8759 24.6459 37.033 25.0415 37.033H37.9582C38.3538 37.033 38.7332 36.8759 39.0129 36.5961C39.2927 36.3164 39.4498 35.937 39.4498 35.5413V23.9163C39.4498 23.5207 39.2927 23.1413 39.0129 22.8616C38.7332 22.5818 38.3538 22.4247 37.9582 22.4247H36.3823H36.2248L36.1879 22.5779L35.1807 26.7618C35.1806 26.7619 35.1806 26.7621 35.1805 26.7622C35.1207 27.0043 34.9798 27.2185 34.7813 27.3694C34.5827 27.5203 34.3384 27.5987 34.089 27.5914L34.089 27.5913H34.0832H28.9165V27.5913L28.9107 27.5914C28.6613 27.5987 28.417 27.5203 28.2183 27.3694C28.0198 27.2185 27.879 27.0043 27.8191 26.7622C27.8191 26.7621 27.8191 26.7619 27.819 26.7618L26.8118 22.5779ZM27.0183 30.7587C27.1979 30.6387 27.4089 30.5747 27.6248 30.5747C27.9144 30.5747 28.192 30.6897 28.3968 30.8944C28.6015 31.0991 28.7165 31.3768 28.7165 31.6663C28.7165 31.8823 28.6525 32.0933 28.5325 32.2728C28.4126 32.4524 28.2421 32.5923 28.0426 32.6749C27.8431 32.7575 27.6236 32.7792 27.4119 32.737C27.2001 32.6949 27.0056 32.5909 26.8529 32.4383C26.7002 32.2856 26.5963 32.0911 26.5541 31.8793C26.512 31.6676 26.5336 31.4481 26.6163 31.2486C26.6989 31.0491 26.8388 30.8786 27.0183 30.7587ZM17.8112 29.6028C18.016 29.398 18.2936 29.283 18.5832 29.283C18.8727 29.283 19.1504 29.398 19.3551 29.6028C19.5598 29.8075 19.6748 30.0851 19.6748 30.3747V32.958C19.6748 33.2475 19.5598 33.5252 19.3551 33.7299C19.1504 33.9347 18.8727 34.0497 18.5832 34.0497C18.2936 34.0497 18.016 33.9347 17.8112 33.7299C17.6065 33.5252 17.4915 33.2475 17.4915 32.958V30.3747C17.4915 30.0851 17.6065 29.8075 17.8112 29.6028ZM43.6446 29.6028C43.8493 29.398 44.127 29.283 44.4165 29.283C44.706 29.283 44.9837 29.398 45.1884 29.6028C45.3932 29.8075 45.5082 30.0851 45.5082 30.3747V32.958C45.5082 33.2475 45.3932 33.5252 45.1884 33.7299C44.9837 33.9347 44.706 34.0497 44.4165 34.0497C44.127 34.0497 43.8493 33.9347 43.6446 33.7299C43.4398 33.5252 43.3248 33.2475 43.3248 32.958V30.3747C43.3248 30.0851 43.4398 29.8075 43.6446 29.6028ZM34.7683 30.7587C34.9479 30.6387 35.1589 30.5747 35.3748 30.5747C35.6644 30.5747 35.942 30.6897 36.1468 30.8944C36.3515 31.0991 36.4665 31.3768 36.4665 31.6663C36.4665 31.8823 36.4025 32.0933 36.2825 32.2728C36.1626 32.4524 35.9921 32.5923 35.7926 32.6749C35.5931 32.7575 35.3736 32.7792 35.1619 32.737C34.9501 32.6949 34.7556 32.5909 34.6029 32.4383C34.4502 32.2856 34.3463 32.0911 34.3041 31.8793C34.262 31.6676 34.2836 31.4481 34.3663 31.2486C34.4489 31.0491 34.5888 30.8786 34.7683 30.7587Z" fill="#997452" stroke="white" stroke-width="0.4"/>
<path d="M59.424 37.928V17H61.296V37.928H59.424ZM76.6219 19.928H78.8539L86.5099 32.336H86.3419V19.928H88.2139V35H86.1259L78.2059 22.184H78.4939V35H76.6219V19.928ZM95.4281 35V19.928H104.716V21.536H97.3001V26.6H104.284V28.208H97.3001V33.368H104.716V35H95.4281ZM109.241 19.928H111.353L115.265 33.344H114.713L118.721 21.488H119.993L123.953 33.248H123.425L127.913 19.928H130.001L124.673 35H122.705L119.225 24.776H119.585L115.985 35H114.017L109.241 19.928ZM148.501 35.288C147.173 35.288 146.029 34.956 145.069 34.292C144.109 33.62 143.369 32.692 142.849 31.508C142.329 30.316 142.069 28.936 142.069 27.368C142.069 25.696 142.349 24.288 142.909 23.144C143.477 22 144.245 21.136 145.213 20.552C146.189 19.96 147.285 19.664 148.501 19.664C150.109 19.664 151.401 20.068 152.377 20.876C153.361 21.676 154.037 22.72 154.405 24.008L152.389 24.416C152.077 23.48 151.577 22.736 150.889 22.184C150.209 21.624 149.413 21.344 148.501 21.344C147.709 21.344 146.977 21.572 146.305 22.028C145.641 22.476 145.105 23.148 144.697 24.044C144.289 24.94 144.085 26.048 144.085 27.368C144.085 28.568 144.245 29.636 144.565 30.572C144.893 31.508 145.381 32.244 146.029 32.78C146.685 33.316 147.509 33.584 148.501 33.584C149.693 33.584 150.637 33.264 151.333 32.624C152.037 31.984 152.389 31.144 152.389 30.104H154.429C154.429 31.184 154.181 32.112 153.685 32.888C153.189 33.656 152.493 34.248 151.597 34.664C150.709 35.08 149.677 35.288 148.501 35.288ZM160.388 19.928H162.26V26.576H169.724V19.928H171.572V35H169.724V28.184H162.26V35H160.388V19.928ZM184.171 35.288C182.923 35.288 181.807 35 180.823 34.424C179.839 33.848 179.063 32.984 178.495 31.832C177.927 30.672 177.643 29.224 177.643 27.488C177.643 25.728 177.927 24.272 178.495 23.12C179.063 21.96 179.839 21.096 180.823 20.528C181.807 19.952 182.923 19.664 184.171 19.664C185.419 19.664 186.535 19.952 187.519 20.528C188.503 21.104 189.279 21.972 189.847 23.132C190.415 24.292 190.699 25.744 190.699 27.488C190.699 29.24 190.415 30.696 189.847 31.856C189.279 33.008 188.503 33.868 187.519 34.436C186.535 35.004 185.419 35.288 184.171 35.288ZM184.171 33.56C185.587 33.56 186.703 33.044 187.519 32.012C188.343 30.98 188.755 29.464 188.755 27.464C188.755 25.504 188.343 23.996 187.519 22.94C186.703 21.876 185.587 21.344 184.171 21.344C182.771 21.344 181.655 21.876 180.823 22.94C179.999 24.004 179.587 25.52 179.587 27.488C179.587 29.48 179.999 30.992 180.823 32.024C181.655 33.048 182.771 33.56 184.171 33.56ZM196.735 35V19.928H198.607V35H196.735ZM211.094 35.288C209.766 35.288 208.622 34.956 207.662 34.292C206.702 33.62 205.962 32.692 205.442 31.508C204.922 30.316 204.662 28.936 204.662 27.368C204.662 25.696 204.942 24.288 205.502 23.144C206.07 22 206.838 21.136 207.806 20.552C208.782 19.96 209.878 19.664 211.094 19.664C212.702 19.664 213.994 20.068 214.97 20.876C215.954 21.676 216.63 22.72 216.997 24.008L214.982 24.416C214.67 23.48 214.17 22.736 213.482 22.184C212.802 21.624 212.006 21.344 211.094 21.344C210.302 21.344 209.57 21.572 208.898 22.028C208.234 22.476 207.698 23.148 207.29 24.044C206.882 24.94 206.678 26.048 206.678 27.368C206.678 28.568 206.838 29.636 207.158 30.572C207.486 31.508 207.974 32.244 208.622 32.78C209.278 33.316 210.102 33.584 211.094 33.584C212.286 33.584 213.23 33.264 213.926 32.624C214.63 31.984 214.982 31.144 214.982 30.104H217.022C217.022 31.184 216.774 32.112 216.278 32.888C215.782 33.656 215.086 34.248 214.19 34.664C213.302 35.08 212.27 35.288 211.094 35.288ZM222.956 35V19.928H232.244V21.536H224.828V26.6H231.812V28.208H224.828V33.368H232.244V35H222.956ZM246.904 35V19.928H251.752C253.408 19.928 254.672 20.348 255.544 21.188C256.424 22.02 256.864 23.152 256.864 24.584C256.864 26 256.424 27.124 255.544 27.956C254.672 28.78 253.408 29.192 251.752 29.192H248.8V35H246.904ZM248.8 27.56H251.752C252.8 27.56 253.592 27.292 254.128 26.756C254.672 26.22 254.944 25.496 254.944 24.584C254.944 23.656 254.672 22.916 254.128 22.364C253.592 21.812 252.8 21.536 251.752 21.536H248.8V27.56ZM262.641 35V19.928H267.897C269.617 19.928 270.917 20.34 271.797 21.164C272.685 21.98 273.129 23.056 273.129 24.392C273.129 25.712 272.685 26.784 271.797 27.608C270.917 28.424 269.617 28.832 267.897 28.832H264.513V35H262.641ZM271.089 35L266.769 28.16H268.809L273.513 35H271.089ZM264.513 27.512H267.753C268.881 27.512 269.737 27.236 270.321 26.684C270.913 26.124 271.209 25.4 271.209 24.512C271.209 23.6 270.925 22.876 270.357 22.34C269.797 21.804 268.977 21.536 267.897 21.536H264.513V27.512ZM285.065 35.288C283.817 35.288 282.701 35 281.717 34.424C280.733 33.848 279.957 32.984 279.389 31.832C278.821 30.672 278.537 29.224 278.537 27.488C278.537 25.728 278.821 24.272 279.389 23.12C279.957 21.96 280.733 21.096 281.717 20.528C282.701 19.952 283.817 19.664 285.065 19.664C286.313 19.664 287.429 19.952 288.413 20.528C289.397 21.104 290.173 21.972 290.741 23.132C291.309 24.292 291.593 25.744 291.593 27.488C291.593 29.24 291.309 30.696 290.741 31.856C290.173 33.008 289.397 33.868 288.413 34.436C287.429 35.004 286.313 35.288 285.065 35.288ZM285.065 33.56C286.481 33.56 287.597 33.044 288.413 32.012C289.237 30.98 289.648 29.464 289.648 27.464C289.648 25.504 289.237 23.996 288.413 22.94C287.597 21.876 286.481 21.344 285.065 21.344C283.665 21.344 282.549 21.876 281.717 22.94C280.893 24.004 280.48 25.52 280.48 27.488C280.48 29.48 280.893 30.992 281.717 32.024C282.549 33.048 283.665 33.56 285.065 33.56ZM301.641 33.008L306.105 19.928H308.097L302.721 35H300.777L295.449 19.928H297.441L301.881 33.008H301.641ZM313.341 35V19.928H315.213V35H313.341ZM327.292 35.288C326.284 35.288 325.36 35.108 324.52 34.748C323.68 34.38 323.004 33.84 322.492 33.128C321.98 32.416 321.716 31.536 321.7 30.488H323.524C323.524 31.192 323.696 31.772 324.04 32.228C324.384 32.676 324.84 33.012 325.408 33.236C325.976 33.452 326.596 33.56 327.268 33.56C327.996 33.56 328.628 33.444 329.164 33.212C329.7 32.98 330.112 32.676 330.4 32.3C330.696 31.916 330.844 31.496 330.844 31.04C330.844 30.4 330.648 29.884 330.256 29.492C329.864 29.092 329.284 28.768 328.516 28.52L325.852 27.584C324.604 27.136 323.66 26.624 323.02 26.048C322.38 25.472 322.06 24.664 322.06 23.624C322.06 22.456 322.508 21.504 323.404 20.768C324.308 20.032 325.588 19.664 327.244 19.664C328.78 19.664 329.98 20.02 330.844 20.732C331.708 21.436 332.204 22.384 332.332 23.576H330.484C330.364 22.88 330.036 22.34 329.5 21.956C328.972 21.564 328.22 21.368 327.244 21.368C326.252 21.368 325.48 21.588 324.928 22.028C324.376 22.468 324.1 23.024 324.1 23.696C324.1 24.248 324.272 24.688 324.616 25.016C324.968 25.336 325.516 25.624 326.26 25.88L329.38 26.96C330.46 27.32 331.312 27.824 331.936 28.472C332.568 29.12 332.884 29.96 332.884 30.992C332.884 31.792 332.668 32.516 332.236 33.164C331.812 33.812 331.184 34.328 330.352 34.712C329.52 35.096 328.5 35.288 327.292 35.288ZM339.376 35V19.928H341.248V35H339.376ZM353.83 35.288C352.582 35.288 351.466 35 350.482 34.424C349.498 33.848 348.722 32.984 348.154 31.832C347.586 30.672 347.302 29.224 347.302 27.488C347.302 25.728 347.586 24.272 348.154 23.12C348.722 21.96 349.498 21.096 350.482 20.528C351.466 19.952 352.582 19.664 353.83 19.664C355.078 19.664 356.194 19.952 357.178 20.528C358.162 21.104 358.938 21.972 359.506 23.132C360.074 24.292 360.358 25.744 360.358 27.488C360.358 29.24 360.074 30.696 359.506 31.856C358.938 33.008 358.162 33.868 357.178 34.436C356.194 35.004 355.078 35.288 353.83 35.288ZM353.83 33.56C355.246 33.56 356.362 33.044 357.178 32.012C358.002 30.98 358.414 29.464 358.414 27.464C358.414 25.504 358.002 23.996 357.178 22.94C356.362 21.876 355.246 21.344 353.83 21.344C352.43 21.344 351.314 21.876 350.482 22.94C349.658 24.004 349.246 25.52 349.246 27.488C349.246 29.48 349.658 30.992 350.482 32.024C351.314 33.048 352.43 33.56 353.83 33.56ZM366.37 19.928H368.602L376.258 32.336H376.09V19.928H377.962V35H375.874L367.954 22.184H368.242V35H366.37V19.928Z" fill="#997452"/>
</g>
<defs>
<filter id="filter0_d_7100_5779" x="0" y="0" width="396" height="62" filterUnits="userSpaceOnUse" color-interpolation-filters="sRGB">
<feFlood flood-opacity="0" result="BackgroundImageFix"/>
<feColorMatrix in="SourceAlpha" type="matrix" values="0 0 0 0 0 0 0 0 0 0 0 0 0 0 0 0 0 0 127 0" result="hardAlpha"/>
<feOffset dy="4"/>
<feGaussianBlur stdDeviation="3"/>
<feComposite in2="hardAlpha" operator="out"/>
<feColorMatrix type="matrix" values="0 0 0 0 0 0 0 0 0 0 0 0 0 0 0 0 0 0 0.05 0"/>
<feBlend mode="normal" in2="BackgroundImageFix" result="effect1_dropShadow_7100_5779"/>
<feBlend mode="normal" in="SourceGraphic" in2="effect1_dropShadow_7100_5779" result="shape"/>
</filter>
</defs>
</svg>
