<svg width="320" height="62" viewBox="0 0 320 62" fill="none" xmlns="http://www.w3.org/2000/svg">
<g filter="url(#filter0_d_7096_5763)">
<rect x="6.5" y="2.5" width="307" height="49" rx="11.5" fill="#FAFAFA" stroke="#B9B9B9"/>
<path d="M32.5915 20.0413V20.2413H32.7915H37.9582C38.9328 20.2413 39.8676 20.6285 40.5568 21.3177C41.246 22.0069 41.6332 22.9417 41.6332 23.9163V35.5413C41.6332 36.516 41.246 37.4508 40.5568 38.14C39.8676 38.8292 38.9328 39.2163 37.9582 39.2163H25.0415C24.0668 39.2163 23.1321 38.8292 22.4429 38.14C21.7537 37.4508 21.3665 36.516 21.3665 35.5413V23.9163C21.3665 22.9417 21.7537 22.0069 22.4429 21.3177C23.1321 20.6285 24.0668 20.2413 25.0415 20.2413H30.2082H30.4082V20.0413V18.388V18.2725L30.3082 18.2148C29.948 18.0068 29.6484 17.7082 29.4394 17.3487C29.2304 16.9893 29.1191 16.5815 29.1165 16.1658C29.1167 15.5339 29.3677 14.9279 29.8146 14.4811C30.2615 14.0341 30.8677 13.783 31.4998 13.783C32.1319 13.783 32.7381 14.0341 33.1851 14.4811C33.6319 14.9279 33.883 15.5339 33.8832 16.1658C33.8806 16.5815 33.7692 16.9893 33.5603 17.3487C33.3512 17.7082 33.0517 18.0068 32.6915 18.2148L32.5915 18.2725V18.388V20.0413ZM33.9155 22.6732L33.9777 22.4247H33.7215H29.2782H29.022L29.0841 22.6732L29.73 25.2565L29.7678 25.408H29.924H33.0757H33.2318L33.2697 25.2565L33.9155 22.6732ZM26.8118 22.5779L26.7749 22.4247H26.6173H25.0415C24.6459 22.4247 24.2665 22.5818 23.9867 22.8616C23.707 23.1413 23.5498 23.5207 23.5498 23.9163V35.5413C23.5498 35.937 23.707 36.3164 23.9867 36.5961C24.2665 36.8759 24.6459 37.033 25.0415 37.033H37.9582C38.3538 37.033 38.7332 36.8759 39.0129 36.5961C39.2927 36.3164 39.4498 35.937 39.4498 35.5413V23.9163C39.4498 23.5207 39.2927 23.1413 39.0129 22.8616C38.7332 22.5818 38.3538 22.4247 37.9582 22.4247H36.3823H36.2248L36.1879 22.5779L35.1807 26.7618C35.1806 26.7619 35.1806 26.7621 35.1805 26.7622C35.1207 27.0043 34.9798 27.2185 34.7813 27.3694C34.5827 27.5203 34.3384 27.5987 34.089 27.5914L34.089 27.5913H34.0832H28.9165V27.5913L28.9107 27.5914C28.6613 27.5987 28.417 27.5203 28.2183 27.3694C28.0198 27.2185 27.879 27.0043 27.8191 26.7622C27.8191 26.7621 27.8191 26.7619 27.819 26.7618L26.8118 22.5779ZM27.0183 30.7587C27.1979 30.6387 27.4089 30.5747 27.6248 30.5747C27.9144 30.5747 28.192 30.6897 28.3968 30.8944C28.6015 31.0991 28.7165 31.3768 28.7165 31.6663C28.7165 31.8823 28.6525 32.0933 28.5325 32.2728C28.4126 32.4524 28.2421 32.5923 28.0426 32.6749C27.8431 32.7575 27.6236 32.7792 27.4119 32.737C27.2001 32.6949 27.0056 32.5909 26.8529 32.4383C26.7002 32.2856 26.5963 32.0911 26.5541 31.8793C26.512 31.6676 26.5336 31.4481 26.6163 31.2486C26.6989 31.0491 26.8388 30.8786 27.0183 30.7587ZM17.8112 29.6028C18.016 29.398 18.2936 29.283 18.5832 29.283C18.8727 29.283 19.1504 29.398 19.3551 29.6028C19.5598 29.8075 19.6748 30.0851 19.6748 30.3747V32.958C19.6748 33.2475 19.5598 33.5252 19.3551 33.7299C19.1504 33.9347 18.8727 34.0497 18.5832 34.0497C18.2936 34.0497 18.016 33.9347 17.8112 33.7299C17.6065 33.5252 17.4915 33.2475 17.4915 32.958V30.3747C17.4915 30.0851 17.6065 29.8075 17.8112 29.6028ZM43.6446 29.6028C43.8493 29.398 44.127 29.283 44.4165 29.283C44.706 29.283 44.9837 29.398 45.1884 29.6028C45.3932 29.8075 45.5082 30.0851 45.5082 30.3747V32.958C45.5082 33.2475 45.3932 33.5252 45.1884 33.7299C44.9837 33.9347 44.706 34.0497 44.4165 34.0497C44.127 34.0497 43.8493 33.9347 43.6446 33.7299C43.4398 33.5252 43.3248 33.2475 43.3248 32.958V30.3747C43.3248 30.0851 43.4398 29.8075 43.6446 29.6028ZM34.7683 30.7587C34.9479 30.6387 35.1589 30.5747 35.3748 30.5747C35.6644 30.5747 35.942 30.6897 36.1468 30.8944C36.3515 31.0991 36.4665 31.3768 36.4665 31.6663C36.4665 31.8823 36.4025 32.0933 36.2825 32.2728C36.1626 32.4524 35.9921 32.5923 35.7926 32.6749C35.5931 32.7575 35.3736 32.7792 35.1619 32.737C34.9501 32.6949 34.7556 32.5909 34.6029 32.4383C34.4502 32.2856 34.3463 32.0911 34.3041 31.8793C34.262 31.6676 34.2836 31.4481 34.3663 31.2486C34.4489 31.0491 34.5888 30.8786 34.7683 30.7587Z" fill="#7D7D7D" stroke="white" stroke-width="0.4"/>
<path d="M59.424 37.928V17H61.296V37.928H59.424ZM76.5979 35V19.928H81.4459C83.1019 19.928 84.3659 20.348 85.2379 21.188C86.1179 22.02 86.5579 23.152 86.5579 24.584C86.5579 26 86.1179 27.124 85.2379 27.956C84.3659 28.78 83.1019 29.192 81.4459 29.192H78.4939V35H76.5979ZM78.4939 27.56H81.4459C82.4939 27.56 83.2859 27.292 83.8219 26.756C84.3659 26.22 84.6379 25.496 84.6379 24.584C84.6379 23.656 84.3659 22.916 83.8219 22.364C83.2859 21.812 82.4939 21.536 81.4459 21.536H78.4939V27.56ZM92.3349 35V19.928H97.5909C99.3109 19.928 100.611 20.34 101.491 21.164C102.379 21.98 102.823 23.056 102.823 24.392C102.823 25.712 102.379 26.784 101.491 27.608C100.611 28.424 99.3109 28.832 97.5909 28.832H94.2069V35H92.3349ZM100.783 35L96.4629 28.16H98.5029L103.207 35H100.783ZM94.2069 27.512H97.4469C98.5749 27.512 99.4309 27.236 100.015 26.684C100.607 26.124 100.903 25.4 100.903 24.512C100.903 23.6 100.619 22.876 100.051 22.34C99.4909 21.804 98.6709 21.536 97.5909 21.536H94.2069V27.512ZM114.758 35.288C113.51 35.288 112.394 35 111.41 34.424C110.426 33.848 109.65 32.984 109.082 31.832C108.514 30.672 108.23 29.224 108.23 27.488C108.23 25.728 108.514 24.272 109.082 23.12C109.65 21.96 110.426 21.096 111.41 20.528C112.394 19.952 113.51 19.664 114.758 19.664C116.006 19.664 117.122 19.952 118.106 20.528C119.09 21.104 119.866 21.972 120.434 23.132C121.002 24.292 121.286 25.744 121.286 27.488C121.286 29.24 121.002 30.696 120.434 31.856C119.866 33.008 119.09 33.868 118.106 34.436C117.122 35.004 116.006 35.288 114.758 35.288ZM114.758 33.56C116.174 33.56 117.29 33.044 118.106 32.012C118.93 30.98 119.342 29.464 119.342 27.464C119.342 25.504 118.93 23.996 118.106 22.94C117.29 21.876 116.174 21.344 114.758 21.344C113.358 21.344 112.242 21.876 111.41 22.94C110.586 24.004 110.174 25.52 110.174 27.488C110.174 29.48 110.586 30.992 111.41 32.024C112.242 33.048 113.358 33.56 114.758 33.56ZM127.322 19.928H130.01L135.194 30.344H135.002L140.186 19.928H142.802V35H140.906V21.872H141.242L135.722 33.104H134.474L128.978 21.944H129.194V35H127.322V19.928ZM149.995 35V19.928H154.843C156.499 19.928 157.763 20.348 158.635 21.188C159.515 22.02 159.955 23.152 159.955 24.584C159.955 26 159.515 27.124 158.635 27.956C157.763 28.78 156.499 29.192 154.843 29.192H151.891V35H149.995ZM151.891 27.56H154.843C155.891 27.56 156.683 27.292 157.219 26.756C157.763 26.22 158.035 25.496 158.035 24.584C158.035 23.656 157.763 22.916 157.219 22.364C156.683 21.812 155.891 21.536 154.843 21.536H151.891V27.56ZM163.452 21.536V19.928H175.188V21.536H169.824L170.244 21.104V35H168.372V21.104L168.792 21.536H163.452ZM188.251 35V19.928H193.507C195.227 19.928 196.527 20.34 197.407 21.164C198.295 21.98 198.739 23.056 198.739 24.392C198.739 25.712 198.295 26.784 197.407 27.608C196.527 28.424 195.227 28.832 193.507 28.832H190.123V35H188.251ZM196.699 35L192.379 28.16H194.419L199.123 35H196.699ZM190.123 27.512H193.363C194.491 27.512 195.347 27.236 195.931 26.684C196.523 26.124 196.819 25.4 196.819 24.512C196.819 23.6 196.535 22.876 195.967 22.34C195.407 21.804 194.587 21.536 193.507 21.536H190.123V27.512ZM205.322 35V19.928H214.61V21.536H207.194V26.6H214.178V28.208H207.194V33.368H214.61V35H205.322ZM226.55 35.288C225.302 35.288 224.186 35 223.202 34.424C222.218 33.848 221.442 32.984 220.874 31.832C220.306 30.672 220.022 29.224 220.022 27.488C220.022 25.728 220.306 24.272 220.874 23.12C221.442 21.96 222.218 21.096 223.202 20.528C224.186 19.952 225.302 19.664 226.55 19.664C227.798 19.664 228.914 19.952 229.898 20.528C230.882 21.104 231.658 21.972 232.226 23.132C232.794 24.292 233.078 25.744 233.078 27.488C233.078 29.24 232.794 30.696 232.226 31.856C231.658 33.008 230.882 33.868 229.898 34.436C228.914 35.004 227.798 35.288 226.55 35.288ZM231.062 39.008C230.358 39.008 229.722 38.824 229.154 38.456C228.586 38.096 228.062 37.568 227.582 36.872L226.022 34.64L227.702 34.112L229.094 36.104C229.358 36.464 229.63 36.716 229.91 36.86C230.198 37.012 230.478 37.096 230.75 37.112C231.174 37.112 231.566 37.056 231.926 36.944C232.286 36.832 232.67 36.68 233.078 36.488V38.552C232.718 38.704 232.374 38.816 232.046 38.888C231.718 38.968 231.39 39.008 231.062 39.008ZM226.55 33.56C227.966 33.56 229.082 33.044 229.898 32.012C230.722 30.98 231.134 29.464 231.134 27.464C231.134 25.504 230.722 23.996 229.898 22.94C229.082 21.876 227.966 21.344 226.55 21.344C225.15 21.344 224.034 21.876 223.202 22.94C222.378 24.004 221.966 25.52 221.966 27.488C221.966 29.48 222.378 30.992 223.202 32.024C224.034 33.048 225.15 33.56 226.55 33.56ZM238.919 19.928H240.791V29.552C240.791 30.968 241.147 31.992 241.859 32.624C242.571 33.248 243.503 33.56 244.655 33.56C245.799 33.56 246.723 33.248 247.427 32.624C248.139 31.992 248.495 30.968 248.495 29.552V19.928H250.367V29.552C250.367 30.816 250.131 31.876 249.659 32.732C249.195 33.58 248.535 34.22 247.679 34.652C246.823 35.076 245.815 35.288 244.655 35.288C243.495 35.288 242.483 35.076 241.619 34.652C240.763 34.22 240.099 33.58 239.627 32.732C239.155 31.876 238.919 30.816 238.919 29.552V19.928ZM257.311 35V19.928H266.599V21.536H259.183V26.6H266.167V28.208H259.183V33.368H266.599V35H257.311ZM278.036 35.288C277.028 35.288 276.104 35.108 275.264 34.748C274.424 34.38 273.748 33.84 273.236 33.128C272.724 32.416 272.46 31.536 272.444 30.488H274.268C274.268 31.192 274.44 31.772 274.784 32.228C275.128 32.676 275.584 33.012 276.152 33.236C276.72 33.452 277.34 33.56 278.012 33.56C278.74 33.56 279.372 33.444 279.908 33.212C280.444 32.98 280.856 32.676 281.144 32.3C281.44 31.916 281.588 31.496 281.588 31.04C281.588 30.4 281.392 29.884 281 29.492C280.608 29.092 280.028 28.768 279.26 28.52L276.596 27.584C275.348 27.136 274.404 26.624 273.764 26.048C273.124 25.472 272.804 24.664 272.804 23.624C272.804 22.456 273.252 21.504 274.148 20.768C275.052 20.032 276.332 19.664 277.988 19.664C279.524 19.664 280.724 20.02 281.588 20.732C282.452 21.436 282.948 22.384 283.076 23.576H281.228C281.108 22.88 280.78 22.34 280.244 21.956C279.716 21.564 278.964 21.368 277.988 21.368C276.996 21.368 276.224 21.588 275.672 22.028C275.12 22.468 274.844 23.024 274.844 23.696C274.844 24.248 275.016 24.688 275.36 25.016C275.712 25.336 276.26 25.624 277.004 25.88L280.124 26.96C281.204 27.32 282.056 27.824 282.68 28.472C283.312 29.12 283.628 29.96 283.628 30.992C283.628 31.792 283.412 32.516 282.98 33.164C282.556 33.812 281.928 34.328 281.096 34.712C280.264 35.096 279.244 35.288 278.036 35.288ZM287.839 21.536V19.928H299.575V21.536H294.211L294.631 21.104V35H292.759V21.104L293.179 21.536H287.839Z" fill="#7D7D7D"/>
</g>
<defs>
<filter id="filter0_d_7096_5763" x="0" y="0" width="320" height="62" filterUnits="userSpaceOnUse" color-interpolation-filters="sRGB">
<feFlood flood-opacity="0" result="BackgroundImageFix"/>
<feColorMatrix in="SourceAlpha" type="matrix" values="0 0 0 0 0 0 0 0 0 0 0 0 0 0 0 0 0 0 127 0" result="hardAlpha"/>
<feOffset dy="4"/>
<feGaussianBlur stdDeviation="3"/>
<feComposite in2="hardAlpha" operator="out"/>
<feColorMatrix type="matrix" values="0 0 0 0 0 0 0 0 0 0 0 0 0 0 0 0 0 0 0.05 0"/>
<feBlend mode="normal" in2="BackgroundImageFix" result="effect1_dropShadow_7096_5763"/>
<feBlend mode="normal" in="SourceGraphic" in2="effect1_dropShadow_7096_5763" result="shape"/>
</filter>
</defs>
</svg>
