<svg width="330" height="62" viewBox="0 0 330 62" fill="none" xmlns="http://www.w3.org/2000/svg">
<g filter="url(#filter0_d_7099_5766)">
<rect x="6.5" y="2.5" width="317" height="49" rx="11.5" fill="#FAFAFA" stroke="#B9B9B9"/>
<path d="M32.5915 20.0413V20.2413H32.7915H37.9582C38.9328 20.2413 39.8676 20.6285 40.5568 21.3177C41.246 22.0069 41.6332 22.9417 41.6332 23.9163V35.5413C41.6332 36.516 41.246 37.4508 40.5568 38.14C39.8676 38.8292 38.9328 39.2163 37.9582 39.2163H25.0415C24.0668 39.2163 23.1321 38.8292 22.4429 38.14C21.7537 37.4508 21.3665 36.516 21.3665 35.5413V23.9163C21.3665 22.9417 21.7537 22.0069 22.4429 21.3177C23.1321 20.6285 24.0668 20.2413 25.0415 20.2413H30.2082H30.4082V20.0413V18.388V18.2725L30.3082 18.2148C29.948 18.0068 29.6484 17.7082 29.4394 17.3487C29.2304 16.9893 29.1191 16.5815 29.1165 16.1658C29.1167 15.5339 29.3677 14.9279 29.8146 14.4811C30.2615 14.0341 30.8677 13.783 31.4998 13.783C32.1319 13.783 32.7381 14.0341 33.1851 14.4811C33.6319 14.9279 33.883 15.5339 33.8832 16.1658C33.8806 16.5815 33.7692 16.9893 33.5603 17.3487C33.3512 17.7082 33.0517 18.0068 32.6915 18.2148L32.5915 18.2725V18.388V20.0413ZM33.9155 22.6732L33.9777 22.4247H33.7215H29.2782H29.022L29.0841 22.6732L29.73 25.2565L29.7678 25.408H29.924H33.0757H33.2318L33.2697 25.2565L33.9155 22.6732ZM26.8118 22.5779L26.7749 22.4247H26.6173H25.0415C24.6459 22.4247 24.2665 22.5818 23.9867 22.8616C23.707 23.1413 23.5498 23.5207 23.5498 23.9163V35.5413C23.5498 35.937 23.707 36.3164 23.9867 36.5961C24.2665 36.8759 24.6459 37.033 25.0415 37.033H37.9582C38.3538 37.033 38.7332 36.8759 39.0129 36.5961C39.2927 36.3164 39.4498 35.937 39.4498 35.5413V23.9163C39.4498 23.5207 39.2927 23.1413 39.0129 22.8616C38.7332 22.5818 38.3538 22.4247 37.9582 22.4247H36.3823H36.2248L36.1879 22.5779L35.1807 26.7618C35.1806 26.7619 35.1806 26.7621 35.1805 26.7622C35.1207 27.0043 34.9798 27.2185 34.7813 27.3694C34.5827 27.5203 34.3384 27.5987 34.089 27.5914L34.089 27.5913H34.0832H28.9165V27.5913L28.9107 27.5914C28.6613 27.5987 28.417 27.5203 28.2183 27.3694C28.0198 27.2185 27.879 27.0043 27.8191 26.7622C27.8191 26.7621 27.8191 26.7619 27.819 26.7618L26.8118 22.5779ZM27.0183 30.7587C27.1979 30.6387 27.4089 30.5747 27.6248 30.5747C27.9144 30.5747 28.192 30.6897 28.3968 30.8944C28.6015 31.0991 28.7165 31.3768 28.7165 31.6663C28.7165 31.8823 28.6525 32.0933 28.5325 32.2728C28.4126 32.4524 28.2421 32.5923 28.0426 32.6749C27.8431 32.7575 27.6236 32.7792 27.4119 32.737C27.2001 32.6949 27.0056 32.5909 26.8529 32.4383C26.7002 32.2856 26.5963 32.0911 26.5541 31.8793C26.512 31.6676 26.5336 31.4481 26.6163 31.2486C26.6989 31.0491 26.8388 30.8786 27.0183 30.7587ZM17.8112 29.6028C18.016 29.398 18.2936 29.283 18.5832 29.283C18.8727 29.283 19.1504 29.398 19.3551 29.6028C19.5598 29.8075 19.6748 30.0851 19.6748 30.3747V32.958C19.6748 33.2475 19.5598 33.5252 19.3551 33.7299C19.1504 33.9347 18.8727 34.0497 18.5832 34.0497C18.2936 34.0497 18.016 33.9347 17.8112 33.7299C17.6065 33.5252 17.4915 33.2475 17.4915 32.958V30.3747C17.4915 30.0851 17.6065 29.8075 17.8112 29.6028ZM43.6446 29.6028C43.8493 29.398 44.127 29.283 44.4165 29.283C44.706 29.283 44.9837 29.398 45.1884 29.6028C45.3932 29.8075 45.5082 30.0851 45.5082 30.3747V32.958C45.5082 33.2475 45.3932 33.5252 45.1884 33.7299C44.9837 33.9347 44.706 34.0497 44.4165 34.0497C44.127 34.0497 43.8493 33.9347 43.6446 33.7299C43.4398 33.5252 43.3248 33.2475 43.3248 32.958V30.3747C43.3248 30.0851 43.4398 29.8075 43.6446 29.6028ZM34.7683 30.7587C34.9479 30.6387 35.1589 30.5747 35.3748 30.5747C35.6644 30.5747 35.942 30.6897 36.1468 30.8944C36.3515 31.0991 36.4665 31.3768 36.4665 31.6663C36.4665 31.8823 36.4025 32.0933 36.2825 32.2728C36.1626 32.4524 35.9921 32.5923 35.7926 32.6749C35.5931 32.7575 35.3736 32.7792 35.1619 32.737C34.9501 32.6949 34.7556 32.5909 34.6029 32.4383C34.4502 32.2856 34.3463 32.0911 34.3041 31.8793C34.262 31.6676 34.2836 31.4481 34.3663 31.2486C34.4489 31.0491 34.5888 30.8786 34.7683 30.7587Z" fill="#7D7D7D" stroke="white" stroke-width="0.4"/>
<path d="M59.424 37.928V17H61.296V37.928H59.424ZM78.5179 19.928V33.368H85.2379V35H76.6459V19.928H78.5179ZM95.6004 35.288C94.3524 35.288 93.2364 35 92.2524 34.424C91.2684 33.848 90.4924 32.984 89.9244 31.832C89.3564 30.672 89.0724 29.224 89.0724 27.488C89.0724 25.728 89.3564 24.272 89.9244 23.12C90.4924 21.96 91.2684 21.096 92.2524 20.528C93.2364 19.952 94.3524 19.664 95.6004 19.664C96.8484 19.664 97.9644 19.952 98.9484 20.528C99.9324 21.104 100.708 21.972 101.276 23.132C101.844 24.292 102.128 25.744 102.128 27.488C102.128 29.24 101.844 30.696 101.276 31.856C100.708 33.008 99.9324 33.868 98.9484 34.436C97.9644 35.004 96.8484 35.288 95.6004 35.288ZM95.6004 33.56C97.0164 33.56 98.1324 33.044 98.9484 32.012C99.7724 30.98 100.184 29.464 100.184 27.464C100.184 25.504 99.7724 23.996 98.9484 22.94C98.1324 21.876 97.0164 21.344 95.6004 21.344C94.2004 21.344 93.0844 21.876 92.2524 22.94C91.4284 24.004 91.0164 25.52 91.0164 27.488C91.0164 29.48 91.4284 30.992 92.2524 32.024C93.0844 33.048 94.2004 33.56 95.6004 33.56ZM113.397 35.288C112.069 35.288 110.925 34.956 109.965 34.292C109.005 33.62 108.265 32.692 107.745 31.508C107.225 30.316 106.965 28.936 106.965 27.368C106.965 25.696 107.245 24.288 107.805 23.144C108.373 22 109.141 21.136 110.109 20.552C111.085 19.96 112.181 19.664 113.397 19.664C115.005 19.664 116.297 20.068 117.273 20.876C118.257 21.676 118.933 22.72 119.301 24.008L117.285 24.416C116.973 23.48 116.473 22.736 115.785 22.184C115.105 21.624 114.309 21.344 113.397 21.344C112.605 21.344 111.873 21.572 111.201 22.028C110.537 22.476 110.001 23.148 109.593 24.044C109.185 24.94 108.981 26.048 108.981 27.368C108.981 28.568 109.141 29.636 109.461 30.572C109.789 31.508 110.277 32.244 110.925 32.78C111.581 33.316 112.405 33.584 113.397 33.584C114.589 33.584 115.533 33.264 116.229 32.624C116.933 31.984 117.285 31.144 117.285 30.104H119.325C119.325 31.184 119.077 32.112 118.581 32.888C118.085 33.656 117.389 34.248 116.493 34.664C115.605 35.08 114.573 35.288 113.397 35.288ZM123.483 35L128.667 19.928H130.947L136.011 35H134.043L132.771 31.136H126.771L125.451 35H123.483ZM127.251 29.672H132.291L129.771 22.208L127.251 29.672ZM138.2 21.536V19.928H149.936V21.536H144.572L144.992 21.104V35H143.12V21.104L143.54 21.536H138.2ZM154.904 35V19.928H156.776V35H154.904ZM169.358 35.288C168.11 35.288 166.994 35 166.01 34.424C165.026 33.848 164.25 32.984 163.682 31.832C163.114 30.672 162.83 29.224 162.83 27.488C162.83 25.728 163.114 24.272 163.682 23.12C164.25 21.96 165.026 21.096 166.01 20.528C166.994 19.952 168.11 19.664 169.358 19.664C170.606 19.664 171.722 19.952 172.706 20.528C173.69 21.104 174.466 21.972 175.034 23.132C175.602 24.292 175.886 25.744 175.886 27.488C175.886 29.24 175.602 30.696 175.034 31.856C174.466 33.008 173.69 33.868 172.706 34.436C171.722 35.004 170.606 35.288 169.358 35.288ZM169.358 33.56C170.774 33.56 171.89 33.044 172.706 32.012C173.53 30.98 173.942 29.464 173.942 27.464C173.942 25.504 173.53 23.996 172.706 22.94C171.89 21.876 170.774 21.344 169.358 21.344C167.958 21.344 166.842 21.876 166.01 22.94C165.186 24.004 164.774 25.52 164.774 27.488C164.774 29.48 165.186 30.992 166.01 32.024C166.842 33.048 167.958 33.56 169.358 33.56ZM181.898 19.928H184.13L191.786 32.336H191.618V19.928H193.49V35H191.402L183.482 22.184H183.77V35H181.898V19.928ZM208.824 35V19.928H210.696V35H208.824ZM217.927 19.928H220.159L227.815 32.336H227.647V19.928H229.519V35H227.431L219.511 22.184H219.799V35H217.927V19.928ZM236.757 35V19.928H245.925V21.536H238.629V26.552H245.421V28.16H238.629V35H236.757ZM257.071 35.288C255.823 35.288 254.707 35 253.723 34.424C252.739 33.848 251.963 32.984 251.395 31.832C250.827 30.672 250.543 29.224 250.543 27.488C250.543 25.728 250.827 24.272 251.395 23.12C251.963 21.96 252.739 21.096 253.723 20.528C254.707 19.952 255.823 19.664 257.071 19.664C258.319 19.664 259.435 19.952 260.419 20.528C261.403 21.104 262.179 21.972 262.747 23.132C263.315 24.292 263.599 25.744 263.599 27.488C263.599 29.24 263.315 30.696 262.747 31.856C262.179 33.008 261.403 33.868 260.419 34.436C259.435 35.004 258.319 35.288 257.071 35.288ZM257.071 33.56C258.487 33.56 259.603 33.044 260.419 32.012C261.243 30.98 261.655 29.464 261.655 27.464C261.655 25.504 261.243 23.996 260.419 22.94C259.603 21.876 258.487 21.344 257.071 21.344C255.671 21.344 254.555 21.876 253.723 22.94C252.899 24.004 252.487 25.52 252.487 27.488C252.487 29.48 252.899 30.992 253.723 32.024C254.555 33.048 255.671 33.56 257.071 33.56ZM269.635 35V19.928H274.891C276.611 19.928 277.911 20.34 278.791 21.164C279.679 21.98 280.123 23.056 280.123 24.392C280.123 25.712 279.679 26.784 278.791 27.608C277.911 28.424 276.611 28.832 274.891 28.832H271.507V35H269.635ZM278.083 35L273.763 28.16H275.803L280.507 35H278.083ZM271.507 27.512H274.747C275.875 27.512 276.731 27.236 277.315 26.684C277.907 26.124 278.203 25.4 278.203 24.512C278.203 23.6 277.919 22.876 277.351 22.34C276.791 21.804 275.971 21.536 274.891 21.536H271.507V27.512ZM286.73 19.928H289.418L294.602 30.344H294.41L299.594 19.928H302.21V35H300.314V21.872H300.65L295.13 33.104H293.882L288.386 21.944H288.602V35H286.73V19.928ZM307.747 33.884C307.747 33.508 307.879 33.184 308.143 32.912C308.407 32.64 308.739 32.504 309.139 32.504C309.539 32.504 309.879 32.64 310.159 32.912C310.439 33.184 310.579 33.508 310.579 33.884C310.579 34.26 310.439 34.576 310.159 34.832C309.879 35.088 309.539 35.216 309.139 35.216C308.739 35.216 308.407 35.088 308.143 34.832C307.879 34.568 307.747 34.252 307.747 33.884Z" fill="#7D7D7D"/>
</g>
<defs>
<filter id="filter0_d_7099_5766" x="0" y="0" width="330" height="62" filterUnits="userSpaceOnUse" color-interpolation-filters="sRGB">
<feFlood flood-opacity="0" result="BackgroundImageFix"/>
<feColorMatrix in="SourceAlpha" type="matrix" values="0 0 0 0 0 0 0 0 0 0 0 0 0 0 0 0 0 0 127 0" result="hardAlpha"/>
<feOffset dy="4"/>
<feGaussianBlur stdDeviation="3"/>
<feComposite in2="hardAlpha" operator="out"/>
<feColorMatrix type="matrix" values="0 0 0 0 0 0 0 0 0 0 0 0 0 0 0 0 0 0 0.05 0"/>
<feBlend mode="normal" in2="BackgroundImageFix" result="effect1_dropShadow_7099_5766"/>
<feBlend mode="normal" in="SourceGraphic" in2="effect1_dropShadow_7099_5766" result="shape"/>
</filter>
</defs>
</svg>
