<svg width="330" height="62" viewBox="0 0 330 62" fill="none" xmlns="http://www.w3.org/2000/svg">
<g filter="url(#filter0_d_7095_5705)">
<rect x="6.5" y="2.5" width="317" height="49" rx="11.5" fill="#FAFAFA" stroke="#B9B9B9"/>
<path d="M32.5915 20.0413V20.2413H32.7915H37.9582C38.9328 20.2413 39.8676 20.6285 40.5568 21.3177C41.246 22.0069 41.6332 22.9417 41.6332 23.9163V35.5413C41.6332 36.516 41.246 37.4508 40.5568 38.14C39.8676 38.8292 38.9328 39.2163 37.9582 39.2163H25.0415C24.0668 39.2163 23.1321 38.8292 22.4429 38.14C21.7537 37.4508 21.3665 36.516 21.3665 35.5413V23.9163C21.3665 22.9417 21.7537 22.0069 22.4429 21.3177C23.1321 20.6285 24.0668 20.2413 25.0415 20.2413H30.2082H30.4082V20.0413V18.388V18.2725L30.3082 18.2148C29.948 18.0068 29.6484 17.7082 29.4394 17.3487C29.2304 16.9893 29.1191 16.5815 29.1165 16.1658C29.1167 15.5339 29.3677 14.9279 29.8146 14.4811C30.2615 14.0341 30.8677 13.783 31.4998 13.783C32.1319 13.783 32.7381 14.0341 33.1851 14.4811C33.6319 14.9279 33.883 15.5339 33.8832 16.1658C33.8806 16.5815 33.7692 16.9893 33.5603 17.3487C33.3512 17.7082 33.0517 18.0068 32.6915 18.2148L32.5915 18.2725V18.388V20.0413ZM33.9155 22.6732L33.9777 22.4247H33.7215H29.2782H29.022L29.0841 22.6732L29.73 25.2565L29.7678 25.408H29.924H33.0757H33.2318L33.2697 25.2565L33.9155 22.6732ZM26.8118 22.5779L26.7749 22.4247H26.6173H25.0415C24.6459 22.4247 24.2665 22.5818 23.9867 22.8616C23.707 23.1413 23.5498 23.5207 23.5498 23.9163V35.5413C23.5498 35.937 23.707 36.3164 23.9867 36.5961C24.2665 36.8759 24.6459 37.033 25.0415 37.033H37.9582C38.3538 37.033 38.7332 36.8759 39.0129 36.5961C39.2927 36.3164 39.4498 35.937 39.4498 35.5413V23.9163C39.4498 23.5207 39.2927 23.1413 39.0129 22.8616C38.7332 22.5818 38.3538 22.4247 37.9582 22.4247H36.3823H36.2248L36.1879 22.5779L35.1807 26.7618C35.1806 26.7619 35.1806 26.7621 35.1805 26.7622C35.1207 27.0043 34.9798 27.2185 34.7813 27.3694C34.5827 27.5203 34.3384 27.5987 34.089 27.5914L34.089 27.5913H34.0832H28.9165V27.5913L28.9107 27.5914C28.6613 27.5987 28.417 27.5203 28.2183 27.3694C28.0198 27.2185 27.879 27.0043 27.8191 26.7622C27.8191 26.7621 27.8191 26.7619 27.819 26.7618L26.8118 22.5779ZM27.0183 30.7587C27.1979 30.6387 27.4089 30.5747 27.6248 30.5747C27.9144 30.5747 28.192 30.6897 28.3968 30.8944C28.6015 31.0991 28.7165 31.3768 28.7165 31.6663C28.7165 31.8823 28.6525 32.0933 28.5325 32.2728C28.4126 32.4524 28.2421 32.5923 28.0426 32.6749C27.8431 32.7575 27.6236 32.7792 27.4119 32.737C27.2001 32.6949 27.0056 32.5909 26.8529 32.4383C26.7002 32.2856 26.5963 32.0911 26.5541 31.8793C26.512 31.6676 26.5336 31.4481 26.6163 31.2486C26.6989 31.0491 26.8388 30.8786 27.0183 30.7587ZM17.8112 29.6028C18.016 29.398 18.2936 29.283 18.5832 29.283C18.8727 29.283 19.1504 29.398 19.3551 29.6028C19.5598 29.8075 19.6748 30.0851 19.6748 30.3747V32.958C19.6748 33.2475 19.5598 33.5252 19.3551 33.7299C19.1504 33.9347 18.8727 34.0497 18.5832 34.0497C18.2936 34.0497 18.016 33.9347 17.8112 33.7299C17.6065 33.5252 17.4915 33.2475 17.4915 32.958V30.3747C17.4915 30.0851 17.6065 29.8075 17.8112 29.6028ZM43.6446 29.6028C43.8493 29.398 44.127 29.283 44.4165 29.283C44.706 29.283 44.9837 29.398 45.1884 29.6028C45.3932 29.8075 45.5082 30.0851 45.5082 30.3747V32.958C45.5082 33.2475 45.3932 33.5252 45.1884 33.7299C44.9837 33.9347 44.706 34.0497 44.4165 34.0497C44.127 34.0497 43.8493 33.9347 43.6446 33.7299C43.4398 33.5252 43.3248 33.2475 43.3248 32.958V30.3747C43.3248 30.0851 43.4398 29.8075 43.6446 29.6028ZM34.7683 30.7587C34.9479 30.6387 35.1589 30.5747 35.3748 30.5747C35.6644 30.5747 35.942 30.6897 36.1468 30.8944C36.3515 31.0991 36.4665 31.3768 36.4665 31.6663C36.4665 31.8823 36.4025 32.0933 36.2825 32.2728C36.1626 32.4524 35.9921 32.5923 35.7926 32.6749C35.5931 32.7575 35.3736 32.7792 35.1619 32.737C34.9501 32.6949 34.7556 32.5909 34.6029 32.4383C34.4502 32.2856 34.3463 32.0911 34.3041 31.8793C34.262 31.6676 34.2836 31.4481 34.3663 31.2486C34.4489 31.0491 34.5888 30.8786 34.7683 30.7587Z" fill="#7D7D7D" stroke="white" stroke-width="0.4"/>
<path d="M59.424 37.928V17H61.296V37.928H59.424ZM81.8779 35.288C80.5499 35.288 79.4059 34.956 78.4459 34.292C77.4859 33.62 76.7459 32.692 76.2259 31.508C75.7059 30.316 75.4459 28.936 75.4459 27.368C75.4459 25.696 75.7259 24.288 76.2859 23.144C76.8539 22 77.6219 21.136 78.5899 20.552C79.5659 19.96 80.6619 19.664 81.8779 19.664C83.4859 19.664 84.7779 20.068 85.7539 20.876C86.7379 21.676 87.4139 22.72 87.7819 24.008L85.7659 24.416C85.4539 23.48 84.9539 22.736 84.2659 22.184C83.5859 21.624 82.7899 21.344 81.8779 21.344C81.0859 21.344 80.3539 21.572 79.6819 22.028C79.0179 22.476 78.4819 23.148 78.0739 24.044C77.6659 24.94 77.4619 26.048 77.4619 27.368C77.4619 28.568 77.6219 29.636 77.9419 30.572C78.2699 31.508 78.7579 32.244 79.4059 32.78C80.0619 33.316 80.8859 33.584 81.8779 33.584C83.0699 33.584 84.0139 33.264 84.7099 32.624C85.4139 31.984 85.7659 31.144 85.7659 30.104H87.8059C87.8059 31.184 87.5579 32.112 87.0619 32.888C86.5659 33.656 85.8699 34.248 84.9739 34.664C84.0859 35.08 83.0539 35.288 81.8779 35.288ZM99.0926 35.288C97.8446 35.288 96.7286 35 95.7446 34.424C94.7606 33.848 93.9846 32.984 93.4166 31.832C92.8486 30.672 92.5646 29.224 92.5646 27.488C92.5646 25.728 92.8486 24.272 93.4166 23.12C93.9846 21.96 94.7606 21.096 95.7446 20.528C96.7286 19.952 97.8446 19.664 99.0926 19.664C100.341 19.664 101.457 19.952 102.441 20.528C103.425 21.104 104.201 21.972 104.769 23.132C105.337 24.292 105.621 25.744 105.621 27.488C105.621 29.24 105.337 30.696 104.769 31.856C104.201 33.008 103.425 33.868 102.441 34.436C101.457 35.004 100.341 35.288 99.0926 35.288ZM99.0926 33.56C100.509 33.56 101.625 33.044 102.441 32.012C103.265 30.98 103.677 29.464 103.677 27.464C103.677 25.504 103.265 23.996 102.441 22.94C101.625 21.876 100.509 21.344 99.0926 21.344C97.6926 21.344 96.5766 21.876 95.7446 22.94C94.9206 24.004 94.5086 25.52 94.5086 27.488C94.5086 29.48 94.9206 30.992 95.7446 32.024C96.5766 33.048 97.6926 33.56 99.0926 33.56ZM111.633 19.928H113.865L121.521 32.336H121.353V19.928H123.225V35H121.137L113.217 22.184H113.505V35H111.633V19.928ZM128.183 21.536V19.928H139.919V21.536H134.555L134.975 21.104V35H133.103V21.104L133.523 21.536H128.183ZM144.863 35V19.928H154.151V21.536H146.735V26.6H153.719V28.208H146.735V33.368H154.151V35H144.863ZM160.739 19.928H162.971L170.627 32.336H170.459V19.928H172.331V35H170.243L162.323 22.184H162.611V35H160.739V19.928ZM177.289 21.536V19.928H189.025V21.536H183.661L184.081 21.104V35H182.209V21.104L182.629 21.536H177.289ZM203.96 19.928V33.368H210.68V35H202.088V19.928H203.96ZM221.043 35.288C219.795 35.288 218.679 35 217.695 34.424C216.711 33.848 215.935 32.984 215.367 31.832C214.799 30.672 214.515 29.224 214.515 27.488C214.515 25.728 214.799 24.272 215.367 23.12C215.935 21.96 216.711 21.096 217.695 20.528C218.679 19.952 219.795 19.664 221.043 19.664C222.291 19.664 223.407 19.952 224.391 20.528C225.375 21.104 226.151 21.972 226.719 23.132C227.287 24.292 227.571 25.744 227.571 27.488C227.571 29.24 227.287 30.696 226.719 31.856C226.151 33.008 225.375 33.868 224.391 34.436C223.407 35.004 222.291 35.288 221.043 35.288ZM221.043 33.56C222.459 33.56 223.575 33.044 224.391 32.012C225.215 30.98 225.627 29.464 225.627 27.464C225.627 25.504 225.215 23.996 224.391 22.94C223.575 21.876 222.459 21.344 221.043 21.344C219.643 21.344 218.527 21.876 217.695 22.94C216.871 24.004 216.459 25.52 216.459 27.488C216.459 29.48 216.871 30.992 217.695 32.024C218.527 33.048 219.643 33.56 221.043 33.56ZM238.839 35.288C237.511 35.288 236.367 34.956 235.407 34.292C234.447 33.62 233.707 32.692 233.187 31.508C232.667 30.316 232.407 28.936 232.407 27.368C232.407 25.696 232.687 24.288 233.247 23.144C233.815 22 234.583 21.136 235.551 20.552C236.527 19.96 237.623 19.664 238.839 19.664C240.447 19.664 241.739 20.068 242.715 20.876C243.699 21.676 244.375 22.72 244.743 24.008L242.727 24.416C242.415 23.48 241.915 22.736 241.227 22.184C240.547 21.624 239.751 21.344 238.839 21.344C238.047 21.344 237.315 21.572 236.643 22.028C235.979 22.476 235.443 23.148 235.035 24.044C234.627 24.94 234.423 26.048 234.423 27.368C234.423 28.568 234.583 29.636 234.903 30.572C235.231 31.508 235.719 32.244 236.367 32.78C237.023 33.316 237.847 33.584 238.839 33.584C240.031 33.584 240.975 33.264 241.671 32.624C242.375 31.984 242.727 31.144 242.727 30.104H244.767C244.767 31.184 244.519 32.112 244.023 32.888C243.527 33.656 242.831 34.248 241.935 34.664C241.047 35.08 240.015 35.288 238.839 35.288ZM248.926 35L254.11 19.928H256.39L261.454 35H259.486L258.214 31.136H252.214L250.894 35H248.926ZM252.694 29.672H257.734L255.214 22.208L252.694 29.672ZM268.779 19.928V33.368H275.499V35H266.907V19.928H268.779ZM280.533 35V19.928H282.405V35H280.533ZM288.988 35V33.32L298.228 21.008V21.704L288.988 21.632V19.928H300.052V21.608L291.1 33.536L290.956 33.224L300.052 33.296V35H288.988ZM304.559 33.884C304.559 33.508 304.691 33.184 304.955 32.912C305.219 32.64 305.551 32.504 305.951 32.504C306.351 32.504 306.691 32.64 306.971 32.912C307.251 33.184 307.391 33.508 307.391 33.884C307.391 34.26 307.251 34.576 306.971 34.832C306.691 35.088 306.351 35.216 305.951 35.216C305.551 35.216 305.219 35.088 304.955 34.832C304.691 34.568 304.559 34.252 304.559 33.884Z" fill="#7D7D7D"/>
</g>
<defs>
<filter id="filter0_d_7095_5705" x="0" y="0" width="330" height="62" filterUnits="userSpaceOnUse" color-interpolation-filters="sRGB">
<feFlood flood-opacity="0" result="BackgroundImageFix"/>
<feColorMatrix in="SourceAlpha" type="matrix" values="0 0 0 0 0 0 0 0 0 0 0 0 0 0 0 0 0 0 127 0" result="hardAlpha"/>
<feOffset dy="4"/>
<feGaussianBlur stdDeviation="3"/>
<feComposite in2="hardAlpha" operator="out"/>
<feColorMatrix type="matrix" values="0 0 0 0 0 0 0 0 0 0 0 0 0 0 0 0 0 0 0.05 0"/>
<feBlend mode="normal" in2="BackgroundImageFix" result="effect1_dropShadow_7095_5705"/>
<feBlend mode="normal" in="SourceGraphic" in2="effect1_dropShadow_7095_5705" result="shape"/>
</filter>
</defs>
</svg>
