<svg width="340" height="62" viewBox="0 0 340 62" fill="none" xmlns="http://www.w3.org/2000/svg">
<g filter="url(#filter0_d_7051_5670)">
<rect x="6.5" y="2.5" width="327" height="49" rx="11.5" fill="#FBFBFB" stroke="#B9B9B9"/>
<path d="M32.5916 20.0413V20.2413H32.7916H37.9583C38.933 20.2413 39.8677 20.6285 40.5569 21.3177C41.2461 22.0069 41.6333 22.9417 41.6333 23.9163V35.5413C41.6333 36.516 41.2461 37.4508 40.5569 38.14C39.8677 38.8292 38.933 39.2163 37.9583 39.2163H25.0416C24.067 39.2163 23.1322 38.8292 22.443 38.14C21.7538 37.4508 21.3666 36.516 21.3666 35.5413V23.9163C21.3666 22.9417 21.7538 22.0069 22.443 21.3177C23.1322 20.6285 24.067 20.2413 25.0416 20.2413H30.2083H30.4083V20.0413V18.388V18.2725L30.3083 18.2148C29.9481 18.0068 29.6486 17.7082 29.4395 17.3487C29.2306 16.9893 29.1192 16.5815 29.1166 16.1658C29.1168 15.5339 29.3679 14.9279 29.8147 14.4811C30.2617 14.0341 30.8679 13.783 31.5 13.783C32.1321 13.783 32.7383 14.0341 33.1852 14.4811C33.6321 14.9279 33.8831 15.5339 33.8833 16.1658C33.8807 16.5815 33.7694 16.9893 33.5604 17.3487C33.3514 17.7082 33.0518 18.0068 32.6916 18.2148L32.5916 18.2725V18.388V20.0413ZM33.9157 22.6732L33.9778 22.4247H33.7216H29.2783H29.0221L29.0843 22.6732L29.7301 25.2565L29.768 25.408H29.9241H33.0758H33.2319L33.2698 25.2565L33.9157 22.6732ZM26.8119 22.5779L26.775 22.4247H26.6175H25.0416C24.646 22.4247 24.2666 22.5818 23.9869 22.8616C23.7071 23.1413 23.55 23.5207 23.55 23.9163V35.5413C23.55 35.937 23.7071 36.3164 23.9869 36.5961C24.2666 36.8759 24.646 37.033 25.0416 37.033H37.9583C38.3539 37.033 38.7333 36.8759 39.0131 36.5961C39.2928 36.3164 39.45 35.937 39.45 35.5413V23.9163C39.45 23.5207 39.2928 23.1413 39.0131 22.8616C38.7333 22.5818 38.3539 22.4247 37.9583 22.4247H36.3825H36.2249L36.188 22.5779L35.1808 26.7618C35.1807 26.7619 35.1807 26.7621 35.1807 26.7622C35.1208 27.0043 34.98 27.2185 34.7815 27.3694C34.5828 27.5203 34.3385 27.5987 34.0891 27.5914L34.0891 27.5913H34.0833H28.9166V27.5913L28.9108 27.5914C28.6614 27.5987 28.4171 27.5203 28.2185 27.3694C28.02 27.2185 27.8791 27.0043 27.8193 26.7622C27.8192 26.7621 27.8192 26.7619 27.8191 26.7618L26.8119 22.5779ZM27.0185 30.7587C27.198 30.6387 27.409 30.5747 27.625 30.5747C27.9145 30.5747 28.1922 30.6897 28.3969 30.8944C28.6016 31.0991 28.7166 31.3768 28.7166 31.6663C28.7166 31.8823 28.6526 32.0933 28.5326 32.2728C28.4127 32.4524 28.2422 32.5923 28.0427 32.6749C27.8432 32.7575 27.6237 32.7792 27.412 32.737C27.2002 32.6949 27.0057 32.5909 26.853 32.4383C26.7004 32.2856 26.5964 32.0911 26.5543 31.8793C26.5121 31.6676 26.5338 31.4481 26.6164 31.2486C26.699 31.0491 26.8389 30.8786 27.0185 30.7587ZM17.8114 29.6028C18.0161 29.398 18.2938 29.283 18.5833 29.283C18.8728 29.283 19.1505 29.398 19.3552 29.6028C19.5599 29.8075 19.675 30.0851 19.675 30.3747V32.958C19.675 33.2475 19.5599 33.5252 19.3552 33.7299C19.1505 33.9347 18.8728 34.0497 18.5833 34.0497C18.2938 34.0497 18.0161 33.9347 17.8114 33.7299C17.6066 33.5252 17.4916 33.2475 17.4916 32.958V30.3747C17.4916 30.0851 17.6066 29.8075 17.8114 29.6028ZM43.6447 29.6028C43.8494 29.398 44.1271 29.283 44.4166 29.283C44.7062 29.283 44.9838 29.398 45.1886 29.6028C45.3933 29.8075 45.5083 30.0851 45.5083 30.3747V32.958C45.5083 33.2475 45.3933 33.5252 45.1886 33.7299C44.9838 33.9347 44.7062 34.0497 44.4166 34.0497C44.1271 34.0497 43.8494 33.9347 43.6447 33.7299C43.44 33.5252 43.325 33.2475 43.325 32.958V30.3747C43.325 30.0851 43.44 29.8075 43.6447 29.6028ZM34.7685 30.7587C34.948 30.6387 35.159 30.5747 35.375 30.5747C35.6645 30.5747 35.9422 30.6897 36.1469 30.8944C36.3516 31.0991 36.4666 31.3768 36.4666 31.6663C36.4666 31.8823 36.4026 32.0933 36.2826 32.2728C36.1627 32.4524 35.9922 32.5923 35.7927 32.6749C35.5932 32.7575 35.3737 32.7792 35.162 32.737C34.9502 32.6949 34.7557 32.5909 34.603 32.4383C34.4504 32.2856 34.3464 32.0911 34.3043 31.8793C34.2621 31.6676 34.2838 31.4481 34.3664 31.2486C34.449 31.0491 34.5889 30.8786 34.7685 30.7587Z" fill="#7D7D7D" stroke="white" stroke-width="0.4"/>
<path d="M59.424 37.928V17H61.296V37.928H59.424ZM81.4699 35.288C80.4619 35.288 79.5379 35.108 78.6979 34.748C77.8579 34.38 77.1819 33.84 76.6699 33.128C76.1579 32.416 75.8939 31.536 75.8779 30.488H77.7019C77.7019 31.192 77.8739 31.772 78.2179 32.228C78.5619 32.676 79.0179 33.012 79.5859 33.236C80.1539 33.452 80.7739 33.56 81.4459 33.56C82.1739 33.56 82.8059 33.444 83.3419 33.212C83.8779 32.98 84.2899 32.676 84.5779 32.3C84.8739 31.916 85.0219 31.496 85.0219 31.04C85.0219 30.4 84.8259 29.884 84.4339 29.492C84.0419 29.092 83.4619 28.768 82.6939 28.52L80.0299 27.584C78.7819 27.136 77.8379 26.624 77.1979 26.048C76.5579 25.472 76.2379 24.664 76.2379 23.624C76.2379 22.456 76.6859 21.504 77.5819 20.768C78.4859 20.032 79.7659 19.664 81.4219 19.664C82.9579 19.664 84.1579 20.02 85.0219 20.732C85.8859 21.436 86.3819 22.384 86.5099 23.576H84.6619C84.5419 22.88 84.2139 22.34 83.6779 21.956C83.1499 21.564 82.3979 21.368 81.4219 21.368C80.4299 21.368 79.6579 21.588 79.1059 22.028C78.5539 22.468 78.2779 23.024 78.2779 23.696C78.2779 24.248 78.4499 24.688 78.7939 25.016C79.1459 25.336 79.6939 25.624 80.4379 25.88L83.5579 26.96C84.6379 27.32 85.4899 27.824 86.1139 28.472C86.7459 29.12 87.0619 29.96 87.0619 30.992C87.0619 31.792 86.8459 32.516 86.4139 33.164C85.9899 33.812 85.3619 34.328 84.5299 34.712C83.6979 35.096 82.6779 35.288 81.4699 35.288ZM93.5537 35V19.928H95.4257V35H93.5537ZM102.68 19.928H105.368L110.552 30.344H110.36L115.544 19.928H118.16V35H116.264V21.872H116.6L111.08 33.104H109.832L104.336 21.944H104.552V35H102.68V19.928ZM125.353 35V19.928H130.201C131.857 19.928 133.121 20.348 133.993 21.188C134.873 22.02 135.313 23.152 135.313 24.584C135.313 26 134.873 27.124 133.993 27.956C133.121 28.78 131.857 29.192 130.201 29.192H127.249V35H125.353ZM127.249 27.56H130.201C131.249 27.56 132.041 27.292 132.577 26.756C133.121 26.22 133.393 25.496 133.393 24.584C133.393 23.656 133.121 22.916 132.577 22.364C132.041 21.812 131.249 21.536 130.201 21.536H127.249V27.56ZM142.962 19.928V33.368H149.682V35H141.09V19.928H142.962ZM154.692 35V19.928H163.98V21.536H156.564V26.6H163.548V28.208H156.564V33.368H163.98V35H154.692ZM183.512 35.288C182.504 35.288 181.58 35.108 180.74 34.748C179.9 34.38 179.224 33.84 178.712 33.128C178.2 32.416 177.936 31.536 177.92 30.488H179.744C179.744 31.192 179.916 31.772 180.26 32.228C180.604 32.676 181.06 33.012 181.628 33.236C182.196 33.452 182.816 33.56 183.488 33.56C184.216 33.56 184.848 33.444 185.384 33.212C185.92 32.98 186.332 32.676 186.62 32.3C186.916 31.916 187.064 31.496 187.064 31.04C187.064 30.4 186.868 29.884 186.476 29.492C186.084 29.092 185.504 28.768 184.736 28.52L182.072 27.584C180.824 27.136 179.88 26.624 179.24 26.048C178.6 25.472 178.28 24.664 178.28 23.624C178.28 22.456 178.728 21.504 179.624 20.768C180.528 20.032 181.808 19.664 183.464 19.664C185 19.664 186.2 20.02 187.064 20.732C187.928 21.436 188.424 22.384 188.552 23.576H186.704C186.584 22.88 186.256 22.34 185.72 21.956C185.192 21.564 184.44 21.368 183.464 21.368C182.472 21.368 181.7 21.588 181.148 22.028C180.596 22.468 180.32 23.024 180.32 23.696C180.32 24.248 180.492 24.688 180.836 25.016C181.188 25.336 181.736 25.624 182.48 25.88L185.6 26.96C186.68 27.32 187.532 27.824 188.156 28.472C188.788 29.12 189.104 29.96 189.104 30.992C189.104 31.792 188.888 32.516 188.456 33.164C188.032 33.812 187.404 34.328 186.572 34.712C185.74 35.096 184.72 35.288 183.512 35.288ZM193.316 21.536V19.928H205.052V21.536H199.688L200.108 21.104V35H198.236V21.104L198.656 21.536H193.316ZM207.235 35L212.419 19.928H214.699L219.763 35H217.795L216.523 31.136H210.523L209.203 35H207.235ZM211.003 29.672H216.043L213.523 22.208L211.003 29.672ZM221.952 21.536V19.928H233.688V21.536H228.324L228.744 21.104V35H226.872V21.104L227.292 21.536H221.952ZM238.631 35V19.928H247.919V21.536H240.503V26.6H247.487V28.208H240.503V33.368H247.919V35H238.631ZM254.532 19.928H257.22L262.404 30.344H262.212L267.396 19.928H270.012V35H268.116V21.872H268.452L262.932 33.104H261.684L256.188 21.944H256.404V35H254.532V19.928ZM277.228 35V19.928H286.516V21.536H279.1V26.6H286.084V28.208H279.1V33.368H286.516V35H277.228ZM293.105 19.928H295.337L302.993 32.336H302.825V19.928H304.697V35H302.609L294.689 22.184H294.977V35H293.105V19.928ZM309.655 21.536V19.928H321.391V21.536H316.027L316.447 21.104V35H314.575V21.104L314.995 21.536H309.655Z" fill="#7D7D7D"/>
</g>
<defs>
<filter id="filter0_d_7051_5670" x="0" y="0" width="340" height="62" filterUnits="userSpaceOnUse" color-interpolation-filters="sRGB">
<feFlood flood-opacity="0" result="BackgroundImageFix"/>
<feColorMatrix in="SourceAlpha" type="matrix" values="0 0 0 0 0 0 0 0 0 0 0 0 0 0 0 0 0 0 127 0" result="hardAlpha"/>
<feOffset dy="4"/>
<feGaussianBlur stdDeviation="3"/>
<feComposite in2="hardAlpha" operator="out"/>
<feColorMatrix type="matrix" values="0 0 0 0 0 0 0 0 0 0 0 0 0 0 0 0 0 0 0.05 0"/>
<feBlend mode="normal" in2="BackgroundImageFix" result="effect1_dropShadow_7051_5670"/>
<feBlend mode="normal" in="SourceGraphic" in2="effect1_dropShadow_7051_5670" result="shape"/>
</filter>
</defs>
</svg>
