<svg width="330" height="62" viewBox="0 0 330 62" fill="none" xmlns="http://www.w3.org/2000/svg">
<g filter="url(#filter0_d_7057_5807)">
<rect x="6.5" y="2.5" width="317" height="49" rx="11.5" fill="#F1F3FF" stroke="#ABB4E5"/>
<path d="M28.3239 29.5339L28.3239 29.5339L28.3262 29.5358C29.2252 30.2606 30.3452 30.6559 31.5 30.6559C32.6549 30.6559 33.7749 30.2606 34.6739 29.5358L34.5484 29.3801L34.6762 29.5339C34.8992 29.3486 35.1867 29.2594 35.4754 29.286C35.6184 29.2992 35.7574 29.3404 35.8844 29.4073C36.0114 29.4742 36.1241 29.5654 36.2158 29.6758C36.4012 29.8988 36.4903 30.1863 36.4637 30.475C36.4371 30.7638 36.2969 31.0301 36.0739 31.2155L36.0735 31.2157C34.7903 32.287 33.1717 32.8738 31.5 32.8738C29.8284 32.8738 28.2098 32.287 26.9265 31.2157L26.9262 31.2155C26.7032 31.0301 26.563 30.7638 26.5364 30.475C26.5098 30.1863 26.5989 29.8988 26.7843 29.6758C26.9696 29.4529 27.2359 29.3126 27.5247 29.286C27.8134 29.2594 28.1009 29.3486 28.3239 29.5339ZM28.2315 24.824C28.052 24.944 27.841 25.008 27.625 25.008C27.3355 25.008 27.0578 24.893 26.8531 24.6883C26.6484 24.4835 26.5334 24.2059 26.5334 23.9163C26.5334 23.7004 26.5974 23.4894 26.7174 23.3098C26.8373 23.1303 27.0078 22.9904 27.2073 22.9078C27.4068 22.8251 27.6263 22.8035 27.838 22.8457C28.0498 22.8878 28.2443 22.9917 28.397 23.1444C28.5496 23.2971 28.6536 23.4916 28.6957 23.7034C28.7379 23.9151 28.7162 24.1346 28.6336 24.3341C28.551 24.5336 28.4111 24.7041 28.2315 24.824ZM34.7685 23.0087C34.9481 22.8887 35.1591 22.8247 35.375 22.8247C35.6646 22.8247 35.9422 22.9397 36.147 23.1444C36.3517 23.3491 36.4667 23.6268 36.4667 23.9163C36.4667 24.1323 36.4027 24.3433 36.2827 24.5228C36.1628 24.7024 35.9923 24.8423 35.7928 24.9249C35.5933 25.0075 35.3738 25.0292 35.1621 24.987C34.9503 24.9449 34.7558 24.8409 34.6031 24.6883C34.4504 24.5356 34.3465 24.3411 34.3044 24.1293C34.2622 23.9176 34.2839 23.6981 34.3665 23.4986C34.4491 23.2991 34.589 23.1286 34.7685 23.0087ZM24.435 15.9262C26.5263 14.5288 28.9849 13.783 31.5 13.783C33.17 13.783 34.8236 14.1119 36.3665 14.751C37.9094 15.3901 39.3112 16.3268 40.4921 17.5076C41.6729 18.6885 42.6096 20.0904 43.2487 21.6332C43.8878 23.1761 44.2167 24.8297 44.2167 26.4997C44.2167 29.0148 43.4709 31.4734 42.0736 33.5647C40.6762 35.6559 38.6902 37.2859 36.3665 38.2483C34.0428 39.2108 31.4859 39.4627 29.0191 38.972C26.5524 38.4813 24.2865 37.2702 22.508 35.4917C20.7295 33.7133 19.5184 31.4474 19.0277 28.9806C18.5371 26.5138 18.7889 23.9569 19.7514 21.6332C20.7139 19.3095 22.3438 17.3235 24.435 15.9262ZM25.648 35.2578C27.3802 36.4152 29.4167 37.033 31.5 37.033C34.2937 37.033 36.9729 35.9233 38.9482 33.9479C40.9236 31.9725 42.0334 29.2933 42.0334 26.4997C42.0334 24.4164 41.4156 22.3799 40.2582 20.6477C39.1008 18.9155 37.4557 17.5654 35.531 16.7681C33.6063 15.9709 31.4884 15.7623 29.4451 16.1687C27.4018 16.5752 25.525 17.5784 24.0519 19.0515C22.5787 20.5246 21.5755 22.4015 21.1691 24.4447C20.7627 26.488 20.9713 28.6059 21.7685 30.5306C22.5658 32.4553 23.9158 34.1004 25.648 35.2578Z" fill="#6071CE" stroke="white" stroke-width="0.4"/>
<path d="M59.424 37.928V17H61.296V37.928H59.424ZM81.4699 35.288C80.4619 35.288 79.5379 35.108 78.6979 34.748C77.8579 34.38 77.1819 33.84 76.6699 33.128C76.1579 32.416 75.8939 31.536 75.8779 30.488H77.7019C77.7019 31.192 77.8739 31.772 78.2179 32.228C78.5619 32.676 79.0179 33.012 79.5859 33.236C80.1539 33.452 80.7739 33.56 81.4459 33.56C82.1739 33.56 82.8059 33.444 83.3419 33.212C83.8779 32.98 84.2899 32.676 84.5779 32.3C84.8739 31.916 85.0219 31.496 85.0219 31.04C85.0219 30.4 84.8259 29.884 84.4339 29.492C84.0419 29.092 83.4619 28.768 82.6939 28.52L80.0299 27.584C78.7819 27.136 77.8379 26.624 77.1979 26.048C76.5579 25.472 76.2379 24.664 76.2379 23.624C76.2379 22.456 76.6859 21.504 77.5819 20.768C78.4859 20.032 79.7659 19.664 81.4219 19.664C82.9579 19.664 84.1579 20.02 85.0219 20.732C85.8859 21.436 86.3819 22.384 86.5099 23.576H84.6619C84.5419 22.88 84.2139 22.34 83.6779 21.956C83.1499 21.564 82.3979 21.368 81.4219 21.368C80.4299 21.368 79.6579 21.588 79.1059 22.028C78.5539 22.468 78.2779 23.024 78.2779 23.696C78.2779 24.248 78.4499 24.688 78.7939 25.016C79.1459 25.336 79.6939 25.624 80.4379 25.88L83.5579 26.96C84.6379 27.32 85.4899 27.824 86.1139 28.472C86.7459 29.12 87.0619 29.96 87.0619 30.992C87.0619 31.792 86.8459 32.516 86.4139 33.164C85.9899 33.812 85.3619 34.328 84.5299 34.712C83.6979 35.096 82.6779 35.288 81.4699 35.288ZM98.7857 35.288C97.4577 35.288 96.3137 34.956 95.3537 34.292C94.3937 33.62 93.6537 32.692 93.1337 31.508C92.6137 30.316 92.3537 28.936 92.3537 27.368C92.3537 25.696 92.6337 24.288 93.1937 23.144C93.7617 22 94.5297 21.136 95.4977 20.552C96.4737 19.96 97.5697 19.664 98.7857 19.664C100.394 19.664 101.686 20.068 102.662 20.876C103.646 21.676 104.322 22.72 104.69 24.008L102.674 24.416C102.362 23.48 101.862 22.736 101.174 22.184C100.494 21.624 99.6977 21.344 98.7857 21.344C97.9937 21.344 97.2617 21.572 96.5897 22.028C95.9257 22.476 95.3897 23.148 94.9817 24.044C94.5737 24.94 94.3697 26.048 94.3697 27.368C94.3697 28.568 94.5297 29.636 94.8497 30.572C95.1777 31.508 95.6657 32.244 96.3137 32.78C96.9697 33.316 97.7937 33.584 98.7857 33.584C99.9777 33.584 100.922 33.264 101.618 32.624C102.322 31.984 102.674 31.144 102.674 30.104H104.714C104.714 31.184 104.466 32.112 103.97 32.888C103.474 33.656 102.778 34.248 101.882 34.664C100.994 35.08 99.9617 35.288 98.7857 35.288ZM108.872 35L114.056 19.928H116.336L121.4 35H119.432L118.16 31.136H112.16L110.84 35H108.872ZM112.64 29.672H117.68L115.16 22.208L112.64 29.672ZM126.854 35V19.928H136.022V21.536H128.726V26.552H135.518V28.16H128.726V35H126.854ZM141.84 35V19.928H151.008V21.536H143.712V26.552H150.504V28.16H143.712V35H141.84ZM162.154 35.288C160.906 35.288 159.79 35 158.806 34.424C157.822 33.848 157.046 32.984 156.478 31.832C155.91 30.672 155.626 29.224 155.626 27.488C155.626 25.728 155.91 24.272 156.478 23.12C157.046 21.96 157.822 21.096 158.806 20.528C159.79 19.952 160.906 19.664 162.154 19.664C163.402 19.664 164.518 19.952 165.502 20.528C166.486 21.104 167.262 21.972 167.83 23.132C168.398 24.292 168.682 25.744 168.682 27.488C168.682 29.24 168.398 30.696 167.83 31.856C167.262 33.008 166.486 33.868 165.502 34.436C164.518 35.004 163.402 35.288 162.154 35.288ZM162.154 33.56C163.57 33.56 164.686 33.044 165.502 32.012C166.326 30.98 166.738 29.464 166.738 27.464C166.738 25.504 166.326 23.996 165.502 22.94C164.686 21.876 163.57 21.344 162.154 21.344C160.754 21.344 159.638 21.876 158.806 22.94C157.982 24.004 157.57 25.52 157.57 27.488C157.57 29.48 157.982 30.992 158.806 32.024C159.638 33.048 160.754 33.56 162.154 33.56ZM176.59 19.928V33.368H183.31V35H174.718V19.928H176.59ZM188.344 19.928H192.76C194.28 19.928 195.6 20.24 196.72 20.864C197.84 21.48 198.708 22.352 199.324 23.48C199.94 24.608 200.248 25.936 200.248 27.464C200.248 28.976 199.94 30.296 199.324 31.424C198.708 32.552 197.84 33.432 196.72 34.064C195.6 34.688 194.28 35 192.76 35H188.344V19.928ZM190.216 21.584V33.368H192.76C193.896 33.368 194.872 33.112 195.688 32.6C196.512 32.088 197.144 31.388 197.584 30.5C198.032 29.604 198.256 28.592 198.256 27.464C198.256 26.328 198.032 25.32 197.584 24.44C197.144 23.552 196.512 22.856 195.688 22.352C194.872 21.84 193.896 21.584 192.76 21.584H190.216ZM206.588 35V19.928H208.46V35H206.588ZM215.691 19.928H217.923L225.579 32.336H225.411V19.928H227.283V35H225.195L217.275 22.184H217.563V35H215.691V19.928ZM239.825 35.288C238.625 35.288 237.533 34.976 236.549 34.352C235.565 33.728 234.781 32.844 234.197 31.7C233.613 30.556 233.321 29.2 233.321 27.632C233.321 26.328 233.509 25.18 233.885 24.188C234.261 23.196 234.777 22.364 235.433 21.692C236.089 21.02 236.841 20.516 237.689 20.18C238.545 19.836 239.449 19.664 240.401 19.664C241.577 19.664 242.609 19.908 243.497 20.396C244.385 20.876 245.145 21.64 245.777 22.688L244.001 23.312C243.465 22.648 242.889 22.16 242.273 21.848C241.665 21.528 241.017 21.368 240.329 21.368C239.425 21.368 238.593 21.62 237.833 22.124C237.073 22.628 236.461 23.348 235.997 24.284C235.541 25.22 235.313 26.336 235.313 27.632C235.313 28.784 235.501 29.808 235.877 30.704C236.253 31.592 236.785 32.292 237.473 32.804C238.169 33.308 238.993 33.56 239.945 33.56C240.673 33.56 241.325 33.392 241.901 33.056C242.485 32.72 242.945 32.216 243.281 31.544C243.617 30.864 243.785 30.008 243.785 28.976H244.361C244.361 30.256 244.209 31.368 243.905 32.312C243.601 33.256 243.113 33.988 242.441 34.508C241.777 35.028 240.905 35.288 239.825 35.288ZM244.121 35L243.785 31.448V28.928L239.993 28.808V27.536H245.609V35H244.121ZM260.462 35V19.928H265.718C267.438 19.928 268.738 20.34 269.618 21.164C270.506 21.98 270.95 23.056 270.95 24.392C270.95 25.712 270.506 26.784 269.618 27.608C268.738 28.424 267.438 28.832 265.718 28.832H262.334V35H260.462ZM268.91 35L264.59 28.16H266.63L271.334 35H268.91ZM262.334 27.512H265.574C266.702 27.512 267.558 27.236 268.142 26.684C268.734 26.124 269.03 25.4 269.03 24.512C269.03 23.6 268.746 22.876 268.178 22.34C267.618 21.804 266.798 21.536 265.718 21.536H262.334V27.512ZM277.533 35V19.928H286.821V21.536H279.405V26.6H286.389V28.208H279.405V33.368H286.821V35H277.533ZM298.761 35.288C297.513 35.288 296.397 35 295.413 34.424C294.429 33.848 293.653 32.984 293.085 31.832C292.517 30.672 292.233 29.224 292.233 27.488C292.233 25.728 292.517 24.272 293.085 23.12C293.653 21.96 294.429 21.096 295.413 20.528C296.397 19.952 297.513 19.664 298.761 19.664C300.009 19.664 301.125 19.952 302.109 20.528C303.093 21.104 303.869 21.972 304.437 23.132C305.005 24.292 305.289 25.744 305.289 27.488C305.289 29.24 305.005 30.696 304.437 31.856C303.869 33.008 303.093 33.868 302.109 34.436C301.125 35.004 300.009 35.288 298.761 35.288ZM303.273 39.008C302.569 39.008 301.933 38.824 301.365 38.456C300.797 38.096 300.273 37.568 299.793 36.872L298.233 34.64L299.913 34.112L301.305 36.104C301.569 36.464 301.841 36.716 302.121 36.86C302.409 37.012 302.689 37.096 302.961 37.112C303.385 37.112 303.777 37.056 304.137 36.944C304.497 36.832 304.881 36.68 305.289 36.488V38.552C304.929 38.704 304.585 38.816 304.257 38.888C303.929 38.968 303.601 39.008 303.273 39.008ZM298.761 33.56C300.177 33.56 301.293 33.044 302.109 32.012C302.933 30.98 303.345 29.464 303.345 27.464C303.345 25.504 302.933 23.996 302.109 22.94C301.293 21.876 300.177 21.344 298.761 21.344C297.361 21.344 296.245 21.876 295.413 22.94C294.589 24.004 294.177 25.52 294.177 27.488C294.177 29.48 294.589 30.992 295.413 32.024C296.245 33.048 297.361 33.56 298.761 33.56ZM309.762 33.884C309.762 33.508 309.894 33.184 310.158 32.912C310.422 32.64 310.754 32.504 311.154 32.504C311.554 32.504 311.894 32.64 312.174 32.912C312.454 33.184 312.594 33.508 312.594 33.884C312.594 34.26 312.454 34.576 312.174 34.832C311.894 35.088 311.554 35.216 311.154 35.216C310.754 35.216 310.422 35.088 310.158 34.832C309.894 34.568 309.762 34.252 309.762 33.884Z" fill="#6071CE"/>
</g>
<defs>
<filter id="filter0_d_7057_5807" x="0" y="0" width="330" height="62" filterUnits="userSpaceOnUse" color-interpolation-filters="sRGB">
<feFlood flood-opacity="0" result="BackgroundImageFix"/>
<feColorMatrix in="SourceAlpha" type="matrix" values="0 0 0 0 0 0 0 0 0 0 0 0 0 0 0 0 0 0 127 0" result="hardAlpha"/>
<feOffset dy="4"/>
<feGaussianBlur stdDeviation="3"/>
<feComposite in2="hardAlpha" operator="out"/>
<feColorMatrix type="matrix" values="0 0 0 0 0 0 0 0 0 0 0 0 0 0 0 0 0 0 0.05 0"/>
<feBlend mode="normal" in2="BackgroundImageFix" result="effect1_dropShadow_7057_5807"/>
<feBlend mode="normal" in="SourceGraphic" in2="effect1_dropShadow_7057_5807" result="shape"/>
</filter>
</defs>
</svg>
