<svg width="336" height="62" viewBox="0 0 336 62" fill="none" xmlns="http://www.w3.org/2000/svg">
<g filter="url(#filter0_d_7087_5703)">
<path d="M18 2.5H318C324.351 2.5 329.5 7.64873 329.5 14V40C329.5 46.3513 324.351 51.5 318 51.5H18C11.6487 51.5 6.5 46.3513 6.5 40V14C6.5 7.64873 11.6487 2.5 18 2.5Z" fill="#FBFBFB" stroke="#B9B9B9"/>
<path d="M28.324 29.5339L28.324 29.5339L28.3263 29.5358C29.2253 30.2606 30.3453 30.6559 31.5002 30.6559C32.655 30.6559 33.775 30.2606 34.674 29.5358L34.5485 29.3801L34.6763 29.5339C34.8993 29.3486 35.1868 29.2594 35.4755 29.286C35.6185 29.2992 35.7575 29.3404 35.8845 29.4073C36.0116 29.4742 36.1242 29.5654 36.2159 29.6758C36.4013 29.8988 36.4905 30.1863 36.4638 30.475C36.4372 30.7638 36.297 31.0301 36.074 31.2155L36.0737 31.2157C34.7904 32.287 33.1718 32.8738 31.5002 32.8738C29.8285 32.8738 28.2099 32.287 26.9267 31.2157L26.9263 31.2155C26.7034 31.0301 26.5631 30.7638 26.5365 30.475C26.5099 30.1863 26.5991 29.8988 26.7844 29.6758C26.9697 29.4529 27.2361 29.3126 27.5248 29.286C27.8135 29.2594 28.101 29.3486 28.324 29.5339ZM28.2317 24.824C28.0521 24.944 27.8411 25.008 27.6252 25.008C27.3356 25.008 27.058 24.893 26.8532 24.6883C26.6485 24.4835 26.5335 24.2059 26.5335 23.9163C26.5335 23.7004 26.5975 23.4894 26.7175 23.3098C26.8374 23.1303 27.0079 22.9904 27.2074 22.9078C27.4069 22.8251 27.6264 22.8035 27.8381 22.8457C28.0499 22.8878 28.2444 22.9917 28.3971 23.1444C28.5498 23.2971 28.6537 23.4916 28.6959 23.7034C28.738 23.9151 28.7164 24.1346 28.6337 24.3341C28.5511 24.5336 28.4112 24.7041 28.2317 24.824ZM34.7687 23.0087C34.9482 22.8887 35.1593 22.8247 35.3752 22.8247C35.6647 22.8247 35.9424 22.9397 36.1471 23.1444C36.3518 23.3491 36.4668 23.6268 36.4668 23.9163C36.4668 24.1323 36.4028 24.3433 36.2829 24.5228C36.1629 24.7024 35.9924 24.8423 35.7929 24.9249C35.5935 25.0075 35.374 25.0292 35.1622 24.987C34.9504 24.9449 34.7559 24.8409 34.6032 24.6883C34.4506 24.5356 34.3466 24.3411 34.3045 24.1293C34.2624 23.9176 34.284 23.6981 34.3666 23.4986C34.4492 23.2991 34.5891 23.1286 34.7687 23.0087ZM24.4352 15.9262C26.5264 14.5288 28.985 13.783 31.5002 13.783C33.1701 13.783 34.8238 14.1119 36.3666 14.751C37.9095 15.3901 39.3114 16.3268 40.4922 17.5076C41.6731 18.6885 42.6098 20.0904 43.2488 21.6332C43.8879 23.1761 44.2168 24.8297 44.2168 26.4997C44.2168 29.0148 43.471 31.4734 42.0737 33.5647C40.6764 35.6559 38.6903 37.2859 36.3666 38.2483C34.043 39.2108 31.4861 39.4627 29.0193 38.972C26.5525 38.4813 24.2866 37.2702 22.5081 35.4917C20.7297 33.7133 19.5185 31.4474 19.0278 28.9806C18.5372 26.5138 18.789 23.9569 19.7515 21.6332C20.714 19.3095 22.3439 17.3235 24.4352 15.9262ZM25.6482 35.2578C27.3804 36.4152 29.4169 37.033 31.5002 37.033C34.2938 37.033 36.973 35.9233 38.9484 33.9479C40.9237 31.9725 42.0335 29.2933 42.0335 26.4997C42.0335 24.4164 41.4157 22.3799 40.2583 20.6477C39.1009 18.9155 37.4558 17.5654 35.5311 16.7681C33.6064 15.9709 31.4885 15.7623 29.4452 16.1687C27.402 16.5752 25.5251 17.5784 24.052 19.0515C22.5789 20.5246 21.5757 22.4015 21.1692 24.4447C20.7628 26.488 20.9714 28.6059 21.7686 30.5306C22.5659 32.4553 23.916 34.1004 25.6482 35.2578Z" fill="#7D7D7D" stroke="white" stroke-width="0.4"/>
<path d="M59.424 37.928V17H61.296V37.928H59.424ZM78.5179 19.928V33.368H85.2379V35H76.6459V19.928H78.5179ZM95.6004 35.288C94.3524 35.288 93.2364 35 92.2524 34.424C91.2684 33.848 90.4924 32.984 89.9244 31.832C89.3564 30.672 89.0724 29.224 89.0724 27.488C89.0724 25.728 89.3564 24.272 89.9244 23.12C90.4924 21.96 91.2684 21.096 92.2524 20.528C93.2364 19.952 94.3524 19.664 95.6004 19.664C96.8484 19.664 97.9644 19.952 98.9484 20.528C99.9324 21.104 100.708 21.972 101.276 23.132C101.844 24.292 102.128 25.744 102.128 27.488C102.128 29.24 101.844 30.696 101.276 31.856C100.708 33.008 99.9324 33.868 98.9484 34.436C97.9644 35.004 96.8484 35.288 95.6004 35.288ZM95.6004 33.56C97.0164 33.56 98.1324 33.044 98.9484 32.012C99.7724 30.98 100.184 29.464 100.184 27.464C100.184 25.504 99.7724 23.996 98.9484 22.94C98.1324 21.876 97.0164 21.344 95.6004 21.344C94.2004 21.344 93.0844 21.876 92.2524 22.94C91.4284 24.004 91.0164 25.52 91.0164 27.488C91.0164 29.48 91.4284 30.992 92.2524 32.024C93.0844 33.048 94.2004 33.56 95.6004 33.56ZM113.397 35.288C112.069 35.288 110.925 34.956 109.965 34.292C109.005 33.62 108.265 32.692 107.745 31.508C107.225 30.316 106.965 28.936 106.965 27.368C106.965 25.696 107.245 24.288 107.805 23.144C108.373 22 109.141 21.136 110.109 20.552C111.085 19.96 112.181 19.664 113.397 19.664C115.005 19.664 116.297 20.068 117.273 20.876C118.257 21.676 118.933 22.72 119.301 24.008L117.285 24.416C116.973 23.48 116.473 22.736 115.785 22.184C115.105 21.624 114.309 21.344 113.397 21.344C112.605 21.344 111.873 21.572 111.201 22.028C110.537 22.476 110.001 23.148 109.593 24.044C109.185 24.94 108.981 26.048 108.981 27.368C108.981 28.568 109.141 29.636 109.461 30.572C109.789 31.508 110.277 32.244 110.925 32.78C111.581 33.316 112.405 33.584 113.397 33.584C114.589 33.584 115.533 33.264 116.229 32.624C116.933 31.984 117.285 31.144 117.285 30.104H119.325C119.325 31.184 119.077 32.112 118.581 32.888C118.085 33.656 117.389 34.248 116.493 34.664C115.605 35.08 114.573 35.288 113.397 35.288ZM123.483 35L128.667 19.928H130.947L136.011 35H134.043L132.771 31.136H126.771L125.451 35H123.483ZM127.251 29.672H132.291L129.771 22.208L127.251 29.672ZM143.337 19.928V33.368H150.057V35H141.465V19.928H143.337ZM155.091 35V19.928H156.963V35H155.091ZM163.546 35V33.32L172.786 21.008V21.704L163.546 21.632V19.928H174.61V21.608L165.658 33.536L165.514 33.224L174.61 33.296V35H163.546ZM179.021 35L184.205 19.928H186.485L191.549 35H189.581L188.309 31.136H182.309L180.989 35H179.021ZM182.789 29.672H187.829L185.309 22.208L182.789 29.672ZM193.738 21.536V19.928H205.474V21.536H200.11L200.53 21.104V35H198.658V21.104L199.078 21.536H193.738ZM210.441 35V19.928H212.313V35H210.441ZM224.896 35.288C223.648 35.288 222.532 35 221.548 34.424C220.564 33.848 219.788 32.984 219.22 31.832C218.652 30.672 218.368 29.224 218.368 27.488C218.368 25.728 218.652 24.272 219.22 23.12C219.788 21.96 220.564 21.096 221.548 20.528C222.532 19.952 223.648 19.664 224.896 19.664C226.144 19.664 227.26 19.952 228.244 20.528C229.228 21.104 230.004 21.972 230.572 23.132C231.14 24.292 231.424 25.744 231.424 27.488C231.424 29.24 231.14 30.696 230.572 31.856C230.004 33.008 229.228 33.868 228.244 34.436C227.26 35.004 226.144 35.288 224.896 35.288ZM224.896 33.56C226.312 33.56 227.428 33.044 228.244 32.012C229.068 30.98 229.48 29.464 229.48 27.464C229.48 25.504 229.068 23.996 228.244 22.94C227.428 21.876 226.312 21.344 224.896 21.344C223.496 21.344 222.38 21.876 221.548 22.94C220.724 24.004 220.312 25.52 220.312 27.488C220.312 29.48 220.724 30.992 221.548 32.024C222.38 33.048 223.496 33.56 224.896 33.56ZM237.436 19.928H239.668L247.324 32.336H247.156V19.928H249.028V35H246.94L239.02 22.184H239.308V35H237.436V19.928ZM264.362 35V19.928H269.618C271.338 19.928 272.638 20.34 273.518 21.164C274.406 21.98 274.85 23.056 274.85 24.392C274.85 25.712 274.406 26.784 273.518 27.608C272.638 28.424 271.338 28.832 269.618 28.832H266.234V35H264.362ZM272.81 35L268.49 28.16H270.53L275.234 35H272.81ZM266.234 27.512H269.474C270.602 27.512 271.458 27.236 272.042 26.684C272.634 26.124 272.93 25.4 272.93 24.512C272.93 23.6 272.646 22.876 272.078 22.34C271.518 21.804 270.698 21.536 269.618 21.536H266.234V27.512ZM281.433 35V19.928H290.721V21.536H283.305V26.6H290.289V28.208H283.305V33.368H290.721V35H281.433ZM302.661 35.288C301.413 35.288 300.297 35 299.313 34.424C298.329 33.848 297.553 32.984 296.985 31.832C296.417 30.672 296.133 29.224 296.133 27.488C296.133 25.728 296.417 24.272 296.985 23.12C297.553 21.96 298.329 21.096 299.313 20.528C300.297 19.952 301.413 19.664 302.661 19.664C303.909 19.664 305.025 19.952 306.009 20.528C306.993 21.104 307.769 21.972 308.337 23.132C308.905 24.292 309.189 25.744 309.189 27.488C309.189 29.24 308.905 30.696 308.337 31.856C307.769 33.008 306.993 33.868 306.009 34.436C305.025 35.004 303.909 35.288 302.661 35.288ZM307.173 39.008C306.469 39.008 305.833 38.824 305.265 38.456C304.697 38.096 304.173 37.568 303.693 36.872L302.133 34.64L303.813 34.112L305.205 36.104C305.469 36.464 305.741 36.716 306.021 36.86C306.309 37.012 306.589 37.096 306.861 37.112C307.285 37.112 307.677 37.056 308.037 36.944C308.397 36.832 308.781 36.68 309.189 36.488V38.552C308.829 38.704 308.485 38.816 308.157 38.888C307.829 38.968 307.501 39.008 307.173 39.008ZM302.661 33.56C304.077 33.56 305.193 33.044 306.009 32.012C306.833 30.98 307.245 29.464 307.245 27.464C307.245 25.504 306.833 23.996 306.009 22.94C305.193 21.876 304.077 21.344 302.661 21.344C301.261 21.344 300.145 21.876 299.313 22.94C298.489 24.004 298.077 25.52 298.077 27.488C298.077 29.48 298.489 30.992 299.313 32.024C300.145 33.048 301.261 33.56 302.661 33.56ZM313.662 33.884C313.662 33.508 313.794 33.184 314.058 32.912C314.322 32.64 314.654 32.504 315.054 32.504C315.454 32.504 315.794 32.64 316.074 32.912C316.354 33.184 316.494 33.508 316.494 33.884C316.494 34.26 316.354 34.576 316.074 34.832C315.794 35.088 315.454 35.216 315.054 35.216C314.654 35.216 314.322 35.088 314.058 34.832C313.794 34.568 313.662 34.252 313.662 33.884Z" fill="#7D7D7D"/>
</g>
<defs>
<filter id="filter0_d_7087_5703" x="0" y="0" width="336" height="62" filterUnits="userSpaceOnUse" color-interpolation-filters="sRGB">
<feFlood flood-opacity="0" result="BackgroundImageFix"/>
<feColorMatrix in="SourceAlpha" type="matrix" values="0 0 0 0 0 0 0 0 0 0 0 0 0 0 0 0 0 0 127 0" result="hardAlpha"/>
<feOffset dy="4"/>
<feGaussianBlur stdDeviation="3"/>
<feComposite in2="hardAlpha" operator="out"/>
<feColorMatrix type="matrix" values="0 0 0 0 0 0 0 0 0 0 0 0 0 0 0 0 0 0 0.05 0"/>
<feBlend mode="normal" in2="BackgroundImageFix" result="effect1_dropShadow_7087_5703"/>
<feBlend mode="normal" in="SourceGraphic" in2="effect1_dropShadow_7087_5703" result="shape"/>
</filter>
</defs>
</svg>
