<svg width="397" height="62" viewBox="0 0 397 62" fill="none" xmlns="http://www.w3.org/2000/svg">
<g filter="url(#filter0_d_7087_5714)">
<path d="M18 2.5H379C385.351 2.5 390.5 7.64873 390.5 14V40C390.5 46.3513 385.351 51.5 379 51.5H18C11.6487 51.5 6.5 46.3513 6.5 40V14C6.5 7.64873 11.6487 2.5 18 2.5Z" fill="#FBFBFB" stroke="#B9B9B9"/>
<path d="M32.2217 20.0413V20.2413H32.4217H37.517C38.4765 20.2413 39.3974 20.6278 40.0767 21.3167C40.7562 22.0057 41.1384 22.9408 41.1384 23.9163V35.5413C41.1384 36.5169 40.7562 37.452 40.0767 38.1409C39.3974 38.8298 38.4765 39.2163 37.517 39.2163H24.7787C23.8191 39.2163 22.8983 38.8298 22.2189 38.1409C21.5394 37.452 21.1572 36.5169 21.1572 35.5413V23.9163C21.1572 22.9408 21.5394 22.0057 22.2189 21.3167C22.8983 20.6278 23.8191 20.2413 24.7787 20.2413H29.874H30.074V20.0413V18.388V18.2733L29.975 18.2154C29.6203 18.0078 29.3251 17.7094 29.1188 17.3497C28.9127 16.9901 28.8027 16.5819 28.8002 16.1656C28.8004 15.5329 29.0483 14.9267 29.4888 14.4801C29.9293 14.0334 30.5261 13.783 31.1478 13.783C31.7696 13.783 32.3664 14.0334 32.8069 14.4801C33.2473 14.9266 33.4953 15.5328 33.4955 16.1655C33.4929 16.5818 33.383 16.9901 33.1768 17.3497C32.9706 17.7094 32.6753 18.0078 32.3206 18.2154L32.2217 18.2733V18.388V20.0413ZM33.533 22.6726L33.5941 22.4247H33.3388H28.9568H28.7015L28.7627 22.6726L29.3996 25.2559L29.4371 25.408H29.5938H32.7019H32.8586L32.8961 25.2559L33.533 22.6726ZM26.5274 22.5785L26.4908 22.4247H26.3328H24.7787C24.3869 22.4247 24.0117 22.5825 23.7356 22.8626C23.4595 23.1425 23.3049 23.5216 23.3049 23.9163V35.5413C23.3049 35.9361 23.4595 36.3152 23.7356 36.5951C24.0117 36.8752 24.3869 37.033 24.7787 37.033H37.517C37.9087 37.033 38.2839 36.8752 38.5601 36.5951C38.8362 36.3152 38.9908 35.9361 38.9908 35.5413V23.9163C38.9908 23.5216 38.8362 23.1425 38.5601 22.8626C38.2839 22.5825 37.9087 22.4247 37.517 22.4247H35.9629H35.8048L35.7683 22.5785L34.775 26.7624C34.7749 26.7626 34.7749 26.7628 34.7748 26.763C34.7156 27.0056 34.5765 27.2197 34.3813 27.3702C34.1859 27.5208 33.9459 27.5987 33.7014 27.5914L33.7014 27.5913H33.6955H28.6002V27.5913L28.5943 27.5914C28.3497 27.5987 28.1098 27.5208 27.9144 27.3702C27.7191 27.2197 27.58 27.0055 27.5208 26.7629C27.5208 26.7627 27.5207 26.7625 27.5207 26.7624L26.5274 22.5785ZM26.7308 30.7579C26.9074 30.6383 27.1146 30.5747 27.3263 30.5747C27.6102 30.5747 27.8831 30.689 28.0847 30.8934C28.2864 31.098 28.4002 31.3759 28.4002 31.6663C28.4002 31.8829 28.3368 32.0943 28.2185 32.2739C28.1002 32.4535 27.9323 32.593 27.7364 32.6753C27.5405 32.7576 27.3251 32.779 27.1174 32.7371C26.9096 32.6952 26.7184 32.5917 26.568 32.4393C26.4176 32.2868 26.3149 32.0921 26.2733 31.8798C26.2316 31.6675 26.253 31.4475 26.3346 31.2477C26.4163 31.0479 26.5543 30.8776 26.7308 30.7579ZM17.6512 29.6018C17.8528 29.3973 18.1257 29.283 18.4096 29.283C18.6935 29.283 18.9663 29.3973 19.1679 29.6018C19.3696 29.8063 19.4834 30.0843 19.4834 30.3747V32.958C19.4834 33.2484 19.3696 33.5264 19.1679 33.7309C18.9663 33.9353 18.6935 34.0497 18.4096 34.0497C18.1257 34.0497 17.8528 33.9353 17.6512 33.7309C17.4495 33.5264 17.3357 33.2484 17.3357 32.958V30.3747C17.3357 30.0843 17.4495 29.8063 17.6512 29.6018ZM43.1278 29.6018C43.3294 29.3973 43.6022 29.283 43.8861 29.283C44.17 29.283 44.4428 29.3973 44.6444 29.6018C44.8461 29.8063 44.9599 30.0843 44.9599 30.3747V32.958C44.9599 33.2484 44.8461 33.5264 44.6444 33.7309C44.4428 33.9353 44.17 34.0497 43.8861 34.0497C43.6022 34.0497 43.3294 33.9353 43.1278 33.7309C42.9261 33.5264 42.8123 33.2484 42.8123 32.958V30.3747C42.8123 30.0843 42.9261 29.8063 43.1278 29.6018ZM34.3738 30.7579C34.5503 30.6383 34.7575 30.5747 34.9693 30.5747C35.2532 30.5747 35.526 30.689 35.7276 30.8934C35.9293 31.098 36.0431 31.3759 36.0431 31.6663C36.0431 31.8829 35.9798 32.0943 35.8615 32.2739C35.7431 32.4535 35.5752 32.593 35.3793 32.6753C35.1835 32.7576 34.9681 32.779 34.7603 32.7371C34.5526 32.6952 34.3613 32.5917 34.211 32.4393C34.0606 32.2868 33.9579 32.0921 33.9162 31.8798C33.8746 31.6675 33.896 31.4475 33.9776 31.2477C34.0592 31.0479 34.1972 30.8776 34.3738 30.7579Z" fill="#7D7D7D" stroke="white" stroke-width="0.4"/>
<path d="M59.424 37.928V17H61.296V37.928H59.424ZM78.5179 19.928V33.368H85.2379V35H76.6459V19.928H78.5179ZM95.6004 35.288C94.3524 35.288 93.2364 35 92.2524 34.424C91.2684 33.848 90.4924 32.984 89.9244 31.832C89.3564 30.672 89.0724 29.224 89.0724 27.488C89.0724 25.728 89.3564 24.272 89.9244 23.12C90.4924 21.96 91.2684 21.096 92.2524 20.528C93.2364 19.952 94.3524 19.664 95.6004 19.664C96.8484 19.664 97.9644 19.952 98.9484 20.528C99.9324 21.104 100.708 21.972 101.276 23.132C101.844 24.292 102.128 25.744 102.128 27.488C102.128 29.24 101.844 30.696 101.276 31.856C100.708 33.008 99.9324 33.868 98.9484 34.436C97.9644 35.004 96.8484 35.288 95.6004 35.288ZM95.6004 33.56C97.0164 33.56 98.1324 33.044 98.9484 32.012C99.7724 30.98 100.184 29.464 100.184 27.464C100.184 25.504 99.7724 23.996 98.9484 22.94C98.1324 21.876 97.0164 21.344 95.6004 21.344C94.2004 21.344 93.0844 21.876 92.2524 22.94C91.4284 24.004 91.0164 25.52 91.0164 27.488C91.0164 29.48 91.4284 30.992 92.2524 32.024C93.0844 33.048 94.2004 33.56 95.6004 33.56ZM113.397 35.288C112.069 35.288 110.925 34.956 109.965 34.292C109.005 33.62 108.265 32.692 107.745 31.508C107.225 30.316 106.965 28.936 106.965 27.368C106.965 25.696 107.245 24.288 107.805 23.144C108.373 22 109.141 21.136 110.109 20.552C111.085 19.96 112.181 19.664 113.397 19.664C115.005 19.664 116.297 20.068 117.273 20.876C118.257 21.676 118.933 22.72 119.301 24.008L117.285 24.416C116.973 23.48 116.473 22.736 115.785 22.184C115.105 21.624 114.309 21.344 113.397 21.344C112.605 21.344 111.873 21.572 111.201 22.028C110.537 22.476 110.001 23.148 109.593 24.044C109.185 24.94 108.981 26.048 108.981 27.368C108.981 28.568 109.141 29.636 109.461 30.572C109.789 31.508 110.277 32.244 110.925 32.78C111.581 33.316 112.405 33.584 113.397 33.584C114.589 33.584 115.533 33.264 116.229 32.624C116.933 31.984 117.285 31.144 117.285 30.104H119.325C119.325 31.184 119.077 32.112 118.581 32.888C118.085 33.656 117.389 34.248 116.493 34.664C115.605 35.08 114.573 35.288 113.397 35.288ZM123.483 35L128.667 19.928H130.947L136.011 35H134.043L132.771 31.136H126.771L125.451 35H123.483ZM127.251 29.672H132.291L129.771 22.208L127.251 29.672ZM143.337 19.928V33.368H150.057V35H141.465V19.928H143.337ZM153.387 33.884C153.387 33.508 153.519 33.184 153.783 32.912C154.047 32.64 154.379 32.504 154.779 32.504C155.179 32.504 155.519 32.64 155.799 32.912C156.079 33.184 156.219 33.508 156.219 33.884C156.219 34.26 156.079 34.576 155.799 34.832C155.519 35.088 155.179 35.216 154.779 35.216C154.379 35.216 154.047 35.088 153.783 34.832C153.519 34.568 153.387 34.252 153.387 33.884ZM168.076 35L173.26 19.928H175.54L180.604 35H178.636L177.364 31.136H171.364L170.044 35H168.076ZM171.844 29.672H176.884L174.364 22.208L171.844 29.672ZM186.033 19.928H188.265L195.921 32.336H195.753V19.928H197.625V35H195.537L187.617 22.184H187.905V35H186.033V19.928ZM204.863 19.928H209.279C210.799 19.928 212.119 20.24 213.239 20.864C214.359 21.48 215.227 22.352 215.843 23.48C216.459 24.608 216.767 25.936 216.767 27.464C216.767 28.976 216.459 30.296 215.843 31.424C215.227 32.552 214.359 33.432 213.239 34.064C212.119 34.688 210.799 35 209.279 35H204.863V19.928ZM206.735 21.584V33.368H209.279C210.415 33.368 211.391 33.112 212.207 32.6C213.031 32.088 213.663 31.388 214.103 30.5C214.551 29.604 214.775 28.592 214.775 27.464C214.775 26.328 214.551 25.32 214.103 24.44C213.663 23.552 213.031 22.856 212.207 22.352C211.391 21.84 210.415 21.584 209.279 21.584H206.735ZM231.154 35V19.928H236.002C237.658 19.928 238.922 20.348 239.794 21.188C240.674 22.02 241.114 23.152 241.114 24.584C241.114 26 240.674 27.124 239.794 27.956C238.922 28.78 237.658 29.192 236.002 29.192H233.05V35H231.154ZM233.05 27.56H236.002C237.05 27.56 237.842 27.292 238.378 26.756C238.922 26.22 239.194 25.496 239.194 24.584C239.194 23.656 238.922 22.916 238.378 22.364C237.842 21.812 237.05 21.536 236.002 21.536H233.05V27.56ZM246.891 35V19.928H252.147C253.867 19.928 255.167 20.34 256.047 21.164C256.935 21.98 257.379 23.056 257.379 24.392C257.379 25.712 256.935 26.784 256.047 27.608C255.167 28.424 253.867 28.832 252.147 28.832H248.763V35H246.891ZM255.339 35L251.019 28.16H253.059L257.763 35H255.339ZM248.763 27.512H252.003C253.131 27.512 253.987 27.236 254.571 26.684C255.163 26.124 255.459 25.4 255.459 24.512C255.459 23.6 255.175 22.876 254.607 22.34C254.047 21.804 253.227 21.536 252.147 21.536H248.763V27.512ZM269.315 35.288C268.067 35.288 266.951 35 265.967 34.424C264.983 33.848 264.207 32.984 263.639 31.832C263.071 30.672 262.787 29.224 262.787 27.488C262.787 25.728 263.071 24.272 263.639 23.12C264.207 21.96 264.983 21.096 265.967 20.528C266.951 19.952 268.067 19.664 269.315 19.664C270.563 19.664 271.679 19.952 272.663 20.528C273.647 21.104 274.423 21.972 274.991 23.132C275.559 24.292 275.843 25.744 275.843 27.488C275.843 29.24 275.559 30.696 274.991 31.856C274.423 33.008 273.647 33.868 272.663 34.436C271.679 35.004 270.563 35.288 269.315 35.288ZM269.315 33.56C270.731 33.56 271.847 33.044 272.663 32.012C273.487 30.98 273.898 29.464 273.898 27.464C273.898 25.504 273.487 23.996 272.663 22.94C271.847 21.876 270.731 21.344 269.315 21.344C267.915 21.344 266.799 21.876 265.967 22.94C265.143 24.004 264.73 25.52 264.73 27.488C264.73 29.48 265.143 30.992 265.967 32.024C266.799 33.048 267.915 33.56 269.315 33.56ZM281.879 19.928H284.567L289.751 30.344H289.559L294.743 19.928H297.359V35H295.463V21.872H295.799L290.279 33.104H289.031L283.535 21.944H283.751V35H281.879V19.928ZM304.551 35V19.928H309.399C311.055 19.928 312.319 20.348 313.191 21.188C314.071 22.02 314.511 23.152 314.511 24.584C314.511 26 314.071 27.124 313.191 27.956C312.319 28.78 311.055 29.192 309.399 29.192H306.447V35H304.551ZM306.447 27.56H309.399C310.447 27.56 311.239 27.292 311.775 26.756C312.319 26.22 312.591 25.496 312.591 24.584C312.591 23.656 312.319 22.916 311.775 22.364C311.239 21.812 310.447 21.536 309.399 21.536H306.447V27.56ZM328.383 35V19.928H333.639C335.359 19.928 336.659 20.34 337.539 21.164C338.427 21.98 338.871 23.056 338.871 24.392C338.871 25.712 338.427 26.784 337.539 27.608C336.659 28.424 335.359 28.832 333.639 28.832H330.255V35H328.383ZM336.831 35L332.511 28.16H334.551L339.255 35H336.831ZM330.255 27.512H333.495C334.623 27.512 335.479 27.236 336.063 26.684C336.655 26.124 336.951 25.4 336.951 24.512C336.951 23.6 336.667 22.876 336.099 22.34C335.539 21.804 334.719 21.536 333.639 21.536H330.255V27.512ZM345.455 35V19.928H354.743V21.536H347.327V26.6H354.311V28.208H347.327V33.368H354.743V35H345.455ZM366.683 35.288C365.435 35.288 364.319 35 363.335 34.424C362.351 33.848 361.575 32.984 361.007 31.832C360.439 30.672 360.155 29.224 360.155 27.488C360.155 25.728 360.439 24.272 361.007 23.12C361.575 21.96 362.351 21.096 363.335 20.528C364.319 19.952 365.435 19.664 366.683 19.664C367.931 19.664 369.047 19.952 370.031 20.528C371.015 21.104 371.791 21.972 372.359 23.132C372.927 24.292 373.211 25.744 373.211 27.488C373.211 29.24 372.927 30.696 372.359 31.856C371.791 33.008 371.015 33.868 370.031 34.436C369.047 35.004 367.931 35.288 366.683 35.288ZM371.195 39.008C370.491 39.008 369.855 38.824 369.287 38.456C368.719 38.096 368.195 37.568 367.715 36.872L366.155 34.64L367.835 34.112L369.227 36.104C369.491 36.464 369.763 36.716 370.043 36.86C370.331 37.012 370.611 37.096 370.883 37.112C371.307 37.112 371.699 37.056 372.059 36.944C372.419 36.832 372.803 36.68 373.211 36.488V38.552C372.851 38.704 372.507 38.816 372.179 38.888C371.851 38.968 371.523 39.008 371.195 39.008ZM366.683 33.56C368.099 33.56 369.215 33.044 370.031 32.012C370.855 30.98 371.267 29.464 371.267 27.464C371.267 25.504 370.855 23.996 370.031 22.94C369.215 21.876 368.099 21.344 366.683 21.344C365.283 21.344 364.167 21.876 363.335 22.94C362.511 24.004 362.099 25.52 362.099 27.488C362.099 29.48 362.511 30.992 363.335 32.024C364.167 33.048 365.283 33.56 366.683 33.56ZM377.684 33.884C377.684 33.508 377.816 33.184 378.08 32.912C378.344 32.64 378.676 32.504 379.076 32.504C379.476 32.504 379.816 32.64 380.096 32.912C380.376 33.184 380.516 33.508 380.516 33.884C380.516 34.26 380.376 34.576 380.096 34.832C379.816 35.088 379.476 35.216 379.076 35.216C378.676 35.216 378.344 35.088 378.08 34.832C377.816 34.568 377.684 34.252 377.684 33.884Z" fill="#7D7D7D"/>
</g>
<defs>
<filter id="filter0_d_7087_5714" x="0" y="0" width="397" height="62" filterUnits="userSpaceOnUse" color-interpolation-filters="sRGB">
<feFlood flood-opacity="0" result="BackgroundImageFix"/>
<feColorMatrix in="SourceAlpha" type="matrix" values="0 0 0 0 0 0 0 0 0 0 0 0 0 0 0 0 0 0 127 0" result="hardAlpha"/>
<feOffset dy="4"/>
<feGaussianBlur stdDeviation="3"/>
<feComposite in2="hardAlpha" operator="out"/>
<feColorMatrix type="matrix" values="0 0 0 0 0 0 0 0 0 0 0 0 0 0 0 0 0 0 0.05 0"/>
<feBlend mode="normal" in2="BackgroundImageFix" result="effect1_dropShadow_7087_5714"/>
<feBlend mode="normal" in="SourceGraphic" in2="effect1_dropShadow_7087_5714" result="shape"/>
</filter>
</defs>
</svg>
