<svg width="352" height="62" viewBox="0 0 352 62" fill="none" xmlns="http://www.w3.org/2000/svg">
<g filter="url(#filter0_d_7086_5725)">
<path d="M18 2.5H334C340.351 2.5 345.5 7.64873 345.5 14V40C345.5 46.3513 340.351 51.5 334 51.5H18C11.6487 51.5 6.5 46.3513 6.5 40V14C6.5 7.64873 11.6487 2.5 18 2.5Z" fill="#F1F3FF" stroke="#ABB4E5"/>
<path d="M32.8219 20.0413V20.2413H33.0219H38.233C39.217 20.2413 40.1605 20.6289 40.8558 21.3183C41.551 22.0077 41.9413 22.9422 41.9413 23.9163V35.5413C41.9413 36.5155 41.551 37.45 40.8558 38.1394C40.1605 38.8287 39.217 39.2163 38.233 39.2163H25.2053C24.2212 39.2163 23.2778 38.8287 22.5825 38.1394C21.8873 37.45 21.497 36.5155 21.497 35.5413V23.9163C21.497 22.9422 21.8873 22.0077 22.5825 21.3183C23.2778 20.6289 24.2212 20.2413 25.2053 20.2413H30.4164H30.6164V20.0413V18.388V18.272L30.5157 18.2144C30.1521 18.0063 29.8499 17.7075 29.6391 17.348C29.4284 16.9887 29.3162 16.5811 29.3136 16.1657C29.3138 15.5344 29.5668 14.9286 30.0176 14.4817C30.4686 14.0345 31.0806 13.783 31.7191 13.783C32.3577 13.783 32.9697 14.0345 33.4207 14.4817L33.5615 14.3396L33.4207 14.4817C33.8715 14.9286 34.1245 15.5344 34.1247 16.1657C34.122 16.5811 34.0099 16.9887 33.7992 17.348C33.5884 17.7075 33.2862 18.0063 32.9226 18.2144L32.8219 18.272V18.388V20.0413ZM34.1538 22.6736L34.2166 22.4247H33.9599H29.4784H29.2217L29.2844 22.6736L29.9358 25.2569L29.9739 25.408H30.1298H33.3085H33.4643L33.5024 25.2569L34.1538 22.6736ZM26.989 22.5775L26.9519 22.4247H26.7947H25.2053C24.8073 22.4247 24.4252 22.5814 24.1433 22.861C23.8613 23.1406 23.7025 23.5202 23.7025 23.9163V35.5413C23.7025 35.9375 23.8613 36.3171 24.1433 36.5967C24.4252 36.8763 24.8073 37.033 25.2053 37.033H38.233C38.631 37.033 39.013 36.8763 39.295 36.5967C39.577 36.3171 39.7358 35.9375 39.7358 35.5413V23.9163C39.7358 23.5202 39.577 23.1406 39.295 22.861C39.013 22.5814 38.631 22.4247 38.233 22.4247H36.6436H36.4864L36.4493 22.5775L35.4334 26.7614C35.4333 26.7615 35.4333 26.7617 35.4333 26.7618C35.373 27.0035 35.231 27.2178 35.0305 27.3689C34.8299 27.5201 34.5828 27.5987 34.3305 27.5914L34.3305 27.5913H34.3247H29.1136V27.5913L29.1078 27.5914C28.8555 27.5987 28.6084 27.5201 28.4077 27.3689C28.2073 27.2178 28.0653 27.0036 28.0051 26.762C28.005 26.7618 28.005 26.7616 28.0049 26.7614L26.989 22.5775ZM27.1975 30.7591C27.3789 30.6389 27.5923 30.5747 27.8108 30.5747C28.1039 30.5747 28.3845 30.6901 28.5912 30.895C28.7978 31.0999 28.9136 31.3774 28.9136 31.6663C28.9136 31.8819 28.8491 32.0927 28.7282 32.2722C28.6072 32.4517 28.4351 32.5918 28.2334 32.6747C28.0317 32.7575 27.8096 32.7792 27.5954 32.737C27.3811 32.6947 27.1846 32.5905 27.0304 32.4377C26.8763 32.2849 26.7716 32.0904 26.7292 31.879C26.6868 31.6676 26.7085 31.4484 26.7918 31.2491C26.875 31.0499 27.0161 30.8793 27.1975 30.7591ZM17.9111 29.6034C18.1177 29.3984 18.3984 29.283 18.6914 29.283C18.9845 29.283 19.2651 29.3984 19.4718 29.6034C19.6784 29.8082 19.7942 30.0857 19.7942 30.3747V32.958C19.7942 33.247 19.6784 33.5245 19.4718 33.7293C19.2651 33.9342 18.9845 34.0497 18.6914 34.0497C18.3984 34.0497 18.1177 33.9342 17.9111 33.7293C17.7044 33.5245 17.5887 33.247 17.5887 32.958V30.3747C17.5887 30.0857 17.7044 29.8082 17.9111 29.6034ZM43.9665 29.6034C44.1731 29.3984 44.4538 29.283 44.7468 29.283C45.0399 29.283 45.3205 29.3984 45.5272 29.6034C45.7338 29.8082 45.8496 30.0857 45.8496 30.3747V32.958C45.8496 33.247 45.7338 33.5245 45.5272 33.7293C45.3205 33.9342 45.0399 34.0497 44.7468 34.0497C44.4538 34.0497 44.1731 33.9342 43.9665 33.7293C43.7598 33.5245 43.6441 33.247 43.6441 32.958V30.3747C43.6441 30.0857 43.7598 29.8082 43.9665 29.6034ZM35.0141 30.7591C35.1955 30.6389 35.409 30.5747 35.6274 30.5747C35.9205 30.5747 36.2012 30.6901 36.4078 30.895C36.6145 31.0999 36.7302 31.3774 36.7302 31.6663C36.7302 31.8819 36.6658 32.0927 36.5448 32.2722C36.4238 32.4517 36.2517 32.5918 36.05 32.6747C35.8483 32.7575 35.6262 32.7792 35.412 32.737C35.1977 32.6947 35.0012 32.5905 34.8471 32.4377C34.693 32.2849 34.5882 32.0904 34.5458 31.879C34.5034 31.6676 34.5251 31.4484 34.6084 31.2491C34.6916 31.0499 34.8327 30.8793 35.0141 30.7591Z" fill="#6071CE" stroke="white" stroke-width="0.4"/>
<path d="M59.424 37.928V17H61.296V37.928H59.424ZM81.4699 35.288C80.4619 35.288 79.5379 35.108 78.6979 34.748C77.8579 34.38 77.1819 33.84 76.6699 33.128C76.1579 32.416 75.8939 31.536 75.8779 30.488H77.7019C77.7019 31.192 77.8739 31.772 78.2179 32.228C78.5619 32.676 79.0179 33.012 79.5859 33.236C80.1539 33.452 80.7739 33.56 81.4459 33.56C82.1739 33.56 82.8059 33.444 83.3419 33.212C83.8779 32.98 84.2899 32.676 84.5779 32.3C84.8739 31.916 85.0219 31.496 85.0219 31.04C85.0219 30.4 84.8259 29.884 84.4339 29.492C84.0419 29.092 83.4619 28.768 82.6939 28.52L80.0299 27.584C78.7819 27.136 77.8379 26.624 77.1979 26.048C76.5579 25.472 76.2379 24.664 76.2379 23.624C76.2379 22.456 76.6859 21.504 77.5819 20.768C78.4859 20.032 79.7659 19.664 81.4219 19.664C82.9579 19.664 84.1579 20.02 85.0219 20.732C85.8859 21.436 86.3819 22.384 86.5099 23.576H84.6619C84.5419 22.88 84.2139 22.34 83.6779 21.956C83.1499 21.564 82.3979 21.368 81.4219 21.368C80.4299 21.368 79.6579 21.588 79.1059 22.028C78.5539 22.468 78.2779 23.024 78.2779 23.696C78.2779 24.248 78.4499 24.688 78.7939 25.016C79.1459 25.336 79.6939 25.624 80.4379 25.88L83.5579 26.96C84.6379 27.32 85.4899 27.824 86.1139 28.472C86.7459 29.12 87.0619 29.96 87.0619 30.992C87.0619 31.792 86.8459 32.516 86.4139 33.164C85.9899 33.812 85.3619 34.328 84.5299 34.712C83.6979 35.096 82.6779 35.288 81.4699 35.288ZM93.5057 35V19.928H98.3537C100.01 19.928 101.274 20.348 102.146 21.188C103.026 22.02 103.466 23.152 103.466 24.584C103.466 26 103.026 27.124 102.146 27.956C101.274 28.78 100.01 29.192 98.3537 29.192H95.4017V35H93.5057ZM95.4017 27.56H98.3537C99.4017 27.56 100.194 27.292 100.73 26.756C101.274 26.22 101.546 25.496 101.546 24.584C101.546 23.656 101.274 22.916 100.73 22.364C100.194 21.812 99.4017 21.536 98.3537 21.536H95.4017V27.56ZM109.219 35V19.928H118.507V21.536H111.091V26.6H118.075V28.208H111.091V33.368H118.507V35H109.219ZM130.351 35.288C129.023 35.288 127.879 34.956 126.919 34.292C125.959 33.62 125.219 32.692 124.699 31.508C124.179 30.316 123.919 28.936 123.919 27.368C123.919 25.696 124.199 24.288 124.759 23.144C125.327 22 126.095 21.136 127.063 20.552C128.039 19.96 129.135 19.664 130.351 19.664C131.959 19.664 133.251 20.068 134.227 20.876C135.211 21.676 135.887 22.72 136.255 24.008L134.239 24.416C133.927 23.48 133.427 22.736 132.739 22.184C132.059 21.624 131.263 21.344 130.351 21.344C129.559 21.344 128.827 21.572 128.155 22.028C127.491 22.476 126.955 23.148 126.547 24.044C126.139 24.94 125.935 26.048 125.935 27.368C125.935 28.568 126.095 29.636 126.415 30.572C126.743 31.508 127.231 32.244 127.879 32.78C128.535 33.316 129.359 33.584 130.351 33.584C131.543 33.584 132.487 33.264 133.183 32.624C133.887 31.984 134.239 31.144 134.239 30.104H136.279C136.279 31.184 136.031 32.112 135.535 32.888C135.039 33.656 134.343 34.248 133.447 34.664C132.559 35.08 131.527 35.288 130.351 35.288ZM142.238 35V19.928H144.11V35H142.238ZM151.365 35V19.928H160.533V21.536H153.237V26.552H160.029V28.16H153.237V35H151.365ZM166.351 35V19.928H168.223V35H166.351ZM180.709 35.288C179.381 35.288 178.237 34.956 177.277 34.292C176.317 33.62 175.577 32.692 175.057 31.508C174.537 30.316 174.277 28.936 174.277 27.368C174.277 25.696 174.557 24.288 175.117 23.144C175.685 22 176.453 21.136 177.421 20.552C178.397 19.96 179.493 19.664 180.709 19.664C182.317 19.664 183.609 20.068 184.585 20.876C185.569 21.676 186.245 22.72 186.613 24.008L184.597 24.416C184.285 23.48 183.785 22.736 183.097 22.184C182.417 21.624 181.621 21.344 180.709 21.344C179.917 21.344 179.185 21.572 178.513 22.028C177.849 22.476 177.313 23.148 176.905 24.044C176.497 24.94 176.293 26.048 176.293 27.368C176.293 28.568 176.453 29.636 176.773 30.572C177.101 31.508 177.589 32.244 178.237 32.78C178.893 33.316 179.717 33.584 180.709 33.584C181.901 33.584 182.845 33.264 183.541 32.624C184.245 31.984 184.597 31.144 184.597 30.104H186.637C186.637 31.184 186.389 32.112 185.893 32.888C185.397 33.656 184.701 34.248 183.805 34.664C182.917 35.08 181.885 35.288 180.709 35.288ZM200.691 35V19.928H205.947C207.667 19.928 208.967 20.34 209.847 21.164C210.735 21.98 211.179 23.056 211.179 24.392C211.179 25.712 210.735 26.784 209.847 27.608C208.967 28.424 207.667 28.832 205.947 28.832H202.563V35H200.691ZM209.139 35L204.819 28.16H206.859L211.563 35H209.139ZM202.563 27.512H205.803C206.931 27.512 207.787 27.236 208.371 26.684C208.963 26.124 209.259 25.4 209.259 24.512C209.259 23.6 208.975 22.876 208.407 22.34C207.847 21.804 207.027 21.536 205.947 21.536H202.563V27.512ZM217.763 35V19.928H227.051V21.536H219.635V26.6H226.619V28.208H219.635V33.368H227.051V35H217.763ZM238.487 35.288C237.479 35.288 236.555 35.108 235.715 34.748C234.875 34.38 234.199 33.84 233.687 33.128C233.175 32.416 232.911 31.536 232.895 30.488H234.719C234.719 31.192 234.891 31.772 235.235 32.228C235.579 32.676 236.035 33.012 236.603 33.236C237.171 33.452 237.791 33.56 238.463 33.56C239.191 33.56 239.823 33.444 240.359 33.212C240.895 32.98 241.307 32.676 241.595 32.3C241.891 31.916 242.039 31.496 242.039 31.04C242.039 30.4 241.843 29.884 241.451 29.492C241.059 29.092 240.479 28.768 239.711 28.52L237.047 27.584C235.799 27.136 234.855 26.624 234.215 26.048C233.575 25.472 233.255 24.664 233.255 23.624C233.255 22.456 233.703 21.504 234.599 20.768C235.503 20.032 236.783 19.664 238.439 19.664C239.975 19.664 241.175 20.02 242.039 20.732C242.903 21.436 243.399 22.384 243.527 23.576H241.679C241.559 22.88 241.231 22.34 240.695 21.956C240.167 21.564 239.415 21.368 238.439 21.368C237.447 21.368 236.675 21.588 236.123 22.028C235.571 22.468 235.295 23.024 235.295 23.696C235.295 24.248 235.467 24.688 235.811 25.016C236.163 25.336 236.711 25.624 237.455 25.88L240.575 26.96C241.655 27.32 242.507 27.824 243.131 28.472C243.763 29.12 244.079 29.96 244.079 30.992C244.079 31.792 243.863 32.516 243.431 33.164C243.007 33.812 242.379 34.328 241.547 34.712C240.715 35.096 239.695 35.288 238.487 35.288ZM250.523 35V19.928H255.371C257.027 19.928 258.291 20.348 259.163 21.188C260.043 22.02 260.483 23.152 260.483 24.584C260.483 26 260.043 27.124 259.163 27.956C258.291 28.78 257.027 29.192 255.371 29.192H252.419V35H250.523ZM252.419 27.56H255.371C256.419 27.56 257.211 27.292 257.747 26.756C258.291 26.22 258.563 25.496 258.563 24.584C258.563 23.656 258.291 22.916 257.747 22.364C257.211 21.812 256.419 21.536 255.371 21.536H252.419V27.56ZM271.588 35.288C270.34 35.288 269.224 35 268.24 34.424C267.256 33.848 266.48 32.984 265.912 31.832C265.344 30.672 265.06 29.224 265.06 27.488C265.06 25.728 265.344 24.272 265.912 23.12C266.48 21.96 267.256 21.096 268.24 20.528C269.224 19.952 270.34 19.664 271.588 19.664C272.836 19.664 273.952 19.952 274.936 20.528C275.92 21.104 276.696 21.972 277.264 23.132C277.832 24.292 278.116 25.744 278.116 27.488C278.116 29.24 277.832 30.696 277.264 31.856C276.696 33.008 275.92 33.868 274.936 34.436C273.952 35.004 272.836 35.288 271.588 35.288ZM271.588 33.56C273.004 33.56 274.12 33.044 274.936 32.012C275.76 30.98 276.172 29.464 276.172 27.464C276.172 25.504 275.76 23.996 274.936 22.94C274.12 21.876 273.004 21.344 271.588 21.344C270.188 21.344 269.072 21.876 268.24 22.94C267.416 24.004 267.004 25.52 267.004 27.488C267.004 29.48 267.416 30.992 268.24 32.024C269.072 33.048 270.188 33.56 271.588 33.56ZM284.128 19.928H286.36L294.016 32.336H293.848V19.928H295.72V35H293.632L285.712 22.184H286V35H284.128V19.928ZM307.782 35.288C306.774 35.288 305.85 35.108 305.01 34.748C304.17 34.38 303.494 33.84 302.982 33.128C302.47 32.416 302.206 31.536 302.19 30.488H304.014C304.014 31.192 304.186 31.772 304.53 32.228C304.874 32.676 305.33 33.012 305.898 33.236C306.466 33.452 307.086 33.56 307.758 33.56C308.486 33.56 309.118 33.444 309.654 33.212C310.19 32.98 310.602 32.676 310.89 32.3C311.186 31.916 311.334 31.496 311.334 31.04C311.334 30.4 311.138 29.884 310.746 29.492C310.354 29.092 309.774 28.768 309.006 28.52L306.342 27.584C305.094 27.136 304.15 26.624 303.51 26.048C302.87 25.472 302.55 24.664 302.55 23.624C302.55 22.456 302.998 21.504 303.894 20.768C304.798 20.032 306.078 19.664 307.734 19.664C309.27 19.664 310.47 20.02 311.334 20.732C312.198 21.436 312.694 22.384 312.822 23.576H310.974C310.854 22.88 310.526 22.34 309.99 21.956C309.462 21.564 308.71 21.368 307.734 21.368C306.742 21.368 305.97 21.588 305.418 22.028C304.866 22.468 304.59 23.024 304.59 23.696C304.59 24.248 304.762 24.688 305.106 25.016C305.458 25.336 306.006 25.624 306.75 25.88L309.87 26.96C310.95 27.32 311.802 27.824 312.426 28.472C313.058 29.12 313.374 29.96 313.374 30.992C313.374 31.792 313.158 32.516 312.726 33.164C312.302 33.812 311.674 34.328 310.842 34.712C310.01 35.096 308.99 35.288 307.782 35.288ZM319.842 35V19.928H329.13V21.536H321.714V26.6H328.698V28.208H321.714V33.368H329.13V35H319.842Z" fill="#6071CE"/>
</g>
<defs>
<filter id="filter0_d_7086_5725" x="0" y="0" width="352" height="62" filterUnits="userSpaceOnUse" color-interpolation-filters="sRGB">
<feFlood flood-opacity="0" result="BackgroundImageFix"/>
<feColorMatrix in="SourceAlpha" type="matrix" values="0 0 0 0 0 0 0 0 0 0 0 0 0 0 0 0 0 0 127 0" result="hardAlpha"/>
<feOffset dy="4"/>
<feGaussianBlur stdDeviation="3"/>
<feComposite in2="hardAlpha" operator="out"/>
<feColorMatrix type="matrix" values="0 0 0 0 0 0 0 0 0 0 0 0 0 0 0 0 0 0 0.05 0"/>
<feBlend mode="normal" in2="BackgroundImageFix" result="effect1_dropShadow_7086_5725"/>
<feBlend mode="normal" in="SourceGraphic" in2="effect1_dropShadow_7086_5725" result="shape"/>
</filter>
</defs>
</svg>
