<svg width="382" height="62" viewBox="0 0 382 62" fill="none" xmlns="http://www.w3.org/2000/svg">
<g filter="url(#filter0_d_7090_5742)">
<rect x="6.5" y="2.5" width="369" height="49" rx="11.5" fill="#FBFBFB" stroke="#B9B9B9"/>
<path d="M32.2216 20.0413V20.2413H32.4216H37.5169C38.4765 20.2413 39.3973 20.6278 40.0767 21.3167C40.7562 22.0057 41.1384 22.9408 41.1384 23.9163V35.5413C41.1384 36.5169 40.7562 37.452 40.0767 38.1409C39.3973 38.8298 38.4765 39.2163 37.5169 39.2163H24.7787C23.8191 39.2163 22.8982 38.8298 22.2189 38.1409C21.5394 37.452 21.1572 36.5169 21.1572 35.5413V23.9163C21.1572 22.9408 21.5394 22.0057 22.2189 21.3167C22.8982 20.6278 23.8191 20.2413 24.7787 20.2413H29.874H30.074V20.0413V18.388V18.2733L29.975 18.2154C29.6203 18.0078 29.325 17.7094 29.1188 17.3497C28.9126 16.9901 28.8027 16.5819 28.8001 16.1656C28.8003 15.5329 29.0483 14.9267 29.4887 14.4801C29.9292 14.0334 30.5261 13.783 31.1478 13.783C31.7695 13.783 32.3664 14.0334 32.8068 14.4801C33.2472 14.9266 33.4952 15.5328 33.4954 16.1655C33.4929 16.5818 33.383 16.9901 33.1768 17.3497C32.9706 17.7094 32.6753 18.0078 32.3206 18.2154L32.2216 18.2733V18.388V20.0413ZM33.533 22.6726L33.5941 22.4247H33.3388H28.9568H28.7015L28.7626 22.6726L29.3995 25.2559L29.437 25.408H29.5937H32.7019H32.8585L32.896 25.2559L33.533 22.6726ZM26.5273 22.5785L26.4908 22.4247H26.3327H24.7787C24.3869 22.4247 24.0117 22.5825 23.7355 22.8626C23.4594 23.1425 23.3048 23.5216 23.3048 23.9163V35.5413C23.3048 35.9361 23.4594 36.3152 23.7355 36.5951C24.0117 36.8752 24.3869 37.033 24.7787 37.033H37.5169C37.9087 37.033 38.2839 36.8752 38.5601 36.5951C38.8361 36.3152 38.9907 35.9361 38.9907 35.5413V23.9163C38.9907 23.5216 38.8361 23.1425 38.5601 22.8626C38.2839 22.5825 37.9087 22.4247 37.5169 22.4247H35.9629H35.8048L35.7683 22.5785L34.7749 26.7624C34.7749 26.7626 34.7748 26.7628 34.7748 26.763C34.7156 27.0056 34.5765 27.2197 34.3812 27.3702C34.1858 27.5208 33.9459 27.5987 33.7013 27.5914L33.7013 27.5913H33.6954H28.6001V27.5913L28.5942 27.5914C28.3497 27.5987 28.1097 27.5208 27.9144 27.3702C27.719 27.2197 27.5799 27.0055 27.5208 26.7629C27.5207 26.7627 27.5207 26.7625 27.5206 26.7624L26.5273 22.5785ZM26.7308 30.7579C26.9073 30.6383 27.1146 30.5747 27.3263 30.5747C27.6102 30.5747 27.883 30.689 28.0846 30.8934C28.2863 31.098 28.4001 31.3759 28.4001 31.6663C28.4001 31.8829 28.3368 32.0943 28.2185 32.2739C28.1001 32.4535 27.9322 32.593 27.7363 32.6753C27.5405 32.7576 27.3251 32.779 27.1173 32.7371C26.9096 32.6952 26.7183 32.5917 26.568 32.4393C26.4176 32.2868 26.3149 32.0921 26.2732 31.8798C26.2316 31.6675 26.253 31.4475 26.3346 31.2477C26.4162 31.0479 26.5542 30.8776 26.7308 30.7579ZM17.6512 29.6018C17.8528 29.3973 18.1256 29.283 18.4095 29.283C18.6934 29.283 18.9663 29.3973 19.1679 29.6018C19.3696 29.8063 19.4834 30.0843 19.4834 30.3747V32.958C19.4834 33.2484 19.3696 33.5264 19.1679 33.7309C18.9663 33.9353 18.6934 34.0497 18.4095 34.0497C18.1256 34.0497 17.8528 33.9353 17.6512 33.7309C17.4495 33.5264 17.3357 33.2484 17.3357 32.958V30.3747C17.3357 30.0843 17.4495 29.8063 17.6512 29.6018ZM43.1277 29.6018C43.3293 29.3973 43.6022 29.283 43.886 29.283C44.1699 29.283 44.4428 29.3973 44.6444 29.6018C44.8461 29.8063 44.9599 30.0843 44.9599 30.3747V32.958C44.9599 33.2484 44.8461 33.5264 44.6444 33.7309C44.4428 33.9353 44.1699 34.0497 43.886 34.0497C43.6022 34.0497 43.3293 33.9353 43.1277 33.7309C42.926 33.5264 42.8122 33.2484 42.8122 32.958V30.3747C42.8122 30.0843 42.926 29.8063 43.1277 29.6018ZM34.3737 30.7579C34.5503 30.6383 34.7575 30.5747 34.9693 30.5747C35.2532 30.5747 35.526 30.689 35.7276 30.8934C35.9293 31.098 36.0431 31.3759 36.0431 31.6663C36.0431 31.8829 35.9798 32.0943 35.8614 32.2739C35.7431 32.4535 35.5752 32.593 35.3793 32.6753C35.1834 32.7576 34.968 32.779 34.7603 32.7371C34.5525 32.6952 34.3613 32.5917 34.2109 32.4393C34.0605 32.2868 33.9578 32.0921 33.9162 31.8798C33.8745 31.6675 33.8959 31.4475 33.9776 31.2477C34.0592 31.0479 34.1972 30.8776 34.3737 30.7579Z" fill="#7D7D7D" stroke="white" stroke-width="0.4"/>
<path d="M59.424 37.928V17H61.296V37.928H59.424ZM78.5179 19.928V33.368H85.2379V35H76.6459V19.928H78.5179ZM95.6004 35.288C94.3524 35.288 93.2364 35 92.2524 34.424C91.2684 33.848 90.4924 32.984 89.9244 31.832C89.3564 30.672 89.0724 29.224 89.0724 27.488C89.0724 25.728 89.3564 24.272 89.9244 23.12C90.4924 21.96 91.2684 21.096 92.2524 20.528C93.2364 19.952 94.3524 19.664 95.6004 19.664C96.8484 19.664 97.9644 19.952 98.9484 20.528C99.9324 21.104 100.708 21.972 101.276 23.132C101.844 24.292 102.128 25.744 102.128 27.488C102.128 29.24 101.844 30.696 101.276 31.856C100.708 33.008 99.9324 33.868 98.9484 34.436C97.9644 35.004 96.8484 35.288 95.6004 35.288ZM95.6004 33.56C97.0164 33.56 98.1324 33.044 98.9484 32.012C99.7724 30.98 100.184 29.464 100.184 27.464C100.184 25.504 99.7724 23.996 98.9484 22.94C98.1324 21.876 97.0164 21.344 95.6004 21.344C94.2004 21.344 93.0844 21.876 92.2524 22.94C91.4284 24.004 91.0164 25.52 91.0164 27.488C91.0164 29.48 91.4284 30.992 92.2524 32.024C93.0844 33.048 94.2004 33.56 95.6004 33.56ZM113.397 35.288C112.069 35.288 110.925 34.956 109.965 34.292C109.005 33.62 108.265 32.692 107.745 31.508C107.225 30.316 106.965 28.936 106.965 27.368C106.965 25.696 107.245 24.288 107.805 23.144C108.373 22 109.141 21.136 110.109 20.552C111.085 19.96 112.181 19.664 113.397 19.664C115.005 19.664 116.297 20.068 117.273 20.876C118.257 21.676 118.933 22.72 119.301 24.008L117.285 24.416C116.973 23.48 116.473 22.736 115.785 22.184C115.105 21.624 114.309 21.344 113.397 21.344C112.605 21.344 111.873 21.572 111.201 22.028C110.537 22.476 110.001 23.148 109.593 24.044C109.185 24.94 108.981 26.048 108.981 27.368C108.981 28.568 109.141 29.636 109.461 30.572C109.789 31.508 110.277 32.244 110.925 32.78C111.581 33.316 112.405 33.584 113.397 33.584C114.589 33.584 115.533 33.264 116.229 32.624C116.933 31.984 117.285 31.144 117.285 30.104H119.325C119.325 31.184 119.077 32.112 118.581 32.888C118.085 33.656 117.389 34.248 116.493 34.664C115.605 35.08 114.573 35.288 113.397 35.288ZM123.483 35L128.667 19.928H130.947L136.011 35H134.043L132.771 31.136H126.771L125.451 35H123.483ZM127.251 29.672H132.291L129.771 22.208L127.251 29.672ZM143.337 19.928V33.368H150.057V35H141.465V19.928H143.337ZM155.091 35V19.928H156.963V35H155.091ZM163.546 35V33.32L172.786 21.008V21.704L163.546 21.632V19.928H174.61V21.608L165.658 33.536L165.514 33.224L174.61 33.296V35H163.546ZM179.021 35L184.205 19.928H186.485L191.549 35H189.581L188.309 31.136H182.309L180.989 35H179.021ZM182.789 29.672H187.829L185.309 22.208L182.789 29.672ZM193.738 21.536V19.928H205.474V21.536H200.11L200.53 21.104V35H198.658V21.104L199.078 21.536H193.738ZM210.441 35V19.928H212.313V35H210.441ZM224.896 35.288C223.648 35.288 222.532 35 221.548 34.424C220.564 33.848 219.788 32.984 219.22 31.832C218.652 30.672 218.368 29.224 218.368 27.488C218.368 25.728 218.652 24.272 219.22 23.12C219.788 21.96 220.564 21.096 221.548 20.528C222.532 19.952 223.648 19.664 224.896 19.664C226.144 19.664 227.26 19.952 228.244 20.528C229.228 21.104 230.004 21.972 230.572 23.132C231.14 24.292 231.424 25.744 231.424 27.488C231.424 29.24 231.14 30.696 230.572 31.856C230.004 33.008 229.228 33.868 228.244 34.436C227.26 35.004 226.144 35.288 224.896 35.288ZM224.896 33.56C226.312 33.56 227.428 33.044 228.244 32.012C229.068 30.98 229.48 29.464 229.48 27.464C229.48 25.504 229.068 23.996 228.244 22.94C227.428 21.876 226.312 21.344 224.896 21.344C223.496 21.344 222.38 21.876 221.548 22.94C220.724 24.004 220.312 25.52 220.312 27.488C220.312 29.48 220.724 30.992 221.548 32.024C222.38 33.048 223.496 33.56 224.896 33.56ZM237.436 19.928H239.668L247.324 32.336H247.156V19.928H249.028V35H246.94L239.02 22.184H239.308V35H237.436V19.928ZM269.186 35.288C268.178 35.288 267.254 35.108 266.414 34.748C265.574 34.38 264.898 33.84 264.386 33.128C263.874 32.416 263.61 31.536 263.594 30.488H265.418C265.418 31.192 265.59 31.772 265.934 32.228C266.278 32.676 266.734 33.012 267.302 33.236C267.87 33.452 268.49 33.56 269.162 33.56C269.89 33.56 270.522 33.444 271.058 33.212C271.594 32.98 272.006 32.676 272.294 32.3C272.59 31.916 272.738 31.496 272.738 31.04C272.738 30.4 272.542 29.884 272.15 29.492C271.758 29.092 271.178 28.768 270.41 28.52L267.746 27.584C266.498 27.136 265.554 26.624 264.914 26.048C264.274 25.472 263.954 24.664 263.954 23.624C263.954 22.456 264.402 21.504 265.298 20.768C266.202 20.032 267.482 19.664 269.138 19.664C270.674 19.664 271.874 20.02 272.738 20.732C273.602 21.436 274.098 22.384 274.226 23.576H272.378C272.258 22.88 271.93 22.34 271.394 21.956C270.866 21.564 270.114 21.368 269.138 21.368C268.146 21.368 267.374 21.588 266.822 22.028C266.27 22.468 265.994 23.024 265.994 23.696C265.994 24.248 266.166 24.688 266.51 25.016C266.862 25.336 267.41 25.624 268.154 25.88L271.274 26.96C272.354 27.32 273.206 27.824 273.83 28.472C274.462 29.12 274.778 29.96 274.778 30.992C274.778 31.792 274.562 32.516 274.13 33.164C273.706 33.812 273.078 34.328 272.246 34.712C271.414 35.096 270.394 35.288 269.186 35.288ZM278.989 21.536V19.928H290.725V21.536H285.361L285.781 21.104V35H283.909V21.104L284.329 21.536H278.989ZM292.908 35L298.092 19.928H300.372L305.436 35H303.468L302.196 31.136H296.196L294.876 35H292.908ZM296.676 29.672H301.716L299.196 22.208L296.676 29.672ZM307.625 21.536V19.928H319.361V21.536H313.997L314.417 21.104V35H312.545V21.104L312.965 21.536H307.625ZM324.305 35V19.928H333.593V21.536H326.177V26.6H333.161V28.208H326.177V33.368H333.593V35H324.305ZM340.205 19.928H342.893L348.077 30.344H347.885L353.069 19.928H355.685V35H353.789V21.872H354.125L348.605 33.104H347.357L341.861 21.944H342.077V35H340.205V19.928ZM361.222 33.884C361.222 33.508 361.354 33.184 361.618 32.912C361.882 32.64 362.214 32.504 362.614 32.504C363.014 32.504 363.354 32.64 363.634 32.912C363.914 33.184 364.054 33.508 364.054 33.884C364.054 34.26 363.914 34.576 363.634 34.832C363.354 35.088 363.014 35.216 362.614 35.216C362.214 35.216 361.882 35.088 361.618 34.832C361.354 34.568 361.222 34.252 361.222 33.884Z" fill="#7D7D7D"/>
</g>
<defs>
<filter id="filter0_d_7090_5742" x="0" y="0" width="382" height="62" filterUnits="userSpaceOnUse" color-interpolation-filters="sRGB">
<feFlood flood-opacity="0" result="BackgroundImageFix"/>
<feColorMatrix in="SourceAlpha" type="matrix" values="0 0 0 0 0 0 0 0 0 0 0 0 0 0 0 0 0 0 127 0" result="hardAlpha"/>
<feOffset dy="4"/>
<feGaussianBlur stdDeviation="3"/>
<feComposite in2="hardAlpha" operator="out"/>
<feColorMatrix type="matrix" values="0 0 0 0 0 0 0 0 0 0 0 0 0 0 0 0 0 0 0.05 0"/>
<feBlend mode="normal" in2="BackgroundImageFix" result="effect1_dropShadow_7090_5742"/>
<feBlend mode="normal" in="SourceGraphic" in2="effect1_dropShadow_7090_5742" result="shape"/>
</filter>
</defs>
</svg>
