<svg width="330" height="62" viewBox="0 0 330 62" fill="none" xmlns="http://www.w3.org/2000/svg">
<g filter="url(#filter0_d_7073_5918)">
<rect x="6.5" y="2.5" width="317" height="49" rx="11.5" fill="#FBFBFB" stroke="#B9B9B9"/>
<path d="M32.5917 20.0413V20.2413H32.7917H37.9584C38.9331 20.2413 39.8678 20.6285 40.557 21.3177C41.2462 22.0069 41.6334 22.9417 41.6334 23.9163V35.5413C41.6334 36.516 41.2462 37.4508 40.557 38.14C39.8678 38.8292 38.9331 39.2163 37.9584 39.2163H25.0417C24.0671 39.2163 23.1323 38.8292 22.4431 38.14C21.7539 37.4508 21.3667 36.516 21.3667 35.5413V23.9163C21.3667 22.9417 21.7539 22.0069 22.4431 21.3177C23.1323 20.6285 24.0671 20.2413 25.0417 20.2413H30.2084H30.4084V20.0413V18.388V18.2725L30.3084 18.2148C29.9482 18.0068 29.6487 17.7082 29.4396 17.3487C29.2307 16.9893 29.1194 16.5815 29.1167 16.1658C29.1169 15.5339 29.368 14.9279 29.8148 14.4811C30.2618 14.0341 30.868 13.783 31.5001 13.783C32.1322 13.783 32.7384 14.0341 33.1854 14.4811C33.6322 14.9279 33.8833 15.5339 33.8834 16.1658C33.8808 16.5815 33.7695 16.9893 33.5605 17.3487C33.3515 17.7082 33.052 18.0068 32.6918 18.2148L32.5917 18.2725V18.388V20.0413ZM33.9158 22.6732L33.9779 22.4247H33.7217H29.2784H29.0223L29.0844 22.6732L29.7302 25.2565L29.7681 25.408H29.9242H33.0759H33.2321L33.2699 25.2565L33.9158 22.6732ZM26.812 22.5779L26.7751 22.4247H26.6176H25.0417C24.6461 22.4247 24.2667 22.5818 23.987 22.8616C23.7072 23.1413 23.5501 23.5207 23.5501 23.9163V35.5413C23.5501 35.937 23.7072 36.3164 23.987 36.5961C24.2667 36.8759 24.6461 37.033 25.0417 37.033H37.9584C38.354 37.033 38.7334 36.8759 39.0132 36.5961C39.2929 36.3164 39.4501 35.937 39.4501 35.5413V23.9163C39.4501 23.5207 39.2929 23.1413 39.0132 22.8616C38.7334 22.5818 38.354 22.4247 37.9584 22.4247H36.3826H36.225L36.1881 22.5779L35.1809 26.7618C35.1809 26.7619 35.1808 26.7621 35.1808 26.7623C35.1209 27.0043 34.9801 27.2185 34.7816 27.3694C34.583 27.5203 34.3386 27.5987 34.0892 27.5914L34.0892 27.5913H34.0834H28.9167V27.5913L28.9109 27.5914C28.6615 27.5987 28.4172 27.5203 28.2186 27.3694C28.0201 27.2185 27.8792 27.0043 27.8194 26.7622C27.8193 26.7621 27.8193 26.7619 27.8193 26.7618L26.812 22.5779ZM27.0186 30.7587C27.1981 30.6387 27.4092 30.5747 27.6251 30.5747C27.9146 30.5747 28.1923 30.6897 28.397 30.8944C28.6017 31.0991 28.7167 31.3768 28.7167 31.6663C28.7167 31.8823 28.6527 32.0933 28.5328 32.2728C28.4128 32.4524 28.2423 32.5923 28.0428 32.6749C27.8434 32.7575 27.6239 32.7792 27.4121 32.737C27.2003 32.6949 27.0058 32.5909 26.8532 32.4383C26.7005 32.2856 26.5965 32.0911 26.5544 31.8793C26.5123 31.6676 26.5339 31.4481 26.6165 31.2486C26.6991 31.0491 26.8391 30.8786 27.0186 30.7587ZM17.8115 29.6028C18.0162 29.398 18.2939 29.283 18.5834 29.283C18.8729 29.283 19.1506 29.398 19.3553 29.6028C19.5601 29.8075 19.6751 30.0851 19.6751 30.3747V32.958C19.6751 33.2475 19.5601 33.5252 19.3553 33.7299C19.1506 33.9347 18.8729 34.0497 18.5834 34.0497C18.2939 34.0497 18.0162 33.9347 17.8115 33.7299C17.6068 33.5252 17.4917 33.2475 17.4917 32.958V30.3747C17.4917 30.0851 17.6068 29.8075 17.8115 29.6028ZM43.6448 29.6028C43.8495 29.398 44.1272 29.283 44.4167 29.283C44.7063 29.283 44.9839 29.398 45.1887 29.6028C45.3934 29.8075 45.5084 30.0851 45.5084 30.3747V32.958C45.5084 33.2475 45.3934 33.5252 45.1887 33.7299C44.9839 33.9347 44.7063 34.0497 44.4167 34.0497C44.1272 34.0497 43.8495 33.9347 43.6448 33.7299C43.4401 33.5252 43.3251 33.2475 43.3251 32.958V30.3747C43.3251 30.0851 43.4401 29.8075 43.6448 29.6028ZM34.7686 30.7587C34.9481 30.6387 35.1592 30.5747 35.3751 30.5747C35.6646 30.5747 35.9423 30.6897 36.147 30.8944C36.3517 31.0991 36.4667 31.3768 36.4667 31.6663C36.4667 31.8823 36.4027 32.0933 36.2828 32.2728C36.1628 32.4524 35.9923 32.5923 35.7928 32.6749C35.5934 32.7575 35.3739 32.7792 35.1621 32.737C34.9503 32.6949 34.7558 32.5909 34.6032 32.4383C34.4505 32.2856 34.3465 32.0911 34.3044 31.8793C34.2623 31.6676 34.2839 31.4481 34.3665 31.2486C34.4491 31.0491 34.5891 30.8786 34.7686 30.7587Z" fill="#7D7D7D" stroke="white" stroke-width="0.4"/>
<path d="M59.424 37.928V17H61.296V37.928H59.424ZM81.8779 35.288C80.5499 35.288 79.4059 34.956 78.4459 34.292C77.4859 33.62 76.7459 32.692 76.2259 31.508C75.7059 30.316 75.4459 28.936 75.4459 27.368C75.4459 25.696 75.7259 24.288 76.2859 23.144C76.8539 22 77.6219 21.136 78.5899 20.552C79.5659 19.96 80.6619 19.664 81.8779 19.664C83.4859 19.664 84.7779 20.068 85.7539 20.876C86.7379 21.676 87.4139 22.72 87.7819 24.008L85.7659 24.416C85.4539 23.48 84.9539 22.736 84.2659 22.184C83.5859 21.624 82.7899 21.344 81.8779 21.344C81.0859 21.344 80.3539 21.572 79.6819 22.028C79.0179 22.476 78.4819 23.148 78.0739 24.044C77.6659 24.94 77.4619 26.048 77.4619 27.368C77.4619 28.568 77.6219 29.636 77.9419 30.572C78.2699 31.508 78.7579 32.244 79.4059 32.78C80.0619 33.316 80.8859 33.584 81.8779 33.584C83.0699 33.584 84.0139 33.264 84.7099 32.624C85.4139 31.984 85.7659 31.144 85.7659 30.104H87.8059C87.8059 31.184 87.5579 32.112 87.0619 32.888C86.5659 33.656 85.8699 34.248 84.9739 34.664C84.0859 35.08 83.0539 35.288 81.8779 35.288ZM93.7646 19.928H95.6366V26.576H103.101V19.928H104.949V35H103.101V28.184H95.6366V35H93.7646V19.928ZM117.547 35.288C116.299 35.288 115.183 35 114.199 34.424C113.215 33.848 112.439 32.984 111.871 31.832C111.303 30.672 111.019 29.224 111.019 27.488C111.019 25.728 111.303 24.272 111.871 23.12C112.439 21.96 113.215 21.096 114.199 20.528C115.183 19.952 116.299 19.664 117.547 19.664C118.795 19.664 119.911 19.952 120.895 20.528C121.879 21.104 122.655 21.972 123.223 23.132C123.791 24.292 124.075 25.744 124.075 27.488C124.075 29.24 123.791 30.696 123.223 31.856C122.655 33.008 121.879 33.868 120.895 34.436C119.911 35.004 118.795 35.288 117.547 35.288ZM117.547 33.56C118.963 33.56 120.079 33.044 120.895 32.012C121.719 30.98 122.131 29.464 122.131 27.464C122.131 25.504 121.719 23.996 120.895 22.94C120.079 21.876 118.963 21.344 117.547 21.344C116.147 21.344 115.031 21.876 114.199 22.94C113.375 24.004 112.963 25.52 112.963 27.488C112.963 29.48 113.375 30.992 114.199 32.024C115.031 33.048 116.147 33.56 117.547 33.56ZM130.112 35V19.928H131.984V35H130.112ZM144.47 35.288C143.142 35.288 141.998 34.956 141.038 34.292C140.078 33.62 139.338 32.692 138.818 31.508C138.298 30.316 138.038 28.936 138.038 27.368C138.038 25.696 138.318 24.288 138.878 23.144C139.446 22 140.214 21.136 141.182 20.552C142.158 19.96 143.254 19.664 144.47 19.664C146.078 19.664 147.37 20.068 148.346 20.876C149.33 21.676 150.006 22.72 150.374 24.008L148.358 24.416C148.046 23.48 147.546 22.736 146.858 22.184C146.178 21.624 145.382 21.344 144.47 21.344C143.678 21.344 142.946 21.572 142.274 22.028C141.61 22.476 141.074 23.148 140.666 24.044C140.258 24.94 140.054 26.048 140.054 27.368C140.054 28.568 140.214 29.636 140.534 30.572C140.862 31.508 141.35 32.244 141.998 32.78C142.654 33.316 143.478 33.584 144.47 33.584C145.662 33.584 146.606 33.264 147.302 32.624C148.006 31.984 148.358 31.144 148.358 30.104H150.398C150.398 31.184 150.15 32.112 149.654 32.888C149.158 33.656 148.462 34.248 147.566 34.664C146.678 35.08 145.646 35.288 144.47 35.288ZM156.333 35V19.928H165.621V21.536H158.205V26.6H165.189V28.208H158.205V33.368H165.621V35H156.333ZM180.281 35V19.928H185.129C186.785 19.928 188.049 20.348 188.921 21.188C189.801 22.02 190.241 23.152 190.241 24.584C190.241 26 189.801 27.124 188.921 27.956C188.049 28.78 186.785 29.192 185.129 29.192H182.177V35H180.281ZM182.177 27.56H185.129C186.177 27.56 186.969 27.292 187.505 26.756C188.049 26.22 188.321 25.496 188.321 24.584C188.321 23.656 188.049 22.916 187.505 22.364C186.969 21.812 186.177 21.536 185.129 21.536H182.177V27.56ZM196.018 35V19.928H201.274C202.994 19.928 204.294 20.34 205.174 21.164C206.062 21.98 206.506 23.056 206.506 24.392C206.506 25.712 206.062 26.784 205.174 27.608C204.294 28.424 202.994 28.832 201.274 28.832H197.89V35H196.018ZM204.466 35L200.146 28.16H202.186L206.89 35H204.466ZM197.89 27.512H201.13C202.258 27.512 203.114 27.236 203.698 26.684C204.29 26.124 204.586 25.4 204.586 24.512C204.586 23.6 204.302 22.876 203.734 22.34C203.174 21.804 202.354 21.536 201.274 21.536H197.89V27.512ZM218.441 35.288C217.193 35.288 216.077 35 215.093 34.424C214.109 33.848 213.333 32.984 212.765 31.832C212.197 30.672 211.913 29.224 211.913 27.488C211.913 25.728 212.197 24.272 212.765 23.12C213.333 21.96 214.109 21.096 215.093 20.528C216.077 19.952 217.193 19.664 218.441 19.664C219.689 19.664 220.805 19.952 221.789 20.528C222.773 21.104 223.549 21.972 224.117 23.132C224.685 24.292 224.969 25.744 224.969 27.488C224.969 29.24 224.685 30.696 224.117 31.856C223.549 33.008 222.773 33.868 221.789 34.436C220.805 35.004 219.689 35.288 218.441 35.288ZM218.441 33.56C219.857 33.56 220.973 33.044 221.789 32.012C222.613 30.98 223.025 29.464 223.025 27.464C223.025 25.504 222.613 23.996 221.789 22.94C220.973 21.876 219.857 21.344 218.441 21.344C217.041 21.344 215.925 21.876 215.093 22.94C214.269 24.004 213.857 25.52 213.857 27.488C213.857 29.48 214.269 30.992 215.093 32.024C215.925 33.048 217.041 33.56 218.441 33.56ZM235.018 33.008L239.482 19.928H241.474L236.098 35H234.154L228.826 19.928H230.818L235.258 33.008H235.018ZM246.718 35V19.928H248.59V35H246.718ZM260.668 35.288C259.66 35.288 258.736 35.108 257.896 34.748C257.056 34.38 256.38 33.84 255.868 33.128C255.356 32.416 255.092 31.536 255.076 30.488H256.9C256.9 31.192 257.072 31.772 257.416 32.228C257.76 32.676 258.216 33.012 258.784 33.236C259.352 33.452 259.972 33.56 260.644 33.56C261.372 33.56 262.004 33.444 262.54 33.212C263.076 32.98 263.488 32.676 263.776 32.3C264.072 31.916 264.22 31.496 264.22 31.04C264.22 30.4 264.024 29.884 263.632 29.492C263.24 29.092 262.66 28.768 261.892 28.52L259.228 27.584C257.98 27.136 257.036 26.624 256.396 26.048C255.756 25.472 255.436 24.664 255.436 23.624C255.436 22.456 255.884 21.504 256.78 20.768C257.684 20.032 258.964 19.664 260.62 19.664C262.156 19.664 263.356 20.02 264.22 20.732C265.084 21.436 265.58 22.384 265.708 23.576H263.86C263.74 22.88 263.412 22.34 262.876 21.956C262.348 21.564 261.596 21.368 260.62 21.368C259.628 21.368 258.856 21.588 258.304 22.028C257.752 22.468 257.476 23.024 257.476 23.696C257.476 24.248 257.648 24.688 257.992 25.016C258.344 25.336 258.892 25.624 259.636 25.88L262.756 26.96C263.836 27.32 264.688 27.824 265.312 28.472C265.944 29.12 266.26 29.96 266.26 30.992C266.26 31.792 266.044 32.516 265.612 33.164C265.188 33.812 264.56 34.328 263.728 34.712C262.896 35.096 261.876 35.288 260.668 35.288ZM272.752 35V19.928H274.624V35H272.752ZM287.207 35.288C285.959 35.288 284.843 35 283.859 34.424C282.875 33.848 282.099 32.984 281.531 31.832C280.963 30.672 280.679 29.224 280.679 27.488C280.679 25.728 280.963 24.272 281.531 23.12C282.099 21.96 282.875 21.096 283.859 20.528C284.843 19.952 285.959 19.664 287.207 19.664C288.455 19.664 289.571 19.952 290.555 20.528C291.539 21.104 292.315 21.972 292.883 23.132C293.451 24.292 293.735 25.744 293.735 27.488C293.735 29.24 293.451 30.696 292.883 31.856C292.315 33.008 291.539 33.868 290.555 34.436C289.571 35.004 288.455 35.288 287.207 35.288ZM287.207 33.56C288.623 33.56 289.739 33.044 290.555 32.012C291.379 30.98 291.791 29.464 291.791 27.464C291.791 25.504 291.379 23.996 290.555 22.94C289.739 21.876 288.623 21.344 287.207 21.344C285.807 21.344 284.691 21.876 283.859 22.94C283.035 24.004 282.623 25.52 282.623 27.488C282.623 29.48 283.035 30.992 283.859 32.024C284.691 33.048 285.807 33.56 287.207 33.56ZM299.747 19.928H301.979L309.635 32.336H309.467V19.928H311.339V35H309.251L301.331 22.184H301.619V35H299.747V19.928Z" fill="#7D7D7D"/>
</g>
<defs>
<filter id="filter0_d_7073_5918" x="0" y="0" width="330" height="62" filterUnits="userSpaceOnUse" color-interpolation-filters="sRGB">
<feFlood flood-opacity="0" result="BackgroundImageFix"/>
<feColorMatrix in="SourceAlpha" type="matrix" values="0 0 0 0 0 0 0 0 0 0 0 0 0 0 0 0 0 0 127 0" result="hardAlpha"/>
<feOffset dy="4"/>
<feGaussianBlur stdDeviation="3"/>
<feComposite in2="hardAlpha" operator="out"/>
<feColorMatrix type="matrix" values="0 0 0 0 0 0 0 0 0 0 0 0 0 0 0 0 0 0 0.05 0"/>
<feBlend mode="normal" in2="BackgroundImageFix" result="effect1_dropShadow_7073_5918"/>
<feBlend mode="normal" in="SourceGraphic" in2="effect1_dropShadow_7073_5918" result="shape"/>
</filter>
</defs>
</svg>
