<svg width="320" height="62" viewBox="0 0 320 62" fill="none" xmlns="http://www.w3.org/2000/svg">
<g filter="url(#filter0_d_7046_5675)">
<rect x="6.5" y="2.5" width="307" height="49" rx="11.5" fill="#E8FAFA" stroke="#99B5B5"/>
<path d="M32.5917 20.0413V20.2413H32.7917H37.9584C38.933 20.2413 39.8678 20.6285 40.557 21.3177C41.2462 22.0069 41.6334 22.9417 41.6334 23.9163V35.5413C41.6334 36.516 41.2462 37.4508 40.557 38.14C39.8678 38.8292 38.933 39.2163 37.9584 39.2163H25.0417C24.067 39.2163 23.1323 38.8292 22.4431 38.14C21.7539 37.4508 21.3667 36.516 21.3667 35.5413V23.9163C21.3667 22.9417 21.7539 22.0069 22.4431 21.3177C23.1323 20.6285 24.067 20.2413 25.0417 20.2413H30.2084H30.4084V20.0413V18.388V18.2725L30.3083 18.2148C29.9481 18.0068 29.6486 17.7082 29.4396 17.3487C29.2306 16.9893 29.1193 16.5815 29.1167 16.1658C29.1168 15.5339 29.3679 14.9279 29.8147 14.4811C30.2617 14.0341 30.8679 13.783 31.5 13.783C32.1321 13.783 32.7383 14.0341 33.1853 14.4811C33.6321 14.9279 33.8832 15.5339 33.8834 16.1658C33.8807 16.5815 33.7694 16.9893 33.5605 17.3487C33.3514 17.7082 33.0519 18.0068 32.6917 18.2148L32.5917 18.2725V18.388V20.0413ZM33.9157 22.6732L33.9778 22.4247H33.7217H29.2784H29.0222L29.0843 22.6732L29.7302 25.2565L29.768 25.408H29.9242H33.0759H33.232L33.2699 25.2565L33.9157 22.6732ZM26.812 22.5779L26.7751 22.4247H26.6175H25.0417C24.6461 22.4247 24.2667 22.5818 23.9869 22.8616C23.7072 23.1413 23.55 23.5207 23.55 23.9163V35.5413C23.55 35.937 23.7072 36.3164 23.9869 36.5961C24.2667 36.8759 24.6461 37.033 25.0417 37.033H37.9584C38.354 37.033 38.7334 36.8759 39.0131 36.5961C39.2929 36.3164 39.45 35.937 39.45 35.5413V23.9163C39.45 23.5207 39.2929 23.1413 39.0131 22.8616C38.7334 22.5818 38.354 22.4247 37.9584 22.4247H36.3825H36.225L36.1881 22.5779L35.1808 26.7618C35.1808 26.7619 35.1808 26.7621 35.1807 26.7622C35.1209 27.0043 34.98 27.2185 34.7815 27.3694C34.5829 27.5203 34.3386 27.5987 34.0892 27.5914L34.0892 27.5913H34.0834H28.9167V27.5913L28.9109 27.5914C28.6615 27.5987 28.4171 27.5203 28.2185 27.3694C28.02 27.2185 27.8792 27.0043 27.8193 26.7622C27.8193 26.7621 27.8192 26.7619 27.8192 26.7618L26.812 22.5779ZM27.0185 30.7587C27.198 30.6387 27.4091 30.5747 27.625 30.5747C27.9145 30.5747 28.1922 30.6897 28.3969 30.8944C28.6017 31.0991 28.7167 31.3768 28.7167 31.6663C28.7167 31.8823 28.6527 32.0933 28.5327 32.2728C28.4128 32.4524 28.2423 32.5923 28.0428 32.6749C27.8433 32.7575 27.6238 32.7792 27.412 32.737C27.2003 32.6949 27.0058 32.5909 26.8531 32.4383C26.7004 32.2856 26.5965 32.0911 26.5543 31.8793C26.5122 31.6676 26.5338 31.4481 26.6165 31.2486C26.6991 31.0491 26.839 30.8786 27.0185 30.7587ZM17.8114 29.6028C18.0162 29.398 18.2938 29.283 18.5834 29.283C18.8729 29.283 19.1506 29.398 19.3553 29.6028C19.56 29.8075 19.675 30.0851 19.675 30.3747V32.958C19.675 33.2475 19.56 33.5252 19.3553 33.7299C19.1506 33.9347 18.8729 34.0497 18.5834 34.0497C18.2938 34.0497 18.0162 33.9347 17.8114 33.7299C17.6067 33.5252 17.4917 33.2475 17.4917 32.958V30.3747C17.4917 30.0851 17.6067 29.8075 17.8114 29.6028ZM43.6448 29.6028C43.8495 29.398 44.1272 29.283 44.4167 29.283C44.7062 29.283 44.9839 29.398 45.1886 29.6028C45.3933 29.8075 45.5084 30.0851 45.5084 30.3747V32.958C45.5084 33.2475 45.3933 33.5252 45.1886 33.7299C44.9839 33.9347 44.7062 34.0497 44.4167 34.0497C44.1272 34.0497 43.8495 33.9347 43.6448 33.7299C43.44 33.5252 43.325 33.2475 43.325 32.958V30.3747C43.325 30.0851 43.44 29.8075 43.6448 29.6028ZM34.7685 30.7587C34.948 30.6387 35.1591 30.5747 35.375 30.5747C35.6645 30.5747 35.9422 30.6897 36.1469 30.8944C36.3517 31.0991 36.4667 31.3768 36.4667 31.6663C36.4667 31.8823 36.4027 32.0933 36.2827 32.2728C36.1628 32.4524 35.9923 32.5923 35.7928 32.6749C35.5933 32.7575 35.3738 32.7792 35.162 32.737C34.9503 32.6949 34.7558 32.5909 34.6031 32.4383C34.4504 32.2856 34.3465 32.0911 34.3043 31.8793C34.2622 31.6676 34.2838 31.4481 34.3665 31.2486C34.4491 31.0491 34.589 30.8786 34.7685 30.7587Z" fill="#567979" stroke="white" stroke-width="0.4"/>
<path d="M59.424 37.928V17H61.296V37.928H59.424ZM76.6459 35V19.928H78.5179V35H76.6459ZM85.7484 19.928H87.9804L95.6364 32.336H95.4684V19.928H97.3404V35H95.2524L87.3324 22.184H87.6204V35H85.7484V19.928ZM102.299 21.536V19.928H114.035V21.536H108.671L109.091 21.104V35H107.219V21.104L107.639 21.536H102.299ZM118.978 35V19.928H128.266V21.536H120.85V26.6H127.834V28.208H120.85V33.368H128.266V35H118.978ZM134.855 19.928H137.087L144.743 32.336H144.575V19.928H146.447V35H144.359L136.439 22.184H136.727V35H134.855V19.928ZM151.405 21.536V19.928H163.141V21.536H157.777L158.197 21.104V35H156.325V21.104L156.745 21.536H151.405ZM176.18 19.928H178.412L186.068 32.336H185.9V19.928H187.772V35H185.684L177.764 22.184H178.052V35H176.18V19.928ZM200.338 35.288C199.09 35.288 197.974 35 196.99 34.424C196.006 33.848 195.23 32.984 194.662 31.832C194.094 30.672 193.81 29.224 193.81 27.488C193.81 25.728 194.094 24.272 194.662 23.12C195.23 21.96 196.006 21.096 196.99 20.528C197.974 19.952 199.09 19.664 200.338 19.664C201.586 19.664 202.702 19.952 203.686 20.528C204.67 21.104 205.446 21.972 206.014 23.132C206.582 24.292 206.866 25.744 206.866 27.488C206.866 29.24 206.582 30.696 206.014 31.856C205.446 33.008 204.67 33.868 203.686 34.436C202.702 35.004 201.586 35.288 200.338 35.288ZM200.338 33.56C201.754 33.56 202.87 33.044 203.686 32.012C204.51 30.98 204.922 29.464 204.922 27.464C204.922 25.504 204.51 23.996 203.686 22.94C202.87 21.876 201.754 21.344 200.338 21.344C198.938 21.344 197.822 21.876 196.99 22.94C196.166 24.004 195.754 25.52 195.754 27.488C195.754 29.48 196.166 30.992 196.99 32.024C197.822 33.048 198.938 33.56 200.338 33.56ZM220.997 19.928H223.685L228.869 30.344H228.677L233.861 19.928H236.477V35H234.581V21.872H234.917L229.397 33.104H228.149L222.653 21.944H222.869V35H220.997V19.928ZM241.918 35L247.102 19.928H249.382L254.446 35H252.478L251.206 31.136H245.206L243.886 35H241.918ZM245.686 29.672H250.726L248.206 22.208L245.686 29.672ZM256.635 21.536V19.928H268.371V21.536H263.007L263.427 21.104V35H261.555V21.104L261.975 21.536H256.635ZM278.57 35.288C277.242 35.288 276.098 34.956 275.138 34.292C274.178 33.62 273.438 32.692 272.918 31.508C272.398 30.316 272.138 28.936 272.138 27.368C272.138 25.696 272.418 24.288 272.978 23.144C273.546 22 274.314 21.136 275.282 20.552C276.258 19.96 277.354 19.664 278.57 19.664C280.178 19.664 281.47 20.068 282.446 20.876C283.43 21.676 284.106 22.72 284.474 24.008L282.458 24.416C282.146 23.48 281.646 22.736 280.958 22.184C280.278 21.624 279.482 21.344 278.57 21.344C277.778 21.344 277.046 21.572 276.374 22.028C275.71 22.476 275.174 23.148 274.766 24.044C274.358 24.94 274.154 26.048 274.154 27.368C274.154 28.568 274.314 29.636 274.634 30.572C274.962 31.508 275.45 32.244 276.098 32.78C276.754 33.316 277.578 33.584 278.57 33.584C279.762 33.584 280.706 33.264 281.402 32.624C282.106 31.984 282.458 31.144 282.458 30.104H284.498C284.498 31.184 284.25 32.112 283.754 32.888C283.258 33.656 282.562 34.248 281.666 34.664C280.778 35.08 279.746 35.288 278.57 35.288ZM290.457 19.928H292.329V26.576H299.793V19.928H301.641V35H299.793V28.184H292.329V35H290.457V19.928Z" fill="#567979"/>
</g>
<defs>
<filter id="filter0_d_7046_5675" x="0" y="0" width="320" height="62" filterUnits="userSpaceOnUse" color-interpolation-filters="sRGB">
<feFlood flood-opacity="0" result="BackgroundImageFix"/>
<feColorMatrix in="SourceAlpha" type="matrix" values="0 0 0 0 0 0 0 0 0 0 0 0 0 0 0 0 0 0 127 0" result="hardAlpha"/>
<feOffset dy="4"/>
<feGaussianBlur stdDeviation="3"/>
<feComposite in2="hardAlpha" operator="out"/>
<feColorMatrix type="matrix" values="0 0 0 0 0 0 0 0 0 0 0 0 0 0 0 0 0 0 0.05 0"/>
<feBlend mode="normal" in2="BackgroundImageFix" result="effect1_dropShadow_7046_5675"/>
<feBlend mode="normal" in="SourceGraphic" in2="effect1_dropShadow_7046_5675" result="shape"/>
</filter>
</defs>
</svg>
