<svg width="282" height="62" viewBox="0 0 282 62" fill="none" xmlns="http://www.w3.org/2000/svg">
<g filter="url(#filter0_d_7045_5636)">
<rect x="6.5" y="2.5" width="269" height="49" rx="11.5" fill="#FBFBFB" stroke="#B9B9B9"/>
<path d="M32.5917 20.0413V20.2413H32.7917H37.9584C38.933 20.2413 39.8678 20.6285 40.557 21.3177C41.2462 22.0069 41.6334 22.9417 41.6334 23.9163V35.5413C41.6334 36.516 41.2462 37.4508 40.557 38.14C39.8678 38.8292 38.933 39.2163 37.9584 39.2163H25.0417C24.067 39.2163 23.1323 38.8292 22.4431 38.14C21.7539 37.4508 21.3667 36.516 21.3667 35.5413V23.9163C21.3667 22.9417 21.7539 22.0069 22.4431 21.3177C23.1323 20.6285 24.067 20.2413 25.0417 20.2413H30.2084H30.4084V20.0413V18.388V18.2725L30.3083 18.2148C29.9481 18.0068 29.6486 17.7082 29.4396 17.3487C29.2306 16.9893 29.1193 16.5815 29.1167 16.1658C29.1168 15.5339 29.3679 14.9279 29.8147 14.4811C30.2617 14.0341 30.8679 13.783 31.5 13.783C32.1321 13.783 32.7383 14.0341 33.1853 14.4811C33.6321 14.9279 33.8832 15.5339 33.8834 16.1658C33.8807 16.5815 33.7694 16.9893 33.5605 17.3487C33.3514 17.7082 33.0519 18.0068 32.6917 18.2148L32.5917 18.2725V18.388V20.0413ZM33.9157 22.6732L33.9778 22.4247H33.7217H29.2784H29.0222L29.0843 22.6732L29.7302 25.2565L29.768 25.408H29.9242H33.0759H33.232L33.2699 25.2565L33.9157 22.6732ZM26.812 22.5779L26.7751 22.4247H26.6175H25.0417C24.6461 22.4247 24.2667 22.5818 23.9869 22.8616C23.7072 23.1413 23.55 23.5207 23.55 23.9163V35.5413C23.55 35.937 23.7072 36.3164 23.9869 36.5961C24.2667 36.8759 24.6461 37.033 25.0417 37.033H37.9584C38.354 37.033 38.7334 36.8759 39.0131 36.5961C39.2929 36.3164 39.45 35.937 39.45 35.5413V23.9163C39.45 23.5207 39.2929 23.1413 39.0131 22.8616C38.7334 22.5818 38.354 22.4247 37.9584 22.4247H36.3825H36.225L36.1881 22.5779L35.1808 26.7618C35.1808 26.7619 35.1808 26.7621 35.1807 26.7622C35.1209 27.0043 34.98 27.2185 34.7815 27.3694C34.5829 27.5203 34.3386 27.5987 34.0892 27.5914L34.0892 27.5913H34.0834H28.9167V27.5913L28.9109 27.5914C28.6615 27.5987 28.4171 27.5203 28.2185 27.3694C28.02 27.2185 27.8792 27.0043 27.8193 26.7622C27.8193 26.7621 27.8192 26.7619 27.8192 26.7618L26.812 22.5779ZM27.0185 30.7587C27.198 30.6387 27.4091 30.5747 27.625 30.5747C27.9145 30.5747 28.1922 30.6897 28.3969 30.8944C28.6017 31.0991 28.7167 31.3768 28.7167 31.6663C28.7167 31.8823 28.6527 32.0933 28.5327 32.2728C28.4128 32.4524 28.2423 32.5923 28.0428 32.6749C27.8433 32.7575 27.6238 32.7792 27.412 32.737C27.2003 32.6949 27.0058 32.5909 26.8531 32.4383C26.7004 32.2856 26.5965 32.0911 26.5543 31.8793C26.5122 31.6676 26.5338 31.4481 26.6165 31.2486C26.6991 31.0491 26.839 30.8786 27.0185 30.7587ZM17.8114 29.6028C18.0162 29.398 18.2938 29.283 18.5834 29.283C18.8729 29.283 19.1506 29.398 19.3553 29.6028C19.56 29.8075 19.675 30.0851 19.675 30.3747V32.958C19.675 33.2475 19.56 33.5252 19.3553 33.7299C19.1506 33.9347 18.8729 34.0497 18.5834 34.0497C18.2938 34.0497 18.0162 33.9347 17.8114 33.7299C17.6067 33.5252 17.4917 33.2475 17.4917 32.958V30.3747C17.4917 30.0851 17.6067 29.8075 17.8114 29.6028ZM43.6448 29.6028C43.8495 29.398 44.1272 29.283 44.4167 29.283C44.7062 29.283 44.9839 29.398 45.1886 29.6028C45.3933 29.8075 45.5084 30.0851 45.5084 30.3747V32.958C45.5084 33.2475 45.3933 33.5252 45.1886 33.7299C44.9839 33.9347 44.7062 34.0497 44.4167 34.0497C44.1272 34.0497 43.8495 33.9347 43.6448 33.7299C43.44 33.5252 43.325 33.2475 43.325 32.958V30.3747C43.325 30.0851 43.44 29.8075 43.6448 29.6028ZM34.7685 30.7587C34.948 30.6387 35.1591 30.5747 35.375 30.5747C35.6645 30.5747 35.9422 30.6897 36.1469 30.8944C36.3517 31.0991 36.4667 31.3768 36.4667 31.6663C36.4667 31.8823 36.4027 32.0933 36.2827 32.2728C36.1628 32.4524 35.9923 32.5923 35.7928 32.6749C35.5933 32.7575 35.3738 32.7792 35.162 32.737C34.9503 32.6949 34.7558 32.5909 34.6031 32.4383C34.4504 32.2856 34.3465 32.0911 34.3043 31.8793C34.2622 31.6676 34.2838 31.4481 34.3665 31.2486C34.4491 31.0491 34.589 30.8786 34.7685 30.7587Z" fill="#7D7D7D" stroke="white" stroke-width="0.4"/>
<path d="M59.424 37.928V17H61.296V37.928H59.424ZM76.6459 35V19.928H78.5179V35H76.6459ZM85.7484 19.928H87.9804L95.6364 32.336H95.4684V19.928H97.3404V35H95.2524L87.3324 22.184H87.6204V35H85.7484V19.928ZM102.299 21.536V19.928H114.035V21.536H108.671L109.091 21.104V35H107.219V21.104L107.639 21.536H102.299ZM119.002 35V19.928H124.258C125.978 19.928 127.278 20.34 128.158 21.164C129.046 21.98 129.49 23.056 129.49 24.392C129.49 25.712 129.046 26.784 128.158 27.608C127.278 28.424 125.978 28.832 124.258 28.832H120.874V35H119.002ZM127.45 35L123.13 28.16H125.17L129.874 35H127.45ZM120.874 27.512H124.114C125.242 27.512 126.098 27.236 126.682 26.684C127.274 26.124 127.57 25.4 127.57 24.512C127.57 23.6 127.286 22.876 126.718 22.34C126.158 21.804 125.338 21.536 124.258 21.536H120.874V27.512ZM141.425 35.288C140.177 35.288 139.061 35 138.077 34.424C137.093 33.848 136.317 32.984 135.749 31.832C135.181 30.672 134.897 29.224 134.897 27.488C134.897 25.728 135.181 24.272 135.749 23.12C136.317 21.96 137.093 21.096 138.077 20.528C139.061 19.952 140.177 19.664 141.425 19.664C142.673 19.664 143.789 19.952 144.773 20.528C145.757 21.104 146.533 21.972 147.101 23.132C147.669 24.292 147.953 25.744 147.953 27.488C147.953 29.24 147.669 30.696 147.101 31.856C146.533 33.008 145.757 33.868 144.773 34.436C143.789 35.004 142.673 35.288 141.425 35.288ZM141.425 33.56C142.841 33.56 143.957 33.044 144.773 32.012C145.597 30.98 146.009 29.464 146.009 27.464C146.009 25.504 145.597 23.996 144.773 22.94C143.957 21.876 142.841 21.344 141.425 21.344C140.025 21.344 138.909 21.876 138.077 22.94C137.253 24.004 136.841 25.52 136.841 27.488C136.841 29.48 137.253 30.992 138.077 32.024C138.909 33.048 140.025 33.56 141.425 33.56ZM153.99 19.928H158.406C159.926 19.928 161.246 20.24 162.366 20.864C163.486 21.48 164.354 22.352 164.97 23.48C165.586 24.608 165.894 25.936 165.894 27.464C165.894 28.976 165.586 30.296 164.97 31.424C164.354 32.552 163.486 33.432 162.366 34.064C161.246 34.688 159.926 35 158.406 35H153.99V19.928ZM155.862 21.584V33.368H158.406C159.542 33.368 160.518 33.112 161.334 32.6C162.158 32.088 162.79 31.388 163.23 30.5C163.678 29.604 163.902 28.592 163.902 27.464C163.902 26.328 163.678 25.32 163.23 24.44C162.79 23.552 162.158 22.856 161.334 22.352C160.518 21.84 159.542 21.584 158.406 21.584H155.862ZM171.897 19.928H173.769V29.552C173.769 30.968 174.125 31.992 174.837 32.624C175.549 33.248 176.481 33.56 177.633 33.56C178.777 33.56 179.701 33.248 180.405 32.624C181.117 31.992 181.473 30.968 181.473 29.552V19.928H183.345V29.552C183.345 30.816 183.109 31.876 182.637 32.732C182.173 33.58 181.513 34.22 180.657 34.652C179.801 35.076 178.793 35.288 177.633 35.288C176.473 35.288 175.461 35.076 174.597 34.652C173.741 34.22 173.077 33.58 172.605 32.732C172.133 31.876 171.897 30.816 171.897 29.552V19.928ZM195.545 35.288C194.217 35.288 193.073 34.956 192.113 34.292C191.153 33.62 190.413 32.692 189.893 31.508C189.373 30.316 189.113 28.936 189.113 27.368C189.113 25.696 189.393 24.288 189.953 23.144C190.521 22 191.289 21.136 192.257 20.552C193.233 19.96 194.329 19.664 195.545 19.664C197.153 19.664 198.445 20.068 199.421 20.876C200.405 21.676 201.081 22.72 201.449 24.008L199.433 24.416C199.121 23.48 198.621 22.736 197.933 22.184C197.253 21.624 196.457 21.344 195.545 21.344C194.753 21.344 194.021 21.572 193.349 22.028C192.685 22.476 192.149 23.148 191.741 24.044C191.333 24.94 191.129 26.048 191.129 27.368C191.129 28.568 191.289 29.636 191.609 30.572C191.937 31.508 192.425 32.244 193.073 32.78C193.729 33.316 194.553 33.584 195.545 33.584C196.737 33.584 197.681 33.264 198.377 32.624C199.081 31.984 199.433 31.144 199.433 30.104H201.473C201.473 31.184 201.225 32.112 200.729 32.888C200.233 33.656 199.537 34.248 198.641 34.664C197.753 35.08 196.721 35.288 195.545 35.288ZM205.152 21.536V19.928H216.888V21.536H211.524L211.944 21.104V35H210.072V21.104L210.492 21.536H205.152ZM221.855 35V19.928H223.727V35H221.855ZM236.31 35.288C235.062 35.288 233.946 35 232.962 34.424C231.978 33.848 231.202 32.984 230.634 31.832C230.066 30.672 229.782 29.224 229.782 27.488C229.782 25.728 230.066 24.272 230.634 23.12C231.202 21.96 231.978 21.096 232.962 20.528C233.946 19.952 235.062 19.664 236.31 19.664C237.558 19.664 238.674 19.952 239.658 20.528C240.642 21.104 241.418 21.972 241.986 23.132C242.554 24.292 242.838 25.744 242.838 27.488C242.838 29.24 242.554 30.696 241.986 31.856C241.418 33.008 240.642 33.868 239.658 34.436C238.674 35.004 237.558 35.288 236.31 35.288ZM236.31 33.56C237.726 33.56 238.842 33.044 239.658 32.012C240.482 30.98 240.894 29.464 240.894 27.464C240.894 25.504 240.482 23.996 239.658 22.94C238.842 21.876 237.726 21.344 236.31 21.344C234.91 21.344 233.794 21.876 232.962 22.94C232.138 24.004 231.726 25.52 231.726 27.488C231.726 29.48 232.138 30.992 232.962 32.024C233.794 33.048 234.91 33.56 236.31 33.56ZM248.85 19.928H251.082L258.738 32.336H258.57V19.928H260.442V35H258.354L250.434 22.184H250.722V35H248.85V19.928Z" fill="#7D7D7D"/>
</g>
<defs>
<filter id="filter0_d_7045_5636" x="0" y="0" width="282" height="62" filterUnits="userSpaceOnUse" color-interpolation-filters="sRGB">
<feFlood flood-opacity="0" result="BackgroundImageFix"/>
<feColorMatrix in="SourceAlpha" type="matrix" values="0 0 0 0 0 0 0 0 0 0 0 0 0 0 0 0 0 0 127 0" result="hardAlpha"/>
<feOffset dy="4"/>
<feGaussianBlur stdDeviation="3"/>
<feComposite in2="hardAlpha" operator="out"/>
<feColorMatrix type="matrix" values="0 0 0 0 0 0 0 0 0 0 0 0 0 0 0 0 0 0 0.05 0"/>
<feBlend mode="normal" in2="BackgroundImageFix" result="effect1_dropShadow_7045_5636"/>
<feBlend mode="normal" in="SourceGraphic" in2="effect1_dropShadow_7045_5636" result="shape"/>
</filter>
</defs>
</svg>
