<svg width="287" height="62" viewBox="0 0 287 62" fill="none" xmlns="http://www.w3.org/2000/svg">
<g filter="url(#filter0_d_6954_5442)">
<rect x="6.5" y="2.5" width="274" height="49" rx="11.5" fill="#FBFBFB" stroke="#B4B4B4"/>
<path d="M28.3239 29.5339L28.3239 29.5339L28.3262 29.5358C29.2252 30.2606 30.3452 30.6559 31.5 30.6559C32.6549 30.6559 33.7749 30.2606 34.6739 29.5358L34.5484 29.3801L34.6762 29.5339C34.8992 29.3486 35.1867 29.2594 35.4754 29.286C35.6184 29.2992 35.7574 29.3404 35.8844 29.4073C36.0114 29.4742 36.1241 29.5654 36.2158 29.6758C36.4012 29.8988 36.4903 30.1863 36.4637 30.475C36.4371 30.7638 36.2969 31.0301 36.0739 31.2155L36.0735 31.2157C34.7903 32.287 33.1717 32.8738 31.5 32.8738C29.8284 32.8738 28.2098 32.287 26.9265 31.2157L26.9262 31.2155C26.7032 31.0301 26.563 30.7638 26.5364 30.475C26.5098 30.1863 26.5989 29.8988 26.7843 29.6758C26.9696 29.4529 27.2359 29.3126 27.5247 29.286C27.8134 29.2594 28.1009 29.3486 28.3239 29.5339ZM28.2315 24.824C28.052 24.944 27.841 25.008 27.625 25.008C27.3355 25.008 27.0578 24.893 26.8531 24.6883C26.6484 24.4835 26.5334 24.2059 26.5334 23.9163C26.5334 23.7004 26.5974 23.4894 26.7174 23.3098C26.8373 23.1303 27.0078 22.9904 27.2073 22.9078C27.4068 22.8251 27.6263 22.8035 27.838 22.8457C28.0498 22.8878 28.2443 22.9917 28.397 23.1444C28.5496 23.2971 28.6536 23.4916 28.6957 23.7034C28.7379 23.9151 28.7162 24.1346 28.6336 24.3341C28.551 24.5336 28.4111 24.7041 28.2315 24.824ZM34.7685 23.0087C34.9481 22.8887 35.1591 22.8247 35.375 22.8247C35.6646 22.8247 35.9422 22.9397 36.147 23.1444C36.3517 23.3491 36.4667 23.6268 36.4667 23.9163C36.4667 24.1323 36.4027 24.3433 36.2827 24.5228C36.1628 24.7024 35.9923 24.8423 35.7928 24.9249C35.5933 25.0075 35.3738 25.0292 35.1621 24.987C34.9503 24.9449 34.7558 24.8409 34.6031 24.6883C34.4504 24.5356 34.3465 24.3411 34.3044 24.1293C34.2622 23.9176 34.2839 23.6981 34.3665 23.4986C34.4491 23.2991 34.589 23.1286 34.7685 23.0087ZM24.435 15.9262C26.5263 14.5288 28.9849 13.783 31.5 13.783C33.17 13.783 34.8236 14.1119 36.3665 14.751C37.9094 15.3901 39.3112 16.3268 40.4921 17.5076C41.6729 18.6885 42.6096 20.0904 43.2487 21.6332C43.8878 23.1761 44.2167 24.8297 44.2167 26.4997C44.2167 29.0148 43.4709 31.4734 42.0736 33.5647C40.6762 35.6559 38.6902 37.2859 36.3665 38.2483C34.0428 39.2108 31.4859 39.4627 29.0191 38.972C26.5524 38.4813 24.2865 37.2702 22.508 35.4917C20.7295 33.7133 19.5184 31.4474 19.0277 28.9806C18.5371 26.5138 18.7889 23.9569 19.7514 21.6332C20.7139 19.3095 22.3438 17.3235 24.435 15.9262ZM25.648 35.2578C27.3802 36.4152 29.4167 37.033 31.5 37.033C34.2937 37.033 36.9729 35.9233 38.9482 33.9479C40.9236 31.9725 42.0334 29.2933 42.0334 26.4997C42.0334 24.4164 41.4156 22.3799 40.2582 20.6477C39.1008 18.9155 37.4557 17.5654 35.531 16.7681C33.6063 15.9709 31.4884 15.7623 29.4451 16.1687C27.4018 16.5752 25.525 17.5784 24.0519 19.0515C22.5787 20.5246 21.5755 22.4015 21.1691 24.4447C20.7627 26.488 20.9713 28.6059 21.7685 30.5306C22.5658 32.4553 23.9158 34.1004 25.648 35.2578Z" fill="#7D7D7D" stroke="white" stroke-width="0.4"/>
<path d="M59.424 37.928V17H61.296V37.928H59.424ZM81.8779 35.288C80.5499 35.288 79.4059 34.956 78.4459 34.292C77.4859 33.62 76.7459 32.692 76.2259 31.508C75.7059 30.316 75.4459 28.936 75.4459 27.368C75.4459 25.696 75.7259 24.288 76.2859 23.144C76.8539 22 77.6219 21.136 78.5899 20.552C79.5659 19.96 80.6619 19.664 81.8779 19.664C83.4859 19.664 84.7779 20.068 85.7539 20.876C86.7379 21.676 87.4139 22.72 87.7819 24.008L85.7659 24.416C85.4539 23.48 84.9539 22.736 84.2659 22.184C83.5859 21.624 82.7899 21.344 81.8779 21.344C81.0859 21.344 80.3539 21.572 79.6819 22.028C79.0179 22.476 78.4819 23.148 78.0739 24.044C77.6659 24.94 77.4619 26.048 77.4619 27.368C77.4619 28.568 77.6219 29.636 77.9419 30.572C78.2699 31.508 78.7579 32.244 79.4059 32.78C80.0619 33.316 80.8859 33.584 81.8779 33.584C83.0699 33.584 84.0139 33.264 84.7099 32.624C85.4139 31.984 85.7659 31.144 85.7659 30.104H87.8059C87.8059 31.184 87.5579 32.112 87.0619 32.888C86.5659 33.656 85.8699 34.248 84.9739 34.664C84.0859 35.08 83.0539 35.288 81.8779 35.288ZM99.0926 35.288C97.8446 35.288 96.7286 35 95.7446 34.424C94.7606 33.848 93.9846 32.984 93.4166 31.832C92.8486 30.672 92.5646 29.224 92.5646 27.488C92.5646 25.728 92.8486 24.272 93.4166 23.12C93.9846 21.96 94.7606 21.096 95.7446 20.528C96.7286 19.952 97.8446 19.664 99.0926 19.664C100.341 19.664 101.457 19.952 102.441 20.528C103.425 21.104 104.201 21.972 104.769 23.132C105.337 24.292 105.621 25.744 105.621 27.488C105.621 29.24 105.337 30.696 104.769 31.856C104.201 33.008 103.425 33.868 102.441 34.436C101.457 35.004 100.341 35.288 99.0926 35.288ZM99.0926 33.56C100.509 33.56 101.625 33.044 102.441 32.012C103.265 30.98 103.677 29.464 103.677 27.464C103.677 25.504 103.265 23.996 102.441 22.94C101.625 21.876 100.509 21.344 99.0926 21.344C97.6926 21.344 96.5766 21.876 95.7446 22.94C94.9206 24.004 94.5086 25.52 94.5086 27.488C94.5086 29.48 94.9206 30.992 95.7446 32.024C96.5766 33.048 97.6926 33.56 99.0926 33.56ZM111.633 19.928H113.865L121.521 32.336H121.353V19.928H123.225V35H121.137L113.217 22.184H113.505V35H111.633V19.928ZM130.463 35V19.928H139.631V21.536H132.335V26.552H139.127V28.16H132.335V35H130.463ZM145.449 35V19.928H147.321V35H145.449ZM154.576 35V19.928H159.832C161.552 19.928 162.852 20.34 163.732 21.164C164.62 21.98 165.064 23.056 165.064 24.392C165.064 25.712 164.62 26.784 163.732 27.608C162.852 28.424 161.552 28.832 159.832 28.832H156.448V35H154.576ZM163.024 35L158.704 28.16H160.744L165.448 35H163.024ZM156.448 27.512H159.688C160.816 27.512 161.672 27.236 162.256 26.684C162.848 26.124 163.144 25.4 163.144 24.512C163.144 23.6 162.86 22.876 162.292 22.34C161.732 21.804 160.912 21.536 159.832 21.536H156.448V27.512ZM171.671 19.928H174.359L179.543 30.344H179.351L184.535 19.928H187.151V35H185.255V21.872H185.591L180.071 33.104H178.823L173.327 21.944H173.543V35H171.671V19.928ZM192.591 35L197.775 19.928H200.055L205.119 35H203.151L201.879 31.136H195.879L194.559 35H192.591ZM196.359 29.672H201.399L198.879 22.208L196.359 29.672ZM207.308 21.536V19.928H219.044V21.536H213.68L214.1 21.104V35H212.228V21.104L212.648 21.536H207.308ZM224.011 35V19.928H225.883V35H224.011ZM238.466 35.288C237.218 35.288 236.102 35 235.118 34.424C234.134 33.848 233.358 32.984 232.79 31.832C232.222 30.672 231.938 29.224 231.938 27.488C231.938 25.728 232.222 24.272 232.79 23.12C233.358 21.96 234.134 21.096 235.118 20.528C236.102 19.952 237.218 19.664 238.466 19.664C239.714 19.664 240.83 19.952 241.814 20.528C242.798 21.104 243.574 21.972 244.142 23.132C244.71 24.292 244.994 25.744 244.994 27.488C244.994 29.24 244.71 30.696 244.142 31.856C243.574 33.008 242.798 33.868 241.814 34.436C240.83 35.004 239.714 35.288 238.466 35.288ZM238.466 33.56C239.882 33.56 240.998 33.044 241.814 32.012C242.638 30.98 243.05 29.464 243.05 27.464C243.05 25.504 242.638 23.996 241.814 22.94C240.998 21.876 239.882 21.344 238.466 21.344C237.066 21.344 235.95 21.876 235.118 22.94C234.294 24.004 233.882 25.52 233.882 27.488C233.882 29.48 234.294 30.992 235.118 32.024C235.95 33.048 237.066 33.56 238.466 33.56ZM251.006 19.928H253.238L260.894 32.336H260.726V19.928H262.598V35H260.51L252.59 22.184H252.878V35H251.006V19.928Z" fill="#7D7D7D"/>
</g>
<defs>
<filter id="filter0_d_6954_5442" x="0" y="0" width="287" height="62" filterUnits="userSpaceOnUse" color-interpolation-filters="sRGB">
<feFlood flood-opacity="0" result="BackgroundImageFix"/>
<feColorMatrix in="SourceAlpha" type="matrix" values="0 0 0 0 0 0 0 0 0 0 0 0 0 0 0 0 0 0 127 0" result="hardAlpha"/>
<feOffset dy="4"/>
<feGaussianBlur stdDeviation="3"/>
<feComposite in2="hardAlpha" operator="out"/>
<feColorMatrix type="matrix" values="0 0 0 0 0 0 0 0 0 0 0 0 0 0 0 0 0 0 0.05 0"/>
<feBlend mode="normal" in2="BackgroundImageFix" result="effect1_dropShadow_6954_5442"/>
<feBlend mode="normal" in="SourceGraphic" in2="effect1_dropShadow_6954_5442" result="shape"/>
</filter>
</defs>
</svg>
