<svg width="370" height="62" viewBox="0 0 370 62" fill="none" xmlns="http://www.w3.org/2000/svg">
<g filter="url(#filter0_d_7079_5810)">
<rect x="6.5" y="2.5" width="357" height="49" rx="11.5" fill="#F1F3FF" stroke="#ABB4E5"/>
<path d="M32.8219 20.0413V20.2413H33.0219H38.233C39.217 20.2413 40.1605 20.6289 40.8558 21.3183C41.551 22.0077 41.9413 22.9422 41.9413 23.9163V35.5413C41.9413 36.5155 41.551 37.45 40.8558 38.1394C40.1605 38.8287 39.217 39.2163 38.233 39.2163H25.2053C24.2212 39.2163 23.2778 38.8287 22.5825 38.1394C21.8873 37.45 21.497 36.5155 21.497 35.5413V23.9163C21.497 22.9422 21.8873 22.0077 22.5825 21.3183C23.2778 20.6289 24.2212 20.2413 25.2053 20.2413H30.4164H30.6164V20.0413V18.388V18.272L30.5157 18.2144C30.1521 18.0063 29.8499 17.7075 29.6391 17.348C29.4284 16.9887 29.3162 16.5811 29.3136 16.1657C29.3138 15.5344 29.5668 14.9286 30.0176 14.4817C30.4686 14.0345 31.0806 13.783 31.7191 13.783C32.3577 13.783 32.9697 14.0345 33.4207 14.4817L33.5615 14.3396L33.4207 14.4817C33.8715 14.9286 34.1245 15.5344 34.1247 16.1657C34.122 16.5811 34.0099 16.9887 33.7992 17.348C33.5884 17.7075 33.2862 18.0063 32.9226 18.2144L32.8219 18.272V18.388V20.0413ZM34.1538 22.6736L34.2166 22.4247H33.9599H29.4784H29.2217L29.2844 22.6736L29.9358 25.2569L29.9739 25.408H30.1298H33.3085H33.4643L33.5024 25.2569L34.1538 22.6736ZM26.989 22.5775L26.9519 22.4247H26.7947H25.2053C24.8073 22.4247 24.4252 22.5814 24.1433 22.861C23.8613 23.1406 23.7025 23.5202 23.7025 23.9163V35.5413C23.7025 35.9375 23.8613 36.3171 24.1433 36.5967C24.4252 36.8763 24.8073 37.033 25.2053 37.033H38.233C38.631 37.033 39.013 36.8763 39.295 36.5967C39.577 36.3171 39.7358 35.9375 39.7358 35.5413V23.9163C39.7358 23.5202 39.577 23.1406 39.295 22.861C39.013 22.5814 38.631 22.4247 38.233 22.4247H36.6436H36.4864L36.4493 22.5775L35.4334 26.7614C35.4333 26.7615 35.4333 26.7617 35.4333 26.7618C35.373 27.0035 35.231 27.2178 35.0305 27.3689C34.8299 27.5201 34.5828 27.5987 34.3305 27.5914L34.3305 27.5913H34.3247H29.1136V27.5913L29.1078 27.5914C28.8555 27.5987 28.6084 27.5201 28.4077 27.3689C28.2073 27.2178 28.0653 27.0036 28.0051 26.762C28.005 26.7618 28.005 26.7616 28.0049 26.7614L26.989 22.5775ZM27.1975 30.7591C27.3789 30.6389 27.5923 30.5747 27.8108 30.5747C28.1039 30.5747 28.3845 30.6901 28.5912 30.895C28.7978 31.0999 28.9136 31.3774 28.9136 31.6663C28.9136 31.8819 28.8491 32.0927 28.7282 32.2722C28.6072 32.4517 28.4351 32.5918 28.2334 32.6747C28.0317 32.7575 27.8096 32.7792 27.5954 32.737C27.3811 32.6947 27.1846 32.5905 27.0304 32.4377C26.8763 32.2849 26.7716 32.0904 26.7292 31.879C26.6868 31.6676 26.7085 31.4484 26.7918 31.2491C26.875 31.0499 27.0161 30.8793 27.1975 30.7591ZM17.9111 29.6034C18.1177 29.3984 18.3984 29.283 18.6914 29.283C18.9845 29.283 19.2651 29.3984 19.4718 29.6034C19.6784 29.8082 19.7942 30.0857 19.7942 30.3747V32.958C19.7942 33.247 19.6784 33.5245 19.4718 33.7293C19.2651 33.9342 18.9845 34.0497 18.6914 34.0497C18.3984 34.0497 18.1177 33.9342 17.9111 33.7293C17.7044 33.5245 17.5887 33.247 17.5887 32.958V30.3747C17.5887 30.0857 17.7044 29.8082 17.9111 29.6034ZM43.9665 29.6034C44.1731 29.3984 44.4538 29.283 44.7468 29.283C45.0399 29.283 45.3205 29.3984 45.5272 29.6034C45.7338 29.8082 45.8496 30.0857 45.8496 30.3747V32.958C45.8496 33.247 45.7338 33.5245 45.5272 33.7293C45.3205 33.9342 45.0399 34.0497 44.7468 34.0497C44.4538 34.0497 44.1731 33.9342 43.9665 33.7293C43.7598 33.5245 43.6441 33.247 43.6441 32.958V30.3747C43.6441 30.0857 43.7598 29.8082 43.9665 29.6034ZM35.0141 30.7591C35.1955 30.6389 35.409 30.5747 35.6274 30.5747C35.9205 30.5747 36.2012 30.6901 36.4078 30.895C36.6145 31.0999 36.7302 31.3774 36.7302 31.6663C36.7302 31.8819 36.6658 32.0927 36.5448 32.2722C36.4238 32.4517 36.2517 32.5918 36.05 32.6747C35.8483 32.7575 35.6262 32.7792 35.412 32.737C35.1977 32.6947 35.0012 32.5905 34.8471 32.4377C34.693 32.2849 34.5882 32.0904 34.5458 31.879C34.5034 31.6676 34.5251 31.4484 34.6084 31.2491C34.6916 31.0499 34.8327 30.8793 35.0141 30.7591Z" fill="#6071CE" stroke="white" stroke-width="0.4"/>
<path d="M59.424 37.928V17H61.296V37.928H59.424ZM76.6459 35V19.928H85.8139V21.536H78.5179V26.552H85.3099V28.16H78.5179V35H76.6459ZM91.6078 35V19.928H100.896V21.536H93.4798V26.6H100.464V28.208H93.4798V33.368H100.896V35H91.6078ZM105.708 35L110.892 19.928H113.172L118.236 35H116.268L114.996 31.136H108.996L107.676 35H105.708ZM109.476 29.672H114.516L111.996 22.208L109.476 29.672ZM120.425 21.536V19.928H132.161V21.536H126.797L127.217 21.104V35H125.345V21.104L125.765 21.536H120.425ZM136.793 19.928H138.665V29.552C138.665 30.968 139.021 31.992 139.733 32.624C140.445 33.248 141.377 33.56 142.529 33.56C143.673 33.56 144.597 33.248 145.301 32.624C146.013 31.992 146.369 30.968 146.369 29.552V19.928H148.241V29.552C148.241 30.816 148.005 31.876 147.533 32.732C147.069 33.58 146.409 34.22 145.553 34.652C144.697 35.076 143.689 35.288 142.529 35.288C141.369 35.288 140.357 35.076 139.493 34.652C138.637 34.22 137.973 33.58 137.501 32.732C137.029 31.876 136.793 30.816 136.793 29.552V19.928ZM155.208 35V19.928H160.464C162.184 19.928 163.484 20.34 164.364 21.164C165.252 21.98 165.696 23.056 165.696 24.392C165.696 25.712 165.252 26.784 164.364 27.608C163.484 28.424 162.184 28.832 160.464 28.832H157.08V35H155.208ZM163.656 35L159.336 28.16H161.376L166.08 35H163.656ZM157.08 27.512H160.32C161.448 27.512 162.304 27.236 162.888 26.684C163.48 26.124 163.776 25.4 163.776 24.512C163.776 23.6 163.492 22.876 162.924 22.34C162.364 21.804 161.544 21.536 160.464 21.536H157.08V27.512ZM172.28 35V19.928H181.568V21.536H174.152V26.6H181.136V28.208H174.152V33.368H181.568V35H172.28ZM196.276 19.928H200.692C202.212 19.928 203.532 20.24 204.652 20.864C205.772 21.48 206.64 22.352 207.256 23.48C207.872 24.608 208.18 25.936 208.18 27.464C208.18 28.976 207.872 30.296 207.256 31.424C206.64 32.552 205.772 33.432 204.652 34.064C203.532 34.688 202.212 35 200.692 35H196.276V19.928ZM198.148 21.584V33.368H200.692C201.828 33.368 202.804 33.112 203.62 32.6C204.444 32.088 205.076 31.388 205.516 30.5C205.964 29.604 206.188 28.592 206.188 27.464C206.188 26.328 205.964 25.32 205.516 24.44C205.076 23.552 204.444 22.856 203.62 22.352C202.804 21.84 201.828 21.584 200.692 21.584H198.148ZM214.519 35V19.928H216.391V35H214.519ZM228.47 35.288C227.462 35.288 226.538 35.108 225.698 34.748C224.858 34.38 224.182 33.84 223.67 33.128C223.158 32.416 222.894 31.536 222.878 30.488H224.702C224.702 31.192 224.874 31.772 225.218 32.228C225.562 32.676 226.018 33.012 226.586 33.236C227.154 33.452 227.774 33.56 228.446 33.56C229.174 33.56 229.806 33.444 230.342 33.212C230.878 32.98 231.29 32.676 231.578 32.3C231.874 31.916 232.022 31.496 232.022 31.04C232.022 30.4 231.826 29.884 231.434 29.492C231.042 29.092 230.462 28.768 229.694 28.52L227.03 27.584C225.782 27.136 224.838 26.624 224.198 26.048C223.558 25.472 223.238 24.664 223.238 23.624C223.238 22.456 223.686 21.504 224.582 20.768C225.486 20.032 226.766 19.664 228.422 19.664C229.958 19.664 231.158 20.02 232.022 20.732C232.886 21.436 233.382 22.384 233.51 23.576H231.662C231.542 22.88 231.214 22.34 230.678 21.956C230.15 21.564 229.398 21.368 228.422 21.368C227.43 21.368 226.658 21.588 226.106 22.028C225.554 22.468 225.278 23.024 225.278 23.696C225.278 24.248 225.45 24.688 225.794 25.016C226.146 25.336 226.694 25.624 227.438 25.88L230.558 26.96C231.638 27.32 232.49 27.824 233.114 28.472C233.746 29.12 234.062 29.96 234.062 30.992C234.062 31.792 233.846 32.516 233.414 33.164C232.99 33.812 232.362 34.328 231.53 34.712C230.698 35.096 229.678 35.288 228.47 35.288ZM245.786 35.288C244.458 35.288 243.314 34.956 242.354 34.292C241.394 33.62 240.654 32.692 240.134 31.508C239.614 30.316 239.354 28.936 239.354 27.368C239.354 25.696 239.634 24.288 240.194 23.144C240.762 22 241.53 21.136 242.498 20.552C243.474 19.96 244.57 19.664 245.786 19.664C247.394 19.664 248.686 20.068 249.662 20.876C250.646 21.676 251.322 22.72 251.69 24.008L249.674 24.416C249.362 23.48 248.862 22.736 248.174 22.184C247.494 21.624 246.698 21.344 245.786 21.344C244.994 21.344 244.262 21.572 243.59 22.028C242.926 22.476 242.39 23.148 241.982 24.044C241.574 24.94 241.37 26.048 241.37 27.368C241.37 28.568 241.53 29.636 241.85 30.572C242.178 31.508 242.666 32.244 243.314 32.78C243.97 33.316 244.794 33.584 245.786 33.584C246.978 33.584 247.922 33.264 248.618 32.624C249.322 31.984 249.674 31.144 249.674 30.104H251.714C251.714 31.184 251.466 32.112 250.97 32.888C250.474 33.656 249.778 34.248 248.882 34.664C247.994 35.08 246.962 35.288 245.786 35.288ZM259.544 19.928V33.368H266.264V35H257.672V19.928H259.544ZM276.627 35.288C275.379 35.288 274.263 35 273.279 34.424C272.295 33.848 271.519 32.984 270.951 31.832C270.383 30.672 270.099 29.224 270.099 27.488C270.099 25.728 270.383 24.272 270.951 23.12C271.519 21.96 272.295 21.096 273.279 20.528C274.263 19.952 275.379 19.664 276.627 19.664C277.875 19.664 278.991 19.952 279.975 20.528C280.959 21.104 281.735 21.972 282.303 23.132C282.871 24.292 283.155 25.744 283.155 27.488C283.155 29.24 282.871 30.696 282.303 31.856C281.735 33.008 280.959 33.868 279.975 34.436C278.991 35.004 277.875 35.288 276.627 35.288ZM276.627 33.56C278.043 33.56 279.159 33.044 279.975 32.012C280.799 30.98 281.211 29.464 281.211 27.464C281.211 25.504 280.799 23.996 279.975 22.94C279.159 21.876 278.043 21.344 276.627 21.344C275.227 21.344 274.111 21.876 273.279 22.94C272.455 24.004 272.043 25.52 272.043 27.488C272.043 29.48 272.455 30.992 273.279 32.024C274.111 33.048 275.227 33.56 276.627 33.56ZM294.015 35.288C293.007 35.288 292.083 35.108 291.243 34.748C290.403 34.38 289.727 33.84 289.215 33.128C288.703 32.416 288.439 31.536 288.423 30.488H290.247C290.247 31.192 290.419 31.772 290.763 32.228C291.107 32.676 291.563 33.012 292.131 33.236C292.699 33.452 293.319 33.56 293.991 33.56C294.719 33.56 295.351 33.444 295.887 33.212C296.423 32.98 296.835 32.676 297.123 32.3C297.419 31.916 297.567 31.496 297.567 31.04C297.567 30.4 297.371 29.884 296.979 29.492C296.587 29.092 296.007 28.768 295.239 28.52L292.575 27.584C291.327 27.136 290.383 26.624 289.743 26.048C289.103 25.472 288.783 24.664 288.783 23.624C288.783 22.456 289.231 21.504 290.127 20.768C291.031 20.032 292.311 19.664 293.967 19.664C295.503 19.664 296.703 20.02 297.567 20.732C298.431 21.436 298.927 22.384 299.055 23.576H297.207C297.087 22.88 296.759 22.34 296.223 21.956C295.695 21.564 294.943 21.368 293.967 21.368C292.975 21.368 292.203 21.588 291.651 22.028C291.099 22.468 290.823 23.024 290.823 23.696C290.823 24.248 290.995 24.688 291.339 25.016C291.691 25.336 292.239 25.624 292.983 25.88L296.103 26.96C297.183 27.32 298.035 27.824 298.659 28.472C299.291 29.12 299.607 29.96 299.607 30.992C299.607 31.792 299.391 32.516 298.959 33.164C298.535 33.812 297.907 34.328 297.075 34.712C296.243 35.096 295.223 35.288 294.015 35.288ZM305.763 19.928H307.635V29.552C307.635 30.968 307.991 31.992 308.703 32.624C309.415 33.248 310.347 33.56 311.499 33.56C312.643 33.56 313.567 33.248 314.271 32.624C314.983 31.992 315.339 30.968 315.339 29.552V19.928H317.211V29.552C317.211 30.816 316.975 31.876 316.503 32.732C316.039 33.58 315.379 34.22 314.523 34.652C313.667 35.076 312.659 35.288 311.499 35.288C310.339 35.288 309.327 35.076 308.463 34.652C307.607 34.22 306.943 33.58 306.471 32.732C305.999 31.876 305.763 30.816 305.763 29.552V19.928ZM324.179 35V19.928H329.435C331.155 19.928 332.455 20.34 333.335 21.164C334.223 21.98 334.667 23.056 334.667 24.392C334.667 25.712 334.223 26.784 333.335 27.608C332.455 28.424 331.155 28.832 329.435 28.832H326.051V35H324.179ZM332.627 35L328.307 28.16H330.347L335.051 35H332.627ZM326.051 27.512H329.291C330.419 27.512 331.275 27.236 331.859 26.684C332.451 26.124 332.747 25.4 332.747 24.512C332.747 23.6 332.463 22.876 331.895 22.34C331.335 21.804 330.515 21.536 329.435 21.536H326.051V27.512ZM341.25 35V19.928H350.538V21.536H343.122V26.6H350.106V28.208H343.122V33.368H350.538V35H341.25Z" fill="#6071CE"/>
</g>
<defs>
<filter id="filter0_d_7079_5810" x="0" y="0" width="370" height="62" filterUnits="userSpaceOnUse" color-interpolation-filters="sRGB">
<feFlood flood-opacity="0" result="BackgroundImageFix"/>
<feColorMatrix in="SourceAlpha" type="matrix" values="0 0 0 0 0 0 0 0 0 0 0 0 0 0 0 0 0 0 127 0" result="hardAlpha"/>
<feOffset dy="4"/>
<feGaussianBlur stdDeviation="3"/>
<feComposite in2="hardAlpha" operator="out"/>
<feColorMatrix type="matrix" values="0 0 0 0 0 0 0 0 0 0 0 0 0 0 0 0 0 0 0.05 0"/>
<feBlend mode="normal" in2="BackgroundImageFix" result="effect1_dropShadow_7079_5810"/>
<feBlend mode="normal" in="SourceGraphic" in2="effect1_dropShadow_7079_5810" result="shape"/>
</filter>
</defs>
</svg>
