<svg width="334" height="62" viewBox="0 0 334 62" fill="none" xmlns="http://www.w3.org/2000/svg">
<g filter="url(#filter0_d_7100_5756)">
<path d="M18 2.5H316C322.351 2.5 327.5 7.64873 327.5 14V40C327.5 46.3513 322.351 51.5 316 51.5H18C11.6487 51.5 6.5 46.3513 6.5 40V14C6.5 7.64873 11.6487 2.5 18 2.5Z" fill="#FFF2EA" stroke="#B49981"/>
<path d="M28.324 29.5339L28.324 29.5339L28.3263 29.5358C29.2253 30.2606 30.3453 30.6559 31.5002 30.6559C32.655 30.6559 33.775 30.2606 34.674 29.5358L34.5485 29.3801L34.6763 29.5339C34.8993 29.3486 35.1868 29.2594 35.4755 29.286C35.6185 29.2992 35.7575 29.3404 35.8845 29.4073C36.0116 29.4742 36.1242 29.5654 36.2159 29.6758C36.4013 29.8988 36.4905 30.1863 36.4638 30.475C36.4372 30.7638 36.297 31.0301 36.074 31.2155L36.0737 31.2157C34.7904 32.287 33.1718 32.8738 31.5002 32.8738C29.8285 32.8738 28.2099 32.287 26.9267 31.2157L26.9263 31.2155C26.7034 31.0301 26.5631 30.7638 26.5365 30.475C26.5099 30.1863 26.5991 29.8988 26.7844 29.6758C26.9697 29.4529 27.2361 29.3126 27.5248 29.286C27.8135 29.2594 28.101 29.3486 28.324 29.5339ZM28.2317 24.824C28.0521 24.944 27.8411 25.008 27.6252 25.008C27.3356 25.008 27.058 24.893 26.8532 24.6883C26.6485 24.4835 26.5335 24.2059 26.5335 23.9163C26.5335 23.7004 26.5975 23.4894 26.7175 23.3098C26.8374 23.1303 27.0079 22.9904 27.2074 22.9078C27.4069 22.8251 27.6264 22.8035 27.8381 22.8457C28.0499 22.8878 28.2444 22.9917 28.3971 23.1444C28.5498 23.2971 28.6537 23.4916 28.6959 23.7034C28.738 23.9151 28.7164 24.1346 28.6337 24.3341C28.5511 24.5336 28.4112 24.7041 28.2317 24.824ZM34.7687 23.0087C34.9482 22.8887 35.1593 22.8247 35.3752 22.8247C35.6647 22.8247 35.9424 22.9397 36.1471 23.1444C36.3518 23.3491 36.4668 23.6268 36.4668 23.9163C36.4668 24.1323 36.4028 24.3433 36.2829 24.5228C36.1629 24.7024 35.9924 24.8423 35.7929 24.9249C35.5935 25.0075 35.374 25.0292 35.1622 24.987C34.9504 24.9449 34.7559 24.8409 34.6032 24.6883C34.4506 24.5356 34.3466 24.3411 34.3045 24.1293C34.2624 23.9176 34.284 23.6981 34.3666 23.4986C34.4492 23.2991 34.5891 23.1286 34.7687 23.0087ZM24.4352 15.9262C26.5264 14.5288 28.985 13.783 31.5002 13.783C33.1701 13.783 34.8238 14.1119 36.3666 14.751C37.9095 15.3901 39.3114 16.3268 40.4922 17.5076C41.6731 18.6885 42.6098 20.0904 43.2488 21.6332C43.8879 23.1761 44.2168 24.8297 44.2168 26.4997C44.2168 29.0148 43.471 31.4734 42.0737 33.5647C40.6764 35.6559 38.6903 37.2859 36.3666 38.2483C34.043 39.2108 31.4861 39.4627 29.0193 38.972C26.5525 38.4813 24.2866 37.2702 22.5081 35.4917C20.7297 33.7133 19.5185 31.4474 19.0278 28.9806C18.5372 26.5138 18.789 23.9569 19.7515 21.6332C20.714 19.3095 22.3439 17.3235 24.4352 15.9262ZM25.6482 35.2578C27.3804 36.4152 29.4169 37.033 31.5002 37.033C34.2938 37.033 36.973 35.9233 38.9484 33.9479C40.9237 31.9725 42.0335 29.2933 42.0335 26.4997C42.0335 24.4164 41.4157 22.3799 40.2583 20.6477C39.1009 18.9155 37.4558 17.5654 35.5311 16.7681C33.6064 15.9709 31.4885 15.7623 29.4452 16.1687C27.402 16.5752 25.5251 17.5784 24.052 19.0515C22.5789 20.5246 21.5757 22.4015 21.1692 24.4447C20.7628 26.488 20.9714 28.6059 21.7686 30.5306C22.5659 32.4553 23.916 34.1004 25.6482 35.2578Z" fill="#997452" stroke="white" stroke-width="0.4"/>
<path d="M59.424 37.928V17H61.296V37.928H59.424ZM81.8779 35.288C80.5499 35.288 79.4059 34.956 78.4459 34.292C77.4859 33.62 76.7459 32.692 76.2259 31.508C75.7059 30.316 75.4459 28.936 75.4459 27.368C75.4459 25.696 75.7259 24.288 76.2859 23.144C76.8539 22 77.6219 21.136 78.5899 20.552C79.5659 19.96 80.6619 19.664 81.8779 19.664C83.4859 19.664 84.7779 20.068 85.7539 20.876C86.7379 21.676 87.4139 22.72 87.7819 24.008L85.7659 24.416C85.4539 23.48 84.9539 22.736 84.2659 22.184C83.5859 21.624 82.7899 21.344 81.8779 21.344C81.0859 21.344 80.3539 21.572 79.6819 22.028C79.0179 22.476 78.4819 23.148 78.0739 24.044C77.6659 24.94 77.4619 26.048 77.4619 27.368C77.4619 28.568 77.6219 29.636 77.9419 30.572C78.2699 31.508 78.7579 32.244 79.4059 32.78C80.0619 33.316 80.8859 33.584 81.8779 33.584C83.0699 33.584 84.0139 33.264 84.7099 32.624C85.4139 31.984 85.7659 31.144 85.7659 30.104H87.8059C87.8059 31.184 87.5579 32.112 87.0619 32.888C86.5659 33.656 85.8699 34.248 84.9739 34.664C84.0859 35.08 83.0539 35.288 81.8779 35.288ZM99.0926 35.288C97.8446 35.288 96.7286 35 95.7446 34.424C94.7606 33.848 93.9846 32.984 93.4166 31.832C92.8486 30.672 92.5646 29.224 92.5646 27.488C92.5646 25.728 92.8486 24.272 93.4166 23.12C93.9846 21.96 94.7606 21.096 95.7446 20.528C96.7286 19.952 97.8446 19.664 99.0926 19.664C100.341 19.664 101.457 19.952 102.441 20.528C103.425 21.104 104.201 21.972 104.769 23.132C105.337 24.292 105.621 25.744 105.621 27.488C105.621 29.24 105.337 30.696 104.769 31.856C104.201 33.008 103.425 33.868 102.441 34.436C101.457 35.004 100.341 35.288 99.0926 35.288ZM99.0926 33.56C100.509 33.56 101.625 33.044 102.441 32.012C103.265 30.98 103.677 29.464 103.677 27.464C103.677 25.504 103.265 23.996 102.441 22.94C101.625 21.876 100.509 21.344 99.0926 21.344C97.6926 21.344 96.5766 21.876 95.7446 22.94C94.9206 24.004 94.5086 25.52 94.5086 27.488C94.5086 29.48 94.9206 30.992 95.7446 32.024C96.5766 33.048 97.6926 33.56 99.0926 33.56ZM111.633 19.928H113.865L121.521 32.336H121.353V19.928H123.225V35H121.137L113.217 22.184H113.505V35H111.633V19.928ZM128.183 21.536V19.928H139.919V21.536H134.555L134.975 21.104V35H133.103V21.104L133.523 21.536H128.183ZM144.863 35V19.928H154.151V21.536H146.735V26.6H153.719V28.208H146.735V33.368H154.151V35H144.863ZM160.739 19.928H162.971L170.627 32.336H170.459V19.928H172.331V35H170.243L162.323 22.184H162.611V35H160.739V19.928ZM177.289 21.536V19.928H189.025V21.536H183.661L184.081 21.104V35H182.209V21.104L182.629 21.536H177.289ZM202.088 35V19.928H207.344C209.064 19.928 210.364 20.34 211.244 21.164C212.132 21.98 212.576 23.056 212.576 24.392C212.576 25.712 212.132 26.784 211.244 27.608C210.364 28.424 209.064 28.832 207.344 28.832H203.96V35H202.088ZM210.536 35L206.216 28.16H208.256L212.96 35H210.536ZM203.96 27.512H207.2C208.328 27.512 209.184 27.236 209.768 26.684C210.36 26.124 210.656 25.4 210.656 24.512C210.656 23.6 210.372 22.876 209.804 22.34C209.244 21.804 208.424 21.536 207.344 21.536H203.96V27.512ZM219.159 35V19.928H228.447V21.536H221.031V26.6H228.015V28.208H221.031V33.368H228.447V35H219.159ZM240.388 35.288C239.14 35.288 238.024 35 237.04 34.424C236.056 33.848 235.28 32.984 234.712 31.832C234.144 30.672 233.86 29.224 233.86 27.488C233.86 25.728 234.144 24.272 234.712 23.12C235.28 21.96 236.056 21.096 237.04 20.528C238.024 19.952 239.14 19.664 240.388 19.664C241.636 19.664 242.752 19.952 243.736 20.528C244.72 21.104 245.496 21.972 246.064 23.132C246.632 24.292 246.916 25.744 246.916 27.488C246.916 29.24 246.632 30.696 246.064 31.856C245.496 33.008 244.72 33.868 243.736 34.436C242.752 35.004 241.636 35.288 240.388 35.288ZM244.9 39.008C244.196 39.008 243.56 38.824 242.992 38.456C242.424 38.096 241.9 37.568 241.42 36.872L239.86 34.64L241.54 34.112L242.932 36.104C243.196 36.464 243.468 36.716 243.748 36.86C244.036 37.012 244.316 37.096 244.588 37.112C245.012 37.112 245.404 37.056 245.764 36.944C246.124 36.832 246.508 36.68 246.916 36.488V38.552C246.556 38.704 246.212 38.816 245.884 38.888C245.556 38.968 245.228 39.008 244.9 39.008ZM240.388 33.56C241.804 33.56 242.92 33.044 243.736 32.012C244.56 30.98 244.972 29.464 244.972 27.464C244.972 25.504 244.56 23.996 243.736 22.94C242.92 21.876 241.804 21.344 240.388 21.344C238.988 21.344 237.872 21.876 237.04 22.94C236.216 24.004 235.804 25.52 235.804 27.488C235.804 29.48 236.216 30.992 237.04 32.024C237.872 33.048 238.988 33.56 240.388 33.56ZM252.757 19.928H254.629V29.552C254.629 30.968 254.985 31.992 255.697 32.624C256.409 33.248 257.341 33.56 258.493 33.56C259.637 33.56 260.561 33.248 261.265 32.624C261.977 31.992 262.333 30.968 262.333 29.552V19.928H264.205V29.552C264.205 30.816 263.969 31.876 263.497 32.732C263.033 33.58 262.373 34.22 261.517 34.652C260.661 35.076 259.653 35.288 258.493 35.288C257.333 35.288 256.321 35.076 255.457 34.652C254.601 34.22 253.937 33.58 253.465 32.732C252.993 31.876 252.757 30.816 252.757 29.552V19.928ZM271.148 35V19.928H280.436V21.536H273.02V26.6H280.004V28.208H273.02V33.368H280.436V35H271.148ZM291.873 35.288C290.865 35.288 289.941 35.108 289.101 34.748C288.261 34.38 287.585 33.84 287.073 33.128C286.561 32.416 286.297 31.536 286.281 30.488H288.105C288.105 31.192 288.277 31.772 288.621 32.228C288.965 32.676 289.421 33.012 289.989 33.236C290.557 33.452 291.177 33.56 291.849 33.56C292.577 33.56 293.209 33.444 293.745 33.212C294.281 32.98 294.693 32.676 294.981 32.3C295.277 31.916 295.425 31.496 295.425 31.04C295.425 30.4 295.229 29.884 294.837 29.492C294.445 29.092 293.865 28.768 293.097 28.52L290.433 27.584C289.185 27.136 288.241 26.624 287.601 26.048C286.961 25.472 286.641 24.664 286.641 23.624C286.641 22.456 287.089 21.504 287.985 20.768C288.889 20.032 290.169 19.664 291.825 19.664C293.361 19.664 294.561 20.02 295.425 20.732C296.289 21.436 296.785 22.384 296.913 23.576H295.065C294.945 22.88 294.617 22.34 294.081 21.956C293.553 21.564 292.801 21.368 291.825 21.368C290.833 21.368 290.061 21.588 289.509 22.028C288.957 22.468 288.681 23.024 288.681 23.696C288.681 24.248 288.853 24.688 289.197 25.016C289.549 25.336 290.097 25.624 290.841 25.88L293.961 26.96C295.041 27.32 295.893 27.824 296.517 28.472C297.149 29.12 297.465 29.96 297.465 30.992C297.465 31.792 297.249 32.516 296.817 33.164C296.393 33.812 295.765 34.328 294.933 34.712C294.101 35.096 293.081 35.288 291.873 35.288ZM301.677 21.536V19.928H313.413V21.536H308.049L308.469 21.104V35H306.597V21.104L307.017 21.536H301.677Z" fill="#997452"/>
</g>
<defs>
<filter id="filter0_d_7100_5756" x="0" y="0" width="334" height="62" filterUnits="userSpaceOnUse" color-interpolation-filters="sRGB">
<feFlood flood-opacity="0" result="BackgroundImageFix"/>
<feColorMatrix in="SourceAlpha" type="matrix" values="0 0 0 0 0 0 0 0 0 0 0 0 0 0 0 0 0 0 127 0" result="hardAlpha"/>
<feOffset dy="4"/>
<feGaussianBlur stdDeviation="3"/>
<feComposite in2="hardAlpha" operator="out"/>
<feColorMatrix type="matrix" values="0 0 0 0 0 0 0 0 0 0 0 0 0 0 0 0 0 0 0.05 0"/>
<feBlend mode="normal" in2="BackgroundImageFix" result="effect1_dropShadow_7100_5756"/>
<feBlend mode="normal" in="SourceGraphic" in2="effect1_dropShadow_7100_5756" result="shape"/>
</filter>
</defs>
</svg>
