<svg width="330" height="62" viewBox="0 0 330 62" fill="none" xmlns="http://www.w3.org/2000/svg">
<g filter="url(#filter0_d_7090_5764)">
<rect x="6.5" y="2.5" width="317" height="49" rx="11.5" fill="#FAFAFA" stroke="#B9B9B9"/>
<path d="M32.5917 20.0413V20.2413H32.7917H37.9583C38.933 20.2413 39.8678 20.6285 40.557 21.3177C41.2461 22.0069 41.6333 22.9417 41.6333 23.9163V35.5413C41.6333 36.516 41.2461 37.4508 40.557 38.14C39.8678 38.8292 38.933 39.2163 37.9583 39.2163H25.0417C24.067 39.2163 23.1322 38.8292 22.443 38.14C21.7539 37.4508 21.3667 36.516 21.3667 35.5413V23.9163C21.3667 22.9417 21.7539 22.0069 22.443 21.3177C23.1322 20.6285 24.067 20.2413 25.0417 20.2413H30.2083H30.4083V20.0413V18.388V18.2725L30.3083 18.2148C29.9481 18.0068 29.6486 17.7082 29.4395 17.3487C29.2306 16.9893 29.1193 16.5815 29.1167 16.1658C29.1168 15.5339 29.3679 14.9279 29.8147 14.4811C30.2617 14.0341 30.8679 13.783 31.5 13.783C32.1321 13.783 32.7383 14.0341 33.1853 14.4811C33.6321 14.9279 33.8832 15.5339 33.8833 16.1658C33.8807 16.5815 33.7694 16.9893 33.5605 17.3487C33.3514 17.7082 33.0519 18.0068 32.6917 18.2148L32.5917 18.2725V18.388V20.0413ZM33.9157 22.6732L33.9778 22.4247H33.7217H29.2783H29.0222L29.0843 22.6732L29.7301 25.2565L29.768 25.408H29.9242H33.0758H33.232L33.2699 25.2565L33.9157 22.6732ZM26.8119 22.5779L26.7751 22.4247H26.6175H25.0417C24.6461 22.4247 24.2666 22.5818 23.9869 22.8616C23.7072 23.1413 23.55 23.5207 23.55 23.9163V35.5413C23.55 35.937 23.7072 36.3164 23.9869 36.5961C24.2666 36.8759 24.6461 37.033 25.0417 37.033H37.9583C38.3539 37.033 38.7334 36.8759 39.0131 36.5961C39.2928 36.3164 39.45 35.937 39.45 35.5413V23.9163C39.45 23.5207 39.2928 23.1413 39.0131 22.8616C38.7334 22.5818 38.3539 22.4247 37.9583 22.4247H36.3825H36.2249L36.1881 22.5779L35.1808 26.7618C35.1808 26.7619 35.1807 26.7621 35.1807 26.7622C35.1209 27.0043 34.98 27.2185 34.7815 27.3694C34.5829 27.5203 34.3385 27.5987 34.0892 27.5914L34.0892 27.5913H34.0833H28.9167V27.5913L28.9108 27.5914C28.6615 27.5987 28.4171 27.5203 28.2185 27.3694C28.02 27.2185 27.8791 27.0043 27.8193 26.7622C27.8193 26.7621 27.8192 26.7619 27.8192 26.7618L26.8119 22.5779ZM27.0185 30.7587C27.198 30.6387 27.4091 30.5747 27.625 30.5747C27.9145 30.5747 28.1922 30.6897 28.3969 30.8944C28.6017 31.0991 28.7167 31.3768 28.7167 31.6663C28.7167 31.8823 28.6526 32.0933 28.5327 32.2728C28.4127 32.4524 28.2422 32.5923 28.0428 32.6749C27.8433 32.7575 27.6238 32.7792 27.412 32.737C27.2003 32.6949 27.0057 32.5909 26.8531 32.4383C26.7004 32.2856 26.5964 32.0911 26.5543 31.8793C26.5122 31.6676 26.5338 31.4481 26.6164 31.2486C26.6991 31.0491 26.839 30.8786 27.0185 30.7587ZM17.8114 29.6028C18.0161 29.398 18.2938 29.283 18.5833 29.283C18.8729 29.283 19.1505 29.398 19.3553 29.6028C19.56 29.8075 19.675 30.0851 19.675 30.3747V32.958C19.675 33.2475 19.56 33.5252 19.3553 33.7299C19.1505 33.9347 18.8729 34.0497 18.5833 34.0497C18.2938 34.0497 18.0161 33.9347 17.8114 33.7299C17.6067 33.5252 17.4917 33.2475 17.4917 32.958V30.3747C17.4917 30.0851 17.6067 29.8075 17.8114 29.6028ZM43.6447 29.6028C43.8495 29.398 44.1271 29.283 44.4167 29.283C44.7062 29.283 44.9839 29.398 45.1886 29.6028C45.3933 29.8075 45.5083 30.0851 45.5083 30.3747V32.958C45.5083 33.2475 45.3933 33.5252 45.1886 33.7299C44.9839 33.9347 44.7062 34.0497 44.4167 34.0497C44.1271 34.0497 43.8495 33.9347 43.6447 33.7299C43.44 33.5252 43.325 33.2475 43.325 32.958V30.3747C43.325 30.0851 43.44 29.8075 43.6447 29.6028ZM34.7685 30.7587C34.948 30.6387 35.1591 30.5747 35.375 30.5747C35.6645 30.5747 35.9422 30.6897 36.1469 30.8944C36.3517 31.0991 36.4667 31.3768 36.4667 31.6663C36.4667 31.8823 36.4026 32.0933 36.2827 32.2728C36.1627 32.4524 35.9922 32.5923 35.7928 32.6749C35.5933 32.7575 35.3738 32.7792 35.162 32.737C34.9503 32.6949 34.7557 32.5909 34.6031 32.4383C34.4504 32.2856 34.3464 32.0911 34.3043 31.8793C34.2622 31.6676 34.2838 31.4481 34.3664 31.2486C34.4491 31.0491 34.589 30.8786 34.7685 30.7587Z" fill="#7D7D7D" stroke="white" stroke-width="0.4"/>
<path d="M59.424 37.928V17H61.296V37.928H59.424ZM81.8779 35.288C80.5499 35.288 79.4059 34.956 78.4459 34.292C77.4859 33.62 76.7459 32.692 76.2259 31.508C75.7059 30.316 75.4459 28.936 75.4459 27.368C75.4459 25.696 75.7259 24.288 76.2859 23.144C76.8539 22 77.6219 21.136 78.5899 20.552C79.5659 19.96 80.6619 19.664 81.8779 19.664C83.4859 19.664 84.7779 20.068 85.7539 20.876C86.7379 21.676 87.4139 22.72 87.7819 24.008L85.7659 24.416C85.4539 23.48 84.9539 22.736 84.2659 22.184C83.5859 21.624 82.7899 21.344 81.8779 21.344C81.0859 21.344 80.3539 21.572 79.6819 22.028C79.0179 22.476 78.4819 23.148 78.0739 24.044C77.6659 24.94 77.4619 26.048 77.4619 27.368C77.4619 28.568 77.6219 29.636 77.9419 30.572C78.2699 31.508 78.7579 32.244 79.4059 32.78C80.0619 33.316 80.8859 33.584 81.8779 33.584C83.0699 33.584 84.0139 33.264 84.7099 32.624C85.4139 31.984 85.7659 31.144 85.7659 30.104H87.8059C87.8059 31.184 87.5579 32.112 87.0619 32.888C86.5659 33.656 85.8699 34.248 84.9739 34.664C84.0859 35.08 83.0539 35.288 81.8779 35.288ZM99.0926 35.288C97.8446 35.288 96.7286 35 95.7446 34.424C94.7606 33.848 93.9846 32.984 93.4166 31.832C92.8486 30.672 92.5646 29.224 92.5646 27.488C92.5646 25.728 92.8486 24.272 93.4166 23.12C93.9846 21.96 94.7606 21.096 95.7446 20.528C96.7286 19.952 97.8446 19.664 99.0926 19.664C100.341 19.664 101.457 19.952 102.441 20.528C103.425 21.104 104.201 21.972 104.769 23.132C105.337 24.292 105.621 25.744 105.621 27.488C105.621 29.24 105.337 30.696 104.769 31.856C104.201 33.008 103.425 33.868 102.441 34.436C101.457 35.004 100.341 35.288 99.0926 35.288ZM99.0926 33.56C100.509 33.56 101.625 33.044 102.441 32.012C103.265 30.98 103.677 29.464 103.677 27.464C103.677 25.504 103.265 23.996 102.441 22.94C101.625 21.876 100.509 21.344 99.0926 21.344C97.6926 21.344 96.5766 21.876 95.7446 22.94C94.9206 24.004 94.5086 25.52 94.5086 27.488C94.5086 29.48 94.9206 30.992 95.7446 32.024C96.5766 33.048 97.6926 33.56 99.0926 33.56ZM111.633 19.928H113.865L121.521 32.336H121.353V19.928H123.225V35H121.137L113.217 22.184H113.505V35H111.633V19.928ZM128.183 21.536V19.928H139.919V21.536H134.555L134.975 21.104V35H133.103V21.104L133.523 21.536H128.183ZM144.863 35V19.928H154.151V21.536H146.735V26.6H153.719V28.208H146.735V33.368H154.151V35H144.863ZM160.739 19.928H162.971L170.627 32.336H170.459V19.928H172.331V35H170.243L162.323 22.184H162.611V35H160.739V19.928ZM177.289 21.536V19.928H189.025V21.536H183.661L184.081 21.104V35H182.209V21.104L182.629 21.536H177.289ZM203.96 19.928V33.368H210.68V35H202.088V19.928H203.96ZM221.043 35.288C219.795 35.288 218.679 35 217.695 34.424C216.711 33.848 215.935 32.984 215.367 31.832C214.799 30.672 214.515 29.224 214.515 27.488C214.515 25.728 214.799 24.272 215.367 23.12C215.935 21.96 216.711 21.096 217.695 20.528C218.679 19.952 219.795 19.664 221.043 19.664C222.291 19.664 223.407 19.952 224.391 20.528C225.375 21.104 226.151 21.972 226.719 23.132C227.287 24.292 227.571 25.744 227.571 27.488C227.571 29.24 227.287 30.696 226.719 31.856C226.151 33.008 225.375 33.868 224.391 34.436C223.407 35.004 222.291 35.288 221.043 35.288ZM221.043 33.56C222.459 33.56 223.575 33.044 224.391 32.012C225.215 30.98 225.627 29.464 225.627 27.464C225.627 25.504 225.215 23.996 224.391 22.94C223.575 21.876 222.459 21.344 221.043 21.344C219.643 21.344 218.527 21.876 217.695 22.94C216.871 24.004 216.459 25.52 216.459 27.488C216.459 29.48 216.871 30.992 217.695 32.024C218.527 33.048 219.643 33.56 221.043 33.56ZM238.839 35.288C237.511 35.288 236.367 34.956 235.407 34.292C234.447 33.62 233.707 32.692 233.187 31.508C232.667 30.316 232.407 28.936 232.407 27.368C232.407 25.696 232.687 24.288 233.247 23.144C233.815 22 234.583 21.136 235.551 20.552C236.527 19.96 237.623 19.664 238.839 19.664C240.447 19.664 241.739 20.068 242.715 20.876C243.699 21.676 244.375 22.72 244.743 24.008L242.727 24.416C242.415 23.48 241.915 22.736 241.227 22.184C240.547 21.624 239.751 21.344 238.839 21.344C238.047 21.344 237.315 21.572 236.643 22.028C235.979 22.476 235.443 23.148 235.035 24.044C234.627 24.94 234.423 26.048 234.423 27.368C234.423 28.568 234.583 29.636 234.903 30.572C235.231 31.508 235.719 32.244 236.367 32.78C237.023 33.316 237.847 33.584 238.839 33.584C240.031 33.584 240.975 33.264 241.671 32.624C242.375 31.984 242.727 31.144 242.727 30.104H244.767C244.767 31.184 244.519 32.112 244.023 32.888C243.527 33.656 242.831 34.248 241.935 34.664C241.047 35.08 240.015 35.288 238.839 35.288ZM248.926 35L254.11 19.928H256.39L261.454 35H259.486L258.214 31.136H252.214L250.894 35H248.926ZM252.694 29.672H257.734L255.214 22.208L252.694 29.672ZM268.779 19.928V33.368H275.499V35H266.907V19.928H268.779ZM280.533 35V19.928H282.405V35H280.533ZM288.988 35V33.32L298.228 21.008V21.704L288.988 21.632V19.928H300.052V21.608L291.1 33.536L290.956 33.224L300.052 33.296V35H288.988ZM304.559 33.884C304.559 33.508 304.691 33.184 304.955 32.912C305.219 32.64 305.551 32.504 305.951 32.504C306.351 32.504 306.691 32.64 306.971 32.912C307.251 33.184 307.391 33.508 307.391 33.884C307.391 34.26 307.251 34.576 306.971 34.832C306.691 35.088 306.351 35.216 305.951 35.216C305.551 35.216 305.219 35.088 304.955 34.832C304.691 34.568 304.559 34.252 304.559 33.884Z" fill="#7D7D7D"/>
</g>
<defs>
<filter id="filter0_d_7090_5764" x="0" y="0" width="330" height="62" filterUnits="userSpaceOnUse" color-interpolation-filters="sRGB">
<feFlood flood-opacity="0" result="BackgroundImageFix"/>
<feColorMatrix in="SourceAlpha" type="matrix" values="0 0 0 0 0 0 0 0 0 0 0 0 0 0 0 0 0 0 127 0" result="hardAlpha"/>
<feOffset dy="4"/>
<feGaussianBlur stdDeviation="3"/>
<feComposite in2="hardAlpha" operator="out"/>
<feColorMatrix type="matrix" values="0 0 0 0 0 0 0 0 0 0 0 0 0 0 0 0 0 0 0.05 0"/>
<feBlend mode="normal" in2="BackgroundImageFix" result="effect1_dropShadow_7090_5764"/>
<feBlend mode="normal" in="SourceGraphic" in2="effect1_dropShadow_7090_5764" result="shape"/>
</filter>
</defs>
</svg>
