<svg width="273" height="62" viewBox="0 0 273 62" fill="none" xmlns="http://www.w3.org/2000/svg">
<g filter="url(#filter0_d_7086_5759)">
<path d="M18 2.5H255C261.351 2.5 266.5 7.64873 266.5 14V40C266.5 46.3513 261.351 51.5 255 51.5H18C11.6487 51.5 6.5 46.3513 6.5 40V14C6.5 7.64873 11.6487 2.5 18 2.5Z" fill="#F1F3FF" stroke="#ABB4E5"/>
<path d="M34.674 29.5358L34.674 29.5358L34.6763 29.5339C34.8993 29.3486 35.1868 29.2594 35.4755 29.286C35.6185 29.2992 35.7575 29.3404 35.8845 29.4073C36.0116 29.4742 36.1242 29.5654 36.2159 29.6758C36.4013 29.8988 36.4905 30.1863 36.4638 30.475C36.4372 30.7638 36.297 31.0301 36.074 31.2155L36.0737 31.2157C34.7904 32.287 33.1718 32.8738 31.5002 32.8738C29.8285 32.8738 28.2099 32.287 26.9267 31.2157L26.9263 31.2155C26.7034 31.0301 26.5631 30.7638 26.5365 30.475C26.5099 30.1863 26.5991 29.8988 26.7844 29.6758C26.9697 29.4529 27.2361 29.3126 27.5248 29.286C27.8135 29.2594 28.101 29.3486 28.324 29.5339L28.324 29.5339L28.3263 29.5358C29.2253 30.2606 30.3453 30.6559 31.5002 30.6559C32.655 30.6559 33.775 30.2606 34.674 29.5358ZM28.2317 24.824C28.0521 24.944 27.8411 25.008 27.6252 25.008C27.3356 25.008 27.058 24.893 26.8532 24.6883C26.6485 24.4835 26.5335 24.2059 26.5335 23.9163C26.5335 23.7004 26.5975 23.4894 26.7175 23.3098C26.8374 23.1303 27.0079 22.9904 27.2074 22.9078C27.4069 22.8251 27.6264 22.8035 27.8381 22.8457C28.0499 22.8878 28.2444 22.9917 28.3971 23.1444C28.5498 23.2971 28.6537 23.4916 28.6959 23.7034C28.738 23.9151 28.7164 24.1346 28.6337 24.3341C28.5511 24.5336 28.4112 24.7041 28.2317 24.824ZM34.7687 23.0087C34.9482 22.8887 35.1593 22.8247 35.3752 22.8247C35.6647 22.8247 35.9424 22.9397 36.1471 23.1444C36.3518 23.3491 36.4668 23.6268 36.4668 23.9163C36.4668 24.1323 36.4028 24.3433 36.2829 24.5228C36.1629 24.7024 35.9924 24.8423 35.7929 24.9249C35.5935 25.0075 35.374 25.0292 35.1622 24.987C34.9504 24.9449 34.7559 24.8409 34.6032 24.6883C34.4506 24.5356 34.3466 24.3411 34.3045 24.1293C34.2624 23.9176 34.284 23.6981 34.3666 23.4986C34.4492 23.2991 34.5891 23.1286 34.7687 23.0087ZM24.4352 15.9262C26.5264 14.5288 28.9851 13.783 31.5002 13.783C33.1701 13.783 34.8238 14.1119 36.3666 14.751C37.9095 15.3901 39.3114 16.3268 40.4922 17.5076C41.6731 18.6885 42.6098 20.0904 43.2488 21.6332C43.8879 23.1761 44.2168 24.8297 44.2168 26.4997C44.2168 29.0148 43.471 31.4734 42.0737 33.5647C40.6764 35.6559 38.6903 37.2859 36.3666 38.2483C34.043 39.2108 31.4861 39.4627 29.0193 38.972C26.5525 38.4813 24.2866 37.2702 22.5081 35.4917C20.7297 33.7133 19.5185 31.4474 19.0278 28.9806C18.5372 26.5138 18.789 23.9569 19.7515 21.6332C20.714 19.3095 22.3439 17.3235 24.4352 15.9262ZM25.6482 35.2578C27.3804 36.4152 29.4169 37.033 31.5002 37.033C34.2938 37.033 36.973 35.9233 38.9484 33.9479C40.9237 31.9725 42.0335 29.2933 42.0335 26.4997C42.0335 24.4164 41.4157 22.3799 40.2583 20.6477C39.1009 18.9155 37.4558 17.5654 35.5311 16.7681C33.6064 15.9709 31.4885 15.7623 29.4452 16.1687C27.402 16.5752 25.5251 17.5784 24.052 19.0515C22.5789 20.5246 21.5757 22.4015 21.1692 24.4447C20.7628 26.488 20.9714 28.6059 21.7686 30.5306C22.5659 32.4553 23.916 34.1004 25.6482 35.2578Z" fill="#6071CE" stroke="white" stroke-width="0.4"/>
<path d="M59.424 37.928V17H61.296V37.928H59.424ZM78.5179 19.928V33.368H85.2379V35H76.6459V19.928H78.5179ZM90.2724 35V19.928H92.1444V35H90.2724ZM99.375 19.928H101.607L109.263 32.336H109.095V19.928H110.967V35H108.879L100.959 22.184H101.247V35H99.375V19.928ZM126.869 19.928H129.461L119.837 29.84V27.2L126.869 19.928ZM122.549 26.288L129.869 35H127.421L121.205 27.512L122.549 26.288ZM118.205 19.928H120.101V35H118.205V19.928ZM143.279 35V19.928H148.535C150.255 19.928 151.555 20.34 152.435 21.164C153.323 21.98 153.767 23.056 153.767 24.392C153.767 25.712 153.323 26.784 152.435 27.608C151.555 28.424 150.255 28.832 148.535 28.832H145.151V35H143.279ZM151.727 35L147.407 28.16H149.447L154.151 35H151.727ZM145.151 27.512H148.391C149.519 27.512 150.375 27.236 150.959 26.684C151.551 26.124 151.847 25.4 151.847 24.512C151.847 23.6 151.563 22.876 150.995 22.34C150.435 21.804 149.615 21.536 148.535 21.536H145.151V27.512ZM160.35 35V19.928H169.638V21.536H162.222V26.6H169.206V28.208H162.222V33.368H169.638V35H160.35ZM181.579 35.288C180.331 35.288 179.215 35 178.231 34.424C177.247 33.848 176.471 32.984 175.903 31.832C175.335 30.672 175.051 29.224 175.051 27.488C175.051 25.728 175.335 24.272 175.903 23.12C176.471 21.96 177.247 21.096 178.231 20.528C179.215 19.952 180.331 19.664 181.579 19.664C182.827 19.664 183.943 19.952 184.927 20.528C185.911 21.104 186.687 21.972 187.255 23.132C187.823 24.292 188.107 25.744 188.107 27.488C188.107 29.24 187.823 30.696 187.255 31.856C186.687 33.008 185.911 33.868 184.927 34.436C183.943 35.004 182.827 35.288 181.579 35.288ZM186.091 39.008C185.387 39.008 184.751 38.824 184.183 38.456C183.615 38.096 183.091 37.568 182.611 36.872L181.051 34.64L182.731 34.112L184.123 36.104C184.387 36.464 184.659 36.716 184.939 36.86C185.227 37.012 185.507 37.096 185.779 37.112C186.203 37.112 186.595 37.056 186.955 36.944C187.315 36.832 187.699 36.68 188.107 36.488V38.552C187.747 38.704 187.403 38.816 187.075 38.888C186.747 38.968 186.419 39.008 186.091 39.008ZM181.579 33.56C182.995 33.56 184.111 33.044 184.927 32.012C185.751 30.98 186.163 29.464 186.163 27.464C186.163 25.504 185.751 23.996 184.927 22.94C184.111 21.876 182.995 21.344 181.579 21.344C180.179 21.344 179.063 21.876 178.231 22.94C177.407 24.004 176.995 25.52 176.995 27.488C176.995 29.48 177.407 30.992 178.231 32.024C179.063 33.048 180.179 33.56 181.579 33.56ZM193.947 19.928H195.819V29.552C195.819 30.968 196.175 31.992 196.887 32.624C197.599 33.248 198.531 33.56 199.683 33.56C200.827 33.56 201.751 33.248 202.455 32.624C203.167 31.992 203.523 30.968 203.523 29.552V19.928H205.395V29.552C205.395 30.816 205.159 31.876 204.687 32.732C204.223 33.58 203.563 34.22 202.707 34.652C201.851 35.076 200.843 35.288 199.683 35.288C198.523 35.288 197.511 35.076 196.647 34.652C195.791 34.22 195.127 33.58 194.655 32.732C194.183 31.876 193.947 30.816 193.947 29.552V19.928ZM212.339 35V19.928H221.627V21.536H214.211V26.6H221.195V28.208H214.211V33.368H221.627V35H212.339ZM233.064 35.288C232.056 35.288 231.132 35.108 230.292 34.748C229.452 34.38 228.776 33.84 228.264 33.128C227.752 32.416 227.488 31.536 227.472 30.488H229.296C229.296 31.192 229.468 31.772 229.812 32.228C230.156 32.676 230.612 33.012 231.18 33.236C231.748 33.452 232.368 33.56 233.04 33.56C233.768 33.56 234.4 33.444 234.936 33.212C235.472 32.98 235.884 32.676 236.172 32.3C236.468 31.916 236.616 31.496 236.616 31.04C236.616 30.4 236.42 29.884 236.028 29.492C235.636 29.092 235.056 28.768 234.288 28.52L231.624 27.584C230.376 27.136 229.432 26.624 228.792 26.048C228.152 25.472 227.832 24.664 227.832 23.624C227.832 22.456 228.28 21.504 229.176 20.768C230.08 20.032 231.36 19.664 233.016 19.664C234.552 19.664 235.752 20.02 236.616 20.732C237.48 21.436 237.976 22.384 238.104 23.576H236.256C236.136 22.88 235.808 22.34 235.272 21.956C234.744 21.564 233.992 21.368 233.016 21.368C232.024 21.368 231.252 21.588 230.7 22.028C230.148 22.468 229.872 23.024 229.872 23.696C229.872 24.248 230.044 24.688 230.388 25.016C230.74 25.336 231.288 25.624 232.032 25.88L235.152 26.96C236.232 27.32 237.084 27.824 237.708 28.472C238.34 29.12 238.656 29.96 238.656 30.992C238.656 31.792 238.44 32.516 238.008 33.164C237.584 33.812 236.956 34.328 236.124 34.712C235.292 35.096 234.272 35.288 233.064 35.288ZM242.867 21.536V19.928H254.603V21.536H249.239L249.659 21.104V35H247.787V21.104L248.207 21.536H242.867Z" fill="#6071CE"/>
</g>
<defs>
<filter id="filter0_d_7086_5759" x="0" y="0" width="273" height="62" filterUnits="userSpaceOnUse" color-interpolation-filters="sRGB">
<feFlood flood-opacity="0" result="BackgroundImageFix"/>
<feColorMatrix in="SourceAlpha" type="matrix" values="0 0 0 0 0 0 0 0 0 0 0 0 0 0 0 0 0 0 127 0" result="hardAlpha"/>
<feOffset dy="4"/>
<feGaussianBlur stdDeviation="3"/>
<feComposite in2="hardAlpha" operator="out"/>
<feColorMatrix type="matrix" values="0 0 0 0 0 0 0 0 0 0 0 0 0 0 0 0 0 0 0.05 0"/>
<feBlend mode="normal" in2="BackgroundImageFix" result="effect1_dropShadow_7086_5759"/>
<feBlend mode="normal" in="SourceGraphic" in2="effect1_dropShadow_7086_5759" result="shape"/>
</filter>
</defs>
</svg>
