<svg width="335" height="62" viewBox="0 0 335 62" fill="none" xmlns="http://www.w3.org/2000/svg">
<g filter="url(#filter0_d_7099_5783)">
<rect x="6.5" y="2.5" width="322" height="49" rx="11.5" fill="#F1F3FF" stroke="#ABB4E5"/>
<path d="M32.8219 20.0413V20.2413H33.0219H38.233C39.217 20.2413 40.1605 20.6289 40.8558 21.3183C41.551 22.0077 41.9413 22.9422 41.9413 23.9163V35.5413C41.9413 36.5155 41.551 37.45 40.8558 38.1394C40.1605 38.8287 39.217 39.2163 38.233 39.2163H25.2053C24.2212 39.2163 23.2778 38.8287 22.5825 38.1394C21.8873 37.45 21.497 36.5155 21.497 35.5413V23.9163C21.497 22.9422 21.8873 22.0077 22.5825 21.3183C23.2778 20.6289 24.2212 20.2413 25.2053 20.2413H30.4164H30.6164V20.0413V18.388V18.272L30.5157 18.2144C30.1521 18.0063 29.8499 17.7075 29.6391 17.348C29.4284 16.9887 29.3162 16.5811 29.3136 16.1657C29.3138 15.5344 29.5668 14.9286 30.0176 14.4817C30.4686 14.0345 31.0806 13.783 31.7191 13.783C32.3577 13.783 32.9697 14.0345 33.4207 14.4817C33.8715 14.9286 34.1245 15.5344 34.1247 16.1657C34.122 16.5811 34.0099 16.9887 33.7992 17.348C33.5884 17.7075 33.2862 18.0063 32.9226 18.2144L32.8219 18.272V18.388V20.0413ZM34.1538 22.6736L34.2166 22.4247H33.9599H29.4784H29.2217L29.2844 22.6736L29.9358 25.2569L29.9739 25.408H30.1298H33.3085H33.4643L33.5024 25.2569L34.1538 22.6736ZM26.989 22.5775L26.9519 22.4247H26.7947H25.2053C24.8073 22.4247 24.4252 22.5814 24.1433 22.861C23.8613 23.1406 23.7025 23.5202 23.7025 23.9163V35.5413C23.7025 35.9375 23.8613 36.3171 24.1433 36.5967C24.4252 36.8763 24.8073 37.033 25.2053 37.033H38.233C38.631 37.033 39.013 36.8763 39.295 36.5967C39.577 36.3171 39.7358 35.9375 39.7358 35.5413V23.9163C39.7358 23.5202 39.577 23.1406 39.295 22.861C39.013 22.5814 38.631 22.4247 38.233 22.4247H36.6436H36.4864L36.4493 22.5775L35.4334 26.7614C35.4333 26.7615 35.4333 26.7616 35.4333 26.7618C35.373 27.0035 35.231 27.2178 35.0305 27.3689C34.8299 27.5201 34.5828 27.5987 34.3305 27.5914L34.3305 27.5913H34.3247H29.1136V27.5913L29.1078 27.5914C28.8555 27.5987 28.6084 27.5201 28.4077 27.3689C28.2073 27.2178 28.0653 27.0036 28.005 26.7619C28.005 26.7617 28.005 26.7616 28.0049 26.7614L26.989 22.5775ZM27.1975 30.7591C27.3789 30.6389 27.5923 30.5747 27.8108 30.5747C28.1039 30.5747 28.3845 30.6901 28.5912 30.895C28.7978 31.0999 28.9136 31.3774 28.9136 31.6663C28.9136 31.8819 28.8491 32.0927 28.7282 32.2722C28.6072 32.4517 28.4351 32.5918 28.2334 32.6747C28.0317 32.7575 27.8096 32.7792 27.5954 32.737C27.3811 32.6947 27.1846 32.5905 27.0304 32.4377C26.8763 32.2849 26.7716 32.0904 26.7292 31.879C26.6868 31.6676 26.7085 31.4484 26.7918 31.2491C26.875 31.0499 27.0161 30.8793 27.1975 30.7591ZM17.9111 29.6034C18.1177 29.3984 18.3984 29.283 18.6914 29.283C18.9845 29.283 19.2651 29.3984 19.4718 29.6034C19.6784 29.8082 19.7942 30.0857 19.7942 30.3747V32.958C19.7942 33.247 19.6784 33.5245 19.4718 33.7293C19.2651 33.9342 18.9845 34.0497 18.6914 34.0497C18.3984 34.0497 18.1177 33.9342 17.9111 33.7293C17.7044 33.5245 17.5887 33.247 17.5887 32.958V30.3747C17.5887 30.0857 17.7044 29.8082 17.9111 29.6034ZM43.9665 29.6034C44.1731 29.3984 44.4538 29.283 44.7468 29.283C45.0399 29.283 45.3205 29.3984 45.5272 29.6034C45.7338 29.8082 45.8496 30.0857 45.8496 30.3747V32.958C45.8496 33.247 45.7338 33.5245 45.5272 33.7293C45.3205 33.9342 45.0399 34.0497 44.7468 34.0497C44.4538 34.0497 44.1731 33.9342 43.9665 33.7293C43.7598 33.5245 43.6441 33.247 43.6441 32.958V30.3747C43.6441 30.0857 43.7598 29.8082 43.9665 29.6034ZM35.0141 30.7591C35.1955 30.6389 35.409 30.5747 35.6274 30.5747C35.9205 30.5747 36.2012 30.6901 36.4078 30.895C36.6145 31.0999 36.7302 31.3774 36.7302 31.6663C36.7302 31.8819 36.6658 32.0927 36.5448 32.2722C36.4238 32.4517 36.2517 32.5918 36.05 32.6747C35.8483 32.7575 35.6262 32.7792 35.412 32.737C35.1977 32.6947 35.0012 32.5905 34.8471 32.4377C34.693 32.2849 34.5882 32.0904 34.5458 31.879C34.5034 31.6676 34.5251 31.4484 34.6084 31.2491C34.6916 31.0499 34.8327 30.8793 35.0141 30.7591Z" fill="#6071CE" stroke="white" stroke-width="0.4"/>
<path d="M59.424 37.928V17H61.296V37.928H59.424ZM78.5179 19.928V33.368H85.2379V35H76.6459V19.928H78.5179ZM95.6004 35.288C94.3524 35.288 93.2364 35 92.2524 34.424C91.2684 33.848 90.4924 32.984 89.9244 31.832C89.3564 30.672 89.0724 29.224 89.0724 27.488C89.0724 25.728 89.3564 24.272 89.9244 23.12C90.4924 21.96 91.2684 21.096 92.2524 20.528C93.2364 19.952 94.3524 19.664 95.6004 19.664C96.8484 19.664 97.9644 19.952 98.9484 20.528C99.9324 21.104 100.708 21.972 101.276 23.132C101.844 24.292 102.128 25.744 102.128 27.488C102.128 29.24 101.844 30.696 101.276 31.856C100.708 33.008 99.9324 33.868 98.9484 34.436C97.9644 35.004 96.8484 35.288 95.6004 35.288ZM95.6004 33.56C97.0164 33.56 98.1324 33.044 98.9484 32.012C99.7724 30.98 100.184 29.464 100.184 27.464C100.184 25.504 99.7724 23.996 98.9484 22.94C98.1324 21.876 97.0164 21.344 95.6004 21.344C94.2004 21.344 93.0844 21.876 92.2524 22.94C91.4284 24.004 91.0164 25.52 91.0164 27.488C91.0164 29.48 91.4284 30.992 92.2524 32.024C93.0844 33.048 94.2004 33.56 95.6004 33.56ZM113.397 35.288C112.069 35.288 110.925 34.956 109.965 34.292C109.005 33.62 108.265 32.692 107.745 31.508C107.225 30.316 106.965 28.936 106.965 27.368C106.965 25.696 107.245 24.288 107.805 23.144C108.373 22 109.141 21.136 110.109 20.552C111.085 19.96 112.181 19.664 113.397 19.664C115.005 19.664 116.297 20.068 117.273 20.876C118.257 21.676 118.933 22.72 119.301 24.008L117.285 24.416C116.973 23.48 116.473 22.736 115.785 22.184C115.105 21.624 114.309 21.344 113.397 21.344C112.605 21.344 111.873 21.572 111.201 22.028C110.537 22.476 110.001 23.148 109.593 24.044C109.185 24.94 108.981 26.048 108.981 27.368C108.981 28.568 109.141 29.636 109.461 30.572C109.789 31.508 110.277 32.244 110.925 32.78C111.581 33.316 112.405 33.584 113.397 33.584C114.589 33.584 115.533 33.264 116.229 32.624C116.933 31.984 117.285 31.144 117.285 30.104H119.325C119.325 31.184 119.077 32.112 118.581 32.888C118.085 33.656 117.389 34.248 116.493 34.664C115.605 35.08 114.573 35.288 113.397 35.288ZM123.483 35L128.667 19.928H130.947L136.011 35H134.043L132.771 31.136H126.771L125.451 35H123.483ZM127.251 29.672H132.291L129.771 22.208L127.251 29.672ZM138.2 21.536V19.928H149.936V21.536H144.572L144.992 21.104V35H143.12V21.104L143.54 21.536H138.2ZM154.904 35V19.928H156.776V35H154.904ZM169.358 35.288C168.11 35.288 166.994 35 166.01 34.424C165.026 33.848 164.25 32.984 163.682 31.832C163.114 30.672 162.83 29.224 162.83 27.488C162.83 25.728 163.114 24.272 163.682 23.12C164.25 21.96 165.026 21.096 166.01 20.528C166.994 19.952 168.11 19.664 169.358 19.664C170.606 19.664 171.722 19.952 172.706 20.528C173.69 21.104 174.466 21.972 175.034 23.132C175.602 24.292 175.886 25.744 175.886 27.488C175.886 29.24 175.602 30.696 175.034 31.856C174.466 33.008 173.69 33.868 172.706 34.436C171.722 35.004 170.606 35.288 169.358 35.288ZM169.358 33.56C170.774 33.56 171.89 33.044 172.706 32.012C173.53 30.98 173.942 29.464 173.942 27.464C173.942 25.504 173.53 23.996 172.706 22.94C171.89 21.876 170.774 21.344 169.358 21.344C167.958 21.344 166.842 21.876 166.01 22.94C165.186 24.004 164.774 25.52 164.774 27.488C164.774 29.48 165.186 30.992 166.01 32.024C166.842 33.048 167.958 33.56 169.358 33.56ZM181.898 19.928H184.13L191.786 32.336H191.618V19.928H193.49V35H191.402L183.482 22.184H183.77V35H181.898V19.928ZM208.824 35V19.928H210.696V35H208.824ZM217.927 19.928H220.159L227.815 32.336H227.647V19.928H229.519V35H227.431L219.511 22.184H219.799V35H217.927V19.928ZM236.757 35V19.928H245.925V21.536H238.629V26.552H245.421V28.16H238.629V35H236.757ZM257.071 35.288C255.823 35.288 254.707 35 253.723 34.424C252.739 33.848 251.963 32.984 251.395 31.832C250.827 30.672 250.543 29.224 250.543 27.488C250.543 25.728 250.827 24.272 251.395 23.12C251.963 21.96 252.739 21.096 253.723 20.528C254.707 19.952 255.823 19.664 257.071 19.664C258.319 19.664 259.435 19.952 260.419 20.528C261.403 21.104 262.179 21.972 262.747 23.132C263.315 24.292 263.599 25.744 263.599 27.488C263.599 29.24 263.315 30.696 262.747 31.856C262.179 33.008 261.403 33.868 260.419 34.436C259.435 35.004 258.319 35.288 257.071 35.288ZM257.071 33.56C258.487 33.56 259.603 33.044 260.419 32.012C261.243 30.98 261.655 29.464 261.655 27.464C261.655 25.504 261.243 23.996 260.419 22.94C259.603 21.876 258.487 21.344 257.071 21.344C255.671 21.344 254.555 21.876 253.723 22.94C252.899 24.004 252.487 25.52 252.487 27.488C252.487 29.48 252.899 30.992 253.723 32.024C254.555 33.048 255.671 33.56 257.071 33.56ZM269.635 35V19.928H274.891C276.611 19.928 277.911 20.34 278.791 21.164C279.679 21.98 280.123 23.056 280.123 24.392C280.123 25.712 279.679 26.784 278.791 27.608C277.911 28.424 276.611 28.832 274.891 28.832H271.507V35H269.635ZM278.083 35L273.763 28.16H275.803L280.507 35H278.083ZM271.507 27.512H274.747C275.875 27.512 276.731 27.236 277.315 26.684C277.907 26.124 278.203 25.4 278.203 24.512C278.203 23.6 277.919 22.876 277.351 22.34C276.791 21.804 275.971 21.536 274.891 21.536H271.507V27.512ZM286.73 19.928H289.418L294.602 30.344H294.41L299.594 19.928H302.21V35H300.314V21.872H300.65L295.13 33.104H293.882L288.386 21.944H288.602V35H286.73V19.928ZM307.747 33.884C307.747 33.508 307.879 33.184 308.143 32.912C308.407 32.64 308.739 32.504 309.139 32.504C309.539 32.504 309.879 32.64 310.159 32.912C310.439 33.184 310.579 33.508 310.579 33.884C310.579 34.26 310.439 34.576 310.159 34.832C309.879 35.088 309.539 35.216 309.139 35.216C308.739 35.216 308.407 35.088 308.143 34.832C307.879 34.568 307.747 34.252 307.747 33.884Z" fill="#6071CE"/>
</g>
<defs>
<filter id="filter0_d_7099_5783" x="0" y="0" width="335" height="62" filterUnits="userSpaceOnUse" color-interpolation-filters="sRGB">
<feFlood flood-opacity="0" result="BackgroundImageFix"/>
<feColorMatrix in="SourceAlpha" type="matrix" values="0 0 0 0 0 0 0 0 0 0 0 0 0 0 0 0 0 0 127 0" result="hardAlpha"/>
<feOffset dy="4"/>
<feGaussianBlur stdDeviation="3"/>
<feComposite in2="hardAlpha" operator="out"/>
<feColorMatrix type="matrix" values="0 0 0 0 0 0 0 0 0 0 0 0 0 0 0 0 0 0 0.05 0"/>
<feBlend mode="normal" in2="BackgroundImageFix" result="effect1_dropShadow_7099_5783"/>
<feBlend mode="normal" in="SourceGraphic" in2="effect1_dropShadow_7099_5783" result="shape"/>
</filter>
</defs>
</svg>
