<svg width="355" height="62" viewBox="0 0 355 62" fill="none" xmlns="http://www.w3.org/2000/svg">
<g filter="url(#filter0_d_7073_5947)">
<rect x="6.5" y="2.5" width="342" height="49" rx="11.5" fill="#FBFBFB" stroke="#B9B9B9"/>
<path d="M32.5917 20.0413V20.2413H32.7917H37.9584C38.9331 20.2413 39.8678 20.6285 40.557 21.3177C41.2462 22.0069 41.6334 22.9417 41.6334 23.9163V35.5413C41.6334 36.516 41.2462 37.4508 40.557 38.14C39.8678 38.8292 38.9331 39.2163 37.9584 39.2163H25.0417C24.0671 39.2163 23.1323 38.8292 22.4431 38.14C21.7539 37.4508 21.3667 36.516 21.3667 35.5413V23.9163C21.3667 22.9417 21.7539 22.0069 22.4431 21.3177C23.1323 20.6285 24.0671 20.2413 25.0417 20.2413H30.2084H30.4084V20.0413V18.388V18.2725L30.3084 18.2148C29.9482 18.0068 29.6487 17.7082 29.4396 17.3487C29.2307 16.9893 29.1194 16.5815 29.1167 16.1658C29.1169 15.5339 29.368 14.9279 29.8148 14.4811C30.2618 14.0341 30.868 13.783 31.5001 13.783C32.1322 13.783 32.7384 14.0341 33.1854 14.4811C33.6322 14.9279 33.8833 15.5339 33.8834 16.1658C33.8808 16.5815 33.7695 16.9893 33.5605 17.3487C33.3515 17.7082 33.052 18.0068 32.6918 18.2148L32.5917 18.2725V18.388V20.0413ZM33.9158 22.6732L33.9779 22.4247H33.7217H29.2784H29.0223L29.0844 22.6732L29.7302 25.2565L29.7681 25.408H29.9242H33.0759H33.2321L33.2699 25.2565L33.9158 22.6732ZM26.812 22.5779L26.7751 22.4247H26.6176H25.0417C24.6461 22.4247 24.2667 22.5818 23.987 22.8616C23.7072 23.1413 23.5501 23.5207 23.5501 23.9163V35.5413C23.5501 35.937 23.7072 36.3164 23.987 36.5961C24.2667 36.8759 24.6461 37.033 25.0417 37.033H37.9584C38.354 37.033 38.7334 36.8759 39.0132 36.5961C39.2929 36.3164 39.4501 35.937 39.4501 35.5413V23.9163C39.4501 23.5207 39.2929 23.1413 39.0132 22.8616C38.7334 22.5818 38.354 22.4247 37.9584 22.4247H36.3826H36.225L36.1881 22.5779L35.1809 26.7618C35.1809 26.7619 35.1808 26.7621 35.1808 26.7622C35.1209 27.0043 34.9801 27.2185 34.7816 27.3694C34.583 27.5203 34.3386 27.5987 34.0892 27.5914L34.0892 27.5913H34.0834H28.9167V27.5913L28.9109 27.5914C28.6615 27.5987 28.4172 27.5203 28.2186 27.3694C28.0201 27.2185 27.8792 27.0043 27.8194 26.7622C27.8193 26.7621 27.8193 26.7619 27.8193 26.7618L26.812 22.5779ZM27.0186 30.7587C27.1981 30.6387 27.4092 30.5747 27.6251 30.5747C27.9146 30.5747 28.1923 30.6897 28.397 30.8944C28.6017 31.0991 28.7167 31.3768 28.7167 31.6663C28.7167 31.8823 28.6527 32.0933 28.5328 32.2728C28.4128 32.4524 28.2423 32.5923 28.0428 32.6749C27.8434 32.7575 27.6239 32.7792 27.4121 32.737C27.2003 32.6949 27.0058 32.5909 26.8532 32.4383C26.7005 32.2856 26.5965 32.0911 26.5544 31.8793C26.5123 31.6676 26.5339 31.4481 26.6165 31.2486C26.6991 31.0491 26.8391 30.8786 27.0186 30.7587ZM17.8115 29.6028C18.0162 29.398 18.2939 29.283 18.5834 29.283C18.8729 29.283 19.1506 29.398 19.3553 29.6028C19.5601 29.8075 19.6751 30.0851 19.6751 30.3747V32.958C19.6751 33.2475 19.5601 33.5252 19.3553 33.7299C19.1506 33.9347 18.8729 34.0497 18.5834 34.0497C18.2939 34.0497 18.0162 33.9347 17.8115 33.7299C17.6068 33.5252 17.4917 33.2475 17.4917 32.958V30.3747C17.4917 30.0851 17.6068 29.8075 17.8115 29.6028ZM43.6448 29.6028C43.8495 29.398 44.1272 29.283 44.4167 29.283C44.7063 29.283 44.9839 29.398 45.1887 29.6028C45.3934 29.8075 45.5084 30.0851 45.5084 30.3747V32.958C45.5084 33.2475 45.3934 33.5252 45.1887 33.7299C44.9839 33.9347 44.7063 34.0497 44.4167 34.0497C44.1272 34.0497 43.8495 33.9347 43.6448 33.7299C43.4401 33.5252 43.3251 33.2475 43.3251 32.958V30.3747C43.3251 30.0851 43.4401 29.8075 43.6448 29.6028ZM34.7686 30.7587C34.9481 30.6387 35.1592 30.5747 35.3751 30.5747C35.6646 30.5747 35.9423 30.6897 36.147 30.8944C36.3517 31.0991 36.4667 31.3768 36.4667 31.6663C36.4667 31.8823 36.4027 32.0933 36.2828 32.2728C36.1628 32.4524 35.9923 32.5923 35.7928 32.6749C35.5934 32.7575 35.3739 32.7792 35.1621 32.737C34.9503 32.6949 34.7558 32.5909 34.6032 32.4383C34.4505 32.2856 34.3465 32.0911 34.3044 31.8793C34.2623 31.6676 34.2839 31.4481 34.3665 31.2486C34.4491 31.0491 34.5891 30.8786 34.7686 30.7587Z" fill="#7D7D7D" stroke="white" stroke-width="0.4"/>
<path d="M59.424 37.928V17H61.296V37.928H59.424ZM74.8459 35L80.0299 19.928H82.3099L87.3739 35H85.4059L84.1339 31.136H78.1339L76.8139 35H74.8459ZM78.6139 29.672H83.6539L81.1339 22.208L78.6139 29.672ZM98.0591 35.288C96.7311 35.288 95.5871 34.956 94.6271 34.292C93.6671 33.62 92.9271 32.692 92.4071 31.508C91.8871 30.316 91.6271 28.936 91.6271 27.368C91.6271 25.696 91.9071 24.288 92.4671 23.144C93.0351 22 93.8031 21.136 94.7711 20.552C95.7471 19.96 96.8431 19.664 98.0591 19.664C99.6671 19.664 100.959 20.068 101.935 20.876C102.919 21.676 103.595 22.72 103.963 24.008L101.947 24.416C101.635 23.48 101.135 22.736 100.447 22.184C99.7671 21.624 98.9711 21.344 98.0591 21.344C97.2671 21.344 96.5351 21.572 95.8631 22.028C95.1991 22.476 94.6631 23.148 94.2551 24.044C93.8471 24.94 93.6431 26.048 93.6431 27.368C93.6431 28.568 93.8031 29.636 94.1231 30.572C94.4511 31.508 94.9391 32.244 95.5871 32.78C96.2431 33.316 97.0671 33.584 98.0591 33.584C99.2511 33.584 100.195 33.264 100.891 32.624C101.595 31.984 101.947 31.144 101.947 30.104H103.987C103.987 31.184 103.739 32.112 103.243 32.888C102.747 33.656 102.051 34.248 101.155 34.664C100.267 35.08 99.2351 35.288 98.0591 35.288ZM118.61 19.928H121.202L111.578 29.84V27.2L118.61 19.928ZM114.29 26.288L121.61 35H119.162L112.946 27.512L114.29 26.288ZM109.946 19.928H111.842V35H109.946V19.928ZM126.9 19.928H129.132L136.788 32.336H136.62V19.928H138.492V35H136.404L128.484 22.184H128.772V35H126.9V19.928ZM151.058 35.288C149.81 35.288 148.694 35 147.71 34.424C146.726 33.848 145.95 32.984 145.382 31.832C144.814 30.672 144.53 29.224 144.53 27.488C144.53 25.728 144.814 24.272 145.382 23.12C145.95 21.96 146.726 21.096 147.71 20.528C148.694 19.952 149.81 19.664 151.058 19.664C152.306 19.664 153.422 19.952 154.406 20.528C155.39 21.104 156.166 21.972 156.734 23.132C157.302 24.292 157.586 25.744 157.586 27.488C157.586 29.24 157.302 30.696 156.734 31.856C156.166 33.008 155.39 33.868 154.406 34.436C153.422 35.004 152.306 35.288 151.058 35.288ZM151.058 33.56C152.474 33.56 153.59 33.044 154.406 32.012C155.23 30.98 155.642 29.464 155.642 27.464C155.642 25.504 155.23 23.996 154.406 22.94C153.59 21.876 152.474 21.344 151.058 21.344C149.658 21.344 148.542 21.876 147.71 22.94C146.886 24.004 146.474 25.52 146.474 27.488C146.474 29.48 146.886 30.992 147.71 32.024C148.542 33.048 149.658 33.56 151.058 33.56ZM161.534 19.928H163.646L167.558 33.344H167.006L171.014 21.488H172.286L176.246 33.248H175.718L180.206 19.928H182.294L176.966 35H174.998L171.518 24.776H171.878L168.278 35H166.31L161.534 19.928ZM189.34 19.928V33.368H196.06V35H187.468V19.928H189.34ZM201.07 35V19.928H210.358V21.536H202.942V26.6H209.926V28.208H202.942V33.368H210.358V35H201.07ZM216.971 19.928H221.387C222.907 19.928 224.227 20.24 225.347 20.864C226.467 21.48 227.335 22.352 227.951 23.48C228.567 24.608 228.875 25.936 228.875 27.464C228.875 28.976 228.567 30.296 227.951 31.424C227.335 32.552 226.467 33.432 225.347 34.064C224.227 34.688 222.907 35 221.387 35H216.971V19.928ZM218.843 21.584V33.368H221.387C222.523 33.368 223.499 33.112 224.315 32.6C225.139 32.088 225.771 31.388 226.211 30.5C226.659 29.604 226.883 28.592 226.883 27.464C226.883 26.328 226.659 25.32 226.211 24.44C225.771 23.552 225.139 22.856 224.315 22.352C223.499 21.84 222.523 21.584 221.387 21.584H218.843ZM240.519 35.288C239.319 35.288 238.227 34.976 237.243 34.352C236.259 33.728 235.475 32.844 234.891 31.7C234.307 30.556 234.015 29.2 234.015 27.632C234.015 26.328 234.203 25.18 234.579 24.188C234.955 23.196 235.471 22.364 236.127 21.692C236.783 21.02 237.535 20.516 238.383 20.18C239.239 19.836 240.143 19.664 241.095 19.664C242.271 19.664 243.303 19.908 244.191 20.396C245.079 20.876 245.839 21.64 246.471 22.688L244.695 23.312C244.159 22.648 243.583 22.16 242.967 21.848C242.359 21.528 241.711 21.368 241.023 21.368C240.119 21.368 239.287 21.62 238.527 22.124C237.767 22.628 237.155 23.348 236.691 24.284C236.235 25.22 236.007 26.336 236.007 27.632C236.007 28.784 236.195 29.808 236.571 30.704C236.947 31.592 237.479 32.292 238.167 32.804C238.863 33.308 239.687 33.56 240.639 33.56C241.367 33.56 242.019 33.392 242.595 33.056C243.179 32.72 243.639 32.216 243.975 31.544C244.311 30.864 244.479 30.008 244.479 28.976H245.055C245.055 30.256 244.903 31.368 244.599 32.312C244.295 33.256 243.807 33.988 243.135 34.508C242.471 35.028 241.599 35.288 240.519 35.288ZM244.815 35L244.479 31.448V28.928L240.687 28.808V27.536H246.303V35H244.815ZM253.036 35V19.928H262.324V21.536H254.908V26.6H261.892V28.208H254.908V33.368H262.324V35H253.036ZM268.936 19.928H271.624L276.808 30.344H276.616L281.8 19.928H284.416V35H282.52V21.872H282.856L277.336 33.104H276.088L270.592 21.944H270.808V35H268.936V19.928ZM291.633 35V19.928H300.921V21.536H293.505V26.6H300.489V28.208H293.505V33.368H300.921V35H291.633ZM307.509 19.928H309.741L317.397 32.336H317.229V19.928H319.101V35H317.013L309.093 22.184H309.381V35H307.509V19.928ZM324.06 21.536V19.928H335.796V21.536H330.432L330.852 21.104V35H328.98V21.104L329.4 21.536H324.06Z" fill="#7D7D7D"/>
</g>
<defs>
<filter id="filter0_d_7073_5947" x="0" y="0" width="355" height="62" filterUnits="userSpaceOnUse" color-interpolation-filters="sRGB">
<feFlood flood-opacity="0" result="BackgroundImageFix"/>
<feColorMatrix in="SourceAlpha" type="matrix" values="0 0 0 0 0 0 0 0 0 0 0 0 0 0 0 0 0 0 127 0" result="hardAlpha"/>
<feOffset dy="4"/>
<feGaussianBlur stdDeviation="3"/>
<feComposite in2="hardAlpha" operator="out"/>
<feColorMatrix type="matrix" values="0 0 0 0 0 0 0 0 0 0 0 0 0 0 0 0 0 0 0.05 0"/>
<feBlend mode="normal" in2="BackgroundImageFix" result="effect1_dropShadow_7073_5947"/>
<feBlend mode="normal" in="SourceGraphic" in2="effect1_dropShadow_7073_5947" result="shape"/>
</filter>
</defs>
</svg>
