<svg width="325" height="62" viewBox="0 0 325 62" fill="none" xmlns="http://www.w3.org/2000/svg">
<g filter="url(#filter0_d_7078_5738)">
<path d="M6.5 14C6.5 7.64873 11.6487 2.5 18 2.5H307C313.351 2.5 318.5 7.64873 318.5 14V40C318.5 46.3513 313.351 51.5 307 51.5H18C11.6487 51.5 6.5 46.3513 6.5 40V14Z" fill="#FBFBFB" stroke="#B9B9B9"/>
<path d="M34.6738 29.5358L34.6738 29.5358L34.6761 29.5339C34.8991 29.3486 35.1866 29.2594 35.4753 29.286C35.6183 29.2992 35.7572 29.3404 35.8843 29.4073C36.0113 29.4742 36.1239 29.5654 36.2157 29.6758C36.401 29.8988 36.4902 30.1863 36.4636 30.475C36.437 30.7638 36.2967 31.0301 36.0738 31.2155L36.0734 31.2157C34.7902 32.287 33.1716 32.8738 31.4999 32.8738C29.8283 32.8738 28.2097 32.287 26.9264 31.2157L26.9261 31.2155C26.7031 31.0301 26.5629 30.7638 26.5363 30.475C26.5096 30.1863 26.5988 29.8988 26.7841 29.6758C26.9695 29.4529 27.2358 29.3126 27.5246 29.286C27.8133 29.2594 28.1008 29.3486 28.3238 29.5339L28.3237 29.5339L28.3261 29.5358C29.2251 30.2606 30.3451 30.6559 31.4999 30.6559C32.6547 30.6559 33.7748 30.2606 34.6738 29.5358ZM28.2314 24.824C28.0519 24.944 27.8408 25.008 27.6249 25.008C27.3354 25.008 27.0577 24.893 26.853 24.6883C26.6483 24.4835 26.5333 24.2059 26.5333 23.9163C26.5333 23.7004 26.5973 23.4894 26.7172 23.3098C26.8372 23.1303 27.0077 22.9904 27.2072 22.9078C27.4066 22.8251 27.6261 22.8035 27.8379 22.8457C28.0497 22.8878 28.2442 22.9917 28.3968 23.1444C28.5495 23.2971 28.6535 23.4916 28.6956 23.7034C28.7377 23.9151 28.7161 24.1346 28.6335 24.3341C28.5509 24.5336 28.4109 24.7041 28.2314 24.824ZM34.7684 23.0087C34.948 22.8887 35.159 22.8247 35.3749 22.8247C35.6645 22.8247 35.9421 22.9397 36.1468 23.1444C36.3516 23.3491 36.4666 23.6268 36.4666 23.9163C36.4666 24.1323 36.4026 24.3433 36.2826 24.5228C36.1627 24.7024 35.9922 24.8423 35.7927 24.9249C35.5932 25.0075 35.3737 25.0292 35.162 24.987C34.9502 24.9449 34.7557 24.8409 34.603 24.6883C34.4503 24.5356 34.3464 24.3411 34.3042 24.1293C34.2621 23.9176 34.2837 23.6981 34.3664 23.4986C34.449 23.2991 34.5889 23.1286 34.7684 23.0087ZM24.4349 15.9262C26.5262 14.5288 28.9848 13.783 31.4999 13.783C33.1699 13.783 34.8235 14.1119 36.3664 14.751C37.9092 15.3901 39.3111 16.3268 40.492 17.5076C41.6728 18.6885 42.6095 20.0904 43.2486 21.6332C43.8877 23.1761 44.2166 24.8297 44.2166 26.4997C44.2166 29.0148 43.4708 31.4734 42.0734 33.5647C40.6761 35.6559 38.69 37.2859 36.3664 38.2483C34.0427 39.2108 31.4858 39.4627 29.019 38.972C26.5522 38.4813 24.2863 37.2702 22.5079 35.4917C20.7294 33.7133 19.5183 31.4474 19.0276 28.9806C18.5369 26.5138 18.7888 23.9569 19.7513 21.6332C20.7138 19.3095 22.3437 17.3235 24.4349 15.9262ZM25.6479 35.2578C27.3801 36.4152 29.4166 37.033 31.4999 37.033C34.2935 37.033 36.9727 35.9233 38.9481 33.9479C40.9235 31.9725 42.0333 29.2933 42.0333 26.4997C42.0333 24.4164 41.4155 22.3799 40.2581 20.6477C39.1007 18.9155 37.4556 17.5654 35.5309 16.7681C33.6061 15.9709 31.4882 15.7623 29.445 16.1687C27.4017 16.5752 25.5248 17.5784 24.0517 19.0515C22.5786 20.5246 21.5754 22.4015 21.169 24.4447C20.7626 26.488 20.9712 28.6059 21.7684 30.5306C22.5656 32.4553 23.9157 34.1004 25.6479 35.2578Z" fill="#7D7D7D" stroke="white" stroke-width="0.4"/>
<path d="M59.424 37.928V17H61.296V37.928H59.424ZM81.9739 35.288C80.7259 35.288 79.6099 35 78.6259 34.424C77.6419 33.848 76.8659 32.984 76.2979 31.832C75.7299 30.672 75.4459 29.224 75.4459 27.488C75.4459 25.728 75.7299 24.272 76.2979 23.12C76.8659 21.96 77.6419 21.096 78.6259 20.528C79.6099 19.952 80.7259 19.664 81.9739 19.664C83.2219 19.664 84.3379 19.952 85.3219 20.528C86.3059 21.104 87.0819 21.972 87.6499 23.132C88.2179 24.292 88.5019 25.744 88.5019 27.488C88.5019 29.24 88.2179 30.696 87.6499 31.856C87.0819 33.008 86.3059 33.868 85.3219 34.436C84.3379 35.004 83.2219 35.288 81.9739 35.288ZM81.9739 33.56C83.3899 33.56 84.5059 33.044 85.3219 32.012C86.1459 30.98 86.5579 29.464 86.5579 27.464C86.5579 25.504 86.1459 23.996 85.3219 22.94C84.5059 21.876 83.3899 21.344 81.9739 21.344C80.5739 21.344 79.4579 21.876 78.6259 22.94C77.8019 24.004 77.3899 25.52 77.3899 27.488C77.3899 29.48 77.8019 30.992 78.6259 32.024C79.4579 33.048 80.5739 33.56 81.9739 33.56ZM94.4901 35V19.928H99.3381C100.994 19.928 102.258 20.348 103.13 21.188C104.01 22.02 104.45 23.152 104.45 24.584C104.45 26 104.01 27.124 103.13 27.956C102.258 28.78 100.994 29.192 99.3381 29.192H96.3861V35H94.4901ZM96.3861 27.56H99.3381C100.386 27.56 101.178 27.292 101.714 26.756C102.258 26.22 102.53 25.496 102.53 24.584C102.53 23.656 102.258 22.916 101.714 22.364C101.178 21.812 100.386 21.536 99.3381 21.536H96.3861V27.56ZM107.947 21.536V19.928H119.683V21.536H114.319L114.739 21.104V35H112.867V21.104L113.287 21.536H107.947ZM124.651 35V19.928H126.523V35H124.651ZM139.105 35.288C137.857 35.288 136.741 35 135.757 34.424C134.773 33.848 133.997 32.984 133.429 31.832C132.861 30.672 132.577 29.224 132.577 27.488C132.577 25.728 132.861 24.272 133.429 23.12C133.997 21.96 134.773 21.096 135.757 20.528C136.741 19.952 137.857 19.664 139.105 19.664C140.353 19.664 141.469 19.952 142.453 20.528C143.437 21.104 144.213 21.972 144.781 23.132C145.349 24.292 145.633 25.744 145.633 27.488C145.633 29.24 145.349 30.696 144.781 31.856C144.213 33.008 143.437 33.868 142.453 34.436C141.469 35.004 140.353 35.288 139.105 35.288ZM139.105 33.56C140.521 33.56 141.637 33.044 142.453 32.012C143.277 30.98 143.689 29.464 143.689 27.464C143.689 25.504 143.277 23.996 142.453 22.94C141.637 21.876 140.521 21.344 139.105 21.344C137.705 21.344 136.589 21.876 135.757 22.94C134.933 24.004 134.521 25.52 134.521 27.488C134.521 29.48 134.933 30.992 135.757 32.024C136.589 33.048 137.705 33.56 139.105 33.56ZM151.645 19.928H153.877L161.533 32.336H161.365V19.928H163.237V35H161.149L153.229 22.184H153.517V35H151.645V19.928ZM175.3 35.288C174.292 35.288 173.368 35.108 172.528 34.748C171.688 34.38 171.012 33.84 170.5 33.128C169.988 32.416 169.724 31.536 169.708 30.488H171.532C171.532 31.192 171.704 31.772 172.048 32.228C172.392 32.676 172.848 33.012 173.416 33.236C173.984 33.452 174.604 33.56 175.276 33.56C176.004 33.56 176.636 33.444 177.172 33.212C177.708 32.98 178.12 32.676 178.408 32.3C178.704 31.916 178.852 31.496 178.852 31.04C178.852 30.4 178.656 29.884 178.264 29.492C177.872 29.092 177.292 28.768 176.524 28.52L173.86 27.584C172.612 27.136 171.668 26.624 171.028 26.048C170.388 25.472 170.068 24.664 170.068 23.624C170.068 22.456 170.516 21.504 171.412 20.768C172.316 20.032 173.596 19.664 175.252 19.664C176.788 19.664 177.988 20.02 178.852 20.732C179.716 21.436 180.212 22.384 180.34 23.576H178.492C178.372 22.88 178.044 22.34 177.508 21.956C176.98 21.564 176.228 21.368 175.252 21.368C174.26 21.368 173.488 21.588 172.936 22.028C172.384 22.468 172.108 23.024 172.108 23.696C172.108 24.248 172.28 24.688 172.624 25.016C172.976 25.336 173.524 25.624 174.268 25.88L177.388 26.96C178.468 27.32 179.32 27.824 179.944 28.472C180.576 29.12 180.892 29.96 180.892 30.992C180.892 31.792 180.676 32.516 180.244 33.164C179.82 33.812 179.192 34.328 178.36 34.712C177.528 35.096 176.508 35.288 175.3 35.288ZM195.479 35V19.928H200.735C202.455 19.928 203.755 20.34 204.635 21.164C205.523 21.98 205.967 23.056 205.967 24.392C205.967 25.712 205.523 26.784 204.635 27.608C203.755 28.424 202.455 28.832 200.735 28.832H197.351V35H195.479ZM203.927 35L199.607 28.16H201.647L206.351 35H203.927ZM197.351 27.512H200.591C201.719 27.512 202.575 27.236 203.159 26.684C203.751 26.124 204.047 25.4 204.047 24.512C204.047 23.6 203.763 22.876 203.195 22.34C202.635 21.804 201.815 21.536 200.735 21.536H197.351V27.512ZM212.55 35V19.928H221.838V21.536H214.422V26.6H221.406V28.208H214.422V33.368H221.838V35H212.55ZM233.779 35.288C232.531 35.288 231.415 35 230.431 34.424C229.447 33.848 228.671 32.984 228.103 31.832C227.535 30.672 227.251 29.224 227.251 27.488C227.251 25.728 227.535 24.272 228.103 23.12C228.671 21.96 229.447 21.096 230.431 20.528C231.415 19.952 232.531 19.664 233.779 19.664C235.027 19.664 236.143 19.952 237.127 20.528C238.111 21.104 238.887 21.972 239.455 23.132C240.023 24.292 240.307 25.744 240.307 27.488C240.307 29.24 240.023 30.696 239.455 31.856C238.887 33.008 238.111 33.868 237.127 34.436C236.143 35.004 235.027 35.288 233.779 35.288ZM238.291 39.008C237.587 39.008 236.951 38.824 236.383 38.456C235.815 38.096 235.291 37.568 234.811 36.872L233.251 34.64L234.931 34.112L236.323 36.104C236.587 36.464 236.859 36.716 237.139 36.86C237.427 37.012 237.707 37.096 237.979 37.112C238.403 37.112 238.795 37.056 239.155 36.944C239.515 36.832 239.899 36.68 240.307 36.488V38.552C239.947 38.704 239.603 38.816 239.275 38.888C238.947 38.968 238.619 39.008 238.291 39.008ZM233.779 33.56C235.195 33.56 236.311 33.044 237.127 32.012C237.951 30.98 238.363 29.464 238.363 27.464C238.363 25.504 237.951 23.996 237.127 22.94C236.311 21.876 235.195 21.344 233.779 21.344C232.379 21.344 231.263 21.876 230.431 22.94C229.607 24.004 229.195 25.52 229.195 27.488C229.195 29.48 229.607 30.992 230.431 32.024C231.263 33.048 232.379 33.56 233.779 33.56ZM246.147 19.928H248.019V29.552C248.019 30.968 248.375 31.992 249.087 32.624C249.799 33.248 250.731 33.56 251.883 33.56C253.027 33.56 253.951 33.248 254.655 32.624C255.367 31.992 255.723 30.968 255.723 29.552V19.928H257.595V29.552C257.595 30.816 257.359 31.876 256.887 32.732C256.423 33.58 255.763 34.22 254.907 34.652C254.051 35.076 253.043 35.288 251.883 35.288C250.723 35.288 249.711 35.076 248.847 34.652C247.991 34.22 247.327 33.58 246.855 32.732C246.383 31.876 246.147 30.816 246.147 29.552V19.928ZM264.539 35V19.928H273.827V21.536H266.411V26.6H273.395V28.208H266.411V33.368H273.827V35H264.539ZM285.264 35.288C284.256 35.288 283.332 35.108 282.492 34.748C281.652 34.38 280.976 33.84 280.464 33.128C279.952 32.416 279.688 31.536 279.672 30.488H281.496C281.496 31.192 281.668 31.772 282.012 32.228C282.356 32.676 282.812 33.012 283.38 33.236C283.948 33.452 284.568 33.56 285.24 33.56C285.968 33.56 286.6 33.444 287.136 33.212C287.672 32.98 288.084 32.676 288.372 32.3C288.668 31.916 288.816 31.496 288.816 31.04C288.816 30.4 288.62 29.884 288.228 29.492C287.836 29.092 287.256 28.768 286.488 28.52L283.824 27.584C282.576 27.136 281.632 26.624 280.992 26.048C280.352 25.472 280.032 24.664 280.032 23.624C280.032 22.456 280.48 21.504 281.376 20.768C282.28 20.032 283.56 19.664 285.216 19.664C286.752 19.664 287.952 20.02 288.816 20.732C289.68 21.436 290.176 22.384 290.304 23.576H288.456C288.336 22.88 288.008 22.34 287.472 21.956C286.944 21.564 286.192 21.368 285.216 21.368C284.224 21.368 283.452 21.588 282.9 22.028C282.348 22.468 282.072 23.024 282.072 23.696C282.072 24.248 282.244 24.688 282.588 25.016C282.94 25.336 283.488 25.624 284.232 25.88L287.352 26.96C288.432 27.32 289.284 27.824 289.908 28.472C290.54 29.12 290.856 29.96 290.856 30.992C290.856 31.792 290.64 32.516 290.208 33.164C289.784 33.812 289.156 34.328 288.324 34.712C287.492 35.096 286.472 35.288 285.264 35.288ZM295.067 21.536V19.928H306.803V21.536H301.439L301.859 21.104V35H299.987V21.104L300.407 21.536H295.067Z" fill="#7D7D7D"/>
</g>
<defs>
<filter id="filter0_d_7078_5738" x="0" y="0" width="325" height="62" filterUnits="userSpaceOnUse" color-interpolation-filters="sRGB">
<feFlood flood-opacity="0" result="BackgroundImageFix"/>
<feColorMatrix in="SourceAlpha" type="matrix" values="0 0 0 0 0 0 0 0 0 0 0 0 0 0 0 0 0 0 127 0" result="hardAlpha"/>
<feOffset dy="4"/>
<feGaussianBlur stdDeviation="3"/>
<feComposite in2="hardAlpha" operator="out"/>
<feColorMatrix type="matrix" values="0 0 0 0 0 0 0 0 0 0 0 0 0 0 0 0 0 0 0.05 0"/>
<feBlend mode="normal" in2="BackgroundImageFix" result="effect1_dropShadow_7078_5738"/>
<feBlend mode="normal" in="SourceGraphic" in2="effect1_dropShadow_7078_5738" result="shape"/>
</filter>
</defs>
</svg>
