<svg width="364" height="62" viewBox="0 0 364 62" fill="none" xmlns="http://www.w3.org/2000/svg">
<g filter="url(#filter0_d_7072_5770)">
<rect x="6.5" y="2.5" width="351" height="49" rx="11.5" fill="#FBFBFB" stroke="#B9B9B9"/>
<path d="M32.2217 20.0413V20.2413H32.4217H37.517C38.4765 20.2413 39.3974 20.6278 40.0767 21.3167C40.7562 22.0057 41.1384 22.9408 41.1384 23.9163V35.5413C41.1384 36.5169 40.7562 37.452 40.0767 38.1409C39.3974 38.8298 38.4765 39.2163 37.517 39.2163H24.7787C23.8191 39.2163 22.8983 38.8298 22.2189 38.1409C21.5394 37.452 21.1572 36.5169 21.1572 35.5413V23.9163C21.1572 22.9408 21.5394 22.0057 22.2189 21.3167C22.8983 20.6278 23.8191 20.2413 24.7787 20.2413H29.874H30.074V20.0413V18.388V18.2733L29.975 18.2154C29.6203 18.0078 29.3251 17.7094 29.1188 17.3497C28.9127 16.9901 28.8027 16.5819 28.8002 16.1656C28.8004 15.5329 29.0483 14.9267 29.4888 14.4801C29.9293 14.0334 30.5261 13.783 31.1478 13.783C31.7696 13.783 32.3664 14.0334 32.8069 14.4801C33.2473 14.9266 33.4953 15.5328 33.4955 16.1655C33.4929 16.5818 33.383 16.9901 33.1768 17.3497C32.9706 17.7094 32.6753 18.0078 32.3206 18.2154L32.2217 18.2733V18.388V20.0413ZM33.533 22.6726L33.5941 22.4247H33.3388H28.9568H28.7015L28.7627 22.6726L29.3996 25.2559L29.4371 25.408H29.5938H32.7019H32.8586L32.8961 25.2559L33.533 22.6726ZM26.5274 22.5785L26.4908 22.4247H26.3328H24.7787C24.3869 22.4247 24.0117 22.5825 23.7356 22.8626C23.4595 23.1425 23.3049 23.5216 23.3049 23.9163V35.5413C23.3049 35.9361 23.4595 36.3152 23.7356 36.5951C24.0117 36.8752 24.3869 37.033 24.7787 37.033H37.517C37.9087 37.033 38.2839 36.8752 38.5601 36.5951C38.8362 36.3152 38.9908 35.9361 38.9908 35.5413V23.9163C38.9908 23.5216 38.8362 23.1425 38.5601 22.8626C38.2839 22.5825 37.9087 22.4247 37.517 22.4247H35.9629H35.8048L35.7683 22.5785L34.775 26.7624C34.7749 26.7626 34.7749 26.7628 34.7748 26.763C34.7156 27.0056 34.5765 27.2197 34.3813 27.3702C34.1859 27.5208 33.9459 27.5987 33.7014 27.5914L33.7014 27.5913H33.6955H28.6002V27.5913L28.5943 27.5914C28.3497 27.5987 28.1098 27.5208 27.9144 27.3702C27.7191 27.2197 27.58 27.0055 27.5208 26.7629C27.5208 26.7627 27.5207 26.7625 27.5207 26.7624L26.5274 22.5785ZM26.7308 30.7579C26.9074 30.6383 27.1146 30.5747 27.3263 30.5747C27.6102 30.5747 27.8831 30.689 28.0847 30.8934C28.2864 31.098 28.4002 31.3759 28.4002 31.6663C28.4002 31.8829 28.3368 32.0943 28.2185 32.2739C28.1002 32.4535 27.9323 32.593 27.7364 32.6753C27.5405 32.7576 27.3251 32.779 27.1174 32.7371C26.9096 32.6952 26.7184 32.5917 26.568 32.4393C26.4176 32.2868 26.3149 32.0921 26.2733 31.8798C26.2316 31.6675 26.253 31.4475 26.3346 31.2477C26.4163 31.0479 26.5543 30.8776 26.7308 30.7579ZM17.6512 29.6018C17.8528 29.3973 18.1257 29.283 18.4096 29.283C18.6935 29.283 18.9663 29.3973 19.1679 29.6018C19.3696 29.8063 19.4834 30.0843 19.4834 30.3747V32.958C19.4834 33.2484 19.3696 33.5264 19.1679 33.7309C18.9663 33.9353 18.6935 34.0497 18.4096 34.0497C18.1257 34.0497 17.8528 33.9353 17.6512 33.7309C17.4495 33.5264 17.3357 33.2484 17.3357 32.958V30.3747C17.3357 30.0843 17.4495 29.8063 17.6512 29.6018ZM43.1278 29.6018C43.3294 29.3973 43.6022 29.283 43.8861 29.283C44.17 29.283 44.4428 29.3973 44.6444 29.6018C44.8461 29.8063 44.9599 30.0843 44.9599 30.3747V32.958C44.9599 33.2484 44.8461 33.5264 44.6444 33.7309C44.4428 33.9353 44.17 34.0497 43.8861 34.0497C43.6022 34.0497 43.3294 33.9353 43.1278 33.7309C42.9261 33.5264 42.8123 33.2484 42.8123 32.958V30.3747C42.8123 30.0843 42.9261 29.8063 43.1278 29.6018ZM34.3738 30.7579C34.5503 30.6383 34.7575 30.5747 34.9693 30.5747C35.2532 30.5747 35.526 30.689 35.7276 30.8934C35.9293 31.098 36.0431 31.3759 36.0431 31.6663C36.0431 31.8829 35.9798 32.0943 35.8615 32.2739C35.7431 32.4535 35.5752 32.593 35.3793 32.6753C35.1835 32.7576 34.9681 32.779 34.7603 32.7371C34.5526 32.6952 34.3613 32.5917 34.211 32.4393C34.0606 32.2868 33.9579 32.0921 33.9162 31.8798C33.8746 31.6675 33.896 31.4475 33.9776 31.2477C34.0592 31.0479 34.1972 30.8776 34.3738 30.7579Z" fill="#7D7D7D" stroke="white" stroke-width="0.4"/>
<path d="M59.424 37.928V17H61.296V37.928H59.424ZM81.8779 35.288C80.5499 35.288 79.4059 34.956 78.4459 34.292C77.4859 33.62 76.7459 32.692 76.2259 31.508C75.7059 30.316 75.4459 28.936 75.4459 27.368C75.4459 25.696 75.7259 24.288 76.2859 23.144C76.8539 22 77.6219 21.136 78.5899 20.552C79.5659 19.96 80.6619 19.664 81.8779 19.664C83.4859 19.664 84.7779 20.068 85.7539 20.876C86.7379 21.676 87.4139 22.72 87.7819 24.008L85.7659 24.416C85.4539 23.48 84.9539 22.736 84.2659 22.184C83.5859 21.624 82.7899 21.344 81.8779 21.344C81.0859 21.344 80.3539 21.572 79.6819 22.028C79.0179 22.476 78.4819 23.148 78.0739 24.044C77.6659 24.94 77.4619 26.048 77.4619 27.368C77.4619 28.568 77.6219 29.636 77.9419 30.572C78.2699 31.508 78.7579 32.244 79.4059 32.78C80.0619 33.316 80.8859 33.584 81.8779 33.584C83.0699 33.584 84.0139 33.264 84.7099 32.624C85.4139 31.984 85.7659 31.144 85.7659 30.104H87.8059C87.8059 31.184 87.5579 32.112 87.0619 32.888C86.5659 33.656 85.8699 34.248 84.9739 34.664C84.0859 35.08 83.0539 35.288 81.8779 35.288ZM99.0926 35.288C97.8446 35.288 96.7286 35 95.7446 34.424C94.7606 33.848 93.9846 32.984 93.4166 31.832C92.8486 30.672 92.5646 29.224 92.5646 27.488C92.5646 25.728 92.8486 24.272 93.4166 23.12C93.9846 21.96 94.7606 21.096 95.7446 20.528C96.7286 19.952 97.8446 19.664 99.0926 19.664C100.341 19.664 101.457 19.952 102.441 20.528C103.425 21.104 104.201 21.972 104.769 23.132C105.337 24.292 105.621 25.744 105.621 27.488C105.621 29.24 105.337 30.696 104.769 31.856C104.201 33.008 103.425 33.868 102.441 34.436C101.457 35.004 100.341 35.288 99.0926 35.288ZM99.0926 33.56C100.509 33.56 101.625 33.044 102.441 32.012C103.265 30.98 103.677 29.464 103.677 27.464C103.677 25.504 103.265 23.996 102.441 22.94C101.625 21.876 100.509 21.344 99.0926 21.344C97.6926 21.344 96.5766 21.876 95.7446 22.94C94.9206 24.004 94.5086 25.52 94.5086 27.488C94.5086 29.48 94.9206 30.992 95.7446 32.024C96.5766 33.048 97.6926 33.56 99.0926 33.56ZM111.633 19.928H113.865L121.521 32.336H121.353V19.928H123.225V35H121.137L113.217 22.184H113.505V35H111.633V19.928ZM128.183 21.536V19.928H139.919V21.536H134.555L134.975 21.104V35H133.103V21.104L133.523 21.536H128.183ZM144.863 35V19.928H154.151V21.536H146.735V26.6H153.719V28.208H146.735V33.368H154.151V35H144.863ZM160.739 19.928H162.971L170.627 32.336H170.459V19.928H172.331V35H170.243L162.323 22.184H162.611V35H160.739V19.928ZM177.289 21.536V19.928H189.025V21.536H183.661L184.081 21.104V35H182.209V21.104L182.629 21.536H177.289ZM202.088 35V19.928H211.256V21.536H203.96V26.552H210.752V28.16H203.96V35H202.088ZM222.402 35.288C221.154 35.288 220.038 35 219.054 34.424C218.07 33.848 217.294 32.984 216.726 31.832C216.158 30.672 215.874 29.224 215.874 27.488C215.874 25.728 216.158 24.272 216.726 23.12C217.294 21.96 218.07 21.096 219.054 20.528C220.038 19.952 221.154 19.664 222.402 19.664C223.65 19.664 224.766 19.952 225.75 20.528C226.734 21.104 227.51 21.972 228.078 23.132C228.646 24.292 228.93 25.744 228.93 27.488C228.93 29.24 228.646 30.696 228.078 31.856C227.51 33.008 226.734 33.868 225.75 34.436C224.766 35.004 223.65 35.288 222.402 35.288ZM222.402 33.56C223.818 33.56 224.934 33.044 225.75 32.012C226.574 30.98 226.986 29.464 226.986 27.464C226.986 25.504 226.574 23.996 225.75 22.94C224.934 21.876 223.818 21.344 222.402 21.344C221.002 21.344 219.886 21.876 219.054 22.94C218.23 24.004 217.818 25.52 217.818 27.488C217.818 29.48 218.23 30.992 219.054 32.024C219.886 33.048 221.002 33.56 222.402 33.56ZM236.838 19.928V33.368H243.558V35H234.966V19.928H236.838ZM250.465 19.928V33.368H257.185V35H248.593V19.928H250.465ZM267.547 35.288C266.299 35.288 265.183 35 264.199 34.424C263.215 33.848 262.439 32.984 261.871 31.832C261.303 30.672 261.019 29.224 261.019 27.488C261.019 25.728 261.303 24.272 261.871 23.12C262.439 21.96 263.215 21.096 264.199 20.528C265.183 19.952 266.299 19.664 267.547 19.664C268.795 19.664 269.911 19.952 270.895 20.528C271.879 21.104 272.655 21.972 273.223 23.132C273.791 24.292 274.075 25.744 274.075 27.488C274.075 29.24 273.791 30.696 273.223 31.856C272.655 33.008 271.879 33.868 270.895 34.436C269.911 35.004 268.795 35.288 267.547 35.288ZM267.547 33.56C268.963 33.56 270.079 33.044 270.895 32.012C271.719 30.98 272.131 29.464 272.131 27.464C272.131 25.504 271.719 23.996 270.895 22.94C270.079 21.876 268.963 21.344 267.547 21.344C266.147 21.344 265.031 21.876 264.199 22.94C263.375 24.004 262.963 25.52 262.963 27.488C262.963 29.48 263.375 30.992 264.199 32.024C265.031 33.048 266.147 33.56 267.547 33.56ZM278.024 19.928H280.136L284.048 33.344H283.496L287.504 21.488H288.776L292.736 33.248H292.208L296.696 19.928H298.784L293.456 35H291.488L288.008 24.776H288.368L284.768 35H282.8L278.024 19.928ZM302.445 28.832V27.2H308.973V28.832H302.445ZM314.365 19.928H316.237V29.552C316.237 30.968 316.593 31.992 317.305 32.624C318.017 33.248 318.949 33.56 320.101 33.56C321.245 33.56 322.169 33.248 322.873 32.624C323.585 31.992 323.941 30.968 323.941 29.552V19.928H325.813V29.552C325.813 30.816 325.577 31.876 325.105 32.732C324.641 33.58 323.981 34.22 323.125 34.652C322.269 35.076 321.261 35.288 320.101 35.288C318.941 35.288 317.929 35.076 317.065 34.652C316.209 34.22 315.545 33.58 315.073 32.732C314.601 31.876 314.365 30.816 314.365 29.552V19.928ZM332.732 35V19.928H337.58C339.236 19.928 340.5 20.348 341.372 21.188C342.252 22.02 342.692 23.152 342.692 24.584C342.692 26 342.252 27.124 341.372 27.956C340.5 28.78 339.236 29.192 337.58 29.192H334.628V35H332.732ZM334.628 27.56H337.58C338.628 27.56 339.42 27.292 339.956 26.756C340.5 26.22 340.772 25.496 340.772 24.584C340.772 23.656 340.5 22.916 339.956 22.364C339.42 21.812 338.628 21.536 337.58 21.536H334.628V27.56Z" fill="#7D7D7D"/>
</g>
<defs>
<filter id="filter0_d_7072_5770" x="0" y="0" width="364" height="62" filterUnits="userSpaceOnUse" color-interpolation-filters="sRGB">
<feFlood flood-opacity="0" result="BackgroundImageFix"/>
<feColorMatrix in="SourceAlpha" type="matrix" values="0 0 0 0 0 0 0 0 0 0 0 0 0 0 0 0 0 0 127 0" result="hardAlpha"/>
<feOffset dy="4"/>
<feGaussianBlur stdDeviation="3"/>
<feComposite in2="hardAlpha" operator="out"/>
<feColorMatrix type="matrix" values="0 0 0 0 0 0 0 0 0 0 0 0 0 0 0 0 0 0 0.05 0"/>
<feBlend mode="normal" in2="BackgroundImageFix" result="effect1_dropShadow_7072_5770"/>
<feBlend mode="normal" in="SourceGraphic" in2="effect1_dropShadow_7072_5770" result="shape"/>
</filter>
</defs>
</svg>
