<svg width="320" height="62" viewBox="0 0 320 62" fill="none" xmlns="http://www.w3.org/2000/svg">
<g filter="url(#filter0_d_7099_5761)">
<rect x="6.5" y="2.5" width="307" height="49" rx="11.5" fill="#FBFBFB" stroke="#B9B9B9"/>
<path d="M28.324 29.5339L28.324 29.5339L28.3263 29.5358C29.2253 30.2606 30.3453 30.6559 31.5002 30.6559C32.655 30.6559 33.775 30.2606 34.674 29.5358L34.5485 29.3801L34.6763 29.5339C34.8993 29.3486 35.1868 29.2594 35.4755 29.286C35.6185 29.2992 35.7575 29.3404 35.8845 29.4073C36.0116 29.4742 36.1242 29.5654 36.2159 29.6758C36.4013 29.8988 36.4905 30.1863 36.4638 30.475C36.4372 30.7638 36.297 31.0301 36.074 31.2155L36.0737 31.2157C34.7904 32.287 33.1718 32.8738 31.5002 32.8738C29.8285 32.8738 28.2099 32.287 26.9267 31.2157L26.9263 31.2155C26.7034 31.0301 26.5631 30.7638 26.5365 30.475C26.5099 30.1863 26.5991 29.8988 26.7844 29.6758C26.9697 29.4529 27.2361 29.3126 27.5248 29.286C27.8135 29.2594 28.101 29.3486 28.324 29.5339ZM28.2317 24.824C28.0521 24.944 27.8411 25.008 27.6252 25.008C27.3356 25.008 27.058 24.893 26.8532 24.6883C26.6485 24.4835 26.5335 24.2059 26.5335 23.9163C26.5335 23.7004 26.5975 23.4894 26.7175 23.3098C26.8374 23.1303 27.0079 22.9904 27.2074 22.9078C27.4069 22.8251 27.6264 22.8035 27.8381 22.8457C28.0499 22.8878 28.2444 22.9917 28.3971 23.1444C28.5498 23.2971 28.6537 23.4916 28.6959 23.7034C28.738 23.9151 28.7164 24.1346 28.6337 24.3341C28.5511 24.5336 28.4112 24.7041 28.2317 24.824ZM34.7687 23.0087C34.9482 22.8887 35.1593 22.8247 35.3752 22.8247C35.6647 22.8247 35.9424 22.9397 36.1471 23.1444C36.3518 23.3491 36.4668 23.6268 36.4668 23.9163C36.4668 24.1323 36.4028 24.3433 36.2829 24.5228C36.1629 24.7024 35.9924 24.8423 35.7929 24.9249C35.5935 25.0075 35.374 25.0292 35.1622 24.987C34.9504 24.9449 34.7559 24.8409 34.6032 24.6883C34.4506 24.5356 34.3466 24.3411 34.3045 24.1293C34.2624 23.9176 34.284 23.6981 34.3666 23.4986C34.4492 23.2991 34.5891 23.1286 34.7687 23.0087ZM24.4352 15.9262C26.5264 14.5288 28.985 13.783 31.5002 13.783C33.1701 13.783 34.8238 14.1119 36.3666 14.751C37.9095 15.3901 39.3114 16.3268 40.4922 17.5076C41.6731 18.6885 42.6098 20.0904 43.2488 21.6332C43.8879 23.1761 44.2168 24.8297 44.2168 26.4997C44.2168 29.0148 43.471 31.4734 42.0737 33.5647C40.6764 35.6559 38.6903 37.2859 36.3666 38.2483C34.043 39.2108 31.4861 39.4627 29.0193 38.972C26.5525 38.4813 24.2866 37.2702 22.5081 35.4917C20.7297 33.7133 19.5185 31.4474 19.0278 28.9806C18.5372 26.5138 18.789 23.9569 19.7515 21.6332C20.714 19.3095 22.3439 17.3235 24.4352 15.9262ZM25.6482 35.2578C27.3804 36.4152 29.4169 37.033 31.5002 37.033C34.2938 37.033 36.973 35.9233 38.9484 33.9479C40.9237 31.9725 42.0335 29.2933 42.0335 26.4997C42.0335 24.4164 41.4157 22.3799 40.2583 20.6477C39.1009 18.9155 37.4558 17.5654 35.5311 16.7681C33.6064 15.9709 31.4885 15.7623 29.4452 16.1687C27.402 16.5752 25.5251 17.5784 24.052 19.0515C22.5789 20.5246 21.5757 22.4015 21.1692 24.4447C20.7628 26.488 20.9714 28.6059 21.7686 30.5306C22.5659 32.4553 23.916 34.1004 25.6482 35.2578Z" fill="#7D7D7D" stroke="white" stroke-width="0.4"/>
<path d="M57.624 35L62.808 19.928H65.088L70.152 35H68.184L66.912 31.136H60.912L59.592 35H57.624ZM61.392 29.672H66.432L63.912 22.208L61.392 29.672ZM75.6052 35V19.928H84.7732V21.536H77.4772V26.552H84.2692V28.16H77.4772V35H75.6052ZM90.5912 35V19.928H99.7592V21.536H92.4632V26.552H99.2552V28.16H92.4632V35H90.5912ZM105.577 35V19.928H107.449V35H105.577ZM114.704 35V19.928H119.96C121.68 19.928 122.98 20.34 123.86 21.164C124.748 21.98 125.192 23.056 125.192 24.392C125.192 25.712 124.748 26.784 123.86 27.608C122.98 28.424 121.68 28.832 119.96 28.832H116.576V35H114.704ZM123.152 35L118.832 28.16H120.872L125.576 35H123.152ZM116.576 27.512H119.816C120.944 27.512 121.8 27.236 122.384 26.684C122.976 26.124 123.272 25.4 123.272 24.512C123.272 23.6 122.988 22.876 122.42 22.34C121.86 21.804 121.04 21.536 119.96 21.536H116.576V27.512ZM131.799 19.928H134.487L139.671 30.344H139.479L144.663 19.928H147.279V35H145.383V21.872H145.719L140.199 33.104H138.951L133.455 21.944H133.671V35H131.799V19.928ZM152.719 35L157.903 19.928H160.183L165.247 35H163.279L162.007 31.136H156.007L154.687 35H152.719ZM156.487 29.672H161.527L159.007 22.208L156.487 29.672ZM167.436 21.536V19.928H179.172V21.536H173.808L174.228 21.104V35H172.356V21.104L172.776 21.536H167.436ZM184.14 35V19.928H186.012V35H184.14ZM197.466 33.008L201.93 19.928H203.922L198.546 35H196.602L191.274 19.928H193.266L197.706 33.008H197.466ZM209.142 35V19.928H218.43V21.536H211.014V26.6H217.998V28.208H211.014V33.368H218.43V35H209.142ZM233.138 35V19.928H238.394C240.114 19.928 241.414 20.34 242.294 21.164C243.182 21.98 243.626 23.056 243.626 24.392C243.626 25.712 243.182 26.784 242.294 27.608C241.414 28.424 240.114 28.832 238.394 28.832H235.01V35H233.138ZM241.586 35L237.266 28.16H239.306L244.01 35H241.586ZM235.01 27.512H238.25C239.378 27.512 240.234 27.236 240.818 26.684C241.41 26.124 241.706 25.4 241.706 24.512C241.706 23.6 241.422 22.876 240.854 22.34C240.294 21.804 239.474 21.536 238.394 21.536H235.01V27.512ZM250.209 35V19.928H259.497V21.536H252.081V26.6H259.065V28.208H252.081V33.368H259.497V35H250.209ZM270.934 35.288C269.926 35.288 269.002 35.108 268.162 34.748C267.322 34.38 266.646 33.84 266.134 33.128C265.622 32.416 265.358 31.536 265.342 30.488H267.166C267.166 31.192 267.338 31.772 267.682 32.228C268.026 32.676 268.482 33.012 269.05 33.236C269.618 33.452 270.238 33.56 270.91 33.56C271.638 33.56 272.27 33.444 272.806 33.212C273.342 32.98 273.754 32.676 274.042 32.3C274.338 31.916 274.486 31.496 274.486 31.04C274.486 30.4 274.29 29.884 273.898 29.492C273.506 29.092 272.926 28.768 272.158 28.52L269.494 27.584C268.246 27.136 267.302 26.624 266.662 26.048C266.022 25.472 265.702 24.664 265.702 23.624C265.702 22.456 266.15 21.504 267.046 20.768C267.95 20.032 269.23 19.664 270.886 19.664C272.422 19.664 273.622 20.02 274.486 20.732C275.35 21.436 275.846 22.384 275.974 23.576H274.126C274.006 22.88 273.678 22.34 273.142 21.956C272.614 21.564 271.862 21.368 270.886 21.368C269.894 21.368 269.122 21.588 268.57 22.028C268.018 22.468 267.742 23.024 267.742 23.696C267.742 24.248 267.914 24.688 268.258 25.016C268.61 25.336 269.158 25.624 269.902 25.88L273.022 26.96C274.102 27.32 274.954 27.824 275.578 28.472C276.21 29.12 276.526 29.96 276.526 30.992C276.526 31.792 276.31 32.516 275.878 33.164C275.454 33.812 274.826 34.328 273.994 34.712C273.162 35.096 272.142 35.288 270.934 35.288ZM282.97 35V19.928H287.818C289.474 19.928 290.738 20.348 291.61 21.188C292.49 22.02 292.93 23.152 292.93 24.584C292.93 26 292.49 27.124 291.61 27.956C290.738 28.78 289.474 29.192 287.818 29.192H284.866V35H282.97ZM284.866 27.56H287.818C288.866 27.56 289.658 27.292 290.194 26.756C290.738 26.22 291.01 25.496 291.01 24.584C291.01 23.656 290.738 22.916 290.194 22.364C289.658 21.812 288.866 21.536 287.818 21.536H284.866V27.56ZM297.003 33.884C297.003 33.508 297.135 33.184 297.399 32.912C297.663 32.64 297.995 32.504 298.395 32.504C298.795 32.504 299.135 32.64 299.415 32.912C299.695 33.184 299.835 33.508 299.835 33.884C299.835 34.26 299.695 34.576 299.415 34.832C299.135 35.088 298.795 35.216 298.395 35.216C297.995 35.216 297.663 35.088 297.399 34.832C297.135 34.568 297.003 34.252 297.003 33.884Z" fill="#7D7D7D"/>
</g>
<defs>
<filter id="filter0_d_7099_5761" x="0" y="0" width="320" height="62" filterUnits="userSpaceOnUse" color-interpolation-filters="sRGB">
<feFlood flood-opacity="0" result="BackgroundImageFix"/>
<feColorMatrix in="SourceAlpha" type="matrix" values="0 0 0 0 0 0 0 0 0 0 0 0 0 0 0 0 0 0 127 0" result="hardAlpha"/>
<feOffset dy="4"/>
<feGaussianBlur stdDeviation="3"/>
<feComposite in2="hardAlpha" operator="out"/>
<feColorMatrix type="matrix" values="0 0 0 0 0 0 0 0 0 0 0 0 0 0 0 0 0 0 0.05 0"/>
<feBlend mode="normal" in2="BackgroundImageFix" result="effect1_dropShadow_7099_5761"/>
<feBlend mode="normal" in="SourceGraphic" in2="effect1_dropShadow_7099_5761" result="shape"/>
</filter>
</defs>
</svg>
