<svg width="256" height="88" viewBox="0 0 256 88" fill="none" xmlns="http://www.w3.org/2000/svg">
<path d="M248.956 36.4275L239.223 25.0724L239.223 14.2153C239.223 7.46952 235.189 2.001 230.214 2.001L9.0084 2.00098C4.03319 2.00098 6.16606e-06 7.4695 5.57632e-06 14.2153L1.06781e-06 65.7867C4.78073e-07 72.5324 4.03319 78.001 9.00839 78.001L230.214 78.001C235.189 78.001 239.223 72.5325 239.223 65.7867L239.223 52.8938L248.843 42.7247C250.339 41.1443 250.393 38.104 248.956 36.4275Z" fill="white"/>
<g filter="url(#filter0_d_7054_5757)">
<mask id="path-2-inside-1_7054_5757" fill="white">
<path d="M13.0433 41.6331L22.7674 50V69C22.7674 73.9706 26.7968 78 31.7674 78L240.767 78C245.738 78 249.767 73.9706 249.767 69V11C249.767 6.02944 245.738 2 240.767 2L31.7674 2C26.7968 2 22.7674 6.02944 22.7674 11L22.7674 29.5L13.1556 36.9931C11.6618 38.1575 11.6076 40.3978 13.0433 41.6331Z"/>
</mask>
<path d="M13.0433 41.6331L22.7674 50V69C22.7674 73.9706 26.7968 78 31.7674 78L240.767 78C245.738 78 249.767 73.9706 249.767 69V11C249.767 6.02944 245.738 2 240.767 2L31.7674 2C26.7968 2 22.7674 6.02944 22.7674 11L22.7674 29.5L13.1556 36.9931C11.6618 38.1575 11.6076 40.3978 13.0433 41.6331Z" fill="#F1F3FF"/>
<path d="M22.7674 50H24.1674V49.3577L23.6805 48.9388L22.7674 50ZM13.0433 41.6331L12.1302 42.6944L12.1302 42.6944L13.0433 41.6331ZM13.1556 36.9931L12.2948 35.8889L12.2948 35.8889L13.1556 36.9931ZM22.7674 29.5L23.6281 30.6041L24.1674 30.1838V29.5H22.7674ZM31.7674 2V0.6V2ZM240.767 2V3.4V2ZM23.6805 48.9388L13.9564 40.5719L12.1302 42.6944L21.8542 51.0612L23.6805 48.9388ZM14.0163 38.0972L23.6281 30.6041L21.9066 28.3959L12.2948 35.8889L14.0163 38.0972ZM13.9564 40.5719C13.1907 39.9131 13.2196 38.7183 14.0163 38.0972L12.2948 35.8889C10.104 37.5968 10.0245 40.8825 12.1302 42.6944L13.9564 40.5719ZM31.7674 3.4L240.767 3.4L240.767 0.600003L31.7674 0.6L31.7674 3.4ZM248.367 11V69H251.167V11H248.367ZM240.767 76.6L31.7674 76.6V79.4L240.767 79.4V76.6ZM24.1674 29.5L24.1674 11H21.3674L21.3674 29.5H24.1674ZM24.1674 69V50H21.3674V69H24.1674ZM31.7674 76.6C27.57 76.6 24.1674 73.1974 24.1674 69H21.3674C21.3674 74.7438 26.0236 79.4 31.7674 79.4V76.6ZM248.367 69C248.367 73.1974 244.965 76.6 240.767 76.6V79.4C246.511 79.4 251.167 74.7438 251.167 69H248.367ZM240.767 3.4C244.965 3.4 248.367 6.80264 248.367 11H251.167C251.167 5.25624 246.511 0.600003 240.767 0.600003V3.4ZM31.7674 0.6C26.0236 0.6 21.3674 5.25624 21.3674 11H24.1674C24.1674 6.80264 27.57 3.4 31.7674 3.4V0.6Z" fill="#4A5DC8" mask="url(#path-2-inside-1_7054_5757)"/>
</g>
<g filter="url(#filter1_d_7054_5757)">
<path d="M42.168 25.192C41.336 25.192 40.592 25 39.936 24.616C39.28 24.232 38.7627 23.656 38.384 22.888C38.0053 22.1147 37.816 21.1493 37.816 19.992C37.816 18.8187 38.0053 17.848 38.384 17.08C38.7627 16.3067 39.28 15.7307 39.936 15.352C40.592 14.968 41.336 14.776 42.168 14.776C43 14.776 43.744 14.968 44.4 15.352C45.056 15.736 45.5733 16.3147 45.952 17.088C46.3307 17.8613 46.52 18.8293 46.52 19.992C46.52 21.16 46.3307 22.1307 45.952 22.904C45.5733 23.672 45.056 24.2453 44.4 24.624C43.744 25.0027 43 25.192 42.168 25.192ZM42.168 24.04C43.112 24.04 43.856 23.696 44.4 23.008C44.9493 22.32 45.224 21.3093 45.224 19.976C45.224 18.6693 44.9493 17.664 44.4 16.96C43.856 16.2507 43.112 15.896 42.168 15.896C41.2347 15.896 40.4907 16.2507 39.936 16.96C39.3867 17.6693 39.112 18.68 39.112 19.992C39.112 21.32 39.3867 22.328 39.936 23.016C40.4907 23.6987 41.2347 24.04 42.168 24.04ZM54.8801 14.952H56.6081L50.1921 21.56V19.8L54.8801 14.952ZM52.0001 19.192L56.8801 25H55.2481L51.1041 20.008L52.0001 19.192ZM49.1041 14.952H50.3681V25H49.1041V14.952ZM59.1109 22.184L58.9509 14.984H60.2789L60.1189 22.184H59.1109ZM59.6149 25.144C59.3429 25.144 59.1189 25.0587 58.9429 24.888C58.7669 24.7173 58.6789 24.504 58.6789 24.248C58.6789 23.9973 58.7669 23.784 58.9429 23.608C59.1189 23.4267 59.3429 23.336 59.6149 23.336C59.8815 23.336 60.1055 23.4267 60.2869 23.608C60.4735 23.784 60.5669 23.9973 60.5669 24.248C60.5669 24.504 60.4735 24.7173 60.2869 24.888C60.1055 25.0587 59.8815 25.144 59.6149 25.144ZM67.5372 25V14.952H68.7852V25H67.5372ZM78.8265 25.192C78.2132 25.192 77.6398 25.0267 77.1065 24.696C76.5785 24.3653 76.1518 23.8987 75.8265 23.296C75.5012 22.6933 75.3385 21.9813 75.3385 21.16C75.3385 20.3173 75.5012 19.5973 75.8265 19C76.1518 18.4027 76.5785 17.9467 77.1065 17.632C77.6398 17.3173 78.2132 17.16 78.8265 17.16C79.2585 17.16 79.6452 17.2267 79.9865 17.36C80.3332 17.488 80.6345 17.6667 80.8905 17.896C81.1465 18.1253 81.3572 18.3867 81.5225 18.68C81.6932 18.968 81.8185 19.272 81.8985 19.592L80.6185 19.704C80.4852 19.2613 80.2612 18.912 79.9465 18.656C79.6372 18.3947 79.2585 18.264 78.8105 18.264C78.4318 18.264 78.0745 18.3733 77.7385 18.592C77.4078 18.8053 77.1385 19.128 76.9305 19.56C76.7225 19.9867 76.6185 20.52 76.6185 21.16C76.6185 21.752 76.7118 22.2667 76.8985 22.704C77.0905 23.136 77.3518 23.472 77.6825 23.712C78.0132 23.952 78.3892 24.072 78.8105 24.072C79.4025 24.072 79.8505 23.928 80.1545 23.64C80.4638 23.3467 80.6185 22.9413 80.6185 22.424H81.8985C81.8985 22.9573 81.7732 23.432 81.5225 23.848C81.2718 24.264 80.9145 24.592 80.4505 24.832C79.9918 25.072 79.4505 25.192 78.8265 25.192ZM89.2845 25L89.1245 23.32V20.04C89.1245 19.352 88.9778 18.8587 88.6845 18.56C88.3912 18.256 87.9512 18.104 87.3645 18.104C87.0338 18.104 86.7325 18.152 86.4605 18.248C86.1938 18.344 85.9805 18.4933 85.8205 18.696C85.6658 18.8933 85.5885 19.1493 85.5885 19.464H84.1965C84.1965 18.9093 84.3325 18.464 84.6045 18.128C84.8765 17.7867 85.2498 17.5413 85.7245 17.392C86.2045 17.2373 86.7512 17.16 87.3645 17.16C87.9512 17.16 88.4712 17.2587 88.9245 17.456C89.3778 17.6533 89.7325 17.968 89.9885 18.4C90.2445 18.8267 90.3725 19.384 90.3725 20.072V25H89.2845ZM86.6765 25.192C86.0472 25.192 85.5272 25.08 85.1165 24.856C84.7058 24.632 84.3992 24.3413 84.1965 23.984C83.9938 23.6267 83.8925 23.2507 83.8925 22.856C83.8925 22.3387 84.0205 21.9173 84.2765 21.592C84.5378 21.2667 84.8925 21.0293 85.3405 20.88C85.7885 20.7253 86.2925 20.648 86.8525 20.648C87.2525 20.648 87.6525 20.688 88.0525 20.768C88.4578 20.848 88.8525 20.9573 89.2365 21.096V21.88C88.9165 21.752 88.5538 21.6507 88.1485 21.576C87.7485 21.5013 87.3805 21.464 87.0445 21.464C86.5325 21.464 86.1005 21.5707 85.7485 21.784C85.3965 21.992 85.2205 22.3493 85.2205 22.856C85.2205 23.2293 85.3538 23.5493 85.6205 23.816C85.8925 24.0827 86.3245 24.216 86.9165 24.216C87.3325 24.216 87.7058 24.12 88.0365 23.928C88.3725 23.7307 88.6365 23.4853 88.8285 23.192C89.0258 22.8987 89.1245 22.6053 89.1245 22.312H89.4285C89.4285 22.824 89.3165 23.2987 89.0925 23.736C88.8738 24.1733 88.5592 24.5253 88.1485 24.792C87.7378 25.0587 87.2472 25.192 86.6765 25.192ZM98.961 25V20.504C98.961 19.7733 98.785 19.2187 98.433 18.84C98.0863 18.456 97.6117 18.264 97.009 18.264C96.5503 18.264 96.153 18.3893 95.817 18.64C95.481 18.8907 95.2223 19.2507 95.041 19.72C94.8597 20.184 94.769 20.7387 94.769 21.384H94.289C94.289 20.4933 94.4063 19.7333 94.641 19.104C94.8757 18.4747 95.217 17.9947 95.665 17.664C96.1183 17.328 96.6677 17.16 97.313 17.16C97.9157 17.16 98.4303 17.296 98.857 17.568C99.289 17.8347 99.6197 18.2187 99.849 18.72C100.078 19.2213 100.193 19.816 100.193 20.504V25H98.961ZM93.521 25V17.352H94.593L94.769 19.112V25H93.521ZM109.646 25.192C109.23 25.192 108.857 25.112 108.526 24.952C108.195 24.792 107.934 24.552 107.742 24.232C107.55 23.912 107.454 23.512 107.454 23.032V15.224H108.686V23C108.686 23.7893 109.054 24.184 109.79 24.184C110.009 24.184 110.219 24.16 110.422 24.112C110.63 24.064 110.862 23.992 111.118 23.896L111.294 24.792C111.022 24.9093 110.75 25.0053 110.478 25.08C110.211 25.1547 109.934 25.192 109.646 25.192ZM106.222 18.216V17.352H111.102V18.216H106.222ZM116.126 25.192C115.464 25.192 114.872 25.024 114.35 24.688C113.832 24.3467 113.422 23.8747 113.118 23.272C112.819 22.6693 112.67 21.976 112.67 21.192C112.67 20.3547 112.819 19.6347 113.118 19.032C113.416 18.4293 113.824 17.968 114.342 17.648C114.864 17.3227 115.459 17.16 116.126 17.16C116.707 17.16 117.203 17.2773 117.614 17.512C118.024 17.7467 118.355 18.064 118.606 18.464C118.856 18.864 119.03 19.3173 119.126 19.824C119.227 20.3253 119.256 20.8453 119.214 21.384H113.678V20.616H118.39L118.022 20.856C118.038 20.5413 118.019 20.2267 117.966 19.912C117.918 19.5973 117.824 19.3093 117.686 19.048C117.547 18.7813 117.352 18.568 117.102 18.408C116.851 18.248 116.531 18.168 116.142 18.168C115.651 18.168 115.24 18.2933 114.91 18.544C114.579 18.7947 114.331 19.1253 114.166 19.536C114 19.9413 113.918 20.3813 113.918 20.856V21.368C113.918 21.9013 113.998 22.3787 114.158 22.8C114.323 23.2213 114.568 23.5547 114.894 23.8C115.219 24.0453 115.63 24.168 116.126 24.168C116.622 24.168 117.03 24.048 117.35 23.808C117.67 23.568 117.864 23.2133 117.934 22.744H119.23C119.15 23.2507 118.968 23.688 118.686 24.056C118.403 24.4187 118.043 24.6987 117.606 24.896C117.168 25.0933 116.675 25.192 116.126 25.192ZM121.848 25V14.088H123.096V25H121.848ZM126.493 25V14.088H127.741V25H126.493ZM133.83 17.352H135.222L137.718 23.912H137.43L139.366 17.352H140.646L137.766 26.536C137.526 27.304 137.206 27.896 136.806 28.312C136.406 28.728 135.894 28.936 135.27 28.936C134.934 28.936 134.614 28.888 134.31 28.792C134.011 28.696 133.702 28.5573 133.382 28.376V27.224C133.665 27.448 133.937 27.608 134.198 27.704C134.465 27.8 134.742 27.848 135.03 27.848C135.35 27.848 135.617 27.7467 135.83 27.544C136.049 27.3413 136.23 27.08 136.374 26.76C136.518 26.4453 136.641 26.1147 136.742 25.768L136.966 25L133.83 17.352ZM145.475 25.192C144.787 25.192 144.174 25.04 143.635 24.736C143.102 24.432 142.681 23.9813 142.371 23.384C142.062 22.7867 141.907 22.0507 141.907 21.176C141.907 20.296 142.062 19.56 142.371 18.968C142.681 18.3707 143.102 17.92 143.635 17.616C144.174 17.312 144.787 17.16 145.475 17.16C146.158 17.16 146.766 17.312 147.299 17.616C147.838 17.92 148.259 18.3707 148.563 18.968C148.873 19.56 149.027 20.296 149.027 21.176C149.027 22.0507 148.873 22.7867 148.563 23.384C148.259 23.9813 147.838 24.432 147.299 24.736C146.766 25.04 146.158 25.192 145.475 25.192ZM145.443 24.104C145.939 24.104 146.361 23.9867 146.707 23.752C147.054 23.512 147.315 23.1733 147.491 22.736C147.673 22.2987 147.763 21.7787 147.763 21.176C147.763 20.264 147.574 19.5467 147.195 19.024C146.817 18.496 146.254 18.232 145.507 18.232C145.006 18.232 144.582 18.352 144.235 18.592C143.894 18.8267 143.633 19.1653 143.451 19.608C143.275 20.0453 143.187 20.568 143.187 21.176C143.187 22.0773 143.377 22.792 143.755 23.32C144.139 23.8427 144.702 24.104 145.443 24.104ZM156.817 17.336H158.065V25H156.817V17.336ZM151.393 17.336H152.641V22.104C152.641 22.744 152.796 23.2293 153.105 23.56C153.42 23.8907 153.868 24.056 154.449 24.056C154.929 24.056 155.345 23.928 155.697 23.672C156.055 23.416 156.329 23.064 156.521 22.616C156.719 22.1627 156.817 21.6453 156.817 21.064H157.281C157.281 21.9227 157.156 22.656 156.905 23.264C156.66 23.872 156.311 24.3387 155.857 24.664C155.409 24.984 154.881 25.144 154.273 25.144C153.697 25.144 153.193 25.0373 152.761 24.824C152.329 24.6107 151.993 24.288 151.753 23.856C151.513 23.4187 151.393 22.8667 151.393 22.2V17.336ZM161.465 25V17.336H162.713V25H161.465ZM162.329 21.544C162.329 20.5733 162.422 19.768 162.609 19.128C162.795 18.4827 163.067 18.0027 163.425 17.688C163.787 17.368 164.227 17.208 164.745 17.208C164.915 17.208 165.07 17.2213 165.209 17.248C165.353 17.2693 165.497 17.304 165.641 17.352L165.561 18.584C165.411 18.536 165.249 18.496 165.073 18.464C164.897 18.4267 164.739 18.408 164.601 18.408C164.147 18.408 163.782 18.5387 163.505 18.8C163.227 19.056 163.025 19.4187 162.897 19.888C162.774 20.3573 162.713 20.9093 162.713 21.544H162.329ZM176.099 25L175.939 23.32V20.04C175.939 19.352 175.792 18.8587 175.499 18.56C175.206 18.256 174.766 18.104 174.179 18.104C173.848 18.104 173.547 18.152 173.275 18.248C173.008 18.344 172.795 18.4933 172.635 18.696C172.48 18.8933 172.403 19.1493 172.403 19.464H171.011C171.011 18.9093 171.147 18.464 171.419 18.128C171.691 17.7867 172.064 17.5413 172.539 17.392C173.019 17.2373 173.566 17.16 174.179 17.16C174.766 17.16 175.286 17.2587 175.739 17.456C176.192 17.6533 176.547 17.968 176.803 18.4C177.059 18.8267 177.187 19.384 177.187 20.072V25H176.099ZM173.491 25.192C172.862 25.192 172.342 25.08 171.931 24.856C171.52 24.632 171.214 24.3413 171.011 23.984C170.808 23.6267 170.707 23.2507 170.707 22.856C170.707 22.3387 170.835 21.9173 171.091 21.592C171.352 21.2667 171.707 21.0293 172.155 20.88C172.603 20.7253 173.107 20.648 173.667 20.648C174.067 20.648 174.467 20.688 174.867 20.768C175.272 20.848 175.667 20.9573 176.051 21.096V21.88C175.731 21.752 175.368 21.6507 174.963 21.576C174.563 21.5013 174.195 21.464 173.859 21.464C173.347 21.464 172.915 21.5707 172.563 21.784C172.211 21.992 172.035 22.3493 172.035 22.856C172.035 23.2293 172.168 23.5493 172.435 23.816C172.707 24.0827 173.139 24.216 173.731 24.216C174.147 24.216 174.52 24.12 174.851 23.928C175.187 23.7307 175.451 23.4853 175.643 23.192C175.84 22.8987 175.939 22.6053 175.939 22.312H176.243C176.243 22.824 176.131 23.2987 175.907 23.736C175.688 24.1733 175.374 24.5253 174.963 24.792C174.552 25.0587 174.062 25.192 173.491 25.192ZM183.839 25.192C183.327 25.192 182.863 25.0587 182.447 24.792C182.037 24.5253 181.709 24.136 181.463 23.624C181.223 23.1067 181.103 22.4773 181.103 21.736H181.583C181.583 22.232 181.685 22.656 181.887 23.008C182.095 23.3547 182.362 23.6187 182.687 23.8C183.013 23.9813 183.354 24.072 183.711 24.072C184.122 24.072 184.498 23.9547 184.839 23.72C185.181 23.4853 185.453 23.1493 185.655 22.712C185.863 22.2747 185.967 21.752 185.967 21.144C185.967 20.5467 185.866 20.0347 185.663 19.608C185.461 19.176 185.186 18.8453 184.839 18.616C184.498 18.3813 184.117 18.264 183.695 18.264C183.333 18.264 182.989 18.3547 182.663 18.536C182.343 18.712 182.082 18.9733 181.879 19.32C181.682 19.6667 181.583 20.0933 181.583 20.6H181.103C181.103 19.8747 181.221 19.256 181.455 18.744C181.695 18.232 182.026 17.84 182.447 17.568C182.869 17.296 183.359 17.16 183.919 17.16C184.522 17.16 185.074 17.3227 185.575 17.648C186.082 17.968 186.487 18.4267 186.791 19.024C187.095 19.6213 187.247 20.328 187.247 21.144C187.247 21.9653 187.093 22.68 186.783 23.288C186.474 23.8907 186.061 24.36 185.543 24.696C185.026 25.0267 184.458 25.192 183.839 25.192ZM180.335 25V14.088H181.583V23.208L181.215 25H180.335ZM192.748 25.192C192.06 25.192 191.446 25.04 190.908 24.736C190.374 24.432 189.953 23.9813 189.644 23.384C189.334 22.7867 189.18 22.0507 189.18 21.176C189.18 20.296 189.334 19.56 189.644 18.968C189.953 18.3707 190.374 17.92 190.908 17.616C191.446 17.312 192.06 17.16 192.748 17.16C193.43 17.16 194.038 17.312 194.572 17.616C195.11 17.92 195.532 18.3707 195.836 18.968C196.145 19.56 196.3 20.296 196.3 21.176C196.3 22.0507 196.145 22.7867 195.836 23.384C195.532 23.9813 195.11 24.432 194.572 24.736C194.038 25.04 193.43 25.192 192.748 25.192ZM192.716 24.104C193.212 24.104 193.633 23.9867 193.98 23.752C194.326 23.512 194.588 23.1733 194.764 22.736C194.945 22.2987 195.036 21.7787 195.036 21.176C195.036 20.264 194.846 19.5467 194.468 19.024C194.089 18.496 193.526 18.232 192.78 18.232C192.278 18.232 191.854 18.352 191.508 18.592C191.166 18.8267 190.905 19.1653 190.724 19.608C190.548 20.0453 190.46 20.568 190.46 21.176C190.46 22.0773 190.649 22.792 191.028 23.32C191.412 23.8427 191.974 24.104 192.716 24.104ZM204.09 17.336H205.338V25H204.09V17.336ZM198.666 17.336H199.914V22.104C199.914 22.744 200.068 23.2293 200.378 23.56C200.692 23.8907 201.14 24.056 201.722 24.056C202.202 24.056 202.618 23.928 202.97 23.672C203.327 23.416 203.602 23.064 203.794 22.616C203.991 22.1627 204.09 21.6453 204.09 21.064H204.554C204.554 21.9227 204.428 22.656 204.178 23.264C203.932 23.872 203.583 24.3387 203.13 24.664C202.682 24.984 202.154 25.144 201.546 25.144C200.97 25.144 200.466 25.0373 200.034 24.824C199.602 24.6107 199.266 24.288 199.026 23.856C198.786 23.4187 198.666 22.8667 198.666 22.2V17.336ZM211.089 25.192C210.673 25.192 210.3 25.112 209.969 24.952C209.639 24.792 209.377 24.552 209.185 24.232C208.993 23.912 208.897 23.512 208.897 23.032V15.224H210.129V23C210.129 23.7893 210.497 24.184 211.233 24.184C211.452 24.184 211.663 24.16 211.865 24.112C212.073 24.064 212.305 23.992 212.561 23.896L212.737 24.792C212.465 24.9093 212.193 25.0053 211.921 25.08C211.655 25.1547 211.377 25.192 211.089 25.192ZM207.665 18.216V17.352H212.545V18.216H207.665ZM38.488 45V34.616H42.328C43.5707 34.616 44.5227 34.9067 45.184 35.488C45.8507 36.0693 46.184 36.84 46.184 37.8C46.184 38.744 45.8507 39.5067 45.184 40.088C44.5227 40.664 43.5707 40.952 42.328 40.952H40.376V45H38.488ZM44.104 45L41.352 40.136H43.368L46.568 45H44.104ZM40.376 39.688H42.136C42.8293 39.688 43.3547 39.5307 43.712 39.216C44.0693 38.896 44.248 38.4827 44.248 37.976C44.248 37.4587 44.0853 37.0427 43.76 36.728C43.4347 36.408 42.9573 36.248 42.328 36.248H40.376V39.688ZM52.9129 45.224C51.9902 45.224 51.1742 45.0213 50.4649 44.616C49.7609 44.2107 49.2089 43.6053 48.8089 42.8C48.4089 41.9947 48.2089 40.9947 48.2089 39.8C48.2089 38.584 48.4089 37.5787 48.8089 36.784C49.2089 35.984 49.7609 35.3893 50.4649 35C51.1742 34.6053 51.9902 34.408 52.9129 34.408C53.8409 34.408 54.6595 34.6107 55.3689 35.016C56.0782 35.416 56.6329 36.016 57.0329 36.816C57.4329 37.616 57.6329 38.6107 57.6329 39.8C57.6329 41.0107 57.4329 42.0187 57.0329 42.824C56.6329 43.6293 56.0782 44.232 55.3689 44.632C54.6595 45.0267 53.8409 45.224 52.9129 45.224ZM52.9129 43.512C53.7609 43.512 54.4329 43.192 54.9289 42.552C55.4302 41.912 55.6809 40.9893 55.6809 39.784C55.6809 38.6213 55.4302 37.7173 54.9289 37.072C54.4329 36.4267 53.7609 36.104 52.9129 36.104C52.0809 36.104 51.4142 36.4293 50.9129 37.08C50.4115 37.7253 50.1609 38.632 50.1609 39.8C50.1609 41 50.4115 41.92 50.9129 42.56C51.4142 43.1947 52.0809 43.512 52.9129 43.512ZM63.9948 45.224C63.0721 45.224 62.2561 45.0213 61.5467 44.616C60.8427 44.2107 60.2907 43.6053 59.8907 42.8C59.4907 41.9947 59.2907 40.9947 59.2907 39.8C59.2907 38.584 59.4907 37.5787 59.8907 36.784C60.2907 35.984 60.8427 35.3893 61.5467 35C62.2561 34.6053 63.0721 34.408 63.9948 34.408C64.9228 34.408 65.7414 34.6107 66.4507 35.016C67.1601 35.416 67.7148 36.016 68.1147 36.816C68.5148 37.616 68.7148 38.6107 68.7148 39.8C68.7148 41.0107 68.5148 42.0187 68.1147 42.824C67.7148 43.6293 67.1601 44.232 66.4507 44.632C65.7414 45.0267 64.9228 45.224 63.9948 45.224ZM63.9948 43.512C64.8427 43.512 65.5147 43.192 66.0107 42.552C66.5121 41.912 66.7627 40.9893 66.7627 39.784C66.7627 38.6213 66.5121 37.7173 66.0107 37.072C65.5147 36.4267 64.8427 36.104 63.9948 36.104C63.1627 36.104 62.4961 36.4293 61.9947 37.08C61.4934 37.7253 61.2427 38.632 61.2427 39.8C61.2427 41 61.4934 41.92 61.9947 42.56C62.4961 43.1947 63.1627 43.512 63.9948 43.512ZM69.7166 36.248V34.616H78.0366V36.248H74.3966L74.8206 35.816V45H72.9326V35.816L73.3566 36.248H69.7166ZM87.7515 45.224C86.8395 45.224 86.0448 45.008 85.3675 44.576C84.6955 44.1387 84.1728 43.5147 83.7995 42.704C83.4262 41.8933 83.2395 40.92 83.2395 39.784C83.2395 38.6107 83.4315 37.6267 83.8155 36.832C84.2048 36.032 84.7382 35.4293 85.4155 35.024C86.0982 34.6133 86.8768 34.408 87.7515 34.408C88.9622 34.408 89.9062 34.7013 90.5835 35.288C91.2662 35.8747 91.7035 36.6373 91.8955 37.576L89.8795 37.944C89.7142 37.4 89.4502 36.96 89.0875 36.624C88.7248 36.288 88.2795 36.12 87.7515 36.12C87.2875 36.12 86.8688 36.256 86.4955 36.528C86.1222 36.7947 85.8235 37.2 85.5995 37.744C85.3808 38.288 85.2715 38.968 85.2715 39.784C85.2715 40.552 85.3675 41.2133 85.5595 41.768C85.7568 42.3227 86.0395 42.7493 86.4075 43.048C86.7755 43.3467 87.2235 43.496 87.7515 43.496C88.4288 43.496 88.9515 43.3173 89.3195 42.96C89.6928 42.5973 89.8795 42.136 89.8795 41.576H91.8955C91.8955 42.3493 91.7275 43.008 91.3915 43.552C91.0608 44.0907 90.5862 44.504 89.9675 44.792C89.3488 45.08 88.6102 45.224 87.7515 45.224ZM94.1161 34.616H96.0041V41.08C96.0041 41.9333 96.2201 42.5493 96.6521 42.928C97.0895 43.3067 97.6468 43.496 98.3241 43.496C99.0068 43.496 99.5641 43.3067 99.9961 42.928C100.428 42.5493 100.644 41.9333 100.644 41.08V34.616H102.532V41.08C102.532 41.9547 102.364 42.7013 102.028 43.32C101.692 43.9387 101.209 44.4107 100.58 44.736C99.9561 45.0613 99.2041 45.224 98.3241 45.224C97.4441 45.224 96.6895 45.0613 96.0601 44.736C95.4361 44.4107 94.9561 43.9387 94.6201 43.32C94.2841 42.7013 94.1161 41.9547 94.1161 41.08V34.616ZM104.091 36.248V34.616H112.411V36.248H108.771L109.195 35.816V45H107.307V35.816L107.731 36.248H104.091ZM112.751 36.248V34.616H121.071V36.248H117.431L117.855 35.816V45H115.967V35.816L116.391 36.248H112.751ZM122.803 45V34.616H124.691V45H122.803ZM127.806 34.616H129.87L134.59 42.024H134.446V34.616H136.334V45H134.414L129.39 37.144H129.694V45H127.806V34.616ZM143.259 45.224C142.411 45.224 141.645 45 140.963 44.552C140.28 44.104 139.736 43.48 139.331 42.68C138.931 41.8747 138.731 40.936 138.731 39.864C138.731 39.016 138.853 38.256 139.099 37.584C139.349 36.912 139.696 36.3387 140.139 35.864C140.581 35.3893 141.101 35.0293 141.699 34.784C142.296 34.5333 142.944 34.408 143.643 34.408C144.613 34.408 145.427 34.6187 146.083 35.04C146.744 35.4613 147.259 36.1253 147.627 37.032L145.691 37.48C145.419 37.0373 145.104 36.7013 144.747 36.472C144.395 36.2373 143.995 36.12 143.547 36.12C143.035 36.12 142.568 36.272 142.147 36.576C141.725 36.8747 141.389 37.304 141.139 37.864C140.888 38.424 140.763 39.0907 140.763 39.864C140.763 40.5893 140.872 41.224 141.091 41.768C141.315 42.312 141.627 42.736 142.027 43.04C142.427 43.344 142.891 43.496 143.419 43.496C143.867 43.496 144.267 43.3973 144.619 43.2C144.976 42.9973 145.256 42.7093 145.459 42.336C145.667 41.9627 145.771 41.512 145.771 40.984H146.187C146.187 41.848 146.083 42.5973 145.875 43.232C145.672 43.8667 145.355 44.3573 144.923 44.704C144.491 45.0507 143.936 45.224 143.259 45.224ZM146.043 45L145.771 42.712V40.92L143.435 40.872V39.672H147.579V45H146.043ZM157.558 45.192C156.87 45.192 156.256 45.04 155.718 44.736C155.184 44.432 154.763 43.9813 154.454 43.384C154.144 42.7867 153.99 42.0507 153.99 41.176C153.99 40.296 154.144 39.56 154.454 38.968C154.763 38.3707 155.184 37.92 155.718 37.616C156.256 37.312 156.87 37.16 157.558 37.16C158.24 37.16 158.848 37.312 159.382 37.616C159.92 37.92 160.342 38.3707 160.646 38.968C160.955 39.56 161.11 40.296 161.11 41.176C161.11 42.0507 160.955 42.7867 160.646 43.384C160.342 43.9813 159.92 44.432 159.382 44.736C158.848 45.04 158.24 45.192 157.558 45.192ZM157.526 44.104C158.022 44.104 158.443 43.9867 158.79 43.752C159.136 43.512 159.398 43.1733 159.574 42.736C159.755 42.2987 159.846 41.7787 159.846 41.176C159.846 40.264 159.656 39.5467 159.278 39.024C158.899 38.496 158.336 38.232 157.59 38.232C157.088 38.232 156.664 38.352 156.318 38.592C155.976 38.8267 155.715 39.1653 155.534 39.608C155.358 40.0453 155.27 40.568 155.27 41.176C155.27 42.0773 155.459 42.792 155.838 43.32C156.222 43.8427 156.784 44.104 157.526 44.104ZM163.7 45V37.336H164.948V45H163.7ZM164.564 41.544C164.564 40.5733 164.657 39.768 164.844 39.128C165.03 38.4827 165.302 38.0027 165.66 37.688C166.022 37.368 166.462 37.208 166.98 37.208C167.15 37.208 167.305 37.2213 167.444 37.248C167.588 37.2693 167.732 37.304 167.876 37.352L167.796 38.584C167.646 38.536 167.484 38.496 167.308 38.464C167.132 38.4267 166.974 38.408 166.836 38.408C166.382 38.408 166.017 38.5387 165.74 38.8C165.462 39.056 165.26 39.4187 165.132 39.888C165.009 40.3573 164.948 40.9093 164.948 41.544H164.564ZM173.672 45V34.616H177.336C178.504 34.616 179.413 34.904 180.064 35.48C180.72 36.056 181.048 36.872 181.048 37.928C181.048 38.9733 180.72 39.784 180.064 40.36C179.413 40.936 178.504 41.224 177.336 41.224H175.576V45H173.672ZM175.576 39.576H177.336C177.923 39.576 178.365 39.4213 178.664 39.112C178.963 38.8027 179.112 38.408 179.112 37.928C179.112 37.4373 178.963 37.0347 178.664 36.72C178.365 36.4053 177.923 36.248 177.336 36.248H175.576V39.576ZM185.049 34.616V43.352H189.321V45H183.161V34.616H185.049ZM190.091 45L193.627 34.616H195.995L199.387 45H197.403L196.683 42.76H192.827L192.091 45H190.091ZM193.307 41.336H196.235L194.779 36.872L193.307 41.336ZM201.371 34.616H203.435L208.155 42.024H208.011V34.616H209.899V45H207.979L202.955 37.144H203.259V45H201.371V34.616ZM211.64 36.248V34.616H219.96V36.248H216.32L216.744 35.816V45H214.856V35.816L215.28 36.248H211.64ZM38.44 65V54.616H42.104C43.272 54.616 44.1813 54.904 44.832 55.48C45.488 56.056 45.816 56.872 45.816 57.928C45.816 58.9733 45.488 59.784 44.832 60.36C44.1813 60.936 43.272 61.224 42.104 61.224H40.344V65H38.44ZM40.344 59.576H42.104C42.6907 59.576 43.1333 59.4213 43.432 59.112C43.7307 58.8027 43.88 58.408 43.88 57.928C43.88 57.4373 43.7307 57.0347 43.432 56.72C43.1333 56.4053 42.6907 56.248 42.104 56.248H40.344V59.576ZM47.9292 65V54.616H51.7692C53.0119 54.616 53.9639 54.9067 54.6252 55.488C55.2919 56.0693 55.6252 56.84 55.6252 57.8C55.6252 58.744 55.2919 59.5067 54.6252 60.088C53.9639 60.664 53.0119 60.952 51.7692 60.952H49.8173V65H47.9292ZM53.5453 65L50.7933 60.136H52.8093L56.0093 65H53.5453ZM49.8173 59.688H51.5773C52.2706 59.688 52.7959 59.5307 53.1533 59.216C53.5106 58.896 53.6892 58.4827 53.6892 57.976C53.6892 57.4587 53.5266 57.0427 53.2013 56.728C52.8759 56.408 52.3986 56.248 51.7692 56.248H49.8173V59.688ZM62.3541 65.224C61.4315 65.224 60.6155 65.0213 59.9061 64.616C59.2021 64.2107 58.6501 63.6053 58.2501 62.8C57.8501 61.9947 57.6501 60.9947 57.6501 59.8C57.6501 58.584 57.8501 57.5787 58.2501 56.784C58.6501 55.984 59.2021 55.3893 59.9061 55C60.6155 54.6053 61.4315 54.408 62.3541 54.408C63.2821 54.408 64.1008 54.6107 64.8101 55.016C65.5195 55.416 66.0741 56.016 66.4741 56.816C66.8741 57.616 67.0741 58.6107 67.0741 59.8C67.0741 61.0107 66.8741 62.0187 66.4741 62.824C66.0741 63.6293 65.5195 64.232 64.8101 64.632C64.1008 65.0267 63.2821 65.224 62.3541 65.224ZM62.3541 63.512C63.2021 63.512 63.8741 63.192 64.3701 62.552C64.8715 61.912 65.1221 60.9893 65.1221 59.784C65.1221 58.6213 64.8715 57.7173 64.3701 57.072C63.8741 56.4267 63.2021 56.104 62.3541 56.104C61.5221 56.104 60.8555 56.4293 60.3541 57.08C59.8528 57.7253 59.6021 58.632 59.6021 59.8C59.6021 61 59.8528 61.92 60.3541 62.56C60.8555 63.1947 61.5221 63.512 62.3541 63.512ZM69.42 65V54.616H73.084C74.252 54.616 75.1613 54.904 75.812 55.48C76.468 56.056 76.796 56.872 76.796 57.928C76.796 58.9733 76.468 59.784 75.812 60.36C75.1613 60.936 74.252 61.224 73.084 61.224H71.324V65H69.42ZM71.324 59.576H73.084C73.6707 59.576 74.1133 59.4213 74.412 59.112C74.7107 58.8027 74.86 58.408 74.86 57.928C74.86 57.4373 74.7107 57.0347 74.412 56.72C74.1133 56.4053 73.6707 56.248 73.084 56.248H71.324V59.576ZM77.117 65L80.653 54.616H83.021L86.413 65H84.429L83.709 62.76H79.853L79.117 65H77.117ZM80.333 61.336H83.261L81.805 56.872L80.333 61.336ZM92.2206 65.224C91.3726 65.224 90.6073 65 89.9246 64.552C89.242 64.104 88.698 63.48 88.2926 62.68C87.8926 61.8747 87.6926 60.936 87.6926 59.864C87.6926 59.016 87.8153 58.256 88.0606 57.584C88.3113 56.912 88.658 56.3387 89.1006 55.864C89.5433 55.3893 90.0633 55.0293 90.6606 54.784C91.258 54.5333 91.906 54.408 92.6046 54.408C93.5753 54.408 94.3886 54.6187 95.0446 55.04C95.706 55.4613 96.2206 56.1253 96.5886 57.032L94.6526 57.48C94.3806 57.0373 94.066 56.7013 93.7086 56.472C93.3566 56.2373 92.9566 56.12 92.5086 56.12C91.9966 56.12 91.53 56.272 91.1086 56.576C90.6873 56.8747 90.3513 57.304 90.1006 57.864C89.85 58.424 89.7246 59.0907 89.7246 59.864C89.7246 60.5893 89.834 61.224 90.0526 61.768C90.2766 62.312 90.5886 62.736 90.9886 63.04C91.3886 63.344 91.8526 63.496 92.3806 63.496C92.8286 63.496 93.2286 63.3973 93.5806 63.2C93.938 62.9973 94.218 62.7093 94.4206 62.336C94.6286 61.9627 94.7326 61.512 94.7326 60.984H95.1486C95.1486 61.848 95.0446 62.5973 94.8366 63.232C94.634 63.8667 94.3166 64.3573 93.8846 64.704C93.4526 65.0507 92.898 65.224 92.2206 65.224ZM95.0046 65L94.7326 62.712V60.92L92.3966 60.872V59.672H96.5406V65H95.0046ZM98.2807 65L101.817 54.616H104.185L107.577 65H105.593L104.873 62.76H101.017L100.281 65H98.2807ZM101.497 61.336H104.425L102.969 56.872L101.497 61.336ZM107.482 56.248V54.616H115.802V56.248H112.162L112.586 55.816V65H110.698V55.816L111.122 56.248H107.482ZM117.534 65V54.616H119.422V65H117.534ZM126.537 65.224C125.614 65.224 124.798 65.0213 124.089 64.616C123.385 64.2107 122.833 63.6053 122.433 62.8C122.033 61.9947 121.833 60.9947 121.833 59.8C121.833 58.584 122.033 57.5787 122.433 56.784C122.833 55.984 123.385 55.3893 124.089 55C124.798 54.6053 125.614 54.408 126.537 54.408C127.465 54.408 128.283 54.6107 128.993 55.016C129.702 55.416 130.257 56.016 130.657 56.816C131.057 57.616 131.257 58.6107 131.257 59.8C131.257 61.0107 131.057 62.0187 130.657 62.824C130.257 63.6293 129.702 64.232 128.993 64.632C128.283 65.0267 127.465 65.224 126.537 65.224ZM126.537 63.512C127.385 63.512 128.057 63.192 128.553 62.552C129.054 61.912 129.305 60.9893 129.305 59.784C129.305 58.6213 129.054 57.7173 128.553 57.072C128.057 56.4267 127.385 56.104 126.537 56.104C125.705 56.104 125.038 56.4293 124.537 57.08C124.035 57.7253 123.785 58.632 123.785 59.8C123.785 61 124.035 61.92 124.537 62.56C125.038 63.1947 125.705 63.512 126.537 63.512ZM133.618 54.616H135.682L140.402 62.024H140.258V54.616H142.146V65H140.226L135.202 57.144H135.506V65H133.618V54.616Z" fill="#4A5DC8"/>
</g>
<defs>
<filter id="filter0_d_7054_5757" x="6" y="0" width="249.767" height="88" filterUnits="userSpaceOnUse" color-interpolation-filters="sRGB">
<feFlood flood-opacity="0" result="BackgroundImageFix"/>
<feColorMatrix in="SourceAlpha" type="matrix" values="0 0 0 0 0 0 0 0 0 0 0 0 0 0 0 0 0 0 127 0" result="hardAlpha"/>
<feOffset dy="4"/>
<feGaussianBlur stdDeviation="3"/>
<feComposite in2="hardAlpha" operator="out"/>
<feColorMatrix type="matrix" values="0 0 0 0 0 0 0 0 0 0 0 0 0 0 0 0 0 0 0.1 0"/>
<feBlend mode="normal" in2="BackgroundImageFix" result="effect1_dropShadow_7054_5757"/>
<feBlend mode="normal" in="SourceGraphic" in2="effect1_dropShadow_7054_5757" result="shape"/>
</filter>
<filter id="filter1_d_7054_5757" x="31.816" y="12.0879" width="194.144" height="63.1357" filterUnits="userSpaceOnUse" color-interpolation-filters="sRGB">
<feFlood flood-opacity="0" result="BackgroundImageFix"/>
<feColorMatrix in="SourceAlpha" type="matrix" values="0 0 0 0 0 0 0 0 0 0 0 0 0 0 0 0 0 0 127 0" result="hardAlpha"/>
<feOffset dy="4"/>
<feGaussianBlur stdDeviation="3"/>
<feComposite in2="hardAlpha" operator="out"/>
<feColorMatrix type="matrix" values="0 0 0 0 0 0 0 0 0 0 0 0 0 0 0 0 0 0 0.05 0"/>
<feBlend mode="normal" in2="BackgroundImageFix" result="effect1_dropShadow_7054_5757"/>
<feBlend mode="normal" in="SourceGraphic" in2="effect1_dropShadow_7054_5757" result="shape"/>
</filter>
</defs>
</svg>
