<svg width="256" height="68" viewBox="0 0 256 68" fill="none" xmlns="http://www.w3.org/2000/svg">
<mask id="path-1-inside-1_7070_5678" fill="white">
<path d="M248.724 27.3669L239 19L239 11C239 6.02944 234.971 2 230 2L8.99997 1.99998C4.02941 1.99998 -2.59742e-05 6.02942 -2.64087e-05 11L-2.97308e-05 49C-3.01653e-05 53.9705 4.0294 58 8.99997 58L230 58C234.971 58 239 53.9706 239 49L239 39.5L248.612 32.0069C250.106 30.8425 250.16 28.6022 248.724 27.3669Z"/>
</mask>
<path d="M248.724 27.3669L239 19L239 11C239 6.02944 234.971 2 230 2L8.99997 1.99998C4.02941 1.99998 -2.59742e-05 6.02942 -2.64087e-05 11L-2.97308e-05 49C-3.01653e-05 53.9705 4.0294 58 8.99997 58L230 58C234.971 58 239 53.9706 239 49L239 39.5L248.612 32.0069C250.106 30.8425 250.16 28.6022 248.724 27.3669Z" fill="white"/>
<path d="M239 19L237.6 19L237.6 19.6423L238.087 20.0612L239 19ZM248.724 27.3669L249.637 26.3056L249.637 26.3056L248.724 27.3669ZM248.612 32.0069L247.751 30.9028L247.751 30.9028L248.612 32.0069ZM239 39.5L238.139 38.3959L237.6 38.8162L237.6 39.5L239 39.5ZM238.087 20.0612L247.811 28.4281L249.637 26.3056L239.913 17.9388L238.087 20.0612ZM247.751 30.9028L238.139 38.3959L239.861 40.6041L249.473 33.1111L247.751 30.9028ZM247.811 28.4281C248.577 29.0869 248.548 30.2817 247.751 30.9028L249.473 33.1111C251.663 31.4032 251.743 28.1175 249.637 26.3056L247.811 28.4281ZM230 56.6L8.99997 56.6L8.99997 59.4L230 59.4L230 56.6ZM1.39997 49L1.39997 11L-1.40003 11L-1.40003 49L1.39997 49ZM8.99997 3.39998L230 3.4L230 0.599998L8.99997 0.599979L8.99997 3.39998ZM237.6 39.5L237.6 49L240.4 49L240.4 39.5L237.6 39.5ZM237.6 11L237.6 19L240.4 19L240.4 11L237.6 11ZM230 3.4C234.197 3.4 237.6 6.80264 237.6 11L240.4 11C240.4 5.25624 235.744 0.599999 230 0.599998L230 3.4ZM1.39997 11C1.39997 6.80261 4.80261 3.39998 8.99997 3.39998L8.99997 0.599979C3.25621 0.599978 -1.40003 5.25622 -1.40003 11L1.39997 11ZM8.99997 56.6C4.8026 56.6 1.39997 53.1973 1.39997 49L-1.40003 49C-1.40003 54.7437 3.2562 59.4 8.99997 59.4L8.99997 56.6ZM230 59.4C235.744 59.4 240.4 54.7438 240.4 49L237.6 49C237.6 53.1974 234.197 56.6 230 56.6L230 59.4Z" fill="white" mask="url(#path-1-inside-1_7070_5678)"/>
<g filter="url(#filter0_d_7070_5678)">
<mask id="path-3-inside-2_7070_5678" fill="white">
<path d="M248.724 27.3669L239 19L239 11C239 6.02944 234.971 2 230 2L159 1.99999C154.029 1.99999 150 6.02943 150 11L150 49C150 53.9705 154.029 58 159 58L230 58C234.971 58 239 53.9706 239 49L239 39.5L248.612 32.0069C250.106 30.8425 250.16 28.6022 248.724 27.3669Z"/>
</mask>
<path d="M248.724 27.3669L239 19L239 11C239 6.02944 234.971 2 230 2L159 1.99999C154.029 1.99999 150 6.02943 150 11L150 49C150 53.9705 154.029 58 159 58L230 58C234.971 58 239 53.9706 239 49L239 39.5L248.612 32.0069C250.106 30.8425 250.16 28.6022 248.724 27.3669Z" fill="white"/>
<path d="M239 19L237.6 19L237.6 19.6423L238.087 20.0612L239 19ZM248.724 27.3669L249.637 26.3056L249.637 26.3056L248.724 27.3669ZM248.612 32.0069L247.751 30.9028L247.751 30.9028L248.612 32.0069ZM239 39.5L238.139 38.3959L237.6 38.8162L237.6 39.5L239 39.5ZM230 58L230 59.4L230 59.4L230 58ZM159 58L159 56.6L159 56.6L159 58ZM238.087 20.0612L247.811 28.4281L249.637 26.3056L239.913 17.9388L238.087 20.0612ZM247.751 30.9028L238.139 38.3959L239.861 40.6041L249.473 33.1111L247.751 30.9028ZM247.811 28.4281C248.577 29.0869 248.548 30.2817 247.751 30.9028L249.473 33.1111C251.663 31.4032 251.743 28.1175 249.637 26.3056L247.811 28.4281ZM230 56.6L159 56.6L159 59.4L230 59.4L230 56.6ZM151.4 49L151.4 11L148.6 11L148.6 49L151.4 49ZM159 3.39999L230 3.4L230 0.599998L159 0.599992L159 3.39999ZM237.6 39.5L237.6 49L240.4 49L240.4 39.5L237.6 39.5ZM237.6 11L237.6 19L240.4 19L240.4 11L237.6 11ZM230 3.4C234.197 3.4 237.6 6.80264 237.6 11L240.4 11C240.4 5.25624 235.744 0.599999 230 0.599998L230 3.4ZM151.4 11C151.4 6.80263 154.803 3.39999 159 3.39999L159 0.599992C153.256 0.599992 148.6 5.25623 148.6 11L151.4 11ZM159 56.6C154.803 56.6 151.4 53.1973 151.4 49L148.6 49C148.6 54.7437 153.256 59.4 159 59.4L159 56.6ZM230 59.4C235.744 59.4 240.4 54.7438 240.4 49L237.6 49C237.6 53.1974 234.197 56.6 230 56.6L230 59.4Z" fill="#333333" mask="url(#path-3-inside-2_7070_5678)"/>
</g>
<g filter="url(#filter1_d_7070_5678)">
<path d="M199.961 15.452H201.465L204.345 20.332H204.025L206.953 15.452H208.441L204.809 21.372V25.5H203.545V21.372L199.961 15.452ZM211.983 25.692C211.322 25.692 210.73 25.524 210.207 25.188C209.69 24.8467 209.279 24.3747 208.975 23.772C208.677 23.1693 208.527 22.476 208.527 21.692C208.527 20.8547 208.677 20.1347 208.975 19.532C209.274 18.9293 209.682 18.468 210.199 18.148C210.722 17.8227 211.317 17.66 211.983 17.66C212.565 17.66 213.061 17.7773 213.471 18.012C213.882 18.2467 214.213 18.564 214.463 18.964C214.714 19.364 214.887 19.8173 214.983 20.324C215.085 20.8253 215.114 21.3453 215.071 21.884H209.535V21.116H214.247L213.879 21.356C213.895 21.0413 213.877 20.7267 213.823 20.412C213.775 20.0973 213.682 19.8093 213.543 19.548C213.405 19.2813 213.21 19.068 212.959 18.908C212.709 18.748 212.389 18.668 211.999 18.668C211.509 18.668 211.098 18.7933 210.767 19.044C210.437 19.2947 210.189 19.6253 210.023 20.036C209.858 20.4413 209.775 20.8813 209.775 21.356V21.868C209.775 22.4013 209.855 22.8787 210.015 23.3C210.181 23.7213 210.426 24.0547 210.751 24.3C211.077 24.5453 211.487 24.668 211.983 24.668C212.479 24.668 212.887 24.548 213.207 24.308C213.527 24.068 213.722 23.7133 213.791 23.244H215.087C215.007 23.7507 214.826 24.188 214.543 24.556C214.261 24.9187 213.901 25.1987 213.463 25.396C213.026 25.5933 212.533 25.692 211.983 25.692ZM220.458 25.692C219.717 25.692 219.098 25.588 218.602 25.38C218.106 25.1667 217.73 24.876 217.474 24.508C217.218 24.1347 217.082 23.708 217.066 23.228H218.266C218.293 23.7133 218.487 24.0787 218.85 24.324C219.218 24.564 219.717 24.684 220.346 24.684C220.677 24.684 220.981 24.6307 221.258 24.524C221.535 24.4173 221.757 24.2707 221.922 24.084C222.087 23.8973 222.17 23.6867 222.17 23.452C222.17 23.1533 222.061 22.9187 221.842 22.748C221.623 22.5773 221.274 22.428 220.794 22.3L219.306 21.82C218.661 21.6173 218.165 21.34 217.818 20.988C217.477 20.6307 217.306 20.204 217.306 19.708C217.306 19.0893 217.578 18.5933 218.122 18.22C218.666 17.8467 219.381 17.66 220.266 17.66C221.205 17.66 221.933 17.852 222.45 18.236C222.967 18.62 223.237 19.1 223.258 19.676H222.026C221.978 19.34 221.807 19.0867 221.514 18.916C221.221 18.74 220.805 18.652 220.266 18.652C219.749 18.652 219.343 18.7693 219.05 19.004C218.762 19.2333 218.618 19.4893 218.618 19.772C218.618 20.3 219.071 20.6893 219.978 20.94L221.498 21.452C222.154 21.6493 222.655 21.908 223.002 22.228C223.354 22.548 223.53 22.956 223.53 23.452C223.53 23.836 223.405 24.1987 223.154 24.54C222.903 24.8813 222.549 25.1587 222.09 25.372C221.631 25.5853 221.087 25.692 220.458 25.692ZM226.08 27.244L225.136 26.78C225.44 26.6253 225.696 26.4547 225.904 26.268C226.118 26.0813 226.256 25.852 226.32 25.58C226.091 25.5533 225.894 25.4707 225.728 25.332C225.568 25.1933 225.488 25.0093 225.488 24.78C225.488 24.556 225.571 24.364 225.736 24.204C225.907 24.044 226.123 23.964 226.384 23.964C226.715 23.964 226.982 24.084 227.184 24.324C227.387 24.564 227.488 24.8493 227.488 25.18C227.488 25.5693 227.368 25.9507 227.128 26.324C226.894 26.7027 226.544 27.0093 226.08 27.244ZM164.637 49.436C163.853 49.436 163.173 49.324 162.597 49.1C162.021 48.8813 161.573 48.5853 161.253 48.212C160.939 47.844 160.781 47.436 160.781 46.988C160.781 46.396 160.997 45.9427 161.429 45.628C161.867 45.3187 162.429 45.164 163.117 45.164L163.805 45.596C163.229 45.596 162.784 45.716 162.469 45.956C162.155 46.196 161.997 46.524 161.997 46.94C161.997 47.356 162.221 47.708 162.669 47.996C163.117 48.284 163.773 48.428 164.637 48.428C165.277 48.428 165.837 48.3347 166.317 48.148C166.803 47.9667 167.179 47.7267 167.445 47.428C167.717 47.1347 167.853 46.8173 167.853 46.476C167.853 46.236 167.765 46.028 167.589 45.852C167.413 45.6813 167.144 45.596 166.781 45.596H163.805C163.288 45.596 162.84 45.5187 162.461 45.364C162.088 45.204 161.8 44.996 161.597 44.74C161.395 44.484 161.293 44.204 161.293 43.9C161.293 43.58 161.384 43.308 161.565 43.084C161.747 42.86 161.981 42.6893 162.269 42.572C162.563 42.4547 162.877 42.396 163.213 42.396L163.453 42.86C163.293 42.86 163.131 42.8973 162.965 42.972C162.805 43.0413 162.669 43.148 162.557 43.292C162.451 43.4307 162.397 43.6067 162.397 43.82C162.397 44.0653 162.499 44.2707 162.701 44.436C162.904 44.6013 163.272 44.684 163.805 44.684H166.781C167.501 44.684 168.067 44.836 168.477 45.14C168.893 45.444 169.101 45.868 169.101 46.412C169.101 46.9133 168.923 47.3933 168.565 47.852C168.208 48.316 167.696 48.6947 167.029 48.988C166.363 49.2867 165.565 49.436 164.637 49.436ZM164.861 43.26C164.275 43.26 163.744 43.1427 163.269 42.908C162.8 42.6733 162.427 42.3453 162.149 41.924C161.877 41.5027 161.741 41.0147 161.741 40.46C161.741 39.9 161.877 39.4093 162.149 38.988C162.427 38.5667 162.8 38.2413 163.269 38.012C163.744 37.7773 164.275 37.66 164.861 37.66C165.432 37.66 165.949 37.7773 166.413 38.012C166.883 38.2413 167.256 38.5667 167.533 38.988C167.811 39.4093 167.949 39.9 167.949 40.46C167.949 41.0147 167.811 41.5027 167.533 41.924C167.256 42.3453 166.883 42.6733 166.413 42.908C165.949 43.1427 165.432 43.26 164.861 43.26ZM164.861 42.364C165.448 42.364 165.904 42.1827 166.229 41.82C166.555 41.4573 166.717 41.004 166.717 40.46C166.717 39.9 166.555 39.4467 166.229 39.1C165.904 38.748 165.448 38.572 164.861 38.572C164.28 38.572 163.821 38.748 163.485 39.1C163.155 39.4467 162.989 39.9 162.989 40.46C162.989 41.004 163.155 41.4573 163.485 41.82C163.821 42.1827 164.28 42.364 164.861 42.364ZM167.373 38.876L166.781 38.636C166.781 38.188 166.869 37.796 167.045 37.46C167.221 37.1187 167.472 36.8547 167.797 36.668C168.123 36.476 168.509 36.38 168.957 36.38L168.861 37.612C168.381 37.612 168.013 37.716 167.757 37.924C167.501 38.1267 167.373 38.444 167.373 38.876ZM173.893 45.692C173.205 45.692 172.591 45.54 172.053 45.236C171.519 44.932 171.098 44.4813 170.789 43.884C170.479 43.2867 170.325 42.5507 170.325 41.676C170.325 40.796 170.479 40.06 170.789 39.468C171.098 38.8707 171.519 38.42 172.053 38.116C172.591 37.812 173.205 37.66 173.893 37.66C174.575 37.66 175.183 37.812 175.717 38.116C176.255 38.42 176.677 38.8707 176.981 39.468C177.29 40.06 177.445 40.796 177.445 41.676C177.445 42.5507 177.29 43.2867 176.981 43.884C176.677 44.4813 176.255 44.932 175.717 45.236C175.183 45.54 174.575 45.692 173.893 45.692ZM173.861 44.604C174.357 44.604 174.778 44.4867 175.125 44.252C175.471 44.012 175.733 43.6733 175.909 43.236C176.09 42.7987 176.181 42.2787 176.181 41.676C176.181 40.764 175.991 40.0467 175.613 39.524C175.234 38.996 174.671 38.732 173.925 38.732C173.423 38.732 172.999 38.852 172.653 39.092C172.311 39.3267 172.05 39.6653 171.869 40.108C171.693 40.5453 171.605 41.068 171.605 41.676C171.605 42.5773 171.794 43.292 172.173 43.82C172.557 44.3427 173.119 44.604 173.861 44.604ZM188.728 45.5L188.568 43.82V40.54C188.568 39.852 188.421 39.3587 188.128 39.06C187.834 38.756 187.394 38.604 186.808 38.604C186.477 38.604 186.176 38.652 185.904 38.748C185.637 38.844 185.424 38.9933 185.264 39.196C185.109 39.3933 185.032 39.6493 185.032 39.964H183.64C183.64 39.4093 183.776 38.964 184.048 38.628C184.32 38.2867 184.693 38.0413 185.168 37.892C185.648 37.7373 186.194 37.66 186.808 37.66C187.394 37.66 187.914 37.7587 188.368 37.956C188.821 38.1533 189.176 38.468 189.432 38.9C189.688 39.3267 189.816 39.884 189.816 40.572V45.5H188.728ZM186.12 45.692C185.49 45.692 184.97 45.58 184.56 45.356C184.149 45.132 183.842 44.8413 183.64 44.484C183.437 44.1267 183.336 43.7507 183.336 43.356C183.336 42.8387 183.464 42.4173 183.72 42.092C183.981 41.7667 184.336 41.5293 184.784 41.38C185.232 41.2253 185.736 41.148 186.296 41.148C186.696 41.148 187.096 41.188 187.496 41.268C187.901 41.348 188.296 41.4573 188.68 41.596V42.38C188.36 42.252 187.997 42.1507 187.592 42.076C187.192 42.0013 186.824 41.964 186.488 41.964C185.976 41.964 185.544 42.0707 185.192 42.284C184.84 42.492 184.664 42.8493 184.664 43.356C184.664 43.7293 184.797 44.0493 185.064 44.316C185.336 44.5827 185.768 44.716 186.36 44.716C186.776 44.716 187.149 44.62 187.48 44.428C187.816 44.2307 188.08 43.9853 188.272 43.692C188.469 43.3987 188.568 43.1053 188.568 42.812H188.872C188.872 43.324 188.76 43.7987 188.536 44.236C188.317 44.6733 188.002 45.0253 187.592 45.292C187.181 45.5587 186.69 45.692 186.12 45.692ZM198.404 45.5V41.004C198.404 40.2733 198.228 39.7187 197.876 39.34C197.529 38.956 197.055 38.764 196.452 38.764C195.993 38.764 195.596 38.8893 195.26 39.14C194.924 39.3907 194.665 39.7507 194.484 40.22C194.303 40.684 194.212 41.2387 194.212 41.884H193.732C193.732 40.9933 193.849 40.2333 194.084 39.604C194.319 38.9747 194.66 38.4947 195.108 38.164C195.561 37.828 196.111 37.66 196.756 37.66C197.359 37.66 197.873 37.796 198.3 38.068C198.732 38.3347 199.063 38.7187 199.292 39.22C199.521 39.7213 199.636 40.316 199.636 41.004V45.5H198.404ZM192.964 45.5V34.588H194.212V45.5H192.964ZM205.436 45.692C204.775 45.692 204.183 45.524 203.66 45.188C203.143 44.8467 202.732 44.3747 202.428 43.772C202.13 43.1693 201.98 42.476 201.98 41.692C201.98 40.8547 202.13 40.1347 202.428 39.532C202.727 38.9293 203.135 38.468 203.652 38.148C204.175 37.8227 204.77 37.66 205.436 37.66C206.018 37.66 206.514 37.7773 206.924 38.012C207.335 38.2467 207.666 38.564 207.916 38.964C208.167 39.364 208.34 39.8173 208.436 40.324C208.538 40.8253 208.567 41.3453 208.524 41.884H202.988V41.116H207.7L207.332 41.356C207.348 41.0413 207.33 40.7267 207.276 40.412C207.228 40.0973 207.135 39.8093 206.996 39.548C206.858 39.2813 206.663 39.068 206.412 38.908C206.162 38.748 205.842 38.668 205.452 38.668C204.962 38.668 204.551 38.7933 204.22 39.044C203.89 39.2947 203.642 39.6253 203.476 40.036C203.311 40.4413 203.228 40.8813 203.228 41.356V41.868C203.228 42.4013 203.308 42.8787 203.468 43.3C203.634 43.7213 203.879 44.0547 204.204 44.3C204.53 44.5453 204.94 44.668 205.436 44.668C205.932 44.668 206.34 44.548 206.66 44.308C206.98 44.068 207.175 43.7133 207.244 43.244H208.54C208.46 43.7507 208.279 44.188 207.996 44.556C207.714 44.9187 207.354 45.1987 206.916 45.396C206.479 45.5933 205.986 45.692 205.436 45.692ZM215.895 45.5L215.735 43.82V40.54C215.735 39.852 215.588 39.3587 215.295 39.06C215.002 38.756 214.562 38.604 213.975 38.604C213.644 38.604 213.343 38.652 213.071 38.748C212.804 38.844 212.591 38.9933 212.431 39.196C212.276 39.3933 212.199 39.6493 212.199 39.964H210.807C210.807 39.4093 210.943 38.964 211.215 38.628C211.487 38.2867 211.86 38.0413 212.335 37.892C212.815 37.7373 213.362 37.66 213.975 37.66C214.562 37.66 215.082 37.7587 215.535 37.956C215.988 38.1533 216.343 38.468 216.599 38.9C216.855 39.3267 216.983 39.884 216.983 40.572V45.5H215.895ZM213.287 45.692C212.658 45.692 212.138 45.58 211.727 45.356C211.316 45.132 211.01 44.8413 210.807 44.484C210.604 44.1267 210.503 43.7507 210.503 43.356C210.503 42.8387 210.631 42.4173 210.887 42.092C211.148 41.7667 211.503 41.5293 211.951 41.38C212.399 41.2253 212.903 41.148 213.463 41.148C213.863 41.148 214.263 41.188 214.663 41.268C215.068 41.348 215.463 41.4573 215.847 41.596V42.38C215.527 42.252 215.164 42.1507 214.759 42.076C214.359 42.0013 213.991 41.964 213.655 41.964C213.143 41.964 212.711 42.0707 212.359 42.284C212.007 42.492 211.831 42.8493 211.831 43.356C211.831 43.7293 211.964 44.0493 212.231 44.316C212.503 44.5827 212.935 44.716 213.527 44.716C213.943 44.716 214.316 44.62 214.647 44.428C214.983 44.2307 215.247 43.9853 215.439 43.692C215.636 43.3987 215.735 43.1053 215.735 42.812H216.039C216.039 43.324 215.927 43.7987 215.703 44.236C215.484 44.6733 215.17 45.0253 214.759 45.292C214.348 45.5587 213.858 45.692 213.287 45.692ZM222.868 45.692C222.249 45.692 221.681 45.5267 221.164 45.196C220.646 44.86 220.233 44.3907 219.924 43.788C219.614 43.18 219.46 42.4653 219.46 41.644C219.46 40.828 219.612 40.1213 219.916 39.524C220.22 38.9267 220.622 38.468 221.124 38.148C221.63 37.8227 222.185 37.66 222.788 37.66C223.348 37.66 223.838 37.796 224.26 38.068C224.686 38.34 225.017 38.732 225.252 39.244C225.486 39.756 225.604 40.3747 225.604 41.1H225.124C225.124 40.5933 225.022 40.1667 224.82 39.82C224.622 39.4733 224.364 39.212 224.044 39.036C223.724 38.8547 223.38 38.764 223.012 38.764C222.596 38.764 222.214 38.8813 221.868 39.116C221.526 39.3453 221.252 39.676 221.044 40.108C220.841 40.5347 220.74 41.0467 220.74 41.644C220.74 42.252 220.841 42.7747 221.044 43.212C221.252 43.6493 221.526 43.9853 221.868 44.22C222.214 44.4547 222.596 44.572 223.012 44.572C223.358 44.572 223.692 44.4813 224.012 44.3C224.337 44.1187 224.604 43.8547 224.812 43.508C225.02 43.156 225.124 42.732 225.124 42.236H225.604C225.604 42.9773 225.481 43.6067 225.236 44.124C224.996 44.636 224.668 45.0253 224.252 45.292C223.841 45.5587 223.38 45.692 222.868 45.692ZM225.332 45.5L225.124 43.708V34.588H226.372V45.5H225.332Z" fill="#333333"/>
</g>
<defs>
<filter id="filter0_d_7070_5678" x="144" y="0" width="111.767" height="68" filterUnits="userSpaceOnUse" color-interpolation-filters="sRGB">
<feFlood flood-opacity="0" result="BackgroundImageFix"/>
<feColorMatrix in="SourceAlpha" type="matrix" values="0 0 0 0 0 0 0 0 0 0 0 0 0 0 0 0 0 0 127 0" result="hardAlpha"/>
<feOffset dy="4"/>
<feGaussianBlur stdDeviation="3"/>
<feComposite in2="hardAlpha" operator="out"/>
<feColorMatrix type="matrix" values="0 0 0 0 0 0 0 0 0 0 0 0 0 0 0 0 0 0 0.1 0"/>
<feBlend mode="normal" in2="BackgroundImageFix" result="effect1_dropShadow_7070_5678"/>
<feBlend mode="normal" in="SourceGraphic" in2="effect1_dropShadow_7070_5678" result="shape"/>
</filter>
<filter id="filter1_d_7070_5678" x="154.781" y="13.4521" width="78.7068" height="45.9834" filterUnits="userSpaceOnUse" color-interpolation-filters="sRGB">
<feFlood flood-opacity="0" result="BackgroundImageFix"/>
<feColorMatrix in="SourceAlpha" type="matrix" values="0 0 0 0 0 0 0 0 0 0 0 0 0 0 0 0 0 0 127 0" result="hardAlpha"/>
<feOffset dy="4"/>
<feGaussianBlur stdDeviation="3"/>
<feComposite in2="hardAlpha" operator="out"/>
<feColorMatrix type="matrix" values="0 0 0 0 0 0 0 0 0 0 0 0 0 0 0 0 0 0 0.05 0"/>
<feBlend mode="normal" in2="BackgroundImageFix" result="effect1_dropShadow_7070_5678"/>
<feBlend mode="normal" in="SourceGraphic" in2="effect1_dropShadow_7070_5678" result="shape"/>
</filter>
</defs>
</svg>
