<svg width="262" height="108" viewBox="0 0 262 108" fill="none" xmlns="http://www.w3.org/2000/svg">
<g filter="url(#filter0_d_7031_5638)">
<mask id="path-1-inside-1_7031_5638" fill="white">
<path d="M7.04335 52.6331L16.7674 61L16.7674 89C16.7674 93.9706 20.7968 98 25.7674 98L246.767 98C251.738 98 255.767 93.9706 255.767 89L255.767 11C255.767 6.02948 251.738 2.00004 246.767 2.00004L25.7674 2C20.7968 2 16.7674 6.02944 16.7674 11L16.7674 40.5L7.15557 47.9931C5.66182 49.1575 5.60763 51.3978 7.04335 52.6331Z"/>
</mask>
<path d="M7.04335 52.6331L16.7674 61L16.7674 89C16.7674 93.9706 20.7968 98 25.7674 98L246.767 98C251.738 98 255.767 93.9706 255.767 89L255.767 11C255.767 6.02948 251.738 2.00004 246.767 2.00004L25.7674 2C20.7968 2 16.7674 6.02944 16.7674 11L16.7674 40.5L7.15557 47.9931C5.66182 49.1575 5.60763 51.3978 7.04335 52.6331Z" fill="white"/>
<path d="M16.7674 61L18.1674 61L18.1674 60.3577L17.6805 59.9388L16.7674 61ZM7.04335 52.6331L6.13023 53.6944L6.13023 53.6944L7.04335 52.6331ZM7.15557 47.9931L6.29483 46.8889L6.29482 46.8889L7.15557 47.9931ZM16.7674 40.5L17.6281 41.6041L18.1674 41.1838L18.1674 40.5L16.7674 40.5ZM16.7674 11L15.3674 11L15.3674 11L16.7674 11ZM16.7674 89L18.1674 89L18.1674 89L16.7674 89ZM17.6805 59.9388L7.95647 51.5719L6.13023 53.6944L15.8543 62.0612L17.6805 59.9388ZM8.01632 49.0972L17.6281 41.6041L15.9066 39.3959L6.29483 46.8889L8.01632 49.0972ZM7.95647 51.5719C7.19075 50.9131 7.21965 49.7183 8.01632 49.0972L6.29482 46.8889C4.10398 48.5968 4.02451 51.8825 6.13023 53.6944L7.95647 51.5719ZM25.7674 3.4L246.767 3.40004L246.767 0.600042L25.7674 0.600003L25.7674 3.4ZM254.367 11L254.367 89L257.167 89L257.167 11L254.367 11ZM246.767 96.6L25.7674 96.6L25.7674 99.4L246.767 99.4L246.767 96.6ZM18.1674 40.5L18.1674 11L15.3674 11L15.3674 40.5L18.1674 40.5ZM18.1674 89L18.1674 61L15.3674 61L15.3674 89L18.1674 89ZM25.7674 96.6C21.57 96.6 18.1674 93.1974 18.1674 89L15.3674 89C15.3674 94.7438 20.0236 99.4 25.7674 99.4L25.7674 96.6ZM254.367 89C254.367 93.1974 250.965 96.6 246.767 96.6L246.767 99.4C252.511 99.4 257.167 94.7438 257.167 89L254.367 89ZM246.767 3.40004C250.965 3.40004 254.367 6.80268 254.367 11L257.167 11C257.167 5.25628 252.511 0.600043 246.767 0.600042L246.767 3.40004ZM25.7674 0.600003C20.0236 0.600002 15.3674 5.25624 15.3674 11L18.1674 11C18.1674 6.80264 21.57 3.4 25.7674 3.4L25.7674 0.600003Z" fill="#333333" mask="url(#path-1-inside-1_7031_5638)"/>
<path d="M39.168 25.192C38.336 25.192 37.592 25 36.936 24.616C36.28 24.232 35.7627 23.656 35.384 22.888C35.0053 22.1147 34.816 21.1493 34.816 19.992C34.816 18.8187 35.0053 17.848 35.384 17.08C35.7627 16.3067 36.28 15.7307 36.936 15.352C37.592 14.968 38.336 14.776 39.168 14.776C40 14.776 40.744 14.968 41.4 15.352C42.056 15.736 42.5733 16.3147 42.952 17.088C43.3307 17.8613 43.52 18.8293 43.52 19.992C43.52 21.16 43.3307 22.1307 42.952 22.904C42.5733 23.672 42.056 24.2453 41.4 24.624C40.744 25.0027 40 25.192 39.168 25.192ZM39.168 24.04C40.112 24.04 40.856 23.696 41.4 23.008C41.9493 22.32 42.224 21.3093 42.224 19.976C42.224 18.6693 41.9493 17.664 41.4 16.96C40.856 16.2507 40.112 15.896 39.168 15.896C38.2347 15.896 37.4907 16.2507 36.936 16.96C36.3867 17.6693 36.112 18.68 36.112 19.992C36.112 21.32 36.3867 22.328 36.936 23.016C37.4907 23.6987 38.2347 24.04 39.168 24.04ZM51.8801 14.952H53.6081L47.1921 21.56V19.8L51.8801 14.952ZM49.0001 19.192L53.8801 25H52.2481L48.1041 20.008L49.0001 19.192ZM46.1041 14.952H47.3681V25H46.1041V14.952ZM56.1109 22.184L55.9509 14.984H57.2789L57.1189 22.184H56.1109ZM56.6149 25.144C56.3429 25.144 56.1189 25.0587 55.9429 24.888C55.7669 24.7173 55.6789 24.504 55.6789 24.248C55.6789 23.9973 55.7669 23.784 55.9429 23.608C56.1189 23.4267 56.3429 23.336 56.6149 23.336C56.8815 23.336 57.1055 23.4267 57.2869 23.608C57.4735 23.784 57.5669 23.9973 57.5669 24.248C57.5669 24.504 57.4735 24.7173 57.2869 24.888C57.1055 25.0587 56.8815 25.144 56.6149 25.144ZM63.0652 14.952H64.5692L67.4492 19.832H67.1292L70.0572 14.952H71.5452L67.9132 20.872V25H66.6492V20.872L63.0652 14.952ZM75.1996 25.192C74.5116 25.192 73.8983 25.04 73.3596 24.736C72.8263 24.432 72.405 23.9813 72.0956 23.384C71.7863 22.7867 71.6316 22.0507 71.6316 21.176C71.6316 20.296 71.7863 19.56 72.0956 18.968C72.405 18.3707 72.8263 17.92 73.3596 17.616C73.8983 17.312 74.5116 17.16 75.1996 17.16C75.8823 17.16 76.4903 17.312 77.0236 17.616C77.5623 17.92 77.9836 18.3707 78.2876 18.968C78.597 19.56 78.7516 20.296 78.7516 21.176C78.7516 22.0507 78.597 22.7867 78.2876 23.384C77.9836 23.9813 77.5623 24.432 77.0236 24.736C76.4903 25.04 75.8823 25.192 75.1996 25.192ZM75.1676 24.104C75.6636 24.104 76.085 23.9867 76.4316 23.752C76.7783 23.512 77.0396 23.1733 77.2156 22.736C77.397 22.2987 77.4876 21.7787 77.4876 21.176C77.4876 20.264 77.2983 19.5467 76.9196 19.024C76.541 18.496 75.9783 18.232 75.2316 18.232C74.7303 18.232 74.3063 18.352 73.9596 18.592C73.6183 18.8267 73.357 19.1653 73.1756 19.608C72.9996 20.0453 72.9116 20.568 72.9116 21.176C72.9116 22.0773 73.101 22.792 73.4796 23.32C73.8636 23.8427 74.4263 24.104 75.1676 24.104ZM86.5416 17.336H87.7896V25H86.5416V17.336ZM81.1176 17.336H82.3656V22.104C82.3656 22.744 82.5203 23.2293 82.8296 23.56C83.1443 23.8907 83.5923 24.056 84.1736 24.056C84.6536 24.056 85.0696 23.928 85.4216 23.672C85.779 23.416 86.0536 23.064 86.2456 22.616C86.443 22.1627 86.5416 21.6453 86.5416 21.064H87.0056C87.0056 21.9227 86.8803 22.656 86.6296 23.264C86.3843 23.872 86.035 24.3387 85.5816 24.664C85.1336 24.984 84.6056 25.144 83.9976 25.144C83.4216 25.144 82.9176 25.0373 82.4856 24.824C82.0536 24.6107 81.7176 24.288 81.4776 23.856C81.2376 23.4187 81.1176 22.8667 81.1176 22.2V17.336ZM97.834 25.192C97.2207 25.192 96.6473 25.0267 96.114 24.696C95.586 24.3653 95.1593 23.8987 94.834 23.296C94.5087 22.6933 94.346 21.9813 94.346 21.16C94.346 20.3173 94.5087 19.5973 94.834 19C95.1593 18.4027 95.586 17.9467 96.114 17.632C96.6473 17.3173 97.2207 17.16 97.834 17.16C98.266 17.16 98.6527 17.2267 98.994 17.36C99.3407 17.488 99.642 17.6667 99.898 17.896C100.154 18.1253 100.365 18.3867 100.53 18.68C100.701 18.968 100.826 19.272 100.906 19.592L99.626 19.704C99.4927 19.2613 99.2687 18.912 98.954 18.656C98.6447 18.3947 98.266 18.264 97.818 18.264C97.4393 18.264 97.082 18.3733 96.746 18.592C96.4153 18.8053 96.146 19.128 95.938 19.56C95.73 19.9867 95.626 20.52 95.626 21.16C95.626 21.752 95.7193 22.2667 95.906 22.704C96.098 23.136 96.3593 23.472 96.69 23.712C97.0207 23.952 97.3967 24.072 97.818 24.072C98.41 24.072 98.858 23.928 99.162 23.64C99.4713 23.3467 99.626 22.9413 99.626 22.424H100.906C100.906 22.9573 100.781 23.432 100.53 23.848C100.279 24.264 99.922 24.592 99.458 24.832C98.9993 25.072 98.458 25.192 97.834 25.192ZM108.292 25L108.132 23.32V20.04C108.132 19.352 107.985 18.8587 107.692 18.56C107.399 18.256 106.959 18.104 106.372 18.104C106.041 18.104 105.74 18.152 105.468 18.248C105.201 18.344 104.988 18.4933 104.828 18.696C104.673 18.8933 104.596 19.1493 104.596 19.464H103.204C103.204 18.9093 103.34 18.464 103.612 18.128C103.884 17.7867 104.257 17.5413 104.732 17.392C105.212 17.2373 105.759 17.16 106.372 17.16C106.959 17.16 107.479 17.2587 107.932 17.456C108.385 17.6533 108.74 17.968 108.996 18.4C109.252 18.8267 109.38 19.384 109.38 20.072V25H108.292ZM105.684 25.192C105.055 25.192 104.535 25.08 104.124 24.856C103.713 24.632 103.407 24.3413 103.204 23.984C103.001 23.6267 102.9 23.2507 102.9 22.856C102.9 22.3387 103.028 21.9173 103.284 21.592C103.545 21.2667 103.9 21.0293 104.348 20.88C104.796 20.7253 105.3 20.648 105.86 20.648C106.26 20.648 106.66 20.688 107.06 20.768C107.465 20.848 107.86 20.9573 108.244 21.096V21.88C107.924 21.752 107.561 21.6507 107.156 21.576C106.756 21.5013 106.388 21.464 106.052 21.464C105.54 21.464 105.108 21.5707 104.756 21.784C104.404 21.992 104.228 22.3493 104.228 22.856C104.228 23.2293 104.361 23.5493 104.628 23.816C104.9 24.0827 105.332 24.216 105.924 24.216C106.34 24.216 106.713 24.12 107.044 23.928C107.38 23.7307 107.644 23.4853 107.836 23.192C108.033 22.8987 108.132 22.6053 108.132 22.312H108.436C108.436 22.824 108.324 23.2987 108.1 23.736C107.881 24.1733 107.567 24.5253 107.156 24.792C106.745 25.0587 106.255 25.192 105.684 25.192ZM117.968 25V20.504C117.968 19.7733 117.792 19.2187 117.44 18.84C117.094 18.456 116.619 18.264 116.016 18.264C115.558 18.264 115.16 18.3893 114.824 18.64C114.488 18.8907 114.23 19.2507 114.048 19.72C113.867 20.184 113.776 20.7387 113.776 21.384H113.296C113.296 20.4933 113.414 19.7333 113.648 19.104C113.883 18.4747 114.224 17.9947 114.672 17.664C115.126 17.328 115.675 17.16 116.32 17.16C116.923 17.16 117.438 17.296 117.864 17.568C118.296 17.8347 118.627 18.2187 118.856 18.72C119.086 19.2213 119.2 19.816 119.2 20.504V25H117.968ZM112.528 25V17.352H113.6L113.776 19.112V25H112.528ZM126.718 25V16.168C126.718 15.6613 126.814 15.248 127.006 14.928C127.203 14.6027 127.464 14.3627 127.79 14.208C128.12 14.0533 128.488 13.976 128.894 13.976C129.112 13.976 129.334 13.992 129.558 14.024C129.787 14.056 130.014 14.104 130.238 14.168L129.998 15.16C129.838 15.096 129.678 15.048 129.518 15.016C129.363 14.984 129.214 14.968 129.07 14.968C128.899 14.968 128.728 15 128.558 15.064C128.387 15.128 128.246 15.248 128.134 15.424C128.022 15.6 127.966 15.8533 127.966 16.184V25H126.718ZM125.47 18.216V17.352H129.55V18.216H125.47ZM132.486 15.544C132.23 15.544 132.027 15.472 131.878 15.328C131.728 15.1787 131.654 14.984 131.654 14.744C131.654 14.5093 131.728 14.3227 131.878 14.184C132.027 14.0453 132.23 13.976 132.486 13.976C132.742 13.976 132.944 14.0453 133.094 14.184C133.243 14.3227 133.318 14.5093 133.318 14.744C133.318 14.984 133.243 15.1787 133.094 15.328C132.944 15.472 132.742 15.544 132.486 15.544ZM131.862 25V17.336H133.11V25H131.862ZM142.152 25V20.504C142.152 19.7733 141.976 19.2187 141.624 18.84C141.277 18.456 140.802 18.264 140.2 18.264C139.741 18.264 139.344 18.3893 139.008 18.64C138.672 18.8907 138.413 19.2507 138.232 19.72C138.05 20.184 137.96 20.7387 137.96 21.384H137.48C137.48 20.4933 137.597 19.7333 137.832 19.104C138.066 18.4747 138.408 17.9947 138.856 17.664C139.309 17.328 139.858 17.16 140.504 17.16C141.106 17.16 141.621 17.296 142.048 17.568C142.48 17.8347 142.81 18.2187 143.04 18.72C143.269 19.2213 143.384 19.816 143.384 20.504V25H142.152ZM136.712 25V17.352H137.784L137.96 19.112V25H136.712ZM149.264 25.192C148.645 25.192 148.077 25.0267 147.56 24.696C147.043 24.36 146.629 23.8907 146.32 23.288C146.011 22.68 145.856 21.9653 145.856 21.144C145.856 20.328 146.008 19.6213 146.312 19.024C146.616 18.4267 147.019 17.968 147.52 17.648C148.027 17.3227 148.581 17.16 149.184 17.16C149.744 17.16 150.235 17.296 150.656 17.568C151.083 17.84 151.413 18.232 151.648 18.744C151.883 19.256 152 19.8747 152 20.6H151.52C151.52 20.0933 151.419 19.6667 151.216 19.32C151.019 18.9733 150.76 18.712 150.44 18.536C150.12 18.3547 149.776 18.264 149.408 18.264C148.992 18.264 148.611 18.3813 148.264 18.616C147.923 18.8453 147.648 19.176 147.44 19.608C147.237 20.0347 147.136 20.5467 147.136 21.144C147.136 21.752 147.237 22.2747 147.44 22.712C147.648 23.1493 147.923 23.4853 148.264 23.72C148.611 23.9547 148.992 24.072 149.408 24.072C149.755 24.072 150.088 23.9813 150.408 23.8C150.733 23.6187 151 23.3547 151.208 23.008C151.416 22.656 151.52 22.232 151.52 21.736H152C152 22.4773 151.877 23.1067 151.632 23.624C151.392 24.136 151.064 24.5253 150.648 24.792C150.237 25.0587 149.776 25.192 149.264 25.192ZM151.728 25L151.52 23.208V14.088H152.768V25H151.728ZM158.865 17.352H160.257L162.753 23.912H162.465L164.401 17.352H165.681L162.801 26.536C162.561 27.304 162.241 27.896 161.841 28.312C161.441 28.728 160.929 28.936 160.305 28.936C159.969 28.936 159.649 28.888 159.345 28.792C159.046 28.696 158.737 28.5573 158.417 28.376V27.224C158.7 27.448 158.972 27.608 159.233 27.704C159.5 27.8 159.777 27.848 160.065 27.848C160.385 27.848 160.652 27.7467 160.865 27.544C161.084 27.3413 161.265 27.08 161.409 26.76C161.553 26.4453 161.676 26.1147 161.777 25.768L162.001 25L158.865 17.352ZM170.51 25.192C169.822 25.192 169.209 25.04 168.67 24.736C168.137 24.432 167.716 23.9813 167.406 23.384C167.097 22.7867 166.942 22.0507 166.942 21.176C166.942 20.296 167.097 19.56 167.406 18.968C167.716 18.3707 168.137 17.92 168.67 17.616C169.209 17.312 169.822 17.16 170.51 17.16C171.193 17.16 171.801 17.312 172.334 17.616C172.873 17.92 173.294 18.3707 173.598 18.968C173.908 19.56 174.062 20.296 174.062 21.176C174.062 22.0507 173.908 22.7867 173.598 23.384C173.294 23.9813 172.873 24.432 172.334 24.736C171.801 25.04 171.193 25.192 170.51 25.192ZM170.478 24.104C170.974 24.104 171.396 23.9867 171.742 23.752C172.089 23.512 172.35 23.1733 172.526 22.736C172.708 22.2987 172.798 21.7787 172.798 21.176C172.798 20.264 172.609 19.5467 172.23 19.024C171.852 18.496 171.289 18.232 170.542 18.232C170.041 18.232 169.617 18.352 169.27 18.592C168.929 18.8267 168.668 19.1653 168.486 19.608C168.31 20.0453 168.222 20.568 168.222 21.176C168.222 22.0773 168.412 22.792 168.79 23.32C169.174 23.8427 169.737 24.104 170.478 24.104ZM181.852 17.336H183.1V25H181.852V17.336ZM176.428 17.336H177.676V22.104C177.676 22.744 177.831 23.2293 178.14 23.56C178.455 23.8907 178.903 24.056 179.484 24.056C179.964 24.056 180.38 23.928 180.732 23.672C181.09 23.416 181.364 23.064 181.556 22.616C181.754 22.1627 181.852 21.6453 181.852 21.064H182.316C182.316 21.9227 182.191 22.656 181.94 23.264C181.695 23.872 181.346 24.3387 180.892 24.664C180.444 24.984 179.916 25.144 179.308 25.144C178.732 25.144 178.228 25.0373 177.796 24.824C177.364 24.6107 177.028 24.288 176.788 23.856C176.548 23.4187 176.428 22.8667 176.428 22.2V17.336ZM195.897 25V20.504C195.897 19.7733 195.721 19.2187 195.369 18.84C195.022 18.456 194.547 18.264 193.945 18.264C193.486 18.264 193.089 18.3893 192.753 18.64C192.417 18.8907 192.158 19.2507 191.977 19.72C191.795 20.184 191.705 20.7387 191.705 21.384H191.225C191.225 20.4933 191.342 19.7333 191.577 19.104C191.811 18.4747 192.153 17.9947 192.601 17.664C193.054 17.328 193.603 17.16 194.249 17.16C194.851 17.16 195.366 17.296 195.793 17.568C196.225 17.8347 196.555 18.2187 196.785 18.72C197.014 19.2213 197.129 19.816 197.129 20.504V25H195.897ZM190.457 25V17.352H191.529L191.705 19.112V25H190.457ZM202.929 25.192C202.268 25.192 201.676 25.024 201.153 24.688C200.636 24.3467 200.225 23.8747 199.921 23.272C199.622 22.6693 199.473 21.976 199.473 21.192C199.473 20.3547 199.622 19.6347 199.921 19.032C200.22 18.4293 200.628 17.968 201.145 17.648C201.668 17.3227 202.262 17.16 202.929 17.16C203.51 17.16 204.006 17.2773 204.417 17.512C204.828 17.7467 205.158 18.064 205.409 18.464C205.66 18.864 205.833 19.3173 205.929 19.824C206.03 20.3253 206.06 20.8453 206.017 21.384H200.481V20.616H205.193L204.825 20.856C204.841 20.5413 204.822 20.2267 204.769 19.912C204.721 19.5973 204.628 19.3093 204.489 19.048C204.35 18.7813 204.156 18.568 203.905 18.408C203.654 18.248 203.334 18.168 202.945 18.168C202.454 18.168 202.044 18.2933 201.713 18.544C201.382 18.7947 201.134 19.1253 200.969 19.536C200.804 19.9413 200.721 20.3813 200.721 20.856V21.368C200.721 21.9013 200.801 22.3787 200.961 22.8C201.126 23.2213 201.372 23.5547 201.697 23.8C202.022 24.0453 202.433 24.168 202.929 24.168C203.425 24.168 203.833 24.048 204.153 23.808C204.473 23.568 204.668 23.2133 204.737 22.744H206.033C205.953 23.2507 205.772 23.688 205.489 24.056C205.206 24.4187 204.846 24.6987 204.409 24.896C203.972 25.0933 203.478 25.192 202.929 25.192ZM207.324 17.352H208.62L210.572 23.736H210.412L212.316 17.72H213.356L215.244 23.752H215.1L217.052 17.352H218.3L215.788 25H214.572L212.716 19.352H212.908L211.068 25H209.852L207.324 17.352ZM39.12 45.192C38.608 45.192 38.144 45.0587 37.728 44.792C37.3173 44.5253 36.9893 44.136 36.744 43.624C36.504 43.1067 36.384 42.4773 36.384 41.736H36.864C36.864 42.232 36.9653 42.656 37.168 43.008C37.376 43.3547 37.6427 43.6187 37.968 43.8C38.2933 43.9813 38.6347 44.072 38.992 44.072C39.4027 44.072 39.7787 43.9547 40.12 43.72C40.4613 43.4853 40.7333 43.1493 40.936 42.712C41.144 42.2747 41.248 41.752 41.248 41.144C41.248 40.5467 41.1467 40.0347 40.944 39.608C40.7413 39.176 40.4667 38.8453 40.12 38.616C39.7787 38.3813 39.3973 38.264 38.976 38.264C38.6133 38.264 38.2693 38.3547 37.944 38.536C37.624 38.712 37.3627 38.9733 37.16 39.32C36.9627 39.6667 36.864 40.0933 36.864 40.6H36.384C36.384 39.8747 36.5013 39.256 36.736 38.744C36.976 38.232 37.3067 37.84 37.728 37.568C38.1493 37.296 38.64 37.16 39.2 37.16C39.8027 37.16 40.3547 37.3227 40.856 37.648C41.3627 37.968 41.768 38.4267 42.072 39.024C42.376 39.6213 42.528 40.328 42.528 41.144C42.528 41.9653 42.3733 42.68 42.064 43.288C41.7547 43.8907 41.3413 44.36 40.824 44.696C40.3067 45.0267 39.7387 45.192 39.12 45.192ZM35.616 45V34.088H36.864V43.208L36.496 45H35.616ZM48.0284 45.192C47.3404 45.192 46.727 45.04 46.1884 44.736C45.655 44.432 45.2337 43.9813 44.9244 43.384C44.615 42.7867 44.4604 42.0507 44.4604 41.176C44.4604 40.296 44.615 39.56 44.9244 38.968C45.2337 38.3707 45.655 37.92 46.1884 37.616C46.727 37.312 47.3404 37.16 48.0284 37.16C48.711 37.16 49.319 37.312 49.8524 37.616C50.391 37.92 50.8124 38.3707 51.1164 38.968C51.4257 39.56 51.5804 40.296 51.5804 41.176C51.5804 42.0507 51.4257 42.7867 51.1164 43.384C50.8124 43.9813 50.391 44.432 49.8524 44.736C49.319 45.04 48.711 45.192 48.0284 45.192ZM47.9964 44.104C48.4924 44.104 48.9137 43.9867 49.2604 43.752C49.607 43.512 49.8684 43.1733 50.0444 42.736C50.2257 42.2987 50.3164 41.7787 50.3164 41.176C50.3164 40.264 50.127 39.5467 49.7484 39.024C49.3697 38.496 48.807 38.232 48.0604 38.232C47.559 38.232 47.135 38.352 46.7884 38.592C46.447 38.8267 46.1857 39.1653 46.0044 39.608C45.8284 40.0453 45.7404 40.568 45.7404 41.176C45.7404 42.0773 45.9297 42.792 46.3084 43.32C46.6924 43.8427 47.255 44.104 47.9964 44.104ZM56.9384 45.192C56.2504 45.192 55.637 45.04 55.0984 44.736C54.565 44.432 54.1437 43.9813 53.8344 43.384C53.525 42.7867 53.3704 42.0507 53.3704 41.176C53.3704 40.296 53.525 39.56 53.8344 38.968C54.1437 38.3707 54.565 37.92 55.0984 37.616C55.637 37.312 56.2504 37.16 56.9384 37.16C57.621 37.16 58.229 37.312 58.7624 37.616C59.301 37.92 59.7224 38.3707 60.0264 38.968C60.3357 39.56 60.4904 40.296 60.4904 41.176C60.4904 42.0507 60.3357 42.7867 60.0264 43.384C59.7224 43.9813 59.301 44.432 58.7624 44.736C58.229 45.04 57.621 45.192 56.9384 45.192ZM56.9064 44.104C57.4024 44.104 57.8237 43.9867 58.1704 43.752C58.517 43.512 58.7784 43.1733 58.9544 42.736C59.1357 42.2987 59.2264 41.7787 59.2264 41.176C59.2264 40.264 59.037 39.5467 58.6584 39.024C58.2797 38.496 57.717 38.232 56.9704 38.232C56.469 38.232 56.045 38.352 55.6984 38.592C55.357 38.8267 55.0957 39.1653 54.9144 39.608C54.7384 40.0453 54.6504 40.568 54.6504 41.176C54.6504 42.0773 54.8397 42.792 55.2184 43.32C55.6024 43.8427 56.165 44.104 56.9064 44.104ZM63.0804 45V34.088H64.3284V45H63.0804ZM64.1364 40.616L68.0404 37.352H69.7844L64.1364 41.944V40.616ZM68.4244 45L64.7924 40.168L66.0564 39.944L69.9604 45H68.4244ZM83.008 45V40.504C83.008 39.7733 82.832 39.2187 82.48 38.84C82.1333 38.456 81.664 38.264 81.072 38.264C80.3787 38.264 79.848 38.5333 79.48 39.072C79.112 39.6053 78.928 40.344 78.928 41.288H78.352C78.352 40.6 78.4187 39.9973 78.552 39.48C78.6907 38.9627 78.8907 38.5333 79.152 38.192C79.4133 37.8453 79.7307 37.5867 80.104 37.416C80.4773 37.2453 80.9013 37.16 81.376 37.16C81.9787 37.16 82.4933 37.296 82.92 37.568C83.352 37.8347 83.6827 38.2187 83.912 38.72C84.1413 39.2213 84.256 39.816 84.256 40.504V45H83.008ZM72.256 45V37.352H73.328L73.472 38.888C73.712 38.3333 74.048 37.9067 74.48 37.608C74.9173 37.3093 75.44 37.16 76.048 37.16C76.6507 37.16 77.1653 37.296 77.592 37.568C78.024 37.8347 78.3547 38.2187 78.584 38.72C78.8133 39.2213 78.928 39.816 78.928 40.504V45H77.696V40.504C77.696 39.7733 77.52 39.2187 77.168 38.84C76.8213 38.456 76.3467 38.264 75.744 38.264C75.2853 38.264 74.888 38.3893 74.552 38.64C74.216 38.8907 73.9573 39.2507 73.776 39.72C73.5947 40.184 73.504 40.7387 73.504 41.384V45H72.256ZM92.1207 45L91.9607 43.32V40.04C91.9607 39.352 91.8141 38.8587 91.5207 38.56C91.2274 38.256 90.7874 38.104 90.2007 38.104C89.8701 38.104 89.5687 38.152 89.2967 38.248C89.0301 38.344 88.8167 38.4933 88.6567 38.696C88.5021 38.8933 88.4247 39.1493 88.4247 39.464H87.0327C87.0327 38.9093 87.1687 38.464 87.4407 38.128C87.7127 37.7867 88.0861 37.5413 88.5607 37.392C89.0407 37.2373 89.5874 37.16 90.2007 37.16C90.7874 37.16 91.3074 37.2587 91.7607 37.456C92.2141 37.6533 92.5687 37.968 92.8247 38.4C93.0807 38.8267 93.2087 39.384 93.2087 40.072V45H92.1207ZM89.5127 45.192C88.8834 45.192 88.3634 45.08 87.9527 44.856C87.5421 44.632 87.2354 44.3413 87.0327 43.984C86.8301 43.6267 86.7287 43.2507 86.7287 42.856C86.7287 42.3387 86.8567 41.9173 87.1127 41.592C87.3741 41.2667 87.7287 41.0293 88.1767 40.88C88.6247 40.7253 89.1287 40.648 89.6887 40.648C90.0887 40.648 90.4887 40.688 90.8887 40.768C91.2941 40.848 91.6887 40.9573 92.0727 41.096V41.88C91.7527 41.752 91.3901 41.6507 90.9847 41.576C90.5847 41.5013 90.2167 41.464 89.8807 41.464C89.3687 41.464 88.9367 41.5707 88.5847 41.784C88.2327 41.992 88.0567 42.3493 88.0567 42.856C88.0567 43.2293 88.1901 43.5493 88.4567 43.816C88.7287 44.0827 89.1607 44.216 89.7527 44.216C90.1687 44.216 90.5421 44.12 90.8727 43.928C91.2087 43.7307 91.4727 43.4853 91.6647 43.192C91.8621 42.8987 91.9607 42.6053 91.9607 42.312H92.2647C92.2647 42.824 92.1527 43.2987 91.9287 43.736C91.7101 44.1733 91.3954 44.5253 90.9847 44.792C90.5741 45.0587 90.0834 45.192 89.5127 45.192ZM96.3572 45V37.336H97.6052V45H96.3572ZM97.2212 41.544C97.2212 40.5733 97.3146 39.768 97.5012 39.128C97.6879 38.4827 97.9599 38.0027 98.3172 37.688C98.6799 37.368 99.1199 37.208 99.6372 37.208C99.8079 37.208 99.9626 37.2213 100.101 37.248C100.245 37.2693 100.389 37.304 100.533 37.352L100.453 38.584C100.304 38.536 100.141 38.496 99.9652 38.464C99.7892 38.4267 99.6319 38.408 99.4932 38.408C99.0399 38.408 98.6746 38.5387 98.3972 38.8C98.1199 39.056 97.9172 39.4187 97.7892 39.888C97.6666 40.3573 97.6052 40.9093 97.6052 41.544H97.2212ZM102.299 45V34.088H103.547V45H102.299ZM103.355 40.616L107.259 37.352H109.003L103.355 41.944V40.616ZM107.643 45L104.011 40.168L105.275 39.944L109.179 45H107.643ZM115.303 45V34.616H121.847V36.248H117.191V38.984H121.447V40.6H117.191V45H115.303ZM122.03 45L125.566 34.616H127.934L131.326 45H129.342L128.622 42.76H124.766L124.03 45H122.03ZM125.246 41.336H128.174L126.718 36.872L125.246 41.336ZM136.058 42.936L138.714 34.616H140.698L137.13 45H135.146L131.626 34.616H133.626L136.25 42.936H136.058ZM146.345 45.224C145.422 45.224 144.606 45.0213 143.897 44.616C143.193 44.2107 142.641 43.6053 142.241 42.8C141.841 41.9947 141.641 40.9947 141.641 39.8C141.641 38.584 141.841 37.5787 142.241 36.784C142.641 35.984 143.193 35.3893 143.897 35C144.606 34.6053 145.422 34.408 146.345 34.408C147.273 34.408 148.091 34.6107 148.801 35.016C149.51 35.416 150.065 36.016 150.465 36.816C150.865 37.616 151.065 38.6107 151.065 39.8C151.065 41.0107 150.865 42.0187 150.465 42.824C150.065 43.6293 149.51 44.232 148.801 44.632C148.091 45.0267 147.273 45.224 146.345 45.224ZM146.345 43.512C147.193 43.512 147.865 43.192 148.361 42.552C148.862 41.912 149.113 40.9893 149.113 39.784C149.113 38.6213 148.862 37.7173 148.361 37.072C147.865 36.4267 147.193 36.104 146.345 36.104C145.513 36.104 144.846 36.4293 144.345 37.08C143.843 37.7253 143.593 38.632 143.593 39.8C143.593 41 143.843 41.92 144.345 42.56C144.846 43.1947 145.513 43.512 146.345 43.512ZM153.299 34.616H155.187V41.08C155.187 41.9333 155.403 42.5493 155.835 42.928C156.272 43.3067 156.829 43.496 157.507 43.496C158.189 43.496 158.747 43.3067 159.179 42.928C159.611 42.5493 159.827 41.9333 159.827 41.08V34.616H161.715V41.08C161.715 41.9547 161.547 42.7013 161.211 43.32C160.875 43.9387 160.392 44.4107 159.763 44.736C159.139 45.0613 158.387 45.224 157.507 45.224C156.627 45.224 155.872 45.0613 155.243 44.736C154.619 44.4107 154.139 43.9387 153.803 43.32C153.467 42.7013 153.299 41.9547 153.299 41.08V34.616ZM164.666 45V34.616H168.506C169.748 34.616 170.7 34.9067 171.362 35.488C172.028 36.0693 172.362 36.84 172.362 37.8C172.362 38.744 172.028 39.5067 171.362 40.088C170.7 40.664 169.748 40.952 168.506 40.952H166.554V45H164.666ZM170.282 45L167.53 40.136H169.546L172.746 45H170.282ZM166.554 39.688H168.314C169.007 39.688 169.532 39.5307 169.89 39.216C170.247 38.896 170.426 38.4827 170.426 37.976C170.426 37.4587 170.263 37.0427 169.938 36.728C169.612 36.408 169.135 36.248 168.506 36.248H166.554V39.688ZM175.122 45V34.616H177.01V45H175.122ZM178.765 36.248V34.616H187.085V36.248H183.445L183.869 35.816V45H181.981V35.816L182.405 36.248H178.765ZM188.801 45V34.616H195.473V36.248H190.689V38.984H195.185V40.616H190.689V43.352H195.473V45H188.801ZM206.351 45.224C205.439 45.224 204.644 45.008 203.967 44.576C203.295 44.1387 202.772 43.5147 202.399 42.704C202.026 41.8933 201.839 40.92 201.839 39.784C201.839 38.6107 202.031 37.6267 202.415 36.832C202.804 36.032 203.338 35.4293 204.015 35.024C204.698 34.6133 205.476 34.408 206.351 34.408C207.562 34.408 208.506 34.7013 209.183 35.288C209.866 35.8747 210.303 36.6373 210.495 37.576L208.479 37.944C208.314 37.4 208.05 36.96 207.687 36.624C207.324 36.288 206.879 36.12 206.351 36.12C205.887 36.12 205.468 36.256 205.095 36.528C204.722 36.7947 204.423 37.2 204.199 37.744C203.98 38.288 203.871 38.968 203.871 39.784C203.871 40.552 203.967 41.2133 204.159 41.768C204.356 42.3227 204.639 42.7493 205.007 43.048C205.375 43.3467 205.823 43.496 206.351 43.496C207.028 43.496 207.551 43.3173 207.919 42.96C208.292 42.5973 208.479 42.136 208.479 41.576H210.495C210.495 42.3493 210.327 43.008 209.991 43.552C209.66 44.0907 209.186 44.504 208.567 44.792C207.948 45.08 207.21 45.224 206.351 45.224ZM211.739 45L215.275 34.616H217.643L221.035 45H219.051L218.331 42.76H214.475L213.739 45H211.739ZM214.955 41.336H217.883L216.427 36.872L214.955 41.336ZM229.051 34.616H231.643L224.795 41.624V39.048L229.051 34.616ZM226.747 38.904L231.931 45H229.499L225.435 40.136L226.747 38.904ZM223.051 34.616H224.955V45H223.051V34.616ZM233.664 45V34.616H240.336V36.248H235.552V38.984H240.048V40.616H235.552V43.352H240.336V45H233.664ZM35.488 65V54.616H39.328C40.5707 54.616 41.5227 54.9067 42.184 55.488C42.8507 56.0693 43.184 56.84 43.184 57.8C43.184 58.744 42.8507 59.5067 42.184 60.088C41.5227 60.664 40.5707 60.952 39.328 60.952H37.376V65H35.488ZM41.104 65L38.352 60.136H40.368L43.568 65H41.104ZM37.376 59.688H39.136C39.8293 59.688 40.3547 59.5307 40.712 59.216C41.0693 58.896 41.248 58.4827 41.248 57.976C41.248 57.4587 41.0853 57.0427 40.76 56.728C40.4347 56.408 39.9573 56.248 39.328 56.248H37.376V59.688ZM45.9289 65V54.616H52.6009V56.248H47.8169V58.984H52.3129V60.616H47.8169V63.352H52.6009V65H45.9289ZM59.2715 65.224C58.3595 65.224 57.5648 65.008 56.8875 64.576C56.2155 64.1387 55.6928 63.5147 55.3195 62.704C54.9462 61.8933 54.7595 60.92 54.7595 59.784C54.7595 58.6107 54.9515 57.6267 55.3355 56.832C55.7248 56.032 56.2582 55.4293 56.9355 55.024C57.6182 54.6133 58.3968 54.408 59.2715 54.408C60.4822 54.408 61.4262 54.7013 62.1035 55.288C62.7862 55.8747 63.2235 56.6373 63.4155 57.576L61.3995 57.944C61.2342 57.4 60.9702 56.96 60.6075 56.624C60.2448 56.288 59.7995 56.12 59.2715 56.12C58.8075 56.12 58.3888 56.256 58.0155 56.528C57.6422 56.7947 57.3435 57.2 57.1195 57.744C56.9008 58.288 56.7915 58.968 56.7915 59.784C56.7915 60.552 56.8875 61.2133 57.0795 61.768C57.2768 62.3227 57.5595 62.7493 57.9275 63.048C58.2955 63.3467 58.7435 63.496 59.2715 63.496C59.9488 63.496 60.4715 63.3173 60.8395 62.96C61.2128 62.5973 61.3995 62.136 61.3995 61.576H63.4155C63.4155 62.3493 63.2475 63.008 62.9115 63.552C62.5808 64.0907 62.1062 64.504 61.4875 64.792C60.8688 65.08 60.1302 65.224 59.2715 65.224ZM65.7961 65V54.616H67.6841V65H65.7961ZM70.7831 65V54.616H74.4471C75.6151 54.616 76.5245 54.904 77.1751 55.48C77.8311 56.056 78.1591 56.872 78.1591 57.928C78.1591 58.9733 77.8311 59.784 77.1751 60.36C76.5245 60.936 75.6151 61.224 74.4471 61.224H72.6871V65H70.7831ZM72.6871 59.576H74.4471C75.0338 59.576 75.4765 59.4213 75.7751 59.112C76.0738 58.8027 76.2231 58.408 76.2231 57.928C76.2231 57.4373 76.0738 57.0347 75.7751 56.72C75.4765 56.4053 75.0338 56.248 74.4471 56.248H72.6871V59.576ZM80.2564 65V54.616H86.9284V56.248H82.1444V58.984H86.6404V60.616H82.1444V63.352H86.9284V65H80.2564ZM94.8619 55.544C94.6059 55.544 94.4032 55.472 94.2539 55.328C94.1045 55.1787 94.0299 54.984 94.0299 54.744C94.0299 54.5093 94.1045 54.3227 94.2539 54.184C94.4032 54.0453 94.6059 53.976 94.8619 53.976C95.1179 53.976 95.3205 54.0453 95.4699 54.184C95.6192 54.3227 95.6939 54.5093 95.6939 54.744C95.6939 54.984 95.6192 55.1787 95.4699 55.328C95.3205 55.472 95.1179 55.544 94.8619 55.544ZM94.2379 65V57.336H95.4859V65H94.2379ZM104.523 65V60.504C104.523 59.7733 104.347 59.2187 103.995 58.84C103.649 58.456 103.174 58.264 102.571 58.264C102.113 58.264 101.715 58.3893 101.379 58.64C101.043 58.8907 100.785 59.2507 100.603 59.72C100.422 60.184 100.331 60.7387 100.331 61.384H99.8515C99.8515 60.4933 99.9688 59.7333 100.203 59.104C100.438 58.4747 100.779 57.9947 101.227 57.664C101.681 57.328 102.23 57.16 102.875 57.16C103.478 57.16 103.993 57.296 104.419 57.568C104.851 57.8347 105.182 58.2187 105.411 58.72C105.641 59.2213 105.755 59.816 105.755 60.504V65H104.523ZM99.0835 65V57.352H100.155L100.331 59.112V65H99.0835ZM111.593 57.352H112.985L115.481 63.912H115.193L117.129 57.352H118.409L115.529 66.536C115.289 67.304 114.969 67.896 114.569 68.312C114.169 68.728 113.657 68.936 113.033 68.936C112.697 68.936 112.377 68.888 112.073 68.792C111.774 68.696 111.465 68.5573 111.145 68.376V67.224C111.427 67.448 111.699 67.608 111.961 67.704C112.227 67.8 112.505 67.848 112.793 67.848C113.113 67.848 113.379 67.7467 113.593 67.544C113.811 67.3413 113.993 67.08 114.137 66.76C114.281 66.4453 114.403 66.1147 114.505 65.768L114.729 65L111.593 57.352ZM123.238 65.192C122.55 65.192 121.936 65.04 121.398 64.736C120.864 64.432 120.443 63.9813 120.134 63.384C119.824 62.7867 119.67 62.0507 119.67 61.176C119.67 60.296 119.824 59.56 120.134 58.968C120.443 58.3707 120.864 57.92 121.398 57.616C121.936 57.312 122.55 57.16 123.238 57.16C123.92 57.16 124.528 57.312 125.062 57.616C125.6 57.92 126.022 58.3707 126.326 58.968C126.635 59.56 126.79 60.296 126.79 61.176C126.79 62.0507 126.635 62.7867 126.326 63.384C126.022 63.9813 125.6 64.432 125.062 64.736C124.528 65.04 123.92 65.192 123.238 65.192ZM123.206 64.104C123.702 64.104 124.123 63.9867 124.47 63.752C124.816 63.512 125.078 63.1733 125.254 62.736C125.435 62.2987 125.526 61.7787 125.526 61.176C125.526 60.264 125.336 59.5467 124.958 59.024C124.579 58.496 124.016 58.232 123.27 58.232C122.768 58.232 122.344 58.352 121.998 58.592C121.656 58.8267 121.395 59.1653 121.214 59.608C121.038 60.0453 120.95 60.568 120.95 61.176C120.95 62.0773 121.139 62.792 121.518 63.32C121.902 63.8427 122.464 64.104 123.206 64.104ZM134.58 57.336H135.828V65H134.58V57.336ZM129.156 57.336H130.404V62.104C130.404 62.744 130.558 63.2293 130.868 63.56C131.182 63.8907 131.63 64.056 132.212 64.056C132.692 64.056 133.108 63.928 133.46 63.672C133.817 63.416 134.092 63.064 134.284 62.616C134.481 62.1627 134.58 61.6453 134.58 61.064H135.044C135.044 61.9227 134.918 62.656 134.668 63.264C134.422 63.872 134.073 64.3387 133.62 64.664C133.172 64.984 132.644 65.144 132.036 65.144C131.46 65.144 130.956 65.0373 130.524 64.824C130.092 64.6107 129.756 64.288 129.516 63.856C129.276 63.4187 129.156 62.8667 129.156 62.2V57.336ZM139.227 65V57.336H140.475V65H139.227ZM140.091 61.544C140.091 60.5733 140.185 59.768 140.371 59.128C140.558 58.4827 140.83 58.0027 141.187 57.688C141.55 57.368 141.99 57.208 142.507 57.208C142.678 57.208 142.833 57.2213 142.971 57.248C143.115 57.2693 143.259 57.304 143.403 57.352L143.323 58.584C143.174 58.536 143.011 58.496 142.835 58.464C142.659 58.4267 142.502 58.408 142.363 58.408C141.91 58.408 141.545 58.5387 141.267 58.8C140.99 59.056 140.787 59.4187 140.659 59.888C140.537 60.3573 140.475 60.9093 140.475 61.544H140.091ZM152.629 65.192C152.117 65.192 151.653 65.0587 151.237 64.792C150.827 64.5253 150.499 64.136 150.253 63.624C150.013 63.1067 149.893 62.4773 149.893 61.736H150.373C150.373 62.232 150.475 62.656 150.677 63.008C150.885 63.3547 151.152 63.6187 151.477 63.8C151.803 63.9813 152.144 64.072 152.501 64.072C152.912 64.072 153.288 63.9547 153.629 63.72C153.971 63.4853 154.243 63.1493 154.445 62.712C154.653 62.2747 154.757 61.752 154.757 61.144C154.757 60.5467 154.656 60.0347 154.453 59.608C154.251 59.176 153.976 58.8453 153.629 58.616C153.288 58.3813 152.907 58.264 152.485 58.264C152.123 58.264 151.779 58.3547 151.453 58.536C151.133 58.712 150.872 58.9733 150.669 59.32C150.472 59.6667 150.373 60.0933 150.373 60.6H149.893C149.893 59.8747 150.011 59.256 150.245 58.744C150.485 58.232 150.816 57.84 151.237 57.568C151.659 57.296 152.149 57.16 152.709 57.16C153.312 57.16 153.864 57.3227 154.365 57.648C154.872 57.968 155.277 58.4267 155.581 59.024C155.885 59.6213 156.037 60.328 156.037 61.144C156.037 61.9653 155.883 62.68 155.573 63.288C155.264 63.8907 154.851 64.36 154.333 64.696C153.816 65.0267 153.248 65.192 152.629 65.192ZM149.125 65V54.088H150.373V63.208L150.005 65H149.125ZM161.538 65.192C160.85 65.192 160.236 65.04 159.698 64.736C159.164 64.432 158.743 63.9813 158.434 63.384C158.124 62.7867 157.97 62.0507 157.97 61.176C157.97 60.296 158.124 59.56 158.434 58.968C158.743 58.3707 159.164 57.92 159.698 57.616C160.236 57.312 160.85 57.16 161.538 57.16C162.22 57.16 162.828 57.312 163.362 57.616C163.9 57.92 164.322 58.3707 164.626 58.968C164.935 59.56 165.09 60.296 165.09 61.176C165.09 62.0507 164.935 62.7867 164.626 63.384C164.322 63.9813 163.9 64.432 163.362 64.736C162.828 65.04 162.22 65.192 161.538 65.192ZM161.506 64.104C162.002 64.104 162.423 63.9867 162.77 63.752C163.116 63.512 163.378 63.1733 163.554 62.736C163.735 62.2987 163.826 61.7787 163.826 61.176C163.826 60.264 163.636 59.5467 163.258 59.024C162.879 58.496 162.316 58.232 161.57 58.232C161.068 58.232 160.644 58.352 160.298 58.592C159.956 58.8267 159.695 59.1653 159.514 59.608C159.338 60.0453 159.25 60.568 159.25 61.176C159.25 62.0773 159.439 62.792 159.818 63.32C160.202 63.8427 160.764 64.104 161.506 64.104ZM170.448 65.192C169.76 65.192 169.146 65.04 168.608 64.736C168.074 64.432 167.653 63.9813 167.344 63.384C167.034 62.7867 166.88 62.0507 166.88 61.176C166.88 60.296 167.034 59.56 167.344 58.968C167.653 58.3707 168.074 57.92 168.608 57.616C169.146 57.312 169.76 57.16 170.448 57.16C171.13 57.16 171.738 57.312 172.272 57.616C172.81 57.92 173.232 58.3707 173.536 58.968C173.845 59.56 174 60.296 174 61.176C174 62.0507 173.845 62.7867 173.536 63.384C173.232 63.9813 172.81 64.432 172.272 64.736C171.738 65.04 171.13 65.192 170.448 65.192ZM170.416 64.104C170.912 64.104 171.333 63.9867 171.68 63.752C172.026 63.512 172.288 63.1733 172.464 62.736C172.645 62.2987 172.736 61.7787 172.736 61.176C172.736 60.264 172.546 59.5467 172.168 59.024C171.789 58.496 171.226 58.232 170.48 58.232C169.978 58.232 169.554 58.352 169.208 58.592C168.866 58.8267 168.605 59.1653 168.424 59.608C168.248 60.0453 168.16 60.568 168.16 61.176C168.16 62.0773 168.349 62.792 168.728 63.32C169.112 63.8427 169.674 64.104 170.416 64.104ZM176.59 65V54.088H177.838V65H176.59ZM177.646 60.616L181.55 57.352H183.294L177.646 61.944V60.616ZM181.934 65L178.302 60.168L179.566 59.944L183.47 65H181.934ZM196.517 65V60.504C196.517 59.7733 196.341 59.2187 195.989 58.84C195.643 58.456 195.173 58.264 194.581 58.264C193.888 58.264 193.357 58.5333 192.989 59.072C192.621 59.6053 192.437 60.344 192.437 61.288H191.861C191.861 60.6 191.928 59.9973 192.061 59.48C192.2 58.9627 192.4 58.5333 192.661 58.192C192.923 57.8453 193.24 57.5867 193.613 57.416C193.987 57.2453 194.411 57.16 194.885 57.16C195.488 57.16 196.003 57.296 196.429 57.568C196.861 57.8347 197.192 58.2187 197.421 58.72C197.651 59.2213 197.765 59.816 197.765 60.504V65H196.517ZM185.765 65V57.352H186.837L186.981 58.888C187.221 58.3333 187.557 57.9067 187.989 57.608C188.427 57.3093 188.949 57.16 189.557 57.16C190.16 57.16 190.675 57.296 191.101 57.568C191.533 57.8347 191.864 58.2187 192.093 58.72C192.323 59.2213 192.437 59.816 192.437 60.504V65H191.205V60.504C191.205 59.7733 191.029 59.2187 190.677 58.84C190.331 58.456 189.856 58.264 189.253 58.264C188.795 58.264 188.397 58.3893 188.061 58.64C187.725 58.8907 187.467 59.2507 187.285 59.72C187.104 60.184 187.013 60.7387 187.013 61.384V65H185.765ZM205.63 65L205.47 63.32V60.04C205.47 59.352 205.323 58.8587 205.03 58.56C204.737 58.256 204.297 58.104 203.71 58.104C203.379 58.104 203.078 58.152 202.806 58.248C202.539 58.344 202.326 58.4933 202.166 58.696C202.011 58.8933 201.934 59.1493 201.934 59.464H200.542C200.542 58.9093 200.678 58.464 200.95 58.128C201.222 57.7867 201.595 57.5413 202.07 57.392C202.55 57.2373 203.097 57.16 203.71 57.16C204.297 57.16 204.817 57.2587 205.27 57.456C205.723 57.6533 206.078 57.968 206.334 58.4C206.59 58.8267 206.718 59.384 206.718 60.072V65H205.63ZM203.022 65.192C202.393 65.192 201.873 65.08 201.462 64.856C201.051 64.632 200.745 64.3413 200.542 63.984C200.339 63.6267 200.238 63.2507 200.238 62.856C200.238 62.3387 200.366 61.9173 200.622 61.592C200.883 61.2667 201.238 61.0293 201.686 60.88C202.134 60.7253 202.638 60.648 203.198 60.648C203.598 60.648 203.998 60.688 204.398 60.768C204.803 60.848 205.198 60.9573 205.582 61.096V61.88C205.262 61.752 204.899 61.6507 204.494 61.576C204.094 61.5013 203.726 61.464 203.39 61.464C202.878 61.464 202.446 61.5707 202.094 61.784C201.742 61.992 201.566 62.3493 201.566 62.856C201.566 63.2293 201.699 63.5493 201.966 63.816C202.238 64.0827 202.67 64.216 203.262 64.216C203.678 64.216 204.051 64.12 204.382 63.928C204.718 63.7307 204.982 63.4853 205.174 63.192C205.371 62.8987 205.47 62.6053 205.47 62.312H205.774C205.774 62.824 205.662 63.2987 205.438 63.736C205.219 64.1733 204.905 64.5253 204.494 64.792C204.083 65.0587 203.593 65.192 203.022 65.192ZM209.867 65V57.336H211.115V65H209.867ZM210.731 61.544C210.731 60.5733 210.824 59.768 211.011 59.128C211.197 58.4827 211.469 58.0027 211.827 57.688C212.189 57.368 212.629 57.208 213.147 57.208C213.317 57.208 213.472 57.2213 213.611 57.248C213.755 57.2693 213.899 57.304 214.043 57.352L213.963 58.584C213.813 58.536 213.651 58.496 213.475 58.464C213.299 58.4267 213.141 58.408 213.003 58.408C212.549 58.408 212.184 58.5387 211.907 58.8C211.629 59.056 211.427 59.4187 211.299 59.888C211.176 60.3573 211.115 60.9093 211.115 61.544H210.731ZM215.808 65V54.088H217.056V65H215.808ZM216.864 60.616L220.768 57.352H222.512L216.864 61.944V60.616ZM221.152 65L217.52 60.168L218.784 59.944L222.688 65H221.152ZM38.304 85.192C37.6907 85.192 37.1173 85.0267 36.584 84.696C36.056 84.3653 35.6293 83.8987 35.304 83.296C34.9787 82.6933 34.816 81.9813 34.816 81.16C34.816 80.3173 34.9787 79.5973 35.304 79C35.6293 78.4027 36.056 77.9467 36.584 77.632C37.1173 77.3173 37.6907 77.16 38.304 77.16C38.736 77.16 39.1227 77.2267 39.464 77.36C39.8107 77.488 40.112 77.6667 40.368 77.896C40.624 78.1253 40.8347 78.3867 41 78.68C41.1707 78.968 41.296 79.272 41.376 79.592L40.096 79.704C39.9627 79.2613 39.7387 78.912 39.424 78.656C39.1147 78.3947 38.736 78.264 38.288 78.264C37.9093 78.264 37.552 78.3733 37.216 78.592C36.8853 78.8053 36.616 79.128 36.408 79.56C36.2 79.9867 36.096 80.52 36.096 81.16C36.096 81.752 36.1893 82.2667 36.376 82.704C36.568 83.136 36.8293 83.472 37.16 83.712C37.4907 83.952 37.8667 84.072 38.288 84.072C38.88 84.072 39.328 83.928 39.632 83.64C39.9413 83.3467 40.096 82.9413 40.096 82.424H41.376C41.376 82.9573 41.2507 83.432 41 83.848C40.7493 84.264 40.392 84.592 39.928 84.832C39.4693 85.072 38.928 85.192 38.304 85.192ZM46.794 85.192C46.106 85.192 45.4927 85.04 44.954 84.736C44.4207 84.432 43.9993 83.9813 43.69 83.384C43.3807 82.7867 43.226 82.0507 43.226 81.176C43.226 80.296 43.3807 79.56 43.69 78.968C43.9993 78.3707 44.4207 77.92 44.954 77.616C45.4927 77.312 46.106 77.16 46.794 77.16C47.4767 77.16 48.0847 77.312 48.618 77.616C49.1567 77.92 49.578 78.3707 49.882 78.968C50.1913 79.56 50.346 80.296 50.346 81.176C50.346 82.0507 50.1913 82.7867 49.882 83.384C49.578 83.9813 49.1567 84.432 48.618 84.736C48.0847 85.04 47.4767 85.192 46.794 85.192ZM46.762 84.104C47.258 84.104 47.6793 83.9867 48.026 83.752C48.3727 83.512 48.634 83.1733 48.81 82.736C48.9913 82.2987 49.082 81.7787 49.082 81.176C49.082 80.264 48.8927 79.5467 48.514 79.024C48.1353 78.496 47.5727 78.232 46.826 78.232C46.3247 78.232 45.9007 78.352 45.554 78.592C45.2127 78.8267 44.9513 79.1653 44.77 79.608C44.594 80.0453 44.506 80.568 44.506 81.176C44.506 82.0773 44.6953 82.792 45.074 83.32C45.458 83.8427 46.0207 84.104 46.762 84.104ZM52.936 85V74.088H54.184V85H52.936ZM57.5804 85V74.088H58.8284V85H57.5804ZM64.8807 85.192C64.2194 85.192 63.6274 85.024 63.1047 84.688C62.5874 84.3467 62.1767 83.8747 61.8727 83.272C61.5741 82.6693 61.4247 81.976 61.4247 81.192C61.4247 80.3547 61.5741 79.6347 61.8727 79.032C62.1714 78.4293 62.5794 77.968 63.0967 77.648C63.6194 77.3227 64.2141 77.16 64.8807 77.16C65.4621 77.16 65.9581 77.2773 66.3687 77.512C66.7794 77.7467 67.1101 78.064 67.3607 78.464C67.6114 78.864 67.7847 79.3173 67.8807 79.824C67.9821 80.3253 68.0114 80.8453 67.9687 81.384H62.4327V80.616H67.1447L66.7767 80.856C66.7927 80.5413 66.7741 80.2267 66.7207 79.912C66.6727 79.5973 66.5794 79.3093 66.4407 79.048C66.3021 78.7813 66.1074 78.568 65.8567 78.408C65.6061 78.248 65.2861 78.168 64.8967 78.168C64.4061 78.168 63.9954 78.2933 63.6647 78.544C63.3341 78.7947 63.0861 79.1253 62.9207 79.536C62.7554 79.9413 62.6727 80.3813 62.6727 80.856V81.368C62.6727 81.9013 62.7527 82.3787 62.9127 82.8C63.0781 83.2213 63.3234 83.5547 63.6487 83.8C63.9741 84.0453 64.3847 84.168 64.8807 84.168C65.3767 84.168 65.7847 84.048 66.1047 83.808C66.4247 83.568 66.6194 83.2133 66.6887 82.744H67.9847C67.9047 83.2507 67.7234 83.688 67.4407 84.056C67.1581 84.4187 66.7981 84.6987 66.3607 84.896C65.9234 85.0933 65.4301 85.192 64.8807 85.192ZM73.2915 85.192C72.6782 85.192 72.1048 85.0267 71.5715 84.696C71.0435 84.3653 70.6168 83.8987 70.2915 83.296C69.9662 82.6933 69.8035 81.9813 69.8035 81.16C69.8035 80.3173 69.9662 79.5973 70.2915 79C70.6168 78.4027 71.0435 77.9467 71.5715 77.632C72.1048 77.3173 72.6782 77.16 73.2915 77.16C73.7235 77.16 74.1102 77.2267 74.4515 77.36C74.7982 77.488 75.0995 77.6667 75.3555 77.896C75.6115 78.1253 75.8222 78.3867 75.9875 78.68C76.1582 78.968 76.2835 79.272 76.3635 79.592L75.0835 79.704C74.9502 79.2613 74.7262 78.912 74.4115 78.656C74.1022 78.3947 73.7235 78.264 73.2755 78.264C72.8968 78.264 72.5395 78.3733 72.2035 78.592C71.8728 78.8053 71.6035 79.128 71.3955 79.56C71.1875 79.9867 71.0835 80.52 71.0835 81.16C71.0835 81.752 71.1768 82.2667 71.3635 82.704C71.5555 83.136 71.8168 83.472 72.1475 83.712C72.4782 83.952 72.8542 84.072 73.2755 84.072C73.8675 84.072 74.3155 83.928 74.6195 83.64C74.9288 83.3467 75.0835 82.9413 75.0835 82.424H76.3635C76.3635 82.9573 76.2382 83.432 75.9875 83.848C75.7368 84.264 75.3795 84.592 74.9155 84.832C74.4568 85.072 73.9155 85.192 73.2915 85.192ZM81.3655 85.192C80.9495 85.192 80.5762 85.112 80.2455 84.952C79.9148 84.792 79.6535 84.552 79.4615 84.232C79.2695 83.912 79.1735 83.512 79.1735 83.032V75.224H80.4055V83C80.4055 83.7893 80.7735 84.184 81.5095 84.184C81.7282 84.184 81.9388 84.16 82.1415 84.112C82.3495 84.064 82.5815 83.992 82.8375 83.896L83.0135 84.792C82.7415 84.9093 82.4695 85.0053 82.1975 85.08C81.9308 85.1547 81.6535 85.192 81.3655 85.192ZM77.9415 78.216V77.352H82.8215V78.216H77.9415ZM85.8931 75.544C85.6371 75.544 85.4345 75.472 85.2851 75.328C85.1358 75.1787 85.0611 74.984 85.0611 74.744C85.0611 74.5093 85.1358 74.3227 85.2851 74.184C85.4345 74.0453 85.6371 73.976 85.8931 73.976C86.1491 73.976 86.3518 74.0453 86.5011 74.184C86.6505 74.3227 86.7251 74.5093 86.7251 74.744C86.7251 74.984 86.6505 75.1787 86.5011 75.328C86.3518 75.472 86.1491 75.544 85.8931 75.544ZM85.2691 85V77.336H86.5171V85H85.2691ZM92.8827 85.192C92.1947 85.192 91.5814 85.04 91.0427 84.736C90.5094 84.432 90.0881 83.9813 89.7787 83.384C89.4694 82.7867 89.3147 82.0507 89.3147 81.176C89.3147 80.296 89.4694 79.56 89.7787 78.968C90.0881 78.3707 90.5094 77.92 91.0427 77.616C91.5814 77.312 92.1947 77.16 92.8827 77.16C93.5654 77.16 94.1734 77.312 94.7067 77.616C95.2454 77.92 95.6667 78.3707 95.9707 78.968C96.2801 79.56 96.4347 80.296 96.4347 81.176C96.4347 82.0507 96.2801 82.7867 95.9707 83.384C95.6667 83.9813 95.2454 84.432 94.7067 84.736C94.1734 85.04 93.5654 85.192 92.8827 85.192ZM92.8507 84.104C93.3467 84.104 93.7681 83.9867 94.1147 83.752C94.4614 83.512 94.7227 83.1733 94.8987 82.736C95.0801 82.2987 95.1707 81.7787 95.1707 81.176C95.1707 80.264 94.9814 79.5467 94.6027 79.024C94.2241 78.496 93.6614 78.232 92.9147 78.232C92.4134 78.232 91.9894 78.352 91.6427 78.592C91.3014 78.8267 91.0401 79.1653 90.8587 79.608C90.6827 80.0453 90.5947 80.568 90.5947 81.176C90.5947 82.0773 90.7841 82.792 91.1627 83.32C91.5467 83.8427 92.1094 84.104 92.8507 84.104ZM104.465 85V80.504C104.465 79.7733 104.289 79.2187 103.937 78.84C103.59 78.456 103.115 78.264 102.513 78.264C102.054 78.264 101.657 78.3893 101.321 78.64C100.985 78.8907 100.726 79.2507 100.545 79.72C100.363 80.184 100.273 80.7387 100.273 81.384H99.7927C99.7927 80.4933 99.9101 79.7333 100.145 79.104C100.379 78.4747 100.721 77.9947 101.169 77.664C101.622 77.328 102.171 77.16 102.817 77.16C103.419 77.16 103.934 77.296 104.361 77.568C104.793 77.8347 105.123 78.2187 105.353 78.72C105.582 79.2213 105.697 79.816 105.697 80.504V85H104.465ZM99.0247 85V77.352H100.097L100.273 79.112V85H99.0247Z" fill="#333333"/>
</g>
<defs>
<filter id="filter0_d_7031_5638" x="3.05176e-05" y="0" width="261.767" height="108" filterUnits="userSpaceOnUse" color-interpolation-filters="sRGB">
<feFlood flood-opacity="0" result="BackgroundImageFix"/>
<feColorMatrix in="SourceAlpha" type="matrix" values="0 0 0 0 0 0 0 0 0 0 0 0 0 0 0 0 0 0 127 0" result="hardAlpha"/>
<feOffset dy="4"/>
<feGaussianBlur stdDeviation="3"/>
<feComposite in2="hardAlpha" operator="out"/>
<feColorMatrix type="matrix" values="0 0 0 0 0 0 0 0 0 0 0 0 0 0 0 0 0 0 0.1 0"/>
<feBlend mode="normal" in2="BackgroundImageFix" result="effect1_dropShadow_7031_5638"/>
<feBlend mode="normal" in="SourceGraphic" in2="effect1_dropShadow_7031_5638" result="shape"/>
</filter>
</defs>
</svg>
