<svg width="256" height="68" viewBox="0 0 256 68" fill="none" xmlns="http://www.w3.org/2000/svg">
<mask id="path-1-inside-1_7084_5685" fill="white">
<path d="M248.724 27.3669L239 19L239 11C239 6.02944 234.971 2 230 2L9.00022 1.99998C4.02965 1.99998 0.000218166 6.02942 0.000217732 11L0.00021441 49C0.000213975 53.9705 4.02965 58 9.00021 58L230 58C234.971 58 239 53.9706 239 49L239 39.5L248.612 32.0069C250.106 30.8425 250.16 28.6022 248.724 27.3669Z"/>
</mask>
<path d="M248.724 27.3669L239 19L239 11C239 6.02944 234.971 2 230 2L9.00022 1.99998C4.02965 1.99998 0.000218166 6.02942 0.000217732 11L0.00021441 49C0.000213975 53.9705 4.02965 58 9.00021 58L230 58C234.971 58 239 53.9706 239 49L239 39.5L248.612 32.0069C250.106 30.8425 250.16 28.6022 248.724 27.3669Z" fill="white"/>
<path d="M239 19L237.6 19L237.6 19.6423L238.087 20.0612L239 19ZM248.724 27.3669L249.637 26.3056L249.637 26.3056L248.724 27.3669ZM248.612 32.0069L247.751 30.9028L247.751 30.9028L248.612 32.0069ZM239 39.5L238.139 38.3959L237.6 38.8162L237.6 39.5L239 39.5ZM238.087 20.0612L247.811 28.4281L249.637 26.3056L239.913 17.9388L238.087 20.0612ZM247.751 30.9028L238.139 38.3959L239.861 40.6041L249.473 33.1111L247.751 30.9028ZM247.811 28.4281C248.577 29.0869 248.548 30.2817 247.751 30.9028L249.473 33.1111C251.664 31.4032 251.743 28.1175 249.637 26.3056L247.811 28.4281ZM230 56.6L9.00021 56.6L9.00021 59.4L230 59.4L230 56.6ZM1.40021 49L1.40022 11L-1.39978 11L-1.39979 49L1.40021 49ZM9.00022 3.39998L230 3.4L230 0.599998L9.00022 0.599979L9.00022 3.39998ZM237.6 39.5L237.6 49L240.4 49L240.4 39.5L237.6 39.5ZM237.6 11L237.6 19L240.4 19L240.4 11L237.6 11ZM230 3.4C234.198 3.4 237.6 6.80264 237.6 11L240.4 11C240.4 5.25624 235.744 0.599999 230 0.599998L230 3.4ZM1.40022 11C1.40022 6.80261 4.80285 3.39998 9.00022 3.39998L9.00022 0.599979C3.25645 0.599978 -1.39978 5.25622 -1.39978 11L1.40022 11ZM9.00021 56.6C4.80285 56.6 1.40021 53.1973 1.40021 49L-1.39979 49C-1.39979 54.7437 3.25645 59.4 9.00021 59.4L9.00021 56.6ZM230 59.4C235.744 59.4 240.4 54.7438 240.4 49L237.6 49C237.6 53.1974 234.198 56.6 230 56.6L230 59.4Z" fill="white" mask="url(#path-1-inside-1_7084_5685)"/>
<g filter="url(#filter0_d_7084_5685)">
<mask id="path-3-inside-2_7084_5685" fill="white">
<path d="M248.724 27.3669L239 19L239 11C239 6.02944 234.971 2 230 2L132 1.99999C127.03 1.99999 123 6.02943 123 11L123 49C123 53.9705 127.03 58 132 58L230 58C234.971 58 239 53.9706 239 49L239 39.5L248.612 32.0069C250.106 30.8425 250.16 28.6022 248.724 27.3669Z"/>
</mask>
<path d="M248.724 27.3669L239 19L239 11C239 6.02944 234.971 2 230 2L132 1.99999C127.03 1.99999 123 6.02943 123 11L123 49C123 53.9705 127.03 58 132 58L230 58C234.971 58 239 53.9706 239 49L239 39.5L248.612 32.0069C250.106 30.8425 250.16 28.6022 248.724 27.3669Z" fill="#F1F3FF"/>
<path d="M239 19L237.6 19L237.6 19.6423L238.087 20.0612L239 19ZM248.724 27.3669L249.637 26.3056L249.637 26.3056L248.724 27.3669ZM248.612 32.0069L247.751 30.9028L247.751 30.9028L248.612 32.0069ZM239 39.5L238.139 38.3959L237.6 38.8162L237.6 39.5L239 39.5ZM230 58L230 59.4L230 59.4L230 58ZM132 58L132 56.6L132 56.6L132 58ZM238.087 20.0612L247.811 28.4281L249.637 26.3056L239.913 17.9388L238.087 20.0612ZM247.751 30.9028L238.139 38.3959L239.861 40.6041L249.473 33.1111L247.751 30.9028ZM247.811 28.4281C248.577 29.0869 248.548 30.2817 247.751 30.9028L249.473 33.1111C251.664 31.4032 251.743 28.1175 249.637 26.3056L247.811 28.4281ZM230 56.6L132 56.6L132 59.4L230 59.4L230 56.6ZM124.4 49L124.4 11L121.6 11L121.6 49L124.4 49ZM132 3.39999L230 3.4L230 0.599998L132 0.59999L132 3.39999ZM237.6 39.5L237.6 49L240.4 49L240.4 39.5L237.6 39.5ZM237.6 11L237.6 19L240.4 19L240.4 11L237.6 11ZM230 3.4C234.198 3.4 237.6 6.80264 237.6 11L240.4 11C240.4 5.25624 235.744 0.599999 230 0.599998L230 3.4ZM124.4 11C124.4 6.80263 127.803 3.39999 132 3.39999L132 0.59999C126.256 0.599989 121.6 5.25623 121.6 11L124.4 11ZM132 56.6C127.803 56.6 124.4 53.1973 124.4 49L121.6 49C121.6 54.7437 126.256 59.4 132 59.4L132 56.6ZM230 59.4C235.744 59.4 240.4 54.7438 240.4 49L237.6 49C237.6 53.1974 234.198 56.6 230 56.6L230 59.4Z" fill="#4A5DC8" mask="url(#path-3-inside-2_7084_5685)"/>
</g>
<g filter="url(#filter1_d_7084_5685)">
<path d="M138.559 26V15.952H139.807V26H138.559ZM145.955 26.192C145.214 26.192 144.595 26.088 144.099 25.88C143.603 25.6667 143.227 25.376 142.971 25.008C142.715 24.6347 142.579 24.208 142.563 23.728H143.763C143.79 24.2133 143.985 24.5787 144.347 24.824C144.715 25.064 145.214 25.184 145.843 25.184C146.174 25.184 146.478 25.1307 146.755 25.024C147.033 24.9173 147.254 24.7707 147.419 24.584C147.585 24.3973 147.667 24.1867 147.667 23.952C147.667 23.6533 147.558 23.4187 147.339 23.248C147.121 23.0773 146.771 22.928 146.291 22.8L144.803 22.32C144.158 22.1173 143.662 21.84 143.315 21.488C142.974 21.1307 142.803 20.704 142.803 20.208C142.803 19.5893 143.075 19.0933 143.619 18.72C144.163 18.3467 144.878 18.16 145.763 18.16C146.702 18.16 147.43 18.352 147.947 18.736C148.465 19.12 148.734 19.6 148.755 20.176H147.523C147.475 19.84 147.305 19.5867 147.011 19.416C146.718 19.24 146.302 19.152 145.763 19.152C145.246 19.152 144.841 19.2693 144.547 19.504C144.259 19.7333 144.115 19.9893 144.115 20.272C144.115 20.8 144.569 21.1893 145.475 21.44L146.995 21.952C147.651 22.1493 148.153 22.408 148.499 22.728C148.851 23.048 149.027 23.456 149.027 23.952C149.027 24.336 148.902 24.6987 148.651 25.04C148.401 25.3813 148.046 25.6587 147.587 25.872C147.129 26.0853 146.585 26.192 145.955 26.192ZM158.079 26.192C157.663 26.192 157.289 26.112 156.959 25.952C156.628 25.792 156.367 25.552 156.175 25.232C155.983 24.912 155.887 24.512 155.887 24.032V16.224H157.119V24C157.119 24.7893 157.487 25.184 158.223 25.184C158.441 25.184 158.652 25.16 158.855 25.112C159.063 25.064 159.295 24.992 159.551 24.896L159.727 25.792C159.455 25.9093 159.183 26.0053 158.911 26.08C158.644 26.1547 158.367 26.192 158.079 26.192ZM154.655 19.216V18.352H159.535V19.216H154.655ZM167.342 26V21.504C167.342 20.7733 167.166 20.2187 166.814 19.84C166.468 19.456 165.993 19.264 165.39 19.264C164.932 19.264 164.534 19.3893 164.198 19.64C163.862 19.8907 163.604 20.2507 163.422 20.72C163.241 21.184 163.15 21.7387 163.15 22.384H162.67C162.67 21.4933 162.788 20.7333 163.022 20.104C163.257 19.4747 163.598 18.9947 164.046 18.664C164.5 18.328 165.049 18.16 165.694 18.16C166.297 18.16 166.812 18.296 167.238 18.568C167.67 18.8347 168.001 19.2187 168.23 19.72C168.46 20.2213 168.574 20.816 168.574 21.504V26H167.342ZM161.902 26V15.088H163.15V26H161.902ZM174.374 26.192C173.713 26.192 173.121 26.024 172.598 25.688C172.081 25.3467 171.67 24.8747 171.366 24.272C171.068 23.6693 170.918 22.976 170.918 22.192C170.918 21.3547 171.068 20.6347 171.366 20.032C171.665 19.4293 172.073 18.968 172.59 18.648C173.113 18.3227 173.708 18.16 174.374 18.16C174.956 18.16 175.452 18.2773 175.862 18.512C176.273 18.7467 176.604 19.064 176.854 19.464C177.105 19.864 177.278 20.3173 177.374 20.824C177.476 21.3253 177.505 21.8453 177.462 22.384H171.926V21.616H176.638L176.27 21.856C176.286 21.5413 176.268 21.2267 176.214 20.912C176.166 20.5973 176.073 20.3093 175.934 20.048C175.796 19.7813 175.601 19.568 175.35 19.408C175.1 19.248 174.78 19.168 174.39 19.168C173.9 19.168 173.489 19.2933 173.158 19.544C172.828 19.7947 172.58 20.1253 172.414 20.536C172.249 20.9413 172.166 21.3813 172.166 21.856V22.368C172.166 22.9013 172.246 23.3787 172.406 23.8C172.572 24.2213 172.817 24.5547 173.142 24.8C173.468 25.0453 173.878 25.168 174.374 25.168C174.87 25.168 175.278 25.048 175.598 24.808C175.918 24.568 176.113 24.2133 176.182 23.744H177.478C177.398 24.2507 177.217 24.688 176.934 25.056C176.652 25.4187 176.292 25.6987 175.854 25.896C175.417 26.0933 174.924 26.192 174.374 26.192ZM180.097 26V18.336H181.345V26H180.097ZM180.961 22.544C180.961 21.5733 181.055 20.768 181.241 20.128C181.428 19.4827 181.7 19.0027 182.057 18.688C182.42 18.368 182.86 18.208 183.377 18.208C183.548 18.208 183.703 18.2213 183.841 18.248C183.985 18.2693 184.129 18.304 184.273 18.352L184.193 19.584C184.044 19.536 183.881 19.496 183.705 19.464C183.529 19.4267 183.372 19.408 183.233 19.408C182.78 19.408 182.415 19.5387 182.137 19.8C181.86 20.056 181.657 20.4187 181.529 20.888C181.407 21.3573 181.345 21.9093 181.345 22.544H180.961ZM188.694 26.192C188.033 26.192 187.441 26.024 186.918 25.688C186.401 25.3467 185.99 24.8747 185.686 24.272C185.388 23.6693 185.238 22.976 185.238 22.192C185.238 21.3547 185.388 20.6347 185.686 20.032C185.985 19.4293 186.393 18.968 186.91 18.648C187.433 18.3227 188.028 18.16 188.694 18.16C189.276 18.16 189.772 18.2773 190.182 18.512C190.593 18.7467 190.924 19.064 191.174 19.464C191.425 19.864 191.598 20.3173 191.694 20.824C191.796 21.3253 191.825 21.8453 191.782 22.384H186.246V21.616H190.958L190.59 21.856C190.606 21.5413 190.588 21.2267 190.534 20.912C190.486 20.5973 190.393 20.3093 190.254 20.048C190.116 19.7813 189.921 19.568 189.67 19.408C189.42 19.248 189.1 19.168 188.71 19.168C188.22 19.168 187.809 19.2933 187.478 19.544C187.148 19.7947 186.9 20.1253 186.734 20.536C186.569 20.9413 186.486 21.3813 186.486 21.856V22.368C186.486 22.9013 186.566 23.3787 186.726 23.8C186.892 24.2213 187.137 24.5547 187.462 24.8C187.788 25.0453 188.198 25.168 188.694 25.168C189.19 25.168 189.598 25.048 189.918 24.808C190.238 24.568 190.433 24.2133 190.502 23.744H191.798C191.718 24.2507 191.537 24.688 191.254 25.056C190.972 25.4187 190.612 25.6987 190.174 25.896C189.737 26.0933 189.244 26.192 188.694 26.192ZM203.11 26L202.95 24.32V21.04C202.95 20.352 202.803 19.8587 202.51 19.56C202.217 19.256 201.777 19.104 201.19 19.104C200.859 19.104 200.558 19.152 200.286 19.248C200.019 19.344 199.806 19.4933 199.646 19.696C199.491 19.8933 199.414 20.1493 199.414 20.464H198.022C198.022 19.9093 198.158 19.464 198.43 19.128C198.702 18.7867 199.075 18.5413 199.55 18.392C200.03 18.2373 200.577 18.16 201.19 18.16C201.777 18.16 202.297 18.2587 202.75 18.456C203.203 18.6533 203.558 18.968 203.814 19.4C204.07 19.8267 204.198 20.384 204.198 21.072V26H203.11ZM200.502 26.192C199.873 26.192 199.353 26.08 198.942 25.856C198.531 25.632 198.225 25.3413 198.022 24.984C197.819 24.6267 197.718 24.2507 197.718 23.856C197.718 23.3387 197.846 22.9173 198.102 22.592C198.363 22.2667 198.718 22.0293 199.166 21.88C199.614 21.7253 200.118 21.648 200.678 21.648C201.078 21.648 201.478 21.688 201.878 21.768C202.283 21.848 202.678 21.9573 203.062 22.096V22.88C202.742 22.752 202.379 22.6507 201.974 22.576C201.574 22.5013 201.206 22.464 200.87 22.464C200.358 22.464 199.926 22.5707 199.574 22.784C199.222 22.992 199.046 23.3493 199.046 23.856C199.046 24.2293 199.179 24.5493 199.446 24.816C199.718 25.0827 200.15 25.216 200.742 25.216C201.158 25.216 201.531 25.12 201.862 24.928C202.198 24.7307 202.462 24.4853 202.654 24.192C202.851 23.8987 202.95 23.6053 202.95 23.312H203.254C203.254 23.824 203.142 24.2987 202.918 24.736C202.699 25.1733 202.385 25.5253 201.974 25.792C201.563 26.0587 201.073 26.192 200.502 26.192ZM212.787 26V21.504C212.787 20.7733 212.611 20.2187 212.259 19.84C211.912 19.456 211.437 19.264 210.835 19.264C210.376 19.264 209.979 19.3893 209.643 19.64C209.307 19.8907 209.048 20.2507 208.867 20.72C208.685 21.184 208.595 21.7387 208.595 22.384H208.115C208.115 21.4933 208.232 20.7333 208.467 20.104C208.701 19.4747 209.043 18.9947 209.491 18.664C209.944 18.328 210.493 18.16 211.139 18.16C211.741 18.16 212.256 18.296 212.683 18.568C213.115 18.8347 213.445 19.2187 213.675 19.72C213.904 20.2213 214.019 20.816 214.019 21.504V26H212.787ZM207.347 26V18.352H208.419L208.595 20.112V26H207.347ZM215.899 18.352H217.291L219.787 24.912H219.499L221.435 18.352H222.715L219.835 27.536C219.595 28.304 219.275 28.896 218.875 29.312C218.475 29.728 217.963 29.936 217.339 29.936C217.003 29.936 216.683 29.888 216.379 29.792C216.08 29.696 215.771 29.5573 215.451 29.376V28.224C215.734 28.448 216.006 28.608 216.267 28.704C216.534 28.8 216.811 28.848 217.099 28.848C217.419 28.848 217.686 28.7467 217.899 28.544C218.118 28.3413 218.299 28.08 218.443 27.76C218.587 27.4453 218.71 27.1147 218.811 26.768L219.035 26L215.899 18.352ZM151.613 44V33.088H152.861V44H151.613ZM156.962 34.544C156.706 34.544 156.503 34.472 156.354 34.328C156.205 34.1787 156.13 33.984 156.13 33.744C156.13 33.5093 156.205 33.3227 156.354 33.184C156.503 33.0453 156.706 32.976 156.962 32.976C157.218 32.976 157.421 33.0453 157.57 33.184C157.719 33.3227 157.794 33.5093 157.794 33.744C157.794 33.984 157.719 34.1787 157.57 34.328C157.421 34.472 157.218 34.544 156.962 34.544ZM156.338 44V36.336H157.586V44H156.338ZM166.623 44V39.504C166.623 38.7733 166.447 38.2187 166.095 37.84C165.749 37.456 165.274 37.264 164.671 37.264C164.213 37.264 163.815 37.3893 163.479 37.64C163.143 37.8907 162.885 38.2507 162.703 38.72C162.522 39.184 162.431 39.7387 162.431 40.384H161.951C161.951 39.4933 162.069 38.7333 162.303 38.104C162.538 37.4747 162.879 36.9947 163.327 36.664C163.781 36.328 164.33 36.16 164.975 36.16C165.578 36.16 166.093 36.296 166.519 36.568C166.951 36.8347 167.282 37.2187 167.511 37.72C167.741 38.2213 167.855 38.816 167.855 39.504V44H166.623ZM161.183 44V36.352H162.255L162.431 38.112V44H161.183ZM171 44V33.088H172.248V44H171ZM172.056 39.616L175.96 36.352H177.704L172.056 40.944V39.616ZM176.344 44L172.712 39.168L173.976 38.944L177.88 44H176.344ZM189.572 44V39.504C189.572 38.7733 189.396 38.2187 189.044 37.84C188.698 37.456 188.223 37.264 187.62 37.264C187.162 37.264 186.764 37.3893 186.428 37.64C186.092 37.8907 185.834 38.2507 185.652 38.72C185.471 39.184 185.38 39.7387 185.38 40.384H184.9C184.9 39.4933 185.018 38.7333 185.252 38.104C185.487 37.4747 185.828 36.9947 186.276 36.664C186.73 36.328 187.279 36.16 187.924 36.16C188.527 36.16 189.042 36.296 189.468 36.568C189.9 36.8347 190.231 37.2187 190.46 37.72C190.69 38.2213 190.804 38.816 190.804 39.504V44H189.572ZM184.132 44V33.088H185.38V44H184.132ZM196.604 44.192C195.943 44.192 195.351 44.024 194.828 43.688C194.311 43.3467 193.9 42.8747 193.596 42.272C193.298 41.6693 193.148 40.976 193.148 40.192C193.148 39.3547 193.298 38.6347 193.596 38.032C193.895 37.4293 194.303 36.968 194.82 36.648C195.343 36.3227 195.938 36.16 196.604 36.16C197.186 36.16 197.682 36.2773 198.092 36.512C198.503 36.7467 198.834 37.064 199.084 37.464C199.335 37.864 199.508 38.3173 199.604 38.824C199.706 39.3253 199.735 39.8453 199.692 40.384H194.156V39.616H198.868L198.5 39.856C198.516 39.5413 198.498 39.2267 198.444 38.912C198.396 38.5973 198.303 38.3093 198.164 38.048C198.026 37.7813 197.831 37.568 197.58 37.408C197.33 37.248 197.01 37.168 196.62 37.168C196.13 37.168 195.719 37.2933 195.388 37.544C195.058 37.7947 194.81 38.1253 194.644 38.536C194.479 38.9413 194.396 39.3813 194.396 39.856V40.368C194.396 40.9013 194.476 41.3787 194.636 41.8C194.802 42.2213 195.047 42.5547 195.372 42.8C195.698 43.0453 196.108 43.168 196.604 43.168C197.1 43.168 197.508 43.048 197.828 42.808C198.148 42.568 198.343 42.2133 198.412 41.744H199.708C199.628 42.2507 199.447 42.688 199.164 43.056C198.882 43.4187 198.522 43.6987 198.084 43.896C197.647 44.0933 197.154 44.192 196.604 44.192ZM202.327 44V36.336H203.575V44H202.327ZM203.191 40.544C203.191 39.5733 203.285 38.768 203.471 38.128C203.658 37.4827 203.93 37.0027 204.287 36.688C204.65 36.368 205.09 36.208 205.607 36.208C205.778 36.208 205.933 36.2213 206.071 36.248C206.215 36.2693 206.359 36.304 206.503 36.352L206.423 37.584C206.274 37.536 206.111 37.496 205.935 37.464C205.759 37.4267 205.602 37.408 205.463 37.408C205.01 37.408 204.645 37.5387 204.367 37.8C204.09 38.056 203.887 38.4187 203.759 38.888C203.637 39.3573 203.575 39.9093 203.575 40.544H203.191ZM210.924 44.192C210.263 44.192 209.671 44.024 209.148 43.688C208.631 43.3467 208.22 42.8747 207.916 42.272C207.618 41.6693 207.468 40.976 207.468 40.192C207.468 39.3547 207.618 38.6347 207.916 38.032C208.215 37.4293 208.623 36.968 209.14 36.648C209.663 36.3227 210.258 36.16 210.924 36.16C211.506 36.16 212.002 36.2773 212.412 36.512C212.823 36.7467 213.154 37.064 213.404 37.464C213.655 37.864 213.828 38.3173 213.924 38.824C214.026 39.3253 214.055 39.8453 214.012 40.384H208.476V39.616H213.188L212.82 39.856C212.836 39.5413 212.818 39.2267 212.764 38.912C212.716 38.5973 212.623 38.3093 212.484 38.048C212.346 37.7813 212.151 37.568 211.9 37.408C211.65 37.248 211.33 37.168 210.94 37.168C210.45 37.168 210.039 37.2933 209.708 37.544C209.378 37.7947 209.13 38.1253 208.964 38.536C208.799 38.9413 208.716 39.3813 208.716 39.856V40.368C208.716 40.9013 208.796 41.3787 208.956 41.8C209.122 42.2213 209.367 42.5547 209.692 42.8C210.018 43.0453 210.428 43.168 210.924 43.168C211.42 43.168 211.828 43.048 212.148 42.808C212.468 42.568 212.663 42.2133 212.732 41.744H214.028C213.948 42.2507 213.767 42.688 213.484 43.056C213.202 43.4187 212.842 43.6987 212.404 43.896C211.967 44.0933 211.474 44.192 210.924 44.192ZM217.863 41.44V40.72C217.863 40.256 217.911 39.8747 218.007 39.576C218.109 39.2773 218.274 39.0187 218.503 38.8C218.733 38.5813 219.047 38.3627 219.447 38.144C219.805 37.952 220.09 37.7733 220.303 37.608C220.517 37.4427 220.669 37.264 220.759 37.072C220.855 36.88 220.903 36.6453 220.903 36.368C220.903 35.952 220.733 35.6053 220.391 35.328C220.055 35.0507 219.591 34.912 218.999 34.912C218.343 34.912 217.842 35.0427 217.495 35.304C217.149 35.56 216.93 35.92 216.839 36.384H215.511C215.586 35.6053 215.911 34.976 216.487 34.496C217.069 34.016 217.895 33.776 218.967 33.776C219.65 33.776 220.237 33.896 220.727 34.136C221.223 34.3707 221.602 34.688 221.863 35.088C222.13 35.4827 222.263 35.92 222.263 36.4C222.263 36.9493 222.125 37.4107 221.847 37.784C221.57 38.152 221.122 38.5013 220.503 38.832C220.146 39.0293 219.863 39.2133 219.655 39.384C219.453 39.5493 219.309 39.7413 219.223 39.96C219.138 40.1733 219.095 40.4533 219.095 40.8V41.44H217.863ZM218.503 44.192C218.237 44.192 218.015 44.1067 217.839 43.936C217.663 43.76 217.575 43.5493 217.575 43.304C217.575 43.0533 217.661 42.8373 217.831 42.656C218.007 42.4747 218.229 42.384 218.495 42.384C218.762 42.384 218.989 42.4747 219.175 42.656C219.367 42.832 219.463 43.0453 219.463 43.296C219.463 43.5413 219.37 43.752 219.183 43.928C218.997 44.104 218.77 44.192 218.503 44.192Z" fill="#4A5DC8"/>
</g>
<defs>
<filter id="filter0_d_7084_5685" x="117" y="0" width="138.768" height="68" filterUnits="userSpaceOnUse" color-interpolation-filters="sRGB">
<feFlood flood-opacity="0" result="BackgroundImageFix"/>
<feColorMatrix in="SourceAlpha" type="matrix" values="0 0 0 0 0 0 0 0 0 0 0 0 0 0 0 0 0 0 127 0" result="hardAlpha"/>
<feOffset dy="4"/>
<feGaussianBlur stdDeviation="3"/>
<feComposite in2="hardAlpha" operator="out"/>
<feColorMatrix type="matrix" values="0 0 0 0 0 0 0 0 0 0 0 0 0 0 0 0 0 0 0.1 0"/>
<feBlend mode="normal" in2="BackgroundImageFix" result="effect1_dropShadow_7084_5685"/>
<feBlend mode="normal" in="SourceGraphic" in2="effect1_dropShadow_7084_5685" result="shape"/>
</filter>
<filter id="filter1_d_7084_5685" x="132.559" y="13.0879" width="96.1558" height="41.1045" filterUnits="userSpaceOnUse" color-interpolation-filters="sRGB">
<feFlood flood-opacity="0" result="BackgroundImageFix"/>
<feColorMatrix in="SourceAlpha" type="matrix" values="0 0 0 0 0 0 0 0 0 0 0 0 0 0 0 0 0 0 127 0" result="hardAlpha"/>
<feOffset dy="4"/>
<feGaussianBlur stdDeviation="3"/>
<feComposite in2="hardAlpha" operator="out"/>
<feColorMatrix type="matrix" values="0 0 0 0 0 0 0 0 0 0 0 0 0 0 0 0 0 0 0.05 0"/>
<feBlend mode="normal" in2="BackgroundImageFix" result="effect1_dropShadow_7084_5685"/>
<feBlend mode="normal" in="SourceGraphic" in2="effect1_dropShadow_7084_5685" result="shape"/>
</filter>
</defs>
</svg>
