<svg width="256" height="88" viewBox="0 0 256 88" fill="none" xmlns="http://www.w3.org/2000/svg">
<path d="M248.956 36.4275L239.223 25.0724L239.223 14.2153C239.223 7.46952 235.189 2.001 230.214 2.001L9.0084 2.00098C4.03319 2.00098 6.16606e-06 7.4695 5.57632e-06 14.2153L1.06781e-06 65.7867C4.78073e-07 72.5324 4.03319 78.001 9.00839 78.001L230.214 78.001C235.189 78.001 239.223 72.5325 239.223 65.7867L239.223 52.8938L248.843 42.7247C250.339 41.1443 250.393 38.104 248.956 36.4275Z" fill="white"/>
<g filter="url(#filter0_d_7073_5855)">
<mask id="path-2-inside-1_7073_5855" fill="white">
<path d="M13.0433 41.6331L22.7674 50V69C22.7674 73.9706 26.7968 78 31.7674 78L240.767 78C245.738 78 249.767 73.9706 249.767 69V11C249.767 6.02944 245.738 2 240.767 2L31.7674 2C26.7968 2 22.7674 6.02944 22.7674 11L22.7674 29.5L13.1556 36.9931C11.6618 38.1575 11.6076 40.3978 13.0433 41.6331Z"/>
</mask>
<path d="M13.0433 41.6331L22.7674 50V69C22.7674 73.9706 26.7968 78 31.7674 78L240.767 78C245.738 78 249.767 73.9706 249.767 69V11C249.767 6.02944 245.738 2 240.767 2L31.7674 2C26.7968 2 22.7674 6.02944 22.7674 11L22.7674 29.5L13.1556 36.9931C11.6618 38.1575 11.6076 40.3978 13.0433 41.6331Z" fill="#F1F3FF"/>
<path d="M22.7674 50H24.1674V49.3577L23.6805 48.9388L22.7674 50ZM13.0433 41.6331L12.1302 42.6944H12.1302L13.0433 41.6331ZM13.1556 36.9931L12.2948 35.8889H12.2948L13.1556 36.9931ZM22.7674 29.5L23.6281 30.6041L24.1674 30.1838V29.5H22.7674ZM31.7674 2V0.6V2ZM240.767 2V3.4V2ZM23.6805 48.9388L13.9564 40.5719L12.1302 42.6944L21.8542 51.0612L23.6805 48.9388ZM14.0163 38.0972L23.6281 30.6041L21.9066 28.3959L12.2948 35.8889L14.0163 38.0972ZM13.9564 40.5719C13.1907 39.9131 13.2196 38.7183 14.0163 38.0972L12.2948 35.8889C10.104 37.5968 10.0245 40.8825 12.1302 42.6944L13.9564 40.5719ZM31.7674 3.4L240.767 3.4V0.600003L31.7674 0.6V3.4ZM248.367 11V69H251.167V11H248.367ZM240.767 76.6L31.7674 76.6V79.4L240.767 79.4V76.6ZM24.1674 29.5L24.1674 11H21.3674L21.3674 29.5H24.1674ZM24.1674 69V50H21.3674V69H24.1674ZM31.7674 76.6C27.57 76.6 24.1674 73.1974 24.1674 69H21.3674C21.3674 74.7438 26.0236 79.4 31.7674 79.4V76.6ZM248.367 69C248.367 73.1974 244.965 76.6 240.767 76.6V79.4C246.511 79.4 251.167 74.7438 251.167 69H248.367ZM240.767 3.4C244.965 3.4 248.367 6.80264 248.367 11H251.167C251.167 5.25624 246.511 0.600003 240.767 0.600003V3.4ZM31.7674 0.6C26.0236 0.6 21.3674 5.25624 21.3674 11H24.1674C24.1674 6.80264 27.57 3.4 31.7674 3.4V0.6Z" fill="#4A5DC8" mask="url(#path-2-inside-1_7073_5855)"/>
</g>
<g filter="url(#filter1_d_7073_5855)">
<path d="M33.6 14.952H35.088L40.192 23.224H40.08V14.952H41.328V25H39.936L34.656 16.456H34.848V25H33.6V14.952ZM47.4815 25.192C46.7935 25.192 46.1802 25.04 45.6415 24.736C45.1082 24.432 44.6868 23.9813 44.3775 23.384C44.0682 22.7867 43.9135 22.0507 43.9135 21.176C43.9135 20.296 44.0682 19.56 44.3775 18.968C44.6868 18.3707 45.1082 17.92 45.6415 17.616C46.1802 17.312 46.7935 17.16 47.4815 17.16C48.1642 17.16 48.7722 17.312 49.3055 17.616C49.8442 17.92 50.2655 18.3707 50.5695 18.968C50.8788 19.56 51.0335 20.296 51.0335 21.176C51.0335 22.0507 50.8788 22.7867 50.5695 23.384C50.2655 23.9813 49.8442 24.432 49.3055 24.736C48.7722 25.04 48.1642 25.192 47.4815 25.192ZM47.4495 24.104C47.9455 24.104 48.3668 23.9867 48.7135 23.752C49.0602 23.512 49.3215 23.1733 49.4975 22.736C49.6788 22.2987 49.7695 21.7787 49.7695 21.176C49.7695 20.264 49.5802 19.5467 49.2015 19.024C48.8228 18.496 48.2602 18.232 47.5135 18.232C47.0122 18.232 46.5882 18.352 46.2415 18.592C45.9002 18.8267 45.6388 19.1653 45.4575 19.608C45.2815 20.0453 45.1935 20.568 45.1935 21.176C45.1935 22.0773 45.3828 22.792 45.7615 23.32C46.1455 23.8427 46.7082 24.104 47.4495 24.104ZM61.0524 25.192C60.4924 25.192 60.0044 25.064 59.5884 24.808C59.1777 24.552 58.8604 24.1787 58.6364 23.688C58.4124 23.192 58.3004 22.5893 58.3004 21.88H58.8284C58.8284 22.3547 58.927 22.7547 59.1244 23.08C59.3217 23.4053 59.5777 23.6533 59.8924 23.824C60.2124 23.9893 60.551 24.072 60.9084 24.072C61.2924 24.072 61.6604 23.9627 62.0124 23.744C62.3644 23.52 62.6524 23.192 62.8764 22.76C63.1004 22.328 63.2124 21.7947 63.2124 21.16C63.2124 20.552 63.1084 20.032 62.9004 19.6C62.6977 19.168 62.423 18.8373 62.0764 18.608C61.7297 18.3787 61.3457 18.264 60.9244 18.264C60.5617 18.264 60.2204 18.352 59.9004 18.528C59.5804 18.704 59.3217 18.9627 59.1244 19.304C58.927 19.64 58.8284 20.056 58.8284 20.552H58.3004C58.3004 19.8107 58.423 19.1893 58.6684 18.688C58.9137 18.1813 59.247 17.8 59.6684 17.544C60.0897 17.288 60.5617 17.16 61.0844 17.16C61.6817 17.16 62.239 17.32 62.7564 17.64C63.2737 17.96 63.6924 18.4187 64.0124 19.016C64.3324 19.6133 64.4924 20.328 64.4924 21.16C64.4924 22.0027 64.3297 22.7253 64.0044 23.328C63.6844 23.9307 63.263 24.392 62.7404 24.712C62.2177 25.032 61.655 25.192 61.0524 25.192ZM57.5804 28.76V17.352H58.6204L58.8284 19.144V28.76H57.5804ZM67.0997 25V17.336H68.3477V25H67.0997ZM67.9637 21.544C67.9637 20.5733 68.0571 19.768 68.2437 19.128C68.4304 18.4827 68.7024 18.0027 69.0597 17.688C69.4224 17.368 69.8624 17.208 70.3797 17.208C70.5504 17.208 70.7051 17.2213 70.8437 17.248C70.9877 17.2693 71.1317 17.304 71.2757 17.352L71.1957 18.584C71.0464 18.536 70.8837 18.496 70.7077 18.464C70.5317 18.4267 70.3744 18.408 70.2357 18.408C69.7824 18.408 69.4171 18.5387 69.1397 18.8C68.8624 19.056 68.6597 19.4187 68.5317 19.888C68.4091 20.3573 68.3477 20.9093 68.3477 21.544H67.9637ZM75.809 25.192C75.121 25.192 74.5077 25.04 73.969 24.736C73.4357 24.432 73.0143 23.9813 72.705 23.384C72.3957 22.7867 72.241 22.0507 72.241 21.176C72.241 20.296 72.3957 19.56 72.705 18.968C73.0143 18.3707 73.4357 17.92 73.969 17.616C74.5077 17.312 75.121 17.16 75.809 17.16C76.4917 17.16 77.0997 17.312 77.633 17.616C78.1717 17.92 78.593 18.3707 78.897 18.968C79.2063 19.56 79.361 20.296 79.361 21.176C79.361 22.0507 79.2063 22.7867 78.897 23.384C78.593 23.9813 78.1717 24.432 77.633 24.736C77.0997 25.04 76.4917 25.192 75.809 25.192ZM75.777 24.104C76.273 24.104 76.6943 23.9867 77.041 23.752C77.3877 23.512 77.649 23.1733 77.825 22.736C78.0063 22.2987 78.097 21.7787 78.097 21.176C78.097 20.264 77.9077 19.5467 77.529 19.024C77.1503 18.496 76.5877 18.232 75.841 18.232C75.3397 18.232 74.9157 18.352 74.569 18.592C74.2277 18.8267 73.9663 19.1653 73.785 19.608C73.609 20.0453 73.521 20.568 73.521 21.176C73.521 22.0773 73.7103 22.792 74.089 23.32C74.473 23.8427 75.0357 24.104 75.777 24.104ZM85.455 25.192C84.943 25.192 84.479 25.0587 84.063 24.792C83.6523 24.5253 83.3243 24.136 83.079 23.624C82.839 23.1067 82.719 22.4773 82.719 21.736H83.199C83.199 22.232 83.3003 22.656 83.503 23.008C83.711 23.3547 83.9777 23.6187 84.303 23.8C84.6283 23.9813 84.9697 24.072 85.327 24.072C85.7377 24.072 86.1137 23.9547 86.455 23.72C86.7963 23.4853 87.0683 23.1493 87.271 22.712C87.479 22.2747 87.583 21.752 87.583 21.144C87.583 20.5467 87.4817 20.0347 87.279 19.608C87.0763 19.176 86.8017 18.8453 86.455 18.616C86.1137 18.3813 85.7323 18.264 85.311 18.264C84.9483 18.264 84.6043 18.3547 84.279 18.536C83.959 18.712 83.6977 18.9733 83.495 19.32C83.2977 19.6667 83.199 20.0933 83.199 20.6H82.719C82.719 19.8747 82.8363 19.256 83.071 18.744C83.311 18.232 83.6417 17.84 84.063 17.568C84.4843 17.296 84.975 17.16 85.535 17.16C86.1377 17.16 86.6897 17.3227 87.191 17.648C87.6977 17.968 88.103 18.4267 88.407 19.024C88.711 19.6213 88.863 20.328 88.863 21.144C88.863 21.9653 88.7083 22.68 88.399 23.288C88.0897 23.8907 87.6763 24.36 87.159 24.696C86.6417 25.0267 86.0737 25.192 85.455 25.192ZM81.951 25V14.088H83.199V23.208L82.831 25H81.951ZM91.5954 25V14.088H92.8434V25H91.5954ZM98.8957 25.192C98.2344 25.192 97.6424 25.024 97.1197 24.688C96.6024 24.3467 96.1917 23.8747 95.8877 23.272C95.5891 22.6693 95.4397 21.976 95.4397 21.192C95.4397 20.3547 95.5891 19.6347 95.8877 19.032C96.1864 18.4293 96.5944 17.968 97.1117 17.648C97.6344 17.3227 98.2291 17.16 98.8957 17.16C99.4771 17.16 99.9731 17.2773 100.384 17.512C100.794 17.7467 101.125 18.064 101.376 18.464C101.626 18.864 101.8 19.3173 101.896 19.824C101.997 20.3253 102.026 20.8453 101.984 21.384H96.4477V20.616H101.16L100.792 20.856C100.808 20.5413 100.789 20.2267 100.736 19.912C100.688 19.5973 100.594 19.3093 100.456 19.048C100.317 18.7813 100.122 18.568 99.8717 18.408C99.6211 18.248 99.3011 18.168 98.9117 18.168C98.4211 18.168 98.0104 18.2933 97.6797 18.544C97.3491 18.7947 97.1011 19.1253 96.9357 19.536C96.7704 19.9413 96.6877 20.3813 96.6877 20.856V21.368C96.6877 21.9013 96.7677 22.3787 96.9277 22.8C97.0931 23.2213 97.3384 23.5547 97.6637 23.8C97.9891 24.0453 98.3997 24.168 98.8957 24.168C99.3917 24.168 99.7997 24.048 100.12 23.808C100.44 23.568 100.634 23.2133 100.704 22.744H102C101.92 23.2507 101.738 23.688 101.456 24.056C101.173 24.4187 100.813 24.6987 100.376 24.896C99.9384 25.0933 99.4451 25.192 98.8957 25.192ZM115.371 25V20.504C115.371 19.7733 115.195 19.2187 114.843 18.84C114.496 18.456 114.027 18.264 113.435 18.264C112.741 18.264 112.211 18.5333 111.843 19.072C111.475 19.6053 111.291 20.344 111.291 21.288H110.715C110.715 20.6 110.781 19.9973 110.915 19.48C111.053 18.9627 111.253 18.5333 111.515 18.192C111.776 17.8453 112.093 17.5867 112.467 17.416C112.84 17.2453 113.264 17.16 113.739 17.16C114.341 17.16 114.856 17.296 115.283 17.568C115.715 17.8347 116.045 18.2187 116.275 18.72C116.504 19.2213 116.619 19.816 116.619 20.504V25H115.371ZM104.619 25V17.352H105.691L105.835 18.888C106.075 18.3333 106.411 17.9067 106.843 17.608C107.28 17.3093 107.803 17.16 108.411 17.16C109.013 17.16 109.528 17.296 109.955 17.568C110.387 17.8347 110.717 18.2187 110.947 18.72C111.176 19.2213 111.291 19.816 111.291 20.504V25H110.059V20.504C110.059 19.7733 109.883 19.2187 109.531 18.84C109.184 18.456 108.709 18.264 108.107 18.264C107.648 18.264 107.251 18.3893 106.915 18.64C106.579 18.8907 106.32 19.2507 106.139 19.72C105.957 20.184 105.867 20.7387 105.867 21.384V25H104.619ZM119.875 22.184L119.715 14.984H121.043L120.883 22.184H119.875ZM120.379 25.144C120.107 25.144 119.883 25.0587 119.707 24.888C119.531 24.7173 119.443 24.504 119.443 24.248C119.443 23.9973 119.531 23.784 119.707 23.608C119.883 23.4267 120.107 23.336 120.379 23.336C120.646 23.336 120.87 23.4267 121.051 23.608C121.238 23.784 121.331 23.9973 121.331 24.248C121.331 24.504 121.238 24.7173 121.051 24.888C120.87 25.0587 120.646 25.144 120.379 25.144ZM126.83 14.952H128.334L131.214 19.832H130.894L133.822 14.952H135.31L131.678 20.872V25H130.414V20.872L126.83 14.952ZM138.964 25.192C138.276 25.192 137.663 25.04 137.124 24.736C136.591 24.432 136.169 23.9813 135.86 23.384C135.551 22.7867 135.396 22.0507 135.396 21.176C135.396 20.296 135.551 19.56 135.86 18.968C136.169 18.3707 136.591 17.92 137.124 17.616C137.663 17.312 138.276 17.16 138.964 17.16C139.647 17.16 140.255 17.312 140.788 17.616C141.327 17.92 141.748 18.3707 142.052 18.968C142.361 19.56 142.516 20.296 142.516 21.176C142.516 22.0507 142.361 22.7867 142.052 23.384C141.748 23.9813 141.327 24.432 140.788 24.736C140.255 25.04 139.647 25.192 138.964 25.192ZM138.932 24.104C139.428 24.104 139.849 23.9867 140.196 23.752C140.543 23.512 140.804 23.1733 140.98 22.736C141.161 22.2987 141.252 21.7787 141.252 21.176C141.252 20.264 141.063 19.5467 140.684 19.024C140.305 18.496 139.743 18.232 138.996 18.232C138.495 18.232 138.071 18.352 137.724 18.592C137.383 18.8267 137.121 19.1653 136.94 19.608C136.764 20.0453 136.676 20.568 136.676 21.176C136.676 22.0773 136.865 22.792 137.244 23.32C137.628 23.8427 138.191 24.104 138.932 24.104ZM150.306 17.336H151.554V25H150.306V17.336ZM144.882 17.336H146.13V22.104C146.13 22.744 146.285 23.2293 146.594 23.56C146.909 23.8907 147.357 24.056 147.938 24.056C148.418 24.056 148.834 23.928 149.186 23.672C149.543 23.416 149.818 23.064 150.01 22.616C150.207 22.1627 150.306 21.6453 150.306 21.064H150.77C150.77 21.9227 150.645 22.656 150.394 23.264C150.149 23.872 149.799 24.3387 149.346 24.664C148.898 24.984 148.37 25.144 147.762 25.144C147.186 25.144 146.682 25.0373 146.25 24.824C145.818 24.6107 145.482 24.288 145.242 23.856C145.002 23.4187 144.882 22.8667 144.882 22.2V17.336ZM163.646 25L163.486 23.32V20.04C163.486 19.352 163.34 18.8587 163.046 18.56C162.753 18.256 162.313 18.104 161.726 18.104C161.396 18.104 161.094 18.152 160.822 18.248C160.556 18.344 160.342 18.4933 160.182 18.696C160.028 18.8933 159.95 19.1493 159.95 19.464H158.558C158.558 18.9093 158.694 18.464 158.966 18.128C159.238 17.7867 159.612 17.5413 160.086 17.392C160.566 17.2373 161.113 17.16 161.726 17.16C162.313 17.16 162.833 17.2587 163.286 17.456C163.74 17.6533 164.094 17.968 164.35 18.4C164.606 18.8267 164.734 19.384 164.734 20.072V25H163.646ZM161.038 25.192C160.409 25.192 159.889 25.08 159.478 24.856C159.068 24.632 158.761 24.3413 158.558 23.984C158.356 23.6267 158.254 23.2507 158.254 22.856C158.254 22.3387 158.382 21.9173 158.638 21.592C158.9 21.2667 159.254 21.0293 159.702 20.88C160.15 20.7253 160.654 20.648 161.214 20.648C161.614 20.648 162.014 20.688 162.414 20.768C162.82 20.848 163.214 20.9573 163.598 21.096V21.88C163.278 21.752 162.916 21.6507 162.51 21.576C162.11 21.5013 161.742 21.464 161.406 21.464C160.894 21.464 160.462 21.5707 160.11 21.784C159.758 21.992 159.582 22.3493 159.582 22.856C159.582 23.2293 159.716 23.5493 159.982 23.816C160.254 24.0827 160.686 24.216 161.278 24.216C161.694 24.216 162.068 24.12 162.398 23.928C162.734 23.7307 162.998 23.4853 163.19 23.192C163.388 22.8987 163.486 22.6053 163.486 22.312H163.79C163.79 22.824 163.678 23.2987 163.454 23.736C163.236 24.1733 162.921 24.5253 162.51 24.792C162.1 25.0587 161.609 25.192 161.038 25.192ZM167.883 25V17.336H169.131V25H167.883ZM168.747 21.544C168.747 20.5733 168.84 19.768 169.027 19.128C169.214 18.4827 169.486 18.0027 169.843 17.688C170.206 17.368 170.646 17.208 171.163 17.208C171.334 17.208 171.488 17.2213 171.627 17.248C171.771 17.2693 171.915 17.304 172.059 17.352L171.979 18.584C171.83 18.536 171.667 18.496 171.491 18.464C171.315 18.4267 171.158 18.408 171.019 18.408C170.566 18.408 170.2 18.5387 169.923 18.8C169.646 19.056 169.443 19.4187 169.315 19.888C169.192 20.3573 169.131 20.9093 169.131 21.544H168.747ZM176.48 25.192C175.819 25.192 175.227 25.024 174.704 24.688C174.187 24.3467 173.776 23.8747 173.472 23.272C173.173 22.6693 173.024 21.976 173.024 21.192C173.024 20.3547 173.173 19.6347 173.472 19.032C173.771 18.4293 174.179 17.968 174.696 17.648C175.219 17.3227 175.813 17.16 176.48 17.16C177.061 17.16 177.557 17.2773 177.968 17.512C178.379 17.7467 178.709 18.064 178.96 18.464C179.211 18.864 179.384 19.3173 179.48 19.824C179.581 20.3253 179.611 20.8453 179.568 21.384H174.032V20.616H178.744L178.376 20.856C178.392 20.5413 178.373 20.2267 178.32 19.912C178.272 19.5973 178.179 19.3093 178.04 19.048C177.901 18.7813 177.707 18.568 177.456 18.408C177.205 18.248 176.885 18.168 176.496 18.168C176.005 18.168 175.595 18.2933 175.264 18.544C174.933 18.7947 174.685 19.1253 174.52 19.536C174.355 19.9413 174.272 20.3813 174.272 20.856V21.368C174.272 21.9013 174.352 22.3787 174.512 22.8C174.677 23.2213 174.923 23.5547 175.248 23.8C175.573 24.0453 175.984 24.168 176.48 24.168C176.976 24.168 177.384 24.048 177.704 23.808C178.024 23.568 178.219 23.2133 178.288 22.744H179.584C179.504 23.2507 179.323 23.688 179.04 24.056C178.757 24.4187 178.397 24.6987 177.96 24.896C177.523 25.0933 177.029 25.192 176.48 25.192ZM186.16 25V14.088H187.408V25H186.16ZM193.46 25.192C192.799 25.192 192.207 25.024 191.684 24.688C191.167 24.3467 190.756 23.8747 190.452 23.272C190.153 22.6693 190.004 21.976 190.004 21.192C190.004 20.3547 190.153 19.6347 190.452 19.032C190.751 18.4293 191.159 17.968 191.676 17.648C192.199 17.3227 192.793 17.16 193.46 17.16C194.041 17.16 194.537 17.2773 194.948 17.512C195.359 17.7467 195.689 18.064 195.94 18.464C196.191 18.864 196.364 19.3173 196.46 19.824C196.561 20.3253 196.591 20.8453 196.548 21.384H191.012V20.616H195.724L195.356 20.856C195.372 20.5413 195.353 20.2267 195.3 19.912C195.252 19.5973 195.159 19.3093 195.02 19.048C194.881 18.7813 194.687 18.568 194.436 18.408C194.185 18.248 193.865 18.168 193.476 18.168C192.985 18.168 192.575 18.2933 192.244 18.544C191.913 18.7947 191.665 19.1253 191.5 19.536C191.335 19.9413 191.252 20.3813 191.252 20.856V21.368C191.252 21.9013 191.332 22.3787 191.492 22.8C191.657 23.2213 191.903 23.5547 192.228 23.8C192.553 24.0453 192.964 24.168 193.46 24.168C193.956 24.168 194.364 24.048 194.684 23.808C195.004 23.568 195.199 23.2133 195.268 22.744H196.564C196.484 23.2507 196.303 23.688 196.02 24.056C195.737 24.4187 195.377 24.6987 194.94 24.896C194.503 25.0933 194.009 25.192 193.46 25.192ZM203.919 25L203.759 23.32V20.04C203.759 19.352 203.612 18.8587 203.319 18.56C203.026 18.256 202.586 18.104 201.999 18.104C201.668 18.104 201.367 18.152 201.095 18.248C200.828 18.344 200.615 18.4933 200.455 18.696C200.3 18.8933 200.223 19.1493 200.223 19.464H198.831C198.831 18.9093 198.967 18.464 199.239 18.128C199.511 17.7867 199.884 17.5413 200.359 17.392C200.839 17.2373 201.386 17.16 201.999 17.16C202.586 17.16 203.106 17.2587 203.559 17.456C204.012 17.6533 204.367 17.968 204.623 18.4C204.879 18.8267 205.007 19.384 205.007 20.072V25H203.919ZM201.311 25.192C200.682 25.192 200.162 25.08 199.751 24.856C199.34 24.632 199.034 24.3413 198.831 23.984C198.628 23.6267 198.527 23.2507 198.527 22.856C198.527 22.3387 198.655 21.9173 198.911 21.592C199.172 21.2667 199.527 21.0293 199.975 20.88C200.423 20.7253 200.927 20.648 201.487 20.648C201.887 20.648 202.287 20.688 202.687 20.768C203.092 20.848 203.487 20.9573 203.871 21.096V21.88C203.551 21.752 203.188 21.6507 202.783 21.576C202.383 21.5013 202.015 21.464 201.679 21.464C201.167 21.464 200.735 21.5707 200.383 21.784C200.031 21.992 199.855 22.3493 199.855 22.856C199.855 23.2293 199.988 23.5493 200.255 23.816C200.527 24.0827 200.959 24.216 201.551 24.216C201.967 24.216 202.34 24.12 202.671 23.928C203.007 23.7307 203.271 23.4853 203.463 23.192C203.66 22.8987 203.759 22.6053 203.759 22.312H204.063C204.063 22.824 203.951 23.2987 203.727 23.736C203.508 24.1733 203.194 24.5253 202.783 24.792C202.372 25.0587 201.882 25.192 201.311 25.192ZM206.827 17.352H208.251L210.651 23.928H210.475L212.875 17.352H214.299L211.243 25H209.883L206.827 17.352ZM217.066 15.544C216.81 15.544 216.608 15.472 216.458 15.328C216.309 15.1787 216.234 14.984 216.234 14.744C216.234 14.5093 216.309 14.3227 216.458 14.184C216.608 14.0453 216.81 13.976 217.066 13.976C217.322 13.976 217.525 14.0453 217.674 14.184C217.824 14.3227 217.898 14.5093 217.898 14.744C217.898 14.984 217.824 15.1787 217.674 15.328C217.525 15.472 217.322 15.544 217.066 15.544ZM216.442 25V17.336H217.69V25H216.442ZM226.728 25V20.504C226.728 19.7733 226.552 19.2187 226.2 18.84C225.853 18.456 225.379 18.264 224.776 18.264C224.317 18.264 223.92 18.3893 223.584 18.64C223.248 18.8907 222.989 19.2507 222.808 19.72C222.627 20.184 222.536 20.7387 222.536 21.384H222.056C222.056 20.4933 222.173 19.7333 222.408 19.104C222.643 18.4747 222.984 17.9947 223.432 17.664C223.885 17.328 224.435 17.16 225.08 17.16C225.683 17.16 226.197 17.296 226.624 17.568C227.056 17.8347 227.387 18.2187 227.616 18.72C227.845 19.2213 227.96 19.816 227.96 20.504V25H226.728ZM221.288 25V17.352H222.36L222.536 19.112V25H221.288ZM233.808 28.936C233.024 28.936 232.344 28.824 231.768 28.6C231.192 28.3813 230.744 28.0853 230.424 27.712C230.109 27.344 229.952 26.936 229.952 26.488C229.952 25.896 230.168 25.4427 230.6 25.128C231.037 24.8187 231.6 24.664 232.288 24.664L232.976 25.096C232.4 25.096 231.955 25.216 231.64 25.456C231.325 25.696 231.168 26.024 231.168 26.44C231.168 26.856 231.392 27.208 231.84 27.496C232.288 27.784 232.944 27.928 233.808 27.928C234.448 27.928 235.008 27.8347 235.488 27.648C235.973 27.4667 236.349 27.2267 236.616 26.928C236.888 26.6347 237.024 26.3173 237.024 25.976C237.024 25.736 236.936 25.528 236.76 25.352C236.584 25.1813 236.315 25.096 235.952 25.096H232.976C232.459 25.096 232.011 25.0187 231.632 24.864C231.259 24.704 230.971 24.496 230.768 24.24C230.565 23.984 230.464 23.704 230.464 23.4C230.464 23.08 230.555 22.808 230.736 22.584C230.917 22.36 231.152 22.1893 231.44 22.072C231.733 21.9547 232.048 21.896 232.384 21.896L232.624 22.36C232.464 22.36 232.301 22.3973 232.136 22.472C231.976 22.5413 231.84 22.648 231.728 22.792C231.621 22.9307 231.568 23.1067 231.568 23.32C231.568 23.5653 231.669 23.7707 231.872 23.936C232.075 24.1013 232.443 24.184 232.976 24.184H235.952C236.672 24.184 237.237 24.336 237.648 24.64C238.064 24.944 238.272 25.368 238.272 25.912C238.272 26.4133 238.093 26.8933 237.736 27.352C237.379 27.816 236.867 28.1947 236.2 28.488C235.533 28.7867 234.736 28.936 233.808 28.936ZM234.032 22.76C233.445 22.76 232.915 22.6427 232.44 22.408C231.971 22.1733 231.597 21.8453 231.32 21.424C231.048 21.0027 230.912 20.5147 230.912 19.96C230.912 19.4 231.048 18.9093 231.32 18.488C231.597 18.0667 231.971 17.7413 232.44 17.512C232.915 17.2773 233.445 17.16 234.032 17.16C234.603 17.16 235.12 17.2773 235.584 17.512C236.053 17.7413 236.427 18.0667 236.704 18.488C236.981 18.9093 237.12 19.4 237.12 19.96C237.12 20.5147 236.981 21.0027 236.704 21.424C236.427 21.8453 236.053 22.1733 235.584 22.408C235.12 22.6427 234.603 22.76 234.032 22.76ZM234.032 21.864C234.619 21.864 235.075 21.6827 235.4 21.32C235.725 20.9573 235.888 20.504 235.888 19.96C235.888 19.4 235.725 18.9467 235.4 18.6C235.075 18.248 234.619 18.072 234.032 18.072C233.451 18.072 232.992 18.248 232.656 18.6C232.325 18.9467 232.16 19.4 232.16 19.96C232.16 20.504 232.325 20.9573 232.656 21.32C232.992 21.6827 233.451 21.864 234.032 21.864ZM236.544 18.376L235.952 18.136C235.952 17.688 236.04 17.296 236.216 16.96C236.392 16.6187 236.643 16.3547 236.968 16.168C237.293 15.976 237.68 15.88 238.128 15.88L238.032 17.112C237.552 17.112 237.184 17.216 236.928 17.424C236.672 17.6267 236.544 17.944 236.544 18.376ZM35.968 45.192C35.552 45.192 35.1787 45.112 34.848 44.952C34.5173 44.792 34.256 44.552 34.064 44.232C33.872 43.912 33.776 43.512 33.776 43.032V35.224H35.008V43C35.008 43.7893 35.376 44.184 36.112 44.184C36.3307 44.184 36.5413 44.16 36.744 44.112C36.952 44.064 37.184 43.992 37.44 43.896L37.616 44.792C37.344 44.9093 37.072 45.0053 36.8 45.08C36.5333 45.1547 36.256 45.192 35.968 45.192ZM32.544 38.216V37.352H37.424V38.216H32.544ZM45.2316 45V40.504C45.2316 39.7733 45.0556 39.2187 44.7036 38.84C44.357 38.456 43.8823 38.264 43.2796 38.264C42.821 38.264 42.4236 38.3893 42.0876 38.64C41.7516 38.8907 41.493 39.2507 41.3116 39.72C41.1303 40.184 41.0396 40.7387 41.0396 41.384H40.5596C40.5596 40.4933 40.677 39.7333 40.9116 39.104C41.1463 38.4747 41.4876 37.9947 41.9356 37.664C42.389 37.328 42.9383 37.16 43.5836 37.16C44.1863 37.16 44.701 37.296 45.1276 37.568C45.5596 37.8347 45.8903 38.2187 46.1196 38.72C46.349 39.2213 46.4636 39.816 46.4636 40.504V45H45.2316ZM39.7916 45V34.088H41.0396V45H39.7916ZM52.2639 45.192C51.6025 45.192 51.0105 45.024 50.4879 44.688C49.9705 44.3467 49.5599 43.8747 49.2559 43.272C48.9572 42.6693 48.8079 41.976 48.8079 41.192C48.8079 40.3547 48.9572 39.6347 49.2559 39.032C49.5545 38.4293 49.9625 37.968 50.4799 37.648C51.0025 37.3227 51.5972 37.16 52.2639 37.16C52.8452 37.16 53.3412 37.2773 53.7519 37.512C54.1625 37.7467 54.4932 38.064 54.7439 38.464C54.9945 38.864 55.1679 39.3173 55.2639 39.824C55.3652 40.3253 55.3945 40.8453 55.3519 41.384H49.8159V40.616H54.5279L54.1599 40.856C54.1759 40.5413 54.1572 40.2267 54.1039 39.912C54.0559 39.5973 53.9625 39.3093 53.8239 39.048C53.6852 38.7813 53.4905 38.568 53.2399 38.408C52.9892 38.248 52.6692 38.168 52.2799 38.168C51.7892 38.168 51.3785 38.2933 51.0479 38.544C50.7172 38.7947 50.4692 39.1253 50.3039 39.536C50.1385 39.9413 50.0559 40.3813 50.0559 40.856V41.368C50.0559 41.9013 50.1359 42.3787 50.2959 42.8C50.4612 43.2213 50.7065 43.5547 51.0319 43.8C51.3572 44.0453 51.7679 44.168 52.2639 44.168C52.7599 44.168 53.1679 44.048 53.4879 43.808C53.8079 43.568 54.0025 43.2133 54.0719 42.744H55.3679C55.2879 43.2507 55.1065 43.688 54.8239 44.056C54.5412 44.4187 54.1812 44.6987 53.7439 44.896C53.3065 45.0933 52.8132 45.192 52.2639 45.192ZM60.6155 37.352H61.9115L63.8635 43.736H63.7035L65.6075 37.72H66.6475L68.5355 43.752H68.3915L70.3435 37.352H71.5915L69.0795 45H67.8635L66.0075 39.352H66.1995L64.3595 45H63.1435L60.6155 37.352ZM76.3532 45.192C75.6919 45.192 75.0999 45.024 74.5772 44.688C74.0599 44.3467 73.6492 43.8747 73.3452 43.272C73.0466 42.6693 72.8972 41.976 72.8972 41.192C72.8972 40.3547 73.0466 39.6347 73.3452 39.032C73.6439 38.4293 74.0519 37.968 74.5692 37.648C75.0919 37.3227 75.6866 37.16 76.3532 37.16C76.9346 37.16 77.4306 37.2773 77.8412 37.512C78.2519 37.7467 78.5826 38.064 78.8332 38.464C79.0839 38.864 79.2572 39.3173 79.3532 39.824C79.4546 40.3253 79.4839 40.8453 79.4412 41.384H73.9052V40.616H78.6172L78.2492 40.856C78.2652 40.5413 78.2466 40.2267 78.1932 39.912C78.1452 39.5973 78.0519 39.3093 77.9132 39.048C77.7746 38.7813 77.5799 38.568 77.3292 38.408C77.0786 38.248 76.7586 38.168 76.3692 38.168C75.8786 38.168 75.4679 38.2933 75.1372 38.544C74.8066 38.7947 74.5586 39.1253 74.3932 39.536C74.2279 39.9413 74.1452 40.3813 74.1452 40.856V41.368C74.1452 41.9013 74.2252 42.3787 74.3852 42.8C74.5506 43.2213 74.7959 43.5547 75.1212 43.8C75.4466 44.0453 75.8572 44.168 76.3532 44.168C76.8492 44.168 77.2572 44.048 77.5772 43.808C77.8972 43.568 78.0919 43.2133 78.1612 42.744H79.4572C79.3772 43.2507 79.1959 43.688 78.9132 44.056C78.6306 44.4187 78.2706 44.6987 77.8332 44.896C77.3959 45.0933 76.9026 45.192 76.3532 45.192ZM85.58 45.192C85.068 45.192 84.604 45.0587 84.188 44.792C83.7773 44.5253 83.4493 44.136 83.204 43.624C82.964 43.1067 82.844 42.4773 82.844 41.736H83.324C83.324 42.232 83.4253 42.656 83.628 43.008C83.836 43.3547 84.1027 43.6187 84.428 43.8C84.7533 43.9813 85.0947 44.072 85.452 44.072C85.8627 44.072 86.2387 43.9547 86.58 43.72C86.9213 43.4853 87.1933 43.1493 87.396 42.712C87.604 42.2747 87.708 41.752 87.708 41.144C87.708 40.5467 87.6067 40.0347 87.404 39.608C87.2013 39.176 86.9267 38.8453 86.58 38.616C86.2387 38.3813 85.8573 38.264 85.436 38.264C85.0733 38.264 84.7293 38.3547 84.404 38.536C84.084 38.712 83.8227 38.9733 83.62 39.32C83.4227 39.6667 83.324 40.0933 83.324 40.6H82.844C82.844 39.8747 82.9613 39.256 83.196 38.744C83.436 38.232 83.7667 37.84 84.188 37.568C84.6093 37.296 85.1 37.16 85.66 37.16C86.2627 37.16 86.8147 37.3227 87.316 37.648C87.8227 37.968 88.228 38.4267 88.532 39.024C88.836 39.6213 88.988 40.328 88.988 41.144C88.988 41.9653 88.8333 42.68 88.524 43.288C88.2147 43.8907 87.8013 44.36 87.284 44.696C86.7667 45.0267 86.1987 45.192 85.58 45.192ZM82.076 45V34.088H83.324V43.208L82.956 45H82.076ZM94.4724 45.192C93.731 45.192 93.1124 45.088 92.6164 44.88C92.1204 44.6667 91.7444 44.376 91.4884 44.008C91.2324 43.6347 91.0964 43.208 91.0804 42.728H92.2804C92.307 43.2133 92.5017 43.5787 92.8644 43.824C93.2324 44.064 93.731 44.184 94.3604 44.184C94.691 44.184 94.995 44.1307 95.2724 44.024C95.5497 43.9173 95.771 43.7707 95.9364 43.584C96.1017 43.3973 96.1844 43.1867 96.1844 42.952C96.1844 42.6533 96.075 42.4187 95.8564 42.248C95.6377 42.0773 95.2884 41.928 94.8084 41.8L93.3204 41.32C92.675 41.1173 92.179 40.84 91.8324 40.488C91.491 40.1307 91.3204 39.704 91.3204 39.208C91.3204 38.5893 91.5924 38.0933 92.1364 37.72C92.6804 37.3467 93.395 37.16 94.2804 37.16C95.219 37.16 95.947 37.352 96.4644 37.736C96.9817 38.12 97.251 38.6 97.2724 39.176H96.0404C95.9924 38.84 95.8217 38.5867 95.5284 38.416C95.235 38.24 94.819 38.152 94.2804 38.152C93.763 38.152 93.3577 38.2693 93.0644 38.504C92.7764 38.7333 92.6324 38.9893 92.6324 39.272C92.6324 39.8 93.0857 40.1893 93.9924 40.44L95.5124 40.952C96.1684 41.1493 96.6697 41.408 97.0164 41.728C97.3684 42.048 97.5444 42.456 97.5444 42.952C97.5444 43.336 97.419 43.6987 97.1684 44.04C96.9177 44.3813 96.563 44.6587 96.1044 44.872C95.6457 45.0853 95.1017 45.192 94.4724 45.192ZM100.991 35.544C100.735 35.544 100.532 35.472 100.383 35.328C100.233 35.1787 100.159 34.984 100.159 34.744C100.159 34.5093 100.233 34.3227 100.383 34.184C100.532 34.0453 100.735 33.976 100.991 33.976C101.247 33.976 101.449 34.0453 101.599 34.184C101.748 34.3227 101.823 34.5093 101.823 34.744C101.823 34.984 101.748 35.1787 101.599 35.328C101.449 35.472 101.247 35.544 100.991 35.544ZM100.367 45V37.336H101.615V45H100.367ZM107.564 45.192C107.148 45.192 106.775 45.112 106.444 44.952C106.114 44.792 105.852 44.552 105.66 44.232C105.468 43.912 105.372 43.512 105.372 43.032V35.224H106.604V43C106.604 43.7893 106.972 44.184 107.708 44.184C107.927 44.184 108.138 44.16 108.34 44.112C108.548 44.064 108.78 43.992 109.036 43.896L109.212 44.792C108.94 44.9093 108.668 45.0053 108.396 45.08C108.13 45.1547 107.852 45.192 107.564 45.192ZM104.14 38.216V37.352H109.02V38.216H104.14ZM114.044 45.192C113.383 45.192 112.791 45.024 112.268 44.688C111.751 44.3467 111.34 43.8747 111.036 43.272C110.737 42.6693 110.588 41.976 110.588 41.192C110.588 40.3547 110.737 39.6347 111.036 39.032C111.335 38.4293 111.743 37.968 112.26 37.648C112.783 37.3227 113.377 37.16 114.044 37.16C114.625 37.16 115.121 37.2773 115.532 37.512C115.943 37.7467 116.273 38.064 116.524 38.464C116.775 38.864 116.948 39.3173 117.044 39.824C117.145 40.3253 117.175 40.8453 117.132 41.384H111.596V40.616H116.308L115.94 40.856C115.956 40.5413 115.937 40.2267 115.884 39.912C115.836 39.5973 115.743 39.3093 115.604 39.048C115.465 38.7813 115.271 38.568 115.02 38.408C114.769 38.248 114.449 38.168 114.06 38.168C113.569 38.168 113.159 38.2933 112.828 38.544C112.497 38.7947 112.249 39.1253 112.084 39.536C111.919 39.9413 111.836 40.3813 111.836 40.856V41.368C111.836 41.9013 111.916 42.3787 112.076 42.8C112.241 43.2213 112.487 43.5547 112.812 43.8C113.137 44.0453 113.548 44.168 114.044 44.168C114.54 44.168 114.948 44.048 115.268 43.808C115.588 43.568 115.783 43.2133 115.852 42.744H117.148C117.068 43.2507 116.887 43.688 116.604 44.056C116.321 44.4187 115.961 44.6987 115.524 44.896C115.087 45.0933 114.593 45.192 114.044 45.192ZM128.459 45L128.299 43.32V40.04C128.299 39.352 128.153 38.8587 127.859 38.56C127.566 38.256 127.126 38.104 126.539 38.104C126.209 38.104 125.907 38.152 125.635 38.248C125.369 38.344 125.155 38.4933 124.995 38.696C124.841 38.8933 124.763 39.1493 124.763 39.464H123.371C123.371 38.9093 123.507 38.464 123.779 38.128C124.051 37.7867 124.425 37.5413 124.899 37.392C125.379 37.2373 125.926 37.16 126.539 37.16C127.126 37.16 127.646 37.2587 128.099 37.456C128.553 37.6533 128.907 37.968 129.163 38.4C129.419 38.8267 129.547 39.384 129.547 40.072V45H128.459ZM125.851 45.192C125.222 45.192 124.702 45.08 124.291 44.856C123.881 44.632 123.574 44.3413 123.371 43.984C123.169 43.6267 123.067 43.2507 123.067 42.856C123.067 42.3387 123.195 41.9173 123.451 41.592C123.713 41.2667 124.067 41.0293 124.515 40.88C124.963 40.7253 125.467 40.648 126.027 40.648C126.427 40.648 126.827 40.688 127.227 40.768C127.633 40.848 128.027 40.9573 128.411 41.096V41.88C128.091 41.752 127.729 41.6507 127.323 41.576C126.923 41.5013 126.555 41.464 126.219 41.464C125.707 41.464 125.275 41.5707 124.923 41.784C124.571 41.992 124.395 42.3493 124.395 42.856C124.395 43.2293 124.529 43.5493 124.795 43.816C125.067 44.0827 125.499 44.216 126.091 44.216C126.507 44.216 126.881 44.12 127.211 43.928C127.547 43.7307 127.811 43.4853 128.003 43.192C128.201 42.8987 128.299 42.6053 128.299 42.312H128.603C128.603 42.824 128.491 43.2987 128.267 43.736C128.049 44.1733 127.734 44.5253 127.323 44.792C126.913 45.0587 126.422 45.192 125.851 45.192ZM138.136 45V40.504C138.136 39.7733 137.96 39.2187 137.608 38.84C137.261 38.456 136.787 38.264 136.184 38.264C135.725 38.264 135.328 38.3893 134.992 38.64C134.656 38.8907 134.397 39.2507 134.216 39.72C134.035 40.184 133.944 40.7387 133.944 41.384H133.464C133.464 40.4933 133.581 39.7333 133.816 39.104C134.051 38.4747 134.392 37.9947 134.84 37.664C135.293 37.328 135.843 37.16 136.488 37.16C137.091 37.16 137.605 37.296 138.032 37.568C138.464 37.8347 138.795 38.2187 139.024 38.72C139.253 39.2213 139.368 39.816 139.368 40.504V45H138.136ZM132.696 45V37.352H133.768L133.944 39.112V45H132.696ZM145.248 45.192C144.63 45.192 144.062 45.0267 143.544 44.696C143.027 44.36 142.614 43.8907 142.304 43.288C141.995 42.68 141.84 41.9653 141.84 41.144C141.84 40.328 141.992 39.6213 142.296 39.024C142.6 38.4267 143.003 37.968 143.504 37.648C144.011 37.3227 144.566 37.16 145.168 37.16C145.728 37.16 146.219 37.296 146.64 37.568C147.067 37.84 147.398 38.232 147.632 38.744C147.867 39.256 147.984 39.8747 147.984 40.6H147.504C147.504 40.0933 147.403 39.6667 147.2 39.32C147.003 38.9733 146.744 38.712 146.424 38.536C146.104 38.3547 145.76 38.264 145.392 38.264C144.976 38.264 144.595 38.3813 144.248 38.616C143.907 38.8453 143.632 39.176 143.424 39.608C143.222 40.0347 143.12 40.5467 143.12 41.144C143.12 41.752 143.222 42.2747 143.424 42.712C143.632 43.1493 143.907 43.4853 144.248 43.72C144.595 43.9547 144.976 44.072 145.392 44.072C145.739 44.072 146.072 43.9813 146.392 43.8C146.718 43.6187 146.984 43.3547 147.192 43.008C147.4 42.656 147.504 42.232 147.504 41.736H147.984C147.984 42.4773 147.862 43.1067 147.616 43.624C147.376 44.136 147.048 44.5253 146.632 44.792C146.222 45.0587 145.76 45.192 145.248 45.192ZM147.712 45L147.504 43.208V34.088H148.752V45H147.712ZM156.113 45V34.952H157.361V45H156.113ZM163.387 37.352H164.683L166.635 43.736H166.475L168.379 37.72H169.419L171.307 43.752H171.163L173.115 37.352H174.363L171.851 45H170.635L168.779 39.352H168.971L167.131 45H165.915L163.387 37.352ZM177.172 35.544C176.916 35.544 176.714 35.472 176.564 35.328C176.415 35.1787 176.34 34.984 176.34 34.744C176.34 34.5093 176.415 34.3227 176.564 34.184C176.714 34.0453 176.916 33.976 177.172 33.976C177.428 33.976 177.631 34.0453 177.78 34.184C177.93 34.3227 178.004 34.5093 178.004 34.744C178.004 34.984 177.93 35.1787 177.78 35.328C177.631 35.472 177.428 35.544 177.172 35.544ZM176.548 45V37.336H177.796V45H176.548ZM181.394 45V34.088H182.642V45H181.394ZM186.039 45V34.088H187.287V45H186.039ZM197.408 45.192C196.72 45.192 196.106 45.04 195.568 44.736C195.034 44.432 194.613 43.9813 194.304 43.384C193.994 42.7867 193.84 42.0507 193.84 41.176C193.84 40.296 193.994 39.56 194.304 38.968C194.613 38.3707 195.034 37.92 195.568 37.616C196.106 37.312 196.72 37.16 197.408 37.16C198.09 37.16 198.698 37.312 199.232 37.616C199.77 37.92 200.192 38.3707 200.496 38.968C200.805 39.56 200.96 40.296 200.96 41.176C200.96 42.0507 200.805 42.7867 200.496 43.384C200.192 43.9813 199.77 44.432 199.232 44.736C198.698 45.04 198.09 45.192 197.408 45.192ZM197.376 44.104C197.872 44.104 198.293 43.9867 198.64 43.752C198.986 43.512 199.248 43.1733 199.424 42.736C199.605 42.2987 199.696 41.7787 199.696 41.176C199.696 40.264 199.506 39.5467 199.128 39.024C198.749 38.496 198.186 38.232 197.44 38.232C196.938 38.232 196.514 38.352 196.168 38.592C195.826 38.8267 195.565 39.1653 195.384 39.608C195.208 40.0453 195.12 40.568 195.12 41.176C195.12 42.0773 195.309 42.792 195.688 43.32C196.072 43.8427 196.634 44.104 197.376 44.104ZM207.022 45.192C206.462 45.192 205.974 45.064 205.558 44.808C205.147 44.552 204.83 44.1787 204.606 43.688C204.382 43.192 204.27 42.5893 204.27 41.88H204.798C204.798 42.3547 204.896 42.7547 205.094 43.08C205.291 43.4053 205.547 43.6533 205.862 43.824C206.182 43.9893 206.52 44.072 206.878 44.072C207.262 44.072 207.63 43.9627 207.982 43.744C208.334 43.52 208.622 43.192 208.846 42.76C209.07 42.328 209.182 41.7947 209.182 41.16C209.182 40.552 209.078 40.032 208.87 39.6C208.667 39.168 208.392 38.8373 208.046 38.608C207.699 38.3787 207.315 38.264 206.894 38.264C206.531 38.264 206.19 38.352 205.87 38.528C205.55 38.704 205.291 38.9627 205.094 39.304C204.896 39.64 204.798 40.056 204.798 40.552H204.27C204.27 39.8107 204.392 39.1893 204.638 38.688C204.883 38.1813 205.216 37.8 205.638 37.544C206.059 37.288 206.531 37.16 207.054 37.16C207.651 37.16 208.208 37.32 208.726 37.64C209.243 37.96 209.662 38.4187 209.982 39.016C210.302 39.6133 210.462 40.328 210.462 41.16C210.462 42.0027 210.299 42.7253 209.974 43.328C209.654 43.9307 209.232 44.392 208.71 44.712C208.187 45.032 207.624 45.192 207.022 45.192ZM203.55 48.76V37.352H204.59L204.798 39.144V48.76H203.55ZM215.725 45.192C215.064 45.192 214.472 45.024 213.949 44.688C213.432 44.3467 213.021 43.8747 212.717 43.272C212.418 42.6693 212.269 41.976 212.269 41.192C212.269 40.3547 212.418 39.6347 212.717 39.032C213.016 38.4293 213.424 37.968 213.941 37.648C214.464 37.3227 215.058 37.16 215.725 37.16C216.306 37.16 216.802 37.2773 217.213 37.512C217.624 37.7467 217.954 38.064 218.205 38.464C218.456 38.864 218.629 39.3173 218.725 39.824C218.826 40.3253 218.856 40.8453 218.813 41.384H213.277V40.616H217.989L217.621 40.856C217.637 40.5413 217.618 40.2267 217.565 39.912C217.517 39.5973 217.424 39.3093 217.285 39.048C217.146 38.7813 216.952 38.568 216.701 38.408C216.45 38.248 216.13 38.168 215.741 38.168C215.25 38.168 214.84 38.2933 214.509 38.544C214.178 38.7947 213.93 39.1253 213.765 39.536C213.6 39.9413 213.517 40.3813 213.517 40.856V41.368C213.517 41.9013 213.597 42.3787 213.757 42.8C213.922 43.2213 214.168 43.5547 214.493 43.8C214.818 44.0453 215.229 44.168 215.725 44.168C216.221 44.168 216.629 44.048 216.949 43.808C217.269 43.568 217.464 43.2133 217.533 42.744H218.829C218.749 43.2507 218.568 43.688 218.285 44.056C218.002 44.4187 217.642 44.6987 217.205 44.896C216.768 45.0933 216.274 45.192 215.725 45.192ZM226.888 45V40.504C226.888 39.7733 226.712 39.2187 226.36 38.84C226.013 38.456 225.539 38.264 224.936 38.264C224.477 38.264 224.08 38.3893 223.744 38.64C223.408 38.8907 223.149 39.2507 222.968 39.72C222.787 40.184 222.696 40.7387 222.696 41.384H222.216C222.216 40.4933 222.333 39.7333 222.568 39.104C222.803 38.4747 223.144 37.9947 223.592 37.664C224.045 37.328 224.595 37.16 225.24 37.16C225.843 37.16 226.357 37.296 226.784 37.568C227.216 37.8347 227.547 38.2187 227.776 38.72C228.005 39.2213 228.12 39.816 228.12 40.504V45H226.888ZM221.448 45V37.352H222.52L222.696 39.112V45H221.448ZM239.957 45L239.797 43.32V40.04C239.797 39.352 239.65 38.8587 239.357 38.56C239.064 38.256 238.624 38.104 238.037 38.104C237.706 38.104 237.405 38.152 237.133 38.248C236.866 38.344 236.653 38.4933 236.493 38.696C236.338 38.8933 236.261 39.1493 236.261 39.464H234.869C234.869 38.9093 235.005 38.464 235.277 38.128C235.549 37.7867 235.922 37.5413 236.397 37.392C236.877 37.2373 237.424 37.16 238.037 37.16C238.624 37.16 239.144 37.2587 239.597 37.456C240.05 37.6533 240.405 37.968 240.661 38.4C240.917 38.8267 241.045 39.384 241.045 40.072V45H239.957ZM237.349 45.192C236.72 45.192 236.2 45.08 235.789 44.856C235.378 44.632 235.072 44.3413 234.869 43.984C234.666 43.6267 234.565 43.2507 234.565 42.856C234.565 42.3387 234.693 41.9173 234.949 41.592C235.21 41.2667 235.565 41.0293 236.013 40.88C236.461 40.7253 236.965 40.648 237.525 40.648C237.925 40.648 238.325 40.688 238.725 40.768C239.13 40.848 239.525 40.9573 239.909 41.096V41.88C239.589 41.752 239.226 41.6507 238.821 41.576C238.421 41.5013 238.053 41.464 237.717 41.464C237.205 41.464 236.773 41.5707 236.421 41.784C236.069 41.992 235.893 42.3493 235.893 42.856C235.893 43.2293 236.026 43.5493 236.293 43.816C236.565 44.0827 236.997 44.216 237.589 44.216C238.005 44.216 238.378 44.12 238.709 43.928C239.045 43.7307 239.309 43.4853 239.501 43.192C239.698 42.8987 239.797 42.6053 239.797 42.312H240.101C240.101 42.824 239.989 43.2987 239.765 43.736C239.546 44.1733 239.232 44.5253 238.821 44.792C238.41 45.0587 237.92 45.192 237.349 45.192ZM36.352 65.192C35.7333 65.192 35.1653 65.0267 34.648 64.696C34.1307 64.36 33.7173 63.8907 33.408 63.288C33.0987 62.68 32.944 61.9653 32.944 61.144C32.944 60.328 33.096 59.6213 33.4 59.024C33.704 58.4267 34.1067 57.968 34.608 57.648C35.1147 57.3227 35.6693 57.16 36.272 57.16C36.832 57.16 37.3227 57.296 37.744 57.568C38.1707 57.84 38.5013 58.232 38.736 58.744C38.9707 59.256 39.088 59.8747 39.088 60.6H38.608C38.608 60.0933 38.5067 59.6667 38.304 59.32C38.1067 58.9733 37.848 58.712 37.528 58.536C37.208 58.3547 36.864 58.264 36.496 58.264C36.08 58.264 35.6987 58.3813 35.352 58.616C35.0107 58.8453 34.736 59.176 34.528 59.608C34.3253 60.0347 34.224 60.5467 34.224 61.144C34.224 61.752 34.3253 62.2747 34.528 62.712C34.736 63.1493 35.0107 63.4853 35.352 63.72C35.6987 63.9547 36.08 64.072 36.496 64.072C36.8427 64.072 37.176 63.9813 37.496 63.8C37.8213 63.6187 38.088 63.3547 38.296 63.008C38.504 62.656 38.608 62.232 38.608 61.736H39.088C39.088 62.4773 38.9653 63.1067 38.72 63.624C38.48 64.136 38.152 64.5253 37.736 64.792C37.3253 65.0587 36.864 65.192 36.352 65.192ZM38.816 65L38.608 63.208V54.088H39.856V65H38.816ZM43.9644 55.544C43.7084 55.544 43.5057 55.472 43.3564 55.328C43.207 55.1787 43.1324 54.984 43.1324 54.744C43.1324 54.5093 43.207 54.3227 43.3564 54.184C43.5057 54.0453 43.7084 53.976 43.9644 53.976C44.2204 53.976 44.423 54.0453 44.5724 54.184C44.7217 54.3227 44.7964 54.5093 44.7964 54.744C44.7964 54.984 44.7217 55.1787 44.5724 55.328C44.423 55.472 44.2204 55.544 43.9644 55.544ZM43.3404 65V57.336H44.5884V65H43.3404ZM48.602 65V56.168C48.602 55.6613 48.698 55.248 48.89 54.928C49.0873 54.6027 49.3487 54.3627 49.674 54.208C50.0047 54.0533 50.3727 53.976 50.778 53.976C50.9967 53.976 51.218 53.992 51.442 54.024C51.6713 54.056 51.898 54.104 52.122 54.168L51.882 55.16C51.722 55.096 51.562 55.048 51.402 55.016C51.2473 54.984 51.098 54.968 50.954 54.968C50.7833 54.968 50.6127 55 50.442 55.064C50.2713 55.128 50.13 55.248 50.018 55.424C49.906 55.6 49.85 55.8533 49.85 56.184V65H48.602ZM47.354 58.216V57.352H51.434V58.216H47.354ZM54.2464 65V56.168C54.2464 55.6613 54.3424 55.248 54.5344 54.928C54.7317 54.6027 54.993 54.3627 55.3184 54.208C55.649 54.0533 56.017 53.976 56.4224 53.976C56.641 53.976 56.8624 53.992 57.0864 54.024C57.3157 54.056 57.5424 54.104 57.7664 54.168L57.5264 55.16C57.3664 55.096 57.2064 55.048 57.0464 55.016C56.8917 54.984 56.7424 54.968 56.5984 54.968C56.4277 54.968 56.257 55 56.0864 55.064C55.9157 55.128 55.7744 55.248 55.6624 55.424C55.5504 55.6 55.4944 55.8533 55.4944 56.184V65H54.2464ZM52.9984 58.216V57.352H57.0784V58.216H52.9984ZM62.1307 65.192C61.4694 65.192 60.8774 65.024 60.3547 64.688C59.8374 64.3467 59.4267 63.8747 59.1227 63.272C58.8241 62.6693 58.6747 61.976 58.6747 61.192C58.6747 60.3547 58.8241 59.6347 59.1227 59.032C59.4214 58.4293 59.8294 57.968 60.3467 57.648C60.8694 57.3227 61.4641 57.16 62.1307 57.16C62.7121 57.16 63.2081 57.2773 63.6187 57.512C64.0294 57.7467 64.3601 58.064 64.6107 58.464C64.8614 58.864 65.0347 59.3173 65.1307 59.824C65.2321 60.3253 65.2614 60.8453 65.2187 61.384H59.6827V60.616H64.3947L64.0267 60.856C64.0427 60.5413 64.0241 60.2267 63.9707 59.912C63.9227 59.5973 63.8294 59.3093 63.6907 59.048C63.5521 58.7813 63.3574 58.568 63.1067 58.408C62.8561 58.248 62.5361 58.168 62.1467 58.168C61.6561 58.168 61.2454 58.2933 60.9147 58.544C60.5841 58.7947 60.3361 59.1253 60.1707 59.536C60.0054 59.9413 59.9227 60.3813 59.9227 60.856V61.368C59.9227 61.9013 60.0027 62.3787 60.1627 62.8C60.3281 63.2213 60.5734 63.5547 60.8987 63.8C61.2241 64.0453 61.6347 64.168 62.1307 64.168C62.6267 64.168 63.0347 64.048 63.3547 63.808C63.6747 63.568 63.8694 63.2133 63.9387 62.744H65.2347C65.1547 63.2507 64.9734 63.688 64.6907 64.056C64.4081 64.4187 64.0481 64.6987 63.6107 64.896C63.1734 65.0933 62.6801 65.192 62.1307 65.192ZM67.8535 65V57.336H69.1015V65H67.8535ZM68.7175 61.544C68.7175 60.5733 68.8108 59.768 68.9975 59.128C69.1842 58.4827 69.4562 58.0027 69.8135 57.688C70.1762 57.368 70.6162 57.208 71.1335 57.208C71.3042 57.208 71.4588 57.2213 71.5975 57.248C71.7415 57.2693 71.8855 57.304 72.0295 57.352L71.9495 58.584C71.8002 58.536 71.6375 58.496 71.4615 58.464C71.2855 58.4267 71.1282 58.408 70.9895 58.408C70.5362 58.408 70.1708 58.5387 69.8935 58.8C69.6162 59.056 69.4135 59.4187 69.2855 59.888C69.1628 60.3573 69.1015 60.9093 69.1015 61.544H68.7175ZM76.4507 65.192C75.7894 65.192 75.1974 65.024 74.6747 64.688C74.1574 64.3467 73.7467 63.8747 73.4427 63.272C73.1441 62.6693 72.9947 61.976 72.9947 61.192C72.9947 60.3547 73.1441 59.6347 73.4427 59.032C73.7414 58.4293 74.1494 57.968 74.6667 57.648C75.1894 57.3227 75.7841 57.16 76.4507 57.16C77.0321 57.16 77.5281 57.2773 77.9387 57.512C78.3494 57.7467 78.6801 58.064 78.9307 58.464C79.1814 58.864 79.3547 59.3173 79.4507 59.824C79.5521 60.3253 79.5814 60.8453 79.5387 61.384H74.0027V60.616H78.7147L78.3467 60.856C78.3627 60.5413 78.3441 60.2267 78.2907 59.912C78.2427 59.5973 78.1494 59.3093 78.0107 59.048C77.8721 58.7813 77.6774 58.568 77.4267 58.408C77.1761 58.248 76.8561 58.168 76.4667 58.168C75.9761 58.168 75.5654 58.2933 75.2347 58.544C74.9041 58.7947 74.6561 59.1253 74.4907 59.536C74.3254 59.9413 74.2427 60.3813 74.2427 60.856V61.368C74.2427 61.9013 74.3227 62.3787 74.4827 62.8C74.6481 63.2213 74.8934 63.5547 75.2187 63.8C75.5441 64.0453 75.9547 64.168 76.4507 64.168C76.9467 64.168 77.3547 64.048 77.6747 63.808C77.9947 63.568 78.1894 63.2133 78.2587 62.744H79.5547C79.4747 63.2507 79.2934 63.688 79.0107 64.056C78.7281 64.4187 78.3681 64.6987 77.9307 64.896C77.4934 65.0933 77.0001 65.192 76.4507 65.192ZM87.6135 65V60.504C87.6135 59.7733 87.4375 59.2187 87.0855 58.84C86.7388 58.456 86.2642 58.264 85.6615 58.264C85.2028 58.264 84.8055 58.3893 84.4695 58.64C84.1335 58.8907 83.8748 59.2507 83.6935 59.72C83.5122 60.184 83.4215 60.7387 83.4215 61.384H82.9415C82.9415 60.4933 83.0588 59.7333 83.2935 59.104C83.5282 58.4747 83.8695 57.9947 84.3175 57.664C84.7708 57.328 85.3202 57.16 85.9655 57.16C86.5682 57.16 87.0828 57.296 87.5095 57.568C87.9415 57.8347 88.2722 58.2187 88.5015 58.72C88.7308 59.2213 88.8455 59.816 88.8455 60.504V65H87.6135ZM82.1735 65V57.352H83.2455L83.4215 59.112V65H82.1735ZM94.3417 65.192C93.9257 65.192 93.5524 65.112 93.2217 64.952C92.8911 64.792 92.6297 64.552 92.4377 64.232C92.2457 63.912 92.1497 63.512 92.1497 63.032V55.224H93.3817V63C93.3817 63.7893 93.7497 64.184 94.4857 64.184C94.7044 64.184 94.9151 64.16 95.1177 64.112C95.3257 64.064 95.5577 63.992 95.8137 63.896L95.9897 64.792C95.7177 64.9093 95.4457 65.0053 95.1737 65.08C94.9071 65.1547 94.6297 65.192 94.3417 65.192ZM90.9177 58.216V57.352H95.7977V58.216H90.9177ZM100.794 57.352H102.09L104.042 63.736H103.882L105.786 57.72H106.826L108.714 63.752H108.57L110.522 57.352H111.77L109.258 65H108.042L106.186 59.352H106.378L104.538 65H103.322L100.794 57.352ZM114.58 55.544C114.324 55.544 114.121 55.472 113.972 55.328C113.823 55.1787 113.748 54.984 113.748 54.744C113.748 54.5093 113.823 54.3227 113.972 54.184C114.121 54.0453 114.324 53.976 114.58 53.976C114.836 53.976 115.039 54.0453 115.188 54.184C115.337 54.3227 115.412 54.5093 115.412 54.744C115.412 54.984 115.337 55.1787 115.188 55.328C115.039 55.472 114.836 55.544 114.58 55.544ZM113.956 65V57.336H115.204V65H113.956ZM124.242 65V60.504C124.242 59.7733 124.066 59.2187 123.714 58.84C123.367 58.456 122.892 58.264 122.29 58.264C121.831 58.264 121.434 58.3893 121.098 58.64C120.762 58.8907 120.503 59.2507 120.322 59.72C120.14 60.184 120.05 60.7387 120.05 61.384H119.57C119.57 60.4933 119.687 59.7333 119.922 59.104C120.156 58.4747 120.498 57.9947 120.946 57.664C121.399 57.328 121.948 57.16 122.594 57.16C123.196 57.16 123.711 57.296 124.138 57.568C124.57 57.8347 124.9 58.2187 125.13 58.72C125.359 59.2213 125.474 59.816 125.474 60.504V65H124.242ZM118.802 65V57.352H119.874L120.05 59.112V65H118.802ZM131.354 65.192C130.735 65.192 130.167 65.0267 129.65 64.696C129.133 64.36 128.719 63.8907 128.41 63.288C128.101 62.68 127.946 61.9653 127.946 61.144C127.946 60.328 128.098 59.6213 128.402 59.024C128.706 58.4267 129.109 57.968 129.61 57.648C130.117 57.3227 130.671 57.16 131.274 57.16C131.834 57.16 132.325 57.296 132.746 57.568C133.173 57.84 133.503 58.232 133.738 58.744C133.973 59.256 134.09 59.8747 134.09 60.6H133.61C133.61 60.0933 133.509 59.6667 133.306 59.32C133.109 58.9733 132.85 58.712 132.53 58.536C132.21 58.3547 131.866 58.264 131.498 58.264C131.082 58.264 130.701 58.3813 130.354 58.616C130.013 58.8453 129.738 59.176 129.53 59.608C129.327 60.0347 129.226 60.5467 129.226 61.144C129.226 61.752 129.327 62.2747 129.53 62.712C129.738 63.1493 130.013 63.4853 130.354 63.72C130.701 63.9547 131.082 64.072 131.498 64.072C131.845 64.072 132.178 63.9813 132.498 63.8C132.823 63.6187 133.09 63.3547 133.298 63.008C133.506 62.656 133.61 62.232 133.61 61.736H134.09C134.09 62.4773 133.967 63.1067 133.722 63.624C133.482 64.136 133.154 64.5253 132.738 64.792C132.327 65.0587 131.866 65.192 131.354 65.192ZM133.818 65L133.61 63.208V54.088H134.858V65H133.818ZM141.03 65.192C140.342 65.192 139.729 65.04 139.19 64.736C138.657 64.432 138.236 63.9813 137.926 63.384C137.617 62.7867 137.462 62.0507 137.462 61.176C137.462 60.296 137.617 59.56 137.926 58.968C138.236 58.3707 138.657 57.92 139.19 57.616C139.729 57.312 140.342 57.16 141.03 57.16C141.713 57.16 142.321 57.312 142.854 57.616C143.393 57.92 143.814 58.3707 144.118 58.968C144.428 59.56 144.582 60.296 144.582 61.176C144.582 62.0507 144.428 62.7867 144.118 63.384C143.814 63.9813 143.393 64.432 142.854 64.736C142.321 65.04 141.713 65.192 141.03 65.192ZM140.998 64.104C141.494 64.104 141.916 63.9867 142.262 63.752C142.609 63.512 142.87 63.1733 143.046 62.736C143.228 62.2987 143.318 61.7787 143.318 61.176C143.318 60.264 143.129 59.5467 142.75 59.024C142.372 58.496 141.809 58.232 141.062 58.232C140.561 58.232 140.137 58.352 139.79 58.592C139.449 58.8267 139.188 59.1653 139.006 59.608C138.83 60.0453 138.742 60.568 138.742 61.176C138.742 62.0773 138.932 62.792 139.31 63.32C139.694 63.8427 140.257 64.104 140.998 64.104ZM145.844 57.352H147.14L149.092 63.736H148.932L150.836 57.72H151.876L153.764 63.752H153.62L155.572 57.352H156.82L154.308 65H153.092L151.236 59.352H151.428L149.588 65H148.372L145.844 57.352ZM158.734 66.744L157.79 66.28C158.094 66.1253 158.35 65.9547 158.558 65.768C158.771 65.5813 158.91 65.352 158.974 65.08C158.745 65.0533 158.547 64.9707 158.382 64.832C158.222 64.6933 158.142 64.5093 158.142 64.28C158.142 64.056 158.225 63.864 158.39 63.704C158.561 63.544 158.777 63.464 159.038 63.464C159.369 63.464 159.635 63.584 159.838 63.824C160.041 64.064 160.142 64.3493 160.142 64.68C160.142 65.0693 160.022 65.4507 159.782 65.824C159.547 66.2027 159.198 66.5093 158.734 66.744ZM169.155 65.192C168.467 65.192 167.853 65.04 167.315 64.736C166.781 64.432 166.36 63.9813 166.051 63.384C165.741 62.7867 165.587 62.0507 165.587 61.176C165.587 60.296 165.741 59.56 166.051 58.968C166.36 58.3707 166.781 57.92 167.315 57.616C167.853 57.312 168.467 57.16 169.155 57.16C169.837 57.16 170.445 57.312 170.979 57.616C171.517 57.92 171.939 58.3707 172.243 58.968C172.552 59.56 172.707 60.296 172.707 61.176C172.707 62.0507 172.552 62.7867 172.243 63.384C171.939 63.9813 171.517 64.432 170.979 64.736C170.445 65.04 169.837 65.192 169.155 65.192ZM169.123 64.104C169.619 64.104 170.04 63.9867 170.387 63.752C170.733 63.512 170.995 63.1733 171.171 62.736C171.352 62.2987 171.443 61.7787 171.443 61.176C171.443 60.264 171.253 59.5467 170.875 59.024C170.496 58.496 169.933 58.232 169.187 58.232C168.685 58.232 168.261 58.352 167.915 58.592C167.573 58.8267 167.312 59.1653 167.131 59.608C166.955 60.0453 166.867 60.568 166.867 61.176C166.867 62.0773 167.056 62.792 167.435 63.32C167.819 63.8427 168.381 64.104 169.123 64.104ZM175.297 65V54.088H176.545V65H175.297ZM176.353 60.616L180.257 57.352H182.001L176.353 61.944V60.616ZM180.641 65L177.009 60.168L178.273 59.944L182.177 65H180.641ZM185.688 62.44V61.72C185.688 61.256 185.736 60.8747 185.832 60.576C185.934 60.2773 186.099 60.0187 186.328 59.8C186.558 59.5813 186.872 59.3627 187.272 59.144C187.63 58.952 187.915 58.7733 188.128 58.608C188.342 58.4427 188.494 58.264 188.584 58.072C188.68 57.88 188.728 57.6453 188.728 57.368C188.728 56.952 188.558 56.6053 188.216 56.328C187.88 56.0507 187.416 55.912 186.824 55.912C186.168 55.912 185.667 56.0427 185.32 56.304C184.974 56.56 184.755 56.92 184.664 57.384H183.336C183.411 56.6053 183.736 55.976 184.312 55.496C184.894 55.016 185.72 54.776 186.792 54.776C187.475 54.776 188.062 54.896 188.552 55.136C189.048 55.3707 189.427 55.688 189.688 56.088C189.955 56.4827 190.088 56.92 190.088 57.4C190.088 57.9493 189.95 58.4107 189.672 58.784C189.395 59.152 188.947 59.5013 188.328 59.832C187.971 60.0293 187.688 60.2133 187.48 60.384C187.278 60.5493 187.134 60.7413 187.048 60.96C186.963 61.1733 186.92 61.4533 186.92 61.8V62.44H185.688ZM186.328 65.192C186.062 65.192 185.84 65.1067 185.664 64.936C185.488 64.76 185.4 64.5493 185.4 64.304C185.4 64.0533 185.486 63.8373 185.656 63.656C185.832 63.4747 186.054 63.384 186.32 63.384C186.587 63.384 186.814 63.4747 187 63.656C187.192 63.832 187.288 64.0453 187.288 64.296C187.288 64.5413 187.195 64.752 187.008 64.928C186.822 65.104 186.595 65.192 186.328 65.192Z" fill="#4A5DC8"/>
</g>
<defs>
<filter id="filter0_d_7073_5855" x="6" y="0" width="249.767" height="88" filterUnits="userSpaceOnUse" color-interpolation-filters="sRGB">
<feFlood flood-opacity="0" result="BackgroundImageFix"/>
<feColorMatrix in="SourceAlpha" type="matrix" values="0 0 0 0 0 0 0 0 0 0 0 0 0 0 0 0 0 0 127 0" result="hardAlpha"/>
<feOffset dy="4"/>
<feGaussianBlur stdDeviation="3"/>
<feComposite in2="hardAlpha" operator="out"/>
<feColorMatrix type="matrix" values="0 0 0 0 0 0 0 0 0 0 0 0 0 0 0 0 0 0 0.1 0"/>
<feBlend mode="normal" in2="BackgroundImageFix" result="effect1_dropShadow_7073_5855"/>
<feBlend mode="normal" in="SourceGraphic" in2="effect1_dropShadow_7073_5855" result="shape"/>
</filter>
<filter id="filter1_d_7073_5855" x="26.5439" y="11.9756" width="220.501" height="64.7686" filterUnits="userSpaceOnUse" color-interpolation-filters="sRGB">
<feFlood flood-opacity="0" result="BackgroundImageFix"/>
<feColorMatrix in="SourceAlpha" type="matrix" values="0 0 0 0 0 0 0 0 0 0 0 0 0 0 0 0 0 0 127 0" result="hardAlpha"/>
<feOffset dy="4"/>
<feGaussianBlur stdDeviation="3"/>
<feComposite in2="hardAlpha" operator="out"/>
<feColorMatrix type="matrix" values="0 0 0 0 0 0 0 0 0 0 0 0 0 0 0 0 0 0 0.05 0"/>
<feBlend mode="normal" in2="BackgroundImageFix" result="effect1_dropShadow_7073_5855"/>
<feBlend mode="normal" in="SourceGraphic" in2="effect1_dropShadow_7073_5855" result="shape"/>
</filter>
</defs>
</svg>
