<svg width="257" height="108" viewBox="0 0 257 108" fill="none" xmlns="http://www.w3.org/2000/svg">
<path d="M7.04333 32.6331L16.7674 41V49C16.7674 53.9706 20.7968 58 25.7674 58L247.035 58C252.005 58 256.035 53.9706 256.035 49V11C256.035 6.02944 252.005 2 247.035 2L25.7674 2C20.7968 2 16.7674 6.02944 16.7674 11V20.5L7.15555 27.9931C5.66179 29.1575 5.60761 31.3978 7.04333 32.6331Z" fill="white"/>
<g filter="url(#filter0_d_7084_5678)">
<mask id="path-2-inside-1_7084_5678" fill="white">
<path d="M7.04333 51.6331L16.7674 60L16.7674 89C16.7674 93.9706 20.7968 98 25.7674 98L213.035 98C218.005 98 222.035 93.9706 222.035 89V11C222.035 6.02944 218.005 2 213.035 2L25.7674 2C20.7968 2 16.7674 6.02944 16.7674 11L16.7674 39.5L7.15555 46.9931C5.66179 48.1575 5.60761 50.3978 7.04333 51.6331Z"/>
</mask>
<path d="M7.04333 51.6331L16.7674 60L16.7674 89C16.7674 93.9706 20.7968 98 25.7674 98L213.035 98C218.005 98 222.035 93.9706 222.035 89V11C222.035 6.02944 218.005 2 213.035 2L25.7674 2C20.7968 2 16.7674 6.02944 16.7674 11L16.7674 39.5L7.15555 46.9931C5.66179 48.1575 5.60761 50.3978 7.04333 51.6331Z" fill="white"/>
<path d="M16.7674 60H18.1674V59.3577L17.6805 58.9388L16.7674 60ZM7.04333 51.6331L6.13021 52.6944L6.13021 52.6944L7.04333 51.6331ZM7.15555 46.9931L6.2948 45.8889L6.2948 45.8889L7.15555 46.9931ZM16.7674 39.5L17.6281 40.6041L18.1674 40.1838V39.5H16.7674ZM25.7674 2V0.6V2ZM213.035 2V3.4V2ZM17.6805 58.9388L7.95644 50.5719L6.13021 52.6944L15.8542 61.0612L17.6805 58.9388ZM8.0163 48.0972L17.6281 40.6041L15.9066 38.3959L6.2948 45.8889L8.0163 48.0972ZM7.95644 50.5719C7.19073 49.9131 7.21963 48.7183 8.0163 48.0972L6.2948 45.8889C4.10396 47.5968 4.02449 50.8825 6.13021 52.6944L7.95644 50.5719ZM25.7674 3.4L213.035 3.4L213.035 0.600003L25.7674 0.6L25.7674 3.4ZM220.635 11V89H223.435V11H220.635ZM213.035 96.6L25.7674 96.6V99.4L213.035 99.4V96.6ZM18.1674 39.5L18.1674 11H15.3674L15.3674 39.5H18.1674ZM18.1674 89L18.1674 60H15.3674L15.3674 89H18.1674ZM25.7674 96.6C21.57 96.6 18.1674 93.1974 18.1674 89H15.3674C15.3674 94.7438 20.0236 99.4 25.7674 99.4V96.6ZM220.635 89C220.635 93.1974 217.232 96.6 213.035 96.6V99.4C218.778 99.4 223.435 94.7438 223.435 89H220.635ZM213.035 3.4C217.232 3.4 220.635 6.80264 220.635 11H223.435C223.435 5.25624 218.778 0.600003 213.035 0.600003V3.4ZM25.7674 0.6C20.0236 0.6 15.3674 5.25624 15.3674 11H18.1674C18.1674 6.80264 21.57 3.4 25.7674 3.4V0.6Z" fill="#333333" mask="url(#path-2-inside-1_7084_5678)"/>
</g>
<g filter="url(#filter1_d_7084_5678)">
<path d="M34.352 18.296C34.1387 18.296 33.9493 18.24 33.784 18.128C33.6187 18.016 33.488 17.864 33.392 17.672C33.296 17.48 33.248 17.2667 33.248 17.032C33.248 16.648 33.3733 16.272 33.624 15.904C33.88 15.5307 34.24 15.224 34.704 14.984L35.6 15.464C35.296 15.6133 35.0373 15.7867 34.824 15.984C34.616 16.1813 34.4747 16.4133 34.4 16.68C34.6507 16.7013 34.8533 16.7787 35.008 16.912C35.168 17.04 35.248 17.2187 35.248 17.448C35.248 17.6773 35.1653 17.8773 35 18.048C34.84 18.2133 34.624 18.296 34.352 18.296ZM31.68 18.296C31.4667 18.296 31.2773 18.24 31.112 18.128C30.9467 18.016 30.816 17.864 30.72 17.672C30.624 17.48 30.576 17.2667 30.576 17.032C30.576 16.648 30.7013 16.272 30.952 15.904C31.208 15.5307 31.568 15.224 32.032 14.984L32.928 15.464C32.624 15.6133 32.3653 15.7867 32.152 15.984C31.944 16.1813 31.8027 16.4133 31.728 16.68C31.9787 16.7013 32.1813 16.7787 32.336 16.912C32.496 17.04 32.576 17.2187 32.576 17.448C32.576 17.6773 32.4933 17.8773 32.328 18.048C32.168 18.2133 31.952 18.296 31.68 18.296ZM38.1979 25L38.1979 14.952L39.4459 14.952L39.4459 25L38.1979 25ZM48.2822 25L48.2822 20.504C48.2822 19.7733 48.1062 19.2187 47.7543 18.84C47.4076 18.456 46.9329 18.264 46.3302 18.264C45.8716 18.264 45.4742 18.3893 45.1382 18.64C44.8022 18.8907 44.5436 19.2507 44.3622 19.72C44.1809 20.184 44.0902 20.7387 44.0902 21.384L43.6102 21.384C43.6102 20.4933 43.7276 19.7333 43.9622 19.104C44.1969 18.4747 44.5382 17.9947 44.9862 17.664C45.4396 17.328 45.9889 17.16 46.6343 17.16C47.2369 17.16 47.7516 17.296 48.1782 17.568C48.6102 17.8347 48.9409 18.2187 49.1702 18.72C49.3996 19.2213 49.5142 19.816 49.5142 20.504L49.5142 25L48.2822 25ZM42.8422 25L42.8422 17.352L43.9142 17.352L44.0902 19.112L44.0902 25L42.8422 25ZM59.3834 25.192C58.6954 25.192 58.082 25.04 57.5434 24.736C57.01 24.432 56.5887 23.9813 56.2794 23.384C55.97 22.7867 55.8154 22.0507 55.8154 21.176C55.8154 20.296 55.97 19.56 56.2794 18.968C56.5887 18.3707 57.01 17.92 57.5434 17.616C58.082 17.312 58.6954 17.16 59.3834 17.16C60.066 17.16 60.674 17.312 61.2074 17.616C61.746 17.92 62.1674 18.3707 62.4714 18.968C62.7807 19.56 62.9354 20.296 62.9354 21.176C62.9354 22.0507 62.7807 22.7867 62.4714 23.384C62.1674 23.9813 61.746 24.432 61.2074 24.736C60.674 25.04 60.066 25.192 59.3834 25.192ZM59.3514 24.104C59.8474 24.104 60.2687 23.9867 60.6154 23.752C60.962 23.512 61.2234 23.1733 61.3994 22.736C61.5807 22.2987 61.6714 21.7787 61.6714 21.176C61.6714 20.264 61.482 19.5467 61.1034 19.024C60.7247 18.496 60.162 18.232 59.4154 18.232C58.914 18.232 58.49 18.352 58.1434 18.592C57.802 18.8267 57.5407 19.1653 57.3594 19.608C57.1834 20.0453 57.0954 20.568 57.0954 21.176C57.0954 22.0773 57.2847 22.792 57.6634 23.32C58.0474 23.8427 58.61 24.104 59.3514 24.104ZM65.5254 25L65.5254 17.336L66.7734 17.336L66.7734 25L65.5254 25ZM66.3894 21.544C66.3894 20.5733 66.4827 19.768 66.6694 19.128C66.856 18.4827 67.128 18.0027 67.4854 17.688C67.848 17.368 68.288 17.208 68.8054 17.208C68.976 17.208 69.1307 17.2213 69.2694 17.248C69.4134 17.2693 69.5574 17.304 69.7014 17.352L69.6214 18.584C69.472 18.536 69.3094 18.496 69.1334 18.464C68.9574 18.4267 68.8 18.408 68.6614 18.408C68.208 18.408 67.8427 18.5387 67.5654 18.8C67.288 19.056 67.0854 19.4187 66.9574 19.888C66.8347 20.3573 66.7734 20.9093 66.7734 21.544L66.3894 21.544ZM74.2026 25.192C73.584 25.192 73.016 25.0267 72.4986 24.696C71.9813 24.36 71.568 23.8907 71.2586 23.288C70.9493 22.68 70.7946 21.9653 70.7946 21.144C70.7946 20.328 70.9466 19.6213 71.2506 19.024C71.5546 18.4267 71.9573 17.968 72.4586 17.648C72.9653 17.3227 73.52 17.16 74.1226 17.16C74.6826 17.16 75.1733 17.296 75.5946 17.568C76.0213 17.84 76.352 18.232 76.5866 18.744C76.8213 19.256 76.9386 19.8747 76.9386 20.6L76.4586 20.6C76.4586 20.0933 76.3573 19.6667 76.1546 19.32C75.9573 18.9733 75.6986 18.712 75.3786 18.536C75.0586 18.3547 74.7146 18.264 74.3466 18.264C73.9306 18.264 73.5493 18.3813 73.2026 18.616C72.8613 18.8453 72.5866 19.176 72.3786 19.608C72.176 20.0347 72.0746 20.5467 72.0746 21.144C72.0746 21.752 72.176 22.2747 72.3786 22.712C72.5866 23.1493 72.8613 23.4853 73.2026 23.72C73.5493 23.9547 73.9306 24.072 74.3466 24.072C74.6933 24.072 75.0266 23.9813 75.3466 23.8C75.672 23.6187 75.9386 23.3547 76.1466 23.008C76.3546 22.656 76.4586 22.232 76.4586 21.736L76.9386 21.736C76.9386 22.4773 76.816 23.1067 76.5706 23.624C76.3306 24.136 76.0026 24.5253 75.5866 24.792C75.176 25.0587 74.7146 25.192 74.2026 25.192ZM76.6666 25L76.4586 23.208L76.4586 14.088L77.7066 14.088L77.7066 25L76.6666 25ZM83.767 25.192C83.1057 25.192 82.5137 25.024 81.991 24.688C81.4737 24.3467 81.063 23.8747 80.759 23.272C80.4603 22.6693 80.311 21.976 80.311 21.192C80.311 20.3547 80.4603 19.6347 80.759 19.032C81.0577 18.4293 81.4657 17.968 81.983 17.648C82.5057 17.3227 83.1003 17.16 83.767 17.16C84.3483 17.16 84.8443 17.2773 85.255 17.512C85.6657 17.7467 85.9963 18.064 86.247 18.464C86.4977 18.864 86.671 19.3173 86.767 19.824C86.8683 20.3253 86.8977 20.8453 86.855 21.384L81.319 21.384L81.319 20.616L86.031 20.616L85.663 20.856C85.679 20.5413 85.6603 20.2267 85.607 19.912C85.559 19.5973 85.4657 19.3093 85.327 19.048C85.1883 18.7813 84.9937 18.568 84.743 18.408C84.4923 18.248 84.1723 18.168 83.783 18.168C83.2923 18.168 82.8817 18.2933 82.551 18.544C82.2203 18.7947 81.9723 19.1253 81.807 19.536C81.6417 19.9413 81.559 20.3813 81.559 20.856L81.559 21.368C81.559 21.9013 81.639 22.3787 81.799 22.8C81.9643 23.2213 82.2097 23.5547 82.535 23.8C82.8603 24.0453 83.271 24.168 83.767 24.168C84.263 24.168 84.671 24.048 84.991 23.808C85.311 23.568 85.5057 23.2133 85.575 22.744L86.871 22.744C86.791 23.2507 86.6097 23.688 86.327 24.056C86.0443 24.4187 85.6843 24.6987 85.247 24.896C84.8097 25.0933 84.3163 25.192 83.767 25.192ZM89.4897 25L89.4897 17.336L90.7377 17.336L90.7377 25L89.4897 25ZM90.3537 21.544C90.3537 20.5733 90.4471 19.768 90.6337 19.128C90.8204 18.4827 91.0924 18.0027 91.4497 17.688C91.8124 17.368 92.2524 17.208 92.7697 17.208C92.9404 17.208 93.0951 17.2213 93.2337 17.248C93.3777 17.2693 93.5217 17.304 93.6657 17.352L93.5857 18.584C93.4364 18.536 93.2737 18.496 93.0977 18.464C92.9217 18.4267 92.7644 18.408 92.6257 18.408C92.1724 18.408 91.8071 18.5387 91.5297 18.8C91.2524 19.056 91.0497 19.4187 90.9217 19.888C90.7991 20.3573 90.7377 20.9093 90.7377 21.544L90.3537 21.544ZM101.74 25.192C101.324 25.192 100.951 25.112 100.62 24.952C100.289 24.792 100.028 24.552 99.8359 24.232C99.6439 23.912 99.5479 23.512 99.5479 23.032L99.5479 15.224L100.78 15.224L100.78 23C100.78 23.7893 101.148 24.184 101.884 24.184C102.103 24.184 102.313 24.16 102.516 24.112C102.724 24.064 102.956 23.992 103.212 23.896L103.388 24.792C103.116 24.9093 102.844 25.0053 102.572 25.08C102.305 25.1547 102.028 25.192 101.74 25.192ZM98.3159 18.216L98.3159 17.352L103.196 17.352L103.196 18.216L98.3159 18.216ZM108.332 25.192C107.644 25.192 107.03 25.04 106.492 24.736C105.958 24.432 105.537 23.9813 105.228 23.384C104.918 22.7867 104.764 22.0507 104.764 21.176C104.764 20.296 104.918 19.56 105.228 18.968C105.537 18.3707 105.958 17.92 106.492 17.616C107.03 17.312 107.644 17.16 108.332 17.16C109.014 17.16 109.622 17.312 110.156 17.616C110.694 17.92 111.116 18.3707 111.42 18.968C111.729 19.56 111.884 20.296 111.884 21.176C111.884 22.0507 111.729 22.7867 111.42 23.384C111.116 23.9813 110.694 24.432 110.156 24.736C109.622 25.04 109.014 25.192 108.332 25.192ZM108.3 24.104C108.796 24.104 109.217 23.9867 109.564 23.752C109.91 23.512 110.172 23.1733 110.348 22.736C110.529 22.2987 110.62 21.7787 110.62 21.176C110.62 20.264 110.43 19.5467 110.052 19.024C109.673 18.496 109.11 18.232 108.364 18.232C107.862 18.232 107.438 18.352 107.092 18.592C106.75 18.8267 106.489 19.1653 106.308 19.608C106.132 20.0453 106.044 20.568 106.044 21.176C106.044 22.0773 106.233 22.792 106.612 23.32C106.996 23.8427 107.558 24.104 108.3 24.104ZM121.902 25.192C121.342 25.192 120.854 25.064 120.438 24.808C120.028 24.552 119.71 24.1787 119.486 23.688C119.262 23.192 119.15 22.5893 119.15 21.88L119.678 21.88C119.678 22.3547 119.777 22.7547 119.974 23.08C120.172 23.4053 120.428 23.6533 120.742 23.824C121.062 23.9893 121.401 24.072 121.758 24.072C122.142 24.072 122.51 23.9627 122.862 23.744C123.214 23.52 123.502 23.192 123.726 22.76C123.95 22.328 124.062 21.7947 124.062 21.16C124.062 20.552 123.958 20.032 123.75 19.6C123.548 19.168 123.273 18.8373 122.926 18.608C122.58 18.3787 122.196 18.264 121.774 18.264C121.412 18.264 121.07 18.352 120.75 18.528C120.43 18.704 120.172 18.9627 119.974 19.304C119.777 19.64 119.678 20.056 119.678 20.552L119.15 20.552C119.15 19.8107 119.273 19.1893 119.518 18.688C119.764 18.1813 120.097 17.8 120.518 17.544C120.94 17.288 121.412 17.16 121.934 17.16C122.532 17.16 123.089 17.32 123.606 17.64C124.124 17.96 124.542 18.4187 124.862 19.016C125.182 19.6133 125.342 20.328 125.342 21.16C125.342 22.0027 125.18 22.7253 124.854 23.328C124.534 23.9307 124.113 24.392 123.59 24.712C123.068 25.032 122.505 25.192 121.902 25.192ZM118.43 28.76L118.43 17.352L119.47 17.352L119.678 19.144L119.678 28.76L118.43 28.76ZM127.95 25L127.95 17.336L129.198 17.336L129.198 25L127.95 25ZM128.814 21.544C128.814 20.5733 128.907 19.768 129.094 19.128C129.28 18.4827 129.552 18.0027 129.91 17.688C130.272 17.368 130.712 17.208 131.23 17.208C131.4 17.208 131.555 17.2213 131.694 17.248C131.838 17.2693 131.982 17.304 132.126 17.352L132.046 18.584C131.896 18.536 131.734 18.496 131.558 18.464C131.382 18.4267 131.224 18.408 131.086 18.408C130.632 18.408 130.267 18.5387 129.99 18.8C129.712 19.056 129.51 19.4187 129.382 19.888C129.259 20.3573 129.198 20.9093 129.198 21.544L128.814 21.544ZM136.547 25.192C135.886 25.192 135.294 25.024 134.771 24.688C134.254 24.3467 133.843 23.8747 133.539 23.272C133.24 22.6693 133.091 21.976 133.091 21.192C133.091 20.3547 133.24 19.6347 133.539 19.032C133.838 18.4293 134.246 17.968 134.763 17.648C135.286 17.3227 135.88 17.16 136.547 17.16C137.128 17.16 137.624 17.2773 138.035 17.512C138.446 17.7467 138.776 18.064 139.027 18.464C139.278 18.864 139.451 19.3173 139.547 19.824C139.648 20.3253 139.678 20.8453 139.635 21.384L134.099 21.384L134.099 20.616L138.811 20.616L138.443 20.856C138.459 20.5413 138.44 20.2267 138.387 19.912C138.339 19.5973 138.246 19.3093 138.107 19.048C137.968 18.7813 137.774 18.568 137.523 18.408C137.272 18.248 136.952 18.168 136.563 18.168C136.072 18.168 135.662 18.2933 135.331 18.544C135 18.7947 134.752 19.1253 134.587 19.536C134.422 19.9413 134.339 20.3813 134.339 20.856L134.339 21.368C134.339 21.9013 134.419 22.3787 134.579 22.8C134.744 23.2213 134.99 23.5547 135.315 23.8C135.64 24.0453 136.051 24.168 136.547 24.168C137.043 24.168 137.451 24.048 137.771 23.808C138.091 23.568 138.286 23.2133 138.355 22.744L139.651 22.744C139.571 23.2507 139.39 23.688 139.107 24.056C138.824 24.4187 138.464 24.6987 138.027 24.896C137.59 25.0933 137.096 25.192 136.547 25.192ZM145.742 25.192C145.182 25.192 144.694 25.064 144.278 24.808C143.867 24.552 143.55 24.1787 143.326 23.688C143.102 23.192 142.99 22.5893 142.99 21.88L143.518 21.88C143.518 22.3547 143.616 22.7547 143.814 23.08C144.011 23.4053 144.267 23.6533 144.582 23.824C144.902 23.9893 145.24 24.072 145.598 24.072C145.982 24.072 146.35 23.9627 146.702 23.744C147.054 23.52 147.342 23.192 147.566 22.76C147.79 22.328 147.902 21.7947 147.902 21.16C147.902 20.552 147.798 20.032 147.59 19.6C147.387 19.168 147.112 18.8373 146.766 18.608C146.419 18.3787 146.035 18.264 145.614 18.264C145.251 18.264 144.91 18.352 144.59 18.528C144.27 18.704 144.011 18.9627 143.814 19.304C143.616 19.64 143.518 20.056 143.518 20.552L142.99 20.552C142.99 19.8107 143.112 19.1893 143.358 18.688C143.603 18.1813 143.936 17.8 144.358 17.544C144.779 17.288 145.251 17.16 145.774 17.16C146.371 17.16 146.928 17.32 147.446 17.64C147.963 17.96 148.382 18.4187 148.702 19.016C149.022 19.6133 149.182 20.328 149.182 21.16C149.182 22.0027 149.019 22.7253 148.694 23.328C148.374 23.9307 147.952 24.392 147.43 24.712C146.907 25.032 146.344 25.192 145.742 25.192ZM142.27 28.76L142.27 17.352L143.31 17.352L143.518 19.144L143.518 28.76L142.27 28.76ZM156.525 25L156.365 23.32L156.365 20.04C156.365 19.352 156.218 18.8587 155.925 18.56C155.632 18.256 155.192 18.104 154.605 18.104C154.274 18.104 153.973 18.152 153.701 18.248C153.434 18.344 153.221 18.4933 153.061 18.696C152.906 18.8933 152.829 19.1493 152.829 19.464L151.437 19.464C151.437 18.9093 151.573 18.464 151.845 18.128C152.117 17.7867 152.49 17.5413 152.965 17.392C153.445 17.2373 153.992 17.16 154.605 17.16C155.192 17.16 155.712 17.2587 156.165 17.456C156.618 17.6533 156.973 17.968 157.229 18.4C157.485 18.8267 157.613 19.384 157.613 20.072L157.613 25L156.525 25ZM153.917 25.192C153.288 25.192 152.768 25.08 152.357 24.856C151.946 24.632 151.64 24.3413 151.437 23.984C151.234 23.6267 151.133 23.2507 151.133 22.856C151.133 22.3387 151.261 21.9173 151.517 21.592C151.778 21.2667 152.133 21.0293 152.581 20.88C153.029 20.7253 153.533 20.648 154.093 20.648C154.493 20.648 154.893 20.688 155.293 20.768C155.698 20.848 156.093 20.9573 156.477 21.096L156.477 21.88C156.157 21.752 155.794 21.6507 155.389 21.576C154.989 21.5013 154.621 21.464 154.285 21.464C153.773 21.464 153.341 21.5707 152.989 21.784C152.637 21.992 152.461 22.3493 152.461 22.856C152.461 23.2293 152.594 23.5493 152.861 23.816C153.133 24.0827 153.565 24.216 154.157 24.216C154.573 24.216 154.946 24.12 155.277 23.928C155.613 23.7307 155.877 23.4853 156.069 23.192C156.266 22.8987 156.365 22.6053 156.365 22.312L156.669 22.312C156.669 22.824 156.557 23.2987 156.333 23.736C156.114 24.1733 155.8 24.5253 155.389 24.792C154.978 25.0587 154.488 25.192 153.917 25.192ZM160.762 25L160.762 17.336L162.01 17.336L162.01 25L160.762 25ZM161.626 21.544C161.626 20.5733 161.719 19.768 161.906 19.128C162.092 18.4827 162.364 18.0027 162.722 17.688C163.084 17.368 163.524 17.208 164.042 17.208C164.212 17.208 164.367 17.2213 164.506 17.248C164.65 17.2693 164.794 17.304 164.938 17.352L164.858 18.584C164.708 18.536 164.546 18.496 164.37 18.464C164.194 18.4267 164.036 18.408 163.898 18.408C163.444 18.408 163.079 18.5387 162.802 18.8C162.524 19.056 162.322 19.4187 162.194 19.888C162.071 20.3573 162.01 20.9093 162.01 21.544L161.626 21.544ZM169.359 25.192C168.698 25.192 168.106 25.024 167.583 24.688C167.066 24.3467 166.655 23.8747 166.351 23.272C166.052 22.6693 165.903 21.976 165.903 21.192C165.903 20.3547 166.052 19.6347 166.351 19.032C166.65 18.4293 167.058 17.968 167.575 17.648C168.098 17.3227 168.692 17.16 169.359 17.16C169.94 17.16 170.436 17.2773 170.847 17.512C171.258 17.7467 171.588 18.064 171.839 18.464C172.09 18.864 172.263 19.3173 172.359 19.824C172.46 20.3253 172.49 20.8453 172.447 21.384L166.911 21.384L166.911 20.616L171.623 20.616L171.255 20.856C171.271 20.5413 171.252 20.2267 171.199 19.912C171.151 19.5973 171.058 19.3093 170.919 19.048C170.78 18.7813 170.586 18.568 170.335 18.408C170.084 18.248 169.764 18.168 169.375 18.168C168.884 18.168 168.474 18.2933 168.143 18.544C167.812 18.7947 167.564 19.1253 167.399 19.536C167.234 19.9413 167.151 20.3813 167.151 20.856L167.151 21.368C167.151 21.9013 167.231 22.3787 167.391 22.8C167.556 23.2213 167.802 23.5547 168.127 23.8C168.452 24.0453 168.863 24.168 169.359 24.168C169.855 24.168 170.263 24.048 170.583 23.808C170.903 23.568 171.098 23.2133 171.167 22.744L172.463 22.744C172.383 23.2507 172.202 23.688 171.919 24.056C171.636 24.4187 171.276 24.6987 170.839 24.896C170.402 25.0933 169.908 25.192 169.359 25.192ZM181.391 25.192C180.975 25.192 180.601 25.112 180.271 24.952C179.94 24.792 179.679 24.552 179.487 24.232C179.295 23.912 179.199 23.512 179.199 23.032L179.199 15.224L180.431 15.224L180.431 23C180.431 23.7893 180.799 24.184 181.535 24.184C181.753 24.184 181.964 24.16 182.167 24.112C182.375 24.064 182.607 23.992 182.863 23.896L183.039 24.792C182.767 24.9093 182.495 25.0053 182.223 25.08C181.956 25.1547 181.679 25.192 181.391 25.192ZM177.967 18.216L177.967 17.352L182.847 17.352L182.847 18.216L177.967 18.216ZM190.654 25L190.654 20.504C190.654 19.7733 190.478 19.2187 190.126 18.84C189.779 18.456 189.305 18.264 188.702 18.264C188.243 18.264 187.846 18.3893 187.51 18.64C187.174 18.8907 186.915 19.2507 186.734 19.72C186.553 20.184 186.462 20.7387 186.462 21.384L185.982 21.384C185.982 20.4933 186.099 19.7333 186.334 19.104C186.569 18.4747 186.91 17.9947 187.358 17.664C187.811 17.328 188.361 17.16 189.006 17.16C189.609 17.16 190.123 17.296 190.55 17.568C190.982 17.8347 191.313 18.2187 191.542 18.72C191.771 19.2213 191.886 19.816 191.886 20.504L191.886 25L190.654 25ZM185.214 25L185.214 14.088L186.462 14.088L186.462 25L185.214 25ZM197.686 25.192C197.025 25.192 196.433 25.024 195.91 24.688C195.393 24.3467 194.982 23.8747 194.678 23.272C194.38 22.6693 194.23 21.976 194.23 21.192C194.23 20.3547 194.38 19.6347 194.678 19.032C194.977 18.4293 195.385 17.968 195.902 17.648C196.425 17.3227 197.02 17.16 197.686 17.16C198.268 17.16 198.764 17.2773 199.174 17.512C199.585 17.7467 199.916 18.064 200.166 18.464C200.417 18.864 200.59 19.3173 200.686 19.824C200.788 20.3253 200.817 20.8453 200.774 21.384L195.238 21.384L195.238 20.616L199.95 20.616L199.582 20.856C199.598 20.5413 199.58 20.2267 199.526 19.912C199.478 19.5973 199.385 19.3093 199.246 19.048C199.108 18.7813 198.913 18.568 198.662 18.408C198.412 18.248 198.092 18.168 197.702 18.168C197.212 18.168 196.801 18.2933 196.47 18.544C196.14 18.7947 195.892 19.1253 195.726 19.536C195.561 19.9413 195.478 20.3813 195.478 20.856L195.478 21.368C195.478 21.9013 195.558 22.3787 195.718 22.8C195.884 23.2213 196.129 23.5547 196.454 23.8C196.78 24.0453 197.19 24.168 197.686 24.168C198.182 24.168 198.59 24.048 198.91 23.808C199.23 23.568 199.425 23.2133 199.494 22.744L200.79 22.744C200.71 23.2507 200.529 23.688 200.246 24.056C199.964 24.4187 199.604 24.6987 199.166 24.896C198.729 25.0933 198.236 25.192 197.686 25.192ZM34.304 45.192C33.6907 45.192 33.1173 45.0267 32.584 44.696C32.056 44.3653 31.6293 43.8987 31.304 43.296C30.9787 42.6933 30.816 41.9813 30.816 41.16C30.816 40.3173 30.9787 39.5973 31.304 39C31.6293 38.4027 32.056 37.9467 32.584 37.632C33.1173 37.3173 33.6907 37.16 34.304 37.16C34.736 37.16 35.1227 37.2267 35.464 37.36C35.8107 37.488 36.112 37.6667 36.368 37.896C36.624 38.1253 36.8347 38.3867 37 38.68C37.1707 38.968 37.296 39.272 37.376 39.592L36.096 39.704C35.9627 39.2613 35.7387 38.912 35.424 38.656C35.1147 38.3947 34.736 38.264 34.288 38.264C33.9093 38.264 33.552 38.3733 33.216 38.592C32.8853 38.8053 32.616 39.128 32.408 39.56C32.2 39.9867 32.096 40.52 32.096 41.16C32.096 41.752 32.1893 42.2667 32.376 42.704C32.568 43.136 32.8293 43.472 33.16 43.712C33.4907 43.952 33.8667 44.072 34.288 44.072C34.88 44.072 35.328 43.928 35.632 43.64C35.9413 43.3467 36.096 42.9413 36.096 42.424L37.376 42.424C37.376 42.9573 37.2507 43.432 37 43.848C36.7493 44.264 36.392 44.592 35.928 44.832C35.4693 45.072 34.928 45.192 34.304 45.192ZM44.762 45L44.602 43.32L44.602 40.04C44.602 39.352 44.4553 38.8587 44.162 38.56C43.8687 38.256 43.4287 38.104 42.842 38.104C42.5113 38.104 42.21 38.152 41.938 38.248C41.6713 38.344 41.458 38.4933 41.298 38.696C41.1433 38.8933 41.066 39.1493 41.066 39.464L39.674 39.464C39.674 38.9093 39.81 38.464 40.082 38.128C40.354 37.7867 40.7273 37.5413 41.202 37.392C41.682 37.2373 42.2287 37.16 42.842 37.16C43.4287 37.16 43.9487 37.2587 44.402 37.456C44.8553 37.6533 45.21 37.968 45.466 38.4C45.722 38.8267 45.85 39.384 45.85 40.072L45.85 45L44.762 45ZM42.154 45.192C41.5247 45.192 41.0047 45.08 40.594 44.856C40.1833 44.632 39.8767 44.3413 39.674 43.984C39.4713 43.6267 39.37 43.2507 39.37 42.856C39.37 42.3387 39.498 41.9173 39.754 41.592C40.0153 41.2667 40.37 41.0293 40.818 40.88C41.266 40.7253 41.77 40.648 42.33 40.648C42.73 40.648 43.13 40.688 43.53 40.768C43.9353 40.848 44.33 40.9573 44.714 41.096L44.714 41.88C44.394 41.752 44.0313 41.6507 43.626 41.576C43.226 41.5013 42.858 41.464 42.522 41.464C42.01 41.464 41.578 41.5707 41.226 41.784C40.874 41.992 40.698 42.3493 40.698 42.856C40.698 43.2293 40.8313 43.5493 41.098 43.816C41.37 44.0827 41.802 44.216 42.394 44.216C42.81 44.216 43.1833 44.12 43.514 43.928C43.85 43.7307 44.114 43.4853 44.306 43.192C44.5033 42.8987 44.602 42.6053 44.602 42.312L44.906 42.312C44.906 42.824 44.794 43.2987 44.57 43.736C44.3513 44.1733 44.0367 44.5253 43.626 44.792C43.2153 45.0587 42.7247 45.192 42.154 45.192ZM48.9985 45L48.9985 37.336L50.2465 37.336L50.2465 45L48.9985 45ZM49.8625 41.544C49.8625 40.5733 49.9558 39.768 50.1425 39.128C50.3292 38.4827 50.6012 38.0027 50.9585 37.688C51.3212 37.368 51.7612 37.208 52.2785 37.208C52.4492 37.208 52.6038 37.2213 52.7425 37.248C52.8865 37.2693 53.0305 37.304 53.1745 37.352L53.0945 38.584C52.9452 38.536 52.7825 38.496 52.6065 38.464C52.4305 38.4267 52.2732 38.408 52.1345 38.408C51.6812 38.408 51.3158 38.5387 51.0385 38.8C50.7612 39.056 50.5585 39.4187 50.4305 39.888C50.3078 40.3573 50.2465 40.9093 50.2465 41.544L49.8625 41.544ZM54.9397 45L54.9397 37.336L56.1877 37.336L56.1877 45L54.9397 45ZM55.8037 41.544C55.8037 40.5733 55.8971 39.768 56.0837 39.128C56.2704 38.4827 56.5424 38.0027 56.8997 37.688C57.2624 37.368 57.7024 37.208 58.2197 37.208C58.3904 37.208 58.5451 37.2213 58.6837 37.248C58.8277 37.2693 58.9717 37.304 59.1157 37.352L59.0357 38.584C58.8864 38.536 58.7237 38.496 58.5477 38.464C58.3717 38.4267 58.2144 38.408 58.0757 38.408C57.6224 38.408 57.2571 38.5387 56.9797 38.8C56.7024 39.056 56.4997 39.4187 56.3717 39.888C56.2491 40.3573 56.1877 40.9093 56.1877 41.544L55.8037 41.544ZM63.649 45.192C62.961 45.192 62.3477 45.04 61.809 44.736C61.2757 44.432 60.8543 43.9813 60.545 43.384C60.2357 42.7867 60.081 42.0507 60.081 41.176C60.081 40.296 60.2357 39.56 60.545 38.968C60.8543 38.3707 61.2757 37.92 61.809 37.616C62.3477 37.312 62.961 37.16 63.649 37.16C64.3317 37.16 64.9397 37.312 65.473 37.616C66.0117 37.92 66.433 38.3707 66.737 38.968C67.0463 39.56 67.201 40.296 67.201 41.176C67.201 42.0507 67.0463 42.7867 66.737 43.384C66.433 43.9813 66.0117 44.432 65.473 44.736C64.9397 45.04 64.3317 45.192 63.649 45.192ZM63.617 44.104C64.113 44.104 64.5343 43.9867 64.881 43.752C65.2277 43.512 65.489 43.1733 65.665 42.736C65.8463 42.2987 65.937 41.7787 65.937 41.176C65.937 40.264 65.7477 39.5467 65.369 39.024C64.9903 38.496 64.4277 38.232 63.681 38.232C63.1797 38.232 62.7557 38.352 62.409 38.592C62.0677 38.8267 61.8063 39.1653 61.625 39.608C61.449 40.0453 61.361 40.568 61.361 41.176C61.361 42.0773 61.5503 42.792 61.929 43.32C62.313 43.8427 62.8757 44.104 63.617 44.104ZM72.143 45.192C71.727 45.192 71.3537 45.112 71.023 44.952C70.6923 44.792 70.431 44.552 70.239 44.232C70.047 43.912 69.951 43.512 69.951 43.032L69.951 35.224L71.183 35.224L71.183 43C71.183 43.7893 71.551 44.184 72.287 44.184C72.5057 44.184 72.7163 44.16 72.919 44.112C73.127 44.064 73.359 43.992 73.615 43.896L73.791 44.792C73.519 44.9093 73.247 45.0053 72.975 45.08C72.7083 45.1547 72.431 45.192 72.143 45.192ZM68.719 38.216L68.719 37.352L73.599 37.352L73.599 38.216L68.719 38.216ZM82.6115 45.192C81.9982 45.192 81.4248 45.0267 80.8915 44.696C80.3635 44.3653 79.9368 43.8987 79.6115 43.296C79.2862 42.6933 79.1235 41.9813 79.1235 41.16C79.1235 40.3173 79.2862 39.5973 79.6115 39C79.9368 38.4027 80.3635 37.9467 80.8915 37.632C81.4248 37.3173 81.9982 37.16 82.6115 37.16C83.0435 37.16 83.4302 37.2267 83.7715 37.36C84.1182 37.488 84.4195 37.6667 84.6755 37.896C84.9315 38.1253 85.1422 38.3867 85.3075 38.68C85.4782 38.968 85.6035 39.272 85.6835 39.592L84.4035 39.704C84.2702 39.2613 84.0462 38.912 83.7315 38.656C83.4222 38.3947 83.0435 38.264 82.5955 38.264C82.2168 38.264 81.8595 38.3733 81.5235 38.592C81.1928 38.8053 80.9235 39.128 80.7155 39.56C80.5075 39.9867 80.4035 40.52 80.4035 41.16C80.4035 41.752 80.4968 42.2667 80.6835 42.704C80.8755 43.136 81.1368 43.472 81.4675 43.712C81.7982 43.952 82.1742 44.072 82.5955 44.072C83.1875 44.072 83.6355 43.928 83.9395 43.64C84.2488 43.3467 84.4035 42.9413 84.4035 42.424L85.6835 42.424C85.6835 42.9573 85.5582 43.432 85.3075 43.848C85.0568 44.264 84.6995 44.592 84.2355 44.832C83.7768 45.072 83.2355 45.192 82.6115 45.192ZM93.0695 45L92.9095 43.32L92.9095 40.04C92.9095 39.352 92.7628 38.8587 92.4695 38.56C92.1762 38.256 91.7362 38.104 91.1495 38.104C90.8188 38.104 90.5175 38.152 90.2455 38.248C89.9788 38.344 89.7655 38.4933 89.6055 38.696C89.4508 38.8933 89.3735 39.1493 89.3735 39.464L87.9815 39.464C87.9815 38.9093 88.1175 38.464 88.3895 38.128C88.6615 37.7867 89.0348 37.5413 89.5095 37.392C89.9895 37.2373 90.5362 37.16 91.1495 37.16C91.7362 37.16 92.2562 37.2587 92.7095 37.456C93.1628 37.6533 93.5175 37.968 93.7735 38.4C94.0295 38.8267 94.1575 39.384 94.1575 40.072L94.1575 45L93.0695 45ZM90.4615 45.192C89.8322 45.192 89.3122 45.08 88.9015 44.856C88.4908 44.632 88.1842 44.3413 87.9815 43.984C87.7788 43.6267 87.6775 43.2507 87.6775 42.856C87.6775 42.3387 87.8055 41.9173 88.0615 41.592C88.3228 41.2667 88.6775 41.0293 89.1255 40.88C89.5735 40.7253 90.0775 40.648 90.6375 40.648C91.0375 40.648 91.4375 40.688 91.8375 40.768C92.2428 40.848 92.6375 40.9573 93.0215 41.096L93.0215 41.88C92.7015 41.752 92.3388 41.6507 91.9335 41.576C91.5335 41.5013 91.1655 41.464 90.8295 41.464C90.3175 41.464 89.8855 41.5707 89.5335 41.784C89.1815 41.992 89.0055 42.3493 89.0055 42.856C89.0055 43.2293 89.1388 43.5493 89.4055 43.816C89.6775 44.0827 90.1095 44.216 90.7015 44.216C91.1175 44.216 91.4908 44.12 91.8215 43.928C92.1575 43.7307 92.4215 43.4853 92.6135 43.192C92.8108 42.8987 92.9095 42.6053 92.9095 42.312L93.2135 42.312C93.2135 42.824 93.1015 43.2987 92.8775 43.736C92.6588 44.1733 92.3442 44.5253 91.9335 44.792C91.5228 45.0587 91.0322 45.192 90.4615 45.192ZM97.306 45L97.306 34.088L98.554 34.088L98.554 45L97.306 45ZM98.362 40.616L102.266 37.352L104.01 37.352L98.362 41.944L98.362 40.616ZM102.65 45L99.018 40.168L100.282 39.944L104.186 45L102.65 45ZM109.138 45.192C108.476 45.192 107.884 45.024 107.362 44.688C106.844 44.3467 106.434 43.8747 106.13 43.272C105.831 42.6693 105.682 41.976 105.682 41.192C105.682 40.3547 105.831 39.6347 106.13 39.032C106.428 38.4293 106.836 37.968 107.354 37.648C107.876 37.3227 108.471 37.16 109.138 37.16C109.719 37.16 110.215 37.2773 110.626 37.512C111.036 37.7467 111.367 38.064 111.618 38.464C111.868 38.864 112.042 39.3173 112.138 39.824C112.239 40.3253 112.268 40.8453 112.226 41.384L106.69 41.384L106.69 40.616L111.402 40.616L111.034 40.856C111.05 40.5413 111.031 40.2267 110.978 39.912C110.93 39.5973 110.836 39.3093 110.698 39.048C110.559 38.7813 110.364 38.568 110.114 38.408C109.863 38.248 109.543 38.168 109.154 38.168C108.663 38.168 108.252 38.2933 107.922 38.544C107.591 38.7947 107.343 39.1253 107.178 39.536C107.012 39.9413 106.93 40.3813 106.93 40.856L106.93 41.368C106.93 41.9013 107.01 42.3787 107.17 42.8C107.335 43.2213 107.58 43.5547 107.906 43.8C108.231 44.0453 108.642 44.168 109.138 44.168C109.634 44.168 110.042 44.048 110.362 43.808C110.682 43.568 110.876 43.2133 110.946 42.744L112.242 42.744C112.162 43.2507 111.98 43.688 111.698 44.056C111.415 44.4187 111.055 44.6987 110.618 44.896C110.18 45.0933 109.687 45.192 109.138 45.192ZM121.505 45.192C120.892 45.192 120.319 45.0267 119.785 44.696C119.257 44.3653 118.831 43.8987 118.505 43.296C118.18 42.6933 118.017 41.9813 118.017 41.16C118.017 40.3173 118.18 39.5973 118.505 39C118.831 38.4027 119.257 37.9467 119.785 37.632C120.319 37.3173 120.892 37.16 121.505 37.16C121.937 37.16 122.324 37.2267 122.665 37.36C123.012 37.488 123.313 37.6667 123.569 37.896C123.825 38.1253 124.036 38.3867 124.201 38.68C124.372 38.968 124.497 39.272 124.577 39.592L123.297 39.704C123.164 39.2613 122.94 38.912 122.625 38.656C122.316 38.3947 121.937 38.264 121.489 38.264C121.111 38.264 120.753 38.3733 120.417 38.592C120.087 38.8053 119.817 39.128 119.609 39.56C119.401 39.9867 119.297 40.52 119.297 41.16C119.297 41.752 119.391 42.2667 119.577 42.704C119.769 43.136 120.031 43.472 120.361 43.712C120.692 43.952 121.068 44.072 121.489 44.072C122.081 44.072 122.529 43.928 122.833 43.64C123.143 43.3467 123.297 42.9413 123.297 42.424L124.577 42.424C124.577 42.9573 124.452 43.432 124.201 43.848C123.951 44.264 123.593 44.592 123.129 44.832C122.671 45.072 122.129 45.192 121.505 45.192ZM129.995 45.192C129.307 45.192 128.694 45.04 128.155 44.736C127.622 44.432 127.201 43.9813 126.891 43.384C126.582 42.7867 126.427 42.0507 126.427 41.176C126.427 40.296 126.582 39.56 126.891 38.968C127.201 38.3707 127.622 37.92 128.155 37.616C128.694 37.312 129.307 37.16 129.995 37.16C130.678 37.16 131.286 37.312 131.819 37.616C132.358 37.92 132.779 38.3707 133.083 38.968C133.393 39.56 133.547 40.296 133.547 41.176C133.547 42.0507 133.393 42.7867 133.083 43.384C132.779 43.9813 132.358 44.432 131.819 44.736C131.286 45.04 130.678 45.192 129.995 45.192ZM129.963 44.104C130.459 44.104 130.881 43.9867 131.227 43.752C131.574 43.512 131.835 43.1733 132.011 42.736C132.193 42.2987 132.283 41.7787 132.283 41.176C132.283 40.264 132.094 39.5467 131.715 39.024C131.337 38.496 130.774 38.232 130.027 38.232C129.526 38.232 129.102 38.352 128.755 38.592C128.414 38.8267 128.153 39.1653 127.971 39.608C127.795 40.0453 127.707 40.568 127.707 41.176C127.707 42.0773 127.897 42.792 128.275 43.32C128.659 43.8427 129.222 44.104 129.963 44.104ZM140.873 45L140.713 43.32L140.713 40.04C140.713 39.352 140.567 38.8587 140.273 38.56C139.98 38.256 139.54 38.104 138.953 38.104C138.623 38.104 138.321 38.152 138.049 38.248C137.783 38.344 137.569 38.4933 137.409 38.696C137.255 38.8933 137.177 39.1493 137.177 39.464L135.785 39.464C135.785 38.9093 135.921 38.464 136.193 38.128C136.465 37.7867 136.839 37.5413 137.313 37.392C137.793 37.2373 138.34 37.16 138.953 37.16C139.54 37.16 140.06 37.2587 140.513 37.456C140.967 37.6533 141.321 37.968 141.577 38.4C141.833 38.8267 141.961 39.384 141.961 40.072L141.961 45L140.873 45ZM138.265 45.192C137.636 45.192 137.116 45.08 136.705 44.856C136.295 44.632 135.988 44.3413 135.785 43.984C135.583 43.6267 135.481 43.2507 135.481 42.856C135.481 42.3387 135.609 41.9173 135.865 41.592C136.127 41.2667 136.481 41.0293 136.929 40.88C137.377 40.7253 137.881 40.648 138.441 40.648C138.841 40.648 139.241 40.688 139.641 40.768C140.047 40.848 140.441 40.9573 140.825 41.096L140.825 41.88C140.505 41.752 140.143 41.6507 139.737 41.576C139.337 41.5013 138.969 41.464 138.633 41.464C138.121 41.464 137.689 41.5707 137.337 41.784C136.985 41.992 136.809 42.3493 136.809 42.856C136.809 43.2293 136.943 43.5493 137.209 43.816C137.481 44.0827 137.913 44.216 138.505 44.216C138.921 44.216 139.295 44.12 139.625 43.928C139.961 43.7307 140.225 43.4853 140.417 43.192C140.615 42.8987 140.713 42.6053 140.713 42.312L141.017 42.312C141.017 42.824 140.905 43.2987 140.681 43.736C140.463 44.1733 140.148 44.5253 139.737 44.792C139.327 45.0587 138.836 45.192 138.265 45.192ZM147.462 45.192C147.046 45.192 146.672 45.112 146.342 44.952C146.011 44.792 145.75 44.552 145.558 44.232C145.366 43.912 145.27 43.512 145.27 43.032L145.27 35.224L146.502 35.224L146.502 43C146.502 43.7893 146.87 44.184 147.606 44.184C147.824 44.184 148.035 44.16 148.238 44.112C148.446 44.064 148.678 43.992 148.934 43.896L149.11 44.792C148.838 44.9093 148.566 45.0053 148.294 45.08C148.027 45.1547 147.75 45.192 147.462 45.192ZM144.038 38.216L144.038 37.352L148.918 37.352L148.918 38.216L144.038 38.216ZM151.989 35.544C151.733 35.544 151.531 35.472 151.381 35.328C151.232 35.1787 151.157 34.984 151.157 34.744C151.157 34.5093 151.232 34.3227 151.381 34.184C151.531 34.0453 151.733 33.976 151.989 33.976C152.245 33.976 152.448 34.0453 152.597 34.184C152.747 34.3227 152.821 34.5093 152.821 34.744C152.821 34.984 152.747 35.1787 152.597 35.328C152.448 35.472 152.245 35.544 151.989 35.544ZM151.365 45L151.365 37.336L152.613 37.336L152.613 45L151.365 45ZM161.651 45L161.651 40.504C161.651 39.7733 161.475 39.2187 161.123 38.84C160.776 38.456 160.302 38.264 159.699 38.264C159.24 38.264 158.843 38.3893 158.507 38.64C158.171 38.8907 157.912 39.2507 157.731 39.72C157.55 40.184 157.459 40.7387 157.459 41.384L156.979 41.384C156.979 40.4933 157.096 39.7333 157.331 39.104C157.566 38.4747 157.907 37.9947 158.355 37.664C158.808 37.328 159.358 37.16 160.003 37.16C160.606 37.16 161.12 37.296 161.547 37.568C161.979 37.8347 162.31 38.2187 162.539 38.72C162.768 39.2213 162.883 39.816 162.883 40.504L162.883 45L161.651 45ZM156.211 45L156.211 37.352L157.283 37.352L157.459 39.112L157.459 45L156.211 45ZM168.731 48.936C167.947 48.936 167.267 48.824 166.691 48.6C166.115 48.3813 165.667 48.0853 165.347 47.712C165.033 47.344 164.875 46.936 164.875 46.488C164.875 45.896 165.091 45.4427 165.523 45.128C165.961 44.8187 166.523 44.664 167.211 44.664L167.899 45.096C167.323 45.096 166.878 45.216 166.563 45.456C166.249 45.696 166.091 46.024 166.091 46.44C166.091 46.856 166.315 47.208 166.763 47.496C167.211 47.784 167.867 47.928 168.731 47.928C169.371 47.928 169.931 47.8347 170.411 47.648C170.897 47.4667 171.273 47.2267 171.539 46.928C171.811 46.6347 171.947 46.3173 171.947 45.976C171.947 45.736 171.859 45.528 171.683 45.352C171.507 45.1813 171.238 45.096 170.875 45.096L167.899 45.096C167.382 45.096 166.934 45.0187 166.555 44.864C166.182 44.704 165.894 44.496 165.691 44.24C165.489 43.984 165.387 43.704 165.387 43.4C165.387 43.08 165.478 42.808 165.659 42.584C165.841 42.36 166.075 42.1893 166.363 42.072C166.657 41.9547 166.971 41.896 167.307 41.896L167.547 42.36C167.387 42.36 167.225 42.3973 167.059 42.472C166.899 42.5413 166.763 42.648 166.651 42.792C166.545 42.9307 166.491 43.1067 166.491 43.32C166.491 43.5653 166.593 43.7707 166.795 43.936C166.998 44.1013 167.366 44.184 167.899 44.184L170.875 44.184C171.595 44.184 172.161 44.336 172.571 44.64C172.987 44.944 173.195 45.368 173.195 45.912C173.195 46.4133 173.017 46.8933 172.659 47.352C172.302 47.816 171.79 48.1947 171.123 48.488C170.457 48.7867 169.659 48.936 168.731 48.936ZM168.955 42.76C168.369 42.76 167.838 42.6427 167.363 42.408C166.894 42.1733 166.521 41.8453 166.243 41.424C165.971 41.0027 165.835 40.5147 165.835 39.96C165.835 39.4 165.971 38.9093 166.243 38.488C166.521 38.0667 166.894 37.7413 167.363 37.512C167.838 37.2773 168.369 37.16 168.955 37.16C169.526 37.16 170.043 37.2773 170.507 37.512C170.977 37.7413 171.35 38.0667 171.627 38.488C171.905 38.9093 172.043 39.4 172.043 39.96C172.043 40.5147 171.905 41.0027 171.627 41.424C171.35 41.8453 170.977 42.1733 170.507 42.408C170.043 42.6427 169.526 42.76 168.955 42.76ZM168.955 41.864C169.542 41.864 169.998 41.6827 170.323 41.32C170.649 40.9573 170.811 40.504 170.811 39.96C170.811 39.4 170.649 38.9467 170.323 38.6C169.998 38.248 169.542 38.072 168.955 38.072C168.374 38.072 167.915 38.248 167.579 38.6C167.249 38.9467 167.083 39.4 167.083 39.96C167.083 40.504 167.249 40.9573 167.579 41.32C167.915 41.6827 168.374 41.864 168.955 41.864ZM171.467 38.376L170.875 38.136C170.875 37.688 170.963 37.296 171.139 36.96C171.315 36.6187 171.566 36.3547 171.891 36.168C172.217 35.976 172.603 35.88 173.051 35.88L172.955 37.112C172.475 37.112 172.107 37.216 171.851 37.424C171.595 37.6267 171.467 37.944 171.467 38.376ZM175.026 46.744L174.082 46.28C174.386 46.1253 174.642 45.9547 174.85 45.768C175.064 45.5813 175.202 45.352 175.266 45.08C175.037 45.0533 174.84 44.9707 174.674 44.832C174.514 44.6933 174.434 44.5093 174.434 44.28C174.434 44.056 174.517 43.864 174.682 43.704C174.853 43.544 175.069 43.464 175.33 43.464C175.661 43.464 175.928 43.584 176.13 43.824C176.333 44.064 176.434 44.3493 176.434 44.68C176.434 45.0693 176.314 45.4507 176.074 45.824C175.84 46.2027 175.49 46.5093 175.026 46.744ZM185.431 45.192C184.69 45.192 184.071 45.088 183.575 44.88C183.079 44.6667 182.703 44.376 182.447 44.008C182.191 43.6347 182.055 43.208 182.039 42.728L183.239 42.728C183.266 43.2133 183.46 43.5787 183.823 43.824C184.191 44.064 184.69 44.184 185.319 44.184C185.65 44.184 185.954 44.1307 186.231 44.024C186.508 43.9173 186.73 43.7707 186.895 43.584C187.06 43.3973 187.143 43.1867 187.143 42.952C187.143 42.6533 187.034 42.4187 186.815 42.248C186.596 42.0773 186.247 41.928 185.767 41.8L184.279 41.32C183.634 41.1173 183.138 40.84 182.791 40.488C182.45 40.1307 182.279 39.704 182.279 39.208C182.279 38.5893 182.551 38.0933 183.095 37.72C183.639 37.3467 184.354 37.16 185.239 37.16C186.178 37.16 186.906 37.352 187.423 37.736C187.94 38.12 188.21 38.6 188.231 39.176L186.999 39.176C186.951 38.84 186.78 38.5867 186.487 38.416C186.194 38.24 185.778 38.152 185.239 38.152C184.722 38.152 184.316 38.2693 184.023 38.504C183.735 38.7333 183.591 38.9893 183.591 39.272C183.591 39.8 184.044 40.1893 184.951 40.44L186.471 40.952C187.127 41.1493 187.628 41.408 187.975 41.728C188.327 42.048 188.503 42.456 188.503 42.952C188.503 43.336 188.378 43.6987 188.127 44.04C187.876 44.3813 187.522 44.6587 187.063 44.872C186.604 45.0853 186.06 45.192 185.431 45.192ZM193.901 45.192C193.24 45.192 192.648 45.024 192.125 44.688C191.608 44.3467 191.197 43.8747 190.893 43.272C190.595 42.6693 190.445 41.976 190.445 41.192C190.445 40.3547 190.595 39.6347 190.893 39.032C191.192 38.4293 191.6 37.968 192.117 37.648C192.64 37.3227 193.235 37.16 193.901 37.16C194.483 37.16 194.979 37.2773 195.389 37.512C195.8 37.7467 196.131 38.064 196.381 38.464C196.632 38.864 196.805 39.3173 196.901 39.824C197.003 40.3253 197.032 40.8453 196.989 41.384L191.453 41.384L191.453 40.616L196.165 40.616L195.797 40.856C195.813 40.5413 195.795 40.2267 195.741 39.912C195.693 39.5973 195.6 39.3093 195.461 39.048C195.323 38.7813 195.128 38.568 194.877 38.408C194.627 38.248 194.307 38.168 193.917 38.168C193.427 38.168 193.016 38.2933 192.685 38.544C192.355 38.7947 192.107 39.1253 191.941 39.536C191.776 39.9413 191.693 40.3813 191.693 40.856L191.693 41.368C191.693 41.9013 191.773 42.3787 191.933 42.8C192.099 43.2213 192.344 43.5547 192.669 43.8C192.995 44.0453 193.405 44.168 193.901 44.168C194.397 44.168 194.805 44.048 195.125 43.808C195.445 43.568 195.64 43.2133 195.709 42.744L197.005 42.744C196.925 43.2507 196.744 43.688 196.461 44.056C196.179 44.4187 195.819 44.6987 195.381 44.896C194.944 45.0933 194.451 45.192 193.901 45.192ZM202.28 45.192C201.619 45.192 201.027 45.024 200.504 44.688C199.987 44.3467 199.576 43.8747 199.272 43.272C198.973 42.6693 198.824 41.976 198.824 41.192C198.824 40.3547 198.973 39.6347 199.272 39.032C199.571 38.4293 199.979 37.968 200.496 37.648C201.019 37.3227 201.613 37.16 202.28 37.16C202.861 37.16 203.357 37.2773 203.768 37.512C204.179 37.7467 204.509 38.064 204.76 38.464C205.011 38.864 205.184 39.3173 205.28 39.824C205.381 40.3253 205.411 40.8453 205.368 41.384L199.832 41.384L199.832 40.616L204.544 40.616L204.176 40.856C204.192 40.5413 204.173 40.2267 204.12 39.912C204.072 39.5973 203.979 39.3093 203.84 39.048C203.701 38.7813 203.507 38.568 203.256 38.408C203.005 38.248 202.685 38.168 202.296 38.168C201.805 38.168 201.395 38.2933 201.064 38.544C200.733 38.7947 200.485 39.1253 200.32 39.536C200.155 39.9413 200.072 40.3813 200.072 40.856L200.072 41.368C200.072 41.9013 200.152 42.3787 200.312 42.8C200.477 43.2213 200.723 43.5547 201.048 43.8C201.373 44.0453 201.784 44.168 202.28 44.168C202.776 44.168 203.184 44.048 203.504 43.808C203.824 43.568 204.019 43.2133 204.088 42.744L205.384 42.744C205.304 43.2507 205.123 43.688 204.84 44.056C204.557 44.4187 204.197 44.6987 203.76 44.896C203.323 45.0933 202.829 45.192 202.28 45.192ZM33.968 65.192C33.552 65.192 33.1787 65.112 32.848 64.952C32.5173 64.792 32.256 64.552 32.064 64.232C31.872 63.912 31.776 63.512 31.776 63.032L31.776 55.224L33.008 55.224L33.008 63C33.008 63.7893 33.376 64.184 34.112 64.184C34.3307 64.184 34.5413 64.16 34.744 64.112C34.952 64.064 35.184 63.992 35.44 63.896L35.616 64.792C35.344 64.9093 35.072 65.0053 34.8 65.08C34.5333 65.1547 34.256 65.192 33.968 65.192ZM30.544 58.216L30.544 57.352L35.424 57.352L35.424 58.216L30.544 58.216ZM43.2316 65L43.2316 60.504C43.2316 59.7733 43.0556 59.2187 42.7036 58.84C42.357 58.456 41.8823 58.264 41.2796 58.264C40.821 58.264 40.4236 58.3893 40.0876 58.64C39.7516 58.8907 39.493 59.2507 39.3116 59.72C39.1303 60.184 39.0396 60.7387 39.0396 61.384L38.5596 61.384C38.5596 60.4933 38.677 59.7333 38.9116 59.104C39.1463 58.4747 39.4876 57.9947 39.9356 57.664C40.389 57.328 40.9383 57.16 41.5836 57.16C42.1863 57.16 42.701 57.296 43.1276 57.568C43.5596 57.8347 43.8903 58.2187 44.1196 58.72C44.349 59.2213 44.4636 59.816 44.4636 60.504L44.4636 65L43.2316 65ZM37.7916 65L37.7916 54.088L39.0396 54.088L39.0396 65L37.7916 65ZM50.2639 65.192C49.6025 65.192 49.0105 65.024 48.4879 64.688C47.9705 64.3467 47.5599 63.8747 47.2559 63.272C46.9572 62.6693 46.8079 61.976 46.8079 61.192C46.8079 60.3547 46.9572 59.6347 47.2559 59.032C47.5545 58.4293 47.9625 57.968 48.4799 57.648C49.0025 57.3227 49.5972 57.16 50.2639 57.16C50.8452 57.16 51.3412 57.2773 51.7519 57.512C52.1625 57.7467 52.4932 58.064 52.7439 58.464C52.9945 58.864 53.1679 59.3173 53.2639 59.824C53.3652 60.3253 53.3945 60.8453 53.3519 61.384L47.8159 61.384L47.8159 60.616L52.5279 60.616L52.1599 60.856C52.1759 60.5413 52.1572 60.2267 52.1039 59.912C52.0559 59.5973 51.9625 59.3093 51.8239 59.048C51.6852 58.7813 51.4905 58.568 51.2399 58.408C50.9892 58.248 50.6692 58.168 50.2799 58.168C49.7892 58.168 49.3785 58.2933 49.0479 58.544C48.7172 58.7947 48.4692 59.1253 48.3039 59.536C48.1385 59.9413 48.0559 60.3813 48.0559 60.856L48.0559 61.368C48.0559 61.9013 48.1359 62.3787 48.2959 62.8C48.4612 63.2213 48.7065 63.5547 49.0319 63.8C49.3572 64.0453 49.7679 64.168 50.2639 64.168C50.7599 64.168 51.1679 64.048 51.4879 63.808C51.8079 63.568 52.0025 63.2133 52.0719 62.744L53.3679 62.744C53.2879 63.2507 53.1065 63.688 52.8239 64.056C52.5412 64.4187 52.1812 64.6987 51.7439 64.896C51.3065 65.0933 50.8132 65.192 50.2639 65.192ZM60.6475 55.544C60.3915 55.544 60.1888 55.472 60.0395 55.328C59.8902 55.1787 59.8155 54.984 59.8155 54.744C59.8155 54.5093 59.8902 54.3227 60.0395 54.184C60.1888 54.0453 60.3915 53.976 60.6475 53.976C60.9035 53.976 61.1062 54.0453 61.2555 54.184C61.4048 54.3227 61.4795 54.5093 61.4795 54.744C61.4795 54.984 61.4048 55.1787 61.2555 55.328C61.1062 55.472 60.9035 55.544 60.6475 55.544ZM60.0235 65L60.0235 57.336L61.2715 57.336L61.2715 65L60.0235 65ZM70.3091 65L70.3091 60.504C70.3091 59.7733 70.1331 59.2187 69.7811 58.84C69.4345 58.456 68.9598 58.264 68.3571 58.264C67.8985 58.264 67.5011 58.3893 67.1651 58.64C66.8291 58.8907 66.5705 59.2507 66.3891 59.72C66.2078 60.184 66.1171 60.7387 66.1171 61.384L65.6371 61.384C65.6371 60.4933 65.7545 59.7333 65.9891 59.104C66.2238 58.4747 66.5651 57.9947 67.0131 57.664C67.4665 57.328 68.0158 57.16 68.6611 57.16C69.2638 57.16 69.7785 57.296 70.2051 57.568C70.6371 57.8347 70.9678 58.2187 71.1971 58.72C71.4265 59.2213 71.5411 59.816 71.5411 60.504L71.5411 65L70.3091 65ZM64.8691 65L64.8691 57.352L65.9411 57.352L66.1171 59.112L66.1171 65L64.8691 65ZM77.4374 65.192C76.696 65.192 76.0774 65.088 75.5814 64.88C75.0854 64.6667 74.7094 64.376 74.4534 64.008C74.1974 63.6347 74.0614 63.208 74.0454 62.728L75.2454 62.728C75.272 63.2133 75.4667 63.5787 75.8294 63.824C76.1974 64.064 76.696 64.184 77.3254 64.184C77.656 64.184 77.96 64.1307 78.2374 64.024C78.5147 63.9173 78.736 63.7707 78.9014 63.584C79.0667 63.3973 79.1494 63.1867 79.1494 62.952C79.1494 62.6533 79.04 62.4187 78.8214 62.248C78.6027 62.0773 78.2534 61.928 77.7734 61.8L76.2854 61.32C75.64 61.1173 75.144 60.84 74.7974 60.488C74.456 60.1307 74.2854 59.704 74.2854 59.208C74.2854 58.5893 74.5574 58.0933 75.1014 57.72C75.6454 57.3467 76.36 57.16 77.2454 57.16C78.184 57.16 78.912 57.352 79.4294 57.736C79.9467 58.12 80.216 58.6 80.2374 59.176L79.0054 59.176C78.9574 58.84 78.7867 58.5867 78.4934 58.416C78.2 58.24 77.784 58.152 77.2454 58.152C76.728 58.152 76.3227 58.2693 76.0294 58.504C75.7414 58.7333 75.5974 58.9893 75.5974 59.272C75.5974 59.8 76.0507 60.1893 76.9574 60.44L78.4774 60.952C79.1334 61.1493 79.6347 61.408 79.9814 61.728C80.3334 62.048 80.5094 62.456 80.5094 62.952C80.5094 63.336 80.384 63.6987 80.1334 64.04C79.8827 64.3813 79.528 64.6587 79.0694 64.872C78.6107 65.0853 78.0667 65.192 77.4374 65.192ZM85.6036 65.192C85.1876 65.192 84.8143 65.112 84.4836 64.952C84.153 64.792 83.8916 64.552 83.6996 64.232C83.5076 63.912 83.4116 63.512 83.4116 63.032L83.4116 55.224L84.6436 55.224L84.6436 63C84.6436 63.7893 85.0116 64.184 85.7476 64.184C85.9663 64.184 86.177 64.16 86.3796 64.112C86.5876 64.064 86.8196 63.992 87.0756 63.896L87.2516 64.792C86.9796 64.9093 86.7076 65.0053 86.4356 65.08C86.169 65.1547 85.8916 65.192 85.6036 65.192ZM82.1796 58.216L82.1796 57.352L87.0596 57.352L87.0596 58.216L82.1796 58.216ZM89.4272 65L89.4272 57.336L90.6752 57.336L90.6752 65L89.4272 65ZM90.2912 61.544C90.2912 60.5733 90.3846 59.768 90.5712 59.128C90.7579 58.4827 91.0299 58.0027 91.3872 57.688C91.7499 57.368 92.1899 57.208 92.7072 57.208C92.8779 57.208 93.0326 57.2213 93.1712 57.248C93.3152 57.2693 93.4592 57.304 93.6032 57.352L93.5232 58.584C93.3739 58.536 93.2112 58.496 93.0352 58.464C92.8592 58.4267 92.7019 58.408 92.5632 58.408C92.1099 58.408 91.7446 58.5387 91.4672 58.8C91.1899 59.056 90.9872 59.4187 90.8592 59.888C90.7366 60.3573 90.6752 60.9093 90.6752 61.544L90.2912 61.544ZM100.568 57.336L101.816 57.336L101.816 65L100.568 65L100.568 57.336ZM95.1445 57.336L96.3925 57.336L96.3925 62.104C96.3925 62.744 96.5472 63.2293 96.8565 63.56C97.1712 63.8907 97.6192 64.056 98.2005 64.056C98.6805 64.056 99.0965 63.928 99.4485 63.672C99.8058 63.416 100.08 63.064 100.272 62.616C100.47 62.1627 100.568 61.6453 100.568 61.064L101.032 61.064C101.032 61.9227 100.907 62.656 100.656 63.264C100.411 63.872 100.062 64.3387 99.6085 64.664C99.1605 64.984 98.6325 65.144 98.0245 65.144C97.4485 65.144 96.9445 65.0373 96.5125 64.824C96.0805 64.6107 95.7445 64.288 95.5045 63.856C95.2645 63.4187 95.1445 62.8667 95.1445 62.2L95.1445 57.336ZM107.904 65.192C107.291 65.192 106.717 65.0267 106.184 64.696C105.656 64.3653 105.229 63.8987 104.904 63.296C104.579 62.6933 104.416 61.9813 104.416 61.16C104.416 60.3173 104.579 59.5973 104.904 59C105.229 58.4027 105.656 57.9467 106.184 57.632C106.717 57.3173 107.291 57.16 107.904 57.16C108.336 57.16 108.723 57.2267 109.064 57.36C109.411 57.488 109.712 57.6667 109.968 57.896C110.224 58.1253 110.435 58.3867 110.6 58.68C110.771 58.968 110.896 59.272 110.976 59.592L109.696 59.704C109.563 59.2613 109.339 58.912 109.024 58.656C108.715 58.3947 108.336 58.264 107.888 58.264C107.509 58.264 107.152 58.3733 106.816 58.592C106.485 58.8053 106.216 59.128 106.008 59.56C105.8 59.9867 105.696 60.52 105.696 61.16C105.696 61.752 105.789 62.2667 105.976 62.704C106.168 63.136 106.429 63.472 106.76 63.712C107.091 63.952 107.467 64.072 107.888 64.072C108.48 64.072 108.928 63.928 109.232 63.64C109.541 63.3467 109.696 62.9413 109.696 62.424L110.976 62.424C110.976 62.9573 110.851 63.432 110.6 63.848C110.349 64.264 109.992 64.592 109.528 64.832C109.069 65.072 108.528 65.192 107.904 65.192ZM115.978 65.192C115.562 65.192 115.189 65.112 114.858 64.952C114.527 64.792 114.266 64.552 114.074 64.232C113.882 63.912 113.786 63.512 113.786 63.032L113.786 55.224L115.018 55.224L115.018 63C115.018 63.7893 115.386 64.184 116.122 64.184C116.341 64.184 116.551 64.16 116.754 64.112C116.962 64.064 117.194 63.992 117.45 63.896L117.626 64.792C117.354 64.9093 117.082 65.0053 116.81 65.08C116.543 65.1547 116.266 65.192 115.978 65.192ZM112.554 58.216L112.554 57.352L117.434 57.352L117.434 58.216L112.554 58.216ZM120.506 55.544C120.25 55.544 120.047 55.472 119.898 55.328C119.748 55.1787 119.674 54.984 119.674 54.744C119.674 54.5093 119.748 54.3227 119.898 54.184C120.047 54.0453 120.25 53.976 120.506 53.976C120.762 53.976 120.964 54.0453 121.114 54.184C121.263 54.3227 121.338 54.5093 121.338 54.744C121.338 54.984 121.263 55.1787 121.114 55.328C120.964 55.472 120.762 55.544 120.506 55.544ZM119.882 65L119.882 57.336L121.13 57.336L121.13 65L119.882 65ZM127.495 65.192C126.807 65.192 126.194 65.04 125.655 64.736C125.122 64.432 124.701 63.9813 124.391 63.384C124.082 62.7867 123.927 62.0507 123.927 61.176C123.927 60.296 124.082 59.56 124.391 58.968C124.701 58.3707 125.122 57.92 125.655 57.616C126.194 57.312 126.807 57.16 127.495 57.16C128.178 57.16 128.786 57.312 129.319 57.616C129.858 57.92 130.279 58.3707 130.583 58.968C130.893 59.56 131.047 60.296 131.047 61.176C131.047 62.0507 130.893 62.7867 130.583 63.384C130.279 63.9813 129.858 64.432 129.319 64.736C128.786 65.04 128.178 65.192 127.495 65.192ZM127.463 64.104C127.959 64.104 128.381 63.9867 128.727 63.752C129.074 63.512 129.335 63.1733 129.511 62.736C129.693 62.2987 129.783 61.7787 129.783 61.176C129.783 60.264 129.594 59.5467 129.215 59.024C128.837 58.496 128.274 58.232 127.527 58.232C127.026 58.232 126.602 58.352 126.255 58.592C125.914 58.8267 125.653 59.1653 125.471 59.608C125.295 60.0453 125.207 60.568 125.207 61.176C125.207 62.0773 125.397 62.792 125.775 63.32C126.159 63.8427 126.722 64.104 127.463 64.104ZM139.077 65L139.077 60.504C139.077 59.7733 138.901 59.2187 138.549 58.84C138.203 58.456 137.728 58.264 137.125 58.264C136.667 58.264 136.269 58.3893 135.933 58.64C135.597 58.8907 135.339 59.2507 135.157 59.72C134.976 60.184 134.885 60.7387 134.885 61.384L134.405 61.384C134.405 60.4933 134.523 59.7333 134.757 59.104C134.992 58.4747 135.333 57.9947 135.781 57.664C136.235 57.328 136.784 57.16 137.429 57.16C138.032 57.16 138.547 57.296 138.973 57.568C139.405 57.8347 139.736 58.2187 139.965 58.72C140.195 59.2213 140.309 59.816 140.309 60.504L140.309 65L139.077 65ZM133.637 65L133.637 57.352L134.709 57.352L134.885 59.112L134.885 65L133.637 65ZM146.206 65.192C145.464 65.192 144.846 65.088 144.35 64.88C143.854 64.6667 143.478 64.376 143.222 64.008C142.966 63.6347 142.83 63.208 142.814 62.728L144.014 62.728C144.04 63.2133 144.235 63.5787 144.598 63.824C144.966 64.064 145.464 64.184 146.094 64.184C146.424 64.184 146.728 64.1307 147.006 64.024C147.283 63.9173 147.504 63.7707 147.67 63.584C147.835 63.3973 147.918 63.1867 147.918 62.952C147.918 62.6533 147.808 62.4187 147.59 62.248C147.371 62.0773 147.022 61.928 146.542 61.8L145.054 61.32C144.408 61.1173 143.912 60.84 143.566 60.488C143.224 60.1307 143.054 59.704 143.054 59.208C143.054 58.5893 143.326 58.0933 143.87 57.72C144.414 57.3467 145.128 57.16 146.014 57.16C146.952 57.16 147.68 57.352 148.198 57.736C148.715 58.12 148.984 58.6 149.006 59.176L147.774 59.176C147.726 58.84 147.555 58.5867 147.262 58.416C146.968 58.24 146.552 58.152 146.014 58.152C145.496 58.152 145.091 58.2693 144.798 58.504C144.51 58.7333 144.366 58.9893 144.366 59.272C144.366 59.8 144.819 60.1893 145.726 60.44L147.246 60.952C147.902 61.1493 148.403 61.408 148.75 61.728C149.102 62.048 149.278 62.456 149.278 62.952C149.278 63.336 149.152 63.6987 148.902 64.04C148.651 64.3813 148.296 64.6587 147.838 64.872C147.379 65.0853 146.835 65.192 146.206 65.192ZM160.713 65L160.553 63.32L160.553 60.04C160.553 59.352 160.406 58.8587 160.113 58.56C159.819 58.256 159.379 58.104 158.793 58.104C158.462 58.104 158.161 58.152 157.889 58.248C157.622 58.344 157.409 58.4933 157.249 58.696C157.094 58.8933 157.017 59.1493 157.017 59.464L155.625 59.464C155.625 58.9093 155.761 58.464 156.033 58.128C156.305 57.7867 156.678 57.5413 157.153 57.392C157.633 57.2373 158.179 57.16 158.793 57.16C159.379 57.16 159.899 57.2587 160.353 57.456C160.806 57.6533 161.161 57.968 161.417 58.4C161.673 58.8267 161.801 59.384 161.801 60.072L161.801 65L160.713 65ZM158.105 65.192C157.475 65.192 156.955 65.08 156.545 64.856C156.134 64.632 155.827 64.3413 155.625 63.984C155.422 63.6267 155.321 63.2507 155.321 62.856C155.321 62.3387 155.449 61.9173 155.705 61.592C155.966 61.2667 156.321 61.0293 156.769 60.88C157.217 60.7253 157.721 60.648 158.281 60.648C158.681 60.648 159.081 60.688 159.481 60.768C159.886 60.848 160.281 60.9573 160.665 61.096L160.665 61.88C160.345 61.752 159.982 61.6507 159.577 61.576C159.177 61.5013 158.809 61.464 158.473 61.464C157.961 61.464 157.529 61.5707 157.177 61.784C156.825 61.992 156.649 62.3493 156.649 62.856C156.649 63.2293 156.782 63.5493 157.049 63.816C157.321 64.0827 157.753 64.216 158.345 64.216C158.761 64.216 159.134 64.12 159.465 63.928C159.801 63.7307 160.065 63.4853 160.257 63.192C160.454 62.8987 160.553 62.6053 160.553 62.312L160.857 62.312C160.857 62.824 160.745 63.2987 160.521 63.736C160.302 64.1733 159.987 64.5253 159.577 64.792C159.166 65.0587 158.675 65.192 158.105 65.192ZM168.453 65.192C167.941 65.192 167.477 65.0587 167.061 64.792C166.65 64.5253 166.322 64.136 166.077 63.624C165.837 63.1067 165.717 62.4773 165.717 61.736L166.197 61.736C166.197 62.232 166.298 62.656 166.501 63.008C166.709 63.3547 166.976 63.6187 167.301 63.8C167.626 63.9813 167.968 64.072 168.325 64.072C168.736 64.072 169.112 63.9547 169.453 63.72C169.794 63.4853 170.066 63.1493 170.269 62.712C170.477 62.2747 170.581 61.752 170.581 61.144C170.581 60.5467 170.48 60.0347 170.277 59.608C170.074 59.176 169.8 58.8453 169.453 58.616C169.112 58.3813 168.73 58.264 168.309 58.264C167.946 58.264 167.602 58.3547 167.277 58.536C166.957 58.712 166.696 58.9733 166.493 59.32C166.296 59.6667 166.197 60.0933 166.197 60.6L165.717 60.6C165.717 59.8747 165.834 59.256 166.069 58.744C166.309 58.232 166.64 57.84 167.061 57.568C167.482 57.296 167.973 57.16 168.533 57.16C169.136 57.16 169.688 57.3227 170.189 57.648C170.696 57.968 171.101 58.4267 171.405 59.024C171.709 59.6213 171.861 60.328 171.861 61.144C171.861 61.9653 171.706 62.68 171.397 63.288C171.088 63.8907 170.674 64.36 170.157 64.696C169.64 65.0267 169.072 65.192 168.453 65.192ZM164.949 65L164.949 54.088L166.197 54.088L166.197 63.208L165.829 65L164.949 65ZM177.361 65.192C176.673 65.192 176.06 65.04 175.521 64.736C174.988 64.432 174.567 63.9813 174.257 63.384C173.948 62.7867 173.793 62.0507 173.793 61.176C173.793 60.296 173.948 59.56 174.257 58.968C174.567 58.3707 174.988 57.92 175.521 57.616C176.06 57.312 176.673 57.16 177.361 57.16C178.044 57.16 178.652 57.312 179.185 57.616C179.724 57.92 180.145 58.3707 180.449 58.968C180.759 59.56 180.913 60.296 180.913 61.176C180.913 62.0507 180.759 62.7867 180.449 63.384C180.145 63.9813 179.724 64.432 179.185 64.736C178.652 65.04 178.044 65.192 177.361 65.192ZM177.329 64.104C177.825 64.104 178.247 63.9867 178.593 63.752C178.94 63.512 179.201 63.1733 179.377 62.736C179.559 62.2987 179.649 61.7787 179.649 61.176C179.649 60.264 179.46 59.5467 179.081 59.024C178.703 58.496 178.14 58.232 177.393 58.232C176.892 58.232 176.468 58.352 176.121 58.592C175.78 58.8267 175.519 59.1653 175.337 59.608C175.161 60.0453 175.073 60.568 175.073 61.176C175.073 62.0773 175.263 62.792 175.641 63.32C176.025 63.8427 176.588 64.104 177.329 64.104ZM188.703 57.336L189.951 57.336L189.951 65L188.703 65L188.703 57.336ZM183.279 57.336L184.527 57.336L184.527 62.104C184.527 62.744 184.682 63.2293 184.991 63.56C185.306 63.8907 185.754 64.056 186.335 64.056C186.815 64.056 187.231 63.928 187.583 63.672C187.941 63.416 188.215 63.064 188.407 62.616C188.605 62.1627 188.703 61.6453 188.703 61.064L189.167 61.064C189.167 61.9227 189.042 62.656 188.791 63.264C188.546 63.872 188.197 64.3387 187.743 64.664C187.295 64.984 186.767 65.144 186.159 65.144C185.583 65.144 185.079 65.0373 184.647 64.824C184.215 64.6107 183.879 64.288 183.639 63.856C183.399 63.4187 183.279 62.8667 183.279 62.2L183.279 57.336ZM195.703 65.192C195.287 65.192 194.914 65.112 194.583 64.952C194.252 64.792 193.991 64.552 193.799 64.232C193.607 63.912 193.511 63.512 193.511 63.032L193.511 55.224L194.743 55.224L194.743 63C194.743 63.7893 195.111 64.184 195.847 64.184C196.066 64.184 196.276 64.16 196.479 64.112C196.687 64.064 196.919 63.992 197.175 63.896L197.351 64.792C197.079 64.9093 196.807 65.0053 196.535 65.08C196.268 65.1547 195.991 65.192 195.703 65.192ZM192.279 58.216L192.279 57.352L197.159 57.352L197.159 58.216L192.279 58.216ZM31.68 78.296C31.4667 78.296 31.2773 78.24 31.112 78.128C30.9467 78.016 30.816 77.864 30.72 77.672C30.624 77.48 30.576 77.2667 30.576 77.032C30.576 76.648 30.7013 76.272 30.952 75.904C31.208 75.5307 31.568 75.224 32.032 74.984L32.928 75.464C32.624 75.6133 32.3653 75.7867 32.152 75.984C31.944 76.1813 31.8027 76.4133 31.728 76.68C31.9787 76.7013 32.1813 76.7787 32.336 76.912C32.496 77.04 32.576 77.2187 32.576 77.448C32.576 77.6773 32.4933 77.8773 32.328 78.048C32.168 78.2133 31.952 78.296 31.68 78.296ZM38.8463 85.224C37.9983 85.224 37.2329 85 36.5503 84.552C35.8676 84.104 35.3236 83.48 34.9183 82.68C34.5182 81.8747 34.3182 80.936 34.3182 79.864C34.3182 79.016 34.4409 78.256 34.6862 77.584C34.9369 76.912 35.2836 76.3387 35.7262 75.864C36.1689 75.3893 36.6889 75.0293 37.2863 74.784C37.8836 74.5333 38.5316 74.408 39.2302 74.408C40.2009 74.408 41.0143 74.6187 41.6703 75.04C42.3316 75.4613 42.8463 76.1253 43.2143 77.032L41.2783 77.48C41.0063 77.0373 40.6916 76.7013 40.3343 76.472C39.9823 76.2373 39.5823 76.12 39.1343 76.12C38.6223 76.12 38.1556 76.272 37.7343 76.576C37.3129 76.8747 36.9769 77.304 36.7262 77.864C36.4756 78.424 36.3503 79.0907 36.3503 79.864C36.3503 80.5893 36.4596 81.224 36.6783 81.768C36.9023 82.312 37.2143 82.736 37.6143 83.04C38.0143 83.344 38.4783 83.496 39.0062 83.496C39.4543 83.496 39.8543 83.3973 40.2063 83.2C40.5636 82.9973 40.8436 82.7093 41.0463 82.336C41.2543 81.9627 41.3583 81.512 41.3583 80.984L41.7743 80.984C41.7743 81.848 41.6703 82.5973 41.4623 83.232C41.2596 83.8667 40.9423 84.3573 40.5103 84.704C40.0783 85.0507 39.5236 85.224 38.8463 85.224ZM41.6303 85L41.3583 82.712L41.3583 80.92L39.0223 80.872L39.0223 79.672L43.1663 79.672L43.1663 85L41.6303 85ZM47.9304 74.616L47.9304 83.352L52.2024 83.352L52.2024 85L46.0424 85L46.0424 74.616L47.9304 74.616ZM52.9726 85L56.5086 74.616L58.8766 74.616L62.2686 85L60.2846 85L59.5646 82.76L55.7086 82.76L54.9726 85L52.9726 85ZM56.1886 81.336L59.1166 81.336L57.6606 76.872L56.1886 81.336ZM63.9642 85L63.9642 83.368L69.9962 75.672L69.9962 76.36L63.9642 76.344L63.9642 74.616L71.8202 74.616L71.8202 76.232L66.1562 83.496L66.1082 83.256L71.8202 83.272L71.8202 85L63.9642 85ZM74.5067 85L74.5067 74.616L76.3947 74.616L76.3947 85L74.5067 85ZM79.5097 74.616L81.5737 74.616L86.2937 82.024L86.1497 82.024L86.1497 74.616L88.0377 74.616L88.0377 85L86.1177 85L81.0937 77.144L81.3977 77.144L81.3977 85L79.5097 85L79.5097 74.616ZM94.9625 85.224C94.1145 85.224 93.3492 85 92.6665 84.552C91.9838 84.104 91.4398 83.48 91.0345 82.68C90.6345 81.8747 90.4345 80.936 90.4345 79.864C90.4345 79.016 90.5572 78.256 90.8025 77.584C91.0532 76.912 91.3998 76.3387 91.8425 75.864C92.2852 75.3893 92.8052 75.0293 93.4025 74.784C93.9998 74.5333 94.6478 74.408 95.3465 74.408C96.3172 74.408 97.1305 74.6187 97.7865 75.04C98.4478 75.4613 98.9625 76.1253 99.3305 77.032L97.3945 77.48C97.1225 77.0373 96.8078 76.7013 96.4505 76.472C96.0985 76.2373 95.6985 76.12 95.2505 76.12C94.7385 76.12 94.2718 76.272 93.8505 76.576C93.4292 76.8747 93.0932 77.304 92.8425 77.864C92.5918 78.424 92.4665 79.0907 92.4665 79.864C92.4665 80.5893 92.5758 81.224 92.7945 81.768C93.0185 82.312 93.3305 82.736 93.7305 83.04C94.1305 83.344 94.5945 83.496 95.1225 83.496C95.5705 83.496 95.9705 83.3973 96.3225 83.2C96.6798 82.9973 96.9598 82.7093 97.1625 82.336C97.3705 81.9627 97.4745 81.512 97.4745 80.984L97.8905 80.984C97.8905 81.848 97.7865 82.5973 97.5785 83.232C97.3758 83.8667 97.0585 84.3573 96.6265 84.704C96.1945 85.0507 95.6398 85.224 94.9625 85.224ZM97.7465 85L97.4745 82.712L97.4745 80.92L95.1385 80.872L95.1385 79.672L99.2825 79.672L99.2825 85L97.7465 85ZM101.807 78.296L100.911 77.816C101.215 77.6613 101.471 77.488 101.679 77.296C101.892 77.0987 102.031 76.872 102.095 76.616C101.855 76.5893 101.652 76.5067 101.487 76.368C101.327 76.2293 101.247 76.0453 101.247 75.816C101.247 75.5813 101.335 75.384 101.511 75.224C101.687 75.064 101.908 74.984 102.175 74.984C102.399 74.984 102.591 75.0427 102.751 75.16C102.911 75.272 103.033 75.424 103.119 75.616C103.204 75.8027 103.247 76.0133 103.247 76.248C103.247 76.632 103.121 77.008 102.871 77.376C102.62 77.7387 102.265 78.0453 101.807 78.296ZM109.81 86.616L109.81 73.32L112.962 73.32L112.962 74.424L111.058 74.424L111.058 85.512L112.962 85.512L112.962 86.616L109.81 86.616ZM113.896 84.256C113.896 84.0053 113.984 83.7893 114.16 83.608C114.336 83.4267 114.558 83.336 114.824 83.336C115.091 83.336 115.318 83.4267 115.504 83.608C115.691 83.7893 115.784 84.0053 115.784 84.256C115.784 84.5067 115.691 84.7173 115.504 84.888C115.318 85.0587 115.091 85.144 114.824 85.144C114.558 85.144 114.336 85.0587 114.16 84.888C113.984 84.712 113.896 84.5013 113.896 84.256ZM116.916 84.256C116.916 84.0053 117.004 83.7893 117.18 83.608C117.356 83.4267 117.577 83.336 117.844 83.336C118.11 83.336 118.337 83.4267 118.524 83.608C118.71 83.7893 118.804 84.0053 118.804 84.256C118.804 84.5067 118.71 84.7173 118.524 84.888C118.337 85.0587 118.11 85.144 117.844 85.144C117.577 85.144 117.356 85.0587 117.18 84.888C117.004 84.712 116.916 84.5013 116.916 84.256ZM119.935 84.256C119.935 84.0053 120.023 83.7893 120.199 83.608C120.375 83.4267 120.596 83.336 120.863 83.336C121.13 83.336 121.356 83.4267 121.543 83.608C121.73 83.7893 121.823 84.0053 121.823 84.256C121.823 84.5067 121.73 84.7173 121.543 84.888C121.356 85.0587 121.13 85.144 120.863 85.144C120.596 85.144 120.375 85.0587 120.199 84.888C120.023 84.712 119.935 84.5013 119.935 84.256ZM125.402 86.616L125.402 73.32L122.25 73.32L122.25 74.424L124.154 74.424L124.154 85.512L122.25 85.512L122.25 86.616L125.402 86.616ZM131.269 78.296L130.373 77.816C130.677 77.6613 130.933 77.488 131.141 77.296C131.355 77.0987 131.493 76.872 131.557 76.616C131.317 76.5893 131.115 76.5067 130.949 76.368C130.789 76.2293 130.709 76.0453 130.709 75.816C130.709 75.5813 130.797 75.384 130.973 75.224C131.149 75.064 131.371 74.984 131.637 74.984C131.861 74.984 132.053 75.0427 132.213 75.16C132.373 75.272 132.496 75.424 132.581 75.616C132.667 75.8027 132.709 76.0133 132.709 76.248C132.709 76.632 132.584 77.008 132.333 77.376C132.083 77.7387 131.728 78.0453 131.269 78.296ZM128.653 78.296L127.757 77.816C128.061 77.6613 128.317 77.488 128.525 77.296C128.739 77.0987 128.877 76.872 128.941 76.616C128.701 76.5893 128.499 76.5067 128.333 76.368C128.173 76.2293 128.093 76.0453 128.093 75.816C128.093 75.5813 128.181 75.384 128.357 75.224C128.533 75.064 128.755 74.984 129.021 74.984C129.245 74.984 129.437 75.0427 129.597 75.16C129.757 75.272 129.88 75.424 129.965 75.616C130.051 75.8027 130.093 76.0133 130.093 76.248C130.093 76.632 129.968 77.008 129.717 77.376C129.467 77.7387 129.112 78.0453 128.653 78.296Z" fill="#333333"/>
</g>
<defs>
<filter id="filter0_d_7084_5678" x="0" y="0" width="228.035" height="108" filterUnits="userSpaceOnUse" color-interpolation-filters="sRGB">
<feFlood flood-opacity="0" result="BackgroundImageFix"/>
<feColorMatrix in="SourceAlpha" type="matrix" values="0 0 0 0 0 0 0 0 0 0 0 0 0 0 0 0 0 0 127 0" result="hardAlpha"/>
<feOffset dy="4"/>
<feGaussianBlur stdDeviation="3"/>
<feComposite in2="hardAlpha" operator="out"/>
<feColorMatrix type="matrix" values="0 0 0 0 0 0 0 0 0 0 0 0 0 0 0 0 0 0 0.1 0"/>
<feBlend mode="normal" in2="BackgroundImageFix" result="effect1_dropShadow_7084_5678"/>
<feBlend mode="normal" in="SourceGraphic" in2="effect1_dropShadow_7084_5678" result="shape"/>
</filter>
<filter id="filter1_d_7084_5678" x="24.5439" y="12.0879" width="186.888" height="84.5283" filterUnits="userSpaceOnUse" color-interpolation-filters="sRGB">
<feFlood flood-opacity="0" result="BackgroundImageFix"/>
<feColorMatrix in="SourceAlpha" type="matrix" values="0 0 0 0 0 0 0 0 0 0 0 0 0 0 0 0 0 0 127 0" result="hardAlpha"/>
<feOffset dy="4"/>
<feGaussianBlur stdDeviation="3"/>
<feComposite in2="hardAlpha" operator="out"/>
<feColorMatrix type="matrix" values="0 0 0 0 0 0 0 0 0 0 0 0 0 0 0 0 0 0 0.05 0"/>
<feBlend mode="normal" in2="BackgroundImageFix" result="effect1_dropShadow_7084_5678"/>
<feBlend mode="normal" in="SourceGraphic" in2="effect1_dropShadow_7084_5678" result="shape"/>
</filter>
</defs>
</svg>
