<svg width="256" height="68" viewBox="0 0 256 68" fill="none" xmlns="http://www.w3.org/2000/svg">
<mask id="path-1-inside-1_7098_5715" fill="white">
<path d="M248.724 27.3669L239 19L239 11C239 6.02944 234.971 2 230 2L9.00022 1.99998C4.02965 1.99998 0.000218166 6.02942 0.000217732 11L0.00021441 49C0.000213975 53.9705 4.02965 58 9.00021 58L230 58C234.971 58 239 53.9706 239 49L239 39.5L248.612 32.0069C250.106 30.8425 250.16 28.6022 248.724 27.3669Z"/>
</mask>
<path d="M248.724 27.3669L239 19L239 11C239 6.02944 234.971 2 230 2L9.00022 1.99998C4.02965 1.99998 0.000218166 6.02942 0.000217732 11L0.00021441 49C0.000213975 53.9705 4.02965 58 9.00021 58L230 58C234.971 58 239 53.9706 239 49L239 39.5L248.612 32.0069C250.106 30.8425 250.16 28.6022 248.724 27.3669Z" fill="white"/>
<path d="M239 19L237.6 19L237.6 19.6423L238.087 20.0612L239 19ZM248.724 27.3669L249.637 26.3056L249.637 26.3056L248.724 27.3669ZM248.612 32.0069L247.751 30.9028L247.751 30.9028L248.612 32.0069ZM239 39.5L238.139 38.3959L237.6 38.8162L237.6 39.5L239 39.5ZM238.087 20.0612L247.811 28.4281L249.637 26.3056L239.913 17.9388L238.087 20.0612ZM247.751 30.9028L238.139 38.3959L239.861 40.6041L249.473 33.1111L247.751 30.9028ZM247.811 28.4281C248.577 29.0869 248.548 30.2817 247.751 30.9028L249.473 33.1111C251.664 31.4032 251.743 28.1175 249.637 26.3056L247.811 28.4281ZM230 56.6L9.00021 56.6L9.00021 59.4L230 59.4L230 56.6ZM1.40021 49L1.40021 11L-1.39978 11L-1.39978 49L1.40021 49ZM9.00022 3.39998L230 3.4L230 0.599997L9.00022 0.599977L9.00022 3.39998ZM237.6 39.5L237.6 49L240.4 49L240.4 39.5L237.6 39.5ZM237.6 11L237.6 19L240.4 19L240.4 11L237.6 11ZM230 3.4C234.198 3.4 237.6 6.80263 237.6 11L240.4 11C240.4 5.25624 235.744 0.599997 230 0.599997L230 3.4ZM1.40021 11C1.40021 6.80261 4.80285 3.39998 9.00022 3.39998L9.00022 0.599977C3.25646 0.599977 -1.39978 5.25622 -1.39978 11L1.40021 11ZM9.00021 56.6C4.80284 56.6 1.40021 53.1973 1.40021 49L-1.39978 49C-1.39978 54.7437 3.25645 59.4 9.00021 59.4L9.00021 56.6ZM230 59.4C235.744 59.4 240.4 54.7438 240.4 49L237.6 49C237.6 53.1974 234.198 56.6 230 56.6L230 59.4Z" fill="white" mask="url(#path-1-inside-1_7098_5715)"/>
<g filter="url(#filter0_d_7098_5715)">
<mask id="path-3-inside-2_7098_5715" fill="white">
<path d="M248.724 27.3669L239 19L239 11C239 6.02944 234.971 2 230 2L169 1.99999C164.03 1.99999 160 6.02943 160 11L160 49C160 53.9705 164.03 58 169 58L230 58C234.971 58 239 53.9706 239 49L239 39.5L248.612 32.0069C250.106 30.8425 250.16 28.6022 248.724 27.3669Z"/>
</mask>
<path d="M248.724 27.3669L239 19L239 11C239 6.02944 234.971 2 230 2L169 1.99999C164.03 1.99999 160 6.02943 160 11L160 49C160 53.9705 164.03 58 169 58L230 58C234.971 58 239 53.9706 239 49L239 39.5L248.612 32.0069C250.106 30.8425 250.16 28.6022 248.724 27.3669Z" fill="white"/>
<path d="M239 19L237.6 19L237.6 19.6423L238.087 20.0612L239 19ZM248.724 27.3669L249.637 26.3056L249.637 26.3056L248.724 27.3669ZM248.612 32.0069L247.751 30.9028L247.751 30.9028L248.612 32.0069ZM239 39.5L238.139 38.3959L237.6 38.8162L237.6 39.5L239 39.5ZM230 58L230 59.4L230 58ZM169 58L169 56.6L169 58ZM238.087 20.0612L247.811 28.4281L249.637 26.3056L239.913 17.9388L238.087 20.0612ZM247.751 30.9028L238.139 38.3959L239.861 40.6041L249.473 33.1111L247.751 30.9028ZM247.811 28.4281C248.577 29.0869 248.548 30.2817 247.751 30.9028L249.473 33.1111C251.664 31.4032 251.743 28.1175 249.637 26.3056L247.811 28.4281ZM230 56.6L169 56.6L169 59.4L230 59.4L230 56.6ZM161.4 49L161.4 11L158.6 11L158.6 49L161.4 49ZM169 3.39999L230 3.4L230 0.599997L169 0.599991L169 3.39999ZM237.6 39.5L237.6 49L240.4 49L240.4 39.5L237.6 39.5ZM237.6 11L237.6 19L240.4 19L240.4 11L237.6 11ZM230 3.4C234.198 3.4 237.6 6.80263 237.6 11L240.4 11C240.4 5.25624 235.744 0.599997 230 0.599997L230 3.4ZM161.4 11C161.4 6.80263 164.803 3.39999 169 3.39999L169 0.599991C163.256 0.599991 158.6 5.25623 158.6 11L161.4 11ZM169 56.6C164.803 56.6 161.4 53.1973 161.4 49L158.6 49C158.6 54.7437 163.256 59.4 169 59.4L169 56.6ZM230 59.4C235.744 59.4 240.4 54.7438 240.4 49L237.6 49C237.6 53.1974 234.198 56.6 230 56.6L230 59.4Z" fill="#333333" mask="url(#path-3-inside-2_7098_5715)"/>
</g>
<g filter="url(#filter1_d_7098_5715)">
<path d="M203.465 15.452H204.969L207.849 20.332H207.529L210.457 15.452H211.945L208.313 21.372V25.5H207.049V21.372L203.465 15.452ZM215.487 25.692C214.826 25.692 214.234 25.524 213.711 25.188C213.194 24.8467 212.783 24.3747 212.479 23.772C212.18 23.1693 212.031 22.476 212.031 21.692C212.031 20.8547 212.18 20.1347 212.479 19.532C212.778 18.9293 213.186 18.468 213.703 18.148C214.226 17.8227 214.82 17.66 215.487 17.66C216.068 17.66 216.564 17.7773 216.975 18.012C217.386 18.2467 217.716 18.564 217.967 18.964C218.218 19.364 218.391 19.8173 218.487 20.324C218.588 20.8253 218.618 21.3453 218.575 21.884H213.039V21.116H217.751L217.383 21.356C217.399 21.0413 217.38 20.7267 217.327 20.412C217.279 20.0973 217.186 19.8093 217.047 19.548C216.908 19.2813 216.714 19.068 216.463 18.908C216.212 18.748 215.892 18.668 215.503 18.668C215.012 18.668 214.602 18.7933 214.271 19.044C213.94 19.2947 213.692 19.6253 213.527 20.036C213.362 20.4413 213.279 20.8813 213.279 21.356V21.868C213.279 22.4013 213.359 22.8787 213.519 23.3C213.684 23.7213 213.93 24.0547 214.255 24.3C214.58 24.5453 214.991 24.668 215.487 24.668C215.983 24.668 216.391 24.548 216.711 24.308C217.031 24.068 217.226 23.7133 217.295 23.244H218.591C218.511 23.7507 218.33 24.188 218.047 24.556C217.764 24.9187 217.404 25.1987 216.967 25.396C216.53 25.5933 216.036 25.692 215.487 25.692ZM223.962 25.692C223.22 25.692 222.602 25.588 222.106 25.38C221.61 25.1667 221.234 24.876 220.978 24.508C220.722 24.1347 220.586 23.708 220.57 23.228H221.77C221.796 23.7133 221.991 24.0787 222.354 24.324C222.722 24.564 223.22 24.684 223.85 24.684C224.18 24.684 224.484 24.6307 224.762 24.524C225.039 24.4173 225.26 24.2707 225.426 24.084C225.591 23.8973 225.674 23.6867 225.674 23.452C225.674 23.1533 225.564 22.9187 225.346 22.748C225.127 22.5773 224.778 22.428 224.298 22.3L222.81 21.82C222.164 21.6173 221.668 21.34 221.322 20.988C220.98 20.6307 220.81 20.204 220.81 19.708C220.81 19.0893 221.082 18.5933 221.626 18.22C222.17 17.8467 222.884 17.66 223.77 17.66C224.708 17.66 225.436 17.852 225.954 18.236C226.471 18.62 226.74 19.1 226.762 19.676H225.53C225.482 19.34 225.311 19.0867 225.018 18.916C224.724 18.74 224.308 18.652 223.77 18.652C223.252 18.652 222.847 18.7693 222.554 19.004C222.266 19.2333 222.122 19.4893 222.122 19.772C222.122 20.3 222.575 20.6893 223.482 20.94L225.002 21.452C225.658 21.6493 226.159 21.908 226.506 22.228C226.858 22.548 227.034 22.956 227.034 23.452C227.034 23.836 226.908 24.1987 226.658 24.54C226.407 24.8813 226.052 25.1587 225.594 25.372C225.135 25.5853 224.591 25.692 223.962 25.692ZM180.191 45.692C179.631 45.692 179.143 45.564 178.727 45.308C178.316 45.052 177.999 44.6787 177.775 44.188C177.551 43.692 177.439 43.0893 177.439 42.38H177.967C177.967 42.8547 178.065 43.2547 178.263 43.58C178.46 43.9053 178.716 44.1533 179.031 44.324C179.351 44.4893 179.689 44.572 180.047 44.572C180.431 44.572 180.799 44.4627 181.151 44.244C181.503 44.02 181.791 43.692 182.015 43.26C182.239 42.828 182.351 42.2947 182.351 41.66C182.351 41.052 182.247 40.532 182.039 40.1C181.836 39.668 181.561 39.3373 181.215 39.108C180.868 38.8787 180.484 38.764 180.063 38.764C179.7 38.764 179.359 38.852 179.039 39.028C178.719 39.204 178.46 39.4627 178.263 39.804C178.065 40.14 177.967 40.556 177.967 41.052H177.439C177.439 40.3107 177.561 39.6893 177.807 39.188C178.052 38.6813 178.385 38.3 178.807 38.044C179.228 37.788 179.7 37.66 180.223 37.66C180.82 37.66 181.377 37.82 181.895 38.14C182.412 38.46 182.831 38.9187 183.151 39.516C183.471 40.1133 183.631 40.828 183.631 41.66C183.631 42.5027 183.468 43.2253 183.143 43.828C182.823 44.4307 182.401 44.892 181.879 45.212C181.356 45.532 180.793 45.692 180.191 45.692ZM176.719 49.26V37.852H177.759L177.967 39.644V49.26H176.719ZM186.238 45.5V34.588H187.486V45.5H186.238ZM193.538 45.692C192.877 45.692 192.285 45.524 191.762 45.188C191.245 44.8467 190.834 44.3747 190.53 43.772C190.232 43.1693 190.082 42.476 190.082 41.692C190.082 40.8547 190.232 40.1347 190.53 39.532C190.829 38.9293 191.237 38.468 191.754 38.148C192.277 37.8227 192.872 37.66 193.538 37.66C194.12 37.66 194.616 37.7773 195.026 38.012C195.437 38.2467 195.768 38.564 196.018 38.964C196.269 39.364 196.442 39.8173 196.538 40.324C196.64 40.8253 196.669 41.3453 196.626 41.884H191.09V41.116H195.802L195.434 41.356C195.45 41.0413 195.432 40.7267 195.378 40.412C195.33 40.0973 195.237 39.8093 195.098 39.548C194.96 39.2813 194.765 39.068 194.514 38.908C194.264 38.748 193.944 38.668 193.554 38.668C193.064 38.668 192.653 38.7933 192.322 39.044C191.992 39.2947 191.744 39.6253 191.578 40.036C191.413 40.4413 191.33 40.8813 191.33 41.356V41.868C191.33 42.4013 191.41 42.8787 191.57 43.3C191.736 43.7213 191.981 44.0547 192.306 44.3C192.632 44.5453 193.042 44.668 193.538 44.668C194.034 44.668 194.442 44.548 194.762 44.308C195.082 44.068 195.277 43.7133 195.346 43.244H196.642C196.562 43.7507 196.381 44.188 196.098 44.556C195.816 44.9187 195.456 45.1987 195.018 45.396C194.581 45.5933 194.088 45.692 193.538 45.692ZM203.997 45.5L203.837 43.82V40.54C203.837 39.852 203.69 39.3587 203.397 39.06C203.104 38.756 202.664 38.604 202.077 38.604C201.746 38.604 201.445 38.652 201.173 38.748C200.906 38.844 200.693 38.9933 200.533 39.196C200.378 39.3933 200.301 39.6493 200.301 39.964H198.909C198.909 39.4093 199.045 38.964 199.317 38.628C199.589 38.2867 199.962 38.0413 200.437 37.892C200.917 37.7373 201.464 37.66 202.077 37.66C202.664 37.66 203.184 37.7587 203.637 37.956C204.09 38.1533 204.445 38.468 204.701 38.9C204.957 39.3267 205.085 39.884 205.085 40.572V45.5H203.997ZM201.389 45.692C200.76 45.692 200.24 45.58 199.829 45.356C199.418 45.132 199.112 44.8413 198.909 44.484C198.706 44.1267 198.605 43.7507 198.605 43.356C198.605 42.8387 198.733 42.4173 198.989 42.092C199.25 41.7667 199.605 41.5293 200.053 41.38C200.501 41.2253 201.005 41.148 201.565 41.148C201.965 41.148 202.365 41.188 202.765 41.268C203.17 41.348 203.565 41.4573 203.949 41.596V42.38C203.629 42.252 203.266 42.1507 202.861 42.076C202.461 42.0013 202.093 41.964 201.757 41.964C201.245 41.964 200.813 42.0707 200.461 42.284C200.109 42.492 199.933 42.8493 199.933 43.356C199.933 43.7293 200.066 44.0493 200.333 44.316C200.605 44.5827 201.037 44.716 201.629 44.716C202.045 44.716 202.418 44.62 202.749 44.428C203.085 44.2307 203.349 43.9853 203.541 43.692C203.738 43.3987 203.837 43.1053 203.837 42.812H204.141C204.141 43.324 204.029 43.7987 203.805 44.236C203.586 44.6733 203.272 45.0253 202.861 45.292C202.45 45.5587 201.96 45.692 201.389 45.692ZM210.986 45.692C210.244 45.692 209.626 45.588 209.13 45.38C208.634 45.1667 208.258 44.876 208.002 44.508C207.746 44.1347 207.61 43.708 207.594 43.228H208.794C208.82 43.7133 209.015 44.0787 209.378 44.324C209.746 44.564 210.244 44.684 210.874 44.684C211.204 44.684 211.508 44.6307 211.786 44.524C212.063 44.4173 212.284 44.2707 212.45 44.084C212.615 43.8973 212.698 43.6867 212.698 43.452C212.698 43.1533 212.588 42.9187 212.37 42.748C212.151 42.5773 211.802 42.428 211.322 42.3L209.834 41.82C209.188 41.6173 208.692 41.34 208.346 40.988C208.004 40.6307 207.834 40.204 207.834 39.708C207.834 39.0893 208.106 38.5933 208.65 38.22C209.194 37.8467 209.908 37.66 210.794 37.66C211.732 37.66 212.46 37.852 212.978 38.236C213.495 38.62 213.764 39.1 213.786 39.676H212.554C212.506 39.34 212.335 39.0867 212.042 38.916C211.748 38.74 211.332 38.652 210.794 38.652C210.276 38.652 209.871 38.7693 209.578 39.004C209.29 39.2333 209.146 39.4893 209.146 39.772C209.146 40.3 209.599 40.6893 210.506 40.94L212.026 41.452C212.682 41.6493 213.183 41.908 213.53 42.228C213.882 42.548 214.058 42.956 214.058 43.452C214.058 43.836 213.932 44.1987 213.682 44.54C213.431 44.8813 213.076 45.1587 212.618 45.372C212.159 45.5853 211.615 45.692 210.986 45.692ZM219.456 45.692C218.794 45.692 218.202 45.524 217.68 45.188C217.162 44.8467 216.752 44.3747 216.448 43.772C216.149 43.1693 216 42.476 216 41.692C216 40.8547 216.149 40.1347 216.448 39.532C216.746 38.9293 217.154 38.468 217.672 38.148C218.194 37.8227 218.789 37.66 219.456 37.66C220.037 37.66 220.533 37.7773 220.944 38.012C221.354 38.2467 221.685 38.564 221.936 38.964C222.186 39.364 222.36 39.8173 222.456 40.324C222.557 40.8253 222.586 41.3453 222.544 41.884H217.008V41.116H221.72L221.352 41.356C221.368 41.0413 221.349 40.7267 221.296 40.412C221.248 40.0973 221.154 39.8093 221.016 39.548C220.877 39.2813 220.682 39.068 220.432 38.908C220.181 38.748 219.861 38.668 219.472 38.668C218.981 38.668 218.57 38.7933 218.24 39.044C217.909 39.2947 217.661 39.6253 217.496 40.036C217.33 40.4413 217.248 40.8813 217.248 41.356V41.868C217.248 42.4013 217.328 42.8787 217.488 43.3C217.653 43.7213 217.898 44.0547 218.224 44.3C218.549 44.5453 218.96 44.668 219.456 44.668C219.952 44.668 220.36 44.548 220.68 44.308C221 44.068 221.194 43.7133 221.264 43.244H222.56C222.48 43.7507 222.298 44.188 222.016 44.556C221.733 44.9187 221.373 45.1987 220.936 45.396C220.498 45.5933 220.005 45.692 219.456 45.692ZM225.307 42.684L225.147 35.484H226.475L226.315 42.684H225.307ZM225.811 45.644C225.539 45.644 225.315 45.5587 225.139 45.388C224.963 45.2173 224.875 45.004 224.875 44.748C224.875 44.4973 224.963 44.284 225.139 44.108C225.315 43.9267 225.539 43.836 225.811 43.836C226.077 43.836 226.301 43.9267 226.483 44.108C226.669 44.284 226.763 44.4973 226.763 44.748C226.763 45.004 226.669 45.2173 226.483 45.388C226.301 45.5587 226.077 45.644 225.811 45.644Z" fill="#333333"/>
</g>
<defs>
<filter id="filter0_d_7098_5715" x="154" y="0" width="101.768" height="68" filterUnits="userSpaceOnUse" color-interpolation-filters="sRGB">
<feFlood flood-opacity="0" result="BackgroundImageFix"/>
<feColorMatrix in="SourceAlpha" type="matrix" values="0 0 0 0 0 0 0 0 0 0 0 0 0 0 0 0 0 0 127 0" result="hardAlpha"/>
<feOffset dy="4"/>
<feGaussianBlur stdDeviation="3"/>
<feComposite in2="hardAlpha" operator="out"/>
<feColorMatrix type="matrix" values="0 0 0 0 0 0 0 0 0 0 0 0 0 0 0 0 0 0 0.1 0"/>
<feBlend mode="normal" in2="BackgroundImageFix" result="effect1_dropShadow_7098_5715"/>
<feBlend mode="normal" in="SourceGraphic" in2="effect1_dropShadow_7098_5715" result="shape"/>
</filter>
<filter id="filter1_d_7098_5715" x="170.718" y="13.4521" width="62.3154" height="45.8076" filterUnits="userSpaceOnUse" color-interpolation-filters="sRGB">
<feFlood flood-opacity="0" result="BackgroundImageFix"/>
<feColorMatrix in="SourceAlpha" type="matrix" values="0 0 0 0 0 0 0 0 0 0 0 0 0 0 0 0 0 0 127 0" result="hardAlpha"/>
<feOffset dy="4"/>
<feGaussianBlur stdDeviation="3"/>
<feComposite in2="hardAlpha" operator="out"/>
<feColorMatrix type="matrix" values="0 0 0 0 0 0 0 0 0 0 0 0 0 0 0 0 0 0 0.05 0"/>
<feBlend mode="normal" in2="BackgroundImageFix" result="effect1_dropShadow_7098_5715"/>
<feBlend mode="normal" in="SourceGraphic" in2="effect1_dropShadow_7098_5715" result="shape"/>
</filter>
</defs>
</svg>
