<svg width="256" height="88" viewBox="0 0 256 88" fill="none" xmlns="http://www.w3.org/2000/svg">
<mask id="path-1-inside-1_7044_5998" fill="white">
<path d="M254.724 27.3678L245 19.001L245 11.001C245 6.03041 240.971 2.00098 236 2.00097L15 2.00096C10.0294 2.00096 5.99997 6.03039 5.99997 11.001L5.99997 49.001C5.99997 53.9715 10.0294 58.001 15 58.001L236 58.001C240.971 58.001 245 53.9715 245 49.001L245 39.501L254.612 32.0079C256.106 30.8434 256.16 28.6032 254.724 27.3678Z"/>
</mask>
<path d="M254.724 27.3678L245 19.001L245 11.001C245 6.03041 240.971 2.00098 236 2.00097L15 2.00096C10.0294 2.00096 5.99997 6.03039 5.99997 11.001L5.99997 49.001C5.99997 53.9715 10.0294 58.001 15 58.001L236 58.001C240.971 58.001 245 53.9715 245 49.001L245 39.501L254.612 32.0079C256.106 30.8434 256.16 28.6032 254.724 27.3678Z" fill="white"/>
<path d="M245 19.001L243.6 19.001L243.6 19.6433L244.087 20.0622L245 19.001ZM254.724 27.3678L255.637 26.3066L255.637 26.3066L254.724 27.3678ZM254.612 32.0079L253.751 30.9038L253.751 30.9038L254.612 32.0079ZM245 39.501L244.139 38.3968L243.6 38.8172L243.6 39.501L245 39.501ZM244.087 20.0622L253.811 28.4291L255.637 26.3066L245.913 17.9397L244.087 20.0622ZM253.751 30.9038L244.139 38.3968L245.861 40.6051L255.473 33.1121L253.751 30.9038ZM253.811 28.4291C254.577 29.0879 254.548 30.2827 253.751 30.9038L255.473 33.1121C257.663 31.4041 257.743 28.1184 255.637 26.3066L253.811 28.4291ZM236 56.601L15 56.601L15 59.401L236 59.401L236 56.601ZM7.39996 49.001L7.39997 11.001L4.59998 11.001L4.59998 49.001L7.39996 49.001ZM15 3.40096L236 3.40098L236 0.600973L15 0.600954L15 3.40096ZM243.6 39.501L243.6 49.001L246.4 49.001L246.4 39.501L243.6 39.501ZM243.6 11.001L243.6 19.001L246.4 19.001L246.4 11.001L243.6 11.001ZM236 3.40098C240.197 3.40098 243.6 6.80361 243.6 11.001L246.4 11.001C246.4 5.25722 241.744 0.600974 236 0.600973L236 3.40098ZM7.39997 11.001C7.39997 6.80359 10.8026 3.40096 15 3.40096L15 0.600954C9.25622 0.600953 4.59998 5.2572 4.59998 11.001L7.39997 11.001ZM15 56.601C10.8026 56.601 7.39996 53.1983 7.39996 49.001L4.59998 49.001C4.59998 54.7447 9.25621 59.401 15 59.401L15 56.601ZM236 59.401C241.744 59.401 246.4 54.7447 246.4 49.001L243.6 49.001C243.6 53.1983 240.197 56.601 236 56.601L236 59.401Z" fill="white" mask="url(#path-1-inside-1_7044_5998)"/>
<g filter="url(#filter0_d_7044_5998)">
<mask id="path-3-inside-2_7044_5998" fill="white">
<path d="M7.04333 41.6331L16.7674 50V69C16.7674 73.9706 20.7968 78 25.7674 78L234.767 78C239.738 78 243.767 73.9706 243.767 69V11C243.767 6.02944 239.738 2 234.767 2L25.7674 2C20.7968 2 16.7674 6.02944 16.7674 11L16.7674 29.5L7.15555 36.9931C5.66179 38.1575 5.60761 40.3978 7.04333 41.6331Z"/>
</mask>
<path d="M7.04333 41.6331L16.7674 50V69C16.7674 73.9706 20.7968 78 25.7674 78L234.767 78C239.738 78 243.767 73.9706 243.767 69V11C243.767 6.02944 239.738 2 234.767 2L25.7674 2C20.7968 2 16.7674 6.02944 16.7674 11L16.7674 29.5L7.15555 36.9931C5.66179 38.1575 5.60761 40.3978 7.04333 41.6331Z" fill="white"/>
<path d="M16.7674 50H18.1674V49.3577L17.6805 48.9388L16.7674 50ZM7.04333 41.6331L6.13021 42.6944H6.13021L7.04333 41.6331ZM7.15555 36.9931L6.2948 35.8889H6.2948L7.15555 36.9931ZM16.7674 29.5L17.6281 30.6041L18.1674 30.1838V29.5H16.7674ZM25.7674 2V0.6V2ZM234.767 2V3.4V2ZM17.6805 48.9388L7.95644 40.5719L6.13021 42.6944L15.8542 51.0612L17.6805 48.9388ZM8.0163 38.0972L17.6281 30.6041L15.9066 28.3959L6.2948 35.8889L8.0163 38.0972ZM7.95644 40.5719C7.19073 39.9131 7.21963 38.7183 8.0163 38.0972L6.2948 35.8889C4.10396 37.5968 4.02449 40.8825 6.13021 42.6944L7.95644 40.5719ZM25.7674 3.4L234.767 3.4V0.600003L25.7674 0.6V3.4ZM242.367 11V69H245.167V11H242.367ZM234.767 76.6L25.7674 76.6V79.4L234.767 79.4V76.6ZM18.1674 29.5L18.1674 11H15.3674L15.3674 29.5H18.1674ZM18.1674 69V50H15.3674L15.3674 69H18.1674ZM25.7674 76.6C21.57 76.6 18.1674 73.1974 18.1674 69H15.3674C15.3674 74.7438 20.0236 79.4 25.7674 79.4V76.6ZM242.367 69C242.367 73.1974 238.965 76.6 234.767 76.6V79.4C240.511 79.4 245.167 74.7438 245.167 69H242.367ZM234.767 3.4C238.965 3.4 242.367 6.80264 242.367 11H245.167C245.167 5.25624 240.511 0.600003 234.767 0.600003V3.4ZM25.7674 0.6C20.0236 0.6 15.3674 5.25624 15.3674 11H18.1674C18.1674 6.80264 21.57 3.4 25.7674 3.4V0.6Z" fill="#333333" mask="url(#path-3-inside-2_7044_5998)"/>
</g>
<g filter="url(#filter1_d_7044_5998)">
<path d="M31.224 15.453H32.632L35.24 24.397H34.872L37.544 16.493H38.392L41.032 24.333H40.68L43.672 15.453H45.064L41.512 25.501H40.2L37.88 18.685H38.12L35.72 25.501H34.408L31.224 15.453ZM49.3253 25.693C48.6373 25.693 48.0239 25.541 47.4852 25.237C46.9519 24.933 46.5306 24.4823 46.2212 23.885C45.9119 23.2876 45.7572 22.5516 45.7572 21.677C45.7572 20.797 45.9119 20.061 46.2212 19.469C46.5306 18.8716 46.9519 18.421 47.4852 18.117C48.0239 17.813 48.6373 17.661 49.3253 17.661C50.0079 17.661 50.6159 17.813 51.1493 18.117C51.6879 18.421 52.1093 18.8716 52.4132 19.469C52.7226 20.061 52.8773 20.797 52.8773 21.677C52.8773 22.5516 52.7226 23.2876 52.4132 23.885C52.1093 24.4823 51.6879 24.933 51.1493 25.237C50.6159 25.541 50.0079 25.693 49.3253 25.693ZM49.2933 24.605C49.7893 24.605 50.2106 24.4876 50.5573 24.253C50.9039 24.013 51.1652 23.6743 51.3412 23.237C51.5226 22.7996 51.6133 22.2796 51.6133 21.677C51.6133 20.765 51.4239 20.0476 51.0452 19.525C50.6666 18.997 50.1039 18.733 49.3573 18.733C48.8559 18.733 48.4319 18.853 48.0852 19.093C47.7439 19.3276 47.4826 19.6663 47.3012 20.109C47.1253 20.5463 47.0373 21.069 47.0373 21.677C47.0373 22.5783 47.2266 23.293 47.6052 23.821C47.9893 24.3436 48.5519 24.605 49.2933 24.605ZM60.6673 17.837H61.9152V25.501H60.6673V17.837ZM55.2432 17.837H56.4912V22.605C56.4912 23.245 56.6459 23.7303 56.9552 24.061C57.2699 24.3916 57.7179 24.557 58.2993 24.557C58.7792 24.557 59.1952 24.429 59.5472 24.173C59.9046 23.917 60.1793 23.565 60.3713 23.117C60.5686 22.6636 60.6673 22.1463 60.6673 21.565H61.1312C61.1312 22.4236 61.0059 23.157 60.7552 23.765C60.5099 24.373 60.1606 24.8396 59.7073 25.165C59.2592 25.485 58.7312 25.645 58.1233 25.645C57.5472 25.645 57.0432 25.5383 56.6112 25.325C56.1792 25.1116 55.8432 24.789 55.6032 24.357C55.3632 23.9196 55.2432 23.3676 55.2432 22.701V17.837ZM65.3147 25.501V14.589H66.5627V25.501H65.3147ZM72.6951 25.693C72.0765 25.693 71.5085 25.5276 70.9911 25.197C70.4738 24.861 70.0605 24.3916 69.7511 23.789C69.4418 23.181 69.2871 22.4663 69.2871 21.645C69.2871 20.829 69.4391 20.1223 69.7431 19.525C70.0471 18.9276 70.4498 18.469 70.9511 18.149C71.4578 17.8236 72.0125 17.661 72.6151 17.661C73.1751 17.661 73.6658 17.797 74.0871 18.069C74.5138 18.341 74.8445 18.733 75.0791 19.245C75.3138 19.757 75.4311 20.3756 75.4311 21.101H74.9511C74.9511 20.5943 74.8498 20.1676 74.6471 19.821C74.4498 19.4743 74.1911 19.213 73.8711 19.037C73.5511 18.8556 73.2071 18.765 72.8391 18.765C72.4231 18.765 72.0418 18.8823 71.6951 19.117C71.3538 19.3463 71.0791 19.677 70.8711 20.109C70.6685 20.5356 70.5671 21.0476 70.5671 21.645C70.5671 22.253 70.6685 22.7756 70.8711 23.213C71.0791 23.6503 71.3538 23.9863 71.6951 24.221C72.0418 24.4556 72.4231 24.573 72.8391 24.573C73.1858 24.573 73.5191 24.4823 73.8391 24.301C74.1645 24.1196 74.4311 23.8556 74.6391 23.509C74.8471 23.157 74.9511 22.733 74.9511 22.237H75.4311C75.4311 22.9783 75.3085 23.6076 75.0631 24.125C74.8231 24.637 74.4951 25.0263 74.0791 25.293C73.6685 25.5596 73.2071 25.693 72.6951 25.693ZM75.1591 25.501L74.9511 23.709V14.589H76.1991V25.501H75.1591ZM82.2964 17.853H83.6884L86.1844 24.413H85.8964L87.8324 17.853H89.1124L86.2324 27.037C85.9924 27.805 85.6724 28.397 85.2724 28.813C84.8724 29.229 84.3604 29.437 83.7364 29.437C83.4004 29.437 83.0804 29.389 82.7764 29.293C82.4777 29.197 82.1684 29.0583 81.8484 28.877V27.725C82.131 27.949 82.403 28.109 82.6644 28.205C82.931 28.301 83.2084 28.349 83.4964 28.349C83.8164 28.349 84.083 28.2476 84.2964 28.045C84.515 27.8423 84.6964 27.581 84.8404 27.261C84.9844 26.9463 85.107 26.6156 85.2084 26.269L85.4324 25.501L82.2964 17.853ZM93.9415 25.693C93.2535 25.693 92.6402 25.541 92.1015 25.237C91.5682 24.933 91.1468 24.4823 90.8375 23.885C90.5282 23.2876 90.3735 22.5516 90.3735 21.677C90.3735 20.797 90.5282 20.061 90.8375 19.469C91.1468 18.8716 91.5682 18.421 92.1015 18.117C92.6402 17.813 93.2535 17.661 93.9415 17.661C94.6242 17.661 95.2322 17.813 95.7655 18.117C96.3042 18.421 96.7255 18.8716 97.0295 19.469C97.3388 20.061 97.4935 20.797 97.4935 21.677C97.4935 22.5516 97.3388 23.2876 97.0295 23.885C96.7255 24.4823 96.3042 24.933 95.7655 25.237C95.2322 25.541 94.6242 25.693 93.9415 25.693ZM93.9095 24.605C94.4055 24.605 94.8268 24.4876 95.1735 24.253C95.5202 24.013 95.7815 23.6743 95.9575 23.237C96.1388 22.7996 96.2295 22.2796 96.2295 21.677C96.2295 20.765 96.0402 20.0476 95.6615 19.525C95.2828 18.997 94.7202 18.733 93.9735 18.733C93.4722 18.733 93.0482 18.853 92.7015 19.093C92.3602 19.3276 92.0988 19.6663 91.9175 20.109C91.7415 20.5463 91.6535 21.069 91.6535 21.677C91.6535 22.5783 91.8428 23.293 92.2215 23.821C92.6055 24.3436 93.1682 24.605 93.9095 24.605ZM105.283 17.837H106.531V25.501H105.283V17.837ZM99.8595 17.837H101.107V22.605C101.107 23.245 101.262 23.7303 101.571 24.061C101.886 24.3916 102.334 24.557 102.915 24.557C103.395 24.557 103.811 24.429 104.163 24.173C104.521 23.917 104.795 23.565 104.987 23.117C105.185 22.6636 105.283 22.1463 105.283 21.565H105.747C105.747 22.4236 105.622 23.157 105.371 23.765C105.126 24.373 104.777 24.8396 104.323 25.165C103.875 25.485 103.347 25.645 102.739 25.645C102.163 25.645 101.659 25.5383 101.227 25.325C100.795 25.1116 100.459 24.789 100.219 24.357C99.9795 23.9196 99.8595 23.3676 99.8595 22.701V17.837ZM113.888 25.501V14.589H115.136V25.501H113.888ZM119.236 16.045C118.98 16.045 118.778 15.973 118.628 15.829C118.479 15.6796 118.404 15.485 118.404 15.245C118.404 15.0103 118.479 14.8236 118.628 14.685C118.778 14.5463 118.98 14.477 119.236 14.477C119.492 14.477 119.695 14.5463 119.844 14.685C119.994 14.8236 120.068 15.0103 120.068 15.245C120.068 15.485 119.994 15.6796 119.844 15.829C119.695 15.973 119.492 16.045 119.236 16.045ZM118.612 25.501V17.837H119.86V25.501H118.612ZM123.458 25.501V14.589H124.706V25.501H123.458ZM124.514 21.117L128.418 17.853H130.162L124.514 22.445V21.117ZM128.802 25.501L125.17 20.669L126.434 20.445L130.338 25.501H128.802ZM135.29 25.693C134.628 25.693 134.036 25.525 133.514 25.189C132.996 24.8476 132.586 24.3756 132.282 23.773C131.983 23.1703 131.834 22.477 131.834 21.693C131.834 20.8556 131.983 20.1356 132.282 19.533C132.58 18.9303 132.988 18.469 133.506 18.149C134.028 17.8236 134.623 17.661 135.29 17.661C135.871 17.661 136.367 17.7783 136.778 18.013C137.188 18.2476 137.519 18.565 137.77 18.965C138.02 19.365 138.194 19.8183 138.29 20.325C138.391 20.8263 138.42 21.3463 138.378 21.885H132.842V21.117H137.554L137.186 21.357C137.202 21.0423 137.183 20.7276 137.13 20.413C137.082 20.0983 136.988 19.8103 136.85 19.549C136.711 19.2823 136.516 19.069 136.266 18.909C136.015 18.749 135.695 18.669 135.306 18.669C134.815 18.669 134.404 18.7943 134.074 19.045C133.743 19.2956 133.495 19.6263 133.33 20.037C133.164 20.4423 133.082 20.8823 133.082 21.357V21.869C133.082 22.4023 133.162 22.8796 133.322 23.301C133.487 23.7223 133.732 24.0556 134.058 24.301C134.383 24.5463 134.794 24.669 135.29 24.669C135.786 24.669 136.194 24.549 136.514 24.309C136.834 24.069 137.028 23.7143 137.098 23.245H138.394C138.314 23.7516 138.132 24.189 137.85 24.557C137.567 24.9196 137.207 25.1996 136.77 25.397C136.332 25.5943 135.839 25.693 135.29 25.693ZM147.321 25.693C146.905 25.693 146.532 25.613 146.201 25.453C145.87 25.293 145.609 25.053 145.417 24.733C145.225 24.413 145.129 24.013 145.129 23.533V15.725H146.361V23.501C146.361 24.2903 146.729 24.685 147.465 24.685C147.684 24.685 147.894 24.661 148.097 24.613C148.305 24.565 148.537 24.493 148.793 24.397L148.969 25.293C148.697 25.4103 148.425 25.5063 148.153 25.581C147.886 25.6556 147.609 25.693 147.321 25.693ZM143.897 18.717V17.853H148.777V18.717H143.897ZM153.913 25.693C153.225 25.693 152.611 25.541 152.073 25.237C151.539 24.933 151.118 24.4823 150.809 23.885C150.499 23.2876 150.345 22.5516 150.345 21.677C150.345 20.797 150.499 20.061 150.809 19.469C151.118 18.8716 151.539 18.421 152.073 18.117C152.611 17.813 153.225 17.661 153.913 17.661C154.595 17.661 155.203 17.813 155.737 18.117C156.275 18.421 156.697 18.8716 157.001 19.469C157.31 20.061 157.465 20.797 157.465 21.677C157.465 22.5516 157.31 23.2876 157.001 23.885C156.697 24.4823 156.275 24.933 155.737 25.237C155.203 25.541 154.595 25.693 153.913 25.693ZM153.881 24.605C154.377 24.605 154.798 24.4876 155.145 24.253C155.491 24.013 155.753 23.6743 155.929 23.237C156.11 22.7996 156.201 22.2796 156.201 21.677C156.201 20.765 156.011 20.0476 155.633 19.525C155.254 18.997 154.691 18.733 153.945 18.733C153.443 18.733 153.019 18.853 152.673 19.093C152.331 19.3276 152.07 19.6663 151.889 20.109C151.713 20.5463 151.625 21.069 151.625 21.677C151.625 22.5783 151.814 23.293 152.193 23.821C152.577 24.3436 153.139 24.605 153.881 24.605ZM164.012 25.501V17.837H165.26V25.501H164.012ZM164.876 22.045C164.876 21.0743 164.969 20.269 165.156 19.629C165.342 18.9836 165.614 18.5036 165.972 18.189C166.334 17.869 166.774 17.709 167.292 17.709C167.462 17.709 167.617 17.7223 167.756 17.749C167.9 17.7703 168.044 17.805 168.188 17.853L168.108 19.085C167.958 19.037 167.796 18.997 167.62 18.965C167.444 18.9276 167.286 18.909 167.148 18.909C166.694 18.909 166.329 19.0396 166.052 19.301C165.774 19.557 165.572 19.9196 165.444 20.389C165.321 20.8583 165.26 21.4103 165.26 22.045H164.876ZM172.609 25.693C171.948 25.693 171.356 25.525 170.833 25.189C170.316 24.8476 169.905 24.3756 169.601 23.773C169.302 23.1703 169.153 22.477 169.153 21.693C169.153 20.8556 169.302 20.1356 169.601 19.533C169.9 18.9303 170.308 18.469 170.825 18.149C171.348 17.8236 171.942 17.661 172.609 17.661C173.19 17.661 173.686 17.7783 174.097 18.013C174.508 18.2476 174.838 18.565 175.089 18.965C175.34 19.365 175.513 19.8183 175.609 20.325C175.71 20.8263 175.74 21.3463 175.697 21.885H170.161V21.117H174.873L174.505 21.357C174.521 21.0423 174.502 20.7276 174.449 20.413C174.401 20.0983 174.308 19.8103 174.169 19.549C174.03 19.2823 173.836 19.069 173.585 18.909C173.334 18.749 173.014 18.669 172.625 18.669C172.134 18.669 171.724 18.7943 171.393 19.045C171.062 19.2956 170.814 19.6263 170.649 20.037C170.484 20.4423 170.401 20.8823 170.401 21.357V21.869C170.401 22.4023 170.481 22.8796 170.641 23.301C170.806 23.7223 171.052 24.0556 171.377 24.301C171.702 24.5463 172.113 24.669 172.609 24.669C173.105 24.669 173.513 24.549 173.833 24.309C174.153 24.069 174.348 23.7143 174.417 23.245H175.713C175.633 23.7516 175.452 24.189 175.169 24.557C174.886 24.9196 174.526 25.1996 174.089 25.397C173.652 25.5943 173.158 25.693 172.609 25.693ZM183.068 25.501L182.908 23.821V20.541C182.908 19.853 182.761 19.3596 182.468 19.061C182.174 18.757 181.734 18.605 181.148 18.605C180.817 18.605 180.516 18.653 180.244 18.749C179.977 18.845 179.764 18.9943 179.604 19.197C179.449 19.3943 179.372 19.6503 179.372 19.965H177.98C177.98 19.4103 178.116 18.965 178.388 18.629C178.66 18.2876 179.033 18.0423 179.508 17.893C179.988 17.7383 180.534 17.661 181.148 17.661C181.734 17.661 182.254 17.7596 182.708 17.957C183.161 18.1543 183.516 18.469 183.772 18.901C184.028 19.3276 184.156 19.885 184.156 20.573V25.501H183.068ZM180.46 25.693C179.83 25.693 179.31 25.581 178.9 25.357C178.489 25.133 178.182 24.8423 177.98 24.485C177.777 24.1276 177.676 23.7516 177.676 23.357C177.676 22.8396 177.804 22.4183 178.06 22.093C178.321 21.7676 178.676 21.5303 179.124 21.381C179.572 21.2263 180.076 21.149 180.636 21.149C181.036 21.149 181.436 21.189 181.836 21.269C182.241 21.349 182.636 21.4583 183.02 21.597V22.381C182.7 22.253 182.337 22.1516 181.932 22.077C181.532 22.0023 181.164 21.965 180.828 21.965C180.316 21.965 179.884 22.0716 179.532 22.285C179.18 22.493 179.004 22.8503 179.004 23.357C179.004 23.7303 179.137 24.0503 179.404 24.317C179.676 24.5836 180.108 24.717 180.7 24.717C181.116 24.717 181.489 24.621 181.82 24.429C182.156 24.2316 182.42 23.9863 182.612 23.693C182.809 23.3996 182.908 23.1063 182.908 22.813H183.212C183.212 23.325 183.1 23.7996 182.876 24.237C182.657 24.6743 182.342 25.0263 181.932 25.293C181.521 25.5596 181.03 25.693 180.46 25.693ZM190.04 25.693C189.421 25.693 188.853 25.5276 188.336 25.197C187.819 24.861 187.405 24.3916 187.096 23.789C186.787 23.181 186.632 22.4663 186.632 21.645C186.632 20.829 186.784 20.1223 187.088 19.525C187.392 18.9276 187.795 18.469 188.296 18.149C188.803 17.8236 189.357 17.661 189.96 17.661C190.52 17.661 191.011 17.797 191.432 18.069C191.859 18.341 192.189 18.733 192.424 19.245C192.659 19.757 192.776 20.3756 192.776 21.101H192.296C192.296 20.5943 192.195 20.1676 191.992 19.821C191.795 19.4743 191.536 19.213 191.216 19.037C190.896 18.8556 190.552 18.765 190.184 18.765C189.768 18.765 189.387 18.8823 189.04 19.117C188.699 19.3463 188.424 19.677 188.216 20.109C188.013 20.5356 187.912 21.0476 187.912 21.645C187.912 22.253 188.013 22.7756 188.216 23.213C188.424 23.6503 188.699 23.9863 189.04 24.221C189.387 24.4556 189.768 24.573 190.184 24.573C190.531 24.573 190.864 24.4823 191.184 24.301C191.509 24.1196 191.776 23.8556 191.984 23.509C192.192 23.157 192.296 22.733 192.296 22.237H192.776C192.776 22.9783 192.653 23.6076 192.408 24.125C192.168 24.637 191.84 25.0263 191.424 25.293C191.013 25.5596 190.552 25.693 190.04 25.693ZM192.504 25.501L192.296 23.709V14.589H193.544V25.501H192.504ZM203.257 25.693C202.841 25.693 202.468 25.613 202.137 25.453C201.807 25.293 201.545 25.053 201.353 24.733C201.161 24.413 201.065 24.013 201.065 23.533V15.725H202.297V23.501C202.297 24.2903 202.665 24.685 203.401 24.685C203.62 24.685 203.831 24.661 204.033 24.613C204.241 24.565 204.473 24.493 204.729 24.397L204.905 25.293C204.633 25.4103 204.361 25.5063 204.089 25.581C203.823 25.6556 203.545 25.693 203.257 25.693ZM199.833 18.717V17.853H204.713V18.717H199.833ZM212.521 25.501V21.005C212.521 20.2743 212.345 19.7196 211.993 19.341C211.646 18.957 211.172 18.765 210.569 18.765C210.11 18.765 209.713 18.8903 209.377 19.141C209.041 19.3916 208.782 19.7516 208.601 20.221C208.42 20.685 208.329 21.2396 208.329 21.885H207.849C207.849 20.9943 207.966 20.2343 208.201 19.605C208.436 18.9756 208.777 18.4956 209.225 18.165C209.678 17.829 210.228 17.661 210.873 17.661C211.476 17.661 211.99 17.797 212.417 18.069C212.849 18.3356 213.18 18.7196 213.409 19.221C213.638 19.7223 213.753 20.317 213.753 21.005V25.501H212.521ZM207.081 25.501V14.589H208.329V25.501H207.081ZM219.553 25.693C218.892 25.693 218.3 25.525 217.777 25.189C217.26 24.8476 216.849 24.3756 216.545 23.773C216.247 23.1703 216.097 22.477 216.097 21.693C216.097 20.8556 216.247 20.1356 216.545 19.533C216.844 18.9303 217.252 18.469 217.769 18.149C218.292 17.8236 218.887 17.661 219.553 17.661C220.135 17.661 220.631 17.7783 221.041 18.013C221.452 18.2476 221.783 18.565 222.033 18.965C222.284 19.365 222.457 19.8183 222.553 20.325C222.655 20.8263 222.684 21.3463 222.641 21.885H217.105V21.117H221.817L221.449 21.357C221.465 21.0423 221.447 20.7276 221.393 20.413C221.345 20.0983 221.252 19.8103 221.113 19.549C220.975 19.2823 220.78 19.069 220.529 18.909C220.279 18.749 219.959 18.669 219.569 18.669C219.079 18.669 218.668 18.7943 218.337 19.045C218.007 19.2956 217.759 19.6263 217.593 20.037C217.428 20.4423 217.345 20.8823 217.345 21.357V21.869C217.345 22.4023 217.425 22.8796 217.585 23.301C217.751 23.7223 217.996 24.0556 218.321 24.301C218.647 24.5463 219.057 24.669 219.553 24.669C220.049 24.669 220.457 24.549 220.777 24.309C221.097 24.069 221.292 23.7143 221.361 23.245H222.657C222.577 23.7516 222.396 24.189 222.113 24.557C221.831 24.9196 221.471 25.1996 221.033 25.397C220.596 25.5943 220.103 25.693 219.553 25.693ZM36.088 45.693C35.528 45.693 35.04 45.565 34.624 45.309C34.2133 45.053 33.896 44.6796 33.672 44.189C33.448 43.693 33.336 43.0903 33.336 42.381H33.864C33.864 42.8556 33.9627 43.2556 34.16 43.581C34.3573 43.9063 34.6133 44.1543 34.928 44.325C35.248 44.4903 35.5867 44.573 35.944 44.573C36.328 44.573 36.696 44.4636 37.048 44.245C37.4 44.021 37.688 43.693 37.912 43.261C38.136 42.829 38.248 42.2956 38.248 41.661C38.248 41.053 38.144 40.533 37.936 40.101C37.7333 39.669 37.4587 39.3383 37.112 39.109C36.7653 38.8796 36.3813 38.765 35.96 38.765C35.5973 38.765 35.256 38.853 34.936 39.029C34.616 39.205 34.3573 39.4636 34.16 39.805C33.9627 40.141 33.864 40.557 33.864 41.053H33.336C33.336 40.3116 33.4587 39.6903 33.704 39.189C33.9493 38.6823 34.2827 38.301 34.704 38.045C35.1253 37.789 35.5973 37.661 36.12 37.661C36.7173 37.661 37.2747 37.821 37.792 38.141C38.3093 38.461 38.728 38.9196 39.048 39.517C39.368 40.1143 39.528 40.829 39.528 41.661C39.528 42.5036 39.3653 43.2263 39.04 43.829C38.72 44.4316 38.2987 44.893 37.776 45.213C37.2533 45.533 36.6907 45.693 36.088 45.693ZM32.616 49.261V37.853H33.656L33.864 39.645V49.261H32.616ZM46.8714 45.501L46.7114 43.821V40.541C46.7114 39.853 46.5647 39.3596 46.2714 39.061C45.978 38.757 45.538 38.605 44.9514 38.605C44.6207 38.605 44.3194 38.653 44.0474 38.749C43.7807 38.845 43.5674 38.9943 43.4074 39.197C43.2527 39.3943 43.1754 39.6503 43.1754 39.965H41.7834C41.7834 39.4103 41.9194 38.965 42.1914 38.629C42.4634 38.2876 42.8367 38.0423 43.3114 37.893C43.7914 37.7383 44.338 37.661 44.9514 37.661C45.538 37.661 46.058 37.7596 46.5114 37.957C46.9647 38.1543 47.3194 38.469 47.5754 38.901C47.8314 39.3276 47.9594 39.885 47.9594 40.573V45.501H46.8714ZM44.2634 45.693C43.634 45.693 43.114 45.581 42.7034 45.357C42.2927 45.133 41.986 44.8423 41.7834 44.485C41.5807 44.1276 41.4794 43.7516 41.4794 43.357C41.4794 42.8396 41.6074 42.4183 41.8634 42.093C42.1247 41.7676 42.4794 41.5303 42.9274 41.381C43.3754 41.2263 43.8794 41.149 44.4394 41.149C44.8394 41.149 45.2394 41.189 45.6394 41.269C46.0447 41.349 46.4394 41.4583 46.8234 41.597V42.381C46.5034 42.253 46.1407 42.1516 45.7354 42.077C45.3354 42.0023 44.9674 41.965 44.6314 41.965C44.1194 41.965 43.6874 42.0716 43.3354 42.285C42.9834 42.493 42.8074 42.8503 42.8074 43.357C42.8074 43.7303 42.9407 44.0503 43.2074 44.317C43.4794 44.5836 43.9114 44.717 44.5034 44.717C44.9194 44.717 45.2927 44.621 45.6234 44.429C45.9594 44.2316 46.2234 43.9863 46.4154 43.693C46.6127 43.3996 46.7114 43.1063 46.7114 42.813H47.0154C47.0154 43.325 46.9034 43.7996 46.6794 44.237C46.4607 44.6743 46.146 45.0263 45.7354 45.293C45.3247 45.5596 44.834 45.693 44.2634 45.693ZM51.1079 45.501V37.837H52.3559V45.501H51.1079ZM51.9719 42.045C51.9719 41.0743 52.0652 40.269 52.2519 39.629C52.4385 38.9836 52.7105 38.5036 53.0679 38.189C53.4305 37.869 53.8705 37.709 54.3879 37.709C54.5585 37.709 54.7132 37.7223 54.8519 37.749C54.9959 37.7703 55.1399 37.805 55.2839 37.853L55.2039 39.085C55.0545 39.037 54.8919 38.997 54.7159 38.965C54.5399 38.9276 54.3825 38.909 54.2439 38.909C53.7905 38.909 53.4252 39.0396 53.1479 39.301C52.8705 39.557 52.6679 39.9196 52.5399 40.389C52.4172 40.8583 52.3559 41.4103 52.3559 42.045H51.9719ZM61.7851 45.501L61.6251 43.821V40.541C61.6251 39.853 61.4785 39.3596 61.1851 39.061C60.8918 38.757 60.4518 38.605 59.8651 38.605C59.5345 38.605 59.2331 38.653 58.9611 38.749C58.6945 38.845 58.4811 38.9943 58.3211 39.197C58.1665 39.3943 58.0891 39.6503 58.0891 39.965H56.6971C56.6971 39.4103 56.8331 38.965 57.1051 38.629C57.3771 38.2876 57.7505 38.0423 58.2251 37.893C58.7051 37.7383 59.2518 37.661 59.8651 37.661C60.4518 37.661 60.9718 37.7596 61.4251 37.957C61.8785 38.1543 62.2331 38.469 62.4891 38.901C62.7451 39.3276 62.8731 39.885 62.8731 40.573V45.501H61.7851ZM59.1771 45.693C58.5478 45.693 58.0278 45.581 57.6171 45.357C57.2065 45.133 56.8998 44.8423 56.6971 44.485C56.4945 44.1276 56.3931 43.7516 56.3931 43.357C56.3931 42.8396 56.5211 42.4183 56.7771 42.093C57.0385 41.7676 57.3931 41.5303 57.8411 41.381C58.2891 41.2263 58.7931 41.149 59.3531 41.149C59.7531 41.149 60.1531 41.189 60.5531 41.269C60.9585 41.349 61.3531 41.4583 61.7371 41.597V42.381C61.4171 42.253 61.0545 42.1516 60.6491 42.077C60.2491 42.0023 59.8811 41.965 59.5451 41.965C59.0331 41.965 58.6011 42.0716 58.2491 42.285C57.8971 42.493 57.7211 42.8503 57.7211 43.357C57.7211 43.7303 57.8545 44.0503 58.1211 44.317C58.3931 44.5836 58.8251 44.717 59.4171 44.717C59.8331 44.717 60.2065 44.621 60.5371 44.429C60.8731 44.2316 61.1371 43.9863 61.3291 43.693C61.5265 43.3996 61.6251 43.1063 61.6251 42.813H61.9291C61.9291 43.325 61.8171 43.7996 61.5931 44.237C61.3745 44.6743 61.0598 45.0263 60.6491 45.293C60.2385 45.5596 59.7478 45.693 59.1771 45.693ZM68.7256 49.437C67.9416 49.437 67.2616 49.325 66.6856 49.101C66.1096 48.8823 65.6616 48.5863 65.3416 48.213C65.027 47.845 64.8696 47.437 64.8696 46.989C64.8696 46.397 65.0856 45.9436 65.5176 45.629C65.955 45.3196 66.5176 45.165 67.2056 45.165L67.8936 45.597C67.3176 45.597 66.8723 45.717 66.5576 45.957C66.243 46.197 66.0856 46.525 66.0856 46.941C66.0856 47.357 66.3096 47.709 66.7576 47.997C67.2056 48.285 67.8616 48.429 68.7256 48.429C69.3656 48.429 69.9256 48.3356 70.4056 48.149C70.891 47.9676 71.267 47.7276 71.5336 47.429C71.8056 47.1356 71.9416 46.8183 71.9416 46.477C71.9416 46.237 71.8536 46.029 71.6776 45.853C71.5016 45.6823 71.2323 45.597 70.8696 45.597H67.8936C67.3763 45.597 66.9283 45.5196 66.5496 45.365C66.1763 45.205 65.8883 44.997 65.6856 44.741C65.483 44.485 65.3816 44.205 65.3816 43.901C65.3816 43.581 65.4723 43.309 65.6536 43.085C65.835 42.861 66.0696 42.6903 66.3576 42.573C66.651 42.4556 66.9656 42.397 67.3016 42.397L67.5416 42.861C67.3816 42.861 67.219 42.8983 67.0536 42.973C66.8936 43.0423 66.7576 43.149 66.6456 43.293C66.539 43.4316 66.4856 43.6076 66.4856 43.821C66.4856 44.0663 66.587 44.2716 66.7896 44.437C66.9923 44.6023 67.3603 44.685 67.8936 44.685H70.8696C71.5896 44.685 72.155 44.837 72.5656 45.141C72.9816 45.445 73.1896 45.869 73.1896 46.413C73.1896 46.9143 73.011 47.3943 72.6536 47.853C72.2963 48.317 71.7843 48.6956 71.1176 48.989C70.451 49.2876 69.6536 49.437 68.7256 49.437ZM68.9496 43.261C68.363 43.261 67.8323 43.1436 67.3576 42.909C66.8883 42.6743 66.515 42.3463 66.2376 41.925C65.9656 41.5036 65.8296 41.0156 65.8296 40.461C65.8296 39.901 65.9656 39.4103 66.2376 38.989C66.515 38.5676 66.8883 38.2423 67.3576 38.013C67.8323 37.7783 68.363 37.661 68.9496 37.661C69.5203 37.661 70.0376 37.7783 70.5016 38.013C70.971 38.2423 71.3443 38.5676 71.6216 38.989C71.899 39.4103 72.0376 39.901 72.0376 40.461C72.0376 41.0156 71.899 41.5036 71.6216 41.925C71.3443 42.3463 70.971 42.6743 70.5016 42.909C70.0376 43.1436 69.5203 43.261 68.9496 43.261ZM68.9496 42.365C69.5363 42.365 69.9923 42.1836 70.3176 41.821C70.643 41.4583 70.8056 41.005 70.8056 40.461C70.8056 39.901 70.643 39.4476 70.3176 39.101C69.9923 38.749 69.5363 38.573 68.9496 38.573C68.3683 38.573 67.9096 38.749 67.5736 39.101C67.243 39.4476 67.0776 39.901 67.0776 40.461C67.0776 41.005 67.243 41.4583 67.5736 41.821C67.9096 42.1836 68.3683 42.365 68.9496 42.365ZM71.4616 38.877L70.8696 38.637C70.8696 38.189 70.9576 37.797 71.1336 37.461C71.3096 37.1196 71.5603 36.8556 71.8856 36.669C72.211 36.477 72.5976 36.381 73.0456 36.381L72.9496 37.613C72.4696 37.613 72.1016 37.717 71.8456 37.925C71.5896 38.1276 71.4616 38.445 71.4616 38.877ZM75.2129 45.501V37.837H76.4609V45.501H75.2129ZM76.0769 42.045C76.0769 41.0743 76.1702 40.269 76.3569 39.629C76.5435 38.9836 76.8155 38.5036 77.1729 38.189C77.5355 37.869 77.9755 37.709 78.4929 37.709C78.6635 37.709 78.8182 37.7223 78.9569 37.749C79.1009 37.7703 79.2449 37.805 79.3889 37.853L79.3089 39.085C79.1595 39.037 78.9969 38.997 78.8209 38.965C78.6449 38.9276 78.4875 38.909 78.3489 38.909C77.8955 38.909 77.5302 39.0396 77.2529 39.301C76.9755 39.557 76.7729 39.9196 76.6449 40.389C76.5222 40.8583 76.4609 41.4103 76.4609 42.045H76.0769ZM85.8901 45.501L85.7301 43.821V40.541C85.7301 39.853 85.5835 39.3596 85.2901 39.061C84.9968 38.757 84.5568 38.605 83.9701 38.605C83.6395 38.605 83.3381 38.653 83.0661 38.749C82.7995 38.845 82.5861 38.9943 82.4261 39.197C82.2715 39.3943 82.1941 39.6503 82.1941 39.965H80.8021C80.8021 39.4103 80.9381 38.965 81.2101 38.629C81.4821 38.2876 81.8555 38.0423 82.3301 37.893C82.8101 37.7383 83.3568 37.661 83.9701 37.661C84.5568 37.661 85.0768 37.7596 85.5301 37.957C85.9835 38.1543 86.3381 38.469 86.5941 38.901C86.8501 39.3276 86.9781 39.885 86.9781 40.573V45.501H85.8901ZM83.2821 45.693C82.6528 45.693 82.1328 45.581 81.7221 45.357C81.3115 45.133 81.0048 44.8423 80.8021 44.485C80.5995 44.1276 80.4981 43.7516 80.4981 43.357C80.4981 42.8396 80.6261 42.4183 80.8821 42.093C81.1435 41.7676 81.4981 41.5303 81.9461 41.381C82.3941 41.2263 82.8981 41.149 83.4581 41.149C83.8581 41.149 84.2581 41.189 84.6581 41.269C85.0635 41.349 85.4581 41.4583 85.8421 41.597V42.381C85.5221 42.253 85.1595 42.1516 84.7541 42.077C84.3541 42.0023 83.9861 41.965 83.6501 41.965C83.1381 41.965 82.7061 42.0716 82.3541 42.285C82.0021 42.493 81.8261 42.8503 81.8261 43.357C81.8261 43.7303 81.9595 44.0503 82.2261 44.317C82.4981 44.5836 82.9301 44.717 83.5221 44.717C83.9381 44.717 84.3115 44.621 84.6421 44.429C84.9781 44.2316 85.2421 43.9863 85.4341 43.693C85.6315 43.3996 85.7301 43.1063 85.7301 42.813H86.0341C86.0341 43.325 85.9221 43.7996 85.6981 44.237C85.4795 44.6743 85.1648 45.0263 84.7541 45.293C84.3435 45.5596 83.8528 45.693 83.2821 45.693ZM93.5986 45.693C93.0386 45.693 92.5506 45.565 92.1346 45.309C91.724 45.053 91.4066 44.6796 91.1826 44.189C90.9586 43.693 90.8466 43.0903 90.8466 42.381H91.3746C91.3746 42.8556 91.4733 43.2556 91.6706 43.581C91.868 43.9063 92.124 44.1543 92.4386 44.325C92.7586 44.4903 93.0973 44.573 93.4546 44.573C93.8386 44.573 94.2066 44.4636 94.5586 44.245C94.9106 44.021 95.1986 43.693 95.4226 43.261C95.6466 42.829 95.7586 42.2956 95.7586 41.661C95.7586 41.053 95.6546 40.533 95.4466 40.101C95.244 39.669 94.9693 39.3383 94.6226 39.109C94.276 38.8796 93.892 38.765 93.4706 38.765C93.108 38.765 92.7666 38.853 92.4466 39.029C92.1266 39.205 91.868 39.4636 91.6706 39.805C91.4733 40.141 91.3746 40.557 91.3746 41.053H90.8466C90.8466 40.3116 90.9693 39.6903 91.2146 39.189C91.46 38.6823 91.7933 38.301 92.2146 38.045C92.636 37.789 93.108 37.661 93.6306 37.661C94.228 37.661 94.7853 37.821 95.3026 38.141C95.82 38.461 96.2386 38.9196 96.5586 39.517C96.8786 40.1143 97.0386 40.829 97.0386 41.661C97.0386 42.5036 96.876 43.2263 96.5506 43.829C96.2306 44.4316 95.8093 44.893 95.2866 45.213C94.764 45.533 94.2013 45.693 93.5986 45.693ZM90.1266 49.261V37.853H91.1666L91.3746 39.645V49.261H90.1266ZM105.086 45.501V41.005C105.086 40.2743 104.91 39.7196 104.558 39.341C104.211 38.957 103.737 38.765 103.134 38.765C102.675 38.765 102.278 38.8903 101.942 39.141C101.606 39.3916 101.347 39.7516 101.166 40.221C100.985 40.685 100.894 41.2396 100.894 41.885H100.414C100.414 40.9943 100.531 40.2343 100.766 39.605C101.001 38.9756 101.342 38.4956 101.79 38.165C102.243 37.829 102.793 37.661 103.438 37.661C104.041 37.661 104.555 37.797 104.982 38.069C105.414 38.3356 105.745 38.7196 105.974 39.221C106.203 39.7223 106.318 40.317 106.318 41.005V45.501H105.086ZM99.646 45.501V34.589H100.894V45.501H99.646ZM118.155 45.501L117.995 43.821V40.541C117.995 39.853 117.848 39.3596 117.555 39.061C117.262 38.757 116.822 38.605 116.235 38.605C115.904 38.605 115.603 38.653 115.331 38.749C115.064 38.845 114.851 38.9943 114.691 39.197C114.536 39.3943 114.459 39.6503 114.459 39.965H113.067C113.067 39.4103 113.203 38.965 113.475 38.629C113.747 38.2876 114.12 38.0423 114.595 37.893C115.075 37.7383 115.622 37.661 116.235 37.661C116.822 37.661 117.342 37.7596 117.795 37.957C118.248 38.1543 118.603 38.469 118.859 38.901C119.115 39.3276 119.243 39.885 119.243 40.573V45.501H118.155ZM115.547 45.693C114.918 45.693 114.398 45.581 113.987 45.357C113.576 45.133 113.27 44.8423 113.067 44.485C112.864 44.1276 112.763 43.7516 112.763 43.357C112.763 42.8396 112.891 42.4183 113.147 42.093C113.408 41.7676 113.763 41.5303 114.211 41.381C114.659 41.2263 115.163 41.149 115.723 41.149C116.123 41.149 116.523 41.189 116.923 41.269C117.328 41.349 117.723 41.4583 118.107 41.597V42.381C117.787 42.253 117.424 42.1516 117.019 42.077C116.619 42.0023 116.251 41.965 115.915 41.965C115.403 41.965 114.971 42.0716 114.619 42.285C114.267 42.493 114.091 42.8503 114.091 43.357C114.091 43.7303 114.224 44.0503 114.491 44.317C114.763 44.5836 115.195 44.717 115.787 44.717C116.203 44.717 116.576 44.621 116.907 44.429C117.243 44.2316 117.507 43.9863 117.699 43.693C117.896 43.3996 117.995 43.1063 117.995 42.813H118.299C118.299 43.325 118.187 43.7996 117.963 44.237C117.744 44.6743 117.43 45.0263 117.019 45.293C116.608 45.5596 116.118 45.693 115.547 45.693ZM125.896 45.693C125.384 45.693 124.92 45.5596 124.504 45.293C124.093 45.0263 123.765 44.637 123.52 44.125C123.28 43.6076 123.16 42.9783 123.16 42.237H123.64C123.64 42.733 123.741 43.157 123.944 43.509C124.152 43.8556 124.418 44.1196 124.744 44.301C125.069 44.4823 125.41 44.573 125.768 44.573C126.178 44.573 126.554 44.4556 126.896 44.221C127.237 43.9863 127.509 43.6503 127.712 43.213C127.92 42.7756 128.024 42.253 128.024 41.645C128.024 41.0476 127.922 40.5356 127.72 40.109C127.517 39.677 127.242 39.3463 126.896 39.117C126.554 38.8823 126.173 38.765 125.752 38.765C125.389 38.765 125.045 38.8556 124.72 39.037C124.4 39.213 124.138 39.4743 123.936 39.821C123.738 40.1676 123.64 40.5943 123.64 41.101H123.16C123.16 40.3756 123.277 39.757 123.512 39.245C123.752 38.733 124.082 38.341 124.504 38.069C124.925 37.797 125.416 37.661 125.976 37.661C126.578 37.661 127.13 37.8236 127.632 38.149C128.138 38.469 128.544 38.9276 128.848 39.525C129.152 40.1223 129.304 40.829 129.304 41.645C129.304 42.4663 129.149 43.181 128.84 43.789C128.53 44.3916 128.117 44.861 127.6 45.197C127.082 45.5276 126.514 45.693 125.896 45.693ZM122.392 45.501V34.589H123.64V43.709L123.272 45.501H122.392ZM134.804 45.693C134.116 45.693 133.503 45.541 132.964 45.237C132.431 44.933 132.009 44.4823 131.7 43.885C131.391 43.2876 131.236 42.5516 131.236 41.677C131.236 40.797 131.391 40.061 131.7 39.469C132.009 38.8716 132.431 38.421 132.964 38.117C133.503 37.813 134.116 37.661 134.804 37.661C135.487 37.661 136.095 37.813 136.628 38.117C137.167 38.421 137.588 38.8716 137.892 39.469C138.201 40.061 138.356 40.797 138.356 41.677C138.356 42.5516 138.201 43.2876 137.892 43.885C137.588 44.4823 137.167 44.933 136.628 45.237C136.095 45.541 135.487 45.693 134.804 45.693ZM134.772 44.605C135.268 44.605 135.689 44.4876 136.036 44.253C136.383 44.013 136.644 43.6743 136.82 43.237C137.001 42.7996 137.092 42.2796 137.092 41.677C137.092 40.765 136.903 40.0476 136.524 39.525C136.145 38.997 135.583 38.733 134.836 38.733C134.335 38.733 133.911 38.853 133.564 39.093C133.223 39.3276 132.961 39.6663 132.78 40.109C132.604 40.5463 132.516 41.069 132.516 41.677C132.516 42.5783 132.705 43.293 133.084 43.821C133.468 44.3436 134.031 44.605 134.772 44.605ZM146.146 37.837H147.394V45.501H146.146V37.837ZM140.722 37.837H141.97V42.605C141.97 43.245 142.125 43.7303 142.434 44.061C142.749 44.3916 143.197 44.557 143.778 44.557C144.258 44.557 144.674 44.429 145.026 44.173C145.383 43.917 145.658 43.565 145.85 43.117C146.047 42.6636 146.146 42.1463 146.146 41.565H146.61C146.61 42.4236 146.485 43.157 146.234 43.765C145.989 44.373 145.639 44.8396 145.186 45.165C144.738 45.485 144.21 45.645 143.602 45.645C143.026 45.645 142.522 45.5383 142.09 45.325C141.658 45.1116 141.322 44.789 141.082 44.357C140.842 43.9196 140.722 43.3676 140.722 42.701V37.837ZM153.145 45.693C152.729 45.693 152.356 45.613 152.025 45.453C151.695 45.293 151.433 45.053 151.241 44.733C151.049 44.413 150.953 44.013 150.953 43.533V35.725H152.185V43.501C152.185 44.2903 152.553 44.685 153.289 44.685C153.508 44.685 153.719 44.661 153.921 44.613C154.129 44.565 154.361 44.493 154.617 44.397L154.793 45.293C154.521 45.4103 154.249 45.5063 153.977 45.581C153.711 45.6556 153.433 45.693 153.145 45.693ZM149.721 38.717V37.853H154.601V38.717H149.721ZM164.755 45.501V35.117H168.595C169.838 35.117 170.79 35.4076 171.451 35.989C172.118 36.5703 172.451 37.341 172.451 38.301C172.451 39.245 172.118 40.0076 171.451 40.589C170.79 41.165 169.838 41.453 168.595 41.453H166.643V45.501H164.755ZM170.371 45.501L167.619 40.637H169.635L172.835 45.501H170.371ZM166.643 40.189H168.403C169.096 40.189 169.622 40.0316 169.979 39.717C170.336 39.397 170.515 38.9836 170.515 38.477C170.515 37.9596 170.352 37.5436 170.027 37.229C169.702 36.909 169.224 36.749 168.595 36.749H166.643V40.189ZM175.212 45.501V35.117H177.1V45.501H175.212ZM184.023 45.725C183.111 45.725 182.316 45.509 181.639 45.077C180.967 44.6396 180.444 44.0156 180.071 43.205C179.697 42.3943 179.511 41.421 179.511 40.285C179.511 39.1116 179.703 38.1276 180.087 37.333C180.476 36.533 181.009 35.9303 181.687 35.525C182.369 35.1143 183.148 34.909 184.023 34.909C185.233 34.909 186.177 35.2023 186.855 35.789C187.537 36.3756 187.975 37.1383 188.167 38.077L186.151 38.445C185.985 37.901 185.721 37.461 185.359 37.125C184.996 36.789 184.551 36.621 184.023 36.621C183.559 36.621 183.14 36.757 182.767 37.029C182.393 37.2956 182.095 37.701 181.871 38.245C181.652 38.789 181.543 39.469 181.543 40.285C181.543 41.053 181.639 41.7143 181.831 42.269C182.028 42.8236 182.311 43.2503 182.679 43.549C183.047 43.8476 183.495 43.997 184.023 43.997C184.7 43.997 185.223 43.8183 185.591 43.461C185.964 43.0983 186.151 42.637 186.151 42.077H188.167C188.167 42.8503 187.999 43.509 187.663 44.053C187.332 44.5916 186.857 45.005 186.239 45.293C185.62 45.581 184.881 45.725 184.023 45.725ZM190.547 35.117H192.435V39.453H196.963V35.117H198.851V45.501H196.963V41.101H192.435V45.501H190.547V35.117ZM35.72 63.437L38.376 55.117H40.36L36.792 65.501H34.808L31.288 55.117H33.288L35.912 63.437H35.72ZM42.2886 65.501V55.117H44.1766V65.501H42.2886ZM45.9316 56.749V55.117H54.2516V56.749H50.6116L51.0356 56.317V65.501H49.1476V56.317L49.5716 56.749H45.9316ZM54.1289 65.501L57.6649 55.117H60.0329L63.4249 65.501H61.4409L60.7209 63.261H56.8649L56.1289 65.501H54.1289ZM57.3449 61.837H60.2729L58.8169 57.373L57.3449 61.837ZM65.4405 55.117H68.1445L71.0725 61.469H70.9125L73.8405 55.117H76.4485V65.501H74.5445V57.293H74.8325L71.6005 64.365H70.3685L67.1525 57.325H67.3285V65.501H65.4405V55.117ZM79.5849 65.501V55.117H81.4729V65.501H79.5849ZM84.5879 55.117H86.6519L91.3719 62.525H91.2279V55.117H93.1159V65.501H91.1959L86.1719 57.645H86.4759V65.501H84.5879V55.117ZM104.231 65.725C103.319 65.725 102.525 65.509 101.847 65.077C101.175 64.6396 100.653 64.0156 100.279 63.205C99.9062 62.3943 99.7195 61.421 99.7195 60.285C99.7195 59.1116 99.9115 58.1276 100.295 57.333C100.685 56.533 101.218 55.9303 101.895 55.525C102.578 55.1143 103.357 54.909 104.231 54.909C105.442 54.909 106.386 55.2023 107.063 55.789C107.746 56.3756 108.183 57.1383 108.375 58.077L106.359 58.445C106.194 57.901 105.93 57.461 105.567 57.125C105.205 56.789 104.759 56.621 104.231 56.621C103.767 56.621 103.349 56.757 102.975 57.029C102.602 57.2956 102.303 57.701 102.079 58.245C101.861 58.789 101.751 59.469 101.751 60.285C101.751 61.053 101.847 61.7143 102.039 62.269C102.237 62.8236 102.519 63.2503 102.887 63.549C103.255 63.8476 103.703 63.997 104.231 63.997C104.909 63.997 105.431 63.8183 105.799 63.461C106.173 63.0983 106.359 62.637 106.359 62.077H108.375C108.375 62.8503 108.207 63.509 107.871 64.053C107.541 64.5916 107.066 65.005 106.447 65.293C105.829 65.581 105.09 65.725 104.231 65.725ZM114.963 65.501V55.117H116.851V65.501H114.963ZM119.966 55.117H122.03L126.75 62.525H126.606V55.117H128.494V65.501H126.574L121.55 57.645H121.854V65.501H119.966V55.117ZM135.419 65.725C134.571 65.725 133.805 65.501 133.123 65.053C132.44 64.605 131.896 63.981 131.491 63.181C131.091 62.3756 130.891 61.437 130.891 60.365C130.891 59.517 131.013 58.757 131.259 58.085C131.509 57.413 131.856 56.8396 132.299 56.365C132.741 55.8903 133.261 55.5303 133.859 55.285C134.456 55.0343 135.104 54.909 135.803 54.909C136.773 54.909 137.587 55.1196 138.243 55.541C138.904 55.9623 139.419 56.6263 139.787 57.533L137.851 57.981C137.579 57.5383 137.264 57.2023 136.907 56.973C136.555 56.7383 136.155 56.621 135.707 56.621C135.195 56.621 134.728 56.773 134.307 57.077C133.885 57.3756 133.549 57.805 133.299 58.365C133.048 58.925 132.923 59.5916 132.923 60.365C132.923 61.0903 133.032 61.725 133.251 62.269C133.475 62.813 133.787 63.237 134.187 63.541C134.587 63.845 135.051 63.997 135.579 63.997C136.027 63.997 136.427 63.8983 136.779 63.701C137.136 63.4983 137.416 63.2103 137.619 62.837C137.827 62.4636 137.931 62.013 137.931 61.485H138.347C138.347 62.349 138.243 63.0983 138.035 63.733C137.832 64.3676 137.515 64.8583 137.083 65.205C136.651 65.5516 136.096 65.725 135.419 65.725ZM138.203 65.501L137.931 63.213V61.421L135.595 61.373V60.173H139.739V65.501H138.203ZM142.615 65.501V55.117H146.455C147.698 55.117 148.65 55.4076 149.311 55.989C149.978 56.5703 150.311 57.341 150.311 58.301C150.311 59.245 149.978 60.0076 149.311 60.589C148.65 61.165 147.698 61.453 146.455 61.453H144.503V65.501H142.615ZM148.231 65.501L145.479 60.637H147.495L150.695 65.501H148.231ZM144.503 60.189H146.263C146.956 60.189 147.482 60.0316 147.839 59.717C148.196 59.397 148.375 58.9836 148.375 58.477C148.375 57.9596 148.212 57.5436 147.887 57.229C147.562 56.909 147.084 56.749 146.455 56.749H144.503V60.189ZM153.056 65.501V55.117H159.728V56.749H154.944V59.485H159.44V61.117H154.944V63.853H159.728V65.501H153.056ZM162.622 55.117H165.982C167.038 55.117 167.964 55.3303 168.758 55.757C169.553 56.1783 170.172 56.7783 170.614 57.557C171.057 58.3356 171.278 59.2556 171.278 60.317C171.278 61.3676 171.057 62.2823 170.614 63.061C170.172 63.8343 169.553 64.4343 168.758 64.861C167.964 65.2876 167.038 65.501 165.982 65.501H162.622V55.117ZM164.51 56.829V63.805H165.982C166.654 63.805 167.233 63.653 167.718 63.349C168.209 63.045 168.585 62.6316 168.846 62.109C169.113 61.581 169.246 60.9836 169.246 60.317C169.246 59.6396 169.113 59.0396 168.846 58.517C168.585 57.9943 168.209 57.5836 167.718 57.285C167.233 56.981 166.654 56.829 165.982 56.829H164.51ZM173.767 65.501V55.117H175.655V65.501H173.767ZM178.786 65.501V55.117H185.458V56.749H180.674V59.485H185.17V61.117H180.674V63.853H185.458V65.501H178.786ZM188.32 55.117H190.384L195.104 62.525H194.96V55.117H196.848V65.501H194.928L189.904 57.645H190.208V65.501H188.32V55.117ZM198.589 56.749V55.117H206.909V56.749H203.269L203.693 56.317V65.501H201.805V56.317L202.229 56.749H198.589ZM212.257 65.725C211.537 65.725 210.873 65.5996 210.265 65.349C209.662 65.0983 209.172 64.717 208.793 64.205C208.42 63.693 208.22 63.0423 208.193 62.253H210.049C210.049 62.653 210.148 62.981 210.345 63.237C210.542 63.493 210.806 63.685 211.137 63.813C211.473 63.9356 211.841 63.997 212.241 63.997C212.625 63.997 212.966 63.9463 213.265 63.845C213.569 63.7436 213.806 63.5996 213.977 63.413C214.153 63.221 214.241 62.9943 214.241 62.733C214.241 62.3863 214.134 62.1143 213.921 61.917C213.713 61.7196 213.377 61.5383 212.913 61.373L210.865 60.557C210.065 60.2423 209.452 59.877 209.025 59.461C208.598 59.045 208.385 58.4716 208.385 57.741C208.385 56.8983 208.718 56.2156 209.385 55.693C210.052 55.1703 210.982 54.909 212.177 54.909C213.34 54.909 214.238 55.181 214.873 55.725C215.508 56.2636 215.868 57.0156 215.953 57.981H214.097C214.028 57.5703 213.841 57.2423 213.537 56.997C213.233 56.7463 212.78 56.621 212.177 56.621C211.644 56.621 211.222 56.733 210.913 56.957C210.604 57.1756 210.449 57.453 210.449 57.789C210.449 58.077 210.545 58.3063 210.737 58.477C210.934 58.6423 211.238 58.8023 211.649 58.957L213.921 59.837C214.689 60.1356 215.278 60.5116 215.689 60.965C216.1 61.4183 216.305 61.9863 216.305 62.669C216.305 63.293 216.148 63.8343 215.833 64.293C215.518 64.7463 215.06 65.0983 214.457 65.349C213.854 65.5996 213.121 65.725 212.257 65.725ZM224.555 62.941V62.221C224.555 61.757 224.603 61.3756 224.699 61.077C224.8 60.7783 224.966 60.5196 225.195 60.301C225.424 60.0823 225.739 59.8636 226.139 59.645C226.496 59.453 226.782 59.2743 226.995 59.109C227.208 58.9436 227.36 58.765 227.451 58.573C227.547 58.381 227.595 58.1463 227.595 57.869C227.595 57.453 227.424 57.1063 227.083 56.829C226.747 56.5516 226.283 56.413 225.691 56.413C225.035 56.413 224.534 56.5436 224.187 56.805C223.84 57.061 223.622 57.421 223.531 57.885H222.203C222.278 57.1063 222.603 56.477 223.179 55.997C223.76 55.517 224.587 55.277 225.659 55.277C226.342 55.277 226.928 55.397 227.419 55.637C227.915 55.8716 228.294 56.189 228.555 56.589C228.822 56.9836 228.955 57.421 228.955 57.901C228.955 58.4503 228.816 58.9116 228.539 59.285C228.262 59.653 227.814 60.0023 227.195 60.333C226.838 60.5303 226.555 60.7143 226.347 60.885C226.144 61.0503 226 61.2423 225.915 61.461C225.83 61.6743 225.787 61.9543 225.787 62.301V62.941H224.555ZM225.195 65.693C224.928 65.693 224.707 65.6076 224.531 65.437C224.355 65.261 224.267 65.0503 224.267 64.805C224.267 64.5543 224.352 64.3383 224.523 64.157C224.699 63.9756 224.92 63.885 225.187 63.885C225.454 63.885 225.68 63.9756 225.867 64.157C226.059 64.333 226.155 64.5463 226.155 64.797C226.155 65.0423 226.062 65.253 225.875 65.429C225.688 65.605 225.462 65.693 225.195 65.693Z" fill="#333333"/>
</g>
<defs>
<filter id="filter0_d_7044_5998" x="0" y="0" width="249.767" height="88" filterUnits="userSpaceOnUse" color-interpolation-filters="sRGB">
<feFlood flood-opacity="0" result="BackgroundImageFix"/>
<feColorMatrix in="SourceAlpha" type="matrix" values="0 0 0 0 0 0 0 0 0 0 0 0 0 0 0 0 0 0 127 0" result="hardAlpha"/>
<feOffset dy="4"/>
<feGaussianBlur stdDeviation="3"/>
<feComposite in2="hardAlpha" operator="out"/>
<feColorMatrix type="matrix" values="0 0 0 0 0 0 0 0 0 0 0 0 0 0 0 0 0 0 0.1 0"/>
<feBlend mode="normal" in2="BackgroundImageFix" result="effect1_dropShadow_7044_5998"/>
<feBlend mode="normal" in="SourceGraphic" in2="effect1_dropShadow_7044_5998" result="shape"/>
</filter>
<filter id="filter1_d_7044_5998" x="25.224" y="12.4766" width="209.731" height="63.248" filterUnits="userSpaceOnUse" color-interpolation-filters="sRGB">
<feFlood flood-opacity="0" result="BackgroundImageFix"/>
<feColorMatrix in="SourceAlpha" type="matrix" values="0 0 0 0 0 0 0 0 0 0 0 0 0 0 0 0 0 0 127 0" result="hardAlpha"/>
<feOffset dy="4"/>
<feGaussianBlur stdDeviation="3"/>
<feComposite in2="hardAlpha" operator="out"/>
<feColorMatrix type="matrix" values="0 0 0 0 0 0 0 0 0 0 0 0 0 0 0 0 0 0 0.05 0"/>
<feBlend mode="normal" in2="BackgroundImageFix" result="effect1_dropShadow_7044_5998"/>
<feBlend mode="normal" in="SourceGraphic" in2="effect1_dropShadow_7044_5998" result="shape"/>
</filter>
</defs>
</svg>
