<svg width="262" height="129" viewBox="0 0 262 129" fill="none" xmlns="http://www.w3.org/2000/svg">
<g filter="url(#filter0_d_7045_5631)">
<mask id="path-1-inside-1_7045_5631" fill="white">
<path d="M7.04333 63.6331L16.7674 72L16.7674 110C16.7674 114.971 20.7968 119 25.7674 119H246.767C251.738 119 255.767 114.971 255.767 110V11C255.767 6.02944 251.738 2 246.767 2H25.7674C20.7968 2 16.7674 6.02944 16.7674 11L16.7674 51.5L7.15555 58.9931C5.66179 60.1575 5.60761 62.3978 7.04333 63.6331Z"/>
</mask>
<path d="M7.04333 63.6331L16.7674 72L16.7674 110C16.7674 114.971 20.7968 119 25.7674 119H246.767C251.738 119 255.767 114.971 255.767 110V11C255.767 6.02944 251.738 2 246.767 2H25.7674C20.7968 2 16.7674 6.02944 16.7674 11L16.7674 51.5L7.15555 58.9931C5.66179 60.1575 5.60761 62.3978 7.04333 63.6331Z" fill="#E8FAFA"/>
<path d="M16.7674 72L18.1674 72L18.1674 71.3577L17.6805 70.9388L16.7674 72ZM7.04333 63.6331L6.13021 64.6944L6.13021 64.6944L7.04333 63.6331ZM7.15555 58.9931L6.2948 57.8889L6.2948 57.8889L7.15555 58.9931ZM16.7674 51.5L17.6281 52.6041L18.1674 52.1838L18.1674 51.5L16.7674 51.5ZM16.7674 11L15.3674 11L15.3674 11L16.7674 11ZM16.7674 110L15.3674 110V110H16.7674ZM17.6805 70.9388L7.95644 62.5719L6.13021 64.6944L15.8542 73.0612L17.6805 70.9388ZM8.0163 60.0972L17.6281 52.6041L15.9066 50.3959L6.2948 57.8889L8.0163 60.0972ZM7.95644 62.5719C7.19073 61.9131 7.21963 60.7183 8.0163 60.0972L6.2948 57.8889C4.10396 59.5968 4.02449 62.8825 6.13021 64.6944L7.95644 62.5719ZM25.7674 3.4H246.767V0.6H25.7674V3.4ZM254.367 11V110H257.167V11H254.367ZM246.767 117.6H25.7674V120.4H246.767V117.6ZM18.1674 51.5L18.1674 11L15.3674 11L15.3674 51.5L18.1674 51.5ZM18.1674 110L18.1674 72L15.3674 72L15.3674 110L18.1674 110ZM25.7674 117.6C21.57 117.6 18.1674 114.197 18.1674 110H15.3674C15.3674 115.744 20.0236 120.4 25.7674 120.4V117.6ZM254.367 110C254.367 114.197 250.965 117.6 246.767 117.6V120.4C252.511 120.4 257.167 115.744 257.167 110H254.367ZM246.767 3.4C250.965 3.4 254.367 6.80264 254.367 11H257.167C257.167 5.25624 252.511 0.6 246.767 0.6V3.4ZM25.7674 0.6C20.0236 0.6 15.3674 5.25624 15.3674 11H18.1674C18.1674 6.80264 21.57 3.4 25.7674 3.4V0.6Z" fill="#567979" mask="url(#path-1-inside-1_7045_5631)"/>
<path d="M32.616 25V14.952H33.864V25H32.616ZM43.9053 25.192C43.2919 25.192 42.7186 25.0267 42.1852 24.696C41.6572 24.3653 41.2306 23.8987 40.9052 23.296C40.5799 22.6933 40.4172 21.9813 40.4172 21.16C40.4172 20.3173 40.5799 19.5973 40.9052 19C41.2306 18.4027 41.6572 17.9467 42.1852 17.632C42.7186 17.3173 43.2919 17.16 43.9053 17.16C44.3372 17.16 44.7239 17.2267 45.0652 17.36C45.4119 17.488 45.7133 17.6667 45.9693 17.896C46.2253 18.1253 46.4359 18.3867 46.6013 18.68C46.7719 18.968 46.8973 19.272 46.9773 19.592L45.6972 19.704C45.5639 19.2613 45.3399 18.912 45.0252 18.656C44.7159 18.3947 44.3372 18.264 43.8892 18.264C43.5106 18.264 43.1532 18.3733 42.8172 18.592C42.4866 18.8053 42.2172 19.128 42.0092 19.56C41.8012 19.9867 41.6972 20.52 41.6972 21.16C41.6972 21.752 41.7906 22.2667 41.9772 22.704C42.1692 23.136 42.4306 23.472 42.7612 23.712C43.0919 23.952 43.4679 24.072 43.8892 24.072C44.4812 24.072 44.9292 23.928 45.2333 23.64C45.5426 23.3467 45.6972 22.9413 45.6972 22.424H46.9773C46.9773 22.9573 46.8519 23.432 46.6013 23.848C46.3506 24.264 45.9933 24.592 45.5293 24.832C45.0706 25.072 44.5292 25.192 43.9053 25.192ZM54.3632 25L54.2032 23.32V20.04C54.2032 19.352 54.0566 18.8587 53.7632 18.56C53.4699 18.256 53.0299 18.104 52.4432 18.104C52.1126 18.104 51.8112 18.152 51.5392 18.248C51.2726 18.344 51.0592 18.4933 50.8992 18.696C50.7446 18.8933 50.6672 19.1493 50.6672 19.464H49.2752C49.2752 18.9093 49.4112 18.464 49.6832 18.128C49.9552 17.7867 50.3286 17.5413 50.8032 17.392C51.2832 17.2373 51.8299 17.16 52.4432 17.16C53.0299 17.16 53.5499 17.2587 54.0032 17.456C54.4566 17.6533 54.8112 17.968 55.0672 18.4C55.3232 18.8267 55.4513 19.384 55.4513 20.072V25H54.3632ZM51.7552 25.192C51.1259 25.192 50.6059 25.08 50.1952 24.856C49.7846 24.632 49.4779 24.3413 49.2752 23.984C49.0726 23.6267 48.9712 23.2507 48.9712 22.856C48.9712 22.3387 49.0992 21.9173 49.3552 21.592C49.6166 21.2667 49.9712 21.0293 50.4192 20.88C50.8672 20.7253 51.3712 20.648 51.9312 20.648C52.3312 20.648 52.7312 20.688 53.1312 20.768C53.5366 20.848 53.9312 20.9573 54.3152 21.096V21.88C53.9952 21.752 53.6326 21.6507 53.2272 21.576C52.8272 21.5013 52.4592 21.464 52.1232 21.464C51.6112 21.464 51.1792 21.5707 50.8272 21.784C50.4752 21.992 50.2992 22.3493 50.2992 22.856C50.2992 23.2293 50.4326 23.5493 50.6992 23.816C50.9712 24.0827 51.4032 24.216 51.9952 24.216C52.4112 24.216 52.7846 24.12 53.1152 23.928C53.4512 23.7307 53.7152 23.4853 53.9072 23.192C54.1046 22.8987 54.2032 22.6053 54.2032 22.312H54.5072C54.5072 22.824 54.3952 23.2987 54.1712 23.736C53.9526 24.1733 53.6379 24.5253 53.2272 24.792C52.8166 25.0587 52.3259 25.192 51.7552 25.192ZM64.0397 25V20.504C64.0397 19.7733 63.8637 19.2187 63.5117 18.84C63.1651 18.456 62.6904 18.264 62.0877 18.264C61.6291 18.264 61.2317 18.3893 60.8957 18.64C60.5597 18.8907 60.3011 19.2507 60.1197 19.72C59.9384 20.184 59.8477 20.7387 59.8477 21.384H59.3677C59.3677 20.4933 59.4851 19.7333 59.7197 19.104C59.9544 18.4747 60.2957 17.9947 60.7437 17.664C61.1971 17.328 61.7464 17.16 62.3917 17.16C62.9944 17.16 63.5091 17.296 63.9357 17.568C64.3677 17.8347 64.6984 18.2187 64.9277 18.72C65.1571 19.2213 65.2717 19.816 65.2717 20.504V25H64.0397ZM58.5997 25V17.352H59.6717L59.8477 19.112V25H58.5997ZM77.8129 25V20.504C77.8129 19.7733 77.6369 19.2187 77.2849 18.84C76.9382 18.456 76.4635 18.264 75.8609 18.264C75.4022 18.264 75.0049 18.3893 74.6689 18.64C74.3329 18.8907 74.0742 19.2507 73.8929 19.72C73.7115 20.184 73.6209 20.7387 73.6209 21.384H73.1409C73.1409 20.4933 73.2582 19.7333 73.4929 19.104C73.7275 18.4747 74.0689 17.9947 74.5169 17.664C74.9702 17.328 75.5195 17.16 76.1649 17.16C76.7675 17.16 77.2822 17.296 77.7089 17.568C78.1409 17.8347 78.4715 18.2187 78.7009 18.72C78.9302 19.2213 79.0449 19.816 79.0449 20.504V25H77.8129ZM72.3729 25V17.352H73.4449L73.6209 19.112V25H72.3729ZM84.9571 25.192C84.2691 25.192 83.6558 25.04 83.1171 24.736C82.5838 24.432 82.1625 23.9813 81.8531 23.384C81.5438 22.7867 81.3891 22.0507 81.3891 21.176C81.3891 20.296 81.5438 19.56 81.8531 18.968C82.1625 18.3707 82.5838 17.92 83.1171 17.616C83.6558 17.312 84.2691 17.16 84.9571 17.16C85.6398 17.16 86.2478 17.312 86.7811 17.616C87.3198 17.92 87.7411 18.3707 88.0451 18.968C88.3545 19.56 88.5091 20.296 88.5091 21.176C88.5091 22.0507 88.3545 22.7867 88.0451 23.384C87.7411 23.9813 87.3198 24.432 86.7811 24.736C86.2478 25.04 85.6398 25.192 84.9571 25.192ZM84.9251 24.104C85.4211 24.104 85.8425 23.9867 86.1891 23.752C86.5358 23.512 86.7971 23.1733 86.9731 22.736C87.1545 22.2987 87.2451 21.7787 87.2451 21.176C87.2451 20.264 87.0558 19.5467 86.6771 19.024C86.2985 18.496 85.7358 18.232 84.9891 18.232C84.4878 18.232 84.0638 18.352 83.7171 18.592C83.3758 18.8267 83.1145 19.1653 82.9331 19.608C82.7571 20.0453 82.6691 20.568 82.6691 21.176C82.6691 22.0773 82.8585 22.792 83.2371 23.32C83.6211 23.8427 84.1838 24.104 84.9251 24.104ZM93.4511 25.192C93.0351 25.192 92.6618 25.112 92.3311 24.952C92.0005 24.792 91.7391 24.552 91.5471 24.232C91.3551 23.912 91.2591 23.512 91.2591 23.032V15.224H92.4911V23C92.4911 23.7893 92.8591 24.184 93.5951 24.184C93.8138 24.184 94.0245 24.16 94.2271 24.112C94.4351 24.064 94.6671 23.992 94.9231 23.896L95.0991 24.792C94.8271 24.9093 94.5551 25.0053 94.2831 25.08C94.0165 25.1547 93.7391 25.192 93.4511 25.192ZM90.0271 18.216V17.352H94.9071V18.216H90.0271ZM101.648 25V16.168C101.648 15.6613 101.744 15.248 101.936 14.928C102.133 14.6027 102.394 14.3627 102.72 14.208C103.05 14.0533 103.418 13.976 103.824 13.976C104.042 13.976 104.264 13.992 104.488 14.024C104.717 14.056 104.944 14.104 105.168 14.168L104.928 15.16C104.768 15.096 104.608 15.048 104.448 15.016C104.293 14.984 104.144 14.968 104 14.968C103.829 14.968 103.658 15 103.488 15.064C103.317 15.128 103.176 15.248 103.064 15.424C102.952 15.6 102.896 15.8533 102.896 16.184V25H101.648ZM100.4 18.216V17.352H104.48V18.216H100.4ZM107.416 15.544C107.16 15.544 106.957 15.472 106.808 15.328C106.658 15.1787 106.584 14.984 106.584 14.744C106.584 14.5093 106.658 14.3227 106.808 14.184C106.957 14.0453 107.16 13.976 107.416 13.976C107.672 13.976 107.874 14.0453 108.024 14.184C108.173 14.3227 108.248 14.5093 108.248 14.744C108.248 14.984 108.173 15.1787 108.024 15.328C107.874 15.472 107.672 15.544 107.416 15.544ZM106.792 25V17.336H108.04V25H106.792ZM117.082 25V20.504C117.082 19.7733 116.906 19.2187 116.554 18.84C116.207 18.456 115.732 18.264 115.13 18.264C114.671 18.264 114.274 18.3893 113.938 18.64C113.602 18.8907 113.343 19.2507 113.162 19.72C112.98 20.184 112.89 20.7387 112.89 21.384H112.41C112.41 20.4933 112.527 19.7333 112.762 19.104C112.996 18.4747 113.338 17.9947 113.786 17.664C114.239 17.328 114.788 17.16 115.434 17.16C116.036 17.16 116.551 17.296 116.978 17.568C117.41 17.8347 117.74 18.2187 117.97 18.72C118.199 19.2213 118.314 19.816 118.314 20.504V25H117.082ZM111.642 25V17.352H112.714L112.89 19.112V25H111.642ZM124.194 25.192C123.575 25.192 123.007 25.0267 122.49 24.696C121.973 24.36 121.559 23.8907 121.25 23.288C120.941 22.68 120.786 21.9653 120.786 21.144C120.786 20.328 120.938 19.6213 121.242 19.024C121.546 18.4267 121.949 17.968 122.45 17.648C122.957 17.3227 123.511 17.16 124.114 17.16C124.674 17.16 125.165 17.296 125.586 17.568C126.013 17.84 126.343 18.232 126.578 18.744C126.813 19.256 126.93 19.8747 126.93 20.6H126.45C126.45 20.0933 126.349 19.6667 126.146 19.32C125.949 18.9733 125.69 18.712 125.37 18.536C125.05 18.3547 124.706 18.264 124.338 18.264C123.922 18.264 123.541 18.3813 123.194 18.616C122.853 18.8453 122.578 19.176 122.37 19.608C122.167 20.0347 122.066 20.5467 122.066 21.144C122.066 21.752 122.167 22.2747 122.37 22.712C122.578 23.1493 122.853 23.4853 123.194 23.72C123.541 23.9547 123.922 24.072 124.338 24.072C124.685 24.072 125.018 23.9813 125.338 23.8C125.663 23.6187 125.93 23.3547 126.138 23.008C126.346 22.656 126.45 22.232 126.45 21.736H126.93C126.93 22.4773 126.807 23.1067 126.562 23.624C126.322 24.136 125.994 24.5253 125.578 24.792C125.167 25.0587 124.706 25.192 124.194 25.192ZM126.658 25L126.45 23.208V14.088H127.698V25H126.658ZM135.763 15.544C135.507 15.544 135.304 15.472 135.155 15.328C135.006 15.1787 134.931 14.984 134.931 14.744C134.931 14.5093 135.006 14.3227 135.155 14.184C135.304 14.0453 135.507 13.976 135.763 13.976C136.019 13.976 136.222 14.0453 136.371 14.184C136.52 14.3227 136.595 14.5093 136.595 14.744C136.595 14.984 136.52 15.1787 136.371 15.328C136.222 15.472 136.019 15.544 135.763 15.544ZM135.139 25V17.336H136.387V25H135.139ZM145.425 25V20.504C145.425 19.7733 145.249 19.2187 144.897 18.84C144.55 18.456 144.075 18.264 143.473 18.264C143.014 18.264 142.617 18.3893 142.281 18.64C141.945 18.8907 141.686 19.2507 141.505 19.72C141.323 20.184 141.233 20.7387 141.233 21.384H140.753C140.753 20.4933 140.87 19.7333 141.105 19.104C141.339 18.4747 141.681 17.9947 142.129 17.664C142.582 17.328 143.131 17.16 143.777 17.16C144.379 17.16 144.894 17.296 145.321 17.568C145.753 17.8347 146.083 18.2187 146.313 18.72C146.542 19.2213 146.657 19.816 146.657 20.504V25H145.425ZM139.985 25V17.352H141.057L141.233 19.112V25H139.985ZM150.217 25V16.168C150.217 15.6613 150.313 15.248 150.505 14.928C150.702 14.6027 150.964 14.3627 151.289 14.208C151.62 14.0533 151.988 13.976 152.393 13.976C152.612 13.976 152.833 13.992 153.057 14.024C153.286 14.056 153.513 14.104 153.737 14.168L153.497 15.16C153.337 15.096 153.177 15.048 153.017 15.016C152.862 14.984 152.713 14.968 152.569 14.968C152.398 14.968 152.228 15 152.057 15.064C151.886 15.128 151.745 15.248 151.633 15.424C151.521 15.6 151.465 15.8533 151.465 16.184V25H150.217ZM148.969 18.216V17.352H153.049V18.216H148.969ZM158.213 25.192C157.525 25.192 156.912 25.04 156.373 24.736C155.84 24.432 155.419 23.9813 155.109 23.384C154.8 22.7867 154.645 22.0507 154.645 21.176C154.645 20.296 154.8 19.56 155.109 18.968C155.419 18.3707 155.84 17.92 156.373 17.616C156.912 17.312 157.525 17.16 158.213 17.16C158.896 17.16 159.504 17.312 160.037 17.616C160.576 17.92 160.997 18.3707 161.301 18.968C161.611 19.56 161.765 20.296 161.765 21.176C161.765 22.0507 161.611 22.7867 161.301 23.384C160.997 23.9813 160.576 24.432 160.037 24.736C159.504 25.04 158.896 25.192 158.213 25.192ZM158.181 24.104C158.677 24.104 159.099 23.9867 159.445 23.752C159.792 23.512 160.053 23.1733 160.229 22.736C160.411 22.2987 160.501 21.7787 160.501 21.176C160.501 20.264 160.312 19.5467 159.933 19.024C159.555 18.496 158.992 18.232 158.245 18.232C157.744 18.232 157.32 18.352 156.973 18.592C156.632 18.8267 156.371 19.1653 156.189 19.608C156.013 20.0453 155.925 20.568 155.925 21.176C155.925 22.0773 156.115 22.792 156.493 23.32C156.877 23.8427 157.44 24.104 158.181 24.104ZM164.355 25V17.336H165.603V25H164.355ZM165.219 21.544C165.219 20.5733 165.313 19.768 165.499 19.128C165.686 18.4827 165.958 18.0027 166.315 17.688C166.678 17.368 167.118 17.208 167.635 17.208C167.806 17.208 167.961 17.2213 168.099 17.248C168.243 17.2693 168.387 17.304 168.531 17.352L168.451 18.584C168.302 18.536 168.139 18.496 167.963 18.464C167.787 18.4267 167.63 18.408 167.491 18.408C167.038 18.408 166.673 18.5387 166.395 18.8C166.118 19.056 165.915 19.4187 165.787 19.888C165.665 20.3573 165.603 20.9093 165.603 21.544H165.219ZM181.049 25V20.504C181.049 19.7733 180.873 19.2187 180.521 18.84C180.174 18.456 179.705 18.264 179.113 18.264C178.419 18.264 177.889 18.5333 177.521 19.072C177.153 19.6053 176.969 20.344 176.969 21.288H176.393C176.393 20.6 176.459 19.9973 176.593 19.48C176.731 18.9627 176.931 18.5333 177.193 18.192C177.454 17.8453 177.771 17.5867 178.145 17.416C178.518 17.2453 178.942 17.16 179.417 17.16C180.019 17.16 180.534 17.296 180.961 17.568C181.393 17.8347 181.723 18.2187 181.953 18.72C182.182 19.2213 182.297 19.816 182.297 20.504V25H181.049ZM170.297 25V17.352H171.369L171.513 18.888C171.753 18.3333 172.089 17.9067 172.521 17.608C172.958 17.3093 173.481 17.16 174.089 17.16C174.691 17.16 175.206 17.296 175.633 17.568C176.065 17.8347 176.395 18.2187 176.625 18.72C176.854 19.2213 176.969 19.816 176.969 20.504V25H175.737V20.504C175.737 19.7733 175.561 19.2187 175.209 18.84C174.862 18.456 174.387 18.264 173.785 18.264C173.326 18.264 172.929 18.3893 172.593 18.64C172.257 18.8907 171.998 19.2507 171.817 19.72C171.635 20.184 171.545 20.7387 171.545 21.384V25H170.297ZM190.161 25L190.001 23.32V20.04C190.001 19.352 189.855 18.8587 189.561 18.56C189.268 18.256 188.828 18.104 188.241 18.104C187.911 18.104 187.609 18.152 187.337 18.248C187.071 18.344 186.857 18.4933 186.697 18.696C186.543 18.8933 186.465 19.1493 186.465 19.464H185.073C185.073 18.9093 185.209 18.464 185.481 18.128C185.753 17.7867 186.127 17.5413 186.601 17.392C187.081 17.2373 187.628 17.16 188.241 17.16C188.828 17.16 189.348 17.2587 189.801 17.456C190.255 17.6533 190.609 17.968 190.865 18.4C191.121 18.8267 191.249 19.384 191.249 20.072V25H190.161ZM187.553 25.192C186.924 25.192 186.404 25.08 185.993 24.856C185.583 24.632 185.276 24.3413 185.073 23.984C184.871 23.6267 184.769 23.2507 184.769 22.856C184.769 22.3387 184.897 21.9173 185.153 21.592C185.415 21.2667 185.769 21.0293 186.217 20.88C186.665 20.7253 187.169 20.648 187.729 20.648C188.129 20.648 188.529 20.688 188.929 20.768C189.335 20.848 189.729 20.9573 190.113 21.096V21.88C189.793 21.752 189.431 21.6507 189.025 21.576C188.625 21.5013 188.257 21.464 187.921 21.464C187.409 21.464 186.977 21.5707 186.625 21.784C186.273 21.992 186.097 22.3493 186.097 22.856C186.097 23.2293 186.231 23.5493 186.497 23.816C186.769 24.0827 187.201 24.216 187.793 24.216C188.209 24.216 188.583 24.12 188.913 23.928C189.249 23.7307 189.513 23.4853 189.705 23.192C189.903 22.8987 190.001 22.6053 190.001 22.312H190.305C190.305 22.824 190.193 23.2987 189.969 23.736C189.751 24.1733 189.436 24.5253 189.025 24.792C188.615 25.0587 188.124 25.192 187.553 25.192ZM196.75 25.192C196.334 25.192 195.961 25.112 195.63 24.952C195.299 24.792 195.038 24.552 194.846 24.232C194.654 23.912 194.558 23.512 194.558 23.032V15.224H195.79V23C195.79 23.7893 196.158 24.184 196.894 24.184C197.113 24.184 197.323 24.16 197.526 24.112C197.734 24.064 197.966 23.992 198.222 23.896L198.398 24.792C198.126 24.9093 197.854 25.0053 197.582 25.08C197.315 25.1547 197.038 25.192 196.75 25.192ZM193.326 18.216V17.352H198.206V18.216H193.326ZM201.278 15.544C201.022 15.544 200.819 15.472 200.67 15.328C200.52 15.1787 200.446 14.984 200.446 14.744C200.446 14.5093 200.52 14.3227 200.67 14.184C200.819 14.0453 201.022 13.976 201.278 13.976C201.534 13.976 201.736 14.0453 201.886 14.184C202.035 14.3227 202.11 14.5093 202.11 14.744C202.11 14.984 202.035 15.1787 201.886 15.328C201.736 15.472 201.534 15.544 201.278 15.544ZM200.654 25V17.336H201.902V25H200.654ZM208.267 25.192C207.579 25.192 206.966 25.04 206.427 24.736C205.894 24.432 205.472 23.9813 205.163 23.384C204.854 22.7867 204.699 22.0507 204.699 21.176C204.699 20.296 204.854 19.56 205.163 18.968C205.472 18.3707 205.894 17.92 206.427 17.616C206.966 17.312 207.579 17.16 208.267 17.16C208.95 17.16 209.558 17.312 210.091 17.616C210.63 17.92 211.051 18.3707 211.355 18.968C211.664 19.56 211.819 20.296 211.819 21.176C211.819 22.0507 211.664 22.7867 211.355 23.384C211.051 23.9813 210.63 24.432 210.091 24.736C209.558 25.04 208.95 25.192 208.267 25.192ZM208.235 24.104C208.731 24.104 209.152 23.9867 209.499 23.752C209.846 23.512 210.107 23.1733 210.283 22.736C210.464 22.2987 210.555 21.7787 210.555 21.176C210.555 20.264 210.366 19.5467 209.987 19.024C209.608 18.496 209.046 18.232 208.299 18.232C207.798 18.232 207.374 18.352 207.027 18.592C206.686 18.8267 206.424 19.1653 206.243 19.608C206.067 20.0453 205.979 20.568 205.979 21.176C205.979 22.0773 206.168 22.792 206.547 23.32C206.931 23.8427 207.494 24.104 208.235 24.104ZM219.849 25V20.504C219.849 19.7733 219.673 19.2187 219.321 18.84C218.974 18.456 218.5 18.264 217.897 18.264C217.438 18.264 217.041 18.3893 216.705 18.64C216.369 18.8907 216.11 19.2507 215.929 19.72C215.748 20.184 215.657 20.7387 215.657 21.384H215.177C215.177 20.4933 215.294 19.7333 215.529 19.104C215.764 18.4747 216.105 17.9947 216.553 17.664C217.006 17.328 217.556 17.16 218.201 17.16C218.804 17.16 219.318 17.296 219.745 17.568C220.177 17.8347 220.508 18.2187 220.737 18.72C220.966 19.2213 221.081 19.816 221.081 20.504V25H219.849ZM214.409 25V17.352H215.481L215.657 19.112V25H214.409ZM37.352 45L37.192 43.32V40.04C37.192 39.352 37.0453 38.8587 36.752 38.56C36.4587 38.256 36.0187 38.104 35.432 38.104C35.1013 38.104 34.8 38.152 34.528 38.248C34.2613 38.344 34.048 38.4933 33.888 38.696C33.7333 38.8933 33.656 39.1493 33.656 39.464H32.264C32.264 38.9093 32.4 38.464 32.672 38.128C32.944 37.7867 33.3173 37.5413 33.792 37.392C34.272 37.2373 34.8187 37.16 35.432 37.16C36.0187 37.16 36.5387 37.2587 36.992 37.456C37.4453 37.6533 37.8 37.968 38.056 38.4C38.312 38.8267 38.44 39.384 38.44 40.072V45H37.352ZM34.744 45.192C34.1147 45.192 33.5947 45.08 33.184 44.856C32.7733 44.632 32.4667 44.3413 32.264 43.984C32.0613 43.6267 31.96 43.2507 31.96 42.856C31.96 42.3387 32.088 41.9173 32.344 41.592C32.6053 41.2667 32.96 41.0293 33.408 40.88C33.856 40.7253 34.36 40.648 34.92 40.648C35.32 40.648 35.72 40.688 36.12 40.768C36.5253 40.848 36.92 40.9573 37.304 41.096V41.88C36.984 41.752 36.6213 41.6507 36.216 41.576C35.816 41.5013 35.448 41.464 35.112 41.464C34.6 41.464 34.168 41.5707 33.816 41.784C33.464 41.992 33.288 42.3493 33.288 42.856C33.288 43.2293 33.4213 43.5493 33.688 43.816C33.96 44.0827 34.392 44.216 34.984 44.216C35.4 44.216 35.7733 44.12 36.104 43.928C36.44 43.7307 36.704 43.4853 36.896 43.192C37.0933 42.8987 37.192 42.6053 37.192 42.312H37.496C37.496 42.824 37.384 43.2987 37.16 43.736C36.9413 44.1733 36.6267 44.5253 36.216 44.792C35.8053 45.0587 35.3147 45.192 34.744 45.192ZM45.0925 45.192C44.5805 45.192 44.1165 45.0587 43.7005 44.792C43.2898 44.5253 42.9618 44.136 42.7165 43.624C42.4765 43.1067 42.3565 42.4773 42.3565 41.736H42.8365C42.8365 42.232 42.9378 42.656 43.1405 43.008C43.3485 43.3547 43.6152 43.6187 43.9405 43.8C44.2658 43.9813 44.6072 44.072 44.9645 44.072C45.3752 44.072 45.7512 43.9547 46.0925 43.72C46.4338 43.4853 46.7058 43.1493 46.9085 42.712C47.1165 42.2747 47.2205 41.752 47.2205 41.144C47.2205 40.5467 47.1192 40.0347 46.9165 39.608C46.7138 39.176 46.4392 38.8453 46.0925 38.616C45.7512 38.3813 45.3698 38.264 44.9485 38.264C44.5858 38.264 44.2418 38.3547 43.9165 38.536C43.5965 38.712 43.3352 38.9733 43.1325 39.32C42.9352 39.6667 42.8365 40.0933 42.8365 40.6H42.3565C42.3565 39.8747 42.4738 39.256 42.7085 38.744C42.9485 38.232 43.2792 37.84 43.7005 37.568C44.1218 37.296 44.6125 37.16 45.1725 37.16C45.7752 37.16 46.3272 37.3227 46.8285 37.648C47.3352 37.968 47.7405 38.4267 48.0445 39.024C48.3485 39.6213 48.5005 40.328 48.5005 41.144C48.5005 41.9653 48.3458 42.68 48.0365 43.288C47.7272 43.8907 47.3138 44.36 46.7965 44.696C46.2792 45.0267 45.7112 45.192 45.0925 45.192ZM41.5885 45V34.088H42.8365V43.208L42.4685 45H41.5885ZM54.0009 45.192C53.3129 45.192 52.6995 45.04 52.1609 44.736C51.6275 44.432 51.2062 43.9813 50.8969 43.384C50.5875 42.7867 50.4329 42.0507 50.4329 41.176C50.4329 40.296 50.5875 39.56 50.8969 38.968C51.2062 38.3707 51.6275 37.92 52.1609 37.616C52.6995 37.312 53.3129 37.16 54.0009 37.16C54.6835 37.16 55.2915 37.312 55.8249 37.616C56.3635 37.92 56.7849 38.3707 57.0889 38.968C57.3982 39.56 57.5529 40.296 57.5529 41.176C57.5529 42.0507 57.3982 42.7867 57.0889 43.384C56.7849 43.9813 56.3635 44.432 55.8249 44.736C55.2915 45.04 54.6835 45.192 54.0009 45.192ZM53.9689 44.104C54.4649 44.104 54.8862 43.9867 55.2329 43.752C55.5795 43.512 55.8409 43.1733 56.0169 42.736C56.1982 42.2987 56.2889 41.7787 56.2889 41.176C56.2889 40.264 56.0995 39.5467 55.7209 39.024C55.3422 38.496 54.7795 38.232 54.0329 38.232C53.5315 38.232 53.1075 38.352 52.7609 38.592C52.4195 38.8267 52.1582 39.1653 51.9769 39.608C51.8009 40.0453 51.7129 40.568 51.7129 41.176C51.7129 42.0773 51.9022 42.792 52.2809 43.32C52.6649 43.8427 53.2275 44.104 53.9689 44.104ZM65.3429 37.336H66.5909V45H65.3429V37.336ZM59.9189 37.336H61.1669V42.104C61.1669 42.744 61.3215 43.2293 61.6309 43.56C61.9455 43.8907 62.3935 44.056 62.9749 44.056C63.4549 44.056 63.8709 43.928 64.2229 43.672C64.5802 43.416 64.8549 43.064 65.0469 42.616C65.2442 42.1627 65.3429 41.6453 65.3429 41.064H65.8069C65.8069 41.9227 65.6815 42.656 65.4309 43.264C65.1855 43.872 64.8362 44.3387 64.3829 44.664C63.9349 44.984 63.4069 45.144 62.7989 45.144C62.2229 45.144 61.7189 45.0373 61.2869 44.824C60.8549 44.6107 60.5189 44.288 60.2789 43.856C60.0389 43.4187 59.9189 42.8667 59.9189 42.2V37.336ZM72.3424 45.192C71.9264 45.192 71.553 45.112 71.2224 44.952C70.8917 44.792 70.6304 44.552 70.4384 44.232C70.2464 43.912 70.1504 43.512 70.1504 43.032V35.224H71.3824V43C71.3824 43.7893 71.7504 44.184 72.4864 44.184C72.705 44.184 72.9157 44.16 73.1184 44.112C73.3264 44.064 73.5584 43.992 73.8144 43.896L73.9904 44.792C73.7184 44.9093 73.4464 45.0053 73.1744 45.08C72.9077 45.1547 72.6304 45.192 72.3424 45.192ZM68.9184 38.216V37.352H73.7984V38.216H68.9184ZM79.9949 45V34.616H83.8349C85.0775 34.616 86.0295 34.9067 86.6909 35.488C87.3575 36.0693 87.6909 36.84 87.6909 37.8C87.6909 38.744 87.3575 39.5067 86.6909 40.088C86.0295 40.664 85.0775 40.952 83.8349 40.952H81.8829V45H79.9949ZM85.6109 45L82.8589 40.136H84.8749L88.0749 45H85.6109ZM81.8829 39.688H83.6429C84.3362 39.688 84.8615 39.5307 85.2189 39.216C85.5762 38.896 85.7549 38.4827 85.7549 37.976C85.7549 37.4587 85.5922 37.0427 85.2669 36.728C84.9415 36.408 84.4642 36.248 83.8349 36.248H81.8829V39.688ZM90.4517 45V34.616H92.3397V45H90.4517ZM99.2627 45.224C98.3507 45.224 97.5561 45.008 96.8787 44.576C96.2067 44.1387 95.6841 43.5147 95.3107 42.704C94.9374 41.8933 94.7507 40.92 94.7507 39.784C94.7507 38.6107 94.9427 37.6267 95.3267 36.832C95.7161 36.032 96.2494 35.4293 96.9267 35.024C97.6094 34.6133 98.3881 34.408 99.2627 34.408C100.473 34.408 101.417 34.7013 102.095 35.288C102.777 35.8747 103.215 36.6373 103.407 37.576L101.391 37.944C101.225 37.4 100.961 36.96 100.599 36.624C100.236 36.288 99.7907 36.12 99.2627 36.12C98.7987 36.12 98.3801 36.256 98.0067 36.528C97.6334 36.7947 97.3347 37.2 97.1107 37.744C96.8921 38.288 96.7827 38.968 96.7827 39.784C96.7827 40.552 96.8787 41.2133 97.0707 41.768C97.2681 42.3227 97.5507 42.7493 97.9187 43.048C98.2867 43.3467 98.7347 43.496 99.2627 43.496C99.9401 43.496 100.463 43.3173 100.831 42.96C101.204 42.5973 101.391 42.136 101.391 41.576H103.407C103.407 42.3493 103.239 43.008 102.903 43.552C102.572 44.0907 102.097 44.504 101.479 44.792C100.86 45.08 100.121 45.224 99.2627 45.224ZM105.787 34.616H107.675V38.952H112.203V34.616H114.091V45H112.203V40.6H107.675V45H105.787V34.616ZM124.668 42.936L127.324 34.616H129.308L125.74 45H123.756L120.236 34.616H122.236L124.86 42.936H124.668ZM131.236 45V34.616H133.124V45H131.236ZM134.879 36.248V34.616H143.199V36.248H139.559L139.983 35.816V45H138.095V35.816L138.519 36.248H134.879ZM143.076 45L146.612 34.616H148.98L152.372 45H150.388L149.668 42.76H145.812L145.076 45H143.076ZM146.292 41.336H149.22L147.764 36.872L146.292 41.336ZM154.388 34.616H157.092L160.02 40.968H159.86L162.788 34.616H165.396V45H163.492V36.792H163.78L160.548 43.864H159.316L156.1 36.824H156.276V45H154.388V34.616ZM168.532 45V34.616H170.42V45H168.532ZM173.535 34.616H175.599L180.319 42.024H180.175V34.616H182.063V45H180.143L175.119 37.144H175.423V45H173.535V34.616ZM193.179 45.224C192.267 45.224 191.472 45.008 190.795 44.576C190.123 44.1387 189.6 43.5147 189.227 42.704C188.854 41.8933 188.667 40.92 188.667 39.784C188.667 38.6107 188.859 37.6267 189.243 36.832C189.632 36.032 190.166 35.4293 190.843 35.024C191.526 34.6133 192.304 34.408 193.179 34.408C194.39 34.408 195.334 34.7013 196.011 35.288C196.694 35.8747 197.131 36.6373 197.323 37.576L195.307 37.944C195.142 37.4 194.878 36.96 194.515 36.624C194.152 36.288 193.707 36.12 193.179 36.12C192.715 36.12 192.296 36.256 191.923 36.528C191.55 36.7947 191.251 37.2 191.027 37.744C190.808 38.288 190.699 38.968 190.699 39.784C190.699 40.552 190.795 41.2133 190.987 41.768C191.184 42.3227 191.467 42.7493 191.835 43.048C192.203 43.3467 192.651 43.496 193.179 43.496C193.856 43.496 194.379 43.3173 194.747 42.96C195.12 42.5973 195.307 42.136 195.307 41.576H197.323C197.323 42.3493 197.155 43.008 196.819 43.552C196.488 44.0907 196.014 44.504 195.395 44.792C194.776 45.08 194.038 45.224 193.179 45.224ZM32.488 65V54.616H34.376V65H32.488ZM37.491 54.616H39.555L44.275 62.024H44.131V54.616H46.019V65H44.099L39.075 57.144H39.379V65H37.491V54.616ZM52.9437 65.224C52.0958 65.224 51.3304 65 50.6477 64.552C49.9651 64.104 49.4211 63.48 49.0157 62.68C48.6157 61.8747 48.4157 60.936 48.4157 59.864C48.4157 59.016 48.5384 58.256 48.7837 57.584C49.0344 56.912 49.3811 56.3387 49.8237 55.864C50.2664 55.3893 50.7864 55.0293 51.3837 54.784C51.9811 54.5333 52.6291 54.408 53.3277 54.408C54.2984 54.408 55.1117 54.6187 55.7677 55.04C56.4291 55.4613 56.9438 56.1253 57.3118 57.032L55.3758 57.48C55.1038 57.0373 54.7891 56.7013 54.4317 56.472C54.0797 56.2373 53.6797 56.12 53.2318 56.12C52.7197 56.12 52.2531 56.272 51.8317 56.576C51.4104 56.8747 51.0744 57.304 50.8237 57.864C50.5731 58.424 50.4477 59.0907 50.4477 59.864C50.4477 60.5893 50.5571 61.224 50.7757 61.768C50.9997 62.312 51.3117 62.736 51.7118 63.04C52.1117 63.344 52.5757 63.496 53.1037 63.496C53.5518 63.496 53.9518 63.3973 54.3038 63.2C54.6611 62.9973 54.9411 62.7093 55.1438 62.336C55.3518 61.9627 55.4557 61.512 55.4557 60.984H55.8717C55.8717 61.848 55.7677 62.5973 55.5598 63.232C55.3571 63.8667 55.0398 64.3573 54.6077 64.704C54.1758 65.0507 53.6211 65.224 52.9437 65.224ZM55.7277 65L55.4557 62.712V60.92L53.1198 60.872V59.672H57.2638V65H55.7277ZM60.1399 65V54.616H63.9799C65.2225 54.616 66.1745 54.9067 66.8359 55.488C67.5025 56.0693 67.8359 56.84 67.8359 57.8C67.8359 58.744 67.5025 59.5067 66.8359 60.088C66.1745 60.664 65.2225 60.952 63.9799 60.952H62.0279V65H60.1399ZM65.7559 65L63.0039 60.136H65.0199L68.2199 65H65.7559ZM62.0279 59.688H63.7879C64.4812 59.688 65.0065 59.5307 65.3639 59.216C65.7212 58.896 65.8999 58.4827 65.8999 57.976C65.8999 57.4587 65.7372 57.0427 65.4119 56.728C65.0865 56.408 64.6092 56.248 63.9799 56.248H62.0279V59.688ZM70.5807 65V54.616H77.2527V56.248H72.4687V58.984H76.9647V60.616H72.4687V63.352H77.2527V65H70.5807ZM80.1474 54.616H83.5074C84.5634 54.616 85.4887 54.8293 86.2834 55.256C87.078 55.6773 87.6967 56.2773 88.1394 57.056C88.582 57.8347 88.8034 58.7547 88.8034 59.816C88.8034 60.8667 88.582 61.7813 88.1394 62.56C87.6967 63.3333 87.078 63.9333 86.2834 64.36C85.4887 64.7867 84.5634 65 83.5074 65H80.1474V54.616ZM82.0354 56.328V63.304H83.5074C84.1794 63.304 84.758 63.152 85.2434 62.848C85.734 62.544 86.11 62.1307 86.3714 61.608C86.638 61.08 86.7714 60.4827 86.7714 59.816C86.7714 59.1387 86.638 58.5387 86.3714 58.016C86.11 57.4933 85.734 57.0827 85.2434 56.784C84.758 56.48 84.1794 56.328 83.5074 56.328H82.0354ZM91.2917 65V54.616H93.1797V65H91.2917ZM96.3107 65V54.616H102.983V56.248H98.1987V58.984H102.695V60.616H98.1987V63.352H102.983V65H96.3107ZM105.845 54.616H107.909L112.629 62.024H112.485V54.616H114.373V65H112.453L107.429 57.144H107.733V65H105.845V54.616ZM116.114 56.248V54.616H124.434V56.248H120.794L121.218 55.816V65H119.33V55.816L119.754 56.248H116.114ZM129.782 65.224C129.062 65.224 128.398 65.0987 127.79 64.848C127.187 64.5973 126.697 64.216 126.318 63.704C125.945 63.192 125.745 62.5413 125.718 61.752H127.574C127.574 62.152 127.673 62.48 127.87 62.736C128.067 62.992 128.331 63.184 128.662 63.312C128.998 63.4347 129.366 63.496 129.766 63.496C130.15 63.496 130.491 63.4453 130.79 63.344C131.094 63.2427 131.331 63.0987 131.502 62.912C131.678 62.72 131.766 62.4933 131.766 62.232C131.766 61.8853 131.659 61.6133 131.446 61.416C131.238 61.2187 130.902 61.0373 130.438 60.872L128.39 60.056C127.59 59.7413 126.977 59.376 126.55 58.96C126.123 58.544 125.91 57.9707 125.91 57.24C125.91 56.3973 126.243 55.7147 126.91 55.192C127.577 54.6693 128.507 54.408 129.702 54.408C130.865 54.408 131.763 54.68 132.398 55.224C133.033 55.7627 133.393 56.5147 133.478 57.48H131.622C131.553 57.0693 131.366 56.7413 131.062 56.496C130.758 56.2453 130.305 56.12 129.702 56.12C129.169 56.12 128.747 56.232 128.438 56.456C128.129 56.6747 127.974 56.952 127.974 57.288C127.974 57.576 128.07 57.8053 128.262 57.976C128.459 58.1413 128.763 58.3013 129.174 58.456L131.446 59.336C132.214 59.6347 132.803 60.0107 133.214 60.464C133.625 60.9173 133.83 61.4853 133.83 62.168C133.83 62.792 133.673 63.3333 133.358 63.792C133.043 64.2453 132.585 64.5973 131.982 64.848C131.379 65.0987 130.646 65.224 129.782 65.224ZM146.054 65V60.504C146.054 59.7733 145.878 59.2187 145.526 58.84C145.179 58.456 144.705 58.264 144.102 58.264C143.643 58.264 143.246 58.3893 142.91 58.64C142.574 58.8907 142.315 59.2507 142.134 59.72C141.953 60.184 141.862 60.7387 141.862 61.384H141.382C141.382 60.4933 141.499 59.7333 141.734 59.104C141.969 58.4747 142.31 57.9947 142.758 57.664C143.211 57.328 143.761 57.16 144.406 57.16C145.009 57.16 145.523 57.296 145.95 57.568C146.382 57.8347 146.713 58.2187 146.942 58.72C147.171 59.2213 147.286 59.816 147.286 60.504V65H146.054ZM140.614 65V54.088H141.862V65H140.614ZM153.086 65.192C152.425 65.192 151.833 65.024 151.31 64.688C150.793 64.3467 150.382 63.8747 150.078 63.272C149.78 62.6693 149.63 61.976 149.63 61.192C149.63 60.3547 149.78 59.6347 150.078 59.032C150.377 58.4293 150.785 57.968 151.302 57.648C151.825 57.3227 152.42 57.16 153.086 57.16C153.668 57.16 154.164 57.2773 154.574 57.512C154.985 57.7467 155.316 58.064 155.566 58.464C155.817 58.864 155.99 59.3173 156.086 59.824C156.188 60.3253 156.217 60.8453 156.174 61.384H150.638V60.616H155.35L154.982 60.856C154.998 60.5413 154.98 60.2267 154.926 59.912C154.878 59.5973 154.785 59.3093 154.646 59.048C154.508 58.7813 154.313 58.568 154.062 58.408C153.812 58.248 153.492 58.168 153.102 58.168C152.612 58.168 152.201 58.2933 151.87 58.544C151.54 58.7947 151.292 59.1253 151.126 59.536C150.961 59.9413 150.878 60.3813 150.878 60.856V61.368C150.878 61.9013 150.958 62.3787 151.118 62.8C151.284 63.2213 151.529 63.5547 151.854 63.8C152.18 64.0453 152.59 64.168 153.086 64.168C153.582 64.168 153.99 64.048 154.31 63.808C154.63 63.568 154.825 63.2133 154.894 62.744H156.19C156.11 63.2507 155.929 63.688 155.646 64.056C155.364 64.4187 155.004 64.6987 154.566 64.896C154.129 65.0933 153.636 65.192 153.086 65.192ZM158.809 65V57.336H160.057V65H158.809ZM159.673 61.544C159.673 60.5733 159.766 59.768 159.953 59.128C160.14 58.4827 160.412 58.0027 160.769 57.688C161.132 57.368 161.572 57.208 162.089 57.208C162.26 57.208 162.414 57.2213 162.553 57.248C162.697 57.2693 162.841 57.304 162.985 57.352L162.905 58.584C162.756 58.536 162.593 58.496 162.417 58.464C162.241 58.4267 162.084 58.408 161.945 58.408C161.492 58.408 161.126 58.5387 160.849 58.8C160.572 59.056 160.369 59.4187 160.241 59.888C160.118 60.3573 160.057 60.9093 160.057 61.544H159.673ZM167.406 65.192C166.745 65.192 166.153 65.024 165.63 64.688C165.113 64.3467 164.702 63.8747 164.398 63.272C164.1 62.6693 163.95 61.976 163.95 61.192C163.95 60.3547 164.1 59.6347 164.398 59.032C164.697 58.4293 165.105 57.968 165.622 57.648C166.145 57.3227 166.74 57.16 167.406 57.16C167.988 57.16 168.484 57.2773 168.894 57.512C169.305 57.7467 169.636 58.064 169.886 58.464C170.137 58.864 170.31 59.3173 170.406 59.824C170.508 60.3253 170.537 60.8453 170.494 61.384H164.958V60.616H169.67L169.302 60.856C169.318 60.5413 169.3 60.2267 169.246 59.912C169.198 59.5973 169.105 59.3093 168.966 59.048C168.828 58.7813 168.633 58.568 168.382 58.408C168.132 58.248 167.812 58.168 167.422 58.168C166.932 58.168 166.521 58.2933 166.19 58.544C165.86 58.7947 165.612 59.1253 165.446 59.536C165.281 59.9413 165.198 60.3813 165.198 60.856V61.368C165.198 61.9013 165.278 62.3787 165.438 62.8C165.604 63.2213 165.849 63.5547 166.174 63.8C166.5 64.0453 166.91 64.168 167.406 64.168C167.902 64.168 168.31 64.048 168.63 63.808C168.95 63.568 169.145 63.2133 169.214 62.744H170.51C170.43 63.2507 170.249 63.688 169.966 64.056C169.684 64.4187 169.324 64.6987 168.886 64.896C168.449 65.0933 167.956 65.192 167.406 65.192ZM172.937 66.744L171.993 66.28C172.297 66.1253 172.553 65.9547 172.761 65.768C172.974 65.5813 173.113 65.352 173.177 65.08C172.948 65.0533 172.75 64.9707 172.585 64.832C172.425 64.6933 172.345 64.5093 172.345 64.28C172.345 64.056 172.428 63.864 172.593 63.704C172.764 63.544 172.98 63.464 173.241 63.464C173.572 63.464 173.838 63.584 174.041 63.824C174.244 64.064 174.345 64.3493 174.345 64.68C174.345 65.0693 174.225 65.4507 173.985 65.824C173.75 66.2027 173.401 66.5093 172.937 66.744ZM184.094 65.192C183.582 65.192 183.118 65.0587 182.702 64.792C182.291 64.5253 181.963 64.136 181.718 63.624C181.478 63.1067 181.358 62.4773 181.358 61.736H181.838C181.838 62.232 181.939 62.656 182.142 63.008C182.35 63.3547 182.616 63.6187 182.942 63.8C183.267 63.9813 183.608 64.072 183.966 64.072C184.376 64.072 184.752 63.9547 185.094 63.72C185.435 63.4853 185.707 63.1493 185.91 62.712C186.118 62.2747 186.222 61.752 186.222 61.144C186.222 60.5467 186.12 60.0347 185.918 59.608C185.715 59.176 185.44 58.8453 185.094 58.616C184.752 58.3813 184.371 58.264 183.95 58.264C183.587 58.264 183.243 58.3547 182.918 58.536C182.598 58.712 182.336 58.9733 182.134 59.32C181.936 59.6667 181.838 60.0933 181.838 60.6H181.358C181.358 59.8747 181.475 59.256 181.71 58.744C181.95 58.232 182.28 57.84 182.702 57.568C183.123 57.296 183.614 57.16 184.174 57.16C184.776 57.16 185.328 57.3227 185.83 57.648C186.336 57.968 186.742 58.4267 187.046 59.024C187.35 59.6213 187.502 60.328 187.502 61.144C187.502 61.9653 187.347 62.68 187.038 63.288C186.728 63.8907 186.315 64.36 185.798 64.696C185.28 65.0267 184.712 65.192 184.094 65.192ZM180.59 65V54.088H181.838V63.208L181.47 65H180.59ZM195.434 57.336H196.682V65H195.434V57.336ZM190.01 57.336H191.258V62.104C191.258 62.744 191.413 63.2293 191.722 63.56C192.037 63.8907 192.485 64.056 193.066 64.056C193.546 64.056 193.962 63.928 194.314 63.672C194.671 63.416 194.946 63.064 195.138 62.616C195.335 62.1627 195.434 61.6453 195.434 61.064H195.898C195.898 61.9227 195.773 62.656 195.522 63.264C195.277 63.872 194.927 64.3387 194.474 64.664C194.026 64.984 193.498 65.144 192.89 65.144C192.314 65.144 191.81 65.0373 191.378 64.824C190.946 64.6107 190.61 64.288 190.37 63.856C190.13 63.4187 190.01 62.8667 190.01 62.2V57.336ZM202.434 65.192C202.018 65.192 201.644 65.112 201.314 64.952C200.983 64.792 200.722 64.552 200.53 64.232C200.338 63.912 200.242 63.512 200.242 63.032V55.224H201.474V63C201.474 63.7893 201.842 64.184 202.578 64.184C202.796 64.184 203.007 64.16 203.21 64.112C203.418 64.064 203.65 63.992 203.906 63.896L204.082 64.792C203.81 64.9093 203.538 65.0053 203.266 65.08C202.999 65.1547 202.722 65.192 202.434 65.192ZM199.01 58.216V57.352H203.89V58.216H199.01ZM31.288 77.352H32.584L34.536 83.736H34.376L36.28 77.72H37.32L39.208 83.752H39.064L41.016 77.352H42.264L39.752 85H38.536L36.68 79.352H36.872L35.032 85H33.816L31.288 77.352ZM49.8098 85V80.504C49.8098 79.7733 49.6338 79.2187 49.2818 78.84C48.9351 78.456 48.4604 78.264 47.8577 78.264C47.3991 78.264 47.0018 78.3893 46.6658 78.64C46.3298 78.8907 46.0711 79.2507 45.8898 79.72C45.7084 80.184 45.6177 80.7387 45.6177 81.384H45.1377C45.1377 80.4933 45.2551 79.7333 45.4897 79.104C45.7244 78.4747 46.0657 77.9947 46.5138 77.664C46.9671 77.328 47.5164 77.16 48.1618 77.16C48.7644 77.16 49.2791 77.296 49.7057 77.568C50.1378 77.8347 50.4684 78.2187 50.6978 78.72C50.9271 79.2213 51.0417 79.816 51.0417 80.504V85H49.8098ZM44.3697 85V74.088H45.6177V85H44.3697ZM58.922 85L58.762 83.32V80.04C58.762 79.352 58.6153 78.8587 58.322 78.56C58.0287 78.256 57.5887 78.104 57.002 78.104C56.6713 78.104 56.37 78.152 56.098 78.248C55.8313 78.344 55.618 78.4933 55.458 78.696C55.3033 78.8933 55.226 79.1493 55.226 79.464H53.834C53.834 78.9093 53.97 78.464 54.242 78.128C54.514 77.7867 54.8873 77.5413 55.362 77.392C55.842 77.2373 56.3887 77.16 57.002 77.16C57.5887 77.16 58.1087 77.2587 58.562 77.456C59.0153 77.6533 59.37 77.968 59.626 78.4C59.882 78.8267 60.01 79.384 60.01 80.072V85H58.922ZM56.314 85.192C55.6847 85.192 55.1647 85.08 54.754 84.856C54.3433 84.632 54.0367 84.3413 53.834 83.984C53.6313 83.6267 53.53 83.2507 53.53 82.856C53.53 82.3387 53.658 81.9173 53.914 81.592C54.1753 81.2667 54.53 81.0293 54.978 80.88C55.426 80.7253 55.93 80.648 56.49 80.648C56.89 80.648 57.29 80.688 57.69 80.768C58.0953 80.848 58.49 80.9573 58.874 81.096V81.88C58.554 81.752 58.1913 81.6507 57.786 81.576C57.386 81.5013 57.018 81.464 56.682 81.464C56.17 81.464 55.738 81.5707 55.386 81.784C55.034 81.992 54.858 82.3493 54.858 82.856C54.858 83.2293 54.9913 83.5493 55.258 83.816C55.53 84.0827 55.962 84.216 56.554 84.216C56.97 84.216 57.3433 84.12 57.674 83.928C58.01 83.7307 58.274 83.4853 58.466 83.192C58.6633 82.8987 58.762 82.6053 58.762 82.312H59.066C59.066 82.824 58.954 83.2987 58.73 83.736C58.5113 84.1733 58.1967 84.5253 57.786 84.792C57.3753 85.0587 56.8847 85.192 56.314 85.192ZM65.5105 85.192C65.0945 85.192 64.7212 85.112 64.3905 84.952C64.0598 84.792 63.7985 84.552 63.6065 84.232C63.4145 83.912 63.3185 83.512 63.3185 83.032V75.224H64.5505V83C64.5505 83.7893 64.9185 84.184 65.6545 84.184C65.8732 84.184 66.0838 84.16 66.2865 84.112C66.4945 84.064 66.7265 83.992 66.9825 83.896L67.1585 84.792C66.8865 84.9093 66.6145 85.0053 66.3425 85.08C66.0758 85.1547 65.7985 85.192 65.5105 85.192ZM62.0865 78.216V77.352H66.9665V78.216H62.0865ZM72.027 77.352H73.419L75.915 83.912H75.627L77.563 77.352H78.843L75.963 86.536C75.723 87.304 75.403 87.896 75.003 88.312C74.603 88.728 74.091 88.936 73.467 88.936C73.131 88.936 72.811 88.888 72.507 88.792C72.2083 88.696 71.899 88.5573 71.579 88.376V87.224C71.8617 87.448 72.1337 87.608 72.395 87.704C72.6617 87.8 72.939 87.848 73.227 87.848C73.547 87.848 73.8137 87.7467 74.027 87.544C74.2457 87.3413 74.427 87.08 74.571 86.76C74.715 86.4453 74.8377 86.1147 74.939 85.768L75.163 85L72.027 77.352ZM83.6721 85.192C82.9841 85.192 82.3708 85.04 81.8321 84.736C81.2988 84.432 80.8775 83.9813 80.5681 83.384C80.2588 82.7867 80.1041 82.0507 80.1041 81.176C80.1041 80.296 80.2588 79.56 80.5681 78.968C80.8775 78.3707 81.2988 77.92 81.8321 77.616C82.3708 77.312 82.9841 77.16 83.6721 77.16C84.3548 77.16 84.9628 77.312 85.4961 77.616C86.0348 77.92 86.4561 78.3707 86.7601 78.968C87.0695 79.56 87.2241 80.296 87.2241 81.176C87.2241 82.0507 87.0695 82.7867 86.7601 83.384C86.4561 83.9813 86.0348 84.432 85.4961 84.736C84.9628 85.04 84.3548 85.192 83.6721 85.192ZM83.6401 84.104C84.1361 84.104 84.5575 83.9867 84.9041 83.752C85.2508 83.512 85.5121 83.1733 85.6881 82.736C85.8695 82.2987 85.9601 81.7787 85.9601 81.176C85.9601 80.264 85.7708 79.5467 85.3921 79.024C85.0135 78.496 84.4508 78.232 83.7041 78.232C83.2028 78.232 82.7788 78.352 82.4321 78.592C82.0908 78.8267 81.8295 79.1653 81.6481 79.608C81.4721 80.0453 81.3841 80.568 81.3841 81.176C81.3841 82.0773 81.5735 82.792 81.9521 83.32C82.3361 83.8427 82.8988 84.104 83.6401 84.104ZM95.0141 77.336H96.2621V85H95.0141V77.336ZM89.5901 77.336H90.8381V82.104C90.8381 82.744 90.9928 83.2293 91.3021 83.56C91.6168 83.8907 92.0648 84.056 92.6461 84.056C93.1261 84.056 93.5421 83.928 93.8941 83.672C94.2515 83.416 94.5261 83.064 94.7181 82.616C94.9155 82.1627 95.0141 81.6453 95.0141 81.064H95.4781C95.4781 81.9227 95.3528 82.656 95.1021 83.264C94.8568 83.872 94.5075 84.3387 94.0541 84.664C93.6061 84.984 93.0781 85.144 92.4701 85.144C91.8941 85.144 91.3901 85.0373 90.9581 84.824C90.5261 84.6107 90.1901 84.288 89.9501 83.856C89.7101 83.4187 89.5901 82.8667 89.5901 82.2V77.336ZM108.355 85L108.195 83.32V80.04C108.195 79.352 108.048 78.8587 107.755 78.56C107.461 78.256 107.021 78.104 106.435 78.104C106.104 78.104 105.803 78.152 105.531 78.248C105.264 78.344 105.051 78.4933 104.891 78.696C104.736 78.8933 104.659 79.1493 104.659 79.464H103.267C103.267 78.9093 103.403 78.464 103.675 78.128C103.947 77.7867 104.32 77.5413 104.795 77.392C105.275 77.2373 105.821 77.16 106.435 77.16C107.021 77.16 107.541 77.2587 107.995 77.456C108.448 77.6533 108.803 77.968 109.059 78.4C109.315 78.8267 109.443 79.384 109.443 80.072V85H108.355ZM105.747 85.192C105.117 85.192 104.597 85.08 104.187 84.856C103.776 84.632 103.469 84.3413 103.267 83.984C103.064 83.6267 102.963 83.2507 102.963 82.856C102.963 82.3387 103.091 81.9173 103.347 81.592C103.608 81.2667 103.963 81.0293 104.411 80.88C104.859 80.7253 105.363 80.648 105.923 80.648C106.323 80.648 106.723 80.688 107.123 80.768C107.528 80.848 107.923 80.9573 108.307 81.096V81.88C107.987 81.752 107.624 81.6507 107.219 81.576C106.819 81.5013 106.451 81.464 106.115 81.464C105.603 81.464 105.171 81.5707 104.819 81.784C104.467 81.992 104.291 82.3493 104.291 82.856C104.291 83.2293 104.424 83.5493 104.691 83.816C104.963 84.0827 105.395 84.216 105.987 84.216C106.403 84.216 106.776 84.12 107.107 83.928C107.443 83.7307 107.707 83.4853 107.899 83.192C108.096 82.8987 108.195 82.6053 108.195 82.312H108.499C108.499 82.824 108.387 83.2987 108.163 83.736C107.944 84.1733 107.629 84.5253 107.219 84.792C106.808 85.0587 106.317 85.192 105.747 85.192ZM112.591 85V77.336H113.839V85H112.591ZM113.455 81.544C113.455 80.5733 113.548 79.768 113.735 79.128C113.922 78.4827 114.194 78.0027 114.551 77.688C114.914 77.368 115.354 77.208 115.871 77.208C116.042 77.208 116.196 77.2213 116.335 77.248C116.479 77.2693 116.623 77.304 116.767 77.352L116.687 78.584C116.538 78.536 116.375 78.496 116.199 78.464C116.023 78.4267 115.866 78.408 115.727 78.408C115.274 78.408 114.908 78.5387 114.631 78.8C114.354 79.056 114.151 79.4187 114.023 79.888C113.9 80.3573 113.839 80.9093 113.839 81.544H113.455ZM121.188 85.192C120.527 85.192 119.935 85.024 119.412 84.688C118.895 84.3467 118.484 83.8747 118.18 83.272C117.882 82.6693 117.732 81.976 117.732 81.192C117.732 80.3547 117.882 79.6347 118.18 79.032C118.479 78.4293 118.887 77.968 119.404 77.648C119.927 77.3227 120.522 77.16 121.188 77.16C121.77 77.16 122.266 77.2773 122.676 77.512C123.087 77.7467 123.418 78.064 123.668 78.464C123.919 78.864 124.092 79.3173 124.188 79.824C124.29 80.3253 124.319 80.8453 124.276 81.384H118.74V80.616H123.452L123.084 80.856C123.1 80.5413 123.082 80.2267 123.028 79.912C122.98 79.5973 122.887 79.3093 122.748 79.048C122.61 78.7813 122.415 78.568 122.164 78.408C121.914 78.248 121.594 78.168 121.204 78.168C120.714 78.168 120.303 78.2933 119.972 78.544C119.642 78.7947 119.394 79.1253 119.228 79.536C119.063 79.9413 118.98 80.3813 118.98 80.856V81.368C118.98 81.9013 119.06 82.3787 119.22 82.8C119.386 83.2213 119.631 83.5547 119.956 83.8C120.282 84.0453 120.692 84.168 121.188 84.168C121.684 84.168 122.092 84.048 122.412 83.808C122.732 83.568 122.927 83.2133 122.996 82.744H124.292C124.212 83.2507 124.031 83.688 123.748 84.056C123.466 84.4187 123.106 84.6987 122.668 84.896C122.231 85.0933 121.738 85.192 121.188 85.192ZM133.62 85.192C132.879 85.192 132.26 85.088 131.764 84.88C131.268 84.6667 130.892 84.376 130.636 84.008C130.38 83.6347 130.244 83.208 130.228 82.728H131.428C131.455 83.2133 131.649 83.5787 132.012 83.824C132.38 84.064 132.879 84.184 133.508 84.184C133.839 84.184 134.143 84.1307 134.42 84.024C134.697 83.9173 134.919 83.7707 135.084 83.584C135.249 83.3973 135.332 83.1867 135.332 82.952C135.332 82.6533 135.223 82.4187 135.004 82.248C134.785 82.0773 134.436 81.928 133.956 81.8L132.468 81.32C131.823 81.1173 131.327 80.84 130.98 80.488C130.639 80.1307 130.468 79.704 130.468 79.208C130.468 78.5893 130.74 78.0933 131.284 77.72C131.828 77.3467 132.543 77.16 133.428 77.16C134.367 77.16 135.095 77.352 135.612 77.736C136.129 78.12 136.399 78.6 136.42 79.176H135.188C135.14 78.84 134.969 78.5867 134.676 78.416C134.383 78.24 133.967 78.152 133.428 78.152C132.911 78.152 132.505 78.2693 132.212 78.504C131.924 78.7333 131.78 78.9893 131.78 79.272C131.78 79.8 132.233 80.1893 133.14 80.44L134.66 80.952C135.316 81.1493 135.817 81.408 136.164 81.728C136.516 82.048 136.692 82.456 136.692 82.952C136.692 83.336 136.567 83.6987 136.316 84.04C136.065 84.3813 135.711 84.6587 135.252 84.872C134.793 85.0853 134.249 85.192 133.62 85.192ZM142.09 85.192C141.429 85.192 140.837 85.024 140.314 84.688C139.797 84.3467 139.386 83.8747 139.082 83.272C138.783 82.6693 138.634 81.976 138.634 81.192C138.634 80.3547 138.783 79.6347 139.082 79.032C139.381 78.4293 139.789 77.968 140.306 77.648C140.829 77.3227 141.423 77.16 142.09 77.16C142.671 77.16 143.167 77.2773 143.578 77.512C143.989 77.7467 144.319 78.064 144.57 78.464C144.821 78.864 144.994 79.3173 145.09 79.824C145.191 80.3253 145.221 80.8453 145.178 81.384H139.642V80.616H144.354L143.986 80.856C144.002 80.5413 143.983 80.2267 143.93 79.912C143.882 79.5973 143.789 79.3093 143.65 79.048C143.511 78.7813 143.317 78.568 143.066 78.408C142.815 78.248 142.495 78.168 142.106 78.168C141.615 78.168 141.205 78.2933 140.874 78.544C140.543 78.7947 140.295 79.1253 140.13 79.536C139.965 79.9413 139.882 80.3813 139.882 80.856V81.368C139.882 81.9013 139.962 82.3787 140.122 82.8C140.287 83.2213 140.533 83.5547 140.858 83.8C141.183 84.0453 141.594 84.168 142.09 84.168C142.586 84.168 142.994 84.048 143.314 83.808C143.634 83.568 143.829 83.2133 143.898 82.744H145.194C145.114 83.2507 144.933 83.688 144.65 84.056C144.367 84.4187 144.007 84.6987 143.57 84.896C143.133 85.0933 142.639 85.192 142.09 85.192ZM152.549 85L152.389 83.32V80.04C152.389 79.352 152.242 78.8587 151.949 78.56C151.656 78.256 151.216 78.104 150.629 78.104C150.298 78.104 149.997 78.152 149.725 78.248C149.458 78.344 149.245 78.4933 149.085 78.696C148.93 78.8933 148.853 79.1493 148.853 79.464H147.461C147.461 78.9093 147.597 78.464 147.869 78.128C148.141 77.7867 148.514 77.5413 148.989 77.392C149.469 77.2373 150.016 77.16 150.629 77.16C151.216 77.16 151.736 77.2587 152.189 77.456C152.642 77.6533 152.997 77.968 153.253 78.4C153.509 78.8267 153.637 79.384 153.637 80.072V85H152.549ZM149.941 85.192C149.312 85.192 148.792 85.08 148.381 84.856C147.97 84.632 147.664 84.3413 147.461 83.984C147.258 83.6267 147.157 83.2507 147.157 82.856C147.157 82.3387 147.285 81.9173 147.541 81.592C147.802 81.2667 148.157 81.0293 148.605 80.88C149.053 80.7253 149.557 80.648 150.117 80.648C150.517 80.648 150.917 80.688 151.317 80.768C151.722 80.848 152.117 80.9573 152.501 81.096V81.88C152.181 81.752 151.818 81.6507 151.413 81.576C151.013 81.5013 150.645 81.464 150.309 81.464C149.797 81.464 149.365 81.5707 149.013 81.784C148.661 81.992 148.485 82.3493 148.485 82.856C148.485 83.2293 148.618 83.5493 148.885 83.816C149.157 84.0827 149.589 84.216 150.181 84.216C150.597 84.216 150.97 84.12 151.301 83.928C151.637 83.7307 151.901 83.4853 152.093 83.192C152.29 82.8987 152.389 82.6053 152.389 82.312H152.693C152.693 82.824 152.581 83.2987 152.357 83.736C152.138 84.1733 151.824 84.5253 151.413 84.792C151.002 85.0587 150.512 85.192 149.941 85.192ZM156.785 85V77.336H158.033V85H156.785ZM157.649 81.544C157.649 80.5733 157.743 79.768 157.929 79.128C158.116 78.4827 158.388 78.0027 158.745 77.688C159.108 77.368 159.548 77.208 160.065 77.208C160.236 77.208 160.391 77.2213 160.529 77.248C160.673 77.2693 160.817 77.304 160.961 77.352L160.881 78.584C160.732 78.536 160.569 78.496 160.393 78.464C160.217 78.4267 160.06 78.408 159.921 78.408C159.468 78.408 159.103 78.5387 158.825 78.8C158.548 79.056 158.345 79.4187 158.217 79.888C158.095 80.3573 158.033 80.9093 158.033 81.544H157.649ZM165.415 85.192C164.801 85.192 164.228 85.0267 163.695 84.696C163.167 84.3653 162.74 83.8987 162.415 83.296C162.089 82.6933 161.927 81.9813 161.927 81.16C161.927 80.3173 162.089 79.5973 162.415 79C162.74 78.4027 163.167 77.9467 163.695 77.632C164.228 77.3173 164.801 77.16 165.415 77.16C165.847 77.16 166.233 77.2267 166.575 77.36C166.921 77.488 167.223 77.6667 167.479 77.896C167.735 78.1253 167.945 78.3867 168.111 78.68C168.281 78.968 168.407 79.272 168.487 79.592L167.207 79.704C167.073 79.2613 166.849 78.912 166.535 78.656C166.225 78.3947 165.847 78.264 165.399 78.264C165.02 78.264 164.663 78.3733 164.327 78.592C163.996 78.8053 163.727 79.128 163.519 79.56C163.311 79.9867 163.207 80.52 163.207 81.16C163.207 81.752 163.3 82.2667 163.487 82.704C163.679 83.136 163.94 83.472 164.271 83.712C164.601 83.952 164.977 84.072 165.399 84.072C165.991 84.072 166.439 83.928 166.743 83.64C167.052 83.3467 167.207 82.9413 167.207 82.424H168.487C168.487 82.9573 168.361 83.432 168.111 83.848C167.86 84.264 167.503 84.592 167.039 84.832C166.58 85.072 166.039 85.192 165.415 85.192ZM176.577 85V80.504C176.577 79.7733 176.401 79.2187 176.049 78.84C175.702 78.456 175.227 78.264 174.625 78.264C174.166 78.264 173.769 78.3893 173.433 78.64C173.097 78.8907 172.838 79.2507 172.657 79.72C172.475 80.184 172.385 80.7387 172.385 81.384H171.905C171.905 80.4933 172.022 79.7333 172.257 79.104C172.491 78.4747 172.833 77.9947 173.281 77.664C173.734 77.328 174.283 77.16 174.929 77.16C175.531 77.16 176.046 77.296 176.473 77.568C176.905 77.8347 177.235 78.2187 177.465 78.72C177.694 79.2213 177.809 79.816 177.809 80.504V85H176.577ZM171.137 85V74.088H172.385V85H171.137ZM181.657 75.544C181.401 75.544 181.198 75.472 181.049 75.328C180.9 75.1787 180.825 74.984 180.825 74.744C180.825 74.5093 180.9 74.3227 181.049 74.184C181.198 74.0453 181.401 73.976 181.657 73.976C181.913 73.976 182.116 74.0453 182.265 74.184C182.414 74.3227 182.489 74.5093 182.489 74.744C182.489 74.984 182.414 75.1787 182.265 75.328C182.116 75.472 181.913 75.544 181.657 75.544ZM181.033 85V77.336H182.281V85H181.033ZM191.318 85V80.504C191.318 79.7733 191.142 79.2187 190.79 78.84C190.444 78.456 189.969 78.264 189.366 78.264C188.908 78.264 188.51 78.3893 188.174 78.64C187.838 78.8907 187.58 79.2507 187.398 79.72C187.217 80.184 187.126 80.7387 187.126 81.384H186.646C186.646 80.4933 186.764 79.7333 186.998 79.104C187.233 78.4747 187.574 77.9947 188.022 77.664C188.476 77.328 189.025 77.16 189.67 77.16C190.273 77.16 190.788 77.296 191.214 77.568C191.646 77.8347 191.977 78.2187 192.206 78.72C192.436 79.2213 192.55 79.816 192.55 80.504V85H191.318ZM185.878 85V77.352H186.95L187.126 79.112V85H185.878ZM198.399 88.936C197.615 88.936 196.935 88.824 196.359 88.6C195.783 88.3813 195.335 88.0853 195.015 87.712C194.7 87.344 194.543 86.936 194.543 86.488C194.543 85.896 194.759 85.4427 195.191 85.128C195.628 84.8187 196.191 84.664 196.879 84.664L197.567 85.096C196.991 85.096 196.545 85.216 196.231 85.456C195.916 85.696 195.759 86.024 195.759 86.44C195.759 86.856 195.983 87.208 196.431 87.496C196.879 87.784 197.535 87.928 198.399 87.928C199.039 87.928 199.599 87.8347 200.079 87.648C200.564 87.4667 200.94 87.2267 201.207 86.928C201.479 86.6347 201.615 86.3173 201.615 85.976C201.615 85.736 201.527 85.528 201.351 85.352C201.175 85.1813 200.905 85.096 200.543 85.096H197.567C197.049 85.096 196.601 85.0187 196.223 84.864C195.849 84.704 195.561 84.496 195.359 84.24C195.156 83.984 195.055 83.704 195.055 83.4C195.055 83.08 195.145 82.808 195.327 82.584C195.508 82.36 195.743 82.1893 196.031 82.072C196.324 81.9547 196.639 81.896 196.975 81.896L197.215 82.36C197.055 82.36 196.892 82.3973 196.727 82.472C196.567 82.5413 196.431 82.648 196.319 82.792C196.212 82.9307 196.159 83.1067 196.159 83.32C196.159 83.5653 196.26 83.7707 196.463 83.936C196.665 84.1013 197.033 84.184 197.567 84.184H200.543C201.263 84.184 201.828 84.336 202.239 84.64C202.655 84.944 202.863 85.368 202.863 85.912C202.863 86.4133 202.684 86.8933 202.327 87.352C201.969 87.816 201.457 88.1947 200.791 88.488C200.124 88.7867 199.327 88.936 198.399 88.936ZM198.623 82.76C198.036 82.76 197.505 82.6427 197.031 82.408C196.561 82.1733 196.188 81.8453 195.911 81.424C195.639 81.0027 195.503 80.5147 195.503 79.96C195.503 79.4 195.639 78.9093 195.911 78.488C196.188 78.0667 196.561 77.7413 197.031 77.512C197.505 77.2773 198.036 77.16 198.623 77.16C199.193 77.16 199.711 77.2773 200.175 77.512C200.644 77.7413 201.017 78.0667 201.295 78.488C201.572 78.9093 201.711 79.4 201.711 79.96C201.711 80.5147 201.572 81.0027 201.295 81.424C201.017 81.8453 200.644 82.1733 200.175 82.408C199.711 82.6427 199.193 82.76 198.623 82.76ZM198.623 81.864C199.209 81.864 199.665 81.6827 199.991 81.32C200.316 80.9573 200.479 80.504 200.479 79.96C200.479 79.4 200.316 78.9467 199.991 78.6C199.665 78.248 199.209 78.072 198.623 78.072C198.041 78.072 197.583 78.248 197.247 78.6C196.916 78.9467 196.751 79.4 196.751 79.96C196.751 80.504 196.916 80.9573 197.247 81.32C197.583 81.6827 198.041 81.864 198.623 81.864ZM201.135 78.376L200.543 78.136C200.543 77.688 200.631 77.296 200.807 76.96C200.983 76.6187 201.233 76.3547 201.559 76.168C201.884 75.976 202.271 75.88 202.719 75.88L202.623 77.112C202.143 77.112 201.775 77.216 201.519 77.424C201.263 77.6267 201.135 77.944 201.135 78.376ZM209.547 75.544C209.291 75.544 209.088 75.472 208.939 75.328C208.79 75.1787 208.715 74.984 208.715 74.744C208.715 74.5093 208.79 74.3227 208.939 74.184C209.088 74.0453 209.291 73.976 209.547 73.976C209.803 73.976 210.006 74.0453 210.155 74.184C210.304 74.3227 210.379 74.5093 210.379 74.744C210.379 74.984 210.304 75.1787 210.155 75.328C210.006 75.472 209.803 75.544 209.547 75.544ZM208.923 85V77.336H210.171V85H208.923ZM216.52 85.192C215.779 85.192 215.16 85.088 214.664 84.88C214.168 84.6667 213.792 84.376 213.536 84.008C213.28 83.6347 213.144 83.208 213.128 82.728H214.328C214.355 83.2133 214.55 83.5787 214.912 83.824C215.28 84.064 215.779 84.184 216.408 84.184C216.739 84.184 217.043 84.1307 217.32 84.024C217.598 83.9173 217.819 83.7707 217.984 83.584C218.15 83.3973 218.232 83.1867 218.232 82.952C218.232 82.6533 218.123 82.4187 217.904 82.248C217.686 82.0773 217.336 81.928 216.856 81.8L215.368 81.32C214.723 81.1173 214.227 80.84 213.88 80.488C213.539 80.1307 213.368 79.704 213.368 79.208C213.368 78.5893 213.64 78.0933 214.184 77.72C214.728 77.3467 215.443 77.16 216.328 77.16C217.267 77.16 217.995 77.352 218.512 77.736C219.03 78.12 219.299 78.6 219.32 79.176H218.088C218.04 78.84 217.87 78.5867 217.576 78.416C217.283 78.24 216.867 78.152 216.328 78.152C215.811 78.152 215.406 78.2693 215.112 78.504C214.824 78.7333 214.68 78.9893 214.68 79.272C214.68 79.8 215.134 80.1893 216.04 80.44L217.56 80.952C218.216 81.1493 218.718 81.408 219.064 81.728C219.416 82.048 219.592 82.456 219.592 82.952C219.592 83.336 219.467 83.6987 219.216 84.04C218.966 84.3813 218.611 84.6587 218.152 84.872C217.694 85.0853 217.15 85.192 216.52 85.192ZM33.32 95.544C33.064 95.544 32.8613 95.472 32.712 95.328C32.5627 95.1787 32.488 94.984 32.488 94.744C32.488 94.5093 32.5627 94.3227 32.712 94.184C32.8613 94.0453 33.064 93.976 33.32 93.976C33.576 93.976 33.7787 94.0453 33.928 94.184C34.0773 94.3227 34.152 94.5093 34.152 94.744C34.152 94.984 34.0773 95.1787 33.928 95.328C33.7787 95.472 33.576 95.544 33.32 95.544ZM32.696 105V97.336H33.944V105H32.696ZM42.9816 105V100.504C42.9816 99.7733 42.8056 99.2187 42.4536 98.84C42.107 98.456 41.6323 98.264 41.0296 98.264C40.571 98.264 40.1736 98.3893 39.8376 98.64C39.5016 98.8907 39.243 99.2507 39.0616 99.72C38.8803 100.184 38.7896 100.739 38.7896 101.384H38.3096C38.3096 100.493 38.427 99.7333 38.6616 99.104C38.8963 98.4747 39.2376 97.9947 39.6856 97.664C40.139 97.328 40.6883 97.16 41.3336 97.16C41.9363 97.16 42.451 97.296 42.8776 97.568C43.3096 97.8347 43.6403 98.2187 43.8696 98.72C44.099 99.2213 44.2136 99.816 44.2136 100.504V105H42.9816ZM37.5416 105V97.352H38.6136L38.7896 99.112V105H37.5416ZM56.0507 105L55.8907 103.32V100.04C55.8907 99.352 55.7441 98.8587 55.4507 98.56C55.1574 98.256 54.7174 98.104 54.1307 98.104C53.8001 98.104 53.4987 98.152 53.2267 98.248C52.9601 98.344 52.7467 98.4933 52.5867 98.696C52.4321 98.8933 52.3547 99.1493 52.3547 99.464H50.9627C50.9627 98.9093 51.0987 98.464 51.3707 98.128C51.6427 97.7867 52.0161 97.5413 52.4907 97.392C52.9707 97.2373 53.5174 97.16 54.1307 97.16C54.7174 97.16 55.2374 97.2587 55.6907 97.456C56.1441 97.6533 56.4987 97.968 56.7547 98.4C57.0107 98.8267 57.1388 99.384 57.1388 100.072V105H56.0507ZM53.4427 105.192C52.8134 105.192 52.2934 105.08 51.8827 104.856C51.4721 104.632 51.1654 104.341 50.9627 103.984C50.7601 103.627 50.6587 103.251 50.6587 102.856C50.6587 102.339 50.7867 101.917 51.0427 101.592C51.3041 101.267 51.6587 101.029 52.1067 100.88C52.5547 100.725 53.0587 100.648 53.6187 100.648C54.0187 100.648 54.4187 100.688 54.8187 100.768C55.2241 100.848 55.6187 100.957 56.0027 101.096V101.88C55.6827 101.752 55.3201 101.651 54.9147 101.576C54.5147 101.501 54.1467 101.464 53.8107 101.464C53.2987 101.464 52.8667 101.571 52.5147 101.784C52.1627 101.992 51.9867 102.349 51.9867 102.856C51.9867 103.229 52.1201 103.549 52.3867 103.816C52.6587 104.083 53.0907 104.216 53.6827 104.216C54.0987 104.216 54.4721 104.12 54.8027 103.928C55.1387 103.731 55.4027 103.485 55.5947 103.192C55.7921 102.899 55.8907 102.605 55.8907 102.312H56.1947C56.1947 102.824 56.0827 103.299 55.8587 103.736C55.6401 104.173 55.3254 104.525 54.9147 104.792C54.5041 105.059 54.0134 105.192 53.4427 105.192ZM65.7272 105V100.504C65.7272 99.7733 65.5512 99.2187 65.1992 98.84C64.8526 98.456 64.3779 98.264 63.7752 98.264C63.3166 98.264 62.9192 98.3893 62.5832 98.64C62.2472 98.8907 61.9886 99.2507 61.8072 99.72C61.6259 100.184 61.5352 100.739 61.5352 101.384H61.0552C61.0552 100.493 61.1726 99.7333 61.4072 99.104C61.6419 98.4747 61.9832 97.9947 62.4312 97.664C62.8846 97.328 63.4339 97.16 64.0792 97.16C64.6819 97.16 65.1966 97.296 65.6232 97.568C66.0552 97.8347 66.3859 98.2187 66.6152 98.72C66.8446 99.2213 66.9592 99.816 66.9592 100.504V105H65.7272ZM60.2872 105V97.352H61.3592L61.5352 99.112V105H60.2872ZM72.8715 105.192C72.1835 105.192 71.5702 105.04 71.0315 104.736C70.4982 104.432 70.0768 103.981 69.7675 103.384C69.4582 102.787 69.3035 102.051 69.3035 101.176C69.3035 100.296 69.4582 99.56 69.7675 98.968C70.0768 98.3707 70.4982 97.92 71.0315 97.616C71.5702 97.312 72.1835 97.16 72.8715 97.16C73.5542 97.16 74.1622 97.312 74.6955 97.616C75.2342 97.92 75.6555 98.3707 75.9595 98.968C76.2688 99.56 76.4235 100.296 76.4235 101.176C76.4235 102.051 76.2688 102.787 75.9595 103.384C75.6555 103.981 75.2342 104.432 74.6955 104.736C74.1622 105.04 73.5542 105.192 72.8715 105.192ZM72.8395 104.104C73.3355 104.104 73.7568 103.987 74.1035 103.752C74.4502 103.512 74.7115 103.173 74.8875 102.736C75.0688 102.299 75.1595 101.779 75.1595 101.176C75.1595 100.264 74.9702 99.5467 74.5915 99.024C74.2128 98.496 73.6502 98.232 72.9035 98.232C72.4022 98.232 71.9782 98.352 71.6315 98.592C71.2902 98.8267 71.0288 99.1653 70.8475 99.608C70.6715 100.045 70.5835 100.568 70.5835 101.176C70.5835 102.077 70.7728 102.792 71.1515 103.32C71.5355 103.843 72.0982 104.104 72.8395 104.104ZM81.3655 105.192C80.9495 105.192 80.5762 105.112 80.2455 104.952C79.9148 104.792 79.6535 104.552 79.4615 104.232C79.2695 103.912 79.1735 103.512 79.1735 103.032V95.224H80.4055V103C80.4055 103.789 80.7735 104.184 81.5095 104.184C81.7282 104.184 81.9388 104.16 82.1415 104.112C82.3495 104.064 82.5815 103.992 82.8375 103.896L83.0135 104.792C82.7415 104.909 82.4695 105.005 82.1975 105.08C81.9308 105.155 81.6535 105.192 81.3655 105.192ZM77.9415 98.216V97.352H82.8215V98.216H77.9415ZM90.6291 105V100.504C90.6291 99.7733 90.4531 99.2187 90.1011 98.84C89.7545 98.456 89.2798 98.264 88.6771 98.264C88.2185 98.264 87.8211 98.3893 87.4851 98.64C87.1491 98.8907 86.8905 99.2507 86.7091 99.72C86.5278 100.184 86.4371 100.739 86.4371 101.384H85.9571C85.9571 100.493 86.0745 99.7333 86.3091 99.104C86.5438 98.4747 86.8851 97.9947 87.3331 97.664C87.7865 97.328 88.3358 97.16 88.9811 97.16C89.5838 97.16 90.0985 97.296 90.5251 97.568C90.9571 97.8347 91.2878 98.2187 91.5171 98.72C91.7465 99.2213 91.8611 99.816 91.8611 100.504V105H90.6291ZM85.1891 105V94.088H86.4371V105H85.1891ZM97.6614 105.192C97 105.192 96.408 105.024 95.8854 104.688C95.368 104.347 94.9574 103.875 94.6534 103.272C94.3547 102.669 94.2054 101.976 94.2054 101.192C94.2054 100.355 94.3547 99.6347 94.6534 99.032C94.952 98.4293 95.36 97.968 95.8774 97.648C96.4 97.3227 96.9947 97.16 97.6614 97.16C98.2427 97.16 98.7387 97.2773 99.1494 97.512C99.56 97.7467 99.8907 98.064 100.141 98.464C100.392 98.864 100.565 99.3173 100.661 99.824C100.763 100.325 100.792 100.845 100.749 101.384H95.2134V100.616H99.9254L99.5574 100.856C99.5734 100.541 99.5547 100.227 99.5014 99.912C99.4534 99.5973 99.36 99.3093 99.2214 99.048C99.0827 98.7813 98.888 98.568 98.6374 98.408C98.3867 98.248 98.0667 98.168 97.6774 98.168C97.1867 98.168 96.776 98.2933 96.4454 98.544C96.1147 98.7947 95.8667 99.1253 95.7014 99.536C95.536 99.9413 95.4534 100.381 95.4534 100.856V101.368C95.4534 101.901 95.5334 102.379 95.6934 102.8C95.8587 103.221 96.104 103.555 96.4294 103.8C96.7547 104.045 97.1654 104.168 97.6614 104.168C98.1574 104.168 98.5654 104.048 98.8854 103.808C99.2054 103.568 99.4 103.213 99.4694 102.744H100.765C100.685 103.251 100.504 103.688 100.221 104.056C99.9387 104.419 99.5787 104.699 99.1414 104.896C98.704 105.093 98.2107 105.192 97.6614 105.192ZM103.384 105V97.336H104.632V105H103.384ZM104.248 101.544C104.248 100.573 104.341 99.768 104.528 99.128C104.715 98.4827 104.987 98.0027 105.344 97.688C105.707 97.368 106.147 97.208 106.664 97.208C106.835 97.208 106.989 97.2213 107.128 97.248C107.272 97.2693 107.416 97.304 107.56 97.352L107.48 98.584C107.331 98.536 107.168 98.496 106.992 98.464C106.816 98.4267 106.659 98.408 106.52 98.408C106.067 98.408 105.701 98.5387 105.424 98.8C105.147 99.056 104.944 99.4187 104.816 99.888C104.693 100.357 104.632 100.909 104.632 101.544H104.248ZM116.754 105.192C116.194 105.192 115.706 105.064 115.29 104.808C114.88 104.552 114.562 104.179 114.338 103.688C114.114 103.192 114.002 102.589 114.002 101.88H114.53C114.53 102.355 114.629 102.755 114.826 103.08C115.024 103.405 115.28 103.653 115.594 103.824C115.914 103.989 116.253 104.072 116.61 104.072C116.994 104.072 117.362 103.963 117.714 103.744C118.066 103.52 118.354 103.192 118.578 102.76C118.802 102.328 118.914 101.795 118.914 101.16C118.914 100.552 118.81 100.032 118.602 99.6C118.4 99.168 118.125 98.8373 117.778 98.608C117.432 98.3787 117.048 98.264 116.626 98.264C116.264 98.264 115.922 98.352 115.602 98.528C115.282 98.704 115.024 98.9627 114.826 99.304C114.629 99.64 114.53 100.056 114.53 100.552H114.002C114.002 99.8107 114.125 99.1893 114.37 98.688C114.616 98.1813 114.949 97.8 115.37 97.544C115.792 97.288 116.264 97.16 116.786 97.16C117.384 97.16 117.941 97.32 118.458 97.64C118.976 97.96 119.394 98.4187 119.714 99.016C120.034 99.6133 120.194 100.328 120.194 101.16C120.194 102.003 120.032 102.725 119.706 103.328C119.386 103.931 118.965 104.392 118.442 104.712C117.92 105.032 117.357 105.192 116.754 105.192ZM113.282 108.76V97.352H114.322L114.53 99.144V108.76H113.282ZM127.538 105L127.378 103.32V100.04C127.378 99.352 127.231 98.8587 126.938 98.56C126.644 98.256 126.204 98.104 125.618 98.104C125.287 98.104 124.986 98.152 124.714 98.248C124.447 98.344 124.234 98.4933 124.074 98.696C123.919 98.8933 123.842 99.1493 123.842 99.464H122.45C122.45 98.9093 122.586 98.464 122.858 98.128C123.13 97.7867 123.503 97.5413 123.978 97.392C124.458 97.2373 125.004 97.16 125.618 97.16C126.204 97.16 126.724 97.2587 127.178 97.456C127.631 97.6533 127.986 97.968 128.242 98.4C128.498 98.8267 128.626 99.384 128.626 100.072V105H127.538ZM124.93 105.192C124.3 105.192 123.78 105.08 123.37 104.856C122.959 104.632 122.652 104.341 122.45 103.984C122.247 103.627 122.146 103.251 122.146 102.856C122.146 102.339 122.274 101.917 122.53 101.592C122.791 101.267 123.146 101.029 123.594 100.88C124.042 100.725 124.546 100.648 125.106 100.648C125.506 100.648 125.906 100.688 126.306 100.768C126.711 100.848 127.106 100.957 127.49 101.096V101.88C127.17 101.752 126.807 101.651 126.402 101.576C126.002 101.501 125.634 101.464 125.298 101.464C124.786 101.464 124.354 101.571 124.002 101.784C123.65 101.992 123.474 102.349 123.474 102.856C123.474 103.229 123.607 103.549 123.874 103.816C124.146 104.083 124.578 104.216 125.17 104.216C125.586 104.216 125.959 104.12 126.29 103.928C126.626 103.731 126.89 103.485 127.082 103.192C127.279 102.899 127.378 102.605 127.378 102.312H127.682C127.682 102.824 127.57 103.299 127.346 103.736C127.127 104.173 126.812 104.525 126.402 104.792C125.991 105.059 125.5 105.192 124.93 105.192ZM134.478 108.936C133.694 108.936 133.014 108.824 132.438 108.6C131.862 108.381 131.414 108.085 131.094 107.712C130.779 107.344 130.622 106.936 130.622 106.488C130.622 105.896 130.838 105.443 131.27 105.128C131.707 104.819 132.27 104.664 132.958 104.664L133.646 105.096C133.07 105.096 132.625 105.216 132.31 105.456C131.995 105.696 131.838 106.024 131.838 106.44C131.838 106.856 132.062 107.208 132.51 107.496C132.958 107.784 133.614 107.928 134.478 107.928C135.118 107.928 135.678 107.835 136.158 107.648C136.643 107.467 137.019 107.227 137.286 106.928C137.558 106.635 137.694 106.317 137.694 105.976C137.694 105.736 137.606 105.528 137.43 105.352C137.254 105.181 136.985 105.096 136.622 105.096H133.646C133.129 105.096 132.681 105.019 132.302 104.864C131.929 104.704 131.641 104.496 131.438 104.24C131.235 103.984 131.134 103.704 131.134 103.4C131.134 103.08 131.225 102.808 131.406 102.584C131.587 102.36 131.822 102.189 132.11 102.072C132.403 101.955 132.718 101.896 133.054 101.896L133.294 102.36C133.134 102.36 132.971 102.397 132.806 102.472C132.646 102.541 132.51 102.648 132.398 102.792C132.291 102.931 132.238 103.107 132.238 103.32C132.238 103.565 132.339 103.771 132.542 103.936C132.745 104.101 133.113 104.184 133.646 104.184H136.622C137.342 104.184 137.907 104.336 138.318 104.64C138.734 104.944 138.942 105.368 138.942 105.912C138.942 106.413 138.763 106.893 138.406 107.352C138.049 107.816 137.537 108.195 136.87 108.488C136.203 108.787 135.406 108.936 134.478 108.936ZM134.702 102.76C134.115 102.76 133.585 102.643 133.11 102.408C132.641 102.173 132.267 101.845 131.99 101.424C131.718 101.003 131.582 100.515 131.582 99.96C131.582 99.4 131.718 98.9093 131.99 98.488C132.267 98.0667 132.641 97.7413 133.11 97.512C133.585 97.2773 134.115 97.16 134.702 97.16C135.273 97.16 135.79 97.2773 136.254 97.512C136.723 97.7413 137.097 98.0667 137.374 98.488C137.651 98.9093 137.79 99.4 137.79 99.96C137.79 100.515 137.651 101.003 137.374 101.424C137.097 101.845 136.723 102.173 136.254 102.408C135.79 102.643 135.273 102.76 134.702 102.76ZM134.702 101.864C135.289 101.864 135.745 101.683 136.07 101.32C136.395 100.957 136.558 100.504 136.558 99.96C136.558 99.4 136.395 98.9467 136.07 98.6C135.745 98.248 135.289 98.072 134.702 98.072C134.121 98.072 133.662 98.248 133.326 98.6C132.995 98.9467 132.83 99.4 132.83 99.96C132.83 100.504 132.995 100.957 133.326 101.32C133.662 101.683 134.121 101.864 134.702 101.864ZM137.214 98.376L136.622 98.136C136.622 97.688 136.71 97.296 136.886 96.96C137.062 96.6187 137.313 96.3547 137.638 96.168C137.963 95.976 138.35 95.88 138.798 95.88L138.702 97.112C138.222 97.112 137.854 97.216 137.598 97.424C137.342 97.6267 137.214 97.944 137.214 98.376ZM143.621 105.192C142.96 105.192 142.368 105.024 141.845 104.688C141.328 104.347 140.917 103.875 140.613 103.272C140.315 102.669 140.165 101.976 140.165 101.192C140.165 100.355 140.315 99.6347 140.613 99.032C140.912 98.4293 141.32 97.968 141.837 97.648C142.36 97.3227 142.955 97.16 143.621 97.16C144.203 97.16 144.699 97.2773 145.109 97.512C145.52 97.7467 145.851 98.064 146.101 98.464C146.352 98.864 146.525 99.3173 146.621 99.824C146.723 100.325 146.752 100.845 146.709 101.384H141.173V100.616H145.885L145.517 100.856C145.533 100.541 145.515 100.227 145.461 99.912C145.413 99.5973 145.32 99.3093 145.181 99.048C145.043 98.7813 144.848 98.568 144.597 98.408C144.347 98.248 144.027 98.168 143.637 98.168C143.147 98.168 142.736 98.2933 142.405 98.544C142.075 98.7947 141.827 99.1253 141.661 99.536C141.496 99.9413 141.413 100.381 141.413 100.856V101.368C141.413 101.901 141.493 102.379 141.653 102.8C141.819 103.221 142.064 103.555 142.389 103.8C142.715 104.045 143.125 104.168 143.621 104.168C144.117 104.168 144.525 104.048 144.845 103.808C145.165 103.568 145.36 103.213 145.429 102.744H146.725C146.645 103.251 146.464 103.688 146.181 104.056C145.899 104.419 145.539 104.699 145.101 104.896C144.664 105.093 144.171 105.192 143.621 105.192ZM148.208 104.256C148.208 104.005 148.296 103.789 148.472 103.608C148.648 103.427 148.869 103.336 149.136 103.336C149.403 103.336 149.629 103.427 149.816 103.608C150.003 103.789 150.096 104.005 150.096 104.256C150.096 104.507 150.003 104.717 149.816 104.888C149.629 105.059 149.403 105.144 149.136 105.144C148.869 105.144 148.648 105.059 148.472 104.888C148.296 104.712 148.208 104.501 148.208 104.256Z" fill="#567979"/>
</g>
<defs>
<filter id="filter0_d_7045_5631" x="0" y="0" width="261.767" height="129" filterUnits="userSpaceOnUse" color-interpolation-filters="sRGB">
<feFlood flood-opacity="0" result="BackgroundImageFix"/>
<feColorMatrix in="SourceAlpha" type="matrix" values="0 0 0 0 0 0 0 0 0 0 0 0 0 0 0 0 0 0 127 0" result="hardAlpha"/>
<feOffset dy="4"/>
<feGaussianBlur stdDeviation="3"/>
<feComposite in2="hardAlpha" operator="out"/>
<feColorMatrix type="matrix" values="0 0 0 0 0 0 0 0 0 0 0 0 0 0 0 0 0 0 0.1 0"/>
<feBlend mode="normal" in2="BackgroundImageFix" result="effect1_dropShadow_7045_5631"/>
<feBlend mode="normal" in="SourceGraphic" in2="effect1_dropShadow_7045_5631" result="shape"/>
</filter>
</defs>
</svg>
