<svg width="257" height="68" viewBox="0 0 257 68" fill="none" xmlns="http://www.w3.org/2000/svg">
<path d="M7.04333 32.6331L16.7674 41V49C16.7674 53.9706 20.7968 58 25.7674 58L247.035 58C252.005 58 256.035 53.9706 256.035 49V11C256.035 6.02944 252.005 2 247.035 2L25.7674 2C20.7968 2 16.7674 6.02944 16.7674 11V20.5L7.15555 27.9931C5.66179 29.1575 5.60761 31.3978 7.04333 32.6331Z" fill="white"/>
<g filter="url(#filter0_d_7093_6111)">
<mask id="path-2-inside-1_7093_6111" fill="white">
<path d="M7.04333 32.6331L16.7674 41V49C16.7674 53.9706 20.7968 58 25.7674 58L207.035 58C212.005 58 216.035 53.9706 216.035 49V11C216.035 6.02944 212.005 2 207.035 2L25.7674 2C20.7968 2 16.7674 6.02944 16.7674 11V20.5L7.15555 27.9931C5.66179 29.1575 5.60761 31.3978 7.04333 32.6331Z"/>
</mask>
<path d="M7.04333 32.6331L16.7674 41V49C16.7674 53.9706 20.7968 58 25.7674 58L207.035 58C212.005 58 216.035 53.9706 216.035 49V11C216.035 6.02944 212.005 2 207.035 2L25.7674 2C20.7968 2 16.7674 6.02944 16.7674 11V20.5L7.15555 27.9931C5.66179 29.1575 5.60761 31.3978 7.04333 32.6331Z" fill="white"/>
<path d="M16.7674 41H18.1674V40.3577L17.6805 39.9388L16.7674 41ZM7.04333 32.6331L6.13021 33.6944H6.13021L7.04333 32.6331ZM7.15555 27.9931L8.0163 29.0972L8.0163 29.0972L7.15555 27.9931ZM16.7674 20.5L17.6281 21.6041L18.1674 21.1838V20.5H16.7674ZM25.7674 2V0.6V2ZM207.035 2V3.4V2ZM17.6805 39.9388L7.95644 31.5719L6.13021 33.6944L15.8542 42.0612L17.6805 39.9388ZM8.0163 29.0972L17.6281 21.6041L15.9066 19.3959L6.2948 26.8889L8.0163 29.0972ZM7.95644 31.5719C7.19073 30.9131 7.21963 29.7183 8.0163 29.0972L6.2948 26.8889C4.10396 28.5968 4.02449 31.8825 6.13021 33.6944L7.95644 31.5719ZM25.7674 3.4L207.035 3.4V0.600003L25.7674 0.6V3.4ZM214.635 11V49H217.435V11L214.635 11ZM207.035 56.6L25.7674 56.6V59.4L207.035 59.4V56.6ZM18.1674 20.5V11H15.3674V20.5H18.1674ZM18.1674 49V41H15.3674V49H18.1674ZM25.7674 56.6C21.57 56.6 18.1674 53.1974 18.1674 49H15.3674C15.3674 54.7438 20.0236 59.4 25.7674 59.4V56.6ZM214.635 49C214.635 53.1974 211.232 56.6 207.035 56.6V59.4C212.778 59.4 217.435 54.7438 217.435 49H214.635ZM207.035 3.4C211.232 3.4 214.635 6.80264 214.635 11L217.435 11C217.435 5.25624 212.778 0.600003 207.035 0.600003V3.4ZM25.7674 0.6C20.0236 0.6 15.3674 5.25624 15.3674 11H18.1674C18.1674 6.80264 21.57 3.4 25.7674 3.4V0.6Z" fill="#333333" mask="url(#path-2-inside-1_7093_6111)"/>
</g>
<g filter="url(#filter1_d_7093_6111)">
<path d="M31.224 14.952H32.632L35.24 23.896H34.872L37.544 15.992H38.392L41.032 23.832H40.68L43.672 14.952H45.064L41.512 25H40.2L37.88 18.184H38.12L35.72 25H34.408L31.224 14.952ZM49.3253 25.192C48.6373 25.192 48.0239 25.04 47.4852 24.736C46.9519 24.432 46.5306 23.9813 46.2212 23.384C45.9119 22.7867 45.7572 22.0507 45.7572 21.176C45.7572 20.296 45.9119 19.56 46.2212 18.968C46.5306 18.3707 46.9519 17.92 47.4852 17.616C48.0239 17.312 48.6373 17.16 49.3253 17.16C50.0079 17.16 50.6159 17.312 51.1493 17.616C51.6879 17.92 52.1093 18.3707 52.4132 18.968C52.7226 19.56 52.8773 20.296 52.8773 21.176C52.8773 22.0507 52.7226 22.7867 52.4132 23.384C52.1093 23.9813 51.6879 24.432 51.1493 24.736C50.6159 25.04 50.0079 25.192 49.3253 25.192ZM49.2933 24.104C49.7893 24.104 50.2106 23.9867 50.5573 23.752C50.9039 23.512 51.1652 23.1733 51.3412 22.736C51.5226 22.2987 51.6133 21.7787 51.6133 21.176C51.6133 20.264 51.4239 19.5467 51.0452 19.024C50.6666 18.496 50.1039 18.232 49.3573 18.232C48.8559 18.232 48.4319 18.352 48.0852 18.592C47.7439 18.8267 47.4826 19.1653 47.3012 19.608C47.1253 20.0453 47.0373 20.568 47.0373 21.176C47.0373 22.0773 47.2266 22.792 47.6052 23.32C47.9893 23.8427 48.5519 24.104 49.2933 24.104ZM60.6673 17.336H61.9152V25H60.6673V17.336ZM55.2432 17.336H56.4912V22.104C56.4912 22.744 56.6459 23.2293 56.9552 23.56C57.2699 23.8907 57.7179 24.056 58.2993 24.056C58.7792 24.056 59.1952 23.928 59.5472 23.672C59.9046 23.416 60.1793 23.064 60.3713 22.616C60.5686 22.1627 60.6673 21.6453 60.6673 21.064H61.1312C61.1312 21.9227 61.0059 22.656 60.7552 23.264C60.5099 23.872 60.1606 24.3387 59.7073 24.664C59.2592 24.984 58.7312 25.144 58.1233 25.144C57.5472 25.144 57.0432 25.0373 56.6112 24.824C56.1792 24.6107 55.8432 24.288 55.6032 23.856C55.3632 23.4187 55.2432 22.8667 55.2432 22.2V17.336ZM65.3147 25V14.088H66.5627V25H65.3147ZM72.6951 25.192C72.0765 25.192 71.5085 25.0267 70.9911 24.696C70.4738 24.36 70.0605 23.8907 69.7511 23.288C69.4418 22.68 69.2871 21.9653 69.2871 21.144C69.2871 20.328 69.4391 19.6213 69.7431 19.024C70.0471 18.4267 70.4498 17.968 70.9511 17.648C71.4578 17.3227 72.0125 17.16 72.6151 17.16C73.1751 17.16 73.6658 17.296 74.0871 17.568C74.5138 17.84 74.8445 18.232 75.0791 18.744C75.3138 19.256 75.4311 19.8747 75.4311 20.6H74.9511C74.9511 20.0933 74.8498 19.6667 74.6471 19.32C74.4498 18.9733 74.1911 18.712 73.8711 18.536C73.5511 18.3547 73.2071 18.264 72.8391 18.264C72.4231 18.264 72.0418 18.3813 71.6951 18.616C71.3538 18.8453 71.0791 19.176 70.8711 19.608C70.6685 20.0347 70.5671 20.5467 70.5671 21.144C70.5671 21.752 70.6685 22.2747 70.8711 22.712C71.0791 23.1493 71.3538 23.4853 71.6951 23.72C72.0418 23.9547 72.4231 24.072 72.8391 24.072C73.1858 24.072 73.5191 23.9813 73.8391 23.8C74.1645 23.6187 74.4311 23.3547 74.6391 23.008C74.8471 22.656 74.9511 22.232 74.9511 21.736H75.4311C75.4311 22.4773 75.3085 23.1067 75.0631 23.624C74.8231 24.136 74.4951 24.5253 74.0791 24.792C73.6685 25.0587 73.2071 25.192 72.6951 25.192ZM75.1591 25L74.9511 23.208V14.088H76.1991V25H75.1591ZM82.2964 17.352H83.6884L86.1844 23.912H85.8964L87.8324 17.352H89.1124L86.2324 26.536C85.9924 27.304 85.6724 27.896 85.2724 28.312C84.8724 28.728 84.3604 28.936 83.7364 28.936C83.4004 28.936 83.0804 28.888 82.7764 28.792C82.4777 28.696 82.1684 28.5573 81.8484 28.376V27.224C82.131 27.448 82.403 27.608 82.6644 27.704C82.931 27.8 83.2084 27.848 83.4964 27.848C83.8164 27.848 84.083 27.7467 84.2964 27.544C84.515 27.3413 84.6964 27.08 84.8404 26.76C84.9844 26.4453 85.107 26.1147 85.2084 25.768L85.4324 25L82.2964 17.352ZM93.9415 25.192C93.2535 25.192 92.6402 25.04 92.1015 24.736C91.5682 24.432 91.1468 23.9813 90.8375 23.384C90.5282 22.7867 90.3735 22.0507 90.3735 21.176C90.3735 20.296 90.5282 19.56 90.8375 18.968C91.1468 18.3707 91.5682 17.92 92.1015 17.616C92.6402 17.312 93.2535 17.16 93.9415 17.16C94.6242 17.16 95.2322 17.312 95.7655 17.616C96.3042 17.92 96.7255 18.3707 97.0295 18.968C97.3388 19.56 97.4935 20.296 97.4935 21.176C97.4935 22.0507 97.3388 22.7867 97.0295 23.384C96.7255 23.9813 96.3042 24.432 95.7655 24.736C95.2322 25.04 94.6242 25.192 93.9415 25.192ZM93.9095 24.104C94.4055 24.104 94.8268 23.9867 95.1735 23.752C95.5202 23.512 95.7815 23.1733 95.9575 22.736C96.1388 22.2987 96.2295 21.7787 96.2295 21.176C96.2295 20.264 96.0402 19.5467 95.6615 19.024C95.2828 18.496 94.7202 18.232 93.9735 18.232C93.4722 18.232 93.0482 18.352 92.7015 18.592C92.3602 18.8267 92.0988 19.1653 91.9175 19.608C91.7415 20.0453 91.6535 20.568 91.6535 21.176C91.6535 22.0773 91.8428 22.792 92.2215 23.32C92.6055 23.8427 93.1682 24.104 93.9095 24.104ZM105.283 17.336H106.531V25H105.283V17.336ZM99.8595 17.336H101.107V22.104C101.107 22.744 101.262 23.2293 101.571 23.56C101.886 23.8907 102.334 24.056 102.915 24.056C103.395 24.056 103.811 23.928 104.163 23.672C104.521 23.416 104.795 23.064 104.987 22.616C105.185 22.1627 105.283 21.6453 105.283 21.064H105.747C105.747 21.9227 105.622 22.656 105.371 23.264C105.126 23.872 104.777 24.3387 104.323 24.664C103.875 24.984 103.347 25.144 102.739 25.144C102.163 25.144 101.659 25.0373 101.227 24.824C100.795 24.6107 100.459 24.288 100.219 23.856C99.9795 23.4187 99.8595 22.8667 99.8595 22.2V17.336ZM113.888 25V14.088H115.136V25H113.888ZM119.236 15.544C118.98 15.544 118.778 15.472 118.628 15.328C118.479 15.1787 118.404 14.984 118.404 14.744C118.404 14.5093 118.479 14.3227 118.628 14.184C118.778 14.0453 118.98 13.976 119.236 13.976C119.492 13.976 119.695 14.0453 119.844 14.184C119.994 14.3227 120.068 14.5093 120.068 14.744C120.068 14.984 119.994 15.1787 119.844 15.328C119.695 15.472 119.492 15.544 119.236 15.544ZM118.612 25V17.336H119.86V25H118.612ZM123.458 25V14.088H124.706V25H123.458ZM124.514 20.616L128.418 17.352H130.162L124.514 21.944V20.616ZM128.802 25L125.17 20.168L126.434 19.944L130.338 25H128.802ZM135.29 25.192C134.628 25.192 134.036 25.024 133.514 24.688C132.996 24.3467 132.586 23.8747 132.282 23.272C131.983 22.6693 131.834 21.976 131.834 21.192C131.834 20.3547 131.983 19.6347 132.282 19.032C132.58 18.4293 132.988 17.968 133.506 17.648C134.028 17.3227 134.623 17.16 135.29 17.16C135.871 17.16 136.367 17.2773 136.778 17.512C137.188 17.7467 137.519 18.064 137.77 18.464C138.02 18.864 138.194 19.3173 138.29 19.824C138.391 20.3253 138.42 20.8453 138.378 21.384H132.842V20.616H137.554L137.186 20.856C137.202 20.5413 137.183 20.2267 137.13 19.912C137.082 19.5973 136.988 19.3093 136.85 19.048C136.711 18.7813 136.516 18.568 136.266 18.408C136.015 18.248 135.695 18.168 135.306 18.168C134.815 18.168 134.404 18.2933 134.074 18.544C133.743 18.7947 133.495 19.1253 133.33 19.536C133.164 19.9413 133.082 20.3813 133.082 20.856V21.368C133.082 21.9013 133.162 22.3787 133.322 22.8C133.487 23.2213 133.732 23.5547 134.058 23.8C134.383 24.0453 134.794 24.168 135.29 24.168C135.786 24.168 136.194 24.048 136.514 23.808C136.834 23.568 137.028 23.2133 137.098 22.744H138.394C138.314 23.2507 138.132 23.688 137.85 24.056C137.567 24.4187 137.207 24.6987 136.77 24.896C136.332 25.0933 135.839 25.192 135.29 25.192ZM147.321 25.192C146.905 25.192 146.532 25.112 146.201 24.952C145.87 24.792 145.609 24.552 145.417 24.232C145.225 23.912 145.129 23.512 145.129 23.032V15.224H146.361V23C146.361 23.7893 146.729 24.184 147.465 24.184C147.684 24.184 147.894 24.16 148.097 24.112C148.305 24.064 148.537 23.992 148.793 23.896L148.969 24.792C148.697 24.9093 148.425 25.0053 148.153 25.08C147.886 25.1547 147.609 25.192 147.321 25.192ZM143.897 18.216V17.352H148.777V18.216H143.897ZM153.913 25.192C153.225 25.192 152.611 25.04 152.073 24.736C151.539 24.432 151.118 23.9813 150.809 23.384C150.499 22.7867 150.345 22.0507 150.345 21.176C150.345 20.296 150.499 19.56 150.809 18.968C151.118 18.3707 151.539 17.92 152.073 17.616C152.611 17.312 153.225 17.16 153.913 17.16C154.595 17.16 155.203 17.312 155.737 17.616C156.275 17.92 156.697 18.3707 157.001 18.968C157.31 19.56 157.465 20.296 157.465 21.176C157.465 22.0507 157.31 22.7867 157.001 23.384C156.697 23.9813 156.275 24.432 155.737 24.736C155.203 25.04 154.595 25.192 153.913 25.192ZM153.881 24.104C154.377 24.104 154.798 23.9867 155.145 23.752C155.491 23.512 155.753 23.1733 155.929 22.736C156.11 22.2987 156.201 21.7787 156.201 21.176C156.201 20.264 156.011 19.5467 155.633 19.024C155.254 18.496 154.691 18.232 153.945 18.232C153.443 18.232 153.019 18.352 152.673 18.592C152.331 18.8267 152.07 19.1653 151.889 19.608C151.713 20.0453 151.625 20.568 151.625 21.176C151.625 22.0773 151.814 22.792 152.193 23.32C152.577 23.8427 153.139 24.104 153.881 24.104ZM164.012 25V17.336H165.26V25H164.012ZM164.876 21.544C164.876 20.5733 164.969 19.768 165.156 19.128C165.342 18.4827 165.614 18.0027 165.972 17.688C166.334 17.368 166.774 17.208 167.292 17.208C167.462 17.208 167.617 17.2213 167.756 17.248C167.9 17.2693 168.044 17.304 168.188 17.352L168.108 18.584C167.958 18.536 167.796 18.496 167.62 18.464C167.444 18.4267 167.286 18.408 167.148 18.408C166.694 18.408 166.329 18.5387 166.052 18.8C165.774 19.056 165.572 19.4187 165.444 19.888C165.321 20.3573 165.26 20.9093 165.26 21.544H164.876ZM172.609 25.192C171.948 25.192 171.356 25.024 170.833 24.688C170.316 24.3467 169.905 23.8747 169.601 23.272C169.302 22.6693 169.153 21.976 169.153 21.192C169.153 20.3547 169.302 19.6347 169.601 19.032C169.9 18.4293 170.308 17.968 170.825 17.648C171.348 17.3227 171.942 17.16 172.609 17.16C173.19 17.16 173.686 17.2773 174.097 17.512C174.508 17.7467 174.838 18.064 175.089 18.464C175.34 18.864 175.513 19.3173 175.609 19.824C175.71 20.3253 175.74 20.8453 175.697 21.384H170.161V20.616H174.873L174.505 20.856C174.521 20.5413 174.502 20.2267 174.449 19.912C174.401 19.5973 174.308 19.3093 174.169 19.048C174.03 18.7813 173.836 18.568 173.585 18.408C173.334 18.248 173.014 18.168 172.625 18.168C172.134 18.168 171.724 18.2933 171.393 18.544C171.062 18.7947 170.814 19.1253 170.649 19.536C170.484 19.9413 170.401 20.3813 170.401 20.856V21.368C170.401 21.9013 170.481 22.3787 170.641 22.8C170.806 23.2213 171.052 23.5547 171.377 23.8C171.702 24.0453 172.113 24.168 172.609 24.168C173.105 24.168 173.513 24.048 173.833 23.808C174.153 23.568 174.348 23.2133 174.417 22.744H175.713C175.633 23.2507 175.452 23.688 175.169 24.056C174.886 24.4187 174.526 24.6987 174.089 24.896C173.652 25.0933 173.158 25.192 172.609 25.192ZM183.068 25L182.908 23.32V20.04C182.908 19.352 182.761 18.8587 182.468 18.56C182.174 18.256 181.734 18.104 181.148 18.104C180.817 18.104 180.516 18.152 180.244 18.248C179.977 18.344 179.764 18.4933 179.604 18.696C179.449 18.8933 179.372 19.1493 179.372 19.464H177.98C177.98 18.9093 178.116 18.464 178.388 18.128C178.66 17.7867 179.033 17.5413 179.508 17.392C179.988 17.2373 180.534 17.16 181.148 17.16C181.734 17.16 182.254 17.2587 182.708 17.456C183.161 17.6533 183.516 17.968 183.772 18.4C184.028 18.8267 184.156 19.384 184.156 20.072V25H183.068ZM180.46 25.192C179.83 25.192 179.31 25.08 178.9 24.856C178.489 24.632 178.182 24.3413 177.98 23.984C177.777 23.6267 177.676 23.2507 177.676 22.856C177.676 22.3387 177.804 21.9173 178.06 21.592C178.321 21.2667 178.676 21.0293 179.124 20.88C179.572 20.7253 180.076 20.648 180.636 20.648C181.036 20.648 181.436 20.688 181.836 20.768C182.241 20.848 182.636 20.9573 183.02 21.096V21.88C182.7 21.752 182.337 21.6507 181.932 21.576C181.532 21.5013 181.164 21.464 180.828 21.464C180.316 21.464 179.884 21.5707 179.532 21.784C179.18 21.992 179.004 22.3493 179.004 22.856C179.004 23.2293 179.137 23.5493 179.404 23.816C179.676 24.0827 180.108 24.216 180.7 24.216C181.116 24.216 181.489 24.12 181.82 23.928C182.156 23.7307 182.42 23.4853 182.612 23.192C182.809 22.8987 182.908 22.6053 182.908 22.312H183.212C183.212 22.824 183.1 23.2987 182.876 23.736C182.657 24.1733 182.342 24.5253 181.932 24.792C181.521 25.0587 181.03 25.192 180.46 25.192ZM190.04 25.192C189.421 25.192 188.853 25.0267 188.336 24.696C187.819 24.36 187.405 23.8907 187.096 23.288C186.787 22.68 186.632 21.9653 186.632 21.144C186.632 20.328 186.784 19.6213 187.088 19.024C187.392 18.4267 187.795 17.968 188.296 17.648C188.803 17.3227 189.357 17.16 189.96 17.16C190.52 17.16 191.011 17.296 191.432 17.568C191.859 17.84 192.189 18.232 192.424 18.744C192.659 19.256 192.776 19.8747 192.776 20.6H192.296C192.296 20.0933 192.195 19.6667 191.992 19.32C191.795 18.9733 191.536 18.712 191.216 18.536C190.896 18.3547 190.552 18.264 190.184 18.264C189.768 18.264 189.387 18.3813 189.04 18.616C188.699 18.8453 188.424 19.176 188.216 19.608C188.013 20.0347 187.912 20.5467 187.912 21.144C187.912 21.752 188.013 22.2747 188.216 22.712C188.424 23.1493 188.699 23.4853 189.04 23.72C189.387 23.9547 189.768 24.072 190.184 24.072C190.531 24.072 190.864 23.9813 191.184 23.8C191.509 23.6187 191.776 23.3547 191.984 23.008C192.192 22.656 192.296 22.232 192.296 21.736H192.776C192.776 22.4773 192.653 23.1067 192.408 23.624C192.168 24.136 191.84 24.5253 191.424 24.792C191.013 25.0587 190.552 25.192 190.04 25.192ZM192.504 25L192.296 23.208V14.088H193.544V25H192.504ZM34.968 45.192C34.552 45.192 34.1787 45.112 33.848 44.952C33.5173 44.792 33.256 44.552 33.064 44.232C32.872 43.912 32.776 43.512 32.776 43.032V35.224H34.008V43C34.008 43.7893 34.376 44.184 35.112 44.184C35.3307 44.184 35.5413 44.16 35.744 44.112C35.952 44.064 36.184 43.992 36.44 43.896L36.616 44.792C36.344 44.9093 36.072 45.0053 35.8 45.08C35.5333 45.1547 35.256 45.192 34.968 45.192ZM31.544 38.216V37.352H36.424V38.216H31.544ZM44.2316 45V40.504C44.2316 39.7733 44.0556 39.2187 43.7036 38.84C43.357 38.456 42.8823 38.264 42.2796 38.264C41.821 38.264 41.4236 38.3893 41.0876 38.64C40.7516 38.8907 40.493 39.2507 40.3116 39.72C40.1303 40.184 40.0396 40.7387 40.0396 41.384H39.5596C39.5596 40.4933 39.677 39.7333 39.9116 39.104C40.1463 38.4747 40.4876 37.9947 40.9356 37.664C41.389 37.328 41.9383 37.16 42.5836 37.16C43.1863 37.16 43.701 37.296 44.1276 37.568C44.5596 37.8347 44.8903 38.2187 45.1196 38.72C45.349 39.2213 45.4636 39.816 45.4636 40.504V45H44.2316ZM38.7916 45V34.088H40.0396V45H38.7916ZM51.2639 45.192C50.6025 45.192 50.0105 45.024 49.4879 44.688C48.9705 44.3467 48.5599 43.8747 48.2559 43.272C47.9572 42.6693 47.8079 41.976 47.8079 41.192C47.8079 40.3547 47.9572 39.6347 48.2559 39.032C48.5545 38.4293 48.9625 37.968 49.4799 37.648C50.0025 37.3227 50.5972 37.16 51.2639 37.16C51.8452 37.16 52.3412 37.2773 52.7519 37.512C53.1625 37.7467 53.4932 38.064 53.7439 38.464C53.9945 38.864 54.1679 39.3173 54.2639 39.824C54.3652 40.3253 54.3945 40.8453 54.3519 41.384H48.8159V40.616H53.5279L53.1599 40.856C53.1759 40.5413 53.1572 40.2267 53.1039 39.912C53.0559 39.5973 52.9625 39.3093 52.8239 39.048C52.6852 38.7813 52.4905 38.568 52.2399 38.408C51.9892 38.248 51.6692 38.168 51.2799 38.168C50.7892 38.168 50.3785 38.2933 50.0479 38.544C49.7172 38.7947 49.4692 39.1253 49.3039 39.536C49.1385 39.9413 49.0559 40.3813 49.0559 40.856V41.368C49.0559 41.9013 49.1359 42.3787 49.2959 42.8C49.4612 43.2213 49.7065 43.5547 50.0319 43.8C50.3572 44.0453 50.7679 44.168 51.2639 44.168C51.7599 44.168 52.1679 44.048 52.4879 43.808C52.8079 43.568 53.0025 43.2133 53.0719 42.744H54.3679C54.2879 43.2507 54.1065 43.688 53.8239 44.056C53.5412 44.4187 53.1812 44.6987 52.7439 44.896C52.3065 45.0933 51.8132 45.192 51.2639 45.192ZM63.5995 45.192C62.9382 45.192 62.3462 45.024 61.8235 44.688C61.3062 44.3467 60.8955 43.8747 60.5915 43.272C60.2928 42.6693 60.1435 41.976 60.1435 41.192C60.1435 40.3547 60.2928 39.6347 60.5915 39.032C60.8902 38.4293 61.2982 37.968 61.8155 37.648C62.3382 37.3227 62.9328 37.16 63.5995 37.16C64.1808 37.16 64.6768 37.2773 65.0875 37.512C65.4982 37.7467 65.8288 38.064 66.0795 38.464C66.3302 38.864 66.5035 39.3173 66.5995 39.824C66.7008 40.3253 66.7302 40.8453 66.6875 41.384H61.1515V40.616H65.8635L65.4955 40.856C65.5115 40.5413 65.4928 40.2267 65.4395 39.912C65.3915 39.5973 65.2982 39.3093 65.1595 39.048C65.0208 38.7813 64.8262 38.568 64.5755 38.408C64.3248 38.248 64.0048 38.168 63.6155 38.168C63.1248 38.168 62.7142 38.2933 62.3835 38.544C62.0528 38.7947 61.8048 39.1253 61.6395 39.536C61.4742 39.9413 61.3915 40.3813 61.3915 40.856V41.368C61.3915 41.9013 61.4715 42.3787 61.6315 42.8C61.7968 43.2213 62.0422 43.5547 62.3675 43.8C62.6928 44.0453 63.1035 44.168 63.5995 44.168C64.0955 44.168 64.5035 44.048 64.8235 43.808C65.1435 43.568 65.3382 43.2133 65.4075 42.744H66.7035C66.6235 43.2507 66.4422 43.688 66.1595 44.056C65.8768 44.4187 65.5168 44.6987 65.0795 44.896C64.6422 45.0933 64.1488 45.192 63.5995 45.192ZM74.7622 45V40.504C74.7622 39.7733 74.5862 39.2187 74.2342 38.84C73.8876 38.456 73.4129 38.264 72.8102 38.264C72.3516 38.264 71.9542 38.3893 71.6182 38.64C71.2822 38.8907 71.0236 39.2507 70.8422 39.72C70.6609 40.184 70.5702 40.7387 70.5702 41.384H70.0902C70.0902 40.4933 70.2076 39.7333 70.4422 39.104C70.6769 38.4747 71.0182 37.9947 71.4662 37.664C71.9196 37.328 72.4689 37.16 73.1142 37.16C73.7169 37.16 74.2316 37.296 74.6582 37.568C75.0902 37.8347 75.4209 38.2187 75.6502 38.72C75.8796 39.2213 75.9942 39.816 75.9942 40.504V45H74.7622ZM69.3222 45V37.352H70.3942L70.5702 39.112V45H69.3222ZM81.4905 45.192C81.0745 45.192 80.7012 45.112 80.3705 44.952C80.0398 44.792 79.7785 44.552 79.5865 44.232C79.3945 43.912 79.2985 43.512 79.2985 43.032V35.224H80.5305V43C80.5305 43.7893 80.8985 44.184 81.6345 44.184C81.8532 44.184 82.0638 44.16 82.2665 44.112C82.4745 44.064 82.7065 43.992 82.9625 43.896L83.1385 44.792C82.8665 44.9093 82.5945 45.0053 82.3225 45.08C82.0558 45.1547 81.7785 45.192 81.4905 45.192ZM78.0665 38.216V37.352H82.9465V38.216H78.0665ZM86.0181 35.544C85.7621 35.544 85.5595 35.472 85.4101 35.328C85.2608 35.1787 85.1861 34.984 85.1861 34.744C85.1861 34.5093 85.2608 34.3227 85.4101 34.184C85.5595 34.0453 85.7621 33.976 86.0181 33.976C86.2741 33.976 86.4768 34.0453 86.6261 34.184C86.7755 34.3227 86.8501 34.5093 86.8501 34.744C86.8501 34.984 86.7755 35.1787 86.6261 35.328C86.4768 35.472 86.2741 35.544 86.0181 35.544ZM85.3941 45V37.336H86.6421V45H85.3941ZM90.2397 45V37.336H91.4877V45H90.2397ZM91.1037 41.544C91.1037 40.5733 91.1971 39.768 91.3837 39.128C91.5704 38.4827 91.8424 38.0027 92.1997 37.688C92.5624 37.368 93.0024 37.208 93.5197 37.208C93.6904 37.208 93.8451 37.2213 93.9837 37.248C94.1277 37.2693 94.2717 37.304 94.4157 37.352L94.3357 38.584C94.1864 38.536 94.0237 38.496 93.8477 38.464C93.6717 38.4267 93.5144 38.408 93.3757 38.408C92.9224 38.408 92.5571 38.5387 92.2797 38.8C92.0024 39.056 91.7997 39.4187 91.6717 39.888C91.5491 40.3573 91.4877 40.9093 91.4877 41.544H91.1037ZM98.837 45.192C98.1757 45.192 97.5837 45.024 97.061 44.688C96.5437 44.3467 96.133 43.8747 95.829 43.272C95.5303 42.6693 95.381 41.976 95.381 41.192C95.381 40.3547 95.5303 39.6347 95.829 39.032C96.1277 38.4293 96.5357 37.968 97.053 37.648C97.5757 37.3227 98.1703 37.16 98.837 37.16C99.4183 37.16 99.9143 37.2773 100.325 37.512C100.736 37.7467 101.066 38.064 101.317 38.464C101.568 38.864 101.741 39.3173 101.837 39.824C101.938 40.3253 101.968 40.8453 101.925 41.384H96.389V40.616H101.101L100.733 40.856C100.749 40.5413 100.73 40.2267 100.677 39.912C100.629 39.5973 100.536 39.3093 100.397 39.048C100.258 38.7813 100.064 38.568 99.813 38.408C99.5623 38.248 99.2423 38.168 98.853 38.168C98.3623 38.168 97.9517 38.2933 97.621 38.544C97.2903 38.7947 97.0423 39.1253 96.877 39.536C96.7117 39.9413 96.629 40.3813 96.629 40.856V41.368C96.629 41.9013 96.709 42.3787 96.869 42.8C97.0343 43.2213 97.2797 43.5547 97.605 43.8C97.9303 44.0453 98.341 44.168 98.837 44.168C99.333 44.168 99.741 44.048 100.061 43.808C100.381 43.568 100.576 43.2133 100.645 42.744H101.941C101.861 43.2507 101.68 43.688 101.397 44.056C101.114 44.4187 100.754 44.6987 100.317 44.896C99.8797 45.0933 99.3863 45.192 98.837 45.192ZM111.989 45.192C111.429 45.192 110.941 45.064 110.525 44.808C110.114 44.552 109.797 44.1787 109.573 43.688C109.349 43.192 109.237 42.5893 109.237 41.88H109.765C109.765 42.3547 109.863 42.7547 110.061 43.08C110.258 43.4053 110.514 43.6533 110.829 43.824C111.149 43.9893 111.487 44.072 111.845 44.072C112.229 44.072 112.597 43.9627 112.949 43.744C113.301 43.52 113.589 43.192 113.813 42.76C114.037 42.328 114.149 41.7947 114.149 41.16C114.149 40.552 114.045 40.032 113.837 39.6C113.634 39.168 113.359 38.8373 113.013 38.608C112.666 38.3787 112.282 38.264 111.861 38.264C111.498 38.264 111.157 38.352 110.837 38.528C110.517 38.704 110.258 38.9627 110.061 39.304C109.863 39.64 109.765 40.056 109.765 40.552H109.237C109.237 39.8107 109.359 39.1893 109.605 38.688C109.85 38.1813 110.183 37.8 110.605 37.544C111.026 37.288 111.498 37.16 112.021 37.16C112.618 37.16 113.175 37.32 113.693 37.64C114.21 37.96 114.629 38.4187 114.949 39.016C115.269 39.6133 115.429 40.328 115.429 41.16C115.429 42.0027 115.266 42.7253 114.941 43.328C114.621 43.9307 114.199 44.392 113.677 44.712C113.154 45.032 112.591 45.192 111.989 45.192ZM108.517 48.76V37.352H109.557L109.765 39.144V48.76H108.517ZM122.772 45L122.612 43.32V40.04C122.612 39.352 122.465 38.8587 122.172 38.56C121.879 38.256 121.439 38.104 120.852 38.104C120.521 38.104 120.22 38.152 119.948 38.248C119.681 38.344 119.468 38.4933 119.308 38.696C119.153 38.8933 119.076 39.1493 119.076 39.464H117.684C117.684 38.9093 117.82 38.464 118.092 38.128C118.364 37.7867 118.737 37.5413 119.212 37.392C119.692 37.2373 120.239 37.16 120.852 37.16C121.439 37.16 121.959 37.2587 122.412 37.456C122.865 37.6533 123.22 37.968 123.476 38.4C123.732 38.8267 123.86 39.384 123.86 40.072V45H122.772ZM120.164 45.192C119.535 45.192 119.015 45.08 118.604 44.856C118.193 44.632 117.887 44.3413 117.684 43.984C117.481 43.6267 117.38 43.2507 117.38 42.856C117.38 42.3387 117.508 41.9173 117.764 41.592C118.025 41.2667 118.38 41.0293 118.828 40.88C119.276 40.7253 119.78 40.648 120.34 40.648C120.74 40.648 121.14 40.688 121.54 40.768C121.945 40.848 122.34 40.9573 122.724 41.096V41.88C122.404 41.752 122.041 41.6507 121.636 41.576C121.236 41.5013 120.868 41.464 120.532 41.464C120.02 41.464 119.588 41.5707 119.236 41.784C118.884 41.992 118.708 42.3493 118.708 42.856C118.708 43.2293 118.841 43.5493 119.108 43.816C119.38 44.0827 119.812 44.216 120.404 44.216C120.82 44.216 121.193 44.12 121.524 43.928C121.86 43.7307 122.124 43.4853 122.316 43.192C122.513 42.8987 122.612 42.6053 122.612 42.312H122.916C122.916 42.824 122.804 43.2987 122.58 43.736C122.361 44.1733 122.047 44.5253 121.636 44.792C121.225 45.0587 120.735 45.192 120.164 45.192ZM127.009 45V37.336H128.257V45H127.009ZM127.873 41.544C127.873 40.5733 127.966 39.768 128.153 39.128C128.339 38.4827 128.611 38.0027 128.969 37.688C129.331 37.368 129.771 37.208 130.289 37.208C130.459 37.208 130.614 37.2213 130.753 37.248C130.897 37.2693 131.041 37.304 131.185 37.352L131.105 38.584C130.955 38.536 130.793 38.496 130.617 38.464C130.441 38.4267 130.283 38.408 130.145 38.408C129.691 38.408 129.326 38.5387 129.049 38.8C128.771 39.056 128.569 39.4187 128.441 39.888C128.318 40.3573 128.257 40.9093 128.257 41.544H127.873ZM137.686 45L137.526 43.32V40.04C137.526 39.352 137.379 38.8587 137.086 38.56C136.792 38.256 136.352 38.104 135.766 38.104C135.435 38.104 135.134 38.152 134.862 38.248C134.595 38.344 134.382 38.4933 134.222 38.696C134.067 38.8933 133.99 39.1493 133.99 39.464H132.598C132.598 38.9093 132.734 38.464 133.006 38.128C133.278 37.7867 133.651 37.5413 134.126 37.392C134.606 37.2373 135.152 37.16 135.766 37.16C136.352 37.16 136.872 37.2587 137.326 37.456C137.779 37.6533 138.134 37.968 138.39 38.4C138.646 38.8267 138.774 39.384 138.774 40.072V45H137.686ZM135.078 45.192C134.448 45.192 133.928 45.08 133.518 44.856C133.107 44.632 132.8 44.3413 132.598 43.984C132.395 43.6267 132.294 43.2507 132.294 42.856C132.294 42.3387 132.422 41.9173 132.678 41.592C132.939 41.2667 133.294 41.0293 133.742 40.88C134.19 40.7253 134.694 40.648 135.254 40.648C135.654 40.648 136.054 40.688 136.454 40.768C136.859 40.848 137.254 40.9573 137.638 41.096V41.88C137.318 41.752 136.955 41.6507 136.55 41.576C136.15 41.5013 135.782 41.464 135.446 41.464C134.934 41.464 134.502 41.5707 134.15 41.784C133.798 41.992 133.622 42.3493 133.622 42.856C133.622 43.2293 133.755 43.5493 134.022 43.816C134.294 44.0827 134.726 44.216 135.318 44.216C135.734 44.216 136.107 44.12 136.438 43.928C136.774 43.7307 137.038 43.4853 137.23 43.192C137.427 42.8987 137.526 42.6053 137.526 42.312H137.83C137.83 42.824 137.718 43.2987 137.494 43.736C137.275 44.1733 136.96 44.5253 136.55 44.792C136.139 45.0587 135.648 45.192 135.078 45.192ZM144.626 48.936C143.842 48.936 143.162 48.824 142.586 48.6C142.01 48.3813 141.562 48.0853 141.242 47.712C140.928 47.344 140.77 46.936 140.77 46.488C140.77 45.896 140.986 45.4427 141.418 45.128C141.856 44.8187 142.418 44.664 143.106 44.664L143.794 45.096C143.218 45.096 142.773 45.216 142.458 45.456C142.144 45.696 141.986 46.024 141.986 46.44C141.986 46.856 142.21 47.208 142.658 47.496C143.106 47.784 143.762 47.928 144.626 47.928C145.266 47.928 145.826 47.8347 146.306 47.648C146.792 47.4667 147.168 47.2267 147.434 46.928C147.706 46.6347 147.842 46.3173 147.842 45.976C147.842 45.736 147.754 45.528 147.578 45.352C147.402 45.1813 147.133 45.096 146.77 45.096H143.794C143.277 45.096 142.829 45.0187 142.45 44.864C142.077 44.704 141.789 44.496 141.586 44.24C141.384 43.984 141.282 43.704 141.282 43.4C141.282 43.08 141.373 42.808 141.554 42.584C141.736 42.36 141.97 42.1893 142.258 42.072C142.552 41.9547 142.866 41.896 143.202 41.896L143.442 42.36C143.282 42.36 143.12 42.3973 142.954 42.472C142.794 42.5413 142.658 42.648 142.546 42.792C142.44 42.9307 142.386 43.1067 142.386 43.32C142.386 43.5653 142.488 43.7707 142.69 43.936C142.893 44.1013 143.261 44.184 143.794 44.184H146.77C147.49 44.184 148.056 44.336 148.466 44.64C148.882 44.944 149.09 45.368 149.09 45.912C149.09 46.4133 148.912 46.8933 148.554 47.352C148.197 47.816 147.685 48.1947 147.018 48.488C146.352 48.7867 145.554 48.936 144.626 48.936ZM144.85 42.76C144.264 42.76 143.733 42.6427 143.258 42.408C142.789 42.1733 142.416 41.8453 142.138 41.424C141.866 41.0027 141.73 40.5147 141.73 39.96C141.73 39.4 141.866 38.9093 142.138 38.488C142.416 38.0667 142.789 37.7413 143.258 37.512C143.733 37.2773 144.264 37.16 144.85 37.16C145.421 37.16 145.938 37.2773 146.402 37.512C146.872 37.7413 147.245 38.0667 147.522 38.488C147.8 38.9093 147.938 39.4 147.938 39.96C147.938 40.5147 147.8 41.0027 147.522 41.424C147.245 41.8453 146.872 42.1733 146.402 42.408C145.938 42.6427 145.421 42.76 144.85 42.76ZM144.85 41.864C145.437 41.864 145.893 41.6827 146.218 41.32C146.544 40.9573 146.706 40.504 146.706 39.96C146.706 39.4 146.544 38.9467 146.218 38.6C145.893 38.248 145.437 38.072 144.85 38.072C144.269 38.072 143.81 38.248 143.474 38.6C143.144 38.9467 142.978 39.4 142.978 39.96C142.978 40.504 143.144 40.9573 143.474 41.32C143.81 41.6827 144.269 41.864 144.85 41.864ZM147.362 38.376L146.77 38.136C146.77 37.688 146.858 37.296 147.034 36.96C147.21 36.6187 147.461 36.3547 147.786 36.168C148.112 35.976 148.498 35.88 148.946 35.88L148.85 37.112C148.37 37.112 148.002 37.216 147.746 37.424C147.49 37.6267 147.362 37.944 147.362 38.376ZM151.113 45V37.336H152.361V45H151.113ZM151.977 41.544C151.977 40.5733 152.071 39.768 152.257 39.128C152.444 38.4827 152.716 38.0027 153.073 37.688C153.436 37.368 153.876 37.208 154.393 37.208C154.564 37.208 154.719 37.2213 154.857 37.248C155.001 37.2693 155.145 37.304 155.289 37.352L155.209 38.584C155.06 38.536 154.897 38.496 154.721 38.464C154.545 38.4267 154.388 38.408 154.249 38.408C153.796 38.408 153.431 38.5387 153.153 38.8C152.876 39.056 152.673 39.4187 152.545 39.888C152.423 40.3573 152.361 40.9093 152.361 41.544H151.977ZM161.791 45L161.631 43.32V40.04C161.631 39.352 161.484 38.8587 161.191 38.56C160.897 38.256 160.457 38.104 159.871 38.104C159.54 38.104 159.239 38.152 158.967 38.248C158.7 38.344 158.487 38.4933 158.327 38.696C158.172 38.8933 158.095 39.1493 158.095 39.464H156.703C156.703 38.9093 156.839 38.464 157.111 38.128C157.383 37.7867 157.756 37.5413 158.231 37.392C158.711 37.2373 159.257 37.16 159.871 37.16C160.457 37.16 160.977 37.2587 161.431 37.456C161.884 37.6533 162.239 37.968 162.495 38.4C162.751 38.8267 162.879 39.384 162.879 40.072V45H161.791ZM159.183 45.192C158.553 45.192 158.033 45.08 157.623 44.856C157.212 44.632 156.905 44.3413 156.703 43.984C156.5 43.6267 156.399 43.2507 156.399 42.856C156.399 42.3387 156.527 41.9173 156.783 41.592C157.044 41.2667 157.399 41.0293 157.847 40.88C158.295 40.7253 158.799 40.648 159.359 40.648C159.759 40.648 160.159 40.688 160.559 40.768C160.964 40.848 161.359 40.9573 161.743 41.096V41.88C161.423 41.752 161.06 41.6507 160.655 41.576C160.255 41.5013 159.887 41.464 159.551 41.464C159.039 41.464 158.607 41.5707 158.255 41.784C157.903 41.992 157.727 42.3493 157.727 42.856C157.727 43.2293 157.86 43.5493 158.127 43.816C158.399 44.0827 158.831 44.216 159.423 44.216C159.839 44.216 160.212 44.12 160.543 43.928C160.879 43.7307 161.143 43.4853 161.335 43.192C161.532 42.8987 161.631 42.6053 161.631 42.312H161.935C161.935 42.824 161.823 43.2987 161.599 43.736C161.38 44.1733 161.065 44.5253 160.655 44.792C160.244 45.0587 159.753 45.192 159.183 45.192ZM169.499 45.192C168.939 45.192 168.451 45.064 168.035 44.808C167.625 44.552 167.307 44.1787 167.083 43.688C166.859 43.192 166.747 42.5893 166.747 41.88H167.275C167.275 42.3547 167.374 42.7547 167.571 43.08C167.769 43.4053 168.025 43.6533 168.339 43.824C168.659 43.9893 168.998 44.072 169.355 44.072C169.739 44.072 170.107 43.9627 170.459 43.744C170.811 43.52 171.099 43.192 171.323 42.76C171.547 42.328 171.659 41.7947 171.659 41.16C171.659 40.552 171.555 40.032 171.347 39.6C171.145 39.168 170.87 38.8373 170.523 38.608C170.177 38.3787 169.793 38.264 169.371 38.264C169.009 38.264 168.667 38.352 168.347 38.528C168.027 38.704 167.769 38.9627 167.571 39.304C167.374 39.64 167.275 40.056 167.275 40.552H166.747C166.747 39.8107 166.87 39.1893 167.115 38.688C167.361 38.1813 167.694 37.8 168.115 37.544C168.537 37.288 169.009 37.16 169.531 37.16C170.129 37.16 170.686 37.32 171.203 37.64C171.721 37.96 172.139 38.4187 172.459 39.016C172.779 39.6133 172.939 40.328 172.939 41.16C172.939 42.0027 172.777 42.7253 172.451 43.328C172.131 43.9307 171.71 44.392 171.187 44.712C170.665 45.032 170.102 45.192 169.499 45.192ZM166.027 48.76V37.352H167.067L167.275 39.144V48.76H166.027ZM180.987 45V40.504C180.987 39.7733 180.811 39.2187 180.459 38.84C180.112 38.456 179.637 38.264 179.035 38.264C178.576 38.264 178.179 38.3893 177.843 38.64C177.507 38.8907 177.248 39.2507 177.067 39.72C176.885 40.184 176.795 40.7387 176.795 41.384H176.315C176.315 40.4933 176.432 39.7333 176.667 39.104C176.901 38.4747 177.243 37.9947 177.691 37.664C178.144 37.328 178.693 37.16 179.339 37.16C179.941 37.16 180.456 37.296 180.883 37.568C181.315 37.8347 181.645 38.2187 181.875 38.72C182.104 39.2213 182.219 39.816 182.219 40.504V45H180.987ZM175.547 45V34.088H176.795V45H175.547ZM186.579 42.44V41.72C186.579 41.256 186.627 40.8747 186.723 40.576C186.824 40.2773 186.99 40.0187 187.219 39.8C187.448 39.5813 187.763 39.3627 188.163 39.144C188.52 38.952 188.806 38.7733 189.019 38.608C189.232 38.4427 189.384 38.264 189.475 38.072C189.571 37.88 189.619 37.6453 189.619 37.368C189.619 36.952 189.448 36.6053 189.107 36.328C188.771 36.0507 188.307 35.912 187.715 35.912C187.059 35.912 186.558 36.0427 186.211 36.304C185.864 36.56 185.646 36.92 185.555 37.384H184.227C184.302 36.6053 184.627 35.976 185.203 35.496C185.784 35.016 186.611 34.776 187.683 34.776C188.366 34.776 188.952 34.896 189.443 35.136C189.939 35.3707 190.318 35.688 190.579 36.088C190.846 36.4827 190.979 36.92 190.979 37.4C190.979 37.9493 190.84 38.4107 190.563 38.784C190.286 39.152 189.838 39.5013 189.219 39.832C188.862 40.0293 188.579 40.2133 188.371 40.384C188.168 40.5493 188.024 40.7413 187.939 40.96C187.854 41.1733 187.811 41.4533 187.811 41.8V42.44H186.579ZM187.219 45.192C186.952 45.192 186.731 45.1067 186.555 44.936C186.379 44.76 186.291 44.5493 186.291 44.304C186.291 44.0533 186.376 43.8373 186.547 43.656C186.723 43.4747 186.944 43.384 187.211 43.384C187.478 43.384 187.704 43.4747 187.891 43.656C188.083 43.832 188.179 44.0453 188.179 44.296C188.179 44.5413 188.086 44.752 187.899 44.928C187.712 45.104 187.486 45.192 187.219 45.192Z" fill="#333333"/>
</g>
<defs>
<filter id="filter0_d_7093_6111" x="0" y="0" width="222.035" height="68" filterUnits="userSpaceOnUse" color-interpolation-filters="sRGB">
<feFlood flood-opacity="0" result="BackgroundImageFix"/>
<feColorMatrix in="SourceAlpha" type="matrix" values="0 0 0 0 0 0 0 0 0 0 0 0 0 0 0 0 0 0 127 0" result="hardAlpha"/>
<feOffset dy="4"/>
<feGaussianBlur stdDeviation="3"/>
<feComposite in2="hardAlpha" operator="out"/>
<feColorMatrix type="matrix" values="0 0 0 0 0 0 0 0 0 0 0 0 0 0 0 0 0 0 0.1 0"/>
<feBlend mode="normal" in2="BackgroundImageFix" result="effect1_dropShadow_7093_6111"/>
<feBlend mode="normal" in="SourceGraphic" in2="effect1_dropShadow_7093_6111" result="shape"/>
</filter>
<filter id="filter1_d_7093_6111" x="25.2241" y="11.9756" width="174.32" height="46.96" filterUnits="userSpaceOnUse" color-interpolation-filters="sRGB">
<feFlood flood-opacity="0" result="BackgroundImageFix"/>
<feColorMatrix in="SourceAlpha" type="matrix" values="0 0 0 0 0 0 0 0 0 0 0 0 0 0 0 0 0 0 127 0" result="hardAlpha"/>
<feOffset dy="4"/>
<feGaussianBlur stdDeviation="3"/>
<feComposite in2="hardAlpha" operator="out"/>
<feColorMatrix type="matrix" values="0 0 0 0 0 0 0 0 0 0 0 0 0 0 0 0 0 0 0.05 0"/>
<feBlend mode="normal" in2="BackgroundImageFix" result="effect1_dropShadow_7093_6111"/>
<feBlend mode="normal" in="SourceGraphic" in2="effect1_dropShadow_7093_6111" result="shape"/>
</filter>
</defs>
</svg>
