<svg width="263" height="68" viewBox="0 0 263 68" fill="none" xmlns="http://www.w3.org/2000/svg">
<g filter="url(#filter0_d_7045_5627)">
<mask id="path-1-inside-1_7045_5627" fill="white">
<path d="M7.04333 32.6331L16.7674 41V49C16.7674 53.9706 20.7968 58 25.7674 58L247.035 58C252.005 58 256.035 53.9706 256.035 49V11C256.035 6.02944 252.005 2 247.035 2L25.7674 2C20.7968 2 16.7674 6.02944 16.7674 11V20.5L7.15555 27.9931C5.66179 29.1575 5.60761 31.3978 7.04333 32.6331Z"/>
</mask>
<path d="M7.04333 32.6331L16.7674 41V49C16.7674 53.9706 20.7968 58 25.7674 58L247.035 58C252.005 58 256.035 53.9706 256.035 49V11C256.035 6.02944 252.005 2 247.035 2L25.7674 2C20.7968 2 16.7674 6.02944 16.7674 11V20.5L7.15555 27.9931C5.66179 29.1575 5.60761 31.3978 7.04333 32.6331Z" fill="white"/>
<path d="M16.7674 41H18.1674V40.3577L17.6805 39.9388L16.7674 41ZM7.04333 32.6331L6.13021 33.6944L6.13021 33.6944L7.04333 32.6331ZM7.15555 27.9931L8.0163 29.0972L8.0163 29.0972L7.15555 27.9931ZM16.7674 20.5L17.6281 21.6041L18.1674 21.1838V20.5H16.7674ZM25.7674 2V0.6V2ZM247.035 2V3.4V2ZM17.6805 39.9388L7.95644 31.5719L6.13021 33.6944L15.8542 42.0612L17.6805 39.9388ZM8.0163 29.0972L17.6281 21.6041L15.9066 19.3959L6.2948 26.8889L8.0163 29.0972ZM7.95644 31.5719C7.19073 30.9131 7.21963 29.7183 8.0163 29.0972L6.2948 26.8889C4.10396 28.5968 4.02449 31.8825 6.13021 33.6944L7.95644 31.5719ZM25.7674 3.4L247.035 3.4L247.035 0.600003L25.7674 0.6L25.7674 3.4ZM254.635 11V49H257.435V11H254.635ZM247.035 56.6L25.7674 56.6V59.4L247.035 59.4V56.6ZM18.1674 20.5V11H15.3674V20.5H18.1674ZM18.1674 49V41H15.3674V49H18.1674ZM25.7674 56.6C21.57 56.6 18.1674 53.1974 18.1674 49H15.3674C15.3674 54.7438 20.0236 59.4 25.7674 59.4V56.6ZM254.635 49C254.635 53.1974 251.232 56.6 247.035 56.6V59.4C252.778 59.4 257.435 54.7438 257.435 49H254.635ZM247.035 3.4C251.232 3.4 254.635 6.80264 254.635 11H257.435C257.435 5.25624 252.778 0.600003 247.035 0.600003V3.4ZM25.7674 0.6C20.0236 0.6 15.3674 5.25624 15.3674 11H18.1674C18.1674 6.80264 21.57 3.4 25.7674 3.4V0.6Z" fill="#333333" mask="url(#path-1-inside-1_7045_5627)"/>
</g>
<g filter="url(#filter1_d_7045_5627)">
<path d="M33.144 14.952H34.648L37.528 19.832H37.208L40.136 14.952H41.624L37.992 20.872V25H36.728V20.872L33.144 14.952ZM45.2784 25.192C44.5904 25.192 43.977 25.04 43.4384 24.736C42.905 24.432 42.4837 23.9813 42.1744 23.384C41.865 22.7867 41.7104 22.0507 41.7104 21.176C41.7104 20.296 41.865 19.56 42.1744 18.968C42.4837 18.3707 42.905 17.92 43.4384 17.616C43.977 17.312 44.5904 17.16 45.2784 17.16C45.961 17.16 46.569 17.312 47.1024 17.616C47.641 17.92 48.0624 18.3707 48.3664 18.968C48.6757 19.56 48.8304 20.296 48.8304 21.176C48.8304 22.0507 48.6757 22.7867 48.3664 23.384C48.0624 23.9813 47.641 24.432 47.1024 24.736C46.569 25.04 45.961 25.192 45.2784 25.192ZM45.2464 24.104C45.7424 24.104 46.1637 23.9867 46.5104 23.752C46.857 23.512 47.1184 23.1733 47.2944 22.736C47.4757 22.2987 47.5664 21.7787 47.5664 21.176C47.5664 20.264 47.377 19.5467 46.9984 19.024C46.6197 18.496 46.057 18.232 45.3104 18.232C44.809 18.232 44.385 18.352 44.0384 18.592C43.697 18.8267 43.4357 19.1653 43.2544 19.608C43.0784 20.0453 42.9904 20.568 42.9904 21.176C42.9904 22.0773 43.1797 22.792 43.5584 23.32C43.9424 23.8427 44.505 24.104 45.2464 24.104ZM56.6204 17.336H57.8684V25H56.6204V17.336ZM51.1964 17.336H52.4444V22.104C52.4444 22.744 52.599 23.2293 52.9084 23.56C53.223 23.8907 53.671 24.056 54.2524 24.056C54.7324 24.056 55.1484 23.928 55.5004 23.672C55.8577 23.416 56.1324 23.064 56.3244 22.616C56.5217 22.1627 56.6204 21.6453 56.6204 21.064H57.0844C57.0844 21.9227 56.959 22.656 56.7084 23.264C56.463 23.872 56.1137 24.3387 55.6604 24.664C55.2124 24.984 54.6844 25.144 54.0764 25.144C53.5004 25.144 52.9964 25.0373 52.5644 24.824C52.1324 24.6107 51.7964 24.288 51.5564 23.856C51.3164 23.4187 51.1964 22.8667 51.1964 22.2V17.336ZM65.2247 25V17.336H66.4727V25H65.2247ZM66.0887 21.544C66.0887 20.5733 66.1821 19.768 66.3687 19.128C66.5554 18.4827 66.8274 18.0027 67.1847 17.688C67.5474 17.368 67.9874 17.208 68.5047 17.208C68.6754 17.208 68.8301 17.2213 68.9687 17.248C69.1127 17.2693 69.2567 17.304 69.4007 17.352L69.3207 18.584C69.1714 18.536 69.0087 18.496 68.8327 18.464C68.6567 18.4267 68.4994 18.408 68.3607 18.408C67.9074 18.408 67.5421 18.5387 67.2647 18.8C66.9874 19.056 66.7847 19.4187 66.6567 19.888C66.5341 20.3573 66.4727 20.9093 66.4727 21.544H66.0887ZM73.822 25.192C73.1607 25.192 72.5687 25.024 72.046 24.688C71.5287 24.3467 71.118 23.8747 70.814 23.272C70.5153 22.6693 70.366 21.976 70.366 21.192C70.366 20.3547 70.5153 19.6347 70.814 19.032C71.1127 18.4293 71.5207 17.968 72.038 17.648C72.5607 17.3227 73.1553 17.16 73.822 17.16C74.4033 17.16 74.8993 17.2773 75.31 17.512C75.7207 17.7467 76.0513 18.064 76.302 18.464C76.5527 18.864 76.726 19.3173 76.822 19.824C76.9233 20.3253 76.9527 20.8453 76.91 21.384H71.374V20.616H76.086L75.718 20.856C75.734 20.5413 75.7153 20.2267 75.662 19.912C75.614 19.5973 75.5207 19.3093 75.382 19.048C75.2433 18.7813 75.0487 18.568 74.798 18.408C74.5473 18.248 74.2273 18.168 73.838 18.168C73.3473 18.168 72.9367 18.2933 72.606 18.544C72.2753 18.7947 72.0273 19.1253 71.862 19.536C71.6967 19.9413 71.614 20.3813 71.614 20.856V21.368C71.614 21.9013 71.694 22.3787 71.854 22.8C72.0193 23.2213 72.2647 23.5547 72.59 23.8C72.9153 24.0453 73.326 24.168 73.822 24.168C74.318 24.168 74.726 24.048 75.046 23.808C75.366 23.568 75.5607 23.2133 75.63 22.744H76.926C76.846 23.2507 76.6647 23.688 76.382 24.056C76.0993 24.4187 75.7393 24.6987 75.302 24.896C74.8647 25.0933 74.3713 25.192 73.822 25.192ZM84.2807 25L84.1207 23.32V20.04C84.1207 19.352 83.9741 18.8587 83.6807 18.56C83.3874 18.256 82.9474 18.104 82.3607 18.104C82.0301 18.104 81.7287 18.152 81.4567 18.248C81.1901 18.344 80.9767 18.4933 80.8167 18.696C80.6621 18.8933 80.5847 19.1493 80.5847 19.464H79.1927C79.1927 18.9093 79.3287 18.464 79.6007 18.128C79.8727 17.7867 80.2461 17.5413 80.7207 17.392C81.2007 17.2373 81.7474 17.16 82.3607 17.16C82.9474 17.16 83.4674 17.2587 83.9207 17.456C84.3741 17.6533 84.7287 17.968 84.9847 18.4C85.2407 18.8267 85.3687 19.384 85.3687 20.072V25H84.2807ZM81.6727 25.192C81.0434 25.192 80.5234 25.08 80.1127 24.856C79.7021 24.632 79.3954 24.3413 79.1927 23.984C78.9901 23.6267 78.8887 23.2507 78.8887 22.856C78.8887 22.3387 79.0167 21.9173 79.2727 21.592C79.5341 21.2667 79.8887 21.0293 80.3367 20.88C80.7847 20.7253 81.2887 20.648 81.8487 20.648C82.2487 20.648 82.6487 20.688 83.0487 20.768C83.4541 20.848 83.8487 20.9573 84.2327 21.096V21.88C83.9127 21.752 83.5501 21.6507 83.1447 21.576C82.7447 21.5013 82.3767 21.464 82.0407 21.464C81.5287 21.464 81.0967 21.5707 80.7447 21.784C80.3927 21.992 80.2167 22.3493 80.2167 22.856C80.2167 23.2293 80.3501 23.5493 80.6167 23.816C80.8887 24.0827 81.3207 24.216 81.9127 24.216C82.3287 24.216 82.7021 24.12 83.0327 23.928C83.3687 23.7307 83.6327 23.4853 83.8247 23.192C84.0221 22.8987 84.1207 22.6053 84.1207 22.312H84.4247C84.4247 22.824 84.3127 23.2987 84.0887 23.736C83.8701 24.1733 83.5554 24.5253 83.1447 24.792C82.7341 25.0587 82.2434 25.192 81.6727 25.192ZM91.2052 25.192C90.5919 25.192 90.0186 25.0267 89.4852 24.696C88.9572 24.3653 88.5306 23.8987 88.2052 23.296C87.8799 22.6933 87.7172 21.9813 87.7172 21.16C87.7172 20.3173 87.8799 19.5973 88.2052 19C88.5306 18.4027 88.9572 17.9467 89.4852 17.632C90.0186 17.3173 90.5919 17.16 91.2052 17.16C91.6372 17.16 92.0239 17.2267 92.3652 17.36C92.7119 17.488 93.0132 17.6667 93.2692 17.896C93.5252 18.1253 93.7359 18.3867 93.9012 18.68C94.0719 18.968 94.1972 19.272 94.2772 19.592L92.9972 19.704C92.8639 19.2613 92.6399 18.912 92.3252 18.656C92.0159 18.3947 91.6372 18.264 91.1892 18.264C90.8106 18.264 90.4532 18.3733 90.1172 18.592C89.7866 18.8053 89.5172 19.128 89.3092 19.56C89.1012 19.9867 88.9972 20.52 88.9972 21.16C88.9972 21.752 89.0906 22.2667 89.2772 22.704C89.4692 23.136 89.7306 23.472 90.0612 23.712C90.3919 23.952 90.7679 24.072 91.1892 24.072C91.7812 24.072 92.2292 23.928 92.5332 23.64C92.8426 23.3467 92.9972 22.9413 92.9972 22.424H94.2772C94.2772 22.9573 94.1519 23.432 93.9012 23.848C93.6506 24.264 93.2932 24.592 92.8292 24.832C92.3706 25.072 91.8292 25.192 91.2052 25.192ZM102.367 25V20.504C102.367 19.7733 102.191 19.2187 101.839 18.84C101.493 18.456 101.018 18.264 100.415 18.264C99.9566 18.264 99.5592 18.3893 99.2232 18.64C98.8872 18.8907 98.6286 19.2507 98.4472 19.72C98.2659 20.184 98.1752 20.7387 98.1752 21.384H97.6952C97.6952 20.4933 97.8126 19.7333 98.0472 19.104C98.2819 18.4747 98.6232 17.9947 99.0712 17.664C99.5246 17.328 100.074 17.16 100.719 17.16C101.322 17.16 101.837 17.296 102.263 17.568C102.695 17.8347 103.026 18.2187 103.255 18.72C103.485 19.2213 103.599 19.816 103.599 20.504V25H102.367ZM96.9272 25V14.088H98.1752V25H96.9272ZM109.4 25.192C108.738 25.192 108.146 25.024 107.624 24.688C107.106 24.3467 106.696 23.8747 106.392 23.272C106.093 22.6693 105.944 21.976 105.944 21.192C105.944 20.3547 106.093 19.6347 106.392 19.032C106.69 18.4293 107.098 17.968 107.616 17.648C108.138 17.3227 108.733 17.16 109.4 17.16C109.981 17.16 110.477 17.2773 110.888 17.512C111.298 17.7467 111.629 18.064 111.88 18.464C112.13 18.864 112.304 19.3173 112.4 19.824C112.501 20.3253 112.53 20.8453 112.488 21.384H106.952V20.616H111.664L111.296 20.856C111.312 20.5413 111.293 20.2267 111.24 19.912C111.192 19.5973 111.098 19.3093 110.96 19.048C110.821 18.7813 110.626 18.568 110.376 18.408C110.125 18.248 109.805 18.168 109.416 18.168C108.925 18.168 108.514 18.2933 108.184 18.544C107.853 18.7947 107.605 19.1253 107.44 19.536C107.274 19.9413 107.192 20.3813 107.192 20.856V21.368C107.192 21.9013 107.272 22.3787 107.432 22.8C107.597 23.2213 107.842 23.5547 108.168 23.8C108.493 24.0453 108.904 24.168 109.4 24.168C109.896 24.168 110.304 24.048 110.624 23.808C110.944 23.568 111.138 23.2133 111.208 22.744H112.504C112.424 23.2507 112.242 23.688 111.96 24.056C111.677 24.4187 111.317 24.6987 110.88 24.896C110.442 25.0933 109.949 25.192 109.4 25.192ZM117.858 25.192C117.24 25.192 116.672 25.0267 116.154 24.696C115.637 24.36 115.224 23.8907 114.914 23.288C114.605 22.68 114.45 21.9653 114.45 21.144C114.45 20.328 114.602 19.6213 114.906 19.024C115.21 18.4267 115.613 17.968 116.114 17.648C116.621 17.3227 117.176 17.16 117.778 17.16C118.338 17.16 118.829 17.296 119.25 17.568C119.677 17.84 120.008 18.232 120.242 18.744C120.477 19.256 120.594 19.8747 120.594 20.6H120.114C120.114 20.0933 120.013 19.6667 119.81 19.32C119.613 18.9733 119.354 18.712 119.034 18.536C118.714 18.3547 118.37 18.264 118.002 18.264C117.586 18.264 117.205 18.3813 116.858 18.616C116.517 18.8453 116.242 19.176 116.034 19.608C115.832 20.0347 115.73 20.5467 115.73 21.144C115.73 21.752 115.832 22.2747 116.034 22.712C116.242 23.1493 116.517 23.4853 116.858 23.72C117.205 23.9547 117.586 24.072 118.002 24.072C118.349 24.072 118.682 23.9813 119.002 23.8C119.328 23.6187 119.594 23.3547 119.802 23.008C120.01 22.656 120.114 22.232 120.114 21.736H120.594C120.594 22.4773 120.472 23.1067 120.226 23.624C119.986 24.136 119.658 24.5253 119.242 24.792C118.832 25.0587 118.37 25.192 117.858 25.192ZM120.322 25L120.114 23.208V14.088H121.362V25H120.322ZM131.075 25.192C130.659 25.192 130.286 25.112 129.955 24.952C129.625 24.792 129.363 24.552 129.171 24.232C128.979 23.912 128.883 23.512 128.883 23.032V15.224H130.115V23C130.115 23.7893 130.483 24.184 131.219 24.184C131.438 24.184 131.649 24.16 131.851 24.112C132.059 24.064 132.291 23.992 132.547 23.896L132.723 24.792C132.451 24.9093 132.179 25.0053 131.907 25.08C131.641 25.1547 131.363 25.192 131.075 25.192ZM127.651 18.216V17.352H132.531V18.216H127.651ZM140.339 25V20.504C140.339 19.7733 140.163 19.2187 139.811 18.84C139.464 18.456 138.99 18.264 138.387 18.264C137.928 18.264 137.531 18.3893 137.195 18.64C136.859 18.8907 136.6 19.2507 136.419 19.72C136.238 20.184 136.147 20.7387 136.147 21.384H135.667C135.667 20.4933 135.784 19.7333 136.019 19.104C136.254 18.4747 136.595 17.9947 137.043 17.664C137.496 17.328 138.046 17.16 138.691 17.16C139.294 17.16 139.808 17.296 140.235 17.568C140.667 17.8347 140.998 18.2187 141.227 18.72C141.456 19.2213 141.571 19.816 141.571 20.504V25H140.339ZM134.899 25V14.088H136.147V25H134.899ZM147.371 25.192C146.71 25.192 146.118 25.024 145.595 24.688C145.078 24.3467 144.667 23.8747 144.363 23.272C144.065 22.6693 143.915 21.976 143.915 21.192C143.915 20.3547 144.065 19.6347 144.363 19.032C144.662 18.4293 145.07 17.968 145.587 17.648C146.11 17.3227 146.705 17.16 147.371 17.16C147.953 17.16 148.449 17.2773 148.859 17.512C149.27 17.7467 149.601 18.064 149.851 18.464C150.102 18.864 150.275 19.3173 150.371 19.824C150.473 20.3253 150.502 20.8453 150.459 21.384H144.923V20.616H149.635L149.267 20.856C149.283 20.5413 149.265 20.2267 149.211 19.912C149.163 19.5973 149.07 19.3093 148.931 19.048C148.793 18.7813 148.598 18.568 148.347 18.408C148.097 18.248 147.777 18.168 147.387 18.168C146.897 18.168 146.486 18.2933 146.155 18.544C145.825 18.7947 145.577 19.1253 145.411 19.536C145.246 19.9413 145.163 20.3813 145.163 20.856V21.368C145.163 21.9013 145.243 22.3787 145.403 22.8C145.569 23.2213 145.814 23.5547 146.139 23.8C146.465 24.0453 146.875 24.168 147.371 24.168C147.867 24.168 148.275 24.048 148.595 23.808C148.915 23.568 149.11 23.2133 149.179 22.744H150.475C150.395 23.2507 150.214 23.688 149.931 24.056C149.649 24.4187 149.289 24.6987 148.851 24.896C148.414 25.0933 147.921 25.192 147.371 25.192ZM156.923 14.616H158.811V18.952H163.339V14.616H165.227V25H163.339V20.6H158.811V25H156.923V14.616ZM168.348 25V14.616H175.02V16.248H170.236V18.984H174.732V20.616H170.236V23.352H175.02V25H168.348ZM176.779 25L180.315 14.616H182.683L186.075 25H184.091L183.371 22.76H179.515L178.779 25H176.779ZM179.995 21.336H182.923L181.467 16.872L179.995 21.336ZM189.978 14.616V23.352H194.25V25H188.09V14.616H189.978ZM193.812 16.248V14.616H202.132V16.248H198.492L198.916 15.816V25H197.028V15.816L197.452 16.248H193.812ZM203.864 14.616H205.752V18.952H210.28V14.616H212.168V25H210.28V20.6H205.752V25H203.864V14.616ZM213.929 14.616H216.169L218.649 19.08H218.281L220.857 14.616H223.081L219.385 20.712V25H217.497V20.712L213.929 14.616ZM34.488 45V34.616H36.376V45H34.488ZM39.491 34.616H41.555L46.275 42.024H46.131V34.616H48.019V45H46.099L41.075 37.144H41.379V45H39.491V34.616ZM54.9437 45.224C54.0958 45.224 53.3304 45 52.6477 44.552C51.9651 44.104 51.4211 43.48 51.0157 42.68C50.6157 41.8747 50.4157 40.936 50.4157 39.864C50.4157 39.016 50.5384 38.256 50.7837 37.584C51.0344 36.912 51.3811 36.3387 51.8237 35.864C52.2664 35.3893 52.7864 35.0293 53.3837 34.784C53.9811 34.5333 54.6291 34.408 55.3277 34.408C56.2984 34.408 57.1117 34.6187 57.7677 35.04C58.4291 35.4613 58.9438 36.1253 59.3118 37.032L57.3758 37.48C57.1038 37.0373 56.7891 36.7013 56.4317 36.472C56.0797 36.2373 55.6797 36.12 55.2318 36.12C54.7197 36.12 54.2531 36.272 53.8317 36.576C53.4104 36.8747 53.0744 37.304 52.8237 37.864C52.5731 38.424 52.4477 39.0907 52.4477 39.864C52.4477 40.5893 52.5571 41.224 52.7757 41.768C52.9997 42.312 53.3117 42.736 53.7118 43.04C54.1117 43.344 54.5757 43.496 55.1037 43.496C55.5518 43.496 55.9518 43.3973 56.3038 43.2C56.6611 42.9973 56.9411 42.7093 57.1438 42.336C57.3518 41.9627 57.4557 41.512 57.4557 40.984H57.8717C57.8717 41.848 57.7677 42.5973 57.5598 43.232C57.3571 43.8667 57.0398 44.3573 56.6077 44.704C56.1758 45.0507 55.6211 45.224 54.9437 45.224ZM57.7277 45L57.4557 42.712V40.92L55.1198 40.872V39.672H59.2638V45H57.7277ZM62.1399 45V34.616H65.9799C67.2225 34.616 68.1745 34.9067 68.8359 35.488C69.5025 36.0693 69.8359 36.84 69.8359 37.8C69.8359 38.744 69.5025 39.5067 68.8359 40.088C68.1745 40.664 67.2225 40.952 65.9799 40.952H64.0279V45H62.1399ZM67.7559 45L65.0039 40.136H67.0199L70.2199 45H67.7559ZM64.0279 39.688H65.7879C66.4812 39.688 67.0065 39.5307 67.3639 39.216C67.7212 38.896 67.8999 38.4827 67.8999 37.976C67.8999 37.4587 67.7372 37.0427 67.4119 36.728C67.0865 36.408 66.6092 36.248 65.9799 36.248H64.0279V39.688ZM72.5807 45V34.616H79.2527V36.248H74.4687V38.984H78.9647V40.616H74.4687V43.352H79.2527V45H72.5807ZM82.1474 34.616H85.5074C86.5634 34.616 87.4887 34.8293 88.2834 35.256C89.078 35.6773 89.6967 36.2773 90.1394 37.056C90.582 37.8347 90.8034 38.7547 90.8034 39.816C90.8034 40.8667 90.582 41.7813 90.1394 42.56C89.6967 43.3333 89.078 43.9333 88.2834 44.36C87.4887 44.7867 86.5634 45 85.5074 45H82.1474V34.616ZM84.0354 36.328V43.304H85.5074C86.1794 43.304 86.758 43.152 87.2434 42.848C87.734 42.544 88.11 42.1307 88.3714 41.608C88.638 41.08 88.7714 40.4827 88.7714 39.816C88.7714 39.1387 88.638 38.5387 88.3714 38.016C88.11 37.4933 87.734 37.0827 87.2434 36.784C86.758 36.48 86.1794 36.328 85.5074 36.328H84.0354ZM93.2917 45V34.616H95.1797V45H93.2917ZM98.3107 45V34.616H104.983V36.248H100.199V38.984H104.695V40.616H100.199V43.352H104.983V45H98.3107ZM107.845 34.616H109.909L114.629 42.024H114.485V34.616H116.373V45H114.453L109.429 37.144H109.733V45H107.845V34.616ZM118.114 36.248V34.616H126.434V36.248H122.794L123.218 35.816V45H121.33V35.816L121.754 36.248H118.114ZM131.782 45.224C131.062 45.224 130.398 45.0987 129.79 44.848C129.187 44.5973 128.697 44.216 128.318 43.704C127.945 43.192 127.745 42.5413 127.718 41.752H129.574C129.574 42.152 129.673 42.48 129.87 42.736C130.067 42.992 130.331 43.184 130.662 43.312C130.998 43.4347 131.366 43.496 131.766 43.496C132.15 43.496 132.491 43.4453 132.79 43.344C133.094 43.2427 133.331 43.0987 133.502 42.912C133.678 42.72 133.766 42.4933 133.766 42.232C133.766 41.8853 133.659 41.6133 133.446 41.416C133.238 41.2187 132.902 41.0373 132.438 40.872L130.39 40.056C129.59 39.7413 128.977 39.376 128.55 38.96C128.123 38.544 127.91 37.9707 127.91 37.24C127.91 36.3973 128.243 35.7147 128.91 35.192C129.577 34.6693 130.507 34.408 131.702 34.408C132.865 34.408 133.763 34.68 134.398 35.224C135.033 35.7627 135.393 36.5147 135.478 37.48H133.622C133.553 37.0693 133.366 36.7413 133.062 36.496C132.758 36.2453 132.305 36.12 131.702 36.12C131.169 36.12 130.747 36.232 130.438 36.456C130.129 36.6747 129.974 36.952 129.974 37.288C129.974 37.576 130.07 37.8053 130.262 37.976C130.459 38.1413 130.763 38.3013 131.174 38.456L133.446 39.336C134.214 39.6347 134.803 40.0107 135.214 40.464C135.625 40.9173 135.83 41.4853 135.83 42.168C135.83 42.792 135.673 43.3333 135.358 43.792C135.043 44.2453 134.585 44.5973 133.982 44.848C133.379 45.0987 132.646 45.224 131.782 45.224ZM146.086 45.192C145.526 45.192 145.038 45.064 144.622 44.808C144.211 44.552 143.894 44.1787 143.67 43.688C143.446 43.192 143.334 42.5893 143.334 41.88H143.862C143.862 42.3547 143.961 42.7547 144.158 43.08C144.355 43.4053 144.611 43.6533 144.926 43.824C145.246 43.9893 145.585 44.072 145.942 44.072C146.326 44.072 146.694 43.9627 147.046 43.744C147.398 43.52 147.686 43.192 147.91 42.76C148.134 42.328 148.246 41.7947 148.246 41.16C148.246 40.552 148.142 40.032 147.934 39.6C147.731 39.168 147.457 38.8373 147.11 38.608C146.763 38.3787 146.379 38.264 145.958 38.264C145.595 38.264 145.254 38.352 144.934 38.528C144.614 38.704 144.355 38.9627 144.158 39.304C143.961 39.64 143.862 40.056 143.862 40.552H143.334C143.334 39.8107 143.457 39.1893 143.702 38.688C143.947 38.1813 144.281 37.8 144.702 37.544C145.123 37.288 145.595 37.16 146.118 37.16C146.715 37.16 147.273 37.32 147.79 37.64C148.307 37.96 148.726 38.4187 149.046 39.016C149.366 39.6133 149.526 40.328 149.526 41.16C149.526 42.0027 149.363 42.7253 149.038 43.328C148.718 43.9307 148.297 44.392 147.774 44.712C147.251 45.032 146.689 45.192 146.086 45.192ZM142.614 48.76V37.352H143.654L143.862 39.144V48.76H142.614ZM156.87 45L156.71 43.32V40.04C156.71 39.352 156.563 38.8587 156.27 38.56C155.976 38.256 155.536 38.104 154.95 38.104C154.619 38.104 154.318 38.152 154.046 38.248C153.779 38.344 153.566 38.4933 153.406 38.696C153.251 38.8933 153.174 39.1493 153.174 39.464H151.782C151.782 38.9093 151.918 38.464 152.19 38.128C152.462 37.7867 152.835 37.5413 153.31 37.392C153.79 37.2373 154.336 37.16 154.95 37.16C155.536 37.16 156.056 37.2587 156.51 37.456C156.963 37.6533 157.318 37.968 157.574 38.4C157.83 38.8267 157.958 39.384 157.958 40.072V45H156.87ZM154.262 45.192C153.632 45.192 153.112 45.08 152.702 44.856C152.291 44.632 151.984 44.3413 151.782 43.984C151.579 43.6267 151.478 43.2507 151.478 42.856C151.478 42.3387 151.606 41.9173 151.862 41.592C152.123 41.2667 152.478 41.0293 152.926 40.88C153.374 40.7253 153.878 40.648 154.438 40.648C154.838 40.648 155.238 40.688 155.638 40.768C156.043 40.848 156.438 40.9573 156.822 41.096V41.88C156.502 41.752 156.139 41.6507 155.734 41.576C155.334 41.5013 154.966 41.464 154.63 41.464C154.118 41.464 153.686 41.5707 153.334 41.784C152.982 41.992 152.806 42.3493 152.806 42.856C152.806 43.2293 152.939 43.5493 153.206 43.816C153.478 44.0827 153.91 44.216 154.502 44.216C154.918 44.216 155.291 44.12 155.622 43.928C155.958 43.7307 156.222 43.4853 156.414 43.192C156.611 42.8987 156.71 42.6053 156.71 42.312H157.014C157.014 42.824 156.902 43.2987 156.678 43.736C156.459 44.1733 156.144 44.5253 155.734 44.792C155.323 45.0587 154.832 45.192 154.262 45.192ZM163.81 48.936C163.026 48.936 162.346 48.824 161.77 48.6C161.194 48.3813 160.746 48.0853 160.426 47.712C160.111 47.344 159.954 46.936 159.954 46.488C159.954 45.896 160.17 45.4427 160.602 45.128C161.039 44.8187 161.602 44.664 162.29 44.664L162.978 45.096C162.402 45.096 161.957 45.216 161.642 45.456C161.327 45.696 161.17 46.024 161.17 46.44C161.17 46.856 161.394 47.208 161.842 47.496C162.29 47.784 162.946 47.928 163.81 47.928C164.45 47.928 165.01 47.8347 165.49 47.648C165.975 47.4667 166.351 47.2267 166.618 46.928C166.89 46.6347 167.026 46.3173 167.026 45.976C167.026 45.736 166.938 45.528 166.762 45.352C166.586 45.1813 166.317 45.096 165.954 45.096H162.978C162.461 45.096 162.013 45.0187 161.634 44.864C161.261 44.704 160.973 44.496 160.77 44.24C160.567 43.984 160.466 43.704 160.466 43.4C160.466 43.08 160.557 42.808 160.738 42.584C160.919 42.36 161.154 42.1893 161.442 42.072C161.735 41.9547 162.05 41.896 162.386 41.896L162.626 42.36C162.466 42.36 162.303 42.3973 162.138 42.472C161.978 42.5413 161.842 42.648 161.73 42.792C161.623 42.9307 161.57 43.1067 161.57 43.32C161.57 43.5653 161.671 43.7707 161.874 43.936C162.077 44.1013 162.445 44.184 162.978 44.184H165.954C166.674 44.184 167.239 44.336 167.65 44.64C168.066 44.944 168.274 45.368 168.274 45.912C168.274 46.4133 168.095 46.8933 167.738 47.352C167.381 47.816 166.869 48.1947 166.202 48.488C165.535 48.7867 164.738 48.936 163.81 48.936ZM164.034 42.76C163.447 42.76 162.917 42.6427 162.442 42.408C161.973 42.1733 161.599 41.8453 161.322 41.424C161.05 41.0027 160.914 40.5147 160.914 39.96C160.914 39.4 161.05 38.9093 161.322 38.488C161.599 38.0667 161.973 37.7413 162.442 37.512C162.917 37.2773 163.447 37.16 164.034 37.16C164.605 37.16 165.122 37.2773 165.586 37.512C166.055 37.7413 166.429 38.0667 166.706 38.488C166.983 38.9093 167.122 39.4 167.122 39.96C167.122 40.5147 166.983 41.0027 166.706 41.424C166.429 41.8453 166.055 42.1733 165.586 42.408C165.122 42.6427 164.605 42.76 164.034 42.76ZM164.034 41.864C164.621 41.864 165.077 41.6827 165.402 41.32C165.727 40.9573 165.89 40.504 165.89 39.96C165.89 39.4 165.727 38.9467 165.402 38.6C165.077 38.248 164.621 38.072 164.034 38.072C163.453 38.072 162.994 38.248 162.658 38.6C162.327 38.9467 162.162 39.4 162.162 39.96C162.162 40.504 162.327 40.9573 162.658 41.32C162.994 41.6827 163.453 41.864 164.034 41.864ZM166.546 38.376L165.954 38.136C165.954 37.688 166.042 37.296 166.218 36.96C166.394 36.6187 166.645 36.3547 166.97 36.168C167.295 35.976 167.682 35.88 168.13 35.88L168.034 37.112C167.554 37.112 167.186 37.216 166.93 37.424C166.674 37.6267 166.546 37.944 166.546 38.376ZM172.953 45.192C172.292 45.192 171.7 45.024 171.177 44.688C170.66 44.3467 170.249 43.8747 169.945 43.272C169.647 42.6693 169.497 41.976 169.497 41.192C169.497 40.3547 169.647 39.6347 169.945 39.032C170.244 38.4293 170.652 37.968 171.169 37.648C171.692 37.3227 172.287 37.16 172.953 37.16C173.535 37.16 174.031 37.2773 174.441 37.512C174.852 37.7467 175.183 38.064 175.433 38.464C175.684 38.864 175.857 39.3173 175.953 39.824C176.055 40.3253 176.084 40.8453 176.041 41.384H170.505V40.616H175.217L174.849 40.856C174.865 40.5413 174.847 40.2267 174.793 39.912C174.745 39.5973 174.652 39.3093 174.513 39.048C174.375 38.7813 174.18 38.568 173.929 38.408C173.679 38.248 173.359 38.168 172.969 38.168C172.479 38.168 172.068 38.2933 171.737 38.544C171.407 38.7947 171.159 39.1253 170.993 39.536C170.828 39.9413 170.745 40.3813 170.745 40.856V41.368C170.745 41.9013 170.825 42.3787 170.985 42.8C171.151 43.2213 171.396 43.5547 171.721 43.8C172.047 44.0453 172.457 44.168 172.953 44.168C173.449 44.168 173.857 44.048 174.177 43.808C174.497 43.568 174.692 43.2133 174.761 42.744H176.057C175.977 43.2507 175.796 43.688 175.513 44.056C175.231 44.4187 174.871 44.6987 174.433 44.896C173.996 45.0933 173.503 45.192 172.953 45.192ZM177.54 44.256C177.54 44.0053 177.628 43.7893 177.804 43.608C177.98 43.4267 178.201 43.336 178.468 43.336C178.735 43.336 178.961 43.4267 179.148 43.608C179.335 43.7893 179.428 44.0053 179.428 44.256C179.428 44.5067 179.335 44.7173 179.148 44.888C178.961 45.0587 178.735 45.144 178.468 45.144C178.201 45.144 177.98 45.0587 177.804 44.888C177.628 44.712 177.54 44.5013 177.54 44.256Z" fill="#333333"/>
</g>
<defs>
<filter id="filter0_d_7045_5627" x="0" y="0" width="262.035" height="68" filterUnits="userSpaceOnUse" color-interpolation-filters="sRGB">
<feFlood flood-opacity="0" result="BackgroundImageFix"/>
<feColorMatrix in="SourceAlpha" type="matrix" values="0 0 0 0 0 0 0 0 0 0 0 0 0 0 0 0 0 0 127 0" result="hardAlpha"/>
<feOffset dy="4"/>
<feGaussianBlur stdDeviation="3"/>
<feComposite in2="hardAlpha" operator="out"/>
<feColorMatrix type="matrix" values="0 0 0 0 0 0 0 0 0 0 0 0 0 0 0 0 0 0 0.1 0"/>
<feBlend mode="normal" in2="BackgroundImageFix" result="effect1_dropShadow_7045_5627"/>
<feBlend mode="normal" in="SourceGraphic" in2="effect1_dropShadow_7045_5627" result="shape"/>
</filter>
<filter id="filter1_d_7045_5627" x="27.144" y="12.0879" width="201.937" height="46.8477" filterUnits="userSpaceOnUse" color-interpolation-filters="sRGB">
<feFlood flood-opacity="0" result="BackgroundImageFix"/>
<feColorMatrix in="SourceAlpha" type="matrix" values="0 0 0 0 0 0 0 0 0 0 0 0 0 0 0 0 0 0 127 0" result="hardAlpha"/>
<feOffset dy="4"/>
<feGaussianBlur stdDeviation="3"/>
<feComposite in2="hardAlpha" operator="out"/>
<feColorMatrix type="matrix" values="0 0 0 0 0 0 0 0 0 0 0 0 0 0 0 0 0 0 0.05 0"/>
<feBlend mode="normal" in2="BackgroundImageFix" result="effect1_dropShadow_7045_5627"/>
<feBlend mode="normal" in="SourceGraphic" in2="effect1_dropShadow_7045_5627" result="shape"/>
</filter>
</defs>
</svg>
