<svg width="256" height="68" viewBox="0 0 256 68" fill="none" xmlns="http://www.w3.org/2000/svg">
<mask id="path-1-inside-1_7049_5835" fill="white">
<path d="M248.724 27.3669L239 19L239 11C239 6.02944 234.971 2 230 2L8.99997 1.99998C4.02941 1.99998 -2.59742e-05 6.02942 -2.64087e-05 11L-2.97308e-05 49C-3.01653e-05 53.9705 4.0294 58 8.99997 58L230 58C234.971 58 239 53.9706 239 49L239 39.5L248.612 32.0069C250.106 30.8425 250.16 28.6022 248.724 27.3669Z"/>
</mask>
<path d="M248.724 27.3669L239 19L239 11C239 6.02944 234.971 2 230 2L8.99997 1.99998C4.02941 1.99998 -2.59742e-05 6.02942 -2.64087e-05 11L-2.97308e-05 49C-3.01653e-05 53.9705 4.0294 58 8.99997 58L230 58C234.971 58 239 53.9706 239 49L239 39.5L248.612 32.0069C250.106 30.8425 250.16 28.6022 248.724 27.3669Z" fill="white"/>
<path d="M239 19L237.6 19L237.6 19.6423L238.087 20.0612L239 19ZM248.724 27.3669L249.637 26.3056L249.637 26.3056L248.724 27.3669ZM248.612 32.0069L247.751 30.9028L247.751 30.9028L248.612 32.0069ZM239 39.5L238.139 38.3959L237.6 38.8162L237.6 39.5L239 39.5ZM238.087 20.0612L247.811 28.4281L249.637 26.3056L239.913 17.9388L238.087 20.0612ZM247.751 30.9028L238.139 38.3959L239.861 40.6041L249.473 33.1111L247.751 30.9028ZM247.811 28.4281C248.577 29.0869 248.548 30.2817 247.751 30.9028L249.473 33.1111C251.663 31.4032 251.743 28.1175 249.637 26.3056L247.811 28.4281ZM230 56.6L8.99997 56.6L8.99997 59.4L230 59.4L230 56.6ZM1.39996 49L1.39997 11L-1.40002 11L-1.40002 49L1.39996 49ZM8.99997 3.39998L230 3.4L230 0.599997L8.99997 0.599977L8.99997 3.39998ZM237.6 39.5L237.6 49L240.4 49L240.4 39.5L237.6 39.5ZM237.6 11L237.6 19L240.4 19L240.4 11L237.6 11ZM230 3.4C234.197 3.4 237.6 6.80263 237.6 11L240.4 11C240.4 5.25624 235.744 0.599997 230 0.599997L230 3.4ZM1.39997 11C1.39997 6.80261 4.8026 3.39998 8.99997 3.39998L8.99997 0.599977C3.25622 0.599977 -1.40002 5.25622 -1.40002 11L1.39997 11ZM8.99997 56.6C4.8026 56.6 1.39996 53.1973 1.39996 49L-1.40002 49C-1.40002 54.7437 3.25621 59.4 8.99997 59.4L8.99997 56.6ZM230 59.4C235.744 59.4 240.4 54.7438 240.4 49L237.6 49C237.6 53.1974 234.197 56.6 230 56.6L230 59.4Z" fill="white" mask="url(#path-1-inside-1_7049_5835)"/>
<g filter="url(#filter0_d_7049_5835)">
<mask id="path-3-inside-2_7049_5835" fill="white">
<path d="M248.724 27.3669L239 19L239 11C239 6.02944 234.971 2 230 2L91 1.99999C86.0294 1.99999 82 6.02942 82 11L82 49C82 53.9705 86.0294 58 91 58L230 58C234.971 58 239 53.9706 239 49L239 39.5L248.612 32.0069C250.106 30.8425 250.16 28.6022 248.724 27.3669Z"/>
</mask>
<path d="M248.724 27.3669L239 19L239 11C239 6.02944 234.971 2 230 2L91 1.99999C86.0294 1.99999 82 6.02942 82 11L82 49C82 53.9705 86.0294 58 91 58L230 58C234.971 58 239 53.9706 239 49L239 39.5L248.612 32.0069C250.106 30.8425 250.16 28.6022 248.724 27.3669Z" fill="white"/>
<path d="M239 19L237.6 19L237.6 19.6423L238.087 20.0612L239 19ZM248.724 27.3669L249.637 26.3056L249.637 26.3056L248.724 27.3669ZM248.612 32.0069L247.751 30.9028L247.751 30.9028L248.612 32.0069ZM239 39.5L238.139 38.3959L237.6 38.8162L237.6 39.5L239 39.5ZM230 58L230 59.4L230 58ZM91 58L91 56.6L91 58ZM238.087 20.0612L247.811 28.4281L249.637 26.3056L239.913 17.9388L238.087 20.0612ZM247.751 30.9028L238.139 38.3959L239.861 40.6041L249.473 33.1111L247.751 30.9028ZM247.811 28.4281C248.577 29.0869 248.548 30.2817 247.751 30.9028L249.473 33.1111C251.663 31.4032 251.743 28.1175 249.637 26.3056L247.811 28.4281ZM230 56.6L91 56.6L91 59.4L230 59.4L230 56.6ZM83.4 49L83.4 11L80.6 11L80.6 49L83.4 49ZM91 3.39999L230 3.4L230 0.599997L91 0.599985L91 3.39999ZM237.6 39.5L237.6 49L240.4 49L240.4 39.5L237.6 39.5ZM237.6 11L237.6 19L240.4 19L240.4 11L237.6 11ZM230 3.4C234.197 3.4 237.6 6.80263 237.6 11L240.4 11C240.4 5.25624 235.744 0.599997 230 0.599997L230 3.4ZM83.4 11C83.4 6.80262 86.8026 3.39999 91 3.39999L91 0.599985C85.2562 0.599984 80.6 5.25623 80.6 11L83.4 11ZM91 56.6C86.8026 56.6 83.4 53.1973 83.4 49L80.6 49C80.6 54.7437 85.2562 59.4 91 59.4L91 56.6ZM230 59.4C235.744 59.4 240.4 54.7438 240.4 49L237.6 49C237.6 53.1974 234.197 56.6 230 56.6L230 59.4Z" fill="#333333" mask="url(#path-3-inside-2_7049_5835)"/>
</g>
<g filter="url(#filter1_d_7049_5835)">
<path d="M94.9816 25.5V15.452H98.7416C99.4776 15.452 100.088 15.5747 100.574 15.82C101.059 16.06 101.422 16.38 101.662 16.78C101.902 17.1747 102.022 17.6067 102.022 18.076C102.022 18.652 101.862 19.1533 101.542 19.58C101.227 20.0013 100.752 20.2893 100.118 20.444C100.528 20.508 100.888 20.6547 101.198 20.884C101.512 21.108 101.758 21.3853 101.934 21.716C102.11 22.0413 102.198 22.3907 102.198 22.764C102.198 23.1053 102.139 23.4387 102.022 23.764C101.91 24.0893 101.72 24.3827 101.454 24.644C101.187 24.9053 100.832 25.1133 100.39 25.268C99.947 25.4227 99.3976 25.5 98.7416 25.5H94.9816ZM96.2296 24.412H98.7256C99.4883 24.412 100.035 24.252 100.366 23.932C100.702 23.612 100.87 23.2013 100.87 22.7C100.87 22.1933 100.688 21.788 100.326 21.484C99.963 21.1747 99.4296 21.02 98.7256 21.02H96.2296V24.412ZM96.2296 16.524V19.948H98.6936C99.3176 19.948 99.8136 19.796 100.182 19.492C100.555 19.1827 100.742 18.748 100.742 18.188C100.742 17.6653 100.56 17.2573 100.198 16.964C99.8403 16.6707 99.3443 16.524 98.7096 16.524H96.2296ZM105.079 25.5V17.836H106.327V25.5H105.079ZM105.943 22.044C105.943 21.0733 106.036 20.268 106.223 19.628C106.41 18.9827 106.682 18.5027 107.039 18.188C107.402 17.868 107.842 17.708 108.359 17.708C108.53 17.708 108.684 17.7213 108.823 17.748C108.967 17.7693 109.111 17.804 109.255 17.852L109.175 19.084C109.026 19.036 108.863 18.996 108.687 18.964C108.511 18.9267 108.354 18.908 108.215 18.908C107.762 18.908 107.396 19.0387 107.119 19.3C106.842 19.556 106.639 19.9187 106.511 20.388C106.388 20.8573 106.327 21.4093 106.327 22.044H105.943ZM113.788 25.692C113.1 25.692 112.487 25.54 111.948 25.236C111.415 24.932 110.994 24.4813 110.684 23.884C110.375 23.2867 110.22 22.5507 110.22 21.676C110.22 20.796 110.375 20.06 110.684 19.468C110.994 18.8707 111.415 18.42 111.948 18.116C112.487 17.812 113.1 17.66 113.788 17.66C114.471 17.66 115.079 17.812 115.612 18.116C116.151 18.42 116.572 18.8707 116.876 19.468C117.186 20.06 117.34 20.796 117.34 21.676C117.34 22.5507 117.186 23.2867 116.876 23.884C116.572 24.4813 116.151 24.932 115.612 25.236C115.079 25.54 114.471 25.692 113.788 25.692ZM113.756 24.604C114.252 24.604 114.674 24.4867 115.02 24.252C115.367 24.012 115.628 23.6733 115.804 23.236C115.986 22.7987 116.076 22.2787 116.076 21.676C116.076 20.764 115.887 20.0467 115.508 19.524C115.13 18.996 114.567 18.732 113.82 18.732C113.319 18.732 112.895 18.852 112.548 19.092C112.207 19.3267 111.946 19.6653 111.764 20.108C111.588 20.5453 111.5 21.068 111.5 21.676C111.5 22.5773 111.69 23.292 112.068 23.82C112.452 24.3427 113.015 24.604 113.756 24.604ZM118.602 17.852H119.898L121.85 24.236H121.69L123.594 18.22H124.634L126.522 24.252H126.378L128.33 17.852H129.578L127.066 25.5H125.85L123.994 19.852H124.186L122.346 25.5H121.13L118.602 17.852ZM134.436 25.692C133.695 25.692 133.076 25.588 132.58 25.38C132.084 25.1667 131.708 24.876 131.452 24.508C131.196 24.1347 131.06 23.708 131.044 23.228H132.244C132.271 23.7133 132.465 24.0787 132.828 24.324C133.196 24.564 133.695 24.684 134.324 24.684C134.655 24.684 134.959 24.6307 135.236 24.524C135.513 24.4173 135.735 24.2707 135.9 24.084C136.065 23.8973 136.148 23.6867 136.148 23.452C136.148 23.1533 136.039 22.9187 135.82 22.748C135.601 22.5773 135.252 22.428 134.772 22.3L133.284 21.82C132.639 21.6173 132.143 21.34 131.796 20.988C131.455 20.6307 131.284 20.204 131.284 19.708C131.284 19.0893 131.556 18.5933 132.1 18.22C132.644 17.8467 133.359 17.66 134.244 17.66C135.183 17.66 135.911 17.852 136.428 18.236C136.945 18.62 137.215 19.1 137.236 19.676H136.004C135.956 19.34 135.785 19.0867 135.492 18.916C135.199 18.74 134.783 18.652 134.244 18.652C133.727 18.652 133.321 18.7693 133.028 19.004C132.74 19.2333 132.596 19.4893 132.596 19.772C132.596 20.3 133.049 20.6893 133.956 20.94L135.476 21.452C136.132 21.6493 136.633 21.908 136.98 22.228C137.332 22.548 137.508 22.956 137.508 23.452C137.508 23.836 137.383 24.1987 137.132 24.54C136.881 24.8813 136.527 25.1587 136.068 25.372C135.609 25.5853 135.065 25.692 134.436 25.692ZM142.906 25.692C142.245 25.692 141.653 25.524 141.13 25.188C140.613 24.8467 140.202 24.3747 139.898 23.772C139.6 23.1693 139.45 22.476 139.45 21.692C139.45 20.8547 139.6 20.1347 139.898 19.532C140.197 18.9293 140.605 18.468 141.122 18.148C141.645 17.8227 142.24 17.66 142.906 17.66C143.488 17.66 143.984 17.7773 144.394 18.012C144.805 18.2467 145.136 18.564 145.386 18.964C145.637 19.364 145.81 19.8173 145.906 20.324C146.008 20.8253 146.037 21.3453 145.994 21.884H140.458V21.116H145.17L144.802 21.356C144.818 21.0413 144.8 20.7267 144.746 20.412C144.698 20.0973 144.605 19.8093 144.466 19.548C144.328 19.2813 144.133 19.068 143.882 18.908C143.632 18.748 143.312 18.668 142.922 18.668C142.432 18.668 142.021 18.7933 141.69 19.044C141.36 19.2947 141.112 19.6253 140.946 20.036C140.781 20.4413 140.698 20.8813 140.698 21.356V21.868C140.698 22.4013 140.778 22.8787 140.938 23.3C141.104 23.7213 141.349 24.0547 141.674 24.3C142 24.5453 142.41 24.668 142.906 24.668C143.402 24.668 143.81 24.548 144.13 24.308C144.45 24.068 144.645 23.7133 144.714 23.244H146.01C145.93 23.7507 145.749 24.188 145.466 24.556C145.184 24.9187 144.824 25.1987 144.386 25.396C143.949 25.5933 143.456 25.692 142.906 25.692ZM154.938 25.692C154.522 25.692 154.149 25.612 153.818 25.452C153.487 25.292 153.226 25.052 153.034 24.732C152.842 24.412 152.746 24.012 152.746 23.532V15.724H153.978V23.5C153.978 24.2893 154.346 24.684 155.082 24.684C155.301 24.684 155.511 24.66 155.714 24.612C155.922 24.564 156.154 24.492 156.41 24.396L156.586 25.292C156.314 25.4093 156.042 25.5053 155.77 25.58C155.503 25.6547 155.226 25.692 154.938 25.692ZM151.514 18.716V17.852H156.394V18.716H151.514ZM164.202 25.5V21.004C164.202 20.2733 164.026 19.7187 163.674 19.34C163.327 18.956 162.852 18.764 162.25 18.764C161.791 18.764 161.394 18.8893 161.058 19.14C160.722 19.3907 160.463 19.7507 160.282 20.22C160.1 20.684 160.01 21.2387 160.01 21.884H159.53C159.53 20.9933 159.647 20.2333 159.882 19.604C160.116 18.9747 160.458 18.4947 160.906 18.164C161.359 17.828 161.908 17.66 162.554 17.66C163.156 17.66 163.671 17.796 164.098 18.068C164.53 18.3347 164.86 18.7187 165.09 19.22C165.319 19.7213 165.434 20.316 165.434 21.004V25.5H164.202ZM158.762 25.5V14.588H160.01V25.5H158.762ZM171.234 25.692C170.573 25.692 169.981 25.524 169.458 25.188C168.941 24.8467 168.53 24.3747 168.226 23.772C167.927 23.1693 167.778 22.476 167.778 21.692C167.778 20.8547 167.927 20.1347 168.226 19.532C168.525 18.9293 168.933 18.468 169.45 18.148C169.973 17.8227 170.567 17.66 171.234 17.66C171.815 17.66 172.311 17.7773 172.722 18.012C173.133 18.2467 173.463 18.564 173.714 18.964C173.965 19.364 174.138 19.8173 174.234 20.324C174.335 20.8253 174.365 21.3453 174.322 21.884H168.786V21.116H173.498L173.13 21.356C173.146 21.0413 173.127 20.7267 173.074 20.412C173.026 20.0973 172.933 19.8093 172.794 19.548C172.655 19.2813 172.461 19.068 172.21 18.908C171.959 18.748 171.639 18.668 171.25 18.668C170.759 18.668 170.349 18.7933 170.018 19.044C169.687 19.2947 169.439 19.6253 169.274 20.036C169.109 20.4413 169.026 20.8813 169.026 21.356V21.868C169.026 22.4013 169.106 22.8787 169.266 23.3C169.431 23.7213 169.677 24.0547 170.002 24.3C170.327 24.5453 170.738 24.668 171.234 24.668C171.73 24.668 172.138 24.548 172.458 24.308C172.778 24.068 172.973 23.7133 173.042 23.244H174.338C174.258 23.7507 174.077 24.188 173.794 24.556C173.511 24.9187 173.151 25.1987 172.714 25.396C172.277 25.5933 171.783 25.692 171.234 25.692ZM184.402 25.724C183.682 25.724 183.018 25.5987 182.41 25.348C181.807 25.0973 181.316 24.716 180.938 24.204C180.564 23.692 180.364 23.0413 180.338 22.252H182.194C182.194 22.652 182.292 22.98 182.49 23.236C182.687 23.492 182.951 23.684 183.282 23.812C183.618 23.9347 183.986 23.996 184.386 23.996C184.77 23.996 185.111 23.9453 185.41 23.844C185.714 23.7427 185.951 23.5987 186.122 23.412C186.298 23.22 186.386 22.9933 186.386 22.732C186.386 22.3853 186.279 22.1133 186.066 21.916C185.858 21.7187 185.522 21.5373 185.058 21.372L183.01 20.556C182.21 20.2413 181.596 19.876 181.17 19.46C180.743 19.044 180.53 18.4707 180.53 17.74C180.53 16.8973 180.863 16.2147 181.53 15.692C182.196 15.1693 183.127 14.908 184.322 14.908C185.484 14.908 186.383 15.18 187.018 15.724C187.652 16.2627 188.012 17.0147 188.098 17.98H186.242C186.172 17.5693 185.986 17.2413 185.682 16.996C185.378 16.7453 184.924 16.62 184.322 16.62C183.788 16.62 183.367 16.732 183.058 16.956C182.748 17.1747 182.594 17.452 182.594 17.788C182.594 18.076 182.69 18.3053 182.882 18.476C183.079 18.6413 183.383 18.8013 183.794 18.956L186.066 19.836C186.834 20.1347 187.423 20.5107 187.834 20.964C188.244 21.4173 188.45 21.9853 188.45 22.668C188.45 23.292 188.292 23.8333 187.978 24.292C187.663 24.7453 187.204 25.0973 186.602 25.348C185.999 25.5987 185.266 25.724 184.402 25.724ZM190.013 25.5L193.549 15.116H195.917L199.309 25.5H197.325L196.605 23.26H192.749L192.013 25.5H190.013ZM193.229 21.836H196.157L194.701 17.372L193.229 21.836ZM203.212 15.116V23.852H207.484V25.5H201.324V15.116H203.212ZM207.045 16.748V15.116H215.365V16.748H211.725L212.149 16.316V25.5H210.261V16.316L210.685 16.748H207.045ZM215.721 15.116H217.961L220.441 19.58H220.073L222.649 15.116H224.873L221.177 21.212V25.5H219.289V21.212L215.721 15.116ZM102.811 45.5V35.116H106.651C107.893 35.116 108.845 35.4067 109.507 35.988C110.173 36.5693 110.507 37.34 110.507 38.3C110.507 39.244 110.173 40.0067 109.507 40.588C108.845 41.164 107.893 41.452 106.651 41.452H104.699V45.5H102.811ZM108.427 45.5L105.675 40.636H107.691L110.891 45.5H108.427ZM104.699 40.188H106.459C107.152 40.188 107.677 40.0307 108.035 39.716C108.392 39.396 108.571 38.9827 108.571 38.476C108.571 37.9587 108.408 37.5427 108.083 37.228C107.757 36.908 107.28 36.748 106.651 36.748H104.699V40.188ZM113.251 45.5V35.116H119.923V36.748H115.139V39.484H119.635V41.116H115.139V43.852H119.923V45.5H113.251ZM126.594 45.724C125.682 45.724 124.887 45.508 124.21 45.076C123.538 44.6387 123.015 44.0147 122.642 43.204C122.269 42.3933 122.082 41.42 122.082 40.284C122.082 39.1107 122.274 38.1267 122.658 37.332C123.047 36.532 123.581 35.9293 124.258 35.524C124.941 35.1133 125.719 34.908 126.594 34.908C127.805 34.908 128.749 35.2013 129.426 35.788C130.109 36.3747 130.546 37.1373 130.738 38.076L128.722 38.444C128.557 37.9 128.293 37.46 127.93 37.124C127.567 36.788 127.122 36.62 126.594 36.62C126.13 36.62 125.711 36.756 125.338 37.028C124.965 37.2947 124.666 37.7 124.442 38.244C124.223 38.788 124.114 39.468 124.114 40.284C124.114 41.052 124.21 41.7133 124.402 42.268C124.599 42.8227 124.882 43.2493 125.25 43.548C125.618 43.8467 126.066 43.996 126.594 43.996C127.271 43.996 127.794 43.8173 128.162 43.46C128.535 43.0973 128.722 42.636 128.722 42.076H130.738C130.738 42.8493 130.57 43.508 130.234 44.052C129.903 44.5907 129.429 45.004 128.81 45.292C128.191 45.58 127.453 45.724 126.594 45.724ZM133.119 45.5V35.116H135.007V45.5H133.119ZM138.106 45.5V35.116H141.77C142.938 35.116 143.847 35.404 144.498 35.98C145.154 36.556 145.482 37.372 145.482 38.428C145.482 39.4733 145.154 40.284 144.498 40.86C143.847 41.436 142.938 41.724 141.77 41.724H140.01V45.5H138.106ZM140.01 40.076H141.77C142.356 40.076 142.799 39.9213 143.098 39.612C143.396 39.3027 143.546 38.908 143.546 38.428C143.546 37.9373 143.396 37.5347 143.098 37.22C142.799 36.9053 142.356 36.748 141.77 36.748H140.01V40.076ZM147.579 45.5V35.116H154.251V36.748H149.467V39.484H153.963V41.116H149.467V43.852H154.251V45.5H147.579ZM160.762 45.724C160.042 45.724 159.378 45.5987 158.77 45.348C158.167 45.0973 157.676 44.716 157.298 44.204C156.924 43.692 156.724 43.0413 156.698 42.252H158.554C158.554 42.652 158.652 42.98 158.85 43.236C159.047 43.492 159.311 43.684 159.642 43.812C159.978 43.9347 160.346 43.996 160.746 43.996C161.13 43.996 161.471 43.9453 161.77 43.844C162.074 43.7427 162.311 43.5987 162.482 43.412C162.658 43.22 162.746 42.9933 162.746 42.732C162.746 42.3853 162.639 42.1133 162.426 41.916C162.218 41.7187 161.882 41.5373 161.418 41.372L159.37 40.556C158.57 40.2413 157.956 39.876 157.53 39.46C157.103 39.044 156.89 38.4707 156.89 37.74C156.89 36.8973 157.223 36.2147 157.89 35.692C158.556 35.1693 159.487 34.908 160.682 34.908C161.844 34.908 162.743 35.18 163.378 35.724C164.012 36.2627 164.372 37.0147 164.458 37.98H162.602C162.532 37.5693 162.346 37.2413 162.042 36.996C161.738 36.7453 161.284 36.62 160.682 36.62C160.148 36.62 159.727 36.732 159.418 36.956C159.108 37.1747 158.954 37.452 158.954 37.788C158.954 38.076 159.05 38.3053 159.242 38.476C159.439 38.6413 159.743 38.8013 160.154 38.956L162.426 39.836C163.194 40.1347 163.783 40.5107 164.194 40.964C164.604 41.4173 164.81 41.9853 164.81 42.668C164.81 43.292 164.652 43.8333 164.338 44.292C164.023 44.7453 163.564 45.0973 162.962 45.348C162.359 45.5987 161.626 45.724 160.762 45.724ZM174.346 45.692C173.604 45.692 172.986 45.588 172.49 45.38C171.994 45.1667 171.618 44.876 171.362 44.508C171.106 44.1347 170.97 43.708 170.954 43.228H172.154C172.18 43.7133 172.375 44.0787 172.738 44.324C173.106 44.564 173.604 44.684 174.234 44.684C174.564 44.684 174.868 44.6307 175.146 44.524C175.423 44.4173 175.644 44.2707 175.81 44.084C175.975 43.8973 176.058 43.6867 176.058 43.452C176.058 43.1533 175.948 42.9187 175.73 42.748C175.511 42.5773 175.162 42.428 174.682 42.3L173.194 41.82C172.548 41.6173 172.052 41.34 171.706 40.988C171.364 40.6307 171.194 40.204 171.194 39.708C171.194 39.0893 171.466 38.5933 172.01 38.22C172.554 37.8467 173.268 37.66 174.154 37.66C175.092 37.66 175.82 37.852 176.338 38.236C176.855 38.62 177.124 39.1 177.146 39.676H175.914C175.866 39.34 175.695 39.0867 175.402 38.916C175.108 38.74 174.692 38.652 174.154 38.652C173.636 38.652 173.231 38.7693 172.938 39.004C172.65 39.2333 172.506 39.4893 172.506 39.772C172.506 40.3 172.959 40.6893 173.866 40.94L175.386 41.452C176.042 41.6493 176.543 41.908 176.89 42.228C177.242 42.548 177.418 42.956 177.418 43.452C177.418 43.836 177.292 44.1987 177.042 44.54C176.791 44.8813 176.436 45.1587 175.978 45.372C175.519 45.5853 174.975 45.692 174.346 45.692ZM182.816 45.692C182.154 45.692 181.562 45.524 181.04 45.188C180.522 44.8467 180.112 44.3747 179.808 43.772C179.509 43.1693 179.36 42.476 179.36 41.692C179.36 40.8547 179.509 40.1347 179.808 39.532C180.106 38.9293 180.514 38.468 181.032 38.148C181.554 37.8227 182.149 37.66 182.816 37.66C183.397 37.66 183.893 37.7773 184.304 38.012C184.714 38.2467 185.045 38.564 185.296 38.964C185.546 39.364 185.72 39.8173 185.816 40.324C185.917 40.8253 185.946 41.3453 185.904 41.884H180.368V41.116H185.08L184.712 41.356C184.728 41.0413 184.709 40.7267 184.656 40.412C184.608 40.0973 184.514 39.8093 184.376 39.548C184.237 39.2813 184.042 39.068 183.792 38.908C183.541 38.748 183.221 38.668 182.832 38.668C182.341 38.668 181.93 38.7933 181.6 39.044C181.269 39.2947 181.021 39.6253 180.856 40.036C180.69 40.4413 180.608 40.8813 180.608 41.356V41.868C180.608 42.4013 180.688 42.8787 180.848 43.3C181.013 43.7213 181.258 44.0547 181.584 44.3C181.909 44.5453 182.32 44.668 182.816 44.668C183.312 44.668 183.72 44.548 184.04 44.308C184.36 44.068 184.554 43.7133 184.624 43.244H185.92C185.84 43.7507 185.658 44.188 185.376 44.556C185.093 44.9187 184.733 45.1987 184.296 45.396C183.858 45.5933 183.365 45.692 182.816 45.692ZM191.227 45.692C190.613 45.692 190.04 45.5267 189.507 45.196C188.979 44.8653 188.552 44.3987 188.227 43.796C187.901 43.1933 187.739 42.4813 187.739 41.66C187.739 40.8173 187.901 40.0973 188.227 39.5C188.552 38.9027 188.979 38.4467 189.507 38.132C190.04 37.8173 190.613 37.66 191.227 37.66C191.659 37.66 192.045 37.7267 192.387 37.86C192.733 37.988 193.035 38.1667 193.291 38.396C193.547 38.6253 193.757 38.8867 193.923 39.18C194.093 39.468 194.219 39.772 194.299 40.092L193.019 40.204C192.885 39.7613 192.661 39.412 192.347 39.156C192.037 38.8947 191.659 38.764 191.211 38.764C190.832 38.764 190.475 38.8733 190.139 39.092C189.808 39.3053 189.539 39.628 189.331 40.06C189.123 40.4867 189.019 41.02 189.019 41.66C189.019 42.252 189.112 42.7667 189.299 43.204C189.491 43.636 189.752 43.972 190.083 44.212C190.413 44.452 190.789 44.572 191.211 44.572C191.803 44.572 192.251 44.428 192.555 44.14C192.864 43.8467 193.019 43.4413 193.019 42.924H194.299C194.299 43.4573 194.173 43.932 193.923 44.348C193.672 44.764 193.315 45.092 192.851 45.332C192.392 45.572 191.851 45.692 191.227 45.692ZM199.301 45.692C198.885 45.692 198.511 45.612 198.181 45.452C197.85 45.292 197.589 45.052 197.397 44.732C197.205 44.412 197.109 44.012 197.109 43.532V35.724H198.341V43.5C198.341 44.2893 198.709 44.684 199.445 44.684C199.663 44.684 199.874 44.66 200.077 44.612C200.285 44.564 200.517 44.492 200.773 44.396L200.949 45.292C200.677 45.4093 200.405 45.5053 200.133 45.58C199.866 45.6547 199.589 45.692 199.301 45.692ZM195.877 38.716V37.852H200.757V38.716H195.877ZM203.828 36.044C203.572 36.044 203.369 35.972 203.22 35.828C203.071 35.6787 202.996 35.484 202.996 35.244C202.996 35.0093 203.071 34.8227 203.22 34.684C203.369 34.5453 203.572 34.476 203.828 34.476C204.084 34.476 204.287 34.5453 204.436 34.684C204.585 34.8227 204.66 35.0093 204.66 35.244C204.66 35.484 204.585 35.6787 204.436 35.828C204.287 35.972 204.084 36.044 203.828 36.044ZM203.204 45.5V37.836H204.452V45.5H203.204ZM210.818 45.692C210.13 45.692 209.516 45.54 208.978 45.236C208.444 44.932 208.023 44.4813 207.714 43.884C207.404 43.2867 207.25 42.5507 207.25 41.676C207.25 40.796 207.404 40.06 207.714 39.468C208.023 38.8707 208.444 38.42 208.978 38.116C209.516 37.812 210.13 37.66 210.818 37.66C211.5 37.66 212.108 37.812 212.642 38.116C213.18 38.42 213.602 38.8707 213.906 39.468C214.215 40.06 214.37 40.796 214.37 41.676C214.37 42.5507 214.215 43.2867 213.906 43.884C213.602 44.4813 213.18 44.932 212.642 45.236C212.108 45.54 211.5 45.692 210.818 45.692ZM210.786 44.604C211.282 44.604 211.703 44.4867 212.05 44.252C212.396 44.012 212.658 43.6733 212.834 43.236C213.015 42.7987 213.106 42.2787 213.106 41.676C213.106 40.764 212.916 40.0467 212.538 39.524C212.159 38.996 211.596 38.732 210.85 38.732C210.348 38.732 209.924 38.852 209.578 39.092C209.236 39.3267 208.975 39.6653 208.794 40.108C208.618 40.5453 208.53 41.068 208.53 41.676C208.53 42.5773 208.719 43.292 209.098 43.82C209.482 44.3427 210.044 44.604 210.786 44.604ZM222.4 45.5V41.004C222.4 40.2733 222.224 39.7187 221.872 39.34C221.525 38.956 221.05 38.764 220.448 38.764C219.989 38.764 219.592 38.8893 219.256 39.14C218.92 39.3907 218.661 39.7507 218.48 40.22C218.298 40.684 218.208 41.2387 218.208 41.884H217.728C217.728 40.9933 217.845 40.2333 218.08 39.604C218.314 38.9747 218.656 38.4947 219.104 38.164C219.557 37.828 220.106 37.66 220.752 37.66C221.354 37.66 221.869 37.796 222.296 38.068C222.728 38.3347 223.058 38.7187 223.288 39.22C223.517 39.7213 223.632 40.316 223.632 41.004V45.5H222.4ZM216.96 45.5V37.852H218.032L218.208 39.612V45.5H216.96Z" fill="#333333"/>
</g>
<defs>
<filter id="filter0_d_7049_5835" x="76" y="0" width="179.767" height="68" filterUnits="userSpaceOnUse" color-interpolation-filters="sRGB">
<feFlood flood-opacity="0" result="BackgroundImageFix"/>
<feColorMatrix in="SourceAlpha" type="matrix" values="0 0 0 0 0 0 0 0 0 0 0 0 0 0 0 0 0 0 127 0" result="hardAlpha"/>
<feOffset dy="4"/>
<feGaussianBlur stdDeviation="3"/>
<feComposite in2="hardAlpha" operator="out"/>
<feColorMatrix type="matrix" values="0 0 0 0 0 0 0 0 0 0 0 0 0 0 0 0 0 0 0.1 0"/>
<feBlend mode="normal" in2="BackgroundImageFix" result="effect1_dropShadow_7049_5835"/>
<feBlend mode="normal" in="SourceGraphic" in2="effect1_dropShadow_7049_5835" result="shape"/>
</filter>
<filter id="filter1_d_7049_5835" x="88.9817" y="12.5879" width="141.892" height="43.1357" filterUnits="userSpaceOnUse" color-interpolation-filters="sRGB">
<feFlood flood-opacity="0" result="BackgroundImageFix"/>
<feColorMatrix in="SourceAlpha" type="matrix" values="0 0 0 0 0 0 0 0 0 0 0 0 0 0 0 0 0 0 127 0" result="hardAlpha"/>
<feOffset dy="4"/>
<feGaussianBlur stdDeviation="3"/>
<feComposite in2="hardAlpha" operator="out"/>
<feColorMatrix type="matrix" values="0 0 0 0 0 0 0 0 0 0 0 0 0 0 0 0 0 0 0.05 0"/>
<feBlend mode="normal" in2="BackgroundImageFix" result="effect1_dropShadow_7049_5835"/>
<feBlend mode="normal" in="SourceGraphic" in2="effect1_dropShadow_7049_5835" result="shape"/>
</filter>
</defs>
</svg>
