<svg width="354" height="94" viewBox="0 0 354 94" fill="none" xmlns="http://www.w3.org/2000/svg">
<g filter="url(#filter0_d_6977_5421)">
<path d="M16 14.8C16 10.3196 16 8.07937 16.8719 6.36808C17.6389 4.86278 18.8628 3.63893 20.3681 2.87195C22.0794 2 24.3196 2 28.8 2H299.2C303.68 2 305.921 2 307.632 2.87195C309.137 3.63893 310.361 4.86278 311.128 6.36808C312 8.07937 312 10.3196 312 14.8V71.2C312 75.6804 312 77.9206 311.128 79.6319C310.361 81.1372 309.137 82.3611 307.632 83.1281C305.921 84 303.68 84 299.2 84H28.8C24.3196 84 22.0794 84 20.3681 83.1281C18.8628 82.3611 17.6389 81.1372 16.8719 79.6319C16 77.9206 16 75.6804 16 71.2V14.8Z" fill="white"/>
<path d="M36.168 28.192C35.336 28.192 34.592 28 33.936 27.616C33.28 27.232 32.7627 26.656 32.384 25.888C32.0053 25.1147 31.816 24.1493 31.816 22.992C31.816 21.8187 32.0053 20.848 32.384 20.08C32.7627 19.3067 33.28 18.7307 33.936 18.352C34.592 17.968 35.336 17.776 36.168 17.776C37 17.776 37.744 17.968 38.4 18.352C39.056 18.736 39.5733 19.3147 39.952 20.088C40.3307 20.8613 40.52 21.8293 40.52 22.992C40.52 24.16 40.3307 25.1307 39.952 25.904C39.5733 26.672 39.056 27.2453 38.4 27.624C37.744 28.0027 37 28.192 36.168 28.192ZM36.168 27.04C37.112 27.04 37.856 26.696 38.4 26.008C38.9493 25.32 39.224 24.3093 39.224 22.976C39.224 21.6693 38.9493 20.664 38.4 19.96C37.856 19.2507 37.112 18.896 36.168 18.896C35.2347 18.896 34.4907 19.2507 33.936 19.96C33.3867 20.6693 33.112 21.68 33.112 22.992C33.112 24.32 33.3867 25.328 33.936 26.016C34.4907 26.6987 35.2347 27.04 36.168 27.04ZM48.8801 17.952H50.6081L44.1921 24.56V22.8L48.8801 17.952ZM46.0001 22.192L50.8801 28H49.2481L45.1041 23.008L46.0001 22.192ZM43.1041 17.952H44.3681V28H43.1041V17.952ZM53.1109 25.184L52.9509 17.984H54.2789L54.1189 25.184H53.1109ZM53.6149 28.144C53.3429 28.144 53.1189 28.0587 52.9429 27.888C52.7669 27.7173 52.6789 27.504 52.6789 27.248C52.6789 26.9973 52.7669 26.784 52.9429 26.608C53.1189 26.4267 53.3429 26.336 53.6149 26.336C53.8815 26.336 54.1055 26.4267 54.2869 26.608C54.4735 26.784 54.5669 26.9973 54.5669 27.248C54.5669 27.504 54.4735 27.7173 54.2869 27.888C54.1055 28.0587 53.8815 28.144 53.6149 28.144ZM60.0652 17.952H61.5692L64.4492 22.832H64.1292L67.0572 17.952H68.5452L64.9132 23.872V28H63.6492V23.872L60.0652 17.952ZM72.1996 28.192C71.5116 28.192 70.8983 28.04 70.3596 27.736C69.8263 27.432 69.405 26.9813 69.0956 26.384C68.7863 25.7867 68.6316 25.0507 68.6316 24.176C68.6316 23.296 68.7863 22.56 69.0956 21.968C69.405 21.3707 69.8263 20.92 70.3596 20.616C70.8983 20.312 71.5116 20.16 72.1996 20.16C72.8823 20.16 73.4903 20.312 74.0236 20.616C74.5623 20.92 74.9836 21.3707 75.2876 21.968C75.597 22.56 75.7516 23.296 75.7516 24.176C75.7516 25.0507 75.597 25.7867 75.2876 26.384C74.9836 26.9813 74.5623 27.432 74.0236 27.736C73.4903 28.04 72.8823 28.192 72.1996 28.192ZM72.1676 27.104C72.6636 27.104 73.085 26.9867 73.4316 26.752C73.7783 26.512 74.0396 26.1733 74.2156 25.736C74.397 25.2987 74.4876 24.7787 74.4876 24.176C74.4876 23.264 74.2983 22.5467 73.9196 22.024C73.541 21.496 72.9783 21.232 72.2316 21.232C71.7303 21.232 71.3063 21.352 70.9596 21.592C70.6183 21.8267 70.357 22.1653 70.1756 22.608C69.9996 23.0453 69.9116 23.568 69.9116 24.176C69.9116 25.0773 70.101 25.792 70.4796 26.32C70.8636 26.8427 71.4263 27.104 72.1676 27.104ZM83.5416 20.336H84.7896V28H83.5416V20.336ZM78.1176 20.336H79.3656V25.104C79.3656 25.744 79.5203 26.2293 79.8296 26.56C80.1443 26.8907 80.5923 27.056 81.1736 27.056C81.6536 27.056 82.0696 26.928 82.4216 26.672C82.779 26.416 83.0536 26.064 83.2456 25.616C83.443 25.1627 83.5416 24.6453 83.5416 24.064H84.0056C84.0056 24.9227 83.8803 25.656 83.6296 26.264C83.3843 26.872 83.035 27.3387 82.5816 27.664C82.1336 27.984 81.6056 28.144 80.9976 28.144C80.4216 28.144 79.9176 28.0373 79.4856 27.824C79.0536 27.6107 78.7176 27.288 78.4776 26.856C78.2376 26.4187 78.1176 25.8667 78.1176 25.2V20.336ZM94.834 28.192C94.2207 28.192 93.6473 28.0267 93.114 27.696C92.586 27.3653 92.1593 26.8987 91.834 26.296C91.5087 25.6933 91.346 24.9813 91.346 24.16C91.346 23.3173 91.5087 22.5973 91.834 22C92.1593 21.4027 92.586 20.9467 93.114 20.632C93.6473 20.3173 94.2207 20.16 94.834 20.16C95.266 20.16 95.6527 20.2267 95.994 20.36C96.3407 20.488 96.642 20.6667 96.898 20.896C97.154 21.1253 97.3647 21.3867 97.53 21.68C97.7007 21.968 97.826 22.272 97.906 22.592L96.626 22.704C96.4927 22.2613 96.2687 21.912 95.954 21.656C95.6447 21.3947 95.266 21.264 94.818 21.264C94.4393 21.264 94.082 21.3733 93.746 21.592C93.4153 21.8053 93.146 22.128 92.938 22.56C92.73 22.9867 92.626 23.52 92.626 24.16C92.626 24.752 92.7193 25.2667 92.906 25.704C93.098 26.136 93.3593 26.472 93.69 26.712C94.0207 26.952 94.3967 27.072 94.818 27.072C95.41 27.072 95.858 26.928 96.162 26.64C96.4713 26.3467 96.626 25.9413 96.626 25.424H97.906C97.906 25.9573 97.7807 26.432 97.53 26.848C97.2793 27.264 96.922 27.592 96.458 27.832C95.9993 28.072 95.458 28.192 94.834 28.192ZM105.292 28L105.132 26.32V23.04C105.132 22.352 104.985 21.8587 104.692 21.56C104.399 21.256 103.959 21.104 103.372 21.104C103.041 21.104 102.74 21.152 102.468 21.248C102.201 21.344 101.988 21.4933 101.828 21.696C101.673 21.8933 101.596 22.1493 101.596 22.464H100.204C100.204 21.9093 100.34 21.464 100.612 21.128C100.884 20.7867 101.257 20.5413 101.732 20.392C102.212 20.2373 102.759 20.16 103.372 20.16C103.959 20.16 104.479 20.2587 104.932 20.456C105.385 20.6533 105.74 20.968 105.996 21.4C106.252 21.8267 106.38 22.384 106.38 23.072V28H105.292ZM102.684 28.192C102.055 28.192 101.535 28.08 101.124 27.856C100.713 27.632 100.407 27.3413 100.204 26.984C100.001 26.6267 99.9 26.2507 99.9 25.856C99.9 25.3387 100.028 24.9173 100.284 24.592C100.545 24.2667 100.9 24.0293 101.348 23.88C101.796 23.7253 102.3 23.648 102.86 23.648C103.26 23.648 103.66 23.688 104.06 23.768C104.465 23.848 104.86 23.9573 105.244 24.096V24.88C104.924 24.752 104.561 24.6507 104.156 24.576C103.756 24.5013 103.388 24.464 103.052 24.464C102.54 24.464 102.108 24.5707 101.756 24.784C101.404 24.992 101.228 25.3493 101.228 25.856C101.228 26.2293 101.361 26.5493 101.628 26.816C101.9 27.0827 102.332 27.216 102.924 27.216C103.34 27.216 103.713 27.12 104.044 26.928C104.38 26.7307 104.644 26.4853 104.836 26.192C105.033 25.8987 105.132 25.6053 105.132 25.312H105.436C105.436 25.824 105.324 26.2987 105.1 26.736C104.881 27.1733 104.567 27.5253 104.156 27.792C103.745 28.0587 103.255 28.192 102.684 28.192ZM114.968 28V23.504C114.968 22.7733 114.792 22.2187 114.44 21.84C114.094 21.456 113.619 21.264 113.016 21.264C112.558 21.264 112.16 21.3893 111.824 21.64C111.488 21.8907 111.23 22.2507 111.048 22.72C110.867 23.184 110.776 23.7387 110.776 24.384H110.296C110.296 23.4933 110.414 22.7333 110.648 22.104C110.883 21.4747 111.224 20.9947 111.672 20.664C112.126 20.328 112.675 20.16 113.32 20.16C113.923 20.16 114.438 20.296 114.864 20.568C115.296 20.8347 115.627 21.2187 115.856 21.72C116.086 22.2213 116.2 22.816 116.2 23.504V28H114.968ZM109.528 28V20.352H110.6L110.776 22.112V28H109.528ZM123.718 28V19.168C123.718 18.6613 123.814 18.248 124.006 17.928C124.203 17.6027 124.464 17.3627 124.79 17.208C125.12 17.0533 125.488 16.976 125.894 16.976C126.112 16.976 126.334 16.992 126.558 17.024C126.787 17.056 127.014 17.104 127.238 17.168L126.998 18.16C126.838 18.096 126.678 18.048 126.518 18.016C126.363 17.984 126.214 17.968 126.07 17.968C125.899 17.968 125.728 18 125.558 18.064C125.387 18.128 125.246 18.248 125.134 18.424C125.022 18.6 124.966 18.8533 124.966 19.184V28H123.718ZM122.47 21.216V20.352H126.55V21.216H122.47ZM129.486 18.544C129.23 18.544 129.027 18.472 128.878 18.328C128.728 18.1787 128.654 17.984 128.654 17.744C128.654 17.5093 128.728 17.3227 128.878 17.184C129.027 17.0453 129.23 16.976 129.486 16.976C129.742 16.976 129.944 17.0453 130.094 17.184C130.243 17.3227 130.318 17.5093 130.318 17.744C130.318 17.984 130.243 18.1787 130.094 18.328C129.944 18.472 129.742 18.544 129.486 18.544ZM128.862 28V20.336H130.11V28H128.862ZM139.152 28V23.504C139.152 22.7733 138.976 22.2187 138.624 21.84C138.277 21.456 137.802 21.264 137.2 21.264C136.741 21.264 136.344 21.3893 136.008 21.64C135.672 21.8907 135.413 22.2507 135.232 22.72C135.05 23.184 134.96 23.7387 134.96 24.384H134.48C134.48 23.4933 134.597 22.7333 134.832 22.104C135.066 21.4747 135.408 20.9947 135.856 20.664C136.309 20.328 136.858 20.16 137.504 20.16C138.106 20.16 138.621 20.296 139.048 20.568C139.48 20.8347 139.81 21.2187 140.04 21.72C140.269 22.2213 140.384 22.816 140.384 23.504V28H139.152ZM133.712 28V20.352H134.784L134.96 22.112V28H133.712ZM146.264 28.192C145.645 28.192 145.077 28.0267 144.56 27.696C144.043 27.36 143.629 26.8907 143.32 26.288C143.011 25.68 142.856 24.9653 142.856 24.144C142.856 23.328 143.008 22.6213 143.312 22.024C143.616 21.4267 144.019 20.968 144.52 20.648C145.027 20.3227 145.581 20.16 146.184 20.16C146.744 20.16 147.235 20.296 147.656 20.568C148.083 20.84 148.413 21.232 148.648 21.744C148.883 22.256 149 22.8747 149 23.6H148.52C148.52 23.0933 148.419 22.6667 148.216 22.32C148.019 21.9733 147.76 21.712 147.44 21.536C147.12 21.3547 146.776 21.264 146.408 21.264C145.992 21.264 145.611 21.3813 145.264 21.616C144.923 21.8453 144.648 22.176 144.44 22.608C144.237 23.0347 144.136 23.5467 144.136 24.144C144.136 24.752 144.237 25.2747 144.44 25.712C144.648 26.1493 144.923 26.4853 145.264 26.72C145.611 26.9547 145.992 27.072 146.408 27.072C146.755 27.072 147.088 26.9813 147.408 26.8C147.733 26.6187 148 26.3547 148.208 26.008C148.416 25.656 148.52 25.232 148.52 24.736H149C149 25.4773 148.877 26.1067 148.632 26.624C148.392 27.136 148.064 27.5253 147.648 27.792C147.237 28.0587 146.776 28.192 146.264 28.192ZM148.728 28L148.52 26.208V17.088H149.768V28H148.728ZM155.865 20.352H157.257L159.753 26.912H159.465L161.401 20.352H162.681L159.801 29.536C159.561 30.304 159.241 30.896 158.841 31.312C158.441 31.728 157.929 31.936 157.305 31.936C156.969 31.936 156.649 31.888 156.345 31.792C156.046 31.696 155.737 31.5573 155.417 31.376V30.224C155.7 30.448 155.972 30.608 156.233 30.704C156.5 30.8 156.777 30.848 157.065 30.848C157.385 30.848 157.652 30.7467 157.865 30.544C158.084 30.3413 158.265 30.08 158.409 29.76C158.553 29.4453 158.676 29.1147 158.777 28.768L159.001 28L155.865 20.352ZM167.51 28.192C166.822 28.192 166.209 28.04 165.67 27.736C165.137 27.432 164.716 26.9813 164.406 26.384C164.097 25.7867 163.942 25.0507 163.942 24.176C163.942 23.296 164.097 22.56 164.406 21.968C164.716 21.3707 165.137 20.92 165.67 20.616C166.209 20.312 166.822 20.16 167.51 20.16C168.193 20.16 168.801 20.312 169.334 20.616C169.873 20.92 170.294 21.3707 170.598 21.968C170.908 22.56 171.062 23.296 171.062 24.176C171.062 25.0507 170.908 25.7867 170.598 26.384C170.294 26.9813 169.873 27.432 169.334 27.736C168.801 28.04 168.193 28.192 167.51 28.192ZM167.478 27.104C167.974 27.104 168.396 26.9867 168.742 26.752C169.089 26.512 169.35 26.1733 169.526 25.736C169.708 25.2987 169.798 24.7787 169.798 24.176C169.798 23.264 169.609 22.5467 169.23 22.024C168.852 21.496 168.289 21.232 167.542 21.232C167.041 21.232 166.617 21.352 166.27 21.592C165.929 21.8267 165.668 22.1653 165.486 22.608C165.31 23.0453 165.222 23.568 165.222 24.176C165.222 25.0773 165.412 25.792 165.79 26.32C166.174 26.8427 166.737 27.104 167.478 27.104ZM178.852 20.336H180.1V28H178.852V20.336ZM173.428 20.336H174.676V25.104C174.676 25.744 174.831 26.2293 175.14 26.56C175.455 26.8907 175.903 27.056 176.484 27.056C176.964 27.056 177.38 26.928 177.732 26.672C178.09 26.416 178.364 26.064 178.556 25.616C178.754 25.1627 178.852 24.6453 178.852 24.064H179.316C179.316 24.9227 179.191 25.656 178.94 26.264C178.695 26.872 178.346 27.3387 177.892 27.664C177.444 27.984 176.916 28.144 176.308 28.144C175.732 28.144 175.228 28.0373 174.796 27.824C174.364 27.6107 174.028 27.288 173.788 26.856C173.548 26.4187 173.428 25.8667 173.428 25.2V20.336ZM192.897 28V23.504C192.897 22.7733 192.721 22.2187 192.369 21.84C192.022 21.456 191.547 21.264 190.945 21.264C190.486 21.264 190.089 21.3893 189.753 21.64C189.417 21.8907 189.158 22.2507 188.977 22.72C188.795 23.184 188.705 23.7387 188.705 24.384H188.225C188.225 23.4933 188.342 22.7333 188.577 22.104C188.811 21.4747 189.153 20.9947 189.601 20.664C190.054 20.328 190.603 20.16 191.249 20.16C191.851 20.16 192.366 20.296 192.793 20.568C193.225 20.8347 193.555 21.2187 193.785 21.72C194.014 22.2213 194.129 22.816 194.129 23.504V28H192.897ZM187.457 28V20.352H188.529L188.705 22.112V28H187.457ZM199.929 28.192C199.268 28.192 198.676 28.024 198.153 27.688C197.636 27.3467 197.225 26.8747 196.921 26.272C196.622 25.6693 196.473 24.976 196.473 24.192C196.473 23.3547 196.622 22.6347 196.921 22.032C197.22 21.4293 197.628 20.968 198.145 20.648C198.668 20.3227 199.262 20.16 199.929 20.16C200.51 20.16 201.006 20.2773 201.417 20.512C201.828 20.7467 202.158 21.064 202.409 21.464C202.66 21.864 202.833 22.3173 202.929 22.824C203.03 23.3253 203.06 23.8453 203.017 24.384H197.481V23.616H202.193L201.825 23.856C201.841 23.5413 201.822 23.2267 201.769 22.912C201.721 22.5973 201.628 22.3093 201.489 22.048C201.35 21.7813 201.156 21.568 200.905 21.408C200.654 21.248 200.334 21.168 199.945 21.168C199.454 21.168 199.044 21.2933 198.713 21.544C198.382 21.7947 198.134 22.1253 197.969 22.536C197.804 22.9413 197.721 23.3813 197.721 23.856V24.368C197.721 24.9013 197.801 25.3787 197.961 25.8C198.126 26.2213 198.372 26.5547 198.697 26.8C199.022 27.0453 199.433 27.168 199.929 27.168C200.425 27.168 200.833 27.048 201.153 26.808C201.473 26.568 201.668 26.2133 201.737 25.744H203.033C202.953 26.2507 202.772 26.688 202.489 27.056C202.206 27.4187 201.846 27.6987 201.409 27.896C200.972 28.0933 200.478 28.192 199.929 28.192ZM204.324 20.352H205.62L207.572 26.736H207.412L209.316 20.72H210.356L212.244 26.752H212.1L214.052 20.352H215.3L212.788 28H211.572L209.716 22.352H209.908L208.068 28H206.852L204.324 20.352ZM36.12 48.192C35.608 48.192 35.144 48.0587 34.728 47.792C34.3173 47.5253 33.9893 47.136 33.744 46.624C33.504 46.1067 33.384 45.4773 33.384 44.736H33.864C33.864 45.232 33.9653 45.656 34.168 46.008C34.376 46.3547 34.6427 46.6187 34.968 46.8C35.2933 46.9813 35.6347 47.072 35.992 47.072C36.4027 47.072 36.7787 46.9547 37.12 46.72C37.4613 46.4853 37.7333 46.1493 37.936 45.712C38.144 45.2747 38.248 44.752 38.248 44.144C38.248 43.5467 38.1467 43.0347 37.944 42.608C37.7413 42.176 37.4667 41.8453 37.12 41.616C36.7787 41.3813 36.3973 41.264 35.976 41.264C35.6133 41.264 35.2693 41.3547 34.944 41.536C34.624 41.712 34.3627 41.9733 34.16 42.32C33.9627 42.6667 33.864 43.0933 33.864 43.6H33.384C33.384 42.8747 33.5013 42.256 33.736 41.744C33.976 41.232 34.3067 40.84 34.728 40.568C35.1493 40.296 35.64 40.16 36.2 40.16C36.8027 40.16 37.3547 40.3227 37.856 40.648C38.3627 40.968 38.768 41.4267 39.072 42.024C39.376 42.6213 39.528 43.328 39.528 44.144C39.528 44.9653 39.3733 45.68 39.064 46.288C38.7547 46.8907 38.3413 47.36 37.824 47.696C37.3067 48.0267 36.7387 48.192 36.12 48.192ZM32.616 48V37.088H33.864V46.208L33.496 48H32.616ZM45.0284 48.192C44.3404 48.192 43.727 48.04 43.1884 47.736C42.655 47.432 42.2337 46.9813 41.9244 46.384C41.615 45.7867 41.4604 45.0507 41.4604 44.176C41.4604 43.296 41.615 42.56 41.9244 41.968C42.2337 41.3707 42.655 40.92 43.1884 40.616C43.727 40.312 44.3404 40.16 45.0284 40.16C45.711 40.16 46.319 40.312 46.8524 40.616C47.391 40.92 47.8124 41.3707 48.1164 41.968C48.4257 42.56 48.5804 43.296 48.5804 44.176C48.5804 45.0507 48.4257 45.7867 48.1164 46.384C47.8124 46.9813 47.391 47.432 46.8524 47.736C46.319 48.04 45.711 48.192 45.0284 48.192ZM44.9964 47.104C45.4924 47.104 45.9137 46.9867 46.2604 46.752C46.607 46.512 46.8684 46.1733 47.0444 45.736C47.2257 45.2987 47.3164 44.7787 47.3164 44.176C47.3164 43.264 47.127 42.5467 46.7484 42.024C46.3697 41.496 45.807 41.232 45.0604 41.232C44.559 41.232 44.135 41.352 43.7884 41.592C43.447 41.8267 43.1857 42.1653 43.0044 42.608C42.8284 43.0453 42.7404 43.568 42.7404 44.176C42.7404 45.0773 42.9297 45.792 43.3084 46.32C43.6924 46.8427 44.255 47.104 44.9964 47.104ZM53.9384 48.192C53.2504 48.192 52.637 48.04 52.0984 47.736C51.565 47.432 51.1437 46.9813 50.8344 46.384C50.525 45.7867 50.3704 45.0507 50.3704 44.176C50.3704 43.296 50.525 42.56 50.8344 41.968C51.1437 41.3707 51.565 40.92 52.0984 40.616C52.637 40.312 53.2504 40.16 53.9384 40.16C54.621 40.16 55.229 40.312 55.7624 40.616C56.301 40.92 56.7224 41.3707 57.0264 41.968C57.3357 42.56 57.4904 43.296 57.4904 44.176C57.4904 45.0507 57.3357 45.7867 57.0264 46.384C56.7224 46.9813 56.301 47.432 55.7624 47.736C55.229 48.04 54.621 48.192 53.9384 48.192ZM53.9064 47.104C54.4024 47.104 54.8237 46.9867 55.1704 46.752C55.517 46.512 55.7784 46.1733 55.9544 45.736C56.1357 45.2987 56.2264 44.7787 56.2264 44.176C56.2264 43.264 56.037 42.5467 55.6584 42.024C55.2797 41.496 54.717 41.232 53.9704 41.232C53.469 41.232 53.045 41.352 52.6984 41.592C52.357 41.8267 52.0957 42.1653 51.9144 42.608C51.7384 43.0453 51.6504 43.568 51.6504 44.176C51.6504 45.0773 51.8397 45.792 52.2184 46.32C52.6024 46.8427 53.165 47.104 53.9064 47.104ZM60.0804 48V37.088H61.3284V48H60.0804ZM61.1364 43.616L65.0404 40.352H66.7844L61.1364 44.944V43.616ZM65.4244 48L61.7924 43.168L63.0564 42.944L66.9604 48H65.4244ZM80.008 48V43.504C80.008 42.7733 79.832 42.2187 79.48 41.84C79.1333 41.456 78.664 41.264 78.072 41.264C77.3787 41.264 76.848 41.5333 76.48 42.072C76.112 42.6053 75.928 43.344 75.928 44.288H75.352C75.352 43.6 75.4187 42.9973 75.552 42.48C75.6907 41.9627 75.8907 41.5333 76.152 41.192C76.4133 40.8453 76.7307 40.5867 77.104 40.416C77.4773 40.2453 77.9013 40.16 78.376 40.16C78.9787 40.16 79.4933 40.296 79.92 40.568C80.352 40.8347 80.6827 41.2187 80.912 41.72C81.1413 42.2213 81.256 42.816 81.256 43.504V48H80.008ZM69.256 48V40.352H70.328L70.472 41.888C70.712 41.3333 71.048 40.9067 71.48 40.608C71.9173 40.3093 72.44 40.16 73.048 40.16C73.6507 40.16 74.1653 40.296 74.592 40.568C75.024 40.8347 75.3547 41.2187 75.584 41.72C75.8133 42.2213 75.928 42.816 75.928 43.504V48H74.696V43.504C74.696 42.7733 74.52 42.2187 74.168 41.84C73.8213 41.456 73.3467 41.264 72.744 41.264C72.2853 41.264 71.888 41.3893 71.552 41.64C71.216 41.8907 70.9573 42.2507 70.776 42.72C70.5947 43.184 70.504 43.7387 70.504 44.384V48H69.256ZM89.1207 48L88.9607 46.32V43.04C88.9607 42.352 88.8141 41.8587 88.5207 41.56C88.2274 41.256 87.7874 41.104 87.2007 41.104C86.8701 41.104 86.5687 41.152 86.2967 41.248C86.0301 41.344 85.8167 41.4933 85.6567 41.696C85.5021 41.8933 85.4247 42.1493 85.4247 42.464H84.0327C84.0327 41.9093 84.1687 41.464 84.4407 41.128C84.7127 40.7867 85.0861 40.5413 85.5607 40.392C86.0407 40.2373 86.5874 40.16 87.2007 40.16C87.7874 40.16 88.3074 40.2587 88.7607 40.456C89.2141 40.6533 89.5687 40.968 89.8247 41.4C90.0807 41.8267 90.2087 42.384 90.2087 43.072V48H89.1207ZM86.5127 48.192C85.8834 48.192 85.3634 48.08 84.9527 47.856C84.5421 47.632 84.2354 47.3413 84.0327 46.984C83.8301 46.6267 83.7287 46.2507 83.7287 45.856C83.7287 45.3387 83.8567 44.9173 84.1127 44.592C84.3741 44.2667 84.7287 44.0293 85.1767 43.88C85.6247 43.7253 86.1287 43.648 86.6887 43.648C87.0887 43.648 87.4887 43.688 87.8887 43.768C88.2941 43.848 88.6887 43.9573 89.0727 44.096V44.88C88.7527 44.752 88.3901 44.6507 87.9847 44.576C87.5847 44.5013 87.2167 44.464 86.8807 44.464C86.3687 44.464 85.9367 44.5707 85.5847 44.784C85.2327 44.992 85.0567 45.3493 85.0567 45.856C85.0567 46.2293 85.1901 46.5493 85.4567 46.816C85.7287 47.0827 86.1607 47.216 86.7527 47.216C87.1687 47.216 87.5421 47.12 87.8727 46.928C88.2087 46.7307 88.4727 46.4853 88.6647 46.192C88.8621 45.8987 88.9607 45.6053 88.9607 45.312H89.2647C89.2647 45.824 89.1527 46.2987 88.9287 46.736C88.7101 47.1733 88.3954 47.5253 87.9847 47.792C87.5741 48.0587 87.0834 48.192 86.5127 48.192ZM93.3572 48V40.336H94.6052V48H93.3572ZM94.2212 44.544C94.2212 43.5733 94.3146 42.768 94.5012 42.128C94.6879 41.4827 94.9599 41.0027 95.3172 40.688C95.6799 40.368 96.1199 40.208 96.6372 40.208C96.8079 40.208 96.9626 40.2213 97.1012 40.248C97.2452 40.2693 97.3892 40.304 97.5332 40.352L97.4532 41.584C97.3039 41.536 97.1412 41.496 96.9652 41.464C96.7892 41.4267 96.6319 41.408 96.4932 41.408C96.0399 41.408 95.6746 41.5387 95.3972 41.8C95.1199 42.056 94.9172 42.4187 94.7892 42.888C94.6666 43.3573 94.6052 43.9093 94.6052 44.544H94.2212ZM99.2985 48V37.088H100.547V48H99.2985ZM100.355 43.616L104.259 40.352H106.003L100.355 44.944V43.616ZM104.643 48L101.011 43.168L102.275 42.944L106.179 48H104.643ZM112.303 48V37.616H118.847V39.248H114.191V41.984H118.447V43.6H114.191V48H112.303ZM119.03 48L122.566 37.616H124.934L128.326 48H126.342L125.622 45.76H121.766L121.03 48H119.03ZM122.246 44.336H125.174L123.718 39.872L122.246 44.336ZM133.058 45.936L135.714 37.616H137.698L134.13 48H132.146L128.626 37.616H130.626L133.25 45.936H133.058ZM143.345 48.224C142.422 48.224 141.606 48.0213 140.897 47.616C140.193 47.2107 139.641 46.6053 139.241 45.8C138.841 44.9947 138.641 43.9947 138.641 42.8C138.641 41.584 138.841 40.5787 139.241 39.784C139.641 38.984 140.193 38.3893 140.897 38C141.606 37.6053 142.422 37.408 143.345 37.408C144.273 37.408 145.091 37.6107 145.801 38.016C146.51 38.416 147.065 39.016 147.465 39.816C147.865 40.616 148.065 41.6107 148.065 42.8C148.065 44.0107 147.865 45.0187 147.465 45.824C147.065 46.6293 146.51 47.232 145.801 47.632C145.091 48.0267 144.273 48.224 143.345 48.224ZM143.345 46.512C144.193 46.512 144.865 46.192 145.361 45.552C145.862 44.912 146.113 43.9893 146.113 42.784C146.113 41.6213 145.862 40.7173 145.361 40.072C144.865 39.4267 144.193 39.104 143.345 39.104C142.513 39.104 141.846 39.4293 141.345 40.08C140.843 40.7253 140.593 41.632 140.593 42.8C140.593 44 140.843 44.92 141.345 45.56C141.846 46.1947 142.513 46.512 143.345 46.512ZM150.299 37.616H152.187V44.08C152.187 44.9333 152.403 45.5493 152.835 45.928C153.272 46.3067 153.829 46.496 154.507 46.496C155.189 46.496 155.747 46.3067 156.179 45.928C156.611 45.5493 156.827 44.9333 156.827 44.08V37.616H158.715V44.08C158.715 44.9547 158.547 45.7013 158.211 46.32C157.875 46.9387 157.392 47.4107 156.763 47.736C156.139 48.0613 155.387 48.224 154.507 48.224C153.627 48.224 152.872 48.0613 152.243 47.736C151.619 47.4107 151.139 46.9387 150.803 46.32C150.467 45.7013 150.299 44.9547 150.299 44.08V37.616ZM161.666 48V37.616H165.506C166.748 37.616 167.7 37.9067 168.362 38.488C169.028 39.0693 169.362 39.84 169.362 40.8C169.362 41.744 169.028 42.5067 168.362 43.088C167.7 43.664 166.748 43.952 165.506 43.952H163.554V48H161.666ZM167.282 48L164.53 43.136H166.546L169.746 48H167.282ZM163.554 42.688H165.314C166.007 42.688 166.532 42.5307 166.89 42.216C167.247 41.896 167.426 41.4827 167.426 40.976C167.426 40.4587 167.263 40.0427 166.938 39.728C166.612 39.408 166.135 39.248 165.506 39.248H163.554V42.688ZM172.122 48V37.616H174.01V48H172.122ZM175.765 39.248V37.616H184.085V39.248H180.445L180.869 38.816V48H178.981V38.816L179.405 39.248H175.765ZM185.801 48V37.616H192.473V39.248H187.689V41.984H192.185V43.616H187.689V46.352H192.473V48H185.801ZM203.351 48.224C202.439 48.224 201.644 48.008 200.967 47.576C200.295 47.1387 199.772 46.5147 199.399 45.704C199.026 44.8933 198.839 43.92 198.839 42.784C198.839 41.6107 199.031 40.6267 199.415 39.832C199.804 39.032 200.338 38.4293 201.015 38.024C201.698 37.6133 202.476 37.408 203.351 37.408C204.562 37.408 205.506 37.7013 206.183 38.288C206.866 38.8747 207.303 39.6373 207.495 40.576L205.479 40.944C205.314 40.4 205.05 39.96 204.687 39.624C204.324 39.288 203.879 39.12 203.351 39.12C202.887 39.12 202.468 39.256 202.095 39.528C201.722 39.7947 201.423 40.2 201.199 40.744C200.98 41.288 200.871 41.968 200.871 42.784C200.871 43.552 200.967 44.2133 201.159 44.768C201.356 45.3227 201.639 45.7493 202.007 46.048C202.375 46.3467 202.823 46.496 203.351 46.496C204.028 46.496 204.551 46.3173 204.919 45.96C205.292 45.5973 205.479 45.136 205.479 44.576H207.495C207.495 45.3493 207.327 46.008 206.991 46.552C206.66 47.0907 206.186 47.504 205.567 47.792C204.948 48.08 204.21 48.224 203.351 48.224ZM208.739 48L212.275 37.616H214.643L218.035 48H216.051L215.331 45.76H211.475L210.739 48H208.739ZM211.955 44.336H214.883L213.427 39.872L211.955 44.336ZM226.051 37.616H228.643L221.795 44.624V42.048L226.051 37.616ZM223.747 41.904L228.931 48H226.499L222.435 43.136L223.747 41.904ZM220.051 37.616H221.955V48H220.051V37.616ZM230.664 48V37.616H237.336V39.248H232.552V41.984H237.048V43.616H232.552V46.352H237.336V48H230.664ZM244.437 48V37.616H248.277C249.52 37.616 250.472 37.9067 251.133 38.488C251.8 39.0693 252.133 39.84 252.133 40.8C252.133 41.744 251.8 42.5067 251.133 43.088C250.472 43.664 249.52 43.952 248.277 43.952H246.325V48H244.437ZM250.053 48L247.301 43.136H249.317L252.517 48H250.053ZM246.325 42.688H248.085C248.779 42.688 249.304 42.5307 249.661 42.216C250.019 41.896 250.197 41.4827 250.197 40.976C250.197 40.4587 250.035 40.0427 249.709 39.728C249.384 39.408 248.907 39.248 248.277 39.248H246.325V42.688ZM254.878 48V37.616H261.55V39.248H256.766V41.984H261.262V43.616H256.766V46.352H261.55V48H254.878ZM268.221 48.224C267.309 48.224 266.514 48.008 265.837 47.576C265.165 47.1387 264.642 46.5147 264.269 45.704C263.896 44.8933 263.709 43.92 263.709 42.784C263.709 41.6107 263.901 40.6267 264.285 39.832C264.674 39.032 265.208 38.4293 265.885 38.024C266.568 37.6133 267.346 37.408 268.221 37.408C269.432 37.408 270.376 37.7013 271.053 38.288C271.736 38.8747 272.173 39.6373 272.365 40.576L270.349 40.944C270.184 40.4 269.92 39.96 269.557 39.624C269.194 39.288 268.749 39.12 268.221 39.12C267.757 39.12 267.338 39.256 266.965 39.528C266.592 39.7947 266.293 40.2 266.069 40.744C265.85 41.288 265.741 41.968 265.741 42.784C265.741 43.552 265.837 44.2133 266.029 44.768C266.226 45.3227 266.509 45.7493 266.877 46.048C267.245 46.3467 267.693 46.496 268.221 46.496C268.898 46.496 269.421 46.3173 269.789 45.96C270.162 45.5973 270.349 45.136 270.349 44.576H272.365C272.365 45.3493 272.197 46.008 271.861 46.552C271.53 47.0907 271.056 47.504 270.437 47.792C269.818 48.08 269.08 48.224 268.221 48.224ZM274.746 48V37.616H276.634V48H274.746ZM279.732 48V37.616H283.396C284.564 37.616 285.474 37.904 286.124 38.48C286.78 39.056 287.108 39.872 287.108 40.928C287.108 41.9733 286.78 42.784 286.124 43.36C285.474 43.936 284.564 44.224 283.396 44.224H281.636V48H279.732ZM281.636 42.576H283.396C283.983 42.576 284.426 42.4213 284.724 42.112C285.023 41.8027 285.172 41.408 285.172 40.928C285.172 40.4373 285.023 40.0347 284.724 39.72C284.426 39.4053 283.983 39.248 283.396 39.248H281.636V42.576ZM289.206 48V37.616H295.878V39.248H291.094V41.984H295.59V43.616H291.094V46.352H295.878V48H289.206ZM33.32 58.544C33.064 58.544 32.8613 58.472 32.712 58.328C32.5627 58.1787 32.488 57.984 32.488 57.744C32.488 57.5093 32.5627 57.3227 32.712 57.184C32.8613 57.0453 33.064 56.976 33.32 56.976C33.576 56.976 33.7787 57.0453 33.928 57.184C34.0773 57.3227 34.152 57.5093 34.152 57.744C34.152 57.984 34.0773 58.1787 33.928 58.328C33.7787 58.472 33.576 58.544 33.32 58.544ZM32.696 68V60.336H33.944V68H32.696ZM42.9816 68V63.504C42.9816 62.7733 42.8056 62.2187 42.4536 61.84C42.107 61.456 41.6323 61.264 41.0296 61.264C40.571 61.264 40.1736 61.3893 39.8376 61.64C39.5016 61.8907 39.243 62.2507 39.0616 62.72C38.8803 63.184 38.7896 63.7387 38.7896 64.384H38.3096C38.3096 63.4933 38.427 62.7333 38.6616 62.104C38.8963 61.4747 39.2376 60.9947 39.6856 60.664C40.139 60.328 40.6883 60.16 41.3336 60.16C41.9363 60.16 42.451 60.296 42.8776 60.568C43.3096 60.8347 43.6403 61.2187 43.8696 61.72C44.099 62.2213 44.2136 62.816 44.2136 63.504V68H42.9816ZM37.5416 68V60.352H38.6136L38.7896 62.112V68H37.5416ZM50.0507 60.352H51.4427L53.9387 66.912H53.6507L55.5868 60.352H56.8667L53.9867 69.536C53.7467 70.304 53.4267 70.896 53.0267 71.312C52.6267 71.728 52.1147 71.936 51.4907 71.936C51.1547 71.936 50.8347 71.888 50.5307 71.792C50.2321 71.696 49.9227 71.5573 49.6027 71.376V70.224C49.8854 70.448 50.1574 70.608 50.4187 70.704C50.6854 70.8 50.9627 70.848 51.2507 70.848C51.5707 70.848 51.8374 70.7467 52.0507 70.544C52.2694 70.3413 52.4507 70.08 52.5947 69.76C52.7387 69.4453 52.8614 69.1147 52.9627 68.768L53.1867 68L50.0507 60.352ZM61.6959 68.192C61.0079 68.192 60.3945 68.04 59.8559 67.736C59.3225 67.432 58.9012 66.9813 58.5919 66.384C58.2825 65.7867 58.1279 65.0507 58.1279 64.176C58.1279 63.296 58.2825 62.56 58.5919 61.968C58.9012 61.3707 59.3225 60.92 59.8559 60.616C60.3945 60.312 61.0079 60.16 61.6959 60.16C62.3785 60.16 62.9865 60.312 63.5199 60.616C64.0585 60.92 64.4799 61.3707 64.7839 61.968C65.0932 62.56 65.2479 63.296 65.2479 64.176C65.2479 65.0507 65.0932 65.7867 64.7839 66.384C64.4799 66.9813 64.0585 67.432 63.5199 67.736C62.9865 68.04 62.3785 68.192 61.6959 68.192ZM61.6639 67.104C62.1599 67.104 62.5812 66.9867 62.9279 66.752C63.2745 66.512 63.5359 66.1733 63.7119 65.736C63.8932 65.2987 63.9839 64.7787 63.9839 64.176C63.9839 63.264 63.7945 62.5467 63.4159 62.024C63.0372 61.496 62.4745 61.232 61.7279 61.232C61.2265 61.232 60.8025 61.352 60.4559 61.592C60.1145 61.8267 59.8532 62.1653 59.6719 62.608C59.4959 63.0453 59.4079 63.568 59.4079 64.176C59.4079 65.0773 59.5972 65.792 59.9759 66.32C60.3599 66.8427 60.9225 67.104 61.6639 67.104ZM73.0379 60.336H74.2859V68H73.0379V60.336ZM67.6139 60.336H68.8619V65.104C68.8619 65.744 69.0165 66.2293 69.3259 66.56C69.6405 66.8907 70.0885 67.056 70.6699 67.056C71.1499 67.056 71.5659 66.928 71.9179 66.672C72.2752 66.416 72.5499 66.064 72.7419 65.616C72.9392 65.1627 73.0379 64.6453 73.0379 64.064H73.5019C73.5019 64.9227 73.3765 65.656 73.1259 66.264C72.8805 66.872 72.5312 67.3387 72.0779 67.664C71.6299 67.984 71.1019 68.144 70.4939 68.144C69.9179 68.144 69.4139 68.0373 68.9819 67.824C68.5499 67.6107 68.2139 67.288 67.9739 66.856C67.7339 66.4187 67.6139 65.8667 67.6139 65.2V60.336ZM77.6854 68V60.336H78.9334V68H77.6854ZM78.5494 64.544C78.5494 63.5733 78.6427 62.768 78.8294 62.128C79.016 61.4827 79.288 61.0027 79.6454 60.688C80.008 60.368 80.448 60.208 80.9654 60.208C81.136 60.208 81.2907 60.2213 81.4294 60.248C81.5734 60.2693 81.7174 60.304 81.8614 60.352L81.7814 61.584C81.632 61.536 81.4694 61.496 81.2934 61.464C81.1174 61.4267 80.96 61.408 80.8214 61.408C80.368 61.408 80.0027 61.5387 79.7254 61.8C79.448 62.056 79.2454 62.4187 79.1174 62.888C78.9947 63.3573 78.9334 63.9093 78.9334 64.544H78.5494ZM91.0875 68.192C90.5755 68.192 90.1115 68.0587 89.6955 67.792C89.2848 67.5253 88.9568 67.136 88.7115 66.624C88.4715 66.1067 88.3515 65.4773 88.3515 64.736H88.8315C88.8315 65.232 88.9328 65.656 89.1355 66.008C89.3435 66.3547 89.6102 66.6187 89.9355 66.8C90.2608 66.9813 90.6022 67.072 90.9595 67.072C91.3702 67.072 91.7462 66.9547 92.0875 66.72C92.4288 66.4853 92.7008 66.1493 92.9035 65.712C93.1115 65.2747 93.2155 64.752 93.2155 64.144C93.2155 63.5467 93.1142 63.0347 92.9115 62.608C92.7088 62.176 92.4342 61.8453 92.0875 61.616C91.7462 61.3813 91.3648 61.264 90.9435 61.264C90.5808 61.264 90.2368 61.3547 89.9115 61.536C89.5915 61.712 89.3302 61.9733 89.1275 62.32C88.9302 62.6667 88.8315 63.0933 88.8315 63.6H88.3515C88.3515 62.8747 88.4688 62.256 88.7035 61.744C88.9435 61.232 89.2742 60.84 89.6955 60.568C90.1168 60.296 90.6075 60.16 91.1675 60.16C91.7702 60.16 92.3222 60.3227 92.8235 60.648C93.3302 60.968 93.7355 61.4267 94.0395 62.024C94.3435 62.6213 94.4955 63.328 94.4955 64.144C94.4955 64.9653 94.3408 65.68 94.0315 66.288C93.7222 66.8907 93.3088 67.36 92.7915 67.696C92.2742 68.0267 91.7062 68.192 91.0875 68.192ZM87.5835 68V57.088H88.8315V66.208L88.4635 68H87.5835ZM99.9959 68.192C99.3079 68.192 98.6945 68.04 98.1559 67.736C97.6225 67.432 97.2012 66.9813 96.8919 66.384C96.5825 65.7867 96.4279 65.0507 96.4279 64.176C96.4279 63.296 96.5825 62.56 96.8919 61.968C97.2012 61.3707 97.6225 60.92 98.1559 60.616C98.6945 60.312 99.3079 60.16 99.9959 60.16C100.679 60.16 101.287 60.312 101.82 60.616C102.359 60.92 102.78 61.3707 103.084 61.968C103.393 62.56 103.548 63.296 103.548 64.176C103.548 65.0507 103.393 65.7867 103.084 66.384C102.78 66.9813 102.359 67.432 101.82 67.736C101.287 68.04 100.679 68.192 99.9959 68.192ZM99.9639 67.104C100.46 67.104 100.881 66.9867 101.228 66.752C101.575 66.512 101.836 66.1733 102.012 65.736C102.193 65.2987 102.284 64.7787 102.284 64.176C102.284 63.264 102.095 62.5467 101.716 62.024C101.337 61.496 100.775 61.232 100.028 61.232C99.5265 61.232 99.1025 61.352 98.7559 61.592C98.4145 61.8267 98.1532 62.1653 97.9719 62.608C97.7959 63.0453 97.7079 63.568 97.7079 64.176C97.7079 65.0773 97.8972 65.792 98.2759 66.32C98.6599 66.8427 99.2225 67.104 99.9639 67.104ZM108.906 68.192C108.218 68.192 107.605 68.04 107.066 67.736C106.533 67.432 106.111 66.9813 105.802 66.384C105.493 65.7867 105.338 65.0507 105.338 64.176C105.338 63.296 105.493 62.56 105.802 61.968C106.111 61.3707 106.533 60.92 107.066 60.616C107.605 60.312 108.218 60.16 108.906 60.16C109.589 60.16 110.197 60.312 110.73 60.616C111.269 60.92 111.69 61.3707 111.994 61.968C112.303 62.56 112.458 63.296 112.458 64.176C112.458 65.0507 112.303 65.7867 111.994 66.384C111.69 66.9813 111.269 67.432 110.73 67.736C110.197 68.04 109.589 68.192 108.906 68.192ZM108.874 67.104C109.37 67.104 109.791 66.9867 110.138 66.752C110.485 66.512 110.746 66.1733 110.922 65.736C111.103 65.2987 111.194 64.7787 111.194 64.176C111.194 63.264 111.005 62.5467 110.626 62.024C110.247 61.496 109.685 61.232 108.938 61.232C108.437 61.232 108.013 61.352 107.666 61.592C107.325 61.8267 107.063 62.1653 106.882 62.608C106.706 63.0453 106.618 63.568 106.618 64.176C106.618 65.0773 106.807 65.792 107.186 66.32C107.57 66.8427 108.133 67.104 108.874 67.104ZM115.048 68V57.088H116.296V68H115.048ZM116.104 63.616L120.008 60.352H121.752L116.104 64.944V63.616ZM120.392 68L116.76 63.168L118.024 62.944L121.928 68H120.392ZM134.975 68V63.504C134.975 62.7733 134.799 62.2187 134.447 61.84C134.101 61.456 133.631 61.264 133.039 61.264C132.346 61.264 131.815 61.5333 131.447 62.072C131.079 62.6053 130.895 63.344 130.895 64.288H130.319C130.319 63.6 130.386 62.9973 130.519 62.48C130.658 61.9627 130.858 61.5333 131.119 61.192C131.381 60.8453 131.698 60.5867 132.071 60.416C132.445 60.2453 132.869 60.16 133.343 60.16C133.946 60.16 134.461 60.296 134.887 60.568C135.319 60.8347 135.65 61.2187 135.879 61.72C136.109 62.2213 136.223 62.816 136.223 63.504V68H134.975ZM124.223 68V60.352H125.295L125.439 61.888C125.679 61.3333 126.015 60.9067 126.447 60.608C126.885 60.3093 127.407 60.16 128.015 60.16C128.618 60.16 129.133 60.296 129.559 60.568C129.991 60.8347 130.322 61.2187 130.551 61.72C130.781 62.2213 130.895 62.816 130.895 63.504V68H129.663V63.504C129.663 62.7733 129.487 62.2187 129.135 61.84C128.789 61.456 128.314 61.264 127.711 61.264C127.253 61.264 126.855 61.3893 126.519 61.64C126.183 61.8907 125.925 62.2507 125.743 62.72C125.562 63.184 125.471 63.7387 125.471 64.384V68H124.223ZM144.088 68L143.928 66.32V63.04C143.928 62.352 143.782 61.8587 143.488 61.56C143.195 61.256 142.755 61.104 142.168 61.104C141.838 61.104 141.536 61.152 141.264 61.248C140.998 61.344 140.784 61.4933 140.624 61.696C140.47 61.8933 140.392 62.1493 140.392 62.464H139C139 61.9093 139.136 61.464 139.408 61.128C139.68 60.7867 140.054 60.5413 140.528 60.392C141.008 60.2373 141.555 60.16 142.168 60.16C142.755 60.16 143.275 60.2587 143.728 60.456C144.182 60.6533 144.536 60.968 144.792 61.4C145.048 61.8267 145.176 62.384 145.176 63.072V68H144.088ZM141.48 68.192C140.851 68.192 140.331 68.08 139.92 67.856C139.51 67.632 139.203 67.3413 139 66.984C138.798 66.6267 138.696 66.2507 138.696 65.856C138.696 65.3387 138.824 64.9173 139.08 64.592C139.342 64.2667 139.696 64.0293 140.144 63.88C140.592 63.7253 141.096 63.648 141.656 63.648C142.056 63.648 142.456 63.688 142.856 63.768C143.262 63.848 143.656 63.9573 144.04 64.096V64.88C143.72 64.752 143.358 64.6507 142.952 64.576C142.552 64.5013 142.184 64.464 141.848 64.464C141.336 64.464 140.904 64.5707 140.552 64.784C140.2 64.992 140.024 65.3493 140.024 65.856C140.024 66.2293 140.158 66.5493 140.424 66.816C140.696 67.0827 141.128 67.216 141.72 67.216C142.136 67.216 142.51 67.12 142.84 66.928C143.176 66.7307 143.44 66.4853 143.632 66.192C143.83 65.8987 143.928 65.6053 143.928 65.312H144.232C144.232 65.824 144.12 66.2987 143.896 66.736C143.678 67.1733 143.363 67.5253 142.952 67.792C142.542 68.0587 142.051 68.192 141.48 68.192ZM148.325 68V60.336H149.573V68H148.325ZM149.189 64.544C149.189 63.5733 149.282 62.768 149.469 62.128C149.655 61.4827 149.927 61.0027 150.285 60.688C150.647 60.368 151.087 60.208 151.605 60.208C151.775 60.208 151.93 60.2213 152.069 60.248C152.213 60.2693 152.357 60.304 152.501 60.352L152.421 61.584C152.271 61.536 152.109 61.496 151.933 61.464C151.757 61.4267 151.599 61.408 151.461 61.408C151.007 61.408 150.642 61.5387 150.365 61.8C150.087 62.056 149.885 62.4187 149.757 62.888C149.634 63.3573 149.573 63.9093 149.573 64.544H149.189ZM154.266 68V57.088H155.514V68H154.266ZM155.322 63.616L159.226 60.352H160.97L155.322 64.944V63.616ZM159.61 68L155.978 63.168L157.242 62.944L161.146 68H159.61ZM170.087 68.192C169.473 68.192 168.9 68.0267 168.367 67.696C167.839 67.3653 167.412 66.8987 167.087 66.296C166.761 65.6933 166.599 64.9813 166.599 64.16C166.599 63.3173 166.761 62.5973 167.087 62C167.412 61.4027 167.839 60.9467 168.367 60.632C168.9 60.3173 169.473 60.16 170.087 60.16C170.519 60.16 170.905 60.2267 171.247 60.36C171.593 60.488 171.895 60.6667 172.151 60.896C172.407 61.1253 172.617 61.3867 172.783 61.68C172.953 61.968 173.079 62.272 173.159 62.592L171.879 62.704C171.745 62.2613 171.521 61.912 171.207 61.656C170.897 61.3947 170.519 61.264 170.071 61.264C169.692 61.264 169.335 61.3733 168.999 61.592C168.668 61.8053 168.399 62.128 168.191 62.56C167.983 62.9867 167.879 63.52 167.879 64.16C167.879 64.752 167.972 65.2667 168.159 65.704C168.351 66.136 168.612 66.472 168.943 66.712C169.273 66.952 169.649 67.072 170.071 67.072C170.663 67.072 171.111 66.928 171.415 66.64C171.724 66.3467 171.879 65.9413 171.879 65.424H173.159C173.159 65.9573 173.033 66.432 172.783 66.848C172.532 67.264 172.175 67.592 171.711 67.832C171.252 68.072 170.711 68.192 170.087 68.192ZM178.577 68.192C177.889 68.192 177.275 68.04 176.737 67.736C176.203 67.432 175.782 66.9813 175.473 66.384C175.163 65.7867 175.009 65.0507 175.009 64.176C175.009 63.296 175.163 62.56 175.473 61.968C175.782 61.3707 176.203 60.92 176.737 60.616C177.275 60.312 177.889 60.16 178.577 60.16C179.259 60.16 179.867 60.312 180.401 60.616C180.939 60.92 181.361 61.3707 181.665 61.968C181.974 62.56 182.129 63.296 182.129 64.176C182.129 65.0507 181.974 65.7867 181.665 66.384C181.361 66.9813 180.939 67.432 180.401 67.736C179.867 68.04 179.259 68.192 178.577 68.192ZM178.545 67.104C179.041 67.104 179.462 66.9867 179.809 66.752C180.155 66.512 180.417 66.1733 180.593 65.736C180.774 65.2987 180.865 64.7787 180.865 64.176C180.865 63.264 180.675 62.5467 180.297 62.024C179.918 61.496 179.355 61.232 178.609 61.232C178.107 61.232 177.683 61.352 177.337 61.592C176.995 61.8267 176.734 62.1653 176.553 62.608C176.377 63.0453 176.289 63.568 176.289 64.176C176.289 65.0773 176.478 65.792 176.857 66.32C177.241 66.8427 177.803 67.104 178.545 67.104ZM184.718 68V57.088H185.966V68H184.718ZM189.363 68V57.088H190.611V68H189.363ZM196.663 68.192C196.002 68.192 195.41 68.024 194.887 67.688C194.37 67.3467 193.959 66.8747 193.655 66.272C193.357 65.6693 193.207 64.976 193.207 64.192C193.207 63.3547 193.357 62.6347 193.655 62.032C193.954 61.4293 194.362 60.968 194.879 60.648C195.402 60.3227 195.997 60.16 196.663 60.16C197.245 60.16 197.741 60.2773 198.151 60.512C198.562 60.7467 198.893 61.064 199.143 61.464C199.394 61.864 199.567 62.3173 199.663 62.824C199.765 63.3253 199.794 63.8453 199.751 64.384H194.215V63.616H198.927L198.559 63.856C198.575 63.5413 198.557 63.2267 198.503 62.912C198.455 62.5973 198.362 62.3093 198.223 62.048C198.085 61.7813 197.89 61.568 197.639 61.408C197.389 61.248 197.069 61.168 196.679 61.168C196.189 61.168 195.778 61.2933 195.447 61.544C195.117 61.7947 194.869 62.1253 194.703 62.536C194.538 62.9413 194.455 63.3813 194.455 63.856V64.368C194.455 64.9013 194.535 65.3787 194.695 65.8C194.861 66.2213 195.106 66.5547 195.431 66.8C195.757 67.0453 196.167 67.168 196.663 67.168C197.159 67.168 197.567 67.048 197.887 66.808C198.207 66.568 198.402 66.2133 198.471 65.744H199.767C199.687 66.2507 199.506 66.688 199.223 67.056C198.941 67.4187 198.581 67.6987 198.143 67.896C197.706 68.0933 197.213 68.192 196.663 68.192ZM205.074 68.192C204.461 68.192 203.887 68.0267 203.354 67.696C202.826 67.3653 202.399 66.8987 202.074 66.296C201.749 65.6933 201.586 64.9813 201.586 64.16C201.586 63.3173 201.749 62.5973 202.074 62C202.399 61.4027 202.826 60.9467 203.354 60.632C203.887 60.3173 204.461 60.16 205.074 60.16C205.506 60.16 205.893 60.2267 206.234 60.36C206.581 60.488 206.882 60.6667 207.138 60.896C207.394 61.1253 207.605 61.3867 207.77 61.68C207.941 61.968 208.066 62.272 208.146 62.592L206.866 62.704C206.733 62.2613 206.509 61.912 206.194 61.656C205.885 61.3947 205.506 61.264 205.058 61.264C204.679 61.264 204.322 61.3733 203.986 61.592C203.655 61.8053 203.386 62.128 203.178 62.56C202.97 62.9867 202.866 63.52 202.866 64.16C202.866 64.752 202.959 65.2667 203.146 65.704C203.338 66.136 203.599 66.472 203.93 66.712C204.261 66.952 204.637 67.072 205.058 67.072C205.65 67.072 206.098 66.928 206.402 66.64C206.711 66.3467 206.866 65.9413 206.866 65.424H208.146C208.146 65.9573 208.021 66.432 207.77 66.848C207.519 67.264 207.162 67.592 206.698 67.832C206.239 68.072 205.698 68.192 205.074 68.192ZM213.148 68.192C212.732 68.192 212.359 68.112 212.028 67.952C211.697 67.792 211.436 67.552 211.244 67.232C211.052 66.912 210.956 66.512 210.956 66.032V58.224H212.188V66C212.188 66.7893 212.556 67.184 213.292 67.184C213.511 67.184 213.721 67.16 213.924 67.112C214.132 67.064 214.364 66.992 214.62 66.896L214.796 67.792C214.524 67.9093 214.252 68.0053 213.98 68.08C213.713 68.1547 213.436 68.192 213.148 68.192ZM209.724 61.216V60.352H214.604V61.216H209.724ZM217.676 58.544C217.42 58.544 217.217 58.472 217.068 58.328C216.918 58.1787 216.844 57.984 216.844 57.744C216.844 57.5093 216.918 57.3227 217.068 57.184C217.217 57.0453 217.42 56.976 217.676 56.976C217.932 56.976 218.134 57.0453 218.284 57.184C218.433 57.3227 218.508 57.5093 218.508 57.744C218.508 57.984 218.433 58.1787 218.284 58.328C218.134 58.472 217.932 58.544 217.676 58.544ZM217.052 68V60.336H218.3V68H217.052ZM224.665 68.192C223.977 68.192 223.364 68.04 222.825 67.736C222.292 67.432 221.871 66.9813 221.561 66.384C221.252 65.7867 221.097 65.0507 221.097 64.176C221.097 63.296 221.252 62.56 221.561 61.968C221.871 61.3707 222.292 60.92 222.825 60.616C223.364 60.312 223.977 60.16 224.665 60.16C225.348 60.16 225.956 60.312 226.489 60.616C227.028 60.92 227.449 61.3707 227.753 61.968C228.063 62.56 228.217 63.296 228.217 64.176C228.217 65.0507 228.063 65.7867 227.753 66.384C227.449 66.9813 227.028 67.432 226.489 67.736C225.956 68.04 225.348 68.192 224.665 68.192ZM224.633 67.104C225.129 67.104 225.551 66.9867 225.897 66.752C226.244 66.512 226.505 66.1733 226.681 65.736C226.863 65.2987 226.953 64.7787 226.953 64.176C226.953 63.264 226.764 62.5467 226.385 62.024C226.007 61.496 225.444 61.232 224.697 61.232C224.196 61.232 223.772 61.352 223.425 61.592C223.084 61.8267 222.823 62.1653 222.641 62.608C222.465 63.0453 222.377 63.568 222.377 64.176C222.377 65.0773 222.567 65.792 222.945 66.32C223.329 66.8427 223.892 67.104 224.633 67.104ZM236.247 68V63.504C236.247 62.7733 236.071 62.2187 235.719 61.84C235.373 61.456 234.898 61.264 234.295 61.264C233.837 61.264 233.439 61.3893 233.103 61.64C232.767 61.8907 232.509 62.2507 232.327 62.72C232.146 63.184 232.055 63.7387 232.055 64.384H231.575C231.575 63.4933 231.693 62.7333 231.927 62.104C232.162 61.4747 232.503 60.9947 232.951 60.664C233.405 60.328 233.954 60.16 234.599 60.16C235.202 60.16 235.717 60.296 236.143 60.568C236.575 60.8347 236.906 61.2187 237.135 61.72C237.365 62.2213 237.479 62.816 237.479 63.504V68H236.247ZM230.807 68V60.352H231.879L232.055 62.112V68H230.807Z" fill="#333333"/>
<path d="M20.3681 83.1281L20.7313 82.4152L20.3681 83.1281ZM16.8719 79.6319L16.1591 79.9951L16.8719 79.6319ZM311.128 79.6319L311.841 79.9951L311.128 79.6319ZM307.632 83.1281L307.995 83.8409L307.632 83.1281ZM307.632 2.87195L307.995 2.15914L307.632 2.87195ZM311.128 6.36808L311.841 6.00488L311.128 6.36808ZM20.3681 2.87195L20.0049 2.15914L20.3681 2.87195ZM16.8719 6.36808L16.1591 6.00488L16.8719 6.36808ZM28.8 2.8H299.2V1.2H28.8V2.8ZM311.2 14.8V71.2H312.8V14.8H311.2ZM299.2 83.2H28.8V84.8H299.2V83.2ZM16.8 71.2V14.8H15.2V71.2H16.8ZM28.8 83.2C26.5466 83.2 24.9046 83.1994 23.6108 83.0937C22.3262 82.9887 21.4553 82.7842 20.7313 82.4152L20.0049 83.8409C20.9921 84.3439 22.097 84.5753 23.4805 84.6883C24.8546 84.8006 26.573 84.8 28.8 84.8V83.2ZM15.2 71.2C15.2 73.427 15.1994 75.1454 15.3117 76.5195C15.4247 77.903 15.6561 79.0079 16.1591 79.9951L17.5848 79.2687C17.2158 78.5447 17.0113 77.6738 16.9063 76.3892C16.8006 75.0954 16.8 73.4534 16.8 71.2H15.2ZM20.7313 82.4152C19.3765 81.725 18.275 80.6235 17.5848 79.2687L16.1591 79.9951C17.0028 81.6509 18.3491 82.9972 20.0049 83.8409L20.7313 82.4152ZM311.2 71.2C311.2 73.4534 311.199 75.0954 311.094 76.3892C310.989 77.6738 310.784 78.5447 310.415 79.2687L311.841 79.9951C312.344 79.0079 312.575 77.903 312.688 76.5195C312.801 75.1454 312.8 73.427 312.8 71.2H311.2ZM299.2 84.8C301.427 84.8 303.145 84.8006 304.52 84.6883C305.903 84.5753 307.008 84.3439 307.995 83.8409L307.269 82.4152C306.545 82.7842 305.674 82.9887 304.389 83.0937C303.095 83.1994 301.453 83.2 299.2 83.2V84.8ZM310.415 79.2687C309.725 80.6235 308.623 81.725 307.269 82.4152L307.995 83.8409C309.651 82.9972 310.997 81.6509 311.841 79.9951L310.415 79.2687ZM299.2 2.8C301.453 2.8 303.095 2.80062 304.389 2.90634C305.674 3.01129 306.545 3.21582 307.269 3.58475L307.995 2.15914C307.008 1.65613 305.903 1.42469 304.52 1.31165C303.145 1.19938 301.427 1.2 299.2 1.2V2.8ZM312.8 14.8C312.8 12.573 312.801 10.8546 312.688 9.48047C312.575 8.09698 312.344 6.9921 311.841 6.00488L310.415 6.73127C310.784 7.45534 310.989 8.32622 311.094 9.61076C311.199 10.9046 311.2 12.5466 311.2 14.8H312.8ZM307.269 3.58475C308.623 4.27504 309.725 5.3765 310.415 6.73127L311.841 6.00488C310.997 4.34906 309.651 3.00283 307.995 2.15914L307.269 3.58475ZM28.8 1.2C26.573 1.2 24.8546 1.19938 23.4805 1.31165C22.097 1.42469 20.9921 1.65613 20.0049 2.15914L20.7313 3.58475C21.4553 3.21582 22.3262 3.01129 23.6108 2.90634C24.9046 2.80062 26.5466 2.8 28.8 2.8V1.2ZM16.8 14.8C16.8 12.5466 16.8006 10.9046 16.9063 9.61076C17.0113 8.32622 17.2158 7.45534 17.5848 6.73127L16.1591 6.00488C15.6561 6.9921 15.4247 8.09698 15.3117 9.48047C15.1994 10.8546 15.2 12.573 15.2 14.8H16.8ZM20.0049 2.15914C18.3491 3.00283 17.0028 4.34906 16.1591 6.00488L17.5848 6.73127C18.275 5.3765 19.3765 4.27504 20.7313 3.58475L20.0049 2.15914Z" fill="#333333"/>
<path d="M7.41251 45.7115L17 54.5L17 32.5L7.4125 41.2885C6.1154 42.4775 6.1154 44.5225 7.41251 45.7115Z" fill="white"/>
<path d="M16.0227 54.012L7.44337 46.0135L8.39806 44.9895L16.9773 52.988L16.0227 54.012ZM7.52018 40.5313L16.0372 33.0256L16.9628 34.0759L8.4458 41.5816L7.52018 40.5313ZM7.44337 46.0135C5.84402 44.5224 5.87968 41.977 7.52018 40.5313L8.4458 41.5816C7.42603 42.4803 7.40387 44.0626 8.39806 44.9895L7.44337 46.0135Z" fill="#333333"/>
</g>
<defs>
<filter id="filter0_d_6977_5421" x="0.266479" y="0" width="317.734" height="94" filterUnits="userSpaceOnUse" color-interpolation-filters="sRGB">
<feFlood flood-opacity="0" result="BackgroundImageFix"/>
<feColorMatrix in="SourceAlpha" type="matrix" values="0 0 0 0 0 0 0 0 0 0 0 0 0 0 0 0 0 0 127 0" result="hardAlpha"/>
<feOffset dy="4"/>
<feGaussianBlur stdDeviation="3"/>
<feComposite in2="hardAlpha" operator="out"/>
<feColorMatrix type="matrix" values="0 0 0 0 0 0 0 0 0 0 0 0 0 0 0 0 0 0 0.05 0"/>
<feBlend mode="normal" in2="BackgroundImageFix" result="effect1_dropShadow_6977_5421"/>
<feBlend mode="normal" in="SourceGraphic" in2="effect1_dropShadow_6977_5421" result="shape"/>
</filter>
</defs>
</svg>
