<svg width="256" height="68" viewBox="0 0 256 68" fill="none" xmlns="http://www.w3.org/2000/svg">
<mask id="path-1-inside-1_7044_5981" fill="white">
<path d="M248.724 27.3669L239 19L239 11C239 6.02944 234.971 2 230 2L8.99997 1.99998C4.02941 1.99998 -2.59742e-05 6.02942 -2.64087e-05 11L-2.97308e-05 49C-3.01653e-05 53.9705 4.0294 58 8.99997 58L230 58C234.971 58 239 53.9706 239 49L239 39.5L248.612 32.0069C250.106 30.8425 250.16 28.6022 248.724 27.3669Z"/>
</mask>
<path d="M248.724 27.3669L239 19L239 11C239 6.02944 234.971 2 230 2L8.99997 1.99998C4.02941 1.99998 -2.59742e-05 6.02942 -2.64087e-05 11L-2.97308e-05 49C-3.01653e-05 53.9705 4.0294 58 8.99997 58L230 58C234.971 58 239 53.9706 239 49L239 39.5L248.612 32.0069C250.106 30.8425 250.16 28.6022 248.724 27.3669Z" fill="white"/>
<path d="M239 19L237.6 19L237.6 19.6423L238.087 20.0612L239 19ZM248.724 27.3669L249.637 26.3056L249.637 26.3056L248.724 27.3669ZM248.612 32.0069L247.751 30.9028L247.751 30.9028L248.612 32.0069ZM239 39.5L238.139 38.3959L237.6 38.8162L237.6 39.5L239 39.5ZM238.087 20.0612L247.811 28.4281L249.637 26.3056L239.913 17.9388L238.087 20.0612ZM247.751 30.9028L238.139 38.3959L239.861 40.6041L249.473 33.1111L247.751 30.9028ZM247.811 28.4281C248.577 29.0869 248.548 30.2817 247.751 30.9028L249.473 33.1111C251.663 31.4032 251.743 28.1175 249.637 26.3056L247.811 28.4281ZM230 56.6L8.99997 56.6L8.99997 59.4L230 59.4L230 56.6ZM1.39996 49L1.39997 11L-1.40002 11L-1.40002 49L1.39996 49ZM8.99997 3.39998L230 3.4L230 0.599997L8.99997 0.599977L8.99997 3.39998ZM237.6 39.5L237.6 49L240.4 49L240.4 39.5L237.6 39.5ZM237.6 11L237.6 19L240.4 19L240.4 11L237.6 11ZM230 3.4C234.197 3.4 237.6 6.80263 237.6 11L240.4 11C240.4 5.25624 235.744 0.599997 230 0.599997L230 3.4ZM1.39997 11C1.39997 6.80261 4.8026 3.39998 8.99997 3.39998L8.99997 0.599977C3.25622 0.599977 -1.40002 5.25622 -1.40002 11L1.39997 11ZM8.99997 56.6C4.8026 56.6 1.39996 53.1973 1.39996 49L-1.40002 49C-1.40002 54.7437 3.25621 59.4 8.99997 59.4L8.99997 56.6ZM230 59.4C235.744 59.4 240.4 54.7438 240.4 49L237.6 49C237.6 53.1974 234.197 56.6 230 56.6L230 59.4Z" fill="white" mask="url(#path-1-inside-1_7044_5981)"/>
<g filter="url(#filter0_d_7044_5981)">
<mask id="path-3-inside-2_7044_5981" fill="white">
<path d="M248.724 27.3669L239 19L239 11C239 6.02944 234.971 2 230 2L159 1.99999C154.029 1.99999 150 6.02943 150 11L150 49C150 53.9705 154.029 58 159 58L230 58C234.971 58 239 53.9706 239 49L239 39.5L248.612 32.0069C250.106 30.8425 250.16 28.6022 248.724 27.3669Z"/>
</mask>
<path d="M248.724 27.3669L239 19L239 11C239 6.02944 234.971 2 230 2L159 1.99999C154.029 1.99999 150 6.02943 150 11L150 49C150 53.9705 154.029 58 159 58L230 58C234.971 58 239 53.9706 239 49L239 39.5L248.612 32.0069C250.106 30.8425 250.16 28.6022 248.724 27.3669Z" fill="white"/>
<path d="M239 19L237.6 19L237.6 19.6423L238.087 20.0612L239 19ZM248.724 27.3669L249.637 26.3056L249.637 26.3056L248.724 27.3669ZM248.612 32.0069L247.751 30.9028L247.751 30.9028L248.612 32.0069ZM239 39.5L238.139 38.3959L237.6 38.8162L237.6 39.5L239 39.5ZM230 58L230 59.4L230 58ZM159 58L159 56.6L159 58ZM238.087 20.0612L247.811 28.4281L249.637 26.3056L239.913 17.9388L238.087 20.0612ZM247.751 30.9028L238.139 38.3959L239.861 40.6041L249.473 33.1111L247.751 30.9028ZM247.811 28.4281C248.577 29.0869 248.548 30.2817 247.751 30.9028L249.473 33.1111C251.663 31.4032 251.743 28.1175 249.637 26.3056L247.811 28.4281ZM230 56.6L159 56.6L159 59.4L230 59.4L230 56.6ZM151.4 49L151.4 11L148.6 11L148.6 49L151.4 49ZM159 3.39999L230 3.4L230 0.599997L159 0.599991L159 3.39999ZM237.6 39.5L237.6 49L240.4 49L240.4 39.5L237.6 39.5ZM237.6 11L237.6 19L240.4 19L240.4 11L237.6 11ZM230 3.4C234.197 3.4 237.6 6.80263 237.6 11L240.4 11C240.4 5.25624 235.744 0.599997 230 0.599997L230 3.4ZM151.4 11C151.4 6.80263 154.803 3.39999 159 3.39999L159 0.599991C153.256 0.59999 148.6 5.25623 148.6 11L151.4 11ZM159 56.6C154.803 56.6 151.4 53.1973 151.4 49L148.6 49C148.6 54.7437 153.256 59.4 159 59.4L159 56.6ZM230 59.4C235.744 59.4 240.4 54.7438 240.4 49L237.6 49C237.6 53.1974 234.197 56.6 230 56.6L230 59.4Z" fill="#333333" mask="url(#path-3-inside-2_7044_5981)"/>
</g>
<g filter="url(#filter1_d_7044_5981)">
<path d="M184.738 15.452H186.242L189.122 20.332H188.802L191.73 15.452H193.218L189.586 21.372V25.5H188.322V21.372L184.738 15.452ZM196.761 25.692C196.099 25.692 195.507 25.524 194.985 25.188C194.467 24.8467 194.057 24.3747 193.753 23.772C193.454 23.1693 193.305 22.476 193.305 21.692C193.305 20.8547 193.454 20.1347 193.753 19.532C194.051 18.9293 194.459 18.468 194.977 18.148C195.499 17.8227 196.094 17.66 196.761 17.66C197.342 17.66 197.838 17.7773 198.249 18.012C198.659 18.2467 198.99 18.564 199.241 18.964C199.491 19.364 199.665 19.8173 199.761 20.324C199.862 20.8253 199.891 21.3453 199.849 21.884H194.313V21.116H199.025L198.657 21.356C198.673 21.0413 198.654 20.7267 198.601 20.412C198.553 20.0973 198.459 19.8093 198.321 19.548C198.182 19.2813 197.987 19.068 197.737 18.908C197.486 18.748 197.166 18.668 196.777 18.668C196.286 18.668 195.875 18.7933 195.545 19.044C195.214 19.2947 194.966 19.6253 194.801 20.036C194.635 20.4413 194.553 20.8813 194.553 21.356V21.868C194.553 22.4013 194.633 22.8787 194.793 23.3C194.958 23.7213 195.203 24.0547 195.529 24.3C195.854 24.5453 196.265 24.668 196.761 24.668C197.257 24.668 197.665 24.548 197.985 24.308C198.305 24.068 198.499 23.7133 198.569 23.244H199.865C199.785 23.7507 199.603 24.188 199.321 24.556C199.038 24.9187 198.678 25.1987 198.241 25.396C197.803 25.5933 197.31 25.692 196.761 25.692ZM207.22 25.5L207.06 23.82V20.54C207.06 19.852 206.913 19.3587 206.62 19.06C206.326 18.756 205.886 18.604 205.3 18.604C204.969 18.604 204.668 18.652 204.396 18.748C204.129 18.844 203.916 18.9933 203.756 19.196C203.601 19.3933 203.524 19.6493 203.524 19.964H202.132C202.132 19.4093 202.268 18.964 202.54 18.628C202.812 18.2867 203.185 18.0413 203.66 17.892C204.14 17.7373 204.686 17.66 205.3 17.66C205.886 17.66 206.406 17.7587 206.86 17.956C207.313 18.1533 207.668 18.468 207.924 18.9C208.18 19.3267 208.308 19.884 208.308 20.572V25.5H207.22ZM204.612 25.692C203.982 25.692 203.462 25.58 203.052 25.356C202.641 25.132 202.334 24.8413 202.132 24.484C201.929 24.1267 201.828 23.7507 201.828 23.356C201.828 22.8387 201.956 22.4173 202.212 22.092C202.473 21.7667 202.828 21.5293 203.276 21.38C203.724 21.2253 204.228 21.148 204.788 21.148C205.188 21.148 205.588 21.188 205.988 21.268C206.393 21.348 206.788 21.4573 207.172 21.596V22.38C206.852 22.252 206.489 22.1507 206.084 22.076C205.684 22.0013 205.316 21.964 204.98 21.964C204.468 21.964 204.036 22.0707 203.684 22.284C203.332 22.492 203.156 22.8493 203.156 23.356C203.156 23.7293 203.289 24.0493 203.556 24.316C203.828 24.5827 204.26 24.716 204.852 24.716C205.268 24.716 205.641 24.62 205.972 24.428C206.308 24.2307 206.572 23.9853 206.764 23.692C206.961 23.3987 207.06 23.1053 207.06 22.812H207.364C207.364 23.324 207.252 23.7987 207.028 24.236C206.809 24.6733 206.494 25.0253 206.084 25.292C205.673 25.5587 205.182 25.692 204.612 25.692ZM216.896 25.5V21.004C216.896 20.2733 216.72 19.7187 216.368 19.34C216.021 18.956 215.547 18.764 214.944 18.764C214.485 18.764 214.088 18.8893 213.752 19.14C213.416 19.3907 213.157 19.7507 212.976 20.22C212.795 20.684 212.704 21.2387 212.704 21.884H212.224C212.224 20.9933 212.341 20.2333 212.576 19.604C212.811 18.9747 213.152 18.4947 213.6 18.164C214.053 17.828 214.603 17.66 215.248 17.66C215.851 17.66 216.365 17.796 216.792 18.068C217.224 18.3347 217.555 18.7187 217.784 19.22C218.013 19.7213 218.128 20.316 218.128 21.004V25.5H216.896ZM211.456 25.5V14.588H212.704V25.5H211.456ZM221.08 27.244L220.136 26.78C220.44 26.6253 220.696 26.4547 220.904 26.268C221.118 26.0813 221.256 25.852 221.32 25.58C221.091 25.5533 220.894 25.4707 220.728 25.332C220.568 25.1933 220.488 25.0093 220.488 24.78C220.488 24.556 220.571 24.364 220.736 24.204C220.907 24.044 221.123 23.964 221.384 23.964C221.715 23.964 221.982 24.084 222.184 24.324C222.387 24.564 222.488 24.8493 222.488 25.18C222.488 25.5693 222.368 25.9507 222.128 26.324C221.894 26.7027 221.544 27.0093 221.08 27.244ZM190.197 45.692C189.455 45.692 188.837 45.588 188.341 45.38C187.845 45.1667 187.469 44.876 187.213 44.508C186.957 44.1347 186.821 43.708 186.805 43.228H188.005C188.031 43.7133 188.226 44.0787 188.589 44.324C188.957 44.564 189.455 44.684 190.085 44.684C190.415 44.684 190.719 44.6307 190.997 44.524C191.274 44.4173 191.495 44.2707 191.661 44.084C191.826 43.8973 191.909 43.6867 191.909 43.452C191.909 43.1533 191.799 42.9187 191.581 42.748C191.362 42.5773 191.013 42.428 190.533 42.3L189.045 41.82C188.399 41.6173 187.903 41.34 187.557 40.988C187.215 40.6307 187.045 40.204 187.045 39.708C187.045 39.0893 187.317 38.5933 187.861 38.22C188.405 37.8467 189.119 37.66 190.005 37.66C190.943 37.66 191.671 37.852 192.189 38.236C192.706 38.62 192.975 39.1 192.997 39.676H191.765C191.717 39.34 191.546 39.0867 191.253 38.916C190.959 38.74 190.543 38.652 190.005 38.652C189.487 38.652 189.082 38.7693 188.789 39.004C188.501 39.2333 188.357 39.4893 188.357 39.772C188.357 40.3 188.81 40.6893 189.717 40.94L191.237 41.452C191.893 41.6493 192.394 41.908 192.741 42.228C193.093 42.548 193.269 42.956 193.269 43.452C193.269 43.836 193.143 44.1987 192.893 44.54C192.642 44.8813 192.287 45.1587 191.829 45.372C191.37 45.5853 190.826 45.692 190.197 45.692ZM201.211 37.836H202.459V45.5H201.211V37.836ZM195.787 37.836H197.035V42.604C197.035 43.244 197.19 43.7293 197.499 44.06C197.814 44.3907 198.262 44.556 198.843 44.556C199.323 44.556 199.739 44.428 200.091 44.172C200.448 43.916 200.723 43.564 200.915 43.116C201.112 42.6627 201.211 42.1453 201.211 41.564H201.675C201.675 42.4227 201.55 43.156 201.299 43.764C201.054 44.372 200.704 44.8387 200.251 45.164C199.803 45.484 199.275 45.644 198.667 45.644C198.091 45.644 197.587 45.5373 197.155 45.324C196.723 45.1107 196.387 44.788 196.147 44.356C195.907 43.9187 195.787 43.3667 195.787 42.7V37.836ZM205.859 45.5V37.836H207.107V45.5H205.859ZM206.723 42.044C206.723 41.0733 206.816 40.268 207.003 39.628C207.189 38.9827 207.461 38.5027 207.819 38.188C208.181 37.868 208.621 37.708 209.139 37.708C209.309 37.708 209.464 37.7213 209.603 37.748C209.747 37.7693 209.891 37.804 210.035 37.852L209.955 39.084C209.805 39.036 209.643 38.996 209.467 38.964C209.291 38.9267 209.133 38.908 208.995 38.908C208.541 38.908 208.176 39.0387 207.899 39.3C207.621 39.556 207.419 39.9187 207.291 40.388C207.168 40.8573 207.107 41.4093 207.107 42.044H206.723ZM214.456 45.692C213.794 45.692 213.202 45.524 212.68 45.188C212.162 44.8467 211.752 44.3747 211.448 43.772C211.149 43.1693 211 42.476 211 41.692C211 40.8547 211.149 40.1347 211.448 39.532C211.746 38.9293 212.154 38.468 212.672 38.148C213.194 37.8227 213.789 37.66 214.456 37.66C215.037 37.66 215.533 37.7773 215.944 38.012C216.354 38.2467 216.685 38.564 216.936 38.964C217.186 39.364 217.36 39.8173 217.456 40.324C217.557 40.8253 217.586 41.3453 217.544 41.884H212.008V41.116H216.72L216.352 41.356C216.368 41.0413 216.349 40.7267 216.296 40.412C216.248 40.0973 216.154 39.8093 216.016 39.548C215.877 39.2813 215.682 39.068 215.432 38.908C215.181 38.748 214.861 38.668 214.472 38.668C213.981 38.668 213.57 38.7933 213.24 39.044C212.909 39.2947 212.661 39.6253 212.496 40.036C212.33 40.4413 212.248 40.8813 212.248 41.356V41.868C212.248 42.4013 212.328 42.8787 212.488 43.3C212.653 43.7213 212.898 44.0547 213.224 44.3C213.549 44.5453 213.96 44.668 214.456 44.668C214.952 44.668 215.36 44.548 215.68 44.308C216 44.068 216.194 43.7133 216.264 43.244H217.56C217.48 43.7507 217.298 44.188 217.016 44.556C216.733 44.9187 216.373 45.1987 215.936 45.396C215.498 45.5933 215.005 45.692 214.456 45.692ZM220.307 42.684L220.147 35.484H221.475L221.315 42.684H220.307ZM220.811 45.644C220.539 45.644 220.315 45.5587 220.139 45.388C219.963 45.2173 219.875 45.004 219.875 44.748C219.875 44.4973 219.963 44.284 220.139 44.108C220.315 43.9267 220.539 43.836 220.811 43.836C221.077 43.836 221.301 43.9267 221.483 44.108C221.669 44.284 221.763 44.4973 221.763 44.748C221.763 45.004 221.669 45.2173 221.483 45.388C221.301 45.5587 221.077 45.644 220.811 45.644Z" fill="#333333"/>
</g>
<defs>
<filter id="filter0_d_7044_5981" x="144" y="0" width="111.767" height="68" filterUnits="userSpaceOnUse" color-interpolation-filters="sRGB">
<feFlood flood-opacity="0" result="BackgroundImageFix"/>
<feColorMatrix in="SourceAlpha" type="matrix" values="0 0 0 0 0 0 0 0 0 0 0 0 0 0 0 0 0 0 127 0" result="hardAlpha"/>
<feOffset dy="4"/>
<feGaussianBlur stdDeviation="3"/>
<feComposite in2="hardAlpha" operator="out"/>
<feColorMatrix type="matrix" values="0 0 0 0 0 0 0 0 0 0 0 0 0 0 0 0 0 0 0.1 0"/>
<feBlend mode="normal" in2="BackgroundImageFix" result="effect1_dropShadow_7044_5981"/>
<feBlend mode="normal" in="SourceGraphic" in2="effect1_dropShadow_7044_5981" result="shape"/>
</filter>
<filter id="filter1_d_7044_5981" x="178.738" y="12.5879" width="49.7498" height="43.1045" filterUnits="userSpaceOnUse" color-interpolation-filters="sRGB">
<feFlood flood-opacity="0" result="BackgroundImageFix"/>
<feColorMatrix in="SourceAlpha" type="matrix" values="0 0 0 0 0 0 0 0 0 0 0 0 0 0 0 0 0 0 127 0" result="hardAlpha"/>
<feOffset dy="4"/>
<feGaussianBlur stdDeviation="3"/>
<feComposite in2="hardAlpha" operator="out"/>
<feColorMatrix type="matrix" values="0 0 0 0 0 0 0 0 0 0 0 0 0 0 0 0 0 0 0.05 0"/>
<feBlend mode="normal" in2="BackgroundImageFix" result="effect1_dropShadow_7044_5981"/>
<feBlend mode="normal" in="SourceGraphic" in2="effect1_dropShadow_7044_5981" result="shape"/>
</filter>
</defs>
</svg>
