<svg width="256" height="68" viewBox="0 0 256 68" fill="none" xmlns="http://www.w3.org/2000/svg">
<mask id="path-1-inside-1_7054_5742" fill="white">
<path d="M248.724 27.3669L239 19L239 11C239 6.02944 234.971 2 230 2L8.99997 1.99998C4.02941 1.99998 -2.59742e-05 6.02942 -2.64087e-05 11L-2.97308e-05 49C-3.01653e-05 53.9705 4.0294 58 8.99997 58L230 58C234.971 58 239 53.9706 239 49L239 39.5L248.612 32.0069C250.106 30.8425 250.16 28.6022 248.724 27.3669Z"/>
</mask>
<path d="M248.724 27.3669L239 19L239 11C239 6.02944 234.971 2 230 2L8.99997 1.99998C4.02941 1.99998 -2.59742e-05 6.02942 -2.64087e-05 11L-2.97308e-05 49C-3.01653e-05 53.9705 4.0294 58 8.99997 58L230 58C234.971 58 239 53.9706 239 49L239 39.5L248.612 32.0069C250.106 30.8425 250.16 28.6022 248.724 27.3669Z" fill="white"/>
<path d="M239 19L237.6 19L237.6 19.6423L238.087 20.0612L239 19ZM248.724 27.3669L249.637 26.3056L249.637 26.3056L248.724 27.3669ZM248.612 32.0069L247.751 30.9028L247.751 30.9028L248.612 32.0069ZM239 39.5L238.139 38.3959L237.6 38.8162L237.6 39.5L239 39.5ZM238.087 20.0612L247.811 28.4281L249.637 26.3056L239.913 17.9388L238.087 20.0612ZM247.751 30.9028L238.139 38.3959L239.861 40.6041L249.473 33.1111L247.751 30.9028ZM247.811 28.4281C248.577 29.0869 248.548 30.2817 247.751 30.9028L249.473 33.1111C251.663 31.4032 251.743 28.1175 249.637 26.3056L247.811 28.4281ZM230 56.6L8.99997 56.6L8.99997 59.4L230 59.4L230 56.6ZM1.39997 49L1.39997 11L-1.40003 11L-1.40003 49L1.39997 49ZM8.99997 3.39998L230 3.4L230 0.599998L8.99997 0.599979L8.99997 3.39998ZM237.6 39.5L237.6 49L240.4 49L240.4 39.5L237.6 39.5ZM237.6 11L237.6 19L240.4 19L240.4 11L237.6 11ZM230 3.4C234.197 3.4 237.6 6.80264 237.6 11L240.4 11C240.4 5.25624 235.744 0.599999 230 0.599998L230 3.4ZM1.39997 11C1.39997 6.80261 4.80261 3.39998 8.99997 3.39998L8.99997 0.599979C3.25621 0.599978 -1.40003 5.25622 -1.40003 11L1.39997 11ZM8.99997 56.6C4.8026 56.6 1.39997 53.1973 1.39997 49L-1.40003 49C-1.40003 54.7437 3.2562 59.4 8.99997 59.4L8.99997 56.6ZM230 59.4C235.744 59.4 240.4 54.7438 240.4 49L237.6 49C237.6 53.1974 234.197 56.6 230 56.6L230 59.4Z" fill="white" mask="url(#path-1-inside-1_7054_5742)"/>
<g filter="url(#filter0_d_7054_5742)">
<mask id="path-3-inside-2_7054_5742" fill="white">
<path d="M248.724 27.3669L239 19L239 11C239 6.02944 234.971 2 230 2L64 1.99998C59.0294 1.99998 55 6.02942 55 11L55 49C55 53.9705 59.0294 58 64 58L230 58C234.971 58 239 53.9706 239 49L239 39.5L248.612 32.0069C250.106 30.8425 250.16 28.6022 248.724 27.3669Z"/>
</mask>
<path d="M248.724 27.3669L239 19L239 11C239 6.02944 234.971 2 230 2L64 1.99998C59.0294 1.99998 55 6.02942 55 11L55 49C55 53.9705 59.0294 58 64 58L230 58C234.971 58 239 53.9706 239 49L239 39.5L248.612 32.0069C250.106 30.8425 250.16 28.6022 248.724 27.3669Z" fill="white"/>
<path d="M239 19L237.6 19L237.6 19.6423L238.087 20.0612L239 19ZM248.724 27.3669L249.637 26.3056L249.637 26.3056L248.724 27.3669ZM248.612 32.0069L247.751 30.9028L247.751 30.9028L248.612 32.0069ZM239 39.5L238.139 38.3959L237.6 38.8162L237.6 39.5L239 39.5ZM230 58L230 59.4L230 59.4L230 58ZM64 58L64 56.6H64L64 58ZM238.087 20.0612L247.811 28.4281L249.637 26.3056L239.913 17.9388L238.087 20.0612ZM247.751 30.9028L238.139 38.3959L239.861 40.6041L249.473 33.1111L247.751 30.9028ZM247.811 28.4281C248.577 29.0869 248.548 30.2817 247.751 30.9028L249.473 33.1111C251.663 31.4032 251.743 28.1175 249.637 26.3056L247.811 28.4281ZM230 56.6L64 56.6L64 59.4L230 59.4L230 56.6ZM56.4 49L56.4 11L53.6 11L53.6 49L56.4 49ZM64 3.39998L230 3.4L230 0.599998L64 0.599984L64 3.39998ZM237.6 39.5L237.6 49L240.4 49L240.4 39.5L237.6 39.5ZM237.6 11L237.6 19L240.4 19L240.4 11L237.6 11ZM230 3.4C234.197 3.4 237.6 6.80264 237.6 11L240.4 11C240.4 5.25624 235.744 0.599999 230 0.599998L230 3.4ZM56.4 11C56.4 6.80262 59.8026 3.39998 64 3.39998L64 0.599984C58.2562 0.599983 53.6 5.25622 53.6 11L56.4 11ZM64 56.6C59.8026 56.6 56.4 53.1973 56.4 49L53.6 49C53.6 54.7437 58.2562 59.4 64 59.4L64 56.6ZM230 59.4C235.744 59.4 240.4 54.7438 240.4 49L237.6 49C237.6 53.1974 234.197 56.6 230 56.6L230 59.4Z" fill="#333333" mask="url(#path-3-inside-2_7054_5742)"/>
</g>
<g filter="url(#filter1_d_7054_5742)">
<path d="M71.2446 15.452H72.7486L75.6286 20.332H75.3086L78.2366 15.452H79.7246L76.0926 21.372V25.5H74.8286V21.372L71.2446 15.452ZM83.267 25.692C82.6057 25.692 82.0137 25.524 81.491 25.188C80.9737 24.8467 80.563 24.3747 80.259 23.772C79.9603 23.1693 79.811 22.476 79.811 21.692C79.811 20.8547 79.9603 20.1347 80.259 19.532C80.5577 18.9293 80.9657 18.468 81.483 18.148C82.0057 17.8227 82.6003 17.66 83.267 17.66C83.8483 17.66 84.3443 17.7773 84.755 18.012C85.1657 18.2467 85.4963 18.564 85.747 18.964C85.9977 19.364 86.171 19.8173 86.267 20.324C86.3683 20.8253 86.3977 21.3453 86.355 21.884H80.819V21.116H85.531L85.163 21.356C85.179 21.0413 85.1603 20.7267 85.107 20.412C85.059 20.0973 84.9657 19.8093 84.827 19.548C84.6883 19.2813 84.4937 19.068 84.243 18.908C83.9923 18.748 83.6723 18.668 83.283 18.668C82.7923 18.668 82.3817 18.7933 82.051 19.044C81.7203 19.2947 81.4723 19.6253 81.307 20.036C81.1417 20.4413 81.059 20.8813 81.059 21.356V21.868C81.059 22.4013 81.139 22.8787 81.299 23.3C81.4643 23.7213 81.7097 24.0547 82.035 24.3C82.3603 24.5453 82.771 24.668 83.267 24.668C83.763 24.668 84.171 24.548 84.491 24.308C84.811 24.068 85.0057 23.7133 85.075 23.244H86.371C86.291 23.7507 86.1097 24.188 85.827 24.556C85.5443 24.9187 85.1843 25.1987 84.747 25.396C84.3097 25.5933 83.8163 25.692 83.267 25.692ZM91.7418 25.692C91.0004 25.692 90.3818 25.588 89.8858 25.38C89.3898 25.1667 89.0138 24.876 88.7578 24.508C88.5018 24.1347 88.3658 23.708 88.3498 23.228H89.5498C89.5764 23.7133 89.7711 24.0787 90.1338 24.324C90.5018 24.564 91.0004 24.684 91.6298 24.684C91.9604 24.684 92.2644 24.6307 92.5418 24.524C92.8191 24.4173 93.0404 24.2707 93.2058 24.084C93.3711 23.8973 93.4538 23.6867 93.4538 23.452C93.4538 23.1533 93.3444 22.9187 93.1258 22.748C92.9071 22.5773 92.5578 22.428 92.0778 22.3L90.5898 21.82C89.9444 21.6173 89.4484 21.34 89.1018 20.988C88.7604 20.6307 88.5898 20.204 88.5898 19.708C88.5898 19.0893 88.8618 18.5933 89.4058 18.22C89.9498 17.8467 90.6644 17.66 91.5498 17.66C92.4884 17.66 93.2164 17.852 93.7338 18.236C94.2511 18.62 94.5204 19.1 94.5418 19.676H93.3098C93.2618 19.34 93.0911 19.0867 92.7978 18.916C92.5044 18.74 92.0884 18.652 91.5498 18.652C91.0324 18.652 90.6271 18.7693 90.3338 19.004C90.0458 19.2333 89.9018 19.4893 89.9018 19.772C89.9018 20.3 90.3551 20.6893 91.2618 20.94L92.7818 21.452C93.4378 21.6493 93.9391 21.908 94.2858 22.228C94.6378 22.548 94.8138 22.956 94.8138 23.452C94.8138 23.836 94.6884 24.1987 94.4378 24.54C94.1871 24.8813 93.8324 25.1587 93.3738 25.372C92.9151 25.5853 92.3711 25.692 91.7418 25.692ZM97.364 27.244L96.42 26.78C96.724 26.6253 96.98 26.4547 97.188 26.268C97.4013 26.0813 97.54 25.852 97.604 25.58C97.3747 25.5533 97.1773 25.4707 97.012 25.332C96.852 25.1933 96.772 25.0093 96.772 24.78C96.772 24.556 96.8547 24.364 97.02 24.204C97.1907 24.044 97.4067 23.964 97.668 23.964C97.9987 23.964 98.2653 24.084 98.468 24.324C98.6707 24.564 98.772 24.8493 98.772 25.18C98.772 25.5693 98.652 25.9507 98.412 26.324C98.1773 26.7027 97.828 27.0093 97.364 27.244ZM105.017 25.5V17.836H106.265V25.5H105.017ZM105.881 22.044C105.881 21.0733 105.974 20.268 106.161 19.628C106.347 18.9827 106.619 18.5027 106.977 18.188C107.339 17.868 107.779 17.708 108.297 17.708C108.467 17.708 108.622 17.7213 108.761 17.748C108.905 17.7693 109.049 17.804 109.193 17.852L109.113 19.084C108.963 19.036 108.801 18.996 108.625 18.964C108.449 18.9267 108.291 18.908 108.153 18.908C107.699 18.908 107.334 19.0387 107.057 19.3C106.779 19.556 106.577 19.9187 106.449 20.388C106.326 20.8573 106.265 21.4093 106.265 22.044H105.881ZM113.614 25.692C112.953 25.692 112.361 25.524 111.838 25.188C111.321 24.8467 110.91 24.3747 110.606 23.772C110.307 23.1693 110.158 22.476 110.158 21.692C110.158 20.8547 110.307 20.1347 110.606 19.532C110.905 18.9293 111.313 18.468 111.83 18.148C112.353 17.8227 112.947 17.66 113.614 17.66C114.195 17.66 114.691 17.7773 115.102 18.012C115.513 18.2467 115.843 18.564 116.094 18.964C116.345 19.364 116.518 19.8173 116.614 20.324C116.715 20.8253 116.745 21.3453 116.702 21.884H111.166V21.116H115.878L115.51 21.356C115.526 21.0413 115.507 20.7267 115.454 20.412C115.406 20.0973 115.313 19.8093 115.174 19.548C115.035 19.2813 114.841 19.068 114.59 18.908C114.339 18.748 114.019 18.668 113.63 18.668C113.139 18.668 112.729 18.7933 112.398 19.044C112.067 19.2947 111.819 19.6253 111.654 20.036C111.489 20.4413 111.406 20.8813 111.406 21.356V21.868C111.406 22.4013 111.486 22.8787 111.646 23.3C111.811 23.7213 112.057 24.0547 112.382 24.3C112.707 24.5453 113.118 24.668 113.614 24.668C114.11 24.668 114.518 24.548 114.838 24.308C115.158 24.068 115.353 23.7133 115.422 23.244H116.718C116.638 23.7507 116.457 24.188 116.174 24.556C115.891 24.9187 115.531 25.1987 115.094 25.396C114.657 25.5933 114.163 25.692 113.614 25.692ZM124.073 25.5L123.913 23.82V20.54C123.913 19.852 123.766 19.3587 123.473 19.06C123.179 18.756 122.739 18.604 122.153 18.604C121.822 18.604 121.521 18.652 121.249 18.748C120.982 18.844 120.769 18.9933 120.609 19.196C120.454 19.3933 120.377 19.6493 120.377 19.964H118.985C118.985 19.4093 119.121 18.964 119.393 18.628C119.665 18.2867 120.038 18.0413 120.513 17.892C120.993 17.7373 121.539 17.66 122.153 17.66C122.739 17.66 123.259 17.7587 123.713 17.956C124.166 18.1533 124.521 18.468 124.777 18.9C125.033 19.3267 125.161 19.884 125.161 20.572V25.5H124.073ZM121.465 25.692C120.835 25.692 120.315 25.58 119.905 25.356C119.494 25.132 119.187 24.8413 118.985 24.484C118.782 24.1267 118.681 23.7507 118.681 23.356C118.681 22.8387 118.809 22.4173 119.065 22.092C119.326 21.7667 119.681 21.5293 120.129 21.38C120.577 21.2253 121.081 21.148 121.641 21.148C122.041 21.148 122.441 21.188 122.841 21.268C123.246 21.348 123.641 21.4573 124.025 21.596V22.38C123.705 22.252 123.342 22.1507 122.937 22.076C122.537 22.0013 122.169 21.964 121.833 21.964C121.321 21.964 120.889 22.0707 120.537 22.284C120.185 22.492 120.009 22.8493 120.009 23.356C120.009 23.7293 120.142 24.0493 120.409 24.316C120.681 24.5827 121.113 24.716 121.705 24.716C122.121 24.716 122.494 24.62 122.825 24.428C123.161 24.2307 123.425 23.9853 123.617 23.692C123.814 23.3987 123.913 23.1053 123.913 22.812H124.217C124.217 23.324 124.105 23.7987 123.881 24.236C123.662 24.6733 123.347 25.0253 122.937 25.292C122.526 25.5587 122.035 25.692 121.465 25.692ZM131.045 25.692C130.426 25.692 129.858 25.5267 129.341 25.196C128.824 24.86 128.41 24.3907 128.101 23.788C127.792 23.18 127.637 22.4653 127.637 21.644C127.637 20.828 127.789 20.1213 128.093 19.524C128.397 18.9267 128.8 18.468 129.301 18.148C129.808 17.8227 130.362 17.66 130.965 17.66C131.525 17.66 132.016 17.796 132.437 18.068C132.864 18.34 133.194 18.732 133.429 19.244C133.664 19.756 133.781 20.3747 133.781 21.1H133.301C133.301 20.5933 133.2 20.1667 132.997 19.82C132.8 19.4733 132.541 19.212 132.221 19.036C131.901 18.8547 131.557 18.764 131.189 18.764C130.773 18.764 130.392 18.8813 130.045 19.116C129.704 19.3453 129.429 19.676 129.221 20.108C129.018 20.5347 128.917 21.0467 128.917 21.644C128.917 22.252 129.018 22.7747 129.221 23.212C129.429 23.6493 129.704 23.9853 130.045 24.22C130.392 24.4547 130.773 24.572 131.189 24.572C131.536 24.572 131.869 24.4813 132.189 24.3C132.514 24.1187 132.781 23.8547 132.989 23.508C133.197 23.156 133.301 22.732 133.301 22.236H133.781C133.781 22.9773 133.658 23.6067 133.413 24.124C133.173 24.636 132.845 25.0253 132.429 25.292C132.018 25.5587 131.557 25.692 131.045 25.692ZM133.509 25.5L133.301 23.708V14.588H134.549V25.5H133.509ZM144.662 25.692C143.921 25.692 143.302 25.588 142.806 25.38C142.31 25.1667 141.934 24.876 141.678 24.508C141.422 24.1347 141.286 23.708 141.27 23.228H142.47C142.497 23.7133 142.692 24.0787 143.054 24.324C143.422 24.564 143.921 24.684 144.55 24.684C144.881 24.684 145.185 24.6307 145.462 24.524C145.74 24.4173 145.961 24.2707 146.126 24.084C146.292 23.8973 146.374 23.6867 146.374 23.452C146.374 23.1533 146.265 22.9187 146.046 22.748C145.828 22.5773 145.478 22.428 144.998 22.3L143.51 21.82C142.865 21.6173 142.369 21.34 142.022 20.988C141.681 20.6307 141.51 20.204 141.51 19.708C141.51 19.0893 141.782 18.5933 142.326 18.22C142.87 17.8467 143.585 17.66 144.47 17.66C145.409 17.66 146.137 17.852 146.654 18.236C147.172 18.62 147.441 19.1 147.462 19.676H146.23C146.182 19.34 146.012 19.0867 145.718 18.916C145.425 18.74 145.009 18.652 144.47 18.652C143.953 18.652 143.548 18.7693 143.254 19.004C142.966 19.2333 142.822 19.4893 142.822 19.772C142.822 20.3 143.276 20.6893 144.182 20.94L145.702 21.452C146.358 21.6493 146.86 21.908 147.206 22.228C147.558 22.548 147.734 22.956 147.734 23.452C147.734 23.836 147.609 24.1987 147.358 24.54C147.108 24.8813 146.753 25.1587 146.294 25.372C145.836 25.5853 145.292 25.692 144.662 25.692ZM153.245 25.692C152.557 25.692 151.943 25.54 151.405 25.236C150.871 24.932 150.45 24.4813 150.141 23.884C149.831 23.2867 149.677 22.5507 149.677 21.676C149.677 20.796 149.831 20.06 150.141 19.468C150.45 18.8707 150.871 18.42 151.405 18.116C151.943 17.812 152.557 17.66 153.245 17.66C153.927 17.66 154.535 17.812 155.069 18.116C155.607 18.42 156.029 18.8707 156.333 19.468C156.642 20.06 156.797 20.796 156.797 21.676C156.797 22.5507 156.642 23.2867 156.333 23.884C156.029 24.4813 155.607 24.932 155.069 25.236C154.535 25.54 153.927 25.692 153.245 25.692ZM153.213 24.604C153.709 24.604 154.13 24.4867 154.477 24.252C154.823 24.012 155.085 23.6733 155.261 23.236C155.442 22.7987 155.533 22.2787 155.533 21.676C155.533 20.764 155.343 20.0467 154.965 19.524C154.586 18.996 154.023 18.732 153.277 18.732C152.775 18.732 152.351 18.852 152.005 19.092C151.663 19.3267 151.402 19.6653 151.221 20.108C151.045 20.5453 150.957 21.068 150.957 21.676C150.957 22.5773 151.146 23.292 151.525 23.82C151.909 24.3427 152.471 24.604 153.213 24.604ZM170.139 25.5V21.004C170.139 20.2733 169.963 19.7187 169.611 19.34C169.264 18.956 168.795 18.764 168.203 18.764C167.509 18.764 166.979 19.0333 166.611 19.572C166.243 20.1053 166.059 20.844 166.059 21.788H165.483C165.483 21.1 165.549 20.4973 165.683 19.98C165.821 19.4627 166.021 19.0333 166.283 18.692C166.544 18.3453 166.861 18.0867 167.235 17.916C167.608 17.7453 168.032 17.66 168.507 17.66C169.109 17.66 169.624 17.796 170.051 18.068C170.483 18.3347 170.813 18.7187 171.043 19.22C171.272 19.7213 171.387 20.316 171.387 21.004V25.5H170.139ZM159.387 25.5V17.852H160.459L160.603 19.388C160.843 18.8333 161.179 18.4067 161.611 18.108C162.048 17.8093 162.571 17.66 163.179 17.66C163.781 17.66 164.296 17.796 164.723 18.068C165.155 18.3347 165.485 18.7187 165.715 19.22C165.944 19.7213 166.059 20.316 166.059 21.004V25.5H164.827V21.004C164.827 20.2733 164.651 19.7187 164.299 19.34C163.952 18.956 163.477 18.764 162.875 18.764C162.416 18.764 162.019 18.8893 161.683 19.14C161.347 19.3907 161.088 19.7507 160.907 20.22C160.725 20.684 160.635 21.2387 160.635 21.884V25.5H159.387ZM177.171 25.692C176.51 25.692 175.918 25.524 175.395 25.188C174.878 24.8467 174.467 24.3747 174.163 23.772C173.865 23.1693 173.715 22.476 173.715 21.692C173.715 20.8547 173.865 20.1347 174.163 19.532C174.462 18.9293 174.87 18.468 175.387 18.148C175.91 17.8227 176.505 17.66 177.171 17.66C177.753 17.66 178.249 17.7773 178.659 18.012C179.07 18.2467 179.401 18.564 179.651 18.964C179.902 19.364 180.075 19.8173 180.171 20.324C180.273 20.8253 180.302 21.3453 180.259 21.884H174.723V21.116H179.435L179.067 21.356C179.083 21.0413 179.065 20.7267 179.011 20.412C178.963 20.0973 178.87 19.8093 178.731 19.548C178.593 19.2813 178.398 19.068 178.147 18.908C177.897 18.748 177.577 18.668 177.187 18.668C176.697 18.668 176.286 18.7933 175.955 19.044C175.625 19.2947 175.377 19.6253 175.211 20.036C175.046 20.4413 174.963 20.8813 174.963 21.356V21.868C174.963 22.4013 175.043 22.8787 175.203 23.3C175.369 23.7213 175.614 24.0547 175.939 24.3C176.265 24.5453 176.675 24.668 177.171 24.668C177.667 24.668 178.075 24.548 178.395 24.308C178.715 24.068 178.91 23.7133 178.979 23.244H180.275C180.195 23.7507 180.014 24.188 179.731 24.556C179.449 24.9187 179.089 25.1987 178.651 25.396C178.214 25.5933 177.721 25.692 177.171 25.692ZM185.246 25.692C184.83 25.692 184.457 25.612 184.126 25.452C183.795 25.292 183.534 25.052 183.342 24.732C183.15 24.412 183.054 24.012 183.054 23.532V15.724H184.286V23.5C184.286 24.2893 184.654 24.684 185.39 24.684C185.609 24.684 185.819 24.66 186.022 24.612C186.23 24.564 186.462 24.492 186.718 24.396L186.894 25.292C186.622 25.4093 186.35 25.5053 186.078 25.58C185.811 25.6547 185.534 25.692 185.246 25.692ZM181.822 18.716V17.852H186.702V18.716H181.822ZM194.51 25.5V21.004C194.51 20.2733 194.334 19.7187 193.982 19.34C193.635 18.956 193.16 18.764 192.558 18.764C192.099 18.764 191.702 18.8893 191.366 19.14C191.03 19.3907 190.771 19.7507 190.59 20.22C190.408 20.684 190.318 21.2387 190.318 21.884H189.838C189.838 20.9933 189.955 20.2333 190.19 19.604C190.424 18.9747 190.766 18.4947 191.214 18.164C191.667 17.828 192.216 17.66 192.862 17.66C193.464 17.66 193.979 17.796 194.406 18.068C194.838 18.3347 195.168 18.7187 195.398 19.22C195.627 19.7213 195.742 20.316 195.742 21.004V25.5H194.51ZM189.07 25.5V14.588H190.318V25.5H189.07ZM199.59 16.044C199.334 16.044 199.131 15.972 198.982 15.828C198.833 15.6787 198.758 15.484 198.758 15.244C198.758 15.0093 198.833 14.8227 198.982 14.684C199.131 14.5453 199.334 14.476 199.59 14.476C199.846 14.476 200.049 14.5453 200.198 14.684C200.347 14.8227 200.422 15.0093 200.422 15.244C200.422 15.484 200.347 15.6787 200.198 15.828C200.049 15.972 199.846 16.044 199.59 16.044ZM198.966 25.5V17.836H200.214V25.5H198.966ZM209.252 25.5V21.004C209.252 20.2733 209.076 19.7187 208.724 19.34C208.377 18.956 207.902 18.764 207.3 18.764C206.841 18.764 206.444 18.8893 206.108 19.14C205.772 19.3907 205.513 19.7507 205.332 20.22C205.15 20.684 205.06 21.2387 205.06 21.884H204.58C204.58 20.9933 204.697 20.2333 204.932 19.604C205.166 18.9747 205.508 18.4947 205.956 18.164C206.409 17.828 206.958 17.66 207.604 17.66C208.206 17.66 208.721 17.796 209.148 18.068C209.58 18.3347 209.91 18.7187 210.14 19.22C210.369 19.7213 210.484 20.316 210.484 21.004V25.5H209.252ZM203.812 25.5V17.852H204.884L205.06 19.612V25.5H203.812ZM216.332 29.436C215.548 29.436 214.868 29.324 214.292 29.1C213.716 28.8813 213.268 28.5853 212.948 28.212C212.633 27.844 212.476 27.436 212.476 26.988C212.476 26.396 212.692 25.9427 213.124 25.628C213.561 25.3187 214.124 25.164 214.812 25.164L215.5 25.596C214.924 25.596 214.479 25.716 214.164 25.956C213.849 26.196 213.692 26.524 213.692 26.94C213.692 27.356 213.916 27.708 214.364 27.996C214.812 28.284 215.468 28.428 216.332 28.428C216.972 28.428 217.532 28.3347 218.012 28.148C218.497 27.9667 218.873 27.7267 219.14 27.428C219.412 27.1347 219.548 26.8173 219.548 26.476C219.548 26.236 219.46 26.028 219.284 25.852C219.108 25.6813 218.839 25.596 218.476 25.596H215.5C214.983 25.596 214.535 25.5187 214.156 25.364C213.783 25.204 213.495 24.996 213.292 24.74C213.089 24.484 212.988 24.204 212.988 23.9C212.988 23.58 213.079 23.308 213.26 23.084C213.441 22.86 213.676 22.6893 213.964 22.572C214.257 22.4547 214.572 22.396 214.908 22.396L215.148 22.86C214.988 22.86 214.825 22.8973 214.66 22.972C214.5 23.0413 214.364 23.148 214.252 23.292C214.145 23.4307 214.092 23.6067 214.092 23.82C214.092 24.0653 214.193 24.2707 214.396 24.436C214.599 24.6013 214.967 24.684 215.5 24.684H218.476C219.196 24.684 219.761 24.836 220.172 25.14C220.588 25.444 220.796 25.868 220.796 26.412C220.796 26.9133 220.617 27.3933 220.26 27.852C219.903 28.316 219.391 28.6947 218.724 28.988C218.057 29.2867 217.26 29.436 216.332 29.436ZM216.556 23.26C215.969 23.26 215.439 23.1427 214.964 22.908C214.495 22.6733 214.121 22.3453 213.844 21.924C213.572 21.5027 213.436 21.0147 213.436 20.46C213.436 19.9 213.572 19.4093 213.844 18.988C214.121 18.5667 214.495 18.2413 214.964 18.012C215.439 17.7773 215.969 17.66 216.556 17.66C217.127 17.66 217.644 17.7773 218.108 18.012C218.577 18.2413 218.951 18.5667 219.228 18.988C219.505 19.4093 219.644 19.9 219.644 20.46C219.644 21.0147 219.505 21.5027 219.228 21.924C218.951 22.3453 218.577 22.6733 218.108 22.908C217.644 23.1427 217.127 23.26 216.556 23.26ZM216.556 22.364C217.143 22.364 217.599 22.1827 217.924 21.82C218.249 21.4573 218.412 21.004 218.412 20.46C218.412 19.9 218.249 19.4467 217.924 19.1C217.599 18.748 217.143 18.572 216.556 18.572C215.975 18.572 215.516 18.748 215.18 19.1C214.849 19.4467 214.684 19.9 214.684 20.46C214.684 21.004 214.849 21.4573 215.18 21.82C215.516 22.1827 215.975 22.364 216.556 22.364ZM219.068 18.876L218.476 18.636C218.476 18.188 218.564 17.796 218.74 17.46C218.916 17.1187 219.167 16.8547 219.492 16.668C219.817 16.476 220.204 16.38 220.652 16.38L220.556 17.612C220.076 17.612 219.708 17.716 219.452 17.924C219.196 18.1267 219.068 18.444 219.068 18.876ZM71.8782 45.5L71.7182 43.82V40.54C71.7182 39.852 71.5716 39.3587 71.2782 39.06C70.9849 38.756 70.5449 38.604 69.9582 38.604C69.6276 38.604 69.3262 38.652 69.0542 38.748C68.7876 38.844 68.5742 38.9933 68.4142 39.196C68.2596 39.3933 68.1822 39.6493 68.1822 39.964H66.7902C66.7902 39.4093 66.9262 38.964 67.1982 38.628C67.4702 38.2867 67.8436 38.0413 68.3182 37.892C68.7982 37.7373 69.3449 37.66 69.9582 37.66C70.5449 37.66 71.0649 37.7587 71.5182 37.956C71.9716 38.1533 72.3262 38.468 72.5822 38.9C72.8382 39.3267 72.9662 39.884 72.9662 40.572V45.5H71.8782ZM69.2702 45.692C68.6409 45.692 68.1209 45.58 67.7102 45.356C67.2996 45.132 66.9929 44.8413 66.7902 44.484C66.5876 44.1267 66.4862 43.7507 66.4862 43.356C66.4862 42.8387 66.6142 42.4173 66.8702 42.092C67.1316 41.7667 67.4862 41.5293 67.9342 41.38C68.3822 41.2253 68.8862 41.148 69.4462 41.148C69.8462 41.148 70.2462 41.188 70.6462 41.268C71.0516 41.348 71.4462 41.4573 71.8302 41.596V42.38C71.5102 42.252 71.1476 42.1507 70.7422 42.076C70.3422 42.0013 69.9742 41.964 69.6382 41.964C69.1262 41.964 68.6942 42.0707 68.3422 42.284C67.9902 42.492 67.8142 42.8493 67.8142 43.356C67.8142 43.7293 67.9476 44.0493 68.2142 44.316C68.4862 44.5827 68.9182 44.716 69.5102 44.716C69.9262 44.716 70.2996 44.62 70.6302 44.428C70.9662 44.2307 71.2302 43.9853 71.4222 43.692C71.6196 43.3987 71.7182 43.1053 71.7182 42.812H72.0222C72.0222 43.324 71.9102 43.7987 71.6862 44.236C71.4676 44.6733 71.1529 45.0253 70.7422 45.292C70.3316 45.5587 69.8409 45.692 69.2702 45.692ZM79.6187 45.692C79.1067 45.692 78.6427 45.5587 78.2267 45.292C77.8161 45.0253 77.4881 44.636 77.2427 44.124C77.0027 43.6067 76.8827 42.9773 76.8827 42.236H77.3627C77.3627 42.732 77.4641 43.156 77.6667 43.508C77.8747 43.8547 78.1414 44.1187 78.4667 44.3C78.7921 44.4813 79.1334 44.572 79.4907 44.572C79.9014 44.572 80.2774 44.4547 80.6187 44.22C80.9601 43.9853 81.2321 43.6493 81.4347 43.212C81.6427 42.7747 81.7467 42.252 81.7467 41.644C81.7467 41.0467 81.6454 40.5347 81.4427 40.108C81.2401 39.676 80.9654 39.3453 80.6187 39.116C80.2774 38.8813 79.8961 38.764 79.4747 38.764C79.1121 38.764 78.7681 38.8547 78.4427 39.036C78.1227 39.212 77.8614 39.4733 77.6587 39.82C77.4614 40.1667 77.3627 40.5933 77.3627 41.1H76.8827C76.8827 40.3747 77.0001 39.756 77.2347 39.244C77.4747 38.732 77.8054 38.34 78.2267 38.068C78.6481 37.796 79.1387 37.66 79.6987 37.66C80.3014 37.66 80.8534 37.8227 81.3547 38.148C81.8614 38.468 82.2667 38.9267 82.5707 39.524C82.8747 40.1213 83.0267 40.828 83.0267 41.644C83.0267 42.4653 82.8721 43.18 82.5627 43.788C82.2534 44.3907 81.8401 44.86 81.3227 45.196C80.8054 45.5267 80.2374 45.692 79.6187 45.692ZM76.1147 45.5V34.588H77.3627V43.708L76.9947 45.5H76.1147ZM88.5271 45.692C87.8391 45.692 87.2258 45.54 86.6871 45.236C86.1538 44.932 85.7325 44.4813 85.4231 43.884C85.1138 43.2867 84.9591 42.5507 84.9591 41.676C84.9591 40.796 85.1138 40.06 85.4231 39.468C85.7325 38.8707 86.1538 38.42 86.6871 38.116C87.2258 37.812 87.8391 37.66 88.5271 37.66C89.2098 37.66 89.8178 37.812 90.3511 38.116C90.8898 38.42 91.3111 38.8707 91.6151 39.468C91.9245 40.06 92.0791 40.796 92.0791 41.676C92.0791 42.5507 91.9245 43.2867 91.6151 43.884C91.3111 44.4813 90.8898 44.932 90.3511 45.236C89.8178 45.54 89.2098 45.692 88.5271 45.692ZM88.4951 44.604C88.9911 44.604 89.4125 44.4867 89.7591 44.252C90.1058 44.012 90.3671 43.6733 90.5431 43.236C90.7245 42.7987 90.8151 42.2787 90.8151 41.676C90.8151 40.764 90.6258 40.0467 90.2471 39.524C89.8685 38.996 89.3058 38.732 88.5591 38.732C88.0578 38.732 87.6338 38.852 87.2871 39.092C86.9458 39.3267 86.6845 39.6653 86.5031 40.108C86.3271 40.5453 86.2391 41.068 86.2391 41.676C86.2391 42.5773 86.4285 43.292 86.8071 43.82C87.1911 44.3427 87.7538 44.604 88.4951 44.604ZM99.8691 37.836H101.117V45.5H99.8691V37.836ZM94.4451 37.836H95.6931V42.604C95.6931 43.244 95.8478 43.7293 96.1571 44.06C96.4718 44.3907 96.9198 44.556 97.5011 44.556C97.9811 44.556 98.3971 44.428 98.7491 44.172C99.1065 43.916 99.3811 43.564 99.5731 43.116C99.7705 42.6627 99.8691 42.1453 99.8691 41.564H100.333C100.333 42.4227 100.208 43.156 99.9571 43.764C99.7118 44.372 99.3625 44.8387 98.9091 45.164C98.4611 45.484 97.9331 45.644 97.3251 45.644C96.7491 45.644 96.2451 45.5373 95.8131 45.324C95.3811 45.1107 95.0451 44.788 94.8051 44.356C94.5651 43.9187 94.4451 43.3667 94.4451 42.7V37.836ZM106.869 45.692C106.453 45.692 106.079 45.612 105.749 45.452C105.418 45.292 105.157 45.052 104.965 44.732C104.773 44.412 104.677 44.012 104.677 43.532V35.724H105.909V43.5C105.909 44.2893 106.277 44.684 107.013 44.684C107.231 44.684 107.442 44.66 107.645 44.612C107.853 44.564 108.085 44.492 108.341 44.396L108.517 45.292C108.245 45.4093 107.973 45.5053 107.701 45.58C107.434 45.6547 107.157 45.692 106.869 45.692ZM103.445 38.716V37.852H108.325V38.716H103.445ZM114.521 45.5V35.116H118.361C119.604 35.116 120.556 35.4067 121.217 35.988C121.884 36.5693 122.217 37.34 122.217 38.3C122.217 39.244 121.884 40.0067 121.217 40.588C120.556 41.164 119.604 41.452 118.361 41.452H116.409V45.5H114.521ZM120.137 45.5L117.385 40.636H119.401L122.601 45.5H120.137ZM116.409 40.188H118.169C118.862 40.188 119.388 40.0307 119.745 39.716C120.102 39.396 120.281 38.9827 120.281 38.476C120.281 37.9587 120.118 37.5427 119.793 37.228C119.468 36.908 118.99 36.748 118.361 36.748H116.409V40.188ZM128.946 45.724C128.023 45.724 127.207 45.5213 126.498 45.116C125.794 44.7107 125.242 44.1053 124.842 43.3C124.442 42.4947 124.242 41.4947 124.242 40.3C124.242 39.084 124.442 38.0787 124.842 37.284C125.242 36.484 125.794 35.8893 126.498 35.5C127.207 35.1053 128.023 34.908 128.946 34.908C129.874 34.908 130.693 35.1107 131.402 35.516C132.111 35.916 132.666 36.516 133.066 37.316C133.466 38.116 133.666 39.1107 133.666 40.3C133.666 41.5107 133.466 42.5187 133.066 43.324C132.666 44.1293 132.111 44.732 131.402 45.132C130.693 45.5267 129.874 45.724 128.946 45.724ZM128.946 44.012C129.794 44.012 130.466 43.692 130.962 43.052C131.463 42.412 131.714 41.4893 131.714 40.284C131.714 39.1213 131.463 38.2173 130.962 37.572C130.466 36.9267 129.794 36.604 128.946 36.604C128.114 36.604 127.447 36.9293 126.946 37.58C126.445 38.2253 126.194 39.132 126.194 40.3C126.194 41.5 126.445 42.42 126.946 43.06C127.447 43.6947 128.114 44.012 128.946 44.012ZM140.028 45.724C139.105 45.724 138.289 45.5213 137.58 45.116C136.876 44.7107 136.324 44.1053 135.924 43.3C135.524 42.4947 135.324 41.4947 135.324 40.3C135.324 39.084 135.524 38.0787 135.924 37.284C136.324 36.484 136.876 35.8893 137.58 35.5C138.289 35.1053 139.105 34.908 140.028 34.908C140.956 34.908 141.775 35.1107 142.484 35.516C143.193 35.916 143.748 36.516 144.148 37.316C144.548 38.116 144.748 39.1107 144.748 40.3C144.748 41.5107 144.548 42.5187 144.148 43.324C143.748 44.1293 143.193 44.732 142.484 45.132C141.775 45.5267 140.956 45.724 140.028 45.724ZM140.028 44.012C140.876 44.012 141.548 43.692 142.044 43.052C142.545 42.412 142.796 41.4893 142.796 40.284C142.796 39.1213 142.545 38.2173 142.044 37.572C141.548 36.9267 140.876 36.604 140.028 36.604C139.196 36.604 138.529 36.9293 138.028 37.58C137.527 38.2253 137.276 39.132 137.276 40.3C137.276 41.5 137.527 42.42 138.028 43.06C138.529 43.6947 139.196 44.012 140.028 44.012ZM145.75 36.748V35.116H154.07V36.748H150.43L150.854 36.316V45.5H148.966V36.316L149.39 36.748H145.75ZM163.785 45.724C162.873 45.724 162.078 45.508 161.401 45.076C160.729 44.6387 160.206 44.0147 159.833 43.204C159.459 42.3933 159.273 41.42 159.273 40.284C159.273 39.1107 159.465 38.1267 159.849 37.332C160.238 36.532 160.771 35.9293 161.449 35.524C162.131 35.1133 162.91 34.908 163.785 34.908C164.995 34.908 165.939 35.2013 166.617 35.788C167.299 36.3747 167.737 37.1373 167.929 38.076L165.913 38.444C165.747 37.9 165.483 37.46 165.121 37.124C164.758 36.788 164.313 36.62 163.785 36.62C163.321 36.62 162.902 36.756 162.529 37.028C162.155 37.2947 161.857 37.7 161.633 38.244C161.414 38.788 161.305 39.468 161.305 40.284C161.305 41.052 161.401 41.7133 161.593 42.268C161.79 42.8227 162.073 43.2493 162.441 43.548C162.809 43.8467 163.257 43.996 163.785 43.996C164.462 43.996 164.985 43.8173 165.353 43.46C165.726 43.0973 165.913 42.636 165.913 42.076H167.929C167.929 42.8493 167.761 43.508 167.425 44.052C167.094 44.5907 166.619 45.004 166.001 45.292C165.382 45.58 164.643 45.724 163.785 45.724ZM170.149 35.116H172.037V41.58C172.037 42.4333 172.253 43.0493 172.685 43.428C173.123 43.8067 173.68 43.996 174.357 43.996C175.04 43.996 175.597 43.8067 176.029 43.428C176.461 43.0493 176.677 42.4333 176.677 41.58V35.116H178.565V41.58C178.565 42.4547 178.397 43.2013 178.061 43.82C177.725 44.4387 177.243 44.9107 176.613 45.236C175.989 45.5613 175.237 45.724 174.357 45.724C173.477 45.724 172.723 45.5613 172.093 45.236C171.469 44.9107 170.989 44.4387 170.653 43.82C170.317 43.2013 170.149 42.4547 170.149 41.58V35.116ZM180.124 36.748V35.116H188.444V36.748H184.804L185.228 36.316V45.5H183.34V36.316L183.764 36.748H180.124ZM188.784 36.748V35.116H197.104V36.748H193.464L193.888 36.316V45.5H192V36.316L192.424 36.748H188.784ZM198.836 45.5V35.116H200.724V45.5H198.836ZM203.839 35.116H205.903L210.623 42.524H210.479V35.116H212.367V45.5H210.447L205.423 37.644H205.727V45.5H203.839V35.116ZM219.292 45.724C218.444 45.724 217.679 45.5 216.996 45.052C216.313 44.604 215.769 43.98 215.364 43.18C214.964 42.3747 214.764 41.436 214.764 40.364C214.764 39.516 214.887 38.756 215.132 38.084C215.383 37.412 215.729 36.8387 216.172 36.364C216.615 35.8893 217.135 35.5293 217.732 35.284C218.329 35.0333 218.977 34.908 219.676 34.908C220.647 34.908 221.46 35.1187 222.116 35.54C222.777 35.9613 223.292 36.6253 223.66 37.532L221.724 37.98C221.452 37.5373 221.137 37.2013 220.78 36.972C220.428 36.7373 220.028 36.62 219.58 36.62C219.068 36.62 218.601 36.772 218.18 37.076C217.759 37.3747 217.423 37.804 217.172 38.364C216.921 38.924 216.796 39.5907 216.796 40.364C216.796 41.0893 216.905 41.724 217.124 42.268C217.348 42.812 217.66 43.236 218.06 43.54C218.46 43.844 218.924 43.996 219.452 43.996C219.9 43.996 220.3 43.8973 220.652 43.7C221.009 43.4973 221.289 43.2093 221.492 42.836C221.7 42.4627 221.804 42.012 221.804 41.484H222.22C222.22 42.348 222.116 43.0973 221.908 43.732C221.705 44.3667 221.388 44.8573 220.956 45.204C220.524 45.5507 219.969 45.724 219.292 45.724ZM222.076 45.5L221.804 43.212V41.42L219.468 41.372V40.172H223.612V45.5H222.076Z" fill="#333333"/>
</g>
<defs>
<filter id="filter0_d_7054_5742" x="49" y="0" width="206.767" height="68" filterUnits="userSpaceOnUse" color-interpolation-filters="sRGB">
<feFlood flood-opacity="0" result="BackgroundImageFix"/>
<feColorMatrix in="SourceAlpha" type="matrix" values="0 0 0 0 0 0 0 0 0 0 0 0 0 0 0 0 0 0 127 0" result="hardAlpha"/>
<feOffset dy="4"/>
<feGaussianBlur stdDeviation="3"/>
<feComposite in2="hardAlpha" operator="out"/>
<feColorMatrix type="matrix" values="0 0 0 0 0 0 0 0 0 0 0 0 0 0 0 0 0 0 0.1 0"/>
<feBlend mode="normal" in2="BackgroundImageFix" result="effect1_dropShadow_7054_5742"/>
<feBlend mode="normal" in="SourceGraphic" in2="effect1_dropShadow_7054_5742" result="shape"/>
</filter>
<filter id="filter1_d_7054_5742" x="60.4862" y="12.4756" width="169.174" height="43.248" filterUnits="userSpaceOnUse" color-interpolation-filters="sRGB">
<feFlood flood-opacity="0" result="BackgroundImageFix"/>
<feColorMatrix in="SourceAlpha" type="matrix" values="0 0 0 0 0 0 0 0 0 0 0 0 0 0 0 0 0 0 127 0" result="hardAlpha"/>
<feOffset dy="4"/>
<feGaussianBlur stdDeviation="3"/>
<feComposite in2="hardAlpha" operator="out"/>
<feColorMatrix type="matrix" values="0 0 0 0 0 0 0 0 0 0 0 0 0 0 0 0 0 0 0.05 0"/>
<feBlend mode="normal" in2="BackgroundImageFix" result="effect1_dropShadow_7054_5742"/>
<feBlend mode="normal" in="SourceGraphic" in2="effect1_dropShadow_7054_5742" result="shape"/>
</filter>
</defs>
</svg>
