<svg width="263" height="68" viewBox="0 0 263 68" fill="none" xmlns="http://www.w3.org/2000/svg">
<path d="M7.04333 32.6331L16.7674 41V49C16.7674 53.9706 20.7968 58 25.7674 58L247.035 58C252.005 58 256.035 53.9706 256.035 49V11C256.035 6.02944 252.005 2 247.035 2L25.7674 2C20.7968 2 16.7674 6.02944 16.7674 11V20.5L7.15555 27.9931C5.66179 29.1575 5.60761 31.3978 7.04333 32.6331Z" fill="white"/>
<g filter="url(#filter0_d_7099_6055)">
<mask id="path-2-inside-1_7099_6055" fill="white">
<path d="M7.04333 32.6331L16.7674 41V49C16.7674 53.9706 20.7968 58 25.7674 58L247.035 58C252.005 58 256.035 53.9706 256.035 49V11C256.035 6.02944 252.005 2 247.035 2L25.7674 2C20.7968 2 16.7674 6.02944 16.7674 11V20.5L7.15555 27.9931C5.66179 29.1575 5.60761 31.3978 7.04333 32.6331Z"/>
</mask>
<path d="M7.04333 32.6331L16.7674 41V49C16.7674 53.9706 20.7968 58 25.7674 58L247.035 58C252.005 58 256.035 53.9706 256.035 49V11C256.035 6.02944 252.005 2 247.035 2L25.7674 2C20.7968 2 16.7674 6.02944 16.7674 11V20.5L7.15555 27.9931C5.66179 29.1575 5.60761 31.3978 7.04333 32.6331Z" fill="white"/>
<path d="M16.7674 41H18.1674V40.3577L17.6805 39.9388L16.7674 41ZM7.04333 32.6331L6.13021 33.6944L6.13021 33.6944L7.04333 32.6331ZM7.15555 27.9931L8.0163 29.0972L8.0163 29.0972L7.15555 27.9931ZM16.7674 20.5L17.6281 21.6041L18.1674 21.1838V20.5H16.7674ZM25.7674 2V0.6V2ZM247.035 2V3.4V2ZM17.6805 39.9388L7.95644 31.5719L6.13021 33.6944L15.8542 42.0612L17.6805 39.9388ZM8.0163 29.0972L17.6281 21.6041L15.9066 19.3959L6.2948 26.8889L8.0163 29.0972ZM7.95644 31.5719C7.19073 30.9131 7.21963 29.7183 8.0163 29.0972L6.2948 26.8889C4.10396 28.5968 4.02449 31.8825 6.13021 33.6944L7.95644 31.5719ZM25.7674 3.4L247.035 3.4L247.035 0.600003L25.7674 0.6L25.7674 3.4ZM254.635 11V49H257.435V11H254.635ZM247.035 56.6L25.7674 56.6V59.4L247.035 59.4V56.6ZM18.1674 20.5V11H15.3674V20.5H18.1674ZM18.1674 49V41H15.3674V49H18.1674ZM25.7674 56.6C21.57 56.6 18.1674 53.1974 18.1674 49H15.3674C15.3674 54.7438 20.0236 59.4 25.7674 59.4V56.6ZM254.635 49C254.635 53.1974 251.232 56.6 247.035 56.6V59.4C252.778 59.4 257.435 54.7438 257.435 49H254.635ZM247.035 3.4C251.232 3.4 254.635 6.80264 254.635 11H257.435C257.435 5.25624 252.778 0.600003 247.035 0.600003V3.4ZM25.7674 0.6C20.0236 0.6 15.3674 5.25624 15.3674 11H18.1674C18.1674 6.80264 21.57 3.4 25.7674 3.4V0.6Z" fill="#333333" mask="url(#path-2-inside-1_7099_6055)"/>
</g>
<g filter="url(#filter1_d_7099_6055)">
<path d="M32.616 25V14.952H33.864V25H32.616ZM43.9053 25.192C43.2919 25.192 42.7186 25.0267 42.1852 24.696C41.6572 24.3653 41.2306 23.8987 40.9052 23.296C40.5799 22.6933 40.4172 21.9813 40.4172 21.16C40.4172 20.3173 40.5799 19.5973 40.9052 19C41.2306 18.4027 41.6572 17.9467 42.1852 17.632C42.7186 17.3173 43.2919 17.16 43.9053 17.16C44.3372 17.16 44.7239 17.2267 45.0652 17.36C45.4119 17.488 45.7133 17.6667 45.9693 17.896C46.2253 18.1253 46.4359 18.3867 46.6013 18.68C46.7719 18.968 46.8973 19.272 46.9773 19.592L45.6972 19.704C45.5639 19.2613 45.3399 18.912 45.0252 18.656C44.7159 18.3947 44.3372 18.264 43.8892 18.264C43.5106 18.264 43.1532 18.3733 42.8172 18.592C42.4866 18.8053 42.2172 19.128 42.0092 19.56C41.8012 19.9867 41.6972 20.52 41.6972 21.16C41.6972 21.752 41.7906 22.2667 41.9772 22.704C42.1692 23.136 42.4306 23.472 42.7612 23.712C43.0919 23.952 43.4679 24.072 43.8892 24.072C44.4812 24.072 44.9292 23.928 45.2333 23.64C45.5426 23.3467 45.6972 22.9413 45.6972 22.424H46.9773C46.9773 22.9573 46.8519 23.432 46.6013 23.848C46.3506 24.264 45.9933 24.592 45.5293 24.832C45.0706 25.072 44.5292 25.192 43.9053 25.192ZM54.3632 25L54.2032 23.32V20.04C54.2032 19.352 54.0566 18.8587 53.7632 18.56C53.4699 18.256 53.0299 18.104 52.4432 18.104C52.1126 18.104 51.8112 18.152 51.5392 18.248C51.2726 18.344 51.0592 18.4933 50.8992 18.696C50.7446 18.8933 50.6672 19.1493 50.6672 19.464H49.2752C49.2752 18.9093 49.4112 18.464 49.6832 18.128C49.9552 17.7867 50.3286 17.5413 50.8032 17.392C51.2832 17.2373 51.8299 17.16 52.4432 17.16C53.0299 17.16 53.5499 17.2587 54.0032 17.456C54.4566 17.6533 54.8112 17.968 55.0672 18.4C55.3232 18.8267 55.4513 19.384 55.4513 20.072V25H54.3632ZM51.7552 25.192C51.1259 25.192 50.6059 25.08 50.1952 24.856C49.7846 24.632 49.4779 24.3413 49.2752 23.984C49.0726 23.6267 48.9712 23.2507 48.9712 22.856C48.9712 22.3387 49.0992 21.9173 49.3552 21.592C49.6166 21.2667 49.9712 21.0293 50.4192 20.88C50.8672 20.7253 51.3712 20.648 51.9312 20.648C52.3312 20.648 52.7312 20.688 53.1312 20.768C53.5366 20.848 53.9312 20.9573 54.3152 21.096V21.88C53.9952 21.752 53.6326 21.6507 53.2272 21.576C52.8272 21.5013 52.4592 21.464 52.1232 21.464C51.6112 21.464 51.1792 21.5707 50.8272 21.784C50.4752 21.992 50.2992 22.3493 50.2992 22.856C50.2992 23.2293 50.4326 23.5493 50.6992 23.816C50.9712 24.0827 51.4032 24.216 51.9952 24.216C52.4112 24.216 52.7846 24.12 53.1152 23.928C53.4512 23.7307 53.7152 23.4853 53.9072 23.192C54.1046 22.8987 54.2032 22.6053 54.2032 22.312H54.5072C54.5072 22.824 54.3952 23.2987 54.1712 23.736C53.9526 24.1733 53.6379 24.5253 53.2272 24.792C52.8166 25.0587 52.3259 25.192 51.7552 25.192ZM64.0397 25V20.504C64.0397 19.7733 63.8637 19.2187 63.5117 18.84C63.1651 18.456 62.6904 18.264 62.0877 18.264C61.6291 18.264 61.2317 18.3893 60.8957 18.64C60.5597 18.8907 60.3011 19.2507 60.1197 19.72C59.9384 20.184 59.8477 20.7387 59.8477 21.384H59.3677C59.3677 20.4933 59.4851 19.7333 59.7197 19.104C59.9544 18.4747 60.2957 17.9947 60.7437 17.664C61.1971 17.328 61.7464 17.16 62.3917 17.16C62.9944 17.16 63.5091 17.296 63.9357 17.568C64.3677 17.8347 64.6984 18.2187 64.9277 18.72C65.1571 19.2213 65.2717 19.816 65.2717 20.504V25H64.0397ZM58.5997 25V17.352H59.6717L59.8477 19.112V25H58.5997ZM75.0289 25.192C74.3675 25.192 73.7755 25.024 73.2529 24.688C72.7355 24.3467 72.3249 23.8747 72.0209 23.272C71.7222 22.6693 71.5729 21.976 71.5729 21.192C71.5729 20.3547 71.7222 19.6347 72.0209 19.032C72.3195 18.4293 72.7275 17.968 73.2449 17.648C73.7675 17.3227 74.3622 17.16 75.0289 17.16C75.6102 17.16 76.1062 17.2773 76.5169 17.512C76.9275 17.7467 77.2582 18.064 77.5089 18.464C77.7595 18.864 77.9329 19.3173 78.0289 19.824C78.1302 20.3253 78.1595 20.8453 78.1169 21.384H72.5809V20.616H77.2929L76.9249 20.856C76.9409 20.5413 76.9222 20.2267 76.8689 19.912C76.8209 19.5973 76.7275 19.3093 76.5889 19.048C76.4502 18.7813 76.2555 18.568 76.0049 18.408C75.7542 18.248 75.4342 18.168 75.0449 18.168C74.5542 18.168 74.1435 18.2933 73.8129 18.544C73.4822 18.7947 73.2342 19.1253 73.0689 19.536C72.9035 19.9413 72.8209 20.3813 72.8209 20.856V21.368C72.8209 21.9013 72.9009 22.3787 73.0609 22.8C73.2262 23.2213 73.4715 23.5547 73.7969 23.8C74.1222 24.0453 74.5329 24.168 75.0289 24.168C75.5249 24.168 75.9329 24.048 76.2529 23.808C76.5729 23.568 76.7675 23.2133 76.8369 22.744H78.1329C78.0529 23.2507 77.8715 23.688 77.5889 24.056C77.3062 24.4187 76.9462 24.6987 76.5089 24.896C76.0715 25.0933 75.5782 25.192 75.0289 25.192ZM79.5516 25L82.4476 21.176L79.5516 17.336H81.0716L83.2636 20.232L85.3756 17.336H86.8956L83.9836 21.176L86.8796 25H85.3596L83.1676 22.088L81.0716 25H79.5516ZM92.5711 25.192C92.0111 25.192 91.5231 25.064 91.1071 24.808C90.6965 24.552 90.3791 24.1787 90.1551 23.688C89.9311 23.192 89.8191 22.5893 89.8191 21.88H90.3471C90.3471 22.3547 90.4458 22.7547 90.6431 23.08C90.8405 23.4053 91.0965 23.6533 91.4111 23.824C91.7311 23.9893 92.0698 24.072 92.4271 24.072C92.8111 24.072 93.1791 23.9627 93.5311 23.744C93.8831 23.52 94.1711 23.192 94.3951 22.76C94.6191 22.328 94.7311 21.7947 94.7311 21.16C94.7311 20.552 94.6271 20.032 94.4191 19.6C94.2165 19.168 93.9418 18.8373 93.5951 18.608C93.2485 18.3787 92.8645 18.264 92.4431 18.264C92.0805 18.264 91.7391 18.352 91.4191 18.528C91.0991 18.704 90.8405 18.9627 90.6431 19.304C90.4458 19.64 90.3471 20.056 90.3471 20.552H89.8191C89.8191 19.8107 89.9418 19.1893 90.1871 18.688C90.4325 18.1813 90.7658 17.8 91.1871 17.544C91.6085 17.288 92.0805 17.16 92.6031 17.16C93.2005 17.16 93.7578 17.32 94.2751 17.64C94.7925 17.96 95.2111 18.4187 95.5311 19.016C95.8511 19.6133 96.0111 20.328 96.0111 21.16C96.0111 22.0027 95.8485 22.7253 95.5231 23.328C95.2031 23.9307 94.7818 24.392 94.2591 24.712C93.7365 25.032 93.1738 25.192 92.5711 25.192ZM89.0991 28.76V17.352H90.1391L90.3471 19.144V28.76H89.0991ZM98.6185 25V14.088H99.8665V25H98.6185ZM106.031 25.192C105.343 25.192 104.73 25.04 104.191 24.736C103.658 24.432 103.236 23.9813 102.927 23.384C102.618 22.7867 102.463 22.0507 102.463 21.176C102.463 20.296 102.618 19.56 102.927 18.968C103.236 18.3707 103.658 17.92 104.191 17.616C104.73 17.312 105.343 17.16 106.031 17.16C106.714 17.16 107.322 17.312 107.855 17.616C108.394 17.92 108.815 18.3707 109.119 18.968C109.428 19.56 109.583 20.296 109.583 21.176C109.583 22.0507 109.428 22.7867 109.119 23.384C108.815 23.9813 108.394 24.432 107.855 24.736C107.322 25.04 106.714 25.192 106.031 25.192ZM105.999 24.104C106.495 24.104 106.916 23.9867 107.263 23.752C107.61 23.512 107.871 23.1733 108.047 22.736C108.228 22.2987 108.319 21.7787 108.319 21.176C108.319 20.264 108.13 19.5467 107.751 19.024C107.372 18.496 106.81 18.232 106.063 18.232C105.562 18.232 105.138 18.352 104.791 18.592C104.45 18.8267 104.188 19.1653 104.007 19.608C103.831 20.0453 103.743 20.568 103.743 21.176C103.743 22.0773 103.932 22.792 104.311 23.32C104.695 23.8427 105.258 24.104 105.999 24.104ZM112.173 25V17.336H113.421V25H112.173ZM113.037 21.544C113.037 20.5733 113.13 19.768 113.317 19.128C113.504 18.4827 113.776 18.0027 114.133 17.688C114.496 17.368 114.936 17.208 115.453 17.208C115.624 17.208 115.778 17.2213 115.917 17.248C116.061 17.2693 116.205 17.304 116.349 17.352L116.269 18.584C116.12 18.536 115.957 18.496 115.781 18.464C115.605 18.4267 115.448 18.408 115.309 18.408C114.856 18.408 114.49 18.5387 114.213 18.8C113.936 19.056 113.733 19.4187 113.605 19.888C113.482 20.3573 113.421 20.9093 113.421 21.544H113.037ZM120.77 25.192C120.109 25.192 119.517 25.024 118.994 24.688C118.477 24.3467 118.066 23.8747 117.762 23.272C117.463 22.6693 117.314 21.976 117.314 21.192C117.314 20.3547 117.463 19.6347 117.762 19.032C118.061 18.4293 118.469 17.968 118.986 17.648C119.509 17.3227 120.103 17.16 120.77 17.16C121.351 17.16 121.847 17.2773 122.258 17.512C122.669 17.7467 122.999 18.064 123.25 18.464C123.501 18.864 123.674 19.3173 123.77 19.824C123.871 20.3253 123.901 20.8453 123.858 21.384H118.322V20.616H123.034L122.666 20.856C122.682 20.5413 122.663 20.2267 122.61 19.912C122.562 19.5973 122.469 19.3093 122.33 19.048C122.191 18.7813 121.997 18.568 121.746 18.408C121.495 18.248 121.175 18.168 120.786 18.168C120.295 18.168 119.885 18.2933 119.554 18.544C119.223 18.7947 118.975 19.1253 118.81 19.536C118.645 19.9413 118.562 20.3813 118.562 20.856V21.368C118.562 21.9013 118.642 22.3787 118.802 22.8C118.967 23.2213 119.213 23.5547 119.538 23.8C119.863 24.0453 120.274 24.168 120.77 24.168C121.266 24.168 121.674 24.048 121.994 23.808C122.314 23.568 122.509 23.2133 122.578 22.744H123.874C123.794 23.2507 123.613 23.688 123.33 24.056C123.047 24.4187 122.687 24.6987 122.25 24.896C121.813 25.0933 121.319 25.192 120.77 25.192ZM132.802 25.192C132.386 25.192 132.012 25.112 131.682 24.952C131.351 24.792 131.09 24.552 130.898 24.232C130.706 23.912 130.61 23.512 130.61 23.032V15.224H131.842V23C131.842 23.7893 132.21 24.184 132.946 24.184C133.164 24.184 133.375 24.16 133.578 24.112C133.786 24.064 134.018 23.992 134.274 23.896L134.45 24.792C134.178 24.9093 133.906 25.0053 133.634 25.08C133.367 25.1547 133.09 25.192 132.802 25.192ZM129.378 18.216V17.352H134.258V18.216H129.378ZM142.065 25V20.504C142.065 19.7733 141.889 19.2187 141.537 18.84C141.191 18.456 140.716 18.264 140.113 18.264C139.655 18.264 139.257 18.3893 138.921 18.64C138.585 18.8907 138.327 19.2507 138.145 19.72C137.964 20.184 137.873 20.7387 137.873 21.384H137.393C137.393 20.4933 137.511 19.7333 137.745 19.104C137.98 18.4747 138.321 17.9947 138.769 17.664C139.223 17.328 139.772 17.16 140.417 17.16C141.02 17.16 141.535 17.296 141.961 17.568C142.393 17.8347 142.724 18.2187 142.953 18.72C143.183 19.2213 143.297 19.816 143.297 20.504V25H142.065ZM136.625 25V14.088H137.873V25H136.625ZM149.098 25.192C148.436 25.192 147.844 25.024 147.322 24.688C146.804 24.3467 146.394 23.8747 146.09 23.272C145.791 22.6693 145.642 21.976 145.642 21.192C145.642 20.3547 145.791 19.6347 146.09 19.032C146.388 18.4293 146.796 17.968 147.314 17.648C147.836 17.3227 148.431 17.16 149.098 17.16C149.679 17.16 150.175 17.2773 150.586 17.512C150.996 17.7467 151.327 18.064 151.578 18.464C151.828 18.864 152.002 19.3173 152.098 19.824C152.199 20.3253 152.228 20.8453 152.186 21.384H146.65V20.616H151.362L150.994 20.856C151.01 20.5413 150.991 20.2267 150.938 19.912C150.89 19.5973 150.796 19.3093 150.658 19.048C150.519 18.7813 150.324 18.568 150.074 18.408C149.823 18.248 149.503 18.168 149.114 18.168C148.623 18.168 148.212 18.2933 147.882 18.544C147.551 18.7947 147.303 19.1253 147.138 19.536C146.972 19.9413 146.89 20.3813 146.89 20.856V21.368C146.89 21.9013 146.97 22.3787 147.13 22.8C147.295 23.2213 147.54 23.5547 147.866 23.8C148.191 24.0453 148.602 24.168 149.098 24.168C149.594 24.168 150.002 24.048 150.322 23.808C150.642 23.568 150.836 23.2133 150.906 22.744H152.202C152.122 23.2507 151.94 23.688 151.658 24.056C151.375 24.4187 151.015 24.6987 150.578 24.896C150.14 25.0933 149.647 25.192 149.098 25.192ZM169.529 25V20.504C169.529 19.7733 169.353 19.2187 169.001 18.84C168.655 18.456 168.185 18.264 167.593 18.264C166.9 18.264 166.369 18.5333 166.001 19.072C165.633 19.6053 165.449 20.344 165.449 21.288H164.873C164.873 20.6 164.94 19.9973 165.073 19.48C165.212 18.9627 165.412 18.5333 165.673 18.192C165.935 17.8453 166.252 17.5867 166.625 17.416C166.999 17.2453 167.423 17.16 167.897 17.16C168.5 17.16 169.015 17.296 169.441 17.568C169.873 17.8347 170.204 18.2187 170.433 18.72C170.663 19.2213 170.777 19.816 170.777 20.504V25H169.529ZM158.777 25V17.352H159.849L159.993 18.888C160.233 18.3333 160.569 17.9067 161.001 17.608C161.439 17.3093 161.961 17.16 162.569 17.16C163.172 17.16 163.687 17.296 164.113 17.568C164.545 17.8347 164.876 18.2187 165.105 18.72C165.335 19.2213 165.449 19.816 165.449 20.504V25H164.217V20.504C164.217 19.7733 164.041 19.2187 163.689 18.84C163.343 18.456 162.868 18.264 162.265 18.264C161.807 18.264 161.409 18.3893 161.073 18.64C160.737 18.8907 160.479 19.2507 160.297 19.72C160.116 20.184 160.025 20.7387 160.025 21.384V25H158.777ZM178.642 25L178.482 23.32V20.04C178.482 19.352 178.335 18.8587 178.042 18.56C177.749 18.256 177.309 18.104 176.722 18.104C176.391 18.104 176.09 18.152 175.818 18.248C175.551 18.344 175.338 18.4933 175.178 18.696C175.023 18.8933 174.946 19.1493 174.946 19.464H173.554C173.554 18.9093 173.69 18.464 173.962 18.128C174.234 17.7867 174.607 17.5413 175.082 17.392C175.562 17.2373 176.109 17.16 176.722 17.16C177.309 17.16 177.829 17.2587 178.282 17.456C178.735 17.6533 179.09 17.968 179.346 18.4C179.602 18.8267 179.73 19.384 179.73 20.072V25H178.642ZM176.034 25.192C175.405 25.192 174.885 25.08 174.474 24.856C174.063 24.632 173.757 24.3413 173.554 23.984C173.351 23.6267 173.25 23.2507 173.25 22.856C173.25 22.3387 173.378 21.9173 173.634 21.592C173.895 21.2667 174.25 21.0293 174.698 20.88C175.146 20.7253 175.65 20.648 176.21 20.648C176.61 20.648 177.01 20.688 177.41 20.768C177.815 20.848 178.21 20.9573 178.594 21.096V21.88C178.274 21.752 177.911 21.6507 177.506 21.576C177.106 21.5013 176.738 21.464 176.402 21.464C175.89 21.464 175.458 21.5707 175.106 21.784C174.754 21.992 174.578 22.3493 174.578 22.856C174.578 23.2293 174.711 23.5493 174.978 23.816C175.25 24.0827 175.682 24.216 176.274 24.216C176.69 24.216 177.063 24.12 177.394 23.928C177.73 23.7307 177.994 23.4853 178.186 23.192C178.383 22.8987 178.482 22.6053 178.482 22.312H178.786C178.786 22.824 178.674 23.2987 178.45 23.736C178.231 24.1733 177.917 24.5253 177.506 24.792C177.095 25.0587 176.605 25.192 176.034 25.192ZM183.582 15.544C183.326 15.544 183.124 15.472 182.974 15.328C182.825 15.1787 182.75 14.984 182.75 14.744C182.75 14.5093 182.825 14.3227 182.974 14.184C183.124 14.0453 183.326 13.976 183.582 13.976C183.838 13.976 184.041 14.0453 184.19 14.184C184.34 14.3227 184.414 14.5093 184.414 14.744C184.414 14.984 184.34 15.1787 184.19 15.328C184.041 15.472 183.838 15.544 183.582 15.544ZM182.958 25V17.336H184.206V25H182.958ZM193.244 25V20.504C193.244 19.7733 193.068 19.2187 192.716 18.84C192.369 18.456 191.895 18.264 191.292 18.264C190.833 18.264 190.436 18.3893 190.1 18.64C189.764 18.8907 189.505 19.2507 189.324 19.72C189.143 20.184 189.052 20.7387 189.052 21.384H188.572C188.572 20.4933 188.689 19.7333 188.924 19.104C189.159 18.4747 189.5 17.9947 189.948 17.664C190.401 17.328 190.951 17.16 191.596 17.16C192.199 17.16 192.713 17.296 193.14 17.568C193.572 17.8347 193.903 18.2187 194.132 18.72C194.361 19.2213 194.476 19.816 194.476 20.504V25H193.244ZM187.804 25V17.352H188.876L189.052 19.112V25H187.804ZM203.929 25.192C203.513 25.192 203.14 25.112 202.809 24.952C202.479 24.792 202.217 24.552 202.025 24.232C201.833 23.912 201.737 23.512 201.737 23.032V15.224H202.969V23C202.969 23.7893 203.337 24.184 204.073 24.184C204.292 24.184 204.503 24.16 204.705 24.112C204.913 24.064 205.145 23.992 205.401 23.896L205.577 24.792C205.305 24.9093 205.033 25.0053 204.761 25.08C204.495 25.1547 204.217 25.192 203.929 25.192ZM200.505 18.216V17.352H205.385V18.216H200.505ZM210.521 25.192C209.833 25.192 209.22 25.04 208.681 24.736C208.148 24.432 207.726 23.9813 207.417 23.384C207.108 22.7867 206.953 22.0507 206.953 21.176C206.953 20.296 207.108 19.56 207.417 18.968C207.726 18.3707 208.148 17.92 208.681 17.616C209.22 17.312 209.833 17.16 210.521 17.16C211.204 17.16 211.812 17.312 212.345 17.616C212.884 17.92 213.305 18.3707 213.609 18.968C213.918 19.56 214.073 20.296 214.073 21.176C214.073 22.0507 213.918 22.7867 213.609 23.384C213.305 23.9813 212.884 24.432 212.345 24.736C211.812 25.04 211.204 25.192 210.521 25.192ZM210.489 24.104C210.985 24.104 211.406 23.9867 211.753 23.752C212.1 23.512 212.361 23.1733 212.537 22.736C212.718 22.2987 212.809 21.7787 212.809 21.176C212.809 20.264 212.62 19.5467 212.241 19.024C211.862 18.496 211.3 18.232 210.553 18.232C210.052 18.232 209.628 18.352 209.281 18.592C208.94 18.8267 208.678 19.1653 208.497 19.608C208.321 20.0453 208.233 20.568 208.233 21.176C208.233 22.0773 208.422 22.792 208.801 23.32C209.185 23.8427 209.748 24.104 210.489 24.104ZM220.135 25.192C219.575 25.192 219.087 25.064 218.671 24.808C218.26 24.552 217.943 24.1787 217.719 23.688C217.495 23.192 217.383 22.5893 217.383 21.88H217.911C217.911 22.3547 218.01 22.7547 218.207 23.08C218.404 23.4053 218.66 23.6533 218.975 23.824C219.295 23.9893 219.634 24.072 219.991 24.072C220.375 24.072 220.743 23.9627 221.095 23.744C221.447 23.52 221.735 23.192 221.959 22.76C222.183 22.328 222.295 21.7947 222.295 21.16C222.295 20.552 222.191 20.032 221.983 19.6C221.78 19.168 221.506 18.8373 221.159 18.608C220.812 18.3787 220.428 18.264 220.007 18.264C219.644 18.264 219.303 18.352 218.983 18.528C218.663 18.704 218.404 18.9627 218.207 19.304C218.01 19.64 217.911 20.056 217.911 20.552H217.383C217.383 19.8107 217.506 19.1893 217.751 18.688C217.996 18.1813 218.33 17.8 218.751 17.544C219.172 17.288 219.644 17.16 220.167 17.16C220.764 17.16 221.322 17.32 221.839 17.64C222.356 17.96 222.775 18.4187 223.095 19.016C223.415 19.6133 223.575 20.328 223.575 21.16C223.575 22.0027 223.412 22.7253 223.087 23.328C222.767 23.9307 222.346 24.392 221.823 24.712C221.3 25.032 220.738 25.192 220.135 25.192ZM216.663 28.76V17.352H217.703L217.911 19.144V28.76H216.663ZM226.886 15.544C226.63 15.544 226.428 15.472 226.278 15.328C226.129 15.1787 226.054 14.984 226.054 14.744C226.054 14.5093 226.129 14.3227 226.278 14.184C226.428 14.0453 226.63 13.976 226.886 13.976C227.142 13.976 227.345 14.0453 227.494 14.184C227.644 14.3227 227.718 14.5093 227.718 14.744C227.718 14.984 227.644 15.1787 227.494 15.328C227.345 15.472 227.142 15.544 226.886 15.544ZM226.262 25V17.336H227.51V25H226.262ZM233.796 25.192C233.183 25.192 232.609 25.0267 232.076 24.696C231.548 24.3653 231.121 23.8987 230.796 23.296C230.471 22.6933 230.308 21.9813 230.308 21.16C230.308 20.3173 230.471 19.5973 230.796 19C231.121 18.4027 231.548 17.9467 232.076 17.632C232.609 17.3173 233.183 17.16 233.796 17.16C234.228 17.16 234.615 17.2267 234.956 17.36C235.303 17.488 235.604 17.6667 235.86 17.896C236.116 18.1253 236.327 18.3867 236.492 18.68C236.663 18.968 236.788 19.272 236.868 19.592L235.588 19.704C235.455 19.2613 235.231 18.912 234.916 18.656C234.607 18.3947 234.228 18.264 233.78 18.264C233.401 18.264 233.044 18.3733 232.708 18.592C232.377 18.8053 232.108 19.128 231.9 19.56C231.692 19.9867 231.588 20.52 231.588 21.16C231.588 21.752 231.681 22.2667 231.868 22.704C232.06 23.136 232.321 23.472 232.652 23.712C232.983 23.952 233.359 24.072 233.78 24.072C234.372 24.072 234.82 23.928 235.124 23.64C235.433 23.3467 235.588 22.9413 235.588 22.424H236.868C236.868 22.9573 236.743 23.432 236.492 23.848C236.241 24.264 235.884 24.592 235.42 24.832C234.961 25.072 234.42 25.192 233.796 25.192ZM242.27 25.192C241.529 25.192 240.91 25.088 240.414 24.88C239.918 24.6667 239.542 24.376 239.286 24.008C239.03 23.6347 238.894 23.208 238.878 22.728H240.078C240.105 23.2133 240.299 23.5787 240.662 23.824C241.03 24.064 241.529 24.184 242.158 24.184C242.489 24.184 242.793 24.1307 243.07 24.024C243.347 23.9173 243.569 23.7707 243.734 23.584C243.899 23.3973 243.982 23.1867 243.982 22.952C243.982 22.6533 243.873 22.4187 243.654 22.248C243.435 22.0773 243.086 21.928 242.606 21.8L241.118 21.32C240.473 21.1173 239.977 20.84 239.63 20.488C239.289 20.1307 239.118 19.704 239.118 19.208C239.118 18.5893 239.39 18.0933 239.934 17.72C240.478 17.3467 241.193 17.16 242.078 17.16C243.017 17.16 243.745 17.352 244.262 17.736C244.779 18.12 245.049 18.6 245.07 19.176H243.838C243.79 18.84 243.619 18.5867 243.326 18.416C243.033 18.24 242.617 18.152 242.078 18.152C241.561 18.152 241.155 18.2693 240.862 18.504C240.574 18.7333 240.43 18.9893 240.43 19.272C240.43 19.8 240.883 20.1893 241.79 20.44L243.31 20.952C243.966 21.1493 244.467 21.408 244.814 21.728C245.166 22.048 245.342 22.456 245.342 22.952C245.342 23.336 245.217 23.6987 244.966 24.04C244.715 24.3813 244.361 24.6587 243.902 24.872C243.443 25.0853 242.899 25.192 242.27 25.192ZM35.384 45.192C34.696 45.192 34.0827 45.04 33.544 44.736C33.0107 44.432 32.5893 43.9813 32.28 43.384C31.9707 42.7867 31.816 42.0507 31.816 41.176C31.816 40.296 31.9707 39.56 32.28 38.968C32.5893 38.3707 33.0107 37.92 33.544 37.616C34.0827 37.312 34.696 37.16 35.384 37.16C36.0667 37.16 36.6747 37.312 37.208 37.616C37.7467 37.92 38.168 38.3707 38.472 38.968C38.7813 39.56 38.936 40.296 38.936 41.176C38.936 42.0507 38.7813 42.7867 38.472 43.384C38.168 43.9813 37.7467 44.432 37.208 44.736C36.6747 45.04 36.0667 45.192 35.384 45.192ZM35.352 44.104C35.848 44.104 36.2693 43.9867 36.616 43.752C36.9627 43.512 37.224 43.1733 37.4 42.736C37.5813 42.2987 37.672 41.7787 37.672 41.176C37.672 40.264 37.4827 39.5467 37.104 39.024C36.7253 38.496 36.1627 38.232 35.416 38.232C34.9147 38.232 34.4907 38.352 34.144 38.592C33.8027 38.8267 33.5413 39.1653 33.36 39.608C33.184 40.0453 33.096 40.568 33.096 41.176C33.096 42.0773 33.2853 42.792 33.664 43.32C34.048 43.8427 34.6107 44.104 35.352 44.104ZM41.526 45V37.336H42.774V45H41.526ZM42.39 41.544C42.39 40.5733 42.4833 39.768 42.67 39.128C42.8567 38.4827 43.1287 38.0027 43.486 37.688C43.8487 37.368 44.2887 37.208 44.806 37.208C44.9767 37.208 45.1313 37.2213 45.27 37.248C45.414 37.2693 45.558 37.304 45.702 37.352L45.622 38.584C45.4727 38.536 45.31 38.496 45.134 38.464C44.958 38.4267 44.8007 38.408 44.662 38.408C44.2087 38.408 43.8433 38.5387 43.566 38.8C43.2887 39.056 43.086 39.4187 42.958 39.888C42.8353 40.3573 42.774 40.9093 42.774 41.544H42.39ZM51.4241 45V37.336H52.6721V45H51.4241ZM52.2881 41.544C52.2881 40.5733 52.3815 39.768 52.5681 39.128C52.7548 38.4827 53.0268 38.0027 53.3841 37.688C53.7468 37.368 54.1868 37.208 54.7041 37.208C54.8748 37.208 55.0295 37.2213 55.1681 37.248C55.3121 37.2693 55.4561 37.304 55.6001 37.352L55.5201 38.584C55.3708 38.536 55.2081 38.496 55.0321 38.464C54.8561 38.4267 54.6988 38.408 54.5601 38.408C54.1068 38.408 53.7415 38.5387 53.4641 38.8C53.1868 39.056 52.9841 39.4187 52.8561 39.888C52.7335 40.3573 52.6721 40.9093 52.6721 41.544H52.2881ZM60.0214 45.192C59.36 45.192 58.768 45.024 58.2454 44.688C57.728 44.3467 57.3174 43.8747 57.0134 43.272C56.7147 42.6693 56.5654 41.976 56.5654 41.192C56.5654 40.3547 56.7147 39.6347 57.0134 39.032C57.312 38.4293 57.72 37.968 58.2374 37.648C58.76 37.3227 59.3547 37.16 60.0214 37.16C60.6027 37.16 61.0987 37.2773 61.5094 37.512C61.92 37.7467 62.2507 38.064 62.5014 38.464C62.752 38.864 62.9254 39.3173 63.0214 39.824C63.1227 40.3253 63.152 40.8453 63.1094 41.384H57.5734V40.616H62.2854L61.9174 40.856C61.9334 40.5413 61.9147 40.2267 61.8614 39.912C61.8134 39.5973 61.72 39.3093 61.5814 39.048C61.4427 38.7813 61.248 38.568 60.9974 38.408C60.7467 38.248 60.4267 38.168 60.0374 38.168C59.5467 38.168 59.136 38.2933 58.8054 38.544C58.4747 38.7947 58.2267 39.1253 58.0614 39.536C57.896 39.9413 57.8134 40.3813 57.8134 40.856V41.368C57.8134 41.9013 57.8934 42.3787 58.0534 42.8C58.2187 43.2213 58.464 43.5547 58.7894 43.8C59.1147 44.0453 59.5254 44.168 60.0214 44.168C60.5174 44.168 60.9254 44.048 61.2454 43.808C61.5654 43.568 61.76 43.2133 61.8294 42.744H63.1254C63.0454 43.2507 62.864 43.688 62.5814 44.056C62.2987 44.4187 61.9387 44.6987 61.5014 44.896C61.064 45.0933 60.5707 45.192 60.0214 45.192ZM70.4801 45L70.3201 43.32V40.04C70.3201 39.352 70.1735 38.8587 69.8801 38.56C69.5868 38.256 69.1468 38.104 68.5601 38.104C68.2295 38.104 67.9281 38.152 67.6561 38.248C67.3895 38.344 67.1761 38.4933 67.0161 38.696C66.8615 38.8933 66.7841 39.1493 66.7841 39.464H65.3921C65.3921 38.9093 65.5281 38.464 65.8001 38.128C66.0721 37.7867 66.4455 37.5413 66.9201 37.392C67.4001 37.2373 67.9468 37.16 68.5601 37.16C69.1468 37.16 69.6668 37.2587 70.1201 37.456C70.5735 37.6533 70.9281 37.968 71.1841 38.4C71.4401 38.8267 71.5681 39.384 71.5681 40.072V45H70.4801ZM67.8721 45.192C67.2428 45.192 66.7228 45.08 66.3121 44.856C65.9015 44.632 65.5948 44.3413 65.3921 43.984C65.1895 43.6267 65.0881 43.2507 65.0881 42.856C65.0881 42.3387 65.2161 41.9173 65.4721 41.592C65.7335 41.2667 66.0881 41.0293 66.5361 40.88C66.9841 40.7253 67.4881 40.648 68.0481 40.648C68.4481 40.648 68.8481 40.688 69.2481 40.768C69.6535 40.848 70.0481 40.9573 70.4321 41.096V41.88C70.1121 41.752 69.7495 41.6507 69.3441 41.576C68.9441 41.5013 68.5761 41.464 68.2401 41.464C67.7281 41.464 67.2961 41.5707 66.9441 41.784C66.5921 41.992 66.4161 42.3493 66.4161 42.856C66.4161 43.2293 66.5495 43.5493 66.8161 43.816C67.0881 44.0827 67.5201 44.216 68.1121 44.216C68.5281 44.216 68.9015 44.12 69.2321 43.928C69.5681 43.7307 69.8321 43.4853 70.0241 43.192C70.2215 42.8987 70.3201 42.6053 70.3201 42.312H70.6241C70.6241 42.824 70.5121 43.2987 70.2881 43.736C70.0695 44.1733 69.7548 44.5253 69.3441 44.792C68.9335 45.0587 68.4428 45.192 67.8721 45.192ZM77.4526 45.192C76.834 45.192 76.266 45.0267 75.7486 44.696C75.2313 44.36 74.818 43.8907 74.5086 43.288C74.1993 42.68 74.0446 41.9653 74.0446 41.144C74.0446 40.328 74.1966 39.6213 74.5006 39.024C74.8046 38.4267 75.2073 37.968 75.7086 37.648C76.2153 37.3227 76.77 37.16 77.3726 37.16C77.9326 37.16 78.4233 37.296 78.8446 37.568C79.2713 37.84 79.602 38.232 79.8366 38.744C80.0713 39.256 80.1886 39.8747 80.1886 40.6H79.7086C79.7086 40.0933 79.6073 39.6667 79.4046 39.32C79.2073 38.9733 78.9486 38.712 78.6286 38.536C78.3086 38.3547 77.9646 38.264 77.5966 38.264C77.1806 38.264 76.7993 38.3813 76.4526 38.616C76.1113 38.8453 75.8366 39.176 75.6286 39.608C75.426 40.0347 75.3246 40.5467 75.3246 41.144C75.3246 41.752 75.426 42.2747 75.6286 42.712C75.8366 43.1493 76.1113 43.4853 76.4526 43.72C76.7993 43.9547 77.1806 44.072 77.5966 44.072C77.9433 44.072 78.2766 43.9813 78.5966 43.8C78.922 43.6187 79.1886 43.3547 79.3966 43.008C79.6046 42.656 79.7086 42.232 79.7086 41.736H80.1886C80.1886 42.4773 80.066 43.1067 79.8206 43.624C79.5806 44.136 79.2526 44.5253 78.8366 44.792C78.426 45.0587 77.9646 45.192 77.4526 45.192ZM79.9166 45L79.7086 43.208V34.088H80.9566V45H79.9166ZM90.6699 45.192C90.2539 45.192 89.8805 45.112 89.5499 44.952C89.2192 44.792 88.9579 44.552 88.7659 44.232C88.5739 43.912 88.4779 43.512 88.4779 43.032V35.224H89.7099V43C89.7099 43.7893 90.0779 44.184 90.8139 44.184C91.0325 44.184 91.2432 44.16 91.4459 44.112C91.6539 44.064 91.8859 43.992 92.1419 43.896L92.3179 44.792C92.0459 44.9093 91.7739 45.0053 91.5019 45.08C91.2352 45.1547 90.9579 45.192 90.6699 45.192ZM87.2459 38.216V37.352H92.1259V38.216H87.2459ZM99.9335 45V40.504C99.9335 39.7733 99.7575 39.2187 99.4055 38.84C99.0588 38.456 98.5842 38.264 97.9815 38.264C97.5228 38.264 97.1255 38.3893 96.7895 38.64C96.4535 38.8907 96.1948 39.2507 96.0135 39.72C95.8322 40.184 95.7415 40.7387 95.7415 41.384H95.2615C95.2615 40.4933 95.3788 39.7333 95.6135 39.104C95.8482 38.4747 96.1895 37.9947 96.6375 37.664C97.0908 37.328 97.6402 37.16 98.2855 37.16C98.8882 37.16 99.4028 37.296 99.8295 37.568C100.261 37.8347 100.592 38.2187 100.821 38.72C101.051 39.2213 101.165 39.816 101.165 40.504V45H99.9335ZM94.4935 45V34.088H95.7415V45H94.4935ZM106.966 45.192C106.304 45.192 105.712 45.024 105.19 44.688C104.672 44.3467 104.262 43.8747 103.958 43.272C103.659 42.6693 103.51 41.976 103.51 41.192C103.51 40.3547 103.659 39.6347 103.958 39.032C104.256 38.4293 104.664 37.968 105.182 37.648C105.704 37.3227 106.299 37.16 106.966 37.16C107.547 37.16 108.043 37.2773 108.454 37.512C108.864 37.7467 109.195 38.064 109.446 38.464C109.696 38.864 109.87 39.3173 109.966 39.824C110.067 40.3253 110.096 40.8453 110.054 41.384H104.518V40.616H109.23L108.862 40.856C108.878 40.5413 108.859 40.2267 108.806 39.912C108.758 39.5973 108.664 39.3093 108.526 39.048C108.387 38.7813 108.192 38.568 107.942 38.408C107.691 38.248 107.371 38.168 106.982 38.168C106.491 38.168 106.08 38.2933 105.75 38.544C105.419 38.7947 105.171 39.1253 105.006 39.536C104.84 39.9413 104.758 40.3813 104.758 40.856V41.368C104.758 41.9013 104.838 42.3787 104.998 42.8C105.163 43.2213 105.408 43.5547 105.734 43.8C106.059 44.0453 106.47 44.168 106.966 44.168C107.462 44.168 107.87 44.048 108.19 43.808C108.51 43.568 108.704 43.2133 108.774 42.744H110.07C109.99 43.2507 109.808 43.688 109.526 44.056C109.243 44.4187 108.883 44.6987 108.446 44.896C108.008 45.0933 107.515 45.192 106.966 45.192ZM117.349 35.544C117.093 35.544 116.891 35.472 116.741 35.328C116.592 35.1787 116.517 34.984 116.517 34.744C116.517 34.5093 116.592 34.3227 116.741 34.184C116.891 34.0453 117.093 33.976 117.349 33.976C117.605 33.976 117.808 34.0453 117.957 34.184C118.107 34.3227 118.181 34.5093 118.181 34.744C118.181 34.984 118.107 35.1787 117.957 35.328C117.808 35.472 117.605 35.544 117.349 35.544ZM116.725 45V37.336H117.973V45H116.725ZM127.011 45V40.504C127.011 39.7733 126.835 39.2187 126.483 38.84C126.136 38.456 125.662 38.264 125.059 38.264C124.6 38.264 124.203 38.3893 123.867 38.64C123.531 38.8907 123.272 39.2507 123.091 39.72C122.91 40.184 122.819 40.7387 122.819 41.384H122.339C122.339 40.4933 122.456 39.7333 122.691 39.104C122.926 38.4747 123.267 37.9947 123.715 37.664C124.168 37.328 124.718 37.16 125.363 37.16C125.966 37.16 126.48 37.296 126.907 37.568C127.339 37.8347 127.67 38.2187 127.899 38.72C128.128 39.2213 128.243 39.816 128.243 40.504V45H127.011ZM121.571 45V37.352H122.643L122.819 39.112V45H121.571ZM133.739 45.192C133.323 45.192 132.95 45.112 132.619 44.952C132.289 44.792 132.027 44.552 131.835 44.232C131.643 43.912 131.547 43.512 131.547 43.032V35.224H132.779V43C132.779 43.7893 133.147 44.184 133.883 44.184C134.102 44.184 134.313 44.16 134.515 44.112C134.723 44.064 134.955 43.992 135.211 43.896L135.387 44.792C135.115 44.9093 134.843 45.0053 134.571 45.08C134.305 45.1547 134.027 45.192 133.739 45.192ZM130.315 38.216V37.352H135.195V38.216H130.315ZM137.563 45V37.336H138.811V45H137.563ZM138.427 41.544C138.427 40.5733 138.52 39.768 138.707 39.128C138.894 38.4827 139.166 38.0027 139.523 37.688C139.886 37.368 140.326 37.208 140.843 37.208C141.014 37.208 141.168 37.2213 141.307 37.248C141.451 37.2693 141.595 37.304 141.739 37.352L141.659 38.584C141.51 38.536 141.347 38.496 141.171 38.464C140.995 38.4267 140.838 38.408 140.699 38.408C140.246 38.408 139.88 38.5387 139.603 38.8C139.326 39.056 139.123 39.4187 138.995 39.888C138.872 40.3573 138.811 40.9093 138.811 41.544H138.427ZM146.272 45.192C145.584 45.192 144.971 45.04 144.432 44.736C143.899 44.432 143.477 43.9813 143.168 43.384C142.859 42.7867 142.704 42.0507 142.704 41.176C142.704 40.296 142.859 39.56 143.168 38.968C143.477 38.3707 143.899 37.92 144.432 37.616C144.971 37.312 145.584 37.16 146.272 37.16C146.955 37.16 147.563 37.312 148.096 37.616C148.635 37.92 149.056 38.3707 149.36 38.968C149.669 39.56 149.824 40.296 149.824 41.176C149.824 42.0507 149.669 42.7867 149.36 43.384C149.056 43.9813 148.635 44.432 148.096 44.736C147.563 45.04 146.955 45.192 146.272 45.192ZM146.24 44.104C146.736 44.104 147.157 43.9867 147.504 43.752C147.851 43.512 148.112 43.1733 148.288 42.736C148.469 42.2987 148.56 41.7787 148.56 41.176C148.56 40.264 148.371 39.5467 147.992 39.024C147.613 38.496 147.051 38.232 146.304 38.232C145.803 38.232 145.379 38.352 145.032 38.592C144.691 38.8267 144.429 39.1653 144.248 39.608C144.072 40.0453 143.984 40.568 143.984 41.176C143.984 42.0773 144.173 42.792 144.552 43.32C144.936 43.8427 145.499 44.104 146.24 44.104ZM155.15 45.192C154.531 45.192 153.963 45.0267 153.446 44.696C152.929 44.36 152.515 43.8907 152.206 43.288C151.897 42.68 151.742 41.9653 151.742 41.144C151.742 40.328 151.894 39.6213 152.198 39.024C152.502 38.4267 152.905 37.968 153.406 37.648C153.913 37.3227 154.467 37.16 155.07 37.16C155.63 37.16 156.121 37.296 156.542 37.568C156.969 37.84 157.299 38.232 157.534 38.744C157.769 39.256 157.886 39.8747 157.886 40.6H157.406C157.406 40.0933 157.305 39.6667 157.102 39.32C156.905 38.9733 156.646 38.712 156.326 38.536C156.006 38.3547 155.662 38.264 155.294 38.264C154.878 38.264 154.497 38.3813 154.15 38.616C153.809 38.8453 153.534 39.176 153.326 39.608C153.123 40.0347 153.022 40.5467 153.022 41.144C153.022 41.752 153.123 42.2747 153.326 42.712C153.534 43.1493 153.809 43.4853 154.15 43.72C154.497 43.9547 154.878 44.072 155.294 44.072C155.641 44.072 155.974 43.9813 156.294 43.8C156.619 43.6187 156.886 43.3547 157.094 43.008C157.302 42.656 157.406 42.232 157.406 41.736H157.886C157.886 42.4773 157.763 43.1067 157.518 43.624C157.278 44.136 156.95 44.5253 156.534 44.792C156.123 45.0587 155.662 45.192 155.15 45.192ZM157.614 45L157.406 43.208V34.088H158.654V45H157.614ZM167.259 37.336H168.507V45H167.259V37.336ZM161.835 37.336H163.083V42.104C163.083 42.744 163.237 43.2293 163.547 43.56C163.861 43.8907 164.309 44.056 164.891 44.056C165.371 44.056 165.787 43.928 166.139 43.672C166.496 43.416 166.771 43.064 166.963 42.616C167.16 42.1627 167.259 41.6453 167.259 41.064H167.723C167.723 41.9227 167.597 42.656 167.347 43.264C167.101 43.872 166.752 44.3387 166.299 44.664C165.851 44.984 165.323 45.144 164.715 45.144C164.139 45.144 163.635 45.0373 163.203 44.824C162.771 44.6107 162.435 44.288 162.195 43.856C161.955 43.4187 161.835 42.8667 161.835 42.2V37.336ZM174.594 45.192C173.981 45.192 173.407 45.0267 172.874 44.696C172.346 44.3653 171.919 43.8987 171.594 43.296C171.269 42.6933 171.106 41.9813 171.106 41.16C171.106 40.3173 171.269 39.5973 171.594 39C171.919 38.4027 172.346 37.9467 172.874 37.632C173.407 37.3173 173.981 37.16 174.594 37.16C175.026 37.16 175.413 37.2267 175.754 37.36C176.101 37.488 176.402 37.6667 176.658 37.896C176.914 38.1253 177.125 38.3867 177.29 38.68C177.461 38.968 177.586 39.272 177.666 39.592L176.386 39.704C176.253 39.2613 176.029 38.912 175.714 38.656C175.405 38.3947 175.026 38.264 174.578 38.264C174.199 38.264 173.842 38.3733 173.506 38.592C173.175 38.8053 172.906 39.128 172.698 39.56C172.49 39.9867 172.386 40.52 172.386 41.16C172.386 41.752 172.479 42.2667 172.666 42.704C172.858 43.136 173.119 43.472 173.45 43.712C173.781 43.952 174.157 44.072 174.578 44.072C175.17 44.072 175.618 43.928 175.922 43.64C176.231 43.3467 176.386 42.9413 176.386 42.424H177.666C177.666 42.9573 177.541 43.432 177.29 43.848C177.039 44.264 176.682 44.592 176.218 44.832C175.759 45.072 175.218 45.192 174.594 45.192ZM182.668 45.192C182.252 45.192 181.879 45.112 181.548 44.952C181.217 44.792 180.956 44.552 180.764 44.232C180.572 43.912 180.476 43.512 180.476 43.032V35.224H181.708V43C181.708 43.7893 182.076 44.184 182.812 44.184C183.031 44.184 183.241 44.16 183.444 44.112C183.652 44.064 183.884 43.992 184.14 43.896L184.316 44.792C184.044 44.9093 183.772 45.0053 183.5 45.08C183.233 45.1547 182.956 45.192 182.668 45.192ZM179.244 38.216V37.352H184.124V38.216H179.244ZM187.196 35.544C186.94 35.544 186.737 35.472 186.588 35.328C186.438 35.1787 186.364 34.984 186.364 34.744C186.364 34.5093 186.438 34.3227 186.588 34.184C186.737 34.0453 186.94 33.976 187.196 33.976C187.452 33.976 187.654 34.0453 187.804 34.184C187.953 34.3227 188.028 34.5093 188.028 34.744C188.028 34.984 187.953 35.1787 187.804 35.328C187.654 35.472 187.452 35.544 187.196 35.544ZM186.572 45V37.336H187.82V45H186.572ZM194.185 45.192C193.497 45.192 192.884 45.04 192.345 44.736C191.812 44.432 191.391 43.9813 191.081 43.384C190.772 42.7867 190.617 42.0507 190.617 41.176C190.617 40.296 190.772 39.56 191.081 38.968C191.391 38.3707 191.812 37.92 192.345 37.616C192.884 37.312 193.497 37.16 194.185 37.16C194.868 37.16 195.476 37.312 196.009 37.616C196.548 37.92 196.969 38.3707 197.273 38.968C197.583 39.56 197.737 40.296 197.737 41.176C197.737 42.0507 197.583 42.7867 197.273 43.384C196.969 43.9813 196.548 44.432 196.009 44.736C195.476 45.04 194.868 45.192 194.185 45.192ZM194.153 44.104C194.649 44.104 195.071 43.9867 195.417 43.752C195.764 43.512 196.025 43.1733 196.201 42.736C196.383 42.2987 196.473 41.7787 196.473 41.176C196.473 40.264 196.284 39.5467 195.905 39.024C195.527 38.496 194.964 38.232 194.217 38.232C193.716 38.232 193.292 38.352 192.945 38.592C192.604 38.8267 192.343 39.1653 192.161 39.608C191.985 40.0453 191.897 40.568 191.897 41.176C191.897 42.0773 192.087 42.792 192.465 43.32C192.849 43.8427 193.412 44.104 194.153 44.104ZM205.767 45V40.504C205.767 39.7733 205.591 39.2187 205.239 38.84C204.893 38.456 204.418 38.264 203.815 38.264C203.357 38.264 202.959 38.3893 202.623 38.64C202.287 38.8907 202.029 39.2507 201.847 39.72C201.666 40.184 201.575 40.7387 201.575 41.384H201.095C201.095 40.4933 201.213 39.7333 201.447 39.104C201.682 38.4747 202.023 37.9947 202.471 37.664C202.925 37.328 203.474 37.16 204.119 37.16C204.722 37.16 205.237 37.296 205.663 37.568C206.095 37.8347 206.426 38.2187 206.655 38.72C206.885 39.2213 206.999 39.816 206.999 40.504V45H205.767ZM200.327 45V37.352H201.399L201.575 39.112V45H200.327ZM209.007 44.256C209.007 44.0053 209.095 43.7893 209.271 43.608C209.447 43.4267 209.669 43.336 209.935 43.336C210.202 43.336 210.429 43.4267 210.615 43.608C210.802 43.7893 210.895 44.0053 210.895 44.256C210.895 44.5067 210.802 44.7173 210.615 44.888C210.429 45.0587 210.202 45.144 209.935 45.144C209.669 45.144 209.447 45.0587 209.271 44.888C209.095 44.712 209.007 44.5013 209.007 44.256Z" fill="#333333"/>
</g>
<defs>
<filter id="filter0_d_7099_6055" x="0" y="0" width="262.035" height="68" filterUnits="userSpaceOnUse" color-interpolation-filters="sRGB">
<feFlood flood-opacity="0" result="BackgroundImageFix"/>
<feColorMatrix in="SourceAlpha" type="matrix" values="0 0 0 0 0 0 0 0 0 0 0 0 0 0 0 0 0 0 127 0" result="hardAlpha"/>
<feOffset dy="4"/>
<feGaussianBlur stdDeviation="3"/>
<feComposite in2="hardAlpha" operator="out"/>
<feColorMatrix type="matrix" values="0 0 0 0 0 0 0 0 0 0 0 0 0 0 0 0 0 0 0.1 0"/>
<feBlend mode="normal" in2="BackgroundImageFix" result="effect1_dropShadow_7099_6055"/>
<feBlend mode="normal" in="SourceGraphic" in2="effect1_dropShadow_7099_6055" result="shape"/>
</filter>
<filter id="filter1_d_7099_6055" x="25.8159" y="11.9756" width="225.526" height="43.2168" filterUnits="userSpaceOnUse" color-interpolation-filters="sRGB">
<feFlood flood-opacity="0" result="BackgroundImageFix"/>
<feColorMatrix in="SourceAlpha" type="matrix" values="0 0 0 0 0 0 0 0 0 0 0 0 0 0 0 0 0 0 127 0" result="hardAlpha"/>
<feOffset dy="4"/>
<feGaussianBlur stdDeviation="3"/>
<feComposite in2="hardAlpha" operator="out"/>
<feColorMatrix type="matrix" values="0 0 0 0 0 0 0 0 0 0 0 0 0 0 0 0 0 0 0.05 0"/>
<feBlend mode="normal" in2="BackgroundImageFix" result="effect1_dropShadow_7099_6055"/>
<feBlend mode="normal" in="SourceGraphic" in2="effect1_dropShadow_7099_6055" result="shape"/>
</filter>
</defs>
</svg>
