<svg width="256" height="88" viewBox="0 0 256 88" fill="none" xmlns="http://www.w3.org/2000/svg">
<path d="M248.956 36.4275L239.223 25.0724L239.223 14.2153C239.223 7.46952 235.189 2.001 230.214 2.001L9.0084 2.00098C4.03319 2.00098 6.16606e-06 7.4695 5.57632e-06 14.2153L1.06781e-06 65.7867C4.78073e-07 72.5324 4.03319 78.001 9.00839 78.001L230.214 78.001C235.189 78.001 239.223 72.5325 239.223 65.7867L239.223 52.8938L248.843 42.7247C250.339 41.1443 250.393 38.104 248.956 36.4275Z" fill="white"/>
<g filter="url(#filter0_d_7075_5703)">
<mask id="path-2-inside-1_7075_5703" fill="white">
<path d="M13.0433 41.6331L22.7674 50V69C22.7674 73.9706 26.7968 78 31.7674 78L240.767 78C245.738 78 249.767 73.9706 249.767 69V11C249.767 6.02944 245.738 2 240.767 2L31.7674 2C26.7968 2 22.7674 6.02944 22.7674 11L22.7674 29.5L13.1556 36.9931C11.6618 38.1575 11.6076 40.3978 13.0433 41.6331Z"/>
</mask>
<path d="M13.0433 41.6331L22.7674 50V69C22.7674 73.9706 26.7968 78 31.7674 78L240.767 78C245.738 78 249.767 73.9706 249.767 69V11C249.767 6.02944 245.738 2 240.767 2L31.7674 2C26.7968 2 22.7674 6.02944 22.7674 11L22.7674 29.5L13.1556 36.9931C11.6618 38.1575 11.6076 40.3978 13.0433 41.6331Z" fill="#F1F3FF"/>
<path d="M22.7674 50H24.1674V49.3577L23.6805 48.9388L22.7674 50ZM13.0433 41.6331L12.1302 42.6944L12.1302 42.6944L13.0433 41.6331ZM13.1556 36.9931L12.2948 35.8889L12.2948 35.8889L13.1556 36.9931ZM22.7674 29.5L23.6281 30.6041L24.1674 30.1838V29.5H22.7674ZM31.7674 2V0.6V2ZM240.767 2V3.4V2ZM23.6805 48.9388L13.9564 40.5719L12.1302 42.6944L21.8542 51.0612L23.6805 48.9388ZM14.0163 38.0972L23.6281 30.6041L21.9066 28.3959L12.2948 35.8889L14.0163 38.0972ZM13.9564 40.5719C13.1907 39.9131 13.2196 38.7183 14.0163 38.0972L12.2948 35.8889C10.104 37.5968 10.0245 40.8825 12.1302 42.6944L13.9564 40.5719ZM31.7674 3.4L240.767 3.4L240.767 0.600003L31.7674 0.6L31.7674 3.4ZM248.367 11V69H251.167V11H248.367ZM240.767 76.6L31.7674 76.6V79.4L240.767 79.4V76.6ZM24.1674 29.5L24.1674 11H21.3674L21.3674 29.5H24.1674ZM24.1674 69V50H21.3674V69H24.1674ZM31.7674 76.6C27.57 76.6 24.1674 73.1974 24.1674 69H21.3674C21.3674 74.7438 26.0236 79.4 31.7674 79.4V76.6ZM248.367 69C248.367 73.1974 244.965 76.6 240.767 76.6V79.4C246.511 79.4 251.167 74.7438 251.167 69H248.367ZM240.767 3.4C244.965 3.4 248.367 6.80264 248.367 11H251.167C251.167 5.25624 246.511 0.600003 240.767 0.600003V3.4ZM31.7674 0.6C26.0236 0.6 21.3674 5.25624 21.3674 11H24.1674C24.1674 6.80264 27.57 3.4 31.7674 3.4V0.6Z" fill="#4A5DC8" mask="url(#path-2-inside-1_7075_5703)"/>
</g>
<g filter="url(#filter1_d_7075_5703)">
<path d="M38.616 25V14.952H39.864V25H38.616ZM43.6764 25V16.168C43.6764 15.6613 43.7724 15.248 43.9644 14.928C44.1617 14.6027 44.423 14.3627 44.7484 14.208C45.079 14.0533 45.447 13.976 45.8524 13.976C46.071 13.976 46.2924 13.992 46.5164 14.024C46.7457 14.056 46.9724 14.104 47.1964 14.168L46.9564 15.16C46.7964 15.096 46.6364 15.048 46.4764 15.016C46.3217 14.984 46.1724 14.968 46.0284 14.968C45.8577 14.968 45.687 15 45.5164 15.064C45.3457 15.128 45.2044 15.248 45.0924 15.424C44.9804 15.6 44.9244 15.8533 44.9244 16.184V25H43.6764ZM42.4284 18.216V17.352H46.5084V18.216H42.4284ZM51.5976 17.352H52.9896L55.4856 23.912H55.1976L57.1336 17.352H58.4136L55.5336 26.536C55.2936 27.304 54.9736 27.896 54.5736 28.312C54.1736 28.728 53.6616 28.936 53.0376 28.936C52.7016 28.936 52.3816 28.888 52.0776 28.792C51.779 28.696 51.4696 28.5573 51.1496 28.376V27.224C51.4323 27.448 51.7043 27.608 51.9656 27.704C52.2323 27.8 52.5096 27.848 52.7976 27.848C53.1176 27.848 53.3843 27.7467 53.5976 27.544C53.8163 27.3413 53.9976 27.08 54.1416 26.76C54.2856 26.4453 54.4083 26.1147 54.5096 25.768L54.7336 25L51.5976 17.352ZM63.2427 25.192C62.5547 25.192 61.9414 25.04 61.4027 24.736C60.8694 24.432 60.4481 23.9813 60.1387 23.384C59.8294 22.7867 59.6747 22.0507 59.6747 21.176C59.6747 20.296 59.8294 19.56 60.1387 18.968C60.4481 18.3707 60.8694 17.92 61.4027 17.616C61.9414 17.312 62.5547 17.16 63.2427 17.16C63.9254 17.16 64.5334 17.312 65.0667 17.616C65.6054 17.92 66.0267 18.3707 66.3307 18.968C66.6401 19.56 66.7947 20.296 66.7947 21.176C66.7947 22.0507 66.6401 22.7867 66.3307 23.384C66.0267 23.9813 65.6054 24.432 65.0667 24.736C64.5334 25.04 63.9254 25.192 63.2427 25.192ZM63.2107 24.104C63.7067 24.104 64.1281 23.9867 64.4747 23.752C64.8214 23.512 65.0827 23.1733 65.2587 22.736C65.4401 22.2987 65.5307 21.7787 65.5307 21.176C65.5307 20.264 65.3414 19.5467 64.9627 19.024C64.5841 18.496 64.0214 18.232 63.2747 18.232C62.7734 18.232 62.3494 18.352 62.0027 18.592C61.6614 18.8267 61.4001 19.1653 61.2187 19.608C61.0427 20.0453 60.9547 20.568 60.9547 21.176C60.9547 22.0773 61.1441 22.792 61.5227 23.32C61.9067 23.8427 62.4694 24.104 63.2107 24.104ZM74.5847 17.336H75.8327V25H74.5847V17.336ZM69.1607 17.336H70.4087V22.104C70.4087 22.744 70.5634 23.2293 70.8727 23.56C71.1874 23.8907 71.6354 24.056 72.2167 24.056C72.6967 24.056 73.1127 23.928 73.4647 23.672C73.8221 23.416 74.0967 23.064 74.2887 22.616C74.4861 22.1627 74.5847 21.6453 74.5847 21.064H75.0487C75.0487 21.9227 74.9234 22.656 74.6727 23.264C74.4274 23.872 74.0781 24.3387 73.6247 24.664C73.1767 24.984 72.6487 25.144 72.0407 25.144C71.4647 25.144 70.9607 25.0373 70.5287 24.824C70.0967 24.6107 69.7607 24.288 69.5207 23.856C69.2807 23.4187 69.1607 22.8667 69.1607 22.2V17.336ZM93.9411 25V20.504C93.9411 19.7733 93.7651 19.2187 93.4131 18.84C93.0665 18.456 92.5971 18.264 92.0051 18.264C91.3118 18.264 90.7811 18.5333 90.4131 19.072C90.0451 19.6053 89.8611 20.344 89.8611 21.288H89.2851C89.2851 20.6 89.3518 19.9973 89.4851 19.48C89.6238 18.9627 89.8238 18.5333 90.0851 18.192C90.3465 17.8453 90.6638 17.5867 91.0371 17.416C91.4105 17.2453 91.8345 17.16 92.3091 17.16C92.9118 17.16 93.4265 17.296 93.8531 17.568C94.2851 17.8347 94.6158 18.2187 94.8451 18.72C95.0745 19.2213 95.1891 19.816 95.1891 20.504V25H93.9411ZM83.1891 25V17.352H84.2611L84.4051 18.888C84.6451 18.3333 84.9811 17.9067 85.4131 17.608C85.8505 17.3093 86.3731 17.16 86.9811 17.16C87.5838 17.16 88.0985 17.296 88.5251 17.568C88.9571 17.8347 89.2878 18.2187 89.5171 18.72C89.7465 19.2213 89.8611 19.816 89.8611 20.504V25H88.6291V20.504C88.6291 19.7733 88.4531 19.2187 88.1011 18.84C87.7545 18.456 87.2798 18.264 86.6771 18.264C86.2185 18.264 85.8211 18.3893 85.4851 18.64C85.1491 18.8907 84.8905 19.2507 84.7091 19.72C84.5278 20.184 84.4371 20.7387 84.4371 21.384V25H83.1891ZM100.974 25.192C100.313 25.192 99.7205 25.024 99.1979 24.688C98.6805 24.3467 98.2699 23.8747 97.9659 23.272C97.6672 22.6693 97.5179 21.976 97.5179 21.192C97.5179 20.3547 97.6672 19.6347 97.9659 19.032C98.2645 18.4293 98.6725 17.968 99.1899 17.648C99.7125 17.3227 100.307 17.16 100.974 17.16C101.555 17.16 102.051 17.2773 102.462 17.512C102.873 17.7467 103.203 18.064 103.454 18.464C103.705 18.864 103.878 19.3173 103.974 19.824C104.075 20.3253 104.105 20.8453 104.062 21.384H98.5259V20.616H103.238L102.87 20.856C102.886 20.5413 102.867 20.2267 102.814 19.912C102.766 19.5973 102.673 19.3093 102.534 19.048C102.395 18.7813 102.201 18.568 101.95 18.408C101.699 18.248 101.379 18.168 100.99 18.168C100.499 18.168 100.089 18.2933 99.7579 18.544C99.4272 18.7947 99.1792 19.1253 99.0139 19.536C98.8485 19.9413 98.7659 20.3813 98.7659 20.856V21.368C98.7659 21.9013 98.8459 22.3787 99.0059 22.8C99.1712 23.2213 99.4165 23.5547 99.7419 23.8C100.067 24.0453 100.478 24.168 100.974 24.168C101.47 24.168 101.878 24.048 102.198 23.808C102.518 23.568 102.713 23.2133 102.782 22.744H104.078C103.998 23.2507 103.817 23.688 103.534 24.056C103.251 24.4187 102.891 24.6987 102.454 24.896C102.017 25.0933 101.523 25.192 100.974 25.192ZM111.433 25L111.273 23.32V20.04C111.273 19.352 111.126 18.8587 110.833 18.56C110.539 18.256 110.099 18.104 109.513 18.104C109.182 18.104 108.881 18.152 108.609 18.248C108.342 18.344 108.129 18.4933 107.969 18.696C107.814 18.8933 107.737 19.1493 107.737 19.464H106.345C106.345 18.9093 106.481 18.464 106.753 18.128C107.025 17.7867 107.398 17.5413 107.873 17.392C108.353 17.2373 108.899 17.16 109.513 17.16C110.099 17.16 110.619 17.2587 111.073 17.456C111.526 17.6533 111.881 17.968 112.137 18.4C112.393 18.8267 112.521 19.384 112.521 20.072V25H111.433ZM108.825 25.192C108.195 25.192 107.675 25.08 107.265 24.856C106.854 24.632 106.547 24.3413 106.345 23.984C106.142 23.6267 106.041 23.2507 106.041 22.856C106.041 22.3387 106.169 21.9173 106.425 21.592C106.686 21.2667 107.041 21.0293 107.489 20.88C107.937 20.7253 108.441 20.648 109.001 20.648C109.401 20.648 109.801 20.688 110.201 20.768C110.606 20.848 111.001 20.9573 111.385 21.096V21.88C111.065 21.752 110.702 21.6507 110.297 21.576C109.897 21.5013 109.529 21.464 109.193 21.464C108.681 21.464 108.249 21.5707 107.897 21.784C107.545 21.992 107.369 22.3493 107.369 22.856C107.369 23.2293 107.502 23.5493 107.769 23.816C108.041 24.0827 108.473 24.216 109.065 24.216C109.481 24.216 109.854 24.12 110.185 23.928C110.521 23.7307 110.785 23.4853 110.977 23.192C111.174 22.8987 111.273 22.6053 111.273 22.312H111.577C111.577 22.824 111.465 23.2987 111.241 23.736C111.022 24.1733 110.707 24.5253 110.297 24.792C109.886 25.0587 109.395 25.192 108.825 25.192ZM121.109 25V20.504C121.109 19.7733 120.933 19.2187 120.581 18.84C120.234 18.456 119.76 18.264 119.157 18.264C118.698 18.264 118.301 18.3893 117.965 18.64C117.629 18.8907 117.37 19.2507 117.189 19.72C117.008 20.184 116.917 20.7387 116.917 21.384H116.437C116.437 20.4933 116.554 19.7333 116.789 19.104C117.024 18.4747 117.365 17.9947 117.813 17.664C118.266 17.328 118.816 17.16 119.461 17.16C120.064 17.16 120.578 17.296 121.005 17.568C121.437 17.8347 121.768 18.2187 121.997 18.72C122.226 19.2213 122.341 19.816 122.341 20.504V25H121.109ZM115.669 25V17.352H116.741L116.917 19.112V25H115.669ZM132.946 25.192C132.434 25.192 131.97 25.0587 131.554 24.792C131.144 24.5253 130.816 24.136 130.57 23.624C130.33 23.1067 130.21 22.4773 130.21 21.736H130.69C130.69 22.232 130.792 22.656 130.994 23.008C131.202 23.3547 131.469 23.6187 131.794 23.8C132.12 23.9813 132.461 24.072 132.818 24.072C133.229 24.072 133.605 23.9547 133.946 23.72C134.288 23.4853 134.56 23.1493 134.762 22.712C134.97 22.2747 135.074 21.752 135.074 21.144C135.074 20.5467 134.973 20.0347 134.77 19.608C134.568 19.176 134.293 18.8453 133.946 18.616C133.605 18.3813 133.224 18.264 132.802 18.264C132.44 18.264 132.096 18.3547 131.77 18.536C131.45 18.712 131.189 18.9733 130.986 19.32C130.789 19.6667 130.69 20.0933 130.69 20.6H130.21C130.21 19.8747 130.328 19.256 130.562 18.744C130.802 18.232 131.133 17.84 131.554 17.568C131.976 17.296 132.466 17.16 133.026 17.16C133.629 17.16 134.181 17.3227 134.682 17.648C135.189 17.968 135.594 18.4267 135.898 19.024C136.202 19.6213 136.354 20.328 136.354 21.144C136.354 21.9653 136.2 22.68 135.89 23.288C135.581 23.8907 135.168 24.36 134.65 24.696C134.133 25.0267 133.565 25.192 132.946 25.192ZM129.442 25V14.088H130.69V23.208L130.322 25H129.442ZM141.855 25.192C141.167 25.192 140.553 25.04 140.015 24.736C139.481 24.432 139.06 23.9813 138.751 23.384C138.441 22.7867 138.287 22.0507 138.287 21.176C138.287 20.296 138.441 19.56 138.751 18.968C139.06 18.3707 139.481 17.92 140.015 17.616C140.553 17.312 141.167 17.16 141.855 17.16C142.537 17.16 143.145 17.312 143.679 17.616C144.217 17.92 144.639 18.3707 144.943 18.968C145.252 19.56 145.407 20.296 145.407 21.176C145.407 22.0507 145.252 22.7867 144.943 23.384C144.639 23.9813 144.217 24.432 143.679 24.736C143.145 25.04 142.537 25.192 141.855 25.192ZM141.823 24.104C142.319 24.104 142.74 23.9867 143.087 23.752C143.433 23.512 143.695 23.1733 143.871 22.736C144.052 22.2987 144.143 21.7787 144.143 21.176C144.143 20.264 143.953 19.5467 143.575 19.024C143.196 18.496 142.633 18.232 141.887 18.232C141.385 18.232 140.961 18.352 140.615 18.592C140.273 18.8267 140.012 19.1653 139.831 19.608C139.655 20.0453 139.567 20.568 139.567 21.176C139.567 22.0773 139.756 22.792 140.135 23.32C140.519 23.8427 141.081 24.104 141.823 24.104ZM150.765 25.192C150.077 25.192 149.463 25.04 148.925 24.736C148.391 24.432 147.97 23.9813 147.661 23.384C147.351 22.7867 147.197 22.0507 147.197 21.176C147.197 20.296 147.351 19.56 147.661 18.968C147.97 18.3707 148.391 17.92 148.925 17.616C149.463 17.312 150.077 17.16 150.765 17.16C151.447 17.16 152.055 17.312 152.589 17.616C153.127 17.92 153.549 18.3707 153.853 18.968C154.162 19.56 154.317 20.296 154.317 21.176C154.317 22.0507 154.162 22.7867 153.853 23.384C153.549 23.9813 153.127 24.432 152.589 24.736C152.055 25.04 151.447 25.192 150.765 25.192ZM150.733 24.104C151.229 24.104 151.65 23.9867 151.997 23.752C152.343 23.512 152.605 23.1733 152.781 22.736C152.962 22.2987 153.053 21.7787 153.053 21.176C153.053 20.264 152.863 19.5467 152.485 19.024C152.106 18.496 151.543 18.232 150.797 18.232C150.295 18.232 149.871 18.352 149.525 18.592C149.183 18.8267 148.922 19.1653 148.741 19.608C148.565 20.0453 148.477 20.568 148.477 21.176C148.477 22.0773 148.666 22.792 149.045 23.32C149.429 23.8427 149.991 24.104 150.733 24.104ZM156.907 25V14.088H158.155V25H156.907ZM157.963 20.616L161.867 17.352H163.611L157.963 21.944V20.616ZM162.251 25L158.619 20.168L159.883 19.944L163.787 25H162.251ZM176.834 25V20.504C176.834 19.7733 176.658 19.2187 176.306 18.84C175.96 18.456 175.49 18.264 174.898 18.264C174.205 18.264 173.674 18.5333 173.306 19.072C172.938 19.6053 172.754 20.344 172.754 21.288H172.178C172.178 20.6 172.245 19.9973 172.378 19.48C172.517 18.9627 172.717 18.5333 172.978 18.192C173.24 17.8453 173.557 17.5867 173.93 17.416C174.304 17.2453 174.728 17.16 175.202 17.16C175.805 17.16 176.32 17.296 176.746 17.568C177.178 17.8347 177.509 18.2187 177.738 18.72C177.968 19.2213 178.082 19.816 178.082 20.504V25H176.834ZM166.082 25V17.352H167.154L167.298 18.888C167.538 18.3333 167.874 17.9067 168.306 17.608C168.744 17.3093 169.266 17.16 169.874 17.16C170.477 17.16 170.992 17.296 171.418 17.568C171.85 17.8347 172.181 18.2187 172.41 18.72C172.64 19.2213 172.754 19.816 172.754 20.504V25H171.522V20.504C171.522 19.7733 171.346 19.2187 170.994 18.84C170.648 18.456 170.173 18.264 169.57 18.264C169.112 18.264 168.714 18.3893 168.378 18.64C168.042 18.8907 167.784 19.2507 167.602 19.72C167.421 20.184 167.33 20.7387 167.33 21.384V25H166.082ZM185.947 25L185.787 23.32V20.04C185.787 19.352 185.64 18.8587 185.347 18.56C185.054 18.256 184.614 18.104 184.027 18.104C183.696 18.104 183.395 18.152 183.123 18.248C182.856 18.344 182.643 18.4933 182.483 18.696C182.328 18.8933 182.251 19.1493 182.251 19.464H180.859C180.859 18.9093 180.995 18.464 181.267 18.128C181.539 17.7867 181.912 17.5413 182.387 17.392C182.867 17.2373 183.414 17.16 184.027 17.16C184.614 17.16 185.134 17.2587 185.587 17.456C186.04 17.6533 186.395 17.968 186.651 18.4C186.907 18.8267 187.035 19.384 187.035 20.072V25H185.947ZM183.339 25.192C182.71 25.192 182.19 25.08 181.779 24.856C181.368 24.632 181.062 24.3413 180.859 23.984C180.656 23.6267 180.555 23.2507 180.555 22.856C180.555 22.3387 180.683 21.9173 180.939 21.592C181.2 21.2667 181.555 21.0293 182.003 20.88C182.451 20.7253 182.955 20.648 183.515 20.648C183.915 20.648 184.315 20.688 184.715 20.768C185.12 20.848 185.515 20.9573 185.899 21.096V21.88C185.579 21.752 185.216 21.6507 184.811 21.576C184.411 21.5013 184.043 21.464 183.707 21.464C183.195 21.464 182.763 21.5707 182.411 21.784C182.059 21.992 181.883 22.3493 181.883 22.856C181.883 23.2293 182.016 23.5493 182.283 23.816C182.555 24.0827 182.987 24.216 183.579 24.216C183.995 24.216 184.368 24.12 184.699 23.928C185.035 23.7307 185.299 23.4853 185.491 23.192C185.688 22.8987 185.787 22.6053 185.787 22.312H186.091C186.091 22.824 185.979 23.2987 185.755 23.736C185.536 24.1733 185.222 24.5253 184.811 24.792C184.4 25.0587 183.91 25.192 183.339 25.192ZM190.184 25V17.336H191.432V25H190.184ZM191.048 21.544C191.048 20.5733 191.141 19.768 191.328 19.128C191.514 18.4827 191.786 18.0027 192.144 17.688C192.506 17.368 192.946 17.208 193.464 17.208C193.634 17.208 193.789 17.2213 193.928 17.248C194.072 17.2693 194.216 17.304 194.36 17.352L194.28 18.584C194.13 18.536 193.968 18.496 193.792 18.464C193.616 18.4267 193.458 18.408 193.32 18.408C192.866 18.408 192.501 18.5387 192.224 18.8C191.946 19.056 191.744 19.4187 191.616 19.888C191.493 20.3573 191.432 20.9093 191.432 21.544H191.048ZM196.125 25V14.088H197.373V25H196.125ZM197.181 20.616L201.085 17.352H202.829L197.181 21.944V20.616ZM201.469 25L197.837 20.168L199.101 19.944L203.005 25H201.469ZM41.304 45.192C40.6907 45.192 40.1173 45.0267 39.584 44.696C39.056 44.3653 38.6293 43.8987 38.304 43.296C37.9787 42.6933 37.816 41.9813 37.816 41.16C37.816 40.3173 37.9787 39.5973 38.304 39C38.6293 38.4027 39.056 37.9467 39.584 37.632C40.1173 37.3173 40.6907 37.16 41.304 37.16C41.736 37.16 42.1227 37.2267 42.464 37.36C42.8107 37.488 43.112 37.6667 43.368 37.896C43.624 38.1253 43.8347 38.3867 44 38.68C44.1707 38.968 44.296 39.272 44.376 39.592L43.096 39.704C42.9627 39.2613 42.7387 38.912 42.424 38.656C42.1147 38.3947 41.736 38.264 41.288 38.264C40.9093 38.264 40.552 38.3733 40.216 38.592C39.8853 38.8053 39.616 39.128 39.408 39.56C39.2 39.9867 39.096 40.52 39.096 41.16C39.096 41.752 39.1893 42.2667 39.376 42.704C39.568 43.136 39.8293 43.472 40.16 43.712C40.4907 43.952 40.8667 44.072 41.288 44.072C41.88 44.072 42.328 43.928 42.632 43.64C42.9413 43.3467 43.096 42.9413 43.096 42.424H44.376C44.376 42.9573 44.2507 43.432 44 43.848C43.7493 44.264 43.392 44.592 42.928 44.832C42.4693 45.072 41.928 45.192 41.304 45.192ZM49.794 45.192C49.106 45.192 48.4927 45.04 47.954 44.736C47.4207 44.432 46.9993 43.9813 46.69 43.384C46.3807 42.7867 46.226 42.0507 46.226 41.176C46.226 40.296 46.3807 39.56 46.69 38.968C46.9993 38.3707 47.4207 37.92 47.954 37.616C48.4927 37.312 49.106 37.16 49.794 37.16C50.4767 37.16 51.0847 37.312 51.618 37.616C52.1567 37.92 52.578 38.3707 52.882 38.968C53.1913 39.56 53.346 40.296 53.346 41.176C53.346 42.0507 53.1913 42.7867 52.882 43.384C52.578 43.9813 52.1567 44.432 51.618 44.736C51.0847 45.04 50.4767 45.192 49.794 45.192ZM49.762 44.104C50.258 44.104 50.6793 43.9867 51.026 43.752C51.3727 43.512 51.634 43.1733 51.81 42.736C51.9913 42.2987 52.082 41.7787 52.082 41.176C52.082 40.264 51.8927 39.5467 51.514 39.024C51.1353 38.496 50.5727 38.232 49.826 38.232C49.3247 38.232 48.9007 38.352 48.554 38.592C48.2127 38.8267 47.9513 39.1653 47.77 39.608C47.594 40.0453 47.506 40.568 47.506 41.176C47.506 42.0773 47.6953 42.792 48.074 43.32C48.458 43.8427 49.0207 44.104 49.762 44.104ZM61.376 45V40.504C61.376 39.7733 61.2 39.2187 60.848 38.84C60.5013 38.456 60.0267 38.264 59.424 38.264C58.9653 38.264 58.568 38.3893 58.232 38.64C57.896 38.8907 57.6373 39.2507 57.456 39.72C57.2747 40.184 57.184 40.7387 57.184 41.384H56.704C56.704 40.4933 56.8213 39.7333 57.056 39.104C57.2907 38.4747 57.632 37.9947 58.08 37.664C58.5333 37.328 59.0827 37.16 59.728 37.16C60.3307 37.16 60.8453 37.296 61.272 37.568C61.704 37.8347 62.0347 38.2187 62.264 38.72C62.4933 39.2213 62.608 39.816 62.608 40.504V45H61.376ZM55.936 45V37.352H57.008L57.184 39.112V45H55.936ZM68.1042 45.192C67.6882 45.192 67.3149 45.112 66.9842 44.952C66.6536 44.792 66.3922 44.552 66.2002 44.232C66.0082 43.912 65.9122 43.512 65.9122 43.032V35.224H67.1442V43C67.1442 43.7893 67.5122 44.184 68.2482 44.184C68.4669 44.184 68.6776 44.16 68.8802 44.112C69.0882 44.064 69.3202 43.992 69.5762 43.896L69.7522 44.792C69.4802 44.9093 69.2082 45.0053 68.9362 45.08C68.6696 45.1547 68.3922 45.192 68.1042 45.192ZM64.6802 38.216V37.352H69.5602V38.216H64.6802ZM74.5839 45.192C73.9225 45.192 73.3305 45.024 72.8079 44.688C72.2905 44.3467 71.8799 43.8747 71.5759 43.272C71.2772 42.6693 71.1279 41.976 71.1279 41.192C71.1279 40.3547 71.2772 39.6347 71.5759 39.032C71.8745 38.4293 72.2825 37.968 72.7999 37.648C73.3225 37.3227 73.9172 37.16 74.5839 37.16C75.1652 37.16 75.6612 37.2773 76.0719 37.512C76.4825 37.7467 76.8132 38.064 77.0639 38.464C77.3145 38.864 77.4879 39.3173 77.5839 39.824C77.6852 40.3253 77.7145 40.8453 77.6719 41.384H72.1359V40.616H76.8479L76.4799 40.856C76.4959 40.5413 76.4772 40.2267 76.4239 39.912C76.3759 39.5973 76.2825 39.3093 76.1439 39.048C76.0052 38.7813 75.8105 38.568 75.5599 38.408C75.3092 38.248 74.9892 38.168 74.5999 38.168C74.1092 38.168 73.6985 38.2933 73.3679 38.544C73.0372 38.7947 72.7892 39.1253 72.6239 39.536C72.4585 39.9413 72.3759 40.3813 72.3759 40.856V41.368C72.3759 41.9013 72.4559 42.3787 72.6159 42.8C72.7812 43.2213 73.0265 43.5547 73.3519 43.8C73.6772 44.0453 74.0879 44.168 74.5839 44.168C75.0799 44.168 75.4879 44.048 75.8079 43.808C76.1279 43.568 76.3225 43.2133 76.3919 42.744H77.6879C77.6079 43.2507 77.4265 43.688 77.1439 44.056C76.8612 44.4187 76.5012 44.6987 76.0639 44.896C75.6265 45.0933 75.1332 45.192 74.5839 45.192ZM85.7466 45V40.504C85.7466 39.7733 85.5706 39.2187 85.2186 38.84C84.872 38.456 84.3973 38.264 83.7946 38.264C83.336 38.264 82.9386 38.3893 82.6026 38.64C82.2666 38.8907 82.008 39.2507 81.8266 39.72C81.6453 40.184 81.5546 40.7387 81.5546 41.384H81.0746C81.0746 40.4933 81.192 39.7333 81.4266 39.104C81.6613 38.4747 82.0026 37.9947 82.4506 37.664C82.904 37.328 83.4533 37.16 84.0986 37.16C84.7013 37.16 85.216 37.296 85.6426 37.568C86.0746 37.8347 86.4053 38.2187 86.6346 38.72C86.864 39.2213 86.9786 39.816 86.9786 40.504V45H85.7466ZM80.3066 45V37.352H81.3786L81.5546 39.112V45H80.3066ZM92.4749 45.192C92.0589 45.192 91.6855 45.112 91.3549 44.952C91.0242 44.792 90.7629 44.552 90.5709 44.232C90.3789 43.912 90.2829 43.512 90.2829 43.032V35.224H91.5149V43C91.5149 43.7893 91.8829 44.184 92.6189 44.184C92.8375 44.184 93.0482 44.16 93.2509 44.112C93.4589 44.064 93.6909 43.992 93.9469 43.896L94.1229 44.792C93.8509 44.9093 93.5789 45.0053 93.3069 45.08C93.0402 45.1547 92.7629 45.192 92.4749 45.192ZM89.0509 38.216V37.352H93.9309V38.216H89.0509ZM99.0505 45.192C98.3092 45.192 97.6905 45.088 97.1945 44.88C96.6985 44.6667 96.3225 44.376 96.0665 44.008C95.8105 43.6347 95.6745 43.208 95.6585 42.728H96.8585C96.8852 43.2133 97.0798 43.5787 97.4425 43.824C97.8105 44.064 98.3092 44.184 98.9385 44.184C99.2692 44.184 99.5732 44.1307 99.8505 44.024C100.128 43.9173 100.349 43.7707 100.514 43.584C100.68 43.3973 100.762 43.1867 100.762 42.952C100.762 42.6533 100.653 42.4187 100.434 42.248C100.216 42.0773 99.8665 41.928 99.3865 41.8L97.8985 41.32C97.2532 41.1173 96.7572 40.84 96.4105 40.488C96.0692 40.1307 95.8985 39.704 95.8985 39.208C95.8985 38.5893 96.1705 38.0933 96.7145 37.72C97.2585 37.3467 97.9732 37.16 98.8585 37.16C99.7972 37.16 100.525 37.352 101.042 37.736C101.56 38.12 101.829 38.6 101.85 39.176H100.618C100.57 38.84 100.4 38.5867 100.106 38.416C99.8132 38.24 99.3972 38.152 98.8585 38.152C98.3412 38.152 97.9358 38.2693 97.6425 38.504C97.3545 38.7333 97.2105 38.9893 97.2105 39.272C97.2105 39.8 97.6638 40.1893 98.5705 40.44L100.09 40.952C100.746 41.1493 101.248 41.408 101.594 41.728C101.946 42.048 102.122 42.456 102.122 42.952C102.122 43.336 101.997 43.6987 101.746 44.04C101.496 44.3813 101.141 44.6587 100.682 44.872C100.224 45.0853 99.6798 45.192 99.0505 45.192ZM104.673 46.744L103.729 46.28C104.033 46.1253 104.289 45.9547 104.497 45.768C104.71 45.5813 104.849 45.352 104.913 45.08C104.683 45.0533 104.486 44.9707 104.321 44.832C104.161 44.6933 104.081 44.5093 104.081 44.28C104.081 44.056 104.163 43.864 104.329 43.704C104.499 43.544 104.715 43.464 104.977 43.464C105.307 43.464 105.574 43.584 105.777 43.824C105.979 44.064 106.081 44.3493 106.081 44.68C106.081 45.0693 105.961 45.4507 105.721 45.824C105.486 46.2027 105.137 46.5093 104.673 46.744ZM111.061 37.352H112.453L114.949 43.912H114.661L116.597 37.352H117.877L114.997 46.536C114.757 47.304 114.437 47.896 114.037 48.312C113.637 48.728 113.125 48.936 112.501 48.936C112.165 48.936 111.845 48.888 111.541 48.792C111.243 48.696 110.933 48.5573 110.613 48.376V47.224C110.896 47.448 111.168 47.608 111.429 47.704C111.696 47.8 111.973 47.848 112.261 47.848C112.581 47.848 112.848 47.7467 113.061 47.544C113.28 47.3413 113.461 47.08 113.605 46.76C113.749 46.4453 113.872 46.1147 113.973 45.768L114.197 45L111.061 37.352ZM122.595 45.192C121.933 45.192 121.341 45.024 120.819 44.688C120.301 44.3467 119.891 43.8747 119.587 43.272C119.288 42.6693 119.139 41.976 119.139 41.192C119.139 40.3547 119.288 39.6347 119.587 39.032C119.885 38.4293 120.293 37.968 120.811 37.648C121.333 37.3227 121.928 37.16 122.595 37.16C123.176 37.16 123.672 37.2773 124.083 37.512C124.493 37.7467 124.824 38.064 125.075 38.464C125.325 38.864 125.499 39.3173 125.595 39.824C125.696 40.3253 125.725 40.8453 125.683 41.384H120.147V40.616H124.859L124.491 40.856C124.507 40.5413 124.488 40.2267 124.435 39.912C124.387 39.5973 124.293 39.3093 124.155 39.048C124.016 38.7813 123.821 38.568 123.571 38.408C123.32 38.248 123 38.168 122.611 38.168C122.12 38.168 121.709 38.2933 121.379 38.544C121.048 38.7947 120.8 39.1253 120.635 39.536C120.469 39.9413 120.387 40.3813 120.387 40.856V41.368C120.387 41.9013 120.467 42.3787 120.627 42.8C120.792 43.2213 121.037 43.5547 121.363 43.8C121.688 44.0453 122.099 44.168 122.595 44.168C123.091 44.168 123.499 44.048 123.819 43.808C124.139 43.568 124.333 43.2133 124.403 42.744H125.699C125.619 43.2507 125.437 43.688 125.155 44.056C124.872 44.4187 124.512 44.6987 124.075 44.896C123.637 45.0933 123.144 45.192 122.595 45.192ZM131.069 45.192C130.328 45.192 129.709 45.088 129.213 44.88C128.717 44.6667 128.341 44.376 128.085 44.008C127.829 43.6347 127.693 43.208 127.677 42.728H128.877C128.904 43.2133 129.099 43.5787 129.461 43.824C129.829 44.064 130.328 44.184 130.957 44.184C131.288 44.184 131.592 44.1307 131.869 44.024C132.147 43.9173 132.368 43.7707 132.533 43.584C132.699 43.3973 132.781 43.1867 132.781 42.952C132.781 42.6533 132.672 42.4187 132.453 42.248C132.235 42.0773 131.885 41.928 131.405 41.8L129.917 41.32C129.272 41.1173 128.776 40.84 128.429 40.488C128.088 40.1307 127.917 39.704 127.917 39.208C127.917 38.5893 128.189 38.0933 128.733 37.72C129.277 37.3467 129.992 37.16 130.877 37.16C131.816 37.16 132.544 37.352 133.061 37.736C133.579 38.12 133.848 38.6 133.869 39.176H132.637C132.589 38.84 132.419 38.5867 132.125 38.416C131.832 38.24 131.416 38.152 130.877 38.152C130.36 38.152 129.955 38.2693 129.661 38.504C129.373 38.7333 129.229 38.9893 129.229 39.272C129.229 39.8 129.683 40.1893 130.589 40.44L132.109 40.952C132.765 41.1493 133.267 41.408 133.613 41.728C133.965 42.048 134.141 42.456 134.141 42.952C134.141 43.336 134.016 43.6987 133.765 44.04C133.515 44.3813 133.16 44.6587 132.701 44.872C132.243 45.0853 131.699 45.192 131.069 45.192ZM137.012 42.184L136.852 34.984H138.18L138.02 42.184H137.012ZM137.516 45.144C137.244 45.144 137.02 45.0587 136.844 44.888C136.668 44.7173 136.58 44.504 136.58 44.248C136.58 43.9973 136.668 43.784 136.844 43.608C137.02 43.4267 137.244 43.336 137.516 43.336C137.782 43.336 138.006 43.4267 138.188 43.608C138.374 43.784 138.468 43.9973 138.468 44.248C138.468 44.504 138.374 44.7173 138.188 44.888C138.006 45.0587 137.782 45.144 137.516 45.144ZM145.438 45V34.952H149.198C149.934 34.952 150.545 35.0747 151.03 35.32C151.515 35.56 151.878 35.88 152.118 36.28C152.358 36.6747 152.478 37.1067 152.478 37.576C152.478 38.152 152.318 38.6533 151.998 39.08C151.683 39.5013 151.209 39.7893 150.574 39.944C150.985 40.008 151.345 40.1547 151.654 40.384C151.969 40.608 152.214 40.8853 152.39 41.216C152.566 41.5413 152.654 41.8907 152.654 42.264C152.654 42.6053 152.595 42.9387 152.478 43.264C152.366 43.5893 152.177 43.8827 151.91 44.144C151.643 44.4053 151.289 44.6133 150.846 44.768C150.403 44.9227 149.854 45 149.198 45H145.438ZM146.686 43.912H149.182C149.945 43.912 150.491 43.752 150.822 43.432C151.158 43.112 151.326 42.7013 151.326 42.2C151.326 41.6933 151.145 41.288 150.782 40.984C150.419 40.6747 149.886 40.52 149.182 40.52H146.686V43.912ZM146.686 36.024V39.448H149.15C149.774 39.448 150.27 39.296 150.638 38.992C151.011 38.6827 151.198 38.248 151.198 37.688C151.198 37.1653 151.017 36.7573 150.654 36.464C150.297 36.1707 149.801 36.024 149.166 36.024H146.686ZM160.735 37.336H161.983V45H160.735V37.336ZM155.311 37.336H156.559V42.104C156.559 42.744 156.714 43.2293 157.023 43.56C157.338 43.8907 157.786 44.056 158.367 44.056C158.847 44.056 159.263 43.928 159.615 43.672C159.973 43.416 160.247 43.064 160.439 42.616C160.637 42.1627 160.735 41.6453 160.735 41.064H161.199C161.199 41.9227 161.074 42.656 160.823 43.264C160.578 43.872 160.229 44.3387 159.775 44.664C159.327 44.984 158.799 45.144 158.191 45.144C157.615 45.144 157.111 45.0373 156.679 44.824C156.247 44.6107 155.911 44.288 155.671 43.856C155.431 43.4187 155.311 42.8667 155.311 42.2V37.336ZM167.735 45.192C167.319 45.192 166.946 45.112 166.615 44.952C166.284 44.792 166.023 44.552 165.831 44.232C165.639 43.912 165.543 43.512 165.543 43.032V35.224H166.775V43C166.775 43.7893 167.143 44.184 167.879 44.184C168.098 44.184 168.308 44.16 168.511 44.112C168.719 44.064 168.951 43.992 169.207 43.896L169.383 44.792C169.111 44.9093 168.839 45.0053 168.567 45.08C168.3 45.1547 168.023 45.192 167.735 45.192ZM164.311 38.216V37.352H169.191V38.216H164.311ZM175.515 45V34.952H176.763V45H175.515ZM188.853 45L188.693 43.32V40.04C188.693 39.352 188.546 38.8587 188.253 38.56C187.959 38.256 187.519 38.104 186.933 38.104C186.602 38.104 186.301 38.152 186.029 38.248C185.762 38.344 185.549 38.4933 185.389 38.696C185.234 38.8933 185.157 39.1493 185.157 39.464H183.765C183.765 38.9093 183.901 38.464 184.173 38.128C184.445 37.7867 184.818 37.5413 185.293 37.392C185.773 37.2373 186.319 37.16 186.933 37.16C187.519 37.16 188.039 37.2587 188.493 37.456C188.946 37.6533 189.301 37.968 189.557 38.4C189.813 38.8267 189.941 39.384 189.941 40.072V45H188.853ZM186.245 45.192C185.615 45.192 185.095 45.08 184.685 44.856C184.274 44.632 183.967 44.3413 183.765 43.984C183.562 43.6267 183.461 43.2507 183.461 42.856C183.461 42.3387 183.589 41.9173 183.845 41.592C184.106 41.2667 184.461 41.0293 184.909 40.88C185.357 40.7253 185.861 40.648 186.421 40.648C186.821 40.648 187.221 40.688 187.621 40.768C188.026 40.848 188.421 40.9573 188.805 41.096V41.88C188.485 41.752 188.122 41.6507 187.717 41.576C187.317 41.5013 186.949 41.464 186.613 41.464C186.101 41.464 185.669 41.5707 185.317 41.784C184.965 41.992 184.789 42.3493 184.789 42.856C184.789 43.2293 184.922 43.5493 185.189 43.816C185.461 44.0827 185.893 44.216 186.485 44.216C186.901 44.216 187.274 44.12 187.605 43.928C187.941 43.7307 188.205 43.4853 188.397 43.192C188.594 42.8987 188.693 42.6053 188.693 42.312H188.997C188.997 42.824 188.885 43.2987 188.661 43.736C188.442 44.1733 188.127 44.5253 187.717 44.792C187.306 45.0587 186.815 45.192 186.245 45.192ZM203.841 45V40.504C203.841 39.7733 203.665 39.2187 203.313 38.84C202.966 38.456 202.497 38.264 201.905 38.264C201.212 38.264 200.681 38.5333 200.313 39.072C199.945 39.6053 199.761 40.344 199.761 41.288H199.185C199.185 40.6 199.252 39.9973 199.385 39.48C199.524 38.9627 199.724 38.5333 199.985 38.192C200.246 37.8453 200.564 37.5867 200.937 37.416C201.31 37.2453 201.734 37.16 202.209 37.16C202.812 37.16 203.326 37.296 203.753 37.568C204.185 37.8347 204.516 38.2187 204.745 38.72C204.974 39.2213 205.089 39.816 205.089 40.504V45H203.841ZM193.089 45V37.352H194.161L194.305 38.888C194.545 38.3333 194.881 37.9067 195.313 37.608C195.75 37.3093 196.273 37.16 196.881 37.16C197.484 37.16 197.998 37.296 198.425 37.568C198.857 37.8347 199.188 38.2187 199.417 38.72C199.646 39.2213 199.761 39.816 199.761 40.504V45H198.529V40.504C198.529 39.7733 198.353 39.2187 198.001 38.84C197.654 38.456 197.18 38.264 196.577 38.264C196.118 38.264 195.721 38.3893 195.385 38.64C195.049 38.8907 194.79 39.2507 194.609 39.72C194.428 40.184 194.337 40.7387 194.337 41.384V45H193.089ZM217.615 45V40.504C217.615 39.7733 217.439 39.2187 217.087 38.84C216.74 38.456 216.265 38.264 215.663 38.264C215.204 38.264 214.807 38.3893 214.471 38.64C214.135 38.8907 213.876 39.2507 213.695 39.72C213.513 40.184 213.423 40.7387 213.423 41.384H212.943C212.943 40.4933 213.06 39.7333 213.295 39.104C213.529 38.4747 213.871 37.9947 214.319 37.664C214.772 37.328 215.321 37.16 215.967 37.16C216.569 37.16 217.084 37.296 217.511 37.568C217.943 37.8347 218.273 38.2187 218.503 38.72C218.732 39.2213 218.847 39.816 218.847 40.504V45H217.615ZM212.175 45V37.352H213.247L213.423 39.112V45H212.175ZM224.759 45.192C224.071 45.192 223.458 45.04 222.919 44.736C222.386 44.432 221.964 43.9813 221.655 43.384C221.346 42.7867 221.191 42.0507 221.191 41.176C221.191 40.296 221.346 39.56 221.655 38.968C221.964 38.3707 222.386 37.92 222.919 37.616C223.458 37.312 224.071 37.16 224.759 37.16C225.442 37.16 226.05 37.312 226.583 37.616C227.122 37.92 227.543 38.3707 227.847 38.968C228.156 39.56 228.311 40.296 228.311 41.176C228.311 42.0507 228.156 42.7867 227.847 43.384C227.543 43.9813 227.122 44.432 226.583 44.736C226.05 45.04 225.442 45.192 224.759 45.192ZM224.727 44.104C225.223 44.104 225.644 43.9867 225.991 43.752C226.338 43.512 226.599 43.1733 226.775 42.736C226.956 42.2987 227.047 41.7787 227.047 41.176C227.047 40.264 226.858 39.5467 226.479 39.024C226.1 38.496 225.538 38.232 224.791 38.232C224.29 38.232 223.866 38.352 223.519 38.592C223.178 38.8267 222.916 39.1653 222.735 39.608C222.559 40.0453 222.471 40.568 222.471 41.176C222.471 42.0773 222.66 42.792 223.039 43.32C223.423 43.8427 223.986 44.104 224.727 44.104ZM233.253 45.192C232.837 45.192 232.464 45.112 232.133 44.952C231.802 44.792 231.541 44.552 231.349 44.232C231.157 43.912 231.061 43.512 231.061 43.032V35.224H232.293V43C232.293 43.7893 232.661 44.184 233.397 44.184C233.616 44.184 233.826 44.16 234.029 44.112C234.237 44.064 234.469 43.992 234.725 43.896L234.901 44.792C234.629 44.9093 234.357 45.0053 234.085 45.08C233.818 45.1547 233.541 45.192 233.253 45.192ZM229.829 38.216V37.352H234.709V38.216H229.829ZM43.352 65L43.192 63.32V60.04C43.192 59.352 43.0453 58.8587 42.752 58.56C42.4587 58.256 42.0187 58.104 41.432 58.104C41.1013 58.104 40.8 58.152 40.528 58.248C40.2613 58.344 40.048 58.4933 39.888 58.696C39.7333 58.8933 39.656 59.1493 39.656 59.464H38.264C38.264 58.9093 38.4 58.464 38.672 58.128C38.944 57.7867 39.3173 57.5413 39.792 57.392C40.272 57.2373 40.8187 57.16 41.432 57.16C42.0187 57.16 42.5387 57.2587 42.992 57.456C43.4453 57.6533 43.8 57.968 44.056 58.4C44.312 58.8267 44.44 59.384 44.44 60.072V65H43.352ZM40.744 65.192C40.1147 65.192 39.5947 65.08 39.184 64.856C38.7733 64.632 38.4667 64.3413 38.264 63.984C38.0613 63.6267 37.96 63.2507 37.96 62.856C37.96 62.3387 38.088 61.9173 38.344 61.592C38.6053 61.2667 38.96 61.0293 39.408 60.88C39.856 60.7253 40.36 60.648 40.92 60.648C41.32 60.648 41.72 60.688 42.12 60.768C42.5253 60.848 42.92 60.9573 43.304 61.096V61.88C42.984 61.752 42.6213 61.6507 42.216 61.576C41.816 61.5013 41.448 61.464 41.112 61.464C40.6 61.464 40.168 61.5707 39.816 61.784C39.464 61.992 39.288 62.3493 39.288 62.856C39.288 63.2293 39.4213 63.5493 39.688 63.816C39.96 64.0827 40.392 64.216 40.984 64.216C41.4 64.216 41.7733 64.12 42.104 63.928C42.44 63.7307 42.704 63.4853 42.896 63.192C43.0933 62.8987 43.192 62.6053 43.192 62.312H43.496C43.496 62.824 43.384 63.2987 43.16 63.736C42.9413 64.1733 42.6267 64.5253 42.216 64.792C41.8053 65.0587 41.3147 65.192 40.744 65.192ZM51.0925 65.192C50.5805 65.192 50.1165 65.0587 49.7005 64.792C49.2898 64.5253 48.9618 64.136 48.7165 63.624C48.4765 63.1067 48.3565 62.4773 48.3565 61.736H48.8365C48.8365 62.232 48.9378 62.656 49.1405 63.008C49.3485 63.3547 49.6152 63.6187 49.9405 63.8C50.2658 63.9813 50.6072 64.072 50.9645 64.072C51.3752 64.072 51.7512 63.9547 52.0925 63.72C52.4338 63.4853 52.7058 63.1493 52.9085 62.712C53.1165 62.2747 53.2205 61.752 53.2205 61.144C53.2205 60.5467 53.1192 60.0347 52.9165 59.608C52.7138 59.176 52.4392 58.8453 52.0925 58.616C51.7512 58.3813 51.3698 58.264 50.9485 58.264C50.5858 58.264 50.2418 58.3547 49.9165 58.536C49.5965 58.712 49.3352 58.9733 49.1325 59.32C48.9352 59.6667 48.8365 60.0933 48.8365 60.6H48.3565C48.3565 59.8747 48.4738 59.256 48.7085 58.744C48.9485 58.232 49.2792 57.84 49.7005 57.568C50.1218 57.296 50.6125 57.16 51.1725 57.16C51.7752 57.16 52.3272 57.3227 52.8285 57.648C53.3352 57.968 53.7405 58.4267 54.0445 59.024C54.3485 59.6213 54.5005 60.328 54.5005 61.144C54.5005 61.9653 54.3458 62.68 54.0365 63.288C53.7272 63.8907 53.3138 64.36 52.7965 64.696C52.2792 65.0267 51.7112 65.192 51.0925 65.192ZM47.5885 65V54.088H48.8365V63.208L48.4685 65H47.5885ZM57.2329 65V54.088H58.4809V65H57.2329ZM64.5332 65.192C63.8719 65.192 63.2799 65.024 62.7572 64.688C62.2399 64.3467 61.8292 63.8747 61.5252 63.272C61.2266 62.6693 61.0772 61.976 61.0772 61.192C61.0772 60.3547 61.2266 59.6347 61.5252 59.032C61.8239 58.4293 62.2319 57.968 62.7492 57.648C63.2719 57.3227 63.8666 57.16 64.5332 57.16C65.1146 57.16 65.6106 57.2773 66.0212 57.512C66.4319 57.7467 66.7626 58.064 67.0132 58.464C67.2639 58.864 67.4372 59.3173 67.5332 59.824C67.6346 60.3253 67.6639 60.8453 67.6212 61.384H62.0852V60.616H66.7972L66.4292 60.856C66.4452 60.5413 66.4266 60.2267 66.3733 59.912C66.3252 59.5973 66.2319 59.3093 66.0932 59.048C65.9546 58.7813 65.7599 58.568 65.5092 58.408C65.2586 58.248 64.9386 58.168 64.5492 58.168C64.0586 58.168 63.6479 58.2933 63.3172 58.544C62.9866 58.7947 62.7386 59.1253 62.5732 59.536C62.4079 59.9413 62.3252 60.3813 62.3252 60.856V61.368C62.3252 61.9013 62.4052 62.3787 62.5652 62.8C62.7306 63.2213 62.9759 63.5547 63.3012 63.8C63.6266 64.0453 64.0372 64.168 64.5332 64.168C65.0292 64.168 65.4372 64.048 65.7572 63.808C66.0772 63.568 66.2719 63.2133 66.3412 62.744H67.6372C67.5573 63.2507 67.3759 63.688 67.0932 64.056C66.8106 64.4187 66.4506 64.6987 66.0132 64.896C65.5759 65.0933 65.0826 65.192 64.5332 65.192ZM76.9809 65.192C76.2929 65.192 75.6795 65.04 75.1409 64.736C74.6075 64.432 74.1862 63.9813 73.8769 63.384C73.5675 62.7867 73.4129 62.0507 73.4129 61.176C73.4129 60.296 73.5675 59.56 73.8769 58.968C74.1862 58.3707 74.6075 57.92 75.1409 57.616C75.6795 57.312 76.2929 57.16 76.9809 57.16C77.6635 57.16 78.2715 57.312 78.8049 57.616C79.3435 57.92 79.7649 58.3707 80.0689 58.968C80.3782 59.56 80.5329 60.296 80.5329 61.176C80.5329 62.0507 80.3782 62.7867 80.0689 63.384C79.7649 63.9813 79.3435 64.432 78.8049 64.736C78.2715 65.04 77.6635 65.192 76.9809 65.192ZM76.9489 64.104C77.4449 64.104 77.8662 63.9867 78.2129 63.752C78.5595 63.512 78.8209 63.1733 78.9969 62.736C79.1782 62.2987 79.2689 61.7787 79.2689 61.176C79.2689 60.264 79.0795 59.5467 78.7009 59.024C78.3222 58.496 77.7595 58.232 77.0129 58.232C76.5115 58.232 76.0875 58.352 75.7409 58.592C75.3995 58.8267 75.1382 59.1653 74.9569 59.608C74.7809 60.0453 74.6929 60.568 74.6929 61.176C74.6929 62.0773 74.8822 62.792 75.2609 63.32C75.6449 63.8427 76.2075 64.104 76.9489 64.104ZM83.5389 65V56.168C83.5389 55.6613 83.6349 55.248 83.8269 54.928C84.0242 54.6027 84.2855 54.3627 84.6109 54.208C84.9415 54.0533 85.3095 53.976 85.7149 53.976C85.9335 53.976 86.1549 53.992 86.3789 54.024C86.6082 54.056 86.8349 54.104 87.0589 54.168L86.8189 55.16C86.6589 55.096 86.4989 55.048 86.3389 55.016C86.1842 54.984 86.0349 54.968 85.8909 54.968C85.7202 54.968 85.5495 55 85.3789 55.064C85.2082 55.128 85.0669 55.248 84.9549 55.424C84.8429 55.6 84.7869 55.8533 84.7869 56.184V65H83.5389ZM82.2909 58.216V57.352H86.3709V58.216H82.2909ZM95.4921 65.192C94.8041 65.192 94.1908 65.04 93.6521 64.736C93.1188 64.432 92.6975 63.9813 92.3881 63.384C92.0788 62.7867 91.9241 62.0507 91.9241 61.176C91.9241 60.296 92.0788 59.56 92.3881 58.968C92.6975 58.3707 93.1188 57.92 93.6521 57.616C94.1908 57.312 94.8041 57.16 95.4921 57.16C96.1748 57.16 96.7828 57.312 97.3161 57.616C97.8548 57.92 98.2761 58.3707 98.5801 58.968C98.8895 59.56 99.0441 60.296 99.0441 61.176C99.0441 62.0507 98.8895 62.7867 98.5801 63.384C98.2761 63.9813 97.8548 64.432 97.3161 64.736C96.7828 65.04 96.1748 65.192 95.4921 65.192ZM95.4601 64.104C95.9561 64.104 96.3775 63.9867 96.7241 63.752C97.0708 63.512 97.3321 63.1733 97.5081 62.736C97.6895 62.2987 97.7801 61.7787 97.7801 61.176C97.7801 60.264 97.5908 59.5467 97.2121 59.024C96.8335 58.496 96.2708 58.232 95.5241 58.232C95.0228 58.232 94.5988 58.352 94.2521 58.592C93.9108 58.8267 93.6495 59.1653 93.4681 59.608C93.2921 60.0453 93.2041 60.568 93.2041 61.176C93.2041 62.0773 93.3935 62.792 93.7721 63.32C94.1561 63.8427 94.7188 64.104 95.4601 64.104ZM101.634 65V57.336H102.882V65H101.634ZM102.498 61.544C102.498 60.5733 102.591 59.768 102.778 59.128C102.965 58.4827 103.237 58.0027 103.594 57.688C103.957 57.368 104.397 57.208 104.914 57.208C105.085 57.208 105.239 57.2213 105.378 57.248C105.522 57.2693 105.666 57.304 105.81 57.352L105.73 58.584C105.581 58.536 105.418 58.496 105.242 58.464C105.066 58.4267 104.909 58.408 104.77 58.408C104.317 58.408 103.951 58.5387 103.674 58.8C103.397 59.056 103.194 59.4187 103.066 59.888C102.943 60.3573 102.882 60.9093 102.882 61.544H102.498ZM110.029 68.936C109.245 68.936 108.565 68.824 107.989 68.6C107.413 68.3813 106.965 68.0853 106.645 67.712C106.331 67.344 106.173 66.936 106.173 66.488C106.173 65.896 106.389 65.4427 106.821 65.128C107.259 64.8187 107.821 64.664 108.509 64.664L109.197 65.096C108.621 65.096 108.176 65.216 107.861 65.456C107.547 65.696 107.389 66.024 107.389 66.44C107.389 66.856 107.613 67.208 108.061 67.496C108.509 67.784 109.165 67.928 110.029 67.928C110.669 67.928 111.229 67.8347 111.709 67.648C112.195 67.4667 112.571 67.2267 112.837 66.928C113.109 66.6347 113.245 66.3173 113.245 65.976C113.245 65.736 113.157 65.528 112.981 65.352C112.805 65.1813 112.536 65.096 112.173 65.096H109.197C108.68 65.096 108.232 65.0187 107.853 64.864C107.48 64.704 107.192 64.496 106.989 64.24C106.787 63.984 106.685 63.704 106.685 63.4C106.685 63.08 106.776 62.808 106.957 62.584C107.139 62.36 107.373 62.1893 107.661 62.072C107.955 61.9547 108.269 61.896 108.605 61.896L108.845 62.36C108.685 62.36 108.523 62.3973 108.357 62.472C108.197 62.5413 108.061 62.648 107.949 62.792C107.843 62.9307 107.789 63.1067 107.789 63.32C107.789 63.5653 107.891 63.7707 108.093 63.936C108.296 64.1013 108.664 64.184 109.197 64.184H112.173C112.893 64.184 113.459 64.336 113.869 64.64C114.285 64.944 114.493 65.368 114.493 65.912C114.493 66.4133 114.315 66.8933 113.957 67.352C113.6 67.816 113.088 68.1947 112.421 68.488C111.755 68.7867 110.957 68.936 110.029 68.936ZM110.253 62.76C109.667 62.76 109.136 62.6427 108.661 62.408C108.192 62.1733 107.819 61.8453 107.541 61.424C107.269 61.0027 107.133 60.5147 107.133 59.96C107.133 59.4 107.269 58.9093 107.541 58.488C107.819 58.0667 108.192 57.7413 108.661 57.512C109.136 57.2773 109.667 57.16 110.253 57.16C110.824 57.16 111.341 57.2773 111.805 57.512C112.275 57.7413 112.648 58.0667 112.925 58.488C113.203 58.9093 113.341 59.4 113.341 59.96C113.341 60.5147 113.203 61.0027 112.925 61.424C112.648 61.8453 112.275 62.1733 111.805 62.408C111.341 62.6427 110.824 62.76 110.253 62.76ZM110.253 61.864C110.84 61.864 111.296 61.6827 111.621 61.32C111.947 60.9573 112.109 60.504 112.109 59.96C112.109 59.4 111.947 58.9467 111.621 58.6C111.296 58.248 110.84 58.072 110.253 58.072C109.672 58.072 109.213 58.248 108.877 58.6C108.547 58.9467 108.381 59.4 108.381 59.96C108.381 60.504 108.547 60.9573 108.877 61.32C109.213 61.6827 109.672 61.864 110.253 61.864ZM112.765 58.376L112.173 58.136C112.173 57.688 112.261 57.296 112.437 56.96C112.613 56.6187 112.864 56.3547 113.189 56.168C113.515 55.976 113.901 55.88 114.349 55.88L114.253 57.112C113.773 57.112 113.405 57.216 113.149 57.424C112.893 57.6267 112.765 57.944 112.765 58.376ZM121.253 65L121.093 63.32V60.04C121.093 59.352 120.946 58.8587 120.653 58.56C120.359 58.256 119.919 58.104 119.333 58.104C119.002 58.104 118.701 58.152 118.429 58.248C118.162 58.344 117.949 58.4933 117.789 58.696C117.634 58.8933 117.557 59.1493 117.557 59.464H116.165C116.165 58.9093 116.301 58.464 116.573 58.128C116.845 57.7867 117.218 57.5413 117.693 57.392C118.173 57.2373 118.719 57.16 119.333 57.16C119.919 57.16 120.439 57.2587 120.893 57.456C121.346 57.6533 121.701 57.968 121.957 58.4C122.213 58.8267 122.341 59.384 122.341 60.072V65H121.253ZM118.645 65.192C118.015 65.192 117.495 65.08 117.085 64.856C116.674 64.632 116.367 64.3413 116.165 63.984C115.962 63.6267 115.861 63.2507 115.861 62.856C115.861 62.3387 115.989 61.9173 116.245 61.592C116.506 61.2667 116.861 61.0293 117.309 60.88C117.757 60.7253 118.261 60.648 118.821 60.648C119.221 60.648 119.621 60.688 120.021 60.768C120.426 60.848 120.821 60.9573 121.205 61.096V61.88C120.885 61.752 120.522 61.6507 120.117 61.576C119.717 61.5013 119.349 61.464 119.013 61.464C118.501 61.464 118.069 61.5707 117.717 61.784C117.365 61.992 117.189 62.3493 117.189 62.856C117.189 63.2293 117.322 63.5493 117.589 63.816C117.861 64.0827 118.293 64.216 118.885 64.216C119.301 64.216 119.674 64.12 120.005 63.928C120.341 63.7307 120.605 63.4853 120.797 63.192C120.994 62.8987 121.093 62.6053 121.093 62.312H121.397C121.397 62.824 121.285 63.2987 121.061 63.736C120.842 64.1733 120.527 64.5253 120.117 64.792C119.706 65.0587 119.215 65.192 118.645 65.192ZM130.929 65V60.504C130.929 59.7733 130.753 59.2187 130.401 58.84C130.054 58.456 129.58 58.264 128.977 58.264C128.518 58.264 128.121 58.3893 127.785 58.64C127.449 58.8907 127.19 59.2507 127.009 59.72C126.828 60.184 126.737 60.7387 126.737 61.384H126.257C126.257 60.4933 126.374 59.7333 126.609 59.104C126.844 58.4747 127.185 57.9947 127.633 57.664C128.086 57.328 128.636 57.16 129.281 57.16C129.884 57.16 130.398 57.296 130.825 57.568C131.257 57.8347 131.588 58.2187 131.817 58.72C132.046 59.2213 132.161 59.816 132.161 60.504V65H130.929ZM125.489 65V57.352H126.561L126.737 59.112V65H125.489ZM136.009 55.544C135.753 55.544 135.551 55.472 135.401 55.328C135.252 55.1787 135.177 54.984 135.177 54.744C135.177 54.5093 135.252 54.3227 135.401 54.184C135.551 54.0453 135.753 53.976 136.009 53.976C136.265 53.976 136.468 54.0453 136.617 54.184C136.767 54.3227 136.841 54.5093 136.841 54.744C136.841 54.984 136.767 55.1787 136.617 55.328C136.468 55.472 136.265 55.544 136.009 55.544ZM135.385 65V57.336H136.633V65H135.385ZM139.463 65V63.992L143.975 58.36H139.463V57.352H145.383V58.36L140.935 63.992H145.383V65H139.463ZM148.689 55.544C148.433 55.544 148.23 55.472 148.081 55.328C147.931 55.1787 147.857 54.984 147.857 54.744C147.857 54.5093 147.931 54.3227 148.081 54.184C148.23 54.0453 148.433 53.976 148.689 53.976C148.945 53.976 149.147 54.0453 149.297 54.184C149.446 54.3227 149.521 54.5093 149.521 54.744C149.521 54.984 149.446 55.1787 149.297 55.328C149.147 55.472 148.945 55.544 148.689 55.544ZM148.065 65V57.336H149.313V65H148.065ZM158.35 65V60.504C158.35 59.7733 158.174 59.2187 157.822 58.84C157.476 58.456 157.001 58.264 156.398 58.264C155.94 58.264 155.542 58.3893 155.206 58.64C154.87 58.8907 154.612 59.2507 154.43 59.72C154.249 60.184 154.158 60.7387 154.158 61.384H153.678C153.678 60.4933 153.796 59.7333 154.03 59.104C154.265 58.4747 154.606 57.9947 155.054 57.664C155.508 57.328 156.057 57.16 156.702 57.16C157.305 57.16 157.82 57.296 158.246 57.568C158.678 57.8347 159.009 58.2187 159.238 58.72C159.468 59.2213 159.582 59.816 159.582 60.504V65H158.35ZM152.91 65V57.352H153.982L154.158 59.112V65H152.91ZM165.431 68.936C164.647 68.936 163.967 68.824 163.391 68.6C162.815 68.3813 162.367 68.0853 162.047 67.712C161.732 67.344 161.575 66.936 161.575 66.488C161.575 65.896 161.791 65.4427 162.223 65.128C162.66 64.8187 163.223 64.664 163.911 64.664L164.599 65.096C164.023 65.096 163.577 65.216 163.263 65.456C162.948 65.696 162.791 66.024 162.791 66.44C162.791 66.856 163.015 67.208 163.463 67.496C163.911 67.784 164.567 67.928 165.431 67.928C166.071 67.928 166.631 67.8347 167.111 67.648C167.596 67.4667 167.972 67.2267 168.239 66.928C168.511 66.6347 168.647 66.3173 168.647 65.976C168.647 65.736 168.559 65.528 168.383 65.352C168.207 65.1813 167.937 65.096 167.575 65.096H164.599C164.081 65.096 163.633 65.0187 163.255 64.864C162.881 64.704 162.593 64.496 162.391 64.24C162.188 63.984 162.087 63.704 162.087 63.4C162.087 63.08 162.177 62.808 162.359 62.584C162.54 62.36 162.775 62.1893 163.063 62.072C163.356 61.9547 163.671 61.896 164.007 61.896L164.247 62.36C164.087 62.36 163.924 62.3973 163.759 62.472C163.599 62.5413 163.463 62.648 163.351 62.792C163.244 62.9307 163.191 63.1067 163.191 63.32C163.191 63.5653 163.292 63.7707 163.495 63.936C163.697 64.1013 164.065 64.184 164.599 64.184H167.575C168.295 64.184 168.86 64.336 169.271 64.64C169.687 64.944 169.895 65.368 169.895 65.912C169.895 66.4133 169.716 66.8933 169.359 67.352C169.001 67.816 168.489 68.1947 167.823 68.488C167.156 68.7867 166.359 68.936 165.431 68.936ZM165.655 62.76C165.068 62.76 164.537 62.6427 164.063 62.408C163.593 62.1733 163.22 61.8453 162.943 61.424C162.671 61.0027 162.535 60.5147 162.535 59.96C162.535 59.4 162.671 58.9093 162.943 58.488C163.22 58.0667 163.593 57.7413 164.063 57.512C164.537 57.2773 165.068 57.16 165.655 57.16C166.225 57.16 166.743 57.2773 167.207 57.512C167.676 57.7413 168.049 58.0667 168.327 58.488C168.604 58.9093 168.743 59.4 168.743 59.96C168.743 60.5147 168.604 61.0027 168.327 61.424C168.049 61.8453 167.676 62.1733 167.207 62.408C166.743 62.6427 166.225 62.76 165.655 62.76ZM165.655 61.864C166.241 61.864 166.697 61.6827 167.023 61.32C167.348 60.9573 167.511 60.504 167.511 59.96C167.511 59.4 167.348 58.9467 167.023 58.6C166.697 58.248 166.241 58.072 165.655 58.072C165.073 58.072 164.615 58.248 164.279 58.6C163.948 58.9467 163.783 59.4 163.783 59.96C163.783 60.504 163.948 60.9573 164.279 61.32C164.615 61.6827 165.073 61.864 165.655 61.864ZM168.167 58.376L167.575 58.136C167.575 57.688 167.663 57.296 167.839 56.96C168.015 56.6187 168.265 56.3547 168.591 56.168C168.916 55.976 169.303 55.88 169.751 55.88L169.655 57.112C169.175 57.112 168.807 57.216 168.551 57.424C168.295 57.6267 168.167 57.944 168.167 58.376ZM178.227 65.192C177.811 65.192 177.437 65.112 177.107 64.952C176.776 64.792 176.515 64.552 176.323 64.232C176.131 63.912 176.035 63.512 176.035 63.032V55.224H177.267V63C177.267 63.7893 177.635 64.184 178.371 64.184C178.589 64.184 178.8 64.16 179.003 64.112C179.211 64.064 179.443 63.992 179.699 63.896L179.875 64.792C179.603 64.9093 179.331 65.0053 179.059 65.08C178.792 65.1547 178.515 65.192 178.227 65.192ZM174.803 58.216V57.352H179.683V58.216H174.803ZM187.49 65V60.504C187.49 59.7733 187.314 59.2187 186.962 58.84C186.616 58.456 186.141 58.264 185.538 58.264C185.08 58.264 184.682 58.3893 184.346 58.64C184.01 58.8907 183.752 59.2507 183.57 59.72C183.389 60.184 183.298 60.7387 183.298 61.384H182.818C182.818 60.4933 182.936 59.7333 183.17 59.104C183.405 58.4747 183.746 57.9947 184.194 57.664C184.648 57.328 185.197 57.16 185.842 57.16C186.445 57.16 186.96 57.296 187.386 57.568C187.818 57.8347 188.149 58.2187 188.378 58.72C188.608 59.2213 188.722 59.816 188.722 60.504V65H187.49ZM182.05 65V54.088H183.298V65H182.05ZM194.523 65.192C193.861 65.192 193.269 65.024 192.747 64.688C192.229 64.3467 191.819 63.8747 191.515 63.272C191.216 62.6693 191.067 61.976 191.067 61.192C191.067 60.3547 191.216 59.6347 191.515 59.032C191.813 58.4293 192.221 57.968 192.739 57.648C193.261 57.3227 193.856 57.16 194.523 57.16C195.104 57.16 195.6 57.2773 196.011 57.512C196.421 57.7467 196.752 58.064 197.003 58.464C197.253 58.864 197.427 59.3173 197.523 59.824C197.624 60.3253 197.653 60.8453 197.611 61.384H192.075V60.616H196.787L196.419 60.856C196.435 60.5413 196.416 60.2267 196.363 59.912C196.315 59.5973 196.221 59.3093 196.083 59.048C195.944 58.7813 195.749 58.568 195.499 58.408C195.248 58.248 194.928 58.168 194.539 58.168C194.048 58.168 193.637 58.2933 193.307 58.544C192.976 58.7947 192.728 59.1253 192.563 59.536C192.397 59.9413 192.315 60.3813 192.315 60.856V61.368C192.315 61.9013 192.395 62.3787 192.555 62.8C192.72 63.2213 192.965 63.5547 193.291 63.8C193.616 64.0453 194.027 64.168 194.523 64.168C195.019 64.168 195.427 64.048 195.747 63.808C196.067 63.568 196.261 63.2133 196.331 62.744H197.627C197.547 63.2507 197.365 63.688 197.083 64.056C196.8 64.4187 196.44 64.6987 196.003 64.896C195.565 65.0933 195.072 65.192 194.523 65.192ZM210.997 65V60.504C210.997 59.7733 210.821 59.2187 210.469 58.84C210.123 58.456 209.653 58.264 209.061 58.264C208.368 58.264 207.837 58.5333 207.469 59.072C207.101 59.6053 206.917 60.344 206.917 61.288H206.341C206.341 60.6 206.408 59.9973 206.541 59.48C206.68 58.9627 206.88 58.5333 207.141 58.192C207.403 57.8453 207.72 57.5867 208.093 57.416C208.467 57.2453 208.891 57.16 209.365 57.16C209.968 57.16 210.483 57.296 210.909 57.568C211.341 57.8347 211.672 58.2187 211.901 58.72C212.131 59.2213 212.245 59.816 212.245 60.504V65H210.997ZM200.245 65V57.352H201.317L201.461 58.888C201.701 58.3333 202.037 57.9067 202.469 57.608C202.907 57.3093 203.429 57.16 204.037 57.16C204.64 57.16 205.155 57.296 205.581 57.568C206.013 57.8347 206.344 58.2187 206.573 58.72C206.803 59.2213 206.917 59.816 206.917 60.504V65H205.685V60.504C205.685 59.7733 205.509 59.2187 205.157 58.84C204.811 58.456 204.336 58.264 203.733 58.264C203.275 58.264 202.877 58.3893 202.541 58.64C202.205 58.8907 201.947 59.2507 201.765 59.72C201.584 60.184 201.493 60.7387 201.493 61.384V65H200.245Z" fill="#4A5DC8"/>
</g>
<defs>
<filter id="filter0_d_7075_5703" x="6" y="0" width="249.767" height="88" filterUnits="userSpaceOnUse" color-interpolation-filters="sRGB">
<feFlood flood-opacity="0" result="BackgroundImageFix"/>
<feColorMatrix in="SourceAlpha" type="matrix" values="0 0 0 0 0 0 0 0 0 0 0 0 0 0 0 0 0 0 127 0" result="hardAlpha"/>
<feOffset dy="4"/>
<feGaussianBlur stdDeviation="3"/>
<feComposite in2="hardAlpha" operator="out"/>
<feColorMatrix type="matrix" values="0 0 0 0 0 0 0 0 0 0 0 0 0 0 0 0 0 0 0.1 0"/>
<feBlend mode="normal" in2="BackgroundImageFix" result="effect1_dropShadow_7075_5703"/>
<feBlend mode="normal" in="SourceGraphic" in2="effect1_dropShadow_7075_5703" result="shape"/>
</filter>
<filter id="filter1_d_7075_5703" x="31.8159" y="11.9756" width="209.085" height="66.96" filterUnits="userSpaceOnUse" color-interpolation-filters="sRGB">
<feFlood flood-opacity="0" result="BackgroundImageFix"/>
<feColorMatrix in="SourceAlpha" type="matrix" values="0 0 0 0 0 0 0 0 0 0 0 0 0 0 0 0 0 0 127 0" result="hardAlpha"/>
<feOffset dy="4"/>
<feGaussianBlur stdDeviation="3"/>
<feComposite in2="hardAlpha" operator="out"/>
<feColorMatrix type="matrix" values="0 0 0 0 0 0 0 0 0 0 0 0 0 0 0 0 0 0 0.05 0"/>
<feBlend mode="normal" in2="BackgroundImageFix" result="effect1_dropShadow_7075_5703"/>
<feBlend mode="normal" in="SourceGraphic" in2="effect1_dropShadow_7075_5703" result="shape"/>
</filter>
</defs>
</svg>
