<svg width="257" height="68" viewBox="0 0 257 68" fill="none" xmlns="http://www.w3.org/2000/svg">
<path d="M7.04333 32.6331L16.7674 41V49C16.7674 53.9706 20.7968 58 25.7674 58L247.035 58C252.005 58 256.035 53.9706 256.035 49V11C256.035 6.02944 252.005 2 247.035 2L25.7674 2C20.7968 2 16.7674 6.02944 16.7674 11V20.5L7.15555 27.9931C5.66179 29.1575 5.60761 31.3978 7.04333 32.6331Z" fill="white"/>
<g filter="url(#filter0_d_7070_5673)">
<mask id="path-2-inside-1_7070_5673" fill="white">
<path d="M7.04333 32.6331L16.7674 41V49C16.7674 53.9706 20.7968 58 25.7674 58L191.035 58C196.005 58 200.035 53.9706 200.035 49V11C200.035 6.02944 196.005 2 191.035 2L25.7674 2C20.7968 2 16.7674 6.02944 16.7674 11V20.5L7.15555 27.9931C5.66179 29.1575 5.60761 31.3978 7.04333 32.6331Z"/>
</mask>
<path d="M7.04333 32.6331L16.7674 41V49C16.7674 53.9706 20.7968 58 25.7674 58L191.035 58C196.005 58 200.035 53.9706 200.035 49V11C200.035 6.02944 196.005 2 191.035 2L25.7674 2C20.7968 2 16.7674 6.02944 16.7674 11V20.5L7.15555 27.9931C5.66179 29.1575 5.60761 31.3978 7.04333 32.6331Z" fill="white"/>
<path d="M16.7674 41H18.1674V40.3577L17.6805 39.9388L16.7674 41ZM7.04333 32.6331L6.13021 33.6944L6.13021 33.6944L7.04333 32.6331ZM7.15555 27.9931L8.0163 29.0972L8.0163 29.0972L7.15555 27.9931ZM16.7674 20.5L17.6281 21.6041L18.1674 21.1838V20.5H16.7674ZM25.7674 2V0.6V2ZM191.035 2V3.4V2ZM17.6805 39.9388L7.95644 31.5719L6.13021 33.6944L15.8542 42.0612L17.6805 39.9388ZM8.0163 29.0972L17.6281 21.6041L15.9066 19.3959L6.2948 26.8889L8.0163 29.0972ZM7.95644 31.5719C7.19073 30.9131 7.21963 29.7183 8.0163 29.0972L6.2948 26.8889C4.10396 28.5968 4.02449 31.8825 6.13021 33.6944L7.95644 31.5719ZM25.7674 3.4L191.035 3.4L191.035 0.600003L25.7674 0.6L25.7674 3.4ZM198.635 11V49H201.435V11H198.635ZM191.035 56.6L25.7674 56.6V59.4L191.035 59.4V56.6ZM18.1674 20.5V11H15.3674V20.5H18.1674ZM18.1674 49V41H15.3674V49H18.1674ZM25.7674 56.6C21.57 56.6 18.1674 53.1974 18.1674 49H15.3674C15.3674 54.7438 20.0236 59.4 25.7674 59.4V56.6ZM198.635 49C198.635 53.1974 195.232 56.6 191.035 56.6V59.4C196.778 59.4 201.435 54.7438 201.435 49H198.635ZM191.035 3.4C195.232 3.4 198.635 6.80264 198.635 11H201.435C201.435 5.25624 196.778 0.600003 191.035 0.600003V3.4ZM25.7674 0.6C20.0236 0.6 15.3674 5.25624 15.3674 11H18.1674C18.1674 6.80264 21.57 3.4 25.7674 3.4V0.6Z" fill="#333333" mask="url(#path-2-inside-1_7070_5673)"/>
</g>
<g filter="url(#filter1_d_7070_5673)">
<path d="M35.352 18.296C35.1387 18.296 34.9493 18.24 34.784 18.128C34.6187 18.016 34.488 17.864 34.392 17.672C34.296 17.48 34.248 17.2667 34.248 17.032C34.248 16.648 34.3733 16.272 34.624 15.904C34.88 15.5307 35.24 15.224 35.704 14.984L36.6 15.464C36.296 15.6133 36.0373 15.7867 35.824 15.984C35.616 16.1813 35.4747 16.4133 35.4 16.68C35.6507 16.7013 35.8533 16.7787 36.008 16.912C36.168 17.04 36.248 17.2187 36.248 17.448C36.248 17.6773 36.1653 17.8773 36 18.048C35.84 18.2133 35.624 18.296 35.352 18.296ZM32.68 18.296C32.4667 18.296 32.2773 18.24 32.112 18.128C31.9467 18.016 31.816 17.864 31.72 17.672C31.624 17.48 31.576 17.2667 31.576 17.032C31.576 16.648 31.7013 16.272 31.952 15.904C32.208 15.5307 32.568 15.224 33.032 14.984L33.928 15.464C33.624 15.6133 33.3653 15.7867 33.152 15.984C32.944 16.1813 32.8027 16.4133 32.728 16.68C32.9787 16.7013 33.1813 16.7787 33.336 16.912C33.496 17.04 33.576 17.2187 33.576 17.448C33.576 17.6773 33.4933 17.8773 33.328 18.048C33.168 18.2133 32.952 18.296 32.68 18.296ZM37.6779 16.024V14.952H45.5019V16.024H41.9259L42.2059 15.736V25H40.9579V15.736L41.2379 16.024H37.6779ZM46.2016 25V17.336H47.4496V25H46.2016ZM47.0656 21.544C47.0656 20.5733 47.159 19.768 47.3456 19.128C47.5323 18.4827 47.8043 18.0027 48.1616 17.688C48.5243 17.368 48.9643 17.208 49.4816 17.208C49.6523 17.208 49.807 17.2213 49.9456 17.248C50.0896 17.2693 50.2336 17.304 50.3776 17.352L50.2976 18.584C50.1483 18.536 49.9856 18.496 49.8096 18.464C49.6336 18.4267 49.4763 18.408 49.3376 18.408C48.8843 18.408 48.519 18.5387 48.2416 18.8C47.9643 19.056 47.7616 19.4187 47.6336 19.888C47.511 20.3573 47.4496 20.9093 47.4496 21.544H47.0656ZM56.8789 25L56.7189 23.32V20.04C56.7189 19.352 56.5722 18.8587 56.2789 18.56C55.9855 18.256 55.5455 18.104 54.9589 18.104C54.6282 18.104 54.3269 18.152 54.0549 18.248C53.7882 18.344 53.5749 18.4933 53.4149 18.696C53.2602 18.8933 53.1829 19.1493 53.1829 19.464H51.7909C51.7909 18.9093 51.9269 18.464 52.1989 18.128C52.4709 17.7867 52.8442 17.5413 53.3189 17.392C53.7989 17.2373 54.3455 17.16 54.9589 17.16C55.5455 17.16 56.0655 17.2587 56.5189 17.456C56.9722 17.6533 57.3269 17.968 57.5829 18.4C57.8389 18.8267 57.9669 19.384 57.9669 20.072V25H56.8789ZM54.2709 25.192C53.6415 25.192 53.1215 25.08 52.7109 24.856C52.3002 24.632 51.9935 24.3413 51.7909 23.984C51.5882 23.6267 51.4869 23.2507 51.4869 22.856C51.4869 22.3387 51.6149 21.9173 51.8709 21.592C52.1322 21.2667 52.4869 21.0293 52.9349 20.88C53.3829 20.7253 53.8869 20.648 54.4469 20.648C54.8469 20.648 55.2469 20.688 55.6469 20.768C56.0522 20.848 56.4469 20.9573 56.8309 21.096V21.88C56.5109 21.752 56.1482 21.6507 55.7429 21.576C55.3429 21.5013 54.9749 21.464 54.6389 21.464C54.1269 21.464 53.6949 21.5707 53.3429 21.784C52.9909 21.992 52.8149 22.3493 52.8149 22.856C52.8149 23.2293 52.9482 23.5493 53.2149 23.816C53.4869 24.0827 53.9189 24.216 54.5109 24.216C54.9269 24.216 55.3002 24.12 55.6309 23.928C55.9669 23.7307 56.2309 23.4853 56.4229 23.192C56.6202 22.8987 56.7189 22.6053 56.7189 22.312H57.0229C57.0229 22.824 56.9109 23.2987 56.6869 23.736C56.4682 24.1733 56.1535 24.5253 55.7429 24.792C55.3322 25.0587 54.8415 25.192 54.2709 25.192ZM66.5554 25V20.504C66.5554 19.7733 66.3794 19.2187 66.0274 18.84C65.6807 18.456 65.206 18.264 64.6034 18.264C64.1447 18.264 63.7474 18.3893 63.4114 18.64C63.0754 18.8907 62.8167 19.2507 62.6354 19.72C62.454 20.184 62.3634 20.7387 62.3634 21.384H61.8834C61.8834 20.4933 62.0007 19.7333 62.2354 19.104C62.47 18.4747 62.8114 17.9947 63.2594 17.664C63.7127 17.328 64.262 17.16 64.9074 17.16C65.51 17.16 66.0247 17.296 66.4514 17.568C66.8834 17.8347 67.214 18.2187 67.4434 18.72C67.6727 19.2213 67.7874 19.816 67.7874 20.504V25H66.5554ZM61.1154 25V17.352H62.1874L62.3634 19.112V25H61.1154ZM73.6836 25.192C72.9423 25.192 72.3236 25.088 71.8276 24.88C71.3316 24.6667 70.9556 24.376 70.6996 24.008C70.4436 23.6347 70.3076 23.208 70.2916 22.728H71.4916C71.5183 23.2133 71.713 23.5787 72.0756 23.824C72.4436 24.064 72.9423 24.184 73.5716 24.184C73.9023 24.184 74.2063 24.1307 74.4836 24.024C74.761 23.9173 74.9823 23.7707 75.1476 23.584C75.313 23.3973 75.3956 23.1867 75.3956 22.952C75.3956 22.6533 75.2863 22.4187 75.0676 22.248C74.849 22.0773 74.4996 21.928 74.0196 21.8L72.5316 21.32C71.8863 21.1173 71.3903 20.84 71.0436 20.488C70.7023 20.1307 70.5316 19.704 70.5316 19.208C70.5316 18.5893 70.8036 18.0933 71.3476 17.72C71.8916 17.3467 72.6063 17.16 73.4916 17.16C74.4303 17.16 75.1583 17.352 75.6756 17.736C76.193 18.12 76.4623 18.6 76.4836 19.176H75.2516C75.2036 18.84 75.033 18.5867 74.7396 18.416C74.4463 18.24 74.0303 18.152 73.4916 18.152C72.9743 18.152 72.569 18.2693 72.2756 18.504C71.9876 18.7333 71.8436 18.9893 71.8436 19.272C71.8436 19.8 72.297 20.1893 73.2036 20.44L74.7236 20.952C75.3796 21.1493 75.881 21.408 76.2276 21.728C76.5796 22.048 76.7556 22.456 76.7556 22.952C76.7556 23.336 76.6303 23.6987 76.3796 24.04C76.129 24.3813 75.7743 24.6587 75.3156 24.872C74.857 25.0853 74.313 25.192 73.6836 25.192ZM79.4607 25V16.168C79.4607 15.6613 79.5567 15.248 79.7487 14.928C79.9461 14.6027 80.2074 14.3627 80.5327 14.208C80.8634 14.0533 81.2314 13.976 81.6367 13.976C81.8554 13.976 82.0767 13.992 82.3007 14.024C82.5301 14.056 82.7567 14.104 82.9807 14.168L82.7407 15.16C82.5807 15.096 82.4207 15.048 82.2607 15.016C82.1061 14.984 81.9567 14.968 81.8127 14.968C81.6421 14.968 81.4714 15 81.3007 15.064C81.1301 15.128 80.9887 15.248 80.8767 15.424C80.7647 15.6 80.7087 15.8533 80.7087 16.184V25H79.4607ZM78.2127 18.216V17.352H82.2927V18.216H78.2127ZM87.3451 25.192C86.6838 25.192 86.0918 25.024 85.5691 24.688C85.0518 24.3467 84.6411 23.8747 84.3371 23.272C84.0385 22.6693 83.8891 21.976 83.8891 21.192C83.8891 20.3547 84.0385 19.6347 84.3371 19.032C84.6358 18.4293 85.0438 17.968 85.5611 17.648C86.0838 17.3227 86.6785 17.16 87.3451 17.16C87.9265 17.16 88.4225 17.2773 88.8331 17.512C89.2438 17.7467 89.5745 18.064 89.8251 18.464C90.0758 18.864 90.2491 19.3173 90.3451 19.824C90.4465 20.3253 90.4758 20.8453 90.4331 21.384H84.8971V20.616H89.6091L89.2411 20.856C89.2571 20.5413 89.2385 20.2267 89.1851 19.912C89.1371 19.5973 89.0438 19.3093 88.9051 19.048C88.7665 18.7813 88.5718 18.568 88.3211 18.408C88.0705 18.248 87.7505 18.168 87.3611 18.168C86.8705 18.168 86.4598 18.2933 86.1291 18.544C85.7985 18.7947 85.5505 19.1253 85.3851 19.536C85.2198 19.9413 85.1371 20.3813 85.1371 20.856V21.368C85.1371 21.9013 85.2171 22.3787 85.3771 22.8C85.5425 23.2213 85.7878 23.5547 86.1131 23.8C86.4385 24.0453 86.8491 24.168 87.3451 24.168C87.8411 24.168 88.2491 24.048 88.5691 23.808C88.8891 23.568 89.0838 23.2133 89.1531 22.744H90.4491C90.3691 23.2507 90.1878 23.688 89.9051 24.056C89.6225 24.4187 89.2625 24.6987 88.8251 24.896C88.3878 25.0933 87.8945 25.192 87.3451 25.192ZM93.0679 25V17.336H94.3159V25H93.0679ZM93.9319 21.544C93.9319 20.5733 94.0252 19.768 94.2119 19.128C94.3985 18.4827 94.6705 18.0027 95.0279 17.688C95.3905 17.368 95.8305 17.208 96.3479 17.208C96.5185 17.208 96.6732 17.2213 96.8119 17.248C96.9559 17.2693 97.0999 17.304 97.2439 17.352L97.1639 18.584C97.0145 18.536 96.8519 18.496 96.6759 18.464C96.4999 18.4267 96.3425 18.408 96.2039 18.408C95.7505 18.408 95.3852 18.5387 95.1079 18.8C94.8305 19.056 94.6279 19.4187 94.4999 19.888C94.3772 20.3573 94.3159 20.9093 94.3159 21.544H93.9319ZM105.318 25.192C104.902 25.192 104.529 25.112 104.198 24.952C103.867 24.792 103.606 24.552 103.414 24.232C103.222 23.912 103.126 23.512 103.126 23.032V15.224H104.358V23C104.358 23.7893 104.726 24.184 105.462 24.184C105.681 24.184 105.891 24.16 106.094 24.112C106.302 24.064 106.534 23.992 106.79 23.896L106.966 24.792C106.694 24.9093 106.422 25.0053 106.15 25.08C105.883 25.1547 105.606 25.192 105.318 25.192ZM101.894 18.216V17.352H106.774V18.216H101.894ZM114.582 25V20.504C114.582 19.7733 114.406 19.2187 114.054 18.84C113.707 18.456 113.232 18.264 112.63 18.264C112.171 18.264 111.774 18.3893 111.438 18.64C111.102 18.8907 110.843 19.2507 110.662 19.72C110.48 20.184 110.39 20.7387 110.39 21.384H109.91C109.91 20.4933 110.027 19.7333 110.262 19.104C110.496 18.4747 110.838 17.9947 111.286 17.664C111.739 17.328 112.288 17.16 112.934 17.16C113.536 17.16 114.051 17.296 114.478 17.568C114.91 17.8347 115.24 18.2187 115.47 18.72C115.699 19.2213 115.814 19.816 115.814 20.504V25H114.582ZM109.142 25V14.088H110.39V25H109.142ZM121.614 25.192C120.953 25.192 120.361 25.024 119.838 24.688C119.321 24.3467 118.91 23.8747 118.606 23.272C118.307 22.6693 118.158 21.976 118.158 21.192C118.158 20.3547 118.307 19.6347 118.606 19.032C118.905 18.4293 119.313 17.968 119.83 17.648C120.353 17.3227 120.947 17.16 121.614 17.16C122.195 17.16 122.691 17.2773 123.102 17.512C123.513 17.7467 123.843 18.064 124.094 18.464C124.345 18.864 124.518 19.3173 124.614 19.824C124.715 20.3253 124.745 20.8453 124.702 21.384H119.166V20.616H123.878L123.51 20.856C123.526 20.5413 123.507 20.2267 123.454 19.912C123.406 19.5973 123.313 19.3093 123.174 19.048C123.035 18.7813 122.841 18.568 122.59 18.408C122.339 18.248 122.019 18.168 121.63 18.168C121.139 18.168 120.729 18.2933 120.398 18.544C120.067 18.7947 119.819 19.1253 119.654 19.536C119.489 19.9413 119.406 20.3813 119.406 20.856V21.368C119.406 21.9013 119.486 22.3787 119.646 22.8C119.811 23.2213 120.057 23.5547 120.382 23.8C120.707 24.0453 121.118 24.168 121.614 24.168C122.11 24.168 122.518 24.048 122.838 23.808C123.158 23.568 123.353 23.2133 123.422 22.744H124.718C124.638 23.2507 124.457 23.688 124.174 24.056C123.891 24.4187 123.531 24.6987 123.094 24.896C122.657 25.0933 122.163 25.192 121.614 25.192ZM133.981 25.192C133.368 25.192 132.795 25.0267 132.261 24.696C131.733 24.3653 131.307 23.8987 130.981 23.296C130.656 22.6933 130.493 21.9813 130.493 21.16C130.493 20.3173 130.656 19.5973 130.981 19C131.307 18.4027 131.733 17.9467 132.261 17.632C132.795 17.3173 133.368 17.16 133.981 17.16C134.413 17.16 134.8 17.2267 135.141 17.36C135.488 17.488 135.789 17.6667 136.045 17.896C136.301 18.1253 136.512 18.3867 136.677 18.68C136.848 18.968 136.973 19.272 137.053 19.592L135.773 19.704C135.64 19.2613 135.416 18.912 135.101 18.656C134.792 18.3947 134.413 18.264 133.965 18.264C133.587 18.264 133.229 18.3733 132.893 18.592C132.563 18.8053 132.293 19.128 132.085 19.56C131.877 19.9867 131.773 20.52 131.773 21.16C131.773 21.752 131.867 22.2667 132.053 22.704C132.245 23.136 132.507 23.472 132.837 23.712C133.168 23.952 133.544 24.072 133.965 24.072C134.557 24.072 135.005 23.928 135.309 23.64C135.619 23.3467 135.773 22.9413 135.773 22.424H137.053C137.053 22.9573 136.928 23.432 136.677 23.848C136.427 24.264 136.069 24.592 135.605 24.832C135.147 25.072 134.605 25.192 133.981 25.192ZM139.704 25V17.336H140.952V25H139.704ZM140.568 21.544C140.568 20.5733 140.661 19.768 140.848 19.128C141.034 18.4827 141.306 18.0027 141.664 17.688C142.026 17.368 142.466 17.208 142.984 17.208C143.154 17.208 143.309 17.2213 143.448 17.248C143.592 17.2693 143.736 17.304 143.88 17.352L143.8 18.584C143.65 18.536 143.488 18.496 143.312 18.464C143.136 18.4267 142.978 18.408 142.84 18.408C142.386 18.408 142.021 18.5387 141.744 18.8C141.466 19.056 141.264 19.4187 141.136 19.888C141.013 20.3573 140.952 20.9093 140.952 21.544H140.568ZM150.845 17.336H152.093V25H150.845V17.336ZM145.421 17.336H146.669V22.104C146.669 22.744 146.823 23.2293 147.133 23.56C147.447 23.8907 147.895 24.056 148.477 24.056C148.957 24.056 149.373 23.928 149.725 23.672C150.082 23.416 150.357 23.064 150.549 22.616C150.746 22.1627 150.845 21.6453 150.845 21.064H151.309C151.309 21.9227 151.183 22.656 150.933 23.264C150.687 23.872 150.338 24.3387 149.885 24.664C149.437 24.984 148.909 25.144 148.301 25.144C147.725 25.144 147.221 25.0373 146.789 24.824C146.357 24.6107 146.021 24.288 145.781 23.856C145.541 23.4187 145.421 22.8667 145.421 22.2V17.336ZM166.244 25V20.504C166.244 19.7733 166.068 19.2187 165.716 18.84C165.37 18.456 164.9 18.264 164.308 18.264C163.615 18.264 163.084 18.5333 162.716 19.072C162.348 19.6053 162.164 20.344 162.164 21.288H161.588C161.588 20.6 161.655 19.9973 161.788 19.48C161.927 18.9627 162.127 18.5333 162.388 18.192C162.65 17.8453 162.967 17.5867 163.34 17.416C163.714 17.2453 164.138 17.16 164.612 17.16C165.215 17.16 165.73 17.296 166.156 17.568C166.588 17.8347 166.919 18.2187 167.148 18.72C167.378 19.2213 167.492 19.816 167.492 20.504V25H166.244ZM155.492 25V17.352H156.564L156.708 18.888C156.948 18.3333 157.284 17.9067 157.716 17.608C158.154 17.3093 158.676 17.16 159.284 17.16C159.887 17.16 160.402 17.296 160.828 17.568C161.26 17.8347 161.591 18.2187 161.82 18.72C162.05 19.2213 162.164 19.816 162.164 20.504V25H160.932V20.504C160.932 19.7733 160.756 19.2187 160.404 18.84C160.058 18.456 159.583 18.264 158.98 18.264C158.522 18.264 158.124 18.3893 157.788 18.64C157.452 18.8907 157.194 19.2507 157.012 19.72C156.831 20.184 156.74 20.7387 156.74 21.384V25H155.492ZM174.125 25.192C173.613 25.192 173.149 25.0587 172.733 24.792C172.322 24.5253 171.994 24.136 171.749 23.624C171.509 23.1067 171.389 22.4773 171.389 21.736H171.869C171.869 22.232 171.97 22.656 172.173 23.008C172.381 23.3547 172.648 23.6187 172.973 23.8C173.298 23.9813 173.64 24.072 173.997 24.072C174.408 24.072 174.784 23.9547 175.125 23.72C175.466 23.4853 175.738 23.1493 175.941 22.712C176.149 22.2747 176.253 21.752 176.253 21.144C176.253 20.5467 176.152 20.0347 175.949 19.608C175.746 19.176 175.472 18.8453 175.125 18.616C174.784 18.3813 174.402 18.264 173.981 18.264C173.618 18.264 173.274 18.3547 172.949 18.536C172.629 18.712 172.368 18.9733 172.165 19.32C171.968 19.6667 171.869 20.0933 171.869 20.6H171.389C171.389 19.8747 171.506 19.256 171.741 18.744C171.981 18.232 172.312 17.84 172.733 17.568C173.154 17.296 173.645 17.16 174.205 17.16C174.808 17.16 175.36 17.3227 175.861 17.648C176.368 17.968 176.773 18.4267 177.077 19.024C177.381 19.6213 177.533 20.328 177.533 21.144C177.533 21.9653 177.378 22.68 177.069 23.288C176.76 23.8907 176.346 24.36 175.829 24.696C175.312 25.0267 174.744 25.192 174.125 25.192ZM170.621 25V14.088H171.869V23.208L171.501 25H170.621ZM183.017 25.192C182.276 25.192 181.657 25.088 181.161 24.88C180.665 24.6667 180.289 24.376 180.033 24.008C179.777 23.6347 179.641 23.208 179.625 22.728H180.825C180.852 23.2133 181.047 23.5787 181.409 23.824C181.777 24.064 182.276 24.184 182.905 24.184C183.236 24.184 183.54 24.1307 183.817 24.024C184.095 23.9173 184.316 23.7707 184.481 23.584C184.647 23.3973 184.729 23.1867 184.729 22.952C184.729 22.6533 184.62 22.4187 184.401 22.248C184.183 22.0773 183.833 21.928 183.353 21.8L181.865 21.32C181.22 21.1173 180.724 20.84 180.377 20.488C180.036 20.1307 179.865 19.704 179.865 19.208C179.865 18.5893 180.137 18.0933 180.681 17.72C181.225 17.3467 181.94 17.16 182.825 17.16C183.764 17.16 184.492 17.352 185.009 17.736C185.527 18.12 185.796 18.6 185.817 19.176H184.585C184.537 18.84 184.367 18.5867 184.073 18.416C183.78 18.24 183.364 18.152 182.825 18.152C182.308 18.152 181.903 18.2693 181.609 18.504C181.321 18.7333 181.177 18.9893 181.177 19.272C181.177 19.8 181.631 20.1893 182.537 20.44L184.057 20.952C184.713 21.1493 185.215 21.408 185.561 21.728C185.913 22.048 186.089 22.456 186.089 22.952C186.089 23.336 185.964 23.6987 185.713 24.04C185.463 24.3813 185.108 24.6587 184.649 24.872C184.191 25.0853 183.647 25.192 183.017 25.192ZM34.968 45.192C34.552 45.192 34.1787 45.112 33.848 44.952C33.5173 44.792 33.256 44.552 33.064 44.232C32.872 43.912 32.776 43.512 32.776 43.032V35.224H34.008V43C34.008 43.7893 34.376 44.184 35.112 44.184C35.3307 44.184 35.5413 44.16 35.744 44.112C35.952 44.064 36.184 43.992 36.44 43.896L36.616 44.792C36.344 44.9093 36.072 45.0053 35.8 45.08C35.5333 45.1547 35.256 45.192 34.968 45.192ZM31.544 38.216V37.352H36.424V38.216H31.544ZM41.5596 45.192C40.8716 45.192 40.2583 45.04 39.7196 44.736C39.1863 44.432 38.765 43.9813 38.4556 43.384C38.1463 42.7867 37.9916 42.0507 37.9916 41.176C37.9916 40.296 38.1463 39.56 38.4556 38.968C38.765 38.3707 39.1863 37.92 39.7196 37.616C40.2583 37.312 40.8716 37.16 41.5596 37.16C42.2423 37.16 42.8503 37.312 43.3836 37.616C43.9223 37.92 44.3436 38.3707 44.6476 38.968C44.957 39.56 45.1116 40.296 45.1116 41.176C45.1116 42.0507 44.957 42.7867 44.6476 43.384C44.3436 43.9813 43.9223 44.432 43.3836 44.736C42.8503 45.04 42.2423 45.192 41.5596 45.192ZM41.5276 44.104C42.0236 44.104 42.445 43.9867 42.7916 43.752C43.1383 43.512 43.3996 43.1733 43.5756 42.736C43.757 42.2987 43.8476 41.7787 43.8476 41.176C43.8476 40.264 43.6583 39.5467 43.2796 39.024C42.901 38.496 42.3383 38.232 41.5916 38.232C41.0903 38.232 40.6663 38.352 40.3196 38.592C39.9783 38.8267 39.717 39.1653 39.5356 39.608C39.3596 40.0453 39.2716 40.568 39.2716 41.176C39.2716 42.0773 39.461 42.792 39.8396 43.32C40.2236 43.8427 40.7863 44.104 41.5276 44.104ZM56.3945 45L56.2345 43.32V40.04C56.2345 39.352 56.0878 38.8587 55.7945 38.56C55.5012 38.256 55.0612 38.104 54.4745 38.104C54.1438 38.104 53.8425 38.152 53.5705 38.248C53.3038 38.344 53.0905 38.4933 52.9305 38.696C52.7758 38.8933 52.6985 39.1493 52.6985 39.464H51.3065C51.3065 38.9093 51.4425 38.464 51.7145 38.128C51.9865 37.7867 52.3598 37.5413 52.8345 37.392C53.3145 37.2373 53.8612 37.16 54.4745 37.16C55.0612 37.16 55.5812 37.2587 56.0345 37.456C56.4878 37.6533 56.8425 37.968 57.0985 38.4C57.3545 38.8267 57.4825 39.384 57.4825 40.072V45H56.3945ZM53.7865 45.192C53.1572 45.192 52.6372 45.08 52.2265 44.856C51.8158 44.632 51.5092 44.3413 51.3065 43.984C51.1038 43.6267 51.0025 43.2507 51.0025 42.856C51.0025 42.3387 51.1305 41.9173 51.3865 41.592C51.6478 41.2667 52.0025 41.0293 52.4505 40.88C52.8985 40.7253 53.4025 40.648 53.9625 40.648C54.3625 40.648 54.7625 40.688 55.1625 40.768C55.5678 40.848 55.9625 40.9573 56.3465 41.096V41.88C56.0265 41.752 55.6638 41.6507 55.2585 41.576C54.8585 41.5013 54.4905 41.464 54.1545 41.464C53.6425 41.464 53.2105 41.5707 52.8585 41.784C52.5065 41.992 52.3305 42.3493 52.3305 42.856C52.3305 43.2293 52.4638 43.5493 52.7305 43.816C53.0025 44.0827 53.4345 44.216 54.0265 44.216C54.4425 44.216 54.8158 44.12 55.1465 43.928C55.4825 43.7307 55.7465 43.4853 55.9385 43.192C56.1358 42.8987 56.2345 42.6053 56.2345 42.312H56.5385C56.5385 42.824 56.4265 43.2987 56.2025 43.736C55.9838 44.1733 55.6692 44.5253 55.2585 44.792C54.8478 45.0587 54.3572 45.192 53.7865 45.192ZM68.0919 45.192C67.5799 45.192 67.1159 45.0587 66.6999 44.792C66.2892 44.5253 65.9612 44.136 65.7159 43.624C65.4759 43.1067 65.3559 42.4773 65.3559 41.736H65.8359C65.8359 42.232 65.9372 42.656 66.1399 43.008C66.3479 43.3547 66.6145 43.6187 66.9399 43.8C67.2652 43.9813 67.6065 44.072 67.9639 44.072C68.3745 44.072 68.7505 43.9547 69.0919 43.72C69.4332 43.4853 69.7052 43.1493 69.9079 42.712C70.1159 42.2747 70.2199 41.752 70.2199 41.144C70.2199 40.5467 70.1185 40.0347 69.9159 39.608C69.7132 39.176 69.4385 38.8453 69.0919 38.616C68.7505 38.3813 68.3692 38.264 67.9479 38.264C67.5852 38.264 67.2412 38.3547 66.9159 38.536C66.5959 38.712 66.3345 38.9733 66.1319 39.32C65.9345 39.6667 65.8359 40.0933 65.8359 40.6H65.3559C65.3559 39.8747 65.4732 39.256 65.7079 38.744C65.9479 38.232 66.2785 37.84 66.6999 37.568C67.1212 37.296 67.6119 37.16 68.1719 37.16C68.7745 37.16 69.3265 37.3227 69.8279 37.648C70.3345 37.968 70.7399 38.4267 71.0439 39.024C71.3479 39.6213 71.4999 40.328 71.4999 41.144C71.4999 41.9653 71.3452 42.68 71.0359 43.288C70.7265 43.8907 70.3132 44.36 69.7959 44.696C69.2785 45.0267 68.7105 45.192 68.0919 45.192ZM64.5879 45V34.088H65.8359V43.208L65.4679 45H64.5879ZM77.0002 45.192C76.3122 45.192 75.6989 45.04 75.1602 44.736C74.6269 44.432 74.2056 43.9813 73.8962 43.384C73.5869 42.7867 73.4322 42.0507 73.4322 41.176C73.4322 40.296 73.5869 39.56 73.8962 38.968C74.2056 38.3707 74.6269 37.92 75.1602 37.616C75.6989 37.312 76.3122 37.16 77.0002 37.16C77.6829 37.16 78.2909 37.312 78.8242 37.616C79.3629 37.92 79.7842 38.3707 80.0882 38.968C80.3976 39.56 80.5522 40.296 80.5522 41.176C80.5522 42.0507 80.3976 42.7867 80.0882 43.384C79.7842 43.9813 79.3629 44.432 78.8242 44.736C78.2909 45.04 77.6829 45.192 77.0002 45.192ZM76.9682 44.104C77.4642 44.104 77.8856 43.9867 78.2322 43.752C78.5789 43.512 78.8402 43.1733 79.0162 42.736C79.1976 42.2987 79.2882 41.7787 79.2882 41.176C79.2882 40.264 79.0989 39.5467 78.7202 39.024C78.3416 38.496 77.7789 38.232 77.0322 38.232C76.5309 38.232 76.1069 38.352 75.7602 38.592C75.4189 38.8267 75.1576 39.1653 74.9762 39.608C74.8002 40.0453 74.7122 40.568 74.7122 41.176C74.7122 42.0773 74.9016 42.792 75.2802 43.32C75.6642 43.8427 76.2269 44.104 76.9682 44.104ZM81.8142 37.352H83.1102L85.0622 43.736H84.9022L86.8062 37.72H87.8462L89.7342 43.752H89.5902L91.5422 37.352H92.7902L90.2782 45H89.0622L87.2062 39.352H87.3982L85.5582 45H84.3422L81.8142 37.352ZM94.896 45V34.088H96.144V45H94.896ZM99.3484 46.744L98.4044 46.28C98.7084 46.1253 98.9644 45.9547 99.1724 45.768C99.3857 45.5813 99.5244 45.352 99.5884 45.08C99.359 45.0533 99.1617 44.9707 98.9964 44.832C98.8364 44.6933 98.7564 44.5093 98.7564 44.28C98.7564 44.056 98.839 43.864 99.0044 43.704C99.175 43.544 99.391 43.464 99.6524 43.464C99.983 43.464 100.25 43.584 100.452 43.824C100.655 44.064 100.756 44.3493 100.756 44.68C100.756 45.0693 100.636 45.4507 100.396 45.824C100.162 46.2027 99.8124 46.5093 99.3484 46.744ZM107.001 46.616V33.32H110.153V34.424H108.249V45.512H110.153V46.616H107.001ZM111.087 44.256C111.087 44.0053 111.175 43.7893 111.351 43.608C111.527 43.4267 111.749 43.336 112.015 43.336C112.282 43.336 112.509 43.4267 112.695 43.608C112.882 43.7893 112.975 44.0053 112.975 44.256C112.975 44.5067 112.882 44.7173 112.695 44.888C112.509 45.0587 112.282 45.144 112.015 45.144C111.749 45.144 111.527 45.0587 111.351 44.888C111.175 44.712 111.087 44.5013 111.087 44.256ZM114.107 44.256C114.107 44.0053 114.195 43.7893 114.371 43.608C114.547 43.4267 114.768 43.336 115.035 43.336C115.302 43.336 115.528 43.4267 115.715 43.608C115.902 43.7893 115.995 44.0053 115.995 44.256C115.995 44.5067 115.902 44.7173 115.715 44.888C115.528 45.0587 115.302 45.144 115.035 45.144C114.768 45.144 114.547 45.0587 114.371 44.888C114.195 44.712 114.107 44.5013 114.107 44.256ZM117.126 44.256C117.126 44.0053 117.214 43.7893 117.39 43.608C117.566 43.4267 117.788 43.336 118.054 43.336C118.321 43.336 118.548 43.4267 118.734 43.608C118.921 43.7893 119.014 44.0053 119.014 44.256C119.014 44.5067 118.921 44.7173 118.734 44.888C118.548 45.0587 118.321 45.144 118.054 45.144C117.788 45.144 117.566 45.0587 117.39 44.888C117.214 44.712 117.126 44.5013 117.126 44.256ZM122.594 46.616V33.32H119.442V34.424H121.346V45.512H119.442V46.616H122.594ZM128.46 38.296L127.564 37.816C127.868 37.6613 128.124 37.488 128.332 37.296C128.546 37.0987 128.684 36.872 128.748 36.616C128.508 36.5893 128.306 36.5067 128.14 36.368C127.98 36.2293 127.9 36.0453 127.9 35.816C127.9 35.5813 127.988 35.384 128.164 35.224C128.34 35.064 128.562 34.984 128.828 34.984C129.052 34.984 129.244 35.0427 129.404 35.16C129.564 35.272 129.687 35.424 129.772 35.616C129.858 35.8027 129.9 36.0133 129.9 36.248C129.9 36.632 129.775 37.008 129.524 37.376C129.274 37.7387 128.919 38.0453 128.46 38.296ZM125.844 38.296L124.948 37.816C125.252 37.6613 125.508 37.488 125.716 37.296C125.93 37.0987 126.068 36.872 126.132 36.616C125.892 36.5893 125.69 36.5067 125.524 36.368C125.364 36.2293 125.284 36.0453 125.284 35.816C125.284 35.5813 125.372 35.384 125.548 35.224C125.724 35.064 125.946 34.984 126.212 34.984C126.436 34.984 126.628 35.0427 126.788 35.16C126.948 35.272 127.071 35.424 127.156 35.616C127.242 35.8027 127.284 36.0133 127.284 36.248C127.284 36.632 127.159 37.008 126.908 37.376C126.658 37.7387 126.303 38.0453 125.844 38.296Z" fill="#333333"/>
</g>
<defs>
<filter id="filter0_d_7070_5673" x="0" y="0" width="206.035" height="68" filterUnits="userSpaceOnUse" color-interpolation-filters="sRGB">
<feFlood flood-opacity="0" result="BackgroundImageFix"/>
<feColorMatrix in="SourceAlpha" type="matrix" values="0 0 0 0 0 0 0 0 0 0 0 0 0 0 0 0 0 0 127 0" result="hardAlpha"/>
<feOffset dy="4"/>
<feGaussianBlur stdDeviation="3"/>
<feComposite in2="hardAlpha" operator="out"/>
<feColorMatrix type="matrix" values="0 0 0 0 0 0 0 0 0 0 0 0 0 0 0 0 0 0 0.1 0"/>
<feBlend mode="normal" in2="BackgroundImageFix" result="effect1_dropShadow_7070_5673"/>
<feBlend mode="normal" in="SourceGraphic" in2="effect1_dropShadow_7070_5673" result="shape"/>
</filter>
<filter id="filter1_d_7070_5673" x="25.5439" y="11.9756" width="166.545" height="44.7686" filterUnits="userSpaceOnUse" color-interpolation-filters="sRGB">
<feFlood flood-opacity="0" result="BackgroundImageFix"/>
<feColorMatrix in="SourceAlpha" type="matrix" values="0 0 0 0 0 0 0 0 0 0 0 0 0 0 0 0 0 0 127 0" result="hardAlpha"/>
<feOffset dy="4"/>
<feGaussianBlur stdDeviation="3"/>
<feComposite in2="hardAlpha" operator="out"/>
<feColorMatrix type="matrix" values="0 0 0 0 0 0 0 0 0 0 0 0 0 0 0 0 0 0 0.05 0"/>
<feBlend mode="normal" in2="BackgroundImageFix" result="effect1_dropShadow_7070_5673"/>
<feBlend mode="normal" in="SourceGraphic" in2="effect1_dropShadow_7070_5673" result="shape"/>
</filter>
</defs>
</svg>
