<svg width="256" height="68" viewBox="0 0 256 68" fill="none" xmlns="http://www.w3.org/2000/svg">
<mask id="path-1-inside-1_7093_6126" fill="white">
<path d="M248.724 27.3669L239 19L239 11C239 6.02944 234.971 2 230 2L9.00022 1.99998C4.02965 1.99998 0.000218166 6.02942 0.000217732 11L0.00021441 49C0.000213975 53.9705 4.02965 58 9.00021 58L230 58C234.971 58 239 53.9706 239 49L239 39.5L248.612 32.0069C250.106 30.8425 250.16 28.6022 248.724 27.3669Z"/>
</mask>
<path d="M248.724 27.3669L239 19L239 11C239 6.02944 234.971 2 230 2L9.00022 1.99998C4.02965 1.99998 0.000218166 6.02942 0.000217732 11L0.00021441 49C0.000213975 53.9705 4.02965 58 9.00021 58L230 58C234.971 58 239 53.9706 239 49L239 39.5L248.612 32.0069C250.106 30.8425 250.16 28.6022 248.724 27.3669Z" fill="white"/>
<path d="M239 19L237.6 19L237.6 19.6423L238.087 20.0612L239 19ZM248.724 27.3669L249.637 26.3056L249.637 26.3056L248.724 27.3669ZM248.612 32.0069L247.751 30.9028L247.751 30.9028L248.612 32.0069ZM239 39.5L238.139 38.3959L237.6 38.8162L237.6 39.5L239 39.5ZM238.087 20.0612L247.811 28.4281L249.637 26.3056L239.913 17.9388L238.087 20.0612ZM247.751 30.9028L238.139 38.3959L239.861 40.6041L249.473 33.1111L247.751 30.9028ZM247.811 28.4281C248.577 29.0869 248.548 30.2817 247.751 30.9028L249.473 33.1111C251.664 31.4032 251.743 28.1175 249.637 26.3056L247.811 28.4281ZM230 56.6L9.00021 56.6L9.00021 59.4L230 59.4L230 56.6ZM1.40021 49L1.40022 11L-1.39978 11L-1.39979 49L1.40021 49ZM9.00022 3.39998L230 3.4L230 0.599998L9.00022 0.599979L9.00022 3.39998ZM237.6 39.5L237.6 49L240.4 49L240.4 39.5L237.6 39.5ZM237.6 11L237.6 19L240.4 19L240.4 11L237.6 11ZM230 3.4C234.198 3.4 237.6 6.80264 237.6 11L240.4 11C240.4 5.25624 235.744 0.599999 230 0.599998L230 3.4ZM1.40022 11C1.40022 6.80261 4.80285 3.39998 9.00022 3.39998L9.00022 0.599979C3.25645 0.599978 -1.39978 5.25622 -1.39978 11L1.40022 11ZM9.00021 56.6C4.80285 56.6 1.40021 53.1973 1.40021 49L-1.39979 49C-1.39979 54.7437 3.25645 59.4 9.00021 59.4L9.00021 56.6ZM230 59.4C235.744 59.4 240.4 54.7438 240.4 49L237.6 49C237.6 53.1974 234.198 56.6 230 56.6L230 59.4Z" fill="white" mask="url(#path-1-inside-1_7093_6126)"/>
<g filter="url(#filter0_d_7093_6126)">
<mask id="path-3-inside-2_7093_6126" fill="white">
<path d="M248.724 27.3669L239 19L239 11C239 6.02944 234.971 2 230 2L61.0002 1.99998C56.0297 1.99998 52.0002 6.02942 52.0002 11L52.0002 49C52.0002 53.9705 56.0296 58 61.0002 58L230 58C234.971 58 239 53.9706 239 49L239 39.5L248.612 32.0069C250.106 30.8425 250.16 28.6022 248.724 27.3669Z"/>
</mask>
<path d="M248.724 27.3669L239 19L239 11C239 6.02944 234.971 2 230 2L61.0002 1.99998C56.0297 1.99998 52.0002 6.02942 52.0002 11L52.0002 49C52.0002 53.9705 56.0296 58 61.0002 58L230 58C234.971 58 239 53.9706 239 49L239 39.5L248.612 32.0069C250.106 30.8425 250.16 28.6022 248.724 27.3669Z" fill="white"/>
<path d="M239 19L237.6 19L237.6 19.6423L238.087 20.0612L239 19ZM248.724 27.3669L249.637 26.3056L249.637 26.3056L248.724 27.3669ZM248.612 32.0069L247.751 30.9028L247.751 30.9028L248.612 32.0069ZM239 39.5L238.139 38.3959L237.6 38.8162L237.6 39.5L239 39.5ZM230 58L230 59.4L230 59.4L230 58ZM61.0002 58L61.0002 56.6H61.0002L61.0002 58ZM238.087 20.0612L247.811 28.4281L249.637 26.3056L239.913 17.9388L238.087 20.0612ZM247.751 30.9028L238.139 38.3959L239.861 40.6041L249.473 33.1111L247.751 30.9028ZM247.811 28.4281C248.577 29.0869 248.548 30.2817 247.751 30.9028L249.473 33.1111C251.664 31.4032 251.743 28.1175 249.637 26.3056L247.811 28.4281ZM230 56.6L61.0002 56.6L61.0002 59.4L230 59.4L230 56.6ZM53.4002 49L53.4002 11L50.6002 11L50.6002 49L53.4002 49ZM61.0002 3.39998L230 3.4L230 0.599998L61.0002 0.599984L61.0002 3.39998ZM237.6 39.5L237.6 49L240.4 49L240.4 39.5L237.6 39.5ZM237.6 11L237.6 19L240.4 19L240.4 11L237.6 11ZM230 3.4C234.198 3.4 237.6 6.80264 237.6 11L240.4 11C240.4 5.25624 235.744 0.599999 230 0.599998L230 3.4ZM53.4002 11C53.4002 6.80262 56.8029 3.39998 61.0002 3.39998L61.0002 0.599984C55.2565 0.599983 50.6002 5.25622 50.6002 11L53.4002 11ZM61.0002 56.6C56.8028 56.6 53.4002 53.1973 53.4002 49L50.6002 49C50.6002 54.7437 55.2564 59.4 61.0002 59.4L61.0002 56.6ZM230 59.4C235.744 59.4 240.4 54.7438 240.4 49L237.6 49C237.6 53.1974 234.198 56.6 230 56.6L230 59.4Z" fill="#333333" mask="url(#path-3-inside-2_7093_6126)"/>
</g>
<g filter="url(#filter1_d_7093_6126)">
<path d="M67.6813 15.452H69.1693L74.2733 23.724H74.1613V15.452H75.4093V25.5H74.0173L68.7373 16.956H68.9293V25.5H67.6813V15.452ZM81.4508 25.692C80.7894 25.692 80.1974 25.524 79.6748 25.188C79.1574 24.8467 78.7468 24.3747 78.4428 23.772C78.1441 23.1693 77.9948 22.476 77.9948 21.692C77.9948 20.8547 78.1441 20.1347 78.4428 19.532C78.7414 18.9293 79.1494 18.468 79.6668 18.148C80.1894 17.8227 80.7841 17.66 81.4508 17.66C82.0321 17.66 82.5281 17.7773 82.9388 18.012C83.3494 18.2467 83.6801 18.564 83.9308 18.964C84.1814 19.364 84.3548 19.8173 84.4508 20.324C84.5521 20.8253 84.5814 21.3453 84.5388 21.884H79.0028V21.116H83.7148L83.3468 21.356C83.3628 21.0413 83.3441 20.7267 83.2908 20.412C83.2428 20.0973 83.1494 19.8093 83.0108 19.548C82.8721 19.2813 82.6774 19.068 82.4268 18.908C82.1761 18.748 81.8561 18.668 81.4668 18.668C80.9761 18.668 80.5654 18.7933 80.2348 19.044C79.9041 19.2947 79.6561 19.6253 79.4908 20.036C79.3254 20.4413 79.2428 20.8813 79.2428 21.356V21.868C79.2428 22.4013 79.3228 22.8787 79.4828 23.3C79.6481 23.7213 79.8934 24.0547 80.2188 24.3C80.5441 24.5453 80.9548 24.668 81.4508 24.668C81.9468 24.668 82.3548 24.548 82.6748 24.308C82.9948 24.068 83.1894 23.7133 83.2588 23.244H84.5548C84.4748 23.7507 84.2934 24.188 84.0108 24.556C83.7281 24.9187 83.3681 25.1987 82.9308 25.396C82.4934 25.5933 82.0001 25.692 81.4508 25.692ZM85.8455 17.852H87.2695L89.6695 24.428H89.4935L91.8935 17.852H93.3175L90.2615 25.5H88.9015L85.8455 17.852ZM98.0364 25.692C97.375 25.692 96.783 25.524 96.2604 25.188C95.743 24.8467 95.3324 24.3747 95.0284 23.772C94.7297 23.1693 94.5804 22.476 94.5804 21.692C94.5804 20.8547 94.7297 20.1347 95.0284 19.532C95.327 18.9293 95.735 18.468 96.2524 18.148C96.775 17.8227 97.3697 17.66 98.0364 17.66C98.6177 17.66 99.1137 17.7773 99.5244 18.012C99.935 18.2467 100.266 18.564 100.516 18.964C100.767 19.364 100.94 19.8173 101.036 20.324C101.138 20.8253 101.167 21.3453 101.124 21.884H95.5884V21.116H100.3L99.9324 21.356C99.9484 21.0413 99.9297 20.7267 99.8764 20.412C99.8284 20.0973 99.735 19.8093 99.5964 19.548C99.4577 19.2813 99.263 19.068 99.0124 18.908C98.7617 18.748 98.4417 18.668 98.0524 18.668C97.5617 18.668 97.151 18.7933 96.8204 19.044C96.4897 19.2947 96.2417 19.6253 96.0764 20.036C95.911 20.4413 95.8284 20.8813 95.8284 21.356V21.868C95.8284 22.4013 95.9084 22.8787 96.0684 23.3C96.2337 23.7213 96.479 24.0547 96.8044 24.3C97.1297 24.5453 97.5404 24.668 98.0364 24.668C98.5324 24.668 98.9404 24.548 99.2604 24.308C99.5804 24.068 99.775 23.7133 99.8444 23.244H101.14C101.06 23.7507 100.879 24.188 100.596 24.556C100.314 24.9187 99.9537 25.1987 99.5164 25.396C99.079 25.5933 98.5857 25.692 98.0364 25.692ZM103.759 25.5V17.836H105.007V25.5H103.759ZM104.623 22.044C104.623 21.0733 104.716 20.268 104.903 19.628C105.09 18.9827 105.362 18.5027 105.719 18.188C106.082 17.868 106.522 17.708 107.039 17.708C107.21 17.708 107.364 17.7213 107.503 17.748C107.647 17.7693 107.791 17.804 107.935 17.852L107.855 19.084C107.706 19.036 107.543 18.996 107.367 18.964C107.191 18.9267 107.034 18.908 106.895 18.908C106.442 18.908 106.076 19.0387 105.799 19.3C105.522 19.556 105.319 19.9187 105.191 20.388C105.068 20.8573 105.007 21.4093 105.007 22.044H104.623ZM124.409 25.5V21.004C124.409 20.2733 124.233 19.7187 123.881 19.34C123.535 18.956 123.065 18.764 122.473 18.764C121.78 18.764 121.249 19.0333 120.881 19.572C120.513 20.1053 120.329 20.844 120.329 21.788H119.753C119.753 21.1 119.82 20.4973 119.953 19.98C120.092 19.4627 120.292 19.0333 120.553 18.692C120.815 18.3453 121.132 18.0867 121.505 17.916C121.879 17.7453 122.303 17.66 122.777 17.66C123.38 17.66 123.895 17.796 124.321 18.068C124.753 18.3347 125.084 18.7187 125.313 19.22C125.543 19.7213 125.657 20.316 125.657 21.004V25.5H124.409ZM113.657 25.5V17.852H114.729L114.873 19.388C115.113 18.8333 115.449 18.4067 115.881 18.108C116.319 17.8093 116.841 17.66 117.449 17.66C118.052 17.66 118.567 17.796 118.993 18.068C119.425 18.3347 119.756 18.7187 119.985 19.22C120.215 19.7213 120.329 20.316 120.329 21.004V25.5H119.097V21.004C119.097 20.2733 118.921 19.7187 118.569 19.34C118.223 18.956 117.748 18.764 117.145 18.764C116.687 18.764 116.289 18.8893 115.953 19.14C115.617 19.3907 115.359 19.7507 115.177 20.22C114.996 20.684 114.905 21.2387 114.905 21.884V25.5H113.657ZM129.49 16.044C129.234 16.044 129.031 15.972 128.882 15.828C128.733 15.6787 128.658 15.484 128.658 15.244C128.658 15.0093 128.733 14.8227 128.882 14.684C129.031 14.5453 129.234 14.476 129.49 14.476C129.746 14.476 129.949 14.5453 130.098 14.684C130.247 14.8227 130.322 15.0093 130.322 15.244C130.322 15.484 130.247 15.6787 130.098 15.828C129.949 15.972 129.746 16.044 129.49 16.044ZM128.866 25.5V17.836H130.114V25.5H128.866ZM139.152 25.5V21.004C139.152 20.2733 138.976 19.7187 138.624 19.34C138.277 18.956 137.802 18.764 137.2 18.764C136.741 18.764 136.344 18.8893 136.008 19.14C135.672 19.3907 135.413 19.7507 135.232 20.22C135.05 20.684 134.96 21.2387 134.96 21.884H134.48C134.48 20.9933 134.597 20.2333 134.832 19.604C135.066 18.9747 135.408 18.4947 135.856 18.164C136.309 17.828 136.858 17.66 137.504 17.66C138.106 17.66 138.621 17.796 139.048 18.068C139.48 18.3347 139.81 18.7187 140.04 19.22C140.269 19.7213 140.384 20.316 140.384 21.004V25.5H139.152ZM133.712 25.5V17.852H134.784L134.96 19.612V25.5H133.712ZM146.264 25.692C145.645 25.692 145.077 25.5267 144.56 25.196C144.043 24.86 143.629 24.3907 143.32 23.788C143.011 23.18 142.856 22.4653 142.856 21.644C142.856 20.828 143.008 20.1213 143.312 19.524C143.616 18.9267 144.019 18.468 144.52 18.148C145.027 17.8227 145.581 17.66 146.184 17.66C146.744 17.66 147.235 17.796 147.656 18.068C148.083 18.34 148.413 18.732 148.648 19.244C148.883 19.756 149 20.3747 149 21.1H148.52C148.52 20.5933 148.419 20.1667 148.216 19.82C148.019 19.4733 147.76 19.212 147.44 19.036C147.12 18.8547 146.776 18.764 146.408 18.764C145.992 18.764 145.611 18.8813 145.264 19.116C144.923 19.3453 144.648 19.676 144.44 20.108C144.237 20.5347 144.136 21.0467 144.136 21.644C144.136 22.252 144.237 22.7747 144.44 23.212C144.648 23.6493 144.923 23.9853 145.264 24.22C145.611 24.4547 145.992 24.572 146.408 24.572C146.755 24.572 147.088 24.4813 147.408 24.3C147.733 24.1187 148 23.8547 148.208 23.508C148.416 23.156 148.52 22.732 148.52 22.236H149C149 22.9773 148.877 23.6067 148.632 24.124C148.392 24.636 148.064 25.0253 147.648 25.292C147.237 25.5587 146.776 25.692 146.264 25.692ZM148.728 25.5L148.52 23.708V14.588H149.768V25.5H148.728ZM152.98 27.244L152.036 26.78C152.34 26.6253 152.596 26.4547 152.804 26.268C153.018 26.0813 153.156 25.852 153.22 25.58C152.991 25.5533 152.794 25.4707 152.628 25.332C152.468 25.1933 152.388 25.0093 152.388 24.78C152.388 24.556 152.471 24.364 152.636 24.204C152.807 24.044 153.023 23.964 153.284 23.964C153.615 23.964 153.882 24.084 154.084 24.324C154.287 24.564 154.388 24.8493 154.388 25.18C154.388 25.5693 154.268 25.9507 154.028 26.324C153.794 26.7027 153.444 27.0093 152.98 27.244ZM160.633 25.5V17.836H161.881V25.5H160.633ZM161.497 22.044C161.497 21.0733 161.59 20.268 161.777 19.628C161.964 18.9827 162.236 18.5027 162.593 18.188C162.956 17.868 163.396 17.708 163.913 17.708C164.084 17.708 164.238 17.7213 164.377 17.748C164.521 17.7693 164.665 17.804 164.809 17.852L164.729 19.084C164.58 19.036 164.417 18.996 164.241 18.964C164.065 18.9267 163.908 18.908 163.769 18.908C163.316 18.908 162.95 19.0387 162.673 19.3C162.396 19.556 162.193 19.9187 162.065 20.388C161.942 20.8573 161.881 21.4093 161.881 22.044H161.497ZM169.23 25.692C168.569 25.692 167.977 25.524 167.454 25.188C166.937 24.8467 166.526 24.3747 166.222 23.772C165.923 23.1693 165.774 22.476 165.774 21.692C165.774 20.8547 165.923 20.1347 166.222 19.532C166.521 18.9293 166.929 18.468 167.446 18.148C167.969 17.8227 168.563 17.66 169.23 17.66C169.811 17.66 170.307 17.7773 170.718 18.012C171.129 18.2467 171.459 18.564 171.71 18.964C171.961 19.364 172.134 19.8173 172.23 20.324C172.331 20.8253 172.361 21.3453 172.318 21.884H166.782V21.116H171.494L171.126 21.356C171.142 21.0413 171.123 20.7267 171.07 20.412C171.022 20.0973 170.929 19.8093 170.79 19.548C170.651 19.2813 170.457 19.068 170.206 18.908C169.955 18.748 169.635 18.668 169.246 18.668C168.755 18.668 168.345 18.7933 168.014 19.044C167.683 19.2947 167.435 19.6253 167.27 20.036C167.105 20.4413 167.022 20.8813 167.022 21.356V21.868C167.022 22.4013 167.102 22.8787 167.262 23.3C167.427 23.7213 167.673 24.0547 167.998 24.3C168.323 24.5453 168.734 24.668 169.23 24.668C169.726 24.668 170.134 24.548 170.454 24.308C170.774 24.068 170.969 23.7133 171.038 23.244H172.334C172.254 23.7507 172.073 24.188 171.79 24.556C171.507 24.9187 171.147 25.1987 170.71 25.396C170.273 25.5933 169.779 25.692 169.23 25.692ZM177.305 25.692C176.889 25.692 176.516 25.612 176.185 25.452C175.854 25.292 175.593 25.052 175.401 24.732C175.209 24.412 175.113 24.012 175.113 23.532V15.724H176.345V23.5C176.345 24.2893 176.713 24.684 177.449 24.684C177.668 24.684 177.878 24.66 178.081 24.612C178.289 24.564 178.521 24.492 178.777 24.396L178.953 25.292C178.681 25.4093 178.409 25.5053 178.137 25.58C177.87 25.6547 177.593 25.692 177.305 25.692ZM173.881 18.716V17.852H178.761V18.716H173.881ZM186.329 17.836H187.577V25.5H186.329V17.836ZM180.905 17.836H182.153V22.604C182.153 23.244 182.307 23.7293 182.617 24.06C182.931 24.3907 183.379 24.556 183.961 24.556C184.441 24.556 184.857 24.428 185.209 24.172C185.566 23.916 185.841 23.564 186.033 23.116C186.23 22.6627 186.329 22.1453 186.329 21.564H186.793C186.793 22.4227 186.667 23.156 186.417 23.764C186.171 24.372 185.822 24.8387 185.369 25.164C184.921 25.484 184.393 25.644 183.785 25.644C183.209 25.644 182.705 25.5373 182.273 25.324C181.841 25.1107 181.505 24.788 181.265 24.356C181.025 23.9187 180.905 23.3667 180.905 22.7V17.836ZM190.976 25.5V17.836H192.224V25.5H190.976ZM191.84 22.044C191.84 21.0733 191.933 20.268 192.12 19.628C192.307 18.9827 192.579 18.5027 192.936 18.188C193.299 17.868 193.739 17.708 194.256 17.708C194.427 17.708 194.581 17.7213 194.72 17.748C194.864 17.7693 195.008 17.804 195.152 17.852L195.072 19.084C194.923 19.036 194.76 18.996 194.584 18.964C194.408 18.9267 194.251 18.908 194.112 18.908C193.659 18.908 193.293 19.0387 193.016 19.3C192.739 19.556 192.536 19.9187 192.408 20.388C192.285 20.8573 192.224 21.4093 192.224 22.044H191.84ZM202.357 25.5V21.004C202.357 20.2733 202.181 19.7187 201.829 19.34C201.483 18.956 201.008 18.764 200.405 18.764C199.947 18.764 199.549 18.8893 199.213 19.14C198.877 19.3907 198.619 19.7507 198.437 20.22C198.256 20.684 198.165 21.2387 198.165 21.884H197.685C197.685 20.9933 197.803 20.2333 198.037 19.604C198.272 18.9747 198.613 18.4947 199.061 18.164C199.515 17.828 200.064 17.66 200.709 17.66C201.312 17.66 201.827 17.796 202.253 18.068C202.685 18.3347 203.016 18.7187 203.245 19.22C203.475 19.7213 203.589 20.316 203.589 21.004V25.5H202.357ZM196.917 25.5V17.852H197.989L198.165 19.612V25.5H196.917ZM213.042 25.692C212.626 25.692 212.253 25.612 211.922 25.452C211.592 25.292 211.33 25.052 211.138 24.732C210.946 24.412 210.85 24.012 210.85 23.532V15.724H212.082V23.5C212.082 24.2893 212.45 24.684 213.186 24.684C213.405 24.684 213.616 24.66 213.818 24.612C214.026 24.564 214.258 24.492 214.514 24.396L214.69 25.292C214.418 25.4093 214.146 25.5053 213.874 25.58C213.608 25.6547 213.33 25.692 213.042 25.692ZM209.618 18.716V17.852H214.498V18.716H209.618ZM219.634 25.692C218.946 25.692 218.333 25.54 217.794 25.236C217.261 24.932 216.839 24.4813 216.53 23.884C216.221 23.2867 216.066 22.5507 216.066 21.676C216.066 20.796 216.221 20.06 216.53 19.468C216.839 18.8707 217.261 18.42 217.794 18.116C218.333 17.812 218.946 17.66 219.634 17.66C220.317 17.66 220.925 17.812 221.458 18.116C221.997 18.42 222.418 18.8707 222.722 19.468C223.031 20.06 223.186 20.796 223.186 21.676C223.186 22.5507 223.031 23.2867 222.722 23.884C222.418 24.4813 221.997 24.932 221.458 25.236C220.925 25.54 220.317 25.692 219.634 25.692ZM219.602 24.604C220.098 24.604 220.519 24.4867 220.866 24.252C221.213 24.012 221.474 23.6733 221.65 23.236C221.831 22.7987 221.922 22.2787 221.922 21.676C221.922 20.764 221.733 20.0467 221.354 19.524C220.975 18.996 220.413 18.732 219.666 18.732C219.165 18.732 218.741 18.852 218.394 19.092C218.053 19.3267 217.791 19.6653 217.61 20.108C217.434 20.5453 217.346 21.068 217.346 21.676C217.346 22.5773 217.535 23.292 217.914 23.82C218.298 24.3427 218.861 24.604 219.602 24.604ZM65.803 45.692C65.387 45.692 65.0137 45.612 64.683 45.452C64.3523 45.292 64.091 45.052 63.899 44.732C63.707 44.412 63.611 44.012 63.611 43.532V35.724H64.843V43.5C64.843 44.2893 65.211 44.684 65.947 44.684C66.1657 44.684 66.3763 44.66 66.579 44.612C66.787 44.564 67.019 44.492 67.275 44.396L67.451 45.292C67.179 45.4093 66.907 45.5053 66.635 45.58C66.3683 45.6547 66.091 45.692 65.803 45.692ZM62.379 38.716V37.852H67.259V38.716H62.379ZM75.0666 45.5V41.004C75.0666 40.2733 74.8906 39.7187 74.5386 39.34C74.192 38.956 73.7173 38.764 73.1146 38.764C72.656 38.764 72.2586 38.8893 71.9226 39.14C71.5866 39.3907 71.328 39.7507 71.1466 40.22C70.9653 40.684 70.8746 41.2387 70.8746 41.884H70.3946C70.3946 40.9933 70.512 40.2333 70.7466 39.604C70.9813 38.9747 71.3226 38.4947 71.7706 38.164C72.224 37.828 72.7733 37.66 73.4186 37.66C74.0213 37.66 74.536 37.796 74.9626 38.068C75.3946 38.3347 75.7253 38.7187 75.9546 39.22C76.184 39.7213 76.2986 40.316 76.2986 41.004V45.5H75.0666ZM69.6266 45.5V34.588H70.8746V45.5H69.6266ZM82.0989 45.692C81.4375 45.692 80.8455 45.524 80.3229 45.188C79.8055 44.8467 79.3949 44.3747 79.0909 43.772C78.7922 43.1693 78.6429 42.476 78.6429 41.692C78.6429 40.8547 78.7922 40.1347 79.0909 39.532C79.3895 38.9293 79.7975 38.468 80.3149 38.148C80.8375 37.8227 81.4322 37.66 82.0989 37.66C82.6802 37.66 83.1762 37.7773 83.5869 38.012C83.9975 38.2467 84.3282 38.564 84.5789 38.964C84.8295 39.364 85.0029 39.8173 85.0989 40.324C85.2002 40.8253 85.2295 41.3453 85.1869 41.884H79.6509V41.116H84.3629L83.9949 41.356C84.0109 41.0413 83.9922 40.7267 83.9389 40.412C83.8909 40.0973 83.7975 39.8093 83.6589 39.548C83.5202 39.2813 83.3255 39.068 83.0749 38.908C82.8242 38.748 82.5042 38.668 82.1149 38.668C81.6242 38.668 81.2135 38.7933 80.8829 39.044C80.5522 39.2947 80.3042 39.6253 80.1389 40.036C79.9735 40.4413 79.8909 40.8813 79.8909 41.356V41.868C79.8909 42.4013 79.9709 42.8787 80.1309 43.3C80.2962 43.7213 80.5415 44.0547 80.8669 44.3C81.1922 44.5453 81.6029 44.668 82.0989 44.668C82.5949 44.668 83.0029 44.548 83.3229 44.308C83.6429 44.068 83.8375 43.7133 83.9069 43.244H85.2029C85.1229 43.7507 84.9415 44.188 84.6589 44.556C84.3762 44.9187 84.0162 45.1987 83.5789 45.396C83.1415 45.5933 82.6482 45.692 82.0989 45.692ZM91.6505 35.116H94.3545L97.2825 41.468H97.1225L100.051 35.116H102.659V45.5H100.755V37.292H101.043L97.8105 44.364H96.5785L93.3625 37.324H93.5385V45.5H91.6505V35.116ZM104.659 45.5L108.195 35.116H110.563L113.955 45.5H111.971L111.251 43.26H107.395L106.659 45.5H104.659ZM107.875 41.836H110.803L109.347 37.372L107.875 41.836ZM113.86 36.748V35.116H122.18V36.748H118.54L118.964 36.316V45.5H117.076V36.316L117.5 36.748H113.86ZM123.896 45.5V35.116H130.568V36.748H125.784V39.484H130.28V41.116H125.784V43.852H130.568V45.5H123.896ZM133.462 45.5V35.116H137.302C138.545 35.116 139.497 35.4067 140.158 35.988C140.825 36.5693 141.158 37.34 141.158 38.3C141.158 39.244 140.825 40.0067 140.158 40.588C139.497 41.164 138.545 41.452 137.302 41.452H135.35V45.5H133.462ZM139.078 45.5L136.326 40.636H138.342L141.542 45.5H139.078ZM135.35 40.188H137.11C137.804 40.188 138.329 40.0307 138.686 39.716C139.044 39.396 139.222 38.9827 139.222 38.476C139.222 37.9587 139.06 37.5427 138.734 37.228C138.409 36.908 137.932 36.748 137.302 36.748H135.35V40.188ZM143.919 45.5V35.116H145.807V45.5H143.919ZM147.818 45.5L151.354 35.116H153.722L157.114 45.5H155.13L154.41 43.26H150.554L149.818 45.5H147.818ZM151.034 41.836H153.962L152.506 37.372L151.034 41.836ZM161.018 35.116V43.852H165.29V45.5H159.13V35.116H161.018ZM170.812 45.724C170.092 45.724 169.428 45.5987 168.82 45.348C168.217 45.0973 167.727 44.716 167.348 44.204C166.975 43.692 166.775 43.0413 166.748 42.252H168.604C168.604 42.652 168.703 42.98 168.9 43.236C169.097 43.492 169.361 43.684 169.692 43.812C170.028 43.9347 170.396 43.996 170.796 43.996C171.18 43.996 171.521 43.9453 171.82 43.844C172.124 43.7427 172.361 43.5987 172.532 43.412C172.708 43.22 172.796 42.9933 172.796 42.732C172.796 42.3853 172.689 42.1133 172.476 41.916C172.268 41.7187 171.932 41.5373 171.468 41.372L169.42 40.556C168.62 40.2413 168.007 39.876 167.58 39.46C167.153 39.044 166.94 38.4707 166.94 37.74C166.94 36.8973 167.273 36.2147 167.94 35.692C168.607 35.1693 169.537 34.908 170.732 34.908C171.895 34.908 172.793 35.18 173.428 35.724C174.063 36.2627 174.423 37.0147 174.508 37.98H172.652C172.583 37.5693 172.396 37.2413 172.092 36.996C171.788 36.7453 171.335 36.62 170.732 36.62C170.199 36.62 169.777 36.732 169.468 36.956C169.159 37.1747 169.004 37.452 169.004 37.788C169.004 38.076 169.1 38.3053 169.292 38.476C169.489 38.6413 169.793 38.8013 170.204 38.956L172.476 39.836C173.244 40.1347 173.833 40.5107 174.244 40.964C174.655 41.4173 174.86 41.9853 174.86 42.668C174.86 43.292 174.703 43.8333 174.388 44.292C174.073 44.7453 173.615 45.0973 173.012 45.348C172.409 45.5987 171.676 45.724 170.812 45.724ZM182.348 36.044C182.092 36.044 181.889 35.972 181.74 35.828C181.591 35.6787 181.516 35.484 181.516 35.244C181.516 35.0093 181.591 34.8227 181.74 34.684C181.889 34.5453 182.092 34.476 182.348 34.476C182.604 34.476 182.807 34.5453 182.956 34.684C183.105 34.8227 183.18 35.0093 183.18 35.244C183.18 35.484 183.105 35.6787 182.956 35.828C182.807 35.972 182.604 36.044 182.348 36.044ZM181.724 45.5V37.836H182.972V45.5H181.724ZM192.01 45.5V41.004C192.01 40.2733 191.834 39.7187 191.482 39.34C191.135 38.956 190.66 38.764 190.058 38.764C189.599 38.764 189.202 38.8893 188.866 39.14C188.53 39.3907 188.271 39.7507 188.09 40.22C187.908 40.684 187.818 41.2387 187.818 41.884H187.338C187.338 40.9933 187.455 40.2333 187.69 39.604C187.924 38.9747 188.266 38.4947 188.714 38.164C189.167 37.828 189.716 37.66 190.362 37.66C190.964 37.66 191.479 37.796 191.906 38.068C192.338 38.3347 192.668 38.7187 192.898 39.22C193.127 39.7213 193.242 40.316 193.242 41.004V45.5H192.01ZM186.57 45.5V37.852H187.642L187.818 39.612V45.5H186.57ZM199.122 45.692C198.503 45.692 197.935 45.5267 197.418 45.196C196.901 44.86 196.487 44.3907 196.178 43.788C195.869 43.18 195.714 42.4653 195.714 41.644C195.714 40.828 195.866 40.1213 196.17 39.524C196.474 38.9267 196.877 38.468 197.378 38.148C197.885 37.8227 198.439 37.66 199.042 37.66C199.602 37.66 200.093 37.796 200.514 38.068C200.941 38.34 201.271 38.732 201.506 39.244C201.741 39.756 201.858 40.3747 201.858 41.1H201.378C201.378 40.5933 201.277 40.1667 201.074 39.82C200.877 39.4733 200.618 39.212 200.298 39.036C199.978 38.8547 199.634 38.764 199.266 38.764C198.85 38.764 198.469 38.8813 198.122 39.116C197.781 39.3453 197.506 39.676 197.298 40.108C197.095 40.5347 196.994 41.0467 196.994 41.644C196.994 42.252 197.095 42.7747 197.298 43.212C197.506 43.6493 197.781 43.9853 198.122 44.22C198.469 44.4547 198.85 44.572 199.266 44.572C199.613 44.572 199.946 44.4813 200.266 44.3C200.591 44.1187 200.858 43.8547 201.066 43.508C201.274 43.156 201.378 42.732 201.378 42.236H201.858C201.858 42.9773 201.735 43.6067 201.49 44.124C201.25 44.636 200.922 45.0253 200.506 45.292C200.095 45.5587 199.634 45.692 199.122 45.692ZM201.586 45.5L201.378 43.708V34.588H202.626V45.5H201.586ZM208.686 45.692C208.025 45.692 207.433 45.524 206.91 45.188C206.393 44.8467 205.982 44.3747 205.678 43.772C205.38 43.1693 205.23 42.476 205.23 41.692C205.23 40.8547 205.38 40.1347 205.678 39.532C205.977 38.9293 206.385 38.468 206.902 38.148C207.425 37.8227 208.02 37.66 208.686 37.66C209.268 37.66 209.764 37.7773 210.174 38.012C210.585 38.2467 210.916 38.564 211.166 38.964C211.417 39.364 211.59 39.8173 211.686 40.324C211.788 40.8253 211.817 41.3453 211.774 41.884H206.238V41.116H210.95L210.582 41.356C210.598 41.0413 210.58 40.7267 210.526 40.412C210.478 40.0973 210.385 39.8093 210.246 39.548C210.108 39.2813 209.913 39.068 209.662 38.908C209.412 38.748 209.092 38.668 208.702 38.668C208.212 38.668 207.801 38.7933 207.47 39.044C207.14 39.2947 206.892 39.6253 206.726 40.036C206.561 40.4413 206.478 40.8813 206.478 41.356V41.868C206.478 42.4013 206.558 42.8787 206.718 43.3C206.884 43.7213 207.129 44.0547 207.454 44.3C207.78 44.5453 208.19 44.668 208.686 44.668C209.182 44.668 209.59 44.548 209.91 44.308C210.23 44.068 210.425 43.7133 210.494 43.244H211.79C211.71 43.7507 211.529 44.188 211.246 44.556C210.964 44.9187 210.604 45.1987 210.166 45.396C209.729 45.5933 209.236 45.692 208.686 45.692ZM213.209 45.5L216.105 41.676L213.209 37.836H214.729L216.921 40.732L219.033 37.836H220.553L217.641 41.676L220.537 45.5H219.017L216.825 42.588L214.729 45.5H213.209ZM221.621 44.756C221.621 44.5053 221.709 44.2893 221.885 44.108C222.061 43.9267 222.282 43.836 222.549 43.836C222.815 43.836 223.042 43.9267 223.229 44.108C223.415 44.2893 223.509 44.5053 223.509 44.756C223.509 45.0067 223.415 45.2173 223.229 45.388C223.042 45.5587 222.815 45.644 222.549 45.644C222.282 45.644 222.061 45.5587 221.885 45.388C221.709 45.212 221.621 45.0013 221.621 44.756Z" fill="#333333"/>
</g>
<defs>
<filter id="filter0_d_7093_6126" x="46" y="0" width="209.768" height="68" filterUnits="userSpaceOnUse" color-interpolation-filters="sRGB">
<feFlood flood-opacity="0" result="BackgroundImageFix"/>
<feColorMatrix in="SourceAlpha" type="matrix" values="0 0 0 0 0 0 0 0 0 0 0 0 0 0 0 0 0 0 127 0" result="hardAlpha"/>
<feOffset dy="4"/>
<feGaussianBlur stdDeviation="3"/>
<feComposite in2="hardAlpha" operator="out"/>
<feColorMatrix type="matrix" values="0 0 0 0 0 0 0 0 0 0 0 0 0 0 0 0 0 0 0.1 0"/>
<feBlend mode="normal" in2="BackgroundImageFix" result="effect1_dropShadow_7093_6126"/>
<feBlend mode="normal" in="SourceGraphic" in2="effect1_dropShadow_7093_6126" result="shape"/>
</filter>
<filter id="filter1_d_7093_6126" x="56.3789" y="12.4756" width="173.13" height="43.248" filterUnits="userSpaceOnUse" color-interpolation-filters="sRGB">
<feFlood flood-opacity="0" result="BackgroundImageFix"/>
<feColorMatrix in="SourceAlpha" type="matrix" values="0 0 0 0 0 0 0 0 0 0 0 0 0 0 0 0 0 0 127 0" result="hardAlpha"/>
<feOffset dy="4"/>
<feGaussianBlur stdDeviation="3"/>
<feComposite in2="hardAlpha" operator="out"/>
<feColorMatrix type="matrix" values="0 0 0 0 0 0 0 0 0 0 0 0 0 0 0 0 0 0 0.05 0"/>
<feBlend mode="normal" in2="BackgroundImageFix" result="effect1_dropShadow_7093_6126"/>
<feBlend mode="normal" in="SourceGraphic" in2="effect1_dropShadow_7093_6126" result="shape"/>
</filter>
</defs>
</svg>
