<svg width="261" height="88" viewBox="0 0 261 88" fill="none" xmlns="http://www.w3.org/2000/svg">
<mask id="path-1-inside-1_7097_6097" fill="white">
<path d="M253.724 27.3669L244 19L244 11C244 6.02944 239.971 2 235 2L14.0002 1.99998C9.02965 1.99998 5.00022 6.02942 5.00022 11L5.00021 49C5.00021 53.9705 9.02965 58 14.0002 58L235 58C239.971 58 244 53.9706 244 49L244 39.5L253.612 32.0069C255.106 30.8425 255.16 28.6022 253.724 27.3669Z"/>
</mask>
<path d="M253.724 27.3669L244 19L244 11C244 6.02944 239.971 2 235 2L14.0002 1.99998C9.02965 1.99998 5.00022 6.02942 5.00022 11L5.00021 49C5.00021 53.9705 9.02965 58 14.0002 58L235 58C239.971 58 244 53.9706 244 49L244 39.5L253.612 32.0069C255.106 30.8425 255.16 28.6022 253.724 27.3669Z" fill="white"/>
<path d="M244 19L242.6 19L242.6 19.6423L243.087 20.0612L244 19ZM253.724 27.3669L254.637 26.3056L254.637 26.3056L253.724 27.3669ZM253.612 32.0069L252.751 30.9028L252.751 30.9028L253.612 32.0069ZM244 39.5L243.139 38.3959L242.6 38.8162L242.6 39.5L244 39.5ZM243.087 20.0612L252.811 28.4281L254.637 26.3056L244.913 17.9388L243.087 20.0612ZM252.751 30.9028L243.139 38.3959L244.861 40.6041L254.473 33.1111L252.751 30.9028ZM252.811 28.4281C253.577 29.0869 253.548 30.2817 252.751 30.9028L254.473 33.1111C256.664 31.4032 256.743 28.1175 254.637 26.3056L252.811 28.4281ZM235 56.6L14.0002 56.6L14.0002 59.4L235 59.4L235 56.6ZM6.40021 49L6.40022 11L3.60022 11L3.60021 49L6.40021 49ZM14.0002 3.39998L235 3.4L235 0.599998L14.0002 0.599979L14.0002 3.39998ZM242.6 39.5L242.6 49L245.4 49L245.4 39.5L242.6 39.5ZM242.6 11L242.6 19L245.4 19L245.4 11L242.6 11ZM235 3.4C239.198 3.4 242.6 6.80264 242.6 11L245.4 11C245.4 5.25624 240.744 0.599999 235 0.599998L235 3.4ZM6.40022 11C6.40022 6.80261 9.80285 3.39998 14.0002 3.39998L14.0002 0.599979C8.25645 0.599978 3.60022 5.25622 3.60022 11L6.40022 11ZM14.0002 56.6C9.80285 56.6 6.40021 53.1973 6.40021 49L3.60021 49C3.60021 54.7437 8.25645 59.4 14.0002 59.4L14.0002 56.6ZM235 59.4C240.744 59.4 245.4 54.7438 245.4 49L242.6 49C242.6 53.1974 239.198 56.6 235 56.6L235 59.4Z" fill="white" mask="url(#path-1-inside-1_7097_6097)"/>
<g filter="url(#filter0_d_7097_6097)">
<mask id="path-3-inside-2_7097_6097" fill="white">
<path d="M253.724 37.3669L244 29L244 11C244 6.02943 239.971 2 235 2L15.0002 1.99998C10.0297 1.99998 6.00022 6.02941 6.00022 11L6.00021 69C6.00021 73.9705 10.0296 78 15.0002 78L235 78C239.971 78 244 73.9706 244 69L244 49.5L253.612 42.0069C255.106 40.8425 255.16 38.6022 253.724 37.3669Z"/>
</mask>
<path d="M253.724 37.3669L244 29L244 11C244 6.02943 239.971 2 235 2L15.0002 1.99998C10.0297 1.99998 6.00022 6.02941 6.00022 11L6.00021 69C6.00021 73.9705 10.0296 78 15.0002 78L235 78C239.971 78 244 73.9706 244 69L244 49.5L253.612 42.0069C255.106 40.8425 255.16 38.6022 253.724 37.3669Z" fill="white"/>
<path d="M244 29L242.6 29L242.6 29.6423L243.087 30.0612L244 29ZM253.724 37.3669L254.637 36.3056L254.637 36.3056L253.724 37.3669ZM253.612 42.0069L254.473 43.1111L254.473 43.1111L253.612 42.0069ZM244 49.5L243.139 48.3959L242.6 48.8162L242.6 49.5L244 49.5ZM244 69L245.4 69V69L244 69ZM244 11L242.6 11V11L244 11ZM243.087 30.0612L252.811 38.4281L254.637 36.3056L244.913 27.9388L243.087 30.0612ZM252.751 40.9028L243.139 48.3959L244.861 50.6041L254.473 43.1111L252.751 40.9028ZM252.811 38.4281C253.577 39.0869 253.548 40.2817 252.751 40.9028L254.473 43.1111C256.664 41.4032 256.743 38.1175 254.637 36.3056L252.811 38.4281ZM235 76.6L15.0002 76.6L15.0002 79.4L235 79.4L235 76.6ZM7.40021 69L7.40022 11L4.60022 11L4.60021 69L7.40021 69ZM15.0002 3.39998L235 3.4L235 0.599998L15.0002 0.599979L15.0002 3.39998ZM242.6 49.5L242.6 69L245.4 69L245.4 49.5L242.6 49.5ZM242.6 11L242.6 29L245.4 29L245.4 11L242.6 11ZM235 3.4C239.198 3.4 242.6 6.80263 242.6 11L245.4 11C245.4 5.25623 240.744 0.599999 235 0.599998L235 3.4ZM7.40022 11C7.40022 6.80261 10.8029 3.39998 15.0002 3.39998L15.0002 0.599979C9.25646 0.599979 4.60022 5.25621 4.60022 11L7.40022 11ZM15.0002 76.6C10.8028 76.6 7.40021 73.1973 7.40021 69L4.60021 69C4.60021 74.7437 9.25645 79.4 15.0002 79.4L15.0002 76.6ZM235 79.4C240.744 79.4 245.4 74.7438 245.4 69L242.6 69C242.6 73.1974 239.198 76.6 235 76.6L235 79.4Z" fill="#333333" mask="url(#path-3-inside-2_7097_6097)"/>
</g>
<g filter="url(#filter1_d_7097_6097)">
<path d="M91.2204 15.452H92.4684V19.884H97.4444V15.452H98.6764V25.5H97.4444V20.956H92.4684V25.5H91.2204V15.452ZM102.787 16.044C102.531 16.044 102.329 15.972 102.179 15.828C102.03 15.6787 101.955 15.484 101.955 15.244C101.955 15.0093 102.03 14.8227 102.179 14.684C102.329 14.5453 102.531 14.476 102.787 14.476C103.043 14.476 103.246 14.5453 103.395 14.684C103.545 14.8227 103.619 15.0093 103.619 15.244C103.619 15.484 103.545 15.6787 103.395 15.828C103.246 15.972 103.043 16.044 102.787 16.044ZM102.163 25.5V17.836H103.411V25.5H102.163ZM107.137 22.684L106.977 15.484H108.305L108.145 22.684H107.137ZM107.641 25.644C107.369 25.644 107.145 25.5587 106.969 25.388C106.793 25.2173 106.705 25.004 106.705 24.748C106.705 24.4973 106.793 24.284 106.969 24.108C107.145 23.9267 107.369 23.836 107.641 23.836C107.908 23.836 108.132 23.9267 108.313 24.108C108.5 24.284 108.593 24.4973 108.593 24.748C108.593 25.004 108.5 25.2173 108.313 25.388C108.132 25.5587 107.908 25.644 107.641 25.644ZM114.363 25.5L117.819 15.452H119.339L122.715 25.5H121.403L120.555 22.924H116.555L115.675 25.5H114.363ZM116.875 21.948H120.235L118.555 16.972L116.875 21.948ZM124.911 25.5V17.836H126.159V25.5H124.911ZM125.775 22.044C125.775 21.0733 125.868 20.268 126.055 19.628C126.242 18.9827 126.514 18.5027 126.871 18.188C127.234 17.868 127.674 17.708 128.191 17.708C128.362 17.708 128.516 17.7213 128.655 17.748C128.799 17.7693 128.943 17.804 129.087 17.852L129.007 19.084C128.858 19.036 128.695 18.996 128.519 18.964C128.343 18.9267 128.186 18.908 128.047 18.908C127.594 18.908 127.228 19.0387 126.951 19.3C126.674 19.556 126.471 19.9187 126.343 20.388C126.22 20.8573 126.159 21.4093 126.159 22.044H125.775ZM133.508 25.692C132.847 25.692 132.255 25.524 131.732 25.188C131.215 24.8467 130.804 24.3747 130.5 23.772C130.202 23.1693 130.052 22.476 130.052 21.692C130.052 20.8547 130.202 20.1347 130.5 19.532C130.799 18.9293 131.207 18.468 131.724 18.148C132.247 17.8227 132.842 17.66 133.508 17.66C134.09 17.66 134.586 17.7773 134.996 18.012C135.407 18.2467 135.738 18.564 135.988 18.964C136.239 19.364 136.412 19.8173 136.508 20.324C136.61 20.8253 136.639 21.3453 136.596 21.884H131.06V21.116H135.772L135.404 21.356C135.42 21.0413 135.402 20.7267 135.348 20.412C135.3 20.0973 135.207 19.8093 135.068 19.548C134.93 19.2813 134.735 19.068 134.484 18.908C134.234 18.748 133.914 18.668 133.524 18.668C133.034 18.668 132.623 18.7933 132.292 19.044C131.962 19.2947 131.714 19.6253 131.548 20.036C131.383 20.4413 131.3 20.8813 131.3 21.356V21.868C131.3 22.4013 131.38 22.8787 131.54 23.3C131.706 23.7213 131.951 24.0547 132.276 24.3C132.602 24.5453 133.012 24.668 133.508 24.668C134.004 24.668 134.412 24.548 134.732 24.308C135.052 24.068 135.247 23.7133 135.316 23.244H136.612C136.532 23.7507 136.351 24.188 136.068 24.556C135.786 24.9187 135.426 25.1987 134.988 25.396C134.551 25.5933 134.058 25.692 133.508 25.692ZM145.54 25.692C145.124 25.692 144.751 25.612 144.42 25.452C144.089 25.292 143.828 25.052 143.636 24.732C143.444 24.412 143.348 24.012 143.348 23.532V15.724H144.58V23.5C144.58 24.2893 144.948 24.684 145.684 24.684C145.903 24.684 146.113 24.66 146.316 24.612C146.524 24.564 146.756 24.492 147.012 24.396L147.188 25.292C146.916 25.4093 146.644 25.5053 146.372 25.58C146.105 25.6547 145.828 25.692 145.54 25.692ZM142.116 18.716V17.852H146.996V18.716H142.116ZM154.803 25.5V21.004C154.803 20.2733 154.627 19.7187 154.275 19.34C153.929 18.956 153.454 18.764 152.851 18.764C152.393 18.764 151.995 18.8893 151.659 19.14C151.323 19.3907 151.065 19.7507 150.883 20.22C150.702 20.684 150.611 21.2387 150.611 21.884H150.131C150.131 20.9933 150.249 20.2333 150.483 19.604C150.718 18.9747 151.059 18.4947 151.507 18.164C151.961 17.828 152.51 17.66 153.155 17.66C153.758 17.66 154.273 17.796 154.699 18.068C155.131 18.3347 155.462 18.7187 155.691 19.22C155.921 19.7213 156.035 20.316 156.035 21.004V25.5H154.803ZM149.363 25.5V14.588H150.611V25.5H149.363ZM161.836 25.692C161.174 25.692 160.582 25.524 160.06 25.188C159.542 24.8467 159.132 24.3747 158.828 23.772C158.529 23.1693 158.38 22.476 158.38 21.692C158.38 20.8547 158.529 20.1347 158.828 19.532C159.126 18.9293 159.534 18.468 160.052 18.148C160.574 17.8227 161.169 17.66 161.836 17.66C162.417 17.66 162.913 17.7773 163.324 18.012C163.734 18.2467 164.065 18.564 164.316 18.964C164.566 19.364 164.74 19.8173 164.836 20.324C164.937 20.8253 164.966 21.3453 164.924 21.884H159.388V21.116H164.1L163.732 21.356C163.748 21.0413 163.729 20.7267 163.676 20.412C163.628 20.0973 163.534 19.8093 163.396 19.548C163.257 19.2813 163.062 19.068 162.812 18.908C162.561 18.748 162.241 18.668 161.852 18.668C161.361 18.668 160.95 18.7933 160.62 19.044C160.289 19.2947 160.041 19.6253 159.876 20.036C159.71 20.4413 159.628 20.8813 159.628 21.356V21.868C159.628 22.4013 159.708 22.8787 159.868 23.3C160.033 23.7213 160.278 24.0547 160.604 24.3C160.929 24.5453 161.34 24.668 161.836 24.668C162.332 24.668 162.74 24.548 163.06 24.308C163.38 24.068 163.574 23.7133 163.644 23.244H164.94C164.86 23.7507 164.678 24.188 164.396 24.556C164.113 24.9187 163.753 25.1987 163.316 25.396C162.878 25.5933 162.385 25.692 161.836 25.692ZM167.559 25.5V17.836H168.807V25.5H167.559ZM168.423 22.044C168.423 21.0733 168.516 20.268 168.703 19.628C168.889 18.9827 169.161 18.5027 169.519 18.188C169.881 17.868 170.321 17.708 170.839 17.708C171.009 17.708 171.164 17.7213 171.303 17.748C171.447 17.7693 171.591 17.804 171.735 17.852L171.655 19.084C171.505 19.036 171.343 18.996 171.167 18.964C170.991 18.9267 170.833 18.908 170.695 18.908C170.241 18.908 169.876 19.0387 169.599 19.3C169.321 19.556 169.119 19.9187 168.991 20.388C168.868 20.8573 168.807 21.4093 168.807 22.044H168.423ZM176.156 25.692C175.494 25.692 174.902 25.524 174.38 25.188C173.862 24.8467 173.452 24.3747 173.148 23.772C172.849 23.1693 172.7 22.476 172.7 21.692C172.7 20.8547 172.849 20.1347 173.148 19.532C173.446 18.9293 173.854 18.468 174.372 18.148C174.894 17.8227 175.489 17.66 176.156 17.66C176.737 17.66 177.233 17.7773 177.644 18.012C178.054 18.2467 178.385 18.564 178.636 18.964C178.886 19.364 179.06 19.8173 179.156 20.324C179.257 20.8253 179.286 21.3453 179.244 21.884H173.708V21.116H178.42L178.052 21.356C178.068 21.0413 178.049 20.7267 177.996 20.412C177.948 20.0973 177.854 19.8093 177.716 19.548C177.577 19.2813 177.382 19.068 177.132 18.908C176.881 18.748 176.561 18.668 176.172 18.668C175.681 18.668 175.27 18.7933 174.94 19.044C174.609 19.2947 174.361 19.6253 174.196 20.036C174.03 20.4413 173.948 20.8813 173.948 21.356V21.868C173.948 22.4013 174.028 22.8787 174.188 23.3C174.353 23.7213 174.598 24.0547 174.924 24.3C175.249 24.5453 175.66 24.668 176.156 24.668C176.652 24.668 177.06 24.548 177.38 24.308C177.7 24.068 177.894 23.7133 177.964 23.244H179.26C179.18 23.7507 178.998 24.188 178.716 24.556C178.433 24.9187 178.073 25.1987 177.636 25.396C177.198 25.5933 176.705 25.692 176.156 25.692ZM188.587 25.692C187.846 25.692 187.227 25.588 186.731 25.38C186.235 25.1667 185.859 24.876 185.603 24.508C185.347 24.1347 185.211 23.708 185.195 23.228H186.395C186.422 23.7133 186.617 24.0787 186.979 24.324C187.347 24.564 187.846 24.684 188.475 24.684C188.806 24.684 189.11 24.6307 189.387 24.524C189.665 24.4173 189.886 24.2707 190.051 24.084C190.217 23.8973 190.299 23.6867 190.299 23.452C190.299 23.1533 190.19 22.9187 189.971 22.748C189.753 22.5773 189.403 22.428 188.923 22.3L187.435 21.82C186.79 21.6173 186.294 21.34 185.947 20.988C185.606 20.6307 185.435 20.204 185.435 19.708C185.435 19.0893 185.707 18.5933 186.251 18.22C186.795 17.8467 187.51 17.66 188.395 17.66C189.334 17.66 190.062 17.852 190.579 18.236C191.097 18.62 191.366 19.1 191.387 19.676H190.155C190.107 19.34 189.937 19.0867 189.643 18.916C189.35 18.74 188.934 18.652 188.395 18.652C187.878 18.652 187.473 18.7693 187.179 19.004C186.891 19.2333 186.747 19.4893 186.747 19.772C186.747 20.3 187.201 20.6893 188.107 20.94L189.627 21.452C190.283 21.6493 190.785 21.908 191.131 22.228C191.483 22.548 191.659 22.956 191.659 23.452C191.659 23.836 191.534 24.1987 191.283 24.54C191.033 24.8813 190.678 25.1587 190.219 25.372C189.761 25.5853 189.217 25.692 188.587 25.692ZM197.17 25.692C196.482 25.692 195.868 25.54 195.33 25.236C194.796 24.932 194.375 24.4813 194.066 23.884C193.756 23.2867 193.602 22.5507 193.602 21.676C193.602 20.796 193.756 20.06 194.066 19.468C194.375 18.8707 194.796 18.42 195.33 18.116C195.868 17.812 196.482 17.66 197.17 17.66C197.852 17.66 198.46 17.812 198.994 18.116C199.532 18.42 199.954 18.8707 200.258 19.468C200.567 20.06 200.722 20.796 200.722 21.676C200.722 22.5507 200.567 23.2867 200.258 23.884C199.954 24.4813 199.532 24.932 198.994 25.236C198.46 25.54 197.852 25.692 197.17 25.692ZM197.138 24.604C197.634 24.604 198.055 24.4867 198.402 24.252C198.748 24.012 199.01 23.6733 199.186 23.236C199.367 22.7987 199.458 22.2787 199.458 21.676C199.458 20.764 199.268 20.0467 198.89 19.524C198.511 18.996 197.948 18.732 197.202 18.732C196.7 18.732 196.276 18.852 195.93 19.092C195.588 19.3267 195.327 19.6653 195.146 20.108C194.97 20.5453 194.882 21.068 194.882 21.676C194.882 22.5773 195.071 23.292 195.45 23.82C195.834 24.3427 196.396 24.604 197.138 24.604ZM214.064 25.5V21.004C214.064 20.2733 213.888 19.7187 213.536 19.34C213.189 18.956 212.72 18.764 212.128 18.764C211.434 18.764 210.904 19.0333 210.536 19.572C210.168 20.1053 209.984 20.844 209.984 21.788H209.408C209.408 21.1 209.474 20.4973 209.608 19.98C209.746 19.4627 209.946 19.0333 210.208 18.692C210.469 18.3453 210.786 18.0867 211.16 17.916C211.533 17.7453 211.957 17.66 212.432 17.66C213.034 17.66 213.549 17.796 213.976 18.068C214.408 18.3347 214.738 18.7187 214.968 19.22C215.197 19.7213 215.312 20.316 215.312 21.004V25.5H214.064ZM203.312 25.5V17.852H204.384L204.528 19.388C204.768 18.8333 205.104 18.4067 205.536 18.108C205.973 17.8093 206.496 17.66 207.104 17.66C207.706 17.66 208.221 17.796 208.648 18.068C209.08 18.3347 209.41 18.7187 209.64 19.22C209.869 19.7213 209.984 20.316 209.984 21.004V25.5H208.752V21.004C208.752 20.2733 208.576 19.7187 208.224 19.34C207.877 18.956 207.402 18.764 206.8 18.764C206.341 18.764 205.944 18.8893 205.608 19.14C205.272 19.3907 205.013 19.7507 204.832 20.22C204.65 20.684 204.56 21.2387 204.56 21.884V25.5H203.312ZM221.096 25.692C220.435 25.692 219.843 25.524 219.32 25.188C218.803 24.8467 218.392 24.3747 218.088 23.772C217.79 23.1693 217.64 22.476 217.64 21.692C217.64 20.8547 217.79 20.1347 218.088 19.532C218.387 18.9293 218.795 18.468 219.312 18.148C219.835 17.8227 220.43 17.66 221.096 17.66C221.678 17.66 222.174 17.7773 222.584 18.012C222.995 18.2467 223.326 18.564 223.576 18.964C223.827 19.364 224 19.8173 224.096 20.324C224.198 20.8253 224.227 21.3453 224.184 21.884H218.648V21.116H223.36L222.992 21.356C223.008 21.0413 222.99 20.7267 222.936 20.412C222.888 20.0973 222.795 19.8093 222.656 19.548C222.518 19.2813 222.323 19.068 222.072 18.908C221.822 18.748 221.502 18.668 221.112 18.668C220.622 18.668 220.211 18.7933 219.88 19.044C219.55 19.2947 219.302 19.6253 219.136 20.036C218.971 20.4413 218.888 20.8813 218.888 21.356V21.868C218.888 22.4013 218.968 22.8787 219.128 23.3C219.294 23.7213 219.539 24.0547 219.864 24.3C220.19 24.5453 220.6 24.668 221.096 24.668C221.592 24.668 222 24.548 222.32 24.308C222.64 24.068 222.835 23.7133 222.904 23.244H224.2C224.12 23.7507 223.939 24.188 223.656 24.556C223.374 24.9187 223.014 25.1987 222.576 25.396C222.139 25.5933 221.646 25.692 221.096 25.692ZM17.2336 45.5V35.116H21.4256C22.2256 35.116 22.8896 35.2413 23.4176 35.492C23.9456 35.7373 24.3403 36.068 24.6016 36.484C24.863 36.9 24.9936 37.3613 24.9936 37.868C24.9936 38.4547 24.8283 38.956 24.4976 39.372C24.1723 39.788 23.7136 40.0813 23.1216 40.252C23.511 40.332 23.8603 40.4787 24.1696 40.692C24.479 40.9053 24.7216 41.1747 24.8976 41.5C25.079 41.8253 25.1696 42.1987 25.1696 42.62C25.1696 42.9507 25.111 43.284 24.9936 43.62C24.8816 43.956 24.6843 44.268 24.4016 44.556C24.1243 44.8387 23.743 45.068 23.2576 45.244C22.7776 45.4147 22.1723 45.5 21.4416 45.5H17.2336ZM19.1216 43.852H21.3936C21.9963 43.852 22.4363 43.732 22.7136 43.492C22.9963 43.2467 23.1376 42.9187 23.1376 42.508C23.1376 42.0973 22.9936 41.7693 22.7056 41.524C22.4176 41.2733 21.9803 41.148 21.3936 41.148H19.1216V43.852ZM19.1216 36.748V39.5H21.3456C21.9056 39.5 22.3296 39.3773 22.6176 39.132C22.911 38.8813 23.0576 38.54 23.0576 38.108C23.0576 37.6973 22.9136 37.3693 22.6256 37.124C22.343 36.8733 21.9216 36.748 21.3616 36.748H19.1216ZM29.6566 35.116V43.852H33.9286V45.5H27.7686V35.116H29.6566ZM35.6749 35.116H37.5629V41.58C37.5629 42.4333 37.7789 43.0493 38.2109 43.428C38.6482 43.8067 39.2055 43.996 39.8829 43.996C40.5655 43.996 41.1229 43.8067 41.5549 43.428C41.9869 43.0493 42.2029 42.4333 42.2029 41.58V35.116H44.0909V41.58C44.0909 42.4547 43.9229 43.2013 43.5869 43.82C43.2509 44.4387 42.7682 44.9107 42.1389 45.236C41.5149 45.5613 40.7629 45.724 39.8829 45.724C39.0029 45.724 38.2482 45.5613 37.6189 45.236C36.9949 44.9107 36.5149 44.4387 36.1789 43.82C35.8429 43.2013 35.6749 42.4547 35.6749 41.58V35.116ZM47.0257 45.5V35.116H53.6977V36.748H48.9137V39.484H53.4097V41.116H48.9137V43.852H53.6977V45.5H47.0257ZM56.5924 45.5V35.116H60.7844C61.5844 35.116 62.2484 35.2413 62.7764 35.492C63.3044 35.7373 63.699 36.068 63.9604 36.484C64.2217 36.9 64.3524 37.3613 64.3524 37.868C64.3524 38.4547 64.187 38.956 63.8564 39.372C63.531 39.788 63.0724 40.0813 62.4804 40.252C62.8697 40.332 63.219 40.4787 63.5284 40.692C63.8377 40.9053 64.0804 41.1747 64.2564 41.5C64.4377 41.8253 64.5284 42.1987 64.5284 42.62C64.5284 42.9507 64.4697 43.284 64.3524 43.62C64.2404 43.956 64.043 44.268 63.7604 44.556C63.483 44.8387 63.1017 45.068 62.6164 45.244C62.1364 45.4147 61.531 45.5 60.8004 45.5H56.5924ZM58.4804 43.852H60.7524C61.355 43.852 61.795 43.732 62.0724 43.492C62.355 43.2467 62.4964 42.9187 62.4964 42.508C62.4964 42.0973 62.3524 41.7693 62.0644 41.524C61.7764 41.2733 61.339 41.148 60.7524 41.148H58.4804V43.852ZM58.4804 36.748V39.5H60.7044C61.2644 39.5 61.6884 39.3773 61.9764 39.132C62.2697 38.8813 62.4164 38.54 62.4164 38.108C62.4164 37.6973 62.2724 37.3693 61.9844 37.124C61.7017 36.8733 61.2804 36.748 60.7204 36.748H58.4804ZM67.1114 45.5V35.116H73.7834V36.748H68.9994V39.484H73.4954V41.116H68.9994V43.852H73.7834V45.5H67.1114ZM76.678 45.5V35.116H80.518C81.7607 35.116 82.7127 35.4067 83.374 35.988C84.0407 36.5693 84.374 37.34 84.374 38.3C84.374 39.244 84.0407 40.0067 83.374 40.588C82.7127 41.164 81.7607 41.452 80.518 41.452H78.566V45.5H76.678ZM82.294 45.5L79.542 40.636H81.558L84.758 45.5H82.294ZM78.566 40.188H80.326C81.0193 40.188 81.5447 40.0307 81.902 39.716C82.2593 39.396 82.438 38.9827 82.438 38.476C82.438 37.9587 82.2753 37.5427 81.95 37.228C81.6247 36.908 81.1473 36.748 80.518 36.748H78.566V40.188ZM87.1349 45.5V35.116H90.9749C92.2175 35.116 93.1695 35.4067 93.8309 35.988C94.4975 36.5693 94.8309 37.34 94.8309 38.3C94.8309 39.244 94.4975 40.0067 93.8309 40.588C93.1695 41.164 92.2175 41.452 90.9749 41.452H89.0229V45.5H87.1349ZM92.7509 45.5L89.9989 40.636H92.0149L95.2149 45.5H92.7509ZM89.0229 40.188H90.7829C91.4762 40.188 92.0015 40.0307 92.3589 39.716C92.7162 39.396 92.8949 38.9827 92.8949 38.476C92.8949 37.9587 92.7322 37.5427 92.4069 37.228C92.0815 36.908 91.6042 36.748 90.9749 36.748H89.0229V40.188ZM96.2157 35.116H98.4557L100.936 39.58H100.568L103.144 35.116H105.368L101.672 41.212V45.5H99.7837V41.212L96.2157 35.116ZM115.125 45.724C114.213 45.724 113.419 45.508 112.741 45.076C112.069 44.6387 111.547 44.0147 111.173 43.204C110.8 42.3933 110.613 41.42 110.613 40.284C110.613 39.1107 110.805 38.1267 111.189 37.332C111.579 36.532 112.112 35.9293 112.789 35.524C113.472 35.1133 114.251 34.908 115.125 34.908C116.336 34.908 117.28 35.2013 117.957 35.788C118.64 36.3747 119.077 37.1373 119.269 38.076L117.253 38.444C117.088 37.9 116.824 37.46 116.461 37.124C116.099 36.788 115.653 36.62 115.125 36.62C114.661 36.62 114.243 36.756 113.869 37.028C113.496 37.2947 113.197 37.7 112.973 38.244C112.755 38.788 112.645 39.468 112.645 40.284C112.645 41.052 112.741 41.7133 112.933 42.268C113.131 42.8227 113.413 43.2493 113.781 43.548C114.149 43.8467 114.597 43.996 115.125 43.996C115.803 43.996 116.325 43.8173 116.693 43.46C117.067 43.0973 117.253 42.636 117.253 42.076H119.269C119.269 42.8493 119.101 43.508 118.765 44.052C118.435 44.5907 117.96 45.004 117.341 45.292C116.723 45.58 115.984 45.724 115.125 45.724ZM121.65 35.116H123.538V39.452H128.066V35.116H129.954V45.5H128.066V41.1H123.538V45.5H121.65V35.116ZM133.075 45.5V35.116H139.747V36.748H134.963V39.484H139.459V41.116H134.963V43.852H139.747V45.5H133.075ZM142.626 45.5V35.116H149.298V36.748H144.514V39.484H149.01V41.116H144.514V43.852H149.298V45.5H142.626ZM155.808 45.724C155.088 45.724 154.424 45.5987 153.816 45.348C153.214 45.0973 152.723 44.716 152.344 44.204C151.971 43.692 151.771 43.0413 151.744 42.252H153.6C153.6 42.652 153.699 42.98 153.896 43.236C154.094 43.492 154.358 43.684 154.688 43.812C155.024 43.9347 155.392 43.996 155.792 43.996C156.176 43.996 156.518 43.9453 156.816 43.844C157.12 43.7427 157.358 43.5987 157.528 43.412C157.704 43.22 157.792 42.9933 157.792 42.732C157.792 42.3853 157.686 42.1133 157.472 41.916C157.264 41.7187 156.928 41.5373 156.464 41.372L154.416 40.556C153.616 40.2413 153.003 39.876 152.576 39.46C152.15 39.044 151.936 38.4707 151.936 37.74C151.936 36.8973 152.27 36.2147 152.936 35.692C153.603 35.1693 154.534 34.908 155.728 34.908C156.891 34.908 157.79 35.18 158.424 35.724C159.059 36.2627 159.419 37.0147 159.504 37.98H157.648C157.579 37.5693 157.392 37.2413 157.088 36.996C156.784 36.7453 156.331 36.62 155.728 36.62C155.195 36.62 154.774 36.732 154.464 36.956C154.155 37.1747 154 37.452 154 37.788C154 38.076 154.096 38.3053 154.288 38.476C154.486 38.6413 154.79 38.8013 155.2 38.956L157.472 39.836C158.24 40.1347 158.83 40.5107 159.24 40.964C159.651 41.4173 159.856 41.9853 159.856 42.668C159.856 43.292 159.699 43.8333 159.384 44.292C159.07 44.7453 158.611 45.0973 158.008 45.348C157.406 45.5987 156.672 45.724 155.808 45.724ZM162.539 45.5V35.116H169.211V36.748H164.427V39.484H168.923V41.116H164.427V43.852H169.211V45.5H162.539ZM175.882 45.724C174.97 45.724 174.175 45.508 173.498 45.076C172.826 44.6387 172.303 44.0147 171.93 43.204C171.557 42.3933 171.37 41.42 171.37 40.284C171.37 39.1107 171.562 38.1267 171.946 37.332C172.335 36.532 172.869 35.9293 173.546 35.524C174.229 35.1133 175.007 34.908 175.882 34.908C177.093 34.908 178.037 35.2013 178.714 35.788C179.397 36.3747 179.834 37.1373 180.026 38.076L178.01 38.444C177.845 37.9 177.581 37.46 177.218 37.124C176.855 36.788 176.41 36.62 175.882 36.62C175.418 36.62 174.999 36.756 174.626 37.028C174.253 37.2947 173.954 37.7 173.73 38.244C173.511 38.788 173.402 39.468 173.402 40.284C173.402 41.052 173.498 41.7133 173.69 42.268C173.887 42.8227 174.17 43.2493 174.538 43.548C174.906 43.8467 175.354 43.996 175.882 43.996C176.559 43.996 177.082 43.8173 177.45 43.46C177.823 43.0973 178.01 42.636 178.01 42.076H180.026C180.026 42.8493 179.858 43.508 179.522 44.052C179.191 44.5907 178.717 45.004 178.098 45.292C177.479 45.58 176.741 45.724 175.882 45.724ZM181.271 45.5L184.807 35.116H187.175L190.567 45.5H188.583L187.863 43.26H184.007L183.271 45.5H181.271ZM184.487 41.836H187.415L185.959 37.372L184.487 41.836ZM198.582 35.116H201.174L194.326 42.124V39.548L198.582 35.116ZM196.278 39.404L201.462 45.5H199.03L194.966 40.636L196.278 39.404ZM192.582 35.116H194.486V45.5H192.582V35.116ZM203.195 45.5V35.116H209.867V36.748H205.083V39.484H209.579V41.116H205.083V43.852H209.867V45.5H203.195ZM216.378 45.724C215.658 45.724 214.994 45.5987 214.386 45.348C213.783 45.0973 213.292 44.716 212.914 44.204C212.54 43.692 212.34 43.0413 212.314 42.252H214.17C214.17 42.652 214.268 42.98 214.466 43.236C214.663 43.492 214.927 43.684 215.258 43.812C215.594 43.9347 215.962 43.996 216.362 43.996C216.746 43.996 217.087 43.9453 217.386 43.844C217.69 43.7427 217.927 43.5987 218.098 43.412C218.274 43.22 218.362 42.9933 218.362 42.732C218.362 42.3853 218.255 42.1133 218.042 41.916C217.834 41.7187 217.498 41.5373 217.034 41.372L214.986 40.556C214.186 40.2413 213.572 39.876 213.146 39.46C212.719 39.044 212.506 38.4707 212.506 37.74C212.506 36.8973 212.839 36.2147 213.506 35.692C214.172 35.1693 215.103 34.908 216.298 34.908C217.46 34.908 218.359 35.18 218.994 35.724C219.628 36.2627 219.988 37.0147 220.074 37.98H218.218C218.148 37.5693 217.962 37.2413 217.658 36.996C217.354 36.7453 216.9 36.62 216.298 36.62C215.764 36.62 215.343 36.732 215.034 36.956C214.724 37.1747 214.57 37.452 214.57 37.788C214.57 38.076 214.666 38.3053 214.858 38.476C215.055 38.6413 215.359 38.8013 215.77 38.956L218.042 39.836C218.81 40.1347 219.399 40.5107 219.81 40.964C220.22 41.4173 220.426 41.9853 220.426 42.668C220.426 43.292 220.268 43.8333 219.954 44.292C219.639 44.7453 219.18 45.0973 218.578 45.348C217.975 45.5987 217.242 45.724 216.378 45.724ZM222.773 38.796L221.877 38.316C222.181 38.1613 222.437 37.988 222.645 37.796C222.858 37.5987 222.997 37.372 223.061 37.116C222.821 37.0893 222.618 37.0067 222.453 36.868C222.293 36.7293 222.213 36.5453 222.213 36.316C222.213 36.0813 222.301 35.884 222.477 35.724C222.653 35.564 222.874 35.484 223.141 35.484C223.365 35.484 223.557 35.5427 223.717 35.66C223.877 35.772 224 35.924 224.085 36.116C224.17 36.3027 224.213 36.5133 224.213 36.748C224.213 37.132 224.088 37.508 223.837 37.876C223.586 38.2387 223.232 38.5453 222.773 38.796ZM97.2085 65.5V57.836H98.4565V65.5H97.2085ZM98.0725 62.044C98.0725 61.0733 98.1658 60.268 98.3525 59.628C98.5392 58.9827 98.8112 58.5027 99.1685 58.188C99.5312 57.868 99.9712 57.708 100.488 57.708C100.659 57.708 100.814 57.7213 100.952 57.748C101.096 57.7693 101.24 57.804 101.384 57.852L101.304 59.084C101.155 59.036 100.992 58.996 100.816 58.964C100.64 58.9267 100.483 58.908 100.344 58.908C99.8912 58.908 99.5258 59.0387 99.2485 59.3C98.9712 59.556 98.7685 59.9187 98.6405 60.388C98.5178 60.8573 98.4565 61.4093 98.4565 62.044H98.0725ZM105.806 65.692C105.144 65.692 104.552 65.524 104.03 65.188C103.512 64.8467 103.102 64.3747 102.798 63.772C102.499 63.1693 102.35 62.476 102.35 61.692C102.35 60.8547 102.499 60.1347 102.798 59.532C103.096 58.9293 103.504 58.468 104.022 58.148C104.544 57.8227 105.139 57.66 105.806 57.66C106.387 57.66 106.883 57.7773 107.294 58.012C107.704 58.2467 108.035 58.564 108.286 58.964C108.536 59.364 108.71 59.8173 108.806 60.324C108.907 60.8253 108.936 61.3453 108.894 61.884H103.358V61.116H108.07L107.702 61.356C107.718 61.0413 107.699 60.7267 107.646 60.412C107.598 60.0973 107.504 59.8093 107.366 59.548C107.227 59.2813 107.032 59.068 106.782 58.908C106.531 58.748 106.211 58.668 105.822 58.668C105.331 58.668 104.92 58.7933 104.59 59.044C104.259 59.2947 104.011 59.6253 103.846 60.036C103.68 60.4413 103.598 60.8813 103.598 61.356V61.868C103.598 62.4013 103.678 62.8787 103.838 63.3C104.003 63.7213 104.248 64.0547 104.574 64.3C104.899 64.5453 105.31 64.668 105.806 64.668C106.302 64.668 106.71 64.548 107.03 64.308C107.35 64.068 107.544 63.7133 107.614 63.244H108.91C108.83 63.7507 108.648 64.188 108.366 64.556C108.083 64.9187 107.723 65.1987 107.286 65.396C106.848 65.5933 106.355 65.692 105.806 65.692ZM114.216 65.692C113.603 65.692 113.03 65.5267 112.496 65.196C111.968 64.8653 111.542 64.3987 111.216 63.796C110.891 63.1933 110.728 62.4813 110.728 61.66C110.728 60.8173 110.891 60.0973 111.216 59.5C111.542 58.9027 111.968 58.4467 112.496 58.132C113.03 57.8173 113.603 57.66 114.216 57.66C114.648 57.66 115.035 57.7267 115.376 57.86C115.723 57.988 116.024 58.1667 116.28 58.396C116.536 58.6253 116.747 58.8867 116.912 59.18C117.083 59.468 117.208 59.772 117.288 60.092L116.008 60.204C115.875 59.7613 115.651 59.412 115.336 59.156C115.027 58.8947 114.648 58.764 114.2 58.764C113.822 58.764 113.464 58.8733 113.128 59.092C112.798 59.3053 112.528 59.628 112.32 60.06C112.112 60.4867 112.008 61.02 112.008 61.66C112.008 62.252 112.102 62.7667 112.288 63.204C112.48 63.636 112.742 63.972 113.072 64.212C113.403 64.452 113.779 64.572 114.2 64.572C114.792 64.572 115.24 64.428 115.544 64.14C115.854 63.8467 116.008 63.4413 116.008 62.924H117.288C117.288 63.4573 117.163 63.932 116.912 64.348C116.662 64.764 116.304 65.092 115.84 65.332C115.382 65.572 114.84 65.692 114.216 65.692ZM120.642 56.044C120.386 56.044 120.184 55.972 120.034 55.828C119.885 55.6787 119.81 55.484 119.81 55.244C119.81 55.0093 119.885 54.8227 120.034 54.684C120.184 54.5453 120.386 54.476 120.642 54.476C120.898 54.476 121.101 54.5453 121.25 54.684C121.4 54.8227 121.474 55.0093 121.474 55.244C121.474 55.484 121.4 55.6787 121.25 55.828C121.101 55.972 120.898 56.044 120.642 56.044ZM120.018 65.5V57.836H121.266V65.5H120.018ZM128.336 65.692C127.776 65.692 127.288 65.564 126.872 65.308C126.461 65.052 126.144 64.6787 125.92 64.188C125.696 63.692 125.584 63.0893 125.584 62.38H126.112C126.112 62.8547 126.211 63.2547 126.408 63.58C126.605 63.9053 126.861 64.1533 127.176 64.324C127.496 64.4893 127.835 64.572 128.192 64.572C128.576 64.572 128.944 64.4627 129.296 64.244C129.648 64.02 129.936 63.692 130.16 63.26C130.384 62.828 130.496 62.2947 130.496 61.66C130.496 61.052 130.392 60.532 130.184 60.1C129.981 59.668 129.707 59.3373 129.36 59.108C129.013 58.8787 128.629 58.764 128.208 58.764C127.845 58.764 127.504 58.852 127.184 59.028C126.864 59.204 126.605 59.4627 126.408 59.804C126.211 60.14 126.112 60.556 126.112 61.052H125.584C125.584 60.3107 125.707 59.6893 125.952 59.188C126.197 58.6813 126.531 58.3 126.952 58.044C127.373 57.788 127.845 57.66 128.368 57.66C128.965 57.66 129.523 57.82 130.04 58.14C130.557 58.46 130.976 58.9187 131.296 59.516C131.616 60.1133 131.776 60.828 131.776 61.66C131.776 62.5027 131.613 63.2253 131.288 63.828C130.968 64.4307 130.547 64.892 130.024 65.212C129.501 65.532 128.939 65.692 128.336 65.692ZM124.864 69.26V57.852H125.904L126.112 59.644V69.26H124.864ZM137.04 65.692C136.378 65.692 135.786 65.524 135.264 65.188C134.746 64.8467 134.336 64.3747 134.032 63.772C133.733 63.1693 133.584 62.476 133.584 61.692C133.584 60.8547 133.733 60.1347 134.032 59.532C134.33 58.9293 134.738 58.468 135.256 58.148C135.778 57.8227 136.373 57.66 137.04 57.66C137.621 57.66 138.117 57.7773 138.528 58.012C138.938 58.2467 139.269 58.564 139.52 58.964C139.77 59.364 139.944 59.8173 140.04 60.324C140.141 60.8253 140.17 61.3453 140.128 61.884H134.592V61.116H139.304L138.936 61.356C138.952 61.0413 138.933 60.7267 138.88 60.412C138.832 60.0973 138.738 59.8093 138.6 59.548C138.461 59.2813 138.266 59.068 138.016 58.908C137.765 58.748 137.445 58.668 137.056 58.668C136.565 58.668 136.154 58.7933 135.824 59.044C135.493 59.2947 135.245 59.6253 135.08 60.036C134.914 60.4413 134.832 60.8813 134.832 61.356V61.868C134.832 62.4013 134.912 62.8787 135.072 63.3C135.237 63.7213 135.482 64.0547 135.808 64.3C136.133 64.5453 136.544 64.668 137.04 64.668C137.536 64.668 137.944 64.548 138.264 64.308C138.584 64.068 138.778 63.7133 138.848 63.244H140.144C140.064 63.7507 139.882 64.188 139.6 64.556C139.317 64.9187 138.957 65.1987 138.52 65.396C138.082 65.5933 137.589 65.692 137.04 65.692ZM145.514 65.692C144.773 65.692 144.154 65.588 143.658 65.38C143.162 65.1667 142.786 64.876 142.53 64.508C142.274 64.1347 142.138 63.708 142.122 63.228H143.322C143.349 63.7133 143.544 64.0787 143.906 64.324C144.274 64.564 144.773 64.684 145.402 64.684C145.733 64.684 146.037 64.6307 146.314 64.524C146.592 64.4173 146.813 64.2707 146.978 64.084C147.144 63.8973 147.226 63.6867 147.226 63.452C147.226 63.1533 147.117 62.9187 146.898 62.748C146.68 62.5773 146.33 62.428 145.85 62.3L144.362 61.82C143.717 61.6173 143.221 61.34 142.874 60.988C142.533 60.6307 142.362 60.204 142.362 59.708C142.362 59.0893 142.634 58.5933 143.178 58.22C143.722 57.8467 144.437 57.66 145.322 57.66C146.261 57.66 146.989 57.852 147.506 58.236C148.024 58.62 148.293 59.1 148.314 59.676H147.082C147.034 59.34 146.864 59.0867 146.57 58.916C146.277 58.74 145.861 58.652 145.322 58.652C144.805 58.652 144.4 58.7693 144.106 59.004C143.818 59.2333 143.674 59.4893 143.674 59.772C143.674 60.3 144.128 60.6893 145.034 60.94L146.554 61.452C147.21 61.6493 147.712 61.908 148.058 62.228C148.41 62.548 148.586 62.956 148.586 63.452C148.586 63.836 148.461 64.1987 148.21 64.54C147.96 64.8813 147.605 65.1587 147.146 65.372C146.688 65.5853 146.144 65.692 145.514 65.692ZM160.021 65.5L159.861 63.82V60.54C159.861 59.852 159.715 59.3587 159.421 59.06C159.128 58.756 158.688 58.604 158.101 58.604C157.771 58.604 157.469 58.652 157.197 58.748C156.931 58.844 156.717 58.9933 156.557 59.196C156.403 59.3933 156.325 59.6493 156.325 59.964H154.933C154.933 59.4093 155.069 58.964 155.341 58.628C155.613 58.2867 155.987 58.0413 156.461 57.892C156.941 57.7373 157.488 57.66 158.101 57.66C158.688 57.66 159.208 57.7587 159.661 57.956C160.115 58.1533 160.469 58.468 160.725 58.9C160.981 59.3267 161.109 59.884 161.109 60.572V65.5H160.021ZM157.413 65.692C156.784 65.692 156.264 65.58 155.853 65.356C155.443 65.132 155.136 64.8413 154.933 64.484C154.731 64.1267 154.629 63.7507 154.629 63.356C154.629 62.8387 154.757 62.4173 155.013 62.092C155.275 61.7667 155.629 61.5293 156.077 61.38C156.525 61.2253 157.029 61.148 157.589 61.148C157.989 61.148 158.389 61.188 158.789 61.268C159.195 61.348 159.589 61.4573 159.973 61.596V62.38C159.653 62.252 159.291 62.1507 158.885 62.076C158.485 62.0013 158.117 61.964 157.781 61.964C157.269 61.964 156.837 62.0707 156.485 62.284C156.133 62.492 155.957 62.8493 155.957 63.356C155.957 63.7293 156.091 64.0493 156.357 64.316C156.629 64.5827 157.061 64.716 157.653 64.716C158.069 64.716 158.443 64.62 158.773 64.428C159.109 64.2307 159.373 63.9853 159.565 63.692C159.763 63.3987 159.861 63.1053 159.861 62.812H160.165C160.165 63.324 160.053 63.7987 159.829 64.236C159.611 64.6733 159.296 65.0253 158.885 65.292C158.475 65.5587 157.984 65.692 157.413 65.692ZM162.93 57.852H164.354L166.754 64.428H166.578L168.978 57.852H170.402L167.346 65.5H165.986L162.93 57.852ZM177.201 65.5L177.041 63.82V60.54C177.041 59.852 176.894 59.3587 176.601 59.06C176.307 58.756 175.867 58.604 175.281 58.604C174.95 58.604 174.649 58.652 174.377 58.748C174.11 58.844 173.897 58.9933 173.737 59.196C173.582 59.3933 173.505 59.6493 173.505 59.964H172.113C172.113 59.4093 172.249 58.964 172.521 58.628C172.793 58.2867 173.166 58.0413 173.641 57.892C174.121 57.7373 174.667 57.66 175.281 57.66C175.867 57.66 176.387 57.7587 176.841 57.956C177.294 58.1533 177.649 58.468 177.905 58.9C178.161 59.3267 178.289 59.884 178.289 60.572V65.5H177.201ZM174.593 65.692C173.963 65.692 173.443 65.58 173.033 65.356C172.622 65.132 172.315 64.8413 172.113 64.484C171.91 64.1267 171.809 63.7507 171.809 63.356C171.809 62.8387 171.937 62.4173 172.193 62.092C172.454 61.7667 172.809 61.5293 173.257 61.38C173.705 61.2253 174.209 61.148 174.769 61.148C175.169 61.148 175.569 61.188 175.969 61.268C176.374 61.348 176.769 61.4573 177.153 61.596V62.38C176.833 62.252 176.47 62.1507 176.065 62.076C175.665 62.0013 175.297 61.964 174.961 61.964C174.449 61.964 174.017 62.0707 173.665 62.284C173.313 62.492 173.137 62.8493 173.137 63.356C173.137 63.7293 173.27 64.0493 173.537 64.316C173.809 64.5827 174.241 64.716 174.833 64.716C175.249 64.716 175.622 64.62 175.953 64.428C176.289 64.2307 176.553 63.9853 176.745 63.692C176.942 63.3987 177.041 63.1053 177.041 62.812H177.345C177.345 63.324 177.233 63.7987 177.009 64.236C176.79 64.6733 176.475 65.0253 176.065 65.292C175.654 65.5587 175.163 65.692 174.593 65.692ZM182.141 56.044C181.885 56.044 181.683 55.972 181.533 55.828C181.384 55.6787 181.309 55.484 181.309 55.244C181.309 55.0093 181.384 54.8227 181.533 54.684C181.683 54.5453 181.885 54.476 182.141 54.476C182.397 54.476 182.6 54.5453 182.749 54.684C182.899 54.8227 182.973 55.0093 182.973 55.244C182.973 55.484 182.899 55.6787 182.749 55.828C182.6 55.972 182.397 56.044 182.141 56.044ZM181.517 65.5V57.836H182.765V65.5H181.517ZM186.363 65.5V54.588H187.611V65.5H186.363ZM195.743 65.5L195.583 63.82V60.54C195.583 59.852 195.437 59.3587 195.143 59.06C194.85 58.756 194.41 58.604 193.823 58.604C193.493 58.604 193.191 58.652 192.919 58.748C192.653 58.844 192.439 58.9933 192.279 59.196C192.125 59.3933 192.047 59.6493 192.047 59.964H190.655C190.655 59.4093 190.791 58.964 191.063 58.628C191.335 58.2867 191.709 58.0413 192.183 57.892C192.663 57.7373 193.21 57.66 193.823 57.66C194.41 57.66 194.93 57.7587 195.383 57.956C195.837 58.1533 196.191 58.468 196.447 58.9C196.703 59.3267 196.831 59.884 196.831 60.572V65.5H195.743ZM193.135 65.692C192.506 65.692 191.986 65.58 191.575 65.356C191.165 65.132 190.858 64.8413 190.655 64.484C190.453 64.1267 190.351 63.7507 190.351 63.356C190.351 62.8387 190.479 62.4173 190.735 62.092C190.997 61.7667 191.351 61.5293 191.799 61.38C192.247 61.2253 192.751 61.148 193.311 61.148C193.711 61.148 194.111 61.188 194.511 61.268C194.917 61.348 195.311 61.4573 195.695 61.596V62.38C195.375 62.252 195.013 62.1507 194.607 62.076C194.207 62.0013 193.839 61.964 193.503 61.964C192.991 61.964 192.559 62.0707 192.207 62.284C191.855 62.492 191.679 62.8493 191.679 63.356C191.679 63.7293 191.813 64.0493 192.079 64.316C192.351 64.5827 192.783 64.716 193.375 64.716C193.791 64.716 194.165 64.62 194.495 64.428C194.831 64.2307 195.095 63.9853 195.287 63.692C195.485 63.3987 195.583 63.1053 195.583 62.812H195.887C195.887 63.324 195.775 63.7987 195.551 64.236C195.333 64.6733 195.018 65.0253 194.607 65.292C194.197 65.5587 193.706 65.692 193.135 65.692ZM203.484 65.692C202.972 65.692 202.508 65.5587 202.092 65.292C201.681 65.0253 201.353 64.636 201.108 64.124C200.868 63.6067 200.748 62.9773 200.748 62.236H201.228C201.228 62.732 201.329 63.156 201.532 63.508C201.74 63.8547 202.006 64.1187 202.332 64.3C202.657 64.4813 202.998 64.572 203.356 64.572C203.766 64.572 204.142 64.4547 204.484 64.22C204.825 63.9853 205.097 63.6493 205.3 63.212C205.508 62.7747 205.612 62.252 205.612 61.644C205.612 61.0467 205.51 60.5347 205.308 60.108C205.105 59.676 204.83 59.3453 204.484 59.116C204.142 58.8813 203.761 58.764 203.34 58.764C202.977 58.764 202.633 58.8547 202.308 59.036C201.988 59.212 201.726 59.4733 201.524 59.82C201.326 60.1667 201.228 60.5933 201.228 61.1H200.748C200.748 60.3747 200.865 59.756 201.1 59.244C201.34 58.732 201.67 58.34 202.092 58.068C202.513 57.796 203.004 57.66 203.564 57.66C204.166 57.66 204.718 57.8227 205.22 58.148C205.726 58.468 206.132 58.9267 206.436 59.524C206.74 60.1213 206.892 60.828 206.892 61.644C206.892 62.4653 206.737 63.18 206.428 63.788C206.118 64.3907 205.705 64.86 205.188 65.196C204.67 65.5267 204.102 65.692 203.484 65.692ZM199.98 65.5V54.588H201.228V63.708L200.86 65.5H199.98ZM209.624 65.5V54.588H210.872V65.5H209.624ZM216.924 65.692C216.263 65.692 215.671 65.524 215.148 65.188C214.631 64.8467 214.22 64.3747 213.916 63.772C213.618 63.1693 213.468 62.476 213.468 61.692C213.468 60.8547 213.618 60.1347 213.916 59.532C214.215 58.9293 214.623 58.468 215.14 58.148C215.663 57.8227 216.258 57.66 216.924 57.66C217.506 57.66 218.002 57.7773 218.412 58.012C218.823 58.2467 219.154 58.564 219.404 58.964C219.655 59.364 219.828 59.8173 219.924 60.324C220.026 60.8253 220.055 61.3453 220.012 61.884H214.476V61.116H219.188L218.82 61.356C218.836 61.0413 218.818 60.7267 218.764 60.412C218.716 60.0973 218.623 59.8093 218.484 59.548C218.346 59.2813 218.151 59.068 217.9 58.908C217.65 58.748 217.33 58.668 216.94 58.668C216.45 58.668 216.039 58.7933 215.708 59.044C215.378 59.2947 215.13 59.6253 214.964 60.036C214.799 60.4413 214.716 60.8813 214.716 61.356V61.868C214.716 62.4013 214.796 62.8787 214.956 63.3C215.122 63.7213 215.367 64.0547 215.692 64.3C216.018 64.5453 216.428 64.668 216.924 64.668C217.42 64.668 217.828 64.548 218.148 64.308C218.468 64.068 218.663 63.7133 218.732 63.244H220.028C219.948 63.7507 219.767 64.188 219.484 64.556C219.202 64.9187 218.842 65.1987 218.404 65.396C217.967 65.5933 217.474 65.692 216.924 65.692ZM223.863 62.94V62.22C223.863 61.756 223.911 61.3747 224.007 61.076C224.109 60.7773 224.274 60.5187 224.503 60.3C224.733 60.0813 225.047 59.8627 225.447 59.644C225.805 59.452 226.09 59.2733 226.303 59.108C226.517 58.9427 226.669 58.764 226.759 58.572C226.855 58.38 226.903 58.1453 226.903 57.868C226.903 57.452 226.733 57.1053 226.391 56.828C226.055 56.5507 225.591 56.412 224.999 56.412C224.343 56.412 223.842 56.5427 223.495 56.804C223.149 57.06 222.93 57.42 222.839 57.884H221.511C221.586 57.1053 221.911 56.476 222.487 55.996C223.069 55.516 223.895 55.276 224.967 55.276C225.65 55.276 226.237 55.396 226.727 55.636C227.223 55.8707 227.602 56.188 227.863 56.588C228.13 56.9827 228.263 57.42 228.263 57.9C228.263 58.4493 228.125 58.9107 227.847 59.284C227.57 59.652 227.122 60.0013 226.503 60.332C226.146 60.5293 225.863 60.7133 225.655 60.884C225.453 61.0493 225.309 61.2413 225.223 61.46C225.138 61.6733 225.095 61.9533 225.095 62.3V62.94H223.863ZM224.503 65.692C224.237 65.692 224.015 65.6067 223.839 65.436C223.663 65.26 223.575 65.0493 223.575 64.804C223.575 64.5533 223.661 64.3373 223.831 64.156C224.007 63.9747 224.229 63.884 224.495 63.884C224.762 63.884 224.989 63.9747 225.175 64.156C225.367 64.332 225.463 64.5453 225.463 64.796C225.463 65.0413 225.37 65.252 225.183 65.428C224.997 65.604 224.77 65.692 224.503 65.692Z" fill="#333333"/>
</g>
<defs>
<filter id="filter0_d_7097_6097" x="0" y="0" width="260.768" height="88" filterUnits="userSpaceOnUse" color-interpolation-filters="sRGB">
<feFlood flood-opacity="0" result="BackgroundImageFix"/>
<feColorMatrix in="SourceAlpha" type="matrix" values="0 0 0 0 0 0 0 0 0 0 0 0 0 0 0 0 0 0 127 0" result="hardAlpha"/>
<feOffset dy="4"/>
<feGaussianBlur stdDeviation="3"/>
<feComposite in2="hardAlpha" operator="out"/>
<feColorMatrix type="matrix" values="0 0 0 0 0 0 0 0 0 0 0 0 0 0 0 0 0 0 0.1 0"/>
<feBlend mode="normal" in2="BackgroundImageFix" result="effect1_dropShadow_7097_6097"/>
<feBlend mode="normal" in="SourceGraphic" in2="effect1_dropShadow_7097_6097" result="shape"/>
</filter>
<filter id="filter1_d_7097_6097" x="11.2334" y="12.4756" width="223.03" height="66.7842" filterUnits="userSpaceOnUse" color-interpolation-filters="sRGB">
<feFlood flood-opacity="0" result="BackgroundImageFix"/>
<feColorMatrix in="SourceAlpha" type="matrix" values="0 0 0 0 0 0 0 0 0 0 0 0 0 0 0 0 0 0 127 0" result="hardAlpha"/>
<feOffset dy="4"/>
<feGaussianBlur stdDeviation="3"/>
<feComposite in2="hardAlpha" operator="out"/>
<feColorMatrix type="matrix" values="0 0 0 0 0 0 0 0 0 0 0 0 0 0 0 0 0 0 0.05 0"/>
<feBlend mode="normal" in2="BackgroundImageFix" result="effect1_dropShadow_7097_6097"/>
<feBlend mode="normal" in="SourceGraphic" in2="effect1_dropShadow_7097_6097" result="shape"/>
</filter>
</defs>
</svg>
