<svg width="256" height="68" viewBox="0 0 256 68" fill="none" xmlns="http://www.w3.org/2000/svg">
<mask id="path-1-inside-1_7061_5972" fill="white">
<path d="M248.724 27.3669L239 19L239 11C239 6.02944 234.971 2 230 2L8.99997 1.99998C4.02941 1.99998 -2.59742e-05 6.02942 -2.64087e-05 11L-2.97308e-05 49C-3.01653e-05 53.9705 4.0294 58 8.99997 58L230 58C234.971 58 239 53.9706 239 49L239 39.5L248.612 32.0069C250.106 30.8425 250.16 28.6022 248.724 27.3669Z"/>
</mask>
<path d="M248.724 27.3669L239 19L239 11C239 6.02944 234.971 2 230 2L8.99997 1.99998C4.02941 1.99998 -2.59742e-05 6.02942 -2.64087e-05 11L-2.97308e-05 49C-3.01653e-05 53.9705 4.0294 58 8.99997 58L230 58C234.971 58 239 53.9706 239 49L239 39.5L248.612 32.0069C250.106 30.8425 250.16 28.6022 248.724 27.3669Z" fill="white"/>
<path d="M239 19L237.6 19L237.6 19.6423L238.087 20.0612L239 19ZM248.724 27.3669L249.637 26.3056L249.637 26.3056L248.724 27.3669ZM248.612 32.0069L247.751 30.9028L247.751 30.9028L248.612 32.0069ZM239 39.5L238.139 38.3959L237.6 38.8162L237.6 39.5L239 39.5ZM238.087 20.0612L247.811 28.4281L249.637 26.3056L239.913 17.9388L238.087 20.0612ZM247.751 30.9028L238.139 38.3959L239.861 40.6041L249.473 33.1111L247.751 30.9028ZM247.811 28.4281C248.577 29.0869 248.548 30.2817 247.751 30.9028L249.473 33.1111C251.663 31.4032 251.743 28.1175 249.637 26.3056L247.811 28.4281ZM230 56.6L8.99997 56.6L8.99997 59.4L230 59.4L230 56.6ZM1.39997 49L1.39997 11L-1.40003 11L-1.40003 49L1.39997 49ZM8.99997 3.39998L230 3.4L230 0.599998L8.99997 0.599979L8.99997 3.39998ZM237.6 39.5L237.6 49L240.4 49L240.4 39.5L237.6 39.5ZM237.6 11L237.6 19L240.4 19L240.4 11L237.6 11ZM230 3.4C234.197 3.4 237.6 6.80264 237.6 11L240.4 11C240.4 5.25624 235.744 0.599999 230 0.599998L230 3.4ZM1.39997 11C1.39997 6.80261 4.80261 3.39998 8.99997 3.39998L8.99997 0.599979C3.25621 0.599978 -1.40003 5.25622 -1.40003 11L1.39997 11ZM8.99997 56.6C4.8026 56.6 1.39997 53.1973 1.39997 49L-1.40003 49C-1.40003 54.7437 3.2562 59.4 8.99997 59.4L8.99997 56.6ZM230 59.4C235.744 59.4 240.4 54.7438 240.4 49L237.6 49C237.6 53.1974 234.197 56.6 230 56.6L230 59.4Z" fill="white" mask="url(#path-1-inside-1_7061_5972)"/>
<g filter="url(#filter0_d_7061_5972)">
<mask id="path-3-inside-2_7061_5972" fill="white">
<path d="M248.724 27.3669L239 19L239 11C239 6.02944 234.971 2 230 2L87 1.99999C82.0294 1.99999 78 6.02942 78 11L78 49C78 53.9705 82.0294 58 87 58L230 58C234.971 58 239 53.9706 239 49L239 39.5L248.612 32.0069C250.106 30.8425 250.16 28.6022 248.724 27.3669Z"/>
</mask>
<path d="M248.724 27.3669L239 19L239 11C239 6.02944 234.971 2 230 2L87 1.99999C82.0294 1.99999 78 6.02942 78 11L78 49C78 53.9705 82.0294 58 87 58L230 58C234.971 58 239 53.9706 239 49L239 39.5L248.612 32.0069C250.106 30.8425 250.16 28.6022 248.724 27.3669Z" fill="white"/>
<path d="M239 19L237.6 19L237.6 19.6423L238.087 20.0612L239 19ZM248.724 27.3669L249.637 26.3056L249.637 26.3056L248.724 27.3669ZM248.612 32.0069L247.751 30.9028L247.751 30.9028L248.612 32.0069ZM239 39.5L238.139 38.3959L237.6 38.8162L237.6 39.5L239 39.5ZM230 58L230 59.4L230 59.4L230 58ZM87 58L87 56.6H87L87 58ZM238.087 20.0612L247.811 28.4281L249.637 26.3056L239.913 17.9388L238.087 20.0612ZM247.751 30.9028L238.139 38.3959L239.861 40.6041L249.473 33.1111L247.751 30.9028ZM247.811 28.4281C248.577 29.0869 248.548 30.2817 247.751 30.9028L249.473 33.1111C251.663 31.4032 251.743 28.1175 249.637 26.3056L247.811 28.4281ZM230 56.6L87 56.6L87 59.4L230 59.4L230 56.6ZM79.4 49L79.4 11L76.6 11L76.6 49L79.4 49ZM87 3.39999L230 3.4L230 0.599998L87 0.599986L87 3.39999ZM237.6 39.5L237.6 49L240.4 49L240.4 39.5L237.6 39.5ZM237.6 11L237.6 19L240.4 19L240.4 11L237.6 11ZM230 3.4C234.197 3.4 237.6 6.80264 237.6 11L240.4 11C240.4 5.25624 235.744 0.599999 230 0.599998L230 3.4ZM79.4 11C79.4 6.80262 82.8026 3.39999 87 3.39999L87 0.599986C81.2562 0.599985 76.6 5.25622 76.6 11L79.4 11ZM87 56.6C82.8026 56.6 79.4 53.1973 79.4 49L76.6 49C76.6 54.7437 81.2562 59.4 87 59.4L87 56.6ZM230 59.4C235.744 59.4 240.4 54.7438 240.4 49L237.6 49C237.6 53.1974 234.197 56.6 230 56.6L230 59.4Z" fill="#333333" mask="url(#path-3-inside-2_7061_5972)"/>
</g>
<g filter="url(#filter1_d_7061_5972)">
<path d="M95.0366 25.5V15.452H96.2846V25.5H95.0366ZM108.374 25.5L108.214 23.82V20.54C108.214 19.852 108.067 19.3587 107.774 19.06C107.481 18.756 107.041 18.604 106.454 18.604C106.123 18.604 105.822 18.652 105.55 18.748C105.283 18.844 105.07 18.9933 104.91 19.196C104.755 19.3933 104.678 19.6493 104.678 19.964H103.286C103.286 19.4093 103.422 18.964 103.694 18.628C103.966 18.2867 104.339 18.0413 104.814 17.892C105.294 17.7373 105.841 17.66 106.454 17.66C107.041 17.66 107.561 17.7587 108.014 17.956C108.467 18.1533 108.822 18.468 109.078 18.9C109.334 19.3267 109.462 19.884 109.462 20.572V25.5H108.374ZM105.766 25.692C105.137 25.692 104.617 25.58 104.206 25.356C103.795 25.132 103.489 24.8413 103.286 24.484C103.083 24.1267 102.982 23.7507 102.982 23.356C102.982 22.8387 103.11 22.4173 103.366 22.092C103.627 21.7667 103.982 21.5293 104.43 21.38C104.878 21.2253 105.382 21.148 105.942 21.148C106.342 21.148 106.742 21.188 107.142 21.268C107.547 21.348 107.942 21.4573 108.326 21.596V22.38C108.006 22.252 107.643 22.1507 107.238 22.076C106.838 22.0013 106.47 21.964 106.134 21.964C105.622 21.964 105.19 22.0707 104.838 22.284C104.486 22.492 104.31 22.8493 104.31 23.356C104.31 23.7293 104.443 24.0493 104.71 24.316C104.982 24.5827 105.414 24.716 106.006 24.716C106.422 24.716 106.795 24.62 107.126 24.428C107.462 24.2307 107.726 23.9853 107.918 23.692C108.115 23.3987 108.214 23.1053 108.214 22.812H108.518C108.518 23.324 108.406 23.7987 108.182 24.236C107.963 24.6733 107.649 25.0253 107.238 25.292C106.827 25.5587 106.337 25.692 105.766 25.692ZM123.362 25.5V21.004C123.362 20.2733 123.186 19.7187 122.834 19.34C122.488 18.956 122.018 18.764 121.426 18.764C120.733 18.764 120.202 19.0333 119.834 19.572C119.466 20.1053 119.282 20.844 119.282 21.788H118.706C118.706 21.1 118.773 20.4973 118.906 19.98C119.045 19.4627 119.245 19.0333 119.506 18.692C119.768 18.3453 120.085 18.0867 120.458 17.916C120.832 17.7453 121.256 17.66 121.73 17.66C122.333 17.66 122.848 17.796 123.274 18.068C123.706 18.3347 124.037 18.7187 124.266 19.22C124.496 19.7213 124.61 20.316 124.61 21.004V25.5H123.362ZM112.61 25.5V17.852H113.682L113.826 19.388C114.066 18.8333 114.402 18.4067 114.834 18.108C115.272 17.8093 115.794 17.66 116.402 17.66C117.005 17.66 117.52 17.796 117.946 18.068C118.378 18.3347 118.709 18.7187 118.938 19.22C119.168 19.7213 119.282 20.316 119.282 21.004V25.5H118.05V21.004C118.05 20.2733 117.874 19.7187 117.522 19.34C117.176 18.956 116.701 18.764 116.098 18.764C115.64 18.764 115.242 18.8893 114.906 19.14C114.57 19.3907 114.312 19.7507 114.13 20.22C113.949 20.684 113.858 21.2387 113.858 21.884V25.5H112.61ZM132.4 16.044C132.144 16.044 131.941 15.972 131.792 15.828C131.643 15.6787 131.568 15.484 131.568 15.244C131.568 15.0093 131.643 14.8227 131.792 14.684C131.941 14.5453 132.144 14.476 132.4 14.476C132.656 14.476 132.859 14.5453 133.008 14.684C133.157 14.8227 133.232 15.0093 133.232 15.244C133.232 15.484 133.157 15.6787 133.008 15.828C132.859 15.972 132.656 16.044 132.4 16.044ZM131.776 25.5V17.836H133.024V25.5H131.776ZM142.062 25.5V21.004C142.062 20.2733 141.886 19.7187 141.534 19.34C141.187 18.956 140.712 18.764 140.11 18.764C139.651 18.764 139.254 18.8893 138.918 19.14C138.582 19.3907 138.323 19.7507 138.142 20.22C137.96 20.684 137.87 21.2387 137.87 21.884H137.39C137.39 20.9933 137.507 20.2333 137.742 19.604C137.976 18.9747 138.318 18.4947 138.766 18.164C139.219 17.828 139.768 17.66 140.414 17.66C141.016 17.66 141.531 17.796 141.958 18.068C142.39 18.3347 142.72 18.7187 142.95 19.22C143.179 19.7213 143.294 20.316 143.294 21.004V25.5H142.062ZM136.622 25.5V17.852H137.694L137.87 19.612V25.5H136.622ZM148.79 25.692C148.374 25.692 148.001 25.612 147.67 25.452C147.339 25.292 147.078 25.052 146.886 24.732C146.694 24.412 146.598 24.012 146.598 23.532V15.724H147.83V23.5C147.83 24.2893 148.198 24.684 148.934 24.684C149.153 24.684 149.363 24.66 149.566 24.612C149.774 24.564 150.006 24.492 150.262 24.396L150.438 25.292C150.166 25.4093 149.894 25.5053 149.622 25.58C149.355 25.6547 149.078 25.692 148.79 25.692ZM145.366 18.716V17.852H150.246V18.716H145.366ZM155.269 25.692C154.608 25.692 154.016 25.524 153.493 25.188C152.976 24.8467 152.565 24.3747 152.261 23.772C151.963 23.1693 151.813 22.476 151.813 21.692C151.813 20.8547 151.963 20.1347 152.261 19.532C152.56 18.9293 152.968 18.468 153.485 18.148C154.008 17.8227 154.603 17.66 155.269 17.66C155.851 17.66 156.347 17.7773 156.757 18.012C157.168 18.2467 157.499 18.564 157.749 18.964C158 19.364 158.173 19.8173 158.269 20.324C158.371 20.8253 158.4 21.3453 158.357 21.884H152.821V21.116H157.533L157.165 21.356C157.181 21.0413 157.163 20.7267 157.109 20.412C157.061 20.0973 156.968 19.8093 156.829 19.548C156.691 19.2813 156.496 19.068 156.245 18.908C155.995 18.748 155.675 18.668 155.285 18.668C154.795 18.668 154.384 18.7933 154.053 19.044C153.723 19.2947 153.475 19.6253 153.309 20.036C153.144 20.4413 153.061 20.8813 153.061 21.356V21.868C153.061 22.4013 153.141 22.8787 153.301 23.3C153.467 23.7213 153.712 24.0547 154.037 24.3C154.363 24.5453 154.773 24.668 155.269 24.668C155.765 24.668 156.173 24.548 156.493 24.308C156.813 24.068 157.008 23.7133 157.077 23.244H158.373C158.293 23.7507 158.112 24.188 157.829 24.556C157.547 24.9187 157.187 25.1987 156.749 25.396C156.312 25.5933 155.819 25.692 155.269 25.692ZM160.992 25.5V17.836H162.24V25.5H160.992ZM161.856 22.044C161.856 21.0733 161.95 20.268 162.136 19.628C162.323 18.9827 162.595 18.5027 162.952 18.188C163.315 17.868 163.755 17.708 164.272 17.708C164.443 17.708 164.598 17.7213 164.736 17.748C164.88 17.7693 165.024 17.804 165.168 17.852L165.088 19.084C164.939 19.036 164.776 18.996 164.6 18.964C164.424 18.9267 164.267 18.908 164.128 18.908C163.675 18.908 163.31 19.0387 163.032 19.3C162.755 19.556 162.552 19.9187 162.424 20.388C162.302 20.8573 162.24 21.4093 162.24 22.044H161.856ZM169.589 25.692C168.928 25.692 168.336 25.524 167.813 25.188C167.296 24.8467 166.885 24.3747 166.581 23.772C166.283 23.1693 166.133 22.476 166.133 21.692C166.133 20.8547 166.283 20.1347 166.581 19.532C166.88 18.9293 167.288 18.468 167.805 18.148C168.328 17.8227 168.923 17.66 169.589 17.66C170.171 17.66 170.667 17.7773 171.077 18.012C171.488 18.2467 171.819 18.564 172.069 18.964C172.32 19.364 172.493 19.8173 172.589 20.324C172.691 20.8253 172.72 21.3453 172.677 21.884H167.141V21.116H171.853L171.485 21.356C171.501 21.0413 171.483 20.7267 171.429 20.412C171.381 20.0973 171.288 19.8093 171.149 19.548C171.011 19.2813 170.816 19.068 170.565 18.908C170.315 18.748 169.995 18.668 169.605 18.668C169.115 18.668 168.704 18.7933 168.373 19.044C168.043 19.2947 167.795 19.6253 167.629 20.036C167.464 20.4413 167.381 20.8813 167.381 21.356V21.868C167.381 22.4013 167.461 22.8787 167.621 23.3C167.787 23.7213 168.032 24.0547 168.357 24.3C168.683 24.5453 169.093 24.668 169.589 24.668C170.085 24.668 170.493 24.548 170.813 24.308C171.133 24.068 171.328 23.7133 171.397 23.244H172.693C172.613 23.7507 172.432 24.188 172.149 24.556C171.867 24.9187 171.507 25.1987 171.069 25.396C170.632 25.5933 170.139 25.692 169.589 25.692ZM178.064 25.692C177.323 25.692 176.704 25.588 176.208 25.38C175.712 25.1667 175.336 24.876 175.08 24.508C174.824 24.1347 174.688 23.708 174.672 23.228H175.872C175.899 23.7133 176.094 24.0787 176.456 24.324C176.824 24.564 177.323 24.684 177.952 24.684C178.283 24.684 178.587 24.6307 178.864 24.524C179.142 24.4173 179.363 24.2707 179.528 24.084C179.694 23.8973 179.776 23.6867 179.776 23.452C179.776 23.1533 179.667 22.9187 179.448 22.748C179.23 22.5773 178.88 22.428 178.4 22.3L176.912 21.82C176.267 21.6173 175.771 21.34 175.424 20.988C175.083 20.6307 174.912 20.204 174.912 19.708C174.912 19.0893 175.184 18.5933 175.728 18.22C176.272 17.8467 176.987 17.66 177.872 17.66C178.811 17.66 179.539 17.852 180.056 18.236C180.574 18.62 180.843 19.1 180.864 19.676H179.632C179.584 19.34 179.414 19.0867 179.12 18.916C178.827 18.74 178.411 18.652 177.872 18.652C177.355 18.652 176.95 18.7693 176.656 19.004C176.368 19.2333 176.224 19.4893 176.224 19.772C176.224 20.3 176.678 20.6893 177.584 20.94L179.104 21.452C179.76 21.6493 180.262 21.908 180.608 22.228C180.96 22.548 181.136 22.956 181.136 23.452C181.136 23.836 181.011 24.1987 180.76 24.54C180.51 24.8813 180.155 25.1587 179.696 25.372C179.238 25.5853 178.694 25.692 178.064 25.692ZM186.23 25.692C185.814 25.692 185.441 25.612 185.11 25.452C184.78 25.292 184.518 25.052 184.326 24.732C184.134 24.412 184.038 24.012 184.038 23.532V15.724H185.27V23.5C185.27 24.2893 185.638 24.684 186.374 24.684C186.593 24.684 186.804 24.66 187.006 24.612C187.214 24.564 187.446 24.492 187.702 24.396L187.878 25.292C187.606 25.4093 187.334 25.5053 187.062 25.58C186.796 25.6547 186.518 25.692 186.23 25.692ZM182.806 18.716V17.852H187.686V18.716H182.806ZM192.71 25.692C192.049 25.692 191.457 25.524 190.934 25.188C190.417 24.8467 190.006 24.3747 189.702 23.772C189.403 23.1693 189.254 22.476 189.254 21.692C189.254 20.8547 189.403 20.1347 189.702 19.532C190.001 18.9293 190.409 18.468 190.926 18.148C191.449 17.8227 192.043 17.66 192.71 17.66C193.291 17.66 193.787 17.7773 194.198 18.012C194.609 18.2467 194.939 18.564 195.19 18.964C195.441 19.364 195.614 19.8173 195.71 20.324C195.811 20.8253 195.841 21.3453 195.798 21.884H190.262V21.116H194.974L194.606 21.356C194.622 21.0413 194.603 20.7267 194.55 20.412C194.502 20.0973 194.409 19.8093 194.27 19.548C194.131 19.2813 193.937 19.068 193.686 18.908C193.435 18.748 193.115 18.668 192.726 18.668C192.235 18.668 191.825 18.7933 191.494 19.044C191.163 19.2947 190.915 19.6253 190.75 20.036C190.585 20.4413 190.502 20.8813 190.502 21.356V21.868C190.502 22.4013 190.582 22.8787 190.742 23.3C190.907 23.7213 191.153 24.0547 191.478 24.3C191.803 24.5453 192.214 24.668 192.71 24.668C193.206 24.668 193.614 24.548 193.934 24.308C194.254 24.068 194.449 23.7133 194.518 23.244H195.814C195.734 23.7507 195.553 24.188 195.27 24.556C194.987 24.9187 194.627 25.1987 194.19 25.396C193.753 25.5933 193.259 25.692 192.71 25.692ZM201.169 25.692C200.55 25.692 199.982 25.5267 199.465 25.196C198.948 24.86 198.534 24.3907 198.225 23.788C197.916 23.18 197.761 22.4653 197.761 21.644C197.761 20.828 197.913 20.1213 198.217 19.524C198.521 18.9267 198.924 18.468 199.425 18.148C199.932 17.8227 200.486 17.66 201.089 17.66C201.649 17.66 202.14 17.796 202.561 18.068C202.988 18.34 203.318 18.732 203.553 19.244C203.788 19.756 203.905 20.3747 203.905 21.1H203.425C203.425 20.5933 203.324 20.1667 203.121 19.82C202.924 19.4733 202.665 19.212 202.345 19.036C202.025 18.8547 201.681 18.764 201.313 18.764C200.897 18.764 200.516 18.8813 200.169 19.116C199.828 19.3453 199.553 19.676 199.345 20.108C199.142 20.5347 199.041 21.0467 199.041 21.644C199.041 22.252 199.142 22.7747 199.345 23.212C199.553 23.6493 199.828 23.9853 200.169 24.22C200.516 24.4547 200.897 24.572 201.313 24.572C201.66 24.572 201.993 24.4813 202.313 24.3C202.638 24.1187 202.905 23.8547 203.113 23.508C203.321 23.156 203.425 22.732 203.425 22.236H203.905C203.905 22.9773 203.782 23.6067 203.537 24.124C203.297 24.636 202.969 25.0253 202.553 25.292C202.142 25.5587 201.681 25.692 201.169 25.692ZM203.633 25.5L203.425 23.708V14.588H204.673V25.5H203.633ZM212.738 16.044C212.482 16.044 212.279 15.972 212.13 15.828C211.981 15.6787 211.906 15.484 211.906 15.244C211.906 15.0093 211.981 14.8227 212.13 14.684C212.279 14.5453 212.482 14.476 212.738 14.476C212.994 14.476 213.197 14.5453 213.346 14.684C213.495 14.8227 213.57 15.0093 213.57 15.244C213.57 15.484 213.495 15.6787 213.346 15.828C213.197 15.972 212.994 16.044 212.738 16.044ZM212.114 25.5V17.836H213.362V25.5H212.114ZM222.4 25.5V21.004C222.4 20.2733 222.224 19.7187 221.872 19.34C221.525 18.956 221.05 18.764 220.448 18.764C219.989 18.764 219.592 18.8893 219.256 19.14C218.92 19.3907 218.661 19.7507 218.48 20.22C218.298 20.684 218.208 21.2387 218.208 21.884H217.728C217.728 20.9933 217.845 20.2333 218.08 19.604C218.314 18.9747 218.656 18.4947 219.104 18.164C219.557 17.828 220.106 17.66 220.752 17.66C221.354 17.66 221.869 17.796 222.296 18.068C222.728 18.3347 223.058 18.7187 223.288 19.22C223.517 19.7213 223.632 20.316 223.632 21.004V25.5H222.4ZM216.96 25.5V17.852H218.032L218.208 19.612V25.5H216.96ZM107.244 45.5V35.116H111.084C112.326 35.116 113.278 35.4067 113.94 35.988C114.606 36.5693 114.94 37.34 114.94 38.3C114.94 39.244 114.606 40.0067 113.94 40.588C113.278 41.164 112.326 41.452 111.084 41.452H109.132V45.5H107.244ZM112.86 45.5L110.108 40.636H112.124L115.324 45.5H112.86ZM109.132 40.188H110.892C111.585 40.188 112.11 40.0307 112.468 39.716C112.825 39.396 113.004 38.9827 113.004 38.476C113.004 37.9587 112.841 37.5427 112.516 37.228C112.19 36.908 111.713 36.748 111.084 36.748H109.132V40.188ZM117.54 35.116H119.428V41.58C119.428 42.4333 119.644 43.0493 120.076 43.428C120.514 43.8067 121.071 43.996 121.748 43.996C122.431 43.996 122.988 43.8067 123.42 43.428C123.852 43.0493 124.068 42.4333 124.068 41.58V35.116H125.956V41.58C125.956 42.4547 125.788 43.2013 125.452 43.82C125.116 44.4387 124.634 44.9107 124.004 45.236C123.38 45.5613 122.628 45.724 121.748 45.724C120.868 45.724 120.114 45.5613 119.484 45.236C118.86 44.9107 118.38 44.4387 118.044 43.82C117.708 43.2013 117.54 42.4547 117.54 41.58V35.116ZM128.875 35.116H130.939L135.659 42.524H135.515V35.116H137.403V45.5H135.483L130.459 37.644H130.763V45.5H128.875V35.116ZM140.504 35.116H142.568L147.288 42.524H147.144V35.116H149.032V45.5H147.112L142.088 37.644H142.392V45.5H140.504V35.116ZM152.165 45.5V35.116H154.053V45.5H152.165ZM157.168 35.116H159.232L163.952 42.524H163.808V35.116H165.696V45.5H163.776L158.752 37.644H159.056V45.5H157.168V35.116ZM172.621 45.724C171.773 45.724 171.007 45.5 170.325 45.052C169.642 44.604 169.098 43.98 168.693 43.18C168.293 42.3747 168.093 41.436 168.093 40.364C168.093 39.516 168.215 38.756 168.461 38.084C168.711 37.412 169.058 36.8387 169.501 36.364C169.943 35.8893 170.463 35.5293 171.061 35.284C171.658 35.0333 172.306 34.908 173.005 34.908C173.975 34.908 174.789 35.1187 175.445 35.54C176.106 35.9613 176.621 36.6253 176.989 37.532L175.053 37.98C174.781 37.5373 174.466 37.2013 174.109 36.972C173.757 36.7373 173.357 36.62 172.909 36.62C172.397 36.62 171.93 36.772 171.509 37.076C171.087 37.3747 170.751 37.804 170.501 38.364C170.25 38.924 170.125 39.5907 170.125 40.364C170.125 41.0893 170.234 41.724 170.453 42.268C170.677 42.812 170.989 43.236 171.389 43.54C171.789 43.844 172.253 43.996 172.781 43.996C173.229 43.996 173.629 43.8973 173.981 43.7C174.338 43.4973 174.618 43.2093 174.821 42.836C175.029 42.4627 175.133 42.012 175.133 41.484H175.549C175.549 42.348 175.445 43.0973 175.237 43.732C175.034 44.3667 174.717 44.8573 174.285 45.204C173.853 45.5507 173.298 45.724 172.621 45.724ZM175.405 45.5L175.133 43.212V41.42L172.797 41.372V40.172H176.941V45.5H175.405ZM183.992 35.116H186.056L190.776 42.524H190.632V35.116H192.52V45.5H190.6L185.576 37.644H185.88V45.5H183.992V35.116ZM199.62 45.724C198.698 45.724 197.882 45.5213 197.172 45.116C196.468 44.7107 195.916 44.1053 195.516 43.3C195.116 42.4947 194.916 41.4947 194.916 40.3C194.916 39.084 195.116 38.0787 195.516 37.284C195.916 36.484 196.468 35.8893 197.172 35.5C197.882 35.1053 198.698 34.908 199.62 34.908C200.548 34.908 201.367 35.1107 202.076 35.516C202.786 35.916 203.34 36.516 203.74 37.316C204.14 38.116 204.34 39.1107 204.34 40.3C204.34 41.5107 204.14 42.5187 203.74 43.324C203.34 44.1293 202.786 44.732 202.076 45.132C201.367 45.5267 200.548 45.724 199.62 45.724ZM199.62 44.012C200.468 44.012 201.14 43.692 201.636 43.052C202.138 42.412 202.388 41.4893 202.388 40.284C202.388 39.1213 202.138 38.2173 201.636 37.572C201.14 36.9267 200.468 36.604 199.62 36.604C198.788 36.604 198.122 36.9293 197.62 37.58C197.119 38.2253 196.868 39.132 196.868 40.3C196.868 41.5 197.119 42.42 197.62 43.06C198.122 43.6947 198.788 44.012 199.62 44.012ZM210.35 45.724C209.63 45.724 208.966 45.5987 208.358 45.348C207.756 45.0973 207.265 44.716 206.886 44.204C206.513 43.692 206.313 43.0413 206.286 42.252H208.142C208.142 42.652 208.241 42.98 208.438 43.236C208.636 43.492 208.9 43.684 209.23 43.812C209.566 43.9347 209.934 43.996 210.334 43.996C210.718 43.996 211.06 43.9453 211.358 43.844C211.662 43.7427 211.9 43.5987 212.07 43.412C212.246 43.22 212.334 42.9933 212.334 42.732C212.334 42.3853 212.228 42.1133 212.014 41.916C211.806 41.7187 211.47 41.5373 211.006 41.372L208.958 40.556C208.158 40.2413 207.545 39.876 207.118 39.46C206.692 39.044 206.478 38.4707 206.478 37.74C206.478 36.8973 206.812 36.2147 207.478 35.692C208.145 35.1693 209.076 34.908 210.27 34.908C211.433 34.908 212.332 35.18 212.966 35.724C213.601 36.2627 213.961 37.0147 214.046 37.98H212.19C212.121 37.5693 211.934 37.2413 211.63 36.996C211.326 36.7453 210.873 36.62 210.27 36.62C209.737 36.62 209.316 36.732 209.006 36.956C208.697 37.1747 208.542 37.452 208.542 37.788C208.542 38.076 208.638 38.3053 208.83 38.476C209.028 38.6413 209.332 38.8013 209.742 38.956L212.014 39.836C212.782 40.1347 213.372 40.5107 213.782 40.964C214.193 41.4173 214.398 41.9853 214.398 42.668C214.398 43.292 214.241 43.8333 213.926 44.292C213.612 44.7453 213.153 45.0973 212.55 45.348C211.948 45.5987 211.214 45.724 210.35 45.724ZM217.081 45.5V35.116H223.753V36.748H218.969V39.484H223.465V41.116H218.969V43.852H223.753V45.5H217.081Z" fill="#333333"/>
</g>
<defs>
<filter id="filter0_d_7061_5972" x="72" y="0" width="183.767" height="68" filterUnits="userSpaceOnUse" color-interpolation-filters="sRGB">
<feFlood flood-opacity="0" result="BackgroundImageFix"/>
<feColorMatrix in="SourceAlpha" type="matrix" values="0 0 0 0 0 0 0 0 0 0 0 0 0 0 0 0 0 0 127 0" result="hardAlpha"/>
<feOffset dy="4"/>
<feGaussianBlur stdDeviation="3"/>
<feComposite in2="hardAlpha" operator="out"/>
<feColorMatrix type="matrix" values="0 0 0 0 0 0 0 0 0 0 0 0 0 0 0 0 0 0 0.1 0"/>
<feBlend mode="normal" in2="BackgroundImageFix" result="effect1_dropShadow_7061_5972"/>
<feBlend mode="normal" in="SourceGraphic" in2="effect1_dropShadow_7061_5972" result="shape"/>
</filter>
<filter id="filter1_d_7061_5972" x="89.0366" y="12.4756" width="140.717" height="43.248" filterUnits="userSpaceOnUse" color-interpolation-filters="sRGB">
<feFlood flood-opacity="0" result="BackgroundImageFix"/>
<feColorMatrix in="SourceAlpha" type="matrix" values="0 0 0 0 0 0 0 0 0 0 0 0 0 0 0 0 0 0 127 0" result="hardAlpha"/>
<feOffset dy="4"/>
<feGaussianBlur stdDeviation="3"/>
<feComposite in2="hardAlpha" operator="out"/>
<feColorMatrix type="matrix" values="0 0 0 0 0 0 0 0 0 0 0 0 0 0 0 0 0 0 0.05 0"/>
<feBlend mode="normal" in2="BackgroundImageFix" result="effect1_dropShadow_7061_5972"/>
<feBlend mode="normal" in="SourceGraphic" in2="effect1_dropShadow_7061_5972" result="shape"/>
</filter>
</defs>
</svg>
