<svg width="263" height="68" viewBox="0 0 263 68" fill="none" xmlns="http://www.w3.org/2000/svg">
<g filter="url(#filter0_d_7088_5721)">
<mask id="path-1-inside-1_7088_5721" fill="white">
<path d="M7.04333 32.6331L16.7674 41V49C16.7674 53.9706 20.7968 58 25.7674 58L247.035 58C252.005 58 256.035 53.9706 256.035 49V11C256.035 6.02944 252.005 2 247.035 2L25.7674 2C20.7968 2 16.7674 6.02944 16.7674 11V20.5L7.15555 27.9931C5.66179 29.1575 5.60761 31.3978 7.04333 32.6331Z"/>
</mask>
<path d="M7.04333 32.6331L16.7674 41V49C16.7674 53.9706 20.7968 58 25.7674 58L247.035 58C252.005 58 256.035 53.9706 256.035 49V11C256.035 6.02944 252.005 2 247.035 2L25.7674 2C20.7968 2 16.7674 6.02944 16.7674 11V20.5L7.15555 27.9931C5.66179 29.1575 5.60761 31.3978 7.04333 32.6331Z" fill="white"/>
<path d="M16.7674 41H18.1674V40.3577L17.6805 39.9388L16.7674 41ZM7.04333 32.6331L6.13021 33.6944L6.13021 33.6944L7.04333 32.6331ZM7.15555 27.9931L8.0163 29.0972L8.0163 29.0972L7.15555 27.9931ZM16.7674 20.5L17.6281 21.6041L18.1674 21.1838V20.5H16.7674ZM25.7674 2V0.6V2ZM247.035 2V3.4V2ZM17.6805 39.9388L7.95644 31.5719L6.13021 33.6944L15.8542 42.0612L17.6805 39.9388ZM8.0163 29.0972L17.6281 21.6041L15.9066 19.3959L6.2948 26.8889L8.0163 29.0972ZM7.95644 31.5719C7.19073 30.9131 7.21963 29.7183 8.0163 29.0972L6.2948 26.8889C4.10396 28.5968 4.02449 31.8825 6.13021 33.6944L7.95644 31.5719ZM25.7674 3.4L247.035 3.4L247.035 0.600003L25.7674 0.6L25.7674 3.4ZM254.635 11V49H257.435V11H254.635ZM247.035 56.6L25.7674 56.6V59.4L247.035 59.4V56.6ZM18.1674 20.5V11H15.3674V20.5H18.1674ZM18.1674 49V41H15.3674V49H18.1674ZM25.7674 56.6C21.57 56.6 18.1674 53.1974 18.1674 49H15.3674C15.3674 54.7438 20.0236 59.4 25.7674 59.4V56.6ZM254.635 49C254.635 53.1974 251.232 56.6 247.035 56.6V59.4C252.778 59.4 257.435 54.7438 257.435 49H254.635ZM247.035 3.4C251.232 3.4 254.635 6.80264 254.635 11H257.435C257.435 5.25624 252.778 0.600003 247.035 0.600003V3.4ZM25.7674 0.6C20.0236 0.6 15.3674 5.25624 15.3674 11H18.1674C18.1674 6.80264 21.57 3.4 25.7674 3.4V0.6Z" fill="#333333" mask="url(#path-1-inside-1_7088_5721)"/>
</g>
<g filter="url(#filter1_d_7088_5721)">
<path d="M29.8834 25.5029V15.4549H31.1314V25.5029H29.8834ZM38.9006 25.5029V16.6709C38.9006 16.1643 38.9966 15.7509 39.1886 15.4309C39.3859 15.1056 39.6473 14.8656 39.9726 14.7109C40.3033 14.5563 40.6713 14.4789 41.0766 14.4789C41.2953 14.4789 41.5166 14.4949 41.7406 14.5269C41.9699 14.5589 42.1966 14.6069 42.4206 14.6709L42.1806 15.6629C42.0206 15.5989 41.8606 15.5509 41.7006 15.5189C41.5459 15.4869 41.3966 15.4709 41.2526 15.4709C41.0819 15.4709 40.9113 15.5029 40.7406 15.5669C40.5699 15.6309 40.4286 15.7509 40.3166 15.9269C40.2046 16.1029 40.1486 16.3563 40.1486 16.6869V25.5029H38.9006ZM37.6526 18.7189V17.8549H41.7326V18.7189H37.6526ZM46.897 25.6949C46.209 25.6949 45.5957 25.5429 45.057 25.2389C44.5237 24.9349 44.1023 24.4843 43.793 23.8869C43.4837 23.2896 43.329 22.5536 43.329 21.6789C43.329 20.7989 43.4837 20.0629 43.793 19.4709C44.1023 18.8736 44.5237 18.4229 45.057 18.1189C45.5957 17.8149 46.209 17.6629 46.897 17.6629C47.5797 17.6629 48.1877 17.8149 48.721 18.1189C49.2597 18.4229 49.681 18.8736 49.985 19.4709C50.2943 20.0629 50.449 20.7989 50.449 21.6789C50.449 22.5536 50.2943 23.2896 49.985 23.8869C49.681 24.4843 49.2597 24.9349 48.721 25.2389C48.1877 25.5429 47.5797 25.6949 46.897 25.6949ZM46.865 24.6069C47.361 24.6069 47.7823 24.4896 48.129 24.2549C48.4757 24.0149 48.737 23.6763 48.913 23.2389C49.0943 22.8016 49.185 22.2816 49.185 21.6789C49.185 20.7669 48.9957 20.0496 48.617 19.5269C48.2383 18.9989 47.6757 18.7349 46.929 18.7349C46.4277 18.7349 46.0037 18.8549 45.657 19.0949C45.3157 19.3296 45.0543 19.6683 44.873 20.1109C44.697 20.5483 44.609 21.0709 44.609 21.6789C44.609 22.5803 44.7983 23.2949 45.177 23.8229C45.561 24.3456 46.1237 24.6069 46.865 24.6069ZM58.239 17.8389H59.487V25.5029H58.239V17.8389ZM52.815 17.8389H54.063V22.6069C54.063 23.2469 54.2177 23.7323 54.527 24.0629C54.8417 24.3936 55.2897 24.5589 55.871 24.5589C56.351 24.5589 56.767 24.4309 57.119 24.1749C57.4763 23.9189 57.751 23.5669 57.943 23.1189C58.1403 22.6656 58.239 22.1483 58.239 21.5669H58.703C58.703 22.4256 58.5777 23.1589 58.327 23.7669C58.0817 24.3749 57.7323 24.8416 57.279 25.1669C56.831 25.4869 56.303 25.6469 55.695 25.6469C55.119 25.6469 54.615 25.5403 54.183 25.3269C53.751 25.1136 53.415 24.7909 53.175 24.3589C52.935 23.9216 52.815 23.3696 52.815 22.7029V17.8389ZM68.3265 25.5029V21.0069C68.3265 20.2763 68.1505 19.7216 67.7985 19.3429C67.4518 18.9589 66.9772 18.7669 66.3745 18.7669C65.9158 18.7669 65.5185 18.8923 65.1825 19.1429C64.8465 19.3936 64.5878 19.7536 64.4065 20.2229C64.2252 20.6869 64.1345 21.2416 64.1345 21.8869H63.6545C63.6545 20.9963 63.7718 20.2363 64.0065 19.6069C64.2412 18.9776 64.5825 18.4976 65.0305 18.1669C65.4838 17.8309 66.0332 17.6629 66.6785 17.6629C67.2812 17.6629 67.7958 17.7989 68.2225 18.0709C68.6545 18.3376 68.9852 18.7216 69.2145 19.2229C69.4438 19.7243 69.5585 20.3189 69.5585 21.0069V25.5029H68.3265ZM62.8865 25.5029V17.8549H63.9585L64.1345 19.6149V25.5029H62.8865ZM75.4387 25.6949C74.8201 25.6949 74.2521 25.5296 73.7347 25.1989C73.2174 24.8629 72.8041 24.3936 72.4947 23.7909C72.1854 23.1829 72.0307 22.4683 72.0307 21.6469C72.0307 20.8309 72.1827 20.1243 72.4867 19.5269C72.7907 18.9296 73.1934 18.4709 73.6947 18.1509C74.2014 17.8256 74.7561 17.6629 75.3587 17.6629C75.9187 17.6629 76.4094 17.7989 76.8307 18.0709C77.2574 18.3429 77.5881 18.7349 77.8227 19.2469C78.0574 19.7589 78.1747 20.3776 78.1747 21.1029H77.6947C77.6947 20.5963 77.5934 20.1696 77.3907 19.8229C77.1934 19.4763 76.9347 19.2149 76.6147 19.0389C76.2947 18.8576 75.9507 18.7669 75.5827 18.7669C75.1667 18.7669 74.7854 18.8843 74.4387 19.1189C74.0974 19.3483 73.8227 19.6789 73.6147 20.1109C73.4121 20.5376 73.3107 21.0496 73.3107 21.6469C73.3107 22.2549 73.4121 22.7776 73.6147 23.2149C73.8227 23.6523 74.0974 23.9883 74.4387 24.2229C74.7854 24.4576 75.1667 24.5749 75.5827 24.5749C75.9294 24.5749 76.2627 24.4843 76.5827 24.3029C76.9081 24.1216 77.1747 23.8576 77.3827 23.5109C77.5907 23.1589 77.6947 22.7349 77.6947 22.2389H78.1747C78.1747 22.9803 78.0521 23.6096 77.8067 24.1269C77.5667 24.6389 77.2387 25.0283 76.8227 25.2949C76.4121 25.5616 75.9507 25.6949 75.4387 25.6949ZM77.9027 25.5029L77.6947 23.7109V14.5909H78.9427V25.5029H77.9027ZM89.056 25.6949C88.3147 25.6949 87.696 25.5909 87.2 25.3829C86.704 25.1696 86.328 24.8789 86.072 24.5109C85.816 24.1376 85.68 23.7109 85.664 23.2309H86.864C86.8907 23.7163 87.0853 24.0816 87.448 24.3269C87.816 24.5669 88.3147 24.6869 88.944 24.6869C89.2747 24.6869 89.5787 24.6336 89.856 24.5269C90.1333 24.4203 90.3547 24.2736 90.52 24.0869C90.6853 23.9003 90.768 23.6896 90.768 23.4549C90.768 23.1563 90.6587 22.9216 90.44 22.7509C90.2213 22.5803 89.872 22.4309 89.392 22.3029L87.904 21.8229C87.2587 21.6203 86.7627 21.3429 86.416 20.9909C86.0747 20.6336 85.904 20.2069 85.904 19.7109C85.904 19.0923 86.176 18.5963 86.72 18.2229C87.264 17.8496 87.9787 17.6629 88.864 17.6629C89.8027 17.6629 90.5307 17.8549 91.048 18.2389C91.5653 18.6229 91.8347 19.1029 91.856 19.6789H90.624C90.576 19.3429 90.4053 19.0896 90.112 18.9189C89.8187 18.7429 89.4027 18.6549 88.864 18.6549C88.3467 18.6549 87.9413 18.7723 87.648 19.0069C87.36 19.2363 87.216 19.4923 87.216 19.7749C87.216 20.3029 87.6693 20.6923 88.576 20.9429L90.096 21.4549C90.752 21.6523 91.2533 21.9109 91.6 22.2309C91.952 22.5509 92.128 22.9589 92.128 23.4549C92.128 23.8389 92.0027 24.2016 91.752 24.5429C91.5013 24.8843 91.1467 25.1616 90.688 25.3749C90.2293 25.5883 89.6853 25.6949 89.056 25.6949ZM97.6382 25.6949C96.9502 25.6949 96.3369 25.5429 95.7982 25.2389C95.2649 24.9349 94.8436 24.4843 94.5342 23.8869C94.2249 23.2896 94.0702 22.5536 94.0702 21.6789C94.0702 20.7989 94.2249 20.0629 94.5342 19.4709C94.8436 18.8736 95.2649 18.4229 95.7982 18.1189C96.3369 17.8149 96.9502 17.6629 97.6382 17.6629C98.3209 17.6629 98.9289 17.8149 99.4622 18.1189C100.001 18.4229 100.422 18.8736 100.726 19.4709C101.036 20.0629 101.19 20.7989 101.19 21.6789C101.19 22.5536 101.036 23.2896 100.726 23.8869C100.422 24.4843 100.001 24.9349 99.4622 25.2389C98.9289 25.5429 98.3209 25.6949 97.6382 25.6949ZM97.6062 24.6069C98.1022 24.6069 98.5236 24.4896 98.8702 24.2549C99.2169 24.0149 99.4782 23.6763 99.6542 23.2389C99.8356 22.8016 99.9262 22.2816 99.9262 21.6789C99.9262 20.7669 99.7369 20.0496 99.3582 19.5269C98.9796 18.9989 98.4169 18.7349 97.6702 18.7349C97.1689 18.7349 96.7449 18.8549 96.3982 19.0949C96.0569 19.3296 95.7956 19.6683 95.6142 20.1109C95.4382 20.5483 95.3502 21.0709 95.3502 21.6789C95.3502 22.5803 95.5396 23.2949 95.9182 23.8229C96.3022 24.3456 96.8649 24.6069 97.6062 24.6069ZM114.532 25.5029V21.0069C114.532 20.2763 114.356 19.7216 114.004 19.3429C113.658 18.9589 113.188 18.7669 112.596 18.7669C111.903 18.7669 111.372 19.0363 111.004 19.5749C110.636 20.1083 110.452 20.8469 110.452 21.7909H109.876C109.876 21.1029 109.943 20.5003 110.076 19.9829C110.215 19.4656 110.415 19.0363 110.676 18.6949C110.938 18.3483 111.255 18.0896 111.628 17.9189C112.002 17.7483 112.426 17.6629 112.9 17.6629C113.503 17.6629 114.018 17.7989 114.444 18.0709C114.876 18.3376 115.207 18.7216 115.436 19.2229C115.666 19.7243 115.78 20.3189 115.78 21.0069V25.5029H114.532ZM103.78 25.5029V17.8549H104.852L104.996 19.3909C105.236 18.8363 105.572 18.4096 106.004 18.1109C106.442 17.8123 106.964 17.6629 107.572 17.6629C108.175 17.6629 108.69 17.7989 109.116 18.0709C109.548 18.3376 109.879 18.7216 110.108 19.2229C110.338 19.7243 110.452 20.3189 110.452 21.0069V25.5029H109.22V21.0069C109.22 20.2763 109.044 19.7216 108.692 19.3429C108.346 18.9589 107.871 18.7669 107.268 18.7669C106.81 18.7669 106.412 18.8923 106.076 19.1429C105.74 19.3936 105.482 19.7536 105.3 20.2229C105.119 20.6869 105.028 21.2416 105.028 21.8869V25.5029H103.78ZM121.565 25.6949C120.904 25.6949 120.312 25.5269 119.789 25.1909C119.272 24.8496 118.861 24.3776 118.557 23.7749C118.258 23.1723 118.109 22.4789 118.109 21.6949C118.109 20.8576 118.258 20.1376 118.557 19.5349C118.856 18.9323 119.264 18.4709 119.781 18.1509C120.304 17.8256 120.898 17.6629 121.565 17.6629C122.146 17.6629 122.642 17.7803 123.053 18.0149C123.464 18.2496 123.794 18.5669 124.045 18.9669C124.296 19.3669 124.469 19.8203 124.565 20.3269C124.666 20.8283 124.696 21.3483 124.653 21.8869H119.117V21.1189H123.829L123.461 21.3589C123.477 21.0443 123.458 20.7296 123.405 20.4149C123.357 20.1003 123.264 19.8123 123.125 19.5509C122.986 19.2843 122.792 19.0709 122.541 18.9109C122.29 18.7509 121.97 18.6709 121.581 18.6709C121.09 18.6709 120.68 18.7963 120.349 19.0469C120.018 19.2976 119.77 19.6283 119.605 20.0389C119.44 20.4443 119.357 20.8843 119.357 21.3589V21.8709C119.357 22.4043 119.437 22.8816 119.597 23.3029C119.762 23.7243 120.008 24.0576 120.333 24.3029C120.658 24.5483 121.069 24.6709 121.565 24.6709C122.061 24.6709 122.469 24.5509 122.789 24.3109C123.109 24.0709 123.304 23.7163 123.373 23.2469H124.669C124.589 23.7536 124.408 24.1909 124.125 24.5589C123.842 24.9216 123.482 25.2016 123.045 25.3989C122.608 25.5963 122.114 25.6949 121.565 25.6949ZM131.949 16.0469C131.693 16.0469 131.49 15.9749 131.341 15.8309C131.191 15.6816 131.117 15.4869 131.117 15.2469C131.117 15.0123 131.191 14.8256 131.341 14.6869C131.49 14.5483 131.693 14.4789 131.949 14.4789C132.205 14.4789 132.407 14.5483 132.557 14.6869C132.706 14.8256 132.781 15.0123 132.781 15.2469C132.781 15.4869 132.706 15.6816 132.557 15.8309C132.407 15.9749 132.205 16.0469 131.949 16.0469ZM131.325 25.5029V17.8389H132.573V25.5029H131.325ZM141.61 25.5029V21.0069C141.61 20.2763 141.434 19.7216 141.082 19.3429C140.736 18.9589 140.261 18.7669 139.658 18.7669C139.2 18.7669 138.802 18.8923 138.466 19.1429C138.13 19.3936 137.872 19.7536 137.69 20.2229C137.509 20.6869 137.418 21.2416 137.418 21.8869H136.938C136.938 20.9963 137.056 20.2363 137.29 19.6069C137.525 18.9776 137.866 18.4976 138.314 18.1669C138.768 17.8309 139.317 17.6629 139.962 17.6629C140.565 17.6629 141.08 17.7989 141.506 18.0709C141.938 18.3376 142.269 18.7216 142.498 19.2229C142.728 19.7243 142.842 20.3189 142.842 21.0069V25.5029H141.61ZM136.17 25.5029V17.8549H137.242L137.418 19.6149V25.5029H136.17ZM146.402 25.5029V16.6709C146.402 16.1643 146.498 15.7509 146.69 15.4309C146.888 15.1056 147.149 14.8656 147.474 14.7109C147.805 14.5563 148.173 14.4789 148.578 14.4789C148.797 14.4789 149.018 14.4949 149.242 14.5269C149.472 14.5589 149.698 14.6069 149.922 14.6709L149.682 15.6629C149.522 15.5989 149.362 15.5509 149.202 15.5189C149.048 15.4869 148.898 15.4709 148.754 15.4709C148.584 15.4709 148.413 15.5029 148.242 15.5669C148.072 15.6309 147.93 15.7509 147.818 15.9269C147.706 16.1029 147.65 16.3563 147.65 16.6869V25.5029H146.402ZM145.154 18.7189V17.8549H149.234V18.7189H145.154ZM154.399 25.6949C153.711 25.6949 153.098 25.5429 152.559 25.2389C152.026 24.9349 151.604 24.4843 151.295 23.8869C150.986 23.2896 150.831 22.5536 150.831 21.6789C150.831 20.7989 150.986 20.0629 151.295 19.4709C151.604 18.8736 152.026 18.4229 152.559 18.1189C153.098 17.8149 153.711 17.6629 154.399 17.6629C155.082 17.6629 155.69 17.8149 156.223 18.1189C156.762 18.4229 157.183 18.8736 157.487 19.4709C157.796 20.0629 157.951 20.7989 157.951 21.6789C157.951 22.5536 157.796 23.2896 157.487 23.8869C157.183 24.4843 156.762 24.9349 156.223 25.2389C155.69 25.5429 155.082 25.6949 154.399 25.6949ZM154.367 24.6069C154.863 24.6069 155.284 24.4896 155.631 24.2549C155.978 24.0149 156.239 23.6763 156.415 23.2389C156.596 22.8016 156.687 22.2816 156.687 21.6789C156.687 20.7669 156.498 20.0496 156.119 19.5269C155.74 18.9989 155.178 18.7349 154.431 18.7349C153.93 18.7349 153.506 18.8549 153.159 19.0949C152.818 19.3296 152.556 19.6683 152.375 20.1109C152.199 20.5483 152.111 21.0709 152.111 21.6789C152.111 22.5803 152.3 23.2949 152.679 23.8229C153.063 24.3456 153.626 24.6069 154.367 24.6069ZM160.541 25.5029V17.8389H161.789V25.5029H160.541ZM161.405 22.0469C161.405 21.0763 161.498 20.2709 161.685 19.6309C161.872 18.9856 162.144 18.5056 162.501 18.1909C162.864 17.8709 163.304 17.7109 163.821 17.7109C163.992 17.7109 164.146 17.7243 164.285 17.7509C164.429 17.7723 164.573 17.8069 164.717 17.8549L164.637 19.0869C164.488 19.0389 164.325 18.9989 164.149 18.9669C163.973 18.9296 163.816 18.9109 163.677 18.9109C163.224 18.9109 162.858 19.0416 162.581 19.3029C162.304 19.5589 162.101 19.9216 161.973 20.3909C161.85 20.8603 161.789 21.4123 161.789 22.0469H161.405ZM177.234 25.5029V21.0069C177.234 20.2763 177.058 19.7216 176.706 19.3429C176.359 18.9589 175.89 18.7669 175.298 18.7669C174.605 18.7669 174.074 19.0363 173.706 19.5749C173.338 20.1083 173.154 20.8469 173.154 21.7909H172.578C172.578 21.1029 172.645 20.5003 172.778 19.9829C172.917 19.4656 173.117 19.0363 173.378 18.6949C173.639 18.3483 173.957 18.0896 174.33 17.9189C174.703 17.7483 175.127 17.6629 175.602 17.6629C176.205 17.6629 176.719 17.7989 177.146 18.0709C177.578 18.3376 177.909 18.7216 178.138 19.2229C178.367 19.7243 178.482 20.3189 178.482 21.0069V25.5029H177.234ZM166.482 25.5029V17.8549H167.554L167.698 19.3909C167.938 18.8363 168.274 18.4096 168.706 18.1109C169.143 17.8123 169.666 17.6629 170.274 17.6629C170.877 17.6629 171.391 17.7989 171.818 18.0709C172.25 18.3376 172.581 18.7216 172.81 19.2229C173.039 19.7243 173.154 20.3189 173.154 21.0069V25.5029H171.922V21.0069C171.922 20.2763 171.746 19.7216 171.394 19.3429C171.047 18.9589 170.573 18.7669 169.97 18.7669C169.511 18.7669 169.114 18.8923 168.778 19.1429C168.442 19.3936 168.183 19.7536 168.002 20.2229C167.821 20.6869 167.73 21.2416 167.73 21.8869V25.5029H166.482ZM186.347 25.5029L186.187 23.8229V20.5429C186.187 19.8549 186.04 19.3616 185.747 19.0629C185.454 18.7589 185.014 18.6069 184.427 18.6069C184.096 18.6069 183.795 18.6549 183.523 18.7509C183.256 18.8469 183.043 18.9963 182.883 19.1989C182.728 19.3963 182.651 19.6523 182.651 19.9669H181.259C181.259 19.4123 181.395 18.9669 181.667 18.6309C181.939 18.2896 182.312 18.0443 182.787 17.8949C183.267 17.7403 183.814 17.6629 184.427 17.6629C185.014 17.6629 185.534 17.7616 185.987 17.9589C186.44 18.1563 186.795 18.4709 187.051 18.9029C187.307 19.3296 187.435 19.8869 187.435 20.5749V25.5029H186.347ZM183.739 25.6949C183.11 25.6949 182.59 25.5829 182.179 25.3589C181.768 25.1349 181.462 24.8443 181.259 24.4869C181.056 24.1296 180.955 23.7536 180.955 23.3589C180.955 22.8416 181.083 22.4203 181.339 22.0949C181.6 21.7696 181.955 21.5323 182.403 21.3829C182.851 21.2283 183.355 21.1509 183.915 21.1509C184.315 21.1509 184.715 21.1909 185.115 21.2709C185.52 21.3509 185.915 21.4603 186.299 21.5989V22.3829C185.979 22.2549 185.616 22.1536 185.211 22.0789C184.811 22.0043 184.443 21.9669 184.107 21.9669C183.595 21.9669 183.163 22.0736 182.811 22.2869C182.459 22.4949 182.283 22.8523 182.283 23.3589C182.283 23.7323 182.416 24.0523 182.683 24.3189C182.955 24.5856 183.387 24.7189 183.979 24.7189C184.395 24.7189 184.768 24.6229 185.099 24.4309C185.435 24.2336 185.699 23.9883 185.891 23.6949C186.088 23.4016 186.187 23.1083 186.187 22.8149H186.491C186.491 23.3269 186.379 23.8016 186.155 24.2389C185.936 24.6763 185.622 25.0283 185.211 25.2949C184.8 25.5616 184.31 25.6949 183.739 25.6949ZM192.935 25.6949C192.519 25.6949 192.146 25.6149 191.815 25.4549C191.485 25.2949 191.223 25.0549 191.031 24.7349C190.839 24.4149 190.743 24.0149 190.743 23.5349V15.7269H191.975V23.5029C191.975 24.2923 192.343 24.6869 193.079 24.6869C193.298 24.6869 193.509 24.6629 193.711 24.6149C193.919 24.5669 194.151 24.4949 194.407 24.3989L194.583 25.2949C194.311 25.4123 194.039 25.5083 193.767 25.5829C193.501 25.6576 193.223 25.6949 192.935 25.6949ZM189.511 18.7189V17.8549H194.391V18.7189H189.511ZM197.463 16.0469C197.207 16.0469 197.004 15.9749 196.855 15.8309C196.706 15.6816 196.631 15.4869 196.631 15.2469C196.631 15.0123 196.706 14.8256 196.855 14.6869C197.004 14.5483 197.207 14.4789 197.463 14.4789C197.719 14.4789 197.922 14.5483 198.071 14.6869C198.22 14.8256 198.295 15.0123 198.295 15.2469C198.295 15.4869 198.22 15.6816 198.071 15.8309C197.922 15.9749 197.719 16.0469 197.463 16.0469ZM196.839 25.5029V17.8389H198.087V25.5029H196.839ZM204.453 25.6949C203.765 25.6949 203.151 25.5429 202.613 25.2389C202.079 24.9349 201.658 24.4843 201.349 23.8869C201.039 23.2896 200.885 22.5536 200.885 21.6789C200.885 20.7989 201.039 20.0629 201.349 19.4709C201.658 18.8736 202.079 18.4229 202.613 18.1189C203.151 17.8149 203.765 17.6629 204.453 17.6629C205.135 17.6629 205.743 17.8149 206.277 18.1189C206.815 18.4229 207.237 18.8736 207.541 19.4709C207.85 20.0629 208.005 20.7989 208.005 21.6789C208.005 22.5536 207.85 23.2896 207.541 23.8869C207.237 24.4843 206.815 24.9349 206.277 25.2389C205.743 25.5429 205.135 25.6949 204.453 25.6949ZM204.421 24.6069C204.917 24.6069 205.338 24.4896 205.685 24.2549C206.031 24.0149 206.293 23.6763 206.469 23.2389C206.65 22.8016 206.741 22.2816 206.741 21.6789C206.741 20.7669 206.551 20.0496 206.173 19.5269C205.794 18.9989 205.231 18.7349 204.485 18.7349C203.983 18.7349 203.559 18.8549 203.213 19.0949C202.871 19.3296 202.61 19.6683 202.429 20.1109C202.253 20.5483 202.165 21.0709 202.165 21.6789C202.165 22.5803 202.354 23.2949 202.733 23.8229C203.117 24.3456 203.679 24.6069 204.421 24.6069ZM216.035 25.5029V21.0069C216.035 20.2763 215.859 19.7216 215.507 19.3429C215.16 18.9589 214.685 18.7669 214.083 18.7669C213.624 18.7669 213.227 18.8923 212.891 19.1429C212.555 19.3936 212.296 19.7536 212.115 20.2229C211.933 20.6869 211.843 21.2416 211.843 21.8869H211.363C211.363 20.9963 211.48 20.2363 211.715 19.6069C211.949 18.9776 212.291 18.4976 212.739 18.1669C213.192 17.8309 213.741 17.6629 214.387 17.6629C214.989 17.6629 215.504 17.7989 215.931 18.0709C216.363 18.3376 216.693 18.7216 216.923 19.2229C217.152 19.7243 217.267 20.3189 217.267 21.0069V25.5029H216.035ZM210.595 25.5029V17.8549H211.667L211.843 19.6149V25.5029H210.595ZM34.6194 45.5029L34.4594 43.8229V40.5429C34.4594 39.8549 34.3127 39.3616 34.0194 39.0629C33.726 38.7589 33.286 38.6069 32.6994 38.6069C32.3687 38.6069 32.0674 38.6549 31.7954 38.7509C31.5287 38.8469 31.3154 38.9963 31.1554 39.1989C31.0007 39.3963 30.9234 39.6523 30.9234 39.9669H29.5314C29.5314 39.4123 29.6674 38.9669 29.9394 38.6309C30.2114 38.2896 30.5847 38.0443 31.0594 37.8949C31.5394 37.7403 32.086 37.6629 32.6994 37.6629C33.286 37.6629 33.806 37.7616 34.2594 37.9589C34.7127 38.1563 35.0674 38.4709 35.3234 38.9029C35.5794 39.3296 35.7074 39.8869 35.7074 40.5749V45.5029H34.6194ZM32.0114 45.6949C31.382 45.6949 30.862 45.5829 30.4514 45.3589C30.0407 45.1349 29.734 44.8443 29.5314 44.4869C29.3287 44.1296 29.2274 43.7536 29.2274 43.3589C29.2274 42.8416 29.3554 42.4203 29.6114 42.0949C29.8727 41.7696 30.2274 41.5323 30.6754 41.3829C31.1234 41.2283 31.6274 41.1509 32.1874 41.1509C32.5874 41.1509 32.9874 41.1909 33.3874 41.2709C33.7927 41.3509 34.1874 41.4603 34.5714 41.5989V42.3829C34.2514 42.2549 33.8887 42.1536 33.4834 42.0789C33.0834 42.0043 32.7154 41.9669 32.3794 41.9669C31.8674 41.9669 31.4354 42.0736 31.0834 42.2869C30.7314 42.4949 30.5554 42.8523 30.5554 43.3589C30.5554 43.7323 30.6887 44.0523 30.9554 44.3189C31.2274 44.5856 31.6594 44.7189 32.2514 44.7189C32.6674 44.7189 33.0407 44.6229 33.3714 44.4309C33.7074 44.2336 33.9714 43.9883 34.1634 43.6949C34.3607 43.4016 34.4594 43.1083 34.4594 42.8149H34.7634C34.7634 43.3269 34.6514 43.8016 34.4274 44.2389C34.2087 44.6763 33.894 45.0283 33.4834 45.2949C33.0727 45.5616 32.582 45.6949 32.0114 45.6949ZM42.3599 45.6949C41.8479 45.6949 41.3839 45.5616 40.9679 45.2949C40.5572 45.0283 40.2292 44.6389 39.9839 44.1269C39.7439 43.6096 39.6239 42.9803 39.6239 42.2389H40.1039C40.1039 42.7349 40.2052 43.1589 40.4079 43.5109C40.6159 43.8576 40.8825 44.1216 41.2079 44.3029C41.5332 44.4843 41.8745 44.5749 42.2319 44.5749C42.6425 44.5749 43.0185 44.4576 43.3599 44.2229C43.7012 43.9883 43.9732 43.6523 44.1759 43.2149C44.3839 42.7776 44.4879 42.2549 44.4879 41.6469C44.4879 41.0496 44.3865 40.5376 44.1839 40.1109C43.9812 39.6789 43.7065 39.3483 43.3599 39.1189C43.0185 38.8843 42.6372 38.7669 42.2159 38.7669C41.8532 38.7669 41.5092 38.8576 41.1839 39.0389C40.8639 39.2149 40.6025 39.4763 40.3999 39.8229C40.2025 40.1696 40.1039 40.5963 40.1039 41.1029H39.6239C39.6239 40.3776 39.7412 39.7589 39.9759 39.2469C40.2159 38.7349 40.5465 38.3429 40.9679 38.0709C41.3892 37.7989 41.8799 37.6629 42.4399 37.6629C43.0425 37.6629 43.5945 37.8256 44.0959 38.1509C44.6025 38.4709 45.0079 38.9296 45.3119 39.5269C45.6159 40.1243 45.7679 40.8309 45.7679 41.6469C45.7679 42.4683 45.6132 43.1829 45.3039 43.7909C44.9945 44.3936 44.5812 44.8629 44.0639 45.1989C43.5465 45.5296 42.9785 45.6949 42.3599 45.6949ZM38.8559 45.5029V34.5909H40.1039V43.7109L39.7359 45.5029H38.8559ZM51.2682 45.6949C50.5802 45.6949 49.9669 45.5429 49.4282 45.2389C48.8949 44.9349 48.4736 44.4843 48.1642 43.8869C47.8549 43.2896 47.7002 42.5536 47.7002 41.6789C47.7002 40.7989 47.8549 40.0629 48.1642 39.4709C48.4736 38.8736 48.8949 38.4229 49.4282 38.1189C49.9669 37.8149 50.5802 37.6629 51.2682 37.6629C51.9509 37.6629 52.5589 37.8149 53.0922 38.1189C53.6309 38.4229 54.0522 38.8736 54.3562 39.4709C54.6656 40.0629 54.8202 40.7989 54.8202 41.6789C54.8202 42.5536 54.6656 43.2896 54.3562 43.8869C54.0522 44.4843 53.6309 44.9349 53.0922 45.2389C52.5589 45.5429 51.9509 45.6949 51.2682 45.6949ZM51.2362 44.6069C51.7322 44.6069 52.1536 44.4896 52.5002 44.2549C52.8469 44.0149 53.1082 43.6763 53.2842 43.2389C53.4656 42.8016 53.5562 42.2816 53.5562 41.6789C53.5562 40.7669 53.3669 40.0496 52.9882 39.5269C52.6096 38.9989 52.0469 38.7349 51.3002 38.7349C50.7989 38.7349 50.3749 38.8549 50.0282 39.0949C49.6869 39.3296 49.4256 39.6683 49.2442 40.1109C49.0682 40.5483 48.9802 41.0709 48.9802 41.6789C48.9802 42.5803 49.1696 43.2949 49.5482 43.8229C49.9322 44.3456 50.4949 44.6069 51.2362 44.6069ZM62.6102 37.8389H63.8582V45.5029H62.6102V37.8389ZM57.1862 37.8389H58.4342V42.6069C58.4342 43.2469 58.5889 43.7323 58.8982 44.0629C59.2129 44.3936 59.6609 44.5589 60.2422 44.5589C60.7222 44.5589 61.1382 44.4309 61.4902 44.1749C61.8476 43.9189 62.1222 43.5669 62.3142 43.1189C62.5116 42.6656 62.6102 42.1483 62.6102 41.5669H63.0742C63.0742 42.4256 62.9489 43.1589 62.6982 43.7669C62.4529 44.3749 62.1036 44.8416 61.6502 45.1669C61.2022 45.4869 60.6742 45.6469 60.0662 45.6469C59.4902 45.6469 58.9862 45.5403 58.5542 45.3269C58.1222 45.1136 57.7862 44.7909 57.5462 44.3589C57.3062 43.9216 57.1862 43.3696 57.1862 42.7029V37.8389ZM69.6097 45.6949C69.1937 45.6949 68.8204 45.6149 68.4897 45.4549C68.1591 45.2949 67.8977 45.0549 67.7057 44.7349C67.5137 44.4149 67.4177 44.0149 67.4177 43.5349V35.7269H68.6497V43.5029C68.6497 44.2923 69.0177 44.6869 69.7537 44.6869C69.9724 44.6869 70.1831 44.6629 70.3857 44.6149C70.5937 44.5669 70.8257 44.4949 71.0817 44.3989L71.2577 45.2949C70.9857 45.4123 70.7137 45.5083 70.4417 45.5829C70.1751 45.6576 69.8977 45.6949 69.6097 45.6949ZM66.1857 38.7189V37.8549H71.0657V38.7189H66.1857ZM77.2622 45.5029V35.1189H81.1022C82.3449 35.1189 83.2969 35.4096 83.9582 35.9909C84.6249 36.5723 84.9582 37.3429 84.9582 38.3029C84.9582 39.2469 84.6249 40.0096 83.9582 40.5909C83.2969 41.1669 82.3449 41.4549 81.1022 41.4549H79.1502V45.5029H77.2622ZM82.8782 45.5029L80.1262 40.6389H82.1422L85.3422 45.5029H82.8782ZM79.1502 40.1909H80.9102C81.6036 40.1909 82.1289 40.0336 82.4862 39.7189C82.8436 39.3989 83.0222 38.9856 83.0222 38.4789C83.0222 37.9616 82.8596 37.5456 82.5342 37.2309C82.2089 36.9109 81.7316 36.7509 81.1022 36.7509H79.1502V40.1909ZM87.7031 45.5029V35.1189H94.3751V36.7509H89.5911V39.4869H94.0871V41.1189H89.5911V43.8549H94.3751V45.5029H87.7031ZM97.2697 35.1189H99.9737L102.902 41.4709H102.742L105.67 35.1189H108.278V45.5029H106.374V37.2949H106.662L103.43 44.3669H102.198L98.9817 37.3269H99.1577V45.5029H97.2697V35.1189ZM111.398 45.5029V35.1189H118.07V36.7509H113.286V39.4869H117.782V41.1189H113.286V43.8549H118.07V45.5029H111.398ZM120.965 35.1189H124.325C125.381 35.1189 126.306 35.3323 127.101 35.7589C127.895 36.1803 128.514 36.7803 128.957 37.5589C129.399 38.3376 129.621 39.2576 129.621 40.3189C129.621 41.3696 129.399 42.2843 128.957 43.0629C128.514 43.8363 127.895 44.4363 127.101 44.8629C126.306 45.2896 125.381 45.5029 124.325 45.5029H120.965V35.1189ZM122.853 36.8309V43.8069H124.325C124.997 43.8069 125.575 43.6549 126.061 43.3509C126.551 43.0469 126.927 42.6336 127.189 42.1109C127.455 41.5829 127.589 40.9856 127.589 40.3189C127.589 39.6416 127.455 39.0416 127.189 38.5189C126.927 37.9963 126.551 37.5856 126.061 37.2869C125.575 36.9829 124.997 36.8309 124.325 36.8309H122.853ZM132.109 45.5029V35.1189H133.997V45.5029H132.109ZM137.128 45.5029V35.1189H143.8V36.7509H139.016V39.4869H143.512V41.1189H139.016V43.8549H143.8V45.5029H137.128ZM150.311 45.7269C149.591 45.7269 148.927 45.6016 148.319 45.3509C147.716 45.1003 147.225 44.7189 146.847 44.2069C146.473 43.6949 146.273 43.0443 146.247 42.2549H148.103C148.103 42.6549 148.201 42.9829 148.399 43.2389C148.596 43.4949 148.86 43.6869 149.191 43.8149C149.527 43.9376 149.895 43.9989 150.295 43.9989C150.679 43.9989 151.02 43.9483 151.319 43.8469C151.623 43.7456 151.86 43.6016 152.031 43.4149C152.207 43.2229 152.295 42.9963 152.295 42.7349C152.295 42.3883 152.188 42.1163 151.975 41.9189C151.767 41.7216 151.431 41.5403 150.967 41.3749L148.919 40.5589C148.119 40.2443 147.505 39.8789 147.079 39.4629C146.652 39.0469 146.439 38.4736 146.439 37.7429C146.439 36.9003 146.772 36.2176 147.439 35.6949C148.105 35.1723 149.036 34.9109 150.231 34.9109C151.393 34.9109 152.292 35.1829 152.927 35.7269C153.561 36.2656 153.921 37.0176 154.007 37.9829H152.151C152.081 37.5723 151.895 37.2443 151.591 36.9989C151.287 36.7483 150.833 36.6229 150.231 36.6229C149.697 36.6229 149.276 36.7349 148.967 36.9589C148.657 37.1776 148.503 37.4549 148.503 37.7909C148.503 38.0789 148.599 38.3083 148.791 38.4789C148.988 38.6443 149.292 38.8043 149.703 38.9589L151.975 39.8389C152.743 40.1376 153.332 40.5136 153.743 40.9669C154.153 41.4203 154.359 41.9883 154.359 42.6709C154.359 43.2949 154.201 43.8363 153.887 44.2949C153.572 44.7483 153.113 45.1003 152.511 45.3509C151.908 45.6016 151.175 45.7269 150.311 45.7269ZM161.847 36.0469C161.591 36.0469 161.388 35.9749 161.239 35.8309C161.089 35.6816 161.015 35.4869 161.015 35.2469C161.015 35.0123 161.089 34.8256 161.239 34.6869C161.388 34.5483 161.591 34.4789 161.847 34.4789C162.103 34.4789 162.305 34.5483 162.455 34.6869C162.604 34.8256 162.679 35.0123 162.679 35.2469C162.679 35.4869 162.604 35.6816 162.455 35.8309C162.305 35.9749 162.103 36.0469 161.847 36.0469ZM161.223 45.5029V37.8389H162.471V45.5029H161.223ZM171.508 45.5029V41.0069C171.508 40.2763 171.332 39.7216 170.98 39.3429C170.634 38.9589 170.159 38.7669 169.556 38.7669C169.098 38.7669 168.7 38.8923 168.364 39.1429C168.028 39.3936 167.77 39.7536 167.588 40.2229C167.407 40.6869 167.316 41.2416 167.316 41.8869H166.836C166.836 40.9963 166.954 40.2363 167.188 39.6069C167.423 38.9776 167.764 38.4976 168.212 38.1669C168.666 37.8309 169.215 37.6629 169.86 37.6629C170.463 37.6629 170.978 37.7989 171.404 38.0709C171.836 38.3376 172.167 38.7216 172.396 39.2229C172.626 39.7243 172.74 40.3189 172.74 41.0069V45.5029H171.508ZM166.068 45.5029V37.8549H167.14L167.316 39.6149V45.5029H166.068ZM182.193 45.6949C181.777 45.6949 181.404 45.6149 181.073 45.4549C180.743 45.2949 180.481 45.0549 180.289 44.7349C180.097 44.4149 180.001 44.0149 180.001 43.5349V35.7269H181.233V43.5029C181.233 44.2923 181.601 44.6869 182.337 44.6869C182.556 44.6869 182.767 44.6629 182.969 44.6149C183.177 44.5669 183.409 44.4949 183.665 44.3989L183.841 45.2949C183.569 45.4123 183.297 45.5083 183.025 45.5829C182.759 45.6576 182.481 45.6949 182.193 45.6949ZM178.769 38.7189V37.8549H183.649V38.7189H178.769ZM191.457 45.5029V41.0069C191.457 40.2763 191.281 39.7216 190.929 39.3429C190.582 38.9589 190.108 38.7669 189.505 38.7669C189.046 38.7669 188.649 38.8923 188.313 39.1429C187.977 39.3936 187.718 39.7536 187.537 40.2229C187.356 40.6869 187.265 41.2416 187.265 41.8869H186.785C186.785 40.9963 186.902 40.2363 187.137 39.6069C187.372 38.9776 187.713 38.4976 188.161 38.1669C188.614 37.8309 189.164 37.6629 189.809 37.6629C190.412 37.6629 190.926 37.7989 191.353 38.0709C191.785 38.3376 192.116 38.7216 192.345 39.2229C192.574 39.7243 192.689 40.3189 192.689 41.0069V45.5029H191.457ZM186.017 45.5029V34.5909H187.265V45.5029H186.017ZM196.537 36.0469C196.281 36.0469 196.079 35.9749 195.929 35.8309C195.78 35.6816 195.705 35.4869 195.705 35.2469C195.705 35.0123 195.78 34.8256 195.929 34.6869C196.079 34.5483 196.281 34.4789 196.537 34.4789C196.793 34.4789 196.996 34.5483 197.145 34.6869C197.295 34.8256 197.369 35.0123 197.369 35.2469C197.369 35.4869 197.295 35.6816 197.145 35.8309C196.996 35.9749 196.793 36.0469 196.537 36.0469ZM195.913 45.5029V37.8389H197.161V45.5029H195.913ZM203.511 45.6949C202.77 45.6949 202.151 45.5909 201.655 45.3829C201.159 45.1696 200.783 44.8789 200.527 44.5109C200.271 44.1376 200.135 43.7109 200.119 43.2309H201.319C201.346 43.7163 201.54 44.0816 201.903 44.3269C202.271 44.5669 202.77 44.6869 203.399 44.6869C203.73 44.6869 204.034 44.6336 204.311 44.5269C204.588 44.4203 204.81 44.2736 204.975 44.0869C205.14 43.9003 205.223 43.6896 205.223 43.4549C205.223 43.1563 205.114 42.9216 204.895 42.7509C204.676 42.5803 204.327 42.4309 203.847 42.3029L202.359 41.8229C201.714 41.6203 201.218 41.3429 200.871 40.9909C200.53 40.6336 200.359 40.2069 200.359 39.7109C200.359 39.0923 200.631 38.5963 201.175 38.2229C201.719 37.8496 202.434 37.6629 203.319 37.6629C204.258 37.6629 204.986 37.8549 205.503 38.2389C206.02 38.6229 206.29 39.1029 206.311 39.6789H205.079C205.031 39.3429 204.86 39.0896 204.567 38.9189C204.274 38.7429 203.858 38.6549 203.319 38.6549C202.802 38.6549 202.396 38.7723 202.103 39.0069C201.815 39.2363 201.671 39.4923 201.671 39.7749C201.671 40.3029 202.124 40.6923 203.031 40.9429L204.551 41.4549C205.207 41.6523 205.708 41.9109 206.055 42.2309C206.407 42.5509 206.583 42.9589 206.583 43.4549C206.583 43.8389 206.458 44.2016 206.207 44.5429C205.956 44.8843 205.602 45.1616 205.143 45.3749C204.684 45.5883 204.14 45.6949 203.511 45.6949ZM216.754 45.6949C216.194 45.6949 215.706 45.5669 215.29 45.3109C214.879 45.0549 214.562 44.6816 214.338 44.1909C214.114 43.6949 214.002 43.0923 214.002 42.3829H214.53C214.53 42.8576 214.629 43.2576 214.826 43.5829C215.023 43.9083 215.279 44.1563 215.594 44.3269C215.914 44.4923 216.253 44.5749 216.61 44.5749C216.994 44.5749 217.362 44.4656 217.714 44.2469C218.066 44.0229 218.354 43.6949 218.578 43.2629C218.802 42.8309 218.914 42.2976 218.914 41.6629C218.914 41.0549 218.81 40.5349 218.602 40.1029C218.399 39.6709 218.125 39.3403 217.778 39.1109C217.431 38.8816 217.047 38.7669 216.626 38.7669C216.263 38.7669 215.922 38.8549 215.602 39.0309C215.282 39.2069 215.023 39.4656 214.826 39.8069C214.629 40.1429 214.53 40.5589 214.53 41.0549H214.002C214.002 40.3136 214.125 39.6923 214.37 39.1909C214.615 38.6843 214.949 38.3029 215.37 38.0469C215.791 37.7909 216.263 37.6629 216.786 37.6629C217.383 37.6629 217.941 37.8229 218.458 38.1429C218.975 38.4629 219.394 38.9216 219.714 39.5189C220.034 40.1163 220.194 40.8309 220.194 41.6629C220.194 42.5056 220.031 43.2283 219.706 43.8309C219.386 44.4336 218.965 44.8949 218.442 45.2149C217.919 45.5349 217.357 45.6949 216.754 45.6949ZM213.282 49.2629V37.8549H214.322L214.53 39.6469V49.2629H213.282ZM227.537 45.5029L227.377 43.8229V40.5429C227.377 39.8549 227.231 39.3616 226.937 39.0629C226.644 38.7589 226.204 38.6069 225.617 38.6069C225.287 38.6069 224.985 38.6549 224.713 38.7509C224.447 38.8469 224.233 38.9963 224.073 39.1989C223.919 39.3963 223.841 39.6523 223.841 39.9669H222.449C222.449 39.4123 222.585 38.9669 222.857 38.6309C223.129 38.2896 223.503 38.0443 223.977 37.8949C224.457 37.7403 225.004 37.6629 225.617 37.6629C226.204 37.6629 226.724 37.7616 227.177 37.9589C227.631 38.1563 227.985 38.4709 228.241 38.9029C228.497 39.3296 228.625 39.8869 228.625 40.5749V45.5029H227.537ZM224.929 45.6949C224.3 45.6949 223.78 45.5829 223.369 45.3589C222.959 45.1349 222.652 44.8443 222.449 44.4869C222.247 44.1296 222.145 43.7536 222.145 43.3589C222.145 42.8416 222.273 42.4203 222.529 42.0949C222.791 41.7696 223.145 41.5323 223.593 41.3829C224.041 41.2283 224.545 41.1509 225.105 41.1509C225.505 41.1509 225.905 41.1909 226.305 41.2709C226.711 41.3509 227.105 41.4603 227.489 41.5989V42.3829C227.169 42.2549 226.807 42.1536 226.401 42.0789C226.001 42.0043 225.633 41.9669 225.297 41.9669C224.785 41.9669 224.353 42.0736 224.001 42.2869C223.649 42.4949 223.473 42.8523 223.473 43.3589C223.473 43.7323 223.607 44.0523 223.873 44.3189C224.145 44.5856 224.577 44.7189 225.169 44.7189C225.585 44.7189 225.959 44.6229 226.289 44.4309C226.625 44.2336 226.889 43.9883 227.081 43.6949C227.279 43.4016 227.377 43.1083 227.377 42.8149H227.681C227.681 43.3269 227.569 43.8016 227.345 44.2389C227.127 44.6763 226.812 45.0283 226.401 45.2949C225.991 45.5616 225.5 45.6949 224.929 45.6949ZM234.478 49.4389C233.694 49.4389 233.014 49.3269 232.438 49.1029C231.862 48.8843 231.414 48.5883 231.094 48.2149C230.779 47.8469 230.622 47.4389 230.622 46.9909C230.622 46.3989 230.838 45.9456 231.27 45.6309C231.707 45.3216 232.27 45.1669 232.958 45.1669L233.646 45.5989C233.07 45.5989 232.625 45.7189 232.31 45.9589C231.995 46.1989 231.838 46.5269 231.838 46.9429C231.838 47.3589 232.062 47.7109 232.51 47.9989C232.958 48.2869 233.614 48.4309 234.478 48.4309C235.118 48.4309 235.678 48.3376 236.158 48.1509C236.643 47.9696 237.019 47.7296 237.286 47.4309C237.558 47.1376 237.694 46.8203 237.694 46.4789C237.694 46.2389 237.606 46.0309 237.43 45.8549C237.254 45.6843 236.985 45.5989 236.622 45.5989H233.646C233.129 45.5989 232.681 45.5216 232.302 45.3669C231.929 45.2069 231.641 44.9989 231.438 44.7429C231.235 44.4869 231.134 44.2069 231.134 43.9029C231.134 43.5829 231.225 43.3109 231.406 43.0869C231.587 42.8629 231.822 42.6923 232.11 42.5749C232.403 42.4576 232.718 42.3989 233.054 42.3989L233.294 42.8629C233.134 42.8629 232.971 42.9003 232.806 42.9749C232.646 43.0443 232.51 43.1509 232.398 43.2949C232.291 43.4336 232.238 43.6096 232.238 43.8229C232.238 44.0683 232.339 44.2736 232.542 44.4389C232.745 44.6043 233.113 44.6869 233.646 44.6869H236.622C237.342 44.6869 237.907 44.8389 238.318 45.1429C238.734 45.4469 238.942 45.8709 238.942 46.4149C238.942 46.9163 238.763 47.3963 238.406 47.8549C238.049 48.3189 237.537 48.6976 236.87 48.9909C236.203 49.2896 235.406 49.4389 234.478 49.4389ZM234.702 43.2629C234.115 43.2629 233.585 43.1456 233.11 42.9109C232.641 42.6763 232.267 42.3483 231.99 41.9269C231.718 41.5056 231.582 41.0176 231.582 40.4629C231.582 39.9029 231.718 39.4123 231.99 38.9909C232.267 38.5696 232.641 38.2443 233.11 38.0149C233.585 37.7803 234.115 37.6629 234.702 37.6629C235.273 37.6629 235.79 37.7803 236.254 38.0149C236.723 38.2443 237.097 38.5696 237.374 38.9909C237.651 39.4123 237.79 39.9029 237.79 40.4629C237.79 41.0176 237.651 41.5056 237.374 41.9269C237.097 42.3483 236.723 42.6763 236.254 42.9109C235.79 43.1456 235.273 43.2629 234.702 43.2629ZM234.702 42.3669C235.289 42.3669 235.745 42.1856 236.07 41.8229C236.395 41.4603 236.558 41.0069 236.558 40.4629C236.558 39.9029 236.395 39.4496 236.07 39.1029C235.745 38.7509 235.289 38.5749 234.702 38.5749C234.121 38.5749 233.662 38.7509 233.326 39.1029C232.995 39.4496 232.83 39.9029 232.83 40.4629C232.83 41.0069 232.995 41.4603 233.326 41.8229C233.662 42.1856 234.121 42.3669 234.702 42.3669ZM237.214 38.8789L236.622 38.6389C236.622 38.1909 236.71 37.7989 236.886 37.4629C237.062 37.1216 237.313 36.8576 237.638 36.6709C237.963 36.4789 238.35 36.3829 238.798 36.3829L238.702 37.6149C238.222 37.6149 237.854 37.7189 237.598 37.9269C237.342 38.1296 237.214 38.4469 237.214 38.8789ZM243.621 45.6949C242.96 45.6949 242.368 45.5269 241.845 45.1909C241.328 44.8496 240.917 44.3776 240.613 43.7749C240.315 43.1723 240.165 42.4789 240.165 41.6949C240.165 40.8576 240.315 40.1376 240.613 39.5349C240.912 38.9323 241.32 38.4709 241.837 38.1509C242.36 37.8256 242.955 37.6629 243.621 37.6629C244.203 37.6629 244.699 37.7803 245.109 38.0149C245.52 38.2496 245.851 38.5669 246.101 38.9669C246.352 39.3669 246.525 39.8203 246.621 40.3269C246.723 40.8283 246.752 41.3483 246.709 41.8869H241.173V41.1189H245.885L245.517 41.3589C245.533 41.0443 245.515 40.7296 245.461 40.4149C245.413 40.1003 245.32 39.8123 245.181 39.5509C245.043 39.2843 244.848 39.0709 244.597 38.9109C244.347 38.7509 244.027 38.6709 243.637 38.6709C243.147 38.6709 242.736 38.7963 242.405 39.0469C242.075 39.2976 241.827 39.6283 241.661 40.0389C241.496 40.4443 241.413 40.8843 241.413 41.3589V41.8709C241.413 42.4043 241.493 42.8816 241.653 43.3029C241.819 43.7243 242.064 44.0576 242.389 44.3029C242.715 44.5483 243.125 44.6709 243.621 44.6709C244.117 44.6709 244.525 44.5509 244.845 44.3109C245.165 44.0709 245.36 43.7163 245.429 43.2469H246.725C246.645 43.7536 246.464 44.1909 246.181 44.5589C245.899 44.9216 245.539 45.2016 245.101 45.3989C244.664 45.5963 244.171 45.6949 243.621 45.6949ZM248.208 44.7589C248.208 44.5083 248.296 44.2923 248.472 44.1109C248.648 43.9296 248.869 43.8389 249.136 43.8389C249.403 43.8389 249.629 43.9296 249.816 44.1109C250.003 44.2923 250.096 44.5083 250.096 44.7589C250.096 45.0096 250.003 45.2203 249.816 45.3909C249.629 45.5616 249.403 45.6469 249.136 45.6469C248.869 45.6469 248.648 45.5616 248.472 45.3909C248.296 45.2149 248.208 45.0043 248.208 44.7589Z" fill="#333333"/>
</g>
<defs>
<filter id="filter0_d_7088_5721" x="0" y="0" width="262.035" height="68" filterUnits="userSpaceOnUse" color-interpolation-filters="sRGB">
<feFlood flood-opacity="0" result="BackgroundImageFix"/>
<feColorMatrix in="SourceAlpha" type="matrix" values="0 0 0 0 0 0 0 0 0 0 0 0 0 0 0 0 0 0 127 0" result="hardAlpha"/>
<feOffset dy="4"/>
<feGaussianBlur stdDeviation="3"/>
<feComposite in2="hardAlpha" operator="out"/>
<feColorMatrix type="matrix" values="0 0 0 0 0 0 0 0 0 0 0 0 0 0 0 0 0 0 0.1 0"/>
<feBlend mode="normal" in2="BackgroundImageFix" result="effect1_dropShadow_7088_5721"/>
<feBlend mode="normal" in="SourceGraphic" in2="effect1_dropShadow_7088_5721" result="shape"/>
</filter>
<filter id="filter1_d_7088_5721" x="23.2274" y="12.4785" width="232.869" height="46.96" filterUnits="userSpaceOnUse" color-interpolation-filters="sRGB">
<feFlood flood-opacity="0" result="BackgroundImageFix"/>
<feColorMatrix in="SourceAlpha" type="matrix" values="0 0 0 0 0 0 0 0 0 0 0 0 0 0 0 0 0 0 127 0" result="hardAlpha"/>
<feOffset dy="4"/>
<feGaussianBlur stdDeviation="3"/>
<feComposite in2="hardAlpha" operator="out"/>
<feColorMatrix type="matrix" values="0 0 0 0 0 0 0 0 0 0 0 0 0 0 0 0 0 0 0.05 0"/>
<feBlend mode="normal" in2="BackgroundImageFix" result="effect1_dropShadow_7088_5721"/>
<feBlend mode="normal" in="SourceGraphic" in2="effect1_dropShadow_7088_5721" result="shape"/>
</filter>
</defs>
</svg>
