<svg width="262" height="108" viewBox="0 0 262 108" fill="none" xmlns="http://www.w3.org/2000/svg">
<g filter="url(#filter0_d_7061_5977)">
<mask id="path-1-inside-1_7061_5977" fill="white">
<path d="M7.04332 52.6331L16.7673 61L16.7673 89C16.7673 93.9706 20.7968 98 25.7673 98L246.767 98C251.738 98 255.767 93.9706 255.767 89L255.767 11C255.767 6.02948 251.738 2.00004 246.767 2.00004L25.7674 2C20.7968 2 16.7674 6.02944 16.7674 11L16.7674 40.5L7.15554 47.9931C5.66179 49.1575 5.6076 51.3978 7.04332 52.6331Z"/>
</mask>
<path d="M7.04332 52.6331L16.7673 61L16.7673 89C16.7673 93.9706 20.7968 98 25.7673 98L246.767 98C251.738 98 255.767 93.9706 255.767 89L255.767 11C255.767 6.02948 251.738 2.00004 246.767 2.00004L25.7674 2C20.7968 2 16.7674 6.02944 16.7674 11L16.7674 40.5L7.15554 47.9931C5.66179 49.1575 5.6076 51.3978 7.04332 52.6331Z" fill="white"/>
<path d="M16.7673 61L18.1673 61L18.1673 60.3577L17.6805 59.9388L16.7673 61ZM7.04332 52.6331L6.1302 53.6944L6.1302 53.6944L7.04332 52.6331ZM7.15554 47.9931L6.29479 46.8889L6.29479 46.8889L7.15554 47.9931ZM16.7674 40.5L17.6281 41.6041L18.1674 41.1838L18.1674 40.5L16.7674 40.5ZM16.7674 11L15.3674 11L15.3674 11L16.7674 11ZM16.7673 89L18.1673 89L18.1673 89L16.7673 89ZM17.6805 59.9388L7.95644 51.5719L6.1302 53.6944L15.8542 62.0612L17.6805 59.9388ZM8.01629 49.0972L17.6281 41.6041L15.9066 39.3959L6.29479 46.8889L8.01629 49.0972ZM7.95644 51.5719C7.19072 50.9131 7.21962 49.7183 8.01629 49.0972L6.29479 46.8889C4.10395 48.5968 4.02448 51.8825 6.1302 53.6944L7.95644 51.5719ZM25.7674 3.4L246.767 3.40004L246.767 0.600042L25.7674 0.600003L25.7674 3.4ZM254.367 11L254.367 89L257.167 89L257.167 11L254.367 11ZM246.767 96.6L25.7673 96.6L25.7673 99.4L246.767 99.4L246.767 96.6ZM18.1674 40.5L18.1674 11L15.3674 11L15.3674 40.5L18.1674 40.5ZM18.1673 89L18.1673 61L15.3673 61L15.3673 89L18.1673 89ZM25.7673 96.6C21.57 96.6 18.1673 93.1974 18.1673 89L15.3673 89C15.3673 94.7438 20.0236 99.4 25.7673 99.4L25.7673 96.6ZM254.367 89C254.367 93.1974 250.965 96.6 246.767 96.6L246.767 99.4C252.511 99.4 257.167 94.7438 257.167 89L254.367 89ZM246.767 3.40004C250.965 3.40004 254.367 6.80268 254.367 11L257.167 11C257.167 5.25628 252.511 0.600043 246.767 0.600042L246.767 3.40004ZM25.7674 0.600003C20.0236 0.600002 15.3674 5.25624 15.3674 11L18.1674 11C18.1674 6.80264 21.57 3.4 25.7674 3.4L25.7674 0.600003Z" fill="#333333" mask="url(#path-1-inside-1_7061_5977)"/>
<path d="M31.352 18.296C31.1387 18.296 30.9493 18.24 30.784 18.128C30.6187 18.016 30.488 17.864 30.392 17.672C30.296 17.48 30.248 17.2667 30.248 17.032C30.248 16.648 30.3733 16.272 30.624 15.904C30.88 15.5307 31.24 15.224 31.704 14.984L32.6 15.464C32.296 15.6133 32.0373 15.7867 31.824 15.984C31.616 16.1813 31.4747 16.4133 31.4 16.68C31.6507 16.7013 31.8533 16.7787 32.008 16.912C32.168 17.04 32.248 17.2187 32.248 17.448C32.248 17.6773 32.1653 17.8773 32 18.048C31.84 18.2133 31.624 18.296 31.352 18.296ZM28.68 18.296C28.4667 18.296 28.2773 18.24 28.112 18.128C27.9467 18.016 27.816 17.864 27.72 17.672C27.624 17.48 27.576 17.2667 27.576 17.032C27.576 16.648 27.7013 16.272 27.952 15.904C28.208 15.5307 28.568 15.224 29.032 14.984L29.928 15.464C29.624 15.6133 29.3653 15.7867 29.152 15.984C28.944 16.1813 28.8027 16.4133 28.728 16.68C28.9787 16.7013 29.1813 16.7787 29.336 16.912C29.496 17.04 29.576 17.2187 29.576 17.448C29.576 17.6773 29.4933 17.8773 29.328 18.048C29.168 18.2133 28.952 18.296 28.68 18.296ZM33.9979 25L37.4539 14.952H38.9739L42.3499 25H41.0379L40.1899 22.424H36.1899L35.3099 25H33.9979ZM36.5099 21.448H39.8699L38.1899 16.472L36.5099 21.448ZM48.5022 25V17.336H49.7502V25H48.5022ZM49.3662 21.544C49.3662 20.5733 49.4596 19.768 49.6462 19.128C49.8329 18.4827 50.1049 18.0027 50.4622 17.688C50.8249 17.368 51.2649 17.208 51.7822 17.208C51.9529 17.208 52.1076 17.2213 52.2462 17.248C52.3902 17.2693 52.5342 17.304 52.6782 17.352L52.5982 18.584C52.4489 18.536 52.2862 18.496 52.1102 18.464C51.9342 18.4267 51.7769 18.408 51.6382 18.408C51.1849 18.408 50.8196 18.5387 50.5422 18.8C50.2649 19.056 50.0622 19.4187 49.9342 19.888C49.8116 20.3573 49.7502 20.9093 49.7502 21.544H49.3662ZM59.6435 17.336H60.8915V25H59.6435V17.336ZM54.2195 17.336H55.4675V22.104C55.4675 22.744 55.6222 23.2293 55.9315 23.56C56.2462 23.8907 56.6942 24.056 57.2755 24.056C57.7555 24.056 58.1715 23.928 58.5235 23.672C58.8808 23.416 59.1555 23.064 59.3475 22.616C59.5448 22.1627 59.6435 21.6453 59.6435 21.064H60.1075C60.1075 21.9227 59.9822 22.656 59.7315 23.264C59.4862 23.872 59.1368 24.3387 58.6835 24.664C58.2355 24.984 57.7075 25.144 57.0995 25.144C56.5235 25.144 56.0195 25.0373 55.5875 24.824C55.1555 24.6107 54.8195 24.288 54.5795 23.856C54.3395 23.4187 54.2195 22.8667 54.2195 22.2V17.336ZM69.731 25V20.504C69.731 19.7733 69.555 19.2187 69.203 18.84C68.8563 18.456 68.3817 18.264 67.779 18.264C67.3203 18.264 66.923 18.3893 66.587 18.64C66.251 18.8907 65.9923 19.2507 65.811 19.72C65.6297 20.184 65.539 20.7387 65.539 21.384H65.059C65.059 20.4933 65.1763 19.7333 65.411 19.104C65.6457 18.4747 65.987 17.9947 66.435 17.664C66.8883 17.328 67.4377 17.16 68.083 17.16C68.6857 17.16 69.2003 17.296 69.627 17.568C70.059 17.8347 70.3897 18.2187 70.619 18.72C70.8483 19.2213 70.963 19.816 70.963 20.504V25H69.731ZM64.291 25V17.352H65.363L65.539 19.112V25H64.291ZM79.5472 25V20.504C79.5472 19.7733 79.3712 19.2187 79.0192 18.84C78.6726 18.456 78.1979 18.264 77.5952 18.264C77.1366 18.264 76.7392 18.3893 76.4032 18.64C76.0672 18.8907 75.8086 19.2507 75.6272 19.72C75.4459 20.184 75.3552 20.7387 75.3552 21.384H74.8752C74.8752 20.4933 74.9926 19.7333 75.2272 19.104C75.4619 18.4747 75.8032 17.9947 76.2512 17.664C76.7046 17.328 77.2539 17.16 77.8992 17.16C78.5019 17.16 79.0166 17.296 79.4432 17.568C79.8752 17.8347 80.2059 18.2187 80.4352 18.72C80.6646 19.2213 80.7792 19.816 80.7792 20.504V25H79.5472ZM74.1072 25V17.352H75.1792L75.3552 19.112V25H74.1072ZM82.6595 17.352H84.0515L86.5475 23.912H86.2595L88.1955 17.352H89.4755L86.5955 26.536C86.3555 27.304 86.0355 27.896 85.6355 28.312C85.2355 28.728 84.7235 28.936 84.0995 28.936C83.7635 28.936 83.4435 28.888 83.1395 28.792C82.8408 28.696 82.5315 28.5573 82.2115 28.376V27.224C82.4942 27.448 82.7662 27.608 83.0275 27.704C83.2942 27.8 83.5715 27.848 83.8595 27.848C84.1795 27.848 84.4462 27.7467 84.6595 27.544C84.8782 27.3413 85.0595 27.08 85.2035 26.76C85.3475 26.4453 85.4702 26.1147 85.5715 25.768L85.7955 25L82.6595 17.352ZM100.934 25V20.504C100.934 19.7733 100.758 19.2187 100.406 18.84C100.059 18.456 99.5842 18.264 98.9815 18.264C98.5228 18.264 98.1255 18.3893 97.7895 18.64C97.4535 18.8907 97.1948 19.2507 97.0135 19.72C96.8322 20.184 96.7415 20.7387 96.7415 21.384H96.2615C96.2615 20.4933 96.3788 19.7333 96.6135 19.104C96.8482 18.4747 97.1895 17.9947 97.6375 17.664C98.0908 17.328 98.6402 17.16 99.2855 17.16C99.8882 17.16 100.403 17.296 100.83 17.568C101.262 17.8347 101.592 18.2187 101.822 18.72C102.051 19.2213 102.166 19.816 102.166 20.504V25H100.934ZM95.4935 25V17.352H96.5655L96.7415 19.112V25H95.4935ZM108.078 25.192C107.39 25.192 106.776 25.04 106.238 24.736C105.704 24.432 105.283 23.9813 104.974 23.384C104.664 22.7867 104.51 22.0507 104.51 21.176C104.51 20.296 104.664 19.56 104.974 18.968C105.283 18.3707 105.704 17.92 106.238 17.616C106.776 17.312 107.39 17.16 108.078 17.16C108.76 17.16 109.368 17.312 109.902 17.616C110.44 17.92 110.862 18.3707 111.166 18.968C111.475 19.56 111.63 20.296 111.63 21.176C111.63 22.0507 111.475 22.7867 111.166 23.384C110.862 23.9813 110.44 24.432 109.902 24.736C109.368 25.04 108.76 25.192 108.078 25.192ZM108.046 24.104C108.542 24.104 108.963 23.9867 109.31 23.752C109.656 23.512 109.918 23.1733 110.094 22.736C110.275 22.2987 110.366 21.7787 110.366 21.176C110.366 20.264 110.176 19.5467 109.798 19.024C109.419 18.496 108.856 18.232 108.11 18.232C107.608 18.232 107.184 18.352 106.838 18.592C106.496 18.8267 106.235 19.1653 106.054 19.608C105.878 20.0453 105.79 20.568 105.79 21.176C105.79 22.0773 105.979 22.792 106.358 23.32C106.742 23.8427 107.304 24.104 108.046 24.104ZM116.972 25.192C116.23 25.192 115.612 25.088 115.116 24.88C114.62 24.6667 114.244 24.376 113.988 24.008C113.732 23.6347 113.596 23.208 113.58 22.728H114.78C114.806 23.2133 115.001 23.5787 115.364 23.824C115.732 24.064 116.23 24.184 116.86 24.184C117.19 24.184 117.494 24.1307 117.772 24.024C118.049 23.9173 118.27 23.7707 118.436 23.584C118.601 23.3973 118.684 23.1867 118.684 22.952C118.684 22.6533 118.574 22.4187 118.356 22.248C118.137 22.0773 117.788 21.928 117.308 21.8L115.82 21.32C115.174 21.1173 114.678 20.84 114.332 20.488C113.99 20.1307 113.82 19.704 113.82 19.208C113.82 18.5893 114.092 18.0933 114.636 17.72C115.18 17.3467 115.894 17.16 116.78 17.16C117.718 17.16 118.446 17.352 118.964 17.736C119.481 18.12 119.75 18.6 119.772 19.176H118.54C118.492 18.84 118.321 18.5867 118.028 18.416C117.734 18.24 117.318 18.152 116.78 18.152C116.262 18.152 115.857 18.2693 115.564 18.504C115.276 18.7333 115.132 18.9893 115.132 19.272C115.132 19.8 115.585 20.1893 116.492 20.44L118.012 20.952C118.668 21.1493 119.169 21.408 119.516 21.728C119.868 22.048 120.044 22.456 120.044 22.952C120.044 23.336 119.918 23.6987 119.668 24.04C119.417 24.3813 119.062 24.6587 118.604 24.872C118.145 25.0853 117.601 25.192 116.972 25.192ZM125.442 25.192C124.781 25.192 124.189 25.024 123.666 24.688C123.149 24.3467 122.738 23.8747 122.434 23.272C122.135 22.6693 121.986 21.976 121.986 21.192C121.986 20.3547 122.135 19.6347 122.434 19.032C122.733 18.4293 123.141 17.968 123.658 17.648C124.181 17.3227 124.775 17.16 125.442 17.16C126.023 17.16 126.519 17.2773 126.93 17.512C127.341 17.7467 127.671 18.064 127.922 18.464C128.173 18.864 128.346 19.3173 128.442 19.824C128.543 20.3253 128.573 20.8453 128.53 21.384H122.994V20.616H127.706L127.338 20.856C127.354 20.5413 127.335 20.2267 127.282 19.912C127.234 19.5973 127.141 19.3093 127.002 19.048C126.863 18.7813 126.669 18.568 126.418 18.408C126.167 18.248 125.847 18.168 125.458 18.168C124.967 18.168 124.557 18.2933 124.226 18.544C123.895 18.7947 123.647 19.1253 123.482 19.536C123.317 19.9413 123.234 20.3813 123.234 20.856V21.368C123.234 21.9013 123.314 22.3787 123.474 22.8C123.639 23.2213 123.885 23.5547 124.21 23.8C124.535 24.0453 124.946 24.168 125.442 24.168C125.938 24.168 126.346 24.048 126.666 23.808C126.986 23.568 127.181 23.2133 127.25 22.744H128.546C128.466 23.2507 128.285 23.688 128.002 24.056C127.719 24.4187 127.359 24.6987 126.922 24.896C126.485 25.0933 125.991 25.192 125.442 25.192ZM130.973 26.744L130.029 26.28C130.333 26.1253 130.589 25.9547 130.797 25.768C131.01 25.5813 131.149 25.352 131.213 25.08C130.983 25.0533 130.786 24.9707 130.621 24.832C130.461 24.6933 130.381 24.5093 130.381 24.28C130.381 24.056 130.463 23.864 130.629 23.704C130.799 23.544 131.015 23.464 131.277 23.464C131.607 23.464 131.874 23.584 132.077 23.824C132.279 24.064 132.381 24.3493 132.381 24.68C132.381 25.0693 132.261 25.4507 132.021 25.824C131.786 26.2027 131.437 26.5093 130.973 26.744ZM143.361 25L143.201 23.32V20.04C143.201 19.352 143.055 18.8587 142.761 18.56C142.468 18.256 142.028 18.104 141.441 18.104C141.111 18.104 140.809 18.152 140.537 18.248C140.271 18.344 140.057 18.4933 139.897 18.696C139.743 18.8933 139.665 19.1493 139.665 19.464H138.273C138.273 18.9093 138.409 18.464 138.681 18.128C138.953 17.7867 139.327 17.5413 139.801 17.392C140.281 17.2373 140.828 17.16 141.441 17.16C142.028 17.16 142.548 17.2587 143.001 17.456C143.455 17.6533 143.809 17.968 144.065 18.4C144.321 18.8267 144.449 19.384 144.449 20.072V25H143.361ZM140.753 25.192C140.124 25.192 139.604 25.08 139.193 24.856C138.783 24.632 138.476 24.3413 138.273 23.984C138.071 23.6267 137.969 23.2507 137.969 22.856C137.969 22.3387 138.097 21.9173 138.353 21.592C138.615 21.2667 138.969 21.0293 139.417 20.88C139.865 20.7253 140.369 20.648 140.929 20.648C141.329 20.648 141.729 20.688 142.129 20.768C142.535 20.848 142.929 20.9573 143.313 21.096V21.88C142.993 21.752 142.631 21.6507 142.225 21.576C141.825 21.5013 141.457 21.464 141.121 21.464C140.609 21.464 140.177 21.5707 139.825 21.784C139.473 21.992 139.297 22.3493 139.297 22.856C139.297 23.2293 139.431 23.5493 139.697 23.816C139.969 24.0827 140.401 24.216 140.993 24.216C141.409 24.216 141.783 24.12 142.113 23.928C142.449 23.7307 142.713 23.4853 142.905 23.192C143.103 22.8987 143.201 22.6053 143.201 22.312H143.505C143.505 22.824 143.393 23.2987 143.169 23.736C142.951 24.1733 142.636 24.5253 142.225 24.792C141.815 25.0587 141.324 25.192 140.753 25.192ZM147.598 25V14.088H148.846V25H147.598ZM155.01 25.192C154.322 25.192 153.709 25.04 153.17 24.736C152.637 24.432 152.216 23.9813 151.906 23.384C151.597 22.7867 151.442 22.0507 151.442 21.176C151.442 20.296 151.597 19.56 151.906 18.968C152.216 18.3707 152.637 17.92 153.17 17.616C153.709 17.312 154.322 17.16 155.01 17.16C155.693 17.16 156.301 17.312 156.834 17.616C157.373 17.92 157.794 18.3707 158.098 18.968C158.408 19.56 158.562 20.296 158.562 21.176C158.562 22.0507 158.408 22.7867 158.098 23.384C157.794 23.9813 157.373 24.432 156.834 24.736C156.301 25.04 155.693 25.192 155.01 25.192ZM154.978 24.104C155.474 24.104 155.896 23.9867 156.242 23.752C156.589 23.512 156.85 23.1733 157.026 22.736C157.208 22.2987 157.298 21.7787 157.298 21.176C157.298 20.264 157.109 19.5467 156.73 19.024C156.352 18.496 155.789 18.232 155.042 18.232C154.541 18.232 154.117 18.352 153.77 18.592C153.429 18.8267 153.168 19.1653 152.986 19.608C152.81 20.0453 152.722 20.568 152.722 21.176C152.722 22.0773 152.912 22.792 153.29 23.32C153.674 23.8427 154.237 24.104 154.978 24.104ZM166.592 25V20.504C166.592 19.7733 166.416 19.2187 166.064 18.84C165.718 18.456 165.243 18.264 164.64 18.264C164.182 18.264 163.784 18.3893 163.448 18.64C163.112 18.8907 162.854 19.2507 162.672 19.72C162.491 20.184 162.4 20.7387 162.4 21.384H161.92C161.92 20.4933 162.038 19.7333 162.272 19.104C162.507 18.4747 162.848 17.9947 163.296 17.664C163.75 17.328 164.299 17.16 164.944 17.16C165.547 17.16 166.062 17.296 166.488 17.568C166.92 17.8347 167.251 18.2187 167.48 18.72C167.71 19.2213 167.824 19.816 167.824 20.504V25H166.592ZM161.152 25V17.352H162.224L162.4 19.112V25H161.152ZM173.672 28.936C172.888 28.936 172.208 28.824 171.632 28.6C171.056 28.3813 170.608 28.0853 170.288 27.712C169.974 27.344 169.816 26.936 169.816 26.488C169.816 25.896 170.032 25.4427 170.464 25.128C170.902 24.8187 171.464 24.664 172.152 24.664L172.84 25.096C172.264 25.096 171.819 25.216 171.504 25.456C171.19 25.696 171.032 26.024 171.032 26.44C171.032 26.856 171.256 27.208 171.704 27.496C172.152 27.784 172.808 27.928 173.672 27.928C174.312 27.928 174.872 27.8347 175.352 27.648C175.838 27.4667 176.214 27.2267 176.48 26.928C176.752 26.6347 176.888 26.3173 176.888 25.976C176.888 25.736 176.8 25.528 176.624 25.352C176.448 25.1813 176.179 25.096 175.816 25.096H172.84C172.323 25.096 171.875 25.0187 171.496 24.864C171.123 24.704 170.835 24.496 170.632 24.24C170.43 23.984 170.328 23.704 170.328 23.4C170.328 23.08 170.419 22.808 170.6 22.584C170.782 22.36 171.016 22.1893 171.304 22.072C171.598 21.9547 171.912 21.896 172.248 21.896L172.488 22.36C172.328 22.36 172.166 22.3973 172 22.472C171.84 22.5413 171.704 22.648 171.592 22.792C171.486 22.9307 171.432 23.1067 171.432 23.32C171.432 23.5653 171.534 23.7707 171.736 23.936C171.939 24.1013 172.307 24.184 172.84 24.184H175.816C176.536 24.184 177.102 24.336 177.512 24.64C177.928 24.944 178.136 25.368 178.136 25.912C178.136 26.4133 177.958 26.8933 177.6 27.352C177.243 27.816 176.731 28.1947 176.064 28.488C175.398 28.7867 174.6 28.936 173.672 28.936ZM173.896 22.76C173.31 22.76 172.779 22.6427 172.304 22.408C171.835 22.1733 171.462 21.8453 171.184 21.424C170.912 21.0027 170.776 20.5147 170.776 19.96C170.776 19.4 170.912 18.9093 171.184 18.488C171.462 18.0667 171.835 17.7413 172.304 17.512C172.779 17.2773 173.31 17.16 173.896 17.16C174.467 17.16 174.984 17.2773 175.448 17.512C175.918 17.7413 176.291 18.0667 176.568 18.488C176.846 18.9093 176.984 19.4 176.984 19.96C176.984 20.5147 176.846 21.0027 176.568 21.424C176.291 21.8453 175.918 22.1733 175.448 22.408C174.984 22.6427 174.467 22.76 173.896 22.76ZM173.896 21.864C174.483 21.864 174.939 21.6827 175.264 21.32C175.59 20.9573 175.752 20.504 175.752 19.96C175.752 19.4 175.59 18.9467 175.264 18.6C174.939 18.248 174.483 18.072 173.896 18.072C173.315 18.072 172.856 18.248 172.52 18.6C172.19 18.9467 172.024 19.4 172.024 19.96C172.024 20.504 172.19 20.9573 172.52 21.32C172.856 21.6827 173.315 21.864 173.896 21.864ZM176.408 18.376L175.816 18.136C175.816 17.688 175.904 17.296 176.08 16.96C176.256 16.6187 176.507 16.3547 176.832 16.168C177.158 15.976 177.544 15.88 177.992 15.88L177.896 17.112C177.416 17.112 177.048 17.216 176.792 17.424C176.536 17.6267 176.408 17.944 176.408 18.376ZM182.789 17.352H184.085L186.037 23.736H185.877L187.781 17.72H188.821L190.709 23.752H190.565L192.517 17.352H193.765L191.253 25H190.037L188.181 19.352H188.373L186.533 25H185.317L182.789 17.352ZM196.574 15.544C196.318 15.544 196.116 15.472 195.966 15.328C195.817 15.1787 195.742 14.984 195.742 14.744C195.742 14.5093 195.817 14.3227 195.966 14.184C196.116 14.0453 196.318 13.976 196.574 13.976C196.83 13.976 197.033 14.0453 197.182 14.184C197.332 14.3227 197.406 14.5093 197.406 14.744C197.406 14.984 197.332 15.1787 197.182 15.328C197.033 15.472 196.83 15.544 196.574 15.544ZM195.95 25V17.336H197.198V25H195.95ZM203.148 25.192C202.732 25.192 202.359 25.112 202.028 24.952C201.697 24.792 201.436 24.552 201.244 24.232C201.052 23.912 200.956 23.512 200.956 23.032V15.224H202.188V23C202.188 23.7893 202.556 24.184 203.292 24.184C203.511 24.184 203.721 24.16 203.924 24.112C204.132 24.064 204.364 23.992 204.62 23.896L204.796 24.792C204.524 24.9093 204.252 25.0053 203.98 25.08C203.713 25.1547 203.436 25.192 203.148 25.192ZM199.724 18.216V17.352H204.604V18.216H199.724ZM212.412 25V20.504C212.412 19.7733 212.236 19.2187 211.884 18.84C211.537 18.456 211.062 18.264 210.46 18.264C210.001 18.264 209.604 18.3893 209.268 18.64C208.932 18.8907 208.673 19.2507 208.492 19.72C208.31 20.184 208.22 20.7387 208.22 21.384H207.74C207.74 20.4933 207.857 19.7333 208.092 19.104C208.326 18.4747 208.668 17.9947 209.116 17.664C209.569 17.328 210.118 17.16 210.764 17.16C211.366 17.16 211.881 17.296 212.308 17.568C212.74 17.8347 213.07 18.2187 213.3 18.72C213.529 19.2213 213.644 19.816 213.644 20.504V25H212.412ZM206.972 25V14.088H208.22V25H206.972ZM31.384 45.192C30.696 45.192 30.0827 45.04 29.544 44.736C29.0107 44.432 28.5893 43.9813 28.28 43.384C27.9707 42.7867 27.816 42.0507 27.816 41.176C27.816 40.296 27.9707 39.56 28.28 38.968C28.5893 38.3707 29.0107 37.92 29.544 37.616C30.0827 37.312 30.696 37.16 31.384 37.16C32.0667 37.16 32.6747 37.312 33.208 37.616C33.7467 37.92 34.168 38.3707 34.472 38.968C34.7813 39.56 34.936 40.296 34.936 41.176C34.936 42.0507 34.7813 42.7867 34.472 43.384C34.168 43.9813 33.7467 44.432 33.208 44.736C32.6747 45.04 32.0667 45.192 31.384 45.192ZM31.352 44.104C31.848 44.104 32.2693 43.9867 32.616 43.752C32.9627 43.512 33.224 43.1733 33.4 42.736C33.5813 42.2987 33.672 41.7787 33.672 41.176C33.672 40.264 33.4827 39.5467 33.104 39.024C32.7253 38.496 32.1627 38.232 31.416 38.232C30.9147 38.232 30.4907 38.352 30.144 38.592C29.8027 38.8267 29.5413 39.1653 29.36 39.608C29.184 40.0453 29.096 40.568 29.096 41.176C29.096 42.0773 29.2853 42.792 29.664 43.32C30.048 43.8427 30.6107 44.104 31.352 44.104ZM39.878 45.192C39.462 45.192 39.0887 45.112 38.758 44.952C38.4273 44.792 38.166 44.552 37.974 44.232C37.782 43.912 37.686 43.512 37.686 43.032V35.224H38.918V43C38.918 43.7893 39.286 44.184 40.022 44.184C40.2407 44.184 40.4513 44.16 40.654 44.112C40.862 44.064 41.094 43.992 41.35 43.896L41.526 44.792C41.254 44.9093 40.982 45.0053 40.71 45.08C40.4433 45.1547 40.166 45.192 39.878 45.192ZM36.454 38.216V37.352H41.334V38.216H36.454ZM49.1416 45V40.504C49.1416 39.7733 48.9656 39.2187 48.6136 38.84C48.267 38.456 47.7923 38.264 47.1896 38.264C46.731 38.264 46.3336 38.3893 45.9976 38.64C45.6616 38.8907 45.403 39.2507 45.2216 39.72C45.0403 40.184 44.9496 40.7387 44.9496 41.384H44.4696C44.4696 40.4933 44.587 39.7333 44.8216 39.104C45.0563 38.4747 45.3976 37.9947 45.8456 37.664C46.299 37.328 46.8483 37.16 47.4936 37.16C48.0963 37.16 48.611 37.296 49.0376 37.568C49.4696 37.8347 49.8003 38.2187 50.0296 38.72C50.259 39.2213 50.3736 39.816 50.3736 40.504V45H49.1416ZM43.7016 45V34.088H44.9496V45H43.7016ZM56.1739 45.192C55.5125 45.192 54.9205 45.024 54.3979 44.688C53.8805 44.3467 53.4699 43.8747 53.1659 43.272C52.8672 42.6693 52.7179 41.976 52.7179 41.192C52.7179 40.3547 52.8672 39.6347 53.1659 39.032C53.4645 38.4293 53.8725 37.968 54.3899 37.648C54.9125 37.3227 55.5072 37.16 56.1739 37.16C56.7552 37.16 57.2512 37.2773 57.6619 37.512C58.0725 37.7467 58.4032 38.064 58.6539 38.464C58.9045 38.864 59.0779 39.3173 59.1739 39.824C59.2752 40.3253 59.3045 40.8453 59.2619 41.384H53.7259V40.616H58.4379L58.0699 40.856C58.0859 40.5413 58.0672 40.2267 58.0139 39.912C57.9659 39.5973 57.8725 39.3093 57.7339 39.048C57.5952 38.7813 57.4005 38.568 57.1499 38.408C56.8992 38.248 56.5792 38.168 56.1899 38.168C55.6992 38.168 55.2885 38.2933 54.9579 38.544C54.6272 38.7947 54.3792 39.1253 54.2139 39.536C54.0485 39.9413 53.9659 40.3813 53.9659 40.856V41.368C53.9659 41.9013 54.0459 42.3787 54.2059 42.8C54.3712 43.2213 54.6165 43.5547 54.9419 43.8C55.2672 44.0453 55.6779 44.168 56.1739 44.168C56.6699 44.168 57.0779 44.048 57.3979 43.808C57.7179 43.568 57.9125 43.2133 57.9819 42.744H59.2779C59.1979 43.2507 59.0165 43.688 58.7339 44.056C58.4512 44.4187 58.0912 44.6987 57.6539 44.896C57.2165 45.0933 56.7232 45.192 56.1739 45.192ZM61.8966 45V37.336H63.1446V45H61.8966ZM62.7606 41.544C62.7606 40.5733 62.854 39.768 63.0406 39.128C63.2273 38.4827 63.4993 38.0027 63.8566 37.688C64.2193 37.368 64.6593 37.208 65.1766 37.208C65.3473 37.208 65.502 37.2213 65.6406 37.248C65.7846 37.2693 65.9286 37.304 66.0726 37.352L65.9926 38.584C65.8433 38.536 65.6806 38.496 65.5046 38.464C65.3286 38.4267 65.1713 38.408 65.0326 38.408C64.5793 38.408 64.214 38.5387 63.9366 38.8C63.6593 39.056 63.4566 39.4187 63.3286 39.888C63.206 40.3573 63.1446 40.9093 63.1446 41.544H62.7606ZM77.2347 45V40.504C77.2347 39.7733 77.0587 39.2187 76.7067 38.84C76.3601 38.456 75.8854 38.264 75.2827 38.264C74.8241 38.264 74.4267 38.3893 74.0907 38.64C73.7547 38.8907 73.4961 39.2507 73.3147 39.72C73.1334 40.184 73.0427 40.7387 73.0427 41.384H72.5627C72.5627 40.4933 72.6801 39.7333 72.9147 39.104C73.1494 38.4747 73.4907 37.9947 73.9387 37.664C74.3921 37.328 74.9414 37.16 75.5867 37.16C76.1894 37.16 76.7041 37.296 77.1307 37.568C77.5627 37.8347 77.8934 38.2187 78.1227 38.72C78.3521 39.2213 78.4667 39.816 78.4667 40.504V45H77.2347ZM71.7947 45V37.352H72.8667L73.0427 39.112V45H71.7947ZM86.347 45L86.187 43.32V40.04C86.187 39.352 86.0403 38.8587 85.747 38.56C85.4537 38.256 85.0137 38.104 84.427 38.104C84.0963 38.104 83.795 38.152 83.523 38.248C83.2563 38.344 83.043 38.4933 82.883 38.696C82.7283 38.8933 82.651 39.1493 82.651 39.464H81.259C81.259 38.9093 81.395 38.464 81.667 38.128C81.939 37.7867 82.3123 37.5413 82.787 37.392C83.267 37.2373 83.8137 37.16 84.427 37.16C85.0137 37.16 85.5337 37.2587 85.987 37.456C86.4403 37.6533 86.795 37.968 87.051 38.4C87.307 38.8267 87.435 39.384 87.435 40.072V45H86.347ZM83.739 45.192C83.1097 45.192 82.5897 45.08 82.179 44.856C81.7683 44.632 81.4617 44.3413 81.259 43.984C81.0563 43.6267 80.955 43.2507 80.955 42.856C80.955 42.3387 81.083 41.9173 81.339 41.592C81.6003 41.2667 81.955 41.0293 82.403 40.88C82.851 40.7253 83.355 40.648 83.915 40.648C84.315 40.648 84.715 40.688 85.115 40.768C85.5203 40.848 85.915 40.9573 86.299 41.096V41.88C85.979 41.752 85.6163 41.6507 85.211 41.576C84.811 41.5013 84.443 41.464 84.107 41.464C83.595 41.464 83.163 41.5707 82.811 41.784C82.459 41.992 82.283 42.3493 82.283 42.856C82.283 43.2293 82.4163 43.5493 82.683 43.816C82.955 44.0827 83.387 44.216 83.979 44.216C84.395 44.216 84.7683 44.12 85.099 43.928C85.435 43.7307 85.699 43.4853 85.891 43.192C86.0883 42.8987 86.187 42.6053 86.187 42.312H86.491C86.491 42.824 86.379 43.2987 86.155 43.736C85.9363 44.1733 85.6217 44.5253 85.211 44.792C84.8003 45.0587 84.3097 45.192 83.739 45.192ZM93.3355 45.192C92.5942 45.192 91.9755 45.088 91.4795 44.88C90.9835 44.6667 90.6075 44.376 90.3515 44.008C90.0955 43.6347 89.9595 43.208 89.9435 42.728H91.1435C91.1702 43.2133 91.3648 43.5787 91.7275 43.824C92.0955 44.064 92.5942 44.184 93.2235 44.184C93.5542 44.184 93.8582 44.1307 94.1355 44.024C94.4128 43.9173 94.6342 43.7707 94.7995 43.584C94.9648 43.3973 95.0475 43.1867 95.0475 42.952C95.0475 42.6533 94.9382 42.4187 94.7195 42.248C94.5008 42.0773 94.1515 41.928 93.6715 41.8L92.1835 41.32C91.5382 41.1173 91.0422 40.84 90.6955 40.488C90.3542 40.1307 90.1835 39.704 90.1835 39.208C90.1835 38.5893 90.4555 38.0933 90.9995 37.72C91.5435 37.3467 92.2582 37.16 93.1435 37.16C94.0822 37.16 94.8102 37.352 95.3275 37.736C95.8448 38.12 96.1142 38.6 96.1355 39.176H94.9035C94.8555 38.84 94.6848 38.5867 94.3915 38.416C94.0982 38.24 93.6822 38.152 93.1435 38.152C92.6262 38.152 92.2208 38.2693 91.9275 38.504C91.6395 38.7333 91.4955 38.9893 91.4955 39.272C91.4955 39.8 91.9488 40.1893 92.8555 40.44L94.3755 40.952C95.0315 41.1493 95.5328 41.408 95.8795 41.728C96.2315 42.048 96.4075 42.456 96.4075 42.952C96.4075 43.336 96.2822 43.6987 96.0315 44.04C95.7808 44.3813 95.4262 44.6587 94.9675 44.872C94.5088 45.0853 93.9648 45.192 93.3355 45.192ZM103.886 45L103.726 43.32V40.04C103.726 39.352 103.579 38.8587 103.286 38.56C102.992 38.256 102.552 38.104 101.966 38.104C101.635 38.104 101.334 38.152 101.062 38.248C100.795 38.344 100.582 38.4933 100.422 38.696C100.267 38.8933 100.19 39.1493 100.19 39.464H98.7978C98.7978 38.9093 98.9338 38.464 99.2058 38.128C99.4778 37.7867 99.8511 37.5413 100.326 37.392C100.806 37.2373 101.352 37.16 101.966 37.16C102.552 37.16 103.072 37.2587 103.526 37.456C103.979 37.6533 104.334 37.968 104.59 38.4C104.846 38.8267 104.974 39.384 104.974 40.072V45H103.886ZM101.278 45.192C100.648 45.192 100.128 45.08 99.7178 44.856C99.3071 44.632 99.0004 44.3413 98.7978 43.984C98.5951 43.6267 98.4938 43.2507 98.4938 42.856C98.4938 42.3387 98.6218 41.9173 98.8778 41.592C99.1391 41.2667 99.4938 41.0293 99.9418 40.88C100.39 40.7253 100.894 40.648 101.454 40.648C101.854 40.648 102.254 40.688 102.654 40.768C103.059 40.848 103.454 40.9573 103.838 41.096V41.88C103.518 41.752 103.155 41.6507 102.75 41.576C102.35 41.5013 101.982 41.464 101.646 41.464C101.134 41.464 100.702 41.5707 100.35 41.784C99.9978 41.992 99.8218 42.3493 99.8218 42.856C99.8218 43.2293 99.9551 43.5493 100.222 43.816C100.494 44.0827 100.926 44.216 101.518 44.216C101.934 44.216 102.307 44.12 102.638 43.928C102.974 43.7307 103.238 43.4853 103.43 43.192C103.627 42.8987 103.726 42.6053 103.726 42.312H104.03C104.03 42.824 103.918 43.2987 103.694 43.736C103.475 44.1733 103.16 44.5253 102.75 44.792C102.339 45.0587 101.848 45.192 101.278 45.192ZM108.122 45V34.088H109.37V45H108.122ZM119.475 45.192C118.734 45.192 118.115 45.088 117.619 44.88C117.123 44.6667 116.747 44.376 116.491 44.008C116.235 43.6347 116.099 43.208 116.083 42.728H117.283C117.31 43.2133 117.505 43.5787 117.867 43.824C118.235 44.064 118.734 44.184 119.363 44.184C119.694 44.184 119.998 44.1307 120.275 44.024C120.553 43.9173 120.774 43.7707 120.939 43.584C121.105 43.3973 121.187 43.1867 121.187 42.952C121.187 42.6533 121.078 42.4187 120.859 42.248C120.641 42.0773 120.291 41.928 119.811 41.8L118.323 41.32C117.678 41.1173 117.182 40.84 116.835 40.488C116.494 40.1307 116.323 39.704 116.323 39.208C116.323 38.5893 116.595 38.0933 117.139 37.72C117.683 37.3467 118.398 37.16 119.283 37.16C120.222 37.16 120.95 37.352 121.467 37.736C121.985 38.12 122.254 38.6 122.275 39.176H121.043C120.995 38.84 120.825 38.5867 120.531 38.416C120.238 38.24 119.822 38.152 119.283 38.152C118.766 38.152 118.361 38.2693 118.067 38.504C117.779 38.7333 117.635 38.9893 117.635 39.272C117.635 39.8 118.089 40.1893 118.995 40.44L120.515 40.952C121.171 41.1493 121.673 41.408 122.019 41.728C122.371 42.048 122.547 42.456 122.547 42.952C122.547 43.336 122.422 43.6987 122.171 44.04C121.921 44.3813 121.566 44.6587 121.107 44.872C120.649 45.0853 120.105 45.192 119.475 45.192ZM123.713 37.352H125.105L127.601 43.912H127.313L129.249 37.352H130.529L127.649 46.536C127.409 47.304 127.089 47.896 126.689 48.312C126.289 48.728 125.777 48.936 125.153 48.936C124.817 48.936 124.497 48.888 124.193 48.792C123.895 48.696 123.585 48.5573 123.265 48.376V47.224C123.548 47.448 123.82 47.608 124.081 47.704C124.348 47.8 124.625 47.848 124.913 47.848C125.233 47.848 125.5 47.7467 125.713 47.544C125.932 47.3413 126.113 47.08 126.257 46.76C126.401 46.4453 126.524 46.1147 126.625 45.768L126.849 45L123.713 37.352ZM143.342 45V40.504C143.342 39.7733 143.166 39.2187 142.814 38.84C142.468 38.456 141.998 38.264 141.406 38.264C140.713 38.264 140.182 38.5333 139.814 39.072C139.446 39.6053 139.262 40.344 139.262 41.288H138.686C138.686 40.6 138.753 39.9973 138.886 39.48C139.025 38.9627 139.225 38.5333 139.486 38.192C139.748 37.8453 140.065 37.5867 140.438 37.416C140.812 37.2453 141.236 37.16 141.71 37.16C142.313 37.16 142.828 37.296 143.254 37.568C143.686 37.8347 144.017 38.2187 144.246 38.72C144.476 39.2213 144.59 39.816 144.59 40.504V45H143.342ZM132.59 45V37.352H133.662L133.806 38.888C134.046 38.3333 134.382 37.9067 134.814 37.608C135.252 37.3093 135.774 37.16 136.382 37.16C136.985 37.16 137.5 37.296 137.926 37.568C138.358 37.8347 138.689 38.2187 138.918 38.72C139.148 39.2213 139.262 39.816 139.262 40.504V45H138.03V40.504C138.03 39.7733 137.854 39.2187 137.502 38.84C137.156 38.456 136.681 38.264 136.078 38.264C135.62 38.264 135.222 38.3893 134.886 38.64C134.55 38.8907 134.292 39.2507 134.11 39.72C133.929 40.184 133.838 40.7387 133.838 41.384V45H132.59ZM151.191 45.192C150.631 45.192 150.143 45.064 149.727 44.808C149.316 44.552 148.999 44.1787 148.775 43.688C148.551 43.192 148.439 42.5893 148.439 41.88H148.967C148.967 42.3547 149.066 42.7547 149.263 43.08C149.46 43.4053 149.716 43.6533 150.031 43.824C150.351 43.9893 150.69 44.072 151.047 44.072C151.431 44.072 151.799 43.9627 152.151 43.744C152.503 43.52 152.791 43.192 153.015 42.76C153.239 42.328 153.351 41.7947 153.351 41.16C153.351 40.552 153.247 40.032 153.039 39.6C152.836 39.168 152.562 38.8373 152.215 38.608C151.868 38.3787 151.484 38.264 151.063 38.264C150.7 38.264 150.359 38.352 150.039 38.528C149.719 38.704 149.46 38.9627 149.263 39.304C149.066 39.64 148.967 40.056 148.967 40.552H148.439C148.439 39.8107 148.562 39.1893 148.807 38.688C149.052 38.1813 149.386 37.8 149.807 37.544C150.228 37.288 150.7 37.16 151.223 37.16C151.82 37.16 152.378 37.32 152.895 37.64C153.412 37.96 153.831 38.4187 154.151 39.016C154.471 39.6133 154.631 40.328 154.631 41.16C154.631 42.0027 154.468 42.7253 154.143 43.328C153.823 43.9307 153.402 44.392 152.879 44.712C152.356 45.032 151.794 45.192 151.191 45.192ZM147.719 48.76V37.352H148.759L148.967 39.144V48.76H147.719ZM159.59 45.192C159.174 45.192 158.801 45.112 158.47 44.952C158.14 44.792 157.878 44.552 157.686 44.232C157.494 43.912 157.398 43.512 157.398 43.032V35.224H158.63V43C158.63 43.7893 158.998 44.184 159.734 44.184C159.953 44.184 160.164 44.16 160.366 44.112C160.574 44.064 160.806 43.992 161.062 43.896L161.238 44.792C160.966 44.9093 160.694 45.0053 160.422 45.08C160.156 45.1547 159.878 45.192 159.59 45.192ZM156.166 38.216V37.352H161.046V38.216H156.166ZM166.182 45.192C165.494 45.192 164.881 45.04 164.342 44.736C163.809 44.432 163.387 43.9813 163.078 43.384C162.769 42.7867 162.614 42.0507 162.614 41.176C162.614 40.296 162.769 39.56 163.078 38.968C163.387 38.3707 163.809 37.92 164.342 37.616C164.881 37.312 165.494 37.16 166.182 37.16C166.865 37.16 167.473 37.312 168.006 37.616C168.545 37.92 168.966 38.3707 169.27 38.968C169.579 39.56 169.734 40.296 169.734 41.176C169.734 42.0507 169.579 42.7867 169.27 43.384C168.966 43.9813 168.545 44.432 168.006 44.736C167.473 45.04 166.865 45.192 166.182 45.192ZM166.15 44.104C166.646 44.104 167.067 43.9867 167.414 43.752C167.761 43.512 168.022 43.1733 168.198 42.736C168.379 42.2987 168.47 41.7787 168.47 41.176C168.47 40.264 168.281 39.5467 167.902 39.024C167.523 38.496 166.961 38.232 166.214 38.232C165.713 38.232 165.289 38.352 164.942 38.592C164.601 38.8267 164.339 39.1653 164.158 39.608C163.982 40.0453 163.894 40.568 163.894 41.176C163.894 42.0773 164.083 42.792 164.462 43.32C164.846 43.8427 165.409 44.104 166.15 44.104ZM183.076 45V40.504C183.076 39.7733 182.9 39.2187 182.548 38.84C182.201 38.456 181.732 38.264 181.14 38.264C180.447 38.264 179.916 38.5333 179.548 39.072C179.18 39.6053 178.996 40.344 178.996 41.288H178.42C178.42 40.6 178.487 39.9973 178.62 39.48C178.759 38.9627 178.959 38.5333 179.22 38.192C179.481 37.8453 179.799 37.5867 180.172 37.416C180.545 37.2453 180.969 37.16 181.444 37.16C182.047 37.16 182.561 37.296 182.988 37.568C183.42 37.8347 183.751 38.2187 183.98 38.72C184.209 39.2213 184.324 39.816 184.324 40.504V45H183.076ZM172.324 45V37.352H173.396L173.54 38.888C173.78 38.3333 174.116 37.9067 174.548 37.608C174.985 37.3093 175.508 37.16 176.116 37.16C176.719 37.16 177.233 37.296 177.66 37.568C178.092 37.8347 178.423 38.2187 178.652 38.72C178.881 39.2213 178.996 39.816 178.996 40.504V45H177.764V40.504C177.764 39.7733 177.588 39.2187 177.236 38.84C176.889 38.456 176.415 38.264 175.812 38.264C175.353 38.264 174.956 38.3893 174.62 38.64C174.284 38.8907 174.025 39.2507 173.844 39.72C173.663 40.184 173.572 40.7387 173.572 41.384V45H172.324ZM190.205 45.192C189.464 45.192 188.845 45.088 188.349 44.88C187.853 44.6667 187.477 44.376 187.221 44.008C186.965 43.6347 186.829 43.208 186.813 42.728H188.013C188.04 43.2133 188.234 43.5787 188.597 43.824C188.965 44.064 189.464 44.184 190.093 44.184C190.424 44.184 190.728 44.1307 191.005 44.024C191.282 43.9173 191.504 43.7707 191.669 43.584C191.834 43.3973 191.917 43.1867 191.917 42.952C191.917 42.6533 191.808 42.4187 191.589 42.248C191.37 42.0773 191.021 41.928 190.541 41.8L189.053 41.32C188.408 41.1173 187.912 40.84 187.565 40.488C187.224 40.1307 187.053 39.704 187.053 39.208C187.053 38.5893 187.325 38.0933 187.869 37.72C188.413 37.3467 189.128 37.16 190.013 37.16C190.952 37.16 191.68 37.352 192.197 37.736C192.714 38.12 192.984 38.6 193.005 39.176H191.773C191.725 38.84 191.554 38.5867 191.261 38.416C190.968 38.24 190.552 38.152 190.013 38.152C189.496 38.152 189.09 38.2693 188.797 38.504C188.509 38.7333 188.365 38.9893 188.365 39.272C188.365 39.8 188.818 40.1893 189.725 40.44L191.245 40.952C191.901 41.1493 192.402 41.408 192.749 41.728C193.101 42.048 193.277 42.456 193.277 42.952C193.277 43.336 193.152 43.6987 192.901 44.04C192.65 44.3813 192.296 44.6587 191.837 44.872C191.378 45.0853 190.834 45.192 190.205 45.192ZM202.728 45.192C201.987 45.192 201.368 45.088 200.872 44.88C200.376 44.6667 200 44.376 199.744 44.008C199.488 43.6347 199.352 43.208 199.336 42.728H200.536C200.563 43.2133 200.757 43.5787 201.12 43.824C201.488 44.064 201.987 44.184 202.616 44.184C202.947 44.184 203.251 44.1307 203.528 44.024C203.805 43.9173 204.027 43.7707 204.192 43.584C204.357 43.3973 204.44 43.1867 204.44 42.952C204.44 42.6533 204.331 42.4187 204.112 42.248C203.893 42.0773 203.544 41.928 203.064 41.8L201.576 41.32C200.931 41.1173 200.435 40.84 200.088 40.488C199.747 40.1307 199.576 39.704 199.576 39.208C199.576 38.5893 199.848 38.0933 200.392 37.72C200.936 37.3467 201.651 37.16 202.536 37.16C203.475 37.16 204.203 37.352 204.72 37.736C205.237 38.12 205.507 38.6 205.528 39.176H204.296C204.248 38.84 204.077 38.5867 203.784 38.416C203.491 38.24 203.075 38.152 202.536 38.152C202.019 38.152 201.613 38.2693 201.32 38.504C201.032 38.7333 200.888 38.9893 200.888 39.272C200.888 39.8 201.341 40.1893 202.248 40.44L203.768 40.952C204.424 41.1493 204.925 41.408 205.272 41.728C205.624 42.048 205.8 42.456 205.8 42.952C205.8 43.336 205.675 43.6987 205.424 44.04C205.173 44.3813 204.819 44.6587 204.36 44.872C203.901 45.0853 203.357 45.192 202.728 45.192ZM213.742 37.336H214.99V45H213.742V37.336ZM208.318 37.336H209.566V42.104C209.566 42.744 209.721 43.2293 210.03 43.56C210.345 43.8907 210.793 44.056 211.374 44.056C211.854 44.056 212.27 43.928 212.622 43.672C212.98 43.416 213.254 43.064 213.446 42.616C213.644 42.1627 213.742 41.6453 213.742 41.064H214.206C214.206 41.9227 214.081 42.656 213.83 43.264C213.585 43.872 213.236 44.3387 212.782 44.664C212.334 44.984 211.806 45.144 211.198 45.144C210.622 45.144 210.118 45.0373 209.686 44.824C209.254 44.6107 208.918 44.288 208.678 43.856C208.438 43.4187 208.318 42.8667 208.318 42.2V37.336ZM221.078 45.192C220.464 45.192 219.891 45.0267 219.358 44.696C218.83 44.3653 218.403 43.8987 218.078 43.296C217.752 42.6933 217.59 41.9813 217.59 41.16C217.59 40.3173 217.752 39.5973 218.078 39C218.403 38.4027 218.83 37.9467 219.358 37.632C219.891 37.3173 220.464 37.16 221.078 37.16C221.51 37.16 221.896 37.2267 222.238 37.36C222.584 37.488 222.886 37.6667 223.142 37.896C223.398 38.1253 223.608 38.3867 223.774 38.68C223.944 38.968 224.07 39.272 224.15 39.592L222.87 39.704C222.736 39.2613 222.512 38.912 222.198 38.656C221.888 38.3947 221.51 38.264 221.062 38.264C220.683 38.264 220.326 38.3733 219.99 38.592C219.659 38.8053 219.39 39.128 219.182 39.56C218.974 39.9867 218.87 40.52 218.87 41.16C218.87 41.752 218.963 42.2667 219.15 42.704C219.342 43.136 219.603 43.472 219.934 43.712C220.264 43.952 220.64 44.072 221.062 44.072C221.654 44.072 222.102 43.928 222.406 43.64C222.715 43.3467 222.87 42.9413 222.87 42.424H224.15C224.15 42.9573 224.024 43.432 223.774 43.848C223.523 44.264 223.166 44.592 222.702 44.832C222.243 45.072 221.702 45.192 221.078 45.192ZM232.24 45V40.504C232.24 39.7733 232.064 39.2187 231.712 38.84C231.365 38.456 230.89 38.264 230.288 38.264C229.829 38.264 229.432 38.3893 229.096 38.64C228.76 38.8907 228.501 39.2507 228.32 39.72C228.138 40.184 228.048 40.7387 228.048 41.384H227.568C227.568 40.4933 227.685 39.7333 227.92 39.104C228.154 38.4747 228.496 37.9947 228.944 37.664C229.397 37.328 229.946 37.16 230.592 37.16C231.194 37.16 231.709 37.296 232.136 37.568C232.568 37.8347 232.898 38.2187 233.128 38.72C233.357 39.2213 233.472 39.816 233.472 40.504V45H232.24ZM226.8 45V34.088H228.048V45H226.8ZM33.352 65L33.192 63.32V60.04C33.192 59.352 33.0453 58.8587 32.752 58.56C32.4587 58.256 32.0187 58.104 31.432 58.104C31.1013 58.104 30.8 58.152 30.528 58.248C30.2613 58.344 30.048 58.4933 29.888 58.696C29.7333 58.8933 29.656 59.1493 29.656 59.464H28.264C28.264 58.9093 28.4 58.464 28.672 58.128C28.944 57.7867 29.3173 57.5413 29.792 57.392C30.272 57.2373 30.8187 57.16 31.432 57.16C32.0187 57.16 32.5387 57.2587 32.992 57.456C33.4453 57.6533 33.8 57.968 34.056 58.4C34.312 58.8267 34.44 59.384 34.44 60.072V65H33.352ZM30.744 65.192C30.1147 65.192 29.5947 65.08 29.184 64.856C28.7733 64.632 28.4667 64.3413 28.264 63.984C28.0613 63.6267 27.96 63.2507 27.96 62.856C27.96 62.3387 28.088 61.9173 28.344 61.592C28.6053 61.2667 28.96 61.0293 29.408 60.88C29.856 60.7253 30.36 60.648 30.92 60.648C31.32 60.648 31.72 60.688 32.12 60.768C32.5253 60.848 32.92 60.9573 33.304 61.096V61.88C32.984 61.752 32.6213 61.6507 32.216 61.576C31.816 61.5013 31.448 61.464 31.112 61.464C30.6 61.464 30.168 61.5707 29.816 61.784C29.464 61.992 29.288 62.3493 29.288 62.856C29.288 63.2293 29.4213 63.5493 29.688 63.816C29.96 64.0827 30.392 64.216 30.984 64.216C31.4 64.216 31.7733 64.12 32.104 63.928C32.44 63.7307 32.704 63.4853 32.896 63.192C33.0933 62.8987 33.192 62.6053 33.192 62.312H33.496C33.496 62.824 33.384 63.2987 33.16 63.736C32.9413 64.1733 32.6267 64.5253 32.216 64.792C31.8053 65.0587 31.3147 65.192 30.744 65.192ZM40.3405 65.192C39.5992 65.192 38.9805 65.088 38.4845 64.88C37.9885 64.6667 37.6125 64.376 37.3565 64.008C37.1005 63.6347 36.9645 63.208 36.9485 62.728H38.1485C38.1752 63.2133 38.3698 63.5787 38.7325 63.824C39.1005 64.064 39.5992 64.184 40.2285 64.184C40.5592 64.184 40.8632 64.1307 41.1405 64.024C41.4178 63.9173 41.6392 63.7707 41.8045 63.584C41.9698 63.3973 42.0525 63.1867 42.0525 62.952C42.0525 62.6533 41.9432 62.4187 41.7245 62.248C41.5058 62.0773 41.1565 61.928 40.6765 61.8L39.1885 61.32C38.5432 61.1173 38.0472 60.84 37.7005 60.488C37.3592 60.1307 37.1885 59.704 37.1885 59.208C37.1885 58.5893 37.4605 58.0933 38.0045 57.72C38.5485 57.3467 39.2632 57.16 40.1485 57.16C41.0872 57.16 41.8152 57.352 42.3325 57.736C42.8498 58.12 43.1192 58.6 43.1405 59.176H41.9085C41.8605 58.84 41.6898 58.5867 41.3965 58.416C41.1032 58.24 40.6872 58.152 40.1485 58.152C39.6312 58.152 39.2258 58.2693 38.9325 58.504C38.6445 58.7333 38.5005 58.9893 38.5005 59.272C38.5005 59.8 38.9538 60.1893 39.8605 60.44L41.3805 60.952C42.0365 61.1493 42.5378 61.408 42.8845 61.728C43.2365 62.048 43.4125 62.456 43.4125 62.952C43.4125 63.336 43.2872 63.6987 43.0365 64.04C42.7858 64.3813 42.4312 64.6587 41.9725 64.872C41.5138 65.0853 40.9698 65.192 40.3405 65.192ZM52.8636 65.192C52.1223 65.192 51.5036 65.088 51.0076 64.88C50.5116 64.6667 50.1356 64.376 49.8796 64.008C49.6236 63.6347 49.4876 63.208 49.4716 62.728H50.6716C50.6983 63.2133 50.893 63.5787 51.2556 63.824C51.6236 64.064 52.1223 64.184 52.7516 64.184C53.0823 64.184 53.3863 64.1307 53.6636 64.024C53.941 63.9173 54.1623 63.7707 54.3276 63.584C54.493 63.3973 54.5756 63.1867 54.5756 62.952C54.5756 62.6533 54.4663 62.4187 54.2476 62.248C54.029 62.0773 53.6796 61.928 53.1996 61.8L51.7116 61.32C51.0663 61.1173 50.5703 60.84 50.2236 60.488C49.8823 60.1307 49.7116 59.704 49.7116 59.208C49.7116 58.5893 49.9836 58.0933 50.5276 57.72C51.0716 57.3467 51.7863 57.16 52.6716 57.16C53.6103 57.16 54.3383 57.352 54.8556 57.736C55.373 58.12 55.6423 58.6 55.6636 59.176H54.4316C54.3836 58.84 54.213 58.5867 53.9196 58.416C53.6263 58.24 53.2103 58.152 52.6716 58.152C52.1543 58.152 51.749 58.2693 51.4556 58.504C51.1676 58.7333 51.0236 58.9893 51.0236 59.272C51.0236 59.8 51.477 60.1893 52.3836 60.44L53.9036 60.952C54.5596 61.1493 55.061 61.408 55.4076 61.728C55.7596 62.048 55.9356 62.456 55.9356 62.952C55.9356 63.336 55.8103 63.6987 55.5596 64.04C55.309 64.3813 54.9543 64.6587 54.4956 64.872C54.037 65.0853 53.493 65.192 52.8636 65.192ZM61.0299 65.192C60.6139 65.192 60.2405 65.112 59.9099 64.952C59.5792 64.792 59.3179 64.552 59.1259 64.232C58.9339 63.912 58.8379 63.512 58.8379 63.032V55.224H60.0699V63C60.0699 63.7893 60.4379 64.184 61.1739 64.184C61.3925 64.184 61.6032 64.16 61.8059 64.112C62.0139 64.064 62.2459 63.992 62.5019 63.896L62.6779 64.792C62.4059 64.9093 62.1339 65.0053 61.8619 65.08C61.5952 65.1547 61.3179 65.192 61.0299 65.192ZM57.6059 58.216V57.352H62.4859V58.216H57.6059ZM70.0535 57.336H71.3015V65H70.0535V57.336ZM64.6295 57.336H65.8775V62.104C65.8775 62.744 66.0322 63.2293 66.3415 63.56C66.6562 63.8907 67.1042 64.056 67.6855 64.056C68.1655 64.056 68.5815 63.928 68.9335 63.672C69.2908 63.416 69.5655 63.064 69.7575 62.616C69.9548 62.1627 70.0535 61.6453 70.0535 61.064H70.5175C70.5175 61.9227 70.3922 62.656 70.1415 63.264C69.8962 63.872 69.5468 64.3387 69.0935 64.664C68.6455 64.984 68.1175 65.144 67.5095 65.144C66.9335 65.144 66.4295 65.0373 65.9975 64.824C65.5655 64.6107 65.2295 64.288 64.9895 63.856C64.7495 63.4187 64.6295 62.8667 64.6295 62.2V57.336ZM75.117 65V56.168C75.117 55.6613 75.213 55.248 75.405 54.928C75.6023 54.6027 75.8637 54.3627 76.189 54.208C76.5197 54.0533 76.8877 53.976 77.293 53.976C77.5117 53.976 77.733 53.992 77.957 54.024C78.1863 54.056 78.413 54.104 78.637 54.168L78.397 55.16C78.237 55.096 78.077 55.048 77.917 55.016C77.7623 54.984 77.613 54.968 77.469 54.968C77.2983 54.968 77.1277 55 76.957 55.064C76.7863 55.128 76.645 55.248 76.533 55.424C76.421 55.6 76.365 55.8533 76.365 56.184V65H75.117ZM73.869 58.216V57.352H77.949V58.216H73.869ZM80.7614 65V56.168C80.7614 55.6613 80.8574 55.248 81.0494 54.928C81.2467 54.6027 81.508 54.3627 81.8334 54.208C82.164 54.0533 82.532 53.976 82.9374 53.976C83.156 53.976 83.3774 53.992 83.6014 54.024C83.8307 54.056 84.0574 54.104 84.2814 54.168L84.0414 55.16C83.8814 55.096 83.7214 55.048 83.5614 55.016C83.4067 54.984 83.2574 54.968 83.1134 54.968C82.9427 54.968 82.772 55 82.6014 55.064C82.4307 55.128 82.2894 55.248 82.1774 55.424C82.0654 55.6 82.0094 55.8533 82.0094 56.184V65H80.7614ZM79.5134 58.216V57.352H83.5934V58.216H79.5134ZM86.5294 55.544C86.2734 55.544 86.0707 55.472 85.9214 55.328C85.772 55.1787 85.6974 54.984 85.6974 54.744C85.6974 54.5093 85.772 54.3227 85.9214 54.184C86.0707 54.0453 86.2734 53.976 86.5294 53.976C86.7854 53.976 86.988 54.0453 87.1374 54.184C87.2867 54.3227 87.3614 54.5093 87.3614 54.744C87.3614 54.984 87.2867 55.1787 87.1374 55.328C86.988 55.472 86.7854 55.544 86.5294 55.544ZM85.9054 65V57.336H87.1534V65H85.9054ZM96.1954 65V60.504C96.1954 59.7733 96.0194 59.2187 95.6674 58.84C95.3207 58.456 94.846 58.264 94.2434 58.264C93.7847 58.264 93.3874 58.3893 93.0514 58.64C92.7154 58.8907 92.4567 59.2507 92.2754 59.72C92.094 60.184 92.0034 60.7387 92.0034 61.384H91.5234C91.5234 60.4933 91.6407 59.7333 91.8754 59.104C92.11 58.4747 92.4514 57.9947 92.8994 57.664C93.3527 57.328 93.902 57.16 94.5474 57.16C95.15 57.16 95.6647 57.296 96.0914 57.568C96.5234 57.8347 96.854 58.2187 97.0834 58.72C97.3127 59.2213 97.4274 59.816 97.4274 60.504V65H96.1954ZM90.7554 65V57.352H91.8274L92.0034 59.112V65H90.7554ZM103.228 65.192C102.566 65.192 101.974 65.024 101.452 64.688C100.934 64.3467 100.524 63.8747 100.22 63.272C99.921 62.6693 99.7716 61.976 99.7716 61.192C99.7716 60.3547 99.921 59.6347 100.22 59.032C100.518 58.4293 100.926 57.968 101.444 57.648C101.966 57.3227 102.561 57.16 103.228 57.16C103.809 57.16 104.305 57.2773 104.716 57.512C105.126 57.7467 105.457 58.064 105.708 58.464C105.958 58.864 106.132 59.3173 106.228 59.824C106.329 60.3253 106.358 60.8453 106.316 61.384H100.78V60.616H105.492L105.124 60.856C105.14 60.5413 105.121 60.2267 105.068 59.912C105.02 59.5973 104.926 59.3093 104.788 59.048C104.649 58.7813 104.454 58.568 104.204 58.408C103.953 58.248 103.633 58.168 103.244 58.168C102.753 58.168 102.342 58.2933 102.012 58.544C101.681 58.7947 101.433 59.1253 101.268 59.536C101.102 59.9413 101.02 60.3813 101.02 60.856V61.368C101.02 61.9013 101.1 62.3787 101.26 62.8C101.425 63.2213 101.67 63.5547 101.996 63.8C102.321 64.0453 102.732 64.168 103.228 64.168C103.724 64.168 104.132 64.048 104.452 63.808C104.772 63.568 104.966 63.2133 105.036 62.744H106.332C106.252 63.2507 106.07 63.688 105.788 64.056C105.505 64.4187 105.145 64.6987 104.708 64.896C104.27 65.0933 103.777 65.192 103.228 65.192ZM111.702 65.192C110.961 65.192 110.342 65.088 109.846 64.88C109.35 64.6667 108.974 64.376 108.718 64.008C108.462 63.6347 108.326 63.208 108.31 62.728H109.51C109.537 63.2133 109.732 63.5787 110.094 63.824C110.462 64.064 110.961 64.184 111.59 64.184C111.921 64.184 112.225 64.1307 112.502 64.024C112.78 63.9173 113.001 63.7707 113.166 63.584C113.332 63.3973 113.414 63.1867 113.414 62.952C113.414 62.6533 113.305 62.4187 113.086 62.248C112.868 62.0773 112.518 61.928 112.038 61.8L110.55 61.32C109.905 61.1173 109.409 60.84 109.062 60.488C108.721 60.1307 108.55 59.704 108.55 59.208C108.55 58.5893 108.822 58.0933 109.366 57.72C109.91 57.3467 110.625 57.16 111.51 57.16C112.449 57.16 113.177 57.352 113.694 57.736C114.212 58.12 114.481 58.6 114.502 59.176H113.27C113.222 58.84 113.052 58.5867 112.758 58.416C112.465 58.24 112.049 58.152 111.51 58.152C110.993 58.152 110.588 58.2693 110.294 58.504C110.006 58.7333 109.862 58.9893 109.862 59.272C109.862 59.8 110.316 60.1893 111.222 60.44L112.742 60.952C113.398 61.1493 113.9 61.408 114.246 61.728C114.598 62.048 114.774 62.456 114.774 62.952C114.774 63.336 114.649 63.6987 114.398 64.04C114.148 64.3813 113.793 64.6587 113.334 64.872C112.876 65.0853 112.332 65.192 111.702 65.192ZM120.269 65.192C119.527 65.192 118.909 65.088 118.413 64.88C117.917 64.6667 117.541 64.376 117.285 64.008C117.029 63.6347 116.893 63.208 116.877 62.728H118.077C118.103 63.2133 118.298 63.5787 118.661 63.824C119.029 64.064 119.527 64.184 120.157 64.184C120.487 64.184 120.791 64.1307 121.069 64.024C121.346 63.9173 121.567 63.7707 121.733 63.584C121.898 63.3973 121.981 63.1867 121.981 62.952C121.981 62.6533 121.871 62.4187 121.653 62.248C121.434 62.0773 121.085 61.928 120.605 61.8L119.117 61.32C118.471 61.1173 117.975 60.84 117.629 60.488C117.287 60.1307 117.117 59.704 117.117 59.208C117.117 58.5893 117.389 58.0933 117.933 57.72C118.477 57.3467 119.191 57.16 120.077 57.16C121.015 57.16 121.743 57.352 122.261 57.736C122.778 58.12 123.047 58.6 123.069 59.176H121.837C121.789 58.84 121.618 58.5867 121.325 58.416C121.031 58.24 120.615 58.152 120.077 58.152C119.559 58.152 119.154 58.2693 118.861 58.504C118.573 58.7333 118.429 58.9893 118.429 59.272C118.429 59.8 118.882 60.1893 119.789 60.44L121.309 60.952C121.965 61.1493 122.466 61.408 122.813 61.728C123.165 62.048 123.341 62.456 123.341 62.952C123.341 63.336 123.215 63.6987 122.965 64.04C122.714 64.3813 122.359 64.6587 121.901 64.872C121.442 65.0853 120.898 65.192 120.269 65.192ZM132.808 65.192C132.12 65.192 131.506 65.04 130.968 64.736C130.434 64.432 130.013 63.9813 129.704 63.384C129.394 62.7867 129.24 62.0507 129.24 61.176C129.24 60.296 129.394 59.56 129.704 58.968C130.013 58.3707 130.434 57.92 130.968 57.616C131.506 57.312 132.12 57.16 132.808 57.16C133.49 57.16 134.098 57.312 134.632 57.616C135.17 57.92 135.592 58.3707 135.896 58.968C136.205 59.56 136.36 60.296 136.36 61.176C136.36 62.0507 136.205 62.7867 135.896 63.384C135.592 63.9813 135.17 64.432 134.632 64.736C134.098 65.04 133.49 65.192 132.808 65.192ZM132.776 64.104C133.272 64.104 133.693 63.9867 134.04 63.752C134.386 63.512 134.648 63.1733 134.824 62.736C135.005 62.2987 135.096 61.7787 135.096 61.176C135.096 60.264 134.906 59.5467 134.528 59.024C134.149 58.496 133.586 58.232 132.84 58.232C132.338 58.232 131.914 58.352 131.568 58.592C131.226 58.8267 130.965 59.1653 130.784 59.608C130.608 60.0453 130.52 60.568 130.52 61.176C130.52 62.0773 130.709 62.792 131.088 63.32C131.472 63.8427 132.034 64.104 132.776 64.104ZM138.95 65V57.336H140.198V65H138.95ZM139.814 61.544C139.814 60.5733 139.907 59.768 140.094 59.128C140.28 58.4827 140.552 58.0027 140.91 57.688C141.272 57.368 141.712 57.208 142.23 57.208C142.4 57.208 142.555 57.2213 142.694 57.248C142.838 57.2693 142.982 57.304 143.126 57.352L143.046 58.584C142.896 58.536 142.734 58.496 142.558 58.464C142.382 58.4267 142.224 58.408 142.086 58.408C141.632 58.408 141.267 58.5387 140.99 58.8C140.712 59.056 140.51 59.4187 140.382 59.888C140.259 60.3573 140.198 60.9093 140.198 61.544H139.814ZM151.6 65.192C150.859 65.192 150.24 65.088 149.744 64.88C149.248 64.6667 148.872 64.376 148.616 64.008C148.36 63.6347 148.224 63.208 148.208 62.728H149.408C149.435 63.2133 149.629 63.5787 149.992 63.824C150.36 64.064 150.859 64.184 151.488 64.184C151.819 64.184 152.123 64.1307 152.4 64.024C152.677 63.9173 152.899 63.7707 153.064 63.584C153.229 63.3973 153.312 63.1867 153.312 62.952C153.312 62.6533 153.203 62.4187 152.984 62.248C152.765 62.0773 152.416 61.928 151.936 61.8L150.448 61.32C149.803 61.1173 149.307 60.84 148.96 60.488C148.619 60.1307 148.448 59.704 148.448 59.208C148.448 58.5893 148.72 58.0933 149.264 57.72C149.808 57.3467 150.523 57.16 151.408 57.16C152.347 57.16 153.075 57.352 153.592 57.736C154.109 58.12 154.379 58.6 154.4 59.176H153.168C153.12 58.84 152.949 58.5867 152.656 58.416C152.363 58.24 151.947 58.152 151.408 58.152C150.891 58.152 150.485 58.2693 150.192 58.504C149.904 58.7333 149.76 58.9893 149.76 59.272C149.76 59.8 150.213 60.1893 151.12 60.44L152.64 60.952C153.296 61.1493 153.797 61.408 154.144 61.728C154.496 62.048 154.672 62.456 154.672 62.952C154.672 63.336 154.547 63.6987 154.296 64.04C154.045 64.3813 153.691 64.6587 153.232 64.872C152.773 65.0853 152.229 65.192 151.6 65.192ZM162.854 65V60.504C162.854 59.7733 162.678 59.2187 162.326 58.84C161.979 58.456 161.505 58.264 160.902 58.264C160.443 58.264 160.046 58.3893 159.71 58.64C159.374 58.8907 159.115 59.2507 158.934 59.72C158.753 60.184 158.662 60.7387 158.662 61.384H158.182C158.182 60.4933 158.299 59.7333 158.534 59.104C158.769 58.4747 159.11 57.9947 159.558 57.664C160.011 57.328 160.561 57.16 161.206 57.16C161.809 57.16 162.323 57.296 162.75 57.568C163.182 57.8347 163.513 58.2187 163.742 58.72C163.971 59.2213 164.086 59.816 164.086 60.504V65H162.854ZM157.414 65V57.352H158.486L158.662 59.112V65H157.414ZM169.886 65.192C169.225 65.192 168.633 65.024 168.11 64.688C167.593 64.3467 167.182 63.8747 166.878 63.272C166.58 62.6693 166.43 61.976 166.43 61.192C166.43 60.3547 166.58 59.6347 166.878 59.032C167.177 58.4293 167.585 57.968 168.102 57.648C168.625 57.3227 169.22 57.16 169.886 57.16C170.468 57.16 170.964 57.2773 171.374 57.512C171.785 57.7467 172.116 58.064 172.366 58.464C172.617 58.864 172.79 59.3173 172.886 59.824C172.988 60.3253 173.017 60.8453 172.974 61.384H167.438V60.616H172.15L171.782 60.856C171.798 60.5413 171.78 60.2267 171.726 59.912C171.678 59.5973 171.585 59.3093 171.446 59.048C171.308 58.7813 171.113 58.568 170.862 58.408C170.612 58.248 170.292 58.168 169.902 58.168C169.412 58.168 169.001 58.2933 168.67 58.544C168.34 58.7947 168.092 59.1253 167.926 59.536C167.761 59.9413 167.678 60.3813 167.678 60.856V61.368C167.678 61.9013 167.758 62.3787 167.918 62.8C168.084 63.2213 168.329 63.5547 168.654 63.8C168.98 64.0453 169.39 64.168 169.886 64.168C170.382 64.168 170.79 64.048 171.11 63.808C171.43 63.568 171.625 63.2133 171.694 62.744H172.99C172.91 63.2507 172.729 63.688 172.446 64.056C172.164 64.4187 171.804 64.6987 171.366 64.896C170.929 65.0933 170.436 65.192 169.886 65.192ZM178.265 65.192C177.604 65.192 177.012 65.024 176.489 64.688C175.972 64.3467 175.561 63.8747 175.257 63.272C174.958 62.6693 174.809 61.976 174.809 61.192C174.809 60.3547 174.958 59.6347 175.257 59.032C175.556 58.4293 175.964 57.968 176.481 57.648C177.004 57.3227 177.598 57.16 178.265 57.16C178.846 57.16 179.342 57.2773 179.753 57.512C180.164 57.7467 180.494 58.064 180.745 58.464C180.996 58.864 181.169 59.3173 181.265 59.824C181.366 60.3253 181.396 60.8453 181.353 61.384H175.817V60.616H180.529L180.161 60.856C180.177 60.5413 180.158 60.2267 180.105 59.912C180.057 59.5973 179.964 59.3093 179.825 59.048C179.686 58.7813 179.492 58.568 179.241 58.408C178.99 58.248 178.67 58.168 178.281 58.168C177.79 58.168 177.38 58.2933 177.049 58.544C176.718 58.7947 176.47 59.1253 176.305 59.536C176.14 59.9413 176.057 60.3813 176.057 60.856V61.368C176.057 61.9013 176.137 62.3787 176.297 62.8C176.462 63.2213 176.708 63.5547 177.033 63.8C177.358 64.0453 177.769 64.168 178.265 64.168C178.761 64.168 179.169 64.048 179.489 63.808C179.809 63.568 180.004 63.2133 180.073 62.744H181.369C181.289 63.2507 181.108 63.688 180.825 64.056C180.542 64.4187 180.182 64.6987 179.745 64.896C179.308 65.0933 178.814 65.192 178.265 65.192ZM183.22 65V63.992L187.732 58.36H183.22V57.352H189.14V58.36L184.692 63.992H189.14V65H183.22ZM192.446 55.544C192.19 55.544 191.987 55.472 191.838 55.328C191.688 55.1787 191.614 54.984 191.614 54.744C191.614 54.5093 191.688 54.3227 191.838 54.184C191.987 54.0453 192.19 53.976 192.446 53.976C192.702 53.976 192.904 54.0453 193.054 54.184C193.203 54.3227 193.278 54.5093 193.278 54.744C193.278 54.984 193.203 55.1787 193.054 55.328C192.904 55.472 192.702 55.544 192.446 55.544ZM191.822 65V57.336H193.07V65H191.822ZM202.107 65V60.504C202.107 59.7733 201.931 59.2187 201.579 58.84C201.233 58.456 200.758 58.264 200.155 58.264C199.697 58.264 199.299 58.3893 198.963 58.64C198.627 58.8907 198.369 59.2507 198.187 59.72C198.006 60.184 197.915 60.7387 197.915 61.384H197.435C197.435 60.4933 197.553 59.7333 197.787 59.104C198.022 58.4747 198.363 57.9947 198.811 57.664C199.265 57.328 199.814 57.16 200.459 57.16C201.062 57.16 201.577 57.296 202.003 57.568C202.435 57.8347 202.766 58.2187 202.995 58.72C203.225 59.2213 203.339 59.816 203.339 60.504V65H202.107ZM196.667 65V57.352H197.739L197.915 59.112V65H196.667ZM209.187 68.936C208.403 68.936 207.723 68.824 207.147 68.6C206.571 68.3813 206.123 68.0853 205.803 67.712C205.489 67.344 205.331 66.936 205.331 66.488C205.331 65.896 205.547 65.4427 205.979 65.128C206.417 64.8187 206.979 64.664 207.667 64.664L208.355 65.096C207.779 65.096 207.334 65.216 207.019 65.456C206.705 65.696 206.547 66.024 206.547 66.44C206.547 66.856 206.771 67.208 207.219 67.496C207.667 67.784 208.323 67.928 209.187 67.928C209.827 67.928 210.387 67.8347 210.867 67.648C211.353 67.4667 211.729 67.2267 211.995 66.928C212.267 66.6347 212.403 66.3173 212.403 65.976C212.403 65.736 212.315 65.528 212.139 65.352C211.963 65.1813 211.694 65.096 211.331 65.096H208.355C207.838 65.096 207.39 65.0187 207.011 64.864C206.638 64.704 206.35 64.496 206.147 64.24C205.945 63.984 205.843 63.704 205.843 63.4C205.843 63.08 205.934 62.808 206.115 62.584C206.297 62.36 206.531 62.1893 206.819 62.072C207.113 61.9547 207.427 61.896 207.763 61.896L208.003 62.36C207.843 62.36 207.681 62.3973 207.515 62.472C207.355 62.5413 207.219 62.648 207.107 62.792C207.001 62.9307 206.947 63.1067 206.947 63.32C206.947 63.5653 207.049 63.7707 207.251 63.936C207.454 64.1013 207.822 64.184 208.355 64.184H211.331C212.051 64.184 212.617 64.336 213.027 64.64C213.443 64.944 213.651 65.368 213.651 65.912C213.651 66.4133 213.473 66.8933 213.115 67.352C212.758 67.816 212.246 68.1947 211.579 68.488C210.913 68.7867 210.115 68.936 209.187 68.936ZM209.411 62.76C208.825 62.76 208.294 62.6427 207.819 62.408C207.35 62.1733 206.977 61.8453 206.699 61.424C206.427 61.0027 206.291 60.5147 206.291 59.96C206.291 59.4 206.427 58.9093 206.699 58.488C206.977 58.0667 207.35 57.7413 207.819 57.512C208.294 57.2773 208.825 57.16 209.411 57.16C209.982 57.16 210.499 57.2773 210.963 57.512C211.433 57.7413 211.806 58.0667 212.083 58.488C212.361 58.9093 212.499 59.4 212.499 59.96C212.499 60.5147 212.361 61.0027 212.083 61.424C211.806 61.8453 211.433 62.1733 210.963 62.408C210.499 62.6427 209.982 62.76 209.411 62.76ZM209.411 61.864C209.998 61.864 210.454 61.6827 210.779 61.32C211.105 60.9573 211.267 60.504 211.267 59.96C211.267 59.4 211.105 58.9467 210.779 58.6C210.454 58.248 209.998 58.072 209.411 58.072C208.83 58.072 208.371 58.248 208.035 58.6C207.705 58.9467 207.539 59.4 207.539 59.96C207.539 60.504 207.705 60.9573 208.035 61.32C208.371 61.6827 208.83 61.864 209.411 61.864ZM211.923 58.376L211.331 58.136C211.331 57.688 211.419 57.296 211.595 56.96C211.771 56.6187 212.022 56.3547 212.347 56.168C212.673 55.976 213.059 55.88 213.507 55.88L213.411 57.112C212.931 57.112 212.563 57.216 212.307 57.424C212.051 57.6267 211.923 57.944 211.923 58.376ZM215.483 66.744L214.539 66.28C214.843 66.1253 215.099 65.9547 215.307 65.768C215.52 65.5813 215.659 65.352 215.723 65.08C215.493 65.0533 215.296 64.9707 215.131 64.832C214.971 64.6933 214.891 64.5093 214.891 64.28C214.891 64.056 214.973 63.864 215.139 63.704C215.309 63.544 215.525 63.464 215.787 63.464C216.117 63.464 216.384 63.584 216.587 63.824C216.789 64.064 216.891 64.3493 216.891 64.68C216.891 65.0693 216.771 65.4507 216.531 65.824C216.296 66.2027 215.947 66.5093 215.483 66.744ZM223.839 55.544C223.583 55.544 223.381 55.472 223.231 55.328C223.082 55.1787 223.007 54.984 223.007 54.744C223.007 54.5093 223.082 54.3227 223.231 54.184C223.381 54.0453 223.583 53.976 223.839 53.976C224.095 53.976 224.298 54.0453 224.447 54.184C224.597 54.3227 224.671 54.5093 224.671 54.744C224.671 54.984 224.597 55.1787 224.447 55.328C224.298 55.472 224.095 55.544 223.839 55.544ZM223.215 65V57.336H224.463V65H223.215ZM230.813 65.192C230.072 65.192 229.453 65.088 228.957 64.88C228.461 64.6667 228.085 64.376 227.829 64.008C227.573 63.6347 227.437 63.208 227.421 62.728H228.621C228.648 63.2133 228.842 63.5787 229.205 63.824C229.573 64.064 230.072 64.184 230.701 64.184C231.032 64.184 231.336 64.1307 231.613 64.024C231.89 63.9173 232.112 63.7707 232.277 63.584C232.442 63.3973 232.525 63.1867 232.525 62.952C232.525 62.6533 232.416 62.4187 232.197 62.248C231.978 62.0773 231.629 61.928 231.149 61.8L229.661 61.32C229.016 61.1173 228.52 60.84 228.173 60.488C227.832 60.1307 227.661 59.704 227.661 59.208C227.661 58.5893 227.933 58.0933 228.477 57.72C229.021 57.3467 229.736 57.16 230.621 57.16C231.56 57.16 232.288 57.352 232.805 57.736C233.322 58.12 233.592 58.6 233.613 59.176H232.381C232.333 58.84 232.162 58.5867 231.869 58.416C231.576 58.24 231.16 58.152 230.621 58.152C230.104 58.152 229.698 58.2693 229.405 58.504C229.117 58.7333 228.973 58.9893 228.973 59.272C228.973 59.8 229.426 60.1893 230.333 60.44L231.853 60.952C232.509 61.1493 233.01 61.408 233.357 61.728C233.709 62.048 233.885 62.456 233.885 62.952C233.885 63.336 233.76 63.6987 233.509 64.04C233.258 64.3813 232.904 64.6587 232.445 64.872C231.986 65.0853 231.442 65.192 230.813 65.192ZM33.352 85L33.192 83.32V80.04C33.192 79.352 33.0453 78.8587 32.752 78.56C32.4587 78.256 32.0187 78.104 31.432 78.104C31.1013 78.104 30.8 78.152 30.528 78.248C30.2613 78.344 30.048 78.4933 29.888 78.696C29.7333 78.8933 29.656 79.1493 29.656 79.464H28.264C28.264 78.9093 28.4 78.464 28.672 78.128C28.944 77.7867 29.3173 77.5413 29.792 77.392C30.272 77.2373 30.8187 77.16 31.432 77.16C32.0187 77.16 32.5387 77.2587 32.992 77.456C33.4453 77.6533 33.8 77.968 34.056 78.4C34.312 78.8267 34.44 79.384 34.44 80.072V85H33.352ZM30.744 85.192C30.1147 85.192 29.5947 85.08 29.184 84.856C28.7733 84.632 28.4667 84.3413 28.264 83.984C28.0613 83.6267 27.96 83.2507 27.96 82.856C27.96 82.3387 28.088 81.9173 28.344 81.592C28.6053 81.2667 28.96 81.0293 29.408 80.88C29.856 80.7253 30.36 80.648 30.92 80.648C31.32 80.648 31.72 80.688 32.12 80.768C32.5253 80.848 32.92 80.9573 33.304 81.096V81.88C32.984 81.752 32.6213 81.6507 32.216 81.576C31.816 81.5013 31.448 81.464 31.112 81.464C30.6 81.464 30.168 81.5707 29.816 81.784C29.464 81.992 29.288 82.3493 29.288 82.856C29.288 83.2293 29.4213 83.5493 29.688 83.816C29.96 84.0827 30.392 84.216 30.984 84.216C31.4 84.216 31.7733 84.12 32.104 83.928C32.44 83.7307 32.704 83.4853 32.896 83.192C33.0933 82.8987 33.192 82.6053 33.192 82.312H33.496C33.496 82.824 33.384 83.2987 33.16 83.736C32.9413 84.1733 32.6267 84.5253 32.216 84.792C31.8053 85.0587 31.3147 85.192 30.744 85.192ZM44.2334 85.192C43.62 85.192 43.0467 85.0267 42.5134 84.696C41.9854 84.3653 41.5587 83.8987 41.2334 83.296C40.908 82.6933 40.7454 81.9813 40.7454 81.16C40.7454 80.3173 40.908 79.5973 41.2334 79C41.5587 78.4027 41.9854 77.9467 42.5134 77.632C43.0467 77.3173 43.62 77.16 44.2334 77.16C44.6654 77.16 45.052 77.2267 45.3934 77.36C45.74 77.488 46.0414 77.6667 46.2974 77.896C46.5534 78.1253 46.764 78.3867 46.9294 78.68C47.1 78.968 47.2254 79.272 47.3054 79.592L46.0254 79.704C45.892 79.2613 45.668 78.912 45.3534 78.656C45.044 78.3947 44.6654 78.264 44.2174 78.264C43.8387 78.264 43.4814 78.3733 43.1454 78.592C42.8147 78.8053 42.5454 79.128 42.3374 79.56C42.1294 79.9867 42.0254 80.52 42.0254 81.16C42.0254 81.752 42.1187 82.2667 42.3054 82.704C42.4974 83.136 42.7587 83.472 43.0894 83.712C43.42 83.952 43.796 84.072 44.2174 84.072C44.8094 84.072 45.2574 83.928 45.5614 83.64C45.8707 83.3467 46.0254 82.9413 46.0254 82.424H47.3054C47.3054 82.9573 47.18 83.432 46.9294 83.848C46.6787 84.264 46.3214 84.592 45.8574 84.832C45.3987 85.072 44.8574 85.192 44.2334 85.192ZM52.7234 85.192C52.0354 85.192 51.422 85.04 50.8834 84.736C50.35 84.432 49.9287 83.9813 49.6194 83.384C49.31 82.7867 49.1554 82.0507 49.1554 81.176C49.1554 80.296 49.31 79.56 49.6194 78.968C49.9287 78.3707 50.35 77.92 50.8834 77.616C51.422 77.312 52.0354 77.16 52.7234 77.16C53.406 77.16 54.014 77.312 54.5474 77.616C55.086 77.92 55.5074 78.3707 55.8114 78.968C56.1207 79.56 56.2754 80.296 56.2754 81.176C56.2754 82.0507 56.1207 82.7867 55.8114 83.384C55.5074 83.9813 55.086 84.432 54.5474 84.736C54.014 85.04 53.406 85.192 52.7234 85.192ZM52.6914 84.104C53.1874 84.104 53.6087 83.9867 53.9554 83.752C54.302 83.512 54.5634 83.1733 54.7394 82.736C54.9207 82.2987 55.0114 81.7787 55.0114 81.176C55.0114 80.264 54.822 79.5467 54.4434 79.024C54.0647 78.496 53.502 78.232 52.7554 78.232C52.254 78.232 51.83 78.352 51.4834 78.592C51.142 78.8267 50.8807 79.1653 50.6994 79.608C50.5234 80.0453 50.4354 80.568 50.4354 81.176C50.4354 82.0773 50.6247 82.792 51.0034 83.32C51.3874 83.8427 51.95 84.104 52.6914 84.104ZM69.6174 85V80.504C69.6174 79.7733 69.4414 79.2187 69.0894 78.84C68.7427 78.456 68.2734 78.264 67.6814 78.264C66.988 78.264 66.4574 78.5333 66.0894 79.072C65.7214 79.6053 65.5374 80.344 65.5374 81.288H64.9614C64.9614 80.6 65.028 79.9973 65.1614 79.48C65.3 78.9627 65.5 78.5333 65.7614 78.192C66.0227 77.8453 66.34 77.5867 66.7134 77.416C67.0867 77.2453 67.5107 77.16 67.9854 77.16C68.588 77.16 69.1027 77.296 69.5294 77.568C69.9614 77.8347 70.292 78.2187 70.5214 78.72C70.7507 79.2213 70.8654 79.816 70.8654 80.504V85H69.6174ZM58.8654 85V77.352H59.9374L60.0814 78.888C60.3214 78.3333 60.6574 77.9067 61.0894 77.608C61.5267 77.3093 62.0494 77.16 62.6574 77.16C63.26 77.16 63.7747 77.296 64.2014 77.568C64.6334 77.8347 64.964 78.2187 65.1934 78.72C65.4227 79.2213 65.5374 79.816 65.5374 80.504V85H64.3054V80.504C64.3054 79.7733 64.1294 79.2187 63.7774 78.84C63.4307 78.456 62.956 78.264 62.3534 78.264C61.8947 78.264 61.4974 78.3893 61.1614 78.64C60.8254 78.8907 60.5667 79.2507 60.3854 79.72C60.204 80.184 60.1134 80.7387 60.1134 81.384V85H58.8654ZM84.7461 85V80.504C84.7461 79.7733 84.5701 79.2187 84.2181 78.84C83.8715 78.456 83.4021 78.264 82.8101 78.264C82.1168 78.264 81.5861 78.5333 81.2181 79.072C80.8501 79.6053 80.6661 80.344 80.6661 81.288H80.0901C80.0901 80.6 80.1568 79.9973 80.2901 79.48C80.4288 78.9627 80.6288 78.5333 80.8901 78.192C81.1515 77.8453 81.4688 77.5867 81.8421 77.416C82.2155 77.2453 82.6395 77.16 83.1141 77.16C83.7168 77.16 84.2315 77.296 84.6581 77.568C85.0901 77.8347 85.4208 78.2187 85.6501 78.72C85.8795 79.2213 85.9941 79.816 85.9941 80.504V85H84.7461ZM73.9941 85V77.352H75.0661L75.2101 78.888C75.4501 78.3333 75.7861 77.9067 76.2181 77.608C76.6555 77.3093 77.1781 77.16 77.7861 77.16C78.3888 77.16 78.9035 77.296 79.3301 77.568C79.7621 77.8347 80.0928 78.2187 80.3221 78.72C80.5515 79.2213 80.6661 79.816 80.6661 80.504V85H79.4341V80.504C79.4341 79.7733 79.2581 79.2187 78.9061 78.84C78.5595 78.456 78.0848 78.264 77.4821 78.264C77.0235 78.264 76.6261 78.3893 76.2901 78.64C75.9541 78.8907 75.6955 79.2507 75.5141 79.72C75.3328 80.184 75.2421 80.7387 75.2421 81.384V85H73.9941ZM91.8909 85.192C91.2029 85.192 90.5895 85.04 90.0509 84.736C89.5175 84.432 89.0962 83.9813 88.7869 83.384C88.4775 82.7867 88.3229 82.0507 88.3229 81.176C88.3229 80.296 88.4775 79.56 88.7869 78.968C89.0962 78.3707 89.5175 77.92 90.0509 77.616C90.5895 77.312 91.2029 77.16 91.8909 77.16C92.5735 77.16 93.1815 77.312 93.7149 77.616C94.2535 77.92 94.6749 78.3707 94.9789 78.968C95.2882 79.56 95.4429 80.296 95.4429 81.176C95.4429 82.0507 95.2882 82.7867 94.9789 83.384C94.6749 83.9813 94.2535 84.432 93.7149 84.736C93.1815 85.04 92.5735 85.192 91.8909 85.192ZM91.8589 84.104C92.3549 84.104 92.7762 83.9867 93.1229 83.752C93.4695 83.512 93.7309 83.1733 93.9069 82.736C94.0882 82.2987 94.1789 81.7787 94.1789 81.176C94.1789 80.264 93.9895 79.5467 93.6109 79.024C93.2322 78.496 92.6695 78.232 91.9229 78.232C91.4215 78.232 90.9975 78.352 90.6509 78.592C90.3095 78.8267 90.0482 79.1653 89.8669 79.608C89.6909 80.0453 89.6029 80.568 89.6029 81.176C89.6029 82.0773 89.7922 82.792 90.1709 83.32C90.5549 83.8427 91.1175 84.104 91.8589 84.104ZM103.473 85V80.504C103.473 79.7733 103.297 79.2187 102.945 78.84C102.598 78.456 102.124 78.264 101.521 78.264C101.062 78.264 100.665 78.3893 100.329 78.64C99.9929 78.8907 99.7342 79.2507 99.5529 79.72C99.3715 80.184 99.2809 80.7387 99.2809 81.384H98.8009C98.8009 80.4933 98.9182 79.7333 99.1529 79.104C99.3875 78.4747 99.7289 77.9947 100.177 77.664C100.63 77.328 101.18 77.16 101.825 77.16C102.428 77.16 102.942 77.296 103.369 77.568C103.801 77.8347 104.132 78.2187 104.361 78.72C104.59 79.2213 104.705 79.816 104.705 80.504V85H103.473ZM98.0329 85V77.352H99.1049L99.2809 79.112V85H98.0329ZM114.558 85.192C113.817 85.192 113.198 85.088 112.702 84.88C112.206 84.6667 111.83 84.376 111.574 84.008C111.318 83.6347 111.182 83.208 111.166 82.728H112.366C112.393 83.2133 112.587 83.5787 112.95 83.824C113.318 84.064 113.817 84.184 114.446 84.184C114.777 84.184 115.081 84.1307 115.358 84.024C115.635 83.9173 115.857 83.7707 116.022 83.584C116.187 83.3973 116.27 83.1867 116.27 82.952C116.27 82.6533 116.161 82.4187 115.942 82.248C115.723 82.0773 115.374 81.928 114.894 81.8L113.406 81.32C112.761 81.1173 112.265 80.84 111.918 80.488C111.577 80.1307 111.406 79.704 111.406 79.208C111.406 78.5893 111.678 78.0933 112.222 77.72C112.766 77.3467 113.481 77.16 114.366 77.16C115.305 77.16 116.033 77.352 116.55 77.736C117.067 78.12 117.337 78.6 117.358 79.176H116.126C116.078 78.84 115.907 78.5867 115.614 78.416C115.321 78.24 114.905 78.152 114.366 78.152C113.849 78.152 113.443 78.2693 113.15 78.504C112.862 78.7333 112.718 78.9893 112.718 79.272C112.718 79.8 113.171 80.1893 114.078 80.44L115.598 80.952C116.254 81.1493 116.755 81.408 117.102 81.728C117.454 82.048 117.63 82.456 117.63 82.952C117.63 83.336 117.505 83.6987 117.254 84.04C117.003 84.3813 116.649 84.6587 116.19 84.872C115.731 85.0853 115.187 85.192 114.558 85.192ZM118.796 77.352H120.188L122.684 83.912H122.396L124.332 77.352H125.612L122.732 86.536C122.492 87.304 122.172 87.896 121.772 88.312C121.372 88.728 120.86 88.936 120.236 88.936C119.9 88.936 119.58 88.888 119.276 88.792C118.977 88.696 118.668 88.5573 118.348 88.376V87.224C118.63 87.448 118.902 87.608 119.164 87.704C119.43 87.8 119.708 87.848 119.996 87.848C120.316 87.848 120.582 87.7467 120.796 87.544C121.014 87.3413 121.196 87.08 121.34 86.76C121.484 86.4453 121.606 86.1147 121.708 85.768L121.932 85L118.796 77.352ZM138.425 85V80.504C138.425 79.7733 138.249 79.2187 137.897 78.84C137.55 78.456 137.081 78.264 136.489 78.264C135.796 78.264 135.265 78.5333 134.897 79.072C134.529 79.6053 134.345 80.344 134.345 81.288H133.769C133.769 80.6 133.836 79.9973 133.969 79.48C134.108 78.9627 134.308 78.5333 134.569 78.192C134.83 77.8453 135.148 77.5867 135.521 77.416C135.894 77.2453 136.318 77.16 136.793 77.16C137.396 77.16 137.91 77.296 138.337 77.568C138.769 77.8347 139.1 78.2187 139.329 78.72C139.558 79.2213 139.673 79.816 139.673 80.504V85H138.425ZM127.673 85V77.352H128.745L128.889 78.888C129.129 78.3333 129.465 77.9067 129.897 77.608C130.334 77.3093 130.857 77.16 131.465 77.16C132.068 77.16 132.582 77.296 133.009 77.568C133.441 77.8347 133.772 78.2187 134.001 78.72C134.23 79.2213 134.345 79.816 134.345 80.504V85H133.113V80.504C133.113 79.7733 132.937 79.2187 132.585 78.84C132.238 78.456 131.764 78.264 131.161 78.264C130.702 78.264 130.305 78.3893 129.969 78.64C129.633 78.8907 129.374 79.2507 129.193 79.72C129.012 80.184 128.921 80.7387 128.921 81.384V85H127.673ZM146.274 85.192C145.714 85.192 145.226 85.064 144.81 84.808C144.399 84.552 144.082 84.1787 143.858 83.688C143.634 83.192 143.522 82.5893 143.522 81.88H144.05C144.05 82.3547 144.148 82.7547 144.346 83.08C144.543 83.4053 144.799 83.6533 145.114 83.824C145.434 83.9893 145.772 84.072 146.13 84.072C146.514 84.072 146.882 83.9627 147.234 83.744C147.586 83.52 147.874 83.192 148.098 82.76C148.322 82.328 148.434 81.7947 148.434 81.16C148.434 80.552 148.33 80.032 148.122 79.6C147.919 79.168 147.644 78.8373 147.298 78.608C146.951 78.3787 146.567 78.264 146.146 78.264C145.783 78.264 145.442 78.352 145.122 78.528C144.802 78.704 144.543 78.9627 144.346 79.304C144.148 79.64 144.05 80.056 144.05 80.552H143.522C143.522 79.8107 143.644 79.1893 143.89 78.688C144.135 78.1813 144.468 77.8 144.89 77.544C145.311 77.288 145.783 77.16 146.306 77.16C146.903 77.16 147.46 77.32 147.978 77.64C148.495 77.96 148.914 78.4187 149.234 79.016C149.554 79.6133 149.714 80.328 149.714 81.16C149.714 82.0027 149.551 82.7253 149.226 83.328C148.906 83.9307 148.484 84.392 147.962 84.712C147.439 85.032 146.876 85.192 146.274 85.192ZM142.802 88.76V77.352H143.842L144.05 79.144V88.76H142.802ZM154.673 85.192C154.257 85.192 153.884 85.112 153.553 84.952C153.222 84.792 152.961 84.552 152.769 84.232C152.577 83.912 152.481 83.512 152.481 83.032V75.224H153.713V83C153.713 83.7893 154.081 84.184 154.817 84.184C155.036 84.184 155.246 84.16 155.449 84.112C155.657 84.064 155.889 83.992 156.145 83.896L156.321 84.792C156.049 84.9093 155.777 85.0053 155.505 85.08C155.238 85.1547 154.961 85.192 154.673 85.192ZM151.249 78.216V77.352H156.129V78.216H151.249ZM161.265 85.192C160.577 85.192 159.963 85.04 159.425 84.736C158.891 84.432 158.47 83.9813 158.161 83.384C157.851 82.7867 157.697 82.0507 157.697 81.176C157.697 80.296 157.851 79.56 158.161 78.968C158.47 78.3707 158.891 77.92 159.425 77.616C159.963 77.312 160.577 77.16 161.265 77.16C161.947 77.16 162.555 77.312 163.089 77.616C163.627 77.92 164.049 78.3707 164.353 78.968C164.662 79.56 164.817 80.296 164.817 81.176C164.817 82.0507 164.662 82.7867 164.353 83.384C164.049 83.9813 163.627 84.432 163.089 84.736C162.555 85.04 161.947 85.192 161.265 85.192ZM161.233 84.104C161.729 84.104 162.15 83.9867 162.497 83.752C162.843 83.512 163.105 83.1733 163.281 82.736C163.462 82.2987 163.553 81.7787 163.553 81.176C163.553 80.264 163.363 79.5467 162.985 79.024C162.606 78.496 162.043 78.232 161.297 78.232C160.795 78.232 160.371 78.352 160.025 78.592C159.683 78.8267 159.422 79.1653 159.241 79.608C159.065 80.0453 158.977 80.568 158.977 81.176C158.977 82.0773 159.166 82.792 159.545 83.32C159.929 83.8427 160.491 84.104 161.233 84.104ZM178.159 85V80.504C178.159 79.7733 177.983 79.2187 177.631 78.84C177.284 78.456 176.815 78.264 176.223 78.264C175.529 78.264 174.999 78.5333 174.631 79.072C174.263 79.6053 174.079 80.344 174.079 81.288H173.503C173.503 80.6 173.569 79.9973 173.703 79.48C173.841 78.9627 174.041 78.5333 174.303 78.192C174.564 77.8453 174.881 77.5867 175.255 77.416C175.628 77.2453 176.052 77.16 176.527 77.16C177.129 77.16 177.644 77.296 178.071 77.568C178.503 77.8347 178.833 78.2187 179.063 78.72C179.292 79.2213 179.407 79.816 179.407 80.504V85H178.159ZM167.407 85V77.352H168.479L168.623 78.888C168.863 78.3333 169.199 77.9067 169.631 77.608C170.068 77.3093 170.591 77.16 171.199 77.16C171.801 77.16 172.316 77.296 172.743 77.568C173.175 77.8347 173.505 78.2187 173.735 78.72C173.964 79.2213 174.079 79.816 174.079 80.504V85H172.847V80.504C172.847 79.7733 172.671 79.2187 172.319 78.84C171.972 78.456 171.497 78.264 170.895 78.264C170.436 78.264 170.039 78.3893 169.703 78.64C169.367 78.8907 169.108 79.2507 168.927 79.72C168.745 80.184 168.655 80.7387 168.655 81.384V85H167.407ZM181.399 84.256C181.399 84.0053 181.487 83.7893 181.663 83.608C181.839 83.4267 182.061 83.336 182.327 83.336C182.594 83.336 182.821 83.4267 183.007 83.608C183.194 83.7893 183.287 84.0053 183.287 84.256C183.287 84.5067 183.194 84.7173 183.007 84.888C182.821 85.0587 182.594 85.144 182.327 85.144C182.061 85.144 181.839 85.0587 181.663 84.888C181.487 84.712 181.399 84.5013 181.399 84.256ZM188.027 78.296L187.131 77.816C187.435 77.6613 187.691 77.488 187.899 77.296C188.112 77.0987 188.251 76.872 188.315 76.616C188.075 76.5893 187.872 76.5067 187.707 76.368C187.547 76.2293 187.467 76.0453 187.467 75.816C187.467 75.5813 187.555 75.384 187.731 75.224C187.907 75.064 188.128 74.984 188.395 74.984C188.619 74.984 188.811 75.0427 188.971 75.16C189.131 75.272 189.253 75.424 189.339 75.616C189.424 75.8027 189.467 76.0133 189.467 76.248C189.467 76.632 189.341 77.008 189.091 77.376C188.84 77.7387 188.485 78.0453 188.027 78.296ZM185.411 78.296L184.515 77.816C184.819 77.6613 185.075 77.488 185.283 77.296C185.496 77.0987 185.635 76.872 185.699 76.616C185.459 76.5893 185.256 76.5067 185.091 76.368C184.931 76.2293 184.851 76.0453 184.851 75.816C184.851 75.5813 184.939 75.384 185.115 75.224C185.291 75.064 185.512 74.984 185.779 74.984C186.003 74.984 186.195 75.0427 186.355 75.16C186.515 75.272 186.637 75.424 186.723 75.616C186.808 75.8027 186.851 76.0133 186.851 76.248C186.851 76.632 186.725 77.008 186.475 77.376C186.224 77.7387 185.869 78.0453 185.411 78.296Z" fill="#333333"/>
</g>
<defs>
<filter id="filter0_d_7061_5977" x="0" y="0" width="261.767" height="108" filterUnits="userSpaceOnUse" color-interpolation-filters="sRGB">
<feFlood flood-opacity="0" result="BackgroundImageFix"/>
<feColorMatrix in="SourceAlpha" type="matrix" values="0 0 0 0 0 0 0 0 0 0 0 0 0 0 0 0 0 0 127 0" result="hardAlpha"/>
<feOffset dy="4"/>
<feGaussianBlur stdDeviation="3"/>
<feComposite in2="hardAlpha" operator="out"/>
<feColorMatrix type="matrix" values="0 0 0 0 0 0 0 0 0 0 0 0 0 0 0 0 0 0 0.1 0"/>
<feBlend mode="normal" in2="BackgroundImageFix" result="effect1_dropShadow_7061_5977"/>
<feBlend mode="normal" in="SourceGraphic" in2="effect1_dropShadow_7061_5977" result="shape"/>
</filter>
</defs>
</svg>
