<svg width="257" height="68" viewBox="0 0 257 68" fill="none" xmlns="http://www.w3.org/2000/svg">
<path d="M7.04333 32.6331L16.7674 41V49C16.7674 53.9706 20.7968 58 25.7674 58L247.035 58C252.005 58 256.035 53.9706 256.035 49V11C256.035 6.02944 252.005 2 247.035 2L25.7674 2C20.7968 2 16.7674 6.02944 16.7674 11V20.5L7.15555 27.9931C5.66179 29.1575 5.60761 31.3978 7.04333 32.6331Z" fill="white"/>
<g filter="url(#filter0_d_7075_5719)">
<mask id="path-2-inside-1_7075_5719" fill="white">
<path d="M7.04333 32.6331L16.7674 41V49C16.7674 53.9706 20.7968 58 25.7674 58L186.035 58C191.005 58 195.035 53.9706 195.035 49V11C195.035 6.02944 191.005 2 186.035 2L25.7674 2C20.7968 2 16.7674 6.02944 16.7674 11V20.5L7.15555 27.9931C5.66179 29.1575 5.60761 31.3978 7.04333 32.6331Z"/>
</mask>
<path d="M7.04333 32.6331L16.7674 41V49C16.7674 53.9706 20.7968 58 25.7674 58L186.035 58C191.005 58 195.035 53.9706 195.035 49V11C195.035 6.02944 191.005 2 186.035 2L25.7674 2C20.7968 2 16.7674 6.02944 16.7674 11V20.5L7.15555 27.9931C5.66179 29.1575 5.60761 31.3978 7.04333 32.6331Z" fill="white"/>
<path d="M16.7674 41H18.1674V40.3577L17.6805 39.9388L16.7674 41ZM7.04333 32.6331L6.13021 33.6944H6.13021L7.04333 32.6331ZM7.15555 27.9931L8.0163 29.0972L8.0163 29.0972L7.15555 27.9931ZM16.7674 20.5L17.6281 21.6041L18.1674 21.1838V20.5H16.7674ZM25.7674 2V0.6V2ZM186.035 2V3.4V2ZM17.6805 39.9388L7.95644 31.5719L6.13021 33.6944L15.8542 42.0612L17.6805 39.9388ZM8.0163 29.0972L17.6281 21.6041L15.9066 19.3959L6.2948 26.8889L8.0163 29.0972ZM7.95644 31.5719C7.19073 30.9131 7.21963 29.7183 8.0163 29.0972L6.2948 26.8889C4.10396 28.5968 4.02449 31.8825 6.13021 33.6944L7.95644 31.5719ZM25.7674 3.4L186.035 3.4V0.600003L25.7674 0.6V3.4ZM193.635 11V49H196.435V11H193.635ZM186.035 56.6L25.7674 56.6V59.4L186.035 59.4V56.6ZM18.1674 20.5V11H15.3674V20.5H18.1674ZM18.1674 49V41H15.3674V49H18.1674ZM25.7674 56.6C21.57 56.6 18.1674 53.1974 18.1674 49H15.3674C15.3674 54.7438 20.0236 59.4 25.7674 59.4V56.6ZM193.635 49C193.635 53.1974 190.232 56.6 186.035 56.6V59.4C191.778 59.4 196.435 54.7438 196.435 49H193.635ZM186.035 3.4C190.232 3.4 193.635 6.80264 193.635 11H196.435C196.435 5.25624 191.778 0.600003 186.035 0.600003V3.4ZM25.7674 0.6C20.0236 0.6 15.3674 5.25624 15.3674 11H18.1674C18.1674 6.80264 21.57 3.4 25.7674 3.4V0.6Z" fill="#333333" mask="url(#path-2-inside-1_7075_5719)"/>
</g>
<g filter="url(#filter1_d_7075_5719)">
<path d="M31.096 16.024V14.952H38.92V16.024H35.344L35.624 15.736V25H34.376V15.736L34.656 16.024H31.096ZM39.6197 25V17.336H40.8677V25H39.6197ZM40.4837 21.544C40.4837 20.5733 40.5771 19.768 40.7638 19.128C40.9504 18.4827 41.2224 18.0027 41.5798 17.688C41.9424 17.368 42.3824 17.208 42.8998 17.208C43.0704 17.208 43.2251 17.2213 43.3637 17.248C43.5078 17.2693 43.6518 17.304 43.7958 17.352L43.7158 18.584C43.5664 18.536 43.4038 18.496 43.2278 18.464C43.0518 18.4267 42.8944 18.408 42.7558 18.408C42.3024 18.408 41.9371 18.5387 41.6597 18.8C41.3824 19.056 41.1798 19.4187 41.0517 19.888C40.9291 20.3573 40.8677 20.9093 40.8677 21.544H40.4837ZM44.297 17.352H45.689L48.185 23.912H47.897L49.833 17.352H51.113L48.233 26.536C47.993 27.304 47.673 27.896 47.273 28.312C46.873 28.728 46.361 28.936 45.737 28.936C45.401 28.936 45.081 28.888 44.777 28.792C44.4783 28.696 44.169 28.5573 43.849 28.376V27.224C44.1317 27.448 44.4037 27.608 44.665 27.704C44.9317 27.8 45.209 27.848 45.497 27.848C45.817 27.848 46.0837 27.7467 46.297 27.544C46.5157 27.3413 46.697 27.08 46.841 26.76C46.985 26.4453 47.1077 26.1147 47.209 25.768L47.433 25L44.297 17.352ZM61.867 25L61.707 23.32V20.04C61.707 19.352 61.5603 18.8587 61.267 18.56C60.9737 18.256 60.5337 18.104 59.947 18.104C59.6163 18.104 59.315 18.152 59.043 18.248C58.7763 18.344 58.563 18.4933 58.403 18.696C58.2483 18.8933 58.171 19.1493 58.171 19.464H56.779C56.779 18.9093 56.915 18.464 57.187 18.128C57.459 17.7867 57.8323 17.5413 58.307 17.392C58.787 17.2373 59.3337 17.16 59.947 17.16C60.5337 17.16 61.0537 17.2587 61.507 17.456C61.9603 17.6533 62.315 17.968 62.571 18.4C62.827 18.8267 62.955 19.384 62.955 20.072V25H61.867ZM59.259 25.192C58.6297 25.192 58.1097 25.08 57.699 24.856C57.2883 24.632 56.9817 24.3413 56.779 23.984C56.5763 23.6267 56.475 23.2507 56.475 22.856C56.475 22.3387 56.603 21.9173 56.859 21.592C57.1203 21.2667 57.475 21.0293 57.923 20.88C58.371 20.7253 58.875 20.648 59.435 20.648C59.835 20.648 60.235 20.688 60.635 20.768C61.0403 20.848 61.435 20.9573 61.819 21.096V21.88C61.499 21.752 61.1363 21.6507 60.731 21.576C60.331 21.5013 59.963 21.464 59.627 21.464C59.115 21.464 58.683 21.5707 58.331 21.784C57.979 21.992 57.803 22.3493 57.803 22.856C57.803 23.2293 57.9363 23.5493 58.203 23.816C58.475 24.0827 58.907 24.216 59.499 24.216C59.915 24.216 60.2883 24.12 60.619 23.928C60.955 23.7307 61.219 23.4853 61.411 23.192C61.6083 22.8987 61.707 22.6053 61.707 22.312H62.011C62.011 22.824 61.899 23.2987 61.675 23.736C61.4563 24.1733 61.1417 24.5253 60.731 24.792C60.3203 25.0587 59.8297 25.192 59.259 25.192ZM68.8555 25.192C68.1142 25.192 67.4955 25.088 66.9995 24.88C66.5035 24.6667 66.1275 24.376 65.8715 24.008C65.6155 23.6347 65.4795 23.208 65.4635 22.728H66.6635C66.6902 23.2133 66.8848 23.5787 67.2475 23.824C67.6155 24.064 68.1142 24.184 68.7435 24.184C69.0742 24.184 69.3782 24.1307 69.6555 24.024C69.9328 23.9173 70.1542 23.7707 70.3195 23.584C70.4848 23.3973 70.5675 23.1867 70.5675 22.952C70.5675 22.6533 70.4582 22.4187 70.2395 22.248C70.0208 22.0773 69.6715 21.928 69.1915 21.8L67.7035 21.32C67.0582 21.1173 66.5622 20.84 66.2155 20.488C65.8742 20.1307 65.7035 19.704 65.7035 19.208C65.7035 18.5893 65.9755 18.0933 66.5195 17.72C67.0635 17.3467 67.7782 17.16 68.6635 17.16C69.6022 17.16 70.3302 17.352 70.8475 17.736C71.3648 18.12 71.6342 18.6 71.6555 19.176H70.4235C70.3755 18.84 70.2048 18.5867 69.9115 18.416C69.6182 18.24 69.2022 18.152 68.6635 18.152C68.1462 18.152 67.7408 18.2693 67.4475 18.504C67.1595 18.7333 67.0155 18.9893 67.0155 19.272C67.0155 19.8 67.4688 20.1893 68.3755 20.44L69.8955 20.952C70.5515 21.1493 71.0528 21.408 71.3995 21.728C71.7515 22.048 71.9275 22.456 71.9275 22.952C71.9275 23.336 71.8022 23.6987 71.5515 24.04C71.3008 24.3813 70.9462 24.6587 70.4875 24.872C70.0288 25.0853 69.4848 25.192 68.8555 25.192ZM74.6697 25V14.088H75.9177V25H74.6697ZM75.7257 20.616L79.6297 17.352H81.3737L75.7257 21.944V20.616ZM80.0137 25L76.3817 20.168L77.6457 19.944L81.5497 25H80.0137ZM84.5494 15.544C84.2934 15.544 84.0907 15.472 83.9414 15.328C83.792 15.1787 83.7174 14.984 83.7174 14.744C83.7174 14.5093 83.792 14.3227 83.9414 14.184C84.0907 14.0453 84.2934 13.976 84.5494 13.976C84.8054 13.976 85.008 14.0453 85.1574 14.184C85.3067 14.3227 85.3814 14.5093 85.3814 14.744C85.3814 14.984 85.3067 15.1787 85.1574 15.328C85.008 15.472 84.8054 15.544 84.5494 15.544ZM83.9254 25V17.336H85.1734V25H83.9254ZM94.211 25V20.504C94.211 19.7733 94.035 19.2187 93.683 18.84C93.3363 18.456 92.8617 18.264 92.259 18.264C91.8003 18.264 91.403 18.3893 91.067 18.64C90.731 18.8907 90.4723 19.2507 90.291 19.72C90.1097 20.184 90.019 20.7387 90.019 21.384H89.539C89.539 20.4933 89.6563 19.7333 89.891 19.104C90.1257 18.4747 90.467 17.9947 90.915 17.664C91.3683 17.328 91.9177 17.16 92.563 17.16C93.1657 17.16 93.6803 17.296 94.107 17.568C94.539 17.8347 94.8697 18.2187 95.099 18.72C95.3283 19.2213 95.443 19.816 95.443 20.504V25H94.211ZM88.771 25V17.352H89.843L90.019 19.112V25H88.771ZM101.291 28.936C100.507 28.936 99.8273 28.824 99.2513 28.6C98.6753 28.3813 98.2273 28.0853 97.9073 27.712C97.5926 27.344 97.4353 26.936 97.4353 26.488C97.4353 25.896 97.6513 25.4427 98.0833 25.128C98.5206 24.8187 99.0833 24.664 99.7713 24.664L100.459 25.096C99.8833 25.096 99.4379 25.216 99.1233 25.456C98.8086 25.696 98.6513 26.024 98.6513 26.44C98.6513 26.856 98.8753 27.208 99.3233 27.496C99.7713 27.784 100.427 27.928 101.291 27.928C101.931 27.928 102.491 27.8347 102.971 27.648C103.457 27.4667 103.833 27.2267 104.099 26.928C104.371 26.6347 104.507 26.3173 104.507 25.976C104.507 25.736 104.419 25.528 104.243 25.352C104.067 25.1813 103.798 25.096 103.435 25.096H100.459C99.9419 25.096 99.4939 25.0187 99.1153 24.864C98.7419 24.704 98.4539 24.496 98.2513 24.24C98.0486 23.984 97.9473 23.704 97.9473 23.4C97.9473 23.08 98.0379 22.808 98.2193 22.584C98.4006 22.36 98.6353 22.1893 98.9233 22.072C99.2166 21.9547 99.5313 21.896 99.8673 21.896L100.107 22.36C99.9473 22.36 99.7846 22.3973 99.6193 22.472C99.4593 22.5413 99.3233 22.648 99.2113 22.792C99.1046 22.9307 99.0513 23.1067 99.0513 23.32C99.0513 23.5653 99.1526 23.7707 99.3553 23.936C99.5579 24.1013 99.9259 24.184 100.459 24.184H103.435C104.155 24.184 104.721 24.336 105.131 24.64C105.547 24.944 105.755 25.368 105.755 25.912C105.755 26.4133 105.577 26.8933 105.219 27.352C104.862 27.816 104.35 28.1947 103.683 28.488C103.017 28.7867 102.219 28.936 101.291 28.936ZM101.515 22.76C100.929 22.76 100.398 22.6427 99.9233 22.408C99.4539 22.1733 99.0806 21.8453 98.8033 21.424C98.5313 21.0027 98.3953 20.5147 98.3953 19.96C98.3953 19.4 98.5313 18.9093 98.8033 18.488C99.0806 18.0667 99.4539 17.7413 99.9233 17.512C100.398 17.2773 100.929 17.16 101.515 17.16C102.086 17.16 102.603 17.2773 103.067 17.512C103.537 17.7413 103.91 18.0667 104.187 18.488C104.465 18.9093 104.603 19.4 104.603 19.96C104.603 20.5147 104.465 21.0027 104.187 21.424C103.91 21.8453 103.537 22.1733 103.067 22.408C102.603 22.6427 102.086 22.76 101.515 22.76ZM101.515 21.864C102.102 21.864 102.558 21.6827 102.883 21.32C103.209 20.9573 103.371 20.504 103.371 19.96C103.371 19.4 103.209 18.9467 102.883 18.6C102.558 18.248 102.102 18.072 101.515 18.072C100.934 18.072 100.475 18.248 100.139 18.6C99.8086 18.9467 99.6433 19.4 99.6433 19.96C99.6433 20.504 99.8086 20.9573 100.139 21.32C100.475 21.6827 100.934 21.864 101.515 21.864ZM104.027 18.376L103.435 18.136C103.435 17.688 103.523 17.296 103.699 16.96C103.875 16.6187 104.126 16.3547 104.451 16.168C104.777 15.976 105.163 15.88 105.611 15.88L105.515 17.112C105.035 17.112 104.667 17.216 104.411 17.424C104.155 17.6267 104.027 17.944 104.027 18.376ZM122.487 25V20.504C122.487 19.7733 122.311 19.2187 121.959 18.84C121.613 18.456 121.143 18.264 120.551 18.264C119.858 18.264 119.327 18.5333 118.959 19.072C118.591 19.6053 118.407 20.344 118.407 21.288H117.831C117.831 20.6 117.898 19.9973 118.031 19.48C118.17 18.9627 118.37 18.5333 118.631 18.192C118.893 17.8453 119.21 17.5867 119.583 17.416C119.957 17.2453 120.381 17.16 120.855 17.16C121.458 17.16 121.973 17.296 122.399 17.568C122.831 17.8347 123.162 18.2187 123.391 18.72C123.621 19.2213 123.735 19.816 123.735 20.504V25H122.487ZM111.735 25V17.352H112.807L112.951 18.888C113.191 18.3333 113.527 17.9067 113.959 17.608C114.397 17.3093 114.919 17.16 115.527 17.16C116.13 17.16 116.645 17.296 117.071 17.568C117.503 17.8347 117.834 18.2187 118.063 18.72C118.293 19.2213 118.407 19.816 118.407 20.504V25H117.175V20.504C117.175 19.7733 116.999 19.2187 116.647 18.84C116.301 18.456 115.826 18.264 115.223 18.264C114.765 18.264 114.367 18.3893 114.031 18.64C113.695 18.8907 113.437 19.2507 113.255 19.72C113.074 20.184 112.983 20.7387 112.983 21.384V25H111.735ZM129.52 25.192C128.859 25.192 128.267 25.024 127.744 24.688C127.227 24.3467 126.816 23.8747 126.512 23.272C126.213 22.6693 126.064 21.976 126.064 21.192C126.064 20.3547 126.213 19.6347 126.512 19.032C126.811 18.4293 127.219 17.968 127.736 17.648C128.259 17.3227 128.853 17.16 129.52 17.16C130.101 17.16 130.597 17.2773 131.008 17.512C131.419 17.7467 131.749 18.064 132 18.464C132.251 18.864 132.424 19.3173 132.52 19.824C132.621 20.3253 132.651 20.8453 132.608 21.384H127.072V20.616H131.784L131.416 20.856C131.432 20.5413 131.413 20.2267 131.36 19.912C131.312 19.5973 131.219 19.3093 131.08 19.048C130.941 18.7813 130.747 18.568 130.496 18.408C130.245 18.248 129.925 18.168 129.536 18.168C129.045 18.168 128.635 18.2933 128.304 18.544C127.973 18.7947 127.725 19.1253 127.56 19.536C127.395 19.9413 127.312 20.3813 127.312 20.856V21.368C127.312 21.9013 127.392 22.3787 127.552 22.8C127.717 23.2213 127.963 23.5547 128.288 23.8C128.613 24.0453 129.024 24.168 129.52 24.168C130.016 24.168 130.424 24.048 130.744 23.808C131.064 23.568 131.259 23.2133 131.328 22.744H132.624C132.544 23.2507 132.363 23.688 132.08 24.056C131.797 24.4187 131.437 24.6987 131 24.896C130.563 25.0933 130.069 25.192 129.52 25.192ZM143.936 25L143.776 23.32V20.04C143.776 19.352 143.629 18.8587 143.336 18.56C143.042 18.256 142.602 18.104 142.016 18.104C141.685 18.104 141.384 18.152 141.112 18.248C140.845 18.344 140.632 18.4933 140.472 18.696C140.317 18.8933 140.24 19.1493 140.24 19.464H138.848C138.848 18.9093 138.984 18.464 139.256 18.128C139.528 17.7867 139.901 17.5413 140.376 17.392C140.856 17.2373 141.402 17.16 142.016 17.16C142.602 17.16 143.122 17.2587 143.576 17.456C144.029 17.6533 144.384 17.968 144.64 18.4C144.896 18.8267 145.024 19.384 145.024 20.072V25H143.936ZM141.328 25.192C140.698 25.192 140.178 25.08 139.768 24.856C139.357 24.632 139.05 24.3413 138.848 23.984C138.645 23.6267 138.544 23.2507 138.544 22.856C138.544 22.3387 138.672 21.9173 138.928 21.592C139.189 21.2667 139.544 21.0293 139.992 20.88C140.44 20.7253 140.944 20.648 141.504 20.648C141.904 20.648 142.304 20.688 142.704 20.768C143.109 20.848 143.504 20.9573 143.888 21.096V21.88C143.568 21.752 143.205 21.6507 142.8 21.576C142.4 21.5013 142.032 21.464 141.696 21.464C141.184 21.464 140.752 21.5707 140.4 21.784C140.048 21.992 139.872 22.3493 139.872 22.856C139.872 23.2293 140.005 23.5493 140.272 23.816C140.544 24.0827 140.976 24.216 141.568 24.216C141.984 24.216 142.357 24.12 142.688 23.928C143.024 23.7307 143.288 23.4853 143.48 23.192C143.677 22.8987 143.776 22.6053 143.776 22.312H144.08C144.08 22.824 143.968 23.2987 143.744 23.736C143.525 24.1733 143.21 24.5253 142.8 24.792C142.389 25.0587 141.898 25.192 141.328 25.192ZM151.676 25.192C151.164 25.192 150.7 25.0587 150.284 24.792C149.874 24.5253 149.546 24.136 149.3 23.624C149.06 23.1067 148.94 22.4773 148.94 21.736H149.42C149.42 22.232 149.522 22.656 149.724 23.008C149.932 23.3547 150.199 23.6187 150.524 23.8C150.85 23.9813 151.191 24.072 151.548 24.072C151.959 24.072 152.335 23.9547 152.676 23.72C153.018 23.4853 153.29 23.1493 153.492 22.712C153.7 22.2747 153.804 21.752 153.804 21.144C153.804 20.5467 153.703 20.0347 153.5 19.608C153.298 19.176 153.023 18.8453 152.676 18.616C152.335 18.3813 151.954 18.264 151.532 18.264C151.17 18.264 150.826 18.3547 150.5 18.536C150.18 18.712 149.919 18.9733 149.716 19.32C149.519 19.6667 149.42 20.0933 149.42 20.6H148.94C148.94 19.8747 149.058 19.256 149.292 18.744C149.532 18.232 149.863 17.84 150.284 17.568C150.706 17.296 151.196 17.16 151.756 17.16C152.359 17.16 152.911 17.3227 153.412 17.648C153.919 17.968 154.324 18.4267 154.628 19.024C154.932 19.6213 155.084 20.328 155.084 21.144C155.084 21.9653 154.93 22.68 154.62 23.288C154.311 23.8907 153.898 24.36 153.38 24.696C152.863 25.0267 152.295 25.192 151.676 25.192ZM148.172 25V14.088H149.42V23.208L149.052 25H148.172ZM160.585 25.192C159.897 25.192 159.283 25.04 158.745 24.736C158.211 24.432 157.79 23.9813 157.481 23.384C157.171 22.7867 157.017 22.0507 157.017 21.176C157.017 20.296 157.171 19.56 157.481 18.968C157.79 18.3707 158.211 17.92 158.745 17.616C159.283 17.312 159.897 17.16 160.585 17.16C161.267 17.16 161.875 17.312 162.409 17.616C162.947 17.92 163.369 18.3707 163.673 18.968C163.982 19.56 164.137 20.296 164.137 21.176C164.137 22.0507 163.982 22.7867 163.673 23.384C163.369 23.9813 162.947 24.432 162.409 24.736C161.875 25.04 161.267 25.192 160.585 25.192ZM160.553 24.104C161.049 24.104 161.47 23.9867 161.817 23.752C162.163 23.512 162.425 23.1733 162.601 22.736C162.782 22.2987 162.873 21.7787 162.873 21.176C162.873 20.264 162.683 19.5467 162.305 19.024C161.926 18.496 161.363 18.232 160.617 18.232C160.115 18.232 159.691 18.352 159.345 18.592C159.003 18.8267 158.742 19.1653 158.561 19.608C158.385 20.0453 158.297 20.568 158.297 21.176C158.297 22.0773 158.486 22.792 158.865 23.32C159.249 23.8427 159.811 24.104 160.553 24.104ZM171.927 17.336H173.175V25H171.927V17.336ZM166.503 17.336H167.751V22.104C167.751 22.744 167.905 23.2293 168.215 23.56C168.529 23.8907 168.977 24.056 169.559 24.056C170.039 24.056 170.455 23.928 170.807 23.672C171.164 23.416 171.439 23.064 171.631 22.616C171.828 22.1627 171.927 21.6453 171.927 21.064H172.391C172.391 21.9227 172.265 22.656 172.015 23.264C171.769 23.872 171.42 24.3387 170.967 24.664C170.519 24.984 169.991 25.144 169.383 25.144C168.807 25.144 168.303 25.0373 167.871 24.824C167.439 24.6107 167.103 24.288 166.863 23.856C166.623 23.4187 166.503 22.8667 166.503 22.2V17.336ZM178.926 25.192C178.51 25.192 178.137 25.112 177.806 24.952C177.475 24.792 177.214 24.552 177.022 24.232C176.83 23.912 176.734 23.512 176.734 23.032V15.224H177.966V23C177.966 23.7893 178.334 24.184 179.07 24.184C179.289 24.184 179.499 24.16 179.702 24.112C179.91 24.064 180.142 23.992 180.398 23.896L180.574 24.792C180.302 24.9093 180.03 25.0053 179.758 25.08C179.491 25.1547 179.214 25.192 178.926 25.192ZM175.502 18.216V17.352H180.382V18.216H175.502ZM35.368 45.192C34.6267 45.192 34.008 45.088 33.512 44.88C33.016 44.6667 32.64 44.376 32.384 44.008C32.128 43.6347 31.992 43.208 31.976 42.728H33.176C33.2027 43.2133 33.3973 43.5787 33.76 43.824C34.128 44.064 34.6267 44.184 35.256 44.184C35.5867 44.184 35.8907 44.1307 36.168 44.024C36.4453 43.9173 36.6667 43.7707 36.832 43.584C36.9973 43.3973 37.08 43.1867 37.08 42.952C37.08 42.6533 36.9707 42.4187 36.752 42.248C36.5333 42.0773 36.184 41.928 35.704 41.8L34.216 41.32C33.5707 41.1173 33.0747 40.84 32.728 40.488C32.3867 40.1307 32.216 39.704 32.216 39.208C32.216 38.5893 32.488 38.0933 33.032 37.72C33.576 37.3467 34.2907 37.16 35.176 37.16C36.1147 37.16 36.8427 37.352 37.36 37.736C37.8773 38.12 38.1467 38.6 38.168 39.176H36.936C36.888 38.84 36.7173 38.5867 36.424 38.416C36.1307 38.24 35.7147 38.152 35.176 38.152C34.6587 38.152 34.2533 38.2693 33.96 38.504C33.672 38.7333 33.528 38.9893 33.528 39.272C33.528 39.8 33.9813 40.1893 34.888 40.44L36.408 40.952C37.064 41.1493 37.5653 41.408 37.912 41.728C38.264 42.048 38.44 42.456 38.44 42.952C38.44 43.336 38.3147 43.6987 38.064 44.04C37.8133 44.3813 37.4587 44.6587 37 44.872C36.5413 45.0853 35.9973 45.192 35.368 45.192ZM43.9503 45.192C43.2623 45.192 42.6489 45.04 42.1102 44.736C41.5769 44.432 41.1556 43.9813 40.8462 43.384C40.5369 42.7867 40.3822 42.0507 40.3822 41.176C40.3822 40.296 40.5369 39.56 40.8462 38.968C41.1556 38.3707 41.5769 37.92 42.1102 37.616C42.6489 37.312 43.2623 37.16 43.9503 37.16C44.6329 37.16 45.2409 37.312 45.7743 37.616C46.3129 37.92 46.7343 38.3707 47.0382 38.968C47.3476 39.56 47.5023 40.296 47.5023 41.176C47.5023 42.0507 47.3476 42.7867 47.0382 43.384C46.7343 43.9813 46.3129 44.432 45.7743 44.736C45.2409 45.04 44.6329 45.192 43.9503 45.192ZM43.9183 44.104C44.4143 44.104 44.8356 43.9867 45.1823 43.752C45.5289 43.512 45.7902 43.1733 45.9662 42.736C46.1476 42.2987 46.2383 41.7787 46.2383 41.176C46.2383 40.264 46.0489 39.5467 45.6702 39.024C45.2916 38.496 44.7289 38.232 43.9823 38.232C43.4809 38.232 43.0569 38.352 42.7102 38.592C42.3689 38.8267 42.1076 39.1653 41.9262 39.608C41.7503 40.0453 41.6623 40.568 41.6623 41.176C41.6623 42.0773 41.8516 42.792 42.2302 43.32C42.6143 43.8427 43.1769 44.104 43.9183 44.104ZM60.8443 45V40.504C60.8443 39.7733 60.6683 39.2187 60.3162 38.84C59.9696 38.456 59.5003 38.264 58.9082 38.264C58.2149 38.264 57.6842 38.5333 57.3162 39.072C56.9482 39.6053 56.7642 40.344 56.7642 41.288H56.1883C56.1883 40.6 56.2549 39.9973 56.3882 39.48C56.5269 38.9627 56.7269 38.5333 56.9882 38.192C57.2496 37.8453 57.5669 37.5867 57.9403 37.416C58.3136 37.2453 58.7376 37.16 59.2122 37.16C59.8149 37.16 60.3296 37.296 60.7563 37.568C61.1883 37.8347 61.5189 38.2187 61.7483 38.72C61.9776 39.2213 62.0922 39.816 62.0922 40.504V45H60.8443ZM50.0922 45V37.352H51.1642L51.3082 38.888C51.5482 38.3333 51.8842 37.9067 52.3162 37.608C52.7536 37.3093 53.2763 37.16 53.8843 37.16C54.4869 37.16 55.0016 37.296 55.4282 37.568C55.8602 37.8347 56.1909 38.2187 56.4202 38.72C56.6496 39.2213 56.7642 39.816 56.7642 40.504V45H55.5322V40.504C55.5322 39.7733 55.3562 39.2187 55.0043 38.84C54.6576 38.456 54.1829 38.264 53.5802 38.264C53.1216 38.264 52.7242 38.3893 52.3882 38.64C52.0522 38.8907 51.7936 39.2507 51.6122 39.72C51.4309 40.184 51.3402 40.7387 51.3402 41.384V45H50.0922ZM67.877 45.192C67.2157 45.192 66.6237 45.024 66.101 44.688C65.5837 44.3467 65.173 43.8747 64.869 43.272C64.5703 42.6693 64.421 41.976 64.421 41.192C64.421 40.3547 64.5703 39.6347 64.869 39.032C65.1677 38.4293 65.5757 37.968 66.093 37.648C66.6157 37.3227 67.2103 37.16 67.877 37.16C68.4583 37.16 68.9543 37.2773 69.365 37.512C69.7757 37.7467 70.1063 38.064 70.357 38.464C70.6077 38.864 70.781 39.3173 70.877 39.824C70.9783 40.3253 71.0077 40.8453 70.965 41.384H65.429V40.616H70.141L69.773 40.856C69.789 40.5413 69.7703 40.2267 69.717 39.912C69.669 39.5973 69.5757 39.3093 69.437 39.048C69.2983 38.7813 69.1037 38.568 68.853 38.408C68.6023 38.248 68.2823 38.168 67.893 38.168C67.4023 38.168 66.9917 38.2933 66.661 38.544C66.3303 38.7947 66.0823 39.1253 65.917 39.536C65.7517 39.9413 65.669 40.3813 65.669 40.856V41.368C65.669 41.9013 65.749 42.3787 65.909 42.8C66.0743 43.2213 66.3197 43.5547 66.645 43.8C66.9703 44.0453 67.381 44.168 67.877 44.168C68.373 44.168 68.781 44.048 69.101 43.808C69.421 43.568 69.6157 43.2133 69.685 42.744H70.981C70.901 43.2507 70.7197 43.688 70.437 44.056C70.1543 44.4187 69.7943 44.6987 69.357 44.896C68.9197 45.0933 68.4263 45.192 67.877 45.192ZM75.9517 45.192C75.5357 45.192 75.1624 45.112 74.8317 44.952C74.5011 44.792 74.2397 44.552 74.0477 44.232C73.8557 43.912 73.7597 43.512 73.7597 43.032V35.224H74.9917V43C74.9917 43.7893 75.3597 44.184 76.0957 44.184C76.3144 44.184 76.5251 44.16 76.7277 44.112C76.9357 44.064 77.1677 43.992 77.4237 43.896L77.5997 44.792C77.3277 44.9093 77.0557 45.0053 76.7837 45.08C76.5171 45.1547 76.2397 45.192 75.9517 45.192ZM72.5277 38.216V37.352H77.4077V38.216H72.5277ZM85.2154 45V40.504C85.2154 39.7733 85.0394 39.2187 84.6874 38.84C84.3407 38.456 83.866 38.264 83.2634 38.264C82.8047 38.264 82.4074 38.3893 82.0714 38.64C81.7354 38.8907 81.4767 39.2507 81.2954 39.72C81.114 40.184 81.0234 40.7387 81.0234 41.384H80.5434C80.5434 40.4933 80.6607 39.7333 80.8954 39.104C81.13 38.4747 81.4714 37.9947 81.9194 37.664C82.3727 37.328 82.922 37.16 83.5674 37.16C84.17 37.16 84.6847 37.296 85.1114 37.568C85.5434 37.8347 85.874 38.2187 86.1034 38.72C86.3327 39.2213 86.4474 39.816 86.4474 40.504V45H85.2154ZM79.7754 45V34.088H81.0234V45H79.7754ZM90.2956 35.544C90.0396 35.544 89.837 35.472 89.6876 35.328C89.5383 35.1787 89.4636 34.984 89.4636 34.744C89.4636 34.5093 89.5383 34.3227 89.6876 34.184C89.837 34.0453 90.0396 33.976 90.2956 33.976C90.5516 33.976 90.7543 34.0453 90.9036 34.184C91.053 34.3227 91.1276 34.5093 91.1276 34.744C91.1276 34.984 91.053 35.1787 90.9036 35.328C90.7543 35.472 90.5516 35.544 90.2956 35.544ZM89.6716 45V37.336H90.9196V45H89.6716ZM99.9572 45V40.504C99.9572 39.7733 99.7812 39.2187 99.4292 38.84C99.0826 38.456 98.6079 38.264 98.0052 38.264C97.5466 38.264 97.1492 38.3893 96.8132 38.64C96.4772 38.8907 96.2186 39.2507 96.0372 39.72C95.8559 40.184 95.7652 40.7387 95.7652 41.384H95.2852C95.2852 40.4933 95.4026 39.7333 95.6372 39.104C95.8719 38.4747 96.2132 37.9947 96.6612 37.664C97.1146 37.328 97.6639 37.16 98.3092 37.16C98.9119 37.16 99.4266 37.296 99.8532 37.568C100.285 37.8347 100.616 38.2187 100.845 38.72C101.075 39.2213 101.189 39.816 101.189 40.504V45H99.9572ZM94.5172 45V37.352H95.5892L95.7652 39.112V45H94.5172ZM107.037 48.936C106.253 48.936 105.573 48.824 104.997 48.6C104.421 48.3813 103.973 48.0853 103.653 47.712C103.339 47.344 103.181 46.936 103.181 46.488C103.181 45.896 103.397 45.4427 103.829 45.128C104.267 44.8187 104.829 44.664 105.517 44.664L106.205 45.096C105.629 45.096 105.184 45.216 104.869 45.456C104.555 45.696 104.397 46.024 104.397 46.44C104.397 46.856 104.621 47.208 105.069 47.496C105.517 47.784 106.173 47.928 107.037 47.928C107.677 47.928 108.237 47.8347 108.717 47.648C109.203 47.4667 109.579 47.2267 109.845 46.928C110.117 46.6347 110.253 46.3173 110.253 45.976C110.253 45.736 110.165 45.528 109.989 45.352C109.813 45.1813 109.544 45.096 109.181 45.096H106.205C105.688 45.096 105.24 45.0187 104.861 44.864C104.488 44.704 104.2 44.496 103.997 44.24C103.795 43.984 103.693 43.704 103.693 43.4C103.693 43.08 103.784 42.808 103.965 42.584C104.147 42.36 104.381 42.1893 104.669 42.072C104.963 41.9547 105.277 41.896 105.613 41.896L105.853 42.36C105.693 42.36 105.531 42.3973 105.365 42.472C105.205 42.5413 105.069 42.648 104.957 42.792C104.851 42.9307 104.797 43.1067 104.797 43.32C104.797 43.5653 104.899 43.7707 105.101 43.936C105.304 44.1013 105.672 44.184 106.205 44.184H109.181C109.901 44.184 110.467 44.336 110.877 44.64C111.293 44.944 111.501 45.368 111.501 45.912C111.501 46.4133 111.323 46.8933 110.965 47.352C110.608 47.816 110.096 48.1947 109.429 48.488C108.763 48.7867 107.965 48.936 107.037 48.936ZM107.261 42.76C106.675 42.76 106.144 42.6427 105.669 42.408C105.2 42.1733 104.827 41.8453 104.549 41.424C104.277 41.0027 104.141 40.5147 104.141 39.96C104.141 39.4 104.277 38.9093 104.549 38.488C104.827 38.0667 105.2 37.7413 105.669 37.512C106.144 37.2773 106.675 37.16 107.261 37.16C107.832 37.16 108.349 37.2773 108.813 37.512C109.283 37.7413 109.656 38.0667 109.933 38.488C110.211 38.9093 110.349 39.4 110.349 39.96C110.349 40.5147 110.211 41.0027 109.933 41.424C109.656 41.8453 109.283 42.1733 108.813 42.408C108.349 42.6427 107.832 42.76 107.261 42.76ZM107.261 41.864C107.848 41.864 108.304 41.6827 108.629 41.32C108.955 40.9573 109.117 40.504 109.117 39.96C109.117 39.4 108.955 38.9467 108.629 38.6C108.304 38.248 107.848 38.072 107.261 38.072C106.68 38.072 106.221 38.248 105.885 38.6C105.555 38.9467 105.389 39.4 105.389 39.96C105.389 40.504 105.555 40.9573 105.885 41.32C106.221 41.6827 106.68 41.864 107.261 41.864ZM109.773 38.376L109.181 38.136C109.181 37.688 109.269 37.296 109.445 36.96C109.621 36.6187 109.872 36.3547 110.197 36.168C110.523 35.976 110.909 35.88 111.357 35.88L111.261 37.112C110.781 37.112 110.413 37.216 110.157 37.424C109.901 37.6267 109.773 37.944 109.773 38.376ZM120.138 45.192C119.476 45.192 118.884 45.024 118.362 44.688C117.844 44.3467 117.434 43.8747 117.13 43.272C116.831 42.6693 116.682 41.976 116.682 41.192C116.682 40.3547 116.831 39.6347 117.13 39.032C117.428 38.4293 117.836 37.968 118.354 37.648C118.876 37.3227 119.471 37.16 120.138 37.16C120.719 37.16 121.215 37.2773 121.626 37.512C122.036 37.7467 122.367 38.064 122.618 38.464C122.868 38.864 123.042 39.3173 123.138 39.824C123.239 40.3253 123.268 40.8453 123.226 41.384H117.69V40.616H122.402L122.034 40.856C122.05 40.5413 122.031 40.2267 121.978 39.912C121.93 39.5973 121.836 39.3093 121.698 39.048C121.559 38.7813 121.364 38.568 121.114 38.408C120.863 38.248 120.543 38.168 120.154 38.168C119.663 38.168 119.252 38.2933 118.922 38.544C118.591 38.7947 118.343 39.1253 118.178 39.536C118.012 39.9413 117.93 40.3813 117.93 40.856V41.368C117.93 41.9013 118.01 42.3787 118.17 42.8C118.335 43.2213 118.58 43.5547 118.906 43.8C119.231 44.0453 119.642 44.168 120.138 44.168C120.634 44.168 121.042 44.048 121.362 43.808C121.682 43.568 121.876 43.2133 121.946 42.744H123.242C123.162 43.2507 122.98 43.688 122.698 44.056C122.415 44.4187 122.055 44.6987 121.618 44.896C121.18 45.0933 120.687 45.192 120.138 45.192ZM125.86 45V34.088H127.108V45H125.86ZM133.257 45.192C132.515 45.192 131.897 45.088 131.401 44.88C130.905 44.6667 130.529 44.376 130.273 44.008C130.017 43.6347 129.881 43.208 129.865 42.728H131.065C131.091 43.2133 131.286 43.5787 131.649 43.824C132.017 44.064 132.515 44.184 133.145 44.184C133.475 44.184 133.779 44.1307 134.057 44.024C134.334 43.9173 134.555 43.7707 134.721 43.584C134.886 43.3973 134.969 43.1867 134.969 42.952C134.969 42.6533 134.859 42.4187 134.641 42.248C134.422 42.0773 134.073 41.928 133.593 41.8L132.105 41.32C131.459 41.1173 130.963 40.84 130.617 40.488C130.275 40.1307 130.105 39.704 130.105 39.208C130.105 38.5893 130.377 38.0933 130.921 37.72C131.465 37.3467 132.179 37.16 133.065 37.16C134.003 37.16 134.731 37.352 135.249 37.736C135.766 38.12 136.035 38.6 136.057 39.176H134.825C134.777 38.84 134.606 38.5867 134.313 38.416C134.019 38.24 133.603 38.152 133.065 38.152C132.547 38.152 132.142 38.2693 131.849 38.504C131.561 38.7333 131.417 38.9893 131.417 39.272C131.417 39.8 131.87 40.1893 132.777 40.44L134.297 40.952C134.953 41.1493 135.454 41.408 135.801 41.728C136.153 42.048 136.329 42.456 136.329 42.952C136.329 43.336 136.203 43.6987 135.953 44.04C135.702 44.3813 135.347 44.6587 134.889 44.872C134.43 45.0853 133.886 45.192 133.257 45.192ZM141.727 45.192C141.066 45.192 140.474 45.024 139.951 44.688C139.434 44.3467 139.023 43.8747 138.719 43.272C138.42 42.6693 138.271 41.976 138.271 41.192C138.271 40.3547 138.42 39.6347 138.719 39.032C139.018 38.4293 139.426 37.968 139.943 37.648C140.466 37.3227 141.06 37.16 141.727 37.16C142.308 37.16 142.804 37.2773 143.215 37.512C143.626 37.7467 143.956 38.064 144.207 38.464C144.458 38.864 144.631 39.3173 144.727 39.824C144.828 40.3253 144.858 40.8453 144.815 41.384H139.279V40.616H143.991L143.623 40.856C143.639 40.5413 143.62 40.2267 143.567 39.912C143.519 39.5973 143.426 39.3093 143.287 39.048C143.148 38.7813 142.954 38.568 142.703 38.408C142.452 38.248 142.132 38.168 141.743 38.168C141.252 38.168 140.842 38.2933 140.511 38.544C140.18 38.7947 139.932 39.1253 139.767 39.536C139.602 39.9413 139.519 40.3813 139.519 40.856V41.368C139.519 41.9013 139.599 42.3787 139.759 42.8C139.924 43.2213 140.17 43.5547 140.495 43.8C140.82 44.0453 141.231 44.168 141.727 44.168C142.223 44.168 142.631 44.048 142.951 43.808C143.271 43.568 143.466 43.2133 143.535 42.744H144.831C144.751 43.2507 144.57 43.688 144.287 44.056C144.004 44.4187 143.644 44.6987 143.207 44.896C142.77 45.0933 142.276 45.192 141.727 45.192ZM147.578 42.184L147.418 34.984H148.746L148.586 42.184H147.578ZM148.082 45.144C147.81 45.144 147.586 45.0587 147.41 44.888C147.234 44.7173 147.146 44.504 147.146 44.248C147.146 43.9973 147.234 43.784 147.41 43.608C147.586 43.4267 147.81 43.336 148.082 43.336C148.348 43.336 148.572 43.4267 148.754 43.608C148.94 43.784 149.034 43.9973 149.034 44.248C149.034 44.504 148.94 44.7173 148.754 44.888C148.572 45.0587 148.348 45.144 148.082 45.144Z" fill="#333333"/>
</g>
<defs>
<filter id="filter0_d_7075_5719" x="0" y="0" width="201.035" height="68" filterUnits="userSpaceOnUse" color-interpolation-filters="sRGB">
<feFlood flood-opacity="0" result="BackgroundImageFix"/>
<feColorMatrix in="SourceAlpha" type="matrix" values="0 0 0 0 0 0 0 0 0 0 0 0 0 0 0 0 0 0 127 0" result="hardAlpha"/>
<feOffset dy="4"/>
<feGaussianBlur stdDeviation="3"/>
<feComposite in2="hardAlpha" operator="out"/>
<feColorMatrix type="matrix" values="0 0 0 0 0 0 0 0 0 0 0 0 0 0 0 0 0 0 0.1 0"/>
<feBlend mode="normal" in2="BackgroundImageFix" result="effect1_dropShadow_7075_5719"/>
<feBlend mode="normal" in="SourceGraphic" in2="effect1_dropShadow_7075_5719" result="shape"/>
</filter>
<filter id="filter1_d_7075_5719" x="25.0959" y="11.9756" width="161.478" height="46.96" filterUnits="userSpaceOnUse" color-interpolation-filters="sRGB">
<feFlood flood-opacity="0" result="BackgroundImageFix"/>
<feColorMatrix in="SourceAlpha" type="matrix" values="0 0 0 0 0 0 0 0 0 0 0 0 0 0 0 0 0 0 127 0" result="hardAlpha"/>
<feOffset dy="4"/>
<feGaussianBlur stdDeviation="3"/>
<feComposite in2="hardAlpha" operator="out"/>
<feColorMatrix type="matrix" values="0 0 0 0 0 0 0 0 0 0 0 0 0 0 0 0 0 0 0.05 0"/>
<feBlend mode="normal" in2="BackgroundImageFix" result="effect1_dropShadow_7075_5719"/>
<feBlend mode="normal" in="SourceGraphic" in2="effect1_dropShadow_7075_5719" result="shape"/>
</filter>
</defs>
</svg>
