<svg width="256" height="68" viewBox="0 0 256 68" fill="none" xmlns="http://www.w3.org/2000/svg">
<mask id="path-1-inside-1_7070_5668" fill="white">
<path d="M248.724 27.3669L239 19L239 11C239 6.02944 234.971 2 230 2L8.99997 1.99998C4.02941 1.99998 -2.59742e-05 6.02942 -2.64087e-05 11L-2.97308e-05 49C-3.01653e-05 53.9705 4.0294 58 8.99997 58L230 58C234.971 58 239 53.9706 239 49L239 39.5L248.612 32.0069C250.106 30.8425 250.16 28.6022 248.724 27.3669Z"/>
</mask>
<path d="M248.724 27.3669L239 19L239 11C239 6.02944 234.971 2 230 2L8.99997 1.99998C4.02941 1.99998 -2.59742e-05 6.02942 -2.64087e-05 11L-2.97308e-05 49C-3.01653e-05 53.9705 4.0294 58 8.99997 58L230 58C234.971 58 239 53.9706 239 49L239 39.5L248.612 32.0069C250.106 30.8425 250.16 28.6022 248.724 27.3669Z" fill="white"/>
<path d="M239 19L237.6 19L237.6 19.6423L238.087 20.0612L239 19ZM248.724 27.3669L249.637 26.3056L249.637 26.3056L248.724 27.3669ZM248.612 32.0069L247.751 30.9028L247.751 30.9028L248.612 32.0069ZM239 39.5L238.139 38.3959L237.6 38.8162L237.6 39.5L239 39.5ZM238.087 20.0612L247.811 28.4281L249.637 26.3056L239.913 17.9388L238.087 20.0612ZM247.751 30.9028L238.139 38.3959L239.861 40.6041L249.473 33.1111L247.751 30.9028ZM247.811 28.4281C248.577 29.0869 248.548 30.2817 247.751 30.9028L249.473 33.1111C251.663 31.4032 251.743 28.1175 249.637 26.3056L247.811 28.4281ZM230 56.6L8.99997 56.6L8.99997 59.4L230 59.4L230 56.6ZM1.39997 49L1.39997 11L-1.40003 11L-1.40003 49L1.39997 49ZM8.99997 3.39998L230 3.4L230 0.599998L8.99997 0.599979L8.99997 3.39998ZM237.6 39.5L237.6 49L240.4 49L240.4 39.5L237.6 39.5ZM237.6 11L237.6 19L240.4 19L240.4 11L237.6 11ZM230 3.4C234.197 3.4 237.6 6.80264 237.6 11L240.4 11C240.4 5.25624 235.744 0.599999 230 0.599998L230 3.4ZM1.39997 11C1.39997 6.80261 4.80261 3.39998 8.99997 3.39998L8.99997 0.599979C3.25621 0.599978 -1.40003 5.25622 -1.40003 11L1.39997 11ZM8.99997 56.6C4.8026 56.6 1.39997 53.1973 1.39997 49L-1.40003 49C-1.40003 54.7437 3.2562 59.4 8.99997 59.4L8.99997 56.6ZM230 59.4C235.744 59.4 240.4 54.7438 240.4 49L237.6 49C237.6 53.1974 234.197 56.6 230 56.6L230 59.4Z" fill="white" mask="url(#path-1-inside-1_7070_5668)"/>
<g filter="url(#filter0_d_7070_5668)">
<mask id="path-3-inside-2_7070_5668" fill="white">
<path d="M248.724 27.3669L239 19L239 11C239 6.02944 234.971 2 230 2L159 1.99999C154.029 1.99999 150 6.02943 150 11L150 49C150 53.9705 154.029 58 159 58L230 58C234.971 58 239 53.9706 239 49L239 39.5L248.612 32.0069C250.106 30.8425 250.16 28.6022 248.724 27.3669Z"/>
</mask>
<path d="M248.724 27.3669L239 19L239 11C239 6.02944 234.971 2 230 2L159 1.99999C154.029 1.99999 150 6.02943 150 11L150 49C150 53.9705 154.029 58 159 58L230 58C234.971 58 239 53.9706 239 49L239 39.5L248.612 32.0069C250.106 30.8425 250.16 28.6022 248.724 27.3669Z" fill="white"/>
<path d="M239 19L237.6 19L237.6 19.6423L238.087 20.0612L239 19ZM248.724 27.3669L249.637 26.3056L249.637 26.3056L248.724 27.3669ZM248.612 32.0069L247.751 30.9028L247.751 30.9028L248.612 32.0069ZM239 39.5L238.139 38.3959L237.6 38.8162L237.6 39.5L239 39.5ZM230 58L230 59.4L230 59.4L230 58ZM159 58L159 56.6L159 56.6L159 58ZM238.087 20.0612L247.811 28.4281L249.637 26.3056L239.913 17.9388L238.087 20.0612ZM247.751 30.9028L238.139 38.3959L239.861 40.6041L249.473 33.1111L247.751 30.9028ZM247.811 28.4281C248.577 29.0869 248.548 30.2817 247.751 30.9028L249.473 33.1111C251.663 31.4032 251.743 28.1175 249.637 26.3056L247.811 28.4281ZM230 56.6L159 56.6L159 59.4L230 59.4L230 56.6ZM151.4 49L151.4 11L148.6 11L148.6 49L151.4 49ZM159 3.39999L230 3.4L230 0.599998L159 0.599992L159 3.39999ZM237.6 39.5L237.6 49L240.4 49L240.4 39.5L237.6 39.5ZM237.6 11L237.6 19L240.4 19L240.4 11L237.6 11ZM230 3.4C234.197 3.4 237.6 6.80264 237.6 11L240.4 11C240.4 5.25624 235.744 0.599999 230 0.599998L230 3.4ZM151.4 11C151.4 6.80263 154.803 3.39999 159 3.39999L159 0.599992C153.256 0.599992 148.6 5.25623 148.6 11L151.4 11ZM159 56.6C154.803 56.6 151.4 53.1973 151.4 49L148.6 49C148.6 54.7437 153.256 59.4 159 59.4L159 56.6ZM230 59.4C235.744 59.4 240.4 54.7438 240.4 49L237.6 49C237.6 53.1974 234.197 56.6 230 56.6L230 59.4Z" fill="#333333" mask="url(#path-3-inside-2_7070_5668)"/>
</g>
<g filter="url(#filter1_d_7070_5668)">
<path d="M208.364 25.692C207.532 25.692 206.788 25.5 206.132 25.116C205.476 24.732 204.958 24.156 204.58 23.388C204.201 22.6147 204.012 21.6493 204.012 20.492C204.012 19.3187 204.201 18.348 204.58 17.58C204.958 16.8067 205.476 16.2307 206.132 15.852C206.788 15.468 207.532 15.276 208.364 15.276C209.196 15.276 209.94 15.468 210.596 15.852C211.252 16.236 211.769 16.8147 212.148 17.588C212.526 18.3613 212.716 19.3293 212.716 20.492C212.716 21.66 212.526 22.6307 212.148 23.404C211.769 24.172 211.252 24.7453 210.596 25.124C209.94 25.5027 209.196 25.692 208.364 25.692ZM208.364 24.54C209.308 24.54 210.052 24.196 210.596 23.508C211.145 22.82 211.42 21.8093 211.42 20.476C211.42 19.1693 211.145 18.164 210.596 17.46C210.052 16.7507 209.308 16.396 208.364 16.396C207.43 16.396 206.686 16.7507 206.132 17.46C205.582 18.1693 205.308 19.18 205.308 20.492C205.308 21.82 205.582 22.828 206.132 23.516C206.686 24.1987 207.43 24.54 208.364 24.54ZM221.076 15.452H222.804L216.388 22.06V20.3L221.076 15.452ZM218.196 19.692L223.076 25.5H221.444L217.3 20.508L218.196 19.692ZM215.3 15.452H216.564V25.5H215.3V15.452ZM225.307 22.684L225.147 15.484H226.475L226.315 22.684H225.307ZM225.811 25.644C225.539 25.644 225.315 25.5587 225.139 25.388C224.963 25.2173 224.875 25.004 224.875 24.748C224.875 24.4973 224.963 24.284 225.139 24.108C225.315 23.9267 225.539 23.836 225.811 23.836C226.077 23.836 226.301 23.9267 226.483 24.108C226.669 24.284 226.763 24.4973 226.763 24.748C226.763 25.004 226.669 25.2173 226.483 25.388C226.301 25.5587 226.077 25.644 225.811 25.644ZM160.101 35.452H161.589L166.693 43.724H166.581V35.452H167.829V45.5H166.437L161.157 36.956H161.349V45.5H160.101V35.452ZM173.871 45.692C173.209 45.692 172.617 45.524 172.095 45.188C171.577 44.8467 171.167 44.3747 170.863 43.772C170.564 43.1693 170.415 42.476 170.415 41.692C170.415 40.8547 170.564 40.1347 170.863 39.532C171.161 38.9293 171.569 38.468 172.087 38.148C172.609 37.8227 173.204 37.66 173.871 37.66C174.452 37.66 174.948 37.7773 175.359 38.012C175.769 38.2467 176.1 38.564 176.351 38.964C176.601 39.364 176.775 39.8173 176.871 40.324C176.972 40.8253 177.001 41.3453 176.959 41.884H171.423V41.116H176.135L175.767 41.356C175.783 41.0413 175.764 40.7267 175.711 40.412C175.663 40.0973 175.569 39.8093 175.431 39.548C175.292 39.2813 175.097 39.068 174.847 38.908C174.596 38.748 174.276 38.668 173.887 38.668C173.396 38.668 172.985 38.7933 172.655 39.044C172.324 39.2947 172.076 39.6253 171.911 40.036C171.745 40.4413 171.663 40.8813 171.663 41.356V41.868C171.663 42.4013 171.743 42.8787 171.903 43.3C172.068 43.7213 172.313 44.0547 172.639 44.3C172.964 44.5453 173.375 44.668 173.871 44.668C174.367 44.668 174.775 44.548 175.095 44.308C175.415 44.068 175.609 43.7133 175.679 43.244H176.975C176.895 43.7507 176.713 44.188 176.431 44.556C176.148 44.9187 175.788 45.1987 175.351 45.396C174.913 45.5933 174.42 45.692 173.871 45.692ZM178.394 45.5L181.29 41.676L178.394 37.836H179.914L182.106 40.732L184.218 37.836H185.738L182.826 41.676L185.722 45.5H184.202L182.01 42.588L179.914 45.5H178.394ZM190.293 45.692C189.877 45.692 189.504 45.612 189.173 45.452C188.842 45.292 188.581 45.052 188.389 44.732C188.197 44.412 188.101 44.012 188.101 43.532V35.724H189.333V43.5C189.333 44.2893 189.701 44.684 190.437 44.684C190.656 44.684 190.866 44.66 191.069 44.612C191.277 44.564 191.509 44.492 191.765 44.396L191.941 45.292C191.669 45.4093 191.397 45.5053 191.125 45.58C190.858 45.6547 190.581 45.692 190.293 45.692ZM186.869 38.716V37.852H191.749V38.716H186.869ZM200.842 45.692C200.154 45.692 199.54 45.54 199.002 45.236C198.468 44.932 198.047 44.4813 197.738 43.884C197.428 43.2867 197.274 42.5507 197.274 41.676C197.274 40.796 197.428 40.06 197.738 39.468C198.047 38.8707 198.468 38.42 199.002 38.116C199.54 37.812 200.154 37.66 200.842 37.66C201.524 37.66 202.132 37.812 202.666 38.116C203.204 38.42 203.626 38.8707 203.93 39.468C204.239 40.06 204.394 40.796 204.394 41.676C204.394 42.5507 204.239 43.2867 203.93 43.884C203.626 44.4813 203.204 44.932 202.666 45.236C202.132 45.54 201.524 45.692 200.842 45.692ZM200.81 44.604C201.306 44.604 201.727 44.4867 202.074 44.252C202.42 44.012 202.682 43.6733 202.858 43.236C203.039 42.7987 203.13 42.2787 203.13 41.676C203.13 40.764 202.94 40.0467 202.562 39.524C202.183 38.996 201.62 38.732 200.874 38.732C200.372 38.732 199.948 38.852 199.602 39.092C199.26 39.3267 198.999 39.6653 198.818 40.108C198.642 40.5453 198.554 41.068 198.554 41.676C198.554 42.5773 198.743 43.292 199.122 43.82C199.506 44.3427 200.068 44.604 200.81 44.604ZM212.424 45.5V41.004C212.424 40.2733 212.248 39.7187 211.896 39.34C211.549 38.956 211.074 38.764 210.472 38.764C210.013 38.764 209.616 38.8893 209.28 39.14C208.944 39.3907 208.685 39.7507 208.504 40.22C208.322 40.684 208.232 41.2387 208.232 41.884H207.752C207.752 40.9933 207.869 40.2333 208.104 39.604C208.338 38.9747 208.68 38.4947 209.128 38.164C209.581 37.828 210.13 37.66 210.776 37.66C211.378 37.66 211.893 37.796 212.32 38.068C212.752 38.3347 213.082 38.7187 213.312 39.22C213.541 39.7213 213.656 40.316 213.656 41.004V45.5H212.424ZM206.984 45.5V37.852H208.056L208.232 39.612V45.5H206.984ZM219.456 45.692C218.794 45.692 218.202 45.524 217.68 45.188C217.162 44.8467 216.752 44.3747 216.448 43.772C216.149 43.1693 216 42.476 216 41.692C216 40.8547 216.149 40.1347 216.448 39.532C216.746 38.9293 217.154 38.468 217.672 38.148C218.194 37.8227 218.789 37.66 219.456 37.66C220.037 37.66 220.533 37.7773 220.944 38.012C221.354 38.2467 221.685 38.564 221.936 38.964C222.186 39.364 222.36 39.8173 222.456 40.324C222.557 40.8253 222.586 41.3453 222.544 41.884H217.008V41.116H221.72L221.352 41.356C221.368 41.0413 221.349 40.7267 221.296 40.412C221.248 40.0973 221.154 39.8093 221.016 39.548C220.877 39.2813 220.682 39.068 220.432 38.908C220.181 38.748 219.861 38.668 219.472 38.668C218.981 38.668 218.57 38.7933 218.24 39.044C217.909 39.2947 217.661 39.6253 217.496 40.036C217.33 40.4413 217.248 40.8813 217.248 41.356V41.868C217.248 42.4013 217.328 42.8787 217.488 43.3C217.653 43.7213 217.898 44.0547 218.224 44.3C218.549 44.5453 218.96 44.668 219.456 44.668C219.952 44.668 220.36 44.548 220.68 44.308C221 44.068 221.194 43.7133 221.264 43.244H222.56C222.48 43.7507 222.298 44.188 222.016 44.556C221.733 44.9187 221.373 45.1987 220.936 45.396C220.498 45.5933 220.005 45.692 219.456 45.692ZM225.307 42.684L225.147 35.484H226.475L226.315 42.684H225.307ZM225.811 45.644C225.539 45.644 225.315 45.5587 225.139 45.388C224.963 45.2173 224.875 45.004 224.875 44.748C224.875 44.4973 224.963 44.284 225.139 44.108C225.315 43.9267 225.539 43.836 225.811 43.836C226.077 43.836 226.301 43.9267 226.483 44.108C226.669 44.284 226.763 44.4973 226.763 44.748C226.763 45.004 226.669 45.2173 226.483 45.388C226.301 45.5587 226.077 45.644 225.811 45.644Z" fill="#333333"/>
</g>
<defs>
<filter id="filter0_d_7070_5668" x="144" y="0" width="111.767" height="68" filterUnits="userSpaceOnUse" color-interpolation-filters="sRGB">
<feFlood flood-opacity="0" result="BackgroundImageFix"/>
<feColorMatrix in="SourceAlpha" type="matrix" values="0 0 0 0 0 0 0 0 0 0 0 0 0 0 0 0 0 0 127 0" result="hardAlpha"/>
<feOffset dy="4"/>
<feGaussianBlur stdDeviation="3"/>
<feComposite in2="hardAlpha" operator="out"/>
<feColorMatrix type="matrix" values="0 0 0 0 0 0 0 0 0 0 0 0 0 0 0 0 0 0 0.1 0"/>
<feBlend mode="normal" in2="BackgroundImageFix" result="effect1_dropShadow_7070_5668"/>
<feBlend mode="normal" in="SourceGraphic" in2="effect1_dropShadow_7070_5668" result="shape"/>
</filter>
<filter id="filter1_d_7070_5668" x="154.101" y="13.2764" width="78.6611" height="42.416" filterUnits="userSpaceOnUse" color-interpolation-filters="sRGB">
<feFlood flood-opacity="0" result="BackgroundImageFix"/>
<feColorMatrix in="SourceAlpha" type="matrix" values="0 0 0 0 0 0 0 0 0 0 0 0 0 0 0 0 0 0 127 0" result="hardAlpha"/>
<feOffset dy="4"/>
<feGaussianBlur stdDeviation="3"/>
<feComposite in2="hardAlpha" operator="out"/>
<feColorMatrix type="matrix" values="0 0 0 0 0 0 0 0 0 0 0 0 0 0 0 0 0 0 0.05 0"/>
<feBlend mode="normal" in2="BackgroundImageFix" result="effect1_dropShadow_7070_5668"/>
<feBlend mode="normal" in="SourceGraphic" in2="effect1_dropShadow_7070_5668" result="shape"/>
</filter>
</defs>
</svg>
