<svg width="257" height="68" viewBox="0 0 257 68" fill="none" xmlns="http://www.w3.org/2000/svg">
<path d="M7.04333 32.6331L16.7674 41V49C16.7674 53.9706 20.7968 58 25.7674 58L247.035 58C252.005 58 256.035 53.9706 256.035 49V11C256.035 6.02944 252.005 2 247.035 2L25.7674 2C20.7968 2 16.7674 6.02944 16.7674 11V20.5L7.15555 27.9931C5.66179 29.1575 5.60761 31.3978 7.04333 32.6331Z" fill="white"/>
<g filter="url(#filter0_d_7099_6050)">
<mask id="path-2-inside-1_7099_6050" fill="white">
<path d="M7.04333 32.6331L16.7674 41V49C16.7674 53.9706 20.7968 58 25.7674 58L237.035 58C242.005 58 246.035 53.9706 246.035 49V11C246.035 6.02944 242.005 2 237.035 2L25.7674 2C20.7968 2 16.7674 6.02944 16.7674 11V20.5L7.15555 27.9931C5.66179 29.1575 5.60761 31.3978 7.04333 32.6331Z"/>
</mask>
<path d="M7.04333 32.6331L16.7674 41V49C16.7674 53.9706 20.7968 58 25.7674 58L237.035 58C242.005 58 246.035 53.9706 246.035 49V11C246.035 6.02944 242.005 2 237.035 2L25.7674 2C20.7968 2 16.7674 6.02944 16.7674 11V20.5L7.15555 27.9931C5.66179 29.1575 5.60761 31.3978 7.04333 32.6331Z" fill="white"/>
<path d="M16.7674 41H18.1674V40.3577L17.6805 39.9388L16.7674 41ZM7.04333 32.6331L6.13021 33.6944L6.13021 33.6944L7.04333 32.6331ZM7.15555 27.9931L8.0163 29.0972L8.0163 29.0972L7.15555 27.9931ZM16.7674 20.5L17.6281 21.6041L18.1674 21.1838V20.5H16.7674ZM25.7674 2V0.6V2ZM237.035 2V3.4V2ZM17.6805 39.9388L7.95644 31.5719L6.13021 33.6944L15.8542 42.0612L17.6805 39.9388ZM8.0163 29.0972L17.6281 21.6041L15.9066 19.3959L6.2948 26.8889L8.0163 29.0972ZM7.95644 31.5719C7.19073 30.9131 7.21963 29.7183 8.0163 29.0972L6.2948 26.8889C4.10396 28.5968 4.02449 31.8825 6.13021 33.6944L7.95644 31.5719ZM25.7674 3.4L237.035 3.4L237.035 0.600003L25.7674 0.6L25.7674 3.4ZM244.635 11V49H247.435V11L244.635 11ZM237.035 56.6L25.7674 56.6V59.4L237.035 59.4V56.6ZM18.1674 20.5V11H15.3674V20.5H18.1674ZM18.1674 49V41H15.3674V49H18.1674ZM25.7674 56.6C21.57 56.6 18.1674 53.1974 18.1674 49H15.3674C15.3674 54.7438 20.0236 59.4 25.7674 59.4V56.6ZM244.635 49C244.635 53.1974 241.232 56.6 237.035 56.6V59.4C242.778 59.4 247.435 54.7438 247.435 49H244.635ZM237.035 3.4C241.232 3.4 244.635 6.80264 244.635 11L247.435 11C247.435 5.25624 242.778 0.600003 237.035 0.600003V3.4ZM25.7674 0.6C20.0236 0.6 15.3674 5.25624 15.3674 11H18.1674C18.1674 6.80264 21.57 3.4 25.7674 3.4V0.6Z" fill="#333333" mask="url(#path-2-inside-1_7099_6050)"/>
</g>
<g filter="url(#filter1_d_7099_6050)">
<path d="M31.144 14.952H32.648L35.528 19.832H35.208L38.136 14.952H39.624L35.992 20.872V25H34.728V20.872L31.144 14.952ZM43.2784 25.192C42.5904 25.192 41.977 25.04 41.4384 24.736C40.905 24.432 40.4837 23.9813 40.1744 23.384C39.865 22.7867 39.7104 22.0507 39.7104 21.176C39.7104 20.296 39.865 19.56 40.1744 18.968C40.4837 18.3707 40.905 17.92 41.4384 17.616C41.977 17.312 42.5904 17.16 43.2784 17.16C43.961 17.16 44.569 17.312 45.1024 17.616C45.641 17.92 46.0624 18.3707 46.3664 18.968C46.6757 19.56 46.8304 20.296 46.8304 21.176C46.8304 22.0507 46.6757 22.7867 46.3664 23.384C46.0624 23.9813 45.641 24.432 45.1024 24.736C44.569 25.04 43.961 25.192 43.2784 25.192ZM43.2464 24.104C43.7424 24.104 44.1637 23.9867 44.5104 23.752C44.857 23.512 45.1184 23.1733 45.2944 22.736C45.4757 22.2987 45.5664 21.7787 45.5664 21.176C45.5664 20.264 45.377 19.5467 44.9984 19.024C44.6197 18.496 44.057 18.232 43.3104 18.232C42.809 18.232 42.385 18.352 42.0384 18.592C41.697 18.8267 41.4357 19.1653 41.2544 19.608C41.0784 20.0453 40.9904 20.568 40.9904 21.176C40.9904 22.0773 41.1797 22.792 41.5584 23.32C41.9424 23.8427 42.505 24.104 43.2464 24.104ZM54.6204 17.336H55.8684V25H54.6204V17.336ZM49.1964 17.336H50.4444V22.104C50.4444 22.744 50.599 23.2293 50.9084 23.56C51.223 23.8907 51.671 24.056 52.2524 24.056C52.7324 24.056 53.1484 23.928 53.5004 23.672C53.8577 23.416 54.1324 23.064 54.3244 22.616C54.5217 22.1627 54.6204 21.6453 54.6204 21.064H55.0844C55.0844 21.9227 54.959 22.656 54.7084 23.264C54.463 23.872 54.1137 24.3387 53.6604 24.664C53.2124 24.984 52.6844 25.144 52.0764 25.144C51.5004 25.144 50.9964 25.0373 50.5644 24.824C50.1324 24.6107 49.7964 24.288 49.5564 23.856C49.3164 23.4187 49.1964 22.8667 49.1964 22.2V17.336ZM63.2247 25V14.088H64.4727V25H63.2247ZM72.6051 25L72.4451 23.32V20.04C72.4451 19.352 72.2985 18.8587 72.0051 18.56C71.7118 18.256 71.2718 18.104 70.6851 18.104C70.3545 18.104 70.0531 18.152 69.7811 18.248C69.5145 18.344 69.3011 18.4933 69.1411 18.696C68.9865 18.8933 68.9091 19.1493 68.9091 19.464H67.5171C67.5171 18.9093 67.6531 18.464 67.9251 18.128C68.1971 17.7867 68.5705 17.5413 69.0451 17.392C69.5251 17.2373 70.0718 17.16 70.6851 17.16C71.2718 17.16 71.7918 17.2587 72.2451 17.456C72.6985 17.6533 73.0531 17.968 73.3091 18.4C73.5651 18.8267 73.6931 19.384 73.6931 20.072V25H72.6051ZM69.9971 25.192C69.3678 25.192 68.8478 25.08 68.4371 24.856C68.0265 24.632 67.7198 24.3413 67.5171 23.984C67.3145 23.6267 67.2131 23.2507 67.2131 22.856C67.2131 22.3387 67.3411 21.9173 67.5971 21.592C67.8585 21.2667 68.2131 21.0293 68.6611 20.88C69.1091 20.7253 69.6131 20.648 70.1731 20.648C70.5731 20.648 70.9731 20.688 71.3731 20.768C71.7785 20.848 72.1731 20.9573 72.5571 21.096V21.88C72.2371 21.752 71.8745 21.6507 71.4691 21.576C71.0691 21.5013 70.7011 21.464 70.3651 21.464C69.8531 21.464 69.4211 21.5707 69.0691 21.784C68.7171 21.992 68.5411 22.3493 68.5411 22.856C68.5411 23.2293 68.6745 23.5493 68.9411 23.816C69.2131 24.0827 69.6451 24.216 70.2371 24.216C70.6531 24.216 71.0265 24.12 71.3571 23.928C71.6931 23.7307 71.9571 23.4853 72.1491 23.192C72.3465 22.8987 72.4451 22.6053 72.4451 22.312H72.7491C72.7491 22.824 72.6371 23.2987 72.4131 23.736C72.1945 24.1733 71.8798 24.5253 71.4691 24.792C71.0585 25.0587 70.5678 25.192 69.9971 25.192ZM82.2816 25V20.504C82.2816 19.7733 82.1056 19.2187 81.7536 18.84C81.407 18.456 80.9323 18.264 80.3296 18.264C79.871 18.264 79.4736 18.3893 79.1376 18.64C78.8016 18.8907 78.543 19.2507 78.3616 19.72C78.1803 20.184 78.0896 20.7387 78.0896 21.384H77.6096C77.6096 20.4933 77.727 19.7333 77.9616 19.104C78.1963 18.4747 78.5376 17.9947 78.9856 17.664C79.439 17.328 79.9883 17.16 80.6336 17.16C81.2363 17.16 81.751 17.296 82.1776 17.568C82.6096 17.8347 82.9403 18.2187 83.1696 18.72C83.399 19.2213 83.5136 19.816 83.5136 20.504V25H82.2816ZM76.8416 25V17.352H77.9136L78.0896 19.112V25H76.8416ZM89.3939 25.192C88.7752 25.192 88.2072 25.0267 87.6899 24.696C87.1725 24.36 86.7592 23.8907 86.4499 23.288C86.1405 22.68 85.9859 21.9653 85.9859 21.144C85.9859 20.328 86.1379 19.6213 86.4419 19.024C86.7459 18.4267 87.1485 17.968 87.6499 17.648C88.1565 17.3227 88.7112 17.16 89.3139 17.16C89.8739 17.16 90.3645 17.296 90.7859 17.568C91.2125 17.84 91.5432 18.232 91.7779 18.744C92.0125 19.256 92.1299 19.8747 92.1299 20.6H91.6499C91.6499 20.0933 91.5485 19.6667 91.3459 19.32C91.1485 18.9733 90.8899 18.712 90.5699 18.536C90.2499 18.3547 89.9059 18.264 89.5379 18.264C89.1219 18.264 88.7405 18.3813 88.3939 18.616C88.0525 18.8453 87.7779 19.176 87.5699 19.608C87.3672 20.0347 87.2659 20.5467 87.2659 21.144C87.2659 21.752 87.3672 22.2747 87.5699 22.712C87.7779 23.1493 88.0525 23.4853 88.3939 23.72C88.7405 23.9547 89.1219 24.072 89.5379 24.072C89.8845 24.072 90.2179 23.9813 90.5379 23.8C90.8632 23.6187 91.1299 23.3547 91.3379 23.008C91.5459 22.656 91.6499 22.232 91.6499 21.736H92.1299C92.1299 22.4773 92.0072 23.1067 91.7619 23.624C91.5219 24.136 91.1939 24.5253 90.7779 24.792C90.3672 25.0587 89.9059 25.192 89.3939 25.192ZM91.8579 25L91.6499 23.208V14.088H92.8979V25H91.8579ZM98.9582 25.192C98.2969 25.192 97.7049 25.024 97.1822 24.688C96.6649 24.3467 96.2542 23.8747 95.9502 23.272C95.6516 22.6693 95.5022 21.976 95.5022 21.192C95.5022 20.3547 95.6516 19.6347 95.9502 19.032C96.2489 18.4293 96.6569 17.968 97.1742 17.648C97.6969 17.3227 98.2916 17.16 98.9582 17.16C99.5396 17.16 100.036 17.2773 100.446 17.512C100.857 17.7467 101.188 18.064 101.438 18.464C101.689 18.864 101.862 19.3173 101.958 19.824C102.06 20.3253 102.089 20.8453 102.046 21.384H96.5102V20.616H101.222L100.854 20.856C100.87 20.5413 100.852 20.2267 100.798 19.912C100.75 19.5973 100.657 19.3093 100.518 19.048C100.38 18.7813 100.185 18.568 99.9342 18.408C99.6836 18.248 99.3636 18.168 98.9742 18.168C98.4836 18.168 98.0729 18.2933 97.7422 18.544C97.4116 18.7947 97.1636 19.1253 96.9982 19.536C96.8329 19.9413 96.7502 20.3813 96.7502 20.856V21.368C96.7502 21.9013 96.8302 22.3787 96.9902 22.8C97.1556 23.2213 97.4009 23.5547 97.7262 23.8C98.0516 24.0453 98.4622 24.168 98.9582 24.168C99.4542 24.168 99.8622 24.048 100.182 23.808C100.502 23.568 100.697 23.2133 100.766 22.744H102.062C101.982 23.2507 101.801 23.688 101.518 24.056C101.236 24.4187 100.876 24.6987 100.438 24.896C100.001 25.0933 99.5076 25.192 98.9582 25.192ZM107.417 25.192C106.798 25.192 106.23 25.0267 105.713 24.696C105.196 24.36 104.782 23.8907 104.473 23.288C104.164 22.68 104.009 21.9653 104.009 21.144C104.009 20.328 104.161 19.6213 104.465 19.024C104.769 18.4267 105.172 17.968 105.673 17.648C106.18 17.3227 106.734 17.16 107.337 17.16C107.897 17.16 108.388 17.296 108.809 17.568C109.236 17.84 109.566 18.232 109.801 18.744C110.036 19.256 110.153 19.8747 110.153 20.6H109.673C109.673 20.0933 109.572 19.6667 109.369 19.32C109.172 18.9733 108.913 18.712 108.593 18.536C108.273 18.3547 107.929 18.264 107.561 18.264C107.145 18.264 106.764 18.3813 106.417 18.616C106.076 18.8453 105.801 19.176 105.593 19.608C105.39 20.0347 105.289 20.5467 105.289 21.144C105.289 21.752 105.39 22.2747 105.593 22.712C105.801 23.1493 106.076 23.4853 106.417 23.72C106.764 23.9547 107.145 24.072 107.561 24.072C107.908 24.072 108.241 23.9813 108.561 23.8C108.886 23.6187 109.153 23.3547 109.361 23.008C109.569 22.656 109.673 22.232 109.673 21.736H110.153C110.153 22.4773 110.03 23.1067 109.785 23.624C109.545 24.136 109.217 24.5253 108.801 24.792C108.39 25.0587 107.929 25.192 107.417 25.192ZM109.881 25L109.673 23.208V14.088H110.921V25H109.881ZM121.05 25.192C120.362 25.192 119.749 25.04 119.21 24.736C118.677 24.432 118.256 23.9813 117.946 23.384C117.637 22.7867 117.482 22.0507 117.482 21.176C117.482 20.296 117.637 19.56 117.946 18.968C118.256 18.3707 118.677 17.92 119.21 17.616C119.749 17.312 120.362 17.16 121.05 17.16C121.733 17.16 122.341 17.312 122.874 17.616C123.413 17.92 123.834 18.3707 124.138 18.968C124.448 19.56 124.602 20.296 124.602 21.176C124.602 22.0507 124.448 22.7867 124.138 23.384C123.834 23.9813 123.413 24.432 122.874 24.736C122.341 25.04 121.733 25.192 121.05 25.192ZM121.018 24.104C121.514 24.104 121.936 23.9867 122.282 23.752C122.629 23.512 122.89 23.1733 123.066 22.736C123.248 22.2987 123.338 21.7787 123.338 21.176C123.338 20.264 123.149 19.5467 122.77 19.024C122.392 18.496 121.829 18.232 121.082 18.232C120.581 18.232 120.157 18.352 119.81 18.592C119.469 18.8267 119.208 19.1653 119.026 19.608C118.85 20.0453 118.762 20.568 118.762 21.176C118.762 22.0773 118.952 22.792 119.33 23.32C119.714 23.8427 120.277 24.104 121.018 24.104ZM132.632 25V20.504C132.632 19.7733 132.456 19.2187 132.104 18.84C131.758 18.456 131.283 18.264 130.68 18.264C130.222 18.264 129.824 18.3893 129.488 18.64C129.152 18.8907 128.894 19.2507 128.712 19.72C128.531 20.184 128.44 20.7387 128.44 21.384H127.96C127.96 20.4933 128.078 19.7333 128.312 19.104C128.547 18.4747 128.888 17.9947 129.336 17.664C129.79 17.328 130.339 17.16 130.984 17.16C131.587 17.16 132.102 17.296 132.528 17.568C132.96 17.8347 133.291 18.2187 133.52 18.72C133.75 19.2213 133.864 19.816 133.864 20.504V25H132.632ZM127.192 25V17.352H128.264L128.44 19.112V25H127.192ZM139.445 16.248V14.616H147.765V16.248H144.125L144.549 15.816V25H142.661V15.816L143.085 16.248H139.445ZM149.497 14.616H151.385V18.952H155.913V14.616H157.801V25H155.913V20.6H151.385V25H149.497V14.616ZM160.923 25V14.616H167.595V16.248H162.811V18.984H167.307V20.616H162.811V23.352H167.595V25H160.923ZM178.488 25.224C177.64 25.224 176.875 25 176.192 24.552C175.509 24.104 174.965 23.48 174.56 22.68C174.16 21.8747 173.96 20.936 173.96 19.864C173.96 19.016 174.083 18.256 174.328 17.584C174.579 16.912 174.925 16.3387 175.368 15.864C175.811 15.3893 176.331 15.0293 176.928 14.784C177.525 14.5333 178.173 14.408 178.872 14.408C179.843 14.408 180.656 14.6187 181.312 15.04C181.973 15.4613 182.488 16.1253 182.856 17.032L180.92 17.48C180.648 17.0373 180.333 16.7013 179.976 16.472C179.624 16.2373 179.224 16.12 178.776 16.12C178.264 16.12 177.797 16.272 177.376 16.576C176.955 16.8747 176.619 17.304 176.368 17.864C176.117 18.424 175.992 19.0907 175.992 19.864C175.992 20.5893 176.101 21.224 176.32 21.768C176.544 22.312 176.856 22.736 177.256 23.04C177.656 23.344 178.12 23.496 178.648 23.496C179.096 23.496 179.496 23.3973 179.848 23.2C180.205 22.9973 180.485 22.7093 180.688 22.336C180.896 21.9627 181 21.512 181 20.984H181.416C181.416 21.848 181.312 22.5973 181.104 23.232C180.901 23.8667 180.584 24.3573 180.152 24.704C179.72 25.0507 179.165 25.224 178.488 25.224ZM181.272 25L181 22.712V20.92L178.664 20.872V19.672H182.808V25H181.272ZM187.572 14.616V23.352H191.844V25H185.684V14.616H187.572ZM193.59 14.616H195.478V21.08C195.478 21.9333 195.694 22.5493 196.126 22.928C196.564 23.3067 197.121 23.496 197.798 23.496C198.481 23.496 199.038 23.3067 199.47 22.928C199.902 22.5493 200.118 21.9333 200.118 21.08V14.616H202.006V21.08C202.006 21.9547 201.838 22.7013 201.502 23.32C201.166 23.9387 200.684 24.4107 200.054 24.736C199.43 25.0613 198.678 25.224 197.798 25.224C196.918 25.224 196.164 25.0613 195.534 24.736C194.91 24.4107 194.43 23.9387 194.094 23.32C193.758 22.7013 193.59 21.9547 193.59 21.08V14.616ZM203.565 16.248V14.616H211.885V16.248H208.245L208.669 15.816V25H206.781V15.816L207.205 16.248H203.565ZM213.601 25V14.616H220.273V16.248H215.489V18.984H219.985V20.616H215.489V23.352H220.273V25H213.601ZM223.136 14.616H225.2L229.92 22.024H229.776V14.616H231.664V25H229.744L224.72 17.144H225.024V25H223.136V14.616ZM32.488 45V34.616H39.032V36.248H34.376V38.984H38.632V40.6H34.376V45H32.488ZM41.398 45V34.616H45.238C46.4807 34.616 47.4327 34.9067 48.094 35.488C48.7607 36.0693 49.094 36.84 49.094 37.8C49.094 38.744 48.7607 39.5067 48.094 40.088C47.4327 40.664 46.4807 40.952 45.238 40.952H43.286V45H41.398ZM47.014 45L44.262 40.136H46.278L49.478 45H47.014ZM43.286 39.688H45.046C45.7393 39.688 46.2647 39.5307 46.622 39.216C46.9793 38.896 47.158 38.4827 47.158 37.976C47.158 37.4587 46.9953 37.0427 46.67 36.728C46.3447 36.408 45.8673 36.248 45.238 36.248H43.286V39.688ZM51.8389 45V34.616H58.5109V36.248H53.7269V38.984H58.2229V40.616H53.7269V43.352H58.5109V45H51.8389ZM61.3895 45V34.616H68.0615V36.248H63.2775V38.984H67.7735V40.616H63.2775V43.352H68.0615V45H61.3895ZM75.163 45V34.616H79.355C80.155 34.616 80.819 34.7413 81.347 34.992C81.875 35.2373 82.2697 35.568 82.531 35.984C82.7923 36.4 82.923 36.8613 82.923 37.368C82.923 37.9547 82.7577 38.456 82.427 38.872C82.1017 39.288 81.643 39.5813 81.051 39.752C81.4403 39.832 81.7897 39.9787 82.099 40.192C82.4083 40.4053 82.651 40.6747 82.827 41C83.0083 41.3253 83.099 41.6987 83.099 42.12C83.099 42.4507 83.0403 42.784 82.923 43.12C82.811 43.456 82.6137 43.768 82.331 44.056C82.0537 44.3387 81.6723 44.568 81.187 44.744C80.707 44.9147 80.1017 45 79.371 45H75.163ZM77.051 43.352H79.323C79.9257 43.352 80.3657 43.232 80.643 42.992C80.9257 42.7467 81.067 42.4187 81.067 42.008C81.067 41.5973 80.923 41.2693 80.635 41.024C80.347 40.7733 79.9097 40.648 79.323 40.648H77.051V43.352ZM77.051 36.248V39H79.275C79.835 39 80.259 38.8773 80.547 38.632C80.8403 38.3813 80.987 38.04 80.987 37.608C80.987 37.1973 80.843 36.8693 80.555 36.624C80.2723 36.3733 79.851 36.248 79.291 36.248H77.051ZM84.562 45L88.098 34.616H90.466L93.858 45H91.874L91.154 42.76H87.298L86.562 45H84.562ZM87.778 41.336H90.706L89.25 36.872L87.778 41.336ZM101.874 34.616H104.466L97.6176 41.624V39.048L101.874 34.616ZM99.5696 38.904L104.754 45H102.322L98.2576 40.136L99.5696 38.904ZM95.8736 34.616H97.7776V45H95.8736V34.616ZM106.486 45V34.616H113.158V36.248H108.374V38.984H112.87V40.616H108.374V43.352H113.158V45H106.486ZM116.053 45V34.616H119.893C121.136 34.616 122.088 34.9067 122.749 35.488C123.416 36.0693 123.749 36.84 123.749 37.8C123.749 38.744 123.416 39.5067 122.749 40.088C122.088 40.664 121.136 40.952 119.893 40.952H117.941V45H116.053ZM121.669 45L118.917 40.136H120.933L124.133 45H121.669ZM117.941 39.688H119.701C120.394 39.688 120.92 39.5307 121.277 39.216C121.634 38.896 121.813 38.4827 121.813 37.976C121.813 37.4587 121.65 37.0427 121.325 36.728C121 36.408 120.522 36.248 119.893 36.248H117.941V39.688ZM125.134 34.616H127.374L129.854 39.08H129.486L132.062 34.616H134.286L130.59 40.712V45H128.702V40.712L125.134 34.616ZM138.753 34.952H140.161L142.769 43.896H142.401L145.073 35.992H145.921L148.561 43.832H148.209L151.201 34.952H152.593L149.041 45H147.729L145.409 38.184H145.649L143.249 45H141.937L138.753 34.952ZM156.743 45.192C156.081 45.192 155.489 45.024 154.967 44.688C154.449 44.3467 154.039 43.8747 153.735 43.272C153.436 42.6693 153.287 41.976 153.287 41.192C153.287 40.3547 153.436 39.6347 153.735 39.032C154.033 38.4293 154.441 37.968 154.959 37.648C155.481 37.3227 156.076 37.16 156.743 37.16C157.324 37.16 157.82 37.2773 158.231 37.512C158.641 37.7467 158.972 38.064 159.223 38.464C159.473 38.864 159.647 39.3173 159.743 39.824C159.844 40.3253 159.873 40.8453 159.831 41.384H154.295V40.616H159.007L158.639 40.856C158.655 40.5413 158.636 40.2267 158.583 39.912C158.535 39.5973 158.441 39.3093 158.303 39.048C158.164 38.7813 157.969 38.568 157.719 38.408C157.468 38.248 157.148 38.168 156.759 38.168C156.268 38.168 155.857 38.2933 155.527 38.544C155.196 38.7947 154.948 39.1253 154.783 39.536C154.617 39.9413 154.535 40.3813 154.535 40.856V41.368C154.535 41.9013 154.615 42.3787 154.775 42.8C154.94 43.2213 155.185 43.5547 155.511 43.8C155.836 44.0453 156.247 44.168 156.743 44.168C157.239 44.168 157.647 44.048 157.967 43.808C158.287 43.568 158.481 43.2133 158.551 42.744H159.847C159.767 43.2507 159.585 43.688 159.303 44.056C159.02 44.4187 158.66 44.6987 158.223 44.896C157.785 45.0933 157.292 45.192 156.743 45.192ZM165.969 45.192C165.457 45.192 164.993 45.0587 164.577 44.792C164.167 44.5253 163.839 44.136 163.593 43.624C163.353 43.1067 163.233 42.4773 163.233 41.736H163.713C163.713 42.232 163.815 42.656 164.017 43.008C164.225 43.3547 164.492 43.6187 164.817 43.8C165.143 43.9813 165.484 44.072 165.841 44.072C166.252 44.072 166.628 43.9547 166.969 43.72C167.311 43.4853 167.583 43.1493 167.785 42.712C167.993 42.2747 168.097 41.752 168.097 41.144C168.097 40.5467 167.996 40.0347 167.793 39.608C167.591 39.176 167.316 38.8453 166.969 38.616C166.628 38.3813 166.247 38.264 165.825 38.264C165.463 38.264 165.119 38.3547 164.793 38.536C164.473 38.712 164.212 38.9733 164.009 39.32C163.812 39.6667 163.713 40.0933 163.713 40.6H163.233C163.233 39.8747 163.351 39.256 163.585 38.744C163.825 38.232 164.156 37.84 164.577 37.568C164.999 37.296 165.489 37.16 166.049 37.16C166.652 37.16 167.204 37.3227 167.705 37.648C168.212 37.968 168.617 38.4267 168.921 39.024C169.225 39.6213 169.377 40.328 169.377 41.144C169.377 41.9653 169.223 42.68 168.913 43.288C168.604 43.8907 168.191 44.36 167.673 44.696C167.156 45.0267 166.588 45.192 165.969 45.192ZM162.465 45V34.088H163.713V43.208L163.345 45H162.465ZM174.862 45.192C174.12 45.192 173.502 45.088 173.006 44.88C172.51 44.6667 172.134 44.376 171.878 44.008C171.622 43.6347 171.486 43.208 171.47 42.728H172.67C172.696 43.2133 172.891 43.5787 173.254 43.824C173.622 44.064 174.12 44.184 174.75 44.184C175.08 44.184 175.384 44.1307 175.662 44.024C175.939 43.9173 176.16 43.7707 176.326 43.584C176.491 43.3973 176.574 43.1867 176.574 42.952C176.574 42.6533 176.464 42.4187 176.246 42.248C176.027 42.0773 175.678 41.928 175.198 41.8L173.71 41.32C173.064 41.1173 172.568 40.84 172.222 40.488C171.88 40.1307 171.71 39.704 171.71 39.208C171.71 38.5893 171.982 38.0933 172.526 37.72C173.07 37.3467 173.784 37.16 174.67 37.16C175.608 37.16 176.336 37.352 176.854 37.736C177.371 38.12 177.64 38.6 177.662 39.176H176.43C176.382 38.84 176.211 38.5867 175.918 38.416C175.624 38.24 175.208 38.152 174.67 38.152C174.152 38.152 173.747 38.2693 173.454 38.504C173.166 38.7333 173.022 38.9893 173.022 39.272C173.022 39.8 173.475 40.1893 174.382 40.44L175.902 40.952C176.558 41.1493 177.059 41.408 177.406 41.728C177.758 42.048 177.934 42.456 177.934 42.952C177.934 43.336 177.808 43.6987 177.558 44.04C177.307 44.3813 176.952 44.6587 176.494 44.872C176.035 45.0853 175.491 45.192 174.862 45.192ZM181.38 35.544C181.124 35.544 180.921 35.472 180.772 35.328C180.623 35.1787 180.548 34.984 180.548 34.744C180.548 34.5093 180.623 34.3227 180.772 34.184C180.921 34.0453 181.124 33.976 181.38 33.976C181.636 33.976 181.839 34.0453 181.988 34.184C182.137 34.3227 182.212 34.5093 182.212 34.744C182.212 34.984 182.137 35.1787 181.988 35.328C181.839 35.472 181.636 35.544 181.38 35.544ZM180.756 45V37.336H182.004V45H180.756ZM187.954 45.192C187.538 45.192 187.164 45.112 186.834 44.952C186.503 44.792 186.242 44.552 186.05 44.232C185.858 43.912 185.762 43.512 185.762 43.032V35.224H186.994V43C186.994 43.7893 187.362 44.184 188.098 44.184C188.316 44.184 188.527 44.16 188.73 44.112C188.938 44.064 189.17 43.992 189.426 43.896L189.602 44.792C189.33 44.9093 189.058 45.0053 188.786 45.08C188.519 45.1547 188.242 45.192 187.954 45.192ZM184.53 38.216V37.352H189.41V38.216H184.53ZM194.433 45.192C193.772 45.192 193.18 45.024 192.657 44.688C192.14 44.3467 191.729 43.8747 191.425 43.272C191.127 42.6693 190.977 41.976 190.977 41.192C190.977 40.3547 191.127 39.6347 191.425 39.032C191.724 38.4293 192.132 37.968 192.649 37.648C193.172 37.3227 193.767 37.16 194.433 37.16C195.015 37.16 195.511 37.2773 195.921 37.512C196.332 37.7467 196.663 38.064 196.913 38.464C197.164 38.864 197.337 39.3173 197.433 39.824C197.535 40.3253 197.564 40.8453 197.521 41.384H191.985V40.616H196.697L196.329 40.856C196.345 40.5413 196.327 40.2267 196.273 39.912C196.225 39.5973 196.132 39.3093 195.993 39.048C195.855 38.7813 195.66 38.568 195.409 38.408C195.159 38.248 194.839 38.168 194.449 38.168C193.959 38.168 193.548 38.2933 193.217 38.544C192.887 38.7947 192.639 39.1253 192.473 39.536C192.308 39.9413 192.225 40.3813 192.225 40.856V41.368C192.225 41.9013 192.305 42.3787 192.465 42.8C192.631 43.2213 192.876 43.5547 193.201 43.8C193.527 44.0453 193.937 44.168 194.433 44.168C194.929 44.168 195.337 44.048 195.657 43.808C195.977 43.568 196.172 43.2133 196.241 42.744H197.537C197.457 43.2507 197.276 43.688 196.993 44.056C196.711 44.4187 196.351 44.6987 195.913 44.896C195.476 45.0933 194.983 45.192 194.433 45.192ZM200.284 42.184L200.124 34.984H201.452L201.292 42.184H200.284ZM200.788 45.144C200.516 45.144 200.292 45.0587 200.116 44.888C199.94 44.7173 199.852 44.504 199.852 44.248C199.852 43.9973 199.94 43.784 200.116 43.608C200.292 43.4267 200.516 43.336 200.788 43.336C201.055 43.336 201.279 43.4267 201.46 43.608C201.647 43.784 201.74 43.9973 201.74 44.248C201.74 44.504 201.647 44.7173 201.46 44.888C201.279 45.0587 201.055 45.144 200.788 45.144Z" fill="#333333"/>
</g>
<defs>
<filter id="filter0_d_7099_6050" x="0" y="0" width="252.035" height="68" filterUnits="userSpaceOnUse" color-interpolation-filters="sRGB">
<feFlood flood-opacity="0" result="BackgroundImageFix"/>
<feColorMatrix in="SourceAlpha" type="matrix" values="0 0 0 0 0 0 0 0 0 0 0 0 0 0 0 0 0 0 127 0" result="hardAlpha"/>
<feOffset dy="4"/>
<feGaussianBlur stdDeviation="3"/>
<feComposite in2="hardAlpha" operator="out"/>
<feColorMatrix type="matrix" values="0 0 0 0 0 0 0 0 0 0 0 0 0 0 0 0 0 0 0.1 0"/>
<feBlend mode="normal" in2="BackgroundImageFix" result="effect1_dropShadow_7099_6050"/>
<feBlend mode="normal" in="SourceGraphic" in2="effect1_dropShadow_7099_6050" result="shape"/>
</filter>
<filter id="filter1_d_7099_6050" x="25.144" y="12.0879" width="212.52" height="43.1045" filterUnits="userSpaceOnUse" color-interpolation-filters="sRGB">
<feFlood flood-opacity="0" result="BackgroundImageFix"/>
<feColorMatrix in="SourceAlpha" type="matrix" values="0 0 0 0 0 0 0 0 0 0 0 0 0 0 0 0 0 0 127 0" result="hardAlpha"/>
<feOffset dy="4"/>
<feGaussianBlur stdDeviation="3"/>
<feComposite in2="hardAlpha" operator="out"/>
<feColorMatrix type="matrix" values="0 0 0 0 0 0 0 0 0 0 0 0 0 0 0 0 0 0 0.05 0"/>
<feBlend mode="normal" in2="BackgroundImageFix" result="effect1_dropShadow_7099_6050"/>
<feBlend mode="normal" in="SourceGraphic" in2="effect1_dropShadow_7099_6050" result="shape"/>
</filter>
</defs>
</svg>
