<svg width="256" height="68" viewBox="0 0 256 68" fill="none" xmlns="http://www.w3.org/2000/svg">
<mask id="path-1-inside-1_7069_6441" fill="white">
<path d="M248.724 27.3669L239 19L239 11C239 6.02944 234.971 2 230 2L8.99997 1.99998C4.02941 1.99998 -2.59742e-05 6.02942 -2.64087e-05 11L-2.97308e-05 49C-3.01653e-05 53.9705 4.0294 58 8.99997 58L230 58C234.971 58 239 53.9706 239 49L239 39.5L248.612 32.0069C250.106 30.8425 250.16 28.6022 248.724 27.3669Z"/>
</mask>
<path d="M248.724 27.3669L239 19L239 11C239 6.02944 234.971 2 230 2L8.99997 1.99998C4.02941 1.99998 -2.59742e-05 6.02942 -2.64087e-05 11L-2.97308e-05 49C-3.01653e-05 53.9705 4.0294 58 8.99997 58L230 58C234.971 58 239 53.9706 239 49L239 39.5L248.612 32.0069C250.106 30.8425 250.16 28.6022 248.724 27.3669Z" fill="white"/>
<path d="M239 19L237.6 19L237.6 19.6423L238.087 20.0612L239 19ZM248.724 27.3669L249.637 26.3056L249.637 26.3056L248.724 27.3669ZM248.612 32.0069L247.751 30.9028L247.751 30.9028L248.612 32.0069ZM239 39.5L238.139 38.3959L237.6 38.8162L237.6 39.5L239 39.5ZM238.087 20.0612L247.811 28.4281L249.637 26.3056L239.913 17.9388L238.087 20.0612ZM247.751 30.9028L238.139 38.3959L239.861 40.6041L249.473 33.1111L247.751 30.9028ZM247.811 28.4281C248.577 29.0869 248.548 30.2817 247.751 30.9028L249.473 33.1111C251.663 31.4032 251.743 28.1175 249.637 26.3056L247.811 28.4281ZM230 56.6L8.99997 56.6L8.99997 59.4L230 59.4L230 56.6ZM1.39996 49L1.39997 11L-1.40002 11L-1.40002 49L1.39996 49ZM8.99997 3.39998L230 3.4L230 0.599997L8.99997 0.599977L8.99997 3.39998ZM237.6 39.5L237.6 49L240.4 49L240.4 39.5L237.6 39.5ZM237.6 11L237.6 19L240.4 19L240.4 11L237.6 11ZM230 3.4C234.197 3.4 237.6 6.80263 237.6 11L240.4 11C240.4 5.25624 235.744 0.599997 230 0.599997L230 3.4ZM1.39997 11C1.39997 6.80261 4.8026 3.39998 8.99997 3.39998L8.99997 0.599977C3.25622 0.599977 -1.40002 5.25622 -1.40002 11L1.39997 11ZM8.99997 56.6C4.8026 56.6 1.39996 53.1973 1.39996 49L-1.40002 49C-1.40002 54.7437 3.25621 59.4 8.99997 59.4L8.99997 56.6ZM230 59.4C235.744 59.4 240.4 54.7438 240.4 49L237.6 49C237.6 53.1974 234.197 56.6 230 56.6L230 59.4Z" fill="white" mask="url(#path-1-inside-1_7069_6441)"/>
<g filter="url(#filter0_d_7069_6441)">
<mask id="path-3-inside-2_7069_6441" fill="white">
<path d="M248.724 27.3669L239 19L239 11C239 6.02944 234.971 2 230 2L105 1.99999C100.029 1.99999 96 6.02942 96 11L96 49C96 53.9705 100.029 58 105 58L230 58C234.971 58 239 53.9706 239 49L239 39.5L248.612 32.0069C250.106 30.8425 250.16 28.6022 248.724 27.3669Z"/>
</mask>
<path d="M248.724 27.3669L239 19L239 11C239 6.02944 234.971 2 230 2L105 1.99999C100.029 1.99999 96 6.02942 96 11L96 49C96 53.9705 100.029 58 105 58L230 58C234.971 58 239 53.9706 239 49L239 39.5L248.612 32.0069C250.106 30.8425 250.16 28.6022 248.724 27.3669Z" fill="#F1F3FF"/>
<path d="M239 19L237.6 19L237.6 19.6423L238.087 20.0612L239 19ZM248.724 27.3669L249.637 26.3056L249.637 26.3056L248.724 27.3669ZM248.612 32.0069L247.751 30.9028L247.751 30.9028L248.612 32.0069ZM239 39.5L238.139 38.3959L237.6 38.8162L237.6 39.5L239 39.5ZM230 58L230 59.4L230 58ZM105 58L105 56.6L105 58ZM238.087 20.0612L247.811 28.4281L249.637 26.3056L239.913 17.9388L238.087 20.0612ZM247.751 30.9028L238.139 38.3959L239.861 40.6041L249.473 33.1111L247.751 30.9028ZM247.811 28.4281C248.577 29.0869 248.548 30.2817 247.751 30.9028L249.473 33.1111C251.663 31.4032 251.743 28.1175 249.637 26.3056L247.811 28.4281ZM230 56.6L105 56.6L105 59.4L230 59.4L230 56.6ZM97.4 49L97.4 11L94.6 11L94.6 49L97.4 49ZM105 3.39999L230 3.4L230 0.599997L105 0.599986L105 3.39999ZM237.6 39.5L237.6 49L240.4 49L240.4 39.5L237.6 39.5ZM237.6 11L237.6 19L240.4 19L240.4 11L237.6 11ZM230 3.4C234.197 3.4 237.6 6.80263 237.6 11L240.4 11C240.4 5.25624 235.744 0.599997 230 0.599997L230 3.4ZM97.4 11C97.4 6.80262 100.803 3.39999 105 3.39999L105 0.599986C99.2562 0.599985 94.6 5.25623 94.6 11L97.4 11ZM105 56.6C100.803 56.6 97.4 53.1973 97.4 49L94.6 49C94.6 54.7437 99.2562 59.4 105 59.4L105 56.6ZM230 59.4C235.744 59.4 240.4 54.7438 240.4 49L237.6 49C237.6 53.1974 234.197 56.6 230 56.6L230 59.4Z" fill="#4A5DC8" mask="url(#path-3-inside-2_7069_6441)"/>
</g>
<g filter="url(#filter1_d_7069_6441)">
<path d="M106.699 15.452H108.107L110.715 24.396H110.347L113.019 16.492H113.867L116.507 24.332H116.155L119.147 15.452H120.539L116.987 25.5H115.675L113.355 18.684H113.595L111.195 25.5H109.883L106.699 15.452ZM126.768 25.5L126.608 23.82V20.54C126.608 19.852 126.462 19.3587 126.168 19.06C125.875 18.756 125.435 18.604 124.848 18.604C124.518 18.604 124.216 18.652 123.944 18.748C123.678 18.844 123.464 18.9933 123.304 19.196C123.15 19.3933 123.072 19.6493 123.072 19.964H121.68C121.68 19.4093 121.816 18.964 122.088 18.628C122.36 18.2867 122.734 18.0413 123.208 17.892C123.688 17.7373 124.235 17.66 124.848 17.66C125.435 17.66 125.955 17.7587 126.408 17.956C126.862 18.1533 127.216 18.468 127.472 18.9C127.728 19.3267 127.856 19.884 127.856 20.572V25.5H126.768ZM124.16 25.692C123.531 25.692 123.011 25.58 122.6 25.356C122.19 25.132 121.883 24.8413 121.68 24.484C121.478 24.1267 121.376 23.7507 121.376 23.356C121.376 22.8387 121.504 22.4173 121.76 22.092C122.022 21.7667 122.376 21.5293 122.824 21.38C123.272 21.2253 123.776 21.148 124.336 21.148C124.736 21.148 125.136 21.188 125.536 21.268C125.942 21.348 126.336 21.4573 126.72 21.596V22.38C126.4 22.252 126.038 22.1507 125.632 22.076C125.232 22.0013 124.864 21.964 124.528 21.964C124.016 21.964 123.584 22.0707 123.232 22.284C122.88 22.492 122.704 22.8493 122.704 23.356C122.704 23.7293 122.838 24.0493 123.104 24.316C123.376 24.5827 123.808 24.716 124.4 24.716C124.816 24.716 125.19 24.62 125.52 24.428C125.856 24.2307 126.12 23.9853 126.312 23.692C126.51 23.3987 126.608 23.1053 126.608 22.812H126.912C126.912 23.324 126.8 23.7987 126.576 24.236C126.358 24.6733 126.043 25.0253 125.632 25.292C125.222 25.5587 124.731 25.692 124.16 25.692ZM131.709 16.044C131.453 16.044 131.25 15.972 131.101 15.828C130.951 15.6787 130.877 15.484 130.877 15.244C130.877 15.0093 130.951 14.8227 131.101 14.684C131.25 14.5453 131.453 14.476 131.709 14.476C131.965 14.476 132.167 14.5453 132.317 14.684C132.466 14.8227 132.541 15.0093 132.541 15.244C132.541 15.484 132.466 15.6787 132.317 15.828C132.167 15.972 131.965 16.044 131.709 16.044ZM131.085 25.5V17.836H132.333V25.5H131.085ZM138.282 25.692C137.866 25.692 137.493 25.612 137.162 25.452C136.832 25.292 136.57 25.052 136.378 24.732C136.186 24.412 136.09 24.012 136.09 23.532V15.724H137.322V23.5C137.322 24.2893 137.69 24.684 138.426 24.684C138.645 24.684 138.856 24.66 139.058 24.612C139.266 24.564 139.498 24.492 139.754 24.396L139.93 25.292C139.658 25.4093 139.386 25.5053 139.114 25.58C138.848 25.6547 138.57 25.692 138.282 25.692ZM134.858 18.716V17.852H139.738V18.716H134.858ZM142.234 22.684L142.074 15.484H143.402L143.242 22.684H142.234ZM142.738 25.644C142.466 25.644 142.242 25.5587 142.066 25.388C141.89 25.2173 141.802 25.004 141.802 24.748C141.802 24.4973 141.89 24.284 142.066 24.108C142.242 23.9267 142.466 23.836 142.738 23.836C143.005 23.836 143.229 23.9267 143.41 24.108C143.597 24.284 143.69 24.4973 143.69 24.748C143.69 25.004 143.597 25.2173 143.41 25.388C143.229 25.5587 143.005 25.644 142.738 25.644ZM150.66 25.5V15.452H151.908V25.5H150.66ZM170.014 25.5V21.004C170.014 20.2733 169.838 19.7187 169.486 19.34C169.139 18.956 168.67 18.764 168.078 18.764C167.384 18.764 166.854 19.0333 166.486 19.572C166.118 20.1053 165.934 20.844 165.934 21.788H165.358C165.358 21.1 165.424 20.4973 165.558 19.98C165.696 19.4627 165.896 19.0333 166.158 18.692C166.419 18.3453 166.736 18.0867 167.11 17.916C167.483 17.7453 167.907 17.66 168.382 17.66C168.984 17.66 169.499 17.796 169.926 18.068C170.358 18.3347 170.688 18.7187 170.918 19.22C171.147 19.7213 171.262 20.316 171.262 21.004V25.5H170.014ZM159.262 25.5V17.852H160.334L160.478 19.388C160.718 18.8333 161.054 18.4067 161.486 18.108C161.923 17.8093 162.446 17.66 163.054 17.66C163.656 17.66 164.171 17.796 164.598 18.068C165.03 18.3347 165.36 18.7187 165.59 19.22C165.819 19.7213 165.934 20.316 165.934 21.004V25.5H164.702V21.004C164.702 20.2733 164.526 19.7187 164.174 19.34C163.827 18.956 163.352 18.764 162.75 18.764C162.291 18.764 161.894 18.8893 161.558 19.14C161.222 19.3907 160.963 19.7507 160.782 20.22C160.6 20.684 160.51 21.2387 160.51 21.884V25.5H159.262ZM175.094 16.044C174.838 16.044 174.636 15.972 174.486 15.828C174.337 15.6787 174.262 15.484 174.262 15.244C174.262 15.0093 174.337 14.8227 174.486 14.684C174.636 14.5453 174.838 14.476 175.094 14.476C175.35 14.476 175.553 14.5453 175.702 14.684C175.852 14.8227 175.926 15.0093 175.926 15.244C175.926 15.484 175.852 15.6787 175.702 15.828C175.553 15.972 175.35 16.044 175.094 16.044ZM174.47 25.5V17.836H175.718V25.5H174.47ZM182.068 25.692C181.327 25.692 180.708 25.588 180.212 25.38C179.716 25.1667 179.34 24.876 179.084 24.508C178.828 24.1347 178.692 23.708 178.676 23.228H179.876C179.903 23.7133 180.097 24.0787 180.46 24.324C180.828 24.564 181.327 24.684 181.956 24.684C182.287 24.684 182.591 24.6307 182.868 24.524C183.145 24.4173 183.367 24.2707 183.532 24.084C183.697 23.8973 183.78 23.6867 183.78 23.452C183.78 23.1533 183.671 22.9187 183.452 22.748C183.233 22.5773 182.884 22.428 182.404 22.3L180.916 21.82C180.271 21.6173 179.775 21.34 179.428 20.988C179.087 20.6307 178.916 20.204 178.916 19.708C178.916 19.0893 179.188 18.5933 179.732 18.22C180.276 17.8467 180.991 17.66 181.876 17.66C182.815 17.66 183.543 17.852 184.06 18.236C184.577 18.62 184.847 19.1 184.868 19.676H183.636C183.588 19.34 183.417 19.0867 183.124 18.916C182.831 18.74 182.415 18.652 181.876 18.652C181.359 18.652 180.953 18.7693 180.66 19.004C180.372 19.2333 180.228 19.4893 180.228 19.772C180.228 20.3 180.681 20.6893 181.588 20.94L183.108 21.452C183.764 21.6493 184.265 21.908 184.612 22.228C184.964 22.548 185.14 22.956 185.14 23.452C185.14 23.836 185.015 24.1987 184.764 24.54C184.513 24.8813 184.159 25.1587 183.7 25.372C183.241 25.5853 182.697 25.692 182.068 25.692ZM190.634 25.692C189.893 25.692 189.274 25.588 188.778 25.38C188.282 25.1667 187.906 24.876 187.65 24.508C187.394 24.1347 187.258 23.708 187.242 23.228H188.442C188.469 23.7133 188.664 24.0787 189.026 24.324C189.394 24.564 189.893 24.684 190.522 24.684C190.853 24.684 191.157 24.6307 191.434 24.524C191.712 24.4173 191.933 24.2707 192.098 24.084C192.264 23.8973 192.346 23.6867 192.346 23.452C192.346 23.1533 192.237 22.9187 192.018 22.748C191.8 22.5773 191.45 22.428 190.97 22.3L189.482 21.82C188.837 21.6173 188.341 21.34 187.994 20.988C187.653 20.6307 187.482 20.204 187.482 19.708C187.482 19.0893 187.754 18.5933 188.298 18.22C188.842 17.8467 189.557 17.66 190.442 17.66C191.381 17.66 192.109 17.852 192.626 18.236C193.144 18.62 193.413 19.1 193.434 19.676H192.202C192.154 19.34 191.984 19.0867 191.69 18.916C191.397 18.74 190.981 18.652 190.442 18.652C189.925 18.652 189.52 18.7693 189.226 19.004C188.938 19.2333 188.794 19.4893 188.794 19.772C188.794 20.3 189.248 20.6893 190.154 20.94L191.674 21.452C192.33 21.6493 192.832 21.908 193.178 22.228C193.53 22.548 193.706 22.956 193.706 23.452C193.706 23.836 193.581 24.1987 193.33 24.54C193.08 24.8813 192.725 25.1587 192.266 25.372C191.808 25.5853 191.264 25.692 190.634 25.692ZM202.757 25.692C202.341 25.692 201.968 25.612 201.637 25.452C201.307 25.292 201.045 25.052 200.853 24.732C200.661 24.412 200.565 24.012 200.565 23.532V15.724H201.797V23.5C201.797 24.2893 202.165 24.684 202.901 24.684C203.12 24.684 203.331 24.66 203.533 24.612C203.741 24.564 203.973 24.492 204.229 24.396L204.405 25.292C204.133 25.4093 203.861 25.5053 203.589 25.58C203.323 25.6547 203.045 25.692 202.757 25.692ZM199.333 18.716V17.852H204.213V18.716H199.333ZM212.021 25.5V21.004C212.021 20.2733 211.845 19.7187 211.493 19.34C211.146 18.956 210.672 18.764 210.069 18.764C209.61 18.764 209.213 18.8893 208.877 19.14C208.541 19.3907 208.282 19.7507 208.101 20.22C207.92 20.684 207.829 21.2387 207.829 21.884H207.349C207.349 20.9933 207.466 20.2333 207.701 19.604C207.936 18.9747 208.277 18.4947 208.725 18.164C209.178 17.828 209.728 17.66 210.373 17.66C210.976 17.66 211.49 17.796 211.917 18.068C212.349 18.3347 212.68 18.7187 212.909 19.22C213.138 19.7213 213.253 20.316 213.253 21.004V25.5H212.021ZM206.581 25.5V14.588H207.829V25.5H206.581ZM219.053 25.692C218.392 25.692 217.8 25.524 217.277 25.188C216.76 24.8467 216.349 24.3747 216.045 23.772C215.747 23.1693 215.597 22.476 215.597 21.692C215.597 20.8547 215.747 20.1347 216.045 19.532C216.344 18.9293 216.752 18.468 217.269 18.148C217.792 17.8227 218.387 17.66 219.053 17.66C219.635 17.66 220.131 17.7773 220.541 18.012C220.952 18.2467 221.283 18.564 221.533 18.964C221.784 19.364 221.957 19.8173 222.053 20.324C222.155 20.8253 222.184 21.3453 222.141 21.884H216.605V21.116H221.317L220.949 21.356C220.965 21.0413 220.947 20.7267 220.893 20.412C220.845 20.0973 220.752 19.8093 220.613 19.548C220.475 19.2813 220.28 19.068 220.029 18.908C219.779 18.748 219.459 18.668 219.069 18.668C218.579 18.668 218.168 18.7933 217.837 19.044C217.507 19.2947 217.259 19.6253 217.093 20.036C216.928 20.4413 216.845 20.8813 216.845 21.356V21.868C216.845 22.4013 216.925 22.8787 217.085 23.3C217.251 23.7213 217.496 24.0547 217.821 24.3C218.147 24.5453 218.557 24.668 219.053 24.668C219.549 24.668 219.957 24.548 220.277 24.308C220.597 24.068 220.792 23.7133 220.861 23.244H222.157C222.077 23.7507 221.896 24.188 221.613 24.556C221.331 24.9187 220.971 25.1987 220.533 25.396C220.096 25.5933 219.603 25.692 219.053 25.692ZM122.758 45.692C122.198 45.692 121.71 45.564 121.294 45.308C120.883 45.052 120.566 44.6787 120.342 44.188C120.118 43.692 120.006 43.0893 120.006 42.38H120.534C120.534 42.8547 120.633 43.2547 120.83 43.58C121.027 43.9053 121.283 44.1533 121.598 44.324C121.918 44.4893 122.257 44.572 122.614 44.572C122.998 44.572 123.366 44.4627 123.718 44.244C124.07 44.02 124.358 43.692 124.582 43.26C124.806 42.828 124.918 42.2947 124.918 41.66C124.918 41.052 124.814 40.532 124.606 40.1C124.403 39.668 124.129 39.3373 123.782 39.108C123.435 38.8787 123.051 38.764 122.63 38.764C122.267 38.764 121.926 38.852 121.606 39.028C121.286 39.204 121.027 39.4627 120.83 39.804C120.633 40.14 120.534 40.556 120.534 41.052H120.006C120.006 40.3107 120.129 39.6893 120.374 39.188C120.619 38.6813 120.953 38.3 121.374 38.044C121.795 37.788 122.267 37.66 122.79 37.66C123.387 37.66 123.945 37.82 124.462 38.14C124.979 38.46 125.398 38.9187 125.718 39.516C126.038 40.1133 126.198 40.828 126.198 41.66C126.198 42.5027 126.035 43.2253 125.71 43.828C125.39 44.4307 124.969 44.892 124.446 45.212C123.923 45.532 123.361 45.692 122.758 45.692ZM119.286 49.26V37.852H120.326L120.534 39.644V49.26H119.286ZM128.805 45.5V37.836H130.053V45.5H128.805ZM129.669 42.044C129.669 41.0733 129.763 40.268 129.949 39.628C130.136 38.9827 130.408 38.5027 130.765 38.188C131.128 37.868 131.568 37.708 132.085 37.708C132.256 37.708 132.411 37.7213 132.549 37.748C132.693 37.7693 132.837 37.804 132.981 37.852L132.901 39.084C132.752 39.036 132.589 38.996 132.413 38.964C132.237 38.9267 132.08 38.908 131.941 38.908C131.488 38.908 131.123 39.0387 130.845 39.3C130.568 39.556 130.365 39.9187 130.237 40.388C130.115 40.8573 130.053 41.4093 130.053 42.044H129.669ZM137.403 45.692C136.741 45.692 136.149 45.524 135.627 45.188C135.109 44.8467 134.699 44.3747 134.395 43.772C134.096 43.1693 133.947 42.476 133.947 41.692C133.947 40.8547 134.096 40.1347 134.395 39.532C134.693 38.9293 135.101 38.468 135.619 38.148C136.141 37.8227 136.736 37.66 137.403 37.66C137.984 37.66 138.48 37.7773 138.891 38.012C139.301 38.2467 139.632 38.564 139.883 38.964C140.133 39.364 140.307 39.8173 140.403 40.324C140.504 40.8253 140.533 41.3453 140.491 41.884H134.955V41.116H139.667L139.299 41.356C139.315 41.0413 139.296 40.7267 139.243 40.412C139.195 40.0973 139.101 39.8093 138.963 39.548C138.824 39.2813 138.629 39.068 138.379 38.908C138.128 38.748 137.808 38.668 137.419 38.668C136.928 38.668 136.517 38.7933 136.187 39.044C135.856 39.2947 135.608 39.6253 135.443 40.036C135.277 40.4413 135.195 40.8813 135.195 41.356V41.868C135.195 42.4013 135.275 42.8787 135.435 43.3C135.6 43.7213 135.845 44.0547 136.171 44.3C136.496 44.5453 136.907 44.668 137.403 44.668C137.899 44.668 138.307 44.548 138.627 44.308C138.947 44.068 139.141 43.7133 139.211 43.244H140.507C140.427 43.7507 140.245 44.188 139.963 44.556C139.68 44.9187 139.32 45.1987 138.883 45.396C138.445 45.5933 137.952 45.692 137.403 45.692ZM141.797 37.852H143.221L145.621 44.428H145.445L147.845 37.852H149.269L146.213 45.5H144.853L141.797 37.852ZM152.036 36.044C151.78 36.044 151.578 35.972 151.428 35.828C151.279 35.6787 151.204 35.484 151.204 35.244C151.204 35.0093 151.279 34.8227 151.428 34.684C151.578 34.5453 151.78 34.476 152.036 34.476C152.292 34.476 152.495 34.5453 152.644 34.684C152.794 34.8227 152.868 35.0093 152.868 35.244C152.868 35.484 152.794 35.6787 152.644 35.828C152.495 35.972 152.292 36.044 152.036 36.044ZM151.412 45.5V37.836H152.66V45.5H151.412ZM159.026 45.692C158.338 45.692 157.725 45.54 157.186 45.236C156.653 44.932 156.231 44.4813 155.922 43.884C155.613 43.2867 155.458 42.5507 155.458 41.676C155.458 40.796 155.613 40.06 155.922 39.468C156.231 38.8707 156.653 38.42 157.186 38.116C157.725 37.812 158.338 37.66 159.026 37.66C159.709 37.66 160.317 37.812 160.85 38.116C161.389 38.42 161.81 38.8707 162.114 39.468C162.423 40.06 162.578 40.796 162.578 41.676C162.578 42.5507 162.423 43.2867 162.114 43.884C161.81 44.4813 161.389 44.932 160.85 45.236C160.317 45.54 159.709 45.692 159.026 45.692ZM158.994 44.604C159.49 44.604 159.911 44.4867 160.258 44.252C160.605 44.012 160.866 43.6733 161.042 43.236C161.223 42.7987 161.314 42.2787 161.314 41.676C161.314 40.764 161.125 40.0467 160.746 39.524C160.367 38.996 159.805 38.732 159.058 38.732C158.557 38.732 158.133 38.852 157.786 39.092C157.445 39.3267 157.183 39.6653 157.002 40.108C156.826 40.5453 156.738 41.068 156.738 41.676C156.738 42.5773 156.927 43.292 157.306 43.82C157.69 44.3427 158.253 44.604 158.994 44.604ZM170.368 37.836H171.616V45.5H170.368V37.836ZM164.944 37.836H166.192V42.604C166.192 43.244 166.347 43.7293 166.656 44.06C166.971 44.3907 167.419 44.556 168 44.556C168.48 44.556 168.896 44.428 169.248 44.172C169.605 43.916 169.88 43.564 170.072 43.116C170.269 42.6627 170.368 42.1453 170.368 41.564H170.832C170.832 42.4227 170.707 43.156 170.456 43.764C170.211 44.372 169.861 44.8387 169.408 45.164C168.96 45.484 168.432 45.644 167.824 45.644C167.248 45.644 166.744 45.5373 166.312 45.324C165.88 45.1107 165.544 44.788 165.304 44.356C165.064 43.9187 164.944 43.3667 164.944 42.7V37.836ZM177.767 45.692C177.026 45.692 176.407 45.588 175.911 45.38C175.415 45.1667 175.039 44.876 174.783 44.508C174.527 44.1347 174.391 43.708 174.375 43.228H175.575C175.602 43.7133 175.797 44.0787 176.159 44.324C176.527 44.564 177.026 44.684 177.655 44.684C177.986 44.684 178.29 44.6307 178.567 44.524C178.845 44.4173 179.066 44.2707 179.231 44.084C179.397 43.8973 179.479 43.6867 179.479 43.452C179.479 43.1533 179.37 42.9187 179.151 42.748C178.933 42.5773 178.583 42.428 178.103 42.3L176.615 41.82C175.97 41.6173 175.474 41.34 175.127 40.988C174.786 40.6307 174.615 40.204 174.615 39.708C174.615 39.0893 174.887 38.5933 175.431 38.22C175.975 37.8467 176.69 37.66 177.575 37.66C178.514 37.66 179.242 37.852 179.759 38.236C180.277 38.62 180.546 39.1 180.567 39.676H179.335C179.287 39.34 179.117 39.0867 178.823 38.916C178.53 38.74 178.114 38.652 177.575 38.652C177.058 38.652 176.653 38.7693 176.359 39.004C176.071 39.2333 175.927 39.4893 175.927 39.772C175.927 40.3 176.381 40.6893 177.287 40.94L178.807 41.452C179.463 41.6493 179.965 41.908 180.311 42.228C180.663 42.548 180.839 42.956 180.839 43.452C180.839 43.836 180.714 44.1987 180.463 44.54C180.213 44.8813 179.858 45.1587 179.399 45.372C178.941 45.5853 178.397 45.692 177.767 45.692ZM190.291 45.692C189.549 45.692 188.931 45.588 188.435 45.38C187.939 45.1667 187.563 44.876 187.307 44.508C187.051 44.1347 186.915 43.708 186.899 43.228H188.099C188.125 43.7133 188.32 44.0787 188.683 44.324C189.051 44.564 189.549 44.684 190.179 44.684C190.509 44.684 190.813 44.6307 191.091 44.524C191.368 44.4173 191.589 44.2707 191.755 44.084C191.92 43.8973 192.003 43.6867 192.003 43.452C192.003 43.1533 191.893 42.9187 191.675 42.748C191.456 42.5773 191.107 42.428 190.627 42.3L189.139 41.82C188.493 41.6173 187.997 41.34 187.651 40.988C187.309 40.6307 187.139 40.204 187.139 39.708C187.139 39.0893 187.411 38.5933 187.955 38.22C188.499 37.8467 189.213 37.66 190.099 37.66C191.037 37.66 191.765 37.852 192.283 38.236C192.8 38.62 193.069 39.1 193.091 39.676H191.859C191.811 39.34 191.64 39.0867 191.347 38.916C191.053 38.74 190.637 38.652 190.099 38.652C189.581 38.652 189.176 38.7693 188.883 39.004C188.595 39.2333 188.451 39.4893 188.451 39.772C188.451 40.3 188.904 40.6893 189.811 40.94L191.331 41.452C191.987 41.6493 192.488 41.908 192.835 42.228C193.187 42.548 193.363 42.956 193.363 43.452C193.363 43.836 193.237 44.1987 192.987 44.54C192.736 44.8813 192.381 45.1587 191.923 45.372C191.464 45.5853 190.92 45.692 190.291 45.692ZM198.457 45.692C198.041 45.692 197.667 45.612 197.337 45.452C197.006 45.292 196.745 45.052 196.553 44.732C196.361 44.412 196.265 44.012 196.265 43.532V35.724H197.497V43.5C197.497 44.2893 197.865 44.684 198.601 44.684C198.819 44.684 199.03 44.66 199.233 44.612C199.441 44.564 199.673 44.492 199.929 44.396L200.105 45.292C199.833 45.4093 199.561 45.5053 199.289 45.58C199.022 45.6547 198.745 45.692 198.457 45.692ZM195.033 38.716V37.852H199.913V38.716H195.033ZM204.936 45.692C204.275 45.692 203.683 45.524 203.16 45.188C202.643 44.8467 202.232 44.3747 201.928 43.772C201.63 43.1693 201.48 42.476 201.48 41.692C201.48 40.8547 201.63 40.1347 201.928 39.532C202.227 38.9293 202.635 38.468 203.152 38.148C203.675 37.8227 204.27 37.66 204.936 37.66C205.518 37.66 206.014 37.7773 206.424 38.012C206.835 38.2467 207.166 38.564 207.416 38.964C207.667 39.364 207.84 39.8173 207.936 40.324C208.038 40.8253 208.067 41.3453 208.024 41.884H202.488V41.116H207.2L206.832 41.356C206.848 41.0413 206.83 40.7267 206.776 40.412C206.728 40.0973 206.635 39.8093 206.496 39.548C206.358 39.2813 206.163 39.068 205.912 38.908C205.662 38.748 205.342 38.668 204.952 38.668C204.462 38.668 204.051 38.7933 203.72 39.044C203.39 39.2947 203.142 39.6253 202.976 40.036C202.811 40.4413 202.728 40.8813 202.728 41.356V41.868C202.728 42.4013 202.808 42.8787 202.968 43.3C203.134 43.7213 203.379 44.0547 203.704 44.3C204.03 44.5453 204.44 44.668 204.936 44.668C205.432 44.668 205.84 44.548 206.16 44.308C206.48 44.068 206.675 43.7133 206.744 43.244H208.04C207.96 43.7507 207.779 44.188 207.496 44.556C207.214 44.9187 206.854 45.1987 206.416 45.396C205.979 45.5933 205.486 45.692 204.936 45.692ZM214.131 45.692C213.571 45.692 213.083 45.564 212.667 45.308C212.256 45.052 211.939 44.6787 211.715 44.188C211.491 43.692 211.379 43.0893 211.379 42.38H211.907C211.907 42.8547 212.006 43.2547 212.203 43.58C212.4 43.9053 212.656 44.1533 212.971 44.324C213.291 44.4893 213.63 44.572 213.987 44.572C214.371 44.572 214.739 44.4627 215.091 44.244C215.443 44.02 215.731 43.692 215.955 43.26C216.179 42.828 216.291 42.2947 216.291 41.66C216.291 41.052 216.187 40.532 215.979 40.1C215.776 39.668 215.502 39.3373 215.155 39.108C214.808 38.8787 214.424 38.764 214.003 38.764C213.64 38.764 213.299 38.852 212.979 39.028C212.659 39.204 212.4 39.4627 212.203 39.804C212.006 40.14 211.907 40.556 211.907 41.052H211.379C211.379 40.3107 211.502 39.6893 211.747 39.188C211.992 38.6813 212.326 38.3 212.747 38.044C213.168 37.788 213.64 37.66 214.163 37.66C214.76 37.66 215.318 37.82 215.835 38.14C216.352 38.46 216.771 38.9187 217.091 39.516C217.411 40.1133 217.571 40.828 217.571 41.66C217.571 42.5027 217.408 43.2253 217.083 43.828C216.763 44.4307 216.342 44.892 215.819 45.212C215.296 45.532 214.734 45.692 214.131 45.692ZM210.659 49.26V37.852H211.699L211.907 39.644V49.26H210.659ZM220.307 42.684L220.147 35.484H221.475L221.315 42.684H220.307ZM220.811 45.644C220.539 45.644 220.315 45.5587 220.139 45.388C219.963 45.2173 219.875 45.004 219.875 44.748C219.875 44.4973 219.963 44.284 220.139 44.108C220.315 43.9267 220.539 43.836 220.811 43.836C221.077 43.836 221.301 43.9267 221.483 44.108C221.669 44.284 221.763 44.4973 221.763 44.748C221.763 45.004 221.669 45.2173 221.483 45.388C221.301 45.5587 221.077 45.644 220.811 45.644Z" fill="#4A5DC8"/>
</g>
<defs>
<filter id="filter0_d_7069_6441" x="90" y="0" width="165.767" height="68" filterUnits="userSpaceOnUse" color-interpolation-filters="sRGB">
<feFlood flood-opacity="0" result="BackgroundImageFix"/>
<feColorMatrix in="SourceAlpha" type="matrix" values="0 0 0 0 0 0 0 0 0 0 0 0 0 0 0 0 0 0 127 0" result="hardAlpha"/>
<feOffset dy="4"/>
<feGaussianBlur stdDeviation="3"/>
<feComposite in2="hardAlpha" operator="out"/>
<feColorMatrix type="matrix" values="0 0 0 0 0 0 0 0 0 0 0 0 0 0 0 0 0 0 0.1 0"/>
<feBlend mode="normal" in2="BackgroundImageFix" result="effect1_dropShadow_7069_6441"/>
<feBlend mode="normal" in="SourceGraphic" in2="effect1_dropShadow_7069_6441" result="shape"/>
</filter>
<filter id="filter1_d_7069_6441" x="100.699" y="12.4756" width="127.506" height="46.7842" filterUnits="userSpaceOnUse" color-interpolation-filters="sRGB">
<feFlood flood-opacity="0" result="BackgroundImageFix"/>
<feColorMatrix in="SourceAlpha" type="matrix" values="0 0 0 0 0 0 0 0 0 0 0 0 0 0 0 0 0 0 127 0" result="hardAlpha"/>
<feOffset dy="4"/>
<feGaussianBlur stdDeviation="3"/>
<feComposite in2="hardAlpha" operator="out"/>
<feColorMatrix type="matrix" values="0 0 0 0 0 0 0 0 0 0 0 0 0 0 0 0 0 0 0.05 0"/>
<feBlend mode="normal" in2="BackgroundImageFix" result="effect1_dropShadow_7069_6441"/>
<feBlend mode="normal" in="SourceGraphic" in2="effect1_dropShadow_7069_6441" result="shape"/>
</filter>
</defs>
</svg>
