<svg width="349" height="95" viewBox="0 0 349 95" fill="none" xmlns="http://www.w3.org/2000/svg">
<g filter="url(#filter0_d_6977_5414)">
<rect x="16.7" y="2.7" width="268.6" height="81.6" rx="7.3" fill="white"/>
<path d="M31.096 19.524V18.452H38.92V19.524H35.344L35.624 19.236V28.5H34.376V19.236L34.656 19.524H31.096ZM46.2316 28.5V24.004C46.2316 23.2733 46.0556 22.7187 45.7036 22.34C45.357 21.956 44.8823 21.764 44.2796 21.764C43.821 21.764 43.4236 21.8893 43.0876 22.14C42.7516 22.3907 42.493 22.7507 42.3116 23.22C42.1303 23.684 42.0396 24.2387 42.0396 24.884H41.5596C41.5596 23.9933 41.677 23.2333 41.9116 22.604C42.1463 21.9747 42.4876 21.4947 42.9356 21.164C43.389 20.828 43.9383 20.66 44.5836 20.66C45.1863 20.66 45.701 20.796 46.1276 21.068C46.5596 21.3347 46.8903 21.7187 47.1196 22.22C47.349 22.7213 47.4636 23.316 47.4636 24.004V28.5H46.2316ZM40.7916 28.5V17.588H42.0396V28.5H40.7916ZM51.3119 19.044C51.0559 19.044 50.8532 18.972 50.7039 18.828C50.5545 18.6787 50.4799 18.484 50.4799 18.244C50.4799 18.0093 50.5545 17.8227 50.7039 17.684C50.8532 17.5453 51.0559 17.476 51.3119 17.476C51.5679 17.476 51.7705 17.5453 51.9199 17.684C52.0692 17.8227 52.1439 18.0093 52.1439 18.244C52.1439 18.484 52.0692 18.6787 51.9199 18.828C51.7705 18.972 51.5679 19.044 51.3119 19.044ZM50.6879 28.5V20.836H51.9359V28.5H50.6879ZM58.2855 28.692C57.5442 28.692 56.9255 28.588 56.4295 28.38C55.9335 28.1667 55.5575 27.876 55.3015 27.508C55.0455 27.1347 54.9095 26.708 54.8935 26.228H56.0935C56.1202 26.7133 56.3148 27.0787 56.6775 27.324C57.0455 27.564 57.5442 27.684 58.1735 27.684C58.5042 27.684 58.8082 27.6307 59.0855 27.524C59.3628 27.4173 59.5842 27.2707 59.7495 27.084C59.9148 26.8973 59.9975 26.6867 59.9975 26.452C59.9975 26.1533 59.8882 25.9187 59.6695 25.748C59.4508 25.5773 59.1015 25.428 58.6215 25.3L57.1335 24.82C56.4882 24.6173 55.9922 24.34 55.6455 23.988C55.3042 23.6307 55.1335 23.204 55.1335 22.708C55.1335 22.0893 55.4055 21.5933 55.9495 21.22C56.4935 20.8467 57.2082 20.66 58.0935 20.66C59.0322 20.66 59.7602 20.852 60.2775 21.236C60.7948 21.62 61.0642 22.1 61.0855 22.676H59.8535C59.8055 22.34 59.6348 22.0867 59.3415 21.916C59.0482 21.74 58.6322 21.652 58.0935 21.652C57.5762 21.652 57.1708 21.7693 56.8775 22.004C56.5895 22.2333 56.4455 22.4893 56.4455 22.772C56.4455 23.3 56.8988 23.6893 57.8055 23.94L59.3255 24.452C59.9815 24.6493 60.4828 24.908 60.8295 25.228C61.1815 25.548 61.3575 25.956 61.3575 26.452C61.3575 26.836 61.2322 27.1987 60.9815 27.54C60.7308 27.8813 60.3762 28.1587 59.9175 28.372C59.4588 28.5853 58.9148 28.692 58.2855 28.692ZM68.7606 19.044C68.5046 19.044 68.302 18.972 68.1526 18.828C68.0033 18.6787 67.9286 18.484 67.9286 18.244C67.9286 18.0093 68.0033 17.8227 68.1526 17.684C68.302 17.5453 68.5046 17.476 68.7606 17.476C69.0166 17.476 69.2193 17.5453 69.3686 17.684C69.518 17.8227 69.5926 18.0093 69.5926 18.244C69.5926 18.484 69.518 18.6787 69.3686 18.828C69.2193 18.972 69.0166 19.044 68.7606 19.044ZM68.1366 28.5V20.836H69.3846V28.5H68.1366ZM75.7342 28.692C74.9929 28.692 74.3742 28.588 73.8782 28.38C73.3822 28.1667 73.0062 27.876 72.7502 27.508C72.4942 27.1347 72.3582 26.708 72.3422 26.228H73.5422C73.5689 26.7133 73.7636 27.0787 74.1262 27.324C74.4942 27.564 74.9929 27.684 75.6222 27.684C75.9529 27.684 76.2569 27.6307 76.5342 27.524C76.8116 27.4173 77.0329 27.2707 77.1982 27.084C77.3636 26.8973 77.4462 26.6867 77.4462 26.452C77.4462 26.1533 77.3369 25.9187 77.1182 25.748C76.8996 25.5773 76.5502 25.428 76.0702 25.3L74.5822 24.82C73.9369 24.6173 73.4409 24.34 73.0942 23.988C72.7529 23.6307 72.5822 23.204 72.5822 22.708C72.5822 22.0893 72.8542 21.5933 73.3982 21.22C73.9422 20.8467 74.6569 20.66 75.5422 20.66C76.4809 20.66 77.2089 20.852 77.7262 21.236C78.2436 21.62 78.5129 22.1 78.5342 22.676H77.3022C77.2542 22.34 77.0836 22.0867 76.7902 21.916C76.4969 21.74 76.0809 21.652 75.5422 21.652C75.0249 21.652 74.6196 21.7693 74.3262 22.004C74.0382 22.2333 73.8942 22.4893 73.8942 22.772C73.8942 23.3 74.3476 23.6893 75.2542 23.94L76.7742 24.452C77.4302 24.6493 77.9316 24.908 78.2782 25.228C78.6302 25.548 78.8062 25.956 78.8062 26.452C78.8062 26.836 78.6809 27.1987 78.4302 27.54C78.1796 27.8813 77.8249 28.1587 77.3662 28.372C76.9076 28.5853 76.3636 28.692 75.7342 28.692ZM87.8574 28.692C87.4414 28.692 87.068 28.612 86.7374 28.452C86.4067 28.292 86.1454 28.052 85.9534 27.732C85.7614 27.412 85.6654 27.012 85.6654 26.532V18.724H86.8974V26.5C86.8974 27.2893 87.2654 27.684 88.0014 27.684C88.22 27.684 88.4307 27.66 88.6334 27.612C88.8414 27.564 89.0734 27.492 89.3294 27.396L89.5054 28.292C89.2334 28.4093 88.9614 28.5053 88.6894 28.58C88.4227 28.6547 88.1454 28.692 87.8574 28.692ZM84.4334 21.716V20.852H89.3134V21.716H84.4334ZM97.121 28.5V24.004C97.121 23.2733 96.945 22.7187 96.593 22.34C96.2463 21.956 95.7717 21.764 95.169 21.764C94.7103 21.764 94.313 21.8893 93.977 22.14C93.641 22.3907 93.3823 22.7507 93.201 23.22C93.0197 23.684 92.929 24.2387 92.929 24.884H92.449C92.449 23.9933 92.5663 23.2333 92.801 22.604C93.0357 21.9747 93.377 21.4947 93.825 21.164C94.2783 20.828 94.8277 20.66 95.473 20.66C96.0757 20.66 96.5903 20.796 97.017 21.068C97.449 21.3347 97.7797 21.7187 98.009 22.22C98.2383 22.7213 98.353 23.316 98.353 24.004V28.5H97.121ZM91.681 28.5V17.588H92.929V28.5H91.681ZM104.153 28.692C103.492 28.692 102.9 28.524 102.377 28.188C101.86 27.8467 101.449 27.3747 101.145 26.772C100.847 26.1693 100.697 25.476 100.697 24.692C100.697 23.8547 100.847 23.1347 101.145 22.532C101.444 21.9293 101.852 21.468 102.369 21.148C102.892 20.8227 103.487 20.66 104.153 20.66C104.735 20.66 105.231 20.7773 105.641 21.012C106.052 21.2467 106.383 21.564 106.633 21.964C106.884 22.364 107.057 22.8173 107.153 23.324C107.255 23.8253 107.284 24.3453 107.241 24.884H101.705V24.116H106.417L106.049 24.356C106.065 24.0413 106.047 23.7267 105.993 23.412C105.945 23.0973 105.852 22.8093 105.713 22.548C105.575 22.2813 105.38 22.068 105.129 21.908C104.879 21.748 104.559 21.668 104.169 21.668C103.679 21.668 103.268 21.7933 102.937 22.044C102.607 22.2947 102.359 22.6253 102.193 23.036C102.028 23.4413 101.945 23.8813 101.945 24.356V24.868C101.945 25.4013 102.025 25.8787 102.185 26.3C102.351 26.7213 102.596 27.0547 102.921 27.3C103.247 27.5453 103.657 27.668 104.153 27.668C104.649 27.668 105.057 27.548 105.377 27.308C105.697 27.068 105.892 26.7133 105.961 26.244H107.257C107.177 26.7507 106.996 27.188 106.713 27.556C106.431 27.9187 106.071 28.1987 105.633 28.396C105.196 28.5933 104.703 28.692 104.153 28.692ZM113.705 18.116H115.593V22.452H120.121V18.116H122.009V28.5H120.121V24.1H115.593V28.5H113.705V18.116ZM124.01 28.5L127.546 18.116H129.914L133.306 28.5H131.322L130.602 26.26H126.746L126.01 28.5H124.01ZM127.226 24.836H130.154L128.698 20.372L127.226 24.836ZM135.002 28.5V26.868L141.034 19.172V19.86L135.002 19.844V18.116H142.858V19.732L137.194 26.996L137.146 26.756L142.858 26.772V28.5H135.002ZM145.528 28.5V18.116H152.2V19.748H147.416V22.484H151.912V24.116H147.416V26.852H152.2V28.5H145.528ZM156.983 18.116V26.852H161.255V28.5H155.095V18.116H156.983ZM163.129 18.116H165.193L169.913 25.524H169.769V18.116H171.657V28.5H169.737L164.713 20.644H165.017V28.5H163.129V18.116ZM174.63 18.116H176.518V24.58C176.518 25.4333 176.734 26.0493 177.166 26.428C177.603 26.8067 178.161 26.996 178.838 26.996C179.521 26.996 180.078 26.8067 180.51 26.428C180.942 26.0493 181.158 25.4333 181.158 24.58V18.116H183.046V24.58C183.046 25.4547 182.878 26.2013 182.542 26.82C182.206 27.4387 181.723 27.9107 181.094 28.236C180.47 28.5613 179.718 28.724 178.838 28.724C177.958 28.724 177.203 28.5613 176.574 28.236C175.95 27.9107 175.47 27.4387 175.134 26.82C174.798 26.2013 174.63 25.4547 174.63 24.58V18.116ZM184.605 19.748V18.116H192.925V19.748H189.285L189.709 19.316V28.5H187.821V19.316L188.245 19.748H184.605ZM202.64 28.724C201.728 28.724 200.933 28.508 200.256 28.076C199.584 27.6387 199.061 27.0147 198.688 26.204C198.314 25.3933 198.128 24.42 198.128 23.284C198.128 22.1107 198.32 21.1267 198.704 20.332C199.093 19.532 199.626 18.9293 200.304 18.524C200.986 18.1133 201.765 17.908 202.64 17.908C203.85 17.908 204.794 18.2013 205.472 18.788C206.154 19.3747 206.592 20.1373 206.784 21.076L204.768 21.444C204.602 20.9 204.338 20.46 203.976 20.124C203.613 19.788 203.168 19.62 202.64 19.62C202.176 19.62 201.757 19.756 201.384 20.028C201.01 20.2947 200.712 20.7 200.488 21.244C200.269 21.788 200.16 22.468 200.16 23.284C200.16 24.052 200.256 24.7133 200.448 25.268C200.645 25.8227 200.928 26.2493 201.296 26.548C201.664 26.8467 202.112 26.996 202.64 26.996C203.317 26.996 203.84 26.8173 204.208 26.46C204.581 26.0973 204.768 25.636 204.768 25.076H206.784C206.784 25.8493 206.616 26.508 206.28 27.052C205.949 27.5907 205.474 28.004 204.856 28.292C204.237 28.58 203.498 28.724 202.64 28.724ZM208.028 28.5L211.564 18.116H213.932L217.324 28.5H215.34L214.62 26.26H210.764L210.028 28.5H208.028ZM211.244 24.836H214.172L212.716 20.372L211.244 24.836ZM225.34 18.116H227.932L221.084 25.124V22.548L225.34 18.116ZM223.036 22.404L228.22 28.5H225.788L221.724 23.636L223.036 22.404ZM219.34 18.116H221.244V28.5H219.34V18.116ZM229.953 28.5V18.116H236.625V19.748H231.841V22.484H236.337V24.116H231.841V26.852H236.625V28.5H229.953ZM32.488 48.5V38.116H36.328C37.5707 38.116 38.5227 38.4067 39.184 38.988C39.8507 39.5693 40.184 40.34 40.184 41.3C40.184 42.244 39.8507 43.0067 39.184 43.588C38.5227 44.164 37.5707 44.452 36.328 44.452H34.376V48.5H32.488ZM38.104 48.5L35.352 43.636H37.368L40.568 48.5H38.104ZM34.376 43.188H36.136C36.8293 43.188 37.3547 43.0307 37.712 42.716C38.0693 42.396 38.248 41.9827 38.248 41.476C38.248 40.9587 38.0853 40.5427 37.76 40.228C37.4347 39.908 36.9573 39.748 36.328 39.748H34.376V43.188ZM42.9289 48.5V38.116H49.6009V39.748H44.8169V42.484H49.3129V44.116H44.8169V46.852H49.6009V48.5H42.9289ZM56.2715 48.724C55.3595 48.724 54.5648 48.508 53.8875 48.076C53.2155 47.6387 52.6928 47.0147 52.3195 46.204C51.9462 45.3933 51.7595 44.42 51.7595 43.284C51.7595 42.1107 51.9515 41.1267 52.3355 40.332C52.7248 39.532 53.2582 38.9293 53.9355 38.524C54.6182 38.1133 55.3968 37.908 56.2715 37.908C57.4822 37.908 58.4262 38.2013 59.1035 38.788C59.7862 39.3747 60.2235 40.1373 60.4155 41.076L58.3995 41.444C58.2342 40.9 57.9702 40.46 57.6075 40.124C57.2448 39.788 56.7995 39.62 56.2715 39.62C55.8075 39.62 55.3888 39.756 55.0155 40.028C54.6422 40.2947 54.3435 40.7 54.1195 41.244C53.9008 41.788 53.7915 42.468 53.7915 43.284C53.7915 44.052 53.8875 44.7133 54.0795 45.268C54.2768 45.8227 54.5595 46.2493 54.9275 46.548C55.2955 46.8467 55.7435 46.996 56.2715 46.996C56.9488 46.996 57.4715 46.8173 57.8395 46.46C58.2128 46.0973 58.3995 45.636 58.3995 45.076H60.4155C60.4155 45.8493 60.2475 46.508 59.9115 47.052C59.5808 47.5907 59.1062 48.004 58.4875 48.292C57.8688 48.58 57.1302 48.724 56.2715 48.724ZM62.7961 48.5V38.116H64.6841V48.5H62.7961ZM67.7831 48.5V38.116H71.4471C72.6151 38.116 73.5245 38.404 74.1751 38.98C74.8311 39.556 75.1591 40.372 75.1591 41.428C75.1591 42.4733 74.8311 43.284 74.1751 43.86C73.5245 44.436 72.6151 44.724 71.4471 44.724H69.6871V48.5H67.7831ZM69.6871 43.076H71.4471C72.0338 43.076 72.4765 42.9213 72.7751 42.612C73.0738 42.3027 73.2231 41.908 73.2231 41.428C73.2231 40.9373 73.0738 40.5347 72.7751 40.22C72.4765 39.9053 72.0338 39.748 71.4471 39.748H69.6871V43.076ZM77.2564 48.5V38.116H83.9284V39.748H79.1444V42.484H83.6404V44.116H79.1444V46.852H83.9284V48.5H77.2564ZM94.3799 48.692C93.8199 48.692 93.3319 48.564 92.9159 48.308C92.5052 48.052 92.1879 47.6787 91.9639 47.188C91.7399 46.692 91.6279 46.0893 91.6279 45.38H92.1559C92.1559 45.8547 92.2545 46.2547 92.4519 46.58C92.6492 46.9053 92.9052 47.1533 93.2199 47.324C93.5399 47.4893 93.8785 47.572 94.2359 47.572C94.6199 47.572 94.9879 47.4627 95.3399 47.244C95.6919 47.02 95.9799 46.692 96.2039 46.26C96.4279 45.828 96.5399 45.2947 96.5399 44.66C96.5399 44.052 96.4359 43.532 96.2279 43.1C96.0252 42.668 95.7505 42.3373 95.4039 42.108C95.0572 41.8787 94.6732 41.764 94.2519 41.764C93.8892 41.764 93.5479 41.852 93.2279 42.028C92.9079 42.204 92.6492 42.4627 92.4519 42.804C92.2545 43.14 92.1559 43.556 92.1559 44.052H91.6279C91.6279 43.3107 91.7505 42.6893 91.9959 42.188C92.2412 41.6813 92.5745 41.3 92.9959 41.044C93.4172 40.788 93.8892 40.66 94.4119 40.66C95.0092 40.66 95.5665 40.82 96.0839 41.14C96.6012 41.46 97.0199 41.9187 97.3399 42.516C97.6599 43.1133 97.8199 43.828 97.8199 44.66C97.8199 45.5027 97.6572 46.2253 97.3319 46.828C97.0119 47.4307 96.5905 47.892 96.0679 48.212C95.5452 48.532 94.9825 48.692 94.3799 48.692ZM90.9079 52.26V40.852H91.9479L92.1559 42.644V52.26H90.9079ZM105.163 48.5L105.003 46.82V43.54C105.003 42.852 104.857 42.3587 104.563 42.06C104.27 41.756 103.83 41.604 103.243 41.604C102.913 41.604 102.611 41.652 102.339 41.748C102.073 41.844 101.859 41.9933 101.699 42.196C101.545 42.3933 101.467 42.6493 101.467 42.964H100.075C100.075 42.4093 100.211 41.964 100.483 41.628C100.755 41.2867 101.129 41.0413 101.603 40.892C102.083 40.7373 102.63 40.66 103.243 40.66C103.83 40.66 104.35 40.7587 104.803 40.956C105.257 41.1533 105.611 41.468 105.867 41.9C106.123 42.3267 106.251 42.884 106.251 43.572V48.5H105.163ZM102.555 48.692C101.926 48.692 101.406 48.58 100.995 48.356C100.585 48.132 100.278 47.8413 100.075 47.484C99.8726 47.1267 99.7712 46.7507 99.7712 46.356C99.7712 45.8387 99.8992 45.4173 100.155 45.092C100.417 44.7667 100.771 44.5293 101.219 44.38C101.667 44.2253 102.171 44.148 102.731 44.148C103.131 44.148 103.531 44.188 103.931 44.268C104.337 44.348 104.731 44.4573 105.115 44.596V45.38C104.795 45.252 104.433 45.1507 104.027 45.076C103.627 45.0013 103.259 44.964 102.923 44.964C102.411 44.964 101.979 45.0707 101.627 45.284C101.275 45.492 101.099 45.8493 101.099 46.356C101.099 46.7293 101.233 47.0493 101.499 47.316C101.771 47.5827 102.203 47.716 102.795 47.716C103.211 47.716 103.585 47.62 103.915 47.428C104.251 47.2307 104.515 46.9853 104.707 46.692C104.905 46.3987 105.003 46.1053 105.003 45.812H105.307C105.307 46.324 105.195 46.7987 104.971 47.236C104.753 47.6733 104.438 48.0253 104.027 48.292C103.617 48.5587 103.126 48.692 102.555 48.692ZM112.104 52.436C111.32 52.436 110.64 52.324 110.064 52.1C109.488 51.8813 109.04 51.5853 108.72 51.212C108.405 50.844 108.248 50.436 108.248 49.988C108.248 49.396 108.464 48.9427 108.896 48.628C109.333 48.3187 109.896 48.164 110.584 48.164L111.272 48.596C110.696 48.596 110.25 48.716 109.936 48.956C109.621 49.196 109.464 49.524 109.464 49.94C109.464 50.356 109.688 50.708 110.136 50.996C110.584 51.284 111.24 51.428 112.104 51.428C112.744 51.428 113.304 51.3347 113.784 51.148C114.269 50.9667 114.645 50.7267 114.912 50.428C115.184 50.1347 115.32 49.8173 115.32 49.476C115.32 49.236 115.232 49.028 115.056 48.852C114.88 48.6813 114.61 48.596 114.248 48.596H111.272C110.754 48.596 110.306 48.5187 109.928 48.364C109.554 48.204 109.266 47.996 109.064 47.74C108.861 47.484 108.76 47.204 108.76 46.9C108.76 46.58 108.85 46.308 109.032 46.084C109.213 45.86 109.448 45.6893 109.736 45.572C110.029 45.4547 110.344 45.396 110.68 45.396L110.92 45.86C110.76 45.86 110.597 45.8973 110.432 45.972C110.272 46.0413 110.136 46.148 110.024 46.292C109.917 46.4307 109.864 46.6067 109.864 46.82C109.864 47.0653 109.965 47.2707 110.168 47.436C110.37 47.6013 110.738 47.684 111.272 47.684H114.248C114.968 47.684 115.533 47.836 115.944 48.14C116.36 48.444 116.568 48.868 116.568 49.412C116.568 49.9133 116.389 50.3933 116.032 50.852C115.674 51.316 115.162 51.6947 114.496 51.988C113.829 52.2867 113.032 52.436 112.104 52.436ZM112.328 46.26C111.741 46.26 111.21 46.1427 110.736 45.908C110.266 45.6733 109.893 45.3453 109.616 44.924C109.344 44.5027 109.208 44.0147 109.208 43.46C109.208 42.9 109.344 42.4093 109.616 41.988C109.893 41.5667 110.266 41.2413 110.736 41.012C111.21 40.7773 111.741 40.66 112.328 40.66C112.898 40.66 113.416 40.7773 113.88 41.012C114.349 41.2413 114.722 41.5667 115 41.988C115.277 42.4093 115.416 42.9 115.416 43.46C115.416 44.0147 115.277 44.5027 115 44.924C114.722 45.3453 114.349 45.6733 113.88 45.908C113.416 46.1427 112.898 46.26 112.328 46.26ZM112.328 45.364C112.914 45.364 113.37 45.1827 113.696 44.82C114.021 44.4573 114.184 44.004 114.184 43.46C114.184 42.9 114.021 42.4467 113.696 42.1C113.37 41.748 112.914 41.572 112.328 41.572C111.746 41.572 111.288 41.748 110.952 42.1C110.621 42.4467 110.456 42.9 110.456 43.46C110.456 44.004 110.621 44.4573 110.952 44.82C111.288 45.1827 111.746 45.364 112.328 45.364ZM114.84 41.876L114.248 41.636C114.248 41.188 114.336 40.796 114.512 40.46C114.688 40.1187 114.938 39.8547 115.264 39.668C115.589 39.476 115.976 39.38 116.424 39.38L116.328 40.612C115.848 40.612 115.48 40.716 115.224 40.924C114.968 41.1267 114.84 41.444 114.84 41.876ZM121.247 48.692C120.586 48.692 119.994 48.524 119.471 48.188C118.954 47.8467 118.543 47.3747 118.239 46.772C117.94 46.1693 117.791 45.476 117.791 44.692C117.791 43.8547 117.94 43.1347 118.239 42.532C118.538 41.9293 118.946 41.468 119.463 41.148C119.986 40.8227 120.58 40.66 121.247 40.66C121.828 40.66 122.324 40.7773 122.735 41.012C123.146 41.2467 123.476 41.564 123.727 41.964C123.978 42.364 124.151 42.8173 124.247 43.324C124.348 43.8253 124.378 44.3453 124.335 44.884H118.799V44.116H123.511L123.143 44.356C123.159 44.0413 123.14 43.7267 123.087 43.412C123.039 43.0973 122.946 42.8093 122.807 42.548C122.668 42.2813 122.474 42.068 122.223 41.908C121.972 41.748 121.652 41.668 121.263 41.668C120.772 41.668 120.362 41.7933 120.031 42.044C119.7 42.2947 119.452 42.6253 119.287 43.036C119.122 43.4413 119.039 43.8813 119.039 44.356V44.868C119.039 45.4013 119.119 45.8787 119.279 46.3C119.444 46.7213 119.69 47.0547 120.015 47.3C120.34 47.5453 120.751 47.668 121.247 47.668C121.743 47.668 122.151 47.548 122.471 47.308C122.791 47.068 122.986 46.7133 123.055 46.244H124.351C124.271 46.7507 124.09 47.188 123.807 47.556C123.524 47.9187 123.164 48.1987 122.727 48.396C122.29 48.5933 121.796 48.692 121.247 48.692ZM126.778 50.244L125.834 49.78C126.138 49.6253 126.394 49.4547 126.602 49.268C126.815 49.0813 126.954 48.852 127.018 48.58C126.788 48.5533 126.591 48.4707 126.426 48.332C126.266 48.1933 126.186 48.0093 126.186 47.78C126.186 47.556 126.268 47.364 126.434 47.204C126.604 47.044 126.82 46.964 127.082 46.964C127.412 46.964 127.679 47.084 127.882 47.324C128.084 47.564 128.186 47.8493 128.186 48.18C128.186 48.5693 128.066 48.9507 127.826 49.324C127.591 49.7027 127.242 50.0093 126.778 50.244ZM134.43 48.5V38.452H135.678V48.5H134.43ZM145.72 48.692C145.106 48.692 144.533 48.5267 144 48.196C143.472 47.8653 143.045 47.3987 142.72 46.796C142.394 46.1933 142.232 45.4813 142.232 44.66C142.232 43.8173 142.394 43.0973 142.72 42.5C143.045 41.9027 143.472 41.4467 144 41.132C144.533 40.8173 145.106 40.66 145.72 40.66C146.152 40.66 146.538 40.7267 146.88 40.86C147.226 40.988 147.528 41.1667 147.784 41.396C148.04 41.6253 148.25 41.8867 148.416 42.18C148.586 42.468 148.712 42.772 148.792 43.092L147.512 43.204C147.378 42.7613 147.154 42.412 146.84 42.156C146.53 41.8947 146.152 41.764 145.704 41.764C145.325 41.764 144.968 41.8733 144.632 42.092C144.301 42.3053 144.032 42.628 143.824 43.06C143.616 43.4867 143.512 44.02 143.512 44.66C143.512 45.252 143.605 45.7667 143.792 46.204C143.984 46.636 144.245 46.972 144.576 47.212C144.906 47.452 145.282 47.572 145.704 47.572C146.296 47.572 146.744 47.428 147.048 47.14C147.357 46.8467 147.512 46.4413 147.512 45.924H148.792C148.792 46.4573 148.666 46.932 148.416 47.348C148.165 47.764 147.808 48.092 147.344 48.332C146.885 48.572 146.344 48.692 145.72 48.692ZM156.178 48.5L156.018 46.82V43.54C156.018 42.852 155.871 42.3587 155.578 42.06C155.284 41.756 154.844 41.604 154.258 41.604C153.927 41.604 153.626 41.652 153.354 41.748C153.087 41.844 152.874 41.9933 152.714 42.196C152.559 42.3933 152.482 42.6493 152.482 42.964H151.09C151.09 42.4093 151.226 41.964 151.498 41.628C151.77 41.2867 152.143 41.0413 152.618 40.892C153.098 40.7373 153.644 40.66 154.258 40.66C154.844 40.66 155.364 40.7587 155.818 40.956C156.271 41.1533 156.626 41.468 156.882 41.9C157.138 42.3267 157.266 42.884 157.266 43.572V48.5H156.178ZM153.57 48.692C152.94 48.692 152.42 48.58 152.01 48.356C151.599 48.132 151.292 47.8413 151.09 47.484C150.887 47.1267 150.786 46.7507 150.786 46.356C150.786 45.8387 150.914 45.4173 151.17 45.092C151.431 44.7667 151.786 44.5293 152.234 44.38C152.682 44.2253 153.186 44.148 153.746 44.148C154.146 44.148 154.546 44.188 154.946 44.268C155.351 44.348 155.746 44.4573 156.13 44.596V45.38C155.81 45.252 155.447 45.1507 155.042 45.076C154.642 45.0013 154.274 44.964 153.938 44.964C153.426 44.964 152.994 45.0707 152.642 45.284C152.29 45.492 152.114 45.8493 152.114 46.356C152.114 46.7293 152.247 47.0493 152.514 47.316C152.786 47.5827 153.218 47.716 153.81 47.716C154.226 47.716 154.599 47.62 154.93 47.428C155.266 47.2307 155.53 46.9853 155.722 46.692C155.919 46.3987 156.018 46.1053 156.018 45.812H156.322C156.322 46.324 156.21 46.7987 155.986 47.236C155.767 47.6733 155.452 48.0253 155.042 48.292C154.631 48.5587 154.14 48.692 153.57 48.692ZM165.854 48.5V44.004C165.854 43.2733 165.678 42.7187 165.326 42.34C164.979 41.956 164.505 41.764 163.902 41.764C163.443 41.764 163.046 41.8893 162.71 42.14C162.374 42.3907 162.115 42.7507 161.934 43.22C161.753 43.684 161.662 44.2387 161.662 44.884H161.182C161.182 43.9933 161.299 43.2333 161.534 42.604C161.769 41.9747 162.11 41.4947 162.558 41.164C163.011 40.828 163.561 40.66 164.206 40.66C164.809 40.66 165.323 40.796 165.75 41.068C166.182 41.3347 166.513 41.7187 166.742 42.22C166.971 42.7213 167.086 43.316 167.086 44.004V48.5H165.854ZM160.414 48.5V40.852H161.486L161.662 42.612V48.5H160.414ZM176.843 48.692C176.182 48.692 175.59 48.524 175.067 48.188C174.55 47.8467 174.139 47.3747 173.835 46.772C173.537 46.1693 173.387 45.476 173.387 44.692C173.387 43.8547 173.537 43.1347 173.835 42.532C174.134 41.9293 174.542 41.468 175.059 41.148C175.582 40.8227 176.177 40.66 176.843 40.66C177.425 40.66 177.921 40.7773 178.331 41.012C178.742 41.2467 179.073 41.564 179.323 41.964C179.574 42.364 179.747 42.8173 179.843 43.324C179.945 43.8253 179.974 44.3453 179.931 44.884H174.395V44.116H179.107L178.739 44.356C178.755 44.0413 178.737 43.7267 178.683 43.412C178.635 43.0973 178.542 42.8093 178.403 42.548C178.265 42.2813 178.07 42.068 177.819 41.908C177.569 41.748 177.249 41.668 176.859 41.668C176.369 41.668 175.958 41.7933 175.627 42.044C175.297 42.2947 175.049 42.6253 174.883 43.036C174.718 43.4413 174.635 43.8813 174.635 44.356V44.868C174.635 45.4013 174.715 45.8787 174.875 46.3C175.041 46.7213 175.286 47.0547 175.611 47.3C175.937 47.5453 176.347 47.668 176.843 47.668C177.339 47.668 177.747 47.548 178.067 47.308C178.387 47.068 178.582 46.7133 178.651 46.244H179.947C179.867 46.7507 179.686 47.188 179.403 47.556C179.121 47.9187 178.761 48.1987 178.323 48.396C177.886 48.5933 177.393 48.692 176.843 48.692ZM181.366 48.5L184.262 44.676L181.366 40.836H182.886L185.078 43.732L187.19 40.836H188.71L185.798 44.676L188.694 48.5H187.174L184.982 45.588L182.886 48.5H181.366ZM194.386 48.692C193.826 48.692 193.338 48.564 192.922 48.308C192.511 48.052 192.194 47.6787 191.97 47.188C191.746 46.692 191.634 46.0893 191.634 45.38H192.162C192.162 45.8547 192.26 46.2547 192.458 46.58C192.655 46.9053 192.911 47.1533 193.226 47.324C193.546 47.4893 193.884 47.572 194.242 47.572C194.626 47.572 194.994 47.4627 195.346 47.244C195.698 47.02 195.986 46.692 196.21 46.26C196.434 45.828 196.546 45.2947 196.546 44.66C196.546 44.052 196.442 43.532 196.234 43.1C196.031 42.668 195.756 42.3373 195.41 42.108C195.063 41.8787 194.679 41.764 194.258 41.764C193.895 41.764 193.554 41.852 193.234 42.028C192.914 42.204 192.655 42.4627 192.458 42.804C192.26 43.14 192.162 43.556 192.162 44.052H191.634C191.634 43.3107 191.756 42.6893 192.002 42.188C192.247 41.6813 192.58 41.3 193.002 41.044C193.423 40.788 193.895 40.66 194.418 40.66C195.015 40.66 195.572 40.82 196.09 41.14C196.607 41.46 197.026 41.9187 197.346 42.516C197.666 43.1133 197.826 43.828 197.826 44.66C197.826 45.5027 197.663 46.2253 197.338 46.828C197.018 47.4307 196.596 47.892 196.074 48.212C195.551 48.532 194.988 48.692 194.386 48.692ZM190.914 52.26V40.852H191.954L192.162 42.644V52.26H190.914ZM200.433 48.5V37.588H201.681V48.5H200.433ZM207.845 48.692C207.157 48.692 206.544 48.54 206.005 48.236C205.472 47.932 205.051 47.4813 204.741 46.884C204.432 46.2867 204.277 45.5507 204.277 44.676C204.277 43.796 204.432 43.06 204.741 42.468C205.051 41.8707 205.472 41.42 206.005 41.116C206.544 40.812 207.157 40.66 207.845 40.66C208.528 40.66 209.136 40.812 209.669 41.116C210.208 41.42 210.629 41.8707 210.933 42.468C211.243 43.06 211.397 43.796 211.397 44.676C211.397 45.5507 211.243 46.2867 210.933 46.884C210.629 47.4813 210.208 47.932 209.669 48.236C209.136 48.54 208.528 48.692 207.845 48.692ZM207.813 47.604C208.309 47.604 208.731 47.4867 209.077 47.252C209.424 47.012 209.685 46.6733 209.861 46.236C210.043 45.7987 210.133 45.2787 210.133 44.676C210.133 43.764 209.944 43.0467 209.565 42.524C209.187 41.996 208.624 41.732 207.877 41.732C207.376 41.732 206.952 41.852 206.605 42.092C206.264 42.3267 206.003 42.6653 205.821 43.108C205.645 43.5453 205.557 44.068 205.557 44.676C205.557 45.5773 205.747 46.292 206.125 46.82C206.509 47.3427 207.072 47.604 207.813 47.604ZM213.987 48.5V40.836H215.235V48.5H213.987ZM214.851 45.044C214.851 44.0733 214.945 43.268 215.131 42.628C215.318 41.9827 215.59 41.5027 215.947 41.188C216.31 40.868 216.75 40.708 217.267 40.708C217.438 40.708 217.593 40.7213 217.731 40.748C217.875 40.7693 218.019 40.804 218.163 40.852L218.083 42.084C217.934 42.036 217.771 41.996 217.595 41.964C217.419 41.9267 217.262 41.908 217.123 41.908C216.67 41.908 216.305 42.0387 216.027 42.3C215.75 42.556 215.547 42.9187 215.419 43.388C215.297 43.8573 215.235 44.4093 215.235 45.044H214.851ZM222.585 48.692C221.923 48.692 221.331 48.524 220.809 48.188C220.291 47.8467 219.881 47.3747 219.577 46.772C219.278 46.1693 219.129 45.476 219.129 44.692C219.129 43.8547 219.278 43.1347 219.577 42.532C219.875 41.9293 220.283 41.468 220.801 41.148C221.323 40.8227 221.918 40.66 222.585 40.66C223.166 40.66 223.662 40.7773 224.073 41.012C224.483 41.2467 224.814 41.564 225.065 41.964C225.315 42.364 225.489 42.8173 225.585 43.324C225.686 43.8253 225.715 44.3453 225.673 44.884H220.137V44.116H224.849L224.481 44.356C224.497 44.0413 224.478 43.7267 224.425 43.412C224.377 43.0973 224.283 42.8093 224.145 42.548C224.006 42.2813 223.811 42.068 223.561 41.908C223.31 41.748 222.99 41.668 222.601 41.668C222.11 41.668 221.699 41.7933 221.369 42.044C221.038 42.2947 220.79 42.6253 220.625 43.036C220.459 43.4413 220.377 43.8813 220.377 44.356V44.868C220.377 45.4013 220.457 45.8787 220.617 46.3C220.782 46.7213 221.027 47.0547 221.353 47.3C221.678 47.5453 222.089 47.668 222.585 47.668C223.081 47.668 223.489 47.548 223.809 47.308C224.129 47.068 224.323 46.7133 224.393 46.244H225.689C225.609 46.7507 225.427 47.188 225.145 47.556C224.862 47.9187 224.502 48.1987 224.065 48.396C223.627 48.5933 223.134 48.692 222.585 48.692ZM234.616 48.692C234.2 48.692 233.827 48.612 233.496 48.452C233.165 48.292 232.904 48.052 232.712 47.732C232.52 47.412 232.424 47.012 232.424 46.532V38.724H233.656V46.5C233.656 47.2893 234.024 47.684 234.76 47.684C234.979 47.684 235.189 47.66 235.392 47.612C235.6 47.564 235.832 47.492 236.088 47.396L236.264 48.292C235.992 48.4093 235.72 48.5053 235.448 48.58C235.181 48.6547 234.904 48.692 234.616 48.692ZM231.192 41.716V40.852H236.072V41.716H231.192ZM243.88 48.5V44.004C243.88 43.2733 243.704 42.7187 243.352 42.34C243.005 41.956 242.53 41.764 241.928 41.764C241.469 41.764 241.072 41.8893 240.736 42.14C240.4 42.3907 240.141 42.7507 239.96 43.22C239.778 43.684 239.688 44.2387 239.688 44.884H239.208C239.208 43.9933 239.325 43.2333 239.56 42.604C239.794 41.9747 240.136 41.4947 240.584 41.164C241.037 40.828 241.586 40.66 242.232 40.66C242.834 40.66 243.349 40.796 243.776 41.068C244.208 41.3347 244.538 41.7187 244.768 42.22C244.997 42.7213 245.112 43.316 245.112 44.004V48.5H243.88ZM238.44 48.5V37.588H239.688V48.5H238.44ZM250.912 48.692C250.251 48.692 249.659 48.524 249.136 48.188C248.619 47.8467 248.208 47.3747 247.904 46.772C247.605 46.1693 247.456 45.476 247.456 44.692C247.456 43.8547 247.605 43.1347 247.904 42.532C248.203 41.9293 248.611 41.468 249.128 41.148C249.651 40.8227 250.245 40.66 250.912 40.66C251.493 40.66 251.989 40.7773 252.4 41.012C252.811 41.2467 253.141 41.564 253.392 41.964C253.643 42.364 253.816 42.8173 253.912 43.324C254.013 43.8253 254.043 44.3453 254 44.884H248.464V44.116H253.176L252.808 44.356C252.824 44.0413 252.805 43.7267 252.752 43.412C252.704 43.0973 252.611 42.8093 252.472 42.548C252.333 42.2813 252.139 42.068 251.888 41.908C251.637 41.748 251.317 41.668 250.928 41.668C250.437 41.668 250.027 41.7933 249.696 42.044C249.365 42.2947 249.117 42.6253 248.952 43.036C248.787 43.4413 248.704 43.8813 248.704 44.356V44.868C248.704 45.4013 248.784 45.8787 248.944 46.3C249.109 46.7213 249.355 47.0547 249.68 47.3C250.005 47.5453 250.416 47.668 250.912 47.668C251.408 47.668 251.816 47.548 252.136 47.308C252.456 47.068 252.651 46.7133 252.72 46.244H254.016C253.936 46.7507 253.755 47.188 253.472 47.556C253.189 47.9187 252.829 48.1987 252.392 48.396C251.955 48.5933 251.461 48.692 250.912 48.692ZM35.304 68.692C34.6907 68.692 34.1173 68.5267 33.584 68.196C33.056 67.8653 32.6293 67.3987 32.304 66.796C31.9787 66.1933 31.816 65.4813 31.816 64.66C31.816 63.8173 31.9787 63.0973 32.304 62.5C32.6293 61.9027 33.056 61.4467 33.584 61.132C34.1173 60.8173 34.6907 60.66 35.304 60.66C35.736 60.66 36.1227 60.7267 36.464 60.86C36.8107 60.988 37.112 61.1667 37.368 61.396C37.624 61.6253 37.8347 61.8867 38 62.18C38.1707 62.468 38.296 62.772 38.376 63.092L37.096 63.204C36.9627 62.7613 36.7387 62.412 36.424 62.156C36.1147 61.8947 35.736 61.764 35.288 61.764C34.9093 61.764 34.552 61.8733 34.216 62.092C33.8853 62.3053 33.616 62.628 33.408 63.06C33.2 63.4867 33.096 64.02 33.096 64.66C33.096 65.252 33.1893 65.7667 33.376 66.204C33.568 66.636 33.8293 66.972 34.16 67.212C34.4907 67.452 34.8667 67.572 35.288 67.572C35.88 67.572 36.328 67.428 36.632 67.14C36.9413 66.8467 37.096 66.4413 37.096 65.924H38.376C38.376 66.4573 38.2507 66.932 38 67.348C37.7493 67.764 37.392 68.092 36.928 68.332C36.4693 68.572 35.928 68.692 35.304 68.692ZM43.794 68.692C43.106 68.692 42.4927 68.54 41.954 68.236C41.4207 67.932 40.9993 67.4813 40.69 66.884C40.3807 66.2867 40.226 65.5507 40.226 64.676C40.226 63.796 40.3807 63.06 40.69 62.468C40.9993 61.8707 41.4207 61.42 41.954 61.116C42.4927 60.812 43.106 60.66 43.794 60.66C44.4767 60.66 45.0847 60.812 45.618 61.116C46.1567 61.42 46.578 61.8707 46.882 62.468C47.1913 63.06 47.346 63.796 47.346 64.676C47.346 65.5507 47.1913 66.2867 46.882 66.884C46.578 67.4813 46.1567 67.932 45.618 68.236C45.0847 68.54 44.4767 68.692 43.794 68.692ZM43.762 67.604C44.258 67.604 44.6793 67.4867 45.026 67.252C45.3727 67.012 45.634 66.6733 45.81 66.236C45.9913 65.7987 46.082 65.2787 46.082 64.676C46.082 63.764 45.8927 63.0467 45.514 62.524C45.1353 61.996 44.5727 61.732 43.826 61.732C43.3247 61.732 42.9007 61.852 42.554 62.092C42.2127 62.3267 41.9513 62.6653 41.77 63.108C41.594 63.5453 41.506 64.068 41.506 64.676C41.506 65.5773 41.6953 66.292 42.074 66.82C42.458 67.3427 43.0207 67.604 43.762 67.604ZM55.376 68.5V64.004C55.376 63.2733 55.2 62.7187 54.848 62.34C54.5013 61.956 54.0267 61.764 53.424 61.764C52.9653 61.764 52.568 61.8893 52.232 62.14C51.896 62.3907 51.6373 62.7507 51.456 63.22C51.2747 63.684 51.184 64.2387 51.184 64.884H50.704C50.704 63.9933 50.8213 63.2333 51.056 62.604C51.2907 61.9747 51.632 61.4947 52.08 61.164C52.5333 60.828 53.0827 60.66 53.728 60.66C54.3307 60.66 54.8453 60.796 55.272 61.068C55.704 61.3347 56.0347 61.7187 56.264 62.22C56.4933 62.7213 56.608 63.316 56.608 64.004V68.5H55.376ZM49.936 68.5V60.852H51.008L51.184 62.612V68.5H49.936ZM62.1042 68.692C61.6882 68.692 61.3149 68.612 60.9842 68.452C60.6536 68.292 60.3922 68.052 60.2002 67.732C60.0082 67.412 59.9122 67.012 59.9122 66.532V58.724H61.1442V66.5C61.1442 67.2893 61.5122 67.684 62.2482 67.684C62.4669 67.684 62.6776 67.66 62.8802 67.612C63.0882 67.564 63.3202 67.492 63.5762 67.396L63.7522 68.292C63.4802 68.4093 63.2082 68.5053 62.9362 68.58C62.6696 68.6547 62.3922 68.692 62.1042 68.692ZM58.6802 61.716V60.852H63.5602V61.716H58.6802ZM68.5839 68.692C67.9225 68.692 67.3305 68.524 66.8079 68.188C66.2905 67.8467 65.8799 67.3747 65.5759 66.772C65.2772 66.1693 65.1279 65.476 65.1279 64.692C65.1279 63.8547 65.2772 63.1347 65.5759 62.532C65.8745 61.9293 66.2825 61.468 66.7999 61.148C67.3225 60.8227 67.9172 60.66 68.5839 60.66C69.1652 60.66 69.6612 60.7773 70.0719 61.012C70.4825 61.2467 70.8132 61.564 71.0639 61.964C71.3145 62.364 71.4879 62.8173 71.5839 63.324C71.6852 63.8253 71.7145 64.3453 71.6719 64.884H66.1359V64.116H70.8479L70.4799 64.356C70.4959 64.0413 70.4772 63.7267 70.4239 63.412C70.3759 63.0973 70.2825 62.8093 70.1439 62.548C70.0052 62.2813 69.8105 62.068 69.5599 61.908C69.3092 61.748 68.9892 61.668 68.5999 61.668C68.1092 61.668 67.6985 61.7933 67.3679 62.044C67.0372 62.2947 66.7892 62.6253 66.6239 63.036C66.4585 63.4413 66.3759 63.8813 66.3759 64.356V64.868C66.3759 65.4013 66.4559 65.8787 66.6159 66.3C66.7812 66.7213 67.0265 67.0547 67.3519 67.3C67.6772 67.5453 68.0879 67.668 68.5839 67.668C69.0799 67.668 69.4879 67.548 69.8079 67.308C70.1279 67.068 70.3225 66.7133 70.3919 66.244H71.6879C71.6079 66.7507 71.4265 67.188 71.1439 67.556C70.8612 67.9187 70.5012 68.1987 70.0639 68.396C69.6265 68.5933 69.1332 68.692 68.5839 68.692ZM79.7466 68.5V64.004C79.7466 63.2733 79.5706 62.7187 79.2186 62.34C78.872 61.956 78.3973 61.764 77.7946 61.764C77.336 61.764 76.9386 61.8893 76.6026 62.14C76.2666 62.3907 76.008 62.7507 75.8266 63.22C75.6453 63.684 75.5546 64.2387 75.5546 64.884H75.0746C75.0746 63.9933 75.192 63.2333 75.4266 62.604C75.6613 61.9747 76.0026 61.4947 76.4506 61.164C76.904 60.828 77.4533 60.66 78.0986 60.66C78.7013 60.66 79.216 60.796 79.6426 61.068C80.0746 61.3347 80.4053 61.7187 80.6346 62.22C80.864 62.7213 80.9786 63.316 80.9786 64.004V68.5H79.7466ZM74.3066 68.5V60.852H75.3786L75.5546 62.612V68.5H74.3066ZM86.4749 68.692C86.0589 68.692 85.6855 68.612 85.3549 68.452C85.0242 68.292 84.7629 68.052 84.5709 67.732C84.3789 67.412 84.2829 67.012 84.2829 66.532V58.724H85.5149V66.5C85.5149 67.2893 85.8829 67.684 86.6189 67.684C86.8375 67.684 87.0482 67.66 87.2509 67.612C87.4589 67.564 87.6909 67.492 87.9469 67.396L88.1229 68.292C87.8509 68.4093 87.5789 68.5053 87.3069 68.58C87.0402 68.6547 86.7629 68.692 86.4749 68.692ZM83.0509 61.716V60.852H87.9309V61.716H83.0509ZM97.0234 68.692C96.3354 68.692 95.722 68.54 95.1834 68.236C94.65 67.932 94.2287 67.4813 93.9194 66.884C93.61 66.2867 93.4554 65.5507 93.4554 64.676C93.4554 63.796 93.61 63.06 93.9194 62.468C94.2287 61.8707 94.65 61.42 95.1834 61.116C95.722 60.812 96.3354 60.66 97.0234 60.66C97.706 60.66 98.314 60.812 98.8474 61.116C99.386 61.42 99.8074 61.8707 100.111 62.468C100.421 63.06 100.575 63.796 100.575 64.676C100.575 65.5507 100.421 66.2867 100.111 66.884C99.8074 67.4813 99.386 67.932 98.8474 68.236C98.314 68.54 97.706 68.692 97.0234 68.692ZM96.9914 67.604C97.4874 67.604 97.9087 67.4867 98.2554 67.252C98.602 67.012 98.8634 66.6733 99.0394 66.236C99.2207 65.7987 99.3114 65.2787 99.3114 64.676C99.3114 63.764 99.122 63.0467 98.7434 62.524C98.3647 61.996 97.802 61.732 97.0554 61.732C96.554 61.732 96.13 61.852 95.7834 62.092C95.442 62.3267 95.1807 62.6653 94.9994 63.108C94.8234 63.5453 94.7354 64.068 94.7354 64.676C94.7354 65.5773 94.9247 66.292 95.3034 66.82C95.6874 67.3427 96.25 67.604 96.9914 67.604ZM103.165 68.5V60.836H104.413V68.5H103.165ZM104.029 65.044C104.029 64.0733 104.123 63.268 104.309 62.628C104.496 61.9827 104.768 61.5027 105.125 61.188C105.488 60.868 105.928 60.708 106.445 60.708C106.616 60.708 106.771 60.7213 106.909 60.748C107.053 60.7693 107.197 60.804 107.341 60.852L107.261 62.084C107.112 62.036 106.949 61.996 106.773 61.964C106.597 61.9267 106.44 61.908 106.301 61.908C105.848 61.908 105.483 62.0387 105.205 62.3C104.928 62.556 104.725 62.9187 104.597 63.388C104.475 63.8573 104.413 64.4093 104.413 65.044H104.029ZM115.816 68.692C115.074 68.692 114.456 68.588 113.96 68.38C113.464 68.1667 113.088 67.876 112.832 67.508C112.576 67.1347 112.44 66.708 112.424 66.228H113.624C113.65 66.7133 113.845 67.0787 114.208 67.324C114.576 67.564 115.074 67.684 115.704 67.684C116.034 67.684 116.338 67.6307 116.616 67.524C116.893 67.4173 117.114 67.2707 117.28 67.084C117.445 66.8973 117.528 66.6867 117.528 66.452C117.528 66.1533 117.418 65.9187 117.2 65.748C116.981 65.5773 116.632 65.428 116.152 65.3L114.664 64.82C114.018 64.6173 113.522 64.34 113.176 63.988C112.834 63.6307 112.664 63.204 112.664 62.708C112.664 62.0893 112.936 61.5933 113.48 61.22C114.024 60.8467 114.738 60.66 115.624 60.66C116.562 60.66 117.29 60.852 117.808 61.236C118.325 61.62 118.594 62.1 118.616 62.676H117.384C117.336 62.34 117.165 62.0867 116.872 61.916C116.578 61.74 116.162 61.652 115.624 61.652C115.106 61.652 114.701 61.7693 114.408 62.004C114.12 62.2333 113.976 62.4893 113.976 62.772C113.976 63.3 114.429 63.6893 115.336 63.94L116.856 64.452C117.512 64.6493 118.013 64.908 118.36 65.228C118.712 65.548 118.888 65.956 118.888 66.452C118.888 66.836 118.762 67.1987 118.512 67.54C118.261 67.8813 117.906 68.1587 117.448 68.372C116.989 68.5853 116.445 68.692 115.816 68.692ZM123.982 68.692C123.566 68.692 123.192 68.612 122.862 68.452C122.531 68.292 122.27 68.052 122.078 67.732C121.886 67.412 121.79 67.012 121.79 66.532V58.724H123.022V66.5C123.022 67.2893 123.39 67.684 124.126 67.684C124.344 67.684 124.555 67.66 124.758 67.612C124.966 67.564 125.198 67.492 125.454 67.396L125.63 68.292C125.358 68.4093 125.086 68.5053 124.814 68.58C124.547 68.6547 124.27 68.692 123.982 68.692ZM120.558 61.716V60.852H125.438V61.716H120.558ZM132.541 68.5L132.381 66.82V63.54C132.381 62.852 132.235 62.3587 131.941 62.06C131.648 61.756 131.208 61.604 130.621 61.604C130.291 61.604 129.989 61.652 129.717 61.748C129.451 61.844 129.237 61.9933 129.077 62.196C128.923 62.3933 128.845 62.6493 128.845 62.964H127.453C127.453 62.4093 127.589 61.964 127.861 61.628C128.133 61.2867 128.507 61.0413 128.981 60.892C129.461 60.7373 130.008 60.66 130.621 60.66C131.208 60.66 131.728 60.7587 132.181 60.956C132.635 61.1533 132.989 61.468 133.245 61.9C133.501 62.3267 133.629 62.884 133.629 63.572V68.5H132.541ZM129.933 68.692C129.304 68.692 128.784 68.58 128.373 68.356C127.963 68.132 127.656 67.8413 127.453 67.484C127.251 67.1267 127.149 66.7507 127.149 66.356C127.149 65.8387 127.277 65.4173 127.533 65.092C127.795 64.7667 128.149 64.5293 128.597 64.38C129.045 64.2253 129.549 64.148 130.109 64.148C130.509 64.148 130.909 64.188 131.309 64.268C131.715 64.348 132.109 64.4573 132.493 64.596V65.38C132.173 65.252 131.811 65.1507 131.405 65.076C131.005 65.0013 130.637 64.964 130.301 64.964C129.789 64.964 129.357 65.0707 129.005 65.284C128.653 65.492 128.477 65.8493 128.477 66.356C128.477 66.7293 128.611 67.0493 128.877 67.316C129.149 67.5827 129.581 67.716 130.173 67.716C130.589 67.716 130.963 67.62 131.293 67.428C131.629 67.2307 131.893 66.9853 132.085 66.692C132.283 66.3987 132.381 66.1053 132.381 65.812H132.685C132.685 66.324 132.573 66.7987 132.349 67.236C132.131 67.6733 131.816 68.0253 131.405 68.292C130.995 68.5587 130.504 68.692 129.933 68.692ZM136.778 68.5V60.836H138.026V68.5H136.778ZM137.642 65.044C137.642 64.0733 137.735 63.268 137.922 62.628C138.109 61.9827 138.381 61.5027 138.738 61.188C139.101 60.868 139.541 60.708 140.058 60.708C140.229 60.708 140.383 60.7213 140.522 60.748C140.666 60.7693 140.81 60.804 140.954 60.852L140.874 62.084C140.725 62.036 140.562 61.996 140.386 61.964C140.21 61.9267 140.053 61.908 139.914 61.908C139.461 61.908 139.095 62.0387 138.818 62.3C138.541 62.556 138.338 62.9187 138.21 63.388C138.087 63.8573 138.026 64.4093 138.026 65.044H137.642ZM145.071 68.692C144.655 68.692 144.282 68.612 143.951 68.452C143.62 68.292 143.359 68.052 143.167 67.732C142.975 67.412 142.879 67.012 142.879 66.532V58.724H144.111V66.5C144.111 67.2893 144.479 67.684 145.215 67.684C145.434 67.684 145.644 67.66 145.847 67.612C146.055 67.564 146.287 67.492 146.543 67.396L146.719 68.292C146.447 68.4093 146.175 68.5053 145.903 68.58C145.636 68.6547 145.359 68.692 145.071 68.692ZM141.647 61.716V60.852H146.527V61.716H141.647ZM152.852 68.5V60.836H154.1V68.5H152.852ZM153.716 65.044C153.716 64.0733 153.809 63.268 153.996 62.628C154.182 61.9827 154.454 61.5027 154.812 61.188C155.174 60.868 155.614 60.708 156.132 60.708C156.302 60.708 156.457 60.7213 156.596 60.748C156.74 60.7693 156.884 60.804 157.028 60.852L156.948 62.084C156.798 62.036 156.636 61.996 156.46 61.964C156.284 61.9267 156.126 61.908 155.988 61.908C155.534 61.908 155.169 62.0387 154.892 62.3C154.614 62.556 154.412 62.9187 154.284 63.388C154.161 63.8573 154.1 64.4093 154.1 65.044H153.716ZM161.449 68.692C160.788 68.692 160.196 68.524 159.673 68.188C159.156 67.8467 158.745 67.3747 158.441 66.772C158.142 66.1693 157.993 65.476 157.993 64.692C157.993 63.8547 158.142 63.1347 158.441 62.532C158.74 61.9293 159.148 61.468 159.665 61.148C160.188 60.8227 160.782 60.66 161.449 60.66C162.03 60.66 162.526 60.7773 162.937 61.012C163.348 61.2467 163.678 61.564 163.929 61.964C164.18 62.364 164.353 62.8173 164.449 63.324C164.55 63.8253 164.58 64.3453 164.537 64.884H159.001V64.116H163.713L163.345 64.356C163.361 64.0413 163.342 63.7267 163.289 63.412C163.241 63.0973 163.148 62.8093 163.009 62.548C162.87 62.2813 162.676 62.068 162.425 61.908C162.174 61.748 161.854 61.668 161.465 61.668C160.974 61.668 160.564 61.7933 160.233 62.044C159.902 62.2947 159.654 62.6253 159.489 63.036C159.324 63.4413 159.241 63.8813 159.241 64.356V64.868C159.241 65.4013 159.321 65.8787 159.481 66.3C159.646 66.7213 159.892 67.0547 160.217 67.3C160.542 67.5453 160.953 67.668 161.449 67.668C161.945 67.668 162.353 67.548 162.673 67.308C162.993 67.068 163.188 66.7133 163.257 66.244H164.553C164.473 66.7507 164.292 67.188 164.009 67.556C163.726 67.9187 163.366 68.1987 162.929 68.396C162.492 68.5933 161.998 68.692 161.449 68.692ZM171.908 68.5L171.748 66.82V63.54C171.748 62.852 171.601 62.3587 171.308 62.06C171.014 61.756 170.574 61.604 169.988 61.604C169.657 61.604 169.356 61.652 169.084 61.748C168.817 61.844 168.604 61.9933 168.444 62.196C168.289 62.3933 168.212 62.6493 168.212 62.964H166.82C166.82 62.4093 166.956 61.964 167.228 61.628C167.5 61.2867 167.873 61.0413 168.348 60.892C168.828 60.7373 169.374 60.66 169.988 60.66C170.574 60.66 171.094 60.7587 171.548 60.956C172.001 61.1533 172.356 61.468 172.612 61.9C172.868 62.3267 172.996 62.884 172.996 63.572V68.5H171.908ZM169.3 68.692C168.67 68.692 168.15 68.58 167.74 68.356C167.329 68.132 167.022 67.8413 166.82 67.484C166.617 67.1267 166.516 66.7507 166.516 66.356C166.516 65.8387 166.644 65.4173 166.9 65.092C167.161 64.7667 167.516 64.5293 167.964 64.38C168.412 64.2253 168.916 64.148 169.476 64.148C169.876 64.148 170.276 64.188 170.676 64.268C171.081 64.348 171.476 64.4573 171.86 64.596V65.38C171.54 65.252 171.177 65.1507 170.772 65.076C170.372 65.0013 170.004 64.964 169.668 64.964C169.156 64.964 168.724 65.0707 168.372 65.284C168.02 65.492 167.844 65.8493 167.844 66.356C167.844 66.7293 167.977 67.0493 168.244 67.316C168.516 67.5827 168.948 67.716 169.54 67.716C169.956 67.716 170.329 67.62 170.66 67.428C170.996 67.2307 171.26 66.9853 171.452 66.692C171.649 66.3987 171.748 66.1053 171.748 65.812H172.052C172.052 66.324 171.94 66.7987 171.716 67.236C171.497 67.6733 171.182 68.0253 170.772 68.292C170.361 68.5587 169.87 68.692 169.3 68.692ZM178.88 68.692C178.261 68.692 177.693 68.5267 177.176 68.196C176.659 67.86 176.245 67.3907 175.936 66.788C175.627 66.18 175.472 65.4653 175.472 64.644C175.472 63.828 175.624 63.1213 175.928 62.524C176.232 61.9267 176.635 61.468 177.136 61.148C177.643 60.8227 178.197 60.66 178.8 60.66C179.36 60.66 179.851 60.796 180.272 61.068C180.699 61.34 181.029 61.732 181.264 62.244C181.499 62.756 181.616 63.3747 181.616 64.1H181.136C181.136 63.5933 181.035 63.1667 180.832 62.82C180.635 62.4733 180.376 62.212 180.056 62.036C179.736 61.8547 179.392 61.764 179.024 61.764C178.608 61.764 178.227 61.8813 177.88 62.116C177.539 62.3453 177.264 62.676 177.056 63.108C176.853 63.5347 176.752 64.0467 176.752 64.644C176.752 65.252 176.853 65.7747 177.056 66.212C177.264 66.6493 177.539 66.9853 177.88 67.22C178.227 67.4547 178.608 67.572 179.024 67.572C179.371 67.572 179.704 67.4813 180.024 67.3C180.349 67.1187 180.616 66.8547 180.824 66.508C181.032 66.156 181.136 65.732 181.136 65.236H181.616C181.616 65.9773 181.493 66.6067 181.248 67.124C181.008 67.636 180.68 68.0253 180.264 68.292C179.853 68.5587 179.392 68.692 178.88 68.692ZM181.344 68.5L181.136 66.708V57.588H182.384V68.5H181.344ZM186.493 59.044C186.237 59.044 186.034 58.972 185.885 58.828C185.735 58.6787 185.661 58.484 185.661 58.244C185.661 58.0093 185.735 57.8227 185.885 57.684C186.034 57.5453 186.237 57.476 186.493 57.476C186.749 57.476 186.951 57.5453 187.101 57.684C187.25 57.8227 187.325 58.0093 187.325 58.244C187.325 58.484 187.25 58.6787 187.101 58.828C186.951 58.972 186.749 59.044 186.493 59.044ZM185.869 68.5V60.836H187.117V68.5H185.869ZM196.154 68.5V64.004C196.154 63.2733 195.978 62.7187 195.626 62.34C195.279 61.956 194.805 61.764 194.202 61.764C193.743 61.764 193.346 61.8893 193.01 62.14C192.674 62.3907 192.415 62.7507 192.234 63.22C192.053 63.684 191.962 64.2387 191.962 64.884H191.482C191.482 63.9933 191.599 63.2333 191.834 62.604C192.069 61.9747 192.41 61.4947 192.858 61.164C193.311 60.828 193.861 60.66 194.506 60.66C195.109 60.66 195.623 60.796 196.05 61.068C196.482 61.3347 196.813 61.7187 197.042 62.22C197.271 62.7213 197.386 63.316 197.386 64.004V68.5H196.154ZM190.714 68.5V60.852H191.786L191.962 62.612V68.5H190.714ZM203.234 72.436C202.45 72.436 201.77 72.324 201.194 72.1C200.618 71.8813 200.17 71.5853 199.85 71.212C199.536 70.844 199.378 70.436 199.378 69.988C199.378 69.396 199.594 68.9427 200.026 68.628C200.464 68.3187 201.026 68.164 201.714 68.164L202.402 68.596C201.826 68.596 201.381 68.716 201.066 68.956C200.752 69.196 200.594 69.524 200.594 69.94C200.594 70.356 200.818 70.708 201.266 70.996C201.714 71.284 202.37 71.428 203.234 71.428C203.874 71.428 204.434 71.3347 204.914 71.148C205.4 70.9667 205.776 70.7267 206.042 70.428C206.314 70.1347 206.45 69.8173 206.45 69.476C206.45 69.236 206.362 69.028 206.186 68.852C206.01 68.6813 205.741 68.596 205.378 68.596H202.402C201.885 68.596 201.437 68.5187 201.058 68.364C200.685 68.204 200.397 67.996 200.194 67.74C199.992 67.484 199.89 67.204 199.89 66.9C199.89 66.58 199.981 66.308 200.162 66.084C200.344 65.86 200.578 65.6893 200.866 65.572C201.16 65.4547 201.474 65.396 201.81 65.396L202.05 65.86C201.89 65.86 201.728 65.8973 201.562 65.972C201.402 66.0413 201.266 66.148 201.154 66.292C201.048 66.4307 200.994 66.6067 200.994 66.82C200.994 67.0653 201.096 67.2707 201.298 67.436C201.501 67.6013 201.869 67.684 202.402 67.684H205.378C206.098 67.684 206.664 67.836 207.074 68.14C207.49 68.444 207.698 68.868 207.698 69.412C207.698 69.9133 207.52 70.3933 207.162 70.852C206.805 71.316 206.293 71.6947 205.626 71.988C204.96 72.2867 204.162 72.436 203.234 72.436ZM203.458 66.26C202.872 66.26 202.341 66.1427 201.866 65.908C201.397 65.6733 201.024 65.3453 200.746 64.924C200.474 64.5027 200.338 64.0147 200.338 63.46C200.338 62.9 200.474 62.4093 200.746 61.988C201.024 61.5667 201.397 61.2413 201.866 61.012C202.341 60.7773 202.872 60.66 203.458 60.66C204.029 60.66 204.546 60.7773 205.01 61.012C205.48 61.2413 205.853 61.5667 206.13 61.988C206.408 62.4093 206.546 62.9 206.546 63.46C206.546 64.0147 206.408 64.5027 206.13 64.924C205.853 65.3453 205.48 65.6733 205.01 65.908C204.546 66.1427 204.029 66.26 203.458 66.26ZM203.458 65.364C204.045 65.364 204.501 65.1827 204.826 64.82C205.152 64.4573 205.314 64.004 205.314 63.46C205.314 62.9 205.152 62.4467 204.826 62.1C204.501 61.748 204.045 61.572 203.458 61.572C202.877 61.572 202.418 61.748 202.082 62.1C201.752 62.4467 201.586 62.9 201.586 63.46C201.586 64.004 201.752 64.4573 202.082 64.82C202.418 65.1827 202.877 65.364 203.458 65.364ZM205.97 61.876L205.378 61.636C205.378 61.188 205.466 60.796 205.642 60.46C205.818 60.1187 206.069 59.8547 206.394 59.668C206.72 59.476 207.106 59.38 207.554 59.38L207.458 60.612C206.978 60.612 206.61 60.716 206.354 60.924C206.098 61.1267 205.97 61.444 205.97 61.876ZM208.586 67.756C208.586 67.5053 208.674 67.2893 208.85 67.108C209.026 66.9267 209.247 66.836 209.514 66.836C209.78 66.836 210.007 66.9267 210.194 67.108C210.38 67.2893 210.474 67.5053 210.474 67.756C210.474 68.0067 210.38 68.2173 210.194 68.388C210.007 68.5587 209.78 68.644 209.514 68.644C209.247 68.644 209.026 68.5587 208.85 68.388C208.674 68.212 208.586 68.0013 208.586 67.756Z" fill="#333333"/>
<rect x="16.7" y="2.7" width="268.6" height="81.6" rx="7.3" stroke="#333333" stroke-width="1.4"/>
<path d="M8.749 45.6625L19.5 56L19.5 31L8.749 41.3375C7.52143 42.5179 7.52144 44.4821 8.749 45.6625Z" fill="white"/>
<path d="M16.5227 54.012L7.94337 46.0135L8.89806 44.9895L17.4773 52.988L16.5227 54.012ZM8.02018 40.5313L16.5372 33.0256L17.4628 34.0759L8.9458 41.5816L8.02018 40.5313ZM7.94337 46.0135C6.34402 44.5224 6.37968 41.977 8.02018 40.5313L8.9458 41.5816C7.92603 42.4803 7.90387 44.0626 8.89806 44.9895L7.94337 46.0135Z" fill="#333333"/>
</g>
<defs>
<filter id="filter0_d_6977_5414" x="0.766479" y="0" width="291.234" height="95" filterUnits="userSpaceOnUse" color-interpolation-filters="sRGB">
<feFlood flood-opacity="0" result="BackgroundImageFix"/>
<feColorMatrix in="SourceAlpha" type="matrix" values="0 0 0 0 0 0 0 0 0 0 0 0 0 0 0 0 0 0 127 0" result="hardAlpha"/>
<feOffset dy="4"/>
<feGaussianBlur stdDeviation="3"/>
<feComposite in2="hardAlpha" operator="out"/>
<feColorMatrix type="matrix" values="0 0 0 0 0 0 0 0 0 0 0 0 0 0 0 0 0 0 0.05 0"/>
<feBlend mode="normal" in2="BackgroundImageFix" result="effect1_dropShadow_6977_5414"/>
<feBlend mode="normal" in="SourceGraphic" in2="effect1_dropShadow_6977_5414" result="shape"/>
</filter>
</defs>
</svg>
