<svg width="356" height="71" viewBox="0 0 356 71" fill="none" xmlns="http://www.w3.org/2000/svg">
<g filter="url(#filter0_d_6977_5418)">
<path d="M139 14.8C139 10.3196 139 8.07937 139.872 6.36808C140.639 4.86278 141.863 3.63893 143.368 2.87195C145.079 2 147.32 2 151.8 2H327.2C331.68 2 333.921 2 335.632 2.87195C337.137 3.63893 338.361 4.86278 339.128 6.36808C340 8.07937 340 10.3196 340 14.8V48.2C340 52.6804 340 54.9206 339.128 56.6319C338.361 58.1372 337.137 59.3611 335.632 60.1281C333.921 61 331.68 61 327.2 61H151.8C147.32 61 145.079 61 143.368 60.1281C141.863 59.3611 140.639 58.1372 139.872 56.6319C139 54.9206 139 52.6804 139 48.2V14.8Z" fill="white"/>
<path d="M169.483 16.452H170.987L173.867 21.332H173.547L176.475 16.452H177.963L174.331 22.372V26.5H173.067V22.372L169.483 16.452ZM181.505 26.692C180.844 26.692 180.252 26.524 179.729 26.188C179.212 25.8467 178.801 25.3747 178.497 24.772C178.198 24.1693 178.049 23.476 178.049 22.692C178.049 21.8547 178.198 21.1347 178.497 20.532C178.796 19.9293 179.204 19.468 179.721 19.148C180.244 18.8227 180.838 18.66 181.505 18.66C182.086 18.66 182.582 18.7773 182.993 19.012C183.404 19.2467 183.734 19.564 183.985 19.964C184.236 20.364 184.409 20.8173 184.505 21.324C184.606 21.8253 184.636 22.3453 184.593 22.884H179.057V22.116H183.769L183.401 22.356C183.417 22.0413 183.398 21.7267 183.345 21.412C183.297 21.0973 183.204 20.8093 183.065 20.548C182.926 20.2813 182.732 20.068 182.481 19.908C182.23 19.748 181.91 19.668 181.521 19.668C181.03 19.668 180.62 19.7933 180.289 20.044C179.958 20.2947 179.71 20.6253 179.545 21.036C179.38 21.4413 179.297 21.8813 179.297 22.356V22.868C179.297 23.4013 179.377 23.8787 179.537 24.3C179.702 24.7213 179.948 25.0547 180.273 25.3C180.598 25.5453 181.009 25.668 181.505 25.668C182.001 25.668 182.409 25.548 182.729 25.308C183.049 25.068 183.244 24.7133 183.313 24.244H184.609C184.529 24.7507 184.348 25.188 184.065 25.556C183.782 25.9187 183.422 26.1987 182.985 26.396C182.548 26.5933 182.054 26.692 181.505 26.692ZM189.98 26.692C189.239 26.692 188.62 26.588 188.124 26.38C187.628 26.1667 187.252 25.876 186.996 25.508C186.74 25.1347 186.604 24.708 186.588 24.228H187.788C187.815 24.7133 188.009 25.0787 188.372 25.324C188.74 25.564 189.239 25.684 189.868 25.684C190.199 25.684 190.503 25.6307 190.78 25.524C191.057 25.4173 191.279 25.2707 191.444 25.084C191.609 24.8973 191.692 24.6867 191.692 24.452C191.692 24.1533 191.583 23.9187 191.364 23.748C191.145 23.5773 190.796 23.428 190.316 23.3L188.828 22.82C188.183 22.6173 187.687 22.34 187.34 21.988C186.999 21.6307 186.828 21.204 186.828 20.708C186.828 20.0893 187.1 19.5933 187.644 19.22C188.188 18.8467 188.903 18.66 189.788 18.66C190.727 18.66 191.455 18.852 191.972 19.236C192.489 19.62 192.759 20.1 192.78 20.676H191.548C191.5 20.34 191.329 20.0867 191.036 19.916C190.743 19.74 190.327 19.652 189.788 19.652C189.271 19.652 188.865 19.7693 188.572 20.004C188.284 20.2333 188.14 20.4893 188.14 20.772C188.14 21.3 188.593 21.6893 189.5 21.94L191.02 22.452C191.676 22.6493 192.177 22.908 192.524 23.228C192.876 23.548 193.052 23.956 193.052 24.452C193.052 24.836 192.927 25.1987 192.676 25.54C192.425 25.8813 192.071 26.1587 191.612 26.372C191.153 26.5853 190.609 26.692 189.98 26.692ZM195.602 28.244L194.658 27.78C194.962 27.6253 195.218 27.4547 195.426 27.268C195.639 27.0813 195.778 26.852 195.842 26.58C195.613 26.5533 195.415 26.4707 195.25 26.332C195.09 26.1933 195.01 26.0093 195.01 25.78C195.01 25.556 195.093 25.364 195.258 25.204C195.429 25.044 195.645 24.964 195.906 24.964C196.237 24.964 196.503 25.084 196.706 25.324C196.909 25.564 197.01 25.8493 197.01 26.18C197.01 26.5693 196.89 26.9507 196.65 27.324C196.415 27.7027 196.066 28.0093 195.602 28.244ZM208.455 18.836H209.703V26.5H208.455V18.836ZM203.031 18.836H204.279V23.604C204.279 24.244 204.433 24.7293 204.743 25.06C205.057 25.3907 205.505 25.556 206.087 25.556C206.567 25.556 206.983 25.428 207.335 25.172C207.692 24.916 207.967 24.564 208.159 24.116C208.356 23.6627 208.455 23.1453 208.455 22.564H208.919C208.919 23.4227 208.793 24.156 208.543 24.764C208.297 25.372 207.948 25.8387 207.495 26.164C207.047 26.484 206.519 26.644 205.911 26.644C205.335 26.644 204.831 26.5373 204.399 26.324C203.967 26.1107 203.631 25.788 203.391 25.356C203.151 24.9187 203.031 24.3667 203.031 23.7V18.836ZM215.854 26.692C215.113 26.692 214.494 26.588 213.998 26.38C213.502 26.1667 213.126 25.876 212.87 25.508C212.614 25.1347 212.478 24.708 212.462 24.228H213.662C213.689 24.7133 213.884 25.0787 214.246 25.324C214.614 25.564 215.113 25.684 215.742 25.684C216.073 25.684 216.377 25.6307 216.654 25.524C216.932 25.4173 217.153 25.2707 217.318 25.084C217.484 24.8973 217.566 24.6867 217.566 24.452C217.566 24.1533 217.457 23.9187 217.238 23.748C217.02 23.5773 216.67 23.428 216.19 23.3L214.702 22.82C214.057 22.6173 213.561 22.34 213.214 21.988C212.873 21.6307 212.702 21.204 212.702 20.708C212.702 20.0893 212.974 19.5933 213.518 19.22C214.062 18.8467 214.777 18.66 215.662 18.66C216.601 18.66 217.329 18.852 217.846 19.236C218.364 19.62 218.633 20.1 218.654 20.676H217.422C217.374 20.34 217.204 20.0867 216.91 19.916C216.617 19.74 216.201 19.652 215.662 19.652C215.145 19.652 214.74 19.7693 214.446 20.004C214.158 20.2333 214.014 20.4893 214.014 20.772C214.014 21.3 214.468 21.6893 215.374 21.94L216.894 22.452C217.55 22.6493 218.052 22.908 218.398 23.228C218.75 23.548 218.926 23.956 218.926 24.452C218.926 24.836 218.801 25.1987 218.55 25.54C218.3 25.8813 217.945 26.1587 217.486 26.372C217.028 26.5853 216.484 26.692 215.854 26.692ZM224.324 26.692C223.663 26.692 223.071 26.524 222.548 26.188C222.031 25.8467 221.62 25.3747 221.316 24.772C221.018 24.1693 220.868 23.476 220.868 22.692C220.868 21.8547 221.018 21.1347 221.316 20.532C221.615 19.9293 222.023 19.468 222.54 19.148C223.063 18.8227 223.658 18.66 224.324 18.66C224.906 18.66 225.402 18.7773 225.812 19.012C226.223 19.2467 226.554 19.564 226.804 19.964C227.055 20.364 227.228 20.8173 227.324 21.324C227.426 21.8253 227.455 22.3453 227.412 22.884H221.876V22.116H226.588L226.22 22.356C226.236 22.0413 226.218 21.7267 226.164 21.412C226.116 21.0973 226.023 20.8093 225.884 20.548C225.746 20.2813 225.551 20.068 225.3 19.908C225.05 19.748 224.73 19.668 224.34 19.668C223.85 19.668 223.439 19.7933 223.108 20.044C222.778 20.2947 222.53 20.6253 222.364 21.036C222.199 21.4413 222.116 21.8813 222.116 22.356V22.868C222.116 23.4013 222.196 23.8787 222.356 24.3C222.522 24.7213 222.767 25.0547 223.092 25.3C223.418 25.5453 223.828 25.668 224.324 25.668C224.82 25.668 225.228 25.548 225.548 25.308C225.868 25.068 226.063 24.7133 226.132 24.244H227.428C227.348 24.7507 227.167 25.188 226.884 25.556C226.602 25.9187 226.242 26.1987 225.804 26.396C225.367 26.5933 224.874 26.692 224.324 26.692ZM233.876 26.5V16.116H240.42V17.748H235.764V20.484H240.02V22.1H235.764V26.5H233.876ZM240.603 26.5L244.139 16.116H246.507L249.899 26.5H247.915L247.195 24.26H243.339L242.603 26.5H240.603ZM243.819 22.836H246.747L245.291 18.372L243.819 22.836ZM254.631 24.436L257.287 16.116H259.271L255.703 26.5H253.719L250.199 16.116H252.199L254.823 24.436H254.631ZM264.918 26.724C263.995 26.724 263.179 26.5213 262.47 26.116C261.766 25.7107 261.214 25.1053 260.814 24.3C260.414 23.4947 260.214 22.4947 260.214 21.3C260.214 20.084 260.414 19.0787 260.814 18.284C261.214 17.484 261.766 16.8893 262.47 16.5C263.179 16.1053 263.995 15.908 264.918 15.908C265.846 15.908 266.665 16.1107 267.374 16.516C268.083 16.916 268.638 17.516 269.038 18.316C269.438 19.116 269.638 20.1107 269.638 21.3C269.638 22.5107 269.438 23.5187 269.038 24.324C268.638 25.1293 268.083 25.732 267.374 26.132C266.665 26.5267 265.846 26.724 264.918 26.724ZM264.918 25.012C265.766 25.012 266.438 24.692 266.934 24.052C267.435 23.412 267.686 22.4893 267.686 21.284C267.686 20.1213 267.435 19.2173 266.934 18.572C266.438 17.9267 265.766 17.604 264.918 17.604C264.086 17.604 263.419 17.9293 262.918 18.58C262.417 19.2253 262.166 20.132 262.166 21.3C262.166 22.5 262.417 23.42 262.918 24.06C263.419 24.6947 264.086 25.012 264.918 25.012ZM271.872 16.116H273.76V22.58C273.76 23.4333 273.976 24.0493 274.408 24.428C274.845 24.8067 275.402 24.996 276.08 24.996C276.762 24.996 277.32 24.8067 277.752 24.428C278.184 24.0493 278.4 23.4333 278.4 22.58V16.116H280.288V22.58C280.288 23.4547 280.12 24.2013 279.784 24.82C279.448 25.4387 278.965 25.9107 278.336 26.236C277.712 26.5613 276.96 26.724 276.08 26.724C275.2 26.724 274.445 26.5613 273.816 26.236C273.192 25.9107 272.712 25.4387 272.376 24.82C272.04 24.2013 271.872 23.4547 271.872 22.58V16.116ZM283.239 26.5V16.116H287.079C288.321 16.116 289.273 16.4067 289.935 16.988C290.601 17.5693 290.935 18.34 290.935 19.3C290.935 20.244 290.601 21.0067 289.935 21.588C289.273 22.164 288.321 22.452 287.079 22.452H285.127V26.5H283.239ZM288.855 26.5L286.103 21.636H288.119L291.319 26.5H288.855ZM285.127 21.188H286.887C287.58 21.188 288.105 21.0307 288.463 20.716C288.82 20.396 288.999 19.9827 288.999 19.476C288.999 18.9587 288.836 18.5427 288.511 18.228C288.185 17.908 287.708 17.748 287.079 17.748H285.127V21.188ZM293.695 26.5V16.116H295.583V26.5H293.695ZM297.338 17.748V16.116H305.658V17.748H302.018L302.442 17.316V26.5H300.554V17.316L300.978 17.748H297.338ZM307.374 26.5V16.116H314.046V17.748H309.262V20.484H313.758V22.116H309.262V24.852H314.046V26.5H307.374ZM165.29 46.724C164.378 46.724 163.584 46.508 162.906 46.076C162.234 45.6387 161.712 45.0147 161.338 44.204C160.965 43.3933 160.778 42.42 160.778 41.284C160.778 40.1107 160.97 39.1267 161.354 38.332C161.744 37.532 162.277 36.9293 162.954 36.524C163.637 36.1133 164.416 35.908 165.29 35.908C166.501 35.908 167.445 36.2013 168.122 36.788C168.805 37.3747 169.242 38.1373 169.434 39.076L167.418 39.444C167.253 38.9 166.989 38.46 166.626 38.124C166.264 37.788 165.818 37.62 165.29 37.62C164.826 37.62 164.408 37.756 164.034 38.028C163.661 38.2947 163.362 38.7 163.138 39.244C162.92 39.788 162.81 40.468 162.81 41.284C162.81 42.052 162.906 42.7133 163.098 43.268C163.296 43.8227 163.578 44.2493 163.946 44.548C164.314 44.8467 164.762 44.996 165.29 44.996C165.968 44.996 166.49 44.8173 166.858 44.46C167.232 44.0973 167.418 43.636 167.418 43.076H169.434C169.434 43.8493 169.266 44.508 168.93 45.052C168.6 45.5907 168.125 46.004 167.506 46.292C166.888 46.58 166.149 46.724 165.29 46.724ZM170.679 46.5L174.215 36.116H176.583L179.975 46.5H177.991L177.271 44.26H173.415L172.679 46.5H170.679ZM173.895 42.836H176.823L175.367 38.372L173.895 42.836ZM187.99 36.116H190.582L183.734 43.124V40.548L187.99 36.116ZM185.686 40.404L190.87 46.5H188.438L184.374 41.636L185.686 40.404ZM181.99 36.116H183.894V46.5H181.99V36.116ZM192.603 46.5V36.116H199.275V37.748H194.491V40.484H198.987V42.116H194.491V44.852H199.275V46.5H192.603ZM206.377 46.5V36.116H210.217C211.459 36.116 212.411 36.4067 213.073 36.988C213.739 37.5693 214.073 38.34 214.073 39.3C214.073 40.244 213.739 41.0067 213.073 41.588C212.411 42.164 211.459 42.452 210.217 42.452H208.265V46.5H206.377ZM211.993 46.5L209.241 41.636H211.257L214.457 46.5H211.993ZM208.265 41.188H210.025C210.718 41.188 211.243 41.0307 211.601 40.716C211.958 40.396 212.137 39.9827 212.137 39.476C212.137 38.9587 211.974 38.5427 211.649 38.228C211.323 37.908 210.846 37.748 210.217 37.748H208.265V41.188ZM216.818 46.5V36.116H223.49V37.748H218.706V40.484H223.202V42.116H218.706V44.852H223.49V46.5H216.818ZM230.16 46.724C229.248 46.724 228.454 46.508 227.776 46.076C227.104 45.6387 226.582 45.0147 226.208 44.204C225.835 43.3933 225.648 42.42 225.648 41.284C225.648 40.1107 225.84 39.1267 226.224 38.332C226.614 37.532 227.147 36.9293 227.824 36.524C228.507 36.1133 229.286 35.908 230.16 35.908C231.371 35.908 232.315 36.2013 232.992 36.788C233.675 37.3747 234.112 38.1373 234.304 39.076L232.288 39.444C232.123 38.9 231.859 38.46 231.496 38.124C231.134 37.788 230.688 37.62 230.16 37.62C229.696 37.62 229.278 37.756 228.904 38.028C228.531 38.2947 228.232 38.7 228.008 39.244C227.79 39.788 227.68 40.468 227.68 41.284C227.68 42.052 227.776 42.7133 227.968 43.268C228.166 43.8227 228.448 44.2493 228.816 44.548C229.184 44.8467 229.632 44.996 230.16 44.996C230.838 44.996 231.36 44.8173 231.728 44.46C232.102 44.0973 232.288 43.636 232.288 43.076H234.304C234.304 43.8493 234.136 44.508 233.8 45.052C233.47 45.5907 232.995 46.004 232.376 46.292C231.758 46.58 231.019 46.724 230.16 46.724ZM236.685 46.5V36.116H238.573V46.5H236.685ZM241.672 46.5V36.116H245.336C246.504 36.116 247.413 36.404 248.064 36.98C248.72 37.556 249.048 38.372 249.048 39.428C249.048 40.4733 248.72 41.284 248.064 41.86C247.413 42.436 246.504 42.724 245.336 42.724H243.576V46.5H241.672ZM243.576 41.076H245.336C245.923 41.076 246.365 40.9213 246.664 40.612C246.963 40.3027 247.112 39.908 247.112 39.428C247.112 38.9373 246.963 38.5347 246.664 38.22C246.365 37.9053 245.923 37.748 245.336 37.748H243.576V41.076ZM251.145 46.5V36.116H257.817V37.748H253.033V40.484H257.529V42.116H253.033V44.852H257.817V46.5H251.145ZM265.501 37.044C265.245 37.044 265.042 36.972 264.893 36.828C264.743 36.6787 264.669 36.484 264.669 36.244C264.669 36.0093 264.743 35.8227 264.893 35.684C265.042 35.5453 265.245 35.476 265.501 35.476C265.757 35.476 265.959 35.5453 266.109 35.684C266.258 35.8227 266.333 36.0093 266.333 36.244C266.333 36.484 266.258 36.6787 266.109 36.828C265.959 36.972 265.757 37.044 265.501 37.044ZM264.877 46.5V38.836H266.125V46.5H264.877ZM275.162 46.5V42.004C275.162 41.2733 274.986 40.7187 274.634 40.34C274.288 39.956 273.813 39.764 273.21 39.764C272.752 39.764 272.354 39.8893 272.018 40.14C271.682 40.3907 271.424 40.7507 271.242 41.22C271.061 41.684 270.97 42.2387 270.97 42.884H270.49C270.49 41.9933 270.608 41.2333 270.842 40.604C271.077 39.9747 271.418 39.4947 271.866 39.164C272.32 38.828 272.869 38.66 273.514 38.66C274.117 38.66 274.632 38.796 275.058 39.068C275.49 39.3347 275.821 39.7187 276.05 40.22C276.28 40.7213 276.394 41.316 276.394 42.004V46.5H275.162ZM269.722 46.5V38.852H270.794L270.97 40.612V46.5H269.722ZM282.29 46.692C281.549 46.692 280.93 46.588 280.434 46.38C279.938 46.1667 279.562 45.876 279.306 45.508C279.05 45.1347 278.914 44.708 278.898 44.228H280.098C280.125 44.7133 280.32 45.0787 280.682 45.324C281.05 45.564 281.549 45.684 282.178 45.684C282.509 45.684 282.813 45.6307 283.09 45.524C283.368 45.4173 283.589 45.2707 283.754 45.084C283.92 44.8973 284.002 44.6867 284.002 44.452C284.002 44.1533 283.893 43.9187 283.674 43.748C283.456 43.5773 283.106 43.428 282.626 43.3L281.138 42.82C280.493 42.6173 279.997 42.34 279.65 41.988C279.309 41.6307 279.138 41.204 279.138 40.708C279.138 40.0893 279.41 39.5933 279.954 39.22C280.498 38.8467 281.213 38.66 282.098 38.66C283.037 38.66 283.765 38.852 284.282 39.236C284.8 39.62 285.069 40.1 285.09 40.676H283.858C283.81 40.34 283.64 40.0867 283.346 39.916C283.053 39.74 282.637 39.652 282.098 39.652C281.581 39.652 281.176 39.7693 280.882 40.004C280.594 40.2333 280.45 40.4893 280.45 40.772C280.45 41.3 280.904 41.6893 281.81 41.94L283.33 42.452C283.986 42.6493 284.488 42.908 284.834 43.228C285.186 43.548 285.362 43.956 285.362 44.452C285.362 44.836 285.237 45.1987 284.986 45.54C284.736 45.8813 284.381 46.1587 283.922 46.372C283.464 46.5853 282.92 46.692 282.29 46.692ZM290.457 46.692C290.041 46.692 289.667 46.612 289.337 46.452C289.006 46.292 288.745 46.052 288.553 45.732C288.361 45.412 288.265 45.012 288.265 44.532V36.724H289.497V44.5C289.497 45.2893 289.865 45.684 290.601 45.684C290.819 45.684 291.03 45.66 291.233 45.612C291.441 45.564 291.673 45.492 291.929 45.396L292.105 46.292C291.833 46.4093 291.561 46.5053 291.289 46.58C291.022 46.6547 290.745 46.692 290.457 46.692ZM287.033 39.716V38.852H291.913V39.716H287.033ZM296.936 46.692C296.275 46.692 295.683 46.524 295.16 46.188C294.643 45.8467 294.232 45.3747 293.928 44.772C293.63 44.1693 293.48 43.476 293.48 42.692C293.48 41.8547 293.63 41.1347 293.928 40.532C294.227 39.9293 294.635 39.468 295.152 39.148C295.675 38.8227 296.27 38.66 296.936 38.66C297.518 38.66 298.014 38.7773 298.424 39.012C298.835 39.2467 299.166 39.564 299.416 39.964C299.667 40.364 299.84 40.8173 299.936 41.324C300.038 41.8253 300.067 42.3453 300.024 42.884H294.488V42.116H299.2L298.832 42.356C298.848 42.0413 298.83 41.7267 298.776 41.412C298.728 41.0973 298.635 40.8093 298.496 40.548C298.358 40.2813 298.163 40.068 297.912 39.908C297.662 39.748 297.342 39.668 296.952 39.668C296.462 39.668 296.051 39.7933 295.72 40.044C295.39 40.2947 295.142 40.6253 294.976 41.036C294.811 41.4413 294.728 41.8813 294.728 42.356V42.868C294.728 43.4013 294.808 43.8787 294.968 44.3C295.134 44.7213 295.379 45.0547 295.704 45.3C296.03 45.5453 296.44 45.668 296.936 45.668C297.432 45.668 297.84 45.548 298.16 45.308C298.48 45.068 298.675 44.7133 298.744 44.244H300.04C299.96 44.7507 299.779 45.188 299.496 45.556C299.214 45.9187 298.854 46.1987 298.416 46.396C297.979 46.5933 297.486 46.692 296.936 46.692ZM307.395 46.5L307.235 44.82V41.54C307.235 40.852 307.088 40.3587 306.795 40.06C306.502 39.756 306.062 39.604 305.475 39.604C305.144 39.604 304.843 39.652 304.571 39.748C304.304 39.844 304.091 39.9933 303.931 40.196C303.776 40.3933 303.699 40.6493 303.699 40.964H302.307C302.307 40.4093 302.443 39.964 302.715 39.628C302.987 39.2867 303.36 39.0413 303.835 38.892C304.315 38.7373 304.862 38.66 305.475 38.66C306.062 38.66 306.582 38.7587 307.035 38.956C307.488 39.1533 307.843 39.468 308.099 39.9C308.355 40.3267 308.483 40.884 308.483 41.572V46.5H307.395ZM304.787 46.692C304.158 46.692 303.638 46.58 303.227 46.356C302.816 46.132 302.51 45.8413 302.307 45.484C302.104 45.1267 302.003 44.7507 302.003 44.356C302.003 43.8387 302.131 43.4173 302.387 43.092C302.648 42.7667 303.003 42.5293 303.451 42.38C303.899 42.2253 304.403 42.148 304.963 42.148C305.363 42.148 305.763 42.188 306.163 42.268C306.568 42.348 306.963 42.4573 307.347 42.596V43.38C307.027 43.252 306.664 43.1507 306.259 43.076C305.859 43.0013 305.491 42.964 305.155 42.964C304.643 42.964 304.211 43.0707 303.859 43.284C303.507 43.492 303.331 43.8493 303.331 44.356C303.331 44.7293 303.464 45.0493 303.731 45.316C304.003 45.5827 304.435 45.716 305.027 45.716C305.443 45.716 305.816 45.62 306.147 45.428C306.483 45.2307 306.747 44.9853 306.939 44.692C307.136 44.3987 307.235 44.1053 307.235 43.812H307.539C307.539 44.324 307.427 44.7987 307.203 45.236C306.984 45.6733 306.67 46.0253 306.259 46.292C305.848 46.5587 305.358 46.692 304.787 46.692ZM314.368 46.692C313.749 46.692 313.181 46.5267 312.664 46.196C312.146 45.86 311.733 45.3907 311.424 44.788C311.114 44.18 310.96 43.4653 310.96 42.644C310.96 41.828 311.112 41.1213 311.416 40.524C311.72 39.9267 312.122 39.468 312.624 39.148C313.13 38.8227 313.685 38.66 314.288 38.66C314.848 38.66 315.338 38.796 315.76 39.068C316.186 39.34 316.517 39.732 316.752 40.244C316.986 40.756 317.104 41.3747 317.104 42.1H316.624C316.624 41.5933 316.522 41.1667 316.32 40.82C316.122 40.4733 315.864 40.212 315.544 40.036C315.224 39.8547 314.88 39.764 314.512 39.764C314.096 39.764 313.714 39.8813 313.368 40.116C313.026 40.3453 312.752 40.676 312.544 41.108C312.341 41.5347 312.24 42.0467 312.24 42.644C312.24 43.252 312.341 43.7747 312.544 44.212C312.752 44.6493 313.026 44.9853 313.368 45.22C313.714 45.4547 314.096 45.572 314.512 45.572C314.858 45.572 315.192 45.4813 315.512 45.3C315.837 45.1187 316.104 44.8547 316.312 44.508C316.52 44.156 316.624 43.732 316.624 43.236H317.104C317.104 43.9773 316.981 44.6067 316.736 45.124C316.496 45.636 316.168 46.0253 315.752 46.292C315.341 46.5587 314.88 46.692 314.368 46.692ZM316.832 46.5L316.624 44.708V35.588H317.872V46.5H316.832Z" fill="#333333"/>
<path d="M143.368 60.1281L143.005 60.8409L143.368 60.1281ZM139.872 56.6319L140.585 56.2687L139.872 56.6319ZM339.128 56.6319L338.415 56.2687L339.128 56.6319ZM335.632 60.1281L335.269 59.4152L335.632 60.1281ZM335.632 2.87195L335.269 3.58475L335.632 2.87195ZM339.128 6.36808L339.841 6.00488L339.128 6.36808ZM143.368 2.87195L143.005 2.15914L143.368 2.87195ZM139.872 6.36808L139.159 6.00488L139.872 6.36808ZM151.8 2.8H327.2V1.2H151.8V2.8ZM339.2 14.8V48.2H340.8V14.8H339.2ZM327.2 60.2H151.8V61.8H327.2V60.2ZM139.8 48.2V14.8H138.2V48.2H139.8ZM151.8 60.2C149.547 60.2 147.905 60.1994 146.611 60.0937C145.326 59.9887 144.455 59.7842 143.731 59.4152L143.005 60.8409C143.992 61.3439 145.097 61.5753 146.48 61.6883C147.855 61.8006 149.573 61.8 151.8 61.8V60.2ZM138.2 48.2C138.2 50.427 138.199 52.1454 138.312 53.5195C138.425 54.903 138.656 56.0079 139.159 56.9951L140.585 56.2687C140.216 55.5447 140.011 54.6738 139.906 53.3892C139.801 52.0954 139.8 50.4534 139.8 48.2H138.2ZM143.731 59.4152C142.377 58.725 141.275 57.6235 140.585 56.2687L139.159 56.9951C140.003 58.6509 141.349 59.9972 143.005 60.8409L143.731 59.4152ZM339.2 48.2C339.2 50.4534 339.199 52.0954 339.094 53.3892C338.989 54.6738 338.784 55.5447 338.415 56.2687L339.841 56.9951C340.344 56.0079 340.575 54.903 340.688 53.5195C340.801 52.1454 340.8 50.427 340.8 48.2H339.2ZM327.2 61.8C329.427 61.8 331.145 61.8006 332.52 61.6883C333.903 61.5753 335.008 61.3439 335.995 60.8409L335.269 59.4152C334.545 59.7842 333.674 59.9887 332.389 60.0937C331.095 60.1994 329.453 60.2 327.2 60.2V61.8ZM338.415 56.2687C337.725 57.6235 336.623 58.725 335.269 59.4152L335.995 60.8409C337.651 59.9972 338.997 58.6509 339.841 56.9951L338.415 56.2687ZM327.2 2.8C329.453 2.8 331.095 2.80062 332.389 2.90634C333.674 3.01129 334.545 3.21582 335.269 3.58475L335.995 2.15914C335.008 1.65613 333.903 1.42469 332.52 1.31165C331.145 1.19938 329.427 1.2 327.2 1.2V2.8ZM340.8 14.8C340.8 12.573 340.801 10.8546 340.688 9.48047C340.575 8.09698 340.344 6.9921 339.841 6.00488L338.415 6.73127C338.784 7.45534 338.989 8.32622 339.094 9.61076C339.199 10.9046 339.2 12.5466 339.2 14.8H340.8ZM335.269 3.58475C336.623 4.27504 337.725 5.3765 338.415 6.73127L339.841 6.00488C338.997 4.34906 337.651 3.00283 335.995 2.15914L335.269 3.58475ZM151.8 1.2C149.573 1.2 147.855 1.19938 146.48 1.31165C145.097 1.42469 143.992 1.65613 143.005 2.15914L143.731 3.58475C144.455 3.21582 145.326 3.01129 146.611 2.90634C147.905 2.80062 149.547 2.8 151.8 2.8V1.2ZM139.8 14.8C139.8 12.5466 139.801 10.9046 139.906 9.61076C140.011 8.32622 140.216 7.45534 140.585 6.73127L139.159 6.00488C138.656 6.9921 138.425 8.09698 138.312 9.48047C138.199 10.8546 138.2 12.573 138.2 14.8H139.8ZM143.005 2.15914C141.349 3.00283 140.003 4.34906 139.159 6.00488L140.585 6.73127C141.275 5.3765 142.377 4.27504 143.731 3.58475L143.005 2.15914Z" fill="#333333"/>
<path d="M347.751 29.3375L337 19L337 44L347.751 33.6625C348.979 32.4821 348.979 30.5179 347.751 29.3375Z" fill="white"/>
<path d="M339.977 20.988L348.557 28.9865L347.602 30.0105L339.023 22.012L339.977 20.988ZM348.48 34.4687L339.963 41.9744L339.037 40.9241L347.554 33.4184L348.48 34.4687ZM348.557 28.9865C350.156 30.4776 350.12 33.023 348.48 34.4687L347.554 33.4184C348.574 32.5197 348.596 30.9374 347.602 30.0105L348.557 28.9865Z" fill="#333333"/>
</g>
<defs>
<filter id="filter0_d_6977_5418" x="133" y="0" width="222.734" height="71" filterUnits="userSpaceOnUse" color-interpolation-filters="sRGB">
<feFlood flood-opacity="0" result="BackgroundImageFix"/>
<feColorMatrix in="SourceAlpha" type="matrix" values="0 0 0 0 0 0 0 0 0 0 0 0 0 0 0 0 0 0 127 0" result="hardAlpha"/>
<feOffset dy="4"/>
<feGaussianBlur stdDeviation="3"/>
<feComposite in2="hardAlpha" operator="out"/>
<feColorMatrix type="matrix" values="0 0 0 0 0 0 0 0 0 0 0 0 0 0 0 0 0 0 0.05 0"/>
<feBlend mode="normal" in2="BackgroundImageFix" result="effect1_dropShadow_6977_5418"/>
<feBlend mode="normal" in="SourceGraphic" in2="effect1_dropShadow_6977_5418" result="shape"/>
</filter>
</defs>
</svg>
