<svg width="257" height="68" viewBox="0 0 257 68" fill="none" xmlns="http://www.w3.org/2000/svg">
<path d="M7.04333 32.6331L16.7674 41V49C16.7674 53.9706 20.7968 58 25.7674 58L247.035 58C252.005 58 256.035 53.9706 256.035 49V11C256.035 6.02944 252.005 2 247.035 2L25.7674 2C20.7968 2 16.7674 6.02944 16.7674 11V20.5L7.15555 27.9931C5.66179 29.1575 5.60761 31.3978 7.04333 32.6331Z" fill="white"/>
<g filter="url(#filter0_d_7097_6104)">
<mask id="path-2-inside-1_7097_6104" fill="white">
<path d="M7.04333 32.6331L16.7674 41V49C16.7674 53.9706 20.7968 58 25.7674 58L217.035 58C222.005 58 226.035 53.9706 226.035 49V11C226.035 6.02944 222.005 2 217.035 2L25.7674 2C20.7968 2 16.7674 6.02944 16.7674 11V20.5L7.15555 27.9931C5.66179 29.1575 5.60761 31.3978 7.04333 32.6331Z"/>
</mask>
<path d="M7.04333 32.6331L16.7674 41V49C16.7674 53.9706 20.7968 58 25.7674 58L217.035 58C222.005 58 226.035 53.9706 226.035 49V11C226.035 6.02944 222.005 2 217.035 2L25.7674 2C20.7968 2 16.7674 6.02944 16.7674 11V20.5L7.15555 27.9931C5.66179 29.1575 5.60761 31.3978 7.04333 32.6331Z" fill="white"/>
<path d="M16.7674 41H18.1674V40.3577L17.6805 39.9388L16.7674 41ZM7.04333 32.6331L6.13021 33.6944L6.13021 33.6944L7.04333 32.6331ZM7.15555 27.9931L8.0163 29.0972L8.0163 29.0972L7.15555 27.9931ZM16.7674 20.5L17.6281 21.6041L18.1674 21.1838V20.5H16.7674ZM25.7674 2V0.6V2ZM217.035 2V3.4V2ZM17.6805 39.9388L7.95644 31.5719L6.13021 33.6944L15.8542 42.0612L17.6805 39.9388ZM8.0163 29.0972L17.6281 21.6041L15.9066 19.3959L6.2948 26.8889L8.0163 29.0972ZM7.95644 31.5719C7.19073 30.9131 7.21963 29.7183 8.0163 29.0972L6.2948 26.8889C4.10396 28.5968 4.02449 31.8825 6.13021 33.6944L7.95644 31.5719ZM25.7674 3.4L217.035 3.4L217.035 0.600003L25.7674 0.6L25.7674 3.4ZM224.635 11V49H227.435V11H224.635ZM217.035 56.6L25.7674 56.6V59.4L217.035 59.4V56.6ZM18.1674 20.5V11H15.3674V20.5H18.1674ZM18.1674 49V41H15.3674V49H18.1674ZM25.7674 56.6C21.57 56.6 18.1674 53.1974 18.1674 49H15.3674C15.3674 54.7438 20.0236 59.4 25.7674 59.4V56.6ZM224.635 49C224.635 53.1974 221.232 56.6 217.035 56.6V59.4C222.778 59.4 227.435 54.7438 227.435 49H224.635ZM217.035 3.4C221.232 3.4 224.635 6.80264 224.635 11H227.435C227.435 5.25624 222.778 0.600003 217.035 0.600003V3.4ZM25.7674 0.6C20.0236 0.6 15.3674 5.25624 15.3674 11H18.1674C18.1674 6.80264 21.57 3.4 25.7674 3.4V0.6Z" fill="#333333" mask="url(#path-2-inside-1_7097_6104)"/>
</g>
<g filter="url(#filter1_d_7097_6104)">
<path d="M35.832 25.192C35.16 25.192 34.544 25.072 33.984 24.832C33.424 24.5867 32.9733 24.2267 32.632 23.752C32.2907 23.2773 32.1147 22.6907 32.104 21.992H33.32C33.32 22.4613 33.4347 22.848 33.664 23.152C33.8933 23.4507 34.1973 23.6747 34.576 23.824C34.9547 23.968 35.368 24.04 35.816 24.04C36.3013 24.04 36.7227 23.9627 37.08 23.808C37.4373 23.6533 37.712 23.4507 37.904 23.2C38.1013 22.944 38.2 22.664 38.2 22.36C38.2 21.9333 38.0693 21.5893 37.808 21.328C37.5467 21.0613 37.16 20.8453 36.648 20.68L34.872 20.056C34.04 19.7573 33.4107 19.416 32.984 19.032C32.5573 18.648 32.344 18.1093 32.344 17.416C32.344 16.6373 32.6427 16.0027 33.24 15.512C33.8427 15.0213 34.696 14.776 35.8 14.776C36.824 14.776 37.624 15.0133 38.2 15.488C38.776 15.9573 39.1067 16.5893 39.192 17.384H37.96C37.88 16.92 37.6613 16.56 37.304 16.304C36.952 16.0427 36.4507 15.912 35.8 15.912C35.1387 15.912 34.624 16.0587 34.256 16.352C33.888 16.6453 33.704 17.016 33.704 17.464C33.704 17.832 33.8187 18.1253 34.048 18.344C34.2827 18.5573 34.648 18.7493 35.144 18.92L37.224 19.64C37.944 19.88 38.512 20.216 38.928 20.648C39.3493 21.08 39.56 21.64 39.56 22.328C39.56 22.8613 39.416 23.344 39.128 23.776C38.8453 24.208 38.4267 24.552 37.872 24.808C37.3173 25.064 36.6373 25.192 35.832 25.192ZM47.6479 17.336H48.8959V25H47.6479V17.336ZM42.2239 17.336H43.4719V22.104C43.4719 22.744 43.6265 23.2293 43.9359 23.56C44.2505 23.8907 44.6985 24.056 45.2799 24.056C45.7599 24.056 46.1759 23.928 46.5279 23.672C46.8852 23.416 47.1599 23.064 47.3519 22.616C47.5492 22.1627 47.6479 21.6453 47.6479 21.064H48.1119C48.1119 21.9227 47.9865 22.656 47.7359 23.264C47.4905 23.872 47.1412 24.3387 46.6879 24.664C46.2399 24.984 45.7119 25.144 45.1039 25.144C44.5279 25.144 44.0239 25.0373 43.5919 24.824C43.1599 24.6107 42.8239 24.288 42.5839 23.856C42.3439 23.4187 42.2239 22.8667 42.2239 22.2V17.336ZM52.2954 25V17.336H53.5434V25H52.2954ZM53.1594 21.544C53.1594 20.5733 53.2527 19.768 53.4394 19.128C53.626 18.4827 53.898 18.0027 54.2554 17.688C54.618 17.368 55.058 17.208 55.5754 17.208C55.746 17.208 55.9007 17.2213 56.0394 17.248C56.1834 17.2693 56.3274 17.304 56.4714 17.352L56.3914 18.584C56.242 18.536 56.0794 18.496 55.9034 18.464C55.7274 18.4267 55.57 18.408 55.4314 18.408C54.978 18.408 54.6127 18.5387 54.3354 18.8C54.058 19.056 53.8554 19.4187 53.7274 19.888C53.6047 20.3573 53.5434 20.9093 53.5434 21.544H53.1594ZM60.8926 25.192C60.2313 25.192 59.6393 25.024 59.1166 24.688C58.5993 24.3467 58.1886 23.8747 57.8846 23.272C57.586 22.6693 57.4366 21.976 57.4366 21.192C57.4366 20.3547 57.586 19.6347 57.8846 19.032C58.1833 18.4293 58.5913 17.968 59.1086 17.648C59.6313 17.3227 60.226 17.16 60.8926 17.16C61.474 17.16 61.97 17.2773 62.3806 17.512C62.7913 17.7467 63.122 18.064 63.3726 18.464C63.6233 18.864 63.7966 19.3173 63.8926 19.824C63.994 20.3253 64.0233 20.8453 63.9806 21.384H58.4446V20.616H63.1566L62.7886 20.856C62.8046 20.5413 62.786 20.2267 62.7326 19.912C62.6846 19.5973 62.5913 19.3093 62.4526 19.048C62.314 18.7813 62.1193 18.568 61.8686 18.408C61.618 18.248 61.298 18.168 60.9086 18.168C60.418 18.168 60.0073 18.2933 59.6766 18.544C59.346 18.7947 59.098 19.1253 58.9326 19.536C58.7673 19.9413 58.6846 20.3813 58.6846 20.856V21.368C58.6846 21.9013 58.7646 22.3787 58.9246 22.8C59.09 23.2213 59.3353 23.5547 59.6606 23.8C59.986 24.0453 60.3966 24.168 60.8926 24.168C61.3886 24.168 61.7966 24.048 62.1166 23.808C62.4366 23.568 62.6313 23.2133 62.7006 22.744H63.9966C63.9166 23.2507 63.7353 23.688 63.4526 24.056C63.17 24.4187 62.81 24.6987 62.3726 24.896C61.9353 25.0933 61.442 25.192 60.8926 25.192ZM66.4234 26.744L65.4794 26.28C65.7834 26.1253 66.0394 25.9547 66.2474 25.768C66.4607 25.5813 66.5994 25.352 66.6634 25.08C66.434 25.0533 66.2367 24.9707 66.0714 24.832C65.9114 24.6933 65.8314 24.5093 65.8314 24.28C65.8314 24.056 65.914 23.864 66.0794 23.704C66.25 23.544 66.466 23.464 66.7274 23.464C67.058 23.464 67.3247 23.584 67.5274 23.824C67.73 24.064 67.8314 24.3493 67.8314 24.68C67.8314 25.0693 67.7114 25.4507 67.4714 25.824C67.2367 26.2027 66.8874 26.5093 66.4234 26.744ZM76.428 25.192C76.012 25.192 75.6387 25.112 75.308 24.952C74.9773 24.792 74.716 24.552 74.524 24.232C74.332 23.912 74.236 23.512 74.236 23.032V15.224H75.468V23C75.468 23.7893 75.836 24.184 76.572 24.184C76.7907 24.184 77.0013 24.16 77.204 24.112C77.412 24.064 77.644 23.992 77.9 23.896L78.076 24.792C77.804 24.9093 77.532 25.0053 77.26 25.08C76.9933 25.1547 76.716 25.192 76.428 25.192ZM73.004 18.216V17.352H77.884V18.216H73.004ZM85.6916 25V20.504C85.6916 19.7733 85.5156 19.2187 85.1636 18.84C84.817 18.456 84.3423 18.264 83.7396 18.264C83.281 18.264 82.8836 18.3893 82.5476 18.64C82.2116 18.8907 81.953 19.2507 81.7716 19.72C81.5903 20.184 81.4996 20.7387 81.4996 21.384H81.0196C81.0196 20.4933 81.137 19.7333 81.3716 19.104C81.6063 18.4747 81.9476 17.9947 82.3956 17.664C82.849 17.328 83.3983 17.16 84.0436 17.16C84.6463 17.16 85.161 17.296 85.5876 17.568C86.0196 17.8347 86.3503 18.2187 86.5796 18.72C86.809 19.2213 86.9236 19.816 86.9236 20.504V25H85.6916ZM80.2516 25V14.088H81.4996V25H80.2516ZM92.7239 25.192C92.0625 25.192 91.4705 25.024 90.9479 24.688C90.4305 24.3467 90.0199 23.8747 89.7159 23.272C89.4172 22.6693 89.2679 21.976 89.2679 21.192C89.2679 20.3547 89.4172 19.6347 89.7159 19.032C90.0145 18.4293 90.4225 17.968 90.9399 17.648C91.4625 17.3227 92.0572 17.16 92.7239 17.16C93.3052 17.16 93.8012 17.2773 94.2119 17.512C94.6225 17.7467 94.9532 18.064 95.2039 18.464C95.4545 18.864 95.6279 19.3173 95.7239 19.824C95.8252 20.3253 95.8545 20.8453 95.8119 21.384H90.2759V20.616H94.9879L94.6199 20.856C94.6359 20.5413 94.6172 20.2267 94.5639 19.912C94.5159 19.5973 94.4225 19.3093 94.2839 19.048C94.1452 18.7813 93.9505 18.568 93.6999 18.408C93.4492 18.248 93.1292 18.168 92.7399 18.168C92.2492 18.168 91.8385 18.2933 91.5079 18.544C91.1772 18.7947 90.9292 19.1253 90.7639 19.536C90.5985 19.9413 90.5159 20.3813 90.5159 20.856V21.368C90.5159 21.9013 90.5959 22.3787 90.7559 22.8C90.9212 23.2213 91.1665 23.5547 91.4919 23.8C91.8172 24.0453 92.2279 24.168 92.7239 24.168C93.2199 24.168 93.6279 24.048 93.9479 23.808C94.2679 23.568 94.4625 23.2133 94.5319 22.744H95.8279C95.7479 23.2507 95.5665 23.688 95.2839 24.056C95.0012 24.4187 94.6412 24.6987 94.2039 24.896C93.7665 25.0933 93.2732 25.192 92.7239 25.192ZM97.1826 17.352H98.5746L101.071 23.912H100.783L102.719 17.352H103.999L101.119 26.536C100.879 27.304 100.559 27.896 100.159 28.312C99.7586 28.728 99.2466 28.936 98.6226 28.936C98.2866 28.936 97.9666 28.888 97.6626 28.792C97.364 28.696 97.0546 28.5573 96.7346 28.376V27.224C97.0173 27.448 97.2893 27.608 97.5506 27.704C97.8173 27.8 98.0946 27.848 98.3826 27.848C98.7026 27.848 98.9693 27.7467 99.1826 27.544C99.4013 27.3413 99.5826 27.08 99.7266 26.76C99.8706 26.4453 99.9933 26.1147 100.095 25.768L100.319 25L97.1826 17.352ZM114.753 25L114.593 23.32V20.04C114.593 19.352 114.446 18.8587 114.153 18.56C113.859 18.256 113.419 18.104 112.833 18.104C112.502 18.104 112.201 18.152 111.929 18.248C111.662 18.344 111.449 18.4933 111.289 18.696C111.134 18.8933 111.057 19.1493 111.057 19.464H109.665C109.665 18.9093 109.801 18.464 110.073 18.128C110.345 17.7867 110.718 17.5413 111.193 17.392C111.673 17.2373 112.219 17.16 112.833 17.16C113.419 17.16 113.939 17.2587 114.393 17.456C114.846 17.6533 115.201 17.968 115.457 18.4C115.713 18.8267 115.841 19.384 115.841 20.072V25H114.753ZM112.145 25.192C111.515 25.192 110.995 25.08 110.585 24.856C110.174 24.632 109.867 24.3413 109.665 23.984C109.462 23.6267 109.361 23.2507 109.361 22.856C109.361 22.3387 109.489 21.9173 109.745 21.592C110.006 21.2667 110.361 21.0293 110.809 20.88C111.257 20.7253 111.761 20.648 112.321 20.648C112.721 20.648 113.121 20.688 113.521 20.768C113.926 20.848 114.321 20.9573 114.705 21.096V21.88C114.385 21.752 114.022 21.6507 113.617 21.576C113.217 21.5013 112.849 21.464 112.513 21.464C112.001 21.464 111.569 21.5707 111.217 21.784C110.865 21.992 110.689 22.3493 110.689 22.856C110.689 23.2293 110.822 23.5493 111.089 23.816C111.361 24.0827 111.793 24.216 112.385 24.216C112.801 24.216 113.174 24.12 113.505 23.928C113.841 23.7307 114.105 23.4853 114.297 23.192C114.494 22.8987 114.593 22.6053 114.593 22.312H114.897C114.897 22.824 114.785 23.2987 114.561 23.736C114.342 24.1733 114.027 24.5253 113.617 24.792C113.206 25.0587 112.715 25.192 112.145 25.192ZM118.989 25V17.336H120.237V25H118.989ZM119.853 21.544C119.853 20.5733 119.946 19.768 120.133 19.128C120.32 18.4827 120.592 18.0027 120.949 17.688C121.312 17.368 121.752 17.208 122.269 17.208C122.44 17.208 122.594 17.2213 122.733 17.248C122.877 17.2693 123.021 17.304 123.165 17.352L123.085 18.584C122.936 18.536 122.773 18.496 122.597 18.464C122.421 18.4267 122.264 18.408 122.125 18.408C121.672 18.408 121.306 18.5387 121.029 18.8C120.752 19.056 120.549 19.4187 120.421 19.888C120.298 20.3573 120.237 20.9093 120.237 21.544H119.853ZM127.586 25.192C126.925 25.192 126.333 25.024 125.81 24.688C125.293 24.3467 124.882 23.8747 124.578 23.272C124.28 22.6693 124.13 21.976 124.13 21.192C124.13 20.3547 124.28 19.6347 124.578 19.032C124.877 18.4293 125.285 17.968 125.802 17.648C126.325 17.3227 126.92 17.16 127.586 17.16C128.168 17.16 128.664 17.2773 129.074 17.512C129.485 17.7467 129.816 18.064 130.066 18.464C130.317 18.864 130.49 19.3173 130.586 19.824C130.688 20.3253 130.717 20.8453 130.674 21.384H125.138V20.616H129.85L129.482 20.856C129.498 20.5413 129.48 20.2267 129.426 19.912C129.378 19.5973 129.285 19.3093 129.146 19.048C129.008 18.7813 128.813 18.568 128.562 18.408C128.312 18.248 127.992 18.168 127.602 18.168C127.112 18.168 126.701 18.2933 126.37 18.544C126.04 18.7947 125.792 19.1253 125.626 19.536C125.461 19.9413 125.378 20.3813 125.378 20.856V21.368C125.378 21.9013 125.458 22.3787 125.618 22.8C125.784 23.2213 126.029 23.5547 126.354 23.8C126.68 24.0453 127.09 24.168 127.586 24.168C128.082 24.168 128.49 24.048 128.81 23.808C129.13 23.568 129.325 23.2133 129.394 22.744H130.69C130.61 23.2507 130.429 23.688 130.146 24.056C129.864 24.4187 129.504 24.6987 129.066 24.896C128.629 25.0933 128.136 25.192 127.586 25.192ZM137.97 15.544C137.714 15.544 137.511 15.472 137.362 15.328C137.213 15.1787 137.138 14.984 137.138 14.744C137.138 14.5093 137.213 14.3227 137.362 14.184C137.511 14.0453 137.714 13.976 137.97 13.976C138.226 13.976 138.429 14.0453 138.578 14.184C138.727 14.3227 138.802 14.5093 138.802 14.744C138.802 14.984 138.727 15.1787 138.578 15.328C138.429 15.472 138.226 15.544 137.97 15.544ZM137.346 25V17.336H138.594V25H137.346ZM147.632 25V20.504C147.632 19.7733 147.456 19.2187 147.104 18.84C146.757 18.456 146.282 18.264 145.68 18.264C145.221 18.264 144.824 18.3893 144.488 18.64C144.152 18.8907 143.893 19.2507 143.712 19.72C143.53 20.184 143.44 20.7387 143.44 21.384H142.96C142.96 20.4933 143.077 19.7333 143.312 19.104C143.546 18.4747 143.888 17.9947 144.336 17.664C144.789 17.328 145.338 17.16 145.984 17.16C146.586 17.16 147.101 17.296 147.528 17.568C147.96 17.8347 148.29 18.2187 148.52 18.72C148.749 19.2213 148.864 19.816 148.864 20.504V25H147.632ZM142.192 25V17.352H143.264L143.44 19.112V25H142.192ZM158.317 25.192C157.901 25.192 157.527 25.112 157.197 24.952C156.866 24.792 156.605 24.552 156.413 24.232C156.221 23.912 156.125 23.512 156.125 23.032V15.224H157.357V23C157.357 23.7893 157.725 24.184 158.461 24.184C158.679 24.184 158.89 24.16 159.093 24.112C159.301 24.064 159.533 23.992 159.789 23.896L159.965 24.792C159.693 24.9093 159.421 25.0053 159.149 25.08C158.882 25.1547 158.605 25.192 158.317 25.192ZM154.893 18.216V17.352H159.773V18.216H154.893ZM167.58 25V20.504C167.58 19.7733 167.404 19.2187 167.052 18.84C166.706 18.456 166.231 18.264 165.628 18.264C165.17 18.264 164.772 18.3893 164.436 18.64C164.1 18.8907 163.842 19.2507 163.66 19.72C163.479 20.184 163.388 20.7387 163.388 21.384H162.908C162.908 20.4933 163.026 19.7333 163.26 19.104C163.495 18.4747 163.836 17.9947 164.284 17.664C164.738 17.328 165.287 17.16 165.932 17.16C166.535 17.16 167.05 17.296 167.476 17.568C167.908 17.8347 168.239 18.2187 168.468 18.72C168.698 19.2213 168.812 19.816 168.812 20.504V25H167.58ZM162.14 25V14.088H163.388V25H162.14ZM174.613 25.192C173.951 25.192 173.359 25.024 172.837 24.688C172.319 24.3467 171.909 23.8747 171.605 23.272C171.306 22.6693 171.157 21.976 171.157 21.192C171.157 20.3547 171.306 19.6347 171.605 19.032C171.903 18.4293 172.311 17.968 172.829 17.648C173.351 17.3227 173.946 17.16 174.613 17.16C175.194 17.16 175.69 17.2773 176.101 17.512C176.511 17.7467 176.842 18.064 177.093 18.464C177.343 18.864 177.517 19.3173 177.613 19.824C177.714 20.3253 177.743 20.8453 177.701 21.384H172.165V20.616H176.877L176.509 20.856C176.525 20.5413 176.506 20.2267 176.453 19.912C176.405 19.5973 176.311 19.3093 176.173 19.048C176.034 18.7813 175.839 18.568 175.589 18.408C175.338 18.248 175.018 18.168 174.629 18.168C174.138 18.168 173.727 18.2933 173.397 18.544C173.066 18.7947 172.818 19.1253 172.653 19.536C172.487 19.9413 172.405 20.3813 172.405 20.856V21.368C172.405 21.9013 172.485 22.3787 172.645 22.8C172.81 23.2213 173.055 23.5547 173.381 23.8C173.706 24.0453 174.117 24.168 174.613 24.168C175.109 24.168 175.517 24.048 175.837 23.808C176.157 23.568 176.351 23.2133 176.421 22.744H177.717C177.637 23.2507 177.455 23.688 177.173 24.056C176.89 24.4187 176.53 24.6987 176.093 24.896C175.655 25.0933 175.162 25.192 174.613 25.192ZM35.368 45.192C34.6267 45.192 34.008 45.088 33.512 44.88C33.016 44.6667 32.64 44.376 32.384 44.008C32.128 43.6347 31.992 43.208 31.976 42.728H33.176C33.2027 43.2133 33.3973 43.5787 33.76 43.824C34.128 44.064 34.6267 44.184 35.256 44.184C35.5867 44.184 35.8907 44.1307 36.168 44.024C36.4453 43.9173 36.6667 43.7707 36.832 43.584C36.9973 43.3973 37.08 43.1867 37.08 42.952C37.08 42.6533 36.9707 42.4187 36.752 42.248C36.5333 42.0773 36.184 41.928 35.704 41.8L34.216 41.32C33.5707 41.1173 33.0747 40.84 32.728 40.488C32.3867 40.1307 32.216 39.704 32.216 39.208C32.216 38.5893 32.488 38.0933 33.032 37.72C33.576 37.3467 34.2907 37.16 35.176 37.16C36.1147 37.16 36.8427 37.352 37.36 37.736C37.8773 38.12 38.1467 38.6 38.168 39.176H36.936C36.888 38.84 36.7173 38.5867 36.424 38.416C36.1307 38.24 35.7147 38.152 35.176 38.152C34.6587 38.152 34.2533 38.2693 33.96 38.504C33.672 38.7333 33.528 38.9893 33.528 39.272C33.528 39.8 33.9813 40.1893 34.888 40.44L36.408 40.952C37.064 41.1493 37.5653 41.408 37.912 41.728C38.264 42.048 38.44 42.456 38.44 42.952C38.44 43.336 38.3147 43.6987 38.064 44.04C37.8133 44.3813 37.4587 44.6587 37 44.872C36.5413 45.0853 35.9973 45.192 35.368 45.192ZM43.8383 45.192C43.1769 45.192 42.5849 45.024 42.0622 44.688C41.5449 44.3467 41.1342 43.8747 40.8302 43.272C40.5316 42.6693 40.3822 41.976 40.3822 41.192C40.3822 40.3547 40.5316 39.6347 40.8302 39.032C41.1289 38.4293 41.5369 37.968 42.0543 37.648C42.5769 37.3227 43.1716 37.16 43.8383 37.16C44.4196 37.16 44.9156 37.2773 45.3263 37.512C45.7369 37.7467 46.0676 38.064 46.3183 38.464C46.5689 38.864 46.7423 39.3173 46.8383 39.824C46.9396 40.3253 46.9689 40.8453 46.9262 41.384H41.3902V40.616H46.1023L45.7343 40.856C45.7503 40.5413 45.7316 40.2267 45.6783 39.912C45.6303 39.5973 45.5369 39.3093 45.3983 39.048C45.2596 38.7813 45.0649 38.568 44.8142 38.408C44.5636 38.248 44.2436 38.168 43.8542 38.168C43.3636 38.168 42.9529 38.2933 42.6223 38.544C42.2916 38.7947 42.0436 39.1253 41.8782 39.536C41.7129 39.9413 41.6302 40.3813 41.6302 40.856V41.368C41.6302 41.9013 41.7102 42.3787 41.8702 42.8C42.0356 43.2213 42.2809 43.5547 42.6063 43.8C42.9316 44.0453 43.3423 44.168 43.8383 44.168C44.3343 44.168 44.7423 44.048 45.0623 43.808C45.3823 43.568 45.5769 43.2133 45.6463 42.744H46.9423C46.8623 43.2507 46.6809 43.688 46.3983 44.056C46.1156 44.4187 45.7556 44.6987 45.3183 44.896C44.8809 45.0933 44.3876 45.192 43.8383 45.192ZM52.249 45.192C51.6357 45.192 51.0623 45.0267 50.529 44.696C50.001 44.3653 49.5743 43.8987 49.249 43.296C48.9237 42.6933 48.761 41.9813 48.761 41.16C48.761 40.3173 48.9237 39.5973 49.249 39C49.5743 38.4027 50.001 37.9467 50.529 37.632C51.0623 37.3173 51.6357 37.16 52.249 37.16C52.681 37.16 53.0677 37.2267 53.409 37.36C53.7557 37.488 54.057 37.6667 54.313 37.896C54.569 38.1253 54.7797 38.3867 54.945 38.68C55.1157 38.968 55.241 39.272 55.321 39.592L54.041 39.704C53.9077 39.2613 53.6837 38.912 53.369 38.656C53.0597 38.3947 52.681 38.264 52.233 38.264C51.8543 38.264 51.497 38.3733 51.161 38.592C50.8303 38.8053 50.561 39.128 50.353 39.56C50.145 39.9867 50.041 40.52 50.041 41.16C50.041 41.752 50.1343 42.2667 50.321 42.704C50.513 43.136 50.7743 43.472 51.105 43.712C51.4357 43.952 51.8117 44.072 52.233 44.072C52.825 44.072 53.273 43.928 53.577 43.64C53.8863 43.3467 54.041 42.9413 54.041 42.424H55.321C55.321 42.9573 55.1957 43.432 54.945 43.848C54.6943 44.264 54.337 44.592 53.873 44.832C53.4143 45.072 52.873 45.192 52.249 45.192ZM60.323 45.192C59.907 45.192 59.5337 45.112 59.203 44.952C58.8723 44.792 58.611 44.552 58.419 44.232C58.227 43.912 58.131 43.512 58.131 43.032V35.224H59.363V43C59.363 43.7893 59.731 44.184 60.467 44.184C60.6857 44.184 60.8963 44.16 61.099 44.112C61.307 44.064 61.539 43.992 61.795 43.896L61.971 44.792C61.699 44.9093 61.427 45.0053 61.155 45.08C60.8883 45.1547 60.611 45.192 60.323 45.192ZM56.899 38.216V37.352H61.779V38.216H56.899ZM64.8506 35.544C64.5946 35.544 64.392 35.472 64.2426 35.328C64.0933 35.1787 64.0186 34.984 64.0186 34.744C64.0186 34.5093 64.0933 34.3227 64.2426 34.184C64.392 34.0453 64.5946 33.976 64.8506 33.976C65.1066 33.976 65.3093 34.0453 65.4586 34.184C65.608 34.3227 65.6826 34.5093 65.6826 34.744C65.6826 34.984 65.608 35.1787 65.4586 35.328C65.3093 35.472 65.1066 35.544 64.8506 35.544ZM64.2266 45V37.336H65.4746V45H64.2266ZM71.8402 45.192C71.1522 45.192 70.5389 45.04 70.0002 44.736C69.4669 44.432 69.0456 43.9813 68.7362 43.384C68.4269 42.7867 68.2722 42.0507 68.2722 41.176C68.2722 40.296 68.4269 39.56 68.7362 38.968C69.0456 38.3707 69.4669 37.92 70.0002 37.616C70.5389 37.312 71.1522 37.16 71.8402 37.16C72.5229 37.16 73.1309 37.312 73.6642 37.616C74.2029 37.92 74.6242 38.3707 74.9282 38.968C75.2376 39.56 75.3922 40.296 75.3922 41.176C75.3922 42.0507 75.2376 42.7867 74.9282 43.384C74.6242 43.9813 74.2029 44.432 73.6642 44.736C73.1309 45.04 72.5229 45.192 71.8402 45.192ZM71.8082 44.104C72.3042 44.104 72.7256 43.9867 73.0722 43.752C73.4189 43.512 73.6802 43.1733 73.8562 42.736C74.0376 42.2987 74.1282 41.7787 74.1282 41.176C74.1282 40.264 73.9389 39.5467 73.5602 39.024C73.1816 38.496 72.6189 38.232 71.8722 38.232C71.3709 38.232 70.9469 38.352 70.6002 38.592C70.2589 38.8267 69.9976 39.1653 69.8162 39.608C69.6402 40.0453 69.5522 40.568 69.5522 41.176C69.5522 42.0773 69.7416 42.792 70.1202 43.32C70.5042 43.8427 71.0669 44.104 71.8082 44.104ZM83.4222 45V40.504C83.4222 39.7733 83.2462 39.2187 82.8942 38.84C82.5476 38.456 82.0729 38.264 81.4702 38.264C81.0116 38.264 80.6142 38.3893 80.2782 38.64C79.9422 38.8907 79.6836 39.2507 79.5022 39.72C79.3209 40.184 79.2302 40.7387 79.2302 41.384H78.7502C78.7502 40.4933 78.8676 39.7333 79.1022 39.104C79.3369 38.4747 79.6782 37.9947 80.1262 37.664C80.5796 37.328 81.1289 37.16 81.7742 37.16C82.3769 37.16 82.8916 37.296 83.3182 37.568C83.7502 37.8347 84.0809 38.2187 84.3102 38.72C84.5396 39.2213 84.6542 39.816 84.6542 40.504V45H83.4222ZM77.9822 45V37.352H79.0542L79.2302 39.112V45H77.9822ZM95.4034 45.224C94.4914 45.224 93.6967 45.008 93.0194 44.576C92.3474 44.1387 91.8247 43.5147 91.4514 42.704C91.078 41.8933 90.8914 40.92 90.8914 39.784C90.8914 38.6107 91.0834 37.6267 91.4674 36.832C91.8567 36.032 92.39 35.4293 93.0674 35.024C93.75 34.6133 94.5287 34.408 95.4034 34.408C96.614 34.408 97.558 34.7013 98.2354 35.288C98.918 35.8747 99.3554 36.6373 99.5474 37.576L97.5314 37.944C97.366 37.4 97.102 36.96 96.7394 36.624C96.3767 36.288 95.9314 36.12 95.4034 36.12C94.9394 36.12 94.5207 36.256 94.1474 36.528C93.774 36.7947 93.4754 37.2 93.2514 37.744C93.0327 38.288 92.9234 38.968 92.9234 39.784C92.9234 40.552 93.0194 41.2133 93.2114 41.768C93.4087 42.3227 93.6914 42.7493 94.0594 43.048C94.4274 43.3467 94.8754 43.496 95.4034 43.496C96.0807 43.496 96.6034 43.3173 96.9714 42.96C97.3447 42.5973 97.5314 42.136 97.5314 41.576H99.5474C99.5474 42.3493 99.3794 43.008 99.0434 43.552C98.7127 44.0907 98.238 44.504 97.6194 44.792C97.0007 45.08 96.262 45.224 95.4034 45.224ZM100.792 45L104.328 34.616H106.696L110.088 45H108.104L107.384 42.76H103.528L102.792 45H100.792ZM104.008 41.336H106.936L105.48 36.872L104.008 41.336ZM118.104 34.616H120.696L113.848 41.624V39.048L118.104 34.616ZM115.8 38.904L120.984 45H118.552L114.488 40.136L115.8 38.904ZM112.104 34.616H114.008V45H112.104V34.616ZM122.716 45V34.616H129.388V36.248H124.604V38.984H129.1V40.616H124.604V43.352H129.388V45H122.716ZM136.49 34.616H139.85C140.906 34.616 141.831 34.8293 142.626 35.256C143.421 35.6773 144.039 36.2773 144.482 37.056C144.925 37.8347 145.146 38.7547 145.146 39.816C145.146 40.8667 144.925 41.7813 144.482 42.56C144.039 43.3333 143.421 43.9333 142.626 44.36C141.831 44.7867 140.906 45 139.85 45H136.49V34.616ZM138.378 36.328V43.304H139.85C140.522 43.304 141.101 43.152 141.586 42.848C142.077 42.544 142.453 42.1307 142.714 41.608C142.981 41.08 143.114 40.4827 143.114 39.816C143.114 39.1387 142.981 38.5387 142.714 38.016C142.453 37.4933 142.077 37.0827 141.586 36.784C141.101 36.48 140.522 36.328 139.85 36.328H138.378ZM147.618 45V34.616H154.29V36.248H149.506V38.984H154.002V40.616H149.506V43.352H154.29V45H147.618ZM160.801 45.224C160.081 45.224 159.417 45.0987 158.809 44.848C158.206 44.5973 157.716 44.216 157.337 43.704C156.964 43.192 156.764 42.5413 156.737 41.752H158.593C158.593 42.152 158.692 42.48 158.889 42.736C159.086 42.992 159.35 43.184 159.681 43.312C160.017 43.4347 160.385 43.496 160.785 43.496C161.169 43.496 161.51 43.4453 161.809 43.344C162.113 43.2427 162.35 43.0987 162.521 42.912C162.697 42.72 162.785 42.4933 162.785 42.232C162.785 41.8853 162.678 41.6133 162.465 41.416C162.257 41.2187 161.921 41.0373 161.457 40.872L159.409 40.056C158.609 39.7413 157.996 39.376 157.569 38.96C157.142 38.544 156.929 37.9707 156.929 37.24C156.929 36.3973 157.262 35.7147 157.929 35.192C158.596 34.6693 159.526 34.408 160.721 34.408C161.884 34.408 162.782 34.68 163.417 35.224C164.052 35.7627 164.412 36.5147 164.497 37.48H162.641C162.572 37.0693 162.385 36.7413 162.081 36.496C161.777 36.2453 161.324 36.12 160.721 36.12C160.188 36.12 159.766 36.232 159.457 36.456C159.148 36.6747 158.993 36.952 158.993 37.288C158.993 37.576 159.089 37.8053 159.281 37.976C159.478 38.1413 159.782 38.3013 160.193 38.456L162.465 39.336C163.233 39.6347 163.822 40.0107 164.233 40.464C164.644 40.9173 164.849 41.4853 164.849 42.168C164.849 42.792 164.692 43.3333 164.377 43.792C164.062 44.2453 163.604 44.5973 163.001 44.848C162.398 45.0987 161.665 45.224 160.801 45.224ZM171.164 45.224C170.444 45.224 169.78 45.0987 169.172 44.848C168.569 44.5973 168.079 44.216 167.7 43.704C167.327 43.192 167.127 42.5413 167.1 41.752H168.956C168.956 42.152 169.055 42.48 169.252 42.736C169.449 42.992 169.713 43.184 170.044 43.312C170.38 43.4347 170.748 43.496 171.148 43.496C171.532 43.496 171.873 43.4453 172.172 43.344C172.476 43.2427 172.713 43.0987 172.884 42.912C173.06 42.72 173.148 42.4933 173.148 42.232C173.148 41.8853 173.041 41.6133 172.828 41.416C172.62 41.2187 172.284 41.0373 171.82 40.872L169.772 40.056C168.972 39.7413 168.359 39.376 167.932 38.96C167.505 38.544 167.292 37.9707 167.292 37.24C167.292 36.3973 167.625 35.7147 168.292 35.192C168.959 34.6693 169.889 34.408 171.084 34.408C172.247 34.408 173.145 34.68 173.78 35.224C174.415 35.7627 174.775 36.5147 174.86 37.48H173.004C172.935 37.0693 172.748 36.7413 172.444 36.496C172.14 36.2453 171.687 36.12 171.084 36.12C170.551 36.12 170.129 36.232 169.82 36.456C169.511 36.6747 169.356 36.952 169.356 37.288C169.356 37.576 169.452 37.8053 169.644 37.976C169.841 38.1413 170.145 38.3013 170.556 38.456L172.828 39.336C173.596 39.6347 174.185 40.0107 174.596 40.464C175.007 40.9173 175.212 41.4853 175.212 42.168C175.212 42.792 175.055 43.3333 174.74 43.792C174.425 44.2453 173.967 44.5973 173.364 44.848C172.761 45.0987 172.028 45.224 171.164 45.224ZM177.895 45V34.616H184.567V36.248H179.783V38.984H184.279V40.616H179.783V43.352H184.567V45H177.895ZM187.462 45V34.616H191.302C192.544 34.616 193.496 34.9067 194.158 35.488C194.824 36.0693 195.158 36.84 195.158 37.8C195.158 38.744 194.824 39.5067 194.158 40.088C193.496 40.664 192.544 40.952 191.302 40.952H189.35V45H187.462ZM193.078 45L190.326 40.136H192.342L195.542 45H193.078ZM189.35 39.688H191.11C191.803 39.688 192.328 39.5307 192.686 39.216C193.043 38.896 193.222 38.4827 193.222 37.976C193.222 37.4587 193.059 37.0427 192.734 36.728C192.408 36.408 191.931 36.248 191.302 36.248H189.35V39.688ZM196.527 36.248V34.616H204.847V36.248H201.207L201.631 35.816V45H199.743V35.816L200.167 36.248H196.527ZM210.195 45.224C209.475 45.224 208.811 45.0987 208.203 44.848C207.6 44.5973 207.109 44.216 206.731 43.704C206.357 43.192 206.157 42.5413 206.131 41.752H207.987C207.987 42.152 208.085 42.48 208.283 42.736C208.48 42.992 208.744 43.184 209.075 43.312C209.411 43.4347 209.779 43.496 210.179 43.496C210.563 43.496 210.904 43.4453 211.203 43.344C211.507 43.2427 211.744 43.0987 211.915 42.912C212.091 42.72 212.179 42.4933 212.179 42.232C212.179 41.8853 212.072 41.6133 211.859 41.416C211.651 41.2187 211.315 41.0373 210.851 40.872L208.803 40.056C208.003 39.7413 207.389 39.376 206.963 38.96C206.536 38.544 206.323 37.9707 206.323 37.24C206.323 36.3973 206.656 35.7147 207.323 35.192C207.989 34.6693 208.92 34.408 210.115 34.408C211.277 34.408 212.176 34.68 212.811 35.224C213.445 35.7627 213.805 36.5147 213.891 37.48H212.035C211.965 37.0693 211.779 36.7413 211.475 36.496C211.171 36.2453 210.717 36.12 210.115 36.12C209.581 36.12 209.16 36.232 208.851 36.456C208.541 36.6747 208.387 36.952 208.387 37.288C208.387 37.576 208.483 37.8053 208.675 37.976C208.872 38.1413 209.176 38.3013 209.587 38.456L211.859 39.336C212.627 39.6347 213.216 40.0107 213.627 40.464C214.037 40.9173 214.243 41.4853 214.243 42.168C214.243 42.792 214.085 43.3333 213.771 43.792C213.456 44.2453 212.997 44.5973 212.395 44.848C211.792 45.0987 211.059 45.224 210.195 45.224Z" fill="#333333"/>
</g>
<defs>
<filter id="filter0_d_7097_6104" x="0" y="0" width="232.035" height="68" filterUnits="userSpaceOnUse" color-interpolation-filters="sRGB">
<feFlood flood-opacity="0" result="BackgroundImageFix"/>
<feColorMatrix in="SourceAlpha" type="matrix" values="0 0 0 0 0 0 0 0 0 0 0 0 0 0 0 0 0 0 127 0" result="hardAlpha"/>
<feOffset dy="4"/>
<feGaussianBlur stdDeviation="3"/>
<feComposite in2="hardAlpha" operator="out"/>
<feColorMatrix type="matrix" values="0 0 0 0 0 0 0 0 0 0 0 0 0 0 0 0 0 0 0.1 0"/>
<feBlend mode="normal" in2="BackgroundImageFix" result="effect1_dropShadow_7097_6104"/>
<feBlend mode="normal" in="SourceGraphic" in2="effect1_dropShadow_7097_6104" result="shape"/>
</filter>
<filter id="filter1_d_7097_6104" x="25.9761" y="11.9756" width="194.267" height="43.248" filterUnits="userSpaceOnUse" color-interpolation-filters="sRGB">
<feFlood flood-opacity="0" result="BackgroundImageFix"/>
<feColorMatrix in="SourceAlpha" type="matrix" values="0 0 0 0 0 0 0 0 0 0 0 0 0 0 0 0 0 0 127 0" result="hardAlpha"/>
<feOffset dy="4"/>
<feGaussianBlur stdDeviation="3"/>
<feComposite in2="hardAlpha" operator="out"/>
<feColorMatrix type="matrix" values="0 0 0 0 0 0 0 0 0 0 0 0 0 0 0 0 0 0 0.05 0"/>
<feBlend mode="normal" in2="BackgroundImageFix" result="effect1_dropShadow_7097_6104"/>
<feBlend mode="normal" in="SourceGraphic" in2="effect1_dropShadow_7097_6104" result="shape"/>
</filter>
</defs>
</svg>
