<svg width="256" height="68" viewBox="0 0 256 68" fill="none" xmlns="http://www.w3.org/2000/svg">
<mask id="path-1-inside-1_7075_5698" fill="white">
<path d="M248.724 27.3669L239 19L239 11C239 6.02944 234.971 2 230 2L8.99997 1.99998C4.02941 1.99998 -2.59742e-05 6.02942 -2.64087e-05 11L-2.97308e-05 49C-3.01653e-05 53.9705 4.0294 58 8.99997 58L230 58C234.971 58 239 53.9706 239 49L239 39.5L248.612 32.0069C250.106 30.8425 250.16 28.6022 248.724 27.3669Z"/>
</mask>
<path d="M248.724 27.3669L239 19L239 11C239 6.02944 234.971 2 230 2L8.99997 1.99998C4.02941 1.99998 -2.59742e-05 6.02942 -2.64087e-05 11L-2.97308e-05 49C-3.01653e-05 53.9705 4.0294 58 8.99997 58L230 58C234.971 58 239 53.9706 239 49L239 39.5L248.612 32.0069C250.106 30.8425 250.16 28.6022 248.724 27.3669Z" fill="white"/>
<path d="M239 19L237.6 19L237.6 19.6423L238.087 20.0612L239 19ZM248.724 27.3669L249.637 26.3056L249.637 26.3056L248.724 27.3669ZM248.612 32.0069L247.751 30.9028L247.751 30.9028L248.612 32.0069ZM239 39.5L238.139 38.3959L237.6 38.8162L237.6 39.5L239 39.5ZM238.087 20.0612L247.811 28.4281L249.637 26.3056L239.913 17.9388L238.087 20.0612ZM247.751 30.9028L238.139 38.3959L239.861 40.6041L249.473 33.1111L247.751 30.9028ZM247.811 28.4281C248.577 29.0869 248.548 30.2817 247.751 30.9028L249.473 33.1111C251.663 31.4032 251.743 28.1175 249.637 26.3056L247.811 28.4281ZM230 56.6L8.99997 56.6L8.99997 59.4L230 59.4L230 56.6ZM1.39997 49L1.39997 11L-1.40003 11L-1.40003 49L1.39997 49ZM8.99997 3.39998L230 3.4L230 0.599998L8.99997 0.599979L8.99997 3.39998ZM237.6 39.5L237.6 49L240.4 49L240.4 39.5L237.6 39.5ZM237.6 11L237.6 19L240.4 19L240.4 11L237.6 11ZM230 3.4C234.197 3.4 237.6 6.80264 237.6 11L240.4 11C240.4 5.25624 235.744 0.599999 230 0.599998L230 3.4ZM1.39997 11C1.39997 6.80261 4.80261 3.39998 8.99997 3.39998L8.99997 0.599979C3.25621 0.599978 -1.40003 5.25622 -1.40003 11L1.39997 11ZM8.99997 56.6C4.8026 56.6 1.39997 53.1973 1.39997 49L-1.40003 49C-1.40003 54.7437 3.2562 59.4 8.99997 59.4L8.99997 56.6ZM230 59.4C235.744 59.4 240.4 54.7438 240.4 49L237.6 49C237.6 53.1974 234.197 56.6 230 56.6L230 59.4Z" fill="white" mask="url(#path-1-inside-1_7075_5698)"/>
<g filter="url(#filter0_d_7075_5698)">
<mask id="path-3-inside-2_7075_5698" fill="white">
<path d="M248.724 27.3669L239 19L239 11C239 6.02944 234.971 2 230 2L116 1.99999C111.029 1.99999 107 6.02943 107 11L107 49C107 53.9705 111.029 58 116 58L230 58C234.971 58 239 53.9706 239 49L239 39.5L248.612 32.0069C250.106 30.8425 250.16 28.6022 248.724 27.3669Z"/>
</mask>
<path d="M248.724 27.3669L239 19L239 11C239 6.02944 234.971 2 230 2L116 1.99999C111.029 1.99999 107 6.02943 107 11L107 49C107 53.9705 111.029 58 116 58L230 58C234.971 58 239 53.9706 239 49L239 39.5L248.612 32.0069C250.106 30.8425 250.16 28.6022 248.724 27.3669Z" fill="#F1F3FF"/>
<path d="M239 19L237.6 19L237.6 19.6423L238.087 20.0612L239 19ZM248.724 27.3669L249.637 26.3056L249.637 26.3056L248.724 27.3669ZM248.612 32.0069L247.751 30.9028L247.751 30.9028L248.612 32.0069ZM239 39.5L238.139 38.3959L237.6 38.8162L237.6 39.5L239 39.5ZM230 58L230 59.4L230 59.4L230 58ZM116 58L116 56.6L116 56.6L116 58ZM238.087 20.0612L247.811 28.4281L249.637 26.3056L239.913 17.9388L238.087 20.0612ZM247.751 30.9028L238.139 38.3959L239.861 40.6041L249.473 33.1111L247.751 30.9028ZM247.811 28.4281C248.577 29.0869 248.548 30.2817 247.751 30.9028L249.473 33.1111C251.663 31.4032 251.743 28.1175 249.637 26.3056L247.811 28.4281ZM230 56.6L116 56.6L116 59.4L230 59.4L230 56.6ZM108.4 49L108.4 11L105.6 11L105.6 49L108.4 49ZM116 3.39999L230 3.4L230 0.599998L116 0.599988L116 3.39999ZM237.6 39.5L237.6 49L240.4 49L240.4 39.5L237.6 39.5ZM237.6 11L237.6 19L240.4 19L240.4 11L237.6 11ZM230 3.4C234.197 3.4 237.6 6.80264 237.6 11L240.4 11C240.4 5.25624 235.744 0.599999 230 0.599998L230 3.4ZM108.4 11C108.4 6.80262 111.803 3.39999 116 3.39999L116 0.599988C110.256 0.599988 105.6 5.25623 105.6 11L108.4 11ZM116 56.6C111.803 56.6 108.4 53.1973 108.4 49L105.6 49C105.6 54.7437 110.256 59.4 116 59.4L116 56.6ZM230 59.4C235.744 59.4 240.4 54.7438 240.4 49L237.6 49C237.6 53.1974 234.197 56.6 230 56.6L230 59.4Z" fill="#4A5DC8" mask="url(#path-3-inside-2_7075_5698)"/>
</g>
<g filter="url(#filter1_d_7075_5698)">
<path d="M131.868 15.952H133.356L138.46 24.224H138.348V15.952H139.596V26H138.204L132.924 17.456H133.116V26H131.868V15.952ZM145.749 26.192C145.061 26.192 144.448 26.04 143.909 25.736C143.376 25.432 142.954 24.9813 142.645 24.384C142.336 23.7867 142.181 23.0507 142.181 22.176C142.181 21.296 142.336 20.56 142.645 19.968C142.954 19.3707 143.376 18.92 143.909 18.616C144.448 18.312 145.061 18.16 145.749 18.16C146.432 18.16 147.04 18.312 147.573 18.616C148.112 18.92 148.533 19.3707 148.837 19.968C149.146 20.56 149.301 21.296 149.301 22.176C149.301 23.0507 149.146 23.7867 148.837 24.384C148.533 24.9813 148.112 25.432 147.573 25.736C147.04 26.04 146.432 26.192 145.749 26.192ZM145.717 25.104C146.213 25.104 146.634 24.9867 146.981 24.752C147.328 24.512 147.589 24.1733 147.765 23.736C147.946 23.2987 148.037 22.7787 148.037 22.176C148.037 21.264 147.848 20.5467 147.469 20.024C147.09 19.496 146.528 19.232 145.781 19.232C145.28 19.232 144.856 19.352 144.509 19.592C144.168 19.8267 143.906 20.1653 143.725 20.608C143.549 21.0453 143.461 21.568 143.461 22.176C143.461 23.0773 143.65 23.792 144.029 24.32C144.413 24.8427 144.976 25.104 145.717 25.104ZM151.699 27.744L150.755 27.28C151.059 27.1253 151.315 26.9547 151.523 26.768C151.736 26.5813 151.875 26.352 151.939 26.08C151.71 26.0533 151.512 25.9707 151.347 25.832C151.187 25.6933 151.107 25.5093 151.107 25.28C151.107 25.056 151.19 24.864 151.355 24.704C151.526 24.544 151.742 24.464 152.003 24.464C152.334 24.464 152.6 24.584 152.803 24.824C153.006 25.064 153.107 25.3493 153.107 25.68C153.107 26.0693 152.987 26.4507 152.747 26.824C152.512 27.2027 152.163 27.5093 151.699 27.744ZM162.856 26.192C162.344 26.192 161.88 26.0587 161.464 25.792C161.053 25.5253 160.725 25.136 160.48 24.624C160.24 24.1067 160.12 23.4773 160.12 22.736H160.6C160.6 23.232 160.701 23.656 160.904 24.008C161.112 24.3547 161.378 24.6187 161.704 24.8C162.029 24.9813 162.37 25.072 162.728 25.072C163.138 25.072 163.514 24.9547 163.856 24.72C164.197 24.4853 164.469 24.1493 164.672 23.712C164.88 23.2747 164.984 22.752 164.984 22.144C164.984 21.5467 164.882 21.0347 164.68 20.608C164.477 20.176 164.202 19.8453 163.856 19.616C163.514 19.3813 163.133 19.264 162.712 19.264C162.349 19.264 162.005 19.3547 161.68 19.536C161.36 19.712 161.098 19.9733 160.896 20.32C160.698 20.6667 160.6 21.0933 160.6 21.6H160.12C160.12 20.8747 160.237 20.256 160.472 19.744C160.712 19.232 161.042 18.84 161.464 18.568C161.885 18.296 162.376 18.16 162.936 18.16C163.538 18.16 164.09 18.3227 164.592 18.648C165.098 18.968 165.504 19.4267 165.808 20.024C166.112 20.6213 166.264 21.328 166.264 22.144C166.264 22.9653 166.109 23.68 165.8 24.288C165.49 24.8907 165.077 25.36 164.56 25.696C164.042 26.0267 163.474 26.192 162.856 26.192ZM159.352 26V15.088H160.6V24.208L160.232 26H159.352ZM174.196 18.336H175.444V26H174.196V18.336ZM168.772 18.336H170.02V23.104C170.02 23.744 170.175 24.2293 170.484 24.56C170.799 24.8907 171.247 25.056 171.828 25.056C172.308 25.056 172.724 24.928 173.076 24.672C173.433 24.416 173.708 24.064 173.9 23.616C174.097 23.1627 174.196 22.6453 174.196 22.064H174.66C174.66 22.9227 174.535 23.656 174.284 24.264C174.039 24.872 173.689 25.3387 173.236 25.664C172.788 25.984 172.26 26.144 171.652 26.144C171.076 26.144 170.572 26.0373 170.14 25.824C169.708 25.6107 169.372 25.288 169.132 24.856C168.892 24.4187 168.772 23.8667 168.772 23.2V18.336ZM181.196 26.192C180.78 26.192 180.406 26.112 180.076 25.952C179.745 25.792 179.484 25.552 179.292 25.232C179.1 24.912 179.004 24.512 179.004 24.032V16.224H180.236V24C180.236 24.7893 180.604 25.184 181.34 25.184C181.558 25.184 181.769 25.16 181.972 25.112C182.18 25.064 182.412 24.992 182.668 24.896L182.844 25.792C182.572 25.9093 182.3 26.0053 182.028 26.08C181.761 26.1547 181.484 26.192 181.196 26.192ZM177.772 19.216V18.352H182.652V19.216H177.772ZM191.664 26.192C191.051 26.192 190.477 26.0267 189.944 25.696C189.416 25.3653 188.989 24.8987 188.664 24.296C188.339 23.6933 188.176 22.9813 188.176 22.16C188.176 21.3173 188.339 20.5973 188.664 20C188.989 19.4027 189.416 18.9467 189.944 18.632C190.477 18.3173 191.051 18.16 191.664 18.16C192.096 18.16 192.483 18.2267 192.824 18.36C193.171 18.488 193.472 18.6667 193.728 18.896C193.984 19.1253 194.195 19.3867 194.36 19.68C194.531 19.968 194.656 20.272 194.736 20.592L193.456 20.704C193.323 20.2613 193.099 19.912 192.784 19.656C192.475 19.3947 192.096 19.264 191.648 19.264C191.269 19.264 190.912 19.3733 190.576 19.592C190.245 19.8053 189.976 20.128 189.768 20.56C189.56 20.9867 189.456 21.52 189.456 22.16C189.456 22.752 189.549 23.2667 189.736 23.704C189.928 24.136 190.189 24.472 190.52 24.712C190.851 24.952 191.227 25.072 191.648 25.072C192.24 25.072 192.688 24.928 192.992 24.64C193.301 24.3467 193.456 23.9413 193.456 23.424H194.736C194.736 23.9573 194.611 24.432 194.36 24.848C194.109 25.264 193.752 25.592 193.288 25.832C192.829 26.072 192.288 26.192 191.664 26.192ZM202.122 26L201.962 24.32V21.04C201.962 20.352 201.815 19.8587 201.522 19.56C201.229 19.256 200.789 19.104 200.202 19.104C199.871 19.104 199.57 19.152 199.298 19.248C199.031 19.344 198.818 19.4933 198.658 19.696C198.503 19.8933 198.426 20.1493 198.426 20.464H197.034C197.034 19.9093 197.17 19.464 197.442 19.128C197.714 18.7867 198.087 18.5413 198.562 18.392C199.042 18.2373 199.589 18.16 200.202 18.16C200.789 18.16 201.309 18.2587 201.762 18.456C202.215 18.6533 202.57 18.968 202.826 19.4C203.082 19.8267 203.21 20.384 203.21 21.072V26H202.122ZM199.514 26.192C198.885 26.192 198.365 26.08 197.954 25.856C197.543 25.632 197.237 25.3413 197.034 24.984C196.831 24.6267 196.73 24.2507 196.73 23.856C196.73 23.3387 196.858 22.9173 197.114 22.592C197.375 22.2667 197.73 22.0293 198.178 21.88C198.626 21.7253 199.13 21.648 199.69 21.648C200.09 21.648 200.49 21.688 200.89 21.768C201.295 21.848 201.69 21.9573 202.074 22.096V22.88C201.754 22.752 201.391 22.6507 200.986 22.576C200.586 22.5013 200.218 22.464 199.882 22.464C199.37 22.464 198.938 22.5707 198.586 22.784C198.234 22.992 198.058 23.3493 198.058 23.856C198.058 24.2293 198.191 24.5493 198.458 24.816C198.73 25.0827 199.162 25.216 199.754 25.216C200.17 25.216 200.543 25.12 200.874 24.928C201.21 24.7307 201.474 24.4853 201.666 24.192C201.863 23.8987 201.962 23.6053 201.962 23.312H202.266C202.266 23.824 202.154 24.2987 201.93 24.736C201.711 25.1733 201.397 25.5253 200.986 25.792C200.575 26.0587 200.085 26.192 199.514 26.192ZM211.799 26V21.504C211.799 20.7733 211.623 20.2187 211.271 19.84C210.924 19.456 210.449 19.264 209.847 19.264C209.388 19.264 208.991 19.3893 208.655 19.64C208.319 19.8907 208.06 20.2507 207.879 20.72C207.697 21.184 207.607 21.7387 207.607 22.384H207.127C207.127 21.4933 207.244 20.7333 207.479 20.104C207.713 19.4747 208.055 18.9947 208.503 18.664C208.956 18.328 209.505 18.16 210.151 18.16C210.753 18.16 211.268 18.296 211.695 18.568C212.127 18.8347 212.457 19.2187 212.687 19.72C212.916 20.2213 213.031 20.816 213.031 21.504V26H211.799ZM206.359 26V18.352H207.431L207.607 20.112V26H206.359ZM220.132 26V15.952H221.38V26H220.132ZM121.177 44.192C120.564 44.192 119.99 44.0267 119.457 43.696C118.929 43.3653 118.502 42.8987 118.177 42.296C117.852 41.6933 117.689 40.9813 117.689 40.16C117.689 39.3173 117.852 38.5973 118.177 38C118.502 37.4027 118.929 36.9467 119.457 36.632C119.99 36.3173 120.564 36.16 121.177 36.16C121.609 36.16 121.996 36.2267 122.337 36.36C122.684 36.488 122.985 36.6667 123.241 36.896C123.497 37.1253 123.708 37.3867 123.873 37.68C124.044 37.968 124.169 38.272 124.249 38.592L122.969 38.704C122.836 38.2613 122.612 37.912 122.297 37.656C121.988 37.3947 121.609 37.264 121.161 37.264C120.782 37.264 120.425 37.3733 120.089 37.592C119.758 37.8053 119.489 38.128 119.281 38.56C119.073 38.9867 118.969 39.52 118.969 40.16C118.969 40.752 119.062 41.2667 119.249 41.704C119.441 42.136 119.702 42.472 120.033 42.712C120.364 42.952 120.74 43.072 121.161 43.072C121.753 43.072 122.201 42.928 122.505 42.64C122.814 42.3467 122.969 41.9413 122.969 41.424H124.249C124.249 41.9573 124.124 42.432 123.873 42.848C123.622 43.264 123.265 43.592 122.801 43.832C122.342 44.072 121.801 44.192 121.177 44.192ZM129.667 44.192C128.979 44.192 128.366 44.04 127.827 43.736C127.294 43.432 126.872 42.9813 126.563 42.384C126.254 41.7867 126.099 41.0507 126.099 40.176C126.099 39.296 126.254 38.56 126.563 37.968C126.872 37.3707 127.294 36.92 127.827 36.616C128.366 36.312 128.979 36.16 129.667 36.16C130.35 36.16 130.958 36.312 131.491 36.616C132.03 36.92 132.451 37.3707 132.755 37.968C133.064 38.56 133.219 39.296 133.219 40.176C133.219 41.0507 133.064 41.7867 132.755 42.384C132.451 42.9813 132.03 43.432 131.491 43.736C130.958 44.04 130.35 44.192 129.667 44.192ZM129.635 43.104C130.131 43.104 130.552 42.9867 130.899 42.752C131.246 42.512 131.507 42.1733 131.683 41.736C131.864 41.2987 131.955 40.7787 131.955 40.176C131.955 39.264 131.766 38.5467 131.387 38.024C131.008 37.496 130.446 37.232 129.699 37.232C129.198 37.232 128.774 37.352 128.427 37.592C128.086 37.8267 127.824 38.1653 127.643 38.608C127.467 39.0453 127.379 39.568 127.379 40.176C127.379 41.0773 127.568 41.792 127.947 42.32C128.331 42.8427 128.894 43.104 129.635 43.104ZM135.809 44V33.088H137.057V44H135.809ZM140.453 44V33.088H141.701V44H140.453ZM147.754 44.192C147.093 44.192 146.501 44.024 145.978 43.688C145.461 43.3467 145.05 42.8747 144.746 42.272C144.447 41.6693 144.298 40.976 144.298 40.192C144.298 39.3547 144.447 38.6347 144.746 38.032C145.045 37.4293 145.453 36.968 145.97 36.648C146.493 36.3227 147.087 36.16 147.754 36.16C148.335 36.16 148.831 36.2773 149.242 36.512C149.653 36.7467 149.983 37.064 150.234 37.464C150.485 37.864 150.658 38.3173 150.754 38.824C150.855 39.3253 150.885 39.8453 150.842 40.384H145.306V39.616H150.018L149.65 39.856C149.666 39.5413 149.647 39.2267 149.594 38.912C149.546 38.5973 149.453 38.3093 149.314 38.048C149.175 37.7813 148.981 37.568 148.73 37.408C148.479 37.248 148.159 37.168 147.77 37.168C147.279 37.168 146.869 37.2933 146.538 37.544C146.207 37.7947 145.959 38.1253 145.794 38.536C145.629 38.9413 145.546 39.3813 145.546 39.856V40.368C145.546 40.9013 145.626 41.3787 145.786 41.8C145.951 42.2213 146.197 42.5547 146.522 42.8C146.847 43.0453 147.258 43.168 147.754 43.168C148.25 43.168 148.658 43.048 148.978 42.808C149.298 42.568 149.493 42.2133 149.562 41.744H150.858C150.778 42.2507 150.597 42.688 150.314 43.056C150.031 43.4187 149.671 43.6987 149.234 43.896C148.797 44.0933 148.303 44.192 147.754 44.192ZM156.165 44.192C155.551 44.192 154.978 44.0267 154.445 43.696C153.917 43.3653 153.49 42.8987 153.165 42.296C152.839 41.6933 152.677 40.9813 152.677 40.16C152.677 39.3173 152.839 38.5973 153.165 38C153.49 37.4027 153.917 36.9467 154.445 36.632C154.978 36.3173 155.551 36.16 156.165 36.16C156.597 36.16 156.983 36.2267 157.325 36.36C157.671 36.488 157.973 36.6667 158.229 36.896C158.485 37.1253 158.695 37.3867 158.861 37.68C159.031 37.968 159.157 38.272 159.237 38.592L157.957 38.704C157.823 38.2613 157.599 37.912 157.285 37.656C156.975 37.3947 156.597 37.264 156.149 37.264C155.77 37.264 155.413 37.3733 155.077 37.592C154.746 37.8053 154.477 38.128 154.269 38.56C154.061 38.9867 153.957 39.52 153.957 40.16C153.957 40.752 154.05 41.2667 154.237 41.704C154.429 42.136 154.69 42.472 155.021 42.712C155.351 42.952 155.727 43.072 156.149 43.072C156.741 43.072 157.189 42.928 157.493 42.64C157.802 42.3467 157.957 41.9413 157.957 41.424H159.237C159.237 41.9573 159.111 42.432 158.861 42.848C158.61 43.264 158.253 43.592 157.789 43.832C157.33 44.072 156.789 44.192 156.165 44.192ZM164.239 44.192C163.823 44.192 163.449 44.112 163.119 43.952C162.788 43.792 162.527 43.552 162.335 43.232C162.143 42.912 162.047 42.512 162.047 42.032V34.224H163.279V42C163.279 42.7893 163.647 43.184 164.383 43.184C164.601 43.184 164.812 43.16 165.015 43.112C165.223 43.064 165.455 42.992 165.711 42.896L165.887 43.792C165.615 43.9093 165.343 44.0053 165.071 44.08C164.804 44.1547 164.527 44.192 164.239 44.192ZM160.815 37.216V36.352H165.695V37.216H160.815ZM175.491 44.192C174.931 44.192 174.443 44.064 174.027 43.808C173.616 43.552 173.299 43.1787 173.075 42.688C172.851 42.192 172.739 41.5893 172.739 40.88H173.267C173.267 41.3547 173.366 41.7547 173.563 42.08C173.76 42.4053 174.016 42.6533 174.331 42.824C174.651 42.9893 174.99 43.072 175.347 43.072C175.731 43.072 176.099 42.9627 176.451 42.744C176.803 42.52 177.091 42.192 177.315 41.76C177.539 41.328 177.651 40.7947 177.651 40.16C177.651 39.552 177.547 39.032 177.339 38.6C177.136 38.168 176.862 37.8373 176.515 37.608C176.168 37.3787 175.784 37.264 175.363 37.264C175 37.264 174.659 37.352 174.339 37.528C174.019 37.704 173.76 37.9627 173.563 38.304C173.366 38.64 173.267 39.056 173.267 39.552H172.739C172.739 38.8107 172.862 38.1893 173.107 37.688C173.352 37.1813 173.686 36.8 174.107 36.544C174.528 36.288 175 36.16 175.523 36.16C176.12 36.16 176.678 36.32 177.195 36.64C177.712 36.96 178.131 37.4187 178.451 38.016C178.771 38.6133 178.931 39.328 178.931 40.16C178.931 41.0027 178.768 41.7253 178.443 42.328C178.123 42.9307 177.702 43.392 177.179 43.712C176.656 44.032 176.094 44.192 175.491 44.192ZM172.019 47.76V36.352H173.059L173.267 38.144V47.76H172.019ZM186.274 44L186.114 42.32V39.04C186.114 38.352 185.968 37.8587 185.674 37.56C185.381 37.256 184.941 37.104 184.354 37.104C184.024 37.104 183.722 37.152 183.45 37.248C183.184 37.344 182.97 37.4933 182.81 37.696C182.656 37.8933 182.578 38.1493 182.578 38.464H181.186C181.186 37.9093 181.322 37.464 181.594 37.128C181.866 36.7867 182.24 36.5413 182.714 36.392C183.194 36.2373 183.741 36.16 184.354 36.16C184.941 36.16 185.461 36.2587 185.914 36.456C186.368 36.6533 186.722 36.968 186.978 37.4C187.234 37.8267 187.362 38.384 187.362 39.072V44H186.274ZM183.666 44.192C183.037 44.192 182.517 44.08 182.106 43.856C181.696 43.632 181.389 43.3413 181.186 42.984C180.984 42.6267 180.882 42.2507 180.882 41.856C180.882 41.3387 181.01 40.9173 181.266 40.592C181.528 40.2667 181.882 40.0293 182.33 39.88C182.778 39.7253 183.282 39.648 183.842 39.648C184.242 39.648 184.642 39.688 185.042 39.768C185.448 39.848 185.842 39.9573 186.226 40.096V40.88C185.906 40.752 185.544 40.6507 185.138 40.576C184.738 40.5013 184.37 40.464 184.034 40.464C183.522 40.464 183.09 40.5707 182.738 40.784C182.386 40.992 182.21 41.3493 182.21 41.856C182.21 42.2293 182.344 42.5493 182.61 42.816C182.882 43.0827 183.314 43.216 183.906 43.216C184.322 43.216 184.696 43.12 185.026 42.928C185.362 42.7307 185.626 42.4853 185.818 42.192C186.016 41.8987 186.114 41.6053 186.114 41.312H186.418C186.418 41.824 186.306 42.2987 186.082 42.736C185.864 43.1733 185.549 43.5253 185.138 43.792C184.728 44.0587 184.237 44.192 183.666 44.192ZM193.215 47.936C192.431 47.936 191.751 47.824 191.175 47.6C190.599 47.3813 190.151 47.0853 189.831 46.712C189.516 46.344 189.359 45.936 189.359 45.488C189.359 44.896 189.575 44.4427 190.007 44.128C190.444 43.8187 191.007 43.664 191.695 43.664L192.383 44.096C191.807 44.096 191.362 44.216 191.047 44.456C190.732 44.696 190.575 45.024 190.575 45.44C190.575 45.856 190.799 46.208 191.247 46.496C191.695 46.784 192.351 46.928 193.215 46.928C193.855 46.928 194.415 46.8347 194.895 46.648C195.38 46.4667 195.756 46.2267 196.023 45.928C196.295 45.6347 196.431 45.3173 196.431 44.976C196.431 44.736 196.343 44.528 196.167 44.352C195.991 44.1813 195.722 44.096 195.359 44.096H192.383C191.866 44.096 191.418 44.0187 191.039 43.864C190.666 43.704 190.378 43.496 190.175 43.24C189.972 42.984 189.871 42.704 189.871 42.4C189.871 42.08 189.962 41.808 190.143 41.584C190.324 41.36 190.559 41.1893 190.847 41.072C191.14 40.9547 191.455 40.896 191.791 40.896L192.031 41.36C191.871 41.36 191.708 41.3973 191.543 41.472C191.383 41.5413 191.247 41.648 191.135 41.792C191.028 41.9307 190.975 42.1067 190.975 42.32C190.975 42.5653 191.076 42.7707 191.279 42.936C191.482 43.1013 191.85 43.184 192.383 43.184H195.359C196.079 43.184 196.644 43.336 197.055 43.64C197.471 43.944 197.679 44.368 197.679 44.912C197.679 45.4133 197.5 45.8933 197.143 46.352C196.786 46.816 196.274 47.1947 195.607 47.488C194.94 47.7867 194.143 47.936 193.215 47.936ZM193.439 41.76C192.852 41.76 192.322 41.6427 191.847 41.408C191.378 41.1733 191.004 40.8453 190.727 40.424C190.455 40.0027 190.319 39.5147 190.319 38.96C190.319 38.4 190.455 37.9093 190.727 37.488C191.004 37.0667 191.378 36.7413 191.847 36.512C192.322 36.2773 192.852 36.16 193.439 36.16C194.01 36.16 194.527 36.2773 194.991 36.512C195.46 36.7413 195.834 37.0667 196.111 37.488C196.388 37.9093 196.527 38.4 196.527 38.96C196.527 39.5147 196.388 40.0027 196.111 40.424C195.834 40.8453 195.46 41.1733 194.991 41.408C194.527 41.6427 194.01 41.76 193.439 41.76ZM193.439 40.864C194.026 40.864 194.482 40.6827 194.807 40.32C195.132 39.9573 195.295 39.504 195.295 38.96C195.295 38.4 195.132 37.9467 194.807 37.6C194.482 37.248 194.026 37.072 193.439 37.072C192.858 37.072 192.399 37.248 192.063 37.6C191.732 37.9467 191.567 38.4 191.567 38.96C191.567 39.504 191.732 39.9573 192.063 40.32C192.399 40.6827 192.858 40.864 193.439 40.864ZM195.951 37.376L195.359 37.136C195.359 36.688 195.447 36.296 195.623 35.96C195.799 35.6187 196.05 35.3547 196.375 35.168C196.7 34.976 197.087 34.88 197.535 34.88L197.439 36.112C196.959 36.112 196.591 36.216 196.335 36.424C196.079 36.6267 195.951 36.944 195.951 37.376ZM202.358 44.192C201.697 44.192 201.105 44.024 200.582 43.688C200.065 43.3467 199.654 42.8747 199.35 42.272C199.052 41.6693 198.902 40.976 198.902 40.192C198.902 39.3547 199.052 38.6347 199.35 38.032C199.649 37.4293 200.057 36.968 200.574 36.648C201.097 36.3227 201.692 36.16 202.358 36.16C202.94 36.16 203.436 36.2773 203.846 36.512C204.257 36.7467 204.588 37.064 204.838 37.464C205.089 37.864 205.262 38.3173 205.358 38.824C205.46 39.3253 205.489 39.8453 205.446 40.384H199.91V39.616H204.622L204.254 39.856C204.27 39.5413 204.252 39.2267 204.198 38.912C204.15 38.5973 204.057 38.3093 203.918 38.048C203.78 37.7813 203.585 37.568 203.334 37.408C203.084 37.248 202.764 37.168 202.374 37.168C201.884 37.168 201.473 37.2933 201.142 37.544C200.812 37.7947 200.564 38.1253 200.398 38.536C200.233 38.9413 200.15 39.3813 200.15 39.856V40.368C200.15 40.9013 200.23 41.3787 200.39 41.8C200.556 42.2213 200.801 42.5547 201.126 42.8C201.452 43.0453 201.862 43.168 202.358 43.168C202.854 43.168 203.262 43.048 203.582 42.808C203.902 42.568 204.097 42.2133 204.166 41.744H205.462C205.382 42.2507 205.201 42.688 204.918 43.056C204.636 43.4187 204.276 43.6987 203.838 43.896C203.401 44.0933 202.908 44.192 202.358 44.192ZM210.833 44.192C210.092 44.192 209.473 44.088 208.977 43.88C208.481 43.6667 208.105 43.376 207.849 43.008C207.593 42.6347 207.457 42.208 207.441 41.728H208.641C208.668 42.2133 208.862 42.5787 209.225 42.824C209.593 43.064 210.092 43.184 210.721 43.184C211.052 43.184 211.356 43.1307 211.633 43.024C211.91 42.9173 212.132 42.7707 212.297 42.584C212.462 42.3973 212.545 42.1867 212.545 41.952C212.545 41.6533 212.436 41.4187 212.217 41.248C211.998 41.0773 211.649 40.928 211.169 40.8L209.681 40.32C209.036 40.1173 208.54 39.84 208.193 39.488C207.852 39.1307 207.681 38.704 207.681 38.208C207.681 37.5893 207.953 37.0933 208.497 36.72C209.041 36.3467 209.756 36.16 210.641 36.16C211.58 36.16 212.308 36.352 212.825 36.736C213.342 37.12 213.612 37.6 213.633 38.176H212.401C212.353 37.84 212.182 37.5867 211.889 37.416C211.596 37.24 211.18 37.152 210.641 37.152C210.124 37.152 209.718 37.2693 209.425 37.504C209.137 37.7333 208.993 37.9893 208.993 38.272C208.993 38.8 209.446 39.1893 210.353 39.44L211.873 39.952C212.529 40.1493 213.03 40.408 213.377 40.728C213.729 41.048 213.905 41.456 213.905 41.952C213.905 42.336 213.78 42.6987 213.529 43.04C213.278 43.3813 212.924 43.6587 212.465 43.872C212.006 44.0853 211.462 44.192 210.833 44.192ZM217.863 41.44V40.72C217.863 40.256 217.911 39.8747 218.007 39.576C218.109 39.2773 218.274 39.0187 218.503 38.8C218.733 38.5813 219.047 38.3627 219.447 38.144C219.805 37.952 220.09 37.7733 220.303 37.608C220.517 37.4427 220.669 37.264 220.759 37.072C220.855 36.88 220.903 36.6453 220.903 36.368C220.903 35.952 220.733 35.6053 220.391 35.328C220.055 35.0507 219.591 34.912 218.999 34.912C218.343 34.912 217.842 35.0427 217.495 35.304C217.149 35.56 216.93 35.92 216.839 36.384H215.511C215.586 35.6053 215.911 34.976 216.487 34.496C217.069 34.016 217.895 33.776 218.967 33.776C219.65 33.776 220.237 33.896 220.727 34.136C221.223 34.3707 221.602 34.688 221.863 35.088C222.13 35.4827 222.263 35.92 222.263 36.4C222.263 36.9493 222.125 37.4107 221.847 37.784C221.57 38.152 221.122 38.5013 220.503 38.832C220.146 39.0293 219.863 39.2133 219.655 39.384C219.453 39.5493 219.309 39.7413 219.223 39.96C219.138 40.1733 219.095 40.4533 219.095 40.8V41.44H217.863ZM218.503 44.192C218.237 44.192 218.015 44.1067 217.839 43.936C217.663 43.76 217.575 43.5493 217.575 43.304C217.575 43.0533 217.661 42.8373 217.831 42.656C218.007 42.4747 218.229 42.384 218.495 42.384C218.762 42.384 218.989 42.4747 219.175 42.656C219.367 42.832 219.463 43.0453 219.463 43.296C219.463 43.5413 219.37 43.752 219.183 43.928C218.997 44.104 218.77 44.192 218.503 44.192Z" fill="#4A5DC8"/>
</g>
<defs>
<filter id="filter0_d_7075_5698" x="101" y="0" width="154.767" height="68" filterUnits="userSpaceOnUse" color-interpolation-filters="sRGB">
<feFlood flood-opacity="0" result="BackgroundImageFix"/>
<feColorMatrix in="SourceAlpha" type="matrix" values="0 0 0 0 0 0 0 0 0 0 0 0 0 0 0 0 0 0 127 0" result="hardAlpha"/>
<feOffset dy="4"/>
<feGaussianBlur stdDeviation="3"/>
<feComposite in2="hardAlpha" operator="out"/>
<feColorMatrix type="matrix" values="0 0 0 0 0 0 0 0 0 0 0 0 0 0 0 0 0 0 0.1 0"/>
<feBlend mode="normal" in2="BackgroundImageFix" result="effect1_dropShadow_7075_5698"/>
<feBlend mode="normal" in="SourceGraphic" in2="effect1_dropShadow_7075_5698" result="shape"/>
</filter>
<filter id="filter1_d_7075_5698" x="111.689" y="13.0879" width="116.574" height="44.8477" filterUnits="userSpaceOnUse" color-interpolation-filters="sRGB">
<feFlood flood-opacity="0" result="BackgroundImageFix"/>
<feColorMatrix in="SourceAlpha" type="matrix" values="0 0 0 0 0 0 0 0 0 0 0 0 0 0 0 0 0 0 127 0" result="hardAlpha"/>
<feOffset dy="4"/>
<feGaussianBlur stdDeviation="3"/>
<feComposite in2="hardAlpha" operator="out"/>
<feColorMatrix type="matrix" values="0 0 0 0 0 0 0 0 0 0 0 0 0 0 0 0 0 0 0.05 0"/>
<feBlend mode="normal" in2="BackgroundImageFix" result="effect1_dropShadow_7075_5698"/>
<feBlend mode="normal" in="SourceGraphic" in2="effect1_dropShadow_7075_5698" result="shape"/>
</filter>
</defs>
</svg>
