<svg width="257" height="68" viewBox="0 0 257 68" fill="none" xmlns="http://www.w3.org/2000/svg">
<path d="M7.04333 32.6331L16.7674 41V49C16.7674 53.9706 20.7968 58 25.7674 58L247.035 58C252.005 58 256.035 53.9706 256.035 49V11C256.035 6.02944 252.005 2 247.035 2L25.7674 2C20.7968 2 16.7674 6.02944 16.7674 11V20.5L7.15555 27.9931C5.66179 29.1575 5.60761 31.3978 7.04333 32.6331Z" fill="white"/>
<g filter="url(#filter0_d_7098_5720)">
<mask id="path-2-inside-1_7098_5720" fill="white">
<path d="M7.04333 32.6331L16.7674 41V49C16.7674 53.9706 20.7968 58 25.7674 58L217.035 58C222.005 58 226.035 53.9706 226.035 49V11C226.035 6.02944 222.005 2 217.035 2L25.7674 2C20.7968 2 16.7674 6.02944 16.7674 11V20.5L7.15555 27.9931C5.66179 29.1575 5.60761 31.3978 7.04333 32.6331Z"/>
</mask>
<path d="M7.04333 32.6331L16.7674 41V49C16.7674 53.9706 20.7968 58 25.7674 58L217.035 58C222.005 58 226.035 53.9706 226.035 49V11C226.035 6.02944 222.005 2 217.035 2L25.7674 2C20.7968 2 16.7674 6.02944 16.7674 11V20.5L7.15555 27.9931C5.66179 29.1575 5.60761 31.3978 7.04333 32.6331Z" fill="white"/>
<path d="M16.7674 41H18.1674V40.3577L17.6805 39.9388L16.7674 41ZM7.04333 32.6331L6.13021 33.6944H6.13021L7.04333 32.6331ZM7.15555 27.9931L8.0163 29.0972L8.0163 29.0972L7.15555 27.9931ZM16.7674 20.5L17.6281 21.6041L18.1674 21.1838V20.5H16.7674ZM25.7674 2V0.6V2ZM217.035 2V3.4V2ZM17.6805 39.9388L7.95644 31.5719L6.13021 33.6944L15.8542 42.0612L17.6805 39.9388ZM8.0163 29.0972L17.6281 21.6041L15.9066 19.3959L6.2948 26.8889L8.0163 29.0972ZM7.95644 31.5719C7.19073 30.9131 7.21963 29.7183 8.0163 29.0972L6.2948 26.8889C4.10396 28.5968 4.02449 31.8825 6.13021 33.6944L7.95644 31.5719ZM25.7674 3.4L217.035 3.4V0.600003L25.7674 0.6V3.4ZM224.635 11V49H227.435V11H224.635ZM217.035 56.6L25.7674 56.6V59.4L217.035 59.4V56.6ZM18.1674 20.5V11H15.3674V20.5H18.1674ZM18.1674 49V41H15.3674V49H18.1674ZM25.7674 56.6C21.57 56.6 18.1674 53.1974 18.1674 49H15.3674C15.3674 54.7438 20.0236 59.4 25.7674 59.4V56.6ZM224.635 49C224.635 53.1974 221.232 56.6 217.035 56.6V59.4C222.778 59.4 227.435 54.7438 227.435 49H224.635ZM217.035 3.4C221.232 3.4 224.635 6.80264 224.635 11H227.435C227.435 5.25624 222.778 0.600003 217.035 0.600003V3.4ZM25.7674 0.6C20.0236 0.6 15.3674 5.25624 15.3674 11H18.1674C18.1674 6.80264 21.57 3.4 25.7674 3.4V0.6Z" fill="#333333" mask="url(#path-2-inside-1_7098_5720)"/>
</g>
<g filter="url(#filter1_d_7098_5720)">
<path d="M31.144 14.952H32.648L35.528 19.832H35.208L38.136 14.952H39.624L35.992 20.872V25H34.728V20.872L31.144 14.952ZM43.2784 25.192C42.5904 25.192 41.977 25.04 41.4384 24.736C40.905 24.432 40.4837 23.9813 40.1744 23.384C39.865 22.7867 39.7104 22.0507 39.7104 21.176C39.7104 20.296 39.865 19.56 40.1744 18.968C40.4837 18.3707 40.905 17.92 41.4384 17.616C41.977 17.312 42.5904 17.16 43.2784 17.16C43.961 17.16 44.569 17.312 45.1024 17.616C45.641 17.92 46.0624 18.3707 46.3664 18.968C46.6757 19.56 46.8304 20.296 46.8304 21.176C46.8304 22.0507 46.6757 22.7867 46.3664 23.384C46.0624 23.9813 45.641 24.432 45.1024 24.736C44.569 25.04 43.961 25.192 43.2784 25.192ZM43.2464 24.104C43.7424 24.104 44.1637 23.9867 44.5104 23.752C44.857 23.512 45.1184 23.1733 45.2944 22.736C45.4757 22.2987 45.5664 21.7787 45.5664 21.176C45.5664 20.264 45.377 19.5467 44.9984 19.024C44.6197 18.496 44.057 18.232 43.3104 18.232C42.809 18.232 42.385 18.352 42.0384 18.592C41.697 18.8267 41.4357 19.1653 41.2544 19.608C41.0784 20.0453 40.9904 20.568 40.9904 21.176C40.9904 22.0773 41.1797 22.792 41.5584 23.32C41.9424 23.8427 42.505 24.104 43.2464 24.104ZM54.6204 17.336H55.8684V25H54.6204V17.336ZM49.1964 17.336H50.4444V22.104C50.4444 22.744 50.599 23.2293 50.9084 23.56C51.223 23.8907 51.671 24.056 52.2524 24.056C52.7324 24.056 53.1484 23.928 53.5004 23.672C53.8577 23.416 54.1324 23.064 54.3244 22.616C54.5217 22.1627 54.6204 21.6453 54.6204 21.064H55.0844C55.0844 21.9227 54.959 22.656 54.7084 23.264C54.463 23.872 54.1137 24.3387 53.6604 24.664C53.2124 24.984 52.6844 25.144 52.0764 25.144C51.5004 25.144 50.9964 25.0373 50.5644 24.824C50.1324 24.6107 49.7964 24.288 49.5564 23.856C49.3164 23.4187 49.1964 22.8667 49.1964 22.2V17.336ZM63.2247 25V17.336H64.4727V25H63.2247ZM64.0887 21.544C64.0887 20.5733 64.1821 19.768 64.3687 19.128C64.5554 18.4827 64.8274 18.0027 65.1847 17.688C65.5474 17.368 65.9874 17.208 66.5047 17.208C66.6754 17.208 66.8301 17.2213 66.9687 17.248C67.1127 17.2693 67.2567 17.304 67.4007 17.352L67.3207 18.584C67.1714 18.536 67.0087 18.496 66.8327 18.464C66.6567 18.4267 66.4994 18.408 66.3607 18.408C65.9074 18.408 65.5421 18.5387 65.2647 18.8C64.9874 19.056 64.7847 19.4187 64.6567 19.888C64.5341 20.3573 64.4727 20.9093 64.4727 21.544H64.0887ZM71.822 25.192C71.1607 25.192 70.5687 25.024 70.046 24.688C69.5287 24.3467 69.118 23.8747 68.814 23.272C68.5153 22.6693 68.366 21.976 68.366 21.192C68.366 20.3547 68.5153 19.6347 68.814 19.032C69.1127 18.4293 69.5207 17.968 70.038 17.648C70.5607 17.3227 71.1553 17.16 71.822 17.16C72.4033 17.16 72.8993 17.2773 73.31 17.512C73.7207 17.7467 74.0513 18.064 74.302 18.464C74.5527 18.864 74.726 19.3173 74.822 19.824C74.9233 20.3253 74.9527 20.8453 74.91 21.384H69.374V20.616H74.086L73.718 20.856C73.734 20.5413 73.7153 20.2267 73.662 19.912C73.614 19.5973 73.5207 19.3093 73.382 19.048C73.2433 18.7813 73.0487 18.568 72.798 18.408C72.5473 18.248 72.2273 18.168 71.838 18.168C71.3473 18.168 70.9367 18.2933 70.606 18.544C70.2753 18.7947 70.0273 19.1253 69.862 19.536C69.6967 19.9413 69.614 20.3813 69.614 20.856V21.368C69.614 21.9013 69.694 22.3787 69.854 22.8C70.0193 23.2213 70.2647 23.5547 70.59 23.8C70.9153 24.0453 71.326 24.168 71.822 24.168C72.318 24.168 72.726 24.048 73.046 23.808C73.366 23.568 73.5607 23.2133 73.63 22.744H74.926C74.846 23.2507 74.6647 23.688 74.382 24.056C74.0993 24.4187 73.7393 24.6987 73.302 24.896C72.8647 25.0933 72.3713 25.192 71.822 25.192ZM82.2807 25L82.1207 23.32V20.04C82.1207 19.352 81.9741 18.8587 81.6807 18.56C81.3874 18.256 80.9474 18.104 80.3607 18.104C80.0301 18.104 79.7287 18.152 79.4567 18.248C79.1901 18.344 78.9767 18.4933 78.8167 18.696C78.6621 18.8933 78.5847 19.1493 78.5847 19.464H77.1927C77.1927 18.9093 77.3287 18.464 77.6007 18.128C77.8727 17.7867 78.2461 17.5413 78.7207 17.392C79.2007 17.2373 79.7474 17.16 80.3607 17.16C80.9474 17.16 81.4674 17.2587 81.9207 17.456C82.3741 17.6533 82.7287 17.968 82.9847 18.4C83.2407 18.8267 83.3687 19.384 83.3687 20.072V25H82.2807ZM79.6727 25.192C79.0434 25.192 78.5234 25.08 78.1127 24.856C77.7021 24.632 77.3954 24.3413 77.1927 23.984C76.9901 23.6267 76.8887 23.2507 76.8887 22.856C76.8887 22.3387 77.0167 21.9173 77.2727 21.592C77.5341 21.2667 77.8887 21.0293 78.3367 20.88C78.7847 20.7253 79.2887 20.648 79.8487 20.648C80.2487 20.648 80.6487 20.688 81.0487 20.768C81.4541 20.848 81.8487 20.9573 82.2327 21.096V21.88C81.9127 21.752 81.5501 21.6507 81.1447 21.576C80.7447 21.5013 80.3767 21.464 80.0407 21.464C79.5287 21.464 79.0967 21.5707 78.7447 21.784C78.3927 21.992 78.2167 22.3493 78.2167 22.856C78.2167 23.2293 78.3501 23.5493 78.6167 23.816C78.8887 24.0827 79.3207 24.216 79.9127 24.216C80.3287 24.216 80.7021 24.12 81.0327 23.928C81.3687 23.7307 81.6327 23.4853 81.8247 23.192C82.0221 22.8987 82.1207 22.6053 82.1207 22.312H82.4247C82.4247 22.824 82.3127 23.2987 82.0887 23.736C81.8701 24.1733 81.5554 24.5253 81.1447 24.792C80.7341 25.0587 80.2434 25.192 79.6727 25.192ZM89.2052 25.192C88.5919 25.192 88.0186 25.0267 87.4852 24.696C86.9572 24.3653 86.5306 23.8987 86.2052 23.296C85.8799 22.6933 85.7172 21.9813 85.7172 21.16C85.7172 20.3173 85.8799 19.5973 86.2052 19C86.5306 18.4027 86.9572 17.9467 87.4852 17.632C88.0186 17.3173 88.5919 17.16 89.2052 17.16C89.6372 17.16 90.0239 17.2267 90.3652 17.36C90.7119 17.488 91.0132 17.6667 91.2692 17.896C91.5252 18.1253 91.7359 18.3867 91.9012 18.68C92.0719 18.968 92.1972 19.272 92.2772 19.592L90.9972 19.704C90.8639 19.2613 90.6399 18.912 90.3252 18.656C90.0159 18.3947 89.6372 18.264 89.1892 18.264C88.8106 18.264 88.4532 18.3733 88.1172 18.592C87.7866 18.8053 87.5172 19.128 87.3092 19.56C87.1012 19.9867 86.9972 20.52 86.9972 21.16C86.9972 21.752 87.0906 22.2667 87.2772 22.704C87.4692 23.136 87.7306 23.472 88.0612 23.712C88.3919 23.952 88.7679 24.072 89.1892 24.072C89.7812 24.072 90.2292 23.928 90.5332 23.64C90.8426 23.3467 90.9972 22.9413 90.9972 22.424H92.2772C92.2772 22.9573 92.1519 23.432 91.9012 23.848C91.6506 24.264 91.2932 24.592 90.8292 24.832C90.3706 25.072 89.8292 25.192 89.2052 25.192ZM100.367 25V20.504C100.367 19.7733 100.191 19.2187 99.8392 18.84C99.4926 18.456 99.0179 18.264 98.4152 18.264C97.9566 18.264 97.5592 18.3893 97.2232 18.64C96.8872 18.8907 96.6286 19.2507 96.4472 19.72C96.2659 20.184 96.1752 20.7387 96.1752 21.384H95.6952C95.6952 20.4933 95.8126 19.7333 96.0472 19.104C96.2819 18.4747 96.6232 17.9947 97.0712 17.664C97.5246 17.328 98.0739 17.16 98.7192 17.16C99.3219 17.16 99.8366 17.296 100.263 17.568C100.695 17.8347 101.026 18.2187 101.255 18.72C101.485 19.2213 101.599 19.816 101.599 20.504V25H100.367ZM94.9272 25V14.088H96.1752V25H94.9272ZM107.4 25.192C106.738 25.192 106.146 25.024 105.624 24.688C105.106 24.3467 104.696 23.8747 104.392 23.272C104.093 22.6693 103.944 21.976 103.944 21.192C103.944 20.3547 104.093 19.6347 104.392 19.032C104.69 18.4293 105.098 17.968 105.616 17.648C106.138 17.3227 106.733 17.16 107.4 17.16C107.981 17.16 108.477 17.2773 108.888 17.512C109.298 17.7467 109.629 18.064 109.88 18.464C110.13 18.864 110.304 19.3173 110.4 19.824C110.501 20.3253 110.53 20.8453 110.488 21.384H104.952V20.616H109.664L109.296 20.856C109.312 20.5413 109.293 20.2267 109.24 19.912C109.192 19.5973 109.098 19.3093 108.96 19.048C108.821 18.7813 108.626 18.568 108.376 18.408C108.125 18.248 107.805 18.168 107.416 18.168C106.925 18.168 106.514 18.2933 106.184 18.544C105.853 18.7947 105.605 19.1253 105.44 19.536C105.274 19.9413 105.192 20.3813 105.192 20.856V21.368C105.192 21.9013 105.272 22.3787 105.432 22.8C105.597 23.2213 105.842 23.5547 106.168 23.8C106.493 24.0453 106.904 24.168 107.4 24.168C107.896 24.168 108.304 24.048 108.624 23.808C108.944 23.568 109.138 23.2133 109.208 22.744H110.504C110.424 23.2507 110.242 23.688 109.96 24.056C109.677 24.4187 109.317 24.6987 108.88 24.896C108.442 25.0933 107.949 25.192 107.4 25.192ZM115.858 25.192C115.24 25.192 114.672 25.0267 114.154 24.696C113.637 24.36 113.224 23.8907 112.914 23.288C112.605 22.68 112.45 21.9653 112.45 21.144C112.45 20.328 112.602 19.6213 112.906 19.024C113.21 18.4267 113.613 17.968 114.114 17.648C114.621 17.3227 115.176 17.16 115.778 17.16C116.338 17.16 116.829 17.296 117.25 17.568C117.677 17.84 118.008 18.232 118.242 18.744C118.477 19.256 118.594 19.8747 118.594 20.6H118.114C118.114 20.0933 118.013 19.6667 117.81 19.32C117.613 18.9733 117.354 18.712 117.034 18.536C116.714 18.3547 116.37 18.264 116.002 18.264C115.586 18.264 115.205 18.3813 114.858 18.616C114.517 18.8453 114.242 19.176 114.034 19.608C113.832 20.0347 113.73 20.5467 113.73 21.144C113.73 21.752 113.832 22.2747 114.034 22.712C114.242 23.1493 114.517 23.4853 114.858 23.72C115.205 23.9547 115.586 24.072 116.002 24.072C116.349 24.072 116.682 23.9813 117.002 23.8C117.328 23.6187 117.594 23.3547 117.802 23.008C118.01 22.656 118.114 22.232 118.114 21.736H118.594C118.594 22.4773 118.472 23.1067 118.226 23.624C117.986 24.136 117.658 24.5253 117.242 24.792C116.832 25.0587 116.37 25.192 115.858 25.192ZM118.322 25L118.114 23.208V14.088H119.362V25H118.322ZM129.075 25.192C128.659 25.192 128.286 25.112 127.955 24.952C127.625 24.792 127.363 24.552 127.171 24.232C126.979 23.912 126.883 23.512 126.883 23.032V15.224H128.115V23C128.115 23.7893 128.483 24.184 129.219 24.184C129.438 24.184 129.649 24.16 129.851 24.112C130.059 24.064 130.291 23.992 130.547 23.896L130.723 24.792C130.451 24.9093 130.179 25.0053 129.907 25.08C129.641 25.1547 129.363 25.192 129.075 25.192ZM125.651 18.216V17.352H130.531V18.216H125.651ZM138.339 25V20.504C138.339 19.7733 138.163 19.2187 137.811 18.84C137.464 18.456 136.99 18.264 136.387 18.264C135.928 18.264 135.531 18.3893 135.195 18.64C134.859 18.8907 134.6 19.2507 134.419 19.72C134.238 20.184 134.147 20.7387 134.147 21.384H133.667C133.667 20.4933 133.784 19.7333 134.019 19.104C134.254 18.4747 134.595 17.9947 135.043 17.664C135.496 17.328 136.046 17.16 136.691 17.16C137.294 17.16 137.808 17.296 138.235 17.568C138.667 17.8347 138.998 18.2187 139.227 18.72C139.456 19.2213 139.571 19.816 139.571 20.504V25H138.339ZM132.899 25V14.088H134.147V25H132.899ZM145.371 25.192C144.71 25.192 144.118 25.024 143.595 24.688C143.078 24.3467 142.667 23.8747 142.363 23.272C142.065 22.6693 141.915 21.976 141.915 21.192C141.915 20.3547 142.065 19.6347 142.363 19.032C142.662 18.4293 143.07 17.968 143.587 17.648C144.11 17.3227 144.705 17.16 145.371 17.16C145.953 17.16 146.449 17.2773 146.859 17.512C147.27 17.7467 147.601 18.064 147.851 18.464C148.102 18.864 148.275 19.3173 148.371 19.824C148.473 20.3253 148.502 20.8453 148.459 21.384H142.923V20.616H147.635L147.267 20.856C147.283 20.5413 147.265 20.2267 147.211 19.912C147.163 19.5973 147.07 19.3093 146.931 19.048C146.793 18.7813 146.598 18.568 146.347 18.408C146.097 18.248 145.777 18.168 145.387 18.168C144.897 18.168 144.486 18.2933 144.155 18.544C143.825 18.7947 143.577 19.1253 143.411 19.536C143.246 19.9413 143.163 20.3813 143.163 20.856V21.368C143.163 21.9013 143.243 22.3787 143.403 22.8C143.569 23.2213 143.814 23.5547 144.139 23.8C144.465 24.0453 144.875 24.168 145.371 24.168C145.867 24.168 146.275 24.048 146.595 23.808C146.915 23.568 147.11 23.2133 147.179 22.744H148.475C148.395 23.2507 148.214 23.688 147.931 24.056C147.649 24.4187 147.289 24.6987 146.851 24.896C146.414 25.0933 145.921 25.192 145.371 25.192ZM158.699 25.224C157.787 25.224 156.992 25.008 156.315 24.576C155.643 24.1387 155.12 23.5147 154.747 22.704C154.374 21.8933 154.187 20.92 154.187 19.784C154.187 18.6107 154.379 17.6267 154.763 16.832C155.152 16.032 155.686 15.4293 156.363 15.024C157.046 14.6133 157.824 14.408 158.699 14.408C159.91 14.408 160.854 14.7013 161.531 15.288C162.214 15.8747 162.651 16.6373 162.843 17.576L160.827 17.944C160.662 17.4 160.398 16.96 160.035 16.624C159.672 16.288 159.227 16.12 158.699 16.12C158.235 16.12 157.816 16.256 157.443 16.528C157.07 16.7947 156.771 17.2 156.547 17.744C156.328 18.288 156.219 18.968 156.219 19.784C156.219 20.552 156.315 21.2133 156.507 21.768C156.704 22.3227 156.987 22.7493 157.355 23.048C157.723 23.3467 158.171 23.496 158.699 23.496C159.376 23.496 159.899 23.3173 160.267 22.96C160.64 22.5973 160.827 22.136 160.827 21.576H162.843C162.843 22.3493 162.675 23.008 162.339 23.552C162.008 24.0907 161.534 24.504 160.915 24.792C160.296 25.08 159.558 25.224 158.699 25.224ZM164.088 25L167.624 14.616H169.992L173.384 25H171.4L170.68 22.76H166.824L166.088 25H164.088ZM167.304 21.336H170.232L168.776 16.872L167.304 21.336ZM181.399 14.616H183.991L177.143 21.624V19.048L181.399 14.616ZM179.095 18.904L184.279 25H181.847L177.783 20.136L179.095 18.904ZM175.399 14.616H177.303V25H175.399V14.616ZM186.012 25V14.616H192.684V16.248H187.9V18.984H192.396V20.616H187.9V23.352H192.684V25H186.012ZM32.488 34.616H35.848C36.904 34.616 37.8293 34.8293 38.624 35.256C39.4187 35.6773 40.0373 36.2773 40.48 37.056C40.9227 37.8347 41.144 38.7547 41.144 39.816C41.144 40.8667 40.9227 41.7813 40.48 42.56C40.0373 43.3333 39.4187 43.9333 38.624 44.36C37.8293 44.7867 36.904 45 35.848 45H32.488V34.616ZM34.376 36.328V43.304H35.848C36.52 43.304 37.0987 43.152 37.584 42.848C38.0747 42.544 38.4507 42.1307 38.712 41.608C38.9787 41.08 39.112 40.4827 39.112 39.816C39.112 39.1387 38.9787 38.5387 38.712 38.016C38.4507 37.4933 38.0747 37.0827 37.584 36.784C37.0987 36.48 36.52 36.328 35.848 36.328H34.376ZM43.6164 45V34.616H50.2884V36.248H45.5044V38.984H50.0004V40.616H45.5044V43.352H50.2884V45H43.6164ZM56.799 45.224C56.079 45.224 55.415 45.0987 54.807 44.848C54.2043 44.5973 53.7137 44.216 53.335 43.704C52.9617 43.192 52.7617 42.5413 52.735 41.752H54.591C54.591 42.152 54.6897 42.48 54.887 42.736C55.0843 42.992 55.3483 43.184 55.679 43.312C56.015 43.4347 56.383 43.496 56.783 43.496C57.167 43.496 57.5083 43.4453 57.807 43.344C58.111 43.2427 58.3483 43.0987 58.519 42.912C58.695 42.72 58.783 42.4933 58.783 42.232C58.783 41.8853 58.6763 41.6133 58.463 41.416C58.255 41.2187 57.919 41.0373 57.455 40.872L55.407 40.056C54.607 39.7413 53.9937 39.376 53.567 38.96C53.1403 38.544 52.927 37.9707 52.927 37.24C52.927 36.3973 53.2603 35.7147 53.927 35.192C54.5937 34.6693 55.5243 34.408 56.719 34.408C57.8817 34.408 58.7803 34.68 59.415 35.224C60.0497 35.7627 60.4097 36.5147 60.495 37.48H58.639C58.5697 37.0693 58.383 36.7413 58.079 36.496C57.775 36.2453 57.3217 36.12 56.719 36.12C56.1857 36.12 55.7643 36.232 55.455 36.456C55.1457 36.6747 54.991 36.952 54.991 37.288C54.991 37.576 55.087 37.8053 55.279 37.976C55.4763 38.1413 55.7803 38.3013 56.191 38.456L58.463 39.336C59.231 39.6347 59.8203 40.0107 60.231 40.464C60.6417 40.9173 60.847 41.4853 60.847 42.168C60.847 42.792 60.6897 43.3333 60.375 43.792C60.0603 44.2453 59.6017 44.5973 58.999 44.848C58.3963 45.0987 57.663 45.224 56.799 45.224ZM67.1621 45.224C66.4421 45.224 65.7781 45.0987 65.1701 44.848C64.5675 44.5973 64.0768 44.216 63.6981 43.704C63.3248 43.192 63.1248 42.5413 63.0981 41.752H64.9541C64.9541 42.152 65.0528 42.48 65.2501 42.736C65.4475 42.992 65.7115 43.184 66.0421 43.312C66.3781 43.4347 66.7461 43.496 67.1461 43.496C67.5301 43.496 67.8715 43.4453 68.1701 43.344C68.4741 43.2427 68.7115 43.0987 68.8821 42.912C69.0581 42.72 69.1461 42.4933 69.1461 42.232C69.1461 41.8853 69.0395 41.6133 68.8261 41.416C68.6181 41.2187 68.2821 41.0373 67.8181 40.872L65.7701 40.056C64.9701 39.7413 64.3568 39.376 63.9301 38.96C63.5035 38.544 63.2901 37.9707 63.2901 37.24C63.2901 36.3973 63.6235 35.7147 64.2901 35.192C64.9568 34.6693 65.8875 34.408 67.0821 34.408C68.2448 34.408 69.1435 34.68 69.7781 35.224C70.4128 35.7627 70.7728 36.5147 70.8581 37.48H69.0021C68.9328 37.0693 68.7461 36.7413 68.4421 36.496C68.1381 36.2453 67.6848 36.12 67.0821 36.12C66.5488 36.12 66.1275 36.232 65.8181 36.456C65.5088 36.6747 65.3541 36.952 65.3541 37.288C65.3541 37.576 65.4501 37.8053 65.6421 37.976C65.8395 38.1413 66.1435 38.3013 66.5541 38.456L68.8261 39.336C69.5941 39.6347 70.1835 40.0107 70.5941 40.464C71.0048 40.9173 71.2101 41.4853 71.2101 42.168C71.2101 42.792 71.0528 43.3333 70.7381 43.792C70.4235 44.2453 69.9648 44.5973 69.3621 44.848C68.7595 45.0987 68.0261 45.224 67.1621 45.224ZM73.8932 45V34.616H80.5652V36.248H75.7812V38.984H80.2772V40.616H75.7812V43.352H80.5652V45H73.8932ZM83.4599 45V34.616H87.2999C88.5425 34.616 89.4945 34.9067 90.1559 35.488C90.8225 36.0693 91.1559 36.84 91.1559 37.8C91.1559 38.744 90.8225 39.5067 90.1559 40.088C89.4945 40.664 88.5425 40.952 87.2999 40.952H85.3479V45H83.4599ZM89.0759 45L86.3239 40.136H88.3399L91.5399 45H89.0759ZM85.3479 39.688H87.1079C87.8012 39.688 88.3265 39.5307 88.6839 39.216C89.0412 38.896 89.2199 38.4827 89.2199 37.976C89.2199 37.4587 89.0572 37.0427 88.7319 36.728C88.4065 36.408 87.9292 36.248 87.2999 36.248H85.3479V39.688ZM92.5247 36.248V34.616H100.845V36.248H97.2047L97.6287 35.816V45H95.7407V35.816L96.1647 36.248H92.5247ZM106.193 45.224C105.473 45.224 104.809 45.0987 104.201 44.848C103.598 44.5973 103.107 44.216 102.729 43.704C102.355 43.192 102.155 42.5413 102.129 41.752H103.985C103.985 42.152 104.083 42.48 104.281 42.736C104.478 42.992 104.742 43.184 105.073 43.312C105.409 43.4347 105.777 43.496 106.177 43.496C106.561 43.496 106.902 43.4453 107.201 43.344C107.505 43.2427 107.742 43.0987 107.913 42.912C108.089 42.72 108.177 42.4933 108.177 42.232C108.177 41.8853 108.07 41.6133 107.857 41.416C107.649 41.2187 107.313 41.0373 106.849 40.872L104.801 40.056C104.001 39.7413 103.387 39.376 102.961 38.96C102.534 38.544 102.321 37.9707 102.321 37.24C102.321 36.3973 102.654 35.7147 103.321 35.192C103.987 34.6693 104.918 34.408 106.113 34.408C107.275 34.408 108.174 34.68 108.809 35.224C109.443 35.7627 109.803 36.5147 109.889 37.48H108.033C107.963 37.0693 107.777 36.7413 107.473 36.496C107.169 36.2453 106.715 36.12 106.113 36.12C105.579 36.12 105.158 36.232 104.849 36.456C104.539 36.6747 104.385 36.952 104.385 37.288C104.385 37.576 104.481 37.8053 104.673 37.976C104.87 38.1413 105.174 38.3013 105.585 38.456L107.857 39.336C108.625 39.6347 109.214 40.0107 109.625 40.464C110.035 40.9173 110.241 41.4853 110.241 42.168C110.241 42.792 110.083 43.3333 109.769 43.792C109.454 44.2453 108.995 44.5973 108.393 44.848C107.79 45.0987 107.057 45.224 106.193 45.224ZM119.777 45.192C119.035 45.192 118.417 45.088 117.921 44.88C117.425 44.6667 117.049 44.376 116.793 44.008C116.537 43.6347 116.401 43.208 116.385 42.728H117.585C117.611 43.2133 117.806 43.5787 118.169 43.824C118.537 44.064 119.035 44.184 119.665 44.184C119.995 44.184 120.299 44.1307 120.577 44.024C120.854 43.9173 121.075 43.7707 121.241 43.584C121.406 43.3973 121.489 43.1867 121.489 42.952C121.489 42.6533 121.379 42.4187 121.161 42.248C120.942 42.0773 120.593 41.928 120.113 41.8L118.625 41.32C117.979 41.1173 117.483 40.84 117.137 40.488C116.795 40.1307 116.625 39.704 116.625 39.208C116.625 38.5893 116.897 38.0933 117.441 37.72C117.985 37.3467 118.699 37.16 119.585 37.16C120.523 37.16 121.251 37.352 121.769 37.736C122.286 38.12 122.555 38.6 122.577 39.176H121.345C121.297 38.84 121.126 38.5867 120.833 38.416C120.539 38.24 120.123 38.152 119.585 38.152C119.067 38.152 118.662 38.2693 118.369 38.504C118.081 38.7333 117.937 38.9893 117.937 39.272C117.937 39.8 118.39 40.1893 119.297 40.44L120.817 40.952C121.473 41.1493 121.974 41.408 122.321 41.728C122.673 42.048 122.849 42.456 122.849 42.952C122.849 43.336 122.723 43.6987 122.473 44.04C122.222 44.3813 121.867 44.6587 121.409 44.872C120.95 45.0853 120.406 45.192 119.777 45.192ZM128.247 45.192C127.586 45.192 126.994 45.024 126.471 44.688C125.954 44.3467 125.543 43.8747 125.239 43.272C124.94 42.6693 124.791 41.976 124.791 41.192C124.791 40.3547 124.94 39.6347 125.239 39.032C125.538 38.4293 125.946 37.968 126.463 37.648C126.986 37.3227 127.58 37.16 128.247 37.16C128.828 37.16 129.324 37.2773 129.735 37.512C130.146 37.7467 130.476 38.064 130.727 38.464C130.978 38.864 131.151 39.3173 131.247 39.824C131.348 40.3253 131.378 40.8453 131.335 41.384H125.799V40.616H130.511L130.143 40.856C130.159 40.5413 130.14 40.2267 130.087 39.912C130.039 39.5973 129.946 39.3093 129.807 39.048C129.668 38.7813 129.474 38.568 129.223 38.408C128.972 38.248 128.652 38.168 128.263 38.168C127.772 38.168 127.362 38.2933 127.031 38.544C126.7 38.7947 126.452 39.1253 126.287 39.536C126.122 39.9413 126.039 40.3813 126.039 40.856V41.368C126.039 41.9013 126.119 42.3787 126.279 42.8C126.444 43.2213 126.69 43.5547 127.015 43.8C127.34 44.0453 127.751 44.168 128.247 44.168C128.743 44.168 129.151 44.048 129.471 43.808C129.791 43.568 129.986 43.2133 130.055 42.744H131.351C131.271 43.2507 131.09 43.688 130.807 44.056C130.524 44.4187 130.164 44.6987 129.727 44.896C129.29 45.0933 128.796 45.192 128.247 45.192ZM136.658 45.192C136.044 45.192 135.471 45.0267 134.938 44.696C134.41 44.3653 133.983 43.8987 133.658 43.296C133.332 42.6933 133.17 41.9813 133.17 41.16C133.17 40.3173 133.332 39.5973 133.658 39C133.983 38.4027 134.41 37.9467 134.938 37.632C135.471 37.3173 136.044 37.16 136.658 37.16C137.09 37.16 137.476 37.2267 137.818 37.36C138.164 37.488 138.466 37.6667 138.722 37.896C138.978 38.1253 139.188 38.3867 139.354 38.68C139.524 38.968 139.65 39.272 139.73 39.592L138.45 39.704C138.316 39.2613 138.092 38.912 137.778 38.656C137.468 38.3947 137.09 38.264 136.642 38.264C136.263 38.264 135.906 38.3733 135.57 38.592C135.239 38.8053 134.97 39.128 134.762 39.56C134.554 39.9867 134.45 40.52 134.45 41.16C134.45 41.752 134.543 42.2667 134.73 42.704C134.922 43.136 135.183 43.472 135.514 43.712C135.844 43.952 136.22 44.072 136.642 44.072C137.234 44.072 137.682 43.928 137.986 43.64C138.295 43.3467 138.45 42.9413 138.45 42.424H139.73C139.73 42.9573 139.604 43.432 139.354 43.848C139.103 44.264 138.746 44.592 138.282 44.832C137.823 45.072 137.282 45.192 136.658 45.192ZM144.732 45.192C144.316 45.192 143.942 45.112 143.612 44.952C143.281 44.792 143.02 44.552 142.828 44.232C142.636 43.912 142.54 43.512 142.54 43.032V35.224H143.772V43C143.772 43.7893 144.14 44.184 144.876 44.184C145.094 44.184 145.305 44.16 145.508 44.112C145.716 44.064 145.948 43.992 146.204 43.896L146.38 44.792C146.108 44.9093 145.836 45.0053 145.564 45.08C145.297 45.1547 145.02 45.192 144.732 45.192ZM141.308 38.216V37.352H146.188V38.216H141.308ZM149.259 35.544C149.003 35.544 148.801 35.472 148.651 35.328C148.502 35.1787 148.427 34.984 148.427 34.744C148.427 34.5093 148.502 34.3227 148.651 34.184C148.801 34.0453 149.003 33.976 149.259 33.976C149.515 33.976 149.718 34.0453 149.867 34.184C150.017 34.3227 150.091 34.5093 150.091 34.744C150.091 34.984 150.017 35.1787 149.867 35.328C149.718 35.472 149.515 35.544 149.259 35.544ZM148.635 45V37.336H149.883V45H148.635ZM156.249 45.192C155.561 45.192 154.948 45.04 154.409 44.736C153.876 44.432 153.454 43.9813 153.145 43.384C152.836 42.7867 152.681 42.0507 152.681 41.176C152.681 40.296 152.836 39.56 153.145 38.968C153.454 38.3707 153.876 37.92 154.409 37.616C154.948 37.312 155.561 37.16 156.249 37.16C156.932 37.16 157.54 37.312 158.073 37.616C158.612 37.92 159.033 38.3707 159.337 38.968C159.646 39.56 159.801 40.296 159.801 41.176C159.801 42.0507 159.646 42.7867 159.337 43.384C159.033 43.9813 158.612 44.432 158.073 44.736C157.54 45.04 156.932 45.192 156.249 45.192ZM156.217 44.104C156.713 44.104 157.134 43.9867 157.481 43.752C157.828 43.512 158.089 43.1733 158.265 42.736C158.446 42.2987 158.537 41.7787 158.537 41.176C158.537 40.264 158.348 39.5467 157.969 39.024C157.59 38.496 157.028 38.232 156.281 38.232C155.78 38.232 155.356 38.352 155.009 38.592C154.668 38.8267 154.406 39.1653 154.225 39.608C154.049 40.0453 153.961 40.568 153.961 41.176C153.961 42.0773 154.15 42.792 154.529 43.32C154.913 43.8427 155.476 44.104 156.217 44.104ZM167.831 45V40.504C167.831 39.7733 167.655 39.2187 167.303 38.84C166.956 38.456 166.482 38.264 165.879 38.264C165.42 38.264 165.023 38.3893 164.687 38.64C164.351 38.8907 164.092 39.2507 163.911 39.72C163.73 40.184 163.639 40.7387 163.639 41.384H163.159C163.159 40.4933 163.276 39.7333 163.511 39.104C163.746 38.4747 164.087 37.9947 164.535 37.664C164.988 37.328 165.538 37.16 166.183 37.16C166.786 37.16 167.3 37.296 167.727 37.568C168.159 37.8347 168.49 38.2187 168.719 38.72C168.948 39.2213 169.063 39.816 169.063 40.504V45H167.831ZM162.391 45V37.352H163.463L163.639 39.112V45H162.391ZM176.164 46.616V33.32H179.316V34.424H177.412V45.512H179.316V46.616H176.164ZM180.251 44.256C180.251 44.0053 180.339 43.7893 180.515 43.608C180.691 43.4267 180.912 43.336 181.179 43.336C181.445 43.336 181.672 43.4267 181.859 43.608C182.045 43.7893 182.139 44.0053 182.139 44.256C182.139 44.5067 182.045 44.7173 181.859 44.888C181.672 45.0587 181.445 45.144 181.179 45.144C180.912 45.144 180.691 45.0587 180.515 44.888C180.339 44.712 180.251 44.5013 180.251 44.256ZM183.27 44.256C183.27 44.0053 183.358 43.7893 183.534 43.608C183.71 43.4267 183.931 43.336 184.198 43.336C184.465 43.336 184.691 43.4267 184.878 43.608C185.065 43.7893 185.158 44.0053 185.158 44.256C185.158 44.5067 185.065 44.7173 184.878 44.888C184.691 45.0587 184.465 45.144 184.198 45.144C183.931 45.144 183.71 45.0587 183.534 44.888C183.358 44.712 183.27 44.5013 183.27 44.256ZM186.289 44.256C186.289 44.0053 186.377 43.7893 186.553 43.608C186.729 43.4267 186.951 43.336 187.217 43.336C187.484 43.336 187.711 43.4267 187.897 43.608C188.084 43.7893 188.177 44.0053 188.177 44.256C188.177 44.5067 188.084 44.7173 187.897 44.888C187.711 45.0587 187.484 45.144 187.217 45.144C186.951 45.144 186.729 45.0587 186.553 44.888C186.377 44.712 186.289 44.5013 186.289 44.256ZM191.757 46.616V33.32H188.605V34.424H190.509V45.512H188.605V46.616H191.757Z" fill="#333333"/>
</g>
<defs>
<filter id="filter0_d_7098_5720" x="0" y="0" width="232.035" height="68" filterUnits="userSpaceOnUse" color-interpolation-filters="sRGB">
<feFlood flood-opacity="0" result="BackgroundImageFix"/>
<feColorMatrix in="SourceAlpha" type="matrix" values="0 0 0 0 0 0 0 0 0 0 0 0 0 0 0 0 0 0 127 0" result="hardAlpha"/>
<feOffset dy="4"/>
<feGaussianBlur stdDeviation="3"/>
<feComposite in2="hardAlpha" operator="out"/>
<feColorMatrix type="matrix" values="0 0 0 0 0 0 0 0 0 0 0 0 0 0 0 0 0 0 0.1 0"/>
<feBlend mode="normal" in2="BackgroundImageFix" result="effect1_dropShadow_7098_5720"/>
<feBlend mode="normal" in="SourceGraphic" in2="effect1_dropShadow_7098_5720" result="shape"/>
</filter>
<filter id="filter1_d_7098_5720" x="25.144" y="12.0879" width="173.54" height="44.5283" filterUnits="userSpaceOnUse" color-interpolation-filters="sRGB">
<feFlood flood-opacity="0" result="BackgroundImageFix"/>
<feColorMatrix in="SourceAlpha" type="matrix" values="0 0 0 0 0 0 0 0 0 0 0 0 0 0 0 0 0 0 127 0" result="hardAlpha"/>
<feOffset dy="4"/>
<feGaussianBlur stdDeviation="3"/>
<feComposite in2="hardAlpha" operator="out"/>
<feColorMatrix type="matrix" values="0 0 0 0 0 0 0 0 0 0 0 0 0 0 0 0 0 0 0.05 0"/>
<feBlend mode="normal" in2="BackgroundImageFix" result="effect1_dropShadow_7098_5720"/>
<feBlend mode="normal" in="SourceGraphic" in2="effect1_dropShadow_7098_5720" result="shape"/>
</filter>
</defs>
</svg>
