<svg width="259" height="87" viewBox="0 0 259 87" fill="none" xmlns="http://www.w3.org/2000/svg">
<path d="M8.15907 41.6331L18.9619 50V68C18.9619 72.9706 23.4383 77 28.9603 77L247.002 77C252.524 77 257 72.9706 257 68V11C257 6.02944 252.524 2 247.002 2L28.9603 2C23.4383 2 18.9619 6.02944 18.9619 11L18.9619 29.5L8.28375 36.9931C6.62427 38.1575 6.56408 40.3978 8.15907 41.6331Z" fill="white"/>
<g filter="url(#filter0_d_7041_5852)">
<mask id="path-2-inside-1_7041_5852" fill="white">
<path d="M7.77597 41.6331L17.5 50V68C17.5 72.9706 21.5294 77 26.5 77L222.767 77C227.738 77 231.767 72.9706 231.767 68V11C231.767 6.02944 227.738 2 222.767 2L26.5 2C21.5294 2 17.5 6.02944 17.5 11L17.5 29.5L7.88819 36.9931C6.39444 38.1575 6.34025 40.3978 7.77597 41.6331Z"/>
</mask>
<path d="M7.77597 41.6331L17.5 50V68C17.5 72.9706 21.5294 77 26.5 77L222.767 77C227.738 77 231.767 72.9706 231.767 68V11C231.767 6.02944 227.738 2 222.767 2L26.5 2C21.5294 2 17.5 6.02944 17.5 11L17.5 29.5L7.88819 36.9931C6.39444 38.1575 6.34025 40.3978 7.77597 41.6331Z" fill="#FFF2EA"/>
<path d="M17.5 50H18.9V49.3577L18.4131 48.9388L17.5 50ZM7.77597 41.6331L6.86285 42.6944H6.86285L7.77597 41.6331ZM7.88819 36.9931L7.02744 35.8889H7.02744L7.88819 36.9931ZM17.5 29.5L18.3607 30.6041L18.9 30.1838V29.5H17.5ZM26.5 2V0.6V2ZM222.767 2V3.4V2ZM18.4131 48.9388L8.68909 40.5719L6.86285 42.6944L16.5869 51.0612L18.4131 48.9388ZM8.74894 38.0972L18.3607 30.6041L16.6393 28.3959L7.02744 35.8889L8.74894 38.0972ZM8.68909 40.5719C7.92337 39.9131 7.95227 38.7183 8.74894 38.0972L7.02744 35.8889C4.8366 37.5968 4.75713 40.8825 6.86285 42.6944L8.68909 40.5719ZM26.5 3.4L222.767 3.4V0.600003L26.5 0.6V3.4ZM230.367 11V68H233.167V11L230.367 11ZM222.767 75.6L26.5 75.6V78.4L222.767 78.4V75.6ZM18.9 29.5L18.9 11H16.1L16.1 29.5H18.9ZM18.9 68V50H16.1V68H18.9ZM26.5 75.6C22.3026 75.6 18.9 72.1974 18.9 68H16.1C16.1 73.7438 20.7562 78.4 26.5 78.4V75.6ZM230.367 68C230.367 72.1974 226.965 75.6 222.767 75.6V78.4C228.511 78.4 233.167 73.7438 233.167 68H230.367ZM222.767 3.4C226.965 3.4 230.367 6.80264 230.367 11L233.167 11C233.167 5.25624 228.511 0.600003 222.767 0.600003V3.4ZM26.5 0.6C20.7562 0.6 16.1 5.25624 16.1 11H18.9C18.9 6.80264 22.3026 3.4 26.5 3.4V0.6Z" fill="#997452" mask="url(#path-2-inside-1_7041_5852)"/>
</g>
<g filter="url(#filter1_d_7041_5852)">
<path d="M33.616 25V14.952H34.864V25H33.616ZM47.6573 25V20.504C47.6573 19.7733 47.4813 19.2187 47.1293 18.84C46.7826 18.456 46.3079 18.264 45.7053 18.264C45.2466 18.264 44.8493 18.3893 44.5133 18.64C44.1773 18.8907 43.9186 19.2507 43.7373 19.72C43.5559 20.184 43.4653 20.7387 43.4653 21.384H42.9853C42.9853 20.4933 43.1026 19.7333 43.3373 19.104C43.5719 18.4747 43.9133 17.9947 44.3613 17.664C44.8146 17.328 45.3639 17.16 46.0093 17.16C46.6119 17.16 47.1266 17.296 47.5533 17.568C47.9853 17.8347 48.3159 18.2187 48.5453 18.72C48.7746 19.2213 48.8893 19.816 48.8893 20.504V25H47.6573ZM42.2173 25V14.088H43.4653V25H42.2173ZM56.7695 25L56.6095 23.32V20.04C56.6095 19.352 56.4628 18.8587 56.1695 18.56C55.8762 18.256 55.4362 18.104 54.8495 18.104C54.5188 18.104 54.2175 18.152 53.9455 18.248C53.6788 18.344 53.4655 18.4933 53.3055 18.696C53.1508 18.8933 53.0735 19.1493 53.0735 19.464H51.6815C51.6815 18.9093 51.8175 18.464 52.0895 18.128C52.3615 17.7867 52.7348 17.5413 53.2095 17.392C53.6895 17.2373 54.2362 17.16 54.8495 17.16C55.4362 17.16 55.9562 17.2587 56.4095 17.456C56.8628 17.6533 57.2175 17.968 57.4735 18.4C57.7295 18.8267 57.8575 19.384 57.8575 20.072V25H56.7695ZM54.1615 25.192C53.5322 25.192 53.0122 25.08 52.6015 24.856C52.1908 24.632 51.8842 24.3413 51.6815 23.984C51.4788 23.6267 51.3775 23.2507 51.3775 22.856C51.3775 22.3387 51.5055 21.9173 51.7615 21.592C52.0228 21.2667 52.3775 21.0293 52.8255 20.88C53.2735 20.7253 53.7775 20.648 54.3375 20.648C54.7375 20.648 55.1375 20.688 55.5375 20.768C55.9428 20.848 56.3375 20.9573 56.7215 21.096V21.88C56.4015 21.752 56.0388 21.6507 55.6335 21.576C55.2335 21.5013 54.8655 21.464 54.5295 21.464C54.0175 21.464 53.5855 21.5707 53.2335 21.784C52.8815 21.992 52.7055 22.3493 52.7055 22.856C52.7055 23.2293 52.8388 23.5493 53.1055 23.816C53.3775 24.0827 53.8095 24.216 54.4015 24.216C54.8175 24.216 55.1908 24.12 55.5215 23.928C55.8575 23.7307 56.1215 23.4853 56.3135 23.192C56.5108 22.8987 56.6095 22.6053 56.6095 22.312H56.9135C56.9135 22.824 56.8015 23.2987 56.5775 23.736C56.3588 24.1733 56.0442 24.5253 55.6335 24.792C55.2228 25.0587 54.7322 25.192 54.1615 25.192ZM59.678 17.352H61.102L63.502 23.928H63.326L65.726 17.352H67.15L64.094 25H62.734L59.678 17.352ZM71.8689 25.192C71.2075 25.192 70.6155 25.024 70.0929 24.688C69.5755 24.3467 69.1649 23.8747 68.8609 23.272C68.5622 22.6693 68.4129 21.976 68.4129 21.192C68.4129 20.3547 68.5622 19.6347 68.8609 19.032C69.1595 18.4293 69.5675 17.968 70.0849 17.648C70.6075 17.3227 71.2022 17.16 71.8689 17.16C72.4502 17.16 72.9462 17.2773 73.3569 17.512C73.7675 17.7467 74.0982 18.064 74.3489 18.464C74.5995 18.864 74.7729 19.3173 74.8689 19.824C74.9702 20.3253 74.9995 20.8453 74.9569 21.384H69.4209V20.616H74.1329L73.7649 20.856C73.7809 20.5413 73.7622 20.2267 73.7089 19.912C73.6609 19.5973 73.5675 19.3093 73.4289 19.048C73.2902 18.7813 73.0955 18.568 72.8449 18.408C72.5942 18.248 72.2742 18.168 71.8849 18.168C71.3942 18.168 70.9835 18.2933 70.6529 18.544C70.3222 18.7947 70.0742 19.1253 69.9089 19.536C69.7435 19.9413 69.6609 20.3813 69.6609 20.856V21.368C69.6609 21.9013 69.7409 22.3787 69.9009 22.8C70.0662 23.2213 70.3115 23.5547 70.6369 23.8C70.9622 24.0453 71.3729 24.168 71.8689 24.168C72.3649 24.168 72.7729 24.048 73.0929 23.808C73.4129 23.568 73.6075 23.2133 73.6769 22.744H74.9729C74.8929 23.2507 74.7115 23.688 74.4289 24.056C74.1462 24.4187 73.7862 24.6987 73.3489 24.896C72.9115 25.0933 72.4182 25.192 71.8689 25.192ZM81.9645 25V16.168C81.9645 15.6613 82.0605 15.248 82.2525 14.928C82.4498 14.6027 82.7112 14.3627 83.0365 14.208C83.3672 14.0533 83.7352 13.976 84.1405 13.976C84.3592 13.976 84.5805 13.992 84.8045 14.024C85.0338 14.056 85.2605 14.104 85.4845 14.168L85.2445 15.16C85.0845 15.096 84.9245 15.048 84.7645 15.016C84.6098 14.984 84.4605 14.968 84.3165 14.968C84.1458 14.968 83.9752 15 83.8045 15.064C83.6338 15.128 83.4925 15.248 83.3805 15.424C83.2685 15.6 83.2125 15.8533 83.2125 16.184V25H81.9645ZM80.7165 18.216V17.352H84.7965V18.216H80.7165ZM89.9609 25.192C89.2729 25.192 88.6595 25.04 88.1209 24.736C87.5875 24.432 87.1662 23.9813 86.8569 23.384C86.5475 22.7867 86.3929 22.0507 86.3929 21.176C86.3929 20.296 86.5475 19.56 86.8569 18.968C87.1662 18.3707 87.5875 17.92 88.1209 17.616C88.6595 17.312 89.2729 17.16 89.9609 17.16C90.6435 17.16 91.2515 17.312 91.7849 17.616C92.3235 17.92 92.7449 18.3707 93.0489 18.968C93.3582 19.56 93.5129 20.296 93.5129 21.176C93.5129 22.0507 93.3582 22.7867 93.0489 23.384C92.7449 23.9813 92.3235 24.432 91.7849 24.736C91.2515 25.04 90.6435 25.192 89.9609 25.192ZM89.9289 24.104C90.4249 24.104 90.8462 23.9867 91.1929 23.752C91.5395 23.512 91.8009 23.1733 91.9769 22.736C92.1582 22.2987 92.2489 21.7787 92.2489 21.176C92.2489 20.264 92.0595 19.5467 91.6809 19.024C91.3022 18.496 90.7395 18.232 89.9929 18.232C89.4915 18.232 89.0675 18.352 88.7209 18.592C88.3795 18.8267 88.1182 19.1653 87.9369 19.608C87.7609 20.0453 87.6729 20.568 87.6729 21.176C87.6729 22.0773 87.8622 22.792 88.2409 23.32C88.6249 23.8427 89.1875 24.104 89.9289 24.104ZM101.303 17.336H102.551V25H101.303V17.336ZM95.8789 17.336H97.1269V22.104C97.1269 22.744 97.2815 23.2293 97.5909 23.56C97.9055 23.8907 98.3535 24.056 98.9349 24.056C99.4149 24.056 99.8309 23.928 100.183 23.672C100.54 23.416 100.815 23.064 101.007 22.616C101.204 22.1627 101.303 21.6453 101.303 21.064H101.767C101.767 21.9227 101.642 22.656 101.391 23.264C101.146 23.872 100.796 24.3387 100.343 24.664C99.8949 24.984 99.3669 25.144 98.7589 25.144C98.1829 25.144 97.6789 25.0373 97.2469 24.824C96.8149 24.6107 96.4789 24.288 96.2389 23.856C95.9989 23.4187 95.8789 22.8667 95.8789 22.2V17.336ZM111.39 25V20.504C111.39 19.7733 111.214 19.2187 110.862 18.84C110.516 18.456 110.041 18.264 109.438 18.264C108.98 18.264 108.582 18.3893 108.246 18.64C107.91 18.8907 107.652 19.2507 107.47 19.72C107.289 20.184 107.198 20.7387 107.198 21.384H106.718C106.718 20.4933 106.836 19.7333 107.07 19.104C107.305 18.4747 107.646 17.9947 108.094 17.664C108.548 17.328 109.097 17.16 109.742 17.16C110.345 17.16 110.86 17.296 111.286 17.568C111.718 17.8347 112.049 18.2187 112.278 18.72C112.508 19.2213 112.622 19.816 112.622 20.504V25H111.39ZM105.95 25V17.352H107.022L107.198 19.112V25H105.95ZM118.503 25.192C117.884 25.192 117.316 25.0267 116.799 24.696C116.281 24.36 115.868 23.8907 115.559 23.288C115.249 22.68 115.095 21.9653 115.095 21.144C115.095 20.328 115.247 19.6213 115.551 19.024C115.855 18.4267 116.257 17.968 116.759 17.648C117.265 17.3227 117.82 17.16 118.423 17.16C118.983 17.16 119.473 17.296 119.895 17.568C120.321 17.84 120.652 18.232 120.887 18.744C121.121 19.256 121.239 19.8747 121.239 20.6H120.759C120.759 20.0933 120.657 19.6667 120.455 19.32C120.257 18.9733 119.999 18.712 119.679 18.536C119.359 18.3547 119.015 18.264 118.647 18.264C118.231 18.264 117.849 18.3813 117.503 18.616C117.161 18.8453 116.887 19.176 116.679 19.608C116.476 20.0347 116.375 20.5467 116.375 21.144C116.375 21.752 116.476 22.2747 116.679 22.712C116.887 23.1493 117.161 23.4853 117.503 23.72C117.849 23.9547 118.231 24.072 118.647 24.072C118.993 24.072 119.327 23.9813 119.647 23.8C119.972 23.6187 120.239 23.3547 120.447 23.008C120.655 22.656 120.759 22.232 120.759 21.736H121.239C121.239 22.4773 121.116 23.1067 120.871 23.624C120.631 24.136 120.303 24.5253 119.887 24.792C119.476 25.0587 119.015 25.192 118.503 25.192ZM120.967 25L120.759 23.208V14.088H122.007V25H120.967ZM132.12 25.192C131.379 25.192 130.76 25.088 130.264 24.88C129.768 24.6667 129.392 24.376 129.136 24.008C128.88 23.6347 128.744 23.208 128.728 22.728H129.928C129.955 23.2133 130.149 23.5787 130.512 23.824C130.88 24.064 131.379 24.184 132.008 24.184C132.339 24.184 132.643 24.1307 132.92 24.024C133.197 23.9173 133.419 23.7707 133.584 23.584C133.749 23.3973 133.832 23.1867 133.832 22.952C133.832 22.6533 133.723 22.4187 133.504 22.248C133.285 22.0773 132.936 21.928 132.456 21.8L130.968 21.32C130.323 21.1173 129.827 20.84 129.48 20.488C129.139 20.1307 128.968 19.704 128.968 19.208C128.968 18.5893 129.24 18.0933 129.784 17.72C130.328 17.3467 131.043 17.16 131.928 17.16C132.867 17.16 133.595 17.352 134.112 17.736C134.629 18.12 134.899 18.6 134.92 19.176H133.688C133.64 18.84 133.469 18.5867 133.176 18.416C132.883 18.24 132.467 18.152 131.928 18.152C131.411 18.152 131.005 18.2693 130.712 18.504C130.424 18.7333 130.28 18.9893 130.28 19.272C130.28 19.8 130.733 20.1893 131.64 20.44L133.16 20.952C133.816 21.1493 134.317 21.408 134.664 21.728C135.016 22.048 135.192 22.456 135.192 22.952C135.192 23.336 135.067 23.6987 134.816 24.04C134.565 24.3813 134.211 24.6587 133.752 24.872C133.293 25.0853 132.749 25.192 132.12 25.192ZM140.702 25.192C140.014 25.192 139.401 25.04 138.862 24.736C138.329 24.432 137.907 23.9813 137.598 23.384C137.289 22.7867 137.134 22.0507 137.134 21.176C137.134 20.296 137.289 19.56 137.598 18.968C137.907 18.3707 138.329 17.92 138.862 17.616C139.401 17.312 140.014 17.16 140.702 17.16C141.385 17.16 141.993 17.312 142.526 17.616C143.065 17.92 143.486 18.3707 143.79 18.968C144.099 19.56 144.254 20.296 144.254 21.176C144.254 22.0507 144.099 22.7867 143.79 23.384C143.486 23.9813 143.065 24.432 142.526 24.736C141.993 25.04 141.385 25.192 140.702 25.192ZM140.67 24.104C141.166 24.104 141.587 23.9867 141.934 23.752C142.281 23.512 142.542 23.1733 142.718 22.736C142.899 22.2987 142.99 21.7787 142.99 21.176C142.99 20.264 142.801 19.5467 142.422 19.024C142.043 18.496 141.481 18.232 140.734 18.232C140.233 18.232 139.809 18.352 139.462 18.592C139.121 18.8267 138.859 19.1653 138.678 19.608C138.502 20.0453 138.414 20.568 138.414 21.176C138.414 22.0773 138.603 22.792 138.982 23.32C139.366 23.8427 139.929 24.104 140.67 24.104ZM157.596 25V20.504C157.596 19.7733 157.42 19.2187 157.068 18.84C156.721 18.456 156.252 18.264 155.66 18.264C154.967 18.264 154.436 18.5333 154.068 19.072C153.7 19.6053 153.516 20.344 153.516 21.288H152.94C152.94 20.6 153.007 19.9973 153.14 19.48C153.279 18.9627 153.479 18.5333 153.74 18.192C154.001 17.8453 154.319 17.5867 154.692 17.416C155.065 17.2453 155.489 17.16 155.964 17.16C156.567 17.16 157.081 17.296 157.508 17.568C157.94 17.8347 158.271 18.2187 158.5 18.72C158.729 19.2213 158.844 19.816 158.844 20.504V25H157.596ZM146.844 25V17.352H147.916L148.06 18.888C148.3 18.3333 148.636 17.9067 149.068 17.608C149.505 17.3093 150.028 17.16 150.636 17.16C151.239 17.16 151.753 17.296 152.18 17.568C152.612 17.8347 152.943 18.2187 153.172 18.72C153.401 19.2213 153.516 19.816 153.516 20.504V25H152.284V20.504C152.284 19.7733 152.108 19.2187 151.756 18.84C151.409 18.456 150.935 18.264 150.332 18.264C149.873 18.264 149.476 18.3893 149.14 18.64C148.804 18.8907 148.545 19.2507 148.364 19.72C148.183 20.184 148.092 20.7387 148.092 21.384V25H146.844ZM164.629 25.192C163.968 25.192 163.376 25.024 162.853 24.688C162.336 24.3467 161.925 23.8747 161.621 23.272C161.322 22.6693 161.173 21.976 161.173 21.192C161.173 20.3547 161.322 19.6347 161.621 19.032C161.92 18.4293 162.328 17.968 162.845 17.648C163.368 17.3227 163.962 17.16 164.629 17.16C165.21 17.16 165.706 17.2773 166.117 17.512C166.528 17.7467 166.858 18.064 167.109 18.464C167.36 18.864 167.533 19.3173 167.629 19.824C167.73 20.3253 167.76 20.8453 167.717 21.384H162.181V20.616H166.893L166.525 20.856C166.541 20.5413 166.522 20.2267 166.469 19.912C166.421 19.5973 166.328 19.3093 166.189 19.048C166.05 18.7813 165.856 18.568 165.605 18.408C165.354 18.248 165.034 18.168 164.645 18.168C164.154 18.168 163.744 18.2933 163.413 18.544C163.082 18.7947 162.834 19.1253 162.669 19.536C162.504 19.9413 162.421 20.3813 162.421 20.856V21.368C162.421 21.9013 162.501 22.3787 162.661 22.8C162.826 23.2213 163.072 23.5547 163.397 23.8C163.722 24.0453 164.133 24.168 164.629 24.168C165.125 24.168 165.533 24.048 165.853 23.808C166.173 23.568 166.368 23.2133 166.437 22.744H167.733C167.653 23.2507 167.472 23.688 167.189 24.056C166.906 24.4187 166.546 24.6987 166.109 24.896C165.672 25.0933 165.178 25.192 164.629 25.192ZM172.704 25.192C172.288 25.192 171.914 25.112 171.584 24.952C171.253 24.792 170.992 24.552 170.8 24.232C170.608 23.912 170.512 23.512 170.512 23.032V15.224H171.744V23C171.744 23.7893 172.112 24.184 172.848 24.184C173.066 24.184 173.277 24.16 173.48 24.112C173.688 24.064 173.92 23.992 174.176 23.896L174.352 24.792C174.08 24.9093 173.808 25.0053 173.536 25.08C173.269 25.1547 172.992 25.192 172.704 25.192ZM169.28 18.216V17.352H174.16V18.216H169.28ZM181.967 25V20.504C181.967 19.7733 181.791 19.2187 181.439 18.84C181.093 18.456 180.618 18.264 180.015 18.264C179.557 18.264 179.159 18.3893 178.823 18.64C178.487 18.8907 178.229 19.2507 178.047 19.72C177.866 20.184 177.775 20.7387 177.775 21.384H177.295C177.295 20.4933 177.413 19.7333 177.647 19.104C177.882 18.4747 178.223 17.9947 178.671 17.664C179.125 17.328 179.674 17.16 180.319 17.16C180.922 17.16 181.437 17.296 181.863 17.568C182.295 17.8347 182.626 18.2187 182.855 18.72C183.085 19.2213 183.199 19.816 183.199 20.504V25H181.967ZM176.527 25V14.088H177.775V25H176.527ZM187.047 15.544C186.791 15.544 186.589 15.472 186.439 15.328C186.29 15.1787 186.215 14.984 186.215 14.744C186.215 14.5093 186.29 14.3227 186.439 14.184C186.589 14.0453 186.791 13.976 187.047 13.976C187.303 13.976 187.506 14.0453 187.655 14.184C187.805 14.3227 187.879 14.5093 187.879 14.744C187.879 14.984 187.805 15.1787 187.655 15.328C187.506 15.472 187.303 15.544 187.047 15.544ZM186.423 25V17.336H187.671V25H186.423ZM196.709 25V20.504C196.709 19.7733 196.533 19.2187 196.181 18.84C195.834 18.456 195.36 18.264 194.757 18.264C194.298 18.264 193.901 18.3893 193.565 18.64C193.229 18.8907 192.97 19.2507 192.789 19.72C192.608 20.184 192.517 20.7387 192.517 21.384H192.037C192.037 20.4933 192.154 19.7333 192.389 19.104C192.624 18.4747 192.965 17.9947 193.413 17.664C193.866 17.328 194.416 17.16 195.061 17.16C195.664 17.16 196.178 17.296 196.605 17.568C197.037 17.8347 197.368 18.2187 197.597 18.72C197.826 19.2213 197.941 19.816 197.941 20.504V25H196.709ZM191.269 25V17.352H192.341L192.517 19.112V25H191.269ZM203.789 28.936C203.005 28.936 202.325 28.824 201.749 28.6C201.173 28.3813 200.725 28.0853 200.405 27.712C200.091 27.344 199.933 26.936 199.933 26.488C199.933 25.896 200.149 25.4427 200.581 25.128C201.019 24.8187 201.581 24.664 202.269 24.664L202.957 25.096C202.381 25.096 201.936 25.216 201.621 25.456C201.307 25.696 201.149 26.024 201.149 26.44C201.149 26.856 201.373 27.208 201.821 27.496C202.269 27.784 202.925 27.928 203.789 27.928C204.429 27.928 204.989 27.8347 205.469 27.648C205.955 27.4667 206.331 27.2267 206.597 26.928C206.869 26.6347 207.005 26.3173 207.005 25.976C207.005 25.736 206.917 25.528 206.741 25.352C206.565 25.1813 206.296 25.096 205.933 25.096H202.957C202.44 25.096 201.992 25.0187 201.613 24.864C201.24 24.704 200.952 24.496 200.749 24.24C200.547 23.984 200.445 23.704 200.445 23.4C200.445 23.08 200.536 22.808 200.717 22.584C200.899 22.36 201.133 22.1893 201.421 22.072C201.715 21.9547 202.029 21.896 202.365 21.896L202.605 22.36C202.445 22.36 202.283 22.3973 202.117 22.472C201.957 22.5413 201.821 22.648 201.709 22.792C201.603 22.9307 201.549 23.1067 201.549 23.32C201.549 23.5653 201.651 23.7707 201.853 23.936C202.056 24.1013 202.424 24.184 202.957 24.184H205.933C206.653 24.184 207.219 24.336 207.629 24.64C208.045 24.944 208.253 25.368 208.253 25.912C208.253 26.4133 208.075 26.8933 207.717 27.352C207.36 27.816 206.848 28.1947 206.181 28.488C205.515 28.7867 204.717 28.936 203.789 28.936ZM204.013 22.76C203.427 22.76 202.896 22.6427 202.421 22.408C201.952 22.1733 201.579 21.8453 201.301 21.424C201.029 21.0027 200.893 20.5147 200.893 19.96C200.893 19.4 201.029 18.9093 201.301 18.488C201.579 18.0667 201.952 17.7413 202.421 17.512C202.896 17.2773 203.427 17.16 204.013 17.16C204.584 17.16 205.101 17.2773 205.565 17.512C206.035 17.7413 206.408 18.0667 206.685 18.488C206.963 18.9093 207.101 19.4 207.101 19.96C207.101 20.5147 206.963 21.0027 206.685 21.424C206.408 21.8453 206.035 22.1733 205.565 22.408C205.101 22.6427 204.584 22.76 204.013 22.76ZM204.013 21.864C204.6 21.864 205.056 21.6827 205.381 21.32C205.707 20.9573 205.869 20.504 205.869 19.96C205.869 19.4 205.707 18.9467 205.381 18.6C205.056 18.248 204.6 18.072 204.013 18.072C203.432 18.072 202.973 18.248 202.637 18.6C202.307 18.9467 202.141 19.4 202.141 19.96C202.141 20.504 202.307 20.9573 202.637 21.32C202.973 21.6827 203.432 21.864 204.013 21.864ZM206.525 18.376L205.933 18.136C205.933 17.688 206.021 17.296 206.197 16.96C206.373 16.6187 206.624 16.3547 206.949 16.168C207.275 15.976 207.661 15.88 208.109 15.88L208.013 17.112C207.533 17.112 207.165 17.216 206.909 17.424C206.653 17.6267 206.525 17.944 206.525 18.376ZM36.368 45.192C35.6267 45.192 35.008 45.088 34.512 44.88C34.016 44.6667 33.64 44.376 33.384 44.008C33.128 43.6347 32.992 43.208 32.976 42.728H34.176C34.2027 43.2133 34.3973 43.5787 34.76 43.824C35.128 44.064 35.6267 44.184 36.256 44.184C36.5867 44.184 36.8907 44.1307 37.168 44.024C37.4453 43.9173 37.6667 43.7707 37.832 43.584C37.9973 43.3973 38.08 43.1867 38.08 42.952C38.08 42.6533 37.9707 42.4187 37.752 42.248C37.5333 42.0773 37.184 41.928 36.704 41.8L35.216 41.32C34.5707 41.1173 34.0747 40.84 33.728 40.488C33.3867 40.1307 33.216 39.704 33.216 39.208C33.216 38.5893 33.488 38.0933 34.032 37.72C34.576 37.3467 35.2907 37.16 36.176 37.16C37.1147 37.16 37.8427 37.352 38.36 37.736C38.8773 38.12 39.1467 38.6 39.168 39.176H37.936C37.888 38.84 37.7173 38.5867 37.424 38.416C37.1307 38.24 36.7147 38.152 36.176 38.152C35.6587 38.152 35.2533 38.2693 34.96 38.504C34.672 38.7333 34.528 38.9893 34.528 39.272C34.528 39.8 34.9813 40.1893 35.888 40.44L37.408 40.952C38.064 41.1493 38.5653 41.408 38.912 41.728C39.264 42.048 39.44 42.456 39.44 42.952C39.44 43.336 39.3147 43.6987 39.064 44.04C38.8133 44.3813 38.4587 44.6587 38 44.872C37.5413 45.0853 36.9973 45.192 36.368 45.192ZM42.8863 35.544C42.6303 35.544 42.4276 35.472 42.2783 35.328C42.1289 35.1787 42.0543 34.984 42.0543 34.744C42.0543 34.5093 42.1289 34.3227 42.2783 34.184C42.4276 34.0453 42.6303 33.976 42.8863 33.976C43.1423 33.976 43.3449 34.0453 43.4943 34.184C43.6436 34.3227 43.7183 34.5093 43.7183 34.744C43.7183 34.984 43.6436 35.1787 43.4943 35.328C43.3449 35.472 43.1423 35.544 42.8863 35.544ZM42.2623 45V37.336H43.5103V45H42.2623ZM57.8599 45V40.504C57.8599 39.7733 57.6839 39.2187 57.3319 38.84C56.9852 38.456 56.5159 38.264 55.9239 38.264C55.2305 38.264 54.6999 38.5333 54.3319 39.072C53.9639 39.6053 53.7799 40.344 53.7799 41.288H53.2039C53.2039 40.6 53.2705 39.9973 53.4039 39.48C53.5425 38.9627 53.7425 38.5333 54.0039 38.192C54.2652 37.8453 54.5825 37.5867 54.9559 37.416C55.3292 37.2453 55.7532 37.16 56.2279 37.16C56.8305 37.16 57.3452 37.296 57.7719 37.568C58.2039 37.8347 58.5345 38.2187 58.7639 38.72C58.9932 39.2213 59.1079 39.816 59.1079 40.504V45H57.8599ZM47.1079 45V37.352H48.1799L48.3239 38.888C48.5639 38.3333 48.8999 37.9067 49.3319 37.608C49.7692 37.3093 50.2919 37.16 50.8999 37.16C51.5025 37.16 52.0172 37.296 52.4439 37.568C52.8759 37.8347 53.2065 38.2187 53.4359 38.72C53.6652 39.2213 53.7799 39.816 53.7799 40.504V45H52.5479V40.504C52.5479 39.7733 52.3719 39.2187 52.0199 38.84C51.6732 38.456 51.1985 38.264 50.5959 38.264C50.1372 38.264 49.7399 38.3893 49.4039 38.64C49.0679 38.8907 48.8092 39.2507 48.6279 39.72C48.4465 40.184 48.3559 40.7387 48.3559 41.384V45H47.1079ZM62.9406 35.544C62.6846 35.544 62.482 35.472 62.3326 35.328C62.1833 35.1787 62.1086 34.984 62.1086 34.744C62.1086 34.5093 62.1833 34.3227 62.3326 34.184C62.482 34.0453 62.6846 33.976 62.9406 33.976C63.1966 33.976 63.3993 34.0453 63.5486 34.184C63.698 34.3227 63.7726 34.5093 63.7726 34.744C63.7726 34.984 63.698 35.1787 63.5486 35.328C63.3993 35.472 63.1966 35.544 62.9406 35.544ZM62.3166 45V37.336H63.5646V45H62.3166ZM67.1623 45V34.088H68.4103V45H67.1623ZM76.5426 45L76.3826 43.32V40.04C76.3826 39.352 76.236 38.8587 75.9426 38.56C75.6493 38.256 75.2093 38.104 74.6226 38.104C74.292 38.104 73.9906 38.152 73.7186 38.248C73.452 38.344 73.2386 38.4933 73.0786 38.696C72.924 38.8933 72.8466 39.1493 72.8466 39.464H71.4546C71.4546 38.9093 71.5906 38.464 71.8626 38.128C72.1346 37.7867 72.508 37.5413 72.9826 37.392C73.4626 37.2373 74.0093 37.16 74.6226 37.16C75.2093 37.16 75.7293 37.2587 76.1826 37.456C76.636 37.6533 76.9906 37.968 77.2466 38.4C77.5026 38.8267 77.6306 39.384 77.6306 40.072V45H76.5426ZM73.9346 45.192C73.3053 45.192 72.7853 45.08 72.3746 44.856C71.964 44.632 71.6573 44.3413 71.4546 43.984C71.252 43.6267 71.1506 43.2507 71.1506 42.856C71.1506 42.3387 71.2786 41.9173 71.5346 41.592C71.796 41.2667 72.1506 41.0293 72.5986 40.88C73.0466 40.7253 73.5506 40.648 74.1106 40.648C74.5106 40.648 74.9106 40.688 75.3106 40.768C75.716 40.848 76.1106 40.9573 76.4946 41.096V41.88C76.1746 41.752 75.812 41.6507 75.4066 41.576C75.0066 41.5013 74.6386 41.464 74.3026 41.464C73.7906 41.464 73.3586 41.5707 73.0066 41.784C72.6546 41.992 72.4786 42.3493 72.4786 42.856C72.4786 43.2293 72.612 43.5493 72.8786 43.816C73.1506 44.0827 73.5826 44.216 74.1746 44.216C74.5906 44.216 74.964 44.12 75.2946 43.928C75.6306 43.7307 75.8946 43.4853 76.0866 43.192C76.284 42.8987 76.3826 42.6053 76.3826 42.312H76.6866C76.6866 42.824 76.5746 43.2987 76.3506 43.736C76.132 44.1733 75.8173 44.5253 75.4066 44.792C74.996 45.0587 74.5053 45.192 73.9346 45.192ZM80.7791 45V37.336H82.0271V45H80.7791ZM81.6431 41.544C81.6431 40.5733 81.7365 39.768 81.9231 39.128C82.1098 38.4827 82.3818 38.0027 82.7391 37.688C83.1018 37.368 83.5418 37.208 84.0591 37.208C84.2298 37.208 84.3845 37.2213 84.5231 37.248C84.6671 37.2693 84.8111 37.304 84.9551 37.352L84.8751 38.584C84.7258 38.536 84.5631 38.496 84.3871 38.464C84.2111 38.4267 84.0538 38.408 83.9151 38.408C83.4618 38.408 83.0965 38.5387 82.8191 38.8C82.5418 39.056 82.3391 39.4187 82.2111 39.888C82.0885 40.3573 82.0271 40.9093 82.0271 41.544H81.6431ZM91.3813 35.544C91.1253 35.544 90.9226 35.472 90.7733 35.328C90.6239 35.1787 90.5493 34.984 90.5493 34.744C90.5493 34.5093 90.6239 34.3227 90.7733 34.184C90.9226 34.0453 91.1253 33.976 91.3813 33.976C91.6373 33.976 91.8399 34.0453 91.9893 34.184C92.1386 34.3227 92.2133 34.5093 92.2133 34.744C92.2133 34.984 92.1386 35.1787 91.9893 35.328C91.8399 35.472 91.6373 35.544 91.3813 35.544ZM90.7573 45V37.336H92.0053V45H90.7573ZM101.043 45V40.504C101.043 39.7733 100.867 39.2187 100.515 38.84C100.168 38.456 99.6935 38.264 99.0909 38.264C98.6322 38.264 98.2349 38.3893 97.8989 38.64C97.5629 38.8907 97.3042 39.2507 97.1229 39.72C96.9415 40.184 96.8509 40.7387 96.8509 41.384H96.3709C96.3709 40.4933 96.4882 39.7333 96.7229 39.104C96.9575 38.4747 97.2989 37.9947 97.7469 37.664C98.2002 37.328 98.7495 37.16 99.3949 37.16C99.9975 37.16 100.512 37.296 100.939 37.568C101.371 37.8347 101.702 38.2187 101.931 38.72C102.16 39.2213 102.275 39.816 102.275 40.504V45H101.043ZM95.6029 45V37.352H96.6749L96.8509 39.112V45H95.6029ZM111.728 45.192C111.312 45.192 110.939 45.112 110.608 44.952C110.277 44.792 110.016 44.552 109.824 44.232C109.632 43.912 109.536 43.512 109.536 43.032V35.224H110.768V43C110.768 43.7893 111.136 44.184 111.872 44.184C112.091 44.184 112.301 44.16 112.504 44.112C112.712 44.064 112.944 43.992 113.2 43.896L113.376 44.792C113.104 44.9093 112.832 45.0053 112.56 45.08C112.293 45.1547 112.016 45.192 111.728 45.192ZM108.304 38.216V37.352H113.184V38.216H108.304ZM120.992 45V40.504C120.992 39.7733 120.816 39.2187 120.464 38.84C120.117 38.456 119.642 38.264 119.04 38.264C118.581 38.264 118.184 38.3893 117.848 38.64C117.512 38.8907 117.253 39.2507 117.072 39.72C116.89 40.184 116.8 40.7387 116.8 41.384H116.32C116.32 40.4933 116.437 39.7333 116.672 39.104C116.906 38.4747 117.248 37.9947 117.696 37.664C118.149 37.328 118.698 37.16 119.344 37.16C119.946 37.16 120.461 37.296 120.888 37.568C121.32 37.8347 121.65 38.2187 121.88 38.72C122.109 39.2213 122.224 39.816 122.224 40.504V45H120.992ZM115.552 45V34.088H116.8V45H115.552ZM128.024 45.192C127.363 45.192 126.771 45.024 126.248 44.688C125.731 44.3467 125.32 43.8747 125.016 43.272C124.717 42.6693 124.568 41.976 124.568 41.192C124.568 40.3547 124.717 39.6347 125.016 39.032C125.315 38.4293 125.723 37.968 126.24 37.648C126.763 37.3227 127.357 37.16 128.024 37.16C128.605 37.16 129.101 37.2773 129.512 37.512C129.923 37.7467 130.253 38.064 130.504 38.464C130.755 38.864 130.928 39.3173 131.024 39.824C131.125 40.3253 131.155 40.8453 131.112 41.384H125.576V40.616H130.288L129.92 40.856C129.936 40.5413 129.917 40.2267 129.864 39.912C129.816 39.5973 129.723 39.3093 129.584 39.048C129.445 38.7813 129.251 38.568 129 38.408C128.749 38.248 128.429 38.168 128.04 38.168C127.549 38.168 127.139 38.2933 126.808 38.544C126.477 38.7947 126.229 39.1253 126.064 39.536C125.899 39.9413 125.816 40.3813 125.816 40.856V41.368C125.816 41.9013 125.896 42.3787 126.056 42.8C126.221 43.2213 126.467 43.5547 126.792 43.8C127.117 44.0453 127.528 44.168 128.024 44.168C128.52 44.168 128.928 44.048 129.248 43.808C129.568 43.568 129.763 43.2133 129.832 42.744H131.128C131.048 43.2507 130.867 43.688 130.584 44.056C130.301 44.4187 129.941 44.6987 129.504 44.896C129.067 45.0933 128.573 45.192 128.024 45.192ZM141.176 45.192C140.616 45.192 140.128 45.064 139.712 44.808C139.301 44.552 138.984 44.1787 138.76 43.688C138.536 43.192 138.424 42.5893 138.424 41.88H138.952C138.952 42.3547 139.05 42.7547 139.248 43.08C139.445 43.4053 139.701 43.6533 140.016 43.824C140.336 43.9893 140.674 44.072 141.032 44.072C141.416 44.072 141.784 43.9627 142.136 43.744C142.488 43.52 142.776 43.192 143 42.76C143.224 42.328 143.336 41.7947 143.336 41.16C143.336 40.552 143.232 40.032 143.024 39.6C142.821 39.168 142.546 38.8373 142.2 38.608C141.853 38.3787 141.469 38.264 141.048 38.264C140.685 38.264 140.344 38.352 140.024 38.528C139.704 38.704 139.445 38.9627 139.248 39.304C139.05 39.64 138.952 40.056 138.952 40.552H138.424C138.424 39.8107 138.546 39.1893 138.792 38.688C139.037 38.1813 139.37 37.8 139.792 37.544C140.213 37.288 140.685 37.16 141.208 37.16C141.805 37.16 142.362 37.32 142.88 37.64C143.397 37.96 143.816 38.4187 144.136 39.016C144.456 39.6133 144.616 40.328 144.616 41.16C144.616 42.0027 144.453 42.7253 144.128 43.328C143.808 43.9307 143.386 44.392 142.864 44.712C142.341 45.032 141.778 45.192 141.176 45.192ZM137.704 48.76V37.352H138.744L138.952 39.144V48.76H137.704ZM151.959 45L151.799 43.32V40.04C151.799 39.352 151.652 38.8587 151.359 38.56C151.066 38.256 150.626 38.104 150.039 38.104C149.708 38.104 149.407 38.152 149.135 38.248C148.868 38.344 148.655 38.4933 148.495 38.696C148.34 38.8933 148.263 39.1493 148.263 39.464H146.871C146.871 38.9093 147.007 38.464 147.279 38.128C147.551 37.7867 147.924 37.5413 148.399 37.392C148.879 37.2373 149.426 37.16 150.039 37.16C150.626 37.16 151.146 37.2587 151.599 37.456C152.052 37.6533 152.407 37.968 152.663 38.4C152.919 38.8267 153.047 39.384 153.047 40.072V45H151.959ZM149.351 45.192C148.722 45.192 148.202 45.08 147.791 44.856C147.38 44.632 147.074 44.3413 146.871 43.984C146.668 43.6267 146.567 43.2507 146.567 42.856C146.567 42.3387 146.695 41.9173 146.951 41.592C147.212 41.2667 147.567 41.0293 148.015 40.88C148.463 40.7253 148.967 40.648 149.527 40.648C149.927 40.648 150.327 40.688 150.727 40.768C151.132 40.848 151.527 40.9573 151.911 41.096V41.88C151.591 41.752 151.228 41.6507 150.823 41.576C150.423 41.5013 150.055 41.464 149.719 41.464C149.207 41.464 148.775 41.5707 148.423 41.784C148.071 41.992 147.895 42.3493 147.895 42.856C147.895 43.2293 148.028 43.5493 148.295 43.816C148.567 44.0827 148.999 44.216 149.591 44.216C150.007 44.216 150.38 44.12 150.711 43.928C151.047 43.7307 151.311 43.4853 151.503 43.192C151.7 42.8987 151.799 42.6053 151.799 42.312H152.103C152.103 42.824 151.991 43.2987 151.767 43.736C151.548 44.1733 151.234 44.5253 150.823 44.792C150.412 45.0587 149.922 45.192 149.351 45.192ZM158.899 48.936C158.115 48.936 157.435 48.824 156.859 48.6C156.283 48.3813 155.835 48.0853 155.515 47.712C155.201 47.344 155.043 46.936 155.043 46.488C155.043 45.896 155.259 45.4427 155.691 45.128C156.129 44.8187 156.691 44.664 157.379 44.664L158.067 45.096C157.491 45.096 157.046 45.216 156.731 45.456C156.417 45.696 156.259 46.024 156.259 46.44C156.259 46.856 156.483 47.208 156.931 47.496C157.379 47.784 158.035 47.928 158.899 47.928C159.539 47.928 160.099 47.8347 160.579 47.648C161.065 47.4667 161.441 47.2267 161.707 46.928C161.979 46.6347 162.115 46.3173 162.115 45.976C162.115 45.736 162.027 45.528 161.851 45.352C161.675 45.1813 161.406 45.096 161.043 45.096H158.067C157.55 45.096 157.102 45.0187 156.723 44.864C156.35 44.704 156.062 44.496 155.859 44.24C155.657 43.984 155.555 43.704 155.555 43.4C155.555 43.08 155.646 42.808 155.827 42.584C156.009 42.36 156.243 42.1893 156.531 42.072C156.825 41.9547 157.139 41.896 157.475 41.896L157.715 42.36C157.555 42.36 157.393 42.3973 157.227 42.472C157.067 42.5413 156.931 42.648 156.819 42.792C156.713 42.9307 156.659 43.1067 156.659 43.32C156.659 43.5653 156.761 43.7707 156.963 43.936C157.166 44.1013 157.534 44.184 158.067 44.184H161.043C161.763 44.184 162.329 44.336 162.739 44.64C163.155 44.944 163.363 45.368 163.363 45.912C163.363 46.4133 163.185 46.8933 162.827 47.352C162.47 47.816 161.958 48.1947 161.291 48.488C160.625 48.7867 159.827 48.936 158.899 48.936ZM159.123 42.76C158.537 42.76 158.006 42.6427 157.531 42.408C157.062 42.1733 156.689 41.8453 156.411 41.424C156.139 41.0027 156.003 40.5147 156.003 39.96C156.003 39.4 156.139 38.9093 156.411 38.488C156.689 38.0667 157.062 37.7413 157.531 37.512C158.006 37.2773 158.537 37.16 159.123 37.16C159.694 37.16 160.211 37.2773 160.675 37.512C161.145 37.7413 161.518 38.0667 161.795 38.488C162.073 38.9093 162.211 39.4 162.211 39.96C162.211 40.5147 162.073 41.0027 161.795 41.424C161.518 41.8453 161.145 42.1733 160.675 42.408C160.211 42.6427 159.694 42.76 159.123 42.76ZM159.123 41.864C159.71 41.864 160.166 41.6827 160.491 41.32C160.817 40.9573 160.979 40.504 160.979 39.96C160.979 39.4 160.817 38.9467 160.491 38.6C160.166 38.248 159.71 38.072 159.123 38.072C158.542 38.072 158.083 38.248 157.747 38.6C157.417 38.9467 157.251 39.4 157.251 39.96C157.251 40.504 157.417 40.9573 157.747 41.32C158.083 41.6827 158.542 41.864 159.123 41.864ZM161.635 38.376L161.043 38.136C161.043 37.688 161.131 37.296 161.307 36.96C161.483 36.6187 161.734 36.3547 162.059 36.168C162.385 35.976 162.771 35.88 163.219 35.88L163.123 37.112C162.643 37.112 162.275 37.216 162.019 37.424C161.763 37.6267 161.635 37.944 161.635 38.376ZM168.043 45.192C167.381 45.192 166.789 45.024 166.267 44.688C165.749 44.3467 165.339 43.8747 165.035 43.272C164.736 42.6693 164.587 41.976 164.587 41.192C164.587 40.3547 164.736 39.6347 165.035 39.032C165.333 38.4293 165.741 37.968 166.259 37.648C166.781 37.3227 167.376 37.16 168.043 37.16C168.624 37.16 169.12 37.2773 169.531 37.512C169.941 37.7467 170.272 38.064 170.523 38.464C170.773 38.864 170.947 39.3173 171.043 39.824C171.144 40.3253 171.173 40.8453 171.131 41.384H165.595V40.616H170.307L169.939 40.856C169.955 40.5413 169.936 40.2267 169.883 39.912C169.835 39.5973 169.741 39.3093 169.603 39.048C169.464 38.7813 169.269 38.568 169.019 38.408C168.768 38.248 168.448 38.168 168.059 38.168C167.568 38.168 167.157 38.2933 166.827 38.544C166.496 38.7947 166.248 39.1253 166.083 39.536C165.917 39.9413 165.835 40.3813 165.835 40.856V41.368C165.835 41.9013 165.915 42.3787 166.075 42.8C166.24 43.2213 166.485 43.5547 166.811 43.8C167.136 44.0453 167.547 44.168 168.043 44.168C168.539 44.168 168.947 44.048 169.267 43.808C169.587 43.568 169.781 43.2133 169.851 42.744H171.147C171.067 43.2507 170.885 43.688 170.603 44.056C170.32 44.4187 169.96 44.6987 169.523 44.896C169.085 45.0933 168.592 45.192 168.043 45.192ZM176.516 34.616H178.628L181.14 43.336H180.66L183.14 35.304H184.42L186.996 43.208H186.564L189.204 34.616H191.332L187.764 45H185.78L183.748 38.872H183.924L181.892 45H179.908L176.516 34.616ZM191.368 45L194.904 34.616H197.272L200.664 45H198.68L197.96 42.76H194.104L193.368 45H191.368ZM194.584 41.336H197.512L196.056 36.872L194.584 41.336ZM206.296 45.224C205.576 45.224 204.912 45.0987 204.304 44.848C203.701 44.5973 203.211 44.216 202.832 43.704C202.459 43.192 202.259 42.5413 202.232 41.752H204.088C204.088 42.152 204.187 42.48 204.384 42.736C204.581 42.992 204.845 43.184 205.176 43.312C205.512 43.4347 205.88 43.496 206.28 43.496C206.664 43.496 207.005 43.4453 207.304 43.344C207.608 43.2427 207.845 43.0987 208.016 42.912C208.192 42.72 208.28 42.4933 208.28 42.232C208.28 41.8853 208.173 41.6133 207.96 41.416C207.752 41.2187 207.416 41.0373 206.952 40.872L204.904 40.056C204.104 39.7413 203.491 39.376 203.064 38.96C202.637 38.544 202.424 37.9707 202.424 37.24C202.424 36.3973 202.757 35.7147 203.424 35.192C204.091 34.6693 205.021 34.408 206.216 34.408C207.379 34.408 208.277 34.68 208.912 35.224C209.547 35.7627 209.907 36.5147 209.992 37.48H208.136C208.067 37.0693 207.88 36.7413 207.576 36.496C207.272 36.2453 206.819 36.12 206.216 36.12C205.683 36.12 205.261 36.232 204.952 36.456C204.643 36.6747 204.488 36.952 204.488 37.288C204.488 37.576 204.584 37.8053 204.776 37.976C204.973 38.1413 205.277 38.3013 205.688 38.456L207.96 39.336C208.728 39.6347 209.317 40.0107 209.728 40.464C210.139 40.9173 210.344 41.4853 210.344 42.168C210.344 42.792 210.187 43.3333 209.872 43.792C209.557 44.2453 209.099 44.5973 208.496 44.848C207.893 45.0987 207.16 45.224 206.296 45.224ZM212.995 45V34.616H216.659C217.827 34.616 218.736 34.904 219.387 35.48C220.043 36.056 220.371 36.872 220.371 37.928C220.371 38.9733 220.043 39.784 219.387 40.36C218.736 40.936 217.827 41.224 216.659 41.224H214.899V45H212.995ZM214.899 39.576H216.659C217.246 39.576 217.688 39.4213 217.987 39.112C218.286 38.8027 218.435 38.408 218.435 37.928C218.435 37.4373 218.286 37.0347 217.987 36.72C217.688 36.4053 217.246 36.248 216.659 36.248H214.899V39.576ZM37.104 65.224C36.384 65.224 35.72 65.0987 35.112 64.848C34.5093 64.5973 34.0187 64.216 33.64 63.704C33.2667 63.192 33.0667 62.5413 33.04 61.752H34.896C34.896 62.152 34.9947 62.48 35.192 62.736C35.3893 62.992 35.6533 63.184 35.984 63.312C36.32 63.4347 36.688 63.496 37.088 63.496C37.472 63.496 37.8133 63.4453 38.112 63.344C38.416 63.2427 38.6533 63.0987 38.824 62.912C39 62.72 39.088 62.4933 39.088 62.232C39.088 61.8853 38.9813 61.6133 38.768 61.416C38.56 61.2187 38.224 61.0373 37.76 60.872L35.712 60.056C34.912 59.7413 34.2987 59.376 33.872 58.96C33.4453 58.544 33.232 57.9707 33.232 57.24C33.232 56.3973 33.5653 55.7147 34.232 55.192C34.8987 54.6693 35.8293 54.408 37.024 54.408C38.1867 54.408 39.0853 54.68 39.72 55.224C40.3547 55.7627 40.7147 56.5147 40.8 57.48H38.944C38.8747 57.0693 38.688 56.7413 38.384 56.496C38.08 56.2453 37.6267 56.12 37.024 56.12C36.4907 56.12 36.0693 56.232 35.76 56.456C35.4507 56.6747 35.296 56.952 35.296 57.288C35.296 57.576 35.392 57.8053 35.584 57.976C35.7813 58.1413 36.0853 58.3013 36.496 58.456L38.768 59.336C39.536 59.6347 40.1253 60.0107 40.536 60.464C40.9467 60.9173 41.152 61.4853 41.152 62.168C41.152 62.792 40.9947 63.3333 40.68 63.792C40.3653 64.2453 39.9067 64.5973 39.304 64.848C38.7013 65.0987 37.968 65.224 37.104 65.224ZM42.4591 56.248V54.616H50.7791V56.248H47.1391L47.5631 55.816V65H45.6751V55.816L46.0991 56.248H42.4591ZM52.5111 65V54.616H54.3991V65H52.5111ZM57.5141 54.616H59.5781L64.2981 62.024H64.1541V54.616H66.0421V65H64.1221L59.0981 57.144H59.4021V65H57.5141V54.616ZM72.9669 65.224C72.1189 65.224 71.3535 65 70.6709 64.552C69.9882 64.104 69.4442 63.48 69.0389 62.68C68.6389 61.8747 68.4389 60.936 68.4389 59.864C68.4389 59.016 68.5615 58.256 68.8069 57.584C69.0575 56.912 69.4042 56.3387 69.8469 55.864C70.2895 55.3893 70.8095 55.0293 71.4069 54.784C72.0042 54.5333 72.6522 54.408 73.3509 54.408C74.3215 54.408 75.1349 54.6187 75.7909 55.04C76.4522 55.4613 76.9669 56.1253 77.3349 57.032L75.3989 57.48C75.1269 57.0373 74.8122 56.7013 74.4549 56.472C74.1029 56.2373 73.7029 56.12 73.2549 56.12C72.7429 56.12 72.2762 56.272 71.8549 56.576C71.4335 56.8747 71.0975 57.304 70.8469 57.864C70.5962 58.424 70.4709 59.0907 70.4709 59.864C70.4709 60.5893 70.5802 61.224 70.7989 61.768C71.0229 62.312 71.3349 62.736 71.7349 63.04C72.1349 63.344 72.5989 63.496 73.1269 63.496C73.5749 63.496 73.9749 63.3973 74.3269 63.2C74.6842 62.9973 74.9642 62.7093 75.1669 62.336C75.3749 61.9627 75.4789 61.512 75.4789 60.984H75.8949C75.8949 61.848 75.7909 62.5973 75.5829 63.232C75.3802 63.8667 75.0629 64.3573 74.6309 64.704C74.1989 65.0507 73.6442 65.224 72.9669 65.224ZM75.7509 65L75.4789 62.712V60.92L73.1429 60.872V59.672H77.2869V65H75.7509Z" fill="#997452"/>
</g>
<defs>
<filter id="filter0_d_7041_5852" x="0.732642" y="0" width="237.035" height="87" filterUnits="userSpaceOnUse" color-interpolation-filters="sRGB">
<feFlood flood-opacity="0" result="BackgroundImageFix"/>
<feColorMatrix in="SourceAlpha" type="matrix" values="0 0 0 0 0 0 0 0 0 0 0 0 0 0 0 0 0 0 127 0" result="hardAlpha"/>
<feOffset dy="4"/>
<feGaussianBlur stdDeviation="3"/>
<feComposite in2="hardAlpha" operator="out"/>
<feColorMatrix type="matrix" values="0 0 0 0 0 0 0 0 0 0 0 0 0 0 0 0 0 0 0.1 0"/>
<feBlend mode="normal" in2="BackgroundImageFix" result="effect1_dropShadow_7041_5852"/>
<feBlend mode="normal" in="SourceGraphic" in2="effect1_dropShadow_7041_5852" result="shape"/>
</filter>
<filter id="filter1_d_7041_5852" x="26.976" y="11.9756" width="199.395" height="63.248" filterUnits="userSpaceOnUse" color-interpolation-filters="sRGB">
<feFlood flood-opacity="0" result="BackgroundImageFix"/>
<feColorMatrix in="SourceAlpha" type="matrix" values="0 0 0 0 0 0 0 0 0 0 0 0 0 0 0 0 0 0 127 0" result="hardAlpha"/>
<feOffset dy="4"/>
<feGaussianBlur stdDeviation="3"/>
<feComposite in2="hardAlpha" operator="out"/>
<feColorMatrix type="matrix" values="0 0 0 0 0 0 0 0 0 0 0 0 0 0 0 0 0 0 0.05 0"/>
<feBlend mode="normal" in2="BackgroundImageFix" result="effect1_dropShadow_7041_5852"/>
<feBlend mode="normal" in="SourceGraphic" in2="effect1_dropShadow_7041_5852" result="shape"/>
</filter>
</defs>
</svg>
