<svg width="256" height="68" viewBox="0 0 256 68" fill="none" xmlns="http://www.w3.org/2000/svg">
<mask id="path-1-inside-1_7041_5857" fill="white">
<path d="M248.724 27.3669L239 19L239 11C239 6.02944 234.971 2 230 2L9 1.99998C4.02944 1.99998 4.54341e-06 6.02942 4.10887e-06 11L7.86805e-07 49C3.52265e-07 53.9705 4.02943 58 9 58L230 58C234.971 58 239 53.9706 239 49L239 39.5L248.612 32.0069C250.106 30.8425 250.16 28.6022 248.724 27.3669Z"/>
</mask>
<path d="M248.724 27.3669L239 19L239 11C239 6.02944 234.971 2 230 2L9 1.99998C4.02944 1.99998 4.54341e-06 6.02942 4.10887e-06 11L7.86805e-07 49C3.52265e-07 53.9705 4.02943 58 9 58L230 58C234.971 58 239 53.9706 239 49L239 39.5L248.612 32.0069C250.106 30.8425 250.16 28.6022 248.724 27.3669Z" fill="white"/>
<path d="M239 19L237.6 19L237.6 19.6423L238.087 20.0612L239 19ZM248.724 27.3669L249.637 26.3056L249.637 26.3056L248.724 27.3669ZM248.612 32.0069L247.751 30.9028L247.751 30.9028L248.612 32.0069ZM239 39.5L238.139 38.3959L237.6 38.8162L237.6 39.5L239 39.5ZM238.087 20.0612L247.811 28.4281L249.637 26.3056L239.913 17.9388L238.087 20.0612ZM247.751 30.9028L238.139 38.3959L239.861 40.6041L249.473 33.1111L247.751 30.9028ZM247.811 28.4281C248.577 29.0869 248.548 30.2817 247.751 30.9028L249.473 33.1111C251.663 31.4032 251.743 28.1175 249.637 26.3056L247.811 28.4281ZM230 56.6L9 56.6L9 59.4L230 59.4L230 56.6ZM1.39999 49L1.4 11L-1.39999 11L-1.39999 49L1.39999 49ZM9 3.39998L230 3.4L230 0.599997L9.00001 0.599977L9 3.39998ZM237.6 39.5L237.6 49L240.4 49L240.4 39.5L237.6 39.5ZM237.6 11L237.6 19L240.4 19L240.4 11L237.6 11ZM230 3.4C234.197 3.4 237.6 6.80263 237.6 11L240.4 11C240.4 5.25624 235.744 0.599997 230 0.599997L230 3.4ZM1.4 11C1.4 6.80261 4.80263 3.39998 9 3.39998L9.00001 0.599977C3.25625 0.599977 -1.39999 5.25622 -1.39999 11L1.4 11ZM9 56.6C4.80263 56.6 1.39999 53.1973 1.39999 49L-1.39999 49C-1.39999 54.7437 3.25624 59.4 9 59.4L9 56.6ZM230 59.4C235.744 59.4 240.4 54.7438 240.4 49L237.6 49C237.6 53.1974 234.197 56.6 230 56.6L230 59.4Z" fill="white" mask="url(#path-1-inside-1_7041_5857)"/>
<g filter="url(#filter0_d_7041_5857)">
<mask id="path-3-inside-2_7041_5857" fill="white">
<path d="M248.724 27.3669L239 19L239 11C239 6.02944 234.971 2 230 2L159 1.99999C154.029 1.99999 150 6.02943 150 11L150 49C150 53.9705 154.029 58 159 58L230 58C234.971 58 239 53.9706 239 49L239 39.5L248.612 32.0069C250.106 30.8425 250.16 28.6022 248.724 27.3669Z"/>
</mask>
<path d="M248.724 27.3669L239 19L239 11C239 6.02944 234.971 2 230 2L159 1.99999C154.029 1.99999 150 6.02943 150 11L150 49C150 53.9705 154.029 58 159 58L230 58C234.971 58 239 53.9706 239 49L239 39.5L248.612 32.0069C250.106 30.8425 250.16 28.6022 248.724 27.3669Z" fill="white"/>
<path d="M239 19L237.6 19L237.6 19.6423L238.087 20.0612L239 19ZM248.724 27.3669L249.637 26.3056L249.637 26.3056L248.724 27.3669ZM248.612 32.0069L247.751 30.9028L247.751 30.9028L248.612 32.0069ZM239 39.5L238.139 38.3959L237.6 38.8162L237.6 39.5L239 39.5ZM230 58L230 59.4L230 58ZM159 58L159 56.6L159 58ZM238.087 20.0612L247.811 28.4281L249.637 26.3056L239.913 17.9388L238.087 20.0612ZM247.751 30.9028L238.139 38.3959L239.861 40.6041L249.473 33.1111L247.751 30.9028ZM247.811 28.4281C248.577 29.0869 248.548 30.2817 247.751 30.9028L249.473 33.1111C251.663 31.4032 251.743 28.1175 249.637 26.3056L247.811 28.4281ZM230 56.6L159 56.6L159 59.4L230 59.4L230 56.6ZM151.4 49L151.4 11L148.6 11L148.6 49L151.4 49ZM159 3.39999L230 3.4L230 0.599997L159 0.599991L159 3.39999ZM237.6 39.5L237.6 49L240.4 49L240.4 39.5L237.6 39.5ZM237.6 11L237.6 19L240.4 19L240.4 11L237.6 11ZM230 3.4C234.197 3.4 237.6 6.80263 237.6 11L240.4 11C240.4 5.25624 235.744 0.599997 230 0.599997L230 3.4ZM151.4 11C151.4 6.80263 154.803 3.39999 159 3.39999L159 0.599991C153.256 0.59999 148.6 5.25623 148.6 11L151.4 11ZM159 56.6C154.803 56.6 151.4 53.1973 151.4 49L148.6 49C148.6 54.7437 153.256 59.4 159 59.4L159 56.6ZM230 59.4C235.744 59.4 240.4 54.7438 240.4 49L237.6 49C237.6 53.1974 234.197 56.6 230 56.6L230 59.4Z" fill="#333333" mask="url(#path-3-inside-2_7041_5857)"/>
</g>
<g filter="url(#filter1_d_7041_5857)">
<path d="M204.988 25.692C204.188 25.692 203.46 25.484 202.804 25.068C202.148 24.652 201.626 24.0627 201.236 23.3C200.847 22.5373 200.652 21.6333 200.652 20.588C200.652 19.7187 200.778 18.9533 201.028 18.292C201.279 17.6307 201.623 17.076 202.06 16.628C202.498 16.18 202.999 15.844 203.564 15.62C204.135 15.3907 204.738 15.276 205.372 15.276C206.156 15.276 206.844 15.4387 207.436 15.764C208.028 16.084 208.535 16.5933 208.956 17.292L207.772 17.708C207.415 17.2653 207.031 16.94 206.62 16.732C206.215 16.5187 205.783 16.412 205.324 16.412C204.722 16.412 204.167 16.58 203.66 16.916C203.154 17.252 202.746 17.732 202.436 18.356C202.132 18.98 201.98 19.724 201.98 20.588C201.98 21.356 202.106 22.0387 202.356 22.636C202.607 23.228 202.962 23.6947 203.42 24.036C203.884 24.372 204.434 24.54 205.068 24.54C205.554 24.54 205.988 24.428 206.372 24.204C206.762 23.98 207.068 23.644 207.292 23.196C207.516 22.7427 207.628 22.172 207.628 21.484H208.012C208.012 22.3373 207.911 23.0787 207.708 23.708C207.506 24.3373 207.18 24.8253 206.732 25.172C206.29 25.5187 205.708 25.692 204.988 25.692ZM207.852 25.5L207.628 23.132V21.452L205.1 21.372V20.524H208.844V25.5H207.852ZM214.677 25.692C213.989 25.692 213.376 25.54 212.837 25.236C212.304 24.932 211.882 24.4813 211.573 23.884C211.264 23.2867 211.109 22.5507 211.109 21.676C211.109 20.796 211.264 20.06 211.573 19.468C211.882 18.8707 212.304 18.42 212.837 18.116C213.376 17.812 213.989 17.66 214.677 17.66C215.36 17.66 215.968 17.812 216.501 18.116C217.04 18.42 217.461 18.8707 217.765 19.468C218.074 20.06 218.229 20.796 218.229 21.676C218.229 22.5507 218.074 23.2867 217.765 23.884C217.461 24.4813 217.04 24.932 216.501 25.236C215.968 25.54 215.36 25.692 214.677 25.692ZM214.645 24.604C215.141 24.604 215.562 24.4867 215.909 24.252C216.256 24.012 216.517 23.6733 216.693 23.236C216.874 22.7987 216.965 22.2787 216.965 21.676C216.965 20.764 216.776 20.0467 216.397 19.524C216.018 18.996 215.456 18.732 214.709 18.732C214.208 18.732 213.784 18.852 213.437 19.092C213.096 19.3267 212.834 19.6653 212.653 20.108C212.477 20.5453 212.389 21.068 212.389 21.676C212.389 22.5773 212.578 23.292 212.957 23.82C213.341 24.3427 213.904 24.604 214.645 24.604ZM183.84 45.692C183.424 45.692 183.051 45.612 182.72 45.452C182.389 45.292 182.128 45.052 181.936 44.732C181.744 44.412 181.648 44.012 181.648 43.532V35.724H182.88V43.5C182.88 44.2893 183.248 44.684 183.984 44.684C184.203 44.684 184.413 44.66 184.616 44.612C184.824 44.564 185.056 44.492 185.312 44.396L185.488 45.292C185.216 45.4093 184.944 45.5053 184.672 45.58C184.405 45.6547 184.128 45.692 183.84 45.692ZM180.416 38.716V37.852H185.296V38.716H180.416ZM193.104 45.5V41.004C193.104 40.2733 192.928 39.7187 192.576 39.34C192.229 38.956 191.754 38.764 191.152 38.764C190.693 38.764 190.296 38.8893 189.96 39.14C189.624 39.3907 189.365 39.7507 189.184 40.22C189.002 40.684 188.912 41.2387 188.912 41.884H188.432C188.432 40.9933 188.549 40.2333 188.784 39.604C189.018 38.9747 189.36 38.4947 189.808 38.164C190.261 37.828 190.81 37.66 191.456 37.66C192.058 37.66 192.573 37.796 193 38.068C193.432 38.3347 193.762 38.7187 193.992 39.22C194.221 39.7213 194.336 40.316 194.336 41.004V45.5H193.104ZM187.664 45.5V34.588H188.912V45.5H187.664ZM200.136 45.692C199.474 45.692 198.882 45.524 198.36 45.188C197.842 44.8467 197.432 44.3747 197.128 43.772C196.829 43.1693 196.68 42.476 196.68 41.692C196.68 40.8547 196.829 40.1347 197.128 39.532C197.426 38.9293 197.834 38.468 198.352 38.148C198.874 37.8227 199.469 37.66 200.136 37.66C200.717 37.66 201.213 37.7773 201.624 38.012C202.034 38.2467 202.365 38.564 202.616 38.964C202.866 39.364 203.04 39.8173 203.136 40.324C203.237 40.8253 203.266 41.3453 203.224 41.884H197.688V41.116H202.4L202.032 41.356C202.048 41.0413 202.029 40.7267 201.976 40.412C201.928 40.0973 201.834 39.8093 201.696 39.548C201.557 39.2813 201.362 39.068 201.112 38.908C200.861 38.748 200.541 38.668 200.152 38.668C199.661 38.668 199.25 38.7933 198.92 39.044C198.589 39.2947 198.341 39.6253 198.176 40.036C198.01 40.4413 197.928 40.8813 197.928 41.356V41.868C197.928 42.4013 198.008 42.8787 198.168 43.3C198.333 43.7213 198.578 44.0547 198.904 44.3C199.229 44.5453 199.64 44.668 200.136 44.668C200.632 44.668 201.04 44.548 201.36 44.308C201.68 44.068 201.874 43.7133 201.944 43.244H203.24C203.16 43.7507 202.978 44.188 202.696 44.556C202.413 44.9187 202.053 45.1987 201.616 45.396C201.178 45.5933 200.685 45.692 200.136 45.692ZM205.859 45.5V37.836H207.107V45.5H205.859ZM206.723 42.044C206.723 41.0733 206.816 40.268 207.003 39.628C207.189 38.9827 207.461 38.5027 207.819 38.188C208.181 37.868 208.621 37.708 209.139 37.708C209.309 37.708 209.464 37.7213 209.603 37.748C209.747 37.7693 209.891 37.804 210.035 37.852L209.955 39.084C209.805 39.036 209.643 38.996 209.467 38.964C209.291 38.9267 209.133 38.908 208.995 38.908C208.541 38.908 208.176 39.0387 207.899 39.3C207.621 39.556 207.419 39.9187 207.291 40.388C207.168 40.8573 207.107 41.4093 207.107 42.044H206.723ZM214.456 45.692C213.794 45.692 213.202 45.524 212.68 45.188C212.162 44.8467 211.752 44.3747 211.448 43.772C211.149 43.1693 211 42.476 211 41.692C211 40.8547 211.149 40.1347 211.448 39.532C211.746 38.9293 212.154 38.468 212.672 38.148C213.194 37.8227 213.789 37.66 214.456 37.66C215.037 37.66 215.533 37.7773 215.944 38.012C216.354 38.2467 216.685 38.564 216.936 38.964C217.186 39.364 217.36 39.8173 217.456 40.324C217.557 40.8253 217.586 41.3453 217.544 41.884H212.008V41.116H216.72L216.352 41.356C216.368 41.0413 216.349 40.7267 216.296 40.412C216.248 40.0973 216.154 39.8093 216.016 39.548C215.877 39.2813 215.682 39.068 215.432 38.908C215.181 38.748 214.861 38.668 214.472 38.668C213.981 38.668 213.57 38.7933 213.24 39.044C212.909 39.2947 212.661 39.6253 212.496 40.036C212.33 40.4413 212.248 40.8813 212.248 41.356V41.868C212.248 42.4013 212.328 42.8787 212.488 43.3C212.653 43.7213 212.898 44.0547 213.224 44.3C213.549 44.5453 213.96 44.668 214.456 44.668C214.952 44.668 215.36 44.548 215.68 44.308C216 44.068 216.194 43.7133 216.264 43.244H217.56C217.48 43.7507 217.298 44.188 217.016 44.556C216.733 44.9187 216.373 45.1987 215.936 45.396C215.498 45.5933 215.005 45.692 214.456 45.692ZM220.307 42.684L220.147 35.484H221.475L221.315 42.684H220.307ZM220.811 45.644C220.539 45.644 220.315 45.5587 220.139 45.388C219.963 45.2173 219.875 45.004 219.875 44.748C219.875 44.4973 219.963 44.284 220.139 44.108C220.315 43.9267 220.539 43.836 220.811 43.836C221.077 43.836 221.301 43.9267 221.483 44.108C221.669 44.284 221.763 44.4973 221.763 44.748C221.763 45.004 221.669 45.2173 221.483 45.388C221.301 45.5587 221.077 45.644 220.811 45.644Z" fill="#333333"/>
</g>
<defs>
<filter id="filter0_d_7041_5857" x="144" y="0" width="111.767" height="68" filterUnits="userSpaceOnUse" color-interpolation-filters="sRGB">
<feFlood flood-opacity="0" result="BackgroundImageFix"/>
<feColorMatrix in="SourceAlpha" type="matrix" values="0 0 0 0 0 0 0 0 0 0 0 0 0 0 0 0 0 0 127 0" result="hardAlpha"/>
<feOffset dy="4"/>
<feGaussianBlur stdDeviation="3"/>
<feComposite in2="hardAlpha" operator="out"/>
<feColorMatrix type="matrix" values="0 0 0 0 0 0 0 0 0 0 0 0 0 0 0 0 0 0 0.1 0"/>
<feBlend mode="normal" in2="BackgroundImageFix" result="effect1_dropShadow_7041_5857"/>
<feBlend mode="normal" in="SourceGraphic" in2="effect1_dropShadow_7041_5857" result="shape"/>
</filter>
<filter id="filter1_d_7041_5857" x="174.416" y="13.2764" width="53.3466" height="42.416" filterUnits="userSpaceOnUse" color-interpolation-filters="sRGB">
<feFlood flood-opacity="0" result="BackgroundImageFix"/>
<feColorMatrix in="SourceAlpha" type="matrix" values="0 0 0 0 0 0 0 0 0 0 0 0 0 0 0 0 0 0 127 0" result="hardAlpha"/>
<feOffset dy="4"/>
<feGaussianBlur stdDeviation="3"/>
<feComposite in2="hardAlpha" operator="out"/>
<feColorMatrix type="matrix" values="0 0 0 0 0 0 0 0 0 0 0 0 0 0 0 0 0 0 0.05 0"/>
<feBlend mode="normal" in2="BackgroundImageFix" result="effect1_dropShadow_7041_5857"/>
<feBlend mode="normal" in="SourceGraphic" in2="effect1_dropShadow_7041_5857" result="shape"/>
</filter>
</defs>
</svg>
