<svg width="257" height="68" viewBox="0 0 257 68" fill="none" xmlns="http://www.w3.org/2000/svg">
<path d="M7.04333 32.6331L16.7674 41V49C16.7674 53.9706 20.7968 58 25.7674 58L247.035 58C252.005 58 256.035 53.9706 256.035 49V11C256.035 6.02944 252.005 2 247.035 2L25.7674 2C20.7968 2 16.7674 6.02944 16.7674 11V20.5L7.15555 27.9931C5.66179 29.1575 5.60761 31.3978 7.04333 32.6331Z" fill="white"/>
<g filter="url(#filter0_d_7054_5732)">
<mask id="path-2-inside-1_7054_5732" fill="white">
<path d="M7.04333 32.6331L16.7674 41V49C16.7674 53.9706 20.7968 58 25.7674 58L227.035 58C232.005 58 236.035 53.9706 236.035 49V11C236.035 6.02944 232.005 2 227.035 2L25.7674 2C20.7968 2 16.7674 6.02944 16.7674 11V20.5L7.15555 27.9931C5.66179 29.1575 5.60761 31.3978 7.04333 32.6331Z"/>
</mask>
<path d="M7.04333 32.6331L16.7674 41V49C16.7674 53.9706 20.7968 58 25.7674 58L227.035 58C232.005 58 236.035 53.9706 236.035 49V11C236.035 6.02944 232.005 2 227.035 2L25.7674 2C20.7968 2 16.7674 6.02944 16.7674 11V20.5L7.15555 27.9931C5.66179 29.1575 5.60761 31.3978 7.04333 32.6331Z" fill="white"/>
<path d="M16.7674 41H18.1674V40.3577L17.6805 39.9388L16.7674 41ZM7.04333 32.6331L6.13021 33.6944L6.13021 33.6944L7.04333 32.6331ZM7.15555 27.9931L8.0163 29.0972L8.0163 29.0972L7.15555 27.9931ZM16.7674 20.5L17.6281 21.6041L18.1674 21.1838V20.5H16.7674ZM25.7674 2V0.6V2ZM227.035 2V3.4V2ZM17.6805 39.9388L7.95644 31.5719L6.13021 33.6944L15.8542 42.0612L17.6805 39.9388ZM8.0163 29.0972L17.6281 21.6041L15.9066 19.3959L6.2948 26.8889L8.0163 29.0972ZM7.95644 31.5719C7.19073 30.9131 7.21963 29.7183 8.0163 29.0972L6.2948 26.8889C4.10396 28.5968 4.02449 31.8825 6.13021 33.6944L7.95644 31.5719ZM25.7674 3.4L227.035 3.4L227.035 0.600003L25.7674 0.6L25.7674 3.4ZM234.635 11V49H237.435V11H234.635ZM227.035 56.6L25.7674 56.6V59.4L227.035 59.4V56.6ZM18.1674 20.5V11H15.3674V20.5H18.1674ZM18.1674 49V41H15.3674V49H18.1674ZM25.7674 56.6C21.57 56.6 18.1674 53.1974 18.1674 49H15.3674C15.3674 54.7438 20.0236 59.4 25.7674 59.4V56.6ZM234.635 49C234.635 53.1974 231.232 56.6 227.035 56.6V59.4C232.778 59.4 237.435 54.7438 237.435 49H234.635ZM227.035 3.4C231.232 3.4 234.635 6.80264 234.635 11H237.435C237.435 5.25624 232.778 0.600003 227.035 0.600003V3.4ZM25.7674 0.6C20.0236 0.6 15.3674 5.25624 15.3674 11H18.1674C18.1674 6.80264 21.57 3.4 25.7674 3.4V0.6Z" fill="#333333" mask="url(#path-2-inside-1_7054_5732)"/>
</g>
<g filter="url(#filter1_d_7054_5732)">
<path d="M31.224 14.952H32.632L35.24 23.896H34.872L37.544 15.992H38.392L41.032 23.832H40.68L43.672 14.952H45.064L41.512 25H40.2L37.88 18.184H38.12L35.72 25H34.408L31.224 14.952ZM49.3253 25.192C48.6373 25.192 48.0239 25.04 47.4852 24.736C46.9519 24.432 46.5306 23.9813 46.2212 23.384C45.9119 22.7867 45.7572 22.0507 45.7572 21.176C45.7572 20.296 45.9119 19.56 46.2212 18.968C46.5306 18.3707 46.9519 17.92 47.4852 17.616C48.0239 17.312 48.6373 17.16 49.3253 17.16C50.0079 17.16 50.6159 17.312 51.1493 17.616C51.6879 17.92 52.1093 18.3707 52.4132 18.968C52.7226 19.56 52.8773 20.296 52.8773 21.176C52.8773 22.0507 52.7226 22.7867 52.4132 23.384C52.1093 23.9813 51.6879 24.432 51.1493 24.736C50.6159 25.04 50.0079 25.192 49.3253 25.192ZM49.2933 24.104C49.7893 24.104 50.2106 23.9867 50.5573 23.752C50.9039 23.512 51.1652 23.1733 51.3412 22.736C51.5226 22.2987 51.6133 21.7787 51.6133 21.176C51.6133 20.264 51.4239 19.5467 51.0452 19.024C50.6666 18.496 50.1039 18.232 49.3573 18.232C48.8559 18.232 48.4319 18.352 48.0852 18.592C47.7439 18.8267 47.4826 19.1653 47.3012 19.608C47.1253 20.0453 47.0373 20.568 47.0373 21.176C47.0373 22.0773 47.2266 22.792 47.6052 23.32C47.9893 23.8427 48.5519 24.104 49.2933 24.104ZM60.6673 17.336H61.9152V25H60.6673V17.336ZM55.2432 17.336H56.4912V22.104C56.4912 22.744 56.6459 23.2293 56.9552 23.56C57.2699 23.8907 57.7179 24.056 58.2993 24.056C58.7792 24.056 59.1952 23.928 59.5472 23.672C59.9046 23.416 60.1793 23.064 60.3713 22.616C60.5686 22.1627 60.6673 21.6453 60.6673 21.064H61.1312C61.1312 21.9227 61.0059 22.656 60.7552 23.264C60.5099 23.872 60.1606 24.3387 59.7073 24.664C59.2592 24.984 58.7312 25.144 58.1233 25.144C57.5472 25.144 57.0432 25.0373 56.6112 24.824C56.1792 24.6107 55.8432 24.288 55.6032 23.856C55.3632 23.4187 55.2432 22.8667 55.2432 22.2V17.336ZM65.3147 25V14.088H66.5627V25H65.3147ZM72.6951 25.192C72.0765 25.192 71.5085 25.0267 70.9911 24.696C70.4738 24.36 70.0605 23.8907 69.7511 23.288C69.4418 22.68 69.2871 21.9653 69.2871 21.144C69.2871 20.328 69.4391 19.6213 69.7431 19.024C70.0471 18.4267 70.4498 17.968 70.9511 17.648C71.4578 17.3227 72.0125 17.16 72.6151 17.16C73.1751 17.16 73.6658 17.296 74.0871 17.568C74.5138 17.84 74.8445 18.232 75.0791 18.744C75.3138 19.256 75.4311 19.8747 75.4311 20.6H74.9511C74.9511 20.0933 74.8498 19.6667 74.6471 19.32C74.4498 18.9733 74.1911 18.712 73.8711 18.536C73.5511 18.3547 73.2071 18.264 72.8391 18.264C72.4231 18.264 72.0418 18.3813 71.6951 18.616C71.3538 18.8453 71.0791 19.176 70.8711 19.608C70.6685 20.0347 70.5671 20.5467 70.5671 21.144C70.5671 21.752 70.6685 22.2747 70.8711 22.712C71.0791 23.1493 71.3538 23.4853 71.6951 23.72C72.0418 23.9547 72.4231 24.072 72.8391 24.072C73.1858 24.072 73.5191 23.9813 73.8391 23.8C74.1645 23.6187 74.4311 23.3547 74.6391 23.008C74.8471 22.656 74.9511 22.232 74.9511 21.736H75.4311C75.4311 22.4773 75.3085 23.1067 75.0631 23.624C74.8231 24.136 74.4951 24.5253 74.0791 24.792C73.6685 25.0587 73.2071 25.192 72.6951 25.192ZM75.1591 25L74.9511 23.208V14.088H76.1991V25H75.1591ZM82.2964 17.352H83.6884L86.1844 23.912H85.8964L87.8324 17.352H89.1124L86.2324 26.536C85.9924 27.304 85.6724 27.896 85.2724 28.312C84.8724 28.728 84.3604 28.936 83.7364 28.936C83.4004 28.936 83.0804 28.888 82.7764 28.792C82.4777 28.696 82.1684 28.5573 81.8484 28.376V27.224C82.131 27.448 82.403 27.608 82.6644 27.704C82.931 27.8 83.2084 27.848 83.4964 27.848C83.8164 27.848 84.083 27.7467 84.2964 27.544C84.515 27.3413 84.6964 27.08 84.8404 26.76C84.9844 26.4453 85.107 26.1147 85.2084 25.768L85.4324 25L82.2964 17.352ZM93.9415 25.192C93.2535 25.192 92.6402 25.04 92.1015 24.736C91.5682 24.432 91.1468 23.9813 90.8375 23.384C90.5282 22.7867 90.3735 22.0507 90.3735 21.176C90.3735 20.296 90.5282 19.56 90.8375 18.968C91.1468 18.3707 91.5682 17.92 92.1015 17.616C92.6402 17.312 93.2535 17.16 93.9415 17.16C94.6242 17.16 95.2322 17.312 95.7655 17.616C96.3042 17.92 96.7255 18.3707 97.0295 18.968C97.3388 19.56 97.4935 20.296 97.4935 21.176C97.4935 22.0507 97.3388 22.7867 97.0295 23.384C96.7255 23.9813 96.3042 24.432 95.7655 24.736C95.2322 25.04 94.6242 25.192 93.9415 25.192ZM93.9095 24.104C94.4055 24.104 94.8268 23.9867 95.1735 23.752C95.5202 23.512 95.7815 23.1733 95.9575 22.736C96.1388 22.2987 96.2295 21.7787 96.2295 21.176C96.2295 20.264 96.0402 19.5467 95.6615 19.024C95.2828 18.496 94.7202 18.232 93.9735 18.232C93.4722 18.232 93.0482 18.352 92.7015 18.592C92.3602 18.8267 92.0988 19.1653 91.9175 19.608C91.7415 20.0453 91.6535 20.568 91.6535 21.176C91.6535 22.0773 91.8428 22.792 92.2215 23.32C92.6055 23.8427 93.1682 24.104 93.9095 24.104ZM105.283 17.336H106.531V25H105.283V17.336ZM99.8595 17.336H101.107V22.104C101.107 22.744 101.262 23.2293 101.571 23.56C101.886 23.8907 102.334 24.056 102.915 24.056C103.395 24.056 103.811 23.928 104.163 23.672C104.521 23.416 104.795 23.064 104.987 22.616C105.185 22.1627 105.283 21.6453 105.283 21.064H105.747C105.747 21.9227 105.622 22.656 105.371 23.264C105.126 23.872 104.777 24.3387 104.323 24.664C103.875 24.984 103.347 25.144 102.739 25.144C102.163 25.144 101.659 25.0373 101.227 24.824C100.795 24.6107 100.459 24.288 100.219 23.856C99.9795 23.4187 99.8595 22.8667 99.8595 22.2V17.336ZM113.888 25V14.088H115.136V25H113.888ZM119.236 15.544C118.98 15.544 118.778 15.472 118.628 15.328C118.479 15.1787 118.404 14.984 118.404 14.744C118.404 14.5093 118.479 14.3227 118.628 14.184C118.778 14.0453 118.98 13.976 119.236 13.976C119.492 13.976 119.695 14.0453 119.844 14.184C119.994 14.3227 120.068 14.5093 120.068 14.744C120.068 14.984 119.994 15.1787 119.844 15.328C119.695 15.472 119.492 15.544 119.236 15.544ZM118.612 25V17.336H119.86V25H118.612ZM123.458 25V14.088H124.706V25H123.458ZM124.514 20.616L128.418 17.352H130.162L124.514 21.944V20.616ZM128.802 25L125.17 20.168L126.434 19.944L130.338 25H128.802ZM135.29 25.192C134.628 25.192 134.036 25.024 133.514 24.688C132.996 24.3467 132.586 23.8747 132.282 23.272C131.983 22.6693 131.834 21.976 131.834 21.192C131.834 20.3547 131.983 19.6347 132.282 19.032C132.58 18.4293 132.988 17.968 133.506 17.648C134.028 17.3227 134.623 17.16 135.29 17.16C135.871 17.16 136.367 17.2773 136.778 17.512C137.188 17.7467 137.519 18.064 137.77 18.464C138.02 18.864 138.194 19.3173 138.29 19.824C138.391 20.3253 138.42 20.8453 138.378 21.384H132.842V20.616H137.554L137.186 20.856C137.202 20.5413 137.183 20.2267 137.13 19.912C137.082 19.5973 136.988 19.3093 136.85 19.048C136.711 18.7813 136.516 18.568 136.266 18.408C136.015 18.248 135.695 18.168 135.306 18.168C134.815 18.168 134.404 18.2933 134.074 18.544C133.743 18.7947 133.495 19.1253 133.33 19.536C133.164 19.9413 133.082 20.3813 133.082 20.856V21.368C133.082 21.9013 133.162 22.3787 133.322 22.8C133.487 23.2213 133.732 23.5547 134.058 23.8C134.383 24.0453 134.794 24.168 135.29 24.168C135.786 24.168 136.194 24.048 136.514 23.808C136.834 23.568 137.028 23.2133 137.098 22.744H138.394C138.314 23.2507 138.132 23.688 137.85 24.056C137.567 24.4187 137.207 24.6987 136.77 24.896C136.332 25.0933 135.839 25.192 135.29 25.192ZM147.321 25.192C146.905 25.192 146.532 25.112 146.201 24.952C145.87 24.792 145.609 24.552 145.417 24.232C145.225 23.912 145.129 23.512 145.129 23.032V15.224H146.361V23C146.361 23.7893 146.729 24.184 147.465 24.184C147.684 24.184 147.894 24.16 148.097 24.112C148.305 24.064 148.537 23.992 148.793 23.896L148.969 24.792C148.697 24.9093 148.425 25.0053 148.153 25.08C147.886 25.1547 147.609 25.192 147.321 25.192ZM143.897 18.216V17.352H148.777V18.216H143.897ZM153.913 25.192C153.225 25.192 152.611 25.04 152.073 24.736C151.539 24.432 151.118 23.9813 150.809 23.384C150.499 22.7867 150.345 22.0507 150.345 21.176C150.345 20.296 150.499 19.56 150.809 18.968C151.118 18.3707 151.539 17.92 152.073 17.616C152.611 17.312 153.225 17.16 153.913 17.16C154.595 17.16 155.203 17.312 155.737 17.616C156.275 17.92 156.697 18.3707 157.001 18.968C157.31 19.56 157.465 20.296 157.465 21.176C157.465 22.0507 157.31 22.7867 157.001 23.384C156.697 23.9813 156.275 24.432 155.737 24.736C155.203 25.04 154.595 25.192 153.913 25.192ZM153.881 24.104C154.377 24.104 154.798 23.9867 155.145 23.752C155.491 23.512 155.753 23.1733 155.929 22.736C156.11 22.2987 156.201 21.7787 156.201 21.176C156.201 20.264 156.011 19.5467 155.633 19.024C155.254 18.496 154.691 18.232 153.945 18.232C153.443 18.232 153.019 18.352 152.673 18.592C152.331 18.8267 152.07 19.1653 151.889 19.608C151.713 20.0453 151.625 20.568 151.625 21.176C151.625 22.0773 151.814 22.792 152.193 23.32C152.577 23.8427 153.139 24.104 153.881 24.104ZM164.012 25V17.336H165.26V25H164.012ZM164.876 21.544C164.876 20.5733 164.969 19.768 165.156 19.128C165.342 18.4827 165.614 18.0027 165.972 17.688C166.334 17.368 166.774 17.208 167.292 17.208C167.462 17.208 167.617 17.2213 167.756 17.248C167.9 17.2693 168.044 17.304 168.188 17.352L168.108 18.584C167.958 18.536 167.796 18.496 167.62 18.464C167.444 18.4267 167.286 18.408 167.148 18.408C166.694 18.408 166.329 18.5387 166.052 18.8C165.774 19.056 165.572 19.4187 165.444 19.888C165.321 20.3573 165.26 20.9093 165.26 21.544H164.876ZM172.609 25.192C171.948 25.192 171.356 25.024 170.833 24.688C170.316 24.3467 169.905 23.8747 169.601 23.272C169.302 22.6693 169.153 21.976 169.153 21.192C169.153 20.3547 169.302 19.6347 169.601 19.032C169.9 18.4293 170.308 17.968 170.825 17.648C171.348 17.3227 171.942 17.16 172.609 17.16C173.19 17.16 173.686 17.2773 174.097 17.512C174.508 17.7467 174.838 18.064 175.089 18.464C175.34 18.864 175.513 19.3173 175.609 19.824C175.71 20.3253 175.74 20.8453 175.697 21.384H170.161V20.616H174.873L174.505 20.856C174.521 20.5413 174.502 20.2267 174.449 19.912C174.401 19.5973 174.308 19.3093 174.169 19.048C174.03 18.7813 173.836 18.568 173.585 18.408C173.334 18.248 173.014 18.168 172.625 18.168C172.134 18.168 171.724 18.2933 171.393 18.544C171.062 18.7947 170.814 19.1253 170.649 19.536C170.484 19.9413 170.401 20.3813 170.401 20.856V21.368C170.401 21.9013 170.481 22.3787 170.641 22.8C170.806 23.2213 171.052 23.5547 171.377 23.8C171.702 24.0453 172.113 24.168 172.609 24.168C173.105 24.168 173.513 24.048 173.833 23.808C174.153 23.568 174.348 23.2133 174.417 22.744H175.713C175.633 23.2507 175.452 23.688 175.169 24.056C174.886 24.4187 174.526 24.6987 174.089 24.896C173.652 25.0933 173.158 25.192 172.609 25.192ZM183.068 25L182.908 23.32V20.04C182.908 19.352 182.761 18.8587 182.468 18.56C182.174 18.256 181.734 18.104 181.148 18.104C180.817 18.104 180.516 18.152 180.244 18.248C179.977 18.344 179.764 18.4933 179.604 18.696C179.449 18.8933 179.372 19.1493 179.372 19.464H177.98C177.98 18.9093 178.116 18.464 178.388 18.128C178.66 17.7867 179.033 17.5413 179.508 17.392C179.988 17.2373 180.534 17.16 181.148 17.16C181.734 17.16 182.254 17.2587 182.708 17.456C183.161 17.6533 183.516 17.968 183.772 18.4C184.028 18.8267 184.156 19.384 184.156 20.072V25H183.068ZM180.46 25.192C179.83 25.192 179.31 25.08 178.9 24.856C178.489 24.632 178.182 24.3413 177.98 23.984C177.777 23.6267 177.676 23.2507 177.676 22.856C177.676 22.3387 177.804 21.9173 178.06 21.592C178.321 21.2667 178.676 21.0293 179.124 20.88C179.572 20.7253 180.076 20.648 180.636 20.648C181.036 20.648 181.436 20.688 181.836 20.768C182.241 20.848 182.636 20.9573 183.02 21.096V21.88C182.7 21.752 182.337 21.6507 181.932 21.576C181.532 21.5013 181.164 21.464 180.828 21.464C180.316 21.464 179.884 21.5707 179.532 21.784C179.18 21.992 179.004 22.3493 179.004 22.856C179.004 23.2293 179.137 23.5493 179.404 23.816C179.676 24.0827 180.108 24.216 180.7 24.216C181.116 24.216 181.489 24.12 181.82 23.928C182.156 23.7307 182.42 23.4853 182.612 23.192C182.809 22.8987 182.908 22.6053 182.908 22.312H183.212C183.212 22.824 183.1 23.2987 182.876 23.736C182.657 24.1733 182.342 24.5253 181.932 24.792C181.521 25.0587 181.03 25.192 180.46 25.192ZM190.04 25.192C189.421 25.192 188.853 25.0267 188.336 24.696C187.819 24.36 187.405 23.8907 187.096 23.288C186.787 22.68 186.632 21.9653 186.632 21.144C186.632 20.328 186.784 19.6213 187.088 19.024C187.392 18.4267 187.795 17.968 188.296 17.648C188.803 17.3227 189.357 17.16 189.96 17.16C190.52 17.16 191.011 17.296 191.432 17.568C191.859 17.84 192.189 18.232 192.424 18.744C192.659 19.256 192.776 19.8747 192.776 20.6H192.296C192.296 20.0933 192.195 19.6667 191.992 19.32C191.795 18.9733 191.536 18.712 191.216 18.536C190.896 18.3547 190.552 18.264 190.184 18.264C189.768 18.264 189.387 18.3813 189.04 18.616C188.699 18.8453 188.424 19.176 188.216 19.608C188.013 20.0347 187.912 20.5467 187.912 21.144C187.912 21.752 188.013 22.2747 188.216 22.712C188.424 23.1493 188.699 23.4853 189.04 23.72C189.387 23.9547 189.768 24.072 190.184 24.072C190.531 24.072 190.864 23.9813 191.184 23.8C191.509 23.6187 191.776 23.3547 191.984 23.008C192.192 22.656 192.296 22.232 192.296 21.736H192.776C192.776 22.4773 192.653 23.1067 192.408 23.624C192.168 24.136 191.84 24.5253 191.424 24.792C191.013 25.0587 190.552 25.192 190.04 25.192ZM192.504 25L192.296 23.208V14.088H193.544V25H192.504ZM203.257 25.192C202.841 25.192 202.468 25.112 202.137 24.952C201.807 24.792 201.545 24.552 201.353 24.232C201.161 23.912 201.065 23.512 201.065 23.032V15.224H202.297V23C202.297 23.7893 202.665 24.184 203.401 24.184C203.62 24.184 203.831 24.16 204.033 24.112C204.241 24.064 204.473 23.992 204.729 23.896L204.905 24.792C204.633 24.9093 204.361 25.0053 204.089 25.08C203.823 25.1547 203.545 25.192 203.257 25.192ZM199.833 18.216V17.352H204.713V18.216H199.833ZM212.521 25V20.504C212.521 19.7733 212.345 19.2187 211.993 18.84C211.646 18.456 211.172 18.264 210.569 18.264C210.11 18.264 209.713 18.3893 209.377 18.64C209.041 18.8907 208.782 19.2507 208.601 19.72C208.42 20.184 208.329 20.7387 208.329 21.384H207.849C207.849 20.4933 207.966 19.7333 208.201 19.104C208.436 18.4747 208.777 17.9947 209.225 17.664C209.678 17.328 210.228 17.16 210.873 17.16C211.476 17.16 211.99 17.296 212.417 17.568C212.849 17.8347 213.18 18.2187 213.409 18.72C213.638 19.2213 213.753 19.816 213.753 20.504V25H212.521ZM207.081 25V14.088H208.329V25H207.081ZM219.553 25.192C218.892 25.192 218.3 25.024 217.777 24.688C217.26 24.3467 216.849 23.8747 216.545 23.272C216.247 22.6693 216.097 21.976 216.097 21.192C216.097 20.3547 216.247 19.6347 216.545 19.032C216.844 18.4293 217.252 17.968 217.769 17.648C218.292 17.3227 218.887 17.16 219.553 17.16C220.135 17.16 220.631 17.2773 221.041 17.512C221.452 17.7467 221.783 18.064 222.033 18.464C222.284 18.864 222.457 19.3173 222.553 19.824C222.655 20.3253 222.684 20.8453 222.641 21.384H217.105V20.616H221.817L221.449 20.856C221.465 20.5413 221.447 20.2267 221.393 19.912C221.345 19.5973 221.252 19.3093 221.113 19.048C220.975 18.7813 220.78 18.568 220.529 18.408C220.279 18.248 219.959 18.168 219.569 18.168C219.079 18.168 218.668 18.2933 218.337 18.544C218.007 18.7947 217.759 19.1253 217.593 19.536C217.428 19.9413 217.345 20.3813 217.345 20.856V21.368C217.345 21.9013 217.425 22.3787 217.585 22.8C217.751 23.2213 217.996 23.5547 218.321 23.8C218.647 24.0453 219.057 24.168 219.553 24.168C220.049 24.168 220.457 24.048 220.777 23.808C221.097 23.568 221.292 23.2133 221.361 22.744H222.657C222.577 23.2507 222.396 23.688 222.113 24.056C221.831 24.4187 221.471 24.6987 221.033 24.896C220.596 25.0933 220.103 25.192 219.553 25.192ZM35.272 45.192C34.6107 45.192 34.0187 45.024 33.496 44.688C32.9787 44.3467 32.568 43.8747 32.264 43.272C31.9653 42.6693 31.816 41.976 31.816 41.192C31.816 40.3547 31.9653 39.6347 32.264 39.032C32.5627 38.4293 32.9707 37.968 33.488 37.648C34.0107 37.3227 34.6053 37.16 35.272 37.16C35.8533 37.16 36.3493 37.2773 36.76 37.512C37.1707 37.7467 37.5013 38.064 37.752 38.464C38.0027 38.864 38.176 39.3173 38.272 39.824C38.3733 40.3253 38.4027 40.8453 38.36 41.384H32.824V40.616H37.536L37.168 40.856C37.184 40.5413 37.1653 40.2267 37.112 39.912C37.064 39.5973 36.9707 39.3093 36.832 39.048C36.6933 38.7813 36.4987 38.568 36.248 38.408C35.9973 38.248 35.6773 38.168 35.288 38.168C34.7973 38.168 34.3867 38.2933 34.056 38.544C33.7253 38.7947 33.4773 39.1253 33.312 39.536C33.1467 39.9413 33.064 40.3813 33.064 40.856V41.368C33.064 41.9013 33.144 42.3787 33.304 42.8C33.4693 43.2213 33.7147 43.5547 34.04 43.8C34.3653 44.0453 34.776 44.168 35.272 44.168C35.768 44.168 36.176 44.048 36.496 43.808C36.816 43.568 37.0107 43.2133 37.08 42.744H38.376C38.296 43.2507 38.1147 43.688 37.832 44.056C37.5493 44.4187 37.1893 44.6987 36.752 44.896C36.3147 45.0933 35.8213 45.192 35.272 45.192ZM46.4348 45V40.504C46.4348 39.7733 46.2588 39.2187 45.9068 38.84C45.5601 38.456 45.0854 38.264 44.4827 38.264C44.0241 38.264 43.6268 38.3893 43.2908 38.64C42.9548 38.8907 42.6961 39.2507 42.5148 39.72C42.3334 40.184 42.2427 40.7387 42.2427 41.384H41.7627C41.7627 40.4933 41.8801 39.7333 42.1147 39.104C42.3494 38.4747 42.6907 37.9947 43.1388 37.664C43.5921 37.328 44.1414 37.16 44.7868 37.16C45.3894 37.16 45.9041 37.296 46.3307 37.568C46.7628 37.8347 47.0934 38.2187 47.3228 38.72C47.5521 39.2213 47.6667 39.816 47.6667 40.504V45H46.4348ZM40.9947 45V37.352H42.0668L42.2427 39.112V45H40.9947ZM53.163 45.192C52.747 45.192 52.3737 45.112 52.043 44.952C51.7123 44.792 51.451 44.552 51.259 44.232C51.067 43.912 50.971 43.512 50.971 43.032V35.224H52.203V43C52.203 43.7893 52.571 44.184 53.307 44.184C53.5257 44.184 53.7363 44.16 53.939 44.112C54.147 44.064 54.379 43.992 54.635 43.896L54.811 44.792C54.539 44.9093 54.267 45.0053 53.995 45.08C53.7283 45.1547 53.451 45.192 53.163 45.192ZM49.739 38.216V37.352H54.619V38.216H49.739ZM57.6906 35.544C57.4346 35.544 57.232 35.472 57.0826 35.328C56.9333 35.1787 56.8586 34.984 56.8586 34.744C56.8586 34.5093 56.9333 34.3227 57.0826 34.184C57.232 34.0453 57.4346 33.976 57.6906 33.976C57.9466 33.976 58.1493 34.0453 58.2986 34.184C58.448 34.3227 58.5226 34.5093 58.5226 34.744C58.5226 34.984 58.448 35.1787 58.2986 35.328C58.1493 35.472 57.9466 35.544 57.6906 35.544ZM57.0666 45V37.336H58.3146V45H57.0666ZM61.9122 45V37.336H63.1602V45H61.9122ZM62.7762 41.544C62.7762 40.5733 62.8696 39.768 63.0562 39.128C63.2429 38.4827 63.5149 38.0027 63.8722 37.688C64.2349 37.368 64.6749 37.208 65.1922 37.208C65.3629 37.208 65.5176 37.2213 65.6562 37.248C65.8002 37.2693 65.9442 37.304 66.0882 37.352L66.0082 38.584C65.8589 38.536 65.6962 38.496 65.5202 38.464C65.3442 38.4267 65.1869 38.408 65.0482 38.408C64.5949 38.408 64.2296 38.5387 63.9522 38.8C63.6749 39.056 63.4722 39.4187 63.3442 39.888C63.2216 40.3573 63.1602 40.9093 63.1602 41.544H62.7762ZM70.5095 45.192C69.8482 45.192 69.2562 45.024 68.7335 44.688C68.2162 44.3467 67.8055 43.8747 67.5015 43.272C67.2028 42.6693 67.0535 41.976 67.0535 41.192C67.0535 40.3547 67.2028 39.6347 67.5015 39.032C67.8002 38.4293 68.2082 37.968 68.7255 37.648C69.2482 37.3227 69.8428 37.16 70.5095 37.16C71.0908 37.16 71.5868 37.2773 71.9975 37.512C72.4082 37.7467 72.7388 38.064 72.9895 38.464C73.2402 38.864 73.4135 39.3173 73.5095 39.824C73.6108 40.3253 73.6402 40.8453 73.5975 41.384H68.0615V40.616H72.7735L72.4055 40.856C72.4215 40.5413 72.4028 40.2267 72.3495 39.912C72.3015 39.5973 72.2082 39.3093 72.0695 39.048C71.9308 38.7813 71.7362 38.568 71.4855 38.408C71.2348 38.248 70.9148 38.168 70.5255 38.168C70.0348 38.168 69.6242 38.2933 69.2935 38.544C68.9628 38.7947 68.7148 39.1253 68.5495 39.536C68.3842 39.9413 68.3015 40.3813 68.3015 40.856V41.368C68.3015 41.9013 68.3815 42.3787 68.5415 42.8C68.7068 43.2213 68.9522 43.5547 69.2775 43.8C69.6028 44.0453 70.0135 44.168 70.5095 44.168C71.0055 44.168 71.4135 44.048 71.7335 43.808C72.0535 43.568 72.2482 43.2133 72.3175 42.744H73.6135C73.5335 43.2507 73.3522 43.688 73.0695 44.056C72.7868 44.4187 72.4268 44.6987 71.9895 44.896C71.5522 45.0933 71.0588 45.192 70.5095 45.192ZM82.8771 45.192C82.2638 45.192 81.6905 45.0267 81.1571 44.696C80.6291 44.3653 80.2025 43.8987 79.8771 43.296C79.5518 42.6933 79.3891 41.9813 79.3891 41.16C79.3891 40.3173 79.5518 39.5973 79.8771 39C80.2025 38.4027 80.6291 37.9467 81.1571 37.632C81.6905 37.3173 82.2638 37.16 82.8771 37.16C83.3091 37.16 83.6958 37.2267 84.0371 37.36C84.3838 37.488 84.6851 37.6667 84.9411 37.896C85.1971 38.1253 85.4078 38.3867 85.5731 38.68C85.7438 38.968 85.8691 39.272 85.9491 39.592L84.6691 39.704C84.5358 39.2613 84.3118 38.912 83.9971 38.656C83.6878 38.3947 83.3091 38.264 82.8611 38.264C82.4825 38.264 82.1251 38.3733 81.7891 38.592C81.4585 38.8053 81.1891 39.128 80.9811 39.56C80.7731 39.9867 80.6691 40.52 80.6691 41.16C80.6691 41.752 80.7625 42.2667 80.9491 42.704C81.1411 43.136 81.4025 43.472 81.7331 43.712C82.0638 43.952 82.4398 44.072 82.8611 44.072C83.4531 44.072 83.9011 43.928 84.2051 43.64C84.5145 43.3467 84.6691 42.9413 84.6691 42.424H85.9491C85.9491 42.9573 85.8238 43.432 85.5731 43.848C85.3225 44.264 84.9651 44.592 84.5011 44.832C84.0425 45.072 83.5011 45.192 82.8771 45.192ZM91.3671 45.192C90.6791 45.192 90.0658 45.04 89.5271 44.736C88.9938 44.432 88.5725 43.9813 88.2631 43.384C87.9538 42.7867 87.7991 42.0507 87.7991 41.176C87.7991 40.296 87.9538 39.56 88.2631 38.968C88.5725 38.3707 88.9938 37.92 89.5271 37.616C90.0658 37.312 90.6791 37.16 91.3671 37.16C92.0498 37.16 92.6578 37.312 93.1911 37.616C93.7298 37.92 94.1511 38.3707 94.4551 38.968C94.7645 39.56 94.9191 40.296 94.9191 41.176C94.9191 42.0507 94.7645 42.7867 94.4551 43.384C94.1511 43.9813 93.7298 44.432 93.1911 44.736C92.6578 45.04 92.0498 45.192 91.3671 45.192ZM91.3351 44.104C91.8311 44.104 92.2525 43.9867 92.5991 43.752C92.9458 43.512 93.2071 43.1733 93.3831 42.736C93.5645 42.2987 93.6551 41.7787 93.6551 41.176C93.6551 40.264 93.4658 39.5467 93.0871 39.024C92.7085 38.496 92.1458 38.232 91.3991 38.232C90.8978 38.232 90.4738 38.352 90.1271 38.592C89.7858 38.8267 89.5245 39.1653 89.3431 39.608C89.1671 40.0453 89.0791 40.568 89.0791 41.176C89.0791 42.0773 89.2685 42.792 89.6471 43.32C90.0311 43.8427 90.5938 44.104 91.3351 44.104ZM102.949 45V40.504C102.949 39.7733 102.773 39.2187 102.421 38.84C102.074 38.456 101.6 38.264 100.997 38.264C100.538 38.264 100.141 38.3893 99.8051 38.64C99.4691 38.8907 99.2105 39.2507 99.0291 39.72C98.8478 40.184 98.7571 40.7387 98.7571 41.384H98.2771C98.2771 40.4933 98.3945 39.7333 98.6291 39.104C98.8638 38.4747 99.2051 37.9947 99.6531 37.664C100.106 37.328 100.656 37.16 101.301 37.16C101.904 37.16 102.418 37.296 102.845 37.568C103.277 37.8347 103.608 38.2187 103.837 38.72C104.066 39.2213 104.181 39.816 104.181 40.504V45H102.949ZM97.5091 45V37.352H98.5811L98.7571 39.112V45H97.5091ZM109.677 45.192C109.261 45.192 108.888 45.112 108.557 44.952C108.227 44.792 107.965 44.552 107.773 44.232C107.581 43.912 107.485 43.512 107.485 43.032V35.224H108.717V43C108.717 43.7893 109.085 44.184 109.821 44.184C110.04 44.184 110.251 44.16 110.453 44.112C110.661 44.064 110.893 43.992 111.149 43.896L111.325 44.792C111.053 44.9093 110.781 45.0053 110.509 45.08C110.243 45.1547 109.965 45.192 109.677 45.192ZM106.253 38.216V37.352H111.133V38.216H106.253ZM116.157 45.192C115.496 45.192 114.904 45.024 114.381 44.688C113.864 44.3467 113.453 43.8747 113.149 43.272C112.85 42.6693 112.701 41.976 112.701 41.192C112.701 40.3547 112.85 39.6347 113.149 39.032C113.448 38.4293 113.856 37.968 114.373 37.648C114.896 37.3227 115.49 37.16 116.157 37.16C116.738 37.16 117.234 37.2773 117.645 37.512C118.056 37.7467 118.386 38.064 118.637 38.464C118.888 38.864 119.061 39.3173 119.157 39.824C119.258 40.3253 119.288 40.8453 119.245 41.384H113.709V40.616H118.421L118.053 40.856C118.069 40.5413 118.05 40.2267 117.997 39.912C117.949 39.5973 117.856 39.3093 117.717 39.048C117.578 38.7813 117.384 38.568 117.133 38.408C116.882 38.248 116.562 38.168 116.173 38.168C115.682 38.168 115.272 38.2933 114.941 38.544C114.61 38.7947 114.362 39.1253 114.197 39.536C114.032 39.9413 113.949 40.3813 113.949 40.856V41.368C113.949 41.9013 114.029 42.3787 114.189 42.8C114.354 43.2213 114.6 43.5547 114.925 43.8C115.25 44.0453 115.661 44.168 116.157 44.168C116.653 44.168 117.061 44.048 117.381 43.808C117.701 43.568 117.896 43.2133 117.965 42.744H119.261C119.181 43.2507 119 43.688 118.717 44.056C118.434 44.4187 118.074 44.6987 117.637 44.896C117.2 45.0933 116.706 45.192 116.157 45.192ZM127.32 45V40.504C127.32 39.7733 127.144 39.2187 126.792 38.84C126.445 38.456 125.97 38.264 125.368 38.264C124.909 38.264 124.512 38.3893 124.176 38.64C123.84 38.8907 123.581 39.2507 123.4 39.72C123.218 40.184 123.128 40.7387 123.128 41.384H122.648C122.648 40.4933 122.765 39.7333 123 39.104C123.234 38.4747 123.576 37.9947 124.024 37.664C124.477 37.328 125.026 37.16 125.672 37.16C126.274 37.16 126.789 37.296 127.216 37.568C127.648 37.8347 127.978 38.2187 128.208 38.72C128.437 39.2213 128.552 39.816 128.552 40.504V45H127.32ZM121.88 45V37.352H122.952L123.128 39.112V45H121.88ZM134.048 45.192C133.632 45.192 133.259 45.112 132.928 44.952C132.597 44.792 132.336 44.552 132.144 44.232C131.952 43.912 131.856 43.512 131.856 43.032V35.224H133.088V43C133.088 43.7893 133.456 44.184 134.192 44.184C134.411 44.184 134.621 44.16 134.824 44.112C135.032 44.064 135.264 43.992 135.52 43.896L135.696 44.792C135.424 44.9093 135.152 45.0053 134.88 45.08C134.613 45.1547 134.336 45.192 134.048 45.192ZM130.624 38.216V37.352H135.504V38.216H130.624ZM139.088 42.44V41.72C139.088 41.256 139.136 40.8747 139.232 40.576C139.333 40.2773 139.498 40.0187 139.728 39.8C139.957 39.5813 140.272 39.3627 140.672 39.144C141.029 38.952 141.314 38.7733 141.528 38.608C141.741 38.4427 141.893 38.264 141.984 38.072C142.08 37.88 142.128 37.6453 142.128 37.368C142.128 36.952 141.957 36.6053 141.616 36.328C141.28 36.0507 140.816 35.912 140.224 35.912C139.568 35.912 139.066 36.0427 138.72 36.304C138.373 36.56 138.154 36.92 138.064 37.384H136.736C136.81 36.6053 137.136 35.976 137.712 35.496C138.293 35.016 139.12 34.776 140.192 34.776C140.874 34.776 141.461 34.896 141.952 35.136C142.448 35.3707 142.826 35.688 143.088 36.088C143.354 36.4827 143.488 36.92 143.488 37.4C143.488 37.9493 143.349 38.4107 143.072 38.784C142.794 39.152 142.346 39.5013 141.728 39.832C141.37 40.0293 141.088 40.2133 140.88 40.384C140.677 40.5493 140.533 40.7413 140.448 40.96C140.362 41.1733 140.32 41.4533 140.32 41.8V42.44H139.088ZM139.728 45.192C139.461 45.192 139.24 45.1067 139.064 44.936C138.888 44.76 138.8 44.5493 138.8 44.304C138.8 44.0533 138.885 43.8373 139.056 43.656C139.232 43.4747 139.453 43.384 139.72 43.384C139.986 43.384 140.213 43.4747 140.4 43.656C140.592 43.832 140.688 44.0453 140.688 44.296C140.688 44.5413 140.594 44.752 140.408 44.928C140.221 45.104 139.994 45.192 139.728 45.192Z" fill="#333333"/>
</g>
<defs>
<filter id="filter0_d_7054_5732" x="0" y="0" width="242.035" height="68" filterUnits="userSpaceOnUse" color-interpolation-filters="sRGB">
<feFlood flood-opacity="0" result="BackgroundImageFix"/>
<feColorMatrix in="SourceAlpha" type="matrix" values="0 0 0 0 0 0 0 0 0 0 0 0 0 0 0 0 0 0 127 0" result="hardAlpha"/>
<feOffset dy="4"/>
<feGaussianBlur stdDeviation="3"/>
<feComposite in2="hardAlpha" operator="out"/>
<feColorMatrix type="matrix" values="0 0 0 0 0 0 0 0 0 0 0 0 0 0 0 0 0 0 0.1 0"/>
<feBlend mode="normal" in2="BackgroundImageFix" result="effect1_dropShadow_7054_5732"/>
<feBlend mode="normal" in="SourceGraphic" in2="effect1_dropShadow_7054_5732" result="shape"/>
</filter>
<filter id="filter1_d_7054_5732" x="25.224" y="11.9756" width="203.481" height="43.2168" filterUnits="userSpaceOnUse" color-interpolation-filters="sRGB">
<feFlood flood-opacity="0" result="BackgroundImageFix"/>
<feColorMatrix in="SourceAlpha" type="matrix" values="0 0 0 0 0 0 0 0 0 0 0 0 0 0 0 0 0 0 127 0" result="hardAlpha"/>
<feOffset dy="4"/>
<feGaussianBlur stdDeviation="3"/>
<feComposite in2="hardAlpha" operator="out"/>
<feColorMatrix type="matrix" values="0 0 0 0 0 0 0 0 0 0 0 0 0 0 0 0 0 0 0.05 0"/>
<feBlend mode="normal" in2="BackgroundImageFix" result="effect1_dropShadow_7054_5732"/>
<feBlend mode="normal" in="SourceGraphic" in2="effect1_dropShadow_7054_5732" result="shape"/>
</filter>
</defs>
</svg>
