<svg width="257" height="88" viewBox="0 0 257 88" fill="none" xmlns="http://www.w3.org/2000/svg">
<path d="M7.04333 42.6331L16.7674 51V69C16.7674 73.9706 20.7968 78 25.7674 78L247.035 78C252.005 78 256.035 73.9706 256.035 69V11C256.035 6.02944 252.005 2 247.035 2L25.7674 2C20.7968 2 16.7674 6.02944 16.7674 11L16.7674 30.5L7.15555 37.9931C5.66179 39.1575 5.60761 41.3978 7.04333 42.6331Z" fill="white"/>
<g filter="url(#filter0_d_7073_5880)">
<mask id="path-2-inside-1_7073_5880" fill="white">
<path d="M7.04333 42.6331L16.7674 51V69C16.7674 73.9706 20.7968 78 25.7674 78L224.035 78C229.005 78 233.035 73.9706 233.035 69V11C233.035 6.02944 229.005 2 224.035 2L25.7674 2C20.7968 2 16.7674 6.02944 16.7674 11L16.7674 30.5L7.15555 37.9931C5.66179 39.1575 5.60761 41.3978 7.04333 42.6331Z"/>
</mask>
<path d="M7.04333 42.6331L16.7674 51V69C16.7674 73.9706 20.7968 78 25.7674 78L224.035 78C229.005 78 233.035 73.9706 233.035 69V11C233.035 6.02944 229.005 2 224.035 2L25.7674 2C20.7968 2 16.7674 6.02944 16.7674 11L16.7674 30.5L7.15555 37.9931C5.66179 39.1575 5.60761 41.3978 7.04333 42.6331Z" fill="white"/>
<path d="M16.7674 51H18.1674V50.3577L17.6805 49.9388L16.7674 51ZM7.04333 42.6331L6.13021 43.6944H6.13021L7.04333 42.6331ZM7.15555 37.9931L6.2948 36.8889H6.2948L7.15555 37.9931ZM16.7674 30.5L17.6281 31.6041L18.1674 31.1838V30.5H16.7674ZM25.7674 2V0.6V2ZM224.035 2V3.4V2ZM17.6805 49.9388L7.95644 41.5719L6.13021 43.6944L15.8542 52.0612L17.6805 49.9388ZM8.0163 39.0972L17.6281 31.6041L15.9066 29.3959L6.2948 36.8889L8.0163 39.0972ZM7.95644 41.5719C7.19073 40.9131 7.21963 39.7183 8.0163 39.0972L6.2948 36.8889C4.10396 38.5968 4.02449 41.8825 6.13021 43.6944L7.95644 41.5719ZM25.7674 3.4L224.035 3.4V0.600003L25.7674 0.6V3.4ZM231.635 11V69H234.435V11H231.635ZM224.035 76.6L25.7674 76.6V79.4L224.035 79.4V76.6ZM18.1674 30.5L18.1674 11H15.3674L15.3674 30.5H18.1674ZM18.1674 69V51H15.3674L15.3674 69H18.1674ZM25.7674 76.6C21.57 76.6 18.1674 73.1974 18.1674 69H15.3674C15.3674 74.7438 20.0236 79.4 25.7674 79.4V76.6ZM231.635 69C231.635 73.1974 228.232 76.6 224.035 76.6V79.4C229.778 79.4 234.435 74.7438 234.435 69H231.635ZM224.035 3.4C228.232 3.4 231.635 6.80264 231.635 11H234.435C234.435 5.25624 229.778 0.600003 224.035 0.600003V3.4ZM25.7674 0.6C20.0236 0.6 15.3674 5.25624 15.3674 11H18.1674C18.1674 6.80264 21.57 3.4 25.7674 3.4V0.6Z" fill="#333333" mask="url(#path-2-inside-1_7073_5880)"/>
</g>
<g filter="url(#filter1_d_7073_5880)">
<path d="M32.616 25V14.952H38.728V16.024H33.864V19.368H38.392V20.44H33.864V25H32.616ZM41.1666 25V17.336H42.4146V25H41.1666ZM42.0306 21.544C42.0306 20.5733 42.124 19.768 42.3106 19.128C42.4973 18.4827 42.7693 18.0027 43.1266 17.688C43.4893 17.368 43.9293 17.208 44.4466 17.208C44.6173 17.208 44.772 17.2213 44.9106 17.248C45.0546 17.2693 45.1986 17.304 45.3426 17.352L45.2626 18.584C45.1133 18.536 44.9506 18.496 44.7746 18.464C44.5986 18.4267 44.4413 18.408 44.3026 18.408C43.8493 18.408 43.484 18.5387 43.2066 18.8C42.9293 19.056 42.7266 19.4187 42.5986 19.888C42.476 20.3573 42.4146 20.9093 42.4146 21.544H42.0306ZM49.8759 25.192C49.1879 25.192 48.5745 25.04 48.0359 24.736C47.5025 24.432 47.0812 23.9813 46.7719 23.384C46.4625 22.7867 46.3079 22.0507 46.3079 21.176C46.3079 20.296 46.4625 19.56 46.7719 18.968C47.0812 18.3707 47.5025 17.92 48.0359 17.616C48.5745 17.312 49.1879 17.16 49.8759 17.16C50.5585 17.16 51.1665 17.312 51.6999 17.616C52.2385 17.92 52.6599 18.3707 52.9639 18.968C53.2732 19.56 53.4279 20.296 53.4279 21.176C53.4279 22.0507 53.2732 22.7867 52.9639 23.384C52.6599 23.9813 52.2385 24.432 51.6999 24.736C51.1665 25.04 50.5585 25.192 49.8759 25.192ZM49.8439 24.104C50.3399 24.104 50.7612 23.9867 51.1079 23.752C51.4545 23.512 51.7159 23.1733 51.8919 22.736C52.0732 22.2987 52.1639 21.7787 52.1639 21.176C52.1639 20.264 51.9745 19.5467 51.5959 19.024C51.2172 18.496 50.6545 18.232 49.9079 18.232C49.4065 18.232 48.9825 18.352 48.6359 18.592C48.2945 18.8267 48.0332 19.1653 47.8519 19.608C47.6759 20.0453 47.5879 20.568 47.5879 21.176C47.5879 22.0773 47.7772 22.792 48.1559 23.32C48.5399 23.8427 49.1025 24.104 49.8439 24.104ZM66.7699 25V20.504C66.7699 19.7733 66.5939 19.2187 66.2419 18.84C65.8952 18.456 65.4259 18.264 64.8339 18.264C64.1405 18.264 63.6099 18.5333 63.2419 19.072C62.8739 19.6053 62.6899 20.344 62.6899 21.288H62.1139C62.1139 20.6 62.1805 19.9973 62.3139 19.48C62.4525 18.9627 62.6525 18.5333 62.9139 18.192C63.1752 17.8453 63.4925 17.5867 63.8659 17.416C64.2392 17.2453 64.6632 17.16 65.1379 17.16C65.7405 17.16 66.2552 17.296 66.6819 17.568C67.1139 17.8347 67.4445 18.2187 67.6739 18.72C67.9032 19.2213 68.0179 19.816 68.0179 20.504V25H66.7699ZM56.0179 25V17.352H57.0899L57.2339 18.888C57.4739 18.3333 57.8099 17.9067 58.2419 17.608C58.6792 17.3093 59.2019 17.16 59.8099 17.16C60.4125 17.16 60.9272 17.296 61.3539 17.568C61.7859 17.8347 62.1165 18.2187 62.3459 18.72C62.5752 19.2213 62.6899 19.816 62.6899 20.504V25H61.4579V20.504C61.4579 19.7733 61.2819 19.2187 60.9299 18.84C60.5832 18.456 60.1085 18.264 59.5059 18.264C59.0472 18.264 58.6499 18.3893 58.3139 18.64C57.9779 18.8907 57.7192 19.2507 57.5379 19.72C57.3565 20.184 57.2659 20.7387 57.2659 21.384V25H56.0179ZM80.5435 25V20.504C80.5435 19.7733 80.3675 19.2187 80.0155 18.84C79.6688 18.456 79.1942 18.264 78.5915 18.264C78.1328 18.264 77.7355 18.3893 77.3995 18.64C77.0635 18.8907 76.8048 19.2507 76.6235 19.72C76.4422 20.184 76.3515 20.7387 76.3515 21.384H75.8715C75.8715 20.4933 75.9888 19.7333 76.2235 19.104C76.4582 18.4747 76.7995 17.9947 77.2475 17.664C77.7008 17.328 78.2502 17.16 78.8955 17.16C79.4982 17.16 80.0128 17.296 80.4395 17.568C80.8715 17.8347 81.2022 18.2187 81.4315 18.72C81.6608 19.2213 81.7755 19.816 81.7755 20.504V25H80.5435ZM75.1035 25V14.088H76.3515V25H75.1035ZM87.5757 25.192C86.9144 25.192 86.3224 25.024 85.7997 24.688C85.2824 24.3467 84.8717 23.8747 84.5677 23.272C84.2691 22.6693 84.1197 21.976 84.1197 21.192C84.1197 20.3547 84.2691 19.6347 84.5677 19.032C84.8664 18.4293 85.2744 17.968 85.7917 17.648C86.3144 17.3227 86.9091 17.16 87.5757 17.16C88.1571 17.16 88.6531 17.2773 89.0637 17.512C89.4744 17.7467 89.8051 18.064 90.0557 18.464C90.3064 18.864 90.4797 19.3173 90.5757 19.824C90.6771 20.3253 90.7064 20.8453 90.6637 21.384H85.1277V20.616H89.8397L89.4717 20.856C89.4877 20.5413 89.4691 20.2267 89.4157 19.912C89.3677 19.5973 89.2744 19.3093 89.1357 19.048C88.9971 18.7813 88.8024 18.568 88.5517 18.408C88.3011 18.248 87.9811 18.168 87.5917 18.168C87.1011 18.168 86.6904 18.2933 86.3597 18.544C86.0291 18.7947 85.7811 19.1253 85.6157 19.536C85.4504 19.9413 85.3677 20.3813 85.3677 20.856V21.368C85.3677 21.9013 85.4477 22.3787 85.6077 22.8C85.7731 23.2213 86.0184 23.5547 86.3437 23.8C86.6691 24.0453 87.0797 24.168 87.5757 24.168C88.0717 24.168 88.4797 24.048 88.7997 23.808C89.1197 23.568 89.3144 23.2133 89.3837 22.744H90.6797C90.5997 23.2507 90.4184 23.688 90.1357 24.056C89.8531 24.4187 89.4931 24.6987 89.0557 24.896C88.6184 25.0933 88.1251 25.192 87.5757 25.192ZM93.2985 25V17.336H94.5465V25H93.2985ZM94.1625 21.544C94.1625 20.5733 94.2558 19.768 94.4425 19.128C94.6292 18.4827 94.9012 18.0027 95.2585 17.688C95.6212 17.368 96.0612 17.208 96.5785 17.208C96.7492 17.208 96.9038 17.2213 97.0425 17.248C97.1865 17.2693 97.3305 17.304 97.4745 17.352L97.3945 18.584C97.2452 18.536 97.0825 18.496 96.9065 18.464C96.7305 18.4267 96.5732 18.408 96.4345 18.408C95.9812 18.408 95.6158 18.5387 95.3385 18.8C95.0612 19.056 94.8585 19.4187 94.7305 19.888C94.6078 20.3573 94.5465 20.9093 94.5465 21.544H94.1625ZM101.896 25.192C101.234 25.192 100.642 25.024 100.12 24.688C99.6024 24.3467 99.1917 23.8747 98.8877 23.272C98.5891 22.6693 98.4397 21.976 98.4397 21.192C98.4397 20.3547 98.5891 19.6347 98.8877 19.032C99.1864 18.4293 99.5944 17.968 100.112 17.648C100.634 17.3227 101.229 17.16 101.896 17.16C102.477 17.16 102.973 17.2773 103.384 17.512C103.794 17.7467 104.125 18.064 104.376 18.464C104.626 18.864 104.8 19.3173 104.896 19.824C104.997 20.3253 105.026 20.8453 104.984 21.384H99.4477V20.616H104.16L103.792 20.856C103.808 20.5413 103.789 20.2267 103.736 19.912C103.688 19.5973 103.594 19.3093 103.456 19.048C103.317 18.7813 103.122 18.568 102.872 18.408C102.621 18.248 102.301 18.168 101.912 18.168C101.421 18.168 101.01 18.2933 100.68 18.544C100.349 18.7947 100.101 19.1253 99.9357 19.536C99.7704 19.9413 99.6877 20.3813 99.6877 20.856V21.368C99.6877 21.9013 99.7677 22.3787 99.9277 22.8C100.093 23.2213 100.338 23.5547 100.664 23.8C100.989 24.0453 101.4 24.168 101.896 24.168C102.392 24.168 102.8 24.048 103.12 23.808C103.44 23.568 103.634 23.2133 103.704 22.744H105C104.92 23.2507 104.738 23.688 104.456 24.056C104.173 24.4187 103.813 24.6987 103.376 24.896C102.938 25.0933 102.445 25.192 101.896 25.192ZM110.311 17.352H111.703L114.199 23.912H113.911L115.847 17.352H117.127L114.247 26.536C114.007 27.304 113.687 27.896 113.287 28.312C112.887 28.728 112.375 28.936 111.751 28.936C111.415 28.936 111.095 28.888 110.791 28.792C110.493 28.696 110.183 28.5573 109.863 28.376V27.224C110.146 27.448 110.418 27.608 110.679 27.704C110.946 27.8 111.223 27.848 111.511 27.848C111.831 27.848 112.098 27.7467 112.311 27.544C112.53 27.3413 112.711 27.08 112.855 26.76C112.999 26.4453 113.122 26.1147 113.223 25.768L113.447 25L110.311 17.352ZM121.957 25.192C121.269 25.192 120.655 25.04 120.117 24.736C119.583 24.432 119.162 23.9813 118.853 23.384C118.543 22.7867 118.389 22.0507 118.389 21.176C118.389 20.296 118.543 19.56 118.853 18.968C119.162 18.3707 119.583 17.92 120.117 17.616C120.655 17.312 121.269 17.16 121.957 17.16C122.639 17.16 123.247 17.312 123.781 17.616C124.319 17.92 124.741 18.3707 125.045 18.968C125.354 19.56 125.509 20.296 125.509 21.176C125.509 22.0507 125.354 22.7867 125.045 23.384C124.741 23.9813 124.319 24.432 123.781 24.736C123.247 25.04 122.639 25.192 121.957 25.192ZM121.925 24.104C122.421 24.104 122.842 23.9867 123.189 23.752C123.535 23.512 123.797 23.1733 123.973 22.736C124.154 22.2987 124.245 21.7787 124.245 21.176C124.245 20.264 124.055 19.5467 123.677 19.024C123.298 18.496 122.735 18.232 121.989 18.232C121.487 18.232 121.063 18.352 120.717 18.592C120.375 18.8267 120.114 19.1653 119.933 19.608C119.757 20.0453 119.669 20.568 119.669 21.176C119.669 22.0773 119.858 22.792 120.237 23.32C120.621 23.8427 121.183 24.104 121.925 24.104ZM133.298 17.336H134.546V25H133.298V17.336ZM127.874 17.336H129.122V22.104C129.122 22.744 129.277 23.2293 129.586 23.56C129.901 23.8907 130.349 24.056 130.93 24.056C131.41 24.056 131.826 23.928 132.178 23.672C132.536 23.416 132.81 23.064 133.002 22.616C133.2 22.1627 133.298 21.6453 133.298 21.064H133.762C133.762 21.9227 133.637 22.656 133.386 23.264C133.141 23.872 132.792 24.3387 132.338 24.664C131.89 24.984 131.362 25.144 130.754 25.144C130.178 25.144 129.674 25.0373 129.242 24.824C128.81 24.6107 128.474 24.288 128.234 23.856C127.994 23.4187 127.874 22.8667 127.874 22.2V17.336ZM144.591 25.192C143.978 25.192 143.404 25.0267 142.871 24.696C142.343 24.3653 141.916 23.8987 141.591 23.296C141.266 22.6933 141.103 21.9813 141.103 21.16C141.103 20.3173 141.266 19.5973 141.591 19C141.916 18.4027 142.343 17.9467 142.871 17.632C143.404 17.3173 143.978 17.16 144.591 17.16C145.023 17.16 145.41 17.2267 145.751 17.36C146.098 17.488 146.399 17.6667 146.655 17.896C146.911 18.1253 147.122 18.3867 147.287 18.68C147.458 18.968 147.583 19.272 147.663 19.592L146.383 19.704C146.25 19.2613 146.026 18.912 145.711 18.656C145.402 18.3947 145.023 18.264 144.575 18.264C144.196 18.264 143.839 18.3733 143.503 18.592C143.172 18.8053 142.903 19.128 142.695 19.56C142.487 19.9867 142.383 20.52 142.383 21.16C142.383 21.752 142.476 22.2667 142.663 22.704C142.855 23.136 143.116 23.472 143.447 23.712C143.778 23.952 144.154 24.072 144.575 24.072C145.167 24.072 145.615 23.928 145.919 23.64C146.228 23.3467 146.383 22.9413 146.383 22.424H147.663C147.663 22.9573 147.538 23.432 147.287 23.848C147.036 24.264 146.679 24.592 146.215 24.832C145.756 25.072 145.215 25.192 144.591 25.192ZM155.049 25L154.889 23.32V20.04C154.889 19.352 154.742 18.8587 154.449 18.56C154.156 18.256 153.716 18.104 153.129 18.104C152.798 18.104 152.497 18.152 152.225 18.248C151.958 18.344 151.745 18.4933 151.585 18.696C151.43 18.8933 151.353 19.1493 151.353 19.464H149.961C149.961 18.9093 150.097 18.464 150.369 18.128C150.641 17.7867 151.014 17.5413 151.489 17.392C151.969 17.2373 152.516 17.16 153.129 17.16C153.716 17.16 154.236 17.2587 154.689 17.456C155.142 17.6533 155.497 17.968 155.753 18.4C156.009 18.8267 156.137 19.384 156.137 20.072V25H155.049ZM152.441 25.192C151.812 25.192 151.292 25.08 150.881 24.856C150.47 24.632 150.164 24.3413 149.961 23.984C149.758 23.6267 149.657 23.2507 149.657 22.856C149.657 22.3387 149.785 21.9173 150.041 21.592C150.302 21.2667 150.657 21.0293 151.105 20.88C151.553 20.7253 152.057 20.648 152.617 20.648C153.017 20.648 153.417 20.688 153.817 20.768C154.222 20.848 154.617 20.9573 155.001 21.096V21.88C154.681 21.752 154.318 21.6507 153.913 21.576C153.513 21.5013 153.145 21.464 152.809 21.464C152.297 21.464 151.865 21.5707 151.513 21.784C151.161 21.992 150.985 22.3493 150.985 22.856C150.985 23.2293 151.118 23.5493 151.385 23.816C151.657 24.0827 152.089 24.216 152.681 24.216C153.097 24.216 153.47 24.12 153.801 23.928C154.137 23.7307 154.401 23.4853 154.593 23.192C154.79 22.8987 154.889 22.6053 154.889 22.312H155.193C155.193 22.824 155.081 23.2987 154.857 23.736C154.638 24.1733 154.324 24.5253 153.913 24.792C153.502 25.0587 153.012 25.192 152.441 25.192ZM164.725 25V20.504C164.725 19.7733 164.549 19.2187 164.197 18.84C163.851 18.456 163.376 18.264 162.773 18.264C162.315 18.264 161.917 18.3893 161.581 18.64C161.245 18.8907 160.987 19.2507 160.805 19.72C160.624 20.184 160.533 20.7387 160.533 21.384H160.053C160.053 20.4933 160.171 19.7333 160.405 19.104C160.64 18.4747 160.981 17.9947 161.429 17.664C161.883 17.328 162.432 17.16 163.077 17.16C163.68 17.16 164.195 17.296 164.621 17.568C165.053 17.8347 165.384 18.2187 165.613 18.72C165.843 19.2213 165.957 19.816 165.957 20.504V25H164.725ZM159.285 25V17.352H160.357L160.533 19.112V25H159.285ZM173.059 25V17.336H174.307V25H173.059ZM173.923 21.544C173.923 20.5733 174.016 19.768 174.203 19.128C174.389 18.4827 174.661 18.0027 175.019 17.688C175.381 17.368 175.821 17.208 176.339 17.208C176.509 17.208 176.664 17.2213 176.803 17.248C176.947 17.2693 177.091 17.304 177.235 17.352L177.155 18.584C177.005 18.536 176.843 18.496 176.667 18.464C176.491 18.4267 176.333 18.408 176.195 18.408C175.741 18.408 175.376 18.5387 175.099 18.8C174.821 19.056 174.619 19.4187 174.491 19.888C174.368 20.3573 174.307 20.9093 174.307 21.544H173.923ZM181.656 25.192C180.994 25.192 180.402 25.024 179.88 24.688C179.362 24.3467 178.952 23.8747 178.648 23.272C178.349 22.6693 178.2 21.976 178.2 21.192C178.2 20.3547 178.349 19.6347 178.648 19.032C178.946 18.4293 179.354 17.968 179.872 17.648C180.394 17.3227 180.989 17.16 181.656 17.16C182.237 17.16 182.733 17.2773 183.144 17.512C183.554 17.7467 183.885 18.064 184.136 18.464C184.386 18.864 184.56 19.3173 184.656 19.824C184.757 20.3253 184.786 20.8453 184.744 21.384H179.208V20.616H183.92L183.552 20.856C183.568 20.5413 183.549 20.2267 183.496 19.912C183.448 19.5973 183.354 19.3093 183.216 19.048C183.077 18.7813 182.882 18.568 182.632 18.408C182.381 18.248 182.061 18.168 181.672 18.168C181.181 18.168 180.77 18.2933 180.44 18.544C180.109 18.7947 179.861 19.1253 179.696 19.536C179.53 19.9413 179.448 20.3813 179.448 20.856V21.368C179.448 21.9013 179.528 22.3787 179.688 22.8C179.853 23.2213 180.098 23.5547 180.424 23.8C180.749 24.0453 181.16 24.168 181.656 24.168C182.152 24.168 182.56 24.048 182.88 23.808C183.2 23.568 183.394 23.2133 183.464 22.744H184.76C184.68 23.2507 184.498 23.688 184.216 24.056C183.933 24.4187 183.573 24.6987 183.136 24.896C182.698 25.0933 182.205 25.192 181.656 25.192ZM192.114 25L191.954 23.32V20.04C191.954 19.352 191.808 18.8587 191.514 18.56C191.221 18.256 190.781 18.104 190.194 18.104C189.864 18.104 189.562 18.152 189.29 18.248C189.024 18.344 188.81 18.4933 188.65 18.696C188.496 18.8933 188.418 19.1493 188.418 19.464H187.026C187.026 18.9093 187.162 18.464 187.434 18.128C187.706 17.7867 188.08 17.5413 188.554 17.392C189.034 17.2373 189.581 17.16 190.194 17.16C190.781 17.16 191.301 17.2587 191.754 17.456C192.208 17.6533 192.562 17.968 192.818 18.4C193.074 18.8267 193.202 19.384 193.202 20.072V25H192.114ZM189.506 25.192C188.877 25.192 188.357 25.08 187.946 24.856C187.536 24.632 187.229 24.3413 187.026 23.984C186.824 23.6267 186.722 23.2507 186.722 22.856C186.722 22.3387 186.85 21.9173 187.106 21.592C187.368 21.2667 187.722 21.0293 188.17 20.88C188.618 20.7253 189.122 20.648 189.682 20.648C190.082 20.648 190.482 20.688 190.882 20.768C191.288 20.848 191.682 20.9573 192.066 21.096V21.88C191.746 21.752 191.384 21.6507 190.978 21.576C190.578 21.5013 190.21 21.464 189.874 21.464C189.362 21.464 188.93 21.5707 188.578 21.784C188.226 21.992 188.05 22.3493 188.05 22.856C188.05 23.2293 188.184 23.5493 188.45 23.816C188.722 24.0827 189.154 24.216 189.746 24.216C190.162 24.216 190.536 24.12 190.866 23.928C191.202 23.7307 191.466 23.4853 191.658 23.192C191.856 22.8987 191.954 22.6053 191.954 22.312H192.258C192.258 22.824 192.146 23.2987 191.922 23.736C191.704 24.1733 191.389 24.5253 190.978 24.792C190.568 25.0587 190.077 25.192 189.506 25.192ZM199.039 25.192C198.426 25.192 197.852 25.0267 197.319 24.696C196.791 24.3653 196.364 23.8987 196.039 23.296C195.714 22.6933 195.551 21.9813 195.551 21.16C195.551 20.3173 195.714 19.5973 196.039 19C196.364 18.4027 196.791 17.9467 197.319 17.632C197.852 17.3173 198.426 17.16 199.039 17.16C199.471 17.16 199.858 17.2267 200.199 17.36C200.546 17.488 200.847 17.6667 201.103 17.896C201.359 18.1253 201.57 18.3867 201.735 18.68C201.906 18.968 202.031 19.272 202.111 19.592L200.831 19.704C200.698 19.2613 200.474 18.912 200.159 18.656C199.85 18.3947 199.471 18.264 199.023 18.264C198.644 18.264 198.287 18.3733 197.951 18.592C197.62 18.8053 197.351 19.128 197.143 19.56C196.935 19.9867 196.831 20.52 196.831 21.16C196.831 21.752 196.924 22.2667 197.111 22.704C197.303 23.136 197.564 23.472 197.895 23.712C198.226 23.952 198.602 24.072 199.023 24.072C199.615 24.072 200.063 23.928 200.367 23.64C200.676 23.3467 200.831 22.9413 200.831 22.424H202.111C202.111 22.9573 201.986 23.432 201.735 23.848C201.484 24.264 201.127 24.592 200.663 24.832C200.204 25.072 199.663 25.192 199.039 25.192ZM210.201 25V20.504C210.201 19.7733 210.025 19.2187 209.673 18.84C209.326 18.456 208.852 18.264 208.249 18.264C207.79 18.264 207.393 18.3893 207.057 18.64C206.721 18.8907 206.462 19.2507 206.281 19.72C206.1 20.184 206.009 20.7387 206.009 21.384H205.529C205.529 20.4933 205.646 19.7333 205.881 19.104C206.116 18.4747 206.457 17.9947 206.905 17.664C207.358 17.328 207.908 17.16 208.553 17.16C209.156 17.16 209.67 17.296 210.097 17.568C210.529 17.8347 210.86 18.2187 211.089 18.72C211.318 19.2213 211.433 19.816 211.433 20.504V25H210.201ZM204.761 25V14.088H206.009V25H204.761ZM34.968 45.192C34.552 45.192 34.1787 45.112 33.848 44.952C33.5173 44.792 33.256 44.552 33.064 44.232C32.872 43.912 32.776 43.512 32.776 43.032V35.224H34.008V43C34.008 43.7893 34.376 44.184 35.112 44.184C35.3307 44.184 35.5413 44.16 35.744 44.112C35.952 44.064 36.184 43.992 36.44 43.896L36.616 44.792C36.344 44.9093 36.072 45.0053 35.8 45.08C35.5333 45.1547 35.256 45.192 34.968 45.192ZM31.544 38.216V37.352H36.424V38.216H31.544ZM44.2316 45V40.504C44.2316 39.7733 44.0556 39.2187 43.7036 38.84C43.357 38.456 42.8823 38.264 42.2796 38.264C41.821 38.264 41.4236 38.3893 41.0876 38.64C40.7516 38.8907 40.493 39.2507 40.3116 39.72C40.1303 40.184 40.0396 40.7387 40.0396 41.384H39.5596C39.5596 40.4933 39.677 39.7333 39.9116 39.104C40.1463 38.4747 40.4876 37.9947 40.9356 37.664C41.389 37.328 41.9383 37.16 42.5836 37.16C43.1863 37.16 43.701 37.296 44.1276 37.568C44.5596 37.8347 44.8903 38.2187 45.1196 38.72C45.349 39.2213 45.4636 39.816 45.4636 40.504V45H44.2316ZM38.7916 45V34.088H40.0396V45H38.7916ZM51.2639 45.192C50.6025 45.192 50.0105 45.024 49.4879 44.688C48.9705 44.3467 48.5599 43.8747 48.2559 43.272C47.9572 42.6693 47.8079 41.976 47.8079 41.192C47.8079 40.3547 47.9572 39.6347 48.2559 39.032C48.5545 38.4293 48.9625 37.968 49.4799 37.648C50.0025 37.3227 50.5972 37.16 51.2639 37.16C51.8452 37.16 52.3412 37.2773 52.7519 37.512C53.1625 37.7467 53.4932 38.064 53.7439 38.464C53.9945 38.864 54.1679 39.3173 54.2639 39.824C54.3652 40.3253 54.3945 40.8453 54.3519 41.384H48.8159V40.616H53.5279L53.1599 40.856C53.1759 40.5413 53.1572 40.2267 53.1039 39.912C53.0559 39.5973 52.9625 39.3093 52.8239 39.048C52.6852 38.7813 52.4905 38.568 52.2399 38.408C51.9892 38.248 51.6692 38.168 51.2799 38.168C50.7892 38.168 50.3785 38.2933 50.0479 38.544C49.7172 38.7947 49.4692 39.1253 49.3039 39.536C49.1385 39.9413 49.0559 40.3813 49.0559 40.856V41.368C49.0559 41.9013 49.1359 42.3787 49.2959 42.8C49.4612 43.2213 49.7065 43.5547 50.0319 43.8C50.3572 44.0453 50.7679 44.168 51.2639 44.168C51.7599 44.168 52.1679 44.048 52.4879 43.808C52.8079 43.568 53.0025 43.2133 53.0719 42.744H54.3679C54.2879 43.2507 54.1065 43.688 53.8239 44.056C53.5412 44.4187 53.1812 44.6987 52.7439 44.896C52.3065 45.0933 51.8132 45.192 51.2639 45.192ZM60.8155 45V34.616H65.0075C65.8075 34.616 66.4715 34.7413 66.9995 34.992C67.5275 35.2373 67.9222 35.568 68.1835 35.984C68.4448 36.4 68.5755 36.8613 68.5755 37.368C68.5755 37.9547 68.4102 38.456 68.0795 38.872C67.7542 39.288 67.2955 39.5813 66.7035 39.752C67.0928 39.832 67.4422 39.9787 67.7515 40.192C68.0608 40.4053 68.3035 40.6747 68.4795 41C68.6608 41.3253 68.7515 41.6987 68.7515 42.12C68.7515 42.4507 68.6928 42.784 68.5755 43.12C68.4635 43.456 68.2662 43.768 67.9835 44.056C67.7062 44.3387 67.3248 44.568 66.8395 44.744C66.3595 44.9147 65.7542 45 65.0235 45H60.8155ZM62.7035 43.352H64.9755C65.5782 43.352 66.0182 43.232 66.2955 42.992C66.5782 42.7467 66.7195 42.4187 66.7195 42.008C66.7195 41.5973 66.5755 41.2693 66.2875 41.024C65.9995 40.7733 65.5622 40.648 64.9755 40.648H62.7035V43.352ZM62.7035 36.248V39H64.9275C65.4875 39 65.9115 38.8773 66.1995 38.632C66.4928 38.3813 66.6395 38.04 66.6395 37.608C66.6395 37.1973 66.4955 36.8693 66.2075 36.624C65.9248 36.3733 65.5035 36.248 64.9435 36.248H62.7035ZM71.3505 45V34.616H75.1905C76.4332 34.616 77.3852 34.9067 78.0465 35.488C78.7132 36.0693 79.0465 36.84 79.0465 37.8C79.0465 38.744 78.7132 39.5067 78.0465 40.088C77.3852 40.664 76.4332 40.952 75.1905 40.952H73.2385V45H71.3505ZM76.9665 45L74.2145 40.136H76.2305L79.4305 45H76.9665ZM73.2385 39.688H74.9985C75.6918 39.688 76.2172 39.5307 76.5745 39.216C76.9318 38.896 77.1105 38.4827 77.1105 37.976C77.1105 37.4587 76.9478 37.0427 76.6225 36.728C76.2972 36.408 75.8198 36.248 75.1905 36.248H73.2385V39.688ZM81.8074 45V34.616H83.6954V45H81.8074ZM90.6184 45.224C89.7064 45.224 88.9117 45.008 88.2344 44.576C87.5624 44.1387 87.0397 43.5147 86.6664 42.704C86.293 41.8933 86.1064 40.92 86.1064 39.784C86.1064 38.6107 86.2984 37.6267 86.6824 36.832C87.0717 36.032 87.605 35.4293 88.2824 35.024C88.965 34.6133 89.7437 34.408 90.6184 34.408C91.829 34.408 92.773 34.7013 93.4504 35.288C94.133 35.8747 94.5704 36.6373 94.7624 37.576L92.7464 37.944C92.581 37.4 92.317 36.96 91.9544 36.624C91.5917 36.288 91.1464 36.12 90.6184 36.12C90.1544 36.12 89.7357 36.256 89.3624 36.528C88.989 36.7947 88.6904 37.2 88.4664 37.744C88.2477 38.288 88.1384 38.968 88.1384 39.784C88.1384 40.552 88.2344 41.2133 88.4264 41.768C88.6237 42.3227 88.9064 42.7493 89.2744 43.048C89.6424 43.3467 90.0904 43.496 90.6184 43.496C91.2957 43.496 91.8184 43.3173 92.1864 42.96C92.5597 42.5973 92.7464 42.136 92.7464 41.576H94.7624C94.7624 42.3493 94.5944 43.008 94.2584 43.552C93.9277 44.0907 93.453 44.504 92.8344 44.792C92.2157 45.08 91.477 45.224 90.6184 45.224ZM101.111 45.224C100.188 45.224 99.3723 45.0213 98.663 44.616C97.959 44.2107 97.407 43.6053 97.007 42.8C96.607 41.9947 96.407 40.9947 96.407 39.8C96.407 38.584 96.607 37.5787 97.007 36.784C97.407 35.984 97.959 35.3893 98.663 35C99.3723 34.6053 100.188 34.408 101.111 34.408C102.039 34.408 102.858 34.6107 103.567 35.016C104.276 35.416 104.831 36.016 105.231 36.816C105.631 37.616 105.831 38.6107 105.831 39.8C105.831 41.0107 105.631 42.0187 105.231 42.824C104.831 43.6293 104.276 44.232 103.567 44.632C102.858 45.0267 102.039 45.224 101.111 45.224ZM101.111 43.512C101.959 43.512 102.631 43.192 103.127 42.552C103.628 41.912 103.879 40.9893 103.879 39.784C103.879 38.6213 103.628 37.7173 103.127 37.072C102.631 36.4267 101.959 36.104 101.111 36.104C100.279 36.104 99.6123 36.4293 99.111 37.08C98.6097 37.7253 98.359 38.632 98.359 39.8C98.359 41 98.6097 41.92 99.111 42.56C99.6123 43.1947 100.279 43.512 101.111 43.512ZM110.113 34.616V43.352H114.385V45H108.225V34.616H110.113ZM115.155 45L118.691 34.616H121.059L124.451 45H122.467L121.747 42.76H117.891L117.155 45H115.155ZM118.371 41.336H121.299L119.843 36.872L118.371 41.336ZM130.259 45.224C129.411 45.224 128.645 45 127.963 44.552C127.28 44.104 126.736 43.48 126.331 42.68C125.931 41.8747 125.731 40.936 125.731 39.864C125.731 39.016 125.853 38.256 126.099 37.584C126.349 36.912 126.696 36.3387 127.139 35.864C127.581 35.3893 128.101 35.0293 128.699 34.784C129.296 34.5333 129.944 34.408 130.643 34.408C131.613 34.408 132.427 34.6187 133.083 35.04C133.744 35.4613 134.259 36.1253 134.627 37.032L132.691 37.48C132.419 37.0373 132.104 36.7013 131.747 36.472C131.395 36.2373 130.995 36.12 130.547 36.12C130.035 36.12 129.568 36.272 129.147 36.576C128.725 36.8747 128.389 37.304 128.139 37.864C127.888 38.424 127.763 39.0907 127.763 39.864C127.763 40.5893 127.872 41.224 128.091 41.768C128.315 42.312 128.627 42.736 129.027 43.04C129.427 43.344 129.891 43.496 130.419 43.496C130.867 43.496 131.267 43.3973 131.619 43.2C131.976 42.9973 132.256 42.7093 132.459 42.336C132.667 41.9627 132.771 41.512 132.771 40.984H133.187C133.187 41.848 133.083 42.5973 132.875 43.232C132.672 43.8667 132.355 44.3573 131.923 44.704C131.491 45.0507 130.936 45.224 130.259 45.224ZM133.043 45L132.771 42.712V40.92L130.435 40.872V39.672H134.579V45H133.043ZM137.439 45V34.616H144.111V36.248H139.327V38.984H143.823V40.616H139.327V43.352H144.111V45H137.439ZM154.562 45.192C154.002 45.192 153.514 45.064 153.098 44.808C152.688 44.552 152.37 44.1787 152.146 43.688C151.922 43.192 151.81 42.5893 151.81 41.88H152.338C152.338 42.3547 152.437 42.7547 152.634 43.08C152.832 43.4053 153.088 43.6533 153.402 43.824C153.722 43.9893 154.061 44.072 154.418 44.072C154.802 44.072 155.17 43.9627 155.522 43.744C155.874 43.52 156.162 43.192 156.386 42.76C156.61 42.328 156.722 41.7947 156.722 41.16C156.722 40.552 156.618 40.032 156.41 39.6C156.208 39.168 155.933 38.8373 155.586 38.608C155.24 38.3787 154.856 38.264 154.434 38.264C154.072 38.264 153.73 38.352 153.41 38.528C153.09 38.704 152.832 38.9627 152.634 39.304C152.437 39.64 152.338 40.056 152.338 40.552H151.81C151.81 39.8107 151.933 39.1893 152.178 38.688C152.424 38.1813 152.757 37.8 153.178 37.544C153.6 37.288 154.072 37.16 154.594 37.16C155.192 37.16 155.749 37.32 156.266 37.64C156.784 37.96 157.202 38.4187 157.522 39.016C157.842 39.6133 158.002 40.328 158.002 41.16C158.002 42.0027 157.84 42.7253 157.514 43.328C157.194 43.9307 156.773 44.392 156.25 44.712C155.728 45.032 155.165 45.192 154.562 45.192ZM151.09 48.76V37.352H152.13L152.338 39.144V48.76H151.09ZM165.346 45L165.186 43.32V40.04C165.186 39.352 165.039 38.8587 164.746 38.56C164.452 38.256 164.012 38.104 163.426 38.104C163.095 38.104 162.794 38.152 162.522 38.248C162.255 38.344 162.042 38.4933 161.882 38.696C161.727 38.8933 161.65 39.1493 161.65 39.464H160.258C160.258 38.9093 160.394 38.464 160.666 38.128C160.938 37.7867 161.311 37.5413 161.786 37.392C162.266 37.2373 162.812 37.16 163.426 37.16C164.012 37.16 164.532 37.2587 164.986 37.456C165.439 37.6533 165.794 37.968 166.05 38.4C166.306 38.8267 166.434 39.384 166.434 40.072V45H165.346ZM162.738 45.192C162.108 45.192 161.588 45.08 161.178 44.856C160.767 44.632 160.46 44.3413 160.258 43.984C160.055 43.6267 159.954 43.2507 159.954 42.856C159.954 42.3387 160.082 41.9173 160.338 41.592C160.599 41.2667 160.954 41.0293 161.402 40.88C161.85 40.7253 162.354 40.648 162.914 40.648C163.314 40.648 163.714 40.688 164.114 40.768C164.519 40.848 164.914 40.9573 165.298 41.096V41.88C164.978 41.752 164.615 41.6507 164.21 41.576C163.81 41.5013 163.442 41.464 163.106 41.464C162.594 41.464 162.162 41.5707 161.81 41.784C161.458 41.992 161.282 42.3493 161.282 42.856C161.282 43.2293 161.415 43.5493 161.682 43.816C161.954 44.0827 162.386 44.216 162.978 44.216C163.394 44.216 163.767 44.12 164.098 43.928C164.434 43.7307 164.698 43.4853 164.89 43.192C165.087 42.8987 165.186 42.6053 165.186 42.312H165.49C165.49 42.824 165.378 43.2987 165.154 43.736C164.935 44.1733 164.62 44.5253 164.21 44.792C163.799 45.0587 163.308 45.192 162.738 45.192ZM172.286 48.936C171.502 48.936 170.822 48.824 170.246 48.6C169.67 48.3813 169.222 48.0853 168.902 47.712C168.588 47.344 168.43 46.936 168.43 46.488C168.43 45.896 168.646 45.4427 169.078 45.128C169.516 44.8187 170.078 44.664 170.766 44.664L171.454 45.096C170.878 45.096 170.433 45.216 170.118 45.456C169.804 45.696 169.646 46.024 169.646 46.44C169.646 46.856 169.87 47.208 170.318 47.496C170.766 47.784 171.422 47.928 172.286 47.928C172.926 47.928 173.486 47.8347 173.966 47.648C174.452 47.4667 174.828 47.2267 175.094 46.928C175.366 46.6347 175.502 46.3173 175.502 45.976C175.502 45.736 175.414 45.528 175.238 45.352C175.062 45.1813 174.793 45.096 174.43 45.096H171.454C170.937 45.096 170.489 45.0187 170.11 44.864C169.737 44.704 169.449 44.496 169.246 44.24C169.044 43.984 168.942 43.704 168.942 43.4C168.942 43.08 169.033 42.808 169.214 42.584C169.396 42.36 169.63 42.1893 169.918 42.072C170.212 41.9547 170.526 41.896 170.862 41.896L171.102 42.36C170.942 42.36 170.78 42.3973 170.614 42.472C170.454 42.5413 170.318 42.648 170.206 42.792C170.1 42.9307 170.046 43.1067 170.046 43.32C170.046 43.5653 170.148 43.7707 170.35 43.936C170.553 44.1013 170.921 44.184 171.454 44.184H174.43C175.15 44.184 175.716 44.336 176.126 44.64C176.542 44.944 176.75 45.368 176.75 45.912C176.75 46.4133 176.572 46.8933 176.214 47.352C175.857 47.816 175.345 48.1947 174.678 48.488C174.012 48.7867 173.214 48.936 172.286 48.936ZM172.51 42.76C171.924 42.76 171.393 42.6427 170.918 42.408C170.449 42.1733 170.076 41.8453 169.798 41.424C169.526 41.0027 169.39 40.5147 169.39 39.96C169.39 39.4 169.526 38.9093 169.798 38.488C170.076 38.0667 170.449 37.7413 170.918 37.512C171.393 37.2773 171.924 37.16 172.51 37.16C173.081 37.16 173.598 37.2773 174.062 37.512C174.532 37.7413 174.905 38.0667 175.182 38.488C175.46 38.9093 175.598 39.4 175.598 39.96C175.598 40.5147 175.46 41.0027 175.182 41.424C174.905 41.8453 174.532 42.1733 174.062 42.408C173.598 42.6427 173.081 42.76 172.51 42.76ZM172.51 41.864C173.097 41.864 173.553 41.6827 173.878 41.32C174.204 40.9573 174.366 40.504 174.366 39.96C174.366 39.4 174.204 38.9467 173.878 38.6C173.553 38.248 173.097 38.072 172.51 38.072C171.929 38.072 171.47 38.248 171.134 38.6C170.804 38.9467 170.638 39.4 170.638 39.96C170.638 40.504 170.804 40.9573 171.134 41.32C171.47 41.6827 171.929 41.864 172.51 41.864ZM175.022 38.376L174.43 38.136C174.43 37.688 174.518 37.296 174.694 36.96C174.87 36.6187 175.121 36.3547 175.446 36.168C175.772 35.976 176.158 35.88 176.606 35.88L176.51 37.112C176.03 37.112 175.662 37.216 175.406 37.424C175.15 37.6267 175.022 37.944 175.022 38.376ZM181.43 45.192C180.768 45.192 180.176 45.024 179.654 44.688C179.136 44.3467 178.726 43.8747 178.422 43.272C178.123 42.6693 177.974 41.976 177.974 41.192C177.974 40.3547 178.123 39.6347 178.422 39.032C178.72 38.4293 179.128 37.968 179.646 37.648C180.168 37.3227 180.763 37.16 181.43 37.16C182.011 37.16 182.507 37.2773 182.918 37.512C183.328 37.7467 183.659 38.064 183.91 38.464C184.16 38.864 184.334 39.3173 184.43 39.824C184.531 40.3253 184.56 40.8453 184.518 41.384H178.982V40.616H183.694L183.326 40.856C183.342 40.5413 183.323 40.2267 183.27 39.912C183.222 39.5973 183.128 39.3093 182.99 39.048C182.851 38.7813 182.656 38.568 182.406 38.408C182.155 38.248 181.835 38.168 181.446 38.168C180.955 38.168 180.544 38.2933 180.214 38.544C179.883 38.7947 179.635 39.1253 179.47 39.536C179.304 39.9413 179.222 40.3813 179.222 40.856V41.368C179.222 41.9013 179.302 42.3787 179.462 42.8C179.627 43.2213 179.872 43.5547 180.198 43.8C180.523 44.0453 180.934 44.168 181.43 44.168C181.926 44.168 182.334 44.048 182.654 43.808C182.974 43.568 183.168 43.2133 183.238 42.744H184.534C184.454 43.2507 184.272 43.688 183.99 44.056C183.707 44.4187 183.347 44.6987 182.91 44.896C182.472 45.0933 181.979 45.192 181.43 45.192ZM186.96 46.744L186.016 46.28C186.32 46.1253 186.576 45.9547 186.784 45.768C186.998 45.5813 187.136 45.352 187.2 45.08C186.971 45.0533 186.774 44.9707 186.608 44.832C186.448 44.6933 186.368 44.5093 186.368 44.28C186.368 44.056 186.451 43.864 186.616 43.704C186.787 43.544 187.003 43.464 187.264 43.464C187.595 43.464 187.862 43.584 188.064 43.824C188.267 44.064 188.368 44.3493 188.368 44.68C188.368 45.0693 188.248 45.4507 188.008 45.824C187.774 46.2027 187.424 46.5093 186.96 46.744ZM196.965 45.192C196.549 45.192 196.176 45.112 195.845 44.952C195.514 44.792 195.253 44.552 195.061 44.232C194.869 43.912 194.773 43.512 194.773 43.032V35.224H196.005V43C196.005 43.7893 196.373 44.184 197.109 44.184C197.328 44.184 197.538 44.16 197.741 44.112C197.949 44.064 198.181 43.992 198.437 43.896L198.613 44.792C198.341 44.9093 198.069 45.0053 197.797 45.08C197.53 45.1547 197.253 45.192 196.965 45.192ZM193.541 38.216V37.352H198.421V38.216H193.541ZM206.229 45V40.504C206.229 39.7733 206.053 39.2187 205.701 38.84C205.354 38.456 204.879 38.264 204.277 38.264C203.818 38.264 203.421 38.3893 203.085 38.64C202.749 38.8907 202.49 39.2507 202.309 39.72C202.127 40.184 202.037 40.7387 202.037 41.384H201.557C201.557 40.4933 201.674 39.7333 201.909 39.104C202.143 38.4747 202.485 37.9947 202.933 37.664C203.386 37.328 203.935 37.16 204.581 37.16C205.183 37.16 205.698 37.296 206.125 37.568C206.557 37.8347 206.887 38.2187 207.117 38.72C207.346 39.2213 207.461 39.816 207.461 40.504V45H206.229ZM200.789 45V34.088H202.037V45H200.789ZM213.261 45.192C212.599 45.192 212.007 45.024 211.485 44.688C210.967 44.3467 210.557 43.8747 210.253 43.272C209.954 42.6693 209.805 41.976 209.805 41.192C209.805 40.3547 209.954 39.6347 210.253 39.032C210.551 38.4293 210.959 37.968 211.477 37.648C211.999 37.3227 212.594 37.16 213.261 37.16C213.842 37.16 214.338 37.2773 214.749 37.512C215.159 37.7467 215.49 38.064 215.741 38.464C215.991 38.864 216.165 39.3173 216.261 39.824C216.362 40.3253 216.391 40.8453 216.349 41.384H210.813V40.616H215.525L215.157 40.856C215.173 40.5413 215.154 40.2267 215.101 39.912C215.053 39.5973 214.959 39.3093 214.821 39.048C214.682 38.7813 214.487 38.568 214.237 38.408C213.986 38.248 213.666 38.168 213.277 38.168C212.786 38.168 212.375 38.2933 212.045 38.544C211.714 38.7947 211.466 39.1253 211.301 39.536C211.135 39.9413 211.053 40.3813 211.053 40.856V41.368C211.053 41.9013 211.133 42.3787 211.293 42.8C211.458 43.2213 211.703 43.5547 212.029 43.8C212.354 44.0453 212.765 44.168 213.261 44.168C213.757 44.168 214.165 44.048 214.485 43.808C214.805 43.568 214.999 43.2133 215.069 42.744H216.365C216.285 43.2507 216.103 43.688 215.821 44.056C215.538 44.4187 215.178 44.6987 214.741 44.896C214.303 45.0933 213.81 45.192 213.261 45.192ZM36.28 65.224C35.432 65.224 34.6667 65 33.984 64.552C33.3013 64.104 32.7573 63.48 32.352 62.68C31.952 61.8747 31.752 60.936 31.752 59.864C31.752 59.016 31.8747 58.256 32.12 57.584C32.3707 56.912 32.7173 56.3387 33.16 55.864C33.6027 55.3893 34.1227 55.0293 34.72 54.784C35.3173 54.5333 35.9653 54.408 36.664 54.408C37.6347 54.408 38.448 54.6187 39.104 55.04C39.7653 55.4613 40.28 56.1253 40.648 57.032L38.712 57.48C38.44 57.0373 38.1253 56.7013 37.768 56.472C37.416 56.2373 37.016 56.12 36.568 56.12C36.056 56.12 35.5893 56.272 35.168 56.576C34.7467 56.8747 34.4107 57.304 34.16 57.864C33.9093 58.424 33.784 59.0907 33.784 59.864C33.784 60.5893 33.8933 61.224 34.112 61.768C34.336 62.312 34.648 62.736 35.048 63.04C35.448 63.344 35.912 63.496 36.44 63.496C36.888 63.496 37.288 63.3973 37.64 63.2C37.9973 62.9973 38.2773 62.7093 38.48 62.336C38.688 61.9627 38.792 61.512 38.792 60.984H39.208C39.208 61.848 39.104 62.5973 38.896 63.232C38.6933 63.8667 38.376 64.3573 37.944 64.704C37.512 65.0507 36.9573 65.224 36.28 65.224ZM39.064 65L38.792 62.712V60.92L36.456 60.872V59.672H40.6V65H39.064ZM42.3401 65L45.8761 54.616H48.2441L51.6361 65H49.6521L48.9321 62.76H45.0761L44.3401 65H42.3401ZM45.5561 61.336H48.4841L47.0281 56.872L45.5561 61.336ZM53.6517 65V54.616H57.4917C58.7344 54.616 59.6864 54.9067 60.3477 55.488C61.0144 56.0693 61.3477 56.84 61.3477 57.8C61.3477 58.744 61.0144 59.5067 60.3477 60.088C59.6864 60.664 58.7344 60.952 57.4917 60.952H55.5397V65H53.6517ZM59.2678 65L56.5157 60.136H58.5318L61.7318 65H59.2678ZM55.5397 59.688H57.2997C57.9931 59.688 58.5184 59.5307 58.8758 59.216C59.2331 58.896 59.4117 58.4827 59.4117 57.976C59.4117 57.4587 59.2491 57.0427 58.9237 56.728C58.5984 56.408 58.1211 56.248 57.4917 56.248H55.5397V59.688ZM64.1086 54.616H67.4686C68.5246 54.616 69.45 54.8293 70.2446 55.256C71.0393 55.6773 71.658 56.2773 72.1006 57.056C72.5433 57.8347 72.7646 58.7547 72.7646 59.816C72.7646 60.8667 72.5433 61.7813 72.1006 62.56C71.658 63.3333 71.0393 63.9333 70.2446 64.36C69.45 64.7867 68.5246 65 67.4686 65H64.1086V54.616ZM65.9966 56.328V63.304H67.4686C68.1406 63.304 68.7193 63.152 69.2046 62.848C69.6953 62.544 70.0713 62.1307 70.3326 61.608C70.5993 61.08 70.7326 60.4827 70.7326 59.816C70.7326 59.1387 70.5993 58.5387 70.3326 58.016C70.0713 57.4933 69.6953 57.0827 69.2046 56.784C68.7193 56.48 68.1406 56.328 67.4686 56.328H65.9966ZM75.237 65V54.616H81.909V56.248H77.125V58.984H81.621V60.616H77.125V63.352H81.909V65H75.237ZM84.7716 54.616H86.8356L91.5556 62.024H91.4116V54.616H93.2996V65H91.3796L86.3556 57.144H86.6596V65H84.7716V54.616ZM96.4324 65V54.616H98.3204V65H96.4324ZM101.435 54.616H103.499L108.219 62.024H108.075V54.616H109.963V65H108.043L103.019 57.144H103.323V65H101.435V54.616ZM116.888 65.224C116.04 65.224 115.275 65 114.592 64.552C113.909 64.104 113.365 63.48 112.96 62.68C112.56 61.8747 112.36 60.936 112.36 59.864C112.36 59.016 112.483 58.256 112.728 57.584C112.979 56.912 113.325 56.3387 113.768 55.864C114.211 55.3893 114.731 55.0293 115.328 54.784C115.925 54.5333 116.573 54.408 117.272 54.408C118.243 54.408 119.056 54.6187 119.712 55.04C120.373 55.4613 120.888 56.1253 121.256 57.032L119.32 57.48C119.048 57.0373 118.733 56.7013 118.376 56.472C118.024 56.2373 117.624 56.12 117.176 56.12C116.664 56.12 116.197 56.272 115.776 56.576C115.355 56.8747 115.019 57.304 114.768 57.864C114.517 58.424 114.392 59.0907 114.392 59.864C114.392 60.5893 114.501 61.224 114.72 61.768C114.944 62.312 115.256 62.736 115.656 63.04C116.056 63.344 116.52 63.496 117.048 63.496C117.496 63.496 117.896 63.3973 118.248 63.2C118.605 62.9973 118.885 62.7093 119.088 62.336C119.296 61.9627 119.4 61.512 119.4 60.984H119.816C119.816 61.848 119.712 62.5973 119.504 63.232C119.301 63.8667 118.984 64.3573 118.552 64.704C118.12 65.0507 117.565 65.224 116.888 65.224ZM119.672 65L119.4 62.712V60.92L117.064 60.872V59.672H121.208V65H119.672ZM131.641 65.192C131.081 65.192 130.593 65.064 130.177 64.808C129.766 64.552 129.449 64.1787 129.225 63.688C129.001 63.192 128.889 62.5893 128.889 61.88H129.417C129.417 62.3547 129.516 62.7547 129.713 63.08C129.91 63.4053 130.166 63.6533 130.481 63.824C130.801 63.9893 131.14 64.072 131.497 64.072C131.881 64.072 132.249 63.9627 132.601 63.744C132.953 63.52 133.241 63.192 133.465 62.76C133.689 62.328 133.801 61.7947 133.801 61.16C133.801 60.552 133.697 60.032 133.489 59.6C133.286 59.168 133.012 58.8373 132.665 58.608C132.318 58.3787 131.934 58.264 131.513 58.264C131.15 58.264 130.809 58.352 130.489 58.528C130.169 58.704 129.91 58.9627 129.713 59.304C129.516 59.64 129.417 60.056 129.417 60.552H128.889C128.889 59.8107 129.012 59.1893 129.257 58.688C129.502 58.1813 129.836 57.8 130.257 57.544C130.678 57.288 131.15 57.16 131.673 57.16C132.27 57.16 132.828 57.32 133.345 57.64C133.862 57.96 134.281 58.4187 134.601 59.016C134.921 59.6133 135.081 60.328 135.081 61.16C135.081 62.0027 134.918 62.7253 134.593 63.328C134.273 63.9307 133.852 64.392 133.329 64.712C132.806 65.032 132.244 65.192 131.641 65.192ZM128.169 68.76V57.352H129.209L129.417 59.144V68.76H128.169ZM142.425 65L142.265 63.32V60.04C142.265 59.352 142.118 58.8587 141.825 58.56C141.531 58.256 141.091 58.104 140.505 58.104C140.174 58.104 139.873 58.152 139.601 58.248C139.334 58.344 139.121 58.4933 138.961 58.696C138.806 58.8933 138.729 59.1493 138.729 59.464H137.337C137.337 58.9093 137.473 58.464 137.745 58.128C138.017 57.7867 138.39 57.5413 138.865 57.392C139.345 57.2373 139.891 57.16 140.505 57.16C141.091 57.16 141.611 57.2587 142.065 57.456C142.518 57.6533 142.873 57.968 143.129 58.4C143.385 58.8267 143.513 59.384 143.513 60.072V65H142.425ZM139.817 65.192C139.187 65.192 138.667 65.08 138.257 64.856C137.846 64.632 137.539 64.3413 137.337 63.984C137.134 63.6267 137.033 63.2507 137.033 62.856C137.033 62.3387 137.161 61.9173 137.417 61.592C137.678 61.2667 138.033 61.0293 138.481 60.88C138.929 60.7253 139.433 60.648 139.993 60.648C140.393 60.648 140.793 60.688 141.193 60.768C141.598 60.848 141.993 60.9573 142.377 61.096V61.88C142.057 61.752 141.694 61.6507 141.289 61.576C140.889 61.5013 140.521 61.464 140.185 61.464C139.673 61.464 139.241 61.5707 138.889 61.784C138.537 61.992 138.361 62.3493 138.361 62.856C138.361 63.2293 138.494 63.5493 138.761 63.816C139.033 64.0827 139.465 64.216 140.057 64.216C140.473 64.216 140.846 64.12 141.177 63.928C141.513 63.7307 141.777 63.4853 141.969 63.192C142.166 62.8987 142.265 62.6053 142.265 62.312H142.569C142.569 62.824 142.457 63.2987 142.233 63.736C142.014 64.1733 141.699 64.5253 141.289 64.792C140.878 65.0587 140.387 65.192 139.817 65.192ZM149.365 68.936C148.581 68.936 147.901 68.824 147.325 68.6C146.749 68.3813 146.301 68.0853 145.981 67.712C145.666 67.344 145.509 66.936 145.509 66.488C145.509 65.896 145.725 65.4427 146.157 65.128C146.594 64.8187 147.157 64.664 147.845 64.664L148.533 65.096C147.957 65.096 147.512 65.216 147.197 65.456C146.882 65.696 146.725 66.024 146.725 66.44C146.725 66.856 146.949 67.208 147.397 67.496C147.845 67.784 148.501 67.928 149.365 67.928C150.005 67.928 150.565 67.8347 151.045 67.648C151.53 67.4667 151.906 67.2267 152.173 66.928C152.445 66.6347 152.581 66.3173 152.581 65.976C152.581 65.736 152.493 65.528 152.317 65.352C152.141 65.1813 151.872 65.096 151.509 65.096H148.533C148.016 65.096 147.568 65.0187 147.189 64.864C146.816 64.704 146.528 64.496 146.325 64.24C146.122 63.984 146.021 63.704 146.021 63.4C146.021 63.08 146.112 62.808 146.293 62.584C146.474 62.36 146.709 62.1893 146.997 62.072C147.29 61.9547 147.605 61.896 147.941 61.896L148.181 62.36C148.021 62.36 147.858 62.3973 147.693 62.472C147.533 62.5413 147.397 62.648 147.285 62.792C147.178 62.9307 147.125 63.1067 147.125 63.32C147.125 63.5653 147.226 63.7707 147.429 63.936C147.632 64.1013 148 64.184 148.533 64.184H151.509C152.229 64.184 152.794 64.336 153.205 64.64C153.621 64.944 153.829 65.368 153.829 65.912C153.829 66.4133 153.65 66.8933 153.293 67.352C152.936 67.816 152.424 68.1947 151.757 68.488C151.09 68.7867 150.293 68.936 149.365 68.936ZM149.589 62.76C149.002 62.76 148.472 62.6427 147.997 62.408C147.528 62.1733 147.154 61.8453 146.877 61.424C146.605 61.0027 146.469 60.5147 146.469 59.96C146.469 59.4 146.605 58.9093 146.877 58.488C147.154 58.0667 147.528 57.7413 147.997 57.512C148.472 57.2773 149.002 57.16 149.589 57.16C150.16 57.16 150.677 57.2773 151.141 57.512C151.61 57.7413 151.984 58.0667 152.261 58.488C152.538 58.9093 152.677 59.4 152.677 59.96C152.677 60.5147 152.538 61.0027 152.261 61.424C151.984 61.8453 151.61 62.1733 151.141 62.408C150.677 62.6427 150.16 62.76 149.589 62.76ZM149.589 61.864C150.176 61.864 150.632 61.6827 150.957 61.32C151.282 60.9573 151.445 60.504 151.445 59.96C151.445 59.4 151.282 58.9467 150.957 58.6C150.632 58.248 150.176 58.072 149.589 58.072C149.008 58.072 148.549 58.248 148.213 58.6C147.882 58.9467 147.717 59.4 147.717 59.96C147.717 60.504 147.882 60.9573 148.213 61.32C148.549 61.6827 149.008 61.864 149.589 61.864ZM152.101 58.376L151.509 58.136C151.509 57.688 151.597 57.296 151.773 56.96C151.949 56.6187 152.2 56.3547 152.525 56.168C152.85 55.976 153.237 55.88 153.685 55.88L153.589 57.112C153.109 57.112 152.741 57.216 152.485 57.424C152.229 57.6267 152.101 57.944 152.101 58.376ZM158.508 65.192C157.847 65.192 157.255 65.024 156.732 64.688C156.215 64.3467 155.804 63.8747 155.5 63.272C155.202 62.6693 155.052 61.976 155.052 61.192C155.052 60.3547 155.202 59.6347 155.5 59.032C155.799 58.4293 156.207 57.968 156.724 57.648C157.247 57.3227 157.842 57.16 158.508 57.16C159.09 57.16 159.586 57.2773 159.996 57.512C160.407 57.7467 160.738 58.064 160.988 58.464C161.239 58.864 161.412 59.3173 161.508 59.824C161.61 60.3253 161.639 60.8453 161.596 61.384H156.06V60.616H160.772L160.404 60.856C160.42 60.5413 160.402 60.2267 160.348 59.912C160.3 59.5973 160.207 59.3093 160.068 59.048C159.93 58.7813 159.735 58.568 159.484 58.408C159.234 58.248 158.914 58.168 158.524 58.168C158.034 58.168 157.623 58.2933 157.292 58.544C156.962 58.7947 156.714 59.1253 156.548 59.536C156.383 59.9413 156.3 60.3813 156.3 60.856V61.368C156.3 61.9013 156.38 62.3787 156.54 62.8C156.706 63.2213 156.951 63.5547 157.276 63.8C157.602 64.0453 158.012 64.168 158.508 64.168C159.004 64.168 159.412 64.048 159.732 63.808C160.052 63.568 160.247 63.2133 160.316 62.744H161.612C161.532 63.2507 161.351 63.688 161.068 64.056C160.786 64.4187 160.426 64.6987 159.988 64.896C159.551 65.0933 159.058 65.192 158.508 65.192ZM164.039 66.744L163.095 66.28C163.399 66.1253 163.655 65.9547 163.863 65.768C164.076 65.5813 164.215 65.352 164.279 65.08C164.05 65.0533 163.852 64.9707 163.687 64.832C163.527 64.6933 163.447 64.5093 163.447 64.28C163.447 64.056 163.53 63.864 163.695 63.704C163.866 63.544 164.082 63.464 164.343 63.464C164.674 63.464 164.94 63.584 165.143 63.824C165.346 64.064 165.447 64.3493 165.447 64.68C165.447 65.0693 165.327 65.4507 165.087 65.824C164.852 66.2027 164.503 66.5093 164.039 66.744ZM174.044 65.192C173.628 65.192 173.254 65.112 172.924 64.952C172.593 64.792 172.332 64.552 172.14 64.232C171.948 63.912 171.852 63.512 171.852 63.032V55.224H173.084V63C173.084 63.7893 173.452 64.184 174.188 64.184C174.406 64.184 174.617 64.16 174.82 64.112C175.028 64.064 175.26 63.992 175.516 63.896L175.692 64.792C175.42 64.9093 175.148 65.0053 174.876 65.08C174.609 65.1547 174.332 65.192 174.044 65.192ZM170.62 58.216V57.352H175.5V58.216H170.62ZM183.307 65V60.504C183.307 59.7733 183.131 59.2187 182.779 58.84C182.433 58.456 181.958 58.264 181.355 58.264C180.897 58.264 180.499 58.3893 180.163 58.64C179.827 58.8907 179.569 59.2507 179.387 59.72C179.206 60.184 179.115 60.7387 179.115 61.384H178.635C178.635 60.4933 178.753 59.7333 178.987 59.104C179.222 58.4747 179.563 57.9947 180.011 57.664C180.465 57.328 181.014 57.16 181.659 57.16C182.262 57.16 182.777 57.296 183.203 57.568C183.635 57.8347 183.966 58.2187 184.195 58.72C184.425 59.2213 184.539 59.816 184.539 60.504V65H183.307ZM177.867 65V54.088H179.115V65H177.867ZM190.34 65.192C189.678 65.192 189.086 65.024 188.564 64.688C188.046 64.3467 187.636 63.8747 187.332 63.272C187.033 62.6693 186.884 61.976 186.884 61.192C186.884 60.3547 187.033 59.6347 187.332 59.032C187.63 58.4293 188.038 57.968 188.556 57.648C189.078 57.3227 189.673 57.16 190.34 57.16C190.921 57.16 191.417 57.2773 191.828 57.512C192.238 57.7467 192.569 58.064 192.82 58.464C193.07 58.864 193.244 59.3173 193.34 59.824C193.441 60.3253 193.47 60.8453 193.428 61.384H187.892V60.616H192.604L192.236 60.856C192.252 60.5413 192.233 60.2267 192.18 59.912C192.132 59.5973 192.038 59.3093 191.9 59.048C191.761 58.7813 191.566 58.568 191.316 58.408C191.065 58.248 190.745 58.168 190.356 58.168C189.865 58.168 189.454 58.2933 189.124 58.544C188.793 58.7947 188.545 59.1253 188.38 59.536C188.214 59.9413 188.132 60.3813 188.132 60.856V61.368C188.132 61.9013 188.212 62.3787 188.372 62.8C188.537 63.2213 188.782 63.5547 189.108 63.8C189.433 64.0453 189.844 64.168 190.34 64.168C190.836 64.168 191.244 64.048 191.564 63.808C191.884 63.568 192.078 63.2133 192.148 62.744H193.444C193.364 63.2507 193.182 63.688 192.9 64.056C192.617 64.4187 192.257 64.6987 191.82 64.896C191.382 65.0933 190.889 65.192 190.34 65.192ZM200.019 66.616V53.32H203.171V54.424H201.267V65.512H203.171V66.616H200.019ZM204.106 64.256C204.106 64.0053 204.194 63.7893 204.37 63.608C204.546 63.4267 204.767 63.336 205.034 63.336C205.3 63.336 205.527 63.4267 205.714 63.608C205.9 63.7893 205.994 64.0053 205.994 64.256C205.994 64.5067 205.9 64.7173 205.714 64.888C205.527 65.0587 205.3 65.144 205.034 65.144C204.767 65.144 204.546 65.0587 204.37 64.888C204.194 64.712 204.106 64.5013 204.106 64.256ZM207.125 64.256C207.125 64.0053 207.213 63.7893 207.389 63.608C207.565 63.4267 207.786 63.336 208.053 63.336C208.32 63.336 208.546 63.4267 208.733 63.608C208.92 63.7893 209.013 64.0053 209.013 64.256C209.013 64.5067 208.92 64.7173 208.733 64.888C208.546 65.0587 208.32 65.144 208.053 65.144C207.786 65.144 207.565 65.0587 207.389 64.888C207.213 64.712 207.125 64.5013 207.125 64.256ZM210.144 64.256C210.144 64.0053 210.232 63.7893 210.408 63.608C210.584 63.4267 210.806 63.336 211.072 63.336C211.339 63.336 211.566 63.4267 211.752 63.608C211.939 63.7893 212.032 64.0053 212.032 64.256C212.032 64.5067 211.939 64.7173 211.752 64.888C211.566 65.0587 211.339 65.144 211.072 65.144C210.806 65.144 210.584 65.0587 210.408 64.888C210.232 64.712 210.144 64.5013 210.144 64.256ZM215.612 66.616V53.32H212.46V54.424H214.364V65.512H212.46V66.616H215.612Z" fill="#333333"/>
</g>
<defs>
<filter id="filter0_d_7073_5880" x="0" y="0" width="239.035" height="88" filterUnits="userSpaceOnUse" color-interpolation-filters="sRGB">
<feFlood flood-opacity="0" result="BackgroundImageFix"/>
<feColorMatrix in="SourceAlpha" type="matrix" values="0 0 0 0 0 0 0 0 0 0 0 0 0 0 0 0 0 0 127 0" result="hardAlpha"/>
<feOffset dy="4"/>
<feGaussianBlur stdDeviation="3"/>
<feComposite in2="hardAlpha" operator="out"/>
<feColorMatrix type="matrix" values="0 0 0 0 0 0 0 0 0 0 0 0 0 0 0 0 0 0 0.1 0"/>
<feBlend mode="normal" in2="BackgroundImageFix" result="effect1_dropShadow_7073_5880"/>
<feBlend mode="normal" in="SourceGraphic" in2="effect1_dropShadow_7073_5880" result="shape"/>
</filter>
<filter id="filter1_d_7073_5880" x="25.5439" y="12.0879" width="196.869" height="66.8477" filterUnits="userSpaceOnUse" color-interpolation-filters="sRGB">
<feFlood flood-opacity="0" result="BackgroundImageFix"/>
<feColorMatrix in="SourceAlpha" type="matrix" values="0 0 0 0 0 0 0 0 0 0 0 0 0 0 0 0 0 0 127 0" result="hardAlpha"/>
<feOffset dy="4"/>
<feGaussianBlur stdDeviation="3"/>
<feComposite in2="hardAlpha" operator="out"/>
<feColorMatrix type="matrix" values="0 0 0 0 0 0 0 0 0 0 0 0 0 0 0 0 0 0 0.05 0"/>
<feBlend mode="normal" in2="BackgroundImageFix" result="effect1_dropShadow_7073_5880"/>
<feBlend mode="normal" in="SourceGraphic" in2="effect1_dropShadow_7073_5880" result="shape"/>
</filter>
</defs>
</svg>
