<svg width="263" height="68" viewBox="0 0 263 68" fill="none" xmlns="http://www.w3.org/2000/svg">
<g filter="url(#filter0_d_7041_5810)">
<mask id="path-1-inside-1_7041_5810" fill="white">
<path d="M7.77597 32.6331L17.5 41V49C17.5 53.9706 21.5294 58 26.5 58L247.767 58C252.738 58 256.767 53.9706 256.767 49V11C256.767 6.02944 252.738 2 247.767 2L26.5 2C21.5294 2 17.5 6.02944 17.5 11V20.5L7.88819 27.9931C6.39444 29.1575 6.34025 31.3978 7.77597 32.6331Z"/>
</mask>
<path d="M7.77597 32.6331L17.5 41V49C17.5 53.9706 21.5294 58 26.5 58L247.767 58C252.738 58 256.767 53.9706 256.767 49V11C256.767 6.02944 252.738 2 247.767 2L26.5 2C21.5294 2 17.5 6.02944 17.5 11V20.5L7.88819 27.9931C6.39444 29.1575 6.34025 31.3978 7.77597 32.6331Z" fill="white"/>
<path d="M17.5 41H18.9V40.3577L18.4131 39.9388L17.5 41ZM7.77597 32.6331L6.86285 33.6944H6.86285L7.77597 32.6331ZM7.88819 27.9931L8.74894 29.0972L8.74894 29.0972L7.88819 27.9931ZM17.5 20.5L18.3607 21.6041L18.9 21.1838V20.5H17.5ZM26.5 2V0.6V2ZM247.767 2V3.4V2ZM18.4131 39.9388L8.68909 31.5719L6.86285 33.6944L16.5869 42.0612L18.4131 39.9388ZM8.74894 29.0972L18.3607 21.6041L16.6393 19.3959L7.02744 26.8889L8.74894 29.0972ZM8.68909 31.5719C7.92337 30.9131 7.95227 29.7183 8.74894 29.0972L7.02744 26.8889C4.8366 28.5968 4.75713 31.8825 6.86285 33.6944L8.68909 31.5719ZM26.5 3.4L247.767 3.4V0.600003L26.5 0.6V3.4ZM255.367 11V49H258.167V11H255.367ZM247.767 56.6L26.5 56.6V59.4L247.767 59.4V56.6ZM18.9 20.5V11H16.1V20.5H18.9ZM18.9 49V41H16.1V49H18.9ZM26.5 56.6C22.3026 56.6 18.9 53.1974 18.9 49H16.1C16.1 54.7438 20.7562 59.4 26.5 59.4V56.6ZM255.367 49C255.367 53.1974 251.965 56.6 247.767 56.6V59.4C253.511 59.4 258.167 54.7438 258.167 49H255.367ZM247.767 3.4C251.965 3.4 255.367 6.80264 255.367 11H258.167C258.167 5.25624 253.511 0.600003 247.767 0.600003V3.4ZM26.5 0.6C20.7562 0.6 16.1 5.25624 16.1 11H18.9C18.9 6.80264 22.3026 3.4 26.5 3.4V0.6Z" fill="#333333" mask="url(#path-1-inside-1_7041_5810)"/>
</g>
<g filter="url(#filter1_d_7041_5810)">
<path d="M31.144 15.4549H32.648L35.528 20.3349H35.208L38.136 15.4549H39.624L35.992 21.3749V25.5029H34.728V21.3749L31.144 15.4549ZM43.2784 25.6949C42.5904 25.6949 41.977 25.5429 41.4384 25.2389C40.905 24.9349 40.4837 24.4843 40.1744 23.8869C39.865 23.2896 39.7104 22.5536 39.7104 21.6789C39.7104 20.7989 39.865 20.0629 40.1744 19.4709C40.4837 18.8736 40.905 18.4229 41.4384 18.1189C41.977 17.8149 42.5904 17.6629 43.2784 17.6629C43.961 17.6629 44.569 17.8149 45.1024 18.1189C45.641 18.4229 46.0624 18.8736 46.3664 19.4709C46.6757 20.0629 46.8304 20.7989 46.8304 21.6789C46.8304 22.5536 46.6757 23.2896 46.3664 23.8869C46.0624 24.4843 45.641 24.9349 45.1024 25.2389C44.569 25.5429 43.961 25.6949 43.2784 25.6949ZM43.2464 24.6069C43.7424 24.6069 44.1637 24.4896 44.5104 24.2549C44.857 24.0149 45.1184 23.6763 45.2944 23.2389C45.4757 22.8016 45.5664 22.2816 45.5664 21.6789C45.5664 20.7669 45.377 20.0496 44.9984 19.5269C44.6197 18.9989 44.057 18.7349 43.3104 18.7349C42.809 18.7349 42.385 18.8549 42.0384 19.0949C41.697 19.3296 41.4357 19.6683 41.2544 20.1109C41.0784 20.5483 40.9904 21.0709 40.9904 21.6789C40.9904 22.5803 41.1797 23.2949 41.5584 23.8229C41.9424 24.3456 42.505 24.6069 43.2464 24.6069ZM54.6204 17.8389H55.8684V25.5029H54.6204V17.8389ZM49.1964 17.8389H50.4444V22.6069C50.4444 23.2469 50.599 23.7323 50.9084 24.0629C51.223 24.3936 51.671 24.5589 52.2524 24.5589C52.7324 24.5589 53.1484 24.4309 53.5004 24.1749C53.8577 23.9189 54.1324 23.5669 54.3244 23.1189C54.5217 22.6656 54.6204 22.1483 54.6204 21.5669H55.0844C55.0844 22.4256 54.959 23.1589 54.7084 23.7669C54.463 24.3749 54.1137 24.8416 53.6604 25.1669C53.2124 25.4869 52.6844 25.6469 52.0764 25.6469C51.5004 25.6469 50.9964 25.5403 50.5644 25.3269C50.1324 25.1136 49.7964 24.7909 49.5564 24.3589C49.3164 23.9216 49.1964 23.3696 49.1964 22.7029V17.8389ZM63.2248 25.5029V17.8389H64.4728V25.5029H63.2248ZM64.0888 22.0469C64.0888 21.0763 64.1821 20.2709 64.3688 19.6309C64.5554 18.9856 64.8274 18.5056 65.1848 18.1909C65.5474 17.8709 65.9874 17.7109 66.5048 17.7109C66.6754 17.7109 66.8301 17.7243 66.9688 17.7509C67.1128 17.7723 67.2568 17.8069 67.4008 17.8549L67.3208 19.0869C67.1714 19.0389 67.0088 18.9989 66.8328 18.9669C66.6568 18.9296 66.4994 18.9109 66.3608 18.9109C65.9074 18.9109 65.5421 19.0416 65.2648 19.3029C64.9874 19.5589 64.7848 19.9216 64.6568 20.3909C64.5341 20.8603 64.4728 21.4123 64.4728 22.0469H64.0888ZM71.822 25.6949C71.1607 25.6949 70.5687 25.5269 70.046 25.1909C69.5287 24.8496 69.118 24.3776 68.814 23.7749C68.5153 23.1723 68.366 22.4789 68.366 21.6949C68.366 20.8576 68.5153 20.1376 68.814 19.5349C69.1127 18.9323 69.5207 18.4709 70.038 18.1509C70.5607 17.8256 71.1553 17.6629 71.822 17.6629C72.4033 17.6629 72.8993 17.7803 73.31 18.0149C73.7207 18.2496 74.0513 18.5669 74.302 18.9669C74.5527 19.3669 74.726 19.8203 74.822 20.3269C74.9233 20.8283 74.9527 21.3483 74.91 21.8869H69.374V21.1189H74.086L73.718 21.3589C73.734 21.0443 73.7153 20.7296 73.662 20.4149C73.614 20.1003 73.5207 19.8123 73.382 19.5509C73.2433 19.2843 73.0487 19.0709 72.798 18.9109C72.5473 18.7509 72.2273 18.6709 71.838 18.6709C71.3473 18.6709 70.9367 18.7963 70.606 19.0469C70.2753 19.2976 70.0273 19.6283 69.862 20.0389C69.6967 20.4443 69.614 20.8843 69.614 21.3589V21.8709C69.614 22.4043 69.694 22.8816 69.854 23.3029C70.0193 23.7243 70.2647 24.0576 70.59 24.3029C70.9153 24.5483 71.326 24.6709 71.822 24.6709C72.318 24.6709 72.726 24.5509 73.046 24.3109C73.366 24.0709 73.5607 23.7163 73.63 23.2469H74.926C74.846 23.7536 74.6647 24.1909 74.382 24.5589C74.0993 24.9216 73.7393 25.2016 73.302 25.3989C72.8647 25.5963 72.3713 25.6949 71.822 25.6949ZM82.2808 25.5029L82.1208 23.8229V20.5429C82.1208 19.8549 81.9741 19.3616 81.6808 19.0629C81.3874 18.7589 80.9474 18.6069 80.3608 18.6069C80.0301 18.6069 79.7288 18.6549 79.4568 18.7509C79.1901 18.8469 78.9768 18.9963 78.8168 19.1989C78.6621 19.3963 78.5848 19.6523 78.5848 19.9669H77.1928C77.1928 19.4123 77.3288 18.9669 77.6008 18.6309C77.8728 18.2896 78.2461 18.0443 78.7208 17.8949C79.2008 17.7403 79.7474 17.6629 80.3608 17.6629C80.9474 17.6629 81.4674 17.7616 81.9208 17.9589C82.3741 18.1563 82.7288 18.4709 82.9848 18.9029C83.2408 19.3296 83.3688 19.8869 83.3688 20.5749V25.5029H82.2808ZM79.6728 25.6949C79.0434 25.6949 78.5234 25.5829 78.1128 25.3589C77.7021 25.1349 77.3954 24.8443 77.1928 24.4869C76.9901 24.1296 76.8888 23.7536 76.8888 23.3589C76.8888 22.8416 77.0168 22.4203 77.2728 22.0949C77.5341 21.7696 77.8888 21.5323 78.3368 21.3829C78.7848 21.2283 79.2888 21.1509 79.8488 21.1509C80.2488 21.1509 80.6488 21.1909 81.0488 21.2709C81.4541 21.3509 81.8488 21.4603 82.2328 21.5989V22.3829C81.9128 22.2549 81.5501 22.1536 81.1448 22.0789C80.7448 22.0043 80.3768 21.9669 80.0408 21.9669C79.5288 21.9669 79.0968 22.0736 78.7448 22.2869C78.3928 22.4949 78.2168 22.8523 78.2168 23.3589C78.2168 23.7323 78.3501 24.0523 78.6168 24.3189C78.8888 24.5856 79.3208 24.7189 79.9128 24.7189C80.3288 24.7189 80.7021 24.6229 81.0328 24.4309C81.3688 24.2336 81.6328 23.9883 81.8248 23.6949C82.0221 23.4016 82.1208 23.1083 82.1208 22.8149H82.4248C82.4248 23.3269 82.3128 23.8016 82.0888 24.2389C81.8701 24.6763 81.5554 25.0283 81.1448 25.2949C80.7341 25.5616 80.2434 25.6949 79.6728 25.6949ZM89.2053 25.6949C88.5919 25.6949 88.0186 25.5296 87.4853 25.1989C86.9573 24.8683 86.5306 24.4016 86.2053 23.7989C85.8799 23.1963 85.7173 22.4843 85.7173 21.6629C85.7173 20.8203 85.8799 20.1003 86.2053 19.5029C86.5306 18.9056 86.9573 18.4496 87.4853 18.1349C88.0186 17.8203 88.5919 17.6629 89.2053 17.6629C89.6373 17.6629 90.0239 17.7296 90.3653 17.8629C90.7119 17.9909 91.0133 18.1696 91.2693 18.3989C91.5253 18.6283 91.7359 18.8896 91.9013 19.1829C92.0719 19.4709 92.1973 19.7749 92.2773 20.0949L90.9973 20.2069C90.8639 19.7643 90.6399 19.4149 90.3253 19.1589C90.0159 18.8976 89.6373 18.7669 89.1893 18.7669C88.8106 18.7669 88.4533 18.8763 88.1173 19.0949C87.7866 19.3083 87.5173 19.6309 87.3093 20.0629C87.1013 20.4896 86.9973 21.0229 86.9973 21.6629C86.9973 22.2549 87.0906 22.7696 87.2773 23.2069C87.4693 23.6389 87.7306 23.9749 88.0613 24.2149C88.3919 24.4549 88.7679 24.5749 89.1893 24.5749C89.7813 24.5749 90.2293 24.4309 90.5333 24.1429C90.8426 23.8496 90.9973 23.4443 90.9973 22.9269H92.2773C92.2773 23.4603 92.1519 23.9349 91.9013 24.3509C91.6506 24.7669 91.2933 25.0949 90.8293 25.3349C90.3706 25.5749 89.8293 25.6949 89.2053 25.6949ZM100.367 25.5029V21.0069C100.367 20.2763 100.191 19.7216 99.8393 19.3429C99.4926 18.9589 99.0179 18.7669 98.4153 18.7669C97.9566 18.7669 97.5593 18.8923 97.2233 19.1429C96.8873 19.3936 96.6286 19.7536 96.4473 20.2229C96.2659 20.6869 96.1753 21.2416 96.1753 21.8869H95.6953C95.6953 20.9963 95.8126 20.2363 96.0473 19.6069C96.2819 18.9776 96.6233 18.4976 97.0713 18.1669C97.5246 17.8309 98.0739 17.6629 98.7193 17.6629C99.3219 17.6629 99.8366 17.7989 100.263 18.0709C100.695 18.3376 101.026 18.7216 101.255 19.2229C101.485 19.7243 101.599 20.3189 101.599 21.0069V25.5029H100.367ZM94.9273 25.5029V14.5909H96.1753V25.5029H94.9273ZM107.4 25.6949C106.738 25.6949 106.146 25.5269 105.624 25.1909C105.106 24.8496 104.696 24.3776 104.392 23.7749C104.093 23.1723 103.944 22.4789 103.944 21.6949C103.944 20.8576 104.093 20.1376 104.392 19.5349C104.69 18.9323 105.098 18.4709 105.616 18.1509C106.138 17.8256 106.733 17.6629 107.4 17.6629C107.981 17.6629 108.477 17.7803 108.888 18.0149C109.298 18.2496 109.629 18.5669 109.88 18.9669C110.13 19.3669 110.304 19.8203 110.4 20.3269C110.501 20.8283 110.53 21.3483 110.488 21.8869H104.952V21.1189H109.664L109.296 21.3589C109.312 21.0443 109.293 20.7296 109.24 20.4149C109.192 20.1003 109.098 19.8123 108.96 19.5509C108.821 19.2843 108.626 19.0709 108.376 18.9109C108.125 18.7509 107.805 18.6709 107.416 18.6709C106.925 18.6709 106.514 18.7963 106.184 19.0469C105.853 19.2976 105.605 19.6283 105.44 20.0389C105.274 20.4443 105.192 20.8843 105.192 21.3589V21.8709C105.192 22.4043 105.272 22.8816 105.432 23.3029C105.597 23.7243 105.842 24.0576 106.168 24.3029C106.493 24.5483 106.904 24.6709 107.4 24.6709C107.896 24.6709 108.304 24.5509 108.624 24.3109C108.944 24.0709 109.138 23.7163 109.208 23.2469H110.504C110.424 23.7536 110.242 24.1909 109.96 24.5589C109.677 24.9216 109.317 25.2016 108.88 25.3989C108.442 25.5963 107.949 25.6949 107.4 25.6949ZM115.858 25.6949C115.24 25.6949 114.672 25.5296 114.154 25.1989C113.637 24.8629 113.224 24.3936 112.914 23.7909C112.605 23.1829 112.45 22.4683 112.45 21.6469C112.45 20.8309 112.602 20.1243 112.906 19.5269C113.21 18.9296 113.613 18.4709 114.114 18.1509C114.621 17.8256 115.176 17.6629 115.778 17.6629C116.338 17.6629 116.829 17.7989 117.25 18.0709C117.677 18.3429 118.008 18.7349 118.242 19.2469C118.477 19.7589 118.594 20.3776 118.594 21.1029H118.114C118.114 20.5963 118.013 20.1696 117.81 19.8229C117.613 19.4763 117.354 19.2149 117.034 19.0389C116.714 18.8576 116.37 18.7669 116.002 18.7669C115.586 18.7669 115.205 18.8843 114.858 19.1189C114.517 19.3483 114.242 19.6789 114.034 20.1109C113.832 20.5376 113.73 21.0496 113.73 21.6469C113.73 22.2549 113.832 22.7776 114.034 23.2149C114.242 23.6523 114.517 23.9883 114.858 24.2229C115.205 24.4576 115.586 24.5749 116.002 24.5749C116.349 24.5749 116.682 24.4843 117.002 24.3029C117.328 24.1216 117.594 23.8576 117.802 23.5109C118.01 23.1589 118.114 22.7349 118.114 22.2389H118.594C118.594 22.9803 118.472 23.6096 118.226 24.1269C117.986 24.6389 117.658 25.0283 117.242 25.2949C116.832 25.5616 116.37 25.6949 115.858 25.6949ZM118.322 25.5029L118.114 23.7109V14.5909H119.362V25.5029H118.322ZM129.076 25.6949C128.66 25.6949 128.286 25.6149 127.956 25.4549C127.625 25.2949 127.364 25.0549 127.172 24.7349C126.98 24.4149 126.884 24.0149 126.884 23.5349V15.7269H128.116V23.5029C128.116 24.2923 128.484 24.6869 129.22 24.6869C129.438 24.6869 129.649 24.6629 129.852 24.6149C130.06 24.5669 130.292 24.4949 130.548 24.3989L130.724 25.2949C130.452 25.4123 130.18 25.5083 129.908 25.5829C129.641 25.6576 129.364 25.6949 129.076 25.6949ZM125.652 18.7189V17.8549H130.532V18.7189H125.652ZM138.339 25.5029V21.0069C138.339 20.2763 138.163 19.7216 137.811 19.3429C137.464 18.9589 136.99 18.7669 136.387 18.7669C135.928 18.7669 135.531 18.8923 135.195 19.1429C134.859 19.3936 134.6 19.7536 134.419 20.2229C134.238 20.6869 134.147 21.2416 134.147 21.8869H133.667C133.667 20.9963 133.784 20.2363 134.019 19.6069C134.254 18.9776 134.595 18.4976 135.043 18.1669C135.496 17.8309 136.046 17.6629 136.691 17.6629C137.294 17.6629 137.808 17.7989 138.235 18.0709C138.667 18.3376 138.998 18.7216 139.227 19.2229C139.456 19.7243 139.571 20.3189 139.571 21.0069V25.5029H138.339ZM132.899 25.5029V14.5909H134.147V25.5029H132.899ZM145.371 25.6949C144.71 25.6949 144.118 25.5269 143.595 25.1909C143.078 24.8496 142.667 24.3776 142.363 23.7749C142.065 23.1723 141.915 22.4789 141.915 21.6949C141.915 20.8576 142.065 20.1376 142.363 19.5349C142.662 18.9323 143.07 18.4709 143.587 18.1509C144.11 17.8256 144.705 17.6629 145.371 17.6629C145.953 17.6629 146.449 17.7803 146.859 18.0149C147.27 18.2496 147.601 18.5669 147.851 18.9669C148.102 19.3669 148.275 19.8203 148.371 20.3269C148.473 20.8283 148.502 21.3483 148.459 21.8869H142.923V21.1189H147.635L147.267 21.3589C147.283 21.0443 147.265 20.7296 147.211 20.4149C147.163 20.1003 147.07 19.8123 146.931 19.5509C146.793 19.2843 146.598 19.0709 146.347 18.9109C146.097 18.7509 145.777 18.6709 145.387 18.6709C144.897 18.6709 144.486 18.7963 144.155 19.0469C143.825 19.2976 143.577 19.6283 143.411 20.0389C143.246 20.4443 143.163 20.8843 143.163 21.3589V21.8709C143.163 22.4043 143.243 22.8816 143.403 23.3029C143.569 23.7243 143.814 24.0576 144.139 24.3029C144.465 24.5483 144.875 24.6709 145.371 24.6709C145.867 24.6709 146.275 24.5509 146.595 24.3109C146.915 24.0709 147.11 23.7163 147.179 23.2469H148.475C148.395 23.7536 148.214 24.1909 147.931 24.5589C147.649 24.9216 147.289 25.2016 146.851 25.3989C146.414 25.5963 145.921 25.6949 145.371 25.6949ZM158.523 25.6949C157.963 25.6949 157.475 25.5669 157.059 25.3109C156.648 25.0549 156.331 24.6816 156.107 24.1909C155.883 23.6949 155.771 23.0923 155.771 22.3829H156.299C156.299 22.8576 156.398 23.2576 156.595 23.5829C156.792 23.9083 157.048 24.1563 157.363 24.3269C157.683 24.4923 158.022 24.5749 158.379 24.5749C158.763 24.5749 159.131 24.4656 159.483 24.2469C159.835 24.0229 160.123 23.6949 160.347 23.2629C160.571 22.8309 160.683 22.2976 160.683 21.6629C160.683 21.0549 160.579 20.5349 160.371 20.1029C160.168 19.6709 159.894 19.3403 159.547 19.1109C159.2 18.8816 158.816 18.7669 158.395 18.7669C158.032 18.7669 157.691 18.8549 157.371 19.0309C157.051 19.2069 156.792 19.4656 156.595 19.8069C156.398 20.1429 156.299 20.5589 156.299 21.0549H155.771C155.771 20.3136 155.894 19.6923 156.139 19.1909C156.384 18.6843 156.718 18.3029 157.139 18.0469C157.56 17.7909 158.032 17.6629 158.555 17.6629C159.152 17.6629 159.71 17.8229 160.227 18.1429C160.744 18.4629 161.163 18.9216 161.483 19.5189C161.803 20.1163 161.963 20.8309 161.963 21.6629C161.963 22.5056 161.8 23.2283 161.475 23.8309C161.155 24.4336 160.734 24.8949 160.211 25.2149C159.688 25.5349 159.126 25.6949 158.523 25.6949ZM155.051 29.2629V17.8549H156.091L156.299 19.6469V29.2629H155.051ZM169.306 25.5029L169.146 23.8229V20.5429C169.146 19.8549 169 19.3616 168.706 19.0629C168.413 18.7589 167.973 18.6069 167.386 18.6069C167.056 18.6069 166.754 18.6549 166.482 18.7509C166.216 18.8469 166.002 18.9963 165.842 19.1989C165.688 19.3963 165.61 19.6523 165.61 19.9669H164.218C164.218 19.4123 164.354 18.9669 164.626 18.6309C164.898 18.2896 165.272 18.0443 165.746 17.8949C166.226 17.7403 166.773 17.6629 167.386 17.6629C167.973 17.6629 168.493 17.7616 168.946 17.9589C169.4 18.1563 169.754 18.4709 170.01 18.9029C170.266 19.3296 170.394 19.8869 170.394 20.5749V25.5029H169.306ZM166.698 25.6949C166.069 25.6949 165.549 25.5829 165.138 25.3589C164.728 25.1349 164.421 24.8443 164.218 24.4869C164.016 24.1296 163.914 23.7536 163.914 23.3589C163.914 22.8416 164.042 22.4203 164.298 22.0949C164.56 21.7696 164.914 21.5323 165.362 21.3829C165.81 21.2283 166.314 21.1509 166.874 21.1509C167.274 21.1509 167.674 21.1909 168.074 21.2709C168.48 21.3509 168.874 21.4603 169.258 21.5989V22.3829C168.938 22.2549 168.576 22.1536 168.17 22.0789C167.77 22.0043 167.402 21.9669 167.066 21.9669C166.554 21.9669 166.122 22.0736 165.77 22.2869C165.418 22.4949 165.242 22.8523 165.242 23.3589C165.242 23.7323 165.376 24.0523 165.642 24.3189C165.914 24.5856 166.346 24.7189 166.938 24.7189C167.354 24.7189 167.728 24.6229 168.058 24.4309C168.394 24.2336 168.658 23.9883 168.85 23.6949C169.048 23.4016 169.146 23.1083 169.146 22.8149H169.45C169.45 23.3269 169.338 23.8016 169.114 24.2389C168.896 24.6763 168.581 25.0283 168.17 25.2949C167.76 25.5616 167.269 25.6949 166.698 25.6949ZM176.247 29.4389C175.463 29.4389 174.783 29.3269 174.207 29.1029C173.631 28.8843 173.183 28.5883 172.863 28.2149C172.548 27.8469 172.391 27.4389 172.391 26.9909C172.391 26.3989 172.607 25.9456 173.039 25.6309C173.476 25.3216 174.039 25.1669 174.727 25.1669L175.415 25.5989C174.839 25.5989 174.394 25.7189 174.079 25.9589C173.764 26.1989 173.607 26.5269 173.607 26.9429C173.607 27.3589 173.831 27.7109 174.279 27.9989C174.727 28.2869 175.383 28.4309 176.247 28.4309C176.887 28.4309 177.447 28.3376 177.927 28.1509C178.412 27.9696 178.788 27.7296 179.055 27.4309C179.327 27.1376 179.463 26.8203 179.463 26.4789C179.463 26.2389 179.375 26.0309 179.199 25.8549C179.023 25.6843 178.754 25.5989 178.391 25.5989H175.415C174.898 25.5989 174.45 25.5216 174.071 25.3669C173.698 25.2069 173.41 24.9989 173.207 24.7429C173.004 24.4869 172.903 24.2069 172.903 23.9029C172.903 23.5829 172.994 23.3109 173.175 23.0869C173.356 22.8629 173.591 22.6923 173.879 22.5749C174.172 22.4576 174.487 22.3989 174.823 22.3989L175.063 22.8629C174.903 22.8629 174.74 22.9003 174.575 22.9749C174.415 23.0443 174.279 23.1509 174.167 23.2949C174.06 23.4336 174.007 23.6096 174.007 23.8229C174.007 24.0683 174.108 24.2736 174.311 24.4389C174.514 24.6043 174.882 24.6869 175.415 24.6869H178.391C179.111 24.6869 179.676 24.8389 180.087 25.1429C180.503 25.4469 180.711 25.8709 180.711 26.4149C180.711 26.9163 180.532 27.3963 180.175 27.8549C179.818 28.3189 179.306 28.6976 178.639 28.9909C177.972 29.2896 177.175 29.4389 176.247 29.4389ZM176.471 23.2629C175.884 23.2629 175.354 23.1456 174.879 22.9109C174.41 22.6763 174.036 22.3483 173.759 21.9269C173.487 21.5056 173.351 21.0176 173.351 20.4629C173.351 19.9029 173.487 19.4123 173.759 18.9909C174.036 18.5696 174.41 18.2443 174.879 18.0149C175.354 17.7803 175.884 17.6629 176.471 17.6629C177.042 17.6629 177.559 17.7803 178.023 18.0149C178.492 18.2443 178.866 18.5696 179.143 18.9909C179.42 19.4123 179.559 19.9029 179.559 20.4629C179.559 21.0176 179.42 21.5056 179.143 21.9269C178.866 22.3483 178.492 22.6763 178.023 22.9109C177.559 23.1456 177.042 23.2629 176.471 23.2629ZM176.471 22.3669C177.058 22.3669 177.514 22.1856 177.839 21.8229C178.164 21.4603 178.327 21.0069 178.327 20.4629C178.327 19.9029 178.164 19.4496 177.839 19.1029C177.514 18.7509 177.058 18.5749 176.471 18.5749C175.89 18.5749 175.431 18.7509 175.095 19.1029C174.764 19.4496 174.599 19.9029 174.599 20.4629C174.599 21.0069 174.764 21.4603 175.095 21.8229C175.431 22.1856 175.89 22.3669 176.471 22.3669ZM178.983 18.8789L178.391 18.6389C178.391 18.1909 178.479 17.7989 178.655 17.4629C178.831 17.1216 179.082 16.8576 179.407 16.6709C179.732 16.4789 180.119 16.3829 180.567 16.3829L180.471 17.6149C179.991 17.6149 179.623 17.7189 179.367 17.9269C179.111 18.1296 178.983 18.4469 178.983 18.8789ZM185.39 25.6949C184.729 25.6949 184.137 25.5269 183.614 25.1909C183.097 24.8496 182.686 24.3776 182.382 23.7749C182.083 23.1723 181.934 22.4789 181.934 21.6949C181.934 20.8576 182.083 20.1376 182.382 19.5349C182.681 18.9323 183.089 18.4709 183.606 18.1509C184.129 17.8256 184.723 17.6629 185.39 17.6629C185.971 17.6629 186.467 17.7803 186.878 18.0149C187.289 18.2496 187.619 18.5669 187.87 18.9669C188.121 19.3669 188.294 19.8203 188.39 20.3269C188.491 20.8283 188.521 21.3483 188.478 21.8869H182.942V21.1189H187.654L187.286 21.3589C187.302 21.0443 187.283 20.7296 187.23 20.4149C187.182 20.1003 187.089 19.8123 186.95 19.5509C186.811 19.2843 186.617 19.0709 186.366 18.9109C186.115 18.7509 185.795 18.6709 185.406 18.6709C184.915 18.6709 184.505 18.7963 184.174 19.0469C183.843 19.2976 183.595 19.6283 183.43 20.0389C183.265 20.4443 183.182 20.8843 183.182 21.3589V21.8709C183.182 22.4043 183.262 22.8816 183.422 23.3029C183.587 23.7243 183.833 24.0576 184.158 24.3029C184.483 24.5483 184.894 24.6709 185.39 24.6709C185.886 24.6709 186.294 24.5509 186.614 24.3109C186.934 24.0709 187.129 23.7163 187.198 23.2469H188.494C188.414 23.7536 188.233 24.1909 187.95 24.5589C187.667 24.9216 187.307 25.2016 186.87 25.3989C186.433 25.5963 185.939 25.6949 185.39 25.6949ZM35.352 45.6949C34.7333 45.6949 34.1653 45.5296 33.648 45.1989C33.1307 44.8629 32.7173 44.3936 32.408 43.7909C32.0987 43.1829 31.944 42.4683 31.944 41.6469C31.944 40.8309 32.096 40.1243 32.4 39.5269C32.704 38.9296 33.1067 38.4709 33.608 38.1509C34.1147 37.8256 34.6693 37.6629 35.272 37.6629C35.832 37.6629 36.3227 37.7989 36.744 38.0709C37.1707 38.3429 37.5013 38.7349 37.736 39.2469C37.9707 39.7589 38.088 40.3776 38.088 41.1029H37.608C37.608 40.5963 37.5067 40.1696 37.304 39.8229C37.1067 39.4763 36.848 39.2149 36.528 39.0389C36.208 38.8576 35.864 38.7669 35.496 38.7669C35.08 38.7669 34.6987 38.8843 34.352 39.1189C34.0107 39.3483 33.736 39.6789 33.528 40.1109C33.3253 40.5376 33.224 41.0496 33.224 41.6469C33.224 42.2549 33.3253 42.7776 33.528 43.2149C33.736 43.6523 34.0107 43.9883 34.352 44.2229C34.6987 44.4576 35.08 44.5749 35.496 44.5749C35.8427 44.5749 36.176 44.4843 36.496 44.3029C36.8213 44.1216 37.088 43.8576 37.296 43.5109C37.504 43.1589 37.608 42.7349 37.608 42.2389H38.088C38.088 42.9803 37.9653 43.6096 37.72 44.1269C37.48 44.6389 37.152 45.0283 36.736 45.2949C36.3253 45.5616 35.864 45.6949 35.352 45.6949ZM37.816 45.5029L37.608 43.7109V34.5909H38.856V45.5029H37.816ZM44.9164 45.6949C44.255 45.6949 43.663 45.5269 43.1404 45.1909C42.623 44.8496 42.2124 44.3776 41.9084 43.7749C41.6097 43.1723 41.4604 42.4789 41.4604 41.6949C41.4604 40.8576 41.6097 40.1376 41.9084 39.5349C42.207 38.9323 42.615 38.4709 43.1324 38.1509C43.655 37.8256 44.2497 37.6629 44.9164 37.6629C45.4977 37.6629 45.9937 37.7803 46.4044 38.0149C46.815 38.2496 47.1457 38.5669 47.3964 38.9669C47.647 39.3669 47.8204 39.8203 47.9164 40.3269C48.0177 40.8283 48.047 41.3483 48.0044 41.8869H42.4684V41.1189H47.1804L46.8124 41.3589C46.8284 41.0443 46.8097 40.7296 46.7564 40.4149C46.7084 40.1003 46.615 39.8123 46.4764 39.5509C46.3377 39.2843 46.143 39.0709 45.8924 38.9109C45.6417 38.7509 45.3217 38.6709 44.9324 38.6709C44.4417 38.6709 44.031 38.7963 43.7004 39.0469C43.3697 39.2976 43.1217 39.6283 42.9564 40.0389C42.791 40.4443 42.7084 40.8843 42.7084 41.3589V41.8709C42.7084 42.4043 42.7884 42.8816 42.9484 43.3029C43.1137 43.7243 43.359 44.0576 43.6844 44.3029C44.0097 44.5483 44.4204 44.6709 44.9164 44.6709C45.4124 44.6709 45.8204 44.5509 46.1404 44.3109C46.4604 44.0709 46.655 43.7163 46.7244 43.2469H48.0204C47.9404 43.7536 47.759 44.1909 47.4764 44.5589C47.1937 44.9216 46.8337 45.2016 46.3964 45.3989C45.959 45.5963 45.4657 45.6949 44.9164 45.6949ZM53.3751 45.6949C52.7565 45.6949 52.1885 45.5296 51.6711 45.1989C51.1538 44.8629 50.7405 44.3936 50.4311 43.7909C50.1218 43.1829 49.9671 42.4683 49.9671 41.6469C49.9671 40.8309 50.1191 40.1243 50.4231 39.5269C50.7271 38.9296 51.1298 38.4709 51.6311 38.1509C52.1378 37.8256 52.6925 37.6629 53.2951 37.6629C53.8551 37.6629 54.3458 37.7989 54.7671 38.0709C55.1938 38.3429 55.5245 38.7349 55.7591 39.2469C55.9938 39.7589 56.1111 40.3776 56.1111 41.1029H55.6311C55.6311 40.5963 55.5298 40.1696 55.3271 39.8229C55.1298 39.4763 54.8711 39.2149 54.5511 39.0389C54.2311 38.8576 53.8871 38.7669 53.5191 38.7669C53.1031 38.7669 52.7218 38.8843 52.3751 39.1189C52.0338 39.3483 51.7591 39.6789 51.5511 40.1109C51.3485 40.5376 51.2471 41.0496 51.2471 41.6469C51.2471 42.2549 51.3485 42.7776 51.5511 43.2149C51.7591 43.6523 52.0338 43.9883 52.3751 44.2229C52.7218 44.4576 53.1031 44.5749 53.5191 44.5749C53.8658 44.5749 54.1991 44.4843 54.5191 44.3029C54.8445 44.1216 55.1111 43.8576 55.3191 43.5109C55.5271 43.1589 55.6311 42.7349 55.6311 42.2389H56.1111C56.1111 42.9803 55.9885 43.6096 55.7431 44.1269C55.5031 44.6389 55.1751 45.0283 54.7591 45.2949C54.3485 45.5616 53.8871 45.6949 53.3751 45.6949ZM55.8391 45.5029L55.6311 43.7109V34.5909H56.8791V45.5029H55.8391ZM60.9875 36.0469C60.7315 36.0469 60.5288 35.9749 60.3795 35.8309C60.2302 35.6816 60.1555 35.4869 60.1555 35.2469C60.1555 35.0123 60.2302 34.8256 60.3795 34.6869C60.5288 34.5483 60.7315 34.4789 60.9875 34.4789C61.2435 34.4789 61.4462 34.5483 61.5955 34.6869C61.7448 34.8256 61.8195 35.0123 61.8195 35.2469C61.8195 35.4869 61.7448 35.6816 61.5955 35.8309C61.4462 35.9749 61.2435 36.0469 60.9875 36.0469ZM60.3635 45.5029V37.8389H61.6115V45.5029H60.3635ZM67.8971 45.6949C67.2838 45.6949 66.7105 45.5296 66.1771 45.1989C65.6491 44.8683 65.2225 44.4016 64.8971 43.7989C64.5718 43.1963 64.4091 42.4843 64.4091 41.6629C64.4091 40.8203 64.5718 40.1003 64.8971 39.5029C65.2225 38.9056 65.6491 38.4496 66.1771 38.1349C66.7105 37.8203 67.2838 37.6629 67.8971 37.6629C68.3291 37.6629 68.7158 37.7296 69.0571 37.8629C69.4038 37.9909 69.7051 38.1696 69.9611 38.3989C70.2171 38.6283 70.4278 38.8896 70.5931 39.1829C70.7638 39.4709 70.8891 39.7749 70.9691 40.0949L69.6891 40.2069C69.5558 39.7643 69.3318 39.4149 69.0171 39.1589C68.7078 38.8976 68.3291 38.7669 67.8811 38.7669C67.5025 38.7669 67.1451 38.8763 66.8091 39.0949C66.4785 39.3083 66.2091 39.6309 66.0011 40.0629C65.7931 40.4896 65.6891 41.0229 65.6891 41.6629C65.6891 42.2549 65.7825 42.7696 65.9691 43.2069C66.1611 43.6389 66.4225 43.9749 66.7531 44.2149C67.0838 44.4549 67.4598 44.5749 67.8811 44.5749C68.4731 44.5749 68.9211 44.4309 69.2251 44.1429C69.5345 43.8496 69.6891 43.4443 69.6891 42.9269H70.9691C70.9691 43.4603 70.8438 43.9349 70.5931 44.3509C70.3425 44.7669 69.9851 45.0949 69.5211 45.3349C69.0625 45.5749 68.5211 45.6949 67.8971 45.6949ZM78.3551 45.5029L78.1951 43.8229V40.5429C78.1951 39.8549 78.0485 39.3616 77.7551 39.0629C77.4618 38.7589 77.0218 38.6069 76.4351 38.6069C76.1045 38.6069 75.8031 38.6549 75.5311 38.7509C75.2645 38.8469 75.0511 38.9963 74.8911 39.1989C74.7365 39.3963 74.6591 39.6523 74.6591 39.9669H73.2671C73.2671 39.4123 73.4031 38.9669 73.6751 38.6309C73.9471 38.2896 74.3205 38.0443 74.7951 37.8949C75.2751 37.7403 75.8218 37.6629 76.4351 37.6629C77.0218 37.6629 77.5418 37.7616 77.9951 37.9589C78.4485 38.1563 78.8031 38.4709 79.0591 38.9029C79.3151 39.3296 79.4431 39.8869 79.4431 40.5749V45.5029H78.3551ZM75.7471 45.6949C75.1178 45.6949 74.5978 45.5829 74.1871 45.3589C73.7765 45.1349 73.4698 44.8443 73.2671 44.4869C73.0645 44.1296 72.9631 43.7536 72.9631 43.3589C72.9631 42.8416 73.0911 42.4203 73.3471 42.0949C73.6085 41.7696 73.9631 41.5323 74.4111 41.3829C74.8591 41.2283 75.3631 41.1509 75.9231 41.1509C76.3231 41.1509 76.7231 41.1909 77.1231 41.2709C77.5285 41.3509 77.9231 41.4603 78.3071 41.5989V42.3829C77.9871 42.2549 77.6245 42.1536 77.2191 42.0789C76.8191 42.0043 76.4511 41.9669 76.1151 41.9669C75.6031 41.9669 75.1711 42.0736 74.8191 42.2869C74.4671 42.4949 74.2911 42.8523 74.2911 43.3589C74.2911 43.7323 74.4245 44.0523 74.6911 44.3189C74.9631 44.5856 75.3951 44.7189 75.9871 44.7189C76.4031 44.7189 76.7765 44.6229 77.1071 44.4309C77.4431 44.2336 77.7071 43.9883 77.8991 43.6949C78.0965 43.4016 78.1951 43.1083 78.1951 42.8149H78.4991C78.4991 43.3269 78.3871 43.8016 78.1631 44.2389C77.9445 44.6763 77.6298 45.0283 77.2191 45.2949C76.8085 45.5616 76.3178 45.6949 75.7471 45.6949ZM84.9436 45.6949C84.5276 45.6949 84.1543 45.6149 83.8236 45.4549C83.493 45.2949 83.2316 45.0549 83.0396 44.7349C82.8476 44.4149 82.7516 44.0149 82.7516 43.5349V35.7269H83.9836V43.5029C83.9836 44.2923 84.3516 44.6869 85.0876 44.6869C85.3063 44.6869 85.517 44.6629 85.7196 44.6149C85.9276 44.5669 86.1596 44.4949 86.4156 44.3989L86.5916 45.2949C86.3196 45.4123 86.0476 45.5083 85.7756 45.5829C85.509 45.6576 85.2316 45.6949 84.9436 45.6949ZM81.5196 38.7189V37.8549H86.3996V38.7189H81.5196ZM91.4233 45.6949C90.7619 45.6949 90.1699 45.5269 89.6473 45.1909C89.1299 44.8496 88.7193 44.3776 88.4153 43.7749C88.1166 43.1723 87.9673 42.4789 87.9673 41.6949C87.9673 40.8576 88.1166 40.1376 88.4153 39.5349C88.7139 38.9323 89.1219 38.4709 89.6393 38.1509C90.1619 37.8256 90.7566 37.6629 91.4233 37.6629C92.0046 37.6629 92.5006 37.7803 92.9113 38.0149C93.3219 38.2496 93.6526 38.5669 93.9033 38.9669C94.1539 39.3669 94.3273 39.8203 94.4233 40.3269C94.5246 40.8283 94.5539 41.3483 94.5113 41.8869H88.9753V41.1189H93.6873L93.3193 41.3589C93.3353 41.0443 93.3166 40.7296 93.2633 40.4149C93.2153 40.1003 93.1219 39.8123 92.9833 39.5509C92.8446 39.2843 92.6499 39.0709 92.3993 38.9109C92.1486 38.7509 91.8286 38.6709 91.4393 38.6709C90.9486 38.6709 90.5379 38.7963 90.2073 39.0469C89.8766 39.2976 89.6286 39.6283 89.4633 40.0389C89.2979 40.4443 89.2153 40.8843 89.2153 41.3589V41.8709C89.2153 42.4043 89.2953 42.8816 89.4553 43.3029C89.6206 43.7243 89.8659 44.0576 90.1913 44.3029C90.5166 44.5483 90.9273 44.6709 91.4233 44.6709C91.9193 44.6709 92.3273 44.5509 92.6473 44.3109C92.9673 44.0709 93.1619 43.7163 93.2313 43.2469H94.5273C94.4473 43.7536 94.2659 44.1909 93.9833 44.5589C93.7006 44.9216 93.3406 45.2016 92.9033 45.3989C92.4659 45.5963 91.9726 45.6949 91.4233 45.6949ZM99.882 45.6949C99.2633 45.6949 98.6953 45.5296 98.178 45.1989C97.6607 44.8629 97.2473 44.3936 96.938 43.7909C96.6287 43.1829 96.474 42.4683 96.474 41.6469C96.474 40.8309 96.626 40.1243 96.93 39.5269C97.234 38.9296 97.6367 38.4709 98.138 38.1509C98.6447 37.8256 99.1993 37.6629 99.802 37.6629C100.362 37.6629 100.853 37.7989 101.274 38.0709C101.701 38.3429 102.031 38.7349 102.266 39.2469C102.501 39.7589 102.618 40.3776 102.618 41.1029H102.138C102.138 40.5963 102.037 40.1696 101.834 39.8229C101.637 39.4763 101.378 39.2149 101.058 39.0389C100.738 38.8576 100.394 38.7669 100.026 38.7669C99.61 38.7669 99.2287 38.8843 98.882 39.1189C98.5407 39.3483 98.266 39.6789 98.058 40.1109C97.8553 40.5376 97.754 41.0496 97.754 41.6469C97.754 42.2549 97.8553 42.7776 98.058 43.2149C98.266 43.6523 98.5407 43.9883 98.882 44.2229C99.2287 44.4576 99.61 44.5749 100.026 44.5749C100.373 44.5749 100.706 44.4843 101.026 44.3029C101.351 44.1216 101.618 43.8576 101.826 43.5109C102.034 43.1589 102.138 42.7349 102.138 42.2389H102.618C102.618 42.9803 102.495 43.6096 102.25 44.1269C102.01 44.6389 101.682 45.0283 101.266 45.2949C100.855 45.5616 100.394 45.6949 99.882 45.6949ZM102.346 45.5029L102.138 43.7109V34.5909H103.386V45.5029H102.346ZM113.099 45.6949C112.683 45.6949 112.31 45.6149 111.979 45.4549C111.649 45.2949 111.387 45.0549 111.195 44.7349C111.003 44.4149 110.907 44.0149 110.907 43.5349V35.7269H112.139V43.5029C112.139 44.2923 112.507 44.6869 113.243 44.6869C113.462 44.6869 113.673 44.6629 113.875 44.6149C114.083 44.5669 114.315 44.4949 114.571 44.3989L114.747 45.2949C114.475 45.4123 114.203 45.5083 113.931 45.5829C113.665 45.6576 113.387 45.6949 113.099 45.6949ZM109.675 38.7189V37.8549H114.555V38.7189H109.675ZM119.691 45.6949C119.003 45.6949 118.39 45.5429 117.851 45.2389C117.318 44.9349 116.896 44.4843 116.587 43.8869C116.278 43.2896 116.123 42.5536 116.123 41.6789C116.123 40.7989 116.278 40.0629 116.587 39.4709C116.896 38.8736 117.318 38.4229 117.851 38.1189C118.39 37.8149 119.003 37.6629 119.691 37.6629C120.374 37.6629 120.982 37.8149 121.515 38.1189C122.054 38.4229 122.475 38.8736 122.779 39.4709C123.088 40.0629 123.243 40.7989 123.243 41.6789C123.243 42.5536 123.088 43.2896 122.779 43.8869C122.475 44.4843 122.054 44.9349 121.515 45.2389C120.982 45.5429 120.374 45.6949 119.691 45.6949ZM119.659 44.6069C120.155 44.6069 120.576 44.4896 120.923 44.2549C121.27 44.0149 121.531 43.6763 121.707 43.2389C121.888 42.8016 121.979 42.2816 121.979 41.6789C121.979 40.7669 121.79 40.0496 121.411 39.5269C121.032 38.9989 120.47 38.7349 119.723 38.7349C119.222 38.7349 118.798 38.8549 118.451 39.0949C118.11 39.3296 117.848 39.6683 117.667 40.1109C117.491 40.5483 117.403 41.0709 117.403 41.6789C117.403 42.5803 117.592 43.2949 117.971 43.8229C118.355 44.3456 118.918 44.6069 119.659 44.6069ZM129.662 45.5029V35.1189H133.854C134.654 35.1189 135.318 35.2443 135.846 35.4949C136.374 35.7403 136.768 36.0709 137.03 36.4869C137.291 36.9029 137.422 37.3643 137.422 37.8709C137.422 38.4576 137.256 38.9589 136.926 39.3749C136.6 39.7909 136.142 40.0843 135.55 40.2549C135.939 40.3349 136.288 40.4816 136.598 40.6949C136.907 40.9083 137.15 41.1776 137.326 41.5029C137.507 41.8283 137.598 42.2016 137.598 42.6229C137.598 42.9536 137.539 43.2869 137.422 43.6229C137.31 43.9589 137.112 44.2709 136.83 44.5589C136.552 44.8416 136.171 45.0709 135.686 45.2469C135.206 45.4176 134.6 45.5029 133.87 45.5029H129.662ZM131.55 43.8549H133.822C134.424 43.8549 134.864 43.7349 135.142 43.4949C135.424 43.2496 135.566 42.9216 135.566 42.5109C135.566 42.1003 135.422 41.7723 135.134 41.5269C134.846 41.2763 134.408 41.1509 133.822 41.1509H131.55V43.8549ZM131.55 36.7509V39.5029H133.774C134.334 39.5029 134.758 39.3803 135.046 39.1349C135.339 38.8843 135.486 38.5429 135.486 38.1109C135.486 37.7003 135.342 37.3723 135.054 37.1269C134.771 36.8763 134.35 36.7509 133.79 36.7509H131.55ZM140.181 45.5029V35.1189H146.853V36.7509H142.069V39.4869H146.565V41.1189H142.069V43.8549H146.853V45.5029H140.181ZM149.731 45.5029V35.1189H156.403V36.7509H151.619V39.4869H156.115V41.1189H151.619V43.8549H156.403V45.5029H149.731ZM167.121 45.7269C166.401 45.7269 165.737 45.6016 165.129 45.3509C164.526 45.1003 164.036 44.7189 163.657 44.2069C163.284 43.6949 163.084 43.0443 163.057 42.2549H164.913C164.913 42.6549 165.012 42.9829 165.209 43.2389C165.406 43.4949 165.67 43.6869 166.001 43.8149C166.337 43.9376 166.705 43.9989 167.105 43.9989C167.489 43.9989 167.83 43.9483 168.129 43.8469C168.433 43.7456 168.67 43.6016 168.841 43.4149C169.017 43.2229 169.105 42.9963 169.105 42.7349C169.105 42.3883 168.998 42.1163 168.785 41.9189C168.577 41.7216 168.241 41.5403 167.777 41.3749L165.729 40.5589C164.929 40.2443 164.316 39.8789 163.889 39.4629C163.462 39.0469 163.249 38.4736 163.249 37.7429C163.249 36.9003 163.582 36.2176 164.249 35.6949C164.916 35.1723 165.846 34.9109 167.041 34.9109C168.204 34.9109 169.102 35.1829 169.737 35.7269C170.372 36.2656 170.732 37.0176 170.817 37.9829H168.961C168.892 37.5723 168.705 37.2443 168.401 36.9989C168.097 36.7483 167.644 36.6229 167.041 36.6229C166.508 36.6229 166.086 36.7349 165.777 36.9589C165.468 37.1776 165.313 37.4549 165.313 37.7909C165.313 38.0789 165.409 38.3083 165.601 38.4789C165.798 38.6443 166.102 38.8043 166.513 38.9589L168.785 39.8389C169.553 40.1376 170.142 40.5136 170.553 40.9669C170.964 41.4203 171.169 41.9883 171.169 42.6709C171.169 43.2949 171.012 43.8363 170.697 44.2949C170.382 44.7483 169.924 45.1003 169.321 45.3509C168.718 45.6016 167.985 45.7269 167.121 45.7269ZM172.476 36.7509V35.1189H180.796V36.7509H177.156L177.58 36.3189V45.5029H175.692V36.3189L176.116 36.7509H172.476ZM182.528 45.5029V35.1189H184.416V45.5029H182.528ZM187.531 35.1189H189.595L194.315 42.5269H194.171V35.1189H196.059V45.5029H194.139L189.115 37.6469H189.419V45.5029H187.531V35.1189ZM202.984 45.7269C202.136 45.7269 201.37 45.5029 200.688 45.0549C200.005 44.6069 199.461 43.9829 199.056 43.1829C198.656 42.3776 198.456 41.4389 198.456 40.3669C198.456 39.5189 198.578 38.7589 198.824 38.0869C199.074 37.4149 199.421 36.8416 199.864 36.3669C200.306 35.8923 200.826 35.5323 201.424 35.2869C202.021 35.0363 202.669 34.9109 203.368 34.9109C204.338 34.9109 205.152 35.1216 205.808 35.5429C206.469 35.9643 206.984 36.6283 207.352 37.5349L205.416 37.9829C205.144 37.5403 204.829 37.2043 204.472 36.9749C204.12 36.7403 203.72 36.6229 203.272 36.6229C202.76 36.6229 202.293 36.7749 201.872 37.0789C201.45 37.3776 201.114 37.8069 200.864 38.3669C200.613 38.9269 200.488 39.5936 200.488 40.3669C200.488 41.0923 200.597 41.7269 200.816 42.2709C201.04 42.8149 201.352 43.2389 201.752 43.5429C202.152 43.8469 202.616 43.9989 203.144 43.9989C203.592 43.9989 203.992 43.9003 204.344 43.7029C204.701 43.5003 204.981 43.2123 205.184 42.8389C205.392 42.4656 205.496 42.0149 205.496 41.4869H205.912C205.912 42.3509 205.808 43.1003 205.6 43.7349C205.397 44.3696 205.08 44.8603 204.648 45.2069C204.216 45.5536 203.661 45.7269 202.984 45.7269ZM205.768 45.5029L205.496 43.2149V41.4229L203.16 41.3749V40.1749H207.304V45.5029H205.768ZM213.796 45.7269C213.076 45.7269 212.412 45.6016 211.804 45.3509C211.201 45.1003 210.711 44.7189 210.332 44.2069C209.959 43.6949 209.759 43.0443 209.732 42.2549H211.588C211.588 42.6549 211.687 42.9829 211.884 43.2389C212.081 43.4949 212.345 43.6869 212.676 43.8149C213.012 43.9376 213.38 43.9989 213.78 43.9989C214.164 43.9989 214.505 43.9483 214.804 43.8469C215.108 43.7456 215.345 43.6016 215.516 43.4149C215.692 43.2229 215.78 42.9963 215.78 42.7349C215.78 42.3883 215.673 42.1163 215.46 41.9189C215.252 41.7216 214.916 41.5403 214.452 41.3749L212.404 40.5589C211.604 40.2443 210.991 39.8789 210.564 39.4629C210.137 39.0469 209.924 38.4736 209.924 37.7429C209.924 36.9003 210.257 36.2176 210.924 35.6949C211.591 35.1723 212.521 34.9109 213.716 34.9109C214.879 34.9109 215.777 35.1829 216.412 35.7269C217.047 36.2656 217.407 37.0176 217.492 37.9829H215.636C215.567 37.5723 215.38 37.2443 215.076 36.9989C214.772 36.7483 214.319 36.6229 213.716 36.6229C213.183 36.6229 212.761 36.7349 212.452 36.9589C212.143 37.1776 211.988 37.4549 211.988 37.7909C211.988 38.0789 212.084 38.3083 212.276 38.4789C212.473 38.6443 212.777 38.8043 213.188 38.9589L215.46 39.8389C216.228 40.1376 216.817 40.5136 217.228 40.9669C217.639 41.4203 217.844 41.9883 217.844 42.6709C217.844 43.2949 217.687 43.8363 217.372 44.2949C217.057 44.7483 216.599 45.1003 215.996 45.3509C215.393 45.6016 214.66 45.7269 213.796 45.7269ZM224.878 47.1189V33.8229H228.03V34.9269H226.126V46.0149H228.03V47.1189H224.878ZM228.964 44.7589C228.964 44.5083 229.052 44.2923 229.228 44.1109C229.404 43.9296 229.626 43.8389 229.892 43.8389C230.159 43.8389 230.386 43.9296 230.572 44.1109C230.759 44.2923 230.852 44.5083 230.852 44.7589C230.852 45.0096 230.759 45.2203 230.572 45.3909C230.386 45.5616 230.159 45.6469 229.892 45.6469C229.626 45.6469 229.404 45.5616 229.228 45.3909C229.052 45.2149 228.964 45.0043 228.964 44.7589ZM231.984 44.7589C231.984 44.5083 232.072 44.2923 232.248 44.1109C232.424 43.9296 232.645 43.8389 232.912 43.8389C233.178 43.8389 233.405 43.9296 233.592 44.1109C233.778 44.2923 233.872 44.5083 233.872 44.7589C233.872 45.0096 233.778 45.2203 233.592 45.3909C233.405 45.5616 233.178 45.6469 232.912 45.6469C232.645 45.6469 232.424 45.5616 232.248 45.3909C232.072 45.2149 231.984 45.0043 231.984 44.7589ZM235.003 44.7589C235.003 44.5083 235.091 44.2923 235.267 44.1109C235.443 43.9296 235.664 43.8389 235.931 43.8389C236.198 43.8389 236.424 43.9296 236.611 44.1109C236.798 44.2923 236.891 44.5083 236.891 44.7589C236.891 45.0096 236.798 45.2203 236.611 45.3909C236.424 45.5616 236.198 45.6469 235.931 45.6469C235.664 45.6469 235.443 45.5616 235.267 45.3909C235.091 45.2149 235.003 45.0043 235.003 44.7589ZM240.47 47.1189V33.8229H237.318V34.9269H239.222V46.0149H237.318V47.1189H240.47Z" fill="#333333"/>
</g>
<defs>
<filter id="filter0_d_7041_5810" x="0.732641" y="0" width="262.035" height="68" filterUnits="userSpaceOnUse" color-interpolation-filters="sRGB">
<feFlood flood-opacity="0" result="BackgroundImageFix"/>
<feColorMatrix in="SourceAlpha" type="matrix" values="0 0 0 0 0 0 0 0 0 0 0 0 0 0 0 0 0 0 127 0" result="hardAlpha"/>
<feOffset dy="4"/>
<feGaussianBlur stdDeviation="3"/>
<feComposite in2="hardAlpha" operator="out"/>
<feColorMatrix type="matrix" values="0 0 0 0 0 0 0 0 0 0 0 0 0 0 0 0 0 0 0.1 0"/>
<feBlend mode="normal" in2="BackgroundImageFix" result="effect1_dropShadow_7041_5810"/>
<feBlend mode="normal" in="SourceGraphic" in2="effect1_dropShadow_7041_5810" result="shape"/>
</filter>
<filter id="filter1_d_7041_5810" x="25.144" y="12.5908" width="221.326" height="44.5283" filterUnits="userSpaceOnUse" color-interpolation-filters="sRGB">
<feFlood flood-opacity="0" result="BackgroundImageFix"/>
<feColorMatrix in="SourceAlpha" type="matrix" values="0 0 0 0 0 0 0 0 0 0 0 0 0 0 0 0 0 0 127 0" result="hardAlpha"/>
<feOffset dy="4"/>
<feGaussianBlur stdDeviation="3"/>
<feComposite in2="hardAlpha" operator="out"/>
<feColorMatrix type="matrix" values="0 0 0 0 0 0 0 0 0 0 0 0 0 0 0 0 0 0 0.05 0"/>
<feBlend mode="normal" in2="BackgroundImageFix" result="effect1_dropShadow_7041_5810"/>
<feBlend mode="normal" in="SourceGraphic" in2="effect1_dropShadow_7041_5810" result="shape"/>
</filter>
</defs>
</svg>
