<svg width="256" height="68" viewBox="0 0 256 68" fill="none" xmlns="http://www.w3.org/2000/svg">
<mask id="path-1-inside-1_7084_5716" fill="white">
<path d="M248.724 27.3669L239 19L239 11C239 6.02944 234.971 2 230 2L9.00022 1.99998C4.02965 1.99998 0.000218166 6.02942 0.000217732 11L0.00021441 49C0.000213975 53.9705 4.02965 58 9.00021 58L230 58C234.971 58 239 53.9706 239 49L239 39.5L248.612 32.0069C250.106 30.8425 250.16 28.6022 248.724 27.3669Z"/>
</mask>
<path d="M248.724 27.3669L239 19L239 11C239 6.02944 234.971 2 230 2L9.00022 1.99998C4.02965 1.99998 0.000218166 6.02942 0.000217732 11L0.00021441 49C0.000213975 53.9705 4.02965 58 9.00021 58L230 58C234.971 58 239 53.9706 239 49L239 39.5L248.612 32.0069C250.106 30.8425 250.16 28.6022 248.724 27.3669Z" fill="white"/>
<path d="M239 19L237.6 19L237.6 19.6423L238.087 20.0612L239 19ZM248.724 27.3669L249.637 26.3056L249.637 26.3056L248.724 27.3669ZM248.612 32.0069L247.751 30.9028L247.751 30.9028L248.612 32.0069ZM239 39.5L238.139 38.3959L237.6 38.8162L237.6 39.5L239 39.5ZM238.087 20.0612L247.811 28.4281L249.637 26.3056L239.913 17.9388L238.087 20.0612ZM247.751 30.9028L238.139 38.3959L239.861 40.6041L249.473 33.1111L247.751 30.9028ZM247.811 28.4281C248.577 29.0869 248.548 30.2817 247.751 30.9028L249.473 33.1111C251.664 31.4032 251.743 28.1175 249.637 26.3056L247.811 28.4281ZM230 56.6L9.00021 56.6L9.00021 59.4L230 59.4L230 56.6ZM1.40021 49L1.40022 11L-1.39978 11L-1.39979 49L1.40021 49ZM9.00022 3.39998L230 3.4L230 0.599998L9.00022 0.599979L9.00022 3.39998ZM237.6 39.5L237.6 49L240.4 49L240.4 39.5L237.6 39.5ZM237.6 11L237.6 19L240.4 19L240.4 11L237.6 11ZM230 3.4C234.198 3.4 237.6 6.80264 237.6 11L240.4 11C240.4 5.25624 235.744 0.599999 230 0.599998L230 3.4ZM1.40022 11C1.40022 6.80261 4.80285 3.39998 9.00022 3.39998L9.00022 0.599979C3.25645 0.599978 -1.39978 5.25622 -1.39978 11L1.40022 11ZM9.00021 56.6C4.80285 56.6 1.40021 53.1973 1.40021 49L-1.39979 49C-1.39979 54.7437 3.25645 59.4 9.00021 59.4L9.00021 56.6ZM230 59.4C235.744 59.4 240.4 54.7438 240.4 49L237.6 49C237.6 53.1974 234.198 56.6 230 56.6L230 59.4Z" fill="white" mask="url(#path-1-inside-1_7084_5716)"/>
<g filter="url(#filter0_d_7084_5716)">
<mask id="path-3-inside-2_7084_5716" fill="white">
<path d="M248.724 27.3669L239 19L239 11C239 6.02944 234.971 2 230 2L143 1.99999C138.03 1.99999 134 6.02943 134 11L134 49C134 53.9705 138.03 58 143 58L230 58C234.971 58 239 53.9706 239 49L239 39.5L248.612 32.0069C250.106 30.8425 250.16 28.6022 248.724 27.3669Z"/>
</mask>
<path d="M248.724 27.3669L239 19L239 11C239 6.02944 234.971 2 230 2L143 1.99999C138.03 1.99999 134 6.02943 134 11L134 49C134 53.9705 138.03 58 143 58L230 58C234.971 58 239 53.9706 239 49L239 39.5L248.612 32.0069C250.106 30.8425 250.16 28.6022 248.724 27.3669Z" fill="white"/>
<path d="M239 19L237.6 19L237.6 19.6423L238.087 20.0612L239 19ZM248.724 27.3669L249.637 26.3056L249.637 26.3056L248.724 27.3669ZM248.612 32.0069L247.751 30.9028L247.751 30.9028L248.612 32.0069ZM239 39.5L238.139 38.3959L237.6 38.8162L237.6 39.5L239 39.5ZM230 58L230 59.4L230 59.4L230 58ZM143 58L143 56.6L143 56.6L143 58ZM238.087 20.0612L247.811 28.4281L249.637 26.3056L239.913 17.9388L238.087 20.0612ZM247.751 30.9028L238.139 38.3959L239.861 40.6041L249.473 33.1111L247.751 30.9028ZM247.811 28.4281C248.577 29.0869 248.548 30.2817 247.751 30.9028L249.473 33.1111C251.664 31.4032 251.743 28.1175 249.637 26.3056L247.811 28.4281ZM230 56.6L143 56.6L143 59.4L230 59.4L230 56.6ZM135.4 49L135.4 11L132.6 11L132.6 49L135.4 49ZM143 3.39999L230 3.4L230 0.599998L143 0.599991L143 3.39999ZM237.6 39.5L237.6 49L240.4 49L240.4 39.5L237.6 39.5ZM237.6 11L237.6 19L240.4 19L240.4 11L237.6 11ZM230 3.4C234.198 3.4 237.6 6.80264 237.6 11L240.4 11C240.4 5.25624 235.744 0.599999 230 0.599998L230 3.4ZM135.4 11C135.4 6.80263 138.803 3.39999 143 3.39999L143 0.599991C137.256 0.59999 132.6 5.25623 132.6 11L135.4 11ZM143 56.6C138.803 56.6 135.4 53.1973 135.4 49L132.6 49C132.6 54.7437 137.256 59.4 143 59.4L143 56.6ZM230 59.4C235.744 59.4 240.4 54.7438 240.4 49L237.6 49C237.6 53.1974 234.198 56.6 230 56.6L230 59.4Z" fill="#333333" mask="url(#path-3-inside-2_7084_5716)"/>
</g>
<g filter="url(#filter1_d_7084_5716)">
<path d="M152.478 25.692C151.646 25.692 150.902 25.5 150.246 25.116C149.59 24.732 149.073 24.156 148.694 23.388C148.315 22.6147 148.126 21.6493 148.126 20.492C148.126 19.3187 148.315 18.348 148.694 17.58C149.073 16.8067 149.59 16.2307 150.246 15.852C150.902 15.468 151.646 15.276 152.478 15.276C153.31 15.276 154.054 15.468 154.71 15.852C155.366 16.236 155.883 16.8147 156.262 17.588C156.641 18.3613 156.83 19.3293 156.83 20.492C156.83 21.66 156.641 22.6307 156.262 23.404C155.883 24.172 155.366 24.7453 154.71 25.124C154.054 25.5027 153.31 25.692 152.478 25.692ZM152.478 24.54C153.422 24.54 154.166 24.196 154.71 23.508C155.259 22.82 155.534 21.8093 155.534 20.476C155.534 19.1693 155.259 18.164 154.71 17.46C154.166 16.7507 153.422 16.396 152.478 16.396C151.545 16.396 150.801 16.7507 150.246 17.46C149.697 18.1693 149.422 19.18 149.422 20.492C149.422 21.82 149.697 22.828 150.246 23.516C150.801 24.1987 151.545 24.54 152.478 24.54ZM165.19 15.452H166.918L160.502 22.06V20.3L165.19 15.452ZM162.31 19.692L167.19 25.5H165.558L161.414 20.508L162.31 19.692ZM159.414 15.452H160.678V25.5H159.414V15.452ZM169.421 22.684L169.261 15.484H170.589L170.429 22.684H169.421ZM169.925 25.644C169.653 25.644 169.429 25.5587 169.253 25.388C169.077 25.2173 168.989 25.004 168.989 24.748C168.989 24.4973 169.077 24.284 169.253 24.108C169.429 23.9267 169.653 23.836 169.925 23.836C170.192 23.836 170.416 23.9267 170.597 24.108C170.784 24.284 170.877 24.4973 170.877 24.748C170.877 25.004 170.784 25.2173 170.597 25.388C170.416 25.5587 170.192 25.644 169.925 25.644ZM176.455 15.452H177.863L180.471 24.396H180.103L182.775 16.492H183.623L186.263 24.332H185.911L188.903 15.452H190.295L186.743 25.5H185.431L183.111 18.684H183.351L180.951 25.5H179.639L176.455 15.452ZM197.744 25.5V21.004C197.744 20.2733 197.568 19.7187 197.216 19.34C196.869 18.956 196.395 18.764 195.792 18.764C195.333 18.764 194.936 18.8893 194.6 19.14C194.264 19.3907 194.005 19.7507 193.824 20.22C193.643 20.684 193.552 21.2387 193.552 21.884H193.072C193.072 20.9933 193.189 20.2333 193.424 19.604C193.659 18.9747 194 18.4947 194.448 18.164C194.901 17.828 195.451 17.66 196.096 17.66C196.699 17.66 197.213 17.796 197.64 18.068C198.072 18.3347 198.403 18.7187 198.632 19.22C198.861 19.7213 198.976 20.316 198.976 21.004V25.5H197.744ZM192.304 25.5V14.588H193.552V25.5H192.304ZM204.776 25.692C204.115 25.692 203.523 25.524 203 25.188C202.483 24.8467 202.072 24.3747 201.768 23.772C201.47 23.1693 201.32 22.476 201.32 21.692C201.32 20.8547 201.47 20.1347 201.768 19.532C202.067 18.9293 202.475 18.468 202.992 18.148C203.515 17.8227 204.11 17.66 204.776 17.66C205.358 17.66 205.854 17.7773 206.264 18.012C206.675 18.2467 207.006 18.564 207.256 18.964C207.507 19.364 207.68 19.8173 207.776 20.324C207.878 20.8253 207.907 21.3453 207.864 21.884H202.328V21.116H207.04L206.672 21.356C206.688 21.0413 206.67 20.7267 206.616 20.412C206.568 20.0973 206.475 19.8093 206.336 19.548C206.198 19.2813 206.003 19.068 205.752 18.908C205.502 18.748 205.182 18.668 204.792 18.668C204.302 18.668 203.891 18.7933 203.56 19.044C203.23 19.2947 202.982 19.6253 202.816 20.036C202.651 20.4413 202.568 20.8813 202.568 21.356V21.868C202.568 22.4013 202.648 22.8787 202.808 23.3C202.974 23.7213 203.219 24.0547 203.544 24.3C203.87 24.5453 204.28 24.668 204.776 24.668C205.272 24.668 205.68 24.548 206 24.308C206.32 24.068 206.515 23.7133 206.584 23.244H207.88C207.8 23.7507 207.619 24.188 207.336 24.556C207.054 24.9187 206.694 25.1987 206.256 25.396C205.819 25.5933 205.326 25.692 204.776 25.692ZM210.499 25.5V17.836H211.747V25.5H210.499ZM211.363 22.044C211.363 21.0733 211.456 20.268 211.643 19.628C211.83 18.9827 212.102 18.5027 212.459 18.188C212.822 17.868 213.262 17.708 213.779 17.708C213.95 17.708 214.104 17.7213 214.243 17.748C214.387 17.7693 214.531 17.804 214.675 17.852L214.595 19.084C214.446 19.036 214.283 18.996 214.107 18.964C213.931 18.9267 213.774 18.908 213.635 18.908C213.182 18.908 212.816 19.0387 212.539 19.3C212.262 19.556 212.059 19.9187 211.931 20.388C211.808 20.8573 211.747 21.4093 211.747 22.044H211.363ZM219.096 25.692C218.435 25.692 217.843 25.524 217.32 25.188C216.803 24.8467 216.392 24.3747 216.088 23.772C215.79 23.1693 215.64 22.476 215.64 21.692C215.64 20.8547 215.79 20.1347 216.088 19.532C216.387 18.9293 216.795 18.468 217.312 18.148C217.835 17.8227 218.43 17.66 219.096 17.66C219.678 17.66 220.174 17.7773 220.584 18.012C220.995 18.2467 221.326 18.564 221.576 18.964C221.827 19.364 222 19.8173 222.096 20.324C222.198 20.8253 222.227 21.3453 222.184 21.884H216.648V21.116H221.36L220.992 21.356C221.008 21.0413 220.99 20.7267 220.936 20.412C220.888 20.0973 220.795 19.8093 220.656 19.548C220.518 19.2813 220.323 19.068 220.072 18.908C219.822 18.748 219.502 18.668 219.112 18.668C218.622 18.668 218.211 18.7933 217.88 19.044C217.55 19.2947 217.302 19.6253 217.136 20.036C216.971 20.4413 216.888 20.8813 216.888 21.356V21.868C216.888 22.4013 216.968 22.8787 217.128 23.3C217.294 23.7213 217.539 24.0547 217.864 24.3C218.19 24.5453 218.6 24.668 219.096 24.668C219.592 24.668 220 24.548 220.32 24.308C220.64 24.068 220.835 23.7133 220.904 23.244H222.2C222.12 23.7507 221.939 24.188 221.656 24.556C221.374 24.9187 221.014 25.1987 220.576 25.396C220.139 25.5933 219.646 25.692 219.096 25.692ZM158.244 45.5L158.084 43.82V40.54C158.084 39.852 157.937 39.3587 157.644 39.06C157.351 38.756 156.911 38.604 156.324 38.604C155.993 38.604 155.692 38.652 155.42 38.748C155.153 38.844 154.94 38.9933 154.78 39.196C154.625 39.3933 154.548 39.6493 154.548 39.964H153.156C153.156 39.4093 153.292 38.964 153.564 38.628C153.836 38.2867 154.209 38.0413 154.684 37.892C155.164 37.7373 155.711 37.66 156.324 37.66C156.911 37.66 157.431 37.7587 157.884 37.956C158.337 38.1533 158.692 38.468 158.948 38.9C159.204 39.3267 159.332 39.884 159.332 40.572V45.5H158.244ZM155.636 45.692C155.007 45.692 154.487 45.58 154.076 45.356C153.665 45.132 153.359 44.8413 153.156 44.484C152.953 44.1267 152.852 43.7507 152.852 43.356C152.852 42.8387 152.98 42.4173 153.236 42.092C153.497 41.7667 153.852 41.5293 154.3 41.38C154.748 41.2253 155.252 41.148 155.812 41.148C156.212 41.148 156.612 41.188 157.012 41.268C157.417 41.348 157.812 41.4573 158.196 41.596V42.38C157.876 42.252 157.513 42.1507 157.108 42.076C156.708 42.0013 156.34 41.964 156.004 41.964C155.492 41.964 155.06 42.0707 154.708 42.284C154.356 42.492 154.18 42.8493 154.18 43.356C154.18 43.7293 154.313 44.0493 154.58 44.316C154.852 44.5827 155.284 44.716 155.876 44.716C156.292 44.716 156.665 44.62 156.996 44.428C157.332 44.2307 157.596 43.9853 157.788 43.692C157.985 43.3987 158.084 43.1053 158.084 42.812H158.388C158.388 43.324 158.276 43.7987 158.052 44.236C157.833 44.6733 157.519 45.0253 157.108 45.292C156.697 45.5587 156.207 45.692 155.636 45.692ZM173.232 45.5V41.004C173.232 40.2733 173.056 39.7187 172.704 39.34C172.358 38.956 171.888 38.764 171.296 38.764C170.603 38.764 170.072 39.0333 169.704 39.572C169.336 40.1053 169.152 40.844 169.152 41.788H168.576C168.576 41.1 168.643 40.4973 168.776 39.98C168.915 39.4627 169.115 39.0333 169.376 38.692C169.638 38.3453 169.955 38.0867 170.328 37.916C170.702 37.7453 171.126 37.66 171.6 37.66C172.203 37.66 172.718 37.796 173.144 38.068C173.576 38.3347 173.907 38.7187 174.136 39.22C174.366 39.7213 174.48 40.316 174.48 41.004V45.5H173.232ZM162.48 45.5V37.852H163.552L163.696 39.388C163.936 38.8333 164.272 38.4067 164.704 38.108C165.142 37.8093 165.664 37.66 166.272 37.66C166.875 37.66 167.39 37.796 167.816 38.068C168.248 38.3347 168.579 38.7187 168.808 39.22C169.038 39.7213 169.152 40.316 169.152 41.004V45.5H167.92V41.004C167.92 40.2733 167.744 39.7187 167.392 39.34C167.046 38.956 166.571 38.764 165.968 38.764C165.51 38.764 165.112 38.8893 164.776 39.14C164.44 39.3907 164.182 39.7507 164 40.22C163.819 40.684 163.728 41.2387 163.728 41.884V45.5H162.48ZM181.566 45.5V35.452H182.814V45.5H181.566ZM195.607 45.5V41.004C195.607 40.2733 195.431 39.7187 195.079 39.34C194.733 38.956 194.258 38.764 193.655 38.764C193.197 38.764 192.799 38.8893 192.463 39.14C192.127 39.3907 191.869 39.7507 191.687 40.22C191.506 40.684 191.415 41.2387 191.415 41.884H190.935C190.935 40.9933 191.053 40.2333 191.287 39.604C191.522 38.9747 191.863 38.4947 192.311 38.164C192.765 37.828 193.314 37.66 193.959 37.66C194.562 37.66 195.077 37.796 195.503 38.068C195.935 38.3347 196.266 38.7187 196.495 39.22C196.725 39.7213 196.839 40.316 196.839 41.004V45.5H195.607ZM190.167 45.5V37.852H191.239L191.415 39.612V45.5H190.167ZM202.752 45.692C202.064 45.692 201.45 45.54 200.912 45.236C200.378 44.932 199.957 44.4813 199.648 43.884C199.338 43.2867 199.184 42.5507 199.184 41.676C199.184 40.796 199.338 40.06 199.648 39.468C199.957 38.8707 200.378 38.42 200.912 38.116C201.45 37.812 202.064 37.66 202.752 37.66C203.434 37.66 204.042 37.812 204.576 38.116C205.114 38.42 205.536 38.8707 205.84 39.468C206.149 40.06 206.304 40.796 206.304 41.676C206.304 42.5507 206.149 43.2867 205.84 43.884C205.536 44.4813 205.114 44.932 204.576 45.236C204.042 45.54 203.434 45.692 202.752 45.692ZM202.72 44.604C203.216 44.604 203.637 44.4867 203.984 44.252C204.33 44.012 204.592 43.6733 204.768 43.236C204.949 42.7987 205.04 42.2787 205.04 41.676C205.04 40.764 204.85 40.0467 204.472 39.524C204.093 38.996 203.53 38.732 202.784 38.732C202.282 38.732 201.858 38.852 201.512 39.092C201.17 39.3267 200.909 39.6653 200.728 40.108C200.552 40.5453 200.464 41.068 200.464 41.676C200.464 42.5773 200.653 43.292 201.032 43.82C201.416 44.3427 201.978 44.604 202.72 44.604ZM207.566 37.852H208.862L210.814 44.236H210.654L212.558 38.22H213.598L215.486 44.252H215.342L217.294 37.852H218.542L216.03 45.5H214.814L212.958 39.852H213.15L211.31 45.5H210.094L207.566 37.852ZM221.863 42.94V42.22C221.863 41.756 221.911 41.3747 222.007 41.076C222.109 40.7773 222.274 40.5187 222.503 40.3C222.733 40.0813 223.047 39.8627 223.447 39.644C223.805 39.452 224.09 39.2733 224.303 39.108C224.517 38.9427 224.669 38.764 224.759 38.572C224.855 38.38 224.903 38.1453 224.903 37.868C224.903 37.452 224.733 37.1053 224.391 36.828C224.055 36.5507 223.591 36.412 222.999 36.412C222.343 36.412 221.842 36.5427 221.495 36.804C221.149 37.06 220.93 37.42 220.839 37.884H219.511C219.586 37.1053 219.911 36.476 220.487 35.996C221.069 35.516 221.895 35.276 222.967 35.276C223.65 35.276 224.237 35.396 224.727 35.636C225.223 35.8707 225.602 36.188 225.863 36.588C226.13 36.9827 226.263 37.42 226.263 37.9C226.263 38.4493 226.125 38.9107 225.847 39.284C225.57 39.652 225.122 40.0013 224.503 40.332C224.146 40.5293 223.863 40.7133 223.655 40.884C223.453 41.0493 223.309 41.2413 223.223 41.46C223.138 41.6733 223.095 41.9533 223.095 42.3V42.94H221.863ZM222.503 45.692C222.237 45.692 222.015 45.6067 221.839 45.436C221.663 45.26 221.575 45.0493 221.575 44.804C221.575 44.5533 221.661 44.3373 221.831 44.156C222.007 43.9747 222.229 43.884 222.495 43.884C222.762 43.884 222.989 43.9747 223.175 44.156C223.367 44.332 223.463 44.5453 223.463 44.796C223.463 45.0413 223.37 45.252 223.183 45.428C222.997 45.604 222.77 45.692 222.503 45.692Z" fill="#333333"/>
</g>
<defs>
<filter id="filter0_d_7084_5716" x="128" y="0" width="127.768" height="68" filterUnits="userSpaceOnUse" color-interpolation-filters="sRGB">
<feFlood flood-opacity="0" result="BackgroundImageFix"/>
<feColorMatrix in="SourceAlpha" type="matrix" values="0 0 0 0 0 0 0 0 0 0 0 0 0 0 0 0 0 0 127 0" result="hardAlpha"/>
<feOffset dy="4"/>
<feGaussianBlur stdDeviation="3"/>
<feComposite in2="hardAlpha" operator="out"/>
<feColorMatrix type="matrix" values="0 0 0 0 0 0 0 0 0 0 0 0 0 0 0 0 0 0 0.1 0"/>
<feBlend mode="normal" in2="BackgroundImageFix" result="effect1_dropShadow_7084_5716"/>
<feBlend mode="normal" in="SourceGraphic" in2="effect1_dropShadow_7084_5716" result="shape"/>
</filter>
<filter id="filter1_d_7084_5716" x="142.126" y="12.5879" width="90.1372" height="43.1045" filterUnits="userSpaceOnUse" color-interpolation-filters="sRGB">
<feFlood flood-opacity="0" result="BackgroundImageFix"/>
<feColorMatrix in="SourceAlpha" type="matrix" values="0 0 0 0 0 0 0 0 0 0 0 0 0 0 0 0 0 0 127 0" result="hardAlpha"/>
<feOffset dy="4"/>
<feGaussianBlur stdDeviation="3"/>
<feComposite in2="hardAlpha" operator="out"/>
<feColorMatrix type="matrix" values="0 0 0 0 0 0 0 0 0 0 0 0 0 0 0 0 0 0 0.05 0"/>
<feBlend mode="normal" in2="BackgroundImageFix" result="effect1_dropShadow_7084_5716"/>
<feBlend mode="normal" in="SourceGraphic" in2="effect1_dropShadow_7084_5716" result="shape"/>
</filter>
</defs>
</svg>
