<svg width="257" height="88" viewBox="0 0 257 88" fill="none" xmlns="http://www.w3.org/2000/svg">
<path d="M7.04333 42.6331L16.7674 51V69C16.7674 73.9706 20.7968 78 25.7674 78L247.035 78C252.005 78 256.035 73.9706 256.035 69V11C256.035 6.02944 252.005 2 247.035 2L25.7674 2C20.7968 2 16.7674 6.02944 16.7674 11L16.7674 30.5L7.15555 37.9931C5.66179 39.1575 5.60761 41.3978 7.04333 42.6331Z" fill="white"/>
<g filter="url(#filter0_d_7073_5865)">
<mask id="path-2-inside-1_7073_5865" fill="white">
<path d="M7.04333 42.6331L16.7674 51V69C16.7674 73.9706 20.7968 78 25.7674 78L195.035 78C200.005 78 204.035 73.9706 204.035 69V11C204.035 6.02944 200.005 2 195.035 2L25.7674 2C20.7968 2 16.7674 6.02944 16.7674 11L16.7674 30.5L7.15555 37.9931C5.66179 39.1575 5.60761 41.3978 7.04333 42.6331Z"/>
</mask>
<path d="M7.04333 42.6331L16.7674 51V69C16.7674 73.9706 20.7968 78 25.7674 78L195.035 78C200.005 78 204.035 73.9706 204.035 69V11C204.035 6.02944 200.005 2 195.035 2L25.7674 2C20.7968 2 16.7674 6.02944 16.7674 11L16.7674 30.5L7.15555 37.9931C5.66179 39.1575 5.60761 41.3978 7.04333 42.6331Z" fill="white"/>
<path d="M16.7674 51H18.1674V50.3577L17.6805 49.9388L16.7674 51ZM7.04333 42.6331L6.13021 43.6944H6.13021L7.04333 42.6331ZM7.15555 37.9931L6.2948 36.8889H6.2948L7.15555 37.9931ZM16.7674 30.5L17.6281 31.6041L18.1674 31.1838V30.5H16.7674ZM25.7674 2V0.6V2ZM195.035 2V3.4V2ZM17.6805 49.9388L7.95644 41.5719L6.13021 43.6944L15.8542 52.0612L17.6805 49.9388ZM8.0163 39.0972L17.6281 31.6041L15.9066 29.3959L6.2948 36.8889L8.0163 39.0972ZM7.95644 41.5719C7.19073 40.9131 7.21963 39.7183 8.0163 39.0972L6.2948 36.8889C4.10396 38.5968 4.02449 41.8825 6.13021 43.6944L7.95644 41.5719ZM25.7674 3.4L195.035 3.4V0.600003L25.7674 0.6V3.4ZM202.635 11V69H205.435V11H202.635ZM195.035 76.6L25.7674 76.6V79.4L195.035 79.4V76.6ZM18.1674 30.5L18.1674 11H15.3674L15.3674 30.5H18.1674ZM18.1674 69V51H15.3674L15.3674 69H18.1674ZM25.7674 76.6C21.57 76.6 18.1674 73.1974 18.1674 69H15.3674C15.3674 74.7438 20.0236 79.4 25.7674 79.4V76.6ZM202.635 69C202.635 73.1974 199.232 76.6 195.035 76.6V79.4C200.778 79.4 205.435 74.7438 205.435 69H202.635ZM195.035 3.4C199.232 3.4 202.635 6.80264 202.635 11H205.435C205.435 5.25624 200.778 0.600003 195.035 0.600003V3.4ZM25.7674 0.6C20.0236 0.6 15.3674 5.25624 15.3674 11H18.1674C18.1674 6.80264 21.57 3.4 25.7674 3.4V0.6Z" fill="#333333" mask="url(#path-2-inside-1_7073_5865)"/>
</g>
<g filter="url(#filter1_d_7073_5865)">
<path d="M32.6 14.952H34.088L39.192 23.224H39.08V14.952H40.328V25H38.936L33.656 16.456H33.848V25H32.6V14.952ZM46.4815 25.192C45.7935 25.192 45.1802 25.04 44.6415 24.736C44.1082 24.432 43.6868 23.9813 43.3775 23.384C43.0682 22.7867 42.9135 22.0507 42.9135 21.176C42.9135 20.296 43.0682 19.56 43.3775 18.968C43.6868 18.3707 44.1082 17.92 44.6415 17.616C45.1802 17.312 45.7935 17.16 46.4815 17.16C47.1642 17.16 47.7722 17.312 48.3055 17.616C48.8442 17.92 49.2655 18.3707 49.5695 18.968C49.8788 19.56 50.0335 20.296 50.0335 21.176C50.0335 22.0507 49.8788 22.7867 49.5695 23.384C49.2655 23.9813 48.8442 24.432 48.3055 24.736C47.7722 25.04 47.1642 25.192 46.4815 25.192ZM46.4495 24.104C46.9455 24.104 47.3668 23.9867 47.7135 23.752C48.0602 23.512 48.3215 23.1733 48.4975 22.736C48.6788 22.2987 48.7695 21.7787 48.7695 21.176C48.7695 20.264 48.5802 19.5467 48.2015 19.024C47.8228 18.496 47.2602 18.232 46.5135 18.232C46.0122 18.232 45.5882 18.352 45.2415 18.592C44.9002 18.8267 44.6388 19.1653 44.4575 19.608C44.2815 20.0453 44.1935 20.568 44.1935 21.176C44.1935 22.0773 44.3828 22.792 44.7615 23.32C45.1455 23.8427 45.7082 24.104 46.4495 24.104ZM55.2524 17.352H56.5484L58.5004 23.736H58.3404L60.2444 17.72H61.2844L63.1724 23.752H63.0284L64.9804 17.352H66.2284L63.7164 25H62.5004L60.6444 19.352H60.8364L58.9964 25H57.7804L55.2524 17.352ZM71.1021 25.192C70.4141 25.192 69.8008 25.04 69.2621 24.736C68.7288 24.432 68.3075 23.9813 67.9981 23.384C67.6888 22.7867 67.5341 22.0507 67.5341 21.176C67.5341 20.296 67.6888 19.56 67.9981 18.968C68.3075 18.3707 68.7288 17.92 69.2621 17.616C69.8008 17.312 70.4141 17.16 71.1021 17.16C71.7848 17.16 72.3928 17.312 72.9261 17.616C73.4648 17.92 73.8861 18.3707 74.1901 18.968C74.4995 19.56 74.6541 20.296 74.6541 21.176C74.6541 22.0507 74.4995 22.7867 74.1901 23.384C73.8861 23.9813 73.4648 24.432 72.9261 24.736C72.3928 25.04 71.7848 25.192 71.1021 25.192ZM71.0701 24.104C71.5661 24.104 71.9875 23.9867 72.3341 23.752C72.6808 23.512 72.9421 23.1733 73.1181 22.736C73.2995 22.2987 73.3901 21.7787 73.3901 21.176C73.3901 20.264 73.2008 19.5467 72.8221 19.024C72.4435 18.496 71.8808 18.232 71.1341 18.232C70.6328 18.232 70.2088 18.352 69.8621 18.592C69.5208 18.8267 69.2595 19.1653 69.0781 19.608C68.9021 20.0453 68.8141 20.568 68.8141 21.176C68.8141 22.0773 69.0035 22.792 69.3821 23.32C69.7661 23.8427 70.3288 24.104 71.0701 24.104ZM77.2441 25V17.336H78.4921V25H77.2441ZM78.1081 21.544C78.1081 20.5733 78.2015 19.768 78.3881 19.128C78.5748 18.4827 78.8468 18.0027 79.2041 17.688C79.5668 17.368 80.0068 17.208 80.5241 17.208C80.6948 17.208 80.8495 17.2213 80.9881 17.248C81.1321 17.2693 81.2761 17.304 81.4201 17.352L81.3401 18.584C81.1908 18.536 81.0281 18.496 80.8521 18.464C80.6761 18.4267 80.5188 18.408 80.3801 18.408C79.9268 18.408 79.5615 18.5387 79.2841 18.8C79.0068 19.056 78.8041 19.4187 78.6761 19.888C78.5535 20.3573 78.4921 20.9093 78.4921 21.544H78.1081ZM83.1854 25V17.336H84.4334V25H83.1854ZM84.0494 21.544C84.0494 20.5733 84.1427 19.768 84.3294 19.128C84.516 18.4827 84.788 18.0027 85.1454 17.688C85.508 17.368 85.948 17.208 86.4654 17.208C86.636 17.208 86.7907 17.2213 86.9294 17.248C87.0734 17.2693 87.2174 17.304 87.3614 17.352L87.2814 18.584C87.132 18.536 86.9694 18.496 86.7934 18.464C86.6174 18.4267 86.46 18.408 86.3214 18.408C85.868 18.408 85.5027 18.5387 85.2254 18.8C84.948 19.056 84.7454 19.4187 84.6174 19.888C84.4947 20.3573 84.4334 20.9093 84.4334 21.544H84.0494ZM89.8306 15.544C89.5746 15.544 89.372 15.472 89.2226 15.328C89.0733 15.1787 88.9986 14.984 88.9986 14.744C88.9986 14.5093 89.0733 14.3227 89.2226 14.184C89.372 14.0453 89.5746 13.976 89.8306 13.976C90.0866 13.976 90.2893 14.0453 90.4386 14.184C90.588 14.3227 90.6626 14.5093 90.6626 14.744C90.6626 14.984 90.588 15.1787 90.4386 15.328C90.2893 15.472 90.0866 15.544 89.8306 15.544ZM89.2066 25V17.336H90.4546V25H89.2066ZM96.7082 25.192C96.0469 25.192 95.4549 25.024 94.9322 24.688C94.4149 24.3467 94.0042 23.8747 93.7002 23.272C93.4016 22.6693 93.2522 21.976 93.2522 21.192C93.2522 20.3547 93.4016 19.6347 93.7002 19.032C93.9989 18.4293 94.4069 17.968 94.9242 17.648C95.4469 17.3227 96.0416 17.16 96.7082 17.16C97.2896 17.16 97.7856 17.2773 98.1962 17.512C98.6069 17.7467 98.9376 18.064 99.1882 18.464C99.4389 18.864 99.6122 19.3173 99.7082 19.824C99.8096 20.3253 99.8389 20.8453 99.7962 21.384H94.2602V20.616H98.9722L98.6042 20.856C98.6202 20.5413 98.6016 20.2267 98.5482 19.912C98.5002 19.5973 98.4069 19.3093 98.2682 19.048C98.1296 18.7813 97.9349 18.568 97.6842 18.408C97.4336 18.248 97.1136 18.168 96.7242 18.168C96.2336 18.168 95.8229 18.2933 95.4922 18.544C95.1616 18.7947 94.9136 19.1253 94.7482 19.536C94.5829 19.9413 94.5002 20.3813 94.5002 20.856V21.368C94.5002 21.9013 94.5802 22.3787 94.7402 22.8C94.9056 23.2213 95.1509 23.5547 95.4762 23.8C95.8016 24.0453 96.2122 24.168 96.7082 24.168C97.2042 24.168 97.6122 24.048 97.9322 23.808C98.2522 23.568 98.4469 23.2133 98.5162 22.744H99.8122C99.7322 23.2507 99.5509 23.688 99.2682 24.056C98.9856 24.4187 98.6256 24.6987 98.1882 24.896C97.7509 25.0933 97.2576 25.192 96.7082 25.192ZM105.183 25.192C104.442 25.192 103.823 25.088 103.327 24.88C102.831 24.6667 102.455 24.376 102.199 24.008C101.943 23.6347 101.807 23.208 101.791 22.728H102.991C103.018 23.2133 103.212 23.5787 103.575 23.824C103.943 24.064 104.442 24.184 105.071 24.184C105.402 24.184 105.706 24.1307 105.983 24.024C106.26 23.9173 106.482 23.7707 106.647 23.584C106.812 23.3973 106.895 23.1867 106.895 22.952C106.895 22.6533 106.786 22.4187 106.567 22.248C106.348 22.0773 105.999 21.928 105.519 21.8L104.031 21.32C103.386 21.1173 102.89 20.84 102.543 20.488C102.202 20.1307 102.031 19.704 102.031 19.208C102.031 18.5893 102.303 18.0933 102.847 17.72C103.391 17.3467 104.106 17.16 104.991 17.16C105.93 17.16 106.658 17.352 107.175 17.736C107.692 18.12 107.962 18.6 107.983 19.176H106.751C106.703 18.84 106.532 18.5867 106.239 18.416C105.946 18.24 105.53 18.152 104.991 18.152C104.474 18.152 104.068 18.2693 103.775 18.504C103.487 18.7333 103.343 18.9893 103.343 19.272C103.343 19.8 103.796 20.1893 104.703 20.44L106.223 20.952C106.879 21.1493 107.38 21.408 107.727 21.728C108.079 22.048 108.255 22.456 108.255 22.952C108.255 23.336 108.13 23.6987 107.879 24.04C107.628 24.3813 107.274 24.6587 106.815 24.872C106.356 25.0853 105.812 25.192 105.183 25.192ZM109.861 24.256C109.861 24.0053 109.949 23.7893 110.125 23.608C110.301 23.4267 110.523 23.336 110.789 23.336C111.056 23.336 111.283 23.4267 111.469 23.608C111.656 23.7893 111.749 24.0053 111.749 24.256C111.749 24.5067 111.656 24.7173 111.469 24.888C111.283 25.0587 111.056 25.144 110.789 25.144C110.523 25.144 110.301 25.0587 110.125 24.888C109.949 24.712 109.861 24.5013 109.861 24.256ZM116.501 14.952H118.005L120.885 19.832H120.565L123.493 14.952H124.981L121.349 20.872V25H120.085V20.872L116.501 14.952ZM128.636 25.192C127.948 25.192 127.335 25.04 126.796 24.736C126.263 24.432 125.841 23.9813 125.532 23.384C125.223 22.7867 125.068 22.0507 125.068 21.176C125.068 20.296 125.223 19.56 125.532 18.968C125.841 18.3707 126.263 17.92 126.796 17.616C127.335 17.312 127.948 17.16 128.636 17.16C129.319 17.16 129.927 17.312 130.46 17.616C130.999 17.92 131.42 18.3707 131.724 18.968C132.033 19.56 132.188 20.296 132.188 21.176C132.188 22.0507 132.033 22.7867 131.724 23.384C131.42 23.9813 130.999 24.432 130.46 24.736C129.927 25.04 129.319 25.192 128.636 25.192ZM128.604 24.104C129.1 24.104 129.521 23.9867 129.868 23.752C130.215 23.512 130.476 23.1733 130.652 22.736C130.833 22.2987 130.924 21.7787 130.924 21.176C130.924 20.264 130.735 19.5467 130.356 19.024C129.977 18.496 129.415 18.232 128.668 18.232C128.167 18.232 127.743 18.352 127.396 18.592C127.055 18.8267 126.793 19.1653 126.612 19.608C126.436 20.0453 126.348 20.568 126.348 21.176C126.348 22.0773 126.537 22.792 126.916 23.32C127.3 23.8427 127.863 24.104 128.604 24.104ZM139.978 17.336H141.226V25H139.978V17.336ZM134.554 17.336H135.802V22.104C135.802 22.744 135.957 23.2293 136.266 23.56C136.581 23.8907 137.029 24.056 137.61 24.056C138.09 24.056 138.506 23.928 138.858 23.672C139.215 23.416 139.49 23.064 139.682 22.616C139.879 22.1627 139.978 21.6453 139.978 21.064H140.442C140.442 21.9227 140.317 22.656 140.066 23.264C139.821 23.872 139.471 24.3387 139.018 24.664C138.57 24.984 138.042 25.144 137.434 25.144C136.858 25.144 136.354 25.0373 135.922 24.824C135.49 24.6107 135.154 24.288 134.914 23.856C134.674 23.4187 134.554 22.8667 134.554 22.2V17.336ZM153.318 25L153.158 23.32V20.04C153.158 19.352 153.012 18.8587 152.718 18.56C152.425 18.256 151.985 18.104 151.398 18.104C151.068 18.104 150.766 18.152 150.494 18.248C150.228 18.344 150.014 18.4933 149.854 18.696C149.7 18.8933 149.622 19.1493 149.622 19.464H148.23C148.23 18.9093 148.366 18.464 148.638 18.128C148.91 17.7867 149.284 17.5413 149.758 17.392C150.238 17.2373 150.785 17.16 151.398 17.16C151.985 17.16 152.505 17.2587 152.958 17.456C153.412 17.6533 153.766 17.968 154.022 18.4C154.278 18.8267 154.406 19.384 154.406 20.072V25H153.318ZM150.71 25.192C150.081 25.192 149.561 25.08 149.15 24.856C148.74 24.632 148.433 24.3413 148.23 23.984C148.028 23.6267 147.926 23.2507 147.926 22.856C147.926 22.3387 148.054 21.9173 148.31 21.592C148.572 21.2667 148.926 21.0293 149.374 20.88C149.822 20.7253 150.326 20.648 150.886 20.648C151.286 20.648 151.686 20.688 152.086 20.768C152.492 20.848 152.886 20.9573 153.27 21.096V21.88C152.95 21.752 152.588 21.6507 152.182 21.576C151.782 21.5013 151.414 21.464 151.078 21.464C150.566 21.464 150.134 21.5707 149.782 21.784C149.43 21.992 149.254 22.3493 149.254 22.856C149.254 23.2293 149.388 23.5493 149.654 23.816C149.926 24.0827 150.358 24.216 150.95 24.216C151.366 24.216 151.74 24.12 152.07 23.928C152.406 23.7307 152.67 23.4853 152.862 23.192C153.06 22.8987 153.158 22.6053 153.158 22.312H153.462C153.462 22.824 153.35 23.2987 153.126 23.736C152.908 24.1733 152.593 24.5253 152.182 24.792C151.772 25.0587 151.281 25.192 150.71 25.192ZM157.555 25V17.336H158.803V25H157.555ZM158.419 21.544C158.419 20.5733 158.512 19.768 158.699 19.128C158.885 18.4827 159.157 18.0027 159.515 17.688C159.877 17.368 160.317 17.208 160.835 17.208C161.005 17.208 161.16 17.2213 161.299 17.248C161.443 17.2693 161.587 17.304 161.731 17.352L161.651 18.584C161.501 18.536 161.339 18.496 161.163 18.464C160.987 18.4267 160.829 18.408 160.691 18.408C160.237 18.408 159.872 18.5387 159.595 18.8C159.317 19.056 159.115 19.4187 158.987 19.888C158.864 20.3573 158.803 20.9093 158.803 21.544H158.419ZM166.152 25.192C165.491 25.192 164.899 25.024 164.376 24.688C163.859 24.3467 163.448 23.8747 163.144 23.272C162.845 22.6693 162.696 21.976 162.696 21.192C162.696 20.3547 162.845 19.6347 163.144 19.032C163.443 18.4293 163.851 17.968 164.368 17.648C164.891 17.3227 165.485 17.16 166.152 17.16C166.733 17.16 167.229 17.2773 167.64 17.512C168.051 17.7467 168.381 18.064 168.632 18.464C168.883 18.864 169.056 19.3173 169.152 19.824C169.253 20.3253 169.283 20.8453 169.24 21.384H163.704V20.616H168.416L168.048 20.856C168.064 20.5413 168.045 20.2267 167.992 19.912C167.944 19.5973 167.851 19.3093 167.712 19.048C167.573 18.7813 167.379 18.568 167.128 18.408C166.877 18.248 166.557 18.168 166.168 18.168C165.677 18.168 165.267 18.2933 164.936 18.544C164.605 18.7947 164.357 19.1253 164.192 19.536C164.027 19.9413 163.944 20.3813 163.944 20.856V21.368C163.944 21.9013 164.024 22.3787 164.184 22.8C164.349 23.2213 164.595 23.5547 164.92 23.8C165.245 24.0453 165.656 24.168 166.152 24.168C166.648 24.168 167.056 24.048 167.376 23.808C167.696 23.568 167.891 23.2133 167.96 22.744H169.256C169.176 23.2507 168.995 23.688 168.712 24.056C168.429 24.4187 168.069 24.6987 167.632 24.896C167.195 25.0933 166.701 25.192 166.152 25.192ZM32.616 45V37.336H33.864V45H32.616ZM33.48 41.544C33.48 40.5733 33.5733 39.768 33.76 39.128C33.9467 38.4827 34.2187 38.0027 34.576 37.688C34.9387 37.368 35.3787 37.208 35.896 37.208C36.0667 37.208 36.2213 37.2213 36.36 37.248C36.504 37.2693 36.648 37.304 36.792 37.352L36.712 38.584C36.5627 38.536 36.4 38.496 36.224 38.464C36.048 38.4267 35.8907 38.408 35.752 38.408C35.2987 38.408 34.9333 38.5387 34.656 38.8C34.3787 39.056 34.176 39.4187 34.048 39.888C33.9253 40.3573 33.864 40.9093 33.864 41.544H33.48ZM41.2133 45.192C40.5519 45.192 39.9599 45.024 39.4372 44.688C38.9199 44.3467 38.5092 43.8747 38.2052 43.272C37.9066 42.6693 37.7572 41.976 37.7572 41.192C37.7572 40.3547 37.9066 39.6347 38.2052 39.032C38.5039 38.4293 38.9119 37.968 39.4293 37.648C39.9519 37.3227 40.5466 37.16 41.2133 37.16C41.7946 37.16 42.2906 37.2773 42.7013 37.512C43.1119 37.7467 43.4426 38.064 43.6933 38.464C43.9439 38.864 44.1173 39.3173 44.2133 39.824C44.3146 40.3253 44.3439 40.8453 44.3012 41.384H38.7652V40.616H43.4773L43.1093 40.856C43.1253 40.5413 43.1066 40.2267 43.0533 39.912C43.0053 39.5973 42.9119 39.3093 42.7733 39.048C42.6346 38.7813 42.4399 38.568 42.1892 38.408C41.9386 38.248 41.6186 38.168 41.2292 38.168C40.7386 38.168 40.3279 38.2933 39.9973 38.544C39.6666 38.7947 39.4186 39.1253 39.2532 39.536C39.0879 39.9413 39.0052 40.3813 39.0052 40.856V41.368C39.0052 41.9013 39.0852 42.3787 39.2452 42.8C39.4106 43.2213 39.6559 43.5547 39.9813 43.8C40.3066 44.0453 40.7173 44.168 41.2133 44.168C41.7093 44.168 42.1173 44.048 42.4373 43.808C42.7573 43.568 42.9519 43.2133 43.0213 42.744H44.3173C44.2373 43.2507 44.0559 43.688 43.7733 44.056C43.4906 44.4187 43.1306 44.6987 42.6933 44.896C42.2559 45.0933 41.7626 45.192 41.2133 45.192ZM57.688 45V40.504C57.688 39.7733 57.512 39.2187 57.16 38.84C56.8133 38.456 56.344 38.264 55.752 38.264C55.0587 38.264 54.528 38.5333 54.16 39.072C53.792 39.6053 53.608 40.344 53.608 41.288H53.032C53.032 40.6 53.0987 39.9973 53.232 39.48C53.3707 38.9627 53.5707 38.5333 53.832 38.192C54.0933 37.8453 54.4107 37.5867 54.784 37.416C55.1573 37.2453 55.5813 37.16 56.056 37.16C56.6587 37.16 57.1733 37.296 57.6 37.568C58.032 37.8347 58.3627 38.2187 58.592 38.72C58.8213 39.2213 58.936 39.816 58.936 40.504V45H57.688ZM46.936 45V37.352H48.008L48.152 38.888C48.392 38.3333 48.728 37.9067 49.16 37.608C49.5973 37.3093 50.12 37.16 50.728 37.16C51.3307 37.16 51.8453 37.296 52.272 37.568C52.704 37.8347 53.0347 38.2187 53.264 38.72C53.4933 39.2213 53.608 39.816 53.608 40.504V45H52.376V40.504C52.376 39.7733 52.2 39.2187 51.848 38.84C51.5013 38.456 51.0267 38.264 50.424 38.264C49.9653 38.264 49.568 38.3893 49.232 38.64C48.896 38.8907 48.6373 39.2507 48.456 39.72C48.2747 40.184 48.184 40.7387 48.184 41.384V45H46.936ZM66.8007 45L66.6407 43.32V40.04C66.6407 39.352 66.4941 38.8587 66.2007 38.56C65.9074 38.256 65.4674 38.104 64.8807 38.104C64.5501 38.104 64.2487 38.152 63.9767 38.248C63.7101 38.344 63.4967 38.4933 63.3367 38.696C63.1821 38.8933 63.1047 39.1493 63.1047 39.464H61.7127C61.7127 38.9093 61.8487 38.464 62.1207 38.128C62.3927 37.7867 62.7661 37.5413 63.2407 37.392C63.7207 37.2373 64.2674 37.16 64.8807 37.16C65.4674 37.16 65.9874 37.2587 66.4407 37.456C66.8941 37.6533 67.2487 37.968 67.5047 38.4C67.7607 38.8267 67.8888 39.384 67.8888 40.072V45H66.8007ZM64.1927 45.192C63.5634 45.192 63.0434 45.08 62.6327 44.856C62.2221 44.632 61.9154 44.3413 61.7127 43.984C61.5101 43.6267 61.4087 43.2507 61.4087 42.856C61.4087 42.3387 61.5367 41.9173 61.7927 41.592C62.0541 41.2667 62.4087 41.0293 62.8567 40.88C63.3047 40.7253 63.8087 40.648 64.3687 40.648C64.7687 40.648 65.1687 40.688 65.5687 40.768C65.9741 40.848 66.3687 40.9573 66.7527 41.096V41.88C66.4327 41.752 66.0701 41.6507 65.6647 41.576C65.2647 41.5013 64.8967 41.464 64.5607 41.464C64.0487 41.464 63.6167 41.5707 63.2647 41.784C62.9127 41.992 62.7367 42.3493 62.7367 42.856C62.7367 43.2293 62.8701 43.5493 63.1367 43.816C63.4087 44.0827 63.8407 44.216 64.4327 44.216C64.8487 44.216 65.2221 44.12 65.5527 43.928C65.8887 43.7307 66.1527 43.4853 66.3447 43.192C66.5421 42.8987 66.6407 42.6053 66.6407 42.312H66.9447C66.9447 42.824 66.8327 43.2987 66.6087 43.736C66.3901 44.1733 66.0754 44.5253 65.6647 44.792C65.2541 45.0587 64.7634 45.192 64.1927 45.192ZM71.7412 35.544C71.4852 35.544 71.2826 35.472 71.1332 35.328C70.9839 35.1787 70.9092 34.984 70.9092 34.744C70.9092 34.5093 70.9839 34.3227 71.1332 34.184C71.2826 34.0453 71.4852 33.976 71.7412 33.976C71.9972 33.976 72.1999 34.0453 72.3492 34.184C72.4986 34.3227 72.5732 34.5093 72.5732 34.744C72.5732 34.984 72.4986 35.1787 72.3492 35.328C72.1999 35.472 71.9972 35.544 71.7412 35.544ZM71.1172 45V37.336H72.3652V45H71.1172ZM81.4029 45V40.504C81.4029 39.7733 81.2269 39.2187 80.8749 38.84C80.5282 38.456 80.0535 38.264 79.4509 38.264C78.9922 38.264 78.5949 38.3893 78.2589 38.64C77.9229 38.8907 77.6642 39.2507 77.4829 39.72C77.3015 40.184 77.2109 40.7387 77.2109 41.384H76.7309C76.7309 40.4933 76.8482 39.7333 77.0829 39.104C77.3175 38.4747 77.6589 37.9947 78.1069 37.664C78.5602 37.328 79.1095 37.16 79.7549 37.16C80.3575 37.16 80.8722 37.296 81.2989 37.568C81.7309 37.8347 82.0615 38.2187 82.2909 38.72C82.5202 39.2213 82.6349 39.816 82.6349 40.504V45H81.4029ZM75.9629 45V37.352H77.0349L77.2109 39.112V45H75.9629ZM86.4831 35.544C86.2271 35.544 86.0245 35.472 85.8751 35.328C85.7258 35.1787 85.6511 34.984 85.6511 34.744C85.6511 34.5093 85.7258 34.3227 85.8751 34.184C86.0245 34.0453 86.2271 33.976 86.4831 33.976C86.7391 33.976 86.9418 34.0453 87.0911 34.184C87.2405 34.3227 87.3151 34.5093 87.3151 34.744C87.3151 34.984 87.2405 35.1787 87.0911 35.328C86.9418 35.472 86.7391 35.544 86.4831 35.544ZM85.8591 45V37.336H87.1071V45H85.8591ZM96.1447 45V40.504C96.1447 39.7733 95.9687 39.2187 95.6167 38.84C95.2701 38.456 94.7954 38.264 94.1927 38.264C93.7341 38.264 93.3367 38.3893 93.0007 38.64C92.6647 38.8907 92.4061 39.2507 92.2247 39.72C92.0434 40.184 91.9527 40.7387 91.9527 41.384H91.4727C91.4727 40.4933 91.5901 39.7333 91.8247 39.104C92.0594 38.4747 92.4007 37.9947 92.8487 37.664C93.3021 37.328 93.8514 37.16 94.4967 37.16C95.0994 37.16 95.6141 37.296 96.0407 37.568C96.4727 37.8347 96.8034 38.2187 97.0327 38.72C97.2621 39.2213 97.3767 39.816 97.3767 40.504V45H96.1447ZM90.7047 45V37.352H91.7767L91.9527 39.112V45H90.7047ZM103.225 48.936C102.441 48.936 101.761 48.824 101.185 48.6C100.609 48.3813 100.161 48.0853 99.841 47.712C99.5263 47.344 99.369 46.936 99.369 46.488C99.369 45.896 99.585 45.4427 100.017 45.128C100.454 44.8187 101.017 44.664 101.705 44.664L102.393 45.096C101.817 45.096 101.372 45.216 101.057 45.456C100.742 45.696 100.585 46.024 100.585 46.44C100.585 46.856 100.809 47.208 101.257 47.496C101.705 47.784 102.361 47.928 103.225 47.928C103.865 47.928 104.425 47.8347 104.905 47.648C105.39 47.4667 105.766 47.2267 106.033 46.928C106.305 46.6347 106.441 46.3173 106.441 45.976C106.441 45.736 106.353 45.528 106.177 45.352C106.001 45.1813 105.732 45.096 105.369 45.096H102.393C101.876 45.096 101.428 45.0187 101.049 44.864C100.676 44.704 100.388 44.496 100.185 44.24C99.9823 43.984 99.881 43.704 99.881 43.4C99.881 43.08 99.9717 42.808 100.153 42.584C100.334 42.36 100.569 42.1893 100.857 42.072C101.15 41.9547 101.465 41.896 101.801 41.896L102.041 42.36C101.881 42.36 101.718 42.3973 101.553 42.472C101.393 42.5413 101.257 42.648 101.145 42.792C101.038 42.9307 100.985 43.1067 100.985 43.32C100.985 43.5653 101.086 43.7707 101.289 43.936C101.492 44.1013 101.86 44.184 102.393 44.184H105.369C106.089 44.184 106.654 44.336 107.065 44.64C107.481 44.944 107.689 45.368 107.689 45.912C107.689 46.4133 107.51 46.8933 107.153 47.352C106.796 47.816 106.284 48.1947 105.617 48.488C104.95 48.7867 104.153 48.936 103.225 48.936ZM103.449 42.76C102.862 42.76 102.332 42.6427 101.857 42.408C101.388 42.1733 101.014 41.8453 100.737 41.424C100.465 41.0027 100.329 40.5147 100.329 39.96C100.329 39.4 100.465 38.9093 100.737 38.488C101.014 38.0667 101.388 37.7413 101.857 37.512C102.332 37.2773 102.862 37.16 103.449 37.16C104.02 37.16 104.537 37.2773 105.001 37.512C105.47 37.7413 105.844 38.0667 106.121 38.488C106.398 38.9093 106.537 39.4 106.537 39.96C106.537 40.5147 106.398 41.0027 106.121 41.424C105.844 41.8453 105.47 42.1733 105.001 42.408C104.537 42.6427 104.02 42.76 103.449 42.76ZM103.449 41.864C104.036 41.864 104.492 41.6827 104.817 41.32C105.142 40.9573 105.305 40.504 105.305 39.96C105.305 39.4 105.142 38.9467 104.817 38.6C104.492 38.248 104.036 38.072 103.449 38.072C102.868 38.072 102.409 38.248 102.073 38.6C101.742 38.9467 101.577 39.4 101.577 39.96C101.577 40.504 101.742 40.9573 102.073 41.32C102.409 41.6827 102.868 41.864 103.449 41.864ZM105.961 38.376L105.369 38.136C105.369 37.688 105.457 37.296 105.633 36.96C105.809 36.6187 106.06 36.3547 106.385 36.168C106.71 35.976 107.097 35.88 107.545 35.88L107.449 37.112C106.969 37.112 106.601 37.216 106.345 37.424C106.089 37.6267 105.961 37.944 105.961 38.376ZM116.437 45.192C115.749 45.192 115.136 45.04 114.597 44.736C114.064 44.432 113.642 43.9813 113.333 43.384C113.024 42.7867 112.869 42.0507 112.869 41.176C112.869 40.296 113.024 39.56 113.333 38.968C113.642 38.3707 114.064 37.92 114.597 37.616C115.136 37.312 115.749 37.16 116.437 37.16C117.12 37.16 117.728 37.312 118.261 37.616C118.8 37.92 119.221 38.3707 119.525 38.968C119.834 39.56 119.989 40.296 119.989 41.176C119.989 42.0507 119.834 42.7867 119.525 43.384C119.221 43.9813 118.8 44.432 118.261 44.736C117.728 45.04 117.12 45.192 116.437 45.192ZM116.405 44.104C116.901 44.104 117.322 43.9867 117.669 43.752C118.016 43.512 118.277 43.1733 118.453 42.736C118.634 42.2987 118.725 41.7787 118.725 41.176C118.725 40.264 118.536 39.5467 118.157 39.024C117.778 38.496 117.216 38.232 116.469 38.232C115.968 38.232 115.544 38.352 115.197 38.592C114.856 38.8267 114.594 39.1653 114.413 39.608C114.237 40.0453 114.149 40.568 114.149 41.176C114.149 42.0773 114.338 42.792 114.717 43.32C115.101 43.8427 115.664 44.104 116.405 44.104ZM128.019 45V40.504C128.019 39.7733 127.843 39.2187 127.491 38.84C127.144 38.456 126.67 38.264 126.067 38.264C125.608 38.264 125.211 38.3893 124.875 38.64C124.539 38.8907 124.28 39.2507 124.099 39.72C123.918 40.184 123.827 40.7387 123.827 41.384H123.347C123.347 40.4933 123.464 39.7333 123.699 39.104C123.934 38.4747 124.275 37.9947 124.723 37.664C125.176 37.328 125.726 37.16 126.371 37.16C126.974 37.16 127.488 37.296 127.915 37.568C128.347 37.8347 128.678 38.2187 128.907 38.72C129.136 39.2213 129.251 39.816 129.251 40.504V45H128.019ZM122.579 45V37.352H123.651L123.827 39.112V45H122.579ZM138.704 45.192C138.288 45.192 137.915 45.112 137.584 44.952C137.254 44.792 136.992 44.552 136.8 44.232C136.608 43.912 136.512 43.512 136.512 43.032V35.224H137.744V43C137.744 43.7893 138.112 44.184 138.848 44.184C139.067 44.184 139.278 44.16 139.48 44.112C139.688 44.064 139.92 43.992 140.176 43.896L140.352 44.792C140.08 44.9093 139.808 45.0053 139.536 45.08C139.27 45.1547 138.992 45.192 138.704 45.192ZM135.28 38.216V37.352H140.16V38.216H135.28ZM147.968 45V40.504C147.968 39.7733 147.792 39.2187 147.44 38.84C147.093 38.456 146.619 38.264 146.016 38.264C145.557 38.264 145.16 38.3893 144.824 38.64C144.488 38.8907 144.229 39.2507 144.048 39.72C143.867 40.184 143.776 40.7387 143.776 41.384H143.296C143.296 40.4933 143.413 39.7333 143.648 39.104C143.883 38.4747 144.224 37.9947 144.672 37.664C145.125 37.328 145.675 37.16 146.32 37.16C146.923 37.16 147.437 37.296 147.864 37.568C148.296 37.8347 148.627 38.2187 148.856 38.72C149.085 39.2213 149.2 39.816 149.2 40.504V45H147.968ZM142.528 45V34.088H143.776V45H142.528ZM155 45.192C154.339 45.192 153.747 45.024 153.224 44.688C152.707 44.3467 152.296 43.8747 151.992 43.272C151.693 42.6693 151.544 41.976 151.544 41.192C151.544 40.3547 151.693 39.6347 151.992 39.032C152.291 38.4293 152.699 37.968 153.216 37.648C153.739 37.3227 154.333 37.16 155 37.16C155.581 37.16 156.077 37.2773 156.488 37.512C156.899 37.7467 157.229 38.064 157.48 38.464C157.731 38.864 157.904 39.3173 158 39.824C158.101 40.3253 158.131 40.8453 158.088 41.384H152.552V40.616H157.264L156.896 40.856C156.912 40.5413 156.893 40.2267 156.84 39.912C156.792 39.5973 156.699 39.3093 156.56 39.048C156.421 38.7813 156.227 38.568 155.976 38.408C155.725 38.248 155.405 38.168 155.016 38.168C154.525 38.168 154.115 38.2933 153.784 38.544C153.453 38.7947 153.205 39.1253 153.04 39.536C152.875 39.9413 152.792 40.3813 152.792 40.856V41.368C152.792 41.9013 152.872 42.3787 153.032 42.8C153.197 43.2213 153.443 43.5547 153.768 43.8C154.093 44.0453 154.504 44.168 155 44.168C155.496 44.168 155.904 44.048 156.224 43.808C156.544 43.568 156.739 43.2133 156.808 42.744H158.104C158.024 43.2507 157.843 43.688 157.56 44.056C157.277 44.4187 156.917 44.6987 156.48 44.896C156.043 45.0933 155.549 45.192 155 45.192ZM168.637 34.952H171.581C172.594 34.952 173.474 35.16 174.221 35.576C174.967 35.9867 175.546 36.568 175.957 37.32C176.367 38.072 176.573 38.9573 176.573 39.976C176.573 40.984 176.367 41.864 175.957 42.616C175.546 43.368 174.967 43.9547 174.221 44.376C173.474 44.792 172.594 45 171.581 45H168.637V34.952ZM169.885 36.056V43.912H171.581C172.338 43.912 172.989 43.7413 173.533 43.4C174.082 43.0587 174.503 42.592 174.797 42C175.095 41.4027 175.245 40.728 175.245 39.976C175.245 39.2187 175.095 38.5467 174.797 37.96C174.503 37.368 174.082 36.904 173.533 36.568C172.989 36.2267 172.338 36.056 171.581 36.056H169.885ZM179.359 45V34.952H180.607V45H179.359ZM182.531 34.952H184.035L186.915 39.832H186.595L189.523 34.952H191.011L187.379 40.872V45H186.115V40.872L182.531 34.952ZM32.616 54.952H33.864V59.384H38.84V54.952H40.072V65H38.84V60.456H33.864V65H32.616V54.952ZM46.2471 65.192C45.5591 65.192 44.9458 65.04 44.4071 64.736C43.8738 64.432 43.4525 63.9813 43.1431 63.384C42.8338 62.7867 42.6791 62.0507 42.6791 61.176C42.6791 60.296 42.8338 59.56 43.1431 58.968C43.4525 58.3707 43.8738 57.92 44.4071 57.616C44.9458 57.312 45.5591 57.16 46.2471 57.16C46.9298 57.16 47.5378 57.312 48.0711 57.616C48.6098 57.92 49.0311 58.3707 49.3351 58.968C49.6445 59.56 49.7991 60.296 49.7991 61.176C49.7991 62.0507 49.6445 62.7867 49.3351 63.384C49.0311 63.9813 48.6098 64.432 48.0711 64.736C47.5378 65.04 46.9298 65.192 46.2471 65.192ZM46.2151 64.104C46.7111 64.104 47.1325 63.9867 47.4791 63.752C47.8258 63.512 48.0871 63.1733 48.2631 62.736C48.4445 62.2987 48.5351 61.7787 48.5351 61.176C48.5351 60.264 48.3458 59.5467 47.9671 59.024C47.5885 58.496 47.0258 58.232 46.2791 58.232C45.7778 58.232 45.3538 58.352 45.0071 58.592C44.6658 58.8267 44.4045 59.1653 44.2231 59.608C44.0471 60.0453 43.9591 60.568 43.9591 61.176C43.9591 62.0773 44.1485 62.792 44.5271 63.32C44.9111 63.8427 45.4738 64.104 46.2151 64.104ZM63.1411 65V60.504C63.1411 59.7733 62.9651 59.2187 62.6131 58.84C62.2665 58.456 61.7971 58.264 61.2051 58.264C60.5118 58.264 59.9811 58.5333 59.6131 59.072C59.2451 59.6053 59.0611 60.344 59.0611 61.288H58.4851C58.4851 60.6 58.5518 59.9973 58.6851 59.48C58.8238 58.9627 59.0238 58.5333 59.2851 58.192C59.5465 57.8453 59.8638 57.5867 60.2371 57.416C60.6105 57.2453 61.0345 57.16 61.5091 57.16C62.1118 57.16 62.6265 57.296 63.0531 57.568C63.4851 57.8347 63.8158 58.2187 64.0451 58.72C64.2745 59.2213 64.3891 59.816 64.3891 60.504V65H63.1411ZM52.3891 65V57.352H53.4611L53.6051 58.888C53.8451 58.3333 54.1811 57.9067 54.6131 57.608C55.0505 57.3093 55.5731 57.16 56.1811 57.16C56.7838 57.16 57.2985 57.296 57.7251 57.568C58.1571 57.8347 58.4878 58.2187 58.7171 58.72C58.9465 59.2213 59.0611 59.816 59.0611 60.504V65H57.8291V60.504C57.8291 59.7733 57.6531 59.2187 57.3011 58.84C56.9545 58.456 56.4798 58.264 55.8771 58.264C55.4185 58.264 55.0211 58.3893 54.6851 58.64C54.3491 58.8907 54.0905 59.2507 53.9091 59.72C53.7278 60.184 53.6371 60.7387 53.6371 61.384V65H52.3891ZM70.1739 65.192C69.5125 65.192 68.9205 65.024 68.3979 64.688C67.8805 64.3467 67.4699 63.8747 67.1659 63.272C66.8672 62.6693 66.7179 61.976 66.7179 61.192C66.7179 60.3547 66.8672 59.6347 67.1659 59.032C67.4645 58.4293 67.8725 57.968 68.3899 57.648C68.9125 57.3227 69.5072 57.16 70.1739 57.16C70.7552 57.16 71.2512 57.2773 71.6619 57.512C72.0725 57.7467 72.4032 58.064 72.6539 58.464C72.9045 58.864 73.0779 59.3173 73.1739 59.824C73.2752 60.3253 73.3045 60.8453 73.2619 61.384H67.7259V60.616H72.4379L72.0699 60.856C72.0859 60.5413 72.0672 60.2267 72.0139 59.912C71.9659 59.5973 71.8725 59.3093 71.7339 59.048C71.5952 58.7813 71.4005 58.568 71.1499 58.408C70.8992 58.248 70.5792 58.168 70.1899 58.168C69.6992 58.168 69.2885 58.2933 68.9579 58.544C68.6272 58.7947 68.3792 59.1253 68.2139 59.536C68.0485 59.9413 67.9659 60.3813 67.9659 60.856V61.368C67.9659 61.9013 68.0459 62.3787 68.2059 62.8C68.3712 63.2213 68.6165 63.5547 68.9419 63.8C69.2672 64.0453 69.6779 64.168 70.1739 64.168C70.6699 64.168 71.0779 64.048 71.3979 63.808C71.7179 63.568 71.9125 63.2133 71.9819 62.744H73.2779C73.1979 63.2507 73.0165 63.688 72.7339 64.056C72.4512 64.4187 72.0912 64.6987 71.6539 64.896C71.2165 65.0933 70.7232 65.192 70.1739 65.192ZM79.8215 65V54.952H83.0535C84.1575 54.952 85.0002 55.232 85.5815 55.792C86.1682 56.3467 86.4615 57.1013 86.4615 58.056C86.4615 59 86.1682 59.7493 85.5815 60.304C85.0002 60.8533 84.1575 61.128 83.0535 61.128H81.0855V65H79.8215ZM81.0855 60.04H83.0535C83.7522 60.04 84.2802 59.8613 84.6375 59.504C85.0002 59.1467 85.1815 58.664 85.1815 58.056C85.1815 57.4373 85.0002 56.944 84.6375 56.576C84.2802 56.208 83.7522 56.024 83.0535 56.024H81.0855V60.04ZM93.6089 65L93.4489 63.32V60.04C93.4489 59.352 93.3022 58.8587 93.0089 58.56C92.7155 58.256 92.2755 58.104 91.6889 58.104C91.3582 58.104 91.0569 58.152 90.7849 58.248C90.5182 58.344 90.3049 58.4933 90.1449 58.696C89.9902 58.8933 89.9129 59.1493 89.9129 59.464H88.5209C88.5209 58.9093 88.6569 58.464 88.9289 58.128C89.2009 57.7867 89.5742 57.5413 90.0489 57.392C90.5289 57.2373 91.0755 57.16 91.6889 57.16C92.2755 57.16 92.7955 57.2587 93.2489 57.456C93.7022 57.6533 94.0569 57.968 94.3129 58.4C94.5689 58.8267 94.6969 59.384 94.6969 60.072V65H93.6089ZM91.0009 65.192C90.3715 65.192 89.8515 65.08 89.4409 64.856C89.0302 64.632 88.7235 64.3413 88.5209 63.984C88.3182 63.6267 88.2169 63.2507 88.2169 62.856C88.2169 62.3387 88.3449 61.9173 88.6009 61.592C88.8622 61.2667 89.2169 61.0293 89.6649 60.88C90.1129 60.7253 90.6169 60.648 91.1769 60.648C91.5769 60.648 91.9769 60.688 92.3769 60.768C92.7822 60.848 93.1769 60.9573 93.5609 61.096V61.88C93.2409 61.752 92.8782 61.6507 92.4729 61.576C92.0729 61.5013 91.7049 61.464 91.3689 61.464C90.8569 61.464 90.4249 61.5707 90.0729 61.784C89.7209 61.992 89.5449 62.3493 89.5449 62.856C89.5449 63.2293 89.6782 63.5493 89.9449 63.816C90.2169 64.0827 90.6489 64.216 91.2409 64.216C91.6569 64.216 92.0302 64.12 92.3609 63.928C92.6969 63.7307 92.9609 63.4853 93.1529 63.192C93.3502 62.8987 93.4489 62.6053 93.4489 62.312H93.7529C93.7529 62.824 93.6409 63.2987 93.4169 63.736C93.1982 64.1733 92.8835 64.5253 92.4729 64.792C92.0622 65.0587 91.5715 65.192 91.0009 65.192ZM100.549 68.936C99.7654 68.936 99.0854 68.824 98.5094 68.6C97.9334 68.3813 97.4854 68.0853 97.1654 67.712C96.8507 67.344 96.6934 66.936 96.6934 66.488C96.6934 65.896 96.9094 65.4427 97.3414 65.128C97.7787 64.8187 98.3414 64.664 99.0294 64.664L99.7174 65.096C99.1414 65.096 98.696 65.216 98.3814 65.456C98.0667 65.696 97.9094 66.024 97.9094 66.44C97.9094 66.856 98.1334 67.208 98.5814 67.496C99.0294 67.784 99.6854 67.928 100.549 67.928C101.189 67.928 101.749 67.8347 102.229 67.648C102.715 67.4667 103.091 67.2267 103.357 66.928C103.629 66.6347 103.765 66.3173 103.765 65.976C103.765 65.736 103.677 65.528 103.501 65.352C103.325 65.1813 103.056 65.096 102.693 65.096H99.7174C99.2 65.096 98.752 65.0187 98.3734 64.864C98 64.704 97.712 64.496 97.5094 64.24C97.3067 63.984 97.2054 63.704 97.2054 63.4C97.2054 63.08 97.296 62.808 97.4774 62.584C97.6587 62.36 97.8934 62.1893 98.1814 62.072C98.4747 61.9547 98.7894 61.896 99.1254 61.896L99.3654 62.36C99.2054 62.36 99.0427 62.3973 98.8774 62.472C98.7174 62.5413 98.5814 62.648 98.4694 62.792C98.3627 62.9307 98.3094 63.1067 98.3094 63.32C98.3094 63.5653 98.4107 63.7707 98.6134 63.936C98.816 64.1013 99.184 64.184 99.7174 64.184H102.693C103.413 64.184 103.979 64.336 104.389 64.64C104.805 64.944 105.013 65.368 105.013 65.912C105.013 66.4133 104.835 66.8933 104.477 67.352C104.12 67.816 103.608 68.1947 102.941 68.488C102.275 68.7867 101.477 68.936 100.549 68.936ZM100.773 62.76C100.187 62.76 99.656 62.6427 99.1814 62.408C98.712 62.1733 98.3387 61.8453 98.0614 61.424C97.7894 61.0027 97.6534 60.5147 97.6534 59.96C97.6534 59.4 97.7894 58.9093 98.0614 58.488C98.3387 58.0667 98.712 57.7413 99.1814 57.512C99.656 57.2773 100.187 57.16 100.773 57.16C101.344 57.16 101.861 57.2773 102.325 57.512C102.795 57.7413 103.168 58.0667 103.445 58.488C103.723 58.9093 103.861 59.4 103.861 59.96C103.861 60.5147 103.723 61.0027 103.445 61.424C103.168 61.8453 102.795 62.1733 102.325 62.408C101.861 62.6427 101.344 62.76 100.773 62.76ZM100.773 61.864C101.36 61.864 101.816 61.6827 102.141 61.32C102.467 60.9573 102.629 60.504 102.629 59.96C102.629 59.4 102.467 58.9467 102.141 58.6C101.816 58.248 101.36 58.072 100.773 58.072C100.192 58.072 99.7334 58.248 99.3974 58.6C99.0667 58.9467 98.9014 59.4 98.9014 59.96C98.9014 60.504 99.0667 60.9573 99.3974 61.32C99.7334 61.6827 100.192 61.864 100.773 61.864ZM103.285 58.376L102.693 58.136C102.693 57.688 102.781 57.296 102.957 56.96C103.133 56.6187 103.384 56.3547 103.709 56.168C104.035 55.976 104.421 55.88 104.869 55.88L104.773 57.112C104.293 57.112 103.925 57.216 103.669 57.424C103.413 57.6267 103.285 57.944 103.285 58.376ZM109.693 65.192C109.031 65.192 108.439 65.024 107.917 64.688C107.399 64.3467 106.989 63.8747 106.685 63.272C106.386 62.6693 106.237 61.976 106.237 61.192C106.237 60.3547 106.386 59.6347 106.685 59.032C106.983 58.4293 107.391 57.968 107.909 57.648C108.431 57.3227 109.026 57.16 109.693 57.16C110.274 57.16 110.77 57.2773 111.181 57.512C111.591 57.7467 111.922 58.064 112.173 58.464C112.423 58.864 112.597 59.3173 112.693 59.824C112.794 60.3253 112.823 60.8453 112.781 61.384H107.245V60.616H111.957L111.589 60.856C111.605 60.5413 111.586 60.2267 111.533 59.912C111.485 59.5973 111.391 59.3093 111.253 59.048C111.114 58.7813 110.919 58.568 110.669 58.408C110.418 58.248 110.098 58.168 109.709 58.168C109.218 58.168 108.807 58.2933 108.477 58.544C108.146 58.7947 107.898 59.1253 107.733 59.536C107.567 59.9413 107.485 60.3813 107.485 60.856V61.368C107.485 61.9013 107.565 62.3787 107.725 62.8C107.89 63.2213 108.135 63.5547 108.461 63.8C108.786 64.0453 109.197 64.168 109.693 64.168C110.189 64.168 110.597 64.048 110.917 63.808C111.237 63.568 111.431 63.2133 111.501 62.744H112.797C112.717 63.2507 112.535 63.688 112.253 64.056C111.97 64.4187 111.61 64.6987 111.173 64.896C110.735 65.0933 110.242 65.192 109.693 65.192ZM114.279 64.256C114.279 64.0053 114.367 63.7893 114.543 63.608C114.719 63.4267 114.941 63.336 115.207 63.336C115.474 63.336 115.701 63.4267 115.887 63.608C116.074 63.7893 116.167 64.0053 116.167 64.256C116.167 64.5067 116.074 64.7173 115.887 64.888C115.701 65.0587 115.474 65.144 115.207 65.144C114.941 65.144 114.719 65.0587 114.543 64.888C114.367 64.712 114.279 64.5013 114.279 64.256Z" fill="#333333"/>
</g>
<defs>
<filter id="filter0_d_7073_5865" x="0" y="0" width="210.035" height="88" filterUnits="userSpaceOnUse" color-interpolation-filters="sRGB">
<feFlood flood-opacity="0" result="BackgroundImageFix"/>
<feColorMatrix in="SourceAlpha" type="matrix" values="0 0 0 0 0 0 0 0 0 0 0 0 0 0 0 0 0 0 127 0" result="hardAlpha"/>
<feOffset dy="4"/>
<feGaussianBlur stdDeviation="3"/>
<feComposite in2="hardAlpha" operator="out"/>
<feColorMatrix type="matrix" values="0 0 0 0 0 0 0 0 0 0 0 0 0 0 0 0 0 0 0.1 0"/>
<feBlend mode="normal" in2="BackgroundImageFix" result="effect1_dropShadow_7073_5865"/>
<feBlend mode="normal" in="SourceGraphic" in2="effect1_dropShadow_7073_5865" result="shape"/>
</filter>
<filter id="filter1_d_7073_5865" x="26.6001" y="11.9756" width="170.411" height="66.96" filterUnits="userSpaceOnUse" color-interpolation-filters="sRGB">
<feFlood flood-opacity="0" result="BackgroundImageFix"/>
<feColorMatrix in="SourceAlpha" type="matrix" values="0 0 0 0 0 0 0 0 0 0 0 0 0 0 0 0 0 0 127 0" result="hardAlpha"/>
<feOffset dy="4"/>
<feGaussianBlur stdDeviation="3"/>
<feComposite in2="hardAlpha" operator="out"/>
<feColorMatrix type="matrix" values="0 0 0 0 0 0 0 0 0 0 0 0 0 0 0 0 0 0 0.05 0"/>
<feBlend mode="normal" in2="BackgroundImageFix" result="effect1_dropShadow_7073_5865"/>
<feBlend mode="normal" in="SourceGraphic" in2="effect1_dropShadow_7073_5865" result="shape"/>
</filter>
</defs>
</svg>
