<svg width="262" height="108" viewBox="0 0 262 108" fill="none" xmlns="http://www.w3.org/2000/svg">
<g filter="url(#filter0_d_7075_5689)">
<mask id="path-1-inside-1_7075_5689" fill="white">
<path d="M7.04332 52.6331L16.7673 61L16.7673 89C16.7673 93.9706 20.7968 98 25.7673 98L246.767 98C251.738 98 255.767 93.9706 255.767 89L255.767 11C255.767 6.02948 251.738 2.00004 246.767 2.00004L25.7674 2C20.7968 2 16.7674 6.02944 16.7674 11L16.7674 40.5L7.15554 47.9931C5.66179 49.1575 5.6076 51.3978 7.04332 52.6331Z"/>
</mask>
<path d="M7.04332 52.6331L16.7673 61L16.7673 89C16.7673 93.9706 20.7968 98 25.7673 98L246.767 98C251.738 98 255.767 93.9706 255.767 89L255.767 11C255.767 6.02948 251.738 2.00004 246.767 2.00004L25.7674 2C20.7968 2 16.7674 6.02944 16.7674 11L16.7674 40.5L7.15554 47.9931C5.66179 49.1575 5.6076 51.3978 7.04332 52.6331Z" fill="white"/>
<path d="M16.7673 61L18.1673 61L18.1673 60.3577L17.6805 59.9388L16.7673 61ZM7.04332 52.6331L6.1302 53.6944L6.1302 53.6944L7.04332 52.6331ZM7.15554 47.9931L6.29479 46.8889L6.29479 46.8889L7.15554 47.9931ZM16.7674 40.5L17.6281 41.6041L18.1674 41.1838L18.1674 40.5L16.7674 40.5ZM16.7674 11L15.3674 11L15.3674 11L16.7674 11ZM16.7673 89L18.1673 89L18.1673 89L16.7673 89ZM17.6805 59.9388L7.95644 51.5719L6.1302 53.6944L15.8542 62.0612L17.6805 59.9388ZM8.01629 49.0972L17.6281 41.6041L15.9066 39.3959L6.29479 46.8889L8.01629 49.0972ZM7.95644 51.5719C7.19072 50.9131 7.21962 49.7183 8.01629 49.0972L6.29479 46.8889C4.10395 48.5968 4.02448 51.8825 6.1302 53.6944L7.95644 51.5719ZM25.7674 3.4L246.767 3.40004L246.767 0.600042L25.7674 0.600003L25.7674 3.4ZM254.367 11L254.367 89L257.167 89L257.167 11L254.367 11ZM246.767 96.6L25.7673 96.6L25.7673 99.4L246.767 99.4L246.767 96.6ZM18.1674 40.5L18.1674 11L15.3674 11L15.3674 40.5L18.1674 40.5ZM18.1673 89L18.1673 61L15.3673 61L15.3673 89L18.1673 89ZM25.7673 96.6C21.57 96.6 18.1673 93.1974 18.1673 89L15.3673 89C15.3673 94.7438 20.0236 99.4 25.7673 99.4L25.7673 96.6ZM254.367 89C254.367 93.1974 250.965 96.6 246.767 96.6L246.767 99.4C252.511 99.4 257.167 94.7438 257.167 89L254.367 89ZM246.767 3.40004C250.965 3.40004 254.367 6.80268 254.367 11L257.167 11C257.167 5.25628 252.511 0.600043 246.767 0.600042L246.767 3.40004ZM25.7674 0.600003C20.0236 0.600002 15.3674 5.25624 15.3674 11L18.1674 11C18.1674 6.80264 21.57 3.4 25.7674 3.4L25.7674 0.600003Z" fill="#333333" mask="url(#path-1-inside-1_7075_5689)"/>
<path d="M32.5729 25V14.952H38.6849V16.024H33.8209V19.368H38.3489V20.44H33.8209V25H32.5729ZM41.1235 25V17.336H42.3715V25H41.1235ZM41.9875 21.544C41.9875 20.5733 42.0808 19.768 42.2675 19.128C42.4542 18.4827 42.7262 18.0027 43.0835 17.688C43.4462 17.368 43.8862 17.208 44.4035 17.208C44.5742 17.208 44.7288 17.2213 44.8675 17.248C45.0115 17.2693 45.1555 17.304 45.2995 17.352L45.2195 18.584C45.0702 18.536 44.9075 18.496 44.7315 18.464C44.5555 18.4267 44.3982 18.408 44.2595 18.408C43.8062 18.408 43.4408 18.5387 43.1635 18.8C42.8862 19.056 42.6835 19.4187 42.5555 19.888C42.4328 20.3573 42.3715 20.9093 42.3715 21.544H41.9875ZM49.8327 25.192C49.1447 25.192 48.5314 25.04 47.9927 24.736C47.4594 24.432 47.0381 23.9813 46.7287 23.384C46.4194 22.7867 46.2647 22.0507 46.2647 21.176C46.2647 20.296 46.4194 19.56 46.7287 18.968C47.0381 18.3707 47.4594 17.92 47.9927 17.616C48.5314 17.312 49.1447 17.16 49.8327 17.16C50.5154 17.16 51.1234 17.312 51.6567 17.616C52.1954 17.92 52.6167 18.3707 52.9207 18.968C53.2301 19.56 53.3847 20.296 53.3847 21.176C53.3847 22.0507 53.2301 22.7867 52.9207 23.384C52.6167 23.9813 52.1954 24.432 51.6567 24.736C51.1234 25.04 50.5154 25.192 49.8327 25.192ZM49.8007 24.104C50.2967 24.104 50.7181 23.9867 51.0647 23.752C51.4114 23.512 51.6727 23.1733 51.8487 22.736C52.0301 22.2987 52.1207 21.7787 52.1207 21.176C52.1207 20.264 51.9314 19.5467 51.5527 19.024C51.1741 18.496 50.6114 18.232 49.8647 18.232C49.3634 18.232 48.9394 18.352 48.5927 18.592C48.2514 18.8267 47.9901 19.1653 47.8087 19.608C47.6327 20.0453 47.5447 20.568 47.5447 21.176C47.5447 22.0773 47.7341 22.792 48.1127 23.32C48.4967 23.8427 49.0594 24.104 49.8007 24.104ZM66.7268 25V20.504C66.7268 19.7733 66.5508 19.2187 66.1987 18.84C65.8521 18.456 65.3827 18.264 64.7907 18.264C64.0974 18.264 63.5667 18.5333 63.1987 19.072C62.8307 19.6053 62.6467 20.344 62.6467 21.288H62.0707C62.0707 20.6 62.1374 19.9973 62.2707 19.48C62.4094 18.9627 62.6094 18.5333 62.8707 18.192C63.1321 17.8453 63.4494 17.5867 63.8228 17.416C64.1961 17.2453 64.6201 17.16 65.0947 17.16C65.6974 17.16 66.2121 17.296 66.6388 17.568C67.0707 17.8347 67.4014 18.2187 67.6307 18.72C67.8601 19.2213 67.9747 19.816 67.9747 20.504V25H66.7268ZM55.9747 25V17.352H57.0467L57.1907 18.888C57.4307 18.3333 57.7667 17.9067 58.1987 17.608C58.6361 17.3093 59.1587 17.16 59.7667 17.16C60.3694 17.16 60.8841 17.296 61.3107 17.568C61.7427 17.8347 62.0734 18.2187 62.3027 18.72C62.5321 19.2213 62.6467 19.816 62.6467 20.504V25H61.4147V20.504C61.4147 19.7733 61.2387 19.2187 60.8867 18.84C60.5401 18.456 60.0654 18.264 59.4627 18.264C59.0041 18.264 58.6067 18.3893 58.2707 18.64C57.9347 18.8907 57.6761 19.2507 57.4947 19.72C57.3134 20.184 57.2227 20.7387 57.2227 21.384V25H55.9747ZM80.5004 25V20.504C80.5004 19.7733 80.3244 19.2187 79.9724 18.84C79.6257 18.456 79.151 18.264 78.5484 18.264C78.0897 18.264 77.6924 18.3893 77.3564 18.64C77.0204 18.8907 76.7617 19.2507 76.5804 19.72C76.399 20.184 76.3084 20.7387 76.3084 21.384H75.8284C75.8284 20.4933 75.9457 19.7333 76.1804 19.104C76.415 18.4747 76.7564 17.9947 77.2044 17.664C77.6577 17.328 78.207 17.16 78.8524 17.16C79.455 17.16 79.9697 17.296 80.3964 17.568C80.8284 17.8347 81.159 18.2187 81.3884 18.72C81.6177 19.2213 81.7324 19.816 81.7324 20.504V25H80.5004ZM75.0604 25V14.088H76.3084V25H75.0604ZM87.5326 25.192C86.8713 25.192 86.2793 25.024 85.7566 24.688C85.2393 24.3467 84.8286 23.8747 84.5246 23.272C84.226 22.6693 84.0766 21.976 84.0766 21.192C84.0766 20.3547 84.226 19.6347 84.5246 19.032C84.8233 18.4293 85.2313 17.968 85.7486 17.648C86.2713 17.3227 86.866 17.16 87.5326 17.16C88.114 17.16 88.61 17.2773 89.0206 17.512C89.4313 17.7467 89.762 18.064 90.0126 18.464C90.2633 18.864 90.4366 19.3173 90.5326 19.824C90.634 20.3253 90.6633 20.8453 90.6206 21.384H85.0846V20.616H89.7966L89.4286 20.856C89.4446 20.5413 89.426 20.2267 89.3726 19.912C89.3246 19.5973 89.2313 19.3093 89.0926 19.048C88.954 18.7813 88.7593 18.568 88.5086 18.408C88.258 18.248 87.938 18.168 87.5486 18.168C87.058 18.168 86.6473 18.2933 86.3166 18.544C85.986 18.7947 85.738 19.1253 85.5726 19.536C85.4073 19.9413 85.3246 20.3813 85.3246 20.856V21.368C85.3246 21.9013 85.4046 22.3787 85.5646 22.8C85.73 23.2213 85.9753 23.5547 86.3006 23.8C86.626 24.0453 87.0366 24.168 87.5326 24.168C88.0286 24.168 88.4366 24.048 88.7566 23.808C89.0766 23.568 89.2713 23.2133 89.3406 22.744H90.6366C90.5566 23.2507 90.3753 23.688 90.0926 24.056C89.81 24.4187 89.45 24.6987 89.0126 24.896C88.5753 25.0933 88.082 25.192 87.5326 25.192ZM93.2554 25V17.336H94.5034V25H93.2554ZM94.1194 21.544C94.1194 20.5733 94.2127 19.768 94.3994 19.128C94.586 18.4827 94.858 18.0027 95.2154 17.688C95.578 17.368 96.018 17.208 96.5354 17.208C96.706 17.208 96.8607 17.2213 96.9994 17.248C97.1434 17.2693 97.2874 17.304 97.4314 17.352L97.3514 18.584C97.202 18.536 97.0394 18.496 96.8634 18.464C96.6874 18.4267 96.53 18.408 96.3914 18.408C95.938 18.408 95.5727 18.5387 95.2954 18.8C95.018 19.056 94.8154 19.4187 94.6874 19.888C94.5647 20.3573 94.5034 20.9093 94.5034 21.544H94.1194ZM101.853 25.192C101.191 25.192 100.599 25.024 100.077 24.688C99.5593 24.3467 99.1486 23.8747 98.8446 23.272C98.546 22.6693 98.3966 21.976 98.3966 21.192C98.3966 20.3547 98.546 19.6347 98.8446 19.032C99.1433 18.4293 99.5513 17.968 100.069 17.648C100.591 17.3227 101.186 17.16 101.853 17.16C102.434 17.16 102.93 17.2773 103.341 17.512C103.751 17.7467 104.082 18.064 104.333 18.464C104.583 18.864 104.757 19.3173 104.853 19.824C104.954 20.3253 104.983 20.8453 104.941 21.384H99.4046V20.616H104.117L103.749 20.856C103.765 20.5413 103.746 20.2267 103.693 19.912C103.645 19.5973 103.551 19.3093 103.413 19.048C103.274 18.7813 103.079 18.568 102.829 18.408C102.578 18.248 102.258 18.168 101.869 18.168C101.378 18.168 100.967 18.2933 100.637 18.544C100.306 18.7947 100.058 19.1253 99.8926 19.536C99.7273 19.9413 99.6446 20.3813 99.6446 20.856V21.368C99.6446 21.9013 99.7246 22.3787 99.8846 22.8C100.05 23.2213 100.295 23.5547 100.621 23.8C100.946 24.0453 101.357 24.168 101.853 24.168C102.349 24.168 102.757 24.048 103.077 23.808C103.397 23.568 103.591 23.2133 103.661 22.744H104.957C104.877 23.2507 104.695 23.688 104.413 24.056C104.13 24.4187 103.77 24.6987 103.333 24.896C102.895 25.0933 102.402 25.192 101.853 25.192ZM110.268 17.352H111.66L114.156 23.912H113.868L115.804 17.352H117.084L114.204 26.536C113.964 27.304 113.644 27.896 113.244 28.312C112.844 28.728 112.332 28.936 111.708 28.936C111.372 28.936 111.052 28.888 110.748 28.792C110.45 28.696 110.14 28.5573 109.82 28.376V27.224C110.103 27.448 110.375 27.608 110.636 27.704C110.903 27.8 111.18 27.848 111.468 27.848C111.788 27.848 112.055 27.7467 112.268 27.544C112.487 27.3413 112.668 27.08 112.812 26.76C112.956 26.4453 113.079 26.1147 113.18 25.768L113.404 25L110.268 17.352ZM121.913 25.192C121.225 25.192 120.612 25.04 120.073 24.736C119.54 24.432 119.119 23.9813 118.809 23.384C118.5 22.7867 118.345 22.0507 118.345 21.176C118.345 20.296 118.5 19.56 118.809 18.968C119.119 18.3707 119.54 17.92 120.073 17.616C120.612 17.312 121.225 17.16 121.913 17.16C122.596 17.16 123.204 17.312 123.737 17.616C124.276 17.92 124.697 18.3707 125.001 18.968C125.311 19.56 125.465 20.296 125.465 21.176C125.465 22.0507 125.311 22.7867 125.001 23.384C124.697 23.9813 124.276 24.432 123.737 24.736C123.204 25.04 122.596 25.192 121.913 25.192ZM121.881 24.104C122.377 24.104 122.799 23.9867 123.145 23.752C123.492 23.512 123.753 23.1733 123.929 22.736C124.111 22.2987 124.201 21.7787 124.201 21.176C124.201 20.264 124.012 19.5467 123.633 19.024C123.255 18.496 122.692 18.232 121.945 18.232C121.444 18.232 121.02 18.352 120.673 18.592C120.332 18.8267 120.071 19.1653 119.889 19.608C119.713 20.0453 119.625 20.568 119.625 21.176C119.625 22.0773 119.815 22.792 120.193 23.32C120.577 23.8427 121.14 24.104 121.881 24.104ZM133.255 17.336H134.503V25H133.255V17.336ZM127.831 17.336H129.079V22.104C129.079 22.744 129.234 23.2293 129.543 23.56C129.858 23.8907 130.306 24.056 130.887 24.056C131.367 24.056 131.783 23.928 132.135 23.672C132.493 23.416 132.767 23.064 132.959 22.616C133.157 22.1627 133.255 21.6453 133.255 21.064H133.719C133.719 21.9227 133.594 22.656 133.343 23.264C133.098 23.872 132.749 24.3387 132.295 24.664C131.847 24.984 131.319 25.144 130.711 25.144C130.135 25.144 129.631 25.0373 129.199 24.824C128.767 24.6107 128.431 24.288 128.191 23.856C127.951 23.4187 127.831 22.8667 127.831 22.2V17.336ZM144.548 25.192C143.934 25.192 143.361 25.0267 142.828 24.696C142.3 24.3653 141.873 23.8987 141.548 23.296C141.222 22.6933 141.06 21.9813 141.06 21.16C141.06 20.3173 141.222 19.5973 141.548 19C141.873 18.4027 142.3 17.9467 142.828 17.632C143.361 17.3173 143.934 17.16 144.548 17.16C144.98 17.16 145.366 17.2267 145.708 17.36C146.054 17.488 146.356 17.6667 146.612 17.896C146.868 18.1253 147.078 18.3867 147.244 18.68C147.414 18.968 147.54 19.272 147.62 19.592L146.34 19.704C146.206 19.2613 145.982 18.912 145.668 18.656C145.358 18.3947 144.98 18.264 144.532 18.264C144.153 18.264 143.796 18.3733 143.46 18.592C143.129 18.8053 142.86 19.128 142.652 19.56C142.444 19.9867 142.34 20.52 142.34 21.16C142.34 21.752 142.433 22.2667 142.62 22.704C142.812 23.136 143.073 23.472 143.404 23.712C143.734 23.952 144.11 24.072 144.532 24.072C145.124 24.072 145.572 23.928 145.876 23.64C146.185 23.3467 146.34 22.9413 146.34 22.424H147.62C147.62 22.9573 147.494 23.432 147.244 23.848C146.993 24.264 146.636 24.592 146.172 24.832C145.713 25.072 145.172 25.192 144.548 25.192ZM155.006 25L154.846 23.32V20.04C154.846 19.352 154.699 18.8587 154.406 18.56C154.112 18.256 153.672 18.104 153.086 18.104C152.755 18.104 152.454 18.152 152.182 18.248C151.915 18.344 151.702 18.4933 151.542 18.696C151.387 18.8933 151.31 19.1493 151.31 19.464H149.918C149.918 18.9093 150.054 18.464 150.326 18.128C150.598 17.7867 150.971 17.5413 151.446 17.392C151.926 17.2373 152.472 17.16 153.086 17.16C153.672 17.16 154.192 17.2587 154.646 17.456C155.099 17.6533 155.454 17.968 155.71 18.4C155.966 18.8267 156.094 19.384 156.094 20.072V25H155.006ZM152.398 25.192C151.768 25.192 151.248 25.08 150.838 24.856C150.427 24.632 150.12 24.3413 149.918 23.984C149.715 23.6267 149.614 23.2507 149.614 22.856C149.614 22.3387 149.742 21.9173 149.998 21.592C150.259 21.2667 150.614 21.0293 151.062 20.88C151.51 20.7253 152.014 20.648 152.574 20.648C152.974 20.648 153.374 20.688 153.774 20.768C154.179 20.848 154.574 20.9573 154.958 21.096V21.88C154.638 21.752 154.275 21.6507 153.87 21.576C153.47 21.5013 153.102 21.464 152.766 21.464C152.254 21.464 151.822 21.5707 151.47 21.784C151.118 21.992 150.942 22.3493 150.942 22.856C150.942 23.2293 151.075 23.5493 151.342 23.816C151.614 24.0827 152.046 24.216 152.638 24.216C153.054 24.216 153.427 24.12 153.758 23.928C154.094 23.7307 154.358 23.4853 154.55 23.192C154.747 22.8987 154.846 22.6053 154.846 22.312H155.15C155.15 22.824 155.038 23.2987 154.814 23.736C154.595 24.1733 154.28 24.5253 153.87 24.792C153.459 25.0587 152.968 25.192 152.398 25.192ZM164.682 25V20.504C164.682 19.7733 164.506 19.2187 164.154 18.84C163.808 18.456 163.333 18.264 162.73 18.264C162.272 18.264 161.874 18.3893 161.538 18.64C161.202 18.8907 160.944 19.2507 160.762 19.72C160.581 20.184 160.49 20.7387 160.49 21.384H160.01C160.01 20.4933 160.128 19.7333 160.362 19.104C160.597 18.4747 160.938 17.9947 161.386 17.664C161.84 17.328 162.389 17.16 163.034 17.16C163.637 17.16 164.152 17.296 164.578 17.568C165.01 17.8347 165.341 18.2187 165.57 18.72C165.8 19.2213 165.914 19.816 165.914 20.504V25H164.682ZM159.242 25V17.352H160.314L160.49 19.112V25H159.242ZM34.056 45V40.504C34.056 39.7733 33.88 39.2187 33.528 38.84C33.1813 38.456 32.7067 38.264 32.104 38.264C31.6453 38.264 31.248 38.3893 30.912 38.64C30.576 38.8907 30.3173 39.2507 30.136 39.72C29.9547 40.184 29.864 40.7387 29.864 41.384H29.384C29.384 40.4933 29.5013 39.7333 29.736 39.104C29.9707 38.4747 30.312 37.9947 30.76 37.664C31.2133 37.328 31.7627 37.16 32.408 37.16C33.0107 37.16 33.5253 37.296 33.952 37.568C34.384 37.8347 34.7147 38.2187 34.944 38.72C35.1733 39.2213 35.288 39.816 35.288 40.504V45H34.056ZM28.616 45V37.352H29.688L29.864 39.112V45H28.616ZM43.1683 45L43.0083 43.32V40.04C43.0083 39.352 42.8616 38.8587 42.5683 38.56C42.2749 38.256 41.8349 38.104 41.2483 38.104C40.9176 38.104 40.6162 38.152 40.3442 38.248C40.0776 38.344 39.8643 38.4933 39.7043 38.696C39.5496 38.8933 39.4722 39.1493 39.4722 39.464H38.0802C38.0802 38.9093 38.2162 38.464 38.4882 38.128C38.7602 37.7867 39.1336 37.5413 39.6082 37.392C40.0882 37.2373 40.6349 37.16 41.2483 37.16C41.8349 37.16 42.3549 37.2587 42.8082 37.456C43.2616 37.6533 43.6163 37.968 43.8723 38.4C44.1283 38.8267 44.2563 39.384 44.2563 40.072V45H43.1683ZM40.5603 45.192C39.9309 45.192 39.4109 45.08 39.0002 44.856C38.5896 44.632 38.2829 44.3413 38.0802 43.984C37.8776 43.6267 37.7762 43.2507 37.7762 42.856C37.7762 42.3387 37.9042 41.9173 38.1602 41.592C38.4216 41.2667 38.7762 41.0293 39.2243 40.88C39.6723 40.7253 40.1762 40.648 40.7362 40.648C41.1362 40.648 41.5362 40.688 41.9363 40.768C42.3416 40.848 42.7363 40.9573 43.1203 41.096V41.88C42.8003 41.752 42.4376 41.6507 42.0322 41.576C41.6322 41.5013 41.2642 41.464 40.9282 41.464C40.4162 41.464 39.9842 41.5707 39.6323 41.784C39.2802 41.992 39.1042 42.3493 39.1042 42.856C39.1042 43.2293 39.2376 43.5493 39.5043 43.816C39.7763 44.0827 40.2083 44.216 40.8003 44.216C41.2163 44.216 41.5896 44.12 41.9202 43.928C42.2563 43.7307 42.5203 43.4853 42.7123 43.192C42.9096 42.8987 43.0083 42.6053 43.0083 42.312H43.3123C43.3123 42.824 43.2003 43.2987 42.9763 43.736C42.7576 44.1733 42.4429 44.5253 42.0322 44.792C41.6216 45.0587 41.1309 45.192 40.5603 45.192ZM46.0767 37.352H47.5007L49.9007 43.928H49.7247L52.1248 37.352H53.5487L50.4927 45H49.1327L46.0767 37.352ZM56.3156 35.544C56.0596 35.544 55.857 35.472 55.7076 35.328C55.5583 35.1787 55.4836 34.984 55.4836 34.744C55.4836 34.5093 55.5583 34.3227 55.7076 34.184C55.857 34.0453 56.0596 33.976 56.3156 33.976C56.5716 33.976 56.7743 34.0453 56.9236 34.184C57.073 34.3227 57.1476 34.5093 57.1476 34.744C57.1476 34.984 57.073 35.1787 56.9236 35.328C56.7743 35.472 56.5716 35.544 56.3156 35.544ZM55.6916 45V37.336H56.9396V45H55.6916ZM63.2412 48.936C62.4572 48.936 61.7772 48.824 61.2012 48.6C60.6252 48.3813 60.1772 48.0853 59.8572 47.712C59.5426 47.344 59.3852 46.936 59.3852 46.488C59.3852 45.896 59.6012 45.4427 60.0332 45.128C60.4706 44.8187 61.0332 44.664 61.7212 44.664L62.4092 45.096C61.8332 45.096 61.3879 45.216 61.0732 45.456C60.7586 45.696 60.6012 46.024 60.6012 46.44C60.6012 46.856 60.8252 47.208 61.2732 47.496C61.7212 47.784 62.3772 47.928 63.2412 47.928C63.8812 47.928 64.4412 47.8347 64.9212 47.648C65.4066 47.4667 65.7826 47.2267 66.0492 46.928C66.3212 46.6347 66.4572 46.3173 66.4572 45.976C66.4572 45.736 66.3692 45.528 66.1932 45.352C66.0172 45.1813 65.7479 45.096 65.3852 45.096H62.4092C61.8919 45.096 61.4439 45.0187 61.0652 44.864C60.6919 44.704 60.4039 44.496 60.2012 44.24C59.9986 43.984 59.8972 43.704 59.8972 43.4C59.8972 43.08 59.9879 42.808 60.1692 42.584C60.3506 42.36 60.5852 42.1893 60.8732 42.072C61.1666 41.9547 61.4812 41.896 61.8172 41.896L62.0572 42.36C61.8972 42.36 61.7346 42.3973 61.5692 42.472C61.4092 42.5413 61.2732 42.648 61.1612 42.792C61.0546 42.9307 61.0012 43.1067 61.0012 43.32C61.0012 43.5653 61.1026 43.7707 61.3052 43.936C61.5079 44.1013 61.8759 44.184 62.4092 44.184H65.3852C66.1052 44.184 66.6706 44.336 67.0813 44.64C67.4972 44.944 67.7052 45.368 67.7052 45.912C67.7052 46.4133 67.5266 46.8933 67.1692 47.352C66.8119 47.816 66.2999 48.1947 65.6332 48.488C64.9666 48.7867 64.1692 48.936 63.2412 48.936ZM63.4652 42.76C62.8786 42.76 62.3479 42.6427 61.8732 42.408C61.4039 42.1733 61.0306 41.8453 60.7532 41.424C60.4812 41.0027 60.3452 40.5147 60.3452 39.96C60.3452 39.4 60.4812 38.9093 60.7532 38.488C61.0306 38.0667 61.4039 37.7413 61.8732 37.512C62.3479 37.2773 62.8786 37.16 63.4652 37.16C64.0359 37.16 64.5532 37.2773 65.0172 37.512C65.4866 37.7413 65.8599 38.0667 66.1372 38.488C66.4146 38.9093 66.5532 39.4 66.5532 39.96C66.5532 40.5147 66.4146 41.0027 66.1372 41.424C65.8599 41.8453 65.4866 42.1733 65.0172 42.408C64.5532 42.6427 64.0359 42.76 63.4652 42.76ZM63.4652 41.864C64.0519 41.864 64.5079 41.6827 64.8332 41.32C65.1586 40.9573 65.3212 40.504 65.3212 39.96C65.3212 39.4 65.1586 38.9467 64.8332 38.6C64.5079 38.248 64.0519 38.072 63.4652 38.072C62.8839 38.072 62.4252 38.248 62.0892 38.6C61.7586 38.9467 61.5932 39.4 61.5932 39.96C61.5932 40.504 61.7586 40.9573 62.0892 41.32C62.4252 41.6827 62.8839 41.864 63.4652 41.864ZM65.9772 38.376L65.3852 38.136C65.3852 37.688 65.4732 37.296 65.6492 36.96C65.8252 36.6187 66.0759 36.3547 66.4012 36.168C66.7266 35.976 67.1132 35.88 67.5612 35.88L67.4653 37.112C66.9852 37.112 66.6172 37.216 66.3612 37.424C66.1052 37.6267 65.9772 37.944 65.9772 38.376ZM74.4645 45L74.3045 43.32V40.04C74.3045 39.352 74.1578 38.8587 73.8645 38.56C73.5712 38.256 73.1312 38.104 72.5445 38.104C72.2138 38.104 71.9125 38.152 71.6405 38.248C71.3738 38.344 71.1605 38.4933 71.0005 38.696C70.8458 38.8933 70.7685 39.1493 70.7685 39.464H69.3765C69.3765 38.9093 69.5125 38.464 69.7845 38.128C70.0565 37.7867 70.4298 37.5413 70.9045 37.392C71.3845 37.2373 71.9312 37.16 72.5445 37.16C73.1312 37.16 73.6512 37.2587 74.1045 37.456C74.5578 37.6533 74.9125 37.968 75.1685 38.4C75.4245 38.8267 75.5525 39.384 75.5525 40.072V45H74.4645ZM71.8565 45.192C71.2272 45.192 70.7072 45.08 70.2965 44.856C69.8858 44.632 69.5792 44.3413 69.3765 43.984C69.1738 43.6267 69.0725 43.2507 69.0725 42.856C69.0725 42.3387 69.2005 41.9173 69.4565 41.592C69.7178 41.2667 70.0725 41.0293 70.5205 40.88C70.9685 40.7253 71.4725 40.648 72.0325 40.648C72.4325 40.648 72.8325 40.688 73.2325 40.768C73.6378 40.848 74.0325 40.9573 74.4165 41.096V41.88C74.0965 41.752 73.7338 41.6507 73.3285 41.576C72.9285 41.5013 72.5605 41.464 72.2245 41.464C71.7125 41.464 71.2805 41.5707 70.9285 41.784C70.5765 41.992 70.4005 42.3493 70.4005 42.856C70.4005 43.2293 70.5338 43.5493 70.8005 43.816C71.0725 44.0827 71.5045 44.216 72.0965 44.216C72.5125 44.216 72.8858 44.12 73.2165 43.928C73.5525 43.7307 73.8165 43.4853 74.0085 43.192C74.2058 42.8987 74.3045 42.6053 74.3045 42.312H74.6085C74.6085 42.824 74.4965 43.2987 74.2725 43.736C74.0538 44.1733 73.7392 44.5253 73.3285 44.792C72.9178 45.0587 72.4272 45.192 71.8565 45.192ZM81.053 45.192C80.637 45.192 80.2637 45.112 79.933 44.952C79.6023 44.792 79.341 44.552 79.149 44.232C78.957 43.912 78.861 43.512 78.861 43.032V35.224H80.093V43C80.093 43.7893 80.461 44.184 81.197 44.184C81.4157 44.184 81.6263 44.16 81.829 44.112C82.037 44.064 82.269 43.992 82.525 43.896L82.701 44.792C82.429 44.9093 82.157 45.0053 81.885 45.08C81.6183 45.1547 81.341 45.192 81.053 45.192ZM77.629 38.216V37.352H82.509V38.216H77.629ZM87.5326 45.192C86.8713 45.192 86.2793 45.024 85.7566 44.688C85.2393 44.3467 84.8286 43.8747 84.5246 43.272C84.226 42.6693 84.0766 41.976 84.0766 41.192C84.0766 40.3547 84.226 39.6347 84.5246 39.032C84.8233 38.4293 85.2313 37.968 85.7486 37.648C86.2713 37.3227 86.866 37.16 87.5326 37.16C88.114 37.16 88.61 37.2773 89.0206 37.512C89.4313 37.7467 89.762 38.064 90.0126 38.464C90.2633 38.864 90.4366 39.3173 90.5326 39.824C90.634 40.3253 90.6633 40.8453 90.6206 41.384H85.0846V40.616H89.7966L89.4286 40.856C89.4446 40.5413 89.426 40.2267 89.3726 39.912C89.3246 39.5973 89.2313 39.3093 89.0926 39.048C88.954 38.7813 88.7593 38.568 88.5086 38.408C88.258 38.248 87.938 38.168 87.5486 38.168C87.058 38.168 86.6473 38.2933 86.3166 38.544C85.986 38.7947 85.738 39.1253 85.5726 39.536C85.4073 39.9413 85.3246 40.3813 85.3246 40.856V41.368C85.3246 41.9013 85.4046 42.3787 85.5646 42.8C85.73 43.2213 85.9753 43.5547 86.3006 43.8C86.626 44.0453 87.0366 44.168 87.5326 44.168C88.0286 44.168 88.4366 44.048 88.7566 43.808C89.0766 43.568 89.2713 43.2133 89.3406 42.744H90.6366C90.5566 43.2507 90.3753 43.688 90.0926 44.056C89.81 44.4187 89.45 44.6987 89.0126 44.896C88.5753 45.0933 88.082 45.192 87.5326 45.192ZM99.5643 45.192C99.1483 45.192 98.7749 45.112 98.4443 44.952C98.1136 44.792 97.8523 44.552 97.6603 44.232C97.4683 43.912 97.3723 43.512 97.3723 43.032V35.224H98.6043V43C98.6043 43.7893 98.9723 44.184 99.7083 44.184C99.9269 44.184 100.138 44.16 100.34 44.112C100.548 44.064 100.78 43.992 101.036 43.896L101.212 44.792C100.94 44.9093 100.668 45.0053 100.396 45.08C100.13 45.1547 99.8523 45.192 99.5643 45.192ZM96.1403 38.216V37.352H101.02V38.216H96.1403ZM106.156 45.192C105.468 45.192 104.855 45.04 104.316 44.736C103.783 44.432 103.361 43.9813 103.052 43.384C102.743 42.7867 102.588 42.0507 102.588 41.176C102.588 40.296 102.743 39.56 103.052 38.968C103.361 38.3707 103.783 37.92 104.316 37.616C104.855 37.312 105.468 37.16 106.156 37.16C106.839 37.16 107.447 37.312 107.98 37.616C108.519 37.92 108.94 38.3707 109.244 38.968C109.553 39.56 109.708 40.296 109.708 41.176C109.708 42.0507 109.553 42.7867 109.244 43.384C108.94 43.9813 108.519 44.432 107.98 44.736C107.447 45.04 106.839 45.192 106.156 45.192ZM106.124 44.104C106.62 44.104 107.041 43.9867 107.388 43.752C107.735 43.512 107.996 43.1733 108.172 42.736C108.353 42.2987 108.444 41.7787 108.444 41.176C108.444 40.264 108.255 39.5467 107.876 39.024C107.497 38.496 106.935 38.232 106.188 38.232C105.687 38.232 105.263 38.352 104.916 38.592C104.575 38.8267 104.313 39.1653 104.132 39.608C103.956 40.0453 103.868 40.568 103.868 41.176C103.868 42.0773 104.057 42.792 104.436 43.32C104.82 43.8427 105.383 44.104 106.124 44.104ZM118.991 45.192C118.372 45.192 117.804 45.0267 117.287 44.696C116.769 44.36 116.356 43.8907 116.047 43.288C115.737 42.68 115.583 41.9653 115.583 41.144C115.583 40.328 115.735 39.6213 116.039 39.024C116.343 38.4267 116.745 37.968 117.247 37.648C117.753 37.3227 118.308 37.16 118.911 37.16C119.471 37.16 119.961 37.296 120.383 37.568C120.809 37.84 121.14 38.232 121.375 38.744C121.609 39.256 121.727 39.8747 121.727 40.6H121.247C121.247 40.0933 121.145 39.6667 120.943 39.32C120.745 38.9733 120.487 38.712 120.167 38.536C119.847 38.3547 119.503 38.264 119.135 38.264C118.719 38.264 118.337 38.3813 117.991 38.616C117.649 38.8453 117.375 39.176 117.167 39.608C116.964 40.0347 116.863 40.5467 116.863 41.144C116.863 41.752 116.964 42.2747 117.167 42.712C117.375 43.1493 117.649 43.4853 117.991 43.72C118.337 43.9547 118.719 44.072 119.135 44.072C119.481 44.072 119.815 43.9813 120.135 43.8C120.46 43.6187 120.727 43.3547 120.935 43.008C121.143 42.656 121.247 42.232 121.247 41.736H121.727C121.727 42.4773 121.604 43.1067 121.359 43.624C121.119 44.136 120.791 44.5253 120.375 44.792C119.964 45.0587 119.503 45.192 118.991 45.192ZM121.455 45L121.247 43.208V34.088H122.495V45H121.455ZM126.603 35.544C126.347 35.544 126.144 35.472 125.995 35.328C125.846 35.1787 125.771 34.984 125.771 34.744C125.771 34.5093 125.846 34.3227 125.995 34.184C126.144 34.0453 126.347 33.976 126.603 33.976C126.859 33.976 127.062 34.0453 127.211 34.184C127.36 34.3227 127.435 34.5093 127.435 34.744C127.435 34.984 127.36 35.1787 127.211 35.328C127.062 35.472 126.859 35.544 126.603 35.544ZM125.979 45V37.336H127.227V45H125.979ZM131.241 45V36.168C131.241 35.6613 131.337 35.248 131.529 34.928C131.726 34.6027 131.987 34.3627 132.313 34.208C132.643 34.0533 133.011 33.976 133.417 33.976C133.635 33.976 133.857 33.992 134.081 34.024C134.31 34.056 134.537 34.104 134.761 34.168L134.521 35.16C134.361 35.096 134.201 35.048 134.041 35.016C133.886 34.984 133.737 34.968 133.593 34.968C133.422 34.968 133.251 35 133.081 35.064C132.91 35.128 132.769 35.248 132.657 35.424C132.545 35.6 132.489 35.8533 132.489 36.184V45H131.241ZM129.993 38.216V37.352H134.073V38.216H129.993ZM136.885 45V36.168C136.885 35.6613 136.981 35.248 137.173 34.928C137.37 34.6027 137.632 34.3627 137.957 34.208C138.288 34.0533 138.656 33.976 139.061 33.976C139.28 33.976 139.501 33.992 139.725 34.024C139.954 34.056 140.181 34.104 140.405 34.168L140.165 35.16C140.005 35.096 139.845 35.048 139.685 35.016C139.53 34.984 139.381 34.968 139.237 34.968C139.066 34.968 138.896 35 138.725 35.064C138.554 35.128 138.413 35.248 138.301 35.424C138.189 35.6 138.133 35.8533 138.133 36.184V45H136.885ZM135.637 38.216V37.352H139.717V38.216H135.637ZM144.769 45.192C144.108 45.192 143.516 45.024 142.993 44.688C142.476 44.3467 142.065 43.8747 141.761 43.272C141.463 42.6693 141.313 41.976 141.313 41.192C141.313 40.3547 141.463 39.6347 141.761 39.032C142.06 38.4293 142.468 37.968 142.985 37.648C143.508 37.3227 144.103 37.16 144.769 37.16C145.351 37.16 145.847 37.2773 146.257 37.512C146.668 37.7467 146.999 38.064 147.249 38.464C147.5 38.864 147.673 39.3173 147.769 39.824C147.871 40.3253 147.9 40.8453 147.857 41.384H142.321V40.616H147.033L146.665 40.856C146.681 40.5413 146.663 40.2267 146.609 39.912C146.561 39.5973 146.468 39.3093 146.329 39.048C146.191 38.7813 145.996 38.568 145.745 38.408C145.495 38.248 145.175 38.168 144.785 38.168C144.295 38.168 143.884 38.2933 143.553 38.544C143.223 38.7947 142.975 39.1253 142.809 39.536C142.644 39.9413 142.561 40.3813 142.561 40.856V41.368C142.561 41.9013 142.641 42.3787 142.801 42.8C142.967 43.2213 143.212 43.5547 143.537 43.8C143.863 44.0453 144.273 44.168 144.769 44.168C145.265 44.168 145.673 44.048 145.993 43.808C146.313 43.568 146.508 43.2133 146.577 42.744H147.873C147.793 43.2507 147.612 43.688 147.329 44.056C147.047 44.4187 146.687 44.6987 146.249 44.896C145.812 45.0933 145.319 45.192 144.769 45.192ZM150.492 45V37.336H151.74V45H150.492ZM151.356 41.544C151.356 40.5733 151.45 39.768 151.636 39.128C151.823 38.4827 152.095 38.0027 152.452 37.688C152.815 37.368 153.255 37.208 153.772 37.208C153.943 37.208 154.098 37.2213 154.236 37.248C154.38 37.2693 154.524 37.304 154.668 37.352L154.588 38.584C154.439 38.536 154.276 38.496 154.1 38.464C153.924 38.4267 153.767 38.408 153.628 38.408C153.175 38.408 152.81 38.5387 152.532 38.8C152.255 39.056 152.052 39.4187 151.924 39.888C151.802 40.3573 151.74 40.9093 151.74 41.544H151.356ZM159.089 45.192C158.428 45.192 157.836 45.024 157.313 44.688C156.796 44.3467 156.385 43.8747 156.081 43.272C155.783 42.6693 155.633 41.976 155.633 41.192C155.633 40.3547 155.783 39.6347 156.081 39.032C156.38 38.4293 156.788 37.968 157.305 37.648C157.828 37.3227 158.423 37.16 159.089 37.16C159.671 37.16 160.167 37.2773 160.577 37.512C160.988 37.7467 161.319 38.064 161.569 38.464C161.82 38.864 161.993 39.3173 162.089 39.824C162.191 40.3253 162.22 40.8453 162.177 41.384H156.641V40.616H161.353L160.985 40.856C161.001 40.5413 160.983 40.2267 160.929 39.912C160.881 39.5973 160.788 39.3093 160.649 39.048C160.511 38.7813 160.316 38.568 160.065 38.408C159.815 38.248 159.495 38.168 159.105 38.168C158.615 38.168 158.204 38.2933 157.873 38.544C157.543 38.7947 157.295 39.1253 157.129 39.536C156.964 39.9413 156.881 40.3813 156.881 40.856V41.368C156.881 41.9013 156.961 42.3787 157.121 42.8C157.287 43.2213 157.532 43.5547 157.857 43.8C158.183 44.0453 158.593 44.168 159.089 44.168C159.585 44.168 159.993 44.048 160.313 43.808C160.633 43.568 160.828 43.2133 160.897 42.744H162.193C162.113 43.2507 161.932 43.688 161.649 44.056C161.367 44.4187 161.007 44.6987 160.569 44.896C160.132 45.0933 159.639 45.192 159.089 45.192ZM170.252 45V40.504C170.252 39.7733 170.076 39.2187 169.724 38.84C169.378 38.456 168.903 38.264 168.3 38.264C167.842 38.264 167.444 38.3893 167.108 38.64C166.772 38.8907 166.514 39.2507 166.332 39.72C166.151 40.184 166.06 40.7387 166.06 41.384H165.58C165.58 40.4933 165.698 39.7333 165.932 39.104C166.167 38.4747 166.508 37.9947 166.956 37.664C167.41 37.328 167.959 37.16 168.604 37.16C169.207 37.16 169.722 37.296 170.148 37.568C170.58 37.8347 170.911 38.2187 171.14 38.72C171.37 39.2213 171.484 39.816 171.484 40.504V45H170.252ZM164.812 45V37.352H165.884L166.06 39.112V45H164.812ZM176.98 45.192C176.564 45.192 176.191 45.112 175.86 44.952C175.53 44.792 175.268 44.552 175.076 44.232C174.884 43.912 174.788 43.512 174.788 43.032V35.224H176.02V43C176.02 43.7893 176.388 44.184 177.124 44.184C177.343 44.184 177.554 44.16 177.756 44.112C177.964 44.064 178.196 43.992 178.452 43.896L178.628 44.792C178.356 44.9093 178.084 45.0053 177.812 45.08C177.546 45.1547 177.268 45.192 176.98 45.192ZM173.556 38.216V37.352H178.436V38.216H173.556ZM187.513 45.192C186.772 45.192 186.153 45.088 185.657 44.88C185.161 44.6667 184.785 44.376 184.529 44.008C184.273 43.6347 184.137 43.208 184.121 42.728H185.321C185.348 43.2133 185.542 43.5787 185.905 43.824C186.273 44.064 186.772 44.184 187.401 44.184C187.732 44.184 188.036 44.1307 188.313 44.024C188.59 43.9173 188.812 43.7707 188.977 43.584C189.142 43.3973 189.225 43.1867 189.225 42.952C189.225 42.6533 189.116 42.4187 188.897 42.248C188.678 42.0773 188.329 41.928 187.849 41.8L186.361 41.32C185.716 41.1173 185.22 40.84 184.873 40.488C184.532 40.1307 184.361 39.704 184.361 39.208C184.361 38.5893 184.633 38.0933 185.177 37.72C185.721 37.3467 186.436 37.16 187.321 37.16C188.26 37.16 188.988 37.352 189.505 37.736C190.022 38.12 190.292 38.6 190.313 39.176H189.081C189.033 38.84 188.862 38.5867 188.569 38.416C188.276 38.24 187.86 38.152 187.321 38.152C186.804 38.152 186.398 38.2693 186.105 38.504C185.817 38.7333 185.673 38.9893 185.673 39.272C185.673 39.8 186.126 40.1893 187.033 40.44L188.553 40.952C189.209 41.1493 189.71 41.408 190.057 41.728C190.409 42.048 190.585 42.456 190.585 42.952C190.585 43.336 190.46 43.6987 190.209 44.04C189.958 44.3813 189.604 44.6587 189.145 44.872C188.686 45.0853 188.142 45.192 187.513 45.192ZM195.983 45.192C195.322 45.192 194.73 45.024 194.207 44.688C193.69 44.3467 193.279 43.8747 192.975 43.272C192.677 42.6693 192.527 41.976 192.527 41.192C192.527 40.3547 192.677 39.6347 192.975 39.032C193.274 38.4293 193.682 37.968 194.199 37.648C194.722 37.3227 195.317 37.16 195.983 37.16C196.565 37.16 197.061 37.2773 197.471 37.512C197.882 37.7467 198.213 38.064 198.463 38.464C198.714 38.864 198.887 39.3173 198.983 39.824C199.085 40.3253 199.114 40.8453 199.071 41.384H193.535V40.616H198.247L197.879 40.856C197.895 40.5413 197.877 40.2267 197.823 39.912C197.775 39.5973 197.682 39.3093 197.543 39.048C197.405 38.7813 197.21 38.568 196.959 38.408C196.709 38.248 196.389 38.168 195.999 38.168C195.509 38.168 195.098 38.2933 194.767 38.544C194.437 38.7947 194.189 39.1253 194.023 39.536C193.858 39.9413 193.775 40.3813 193.775 40.856V41.368C193.775 41.9013 193.855 42.3787 194.015 42.8C194.181 43.2213 194.426 43.5547 194.751 43.8C195.077 44.0453 195.487 44.168 195.983 44.168C196.479 44.168 196.887 44.048 197.207 43.808C197.527 43.568 197.722 43.2133 197.791 42.744H199.087C199.007 43.2507 198.826 43.688 198.543 44.056C198.261 44.4187 197.901 44.6987 197.463 44.896C197.026 45.0933 196.533 45.192 195.983 45.192ZM204.394 45.192C203.781 45.192 203.207 45.0267 202.674 44.696C202.146 44.3653 201.719 43.8987 201.394 43.296C201.069 42.6933 200.906 41.9813 200.906 41.16C200.906 40.3173 201.069 39.5973 201.394 39C201.719 38.4027 202.146 37.9467 202.674 37.632C203.207 37.3173 203.781 37.16 204.394 37.16C204.826 37.16 205.213 37.2267 205.554 37.36C205.901 37.488 206.202 37.6667 206.458 37.896C206.714 38.1253 206.925 38.3867 207.09 38.68C207.261 38.968 207.386 39.272 207.466 39.592L206.186 39.704C206.053 39.2613 205.829 38.912 205.514 38.656C205.205 38.3947 204.826 38.264 204.378 38.264C203.999 38.264 203.642 38.3733 203.306 38.592C202.975 38.8053 202.706 39.128 202.498 39.56C202.29 39.9867 202.186 40.52 202.186 41.16C202.186 41.752 202.279 42.2667 202.466 42.704C202.658 43.136 202.919 43.472 203.25 43.712C203.581 43.952 203.957 44.072 204.378 44.072C204.97 44.072 205.418 43.928 205.722 43.64C206.031 43.3467 206.186 42.9413 206.186 42.424H207.466C207.466 42.9573 207.341 43.432 207.09 43.848C206.839 44.264 206.482 44.592 206.018 44.832C205.559 45.072 205.018 45.192 204.394 45.192ZM212.468 45.192C212.052 45.192 211.679 45.112 211.348 44.952C211.017 44.792 210.756 44.552 210.564 44.232C210.372 43.912 210.276 43.512 210.276 43.032V35.224H211.508V43C211.508 43.7893 211.876 44.184 212.612 44.184C212.831 44.184 213.041 44.16 213.244 44.112C213.452 44.064 213.684 43.992 213.94 43.896L214.116 44.792C213.844 44.9093 213.572 45.0053 213.3 45.08C213.033 45.1547 212.756 45.192 212.468 45.192ZM209.044 38.216V37.352H213.924V38.216H209.044ZM216.996 35.544C216.74 35.544 216.537 35.472 216.388 35.328C216.238 35.1787 216.164 34.984 216.164 34.744C216.164 34.5093 216.238 34.3227 216.388 34.184C216.537 34.0453 216.74 33.976 216.996 33.976C217.252 33.976 217.454 34.0453 217.604 34.184C217.753 34.3227 217.828 34.5093 217.828 34.744C217.828 34.984 217.753 35.1787 217.604 35.328C217.454 35.472 217.252 35.544 216.996 35.544ZM216.372 45V37.336H217.62V45H216.372ZM223.985 45.192C223.297 45.192 222.684 45.04 222.145 44.736C221.612 44.432 221.191 43.9813 220.881 43.384C220.572 42.7867 220.417 42.0507 220.417 41.176C220.417 40.296 220.572 39.56 220.881 38.968C221.191 38.3707 221.612 37.92 222.145 37.616C222.684 37.312 223.297 37.16 223.985 37.16C224.668 37.16 225.276 37.312 225.809 37.616C226.348 37.92 226.769 38.3707 227.073 38.968C227.383 39.56 227.537 40.296 227.537 41.176C227.537 42.0507 227.383 42.7867 227.073 43.384C226.769 43.9813 226.348 44.432 225.809 44.736C225.276 45.04 224.668 45.192 223.985 45.192ZM223.953 44.104C224.449 44.104 224.871 43.9867 225.217 43.752C225.564 43.512 225.825 43.1733 226.001 42.736C226.183 42.2987 226.273 41.7787 226.273 41.176C226.273 40.264 226.084 39.5467 225.705 39.024C225.327 38.496 224.764 38.232 224.017 38.232C223.516 38.232 223.092 38.352 222.745 38.592C222.404 38.8267 222.143 39.1653 221.961 39.608C221.785 40.0453 221.697 40.568 221.697 41.176C221.697 42.0773 221.887 42.792 222.265 43.32C222.649 43.8427 223.212 44.104 223.953 44.104ZM235.567 45V40.504C235.567 39.7733 235.391 39.2187 235.039 38.84C234.693 38.456 234.218 38.264 233.615 38.264C233.157 38.264 232.759 38.3893 232.423 38.64C232.087 38.8907 231.829 39.2507 231.647 39.72C231.466 40.184 231.375 40.7387 231.375 41.384H230.895C230.895 40.4933 231.013 39.7333 231.247 39.104C231.482 38.4747 231.823 37.9947 232.271 37.664C232.725 37.328 233.274 37.16 233.919 37.16C234.522 37.16 235.037 37.296 235.463 37.568C235.895 37.8347 236.226 38.2187 236.455 38.72C236.685 39.2213 236.799 39.816 236.799 40.504V45H235.567ZM230.127 45V37.352H231.199L231.375 39.112V45H230.127ZM242.695 45.192C241.954 45.192 241.335 45.088 240.839 44.88C240.343 44.6667 239.967 44.376 239.711 44.008C239.455 43.6347 239.319 43.208 239.303 42.728H240.503C240.53 43.2133 240.725 43.5787 241.087 43.824C241.455 44.064 241.954 44.184 242.583 44.184C242.914 44.184 243.218 44.1307 243.495 44.024C243.773 43.9173 243.994 43.7707 244.159 43.584C244.325 43.3973 244.407 43.1867 244.407 42.952C244.407 42.6533 244.298 42.4187 244.079 42.248C243.861 42.0773 243.511 41.928 243.031 41.8L241.543 41.32C240.898 41.1173 240.402 40.84 240.055 40.488C239.714 40.1307 239.543 39.704 239.543 39.208C239.543 38.5893 239.815 38.0933 240.359 37.72C240.903 37.3467 241.618 37.16 242.503 37.16C243.442 37.16 244.17 37.352 244.687 37.736C245.205 38.12 245.474 38.6 245.495 39.176H244.263C244.215 38.84 244.045 38.5867 243.751 38.416C243.458 38.24 243.042 38.152 242.503 38.152C241.986 38.152 241.581 38.2693 241.287 38.504C240.999 38.7333 240.855 38.9893 240.855 39.272C240.855 39.8 241.309 40.1893 242.215 40.44L243.735 40.952C244.391 41.1493 244.893 41.408 245.239 41.728C245.591 42.048 245.767 42.456 245.767 42.952C245.767 43.336 245.642 43.6987 245.391 44.04C245.141 44.3813 244.786 44.6587 244.327 44.872C243.869 45.0853 243.325 45.192 242.695 45.192ZM33.352 65L33.192 63.32V60.04C33.192 59.352 33.0453 58.8587 32.752 58.56C32.4587 58.256 32.0187 58.104 31.432 58.104C31.1013 58.104 30.8 58.152 30.528 58.248C30.2613 58.344 30.048 58.4933 29.888 58.696C29.7333 58.8933 29.656 59.1493 29.656 59.464H28.264C28.264 58.9093 28.4 58.464 28.672 58.128C28.944 57.7867 29.3173 57.5413 29.792 57.392C30.272 57.2373 30.8187 57.16 31.432 57.16C32.0187 57.16 32.5387 57.2587 32.992 57.456C33.4453 57.6533 33.8 57.968 34.056 58.4C34.312 58.8267 34.44 59.384 34.44 60.072V65H33.352ZM30.744 65.192C30.1147 65.192 29.5947 65.08 29.184 64.856C28.7733 64.632 28.4667 64.3413 28.264 63.984C28.0613 63.6267 27.96 63.2507 27.96 62.856C27.96 62.3387 28.088 61.9173 28.344 61.592C28.6053 61.2667 28.96 61.0293 29.408 60.88C29.856 60.7253 30.36 60.648 30.92 60.648C31.32 60.648 31.72 60.688 32.12 60.768C32.5253 60.848 32.92 60.9573 33.304 61.096V61.88C32.984 61.752 32.6213 61.6507 32.216 61.576C31.816 61.5013 31.448 61.464 31.112 61.464C30.6 61.464 30.168 61.5707 29.816 61.784C29.464 61.992 29.288 62.3493 29.288 62.856C29.288 63.2293 29.4213 63.5493 29.688 63.816C29.96 64.0827 30.392 64.216 30.984 64.216C31.4 64.216 31.7733 64.12 32.104 63.928C32.44 63.7307 32.704 63.4853 32.896 63.192C33.0933 62.8987 33.192 62.6053 33.192 62.312H33.496C33.496 62.824 33.384 63.2987 33.16 63.736C32.9413 64.1733 32.6267 64.5253 32.216 64.792C31.8053 65.0587 31.3147 65.192 30.744 65.192ZM43.0285 65V60.504C43.0285 59.7733 42.8525 59.2187 42.5005 58.84C42.1538 58.456 41.6792 58.264 41.0765 58.264C40.6178 58.264 40.2205 58.3893 39.8845 58.64C39.5485 58.8907 39.2898 59.2507 39.1085 59.72C38.9272 60.184 38.8365 60.7387 38.8365 61.384H38.3565C38.3565 60.4933 38.4738 59.7333 38.7085 59.104C38.9432 58.4747 39.2845 57.9947 39.7325 57.664C40.1858 57.328 40.7352 57.16 41.3805 57.16C41.9832 57.16 42.4978 57.296 42.9245 57.568C43.3565 57.8347 43.6872 58.2187 43.9165 58.72C44.1458 59.2213 44.2605 59.816 44.2605 60.504V65H43.0285ZM37.5885 65V57.352H38.6605L38.8365 59.112V65H37.5885ZM50.1407 65.192C49.5221 65.192 48.9541 65.0267 48.4367 64.696C47.9194 64.36 47.5061 63.8907 47.1967 63.288C46.8874 62.68 46.7327 61.9653 46.7327 61.144C46.7327 60.328 46.8847 59.6213 47.1887 59.024C47.4927 58.4267 47.8954 57.968 48.3967 57.648C48.9034 57.3227 49.4581 57.16 50.0608 57.16C50.6208 57.16 51.1114 57.296 51.5328 57.568C51.9594 57.84 52.2901 58.232 52.5248 58.744C52.7594 59.256 52.8767 59.8747 52.8767 60.6H52.3967C52.3967 60.0933 52.2954 59.6667 52.0928 59.32C51.8954 58.9733 51.6368 58.712 51.3168 58.536C50.9968 58.3547 50.6528 58.264 50.2847 58.264C49.8687 58.264 49.4874 58.3813 49.1407 58.616C48.7994 58.8453 48.5247 59.176 48.3167 59.608C48.1141 60.0347 48.0127 60.5467 48.0127 61.144C48.0127 61.752 48.1141 62.2747 48.3167 62.712C48.5247 63.1493 48.7994 63.4853 49.1407 63.72C49.4874 63.9547 49.8687 64.072 50.2847 64.072C50.6314 64.072 50.9647 63.9813 51.2847 63.8C51.6101 63.6187 51.8767 63.3547 52.0848 63.008C52.2928 62.656 52.3967 62.232 52.3967 61.736H52.8767C52.8767 62.4773 52.7541 63.1067 52.5087 63.624C52.2687 64.136 51.9407 64.5253 51.5247 64.792C51.1141 65.0587 50.6528 65.192 50.1407 65.192ZM52.6048 65L52.3967 63.208V54.088H53.6448V65H52.6048ZM61.006 65V57.336H62.254V65H61.006ZM61.87 61.544C61.87 60.5733 61.9633 59.768 62.15 59.128C62.3367 58.4827 62.6087 58.0027 62.966 57.688C63.3287 57.368 63.7687 57.208 64.286 57.208C64.4567 57.208 64.6113 57.2213 64.75 57.248C64.894 57.2693 65.038 57.304 65.182 57.352L65.102 58.584C64.9527 58.536 64.79 58.496 64.614 58.464C64.438 58.4267 64.2807 58.408 64.142 58.408C63.6887 58.408 63.3233 58.5387 63.046 58.8C62.7687 59.056 62.566 59.4187 62.438 59.888C62.3153 60.3573 62.254 60.9093 62.254 61.544H61.87ZM69.6032 65.192C68.9419 65.192 68.3499 65.024 67.8272 64.688C67.3099 64.3467 66.8992 63.8747 66.5952 63.272C66.2966 62.6693 66.1472 61.976 66.1472 61.192C66.1472 60.3547 66.2966 59.6347 66.5952 59.032C66.8939 58.4293 67.3019 57.968 67.8192 57.648C68.3419 57.3227 68.9366 57.16 69.6032 57.16C70.1846 57.16 70.6806 57.2773 71.0912 57.512C71.5019 57.7467 71.8326 58.064 72.0832 58.464C72.3339 58.864 72.5072 59.3173 72.6032 59.824C72.7046 60.3253 72.7339 60.8453 72.6912 61.384H67.1552V60.616H71.8672L71.4992 60.856C71.5152 60.5413 71.4966 60.2267 71.4432 59.912C71.3952 59.5973 71.3019 59.3093 71.1632 59.048C71.0246 58.7813 70.8299 58.568 70.5792 58.408C70.3286 58.248 70.0086 58.168 69.6192 58.168C69.1286 58.168 68.7179 58.2933 68.3872 58.544C68.0566 58.7947 67.8086 59.1253 67.6432 59.536C67.4779 59.9413 67.3952 60.3813 67.3952 60.856V61.368C67.3952 61.9013 67.4752 62.3787 67.6352 62.8C67.8006 63.2213 68.0459 63.5547 68.3712 63.8C68.6966 64.0453 69.1072 64.168 69.6032 64.168C70.0992 64.168 70.5072 64.048 70.8272 63.808C71.1472 63.568 71.3419 63.2133 71.4112 62.744H72.7072C72.6272 63.2507 72.4459 63.688 72.1632 64.056C71.8806 64.4187 71.5206 64.6987 71.0832 64.896C70.6459 65.0933 70.1526 65.192 69.6032 65.192ZM80.062 65L79.902 63.32V60.04C79.902 59.352 79.7553 58.8587 79.462 58.56C79.1687 58.256 78.7287 58.104 78.142 58.104C77.8113 58.104 77.51 58.152 77.238 58.248C76.9713 58.344 76.758 58.4933 76.598 58.696C76.4433 58.8933 76.366 59.1493 76.366 59.464H74.974C74.974 58.9093 75.11 58.464 75.382 58.128C75.654 57.7867 76.0273 57.5413 76.502 57.392C76.982 57.2373 77.5287 57.16 78.142 57.16C78.7287 57.16 79.2487 57.2587 79.702 57.456C80.1553 57.6533 80.51 57.968 80.766 58.4C81.022 58.8267 81.15 59.384 81.15 60.072V65H80.062ZM77.454 65.192C76.8247 65.192 76.3047 65.08 75.894 64.856C75.4833 64.632 75.1767 64.3413 74.974 63.984C74.7713 63.6267 74.67 63.2507 74.67 62.856C74.67 62.3387 74.798 61.9173 75.054 61.592C75.3153 61.2667 75.67 61.0293 76.118 60.88C76.566 60.7253 77.07 60.648 77.63 60.648C78.03 60.648 78.43 60.688 78.83 60.768C79.2353 60.848 79.63 60.9573 80.014 61.096V61.88C79.694 61.752 79.3313 61.6507 78.926 61.576C78.526 61.5013 78.158 61.464 77.822 61.464C77.31 61.464 76.878 61.5707 76.526 61.784C76.174 61.992 75.998 62.3493 75.998 62.856C75.998 63.2293 76.1313 63.5493 76.398 63.816C76.67 64.0827 77.102 64.216 77.694 64.216C78.11 64.216 78.4833 64.12 78.814 63.928C79.15 63.7307 79.414 63.4853 79.606 63.192C79.8033 62.8987 79.902 62.6053 79.902 62.312H80.206C80.206 62.824 80.094 63.2987 79.87 63.736C79.6513 64.1733 79.3367 64.5253 78.926 64.792C78.5153 65.0587 78.0247 65.192 77.454 65.192ZM87.0345 65.192C86.4158 65.192 85.8478 65.0267 85.3305 64.696C84.8132 64.36 84.3998 63.8907 84.0905 63.288C83.7812 62.68 83.6265 61.9653 83.6265 61.144C83.6265 60.328 83.7785 59.6213 84.0825 59.024C84.3865 58.4267 84.7892 57.968 85.2905 57.648C85.7972 57.3227 86.3518 57.16 86.9545 57.16C87.5145 57.16 88.0052 57.296 88.4265 57.568C88.8532 57.84 89.1838 58.232 89.4185 58.744C89.6532 59.256 89.7705 59.8747 89.7705 60.6H89.2905C89.2905 60.0933 89.1892 59.6667 88.9865 59.32C88.7892 58.9733 88.5305 58.712 88.2105 58.536C87.8905 58.3547 87.5465 58.264 87.1785 58.264C86.7625 58.264 86.3812 58.3813 86.0345 58.616C85.6932 58.8453 85.4185 59.176 85.2105 59.608C85.0078 60.0347 84.9065 60.5467 84.9065 61.144C84.9065 61.752 85.0078 62.2747 85.2105 62.712C85.4185 63.1493 85.6932 63.4853 86.0345 63.72C86.3812 63.9547 86.7625 64.072 87.1785 64.072C87.5252 64.072 87.8585 63.9813 88.1785 63.8C88.5038 63.6187 88.7705 63.3547 88.9785 63.008C89.1865 62.656 89.2905 62.232 89.2905 61.736H89.7705C89.7705 62.4773 89.6478 63.1067 89.4025 63.624C89.1625 64.136 88.8345 64.5253 88.4185 64.792C88.0078 65.0587 87.5465 65.192 87.0345 65.192ZM89.4985 65L89.2905 63.208V54.088H90.5385V65H89.4985ZM101.372 65.192C100.812 65.192 100.324 65.064 99.9078 64.808C99.4971 64.552 99.1798 64.1787 98.9558 63.688C98.7318 63.192 98.6198 62.5893 98.6198 61.88H99.1478C99.1478 62.3547 99.2464 62.7547 99.4438 63.08C99.6411 63.4053 99.8971 63.6533 100.212 63.824C100.532 63.9893 100.87 64.072 101.228 64.072C101.612 64.072 101.98 63.9627 102.332 63.744C102.684 63.52 102.972 63.192 103.196 62.76C103.42 62.328 103.532 61.7947 103.532 61.16C103.532 60.552 103.428 60.032 103.22 59.6C103.017 59.168 102.742 58.8373 102.396 58.608C102.049 58.3787 101.665 58.264 101.244 58.264C100.881 58.264 100.54 58.352 100.22 58.528C99.8998 58.704 99.6411 58.9627 99.4438 59.304C99.2464 59.64 99.1478 60.056 99.1478 60.552H98.6198C98.6198 59.8107 98.7424 59.1893 98.9878 58.688C99.2331 58.1813 99.5664 57.8 99.9878 57.544C100.409 57.288 100.881 57.16 101.404 57.16C102.001 57.16 102.558 57.32 103.076 57.64C103.593 57.96 104.012 58.4187 104.332 59.016C104.652 59.6133 104.812 60.328 104.812 61.16C104.812 62.0027 104.649 62.7253 104.324 63.328C104.004 63.9307 103.582 64.392 103.06 64.712C102.537 65.032 101.974 65.192 101.372 65.192ZM97.8998 68.76V57.352H98.9398L99.1478 59.144V68.76H97.8998ZM112.155 65L111.995 63.32V60.04C111.995 59.352 111.848 58.8587 111.555 58.56C111.262 58.256 110.822 58.104 110.235 58.104C109.904 58.104 109.603 58.152 109.331 58.248C109.064 58.344 108.851 58.4933 108.691 58.696C108.536 58.8933 108.459 59.1493 108.459 59.464H107.067C107.067 58.9093 107.203 58.464 107.475 58.128C107.747 57.7867 108.12 57.5413 108.595 57.392C109.075 57.2373 109.622 57.16 110.235 57.16C110.822 57.16 111.342 57.2587 111.795 57.456C112.248 57.6533 112.603 57.968 112.859 58.4C113.115 58.8267 113.243 59.384 113.243 60.072V65H112.155ZM109.547 65.192C108.918 65.192 108.398 65.08 107.987 64.856C107.576 64.632 107.27 64.3413 107.067 63.984C106.864 63.6267 106.763 63.2507 106.763 62.856C106.763 62.3387 106.891 61.9173 107.147 61.592C107.408 61.2667 107.763 61.0293 108.211 60.88C108.659 60.7253 109.163 60.648 109.723 60.648C110.123 60.648 110.523 60.688 110.923 60.768C111.328 60.848 111.723 60.9573 112.107 61.096V61.88C111.787 61.752 111.424 61.6507 111.019 61.576C110.619 61.5013 110.251 61.464 109.915 61.464C109.403 61.464 108.971 61.5707 108.619 61.784C108.267 61.992 108.091 62.3493 108.091 62.856C108.091 63.2293 108.224 63.5493 108.491 63.816C108.763 64.0827 109.195 64.216 109.787 64.216C110.203 64.216 110.576 64.12 110.907 63.928C111.243 63.7307 111.507 63.4853 111.699 63.192C111.896 62.8987 111.995 62.6053 111.995 62.312H112.299C112.299 62.824 112.187 63.2987 111.963 63.736C111.744 64.1733 111.43 64.5253 111.019 64.792C110.608 65.0587 110.118 65.192 109.547 65.192ZM116.392 65V57.336H117.64V65H116.392ZM117.256 61.544C117.256 60.5733 117.349 59.768 117.536 59.128C117.722 58.4827 117.994 58.0027 118.352 57.688C118.714 57.368 119.154 57.208 119.672 57.208C119.842 57.208 119.997 57.2213 120.136 57.248C120.28 57.2693 120.424 57.304 120.568 57.352L120.488 58.584C120.338 58.536 120.176 58.496 120 58.464C119.824 58.4267 119.666 58.408 119.528 58.408C119.074 58.408 118.709 58.5387 118.432 58.8C118.154 59.056 117.952 59.4187 117.824 59.888C117.701 60.3573 117.64 60.9093 117.64 61.544H117.256ZM127.069 65L126.909 63.32V60.04C126.909 59.352 126.762 58.8587 126.469 58.56C126.176 58.256 125.736 58.104 125.149 58.104C124.818 58.104 124.517 58.152 124.245 58.248C123.978 58.344 123.765 58.4933 123.605 58.696C123.45 58.8933 123.373 59.1493 123.373 59.464H121.981C121.981 58.9093 122.117 58.464 122.389 58.128C122.661 57.7867 123.034 57.5413 123.509 57.392C123.989 57.2373 124.536 57.16 125.149 57.16C125.736 57.16 126.256 57.2587 126.709 57.456C127.162 57.6533 127.517 57.968 127.773 58.4C128.029 58.8267 128.157 59.384 128.157 60.072V65H127.069ZM124.461 65.192C123.832 65.192 123.312 65.08 122.901 64.856C122.49 64.632 122.184 64.3413 121.981 63.984C121.778 63.6267 121.677 63.2507 121.677 62.856C121.677 62.3387 121.805 61.9173 122.061 61.592C122.322 61.2667 122.677 61.0293 123.125 60.88C123.573 60.7253 124.077 60.648 124.637 60.648C125.037 60.648 125.437 60.688 125.837 60.768C126.242 60.848 126.637 60.9573 127.021 61.096V61.88C126.701 61.752 126.338 61.6507 125.933 61.576C125.533 61.5013 125.165 61.464 124.829 61.464C124.317 61.464 123.885 61.5707 123.533 61.784C123.181 61.992 123.005 62.3493 123.005 62.856C123.005 63.2293 123.138 63.5493 123.405 63.816C123.677 64.0827 124.109 64.216 124.701 64.216C125.117 64.216 125.49 64.12 125.821 63.928C126.157 63.7307 126.421 63.4853 126.613 63.192C126.81 62.8987 126.909 62.6053 126.909 62.312H127.213C127.213 62.824 127.101 63.2987 126.877 63.736C126.658 64.1733 126.344 64.5253 125.933 64.792C125.522 65.0587 125.032 65.192 124.461 65.192ZM134.009 68.936C133.225 68.936 132.545 68.824 131.969 68.6C131.393 68.3813 130.945 68.0853 130.625 67.712C130.311 67.344 130.153 66.936 130.153 66.488C130.153 65.896 130.369 65.4427 130.801 65.128C131.239 64.8187 131.801 64.664 132.489 64.664L133.177 65.096C132.601 65.096 132.156 65.216 131.841 65.456C131.527 65.696 131.369 66.024 131.369 66.44C131.369 66.856 131.593 67.208 132.041 67.496C132.489 67.784 133.145 67.928 134.009 67.928C134.649 67.928 135.209 67.8347 135.689 67.648C136.175 67.4667 136.551 67.2267 136.817 66.928C137.089 66.6347 137.225 66.3173 137.225 65.976C137.225 65.736 137.137 65.528 136.961 65.352C136.785 65.1813 136.516 65.096 136.153 65.096H133.177C132.66 65.096 132.212 65.0187 131.833 64.864C131.46 64.704 131.172 64.496 130.969 64.24C130.767 63.984 130.665 63.704 130.665 63.4C130.665 63.08 130.756 62.808 130.937 62.584C131.119 62.36 131.353 62.1893 131.641 62.072C131.935 61.9547 132.249 61.896 132.585 61.896L132.825 62.36C132.665 62.36 132.503 62.3973 132.337 62.472C132.177 62.5413 132.041 62.648 131.929 62.792C131.823 62.9307 131.769 63.1067 131.769 63.32C131.769 63.5653 131.871 63.7707 132.073 63.936C132.276 64.1013 132.644 64.184 133.177 64.184H136.153C136.873 64.184 137.439 64.336 137.849 64.64C138.265 64.944 138.473 65.368 138.473 65.912C138.473 66.4133 138.295 66.8933 137.937 67.352C137.58 67.816 137.068 68.1947 136.401 68.488C135.735 68.7867 134.937 68.936 134.009 68.936ZM134.233 62.76C133.647 62.76 133.116 62.6427 132.641 62.408C132.172 62.1733 131.799 61.8453 131.521 61.424C131.249 61.0027 131.113 60.5147 131.113 59.96C131.113 59.4 131.249 58.9093 131.521 58.488C131.799 58.0667 132.172 57.7413 132.641 57.512C133.116 57.2773 133.647 57.16 134.233 57.16C134.804 57.16 135.321 57.2773 135.785 57.512C136.255 57.7413 136.628 58.0667 136.905 58.488C137.183 58.9093 137.321 59.4 137.321 59.96C137.321 60.5147 137.183 61.0027 136.905 61.424C136.628 61.8453 136.255 62.1733 135.785 62.408C135.321 62.6427 134.804 62.76 134.233 62.76ZM134.233 61.864C134.82 61.864 135.276 61.6827 135.601 61.32C135.927 60.9573 136.089 60.504 136.089 59.96C136.089 59.4 135.927 58.9467 135.601 58.6C135.276 58.248 134.82 58.072 134.233 58.072C133.652 58.072 133.193 58.248 132.857 58.6C132.527 58.9467 132.361 59.4 132.361 59.96C132.361 60.504 132.527 60.9573 132.857 61.32C133.193 61.6827 133.652 61.864 134.233 61.864ZM136.745 58.376L136.153 58.136C136.153 57.688 136.241 57.296 136.417 56.96C136.593 56.6187 136.844 56.3547 137.169 56.168C137.495 55.976 137.881 55.88 138.329 55.88L138.233 57.112C137.753 57.112 137.385 57.216 137.129 57.424C136.873 57.6267 136.745 57.944 136.745 58.376ZM140.497 65V57.336H141.745V65H140.497ZM141.361 61.544C141.361 60.5733 141.454 59.768 141.641 59.128C141.827 58.4827 142.099 58.0027 142.457 57.688C142.819 57.368 143.259 57.208 143.777 57.208C143.947 57.208 144.102 57.2213 144.241 57.248C144.385 57.2693 144.529 57.304 144.673 57.352L144.593 58.584C144.443 58.536 144.281 58.496 144.105 58.464C143.929 58.4267 143.771 58.408 143.633 58.408C143.179 58.408 142.814 58.5387 142.537 58.8C142.259 59.056 142.057 59.4187 141.929 59.888C141.806 60.3573 141.745 60.9093 141.745 61.544H141.361ZM151.174 65L151.014 63.32V60.04C151.014 59.352 150.867 58.8587 150.574 58.56C150.281 58.256 149.841 58.104 149.254 58.104C148.923 58.104 148.622 58.152 148.35 58.248C148.083 58.344 147.87 58.4933 147.71 58.696C147.555 58.8933 147.478 59.1493 147.478 59.464H146.086C146.086 58.9093 146.222 58.464 146.494 58.128C146.766 57.7867 147.139 57.5413 147.614 57.392C148.094 57.2373 148.641 57.16 149.254 57.16C149.841 57.16 150.361 57.2587 150.814 57.456C151.267 57.6533 151.622 57.968 151.878 58.4C152.134 58.8267 152.262 59.384 152.262 60.072V65H151.174ZM148.566 65.192C147.937 65.192 147.417 65.08 147.006 64.856C146.595 64.632 146.289 64.3413 146.086 63.984C145.883 63.6267 145.782 63.2507 145.782 62.856C145.782 62.3387 145.91 61.9173 146.166 61.592C146.427 61.2667 146.782 61.0293 147.23 60.88C147.678 60.7253 148.182 60.648 148.742 60.648C149.142 60.648 149.542 60.688 149.942 60.768C150.347 60.848 150.742 60.9573 151.126 61.096V61.88C150.806 61.752 150.443 61.6507 150.038 61.576C149.638 61.5013 149.27 61.464 148.934 61.464C148.422 61.464 147.99 61.5707 147.638 61.784C147.286 61.992 147.11 62.3493 147.11 62.856C147.11 63.2293 147.243 63.5493 147.51 63.816C147.782 64.0827 148.214 64.216 148.806 64.216C149.222 64.216 149.595 64.12 149.926 63.928C150.262 63.7307 150.526 63.4853 150.718 63.192C150.915 62.8987 151.014 62.6053 151.014 62.312H151.318C151.318 62.824 151.206 63.2987 150.982 63.736C150.763 64.1733 150.449 64.5253 150.038 64.792C149.627 65.0587 149.137 65.192 148.566 65.192ZM158.882 65.192C158.322 65.192 157.834 65.064 157.418 64.808C157.008 64.552 156.69 64.1787 156.466 63.688C156.242 63.192 156.13 62.5893 156.13 61.88H156.658C156.658 62.3547 156.757 62.7547 156.954 63.08C157.152 63.4053 157.408 63.6533 157.722 63.824C158.042 63.9893 158.381 64.072 158.738 64.072C159.122 64.072 159.49 63.9627 159.842 63.744C160.194 63.52 160.482 63.192 160.706 62.76C160.93 62.328 161.042 61.7947 161.042 61.16C161.042 60.552 160.938 60.032 160.73 59.6C160.528 59.168 160.253 58.8373 159.906 58.608C159.56 58.3787 159.176 58.264 158.754 58.264C158.392 58.264 158.05 58.352 157.73 58.528C157.41 58.704 157.152 58.9627 156.954 59.304C156.757 59.64 156.658 60.056 156.658 60.552H156.13C156.13 59.8107 156.253 59.1893 156.498 58.688C156.744 58.1813 157.077 57.8 157.498 57.544C157.92 57.288 158.392 57.16 158.914 57.16C159.512 57.16 160.069 57.32 160.586 57.64C161.104 57.96 161.522 58.4187 161.842 59.016C162.162 59.6133 162.322 60.328 162.322 61.16C162.322 62.0027 162.16 62.7253 161.834 63.328C161.514 63.9307 161.093 64.392 160.57 64.712C160.048 65.032 159.485 65.192 158.882 65.192ZM155.41 68.76V57.352H156.45L156.658 59.144V68.76H155.41ZM170.37 65V60.504C170.37 59.7733 170.194 59.2187 169.842 58.84C169.495 58.456 169.02 58.264 168.418 58.264C167.959 58.264 167.562 58.3893 167.226 58.64C166.89 58.8907 166.631 59.2507 166.45 59.72C166.268 60.184 166.178 60.7387 166.178 61.384H165.698C165.698 60.4933 165.815 59.7333 166.05 59.104C166.284 58.4747 166.626 57.9947 167.074 57.664C167.527 57.328 168.076 57.16 168.722 57.16C169.324 57.16 169.839 57.296 170.266 57.568C170.698 57.8347 171.028 58.2187 171.258 58.72C171.487 59.2213 171.602 59.816 171.602 60.504V65H170.37ZM164.93 65V54.088H166.178V65H164.93ZM177.498 65.192C176.757 65.192 176.138 65.088 175.642 64.88C175.146 64.6667 174.77 64.376 174.514 64.008C174.258 63.6347 174.122 63.208 174.106 62.728H175.306C175.333 63.2133 175.527 63.5787 175.89 63.824C176.258 64.064 176.757 64.184 177.386 64.184C177.717 64.184 178.021 64.1307 178.298 64.024C178.575 63.9173 178.797 63.7707 178.962 63.584C179.127 63.3973 179.21 63.1867 179.21 62.952C179.21 62.6533 179.101 62.4187 178.882 62.248C178.663 62.0773 178.314 61.928 177.834 61.8L176.346 61.32C175.701 61.1173 175.205 60.84 174.858 60.488C174.517 60.1307 174.346 59.704 174.346 59.208C174.346 58.5893 174.618 58.0933 175.162 57.72C175.706 57.3467 176.421 57.16 177.306 57.16C178.245 57.16 178.973 57.352 179.49 57.736C180.007 58.12 180.277 58.6 180.298 59.176H179.066C179.018 58.84 178.847 58.5867 178.554 58.416C178.261 58.24 177.845 58.152 177.306 58.152C176.789 58.152 176.383 58.2693 176.09 58.504C175.802 58.7333 175.658 58.9893 175.658 59.272C175.658 59.8 176.111 60.1893 177.018 60.44L178.538 60.952C179.194 61.1493 179.695 61.408 180.042 61.728C180.394 62.048 180.57 62.456 180.57 62.952C180.57 63.336 180.445 63.6987 180.194 64.04C179.943 64.3813 179.589 64.6587 179.13 64.872C178.671 65.0853 178.127 65.192 177.498 65.192ZM189.621 65.192C189.205 65.192 188.832 65.112 188.501 64.952C188.17 64.792 187.909 64.552 187.717 64.232C187.525 63.912 187.429 63.512 187.429 63.032V55.224H188.661V63C188.661 63.7893 189.029 64.184 189.765 64.184C189.984 64.184 190.194 64.16 190.397 64.112C190.605 64.064 190.837 63.992 191.093 63.896L191.269 64.792C190.997 64.9093 190.725 65.0053 190.453 65.08C190.186 65.1547 189.909 65.192 189.621 65.192ZM186.197 58.216V57.352H191.077V58.216H186.197ZM198.885 65V60.504C198.885 59.7733 198.709 59.2187 198.357 58.84C198.01 58.456 197.535 58.264 196.933 58.264C196.474 58.264 196.077 58.3893 195.741 58.64C195.405 58.8907 195.146 59.2507 194.965 59.72C194.783 60.184 194.693 60.7387 194.693 61.384H194.213C194.213 60.4933 194.33 59.7333 194.565 59.104C194.799 58.4747 195.141 57.9947 195.589 57.664C196.042 57.328 196.591 57.16 197.237 57.16C197.839 57.16 198.354 57.296 198.781 57.568C199.213 57.8347 199.543 58.2187 199.773 58.72C200.002 59.2213 200.117 59.816 200.117 60.504V65H198.885ZM193.445 65V54.088H194.693V65H193.445ZM207.997 65L207.837 63.32V60.04C207.837 59.352 207.69 58.8587 207.397 58.56C207.104 58.256 206.664 58.104 206.077 58.104C205.746 58.104 205.445 58.152 205.173 58.248C204.906 58.344 204.693 58.4933 204.533 58.696C204.378 58.8933 204.301 59.1493 204.301 59.464H202.909C202.909 58.9093 203.045 58.464 203.317 58.128C203.589 57.7867 203.962 57.5413 204.437 57.392C204.917 57.2373 205.464 57.16 206.077 57.16C206.664 57.16 207.184 57.2587 207.637 57.456C208.09 57.6533 208.445 57.968 208.701 58.4C208.957 58.8267 209.085 59.384 209.085 60.072V65H207.997ZM205.389 65.192C204.76 65.192 204.24 65.08 203.829 64.856C203.418 64.632 203.112 64.3413 202.909 63.984C202.706 63.6267 202.605 63.2507 202.605 62.856C202.605 62.3387 202.733 61.9173 202.989 61.592C203.25 61.2667 203.605 61.0293 204.053 60.88C204.501 60.7253 205.005 60.648 205.565 60.648C205.965 60.648 206.365 60.688 206.765 60.768C207.17 60.848 207.565 60.9573 207.949 61.096V61.88C207.629 61.752 207.266 61.6507 206.861 61.576C206.461 61.5013 206.093 61.464 205.757 61.464C205.245 61.464 204.813 61.5707 204.461 61.784C204.109 61.992 203.933 62.3493 203.933 62.856C203.933 63.2293 204.066 63.5493 204.333 63.816C204.605 64.0827 205.037 64.216 205.629 64.216C206.045 64.216 206.418 64.12 206.749 63.928C207.085 63.7307 207.349 63.4853 207.541 63.192C207.738 62.8987 207.837 62.6053 207.837 62.312H208.141C208.141 62.824 208.029 63.2987 207.805 63.736C207.586 64.1733 207.272 64.5253 206.861 64.792C206.45 65.0587 205.96 65.192 205.389 65.192ZM214.585 65.192C214.169 65.192 213.796 65.112 213.465 64.952C213.135 64.792 212.873 64.552 212.681 64.232C212.489 63.912 212.393 63.512 212.393 63.032V55.224H213.625V63C213.625 63.7893 213.993 64.184 214.729 64.184C214.948 64.184 215.159 64.16 215.361 64.112C215.569 64.064 215.801 63.992 216.057 63.896L216.233 64.792C215.961 64.9093 215.689 65.0053 215.417 65.08C215.151 65.1547 214.873 65.192 214.585 65.192ZM211.161 58.216V57.352H216.041V58.216H211.161ZM27.352 77.352H28.744L31.24 83.912H30.952L32.888 77.352H34.168L31.288 86.536C31.048 87.304 30.728 87.896 30.328 88.312C29.928 88.728 29.416 88.936 28.792 88.936C28.456 88.936 28.136 88.888 27.832 88.792C27.5333 88.696 27.224 88.5573 26.904 88.376V87.224C27.1867 87.448 27.4587 87.608 27.72 87.704C27.9867 87.8 28.264 87.848 28.552 87.848C28.872 87.848 29.1387 87.7467 29.352 87.544C29.5707 87.3413 29.752 87.08 29.896 86.76C30.04 86.4453 30.1627 86.1147 30.264 85.768L30.488 85L27.352 77.352ZM38.9971 85.192C38.3091 85.192 37.6958 85.04 37.1571 84.736C36.6238 84.432 36.2025 83.9813 35.8931 83.384C35.5838 82.7867 35.4291 82.0507 35.4291 81.176C35.4291 80.296 35.5838 79.56 35.8931 78.968C36.2025 78.3707 36.6238 77.92 37.1571 77.616C37.6958 77.312 38.3091 77.16 38.9971 77.16C39.6798 77.16 40.2878 77.312 40.8211 77.616C41.3598 77.92 41.7811 78.3707 42.0851 78.968C42.3945 79.56 42.5491 80.296 42.5491 81.176C42.5491 82.0507 42.3945 82.7867 42.0851 83.384C41.7811 83.9813 41.3598 84.432 40.8211 84.736C40.2878 85.04 39.6798 85.192 38.9971 85.192ZM38.9651 84.104C39.4611 84.104 39.8825 83.9867 40.2291 83.752C40.5758 83.512 40.8371 83.1733 41.0131 82.736C41.1945 82.2987 41.2851 81.7787 41.2851 81.176C41.2851 80.264 41.0958 79.5467 40.7171 79.024C40.3385 78.496 39.7758 78.232 39.0291 78.232C38.5278 78.232 38.1038 78.352 37.7571 78.592C37.4158 78.8267 37.1545 79.1653 36.9731 79.608C36.7971 80.0453 36.7091 80.568 36.7091 81.176C36.7091 82.0773 36.8985 82.792 37.2771 83.32C37.6611 83.8427 38.2238 84.104 38.9651 84.104ZM50.3391 77.336H51.5871V85H50.3391V77.336ZM44.9151 77.336H46.1631V82.104C46.1631 82.744 46.3178 83.2293 46.6271 83.56C46.9418 83.8907 47.3898 84.056 47.9711 84.056C48.4511 84.056 48.8671 83.928 49.2191 83.672C49.5765 83.416 49.8511 83.064 50.0431 82.616C50.2405 82.1627 50.3391 81.6453 50.3391 81.064H50.8031C50.8031 81.9227 50.6778 82.656 50.4271 83.264C50.1818 83.872 49.8325 84.3387 49.3791 84.664C48.9311 84.984 48.4031 85.144 47.7951 85.144C47.2191 85.144 46.7151 85.0373 46.2831 84.824C45.8511 84.6107 45.5151 84.288 45.2751 83.856C45.0351 83.4187 44.9151 82.8667 44.9151 82.2V77.336ZM63.6795 85L63.5195 83.32V80.04C63.5195 79.352 63.3728 78.8587 63.0795 78.56C62.7862 78.256 62.3462 78.104 61.7595 78.104C61.4288 78.104 61.1275 78.152 60.8555 78.248C60.5888 78.344 60.3755 78.4933 60.2155 78.696C60.0608 78.8933 59.9835 79.1493 59.9835 79.464H58.5915C58.5915 78.9093 58.7275 78.464 58.9995 78.128C59.2715 77.7867 59.6448 77.5413 60.1195 77.392C60.5995 77.2373 61.1462 77.16 61.7595 77.16C62.3462 77.16 62.8662 77.2587 63.3195 77.456C63.7728 77.6533 64.1275 77.968 64.3835 78.4C64.6395 78.8267 64.7675 79.384 64.7675 80.072V85H63.6795ZM61.0715 85.192C60.4422 85.192 59.9222 85.08 59.5115 84.856C59.1008 84.632 58.7942 84.3413 58.5915 83.984C58.3888 83.6267 58.2875 83.2507 58.2875 82.856C58.2875 82.3387 58.4155 81.9173 58.6715 81.592C58.9328 81.2667 59.2875 81.0293 59.7355 80.88C60.1835 80.7253 60.6875 80.648 61.2475 80.648C61.6475 80.648 62.0475 80.688 62.4475 80.768C62.8528 80.848 63.2475 80.9573 63.6315 81.096V81.88C63.3115 81.752 62.9488 81.6507 62.5435 81.576C62.1435 81.5013 61.7755 81.464 61.4395 81.464C60.9275 81.464 60.4955 81.5707 60.1435 81.784C59.7915 81.992 59.6155 82.3493 59.6155 82.856C59.6155 83.2293 59.7488 83.5493 60.0155 83.816C60.2875 84.0827 60.7195 84.216 61.3115 84.216C61.7275 84.216 62.1008 84.12 62.4315 83.928C62.7675 83.7307 63.0315 83.4853 63.2235 83.192C63.4208 82.8987 63.5195 82.6053 63.5195 82.312H63.8235C63.8235 82.824 63.7115 83.2987 63.4875 83.736C63.2688 84.1733 62.9542 84.5253 62.5435 84.792C62.1328 85.0587 61.6422 85.192 61.0715 85.192ZM67.916 85V77.336H69.164V85H67.916ZM68.78 81.544C68.78 80.5733 68.8733 79.768 69.06 79.128C69.2467 78.4827 69.5187 78.0027 69.876 77.688C70.2387 77.368 70.6787 77.208 71.196 77.208C71.3667 77.208 71.5213 77.2213 71.66 77.248C71.804 77.2693 71.948 77.304 72.092 77.352L72.012 78.584C71.8627 78.536 71.7 78.496 71.524 78.464C71.348 78.4267 71.1907 78.408 71.052 78.408C70.5987 78.408 70.2333 78.5387 69.956 78.8C69.6787 79.056 69.476 79.4187 69.348 79.888C69.2253 80.3573 69.164 80.9093 69.164 81.544H68.78ZM76.5132 85.192C75.8519 85.192 75.2599 85.024 74.7372 84.688C74.2199 84.3467 73.8092 83.8747 73.5052 83.272C73.2066 82.6693 73.0572 81.976 73.0572 81.192C73.0572 80.3547 73.2066 79.6347 73.5052 79.032C73.8039 78.4293 74.2119 77.968 74.7292 77.648C75.2519 77.3227 75.8466 77.16 76.5132 77.16C77.0946 77.16 77.5906 77.2773 78.0012 77.512C78.4119 77.7467 78.7426 78.064 78.9932 78.464C79.2439 78.864 79.4172 79.3173 79.5132 79.824C79.6146 80.3253 79.6439 80.8453 79.6012 81.384H74.0652V80.616H78.7772L78.4092 80.856C78.4252 80.5413 78.4066 80.2267 78.3532 79.912C78.3052 79.5973 78.2119 79.3093 78.0732 79.048C77.9346 78.7813 77.7399 78.568 77.4892 78.408C77.2386 78.248 76.9186 78.168 76.5292 78.168C76.0386 78.168 75.6279 78.2933 75.2972 78.544C74.9666 78.7947 74.7186 79.1253 74.5532 79.536C74.3879 79.9413 74.3052 80.3813 74.3052 80.856V81.368C74.3052 81.9013 74.3852 82.3787 74.5452 82.8C74.7106 83.2213 74.9559 83.5547 75.2812 83.8C75.6066 84.0453 76.0172 84.168 76.5132 84.168C77.0092 84.168 77.4172 84.048 77.7372 83.808C78.0572 83.568 78.2519 83.2133 78.3212 82.744H79.6172C79.5372 83.2507 79.3559 83.688 79.0732 84.056C78.7906 84.4187 78.4306 84.6987 77.9932 84.896C77.5559 85.0933 77.0626 85.192 76.5132 85.192ZM86.8969 75.544C86.6409 75.544 86.4382 75.472 86.2889 75.328C86.1395 75.1787 86.0649 74.984 86.0649 74.744C86.0649 74.5093 86.1395 74.3227 86.2889 74.184C86.4382 74.0453 86.6409 73.976 86.8969 73.976C87.1529 73.976 87.3555 74.0453 87.5049 74.184C87.6542 74.3227 87.7289 74.5093 87.7289 74.744C87.7289 74.984 87.6542 75.1787 87.5049 75.328C87.3555 75.472 87.1529 75.544 86.8969 75.544ZM86.2729 85V77.336H87.5209V85H86.2729ZM96.5585 85V80.504C96.5585 79.7733 96.3825 79.2187 96.0305 78.84C95.6838 78.456 95.2092 78.264 94.6065 78.264C94.1478 78.264 93.7505 78.3893 93.4145 78.64C93.0785 78.8907 92.8198 79.2507 92.6385 79.72C92.4572 80.184 92.3665 80.7387 92.3665 81.384H91.8865C91.8865 80.4933 92.0038 79.7333 92.2385 79.104C92.4732 78.4747 92.8145 77.9947 93.2625 77.664C93.7158 77.328 94.2652 77.16 94.9105 77.16C95.5132 77.16 96.0278 77.296 96.4545 77.568C96.8865 77.8347 97.2172 78.2187 97.4465 78.72C97.6758 79.2213 97.7905 79.816 97.7905 80.504V85H96.5585ZM91.1185 85V77.352H92.1905L92.3665 79.112V85H91.1185ZM103.287 85.192C102.871 85.192 102.497 85.112 102.167 84.952C101.836 84.792 101.575 84.552 101.383 84.232C101.191 83.912 101.095 83.512 101.095 83.032V75.224H102.327V83C102.327 83.7893 102.695 84.184 103.431 84.184C103.649 84.184 103.86 84.16 104.063 84.112C104.271 84.064 104.503 83.992 104.759 83.896L104.935 84.792C104.663 84.9093 104.391 85.0053 104.119 85.08C103.852 85.1547 103.575 85.192 103.287 85.192ZM99.8627 78.216V77.352H104.743V78.216H99.8627ZM109.766 85.192C109.105 85.192 108.513 85.024 107.99 84.688C107.473 84.3467 107.062 83.8747 106.758 83.272C106.46 82.6693 106.31 81.976 106.31 81.192C106.31 80.3547 106.46 79.6347 106.758 79.032C107.057 78.4293 107.465 77.968 107.982 77.648C108.505 77.3227 109.1 77.16 109.766 77.16C110.348 77.16 110.844 77.2773 111.254 77.512C111.665 77.7467 111.996 78.064 112.246 78.464C112.497 78.864 112.67 79.3173 112.766 79.824C112.868 80.3253 112.897 80.8453 112.854 81.384H107.318V80.616H112.03L111.662 80.856C111.678 80.5413 111.66 80.2267 111.606 79.912C111.558 79.5973 111.465 79.3093 111.326 79.048C111.188 78.7813 110.993 78.568 110.742 78.408C110.492 78.248 110.172 78.168 109.782 78.168C109.292 78.168 108.881 78.2933 108.55 78.544C108.22 78.7947 107.972 79.1253 107.806 79.536C107.641 79.9413 107.558 80.3813 107.558 80.856V81.368C107.558 81.9013 107.638 82.3787 107.798 82.8C107.964 83.2213 108.209 83.5547 108.534 83.8C108.86 84.0453 109.27 84.168 109.766 84.168C110.262 84.168 110.67 84.048 110.99 83.808C111.31 83.568 111.505 83.2133 111.574 82.744H112.87C112.79 83.2507 112.609 83.688 112.326 84.056C112.044 84.4187 111.684 84.6987 111.246 84.896C110.809 85.0933 110.316 85.192 109.766 85.192ZM115.489 85V77.336H116.737V85H115.489ZM116.353 81.544C116.353 80.5733 116.446 79.768 116.633 79.128C116.82 78.4827 117.092 78.0027 117.449 77.688C117.812 77.368 118.252 77.208 118.769 77.208C118.94 77.208 119.094 77.2213 119.233 77.248C119.377 77.2693 119.521 77.304 119.665 77.352L119.585 78.584C119.436 78.536 119.273 78.496 119.097 78.464C118.921 78.4267 118.764 78.408 118.625 78.408C118.172 78.408 117.806 78.5387 117.529 78.8C117.252 79.056 117.049 79.4187 116.921 79.888C116.798 80.3573 116.737 80.9093 116.737 81.544H116.353ZM124.086 85.192C123.425 85.192 122.833 85.024 122.31 84.688C121.793 84.3467 121.382 83.8747 121.078 83.272C120.78 82.6693 120.63 81.976 120.63 81.192C120.63 80.3547 120.78 79.6347 121.078 79.032C121.377 78.4293 121.785 77.968 122.302 77.648C122.825 77.3227 123.42 77.16 124.086 77.16C124.668 77.16 125.164 77.2773 125.574 77.512C125.985 77.7467 126.316 78.064 126.566 78.464C126.817 78.864 126.99 79.3173 127.086 79.824C127.188 80.3253 127.217 80.8453 127.174 81.384H121.638V80.616H126.35L125.982 80.856C125.998 80.5413 125.98 80.2267 125.926 79.912C125.878 79.5973 125.785 79.3093 125.646 79.048C125.508 78.7813 125.313 78.568 125.062 78.408C124.812 78.248 124.492 78.168 124.102 78.168C123.612 78.168 123.201 78.2933 122.87 78.544C122.54 78.7947 122.292 79.1253 122.126 79.536C121.961 79.9413 121.878 80.3813 121.878 80.856V81.368C121.878 81.9013 121.958 82.3787 122.118 82.8C122.284 83.2213 122.529 83.5547 122.854 83.8C123.18 84.0453 123.59 84.168 124.086 84.168C124.582 84.168 124.99 84.048 125.31 83.808C125.63 83.568 125.825 83.2133 125.894 82.744H127.19C127.11 83.2507 126.929 83.688 126.646 84.056C126.364 84.4187 126.004 84.6987 125.566 84.896C125.129 85.0933 124.636 85.192 124.086 85.192ZM132.561 85.192C131.82 85.192 131.201 85.088 130.705 84.88C130.209 84.6667 129.833 84.376 129.577 84.008C129.321 83.6347 129.185 83.208 129.169 82.728H130.369C130.396 83.2133 130.59 83.5787 130.953 83.824C131.321 84.064 131.82 84.184 132.449 84.184C132.78 84.184 133.084 84.1307 133.361 84.024C133.638 83.9173 133.86 83.7707 134.025 83.584C134.19 83.3973 134.273 83.1867 134.273 82.952C134.273 82.6533 134.164 82.4187 133.945 82.248C133.726 82.0773 133.377 81.928 132.897 81.8L131.409 81.32C130.764 81.1173 130.268 80.84 129.921 80.488C129.58 80.1307 129.409 79.704 129.409 79.208C129.409 78.5893 129.681 78.0933 130.225 77.72C130.769 77.3467 131.484 77.16 132.369 77.16C133.308 77.16 134.036 77.352 134.553 77.736C135.07 78.12 135.34 78.6 135.361 79.176H134.129C134.081 78.84 133.91 78.5867 133.617 78.416C133.324 78.24 132.908 78.152 132.369 78.152C131.852 78.152 131.446 78.2693 131.153 78.504C130.865 78.7333 130.721 78.9893 130.721 79.272C130.721 79.8 131.174 80.1893 132.081 80.44L133.601 80.952C134.257 81.1493 134.758 81.408 135.105 81.728C135.457 82.048 135.633 82.456 135.633 82.952C135.633 83.336 135.508 83.6987 135.257 84.04C135.006 84.3813 134.652 84.6587 134.193 84.872C133.734 85.0853 133.19 85.192 132.561 85.192ZM140.727 85.192C140.311 85.192 139.938 85.112 139.607 84.952C139.277 84.792 139.015 84.552 138.823 84.232C138.631 83.912 138.535 83.512 138.535 83.032V75.224H139.767V83C139.767 83.7893 140.135 84.184 140.871 84.184C141.09 84.184 141.301 84.16 141.503 84.112C141.711 84.064 141.943 83.992 142.199 83.896L142.375 84.792C142.103 84.9093 141.831 85.0053 141.559 85.08C141.293 85.1547 141.015 85.192 140.727 85.192ZM137.303 78.216V77.352H142.183V78.216H137.303ZM147.207 85.192C146.546 85.192 145.954 85.024 145.431 84.688C144.914 84.3467 144.503 83.8747 144.199 83.272C143.9 82.6693 143.751 81.976 143.751 81.192C143.751 80.3547 143.9 79.6347 144.199 79.032C144.498 78.4293 144.906 77.968 145.423 77.648C145.946 77.3227 146.54 77.16 147.207 77.16C147.788 77.16 148.284 77.2773 148.695 77.512C149.106 77.7467 149.436 78.064 149.687 78.464C149.938 78.864 150.111 79.3173 150.207 79.824C150.308 80.3253 150.338 80.8453 150.295 81.384H144.759V80.616H149.471L149.103 80.856C149.119 80.5413 149.1 80.2267 149.047 79.912C148.999 79.5973 148.906 79.3093 148.767 79.048C148.628 78.7813 148.434 78.568 148.183 78.408C147.932 78.248 147.612 78.168 147.223 78.168C146.732 78.168 146.322 78.2933 145.991 78.544C145.66 78.7947 145.412 79.1253 145.247 79.536C145.082 79.9413 144.999 80.3813 144.999 80.856V81.368C144.999 81.9013 145.079 82.3787 145.239 82.8C145.404 83.2213 145.65 83.5547 145.975 83.8C146.3 84.0453 146.711 84.168 147.207 84.168C147.703 84.168 148.111 84.048 148.431 83.808C148.751 83.568 148.946 83.2133 149.015 82.744H150.311C150.231 83.2507 150.05 83.688 149.767 84.056C149.484 84.4187 149.124 84.6987 148.687 84.896C148.25 85.0933 147.756 85.192 147.207 85.192ZM155.666 85.192C155.047 85.192 154.479 85.0267 153.962 84.696C153.444 84.36 153.031 83.8907 152.722 83.288C152.412 82.68 152.258 81.9653 152.258 81.144C152.258 80.328 152.41 79.6213 152.714 79.024C153.018 78.4267 153.42 77.968 153.922 77.648C154.428 77.3227 154.983 77.16 155.586 77.16C156.146 77.16 156.636 77.296 157.058 77.568C157.484 77.84 157.815 78.232 158.05 78.744C158.284 79.256 158.402 79.8747 158.402 80.6H157.922C157.922 80.0933 157.82 79.6667 157.618 79.32C157.42 78.9733 157.162 78.712 156.842 78.536C156.522 78.3547 156.178 78.264 155.81 78.264C155.394 78.264 155.012 78.3813 154.666 78.616C154.324 78.8453 154.05 79.176 153.842 79.608C153.639 80.0347 153.538 80.5467 153.538 81.144C153.538 81.752 153.639 82.2747 153.842 82.712C154.05 83.1493 154.324 83.4853 154.666 83.72C155.012 83.9547 155.394 84.072 155.81 84.072C156.156 84.072 156.49 83.9813 156.81 83.8C157.135 83.6187 157.402 83.3547 157.61 83.008C157.818 82.656 157.922 82.232 157.922 81.736H158.402C158.402 82.4773 158.279 83.1067 158.034 83.624C157.794 84.136 157.466 84.5253 157.05 84.792C156.639 85.0587 156.178 85.192 155.666 85.192ZM158.13 85L157.922 83.208V74.088H159.17V85H158.13ZM167.235 75.544C166.979 75.544 166.776 75.472 166.627 75.328C166.478 75.1787 166.403 74.984 166.403 74.744C166.403 74.5093 166.478 74.3227 166.627 74.184C166.776 74.0453 166.979 73.976 167.235 73.976C167.491 73.976 167.694 74.0453 167.843 74.184C167.992 74.3227 168.067 74.5093 168.067 74.744C168.067 74.984 167.992 75.1787 167.843 75.328C167.694 75.472 167.491 75.544 167.235 75.544ZM166.611 85V77.336H167.859V85H166.611ZM176.897 85V80.504C176.897 79.7733 176.721 79.2187 176.369 78.84C176.022 78.456 175.547 78.264 174.945 78.264C174.486 78.264 174.089 78.3893 173.753 78.64C173.417 78.8907 173.158 79.2507 172.977 79.72C172.795 80.184 172.705 80.7387 172.705 81.384H172.225C172.225 80.4933 172.342 79.7333 172.577 79.104C172.811 78.4747 173.153 77.9947 173.601 77.664C174.054 77.328 174.603 77.16 175.249 77.16C175.851 77.16 176.366 77.296 176.793 77.568C177.225 77.8347 177.555 78.2187 177.785 78.72C178.014 79.2213 178.129 79.816 178.129 80.504V85H176.897ZM171.457 85V77.352H172.529L172.705 79.112V85H171.457ZM180.137 84.256C180.137 84.0053 180.225 83.7893 180.401 83.608C180.577 83.4267 180.798 83.336 181.065 83.336C181.332 83.336 181.558 83.4267 181.745 83.608C181.932 83.7893 182.025 84.0053 182.025 84.256C182.025 84.5067 181.932 84.7173 181.745 84.888C181.558 85.0587 181.332 85.144 181.065 85.144C180.798 85.144 180.577 85.0587 180.401 84.888C180.225 84.712 180.137 84.5013 180.137 84.256Z" fill="#333333"/>
</g>
<defs>
<filter id="filter0_d_7075_5689" x="0" y="0" width="261.767" height="108" filterUnits="userSpaceOnUse" color-interpolation-filters="sRGB">
<feFlood flood-opacity="0" result="BackgroundImageFix"/>
<feColorMatrix in="SourceAlpha" type="matrix" values="0 0 0 0 0 0 0 0 0 0 0 0 0 0 0 0 0 0 127 0" result="hardAlpha"/>
<feOffset dy="4"/>
<feGaussianBlur stdDeviation="3"/>
<feComposite in2="hardAlpha" operator="out"/>
<feColorMatrix type="matrix" values="0 0 0 0 0 0 0 0 0 0 0 0 0 0 0 0 0 0 0.1 0"/>
<feBlend mode="normal" in2="BackgroundImageFix" result="effect1_dropShadow_7075_5689"/>
<feBlend mode="normal" in="SourceGraphic" in2="effect1_dropShadow_7075_5689" result="shape"/>
</filter>
</defs>
</svg>
