<svg width="256" height="68" viewBox="0 0 256 68" fill="none" xmlns="http://www.w3.org/2000/svg">
<mask id="path-1-inside-1_7074_5949" fill="white">
<path d="M248.724 27.3669L239 19L239 11C239 6.02944 234.971 2 230 2L8.99997 1.99998C4.02941 1.99998 -2.59742e-05 6.02942 -2.64087e-05 11L-2.97308e-05 49C-3.01653e-05 53.9705 4.0294 58 8.99997 58L230 58C234.971 58 239 53.9706 239 49L239 39.5L248.612 32.0069C250.106 30.8425 250.16 28.6022 248.724 27.3669Z"/>
</mask>
<path d="M248.724 27.3669L239 19L239 11C239 6.02944 234.971 2 230 2L8.99997 1.99998C4.02941 1.99998 -2.59742e-05 6.02942 -2.64087e-05 11L-2.97308e-05 49C-3.01653e-05 53.9705 4.0294 58 8.99997 58L230 58C234.971 58 239 53.9706 239 49L239 39.5L248.612 32.0069C250.106 30.8425 250.16 28.6022 248.724 27.3669Z" fill="white"/>
<path d="M239 19L237.6 19L237.6 19.6423L238.087 20.0612L239 19ZM248.724 27.3669L249.637 26.3056L249.637 26.3056L248.724 27.3669ZM248.612 32.0069L247.751 30.9028L247.751 30.9028L248.612 32.0069ZM239 39.5L238.139 38.3959L237.6 38.8162L237.6 39.5L239 39.5ZM238.087 20.0612L247.811 28.4281L249.637 26.3056L239.913 17.9388L238.087 20.0612ZM247.751 30.9028L238.139 38.3959L239.861 40.6041L249.473 33.1111L247.751 30.9028ZM247.811 28.4281C248.577 29.0869 248.548 30.2817 247.751 30.9028L249.473 33.1111C251.663 31.4032 251.743 28.1175 249.637 26.3056L247.811 28.4281ZM230 56.6L8.99997 56.6L8.99997 59.4L230 59.4L230 56.6ZM1.39996 49L1.39997 11L-1.40002 11L-1.40002 49L1.39996 49ZM8.99997 3.39998L230 3.4L230 0.599997L8.99997 0.599977L8.99997 3.39998ZM237.6 39.5L237.6 49L240.4 49L240.4 39.5L237.6 39.5ZM237.6 11L237.6 19L240.4 19L240.4 11L237.6 11ZM230 3.4C234.197 3.4 237.6 6.80263 237.6 11L240.4 11C240.4 5.25624 235.744 0.599997 230 0.599997L230 3.4ZM1.39997 11C1.39997 6.80261 4.8026 3.39998 8.99997 3.39998L8.99997 0.599977C3.25622 0.599977 -1.40002 5.25622 -1.40002 11L1.39997 11ZM8.99997 56.6C4.8026 56.6 1.39996 53.1973 1.39996 49L-1.40002 49C-1.40002 54.7437 3.25621 59.4 8.99997 59.4L8.99997 56.6ZM230 59.4C235.744 59.4 240.4 54.7438 240.4 49L237.6 49C237.6 53.1974 234.197 56.6 230 56.6L230 59.4Z" fill="white" mask="url(#path-1-inside-1_7074_5949)"/>
<g filter="url(#filter0_d_7074_5949)">
<mask id="path-3-inside-2_7074_5949" fill="white">
<path d="M248.724 27.3669L239 19L239 11C239 6.02944 234.971 2 230 2L114 1.99999C109.029 1.99999 105 6.02943 105 11L105 49C105 53.9705 109.029 58 114 58L230 58C234.971 58 239 53.9706 239 49L239 39.5L248.612 32.0069C250.106 30.8425 250.16 28.6022 248.724 27.3669Z"/>
</mask>
<path d="M248.724 27.3669L239 19L239 11C239 6.02944 234.971 2 230 2L114 1.99999C109.029 1.99999 105 6.02943 105 11L105 49C105 53.9705 109.029 58 114 58L230 58C234.971 58 239 53.9706 239 49L239 39.5L248.612 32.0069C250.106 30.8425 250.16 28.6022 248.724 27.3669Z" fill="white"/>
<path d="M239 19L237.6 19L237.6 19.6423L238.087 20.0612L239 19ZM248.724 27.3669L249.637 26.3056L249.637 26.3056L248.724 27.3669ZM248.612 32.0069L247.751 30.9028L247.751 30.9028L248.612 32.0069ZM239 39.5L238.139 38.3959L237.6 38.8162L237.6 39.5L239 39.5ZM230 58L230 59.4L230 59.4L230 58ZM114 58L114 56.6L114 56.6L114 58ZM238.087 20.0612L247.811 28.4281L249.637 26.3056L239.913 17.9388L238.087 20.0612ZM247.751 30.9028L238.139 38.3959L239.861 40.6041L249.473 33.1111L247.751 30.9028ZM247.811 28.4281C248.577 29.0869 248.548 30.2817 247.751 30.9028L249.473 33.1111C251.663 31.4032 251.743 28.1175 249.637 26.3056L247.811 28.4281ZM230 56.6L114 56.6L114 59.4L230 59.4L230 56.6ZM106.4 49L106.4 11L103.6 11L103.6 49L106.4 49ZM114 3.39999L230 3.4L230 0.599998L114 0.599988L114 3.39999ZM237.6 39.5L237.6 49L240.4 49L240.4 39.5L237.6 39.5ZM237.6 11L237.6 19L240.4 19L240.4 11L237.6 11ZM230 3.4C234.197 3.4 237.6 6.80264 237.6 11L240.4 11C240.4 5.25624 235.744 0.599999 230 0.599998L230 3.4ZM106.4 11C106.4 6.80262 109.803 3.39999 114 3.39999L114 0.599988C108.256 0.599988 103.6 5.25623 103.6 11L106.4 11ZM114 56.6C109.803 56.6 106.4 53.1973 106.4 49L103.6 49C103.6 54.7437 108.256 59.4 114 59.4L114 56.6ZM230 59.4C235.744 59.4 240.4 54.7438 240.4 49L237.6 49C237.6 53.1974 234.197 56.6 230 56.6L230 59.4Z" fill="#333333" mask="url(#path-3-inside-2_7074_5949)"/>
</g>
<g filter="url(#filter1_d_7074_5949)">
<path d="M137.403 15.452H138.651V19.884H143.627V15.452H144.859V25.5H143.627V20.956H138.651V25.5H137.403V15.452ZM150.922 25.692C150.261 25.692 149.669 25.524 149.146 25.188C148.629 24.8467 148.218 24.3747 147.914 23.772C147.615 23.1693 147.466 22.476 147.466 21.692C147.466 20.8547 147.615 20.1347 147.914 19.532C148.213 18.9293 148.621 18.468 149.138 18.148C149.661 17.8227 150.255 17.66 150.922 17.66C151.503 17.66 151.999 17.7773 152.41 18.012C152.821 18.2467 153.151 18.564 153.402 18.964C153.653 19.364 153.826 19.8173 153.922 20.324C154.023 20.8253 154.053 21.3453 154.01 21.884H148.474V21.116H153.186L152.818 21.356C152.834 21.0413 152.815 20.7267 152.762 20.412C152.714 20.0973 152.621 19.8093 152.482 19.548C152.343 19.2813 152.149 19.068 151.898 18.908C151.647 18.748 151.327 18.668 150.938 18.668C150.447 18.668 150.037 18.7933 149.706 19.044C149.375 19.2947 149.127 19.6253 148.962 20.036C148.797 20.4413 148.714 20.8813 148.714 21.356V21.868C148.714 22.4013 148.794 22.8787 148.954 23.3C149.119 23.7213 149.365 24.0547 149.69 24.3C150.015 24.5453 150.426 24.668 150.922 24.668C151.418 24.668 151.826 24.548 152.146 24.308C152.466 24.068 152.661 23.7133 152.73 23.244H154.026C153.946 23.7507 153.765 24.188 153.482 24.556C153.199 24.9187 152.839 25.1987 152.402 25.396C151.965 25.5933 151.471 25.692 150.922 25.692ZM156.645 25.5V14.588H157.893V25.5H156.645ZM161.289 25.5V14.588H162.537V25.5H161.289ZM168.701 25.692C168.013 25.692 167.4 25.54 166.861 25.236C166.328 24.932 165.907 24.4813 165.597 23.884C165.288 23.2867 165.133 22.5507 165.133 21.676C165.133 20.796 165.288 20.06 165.597 19.468C165.907 18.8707 166.328 18.42 166.861 18.116C167.4 17.812 168.013 17.66 168.701 17.66C169.384 17.66 169.992 17.812 170.525 18.116C171.064 18.42 171.485 18.8707 171.789 19.468C172.099 20.06 172.253 20.796 172.253 21.676C172.253 22.5507 172.099 23.2867 171.789 23.884C171.485 24.4813 171.064 24.932 170.525 25.236C169.992 25.54 169.384 25.692 168.701 25.692ZM168.669 24.604C169.165 24.604 169.587 24.4867 169.933 24.252C170.28 24.012 170.541 23.6733 170.717 23.236C170.899 22.7987 170.989 22.2787 170.989 21.676C170.989 20.764 170.8 20.0467 170.421 19.524C170.043 18.996 169.48 18.732 168.733 18.732C168.232 18.732 167.808 18.852 167.461 19.092C167.12 19.3267 166.859 19.6653 166.677 20.108C166.501 20.5453 166.413 21.068 166.413 21.676C166.413 22.5773 166.603 23.292 166.981 23.82C167.365 24.3427 167.928 24.604 168.669 24.604ZM174.971 22.684L174.811 15.484H176.139L175.979 22.684H174.971ZM175.475 25.644C175.203 25.644 174.979 25.5587 174.803 25.388C174.627 25.2173 174.539 25.004 174.539 24.748C174.539 24.4973 174.627 24.284 174.803 24.108C174.979 23.9267 175.203 23.836 175.475 23.836C175.742 23.836 175.966 23.9267 176.147 24.108C176.334 24.284 176.427 24.4973 176.427 24.748C176.427 25.004 176.334 25.2173 176.147 25.388C175.966 25.5587 175.742 25.644 175.475 25.644ZM182.006 15.452H183.414L186.022 24.396H185.654L188.326 16.492H189.174L191.814 24.332H191.462L194.454 15.452H195.846L192.294 25.5H190.982L188.662 18.684H188.902L186.502 25.5H185.19L182.006 15.452ZM203.295 25.5V21.004C203.295 20.2733 203.119 19.7187 202.767 19.34C202.42 18.956 201.945 18.764 201.343 18.764C200.884 18.764 200.487 18.8893 200.151 19.14C199.815 19.3907 199.556 19.7507 199.375 20.22C199.193 20.684 199.103 21.2387 199.103 21.884H198.623C198.623 20.9933 198.74 20.2333 198.975 19.604C199.209 18.9747 199.551 18.4947 199.999 18.164C200.452 17.828 201.001 17.66 201.647 17.66C202.249 17.66 202.764 17.796 203.191 18.068C203.623 18.3347 203.953 18.7187 204.183 19.22C204.412 19.7213 204.527 20.316 204.527 21.004V25.5H203.295ZM197.855 25.5V14.588H199.103V25.5H197.855ZM212.407 25.5L212.247 23.82V20.54C212.247 19.852 212.1 19.3587 211.807 19.06C211.514 18.756 211.074 18.604 210.487 18.604C210.156 18.604 209.855 18.652 209.583 18.748C209.316 18.844 209.103 18.9933 208.943 19.196C208.788 19.3933 208.711 19.6493 208.711 19.964H207.319C207.319 19.4093 207.455 18.964 207.727 18.628C207.999 18.2867 208.372 18.0413 208.847 17.892C209.327 17.7373 209.874 17.66 210.487 17.66C211.074 17.66 211.594 17.7587 212.047 17.956C212.5 18.1533 212.855 18.468 213.111 18.9C213.367 19.3267 213.495 19.884 213.495 20.572V25.5H212.407ZM209.799 25.692C209.17 25.692 208.65 25.58 208.239 25.356C207.828 25.132 207.522 24.8413 207.319 24.484C207.116 24.1267 207.015 23.7507 207.015 23.356C207.015 22.8387 207.143 22.4173 207.399 22.092C207.66 21.7667 208.015 21.5293 208.463 21.38C208.911 21.2253 209.415 21.148 209.975 21.148C210.375 21.148 210.775 21.188 211.175 21.268C211.58 21.348 211.975 21.4573 212.359 21.596V22.38C212.039 22.252 211.676 22.1507 211.271 22.076C210.871 22.0013 210.503 21.964 210.167 21.964C209.655 21.964 209.223 22.0707 208.871 22.284C208.519 22.492 208.343 22.8493 208.343 23.356C208.343 23.7293 208.476 24.0493 208.743 24.316C209.015 24.5827 209.447 24.716 210.039 24.716C210.455 24.716 210.828 24.62 211.159 24.428C211.495 24.2307 211.759 23.9853 211.951 23.692C212.148 23.3987 212.247 23.1053 212.247 22.812H212.551C212.551 23.324 212.439 23.7987 212.215 24.236C211.996 24.6733 211.682 25.0253 211.271 25.292C210.86 25.5587 210.37 25.692 209.799 25.692ZM218.995 25.692C218.579 25.692 218.206 25.612 217.875 25.452C217.545 25.292 217.283 25.052 217.091 24.732C216.899 24.412 216.803 24.012 216.803 23.532V15.724H218.035V23.5C218.035 24.2893 218.403 24.684 219.139 24.684C219.358 24.684 219.569 24.66 219.771 24.612C219.979 24.564 220.211 24.492 220.467 24.396L220.643 25.292C220.371 25.4093 220.099 25.5053 219.827 25.58C219.561 25.6547 219.283 25.692 218.995 25.692ZM215.571 18.716V17.852H220.451V18.716H215.571ZM126.552 45.692C125.939 45.692 125.365 45.5267 124.832 45.196C124.304 44.8653 123.877 44.3987 123.552 43.796C123.227 43.1933 123.064 42.4813 123.064 41.66C123.064 40.8173 123.227 40.0973 123.552 39.5C123.877 38.9027 124.304 38.4467 124.832 38.132C125.365 37.8173 125.939 37.66 126.552 37.66C126.984 37.66 127.371 37.7267 127.712 37.86C128.059 37.988 128.36 38.1667 128.616 38.396C128.872 38.6253 129.083 38.8867 129.248 39.18C129.419 39.468 129.544 39.772 129.624 40.092L128.344 40.204C128.211 39.7613 127.987 39.412 127.672 39.156C127.363 38.8947 126.984 38.764 126.536 38.764C126.157 38.764 125.8 38.8733 125.464 39.092C125.133 39.3053 124.864 39.628 124.656 40.06C124.448 40.4867 124.344 41.02 124.344 41.66C124.344 42.252 124.437 42.7667 124.624 43.204C124.816 43.636 125.077 43.972 125.408 44.212C125.739 44.452 126.115 44.572 126.536 44.572C127.128 44.572 127.576 44.428 127.88 44.14C128.189 43.8467 128.344 43.4413 128.344 42.924H129.624C129.624 43.4573 129.499 43.932 129.248 44.348C128.997 44.764 128.64 45.092 128.176 45.332C127.717 45.572 127.176 45.692 126.552 45.692ZM137.01 45.5L136.85 43.82V40.54C136.85 39.852 136.703 39.3587 136.41 39.06C136.117 38.756 135.677 38.604 135.09 38.604C134.759 38.604 134.458 38.652 134.186 38.748C133.919 38.844 133.706 38.9933 133.546 39.196C133.391 39.3933 133.314 39.6493 133.314 39.964H131.922C131.922 39.4093 132.058 38.964 132.33 38.628C132.602 38.2867 132.975 38.0413 133.45 37.892C133.93 37.7373 134.477 37.66 135.09 37.66C135.677 37.66 136.197 37.7587 136.65 37.956C137.103 38.1533 137.458 38.468 137.714 38.9C137.97 39.3267 138.098 39.884 138.098 40.572V45.5H137.01ZM134.402 45.692C133.773 45.692 133.253 45.58 132.842 45.356C132.431 45.132 132.125 44.8413 131.922 44.484C131.719 44.1267 131.618 43.7507 131.618 43.356C131.618 42.8387 131.746 42.4173 132.002 42.092C132.263 41.7667 132.618 41.5293 133.066 41.38C133.514 41.2253 134.018 41.148 134.578 41.148C134.978 41.148 135.378 41.188 135.778 41.268C136.183 41.348 136.578 41.4573 136.962 41.596V42.38C136.642 42.252 136.279 42.1507 135.874 42.076C135.474 42.0013 135.106 41.964 134.77 41.964C134.258 41.964 133.826 42.0707 133.474 42.284C133.122 42.492 132.946 42.8493 132.946 43.356C132.946 43.7293 133.079 44.0493 133.346 44.316C133.618 44.5827 134.05 44.716 134.642 44.716C135.058 44.716 135.431 44.62 135.762 44.428C136.098 44.2307 136.362 43.9853 136.554 43.692C136.751 43.3987 136.85 43.1053 136.85 42.812H137.154C137.154 43.324 137.042 43.7987 136.818 44.236C136.599 44.6733 136.285 45.0253 135.874 45.292C135.463 45.5587 134.973 45.692 134.402 45.692ZM146.687 45.5V41.004C146.687 40.2733 146.511 39.7187 146.159 39.34C145.812 38.956 145.337 38.764 144.735 38.764C144.276 38.764 143.879 38.8893 143.543 39.14C143.207 39.3907 142.948 39.7507 142.767 40.22C142.585 40.684 142.495 41.2387 142.495 41.884H142.015C142.015 40.9933 142.132 40.2333 142.367 39.604C142.601 38.9747 142.943 38.4947 143.391 38.164C143.844 37.828 144.393 37.66 145.039 37.66C145.641 37.66 146.156 37.796 146.583 38.068C147.015 38.3347 147.345 38.7187 147.575 39.22C147.804 39.7213 147.919 40.316 147.919 41.004V45.5H146.687ZM141.247 45.5V37.852H142.319L142.495 39.612V45.5H141.247ZM155.02 45.5V35.452H156.268V45.5H155.02ZM166.357 45.692C165.738 45.692 165.17 45.5267 164.653 45.196C164.136 44.86 163.722 44.3907 163.413 43.788C163.104 43.18 162.949 42.4653 162.949 41.644C162.949 40.828 163.101 40.1213 163.405 39.524C163.709 38.9267 164.112 38.468 164.613 38.148C165.12 37.8227 165.674 37.66 166.277 37.66C166.837 37.66 167.328 37.796 167.749 38.068C168.176 38.34 168.506 38.732 168.741 39.244C168.976 39.756 169.093 40.3747 169.093 41.1H168.613C168.613 40.5933 168.512 40.1667 168.309 39.82C168.112 39.4733 167.853 39.212 167.533 39.036C167.213 38.8547 166.869 38.764 166.501 38.764C166.085 38.764 165.704 38.8813 165.357 39.116C165.016 39.3453 164.741 39.676 164.533 40.108C164.33 40.5347 164.229 41.0467 164.229 41.644C164.229 42.252 164.33 42.7747 164.533 43.212C164.741 43.6493 165.016 43.9853 165.357 44.22C165.704 44.4547 166.085 44.572 166.501 44.572C166.848 44.572 167.181 44.4813 167.501 44.3C167.826 44.1187 168.093 43.8547 168.301 43.508C168.509 43.156 168.613 42.732 168.613 42.236H169.093C169.093 42.9773 168.97 43.6067 168.725 44.124C168.485 44.636 168.157 45.0253 167.741 45.292C167.33 45.5587 166.869 45.692 166.357 45.692ZM168.821 45.5L168.613 43.708V34.588H169.861V45.5H168.821ZM176.033 45.692C175.345 45.692 174.732 45.54 174.193 45.236C173.66 44.932 173.239 44.4813 172.929 43.884C172.62 43.2867 172.465 42.5507 172.465 41.676C172.465 40.796 172.62 40.06 172.929 39.468C173.239 38.8707 173.66 38.42 174.193 38.116C174.732 37.812 175.345 37.66 176.033 37.66C176.716 37.66 177.324 37.812 177.857 38.116C178.396 38.42 178.817 38.8707 179.121 39.468C179.431 40.06 179.585 40.796 179.585 41.676C179.585 42.5507 179.431 43.2867 179.121 43.884C178.817 44.4813 178.396 44.932 177.857 45.236C177.324 45.54 176.716 45.692 176.033 45.692ZM176.001 44.604C176.497 44.604 176.919 44.4867 177.265 44.252C177.612 44.012 177.873 43.6733 178.049 43.236C178.231 42.7987 178.321 42.2787 178.321 41.676C178.321 40.764 178.132 40.0467 177.753 39.524C177.375 38.996 176.812 38.732 176.065 38.732C175.564 38.732 175.14 38.852 174.793 39.092C174.452 39.3267 174.191 39.6653 174.009 40.108C173.833 40.5453 173.745 41.068 173.745 41.676C173.745 42.5773 173.935 43.292 174.313 43.82C174.697 44.3427 175.26 44.604 176.001 44.604ZM191.572 45.5V41.004C191.572 40.2733 191.396 39.7187 191.044 39.34C190.698 38.956 190.223 38.764 189.62 38.764C189.162 38.764 188.764 38.8893 188.428 39.14C188.092 39.3907 187.834 39.7507 187.652 40.22C187.471 40.684 187.38 41.2387 187.38 41.884H186.9C186.9 40.9933 187.018 40.2333 187.252 39.604C187.487 38.9747 187.828 38.4947 188.276 38.164C188.73 37.828 189.279 37.66 189.924 37.66C190.527 37.66 191.042 37.796 191.468 38.068C191.9 38.3347 192.231 38.7187 192.46 39.22C192.69 39.7213 192.804 40.316 192.804 41.004V45.5H191.572ZM186.132 45.5V34.588H187.38V45.5H186.132ZM198.604 45.692C197.943 45.692 197.351 45.524 196.828 45.188C196.311 44.8467 195.9 44.3747 195.596 43.772C195.298 43.1693 195.148 42.476 195.148 41.692C195.148 40.8547 195.298 40.1347 195.596 39.532C195.895 38.9293 196.303 38.468 196.82 38.148C197.343 37.8227 197.938 37.66 198.604 37.66C199.186 37.66 199.682 37.7773 200.092 38.012C200.503 38.2467 200.834 38.564 201.084 38.964C201.335 39.364 201.508 39.8173 201.604 40.324C201.706 40.8253 201.735 41.3453 201.692 41.884H196.156V41.116H200.868L200.5 41.356C200.516 41.0413 200.498 40.7267 200.444 40.412C200.396 40.0973 200.303 39.8093 200.164 39.548C200.026 39.2813 199.831 39.068 199.58 38.908C199.33 38.748 199.01 38.668 198.62 38.668C198.13 38.668 197.719 38.7933 197.388 39.044C197.058 39.2947 196.81 39.6253 196.644 40.036C196.479 40.4413 196.396 40.8813 196.396 41.356V41.868C196.396 42.4013 196.476 42.8787 196.636 43.3C196.802 43.7213 197.047 44.0547 197.372 44.3C197.698 44.5453 198.108 44.668 198.604 44.668C199.1 44.668 199.508 44.548 199.828 44.308C200.148 44.068 200.343 43.7133 200.412 43.244H201.708C201.628 43.7507 201.447 44.188 201.164 44.556C200.882 44.9187 200.522 45.1987 200.084 45.396C199.647 45.5933 199.154 45.692 198.604 45.692ZM204.327 45.5V37.836H205.575V45.5H204.327ZM205.191 42.044C205.191 41.0733 205.285 40.268 205.471 39.628C205.658 38.9827 205.93 38.5027 206.287 38.188C206.65 37.868 207.09 37.708 207.607 37.708C207.778 37.708 207.933 37.7213 208.071 37.748C208.215 37.7693 208.359 37.804 208.503 37.852L208.423 39.084C208.274 39.036 208.111 38.996 207.935 38.964C207.759 38.9267 207.602 38.908 207.463 38.908C207.01 38.908 206.645 39.0387 206.367 39.3C206.09 39.556 205.887 39.9187 205.759 40.388C205.637 40.8573 205.575 41.4093 205.575 42.044H205.191ZM212.924 45.692C212.263 45.692 211.671 45.524 211.148 45.188C210.631 44.8467 210.22 44.3747 209.916 43.772C209.618 43.1693 209.468 42.476 209.468 41.692C209.468 40.8547 209.618 40.1347 209.916 39.532C210.215 38.9293 210.623 38.468 211.14 38.148C211.663 37.8227 212.258 37.66 212.924 37.66C213.506 37.66 214.002 37.7773 214.412 38.012C214.823 38.2467 215.154 38.564 215.404 38.964C215.655 39.364 215.828 39.8173 215.924 40.324C216.026 40.8253 216.055 41.3453 216.012 41.884H210.476V41.116H215.188L214.82 41.356C214.836 41.0413 214.818 40.7267 214.764 40.412C214.716 40.0973 214.623 39.8093 214.484 39.548C214.346 39.2813 214.151 39.068 213.9 38.908C213.65 38.748 213.33 38.668 212.94 38.668C212.45 38.668 212.039 38.7933 211.708 39.044C211.378 39.2947 211.13 39.6253 210.964 40.036C210.799 40.4413 210.716 40.8813 210.716 41.356V41.868C210.716 42.4013 210.796 42.8787 210.956 43.3C211.122 43.7213 211.367 44.0547 211.692 44.3C212.018 44.5453 212.428 44.668 212.924 44.668C213.42 44.668 213.828 44.548 214.148 44.308C214.468 44.068 214.663 43.7133 214.732 43.244H216.028C215.948 43.7507 215.767 44.188 215.484 44.556C215.202 44.9187 214.842 45.1987 214.404 45.396C213.967 45.5933 213.474 45.692 212.924 45.692ZM219.863 42.94V42.22C219.863 41.756 219.911 41.3747 220.007 41.076C220.109 40.7773 220.274 40.5187 220.503 40.3C220.733 40.0813 221.047 39.8627 221.447 39.644C221.805 39.452 222.09 39.2733 222.303 39.108C222.517 38.9427 222.669 38.764 222.759 38.572C222.855 38.38 222.903 38.1453 222.903 37.868C222.903 37.452 222.733 37.1053 222.391 36.828C222.055 36.5507 221.591 36.412 220.999 36.412C220.343 36.412 219.842 36.5427 219.495 36.804C219.149 37.06 218.93 37.42 218.839 37.884H217.511C217.586 37.1053 217.911 36.476 218.487 35.996C219.069 35.516 219.895 35.276 220.967 35.276C221.65 35.276 222.237 35.396 222.727 35.636C223.223 35.8707 223.602 36.188 223.863 36.588C224.13 36.9827 224.263 37.42 224.263 37.9C224.263 38.4493 224.125 38.9107 223.847 39.284C223.57 39.652 223.122 40.0013 222.503 40.332C222.146 40.5293 221.863 40.7133 221.655 40.884C221.453 41.0493 221.309 41.2413 221.223 41.46C221.138 41.6733 221.095 41.9533 221.095 42.3V42.94H219.863ZM220.503 45.692C220.237 45.692 220.015 45.6067 219.839 45.436C219.663 45.26 219.575 45.0493 219.575 44.804C219.575 44.5533 219.661 44.3373 219.831 44.156C220.007 43.9747 220.229 43.884 220.495 43.884C220.762 43.884 220.989 43.9747 221.175 44.156C221.367 44.332 221.463 44.5453 221.463 44.796C221.463 45.0413 221.37 45.252 221.183 45.428C220.997 45.604 220.77 45.692 220.503 45.692Z" fill="#333333"/>
</g>
<defs>
<filter id="filter0_d_7074_5949" x="99" y="0" width="156.767" height="68" filterUnits="userSpaceOnUse" color-interpolation-filters="sRGB">
<feFlood flood-opacity="0" result="BackgroundImageFix"/>
<feColorMatrix in="SourceAlpha" type="matrix" values="0 0 0 0 0 0 0 0 0 0 0 0 0 0 0 0 0 0 127 0" result="hardAlpha"/>
<feOffset dy="4"/>
<feGaussianBlur stdDeviation="3"/>
<feComposite in2="hardAlpha" operator="out"/>
<feColorMatrix type="matrix" values="0 0 0 0 0 0 0 0 0 0 0 0 0 0 0 0 0 0 0.1 0"/>
<feBlend mode="normal" in2="BackgroundImageFix" result="effect1_dropShadow_7074_5949"/>
<feBlend mode="normal" in="SourceGraphic" in2="effect1_dropShadow_7074_5949" result="shape"/>
</filter>
<filter id="filter1_d_7074_5949" x="117.064" y="12.5879" width="113.199" height="43.1045" filterUnits="userSpaceOnUse" color-interpolation-filters="sRGB">
<feFlood flood-opacity="0" result="BackgroundImageFix"/>
<feColorMatrix in="SourceAlpha" type="matrix" values="0 0 0 0 0 0 0 0 0 0 0 0 0 0 0 0 0 0 127 0" result="hardAlpha"/>
<feOffset dy="4"/>
<feGaussianBlur stdDeviation="3"/>
<feComposite in2="hardAlpha" operator="out"/>
<feColorMatrix type="matrix" values="0 0 0 0 0 0 0 0 0 0 0 0 0 0 0 0 0 0 0.05 0"/>
<feBlend mode="normal" in2="BackgroundImageFix" result="effect1_dropShadow_7074_5949"/>
<feBlend mode="normal" in="SourceGraphic" in2="effect1_dropShadow_7074_5949" result="shape"/>
</filter>
</defs>
</svg>
