<svg width="256" height="68" viewBox="0 0 256 68" fill="none" xmlns="http://www.w3.org/2000/svg">
<mask id="path-1-inside-1_7031_5652" fill="white">
<path d="M248.724 27.3669L239 19L239 11C239 6.02944 234.971 2 230 2L9 1.99998C4.02944 1.99998 4.54341e-06 6.02942 4.10887e-06 11L7.86805e-07 49C3.52265e-07 53.9705 4.02943 58 9 58L230 58C234.971 58 239 53.9706 239 49L239 39.5L248.612 32.0069C250.106 30.8425 250.16 28.6022 248.724 27.3669Z"/>
</mask>
<path d="M248.724 27.3669L239 19L239 11C239 6.02944 234.971 2 230 2L9 1.99998C4.02944 1.99998 4.54341e-06 6.02942 4.10887e-06 11L7.86805e-07 49C3.52265e-07 53.9705 4.02943 58 9 58L230 58C234.971 58 239 53.9706 239 49L239 39.5L248.612 32.0069C250.106 30.8425 250.16 28.6022 248.724 27.3669Z" fill="white"/>
<path d="M239 19L237.6 19L237.6 19.6423L238.087 20.0612L239 19ZM248.724 27.3669L249.637 26.3056L249.637 26.3056L248.724 27.3669ZM248.612 32.0069L247.751 30.9028L247.751 30.9028L248.612 32.0069ZM239 39.5L238.139 38.3959L237.6 38.8162L237.6 39.5L239 39.5ZM238.087 20.0612L247.811 28.4281L249.637 26.3056L239.913 17.9388L238.087 20.0612ZM247.751 30.9028L238.139 38.3959L239.861 40.6041L249.473 33.1111L247.751 30.9028ZM247.811 28.4281C248.577 29.0869 248.548 30.2817 247.751 30.9028L249.473 33.1111C251.663 31.4032 251.743 28.1175 249.637 26.3056L247.811 28.4281ZM230 56.6L9 56.6L9 59.4L230 59.4L230 56.6ZM1.4 49L1.4 11L-1.4 11L-1.4 49L1.4 49ZM9 3.39998L230 3.4L230 0.599998L9.00001 0.599979L9 3.39998ZM237.6 39.5L237.6 49L240.4 49L240.4 39.5L237.6 39.5ZM237.6 11L237.6 19L240.4 19L240.4 11L237.6 11ZM230 3.4C234.197 3.4 237.6 6.80264 237.6 11L240.4 11C240.4 5.25624 235.744 0.599999 230 0.599998L230 3.4ZM1.4 11C1.4 6.80261 4.80264 3.39998 9 3.39998L9.00001 0.599979C3.25624 0.599978 -1.4 5.25622 -1.4 11L1.4 11ZM9 56.6C4.80263 56.6 1.4 53.1973 1.4 49L-1.4 49C-1.4 54.7437 3.25623 59.4 9 59.4L9 56.6ZM230 59.4C235.744 59.4 240.4 54.7438 240.4 49L237.6 49C237.6 53.1974 234.197 56.6 230 56.6L230 59.4Z" fill="white" mask="url(#path-1-inside-1_7031_5652)"/>
<g filter="url(#filter0_d_7031_5652)">
<mask id="path-3-inside-2_7031_5652" fill="white">
<path d="M248.724 27.3669L239 19L239 11C239 6.02944 234.971 2 230 2L42 1.99998C37.0294 1.99998 33 6.02942 33 11L33 49C33 53.9705 37.0294 58 42 58L230 58C234.971 58 239 53.9706 239 49L239 39.5L248.612 32.0069C250.106 30.8425 250.16 28.6022 248.724 27.3669Z"/>
</mask>
<path d="M248.724 27.3669L239 19L239 11C239 6.02944 234.971 2 230 2L42 1.99998C37.0294 1.99998 33 6.02942 33 11L33 49C33 53.9705 37.0294 58 42 58L230 58C234.971 58 239 53.9706 239 49L239 39.5L248.612 32.0069C250.106 30.8425 250.16 28.6022 248.724 27.3669Z" fill="white"/>
<path d="M239 19L237.6 19L237.6 19.6423L238.087 20.0612L239 19ZM248.724 27.3669L249.637 26.3056L249.637 26.3056L248.724 27.3669ZM248.612 32.0069L247.751 30.9028L247.751 30.9028L248.612 32.0069ZM239 39.5L238.139 38.3959L237.6 38.8162L237.6 39.5L239 39.5ZM230 58L230 59.4L230 58ZM42 58L42 56.6L42 58ZM238.087 20.0612L247.811 28.4281L249.637 26.3056L239.913 17.9388L238.087 20.0612ZM247.751 30.9028L238.139 38.3959L239.861 40.6041L249.473 33.1111L247.751 30.9028ZM247.811 28.4281C248.577 29.0869 248.548 30.2817 247.751 30.9028L249.473 33.1111C251.663 31.4032 251.743 28.1175 249.637 26.3056L247.811 28.4281ZM230 56.6L42 56.6L42 59.4L230 59.4L230 56.6ZM34.4 49L34.4 11L31.6 11L31.6 49L34.4 49ZM42 3.39998L230 3.4L230 0.599998L42 0.599982L42 3.39998ZM237.6 39.5L237.6 49L240.4 49L240.4 39.5L237.6 39.5ZM237.6 11L237.6 19L240.4 19L240.4 11L237.6 11ZM230 3.4C234.197 3.4 237.6 6.80264 237.6 11L240.4 11C240.4 5.25624 235.744 0.599999 230 0.599998L230 3.4ZM34.4 11C34.4 6.80262 37.8026 3.39998 42 3.39998L42 0.599982C36.2562 0.599981 31.6 5.25622 31.6 11L34.4 11ZM42 56.6C37.8026 56.6 34.4 53.1973 34.4 49L31.6 49C31.6 54.7437 36.2562 59.4 42 59.4L42 56.6ZM230 59.4C235.744 59.4 240.4 54.7438 240.4 49L237.6 49C237.6 53.1974 234.197 56.6 230 56.6L230 59.4Z" fill="#333333" mask="url(#path-3-inside-2_7031_5652)"/>
</g>
<g filter="url(#filter1_d_7031_5652)">
<path d="M49.7291 25.5V15.452H50.9771V25.5H49.7291ZM57.0024 17.852H58.2984L60.2504 24.236H60.0904L61.9944 18.22H63.0344L64.9224 24.252H64.7784L66.7304 17.852H67.9784L65.4664 25.5H64.2504L62.3944 19.852H62.5864L60.7464 25.5H59.5304L57.0024 17.852ZM72.8521 25.692C72.1641 25.692 71.5508 25.54 71.0121 25.236C70.4788 24.932 70.0575 24.4813 69.7481 23.884C69.4388 23.2867 69.2841 22.5507 69.2841 21.676C69.2841 20.796 69.4388 20.06 69.7481 19.468C70.0575 18.8707 70.4788 18.42 71.0121 18.116C71.5508 17.812 72.1641 17.66 72.8521 17.66C73.5348 17.66 74.1428 17.812 74.6761 18.116C75.2148 18.42 75.6361 18.8707 75.9401 19.468C76.2495 20.06 76.4041 20.796 76.4041 21.676C76.4041 22.5507 76.2495 23.2867 75.9401 23.884C75.6361 24.4813 75.2148 24.932 74.6761 25.236C74.1428 25.54 73.5348 25.692 72.8521 25.692ZM72.8201 24.604C73.3161 24.604 73.7375 24.4867 74.0841 24.252C74.4308 24.012 74.6921 23.6733 74.8681 23.236C75.0495 22.7987 75.1401 22.2787 75.1401 21.676C75.1401 20.764 74.9508 20.0467 74.5721 19.524C74.1935 18.996 73.6308 18.732 72.8841 18.732C72.3828 18.732 71.9588 18.852 71.6121 19.092C71.2708 19.3267 71.0095 19.6653 70.8281 20.108C70.6521 20.5453 70.5641 21.068 70.5641 21.676C70.5641 22.5773 70.7535 23.292 71.1321 23.82C71.5161 24.3427 72.0788 24.604 72.8201 24.604ZM84.1941 17.836H85.4421V25.5H84.1941V17.836ZM78.7701 17.836H80.0181V22.604C80.0181 23.244 80.1728 23.7293 80.4821 24.06C80.7968 24.3907 81.2448 24.556 81.8261 24.556C82.3061 24.556 82.7221 24.428 83.0741 24.172C83.4315 23.916 83.7061 23.564 83.8981 23.116C84.0955 22.6627 84.1941 22.1453 84.1941 21.564H84.6581C84.6581 22.4227 84.5328 23.156 84.2821 23.764C84.0368 24.372 83.6875 24.8387 83.2341 25.164C82.7861 25.484 82.2581 25.644 81.6501 25.644C81.0741 25.644 80.5701 25.5373 80.1381 25.324C79.7061 25.1107 79.3701 24.788 79.1301 24.356C78.8901 23.9187 78.7701 23.3667 78.7701 22.7V17.836ZM88.8416 25.5V14.588H90.0896V25.5H88.8416ZM96.222 25.692C95.6033 25.692 95.0353 25.5267 94.518 25.196C94.0007 24.86 93.5873 24.3907 93.278 23.788C92.9687 23.18 92.814 22.4653 92.814 21.644C92.814 20.828 92.966 20.1213 93.27 19.524C93.574 18.9267 93.9767 18.468 94.478 18.148C94.9847 17.8227 95.5393 17.66 96.142 17.66C96.702 17.66 97.1927 17.796 97.614 18.068C98.0407 18.34 98.3713 18.732 98.606 19.244C98.8407 19.756 98.958 20.3747 98.958 21.1H98.478C98.478 20.5933 98.3767 20.1667 98.174 19.82C97.9767 19.4733 97.718 19.212 97.398 19.036C97.078 18.8547 96.734 18.764 96.366 18.764C95.95 18.764 95.5687 18.8813 95.222 19.116C94.8807 19.3453 94.606 19.676 94.398 20.108C94.1953 20.5347 94.094 21.0467 94.094 21.644C94.094 22.252 94.1953 22.7747 94.398 23.212C94.606 23.6493 94.8807 23.9853 95.222 24.22C95.5687 24.4547 95.95 24.572 96.366 24.572C96.7127 24.572 97.046 24.4813 97.366 24.3C97.6913 24.1187 97.958 23.8547 98.166 23.508C98.374 23.156 98.478 22.732 98.478 22.236H98.958C98.958 22.9773 98.8353 23.6067 98.59 24.124C98.35 24.636 98.022 25.0253 97.606 25.292C97.1953 25.5587 96.734 25.692 96.222 25.692ZM98.686 25.5L98.478 23.708V14.588H99.726V25.5H98.686ZM107.087 25.5V14.588H108.335V25.5H107.087ZM112.436 16.044C112.18 16.044 111.977 15.972 111.828 15.828C111.678 15.6787 111.604 15.484 111.604 15.244C111.604 15.0093 111.678 14.8227 111.828 14.684C111.977 14.5453 112.18 14.476 112.436 14.476C112.692 14.476 112.894 14.5453 113.044 14.684C113.193 14.8227 113.268 15.0093 113.268 15.244C113.268 15.484 113.193 15.6787 113.044 15.828C112.894 15.972 112.692 16.044 112.436 16.044ZM111.812 25.5V17.836H113.06V25.5H111.812ZM116.657 25.5V14.588H117.905V25.5H116.657ZM117.713 21.116L121.617 17.852H123.361L117.713 22.444V21.116ZM122.001 25.5L118.369 20.668L119.633 20.444L123.537 25.5H122.001ZM128.489 25.692C127.828 25.692 127.236 25.524 126.713 25.188C126.196 24.8467 125.785 24.3747 125.481 23.772C125.182 23.1693 125.033 22.476 125.033 21.692C125.033 20.8547 125.182 20.1347 125.481 19.532C125.78 18.9293 126.188 18.468 126.705 18.148C127.228 17.8227 127.822 17.66 128.489 17.66C129.07 17.66 129.566 17.7773 129.977 18.012C130.388 18.2467 130.718 18.564 130.969 18.964C131.22 19.364 131.393 19.8173 131.489 20.324C131.59 20.8253 131.62 21.3453 131.577 21.884H126.041V21.116H130.753L130.385 21.356C130.401 21.0413 130.382 20.7267 130.329 20.412C130.281 20.0973 130.188 19.8093 130.049 19.548C129.91 19.2813 129.716 19.068 129.465 18.908C129.214 18.748 128.894 18.668 128.505 18.668C128.014 18.668 127.604 18.7933 127.273 19.044C126.942 19.2947 126.694 19.6253 126.529 20.036C126.364 20.4413 126.281 20.8813 126.281 21.356V21.868C126.281 22.4013 126.361 22.8787 126.521 23.3C126.686 23.7213 126.932 24.0547 127.257 24.3C127.582 24.5453 127.993 24.668 128.489 24.668C128.985 24.668 129.393 24.548 129.713 24.308C130.033 24.068 130.228 23.7133 130.297 23.244H131.593C131.513 23.7507 131.332 24.188 131.049 24.556C130.766 24.9187 130.406 25.1987 129.969 25.396C129.532 25.5933 129.038 25.692 128.489 25.692ZM140.521 25.692C140.105 25.692 139.731 25.612 139.401 25.452C139.07 25.292 138.809 25.052 138.617 24.732C138.425 24.412 138.329 24.012 138.329 23.532V15.724H139.561V23.5C139.561 24.2893 139.929 24.684 140.665 24.684C140.883 24.684 141.094 24.66 141.297 24.612C141.505 24.564 141.737 24.492 141.993 24.396L142.169 25.292C141.897 25.4093 141.625 25.5053 141.353 25.58C141.086 25.6547 140.809 25.692 140.521 25.692ZM137.097 18.716V17.852H141.977V18.716H137.097ZM147.112 25.692C146.424 25.692 145.811 25.54 145.272 25.236C144.739 24.932 144.317 24.4813 144.008 23.884C143.699 23.2867 143.544 22.5507 143.544 21.676C143.544 20.796 143.699 20.06 144.008 19.468C144.317 18.8707 144.739 18.42 145.272 18.116C145.811 17.812 146.424 17.66 147.112 17.66C147.795 17.66 148.403 17.812 148.936 18.116C149.475 18.42 149.896 18.8707 150.2 19.468C150.509 20.06 150.664 20.796 150.664 21.676C150.664 22.5507 150.509 23.2867 150.2 23.884C149.896 24.4813 149.475 24.932 148.936 25.236C148.403 25.54 147.795 25.692 147.112 25.692ZM147.08 24.604C147.576 24.604 147.997 24.4867 148.344 24.252C148.691 24.012 148.952 23.6733 149.128 23.236C149.309 22.7987 149.4 22.2787 149.4 21.676C149.4 20.764 149.211 20.0467 148.832 19.524C148.453 18.996 147.891 18.732 147.144 18.732C146.643 18.732 146.219 18.852 145.872 19.092C145.531 19.3267 145.269 19.6653 145.088 20.108C144.912 20.5453 144.824 21.068 144.824 21.676C144.824 22.5773 145.013 23.292 145.392 23.82C145.776 24.3427 146.339 24.604 147.08 24.604ZM159.963 25.692C159.222 25.692 158.603 25.588 158.107 25.38C157.611 25.1667 157.235 24.876 156.979 24.508C156.723 24.1347 156.587 23.708 156.571 23.228H157.771C157.798 23.7133 157.992 24.0787 158.355 24.324C158.723 24.564 159.222 24.684 159.851 24.684C160.182 24.684 160.486 24.6307 160.763 24.524C161.04 24.4173 161.262 24.2707 161.427 24.084C161.592 23.8973 161.675 23.6867 161.675 23.452C161.675 23.1533 161.566 22.9187 161.347 22.748C161.128 22.5773 160.779 22.428 160.299 22.3L158.811 21.82C158.166 21.6173 157.67 21.34 157.323 20.988C156.982 20.6307 156.811 20.204 156.811 19.708C156.811 19.0893 157.083 18.5933 157.627 18.22C158.171 17.8467 158.886 17.66 159.771 17.66C160.71 17.66 161.438 17.852 161.955 18.236C162.472 18.62 162.742 19.1 162.763 19.676H161.531C161.483 19.34 161.312 19.0867 161.019 18.916C160.726 18.74 160.31 18.652 159.771 18.652C159.254 18.652 158.848 18.7693 158.555 19.004C158.267 19.2333 158.123 19.4893 158.123 19.772C158.123 20.3 158.576 20.6893 159.483 20.94L161.003 21.452C161.659 21.6493 162.16 21.908 162.507 22.228C162.859 22.548 163.035 22.956 163.035 23.452C163.035 23.836 162.91 24.1987 162.659 24.54C162.408 24.8813 162.054 25.1587 161.595 25.372C161.136 25.5853 160.592 25.692 159.963 25.692ZM170.513 25.5L170.353 23.82V20.54C170.353 19.852 170.207 19.3587 169.913 19.06C169.62 18.756 169.18 18.604 168.593 18.604C168.263 18.604 167.961 18.652 167.689 18.748C167.423 18.844 167.209 18.9933 167.049 19.196C166.895 19.3933 166.817 19.6493 166.817 19.964H165.425C165.425 19.4093 165.561 18.964 165.833 18.628C166.105 18.2867 166.479 18.0413 166.953 17.892C167.433 17.7373 167.98 17.66 168.593 17.66C169.18 17.66 169.7 17.7587 170.153 17.956C170.607 18.1533 170.961 18.468 171.217 18.9C171.473 19.3267 171.601 19.884 171.601 20.572V25.5H170.513ZM167.905 25.692C167.276 25.692 166.756 25.58 166.345 25.356C165.935 25.132 165.628 24.8413 165.425 24.484C165.223 24.1267 165.121 23.7507 165.121 23.356C165.121 22.8387 165.249 22.4173 165.505 22.092C165.767 21.7667 166.121 21.5293 166.569 21.38C167.017 21.2253 167.521 21.148 168.081 21.148C168.481 21.148 168.881 21.188 169.281 21.268C169.687 21.348 170.081 21.4573 170.465 21.596V22.38C170.145 22.252 169.783 22.1507 169.377 22.076C168.977 22.0013 168.609 21.964 168.273 21.964C167.761 21.964 167.329 22.0707 166.977 22.284C166.625 22.492 166.449 22.8493 166.449 23.356C166.449 23.7293 166.583 24.0493 166.849 24.316C167.121 24.5827 167.553 24.716 168.145 24.716C168.561 24.716 168.935 24.62 169.265 24.428C169.601 24.2307 169.865 23.9853 170.057 23.692C170.255 23.3987 170.353 23.1053 170.353 22.812H170.657C170.657 23.324 170.545 23.7987 170.321 24.236C170.103 24.6733 169.788 25.0253 169.377 25.292C168.967 25.5587 168.476 25.692 167.905 25.692ZM173.422 17.852H174.846L177.246 24.428H177.07L179.47 17.852H180.894L177.838 25.5H176.478L173.422 17.852ZM185.613 25.692C184.951 25.692 184.359 25.524 183.837 25.188C183.319 24.8467 182.909 24.3747 182.605 23.772C182.306 23.1693 182.157 22.476 182.157 21.692C182.157 20.8547 182.306 20.1347 182.605 19.532C182.903 18.9293 183.311 18.468 183.829 18.148C184.351 17.8227 184.946 17.66 185.613 17.66C186.194 17.66 186.69 17.7773 187.101 18.012C187.511 18.2467 187.842 18.564 188.093 18.964C188.343 19.364 188.517 19.8173 188.613 20.324C188.714 20.8253 188.743 21.3453 188.701 21.884H183.165V21.116H187.877L187.509 21.356C187.525 21.0413 187.506 20.7267 187.453 20.412C187.405 20.0973 187.311 19.8093 187.173 19.548C187.034 19.2813 186.839 19.068 186.589 18.908C186.338 18.748 186.018 18.668 185.629 18.668C185.138 18.668 184.727 18.7933 184.397 19.044C184.066 19.2947 183.818 19.6253 183.653 20.036C183.487 20.4413 183.405 20.8813 183.405 21.356V21.868C183.405 22.4013 183.485 22.8787 183.645 23.3C183.81 23.7213 184.055 24.0547 184.381 24.3C184.706 24.5453 185.117 24.668 185.613 24.668C186.109 24.668 186.517 24.548 186.837 24.308C187.157 24.068 187.351 23.7133 187.421 23.244H188.717C188.637 23.7507 188.455 24.188 188.173 24.556C187.89 24.9187 187.53 25.1987 187.093 25.396C186.655 25.5933 186.162 25.692 185.613 25.692ZM197.644 25.692C197.228 25.692 196.855 25.612 196.524 25.452C196.194 25.292 195.932 25.052 195.74 24.732C195.548 24.412 195.452 24.012 195.452 23.532V15.724H196.684V23.5C196.684 24.2893 197.052 24.684 197.788 24.684C198.007 24.684 198.218 24.66 198.42 24.612C198.628 24.564 198.86 24.492 199.116 24.396L199.292 25.292C199.02 25.4093 198.748 25.5053 198.476 25.58C198.21 25.6547 197.932 25.692 197.644 25.692ZM194.22 18.716V17.852H199.1V18.716H194.22ZM206.908 25.5V21.004C206.908 20.2733 206.732 19.7187 206.38 19.34C206.033 18.956 205.559 18.764 204.956 18.764C204.497 18.764 204.1 18.8893 203.764 19.14C203.428 19.3907 203.169 19.7507 202.988 20.22C202.807 20.684 202.716 21.2387 202.716 21.884H202.236C202.236 20.9933 202.353 20.2333 202.588 19.604C202.823 18.9747 203.164 18.4947 203.612 18.164C204.065 17.828 204.615 17.66 205.26 17.66C205.863 17.66 206.377 17.796 206.804 18.068C207.236 18.3347 207.567 18.7187 207.796 19.22C208.025 19.7213 208.14 20.316 208.14 21.004V25.5H206.908ZM201.468 25.5V14.588H202.716V25.5H201.468ZM211.988 16.044C211.732 16.044 211.529 15.972 211.38 15.828C211.231 15.6787 211.156 15.484 211.156 15.244C211.156 15.0093 211.231 14.8227 211.38 14.684C211.529 14.5453 211.732 14.476 211.988 14.476C212.244 14.476 212.447 14.5453 212.596 14.684C212.745 14.8227 212.82 15.0093 212.82 15.244C212.82 15.484 212.745 15.6787 212.596 15.828C212.447 15.972 212.244 16.044 211.988 16.044ZM211.364 25.5V17.836H212.612V25.5H211.364ZM218.962 25.692C218.22 25.692 217.602 25.588 217.106 25.38C216.61 25.1667 216.234 24.876 215.978 24.508C215.722 24.1347 215.586 23.708 215.57 23.228H216.77C216.796 23.7133 216.991 24.0787 217.354 24.324C217.722 24.564 218.22 24.684 218.85 24.684C219.18 24.684 219.484 24.6307 219.762 24.524C220.039 24.4173 220.26 24.2707 220.426 24.084C220.591 23.8973 220.674 23.6867 220.674 23.452C220.674 23.1533 220.564 22.9187 220.346 22.748C220.127 22.5773 219.778 22.428 219.298 22.3L217.81 21.82C217.164 21.6173 216.668 21.34 216.322 20.988C215.98 20.6307 215.81 20.204 215.81 19.708C215.81 19.0893 216.082 18.5933 216.626 18.22C217.17 17.8467 217.884 17.66 218.77 17.66C219.708 17.66 220.436 17.852 220.954 18.236C221.471 18.62 221.74 19.1 221.762 19.676H220.53C220.482 19.34 220.311 19.0867 220.018 18.916C219.724 18.74 219.308 18.652 218.77 18.652C218.252 18.652 217.847 18.7693 217.554 19.004C217.266 19.2333 217.122 19.4893 217.122 19.772C217.122 20.3 217.575 20.6893 218.482 20.94L220.002 21.452C220.658 21.6493 221.159 21.908 221.506 22.228C221.858 22.548 222.034 22.956 222.034 23.452C222.034 23.836 221.908 24.1987 221.658 24.54C221.407 24.8813 221.052 25.1587 220.594 25.372C220.135 25.5853 219.591 25.692 218.962 25.692ZM129.504 45.692C128.944 45.692 128.456 45.564 128.04 45.308C127.63 45.052 127.312 44.6787 127.088 44.188C126.864 43.692 126.752 43.0893 126.752 42.38H127.28C127.28 42.8547 127.379 43.2547 127.576 43.58C127.774 43.9053 128.03 44.1533 128.344 44.324C128.664 44.4893 129.003 44.572 129.36 44.572C129.744 44.572 130.112 44.4627 130.464 44.244C130.816 44.02 131.104 43.692 131.328 43.26C131.552 42.828 131.664 42.2947 131.664 41.66C131.664 41.052 131.56 40.532 131.352 40.1C131.15 39.668 130.875 39.3373 130.528 39.108C130.182 38.8787 129.798 38.764 129.376 38.764C129.014 38.764 128.672 38.852 128.352 39.028C128.032 39.204 127.774 39.4627 127.576 39.804C127.379 40.14 127.28 40.556 127.28 41.052H126.752C126.752 40.3107 126.875 39.6893 127.12 39.188C127.366 38.6813 127.699 38.3 128.12 38.044C128.542 37.788 129.014 37.66 129.536 37.66C130.134 37.66 130.691 37.82 131.208 38.14C131.726 38.46 132.144 38.9187 132.464 39.516C132.784 40.1133 132.944 40.828 132.944 41.66C132.944 42.5027 132.782 43.2253 132.456 43.828C132.136 44.4307 131.715 44.892 131.192 45.212C130.67 45.532 130.107 45.692 129.504 45.692ZM126.032 49.26V37.852H127.072L127.28 39.644V49.26H126.032ZM140.288 45.5L140.128 43.82V40.54C140.128 39.852 139.981 39.3587 139.688 39.06C139.394 38.756 138.954 38.604 138.368 38.604C138.037 38.604 137.736 38.652 137.464 38.748C137.197 38.844 136.984 38.9933 136.824 39.196C136.669 39.3933 136.592 39.6493 136.592 39.964H135.2C135.2 39.4093 135.336 38.964 135.608 38.628C135.88 38.2867 136.253 38.0413 136.728 37.892C137.208 37.7373 137.754 37.66 138.368 37.66C138.954 37.66 139.474 37.7587 139.928 37.956C140.381 38.1533 140.736 38.468 140.992 38.9C141.248 39.3267 141.376 39.884 141.376 40.572V45.5H140.288ZM137.68 45.692C137.05 45.692 136.53 45.58 136.12 45.356C135.709 45.132 135.402 44.8413 135.2 44.484C134.997 44.1267 134.896 43.7507 134.896 43.356C134.896 42.8387 135.024 42.4173 135.28 42.092C135.541 41.7667 135.896 41.5293 136.344 41.38C136.792 41.2253 137.296 41.148 137.856 41.148C138.256 41.148 138.656 41.188 139.056 41.268C139.461 41.348 139.856 41.4573 140.24 41.596V42.38C139.92 42.252 139.557 42.1507 139.152 42.076C138.752 42.0013 138.384 41.964 138.048 41.964C137.536 41.964 137.104 42.0707 136.752 42.284C136.4 42.492 136.224 42.8493 136.224 43.356C136.224 43.7293 136.357 44.0493 136.624 44.316C136.896 44.5827 137.328 44.716 137.92 44.716C138.336 44.716 138.709 44.62 139.04 44.428C139.376 44.2307 139.64 43.9853 139.832 43.692C140.029 43.3987 140.128 43.1053 140.128 42.812H140.432C140.432 43.324 140.32 43.7987 140.096 44.236C139.877 44.6733 139.562 45.0253 139.152 45.292C138.741 45.5587 138.25 45.692 137.68 45.692ZM147.228 49.436C146.444 49.436 145.764 49.324 145.188 49.1C144.612 48.8813 144.164 48.5853 143.844 48.212C143.529 47.844 143.372 47.436 143.372 46.988C143.372 46.396 143.588 45.9427 144.02 45.628C144.457 45.3187 145.02 45.164 145.708 45.164L146.396 45.596C145.82 45.596 145.375 45.716 145.06 45.956C144.745 46.196 144.588 46.524 144.588 46.94C144.588 47.356 144.812 47.708 145.26 47.996C145.708 48.284 146.364 48.428 147.228 48.428C147.868 48.428 148.428 48.3347 148.908 48.148C149.393 47.9667 149.769 47.7267 150.036 47.428C150.308 47.1347 150.444 46.8173 150.444 46.476C150.444 46.236 150.356 46.028 150.18 45.852C150.004 45.6813 149.735 45.596 149.372 45.596H146.396C145.879 45.596 145.431 45.5187 145.052 45.364C144.679 45.204 144.391 44.996 144.188 44.74C143.985 44.484 143.884 44.204 143.884 43.9C143.884 43.58 143.975 43.308 144.156 43.084C144.337 42.86 144.572 42.6893 144.86 42.572C145.153 42.4547 145.468 42.396 145.804 42.396L146.044 42.86C145.884 42.86 145.721 42.8973 145.556 42.972C145.396 43.0413 145.26 43.148 145.148 43.292C145.041 43.4307 144.988 43.6067 144.988 43.82C144.988 44.0653 145.089 44.2707 145.292 44.436C145.495 44.6013 145.863 44.684 146.396 44.684H149.372C150.092 44.684 150.657 44.836 151.068 45.14C151.484 45.444 151.692 45.868 151.692 46.412C151.692 46.9133 151.513 47.3933 151.156 47.852C150.799 48.316 150.287 48.6947 149.62 48.988C148.953 49.2867 148.156 49.436 147.228 49.436ZM147.452 43.26C146.865 43.26 146.335 43.1427 145.86 42.908C145.391 42.6733 145.017 42.3453 144.74 41.924C144.468 41.5027 144.332 41.0147 144.332 40.46C144.332 39.9 144.468 39.4093 144.74 38.988C145.017 38.5667 145.391 38.2413 145.86 38.012C146.335 37.7773 146.865 37.66 147.452 37.66C148.023 37.66 148.54 37.7773 149.004 38.012C149.473 38.2413 149.847 38.5667 150.124 38.988C150.401 39.4093 150.54 39.9 150.54 40.46C150.54 41.0147 150.401 41.5027 150.124 41.924C149.847 42.3453 149.473 42.6733 149.004 42.908C148.54 43.1427 148.023 43.26 147.452 43.26ZM147.452 42.364C148.039 42.364 148.495 42.1827 148.82 41.82C149.145 41.4573 149.308 41.004 149.308 40.46C149.308 39.9 149.145 39.4467 148.82 39.1C148.495 38.748 148.039 38.572 147.452 38.572C146.871 38.572 146.412 38.748 146.076 39.1C145.745 39.4467 145.58 39.9 145.58 40.46C145.58 41.004 145.745 41.4573 146.076 41.82C146.412 42.1827 146.871 42.364 147.452 42.364ZM149.964 38.876L149.372 38.636C149.372 38.188 149.46 37.796 149.636 37.46C149.812 37.1187 150.063 36.8547 150.388 36.668C150.713 36.476 151.1 36.38 151.548 36.38L151.452 37.612C150.972 37.612 150.604 37.716 150.348 37.924C150.092 38.1267 149.964 38.444 149.964 38.876ZM156.371 45.692C155.71 45.692 155.118 45.524 154.595 45.188C154.078 44.8467 153.667 44.3747 153.363 43.772C153.065 43.1693 152.915 42.476 152.915 41.692C152.915 40.8547 153.065 40.1347 153.363 39.532C153.662 38.9293 154.07 38.468 154.587 38.148C155.11 37.8227 155.705 37.66 156.371 37.66C156.953 37.66 157.449 37.7773 157.859 38.012C158.27 38.2467 158.601 38.564 158.851 38.964C159.102 39.364 159.275 39.8173 159.371 40.324C159.473 40.8253 159.502 41.3453 159.459 41.884H153.923V41.116H158.635L158.267 41.356C158.283 41.0413 158.265 40.7267 158.211 40.412C158.163 40.0973 158.07 39.8093 157.931 39.548C157.793 39.2813 157.598 39.068 157.347 38.908C157.097 38.748 156.777 38.668 156.387 38.668C155.897 38.668 155.486 38.7933 155.155 39.044C154.825 39.2947 154.577 39.6253 154.411 40.036C154.246 40.4413 154.163 40.8813 154.163 41.356V41.868C154.163 42.4013 154.243 42.8787 154.403 43.3C154.569 43.7213 154.814 44.0547 155.139 44.3C155.465 44.5453 155.875 44.668 156.371 44.668C156.867 44.668 157.275 44.548 157.595 44.308C157.915 44.068 158.11 43.7133 158.179 43.244H159.475C159.395 43.7507 159.214 44.188 158.931 44.556C158.649 44.9187 158.289 45.1987 157.851 45.396C157.414 45.5933 156.921 45.692 156.371 45.692ZM166.467 45.5V36.668C166.467 36.1613 166.563 35.748 166.755 35.428C166.952 35.1027 167.214 34.8627 167.539 34.708C167.87 34.5533 168.238 34.476 168.643 34.476C168.862 34.476 169.083 34.492 169.307 34.524C169.536 34.556 169.763 34.604 169.987 34.668L169.747 35.66C169.587 35.596 169.427 35.548 169.267 35.516C169.112 35.484 168.963 35.468 168.819 35.468C168.648 35.468 168.478 35.5 168.307 35.564C168.136 35.628 167.995 35.748 167.883 35.924C167.771 36.1 167.715 36.3533 167.715 36.684V45.5H166.467ZM165.219 38.716V37.852H169.299V38.716H165.219ZM174.463 45.692C173.775 45.692 173.162 45.54 172.623 45.236C172.09 44.932 171.669 44.4813 171.359 43.884C171.05 43.2867 170.895 42.5507 170.895 41.676C170.895 40.796 171.05 40.06 171.359 39.468C171.669 38.8707 172.09 38.42 172.623 38.116C173.162 37.812 173.775 37.66 174.463 37.66C175.146 37.66 175.754 37.812 176.287 38.116C176.826 38.42 177.247 38.8707 177.551 39.468C177.861 40.06 178.015 40.796 178.015 41.676C178.015 42.5507 177.861 43.2867 177.551 43.884C177.247 44.4813 176.826 44.932 176.287 45.236C175.754 45.54 175.146 45.692 174.463 45.692ZM174.431 44.604C174.927 44.604 175.349 44.4867 175.695 44.252C176.042 44.012 176.303 43.6733 176.479 43.236C176.661 42.7987 176.751 42.2787 176.751 41.676C176.751 40.764 176.562 40.0467 176.183 39.524C175.805 38.996 175.242 38.732 174.495 38.732C173.994 38.732 173.57 38.852 173.223 39.092C172.882 39.3267 172.621 39.6653 172.439 40.108C172.263 40.5453 172.175 41.068 172.175 41.676C172.175 42.5773 172.365 43.292 172.743 43.82C173.127 44.3427 173.69 44.604 174.431 44.604ZM180.605 45.5V37.836H181.853V45.5H180.605ZM181.469 42.044C181.469 41.0733 181.563 40.268 181.749 39.628C181.936 38.9827 182.208 38.5027 182.565 38.188C182.928 37.868 183.368 37.708 183.885 37.708C184.056 37.708 184.211 37.7213 184.349 37.748C184.493 37.7693 184.637 37.804 184.781 37.852L184.701 39.084C184.552 39.036 184.389 38.996 184.213 38.964C184.037 38.9267 183.88 38.908 183.741 38.908C183.288 38.908 182.923 39.0387 182.645 39.3C182.368 39.556 182.165 39.9187 182.037 40.388C181.915 40.8573 181.853 41.4093 181.853 42.044H181.469ZM190.504 45.5V34.588H191.752V45.5H190.504ZM199.884 45.5L199.724 43.82V40.54C199.724 39.852 199.577 39.3587 199.284 39.06C198.991 38.756 198.551 38.604 197.964 38.604C197.633 38.604 197.332 38.652 197.06 38.748C196.793 38.844 196.58 38.9933 196.42 39.196C196.265 39.3933 196.188 39.6493 196.188 39.964H194.796C194.796 39.4093 194.932 38.964 195.204 38.628C195.476 38.2867 195.849 38.0413 196.324 37.892C196.804 37.7373 197.351 37.66 197.964 37.66C198.551 37.66 199.071 37.7587 199.524 37.956C199.977 38.1533 200.332 38.468 200.588 38.9C200.844 39.3267 200.972 39.884 200.972 40.572V45.5H199.884ZM197.276 45.692C196.647 45.692 196.127 45.58 195.716 45.356C195.305 45.132 194.999 44.8413 194.796 44.484C194.593 44.1267 194.492 43.7507 194.492 43.356C194.492 42.8387 194.62 42.4173 194.876 42.092C195.137 41.7667 195.492 41.5293 195.94 41.38C196.388 41.2253 196.892 41.148 197.452 41.148C197.852 41.148 198.252 41.188 198.652 41.268C199.057 41.348 199.452 41.4573 199.836 41.596V42.38C199.516 42.252 199.153 42.1507 198.748 42.076C198.348 42.0013 197.98 41.964 197.644 41.964C197.132 41.964 196.7 42.0707 196.348 42.284C195.996 42.492 195.82 42.8493 195.82 43.356C195.82 43.7293 195.953 44.0493 196.22 44.316C196.492 44.5827 196.924 44.716 197.516 44.716C197.932 44.716 198.305 44.62 198.636 44.428C198.972 44.2307 199.236 43.9853 199.428 43.692C199.625 43.3987 199.724 43.1053 199.724 42.812H200.028C200.028 43.324 199.916 43.7987 199.692 44.236C199.473 44.6733 199.159 45.0253 198.748 45.292C198.337 45.5587 197.847 45.692 197.276 45.692ZM206.472 45.692C206.056 45.692 205.683 45.612 205.352 45.452C205.022 45.292 204.76 45.052 204.568 44.732C204.376 44.412 204.28 44.012 204.28 43.532V35.724H205.512V43.5C205.512 44.2893 205.88 44.684 206.616 44.684C206.835 44.684 207.046 44.66 207.248 44.612C207.456 44.564 207.688 44.492 207.944 44.396L208.12 45.292C207.848 45.4093 207.576 45.5053 207.304 45.58C207.038 45.6547 206.76 45.692 206.472 45.692ZM203.048 38.716V37.852H207.928V38.716H203.048ZM212.952 45.692C212.291 45.692 211.699 45.524 211.176 45.188C210.659 44.8467 210.248 44.3747 209.944 43.772C209.645 43.1693 209.496 42.476 209.496 41.692C209.496 40.8547 209.645 40.1347 209.944 39.532C210.243 38.9293 210.651 38.468 211.168 38.148C211.691 37.8227 212.285 37.66 212.952 37.66C213.533 37.66 214.029 37.7773 214.44 38.012C214.851 38.2467 215.181 38.564 215.432 38.964C215.683 39.364 215.856 39.8173 215.952 40.324C216.053 40.8253 216.083 41.3453 216.04 41.884H210.504V41.116H215.216L214.848 41.356C214.864 41.0413 214.845 40.7267 214.792 40.412C214.744 40.0973 214.651 39.8093 214.512 39.548C214.373 39.2813 214.179 39.068 213.928 38.908C213.677 38.748 213.357 38.668 212.968 38.668C212.477 38.668 212.067 38.7933 211.736 39.044C211.405 39.2947 211.157 39.6253 210.992 40.036C210.827 40.4413 210.744 40.8813 210.744 41.356V41.868C210.744 42.4013 210.824 42.8787 210.984 43.3C211.149 43.7213 211.395 44.0547 211.72 44.3C212.045 44.5453 212.456 44.668 212.952 44.668C213.448 44.668 213.856 44.548 214.176 44.308C214.496 44.068 214.691 43.7133 214.76 43.244H216.056C215.976 43.7507 215.795 44.188 215.512 44.556C215.229 44.9187 214.869 45.1987 214.432 45.396C213.995 45.5933 213.501 45.692 212.952 45.692ZM218.675 45.5V37.836H219.923V45.5H218.675ZM219.539 42.044C219.539 41.0733 219.632 40.268 219.819 39.628C220.005 38.9827 220.277 38.5027 220.635 38.188C220.997 37.868 221.437 37.708 221.955 37.708C222.125 37.708 222.28 37.7213 222.419 37.748C222.563 37.7693 222.707 37.804 222.851 37.852L222.771 39.084C222.621 39.036 222.459 38.996 222.283 38.964C222.107 38.9267 221.949 38.908 221.811 38.908C221.357 38.908 220.992 39.0387 220.715 39.3C220.437 39.556 220.235 39.9187 220.107 40.388C219.984 40.8573 219.923 41.4093 219.923 42.044H219.539Z" fill="#333333"/>
</g>
<defs>
<filter id="filter0_d_7031_5652" x="27" y="0" width="228.767" height="68" filterUnits="userSpaceOnUse" color-interpolation-filters="sRGB">
<feFlood flood-opacity="0" result="BackgroundImageFix"/>
<feColorMatrix in="SourceAlpha" type="matrix" values="0 0 0 0 0 0 0 0 0 0 0 0 0 0 0 0 0 0 127 0" result="hardAlpha"/>
<feOffset dy="4"/>
<feGaussianBlur stdDeviation="3"/>
<feComposite in2="hardAlpha" operator="out"/>
<feColorMatrix type="matrix" values="0 0 0 0 0 0 0 0 0 0 0 0 0 0 0 0 0 0 0.1 0"/>
<feBlend mode="normal" in2="BackgroundImageFix" result="effect1_dropShadow_7031_5652"/>
<feBlend mode="normal" in="SourceGraphic" in2="effect1_dropShadow_7031_5652" result="shape"/>
</filter>
<filter id="filter1_d_7031_5652" x="43.7291" y="12.4756" width="185.122" height="46.96" filterUnits="userSpaceOnUse" color-interpolation-filters="sRGB">
<feFlood flood-opacity="0" result="BackgroundImageFix"/>
<feColorMatrix in="SourceAlpha" type="matrix" values="0 0 0 0 0 0 0 0 0 0 0 0 0 0 0 0 0 0 127 0" result="hardAlpha"/>
<feOffset dy="4"/>
<feGaussianBlur stdDeviation="3"/>
<feComposite in2="hardAlpha" operator="out"/>
<feColorMatrix type="matrix" values="0 0 0 0 0 0 0 0 0 0 0 0 0 0 0 0 0 0 0.05 0"/>
<feBlend mode="normal" in2="BackgroundImageFix" result="effect1_dropShadow_7031_5652"/>
<feBlend mode="normal" in="SourceGraphic" in2="effect1_dropShadow_7031_5652" result="shape"/>
</filter>
</defs>
</svg>
