<svg width="256" height="68" viewBox="0 0 256 68" fill="none" xmlns="http://www.w3.org/2000/svg">
<mask id="path-1-inside-1_7061_5948" fill="white">
<path d="M248.724 27.3669L239 19L239 11C239 6.02944 234.971 2 230 2L8.99997 1.99998C4.02941 1.99998 -2.59742e-05 6.02942 -2.64087e-05 11L-2.97308e-05 49C-3.01653e-05 53.9705 4.0294 58 8.99997 58L230 58C234.971 58 239 53.9706 239 49L239 39.5L248.612 32.0069C250.106 30.8425 250.16 28.6022 248.724 27.3669Z"/>
</mask>
<path d="M248.724 27.3669L239 19L239 11C239 6.02944 234.971 2 230 2L8.99997 1.99998C4.02941 1.99998 -2.59742e-05 6.02942 -2.64087e-05 11L-2.97308e-05 49C-3.01653e-05 53.9705 4.0294 58 8.99997 58L230 58C234.971 58 239 53.9706 239 49L239 39.5L248.612 32.0069C250.106 30.8425 250.16 28.6022 248.724 27.3669Z" fill="white"/>
<path d="M239 19L237.6 19L237.6 19.6423L238.087 20.0612L239 19ZM248.724 27.3669L249.637 26.3056L249.637 26.3056L248.724 27.3669ZM248.612 32.0069L247.751 30.9028L247.751 30.9028L248.612 32.0069ZM239 39.5L238.139 38.3959L237.6 38.8162L237.6 39.5L239 39.5ZM238.087 20.0612L247.811 28.4281L249.637 26.3056L239.913 17.9388L238.087 20.0612ZM247.751 30.9028L238.139 38.3959L239.861 40.6041L249.473 33.1111L247.751 30.9028ZM247.811 28.4281C248.577 29.0869 248.548 30.2817 247.751 30.9028L249.473 33.1111C251.663 31.4032 251.743 28.1175 249.637 26.3056L247.811 28.4281ZM230 56.6L8.99997 56.6L8.99997 59.4L230 59.4L230 56.6ZM1.39997 49L1.39997 11L-1.40003 11L-1.40003 49L1.39997 49ZM8.99997 3.39998L230 3.4L230 0.599998L8.99997 0.599979L8.99997 3.39998ZM237.6 39.5L237.6 49L240.4 49L240.4 39.5L237.6 39.5ZM237.6 11L237.6 19L240.4 19L240.4 11L237.6 11ZM230 3.4C234.197 3.4 237.6 6.80264 237.6 11L240.4 11C240.4 5.25624 235.744 0.599999 230 0.599998L230 3.4ZM1.39997 11C1.39997 6.80261 4.80261 3.39998 8.99997 3.39998L8.99997 0.599979C3.25621 0.599978 -1.40003 5.25622 -1.40003 11L1.39997 11ZM8.99997 56.6C4.8026 56.6 1.39997 53.1973 1.39997 49L-1.40003 49C-1.40003 54.7437 3.2562 59.4 8.99997 59.4L8.99997 56.6ZM230 59.4C235.744 59.4 240.4 54.7438 240.4 49L237.6 49C237.6 53.1974 234.197 56.6 230 56.6L230 59.4Z" fill="white" mask="url(#path-1-inside-1_7061_5948)"/>
<g filter="url(#filter0_d_7061_5948)">
<mask id="path-3-inside-2_7061_5948" fill="white">
<path d="M248.724 27.3669L239 19L239 11C239 6.02944 234.971 2 230 2L64 1.99998C59.0294 1.99998 55 6.02942 55 11L55 49C55 53.9705 59.0294 58 64 58L230 58C234.971 58 239 53.9706 239 49L239 39.5L248.612 32.0069C250.106 30.8425 250.16 28.6022 248.724 27.3669Z"/>
</mask>
<path d="M248.724 27.3669L239 19L239 11C239 6.02944 234.971 2 230 2L64 1.99998C59.0294 1.99998 55 6.02942 55 11L55 49C55 53.9705 59.0294 58 64 58L230 58C234.971 58 239 53.9706 239 49L239 39.5L248.612 32.0069C250.106 30.8425 250.16 28.6022 248.724 27.3669Z" fill="white"/>
<path d="M239 19L237.6 19L237.6 19.6423L238.087 20.0612L239 19ZM248.724 27.3669L249.637 26.3056L249.637 26.3056L248.724 27.3669ZM248.612 32.0069L247.751 30.9028L247.751 30.9028L248.612 32.0069ZM239 39.5L238.139 38.3959L237.6 38.8162L237.6 39.5L239 39.5ZM230 58L230 59.4L230 59.4L230 58ZM64 58L64 56.6H64L64 58ZM238.087 20.0612L247.811 28.4281L249.637 26.3056L239.913 17.9388L238.087 20.0612ZM247.751 30.9028L238.139 38.3959L239.861 40.6041L249.473 33.1111L247.751 30.9028ZM247.811 28.4281C248.577 29.0869 248.548 30.2817 247.751 30.9028L249.473 33.1111C251.663 31.4032 251.743 28.1175 249.637 26.3056L247.811 28.4281ZM230 56.6L64 56.6L64 59.4L230 59.4L230 56.6ZM56.4 49L56.4 11L53.6 11L53.6 49L56.4 49ZM64 3.39998L230 3.4L230 0.599998L64 0.599984L64 3.39998ZM237.6 39.5L237.6 49L240.4 49L240.4 39.5L237.6 39.5ZM237.6 11L237.6 19L240.4 19L240.4 11L237.6 11ZM230 3.4C234.197 3.4 237.6 6.80264 237.6 11L240.4 11C240.4 5.25624 235.744 0.599999 230 0.599998L230 3.4ZM56.4 11C56.4 6.80262 59.8026 3.39998 64 3.39998L64 0.599984C58.2562 0.599983 53.6 5.25622 53.6 11L56.4 11ZM64 56.6C59.8026 56.6 56.4 53.1973 56.4 49L53.6 49C53.6 54.7437 58.2562 59.4 64 59.4L64 56.6ZM230 59.4C235.744 59.4 240.4 54.7438 240.4 49L237.6 49C237.6 53.1974 234.197 56.6 230 56.6L230 59.4Z" fill="#333333" mask="url(#path-3-inside-2_7061_5948)"/>
</g>
<g filter="url(#filter1_d_7061_5948)">
<path d="M82.772 25.692C81.972 25.692 81.244 25.484 80.588 25.068C79.932 24.652 79.4093 24.0627 79.02 23.3C78.6307 22.5373 78.436 21.6333 78.436 20.588C78.436 19.7187 78.5613 18.9533 78.812 18.292C79.0627 17.6307 79.4067 17.076 79.844 16.628C80.2813 16.18 80.7827 15.844 81.348 15.62C81.9187 15.3907 82.5213 15.276 83.156 15.276C83.94 15.276 84.628 15.4387 85.22 15.764C85.812 16.084 86.3187 16.5933 86.74 17.292L85.556 17.708C85.1987 17.2653 84.8147 16.94 84.404 16.732C83.9987 16.5187 83.5667 16.412 83.108 16.412C82.5053 16.412 81.9507 16.58 81.444 16.916C80.9373 17.252 80.5293 17.732 80.22 18.356C79.916 18.98 79.764 19.724 79.764 20.588C79.764 21.356 79.8893 22.0387 80.14 22.636C80.3907 23.228 80.7453 23.6947 81.204 24.036C81.668 24.372 82.2173 24.54 82.852 24.54C83.3373 24.54 83.772 24.428 84.156 24.204C84.5453 23.98 84.852 23.644 85.076 23.196C85.3 22.7427 85.412 22.172 85.412 21.484H85.796C85.796 22.3373 85.6947 23.0787 85.492 23.708C85.2893 24.3373 84.964 24.8253 84.516 25.172C84.0733 25.5187 83.492 25.692 82.772 25.692ZM85.636 25.5L85.412 23.132V21.452L82.884 21.372V20.524H86.628V25.5H85.636ZM92.4609 25.692C91.7729 25.692 91.1595 25.54 90.6209 25.236C90.0875 24.932 89.6662 24.4813 89.3569 23.884C89.0475 23.2867 88.8929 22.5507 88.8929 21.676C88.8929 20.796 89.0475 20.06 89.3569 19.468C89.6662 18.8707 90.0875 18.42 90.6209 18.116C91.1595 17.812 91.7729 17.66 92.4609 17.66C93.1435 17.66 93.7515 17.812 94.2849 18.116C94.8235 18.42 95.2449 18.8707 95.5489 19.468C95.8582 20.06 96.0129 20.796 96.0129 21.676C96.0129 22.5507 95.8582 23.2867 95.5489 23.884C95.2449 24.4813 94.8235 24.932 94.2849 25.236C93.7515 25.54 93.1435 25.692 92.4609 25.692ZM92.4289 24.604C92.9249 24.604 93.3462 24.4867 93.6929 24.252C94.0395 24.012 94.3009 23.6733 94.4769 23.236C94.6582 22.7987 94.7489 22.2787 94.7489 21.676C94.7489 20.764 94.5595 20.0467 94.1809 19.524C93.8022 18.996 93.2395 18.732 92.4929 18.732C91.9915 18.732 91.5675 18.852 91.2209 19.092C90.8795 19.3267 90.6182 19.6653 90.4369 20.108C90.2609 20.5453 90.1729 21.068 90.1729 21.676C90.1729 22.5773 90.3622 23.292 90.7409 23.82C91.1249 24.3427 91.6875 24.604 92.4289 24.604ZM104.912 25.692C104.496 25.692 104.122 25.612 103.792 25.452C103.461 25.292 103.2 25.052 103.008 24.732C102.816 24.412 102.72 24.012 102.72 23.532V15.724H103.952V23.5C103.952 24.2893 104.32 24.684 105.056 24.684C105.274 24.684 105.485 24.66 105.688 24.612C105.896 24.564 106.128 24.492 106.384 24.396L106.56 25.292C106.288 25.4093 106.016 25.5053 105.744 25.58C105.477 25.6547 105.2 25.692 104.912 25.692ZM101.488 18.716V17.852H106.368V18.716H101.488ZM111.503 25.692C110.815 25.692 110.202 25.54 109.663 25.236C109.13 24.932 108.709 24.4813 108.399 23.884C108.09 23.2867 107.935 22.5507 107.935 21.676C107.935 20.796 108.09 20.06 108.399 19.468C108.709 18.8707 109.13 18.42 109.663 18.116C110.202 17.812 110.815 17.66 111.503 17.66C112.186 17.66 112.794 17.812 113.327 18.116C113.866 18.42 114.287 18.8707 114.591 19.468C114.901 20.06 115.055 20.796 115.055 21.676C115.055 22.5507 114.901 23.2867 114.591 23.884C114.287 24.4813 113.866 24.932 113.327 25.236C112.794 25.54 112.186 25.692 111.503 25.692ZM111.471 24.604C111.967 24.604 112.389 24.4867 112.735 24.252C113.082 24.012 113.343 23.6733 113.519 23.236C113.701 22.7987 113.791 22.2787 113.791 21.676C113.791 20.764 113.602 20.0467 113.223 19.524C112.845 18.996 112.282 18.732 111.535 18.732C111.034 18.732 110.61 18.852 110.263 19.092C109.922 19.3267 109.661 19.6653 109.479 20.108C109.303 20.5453 109.215 21.068 109.215 21.676C109.215 22.5773 109.405 23.292 109.783 23.82C110.167 24.3427 110.73 24.604 111.471 24.604ZM123.954 25.692C123.538 25.692 123.165 25.612 122.834 25.452C122.504 25.292 122.242 25.052 122.05 24.732C121.858 24.412 121.762 24.012 121.762 23.532V15.724H122.994V23.5C122.994 24.2893 123.362 24.684 124.098 24.684C124.317 24.684 124.528 24.66 124.73 24.612C124.938 24.564 125.17 24.492 125.426 24.396L125.602 25.292C125.33 25.4093 125.058 25.5053 124.786 25.58C124.52 25.6547 124.242 25.692 123.954 25.692ZM120.53 18.716V17.852H125.41V18.716H120.53ZM133.218 25.5V21.004C133.218 20.2733 133.042 19.7187 132.69 19.34C132.343 18.956 131.869 18.764 131.266 18.764C130.807 18.764 130.41 18.8893 130.074 19.14C129.738 19.3907 129.479 19.7507 129.298 20.22C129.117 20.684 129.026 21.2387 129.026 21.884H128.546C128.546 20.9933 128.663 20.2333 128.898 19.604C129.133 18.9747 129.474 18.4947 129.922 18.164C130.375 17.828 130.925 17.66 131.57 17.66C132.173 17.66 132.687 17.796 133.114 18.068C133.546 18.3347 133.877 18.7187 134.106 19.22C134.335 19.7213 134.45 20.316 134.45 21.004V25.5H133.218ZM127.778 25.5V14.588H129.026V25.5H127.778ZM140.25 25.692C139.589 25.692 138.997 25.524 138.474 25.188C137.957 24.8467 137.546 24.3747 137.242 23.772C136.943 23.1693 136.794 22.476 136.794 21.692C136.794 20.8547 136.943 20.1347 137.242 19.532C137.541 18.9293 137.949 18.468 138.466 18.148C138.989 17.8227 139.583 17.66 140.25 17.66C140.831 17.66 141.327 17.7773 141.738 18.012C142.149 18.2467 142.479 18.564 142.73 18.964C142.981 19.364 143.154 19.8173 143.25 20.324C143.351 20.8253 143.381 21.3453 143.338 21.884H137.802V21.116H142.514L142.146 21.356C142.162 21.0413 142.143 20.7267 142.09 20.412C142.042 20.0973 141.949 19.8093 141.81 19.548C141.671 19.2813 141.477 19.068 141.226 18.908C140.975 18.748 140.655 18.668 140.266 18.668C139.775 18.668 139.365 18.7933 139.034 19.044C138.703 19.2947 138.455 19.6253 138.29 20.036C138.125 20.4413 138.042 20.8813 138.042 21.356V21.868C138.042 22.4013 138.122 22.8787 138.282 23.3C138.447 23.7213 138.693 24.0547 139.018 24.3C139.343 24.5453 139.754 24.668 140.25 24.668C140.746 24.668 141.154 24.548 141.474 24.308C141.794 24.068 141.989 23.7133 142.058 23.244H143.354C143.274 23.7507 143.093 24.188 142.81 24.556C142.527 24.9187 142.167 25.1987 141.73 25.396C141.293 25.5933 140.799 25.692 140.25 25.692ZM153.402 25.692C152.842 25.692 152.354 25.564 151.938 25.308C151.527 25.052 151.21 24.6787 150.986 24.188C150.762 23.692 150.65 23.0893 150.65 22.38H151.178C151.178 22.8547 151.276 23.2547 151.474 23.58C151.671 23.9053 151.927 24.1533 152.242 24.324C152.562 24.4893 152.9 24.572 153.258 24.572C153.642 24.572 154.01 24.4627 154.362 24.244C154.714 24.02 155.002 23.692 155.226 23.26C155.45 22.828 155.562 22.2947 155.562 21.66C155.562 21.052 155.458 20.532 155.25 20.1C155.047 19.668 154.772 19.3373 154.426 19.108C154.079 18.8787 153.695 18.764 153.274 18.764C152.911 18.764 152.57 18.852 152.25 19.028C151.93 19.204 151.671 19.4627 151.474 19.804C151.276 20.14 151.178 20.556 151.178 21.052H150.65C150.65 20.3107 150.772 19.6893 151.018 19.188C151.263 18.6813 151.596 18.3 152.018 18.044C152.439 17.788 152.911 17.66 153.434 17.66C154.031 17.66 154.588 17.82 155.106 18.14C155.623 18.46 156.042 18.9187 156.362 19.516C156.682 20.1133 156.842 20.828 156.842 21.66C156.842 22.5027 156.679 23.2253 156.354 23.828C156.034 24.4307 155.612 24.892 155.09 25.212C154.567 25.532 154.004 25.692 153.402 25.692ZM149.93 29.26V17.852H150.97L151.178 19.644V29.26H149.93ZM164.185 25.5L164.025 23.82V20.54C164.025 19.852 163.878 19.3587 163.585 19.06C163.292 18.756 162.852 18.604 162.265 18.604C161.934 18.604 161.633 18.652 161.361 18.748C161.094 18.844 160.881 18.9933 160.721 19.196C160.566 19.3933 160.489 19.6493 160.489 19.964H159.097C159.097 19.4093 159.233 18.964 159.505 18.628C159.777 18.2867 160.15 18.0413 160.625 17.892C161.105 17.7373 161.652 17.66 162.265 17.66C162.852 17.66 163.372 17.7587 163.825 17.956C164.278 18.1533 164.633 18.468 164.889 18.9C165.145 19.3267 165.273 19.884 165.273 20.572V25.5H164.185ZM161.577 25.692C160.948 25.692 160.428 25.58 160.017 25.356C159.606 25.132 159.3 24.8413 159.097 24.484C158.894 24.1267 158.793 23.7507 158.793 23.356C158.793 22.8387 158.921 22.4173 159.177 22.092C159.438 21.7667 159.793 21.5293 160.241 21.38C160.689 21.2253 161.193 21.148 161.753 21.148C162.153 21.148 162.553 21.188 162.953 21.268C163.358 21.348 163.753 21.4573 164.137 21.596V22.38C163.817 22.252 163.454 22.1507 163.049 22.076C162.649 22.0013 162.281 21.964 161.945 21.964C161.433 21.964 161.001 22.0707 160.649 22.284C160.297 22.492 160.121 22.8493 160.121 23.356C160.121 23.7293 160.254 24.0493 160.521 24.316C160.793 24.5827 161.225 24.716 161.817 24.716C162.233 24.716 162.606 24.62 162.937 24.428C163.273 24.2307 163.537 23.9853 163.729 23.692C163.926 23.3987 164.025 23.1053 164.025 22.812H164.329C164.329 23.324 164.217 23.7987 163.993 24.236C163.774 24.6733 163.46 25.0253 163.049 25.292C162.638 25.5587 162.148 25.692 161.577 25.692ZM168.422 25.5V17.836H169.67V25.5H168.422ZM169.286 22.044C169.286 21.0733 169.379 20.268 169.566 19.628C169.752 18.9827 170.024 18.5027 170.382 18.188C170.744 17.868 171.184 17.708 171.702 17.708C171.872 17.708 172.027 17.7213 172.166 17.748C172.31 17.7693 172.454 17.804 172.598 17.852L172.518 19.084C172.368 19.036 172.206 18.996 172.03 18.964C171.854 18.9267 171.696 18.908 171.558 18.908C171.104 18.908 170.739 19.0387 170.462 19.3C170.184 19.556 169.982 19.9187 169.854 20.388C169.731 20.8573 169.67 21.4093 169.67 22.044H169.286ZM179.099 25.5L178.939 23.82V20.54C178.939 19.852 178.792 19.3587 178.499 19.06C178.206 18.756 177.766 18.604 177.179 18.604C176.848 18.604 176.547 18.652 176.275 18.748C176.008 18.844 175.795 18.9933 175.635 19.196C175.48 19.3933 175.403 19.6493 175.403 19.964H174.011C174.011 19.4093 174.147 18.964 174.419 18.628C174.691 18.2867 175.064 18.0413 175.539 17.892C176.019 17.7373 176.566 17.66 177.179 17.66C177.766 17.66 178.286 17.7587 178.739 17.956C179.192 18.1533 179.547 18.468 179.803 18.9C180.059 19.3267 180.187 19.884 180.187 20.572V25.5H179.099ZM176.491 25.692C175.862 25.692 175.342 25.58 174.931 25.356C174.52 25.132 174.214 24.8413 174.011 24.484C173.808 24.1267 173.707 23.7507 173.707 23.356C173.707 22.8387 173.835 22.4173 174.091 22.092C174.352 21.7667 174.707 21.5293 175.155 21.38C175.603 21.2253 176.107 21.148 176.667 21.148C177.067 21.148 177.467 21.188 177.867 21.268C178.272 21.348 178.667 21.4573 179.051 21.596V22.38C178.731 22.252 178.368 22.1507 177.963 22.076C177.563 22.0013 177.195 21.964 176.859 21.964C176.347 21.964 175.915 22.0707 175.563 22.284C175.211 22.492 175.035 22.8493 175.035 23.356C175.035 23.7293 175.168 24.0493 175.435 24.316C175.707 24.5827 176.139 24.716 176.731 24.716C177.147 24.716 177.52 24.62 177.851 24.428C178.187 24.2307 178.451 23.9853 178.643 23.692C178.84 23.3987 178.939 23.1053 178.939 22.812H179.243C179.243 23.324 179.131 23.7987 178.907 24.236C178.688 24.6733 178.374 25.0253 177.963 25.292C177.552 25.5587 177.062 25.692 176.491 25.692ZM186.039 29.436C185.255 29.436 184.575 29.324 183.999 29.1C183.423 28.8813 182.975 28.5853 182.655 28.212C182.341 27.844 182.183 27.436 182.183 26.988C182.183 26.396 182.399 25.9427 182.831 25.628C183.269 25.3187 183.831 25.164 184.519 25.164L185.207 25.596C184.631 25.596 184.186 25.716 183.871 25.956C183.557 26.196 183.399 26.524 183.399 26.94C183.399 27.356 183.623 27.708 184.071 27.996C184.519 28.284 185.175 28.428 186.039 28.428C186.679 28.428 187.239 28.3347 187.719 28.148C188.205 27.9667 188.581 27.7267 188.847 27.428C189.119 27.1347 189.255 26.8173 189.255 26.476C189.255 26.236 189.167 26.028 188.991 25.852C188.815 25.6813 188.546 25.596 188.183 25.596H185.207C184.69 25.596 184.242 25.5187 183.863 25.364C183.49 25.204 183.202 24.996 182.999 24.74C182.797 24.484 182.695 24.204 182.695 23.9C182.695 23.58 182.786 23.308 182.967 23.084C183.149 22.86 183.383 22.6893 183.671 22.572C183.965 22.4547 184.279 22.396 184.615 22.396L184.855 22.86C184.695 22.86 184.533 22.8973 184.367 22.972C184.207 23.0413 184.071 23.148 183.959 23.292C183.853 23.4307 183.799 23.6067 183.799 23.82C183.799 24.0653 183.901 24.2707 184.103 24.436C184.306 24.6013 184.674 24.684 185.207 24.684H188.183C188.903 24.684 189.469 24.836 189.879 25.14C190.295 25.444 190.503 25.868 190.503 26.412C190.503 26.9133 190.325 27.3933 189.967 27.852C189.61 28.316 189.098 28.6947 188.431 28.988C187.765 29.2867 186.967 29.436 186.039 29.436ZM186.263 23.26C185.677 23.26 185.146 23.1427 184.671 22.908C184.202 22.6733 183.829 22.3453 183.551 21.924C183.279 21.5027 183.143 21.0147 183.143 20.46C183.143 19.9 183.279 19.4093 183.551 18.988C183.829 18.5667 184.202 18.2413 184.671 18.012C185.146 17.7773 185.677 17.66 186.263 17.66C186.834 17.66 187.351 17.7773 187.815 18.012C188.285 18.2413 188.658 18.5667 188.935 18.988C189.213 19.4093 189.351 19.9 189.351 20.46C189.351 21.0147 189.213 21.5027 188.935 21.924C188.658 22.3453 188.285 22.6733 187.815 22.908C187.351 23.1427 186.834 23.26 186.263 23.26ZM186.263 22.364C186.85 22.364 187.306 22.1827 187.631 21.82C187.957 21.4573 188.119 21.004 188.119 20.46C188.119 19.9 187.957 19.4467 187.631 19.1C187.306 18.748 186.85 18.572 186.263 18.572C185.682 18.572 185.223 18.748 184.887 19.1C184.557 19.4467 184.391 19.9 184.391 20.46C184.391 21.004 184.557 21.4573 184.887 21.82C185.223 22.1827 185.682 22.364 186.263 22.364ZM188.775 18.876L188.183 18.636C188.183 18.188 188.271 17.796 188.447 17.46C188.623 17.1187 188.874 16.8547 189.199 16.668C189.525 16.476 189.911 16.38 190.359 16.38L190.263 17.612C189.783 17.612 189.415 17.716 189.159 17.924C188.903 18.1267 188.775 18.444 188.775 18.876ZM192.527 25.5V17.836H193.775V25.5H192.527ZM193.391 22.044C193.391 21.0733 193.484 20.268 193.671 19.628C193.857 18.9827 194.129 18.5027 194.487 18.188C194.849 17.868 195.289 17.708 195.807 17.708C195.977 17.708 196.132 17.7213 196.271 17.748C196.415 17.7693 196.559 17.804 196.703 17.852L196.623 19.084C196.473 19.036 196.311 18.996 196.135 18.964C195.959 18.9267 195.801 18.908 195.663 18.908C195.209 18.908 194.844 19.0387 194.567 19.3C194.289 19.556 194.087 19.9187 193.959 20.388C193.836 20.8573 193.775 21.4093 193.775 22.044H193.391ZM203.204 25.5L203.044 23.82V20.54C203.044 19.852 202.897 19.3587 202.604 19.06C202.311 18.756 201.871 18.604 201.284 18.604C200.953 18.604 200.652 18.652 200.38 18.748C200.113 18.844 199.9 18.9933 199.74 19.196C199.585 19.3933 199.508 19.6493 199.508 19.964H198.116C198.116 19.4093 198.252 18.964 198.524 18.628C198.796 18.2867 199.169 18.0413 199.644 17.892C200.124 17.7373 200.671 17.66 201.284 17.66C201.871 17.66 202.391 17.7587 202.844 17.956C203.297 18.1533 203.652 18.468 203.908 18.9C204.164 19.3267 204.292 19.884 204.292 20.572V25.5H203.204ZM200.596 25.692C199.967 25.692 199.447 25.58 199.036 25.356C198.625 25.132 198.319 24.8413 198.116 24.484C197.913 24.1267 197.812 23.7507 197.812 23.356C197.812 22.8387 197.94 22.4173 198.196 22.092C198.457 21.7667 198.812 21.5293 199.26 21.38C199.708 21.2253 200.212 21.148 200.772 21.148C201.172 21.148 201.572 21.188 201.972 21.268C202.377 21.348 202.772 21.4573 203.156 21.596V22.38C202.836 22.252 202.473 22.1507 202.068 22.076C201.668 22.0013 201.3 21.964 200.964 21.964C200.452 21.964 200.02 22.0707 199.668 22.284C199.316 22.492 199.14 22.8493 199.14 23.356C199.14 23.7293 199.273 24.0493 199.54 24.316C199.812 24.5827 200.244 24.716 200.836 24.716C201.252 24.716 201.625 24.62 201.956 24.428C202.292 24.2307 202.556 23.9853 202.748 23.692C202.945 23.3987 203.044 23.1053 203.044 22.812H203.348C203.348 23.324 203.236 23.7987 203.012 24.236C202.793 24.6733 202.479 25.0253 202.068 25.292C201.657 25.5587 201.167 25.692 200.596 25.692ZM210.912 25.692C210.352 25.692 209.864 25.564 209.448 25.308C209.038 25.052 208.72 24.6787 208.496 24.188C208.272 23.692 208.16 23.0893 208.16 22.38H208.688C208.688 22.8547 208.787 23.2547 208.984 23.58C209.182 23.9053 209.438 24.1533 209.752 24.324C210.072 24.4893 210.411 24.572 210.768 24.572C211.152 24.572 211.52 24.4627 211.872 24.244C212.224 24.02 212.512 23.692 212.736 23.26C212.96 22.828 213.072 22.2947 213.072 21.66C213.072 21.052 212.968 20.532 212.76 20.1C212.558 19.668 212.283 19.3373 211.936 19.108C211.59 18.8787 211.206 18.764 210.784 18.764C210.422 18.764 210.08 18.852 209.76 19.028C209.44 19.204 209.182 19.4627 208.984 19.804C208.787 20.14 208.688 20.556 208.688 21.052H208.16C208.16 20.3107 208.283 19.6893 208.528 19.188C208.774 18.6813 209.107 18.3 209.528 18.044C209.95 17.788 210.422 17.66 210.944 17.66C211.542 17.66 212.099 17.82 212.616 18.14C213.134 18.46 213.552 18.9187 213.872 19.516C214.192 20.1133 214.352 20.828 214.352 21.66C214.352 22.5027 214.19 23.2253 213.864 23.828C213.544 24.4307 213.123 24.892 212.6 25.212C212.078 25.532 211.515 25.692 210.912 25.692ZM207.44 29.26V17.852H208.48L208.688 19.644V29.26H207.44ZM222.4 25.5V21.004C222.4 20.2733 222.224 19.7187 221.872 19.34C221.525 18.956 221.05 18.764 220.448 18.764C219.989 18.764 219.592 18.8893 219.256 19.14C218.92 19.3907 218.661 19.7507 218.48 20.22C218.298 20.684 218.208 21.2387 218.208 21.884H217.728C217.728 20.9933 217.845 20.2333 218.08 19.604C218.314 18.9747 218.656 18.4947 219.104 18.164C219.557 17.828 220.106 17.66 220.752 17.66C221.354 17.66 221.869 17.796 222.296 18.068C222.728 18.3347 223.058 18.7187 223.288 19.22C223.517 19.7213 223.632 20.316 223.632 21.004V25.5H222.4ZM216.96 25.5V14.588H218.208V25.5H216.96ZM100.815 45.5L100.655 43.82V40.54C100.655 39.852 100.508 39.3587 100.215 39.06C99.9218 38.756 99.4818 38.604 98.8951 38.604C98.5645 38.604 98.2631 38.652 97.9911 38.748C97.7245 38.844 97.5111 38.9933 97.3511 39.196C97.1965 39.3933 97.1191 39.6493 97.1191 39.964H95.7271C95.7271 39.4093 95.8631 38.964 96.1351 38.628C96.4071 38.2867 96.7805 38.0413 97.2551 37.892C97.7351 37.7373 98.2818 37.66 98.8951 37.66C99.4818 37.66 100.002 37.7587 100.455 37.956C100.908 38.1533 101.263 38.468 101.519 38.9C101.775 39.3267 101.903 39.884 101.903 40.572V45.5H100.815ZM98.2071 45.692C97.5778 45.692 97.0578 45.58 96.6471 45.356C96.2365 45.132 95.9298 44.8413 95.7271 44.484C95.5245 44.1267 95.4231 43.7507 95.4231 43.356C95.4231 42.8387 95.5511 42.4173 95.8071 42.092C96.0685 41.7667 96.4231 41.5293 96.8711 41.38C97.3191 41.2253 97.8231 41.148 98.3831 41.148C98.7831 41.148 99.1831 41.188 99.5831 41.268C99.9885 41.348 100.383 41.4573 100.767 41.596V42.38C100.447 42.252 100.084 42.1507 99.6791 42.076C99.2791 42.0013 98.9111 41.964 98.5751 41.964C98.0631 41.964 97.6311 42.0707 97.2791 42.284C96.9271 42.492 96.7511 42.8493 96.7511 43.356C96.7511 43.7293 96.8845 44.0493 97.1511 44.316C97.4231 44.5827 97.8551 44.716 98.4471 44.716C98.8631 44.716 99.2365 44.62 99.5671 44.428C99.9031 44.2307 100.167 43.9853 100.359 43.692C100.556 43.3987 100.655 43.1053 100.655 42.812H100.959C100.959 43.324 100.847 43.7987 100.623 44.236C100.404 44.6733 100.09 45.0253 99.6791 45.292C99.2685 45.5587 98.7778 45.692 98.2071 45.692ZM108.556 45.692C108.044 45.692 107.58 45.5587 107.164 45.292C106.753 45.0253 106.425 44.636 106.18 44.124C105.94 43.6067 105.82 42.9773 105.82 42.236H106.3C106.3 42.732 106.401 43.156 106.604 43.508C106.812 43.8547 107.078 44.1187 107.404 44.3C107.729 44.4813 108.07 44.572 108.428 44.572C108.838 44.572 109.214 44.4547 109.556 44.22C109.897 43.9853 110.169 43.6493 110.372 43.212C110.58 42.7747 110.684 42.252 110.684 41.644C110.684 41.0467 110.582 40.5347 110.38 40.108C110.177 39.676 109.902 39.3453 109.556 39.116C109.214 38.8813 108.833 38.764 108.412 38.764C108.049 38.764 107.705 38.8547 107.38 39.036C107.06 39.212 106.798 39.4733 106.596 39.82C106.398 40.1667 106.3 40.5933 106.3 41.1H105.82C105.82 40.3747 105.937 39.756 106.172 39.244C106.412 38.732 106.742 38.34 107.164 38.068C107.585 37.796 108.076 37.66 108.636 37.66C109.238 37.66 109.79 37.8227 110.292 38.148C110.798 38.468 111.204 38.9267 111.508 39.524C111.812 40.1213 111.964 40.828 111.964 41.644C111.964 42.4653 111.809 43.18 111.5 43.788C111.19 44.3907 110.777 44.86 110.26 45.196C109.742 45.5267 109.174 45.692 108.556 45.692ZM105.052 45.5V34.588H106.3V43.708L105.932 45.5H105.052ZM117.464 45.692C116.776 45.692 116.163 45.54 115.624 45.236C115.091 44.932 114.669 44.4813 114.36 43.884C114.051 43.2867 113.896 42.5507 113.896 41.676C113.896 40.796 114.051 40.06 114.36 39.468C114.669 38.8707 115.091 38.42 115.624 38.116C116.163 37.812 116.776 37.66 117.464 37.66C118.147 37.66 118.755 37.812 119.288 38.116C119.827 38.42 120.248 38.8707 120.552 39.468C120.861 40.06 121.016 40.796 121.016 41.676C121.016 42.5507 120.861 43.2867 120.552 43.884C120.248 44.4813 119.827 44.932 119.288 45.236C118.755 45.54 118.147 45.692 117.464 45.692ZM117.432 44.604C117.928 44.604 118.349 44.4867 118.696 44.252C119.043 44.012 119.304 43.6733 119.48 43.236C119.661 42.7987 119.752 42.2787 119.752 41.676C119.752 40.764 119.563 40.0467 119.184 39.524C118.805 38.996 118.243 38.732 117.496 38.732C116.995 38.732 116.571 38.852 116.224 39.092C115.883 39.3267 115.621 39.6653 115.44 40.108C115.264 40.5453 115.176 41.068 115.176 41.676C115.176 42.5773 115.365 43.292 115.744 43.82C116.128 44.3427 116.691 44.604 117.432 44.604ZM128.806 37.836H130.054V45.5H128.806V37.836ZM123.382 37.836H124.63V42.604C124.63 43.244 124.785 43.7293 125.094 44.06C125.409 44.3907 125.857 44.556 126.438 44.556C126.918 44.556 127.334 44.428 127.686 44.172C128.043 43.916 128.318 43.564 128.51 43.116C128.707 42.6627 128.806 42.1453 128.806 41.564H129.27C129.27 42.4227 129.145 43.156 128.894 43.764C128.649 44.372 128.299 44.8387 127.846 45.164C127.398 45.484 126.87 45.644 126.262 45.644C125.686 45.644 125.182 45.5373 124.75 45.324C124.318 45.1107 123.982 44.788 123.742 44.356C123.502 43.9187 123.382 43.3667 123.382 42.7V37.836ZM135.805 45.692C135.389 45.692 135.016 45.612 134.685 45.452C134.355 45.292 134.093 45.052 133.901 44.732C133.709 44.412 133.613 44.012 133.613 43.532V35.724H134.845V43.5C134.845 44.2893 135.213 44.684 135.949 44.684C136.168 44.684 136.379 44.66 136.581 44.612C136.789 44.564 137.021 44.492 137.277 44.396L137.453 45.292C137.181 45.4093 136.909 45.5053 136.637 45.58C136.371 45.6547 136.093 45.692 135.805 45.692ZM132.381 38.716V37.852H137.261V38.716H132.381ZM143.458 35.116H145.346V39.452H149.874V35.116H151.762V45.5H149.874V41.1H145.346V45.5H143.458V35.116ZM153.763 45.5L157.299 35.116H159.667L163.059 45.5H161.075L160.355 43.26H156.499L155.763 45.5H153.763ZM156.979 41.836H159.907L158.451 37.372L156.979 41.836ZM163.246 35.116H165.486L167.966 39.58H167.598L170.174 35.116H172.398L168.702 41.212V45.5H166.814V41.212L163.246 35.116ZM178.379 45.5V35.116H184.923V36.748H180.267V39.484H184.523V41.1H180.267V45.5H178.379ZM187.273 45.5V35.116H193.945V36.748H189.161V39.484H193.657V41.116H189.161V43.852H193.945V45.5H187.273ZM200.072 43.436L202.728 35.116H204.712L201.144 45.5H199.16L195.64 35.116H197.64L200.264 43.436H200.072ZM206.624 45.5V35.116H213.296V36.748H208.512V39.484H213.008V41.116H208.512V43.852H213.296V45.5H206.624ZM216.191 45.5V35.116H220.031C221.274 35.116 222.226 35.4067 222.887 35.988C223.554 36.5693 223.887 37.34 223.887 38.3C223.887 39.244 223.554 40.0067 222.887 40.588C222.226 41.164 221.274 41.452 220.031 41.452H218.079V45.5H216.191ZM221.807 45.5L219.055 40.636H221.071L224.271 45.5H221.807ZM218.079 40.188H219.839C220.532 40.188 221.058 40.0307 221.415 39.716C221.772 39.396 221.951 38.9827 221.951 38.476C221.951 37.9587 221.788 37.5427 221.463 37.228C221.138 36.908 220.66 36.748 220.031 36.748H218.079V40.188Z" fill="#333333"/>
</g>
<defs>
<filter id="filter0_d_7061_5948" x="49" y="0" width="206.767" height="68" filterUnits="userSpaceOnUse" color-interpolation-filters="sRGB">
<feFlood flood-opacity="0" result="BackgroundImageFix"/>
<feColorMatrix in="SourceAlpha" type="matrix" values="0 0 0 0 0 0 0 0 0 0 0 0 0 0 0 0 0 0 127 0" result="hardAlpha"/>
<feOffset dy="4"/>
<feGaussianBlur stdDeviation="3"/>
<feComposite in2="hardAlpha" operator="out"/>
<feColorMatrix type="matrix" values="0 0 0 0 0 0 0 0 0 0 0 0 0 0 0 0 0 0 0.1 0"/>
<feBlend mode="normal" in2="BackgroundImageFix" result="effect1_dropShadow_7061_5948"/>
<feBlend mode="normal" in="SourceGraphic" in2="effect1_dropShadow_7061_5948" result="shape"/>
</filter>
<filter id="filter1_d_7061_5948" x="72.436" y="12.5879" width="157.835" height="43.1045" filterUnits="userSpaceOnUse" color-interpolation-filters="sRGB">
<feFlood flood-opacity="0" result="BackgroundImageFix"/>
<feColorMatrix in="SourceAlpha" type="matrix" values="0 0 0 0 0 0 0 0 0 0 0 0 0 0 0 0 0 0 127 0" result="hardAlpha"/>
<feOffset dy="4"/>
<feGaussianBlur stdDeviation="3"/>
<feComposite in2="hardAlpha" operator="out"/>
<feColorMatrix type="matrix" values="0 0 0 0 0 0 0 0 0 0 0 0 0 0 0 0 0 0 0.05 0"/>
<feBlend mode="normal" in2="BackgroundImageFix" result="effect1_dropShadow_7061_5948"/>
<feBlend mode="normal" in="SourceGraphic" in2="effect1_dropShadow_7061_5948" result="shape"/>
</filter>
</defs>
</svg>
