<svg width="256" height="68" viewBox="0 0 256 68" fill="none" xmlns="http://www.w3.org/2000/svg">
<mask id="path-1-inside-1_7073_5848" fill="white">
<path d="M248.724 27.3669L239 19L239 11C239 6.02944 234.971 2 230 2L8.99997 1.99998C4.02941 1.99998 -2.59742e-05 6.02942 -2.64087e-05 11L-2.97308e-05 49C-3.01653e-05 53.9705 4.0294 58 8.99997 58L230 58C234.971 58 239 53.9706 239 49L239 39.5L248.612 32.0069C250.106 30.8425 250.16 28.6022 248.724 27.3669Z"/>
</mask>
<path d="M248.724 27.3669L239 19L239 11C239 6.02944 234.971 2 230 2L8.99997 1.99998C4.02941 1.99998 -2.59742e-05 6.02942 -2.64087e-05 11L-2.97308e-05 49C-3.01653e-05 53.9705 4.0294 58 8.99997 58L230 58C234.971 58 239 53.9706 239 49L239 39.5L248.612 32.0069C250.106 30.8425 250.16 28.6022 248.724 27.3669Z" fill="white"/>
<path d="M239 19L237.6 19L237.6 19.6423L238.087 20.0612L239 19ZM248.724 27.3669L249.637 26.3056L249.637 26.3056L248.724 27.3669ZM248.612 32.0069L247.751 30.9028L247.751 30.9028L248.612 32.0069ZM239 39.5L238.139 38.3959L237.6 38.8162L237.6 39.5L239 39.5ZM238.087 20.0612L247.811 28.4281L249.637 26.3056L239.913 17.9388L238.087 20.0612ZM247.751 30.9028L238.139 38.3959L239.861 40.6041L249.473 33.1111L247.751 30.9028ZM247.811 28.4281C248.577 29.0869 248.548 30.2817 247.751 30.9028L249.473 33.1111C251.663 31.4032 251.743 28.1175 249.637 26.3056L247.811 28.4281ZM230 56.6L8.99997 56.6L8.99997 59.4L230 59.4L230 56.6ZM1.39996 49L1.39997 11L-1.40002 11L-1.40002 49L1.39996 49ZM8.99997 3.39998L230 3.4L230 0.599997L8.99997 0.599977L8.99997 3.39998ZM237.6 39.5L237.6 49L240.4 49L240.4 39.5L237.6 39.5ZM237.6 11L237.6 19L240.4 19L240.4 11L237.6 11ZM230 3.4C234.197 3.4 237.6 6.80263 237.6 11L240.4 11C240.4 5.25624 235.744 0.599997 230 0.599997L230 3.4ZM1.39997 11C1.39997 6.80261 4.8026 3.39998 8.99997 3.39998L8.99997 0.599977C3.25622 0.599977 -1.40002 5.25622 -1.40002 11L1.39997 11ZM8.99997 56.6C4.8026 56.6 1.39996 53.1973 1.39996 49L-1.40002 49C-1.40002 54.7437 3.25621 59.4 8.99997 59.4L8.99997 56.6ZM230 59.4C235.744 59.4 240.4 54.7438 240.4 49L237.6 49C237.6 53.1974 234.197 56.6 230 56.6L230 59.4Z" fill="white" mask="url(#path-1-inside-1_7073_5848)"/>
<g filter="url(#filter0_d_7073_5848)">
<mask id="path-3-inside-2_7073_5848" fill="white">
<path d="M248.724 27.3669L239 19L239 11C239 6.02944 234.971 2 230 2L34 1.99998C29.0294 1.99998 25 6.02942 25 11L25 49C25 53.9705 29.0294 58 34 58L230 58C234.971 58 239 53.9706 239 49L239 39.5L248.612 32.0069C250.106 30.8425 250.16 28.6022 248.724 27.3669Z"/>
</mask>
<path d="M248.724 27.3669L239 19L239 11C239 6.02944 234.971 2 230 2L34 1.99998C29.0294 1.99998 25 6.02942 25 11L25 49C25 53.9705 29.0294 58 34 58L230 58C234.971 58 239 53.9706 239 49L239 39.5L248.612 32.0069C250.106 30.8425 250.16 28.6022 248.724 27.3669Z" fill="white"/>
<path d="M239 19L237.6 19L237.6 19.6423L238.087 20.0612L239 19ZM248.724 27.3669L249.637 26.3056L249.637 26.3056L248.724 27.3669ZM248.612 32.0069L247.751 30.9028L247.751 30.9028L248.612 32.0069ZM239 39.5L238.139 38.3959L237.6 38.8162L237.6 39.5L239 39.5ZM230 58L230 59.4L230 58ZM34 58L34 56.6L34 58ZM238.087 20.0612L247.811 28.4281L249.637 26.3056L239.913 17.9388L238.087 20.0612ZM247.751 30.9028L238.139 38.3959L239.861 40.6041L249.473 33.1111L247.751 30.9028ZM247.811 28.4281C248.577 29.0869 248.548 30.2817 247.751 30.9028L249.473 33.1111C251.663 31.4032 251.743 28.1175 249.637 26.3056L247.811 28.4281ZM230 56.6L34 56.6L34 59.4L230 59.4L230 56.6ZM26.4 49L26.4 11L23.6 11L23.6 49L26.4 49ZM34 3.39998L230 3.4L230 0.599997L34 0.59998L34 3.39998ZM237.6 39.5L237.6 49L240.4 49L240.4 39.5L237.6 39.5ZM237.6 11L237.6 19L240.4 19L240.4 11L237.6 11ZM230 3.4C234.197 3.4 237.6 6.80263 237.6 11L240.4 11C240.4 5.25624 235.744 0.599997 230 0.599997L230 3.4ZM26.4 11C26.4 6.80262 29.8026 3.39998 34 3.39998L34 0.59998C28.2562 0.599979 23.6 5.25622 23.6 11L26.4 11ZM34 56.6C29.8026 56.6 26.4 53.1973 26.4 49L23.6 49C23.6 54.7437 28.2562 59.4 34 59.4L34 56.6ZM230 59.4C235.744 59.4 240.4 54.7438 240.4 49L237.6 49C237.6 53.1974 234.197 56.6 230 56.6L230 59.4Z" fill="#333333" mask="url(#path-3-inside-2_7073_5848)"/>
</g>
<g filter="url(#filter1_d_7073_5848)">
<path d="M35.6122 25.5V15.452H36.8602V25.5H35.6122ZM42.8855 17.852H44.1815L46.1335 24.236H45.9735L47.8775 18.22H48.9175L50.8055 24.252H50.6615L52.6135 17.852H53.8615L51.3495 25.5H50.1335L48.2775 19.852H48.4695L46.6295 25.5H45.4135L42.8855 17.852ZM58.7352 25.692C58.0472 25.692 57.4339 25.54 56.8952 25.236C56.3619 24.932 55.9406 24.4813 55.6312 23.884C55.3219 23.2867 55.1672 22.5507 55.1672 21.676C55.1672 20.796 55.3219 20.06 55.6312 19.468C55.9406 18.8707 56.3619 18.42 56.8952 18.116C57.4339 17.812 58.0472 17.66 58.7352 17.66C59.4179 17.66 60.0259 17.812 60.5592 18.116C61.0979 18.42 61.5192 18.8707 61.8232 19.468C62.1326 20.06 62.2872 20.796 62.2872 21.676C62.2872 22.5507 62.1326 23.2867 61.8232 23.884C61.5192 24.4813 61.0979 24.932 60.5592 25.236C60.0259 25.54 59.4179 25.692 58.7352 25.692ZM58.7032 24.604C59.1992 24.604 59.6206 24.4867 59.9672 24.252C60.3139 24.012 60.5752 23.6733 60.7512 23.236C60.9326 22.7987 61.0232 22.2787 61.0232 21.676C61.0232 20.764 60.8339 20.0467 60.4552 19.524C60.0766 18.996 59.5139 18.732 58.7672 18.732C58.2659 18.732 57.8419 18.852 57.4952 19.092C57.1539 19.3267 56.8926 19.6653 56.7112 20.108C56.5352 20.5453 56.4472 21.068 56.4472 21.676C56.4472 22.5773 56.6366 23.292 57.0152 23.82C57.3992 24.3427 57.9619 24.604 58.7032 24.604ZM70.0772 17.836H71.3252V25.5H70.0772V17.836ZM64.6532 17.836H65.9012V22.604C65.9012 23.244 66.0559 23.7293 66.3652 24.06C66.6799 24.3907 67.1279 24.556 67.7092 24.556C68.1892 24.556 68.6052 24.428 68.9572 24.172C69.3146 23.916 69.5892 23.564 69.7812 23.116C69.9786 22.6627 70.0772 22.1453 70.0772 21.564H70.5412C70.5412 22.4227 70.4159 23.156 70.1652 23.764C69.9199 24.372 69.5706 24.8387 69.1172 25.164C68.6692 25.484 68.1412 25.644 67.5332 25.644C66.9572 25.644 66.4532 25.5373 66.0212 25.324C65.5892 25.1107 65.2532 24.788 65.0132 24.356C64.7732 23.9187 64.6532 23.3667 64.6532 22.7V17.836ZM74.7247 25.5V14.588H75.9727V25.5H74.7247ZM82.1051 25.692C81.4865 25.692 80.9185 25.5267 80.4011 25.196C79.8838 24.86 79.4705 24.3907 79.1611 23.788C78.8518 23.18 78.6971 22.4653 78.6971 21.644C78.6971 20.828 78.8491 20.1213 79.1531 19.524C79.4571 18.9267 79.8598 18.468 80.3611 18.148C80.8678 17.8227 81.4225 17.66 82.0251 17.66C82.5851 17.66 83.0758 17.796 83.4971 18.068C83.9238 18.34 84.2545 18.732 84.4891 19.244C84.7238 19.756 84.8411 20.3747 84.8411 21.1H84.3611C84.3611 20.5933 84.2598 20.1667 84.0571 19.82C83.8598 19.4733 83.6011 19.212 83.2811 19.036C82.9611 18.8547 82.6171 18.764 82.2491 18.764C81.8331 18.764 81.4518 18.8813 81.1051 19.116C80.7638 19.3453 80.4891 19.676 80.2811 20.108C80.0785 20.5347 79.9771 21.0467 79.9771 21.644C79.9771 22.252 80.0785 22.7747 80.2811 23.212C80.4891 23.6493 80.7638 23.9853 81.1051 24.22C81.4518 24.4547 81.8331 24.572 82.2491 24.572C82.5958 24.572 82.9291 24.4813 83.2491 24.3C83.5745 24.1187 83.8411 23.8547 84.0491 23.508C84.2571 23.156 84.3611 22.732 84.3611 22.236H84.8411C84.8411 22.9773 84.7185 23.6067 84.4731 24.124C84.2331 24.636 83.9051 25.0253 83.4891 25.292C83.0785 25.5587 82.6171 25.692 82.1051 25.692ZM84.5691 25.5L84.3611 23.708V14.588H85.6091V25.5H84.5691ZM92.9704 25.5V14.588H94.2184V25.5H92.9704ZM98.3187 16.044C98.0627 16.044 97.8601 15.972 97.7107 15.828C97.5614 15.6787 97.4867 15.484 97.4867 15.244C97.4867 15.0093 97.5614 14.8227 97.7107 14.684C97.8601 14.5453 98.0627 14.476 98.3187 14.476C98.5747 14.476 98.7774 14.5453 98.9267 14.684C99.0761 14.8227 99.1507 15.0093 99.1507 15.244C99.1507 15.484 99.0761 15.6787 98.9267 15.828C98.7774 15.972 98.5747 16.044 98.3187 16.044ZM97.6947 25.5V17.836H98.9427V25.5H97.6947ZM102.54 25.5V14.588H103.788V25.5H102.54ZM103.596 21.116L107.5 17.852H109.244L103.596 22.444V21.116ZM107.884 25.5L104.252 20.668L105.516 20.444L109.42 25.5H107.884ZM114.372 25.692C113.711 25.692 113.119 25.524 112.596 25.188C112.079 24.8467 111.668 24.3747 111.364 23.772C111.065 23.1693 110.916 22.476 110.916 21.692C110.916 20.8547 111.065 20.1347 111.364 19.532C111.663 18.9293 112.071 18.468 112.588 18.148C113.111 17.8227 113.705 17.66 114.372 17.66C114.953 17.66 115.449 17.7773 115.86 18.012C116.271 18.2467 116.601 18.564 116.852 18.964C117.103 19.364 117.276 19.8173 117.372 20.324C117.473 20.8253 117.503 21.3453 117.46 21.884H111.924V21.116H116.636L116.268 21.356C116.284 21.0413 116.265 20.7267 116.212 20.412C116.164 20.0973 116.071 19.8093 115.932 19.548C115.793 19.2813 115.599 19.068 115.348 18.908C115.097 18.748 114.777 18.668 114.388 18.668C113.897 18.668 113.487 18.7933 113.156 19.044C112.825 19.2947 112.577 19.6253 112.412 20.036C112.247 20.4413 112.164 20.8813 112.164 21.356V21.868C112.164 22.4013 112.244 22.8787 112.404 23.3C112.569 23.7213 112.815 24.0547 113.14 24.3C113.465 24.5453 113.876 24.668 114.372 24.668C114.868 24.668 115.276 24.548 115.596 24.308C115.916 24.068 116.111 23.7133 116.18 23.244H117.476C117.396 23.7507 117.215 24.188 116.932 24.556C116.649 24.9187 116.289 25.1987 115.852 25.396C115.415 25.5933 114.921 25.692 114.372 25.692ZM126.404 25.692C125.988 25.692 125.614 25.612 125.284 25.452C124.953 25.292 124.692 25.052 124.5 24.732C124.308 24.412 124.212 24.012 124.212 23.532V15.724H125.444V23.5C125.444 24.2893 125.812 24.684 126.548 24.684C126.766 24.684 126.977 24.66 127.18 24.612C127.388 24.564 127.62 24.492 127.876 24.396L128.052 25.292C127.78 25.4093 127.508 25.5053 127.236 25.58C126.969 25.6547 126.692 25.692 126.404 25.692ZM122.98 18.716V17.852H127.86V18.716H122.98ZM132.995 25.692C132.307 25.692 131.694 25.54 131.155 25.236C130.622 24.932 130.201 24.4813 129.891 23.884C129.582 23.2867 129.427 22.5507 129.427 21.676C129.427 20.796 129.582 20.06 129.891 19.468C130.201 18.8707 130.622 18.42 131.155 18.116C131.694 17.812 132.307 17.66 132.995 17.66C133.678 17.66 134.286 17.812 134.819 18.116C135.358 18.42 135.779 18.8707 136.083 19.468C136.393 20.06 136.547 20.796 136.547 21.676C136.547 22.5507 136.393 23.2867 136.083 23.884C135.779 24.4813 135.358 24.932 134.819 25.236C134.286 25.54 133.678 25.692 132.995 25.692ZM132.963 24.604C133.459 24.604 133.881 24.4867 134.227 24.252C134.574 24.012 134.835 23.6733 135.011 23.236C135.193 22.7987 135.283 22.2787 135.283 21.676C135.283 20.764 135.094 20.0467 134.715 19.524C134.337 18.996 133.774 18.732 133.027 18.732C132.526 18.732 132.102 18.852 131.755 19.092C131.414 19.3267 131.153 19.6653 130.971 20.108C130.795 20.5453 130.707 21.068 130.707 21.676C130.707 22.5773 130.897 23.292 131.275 23.82C131.659 24.3427 132.222 24.604 132.963 24.604ZM148.534 25.5V21.004C148.534 20.2733 148.358 19.7187 148.006 19.34C147.659 18.956 147.185 18.764 146.582 18.764C146.123 18.764 145.726 18.8893 145.39 19.14C145.054 19.3907 144.795 19.7507 144.614 20.22C144.433 20.684 144.342 21.2387 144.342 21.884H143.862C143.862 20.9933 143.979 20.2333 144.214 19.604C144.449 18.9747 144.79 18.4947 145.238 18.164C145.691 17.828 146.241 17.66 146.886 17.66C147.489 17.66 148.003 17.796 148.43 18.068C148.862 18.3347 149.193 18.7187 149.422 19.22C149.651 19.7213 149.766 20.316 149.766 21.004V25.5H148.534ZM143.094 25.5V17.852H144.166L144.342 19.612V25.5H143.094ZM157.646 25.5L157.486 23.82V20.54C157.486 19.852 157.34 19.3587 157.046 19.06C156.753 18.756 156.313 18.604 155.726 18.604C155.396 18.604 155.094 18.652 154.822 18.748C154.556 18.844 154.342 18.9933 154.182 19.196C154.028 19.3933 153.95 19.6493 153.95 19.964H152.558C152.558 19.4093 152.694 18.964 152.966 18.628C153.238 18.2867 153.612 18.0413 154.086 17.892C154.566 17.7373 155.113 17.66 155.726 17.66C156.313 17.66 156.833 17.7587 157.286 17.956C157.74 18.1533 158.094 18.468 158.35 18.9C158.606 19.3267 158.734 19.884 158.734 20.572V25.5H157.646ZM155.038 25.692C154.409 25.692 153.889 25.58 153.478 25.356C153.068 25.132 152.761 24.8413 152.558 24.484C152.356 24.1267 152.254 23.7507 152.254 23.356C152.254 22.8387 152.382 22.4173 152.638 22.092C152.9 21.7667 153.254 21.5293 153.702 21.38C154.15 21.2253 154.654 21.148 155.214 21.148C155.614 21.148 156.014 21.188 156.414 21.268C156.82 21.348 157.214 21.4573 157.598 21.596V22.38C157.278 22.252 156.916 22.1507 156.51 22.076C156.11 22.0013 155.742 21.964 155.406 21.964C154.894 21.964 154.462 22.0707 154.11 22.284C153.758 22.492 153.582 22.8493 153.582 23.356C153.582 23.7293 153.716 24.0493 153.982 24.316C154.254 24.5827 154.686 24.716 155.278 24.716C155.694 24.716 156.068 24.62 156.398 24.428C156.734 24.2307 156.998 23.9853 157.19 23.692C157.388 23.3987 157.486 23.1053 157.486 22.812H157.79C157.79 23.324 157.678 23.7987 157.454 24.236C157.236 24.6733 156.921 25.0253 156.51 25.292C156.1 25.5587 155.609 25.692 155.038 25.692ZM160.555 17.852H161.979L164.379 24.428H164.203L166.603 17.852H168.027L164.971 25.5H163.611L160.555 17.852ZM170.794 16.044C170.538 16.044 170.335 15.972 170.186 15.828C170.036 15.6787 169.962 15.484 169.962 15.244C169.962 15.0093 170.036 14.8227 170.186 14.684C170.335 14.5453 170.538 14.476 170.794 14.476C171.05 14.476 171.252 14.5453 171.402 14.684C171.551 14.8227 171.626 15.0093 171.626 15.244C171.626 15.484 171.551 15.6787 171.402 15.828C171.252 15.972 171.05 16.044 170.794 16.044ZM170.17 25.5V17.836H171.418V25.5H170.17ZM177.719 29.436C176.935 29.436 176.255 29.324 175.679 29.1C175.103 28.8813 174.655 28.5853 174.335 28.212C174.021 27.844 173.863 27.436 173.863 26.988C173.863 26.396 174.079 25.9427 174.511 25.628C174.949 25.3187 175.511 25.164 176.199 25.164L176.887 25.596C176.311 25.596 175.866 25.716 175.551 25.956C175.237 26.196 175.079 26.524 175.079 26.94C175.079 27.356 175.303 27.708 175.751 27.996C176.199 28.284 176.855 28.428 177.719 28.428C178.359 28.428 178.919 28.3347 179.399 28.148C179.885 27.9667 180.261 27.7267 180.527 27.428C180.799 27.1347 180.935 26.8173 180.935 26.476C180.935 26.236 180.847 26.028 180.671 25.852C180.495 25.6813 180.226 25.596 179.863 25.596H176.887C176.37 25.596 175.922 25.5187 175.543 25.364C175.17 25.204 174.882 24.996 174.679 24.74C174.477 24.484 174.375 24.204 174.375 23.9C174.375 23.58 174.466 23.308 174.647 23.084C174.829 22.86 175.063 22.6893 175.351 22.572C175.645 22.4547 175.959 22.396 176.295 22.396L176.535 22.86C176.375 22.86 176.213 22.8973 176.047 22.972C175.887 23.0413 175.751 23.148 175.639 23.292C175.533 23.4307 175.479 23.6067 175.479 23.82C175.479 24.0653 175.581 24.2707 175.783 24.436C175.986 24.6013 176.354 24.684 176.887 24.684H179.863C180.583 24.684 181.149 24.836 181.559 25.14C181.975 25.444 182.183 25.868 182.183 26.412C182.183 26.9133 182.005 27.3933 181.647 27.852C181.29 28.316 180.778 28.6947 180.111 28.988C179.445 29.2867 178.647 29.436 177.719 29.436ZM177.943 23.26C177.357 23.26 176.826 23.1427 176.351 22.908C175.882 22.6733 175.509 22.3453 175.231 21.924C174.959 21.5027 174.823 21.0147 174.823 20.46C174.823 19.9 174.959 19.4093 175.231 18.988C175.509 18.5667 175.882 18.2413 176.351 18.012C176.826 17.7773 177.357 17.66 177.943 17.66C178.514 17.66 179.031 17.7773 179.495 18.012C179.965 18.2413 180.338 18.5667 180.615 18.988C180.893 19.4093 181.031 19.9 181.031 20.46C181.031 21.0147 180.893 21.5027 180.615 21.924C180.338 22.3453 179.965 22.6733 179.495 22.908C179.031 23.1427 178.514 23.26 177.943 23.26ZM177.943 22.364C178.53 22.364 178.986 22.1827 179.311 21.82C179.637 21.4573 179.799 21.004 179.799 20.46C179.799 19.9 179.637 19.4467 179.311 19.1C178.986 18.748 178.53 18.572 177.943 18.572C177.362 18.572 176.903 18.748 176.567 19.1C176.237 19.4467 176.071 19.9 176.071 20.46C176.071 21.004 176.237 21.4573 176.567 21.82C176.903 22.1827 177.362 22.364 177.943 22.364ZM180.455 18.876L179.863 18.636C179.863 18.188 179.951 17.796 180.127 17.46C180.303 17.1187 180.554 16.8547 180.879 16.668C181.205 16.476 181.591 16.38 182.039 16.38L181.943 17.612C181.463 17.612 181.095 17.716 180.839 17.924C180.583 18.1267 180.455 18.444 180.455 18.876ZM188.943 25.5L188.783 23.82V20.54C188.783 19.852 188.636 19.3587 188.343 19.06C188.049 18.756 187.609 18.604 187.023 18.604C186.692 18.604 186.391 18.652 186.119 18.748C185.852 18.844 185.639 18.9933 185.479 19.196C185.324 19.3933 185.247 19.6493 185.247 19.964H183.855C183.855 19.4093 183.991 18.964 184.263 18.628C184.535 18.2867 184.908 18.0413 185.383 17.892C185.863 17.7373 186.409 17.66 187.023 17.66C187.609 17.66 188.129 17.7587 188.583 17.956C189.036 18.1533 189.391 18.468 189.647 18.9C189.903 19.3267 190.031 19.884 190.031 20.572V25.5H188.943ZM186.335 25.692C185.705 25.692 185.185 25.58 184.775 25.356C184.364 25.132 184.057 24.8413 183.855 24.484C183.652 24.1267 183.551 23.7507 183.551 23.356C183.551 22.8387 183.679 22.4173 183.935 22.092C184.196 21.7667 184.551 21.5293 184.999 21.38C185.447 21.2253 185.951 21.148 186.511 21.148C186.911 21.148 187.311 21.188 187.711 21.268C188.116 21.348 188.511 21.4573 188.895 21.596V22.38C188.575 22.252 188.212 22.1507 187.807 22.076C187.407 22.0013 187.039 21.964 186.703 21.964C186.191 21.964 185.759 22.0707 185.407 22.284C185.055 22.492 184.879 22.8493 184.879 23.356C184.879 23.7293 185.012 24.0493 185.279 24.316C185.551 24.5827 185.983 24.716 186.575 24.716C186.991 24.716 187.364 24.62 187.695 24.428C188.031 24.2307 188.295 23.9853 188.487 23.692C188.684 23.3987 188.783 23.1053 188.783 22.812H189.087C189.087 23.324 188.975 23.7987 188.751 24.236C188.532 24.6733 188.217 25.0253 187.807 25.292C187.396 25.5587 186.905 25.692 186.335 25.692ZM195.531 25.692C195.115 25.692 194.742 25.612 194.411 25.452C194.08 25.292 193.819 25.052 193.627 24.732C193.435 24.412 193.339 24.012 193.339 23.532V15.724H194.571V23.5C194.571 24.2893 194.939 24.684 195.675 24.684C195.894 24.684 196.104 24.66 196.307 24.612C196.515 24.564 196.747 24.492 197.003 24.396L197.179 25.292C196.907 25.4093 196.635 25.5053 196.363 25.58C196.096 25.6547 195.819 25.692 195.531 25.692ZM192.107 18.716V17.852H196.987V18.716H192.107ZM202.011 25.692C201.349 25.692 200.757 25.524 200.235 25.188C199.717 24.8467 199.307 24.3747 199.003 23.772C198.704 23.1693 198.555 22.476 198.555 21.692C198.555 20.8547 198.704 20.1347 199.003 19.532C199.301 18.9293 199.709 18.468 200.227 18.148C200.749 17.8227 201.344 17.66 202.011 17.66C202.592 17.66 203.088 17.7773 203.499 18.012C203.909 18.2467 204.24 18.564 204.491 18.964C204.741 19.364 204.915 19.8173 205.011 20.324C205.112 20.8253 205.141 21.3453 205.099 21.884H199.563V21.116H204.275L203.907 21.356C203.923 21.0413 203.904 20.7267 203.851 20.412C203.803 20.0973 203.709 19.8093 203.571 19.548C203.432 19.2813 203.237 19.068 202.987 18.908C202.736 18.748 202.416 18.668 202.027 18.668C201.536 18.668 201.125 18.7933 200.795 19.044C200.464 19.2947 200.216 19.6253 200.051 20.036C199.885 20.4413 199.803 20.8813 199.803 21.356V21.868C199.803 22.4013 199.883 22.8787 200.043 23.3C200.208 23.7213 200.453 24.0547 200.779 24.3C201.104 24.5453 201.515 24.668 202.011 24.668C202.507 24.668 202.915 24.548 203.235 24.308C203.555 24.068 203.749 23.7133 203.819 23.244H205.115C205.035 23.7507 204.853 24.188 204.571 24.556C204.288 24.9187 203.928 25.1987 203.491 25.396C203.053 25.5933 202.56 25.692 202.011 25.692ZM214.042 25.692C213.626 25.692 213.253 25.612 212.922 25.452C212.592 25.292 212.33 25.052 212.138 24.732C211.946 24.412 211.85 24.012 211.85 23.532V15.724H213.082V23.5C213.082 24.2893 213.45 24.684 214.186 24.684C214.405 24.684 214.616 24.66 214.818 24.612C215.026 24.564 215.258 24.492 215.514 24.396L215.69 25.292C215.418 25.4093 215.146 25.5053 214.874 25.58C214.608 25.6547 214.33 25.692 214.042 25.692ZM210.618 18.716V17.852H215.498V18.716H210.618ZM220.634 25.692C219.946 25.692 219.333 25.54 218.794 25.236C218.261 24.932 217.839 24.4813 217.53 23.884C217.221 23.2867 217.066 22.5507 217.066 21.676C217.066 20.796 217.221 20.06 217.53 19.468C217.839 18.8707 218.261 18.42 218.794 18.116C219.333 17.812 219.946 17.66 220.634 17.66C221.317 17.66 221.925 17.812 222.458 18.116C222.997 18.42 223.418 18.8707 223.722 19.468C224.031 20.06 224.186 20.796 224.186 21.676C224.186 22.5507 224.031 23.2867 223.722 23.884C223.418 24.4813 222.997 24.932 222.458 25.236C221.925 25.54 221.317 25.692 220.634 25.692ZM220.602 24.604C221.098 24.604 221.519 24.4867 221.866 24.252C222.213 24.012 222.474 23.6733 222.65 23.236C222.831 22.7987 222.922 22.2787 222.922 21.676C222.922 20.764 222.733 20.0467 222.354 19.524C221.975 18.996 221.413 18.732 220.666 18.732C220.165 18.732 219.741 18.852 219.394 19.092C219.053 19.3267 218.791 19.6653 218.61 20.108C218.434 20.5453 218.346 21.068 218.346 21.676C218.346 22.5773 218.535 23.292 218.914 23.82C219.298 24.3427 219.861 24.604 220.602 24.604ZM100.029 45.5V35.116H104.221C105.021 35.116 105.685 35.2413 106.213 35.492C106.741 35.7373 107.136 36.068 107.397 36.484C107.659 36.9 107.789 37.3613 107.789 37.868C107.789 38.4547 107.624 38.956 107.293 39.372C106.968 39.788 106.509 40.0813 105.917 40.252C106.307 40.332 106.656 40.4787 106.965 40.692C107.275 40.9053 107.517 41.1747 107.693 41.5C107.875 41.8253 107.965 42.1987 107.965 42.62C107.965 42.9507 107.907 43.284 107.789 43.62C107.677 43.956 107.48 44.268 107.197 44.556C106.92 44.8387 106.539 45.068 106.053 45.244C105.573 45.4147 104.968 45.5 104.237 45.5H100.029ZM101.917 43.852H104.189C104.792 43.852 105.232 43.732 105.509 43.492C105.792 43.2467 105.933 42.9187 105.933 42.508C105.933 42.0973 105.789 41.7693 105.501 41.524C105.213 41.2733 104.776 41.148 104.189 41.148H101.917V43.852ZM101.917 36.748V39.5H104.141C104.701 39.5 105.125 39.3773 105.413 39.132C105.707 38.8813 105.853 38.54 105.853 38.108C105.853 37.6973 105.709 37.3693 105.421 37.124C105.139 36.8733 104.717 36.748 104.157 36.748H101.917ZM110.564 45.5V35.116H114.404C115.647 35.116 116.599 35.4067 117.26 35.988C117.927 36.5693 118.26 37.34 118.26 38.3C118.26 39.244 117.927 40.0067 117.26 40.588C116.599 41.164 115.647 41.452 114.404 41.452H112.452V45.5H110.564ZM116.18 45.5L113.428 40.636H115.444L118.644 45.5H116.18ZM112.452 40.188H114.212C114.906 40.188 115.431 40.0307 115.788 39.716C116.146 39.396 116.324 38.9827 116.324 38.476C116.324 37.9587 116.162 37.5427 115.836 37.228C115.511 36.908 115.034 36.748 114.404 36.748H112.452V40.188ZM121.021 45.5V35.116H122.909V45.5H121.021ZM129.832 45.724C128.92 45.724 128.125 45.508 127.448 45.076C126.776 44.6387 126.253 44.0147 125.88 43.204C125.507 42.3933 125.32 41.42 125.32 40.284C125.32 39.1107 125.512 38.1267 125.896 37.332C126.285 36.532 126.819 35.9293 127.496 35.524C128.179 35.1133 128.957 34.908 129.832 34.908C131.043 34.908 131.987 35.2013 132.664 35.788C133.347 36.3747 133.784 37.1373 133.976 38.076L131.96 38.444C131.795 37.9 131.531 37.46 131.168 37.124C130.805 36.788 130.36 36.62 129.832 36.62C129.368 36.62 128.949 36.756 128.576 37.028C128.203 37.2947 127.904 37.7 127.68 38.244C127.461 38.788 127.352 39.468 127.352 40.284C127.352 41.052 127.448 41.7133 127.64 42.268C127.837 42.8227 128.12 43.2493 128.488 43.548C128.856 43.8467 129.304 43.996 129.832 43.996C130.509 43.996 131.032 43.8173 131.4 43.46C131.773 43.0973 131.96 42.636 131.96 42.076H133.976C133.976 42.8493 133.808 43.508 133.472 44.052C133.141 44.5907 132.667 45.004 132.048 45.292C131.429 45.58 130.691 45.724 129.832 45.724ZM140.325 45.724C139.402 45.724 138.586 45.5213 137.877 45.116C137.173 44.7107 136.621 44.1053 136.221 43.3C135.821 42.4947 135.621 41.4947 135.621 40.3C135.621 39.084 135.821 38.0787 136.221 37.284C136.621 36.484 137.173 35.8893 137.877 35.5C138.586 35.1053 139.402 34.908 140.325 34.908C141.253 34.908 142.071 35.1107 142.781 35.516C143.49 35.916 144.045 36.516 144.445 37.316C144.845 38.116 145.045 39.1107 145.045 40.3C145.045 41.5107 144.845 42.5187 144.445 43.324C144.045 44.1293 143.49 44.732 142.781 45.132C142.071 45.5267 141.253 45.724 140.325 45.724ZM140.325 44.012C141.173 44.012 141.845 43.692 142.341 43.052C142.842 42.412 143.093 41.4893 143.093 40.284C143.093 39.1213 142.842 38.2173 142.341 37.572C141.845 36.9267 141.173 36.604 140.325 36.604C139.493 36.604 138.826 36.9293 138.325 37.58C137.823 38.2253 137.573 39.132 137.573 40.3C137.573 41.5 137.823 42.42 138.325 43.06C138.826 43.6947 139.493 44.012 140.325 44.012ZM149.327 35.116V43.852H153.599V45.5H147.439V35.116H149.327ZM154.369 45.5L157.905 35.116H160.273L163.665 45.5H161.681L160.961 43.26H157.105L156.369 45.5H154.369ZM157.585 41.836H160.513L159.057 37.372L157.585 41.836ZM169.473 45.724C168.625 45.724 167.859 45.5 167.177 45.052C166.494 44.604 165.95 43.98 165.545 43.18C165.145 42.3747 164.945 41.436 164.945 40.364C164.945 39.516 165.067 38.756 165.313 38.084C165.563 37.412 165.91 36.8387 166.353 36.364C166.795 35.8893 167.315 35.5293 167.913 35.284C168.51 35.0333 169.158 34.908 169.857 34.908C170.827 34.908 171.641 35.1187 172.297 35.54C172.958 35.9613 173.473 36.6253 173.841 37.532L171.905 37.98C171.633 37.5373 171.318 37.2013 170.961 36.972C170.609 36.7373 170.209 36.62 169.761 36.62C169.249 36.62 168.782 36.772 168.361 37.076C167.939 37.3747 167.603 37.804 167.353 38.364C167.102 38.924 166.977 39.5907 166.977 40.364C166.977 41.0893 167.086 41.724 167.305 42.268C167.529 42.812 167.841 43.236 168.241 43.54C168.641 43.844 169.105 43.996 169.633 43.996C170.081 43.996 170.481 43.8973 170.833 43.7C171.19 43.4973 171.47 43.2093 171.673 42.836C171.881 42.4627 171.985 42.012 171.985 41.484H172.401C172.401 42.348 172.297 43.0973 172.089 43.732C171.886 44.3667 171.569 44.8573 171.137 45.204C170.705 45.5507 170.15 45.724 169.473 45.724ZM172.257 45.5L171.985 43.212V41.42L169.649 41.372V40.172H173.793V45.5H172.257ZM176.653 45.5V35.116H183.325V36.748H178.541V39.484H183.037V41.116H178.541V43.852H183.325V45.5H176.653ZM194.026 45.692C193.466 45.692 192.978 45.564 192.562 45.308C192.151 45.052 191.834 44.6787 191.61 44.188C191.386 43.692 191.274 43.0893 191.274 42.38H191.802C191.802 42.8547 191.901 43.2547 192.098 43.58C192.295 43.9053 192.551 44.1533 192.866 44.324C193.186 44.4893 193.525 44.572 193.882 44.572C194.266 44.572 194.634 44.4627 194.986 44.244C195.338 44.02 195.626 43.692 195.85 43.26C196.074 42.828 196.186 42.2947 196.186 41.66C196.186 41.052 196.082 40.532 195.874 40.1C195.671 39.668 195.397 39.3373 195.05 39.108C194.703 38.8787 194.319 38.764 193.898 38.764C193.535 38.764 193.194 38.852 192.874 39.028C192.554 39.204 192.295 39.4627 192.098 39.804C191.901 40.14 191.802 40.556 191.802 41.052H191.274C191.274 40.3107 191.397 39.6893 191.642 39.188C191.887 38.6813 192.221 38.3 192.642 38.044C193.063 37.788 193.535 37.66 194.058 37.66C194.655 37.66 195.213 37.82 195.73 38.14C196.247 38.46 196.666 38.9187 196.986 39.516C197.306 40.1133 197.466 40.828 197.466 41.66C197.466 42.5027 197.303 43.2253 196.978 43.828C196.658 44.4307 196.237 44.892 195.714 45.212C195.191 45.532 194.629 45.692 194.026 45.692ZM190.554 49.26V37.852H191.594L191.802 39.644V49.26H190.554ZM204.81 45.5L204.65 43.82V40.54C204.65 39.852 204.503 39.3587 204.21 39.06C203.916 38.756 203.476 38.604 202.89 38.604C202.559 38.604 202.258 38.652 201.986 38.748C201.719 38.844 201.506 38.9933 201.346 39.196C201.191 39.3933 201.114 39.6493 201.114 39.964H199.722C199.722 39.4093 199.858 38.964 200.13 38.628C200.402 38.2867 200.775 38.0413 201.25 37.892C201.73 37.7373 202.276 37.66 202.89 37.66C203.476 37.66 203.996 37.7587 204.45 37.956C204.903 38.1533 205.258 38.468 205.514 38.9C205.77 39.3267 205.898 39.884 205.898 40.572V45.5H204.81ZM202.202 45.692C201.572 45.692 201.052 45.58 200.642 45.356C200.231 45.132 199.924 44.8413 199.722 44.484C199.519 44.1267 199.418 43.7507 199.418 43.356C199.418 42.8387 199.546 42.4173 199.802 42.092C200.063 41.7667 200.418 41.5293 200.866 41.38C201.314 41.2253 201.818 41.148 202.378 41.148C202.778 41.148 203.178 41.188 203.578 41.268C203.983 41.348 204.378 41.4573 204.762 41.596V42.38C204.442 42.252 204.079 42.1507 203.674 42.076C203.274 42.0013 202.906 41.964 202.57 41.964C202.058 41.964 201.626 42.0707 201.274 42.284C200.922 42.492 200.746 42.8493 200.746 43.356C200.746 43.7293 200.879 44.0493 201.146 44.316C201.418 44.5827 201.85 44.716 202.442 44.716C202.858 44.716 203.231 44.62 203.562 44.428C203.898 44.2307 204.162 43.9853 204.354 43.692C204.551 43.3987 204.65 43.1053 204.65 42.812H204.954C204.954 43.324 204.842 43.7987 204.618 44.236C204.399 44.6733 204.084 45.0253 203.674 45.292C203.263 45.5587 202.772 45.692 202.202 45.692ZM211.75 49.436C210.966 49.436 210.286 49.324 209.71 49.1C209.134 48.8813 208.686 48.5853 208.366 48.212C208.051 47.844 207.894 47.436 207.894 46.988C207.894 46.396 208.11 45.9427 208.542 45.628C208.979 45.3187 209.542 45.164 210.23 45.164L210.918 45.596C210.342 45.596 209.897 45.716 209.582 45.956C209.267 46.196 209.11 46.524 209.11 46.94C209.11 47.356 209.334 47.708 209.782 47.996C210.23 48.284 210.886 48.428 211.75 48.428C212.39 48.428 212.95 48.3347 213.43 48.148C213.915 47.9667 214.291 47.7267 214.558 47.428C214.83 47.1347 214.966 46.8173 214.966 46.476C214.966 46.236 214.878 46.028 214.702 45.852C214.526 45.6813 214.257 45.596 213.894 45.596H210.918C210.401 45.596 209.953 45.5187 209.574 45.364C209.201 45.204 208.913 44.996 208.71 44.74C208.507 44.484 208.406 44.204 208.406 43.9C208.406 43.58 208.497 43.308 208.678 43.084C208.859 42.86 209.094 42.6893 209.382 42.572C209.675 42.4547 209.99 42.396 210.326 42.396L210.566 42.86C210.406 42.86 210.243 42.8973 210.078 42.972C209.918 43.0413 209.782 43.148 209.67 43.292C209.563 43.4307 209.51 43.6067 209.51 43.82C209.51 44.0653 209.611 44.2707 209.814 44.436C210.017 44.6013 210.385 44.684 210.918 44.684H213.894C214.614 44.684 215.179 44.836 215.59 45.14C216.006 45.444 216.214 45.868 216.214 46.412C216.214 46.9133 216.035 47.3933 215.678 47.852C215.321 48.316 214.809 48.6947 214.142 48.988C213.475 49.2867 212.678 49.436 211.75 49.436ZM211.974 43.26C211.387 43.26 210.857 43.1427 210.382 42.908C209.913 42.6733 209.539 42.3453 209.262 41.924C208.99 41.5027 208.854 41.0147 208.854 40.46C208.854 39.9 208.99 39.4093 209.262 38.988C209.539 38.5667 209.913 38.2413 210.382 38.012C210.857 37.7773 211.387 37.66 211.974 37.66C212.545 37.66 213.062 37.7773 213.526 38.012C213.995 38.2413 214.369 38.5667 214.646 38.988C214.923 39.4093 215.062 39.9 215.062 40.46C215.062 41.0147 214.923 41.5027 214.646 41.924C214.369 42.3453 213.995 42.6733 213.526 42.908C213.062 43.1427 212.545 43.26 211.974 43.26ZM211.974 42.364C212.561 42.364 213.017 42.1827 213.342 41.82C213.667 41.4573 213.83 41.004 213.83 40.46C213.83 39.9 213.667 39.4467 213.342 39.1C213.017 38.748 212.561 38.572 211.974 38.572C211.393 38.572 210.934 38.748 210.598 39.1C210.267 39.4467 210.102 39.9 210.102 40.46C210.102 41.004 210.267 41.4573 210.598 41.82C210.934 42.1827 211.393 42.364 211.974 42.364ZM214.486 38.876L213.894 38.636C213.894 38.188 213.982 37.796 214.158 37.46C214.334 37.1187 214.585 36.8547 214.91 36.668C215.235 36.476 215.622 36.38 216.07 36.38L215.974 37.612C215.494 37.612 215.126 37.716 214.87 37.924C214.614 38.1267 214.486 38.444 214.486 38.876ZM220.893 45.692C220.232 45.692 219.64 45.524 219.117 45.188C218.6 44.8467 218.189 44.3747 217.885 43.772C217.587 43.1693 217.437 42.476 217.437 41.692C217.437 40.8547 217.587 40.1347 217.885 39.532C218.184 38.9293 218.592 38.468 219.109 38.148C219.632 37.8227 220.227 37.66 220.893 37.66C221.475 37.66 221.971 37.7773 222.381 38.012C222.792 38.2467 223.123 38.564 223.373 38.964C223.624 39.364 223.797 39.8173 223.893 40.324C223.995 40.8253 224.024 41.3453 223.981 41.884H218.445V41.116H223.157L222.789 41.356C222.805 41.0413 222.787 40.7267 222.733 40.412C222.685 40.0973 222.592 39.8093 222.453 39.548C222.315 39.2813 222.12 39.068 221.869 38.908C221.619 38.748 221.299 38.668 220.909 38.668C220.419 38.668 220.008 38.7933 219.677 39.044C219.347 39.2947 219.099 39.6253 218.933 40.036C218.768 40.4413 218.685 40.8813 218.685 41.356V41.868C218.685 42.4013 218.765 42.8787 218.925 43.3C219.091 43.7213 219.336 44.0547 219.661 44.3C219.987 44.5453 220.397 44.668 220.893 44.668C221.389 44.668 221.797 44.548 222.117 44.308C222.437 44.068 222.632 43.7133 222.701 43.244H223.997C223.917 43.7507 223.736 44.188 223.453 44.556C223.171 44.9187 222.811 45.1987 222.373 45.396C221.936 45.5933 221.443 45.692 220.893 45.692Z" fill="#333333"/>
</g>
<defs>
<filter id="filter0_d_7073_5848" x="19" y="0" width="236.767" height="68" filterUnits="userSpaceOnUse" color-interpolation-filters="sRGB">
<feFlood flood-opacity="0" result="BackgroundImageFix"/>
<feColorMatrix in="SourceAlpha" type="matrix" values="0 0 0 0 0 0 0 0 0 0 0 0 0 0 0 0 0 0 127 0" result="hardAlpha"/>
<feOffset dy="4"/>
<feGaussianBlur stdDeviation="3"/>
<feComposite in2="hardAlpha" operator="out"/>
<feColorMatrix type="matrix" values="0 0 0 0 0 0 0 0 0 0 0 0 0 0 0 0 0 0 0.1 0"/>
<feBlend mode="normal" in2="BackgroundImageFix" result="effect1_dropShadow_7073_5848"/>
<feBlend mode="normal" in="SourceGraphic" in2="effect1_dropShadow_7073_5848" result="shape"/>
</filter>
<filter id="filter1_d_7073_5848" x="29.6123" y="12.4756" width="200.574" height="46.96" filterUnits="userSpaceOnUse" color-interpolation-filters="sRGB">
<feFlood flood-opacity="0" result="BackgroundImageFix"/>
<feColorMatrix in="SourceAlpha" type="matrix" values="0 0 0 0 0 0 0 0 0 0 0 0 0 0 0 0 0 0 127 0" result="hardAlpha"/>
<feOffset dy="4"/>
<feGaussianBlur stdDeviation="3"/>
<feComposite in2="hardAlpha" operator="out"/>
<feColorMatrix type="matrix" values="0 0 0 0 0 0 0 0 0 0 0 0 0 0 0 0 0 0 0.05 0"/>
<feBlend mode="normal" in2="BackgroundImageFix" result="effect1_dropShadow_7073_5848"/>
<feBlend mode="normal" in="SourceGraphic" in2="effect1_dropShadow_7073_5848" result="shape"/>
</filter>
</defs>
</svg>
