<svg width="355" height="71" viewBox="0 0 355 71" fill="none" xmlns="http://www.w3.org/2000/svg">
<g filter="url(#filter0_d_6977_5415)">
<path d="M164 14.8C164 10.3196 164 8.07937 164.872 6.36808C165.639 4.86278 166.863 3.63893 168.368 2.87195C170.079 2 172.32 2 176.8 2H326.2C330.68 2 332.921 2 334.632 2.87195C336.137 3.63893 337.361 4.86278 338.128 6.36808C339 8.07937 339 10.3196 339 14.8V48.2C339 52.6804 339 54.9206 338.128 56.6319C337.361 58.1372 336.137 59.3611 334.632 60.1281C332.921 61 330.68 61 326.2 61H176.8C172.32 61 170.079 61 168.368 60.1281C166.863 59.3611 165.639 58.1372 164.872 56.6319C164 54.9206 164 52.6804 164 48.2V14.8Z" fill="white"/>
<path d="M182.67 26.5V16.452H183.918V26.5H182.67ZM189.943 18.852H191.239L193.191 25.236H193.031L194.935 19.22H195.975L197.863 25.252H197.719L199.671 18.852H200.919L198.407 26.5H197.191L195.335 20.852H195.527L193.687 26.5H192.471L189.943 18.852ZM205.793 26.692C205.105 26.692 204.491 26.54 203.953 26.236C203.419 25.932 202.998 25.4813 202.689 24.884C202.379 24.2867 202.225 23.5507 202.225 22.676C202.225 21.796 202.379 21.06 202.689 20.468C202.998 19.8707 203.419 19.42 203.953 19.116C204.491 18.812 205.105 18.66 205.793 18.66C206.475 18.66 207.083 18.812 207.617 19.116C208.155 19.42 208.577 19.8707 208.881 20.468C209.19 21.06 209.345 21.796 209.345 22.676C209.345 23.5507 209.19 24.2867 208.881 24.884C208.577 25.4813 208.155 25.932 207.617 26.236C207.083 26.54 206.475 26.692 205.793 26.692ZM205.761 25.604C206.257 25.604 206.678 25.4867 207.025 25.252C207.371 25.012 207.633 24.6733 207.809 24.236C207.99 23.7987 208.081 23.2787 208.081 22.676C208.081 21.764 207.891 21.0467 207.513 20.524C207.134 19.996 206.571 19.732 205.825 19.732C205.323 19.732 204.899 19.852 204.553 20.092C204.211 20.3267 203.95 20.6653 203.769 21.108C203.593 21.5453 203.505 22.068 203.505 22.676C203.505 23.5773 203.694 24.292 204.073 24.82C204.457 25.3427 205.019 25.604 205.761 25.604ZM217.135 18.836H218.383V26.5H217.135V18.836ZM211.711 18.836H212.959V23.604C212.959 24.244 213.113 24.7293 213.423 25.06C213.737 25.3907 214.185 25.556 214.767 25.556C215.247 25.556 215.663 25.428 216.015 25.172C216.372 24.916 216.647 24.564 216.839 24.116C217.036 23.6627 217.135 23.1453 217.135 22.564H217.599C217.599 23.4227 217.473 24.156 217.223 24.764C216.977 25.372 216.628 25.8387 216.175 26.164C215.727 26.484 215.199 26.644 214.591 26.644C214.015 26.644 213.511 26.5373 213.079 26.324C212.647 26.1107 212.311 25.788 212.071 25.356C211.831 24.9187 211.711 24.3667 211.711 23.7V18.836ZM221.782 26.5V15.588H223.03V26.5H221.782ZM229.163 26.692C228.544 26.692 227.976 26.5267 227.459 26.196C226.941 25.86 226.528 25.3907 226.219 24.788C225.909 24.18 225.755 23.4653 225.755 22.644C225.755 21.828 225.907 21.1213 226.211 20.524C226.515 19.9267 226.917 19.468 227.419 19.148C227.925 18.8227 228.48 18.66 229.083 18.66C229.643 18.66 230.133 18.796 230.555 19.068C230.981 19.34 231.312 19.732 231.547 20.244C231.781 20.756 231.899 21.3747 231.899 22.1H231.419C231.419 21.5933 231.317 21.1667 231.115 20.82C230.917 20.4733 230.659 20.212 230.339 20.036C230.019 19.8547 229.675 19.764 229.307 19.764C228.891 19.764 228.509 19.8813 228.163 20.116C227.821 20.3453 227.547 20.676 227.339 21.108C227.136 21.5347 227.035 22.0467 227.035 22.644C227.035 23.252 227.136 23.7747 227.339 24.212C227.547 24.6493 227.821 24.9853 228.163 25.22C228.509 25.4547 228.891 25.572 229.307 25.572C229.653 25.572 229.987 25.4813 230.307 25.3C230.632 25.1187 230.899 24.8547 231.107 24.508C231.315 24.156 231.419 23.732 231.419 23.236H231.899C231.899 23.9773 231.776 24.6067 231.531 25.124C231.291 25.636 230.963 26.0253 230.547 26.292C230.136 26.5587 229.675 26.692 229.163 26.692ZM231.627 26.5L231.419 24.708V15.588H232.667V26.5H231.627ZM240.028 26.5V15.588H241.276V26.5H240.028ZM245.376 17.044C245.12 17.044 244.918 16.972 244.768 16.828C244.619 16.6787 244.544 16.484 244.544 16.244C244.544 16.0093 244.619 15.8227 244.768 15.684C244.918 15.5453 245.12 15.476 245.376 15.476C245.632 15.476 245.835 15.5453 245.984 15.684C246.134 15.8227 246.208 16.0093 246.208 16.244C246.208 16.484 246.134 16.6787 245.984 16.828C245.835 16.972 245.632 17.044 245.376 17.044ZM244.752 26.5V18.836H246V26.5H244.752ZM249.598 26.5V15.588H250.846V26.5H249.598ZM250.654 22.116L254.558 18.852H256.302L250.654 23.444V22.116ZM254.942 26.5L251.31 21.668L252.574 21.444L256.478 26.5H254.942ZM261.43 26.692C260.768 26.692 260.176 26.524 259.654 26.188C259.136 25.8467 258.726 25.3747 258.422 24.772C258.123 24.1693 257.974 23.476 257.974 22.692C257.974 21.8547 258.123 21.1347 258.422 20.532C258.72 19.9293 259.128 19.468 259.646 19.148C260.168 18.8227 260.763 18.66 261.43 18.66C262.011 18.66 262.507 18.7773 262.918 19.012C263.328 19.2467 263.659 19.564 263.91 19.964C264.16 20.364 264.334 20.8173 264.43 21.324C264.531 21.8253 264.56 22.3453 264.518 22.884H258.982V22.116H263.694L263.326 22.356C263.342 22.0413 263.323 21.7267 263.27 21.412C263.222 21.0973 263.128 20.8093 262.99 20.548C262.851 20.2813 262.656 20.068 262.406 19.908C262.155 19.748 261.835 19.668 261.446 19.668C260.955 19.668 260.544 19.7933 260.214 20.044C259.883 20.2947 259.635 20.6253 259.47 21.036C259.304 21.4413 259.222 21.8813 259.222 22.356V22.868C259.222 23.4013 259.302 23.8787 259.462 24.3C259.627 24.7213 259.872 25.0547 260.198 25.3C260.523 25.5453 260.934 25.668 261.43 25.668C261.926 25.668 262.334 25.548 262.654 25.308C262.974 25.068 263.168 24.7133 263.238 24.244H264.534C264.454 24.7507 264.272 25.188 263.99 25.556C263.707 25.9187 263.347 26.1987 262.91 26.396C262.472 26.5933 261.979 26.692 261.43 26.692ZM273.461 26.692C273.045 26.692 272.672 26.612 272.341 26.452C272.01 26.292 271.749 26.052 271.557 25.732C271.365 25.412 271.269 25.012 271.269 24.532V16.724H272.501V24.5C272.501 25.2893 272.869 25.684 273.605 25.684C273.824 25.684 274.034 25.66 274.237 25.612C274.445 25.564 274.677 25.492 274.933 25.396L275.109 26.292C274.837 26.4093 274.565 26.5053 274.293 26.58C274.026 26.6547 273.749 26.692 273.461 26.692ZM270.037 19.716V18.852H274.917V19.716H270.037ZM280.053 26.692C279.365 26.692 278.751 26.54 278.213 26.236C277.679 25.932 277.258 25.4813 276.949 24.884C276.639 24.2867 276.485 23.5507 276.485 22.676C276.485 21.796 276.639 21.06 276.949 20.468C277.258 19.8707 277.679 19.42 278.213 19.116C278.751 18.812 279.365 18.66 280.053 18.66C280.735 18.66 281.343 18.812 281.877 19.116C282.415 19.42 282.837 19.8707 283.141 20.468C283.45 21.06 283.605 21.796 283.605 22.676C283.605 23.5507 283.45 24.2867 283.141 24.884C282.837 25.4813 282.415 25.932 281.877 26.236C281.343 26.54 280.735 26.692 280.053 26.692ZM280.021 25.604C280.517 25.604 280.938 25.4867 281.285 25.252C281.631 25.012 281.893 24.6733 282.069 24.236C282.25 23.7987 282.341 23.2787 282.341 22.676C282.341 21.764 282.151 21.0467 281.773 20.524C281.394 19.996 280.831 19.732 280.085 19.732C279.583 19.732 279.159 19.852 278.813 20.092C278.471 20.3267 278.21 20.6653 278.029 21.108C277.853 21.5453 277.765 22.068 277.765 22.676C277.765 23.5773 277.954 24.292 278.333 24.82C278.717 25.3427 279.279 25.604 280.021 25.604ZM292.904 26.692C292.162 26.692 291.544 26.588 291.048 26.38C290.552 26.1667 290.176 25.876 289.92 25.508C289.664 25.1347 289.528 24.708 289.512 24.228H290.712C290.738 24.7133 290.933 25.0787 291.296 25.324C291.664 25.564 292.162 25.684 292.792 25.684C293.122 25.684 293.426 25.6307 293.704 25.524C293.981 25.4173 294.202 25.2707 294.368 25.084C294.533 24.8973 294.616 24.6867 294.616 24.452C294.616 24.1533 294.506 23.9187 294.288 23.748C294.069 23.5773 293.72 23.428 293.24 23.3L291.752 22.82C291.106 22.6173 290.61 22.34 290.264 21.988C289.922 21.6307 289.752 21.204 289.752 20.708C289.752 20.0893 290.024 19.5933 290.568 19.22C291.112 18.8467 291.826 18.66 292.712 18.66C293.65 18.66 294.378 18.852 294.896 19.236C295.413 19.62 295.682 20.1 295.704 20.676H294.472C294.424 20.34 294.253 20.0867 293.96 19.916C293.666 19.74 293.25 19.652 292.712 19.652C292.194 19.652 291.789 19.7693 291.496 20.004C291.208 20.2333 291.064 20.4893 291.064 20.772C291.064 21.3 291.517 21.6893 292.424 21.94L293.944 22.452C294.6 22.6493 295.101 22.908 295.448 23.228C295.8 23.548 295.976 23.956 295.976 24.452C295.976 24.836 295.85 25.1987 295.6 25.54C295.349 25.8813 294.994 26.1587 294.536 26.372C294.077 26.5853 293.533 26.692 292.904 26.692ZM303.454 26.5L303.294 24.82V21.54C303.294 20.852 303.147 20.3587 302.854 20.06C302.561 19.756 302.121 19.604 301.534 19.604C301.203 19.604 300.902 19.652 300.63 19.748C300.363 19.844 300.15 19.9933 299.99 20.196C299.835 20.3933 299.758 20.6493 299.758 20.964H298.366C298.366 20.4093 298.502 19.964 298.774 19.628C299.046 19.2867 299.419 19.0413 299.894 18.892C300.374 18.7373 300.921 18.66 301.534 18.66C302.121 18.66 302.641 18.7587 303.094 18.956C303.547 19.1533 303.902 19.468 304.158 19.9C304.414 20.3267 304.542 20.884 304.542 21.572V26.5H303.454ZM300.846 26.692C300.217 26.692 299.697 26.58 299.286 26.356C298.875 26.132 298.569 25.8413 298.366 25.484C298.163 25.1267 298.062 24.7507 298.062 24.356C298.062 23.8387 298.19 23.4173 298.446 23.092C298.707 22.7667 299.062 22.5293 299.51 22.38C299.958 22.2253 300.462 22.148 301.022 22.148C301.422 22.148 301.822 22.188 302.222 22.268C302.627 22.348 303.022 22.4573 303.406 22.596V23.38C303.086 23.252 302.723 23.1507 302.318 23.076C301.918 23.0013 301.55 22.964 301.214 22.964C300.702 22.964 300.27 23.0707 299.918 23.284C299.566 23.492 299.39 23.8493 299.39 24.356C299.39 24.7293 299.523 25.0493 299.79 25.316C300.062 25.5827 300.494 25.716 301.086 25.716C301.502 25.716 301.875 25.62 302.206 25.428C302.542 25.2307 302.806 24.9853 302.998 24.692C303.195 24.3987 303.294 24.1053 303.294 23.812H303.598C303.598 24.324 303.486 24.7987 303.262 25.236C303.043 25.6733 302.729 26.0253 302.318 26.292C301.907 26.5587 301.417 26.692 300.846 26.692ZM306.362 18.852H307.786L310.186 25.428H310.01L312.41 18.852H313.834L310.778 26.5H309.418L306.362 18.852ZM318.553 26.692C317.892 26.692 317.3 26.524 316.777 26.188C316.26 25.8467 315.849 25.3747 315.545 24.772C315.247 24.1693 315.097 23.476 315.097 22.692C315.097 21.8547 315.247 21.1347 315.545 20.532C315.844 19.9293 316.252 19.468 316.769 19.148C317.292 18.8227 317.887 18.66 318.553 18.66C319.135 18.66 319.631 18.7773 320.041 19.012C320.452 19.2467 320.783 19.564 321.033 19.964C321.284 20.364 321.457 20.8173 321.553 21.324C321.655 21.8253 321.684 22.3453 321.641 22.884H316.105V22.116H320.817L320.449 22.356C320.465 22.0413 320.447 21.7267 320.393 21.412C320.345 21.0973 320.252 20.8093 320.113 20.548C319.975 20.2813 319.78 20.068 319.529 19.908C319.279 19.748 318.959 19.668 318.569 19.668C318.079 19.668 317.668 19.7933 317.337 20.044C317.007 20.2947 316.759 20.6253 316.593 21.036C316.428 21.4413 316.345 21.8813 316.345 22.356V22.868C316.345 23.4013 316.425 23.8787 316.585 24.3C316.751 24.7213 316.996 25.0547 317.321 25.3C317.647 25.5453 318.057 25.668 318.553 25.668C319.049 25.668 319.457 25.548 319.777 25.308C320.097 25.068 320.292 24.7133 320.361 24.244H321.657C321.577 24.7507 321.396 25.188 321.113 25.556C320.831 25.9187 320.471 26.1987 320.033 26.396C319.596 26.5933 319.103 26.692 318.553 26.692ZM194.444 46.692C194.028 46.692 193.654 46.612 193.324 46.452C192.993 46.292 192.732 46.052 192.54 45.732C192.348 45.412 192.252 45.012 192.252 44.532V36.724H193.484V44.5C193.484 45.2893 193.852 45.684 194.588 45.684C194.806 45.684 195.017 45.66 195.22 45.612C195.428 45.564 195.66 45.492 195.916 45.396L196.092 46.292C195.82 46.4093 195.548 46.5053 195.276 46.58C195.009 46.6547 194.732 46.692 194.444 46.692ZM191.02 39.716V38.852H195.9V39.716H191.02ZM203.707 46.5V42.004C203.707 41.2733 203.531 40.7187 203.179 40.34C202.833 39.956 202.358 39.764 201.755 39.764C201.297 39.764 200.899 39.8893 200.563 40.14C200.227 40.3907 199.969 40.7507 199.787 41.22C199.606 41.684 199.515 42.2387 199.515 42.884H199.035C199.035 41.9933 199.153 41.2333 199.387 40.604C199.622 39.9747 199.963 39.4947 200.411 39.164C200.865 38.828 201.414 38.66 202.059 38.66C202.662 38.66 203.177 38.796 203.603 39.068C204.035 39.3347 204.366 39.7187 204.595 40.22C204.825 40.7213 204.939 41.316 204.939 42.004V46.5H203.707ZM198.267 46.5V35.588H199.515V46.5H198.267ZM208.788 37.044C208.532 37.044 208.329 36.972 208.18 36.828C208.03 36.6787 207.956 36.484 207.956 36.244C207.956 36.0093 208.03 35.8227 208.18 35.684C208.329 35.5453 208.532 35.476 208.788 35.476C209.044 35.476 209.246 35.5453 209.396 35.684C209.545 35.8227 209.62 36.0093 209.62 36.244C209.62 36.484 209.545 36.6787 209.396 36.828C209.246 36.972 209.044 37.044 208.788 37.044ZM208.164 46.5V38.836H209.412V46.5H208.164ZM215.761 46.692C215.02 46.692 214.401 46.588 213.905 46.38C213.409 46.1667 213.033 45.876 212.777 45.508C212.521 45.1347 212.385 44.708 212.369 44.228H213.569C213.596 44.7133 213.79 45.0787 214.153 45.324C214.521 45.564 215.02 45.684 215.649 45.684C215.98 45.684 216.284 45.6307 216.561 45.524C216.838 45.4173 217.06 45.2707 217.225 45.084C217.39 44.8973 217.473 44.6867 217.473 44.452C217.473 44.1533 217.364 43.9187 217.145 43.748C216.926 43.5773 216.577 43.428 216.097 43.3L214.609 42.82C213.964 42.6173 213.468 42.34 213.121 41.988C212.78 41.6307 212.609 41.204 212.609 40.708C212.609 40.0893 212.881 39.5933 213.425 39.22C213.969 38.8467 214.684 38.66 215.569 38.66C216.508 38.66 217.236 38.852 217.753 39.236C218.27 39.62 218.54 40.1 218.561 40.676H217.329C217.281 40.34 217.11 40.0867 216.817 39.916C216.524 39.74 216.108 39.652 215.569 39.652C215.052 39.652 214.646 39.7693 214.353 40.004C214.065 40.2333 213.921 40.4893 213.921 40.772C213.921 41.3 214.374 41.6893 215.281 41.94L216.801 42.452C217.457 42.6493 217.958 42.908 218.305 43.228C218.657 43.548 218.833 43.956 218.833 44.452C218.833 44.836 218.708 45.1987 218.457 45.54C218.206 45.8813 217.852 46.1587 217.393 46.372C216.934 46.5853 216.39 46.692 215.761 46.692ZM229.004 46.692C228.444 46.692 227.956 46.564 227.54 46.308C227.13 46.052 226.812 45.6787 226.588 45.188C226.364 44.692 226.252 44.0893 226.252 43.38H226.78C226.78 43.8547 226.879 44.2547 227.076 44.58C227.274 44.9053 227.53 45.1533 227.844 45.324C228.164 45.4893 228.503 45.572 228.86 45.572C229.244 45.572 229.612 45.4627 229.964 45.244C230.316 45.02 230.604 44.692 230.828 44.26C231.052 43.828 231.164 43.2947 231.164 42.66C231.164 42.052 231.06 41.532 230.852 41.1C230.65 40.668 230.375 40.3373 230.028 40.108C229.682 39.8787 229.298 39.764 228.876 39.764C228.514 39.764 228.172 39.852 227.852 40.028C227.532 40.204 227.274 40.4627 227.076 40.804C226.879 41.14 226.78 41.556 226.78 42.052H226.252C226.252 41.3107 226.375 40.6893 226.62 40.188C226.866 39.6813 227.199 39.3 227.62 39.044C228.042 38.788 228.514 38.66 229.036 38.66C229.634 38.66 230.191 38.82 230.708 39.14C231.226 39.46 231.644 39.9187 231.964 40.516C232.284 41.1133 232.444 41.828 232.444 42.66C232.444 43.5027 232.282 44.2253 231.956 44.828C231.636 45.4307 231.215 45.892 230.692 46.212C230.17 46.532 229.607 46.692 229.004 46.692ZM225.532 50.26V38.852H226.572L226.78 40.644V50.26H225.532ZM239.788 46.5L239.628 44.82V41.54C239.628 40.852 239.481 40.3587 239.188 40.06C238.894 39.756 238.454 39.604 237.868 39.604C237.537 39.604 237.236 39.652 236.964 39.748C236.697 39.844 236.484 39.9933 236.324 40.196C236.169 40.3933 236.092 40.6493 236.092 40.964H234.7C234.7 40.4093 234.836 39.964 235.108 39.628C235.38 39.2867 235.753 39.0413 236.228 38.892C236.708 38.7373 237.254 38.66 237.868 38.66C238.454 38.66 238.974 38.7587 239.428 38.956C239.881 39.1533 240.236 39.468 240.492 39.9C240.748 40.3267 240.876 40.884 240.876 41.572V46.5H239.788ZM237.18 46.692C236.55 46.692 236.03 46.58 235.62 46.356C235.209 46.132 234.902 45.8413 234.7 45.484C234.497 45.1267 234.396 44.7507 234.396 44.356C234.396 43.8387 234.524 43.4173 234.78 43.092C235.041 42.7667 235.396 42.5293 235.844 42.38C236.292 42.2253 236.796 42.148 237.356 42.148C237.756 42.148 238.156 42.188 238.556 42.268C238.961 42.348 239.356 42.4573 239.74 42.596V43.38C239.42 43.252 239.057 43.1507 238.652 43.076C238.252 43.0013 237.884 42.964 237.548 42.964C237.036 42.964 236.604 43.0707 236.252 43.284C235.9 43.492 235.724 43.8493 235.724 44.356C235.724 44.7293 235.857 45.0493 236.124 45.316C236.396 45.5827 236.828 45.716 237.42 45.716C237.836 45.716 238.209 45.62 238.54 45.428C238.876 45.2307 239.14 44.9853 239.332 44.692C239.529 44.3987 239.628 44.1053 239.628 43.812H239.932C239.932 44.324 239.82 44.7987 239.596 45.236C239.377 45.6733 239.062 46.0253 238.652 46.292C238.241 46.5587 237.75 46.692 237.18 46.692ZM246.728 50.436C245.944 50.436 245.264 50.324 244.688 50.1C244.112 49.8813 243.664 49.5853 243.344 49.212C243.029 48.844 242.872 48.436 242.872 47.988C242.872 47.396 243.088 46.9427 243.52 46.628C243.957 46.3187 244.52 46.164 245.208 46.164L245.896 46.596C245.32 46.596 244.875 46.716 244.56 46.956C244.245 47.196 244.088 47.524 244.088 47.94C244.088 48.356 244.312 48.708 244.76 48.996C245.208 49.284 245.864 49.428 246.728 49.428C247.368 49.428 247.928 49.3347 248.408 49.148C248.893 48.9667 249.269 48.7267 249.536 48.428C249.808 48.1347 249.944 47.8173 249.944 47.476C249.944 47.236 249.856 47.028 249.68 46.852C249.504 46.6813 249.235 46.596 248.872 46.596H245.896C245.379 46.596 244.931 46.5187 244.552 46.364C244.179 46.204 243.891 45.996 243.688 45.74C243.485 45.484 243.384 45.204 243.384 44.9C243.384 44.58 243.475 44.308 243.656 44.084C243.837 43.86 244.072 43.6893 244.36 43.572C244.653 43.4547 244.968 43.396 245.304 43.396L245.544 43.86C245.384 43.86 245.221 43.8973 245.056 43.972C244.896 44.0413 244.76 44.148 244.648 44.292C244.541 44.4307 244.488 44.6067 244.488 44.82C244.488 45.0653 244.589 45.2707 244.792 45.436C244.995 45.6013 245.363 45.684 245.896 45.684H248.872C249.592 45.684 250.157 45.836 250.568 46.14C250.984 46.444 251.192 46.868 251.192 47.412C251.192 47.9133 251.013 48.3933 250.656 48.852C250.299 49.316 249.787 49.6947 249.12 49.988C248.453 50.2867 247.656 50.436 246.728 50.436ZM246.952 44.26C246.365 44.26 245.835 44.1427 245.36 43.908C244.891 43.6733 244.517 43.3453 244.24 42.924C243.968 42.5027 243.832 42.0147 243.832 41.46C243.832 40.9 243.968 40.4093 244.24 39.988C244.517 39.5667 244.891 39.2413 245.36 39.012C245.835 38.7773 246.365 38.66 246.952 38.66C247.523 38.66 248.04 38.7773 248.504 39.012C248.973 39.2413 249.347 39.5667 249.624 39.988C249.901 40.4093 250.04 40.9 250.04 41.46C250.04 42.0147 249.901 42.5027 249.624 42.924C249.347 43.3453 248.973 43.6733 248.504 43.908C248.04 44.1427 247.523 44.26 246.952 44.26ZM246.952 43.364C247.539 43.364 247.995 43.1827 248.32 42.82C248.645 42.4573 248.808 42.004 248.808 41.46C248.808 40.9 248.645 40.4467 248.32 40.1C247.995 39.748 247.539 39.572 246.952 39.572C246.371 39.572 245.912 39.748 245.576 40.1C245.245 40.4467 245.08 40.9 245.08 41.46C245.08 42.004 245.245 42.4573 245.576 42.82C245.912 43.1827 246.371 43.364 246.952 43.364ZM249.464 39.876L248.872 39.636C248.872 39.188 248.96 38.796 249.136 38.46C249.312 38.1187 249.563 37.8547 249.888 37.668C250.213 37.476 250.6 37.38 251.048 37.38L250.952 38.612C250.472 38.612 250.104 38.716 249.848 38.924C249.592 39.1267 249.464 39.444 249.464 39.876ZM255.871 46.692C255.21 46.692 254.618 46.524 254.095 46.188C253.578 45.8467 253.167 45.3747 252.863 44.772C252.565 44.1693 252.415 43.476 252.415 42.692C252.415 41.8547 252.565 41.1347 252.863 40.532C253.162 39.9293 253.57 39.468 254.087 39.148C254.61 38.8227 255.205 38.66 255.871 38.66C256.453 38.66 256.949 38.7773 257.359 39.012C257.77 39.2467 258.101 39.564 258.351 39.964C258.602 40.364 258.775 40.8173 258.871 41.324C258.973 41.8253 259.002 42.3453 258.959 42.884H253.423V42.116H258.135L257.767 42.356C257.783 42.0413 257.765 41.7267 257.711 41.412C257.663 41.0973 257.57 40.8093 257.431 40.548C257.293 40.2813 257.098 40.068 256.847 39.908C256.597 39.748 256.277 39.668 255.887 39.668C255.397 39.668 254.986 39.7933 254.655 40.044C254.325 40.2947 254.077 40.6253 253.911 41.036C253.746 41.4413 253.663 41.8813 253.663 42.356V42.868C253.663 43.4013 253.743 43.8787 253.903 44.3C254.069 44.7213 254.314 45.0547 254.639 45.3C254.965 45.5453 255.375 45.668 255.871 45.668C256.367 45.668 256.775 45.548 257.095 45.308C257.415 45.068 257.61 44.7133 257.679 44.244H258.975C258.895 44.7507 258.714 45.188 258.431 45.556C258.149 45.9187 257.789 46.1987 257.351 46.396C256.914 46.5933 256.421 46.692 255.871 46.692ZM265.967 46.5V37.668C265.967 37.1613 266.063 36.748 266.255 36.428C266.452 36.1027 266.714 35.8627 267.039 35.708C267.37 35.5533 267.738 35.476 268.143 35.476C268.362 35.476 268.583 35.492 268.807 35.524C269.036 35.556 269.263 35.604 269.487 35.668L269.247 36.66C269.087 36.596 268.927 36.548 268.767 36.516C268.612 36.484 268.463 36.468 268.319 36.468C268.148 36.468 267.978 36.5 267.807 36.564C267.636 36.628 267.495 36.748 267.383 36.924C267.271 37.1 267.215 37.3533 267.215 37.684V46.5H265.967ZM264.719 39.716V38.852H268.799V39.716H264.719ZM273.963 46.692C273.275 46.692 272.662 46.54 272.123 46.236C271.59 45.932 271.169 45.4813 270.859 44.884C270.55 44.2867 270.395 43.5507 270.395 42.676C270.395 41.796 270.55 41.06 270.859 40.468C271.169 39.8707 271.59 39.42 272.123 39.116C272.662 38.812 273.275 38.66 273.963 38.66C274.646 38.66 275.254 38.812 275.787 39.116C276.326 39.42 276.747 39.8707 277.051 40.468C277.361 41.06 277.515 41.796 277.515 42.676C277.515 43.5507 277.361 44.2867 277.051 44.884C276.747 45.4813 276.326 45.932 275.787 46.236C275.254 46.54 274.646 46.692 273.963 46.692ZM273.931 45.604C274.427 45.604 274.849 45.4867 275.195 45.252C275.542 45.012 275.803 44.6733 275.979 44.236C276.161 43.7987 276.251 43.2787 276.251 42.676C276.251 41.764 276.062 41.0467 275.683 40.524C275.305 39.996 274.742 39.732 273.995 39.732C273.494 39.732 273.07 39.852 272.723 40.092C272.382 40.3267 272.121 40.6653 271.939 41.108C271.763 41.5453 271.675 42.068 271.675 42.676C271.675 43.5773 271.865 44.292 272.243 44.82C272.627 45.3427 273.19 45.604 273.931 45.604ZM280.105 46.5V38.836H281.353V46.5H280.105ZM280.969 43.044C280.969 42.0733 281.063 41.268 281.249 40.628C281.436 39.9827 281.708 39.5027 282.065 39.188C282.428 38.868 282.868 38.708 283.385 38.708C283.556 38.708 283.711 38.7213 283.849 38.748C283.993 38.7693 284.137 38.804 284.281 38.852L284.201 40.084C284.052 40.036 283.889 39.996 283.713 39.964C283.537 39.9267 283.38 39.908 283.241 39.908C282.788 39.908 282.423 40.0387 282.145 40.3C281.868 40.556 281.665 40.9187 281.537 41.388C281.415 41.8573 281.353 42.4093 281.353 43.044H280.969ZM290.004 46.5V35.588H291.252V46.5H290.004ZM299.384 46.5L299.224 44.82V41.54C299.224 40.852 299.077 40.3587 298.784 40.06C298.491 39.756 298.051 39.604 297.464 39.604C297.133 39.604 296.832 39.652 296.56 39.748C296.293 39.844 296.08 39.9933 295.92 40.196C295.765 40.3933 295.688 40.6493 295.688 40.964H294.296C294.296 40.4093 294.432 39.964 294.704 39.628C294.976 39.2867 295.349 39.0413 295.824 38.892C296.304 38.7373 296.851 38.66 297.464 38.66C298.051 38.66 298.571 38.7587 299.024 38.956C299.477 39.1533 299.832 39.468 300.088 39.9C300.344 40.3267 300.472 40.884 300.472 41.572V46.5H299.384ZM296.776 46.692C296.147 46.692 295.627 46.58 295.216 46.356C294.805 46.132 294.499 45.8413 294.296 45.484C294.093 45.1267 293.992 44.7507 293.992 44.356C293.992 43.8387 294.12 43.4173 294.376 43.092C294.637 42.7667 294.992 42.5293 295.44 42.38C295.888 42.2253 296.392 42.148 296.952 42.148C297.352 42.148 297.752 42.188 298.152 42.268C298.557 42.348 298.952 42.4573 299.336 42.596V43.38C299.016 43.252 298.653 43.1507 298.248 43.076C297.848 43.0013 297.48 42.964 297.144 42.964C296.632 42.964 296.2 43.0707 295.848 43.284C295.496 43.492 295.32 43.8493 295.32 44.356C295.32 44.7293 295.453 45.0493 295.72 45.316C295.992 45.5827 296.424 45.716 297.016 45.716C297.432 45.716 297.805 45.62 298.136 45.428C298.472 45.2307 298.736 44.9853 298.928 44.692C299.125 44.3987 299.224 44.1053 299.224 43.812H299.528C299.528 44.324 299.416 44.7987 299.192 45.236C298.973 45.6733 298.659 46.0253 298.248 46.292C297.837 46.5587 297.347 46.692 296.776 46.692ZM305.972 46.692C305.556 46.692 305.183 46.612 304.852 46.452C304.522 46.292 304.26 46.052 304.068 45.732C303.876 45.412 303.78 45.012 303.78 44.532V36.724H305.012V44.5C305.012 45.2893 305.38 45.684 306.116 45.684C306.335 45.684 306.546 45.66 306.748 45.612C306.956 45.564 307.188 45.492 307.444 45.396L307.62 46.292C307.348 46.4093 307.076 46.5053 306.804 46.58C306.538 46.6547 306.26 46.692 305.972 46.692ZM302.548 39.716V38.852H307.428V39.716H302.548ZM312.452 46.692C311.791 46.692 311.199 46.524 310.676 46.188C310.159 45.8467 309.748 45.3747 309.444 44.772C309.145 44.1693 308.996 43.476 308.996 42.692C308.996 41.8547 309.145 41.1347 309.444 40.532C309.743 39.9293 310.151 39.468 310.668 39.148C311.191 38.8227 311.785 38.66 312.452 38.66C313.033 38.66 313.529 38.7773 313.94 39.012C314.351 39.2467 314.681 39.564 314.932 39.964C315.183 40.364 315.356 40.8173 315.452 41.324C315.553 41.8253 315.583 42.3453 315.54 42.884H310.004V42.116H314.716L314.348 42.356C314.364 42.0413 314.345 41.7267 314.292 41.412C314.244 41.0973 314.151 40.8093 314.012 40.548C313.873 40.2813 313.679 40.068 313.428 39.908C313.177 39.748 312.857 39.668 312.468 39.668C311.977 39.668 311.567 39.7933 311.236 40.044C310.905 40.2947 310.657 40.6253 310.492 41.036C310.327 41.4413 310.244 41.8813 310.244 42.356V42.868C310.244 43.4013 310.324 43.8787 310.484 44.3C310.649 44.7213 310.895 45.0547 311.22 45.3C311.545 45.5453 311.956 45.668 312.452 45.668C312.948 45.668 313.356 45.548 313.676 45.308C313.996 45.068 314.191 44.7133 314.26 44.244H315.556C315.476 44.7507 315.295 45.188 315.012 45.556C314.729 45.9187 314.369 46.1987 313.932 46.396C313.495 46.5933 313.001 46.692 312.452 46.692ZM318.175 46.5V38.836H319.423V46.5H318.175ZM319.039 43.044C319.039 42.0733 319.132 41.268 319.319 40.628C319.505 39.9827 319.777 39.5027 320.135 39.188C320.497 38.868 320.937 38.708 321.455 38.708C321.625 38.708 321.78 38.7213 321.919 38.748C322.063 38.7693 322.207 38.804 322.351 38.852L322.271 40.084C322.121 40.036 321.959 39.996 321.783 39.964C321.607 39.9267 321.449 39.908 321.311 39.908C320.857 39.908 320.492 40.0387 320.215 40.3C319.937 40.556 319.735 40.9187 319.607 41.388C319.484 41.8573 319.423 42.4093 319.423 43.044H319.039Z" fill="#333333"/>
<path d="M168.368 60.1281L168.05 60.7518L168.368 60.1281ZM164.872 56.6319L165.496 56.3141L164.872 56.6319ZM338.128 56.6319L338.752 56.9497L338.128 56.6319ZM334.632 60.1281L334.95 60.7518L334.632 60.1281ZM334.632 2.87195L334.314 3.49565L334.632 2.87195ZM338.128 6.36808L337.504 6.68587L338.128 6.36808ZM168.368 2.87195L168.05 2.24824L168.368 2.87195ZM164.872 6.36808L164.248 6.05028L164.872 6.36808ZM176.8 2.7H326.2V1.3H176.8V2.7ZM338.3 14.8V48.2H339.7V14.8H338.3ZM326.2 60.3H176.8V61.7H326.2V60.3ZM164.7 48.2V14.8H163.3V48.2H164.7ZM176.8 60.3C174.548 60.3 172.902 60.2995 171.603 60.1933C170.312 60.0879 169.426 59.8817 168.686 59.5043L168.05 60.7518C169.021 61.2464 170.111 61.4762 171.489 61.5887C172.858 61.7005 174.571 61.7 176.8 61.7V60.3ZM163.3 48.2C163.3 50.4287 163.299 52.1423 163.411 53.5114C163.524 54.8887 163.754 55.9789 164.248 56.9497L165.496 56.3141C165.118 55.5736 164.912 54.6881 164.807 53.3974C164.701 52.0985 164.7 50.4518 164.7 48.2H163.3ZM168.686 59.5043C167.312 58.8045 166.196 57.6877 165.496 56.3141L164.248 56.9497C165.082 58.5867 166.413 59.9177 168.05 60.7518L168.686 59.5043ZM338.3 48.2C338.3 50.4518 338.299 52.0985 338.193 53.3974C338.088 54.6881 337.882 55.5736 337.504 56.3141L338.752 56.9497C339.246 55.9789 339.476 54.8887 339.589 53.5114C339.701 52.1423 339.7 50.4287 339.7 48.2H338.3ZM326.2 61.7C328.429 61.7 330.142 61.7005 331.511 61.5887C332.889 61.4762 333.979 61.2464 334.95 60.7518L334.314 59.5043C333.574 59.8817 332.688 60.0879 331.397 60.1933C330.098 60.2995 328.452 60.3 326.2 60.3V61.7ZM337.504 56.3141C336.804 57.6877 335.688 58.8045 334.314 59.5043L334.95 60.7518C336.587 59.9177 337.918 58.5867 338.752 56.9497L337.504 56.3141ZM326.2 2.7C328.452 2.7 330.098 2.70054 331.397 2.80667C332.688 2.91213 333.574 3.11834 334.314 3.49565L334.95 2.24824C333.979 1.75361 332.889 1.52385 331.511 1.41132C330.142 1.29946 328.429 1.3 326.2 1.3V2.7ZM339.7 14.8C339.7 12.5713 339.701 10.8577 339.589 9.48861C339.476 8.11131 339.246 7.02106 338.752 6.05028L337.504 6.68587C337.882 7.42639 338.088 8.31189 338.193 9.60262C338.299 10.9015 338.3 12.5482 338.3 14.8H339.7ZM334.314 3.49565C335.688 4.19553 336.804 5.31229 337.504 6.68587L338.752 6.05028C337.918 4.41327 336.587 3.08234 334.95 2.24824L334.314 3.49565ZM176.8 1.3C174.571 1.3 172.858 1.29946 171.489 1.41132C170.111 1.52385 169.021 1.75361 168.05 2.24824L168.686 3.49565C169.426 3.11834 170.312 2.91213 171.603 2.80667C172.902 2.70054 174.548 2.7 176.8 2.7V1.3ZM164.7 14.8C164.7 12.5482 164.701 10.9015 164.807 9.60262C164.912 8.31189 165.118 7.42639 165.496 6.68587L164.248 6.05028C163.754 7.02106 163.524 8.11131 163.411 9.48861C163.299 10.8577 163.3 12.5713 163.3 14.8H164.7ZM168.05 2.24824C166.413 3.08234 165.082 4.41327 164.248 6.05028L165.496 6.68587C166.196 5.31229 167.312 4.19553 168.686 3.49565L168.05 2.24824Z" fill="#333333"/>
<path d="M346.751 29.3375L336 19L336 44L346.751 33.6625C347.979 32.4821 347.979 30.5179 346.751 29.3375Z" fill="white"/>
<path d="M338.977 20.988L347.557 28.9865L346.602 30.0105L338.023 22.012L338.977 20.988ZM347.48 34.4687L338.963 41.9744L338.037 40.9241L346.554 33.4184L347.48 34.4687ZM347.557 28.9865C349.156 30.4776 349.12 33.023 347.48 34.4687L346.554 33.4184C347.574 32.5197 347.596 30.9374 346.602 30.0105L347.557 28.9865Z" fill="#333333"/>
</g>
<defs>
<filter id="filter0_d_6977_5415" x="158" y="0" width="196.734" height="71" filterUnits="userSpaceOnUse" color-interpolation-filters="sRGB">
<feFlood flood-opacity="0" result="BackgroundImageFix"/>
<feColorMatrix in="SourceAlpha" type="matrix" values="0 0 0 0 0 0 0 0 0 0 0 0 0 0 0 0 0 0 127 0" result="hardAlpha"/>
<feOffset dy="4"/>
<feGaussianBlur stdDeviation="3"/>
<feComposite in2="hardAlpha" operator="out"/>
<feColorMatrix type="matrix" values="0 0 0 0 0 0 0 0 0 0 0 0 0 0 0 0 0 0 0.05 0"/>
<feBlend mode="normal" in2="BackgroundImageFix" result="effect1_dropShadow_6977_5415"/>
<feBlend mode="normal" in="SourceGraphic" in2="effect1_dropShadow_6977_5415" result="shape"/>
</filter>
</defs>
</svg>
