<svg width="256" height="68" viewBox="0 0 256 68" fill="none" xmlns="http://www.w3.org/2000/svg">
<mask id="path-1-inside-1_7099_6252" fill="white">
<path d="M248.724 27.3669L239 19L239 11C239 6.02944 234.971 2 230 2L9.00022 1.99998C4.02965 1.99998 0.000218166 6.02942 0.000217732 11L0.00021441 49C0.000213975 53.9705 4.02965 58 9.00021 58L230 58C234.971 58 239 53.9706 239 49L239 39.5L248.612 32.0069C250.106 30.8425 250.16 28.6022 248.724 27.3669Z"/>
</mask>
<path d="M248.724 27.3669L239 19L239 11C239 6.02944 234.971 2 230 2L9.00022 1.99998C4.02965 1.99998 0.000218166 6.02942 0.000217732 11L0.00021441 49C0.000213975 53.9705 4.02965 58 9.00021 58L230 58C234.971 58 239 53.9706 239 49L239 39.5L248.612 32.0069C250.106 30.8425 250.16 28.6022 248.724 27.3669Z" fill="white"/>
<path d="M239 19L237.6 19L237.6 19.6423L238.087 20.0612L239 19ZM248.724 27.3669L249.637 26.3056L249.637 26.3056L248.724 27.3669ZM248.612 32.0069L247.751 30.9028L247.751 30.9028L248.612 32.0069ZM239 39.5L238.139 38.3959L237.6 38.8162L237.6 39.5L239 39.5ZM238.087 20.0612L247.811 28.4281L249.637 26.3056L239.913 17.9388L238.087 20.0612ZM247.751 30.9028L238.139 38.3959L239.861 40.6041L249.473 33.1111L247.751 30.9028ZM247.811 28.4281C248.577 29.0869 248.548 30.2817 247.751 30.9028L249.473 33.1111C251.664 31.4032 251.743 28.1175 249.637 26.3056L247.811 28.4281ZM230 56.6L9.00021 56.6L9.00021 59.4L230 59.4L230 56.6ZM1.40021 49L1.40021 11L-1.39978 11L-1.39978 49L1.40021 49ZM9.00022 3.39998L230 3.4L230 0.599997L9.00022 0.599977L9.00022 3.39998ZM237.6 39.5L237.6 49L240.4 49L240.4 39.5L237.6 39.5ZM237.6 11L237.6 19L240.4 19L240.4 11L237.6 11ZM230 3.4C234.198 3.4 237.6 6.80263 237.6 11L240.4 11C240.4 5.25624 235.744 0.599997 230 0.599997L230 3.4ZM1.40021 11C1.40021 6.80261 4.80285 3.39998 9.00022 3.39998L9.00022 0.599977C3.25646 0.599977 -1.39978 5.25622 -1.39978 11L1.40021 11ZM9.00021 56.6C4.80284 56.6 1.40021 53.1973 1.40021 49L-1.39978 49C-1.39978 54.7437 3.25645 59.4 9.00021 59.4L9.00021 56.6ZM230 59.4C235.744 59.4 240.4 54.7438 240.4 49L237.6 49C237.6 53.1974 234.198 56.6 230 56.6L230 59.4Z" fill="white" mask="url(#path-1-inside-1_7099_6252)"/>
<g filter="url(#filter0_d_7099_6252)">
<mask id="path-3-inside-2_7099_6252" fill="white">
<path d="M248.724 27.3669L239 19L239 11C239 6.02944 234.971 2 230 2L129 1.99999C124.03 1.99999 120 6.02943 120 11L120 49C120 53.9705 124.03 58 129 58L230 58C234.971 58 239 53.9706 239 49L239 39.5L248.612 32.0069C250.106 30.8425 250.16 28.6022 248.724 27.3669Z"/>
</mask>
<path d="M248.724 27.3669L239 19L239 11C239 6.02944 234.971 2 230 2L129 1.99999C124.03 1.99999 120 6.02943 120 11L120 49C120 53.9705 124.03 58 129 58L230 58C234.971 58 239 53.9706 239 49L239 39.5L248.612 32.0069C250.106 30.8425 250.16 28.6022 248.724 27.3669Z" fill="white"/>
<path d="M239 19L237.6 19L237.6 19.6423L238.087 20.0612L239 19ZM248.724 27.3669L249.637 26.3056L249.637 26.3056L248.724 27.3669ZM248.612 32.0069L247.751 30.9028L247.751 30.9028L248.612 32.0069ZM239 39.5L238.139 38.3959L237.6 38.8162L237.6 39.5L239 39.5ZM230 58L230 59.4L230 58ZM129 58L129 56.6L129 58ZM238.087 20.0612L247.811 28.4281L249.637 26.3056L239.913 17.9388L238.087 20.0612ZM247.751 30.9028L238.139 38.3959L239.861 40.6041L249.473 33.1111L247.751 30.9028ZM247.811 28.4281C248.577 29.0869 248.548 30.2817 247.751 30.9028L249.473 33.1111C251.664 31.4032 251.743 28.1175 249.637 26.3056L247.811 28.4281ZM230 56.6L129 56.6L129 59.4L230 59.4L230 56.6ZM121.4 49L121.4 11L118.6 11L118.6 49L121.4 49ZM129 3.39999L230 3.4L230 0.599997L129 0.599988L129 3.39999ZM237.6 39.5L237.6 49L240.4 49L240.4 39.5L237.6 39.5ZM237.6 11L237.6 19L240.4 19L240.4 11L237.6 11ZM230 3.4C234.198 3.4 237.6 6.80263 237.6 11L240.4 11C240.4 5.25624 235.744 0.599997 230 0.599997L230 3.4ZM121.4 11C121.4 6.80262 124.803 3.39999 129 3.39999L129 0.599988C123.256 0.599987 118.6 5.25623 118.6 11L121.4 11ZM129 56.6C124.803 56.6 121.4 53.1973 121.4 49L118.6 49C118.6 54.7437 123.256 59.4 129 59.4L129 56.6ZM230 59.4C235.744 59.4 240.4 54.7438 240.4 49L237.6 49C237.6 53.1974 234.198 56.6 230 56.6L230 59.4Z" fill="#333333" mask="url(#path-3-inside-2_7099_6252)"/>
</g>
<g filter="url(#filter1_d_7099_6252)">
<path d="M133.386 15.452H134.794L137.402 24.396H137.034L139.706 16.492H140.554L143.194 24.332H142.842L145.834 15.452H147.226L143.674 25.5H142.362L140.042 18.684H140.282L137.882 25.5H136.57L133.386 15.452ZM154.675 25.5V21.004C154.675 20.2733 154.499 19.7187 154.147 19.34C153.8 18.956 153.325 18.764 152.723 18.764C152.264 18.764 151.867 18.8893 151.531 19.14C151.195 19.3907 150.936 19.7507 150.755 20.22C150.573 20.684 150.483 21.2387 150.483 21.884H150.003C150.003 20.9933 150.12 20.2333 150.355 19.604C150.589 18.9747 150.931 18.4947 151.379 18.164C151.832 17.828 152.381 17.66 153.027 17.66C153.629 17.66 154.144 17.796 154.571 18.068C155.003 18.3347 155.333 18.7187 155.563 19.22C155.792 19.7213 155.907 20.316 155.907 21.004V25.5H154.675ZM149.235 25.5V14.588H150.483V25.5H149.235ZM163.787 25.5L163.627 23.82V20.54C163.627 19.852 163.48 19.3587 163.187 19.06C162.894 18.756 162.454 18.604 161.867 18.604C161.536 18.604 161.235 18.652 160.963 18.748C160.696 18.844 160.483 18.9933 160.323 19.196C160.168 19.3933 160.091 19.6493 160.091 19.964H158.699C158.699 19.4093 158.835 18.964 159.107 18.628C159.379 18.2867 159.752 18.0413 160.227 17.892C160.707 17.7373 161.254 17.66 161.867 17.66C162.454 17.66 162.974 17.7587 163.427 17.956C163.88 18.1533 164.235 18.468 164.491 18.9C164.747 19.3267 164.875 19.884 164.875 20.572V25.5H163.787ZM161.179 25.692C160.55 25.692 160.03 25.58 159.619 25.356C159.208 25.132 158.902 24.8413 158.699 24.484C158.496 24.1267 158.395 23.7507 158.395 23.356C158.395 22.8387 158.523 22.4173 158.779 22.092C159.04 21.7667 159.395 21.5293 159.843 21.38C160.291 21.2253 160.795 21.148 161.355 21.148C161.755 21.148 162.155 21.188 162.555 21.268C162.96 21.348 163.355 21.4573 163.739 21.596V22.38C163.419 22.252 163.056 22.1507 162.651 22.076C162.251 22.0013 161.883 21.964 161.547 21.964C161.035 21.964 160.603 22.0707 160.251 22.284C159.899 22.492 159.723 22.8493 159.723 23.356C159.723 23.7293 159.856 24.0493 160.123 24.316C160.395 24.5827 160.827 24.716 161.419 24.716C161.835 24.716 162.208 24.62 162.539 24.428C162.875 24.2307 163.139 23.9853 163.331 23.692C163.528 23.3987 163.627 23.1053 163.627 22.812H163.931C163.931 23.324 163.819 23.7987 163.595 24.236C163.376 24.6733 163.062 25.0253 162.651 25.292C162.24 25.5587 161.75 25.692 161.179 25.692ZM170.375 25.692C169.959 25.692 169.586 25.612 169.255 25.452C168.925 25.292 168.663 25.052 168.471 24.732C168.279 24.412 168.183 24.012 168.183 23.532V15.724H169.415V23.5C169.415 24.2893 169.783 24.684 170.519 24.684C170.738 24.684 170.949 24.66 171.151 24.612C171.359 24.564 171.591 24.492 171.847 24.396L172.023 25.292C171.751 25.4093 171.479 25.5053 171.207 25.58C170.941 25.6547 170.663 25.692 170.375 25.692ZM166.951 18.716V17.852H171.831V18.716H166.951ZM182.892 25.5L182.732 23.82V20.54C182.732 19.852 182.585 19.3587 182.292 19.06C181.999 18.756 181.559 18.604 180.972 18.604C180.641 18.604 180.34 18.652 180.068 18.748C179.801 18.844 179.588 18.9933 179.428 19.196C179.273 19.3933 179.196 19.6493 179.196 19.964H177.804C177.804 19.4093 177.94 18.964 178.212 18.628C178.484 18.2867 178.857 18.0413 179.332 17.892C179.812 17.7373 180.359 17.66 180.972 17.66C181.559 17.66 182.079 17.7587 182.532 17.956C182.985 18.1533 183.34 18.468 183.596 18.9C183.852 19.3267 183.98 19.884 183.98 20.572V25.5H182.892ZM180.284 25.692C179.655 25.692 179.135 25.58 178.724 25.356C178.313 25.132 178.007 24.8413 177.804 24.484C177.601 24.1267 177.5 23.7507 177.5 23.356C177.5 22.8387 177.628 22.4173 177.884 22.092C178.145 21.7667 178.5 21.5293 178.948 21.38C179.396 21.2253 179.9 21.148 180.46 21.148C180.86 21.148 181.26 21.188 181.66 21.268C182.065 21.348 182.46 21.4573 182.844 21.596V22.38C182.524 22.252 182.161 22.1507 181.756 22.076C181.356 22.0013 180.988 21.964 180.652 21.964C180.14 21.964 179.708 22.0707 179.356 22.284C179.004 22.492 178.828 22.8493 178.828 23.356C178.828 23.7293 178.961 24.0493 179.228 24.316C179.5 24.5827 179.932 24.716 180.524 24.716C180.94 24.716 181.313 24.62 181.644 24.428C181.98 24.2307 182.244 23.9853 182.436 23.692C182.633 23.3987 182.732 23.1053 182.732 22.812H183.036C183.036 23.324 182.924 23.7987 182.7 24.236C182.481 24.6733 182.167 25.0253 181.756 25.292C181.345 25.5587 180.855 25.692 180.284 25.692ZM187.128 25.5V17.836H188.376V25.5H187.128ZM187.992 22.044C187.992 21.0733 188.086 20.268 188.272 19.628C188.459 18.9827 188.731 18.5027 189.088 18.188C189.451 17.868 189.891 17.708 190.408 17.708C190.579 17.708 190.734 17.7213 190.872 17.748C191.016 17.7693 191.16 17.804 191.304 17.852L191.224 19.084C191.075 19.036 190.912 18.996 190.736 18.964C190.56 18.9267 190.403 18.908 190.264 18.908C189.811 18.908 189.446 19.0387 189.168 19.3C188.891 19.556 188.688 19.9187 188.56 20.388C188.438 20.8573 188.376 21.4093 188.376 22.044H187.992ZM195.726 25.692C195.064 25.692 194.472 25.524 193.95 25.188C193.432 24.8467 193.022 24.3747 192.718 23.772C192.419 23.1693 192.27 22.476 192.27 21.692C192.27 20.8547 192.419 20.1347 192.718 19.532C193.016 18.9293 193.424 18.468 193.942 18.148C194.464 17.8227 195.059 17.66 195.726 17.66C196.307 17.66 196.803 17.7773 197.214 18.012C197.624 18.2467 197.955 18.564 198.206 18.964C198.456 19.364 198.63 19.8173 198.726 20.324C198.827 20.8253 198.856 21.3453 198.814 21.884H193.278V21.116H197.99L197.622 21.356C197.638 21.0413 197.619 20.7267 197.566 20.412C197.518 20.0973 197.424 19.8093 197.286 19.548C197.147 19.2813 196.952 19.068 196.702 18.908C196.451 18.748 196.131 18.668 195.742 18.668C195.251 18.668 194.84 18.7933 194.51 19.044C194.179 19.2947 193.931 19.6253 193.766 20.036C193.6 20.4413 193.518 20.8813 193.518 21.356V21.868C193.518 22.4013 193.598 22.8787 193.758 23.3C193.923 23.7213 194.168 24.0547 194.494 24.3C194.819 24.5453 195.23 24.668 195.726 24.668C196.222 24.668 196.63 24.548 196.95 24.308C197.27 24.068 197.464 23.7133 197.534 23.244H198.83C198.75 23.7507 198.568 24.188 198.286 24.556C198.003 24.9187 197.643 25.1987 197.206 25.396C196.768 25.5933 196.275 25.692 195.726 25.692ZM207.757 25.692C207.341 25.692 206.968 25.612 206.637 25.452C206.307 25.292 206.045 25.052 205.853 24.732C205.661 24.412 205.565 24.012 205.565 23.532V15.724H206.797V23.5C206.797 24.2893 207.165 24.684 207.901 24.684C208.12 24.684 208.331 24.66 208.533 24.612C208.741 24.564 208.973 24.492 209.229 24.396L209.405 25.292C209.133 25.4093 208.861 25.5053 208.589 25.58C208.323 25.6547 208.045 25.692 207.757 25.692ZM204.333 18.716V17.852H209.213V18.716H204.333ZM217.021 25.5V21.004C217.021 20.2733 216.845 19.7187 216.493 19.34C216.146 18.956 215.672 18.764 215.069 18.764C214.61 18.764 214.213 18.8893 213.877 19.14C213.541 19.3907 213.282 19.7507 213.101 20.22C212.92 20.684 212.829 21.2387 212.829 21.884H212.349C212.349 20.9933 212.466 20.2333 212.701 19.604C212.936 18.9747 213.277 18.4947 213.725 18.164C214.178 17.828 214.728 17.66 215.373 17.66C215.976 17.66 216.49 17.796 216.917 18.068C217.349 18.3347 217.68 18.7187 217.909 19.22C218.138 19.7213 218.253 20.316 218.253 21.004V25.5H217.021ZM211.581 25.5V14.588H212.829V25.5H211.581ZM224.053 25.692C223.392 25.692 222.8 25.524 222.277 25.188C221.76 24.8467 221.349 24.3747 221.045 23.772C220.747 23.1693 220.597 22.476 220.597 21.692C220.597 20.8547 220.747 20.1347 221.045 19.532C221.344 18.9293 221.752 18.468 222.269 18.148C222.792 17.8227 223.387 17.66 224.053 17.66C224.635 17.66 225.131 17.7773 225.541 18.012C225.952 18.2467 226.283 18.564 226.533 18.964C226.784 19.364 226.957 19.8173 227.053 20.324C227.155 20.8253 227.184 21.3453 227.141 21.884H221.605V21.116H226.317L225.949 21.356C225.965 21.0413 225.947 20.7267 225.893 20.412C225.845 20.0973 225.752 19.8093 225.613 19.548C225.475 19.2813 225.28 19.068 225.029 18.908C224.779 18.748 224.459 18.668 224.069 18.668C223.579 18.668 223.168 18.7933 222.837 19.044C222.507 19.2947 222.259 19.6253 222.093 20.036C221.928 20.4413 221.845 20.8813 221.845 21.356V21.868C221.845 22.4013 221.925 22.8787 222.085 23.3C222.251 23.7213 222.496 24.0547 222.821 24.3C223.147 24.5453 223.557 24.668 224.053 24.668C224.549 24.668 224.957 24.548 225.277 24.308C225.597 24.068 225.792 23.7133 225.861 23.244H227.157C227.077 23.7507 226.896 24.188 226.613 24.556C226.331 24.9187 225.971 25.1987 225.533 25.396C225.096 25.5933 224.603 25.692 224.053 25.692ZM143.092 45.5V41.004C143.092 40.2733 142.916 39.7187 142.564 39.34C142.218 38.956 141.748 38.764 141.156 38.764C140.463 38.764 139.932 39.0333 139.564 39.572C139.196 40.1053 139.012 40.844 139.012 41.788H138.436C138.436 41.1 138.503 40.4973 138.636 39.98C138.775 39.4627 138.975 39.0333 139.236 38.692C139.498 38.3453 139.815 38.0867 140.188 37.916C140.562 37.7453 140.986 37.66 141.46 37.66C142.063 37.66 142.578 37.796 143.004 38.068C143.436 38.3347 143.767 38.7187 143.996 39.22C144.226 39.7213 144.34 40.316 144.34 41.004V45.5H143.092ZM132.34 45.5V37.852H133.412L133.556 39.388C133.796 38.8333 134.132 38.4067 134.564 38.108C135.002 37.8093 135.524 37.66 136.132 37.66C136.735 37.66 137.25 37.796 137.676 38.068C138.108 38.3347 138.439 38.7187 138.668 39.22C138.898 39.7213 139.012 40.316 139.012 41.004V45.5H137.78V41.004C137.78 40.2733 137.604 39.7187 137.252 39.34C136.906 38.956 136.431 38.764 135.828 38.764C135.37 38.764 134.972 38.8893 134.636 39.14C134.3 39.3907 134.042 39.7507 133.86 40.22C133.679 40.684 133.588 41.2387 133.588 41.884V45.5H132.34ZM152.205 45.5L152.045 43.82V40.54C152.045 39.852 151.898 39.3587 151.605 39.06C151.312 38.756 150.872 38.604 150.285 38.604C149.954 38.604 149.653 38.652 149.381 38.748C149.114 38.844 148.901 38.9933 148.741 39.196C148.586 39.3933 148.509 39.6493 148.509 39.964H147.117C147.117 39.4093 147.253 38.964 147.525 38.628C147.797 38.2867 148.17 38.0413 148.645 37.892C149.125 37.7373 149.672 37.66 150.285 37.66C150.872 37.66 151.392 37.7587 151.845 37.956C152.298 38.1533 152.653 38.468 152.909 38.9C153.165 39.3267 153.293 39.884 153.293 40.572V45.5H152.205ZM149.597 45.692C148.968 45.692 148.448 45.58 148.037 45.356C147.626 45.132 147.32 44.8413 147.117 44.484C146.914 44.1267 146.813 43.7507 146.813 43.356C146.813 42.8387 146.941 42.4173 147.197 42.092C147.458 41.7667 147.813 41.5293 148.261 41.38C148.709 41.2253 149.213 41.148 149.773 41.148C150.173 41.148 150.573 41.188 150.973 41.268C151.378 41.348 151.773 41.4573 152.157 41.596V42.38C151.837 42.252 151.474 42.1507 151.069 42.076C150.669 42.0013 150.301 41.964 149.965 41.964C149.453 41.964 149.021 42.0707 148.669 42.284C148.317 42.492 148.141 42.8493 148.141 43.356C148.141 43.7293 148.274 44.0493 148.541 44.316C148.813 44.5827 149.245 44.716 149.837 44.716C150.253 44.716 150.626 44.62 150.957 44.428C151.293 44.2307 151.557 43.9853 151.749 43.692C151.946 43.3987 152.045 43.1053 152.045 42.812H152.349C152.349 43.324 152.237 43.7987 152.013 44.236C151.794 44.6733 151.48 45.0253 151.069 45.292C150.658 45.5587 150.168 45.692 149.597 45.692ZM157.146 36.044C156.89 36.044 156.687 35.972 156.538 35.828C156.388 35.6787 156.314 35.484 156.314 35.244C156.314 35.0093 156.388 34.8227 156.538 34.684C156.687 34.5453 156.89 34.476 157.146 34.476C157.402 34.476 157.604 34.5453 157.754 34.684C157.903 34.8227 157.978 35.0093 157.978 35.244C157.978 35.484 157.903 35.6787 157.754 35.828C157.604 35.972 157.402 36.044 157.146 36.044ZM156.522 45.5V37.836H157.77V45.5H156.522ZM166.807 45.5V41.004C166.807 40.2733 166.631 39.7187 166.279 39.34C165.933 38.956 165.458 38.764 164.855 38.764C164.397 38.764 163.999 38.8893 163.663 39.14C163.327 39.3907 163.069 39.7507 162.887 40.22C162.706 40.684 162.615 41.2387 162.615 41.884H162.135C162.135 40.9933 162.253 40.2333 162.487 39.604C162.722 38.9747 163.063 38.4947 163.511 38.164C163.965 37.828 164.514 37.66 165.159 37.66C165.762 37.66 166.277 37.796 166.703 38.068C167.135 38.3347 167.466 38.7187 167.695 39.22C167.925 39.7213 168.039 40.316 168.039 41.004V45.5H166.807ZM161.367 45.5V37.852H162.439L162.615 39.612V45.5H161.367ZM177.492 45.692C177.076 45.692 176.703 45.612 176.372 45.452C176.042 45.292 175.78 45.052 175.588 44.732C175.396 44.412 175.3 44.012 175.3 43.532V35.724H176.532V43.5C176.532 44.2893 176.9 44.684 177.636 44.684C177.855 44.684 178.066 44.66 178.268 44.612C178.476 44.564 178.708 44.492 178.964 44.396L179.14 45.292C178.868 45.4093 178.596 45.5053 178.324 45.58C178.058 45.6547 177.78 45.692 177.492 45.692ZM174.068 38.716V37.852H178.948V38.716H174.068ZM184.084 45.692C183.396 45.692 182.783 45.54 182.244 45.236C181.711 44.932 181.289 44.4813 180.98 43.884C180.671 43.2867 180.516 42.5507 180.516 41.676C180.516 40.796 180.671 40.06 180.98 39.468C181.289 38.8707 181.711 38.42 182.244 38.116C182.783 37.812 183.396 37.66 184.084 37.66C184.767 37.66 185.375 37.812 185.908 38.116C186.447 38.42 186.868 38.8707 187.172 39.468C187.481 40.06 187.636 40.796 187.636 41.676C187.636 42.5507 187.481 43.2867 187.172 43.884C186.868 44.4813 186.447 44.932 185.908 45.236C185.375 45.54 184.767 45.692 184.084 45.692ZM184.052 44.604C184.548 44.604 184.969 44.4867 185.316 44.252C185.663 44.012 185.924 43.6733 186.1 43.236C186.281 42.7987 186.372 42.2787 186.372 41.676C186.372 40.764 186.183 40.0467 185.804 39.524C185.425 38.996 184.863 38.732 184.116 38.732C183.615 38.732 183.191 38.852 182.844 39.092C182.503 39.3267 182.241 39.6653 182.06 40.108C181.884 40.5453 181.796 41.068 181.796 41.676C181.796 42.5773 181.985 43.292 182.364 43.82C182.748 44.3427 183.311 44.604 184.052 44.604ZM193.698 45.692C193.138 45.692 192.65 45.564 192.234 45.308C191.823 45.052 191.506 44.6787 191.282 44.188C191.058 43.692 190.946 43.0893 190.946 42.38H191.474C191.474 42.8547 191.573 43.2547 191.77 43.58C191.967 43.9053 192.223 44.1533 192.538 44.324C192.858 44.4893 193.197 44.572 193.554 44.572C193.938 44.572 194.306 44.4627 194.658 44.244C195.01 44.02 195.298 43.692 195.522 43.26C195.746 42.828 195.858 42.2947 195.858 41.66C195.858 41.052 195.754 40.532 195.546 40.1C195.343 39.668 195.069 39.3373 194.722 39.108C194.375 38.8787 193.991 38.764 193.57 38.764C193.207 38.764 192.866 38.852 192.546 39.028C192.226 39.204 191.967 39.4627 191.77 39.804C191.573 40.14 191.474 40.556 191.474 41.052H190.946C190.946 40.3107 191.069 39.6893 191.314 39.188C191.559 38.6813 191.893 38.3 192.314 38.044C192.735 37.788 193.207 37.66 193.73 37.66C194.327 37.66 194.885 37.82 195.402 38.14C195.919 38.46 196.338 38.9187 196.658 39.516C196.978 40.1133 197.138 40.828 197.138 41.66C197.138 42.5027 196.975 43.2253 196.65 43.828C196.33 44.4307 195.909 44.892 195.386 45.212C194.863 45.532 194.301 45.692 193.698 45.692ZM190.226 49.26V37.852H191.266L191.474 39.644V49.26H190.226ZM200.449 36.044C200.193 36.044 199.991 35.972 199.841 35.828C199.692 35.6787 199.617 35.484 199.617 35.244C199.617 35.0093 199.692 34.8227 199.841 34.684C199.991 34.5453 200.193 34.476 200.449 34.476C200.705 34.476 200.908 34.5453 201.057 34.684C201.207 34.8227 201.281 35.0093 201.281 35.244C201.281 35.484 201.207 35.6787 201.057 35.828C200.908 35.972 200.705 36.044 200.449 36.044ZM199.825 45.5V37.836H201.073V45.5H199.825ZM207.359 45.692C206.746 45.692 206.172 45.5267 205.639 45.196C205.111 44.8653 204.684 44.3987 204.359 43.796C204.034 43.1933 203.871 42.4813 203.871 41.66C203.871 40.8173 204.034 40.0973 204.359 39.5C204.684 38.9027 205.111 38.4467 205.639 38.132C206.172 37.8173 206.746 37.66 207.359 37.66C207.791 37.66 208.178 37.7267 208.519 37.86C208.866 37.988 209.167 38.1667 209.423 38.396C209.679 38.6253 209.89 38.8867 210.055 39.18C210.226 39.468 210.351 39.772 210.431 40.092L209.151 40.204C209.018 39.7613 208.794 39.412 208.479 39.156C208.17 38.8947 207.791 38.764 207.343 38.764C206.964 38.764 206.607 38.8733 206.271 39.092C205.94 39.3053 205.671 39.628 205.463 40.06C205.255 40.4867 205.151 41.02 205.151 41.66C205.151 42.252 205.244 42.7667 205.431 43.204C205.623 43.636 205.884 43.972 206.215 44.212C206.546 44.452 206.922 44.572 207.343 44.572C207.935 44.572 208.383 44.428 208.687 44.14C208.996 43.8467 209.151 43.4413 209.151 42.924H210.431C210.431 43.4573 210.306 43.932 210.055 44.348C209.804 44.764 209.447 45.092 208.983 45.332C208.524 45.572 207.983 45.692 207.359 45.692ZM215.833 45.692C215.092 45.692 214.473 45.588 213.977 45.38C213.481 45.1667 213.105 44.876 212.849 44.508C212.593 44.1347 212.457 43.708 212.441 43.228H213.641C213.668 43.7133 213.862 44.0787 214.225 44.324C214.593 44.564 215.092 44.684 215.721 44.684C216.052 44.684 216.356 44.6307 216.633 44.524C216.91 44.4173 217.132 44.2707 217.297 44.084C217.462 43.8973 217.545 43.6867 217.545 43.452C217.545 43.1533 217.436 42.9187 217.217 42.748C216.998 42.5773 216.649 42.428 216.169 42.3L214.681 41.82C214.036 41.6173 213.54 41.34 213.193 40.988C212.852 40.6307 212.681 40.204 212.681 39.708C212.681 39.0893 212.953 38.5933 213.497 38.22C214.041 37.8467 214.756 37.66 215.641 37.66C216.58 37.66 217.308 37.852 217.825 38.236C218.342 38.62 218.612 39.1 218.633 39.676H217.401C217.353 39.34 217.182 39.0867 216.889 38.916C216.596 38.74 216.18 38.652 215.641 38.652C215.124 38.652 214.718 38.7693 214.425 39.004C214.137 39.2333 213.993 39.4893 213.993 39.772C213.993 40.3 214.446 40.6893 215.353 40.94L216.873 41.452C217.529 41.6493 218.03 41.908 218.377 42.228C218.729 42.548 218.905 42.956 218.905 43.452C218.905 43.836 218.78 44.1987 218.529 44.54C218.278 44.8813 217.924 45.1587 217.465 45.372C217.006 45.5853 216.462 45.692 215.833 45.692ZM222.863 42.94V42.22C222.863 41.756 222.911 41.3747 223.007 41.076C223.109 40.7773 223.274 40.5187 223.503 40.3C223.733 40.0813 224.047 39.8627 224.447 39.644C224.805 39.452 225.09 39.2733 225.303 39.108C225.517 38.9427 225.669 38.764 225.759 38.572C225.855 38.38 225.903 38.1453 225.903 37.868C225.903 37.452 225.733 37.1053 225.391 36.828C225.055 36.5507 224.591 36.412 223.999 36.412C223.343 36.412 222.842 36.5427 222.495 36.804C222.149 37.06 221.93 37.42 221.839 37.884H220.511C220.586 37.1053 220.911 36.476 221.487 35.996C222.069 35.516 222.895 35.276 223.967 35.276C224.65 35.276 225.237 35.396 225.727 35.636C226.223 35.8707 226.602 36.188 226.863 36.588C227.13 36.9827 227.263 37.42 227.263 37.9C227.263 38.4493 227.125 38.9107 226.847 39.284C226.57 39.652 226.122 40.0013 225.503 40.332C225.146 40.5293 224.863 40.7133 224.655 40.884C224.453 41.0493 224.309 41.2413 224.223 41.46C224.138 41.6733 224.095 41.9533 224.095 42.3V42.94H222.863ZM223.503 45.692C223.237 45.692 223.015 45.6067 222.839 45.436C222.663 45.26 222.575 45.0493 222.575 44.804C222.575 44.5533 222.661 44.3373 222.831 44.156C223.007 43.9747 223.229 43.884 223.495 43.884C223.762 43.884 223.989 43.9747 224.175 44.156C224.367 44.332 224.463 44.5453 224.463 44.796C224.463 45.0413 224.37 45.252 224.183 45.428C223.997 45.604 223.77 45.692 223.503 45.692Z" fill="#333333"/>
</g>
<defs>
<filter id="filter0_d_7099_6252" x="114" y="0" width="141.768" height="68" filterUnits="userSpaceOnUse" color-interpolation-filters="sRGB">
<feFlood flood-opacity="0" result="BackgroundImageFix"/>
<feColorMatrix in="SourceAlpha" type="matrix" values="0 0 0 0 0 0 0 0 0 0 0 0 0 0 0 0 0 0 127 0" result="hardAlpha"/>
<feOffset dy="4"/>
<feGaussianBlur stdDeviation="3"/>
<feComposite in2="hardAlpha" operator="out"/>
<feColorMatrix type="matrix" values="0 0 0 0 0 0 0 0 0 0 0 0 0 0 0 0 0 0 0.1 0"/>
<feBlend mode="normal" in2="BackgroundImageFix" result="effect1_dropShadow_7099_6252"/>
<feBlend mode="normal" in="SourceGraphic" in2="effect1_dropShadow_7099_6252" result="shape"/>
</filter>
<filter id="filter1_d_7099_6252" x="126.34" y="12.5879" width="106.923" height="46.6719" filterUnits="userSpaceOnUse" color-interpolation-filters="sRGB">
<feFlood flood-opacity="0" result="BackgroundImageFix"/>
<feColorMatrix in="SourceAlpha" type="matrix" values="0 0 0 0 0 0 0 0 0 0 0 0 0 0 0 0 0 0 127 0" result="hardAlpha"/>
<feOffset dy="4"/>
<feGaussianBlur stdDeviation="3"/>
<feComposite in2="hardAlpha" operator="out"/>
<feColorMatrix type="matrix" values="0 0 0 0 0 0 0 0 0 0 0 0 0 0 0 0 0 0 0.05 0"/>
<feBlend mode="normal" in2="BackgroundImageFix" result="effect1_dropShadow_7099_6252"/>
<feBlend mode="normal" in="SourceGraphic" in2="effect1_dropShadow_7099_6252" result="shape"/>
</filter>
</defs>
</svg>
