<svg width="262" height="108" viewBox="0 0 262 108" fill="none" xmlns="http://www.w3.org/2000/svg">
<g filter="url(#filter0_d_7061_5955)">
<mask id="path-1-inside-1_7061_5955" fill="white">
<path d="M7.04332 52.6331L16.7673 61L16.7673 89C16.7673 93.9706 20.7968 98 25.7673 98L246.767 98C251.738 98 255.767 93.9706 255.767 89L255.767 11C255.767 6.02948 251.738 2.00004 246.767 2.00004L25.7674 2C20.7968 2 16.7674 6.02944 16.7674 11L16.7674 40.5L7.15554 47.9931C5.66179 49.1575 5.6076 51.3978 7.04332 52.6331Z"/>
</mask>
<path d="M7.04332 52.6331L16.7673 61L16.7673 89C16.7673 93.9706 20.7968 98 25.7673 98L246.767 98C251.738 98 255.767 93.9706 255.767 89L255.767 11C255.767 6.02948 251.738 2.00004 246.767 2.00004L25.7674 2C20.7968 2 16.7674 6.02944 16.7674 11L16.7674 40.5L7.15554 47.9931C5.66179 49.1575 5.6076 51.3978 7.04332 52.6331Z" fill="white"/>
<path d="M16.7673 61L18.1673 61L18.1673 60.3577L17.6805 59.9388L16.7673 61ZM7.04332 52.6331L6.1302 53.6944L6.1302 53.6944L7.04332 52.6331ZM7.15554 47.9931L6.29479 46.8889L6.29479 46.8889L7.15554 47.9931ZM16.7674 40.5L17.6281 41.6041L18.1674 41.1838L18.1674 40.5L16.7674 40.5ZM16.7674 11L15.3674 11L15.3674 11L16.7674 11ZM16.7673 89L18.1673 89L18.1673 89L16.7673 89ZM17.6805 59.9388L7.95644 51.5719L6.1302 53.6944L15.8542 62.0612L17.6805 59.9388ZM8.01629 49.0972L17.6281 41.6041L15.9066 39.3959L6.29479 46.8889L8.01629 49.0972ZM7.95644 51.5719C7.19072 50.9131 7.21962 49.7183 8.01629 49.0972L6.29479 46.8889C4.10395 48.5968 4.02448 51.8825 6.1302 53.6944L7.95644 51.5719ZM25.7674 3.4L246.767 3.40004L246.767 0.600042L25.7674 0.600003L25.7674 3.4ZM254.367 11L254.367 89L257.167 89L257.167 11L254.367 11ZM246.767 96.6L25.7673 96.6L25.7673 99.4L246.767 99.4L246.767 96.6ZM18.1674 40.5L18.1674 11L15.3674 11L15.3674 40.5L18.1674 40.5ZM18.1673 89L18.1673 61L15.3673 61L15.3673 89L18.1673 89ZM25.7673 96.6C21.57 96.6 18.1673 93.1974 18.1673 89L15.3673 89C15.3673 94.7438 20.0236 99.4 25.7673 99.4L25.7673 96.6ZM254.367 89C254.367 93.1974 250.965 96.6 246.767 96.6L246.767 99.4C252.511 99.4 257.167 94.7438 257.167 89L254.367 89ZM246.767 3.40004C250.965 3.40004 254.367 6.80268 254.367 11L257.167 11C257.167 5.25628 252.511 0.600043 246.767 0.600042L246.767 3.40004ZM25.7674 0.600003C20.0236 0.600002 15.3674 5.25624 15.3674 11L18.1674 11C18.1674 6.80264 21.57 3.4 25.7674 3.4L25.7674 0.600003Z" fill="#333333" mask="url(#path-1-inside-1_7061_5955)"/>
<path d="M27.144 14.952H28.648L31.528 19.832H31.208L34.136 14.952H35.624L31.992 20.872V25H30.728V20.872L27.144 14.952ZM39.2784 25.192C38.5904 25.192 37.977 25.04 37.4384 24.736C36.905 24.432 36.4837 23.9813 36.1744 23.384C35.865 22.7867 35.7104 22.0507 35.7104 21.176C35.7104 20.296 35.865 19.56 36.1744 18.968C36.4837 18.3707 36.905 17.92 37.4384 17.616C37.977 17.312 38.5904 17.16 39.2784 17.16C39.961 17.16 40.569 17.312 41.1024 17.616C41.641 17.92 42.0624 18.3707 42.3664 18.968C42.6757 19.56 42.8304 20.296 42.8304 21.176C42.8304 22.0507 42.6757 22.7867 42.3664 23.384C42.0624 23.9813 41.641 24.432 41.1024 24.736C40.569 25.04 39.961 25.192 39.2784 25.192ZM39.2464 24.104C39.7424 24.104 40.1637 23.9867 40.5104 23.752C40.857 23.512 41.1184 23.1733 41.2944 22.736C41.4757 22.2987 41.5664 21.7787 41.5664 21.176C41.5664 20.264 41.377 19.5467 40.9984 19.024C40.6197 18.496 40.057 18.232 39.3104 18.232C38.809 18.232 38.385 18.352 38.0384 18.592C37.697 18.8267 37.4357 19.1653 37.2544 19.608C37.0784 20.0453 36.9904 20.568 36.9904 21.176C36.9904 22.0773 37.1797 22.792 37.5584 23.32C37.9424 23.8427 38.505 24.104 39.2464 24.104ZM50.6204 17.336H51.8684V25H50.6204V17.336ZM45.1964 17.336H46.4444V22.104C46.4444 22.744 46.599 23.2293 46.9084 23.56C47.223 23.8907 47.671 24.056 48.2524 24.056C48.7324 24.056 49.1484 23.928 49.5004 23.672C49.8577 23.416 50.1324 23.064 50.3244 22.616C50.5217 22.1627 50.6204 21.6453 50.6204 21.064H51.0844C51.0844 21.9227 50.959 22.656 50.7084 23.264C50.463 23.872 50.1137 24.3387 49.6604 24.664C49.2124 24.984 48.6844 25.144 48.0764 25.144C47.5004 25.144 46.9964 25.0373 46.5644 24.824C46.1324 24.6107 45.7964 24.288 45.5564 23.856C45.3164 23.4187 45.1964 22.8667 45.1964 22.2V17.336ZM59.2247 25V17.336H60.4727V25H59.2247ZM60.0887 21.544C60.0887 20.5733 60.1821 19.768 60.3687 19.128C60.5554 18.4827 60.8274 18.0027 61.1847 17.688C61.5474 17.368 61.9874 17.208 62.5047 17.208C62.6754 17.208 62.8301 17.2213 62.9687 17.248C63.1127 17.2693 63.2567 17.304 63.4007 17.352L63.3207 18.584C63.1714 18.536 63.0087 18.496 62.8327 18.464C62.6567 18.4267 62.4994 18.408 62.3607 18.408C61.9074 18.408 61.5421 18.5387 61.2647 18.8C60.9874 19.056 60.7847 19.4187 60.6567 19.888C60.5341 20.3573 60.4727 20.9093 60.4727 21.544H60.0887ZM67.822 25.192C67.1607 25.192 66.5687 25.024 66.046 24.688C65.5287 24.3467 65.118 23.8747 64.814 23.272C64.5153 22.6693 64.366 21.976 64.366 21.192C64.366 20.3547 64.5153 19.6347 64.814 19.032C65.1127 18.4293 65.5207 17.968 66.038 17.648C66.5607 17.3227 67.1553 17.16 67.822 17.16C68.4033 17.16 68.8993 17.2773 69.31 17.512C69.7207 17.7467 70.0513 18.064 70.302 18.464C70.5527 18.864 70.726 19.3173 70.822 19.824C70.9233 20.3253 70.9527 20.8453 70.91 21.384H65.374V20.616H70.086L69.718 20.856C69.734 20.5413 69.7153 20.2267 69.662 19.912C69.614 19.5973 69.5207 19.3093 69.382 19.048C69.2433 18.7813 69.0487 18.568 68.798 18.408C68.5473 18.248 68.2273 18.168 67.838 18.168C67.3473 18.168 66.9367 18.2933 66.606 18.544C66.2753 18.7947 66.0273 19.1253 65.862 19.536C65.6967 19.9413 65.614 20.3813 65.614 20.856V21.368C65.614 21.9013 65.694 22.3787 65.854 22.8C66.0193 23.2213 66.2647 23.5547 66.59 23.8C66.9153 24.0453 67.326 24.168 67.822 24.168C68.318 24.168 68.726 24.048 69.046 23.808C69.366 23.568 69.5607 23.2133 69.63 22.744H70.926C70.846 23.2507 70.6647 23.688 70.382 24.056C70.0993 24.4187 69.7393 24.6987 69.302 24.896C68.8647 25.0933 68.3713 25.192 67.822 25.192ZM78.2807 25L78.1207 23.32V20.04C78.1207 19.352 77.9741 18.8587 77.6807 18.56C77.3874 18.256 76.9474 18.104 76.3607 18.104C76.0301 18.104 75.7287 18.152 75.4567 18.248C75.1901 18.344 74.9767 18.4933 74.8167 18.696C74.6621 18.8933 74.5847 19.1493 74.5847 19.464H73.1927C73.1927 18.9093 73.3287 18.464 73.6007 18.128C73.8727 17.7867 74.2461 17.5413 74.7207 17.392C75.2007 17.2373 75.7474 17.16 76.3607 17.16C76.9474 17.16 77.4674 17.2587 77.9207 17.456C78.3741 17.6533 78.7287 17.968 78.9847 18.4C79.2407 18.8267 79.3687 19.384 79.3687 20.072V25H78.2807ZM75.6727 25.192C75.0434 25.192 74.5234 25.08 74.1127 24.856C73.7021 24.632 73.3954 24.3413 73.1927 23.984C72.9901 23.6267 72.8887 23.2507 72.8887 22.856C72.8887 22.3387 73.0167 21.9173 73.2727 21.592C73.5341 21.2667 73.8887 21.0293 74.3367 20.88C74.7847 20.7253 75.2887 20.648 75.8487 20.648C76.2487 20.648 76.6487 20.688 77.0487 20.768C77.4541 20.848 77.8487 20.9573 78.2327 21.096V21.88C77.9127 21.752 77.5501 21.6507 77.1447 21.576C76.7447 21.5013 76.3767 21.464 76.0407 21.464C75.5287 21.464 75.0967 21.5707 74.7447 21.784C74.3927 21.992 74.2167 22.3493 74.2167 22.856C74.2167 23.2293 74.3501 23.5493 74.6167 23.816C74.8887 24.0827 75.3207 24.216 75.9127 24.216C76.3287 24.216 76.7021 24.12 77.0327 23.928C77.3687 23.7307 77.6327 23.4853 77.8247 23.192C78.0221 22.8987 78.1207 22.6053 78.1207 22.312H78.4247C78.4247 22.824 78.3127 23.2987 78.0887 23.736C77.8701 24.1733 77.5554 24.5253 77.1447 24.792C76.7341 25.0587 76.2434 25.192 75.6727 25.192ZM85.2052 25.192C84.5919 25.192 84.0186 25.0267 83.4852 24.696C82.9572 24.3653 82.5306 23.8987 82.2052 23.296C81.8799 22.6933 81.7172 21.9813 81.7172 21.16C81.7172 20.3173 81.8799 19.5973 82.2052 19C82.5306 18.4027 82.9572 17.9467 83.4852 17.632C84.0186 17.3173 84.5919 17.16 85.2052 17.16C85.6372 17.16 86.0239 17.2267 86.3652 17.36C86.7119 17.488 87.0132 17.6667 87.2692 17.896C87.5252 18.1253 87.7359 18.3867 87.9012 18.68C88.0719 18.968 88.1972 19.272 88.2772 19.592L86.9972 19.704C86.8639 19.2613 86.6399 18.912 86.3252 18.656C86.0159 18.3947 85.6372 18.264 85.1892 18.264C84.8106 18.264 84.4532 18.3733 84.1172 18.592C83.7866 18.8053 83.5172 19.128 83.3092 19.56C83.1012 19.9867 82.9972 20.52 82.9972 21.16C82.9972 21.752 83.0906 22.2667 83.2772 22.704C83.4692 23.136 83.7306 23.472 84.0612 23.712C84.3919 23.952 84.7679 24.072 85.1892 24.072C85.7812 24.072 86.2292 23.928 86.5332 23.64C86.8426 23.3467 86.9972 22.9413 86.9972 22.424H88.2772C88.2772 22.9573 88.1519 23.432 87.9012 23.848C87.6506 24.264 87.2932 24.592 86.8292 24.832C86.3706 25.072 85.8292 25.192 85.2052 25.192ZM96.3672 25V20.504C96.3672 19.7733 96.1912 19.2187 95.8392 18.84C95.4926 18.456 95.0179 18.264 94.4152 18.264C93.9566 18.264 93.5592 18.3893 93.2232 18.64C92.8872 18.8907 92.6286 19.2507 92.4472 19.72C92.2659 20.184 92.1752 20.7387 92.1752 21.384H91.6952C91.6952 20.4933 91.8126 19.7333 92.0472 19.104C92.2819 18.4747 92.6232 17.9947 93.0712 17.664C93.5246 17.328 94.0739 17.16 94.7192 17.16C95.3219 17.16 95.8366 17.296 96.2632 17.568C96.6952 17.8347 97.0259 18.2187 97.2552 18.72C97.4846 19.2213 97.5992 19.816 97.5992 20.504V25H96.3672ZM90.9272 25V14.088H92.1752V25H90.9272ZM103.4 25.192C102.738 25.192 102.146 25.024 101.624 24.688C101.106 24.3467 100.696 23.8747 100.392 23.272C100.093 22.6693 99.9435 21.976 99.9435 21.192C99.9435 20.3547 100.093 19.6347 100.392 19.032C100.69 18.4293 101.098 17.968 101.616 17.648C102.138 17.3227 102.733 17.16 103.4 17.16C103.981 17.16 104.477 17.2773 104.888 17.512C105.298 17.7467 105.629 18.064 105.88 18.464C106.13 18.864 106.304 19.3173 106.4 19.824C106.501 20.3253 106.53 20.8453 106.488 21.384H100.952V20.616H105.664L105.296 20.856C105.312 20.5413 105.293 20.2267 105.24 19.912C105.192 19.5973 105.098 19.3093 104.96 19.048C104.821 18.7813 104.626 18.568 104.376 18.408C104.125 18.248 103.805 18.168 103.416 18.168C102.925 18.168 102.514 18.2933 102.184 18.544C101.853 18.7947 101.605 19.1253 101.44 19.536C101.274 19.9413 101.192 20.3813 101.192 20.856V21.368C101.192 21.9013 101.272 22.3787 101.432 22.8C101.597 23.2213 101.842 23.5547 102.168 23.8C102.493 24.0453 102.904 24.168 103.4 24.168C103.896 24.168 104.304 24.048 104.624 23.808C104.944 23.568 105.138 23.2133 105.208 22.744H106.504C106.424 23.2507 106.242 23.688 105.96 24.056C105.677 24.4187 105.317 24.6987 104.88 24.896C104.442 25.0933 103.949 25.192 103.4 25.192ZM111.858 25.192C111.24 25.192 110.672 25.0267 110.154 24.696C109.637 24.36 109.224 23.8907 108.914 23.288C108.605 22.68 108.45 21.9653 108.45 21.144C108.45 20.328 108.602 19.6213 108.906 19.024C109.21 18.4267 109.613 17.968 110.114 17.648C110.621 17.3227 111.176 17.16 111.778 17.16C112.338 17.16 112.829 17.296 113.25 17.568C113.677 17.84 114.008 18.232 114.242 18.744C114.477 19.256 114.594 19.8747 114.594 20.6H114.114C114.114 20.0933 114.013 19.6667 113.81 19.32C113.613 18.9733 113.354 18.712 113.034 18.536C112.714 18.3547 112.37 18.264 112.002 18.264C111.586 18.264 111.205 18.3813 110.858 18.616C110.517 18.8453 110.242 19.176 110.034 19.608C109.832 20.0347 109.73 20.5467 109.73 21.144C109.73 21.752 109.832 22.2747 110.034 22.712C110.242 23.1493 110.517 23.4853 110.858 23.72C111.205 23.9547 111.586 24.072 112.002 24.072C112.349 24.072 112.682 23.9813 113.002 23.8C113.328 23.6187 113.594 23.3547 113.802 23.008C114.01 22.656 114.114 22.232 114.114 21.736H114.594C114.594 22.4773 114.472 23.1067 114.226 23.624C113.986 24.136 113.658 24.5253 113.242 24.792C112.832 25.0587 112.37 25.192 111.858 25.192ZM114.322 25L114.114 23.208V14.088H115.362V25H114.322ZM125.075 25.192C124.659 25.192 124.286 25.112 123.955 24.952C123.625 24.792 123.363 24.552 123.171 24.232C122.979 23.912 122.883 23.512 122.883 23.032V15.224H124.115V23C124.115 23.7893 124.483 24.184 125.219 24.184C125.438 24.184 125.649 24.16 125.851 24.112C126.059 24.064 126.291 23.992 126.547 23.896L126.723 24.792C126.451 24.9093 126.179 25.0053 125.907 25.08C125.641 25.1547 125.363 25.192 125.075 25.192ZM121.651 18.216V17.352H126.531V18.216H121.651ZM134.339 25V20.504C134.339 19.7733 134.163 19.2187 133.811 18.84C133.464 18.456 132.99 18.264 132.387 18.264C131.928 18.264 131.531 18.3893 131.195 18.64C130.859 18.8907 130.6 19.2507 130.419 19.72C130.238 20.184 130.147 20.7387 130.147 21.384H129.667C129.667 20.4933 129.784 19.7333 130.019 19.104C130.254 18.4747 130.595 17.9947 131.043 17.664C131.496 17.328 132.046 17.16 132.691 17.16C133.294 17.16 133.808 17.296 134.235 17.568C134.667 17.8347 134.998 18.2187 135.227 18.72C135.456 19.2213 135.571 19.816 135.571 20.504V25H134.339ZM128.899 25V14.088H130.147V25H128.899ZM141.371 25.192C140.71 25.192 140.118 25.024 139.595 24.688C139.078 24.3467 138.667 23.8747 138.363 23.272C138.065 22.6693 137.915 21.976 137.915 21.192C137.915 20.3547 138.065 19.6347 138.363 19.032C138.662 18.4293 139.07 17.968 139.587 17.648C140.11 17.3227 140.705 17.16 141.371 17.16C141.953 17.16 142.449 17.2773 142.859 17.512C143.27 17.7467 143.601 18.064 143.851 18.464C144.102 18.864 144.275 19.3173 144.371 19.824C144.473 20.3253 144.502 20.8453 144.459 21.384H138.923V20.616H143.635L143.267 20.856C143.283 20.5413 143.265 20.2267 143.211 19.912C143.163 19.5973 143.07 19.3093 142.931 19.048C142.793 18.7813 142.598 18.568 142.347 18.408C142.097 18.248 141.777 18.168 141.387 18.168C140.897 18.168 140.486 18.2933 140.155 18.544C139.825 18.7947 139.577 19.1253 139.411 19.536C139.246 19.9413 139.163 20.3813 139.163 20.856V21.368C139.163 21.9013 139.243 22.3787 139.403 22.8C139.569 23.2213 139.814 23.5547 140.139 23.8C140.465 24.0453 140.875 24.168 141.371 24.168C141.867 24.168 142.275 24.048 142.595 23.808C142.915 23.568 143.11 23.2133 143.179 22.744H144.475C144.395 23.2507 144.214 23.688 143.931 24.056C143.649 24.4187 143.289 24.6987 142.851 24.896C142.414 25.0933 141.921 25.192 141.371 25.192ZM150.923 14.616H152.811V18.952H157.339V14.616H159.227V25H157.339V20.6H152.811V25H150.923V14.616ZM161.228 25L164.764 14.616H167.132L170.524 25H168.54L167.82 22.76H163.964L163.228 25H161.228ZM164.444 21.336H167.372L165.916 16.872L164.444 21.336ZM170.711 14.616H172.951L175.431 19.08H175.063L177.639 14.616H179.863L176.167 20.712V25H174.279V20.712L170.711 14.616ZM185.844 25V14.616H192.388V16.248H187.732V18.984H191.988V20.6H187.732V25H185.844ZM194.738 25V14.616H201.41V16.248H196.626V18.984H201.122V20.616H196.626V23.352H201.41V25H194.738ZM207.537 22.936L210.193 14.616H212.177L208.609 25H206.625L203.105 14.616H205.105L207.729 22.936H207.537ZM214.089 25V14.616H220.761V16.248H215.977V18.984H220.473V20.616H215.977V23.352H220.761V25H214.089ZM223.656 25V14.616H227.496C228.739 14.616 229.691 14.9067 230.352 15.488C231.019 16.0693 231.352 16.84 231.352 17.8C231.352 18.744 231.019 19.5067 230.352 20.088C229.691 20.664 228.739 20.952 227.496 20.952H225.544V25H223.656ZM229.272 25L226.52 20.136H228.536L231.736 25H229.272ZM225.544 19.688H227.304C227.997 19.688 228.523 19.5307 228.88 19.216C229.237 18.896 229.416 18.4827 229.416 17.976C229.416 17.4587 229.253 17.0427 228.928 16.728C228.603 16.408 228.125 16.248 227.496 16.248H225.544V19.688ZM32.088 45.192C31.528 45.192 31.04 45.064 30.624 44.808C30.2133 44.552 29.896 44.1787 29.672 43.688C29.448 43.192 29.336 42.5893 29.336 41.88H29.864C29.864 42.3547 29.9627 42.7547 30.16 43.08C30.3573 43.4053 30.6133 43.6533 30.928 43.824C31.248 43.9893 31.5867 44.072 31.944 44.072C32.328 44.072 32.696 43.9627 33.048 43.744C33.4 43.52 33.688 43.192 33.912 42.76C34.136 42.328 34.248 41.7947 34.248 41.16C34.248 40.552 34.144 40.032 33.936 39.6C33.7333 39.168 33.4587 38.8373 33.112 38.608C32.7653 38.3787 32.3813 38.264 31.96 38.264C31.5973 38.264 31.256 38.352 30.936 38.528C30.616 38.704 30.3573 38.9627 30.16 39.304C29.9627 39.64 29.864 40.056 29.864 40.552H29.336C29.336 39.8107 29.4587 39.1893 29.704 38.688C29.9493 38.1813 30.2827 37.8 30.704 37.544C31.1253 37.288 31.5973 37.16 32.12 37.16C32.7173 37.16 33.2747 37.32 33.792 37.64C34.3093 37.96 34.728 38.4187 35.048 39.016C35.368 39.6133 35.528 40.328 35.528 41.16C35.528 42.0027 35.3653 42.7253 35.04 43.328C34.72 43.9307 34.2987 44.392 33.776 44.712C33.2533 45.032 32.6907 45.192 32.088 45.192ZM28.616 48.76V37.352H29.656L29.864 39.144V48.76H28.616ZM42.8714 45L42.7114 43.32V40.04C42.7114 39.352 42.5647 38.8587 42.2714 38.56C41.978 38.256 41.538 38.104 40.9514 38.104C40.6207 38.104 40.3194 38.152 40.0474 38.248C39.7807 38.344 39.5674 38.4933 39.4074 38.696C39.2527 38.8933 39.1754 39.1493 39.1754 39.464H37.7834C37.7834 38.9093 37.9194 38.464 38.1914 38.128C38.4634 37.7867 38.8367 37.5413 39.3114 37.392C39.7914 37.2373 40.338 37.16 40.9514 37.16C41.538 37.16 42.058 37.2587 42.5114 37.456C42.9647 37.6533 43.3194 37.968 43.5754 38.4C43.8314 38.8267 43.9594 39.384 43.9594 40.072V45H42.8714ZM40.2634 45.192C39.634 45.192 39.114 45.08 38.7034 44.856C38.2927 44.632 37.986 44.3413 37.7834 43.984C37.5807 43.6267 37.4794 43.2507 37.4794 42.856C37.4794 42.3387 37.6074 41.9173 37.8634 41.592C38.1247 41.2667 38.4794 41.0293 38.9274 40.88C39.3754 40.7253 39.8794 40.648 40.4394 40.648C40.8394 40.648 41.2394 40.688 41.6394 40.768C42.0447 40.848 42.4394 40.9573 42.8234 41.096V41.88C42.5034 41.752 42.1407 41.6507 41.7354 41.576C41.3354 41.5013 40.9674 41.464 40.6314 41.464C40.1194 41.464 39.6874 41.5707 39.3354 41.784C38.9834 41.992 38.8074 42.3493 38.8074 42.856C38.8074 43.2293 38.9407 43.5493 39.2074 43.816C39.4794 44.0827 39.9114 44.216 40.5034 44.216C40.9194 44.216 41.2927 44.12 41.6234 43.928C41.9594 43.7307 42.2234 43.4853 42.4154 43.192C42.6127 42.8987 42.7114 42.6053 42.7114 42.312H43.0154C43.0154 42.824 42.9034 43.2987 42.6794 43.736C42.4607 44.1733 42.146 44.5253 41.7354 44.792C41.3247 45.0587 40.834 45.192 40.2634 45.192ZM49.8119 48.936C49.0279 48.936 48.3479 48.824 47.7719 48.6C47.1959 48.3813 46.7479 48.0853 46.4279 47.712C46.1132 47.344 45.9559 46.936 45.9559 46.488C45.9559 45.896 46.1719 45.4427 46.6039 45.128C47.0412 44.8187 47.6039 44.664 48.2919 44.664L48.9799 45.096C48.4039 45.096 47.9585 45.216 47.6439 45.456C47.3292 45.696 47.1719 46.024 47.1719 46.44C47.1719 46.856 47.3959 47.208 47.8439 47.496C48.2919 47.784 48.9479 47.928 49.8119 47.928C50.4519 47.928 51.0119 47.8347 51.4919 47.648C51.9772 47.4667 52.3532 47.2267 52.6199 46.928C52.8919 46.6347 53.0279 46.3173 53.0279 45.976C53.0279 45.736 52.9399 45.528 52.7639 45.352C52.5879 45.1813 52.3185 45.096 51.9559 45.096H48.9799C48.4625 45.096 48.0145 45.0187 47.6359 44.864C47.2625 44.704 46.9745 44.496 46.7719 44.24C46.5692 43.984 46.4679 43.704 46.4679 43.4C46.4679 43.08 46.5585 42.808 46.7399 42.584C46.9212 42.36 47.1559 42.1893 47.4439 42.072C47.7372 41.9547 48.0519 41.896 48.3879 41.896L48.6279 42.36C48.4679 42.36 48.3052 42.3973 48.1399 42.472C47.9799 42.5413 47.8439 42.648 47.7319 42.792C47.6252 42.9307 47.5719 43.1067 47.5719 43.32C47.5719 43.5653 47.6732 43.7707 47.8759 43.936C48.0785 44.1013 48.4465 44.184 48.9799 44.184H51.9559C52.6759 44.184 53.2412 44.336 53.6519 44.64C54.0679 44.944 54.2759 45.368 54.2759 45.912C54.2759 46.4133 54.0972 46.8933 53.7399 47.352C53.3825 47.816 52.8705 48.1947 52.2039 48.488C51.5372 48.7867 50.7399 48.936 49.8119 48.936ZM50.0359 42.76C49.4492 42.76 48.9185 42.6427 48.4439 42.408C47.9745 42.1733 47.6012 41.8453 47.3239 41.424C47.0519 41.0027 46.9159 40.5147 46.9159 39.96C46.9159 39.4 47.0519 38.9093 47.3239 38.488C47.6012 38.0667 47.9745 37.7413 48.4439 37.512C48.9185 37.2773 49.4492 37.16 50.0359 37.16C50.6065 37.16 51.1239 37.2773 51.5879 37.512C52.0572 37.7413 52.4305 38.0667 52.7079 38.488C52.9852 38.9093 53.1239 39.4 53.1239 39.96C53.1239 40.5147 52.9852 41.0027 52.7079 41.424C52.4305 41.8453 52.0572 42.1733 51.5879 42.408C51.1239 42.6427 50.6065 42.76 50.0359 42.76ZM50.0359 41.864C50.6225 41.864 51.0785 41.6827 51.4039 41.32C51.7292 40.9573 51.8919 40.504 51.8919 39.96C51.8919 39.4 51.7292 38.9467 51.4039 38.6C51.0785 38.248 50.6225 38.072 50.0359 38.072C49.4545 38.072 48.9959 38.248 48.6599 38.6C48.3292 38.9467 48.1639 39.4 48.1639 39.96C48.1639 40.504 48.3292 40.9573 48.6599 41.32C48.9959 41.6827 49.4545 41.864 50.0359 41.864ZM52.5479 38.376L51.9559 38.136C51.9559 37.688 52.0439 37.296 52.2199 36.96C52.3959 36.6187 52.6465 36.3547 52.9719 36.168C53.2972 35.976 53.6839 35.88 54.1319 35.88L54.0359 37.112C53.5559 37.112 53.1879 37.216 52.9319 37.424C52.6759 37.6267 52.5479 37.944 52.5479 38.376ZM58.9551 45.192C58.2938 45.192 57.7018 45.024 57.1791 44.688C56.6618 44.3467 56.2511 43.8747 55.9471 43.272C55.6485 42.6693 55.4991 41.976 55.4991 41.192C55.4991 40.3547 55.6485 39.6347 55.9471 39.032C56.2458 38.4293 56.6538 37.968 57.1711 37.648C57.6938 37.3227 58.2885 37.16 58.9551 37.16C59.5365 37.16 60.0325 37.2773 60.4431 37.512C60.8538 37.7467 61.1845 38.064 61.4351 38.464C61.6858 38.864 61.8591 39.3173 61.9551 39.824C62.0565 40.3253 62.0858 40.8453 62.0431 41.384H56.5071V40.616H61.2191L60.8511 40.856C60.8671 40.5413 60.8485 40.2267 60.7951 39.912C60.7471 39.5973 60.6538 39.3093 60.5151 39.048C60.3765 38.7813 60.1818 38.568 59.9311 38.408C59.6805 38.248 59.3605 38.168 58.9711 38.168C58.4805 38.168 58.0698 38.2933 57.7391 38.544C57.4085 38.7947 57.1605 39.1253 56.9951 39.536C56.8298 39.9413 56.7471 40.3813 56.7471 40.856V41.368C56.7471 41.9013 56.8271 42.3787 56.9871 42.8C57.1525 43.2213 57.3978 43.5547 57.7231 43.8C58.0485 44.0453 58.4591 44.168 58.9551 44.168C59.4511 44.168 59.8591 44.048 60.1791 43.808C60.4991 43.568 60.6938 43.2133 60.7631 42.744H62.0591C61.9791 43.2507 61.7978 43.688 61.5151 44.056C61.2325 44.4187 60.8725 44.6987 60.4351 44.896C59.9978 45.0933 59.5045 45.192 58.9551 45.192ZM63.5419 44.256C63.5419 44.0053 63.6299 43.7893 63.8059 43.608C63.9819 43.4267 64.2032 43.336 64.4699 43.336C64.7365 43.336 64.9632 43.4267 65.1499 43.608C65.3365 43.7893 65.4299 44.0053 65.4299 44.256C65.4299 44.5067 65.3365 44.7173 65.1499 44.888C64.9632 45.0587 64.7365 45.144 64.4699 45.144C64.2032 45.144 63.9819 45.0587 63.8059 44.888C63.6299 44.712 63.5419 44.5013 63.5419 44.256ZM71.6541 34.952H72.9021V39.384H77.8781V34.952H79.1101V45H77.8781V40.456H72.9021V45H71.6541V34.952ZM85.1732 45.192C84.5119 45.192 83.9199 45.024 83.3972 44.688C82.8799 44.3467 82.4692 43.8747 82.1652 43.272C81.8666 42.6693 81.7172 41.976 81.7172 41.192C81.7172 40.3547 81.8666 39.6347 82.1652 39.032C82.4639 38.4293 82.8719 37.968 83.3892 37.648C83.9119 37.3227 84.5066 37.16 85.1732 37.16C85.7546 37.16 86.2506 37.2773 86.6612 37.512C87.0719 37.7467 87.4026 38.064 87.6532 38.464C87.9039 38.864 88.0772 39.3173 88.1732 39.824C88.2746 40.3253 88.3039 40.8453 88.2612 41.384H82.7252V40.616H87.4372L87.0692 40.856C87.0852 40.5413 87.0666 40.2267 87.0132 39.912C86.9652 39.5973 86.8719 39.3093 86.7332 39.048C86.5946 38.7813 86.3999 38.568 86.1492 38.408C85.8986 38.248 85.5786 38.168 85.1892 38.168C84.6986 38.168 84.2879 38.2933 83.9572 38.544C83.6266 38.7947 83.3786 39.1253 83.2132 39.536C83.0479 39.9413 82.9652 40.3813 82.9652 40.856V41.368C82.9652 41.9013 83.0452 42.3787 83.2052 42.8C83.3706 43.2213 83.6159 43.5547 83.9412 43.8C84.2666 44.0453 84.6772 44.168 85.1732 44.168C85.6692 44.168 86.0772 44.048 86.3972 43.808C86.7172 43.568 86.9119 43.2133 86.9812 42.744H88.2772C88.1972 43.2507 88.0159 43.688 87.7332 44.056C87.4506 44.4187 87.0906 44.6987 86.6532 44.896C86.2159 45.0933 85.7226 45.192 85.1732 45.192ZM90.896 45V37.336H92.144V45H90.896ZM91.76 41.544C91.76 40.5733 91.8533 39.768 92.04 39.128C92.2267 38.4827 92.4987 38.0027 92.856 37.688C93.2187 37.368 93.6587 37.208 94.176 37.208C94.3467 37.208 94.5013 37.2213 94.64 37.248C94.784 37.2693 94.928 37.304 95.072 37.352L94.992 38.584C94.8427 38.536 94.68 38.496 94.504 38.464C94.328 38.4267 94.1707 38.408 94.032 38.408C93.5787 38.408 93.2133 38.5387 92.936 38.8C92.6587 39.056 92.456 39.4187 92.328 39.888C92.2053 40.3573 92.144 40.9093 92.144 41.544H91.76ZM99.4933 45.192C98.8319 45.192 98.2399 45.024 97.7173 44.688C97.1999 44.3467 96.7893 43.8747 96.4853 43.272C96.1866 42.6693 96.0373 41.976 96.0373 41.192C96.0373 40.3547 96.1866 39.6347 96.4853 39.032C96.7839 38.4293 97.1919 37.968 97.7093 37.648C98.2319 37.3227 98.8266 37.16 99.4933 37.16C100.075 37.16 100.571 37.2773 100.981 37.512C101.392 37.7467 101.723 38.064 101.973 38.464C102.224 38.864 102.397 39.3173 102.493 39.824C102.595 40.3253 102.624 40.8453 102.581 41.384H97.0453V40.616H101.757L101.389 40.856C101.405 40.5413 101.387 40.2267 101.333 39.912C101.285 39.5973 101.192 39.3093 101.053 39.048C100.915 38.7813 100.72 38.568 100.469 38.408C100.219 38.248 99.8986 38.168 99.5093 38.168C99.0186 38.168 98.6079 38.2933 98.2773 38.544C97.9466 38.7947 97.6986 39.1253 97.5333 39.536C97.3679 39.9413 97.2853 40.3813 97.2853 40.856V41.368C97.2853 41.9013 97.3653 42.3787 97.5253 42.8C97.6906 43.2213 97.9359 43.5547 98.2613 43.8C98.5866 44.0453 98.9973 44.168 99.4933 44.168C99.9893 44.168 100.397 44.048 100.717 43.808C101.037 43.568 101.232 43.2133 101.301 42.744H102.597C102.517 43.2507 102.336 43.688 102.053 44.056C101.771 44.4187 101.411 44.6987 100.973 44.896C100.536 45.0933 100.043 45.192 99.4933 45.192ZM111.525 45.192C111.109 45.192 110.736 45.112 110.405 44.952C110.074 44.792 109.813 44.552 109.621 44.232C109.429 43.912 109.333 43.512 109.333 43.032V35.224H110.565V43C110.565 43.7893 110.933 44.184 111.669 44.184C111.888 44.184 112.098 44.16 112.301 44.112C112.509 44.064 112.741 43.992 112.997 43.896L113.173 44.792C112.901 44.9093 112.629 45.0053 112.357 45.08C112.09 45.1547 111.813 45.192 111.525 45.192ZM108.101 38.216V37.352H112.981V38.216H108.101ZM120.788 45V40.504C120.788 39.7733 120.612 39.2187 120.26 38.84C119.914 38.456 119.439 38.264 118.836 38.264C118.378 38.264 117.98 38.3893 117.644 38.64C117.308 38.8907 117.05 39.2507 116.868 39.72C116.687 40.184 116.596 40.7387 116.596 41.384H116.116C116.116 40.4933 116.234 39.7333 116.468 39.104C116.703 38.4747 117.044 37.9947 117.492 37.664C117.946 37.328 118.495 37.16 119.14 37.16C119.743 37.16 120.258 37.296 120.684 37.568C121.116 37.8347 121.447 38.2187 121.676 38.72C121.906 39.2213 122.02 39.816 122.02 40.504V45H120.788ZM115.348 45V34.088H116.596V45H115.348ZM127.821 45.192C127.159 45.192 126.567 45.024 126.045 44.688C125.527 44.3467 125.117 43.8747 124.813 43.272C124.514 42.6693 124.365 41.976 124.365 41.192C124.365 40.3547 124.514 39.6347 124.813 39.032C125.111 38.4293 125.519 37.968 126.037 37.648C126.559 37.3227 127.154 37.16 127.821 37.16C128.402 37.16 128.898 37.2773 129.309 37.512C129.719 37.7467 130.05 38.064 130.301 38.464C130.551 38.864 130.725 39.3173 130.821 39.824C130.922 40.3253 130.951 40.8453 130.909 41.384H125.373V40.616H130.085L129.717 40.856C129.733 40.5413 129.714 40.2267 129.661 39.912C129.613 39.5973 129.519 39.3093 129.381 39.048C129.242 38.7813 129.047 38.568 128.797 38.408C128.546 38.248 128.226 38.168 127.837 38.168C127.346 38.168 126.935 38.2933 126.605 38.544C126.274 38.7947 126.026 39.1253 125.861 39.536C125.695 39.9413 125.613 40.3813 125.613 40.856V41.368C125.613 41.9013 125.693 42.3787 125.853 42.8C126.018 43.2213 126.263 43.5547 126.589 43.8C126.914 44.0453 127.325 44.168 127.821 44.168C128.317 44.168 128.725 44.048 129.045 43.808C129.365 43.568 129.559 43.2133 129.629 42.744H130.925C130.845 43.2507 130.663 43.688 130.381 44.056C130.098 44.4187 129.738 44.6987 129.301 44.896C128.863 45.0933 128.37 45.192 127.821 45.192ZM148.252 45V40.504C148.252 39.7733 148.076 39.2187 147.724 38.84C147.378 38.456 146.908 38.264 146.316 38.264C145.623 38.264 145.092 38.5333 144.724 39.072C144.356 39.6053 144.172 40.344 144.172 41.288H143.596C143.596 40.6 143.663 39.9973 143.796 39.48C143.935 38.9627 144.135 38.5333 144.396 38.192C144.658 37.8453 144.975 37.5867 145.348 37.416C145.722 37.2453 146.146 37.16 146.62 37.16C147.223 37.16 147.738 37.296 148.164 37.568C148.596 37.8347 148.927 38.2187 149.156 38.72C149.386 39.2213 149.5 39.816 149.5 40.504V45H148.252ZM137.5 45V37.352H138.572L138.716 38.888C138.956 38.3333 139.292 37.9067 139.724 37.608C140.162 37.3093 140.684 37.16 141.292 37.16C141.895 37.16 142.41 37.296 142.836 37.568C143.268 37.8347 143.599 38.2187 143.828 38.72C144.058 39.2213 144.172 39.816 144.172 40.504V45H142.94V40.504C142.94 39.7733 142.764 39.2187 142.412 38.84C142.066 38.456 141.591 38.264 140.988 38.264C140.53 38.264 140.132 38.3893 139.796 38.64C139.46 38.8907 139.202 39.2507 139.02 39.72C138.839 40.184 138.748 40.7387 138.748 41.384V45H137.5ZM157.365 45L157.205 43.32V40.04C157.205 39.352 157.058 38.8587 156.765 38.56C156.472 38.256 156.032 38.104 155.445 38.104C155.114 38.104 154.813 38.152 154.541 38.248C154.274 38.344 154.061 38.4933 153.901 38.696C153.746 38.8933 153.669 39.1493 153.669 39.464H152.277C152.277 38.9093 152.413 38.464 152.685 38.128C152.957 37.7867 153.33 37.5413 153.805 37.392C154.285 37.2373 154.832 37.16 155.445 37.16C156.032 37.16 156.552 37.2587 157.005 37.456C157.458 37.6533 157.813 37.968 158.069 38.4C158.325 38.8267 158.453 39.384 158.453 40.072V45H157.365ZM154.757 45.192C154.128 45.192 153.608 45.08 153.197 44.856C152.786 44.632 152.48 44.3413 152.277 43.984C152.074 43.6267 151.973 43.2507 151.973 42.856C151.973 42.3387 152.101 41.9173 152.357 41.592C152.618 41.2667 152.973 41.0293 153.421 40.88C153.869 40.7253 154.373 40.648 154.933 40.648C155.333 40.648 155.733 40.688 156.133 40.768C156.538 40.848 156.933 40.9573 157.317 41.096V41.88C156.997 41.752 156.634 41.6507 156.229 41.576C155.829 41.5013 155.461 41.464 155.125 41.464C154.613 41.464 154.181 41.5707 153.829 41.784C153.477 41.992 153.301 42.3493 153.301 42.856C153.301 43.2293 153.434 43.5493 153.701 43.816C153.973 44.0827 154.405 44.216 154.997 44.216C155.413 44.216 155.786 44.12 156.117 43.928C156.453 43.7307 156.717 43.4853 156.909 43.192C157.106 42.8987 157.205 42.6053 157.205 42.312H157.509C157.509 42.824 157.397 43.2987 157.173 43.736C156.954 44.1733 156.64 44.5253 156.229 44.792C155.818 45.0587 155.328 45.192 154.757 45.192ZM162.306 35.544C162.05 35.544 161.847 35.472 161.698 35.328C161.548 35.1787 161.474 34.984 161.474 34.744C161.474 34.5093 161.548 34.3227 161.698 34.184C161.847 34.0453 162.05 33.976 162.306 33.976C162.562 33.976 162.764 34.0453 162.914 34.184C163.063 34.3227 163.138 34.5093 163.138 34.744C163.138 34.984 163.063 35.1787 162.914 35.328C162.764 35.472 162.562 35.544 162.306 35.544ZM161.682 45V37.336H162.93V45H161.682ZM171.967 45V40.504C171.967 39.7733 171.791 39.2187 171.439 38.84C171.093 38.456 170.618 38.264 170.015 38.264C169.557 38.264 169.159 38.3893 168.823 38.64C168.487 38.8907 168.229 39.2507 168.047 39.72C167.866 40.184 167.775 40.7387 167.775 41.384H167.295C167.295 40.4933 167.413 39.7333 167.647 39.104C167.882 38.4747 168.223 37.9947 168.671 37.664C169.125 37.328 169.674 37.16 170.319 37.16C170.922 37.16 171.437 37.296 171.863 37.568C172.295 37.8347 172.626 38.2187 172.855 38.72C173.085 39.2213 173.199 39.816 173.199 40.504V45H171.967ZM166.527 45V37.352H167.599L167.775 39.112V45H166.527ZM182.988 45.192C182.375 45.192 181.802 45.0267 181.268 44.696C180.74 44.3653 180.314 43.8987 179.988 43.296C179.663 42.6933 179.5 41.9813 179.5 41.16C179.5 40.3173 179.663 39.5973 179.988 39C180.314 38.4027 180.74 37.9467 181.268 37.632C181.802 37.3173 182.375 37.16 182.988 37.16C183.42 37.16 183.807 37.2267 184.148 37.36C184.495 37.488 184.796 37.6667 185.052 37.896C185.308 38.1253 185.519 38.3867 185.684 38.68C185.855 38.968 185.98 39.272 186.06 39.592L184.78 39.704C184.647 39.2613 184.423 38.912 184.108 38.656C183.799 38.3947 183.42 38.264 182.972 38.264C182.594 38.264 182.236 38.3733 181.9 38.592C181.57 38.8053 181.3 39.128 181.092 39.56C180.884 39.9867 180.78 40.52 180.78 41.16C180.78 41.752 180.874 42.2667 181.06 42.704C181.252 43.136 181.514 43.472 181.844 43.712C182.175 43.952 182.551 44.072 182.972 44.072C183.564 44.072 184.012 43.928 184.316 43.64C184.626 43.3467 184.78 42.9413 184.78 42.424H186.06C186.06 42.9573 185.935 43.432 185.684 43.848C185.434 44.264 185.076 44.592 184.612 44.832C184.154 45.072 183.612 45.192 182.988 45.192ZM191.478 45.192C190.79 45.192 190.177 45.04 189.638 44.736C189.105 44.432 188.684 43.9813 188.374 43.384C188.065 42.7867 187.91 42.0507 187.91 41.176C187.91 40.296 188.065 39.56 188.374 38.968C188.684 38.3707 189.105 37.92 189.638 37.616C190.177 37.312 190.79 37.16 191.478 37.16C192.161 37.16 192.769 37.312 193.302 37.616C193.841 37.92 194.262 38.3707 194.566 38.968C194.876 39.56 195.03 40.296 195.03 41.176C195.03 42.0507 194.876 42.7867 194.566 43.384C194.262 43.9813 193.841 44.432 193.302 44.736C192.769 45.04 192.161 45.192 191.478 45.192ZM191.446 44.104C191.942 44.104 192.364 43.9867 192.71 43.752C193.057 43.512 193.318 43.1733 193.494 42.736C193.676 42.2987 193.766 41.7787 193.766 41.176C193.766 40.264 193.577 39.5467 193.198 39.024C192.82 38.496 192.257 38.232 191.51 38.232C191.009 38.232 190.585 38.352 190.238 38.592C189.897 38.8267 189.636 39.1653 189.454 39.608C189.278 40.0453 189.19 40.568 189.19 41.176C189.19 42.0773 189.38 42.792 189.758 43.32C190.142 43.8427 190.705 44.104 191.446 44.104ZM203.06 45V40.504C203.06 39.7733 202.884 39.2187 202.532 38.84C202.186 38.456 201.711 38.264 201.108 38.264C200.65 38.264 200.252 38.3893 199.916 38.64C199.58 38.8907 199.322 39.2507 199.14 39.72C198.959 40.184 198.868 40.7387 198.868 41.384H198.388C198.388 40.4933 198.506 39.7333 198.74 39.104C198.975 38.4747 199.316 37.9947 199.764 37.664C200.218 37.328 200.767 37.16 201.412 37.16C202.015 37.16 202.53 37.296 202.956 37.568C203.388 37.8347 203.719 38.2187 203.948 38.72C204.178 39.2213 204.292 39.816 204.292 40.504V45H203.06ZM197.62 45V37.352H198.692L198.868 39.112V45H197.62ZM210.125 45.192C209.511 45.192 208.938 45.0267 208.405 44.696C207.877 44.3653 207.45 43.8987 207.125 43.296C206.799 42.6933 206.637 41.9813 206.637 41.16C206.637 40.3173 206.799 39.5973 207.125 39C207.45 38.4027 207.877 37.9467 208.405 37.632C208.938 37.3173 209.511 37.16 210.125 37.16C210.557 37.16 210.943 37.2267 211.285 37.36C211.631 37.488 211.933 37.6667 212.189 37.896C212.445 38.1253 212.655 38.3867 212.821 38.68C212.991 38.968 213.117 39.272 213.197 39.592L211.917 39.704C211.783 39.2613 211.559 38.912 211.245 38.656C210.935 38.3947 210.557 38.264 210.109 38.264C209.73 38.264 209.373 38.3733 209.037 38.592C208.706 38.8053 208.437 39.128 208.229 39.56C208.021 39.9867 207.917 40.52 207.917 41.16C207.917 41.752 208.01 42.2667 208.197 42.704C208.389 43.136 208.65 43.472 208.981 43.712C209.311 43.952 209.687 44.072 210.109 44.072C210.701 44.072 211.149 43.928 211.453 43.64C211.762 43.3467 211.917 42.9413 211.917 42.424H213.197C213.197 42.9573 213.071 43.432 212.821 43.848C212.57 44.264 212.213 44.592 211.749 44.832C211.29 45.072 210.749 45.192 210.125 45.192ZM218.503 45.192C217.841 45.192 217.249 45.024 216.727 44.688C216.209 44.3467 215.799 43.8747 215.495 43.272C215.196 42.6693 215.047 41.976 215.047 41.192C215.047 40.3547 215.196 39.6347 215.495 39.032C215.793 38.4293 216.201 37.968 216.719 37.648C217.241 37.3227 217.836 37.16 218.503 37.16C219.084 37.16 219.58 37.2773 219.991 37.512C220.401 37.7467 220.732 38.064 220.983 38.464C221.233 38.864 221.407 39.3173 221.503 39.824C221.604 40.3253 221.633 40.8453 221.591 41.384H216.055V40.616H220.767L220.399 40.856C220.415 40.5413 220.396 40.2267 220.343 39.912C220.295 39.5973 220.201 39.3093 220.063 39.048C219.924 38.7813 219.729 38.568 219.479 38.408C219.228 38.248 218.908 38.168 218.519 38.168C218.028 38.168 217.617 38.2933 217.287 38.544C216.956 38.7947 216.708 39.1253 216.543 39.536C216.377 39.9413 216.295 40.3813 216.295 40.856V41.368C216.295 41.9013 216.375 42.3787 216.535 42.8C216.7 43.2213 216.945 43.5547 217.271 43.8C217.596 44.0453 218.007 44.168 218.503 44.168C218.999 44.168 219.407 44.048 219.727 43.808C220.047 43.568 220.241 43.2133 220.311 42.744H221.607C221.527 43.2507 221.345 43.688 221.063 44.056C220.78 44.4187 220.42 44.6987 219.983 44.896C219.545 45.0933 219.052 45.192 218.503 45.192ZM227.697 45.192C227.137 45.192 226.649 45.064 226.233 44.808C225.823 44.552 225.505 44.1787 225.281 43.688C225.057 43.192 224.945 42.5893 224.945 41.88H225.473C225.473 42.3547 225.572 42.7547 225.769 43.08C225.967 43.4053 226.223 43.6533 226.537 43.824C226.857 43.9893 227.196 44.072 227.553 44.072C227.937 44.072 228.305 43.9627 228.657 43.744C229.009 43.52 229.297 43.192 229.521 42.76C229.745 42.328 229.857 41.7947 229.857 41.16C229.857 40.552 229.753 40.032 229.545 39.6C229.343 39.168 229.068 38.8373 228.721 38.608C228.375 38.3787 227.991 38.264 227.569 38.264C227.207 38.264 226.865 38.352 226.545 38.528C226.225 38.704 225.967 38.9627 225.769 39.304C225.572 39.64 225.473 40.056 225.473 40.552H224.945C224.945 39.8107 225.068 39.1893 225.313 38.688C225.559 38.1813 225.892 37.8 226.313 37.544C226.735 37.288 227.207 37.16 227.729 37.16C228.327 37.16 228.884 37.32 229.401 37.64C229.919 37.96 230.337 38.4187 230.657 39.016C230.977 39.6133 231.137 40.328 231.137 41.16C231.137 42.0027 230.975 42.7253 230.649 43.328C230.329 43.9307 229.908 44.392 229.385 44.712C228.863 45.032 228.3 45.192 227.697 45.192ZM224.225 48.76V37.352H225.265L225.473 39.144V48.76H224.225ZM236.097 45.192C235.681 45.192 235.307 45.112 234.977 44.952C234.646 44.792 234.385 44.552 234.193 44.232C234.001 43.912 233.905 43.512 233.905 43.032V35.224H235.137V43C235.137 43.7893 235.505 44.184 236.241 44.184C236.459 44.184 236.67 44.16 236.873 44.112C237.081 44.064 237.313 43.992 237.569 43.896L237.745 44.792C237.473 44.9093 237.201 45.0053 236.929 45.08C236.662 45.1547 236.385 45.192 236.097 45.192ZM232.673 38.216V37.352H237.553V38.216H232.673ZM242.672 45.192C241.931 45.192 241.312 45.088 240.816 44.88C240.32 44.6667 239.944 44.376 239.688 44.008C239.432 43.6347 239.296 43.208 239.28 42.728H240.48C240.507 43.2133 240.702 43.5787 241.064 43.824C241.432 44.064 241.931 44.184 242.56 44.184C242.891 44.184 243.195 44.1307 243.472 44.024C243.75 43.9173 243.971 43.7707 244.136 43.584C244.302 43.3973 244.384 43.1867 244.384 42.952C244.384 42.6533 244.275 42.4187 244.056 42.248C243.838 42.0773 243.488 41.928 243.008 41.8L241.52 41.32C240.875 41.1173 240.379 40.84 240.032 40.488C239.691 40.1307 239.52 39.704 239.52 39.208C239.52 38.5893 239.792 38.0933 240.336 37.72C240.88 37.3467 241.595 37.16 242.48 37.16C243.419 37.16 244.147 37.352 244.664 37.736C245.182 38.12 245.451 38.6 245.472 39.176H244.24C244.192 38.84 244.022 38.5867 243.728 38.416C243.435 38.24 243.019 38.152 242.48 38.152C241.963 38.152 241.558 38.2693 241.264 38.504C240.976 38.7333 240.832 38.9893 240.832 39.272C240.832 39.8 241.286 40.1893 242.192 40.44L243.712 40.952C244.368 41.1493 244.87 41.408 245.216 41.728C245.568 42.048 245.744 42.456 245.744 42.952C245.744 43.336 245.619 43.6987 245.368 44.04C245.118 44.3813 244.763 44.6587 244.304 44.872C243.846 45.0853 243.302 45.192 242.672 45.192ZM33.352 65L33.192 63.32V60.04C33.192 59.352 33.0453 58.8587 32.752 58.56C32.4587 58.256 32.0187 58.104 31.432 58.104C31.1013 58.104 30.8 58.152 30.528 58.248C30.2613 58.344 30.048 58.4933 29.888 58.696C29.7333 58.8933 29.656 59.1493 29.656 59.464H28.264C28.264 58.9093 28.4 58.464 28.672 58.128C28.944 57.7867 29.3173 57.5413 29.792 57.392C30.272 57.2373 30.8187 57.16 31.432 57.16C32.0187 57.16 32.5387 57.2587 32.992 57.456C33.4453 57.6533 33.8 57.968 34.056 58.4C34.312 58.8267 34.44 59.384 34.44 60.072V65H33.352ZM30.744 65.192C30.1147 65.192 29.5947 65.08 29.184 64.856C28.7733 64.632 28.4667 64.3413 28.264 63.984C28.0613 63.6267 27.96 63.2507 27.96 62.856C27.96 62.3387 28.088 61.9173 28.344 61.592C28.6053 61.2667 28.96 61.0293 29.408 60.88C29.856 60.7253 30.36 60.648 30.92 60.648C31.32 60.648 31.72 60.688 32.12 60.768C32.5253 60.848 32.92 60.9573 33.304 61.096V61.88C32.984 61.752 32.6213 61.6507 32.216 61.576C31.816 61.5013 31.448 61.464 31.112 61.464C30.6 61.464 30.168 61.5707 29.816 61.784C29.464 61.992 29.288 62.3493 29.288 62.856C29.288 63.2293 29.4213 63.5493 29.688 63.816C29.96 64.0827 30.392 64.216 30.984 64.216C31.4 64.216 31.7733 64.12 32.104 63.928C32.44 63.7307 32.704 63.4853 32.896 63.192C33.0933 62.8987 33.192 62.6053 33.192 62.312H33.496C33.496 62.824 33.384 63.2987 33.16 63.736C32.9413 64.1733 32.6267 64.5253 32.216 64.792C31.8053 65.0587 31.3147 65.192 30.744 65.192ZM37.5885 65V57.336H38.8365V65H37.5885ZM38.4525 61.544C38.4525 60.5733 38.5458 59.768 38.7325 59.128C38.9192 58.4827 39.1912 58.0027 39.5485 57.688C39.9112 57.368 40.3512 57.208 40.8685 57.208C41.0392 57.208 41.1938 57.2213 41.3325 57.248C41.4765 57.2693 41.6205 57.304 41.7645 57.352L41.6845 58.584C41.5352 58.536 41.3725 58.496 41.1965 58.464C41.0205 58.4267 40.8632 58.408 40.7245 58.408C40.2712 58.408 39.9058 58.5387 39.6285 58.8C39.3512 59.056 39.1485 59.4187 39.0205 59.888C38.8978 60.3573 38.8365 60.9093 38.8365 61.544H38.4525ZM46.1858 65.192C45.5244 65.192 44.9324 65.024 44.4097 64.688C43.8924 64.3467 43.4817 63.8747 43.1777 63.272C42.8791 62.6693 42.7297 61.976 42.7297 61.192C42.7297 60.3547 42.8791 59.6347 43.1777 59.032C43.4764 58.4293 43.8844 57.968 44.4017 57.648C44.9244 57.3227 45.5191 57.16 46.1858 57.16C46.7671 57.16 47.2631 57.2773 47.6737 57.512C48.0844 57.7467 48.4151 58.064 48.6658 58.464C48.9164 58.864 49.0897 59.3173 49.1858 59.824C49.2871 60.3253 49.3164 60.8453 49.2737 61.384H43.7377V60.616H48.4497L48.0817 60.856C48.0978 60.5413 48.0791 60.2267 48.0258 59.912C47.9778 59.5973 47.8844 59.3093 47.7457 59.048C47.6071 58.7813 47.4124 58.568 47.1617 58.408C46.9111 58.248 46.5911 58.168 46.2017 58.168C45.7111 58.168 45.3004 58.2933 44.9697 58.544C44.6391 58.7947 44.3911 59.1253 44.2257 59.536C44.0604 59.9413 43.9777 60.3813 43.9777 60.856V61.368C43.9777 61.9013 44.0577 62.3787 44.2177 62.8C44.3831 63.2213 44.6284 63.5547 44.9537 63.8C45.2791 64.0453 45.6897 64.168 46.1858 64.168C46.6817 64.168 47.0897 64.048 47.4097 63.808C47.7297 63.568 47.9244 63.2133 47.9938 62.744H49.2898C49.2098 63.2507 49.0284 63.688 48.7457 64.056C48.4631 64.4187 48.1031 64.6987 47.6658 64.896C47.2284 65.0933 46.7351 65.192 46.1858 65.192ZM55.8654 65V57.336H57.1134V65H55.8654ZM56.7294 61.544C56.7294 60.5733 56.8227 59.768 57.0094 59.128C57.196 58.4827 57.468 58.0027 57.8254 57.688C58.188 57.368 58.628 57.208 59.1454 57.208C59.316 57.208 59.4707 57.2213 59.6094 57.248C59.7534 57.2693 59.8974 57.304 60.0414 57.352L59.9614 58.584C59.812 58.536 59.6494 58.496 59.4734 58.464C59.2974 58.4267 59.14 58.408 59.0014 58.408C58.548 58.408 58.1827 58.5387 57.9054 58.8C57.628 59.056 57.4254 59.4187 57.2974 59.888C57.1747 60.3573 57.1134 60.9093 57.1134 61.544H56.7294ZM64.4626 65.192C63.8013 65.192 63.2093 65.024 62.6866 64.688C62.1693 64.3467 61.7586 63.8747 61.4546 63.272C61.156 62.6693 61.0066 61.976 61.0066 61.192C61.0066 60.3547 61.156 59.6347 61.4546 59.032C61.7533 58.4293 62.1613 57.968 62.6786 57.648C63.2013 57.3227 63.796 57.16 64.4626 57.16C65.044 57.16 65.54 57.2773 65.9506 57.512C66.3613 57.7467 66.692 58.064 66.9426 58.464C67.1933 58.864 67.3666 59.3173 67.4626 59.824C67.564 60.3253 67.5933 60.8453 67.5506 61.384H62.0146V60.616H66.7266L66.3586 60.856C66.3746 60.5413 66.356 60.2267 66.3026 59.912C66.2546 59.5973 66.1613 59.3093 66.0226 59.048C65.884 58.7813 65.6893 58.568 65.4386 58.408C65.188 58.248 64.868 58.168 64.4786 58.168C63.988 58.168 63.5773 58.2933 63.2466 58.544C62.916 58.7947 62.668 59.1253 62.5026 59.536C62.3373 59.9413 62.2546 60.3813 62.2546 60.856V61.368C62.2546 61.9013 62.3346 62.3787 62.4946 62.8C62.66 63.2213 62.9053 63.5547 63.2306 63.8C63.556 64.0453 63.9666 64.168 64.4626 64.168C64.9586 64.168 65.3666 64.048 65.6866 63.808C66.0066 63.568 66.2013 63.2133 66.2706 62.744H67.5666C67.4866 63.2507 67.3053 63.688 67.0226 64.056C66.74 64.4187 66.38 64.6987 65.9426 64.896C65.5053 65.0933 65.012 65.192 64.4626 65.192ZM70.1854 65V54.088H71.4334V65H70.1854ZM79.5657 65L79.4057 63.32V60.04C79.4057 59.352 79.2591 58.8587 78.9657 58.56C78.6724 58.256 78.2324 58.104 77.6457 58.104C77.3151 58.104 77.0137 58.152 76.7417 58.248C76.4751 58.344 76.2617 58.4933 76.1017 58.696C75.9471 58.8933 75.8697 59.1493 75.8697 59.464H74.4777C74.4777 58.9093 74.6137 58.464 74.8857 58.128C75.1577 57.7867 75.5311 57.5413 76.0057 57.392C76.4857 57.2373 77.0324 57.16 77.6457 57.16C78.2324 57.16 78.7524 57.2587 79.2057 57.456C79.6591 57.6533 80.0137 57.968 80.2697 58.4C80.5257 58.8267 80.6537 59.384 80.6537 60.072V65H79.5657ZM76.9577 65.192C76.3284 65.192 75.8084 65.08 75.3977 64.856C74.9871 64.632 74.6804 64.3413 74.4777 63.984C74.2751 63.6267 74.1737 63.2507 74.1737 62.856C74.1737 62.3387 74.3017 61.9173 74.5577 61.592C74.8191 61.2667 75.1737 61.0293 75.6217 60.88C76.0697 60.7253 76.5737 60.648 77.1337 60.648C77.5337 60.648 77.9337 60.688 78.3337 60.768C78.7391 60.848 79.1337 60.9573 79.5177 61.096V61.88C79.1977 61.752 78.8351 61.6507 78.4297 61.576C78.0297 61.5013 77.6617 61.464 77.3257 61.464C76.8137 61.464 76.3817 61.5707 76.0297 61.784C75.6777 61.992 75.5017 62.3493 75.5017 62.856C75.5017 63.2293 75.6351 63.5493 75.9017 63.816C76.1737 64.0827 76.6057 64.216 77.1977 64.216C77.6137 64.216 77.9871 64.12 78.3177 63.928C78.6537 63.7307 78.9177 63.4853 79.1097 63.192C79.3071 62.8987 79.4057 62.6053 79.4057 62.312H79.7097C79.7097 62.824 79.5977 63.2987 79.3737 63.736C79.1551 64.1733 78.8404 64.5253 78.4297 64.792C78.0191 65.0587 77.5284 65.192 76.9577 65.192ZM86.1542 65.192C85.7382 65.192 85.3649 65.112 85.0342 64.952C84.7036 64.792 84.4422 64.552 84.2502 64.232C84.0582 63.912 83.9622 63.512 83.9622 63.032V55.224H85.1942V63C85.1942 63.7893 85.5622 64.184 86.2982 64.184C86.5169 64.184 86.7276 64.16 86.9302 64.112C87.1382 64.064 87.3702 63.992 87.6262 63.896L87.8022 64.792C87.5302 64.9093 87.2582 65.0053 86.9862 65.08C86.7196 65.1547 86.4422 65.192 86.1542 65.192ZM82.7302 58.216V57.352H87.6102V58.216H82.7302ZM92.6339 65.192C91.9725 65.192 91.3805 65.024 90.8579 64.688C90.3405 64.3467 89.9299 63.8747 89.6259 63.272C89.3272 62.6693 89.1779 61.976 89.1779 61.192C89.1779 60.3547 89.3272 59.6347 89.6259 59.032C89.9245 58.4293 90.3325 57.968 90.8499 57.648C91.3725 57.3227 91.9672 57.16 92.6339 57.16C93.2152 57.16 93.7112 57.2773 94.1219 57.512C94.5325 57.7467 94.8632 58.064 95.1139 58.464C95.3645 58.864 95.5379 59.3173 95.6339 59.824C95.7352 60.3253 95.7645 60.8453 95.7219 61.384H90.1859V60.616H94.8979L94.5299 60.856C94.5459 60.5413 94.5272 60.2267 94.4739 59.912C94.4259 59.5973 94.3325 59.3093 94.1939 59.048C94.0552 58.7813 93.8605 58.568 93.6099 58.408C93.3592 58.248 93.0392 58.168 92.6499 58.168C92.1592 58.168 91.7485 58.2933 91.4179 58.544C91.0872 58.7947 90.8392 59.1253 90.6739 59.536C90.5085 59.9413 90.4259 60.3813 90.4259 60.856V61.368C90.4259 61.9013 90.5059 62.3787 90.6659 62.8C90.8312 63.2213 91.0765 63.5547 91.4019 63.8C91.7272 64.0453 92.1379 64.168 92.6339 64.168C93.1299 64.168 93.5379 64.048 93.8579 63.808C94.1779 63.568 94.3725 63.2133 94.4419 62.744H95.7379C95.6579 63.2507 95.4765 63.688 95.1939 64.056C94.9112 64.4187 94.5512 64.6987 94.1139 64.896C93.6765 65.0933 93.1832 65.192 92.6339 65.192ZM101.093 65.192C100.474 65.192 99.906 65.0267 99.3886 64.696C98.8713 64.36 98.458 63.8907 98.1486 63.288C97.8393 62.68 97.6846 61.9653 97.6846 61.144C97.6846 60.328 97.8366 59.6213 98.1406 59.024C98.4446 58.4267 98.8473 57.968 99.3486 57.648C99.8553 57.3227 100.41 57.16 101.013 57.16C101.573 57.16 102.063 57.296 102.485 57.568C102.911 57.84 103.242 58.232 103.477 58.744C103.711 59.256 103.829 59.8747 103.829 60.6H103.349C103.349 60.0933 103.247 59.6667 103.045 59.32C102.847 58.9733 102.589 58.712 102.269 58.536C101.949 58.3547 101.605 58.264 101.237 58.264C100.821 58.264 100.439 58.3813 100.093 58.616C99.7513 58.8453 99.4766 59.176 99.2686 59.608C99.066 60.0347 98.9646 60.5467 98.9646 61.144C98.9646 61.752 99.066 62.2747 99.2686 62.712C99.4766 63.1493 99.7513 63.4853 100.093 63.72C100.439 63.9547 100.821 64.072 101.237 64.072C101.583 64.072 101.917 63.9813 102.237 63.8C102.562 63.6187 102.829 63.3547 103.037 63.008C103.245 62.656 103.349 62.232 103.349 61.736H103.829C103.829 62.4773 103.706 63.1067 103.461 63.624C103.221 64.136 102.893 64.5253 102.477 64.792C102.066 65.0587 101.605 65.192 101.093 65.192ZM103.557 65L103.349 63.208V54.088H104.597V65H103.557ZM114.31 65.192C113.894 65.192 113.521 65.112 113.19 64.952C112.859 64.792 112.598 64.552 112.406 64.232C112.214 63.912 112.118 63.512 112.118 63.032V55.224H113.35V63C113.35 63.7893 113.718 64.184 114.454 64.184C114.673 64.184 114.883 64.16 115.086 64.112C115.294 64.064 115.526 63.992 115.782 63.896L115.958 64.792C115.686 64.9093 115.414 65.0053 115.142 65.08C114.875 65.1547 114.598 65.192 114.31 65.192ZM110.886 58.216V57.352H115.766V58.216H110.886ZM120.902 65.192C120.214 65.192 119.6 65.04 119.062 64.736C118.528 64.432 118.107 63.9813 117.798 63.384C117.488 62.7867 117.334 62.0507 117.334 61.176C117.334 60.296 117.488 59.56 117.798 58.968C118.107 58.3707 118.528 57.92 119.062 57.616C119.6 57.312 120.214 57.16 120.902 57.16C121.584 57.16 122.192 57.312 122.726 57.616C123.264 57.92 123.686 58.3707 123.99 58.968C124.299 59.56 124.454 60.296 124.454 61.176C124.454 62.0507 124.299 62.7867 123.99 63.384C123.686 63.9813 123.264 64.432 122.726 64.736C122.192 65.04 121.584 65.192 120.902 65.192ZM120.87 64.104C121.366 64.104 121.787 63.9867 122.134 63.752C122.48 63.512 122.742 63.1733 122.918 62.736C123.099 62.2987 123.19 61.7787 123.19 61.176C123.19 60.264 123 59.5467 122.622 59.024C122.243 58.496 121.68 58.232 120.934 58.232C120.432 58.232 120.008 58.352 119.662 58.592C119.32 58.8267 119.059 59.1653 118.878 59.608C118.702 60.0453 118.614 60.568 118.614 61.176C118.614 62.0773 118.803 62.792 119.182 63.32C119.566 63.8427 120.128 64.104 120.87 64.104ZM126.323 63.728C126.323 63.4773 126.411 63.2613 126.587 63.08C126.763 62.8987 126.985 62.808 127.251 62.808C127.518 62.808 127.745 62.8987 127.931 63.08C128.118 63.2613 128.211 63.4773 128.211 63.728C128.211 63.9787 128.118 64.1893 127.931 64.36C127.745 64.5307 127.518 64.616 127.251 64.616C126.985 64.616 126.763 64.5307 126.587 64.36C126.411 64.184 126.323 63.9733 126.323 63.728ZM126.323 58.832C126.323 58.5813 126.411 58.3653 126.587 58.184C126.763 58.0027 126.985 57.912 127.251 57.912C127.518 57.912 127.745 58.0027 127.931 58.184C128.118 58.3653 128.211 58.5813 128.211 58.832C128.211 59.0827 128.118 59.2933 127.931 59.464C127.745 59.6347 127.518 59.72 127.251 59.72C126.985 59.72 126.763 59.6347 126.587 59.464C126.411 59.288 126.323 59.0773 126.323 58.832ZM138.336 65.224C137.616 65.224 136.952 65.0987 136.344 64.848C135.741 64.5973 135.251 64.216 134.872 63.704C134.499 63.192 134.299 62.5413 134.272 61.752H136.128C136.128 62.152 136.227 62.48 136.424 62.736C136.621 62.992 136.885 63.184 137.216 63.312C137.552 63.4347 137.92 63.496 138.32 63.496C138.704 63.496 139.045 63.4453 139.344 63.344C139.648 63.2427 139.885 63.0987 140.056 62.912C140.232 62.72 140.32 62.4933 140.32 62.232C140.32 61.8853 140.213 61.6133 140 61.416C139.792 61.2187 139.456 61.0373 138.992 60.872L136.944 60.056C136.144 59.7413 135.531 59.376 135.104 58.96C134.677 58.544 134.464 57.9707 134.464 57.24C134.464 56.3973 134.797 55.7147 135.464 55.192C136.131 54.6693 137.061 54.408 138.256 54.408C139.419 54.408 140.317 54.68 140.952 55.224C141.587 55.7627 141.947 56.5147 142.032 57.48H140.176C140.107 57.0693 139.92 56.7413 139.616 56.496C139.312 56.2453 138.859 56.12 138.256 56.12C137.723 56.12 137.301 56.232 136.992 56.456C136.683 56.6747 136.528 56.952 136.528 57.288C136.528 57.576 136.624 57.8053 136.816 57.976C137.013 58.1413 137.317 58.3013 137.728 58.456L140 59.336C140.768 59.6347 141.357 60.0107 141.768 60.464C142.179 60.9173 142.384 61.4853 142.384 62.168C142.384 62.792 142.227 63.3333 141.912 63.792C141.597 64.2453 141.139 64.5973 140.536 64.848C139.933 65.0987 139.2 65.224 138.336 65.224ZM143.254 54.616H145.494L147.974 59.08H147.606L150.182 54.616H152.406L148.71 60.712V65H146.822V60.712L143.254 54.616ZM154.18 54.616H156.884L159.812 60.968H159.652L162.58 54.616H165.188V65H163.284V56.792H163.572L160.34 63.864H159.108L155.892 56.824H156.068V65H154.18V54.616ZM168.277 65V54.616H171.941C173.109 54.616 174.018 54.904 174.669 55.48C175.325 56.056 175.653 56.872 175.653 57.928C175.653 58.9733 175.325 59.784 174.669 60.36C174.018 60.936 173.109 61.224 171.941 61.224H170.181V65H168.277ZM170.181 59.576H171.941C172.528 59.576 172.97 59.4213 173.269 59.112C173.568 58.8027 173.717 58.408 173.717 57.928C173.717 57.4373 173.568 57.0347 173.269 56.72C172.97 56.4053 172.528 56.248 171.941 56.248H170.181V59.576ZM176.374 56.248V54.616H184.694V56.248H181.054L181.478 55.816V65H179.59V55.816L180.014 56.248H176.374ZM190.394 65.224C189.471 65.224 188.655 65.0213 187.946 64.616C187.242 64.2107 186.69 63.6053 186.29 62.8C185.89 61.9947 185.69 60.9947 185.69 59.8C185.69 58.584 185.89 57.5787 186.29 56.784C186.69 55.984 187.242 55.3893 187.946 55C188.655 54.6053 189.471 54.408 190.394 54.408C191.322 54.408 192.141 54.6107 192.85 55.016C193.559 55.416 194.114 56.016 194.514 56.816C194.914 57.616 195.114 58.6107 195.114 59.8C195.114 61.0107 194.914 62.0187 194.514 62.824C194.114 63.6293 193.559 64.232 192.85 64.632C192.141 65.0267 191.322 65.224 190.394 65.224ZM190.394 63.512C191.242 63.512 191.914 63.192 192.41 62.552C192.911 61.912 193.162 60.9893 193.162 59.784C193.162 58.6213 192.911 57.7173 192.41 57.072C191.914 56.4267 191.242 56.104 190.394 56.104C189.562 56.104 188.895 56.4293 188.394 57.08C187.893 57.7253 187.642 58.632 187.642 59.8C187.642 61 187.893 61.92 188.394 62.56C188.895 63.1947 189.562 63.512 190.394 63.512ZM197.508 54.616H200.212L203.14 60.968H202.98L205.908 54.616H208.516V65H206.612V56.792H206.9L203.668 63.864H202.436L199.22 56.824H199.396V65H197.508V54.616ZM215.268 65.224C214.548 65.224 213.884 65.0987 213.276 64.848C212.674 64.5973 212.183 64.216 211.804 63.704C211.431 63.192 211.231 62.5413 211.204 61.752H213.06C213.06 62.152 213.159 62.48 213.356 62.736C213.554 62.992 213.818 63.184 214.148 63.312C214.484 63.4347 214.852 63.496 215.252 63.496C215.636 63.496 215.978 63.4453 216.276 63.344C216.58 63.2427 216.818 63.0987 216.988 62.912C217.164 62.72 217.252 62.4933 217.252 62.232C217.252 61.8853 217.146 61.6133 216.932 61.416C216.724 61.2187 216.388 61.0373 215.924 60.872L213.876 60.056C213.076 59.7413 212.463 59.376 212.036 58.96C211.61 58.544 211.396 57.9707 211.396 57.24C211.396 56.3973 211.73 55.7147 212.396 55.192C213.063 54.6693 213.994 54.408 215.188 54.408C216.351 54.408 217.25 54.68 217.884 55.224C218.519 55.7627 218.879 56.5147 218.964 57.48H217.108C217.039 57.0693 216.852 56.7413 216.548 56.496C216.244 56.2453 215.791 56.12 215.188 56.12C214.655 56.12 214.234 56.232 213.924 56.456C213.615 56.6747 213.46 56.952 213.46 57.288C213.46 57.576 213.556 57.8053 213.748 57.976C213.946 58.1413 214.25 58.3013 214.66 58.456L216.932 59.336C217.7 59.6347 218.29 60.0107 218.7 60.464C219.111 60.9173 219.316 61.4853 219.316 62.168C219.316 62.792 219.159 63.3333 218.844 63.792C218.53 64.2453 218.071 64.5973 217.468 64.848C216.866 65.0987 216.132 65.224 215.268 65.224ZM33.352 85L33.192 83.32V80.04C33.192 79.352 33.0453 78.8587 32.752 78.56C32.4587 78.256 32.0187 78.104 31.432 78.104C31.1013 78.104 30.8 78.152 30.528 78.248C30.2613 78.344 30.048 78.4933 29.888 78.696C29.7333 78.8933 29.656 79.1493 29.656 79.464H28.264C28.264 78.9093 28.4 78.464 28.672 78.128C28.944 77.7867 29.3173 77.5413 29.792 77.392C30.272 77.2373 30.8187 77.16 31.432 77.16C32.0187 77.16 32.5387 77.2587 32.992 77.456C33.4453 77.6533 33.8 77.968 34.056 78.4C34.312 78.8267 34.44 79.384 34.44 80.072V85H33.352ZM30.744 85.192C30.1147 85.192 29.5947 85.08 29.184 84.856C28.7733 84.632 28.4667 84.3413 28.264 83.984C28.0613 83.6267 27.96 83.2507 27.96 82.856C27.96 82.3387 28.088 81.9173 28.344 81.592C28.6053 81.2667 28.96 81.0293 29.408 80.88C29.856 80.7253 30.36 80.648 30.92 80.648C31.32 80.648 31.72 80.688 32.12 80.768C32.5253 80.848 32.92 80.9573 33.304 81.096V81.88C32.984 81.752 32.6213 81.6507 32.216 81.576C31.816 81.5013 31.448 81.464 31.112 81.464C30.6 81.464 30.168 81.5707 29.816 81.784C29.464 81.992 29.288 82.3493 29.288 82.856C29.288 83.2293 29.4213 83.5493 29.688 83.816C29.96 84.0827 30.392 84.216 30.984 84.216C31.4 84.216 31.7733 84.12 32.104 83.928C32.44 83.7307 32.704 83.4853 32.896 83.192C33.0933 82.8987 33.192 82.6053 33.192 82.312H33.496C33.496 82.824 33.384 83.2987 33.16 83.736C32.9413 84.1733 32.6267 84.5253 32.216 84.792C31.8053 85.0587 31.3147 85.192 30.744 85.192ZM43.0285 85V80.504C43.0285 79.7733 42.8525 79.2187 42.5005 78.84C42.1538 78.456 41.6792 78.264 41.0765 78.264C40.6178 78.264 40.2205 78.3893 39.8845 78.64C39.5485 78.8907 39.2898 79.2507 39.1085 79.72C38.9272 80.184 38.8365 80.7387 38.8365 81.384H38.3565C38.3565 80.4933 38.4738 79.7333 38.7085 79.104C38.9432 78.4747 39.2845 77.9947 39.7325 77.664C40.1858 77.328 40.7352 77.16 41.3805 77.16C41.9832 77.16 42.4978 77.296 42.9245 77.568C43.3565 77.8347 43.6872 78.2187 43.9165 78.72C44.1458 79.2213 44.2605 79.816 44.2605 80.504V85H43.0285ZM37.5885 85V77.352H38.6605L38.8365 79.112V85H37.5885ZM50.1407 85.192C49.5221 85.192 48.9541 85.0267 48.4367 84.696C47.9194 84.36 47.5061 83.8907 47.1967 83.288C46.8874 82.68 46.7327 81.9653 46.7327 81.144C46.7327 80.328 46.8847 79.6213 47.1887 79.024C47.4927 78.4267 47.8954 77.968 48.3967 77.648C48.9034 77.3227 49.4581 77.16 50.0608 77.16C50.6208 77.16 51.1114 77.296 51.5328 77.568C51.9594 77.84 52.2901 78.232 52.5248 78.744C52.7594 79.256 52.8767 79.8747 52.8767 80.6H52.3967C52.3967 80.0933 52.2954 79.6667 52.0928 79.32C51.8954 78.9733 51.6368 78.712 51.3168 78.536C50.9968 78.3547 50.6528 78.264 50.2847 78.264C49.8687 78.264 49.4874 78.3813 49.1407 78.616C48.7994 78.8453 48.5247 79.176 48.3167 79.608C48.1141 80.0347 48.0127 80.5467 48.0127 81.144C48.0127 81.752 48.1141 82.2747 48.3167 82.712C48.5247 83.1493 48.7994 83.4853 49.1407 83.72C49.4874 83.9547 49.8687 84.072 50.2847 84.072C50.6314 84.072 50.9647 83.9813 51.2847 83.8C51.6101 83.6187 51.8767 83.3547 52.0848 83.008C52.2928 82.656 52.3967 82.232 52.3967 81.736H52.8767C52.8767 82.4773 52.7541 83.1067 52.5087 83.624C52.2687 84.136 51.9407 84.5253 51.5247 84.792C51.1141 85.0587 50.6528 85.192 50.1407 85.192ZM52.6048 85L52.3967 83.208V74.088H53.6448V85H52.6048ZM60.878 85V74.616H64.718C65.9607 74.616 66.9127 74.9067 67.574 75.488C68.2407 76.0693 68.574 76.84 68.574 77.8C68.574 78.744 68.2407 79.5067 67.574 80.088C66.9127 80.664 65.9607 80.952 64.718 80.952H62.766V85H60.878ZM66.494 85L63.742 80.136H65.758L68.958 85H66.494ZM62.766 79.688H64.526C65.2193 79.688 65.7447 79.5307 66.102 79.216C66.4593 78.896 66.638 78.4827 66.638 77.976C66.638 77.4587 66.4753 77.0427 66.15 76.728C65.8247 76.408 65.3473 76.248 64.718 76.248H62.766V79.688ZM71.3189 85V74.616H77.9909V76.248H73.2069V78.984H77.7029V80.616H73.2069V83.352H77.9909V85H71.3189ZM80.8855 74.616H83.5895L86.5175 80.968H86.3575L89.2855 74.616H91.8935V85H89.9895V76.792H90.2775L87.0455 83.864H85.8135L82.5975 76.824H82.7735V85H80.8855V74.616ZM95.0139 85V74.616H101.686V76.248H96.9019V78.984H101.398V80.616H96.9019V83.352H101.686V85H95.0139ZM104.58 74.616H107.94C108.996 74.616 109.922 74.8293 110.716 75.256C111.511 75.6773 112.13 76.2773 112.572 77.056C113.015 77.8347 113.236 78.7547 113.236 79.816C113.236 80.8667 113.015 81.7813 112.572 82.56C112.13 83.3333 111.511 83.9333 110.716 84.36C109.922 84.7867 108.996 85 107.94 85H104.58V74.616ZM106.468 76.328V83.304H107.94C108.612 83.304 109.191 83.152 109.676 82.848C110.167 82.544 110.543 82.1307 110.804 81.608C111.071 81.08 111.204 80.4827 111.204 79.816C111.204 79.1387 111.071 78.5387 110.804 78.016C110.543 77.4933 110.167 77.0827 109.676 76.784C109.191 76.48 108.612 76.328 107.94 76.328H106.468ZM115.725 85V74.616H117.613V85H115.725ZM120.744 85V74.616H127.416V76.248H122.632V78.984H127.128V80.616H122.632V83.352H127.416V85H120.744ZM133.927 85.224C133.207 85.224 132.543 85.0987 131.935 84.848C131.332 84.5973 130.841 84.216 130.463 83.704C130.089 83.192 129.889 82.5413 129.863 81.752H131.719C131.719 82.152 131.817 82.48 132.015 82.736C132.212 82.992 132.476 83.184 132.807 83.312C133.143 83.4347 133.511 83.496 133.911 83.496C134.295 83.496 134.636 83.4453 134.935 83.344C135.239 83.2427 135.476 83.0987 135.647 82.912C135.823 82.72 135.911 82.4933 135.911 82.232C135.911 81.8853 135.804 81.6133 135.591 81.416C135.383 81.2187 135.047 81.0373 134.583 80.872L132.535 80.056C131.735 79.7413 131.121 79.376 130.695 78.96C130.268 78.544 130.055 77.9707 130.055 77.24C130.055 76.3973 130.388 75.7147 131.055 75.192C131.721 74.6693 132.652 74.408 133.847 74.408C135.009 74.408 135.908 74.68 136.543 75.224C137.177 75.7627 137.537 76.5147 137.623 77.48H135.767C135.697 77.0693 135.511 76.7413 135.207 76.496C134.903 76.2453 134.449 76.12 133.847 76.12C133.313 76.12 132.892 76.232 132.583 76.456C132.273 76.6747 132.119 76.952 132.119 77.288C132.119 77.576 132.215 77.8053 132.407 77.976C132.604 78.1413 132.908 78.3013 133.319 78.456L135.591 79.336C136.359 79.6347 136.948 80.0107 137.359 80.464C137.769 80.9173 137.975 81.4853 137.975 82.168C137.975 82.792 137.817 83.3333 137.503 83.792C137.188 84.2453 136.729 84.5973 136.127 84.848C135.524 85.0987 134.791 85.224 133.927 85.224ZM139.57 83.896C139.57 83.5333 139.692 83.2293 139.938 82.984C140.183 82.7387 140.498 82.616 140.882 82.616C141.266 82.616 141.586 82.7387 141.842 82.984C142.098 83.2293 142.226 83.5333 142.226 83.896C142.226 84.2533 142.098 84.552 141.842 84.792C141.586 85.0267 141.266 85.144 140.882 85.144C140.498 85.144 140.183 85.024 139.938 84.784C139.692 84.544 139.57 84.248 139.57 83.896Z" fill="#333333"/>
</g>
<defs>
<filter id="filter0_d_7061_5955" x="0" y="0" width="261.767" height="108" filterUnits="userSpaceOnUse" color-interpolation-filters="sRGB">
<feFlood flood-opacity="0" result="BackgroundImageFix"/>
<feColorMatrix in="SourceAlpha" type="matrix" values="0 0 0 0 0 0 0 0 0 0 0 0 0 0 0 0 0 0 127 0" result="hardAlpha"/>
<feOffset dy="4"/>
<feGaussianBlur stdDeviation="3"/>
<feComposite in2="hardAlpha" operator="out"/>
<feColorMatrix type="matrix" values="0 0 0 0 0 0 0 0 0 0 0 0 0 0 0 0 0 0 0.1 0"/>
<feBlend mode="normal" in2="BackgroundImageFix" result="effect1_dropShadow_7061_5955"/>
<feBlend mode="normal" in="SourceGraphic" in2="effect1_dropShadow_7061_5955" result="shape"/>
</filter>
</defs>
</svg>
