<svg width="257" height="88" viewBox="0 0 257 88" fill="none" xmlns="http://www.w3.org/2000/svg">
<path d="M7.04333 42.6331L16.7674 51V69C16.7674 73.9706 20.7968 78 25.7674 78L247.035 78C252.005 78 256.035 73.9706 256.035 69V11C256.035 6.02944 252.005 2 247.035 2L25.7674 2C20.7968 2 16.7674 6.02944 16.7674 11L16.7674 30.5L7.15555 37.9931C5.66179 39.1575 5.60761 41.3978 7.04333 42.6331Z" fill="white"/>
<g filter="url(#filter0_d_7069_6436)">
<mask id="path-2-inside-1_7069_6436" fill="white">
<path d="M7.04333 42.6331L16.7674 51V69C16.7674 73.9706 20.7968 78 25.7674 78L222.035 78C227.005 78 231.035 73.9706 231.035 69V11C231.035 6.02944 227.005 2 222.035 2L25.7674 2C20.7968 2 16.7674 6.02944 16.7674 11L16.7674 30.5L7.15555 37.9931C5.66179 39.1575 5.60761 41.3978 7.04333 42.6331Z"/>
</mask>
<path d="M7.04333 42.6331L16.7674 51V69C16.7674 73.9706 20.7968 78 25.7674 78L222.035 78C227.005 78 231.035 73.9706 231.035 69V11C231.035 6.02944 227.005 2 222.035 2L25.7674 2C20.7968 2 16.7674 6.02944 16.7674 11L16.7674 30.5L7.15555 37.9931C5.66179 39.1575 5.60761 41.3978 7.04333 42.6331Z" fill="white"/>
<path d="M16.7674 51H18.1674V50.3577L17.6805 49.9388L16.7674 51ZM7.04333 42.6331L6.13021 43.6944H6.13021L7.04333 42.6331ZM7.15555 37.9931L6.2948 36.8889H6.2948L7.15555 37.9931ZM16.7674 30.5L17.6281 31.6041L18.1674 31.1838V30.5H16.7674ZM25.7674 2V0.6V2ZM222.035 2V3.4V2ZM17.6805 49.9388L7.95644 41.5719L6.13021 43.6944L15.8542 52.0612L17.6805 49.9388ZM8.0163 39.0972L17.6281 31.6041L15.9066 29.3959L6.2948 36.8889L8.0163 39.0972ZM7.95644 41.5719C7.19073 40.9131 7.21963 39.7183 8.0163 39.0972L6.2948 36.8889C4.10396 38.5968 4.02449 41.8825 6.13021 43.6944L7.95644 41.5719ZM25.7674 3.4L222.035 3.4V0.600003L25.7674 0.6V3.4ZM229.635 11V69H232.435V11L229.635 11ZM222.035 76.6L25.7674 76.6V79.4L222.035 79.4V76.6ZM18.1674 30.5L18.1674 11H15.3674L15.3674 30.5H18.1674ZM18.1674 69V51H15.3674L15.3674 69H18.1674ZM25.7674 76.6C21.57 76.6 18.1674 73.1974 18.1674 69H15.3674C15.3674 74.7438 20.0236 79.4 25.7674 79.4V76.6ZM229.635 69C229.635 73.1974 226.232 76.6 222.035 76.6V79.4C227.778 79.4 232.435 74.7438 232.435 69H229.635ZM222.035 3.4C226.232 3.4 229.635 6.80264 229.635 11L232.435 11C232.435 5.25624 227.778 0.600003 222.035 0.600003V3.4ZM25.7674 0.6C20.0236 0.6 15.3674 5.25624 15.3674 11H18.1674C18.1674 6.80264 21.57 3.4 25.7674 3.4V0.6Z" fill="#333333" mask="url(#path-2-inside-1_7069_6436)"/>
</g>
<g filter="url(#filter1_d_7069_6436)">
<path d="M35.352 18.296C35.1387 18.296 34.9493 18.24 34.784 18.128C34.6187 18.016 34.488 17.864 34.392 17.672C34.296 17.48 34.248 17.2667 34.248 17.032C34.248 16.648 34.3733 16.272 34.624 15.904C34.88 15.5307 35.24 15.224 35.704 14.984L36.6 15.464C36.296 15.6133 36.0373 15.7867 35.824 15.984C35.616 16.1813 35.4747 16.4133 35.4 16.68C35.6507 16.7013 35.8533 16.7787 36.008 16.912C36.168 17.04 36.248 17.2187 36.248 17.448C36.248 17.6773 36.1653 17.8773 36 18.048C35.84 18.2133 35.624 18.296 35.352 18.296ZM32.68 18.296C32.4667 18.296 32.2773 18.24 32.112 18.128C31.9467 18.016 31.816 17.864 31.72 17.672C31.624 17.48 31.576 17.2667 31.576 17.032C31.576 16.648 31.7013 16.272 31.952 15.904C32.208 15.5307 32.568 15.224 33.032 14.984L33.928 15.464C33.624 15.6133 33.3653 15.7867 33.152 15.984C32.944 16.1813 32.8027 16.4133 32.728 16.68C32.9787 16.7013 33.1813 16.7787 33.336 16.912C33.496 17.04 33.576 17.2187 33.576 17.448C33.576 17.6773 33.4933 17.8773 33.328 18.048C33.168 18.2133 32.952 18.296 32.68 18.296ZM37.6779 16.024V14.952H45.5019V16.024H41.9259L42.2059 15.736V25H40.9579V15.736L41.2379 16.024H37.6779ZM46.2016 25V17.336H47.4496V25H46.2016ZM47.0656 21.544C47.0656 20.5733 47.159 19.768 47.3456 19.128C47.5323 18.4827 47.8043 18.0027 48.1616 17.688C48.5243 17.368 48.9643 17.208 49.4816 17.208C49.6523 17.208 49.807 17.2213 49.9456 17.248C50.0896 17.2693 50.2336 17.304 50.3776 17.352L50.2976 18.584C50.1483 18.536 49.9856 18.496 49.8096 18.464C49.6336 18.4267 49.4763 18.408 49.3376 18.408C48.8843 18.408 48.519 18.5387 48.2416 18.8C47.9643 19.056 47.7616 19.4187 47.6336 19.888C47.511 20.3573 47.4496 20.9093 47.4496 21.544H47.0656ZM56.8789 25L56.7189 23.32V20.04C56.7189 19.352 56.5722 18.8587 56.2789 18.56C55.9855 18.256 55.5455 18.104 54.9589 18.104C54.6282 18.104 54.3269 18.152 54.0549 18.248C53.7882 18.344 53.5749 18.4933 53.4149 18.696C53.2602 18.8933 53.1829 19.1493 53.1829 19.464H51.7909C51.7909 18.9093 51.9269 18.464 52.1989 18.128C52.4709 17.7867 52.8442 17.5413 53.3189 17.392C53.7989 17.2373 54.3455 17.16 54.9589 17.16C55.5455 17.16 56.0655 17.2587 56.5189 17.456C56.9722 17.6533 57.3269 17.968 57.5829 18.4C57.8389 18.8267 57.9669 19.384 57.9669 20.072V25H56.8789ZM54.2709 25.192C53.6415 25.192 53.1215 25.08 52.7109 24.856C52.3002 24.632 51.9935 24.3413 51.7909 23.984C51.5882 23.6267 51.4869 23.2507 51.4869 22.856C51.4869 22.3387 51.6149 21.9173 51.8709 21.592C52.1322 21.2667 52.4869 21.0293 52.9349 20.88C53.3829 20.7253 53.8869 20.648 54.4469 20.648C54.8469 20.648 55.2469 20.688 55.6469 20.768C56.0522 20.848 56.4469 20.9573 56.8309 21.096V21.88C56.5109 21.752 56.1482 21.6507 55.7429 21.576C55.3429 21.5013 54.9749 21.464 54.6389 21.464C54.1269 21.464 53.6949 21.5707 53.3429 21.784C52.9909 21.992 52.8149 22.3493 52.8149 22.856C52.8149 23.2293 52.9482 23.5493 53.2149 23.816C53.4869 24.0827 53.9189 24.216 54.5109 24.216C54.9269 24.216 55.3002 24.12 55.6309 23.928C55.9669 23.7307 56.2309 23.4853 56.4229 23.192C56.6202 22.8987 56.7189 22.6053 56.7189 22.312H57.0229C57.0229 22.824 56.9109 23.2987 56.6869 23.736C56.4682 24.1733 56.1535 24.5253 55.7429 24.792C55.3322 25.0587 54.8415 25.192 54.2709 25.192ZM66.5554 25V20.504C66.5554 19.7733 66.3794 19.2187 66.0274 18.84C65.6807 18.456 65.206 18.264 64.6034 18.264C64.1447 18.264 63.7474 18.3893 63.4114 18.64C63.0754 18.8907 62.8167 19.2507 62.6354 19.72C62.454 20.184 62.3634 20.7387 62.3634 21.384H61.8834C61.8834 20.4933 62.0007 19.7333 62.2354 19.104C62.47 18.4747 62.8114 17.9947 63.2594 17.664C63.7127 17.328 64.262 17.16 64.9074 17.16C65.51 17.16 66.0247 17.296 66.4514 17.568C66.8834 17.8347 67.214 18.2187 67.4434 18.72C67.6727 19.2213 67.7874 19.816 67.7874 20.504V25H66.5554ZM61.1154 25V17.352H62.1874L62.3634 19.112V25H61.1154ZM73.6836 25.192C72.9423 25.192 72.3236 25.088 71.8276 24.88C71.3316 24.6667 70.9556 24.376 70.6996 24.008C70.4436 23.6347 70.3076 23.208 70.2916 22.728H71.4916C71.5183 23.2133 71.713 23.5787 72.0756 23.824C72.4436 24.064 72.9423 24.184 73.5716 24.184C73.9023 24.184 74.2063 24.1307 74.4836 24.024C74.761 23.9173 74.9823 23.7707 75.1476 23.584C75.313 23.3973 75.3956 23.1867 75.3956 22.952C75.3956 22.6533 75.2863 22.4187 75.0676 22.248C74.849 22.0773 74.4996 21.928 74.0196 21.8L72.5316 21.32C71.8863 21.1173 71.3903 20.84 71.0436 20.488C70.7023 20.1307 70.5316 19.704 70.5316 19.208C70.5316 18.5893 70.8036 18.0933 71.3476 17.72C71.8916 17.3467 72.6063 17.16 73.4916 17.16C74.4303 17.16 75.1583 17.352 75.6756 17.736C76.193 18.12 76.4623 18.6 76.4836 19.176H75.2516C75.2036 18.84 75.033 18.5867 74.7396 18.416C74.4463 18.24 74.0303 18.152 73.4916 18.152C72.9743 18.152 72.569 18.2693 72.2756 18.504C71.9876 18.7333 71.8436 18.9893 71.8436 19.272C71.8436 19.8 72.297 20.1893 73.2036 20.44L74.7236 20.952C75.3796 21.1493 75.881 21.408 76.2276 21.728C76.5796 22.048 76.7556 22.456 76.7556 22.952C76.7556 23.336 76.6303 23.6987 76.3796 24.04C76.129 24.3813 75.7743 24.6587 75.3156 24.872C74.857 25.0853 74.313 25.192 73.6836 25.192ZM79.4607 25V16.168C79.4607 15.6613 79.5567 15.248 79.7487 14.928C79.9461 14.6027 80.2074 14.3627 80.5327 14.208C80.8634 14.0533 81.2314 13.976 81.6367 13.976C81.8554 13.976 82.0767 13.992 82.3007 14.024C82.5301 14.056 82.7567 14.104 82.9807 14.168L82.7407 15.16C82.5807 15.096 82.4207 15.048 82.2607 15.016C82.1061 14.984 81.9567 14.968 81.8127 14.968C81.6421 14.968 81.4714 15 81.3007 15.064C81.1301 15.128 80.9887 15.248 80.8767 15.424C80.7647 15.6 80.7087 15.8533 80.7087 16.184V25H79.4607ZM78.2127 18.216V17.352H82.2927V18.216H78.2127ZM87.3451 25.192C86.6838 25.192 86.0918 25.024 85.5691 24.688C85.0518 24.3467 84.6411 23.8747 84.3371 23.272C84.0385 22.6693 83.8891 21.976 83.8891 21.192C83.8891 20.3547 84.0385 19.6347 84.3371 19.032C84.6358 18.4293 85.0438 17.968 85.5611 17.648C86.0838 17.3227 86.6785 17.16 87.3451 17.16C87.9265 17.16 88.4225 17.2773 88.8331 17.512C89.2438 17.7467 89.5745 18.064 89.8251 18.464C90.0758 18.864 90.2491 19.3173 90.3451 19.824C90.4465 20.3253 90.4758 20.8453 90.4331 21.384H84.8971V20.616H89.6091L89.2411 20.856C89.2571 20.5413 89.2385 20.2267 89.1851 19.912C89.1371 19.5973 89.0438 19.3093 88.9051 19.048C88.7665 18.7813 88.5718 18.568 88.3211 18.408C88.0705 18.248 87.7505 18.168 87.3611 18.168C86.8705 18.168 86.4598 18.2933 86.1291 18.544C85.7985 18.7947 85.5505 19.1253 85.3851 19.536C85.2198 19.9413 85.1371 20.3813 85.1371 20.856V21.368C85.1371 21.9013 85.2171 22.3787 85.3771 22.8C85.5425 23.2213 85.7878 23.5547 86.1131 23.8C86.4385 24.0453 86.8491 24.168 87.3451 24.168C87.8411 24.168 88.2491 24.048 88.5691 23.808C88.8891 23.568 89.0838 23.2133 89.1531 22.744H90.4491C90.3691 23.2507 90.1878 23.688 89.9051 24.056C89.6225 24.4187 89.2625 24.6987 88.8251 24.896C88.3878 25.0933 87.8945 25.192 87.3451 25.192ZM93.0679 25V17.336H94.3159V25H93.0679ZM93.9319 21.544C93.9319 20.5733 94.0252 19.768 94.2119 19.128C94.3985 18.4827 94.6705 18.0027 95.0279 17.688C95.3905 17.368 95.8305 17.208 96.3479 17.208C96.5185 17.208 96.6732 17.2213 96.8119 17.248C96.9559 17.2693 97.0999 17.304 97.2439 17.352L97.1639 18.584C97.0145 18.536 96.8519 18.496 96.6759 18.464C96.4999 18.4267 96.3425 18.408 96.2039 18.408C95.7505 18.408 95.3852 18.5387 95.1079 18.8C94.8305 19.056 94.6279 19.4187 94.4999 19.888C94.3772 20.3573 94.3159 20.9093 94.3159 21.544H93.9319ZM105.318 25.192C104.902 25.192 104.529 25.112 104.198 24.952C103.867 24.792 103.606 24.552 103.414 24.232C103.222 23.912 103.126 23.512 103.126 23.032V15.224H104.358V23C104.358 23.7893 104.726 24.184 105.462 24.184C105.681 24.184 105.891 24.16 106.094 24.112C106.302 24.064 106.534 23.992 106.79 23.896L106.966 24.792C106.694 24.9093 106.422 25.0053 106.15 25.08C105.883 25.1547 105.606 25.192 105.318 25.192ZM101.894 18.216V17.352H106.774V18.216H101.894ZM114.582 25V20.504C114.582 19.7733 114.406 19.2187 114.054 18.84C113.707 18.456 113.232 18.264 112.63 18.264C112.171 18.264 111.774 18.3893 111.438 18.64C111.102 18.8907 110.843 19.2507 110.662 19.72C110.48 20.184 110.39 20.7387 110.39 21.384H109.91C109.91 20.4933 110.027 19.7333 110.262 19.104C110.496 18.4747 110.838 17.9947 111.286 17.664C111.739 17.328 112.288 17.16 112.934 17.16C113.536 17.16 114.051 17.296 114.478 17.568C114.91 17.8347 115.24 18.2187 115.47 18.72C115.699 19.2213 115.814 19.816 115.814 20.504V25H114.582ZM109.142 25V14.088H110.39V25H109.142ZM121.614 25.192C120.953 25.192 120.361 25.024 119.838 24.688C119.321 24.3467 118.91 23.8747 118.606 23.272C118.307 22.6693 118.158 21.976 118.158 21.192C118.158 20.3547 118.307 19.6347 118.606 19.032C118.905 18.4293 119.313 17.968 119.83 17.648C120.353 17.3227 120.947 17.16 121.614 17.16C122.195 17.16 122.691 17.2773 123.102 17.512C123.513 17.7467 123.843 18.064 124.094 18.464C124.345 18.864 124.518 19.3173 124.614 19.824C124.715 20.3253 124.745 20.8453 124.702 21.384H119.166V20.616H123.878L123.51 20.856C123.526 20.5413 123.507 20.2267 123.454 19.912C123.406 19.5973 123.313 19.3093 123.174 19.048C123.035 18.7813 122.841 18.568 122.59 18.408C122.339 18.248 122.019 18.168 121.63 18.168C121.139 18.168 120.729 18.2933 120.398 18.544C120.067 18.7947 119.819 19.1253 119.654 19.536C119.489 19.9413 119.406 20.3813 119.406 20.856V21.368C119.406 21.9013 119.486 22.3787 119.646 22.8C119.811 23.2213 120.057 23.5547 120.382 23.8C120.707 24.0453 121.118 24.168 121.614 24.168C122.11 24.168 122.518 24.048 122.838 23.808C123.158 23.568 123.353 23.2133 123.422 22.744H124.718C124.638 23.2507 124.457 23.688 124.174 24.056C123.891 24.4187 123.531 24.6987 123.094 24.896C122.657 25.0933 122.163 25.192 121.614 25.192ZM133.981 25.192C133.368 25.192 132.795 25.0267 132.261 24.696C131.733 24.3653 131.307 23.8987 130.981 23.296C130.656 22.6933 130.493 21.9813 130.493 21.16C130.493 20.3173 130.656 19.5973 130.981 19C131.307 18.4027 131.733 17.9467 132.261 17.632C132.795 17.3173 133.368 17.16 133.981 17.16C134.413 17.16 134.8 17.2267 135.141 17.36C135.488 17.488 135.789 17.6667 136.045 17.896C136.301 18.1253 136.512 18.3867 136.677 18.68C136.848 18.968 136.973 19.272 137.053 19.592L135.773 19.704C135.64 19.2613 135.416 18.912 135.101 18.656C134.792 18.3947 134.413 18.264 133.965 18.264C133.587 18.264 133.229 18.3733 132.893 18.592C132.563 18.8053 132.293 19.128 132.085 19.56C131.877 19.9867 131.773 20.52 131.773 21.16C131.773 21.752 131.867 22.2667 132.053 22.704C132.245 23.136 132.507 23.472 132.837 23.712C133.168 23.952 133.544 24.072 133.965 24.072C134.557 24.072 135.005 23.928 135.309 23.64C135.619 23.3467 135.773 22.9413 135.773 22.424H137.053C137.053 22.9573 136.928 23.432 136.677 23.848C136.427 24.264 136.069 24.592 135.605 24.832C135.147 25.072 134.605 25.192 133.981 25.192ZM139.704 25V17.336H140.952V25H139.704ZM140.568 21.544C140.568 20.5733 140.661 19.768 140.848 19.128C141.034 18.4827 141.306 18.0027 141.664 17.688C142.026 17.368 142.466 17.208 142.984 17.208C143.154 17.208 143.309 17.2213 143.448 17.248C143.592 17.2693 143.736 17.304 143.88 17.352L143.8 18.584C143.65 18.536 143.488 18.496 143.312 18.464C143.136 18.4267 142.978 18.408 142.84 18.408C142.386 18.408 142.021 18.5387 141.744 18.8C141.466 19.056 141.264 19.4187 141.136 19.888C141.013 20.3573 140.952 20.9093 140.952 21.544H140.568ZM150.845 17.336H152.093V25H150.845V17.336ZM145.421 17.336H146.669V22.104C146.669 22.744 146.823 23.2293 147.133 23.56C147.447 23.8907 147.895 24.056 148.477 24.056C148.957 24.056 149.373 23.928 149.725 23.672C150.082 23.416 150.357 23.064 150.549 22.616C150.746 22.1627 150.845 21.6453 150.845 21.064H151.309C151.309 21.9227 151.183 22.656 150.933 23.264C150.687 23.872 150.338 24.3387 149.885 24.664C149.437 24.984 148.909 25.144 148.301 25.144C147.725 25.144 147.221 25.0373 146.789 24.824C146.357 24.6107 146.021 24.288 145.781 23.856C145.541 23.4187 145.421 22.8667 145.421 22.2V17.336ZM166.244 25V20.504C166.244 19.7733 166.068 19.2187 165.716 18.84C165.37 18.456 164.9 18.264 164.308 18.264C163.615 18.264 163.084 18.5333 162.716 19.072C162.348 19.6053 162.164 20.344 162.164 21.288H161.588C161.588 20.6 161.655 19.9973 161.788 19.48C161.927 18.9627 162.127 18.5333 162.388 18.192C162.65 17.8453 162.967 17.5867 163.34 17.416C163.714 17.2453 164.138 17.16 164.612 17.16C165.215 17.16 165.73 17.296 166.156 17.568C166.588 17.8347 166.919 18.2187 167.148 18.72C167.378 19.2213 167.492 19.816 167.492 20.504V25H166.244ZM155.492 25V17.352H156.564L156.708 18.888C156.948 18.3333 157.284 17.9067 157.716 17.608C158.154 17.3093 158.676 17.16 159.284 17.16C159.887 17.16 160.402 17.296 160.828 17.568C161.26 17.8347 161.591 18.2187 161.82 18.72C162.05 19.2213 162.164 19.816 162.164 20.504V25H160.932V20.504C160.932 19.7733 160.756 19.2187 160.404 18.84C160.058 18.456 159.583 18.264 158.98 18.264C158.522 18.264 158.124 18.3893 157.788 18.64C157.452 18.8907 157.194 19.2507 157.012 19.72C156.831 20.184 156.74 20.7387 156.74 21.384V25H155.492ZM174.125 25.192C173.613 25.192 173.149 25.0587 172.733 24.792C172.322 24.5253 171.994 24.136 171.749 23.624C171.509 23.1067 171.389 22.4773 171.389 21.736H171.869C171.869 22.232 171.97 22.656 172.173 23.008C172.381 23.3547 172.648 23.6187 172.973 23.8C173.298 23.9813 173.64 24.072 173.997 24.072C174.408 24.072 174.784 23.9547 175.125 23.72C175.466 23.4853 175.738 23.1493 175.941 22.712C176.149 22.2747 176.253 21.752 176.253 21.144C176.253 20.5467 176.152 20.0347 175.949 19.608C175.746 19.176 175.472 18.8453 175.125 18.616C174.784 18.3813 174.402 18.264 173.981 18.264C173.618 18.264 173.274 18.3547 172.949 18.536C172.629 18.712 172.368 18.9733 172.165 19.32C171.968 19.6667 171.869 20.0933 171.869 20.6H171.389C171.389 19.8747 171.506 19.256 171.741 18.744C171.981 18.232 172.312 17.84 172.733 17.568C173.154 17.296 173.645 17.16 174.205 17.16C174.808 17.16 175.36 17.3227 175.861 17.648C176.368 17.968 176.773 18.4267 177.077 19.024C177.381 19.6213 177.533 20.328 177.533 21.144C177.533 21.9653 177.378 22.68 177.069 23.288C176.76 23.8907 176.346 24.36 175.829 24.696C175.312 25.0267 174.744 25.192 174.125 25.192ZM170.621 25V14.088H171.869V23.208L171.501 25H170.621ZM183.017 25.192C182.276 25.192 181.657 25.088 181.161 24.88C180.665 24.6667 180.289 24.376 180.033 24.008C179.777 23.6347 179.641 23.208 179.625 22.728H180.825C180.852 23.2133 181.047 23.5787 181.409 23.824C181.777 24.064 182.276 24.184 182.905 24.184C183.236 24.184 183.54 24.1307 183.817 24.024C184.095 23.9173 184.316 23.7707 184.481 23.584C184.647 23.3973 184.729 23.1867 184.729 22.952C184.729 22.6533 184.62 22.4187 184.401 22.248C184.183 22.0773 183.833 21.928 183.353 21.8L181.865 21.32C181.22 21.1173 180.724 20.84 180.377 20.488C180.036 20.1307 179.865 19.704 179.865 19.208C179.865 18.5893 180.137 18.0933 180.681 17.72C181.225 17.3467 181.94 17.16 182.825 17.16C183.764 17.16 184.492 17.352 185.009 17.736C185.527 18.12 185.796 18.6 185.817 19.176H184.585C184.537 18.84 184.367 18.5867 184.073 18.416C183.78 18.24 183.364 18.152 182.825 18.152C182.308 18.152 181.903 18.2693 181.609 18.504C181.321 18.7333 181.177 18.9893 181.177 19.272C181.177 19.8 181.631 20.1893 182.537 20.44L184.057 20.952C184.713 21.1493 185.215 21.408 185.561 21.728C185.913 22.048 186.089 22.456 186.089 22.952C186.089 23.336 185.964 23.6987 185.713 24.04C185.463 24.3813 185.108 24.6587 184.649 24.872C184.191 25.0853 183.647 25.192 183.017 25.192ZM195.141 25.192C194.725 25.192 194.351 25.112 194.021 24.952C193.69 24.792 193.429 24.552 193.237 24.232C193.045 23.912 192.949 23.512 192.949 23.032V15.224H194.181V23C194.181 23.7893 194.549 24.184 195.285 24.184C195.503 24.184 195.714 24.16 195.917 24.112C196.125 24.064 196.357 23.992 196.613 23.896L196.789 24.792C196.517 24.9093 196.245 25.0053 195.973 25.08C195.706 25.1547 195.429 25.192 195.141 25.192ZM191.717 18.216V17.352H196.597V18.216H191.717ZM201.732 25.192C201.044 25.192 200.431 25.04 199.892 24.736C199.359 24.432 198.937 23.9813 198.628 23.384C198.319 22.7867 198.164 22.0507 198.164 21.176C198.164 20.296 198.319 19.56 198.628 18.968C198.937 18.3707 199.359 17.92 199.892 17.616C200.431 17.312 201.044 17.16 201.732 17.16C202.415 17.16 203.023 17.312 203.556 17.616C204.095 17.92 204.516 18.3707 204.82 18.968C205.129 19.56 205.284 20.296 205.284 21.176C205.284 22.0507 205.129 22.7867 204.82 23.384C204.516 23.9813 204.095 24.432 203.556 24.736C203.023 25.04 202.415 25.192 201.732 25.192ZM201.7 24.104C202.196 24.104 202.617 23.9867 202.964 23.752C203.311 23.512 203.572 23.1733 203.748 22.736C203.929 22.2987 204.02 21.7787 204.02 21.176C204.02 20.264 203.831 19.5467 203.452 19.024C203.073 18.496 202.511 18.232 201.764 18.232C201.263 18.232 200.839 18.352 200.492 18.592C200.151 18.8267 199.889 19.1653 199.708 19.608C199.532 20.0453 199.444 20.568 199.444 21.176C199.444 22.0773 199.633 22.792 200.012 23.32C200.396 23.8427 200.959 24.104 201.7 24.104ZM216.567 25L216.407 23.32V20.04C216.407 19.352 216.26 18.8587 215.967 18.56C215.674 18.256 215.234 18.104 214.647 18.104C214.316 18.104 214.015 18.152 213.743 18.248C213.476 18.344 213.263 18.4933 213.103 18.696C212.948 18.8933 212.871 19.1493 212.871 19.464H211.479C211.479 18.9093 211.615 18.464 211.887 18.128C212.159 17.7867 212.532 17.5413 213.007 17.392C213.487 17.2373 214.034 17.16 214.647 17.16C215.234 17.16 215.754 17.2587 216.207 17.456C216.66 17.6533 217.015 17.968 217.271 18.4C217.527 18.8267 217.655 19.384 217.655 20.072V25H216.567ZM213.959 25.192C213.33 25.192 212.81 25.08 212.399 24.856C211.988 24.632 211.682 24.3413 211.479 23.984C211.276 23.6267 211.175 23.2507 211.175 22.856C211.175 22.3387 211.303 21.9173 211.559 21.592C211.82 21.2667 212.175 21.0293 212.623 20.88C213.071 20.7253 213.575 20.648 214.135 20.648C214.535 20.648 214.935 20.688 215.335 20.768C215.74 20.848 216.135 20.9573 216.519 21.096V21.88C216.199 21.752 215.836 21.6507 215.431 21.576C215.031 21.5013 214.663 21.464 214.327 21.464C213.815 21.464 213.383 21.5707 213.031 21.784C212.679 21.992 212.503 22.3493 212.503 22.856C212.503 23.2293 212.636 23.5493 212.903 23.816C213.175 24.0827 213.607 24.216 214.199 24.216C214.615 24.216 214.988 24.12 215.319 23.928C215.655 23.7307 215.919 23.4853 216.111 23.192C216.308 22.8987 216.407 22.6053 216.407 22.312H216.711C216.711 22.824 216.599 23.2987 216.375 23.736C216.156 24.1733 215.842 24.5253 215.431 24.792C215.02 25.0587 214.53 25.192 213.959 25.192ZM36.12 45.192C35.608 45.192 35.144 45.0587 34.728 44.792C34.3173 44.5253 33.9893 44.136 33.744 43.624C33.504 43.1067 33.384 42.4773 33.384 41.736H33.864C33.864 42.232 33.9653 42.656 34.168 43.008C34.376 43.3547 34.6427 43.6187 34.968 43.8C35.2933 43.9813 35.6347 44.072 35.992 44.072C36.4027 44.072 36.7787 43.9547 37.12 43.72C37.4613 43.4853 37.7333 43.1493 37.936 42.712C38.144 42.2747 38.248 41.752 38.248 41.144C38.248 40.5467 38.1467 40.0347 37.944 39.608C37.7413 39.176 37.4667 38.8453 37.12 38.616C36.7787 38.3813 36.3973 38.264 35.976 38.264C35.6133 38.264 35.2693 38.3547 34.944 38.536C34.624 38.712 34.3627 38.9733 34.16 39.32C33.9627 39.6667 33.864 40.0933 33.864 40.6H33.384C33.384 39.8747 33.5013 39.256 33.736 38.744C33.976 38.232 34.3067 37.84 34.728 37.568C35.1493 37.296 35.64 37.16 36.2 37.16C36.8027 37.16 37.3547 37.3227 37.856 37.648C38.3627 37.968 38.768 38.4267 39.072 39.024C39.376 39.6213 39.528 40.328 39.528 41.144C39.528 41.9653 39.3733 42.68 39.064 43.288C38.7547 43.8907 38.3413 44.36 37.824 44.696C37.3067 45.0267 36.7387 45.192 36.12 45.192ZM32.616 45V34.088H33.864V43.208L33.496 45H32.616ZM45.0284 45.192C44.3404 45.192 43.727 45.04 43.1884 44.736C42.655 44.432 42.2337 43.9813 41.9244 43.384C41.615 42.7867 41.4604 42.0507 41.4604 41.176C41.4604 40.296 41.615 39.56 41.9244 38.968C42.2337 38.3707 42.655 37.92 43.1884 37.616C43.727 37.312 44.3404 37.16 45.0284 37.16C45.711 37.16 46.319 37.312 46.8524 37.616C47.391 37.92 47.8124 38.3707 48.1164 38.968C48.4257 39.56 48.5804 40.296 48.5804 41.176C48.5804 42.0507 48.4257 42.7867 48.1164 43.384C47.8124 43.9813 47.391 44.432 46.8524 44.736C46.319 45.04 45.711 45.192 45.0284 45.192ZM44.9964 44.104C45.4924 44.104 45.9137 43.9867 46.2604 43.752C46.607 43.512 46.8684 43.1733 47.0444 42.736C47.2257 42.2987 47.3164 41.7787 47.3164 41.176C47.3164 40.264 47.127 39.5467 46.7484 39.024C46.3697 38.496 45.807 38.232 45.0604 38.232C44.559 38.232 44.135 38.352 43.7884 38.592C43.447 38.8267 43.1857 39.1653 43.0044 39.608C42.8284 40.0453 42.7404 40.568 42.7404 41.176C42.7404 42.0773 42.9297 42.792 43.3084 43.32C43.6924 43.8427 44.255 44.104 44.9964 44.104ZM49.8424 37.352H51.1384L53.0904 43.736H52.9304L54.8344 37.72H55.8744L57.7624 43.752H57.6184L59.5704 37.352H60.8184L58.3064 45H57.0904L55.2344 39.352H55.4264L53.5864 45H52.3704L49.8424 37.352ZM62.9241 45V34.088H64.1721V45H62.9241ZM67.3765 46.744L66.4325 46.28C66.7365 46.1253 66.9925 45.9547 67.2005 45.768C67.4138 45.5813 67.5525 45.352 67.6165 45.08C67.3872 45.0533 67.1898 44.9707 67.0245 44.832C66.8645 44.6933 66.7845 44.5093 66.7845 44.28C66.7845 44.056 66.8672 43.864 67.0325 43.704C67.2032 43.544 67.4192 43.464 67.6805 43.464C68.0112 43.464 68.2778 43.584 68.4805 43.824C68.6832 44.064 68.7845 44.3493 68.7845 44.68C68.7845 45.0693 68.6645 45.4507 68.4245 45.824C68.1898 46.2027 67.8405 46.5093 67.3765 46.744ZM77.3811 45.192C76.9651 45.192 76.5918 45.112 76.2611 44.952C75.9305 44.792 75.6691 44.552 75.4771 44.232C75.2851 43.912 75.1891 43.512 75.1891 43.032V35.224H76.4211V43C76.4211 43.7893 76.7891 44.184 77.5251 44.184C77.7438 44.184 77.9545 44.16 78.1571 44.112C78.3651 44.064 78.5971 43.992 78.8531 43.896L79.0291 44.792C78.7571 44.9093 78.4851 45.0053 78.2131 45.08C77.9465 45.1547 77.6691 45.192 77.3811 45.192ZM73.9571 38.216V37.352H78.8371V38.216H73.9571ZM86.6447 45V40.504C86.6447 39.7733 86.4687 39.2187 86.1167 38.84C85.7701 38.456 85.2954 38.264 84.6927 38.264C84.2341 38.264 83.8367 38.3893 83.5007 38.64C83.1647 38.8907 82.9061 39.2507 82.7247 39.72C82.5434 40.184 82.4527 40.7387 82.4527 41.384H81.9727C81.9727 40.4933 82.0901 39.7333 82.3247 39.104C82.5594 38.4747 82.9007 37.9947 83.3487 37.664C83.8021 37.328 84.3514 37.16 84.9967 37.16C85.5994 37.16 86.1141 37.296 86.5407 37.568C86.9727 37.8347 87.3034 38.2187 87.5327 38.72C87.7621 39.2213 87.8767 39.816 87.8767 40.504V45H86.6447ZM81.2047 45V34.088H82.4527V45H81.2047ZM93.677 45.192C93.0157 45.192 92.4237 45.024 91.901 44.688C91.3837 44.3467 90.973 43.8747 90.669 43.272C90.3703 42.6693 90.221 41.976 90.221 41.192C90.221 40.3547 90.3703 39.6347 90.669 39.032C90.9677 38.4293 91.3757 37.968 91.893 37.648C92.4157 37.3227 93.0103 37.16 93.677 37.16C94.2583 37.16 94.7543 37.2773 95.165 37.512C95.5757 37.7467 95.9063 38.064 96.157 38.464C96.4077 38.864 96.581 39.3173 96.677 39.824C96.7783 40.3253 96.8077 40.8453 96.765 41.384H91.229V40.616H95.941L95.573 40.856C95.589 40.5413 95.5703 40.2267 95.517 39.912C95.469 39.5973 95.3757 39.3093 95.237 39.048C95.0983 38.7813 94.9037 38.568 94.653 38.408C94.4023 38.248 94.0823 38.168 93.693 38.168C93.2023 38.168 92.7917 38.2933 92.461 38.544C92.1303 38.7947 91.8823 39.1253 91.717 39.536C91.5517 39.9413 91.469 40.3813 91.469 40.856V41.368C91.469 41.9013 91.549 42.3787 91.709 42.8C91.8743 43.2213 92.1197 43.5547 92.445 43.8C92.7703 44.0453 93.181 44.168 93.677 44.168C94.173 44.168 94.581 44.048 94.901 43.808C95.221 43.568 95.4157 43.2133 95.485 42.744H96.781C96.701 43.2507 96.5197 43.688 96.237 44.056C95.9543 44.4187 95.5943 44.6987 95.157 44.896C94.7197 45.0933 94.2263 45.192 93.677 45.192ZM104.84 45V40.504C104.84 39.7733 104.664 39.2187 104.312 38.84C103.965 38.456 103.49 38.264 102.888 38.264C102.429 38.264 102.032 38.3893 101.696 38.64C101.36 38.8907 101.101 39.2507 100.92 39.72C100.738 40.184 100.648 40.7387 100.648 41.384H100.168C100.168 40.4933 100.285 39.7333 100.52 39.104C100.754 38.4747 101.096 37.9947 101.544 37.664C101.997 37.328 102.546 37.16 103.192 37.16C103.794 37.16 104.309 37.296 104.736 37.568C105.168 37.8347 105.498 38.2187 105.728 38.72C105.957 39.2213 106.072 39.816 106.072 40.504V45H104.84ZM99.3998 45V37.352H100.472L100.648 39.112V45H99.3998ZM116.645 45.192C116.085 45.192 115.597 45.064 115.181 44.808C114.77 44.552 114.453 44.1787 114.229 43.688C114.005 43.192 113.893 42.5893 113.893 41.88H114.421C114.421 42.3547 114.52 42.7547 114.717 43.08C114.914 43.4053 115.17 43.6533 115.485 43.824C115.805 43.9893 116.144 44.072 116.501 44.072C116.885 44.072 117.253 43.9627 117.605 43.744C117.957 43.52 118.245 43.192 118.469 42.76C118.693 42.328 118.805 41.7947 118.805 41.16C118.805 40.552 118.701 40.032 118.493 39.6C118.29 39.168 118.016 38.8373 117.669 38.608C117.322 38.3787 116.938 38.264 116.517 38.264C116.154 38.264 115.813 38.352 115.493 38.528C115.173 38.704 114.914 38.9627 114.717 39.304C114.52 39.64 114.421 40.056 114.421 40.552H113.893C113.893 39.8107 114.016 39.1893 114.261 38.688C114.506 38.1813 114.84 37.8 115.261 37.544C115.682 37.288 116.154 37.16 116.677 37.16C117.274 37.16 117.832 37.32 118.349 37.64C118.866 37.96 119.285 38.4187 119.605 39.016C119.925 39.6133 120.085 40.328 120.085 41.16C120.085 42.0027 119.922 42.7253 119.597 43.328C119.277 43.9307 118.856 44.392 118.333 44.712C117.81 45.032 117.248 45.192 116.645 45.192ZM113.173 48.76V37.352H114.213L114.421 39.144V48.76H113.173ZM125.46 45.192C124.772 45.192 124.159 45.04 123.62 44.736C123.087 44.432 122.666 43.9813 122.356 43.384C122.047 42.7867 121.892 42.0507 121.892 41.176C121.892 40.296 122.047 39.56 122.356 38.968C122.666 38.3707 123.087 37.92 123.62 37.616C124.159 37.312 124.772 37.16 125.46 37.16C126.143 37.16 126.751 37.312 127.284 37.616C127.823 37.92 128.244 38.3707 128.548 38.968C128.858 39.56 129.012 40.296 129.012 41.176C129.012 42.0507 128.858 42.7867 128.548 43.384C128.244 43.9813 127.823 44.432 127.284 44.736C126.751 45.04 126.143 45.192 125.46 45.192ZM125.428 44.104C125.924 44.104 126.346 43.9867 126.692 43.752C127.039 43.512 127.3 43.1733 127.476 42.736C127.658 42.2987 127.748 41.7787 127.748 41.176C127.748 40.264 127.559 39.5467 127.18 39.024C126.802 38.496 126.239 38.232 125.492 38.232C124.991 38.232 124.567 38.352 124.22 38.592C123.879 38.8267 123.618 39.1653 123.436 39.608C123.26 40.0453 123.172 40.568 123.172 41.176C123.172 42.0773 123.362 42.792 123.74 43.32C124.124 43.8427 124.687 44.104 125.428 44.104ZM136.802 37.336H138.05V45H136.802V37.336ZM131.378 37.336H132.626V42.104C132.626 42.744 132.781 43.2293 133.09 43.56C133.405 43.8907 133.853 44.056 134.434 44.056C134.914 44.056 135.33 43.928 135.682 43.672C136.04 43.416 136.314 43.064 136.506 42.616C136.704 42.1627 136.802 41.6453 136.802 41.064H137.266C137.266 41.9227 137.141 42.656 136.89 43.264C136.645 43.872 136.296 44.3387 135.842 44.664C135.394 44.984 134.866 45.144 134.258 45.144C133.682 45.144 133.178 45.0373 132.746 44.824C132.314 44.6107 131.978 44.288 131.738 43.856C131.498 43.4187 131.378 42.8667 131.378 42.2V37.336ZM141.45 45V37.336H142.698V45H141.45ZM142.314 41.544C142.314 40.5733 142.407 39.768 142.594 39.128C142.78 38.4827 143.052 38.0027 143.41 37.688C143.772 37.368 144.212 37.208 144.73 37.208C144.9 37.208 145.055 37.2213 145.194 37.248C145.338 37.2693 145.482 37.304 145.626 37.352L145.546 38.584C145.396 38.536 145.234 38.496 145.058 38.464C144.882 38.4267 144.724 38.408 144.586 38.408C144.132 38.408 143.767 38.5387 143.49 38.8C143.212 39.056 143.01 39.4187 142.882 39.888C142.759 40.3573 142.698 40.9093 142.698 41.544H142.314ZM154.116 45.192C153.428 45.192 152.815 45.04 152.276 44.736C151.743 44.432 151.321 43.9813 151.012 43.384C150.703 42.7867 150.548 42.0507 150.548 41.176C150.548 40.296 150.703 39.56 151.012 38.968C151.321 38.3707 151.743 37.92 152.276 37.616C152.815 37.312 153.428 37.16 154.116 37.16C154.799 37.16 155.407 37.312 155.94 37.616C156.479 37.92 156.9 38.3707 157.204 38.968C157.513 39.56 157.668 40.296 157.668 41.176C157.668 42.0507 157.513 42.7867 157.204 43.384C156.9 43.9813 156.479 44.432 155.94 44.736C155.407 45.04 154.799 45.192 154.116 45.192ZM154.084 44.104C154.58 44.104 155.001 43.9867 155.348 43.752C155.695 43.512 155.956 43.1733 156.132 42.736C156.313 42.2987 156.404 41.7787 156.404 41.176C156.404 40.264 156.215 39.5467 155.836 39.024C155.457 38.496 154.895 38.232 154.148 38.232C153.647 38.232 153.223 38.352 152.876 38.592C152.535 38.8267 152.273 39.1653 152.092 39.608C151.916 40.0453 151.828 40.568 151.828 41.176C151.828 42.0773 152.017 42.792 152.396 43.32C152.78 43.8427 153.343 44.104 154.084 44.104ZM158.93 37.352H160.354L162.754 43.928H162.578L164.978 37.352H166.402L163.346 45H161.986L158.93 37.352ZM171.121 45.192C170.459 45.192 169.867 45.024 169.345 44.688C168.827 44.3467 168.417 43.8747 168.113 43.272C167.814 42.6693 167.665 41.976 167.665 41.192C167.665 40.3547 167.814 39.6347 168.113 39.032C168.411 38.4293 168.819 37.968 169.337 37.648C169.859 37.3227 170.454 37.16 171.121 37.16C171.702 37.16 172.198 37.2773 172.609 37.512C173.019 37.7467 173.35 38.064 173.601 38.464C173.851 38.864 174.025 39.3173 174.121 39.824C174.222 40.3253 174.251 40.8453 174.209 41.384H168.673V40.616H173.385L173.017 40.856C173.033 40.5413 173.014 40.2267 172.961 39.912C172.913 39.5973 172.819 39.3093 172.681 39.048C172.542 38.7813 172.347 38.568 172.097 38.408C171.846 38.248 171.526 38.168 171.137 38.168C170.646 38.168 170.235 38.2933 169.905 38.544C169.574 38.7947 169.326 39.1253 169.161 39.536C168.995 39.9413 168.913 40.3813 168.913 40.856V41.368C168.913 41.9013 168.993 42.3787 169.153 42.8C169.318 43.2213 169.563 43.5547 169.889 43.8C170.214 44.0453 170.625 44.168 171.121 44.168C171.617 44.168 172.025 44.048 172.345 43.808C172.665 43.568 172.859 43.2133 172.929 42.744H174.225C174.145 43.2507 173.963 43.688 173.681 44.056C173.398 44.4187 173.038 44.6987 172.601 44.896C172.163 45.0933 171.67 45.192 171.121 45.192ZM176.843 45V37.336H178.091V45H176.843ZM177.707 41.544C177.707 40.5733 177.801 39.768 177.987 39.128C178.174 38.4827 178.446 38.0027 178.803 37.688C179.166 37.368 179.606 37.208 180.123 37.208C180.294 37.208 180.449 37.2213 180.587 37.248C180.731 37.2693 180.875 37.304 181.019 37.352L180.939 38.584C180.79 38.536 180.627 38.496 180.451 38.464C180.275 38.4267 180.118 38.408 179.979 38.408C179.526 38.408 179.161 38.5387 178.883 38.8C178.606 39.056 178.403 39.4187 178.275 39.888C178.153 40.3573 178.091 40.9093 178.091 41.544H177.707ZM189.094 45.192C188.678 45.192 188.304 45.112 187.974 44.952C187.643 44.792 187.382 44.552 187.19 44.232C186.998 43.912 186.902 43.512 186.902 43.032V35.224H188.134V43C188.134 43.7893 188.502 44.184 189.238 44.184C189.456 44.184 189.667 44.16 189.87 44.112C190.078 44.064 190.31 43.992 190.566 43.896L190.742 44.792C190.47 44.9093 190.198 45.0053 189.926 45.08C189.659 45.1547 189.382 45.192 189.094 45.192ZM185.67 38.216V37.352H190.55V38.216H185.67ZM198.357 45V40.504C198.357 39.7733 198.181 39.2187 197.829 38.84C197.483 38.456 197.008 38.264 196.405 38.264C195.947 38.264 195.549 38.3893 195.213 38.64C194.877 38.8907 194.619 39.2507 194.437 39.72C194.256 40.184 194.165 40.7387 194.165 41.384H193.685C193.685 40.4933 193.803 39.7333 194.037 39.104C194.272 38.4747 194.613 37.9947 195.061 37.664C195.515 37.328 196.064 37.16 196.709 37.16C197.312 37.16 197.827 37.296 198.253 37.568C198.685 37.8347 199.016 38.2187 199.245 38.72C199.475 39.2213 199.589 39.816 199.589 40.504V45H198.357ZM192.917 45V34.088H194.165V45H192.917ZM205.389 45.192C204.728 45.192 204.136 45.024 203.613 44.688C203.096 44.3467 202.685 43.8747 202.381 43.272C202.083 42.6693 201.933 41.976 201.933 41.192C201.933 40.3547 202.083 39.6347 202.381 39.032C202.68 38.4293 203.088 37.968 203.605 37.648C204.128 37.3227 204.723 37.16 205.389 37.16C205.971 37.16 206.467 37.2773 206.877 37.512C207.288 37.7467 207.619 38.064 207.869 38.464C208.12 38.864 208.293 39.3173 208.389 39.824C208.491 40.3253 208.52 40.8453 208.477 41.384H202.941V40.616H207.653L207.285 40.856C207.301 40.5413 207.283 40.2267 207.229 39.912C207.181 39.5973 207.088 39.3093 206.949 39.048C206.811 38.7813 206.616 38.568 206.365 38.408C206.115 38.248 205.795 38.168 205.405 38.168C204.915 38.168 204.504 38.2933 204.173 38.544C203.843 38.7947 203.595 39.1253 203.429 39.536C203.264 39.9413 203.181 40.3813 203.181 40.856V41.368C203.181 41.9013 203.261 42.3787 203.421 42.8C203.587 43.2213 203.832 43.5547 204.157 43.8C204.483 44.0453 204.893 44.168 205.389 44.168C205.885 44.168 206.293 44.048 206.613 43.808C206.933 43.568 207.128 43.2133 207.197 42.744H208.493C208.413 43.2507 208.232 43.688 207.949 44.056C207.667 44.4187 207.307 44.6987 206.869 44.896C206.432 45.0933 205.939 45.192 205.389 45.192ZM43.368 65V60.504C43.368 59.7733 43.192 59.2187 42.84 58.84C42.4933 58.456 42.024 58.264 41.432 58.264C40.7387 58.264 40.208 58.5333 39.84 59.072C39.472 59.6053 39.288 60.344 39.288 61.288H38.712C38.712 60.6 38.7787 59.9973 38.912 59.48C39.0507 58.9627 39.2507 58.5333 39.512 58.192C39.7733 57.8453 40.0907 57.5867 40.464 57.416C40.8373 57.2453 41.2613 57.16 41.736 57.16C42.3387 57.16 42.8533 57.296 43.28 57.568C43.712 57.8347 44.0427 58.2187 44.272 58.72C44.5013 59.2213 44.616 59.816 44.616 60.504V65H43.368ZM32.616 65V57.352H33.688L33.832 58.888C34.072 58.3333 34.408 57.9067 34.84 57.608C35.2773 57.3093 35.8 57.16 36.408 57.16C37.0107 57.16 37.5253 57.296 37.952 57.568C38.384 57.8347 38.7147 58.2187 38.944 58.72C39.1733 59.2213 39.288 59.816 39.288 60.504V65H38.056V60.504C38.056 59.7733 37.88 59.2187 37.528 58.84C37.1813 58.456 36.7067 58.264 36.104 58.264C35.6453 58.264 35.248 58.3893 34.912 58.64C34.576 58.8907 34.3173 59.2507 34.136 59.72C33.9547 60.184 33.864 60.7387 33.864 61.384V65H32.616ZM50.4008 65.192C49.7394 65.192 49.1474 65.024 48.6247 64.688C48.1074 64.3467 47.6967 63.8747 47.3927 63.272C47.0941 62.6693 46.9447 61.976 46.9447 61.192C46.9447 60.3547 47.0941 59.6347 47.3927 59.032C47.6914 58.4293 48.0994 57.968 48.6168 57.648C49.1394 57.3227 49.7341 57.16 50.4008 57.16C50.9821 57.16 51.4781 57.2773 51.8888 57.512C52.2994 57.7467 52.6301 58.064 52.8808 58.464C53.1314 58.864 53.3048 59.3173 53.4008 59.824C53.5021 60.3253 53.5314 60.8453 53.4887 61.384H47.9527V60.616H52.6648L52.2968 60.856C52.3128 60.5413 52.2941 60.2267 52.2408 59.912C52.1928 59.5973 52.0994 59.3093 51.9608 59.048C51.8221 58.7813 51.6274 58.568 51.3767 58.408C51.1261 58.248 50.8061 58.168 50.4167 58.168C49.9261 58.168 49.5154 58.2933 49.1848 58.544C48.8541 58.7947 48.6061 59.1253 48.4407 59.536C48.2754 59.9413 48.1927 60.3813 48.1927 60.856V61.368C48.1927 61.9013 48.2727 62.3787 48.4327 62.8C48.5981 63.2213 48.8434 63.5547 49.1688 63.8C49.4941 64.0453 49.9048 64.168 50.4008 64.168C50.8968 64.168 51.3048 64.048 51.6248 63.808C51.9448 63.568 52.1394 63.2133 52.2088 62.744H53.5048C53.4248 63.2507 53.2434 63.688 52.9608 64.056C52.6781 64.4187 52.3181 64.6987 51.8808 64.896C51.4434 65.0933 50.9501 65.192 50.4008 65.192ZM56.1235 65V54.088H57.3715V65H56.1235ZM63.1199 65.192C62.7039 65.192 62.3305 65.112 61.9999 64.952C61.6692 64.792 61.4079 64.552 61.2159 64.232C61.0239 63.912 60.9279 63.512 60.9279 63.032V55.224H62.1599V63C62.1599 63.7893 62.5279 64.184 63.2639 64.184C63.4825 64.184 63.6932 64.16 63.8959 64.112C64.1039 64.064 64.3359 63.992 64.5919 63.896L64.7679 64.792C64.4959 64.9093 64.2239 65.0053 63.9519 65.08C63.6852 65.1547 63.4079 65.192 63.1199 65.192ZM59.6959 58.216V57.352H64.5759V58.216H59.6959ZM69.5995 65.192C68.9382 65.192 68.3462 65.024 67.8235 64.688C67.3062 64.3467 66.8955 63.8747 66.5915 63.272C66.2928 62.6693 66.1435 61.976 66.1435 61.192C66.1435 60.3547 66.2928 59.6347 66.5915 59.032C66.8902 58.4293 67.2982 57.968 67.8155 57.648C68.3382 57.3227 68.9328 57.16 69.5995 57.16C70.1808 57.16 70.6768 57.2773 71.0875 57.512C71.4982 57.7467 71.8288 58.064 72.0795 58.464C72.3302 58.864 72.5035 59.3173 72.5995 59.824C72.7008 60.3253 72.7302 60.8453 72.6875 61.384H67.1515V60.616H71.8635L71.4955 60.856C71.5115 60.5413 71.4928 60.2267 71.4395 59.912C71.3915 59.5973 71.2982 59.3093 71.1595 59.048C71.0208 58.7813 70.8262 58.568 70.5755 58.408C70.3248 58.248 70.0048 58.168 69.6155 58.168C69.1248 58.168 68.7142 58.2933 68.3835 58.544C68.0528 58.7947 67.8048 59.1253 67.6395 59.536C67.4742 59.9413 67.3915 60.3813 67.3915 60.856V61.368C67.3915 61.9013 67.4715 62.3787 67.6315 62.8C67.7968 63.2213 68.0422 63.5547 68.3675 63.8C68.6928 64.0453 69.1035 64.168 69.5995 64.168C70.0955 64.168 70.5035 64.048 70.8235 63.808C71.1435 63.568 71.3382 63.2133 71.4075 62.744H72.7035C72.6235 63.2507 72.4422 63.688 72.1595 64.056C71.8768 64.4187 71.5168 64.6987 71.0795 64.896C70.6422 65.0933 70.1488 65.192 69.5995 65.192ZM78.0582 65.192C77.4396 65.192 76.8716 65.0267 76.3542 64.696C75.8369 64.36 75.4236 63.8907 75.1142 63.288C74.8049 62.68 74.6502 61.9653 74.6502 61.144C74.6502 60.328 74.8022 59.6213 75.1062 59.024C75.4102 58.4267 75.8129 57.968 76.3142 57.648C76.8209 57.3227 77.3756 57.16 77.9782 57.16C78.5382 57.16 79.0289 57.296 79.4502 57.568C79.8769 57.84 80.2076 58.232 80.4422 58.744C80.6769 59.256 80.7942 59.8747 80.7942 60.6H80.3142C80.3142 60.0933 80.2129 59.6667 80.0102 59.32C79.8129 58.9733 79.5542 58.712 79.2342 58.536C78.9142 58.3547 78.5702 58.264 78.2022 58.264C77.7862 58.264 77.4049 58.3813 77.0582 58.616C76.7169 58.8453 76.4422 59.176 76.2342 59.608C76.0316 60.0347 75.9302 60.5467 75.9302 61.144C75.9302 61.752 76.0316 62.2747 76.2342 62.712C76.4422 63.1493 76.7169 63.4853 77.0582 63.72C77.4049 63.9547 77.7862 64.072 78.2022 64.072C78.5489 64.072 78.8822 63.9813 79.2022 63.8C79.5276 63.6187 79.7942 63.3547 80.0022 63.008C80.2102 62.656 80.3142 62.232 80.3142 61.736H80.7942C80.7942 62.4773 80.6716 63.1067 80.4262 63.624C80.1862 64.136 79.8582 64.5253 79.4422 64.792C79.0316 65.0587 78.5702 65.192 78.0582 65.192ZM80.5222 65L80.3142 63.208V54.088H81.5622V65H80.5222ZM92.4275 65.192C91.9155 65.192 91.4515 65.0587 91.0355 64.792C90.6248 64.5253 90.2968 64.136 90.0515 63.624C89.8115 63.1067 89.6915 62.4773 89.6915 61.736H90.1715C90.1715 62.232 90.2728 62.656 90.4755 63.008C90.6835 63.3547 90.9502 63.6187 91.2755 63.8C91.6008 63.9813 91.9422 64.072 92.2995 64.072C92.7102 64.072 93.0862 63.9547 93.4275 63.72C93.7688 63.4853 94.0408 63.1493 94.2435 62.712C94.4515 62.2747 94.5555 61.752 94.5555 61.144C94.5555 60.5467 94.4542 60.0347 94.2515 59.608C94.0488 59.176 93.7742 58.8453 93.4275 58.616C93.0862 58.3813 92.7048 58.264 92.2835 58.264C91.9208 58.264 91.5768 58.3547 91.2515 58.536C90.9315 58.712 90.6702 58.9733 90.4675 59.32C90.2702 59.6667 90.1715 60.0933 90.1715 60.6H89.6915C89.6915 59.8747 89.8088 59.256 90.0435 58.744C90.2835 58.232 90.6142 57.84 91.0355 57.568C91.4568 57.296 91.9475 57.16 92.5075 57.16C93.1102 57.16 93.6622 57.3227 94.1635 57.648C94.6702 57.968 95.0755 58.4267 95.3795 59.024C95.6835 59.6213 95.8355 60.328 95.8355 61.144C95.8355 61.9653 95.6808 62.68 95.3715 63.288C95.0622 63.8907 94.6488 64.36 94.1315 64.696C93.6142 65.0267 93.0462 65.192 92.4275 65.192ZM88.9235 65V54.088H90.1715V63.208L89.8035 65H88.9235ZM103.768 57.336H105.016V65H103.768V57.336ZM98.3439 57.336H99.5919V62.104C99.5919 62.744 99.7465 63.2293 100.056 63.56C100.371 63.8907 100.819 64.056 101.4 64.056C101.88 64.056 102.296 63.928 102.648 63.672C103.005 63.416 103.28 63.064 103.472 62.616C103.669 62.1627 103.768 61.6453 103.768 61.064H104.232C104.232 61.9227 104.107 62.656 103.856 63.264C103.611 63.872 103.261 64.3387 102.808 64.664C102.36 64.984 101.832 65.144 101.224 65.144C100.648 65.144 100.144 65.0373 99.7119 64.824C99.2799 64.6107 98.9439 64.288 98.7039 63.856C98.4639 63.4187 98.3439 62.8667 98.3439 62.2V57.336ZM110.767 65.192C110.351 65.192 109.978 65.112 109.647 64.952C109.317 64.792 109.055 64.552 108.863 64.232C108.671 63.912 108.575 63.512 108.575 63.032V55.224H109.807V63C109.807 63.7893 110.175 64.184 110.911 64.184C111.13 64.184 111.341 64.16 111.543 64.112C111.751 64.064 111.983 63.992 112.239 63.896L112.415 64.792C112.143 64.9093 111.871 65.0053 111.599 65.08C111.333 65.1547 111.055 65.192 110.767 65.192ZM107.343 58.216V57.352H112.223V58.216H107.343ZM116.943 65.192C116.527 65.192 116.154 65.112 115.823 64.952C115.492 64.792 115.231 64.552 115.039 64.232C114.847 63.912 114.751 63.512 114.751 63.032V55.224H115.983V63C115.983 63.7893 116.351 64.184 117.087 64.184C117.306 64.184 117.516 64.16 117.719 64.112C117.927 64.064 118.159 63.992 118.415 63.896L118.591 64.792C118.319 64.9093 118.047 65.0053 117.775 65.08C117.508 65.1547 117.231 65.192 116.943 65.192ZM113.519 58.216V57.352H118.399V58.216H113.519ZM123.423 65.192C122.761 65.192 122.169 65.024 121.647 64.688C121.129 64.3467 120.719 63.8747 120.415 63.272C120.116 62.6693 119.967 61.976 119.967 61.192C119.967 60.3547 120.116 59.6347 120.415 59.032C120.713 58.4293 121.121 57.968 121.639 57.648C122.161 57.3227 122.756 57.16 123.423 57.16C124.004 57.16 124.5 57.2773 124.911 57.512C125.321 57.7467 125.652 58.064 125.903 58.464C126.153 58.864 126.327 59.3173 126.423 59.824C126.524 60.3253 126.553 60.8453 126.511 61.384H120.975V60.616H125.687L125.319 60.856C125.335 60.5413 125.316 60.2267 125.263 59.912C125.215 59.5973 125.121 59.3093 124.983 59.048C124.844 58.7813 124.649 58.568 124.399 58.408C124.148 58.248 123.828 58.168 123.439 58.168C122.948 58.168 122.537 58.2933 122.207 58.544C121.876 58.7947 121.628 59.1253 121.463 59.536C121.297 59.9413 121.215 60.3813 121.215 60.856V61.368C121.215 61.9013 121.295 62.3787 121.455 62.8C121.62 63.2213 121.865 63.5547 122.191 63.8C122.516 64.0453 122.927 64.168 123.423 64.168C123.919 64.168 124.327 64.048 124.647 63.808C124.967 63.568 125.161 63.2133 125.231 62.744H126.527C126.447 63.2507 126.265 63.688 125.983 64.056C125.7 64.4187 125.34 64.6987 124.903 64.896C124.465 65.0933 123.972 65.192 123.423 65.192ZM129.145 65V57.336H130.393V65H129.145ZM130.009 61.544C130.009 60.5733 130.103 59.768 130.289 59.128C130.476 58.4827 130.748 58.0027 131.105 57.688C131.468 57.368 131.908 57.208 132.425 57.208C132.596 57.208 132.751 57.2213 132.889 57.248C133.033 57.2693 133.177 57.304 133.321 57.352L133.241 58.584C133.092 58.536 132.929 58.496 132.753 58.464C132.577 58.4267 132.42 58.408 132.281 58.408C131.828 58.408 131.463 58.5387 131.185 58.8C130.908 59.056 130.705 59.4187 130.577 59.888C130.455 60.3573 130.393 60.9093 130.393 61.544H130.009ZM133.951 64.256C133.951 64.0053 134.039 63.7893 134.215 63.608C134.391 63.4267 134.612 63.336 134.879 63.336C135.145 63.336 135.372 63.4267 135.559 63.608C135.745 63.7893 135.839 64.0053 135.839 64.256C135.839 64.5067 135.745 64.7173 135.559 64.888C135.372 65.0587 135.145 65.144 134.879 65.144C134.612 65.144 134.391 65.0587 134.215 64.888C134.039 64.712 133.951 64.5013 133.951 64.256ZM140.578 58.296L139.682 57.816C139.986 57.6613 140.242 57.488 140.45 57.296C140.663 57.0987 140.802 56.872 140.866 56.616C140.626 56.5893 140.423 56.5067 140.258 56.368C140.098 56.2293 140.018 56.0453 140.018 55.816C140.018 55.5813 140.106 55.384 140.282 55.224C140.458 55.064 140.679 54.984 140.946 54.984C141.17 54.984 141.362 55.0427 141.522 55.16C141.682 55.272 141.805 55.424 141.89 55.616C141.975 55.8027 142.018 56.0133 142.018 56.248C142.018 56.632 141.893 57.008 141.642 57.376C141.391 57.7387 141.037 58.0453 140.578 58.296ZM137.962 58.296L137.066 57.816C137.37 57.6613 137.626 57.488 137.834 57.296C138.047 57.0987 138.186 56.872 138.25 56.616C138.01 56.5893 137.807 56.5067 137.642 56.368C137.482 56.2293 137.402 56.0453 137.402 55.816C137.402 55.5813 137.49 55.384 137.666 55.224C137.842 55.064 138.063 54.984 138.33 54.984C138.554 54.984 138.746 55.0427 138.906 55.16C139.066 55.272 139.189 55.424 139.274 55.616C139.359 55.8027 139.402 56.0133 139.402 56.248C139.402 56.632 139.277 57.008 139.026 57.376C138.775 57.7387 138.421 58.0453 137.962 58.296Z" fill="#333333"/>
</g>
<defs>
<filter id="filter0_d_7069_6436" x="0" y="0" width="237.035" height="88" filterUnits="userSpaceOnUse" color-interpolation-filters="sRGB">
<feFlood flood-opacity="0" result="BackgroundImageFix"/>
<feColorMatrix in="SourceAlpha" type="matrix" values="0 0 0 0 0 0 0 0 0 0 0 0 0 0 0 0 0 0 127 0" result="hardAlpha"/>
<feOffset dy="4"/>
<feGaussianBlur stdDeviation="3"/>
<feComposite in2="hardAlpha" operator="out"/>
<feColorMatrix type="matrix" values="0 0 0 0 0 0 0 0 0 0 0 0 0 0 0 0 0 0 0.1 0"/>
<feBlend mode="normal" in2="BackgroundImageFix" result="effect1_dropShadow_7069_6436"/>
<feBlend mode="normal" in="SourceGraphic" in2="effect1_dropShadow_7069_6436" result="shape"/>
</filter>
<filter id="filter1_d_7069_6436" x="25.5759" y="11.9756" width="198.079" height="63.2168" filterUnits="userSpaceOnUse" color-interpolation-filters="sRGB">
<feFlood flood-opacity="0" result="BackgroundImageFix"/>
<feColorMatrix in="SourceAlpha" type="matrix" values="0 0 0 0 0 0 0 0 0 0 0 0 0 0 0 0 0 0 127 0" result="hardAlpha"/>
<feOffset dy="4"/>
<feGaussianBlur stdDeviation="3"/>
<feComposite in2="hardAlpha" operator="out"/>
<feColorMatrix type="matrix" values="0 0 0 0 0 0 0 0 0 0 0 0 0 0 0 0 0 0 0.05 0"/>
<feBlend mode="normal" in2="BackgroundImageFix" result="effect1_dropShadow_7069_6436"/>
<feBlend mode="normal" in="SourceGraphic" in2="effect1_dropShadow_7069_6436" result="shape"/>
</filter>
</defs>
</svg>
