<svg width="256" height="68" viewBox="0 0 256 68" fill="none" xmlns="http://www.w3.org/2000/svg">
<mask id="path-1-inside-1_7031_5626" fill="white">
<path d="M248.724 27.3669L239 19L239 11C239 6.02944 234.971 2 230 2L9 1.99998C4.02944 1.99998 4.54341e-06 6.02942 4.10887e-06 11L7.86805e-07 49C3.52265e-07 53.9705 4.02943 58 9 58L230 58C234.971 58 239 53.9706 239 49L239 39.5L248.612 32.0069C250.106 30.8425 250.16 28.6022 248.724 27.3669Z"/>
</mask>
<path d="M248.724 27.3669L239 19L239 11C239 6.02944 234.971 2 230 2L9 1.99998C4.02944 1.99998 4.54341e-06 6.02942 4.10887e-06 11L7.86805e-07 49C3.52265e-07 53.9705 4.02943 58 9 58L230 58C234.971 58 239 53.9706 239 49L239 39.5L248.612 32.0069C250.106 30.8425 250.16 28.6022 248.724 27.3669Z" fill="white"/>
<path d="M239 19L237.6 19L237.6 19.6423L238.087 20.0612L239 19ZM248.724 27.3669L249.637 26.3056L249.637 26.3056L248.724 27.3669ZM248.612 32.0069L247.751 30.9028L247.751 30.9028L248.612 32.0069ZM239 39.5L238.139 38.3959L237.6 38.8162L237.6 39.5L239 39.5ZM238.087 20.0612L247.811 28.4281L249.637 26.3056L239.913 17.9388L238.087 20.0612ZM247.751 30.9028L238.139 38.3959L239.861 40.6041L249.473 33.1111L247.751 30.9028ZM247.811 28.4281C248.577 29.0869 248.548 30.2817 247.751 30.9028L249.473 33.1111C251.663 31.4032 251.743 28.1175 249.637 26.3056L247.811 28.4281ZM230 56.6L9 56.6L9 59.4L230 59.4L230 56.6ZM1.4 49L1.4 11L-1.4 11L-1.4 49L1.4 49ZM9 3.39998L230 3.4L230 0.599998L9.00001 0.599979L9 3.39998ZM237.6 39.5L237.6 49L240.4 49L240.4 39.5L237.6 39.5ZM237.6 11L237.6 19L240.4 19L240.4 11L237.6 11ZM230 3.4C234.197 3.4 237.6 6.80264 237.6 11L240.4 11C240.4 5.25624 235.744 0.599999 230 0.599998L230 3.4ZM1.4 11C1.4 6.80261 4.80264 3.39998 9 3.39998L9.00001 0.599979C3.25624 0.599978 -1.4 5.25622 -1.4 11L1.4 11ZM9 56.6C4.80263 56.6 1.4 53.1973 1.4 49L-1.4 49C-1.4 54.7437 3.25623 59.4 9 59.4L9 56.6ZM230 59.4C235.744 59.4 240.4 54.7438 240.4 49L237.6 49C237.6 53.1974 234.197 56.6 230 56.6L230 59.4Z" fill="white" mask="url(#path-1-inside-1_7031_5626)"/>
<g filter="url(#filter0_d_7031_5626)">
<mask id="path-3-inside-2_7031_5626" fill="white">
<path d="M248.724 27.3669L239 19L239 11C239 6.02944 234.971 2 230 2L42 1.99998C37.0294 1.99998 33 6.02942 33 11L33 49C33 53.9705 37.0294 58 42 58L230 58C234.971 58 239 53.9706 239 49L239 39.5L248.612 32.0069C250.106 30.8425 250.16 28.6022 248.724 27.3669Z"/>
</mask>
<path d="M248.724 27.3669L239 19L239 11C239 6.02944 234.971 2 230 2L42 1.99998C37.0294 1.99998 33 6.02942 33 11L33 49C33 53.9705 37.0294 58 42 58L230 58C234.971 58 239 53.9706 239 49L239 39.5L248.612 32.0069C250.106 30.8425 250.16 28.6022 248.724 27.3669Z" fill="white"/>
<path d="M239 19L237.6 19L237.6 19.6423L238.087 20.0612L239 19ZM248.724 27.3669L249.637 26.3056L249.637 26.3056L248.724 27.3669ZM248.612 32.0069L247.751 30.9028L247.751 30.9028L248.612 32.0069ZM239 39.5L238.139 38.3959L237.6 38.8162L237.6 39.5L239 39.5ZM230 58L230 59.4L230 58ZM42 58L42 56.6L42 58ZM238.087 20.0612L247.811 28.4281L249.637 26.3056L239.913 17.9388L238.087 20.0612ZM247.751 30.9028L238.139 38.3959L239.861 40.6041L249.473 33.1111L247.751 30.9028ZM247.811 28.4281C248.577 29.0869 248.548 30.2817 247.751 30.9028L249.473 33.1111C251.663 31.4032 251.743 28.1175 249.637 26.3056L247.811 28.4281ZM230 56.6L42 56.6L42 59.4L230 59.4L230 56.6ZM34.4 49L34.4 11L31.6 11L31.6 49L34.4 49ZM42 3.39998L230 3.4L230 0.599998L42 0.599982L42 3.39998ZM237.6 39.5L237.6 49L240.4 49L240.4 39.5L237.6 39.5ZM237.6 11L237.6 19L240.4 19L240.4 11L237.6 11ZM230 3.4C234.197 3.4 237.6 6.80264 237.6 11L240.4 11C240.4 5.25624 235.744 0.599999 230 0.599998L230 3.4ZM34.4 11C34.4 6.80262 37.8026 3.39998 42 3.39998L42 0.599982C36.2562 0.599981 31.6 5.25622 31.6 11L34.4 11ZM42 56.6C37.8026 56.6 34.4 53.1973 34.4 49L31.6 49C31.6 54.7437 36.2562 59.4 42 59.4L42 56.6ZM230 59.4C235.744 59.4 240.4 54.7438 240.4 49L237.6 49C237.6 53.1974 234.197 56.6 230 56.6L230 59.4Z" fill="#333333" mask="url(#path-3-inside-2_7031_5626)"/>
</g>
<g filter="url(#filter1_d_7031_5626)">
<path d="M72.9827 15.452H74.4867L77.3667 20.332H77.0467L79.9747 15.452H81.4627L77.8307 21.372V25.5H76.5667V21.372L72.9827 15.452ZM85.0051 25.692C84.3438 25.692 83.7518 25.524 83.2291 25.188C82.7118 24.8467 82.3011 24.3747 81.9971 23.772C81.6985 23.1693 81.5491 22.476 81.5491 21.692C81.5491 20.8547 81.6985 20.1347 81.9971 19.532C82.2958 18.9293 82.7038 18.468 83.2211 18.148C83.7438 17.8227 84.3385 17.66 85.0051 17.66C85.5865 17.66 86.0825 17.7773 86.4931 18.012C86.9038 18.2467 87.2345 18.564 87.4851 18.964C87.7358 19.364 87.9091 19.8173 88.0051 20.324C88.1065 20.8253 88.1358 21.3453 88.0931 21.884H82.5571V21.116H87.2691L86.9011 21.356C86.9171 21.0413 86.8985 20.7267 86.8451 20.412C86.7971 20.0973 86.7038 19.8093 86.5651 19.548C86.4265 19.2813 86.2318 19.068 85.9811 18.908C85.7305 18.748 85.4105 18.668 85.0211 18.668C84.5305 18.668 84.1198 18.7933 83.7891 19.044C83.4585 19.2947 83.2105 19.6253 83.0451 20.036C82.8798 20.4413 82.7971 20.8813 82.7971 21.356V21.868C82.7971 22.4013 82.8771 22.8787 83.0371 23.3C83.2025 23.7213 83.4478 24.0547 83.7731 24.3C84.0985 24.5453 84.5091 24.668 85.0051 24.668C85.5011 24.668 85.9091 24.548 86.2291 24.308C86.5491 24.068 86.7438 23.7133 86.8131 23.244H88.1091C88.0291 23.7507 87.8478 24.188 87.5651 24.556C87.2825 24.9187 86.9225 25.1987 86.4851 25.396C86.0478 25.5933 85.5545 25.692 85.0051 25.692ZM93.4799 25.692C92.7385 25.692 92.1199 25.588 91.6239 25.38C91.1279 25.1667 90.7519 24.876 90.4959 24.508C90.2399 24.1347 90.1039 23.708 90.0879 23.228H91.2879C91.3145 23.7133 91.5092 24.0787 91.8719 24.324C92.2399 24.564 92.7385 24.684 93.3679 24.684C93.6985 24.684 94.0025 24.6307 94.2799 24.524C94.5572 24.4173 94.7785 24.2707 94.9439 24.084C95.1092 23.8973 95.1919 23.6867 95.1919 23.452C95.1919 23.1533 95.0825 22.9187 94.8639 22.748C94.6452 22.5773 94.2959 22.428 93.8159 22.3L92.3279 21.82C91.6825 21.6173 91.1865 21.34 90.8399 20.988C90.4985 20.6307 90.3279 20.204 90.3279 19.708C90.3279 19.0893 90.5999 18.5933 91.1439 18.22C91.6879 17.8467 92.4025 17.66 93.2879 17.66C94.2265 17.66 94.9545 17.852 95.4719 18.236C95.9892 18.62 96.2585 19.1 96.2799 19.676H95.0479C94.9999 19.34 94.8292 19.0867 94.5359 18.916C94.2425 18.74 93.8265 18.652 93.2879 18.652C92.7705 18.652 92.3652 18.7693 92.0719 19.004C91.7839 19.2333 91.6399 19.4893 91.6399 19.772C91.6399 20.3 92.0932 20.6893 92.9999 20.94L94.5199 21.452C95.1759 21.6493 95.6772 21.908 96.0239 22.228C96.3759 22.548 96.5519 22.956 96.5519 23.452C96.5519 23.836 96.4265 24.1987 96.1759 24.54C95.9252 24.8813 95.5705 25.1587 95.1119 25.372C94.6532 25.5853 94.1092 25.692 93.4799 25.692ZM99.1021 27.244L98.1581 26.78C98.4621 26.6253 98.7181 26.4547 98.9261 26.268C99.1395 26.0813 99.2781 25.852 99.3421 25.58C99.1128 25.5533 98.9155 25.4707 98.7501 25.332C98.5901 25.1933 98.5101 25.0093 98.5101 24.78C98.5101 24.556 98.5928 24.364 98.7581 24.204C98.9288 24.044 99.1448 23.964 99.4061 23.964C99.7368 23.964 100.003 24.084 100.206 24.324C100.409 24.564 100.51 24.8493 100.51 25.18C100.51 25.5693 100.39 25.9507 100.15 26.324C99.9155 26.7027 99.5661 27.0093 99.1021 27.244ZM111.955 17.836H113.203V25.5H111.955V17.836ZM106.531 17.836H107.779V22.604C107.779 23.244 107.933 23.7293 108.243 24.06C108.557 24.3907 109.005 24.556 109.587 24.556C110.067 24.556 110.483 24.428 110.835 24.172C111.192 23.916 111.467 23.564 111.659 23.116C111.856 22.6627 111.955 22.1453 111.955 21.564H112.419C112.419 22.4227 112.293 23.156 112.043 23.764C111.797 24.372 111.448 24.8387 110.995 25.164C110.547 25.484 110.019 25.644 109.411 25.644C108.835 25.644 108.331 25.5373 107.899 25.324C107.467 25.1107 107.131 24.788 106.891 24.356C106.651 23.9187 106.531 23.3667 106.531 22.7V17.836ZM119.354 25.692C118.613 25.692 117.994 25.588 117.498 25.38C117.002 25.1667 116.626 24.876 116.37 24.508C116.114 24.1347 115.978 23.708 115.962 23.228H117.162C117.189 23.7133 117.384 24.0787 117.746 24.324C118.114 24.564 118.613 24.684 119.242 24.684C119.573 24.684 119.877 24.6307 120.154 24.524C120.432 24.4173 120.653 24.2707 120.818 24.084C120.984 23.8973 121.066 23.6867 121.066 23.452C121.066 23.1533 120.957 22.9187 120.738 22.748C120.52 22.5773 120.17 22.428 119.69 22.3L118.202 21.82C117.557 21.6173 117.061 21.34 116.714 20.988C116.373 20.6307 116.202 20.204 116.202 19.708C116.202 19.0893 116.474 18.5933 117.018 18.22C117.562 17.8467 118.277 17.66 119.162 17.66C120.101 17.66 120.829 17.852 121.346 18.236C121.864 18.62 122.133 19.1 122.154 19.676H120.922C120.874 19.34 120.704 19.0867 120.41 18.916C120.117 18.74 119.701 18.652 119.162 18.652C118.645 18.652 118.24 18.7693 117.946 19.004C117.658 19.2333 117.514 19.4893 117.514 19.772C117.514 20.3 117.968 20.6893 118.874 20.94L120.394 21.452C121.05 21.6493 121.552 21.908 121.898 22.228C122.25 22.548 122.426 22.956 122.426 23.452C122.426 23.836 122.301 24.1987 122.05 24.54C121.8 24.8813 121.445 25.1587 120.986 25.372C120.528 25.5853 119.984 25.692 119.354 25.692ZM127.824 25.692C127.163 25.692 126.571 25.524 126.048 25.188C125.531 24.8467 125.12 24.3747 124.816 23.772C124.518 23.1693 124.368 22.476 124.368 21.692C124.368 20.8547 124.518 20.1347 124.816 19.532C125.115 18.9293 125.523 18.468 126.04 18.148C126.563 17.8227 127.158 17.66 127.824 17.66C128.406 17.66 128.902 17.7773 129.312 18.012C129.723 18.2467 130.054 18.564 130.304 18.964C130.555 19.364 130.728 19.8173 130.824 20.324C130.926 20.8253 130.955 21.3453 130.912 21.884H125.376V21.116H130.088L129.72 21.356C129.736 21.0413 129.718 20.7267 129.664 20.412C129.616 20.0973 129.523 19.8093 129.384 19.548C129.246 19.2813 129.051 19.068 128.8 18.908C128.55 18.748 128.23 18.668 127.84 18.668C127.35 18.668 126.939 18.7933 126.608 19.044C126.278 19.2947 126.03 19.6253 125.864 20.036C125.699 20.4413 125.616 20.8813 125.616 21.356V21.868C125.616 22.4013 125.696 22.8787 125.856 23.3C126.022 23.7213 126.267 24.0547 126.592 24.3C126.918 24.5453 127.328 24.668 127.824 24.668C128.32 24.668 128.728 24.548 129.048 24.308C129.368 24.068 129.563 23.7133 129.632 23.244H130.928C130.848 23.7507 130.667 24.188 130.384 24.556C130.102 24.9187 129.742 25.1987 129.304 25.396C128.867 25.5933 128.374 25.692 127.824 25.692ZM137.376 25.5V15.116H143.92V16.748H139.264V19.484H143.52V21.1H139.264V25.5H137.376ZM144.103 25.5L147.639 15.116H150.007L153.399 25.5H151.415L150.695 23.26H146.839L146.103 25.5H144.103ZM147.319 21.836H150.247L148.791 17.372L147.319 21.836ZM158.131 23.436L160.787 15.116H162.771L159.203 25.5H157.219L153.699 15.116H155.699L158.323 23.436H158.131ZM168.418 25.724C167.495 25.724 166.679 25.5213 165.97 25.116C165.266 24.7107 164.714 24.1053 164.314 23.3C163.914 22.4947 163.714 21.4947 163.714 20.3C163.714 19.084 163.914 18.0787 164.314 17.284C164.714 16.484 165.266 15.8893 165.97 15.5C166.679 15.1053 167.495 14.908 168.418 14.908C169.346 14.908 170.165 15.1107 170.874 15.516C171.583 15.916 172.138 16.516 172.538 17.316C172.938 18.116 173.138 19.1107 173.138 20.3C173.138 21.5107 172.938 22.5187 172.538 23.324C172.138 24.1293 171.583 24.732 170.874 25.132C170.165 25.5267 169.346 25.724 168.418 25.724ZM168.418 24.012C169.266 24.012 169.938 23.692 170.434 23.052C170.935 22.412 171.186 21.4893 171.186 20.284C171.186 19.1213 170.935 18.2173 170.434 17.572C169.938 16.9267 169.266 16.604 168.418 16.604C167.586 16.604 166.919 16.9293 166.418 17.58C165.917 18.2253 165.666 19.132 165.666 20.3C165.666 21.5 165.917 22.42 166.418 23.06C166.919 23.6947 167.586 24.012 168.418 24.012ZM175.372 15.116H177.26V21.58C177.26 22.4333 177.476 23.0493 177.908 23.428C178.345 23.8067 178.902 23.996 179.58 23.996C180.262 23.996 180.82 23.8067 181.252 23.428C181.684 23.0493 181.9 22.4333 181.9 21.58V15.116H183.788V21.58C183.788 22.4547 183.62 23.2013 183.284 23.82C182.948 24.4387 182.465 24.9107 181.836 25.236C181.212 25.5613 180.46 25.724 179.58 25.724C178.7 25.724 177.945 25.5613 177.316 25.236C176.692 24.9107 176.212 24.4387 175.876 23.82C175.54 23.2013 175.372 22.4547 175.372 21.58V15.116ZM186.739 25.5V15.116H190.579C191.821 15.116 192.773 15.4067 193.435 15.988C194.101 16.5693 194.435 17.34 194.435 18.3C194.435 19.244 194.101 20.0067 193.435 20.588C192.773 21.164 191.821 21.452 190.579 21.452H188.627V25.5H186.739ZM192.355 25.5L189.603 20.636H191.619L194.819 25.5H192.355ZM188.627 20.188H190.387C191.08 20.188 191.605 20.0307 191.963 19.716C192.32 19.396 192.499 18.9827 192.499 18.476C192.499 17.9587 192.336 17.5427 192.011 17.228C191.685 16.908 191.208 16.748 190.579 16.748H188.627V20.188ZM197.195 25.5V15.116H199.083V25.5H197.195ZM200.838 16.748V15.116H209.158V16.748H205.518L205.942 16.316V25.5H204.054V16.316L204.478 16.748H200.838ZM210.874 25.5V15.116H217.546V16.748H212.762V19.484H217.258V21.116H212.762V23.852H217.546V25.5H210.874ZM68.7902 45.724C67.8782 45.724 67.0836 45.508 66.4062 45.076C65.7342 44.6387 65.2116 44.0147 64.8382 43.204C64.4649 42.3933 64.2782 41.42 64.2782 40.284C64.2782 39.1107 64.4702 38.1267 64.8542 37.332C65.2436 36.532 65.7769 35.9293 66.4542 35.524C67.1369 35.1133 67.9156 34.908 68.7902 34.908C70.0009 34.908 70.9449 35.2013 71.6222 35.788C72.3049 36.3747 72.7422 37.1373 72.9342 38.076L70.9182 38.444C70.7529 37.9 70.4889 37.46 70.1262 37.124C69.7636 36.788 69.3182 36.62 68.7902 36.62C68.3262 36.62 67.9076 36.756 67.5342 37.028C67.1609 37.2947 66.8622 37.7 66.6382 38.244C66.4196 38.788 66.3102 39.468 66.3102 40.284C66.3102 41.052 66.4062 41.7133 66.5982 42.268C66.7956 42.8227 67.0782 43.2493 67.4462 43.548C67.8142 43.8467 68.2622 43.996 68.7902 43.996C69.4676 43.996 69.9902 43.8173 70.3582 43.46C70.7316 43.0973 70.9182 42.636 70.9182 42.076H72.9342C72.9342 42.8493 72.7662 43.508 72.4302 44.052C72.0996 44.5907 71.6249 45.004 71.0062 45.292C70.3876 45.58 69.6489 45.724 68.7902 45.724ZM74.1789 45.5L77.7149 35.116H80.0829L83.4749 45.5H81.4909L80.7709 43.26H76.9149L76.1789 45.5H74.1789ZM77.3949 41.836H80.3229L78.8669 37.372L77.3949 41.836ZM91.4905 35.116H94.0825L87.2345 42.124V39.548L91.4905 35.116ZM89.1865 39.404L94.3705 45.5H91.9385L87.8745 40.636L89.1865 39.404ZM85.4905 35.116H87.3945V45.5H85.4905V35.116ZM96.1032 45.5V35.116H102.775V36.748H97.9912V39.484H102.487V41.116H97.9912V43.852H102.775V45.5H96.1032ZM109.877 45.5V35.116H113.717C114.959 35.116 115.911 35.4067 116.573 35.988C117.239 36.5693 117.573 37.34 117.573 38.3C117.573 39.244 117.239 40.0067 116.573 40.588C115.911 41.164 114.959 41.452 113.717 41.452H111.765V45.5H109.877ZM115.493 45.5L112.741 40.636H114.757L117.957 45.5H115.493ZM111.765 40.188H113.525C114.218 40.188 114.743 40.0307 115.101 39.716C115.458 39.396 115.637 38.9827 115.637 38.476C115.637 37.9587 115.474 37.5427 115.149 37.228C114.823 36.908 114.346 36.748 113.717 36.748H111.765V40.188ZM120.318 45.5V35.116H126.99V36.748H122.206V39.484H126.702V41.116H122.206V43.852H126.99V45.5H120.318ZM133.66 45.724C132.748 45.724 131.954 45.508 131.276 45.076C130.604 44.6387 130.082 44.0147 129.708 43.204C129.335 42.3933 129.148 41.42 129.148 40.284C129.148 39.1107 129.34 38.1267 129.724 37.332C130.114 36.532 130.647 35.9293 131.324 35.524C132.007 35.1133 132.786 34.908 133.66 34.908C134.871 34.908 135.815 35.2013 136.492 35.788C137.175 36.3747 137.612 37.1373 137.804 38.076L135.788 38.444C135.623 37.9 135.359 37.46 134.996 37.124C134.634 36.788 134.188 36.62 133.66 36.62C133.196 36.62 132.778 36.756 132.404 37.028C132.031 37.2947 131.732 37.7 131.508 38.244C131.29 38.788 131.18 39.468 131.18 40.284C131.18 41.052 131.276 41.7133 131.468 42.268C131.666 42.8227 131.948 43.2493 132.316 43.548C132.684 43.8467 133.132 43.996 133.66 43.996C134.338 43.996 134.86 43.8173 135.228 43.46C135.602 43.0973 135.788 42.636 135.788 42.076H137.804C137.804 42.8493 137.636 43.508 137.3 44.052C136.97 44.5907 136.495 45.004 135.876 45.292C135.258 45.58 134.519 45.724 133.66 45.724ZM140.185 45.5V35.116H142.073V45.5H140.185ZM145.172 45.5V35.116H148.836C150.004 35.116 150.913 35.404 151.564 35.98C152.22 36.556 152.548 37.372 152.548 38.428C152.548 39.4733 152.22 40.284 151.564 40.86C150.913 41.436 150.004 41.724 148.836 41.724H147.076V45.5H145.172ZM147.076 40.076H148.836C149.423 40.076 149.865 39.9213 150.164 39.612C150.463 39.3027 150.612 38.908 150.612 38.428C150.612 37.9373 150.463 37.5347 150.164 37.22C149.865 36.9053 149.423 36.748 148.836 36.748H147.076V40.076ZM154.645 45.5V35.116H161.317V36.748H156.533V39.484H161.029V41.116H156.533V43.852H161.317V45.5H154.645ZM169.001 36.044C168.745 36.044 168.542 35.972 168.393 35.828C168.243 35.6787 168.169 35.484 168.169 35.244C168.169 35.0093 168.243 34.8227 168.393 34.684C168.542 34.5453 168.745 34.476 169.001 34.476C169.257 34.476 169.459 34.5453 169.609 34.684C169.758 34.8227 169.833 35.0093 169.833 35.244C169.833 35.484 169.758 35.6787 169.609 35.828C169.459 35.972 169.257 36.044 169.001 36.044ZM168.377 45.5V37.836H169.625V45.5H168.377ZM178.662 45.5V41.004C178.662 40.2733 178.486 39.7187 178.134 39.34C177.788 38.956 177.313 38.764 176.71 38.764C176.252 38.764 175.854 38.8893 175.518 39.14C175.182 39.3907 174.924 39.7507 174.742 40.22C174.561 40.684 174.47 41.2387 174.47 41.884H173.99C173.99 40.9933 174.108 40.2333 174.342 39.604C174.577 38.9747 174.918 38.4947 175.366 38.164C175.82 37.828 176.369 37.66 177.014 37.66C177.617 37.66 178.132 37.796 178.558 38.068C178.99 38.3347 179.321 38.7187 179.55 39.22C179.78 39.7213 179.894 40.316 179.894 41.004V45.5H178.662ZM173.222 45.5V37.852H174.294L174.47 39.612V45.5H173.222ZM185.79 45.692C185.049 45.692 184.43 45.588 183.934 45.38C183.438 45.1667 183.062 44.876 182.806 44.508C182.55 44.1347 182.414 43.708 182.398 43.228H183.598C183.625 43.7133 183.82 44.0787 184.182 44.324C184.55 44.564 185.049 44.684 185.678 44.684C186.009 44.684 186.313 44.6307 186.59 44.524C186.868 44.4173 187.089 44.2707 187.254 44.084C187.42 43.8973 187.502 43.6867 187.502 43.452C187.502 43.1533 187.393 42.9187 187.174 42.748C186.956 42.5773 186.606 42.428 186.126 42.3L184.638 41.82C183.993 41.6173 183.497 41.34 183.15 40.988C182.809 40.6307 182.638 40.204 182.638 39.708C182.638 39.0893 182.91 38.5933 183.454 38.22C183.998 37.8467 184.713 37.66 185.598 37.66C186.537 37.66 187.265 37.852 187.782 38.236C188.3 38.62 188.569 39.1 188.59 39.676H187.358C187.31 39.34 187.14 39.0867 186.846 38.916C186.553 38.74 186.137 38.652 185.598 38.652C185.081 38.652 184.676 38.7693 184.382 39.004C184.094 39.2333 183.95 39.4893 183.95 39.772C183.95 40.3 184.404 40.6893 185.31 40.94L186.83 41.452C187.486 41.6493 187.988 41.908 188.334 42.228C188.686 42.548 188.862 42.956 188.862 43.452C188.862 43.836 188.737 44.1987 188.486 44.54C188.236 44.8813 187.881 45.1587 187.422 45.372C186.964 45.5853 186.42 45.692 185.79 45.692ZM193.957 45.692C193.541 45.692 193.167 45.612 192.837 45.452C192.506 45.292 192.245 45.052 192.053 44.732C191.861 44.412 191.765 44.012 191.765 43.532V35.724H192.997V43.5C192.997 44.2893 193.365 44.684 194.101 44.684C194.319 44.684 194.53 44.66 194.733 44.612C194.941 44.564 195.173 44.492 195.429 44.396L195.605 45.292C195.333 45.4093 195.061 45.5053 194.789 45.58C194.522 45.6547 194.245 45.692 193.957 45.692ZM190.533 38.716V37.852H195.413V38.716H190.533ZM200.436 45.692C199.775 45.692 199.183 45.524 198.66 45.188C198.143 44.8467 197.732 44.3747 197.428 43.772C197.13 43.1693 196.98 42.476 196.98 41.692C196.98 40.8547 197.13 40.1347 197.428 39.532C197.727 38.9293 198.135 38.468 198.652 38.148C199.175 37.8227 199.77 37.66 200.436 37.66C201.018 37.66 201.514 37.7773 201.924 38.012C202.335 38.2467 202.666 38.564 202.916 38.964C203.167 39.364 203.34 39.8173 203.436 40.324C203.538 40.8253 203.567 41.3453 203.524 41.884H197.988V41.116H202.7L202.332 41.356C202.348 41.0413 202.33 40.7267 202.276 40.412C202.228 40.0973 202.135 39.8093 201.996 39.548C201.858 39.2813 201.663 39.068 201.412 38.908C201.162 38.748 200.842 38.668 200.452 38.668C199.962 38.668 199.551 38.7933 199.22 39.044C198.89 39.2947 198.642 39.6253 198.476 40.036C198.311 40.4413 198.228 40.8813 198.228 41.356V41.868C198.228 42.4013 198.308 42.8787 198.468 43.3C198.634 43.7213 198.879 44.0547 199.204 44.3C199.53 44.5453 199.94 44.668 200.436 44.668C200.932 44.668 201.34 44.548 201.66 44.308C201.98 44.068 202.175 43.7133 202.244 43.244H203.54C203.46 43.7507 203.279 44.188 202.996 44.556C202.714 44.9187 202.354 45.1987 201.916 45.396C201.479 45.5933 200.986 45.692 200.436 45.692ZM210.895 45.5L210.735 43.82V40.54C210.735 39.852 210.588 39.3587 210.295 39.06C210.002 38.756 209.562 38.604 208.975 38.604C208.644 38.604 208.343 38.652 208.071 38.748C207.804 38.844 207.591 38.9933 207.431 39.196C207.276 39.3933 207.199 39.6493 207.199 39.964H205.807C205.807 39.4093 205.943 38.964 206.215 38.628C206.487 38.2867 206.86 38.0413 207.335 37.892C207.815 37.7373 208.362 37.66 208.975 37.66C209.562 37.66 210.082 37.7587 210.535 37.956C210.988 38.1533 211.343 38.468 211.599 38.9C211.855 39.3267 211.983 39.884 211.983 40.572V45.5H210.895ZM208.287 45.692C207.658 45.692 207.138 45.58 206.727 45.356C206.316 45.132 206.01 44.8413 205.807 44.484C205.604 44.1267 205.503 43.7507 205.503 43.356C205.503 42.8387 205.631 42.4173 205.887 42.092C206.148 41.7667 206.503 41.5293 206.951 41.38C207.399 41.2253 207.903 41.148 208.463 41.148C208.863 41.148 209.263 41.188 209.663 41.268C210.068 41.348 210.463 41.4573 210.847 41.596V42.38C210.527 42.252 210.164 42.1507 209.759 42.076C209.359 42.0013 208.991 41.964 208.655 41.964C208.143 41.964 207.711 42.0707 207.359 42.284C207.007 42.492 206.831 42.8493 206.831 43.356C206.831 43.7293 206.964 44.0493 207.231 44.316C207.503 44.5827 207.935 44.716 208.527 44.716C208.943 44.716 209.316 44.62 209.647 44.428C209.983 44.2307 210.247 43.9853 210.439 43.692C210.636 43.3987 210.735 43.1053 210.735 42.812H211.039C211.039 43.324 210.927 43.7987 210.703 44.236C210.484 44.6733 210.17 45.0253 209.759 45.292C209.348 45.5587 208.858 45.692 208.287 45.692ZM217.868 45.692C217.249 45.692 216.681 45.5267 216.164 45.196C215.646 44.86 215.233 44.3907 214.924 43.788C214.614 43.18 214.46 42.4653 214.46 41.644C214.46 40.828 214.612 40.1213 214.916 39.524C215.22 38.9267 215.622 38.468 216.124 38.148C216.63 37.8227 217.185 37.66 217.788 37.66C218.348 37.66 218.838 37.796 219.26 38.068C219.686 38.34 220.017 38.732 220.252 39.244C220.486 39.756 220.604 40.3747 220.604 41.1H220.124C220.124 40.5933 220.022 40.1667 219.82 39.82C219.622 39.4733 219.364 39.212 219.044 39.036C218.724 38.8547 218.38 38.764 218.012 38.764C217.596 38.764 217.214 38.8813 216.868 39.116C216.526 39.3453 216.252 39.676 216.044 40.108C215.841 40.5347 215.74 41.0467 215.74 41.644C215.74 42.252 215.841 42.7747 216.044 43.212C216.252 43.6493 216.526 43.9853 216.868 44.22C217.214 44.4547 217.596 44.572 218.012 44.572C218.358 44.572 218.692 44.4813 219.012 44.3C219.337 44.1187 219.604 43.8547 219.812 43.508C220.02 43.156 220.124 42.732 220.124 42.236H220.604C220.604 42.9773 220.481 43.6067 220.236 44.124C219.996 44.636 219.668 45.0253 219.252 45.292C218.841 45.5587 218.38 45.692 217.868 45.692ZM220.332 45.5L220.124 43.708V34.588H221.372V45.5H220.332Z" fill="#333333"/>
</g>
<defs>
<filter id="filter0_d_7031_5626" x="27" y="0" width="228.767" height="68" filterUnits="userSpaceOnUse" color-interpolation-filters="sRGB">
<feFlood flood-opacity="0" result="BackgroundImageFix"/>
<feColorMatrix in="SourceAlpha" type="matrix" values="0 0 0 0 0 0 0 0 0 0 0 0 0 0 0 0 0 0 127 0" result="hardAlpha"/>
<feOffset dy="4"/>
<feGaussianBlur stdDeviation="3"/>
<feComposite in2="hardAlpha" operator="out"/>
<feColorMatrix type="matrix" values="0 0 0 0 0 0 0 0 0 0 0 0 0 0 0 0 0 0 0.1 0"/>
<feBlend mode="normal" in2="BackgroundImageFix" result="effect1_dropShadow_7031_5626"/>
<feBlend mode="normal" in="SourceGraphic" in2="effect1_dropShadow_7031_5626" result="shape"/>
</filter>
<filter id="filter1_d_7031_5626" x="58.2783" y="12.9082" width="169.093" height="42.8154" filterUnits="userSpaceOnUse" color-interpolation-filters="sRGB">
<feFlood flood-opacity="0" result="BackgroundImageFix"/>
<feColorMatrix in="SourceAlpha" type="matrix" values="0 0 0 0 0 0 0 0 0 0 0 0 0 0 0 0 0 0 127 0" result="hardAlpha"/>
<feOffset dy="4"/>
<feGaussianBlur stdDeviation="3"/>
<feComposite in2="hardAlpha" operator="out"/>
<feColorMatrix type="matrix" values="0 0 0 0 0 0 0 0 0 0 0 0 0 0 0 0 0 0 0.05 0"/>
<feBlend mode="normal" in2="BackgroundImageFix" result="effect1_dropShadow_7031_5626"/>
<feBlend mode="normal" in="SourceGraphic" in2="effect1_dropShadow_7031_5626" result="shape"/>
</filter>
</defs>
</svg>
