<svg width="349" height="95" viewBox="0 0 349 95" fill="none" xmlns="http://www.w3.org/2000/svg">
<g filter="url(#filter0_d_6952_5419)">
<path d="M16 14.8C16 10.3196 16 8.07937 16.8719 6.36808C17.6389 4.86278 18.8628 3.63893 20.3681 2.87195C22.0794 2 24.3196 2 28.8 2H218.2C222.68 2 224.921 2 226.632 2.87195C228.137 3.63893 229.361 4.86278 230.128 6.36808C231 8.07937 231 10.3196 231 14.8V72.2C231 76.6804 231 78.9206 230.128 80.6319C229.361 82.1372 228.137 83.3611 226.632 84.1281C224.921 85 222.68 85 218.2 85H28.8C24.3196 85 22.0794 85 20.3681 84.1281C18.8628 83.3611 17.6389 82.1372 16.8719 80.6319C16 78.9206 16 76.6804 16 72.2V14.8Z" fill="white"/>
<path d="M32.616 18.452H35.56C36.5733 18.452 37.4533 18.66 38.2 19.076C38.9467 19.4867 39.5253 20.068 39.936 20.82C40.3467 21.572 40.552 22.4573 40.552 23.476C40.552 24.484 40.3467 25.364 39.936 26.116C39.5253 26.868 38.9467 27.4547 38.2 27.876C37.4533 28.292 36.5733 28.5 35.56 28.5H32.616V18.452ZM33.864 19.556V27.412H35.56C36.3173 27.412 36.968 27.2413 37.512 26.9C38.0613 26.5587 38.4827 26.092 38.776 25.5C39.0747 24.9027 39.224 24.228 39.224 23.476C39.224 22.7187 39.0747 22.0467 38.776 21.46C38.4827 20.868 38.0613 20.404 37.512 20.068C36.968 19.7267 36.3173 19.556 35.56 19.556H33.864ZM46.1065 28.692C45.4185 28.692 44.8052 28.54 44.2665 28.236C43.7332 27.932 43.3118 27.4813 43.0025 26.884C42.6932 26.2867 42.5385 25.5507 42.5385 24.676C42.5385 23.796 42.6932 23.06 43.0025 22.468C43.3118 21.8707 43.7332 21.42 44.2665 21.116C44.8052 20.812 45.4185 20.66 46.1065 20.66C46.7892 20.66 47.3972 20.812 47.9305 21.116C48.4692 21.42 48.8905 21.8707 49.1945 22.468C49.5038 23.06 49.6585 23.796 49.6585 24.676C49.6585 25.5507 49.5038 26.2867 49.1945 26.884C48.8905 27.4813 48.4692 27.932 47.9305 28.236C47.3972 28.54 46.7892 28.692 46.1065 28.692ZM46.0745 27.604C46.5705 27.604 46.9918 27.4867 47.3385 27.252C47.6852 27.012 47.9465 26.6733 48.1225 26.236C48.3038 25.7987 48.3945 25.2787 48.3945 24.676C48.3945 23.764 48.2052 23.0467 47.8265 22.524C47.4478 21.996 46.8852 21.732 46.1385 21.732C45.6372 21.732 45.2132 21.852 44.8665 22.092C44.5252 22.3267 44.2638 22.6653 44.0825 23.108C43.9065 23.5453 43.8185 24.068 43.8185 24.676C43.8185 25.5773 44.0078 26.292 44.3865 26.82C44.7705 27.3427 45.3332 27.604 46.0745 27.604ZM54.9414 20.852H56.3334L58.8294 27.412H58.5414L60.4774 20.852H61.7574L58.8774 30.036C58.6374 30.804 58.3174 31.396 57.9174 31.812C57.5174 32.228 57.0054 32.436 56.3814 32.436C56.0454 32.436 55.7254 32.388 55.4214 32.292C55.1227 32.196 54.8134 32.0573 54.4934 31.876V30.724C54.776 30.948 55.048 31.108 55.3094 31.204C55.576 31.3 55.8534 31.348 56.1414 31.348C56.4614 31.348 56.728 31.2467 56.9414 31.044C57.16 30.8413 57.3414 30.58 57.4854 30.26C57.6294 29.9453 57.752 29.6147 57.8534 29.268L58.0774 28.5L54.9414 20.852ZM66.5865 28.692C65.8985 28.692 65.2852 28.54 64.7465 28.236C64.2132 27.932 63.7918 27.4813 63.4825 26.884C63.1732 26.2867 63.0185 25.5507 63.0185 24.676C63.0185 23.796 63.1732 23.06 63.4825 22.468C63.7918 21.8707 64.2132 21.42 64.7465 21.116C65.2852 20.812 65.8985 20.66 66.5865 20.66C67.2692 20.66 67.8772 20.812 68.4105 21.116C68.9492 21.42 69.3705 21.8707 69.6745 22.468C69.9838 23.06 70.1385 23.796 70.1385 24.676C70.1385 25.5507 69.9838 26.2867 69.6745 26.884C69.3705 27.4813 68.9492 27.932 68.4105 28.236C67.8772 28.54 67.2692 28.692 66.5865 28.692ZM66.5545 27.604C67.0505 27.604 67.4718 27.4867 67.8185 27.252C68.1652 27.012 68.4265 26.6733 68.6025 26.236C68.7838 25.7987 68.8745 25.2787 68.8745 24.676C68.8745 23.764 68.6852 23.0467 68.3065 22.524C67.9278 21.996 67.3652 21.732 66.6185 21.732C66.1172 21.732 65.6932 21.852 65.3465 22.092C65.0052 22.3267 64.7438 22.6653 64.5625 23.108C64.3865 23.5453 64.2985 24.068 64.2985 24.676C64.2985 25.5773 64.4878 26.292 64.8665 26.82C65.2505 27.3427 65.8132 27.604 66.5545 27.604ZM77.9285 20.836H79.1765V28.5H77.9285V20.836ZM72.5045 20.836H73.7525V25.604C73.7525 26.244 73.9072 26.7293 74.2165 27.06C74.5312 27.3907 74.9792 27.556 75.5605 27.556C76.0405 27.556 76.4565 27.428 76.8085 27.172C77.1658 26.916 77.4405 26.564 77.6325 26.116C77.8298 25.6627 77.9285 25.1453 77.9285 24.564H78.3925C78.3925 25.4227 78.2672 26.156 78.0165 26.764C77.7712 27.372 77.4218 27.8387 76.9685 28.164C76.5205 28.484 75.9925 28.644 75.3845 28.644C74.8085 28.644 74.3045 28.5373 73.8725 28.324C73.4405 28.1107 73.1045 27.788 72.8645 27.356C72.6245 26.9187 72.5045 26.3667 72.5045 25.7V20.836ZM85.2049 20.852H86.5009L88.4529 27.236H88.2929L90.1969 21.22H91.2369L93.1249 27.252H92.9809L94.9329 20.852H96.1809L93.6689 28.5H92.4529L90.5969 22.852H90.7889L88.9489 28.5H87.7329L85.2049 20.852ZM103.023 28.5L102.863 26.82V23.54C102.863 22.852 102.716 22.3587 102.423 22.06C102.129 21.756 101.689 21.604 101.103 21.604C100.772 21.604 100.471 21.652 100.199 21.748C99.932 21.844 99.7186 21.9933 99.5586 22.196C99.404 22.3933 99.3266 22.6493 99.3266 22.964H97.9346C97.9346 22.4093 98.0706 21.964 98.3426 21.628C98.6146 21.2867 98.988 21.0413 99.4626 20.892C99.9426 20.7373 100.489 20.66 101.103 20.66C101.689 20.66 102.209 20.7587 102.663 20.956C103.116 21.1533 103.471 21.468 103.727 21.9C103.983 22.3267 104.111 22.884 104.111 23.572V28.5H103.023ZM100.415 28.692C99.7853 28.692 99.2653 28.58 98.8546 28.356C98.444 28.132 98.1373 27.8413 97.9346 27.484C97.732 27.1267 97.6306 26.7507 97.6306 26.356C97.6306 25.8387 97.7586 25.4173 98.0146 25.092C98.276 24.7667 98.6306 24.5293 99.0786 24.38C99.5266 24.2253 100.031 24.148 100.591 24.148C100.991 24.148 101.391 24.188 101.791 24.268C102.196 24.348 102.591 24.4573 102.975 24.596V25.38C102.655 25.252 102.292 25.1507 101.887 25.076C101.487 25.0013 101.119 24.964 100.783 24.964C100.271 24.964 99.8386 25.0707 99.4866 25.284C99.1346 25.492 98.9586 25.8493 98.9586 26.356C98.9586 26.7293 99.092 27.0493 99.3586 27.316C99.6306 27.5827 100.063 27.716 100.655 27.716C101.071 27.716 101.444 27.62 101.775 27.428C102.111 27.2307 102.375 26.9853 102.567 26.692C102.764 26.3987 102.863 26.1053 102.863 25.812H103.167C103.167 26.324 103.055 26.7987 102.831 27.236C102.612 27.6733 102.297 28.0253 101.887 28.292C101.476 28.5587 100.985 28.692 100.415 28.692ZM112.699 28.5V24.004C112.699 23.2733 112.523 22.7187 112.171 22.34C111.824 21.956 111.35 21.764 110.747 21.764C110.288 21.764 109.891 21.8893 109.555 22.14C109.219 22.3907 108.96 22.7507 108.779 23.22C108.598 23.684 108.507 24.2387 108.507 24.884H108.027C108.027 23.9933 108.144 23.2333 108.379 22.604C108.614 21.9747 108.955 21.4947 109.403 21.164C109.856 20.828 110.406 20.66 111.051 20.66C111.654 20.66 112.168 20.796 112.595 21.068C113.027 21.3347 113.358 21.7187 113.587 22.22C113.816 22.7213 113.931 23.316 113.931 24.004V28.5H112.699ZM107.259 28.5V20.852H108.331L108.507 22.612V28.5H107.259ZM119.427 28.692C119.011 28.692 118.638 28.612 118.307 28.452C117.977 28.292 117.715 28.052 117.523 27.732C117.331 27.412 117.235 27.012 117.235 26.532V18.724H118.467V26.5C118.467 27.2893 118.835 27.684 119.571 27.684C119.79 27.684 120.001 27.66 120.203 27.612C120.411 27.564 120.643 27.492 120.899 27.396L121.075 28.292C120.803 28.4093 120.531 28.5053 120.259 28.58C119.993 28.6547 119.715 28.692 119.427 28.692ZM116.003 21.716V20.852H120.883V21.716H116.003ZM129.56 28.692C129.144 28.692 128.771 28.612 128.44 28.452C128.109 28.292 127.848 28.052 127.656 27.732C127.464 27.412 127.368 27.012 127.368 26.532V18.724H128.6V26.5C128.6 27.2893 128.968 27.684 129.704 27.684C129.923 27.684 130.133 27.66 130.336 27.612C130.544 27.564 130.776 27.492 131.032 27.396L131.208 28.292C130.936 28.4093 130.664 28.5053 130.392 28.58C130.125 28.6547 129.848 28.692 129.56 28.692ZM126.136 21.716V20.852H131.016V21.716H126.136ZM136.152 28.692C135.464 28.692 134.85 28.54 134.312 28.236C133.778 27.932 133.357 27.4813 133.048 26.884C132.738 26.2867 132.584 25.5507 132.584 24.676C132.584 23.796 132.738 23.06 133.048 22.468C133.357 21.8707 133.778 21.42 134.312 21.116C134.85 20.812 135.464 20.66 136.152 20.66C136.834 20.66 137.442 20.812 137.976 21.116C138.514 21.42 138.936 21.8707 139.24 22.468C139.549 23.06 139.704 23.796 139.704 24.676C139.704 25.5507 139.549 26.2867 139.24 26.884C138.936 27.4813 138.514 27.932 137.976 28.236C137.442 28.54 136.834 28.692 136.152 28.692ZM136.12 27.604C136.616 27.604 137.037 27.4867 137.384 27.252C137.73 27.012 137.992 26.6733 138.168 26.236C138.349 25.7987 138.44 25.2787 138.44 24.676C138.44 23.764 138.25 23.0467 137.872 22.524C137.493 21.996 136.93 21.732 136.184 21.732C135.682 21.732 135.258 21.852 134.912 22.092C134.57 22.3267 134.309 22.6653 134.128 23.108C133.952 23.5453 133.864 24.068 133.864 24.676C133.864 25.5773 134.053 26.292 134.432 26.82C134.816 27.3427 135.378 27.604 136.12 27.604ZM149.002 28.692C148.261 28.692 147.642 28.588 147.146 28.38C146.65 28.1667 146.274 27.876 146.018 27.508C145.762 27.1347 145.626 26.708 145.61 26.228H146.81C146.837 26.7133 147.032 27.0787 147.394 27.324C147.762 27.564 148.261 27.684 148.89 27.684C149.221 27.684 149.525 27.6307 149.802 27.524C150.08 27.4173 150.301 27.2707 150.466 27.084C150.632 26.8973 150.714 26.6867 150.714 26.452C150.714 26.1533 150.605 25.9187 150.386 25.748C150.168 25.5773 149.818 25.428 149.338 25.3L147.85 24.82C147.205 24.6173 146.709 24.34 146.362 23.988C146.021 23.6307 145.85 23.204 145.85 22.708C145.85 22.0893 146.122 21.5933 146.666 21.22C147.21 20.8467 147.925 20.66 148.81 20.66C149.749 20.66 150.477 20.852 150.994 21.236C151.512 21.62 151.781 22.1 151.802 22.676H150.57C150.522 22.34 150.352 22.0867 150.058 21.916C149.765 21.74 149.349 21.652 148.81 21.652C148.293 21.652 147.888 21.7693 147.594 22.004C147.306 22.2333 147.162 22.4893 147.162 22.772C147.162 23.3 147.616 23.6893 148.522 23.94L150.042 24.452C150.698 24.6493 151.2 24.908 151.546 25.228C151.898 25.548 152.074 25.956 152.074 26.452C152.074 26.836 151.949 27.1987 151.698 27.54C151.448 27.8813 151.093 28.1587 150.634 28.372C150.176 28.5853 149.632 28.692 149.002 28.692ZM159.553 28.5L159.393 26.82V23.54C159.393 22.852 159.246 22.3587 158.953 22.06C158.659 21.756 158.219 21.604 157.633 21.604C157.302 21.604 157.001 21.652 156.729 21.748C156.462 21.844 156.249 21.9933 156.089 22.196C155.934 22.3933 155.857 22.6493 155.857 22.964H154.465C154.465 22.4093 154.601 21.964 154.873 21.628C155.145 21.2867 155.518 21.0413 155.993 20.892C156.473 20.7373 157.019 20.66 157.633 20.66C158.219 20.66 158.739 20.7587 159.193 20.956C159.646 21.1533 160.001 21.468 160.257 21.9C160.513 22.3267 160.641 22.884 160.641 23.572V28.5H159.553ZM156.945 28.692C156.315 28.692 155.795 28.58 155.385 28.356C154.974 28.132 154.667 27.8413 154.465 27.484C154.262 27.1267 154.161 26.7507 154.161 26.356C154.161 25.8387 154.289 25.4173 154.545 25.092C154.806 24.7667 155.161 24.5293 155.609 24.38C156.057 24.2253 156.561 24.148 157.121 24.148C157.521 24.148 157.921 24.188 158.321 24.268C158.726 24.348 159.121 24.4573 159.505 24.596V25.38C159.185 25.252 158.822 25.1507 158.417 25.076C158.017 25.0013 157.649 24.964 157.313 24.964C156.801 24.964 156.369 25.0707 156.017 25.284C155.665 25.492 155.489 25.8493 155.489 26.356C155.489 26.7293 155.622 27.0493 155.889 27.316C156.161 27.5827 156.593 27.716 157.185 27.716C157.601 27.716 157.974 27.62 158.305 27.428C158.641 27.2307 158.905 26.9853 159.097 26.692C159.294 26.3987 159.393 26.1053 159.393 25.812H159.697C159.697 26.324 159.585 26.7987 159.361 27.236C159.142 27.6733 158.827 28.0253 158.417 28.292C158.006 28.5587 157.515 28.692 156.945 28.692ZM162.461 20.852H163.885L166.285 27.428H166.109L168.509 20.852H169.933L166.877 28.5H165.517L162.461 20.852ZM174.652 28.692C173.991 28.692 173.399 28.524 172.876 28.188C172.359 27.8467 171.948 27.3747 171.644 26.772C171.345 26.1693 171.196 25.476 171.196 24.692C171.196 23.8547 171.345 23.1347 171.644 22.532C171.943 21.9293 172.351 21.468 172.868 21.148C173.391 20.8227 173.985 20.66 174.652 20.66C175.233 20.66 175.729 20.7773 176.14 21.012C176.551 21.2467 176.881 21.564 177.132 21.964C177.383 22.364 177.556 22.8173 177.652 23.324C177.753 23.8253 177.783 24.3453 177.74 24.884H172.204V24.116H176.916L176.548 24.356C176.564 24.0413 176.545 23.7267 176.492 23.412C176.444 23.0973 176.351 22.8093 176.212 22.548C176.073 22.2813 175.879 22.068 175.628 21.908C175.377 21.748 175.057 21.668 174.668 21.668C174.177 21.668 173.767 21.7933 173.436 22.044C173.105 22.2947 172.857 22.6253 172.692 23.036C172.527 23.4413 172.444 23.8813 172.444 24.356V24.868C172.444 25.4013 172.524 25.8787 172.684 26.3C172.849 26.7213 173.095 27.0547 173.42 27.3C173.745 27.5453 174.156 27.668 174.652 27.668C175.148 27.668 175.556 27.548 175.876 27.308C176.196 27.068 176.391 26.7133 176.46 26.244H177.756C177.676 26.7507 177.495 27.188 177.212 27.556C176.929 27.9187 176.569 28.1987 176.132 28.396C175.695 28.5933 175.201 28.692 174.652 28.692ZM32.488 38.116H34.376V42.452H38.904V38.116H40.792V48.5H38.904V44.1H34.376V48.5H32.488V38.116ZM42.7932 48.5L46.3293 38.116H48.6973L52.0893 48.5H50.1053L49.3853 46.26H45.5292L44.7932 48.5H42.7932ZM46.0092 44.836H48.9373L47.4813 40.372L46.0092 44.836ZM53.7849 48.5V46.868L59.8169 39.172V39.86L53.7849 39.844V38.116H61.6409V39.732L55.9769 46.996L55.9289 46.756L61.6409 46.772V48.5H53.7849ZM64.3114 48.5V38.116H70.9834V39.748H66.1994V42.484H70.6954V44.116H66.1994V46.852H70.9834V48.5H64.3114ZM75.766 38.116V46.852H80.038V48.5H73.878V38.116H75.766ZM81.9122 38.116H83.9762L88.6962 45.524H88.5522V38.116H90.4402V48.5H88.5202L83.4962 40.644H83.8002V48.5H81.9122V38.116ZM93.413 38.116H95.301V44.58C95.301 45.4333 95.517 46.0493 95.949 46.428C96.3863 46.8067 96.9437 46.996 97.621 46.996C98.3037 46.996 98.861 46.8067 99.293 46.428C99.725 46.0493 99.941 45.4333 99.941 44.58V38.116H101.829V44.58C101.829 45.4547 101.661 46.2013 101.325 46.82C100.989 47.4387 100.506 47.9107 99.877 48.236C99.253 48.5613 98.501 48.724 97.621 48.724C96.741 48.724 95.9863 48.5613 95.357 48.236C94.733 47.9107 94.253 47.4387 93.917 46.82C93.581 46.2013 93.413 45.4547 93.413 44.58V38.116ZM103.388 39.748V38.116H111.708V39.748H108.068L108.492 39.316V48.5H106.604V39.316L107.028 39.748H103.388ZM121.423 48.724C120.511 48.724 119.716 48.508 119.039 48.076C118.367 47.6387 117.844 47.0147 117.471 46.204C117.097 45.3933 116.911 44.42 116.911 43.284C116.911 42.1107 117.103 41.1267 117.487 40.332C117.876 39.532 118.409 38.9293 119.087 38.524C119.769 38.1133 120.548 37.908 121.423 37.908C122.633 37.908 123.577 38.2013 124.255 38.788C124.937 39.3747 125.375 40.1373 125.567 41.076L123.551 41.444C123.385 40.9 123.121 40.46 122.759 40.124C122.396 39.788 121.951 39.62 121.423 39.62C120.959 39.62 120.54 39.756 120.167 40.028C119.793 40.2947 119.495 40.7 119.271 41.244C119.052 41.788 118.943 42.468 118.943 43.284C118.943 44.052 119.039 44.7133 119.231 45.268C119.428 45.8227 119.711 46.2493 120.079 46.548C120.447 46.8467 120.895 46.996 121.423 46.996C122.1 46.996 122.623 46.8173 122.991 46.46C123.364 46.0973 123.551 45.636 123.551 45.076H125.567C125.567 45.8493 125.399 46.508 125.063 47.052C124.732 47.5907 124.257 48.004 123.639 48.292C123.02 48.58 122.281 48.724 121.423 48.724ZM126.811 48.5L130.347 38.116H132.715L136.107 48.5H134.123L133.403 46.26H129.547L128.811 48.5H126.811ZM130.027 44.836H132.955L131.499 40.372L130.027 44.836ZM144.123 38.116H146.715L139.867 45.124V42.548L144.123 38.116ZM141.819 42.404L147.003 48.5H144.571L140.507 43.636L141.819 42.404ZM138.123 38.116H140.027V48.5H138.123V38.116ZM148.736 48.5V38.116H155.408V39.748H150.624V42.484H155.12V44.116H150.624V46.852H155.408V48.5H148.736ZM162.509 48.5V38.116H166.349C167.592 38.116 168.544 38.4067 169.205 38.988C169.872 39.5693 170.205 40.34 170.205 41.3C170.205 42.244 169.872 43.0067 169.205 43.588C168.544 44.164 167.592 44.452 166.349 44.452H164.397V48.5H162.509ZM168.125 48.5L165.373 43.636H167.389L170.589 48.5H168.125ZM164.397 43.188H166.157C166.851 43.188 167.376 43.0307 167.733 42.716C168.091 42.396 168.269 41.9827 168.269 41.476C168.269 40.9587 168.107 40.5427 167.781 40.228C167.456 39.908 166.979 39.748 166.349 39.748H164.397V43.188ZM172.95 48.5V38.116H179.622V39.748H174.838V42.484H179.334V44.116H174.838V46.852H179.622V48.5H172.95ZM186.293 48.724C185.381 48.724 184.586 48.508 183.909 48.076C183.237 47.6387 182.714 47.0147 182.341 46.204C181.967 45.3933 181.781 44.42 181.781 43.284C181.781 42.1107 181.973 41.1267 182.357 40.332C182.746 39.532 183.279 38.9293 183.957 38.524C184.639 38.1133 185.418 37.908 186.293 37.908C187.503 37.908 188.447 38.2013 189.125 38.788C189.807 39.3747 190.245 40.1373 190.437 41.076L188.421 41.444C188.255 40.9 187.991 40.46 187.629 40.124C187.266 39.788 186.821 39.62 186.293 39.62C185.829 39.62 185.41 39.756 185.037 40.028C184.663 40.2947 184.365 40.7 184.141 41.244C183.922 41.788 183.813 42.468 183.813 43.284C183.813 44.052 183.909 44.7133 184.101 45.268C184.298 45.8227 184.581 46.2493 184.949 46.548C185.317 46.8467 185.765 46.996 186.293 46.996C186.97 46.996 187.493 46.8173 187.861 46.46C188.234 46.0973 188.421 45.636 188.421 45.076H190.437C190.437 45.8493 190.269 46.508 189.933 47.052C189.602 47.5907 189.127 48.004 188.509 48.292C187.89 48.58 187.151 48.724 186.293 48.724ZM192.817 48.5V38.116H194.705V48.5H192.817ZM197.804 48.5V38.116H201.468C202.636 38.116 203.546 38.404 204.196 38.98C204.852 39.556 205.18 40.372 205.18 41.428C205.18 42.4733 204.852 43.284 204.196 43.86C203.546 44.436 202.636 44.724 201.468 44.724H199.708V48.5H197.804ZM199.708 43.076H201.468C202.055 43.076 202.498 42.9213 202.796 42.612C203.095 42.3027 203.244 41.908 203.244 41.428C203.244 40.9373 203.095 40.5347 202.796 40.22C202.498 39.9053 202.055 39.748 201.468 39.748H199.708V43.076ZM207.278 48.5V38.116H213.95V39.748H209.166V42.484H213.662V44.116H209.166V46.852H213.95V48.5H207.278ZM36.088 68.692C35.528 68.692 35.04 68.564 34.624 68.308C34.2133 68.052 33.896 67.6787 33.672 67.188C33.448 66.692 33.336 66.0893 33.336 65.38H33.864C33.864 65.8547 33.9627 66.2547 34.16 66.58C34.3573 66.9053 34.6133 67.1533 34.928 67.324C35.248 67.4893 35.5867 67.572 35.944 67.572C36.328 67.572 36.696 67.4627 37.048 67.244C37.4 67.02 37.688 66.692 37.912 66.26C38.136 65.828 38.248 65.2947 38.248 64.66C38.248 64.052 38.144 63.532 37.936 63.1C37.7333 62.668 37.4587 62.3373 37.112 62.108C36.7653 61.8787 36.3813 61.764 35.96 61.764C35.5973 61.764 35.256 61.852 34.936 62.028C34.616 62.204 34.3573 62.4627 34.16 62.804C33.9627 63.14 33.864 63.556 33.864 64.052H33.336C33.336 63.3107 33.4587 62.6893 33.704 62.188C33.9493 61.6813 34.2827 61.3 34.704 61.044C35.1253 60.788 35.5973 60.66 36.12 60.66C36.7173 60.66 37.2747 60.82 37.792 61.14C38.3093 61.46 38.728 61.9187 39.048 62.516C39.368 63.1133 39.528 63.828 39.528 64.66C39.528 65.5027 39.3653 66.2253 39.04 66.828C38.72 67.4307 38.2987 67.892 37.776 68.212C37.2533 68.532 36.6907 68.692 36.088 68.692ZM32.616 72.26V60.852H33.656L33.864 62.644V72.26H32.616ZM46.8714 68.5L46.7114 66.82V63.54C46.7114 62.852 46.5647 62.3587 46.2714 62.06C45.978 61.756 45.538 61.604 44.9514 61.604C44.6207 61.604 44.3194 61.652 44.0474 61.748C43.7807 61.844 43.5674 61.9933 43.4074 62.196C43.2527 62.3933 43.1754 62.6493 43.1754 62.964H41.7834C41.7834 62.4093 41.9194 61.964 42.1914 61.628C42.4634 61.2867 42.8367 61.0413 43.3114 60.892C43.7914 60.7373 44.338 60.66 44.9514 60.66C45.538 60.66 46.058 60.7587 46.5114 60.956C46.9647 61.1533 47.3194 61.468 47.5754 61.9C47.8314 62.3267 47.9594 62.884 47.9594 63.572V68.5H46.8714ZM44.2634 68.692C43.634 68.692 43.114 68.58 42.7034 68.356C42.2927 68.132 41.986 67.8413 41.7834 67.484C41.5807 67.1267 41.4794 66.7507 41.4794 66.356C41.4794 65.8387 41.6074 65.4173 41.8634 65.092C42.1247 64.7667 42.4794 64.5293 42.9274 64.38C43.3754 64.2253 43.8794 64.148 44.4394 64.148C44.8394 64.148 45.2394 64.188 45.6394 64.268C46.0447 64.348 46.4394 64.4573 46.8234 64.596V65.38C46.5034 65.252 46.1407 65.1507 45.7354 65.076C45.3354 65.0013 44.9674 64.964 44.6314 64.964C44.1194 64.964 43.6874 65.0707 43.3354 65.284C42.9834 65.492 42.8074 65.8493 42.8074 66.356C42.8074 66.7293 42.9407 67.0493 43.2074 67.316C43.4794 67.5827 43.9114 67.716 44.5034 67.716C44.9194 67.716 45.2927 67.62 45.6234 67.428C45.9594 67.2307 46.2234 66.9853 46.4154 66.692C46.6127 66.3987 46.7114 66.1053 46.7114 65.812H47.0154C47.0154 66.324 46.9034 66.7987 46.6794 67.236C46.4607 67.6733 46.146 68.0253 45.7354 68.292C45.3247 68.5587 44.834 68.692 44.2634 68.692ZM53.8119 72.436C53.0279 72.436 52.3479 72.324 51.7719 72.1C51.1959 71.8813 50.7479 71.5853 50.4279 71.212C50.1132 70.844 49.9559 70.436 49.9559 69.988C49.9559 69.396 50.1719 68.9427 50.6039 68.628C51.0412 68.3187 51.6039 68.164 52.2919 68.164L52.9799 68.596C52.4039 68.596 51.9585 68.716 51.6439 68.956C51.3292 69.196 51.1719 69.524 51.1719 69.94C51.1719 70.356 51.3959 70.708 51.8439 70.996C52.2919 71.284 52.9479 71.428 53.8119 71.428C54.4519 71.428 55.0119 71.3347 55.4919 71.148C55.9772 70.9667 56.3532 70.7267 56.6199 70.428C56.8919 70.1347 57.0279 69.8173 57.0279 69.476C57.0279 69.236 56.9399 69.028 56.7639 68.852C56.5879 68.6813 56.3185 68.596 55.9559 68.596H52.9799C52.4625 68.596 52.0145 68.5187 51.6359 68.364C51.2625 68.204 50.9745 67.996 50.7719 67.74C50.5692 67.484 50.4679 67.204 50.4679 66.9C50.4679 66.58 50.5585 66.308 50.7399 66.084C50.9212 65.86 51.1559 65.6893 51.4439 65.572C51.7372 65.4547 52.0519 65.396 52.3879 65.396L52.6279 65.86C52.4679 65.86 52.3052 65.8973 52.1399 65.972C51.9799 66.0413 51.8439 66.148 51.7319 66.292C51.6252 66.4307 51.5719 66.6067 51.5719 66.82C51.5719 67.0653 51.6732 67.2707 51.8759 67.436C52.0785 67.6013 52.4465 67.684 52.9799 67.684H55.9559C56.6759 67.684 57.2412 67.836 57.6519 68.14C58.0679 68.444 58.2759 68.868 58.2759 69.412C58.2759 69.9133 58.0972 70.3933 57.7399 70.852C57.3825 71.316 56.8705 71.6947 56.2039 71.988C55.5372 72.2867 54.7399 72.436 53.8119 72.436ZM54.0359 66.26C53.4492 66.26 52.9185 66.1427 52.4439 65.908C51.9745 65.6733 51.6012 65.3453 51.3239 64.924C51.0519 64.5027 50.9159 64.0147 50.9159 63.46C50.9159 62.9 51.0519 62.4093 51.3239 61.988C51.6012 61.5667 51.9745 61.2413 52.4439 61.012C52.9185 60.7773 53.4492 60.66 54.0359 60.66C54.6065 60.66 55.1239 60.7773 55.5879 61.012C56.0572 61.2413 56.4305 61.5667 56.7079 61.988C56.9852 62.4093 57.1239 62.9 57.1239 63.46C57.1239 64.0147 56.9852 64.5027 56.7079 64.924C56.4305 65.3453 56.0572 65.6733 55.5879 65.908C55.1239 66.1427 54.6065 66.26 54.0359 66.26ZM54.0359 65.364C54.6225 65.364 55.0785 65.1827 55.4039 64.82C55.7292 64.4573 55.8919 64.004 55.8919 63.46C55.8919 62.9 55.7292 62.4467 55.4039 62.1C55.0785 61.748 54.6225 61.572 54.0359 61.572C53.4545 61.572 52.9959 61.748 52.6599 62.1C52.3292 62.4467 52.1639 62.9 52.1639 63.46C52.1639 64.004 52.3292 64.4573 52.6599 64.82C52.9959 65.1827 53.4545 65.364 54.0359 65.364ZM56.5479 61.876L55.9559 61.636C55.9559 61.188 56.0439 60.796 56.2199 60.46C56.3959 60.1187 56.6465 59.8547 56.9719 59.668C57.2972 59.476 57.6839 59.38 58.1319 59.38L58.0359 60.612C57.5559 60.612 57.1879 60.716 56.9319 60.924C56.6759 61.1267 56.5479 61.444 56.5479 61.876ZM62.9551 68.692C62.2938 68.692 61.7018 68.524 61.1791 68.188C60.6618 67.8467 60.2511 67.3747 59.9471 66.772C59.6485 66.1693 59.4991 65.476 59.4991 64.692C59.4991 63.8547 59.6485 63.1347 59.9471 62.532C60.2458 61.9293 60.6538 61.468 61.1711 61.148C61.6938 60.8227 62.2885 60.66 62.9551 60.66C63.5365 60.66 64.0325 60.7773 64.4431 61.012C64.8538 61.2467 65.1845 61.564 65.4351 61.964C65.6858 62.364 65.8591 62.8173 65.9551 63.324C66.0565 63.8253 66.0858 64.3453 66.0431 64.884H60.5071V64.116H65.2191L64.8511 64.356C64.8671 64.0413 64.8485 63.7267 64.7951 63.412C64.7471 63.0973 64.6538 62.8093 64.5151 62.548C64.3765 62.2813 64.1818 62.068 63.9311 61.908C63.6805 61.748 63.3605 61.668 62.9711 61.668C62.4805 61.668 62.0698 61.7933 61.7391 62.044C61.4085 62.2947 61.1605 62.6253 60.9951 63.036C60.8298 63.4413 60.7471 63.8813 60.7471 64.356V64.868C60.7471 65.4013 60.8271 65.8787 60.9871 66.3C61.1525 66.7213 61.3978 67.0547 61.7231 67.3C62.0485 67.5453 62.4591 67.668 62.9551 67.668C63.4511 67.668 63.8591 67.548 64.1791 67.308C64.4991 67.068 64.6938 66.7133 64.7631 66.244H66.0591C65.9791 66.7507 65.7978 67.188 65.5151 67.556C65.2325 67.9187 64.8725 68.1987 64.4351 68.396C63.9978 68.5933 63.5045 68.692 62.9551 68.692ZM77.3707 68.5L77.2107 66.82V63.54C77.2107 62.852 77.0641 62.3587 76.7707 62.06C76.4774 61.756 76.0374 61.604 75.4507 61.604C75.1201 61.604 74.8187 61.652 74.5467 61.748C74.2801 61.844 74.0667 61.9933 73.9067 62.196C73.7521 62.3933 73.6747 62.6493 73.6747 62.964H72.2827C72.2827 62.4093 72.4187 61.964 72.6907 61.628C72.9627 61.2867 73.3361 61.0413 73.8107 60.892C74.2907 60.7373 74.8374 60.66 75.4507 60.66C76.0374 60.66 76.5574 60.7587 77.0107 60.956C77.4641 61.1533 77.8187 61.468 78.0747 61.9C78.3307 62.3267 78.4587 62.884 78.4587 63.572V68.5H77.3707ZM74.7627 68.692C74.1334 68.692 73.6134 68.58 73.2027 68.356C72.7921 68.132 72.4854 67.8413 72.2827 67.484C72.0801 67.1267 71.9787 66.7507 71.9787 66.356C71.9787 65.8387 72.1067 65.4173 72.3627 65.092C72.6241 64.7667 72.9787 64.5293 73.4267 64.38C73.8747 64.2253 74.3787 64.148 74.9387 64.148C75.3387 64.148 75.7387 64.188 76.1387 64.268C76.5441 64.348 76.9387 64.4573 77.3227 64.596V65.38C77.0027 65.252 76.6401 65.1507 76.2347 65.076C75.8347 65.0013 75.4667 64.964 75.1307 64.964C74.6187 64.964 74.1867 65.0707 73.8347 65.284C73.4827 65.492 73.3067 65.8493 73.3067 66.356C73.3067 66.7293 73.4401 67.0493 73.7067 67.316C73.9787 67.5827 74.4107 67.716 75.0027 67.716C75.4187 67.716 75.7921 67.62 76.1227 67.428C76.4587 67.2307 76.7227 66.9853 76.9147 66.692C77.1121 66.3987 77.2107 66.1053 77.2107 65.812H77.5147C77.5147 66.324 77.4027 66.7987 77.1787 67.236C76.9601 67.6733 76.6454 68.0253 76.2347 68.292C75.8241 68.5587 75.3334 68.692 74.7627 68.692ZM84.3592 68.692C83.6179 68.692 82.9992 68.588 82.5032 68.38C82.0072 68.1667 81.6312 67.876 81.3752 67.508C81.1192 67.1347 80.9832 66.708 80.9672 66.228H82.1672C82.1939 66.7133 82.3886 67.0787 82.7512 67.324C83.1192 67.564 83.6179 67.684 84.2472 67.684C84.5779 67.684 84.8819 67.6307 85.1592 67.524C85.4366 67.4173 85.6579 67.2707 85.8232 67.084C85.9886 66.8973 86.0712 66.6867 86.0712 66.452C86.0712 66.1533 85.9619 65.9187 85.7432 65.748C85.5246 65.5773 85.1752 65.428 84.6952 65.3L83.2072 64.82C82.5619 64.6173 82.0659 64.34 81.7192 63.988C81.3779 63.6307 81.2072 63.204 81.2072 62.708C81.2072 62.0893 81.4792 61.5933 82.0232 61.22C82.5672 60.8467 83.2819 60.66 84.1672 60.66C85.1059 60.66 85.8339 60.852 86.3512 61.236C86.8686 61.62 87.1379 62.1 87.1592 62.676H85.9272C85.8792 62.34 85.7086 62.0867 85.4152 61.916C85.1219 61.74 84.7059 61.652 84.1672 61.652C83.6499 61.652 83.2446 61.7693 82.9512 62.004C82.6632 62.2333 82.5192 62.4893 82.5192 62.772C82.5192 63.3 82.9726 63.6893 83.8792 63.94L85.3992 64.452C86.0552 64.6493 86.5566 64.908 86.9032 65.228C87.2552 65.548 87.4312 65.956 87.4312 66.452C87.4312 66.836 87.3059 67.1987 87.0552 67.54C86.8046 67.8813 86.4499 68.1587 85.9912 68.372C85.5326 68.5853 84.9886 68.692 84.3592 68.692ZM98.8664 68.5L98.7064 66.82V63.54C98.7064 62.852 98.5597 62.3587 98.2664 62.06C97.973 61.756 97.533 61.604 96.9464 61.604C96.6157 61.604 96.3144 61.652 96.0424 61.748C95.7757 61.844 95.5624 61.9933 95.4024 62.196C95.2477 62.3933 95.1704 62.6493 95.1704 62.964H93.7784C93.7784 62.4093 93.9144 61.964 94.1864 61.628C94.4584 61.2867 94.8317 61.0413 95.3064 60.892C95.7864 60.7373 96.333 60.66 96.9464 60.66C97.533 60.66 98.053 60.7587 98.5064 60.956C98.9597 61.1533 99.3144 61.468 99.5704 61.9C99.8264 62.3267 99.9544 62.884 99.9544 63.572V68.5H98.8664ZM96.2584 68.692C95.629 68.692 95.109 68.58 94.6984 68.356C94.2877 68.132 93.981 67.8413 93.7784 67.484C93.5757 67.1267 93.4744 66.7507 93.4744 66.356C93.4744 65.8387 93.6024 65.4173 93.8584 65.092C94.1197 64.7667 94.4744 64.5293 94.9224 64.38C95.3704 64.2253 95.8744 64.148 96.4344 64.148C96.8344 64.148 97.2344 64.188 97.6344 64.268C98.0397 64.348 98.4344 64.4573 98.8184 64.596V65.38C98.4984 65.252 98.1357 65.1507 97.7304 65.076C97.3304 65.0013 96.9624 64.964 96.6264 64.964C96.1144 64.964 95.6824 65.0707 95.3304 65.284C94.9784 65.492 94.8024 65.8493 94.8024 66.356C94.8024 66.7293 94.9357 67.0493 95.2024 67.316C95.4744 67.5827 95.9064 67.716 96.4984 67.716C96.9144 67.716 97.2877 67.62 97.6184 67.428C97.9544 67.2307 98.2184 66.9853 98.4104 66.692C98.6077 66.3987 98.7064 66.1053 98.7064 65.812H99.0104C99.0104 66.324 98.8984 66.7987 98.6744 67.236C98.4557 67.6733 98.141 68.0253 97.7304 68.292C97.3197 68.5587 96.829 68.692 96.2584 68.692ZM110.564 68.692C110.052 68.692 109.588 68.5587 109.172 68.292C108.761 68.0253 108.433 67.636 108.188 67.124C107.948 66.6067 107.828 65.9773 107.828 65.236H108.308C108.308 65.732 108.409 66.156 108.612 66.508C108.82 66.8547 109.086 67.1187 109.412 67.3C109.737 67.4813 110.078 67.572 110.436 67.572C110.846 67.572 111.222 67.4547 111.564 67.22C111.905 66.9853 112.177 66.6493 112.38 66.212C112.588 65.7747 112.692 65.252 112.692 64.644C112.692 64.0467 112.59 63.5347 112.388 63.108C112.185 62.676 111.91 62.3453 111.564 62.116C111.222 61.8813 110.841 61.764 110.42 61.764C110.057 61.764 109.713 61.8547 109.388 62.036C109.068 62.212 108.806 62.4733 108.604 62.82C108.406 63.1667 108.308 63.5933 108.308 64.1H107.828C107.828 63.3747 107.945 62.756 108.18 62.244C108.42 61.732 108.75 61.34 109.172 61.068C109.593 60.796 110.084 60.66 110.644 60.66C111.246 60.66 111.798 60.8227 112.3 61.148C112.806 61.468 113.212 61.9267 113.516 62.524C113.82 63.1213 113.972 63.828 113.972 64.644C113.972 65.4653 113.817 66.18 113.508 66.788C113.198 67.3907 112.785 67.86 112.268 68.196C111.75 68.5267 111.182 68.692 110.564 68.692ZM107.06 68.5V57.588H108.308V66.708L107.94 68.5H107.06ZM119.472 68.692C118.784 68.692 118.171 68.54 117.632 68.236C117.099 67.932 116.677 67.4813 116.368 66.884C116.059 66.2867 115.904 65.5507 115.904 64.676C115.904 63.796 116.059 63.06 116.368 62.468C116.677 61.8707 117.099 61.42 117.632 61.116C118.171 60.812 118.784 60.66 119.472 60.66C120.155 60.66 120.763 60.812 121.296 61.116C121.835 61.42 122.256 61.8707 122.56 62.468C122.869 63.06 123.024 63.796 123.024 64.676C123.024 65.5507 122.869 66.2867 122.56 66.884C122.256 67.4813 121.835 67.932 121.296 68.236C120.763 68.54 120.155 68.692 119.472 68.692ZM119.44 67.604C119.936 67.604 120.357 67.4867 120.704 67.252C121.051 67.012 121.312 66.6733 121.488 66.236C121.669 65.7987 121.76 65.2787 121.76 64.676C121.76 63.764 121.571 63.0467 121.192 62.524C120.813 61.996 120.251 61.732 119.504 61.732C119.003 61.732 118.579 61.852 118.232 62.092C117.891 62.3267 117.629 62.6653 117.448 63.108C117.272 63.5453 117.184 64.068 117.184 64.676C117.184 65.5773 117.373 66.292 117.752 66.82C118.136 67.3427 118.699 67.604 119.44 67.604ZM128.382 68.692C127.694 68.692 127.081 68.54 126.542 68.236C126.009 67.932 125.587 67.4813 125.278 66.884C124.969 66.2867 124.814 65.5507 124.814 64.676C124.814 63.796 124.969 63.06 125.278 62.468C125.587 61.8707 126.009 61.42 126.542 61.116C127.081 60.812 127.694 60.66 128.382 60.66C129.065 60.66 129.673 60.812 130.206 61.116C130.745 61.42 131.166 61.8707 131.47 62.468C131.779 63.06 131.934 63.796 131.934 64.676C131.934 65.5507 131.779 66.2867 131.47 66.884C131.166 67.4813 130.745 67.932 130.206 68.236C129.673 68.54 129.065 68.692 128.382 68.692ZM128.35 67.604C128.846 67.604 129.267 67.4867 129.614 67.252C129.961 67.012 130.222 66.6733 130.398 66.236C130.579 65.7987 130.67 65.2787 130.67 64.676C130.67 63.764 130.481 63.0467 130.102 62.524C129.723 61.996 129.161 61.732 128.414 61.732C127.913 61.732 127.489 61.852 127.142 62.092C126.801 62.3267 126.539 62.6653 126.358 63.108C126.182 63.5453 126.094 64.068 126.094 64.676C126.094 65.5773 126.283 66.292 126.662 66.82C127.046 67.3427 127.609 67.604 128.35 67.604ZM134.524 68.5V57.588H135.772V68.5H134.524ZM135.58 64.116L139.484 60.852H141.228L135.58 65.444V64.116ZM139.868 68.5L136.236 63.668L137.5 63.444L141.404 68.5H139.868ZM154.452 68.5V64.004C154.452 63.2733 154.276 62.7187 153.924 62.34C153.577 61.956 153.108 61.764 152.516 61.764C151.822 61.764 151.292 62.0333 150.924 62.572C150.556 63.1053 150.372 63.844 150.372 64.788H149.796C149.796 64.1 149.862 63.4973 149.996 62.98C150.134 62.4627 150.334 62.0333 150.596 61.692C150.857 61.3453 151.174 61.0867 151.548 60.916C151.921 60.7453 152.345 60.66 152.82 60.66C153.422 60.66 153.937 60.796 154.364 61.068C154.796 61.3347 155.126 61.7187 155.356 62.22C155.585 62.7213 155.7 63.316 155.7 64.004V68.5H154.452ZM143.7 68.5V60.852H144.772L144.916 62.388C145.156 61.8333 145.492 61.4067 145.924 61.108C146.361 60.8093 146.884 60.66 147.492 60.66C148.094 60.66 148.609 60.796 149.036 61.068C149.468 61.3347 149.798 61.7187 150.028 62.22C150.257 62.7213 150.372 63.316 150.372 64.004V68.5H149.14V64.004C149.14 63.2733 148.964 62.7187 148.612 62.34C148.265 61.956 147.79 61.764 147.188 61.764C146.729 61.764 146.332 61.8893 145.996 62.14C145.66 62.3907 145.401 62.7507 145.22 63.22C145.038 63.684 144.948 64.2387 144.948 64.884V68.5H143.7ZM163.565 68.5L163.405 66.82V63.54C163.405 62.852 163.258 62.3587 162.965 62.06C162.671 61.756 162.231 61.604 161.645 61.604C161.314 61.604 161.013 61.652 160.741 61.748C160.474 61.844 160.261 61.9933 160.101 62.196C159.946 62.3933 159.869 62.6493 159.869 62.964H158.477C158.477 62.4093 158.613 61.964 158.885 61.628C159.157 61.2867 159.53 61.0413 160.005 60.892C160.485 60.7373 161.031 60.66 161.645 60.66C162.231 60.66 162.751 60.7587 163.205 60.956C163.658 61.1533 164.013 61.468 164.269 61.9C164.525 62.3267 164.653 62.884 164.653 63.572V68.5H163.565ZM160.957 68.692C160.327 68.692 159.807 68.58 159.397 68.356C158.986 68.132 158.679 67.8413 158.477 67.484C158.274 67.1267 158.173 66.7507 158.173 66.356C158.173 65.8387 158.301 65.4173 158.557 65.092C158.818 64.7667 159.173 64.5293 159.621 64.38C160.069 64.2253 160.573 64.148 161.133 64.148C161.533 64.148 161.933 64.188 162.333 64.268C162.738 64.348 163.133 64.4573 163.517 64.596V65.38C163.197 65.252 162.834 65.1507 162.429 65.076C162.029 65.0013 161.661 64.964 161.325 64.964C160.813 64.964 160.381 65.0707 160.029 65.284C159.677 65.492 159.501 65.8493 159.501 66.356C159.501 66.7293 159.634 67.0493 159.901 67.316C160.173 67.5827 160.605 67.716 161.197 67.716C161.613 67.716 161.986 67.62 162.317 67.428C162.653 67.2307 162.917 66.9853 163.109 66.692C163.306 66.3987 163.405 66.1053 163.405 65.812H163.709C163.709 66.324 163.597 66.7987 163.373 67.236C163.154 67.6733 162.839 68.0253 162.429 68.292C162.018 68.5587 161.527 68.692 160.957 68.692ZM167.801 68.5V60.836H169.049V68.5H167.801ZM168.665 65.044C168.665 64.0733 168.758 63.268 168.945 62.628C169.132 61.9827 169.404 61.5027 169.761 61.188C170.124 60.868 170.564 60.708 171.081 60.708C171.252 60.708 171.406 60.7213 171.545 60.748C171.689 60.7693 171.833 60.804 171.977 60.852L171.897 62.084C171.748 62.036 171.585 61.996 171.409 61.964C171.233 61.9267 171.076 61.908 170.937 61.908C170.484 61.908 170.118 62.0387 169.841 62.3C169.564 62.556 169.361 62.9187 169.233 63.388C169.11 63.8573 169.049 64.4093 169.049 65.044H168.665ZM173.742 68.5V57.588H174.99V68.5H173.742ZM174.798 64.116L178.702 60.852H180.446L174.798 65.444V64.116ZM179.086 68.5L175.454 63.668L176.718 63.444L180.622 68.5H179.086ZM184.134 65.94V65.22C184.134 64.756 184.182 64.3747 184.278 64.076C184.379 63.7773 184.545 63.5187 184.774 63.3C185.003 63.0813 185.318 62.8627 185.718 62.644C186.075 62.452 186.361 62.2733 186.574 62.108C186.787 61.9427 186.939 61.764 187.03 61.572C187.126 61.38 187.174 61.1453 187.174 60.868C187.174 60.452 187.003 60.1053 186.662 59.828C186.326 59.5507 185.862 59.412 185.27 59.412C184.614 59.412 184.113 59.5427 183.766 59.804C183.419 60.06 183.201 60.42 183.11 60.884H181.782C181.857 60.1053 182.182 59.476 182.758 58.996C183.339 58.516 184.166 58.276 185.238 58.276C185.921 58.276 186.507 58.396 186.998 58.636C187.494 58.8707 187.873 59.188 188.134 59.588C188.401 59.9827 188.534 60.42 188.534 60.9C188.534 61.4493 188.395 61.9107 188.118 62.284C187.841 62.652 187.393 63.0013 186.774 63.332C186.417 63.5293 186.134 63.7133 185.926 63.884C185.723 64.0493 185.579 64.2413 185.494 64.46C185.409 64.6733 185.366 64.9533 185.366 65.3V65.94H184.134ZM184.774 68.692C184.507 68.692 184.286 68.6067 184.11 68.436C183.934 68.26 183.846 68.0493 183.846 67.804C183.846 67.5533 183.931 67.3373 184.102 67.156C184.278 66.9747 184.499 66.884 184.766 66.884C185.033 66.884 185.259 66.9747 185.446 67.156C185.638 67.332 185.734 67.5453 185.734 67.796C185.734 68.0413 185.641 68.252 185.454 68.428C185.267 68.604 185.041 68.692 184.774 68.692Z" fill="#333333"/>
<path d="M20.3681 84.1281L20.7313 83.4152L20.3681 84.1281ZM16.8719 80.6319L16.1591 80.9951L16.8719 80.6319ZM230.128 80.6319L230.841 80.9951L230.128 80.6319ZM226.632 84.1281L226.269 83.4152L226.632 84.1281ZM226.632 2.87195L226.995 2.15914L226.632 2.87195ZM230.128 6.36808L230.841 6.00488L230.128 6.36808ZM20.3681 2.87195L20.0049 2.15914L20.3681 2.87195ZM16.8719 6.36808L16.1591 6.00488L16.8719 6.36808ZM28.8 2.8H218.2V1.2H28.8V2.8ZM230.2 14.8V72.2H231.8V14.8H230.2ZM218.2 84.2H28.8V85.8H218.2V84.2ZM16.8 72.2V14.8H15.2V72.2H16.8ZM28.8 84.2C26.5466 84.2 24.9046 84.1994 23.6108 84.0937C22.3262 83.9887 21.4553 83.7842 20.7313 83.4152L20.0049 84.8409C20.9921 85.3439 22.097 85.5753 23.4805 85.6883C24.8546 85.8006 26.573 85.8 28.8 85.8V84.2ZM15.2 72.2C15.2 74.427 15.1994 76.1454 15.3117 77.5195C15.4247 78.903 15.6561 80.0079 16.1591 80.9951L17.5848 80.2687C17.2158 79.5447 17.0113 78.6738 16.9063 77.3892C16.8006 76.0954 16.8 74.4534 16.8 72.2H15.2ZM20.7313 83.4152C19.3765 82.725 18.275 81.6235 17.5848 80.2687L16.1591 80.9951C17.0028 82.6509 18.3491 83.9972 20.0049 84.8409L20.7313 83.4152ZM230.2 72.2C230.2 74.4534 230.199 76.0954 230.094 77.3892C229.989 78.6738 229.784 79.5447 229.415 80.2687L230.841 80.9951C231.344 80.0079 231.575 78.903 231.688 77.5195C231.801 76.1454 231.8 74.427 231.8 72.2H230.2ZM218.2 85.8C220.427 85.8 222.145 85.8006 223.52 85.6883C224.903 85.5753 226.008 85.3439 226.995 84.8409L226.269 83.4152C225.545 83.7842 224.674 83.9887 223.389 84.0937C222.095 84.1994 220.453 84.2 218.2 84.2V85.8ZM229.415 80.2687C228.725 81.6235 227.624 82.725 226.269 83.4152L226.995 84.8409C228.651 83.9972 229.997 82.6509 230.841 80.9951L229.415 80.2687ZM218.2 2.8C220.453 2.8 222.095 2.80062 223.389 2.90634C224.674 3.01129 225.545 3.21582 226.269 3.58475L226.995 2.15914C226.008 1.65613 224.903 1.42469 223.52 1.31165C222.145 1.19938 220.427 1.2 218.2 1.2V2.8ZM231.8 14.8C231.8 12.573 231.801 10.8546 231.688 9.48047C231.575 8.09698 231.344 6.9921 230.841 6.00488L229.415 6.73127C229.784 7.45534 229.989 8.32622 230.094 9.61076C230.199 10.9046 230.2 12.5466 230.2 14.8H231.8ZM226.269 3.58475C227.624 4.27504 228.725 5.3765 229.415 6.73127L230.841 6.00488C229.997 4.34906 228.651 3.00283 226.995 2.15914L226.269 3.58475ZM28.8 1.2C26.573 1.2 24.8546 1.19938 23.4805 1.31165C22.097 1.42469 20.9921 1.65613 20.0049 2.15914L20.7313 3.58475C21.4553 3.21582 22.3262 3.01129 23.6108 2.90634C24.9046 2.80062 26.5466 2.8 28.8 2.8V1.2ZM16.8 14.8C16.8 12.5466 16.8006 10.9046 16.9063 9.61076C17.0113 8.32622 17.2158 7.45534 17.5848 6.73127L16.1591 6.00488C15.6561 6.99211 15.4247 8.09698 15.3117 9.48047C15.1994 10.8546 15.2 12.573 15.2 14.8H16.8ZM20.0049 2.15914C18.3491 3.00283 17.0028 4.34906 16.1591 6.00488L17.5848 6.73127C18.275 5.3765 19.3765 4.27504 20.7313 3.58475L20.0049 2.15914Z" fill="#333333"/>
<path d="M7.749 45.6625L18.5 56L18.5 31L7.749 41.3375C6.52143 42.5179 6.52144 44.4821 7.749 45.6625Z" fill="white"/>
<path d="M16.5227 54.012L7.94337 46.0135L8.89806 44.9895L17.4773 52.988L16.5227 54.012ZM8.02018 40.5313L16.5372 33.0256L17.4628 34.0759L8.9458 41.5816L8.02018 40.5313ZM7.94337 46.0135C6.34402 44.5224 6.37968 41.977 8.02018 40.5313L8.9458 41.5816C7.92603 42.4803 7.90387 44.0626 8.89806 44.9895L7.94337 46.0135Z" fill="#333333"/>
</g>
<defs>
<filter id="filter0_d_6952_5419" x="0.766479" y="-2" width="354.234" height="99" filterUnits="userSpaceOnUse" color-interpolation-filters="sRGB">
<feFlood flood-opacity="0" result="BackgroundImageFix"/>
<feColorMatrix in="SourceAlpha" type="matrix" values="0 0 0 0 0 0 0 0 0 0 0 0 0 0 0 0 0 0 127 0" result="hardAlpha"/>
<feOffset dy="4"/>
<feGaussianBlur stdDeviation="3"/>
<feComposite in2="hardAlpha" operator="out"/>
<feColorMatrix type="matrix" values="0 0 0 0 0 0 0 0 0 0 0 0 0 0 0 0 0 0 0.05 0"/>
<feBlend mode="normal" in2="BackgroundImageFix" result="effect1_dropShadow_6952_5419"/>
<feBlend mode="normal" in="SourceGraphic" in2="effect1_dropShadow_6952_5419" result="shape"/>
</filter>
</defs>
</svg>
