<svg width="262" height="90" viewBox="0 0 262 90" fill="none" xmlns="http://www.w3.org/2000/svg">
<g filter="url(#filter0_d_7031_5656)">
<mask id="path-1-inside-1_7031_5656" fill="white">
<path d="M7.04335 41.6331L16.7674 50L16.7674 71C16.7674 75.9706 20.7968 80 25.7674 80L246.767 80C251.738 80 255.767 75.9706 255.767 71L255.767 11C255.767 6.02948 251.738 2.00004 246.767 2.00004L25.7674 2C20.7968 2 16.7674 6.02944 16.7674 11L16.7674 29.5L7.15557 36.9931C5.66182 38.1575 5.60763 40.3978 7.04335 41.6331Z"/>
</mask>
<path d="M7.04335 41.6331L16.7674 50L16.7674 71C16.7674 75.9706 20.7968 80 25.7674 80L246.767 80C251.738 80 255.767 75.9706 255.767 71L255.767 11C255.767 6.02948 251.738 2.00004 246.767 2.00004L25.7674 2C20.7968 2 16.7674 6.02944 16.7674 11L16.7674 29.5L7.15557 36.9931C5.66182 38.1575 5.60763 40.3978 7.04335 41.6331Z" fill="white"/>
<path d="M16.7674 50L18.1674 50L18.1674 49.3577L17.6805 48.9388L16.7674 50ZM7.04335 41.6331L6.13023 42.6944L6.13023 42.6944L7.04335 41.6331ZM7.15557 36.9931L6.29483 35.8889L6.29483 35.8889L7.15557 36.9931ZM16.7674 29.5L17.6281 30.6041L18.1674 30.1838L18.1674 29.5L16.7674 29.5ZM16.7674 11L15.3674 11L15.3674 11L16.7674 11ZM16.7674 71L18.1674 71L18.1674 71L16.7674 71ZM17.6805 48.9388L7.95647 40.5719L6.13023 42.6944L15.8543 51.0612L17.6805 48.9388ZM8.01632 38.0972L17.6281 30.6041L15.9066 28.3959L6.29483 35.8889L8.01632 38.0972ZM7.95647 40.5719C7.19075 39.9131 7.21965 38.7183 8.01632 38.0972L6.29483 35.8889C4.10398 37.5968 4.02451 40.8825 6.13023 42.6944L7.95647 40.5719ZM25.7674 3.4L246.767 3.40004L246.767 0.600042L25.7674 0.600003L25.7674 3.4ZM254.367 11L254.367 71L257.167 71L257.167 11L254.367 11ZM246.767 78.6L25.7674 78.6L25.7674 81.4L246.767 81.4L246.767 78.6ZM18.1674 29.5L18.1674 11L15.3674 11L15.3674 29.5L18.1674 29.5ZM18.1674 71L18.1674 50L15.3674 50L15.3674 71L18.1674 71ZM25.7674 78.6C21.57 78.6 18.1674 75.1974 18.1674 71L15.3674 71C15.3674 76.7438 20.0236 81.4 25.7674 81.4L25.7674 78.6ZM254.367 71C254.367 75.1974 250.965 78.6 246.767 78.6L246.767 81.4C252.511 81.4 257.167 76.7438 257.167 71L254.367 71ZM246.767 3.40004C250.965 3.40004 254.367 6.80268 254.367 11L257.167 11C257.167 5.25628 252.511 0.600043 246.767 0.600042L246.767 3.40004ZM25.7674 0.600003C20.0236 0.600002 15.3674 5.25624 15.3674 11L18.1674 11C18.1674 6.80264 21.57 3.4 25.7674 3.4L25.7674 0.600003Z" fill="#333333" mask="url(#path-1-inside-1_7031_5656)"/>
<path d="M34.096 17.024V15.952H41.92V17.024H38.344L38.624 16.736V26H37.376V16.736L37.656 17.024H34.096ZM49.2316 26V21.504C49.2316 20.7733 49.0556 20.2187 48.7036 19.84C48.357 19.456 47.8823 19.264 47.2796 19.264C46.821 19.264 46.4236 19.3893 46.0876 19.64C45.7516 19.8907 45.493 20.2507 45.3116 20.72C45.1303 21.184 45.0396 21.7387 45.0396 22.384H44.5596C44.5596 21.4933 44.677 20.7333 44.9116 20.104C45.1463 19.4747 45.4876 18.9947 45.9356 18.664C46.389 18.328 46.9383 18.16 47.5836 18.16C48.1863 18.16 48.701 18.296 49.1276 18.568C49.5596 18.8347 49.8903 19.2187 50.1196 19.72C50.349 20.2213 50.4636 20.816 50.4636 21.504V26H49.2316ZM43.7916 26V15.088H45.0396V26H43.7916ZM54.3119 16.544C54.0559 16.544 53.8532 16.472 53.7039 16.328C53.5545 16.1787 53.4799 15.984 53.4799 15.744C53.4799 15.5093 53.5545 15.3227 53.7039 15.184C53.8532 15.0453 54.0559 14.976 54.3119 14.976C54.5679 14.976 54.7705 15.0453 54.9199 15.184C55.0692 15.3227 55.1439 15.5093 55.1439 15.744C55.1439 15.984 55.0692 16.1787 54.9199 16.328C54.7705 16.472 54.5679 16.544 54.3119 16.544ZM53.6879 26V18.336H54.9359V26H53.6879ZM61.2855 26.192C60.5442 26.192 59.9255 26.088 59.4295 25.88C58.9335 25.6667 58.5575 25.376 58.3015 25.008C58.0455 24.6347 57.9095 24.208 57.8935 23.728H59.0935C59.1202 24.2133 59.3148 24.5787 59.6775 24.824C60.0455 25.064 60.5442 25.184 61.1735 25.184C61.5042 25.184 61.8082 25.1307 62.0855 25.024C62.3628 24.9173 62.5842 24.7707 62.7495 24.584C62.9148 24.3973 62.9975 24.1867 62.9975 23.952C62.9975 23.6533 62.8882 23.4187 62.6695 23.248C62.4508 23.0773 62.1015 22.928 61.6215 22.8L60.1335 22.32C59.4882 22.1173 58.9922 21.84 58.6455 21.488C58.3042 21.1307 58.1335 20.704 58.1335 20.208C58.1335 19.5893 58.4055 19.0933 58.9495 18.72C59.4935 18.3467 60.2082 18.16 61.0935 18.16C62.0322 18.16 62.7602 18.352 63.2775 18.736C63.7948 19.12 64.0642 19.6 64.0855 20.176H62.8535C62.8055 19.84 62.6348 19.5867 62.3415 19.416C62.0482 19.24 61.6322 19.152 61.0935 19.152C60.5762 19.152 60.1708 19.2693 59.8775 19.504C59.5895 19.7333 59.4455 19.9893 59.4455 20.272C59.4455 20.8 59.8988 21.1893 60.8055 21.44L62.3255 21.952C62.9815 22.1493 63.4828 22.408 63.8295 22.728C64.1815 23.048 64.3575 23.456 64.3575 23.952C64.3575 24.336 64.2322 24.6987 63.9815 25.04C63.7308 25.3813 63.3762 25.6587 62.9175 25.872C62.4588 26.0853 61.9148 26.192 61.2855 26.192ZM71.7606 16.544C71.5046 16.544 71.302 16.472 71.1526 16.328C71.0033 16.1787 70.9286 15.984 70.9286 15.744C70.9286 15.5093 71.0033 15.3227 71.1526 15.184C71.302 15.0453 71.5046 14.976 71.7606 14.976C72.0166 14.976 72.2193 15.0453 72.3686 15.184C72.518 15.3227 72.5926 15.5093 72.5926 15.744C72.5926 15.984 72.518 16.1787 72.3686 16.328C72.2193 16.472 72.0166 16.544 71.7606 16.544ZM71.1366 26V18.336H72.3846V26H71.1366ZM78.7342 26.192C77.9929 26.192 77.3742 26.088 76.8782 25.88C76.3822 25.6667 76.0062 25.376 75.7502 25.008C75.4942 24.6347 75.3582 24.208 75.3422 23.728H76.5422C76.5689 24.2133 76.7636 24.5787 77.1262 24.824C77.4942 25.064 77.9929 25.184 78.6222 25.184C78.9529 25.184 79.2569 25.1307 79.5342 25.024C79.8116 24.9173 80.0329 24.7707 80.1982 24.584C80.3636 24.3973 80.4462 24.1867 80.4462 23.952C80.4462 23.6533 80.3369 23.4187 80.1182 23.248C79.8996 23.0773 79.5502 22.928 79.0702 22.8L77.5822 22.32C76.9369 22.1173 76.4409 21.84 76.0942 21.488C75.7529 21.1307 75.5822 20.704 75.5822 20.208C75.5822 19.5893 75.8542 19.0933 76.3982 18.72C76.9422 18.3467 77.6569 18.16 78.5422 18.16C79.4809 18.16 80.2089 18.352 80.7262 18.736C81.2436 19.12 81.5129 19.6 81.5342 20.176H80.3022C80.2542 19.84 80.0836 19.5867 79.7902 19.416C79.4969 19.24 79.0809 19.152 78.5422 19.152C78.0249 19.152 77.6196 19.2693 77.3262 19.504C77.0382 19.7333 76.8942 19.9893 76.8942 20.272C76.8942 20.8 77.3476 21.1893 78.2542 21.44L79.7742 21.952C80.4302 22.1493 80.9316 22.408 81.2782 22.728C81.6302 23.048 81.8062 23.456 81.8062 23.952C81.8062 24.336 81.6809 24.6987 81.4302 25.04C81.1796 25.3813 80.8249 25.6587 80.3662 25.872C79.9076 26.0853 79.3636 26.192 78.7342 26.192ZM90.8574 26.192C90.4414 26.192 90.068 26.112 89.7374 25.952C89.4067 25.792 89.1454 25.552 88.9534 25.232C88.7614 24.912 88.6654 24.512 88.6654 24.032V16.224H89.8974V24C89.8974 24.7893 90.2654 25.184 91.0014 25.184C91.22 25.184 91.4307 25.16 91.6334 25.112C91.8414 25.064 92.0734 24.992 92.3294 24.896L92.5054 25.792C92.2334 25.9093 91.9614 26.0053 91.6894 26.08C91.4227 26.1547 91.1454 26.192 90.8574 26.192ZM87.4334 19.216V18.352H92.3134V19.216H87.4334ZM100.121 26V21.504C100.121 20.7733 99.945 20.2187 99.593 19.84C99.2463 19.456 98.7717 19.264 98.169 19.264C97.7103 19.264 97.313 19.3893 96.977 19.64C96.641 19.8907 96.3823 20.2507 96.201 20.72C96.0197 21.184 95.929 21.7387 95.929 22.384H95.449C95.449 21.4933 95.5663 20.7333 95.801 20.104C96.0357 19.4747 96.377 18.9947 96.825 18.664C97.2783 18.328 97.8277 18.16 98.473 18.16C99.0757 18.16 99.5903 18.296 100.017 18.568C100.449 18.8347 100.78 19.2187 101.009 19.72C101.238 20.2213 101.353 20.816 101.353 21.504V26H100.121ZM94.681 26V15.088H95.929V26H94.681ZM107.153 26.192C106.492 26.192 105.9 26.024 105.377 25.688C104.86 25.3467 104.449 24.8747 104.145 24.272C103.847 23.6693 103.697 22.976 103.697 22.192C103.697 21.3547 103.847 20.6347 104.145 20.032C104.444 19.4293 104.852 18.968 105.369 18.648C105.892 18.3227 106.487 18.16 107.153 18.16C107.735 18.16 108.231 18.2773 108.641 18.512C109.052 18.7467 109.383 19.064 109.633 19.464C109.884 19.864 110.057 20.3173 110.153 20.824C110.255 21.3253 110.284 21.8453 110.241 22.384H104.705V21.616H109.417L109.049 21.856C109.065 21.5413 109.047 21.2267 108.993 20.912C108.945 20.5973 108.852 20.3093 108.713 20.048C108.575 19.7813 108.38 19.568 108.129 19.408C107.879 19.248 107.559 19.168 107.169 19.168C106.679 19.168 106.268 19.2933 105.937 19.544C105.607 19.7947 105.359 20.1253 105.193 20.536C105.028 20.9413 104.945 21.3813 104.945 21.856V22.368C104.945 22.9013 105.025 23.3787 105.185 23.8C105.351 24.2213 105.596 24.5547 105.921 24.8C106.247 25.0453 106.657 25.168 107.153 25.168C107.649 25.168 108.057 25.048 108.377 24.808C108.697 24.568 108.892 24.2133 108.961 23.744H110.257C110.177 24.2507 109.996 24.688 109.713 25.056C109.431 25.4187 109.071 25.6987 108.633 25.896C108.196 26.0933 107.703 26.192 107.153 26.192ZM116.705 15.616H118.593V19.952H123.121V15.616H125.009V26H123.121V21.6H118.593V26H116.705V15.616ZM127.01 26L130.546 15.616H132.914L136.306 26H134.322L133.602 23.76H129.746L129.01 26H127.01ZM130.226 22.336H133.154L131.698 17.872L130.226 22.336ZM138.002 26V24.368L144.034 16.672V17.36L138.002 17.344V15.616H145.858V17.232L140.194 24.496L140.146 24.256L145.858 24.272V26H138.002ZM148.528 26V15.616H155.2V17.248H150.416V19.984H154.912V21.616H150.416V24.352H155.2V26H148.528ZM159.983 15.616V24.352H164.255V26H158.095V15.616H159.983ZM166.129 15.616H168.193L172.913 23.024H172.769V15.616H174.657V26H172.737L167.713 18.144H168.017V26H166.129V15.616ZM177.63 15.616H179.518V22.08C179.518 22.9333 179.734 23.5493 180.166 23.928C180.603 24.3067 181.161 24.496 181.838 24.496C182.521 24.496 183.078 24.3067 183.51 23.928C183.942 23.5493 184.158 22.9333 184.158 22.08V15.616H186.046V22.08C186.046 22.9547 185.878 23.7013 185.542 24.32C185.206 24.9387 184.723 25.4107 184.094 25.736C183.47 26.0613 182.718 26.224 181.838 26.224C180.958 26.224 180.203 26.0613 179.574 25.736C178.95 25.4107 178.47 24.9387 178.134 24.32C177.798 23.7013 177.63 22.9547 177.63 22.08V15.616ZM187.605 17.248V15.616H195.925V17.248H192.285L192.709 16.816V26H190.821V16.816L191.245 17.248H187.605ZM205.64 26.224C204.728 26.224 203.933 26.008 203.256 25.576C202.584 25.1387 202.061 24.5147 201.688 23.704C201.314 22.8933 201.128 21.92 201.128 20.784C201.128 19.6107 201.32 18.6267 201.704 17.832C202.093 17.032 202.626 16.4293 203.304 16.024C203.986 15.6133 204.765 15.408 205.64 15.408C206.85 15.408 207.794 15.7013 208.472 16.288C209.154 16.8747 209.592 17.6373 209.784 18.576L207.768 18.944C207.602 18.4 207.338 17.96 206.976 17.624C206.613 17.288 206.168 17.12 205.64 17.12C205.176 17.12 204.757 17.256 204.384 17.528C204.01 17.7947 203.712 18.2 203.488 18.744C203.269 19.288 203.16 19.968 203.16 20.784C203.16 21.552 203.256 22.2133 203.448 22.768C203.645 23.3227 203.928 23.7493 204.296 24.048C204.664 24.3467 205.112 24.496 205.64 24.496C206.317 24.496 206.84 24.3173 207.208 23.96C207.581 23.5973 207.768 23.136 207.768 22.576H209.784C209.784 23.3493 209.616 24.008 209.28 24.552C208.949 25.0907 208.474 25.504 207.856 25.792C207.237 26.08 206.498 26.224 205.64 26.224ZM211.028 26L214.564 15.616H216.932L220.324 26H218.34L217.62 23.76H213.764L213.028 26H211.028ZM214.244 22.336H217.172L215.716 17.872L214.244 22.336ZM228.34 15.616H230.932L224.084 22.624V20.048L228.34 15.616ZM226.036 19.904L231.22 26H228.788L224.724 21.136L226.036 19.904ZM222.34 15.616H224.244V26H222.34V15.616ZM232.953 26V15.616H239.625V17.248H234.841V19.984H239.337V21.616H234.841V24.352H239.625V26H232.953ZM35.488 46V35.616H39.328C40.5707 35.616 41.5227 35.9067 42.184 36.488C42.8507 37.0693 43.184 37.84 43.184 38.8C43.184 39.744 42.8507 40.5067 42.184 41.088C41.5227 41.664 40.5707 41.952 39.328 41.952H37.376V46H35.488ZM41.104 46L38.352 41.136H40.368L43.568 46H41.104ZM37.376 40.688H39.136C39.8293 40.688 40.3547 40.5307 40.712 40.216C41.0693 39.896 41.248 39.4827 41.248 38.976C41.248 38.4587 41.0853 38.0427 40.76 37.728C40.4347 37.408 39.9573 37.248 39.328 37.248H37.376V40.688ZM45.9289 46V35.616H52.6009V37.248H47.8169V39.984H52.3129V41.616H47.8169V44.352H52.6009V46H45.9289ZM59.2715 46.224C58.3595 46.224 57.5648 46.008 56.8875 45.576C56.2155 45.1387 55.6928 44.5147 55.3195 43.704C54.9462 42.8933 54.7595 41.92 54.7595 40.784C54.7595 39.6107 54.9515 38.6267 55.3355 37.832C55.7248 37.032 56.2582 36.4293 56.9355 36.024C57.6182 35.6133 58.3968 35.408 59.2715 35.408C60.4822 35.408 61.4262 35.7013 62.1035 36.288C62.7862 36.8747 63.2235 37.6373 63.4155 38.576L61.3995 38.944C61.2342 38.4 60.9702 37.96 60.6075 37.624C60.2448 37.288 59.7995 37.12 59.2715 37.12C58.8075 37.12 58.3888 37.256 58.0155 37.528C57.6422 37.7947 57.3435 38.2 57.1195 38.744C56.9008 39.288 56.7915 39.968 56.7915 40.784C56.7915 41.552 56.8875 42.2133 57.0795 42.768C57.2768 43.3227 57.5595 43.7493 57.9275 44.048C58.2955 44.3467 58.7435 44.496 59.2715 44.496C59.9488 44.496 60.4715 44.3173 60.8395 43.96C61.2128 43.5973 61.3995 43.136 61.3995 42.576H63.4155C63.4155 43.3493 63.2475 44.008 62.9115 44.552C62.5808 45.0907 62.1062 45.504 61.4875 45.792C60.8688 46.08 60.1302 46.224 59.2715 46.224ZM65.7961 46V35.616H67.6841V46H65.7961ZM70.7831 46V35.616H74.4471C75.6151 35.616 76.5245 35.904 77.1751 36.48C77.8311 37.056 78.1591 37.872 78.1591 38.928C78.1591 39.9733 77.8311 40.784 77.1751 41.36C76.5245 41.936 75.6151 42.224 74.4471 42.224H72.6871V46H70.7831ZM72.6871 40.576H74.4471C75.0338 40.576 75.4765 40.4213 75.7751 40.112C76.0738 39.8027 76.2231 39.408 76.2231 38.928C76.2231 38.4373 76.0738 38.0347 75.7751 37.72C75.4765 37.4053 75.0338 37.248 74.4471 37.248H72.6871V40.576ZM80.2564 46V35.616H86.9284V37.248H82.1444V39.984H86.6404V41.616H82.1444V44.352H86.9284V46H80.2564ZM97.3799 46.192C96.8199 46.192 96.3319 46.064 95.9159 45.808C95.5052 45.552 95.1879 45.1787 94.9639 44.688C94.7399 44.192 94.6279 43.5893 94.6279 42.88H95.1559C95.1559 43.3547 95.2545 43.7547 95.4519 44.08C95.6492 44.4053 95.9052 44.6533 96.2199 44.824C96.5399 44.9893 96.8785 45.072 97.2359 45.072C97.6199 45.072 97.9879 44.9627 98.3399 44.744C98.6919 44.52 98.9799 44.192 99.2039 43.76C99.4279 43.328 99.5399 42.7947 99.5399 42.16C99.5399 41.552 99.4359 41.032 99.2279 40.6C99.0252 40.168 98.7505 39.8373 98.4039 39.608C98.0572 39.3787 97.6732 39.264 97.2519 39.264C96.8892 39.264 96.5479 39.352 96.2279 39.528C95.9079 39.704 95.6492 39.9627 95.4519 40.304C95.2545 40.64 95.1559 41.056 95.1559 41.552H94.6279C94.6279 40.8107 94.7505 40.1893 94.9959 39.688C95.2412 39.1813 95.5745 38.8 95.9959 38.544C96.4172 38.288 96.8892 38.16 97.4119 38.16C98.0092 38.16 98.5665 38.32 99.0839 38.64C99.6012 38.96 100.02 39.4187 100.34 40.016C100.66 40.6133 100.82 41.328 100.82 42.16C100.82 43.0027 100.657 43.7253 100.332 44.328C100.012 44.9307 99.5905 45.392 99.0679 45.712C98.5452 46.032 97.9825 46.192 97.3799 46.192ZM93.9079 49.76V38.352H94.9479L95.1559 40.144V49.76H93.9079ZM108.163 46L108.003 44.32V41.04C108.003 40.352 107.857 39.8587 107.563 39.56C107.27 39.256 106.83 39.104 106.243 39.104C105.913 39.104 105.611 39.152 105.339 39.248C105.073 39.344 104.859 39.4933 104.699 39.696C104.545 39.8933 104.467 40.1493 104.467 40.464H103.075C103.075 39.9093 103.211 39.464 103.483 39.128C103.755 38.7867 104.129 38.5413 104.603 38.392C105.083 38.2373 105.63 38.16 106.243 38.16C106.83 38.16 107.35 38.2587 107.803 38.456C108.257 38.6533 108.611 38.968 108.867 39.4C109.123 39.8267 109.251 40.384 109.251 41.072V46H108.163ZM105.555 46.192C104.926 46.192 104.406 46.08 103.995 45.856C103.585 45.632 103.278 45.3413 103.075 44.984C102.873 44.6267 102.771 44.2507 102.771 43.856C102.771 43.3387 102.899 42.9173 103.155 42.592C103.417 42.2667 103.771 42.0293 104.219 41.88C104.667 41.7253 105.171 41.648 105.731 41.648C106.131 41.648 106.531 41.688 106.931 41.768C107.337 41.848 107.731 41.9573 108.115 42.096V42.88C107.795 42.752 107.433 42.6507 107.027 42.576C106.627 42.5013 106.259 42.464 105.923 42.464C105.411 42.464 104.979 42.5707 104.627 42.784C104.275 42.992 104.099 43.3493 104.099 43.856C104.099 44.2293 104.233 44.5493 104.499 44.816C104.771 45.0827 105.203 45.216 105.795 45.216C106.211 45.216 106.585 45.12 106.915 44.928C107.251 44.7307 107.515 44.4853 107.707 44.192C107.905 43.8987 108.003 43.6053 108.003 43.312H108.307C108.307 43.824 108.195 44.2987 107.971 44.736C107.753 45.1733 107.438 45.5253 107.027 45.792C106.617 46.0587 106.126 46.192 105.555 46.192ZM115.104 49.936C114.32 49.936 113.64 49.824 113.064 49.6C112.488 49.3813 112.04 49.0853 111.72 48.712C111.405 48.344 111.248 47.936 111.248 47.488C111.248 46.896 111.464 46.4427 111.896 46.128C112.333 45.8187 112.896 45.664 113.584 45.664L114.272 46.096C113.696 46.096 113.25 46.216 112.936 46.456C112.621 46.696 112.464 47.024 112.464 47.44C112.464 47.856 112.688 48.208 113.136 48.496C113.584 48.784 114.24 48.928 115.104 48.928C115.744 48.928 116.304 48.8347 116.784 48.648C117.269 48.4667 117.645 48.2267 117.912 47.928C118.184 47.6347 118.32 47.3173 118.32 46.976C118.32 46.736 118.232 46.528 118.056 46.352C117.88 46.1813 117.61 46.096 117.248 46.096H114.272C113.754 46.096 113.306 46.0187 112.928 45.864C112.554 45.704 112.266 45.496 112.064 45.24C111.861 44.984 111.76 44.704 111.76 44.4C111.76 44.08 111.85 43.808 112.032 43.584C112.213 43.36 112.448 43.1893 112.736 43.072C113.029 42.9547 113.344 42.896 113.68 42.896L113.92 43.36C113.76 43.36 113.597 43.3973 113.432 43.472C113.272 43.5413 113.136 43.648 113.024 43.792C112.917 43.9307 112.864 44.1067 112.864 44.32C112.864 44.5653 112.965 44.7707 113.168 44.936C113.37 45.1013 113.738 45.184 114.272 45.184H117.248C117.968 45.184 118.533 45.336 118.944 45.64C119.36 45.944 119.568 46.368 119.568 46.912C119.568 47.4133 119.389 47.8933 119.032 48.352C118.674 48.816 118.162 49.1947 117.496 49.488C116.829 49.7867 116.032 49.936 115.104 49.936ZM115.328 43.76C114.741 43.76 114.21 43.6427 113.736 43.408C113.266 43.1733 112.893 42.8453 112.616 42.424C112.344 42.0027 112.208 41.5147 112.208 40.96C112.208 40.4 112.344 39.9093 112.616 39.488C112.893 39.0667 113.266 38.7413 113.736 38.512C114.21 38.2773 114.741 38.16 115.328 38.16C115.898 38.16 116.416 38.2773 116.88 38.512C117.349 38.7413 117.722 39.0667 118 39.488C118.277 39.9093 118.416 40.4 118.416 40.96C118.416 41.5147 118.277 42.0027 118 42.424C117.722 42.8453 117.349 43.1733 116.88 43.408C116.416 43.6427 115.898 43.76 115.328 43.76ZM115.328 42.864C115.914 42.864 116.37 42.6827 116.696 42.32C117.021 41.9573 117.184 41.504 117.184 40.96C117.184 40.4 117.021 39.9467 116.696 39.6C116.37 39.248 115.914 39.072 115.328 39.072C114.746 39.072 114.288 39.248 113.952 39.6C113.621 39.9467 113.456 40.4 113.456 40.96C113.456 41.504 113.621 41.9573 113.952 42.32C114.288 42.6827 114.746 42.864 115.328 42.864ZM117.84 39.376L117.248 39.136C117.248 38.688 117.336 38.296 117.512 37.96C117.688 37.6187 117.938 37.3547 118.264 37.168C118.589 36.976 118.976 36.88 119.424 36.88L119.328 38.112C118.848 38.112 118.48 38.216 118.224 38.424C117.968 38.6267 117.84 38.944 117.84 39.376ZM124.247 46.192C123.586 46.192 122.994 46.024 122.471 45.688C121.954 45.3467 121.543 44.8747 121.239 44.272C120.94 43.6693 120.791 42.976 120.791 42.192C120.791 41.3547 120.94 40.6347 121.239 40.032C121.538 39.4293 121.946 38.968 122.463 38.648C122.986 38.3227 123.58 38.16 124.247 38.16C124.828 38.16 125.324 38.2773 125.735 38.512C126.146 38.7467 126.476 39.064 126.727 39.464C126.978 39.864 127.151 40.3173 127.247 40.824C127.348 41.3253 127.378 41.8453 127.335 42.384H121.799V41.616H126.511L126.143 41.856C126.159 41.5413 126.14 41.2267 126.087 40.912C126.039 40.5973 125.946 40.3093 125.807 40.048C125.668 39.7813 125.474 39.568 125.223 39.408C124.972 39.248 124.652 39.168 124.263 39.168C123.772 39.168 123.362 39.2933 123.031 39.544C122.7 39.7947 122.452 40.1253 122.287 40.536C122.122 40.9413 122.039 41.3813 122.039 41.856V42.368C122.039 42.9013 122.119 43.3787 122.279 43.8C122.444 44.2213 122.69 44.5547 123.015 44.8C123.34 45.0453 123.751 45.168 124.247 45.168C124.743 45.168 125.151 45.048 125.471 44.808C125.791 44.568 125.986 44.2133 126.055 43.744H127.351C127.271 44.2507 127.09 44.688 126.807 45.056C126.524 45.4187 126.164 45.6987 125.727 45.896C125.29 46.0933 124.796 46.192 124.247 46.192ZM129.778 47.744L128.834 47.28C129.138 47.1253 129.394 46.9547 129.602 46.768C129.815 46.5813 129.954 46.352 130.018 46.08C129.788 46.0533 129.591 45.9707 129.426 45.832C129.266 45.6933 129.186 45.5093 129.186 45.28C129.186 45.056 129.268 44.864 129.434 44.704C129.604 44.544 129.82 44.464 130.082 44.464C130.412 44.464 130.679 44.584 130.882 44.824C131.084 45.064 131.186 45.3493 131.186 45.68C131.186 46.0693 131.066 46.4507 130.826 46.824C130.591 47.2027 130.242 47.5093 129.778 47.744ZM137.43 46V35.952H138.678V46H137.43ZM148.72 46.192C148.106 46.192 147.533 46.0267 147 45.696C146.472 45.3653 146.045 44.8987 145.72 44.296C145.394 43.6933 145.232 42.9813 145.232 42.16C145.232 41.3173 145.394 40.5973 145.72 40C146.045 39.4027 146.472 38.9467 147 38.632C147.533 38.3173 148.106 38.16 148.72 38.16C149.152 38.16 149.538 38.2267 149.88 38.36C150.226 38.488 150.528 38.6667 150.784 38.896C151.04 39.1253 151.25 39.3867 151.416 39.68C151.586 39.968 151.712 40.272 151.792 40.592L150.512 40.704C150.378 40.2613 150.154 39.912 149.84 39.656C149.53 39.3947 149.152 39.264 148.704 39.264C148.325 39.264 147.968 39.3733 147.632 39.592C147.301 39.8053 147.032 40.128 146.824 40.56C146.616 40.9867 146.512 41.52 146.512 42.16C146.512 42.752 146.605 43.2667 146.792 43.704C146.984 44.136 147.245 44.472 147.576 44.712C147.906 44.952 148.282 45.072 148.704 45.072C149.296 45.072 149.744 44.928 150.048 44.64C150.357 44.3467 150.512 43.9413 150.512 43.424H151.792C151.792 43.9573 151.666 44.432 151.416 44.848C151.165 45.264 150.808 45.592 150.344 45.832C149.885 46.072 149.344 46.192 148.72 46.192ZM159.178 46L159.018 44.32V41.04C159.018 40.352 158.871 39.8587 158.578 39.56C158.284 39.256 157.844 39.104 157.258 39.104C156.927 39.104 156.626 39.152 156.354 39.248C156.087 39.344 155.874 39.4933 155.714 39.696C155.559 39.8933 155.482 40.1493 155.482 40.464H154.09C154.09 39.9093 154.226 39.464 154.498 39.128C154.77 38.7867 155.143 38.5413 155.618 38.392C156.098 38.2373 156.644 38.16 157.258 38.16C157.844 38.16 158.364 38.2587 158.818 38.456C159.271 38.6533 159.626 38.968 159.882 39.4C160.138 39.8267 160.266 40.384 160.266 41.072V46H159.178ZM156.57 46.192C155.94 46.192 155.42 46.08 155.01 45.856C154.599 45.632 154.292 45.3413 154.09 44.984C153.887 44.6267 153.786 44.2507 153.786 43.856C153.786 43.3387 153.914 42.9173 154.17 42.592C154.431 42.2667 154.786 42.0293 155.234 41.88C155.682 41.7253 156.186 41.648 156.746 41.648C157.146 41.648 157.546 41.688 157.946 41.768C158.351 41.848 158.746 41.9573 159.13 42.096V42.88C158.81 42.752 158.447 42.6507 158.042 42.576C157.642 42.5013 157.274 42.464 156.938 42.464C156.426 42.464 155.994 42.5707 155.642 42.784C155.29 42.992 155.114 43.3493 155.114 43.856C155.114 44.2293 155.247 44.5493 155.514 44.816C155.786 45.0827 156.218 45.216 156.81 45.216C157.226 45.216 157.599 45.12 157.93 44.928C158.266 44.7307 158.53 44.4853 158.722 44.192C158.919 43.8987 159.018 43.6053 159.018 43.312H159.322C159.322 43.824 159.21 44.2987 158.986 44.736C158.767 45.1733 158.452 45.5253 158.042 45.792C157.631 46.0587 157.14 46.192 156.57 46.192ZM168.854 46V41.504C168.854 40.7733 168.678 40.2187 168.326 39.84C167.979 39.456 167.505 39.264 166.902 39.264C166.443 39.264 166.046 39.3893 165.71 39.64C165.374 39.8907 165.115 40.2507 164.934 40.72C164.753 41.184 164.662 41.7387 164.662 42.384H164.182C164.182 41.4933 164.299 40.7333 164.534 40.104C164.769 39.4747 165.11 38.9947 165.558 38.664C166.011 38.328 166.561 38.16 167.206 38.16C167.809 38.16 168.323 38.296 168.75 38.568C169.182 38.8347 169.513 39.2187 169.742 39.72C169.971 40.2213 170.086 40.816 170.086 41.504V46H168.854ZM163.414 46V38.352H164.486L164.662 40.112V46H163.414ZM179.843 46.192C179.182 46.192 178.59 46.024 178.067 45.688C177.55 45.3467 177.139 44.8747 176.835 44.272C176.537 43.6693 176.387 42.976 176.387 42.192C176.387 41.3547 176.537 40.6347 176.835 40.032C177.134 39.4293 177.542 38.968 178.059 38.648C178.582 38.3227 179.177 38.16 179.843 38.16C180.425 38.16 180.921 38.2773 181.331 38.512C181.742 38.7467 182.073 39.064 182.323 39.464C182.574 39.864 182.747 40.3173 182.843 40.824C182.945 41.3253 182.974 41.8453 182.931 42.384H177.395V41.616H182.107L181.739 41.856C181.755 41.5413 181.737 41.2267 181.683 40.912C181.635 40.5973 181.542 40.3093 181.403 40.048C181.265 39.7813 181.07 39.568 180.819 39.408C180.569 39.248 180.249 39.168 179.859 39.168C179.369 39.168 178.958 39.2933 178.627 39.544C178.297 39.7947 178.049 40.1253 177.883 40.536C177.718 40.9413 177.635 41.3813 177.635 41.856V42.368C177.635 42.9013 177.715 43.3787 177.875 43.8C178.041 44.2213 178.286 44.5547 178.611 44.8C178.937 45.0453 179.347 45.168 179.843 45.168C180.339 45.168 180.747 45.048 181.067 44.808C181.387 44.568 181.582 44.2133 181.651 43.744H182.947C182.867 44.2507 182.686 44.688 182.403 45.056C182.121 45.4187 181.761 45.6987 181.323 45.896C180.886 46.0933 180.393 46.192 179.843 46.192ZM184.366 46L187.262 42.176L184.366 38.336H185.886L188.078 41.232L190.19 38.336H191.71L188.798 42.176L191.694 46H190.174L187.982 43.088L185.886 46H184.366ZM197.386 46.192C196.826 46.192 196.338 46.064 195.922 45.808C195.511 45.552 195.194 45.1787 194.97 44.688C194.746 44.192 194.634 43.5893 194.634 42.88H195.162C195.162 43.3547 195.26 43.7547 195.458 44.08C195.655 44.4053 195.911 44.6533 196.226 44.824C196.546 44.9893 196.884 45.072 197.242 45.072C197.626 45.072 197.994 44.9627 198.346 44.744C198.698 44.52 198.986 44.192 199.21 43.76C199.434 43.328 199.546 42.7947 199.546 42.16C199.546 41.552 199.442 41.032 199.234 40.6C199.031 40.168 198.756 39.8373 198.41 39.608C198.063 39.3787 197.679 39.264 197.258 39.264C196.895 39.264 196.554 39.352 196.234 39.528C195.914 39.704 195.655 39.9627 195.458 40.304C195.26 40.64 195.162 41.056 195.162 41.552H194.634C194.634 40.8107 194.756 40.1893 195.002 39.688C195.247 39.1813 195.58 38.8 196.002 38.544C196.423 38.288 196.895 38.16 197.418 38.16C198.015 38.16 198.572 38.32 199.09 38.64C199.607 38.96 200.026 39.4187 200.346 40.016C200.666 40.6133 200.826 41.328 200.826 42.16C200.826 43.0027 200.663 43.7253 200.338 44.328C200.018 44.9307 199.596 45.392 199.074 45.712C198.551 46.032 197.988 46.192 197.386 46.192ZM193.914 49.76V38.352H194.954L195.162 40.144V49.76H193.914ZM203.433 46V35.088H204.681V46H203.433ZM210.845 46.192C210.157 46.192 209.544 46.04 209.005 45.736C208.472 45.432 208.051 44.9813 207.741 44.384C207.432 43.7867 207.277 43.0507 207.277 42.176C207.277 41.296 207.432 40.56 207.741 39.968C208.051 39.3707 208.472 38.92 209.005 38.616C209.544 38.312 210.157 38.16 210.845 38.16C211.528 38.16 212.136 38.312 212.669 38.616C213.208 38.92 213.629 39.3707 213.933 39.968C214.243 40.56 214.397 41.296 214.397 42.176C214.397 43.0507 214.243 43.7867 213.933 44.384C213.629 44.9813 213.208 45.432 212.669 45.736C212.136 46.04 211.528 46.192 210.845 46.192ZM210.813 45.104C211.309 45.104 211.731 44.9867 212.077 44.752C212.424 44.512 212.685 44.1733 212.861 43.736C213.043 43.2987 213.133 42.7787 213.133 42.176C213.133 41.264 212.944 40.5467 212.565 40.024C212.187 39.496 211.624 39.232 210.877 39.232C210.376 39.232 209.952 39.352 209.605 39.592C209.264 39.8267 209.003 40.1653 208.821 40.608C208.645 41.0453 208.557 41.568 208.557 42.176C208.557 43.0773 208.747 43.792 209.125 44.32C209.509 44.8427 210.072 45.104 210.813 45.104ZM216.987 46V38.336H218.235V46H216.987ZM217.851 42.544C217.851 41.5733 217.945 40.768 218.131 40.128C218.318 39.4827 218.59 39.0027 218.947 38.688C219.31 38.368 219.75 38.208 220.267 38.208C220.438 38.208 220.593 38.2213 220.731 38.248C220.875 38.2693 221.019 38.304 221.163 38.352L221.083 39.584C220.934 39.536 220.771 39.496 220.595 39.464C220.419 39.4267 220.262 39.408 220.123 39.408C219.67 39.408 219.305 39.5387 219.027 39.8C218.75 40.056 218.547 40.4187 218.419 40.888C218.297 41.3573 218.235 41.9093 218.235 42.544H217.851ZM225.585 46.192C224.923 46.192 224.331 46.024 223.809 45.688C223.291 45.3467 222.881 44.8747 222.577 44.272C222.278 43.6693 222.129 42.976 222.129 42.192C222.129 41.3547 222.278 40.6347 222.577 40.032C222.875 39.4293 223.283 38.968 223.801 38.648C224.323 38.3227 224.918 38.16 225.585 38.16C226.166 38.16 226.662 38.2773 227.073 38.512C227.483 38.7467 227.814 39.064 228.065 39.464C228.315 39.864 228.489 40.3173 228.585 40.824C228.686 41.3253 228.715 41.8453 228.673 42.384H223.137V41.616H227.849L227.481 41.856C227.497 41.5413 227.478 41.2267 227.425 40.912C227.377 40.5973 227.283 40.3093 227.145 40.048C227.006 39.7813 226.811 39.568 226.561 39.408C226.31 39.248 225.99 39.168 225.601 39.168C225.11 39.168 224.699 39.2933 224.369 39.544C224.038 39.7947 223.79 40.1253 223.625 40.536C223.459 40.9413 223.377 41.3813 223.377 41.856V42.368C223.377 42.9013 223.457 43.3787 223.617 43.8C223.782 44.2213 224.027 44.5547 224.353 44.8C224.678 45.0453 225.089 45.168 225.585 45.168C226.081 45.168 226.489 45.048 226.809 44.808C227.129 44.568 227.323 44.2133 227.393 43.744H228.689C228.609 44.2507 228.427 44.688 228.145 45.056C227.862 45.4187 227.502 45.6987 227.065 45.896C226.627 46.0933 226.134 46.192 225.585 46.192ZM37.968 66.192C37.552 66.192 37.1787 66.112 36.848 65.952C36.5173 65.792 36.256 65.552 36.064 65.232C35.872 64.912 35.776 64.512 35.776 64.032V56.224H37.008V64C37.008 64.7893 37.376 65.184 38.112 65.184C38.3307 65.184 38.5413 65.16 38.744 65.112C38.952 65.064 39.184 64.992 39.44 64.896L39.616 65.792C39.344 65.9093 39.072 66.0053 38.8 66.08C38.5333 66.1547 38.256 66.192 37.968 66.192ZM34.544 59.216V58.352H39.424V59.216H34.544ZM47.2316 66V61.504C47.2316 60.7733 47.0556 60.2187 46.7036 59.84C46.357 59.456 45.8823 59.264 45.2796 59.264C44.821 59.264 44.4236 59.3893 44.0876 59.64C43.7516 59.8907 43.493 60.2507 43.3116 60.72C43.1303 61.184 43.0396 61.7387 43.0396 62.384H42.5596C42.5596 61.4933 42.677 60.7333 42.9116 60.104C43.1463 59.4747 43.4876 58.9947 43.9356 58.664C44.389 58.328 44.9383 58.16 45.5836 58.16C46.1863 58.16 46.701 58.296 47.1276 58.568C47.5596 58.8347 47.8903 59.2187 48.1196 59.72C48.349 60.2213 48.4636 60.816 48.4636 61.504V66H47.2316ZM41.7916 66V55.088H43.0396V66H41.7916ZM54.2639 66.192C53.6025 66.192 53.0105 66.024 52.4879 65.688C51.9705 65.3467 51.5599 64.8747 51.2559 64.272C50.9572 63.6693 50.8079 62.976 50.8079 62.192C50.8079 61.3547 50.9572 60.6347 51.2559 60.032C51.5545 59.4293 51.9625 58.968 52.4799 58.648C53.0025 58.3227 53.5972 58.16 54.2639 58.16C54.8452 58.16 55.3412 58.2773 55.7519 58.512C56.1625 58.7467 56.4932 59.064 56.7439 59.464C56.9945 59.864 57.1679 60.3173 57.2639 60.824C57.3652 61.3253 57.3945 61.8453 57.3519 62.384H51.8159V61.616H56.5279L56.1599 61.856C56.1759 61.5413 56.1572 61.2267 56.1039 60.912C56.0559 60.5973 55.9625 60.3093 55.8239 60.048C55.6852 59.7813 55.4905 59.568 55.2399 59.408C54.9892 59.248 54.6692 59.168 54.2799 59.168C53.7892 59.168 53.3785 59.2933 53.0479 59.544C52.7172 59.7947 52.4692 60.1253 52.3039 60.536C52.1385 60.9413 52.0559 61.3813 52.0559 61.856V62.368C52.0559 62.9013 52.1359 63.3787 52.2959 63.8C52.4612 64.2213 52.7065 64.5547 53.0319 64.8C53.3572 65.0453 53.7679 65.168 54.2639 65.168C54.7599 65.168 55.1679 65.048 55.4879 64.808C55.8079 64.568 56.0025 64.2133 56.0719 63.744H57.3679C57.2879 64.2507 57.1065 64.688 56.8239 65.056C56.5412 65.4187 56.1812 65.6987 55.7439 65.896C55.3065 66.0933 54.8132 66.192 54.2639 66.192ZM66.6315 66.192C66.0182 66.192 65.4448 66.0267 64.9115 65.696C64.3835 65.3653 63.9568 64.8987 63.6315 64.296C63.3062 63.6933 63.1435 62.9813 63.1435 62.16C63.1435 61.3173 63.3062 60.5973 63.6315 60C63.9568 59.4027 64.3835 58.9467 64.9115 58.632C65.4448 58.3173 66.0182 58.16 66.6315 58.16C67.0635 58.16 67.4502 58.2267 67.7915 58.36C68.1382 58.488 68.4395 58.6667 68.6955 58.896C68.9515 59.1253 69.1622 59.3867 69.3275 59.68C69.4982 59.968 69.6235 60.272 69.7035 60.592L68.4235 60.704C68.2902 60.2613 68.0662 59.912 67.7515 59.656C67.4422 59.3947 67.0635 59.264 66.6155 59.264C66.2368 59.264 65.8795 59.3733 65.5435 59.592C65.2128 59.8053 64.9435 60.128 64.7355 60.56C64.5275 60.9867 64.4235 61.52 64.4235 62.16C64.4235 62.752 64.5168 63.2667 64.7035 63.704C64.8955 64.136 65.1568 64.472 65.4875 64.712C65.8182 64.952 66.1942 65.072 66.6155 65.072C67.2075 65.072 67.6555 64.928 67.9595 64.64C68.2688 64.3467 68.4235 63.9413 68.4235 63.424H69.7035C69.7035 63.9573 69.5782 64.432 69.3275 64.848C69.0768 65.264 68.7195 65.592 68.2555 65.832C67.7968 66.072 67.2555 66.192 66.6315 66.192ZM75.1215 66.192C74.4335 66.192 73.8202 66.04 73.2815 65.736C72.7482 65.432 72.3268 64.9813 72.0175 64.384C71.7082 63.7867 71.5535 63.0507 71.5535 62.176C71.5535 61.296 71.7082 60.56 72.0175 59.968C72.3268 59.3707 72.7482 58.92 73.2815 58.616C73.8202 58.312 74.4335 58.16 75.1215 58.16C75.8042 58.16 76.4122 58.312 76.9455 58.616C77.4842 58.92 77.9055 59.3707 78.2095 59.968C78.5188 60.56 78.6735 61.296 78.6735 62.176C78.6735 63.0507 78.5188 63.7867 78.2095 64.384C77.9055 64.9813 77.4842 65.432 76.9455 65.736C76.4122 66.04 75.8042 66.192 75.1215 66.192ZM75.0895 65.104C75.5855 65.104 76.0068 64.9867 76.3535 64.752C76.7002 64.512 76.9615 64.1733 77.1375 63.736C77.3188 63.2987 77.4095 62.7787 77.4095 62.176C77.4095 61.264 77.2202 60.5467 76.8415 60.024C76.4628 59.496 75.9002 59.232 75.1535 59.232C74.6522 59.232 74.2282 59.352 73.8815 59.592C73.5402 59.8267 73.2788 60.1653 73.0975 60.608C72.9215 61.0453 72.8335 61.568 72.8335 62.176C72.8335 63.0773 73.0228 63.792 73.4015 64.32C73.7855 64.8427 74.3482 65.104 75.0895 65.104ZM86.7035 66V61.504C86.7035 60.7733 86.5275 60.2187 86.1755 59.84C85.8288 59.456 85.3542 59.264 84.7515 59.264C84.2928 59.264 83.8955 59.3893 83.5595 59.64C83.2235 59.8907 82.9648 60.2507 82.7835 60.72C82.6022 61.184 82.5115 61.7387 82.5115 62.384H82.0315C82.0315 61.4933 82.1488 60.7333 82.3835 60.104C82.6182 59.4747 82.9595 58.9947 83.4075 58.664C83.8608 58.328 84.4102 58.16 85.0555 58.16C85.6582 58.16 86.1728 58.296 86.5995 58.568C87.0315 58.8347 87.3622 59.2187 87.5915 59.72C87.8208 60.2213 87.9355 60.816 87.9355 61.504V66H86.7035ZM81.2635 66V58.352H82.3355L82.5115 60.112V66H81.2635ZM93.4317 66.192C93.0157 66.192 92.6424 66.112 92.3117 65.952C91.9811 65.792 91.7197 65.552 91.5277 65.232C91.3357 64.912 91.2397 64.512 91.2397 64.032V56.224H92.4717V64C92.4717 64.7893 92.8397 65.184 93.5757 65.184C93.7944 65.184 94.0051 65.16 94.2077 65.112C94.4157 65.064 94.6477 64.992 94.9037 64.896L95.0797 65.792C94.8077 65.9093 94.5357 66.0053 94.2637 66.08C93.9971 66.1547 93.7197 66.192 93.4317 66.192ZM90.0077 59.216V58.352H94.8877V59.216H90.0077ZM99.9114 66.192C99.25 66.192 98.658 66.024 98.1354 65.688C97.618 65.3467 97.2074 64.8747 96.9034 64.272C96.6047 63.6693 96.4554 62.976 96.4554 62.192C96.4554 61.3547 96.6047 60.6347 96.9034 60.032C97.202 59.4293 97.61 58.968 98.1274 58.648C98.65 58.3227 99.2447 58.16 99.9114 58.16C100.493 58.16 100.989 58.2773 101.399 58.512C101.81 58.7467 102.141 59.064 102.391 59.464C102.642 59.864 102.815 60.3173 102.911 60.824C103.013 61.3253 103.042 61.8453 102.999 62.384H97.4634V61.616H102.175L101.807 61.856C101.823 61.5413 101.805 61.2267 101.751 60.912C101.703 60.5973 101.61 60.3093 101.471 60.048C101.333 59.7813 101.138 59.568 100.887 59.408C100.637 59.248 100.317 59.168 99.9274 59.168C99.4367 59.168 99.026 59.2933 98.6954 59.544C98.3647 59.7947 98.1167 60.1253 97.9514 60.536C97.786 60.9413 97.7034 61.3813 97.7034 61.856V62.368C97.7034 62.9013 97.7834 63.3787 97.9434 63.8C98.1087 64.2213 98.354 64.5547 98.6794 64.8C99.0047 65.0453 99.4154 65.168 99.9114 65.168C100.407 65.168 100.815 65.048 101.135 64.808C101.455 64.568 101.65 64.2133 101.719 63.744H103.015C102.935 64.2507 102.754 64.688 102.471 65.056C102.189 65.4187 101.829 65.6987 101.391 65.896C100.954 66.0933 100.461 66.192 99.9114 66.192ZM111.074 66V61.504C111.074 60.7733 110.898 60.2187 110.546 59.84C110.199 59.456 109.725 59.264 109.122 59.264C108.663 59.264 108.266 59.3893 107.93 59.64C107.594 59.8907 107.335 60.2507 107.154 60.72C106.973 61.184 106.882 61.7387 106.882 62.384H106.402C106.402 61.4933 106.519 60.7333 106.754 60.104C106.989 59.4747 107.33 58.9947 107.778 58.664C108.231 58.328 108.781 58.16 109.426 58.16C110.029 58.16 110.543 58.296 110.97 58.568C111.402 58.8347 111.733 59.2187 111.962 59.72C112.191 60.2213 112.306 60.816 112.306 61.504V66H111.074ZM105.634 66V58.352H106.706L106.882 60.112V66H105.634ZM117.802 66.192C117.386 66.192 117.013 66.112 116.682 65.952C116.352 65.792 116.09 65.552 115.898 65.232C115.706 64.912 115.61 64.512 115.61 64.032V56.224H116.842V64C116.842 64.7893 117.21 65.184 117.946 65.184C118.165 65.184 118.376 65.16 118.578 65.112C118.786 65.064 119.018 64.992 119.274 64.896L119.45 65.792C119.178 65.9093 118.906 66.0053 118.634 66.08C118.368 66.1547 118.09 66.192 117.802 66.192ZM114.378 59.216V58.352H119.258V59.216H114.378ZM128.351 66.192C127.663 66.192 127.05 66.04 126.511 65.736C125.978 65.432 125.556 64.9813 125.247 64.384C124.938 63.7867 124.783 63.0507 124.783 62.176C124.783 61.296 124.938 60.56 125.247 59.968C125.556 59.3707 125.978 58.92 126.511 58.616C127.05 58.312 127.663 58.16 128.351 58.16C129.034 58.16 129.642 58.312 130.175 58.616C130.714 58.92 131.135 59.3707 131.439 59.968C131.748 60.56 131.903 61.296 131.903 62.176C131.903 63.0507 131.748 63.7867 131.439 64.384C131.135 64.9813 130.714 65.432 130.175 65.736C129.642 66.04 129.034 66.192 128.351 66.192ZM128.319 65.104C128.815 65.104 129.236 64.9867 129.583 64.752C129.93 64.512 130.191 64.1733 130.367 63.736C130.548 63.2987 130.639 62.7787 130.639 62.176C130.639 61.264 130.45 60.5467 130.071 60.024C129.692 59.496 129.13 59.232 128.383 59.232C127.882 59.232 127.458 59.352 127.111 59.592C126.77 59.8267 126.508 60.1653 126.327 60.608C126.151 61.0453 126.063 61.568 126.063 62.176C126.063 63.0773 126.252 63.792 126.631 64.32C127.015 64.8427 127.578 65.104 128.319 65.104ZM134.493 66V58.336H135.741V66H134.493ZM135.357 62.544C135.357 61.5733 135.45 60.768 135.637 60.128C135.824 59.4827 136.096 59.0027 136.453 58.688C136.816 58.368 137.256 58.208 137.773 58.208C137.944 58.208 138.098 58.2213 138.237 58.248C138.381 58.2693 138.525 58.304 138.669 58.352L138.589 59.584C138.44 59.536 138.277 59.496 138.101 59.464C137.925 59.4267 137.768 59.408 137.629 59.408C137.176 59.408 136.81 59.5387 136.533 59.8C136.256 60.056 136.053 60.4187 135.925 60.888C135.802 61.3573 135.741 61.9093 135.741 62.544H135.357ZM147.143 66.192C146.402 66.192 145.783 66.088 145.287 65.88C144.791 65.6667 144.415 65.376 144.159 65.008C143.903 64.6347 143.767 64.208 143.751 63.728H144.951C144.978 64.2133 145.172 64.5787 145.535 64.824C145.903 65.064 146.402 65.184 147.031 65.184C147.362 65.184 147.666 65.1307 147.943 65.024C148.22 64.9173 148.442 64.7707 148.607 64.584C148.772 64.3973 148.855 64.1867 148.855 63.952C148.855 63.6533 148.746 63.4187 148.527 63.248C148.308 63.0773 147.959 62.928 147.479 62.8L145.991 62.32C145.346 62.1173 144.85 61.84 144.503 61.488C144.162 61.1307 143.991 60.704 143.991 60.208C143.991 59.5893 144.263 59.0933 144.807 58.72C145.351 58.3467 146.066 58.16 146.951 58.16C147.89 58.16 148.618 58.352 149.135 58.736C149.652 59.12 149.922 59.6 149.943 60.176H148.711C148.663 59.84 148.492 59.5867 148.199 59.416C147.906 59.24 147.49 59.152 146.951 59.152C146.434 59.152 146.028 59.2693 145.735 59.504C145.447 59.7333 145.303 59.9893 145.303 60.272C145.303 60.8 145.756 61.1893 146.663 61.44L148.183 61.952C148.839 62.1493 149.34 62.408 149.687 62.728C150.039 63.048 150.215 63.456 150.215 63.952C150.215 64.336 150.09 64.6987 149.839 65.04C149.588 65.3813 149.234 65.6587 148.775 65.872C148.316 66.0853 147.772 66.192 147.143 66.192ZM155.309 66.192C154.893 66.192 154.52 66.112 154.189 65.952C153.859 65.792 153.597 65.552 153.405 65.232C153.213 64.912 153.117 64.512 153.117 64.032V56.224H154.349V64C154.349 64.7893 154.717 65.184 155.453 65.184C155.672 65.184 155.883 65.16 156.085 65.112C156.293 65.064 156.525 64.992 156.781 64.896L156.957 65.792C156.685 65.9093 156.413 66.0053 156.141 66.08C155.875 66.1547 155.597 66.192 155.309 66.192ZM151.885 59.216V58.352H156.765V59.216H151.885ZM163.869 66L163.709 64.32V61.04C163.709 60.352 163.562 59.8587 163.269 59.56C162.976 59.256 162.536 59.104 161.949 59.104C161.618 59.104 161.317 59.152 161.045 59.248C160.778 59.344 160.565 59.4933 160.405 59.696C160.25 59.8933 160.173 60.1493 160.173 60.464H158.781C158.781 59.9093 158.917 59.464 159.189 59.128C159.461 58.7867 159.834 58.5413 160.309 58.392C160.789 58.2373 161.336 58.16 161.949 58.16C162.536 58.16 163.056 58.2587 163.509 58.456C163.962 58.6533 164.317 58.968 164.573 59.4C164.829 59.8267 164.957 60.384 164.957 61.072V66H163.869ZM161.261 66.192C160.632 66.192 160.112 66.08 159.701 65.856C159.29 65.632 158.984 65.3413 158.781 64.984C158.578 64.6267 158.477 64.2507 158.477 63.856C158.477 63.3387 158.605 62.9173 158.861 62.592C159.122 62.2667 159.477 62.0293 159.925 61.88C160.373 61.7253 160.877 61.648 161.437 61.648C161.837 61.648 162.237 61.688 162.637 61.768C163.042 61.848 163.437 61.9573 163.821 62.096V62.88C163.501 62.752 163.138 62.6507 162.733 62.576C162.333 62.5013 161.965 62.464 161.629 62.464C161.117 62.464 160.685 62.5707 160.333 62.784C159.981 62.992 159.805 63.3493 159.805 63.856C159.805 64.2293 159.938 64.5493 160.205 64.816C160.477 65.0827 160.909 65.216 161.501 65.216C161.917 65.216 162.29 65.12 162.621 64.928C162.957 64.7307 163.221 64.4853 163.413 64.192C163.61 63.8987 163.709 63.6053 163.709 63.312H164.013C164.013 63.824 163.901 64.2987 163.677 64.736C163.458 65.1733 163.144 65.5253 162.733 65.792C162.322 66.0587 161.832 66.192 161.261 66.192ZM168.105 66V58.336H169.353V66H168.105ZM168.969 62.544C168.969 61.5733 169.063 60.768 169.249 60.128C169.436 59.4827 169.708 59.0027 170.065 58.688C170.428 58.368 170.868 58.208 171.385 58.208C171.556 58.208 171.711 58.2213 171.849 58.248C171.993 58.2693 172.137 58.304 172.281 58.352L172.201 59.584C172.052 59.536 171.889 59.496 171.713 59.464C171.537 59.4267 171.38 59.408 171.241 59.408C170.788 59.408 170.423 59.5387 170.145 59.8C169.868 60.056 169.665 60.4187 169.537 60.888C169.415 61.3573 169.353 61.9093 169.353 62.544H168.969ZM176.399 66.192C175.983 66.192 175.609 66.112 175.279 65.952C174.948 65.792 174.687 65.552 174.495 65.232C174.303 64.912 174.207 64.512 174.207 64.032V56.224H175.439V64C175.439 64.7893 175.807 65.184 176.543 65.184C176.761 65.184 176.972 65.16 177.175 65.112C177.383 65.064 177.615 64.992 177.871 64.896L178.047 65.792C177.775 65.9093 177.503 66.0053 177.231 66.08C176.964 66.1547 176.687 66.192 176.399 66.192ZM172.975 59.216V58.352H177.855V59.216H172.975ZM184.179 66V58.336H185.427V66H184.179ZM185.043 62.544C185.043 61.5733 185.136 60.768 185.323 60.128C185.51 59.4827 185.782 59.0027 186.139 58.688C186.502 58.368 186.942 58.208 187.459 58.208C187.63 58.208 187.784 58.2213 187.923 58.248C188.067 58.2693 188.211 58.304 188.355 58.352L188.275 59.584C188.126 59.536 187.963 59.496 187.787 59.464C187.611 59.4267 187.454 59.408 187.315 59.408C186.862 59.408 186.496 59.5387 186.219 59.8C185.942 60.056 185.739 60.4187 185.611 60.888C185.488 61.3573 185.427 61.9093 185.427 62.544H185.043ZM192.776 66.192C192.115 66.192 191.523 66.024 191 65.688C190.483 65.3467 190.072 64.8747 189.768 64.272C189.47 63.6693 189.32 62.976 189.32 62.192C189.32 61.3547 189.47 60.6347 189.768 60.032C190.067 59.4293 190.475 58.968 190.992 58.648C191.515 58.3227 192.11 58.16 192.776 58.16C193.358 58.16 193.854 58.2773 194.264 58.512C194.675 58.7467 195.006 59.064 195.256 59.464C195.507 59.864 195.68 60.3173 195.776 60.824C195.878 61.3253 195.907 61.8453 195.864 62.384H190.328V61.616H195.04L194.672 61.856C194.688 61.5413 194.67 61.2267 194.616 60.912C194.568 60.5973 194.475 60.3093 194.336 60.048C194.198 59.7813 194.003 59.568 193.752 59.408C193.502 59.248 193.182 59.168 192.792 59.168C192.302 59.168 191.891 59.2933 191.56 59.544C191.23 59.7947 190.982 60.1253 190.816 60.536C190.651 60.9413 190.568 61.3813 190.568 61.856V62.368C190.568 62.9013 190.648 63.3787 190.808 63.8C190.974 64.2213 191.219 64.5547 191.544 64.8C191.87 65.0453 192.28 65.168 192.776 65.168C193.272 65.168 193.68 65.048 194 64.808C194.32 64.568 194.515 64.2133 194.584 63.744H195.88C195.8 64.2507 195.619 64.688 195.336 65.056C195.054 65.4187 194.694 65.6987 194.256 65.896C193.819 66.0933 193.326 66.192 192.776 66.192ZM203.235 66L203.075 64.32V61.04C203.075 60.352 202.928 59.8587 202.635 59.56C202.342 59.256 201.902 59.104 201.315 59.104C200.984 59.104 200.683 59.152 200.411 59.248C200.144 59.344 199.931 59.4933 199.771 59.696C199.616 59.8933 199.539 60.1493 199.539 60.464H198.147C198.147 59.9093 198.283 59.464 198.555 59.128C198.827 58.7867 199.2 58.5413 199.675 58.392C200.155 58.2373 200.702 58.16 201.315 58.16C201.902 58.16 202.422 58.2587 202.875 58.456C203.328 58.6533 203.683 58.968 203.939 59.4C204.195 59.8267 204.323 60.384 204.323 61.072V66H203.235ZM200.627 66.192C199.998 66.192 199.478 66.08 199.067 65.856C198.656 65.632 198.35 65.3413 198.147 64.984C197.944 64.6267 197.843 64.2507 197.843 63.856C197.843 63.3387 197.971 62.9173 198.227 62.592C198.488 62.2667 198.843 62.0293 199.291 61.88C199.739 61.7253 200.243 61.648 200.803 61.648C201.203 61.648 201.603 61.688 202.003 61.768C202.408 61.848 202.803 61.9573 203.187 62.096V62.88C202.867 62.752 202.504 62.6507 202.099 62.576C201.699 62.5013 201.331 62.464 200.995 62.464C200.483 62.464 200.051 62.5707 199.699 62.784C199.347 62.992 199.171 63.3493 199.171 63.856C199.171 64.2293 199.304 64.5493 199.571 64.816C199.843 65.0827 200.275 65.216 200.867 65.216C201.283 65.216 201.656 65.12 201.987 64.928C202.323 64.7307 202.587 64.4853 202.779 64.192C202.976 63.8987 203.075 63.6053 203.075 63.312H203.379C203.379 63.824 203.267 64.2987 203.043 64.736C202.824 65.1733 202.51 65.5253 202.099 65.792C201.688 66.0587 201.198 66.192 200.627 66.192ZM210.208 66.192C209.589 66.192 209.021 66.0267 208.504 65.696C207.986 65.36 207.573 64.8907 207.264 64.288C206.954 63.68 206.8 62.9653 206.8 62.144C206.8 61.328 206.952 60.6213 207.256 60.024C207.56 59.4267 207.962 58.968 208.464 58.648C208.97 58.3227 209.525 58.16 210.128 58.16C210.688 58.16 211.178 58.296 211.6 58.568C212.026 58.84 212.357 59.232 212.592 59.744C212.826 60.256 212.944 60.8747 212.944 61.6H212.464C212.464 61.0933 212.362 60.6667 212.16 60.32C211.962 59.9733 211.704 59.712 211.384 59.536C211.064 59.3547 210.72 59.264 210.352 59.264C209.936 59.264 209.554 59.3813 209.208 59.616C208.866 59.8453 208.592 60.176 208.384 60.608C208.181 61.0347 208.08 61.5467 208.08 62.144C208.08 62.752 208.181 63.2747 208.384 63.712C208.592 64.1493 208.866 64.4853 209.208 64.72C209.554 64.9547 209.936 65.072 210.352 65.072C210.698 65.072 211.032 64.9813 211.352 64.8C211.677 64.6187 211.944 64.3547 212.152 64.008C212.36 63.656 212.464 63.232 212.464 62.736H212.944C212.944 63.4773 212.821 64.1067 212.576 64.624C212.336 65.136 212.008 65.5253 211.592 65.792C211.181 66.0587 210.72 66.192 210.208 66.192ZM212.672 66L212.464 64.208V55.088H213.712V66H212.672ZM217.82 56.544C217.564 56.544 217.361 56.472 217.212 56.328C217.063 56.1787 216.988 55.984 216.988 55.744C216.988 55.5093 217.063 55.3227 217.212 55.184C217.361 55.0453 217.564 54.976 217.82 54.976C218.076 54.976 218.279 55.0453 218.428 55.184C218.577 55.3227 218.652 55.5093 218.652 55.744C218.652 55.984 218.577 56.1787 218.428 56.328C218.279 56.472 218.076 56.544 217.82 56.544ZM217.196 66V58.336H218.444V66H217.196ZM227.482 66V61.504C227.482 60.7733 227.306 60.2187 226.954 59.84C226.607 59.456 226.132 59.264 225.53 59.264C225.071 59.264 224.674 59.3893 224.338 59.64C224.002 59.8907 223.743 60.2507 223.562 60.72C223.38 61.184 223.29 61.7387 223.29 62.384H222.81C222.81 61.4933 222.927 60.7333 223.162 60.104C223.396 59.4747 223.738 58.9947 224.186 58.664C224.639 58.328 225.188 58.16 225.834 58.16C226.436 58.16 226.951 58.296 227.378 58.568C227.81 58.8347 228.14 59.2187 228.37 59.72C228.599 60.2213 228.714 60.816 228.714 61.504V66H227.482ZM222.042 66V58.352H223.114L223.29 60.112V66H222.042ZM234.562 69.936C233.778 69.936 233.098 69.824 232.522 69.6C231.946 69.3813 231.498 69.0853 231.178 68.712C230.863 68.344 230.706 67.936 230.706 67.488C230.706 66.896 230.922 66.4427 231.354 66.128C231.791 65.8187 232.354 65.664 233.042 65.664L233.73 66.096C233.154 66.096 232.709 66.216 232.394 66.456C232.079 66.696 231.922 67.024 231.922 67.44C231.922 67.856 232.146 68.208 232.594 68.496C233.042 68.784 233.698 68.928 234.562 68.928C235.202 68.928 235.762 68.8347 236.242 68.648C236.727 68.4667 237.103 68.2267 237.37 67.928C237.642 67.6347 237.778 67.3173 237.778 66.976C237.778 66.736 237.69 66.528 237.514 66.352C237.338 66.1813 237.069 66.096 236.706 66.096H233.73C233.213 66.096 232.765 66.0187 232.386 65.864C232.013 65.704 231.725 65.496 231.522 65.24C231.319 64.984 231.218 64.704 231.218 64.4C231.218 64.08 231.309 63.808 231.49 63.584C231.671 63.36 231.906 63.1893 232.194 63.072C232.487 62.9547 232.802 62.896 233.138 62.896L233.378 63.36C233.218 63.36 233.055 63.3973 232.89 63.472C232.73 63.5413 232.594 63.648 232.482 63.792C232.375 63.9307 232.322 64.1067 232.322 64.32C232.322 64.5653 232.423 64.7707 232.626 64.936C232.829 65.1013 233.197 65.184 233.73 65.184H236.706C237.426 65.184 237.991 65.336 238.402 65.64C238.818 65.944 239.026 66.368 239.026 66.912C239.026 67.4133 238.847 67.8933 238.49 68.352C238.133 68.816 237.621 69.1947 236.954 69.488C236.287 69.7867 235.49 69.936 234.562 69.936ZM234.786 63.76C234.199 63.76 233.669 63.6427 233.194 63.408C232.725 63.1733 232.351 62.8453 232.074 62.424C231.802 62.0027 231.666 61.5147 231.666 60.96C231.666 60.4 231.802 59.9093 232.074 59.488C232.351 59.0667 232.725 58.7413 233.194 58.512C233.669 58.2773 234.199 58.16 234.786 58.16C235.357 58.16 235.874 58.2773 236.338 58.512C236.807 58.7413 237.181 59.0667 237.458 59.488C237.735 59.9093 237.874 60.4 237.874 60.96C237.874 61.5147 237.735 62.0027 237.458 62.424C237.181 62.8453 236.807 63.1733 236.338 63.408C235.874 63.6427 235.357 63.76 234.786 63.76ZM234.786 62.864C235.373 62.864 235.829 62.6827 236.154 62.32C236.479 61.9573 236.642 61.504 236.642 60.96C236.642 60.4 236.479 59.9467 236.154 59.6C235.829 59.248 235.373 59.072 234.786 59.072C234.205 59.072 233.746 59.248 233.41 59.6C233.079 59.9467 232.914 60.4 232.914 60.96C232.914 61.504 233.079 61.9573 233.41 62.32C233.746 62.6827 234.205 62.864 234.786 62.864ZM237.298 59.376L236.706 59.136C236.706 58.688 236.794 58.296 236.97 57.96C237.146 57.6187 237.397 57.3547 237.722 57.168C238.047 56.976 238.434 56.88 238.882 56.88L238.786 58.112C238.306 58.112 237.938 58.216 237.682 58.424C237.426 58.6267 237.298 58.944 237.298 59.376ZM239.913 65.256C239.913 65.0053 240.001 64.7893 240.177 64.608C240.353 64.4267 240.574 64.336 240.841 64.336C241.108 64.336 241.334 64.4267 241.521 64.608C241.708 64.7893 241.801 65.0053 241.801 65.256C241.801 65.5067 241.708 65.7173 241.521 65.888C241.334 66.0587 241.108 66.144 240.841 66.144C240.574 66.144 240.353 66.0587 240.177 65.888C240.001 65.712 239.913 65.5013 239.913 65.256Z" fill="#333333"/>
</g>
<defs>
<filter id="filter0_d_7031_5656" x="3.05176e-05" y="0" width="261.767" height="90" filterUnits="userSpaceOnUse" color-interpolation-filters="sRGB">
<feFlood flood-opacity="0" result="BackgroundImageFix"/>
<feColorMatrix in="SourceAlpha" type="matrix" values="0 0 0 0 0 0 0 0 0 0 0 0 0 0 0 0 0 0 127 0" result="hardAlpha"/>
<feOffset dy="4"/>
<feGaussianBlur stdDeviation="3"/>
<feComposite in2="hardAlpha" operator="out"/>
<feColorMatrix type="matrix" values="0 0 0 0 0 0 0 0 0 0 0 0 0 0 0 0 0 0 0.1 0"/>
<feBlend mode="normal" in2="BackgroundImageFix" result="effect1_dropShadow_7031_5656"/>
<feBlend mode="normal" in="SourceGraphic" in2="effect1_dropShadow_7031_5656" result="shape"/>
</filter>
</defs>
</svg>
