<svg width="262" height="91" viewBox="0 0 262 91" fill="none" xmlns="http://www.w3.org/2000/svg">
<g filter="url(#filter0_d_7031_5648)">
<mask id="path-1-inside-1_7031_5648" fill="white">
<path d="M7.04335 43.6331L16.7674 52L16.7674 72C16.7674 76.9706 20.7968 81 25.7674 81L246.767 81C251.738 81 255.767 76.9706 255.767 72L255.767 11C255.767 6.02948 251.738 2.00004 246.767 2.00004L25.7674 2C20.7968 2 16.7674 6.02944 16.7674 11L16.7674 31.5L7.15557 38.9931C5.66182 40.1575 5.60763 42.3978 7.04335 43.6331Z"/>
</mask>
<path d="M7.04335 43.6331L16.7674 52L16.7674 72C16.7674 76.9706 20.7968 81 25.7674 81L246.767 81C251.738 81 255.767 76.9706 255.767 72L255.767 11C255.767 6.02948 251.738 2.00004 246.767 2.00004L25.7674 2C20.7968 2 16.7674 6.02944 16.7674 11L16.7674 31.5L7.15557 38.9931C5.66182 40.1575 5.60763 42.3978 7.04335 43.6331Z" fill="white"/>
<path d="M16.7674 52L18.1674 52L18.1674 51.3577L17.6805 50.9388L16.7674 52ZM7.04335 43.6331L6.13023 44.6944L6.13023 44.6944L7.04335 43.6331ZM7.15557 38.9931L6.29483 37.8889L6.29483 37.8889L7.15557 38.9931ZM16.7674 31.5L17.6281 32.6041L18.1674 32.1838L18.1674 31.5L16.7674 31.5ZM16.7674 11L15.3674 11L15.3674 11L16.7674 11ZM16.7674 72L15.3674 72L15.3674 72L16.7674 72ZM17.6805 50.9388L7.95647 42.5719L6.13023 44.6944L15.8543 53.0612L17.6805 50.9388ZM8.01632 40.0972L17.6281 32.6041L15.9066 30.3959L6.29483 37.8889L8.01632 40.0972ZM7.95647 42.5719C7.19075 41.9131 7.21965 40.7183 8.01632 40.0972L6.29483 37.8889C4.10398 39.5968 4.02451 42.8825 6.13023 44.6944L7.95647 42.5719ZM25.7674 3.4L246.767 3.40004L246.767 0.600042L25.7674 0.600003L25.7674 3.4ZM254.367 11L254.367 72L257.167 72L257.167 11L254.367 11ZM246.767 79.6L25.7674 79.6L25.7674 82.4L246.767 82.4L246.767 79.6ZM18.1674 31.5L18.1674 11L15.3674 11L15.3674 31.5L18.1674 31.5ZM18.1674 72L18.1674 52L15.3674 52L15.3674 72L18.1674 72ZM25.7674 79.6C21.57 79.6 18.1674 76.1974 18.1674 72L15.3674 72C15.3674 77.7438 20.0236 82.4 25.7674 82.4L25.7674 79.6ZM254.367 72C254.367 76.1974 250.965 79.6 246.767 79.6L246.767 82.4C252.511 82.4 257.167 77.7438 257.167 72L254.367 72ZM246.767 3.40004C250.965 3.40004 254.367 6.80268 254.367 11L257.167 11C257.167 5.25628 252.511 0.600043 246.767 0.600042L246.767 3.40004ZM25.7674 0.600003C20.0236 0.600002 15.3674 5.25624 15.3674 11L18.1674 11C18.1674 6.80264 21.57 3.4 25.7674 3.4L25.7674 0.600003Z" fill="#333333" mask="url(#path-1-inside-1_7031_5648)"/>
<path d="M35.616 15.952H38.56C39.5733 15.952 40.4533 16.16 41.2 16.576C41.9467 16.9867 42.5253 17.568 42.936 18.32C43.3467 19.072 43.552 19.9573 43.552 20.976C43.552 21.984 43.3467 22.864 42.936 23.616C42.5253 24.368 41.9467 24.9547 41.2 25.376C40.4533 25.792 39.5733 26 38.56 26H35.616V15.952ZM36.864 17.056V24.912H38.56C39.3173 24.912 39.968 24.7413 40.512 24.4C41.0613 24.0587 41.4827 23.592 41.776 23C42.0747 22.4027 42.224 21.728 42.224 20.976C42.224 20.2187 42.0747 19.5467 41.776 18.96C41.4827 18.368 41.0613 17.904 40.512 17.568C39.968 17.2267 39.3173 17.056 38.56 17.056H36.864ZM49.1065 26.192C48.4185 26.192 47.8052 26.04 47.2665 25.736C46.7332 25.432 46.3118 24.9813 46.0025 24.384C45.6932 23.7867 45.5385 23.0507 45.5385 22.176C45.5385 21.296 45.6932 20.56 46.0025 19.968C46.3118 19.3707 46.7332 18.92 47.2665 18.616C47.8052 18.312 48.4185 18.16 49.1065 18.16C49.7892 18.16 50.3972 18.312 50.9305 18.616C51.4692 18.92 51.8905 19.3707 52.1945 19.968C52.5038 20.56 52.6585 21.296 52.6585 22.176C52.6585 23.0507 52.5038 23.7867 52.1945 24.384C51.8905 24.9813 51.4692 25.432 50.9305 25.736C50.3972 26.04 49.7892 26.192 49.1065 26.192ZM49.0745 25.104C49.5705 25.104 49.9918 24.9867 50.3385 24.752C50.6852 24.512 50.9465 24.1733 51.1225 23.736C51.3038 23.2987 51.3945 22.7787 51.3945 22.176C51.3945 21.264 51.2052 20.5467 50.8265 20.024C50.4478 19.496 49.8852 19.232 49.1385 19.232C48.6372 19.232 48.2132 19.352 47.8665 19.592C47.5252 19.8267 47.2638 20.1653 47.0825 20.608C46.9065 21.0453 46.8185 21.568 46.8185 22.176C46.8185 23.0773 47.0078 23.792 47.3865 24.32C47.7705 24.8427 48.3332 25.104 49.0745 25.104ZM57.9414 18.352H59.3334L61.8294 24.912H61.5414L63.4774 18.352H64.7574L61.8774 27.536C61.6374 28.304 61.3174 28.896 60.9174 29.312C60.5174 29.728 60.0054 29.936 59.3814 29.936C59.0454 29.936 58.7254 29.888 58.4214 29.792C58.1227 29.696 57.8134 29.5573 57.4934 29.376V28.224C57.776 28.448 58.048 28.608 58.3094 28.704C58.576 28.8 58.8534 28.848 59.1414 28.848C59.4614 28.848 59.728 28.7467 59.9414 28.544C60.16 28.3413 60.3414 28.08 60.4854 27.76C60.6294 27.4453 60.752 27.1147 60.8534 26.768L61.0774 26L57.9414 18.352ZM69.5865 26.192C68.8985 26.192 68.2852 26.04 67.7465 25.736C67.2132 25.432 66.7918 24.9813 66.4825 24.384C66.1732 23.7867 66.0185 23.0507 66.0185 22.176C66.0185 21.296 66.1732 20.56 66.4825 19.968C66.7918 19.3707 67.2132 18.92 67.7465 18.616C68.2852 18.312 68.8985 18.16 69.5865 18.16C70.2692 18.16 70.8772 18.312 71.4105 18.616C71.9492 18.92 72.3705 19.3707 72.6745 19.968C72.9838 20.56 73.1385 21.296 73.1385 22.176C73.1385 23.0507 72.9838 23.7867 72.6745 24.384C72.3705 24.9813 71.9492 25.432 71.4105 25.736C70.8772 26.04 70.2692 26.192 69.5865 26.192ZM69.5545 25.104C70.0505 25.104 70.4718 24.9867 70.8185 24.752C71.1652 24.512 71.4265 24.1733 71.6025 23.736C71.7838 23.2987 71.8745 22.7787 71.8745 22.176C71.8745 21.264 71.6852 20.5467 71.3065 20.024C70.9278 19.496 70.3652 19.232 69.6185 19.232C69.1172 19.232 68.6932 19.352 68.3465 19.592C68.0052 19.8267 67.7438 20.1653 67.5625 20.608C67.3865 21.0453 67.2985 21.568 67.2985 22.176C67.2985 23.0773 67.4878 23.792 67.8665 24.32C68.2505 24.8427 68.8132 25.104 69.5545 25.104ZM80.9285 18.336H82.1765V26H80.9285V18.336ZM75.5045 18.336H76.7525V23.104C76.7525 23.744 76.9072 24.2293 77.2165 24.56C77.5312 24.8907 77.9792 25.056 78.5605 25.056C79.0405 25.056 79.4565 24.928 79.8085 24.672C80.1658 24.416 80.4405 24.064 80.6325 23.616C80.8298 23.1627 80.9285 22.6453 80.9285 22.064H81.3925C81.3925 22.9227 81.2672 23.656 81.0165 24.264C80.7712 24.872 80.4218 25.3387 79.9685 25.664C79.5205 25.984 78.9925 26.144 78.3845 26.144C77.8085 26.144 77.3045 26.0373 76.8725 25.824C76.4405 25.6107 76.1045 25.288 75.8645 24.856C75.6245 24.4187 75.5045 23.8667 75.5045 23.2V18.336ZM88.2049 18.352H89.5009L91.4529 24.736H91.2929L93.1969 18.72H94.2369L96.1249 24.752H95.9809L97.9329 18.352H99.1809L96.6689 26H95.4529L93.5969 20.352H93.7889L91.9489 26H90.7329L88.2049 18.352ZM106.023 26L105.863 24.32V21.04C105.863 20.352 105.716 19.8587 105.423 19.56C105.129 19.256 104.689 19.104 104.103 19.104C103.772 19.104 103.471 19.152 103.199 19.248C102.932 19.344 102.719 19.4933 102.559 19.696C102.404 19.8933 102.327 20.1493 102.327 20.464H100.935C100.935 19.9093 101.071 19.464 101.343 19.128C101.615 18.7867 101.988 18.5413 102.463 18.392C102.943 18.2373 103.489 18.16 104.103 18.16C104.689 18.16 105.209 18.2587 105.663 18.456C106.116 18.6533 106.471 18.968 106.727 19.4C106.983 19.8267 107.111 20.384 107.111 21.072V26H106.023ZM103.415 26.192C102.785 26.192 102.265 26.08 101.855 25.856C101.444 25.632 101.137 25.3413 100.935 24.984C100.732 24.6267 100.631 24.2507 100.631 23.856C100.631 23.3387 100.759 22.9173 101.015 22.592C101.276 22.2667 101.631 22.0293 102.079 21.88C102.527 21.7253 103.031 21.648 103.591 21.648C103.991 21.648 104.391 21.688 104.791 21.768C105.196 21.848 105.591 21.9573 105.975 22.096V22.88C105.655 22.752 105.292 22.6507 104.887 22.576C104.487 22.5013 104.119 22.464 103.783 22.464C103.271 22.464 102.839 22.5707 102.487 22.784C102.135 22.992 101.959 23.3493 101.959 23.856C101.959 24.2293 102.092 24.5493 102.359 24.816C102.631 25.0827 103.063 25.216 103.655 25.216C104.071 25.216 104.444 25.12 104.775 24.928C105.111 24.7307 105.375 24.4853 105.567 24.192C105.764 23.8987 105.863 23.6053 105.863 23.312H106.167C106.167 23.824 106.055 24.2987 105.831 24.736C105.612 25.1733 105.297 25.5253 104.887 25.792C104.476 26.0587 103.985 26.192 103.415 26.192ZM115.699 26V21.504C115.699 20.7733 115.523 20.2187 115.171 19.84C114.824 19.456 114.35 19.264 113.747 19.264C113.288 19.264 112.891 19.3893 112.555 19.64C112.219 19.8907 111.96 20.2507 111.779 20.72C111.598 21.184 111.507 21.7387 111.507 22.384H111.027C111.027 21.4933 111.144 20.7333 111.379 20.104C111.614 19.4747 111.955 18.9947 112.403 18.664C112.856 18.328 113.406 18.16 114.051 18.16C114.654 18.16 115.168 18.296 115.595 18.568C116.027 18.8347 116.358 19.2187 116.587 19.72C116.816 20.2213 116.931 20.816 116.931 21.504V26H115.699ZM110.259 26V18.352H111.331L111.507 20.112V26H110.259ZM122.427 26.192C122.011 26.192 121.638 26.112 121.307 25.952C120.977 25.792 120.715 25.552 120.523 25.232C120.331 24.912 120.235 24.512 120.235 24.032V16.224H121.467V24C121.467 24.7893 121.835 25.184 122.571 25.184C122.79 25.184 123.001 25.16 123.203 25.112C123.411 25.064 123.643 24.992 123.899 24.896L124.075 25.792C123.803 25.9093 123.531 26.0053 123.259 26.08C122.993 26.1547 122.715 26.192 122.427 26.192ZM119.003 19.216V18.352H123.883V19.216H119.003ZM132.56 26.192C132.144 26.192 131.771 26.112 131.44 25.952C131.109 25.792 130.848 25.552 130.656 25.232C130.464 24.912 130.368 24.512 130.368 24.032V16.224H131.6V24C131.6 24.7893 131.968 25.184 132.704 25.184C132.923 25.184 133.133 25.16 133.336 25.112C133.544 25.064 133.776 24.992 134.032 24.896L134.208 25.792C133.936 25.9093 133.664 26.0053 133.392 26.08C133.125 26.1547 132.848 26.192 132.56 26.192ZM129.136 19.216V18.352H134.016V19.216H129.136ZM139.152 26.192C138.464 26.192 137.85 26.04 137.312 25.736C136.778 25.432 136.357 24.9813 136.048 24.384C135.738 23.7867 135.584 23.0507 135.584 22.176C135.584 21.296 135.738 20.56 136.048 19.968C136.357 19.3707 136.778 18.92 137.312 18.616C137.85 18.312 138.464 18.16 139.152 18.16C139.834 18.16 140.442 18.312 140.976 18.616C141.514 18.92 141.936 19.3707 142.24 19.968C142.549 20.56 142.704 21.296 142.704 22.176C142.704 23.0507 142.549 23.7867 142.24 24.384C141.936 24.9813 141.514 25.432 140.976 25.736C140.442 26.04 139.834 26.192 139.152 26.192ZM139.12 25.104C139.616 25.104 140.037 24.9867 140.384 24.752C140.73 24.512 140.992 24.1733 141.168 23.736C141.349 23.2987 141.44 22.7787 141.44 22.176C141.44 21.264 141.25 20.5467 140.872 20.024C140.493 19.496 139.93 19.232 139.184 19.232C138.682 19.232 138.258 19.352 137.912 19.592C137.57 19.8267 137.309 20.1653 137.128 20.608C136.952 21.0453 136.864 21.568 136.864 22.176C136.864 23.0773 137.053 23.792 137.432 24.32C137.816 24.8427 138.378 25.104 139.12 25.104ZM152.002 26.192C151.261 26.192 150.642 26.088 150.146 25.88C149.65 25.6667 149.274 25.376 149.018 25.008C148.762 24.6347 148.626 24.208 148.61 23.728H149.81C149.837 24.2133 150.032 24.5787 150.394 24.824C150.762 25.064 151.261 25.184 151.89 25.184C152.221 25.184 152.525 25.1307 152.802 25.024C153.08 24.9173 153.301 24.7707 153.466 24.584C153.632 24.3973 153.714 24.1867 153.714 23.952C153.714 23.6533 153.605 23.4187 153.386 23.248C153.168 23.0773 152.818 22.928 152.338 22.8L150.85 22.32C150.205 22.1173 149.709 21.84 149.362 21.488C149.021 21.1307 148.85 20.704 148.85 20.208C148.85 19.5893 149.122 19.0933 149.666 18.72C150.21 18.3467 150.925 18.16 151.81 18.16C152.749 18.16 153.477 18.352 153.994 18.736C154.512 19.12 154.781 19.6 154.802 20.176H153.57C153.522 19.84 153.352 19.5867 153.058 19.416C152.765 19.24 152.349 19.152 151.81 19.152C151.293 19.152 150.888 19.2693 150.594 19.504C150.306 19.7333 150.162 19.9893 150.162 20.272C150.162 20.8 150.616 21.1893 151.522 21.44L153.042 21.952C153.698 22.1493 154.2 22.408 154.546 22.728C154.898 23.048 155.074 23.456 155.074 23.952C155.074 24.336 154.949 24.6987 154.698 25.04C154.448 25.3813 154.093 25.6587 153.634 25.872C153.176 26.0853 152.632 26.192 152.002 26.192ZM162.553 26L162.393 24.32V21.04C162.393 20.352 162.246 19.8587 161.953 19.56C161.659 19.256 161.219 19.104 160.633 19.104C160.302 19.104 160.001 19.152 159.729 19.248C159.462 19.344 159.249 19.4933 159.089 19.696C158.934 19.8933 158.857 20.1493 158.857 20.464H157.465C157.465 19.9093 157.601 19.464 157.873 19.128C158.145 18.7867 158.518 18.5413 158.993 18.392C159.473 18.2373 160.019 18.16 160.633 18.16C161.219 18.16 161.739 18.2587 162.193 18.456C162.646 18.6533 163.001 18.968 163.257 19.4C163.513 19.8267 163.641 20.384 163.641 21.072V26H162.553ZM159.945 26.192C159.315 26.192 158.795 26.08 158.385 25.856C157.974 25.632 157.667 25.3413 157.465 24.984C157.262 24.6267 157.161 24.2507 157.161 23.856C157.161 23.3387 157.289 22.9173 157.545 22.592C157.806 22.2667 158.161 22.0293 158.609 21.88C159.057 21.7253 159.561 21.648 160.121 21.648C160.521 21.648 160.921 21.688 161.321 21.768C161.726 21.848 162.121 21.9573 162.505 22.096V22.88C162.185 22.752 161.822 22.6507 161.417 22.576C161.017 22.5013 160.649 22.464 160.313 22.464C159.801 22.464 159.369 22.5707 159.017 22.784C158.665 22.992 158.489 23.3493 158.489 23.856C158.489 24.2293 158.622 24.5493 158.889 24.816C159.161 25.0827 159.593 25.216 160.185 25.216C160.601 25.216 160.974 25.12 161.305 24.928C161.641 24.7307 161.905 24.4853 162.097 24.192C162.294 23.8987 162.393 23.6053 162.393 23.312H162.697C162.697 23.824 162.585 24.2987 162.361 24.736C162.142 25.1733 161.827 25.5253 161.417 25.792C161.006 26.0587 160.515 26.192 159.945 26.192ZM165.461 18.352H166.885L169.285 24.928H169.109L171.509 18.352H172.933L169.877 26H168.517L165.461 18.352ZM177.652 26.192C176.991 26.192 176.399 26.024 175.876 25.688C175.359 25.3467 174.948 24.8747 174.644 24.272C174.345 23.6693 174.196 22.976 174.196 22.192C174.196 21.3547 174.345 20.6347 174.644 20.032C174.943 19.4293 175.351 18.968 175.868 18.648C176.391 18.3227 176.985 18.16 177.652 18.16C178.233 18.16 178.729 18.2773 179.14 18.512C179.551 18.7467 179.881 19.064 180.132 19.464C180.383 19.864 180.556 20.3173 180.652 20.824C180.753 21.3253 180.783 21.8453 180.74 22.384H175.204V21.616H179.916L179.548 21.856C179.564 21.5413 179.545 21.2267 179.492 20.912C179.444 20.5973 179.351 20.3093 179.212 20.048C179.073 19.7813 178.879 19.568 178.628 19.408C178.377 19.248 178.057 19.168 177.668 19.168C177.177 19.168 176.767 19.2933 176.436 19.544C176.105 19.7947 175.857 20.1253 175.692 20.536C175.527 20.9413 175.444 21.3813 175.444 21.856V22.368C175.444 22.9013 175.524 23.3787 175.684 23.8C175.849 24.2213 176.095 24.5547 176.42 24.8C176.745 25.0453 177.156 25.168 177.652 25.168C178.148 25.168 178.556 25.048 178.876 24.808C179.196 24.568 179.391 24.2133 179.46 23.744H180.756C180.676 24.2507 180.495 24.688 180.212 25.056C179.929 25.4187 179.569 25.6987 179.132 25.896C178.695 26.0933 178.201 26.192 177.652 26.192ZM35.488 35.616H37.376V39.952H41.904V35.616H43.792V46H41.904V41.6H37.376V46H35.488V35.616ZM45.7932 46L49.3293 35.616H51.6973L55.0893 46H53.1053L52.3853 43.76H48.5292L47.7932 46H45.7932ZM49.0092 42.336H51.9373L50.4813 37.872L49.0092 42.336ZM56.7849 46V44.368L62.8169 36.672V37.36L56.7849 37.344V35.616H64.6409V37.232L58.9769 44.496L58.9289 44.256L64.6409 44.272V46H56.7849ZM67.3114 46V35.616H73.9834V37.248H69.1994V39.984H73.6954V41.616H69.1994V44.352H73.9834V46H67.3114ZM78.766 35.616V44.352H83.038V46H76.878V35.616H78.766ZM84.9122 35.616H86.9762L91.6962 43.024H91.5522V35.616H93.4402V46H91.5202L86.4962 38.144H86.8002V46H84.9122V35.616ZM96.413 35.616H98.301V42.08C98.301 42.9333 98.517 43.5493 98.949 43.928C99.3863 44.3067 99.9437 44.496 100.621 44.496C101.304 44.496 101.861 44.3067 102.293 43.928C102.725 43.5493 102.941 42.9333 102.941 42.08V35.616H104.829V42.08C104.829 42.9547 104.661 43.7013 104.325 44.32C103.989 44.9387 103.506 45.4107 102.877 45.736C102.253 46.0613 101.501 46.224 100.621 46.224C99.741 46.224 98.9863 46.0613 98.357 45.736C97.733 45.4107 97.253 44.9387 96.917 44.32C96.581 43.7013 96.413 42.9547 96.413 42.08V35.616ZM106.388 37.248V35.616H114.708V37.248H111.068L111.492 36.816V46H109.604V36.816L110.028 37.248H106.388ZM124.423 46.224C123.511 46.224 122.716 46.008 122.039 45.576C121.367 45.1387 120.844 44.5147 120.471 43.704C120.097 42.8933 119.911 41.92 119.911 40.784C119.911 39.6107 120.103 38.6267 120.487 37.832C120.876 37.032 121.409 36.4293 122.087 36.024C122.769 35.6133 123.548 35.408 124.423 35.408C125.633 35.408 126.577 35.7013 127.255 36.288C127.937 36.8747 128.375 37.6373 128.567 38.576L126.551 38.944C126.385 38.4 126.121 37.96 125.759 37.624C125.396 37.288 124.951 37.12 124.423 37.12C123.959 37.12 123.54 37.256 123.167 37.528C122.793 37.7947 122.495 38.2 122.271 38.744C122.052 39.288 121.943 39.968 121.943 40.784C121.943 41.552 122.039 42.2133 122.231 42.768C122.428 43.3227 122.711 43.7493 123.079 44.048C123.447 44.3467 123.895 44.496 124.423 44.496C125.1 44.496 125.623 44.3173 125.991 43.96C126.364 43.5973 126.551 43.136 126.551 42.576H128.567C128.567 43.3493 128.399 44.008 128.063 44.552C127.732 45.0907 127.257 45.504 126.639 45.792C126.02 46.08 125.281 46.224 124.423 46.224ZM129.811 46L133.347 35.616H135.715L139.107 46H137.123L136.403 43.76H132.547L131.811 46H129.811ZM133.027 42.336H135.955L134.499 37.872L133.027 42.336ZM147.123 35.616H149.715L142.867 42.624V40.048L147.123 35.616ZM144.819 39.904L150.003 46H147.571L143.507 41.136L144.819 39.904ZM141.123 35.616H143.027V46H141.123V35.616ZM151.736 46V35.616H158.408V37.248H153.624V39.984H158.12V41.616H153.624V44.352H158.408V46H151.736ZM165.509 46V35.616H169.349C170.592 35.616 171.544 35.9067 172.205 36.488C172.872 37.0693 173.205 37.84 173.205 38.8C173.205 39.744 172.872 40.5067 172.205 41.088C171.544 41.664 170.592 41.952 169.349 41.952H167.397V46H165.509ZM171.125 46L168.373 41.136H170.389L173.589 46H171.125ZM167.397 40.688H169.157C169.851 40.688 170.376 40.5307 170.733 40.216C171.091 39.896 171.269 39.4827 171.269 38.976C171.269 38.4587 171.107 38.0427 170.781 37.728C170.456 37.408 169.979 37.248 169.349 37.248H167.397V40.688ZM175.95 46V35.616H182.622V37.248H177.838V39.984H182.334V41.616H177.838V44.352H182.622V46H175.95ZM189.293 46.224C188.381 46.224 187.586 46.008 186.909 45.576C186.237 45.1387 185.714 44.5147 185.341 43.704C184.967 42.8933 184.781 41.92 184.781 40.784C184.781 39.6107 184.973 38.6267 185.357 37.832C185.746 37.032 186.279 36.4293 186.957 36.024C187.639 35.6133 188.418 35.408 189.293 35.408C190.503 35.408 191.447 35.7013 192.125 36.288C192.807 36.8747 193.245 37.6373 193.437 38.576L191.421 38.944C191.255 38.4 190.991 37.96 190.629 37.624C190.266 37.288 189.821 37.12 189.293 37.12C188.829 37.12 188.41 37.256 188.037 37.528C187.663 37.7947 187.365 38.2 187.141 38.744C186.922 39.288 186.813 39.968 186.813 40.784C186.813 41.552 186.909 42.2133 187.101 42.768C187.298 43.3227 187.581 43.7493 187.949 44.048C188.317 44.3467 188.765 44.496 189.293 44.496C189.97 44.496 190.493 44.3173 190.861 43.96C191.234 43.5973 191.421 43.136 191.421 42.576H193.437C193.437 43.3493 193.269 44.008 192.933 44.552C192.602 45.0907 192.127 45.504 191.509 45.792C190.89 46.08 190.151 46.224 189.293 46.224ZM195.817 46V35.616H197.705V46H195.817ZM200.804 46V35.616H204.468C205.636 35.616 206.546 35.904 207.196 36.48C207.852 37.056 208.18 37.872 208.18 38.928C208.18 39.9733 207.852 40.784 207.196 41.36C206.546 41.936 205.636 42.224 204.468 42.224H202.708V46H200.804ZM202.708 40.576H204.468C205.055 40.576 205.498 40.4213 205.796 40.112C206.095 39.8027 206.244 39.408 206.244 38.928C206.244 38.4373 206.095 38.0347 205.796 37.72C205.498 37.4053 205.055 37.248 204.468 37.248H202.708V40.576ZM210.278 46V35.616H216.95V37.248H212.166V39.984H216.662V41.616H212.166V44.352H216.95V46H210.278ZM39.088 66.192C38.528 66.192 38.04 66.064 37.624 65.808C37.2133 65.552 36.896 65.1787 36.672 64.688C36.448 64.192 36.336 63.5893 36.336 62.88H36.864C36.864 63.3547 36.9627 63.7547 37.16 64.08C37.3573 64.4053 37.6133 64.6533 37.928 64.824C38.248 64.9893 38.5867 65.072 38.944 65.072C39.328 65.072 39.696 64.9627 40.048 64.744C40.4 64.52 40.688 64.192 40.912 63.76C41.136 63.328 41.248 62.7947 41.248 62.16C41.248 61.552 41.144 61.032 40.936 60.6C40.7333 60.168 40.4587 59.8373 40.112 59.608C39.7653 59.3787 39.3813 59.264 38.96 59.264C38.5973 59.264 38.256 59.352 37.936 59.528C37.616 59.704 37.3573 59.9627 37.16 60.304C36.9627 60.64 36.864 61.056 36.864 61.552H36.336C36.336 60.8107 36.4587 60.1893 36.704 59.688C36.9493 59.1813 37.2827 58.8 37.704 58.544C38.1253 58.288 38.5973 58.16 39.12 58.16C39.7173 58.16 40.2747 58.32 40.792 58.64C41.3093 58.96 41.728 59.4187 42.048 60.016C42.368 60.6133 42.528 61.328 42.528 62.16C42.528 63.0027 42.3653 63.7253 42.04 64.328C41.72 64.9307 41.2987 65.392 40.776 65.712C40.2533 66.032 39.6907 66.192 39.088 66.192ZM35.616 69.76V58.352H36.656L36.864 60.144V69.76H35.616ZM49.8714 66L49.7114 64.32V61.04C49.7114 60.352 49.5647 59.8587 49.2714 59.56C48.978 59.256 48.538 59.104 47.9514 59.104C47.6207 59.104 47.3194 59.152 47.0474 59.248C46.7807 59.344 46.5674 59.4933 46.4074 59.696C46.2527 59.8933 46.1754 60.1493 46.1754 60.464H44.7834C44.7834 59.9093 44.9194 59.464 45.1914 59.128C45.4634 58.7867 45.8367 58.5413 46.3114 58.392C46.7914 58.2373 47.338 58.16 47.9514 58.16C48.538 58.16 49.058 58.2587 49.5114 58.456C49.9647 58.6533 50.3194 58.968 50.5754 59.4C50.8314 59.8267 50.9594 60.384 50.9594 61.072V66H49.8714ZM47.2634 66.192C46.634 66.192 46.114 66.08 45.7034 65.856C45.2927 65.632 44.986 65.3413 44.7834 64.984C44.5807 64.6267 44.4794 64.2507 44.4794 63.856C44.4794 63.3387 44.6074 62.9173 44.8634 62.592C45.1247 62.2667 45.4794 62.0293 45.9274 61.88C46.3754 61.7253 46.8794 61.648 47.4394 61.648C47.8394 61.648 48.2394 61.688 48.6394 61.768C49.0447 61.848 49.4394 61.9573 49.8234 62.096V62.88C49.5034 62.752 49.1407 62.6507 48.7354 62.576C48.3354 62.5013 47.9674 62.464 47.6314 62.464C47.1194 62.464 46.6874 62.5707 46.3354 62.784C45.9834 62.992 45.8074 63.3493 45.8074 63.856C45.8074 64.2293 45.9407 64.5493 46.2074 64.816C46.4794 65.0827 46.9114 65.216 47.5034 65.216C47.9194 65.216 48.2927 65.12 48.6234 64.928C48.9594 64.7307 49.2234 64.4853 49.4154 64.192C49.6127 63.8987 49.7114 63.6053 49.7114 63.312H50.0154C50.0154 63.824 49.9034 64.2987 49.6794 64.736C49.4607 65.1733 49.146 65.5253 48.7354 65.792C48.3247 66.0587 47.834 66.192 47.2634 66.192ZM56.8119 69.936C56.0279 69.936 55.3479 69.824 54.7719 69.6C54.1959 69.3813 53.7479 69.0853 53.4279 68.712C53.1132 68.344 52.9559 67.936 52.9559 67.488C52.9559 66.896 53.1719 66.4427 53.6039 66.128C54.0412 65.8187 54.6039 65.664 55.2919 65.664L55.9799 66.096C55.4039 66.096 54.9585 66.216 54.6439 66.456C54.3292 66.696 54.1719 67.024 54.1719 67.44C54.1719 67.856 54.3959 68.208 54.8439 68.496C55.2919 68.784 55.9479 68.928 56.8119 68.928C57.4519 68.928 58.0119 68.8347 58.4919 68.648C58.9772 68.4667 59.3532 68.2267 59.6199 67.928C59.8919 67.6347 60.0279 67.3173 60.0279 66.976C60.0279 66.736 59.9399 66.528 59.7639 66.352C59.5879 66.1813 59.3185 66.096 58.9559 66.096H55.9799C55.4625 66.096 55.0145 66.0187 54.6359 65.864C54.2625 65.704 53.9745 65.496 53.7719 65.24C53.5692 64.984 53.4679 64.704 53.4679 64.4C53.4679 64.08 53.5585 63.808 53.7399 63.584C53.9212 63.36 54.1559 63.1893 54.4439 63.072C54.7372 62.9547 55.0519 62.896 55.3879 62.896L55.6279 63.36C55.4679 63.36 55.3052 63.3973 55.1399 63.472C54.9799 63.5413 54.8439 63.648 54.7319 63.792C54.6252 63.9307 54.5719 64.1067 54.5719 64.32C54.5719 64.5653 54.6732 64.7707 54.8759 64.936C55.0785 65.1013 55.4465 65.184 55.9799 65.184H58.9559C59.6759 65.184 60.2412 65.336 60.6519 65.64C61.0679 65.944 61.2759 66.368 61.2759 66.912C61.2759 67.4133 61.0972 67.8933 60.7399 68.352C60.3825 68.816 59.8705 69.1947 59.2039 69.488C58.5372 69.7867 57.7399 69.936 56.8119 69.936ZM57.0359 63.76C56.4492 63.76 55.9185 63.6427 55.4439 63.408C54.9745 63.1733 54.6012 62.8453 54.3239 62.424C54.0519 62.0027 53.9159 61.5147 53.9159 60.96C53.9159 60.4 54.0519 59.9093 54.3239 59.488C54.6012 59.0667 54.9745 58.7413 55.4439 58.512C55.9185 58.2773 56.4492 58.16 57.0359 58.16C57.6065 58.16 58.1239 58.2773 58.5879 58.512C59.0572 58.7413 59.4305 59.0667 59.7079 59.488C59.9852 59.9093 60.1239 60.4 60.1239 60.96C60.1239 61.5147 59.9852 62.0027 59.7079 62.424C59.4305 62.8453 59.0572 63.1733 58.5879 63.408C58.1239 63.6427 57.6065 63.76 57.0359 63.76ZM57.0359 62.864C57.6225 62.864 58.0785 62.6827 58.4039 62.32C58.7292 61.9573 58.8919 61.504 58.8919 60.96C58.8919 60.4 58.7292 59.9467 58.4039 59.6C58.0785 59.248 57.6225 59.072 57.0359 59.072C56.4545 59.072 55.9959 59.248 55.6599 59.6C55.3292 59.9467 55.1639 60.4 55.1639 60.96C55.1639 61.504 55.3292 61.9573 55.6599 62.32C55.9959 62.6827 56.4545 62.864 57.0359 62.864ZM59.5479 59.376L58.9559 59.136C58.9559 58.688 59.0439 58.296 59.2199 57.96C59.3959 57.6187 59.6465 57.3547 59.9719 57.168C60.2972 56.976 60.6839 56.88 61.1319 56.88L61.0359 58.112C60.5559 58.112 60.1879 58.216 59.9319 58.424C59.6759 58.6267 59.5479 58.944 59.5479 59.376ZM65.9551 66.192C65.2938 66.192 64.7018 66.024 64.1791 65.688C63.6618 65.3467 63.2511 64.8747 62.9471 64.272C62.6485 63.6693 62.4991 62.976 62.4991 62.192C62.4991 61.3547 62.6485 60.6347 62.9471 60.032C63.2458 59.4293 63.6538 58.968 64.1711 58.648C64.6938 58.3227 65.2885 58.16 65.9551 58.16C66.5365 58.16 67.0325 58.2773 67.4431 58.512C67.8538 58.7467 68.1845 59.064 68.4351 59.464C68.6858 59.864 68.8591 60.3173 68.9551 60.824C69.0565 61.3253 69.0858 61.8453 69.0431 62.384H63.5071V61.616H68.2191L67.8511 61.856C67.8671 61.5413 67.8485 61.2267 67.7951 60.912C67.7471 60.5973 67.6538 60.3093 67.5151 60.048C67.3765 59.7813 67.1818 59.568 66.9311 59.408C66.6805 59.248 66.3605 59.168 65.9711 59.168C65.4805 59.168 65.0698 59.2933 64.7391 59.544C64.4085 59.7947 64.1605 60.1253 63.9951 60.536C63.8298 60.9413 63.7471 61.3813 63.7471 61.856V62.368C63.7471 62.9013 63.8271 63.3787 63.9871 63.8C64.1525 64.2213 64.3978 64.5547 64.7231 64.8C65.0485 65.0453 65.4591 65.168 65.9551 65.168C66.4511 65.168 66.8591 65.048 67.1791 64.808C67.4991 64.568 67.6938 64.2133 67.7631 63.744H69.0591C68.9791 64.2507 68.7978 64.688 68.5151 65.056C68.2325 65.4187 67.8725 65.6987 67.4351 65.896C66.9978 66.0933 66.5045 66.192 65.9551 66.192ZM80.3707 66L80.2107 64.32V61.04C80.2107 60.352 80.0641 59.8587 79.7707 59.56C79.4774 59.256 79.0374 59.104 78.4507 59.104C78.1201 59.104 77.8187 59.152 77.5467 59.248C77.2801 59.344 77.0667 59.4933 76.9067 59.696C76.7521 59.8933 76.6747 60.1493 76.6747 60.464H75.2827C75.2827 59.9093 75.4187 59.464 75.6907 59.128C75.9627 58.7867 76.3361 58.5413 76.8107 58.392C77.2907 58.2373 77.8374 58.16 78.4507 58.16C79.0374 58.16 79.5574 58.2587 80.0107 58.456C80.4641 58.6533 80.8187 58.968 81.0747 59.4C81.3307 59.8267 81.4587 60.384 81.4587 61.072V66H80.3707ZM77.7627 66.192C77.1334 66.192 76.6134 66.08 76.2027 65.856C75.7921 65.632 75.4854 65.3413 75.2827 64.984C75.0801 64.6267 74.9787 64.2507 74.9787 63.856C74.9787 63.3387 75.1067 62.9173 75.3627 62.592C75.6241 62.2667 75.9787 62.0293 76.4267 61.88C76.8747 61.7253 77.3787 61.648 77.9387 61.648C78.3387 61.648 78.7387 61.688 79.1387 61.768C79.5441 61.848 79.9387 61.9573 80.3227 62.096V62.88C80.0027 62.752 79.6401 62.6507 79.2347 62.576C78.8347 62.5013 78.4667 62.464 78.1307 62.464C77.6187 62.464 77.1867 62.5707 76.8347 62.784C76.4827 62.992 76.3067 63.3493 76.3067 63.856C76.3067 64.2293 76.4401 64.5493 76.7067 64.816C76.9787 65.0827 77.4107 65.216 78.0027 65.216C78.4187 65.216 78.7921 65.12 79.1227 64.928C79.4587 64.7307 79.7227 64.4853 79.9147 64.192C80.1121 63.8987 80.2107 63.6053 80.2107 63.312H80.5147C80.5147 63.824 80.4027 64.2987 80.1787 64.736C79.9601 65.1733 79.6454 65.5253 79.2347 65.792C78.8241 66.0587 78.3334 66.192 77.7627 66.192ZM87.3592 66.192C86.6179 66.192 85.9992 66.088 85.5032 65.88C85.0072 65.6667 84.6312 65.376 84.3752 65.008C84.1192 64.6347 83.9832 64.208 83.9672 63.728H85.1672C85.1939 64.2133 85.3886 64.5787 85.7512 64.824C86.1192 65.064 86.6179 65.184 87.2472 65.184C87.5779 65.184 87.8819 65.1307 88.1592 65.024C88.4366 64.9173 88.6579 64.7707 88.8232 64.584C88.9886 64.3973 89.0712 64.1867 89.0712 63.952C89.0712 63.6533 88.9619 63.4187 88.7432 63.248C88.5246 63.0773 88.1752 62.928 87.6952 62.8L86.2072 62.32C85.5619 62.1173 85.0659 61.84 84.7192 61.488C84.3779 61.1307 84.2072 60.704 84.2072 60.208C84.2072 59.5893 84.4792 59.0933 85.0232 58.72C85.5672 58.3467 86.2819 58.16 87.1672 58.16C88.1059 58.16 88.8339 58.352 89.3512 58.736C89.8686 59.12 90.1379 59.6 90.1592 60.176H88.9272C88.8792 59.84 88.7086 59.5867 88.4152 59.416C88.1219 59.24 87.7059 59.152 87.1672 59.152C86.6499 59.152 86.2446 59.2693 85.9512 59.504C85.6632 59.7333 85.5192 59.9893 85.5192 60.272C85.5192 60.8 85.9726 61.1893 86.8792 61.44L88.3992 61.952C89.0552 62.1493 89.5566 62.408 89.9032 62.728C90.2552 63.048 90.4312 63.456 90.4312 63.952C90.4312 64.336 90.3059 64.6987 90.0552 65.04C89.8046 65.3813 89.4499 65.6587 88.9912 65.872C88.5326 66.0853 87.9886 66.192 87.3592 66.192ZM101.866 66L101.706 64.32V61.04C101.706 60.352 101.56 59.8587 101.266 59.56C100.973 59.256 100.533 59.104 99.9464 59.104C99.6157 59.104 99.3144 59.152 99.0424 59.248C98.7757 59.344 98.5624 59.4933 98.4024 59.696C98.2477 59.8933 98.1704 60.1493 98.1704 60.464H96.7784C96.7784 59.9093 96.9144 59.464 97.1864 59.128C97.4584 58.7867 97.8317 58.5413 98.3064 58.392C98.7864 58.2373 99.333 58.16 99.9464 58.16C100.533 58.16 101.053 58.2587 101.506 58.456C101.96 58.6533 102.314 58.968 102.57 59.4C102.826 59.8267 102.954 60.384 102.954 61.072V66H101.866ZM99.2584 66.192C98.629 66.192 98.109 66.08 97.6984 65.856C97.2877 65.632 96.981 65.3413 96.7784 64.984C96.5757 64.6267 96.4744 64.2507 96.4744 63.856C96.4744 63.3387 96.6024 62.9173 96.8584 62.592C97.1197 62.2667 97.4744 62.0293 97.9224 61.88C98.3704 61.7253 98.8744 61.648 99.4344 61.648C99.8344 61.648 100.234 61.688 100.634 61.768C101.04 61.848 101.434 61.9573 101.818 62.096V62.88C101.498 62.752 101.136 62.6507 100.73 62.576C100.33 62.5013 99.9624 62.464 99.6264 62.464C99.1144 62.464 98.6824 62.5707 98.3304 62.784C97.9784 62.992 97.8024 63.3493 97.8024 63.856C97.8024 64.2293 97.9357 64.5493 98.2024 64.816C98.4744 65.0827 98.9064 65.216 99.4984 65.216C99.9144 65.216 100.288 65.12 100.618 64.928C100.954 64.7307 101.218 64.4853 101.41 64.192C101.608 63.8987 101.706 63.6053 101.706 63.312H102.01C102.01 63.824 101.898 64.2987 101.674 64.736C101.456 65.1733 101.141 65.5253 100.73 65.792C100.32 66.0587 99.829 66.192 99.2584 66.192ZM113.564 66.192C113.052 66.192 112.588 66.0587 112.172 65.792C111.761 65.5253 111.433 65.136 111.188 64.624C110.948 64.1067 110.828 63.4773 110.828 62.736H111.308C111.308 63.232 111.409 63.656 111.612 64.008C111.82 64.3547 112.086 64.6187 112.412 64.8C112.737 64.9813 113.078 65.072 113.436 65.072C113.846 65.072 114.222 64.9547 114.564 64.72C114.905 64.4853 115.177 64.1493 115.38 63.712C115.588 63.2747 115.692 62.752 115.692 62.144C115.692 61.5467 115.59 61.0347 115.388 60.608C115.185 60.176 114.91 59.8453 114.564 59.616C114.222 59.3813 113.841 59.264 113.42 59.264C113.057 59.264 112.713 59.3547 112.388 59.536C112.068 59.712 111.806 59.9733 111.604 60.32C111.406 60.6667 111.308 61.0933 111.308 61.6H110.828C110.828 60.8747 110.945 60.256 111.18 59.744C111.42 59.232 111.75 58.84 112.172 58.568C112.593 58.296 113.084 58.16 113.644 58.16C114.246 58.16 114.798 58.3227 115.3 58.648C115.806 58.968 116.212 59.4267 116.516 60.024C116.82 60.6213 116.972 61.328 116.972 62.144C116.972 62.9653 116.817 63.68 116.508 64.288C116.198 64.8907 115.785 65.36 115.268 65.696C114.75 66.0267 114.182 66.192 113.564 66.192ZM110.06 66V55.088H111.308V64.208L110.94 66H110.06ZM122.472 66.192C121.784 66.192 121.171 66.04 120.632 65.736C120.099 65.432 119.677 64.9813 119.368 64.384C119.059 63.7867 118.904 63.0507 118.904 62.176C118.904 61.296 119.059 60.56 119.368 59.968C119.677 59.3707 120.099 58.92 120.632 58.616C121.171 58.312 121.784 58.16 122.472 58.16C123.155 58.16 123.763 58.312 124.296 58.616C124.835 58.92 125.256 59.3707 125.56 59.968C125.869 60.56 126.024 61.296 126.024 62.176C126.024 63.0507 125.869 63.7867 125.56 64.384C125.256 64.9813 124.835 65.432 124.296 65.736C123.763 66.04 123.155 66.192 122.472 66.192ZM122.44 65.104C122.936 65.104 123.357 64.9867 123.704 64.752C124.051 64.512 124.312 64.1733 124.488 63.736C124.669 63.2987 124.76 62.7787 124.76 62.176C124.76 61.264 124.571 60.5467 124.192 60.024C123.813 59.496 123.251 59.232 122.504 59.232C122.003 59.232 121.579 59.352 121.232 59.592C120.891 59.8267 120.629 60.1653 120.448 60.608C120.272 61.0453 120.184 61.568 120.184 62.176C120.184 63.0773 120.373 63.792 120.752 64.32C121.136 64.8427 121.699 65.104 122.44 65.104ZM131.382 66.192C130.694 66.192 130.081 66.04 129.542 65.736C129.009 65.432 128.587 64.9813 128.278 64.384C127.969 63.7867 127.814 63.0507 127.814 62.176C127.814 61.296 127.969 60.56 128.278 59.968C128.587 59.3707 129.009 58.92 129.542 58.616C130.081 58.312 130.694 58.16 131.382 58.16C132.065 58.16 132.673 58.312 133.206 58.616C133.745 58.92 134.166 59.3707 134.47 59.968C134.779 60.56 134.934 61.296 134.934 62.176C134.934 63.0507 134.779 63.7867 134.47 64.384C134.166 64.9813 133.745 65.432 133.206 65.736C132.673 66.04 132.065 66.192 131.382 66.192ZM131.35 65.104C131.846 65.104 132.267 64.9867 132.614 64.752C132.961 64.512 133.222 64.1733 133.398 63.736C133.579 63.2987 133.67 62.7787 133.67 62.176C133.67 61.264 133.481 60.5467 133.102 60.024C132.723 59.496 132.161 59.232 131.414 59.232C130.913 59.232 130.489 59.352 130.142 59.592C129.801 59.8267 129.539 60.1653 129.358 60.608C129.182 61.0453 129.094 61.568 129.094 62.176C129.094 63.0773 129.283 63.792 129.662 64.32C130.046 64.8427 130.609 65.104 131.35 65.104ZM137.524 66V55.088H138.772V66H137.524ZM138.58 61.616L142.484 58.352H144.228L138.58 62.944V61.616ZM142.868 66L139.236 61.168L140.5 60.944L144.404 66H142.868ZM157.452 66V61.504C157.452 60.7733 157.276 60.2187 156.924 59.84C156.577 59.456 156.108 59.264 155.516 59.264C154.822 59.264 154.292 59.5333 153.924 60.072C153.556 60.6053 153.372 61.344 153.372 62.288H152.796C152.796 61.6 152.862 60.9973 152.996 60.48C153.134 59.9627 153.334 59.5333 153.596 59.192C153.857 58.8453 154.174 58.5867 154.548 58.416C154.921 58.2453 155.345 58.16 155.82 58.16C156.422 58.16 156.937 58.296 157.364 58.568C157.796 58.8347 158.126 59.2187 158.356 59.72C158.585 60.2213 158.7 60.816 158.7 61.504V66H157.452ZM146.7 66V58.352H147.772L147.916 59.888C148.156 59.3333 148.492 58.9067 148.924 58.608C149.361 58.3093 149.884 58.16 150.492 58.16C151.094 58.16 151.609 58.296 152.036 58.568C152.468 58.8347 152.798 59.2187 153.028 59.72C153.257 60.2213 153.372 60.816 153.372 61.504V66H152.14V61.504C152.14 60.7733 151.964 60.2187 151.612 59.84C151.265 59.456 150.79 59.264 150.188 59.264C149.729 59.264 149.332 59.3893 148.996 59.64C148.66 59.8907 148.401 60.2507 148.22 60.72C148.038 61.184 147.948 61.7387 147.948 62.384V66H146.7ZM166.565 66L166.405 64.32V61.04C166.405 60.352 166.258 59.8587 165.965 59.56C165.671 59.256 165.231 59.104 164.645 59.104C164.314 59.104 164.013 59.152 163.741 59.248C163.474 59.344 163.261 59.4933 163.101 59.696C162.946 59.8933 162.869 60.1493 162.869 60.464H161.477C161.477 59.9093 161.613 59.464 161.885 59.128C162.157 58.7867 162.53 58.5413 163.005 58.392C163.485 58.2373 164.031 58.16 164.645 58.16C165.231 58.16 165.751 58.2587 166.205 58.456C166.658 58.6533 167.013 58.968 167.269 59.4C167.525 59.8267 167.653 60.384 167.653 61.072V66H166.565ZM163.957 66.192C163.327 66.192 162.807 66.08 162.397 65.856C161.986 65.632 161.679 65.3413 161.477 64.984C161.274 64.6267 161.173 64.2507 161.173 63.856C161.173 63.3387 161.301 62.9173 161.557 62.592C161.818 62.2667 162.173 62.0293 162.621 61.88C163.069 61.7253 163.573 61.648 164.133 61.648C164.533 61.648 164.933 61.688 165.333 61.768C165.738 61.848 166.133 61.9573 166.517 62.096V62.88C166.197 62.752 165.834 62.6507 165.429 62.576C165.029 62.5013 164.661 62.464 164.325 62.464C163.813 62.464 163.381 62.5707 163.029 62.784C162.677 62.992 162.501 63.3493 162.501 63.856C162.501 64.2293 162.634 64.5493 162.901 64.816C163.173 65.0827 163.605 65.216 164.197 65.216C164.613 65.216 164.986 65.12 165.317 64.928C165.653 64.7307 165.917 64.4853 166.109 64.192C166.306 63.8987 166.405 63.6053 166.405 63.312H166.709C166.709 63.824 166.597 64.2987 166.373 64.736C166.154 65.1733 165.839 65.5253 165.429 65.792C165.018 66.0587 164.527 66.192 163.957 66.192ZM170.801 66V58.336H172.049V66H170.801ZM171.665 62.544C171.665 61.5733 171.758 60.768 171.945 60.128C172.132 59.4827 172.404 59.0027 172.761 58.688C173.124 58.368 173.564 58.208 174.081 58.208C174.252 58.208 174.406 58.2213 174.545 58.248C174.689 58.2693 174.833 58.304 174.977 58.352L174.897 59.584C174.748 59.536 174.585 59.496 174.409 59.464C174.233 59.4267 174.076 59.408 173.937 59.408C173.484 59.408 173.118 59.5387 172.841 59.8C172.564 60.056 172.361 60.4187 172.233 60.888C172.11 61.3573 172.049 61.9093 172.049 62.544H171.665ZM176.742 66V55.088H177.99V66H176.742ZM177.798 61.616L181.702 58.352H183.446L177.798 62.944V61.616ZM182.086 66L178.454 61.168L179.718 60.944L183.622 66H182.086ZM187.134 63.44V62.72C187.134 62.256 187.182 61.8747 187.278 61.576C187.379 61.2773 187.545 61.0187 187.774 60.8C188.003 60.5813 188.318 60.3627 188.718 60.144C189.075 59.952 189.361 59.7733 189.574 59.608C189.787 59.4427 189.939 59.264 190.03 59.072C190.126 58.88 190.174 58.6453 190.174 58.368C190.174 57.952 190.003 57.6053 189.662 57.328C189.326 57.0507 188.862 56.912 188.27 56.912C187.614 56.912 187.113 57.0427 186.766 57.304C186.419 57.56 186.201 57.92 186.11 58.384H184.782C184.857 57.6053 185.182 56.976 185.758 56.496C186.339 56.016 187.166 55.776 188.238 55.776C188.921 55.776 189.507 55.896 189.998 56.136C190.494 56.3707 190.873 56.688 191.134 57.088C191.401 57.4827 191.534 57.92 191.534 58.4C191.534 58.9493 191.395 59.4107 191.118 59.784C190.841 60.152 190.393 60.5013 189.774 60.832C189.417 61.0293 189.134 61.2133 188.926 61.384C188.723 61.5493 188.579 61.7413 188.494 61.96C188.409 62.1733 188.366 62.4533 188.366 62.8V63.44H187.134ZM187.774 66.192C187.507 66.192 187.286 66.1067 187.11 65.936C186.934 65.76 186.846 65.5493 186.846 65.304C186.846 65.0533 186.931 64.8373 187.102 64.656C187.278 64.4747 187.499 64.384 187.766 64.384C188.033 64.384 188.259 64.4747 188.446 64.656C188.638 64.832 188.734 65.0453 188.734 65.296C188.734 65.5413 188.641 65.752 188.454 65.928C188.267 66.104 188.041 66.192 187.774 66.192Z" fill="#333333"/>
</g>
<defs>
<filter id="filter0_d_7031_5648" x="3.05176e-05" y="0" width="261.767" height="91" filterUnits="userSpaceOnUse" color-interpolation-filters="sRGB">
<feFlood flood-opacity="0" result="BackgroundImageFix"/>
<feColorMatrix in="SourceAlpha" type="matrix" values="0 0 0 0 0 0 0 0 0 0 0 0 0 0 0 0 0 0 127 0" result="hardAlpha"/>
<feOffset dy="4"/>
<feGaussianBlur stdDeviation="3"/>
<feComposite in2="hardAlpha" operator="out"/>
<feColorMatrix type="matrix" values="0 0 0 0 0 0 0 0 0 0 0 0 0 0 0 0 0 0 0.1 0"/>
<feBlend mode="normal" in2="BackgroundImageFix" result="effect1_dropShadow_7031_5648"/>
<feBlend mode="normal" in="SourceGraphic" in2="effect1_dropShadow_7031_5648" result="shape"/>
</filter>
</defs>
</svg>
