<svg width="256" height="68" viewBox="0 0 256 68" fill="none" xmlns="http://www.w3.org/2000/svg">
<mask id="path-1-inside-1_7093_6101" fill="white">
<path d="M248.724 27.3669L239 19L239 11C239 6.02944 234.971 2 230 2L9.00022 1.99998C4.02965 1.99998 0.000218166 6.02942 0.000217732 11L0.00021441 49C0.000213975 53.9705 4.02965 58 9.00021 58L230 58C234.971 58 239 53.9706 239 49L239 39.5L248.612 32.0069C250.106 30.8425 250.16 28.6022 248.724 27.3669Z"/>
</mask>
<path d="M248.724 27.3669L239 19L239 11C239 6.02944 234.971 2 230 2L9.00022 1.99998C4.02965 1.99998 0.000218166 6.02942 0.000217732 11L0.00021441 49C0.000213975 53.9705 4.02965 58 9.00021 58L230 58C234.971 58 239 53.9706 239 49L239 39.5L248.612 32.0069C250.106 30.8425 250.16 28.6022 248.724 27.3669Z" fill="white"/>
<path d="M239 19L237.6 19L237.6 19.6423L238.087 20.0612L239 19ZM248.724 27.3669L249.637 26.3056L249.637 26.3056L248.724 27.3669ZM248.612 32.0069L247.751 30.9028L247.751 30.9028L248.612 32.0069ZM239 39.5L238.139 38.3959L237.6 38.8162L237.6 39.5L239 39.5ZM238.087 20.0612L247.811 28.4281L249.637 26.3056L239.913 17.9388L238.087 20.0612ZM247.751 30.9028L238.139 38.3959L239.861 40.6041L249.473 33.1111L247.751 30.9028ZM247.811 28.4281C248.577 29.0869 248.548 30.2817 247.751 30.9028L249.473 33.1111C251.664 31.4032 251.743 28.1175 249.637 26.3056L247.811 28.4281ZM230 56.6L9.00021 56.6L9.00021 59.4L230 59.4L230 56.6ZM1.40021 49L1.40022 11L-1.39978 11L-1.39979 49L1.40021 49ZM9.00022 3.39998L230 3.4L230 0.599998L9.00022 0.599979L9.00022 3.39998ZM237.6 39.5L237.6 49L240.4 49L240.4 39.5L237.6 39.5ZM237.6 11L237.6 19L240.4 19L240.4 11L237.6 11ZM230 3.4C234.198 3.4 237.6 6.80264 237.6 11L240.4 11C240.4 5.25624 235.744 0.599999 230 0.599998L230 3.4ZM1.40022 11C1.40022 6.80261 4.80285 3.39998 9.00022 3.39998L9.00022 0.599979C3.25645 0.599978 -1.39978 5.25622 -1.39978 11L1.40022 11ZM9.00021 56.6C4.80285 56.6 1.40021 53.1973 1.40021 49L-1.39979 49C-1.39979 54.7437 3.25645 59.4 9.00021 59.4L9.00021 56.6ZM230 59.4C235.744 59.4 240.4 54.7438 240.4 49L237.6 49C237.6 53.1974 234.198 56.6 230 56.6L230 59.4Z" fill="white" mask="url(#path-1-inside-1_7093_6101)"/>
<g filter="url(#filter0_d_7093_6101)">
<mask id="path-3-inside-2_7093_6101" fill="white">
<path d="M248.724 27.3669L239 19L239 11C239 6.02944 234.971 2 230 2L34.0002 1.99998C29.0297 1.99998 25.0002 6.02942 25.0002 11L25.0002 49C25.0002 53.9705 29.0296 58 34.0002 58L230 58C234.971 58 239 53.9706 239 49L239 39.5L248.612 32.0069C250.106 30.8425 250.16 28.6022 248.724 27.3669Z"/>
</mask>
<path d="M248.724 27.3669L239 19L239 11C239 6.02944 234.971 2 230 2L34.0002 1.99998C29.0297 1.99998 25.0002 6.02942 25.0002 11L25.0002 49C25.0002 53.9705 29.0296 58 34.0002 58L230 58C234.971 58 239 53.9706 239 49L239 39.5L248.612 32.0069C250.106 30.8425 250.16 28.6022 248.724 27.3669Z" fill="white"/>
<path d="M239 19L237.6 19L237.6 19.6423L238.087 20.0612L239 19ZM248.724 27.3669L249.637 26.3056L249.637 26.3056L248.724 27.3669ZM248.612 32.0069L247.751 30.9028L247.751 30.9028L248.612 32.0069ZM239 39.5L238.139 38.3959L237.6 38.8162L237.6 39.5L239 39.5ZM230 58L230 59.4L230 58ZM34.0002 58L34.0002 56.6L34.0002 58ZM238.087 20.0612L247.811 28.4281L249.637 26.3056L239.913 17.9388L238.087 20.0612ZM247.751 30.9028L238.139 38.3959L239.861 40.6041L249.473 33.1111L247.751 30.9028ZM247.811 28.4281C248.577 29.0869 248.548 30.2817 247.751 30.9028L249.473 33.1111C251.664 31.4032 251.743 28.1175 249.637 26.3056L247.811 28.4281ZM230 56.6L34.0002 56.6L34.0002 59.4L230 59.4L230 56.6ZM26.4002 49L26.4002 11L23.6002 11L23.6002 49L26.4002 49ZM34.0002 3.39998L230 3.4L230 0.599998L34.0002 0.599981L34.0002 3.39998ZM237.6 39.5L237.6 49L240.4 49L240.4 39.5L237.6 39.5ZM237.6 11L237.6 19L240.4 19L240.4 11L237.6 11ZM230 3.4C234.198 3.4 237.6 6.80264 237.6 11L240.4 11C240.4 5.25624 235.744 0.599999 230 0.599998L230 3.4ZM26.4002 11C26.4002 6.80262 29.8029 3.39998 34.0002 3.39998L34.0002 0.599981C28.2565 0.599981 23.6002 5.25622 23.6002 11L26.4002 11ZM34.0002 56.6C29.8028 56.6 26.4002 53.1973 26.4002 49L23.6002 49C23.6002 54.7437 28.2564 59.4 34.0002 59.4L34.0002 56.6ZM230 59.4C235.744 59.4 240.4 54.7438 240.4 49L237.6 49C237.6 53.1974 234.198 56.6 230 56.6L230 59.4Z" fill="#333333" mask="url(#path-3-inside-2_7093_6101)"/>
</g>
<g filter="url(#filter1_d_7093_6101)">
<path d="M67.404 25.692C66.5187 25.692 65.756 25.4707 65.116 25.028C64.476 24.58 63.9827 23.9613 63.636 23.172C63.2893 22.3773 63.116 21.4573 63.116 20.412C63.116 19.2973 63.3027 18.3587 63.676 17.596C64.0547 16.8333 64.5667 16.2573 65.212 15.868C65.8627 15.4733 66.5933 15.276 67.404 15.276C68.476 15.276 69.3373 15.5453 69.988 16.084C70.644 16.6173 71.0947 17.3133 71.34 18.172L69.996 18.444C69.788 17.82 69.4547 17.324 68.996 16.956C68.5427 16.5827 68.012 16.396 67.404 16.396C66.876 16.396 66.388 16.548 65.94 16.852C65.4973 17.1507 65.14 17.5987 64.868 18.196C64.596 18.7933 64.46 19.532 64.46 20.412C64.46 21.212 64.5667 21.924 64.78 22.548C64.9987 23.172 65.324 23.6627 65.756 24.02C66.1933 24.3773 66.7427 24.556 67.404 24.556C68.1987 24.556 68.828 24.3427 69.292 23.916C69.7613 23.4893 69.996 22.9293 69.996 22.236H71.356C71.356 22.956 71.1907 23.5747 70.86 24.092C70.5293 24.604 70.0653 24.9987 69.468 25.276C68.876 25.5533 68.188 25.692 67.404 25.692ZM78.6245 25.5L78.4645 23.82V20.54C78.4645 19.852 78.3178 19.3587 78.0245 19.06C77.7312 18.756 77.2912 18.604 76.7045 18.604C76.3738 18.604 76.0725 18.652 75.8005 18.748C75.5338 18.844 75.3205 18.9933 75.1605 19.196C75.0058 19.3933 74.9285 19.6493 74.9285 19.964H73.5365C73.5365 19.4093 73.6725 18.964 73.9445 18.628C74.2165 18.2867 74.5898 18.0413 75.0645 17.892C75.5445 17.7373 76.0912 17.66 76.7045 17.66C77.2912 17.66 77.8112 17.7587 78.2645 17.956C78.7178 18.1533 79.0725 18.468 79.3285 18.9C79.5845 19.3267 79.7125 19.884 79.7125 20.572V25.5H78.6245ZM76.0165 25.692C75.3872 25.692 74.8672 25.58 74.4565 25.356C74.0458 25.132 73.7392 24.8413 73.5365 24.484C73.3338 24.1267 73.2325 23.7507 73.2325 23.356C73.2325 22.8387 73.3605 22.4173 73.6165 22.092C73.8778 21.7667 74.2325 21.5293 74.6805 21.38C75.1285 21.2253 75.6325 21.148 76.1925 21.148C76.5925 21.148 76.9925 21.188 77.3925 21.268C77.7978 21.348 78.1925 21.4573 78.5765 21.596V22.38C78.2565 22.252 77.8938 22.1507 77.4885 22.076C77.0885 22.0013 76.7205 21.964 76.3845 21.964C75.8725 21.964 75.4405 22.0707 75.0885 22.284C74.7365 22.492 74.5605 22.8493 74.5605 23.356C74.5605 23.7293 74.6938 24.0493 74.9605 24.316C75.2325 24.5827 75.6645 24.716 76.2565 24.716C76.6725 24.716 77.0458 24.62 77.3765 24.428C77.7125 24.2307 77.9765 23.9853 78.1685 23.692C78.3658 23.3987 78.4645 23.1053 78.4645 22.812H78.7685C78.7685 23.324 78.6565 23.7987 78.4325 24.236C78.2138 24.6733 77.8992 25.0253 77.4885 25.292C77.0778 25.5587 76.5872 25.692 76.0165 25.692ZM88.301 25.5V21.004C88.301 20.2733 88.125 19.7187 87.773 19.34C87.4263 18.956 86.9517 18.764 86.349 18.764C85.8903 18.764 85.493 18.8893 85.157 19.14C84.821 19.3907 84.5623 19.7507 84.381 20.22C84.1997 20.684 84.109 21.2387 84.109 21.884H83.629C83.629 20.9933 83.7463 20.2333 83.981 19.604C84.2157 18.9747 84.557 18.4947 85.005 18.164C85.4583 17.828 86.0077 17.66 86.653 17.66C87.2557 17.66 87.7703 17.796 88.197 18.068C88.629 18.3347 88.9597 18.7187 89.189 19.22C89.4183 19.7213 89.533 20.316 89.533 21.004V25.5H88.301ZM82.861 25.5V17.852H83.933L84.109 19.612V25.5H82.861ZM95.3701 17.852H96.7621L99.2581 24.412H98.9701L100.906 17.852H102.186L99.3061 27.036C99.0661 27.804 98.7461 28.396 98.3461 28.812C97.9461 29.228 97.4341 29.436 96.8101 29.436C96.4741 29.436 96.1541 29.388 95.8501 29.292C95.5515 29.196 95.2421 29.0573 94.9221 28.876V27.724C95.2048 27.948 95.4768 28.108 95.7381 28.204C96.0048 28.3 96.2821 28.348 96.5701 28.348C96.8901 28.348 97.1568 28.2467 97.3701 28.044C97.5888 27.8413 97.7701 27.58 97.9141 27.26C98.0581 26.9453 98.1808 26.6147 98.2821 26.268L98.5061 25.5L95.3701 17.852ZM107.015 25.692C106.327 25.692 105.714 25.54 105.175 25.236C104.642 24.932 104.221 24.4813 103.911 23.884C103.602 23.2867 103.447 22.5507 103.447 21.676C103.447 20.796 103.602 20.06 103.911 19.468C104.221 18.8707 104.642 18.42 105.175 18.116C105.714 17.812 106.327 17.66 107.015 17.66C107.698 17.66 108.306 17.812 108.839 18.116C109.378 18.42 109.799 18.8707 110.103 19.468C110.413 20.06 110.567 20.796 110.567 21.676C110.567 22.5507 110.413 23.2867 110.103 23.884C109.799 24.4813 109.378 24.932 108.839 25.236C108.306 25.54 107.698 25.692 107.015 25.692ZM106.983 24.604C107.479 24.604 107.901 24.4867 108.247 24.252C108.594 24.012 108.855 23.6733 109.031 23.236C109.213 22.7987 109.303 22.2787 109.303 21.676C109.303 20.764 109.114 20.0467 108.735 19.524C108.357 18.996 107.794 18.732 107.047 18.732C106.546 18.732 106.122 18.852 105.775 19.092C105.434 19.3267 105.173 19.6653 104.991 20.108C104.815 20.5453 104.727 21.068 104.727 21.676C104.727 22.5773 104.917 23.292 105.295 23.82C105.679 24.3427 106.242 24.604 106.983 24.604ZM118.357 17.836H119.605V25.5H118.357V17.836ZM112.933 17.836H114.181V22.604C114.181 23.244 114.336 23.7293 114.645 24.06C114.96 24.3907 115.408 24.556 115.989 24.556C116.469 24.556 116.885 24.428 117.237 24.172C117.595 23.916 117.869 23.564 118.061 23.116C118.259 22.6627 118.357 22.1453 118.357 21.564H118.821C118.821 22.4227 118.696 23.156 118.445 23.764C118.2 24.372 117.851 24.8387 117.397 25.164C116.949 25.484 116.421 25.644 115.813 25.644C115.237 25.644 114.733 25.5373 114.301 25.324C113.869 25.1107 113.533 24.788 113.293 24.356C113.053 23.9187 112.933 23.3667 112.933 22.7V17.836ZM129.314 25.692C128.898 25.692 128.524 25.612 128.194 25.452C127.863 25.292 127.602 25.052 127.41 24.732C127.218 24.412 127.122 24.012 127.122 23.532V15.724H128.354V23.5C128.354 24.2893 128.722 24.684 129.458 24.684C129.676 24.684 129.887 24.66 130.09 24.612C130.298 24.564 130.53 24.492 130.786 24.396L130.962 25.292C130.69 25.4093 130.418 25.5053 130.146 25.58C129.879 25.6547 129.602 25.692 129.314 25.692ZM125.89 18.716V17.852H130.77V18.716H125.89ZM135.793 25.692C135.132 25.692 134.54 25.524 134.017 25.188C133.5 24.8467 133.089 24.3747 132.785 23.772C132.487 23.1693 132.337 22.476 132.337 21.692C132.337 20.8547 132.487 20.1347 132.785 19.532C133.084 18.9293 133.492 18.468 134.009 18.148C134.532 17.8227 135.127 17.66 135.793 17.66C136.375 17.66 136.871 17.7773 137.281 18.012C137.692 18.2467 138.023 18.564 138.273 18.964C138.524 19.364 138.697 19.8173 138.793 20.324C138.895 20.8253 138.924 21.3453 138.881 21.884H133.345V21.116H138.057L137.689 21.356C137.705 21.0413 137.687 20.7267 137.633 20.412C137.585 20.0973 137.492 19.8093 137.353 19.548C137.215 19.2813 137.02 19.068 136.769 18.908C136.519 18.748 136.199 18.668 135.809 18.668C135.319 18.668 134.908 18.7933 134.577 19.044C134.247 19.2947 133.999 19.6253 133.833 20.036C133.668 20.4413 133.585 20.8813 133.585 21.356V21.868C133.585 22.4013 133.665 22.8787 133.825 23.3C133.991 23.7213 134.236 24.0547 134.561 24.3C134.887 24.5453 135.297 24.668 135.793 24.668C136.289 24.668 136.697 24.548 137.017 24.308C137.337 24.068 137.532 23.7133 137.601 23.244H138.897C138.817 23.7507 138.636 24.188 138.353 24.556C138.071 24.9187 137.711 25.1987 137.273 25.396C136.836 25.5933 136.343 25.692 135.793 25.692ZM141.516 25.5V14.588H142.764V25.5H141.516ZM146.16 25.5V14.588H147.408V25.5H146.16ZM165.514 25.5V21.004C165.514 20.2733 165.338 19.7187 164.986 19.34C164.639 18.956 164.17 18.764 163.578 18.764C162.884 18.764 162.354 19.0333 161.986 19.572C161.618 20.1053 161.434 20.844 161.434 21.788H160.858C160.858 21.1 160.924 20.4973 161.058 19.98C161.196 19.4627 161.396 19.0333 161.658 18.692C161.919 18.3453 162.236 18.0867 162.61 17.916C162.983 17.7453 163.407 17.66 163.882 17.66C164.484 17.66 164.999 17.796 165.426 18.068C165.858 18.3347 166.188 18.7187 166.418 19.22C166.647 19.7213 166.762 20.316 166.762 21.004V25.5H165.514ZM154.762 25.5V17.852H155.834L155.978 19.388C156.218 18.8333 156.554 18.4067 156.986 18.108C157.423 17.8093 157.946 17.66 158.554 17.66C159.156 17.66 159.671 17.796 160.098 18.068C160.53 18.3347 160.86 18.7187 161.09 19.22C161.319 19.7213 161.434 20.316 161.434 21.004V25.5H160.202V21.004C160.202 20.2733 160.026 19.7187 159.674 19.34C159.327 18.956 158.852 18.764 158.25 18.764C157.791 18.764 157.394 18.8893 157.058 19.14C156.722 19.3907 156.463 19.7507 156.282 20.22C156.1 20.684 156.01 21.2387 156.01 21.884V25.5H154.762ZM172.546 25.692C171.885 25.692 171.293 25.524 170.77 25.188C170.253 24.8467 169.842 24.3747 169.538 23.772C169.24 23.1693 169.09 22.476 169.09 21.692C169.09 20.8547 169.24 20.1347 169.538 19.532C169.837 18.9293 170.245 18.468 170.762 18.148C171.285 17.8227 171.88 17.66 172.546 17.66C173.128 17.66 173.624 17.7773 174.034 18.012C174.445 18.2467 174.776 18.564 175.026 18.964C175.277 19.364 175.45 19.8173 175.546 20.324C175.648 20.8253 175.677 21.3453 175.634 21.884H170.098V21.116H174.81L174.442 21.356C174.458 21.0413 174.44 20.7267 174.386 20.412C174.338 20.0973 174.245 19.8093 174.106 19.548C173.968 19.2813 173.773 19.068 173.522 18.908C173.272 18.748 172.952 18.668 172.562 18.668C172.072 18.668 171.661 18.7933 171.33 19.044C171 19.2947 170.752 19.6253 170.586 20.036C170.421 20.4413 170.338 20.8813 170.338 21.356V21.868C170.338 22.4013 170.418 22.8787 170.578 23.3C170.744 23.7213 170.989 24.0547 171.314 24.3C171.64 24.5453 172.05 24.668 172.546 24.668C173.042 24.668 173.45 24.548 173.77 24.308C174.09 24.068 174.285 23.7133 174.354 23.244H175.65C175.57 23.7507 175.389 24.188 175.106 24.556C174.824 24.9187 174.464 25.1987 174.026 25.396C173.589 25.5933 173.096 25.692 172.546 25.692ZM186.962 25.5L186.802 23.82V20.54C186.802 19.852 186.655 19.3587 186.362 19.06C186.069 18.756 185.629 18.604 185.042 18.604C184.711 18.604 184.41 18.652 184.138 18.748C183.871 18.844 183.658 18.9933 183.498 19.196C183.343 19.3933 183.266 19.6493 183.266 19.964H181.874C181.874 19.4093 182.01 18.964 182.282 18.628C182.554 18.2867 182.927 18.0413 183.402 17.892C183.882 17.7373 184.429 17.66 185.042 17.66C185.629 17.66 186.149 17.7587 186.602 17.956C187.055 18.1533 187.41 18.468 187.666 18.9C187.922 19.3267 188.05 19.884 188.05 20.572V25.5H186.962ZM184.354 25.692C183.725 25.692 183.205 25.58 182.794 25.356C182.383 25.132 182.077 24.8413 181.874 24.484C181.671 24.1267 181.57 23.7507 181.57 23.356C181.57 22.8387 181.698 22.4173 181.954 22.092C182.215 21.7667 182.57 21.5293 183.018 21.38C183.466 21.2253 183.97 21.148 184.53 21.148C184.93 21.148 185.33 21.188 185.73 21.268C186.135 21.348 186.53 21.4573 186.914 21.596V22.38C186.594 22.252 186.231 22.1507 185.826 22.076C185.426 22.0013 185.058 21.964 184.722 21.964C184.21 21.964 183.778 22.0707 183.426 22.284C183.074 22.492 182.898 22.8493 182.898 23.356C182.898 23.7293 183.031 24.0493 183.298 24.316C183.57 24.5827 184.002 24.716 184.594 24.716C185.01 24.716 185.383 24.62 185.714 24.428C186.05 24.2307 186.314 23.9853 186.506 23.692C186.703 23.3987 186.802 23.1053 186.802 22.812H187.106C187.106 23.324 186.994 23.7987 186.77 24.236C186.551 24.6733 186.237 25.0253 185.826 25.292C185.415 25.5587 184.925 25.692 184.354 25.692ZM194.703 25.692C194.191 25.692 193.727 25.5587 193.311 25.292C192.9 25.0253 192.572 24.636 192.327 24.124C192.087 23.6067 191.967 22.9773 191.967 22.236H192.447C192.447 22.732 192.548 23.156 192.751 23.508C192.959 23.8547 193.225 24.1187 193.551 24.3C193.876 24.4813 194.217 24.572 194.575 24.572C194.985 24.572 195.361 24.4547 195.703 24.22C196.044 23.9853 196.316 23.6493 196.519 23.212C196.727 22.7747 196.831 22.252 196.831 21.644C196.831 21.0467 196.729 20.5347 196.527 20.108C196.324 19.676 196.049 19.3453 195.703 19.116C195.361 18.8813 194.98 18.764 194.559 18.764C194.196 18.764 193.852 18.8547 193.527 19.036C193.207 19.212 192.945 19.4733 192.743 19.82C192.545 20.1667 192.447 20.5933 192.447 21.1H191.967C191.967 20.3747 192.084 19.756 192.319 19.244C192.559 18.732 192.889 18.34 193.311 18.068C193.732 17.796 194.223 17.66 194.783 17.66C195.385 17.66 195.937 17.8227 196.439 18.148C196.945 18.468 197.351 18.9267 197.655 19.524C197.959 20.1213 198.111 20.828 198.111 21.644C198.111 22.4653 197.956 23.18 197.647 23.788C197.337 24.3907 196.924 24.86 196.407 25.196C195.889 25.5267 195.321 25.692 194.703 25.692ZM191.199 25.5V14.588H192.447V23.708L192.079 25.5H191.199ZM203.611 25.692C202.923 25.692 202.31 25.54 201.771 25.236C201.238 24.932 200.816 24.4813 200.507 23.884C200.198 23.2867 200.043 22.5507 200.043 21.676C200.043 20.796 200.198 20.06 200.507 19.468C200.816 18.8707 201.238 18.42 201.771 18.116C202.31 17.812 202.923 17.66 203.611 17.66C204.294 17.66 204.902 17.812 205.435 18.116C205.974 18.42 206.395 18.8707 206.699 19.468C207.008 20.06 207.163 20.796 207.163 21.676C207.163 22.5507 207.008 23.2867 206.699 23.884C206.395 24.4813 205.974 24.932 205.435 25.236C204.902 25.54 204.294 25.692 203.611 25.692ZM203.579 24.604C204.075 24.604 204.496 24.4867 204.843 24.252C205.19 24.012 205.451 23.6733 205.627 23.236C205.808 22.7987 205.899 22.2787 205.899 21.676C205.899 20.764 205.71 20.0467 205.331 19.524C204.952 18.996 204.39 18.732 203.643 18.732C203.142 18.732 202.718 18.852 202.371 19.092C202.03 19.3267 201.768 19.6653 201.587 20.108C201.411 20.5453 201.323 21.068 201.323 21.676C201.323 22.5773 201.512 23.292 201.891 23.82C202.275 24.3427 202.838 24.604 203.579 24.604ZM214.953 17.836H216.201V25.5H214.953V17.836ZM209.529 17.836H210.777V22.604C210.777 23.244 210.932 23.7293 211.241 24.06C211.556 24.3907 212.004 24.556 212.585 24.556C213.065 24.556 213.481 24.428 213.833 24.172C214.19 23.916 214.465 23.564 214.657 23.116C214.854 22.6627 214.953 22.1453 214.953 21.564H215.417C215.417 22.4227 215.292 23.156 215.041 23.764C214.796 24.372 214.446 24.8387 213.993 25.164C213.545 25.484 213.017 25.644 212.409 25.644C211.833 25.644 211.329 25.5373 210.897 25.324C210.465 25.1107 210.129 24.788 209.889 24.356C209.649 23.9187 209.529 23.3667 209.529 22.7V17.836ZM221.952 25.692C221.536 25.692 221.163 25.612 220.832 25.452C220.502 25.292 220.24 25.052 220.048 24.732C219.856 24.412 219.76 24.012 219.76 23.532V15.724H220.992V23.5C220.992 24.2893 221.36 24.684 222.096 24.684C222.315 24.684 222.526 24.66 222.728 24.612C222.936 24.564 223.168 24.492 223.424 24.396L223.6 25.292C223.328 25.4093 223.056 25.5053 222.784 25.58C222.518 25.6547 222.24 25.692 221.952 25.692ZM218.528 18.716V17.852H223.408V18.716H218.528ZM35.366 33.58L39.478 46.78H41.414L37.27 33.58H35.366ZM42.5769 35.116H44.6889L47.2009 43.836H46.7209L49.2009 35.804H50.4809L53.0569 43.708H52.6249L55.2649 35.116H57.3929L53.8249 45.5H51.8409L49.8089 39.372H49.9849L47.9529 45.5H45.9689L42.5769 35.116ZM63.1735 45.724C62.2508 45.724 61.4348 45.5213 60.7255 45.116C60.0215 44.7107 59.4695 44.1053 59.0695 43.3C58.6695 42.4947 58.4695 41.4947 58.4695 40.3C58.4695 39.084 58.6695 38.0787 59.0695 37.284C59.4695 36.484 60.0215 35.8893 60.7255 35.5C61.4348 35.1053 62.2508 34.908 63.1735 34.908C64.1015 34.908 64.9202 35.1107 65.6295 35.516C66.3388 35.916 66.8935 36.516 67.2935 37.316C67.6935 38.116 67.8935 39.1107 67.8935 40.3C67.8935 41.5107 67.6935 42.5187 67.2935 43.324C66.8935 44.1293 66.3388 44.732 65.6295 45.132C64.9202 45.5267 64.1015 45.724 63.1735 45.724ZM63.1735 44.012C64.0215 44.012 64.6935 43.692 65.1895 43.052C65.6908 42.412 65.9415 41.4893 65.9415 40.284C65.9415 39.1213 65.6908 38.2173 65.1895 37.572C64.6935 36.9267 64.0215 36.604 63.1735 36.604C62.3415 36.604 61.6748 36.9293 61.1735 37.58C60.6722 38.2253 60.4215 39.132 60.4215 40.3C60.4215 41.5 60.6722 42.42 61.1735 43.06C61.6748 43.6947 62.3415 44.012 63.1735 44.012ZM74.2554 45.724C73.3327 45.724 72.5167 45.5213 71.8074 45.116C71.1034 44.7107 70.5514 44.1053 70.1514 43.3C69.7514 42.4947 69.5514 41.4947 69.5514 40.3C69.5514 39.084 69.7514 38.0787 70.1514 37.284C70.5514 36.484 71.1034 35.8893 71.8074 35.5C72.5167 35.1053 73.3327 34.908 74.2554 34.908C75.1834 34.908 76.002 35.1107 76.7114 35.516C77.4207 35.916 77.9754 36.516 78.3754 37.316C78.7754 38.116 78.9754 39.1107 78.9754 40.3C78.9754 41.5107 78.7754 42.5187 78.3754 43.324C77.9754 44.1293 77.4207 44.732 76.7114 45.132C76.002 45.5267 75.1834 45.724 74.2554 45.724ZM74.2554 44.012C75.1034 44.012 75.7754 43.692 76.2714 43.052C76.7727 42.412 77.0234 41.4893 77.0234 40.284C77.0234 39.1213 76.7727 38.2173 76.2714 37.572C75.7754 36.9267 75.1034 36.604 74.2554 36.604C73.4234 36.604 72.7567 36.9293 72.2554 37.58C71.754 38.2253 71.5034 39.132 71.5034 40.3C71.5034 41.5 71.754 42.42 72.2554 43.06C72.7567 43.6947 73.4234 44.012 74.2554 44.012ZM81.3693 35.116H84.7293C85.7853 35.116 86.7106 35.3293 87.5053 35.756C88.2999 36.1773 88.9186 36.7773 89.3613 37.556C89.8039 38.3347 90.0253 39.2547 90.0253 40.316C90.0253 41.3667 89.8039 42.2813 89.3613 43.06C88.9186 43.8333 88.2999 44.4333 87.5053 44.86C86.7106 45.2867 85.7853 45.5 84.7293 45.5H81.3693V35.116ZM83.2573 36.828V43.804H84.7293C85.4013 43.804 85.9799 43.652 86.4653 43.348C86.9559 43.044 87.3319 42.6307 87.5933 42.108C87.8599 41.58 87.9933 40.9827 87.9933 40.316C87.9933 39.6387 87.8599 39.0387 87.5933 38.516C87.3319 37.9933 86.9559 37.5827 86.4653 37.284C85.9799 36.98 85.4013 36.828 84.7293 36.828H83.2573ZM96.6725 45.5V35.116H100.337C101.505 35.116 102.414 35.404 103.065 35.98C103.721 36.556 104.049 37.372 104.049 38.428C104.049 39.4733 103.721 40.284 103.065 40.86C102.414 41.436 101.505 41.724 100.337 41.724H98.5765V45.5H96.6725ZM98.5765 40.076H100.337C100.923 40.076 101.366 39.9213 101.665 39.612C101.963 39.3027 102.113 38.908 102.113 38.428C102.113 37.9373 101.963 37.5347 101.665 37.22C101.366 36.9053 100.923 36.748 100.337 36.748H98.5765V40.076ZM106.162 45.5V35.116H110.002C111.244 35.116 112.196 35.4067 112.858 35.988C113.524 36.5693 113.858 37.34 113.858 38.3C113.858 39.244 113.524 40.0067 112.858 40.588C112.196 41.164 111.244 41.452 110.002 41.452H108.05V45.5H106.162ZM111.778 45.5L109.026 40.636H111.042L114.242 45.5H111.778ZM108.05 40.188H109.81C110.503 40.188 111.028 40.0307 111.386 39.716C111.743 39.396 111.922 38.9827 111.922 38.476C111.922 37.9587 111.759 37.5427 111.434 37.228C111.108 36.908 110.631 36.748 110.002 36.748H108.05V40.188ZM120.587 45.724C119.664 45.724 118.848 45.5213 118.139 45.116C117.435 44.7107 116.883 44.1053 116.483 43.3C116.083 42.4947 115.883 41.4947 115.883 40.3C115.883 39.084 116.083 38.0787 116.483 37.284C116.883 36.484 117.435 35.8893 118.139 35.5C118.848 35.1053 119.664 34.908 120.587 34.908C121.515 34.908 122.333 35.1107 123.043 35.516C123.752 35.916 124.307 36.516 124.707 37.316C125.107 38.116 125.307 39.1107 125.307 40.3C125.307 41.5107 125.107 42.5187 124.707 43.324C124.307 44.1293 123.752 44.732 123.043 45.132C122.333 45.5267 121.515 45.724 120.587 45.724ZM120.587 44.012C121.435 44.012 122.107 43.692 122.603 43.052C123.104 42.412 123.355 41.4893 123.355 40.284C123.355 39.1213 123.104 38.2173 122.603 37.572C122.107 36.9267 121.435 36.604 120.587 36.604C119.755 36.604 119.088 36.9293 118.587 37.58C118.085 38.2253 117.835 39.132 117.835 40.3C117.835 41.5 118.085 42.42 118.587 43.06C119.088 43.6947 119.755 44.012 120.587 44.012ZM127.701 35.116H131.061C132.117 35.116 133.042 35.3293 133.837 35.756C134.631 36.1773 135.25 36.7773 135.693 37.556C136.135 38.3347 136.357 39.2547 136.357 40.316C136.357 41.3667 136.135 42.2813 135.693 43.06C135.25 43.8333 134.631 44.4333 133.837 44.86C133.042 45.2867 132.117 45.5 131.061 45.5H127.701V35.116ZM129.589 36.828V43.804H131.061C131.733 43.804 132.311 43.652 132.797 43.348C133.287 43.044 133.663 42.6307 133.925 42.108C134.191 41.58 134.325 40.9827 134.325 40.316C134.325 39.6387 134.191 39.0387 133.925 38.516C133.663 37.9933 133.287 37.5827 132.797 37.284C132.311 36.98 131.733 36.828 131.061 36.828H129.589ZM138.685 35.116H140.573V41.58C140.573 42.4333 140.789 43.0493 141.221 43.428C141.658 43.8067 142.216 43.996 142.893 43.996C143.576 43.996 144.133 43.8067 144.565 43.428C144.997 43.0493 145.213 42.4333 145.213 41.58V35.116H147.101V41.58C147.101 42.4547 146.933 43.2013 146.597 43.82C146.261 44.4387 145.778 44.9107 145.149 45.236C144.525 45.5613 143.773 45.724 142.893 45.724C142.013 45.724 141.258 45.5613 140.629 45.236C140.005 44.9107 139.525 44.4387 139.189 43.82C138.853 43.2013 138.685 42.4547 138.685 41.58V35.116ZM153.828 45.724C152.916 45.724 152.121 45.508 151.444 45.076C150.772 44.6387 150.249 44.0147 149.876 43.204C149.502 42.3933 149.316 41.42 149.316 40.284C149.316 39.1107 149.508 38.1267 149.892 37.332C150.281 36.532 150.814 35.9293 151.492 35.524C152.174 35.1133 152.953 34.908 153.828 34.908C155.038 34.908 155.982 35.2013 156.66 35.788C157.342 36.3747 157.78 37.1373 157.972 38.076L155.956 38.444C155.79 37.9 155.526 37.46 155.164 37.124C154.801 36.788 154.356 36.62 153.828 36.62C153.364 36.62 152.945 36.756 152.572 37.028C152.198 37.2947 151.9 37.7 151.676 38.244C151.457 38.788 151.348 39.468 151.348 40.284C151.348 41.052 151.444 41.7133 151.636 42.268C151.833 42.8227 152.116 43.2493 152.484 43.548C152.852 43.8467 153.3 43.996 153.828 43.996C154.505 43.996 155.028 43.8173 155.396 43.46C155.769 43.0973 155.956 42.636 155.956 42.076H157.972C157.972 42.8493 157.804 43.508 157.468 44.052C157.137 44.5907 156.662 45.004 156.044 45.292C155.425 45.58 154.686 45.724 153.828 45.724ZM158.96 36.748V35.116H167.28V36.748H163.64L164.064 36.316V45.5H162.176V36.316L162.6 36.748H158.96ZM172.628 45.724C171.908 45.724 171.244 45.5987 170.636 45.348C170.034 45.0973 169.543 44.716 169.164 44.204C168.791 43.692 168.591 43.0413 168.564 42.252H170.42C170.42 42.652 170.519 42.98 170.716 43.236C170.914 43.492 171.178 43.684 171.508 43.812C171.844 43.9347 172.212 43.996 172.612 43.996C172.996 43.996 173.338 43.9453 173.636 43.844C173.94 43.7427 174.178 43.5987 174.348 43.412C174.524 43.22 174.612 42.9933 174.612 42.732C174.612 42.3853 174.506 42.1133 174.292 41.916C174.084 41.7187 173.748 41.5373 173.284 41.372L171.236 40.556C170.436 40.2413 169.823 39.876 169.396 39.46C168.97 39.044 168.756 38.4707 168.756 37.74C168.756 36.8973 169.09 36.2147 169.756 35.692C170.423 35.1693 171.354 34.908 172.548 34.908C173.711 34.908 174.61 35.18 175.244 35.724C175.879 36.2627 176.239 37.0147 176.324 37.98H174.468C174.399 37.5693 174.212 37.2413 173.908 36.996C173.604 36.7453 173.151 36.62 172.548 36.62C172.015 36.62 171.594 36.732 171.284 36.956C170.975 37.1747 170.82 37.452 170.82 37.788C170.82 38.076 170.916 38.3053 171.108 38.476C171.306 38.6413 171.61 38.8013 172.02 38.956L174.292 39.836C175.06 40.1347 175.65 40.5107 176.06 40.964C176.471 41.4173 176.676 41.9853 176.676 42.668C176.676 43.292 176.519 43.8333 176.204 44.292C175.89 44.7453 175.431 45.0973 174.828 45.348C174.226 45.5987 173.492 45.724 172.628 45.724ZM185.812 45.692C185.396 45.692 185.023 45.612 184.692 45.452C184.362 45.292 184.1 45.052 183.908 44.732C183.716 44.412 183.62 44.012 183.62 43.532V35.724H184.852V43.5C184.852 44.2893 185.22 44.684 185.956 44.684C186.175 44.684 186.386 44.66 186.588 44.612C186.796 44.564 187.028 44.492 187.284 44.396L187.46 45.292C187.188 45.4093 186.916 45.5053 186.644 45.58C186.378 45.6547 186.1 45.692 185.812 45.692ZM182.388 38.716V37.852H187.268V38.716H182.388ZM195.076 45.5V41.004C195.076 40.2733 194.9 39.7187 194.548 39.34C194.201 38.956 193.727 38.764 193.124 38.764C192.665 38.764 192.268 38.8893 191.932 39.14C191.596 39.3907 191.337 39.7507 191.156 40.22C190.975 40.684 190.884 41.2387 190.884 41.884H190.404C190.404 40.9933 190.521 40.2333 190.756 39.604C190.991 38.9747 191.332 38.4947 191.78 38.164C192.233 37.828 192.783 37.66 193.428 37.66C194.031 37.66 194.545 37.796 194.972 38.068C195.404 38.3347 195.735 38.7187 195.964 39.22C196.193 39.7213 196.308 40.316 196.308 41.004V45.5H195.076ZM189.636 45.5V34.588H190.884V45.5H189.636ZM202.108 45.692C201.447 45.692 200.855 45.524 200.332 45.188C199.815 44.8467 199.404 44.3747 199.1 43.772C198.802 43.1693 198.652 42.476 198.652 41.692C198.652 40.8547 198.802 40.1347 199.1 39.532C199.399 38.9293 199.807 38.468 200.324 38.148C200.847 37.8227 201.442 37.66 202.108 37.66C202.69 37.66 203.186 37.7773 203.596 38.012C204.007 38.2467 204.338 38.564 204.588 38.964C204.839 39.364 205.012 39.8173 205.108 40.324C205.21 40.8253 205.239 41.3453 205.196 41.884H199.66V41.116H204.372L204.004 41.356C204.02 41.0413 204.002 40.7267 203.948 40.412C203.9 40.0973 203.807 39.8093 203.668 39.548C203.53 39.2813 203.335 39.068 203.084 38.908C202.834 38.748 202.514 38.668 202.124 38.668C201.634 38.668 201.223 38.7933 200.892 39.044C200.562 39.2947 200.314 39.6253 200.148 40.036C199.983 40.4413 199.9 40.8813 199.9 41.356V41.868C199.9 42.4013 199.98 42.8787 200.14 43.3C200.306 43.7213 200.551 44.0547 200.876 44.3C201.202 44.5453 201.612 44.668 202.108 44.668C202.604 44.668 203.012 44.548 203.332 44.308C203.652 44.068 203.847 43.7133 203.916 43.244H205.212C205.132 43.7507 204.951 44.188 204.668 44.556C204.386 44.9187 204.026 45.1987 203.588 45.396C203.151 45.5933 202.658 45.692 202.108 45.692ZM213.271 45.5V41.004C213.271 40.2733 213.095 39.7187 212.743 39.34C212.396 38.956 211.922 38.764 211.319 38.764C210.86 38.764 210.463 38.8893 210.127 39.14C209.791 39.3907 209.532 39.7507 209.351 40.22C209.17 40.684 209.079 41.2387 209.079 41.884H208.599C208.599 40.9933 208.716 40.2333 208.951 39.604C209.186 38.9747 209.527 38.4947 209.975 38.164C210.428 37.828 210.978 37.66 211.623 37.66C212.226 37.66 212.74 37.796 213.167 38.068C213.599 38.3347 213.93 38.7187 214.159 39.22C214.388 39.7213 214.503 40.316 214.503 41.004V45.5H213.271ZM207.831 45.5V37.852H208.903L209.079 39.612V45.5H207.831ZM218.863 42.94V42.22C218.863 41.756 218.911 41.3747 219.007 41.076C219.109 40.7773 219.274 40.5187 219.503 40.3C219.733 40.0813 220.047 39.8627 220.447 39.644C220.805 39.452 221.09 39.2733 221.303 39.108C221.517 38.9427 221.669 38.764 221.759 38.572C221.855 38.38 221.903 38.1453 221.903 37.868C221.903 37.452 221.733 37.1053 221.391 36.828C221.055 36.5507 220.591 36.412 219.999 36.412C219.343 36.412 218.842 36.5427 218.495 36.804C218.149 37.06 217.93 37.42 217.839 37.884H216.511C216.586 37.1053 216.911 36.476 217.487 35.996C218.069 35.516 218.895 35.276 219.967 35.276C220.65 35.276 221.237 35.396 221.727 35.636C222.223 35.8707 222.602 36.188 222.863 36.588C223.13 36.9827 223.263 37.42 223.263 37.9C223.263 38.4493 223.125 38.9107 222.847 39.284C222.57 39.652 222.122 40.0013 221.503 40.332C221.146 40.5293 220.863 40.7133 220.655 40.884C220.453 41.0493 220.309 41.2413 220.223 41.46C220.138 41.6733 220.095 41.9533 220.095 42.3V42.94H218.863ZM219.503 45.692C219.237 45.692 219.015 45.6067 218.839 45.436C218.663 45.26 218.575 45.0493 218.575 44.804C218.575 44.5533 218.661 44.3373 218.831 44.156C219.007 43.9747 219.229 43.884 219.495 43.884C219.762 43.884 219.989 43.9747 220.175 44.156C220.367 44.332 220.463 44.5453 220.463 44.796C220.463 45.0413 220.37 45.252 220.183 45.428C219.997 45.604 219.77 45.692 219.503 45.692Z" fill="#333333"/>
</g>
<defs>
<filter id="filter0_d_7093_6101" x="19" y="0" width="236.768" height="68" filterUnits="userSpaceOnUse" color-interpolation-filters="sRGB">
<feFlood flood-opacity="0" result="BackgroundImageFix"/>
<feColorMatrix in="SourceAlpha" type="matrix" values="0 0 0 0 0 0 0 0 0 0 0 0 0 0 0 0 0 0 127 0" result="hardAlpha"/>
<feOffset dy="4"/>
<feGaussianBlur stdDeviation="3"/>
<feComposite in2="hardAlpha" operator="out"/>
<feColorMatrix type="matrix" values="0 0 0 0 0 0 0 0 0 0 0 0 0 0 0 0 0 0 0.1 0"/>
<feBlend mode="normal" in2="BackgroundImageFix" result="effect1_dropShadow_7093_6101"/>
<feBlend mode="normal" in="SourceGraphic" in2="effect1_dropShadow_7093_6101" result="shape"/>
</filter>
<filter id="filter1_d_7093_6101" x="29.3662" y="12.5879" width="200.234" height="44.1924" filterUnits="userSpaceOnUse" color-interpolation-filters="sRGB">
<feFlood flood-opacity="0" result="BackgroundImageFix"/>
<feColorMatrix in="SourceAlpha" type="matrix" values="0 0 0 0 0 0 0 0 0 0 0 0 0 0 0 0 0 0 127 0" result="hardAlpha"/>
<feOffset dy="4"/>
<feGaussianBlur stdDeviation="3"/>
<feComposite in2="hardAlpha" operator="out"/>
<feColorMatrix type="matrix" values="0 0 0 0 0 0 0 0 0 0 0 0 0 0 0 0 0 0 0.05 0"/>
<feBlend mode="normal" in2="BackgroundImageFix" result="effect1_dropShadow_7093_6101"/>
<feBlend mode="normal" in="SourceGraphic" in2="effect1_dropShadow_7093_6101" result="shape"/>
</filter>
</defs>
</svg>
