<svg width="256" height="68" viewBox="0 0 256 68" fill="none" xmlns="http://www.w3.org/2000/svg">
<mask id="path-1-inside-1_7044_5952" fill="white">
<path d="M248.724 27.3669L239 19L239 11C239 6.02944 234.971 2 230 2L8.99997 1.99998C4.02941 1.99998 -2.59742e-05 6.02942 -2.64087e-05 11L-2.97308e-05 49C-3.01653e-05 53.9705 4.0294 58 8.99997 58L230 58C234.971 58 239 53.9706 239 49L239 39.5L248.612 32.0069C250.106 30.8425 250.16 28.6022 248.724 27.3669Z"/>
</mask>
<path d="M248.724 27.3669L239 19L239 11C239 6.02944 234.971 2 230 2L8.99997 1.99998C4.02941 1.99998 -2.59742e-05 6.02942 -2.64087e-05 11L-2.97308e-05 49C-3.01653e-05 53.9705 4.0294 58 8.99997 58L230 58C234.971 58 239 53.9706 239 49L239 39.5L248.612 32.0069C250.106 30.8425 250.16 28.6022 248.724 27.3669Z" fill="white"/>
<path d="M239 19L237.6 19L237.6 19.6423L238.087 20.0612L239 19ZM248.724 27.3669L249.637 26.3056L249.637 26.3056L248.724 27.3669ZM248.612 32.0069L247.751 30.9028L247.751 30.9028L248.612 32.0069ZM239 39.5L238.139 38.3959L237.6 38.8162L237.6 39.5L239 39.5ZM238.087 20.0612L247.811 28.4281L249.637 26.3056L239.913 17.9388L238.087 20.0612ZM247.751 30.9028L238.139 38.3959L239.861 40.6041L249.473 33.1111L247.751 30.9028ZM247.811 28.4281C248.577 29.0869 248.548 30.2817 247.751 30.9028L249.473 33.1111C251.663 31.4032 251.743 28.1175 249.637 26.3056L247.811 28.4281ZM230 56.6L8.99997 56.6L8.99997 59.4L230 59.4L230 56.6ZM1.39996 49L1.39997 11L-1.40002 11L-1.40002 49L1.39996 49ZM8.99997 3.39998L230 3.4L230 0.599997L8.99997 0.599977L8.99997 3.39998ZM237.6 39.5L237.6 49L240.4 49L240.4 39.5L237.6 39.5ZM237.6 11L237.6 19L240.4 19L240.4 11L237.6 11ZM230 3.4C234.197 3.4 237.6 6.80263 237.6 11L240.4 11C240.4 5.25624 235.744 0.599997 230 0.599997L230 3.4ZM1.39997 11C1.39997 6.80261 4.8026 3.39998 8.99997 3.39998L8.99997 0.599977C3.25622 0.599977 -1.40002 5.25622 -1.40002 11L1.39997 11ZM8.99997 56.6C4.8026 56.6 1.39996 53.1973 1.39996 49L-1.40002 49C-1.40002 54.7437 3.25621 59.4 8.99997 59.4L8.99997 56.6ZM230 59.4C235.744 59.4 240.4 54.7438 240.4 49L237.6 49C237.6 53.1974 234.197 56.6 230 56.6L230 59.4Z" fill="white" mask="url(#path-1-inside-1_7044_5952)"/>
<g filter="url(#filter0_d_7044_5952)">
<mask id="path-3-inside-2_7044_5952" fill="white">
<path d="M248.724 27.3669L239 19L239 11C239 6.02944 234.971 2 230 2L37 1.99998C32.0294 1.99998 28 6.02942 28 11L28 49C28 53.9705 32.0294 58 37 58L230 58C234.971 58 239 53.9706 239 49L239 39.5L248.612 32.0069C250.106 30.8425 250.16 28.6022 248.724 27.3669Z"/>
</mask>
<path d="M248.724 27.3669L239 19L239 11C239 6.02944 234.971 2 230 2L37 1.99998C32.0294 1.99998 28 6.02942 28 11L28 49C28 53.9705 32.0294 58 37 58L230 58C234.971 58 239 53.9706 239 49L239 39.5L248.612 32.0069C250.106 30.8425 250.16 28.6022 248.724 27.3669Z" fill="white"/>
<path d="M239 19L237.6 19L237.6 19.6423L238.087 20.0612L239 19ZM248.724 27.3669L249.637 26.3056L249.637 26.3056L248.724 27.3669ZM248.612 32.0069L247.751 30.9028L247.751 30.9028L248.612 32.0069ZM239 39.5L238.139 38.3959L237.6 38.8162L237.6 39.5L239 39.5ZM230 58L230 59.4L230 58ZM37 58L37 56.6L37 58ZM238.087 20.0612L247.811 28.4281L249.637 26.3056L239.913 17.9388L238.087 20.0612ZM247.751 30.9028L238.139 38.3959L239.861 40.6041L249.473 33.1111L247.751 30.9028ZM247.811 28.4281C248.577 29.0869 248.548 30.2817 247.751 30.9028L249.473 33.1111C251.663 31.4032 251.743 28.1175 249.637 26.3056L247.811 28.4281ZM230 56.6L37 56.6L37 59.4L230 59.4L230 56.6ZM29.4 49L29.4 11L26.6 11L26.6 49L29.4 49ZM37 3.39998L230 3.4L230 0.599997L37 0.59998L37 3.39998ZM237.6 39.5L237.6 49L240.4 49L240.4 39.5L237.6 39.5ZM237.6 11L237.6 19L240.4 19L240.4 11L237.6 11ZM230 3.4C234.197 3.4 237.6 6.80263 237.6 11L240.4 11C240.4 5.25624 235.744 0.599997 230 0.599997L230 3.4ZM29.4 11C29.4 6.80262 32.8026 3.39998 37 3.39998L37 0.59998C31.2562 0.599979 26.6 5.25622 26.6 11L29.4 11ZM37 56.6C32.8026 56.6 29.4 53.1973 29.4 49L26.6 49C26.6 54.7437 31.2562 59.4 37 59.4L37 56.6ZM230 59.4C235.744 59.4 240.4 54.7438 240.4 49L237.6 49C237.6 53.1974 234.197 56.6 230 56.6L230 59.4Z" fill="#333333" mask="url(#path-3-inside-2_7044_5952)"/>
</g>
<g filter="url(#filter1_d_7044_5952)">
<path d="M78.2472 16.524V15.452H86.0712V16.524H82.4952L82.7752 16.236V25.5H81.5272V16.236L81.8072 16.524H78.2472ZM89.3957 25.692C88.7344 25.692 88.1424 25.524 87.6197 25.188C87.1024 24.8467 86.6917 24.3747 86.3877 23.772C86.0891 23.1693 85.9397 22.476 85.9397 21.692C85.9397 20.8547 86.0891 20.1347 86.3877 19.532C86.6864 18.9293 87.0944 18.468 87.6117 18.148C88.1344 17.8227 88.7291 17.66 89.3957 17.66C89.9771 17.66 90.4731 17.7773 90.8837 18.012C91.2944 18.2467 91.6251 18.564 91.8757 18.964C92.1264 19.364 92.2997 19.8173 92.3957 20.324C92.4971 20.8253 92.5264 21.3453 92.4837 21.884H86.9477V21.116H91.6597L91.2917 21.356C91.3077 21.0413 91.2891 20.7267 91.2357 20.412C91.1877 20.0973 91.0944 19.8093 90.9557 19.548C90.8171 19.2813 90.6224 19.068 90.3717 18.908C90.1211 18.748 89.8011 18.668 89.4117 18.668C88.9211 18.668 88.5104 18.7933 88.1797 19.044C87.8491 19.2947 87.6011 19.6253 87.4357 20.036C87.2704 20.4413 87.1877 20.8813 87.1877 21.356V21.868C87.1877 22.4013 87.2677 22.8787 87.4277 23.3C87.5931 23.7213 87.8384 24.0547 88.1637 24.3C88.4891 24.5453 88.8997 24.668 89.3957 24.668C89.8917 24.668 90.2997 24.548 90.6197 24.308C90.9397 24.068 91.1344 23.7133 91.2037 23.244H92.4997C92.4197 23.7507 92.2384 24.188 91.9557 24.556C91.6731 24.9187 91.3131 25.1987 90.8757 25.396C90.4384 25.5933 89.9451 25.692 89.3957 25.692ZM95.1185 25.5V14.588H96.3665V25.5H95.1185ZM99.7629 25.5V14.588H101.011V25.5H99.7629ZM119.116 25.5V21.004C119.116 20.2733 118.94 19.7187 118.588 19.34C118.241 18.956 117.772 18.764 117.18 18.764C116.487 18.764 115.956 19.0333 115.588 19.572C115.22 20.1053 115.036 20.844 115.036 21.788H114.46C114.46 21.1 114.527 20.4973 114.66 19.98C114.799 19.4627 114.999 19.0333 115.26 18.692C115.521 18.3453 115.839 18.0867 116.212 17.916C116.585 17.7453 117.009 17.66 117.484 17.66C118.087 17.66 118.601 17.796 119.028 18.068C119.46 18.3347 119.791 18.7187 120.02 19.22C120.249 19.7213 120.364 20.316 120.364 21.004V25.5H119.116ZM108.364 25.5V17.852H109.436L109.58 19.388C109.82 18.8333 110.156 18.4067 110.588 18.108C111.025 17.8093 111.548 17.66 112.156 17.66C112.759 17.66 113.273 17.796 113.7 18.068C114.132 18.3347 114.463 18.7187 114.692 19.22C114.921 19.7213 115.036 20.316 115.036 21.004V25.5H113.804V21.004C113.804 20.2733 113.628 19.7187 113.276 19.34C112.929 18.956 112.455 18.764 111.852 18.764C111.393 18.764 110.996 18.8893 110.66 19.14C110.324 19.3907 110.065 19.7507 109.884 20.22C109.703 20.684 109.612 21.2387 109.612 21.884V25.5H108.364ZM126.149 25.692C125.488 25.692 124.896 25.524 124.373 25.188C123.856 24.8467 123.445 24.3747 123.141 23.772C122.842 23.1693 122.693 22.476 122.693 21.692C122.693 20.8547 122.842 20.1347 123.141 19.532C123.44 18.9293 123.848 18.468 124.365 18.148C124.888 17.8227 125.482 17.66 126.149 17.66C126.73 17.66 127.226 17.7773 127.637 18.012C128.048 18.2467 128.378 18.564 128.629 18.964C128.88 19.364 129.053 19.8173 129.149 20.324C129.25 20.8253 129.28 21.3453 129.237 21.884H123.701V21.116H128.413L128.045 21.356C128.061 21.0413 128.042 20.7267 127.989 20.412C127.941 20.0973 127.848 19.8093 127.709 19.548C127.57 19.2813 127.376 19.068 127.125 18.908C126.874 18.748 126.554 18.668 126.165 18.668C125.674 18.668 125.264 18.7933 124.933 19.044C124.602 19.2947 124.354 19.6253 124.189 20.036C124.024 20.4413 123.941 20.8813 123.941 21.356V21.868C123.941 22.4013 124.021 22.8787 124.181 23.3C124.346 23.7213 124.592 24.0547 124.917 24.3C125.242 24.5453 125.653 24.668 126.149 24.668C126.645 24.668 127.053 24.548 127.373 24.308C127.693 24.068 127.888 23.7133 127.957 23.244H129.253C129.173 23.7507 128.992 24.188 128.709 24.556C128.426 24.9187 128.066 25.1987 127.629 25.396C127.192 25.5933 126.698 25.692 126.149 25.692ZM140.564 25.5L140.404 23.82V20.54C140.404 19.852 140.258 19.3587 139.964 19.06C139.671 18.756 139.231 18.604 138.644 18.604C138.314 18.604 138.012 18.652 137.74 18.748C137.474 18.844 137.26 18.9933 137.1 19.196C136.946 19.3933 136.868 19.6493 136.868 19.964H135.476C135.476 19.4093 135.612 18.964 135.884 18.628C136.156 18.2867 136.53 18.0413 137.004 17.892C137.484 17.7373 138.031 17.66 138.644 17.66C139.231 17.66 139.751 17.7587 140.204 17.956C140.658 18.1533 141.012 18.468 141.268 18.9C141.524 19.3267 141.652 19.884 141.652 20.572V25.5H140.564ZM137.956 25.692C137.327 25.692 136.807 25.58 136.396 25.356C135.986 25.132 135.679 24.8413 135.476 24.484C135.274 24.1267 135.172 23.7507 135.172 23.356C135.172 22.8387 135.3 22.4173 135.556 22.092C135.818 21.7667 136.172 21.5293 136.62 21.38C137.068 21.2253 137.572 21.148 138.132 21.148C138.532 21.148 138.932 21.188 139.332 21.268C139.738 21.348 140.132 21.4573 140.516 21.596V22.38C140.196 22.252 139.834 22.1507 139.428 22.076C139.028 22.0013 138.66 21.964 138.324 21.964C137.812 21.964 137.38 22.0707 137.028 22.284C136.676 22.492 136.5 22.8493 136.5 23.356C136.5 23.7293 136.634 24.0493 136.9 24.316C137.172 24.5827 137.604 24.716 138.196 24.716C138.612 24.716 138.986 24.62 139.316 24.428C139.652 24.2307 139.916 23.9853 140.108 23.692C140.306 23.3987 140.404 23.1053 140.404 22.812H140.708C140.708 23.324 140.596 23.7987 140.372 24.236C140.154 24.6733 139.839 25.0253 139.428 25.292C139.018 25.5587 138.527 25.692 137.956 25.692ZM148.305 25.692C147.793 25.692 147.329 25.5587 146.913 25.292C146.502 25.0253 146.174 24.636 145.929 24.124C145.689 23.6067 145.569 22.9773 145.569 22.236H146.049C146.049 22.732 146.15 23.156 146.353 23.508C146.561 23.8547 146.828 24.1187 147.153 24.3C147.478 24.4813 147.82 24.572 148.177 24.572C148.588 24.572 148.964 24.4547 149.305 24.22C149.646 23.9853 149.918 23.6493 150.121 23.212C150.329 22.7747 150.433 22.252 150.433 21.644C150.433 21.0467 150.332 20.5347 150.129 20.108C149.926 19.676 149.652 19.3453 149.305 19.116C148.964 18.8813 148.582 18.764 148.161 18.764C147.798 18.764 147.454 18.8547 147.129 19.036C146.809 19.212 146.548 19.4733 146.345 19.82C146.148 20.1667 146.049 20.5933 146.049 21.1H145.569C145.569 20.3747 145.686 19.756 145.921 19.244C146.161 18.732 146.492 18.34 146.913 18.068C147.334 17.796 147.825 17.66 148.385 17.66C148.988 17.66 149.54 17.8227 150.041 18.148C150.548 18.468 150.953 18.9267 151.257 19.524C151.561 20.1213 151.713 20.828 151.713 21.644C151.713 22.4653 151.558 23.18 151.249 23.788C150.94 24.3907 150.526 24.86 150.009 25.196C149.492 25.5267 148.924 25.692 148.305 25.692ZM144.801 25.5V14.588H146.049V23.708L145.681 25.5H144.801ZM157.213 25.692C156.525 25.692 155.912 25.54 155.373 25.236C154.84 24.932 154.419 24.4813 154.109 23.884C153.8 23.2867 153.645 22.5507 153.645 21.676C153.645 20.796 153.8 20.06 154.109 19.468C154.419 18.8707 154.84 18.42 155.373 18.116C155.912 17.812 156.525 17.66 157.213 17.66C157.896 17.66 158.504 17.812 159.037 18.116C159.576 18.42 159.997 18.8707 160.301 19.468C160.611 20.06 160.765 20.796 160.765 21.676C160.765 22.5507 160.611 23.2867 160.301 23.884C159.997 24.4813 159.576 24.932 159.037 25.236C158.504 25.54 157.896 25.692 157.213 25.692ZM157.181 24.604C157.677 24.604 158.099 24.4867 158.445 24.252C158.792 24.012 159.053 23.6733 159.229 23.236C159.411 22.7987 159.501 22.2787 159.501 21.676C159.501 20.764 159.312 20.0467 158.933 19.524C158.555 18.996 157.992 18.732 157.245 18.732C156.744 18.732 156.32 18.852 155.973 19.092C155.632 19.3267 155.371 19.6653 155.189 20.108C155.013 20.5453 154.925 21.068 154.925 21.676C154.925 22.5773 155.115 23.292 155.493 23.82C155.877 24.3427 156.44 24.604 157.181 24.604ZM168.555 17.836H169.803V25.5H168.555V17.836ZM163.131 17.836H164.379V22.604C164.379 23.244 164.534 23.7293 164.843 24.06C165.158 24.3907 165.606 24.556 166.187 24.556C166.667 24.556 167.083 24.428 167.435 24.172C167.793 23.916 168.067 23.564 168.259 23.116C168.457 22.6627 168.555 22.1453 168.555 21.564H169.019C169.019 22.4227 168.894 23.156 168.643 23.764C168.398 24.372 168.049 24.8387 167.595 25.164C167.147 25.484 166.619 25.644 166.011 25.644C165.435 25.644 164.931 25.5373 164.499 25.324C164.067 25.1107 163.731 24.788 163.491 24.356C163.251 23.9187 163.131 23.3667 163.131 22.7V17.836ZM175.555 25.692C175.139 25.692 174.766 25.612 174.435 25.452C174.104 25.292 173.843 25.052 173.651 24.732C173.459 24.412 173.363 24.012 173.363 23.532V15.724H174.595V23.5C174.595 24.2893 174.963 24.684 175.699 24.684C175.918 24.684 176.128 24.66 176.331 24.612C176.539 24.564 176.771 24.492 177.027 24.396L177.203 25.292C176.931 25.4093 176.659 25.5053 176.387 25.58C176.12 25.6547 175.843 25.692 175.555 25.692ZM172.131 18.716V17.852H177.011V18.716H172.131ZM183.207 25.5V15.116H187.047C188.29 15.116 189.242 15.4067 189.903 15.988C190.57 16.5693 190.903 17.34 190.903 18.3C190.903 19.244 190.57 20.0067 189.903 20.588C189.242 21.164 188.29 21.452 187.047 21.452H185.095V25.5H183.207ZM188.823 25.5L186.071 20.636H188.087L191.287 25.5H188.823ZM185.095 20.188H186.855C187.549 20.188 188.074 20.0307 188.431 19.716C188.789 19.396 188.967 18.9827 188.967 18.476C188.967 17.9587 188.805 17.5427 188.479 17.228C188.154 16.908 187.677 16.748 187.047 16.748H185.095V20.188ZM193.664 25.5V15.116H195.552V25.5H193.664ZM202.475 25.724C201.563 25.724 200.769 25.508 200.091 25.076C199.419 24.6387 198.897 24.0147 198.523 23.204C198.15 22.3933 197.963 21.42 197.963 20.284C197.963 19.1107 198.155 18.1267 198.539 17.332C198.929 16.532 199.462 15.9293 200.139 15.524C200.822 15.1133 201.601 14.908 202.475 14.908C203.686 14.908 204.63 15.2013 205.307 15.788C205.99 16.3747 206.427 17.1373 206.619 18.076L204.603 18.444C204.438 17.9 204.174 17.46 203.811 17.124C203.449 16.788 203.003 16.62 202.475 16.62C202.011 16.62 201.593 16.756 201.219 17.028C200.846 17.2947 200.547 17.7 200.323 18.244C200.105 18.788 199.995 19.468 199.995 20.284C199.995 21.052 200.091 21.7133 200.283 22.268C200.481 22.8227 200.763 23.2493 201.131 23.548C201.499 23.8467 201.947 23.996 202.475 23.996C203.153 23.996 203.675 23.8173 204.043 23.46C204.417 23.0973 204.603 22.636 204.603 22.076H206.619C206.619 22.8493 206.451 23.508 206.115 24.052C205.785 24.5907 205.31 25.004 204.691 25.292C204.073 25.58 203.334 25.724 202.475 25.724ZM209 15.116H210.888V19.452H215.416V15.116H217.304V25.5H215.416V21.1H210.888V25.5H209V15.116ZM41.3638 43.436L44.0198 35.116H46.0038L42.4358 45.5H40.4518L36.9318 35.116H38.9318L41.5558 43.436H41.3638ZM47.9324 45.5V35.116H49.8204V45.5H47.9324ZM51.5754 36.748V35.116H59.8954V36.748H56.2554L56.6794 36.316V45.5H54.7914V36.316L55.2154 36.748H51.5754ZM59.7726 45.5L63.3086 35.116H65.6766L69.0686 45.5H67.0846L66.3646 43.26H62.5086L61.7726 45.5H59.7726ZM62.9886 41.836H65.9166L64.4606 37.372L62.9886 41.836ZM71.0843 35.116H73.7883L76.7163 41.468H76.5563L79.4843 35.116H82.0923V45.5H80.1883V37.292H80.4763L77.2443 44.364H76.0123L72.7963 37.324H72.9723V45.5H71.0843V35.116ZM85.2286 45.5V35.116H87.1166V45.5H85.2286ZM90.2316 35.116H92.2956L97.0156 42.524H96.8716V35.116H98.7596V45.5H96.8396L91.8156 37.644H92.1196V45.5H90.2316V35.116ZM109.875 45.724C108.963 45.724 108.169 45.508 107.491 45.076C106.819 44.6387 106.297 44.0147 105.923 43.204C105.55 42.3933 105.363 41.42 105.363 40.284C105.363 39.1107 105.555 38.1267 105.939 37.332C106.329 36.532 106.862 35.9293 107.539 35.524C108.222 35.1133 109.001 34.908 109.875 34.908C111.086 34.908 112.03 35.2013 112.707 35.788C113.39 36.3747 113.827 37.1373 114.019 38.076L112.003 38.444C111.838 37.9 111.574 37.46 111.211 37.124C110.849 36.788 110.403 36.62 109.875 36.62C109.411 36.62 108.993 36.756 108.619 37.028C108.246 37.2947 107.947 37.7 107.723 38.244C107.505 38.788 107.395 39.468 107.395 40.284C107.395 41.052 107.491 41.7133 107.683 42.268C107.881 42.8227 108.163 43.2493 108.531 43.548C108.899 43.8467 109.347 43.996 109.875 43.996C110.553 43.996 111.075 43.8173 111.443 43.46C111.817 43.0973 112.003 42.636 112.003 42.076H114.019C114.019 42.8493 113.851 43.508 113.515 44.052C113.185 44.5907 112.71 45.004 112.091 45.292C111.473 45.58 110.734 45.724 109.875 45.724ZM120.607 45.5V35.116H122.495V45.5H120.607ZM125.61 35.116H127.674L132.394 42.524H132.25V35.116H134.138V45.5H132.218L127.194 37.644H127.498V45.5H125.61V35.116ZM141.063 45.724C140.215 45.724 139.449 45.5 138.767 45.052C138.084 44.604 137.54 43.98 137.135 43.18C136.735 42.3747 136.535 41.436 136.535 40.364C136.535 39.516 136.657 38.756 136.903 38.084C137.153 37.412 137.5 36.8387 137.943 36.364C138.385 35.8893 138.905 35.5293 139.503 35.284C140.1 35.0333 140.748 34.908 141.447 34.908C142.417 34.908 143.231 35.1187 143.887 35.54C144.548 35.9613 145.063 36.6253 145.431 37.532L143.495 37.98C143.223 37.5373 142.908 37.2013 142.551 36.972C142.199 36.7373 141.799 36.62 141.351 36.62C140.839 36.62 140.372 36.772 139.951 37.076C139.529 37.3747 139.193 37.804 138.943 38.364C138.692 38.924 138.567 39.5907 138.567 40.364C138.567 41.0893 138.676 41.724 138.895 42.268C139.119 42.812 139.431 43.236 139.831 43.54C140.231 43.844 140.695 43.996 141.223 43.996C141.671 43.996 142.071 43.8973 142.423 43.7C142.78 43.4973 143.06 43.2093 143.263 42.836C143.471 42.4627 143.575 42.012 143.575 41.484H143.991C143.991 42.348 143.887 43.0973 143.679 43.732C143.476 44.3667 143.159 44.8573 142.727 45.204C142.295 45.5507 141.74 45.724 141.063 45.724ZM143.847 45.5L143.575 43.212V41.42L141.239 41.372V40.172H145.383V45.5H143.847ZM148.259 45.5V35.116H152.099C153.341 35.116 154.293 35.4067 154.955 35.988C155.621 36.5693 155.955 37.34 155.955 38.3C155.955 39.244 155.621 40.0067 154.955 40.588C154.293 41.164 153.341 41.452 152.099 41.452H150.147V45.5H148.259ZM153.875 45.5L151.123 40.636H153.139L156.339 45.5H153.875ZM150.147 40.188H151.907C152.6 40.188 153.125 40.0307 153.483 39.716C153.84 39.396 154.019 38.9827 154.019 38.476C154.019 37.9587 153.856 37.5427 153.531 37.228C153.205 36.908 152.728 36.748 152.099 36.748H150.147V40.188ZM158.7 45.5V35.116H165.372V36.748H160.588V39.484H165.084V41.116H160.588V43.852H165.372V45.5H158.7ZM168.266 35.116H171.626C172.682 35.116 173.607 35.3293 174.402 35.756C175.197 36.1773 175.815 36.7773 176.258 37.556C176.701 38.3347 176.922 39.2547 176.922 40.316C176.922 41.3667 176.701 42.2813 176.258 43.06C175.815 43.8333 175.197 44.4333 174.402 44.86C173.607 45.2867 172.682 45.5 171.626 45.5H168.266V35.116ZM170.154 36.828V43.804H171.626C172.298 43.804 172.877 43.652 173.362 43.348C173.853 43.044 174.229 42.6307 174.49 42.108C174.757 41.58 174.89 40.9827 174.89 40.316C174.89 39.6387 174.757 39.0387 174.49 38.516C174.229 37.9933 173.853 37.5827 173.362 37.284C172.877 36.98 172.298 36.828 171.626 36.828H170.154ZM179.411 45.5V35.116H181.299V45.5H179.411ZM184.43 45.5V35.116H191.102V36.748H186.318V39.484H190.814V41.116H186.318V43.852H191.102V45.5H184.43ZM193.964 35.116H196.028L200.748 42.524H200.604V35.116H202.492V45.5H200.572L195.548 37.644H195.852V45.5H193.964V35.116ZM204.233 36.748V35.116H212.553V36.748H208.913L209.337 36.316V45.5H207.449V36.316L207.873 36.748H204.233ZM217.901 45.724C217.181 45.724 216.517 45.5987 215.909 45.348C215.306 45.0973 214.816 44.716 214.437 44.204C214.064 43.692 213.864 43.0413 213.837 42.252H215.693C215.693 42.652 215.792 42.98 215.989 43.236C216.186 43.492 216.45 43.684 216.781 43.812C217.117 43.9347 217.485 43.996 217.885 43.996C218.269 43.996 218.61 43.9453 218.909 43.844C219.213 43.7427 219.45 43.5987 219.621 43.412C219.797 43.22 219.885 42.9933 219.885 42.732C219.885 42.3853 219.778 42.1133 219.565 41.916C219.357 41.7187 219.021 41.5373 218.557 41.372L216.509 40.556C215.709 40.2413 215.096 39.876 214.669 39.46C214.242 39.044 214.029 38.4707 214.029 37.74C214.029 36.8973 214.362 36.2147 215.029 35.692C215.696 35.1693 216.626 34.908 217.821 34.908C218.984 34.908 219.882 35.18 220.517 35.724C221.152 36.2627 221.512 37.0147 221.597 37.98H219.741C219.672 37.5693 219.485 37.2413 219.181 36.996C218.877 36.7453 218.424 36.62 217.821 36.62C217.288 36.62 216.866 36.732 216.557 36.956C216.248 37.1747 216.093 37.452 216.093 37.788C216.093 38.076 216.189 38.3053 216.381 38.476C216.578 38.6413 216.882 38.8013 217.293 38.956L219.565 39.836C220.333 40.1347 220.922 40.5107 221.333 40.964C221.744 41.4173 221.949 41.9853 221.949 42.668C221.949 43.292 221.792 43.8333 221.477 44.292C221.162 44.7453 220.704 45.0973 220.101 45.348C219.498 45.5987 218.765 45.724 217.901 45.724Z" fill="#333333"/>
</g>
<defs>
<filter id="filter0_d_7044_5952" x="22" y="0" width="233.767" height="68" filterUnits="userSpaceOnUse" color-interpolation-filters="sRGB">
<feFlood flood-opacity="0" result="BackgroundImageFix"/>
<feColorMatrix in="SourceAlpha" type="matrix" values="0 0 0 0 0 0 0 0 0 0 0 0 0 0 0 0 0 0 127 0" result="hardAlpha"/>
<feOffset dy="4"/>
<feGaussianBlur stdDeviation="3"/>
<feComposite in2="hardAlpha" operator="out"/>
<feColorMatrix type="matrix" values="0 0 0 0 0 0 0 0 0 0 0 0 0 0 0 0 0 0 0.1 0"/>
<feBlend mode="normal" in2="BackgroundImageFix" result="effect1_dropShadow_7044_5952"/>
<feBlend mode="normal" in="SourceGraphic" in2="effect1_dropShadow_7044_5952" result="shape"/>
</filter>
<filter id="filter1_d_7044_5952" x="30.9318" y="12.5879" width="197.017" height="43.1357" filterUnits="userSpaceOnUse" color-interpolation-filters="sRGB">
<feFlood flood-opacity="0" result="BackgroundImageFix"/>
<feColorMatrix in="SourceAlpha" type="matrix" values="0 0 0 0 0 0 0 0 0 0 0 0 0 0 0 0 0 0 127 0" result="hardAlpha"/>
<feOffset dy="4"/>
<feGaussianBlur stdDeviation="3"/>
<feComposite in2="hardAlpha" operator="out"/>
<feColorMatrix type="matrix" values="0 0 0 0 0 0 0 0 0 0 0 0 0 0 0 0 0 0 0.05 0"/>
<feBlend mode="normal" in2="BackgroundImageFix" result="effect1_dropShadow_7044_5952"/>
<feBlend mode="normal" in="SourceGraphic" in2="effect1_dropShadow_7044_5952" result="shape"/>
</filter>
</defs>
</svg>
