<svg width="256" height="68" viewBox="0 0 256 68" fill="none" xmlns="http://www.w3.org/2000/svg">
<mask id="path-1-inside-1_7061_5981" fill="white">
<path d="M248.724 27.3669L239 19L239 11C239 6.02944 234.971 2 230 2L8.99997 1.99998C4.02941 1.99998 -2.59742e-05 6.02942 -2.64087e-05 11L-2.97308e-05 49C-3.01653e-05 53.9705 4.0294 58 8.99997 58L230 58C234.971 58 239 53.9706 239 49L239 39.5L248.612 32.0069C250.106 30.8425 250.16 28.6022 248.724 27.3669Z"/>
</mask>
<path d="M248.724 27.3669L239 19L239 11C239 6.02944 234.971 2 230 2L8.99997 1.99998C4.02941 1.99998 -2.59742e-05 6.02942 -2.64087e-05 11L-2.97308e-05 49C-3.01653e-05 53.9705 4.0294 58 8.99997 58L230 58C234.971 58 239 53.9706 239 49L239 39.5L248.612 32.0069C250.106 30.8425 250.16 28.6022 248.724 27.3669Z" fill="white"/>
<path d="M239 19L237.6 19L237.6 19.6423L238.087 20.0612L239 19ZM248.724 27.3669L249.637 26.3056L249.637 26.3056L248.724 27.3669ZM248.612 32.0069L247.751 30.9028L247.751 30.9028L248.612 32.0069ZM239 39.5L238.139 38.3959L237.6 38.8162L237.6 39.5L239 39.5ZM238.087 20.0612L247.811 28.4281L249.637 26.3056L239.913 17.9388L238.087 20.0612ZM247.751 30.9028L238.139 38.3959L239.861 40.6041L249.473 33.1111L247.751 30.9028ZM247.811 28.4281C248.577 29.0869 248.548 30.2817 247.751 30.9028L249.473 33.1111C251.663 31.4032 251.743 28.1175 249.637 26.3056L247.811 28.4281ZM230 56.6L8.99997 56.6L8.99997 59.4L230 59.4L230 56.6ZM1.39997 49L1.39997 11L-1.40003 11L-1.40003 49L1.39997 49ZM8.99997 3.39998L230 3.4L230 0.599998L8.99997 0.599979L8.99997 3.39998ZM237.6 39.5L237.6 49L240.4 49L240.4 39.5L237.6 39.5ZM237.6 11L237.6 19L240.4 19L240.4 11L237.6 11ZM230 3.4C234.197 3.4 237.6 6.80264 237.6 11L240.4 11C240.4 5.25624 235.744 0.599999 230 0.599998L230 3.4ZM1.39997 11C1.39997 6.80261 4.80261 3.39998 8.99997 3.39998L8.99997 0.599979C3.25621 0.599978 -1.40003 5.25622 -1.40003 11L1.39997 11ZM8.99997 56.6C4.8026 56.6 1.39997 53.1973 1.39997 49L-1.40003 49C-1.40003 54.7437 3.2562 59.4 8.99997 59.4L8.99997 56.6ZM230 59.4C235.744 59.4 240.4 54.7438 240.4 49L237.6 49C237.6 53.1974 234.197 56.6 230 56.6L230 59.4Z" fill="white" mask="url(#path-1-inside-1_7061_5981)"/>
<g filter="url(#filter0_d_7061_5981)">
<mask id="path-3-inside-2_7061_5981" fill="white">
<path d="M248.724 27.3669L239 19L239 11C239 6.02944 234.971 2 230 2L64 1.99998C59.0294 1.99998 55 6.02942 55 11L55 49C55 53.9705 59.0294 58 64 58L230 58C234.971 58 239 53.9706 239 49L239 39.5L248.612 32.0069C250.106 30.8425 250.16 28.6022 248.724 27.3669Z"/>
</mask>
<path d="M248.724 27.3669L239 19L239 11C239 6.02944 234.971 2 230 2L64 1.99998C59.0294 1.99998 55 6.02942 55 11L55 49C55 53.9705 59.0294 58 64 58L230 58C234.971 58 239 53.9706 239 49L239 39.5L248.612 32.0069C250.106 30.8425 250.16 28.6022 248.724 27.3669Z" fill="white"/>
<path d="M239 19L237.6 19L237.6 19.6423L238.087 20.0612L239 19ZM248.724 27.3669L249.637 26.3056L249.637 26.3056L248.724 27.3669ZM248.612 32.0069L247.751 30.9028L247.751 30.9028L248.612 32.0069ZM239 39.5L238.139 38.3959L237.6 38.8162L237.6 39.5L239 39.5ZM230 58L230 59.4L230 59.4L230 58ZM64 58L64 56.6H64L64 58ZM238.087 20.0612L247.811 28.4281L249.637 26.3056L239.913 17.9388L238.087 20.0612ZM247.751 30.9028L238.139 38.3959L239.861 40.6041L249.473 33.1111L247.751 30.9028ZM247.811 28.4281C248.577 29.0869 248.548 30.2817 247.751 30.9028L249.473 33.1111C251.663 31.4032 251.743 28.1175 249.637 26.3056L247.811 28.4281ZM230 56.6L64 56.6L64 59.4L230 59.4L230 56.6ZM56.4 49L56.4 11L53.6 11L53.6 49L56.4 49ZM64 3.39998L230 3.4L230 0.599998L64 0.599984L64 3.39998ZM237.6 39.5L237.6 49L240.4 49L240.4 39.5L237.6 39.5ZM237.6 11L237.6 19L240.4 19L240.4 11L237.6 11ZM230 3.4C234.197 3.4 237.6 6.80264 237.6 11L240.4 11C240.4 5.25624 235.744 0.599999 230 0.599998L230 3.4ZM56.4 11C56.4 6.80262 59.8026 3.39998 64 3.39998L64 0.599984C58.2562 0.599983 53.6 5.25622 53.6 11L56.4 11ZM64 56.6C59.8026 56.6 56.4 53.1973 56.4 49L53.6 49C53.6 54.7437 58.2562 59.4 64 59.4L64 56.6ZM230 59.4C235.744 59.4 240.4 54.7438 240.4 49L237.6 49C237.6 53.1974 234.197 56.6 230 56.6L230 59.4Z" fill="#333333" mask="url(#path-3-inside-2_7061_5981)"/>
</g>
<g filter="url(#filter1_d_7061_5981)">
<path d="M112.606 16.524V15.452H120.43V16.524H116.854L117.134 16.236V25.5H115.886V16.236L116.166 16.524H112.606ZM127.742 25.5V21.004C127.742 20.2733 127.566 19.7187 127.214 19.34C126.867 18.956 126.392 18.764 125.79 18.764C125.331 18.764 124.934 18.8893 124.598 19.14C124.262 19.3907 124.003 19.7507 123.822 20.22C123.64 20.684 123.55 21.2387 123.55 21.884H123.07C123.07 20.9933 123.187 20.2333 123.422 19.604C123.656 18.9747 123.998 18.4947 124.446 18.164C124.899 17.828 125.448 17.66 126.094 17.66C126.696 17.66 127.211 17.796 127.638 18.068C128.07 18.3347 128.4 18.7187 128.63 19.22C128.859 19.7213 128.974 20.316 128.974 21.004V25.5H127.742ZM122.302 25.5V14.588H123.55V25.5H122.302ZM136.854 25.5L136.694 23.82V20.54C136.694 19.852 136.547 19.3587 136.254 19.06C135.961 18.756 135.521 18.604 134.934 18.604C134.603 18.604 134.302 18.652 134.03 18.748C133.763 18.844 133.55 18.9933 133.39 19.196C133.235 19.3933 133.158 19.6493 133.158 19.964H131.766C131.766 19.4093 131.902 18.964 132.174 18.628C132.446 18.2867 132.819 18.0413 133.294 17.892C133.774 17.7373 134.321 17.66 134.934 17.66C135.521 17.66 136.041 17.7587 136.494 17.956C136.947 18.1533 137.302 18.468 137.558 18.9C137.814 19.3267 137.942 19.884 137.942 20.572V25.5H136.854ZM134.246 25.692C133.617 25.692 133.097 25.58 132.686 25.356C132.275 25.132 131.969 24.8413 131.766 24.484C131.563 24.1267 131.462 23.7507 131.462 23.356C131.462 22.8387 131.59 22.4173 131.846 22.092C132.107 21.7667 132.462 21.5293 132.91 21.38C133.358 21.2253 133.862 21.148 134.422 21.148C134.822 21.148 135.222 21.188 135.622 21.268C136.027 21.348 136.422 21.4573 136.806 21.596V22.38C136.486 22.252 136.123 22.1507 135.718 22.076C135.318 22.0013 134.95 21.964 134.614 21.964C134.102 21.964 133.67 22.0707 133.318 22.284C132.966 22.492 132.79 22.8493 132.79 23.356C132.79 23.7293 132.923 24.0493 133.19 24.316C133.462 24.5827 133.894 24.716 134.486 24.716C134.902 24.716 135.275 24.62 135.606 24.428C135.942 24.2307 136.206 23.9853 136.398 23.692C136.595 23.3987 136.694 23.1053 136.694 22.812H136.998C136.998 23.324 136.886 23.7987 136.662 24.236C136.443 24.6733 136.129 25.0253 135.718 25.292C135.307 25.5587 134.817 25.692 134.246 25.692ZM143.442 25.692C143.026 25.692 142.653 25.612 142.322 25.452C141.992 25.292 141.73 25.052 141.538 24.732C141.346 24.412 141.25 24.012 141.25 23.532V15.724H142.482V23.5C142.482 24.2893 142.85 24.684 143.586 24.684C143.805 24.684 144.016 24.66 144.218 24.612C144.426 24.564 144.658 24.492 144.914 24.396L145.09 25.292C144.818 25.4093 144.546 25.5053 144.274 25.58C144.008 25.6547 143.73 25.692 143.442 25.692ZM140.018 18.716V17.852H144.898V18.716H140.018ZM146.786 18.796L145.89 18.316C146.194 18.1613 146.45 17.988 146.658 17.796C146.871 17.5987 147.01 17.372 147.074 17.116C146.834 17.0893 146.631 17.0067 146.466 16.868C146.306 16.7293 146.226 16.5453 146.226 16.316C146.226 16.0813 146.314 15.884 146.49 15.724C146.666 15.564 146.887 15.484 147.154 15.484C147.378 15.484 147.57 15.5427 147.73 15.66C147.89 15.772 148.013 15.924 148.098 16.116C148.183 16.3027 148.226 16.5133 148.226 16.748C148.226 17.132 148.101 17.508 147.85 17.876C147.599 18.2387 147.245 18.5453 146.786 18.796ZM153.584 25.692C152.843 25.692 152.224 25.588 151.728 25.38C151.232 25.1667 150.856 24.876 150.6 24.508C150.344 24.1347 150.208 23.708 150.192 23.228H151.392C151.419 23.7133 151.614 24.0787 151.976 24.324C152.344 24.564 152.843 24.684 153.472 24.684C153.803 24.684 154.107 24.6307 154.384 24.524C154.662 24.4173 154.883 24.2707 155.048 24.084C155.214 23.8973 155.296 23.6867 155.296 23.452C155.296 23.1533 155.187 22.9187 154.968 22.748C154.75 22.5773 154.4 22.428 153.92 22.3L152.432 21.82C151.787 21.6173 151.291 21.34 150.944 20.988C150.603 20.6307 150.432 20.204 150.432 19.708C150.432 19.0893 150.704 18.5933 151.248 18.22C151.792 17.8467 152.507 17.66 153.392 17.66C154.331 17.66 155.059 17.852 155.576 18.236C156.094 18.62 156.363 19.1 156.384 19.676H155.152C155.104 19.34 154.934 19.0867 154.64 18.916C154.347 18.74 153.931 18.652 153.392 18.652C152.875 18.652 152.47 18.7693 152.176 19.004C151.888 19.2333 151.744 19.4893 151.744 19.772C151.744 20.3 152.198 20.6893 153.104 20.94L154.624 21.452C155.28 21.6493 155.782 21.908 156.128 22.228C156.48 22.548 156.656 22.956 156.656 23.452C156.656 23.836 156.531 24.1987 156.28 24.54C156.03 24.8813 155.675 25.1587 155.216 25.372C154.758 25.5853 154.214 25.692 153.584 25.692ZM166.011 25.692C165.35 25.692 164.758 25.524 164.235 25.188C163.718 24.8467 163.307 24.3747 163.003 23.772C162.705 23.1693 162.555 22.476 162.555 21.692C162.555 20.8547 162.705 20.1347 163.003 19.532C163.302 18.9293 163.71 18.468 164.227 18.148C164.75 17.8227 165.345 17.66 166.011 17.66C166.593 17.66 167.089 17.7773 167.499 18.012C167.91 18.2467 168.241 18.564 168.491 18.964C168.742 19.364 168.915 19.8173 169.011 20.324C169.113 20.8253 169.142 21.3453 169.099 21.884H163.563V21.116H168.275L167.907 21.356C167.923 21.0413 167.905 20.7267 167.851 20.412C167.803 20.0973 167.71 19.8093 167.571 19.548C167.433 19.2813 167.238 19.068 166.987 18.908C166.737 18.748 166.417 18.668 166.027 18.668C165.537 18.668 165.126 18.7933 164.795 19.044C164.465 19.2947 164.217 19.6253 164.051 20.036C163.886 20.4413 163.803 20.8813 163.803 21.356V21.868C163.803 22.4013 163.883 22.8787 164.043 23.3C164.209 23.7213 164.454 24.0547 164.779 24.3C165.105 24.5453 165.515 24.668 166.011 24.668C166.507 24.668 166.915 24.548 167.235 24.308C167.555 24.068 167.75 23.7133 167.819 23.244H169.115C169.035 23.7507 168.854 24.188 168.571 24.556C168.289 24.9187 167.929 25.1987 167.491 25.396C167.054 25.5933 166.561 25.692 166.011 25.692ZM177.174 25.5V21.004C177.174 20.2733 176.998 19.7187 176.646 19.34C176.299 18.956 175.825 18.764 175.222 18.764C174.763 18.764 174.366 18.8893 174.03 19.14C173.694 19.3907 173.435 19.7507 173.254 20.22C173.073 20.684 172.982 21.2387 172.982 21.884H172.502C172.502 20.9933 172.619 20.2333 172.854 19.604C173.089 18.9747 173.43 18.4947 173.878 18.164C174.331 17.828 174.881 17.66 175.526 17.66C176.129 17.66 176.643 17.796 177.07 18.068C177.502 18.3347 177.833 18.7187 178.062 19.22C178.291 19.7213 178.406 20.316 178.406 21.004V25.5H177.174ZM171.734 25.5V17.852H172.806L172.982 19.612V25.5H171.734ZM184.318 25.692C183.63 25.692 183.017 25.54 182.478 25.236C181.945 24.932 181.524 24.4813 181.214 23.884C180.905 23.2867 180.75 22.5507 180.75 21.676C180.75 20.796 180.905 20.06 181.214 19.468C181.524 18.8707 181.945 18.42 182.478 18.116C183.017 17.812 183.63 17.66 184.318 17.66C185.001 17.66 185.609 17.812 186.142 18.116C186.681 18.42 187.102 18.8707 187.406 19.468C187.716 20.06 187.87 20.796 187.87 21.676C187.87 22.5507 187.716 23.2867 187.406 23.884C187.102 24.4813 186.681 24.932 186.142 25.236C185.609 25.54 185.001 25.692 184.318 25.692ZM184.286 24.604C184.782 24.604 185.204 24.4867 185.55 24.252C185.897 24.012 186.158 23.6733 186.334 23.236C186.516 22.7987 186.606 22.2787 186.606 21.676C186.606 20.764 186.417 20.0467 186.038 19.524C185.66 18.996 185.097 18.732 184.35 18.732C183.849 18.732 183.425 18.852 183.078 19.092C182.737 19.3267 182.476 19.6653 182.294 20.108C182.118 20.5453 182.03 21.068 182.03 21.676C182.03 22.5773 182.22 23.292 182.598 23.82C182.982 24.3427 183.545 24.604 184.286 24.604ZM195.66 17.836H196.908V25.5H195.66V17.836ZM190.236 17.836H191.484V22.604C191.484 23.244 191.639 23.7293 191.948 24.06C192.263 24.3907 192.711 24.556 193.292 24.556C193.772 24.556 194.188 24.428 194.54 24.172C194.898 23.916 195.172 23.564 195.364 23.116C195.562 22.6627 195.66 22.1453 195.66 21.564H196.124C196.124 22.4227 195.999 23.156 195.748 23.764C195.503 24.372 195.154 24.8387 194.7 25.164C194.252 25.484 193.724 25.644 193.116 25.644C192.54 25.644 192.036 25.5373 191.604 25.324C191.172 25.1107 190.836 24.788 190.596 24.356C190.356 23.9187 190.236 23.3667 190.236 22.7V17.836ZM203.012 29.436C202.228 29.436 201.548 29.324 200.972 29.1C200.396 28.8813 199.948 28.5853 199.628 28.212C199.313 27.844 199.156 27.436 199.156 26.988C199.156 26.396 199.372 25.9427 199.804 25.628C200.241 25.3187 200.804 25.164 201.492 25.164L202.18 25.596C201.604 25.596 201.159 25.716 200.844 25.956C200.529 26.196 200.372 26.524 200.372 26.94C200.372 27.356 200.596 27.708 201.044 27.996C201.492 28.284 202.148 28.428 203.012 28.428C203.652 28.428 204.212 28.3347 204.692 28.148C205.177 27.9667 205.553 27.7267 205.82 27.428C206.092 27.1347 206.228 26.8173 206.228 26.476C206.228 26.236 206.14 26.028 205.964 25.852C205.788 25.6813 205.519 25.596 205.156 25.596H202.18C201.663 25.596 201.215 25.5187 200.836 25.364C200.463 25.204 200.175 24.996 199.972 24.74C199.769 24.484 199.668 24.204 199.668 23.9C199.668 23.58 199.759 23.308 199.94 23.084C200.121 22.86 200.356 22.6893 200.644 22.572C200.937 22.4547 201.252 22.396 201.588 22.396L201.828 22.86C201.668 22.86 201.505 22.8973 201.34 22.972C201.18 23.0413 201.044 23.148 200.932 23.292C200.825 23.4307 200.772 23.6067 200.772 23.82C200.772 24.0653 200.873 24.2707 201.076 24.436C201.279 24.6013 201.647 24.684 202.18 24.684H205.156C205.876 24.684 206.441 24.836 206.852 25.14C207.268 25.444 207.476 25.868 207.476 26.412C207.476 26.9133 207.297 27.3933 206.94 27.852C206.583 28.316 206.071 28.6947 205.404 28.988C204.737 29.2867 203.94 29.436 203.012 29.436ZM203.236 23.26C202.649 23.26 202.119 23.1427 201.644 22.908C201.175 22.6733 200.801 22.3453 200.524 21.924C200.252 21.5027 200.116 21.0147 200.116 20.46C200.116 19.9 200.252 19.4093 200.524 18.988C200.801 18.5667 201.175 18.2413 201.644 18.012C202.119 17.7773 202.649 17.66 203.236 17.66C203.807 17.66 204.324 17.7773 204.788 18.012C205.257 18.2413 205.631 18.5667 205.908 18.988C206.185 19.4093 206.324 19.9 206.324 20.46C206.324 21.0147 206.185 21.5027 205.908 21.924C205.631 22.3453 205.257 22.6733 204.788 22.908C204.324 23.1427 203.807 23.26 203.236 23.26ZM203.236 22.364C203.823 22.364 204.279 22.1827 204.604 21.82C204.929 21.4573 205.092 21.004 205.092 20.46C205.092 19.9 204.929 19.4467 204.604 19.1C204.279 18.748 203.823 18.572 203.236 18.572C202.655 18.572 202.196 18.748 201.86 19.1C201.529 19.4467 201.364 19.9 201.364 20.46C201.364 21.004 201.529 21.4573 201.86 21.82C202.196 22.1827 202.655 22.364 203.236 22.364ZM205.748 18.876L205.156 18.636C205.156 18.188 205.244 17.796 205.42 17.46C205.596 17.1187 205.847 16.8547 206.172 16.668C206.497 16.476 206.884 16.38 207.332 16.38L207.236 17.612C206.756 17.612 206.388 17.716 206.132 17.924C205.876 18.1267 205.748 18.444 205.748 18.876ZM214.939 25.5V21.004C214.939 20.2733 214.763 19.7187 214.411 19.34C214.064 18.956 213.59 18.764 212.987 18.764C212.528 18.764 212.131 18.8893 211.795 19.14C211.459 19.3907 211.2 19.7507 211.019 20.22C210.838 20.684 210.747 21.2387 210.747 21.884H210.267C210.267 20.9933 210.384 20.2333 210.619 19.604C210.854 18.9747 211.195 18.4947 211.643 18.164C212.096 17.828 212.646 17.66 213.291 17.66C213.894 17.66 214.408 17.796 214.835 18.068C215.267 18.3347 215.598 18.7187 215.827 19.22C216.056 19.7213 216.171 20.316 216.171 21.004V25.5H214.939ZM209.499 25.5V14.588H210.747V25.5H209.499ZM219.123 27.244L218.179 26.78C218.483 26.6253 218.739 26.4547 218.947 26.268C219.161 26.0813 219.299 25.852 219.363 25.58C219.134 25.5533 218.937 25.4707 218.771 25.332C218.611 25.1933 218.531 25.0093 218.531 24.78C218.531 24.556 218.614 24.364 218.779 24.204C218.95 24.044 219.166 23.964 219.427 23.964C219.758 23.964 220.025 24.084 220.227 24.324C220.43 24.564 220.531 24.8493 220.531 25.18C220.531 25.5693 220.411 25.9507 220.171 26.324C219.937 26.7027 219.587 27.0093 219.123 27.244ZM74.486 45.5V37.836H75.734V45.5H74.486ZM75.35 42.044C75.35 41.0733 75.4433 40.268 75.63 39.628C75.8167 38.9827 76.0887 38.5027 76.446 38.188C76.8087 37.868 77.2487 37.708 77.766 37.708C77.9367 37.708 78.0913 37.7213 78.23 37.748C78.374 37.7693 78.518 37.804 78.662 37.852L78.582 39.084C78.4327 39.036 78.27 38.996 78.094 38.964C77.918 38.9267 77.7607 38.908 77.622 38.908C77.1687 38.908 76.8033 39.0387 76.526 39.3C76.2487 39.556 76.046 39.9187 75.918 40.388C75.7953 40.8573 75.734 41.4093 75.734 42.044H75.35ZM83.0832 45.692C82.4219 45.692 81.8299 45.524 81.3072 45.188C80.7899 44.8467 80.3792 44.3747 80.0752 43.772C79.7766 43.1693 79.6272 42.476 79.6272 41.692C79.6272 40.8547 79.7766 40.1347 80.0752 39.532C80.3739 38.9293 80.7819 38.468 81.2992 38.148C81.8219 37.8227 82.4166 37.66 83.0832 37.66C83.6646 37.66 84.1606 37.7773 84.5712 38.012C84.9819 38.2467 85.3126 38.564 85.5632 38.964C85.8139 39.364 85.9872 39.8173 86.0832 40.324C86.1846 40.8253 86.2139 41.3453 86.1712 41.884H80.6352V41.116H85.3472L84.9792 41.356C84.9952 41.0413 84.9766 40.7267 84.9232 40.412C84.8752 40.0973 84.7819 39.8093 84.6432 39.548C84.5046 39.2813 84.3099 39.068 84.0592 38.908C83.8086 38.748 83.4886 38.668 83.0992 38.668C82.6086 38.668 82.1979 38.7933 81.8672 39.044C81.5366 39.2947 81.2886 39.6253 81.1232 40.036C80.9579 40.4413 80.8752 40.8813 80.8752 41.356V41.868C80.8752 42.4013 80.9552 42.8787 81.1152 43.3C81.2806 43.7213 81.5259 44.0547 81.8512 44.3C82.1766 44.5453 82.5872 44.668 83.0832 44.668C83.5792 44.668 83.9872 44.548 84.3072 44.308C84.6272 44.068 84.8219 43.7133 84.8912 43.244H86.1872C86.1072 43.7507 85.9259 44.188 85.6432 44.556C85.3606 44.9187 85.0006 45.1987 84.5632 45.396C84.1259 45.5933 83.6326 45.692 83.0832 45.692ZM91.158 45.692C90.742 45.692 90.3687 45.612 90.038 45.452C89.7073 45.292 89.446 45.052 89.254 44.732C89.062 44.412 88.966 44.012 88.966 43.532V35.724H90.198V43.5C90.198 44.2893 90.566 44.684 91.302 44.684C91.5207 44.684 91.7313 44.66 91.934 44.612C92.142 44.564 92.374 44.492 92.63 44.396L92.806 45.292C92.534 45.4093 92.262 45.5053 91.99 45.58C91.7233 45.6547 91.446 45.692 91.158 45.692ZM87.734 38.716V37.852H92.614V38.716H87.734ZM100.182 37.836H101.43V45.5H100.182V37.836ZM94.7576 37.836H96.0056V42.604C96.0056 43.244 96.1603 43.7293 96.4696 44.06C96.7843 44.3907 97.2323 44.556 97.8136 44.556C98.2936 44.556 98.7096 44.428 99.0616 44.172C99.419 43.916 99.6936 43.564 99.8856 43.116C100.083 42.6627 100.182 42.1453 100.182 41.564H100.646C100.646 42.4227 100.52 43.156 100.27 43.764C100.024 44.372 99.675 44.8387 99.2216 45.164C98.7736 45.484 98.2456 45.644 97.6376 45.644C97.0616 45.644 96.5576 45.5373 96.1256 45.324C95.6936 45.1107 95.3576 44.788 95.1176 44.356C94.8776 43.9187 94.7576 43.3667 94.7576 42.7V37.836ZM104.829 45.5V37.836H106.077V45.5H104.829ZM105.693 42.044C105.693 41.0733 105.786 40.268 105.973 39.628C106.16 38.9827 106.432 38.5027 106.789 38.188C107.152 37.868 107.592 37.708 108.109 37.708C108.28 37.708 108.434 37.7213 108.573 37.748C108.717 37.7693 108.861 37.804 109.005 37.852L108.925 39.084C108.776 39.036 108.613 38.996 108.437 38.964C108.261 38.9267 108.104 38.908 107.965 38.908C107.512 38.908 107.146 39.0387 106.869 39.3C106.592 39.556 106.389 39.9187 106.261 40.388C106.138 40.8573 106.077 41.4093 106.077 42.044H105.693ZM116.21 45.5V41.004C116.21 40.2733 116.034 39.7187 115.682 39.34C115.336 38.956 114.861 38.764 114.258 38.764C113.8 38.764 113.402 38.8893 113.066 39.14C112.73 39.3907 112.472 39.7507 112.29 40.22C112.109 40.684 112.018 41.2387 112.018 41.884H111.538C111.538 40.9933 111.656 40.2333 111.89 39.604C112.125 38.9747 112.466 38.4947 112.914 38.164C113.368 37.828 113.917 37.66 114.562 37.66C115.165 37.66 115.68 37.796 116.106 38.068C116.538 38.3347 116.869 38.7187 117.098 39.22C117.328 39.7213 117.442 40.316 117.442 41.004V45.5H116.21ZM110.77 45.5V37.852H111.842L112.018 39.612V45.5H110.77ZM126.895 45.692C126.479 45.692 126.106 45.612 125.775 45.452C125.445 45.292 125.183 45.052 124.991 44.732C124.799 44.412 124.703 44.012 124.703 43.532V35.724H125.935V43.5C125.935 44.2893 126.303 44.684 127.039 44.684C127.258 44.684 127.469 44.66 127.671 44.612C127.879 44.564 128.111 44.492 128.367 44.396L128.543 45.292C128.271 45.4093 127.999 45.5053 127.727 45.58C127.461 45.6547 127.183 45.692 126.895 45.692ZM123.471 38.716V37.852H128.351V38.716H123.471ZM133.487 45.692C132.799 45.692 132.186 45.54 131.647 45.236C131.114 44.932 130.692 44.4813 130.383 43.884C130.074 43.2867 129.919 42.5507 129.919 41.676C129.919 40.796 130.074 40.06 130.383 39.468C130.692 38.8707 131.114 38.42 131.647 38.116C132.186 37.812 132.799 37.66 133.487 37.66C134.17 37.66 134.778 37.812 135.311 38.116C135.85 38.42 136.271 38.8707 136.575 39.468C136.884 40.06 137.039 40.796 137.039 41.676C137.039 42.5507 136.884 43.2867 136.575 43.884C136.271 44.4813 135.85 44.932 135.311 45.236C134.778 45.54 134.17 45.692 133.487 45.692ZM133.455 44.604C133.951 44.604 134.372 44.4867 134.719 44.252C135.066 44.012 135.327 43.6733 135.503 43.236C135.684 42.7987 135.775 42.2787 135.775 41.676C135.775 40.764 135.586 40.0467 135.207 39.524C134.828 38.996 134.266 38.732 133.519 38.732C133.018 38.732 132.594 38.852 132.247 39.092C131.906 39.3267 131.644 39.6653 131.463 40.108C131.287 40.5453 131.199 41.068 131.199 41.676C131.199 42.5773 131.388 43.292 131.767 43.82C132.151 44.3427 132.714 44.604 133.455 44.604ZM143.458 35.116H145.346V39.452H149.874V35.116H151.762V45.5H149.874V41.1H145.346V45.5H143.458V35.116ZM153.763 45.5L157.299 35.116H159.667L163.059 45.5H161.075L160.355 43.26H156.499L155.763 45.5H153.763ZM156.979 41.836H159.907L158.451 37.372L156.979 41.836ZM163.246 35.116H165.486L167.966 39.58H167.598L170.174 35.116H172.398L168.702 41.212V45.5H166.814V41.212L163.246 35.116ZM178.379 45.5V35.116H184.923V36.748H180.267V39.484H184.523V41.1H180.267V45.5H178.379ZM187.273 45.5V35.116H193.945V36.748H189.161V39.484H193.657V41.116H189.161V43.852H193.945V45.5H187.273ZM200.072 43.436L202.728 35.116H204.712L201.144 45.5H199.16L195.64 35.116H197.64L200.264 43.436H200.072ZM206.624 45.5V35.116H213.296V36.748H208.512V39.484H213.008V41.116H208.512V43.852H213.296V45.5H206.624ZM216.191 45.5V35.116H220.031C221.274 35.116 222.226 35.4067 222.887 35.988C223.554 36.5693 223.887 37.34 223.887 38.3C223.887 39.244 223.554 40.0067 222.887 40.588C222.226 41.164 221.274 41.452 220.031 41.452H218.079V45.5H216.191ZM221.807 45.5L219.055 40.636H221.071L224.271 45.5H221.807ZM218.079 40.188H219.839C220.532 40.188 221.058 40.0307 221.415 39.716C221.772 39.396 221.951 38.9827 221.951 38.476C221.951 37.9587 221.788 37.5427 221.463 37.228C221.138 36.908 220.66 36.748 220.031 36.748H218.079V40.188Z" fill="#333333"/>
</g>
<defs>
<filter id="filter0_d_7061_5981" x="49" y="0" width="206.767" height="68" filterUnits="userSpaceOnUse" color-interpolation-filters="sRGB">
<feFlood flood-opacity="0" result="BackgroundImageFix"/>
<feColorMatrix in="SourceAlpha" type="matrix" values="0 0 0 0 0 0 0 0 0 0 0 0 0 0 0 0 0 0 127 0" result="hardAlpha"/>
<feOffset dy="4"/>
<feGaussianBlur stdDeviation="3"/>
<feComposite in2="hardAlpha" operator="out"/>
<feColorMatrix type="matrix" values="0 0 0 0 0 0 0 0 0 0 0 0 0 0 0 0 0 0 0.1 0"/>
<feBlend mode="normal" in2="BackgroundImageFix" result="effect1_dropShadow_7061_5981"/>
<feBlend mode="normal" in="SourceGraphic" in2="effect1_dropShadow_7061_5981" result="shape"/>
</filter>
<filter id="filter1_d_7061_5981" x="68.4861" y="12.5879" width="161.785" height="43.1045" filterUnits="userSpaceOnUse" color-interpolation-filters="sRGB">
<feFlood flood-opacity="0" result="BackgroundImageFix"/>
<feColorMatrix in="SourceAlpha" type="matrix" values="0 0 0 0 0 0 0 0 0 0 0 0 0 0 0 0 0 0 127 0" result="hardAlpha"/>
<feOffset dy="4"/>
<feGaussianBlur stdDeviation="3"/>
<feComposite in2="hardAlpha" operator="out"/>
<feColorMatrix type="matrix" values="0 0 0 0 0 0 0 0 0 0 0 0 0 0 0 0 0 0 0.05 0"/>
<feBlend mode="normal" in2="BackgroundImageFix" result="effect1_dropShadow_7061_5981"/>
<feBlend mode="normal" in="SourceGraphic" in2="effect1_dropShadow_7061_5981" result="shape"/>
</filter>
</defs>
</svg>
