<svg width="256" height="68" viewBox="0 0 256 68" fill="none" xmlns="http://www.w3.org/2000/svg">
<mask id="path-1-inside-1_7073_5875" fill="white">
<path d="M248.724 27.3669L239 19L239 11C239 6.02944 234.971 2 230 2L8.99997 1.99998C4.02941 1.99998 -2.59742e-05 6.02942 -2.64087e-05 11L-2.97308e-05 49C-3.01653e-05 53.9705 4.0294 58 8.99997 58L230 58C234.971 58 239 53.9706 239 49L239 39.5L248.612 32.0069C250.106 30.8425 250.16 28.6022 248.724 27.3669Z"/>
</mask>
<path d="M248.724 27.3669L239 19L239 11C239 6.02944 234.971 2 230 2L8.99997 1.99998C4.02941 1.99998 -2.59742e-05 6.02942 -2.64087e-05 11L-2.97308e-05 49C-3.01653e-05 53.9705 4.0294 58 8.99997 58L230 58C234.971 58 239 53.9706 239 49L239 39.5L248.612 32.0069C250.106 30.8425 250.16 28.6022 248.724 27.3669Z" fill="white"/>
<path d="M239 19L237.6 19L237.6 19.6423L238.087 20.0612L239 19ZM248.724 27.3669L249.637 26.3056L249.637 26.3056L248.724 27.3669ZM248.612 32.0069L247.751 30.9028L247.751 30.9028L248.612 32.0069ZM239 39.5L238.139 38.3959L237.6 38.8162L237.6 39.5L239 39.5ZM238.087 20.0612L247.811 28.4281L249.637 26.3056L239.913 17.9388L238.087 20.0612ZM247.751 30.9028L238.139 38.3959L239.861 40.6041L249.473 33.1111L247.751 30.9028ZM247.811 28.4281C248.577 29.0869 248.548 30.2817 247.751 30.9028L249.473 33.1111C251.663 31.4032 251.743 28.1175 249.637 26.3056L247.811 28.4281ZM230 56.6L8.99997 56.6L8.99997 59.4L230 59.4L230 56.6ZM1.39997 49L1.39997 11L-1.40003 11L-1.40003 49L1.39997 49ZM8.99997 3.39998L230 3.4L230 0.599998L8.99997 0.599979L8.99997 3.39998ZM237.6 39.5L237.6 49L240.4 49L240.4 39.5L237.6 39.5ZM237.6 11L237.6 19L240.4 19L240.4 11L237.6 11ZM230 3.4C234.197 3.4 237.6 6.80264 237.6 11L240.4 11C240.4 5.25624 235.744 0.599999 230 0.599998L230 3.4ZM1.39997 11C1.39997 6.80261 4.80261 3.39998 8.99997 3.39998L8.99997 0.599979C3.25621 0.599978 -1.40003 5.25622 -1.40003 11L1.39997 11ZM8.99997 56.6C4.8026 56.6 1.39997 53.1973 1.39997 49L-1.40003 49C-1.40003 54.7437 3.2562 59.4 8.99997 59.4L8.99997 56.6ZM230 59.4C235.744 59.4 240.4 54.7438 240.4 49L237.6 49C237.6 53.1974 234.197 56.6 230 56.6L230 59.4Z" fill="white" mask="url(#path-1-inside-1_7073_5875)"/>
<g filter="url(#filter0_d_7073_5875)">
<mask id="path-3-inside-2_7073_5875" fill="white">
<path d="M248.724 27.3669L239 19L239 11C239 6.02944 234.971 2 230 2L186 1.99999C181.029 1.99999 177 6.02943 177 11L177 49C177 53.9705 181.029 58 186 58L230 58C234.971 58 239 53.9706 239 49L239 39.5L248.612 32.0069C250.106 30.8425 250.16 28.6022 248.724 27.3669Z"/>
</mask>
<path d="M248.724 27.3669L239 19L239 11C239 6.02944 234.971 2 230 2L186 1.99999C181.029 1.99999 177 6.02943 177 11L177 49C177 53.9705 181.029 58 186 58L230 58C234.971 58 239 53.9706 239 49L239 39.5L248.612 32.0069C250.106 30.8425 250.16 28.6022 248.724 27.3669Z" fill="white"/>
<path d="M239 19L237.6 19L237.6 19.6423L238.087 20.0612L239 19ZM248.724 27.3669L249.637 26.3056L249.637 26.3056L248.724 27.3669ZM248.612 32.0069L247.751 30.9028L247.751 30.9028L248.612 32.0069ZM239 39.5L238.139 38.3959L237.6 38.8162L237.6 39.5L239 39.5ZM230 58L230 59.4L230 59.4L230 58ZM186 58L186 56.6L186 56.6L186 58ZM238.087 20.0612L247.811 28.4281L249.637 26.3056L239.913 17.9388L238.087 20.0612ZM247.751 30.9028L238.139 38.3959L239.861 40.6041L249.473 33.1111L247.751 30.9028ZM247.811 28.4281C248.577 29.0869 248.548 30.2817 247.751 30.9028L249.473 33.1111C251.663 31.4032 251.743 28.1175 249.637 26.3056L247.811 28.4281ZM230 56.6L186 56.6L186 59.4L230 59.4L230 56.6ZM178.4 49L178.4 11L175.6 11L175.6 49L178.4 49ZM186 3.39999L230 3.4L230 0.599998L186 0.599994L186 3.39999ZM237.6 39.5L237.6 49L240.4 49L240.4 39.5L237.6 39.5ZM237.6 11L237.6 19L240.4 19L240.4 11L237.6 11ZM230 3.4C234.197 3.4 237.6 6.80264 237.6 11L240.4 11C240.4 5.25624 235.744 0.599999 230 0.599998L230 3.4ZM178.4 11C178.4 6.80263 181.803 3.39999 186 3.39999L186 0.599994C180.256 0.599994 175.6 5.25623 175.6 11L178.4 11ZM186 56.6C181.803 56.6 178.4 53.1973 178.4 49L175.6 49C175.6 54.7437 180.256 59.4 186 59.4L186 56.6ZM230 59.4C235.744 59.4 240.4 54.7438 240.4 49L237.6 49C237.6 53.1974 234.197 56.6 230 56.6L230 59.4Z" fill="#333333" mask="url(#path-3-inside-2_7073_5875)"/>
</g>
<g filter="url(#filter1_d_7073_5875)">
<path d="M193.867 24.952H195.371L198.251 29.832H197.931L200.859 24.952H202.347L198.715 30.872V35H197.451V30.872L193.867 24.952ZM205.89 35.192C205.228 35.192 204.636 35.024 204.114 34.688C203.596 34.3467 203.186 33.8747 202.882 33.272C202.583 32.6693 202.434 31.976 202.434 31.192C202.434 30.3547 202.583 29.6347 202.882 29.032C203.18 28.4293 203.588 27.968 204.106 27.648C204.628 27.3227 205.223 27.16 205.89 27.16C206.471 27.16 206.967 27.2773 207.378 27.512C207.788 27.7467 208.119 28.064 208.37 28.464C208.62 28.864 208.794 29.3173 208.89 29.824C208.991 30.3253 209.02 30.8453 208.978 31.384H203.442V30.616H208.154L207.786 30.856C207.802 30.5413 207.783 30.2267 207.73 29.912C207.682 29.5973 207.588 29.3093 207.45 29.048C207.311 28.7813 207.116 28.568 206.866 28.408C206.615 28.248 206.295 28.168 205.906 28.168C205.415 28.168 205.004 28.2933 204.674 28.544C204.343 28.7947 204.095 29.1253 203.93 29.536C203.764 29.9413 203.682 30.3813 203.682 30.856V31.368C203.682 31.9013 203.762 32.3787 203.922 32.8C204.087 33.2213 204.332 33.5547 204.658 33.8C204.983 34.0453 205.394 34.168 205.89 34.168C206.386 34.168 206.794 34.048 207.114 33.808C207.434 33.568 207.628 33.2133 207.698 32.744H208.994C208.914 33.2507 208.732 33.688 208.45 34.056C208.167 34.4187 207.807 34.6987 207.37 34.896C206.932 35.0933 206.439 35.192 205.89 35.192ZM214.364 35.192C213.623 35.192 213.004 35.088 212.508 34.88C212.012 34.6667 211.636 34.376 211.38 34.008C211.124 33.6347 210.988 33.208 210.972 32.728H212.172C212.199 33.2133 212.394 33.5787 212.756 33.824C213.124 34.064 213.623 34.184 214.252 34.184C214.583 34.184 214.887 34.1307 215.164 34.024C215.442 33.9173 215.663 33.7707 215.828 33.584C215.994 33.3973 216.076 33.1867 216.076 32.952C216.076 32.6533 215.967 32.4187 215.748 32.248C215.53 32.0773 215.18 31.928 214.7 31.8L213.212 31.32C212.567 31.1173 212.071 30.84 211.724 30.488C211.383 30.1307 211.212 29.704 211.212 29.208C211.212 28.5893 211.484 28.0933 212.028 27.72C212.572 27.3467 213.287 27.16 214.172 27.16C215.111 27.16 215.839 27.352 216.356 27.736C216.874 28.12 217.143 28.6 217.164 29.176H215.932C215.884 28.84 215.714 28.5867 215.42 28.416C215.127 28.24 214.711 28.152 214.172 28.152C213.655 28.152 213.25 28.2693 212.956 28.504C212.668 28.7333 212.524 28.9893 212.524 29.272C212.524 29.8 212.978 30.1893 213.884 30.44L215.404 30.952C216.06 31.1493 216.562 31.408 216.908 31.728C217.26 32.048 217.436 32.456 217.436 32.952C217.436 33.336 217.311 33.6987 217.06 34.04C216.81 34.3813 216.455 34.6587 215.996 34.872C215.538 35.0853 214.994 35.192 214.364 35.192ZM220.307 32.184L220.147 24.984H221.475L221.315 32.184H220.307ZM220.811 35.144C220.539 35.144 220.315 35.0587 220.139 34.888C219.963 34.7173 219.875 34.504 219.875 34.248C219.875 33.9973 219.963 33.784 220.139 33.608C220.315 33.4267 220.539 33.336 220.811 33.336C221.077 33.336 221.301 33.4267 221.483 33.608C221.669 33.784 221.763 33.9973 221.763 34.248C221.763 34.504 221.669 34.7173 221.483 34.888C221.301 35.0587 221.077 35.144 220.811 35.144Z" fill="#333333"/>
</g>
<defs>
<filter id="filter0_d_7073_5875" x="171" y="0" width="84.7673" height="68" filterUnits="userSpaceOnUse" color-interpolation-filters="sRGB">
<feFlood flood-opacity="0" result="BackgroundImageFix"/>
<feColorMatrix in="SourceAlpha" type="matrix" values="0 0 0 0 0 0 0 0 0 0 0 0 0 0 0 0 0 0 127 0" result="hardAlpha"/>
<feOffset dy="4"/>
<feGaussianBlur stdDeviation="3"/>
<feComposite in2="hardAlpha" operator="out"/>
<feColorMatrix type="matrix" values="0 0 0 0 0 0 0 0 0 0 0 0 0 0 0 0 0 0 0.1 0"/>
<feBlend mode="normal" in2="BackgroundImageFix" result="effect1_dropShadow_7073_5875"/>
<feBlend mode="normal" in="SourceGraphic" in2="effect1_dropShadow_7073_5875" result="shape"/>
</filter>
<filter id="filter1_d_7073_5875" x="187.867" y="22.9521" width="39.8953" height="22.2402" filterUnits="userSpaceOnUse" color-interpolation-filters="sRGB">
<feFlood flood-opacity="0" result="BackgroundImageFix"/>
<feColorMatrix in="SourceAlpha" type="matrix" values="0 0 0 0 0 0 0 0 0 0 0 0 0 0 0 0 0 0 127 0" result="hardAlpha"/>
<feOffset dy="4"/>
<feGaussianBlur stdDeviation="3"/>
<feComposite in2="hardAlpha" operator="out"/>
<feColorMatrix type="matrix" values="0 0 0 0 0 0 0 0 0 0 0 0 0 0 0 0 0 0 0.05 0"/>
<feBlend mode="normal" in2="BackgroundImageFix" result="effect1_dropShadow_7073_5875"/>
<feBlend mode="normal" in="SourceGraphic" in2="effect1_dropShadow_7073_5875" result="shape"/>
</filter>
</defs>
</svg>
