<svg width="256" height="68" viewBox="0 0 256 68" fill="none" xmlns="http://www.w3.org/2000/svg">
<path d="M248.724 27.3669L239 19L239 11C239 6.02944 234.971 2 230 2L9.00022 1.99998C4.02965 1.99998 0.000218166 6.02942 0.000217732 11L0.00021441 49C0.000213975 53.9705 4.02965 58 9.00021 58L230 58C234.971 58 239 53.9706 239 49L239 39.5L248.612 32.0069C250.106 30.8425 250.16 28.6022 248.724 27.3669Z" fill="white"/>
<g filter="url(#filter0_d_7099_6266)">
<mask id="path-2-inside-1_7099_6266" fill="white">
<path d="M248.724 27.3669L239 19L239 11C239 6.02944 234.971 2 230 2L87.0002 1.99999C82.0297 1.99999 78.0002 6.02942 78.0002 11L78.0002 49C78.0002 53.9705 82.0296 58 87.0002 58L230 58C234.971 58 239 53.9706 239 49L239 39.5L248.612 32.0069C250.106 30.8425 250.16 28.6022 248.724 27.3669Z"/>
</mask>
<path d="M248.724 27.3669L239 19L239 11C239 6.02944 234.971 2 230 2L87.0002 1.99999C82.0297 1.99999 78.0002 6.02942 78.0002 11L78.0002 49C78.0002 53.9705 82.0296 58 87.0002 58L230 58C234.971 58 239 53.9706 239 49L239 39.5L248.612 32.0069C250.106 30.8425 250.16 28.6022 248.724 27.3669Z" fill="#FFF2EA"/>
<path d="M239 19L237.6 19L237.6 19.6423L238.087 20.0612L239 19ZM248.724 27.3669L249.637 26.3056L249.637 26.3056L248.724 27.3669ZM248.612 32.0069L247.751 30.9028L247.751 30.9028L248.612 32.0069ZM239 39.5L238.139 38.3959L237.6 38.8162L237.6 39.5L239 39.5ZM230 58L230 59.4L230 58ZM87.0002 58L87.0002 56.6L87.0002 58ZM238.087 20.0612L247.811 28.4281L249.637 26.3056L239.913 17.9388L238.087 20.0612ZM247.751 30.9028L238.139 38.3959L239.861 40.6041L249.473 33.1111L247.751 30.9028ZM247.811 28.4281C248.577 29.0869 248.548 30.2817 247.751 30.9028L249.473 33.1111C251.664 31.4032 251.743 28.1175 249.637 26.3056L247.811 28.4281ZM230 56.6L87.0002 56.6L87.0002 59.4L230 59.4L230 56.6ZM79.4002 49L79.4002 11L76.6002 11L76.6002 49L79.4002 49ZM87.0002 3.39999L230 3.4L230 0.599997L87.0002 0.599984L87.0002 3.39999ZM237.6 39.5L237.6 49L240.4 49L240.4 39.5L237.6 39.5ZM237.6 11L237.6 19L240.4 19L240.4 11L237.6 11ZM230 3.4C234.198 3.4 237.6 6.80263 237.6 11L240.4 11C240.4 5.25624 235.744 0.599997 230 0.599997L230 3.4ZM79.4002 11C79.4002 6.80262 82.8028 3.39999 87.0002 3.39999L87.0002 0.599984C81.2565 0.599984 76.6002 5.25623 76.6002 11L79.4002 11ZM87.0002 56.6C82.8028 56.6 79.4002 53.1973 79.4002 49L76.6002 49C76.6002 54.7437 81.2565 59.4 87.0002 59.4L87.0002 56.6ZM230 59.4C235.744 59.4 240.4 54.7438 240.4 49L237.6 49C237.6 53.1974 234.198 56.6 230 56.6L230 59.4Z" fill="#997452" mask="url(#path-2-inside-1_7099_6266)"/>
</g>
<g filter="url(#filter1_d_7099_6266)">
<path d="M97.4296 15.452H98.8376L101.446 24.396H101.078L103.75 16.492H104.598L107.238 24.332H106.886L109.878 15.452H111.27L107.718 25.5H106.406L104.086 18.684H104.326L101.926 25.5H100.614L97.4296 15.452ZM118.719 25.5V21.004C118.719 20.2733 118.543 19.7187 118.191 19.34C117.844 18.956 117.369 18.764 116.767 18.764C116.308 18.764 115.911 18.8893 115.575 19.14C115.239 19.3907 114.98 19.7507 114.799 20.22C114.617 20.684 114.527 21.2387 114.527 21.884H114.047C114.047 20.9933 114.164 20.2333 114.399 19.604C114.633 18.9747 114.975 18.4947 115.423 18.164C115.876 17.828 116.425 17.66 117.071 17.66C117.673 17.66 118.188 17.796 118.615 18.068C119.047 18.3347 119.377 18.7187 119.607 19.22C119.836 19.7213 119.951 20.316 119.951 21.004V25.5H118.719ZM113.279 25.5V14.588H114.527V25.5H113.279ZM127.831 25.5L127.671 23.82V20.54C127.671 19.852 127.524 19.3587 127.231 19.06C126.937 18.756 126.497 18.604 125.911 18.604C125.58 18.604 125.279 18.652 125.007 18.748C124.74 18.844 124.527 18.9933 124.367 19.196C124.212 19.3933 124.135 19.6493 124.135 19.964H122.743C122.743 19.4093 122.879 18.964 123.151 18.628C123.423 18.2867 123.796 18.0413 124.271 17.892C124.751 17.7373 125.297 17.66 125.911 17.66C126.497 17.66 127.017 17.7587 127.471 17.956C127.924 18.1533 128.279 18.468 128.535 18.9C128.791 19.3267 128.919 19.884 128.919 20.572V25.5H127.831ZM125.223 25.692C124.593 25.692 124.073 25.58 123.663 25.356C123.252 25.132 122.945 24.8413 122.743 24.484C122.54 24.1267 122.439 23.7507 122.439 23.356C122.439 22.8387 122.567 22.4173 122.823 22.092C123.084 21.7667 123.439 21.5293 123.887 21.38C124.335 21.2253 124.839 21.148 125.399 21.148C125.799 21.148 126.199 21.188 126.599 21.268C127.004 21.348 127.399 21.4573 127.783 21.596V22.38C127.463 22.252 127.1 22.1507 126.695 22.076C126.295 22.0013 125.927 21.964 125.591 21.964C125.079 21.964 124.647 22.0707 124.295 22.284C123.943 22.492 123.767 22.8493 123.767 23.356C123.767 23.7293 123.9 24.0493 124.167 24.316C124.439 24.5827 124.871 24.716 125.463 24.716C125.879 24.716 126.252 24.62 126.583 24.428C126.919 24.2307 127.183 23.9853 127.375 23.692C127.572 23.3987 127.671 23.1053 127.671 22.812H127.975C127.975 23.324 127.863 23.7987 127.639 24.236C127.42 24.6733 127.105 25.0253 126.695 25.292C126.284 25.5587 125.793 25.692 125.223 25.692ZM134.419 25.692C134.003 25.692 133.63 25.612 133.299 25.452C132.969 25.292 132.707 25.052 132.515 24.732C132.323 24.412 132.227 24.012 132.227 23.532V15.724H133.459V23.5C133.459 24.2893 133.827 24.684 134.563 24.684C134.782 24.684 134.993 24.66 135.195 24.612C135.403 24.564 135.635 24.492 135.891 24.396L136.067 25.292C135.795 25.4093 135.523 25.5053 135.251 25.58C134.985 25.6547 134.707 25.692 134.419 25.692ZM130.995 18.716V17.852H135.875V18.716H130.995ZM144.888 25.692C144.274 25.692 143.701 25.5267 143.168 25.196C142.64 24.8653 142.213 24.3987 141.888 23.796C141.562 23.1933 141.4 22.4813 141.4 21.66C141.4 20.8173 141.562 20.0973 141.888 19.5C142.213 18.9027 142.64 18.4467 143.168 18.132C143.701 17.8173 144.274 17.66 144.888 17.66C145.32 17.66 145.706 17.7267 146.048 17.86C146.394 17.988 146.696 18.1667 146.952 18.396C147.208 18.6253 147.418 18.8867 147.584 19.18C147.754 19.468 147.88 19.772 147.96 20.092L146.68 20.204C146.546 19.7613 146.322 19.412 146.008 19.156C145.698 18.8947 145.32 18.764 144.872 18.764C144.493 18.764 144.136 18.8733 143.8 19.092C143.469 19.3053 143.2 19.628 142.992 20.06C142.784 20.4867 142.68 21.02 142.68 21.66C142.68 22.252 142.773 22.7667 142.96 23.204C143.152 23.636 143.413 23.972 143.744 24.212C144.074 24.452 144.45 24.572 144.872 24.572C145.464 24.572 145.912 24.428 146.216 24.14C146.525 23.8467 146.68 23.4413 146.68 22.924H147.96C147.96 23.4573 147.834 23.932 147.584 24.348C147.333 24.764 146.976 25.092 146.512 25.332C146.053 25.572 145.512 25.692 144.888 25.692ZM155.346 25.5L155.186 23.82V20.54C155.186 19.852 155.039 19.3587 154.746 19.06C154.452 18.756 154.012 18.604 153.426 18.604C153.095 18.604 152.794 18.652 152.522 18.748C152.255 18.844 152.042 18.9933 151.882 19.196C151.727 19.3933 151.65 19.6493 151.65 19.964H150.258C150.258 19.4093 150.394 18.964 150.666 18.628C150.938 18.2867 151.311 18.0413 151.786 17.892C152.266 17.7373 152.812 17.66 153.426 17.66C154.012 17.66 154.532 17.7587 154.986 17.956C155.439 18.1533 155.794 18.468 156.05 18.9C156.306 19.3267 156.434 19.884 156.434 20.572V25.5H155.346ZM152.738 25.692C152.108 25.692 151.588 25.58 151.178 25.356C150.767 25.132 150.46 24.8413 150.258 24.484C150.055 24.1267 149.954 23.7507 149.954 23.356C149.954 22.8387 150.082 22.4173 150.338 22.092C150.599 21.7667 150.954 21.5293 151.402 21.38C151.85 21.2253 152.354 21.148 152.914 21.148C153.314 21.148 153.714 21.188 154.114 21.268C154.519 21.348 154.914 21.4573 155.298 21.596V22.38C154.978 22.252 154.615 22.1507 154.21 22.076C153.81 22.0013 153.442 21.964 153.106 21.964C152.594 21.964 152.162 22.0707 151.81 22.284C151.458 22.492 151.282 22.8493 151.282 23.356C151.282 23.7293 151.415 24.0493 151.682 24.316C151.954 24.5827 152.386 24.716 152.978 24.716C153.394 24.716 153.767 24.62 154.098 24.428C154.434 24.2307 154.698 23.9853 154.89 23.692C155.087 23.3987 155.186 23.1053 155.186 22.812H155.49C155.49 23.324 155.378 23.7987 155.154 24.236C154.935 24.6733 154.62 25.0253 154.21 25.292C153.799 25.5587 153.308 25.692 152.738 25.692ZM165.022 25.5V21.004C165.022 20.2733 164.846 19.7187 164.494 19.34C164.148 18.956 163.673 18.764 163.07 18.764C162.612 18.764 162.214 18.8893 161.878 19.14C161.542 19.3907 161.284 19.7507 161.102 20.22C160.921 20.684 160.83 21.2387 160.83 21.884H160.35C160.35 20.9933 160.468 20.2333 160.702 19.604C160.937 18.9747 161.278 18.4947 161.726 18.164C162.18 17.828 162.729 17.66 163.374 17.66C163.977 17.66 164.492 17.796 164.918 18.068C165.35 18.3347 165.681 18.7187 165.91 19.22C166.14 19.7213 166.254 20.316 166.254 21.004V25.5H165.022ZM159.582 25.5V17.852H160.654L160.83 19.612V25.5H159.582ZM173.355 25.5V15.452H174.603V25.5H173.355ZM182.373 25.5V16.668C182.373 16.1613 182.469 15.748 182.661 15.428C182.858 15.1027 183.119 14.8627 183.445 14.708C183.775 14.5533 184.143 14.476 184.549 14.476C184.767 14.476 184.989 14.492 185.213 14.524C185.442 14.556 185.669 14.604 185.893 14.668L185.653 15.66C185.493 15.596 185.333 15.548 185.173 15.516C185.018 15.484 184.869 15.468 184.725 15.468C184.554 15.468 184.383 15.5 184.213 15.564C184.042 15.628 183.901 15.748 183.789 15.924C183.677 16.1 183.621 16.3533 183.621 16.684V25.5H182.373ZM181.125 18.716V17.852H185.205V18.716H181.125ZM190.369 25.692C189.681 25.692 189.068 25.54 188.529 25.236C187.996 24.932 187.574 24.4813 187.265 23.884C186.956 23.2867 186.801 22.5507 186.801 21.676C186.801 20.796 186.956 20.06 187.265 19.468C187.574 18.8707 187.996 18.42 188.529 18.116C189.068 17.812 189.681 17.66 190.369 17.66C191.052 17.66 191.66 17.812 192.193 18.116C192.732 18.42 193.153 18.8707 193.457 19.468C193.766 20.06 193.921 20.796 193.921 21.676C193.921 22.5507 193.766 23.2867 193.457 23.884C193.153 24.4813 192.732 24.932 192.193 25.236C191.66 25.54 191.052 25.692 190.369 25.692ZM190.337 24.604C190.833 24.604 191.254 24.4867 191.601 24.252C191.948 24.012 192.209 23.6733 192.385 23.236C192.566 22.7987 192.657 22.2787 192.657 21.676C192.657 20.764 192.468 20.0467 192.089 19.524C191.71 18.996 191.148 18.732 190.401 18.732C189.9 18.732 189.476 18.852 189.129 19.092C188.788 19.3267 188.526 19.6653 188.345 20.108C188.169 20.5453 188.081 21.068 188.081 21.676C188.081 22.5773 188.27 23.292 188.649 23.82C189.033 24.3427 189.596 24.604 190.337 24.604ZM201.711 17.836H202.959V25.5H201.711V17.836ZM196.287 17.836H197.535V22.604C197.535 23.244 197.69 23.7293 197.999 24.06C198.314 24.3907 198.762 24.556 199.343 24.556C199.823 24.556 200.239 24.428 200.591 24.172C200.948 23.916 201.223 23.564 201.415 23.116C201.612 22.6627 201.711 22.1453 201.711 21.564H202.175C202.175 22.4227 202.05 23.156 201.799 23.764C201.554 24.372 201.204 24.8387 200.751 25.164C200.303 25.484 199.775 25.644 199.167 25.644C198.591 25.644 198.087 25.5373 197.655 25.324C197.223 25.1107 196.887 24.788 196.647 24.356C196.407 23.9187 196.287 23.3667 196.287 22.7V17.836ZM211.799 25.5V21.004C211.799 20.2733 211.623 19.7187 211.271 19.34C210.924 18.956 210.449 18.764 209.847 18.764C209.388 18.764 208.991 18.8893 208.655 19.14C208.319 19.3907 208.06 19.7507 207.879 20.22C207.697 20.684 207.607 21.2387 207.607 21.884H207.127C207.127 20.9933 207.244 20.2333 207.479 19.604C207.713 18.9747 208.055 18.4947 208.503 18.164C208.956 17.828 209.505 17.66 210.151 17.66C210.753 17.66 211.268 17.796 211.695 18.068C212.127 18.3347 212.457 18.7187 212.687 19.22C212.916 19.7213 213.031 20.316 213.031 21.004V25.5H211.799ZM206.359 25.5V17.852H207.431L207.607 19.612V25.5H206.359ZM218.911 25.692C218.292 25.692 217.724 25.5267 217.207 25.196C216.689 24.86 216.276 24.3907 215.967 23.788C215.657 23.18 215.503 22.4653 215.503 21.644C215.503 20.828 215.655 20.1213 215.959 19.524C216.263 18.9267 216.665 18.468 217.167 18.148C217.673 17.8227 218.228 17.66 218.831 17.66C219.391 17.66 219.881 17.796 220.303 18.068C220.729 18.34 221.06 18.732 221.295 19.244C221.529 19.756 221.647 20.3747 221.647 21.1H221.167C221.167 20.5933 221.065 20.1667 220.863 19.82C220.665 19.4733 220.407 19.212 220.087 19.036C219.767 18.8547 219.423 18.764 219.055 18.764C218.639 18.764 218.257 18.8813 217.911 19.116C217.569 19.3453 217.295 19.676 217.087 20.108C216.884 20.5347 216.783 21.0467 216.783 21.644C216.783 22.252 216.884 22.7747 217.087 23.212C217.295 23.6493 217.569 23.9853 217.911 24.22C218.257 24.4547 218.639 24.572 219.055 24.572C219.401 24.572 219.735 24.4813 220.055 24.3C220.38 24.1187 220.647 23.8547 220.855 23.508C221.063 23.156 221.167 22.732 221.167 22.236H221.647C221.647 22.9773 221.524 23.6067 221.279 24.124C221.039 24.636 220.711 25.0253 220.295 25.292C219.884 25.5587 219.423 25.692 218.911 25.692ZM221.375 25.5L221.167 23.708V14.588H222.415V25.5H221.375ZM88.885 36.044C88.629 36.044 88.4263 35.972 88.277 35.828C88.1277 35.6787 88.053 35.484 88.053 35.244C88.053 35.0093 88.1277 34.8227 88.277 34.684C88.4263 34.5453 88.629 34.476 88.885 34.476C89.141 34.476 89.3437 34.5453 89.493 34.684C89.6423 34.8227 89.717 35.0093 89.717 35.244C89.717 35.484 89.6423 35.6787 89.493 35.828C89.3437 35.972 89.141 36.044 88.885 36.044ZM88.261 45.5V37.836H89.509V45.5H88.261ZM98.5466 45.5V41.004C98.5466 40.2733 98.3706 39.7187 98.0186 39.34C97.672 38.956 97.1973 38.764 96.5946 38.764C96.136 38.764 95.7386 38.8893 95.4026 39.14C95.0666 39.3907 94.808 39.7507 94.6266 40.22C94.4453 40.684 94.3546 41.2387 94.3546 41.884H93.8746C93.8746 40.9933 93.992 40.2333 94.2266 39.604C94.4613 38.9747 94.8026 38.4947 95.2506 38.164C95.704 37.828 96.2533 37.66 96.8986 37.66C97.5013 37.66 98.016 37.796 98.4426 38.068C98.8746 38.3347 99.2053 38.7187 99.4346 39.22C99.664 39.7213 99.7786 40.316 99.7786 41.004V45.5H98.5466ZM93.1066 45.5V37.852H94.1786L94.3546 39.612V45.5H93.1066ZM110.368 45.724C109.648 45.724 108.984 45.5987 108.376 45.348C107.773 45.0973 107.282 44.716 106.904 44.204C106.53 43.692 106.33 43.0413 106.304 42.252H108.16C108.16 42.652 108.258 42.98 108.456 43.236C108.653 43.492 108.917 43.684 109.248 43.812C109.584 43.9347 109.952 43.996 110.352 43.996C110.736 43.996 111.077 43.9453 111.376 43.844C111.68 43.7427 111.917 43.5987 112.088 43.412C112.264 43.22 112.352 42.9933 112.352 42.732C112.352 42.3853 112.245 42.1133 112.032 41.916C111.824 41.7187 111.488 41.5373 111.024 41.372L108.976 40.556C108.176 40.2413 107.562 39.876 107.136 39.46C106.709 39.044 106.496 38.4707 106.496 37.74C106.496 36.8973 106.829 36.2147 107.496 35.692C108.162 35.1693 109.093 34.908 110.288 34.908C111.45 34.908 112.349 35.18 112.984 35.724C113.618 36.2627 113.978 37.0147 114.064 37.98H112.208C112.138 37.5693 111.952 37.2413 111.648 36.996C111.344 36.7453 110.89 36.62 110.288 36.62C109.754 36.62 109.333 36.732 109.024 36.956C108.714 37.1747 108.56 37.452 108.56 37.788C108.56 38.076 108.656 38.3053 108.848 38.476C109.045 38.6413 109.349 38.8013 109.76 38.956L112.032 39.836C112.8 40.1347 113.389 40.5107 113.8 40.964C114.21 41.4173 114.416 41.9853 114.416 42.668C114.416 43.292 114.258 43.8333 113.944 44.292C113.629 44.7453 113.17 45.0973 112.568 45.348C111.965 45.5987 111.232 45.724 110.368 45.724ZM115.979 45.5L119.515 35.116H121.883L125.275 45.5H123.291L122.571 43.26H118.715L117.979 45.5H115.979ZM119.195 41.836H122.123L120.667 37.372L119.195 41.836ZM129.179 35.116V43.852H133.451V45.5H127.291V35.116H129.179ZM133.012 36.748V35.116H141.332V36.748H137.692L138.116 36.316V45.5H136.228V36.316L136.652 36.748H133.012ZM141.688 35.116H143.928L146.408 39.58H146.04L148.616 35.116H150.84L147.144 41.212V45.5H145.256V41.212L141.688 35.116ZM156.821 45.5V35.116H160.661C161.904 35.116 162.856 35.4067 163.517 35.988C164.184 36.5693 164.517 37.34 164.517 38.3C164.517 39.244 164.184 40.0067 163.517 40.588C162.856 41.164 161.904 41.452 160.661 41.452H158.709V45.5H156.821ZM162.437 45.5L159.685 40.636H161.701L164.901 45.5H162.437ZM158.709 40.188H160.469C161.162 40.188 161.688 40.0307 162.045 39.716C162.402 39.396 162.581 38.9827 162.581 38.476C162.581 37.9587 162.418 37.5427 162.093 37.228C161.768 36.908 161.29 36.748 160.661 36.748H158.709V40.188ZM167.262 45.5V35.116H173.934V36.748H169.15V39.484H173.646V41.116H169.15V43.852H173.934V45.5H167.262ZM180.605 45.724C179.693 45.724 178.898 45.508 178.221 45.076C177.549 44.6387 177.026 44.0147 176.653 43.204C176.279 42.3933 176.093 41.42 176.093 40.284C176.093 39.1107 176.285 38.1267 176.669 37.332C177.058 36.532 177.591 35.9293 178.269 35.524C178.951 35.1133 179.73 34.908 180.605 34.908C181.815 34.908 182.759 35.2013 183.437 35.788C184.119 36.3747 184.557 37.1373 184.749 38.076L182.733 38.444C182.567 37.9 182.303 37.46 181.941 37.124C181.578 36.788 181.133 36.62 180.605 36.62C180.141 36.62 179.722 36.756 179.349 37.028C178.975 37.2947 178.677 37.7 178.453 38.244C178.234 38.788 178.125 39.468 178.125 40.284C178.125 41.052 178.221 41.7133 178.413 42.268C178.61 42.8227 178.893 43.2493 179.261 43.548C179.629 43.8467 180.077 43.996 180.605 43.996C181.282 43.996 181.805 43.8173 182.173 43.46C182.546 43.0973 182.733 42.636 182.733 42.076H184.749C184.749 42.8493 184.581 43.508 184.245 44.052C183.914 44.5907 183.439 45.004 182.821 45.292C182.202 45.58 181.463 45.724 180.605 45.724ZM187.129 45.5V35.116H189.017V45.5H187.129ZM192.116 45.5V35.116H195.78C196.948 35.116 197.858 35.404 198.508 35.98C199.164 36.556 199.492 37.372 199.492 38.428C199.492 39.4733 199.164 40.284 198.508 40.86C197.858 41.436 196.948 41.724 195.78 41.724H194.02V45.5H192.116ZM194.02 40.076H195.78C196.367 40.076 196.81 39.9213 197.108 39.612C197.407 39.3027 197.556 38.908 197.556 38.428C197.556 37.9373 197.407 37.5347 197.108 37.22C196.81 36.9053 196.367 36.748 195.78 36.748H194.02V40.076ZM201.59 45.5V35.116H208.262V36.748H203.478V39.484H207.974V41.116H203.478V43.852H208.262V45.5H201.59ZM214.772 45.724C214.052 45.724 213.388 45.5987 212.78 45.348C212.177 45.0973 211.687 44.716 211.308 44.204C210.935 43.692 210.735 43.0413 210.708 42.252H212.564C212.564 42.652 212.663 42.98 212.86 43.236C213.057 43.492 213.321 43.684 213.652 43.812C213.988 43.9347 214.356 43.996 214.756 43.996C215.14 43.996 215.481 43.9453 215.78 43.844C216.084 43.7427 216.321 43.5987 216.492 43.412C216.668 43.22 216.756 42.9933 216.756 42.732C216.756 42.3853 216.649 42.1133 216.436 41.916C216.228 41.7187 215.892 41.5373 215.428 41.372L213.38 40.556C212.58 40.2413 211.967 39.876 211.54 39.46C211.113 39.044 210.9 38.4707 210.9 37.74C210.9 36.8973 211.233 36.2147 211.9 35.692C212.567 35.1693 213.497 34.908 214.692 34.908C215.855 34.908 216.753 35.18 217.388 35.724C218.023 36.2627 218.383 37.0147 218.468 37.98H216.612C216.543 37.5693 216.356 37.2413 216.052 36.996C215.748 36.7453 215.295 36.62 214.692 36.62C214.159 36.62 213.737 36.732 213.428 36.956C213.119 37.1747 212.964 37.452 212.964 37.788C212.964 38.076 213.06 38.3053 213.252 38.476C213.449 38.6413 213.753 38.8013 214.164 38.956L216.436 39.836C217.204 40.1347 217.793 40.5107 218.204 40.964C218.615 41.4173 218.82 41.9853 218.82 42.668C218.82 43.292 218.663 43.8333 218.348 44.292C218.033 44.7453 217.575 45.0973 216.972 45.348C216.369 45.5987 215.636 45.724 214.772 45.724ZM222.863 42.94V42.22C222.863 41.756 222.911 41.3747 223.007 41.076C223.109 40.7773 223.274 40.5187 223.503 40.3C223.733 40.0813 224.047 39.8627 224.447 39.644C224.805 39.452 225.09 39.2733 225.303 39.108C225.517 38.9427 225.669 38.764 225.759 38.572C225.855 38.38 225.903 38.1453 225.903 37.868C225.903 37.452 225.733 37.1053 225.391 36.828C225.055 36.5507 224.591 36.412 223.999 36.412C223.343 36.412 222.842 36.5427 222.495 36.804C222.149 37.06 221.93 37.42 221.839 37.884H220.511C220.586 37.1053 220.911 36.476 221.487 35.996C222.069 35.516 222.895 35.276 223.967 35.276C224.65 35.276 225.237 35.396 225.727 35.636C226.223 35.8707 226.602 36.188 226.863 36.588C227.13 36.9827 227.263 37.42 227.263 37.9C227.263 38.4493 227.125 38.9107 226.847 39.284C226.57 39.652 226.122 40.0013 225.503 40.332C225.146 40.5293 224.863 40.7133 224.655 40.884C224.453 41.0493 224.309 41.2413 224.223 41.46C224.138 41.6733 224.095 41.9533 224.095 42.3V42.94H222.863ZM223.503 45.692C223.237 45.692 223.015 45.6067 222.839 45.436C222.663 45.26 222.575 45.0493 222.575 44.804C222.575 44.5533 222.661 44.3373 222.831 44.156C223.007 43.9747 223.229 43.884 223.495 43.884C223.762 43.884 223.989 43.9747 224.175 44.156C224.367 44.332 224.463 44.5453 224.463 44.796C224.463 45.0413 224.37 45.252 224.183 45.428C223.997 45.604 223.77 45.692 223.503 45.692Z" fill="#997452"/>
</g>
<defs>
<filter id="filter0_d_7099_6266" x="72" y="0" width="183.768" height="68" filterUnits="userSpaceOnUse" color-interpolation-filters="sRGB">
<feFlood flood-opacity="0" result="BackgroundImageFix"/>
<feColorMatrix in="SourceAlpha" type="matrix" values="0 0 0 0 0 0 0 0 0 0 0 0 0 0 0 0 0 0 127 0" result="hardAlpha"/>
<feOffset dy="4"/>
<feGaussianBlur stdDeviation="3"/>
<feComposite in2="hardAlpha" operator="out"/>
<feColorMatrix type="matrix" values="0 0 0 0 0 0 0 0 0 0 0 0 0 0 0 0 0 0 0.1 0"/>
<feBlend mode="normal" in2="BackgroundImageFix" result="effect1_dropShadow_7099_6266"/>
<feBlend mode="normal" in="SourceGraphic" in2="effect1_dropShadow_7099_6266" result="shape"/>
</filter>
<filter id="filter1_d_7099_6266" x="82.0532" y="12.4756" width="151.21" height="43.248" filterUnits="userSpaceOnUse" color-interpolation-filters="sRGB">
<feFlood flood-opacity="0" result="BackgroundImageFix"/>
<feColorMatrix in="SourceAlpha" type="matrix" values="0 0 0 0 0 0 0 0 0 0 0 0 0 0 0 0 0 0 127 0" result="hardAlpha"/>
<feOffset dy="4"/>
<feGaussianBlur stdDeviation="3"/>
<feComposite in2="hardAlpha" operator="out"/>
<feColorMatrix type="matrix" values="0 0 0 0 0 0 0 0 0 0 0 0 0 0 0 0 0 0 0.05 0"/>
<feBlend mode="normal" in2="BackgroundImageFix" result="effect1_dropShadow_7099_6266"/>
<feBlend mode="normal" in="SourceGraphic" in2="effect1_dropShadow_7099_6266" result="shape"/>
</filter>
</defs>
</svg>
