<svg width="256" height="68" viewBox="0 0 256 68" fill="none" xmlns="http://www.w3.org/2000/svg">
<mask id="path-1-inside-1_7061_5959" fill="white">
<path d="M248.724 27.3669L239 19L239 11C239 6.02944 234.971 2 230 2L8.99997 1.99998C4.02941 1.99998 -2.59742e-05 6.02942 -2.64087e-05 11L-2.97308e-05 49C-3.01653e-05 53.9705 4.0294 58 8.99997 58L230 58C234.971 58 239 53.9706 239 49L239 39.5L248.612 32.0069C250.106 30.8425 250.16 28.6022 248.724 27.3669Z"/>
</mask>
<path d="M248.724 27.3669L239 19L239 11C239 6.02944 234.971 2 230 2L8.99997 1.99998C4.02941 1.99998 -2.59742e-05 6.02942 -2.64087e-05 11L-2.97308e-05 49C-3.01653e-05 53.9705 4.0294 58 8.99997 58L230 58C234.971 58 239 53.9706 239 49L239 39.5L248.612 32.0069C250.106 30.8425 250.16 28.6022 248.724 27.3669Z" fill="white"/>
<path d="M239 19L237.6 19L237.6 19.6423L238.087 20.0612L239 19ZM248.724 27.3669L249.637 26.3056L249.637 26.3056L248.724 27.3669ZM248.612 32.0069L247.751 30.9028L247.751 30.9028L248.612 32.0069ZM239 39.5L238.139 38.3959L237.6 38.8162L237.6 39.5L239 39.5ZM238.087 20.0612L247.811 28.4281L249.637 26.3056L239.913 17.9388L238.087 20.0612ZM247.751 30.9028L238.139 38.3959L239.861 40.6041L249.473 33.1111L247.751 30.9028ZM247.811 28.4281C248.577 29.0869 248.548 30.2817 247.751 30.9028L249.473 33.1111C251.663 31.4032 251.743 28.1175 249.637 26.3056L247.811 28.4281ZM230 56.6L8.99997 56.6L8.99997 59.4L230 59.4L230 56.6ZM1.39997 49L1.39997 11L-1.40003 11L-1.40003 49L1.39997 49ZM8.99997 3.39998L230 3.4L230 0.599998L8.99997 0.599979L8.99997 3.39998ZM237.6 39.5L237.6 49L240.4 49L240.4 39.5L237.6 39.5ZM237.6 11L237.6 19L240.4 19L240.4 11L237.6 11ZM230 3.4C234.197 3.4 237.6 6.80264 237.6 11L240.4 11C240.4 5.25624 235.744 0.599999 230 0.599998L230 3.4ZM1.39997 11C1.39997 6.80261 4.80261 3.39998 8.99997 3.39998L8.99997 0.599979C3.25621 0.599978 -1.40003 5.25622 -1.40003 11L1.39997 11ZM8.99997 56.6C4.8026 56.6 1.39997 53.1973 1.39997 49L-1.40003 49C-1.40003 54.7437 3.2562 59.4 8.99997 59.4L8.99997 56.6ZM230 59.4C235.744 59.4 240.4 54.7438 240.4 49L237.6 49C237.6 53.1974 234.197 56.6 230 56.6L230 59.4Z" fill="white" mask="url(#path-1-inside-1_7061_5959)"/>
<g filter="url(#filter0_d_7061_5959)">
<mask id="path-3-inside-2_7061_5959" fill="white">
<path d="M248.724 27.3669L239 19L239 11C239 6.02944 234.971 2 230 2L87 1.99999C82.0294 1.99999 78 6.02942 78 11L78 49C78 53.9705 82.0294 58 87 58L230 58C234.971 58 239 53.9706 239 49L239 39.5L248.612 32.0069C250.106 30.8425 250.16 28.6022 248.724 27.3669Z"/>
</mask>
<path d="M248.724 27.3669L239 19L239 11C239 6.02944 234.971 2 230 2L87 1.99999C82.0294 1.99999 78 6.02942 78 11L78 49C78 53.9705 82.0294 58 87 58L230 58C234.971 58 239 53.9706 239 49L239 39.5L248.612 32.0069C250.106 30.8425 250.16 28.6022 248.724 27.3669Z" fill="white"/>
<path d="M239 19L237.6 19L237.6 19.6423L238.087 20.0612L239 19ZM248.724 27.3669L249.637 26.3056L249.637 26.3056L248.724 27.3669ZM248.612 32.0069L247.751 30.9028L247.751 30.9028L248.612 32.0069ZM239 39.5L238.139 38.3959L237.6 38.8162L237.6 39.5L239 39.5ZM230 58L230 59.4L230 59.4L230 58ZM87 58L87 56.6H87L87 58ZM238.087 20.0612L247.811 28.4281L249.637 26.3056L239.913 17.9388L238.087 20.0612ZM247.751 30.9028L238.139 38.3959L239.861 40.6041L249.473 33.1111L247.751 30.9028ZM247.811 28.4281C248.577 29.0869 248.548 30.2817 247.751 30.9028L249.473 33.1111C251.663 31.4032 251.743 28.1175 249.637 26.3056L247.811 28.4281ZM230 56.6L87 56.6L87 59.4L230 59.4L230 56.6ZM79.4 49L79.4 11L76.6 11L76.6 49L79.4 49ZM87 3.39999L230 3.4L230 0.599998L87 0.599986L87 3.39999ZM237.6 39.5L237.6 49L240.4 49L240.4 39.5L237.6 39.5ZM237.6 11L237.6 19L240.4 19L240.4 11L237.6 11ZM230 3.4C234.197 3.4 237.6 6.80264 237.6 11L240.4 11C240.4 5.25624 235.744 0.599999 230 0.599998L230 3.4ZM79.4 11C79.4 6.80262 82.8026 3.39999 87 3.39999L87 0.599986C81.2562 0.599985 76.6 5.25622 76.6 11L79.4 11ZM87 56.6C82.8026 56.6 79.4 53.1973 79.4 49L76.6 49C76.6 54.7437 81.2562 59.4 87 59.4L87 56.6ZM230 59.4C235.744 59.4 240.4 54.7438 240.4 49L237.6 49C237.6 53.1974 234.197 56.6 230 56.6L230 59.4Z" fill="#333333" mask="url(#path-3-inside-2_7061_5959)"/>
</g>
<g filter="url(#filter1_d_7061_5959)">
<path d="M130.836 17.024V15.952H138.66V17.024H135.084L135.364 16.736V26H134.116V16.736L134.396 17.024H130.836ZM141.984 26.192C141.323 26.192 140.731 26.024 140.208 25.688C139.691 25.3467 139.28 24.8747 138.976 24.272C138.678 23.6693 138.528 22.976 138.528 22.192C138.528 21.3547 138.678 20.6347 138.976 20.032C139.275 19.4293 139.683 18.968 140.2 18.648C140.723 18.3227 141.318 18.16 141.984 18.16C142.566 18.16 143.062 18.2773 143.472 18.512C143.883 18.7467 144.214 19.064 144.464 19.464C144.715 19.864 144.888 20.3173 144.984 20.824C145.086 21.3253 145.115 21.8453 145.072 22.384H139.536V21.616H144.248L143.88 21.856C143.896 21.5413 143.878 21.2267 143.824 20.912C143.776 20.5973 143.683 20.3093 143.544 20.048C143.406 19.7813 143.211 19.568 142.96 19.408C142.71 19.248 142.39 19.168 142 19.168C141.51 19.168 141.099 19.2933 140.768 19.544C140.438 19.7947 140.19 20.1253 140.024 20.536C139.859 20.9413 139.776 21.3813 139.776 21.856V22.368C139.776 22.9013 139.856 23.3787 140.016 23.8C140.182 24.2213 140.427 24.5547 140.752 24.8C141.078 25.0453 141.488 25.168 141.984 25.168C142.48 25.168 142.888 25.048 143.208 24.808C143.528 24.568 143.723 24.2133 143.792 23.744H145.088C145.008 24.2507 144.827 24.688 144.544 25.056C144.262 25.4187 143.902 25.6987 143.464 25.896C143.027 26.0933 142.534 26.192 141.984 26.192ZM147.707 26V15.088H148.955V26H147.707ZM152.352 26V15.088H153.6V26H152.352ZM171.705 26V21.504C171.705 20.7733 171.529 20.2187 171.177 19.84C170.83 19.456 170.361 19.264 169.769 19.264C169.076 19.264 168.545 19.5333 168.177 20.072C167.809 20.6053 167.625 21.344 167.625 22.288H167.049C167.049 21.6 167.116 20.9973 167.249 20.48C167.388 19.9627 167.588 19.5333 167.849 19.192C168.11 18.8453 168.428 18.5867 168.801 18.416C169.174 18.2453 169.598 18.16 170.073 18.16C170.676 18.16 171.19 18.296 171.617 18.568C172.049 18.8347 172.38 19.2187 172.609 19.72C172.838 20.2213 172.953 20.816 172.953 21.504V26H171.705ZM160.953 26V18.352H162.025L162.169 19.888C162.409 19.3333 162.745 18.9067 163.177 18.608C163.614 18.3093 164.137 18.16 164.745 18.16C165.348 18.16 165.862 18.296 166.289 18.568C166.721 18.8347 167.052 19.2187 167.281 19.72C167.51 20.2213 167.625 20.816 167.625 21.504V26H166.393V21.504C166.393 20.7733 166.217 20.2187 165.865 19.84C165.518 19.456 165.044 19.264 164.441 19.264C163.982 19.264 163.585 19.3893 163.249 19.64C162.913 19.8907 162.654 20.2507 162.473 20.72C162.292 21.184 162.201 21.7387 162.201 22.384V26H160.953ZM178.738 26.192C178.076 26.192 177.484 26.024 176.962 25.688C176.444 25.3467 176.034 24.8747 175.73 24.272C175.431 23.6693 175.282 22.976 175.282 22.192C175.282 21.3547 175.431 20.6347 175.73 20.032C176.028 19.4293 176.436 18.968 176.954 18.648C177.476 18.3227 178.071 18.16 178.738 18.16C179.319 18.16 179.815 18.2773 180.226 18.512C180.636 18.7467 180.967 19.064 181.218 19.464C181.468 19.864 181.642 20.3173 181.738 20.824C181.839 21.3253 181.868 21.8453 181.826 22.384H176.29V21.616H181.002L180.634 21.856C180.65 21.5413 180.631 21.2267 180.578 20.912C180.53 20.5973 180.436 20.3093 180.298 20.048C180.159 19.7813 179.964 19.568 179.714 19.408C179.463 19.248 179.143 19.168 178.754 19.168C178.263 19.168 177.852 19.2933 177.522 19.544C177.191 19.7947 176.943 20.1253 176.778 20.536C176.612 20.9413 176.53 21.3813 176.53 21.856V22.368C176.53 22.9013 176.61 23.3787 176.77 23.8C176.935 24.2213 177.18 24.5547 177.506 24.8C177.831 25.0453 178.242 25.168 178.738 25.168C179.234 25.168 179.642 25.048 179.962 24.808C180.282 24.568 180.476 24.2133 180.546 23.744H181.842C181.762 24.2507 181.58 24.688 181.298 25.056C181.015 25.4187 180.655 25.6987 180.218 25.896C179.78 26.0933 179.287 26.192 178.738 26.192ZM199.169 26V21.504C199.169 20.7733 198.993 20.2187 198.641 19.84C198.295 19.456 197.825 19.264 197.233 19.264C196.54 19.264 196.009 19.5333 195.641 20.072C195.273 20.6053 195.089 21.344 195.089 22.288H194.513C194.513 21.6 194.58 20.9973 194.713 20.48C194.852 19.9627 195.052 19.5333 195.313 19.192C195.575 18.8453 195.892 18.5867 196.265 18.416C196.639 18.2453 197.063 18.16 197.537 18.16C198.14 18.16 198.655 18.296 199.081 18.568C199.513 18.8347 199.844 19.2187 200.073 19.72C200.303 20.2213 200.417 20.816 200.417 21.504V26H199.169ZM188.417 26V18.352H189.489L189.633 19.888C189.873 19.3333 190.209 18.9067 190.641 18.608C191.079 18.3093 191.601 18.16 192.209 18.16C192.812 18.16 193.327 18.296 193.753 18.568C194.185 18.8347 194.516 19.2187 194.745 19.72C194.975 20.2213 195.089 20.816 195.089 21.504V26H193.857V21.504C193.857 20.7733 193.681 20.2187 193.329 19.84C192.983 19.456 192.508 19.264 191.905 19.264C191.447 19.264 191.049 19.3893 190.713 19.64C190.377 19.8907 190.119 20.2507 189.937 20.72C189.756 21.184 189.665 21.7387 189.665 22.384V26H188.417ZM206.314 26.192C205.626 26.192 205.013 26.04 204.474 25.736C203.941 25.432 203.519 24.9813 203.21 24.384C202.901 23.7867 202.746 23.0507 202.746 22.176C202.746 21.296 202.901 20.56 203.21 19.968C203.519 19.3707 203.941 18.92 204.474 18.616C205.013 18.312 205.626 18.16 206.314 18.16C206.997 18.16 207.605 18.312 208.138 18.616C208.677 18.92 209.098 19.3707 209.402 19.968C209.711 20.56 209.866 21.296 209.866 22.176C209.866 23.0507 209.711 23.7867 209.402 24.384C209.098 24.9813 208.677 25.432 208.138 25.736C207.605 26.04 206.997 26.192 206.314 26.192ZM206.282 25.104C206.778 25.104 207.199 24.9867 207.546 24.752C207.893 24.512 208.154 24.1733 208.33 23.736C208.511 23.2987 208.602 22.7787 208.602 22.176C208.602 21.264 208.413 20.5467 208.034 20.024C207.655 19.496 207.093 19.232 206.346 19.232C205.845 19.232 205.421 19.352 205.074 19.592C204.733 19.8267 204.471 20.1653 204.29 20.608C204.114 21.0453 204.026 21.568 204.026 22.176C204.026 23.0773 204.215 23.792 204.594 24.32C204.978 24.8427 205.541 25.104 206.282 25.104ZM212.456 26V18.336H213.704V26H212.456ZM213.32 22.544C213.32 21.5733 213.413 20.768 213.6 20.128C213.787 19.4827 214.059 19.0027 214.416 18.688C214.779 18.368 215.219 18.208 215.736 18.208C215.907 18.208 216.061 18.2213 216.2 18.248C216.344 18.2693 216.488 18.304 216.632 18.352L216.552 19.584C216.403 19.536 216.24 19.496 216.064 19.464C215.888 19.4267 215.731 19.408 215.592 19.408C215.139 19.408 214.773 19.5387 214.496 19.8C214.219 20.056 214.016 20.4187 213.888 20.888C213.765 21.3573 213.704 21.9093 213.704 22.544H213.32ZM221.053 26.192C220.392 26.192 219.8 26.024 219.277 25.688C218.76 25.3467 218.349 24.8747 218.045 24.272C217.747 23.6693 217.597 22.976 217.597 22.192C217.597 21.3547 217.747 20.6347 218.045 20.032C218.344 19.4293 218.752 18.968 219.269 18.648C219.792 18.3227 220.387 18.16 221.053 18.16C221.635 18.16 222.131 18.2773 222.541 18.512C222.952 18.7467 223.283 19.064 223.533 19.464C223.784 19.864 223.957 20.3173 224.053 20.824C224.155 21.3253 224.184 21.8453 224.141 22.384H218.605V21.616H223.317L222.949 21.856C222.965 21.5413 222.947 21.2267 222.893 20.912C222.845 20.5973 222.752 20.3093 222.613 20.048C222.475 19.7813 222.28 19.568 222.029 19.408C221.779 19.248 221.459 19.168 221.069 19.168C220.579 19.168 220.168 19.2933 219.837 19.544C219.507 19.7947 219.259 20.1253 219.093 20.536C218.928 20.9413 218.845 21.3813 218.845 21.856V22.368C218.845 22.9013 218.925 23.3787 219.085 23.8C219.251 24.2213 219.496 24.5547 219.821 24.8C220.147 25.0453 220.557 25.168 221.053 25.168C221.549 25.168 221.957 25.048 222.277 24.808C222.597 24.568 222.792 24.2133 222.861 23.744H224.157C224.077 24.2507 223.896 24.688 223.613 25.056C223.331 25.4187 222.971 25.6987 222.533 25.896C222.096 26.0933 221.603 26.192 221.053 26.192ZM96.7095 44L96.5495 42.32V39.04C96.5495 38.352 96.4028 37.8587 96.1095 37.56C95.8162 37.256 95.3762 37.104 94.7895 37.104C94.4588 37.104 94.1575 37.152 93.8855 37.248C93.6188 37.344 93.4055 37.4933 93.2455 37.696C93.0908 37.8933 93.0135 38.1493 93.0135 38.464H91.6215C91.6215 37.9093 91.7575 37.464 92.0295 37.128C92.3015 36.7867 92.6748 36.5413 93.1495 36.392C93.6295 36.2373 94.1762 36.16 94.7895 36.16C95.3762 36.16 95.8962 36.2587 96.3495 36.456C96.8028 36.6533 97.1575 36.968 97.4135 37.4C97.6695 37.8267 97.7975 38.384 97.7975 39.072V44H96.7095ZM94.1015 44.192C93.4722 44.192 92.9522 44.08 92.5415 43.856C92.1308 43.632 91.8242 43.3413 91.6215 42.984C91.4188 42.6267 91.3175 42.2507 91.3175 41.856C91.3175 41.3387 91.4455 40.9173 91.7015 40.592C91.9628 40.2667 92.3175 40.0293 92.7655 39.88C93.2135 39.7253 93.7175 39.648 94.2775 39.648C94.6775 39.648 95.0775 39.688 95.4775 39.768C95.8828 39.848 96.2775 39.9573 96.6615 40.096V40.88C96.3415 40.752 95.9788 40.6507 95.5735 40.576C95.1735 40.5013 94.8055 40.464 94.4695 40.464C93.9575 40.464 93.5255 40.5707 93.1735 40.784C92.8215 40.992 92.6455 41.3493 92.6455 41.856C92.6455 42.2293 92.7788 42.5493 93.0455 42.816C93.3175 43.0827 93.7495 43.216 94.3415 43.216C94.7575 43.216 95.1308 43.12 95.4615 42.928C95.7975 42.7307 96.0615 42.4853 96.2535 42.192C96.4508 41.8987 96.5495 41.6053 96.5495 41.312H96.8535C96.8535 41.824 96.7415 42.2987 96.5175 42.736C96.2988 43.1733 95.9842 43.5253 95.5735 43.792C95.1628 44.0587 94.6722 44.192 94.1015 44.192ZM104.45 44.192C103.938 44.192 103.474 44.0587 103.058 43.792C102.647 43.5253 102.319 43.136 102.074 42.624C101.834 42.1067 101.714 41.4773 101.714 40.736H102.194C102.194 41.232 102.295 41.656 102.498 42.008C102.706 42.3547 102.973 42.6187 103.298 42.8C103.623 42.9813 103.965 43.072 104.322 43.072C104.733 43.072 105.109 42.9547 105.45 42.72C105.791 42.4853 106.063 42.1493 106.266 41.712C106.474 41.2747 106.578 40.752 106.578 40.144C106.578 39.5467 106.477 39.0347 106.274 38.608C106.071 38.176 105.797 37.8453 105.45 37.616C105.109 37.3813 104.727 37.264 104.306 37.264C103.943 37.264 103.599 37.3547 103.274 37.536C102.954 37.712 102.693 37.9733 102.49 38.32C102.293 38.6667 102.194 39.0933 102.194 39.6H101.714C101.714 38.8747 101.831 38.256 102.066 37.744C102.306 37.232 102.637 36.84 103.058 36.568C103.479 36.296 103.97 36.16 104.53 36.16C105.133 36.16 105.685 36.3227 106.186 36.648C106.693 36.968 107.098 37.4267 107.402 38.024C107.706 38.6213 107.858 39.328 107.858 40.144C107.858 40.9653 107.703 41.68 107.394 42.288C107.085 42.8907 106.671 43.36 106.154 43.696C105.637 44.0267 105.069 44.192 104.45 44.192ZM100.946 44V33.088H102.194V42.208L101.826 44H100.946ZM113.358 44.192C112.67 44.192 112.057 44.04 111.518 43.736C110.985 43.432 110.564 42.9813 110.254 42.384C109.945 41.7867 109.79 41.0507 109.79 40.176C109.79 39.296 109.945 38.56 110.254 37.968C110.564 37.3707 110.985 36.92 111.518 36.616C112.057 36.312 112.67 36.16 113.358 36.16C114.041 36.16 114.649 36.312 115.182 36.616C115.721 36.92 116.142 37.3707 116.446 37.968C116.756 38.56 116.91 39.296 116.91 40.176C116.91 41.0507 116.756 41.7867 116.446 42.384C116.142 42.9813 115.721 43.432 115.182 43.736C114.649 44.04 114.041 44.192 113.358 44.192ZM113.326 43.104C113.822 43.104 114.244 42.9867 114.59 42.752C114.937 42.512 115.198 42.1733 115.374 41.736C115.556 41.2987 115.646 40.7787 115.646 40.176C115.646 39.264 115.457 38.5467 115.078 38.024C114.7 37.496 114.137 37.232 113.39 37.232C112.889 37.232 112.465 37.352 112.118 37.592C111.777 37.8267 111.516 38.1653 111.334 38.608C111.158 39.0453 111.07 39.568 111.07 40.176C111.07 41.0773 111.26 41.792 111.638 42.32C112.022 42.8427 112.585 43.104 113.326 43.104ZM124.7 36.336H125.948V44H124.7V36.336ZM119.276 36.336H120.524V41.104C120.524 41.744 120.679 42.2293 120.988 42.56C121.303 42.8907 121.751 43.056 122.332 43.056C122.812 43.056 123.228 42.928 123.58 42.672C123.938 42.416 124.212 42.064 124.404 41.616C124.602 41.1627 124.7 40.6453 124.7 40.064H125.164C125.164 40.9227 125.039 41.656 124.788 42.264C124.543 42.872 124.194 43.3387 123.74 43.664C123.292 43.984 122.764 44.144 122.156 44.144C121.58 44.144 121.076 44.0373 120.644 43.824C120.212 43.6107 119.876 43.288 119.636 42.856C119.396 42.4187 119.276 41.8667 119.276 41.2V36.336ZM131.7 44.192C131.284 44.192 130.911 44.112 130.58 43.952C130.249 43.792 129.988 43.552 129.796 43.232C129.604 42.912 129.508 42.512 129.508 42.032V34.224H130.74V42C130.74 42.7893 131.108 43.184 131.844 43.184C132.063 43.184 132.273 43.16 132.476 43.112C132.684 43.064 132.916 42.992 133.172 42.896L133.348 43.792C133.076 43.9093 132.804 44.0053 132.532 44.08C132.265 44.1547 131.988 44.192 131.7 44.192ZM128.276 37.216V36.352H133.156V37.216H128.276ZM142.968 44.224C142.248 44.224 141.584 44.0987 140.976 43.848C140.374 43.5973 139.883 43.216 139.504 42.704C139.131 42.192 138.931 41.5413 138.904 40.752H140.76C140.76 41.152 140.859 41.48 141.056 41.736C141.254 41.992 141.518 42.184 141.848 42.312C142.184 42.4347 142.552 42.496 142.952 42.496C143.336 42.496 143.678 42.4453 143.976 42.344C144.28 42.2427 144.518 42.0987 144.688 41.912C144.864 41.72 144.952 41.4933 144.952 41.232C144.952 40.8853 144.846 40.6133 144.632 40.416C144.424 40.2187 144.088 40.0373 143.624 39.872L141.576 39.056C140.776 38.7413 140.163 38.376 139.736 37.96C139.31 37.544 139.096 36.9707 139.096 36.24C139.096 35.3973 139.43 34.7147 140.096 34.192C140.763 33.6693 141.694 33.408 142.888 33.408C144.051 33.408 144.95 33.68 145.584 34.224C146.219 34.7627 146.579 35.5147 146.664 36.48H144.808C144.739 36.0693 144.552 35.7413 144.248 35.496C143.944 35.2453 143.491 35.12 142.888 35.12C142.355 35.12 141.934 35.232 141.624 35.456C141.315 35.6747 141.16 35.952 141.16 36.288C141.16 36.576 141.256 36.8053 141.448 36.976C141.646 37.1413 141.95 37.3013 142.36 37.456L144.632 38.336C145.4 38.6347 145.99 39.0107 146.4 39.464C146.811 39.9173 147.016 40.4853 147.016 41.168C147.016 41.792 146.859 42.3333 146.544 42.792C146.23 43.2453 145.771 43.5973 145.168 43.848C144.566 44.0987 143.832 44.224 142.968 44.224ZM147.886 33.616H150.126L152.606 38.08H152.238L154.814 33.616H157.038L153.342 39.712V44H151.454V39.712L147.886 33.616ZM158.813 33.616H161.517L164.445 39.968H164.285L167.213 33.616H169.821V44H167.917V35.792H168.205L164.973 42.864H163.741L160.525 35.824H160.701V44H158.813V33.616ZM172.909 44V33.616H176.573C177.741 33.616 178.651 33.904 179.301 34.48C179.957 35.056 180.285 35.872 180.285 36.928C180.285 37.9733 179.957 38.784 179.301 39.36C178.651 39.936 177.741 40.224 176.573 40.224H174.813V44H172.909ZM174.813 38.576H176.573C177.16 38.576 177.603 38.4213 177.901 38.112C178.2 37.8027 178.349 37.408 178.349 36.928C178.349 36.4373 178.2 36.0347 177.901 35.72C177.603 35.4053 177.16 35.248 176.573 35.248H174.813V38.576ZM181.007 35.248V33.616H189.327V35.248H185.687L186.111 34.816V44H184.223V34.816L184.647 35.248H181.007ZM195.027 44.224C194.104 44.224 193.288 44.0213 192.579 43.616C191.875 43.2107 191.323 42.6053 190.923 41.8C190.523 40.9947 190.323 39.9947 190.323 38.8C190.323 37.584 190.523 36.5787 190.923 35.784C191.323 34.984 191.875 34.3893 192.579 34C193.288 33.6053 194.104 33.408 195.027 33.408C195.955 33.408 196.773 33.6107 197.483 34.016C198.192 34.416 198.747 35.016 199.147 35.816C199.547 36.616 199.747 37.6107 199.747 38.8C199.747 40.0107 199.547 41.0187 199.147 41.824C198.747 42.6293 198.192 43.232 197.483 43.632C196.773 44.0267 195.955 44.224 195.027 44.224ZM195.027 42.512C195.875 42.512 196.547 42.192 197.043 41.552C197.544 40.912 197.795 39.9893 197.795 38.784C197.795 37.6213 197.544 36.7173 197.043 36.072C196.547 35.4267 195.875 35.104 195.027 35.104C194.195 35.104 193.528 35.4293 193.027 36.08C192.525 36.7253 192.275 37.632 192.275 38.8C192.275 40 192.525 40.92 193.027 41.56C193.528 42.1947 194.195 42.512 195.027 42.512ZM202.14 33.616H204.844L207.772 39.968H207.612L210.54 33.616H213.148V44H211.244V35.792H211.532L208.3 42.864H207.068L203.852 35.824H204.028V44H202.14V33.616ZM219.901 44.224C219.181 44.224 218.517 44.0987 217.909 43.848C217.306 43.5973 216.816 43.216 216.437 42.704C216.064 42.192 215.864 41.5413 215.837 40.752H217.693C217.693 41.152 217.792 41.48 217.989 41.736C218.186 41.992 218.45 42.184 218.781 42.312C219.117 42.4347 219.485 42.496 219.885 42.496C220.269 42.496 220.61 42.4453 220.909 42.344C221.213 42.2427 221.45 42.0987 221.621 41.912C221.797 41.72 221.885 41.4933 221.885 41.232C221.885 40.8853 221.778 40.6133 221.565 40.416C221.357 40.2187 221.021 40.0373 220.557 39.872L218.509 39.056C217.709 38.7413 217.096 38.376 216.669 37.96C216.242 37.544 216.029 36.9707 216.029 36.24C216.029 35.3973 216.362 34.7147 217.029 34.192C217.696 33.6693 218.626 33.408 219.821 33.408C220.984 33.408 221.882 33.68 222.517 34.224C223.152 34.7627 223.512 35.5147 223.597 36.48H221.741C221.672 36.0693 221.485 35.7413 221.181 35.496C220.877 35.2453 220.424 35.12 219.821 35.12C219.288 35.12 218.866 35.232 218.557 35.456C218.248 35.6747 218.093 35.952 218.093 36.288C218.093 36.576 218.189 36.8053 218.381 36.976C218.578 37.1413 218.882 37.3013 219.293 37.456L221.565 38.336C222.333 38.6347 222.922 39.0107 223.333 39.464C223.744 39.9173 223.949 40.4853 223.949 41.168C223.949 41.792 223.792 42.3333 223.477 42.792C223.162 43.2453 222.704 43.5973 222.101 43.848C221.498 44.0987 220.765 44.224 219.901 44.224Z" fill="#333333"/>
</g>
<defs>
<filter id="filter0_d_7061_5959" x="72" y="0" width="183.767" height="68" filterUnits="userSpaceOnUse" color-interpolation-filters="sRGB">
<feFlood flood-opacity="0" result="BackgroundImageFix"/>
<feColorMatrix in="SourceAlpha" type="matrix" values="0 0 0 0 0 0 0 0 0 0 0 0 0 0 0 0 0 0 127 0" result="hardAlpha"/>
<feOffset dy="4"/>
<feGaussianBlur stdDeviation="3"/>
<feComposite in2="hardAlpha" operator="out"/>
<feColorMatrix type="matrix" values="0 0 0 0 0 0 0 0 0 0 0 0 0 0 0 0 0 0 0.1 0"/>
<feBlend mode="normal" in2="BackgroundImageFix" result="effect1_dropShadow_7061_5959"/>
<feBlend mode="normal" in="SourceGraphic" in2="effect1_dropShadow_7061_5959" result="shape"/>
</filter>
<filter id="filter1_d_7061_5959" x="85.3174" y="13.0879" width="144.888" height="41.1357" filterUnits="userSpaceOnUse" color-interpolation-filters="sRGB">
<feFlood flood-opacity="0" result="BackgroundImageFix"/>
<feColorMatrix in="SourceAlpha" type="matrix" values="0 0 0 0 0 0 0 0 0 0 0 0 0 0 0 0 0 0 127 0" result="hardAlpha"/>
<feOffset dy="4"/>
<feGaussianBlur stdDeviation="3"/>
<feComposite in2="hardAlpha" operator="out"/>
<feColorMatrix type="matrix" values="0 0 0 0 0 0 0 0 0 0 0 0 0 0 0 0 0 0 0.05 0"/>
<feBlend mode="normal" in2="BackgroundImageFix" result="effect1_dropShadow_7061_5959"/>
<feBlend mode="normal" in="SourceGraphic" in2="effect1_dropShadow_7061_5959" result="shape"/>
</filter>
</defs>
</svg>
