<svg width="256" height="70" viewBox="0 0 256 70" fill="none" xmlns="http://www.w3.org/2000/svg">
<path d="M7.22436 32.6331L18.6357 41V51C18.6357 55.9706 23.3643 60 29.1973 60L245.438 60C251.271 60 256 55.9706 256 51V11C256 6.02944 251.271 2 245.438 2L29.1973 2C23.3643 2 18.6357 6.02944 18.6357 11V20.5L7.35606 27.9931C5.60311 29.1575 5.53952 31.3978 7.22436 32.6331Z" fill="white"/>
<g filter="url(#filter0_d_7098_5734)">
<mask id="path-2-inside-1_7098_5734" fill="white">
<path d="M7.04333 32.6331L16.7674 41V51C16.7674 55.9706 20.7968 60 25.7674 60L220.035 60C225.005 60 229.035 55.9706 229.035 51V11C229.035 6.02944 225.005 2 220.035 2L25.7674 2C20.7968 2 16.7674 6.02944 16.7674 11V20.5L7.15555 27.9931C5.66179 29.1575 5.60761 31.3978 7.04333 32.6331Z"/>
</mask>
<path d="M7.04333 32.6331L16.7674 41V51C16.7674 55.9706 20.7968 60 25.7674 60L220.035 60C225.005 60 229.035 55.9706 229.035 51V11C229.035 6.02944 225.005 2 220.035 2L25.7674 2C20.7968 2 16.7674 6.02944 16.7674 11V20.5L7.15555 27.9931C5.66179 29.1575 5.60761 31.3978 7.04333 32.6331Z" fill="#F1F3FF"/>
<path d="M16.7674 41H18.1674V40.3577L17.6805 39.9388L16.7674 41ZM7.04333 32.6331L6.13021 33.6944H6.13021L7.04333 32.6331ZM7.15555 27.9931L8.0163 29.0972L8.0163 29.0972L7.15555 27.9931ZM16.7674 20.5L17.6281 21.6041L18.1674 21.1838V20.5H16.7674ZM25.7674 2V0.6V2ZM220.035 2V3.4V2ZM17.6805 39.9388L7.95644 31.5719L6.13021 33.6944L15.8542 42.0612L17.6805 39.9388ZM8.0163 29.0972L17.6281 21.6041L15.9066 19.3959L6.2948 26.8889L8.0163 29.0972ZM7.95644 31.5719C7.19073 30.9131 7.21963 29.7183 8.0163 29.0972L6.2948 26.8889C4.10396 28.5968 4.02449 31.8825 6.13021 33.6944L7.95644 31.5719ZM25.7674 3.4L220.035 3.4V0.600003L25.7674 0.6V3.4ZM227.635 11V51H230.435V11H227.635ZM220.035 58.6L25.7674 58.6V61.4L220.035 61.4V58.6ZM18.1674 20.5V11H15.3674V20.5H18.1674ZM18.1674 51V41H15.3674V51H18.1674ZM25.7674 58.6C21.57 58.6 18.1674 55.1974 18.1674 51H15.3674C15.3674 56.7438 20.0236 61.4 25.7674 61.4V58.6ZM227.635 51C227.635 55.1974 224.232 58.6 220.035 58.6V61.4C225.778 61.4 230.435 56.7438 230.435 51H227.635ZM220.035 3.4C224.232 3.4 227.635 6.80264 227.635 11H230.435C230.435 5.25624 225.778 0.600003 220.035 0.600003V3.4ZM25.7674 0.6C20.0236 0.6 15.3674 5.25624 15.3674 11H18.1674C18.1674 6.80264 21.57 3.4 25.7674 3.4V0.6Z" fill="#4A5DC8" mask="url(#path-2-inside-1_7098_5734)"/>
</g>
<g filter="url(#filter1_d_7098_5734)">
<path d="M32.616 15.952H35.56C36.5733 15.952 37.4533 16.16 38.2 16.576C38.9467 16.9867 39.5253 17.568 39.936 18.32C40.3467 19.072 40.552 19.9573 40.552 20.976C40.552 21.984 40.3467 22.864 39.936 23.616C39.5253 24.368 38.9467 24.9547 38.2 25.376C37.4533 25.792 36.5733 26 35.56 26H32.616V15.952ZM33.864 17.056V24.912H35.56C36.3173 24.912 36.968 24.7413 37.512 24.4C38.0613 24.0587 38.4827 23.592 38.776 23C39.0747 22.4027 39.224 21.728 39.224 20.976C39.224 20.2187 39.0747 19.5467 38.776 18.96C38.4827 18.368 38.0613 17.904 37.512 17.568C36.968 17.2267 36.3173 17.056 35.56 17.056H33.864ZM46.1065 26.192C45.4185 26.192 44.8052 26.04 44.2665 25.736C43.7332 25.432 43.3118 24.9813 43.0025 24.384C42.6932 23.7867 42.5385 23.0507 42.5385 22.176C42.5385 21.296 42.6932 20.56 43.0025 19.968C43.3118 19.3707 43.7332 18.92 44.2665 18.616C44.8052 18.312 45.4185 18.16 46.1065 18.16C46.7892 18.16 47.3972 18.312 47.9305 18.616C48.4692 18.92 48.8905 19.3707 49.1945 19.968C49.5038 20.56 49.6585 21.296 49.6585 22.176C49.6585 23.0507 49.5038 23.7867 49.1945 24.384C48.8905 24.9813 48.4692 25.432 47.9305 25.736C47.3972 26.04 46.7892 26.192 46.1065 26.192ZM46.0745 25.104C46.5705 25.104 46.9918 24.9867 47.3385 24.752C47.6852 24.512 47.9465 24.1733 48.1225 23.736C48.3038 23.2987 48.3945 22.7787 48.3945 22.176C48.3945 21.264 48.2052 20.5467 47.8265 20.024C47.4478 19.496 46.8852 19.232 46.1385 19.232C45.6372 19.232 45.2132 19.352 44.8665 19.592C44.5252 19.8267 44.2638 20.1653 44.0825 20.608C43.9065 21.0453 43.8185 21.568 43.8185 22.176C43.8185 23.0773 44.0078 23.792 44.3865 24.32C44.7705 24.8427 45.3332 25.104 46.0745 25.104ZM54.9414 18.352H56.3334L58.8294 24.912H58.5414L60.4774 18.352H61.7574L58.8774 27.536C58.6374 28.304 58.3174 28.896 57.9174 29.312C57.5174 29.728 57.0054 29.936 56.3814 29.936C56.0454 29.936 55.7254 29.888 55.4214 29.792C55.1227 29.696 54.8134 29.5573 54.4934 29.376V28.224C54.776 28.448 55.048 28.608 55.3094 28.704C55.576 28.8 55.8534 28.848 56.1414 28.848C56.4614 28.848 56.728 28.7467 56.9414 28.544C57.16 28.3413 57.3414 28.08 57.4854 27.76C57.6294 27.4453 57.752 27.1147 57.8534 26.768L58.0774 26L54.9414 18.352ZM66.5865 26.192C65.8985 26.192 65.2852 26.04 64.7465 25.736C64.2132 25.432 63.7918 24.9813 63.4825 24.384C63.1732 23.7867 63.0185 23.0507 63.0185 22.176C63.0185 21.296 63.1732 20.56 63.4825 19.968C63.7918 19.3707 64.2132 18.92 64.7465 18.616C65.2852 18.312 65.8985 18.16 66.5865 18.16C67.2692 18.16 67.8772 18.312 68.4105 18.616C68.9492 18.92 69.3705 19.3707 69.6745 19.968C69.9838 20.56 70.1385 21.296 70.1385 22.176C70.1385 23.0507 69.9838 23.7867 69.6745 24.384C69.3705 24.9813 68.9492 25.432 68.4105 25.736C67.8772 26.04 67.2692 26.192 66.5865 26.192ZM66.5545 25.104C67.0505 25.104 67.4718 24.9867 67.8185 24.752C68.1652 24.512 68.4265 24.1733 68.6025 23.736C68.7838 23.2987 68.8745 22.7787 68.8745 22.176C68.8745 21.264 68.6852 20.5467 68.3065 20.024C67.9278 19.496 67.3652 19.232 66.6185 19.232C66.1172 19.232 65.6932 19.352 65.3465 19.592C65.0052 19.8267 64.7438 20.1653 64.5625 20.608C64.3865 21.0453 64.2985 21.568 64.2985 22.176C64.2985 23.0773 64.4878 23.792 64.8665 24.32C65.2505 24.8427 65.8132 25.104 66.5545 25.104ZM77.9285 18.336H79.1765V26H77.9285V18.336ZM72.5045 18.336H73.7525V23.104C73.7525 23.744 73.9072 24.2293 74.2165 24.56C74.5312 24.8907 74.9792 25.056 75.5605 25.056C76.0405 25.056 76.4565 24.928 76.8085 24.672C77.1658 24.416 77.4405 24.064 77.6325 23.616C77.8298 23.1627 77.9285 22.6453 77.9285 22.064H78.3925C78.3925 22.9227 78.2672 23.656 78.0165 24.264C77.7712 24.872 77.4218 25.3387 76.9685 25.664C76.5205 25.984 75.9925 26.144 75.3845 26.144C74.8085 26.144 74.3045 26.0373 73.8725 25.824C73.4405 25.6107 73.1045 25.288 72.8645 24.856C72.6245 24.4187 72.5045 23.8667 72.5045 23.2V18.336ZM85.2049 18.352H86.5009L88.4529 24.736H88.2929L90.1969 18.72H91.2369L93.1249 24.752H92.9809L94.9329 18.352H96.1809L93.6689 26H92.4529L90.5969 20.352H90.7889L88.9489 26H87.7329L85.2049 18.352ZM103.023 26L102.863 24.32V21.04C102.863 20.352 102.716 19.8587 102.423 19.56C102.129 19.256 101.689 19.104 101.103 19.104C100.772 19.104 100.471 19.152 100.199 19.248C99.932 19.344 99.7186 19.4933 99.5586 19.696C99.404 19.8933 99.3266 20.1493 99.3266 20.464H97.9346C97.9346 19.9093 98.0706 19.464 98.3426 19.128C98.6146 18.7867 98.988 18.5413 99.4626 18.392C99.9426 18.2373 100.489 18.16 101.103 18.16C101.689 18.16 102.209 18.2587 102.663 18.456C103.116 18.6533 103.471 18.968 103.727 19.4C103.983 19.8267 104.111 20.384 104.111 21.072V26H103.023ZM100.415 26.192C99.7853 26.192 99.2653 26.08 98.8546 25.856C98.444 25.632 98.1373 25.3413 97.9346 24.984C97.732 24.6267 97.6306 24.2507 97.6306 23.856C97.6306 23.3387 97.7586 22.9173 98.0146 22.592C98.276 22.2667 98.6306 22.0293 99.0786 21.88C99.5266 21.7253 100.031 21.648 100.591 21.648C100.991 21.648 101.391 21.688 101.791 21.768C102.196 21.848 102.591 21.9573 102.975 22.096V22.88C102.655 22.752 102.292 22.6507 101.887 22.576C101.487 22.5013 101.119 22.464 100.783 22.464C100.271 22.464 99.8386 22.5707 99.4866 22.784C99.1346 22.992 98.9586 23.3493 98.9586 23.856C98.9586 24.2293 99.092 24.5493 99.3586 24.816C99.6306 25.0827 100.063 25.216 100.655 25.216C101.071 25.216 101.444 25.12 101.775 24.928C102.111 24.7307 102.375 24.4853 102.567 24.192C102.764 23.8987 102.863 23.6053 102.863 23.312H103.167C103.167 23.824 103.055 24.2987 102.831 24.736C102.612 25.1733 102.297 25.5253 101.887 25.792C101.476 26.0587 100.985 26.192 100.415 26.192ZM112.699 26V21.504C112.699 20.7733 112.523 20.2187 112.171 19.84C111.824 19.456 111.35 19.264 110.747 19.264C110.288 19.264 109.891 19.3893 109.555 19.64C109.219 19.8907 108.96 20.2507 108.779 20.72C108.598 21.184 108.507 21.7387 108.507 22.384H108.027C108.027 21.4933 108.144 20.7333 108.379 20.104C108.614 19.4747 108.955 18.9947 109.403 18.664C109.856 18.328 110.406 18.16 111.051 18.16C111.654 18.16 112.168 18.296 112.595 18.568C113.027 18.8347 113.358 19.2187 113.587 19.72C113.816 20.2213 113.931 20.816 113.931 21.504V26H112.699ZM107.259 26V18.352H108.331L108.507 20.112V26H107.259ZM119.427 26.192C119.011 26.192 118.638 26.112 118.307 25.952C117.977 25.792 117.715 25.552 117.523 25.232C117.331 24.912 117.235 24.512 117.235 24.032V16.224H118.467V24C118.467 24.7893 118.835 25.184 119.571 25.184C119.79 25.184 120.001 25.16 120.203 25.112C120.411 25.064 120.643 24.992 120.899 24.896L121.075 25.792C120.803 25.9093 120.531 26.0053 120.259 26.08C119.993 26.1547 119.715 26.192 119.427 26.192ZM116.003 19.216V18.352H120.883V19.216H116.003ZM129.56 26.192C129.144 26.192 128.771 26.112 128.44 25.952C128.109 25.792 127.848 25.552 127.656 25.232C127.464 24.912 127.368 24.512 127.368 24.032V16.224H128.6V24C128.6 24.7893 128.968 25.184 129.704 25.184C129.923 25.184 130.133 25.16 130.336 25.112C130.544 25.064 130.776 24.992 131.032 24.896L131.208 25.792C130.936 25.9093 130.664 26.0053 130.392 26.08C130.125 26.1547 129.848 26.192 129.56 26.192ZM126.136 19.216V18.352H131.016V19.216H126.136ZM136.152 26.192C135.464 26.192 134.85 26.04 134.312 25.736C133.778 25.432 133.357 24.9813 133.048 24.384C132.738 23.7867 132.584 23.0507 132.584 22.176C132.584 21.296 132.738 20.56 133.048 19.968C133.357 19.3707 133.778 18.92 134.312 18.616C134.85 18.312 135.464 18.16 136.152 18.16C136.834 18.16 137.442 18.312 137.976 18.616C138.514 18.92 138.936 19.3707 139.24 19.968C139.549 20.56 139.704 21.296 139.704 22.176C139.704 23.0507 139.549 23.7867 139.24 24.384C138.936 24.9813 138.514 25.432 137.976 25.736C137.442 26.04 136.834 26.192 136.152 26.192ZM136.12 25.104C136.616 25.104 137.037 24.9867 137.384 24.752C137.73 24.512 137.992 24.1733 138.168 23.736C138.349 23.2987 138.44 22.7787 138.44 22.176C138.44 21.264 138.25 20.5467 137.872 20.024C137.493 19.496 136.93 19.232 136.184 19.232C135.682 19.232 135.258 19.352 134.912 19.592C134.57 19.8267 134.309 20.1653 134.128 20.608C133.952 21.0453 133.864 21.568 133.864 22.176C133.864 23.0773 134.053 23.792 134.432 24.32C134.816 24.8427 135.378 25.104 136.12 25.104ZM148.906 26.192C148.245 26.192 147.653 26.024 147.13 25.688C146.613 25.3467 146.202 24.8747 145.898 24.272C145.6 23.6693 145.45 22.976 145.45 22.192C145.45 21.3547 145.6 20.6347 145.898 20.032C146.197 19.4293 146.605 18.968 147.122 18.648C147.645 18.3227 148.24 18.16 148.906 18.16C149.488 18.16 149.984 18.2773 150.394 18.512C150.805 18.7467 151.136 19.064 151.386 19.464C151.637 19.864 151.81 20.3173 151.906 20.824C152.008 21.3253 152.037 21.8453 151.994 22.384H146.458V21.616H151.17L150.802 21.856C150.818 21.5413 150.8 21.2267 150.746 20.912C150.698 20.5973 150.605 20.3093 150.466 20.048C150.328 19.7813 150.133 19.568 149.882 19.408C149.632 19.248 149.312 19.168 148.922 19.168C148.432 19.168 148.021 19.2933 147.69 19.544C147.36 19.7947 147.112 20.1253 146.946 20.536C146.781 20.9413 146.698 21.3813 146.698 21.856V22.368C146.698 22.9013 146.778 23.3787 146.938 23.8C147.104 24.2213 147.349 24.5547 147.674 24.8C148 25.0453 148.41 25.168 148.906 25.168C149.402 25.168 149.81 25.048 150.13 24.808C150.45 24.568 150.645 24.2133 150.714 23.744H152.01C151.93 24.2507 151.749 24.688 151.466 25.056C151.184 25.4187 150.824 25.6987 150.386 25.896C149.949 26.0933 149.456 26.192 148.906 26.192ZM153.429 26L156.325 22.176L153.429 18.336H154.949L157.141 21.232L159.253 18.336H160.773L157.861 22.176L160.757 26H159.237L157.045 23.088L154.949 26H153.429ZM166.449 26.192C165.889 26.192 165.401 26.064 164.985 25.808C164.574 25.552 164.257 25.1787 164.033 24.688C163.809 24.192 163.697 23.5893 163.697 22.88H164.225C164.225 23.3547 164.323 23.7547 164.521 24.08C164.718 24.4053 164.974 24.6533 165.289 24.824C165.609 24.9893 165.947 25.072 166.305 25.072C166.689 25.072 167.057 24.9627 167.409 24.744C167.761 24.52 168.049 24.192 168.273 23.76C168.497 23.328 168.609 22.7947 168.609 22.16C168.609 21.552 168.505 21.032 168.297 20.6C168.094 20.168 167.819 19.8373 167.473 19.608C167.126 19.3787 166.742 19.264 166.321 19.264C165.958 19.264 165.617 19.352 165.297 19.528C164.977 19.704 164.718 19.9627 164.521 20.304C164.323 20.64 164.225 21.056 164.225 21.552H163.697C163.697 20.8107 163.819 20.1893 164.065 19.688C164.31 19.1813 164.643 18.8 165.065 18.544C165.486 18.288 165.958 18.16 166.481 18.16C167.078 18.16 167.635 18.32 168.153 18.64C168.67 18.96 169.089 19.4187 169.409 20.016C169.729 20.6133 169.889 21.328 169.889 22.16C169.889 23.0027 169.726 23.7253 169.401 24.328C169.081 24.9307 168.659 25.392 168.137 25.712C167.614 26.032 167.051 26.192 166.449 26.192ZM162.977 29.76V18.352H164.017L164.225 20.144V29.76H162.977ZM172.496 26V15.088H173.744V26H172.496ZM179.908 26.192C179.22 26.192 178.607 26.04 178.068 25.736C177.535 25.432 177.114 24.9813 176.804 24.384C176.495 23.7867 176.34 23.0507 176.34 22.176C176.34 21.296 176.495 20.56 176.804 19.968C177.114 19.3707 177.535 18.92 178.068 18.616C178.607 18.312 179.22 18.16 179.908 18.16C180.591 18.16 181.199 18.312 181.732 18.616C182.271 18.92 182.692 19.3707 182.996 19.968C183.306 20.56 183.46 21.296 183.46 22.176C183.46 23.0507 183.306 23.7867 182.996 24.384C182.692 24.9813 182.271 25.432 181.732 25.736C181.199 26.04 180.591 26.192 179.908 26.192ZM179.876 25.104C180.372 25.104 180.794 24.9867 181.14 24.752C181.487 24.512 181.748 24.1733 181.924 23.736C182.106 23.2987 182.196 22.7787 182.196 22.176C182.196 21.264 182.007 20.5467 181.628 20.024C181.25 19.496 180.687 19.232 179.94 19.232C179.439 19.232 179.015 19.352 178.668 19.592C178.327 19.8267 178.066 20.1653 177.884 20.608C177.708 21.0453 177.62 21.568 177.62 22.176C177.62 23.0773 177.81 23.792 178.188 24.32C178.572 24.8427 179.135 25.104 179.876 25.104ZM186.05 26V18.336H187.298V26H186.05ZM186.914 22.544C186.914 21.5733 187.008 20.768 187.194 20.128C187.381 19.4827 187.653 19.0027 188.01 18.688C188.373 18.368 188.813 18.208 189.33 18.208C189.501 18.208 189.656 18.2213 189.794 18.248C189.938 18.2693 190.082 18.304 190.226 18.352L190.146 19.584C189.997 19.536 189.834 19.496 189.658 19.464C189.482 19.4267 189.325 19.408 189.186 19.408C188.733 19.408 188.368 19.5387 188.09 19.8C187.813 20.056 187.61 20.4187 187.482 20.888C187.36 21.3573 187.298 21.9093 187.298 22.544H186.914ZM194.648 26.192C193.986 26.192 193.394 26.024 192.872 25.688C192.354 25.3467 191.944 24.8747 191.64 24.272C191.341 23.6693 191.192 22.976 191.192 22.192C191.192 21.3547 191.341 20.6347 191.64 20.032C191.938 19.4293 192.346 18.968 192.864 18.648C193.386 18.3227 193.981 18.16 194.648 18.16C195.229 18.16 195.725 18.2773 196.136 18.512C196.546 18.7467 196.877 19.064 197.128 19.464C197.378 19.864 197.552 20.3173 197.648 20.824C197.749 21.3253 197.778 21.8453 197.736 22.384H192.2V21.616H196.912L196.544 21.856C196.56 21.5413 196.541 21.2267 196.488 20.912C196.44 20.5973 196.346 20.3093 196.208 20.048C196.069 19.7813 195.874 19.568 195.624 19.408C195.373 19.248 195.053 19.168 194.664 19.168C194.173 19.168 193.762 19.2933 193.432 19.544C193.101 19.7947 192.853 20.1253 192.688 20.536C192.522 20.9413 192.44 21.3813 192.44 21.856V22.368C192.44 22.9013 192.52 23.3787 192.68 23.8C192.845 24.2213 193.09 24.5547 193.416 24.8C193.741 25.0453 194.152 25.168 194.648 25.168C195.144 25.168 195.552 25.048 195.872 24.808C196.192 24.568 196.386 24.2133 196.456 23.744H197.752C197.672 24.2507 197.49 24.688 197.208 25.056C196.925 25.4187 196.565 25.6987 196.128 25.896C195.69 26.0933 195.197 26.192 194.648 26.192ZM34.968 46.192C34.552 46.192 34.1787 46.112 33.848 45.952C33.5173 45.792 33.256 45.552 33.064 45.232C32.872 44.912 32.776 44.512 32.776 44.032V36.224H34.008V44C34.008 44.7893 34.376 45.184 35.112 45.184C35.3307 45.184 35.5413 45.16 35.744 45.112C35.952 45.064 36.184 44.992 36.44 44.896L36.616 45.792C36.344 45.9093 36.072 46.0053 35.8 46.08C35.5333 46.1547 35.256 46.192 34.968 46.192ZM31.544 39.216V38.352H36.424V39.216H31.544ZM44.2316 46V41.504C44.2316 40.7733 44.0556 40.2187 43.7036 39.84C43.357 39.456 42.8823 39.264 42.2796 39.264C41.821 39.264 41.4236 39.3893 41.0876 39.64C40.7516 39.8907 40.493 40.2507 40.3116 40.72C40.1303 41.184 40.0396 41.7387 40.0396 42.384H39.5596C39.5596 41.4933 39.677 40.7333 39.9116 40.104C40.1463 39.4747 40.4876 38.9947 40.9356 38.664C41.389 38.328 41.9383 38.16 42.5836 38.16C43.1863 38.16 43.701 38.296 44.1276 38.568C44.5596 38.8347 44.8903 39.2187 45.1196 39.72C45.349 40.2213 45.4636 40.816 45.4636 41.504V46H44.2316ZM38.7916 46V35.088H40.0396V46H38.7916ZM51.2639 46.192C50.6025 46.192 50.0105 46.024 49.4879 45.688C48.9705 45.3467 48.5599 44.8747 48.2559 44.272C47.9572 43.6693 47.8079 42.976 47.8079 42.192C47.8079 41.3547 47.9572 40.6347 48.2559 40.032C48.5545 39.4293 48.9625 38.968 49.4799 38.648C50.0025 38.3227 50.5972 38.16 51.2639 38.16C51.8452 38.16 52.3412 38.2773 52.7519 38.512C53.1625 38.7467 53.4932 39.064 53.7439 39.464C53.9945 39.864 54.1679 40.3173 54.2639 40.824C54.3652 41.3253 54.3945 41.8453 54.3519 42.384H48.8159V41.616H53.5279L53.1599 41.856C53.1759 41.5413 53.1572 41.2267 53.1039 40.912C53.0559 40.5973 52.9625 40.3093 52.8239 40.048C52.6852 39.7813 52.4905 39.568 52.2399 39.408C51.9892 39.248 51.6692 39.168 51.2799 39.168C50.7892 39.168 50.3785 39.2933 50.0479 39.544C49.7172 39.7947 49.4692 40.1253 49.3039 40.536C49.1385 40.9413 49.0559 41.3813 49.0559 41.856V42.368C49.0559 42.9013 49.1359 43.3787 49.2959 43.8C49.4612 44.2213 49.7065 44.5547 50.0319 44.8C50.3572 45.0453 50.7679 45.168 51.2639 45.168C51.7599 45.168 52.1679 45.048 52.4879 44.808C52.8079 44.568 53.0025 44.2133 53.0719 43.744H54.3679C54.2879 44.2507 54.1065 44.688 53.8239 45.056C53.5412 45.4187 53.1812 45.6987 52.7439 45.896C52.3065 46.0933 51.8132 46.192 51.2639 46.192ZM60.8155 46V35.616H65.0075C65.8075 35.616 66.4715 35.7413 66.9995 35.992C67.5275 36.2373 67.9222 36.568 68.1835 36.984C68.4448 37.4 68.5755 37.8613 68.5755 38.368C68.5755 38.9547 68.4102 39.456 68.0795 39.872C67.7542 40.288 67.2955 40.5813 66.7035 40.752C67.0928 40.832 67.4422 40.9787 67.7515 41.192C68.0608 41.4053 68.3035 41.6747 68.4795 42C68.6608 42.3253 68.7515 42.6987 68.7515 43.12C68.7515 43.4507 68.6928 43.784 68.5755 44.12C68.4635 44.456 68.2662 44.768 67.9835 45.056C67.7062 45.3387 67.3248 45.568 66.8395 45.744C66.3595 45.9147 65.7542 46 65.0235 46H60.8155ZM62.7035 44.352H64.9755C65.5782 44.352 66.0182 44.232 66.2955 43.992C66.5782 43.7467 66.7195 43.4187 66.7195 43.008C66.7195 42.5973 66.5755 42.2693 66.2875 42.024C65.9995 41.7733 65.5622 41.648 64.9755 41.648H62.7035V44.352ZM62.7035 37.248V40H64.9275C65.4875 40 65.9115 39.8773 66.1995 39.632C66.4928 39.3813 66.6395 39.04 66.6395 38.608C66.6395 38.1973 66.4955 37.8693 66.2075 37.624C65.9248 37.3733 65.5035 37.248 64.9435 37.248H62.7035ZM71.3505 46V35.616H75.1905C76.4332 35.616 77.3852 35.9067 78.0465 36.488C78.7132 37.0693 79.0465 37.84 79.0465 38.8C79.0465 39.744 78.7132 40.5067 78.0465 41.088C77.3852 41.664 76.4332 41.952 75.1905 41.952H73.2385V46H71.3505ZM76.9665 46L74.2145 41.136H76.2305L79.4305 46H76.9665ZM73.2385 40.688H74.9985C75.6918 40.688 76.2172 40.5307 76.5745 40.216C76.9318 39.896 77.1105 39.4827 77.1105 38.976C77.1105 38.4587 76.9478 38.0427 76.6225 37.728C76.2972 37.408 75.8198 37.248 75.1905 37.248H73.2385V40.688ZM81.7914 46V35.616H88.4634V37.248H83.6794V39.984H88.1754V41.616H83.6794V44.352H88.4634V46H81.7914ZM90.222 46L93.758 35.616H96.126L99.518 46H97.534L96.814 43.76H92.958L92.222 46H90.222ZM93.438 42.336H96.366L94.91 37.872L93.438 42.336ZM107.534 35.616H110.126L103.278 42.624V40.048L107.534 35.616ZM105.23 39.904L110.414 46H107.982L103.918 41.136L105.23 39.904ZM101.534 35.616H103.438V46H101.534V35.616ZM112.162 46V35.616H118.706V37.248H114.05V39.984H118.306V41.6H114.05V46H112.162ZM118.905 46L122.441 35.616H124.809L128.201 46H126.217L125.497 43.76H121.641L120.905 46H118.905ZM122.121 42.336H125.049L123.593 37.872L122.121 42.336ZM133.833 46.224C133.113 46.224 132.449 46.0987 131.841 45.848C131.238 45.5973 130.747 45.216 130.369 44.704C129.995 44.192 129.795 43.5413 129.769 42.752H131.625C131.625 43.152 131.723 43.48 131.921 43.736C132.118 43.992 132.382 44.184 132.713 44.312C133.049 44.4347 133.417 44.496 133.817 44.496C134.201 44.496 134.542 44.4453 134.841 44.344C135.145 44.2427 135.382 44.0987 135.553 43.912C135.729 43.72 135.817 43.4933 135.817 43.232C135.817 42.8853 135.71 42.6133 135.497 42.416C135.289 42.2187 134.953 42.0373 134.489 41.872L132.441 41.056C131.641 40.7413 131.027 40.376 130.601 39.96C130.174 39.544 129.961 38.9707 129.961 38.24C129.961 37.3973 130.294 36.7147 130.961 36.192C131.627 35.6693 132.558 35.408 133.753 35.408C134.915 35.408 135.814 35.68 136.449 36.224C137.083 36.7627 137.443 37.5147 137.529 38.48H135.673C135.603 38.0693 135.417 37.7413 135.113 37.496C134.809 37.2453 134.355 37.12 133.753 37.12C133.219 37.12 132.798 37.232 132.489 37.456C132.179 37.6747 132.025 37.952 132.025 38.288C132.025 38.576 132.121 38.8053 132.313 38.976C132.51 39.1413 132.814 39.3013 133.225 39.456L135.497 40.336C136.265 40.6347 136.854 41.0107 137.265 41.464C137.675 41.9173 137.881 42.4853 137.881 43.168C137.881 43.792 137.723 44.3333 137.409 44.792C137.094 45.2453 136.635 45.5973 136.033 45.848C135.43 46.0987 134.697 46.224 133.833 46.224ZM139.188 37.248V35.616H147.508V37.248H143.868L144.292 36.816V46H142.404V36.816L142.828 37.248H139.188ZM156.077 46.192C155.335 46.192 154.717 46.088 154.221 45.88C153.725 45.6667 153.349 45.376 153.093 45.008C152.837 44.6347 152.701 44.208 152.685 43.728H153.885C153.911 44.2133 154.106 44.5787 154.469 44.824C154.837 45.064 155.335 45.184 155.965 45.184C156.295 45.184 156.599 45.1307 156.877 45.024C157.154 44.9173 157.375 44.7707 157.541 44.584C157.706 44.3973 157.789 44.1867 157.789 43.952C157.789 43.6533 157.679 43.4187 157.461 43.248C157.242 43.0773 156.893 42.928 156.413 42.8L154.925 42.32C154.279 42.1173 153.783 41.84 153.437 41.488C153.095 41.1307 152.925 40.704 152.925 40.208C152.925 39.5893 153.197 39.0933 153.741 38.72C154.285 38.3467 154.999 38.16 155.885 38.16C156.823 38.16 157.551 38.352 158.069 38.736C158.586 39.12 158.855 39.6 158.877 40.176H157.645C157.597 39.84 157.426 39.5867 157.133 39.416C156.839 39.24 156.423 39.152 155.885 39.152C155.367 39.152 154.962 39.2693 154.669 39.504C154.381 39.7333 154.237 39.9893 154.237 40.272C154.237 40.8 154.69 41.1893 155.597 41.44L157.117 41.952C157.773 42.1493 158.274 42.408 158.621 42.728C158.973 43.048 159.149 43.456 159.149 43.952C159.149 44.336 159.023 44.6987 158.773 45.04C158.522 45.3813 158.167 45.6587 157.709 45.872C157.25 46.0853 156.706 46.192 156.077 46.192ZM164.547 46.192C163.886 46.192 163.294 46.024 162.771 45.688C162.254 45.3467 161.843 44.8747 161.539 44.272C161.24 43.6693 161.091 42.976 161.091 42.192C161.091 41.3547 161.24 40.6347 161.539 40.032C161.838 39.4293 162.246 38.968 162.763 38.648C163.286 38.3227 163.88 38.16 164.547 38.16C165.128 38.16 165.624 38.2773 166.035 38.512C166.446 38.7467 166.776 39.064 167.027 39.464C167.278 39.864 167.451 40.3173 167.547 40.824C167.648 41.3253 167.678 41.8453 167.635 42.384H162.099V41.616H166.811L166.443 41.856C166.459 41.5413 166.44 41.2267 166.387 40.912C166.339 40.5973 166.246 40.3093 166.107 40.048C165.968 39.7813 165.774 39.568 165.523 39.408C165.272 39.248 164.952 39.168 164.563 39.168C164.072 39.168 163.662 39.2933 163.331 39.544C163 39.7947 162.752 40.1253 162.587 40.536C162.422 40.9413 162.339 41.3813 162.339 41.856V42.368C162.339 42.9013 162.419 43.3787 162.579 43.8C162.744 44.2213 162.99 44.5547 163.315 44.8C163.64 45.0453 164.051 45.168 164.547 45.168C165.043 45.168 165.451 45.048 165.771 44.808C166.091 44.568 166.286 44.2133 166.355 43.744H167.651C167.571 44.2507 167.39 44.688 167.107 45.056C166.824 45.4187 166.464 45.6987 166.027 45.896C165.59 46.0933 165.096 46.192 164.547 46.192ZM172.958 46.192C172.344 46.192 171.771 46.0267 171.238 45.696C170.71 45.3653 170.283 44.8987 169.958 44.296C169.632 43.6933 169.47 42.9813 169.47 42.16C169.47 41.3173 169.632 40.5973 169.958 40C170.283 39.4027 170.71 38.9467 171.238 38.632C171.771 38.3173 172.344 38.16 172.958 38.16C173.39 38.16 173.776 38.2267 174.118 38.36C174.464 38.488 174.766 38.6667 175.022 38.896C175.278 39.1253 175.488 39.3867 175.654 39.68C175.824 39.968 175.95 40.272 176.03 40.592L174.75 40.704C174.616 40.2613 174.392 39.912 174.078 39.656C173.768 39.3947 173.39 39.264 172.942 39.264C172.563 39.264 172.206 39.3733 171.87 39.592C171.539 39.8053 171.27 40.128 171.062 40.56C170.854 40.9867 170.75 41.52 170.75 42.16C170.75 42.752 170.843 43.2667 171.03 43.704C171.222 44.136 171.483 44.472 171.814 44.712C172.144 44.952 172.52 45.072 172.942 45.072C173.534 45.072 173.982 44.928 174.286 44.64C174.595 44.3467 174.75 43.9413 174.75 43.424H176.03C176.03 43.9573 175.904 44.432 175.654 44.848C175.403 45.264 175.046 45.592 174.582 45.832C174.123 46.072 173.582 46.192 172.958 46.192ZM181.032 46.192C180.616 46.192 180.242 46.112 179.912 45.952C179.581 45.792 179.32 45.552 179.128 45.232C178.936 44.912 178.84 44.512 178.84 44.032V36.224H180.072V44C180.072 44.7893 180.44 45.184 181.176 45.184C181.394 45.184 181.605 45.16 181.808 45.112C182.016 45.064 182.248 44.992 182.504 44.896L182.68 45.792C182.408 45.9093 182.136 46.0053 181.864 46.08C181.597 46.1547 181.32 46.192 181.032 46.192ZM177.608 39.216V38.352H182.488V39.216H177.608ZM185.559 36.544C185.303 36.544 185.101 36.472 184.951 36.328C184.802 36.1787 184.727 35.984 184.727 35.744C184.727 35.5093 184.802 35.3227 184.951 35.184C185.101 35.0453 185.303 34.976 185.559 34.976C185.815 34.976 186.018 35.0453 186.167 35.184C186.317 35.3227 186.391 35.5093 186.391 35.744C186.391 35.984 186.317 36.1787 186.167 36.328C186.018 36.472 185.815 36.544 185.559 36.544ZM184.935 46V38.336H186.183V46H184.935ZM192.549 46.192C191.861 46.192 191.248 46.04 190.709 45.736C190.176 45.432 189.754 44.9813 189.445 44.384C189.136 43.7867 188.981 43.0507 188.981 42.176C188.981 41.296 189.136 40.56 189.445 39.968C189.754 39.3707 190.176 38.92 190.709 38.616C191.248 38.312 191.861 38.16 192.549 38.16C193.232 38.16 193.84 38.312 194.373 38.616C194.912 38.92 195.333 39.3707 195.637 39.968C195.946 40.56 196.101 41.296 196.101 42.176C196.101 43.0507 195.946 43.7867 195.637 44.384C195.333 44.9813 194.912 45.432 194.373 45.736C193.84 46.04 193.232 46.192 192.549 46.192ZM192.517 45.104C193.013 45.104 193.434 44.9867 193.781 44.752C194.128 44.512 194.389 44.1733 194.565 43.736C194.746 43.2987 194.837 42.7787 194.837 42.176C194.837 41.264 194.648 40.5467 194.269 40.024C193.89 39.496 193.328 39.232 192.581 39.232C192.08 39.232 191.656 39.352 191.309 39.592C190.968 39.8267 190.706 40.1653 190.525 40.608C190.349 41.0453 190.261 41.568 190.261 42.176C190.261 43.0773 190.45 43.792 190.829 44.32C191.213 44.8427 191.776 45.104 192.517 45.104ZM204.131 46V41.504C204.131 40.7733 203.955 40.2187 203.603 39.84C203.256 39.456 202.782 39.264 202.179 39.264C201.72 39.264 201.323 39.3893 200.987 39.64C200.651 39.8907 200.392 40.2507 200.211 40.72C200.03 41.184 199.939 41.7387 199.939 42.384H199.459C199.459 41.4933 199.576 40.7333 199.811 40.104C200.046 39.4747 200.387 38.9947 200.835 38.664C201.288 38.328 201.838 38.16 202.483 38.16C203.086 38.16 203.6 38.296 204.027 38.568C204.459 38.8347 204.79 39.2187 205.019 39.72C205.248 40.2213 205.363 40.816 205.363 41.504V46H204.131ZM198.691 46V38.352H199.763L199.939 40.112V46H198.691ZM209.723 43.44V42.72C209.723 42.256 209.771 41.8747 209.867 41.576C209.969 41.2773 210.134 41.0187 210.363 40.8C210.593 40.5813 210.907 40.3627 211.307 40.144C211.665 39.952 211.95 39.7733 212.163 39.608C212.377 39.4427 212.529 39.264 212.619 39.072C212.715 38.88 212.763 38.6453 212.763 38.368C212.763 37.952 212.593 37.6053 212.251 37.328C211.915 37.0507 211.451 36.912 210.859 36.912C210.203 36.912 209.702 37.0427 209.355 37.304C209.009 37.56 208.79 37.92 208.699 38.384H207.371C207.446 37.6053 207.771 36.976 208.347 36.496C208.929 36.016 209.755 35.776 210.827 35.776C211.51 35.776 212.097 35.896 212.587 36.136C213.083 36.3707 213.462 36.688 213.723 37.088C213.99 37.4827 214.123 37.92 214.123 38.4C214.123 38.9493 213.985 39.4107 213.707 39.784C213.43 40.152 212.982 40.5013 212.363 40.832C212.006 41.0293 211.723 41.2133 211.515 41.384C211.313 41.5493 211.169 41.7413 211.083 41.96C210.998 42.1733 210.955 42.4533 210.955 42.8V43.44H209.723ZM210.363 46.192C210.097 46.192 209.875 46.1067 209.699 45.936C209.523 45.76 209.435 45.5493 209.435 45.304C209.435 45.0533 209.521 44.8373 209.691 44.656C209.867 44.4747 210.089 44.384 210.355 44.384C210.622 44.384 210.849 44.4747 211.035 44.656C211.227 44.832 211.323 45.0453 211.323 45.296C211.323 45.5413 211.23 45.752 211.043 45.928C210.857 46.104 210.63 46.192 210.363 46.192Z" fill="#4A5DC8"/>
</g>
<defs>
<filter id="filter0_d_7098_5734" x="0" y="0" width="235.035" height="70" filterUnits="userSpaceOnUse" color-interpolation-filters="sRGB">
<feFlood flood-opacity="0" result="BackgroundImageFix"/>
<feColorMatrix in="SourceAlpha" type="matrix" values="0 0 0 0 0 0 0 0 0 0 0 0 0 0 0 0 0 0 127 0" result="hardAlpha"/>
<feOffset dy="4"/>
<feGaussianBlur stdDeviation="3"/>
<feComposite in2="hardAlpha" operator="out"/>
<feColorMatrix type="matrix" values="0 0 0 0 0 0 0 0 0 0 0 0 0 0 0 0 0 0 0.1 0"/>
<feBlend mode="normal" in2="BackgroundImageFix" result="effect1_dropShadow_7098_5734"/>
<feBlend mode="normal" in="SourceGraphic" in2="effect1_dropShadow_7098_5734" result="shape"/>
</filter>
<filter id="filter1_d_7098_5734" x="25.5439" y="13.0879" width="194.579" height="43.1357" filterUnits="userSpaceOnUse" color-interpolation-filters="sRGB">
<feFlood flood-opacity="0" result="BackgroundImageFix"/>
<feColorMatrix in="SourceAlpha" type="matrix" values="0 0 0 0 0 0 0 0 0 0 0 0 0 0 0 0 0 0 127 0" result="hardAlpha"/>
<feOffset dy="4"/>
<feGaussianBlur stdDeviation="3"/>
<feComposite in2="hardAlpha" operator="out"/>
<feColorMatrix type="matrix" values="0 0 0 0 0 0 0 0 0 0 0 0 0 0 0 0 0 0 0.05 0"/>
<feBlend mode="normal" in2="BackgroundImageFix" result="effect1_dropShadow_7098_5734"/>
<feBlend mode="normal" in="SourceGraphic" in2="effect1_dropShadow_7098_5734" result="shape"/>
</filter>
</defs>
</svg>
