<svg width="345" height="63" viewBox="0 0 345 63" fill="none" xmlns="http://www.w3.org/2000/svg">
<path d="M12 12.8C12 8.31958 12 6.07937 12.8719 4.36808C13.6389 2.86278 14.8628 1.63893 16.3681 0.871948C18.0794 0 20.3196 0 24.8 0H238.2C242.68 0 244.921 0 246.632 0.871948C248.137 1.63893 249.361 2.86278 250.128 4.36808C251 6.07937 251 8.31958 251 12.8V50.2C251 54.6804 251 56.9206 250.128 58.6319C249.361 60.1372 248.137 61.3611 246.632 62.1281C244.921 63 242.68 63 238.2 63H24.8C20.3196 63 18.0794 63 16.3681 62.1281C14.8628 61.3611 13.6389 60.1372 12.8719 58.6319C12 56.9206 12 54.6804 12 50.2V12.8Z" fill="#F1F3FF"/>
<path d="M28.616 16.452H31.56C32.5733 16.452 33.4533 16.66 34.2 17.076C34.9467 17.4867 35.5253 18.068 35.936 18.82C36.3467 19.572 36.552 20.4573 36.552 21.476C36.552 22.484 36.3467 23.364 35.936 24.116C35.5253 24.868 34.9467 25.4547 34.2 25.876C33.4533 26.292 32.5733 26.5 31.56 26.5H28.616V16.452ZM29.864 17.556V25.412H31.56C32.3173 25.412 32.968 25.2413 33.512 24.9C34.0613 24.5587 34.4827 24.092 34.776 23.5C35.0747 22.9027 35.224 22.228 35.224 21.476C35.224 20.7187 35.0747 20.0467 34.776 19.46C34.4827 18.868 34.0613 18.404 33.512 18.068C32.968 17.7267 32.3173 17.556 31.56 17.556H29.864ZM42.1065 26.692C41.4185 26.692 40.8052 26.54 40.2665 26.236C39.7332 25.932 39.3118 25.4813 39.0025 24.884C38.6932 24.2867 38.5385 23.5507 38.5385 22.676C38.5385 21.796 38.6932 21.06 39.0025 20.468C39.3118 19.8707 39.7332 19.42 40.2665 19.116C40.8052 18.812 41.4185 18.66 42.1065 18.66C42.7892 18.66 43.3972 18.812 43.9305 19.116C44.4692 19.42 44.8905 19.8707 45.1945 20.468C45.5038 21.06 45.6585 21.796 45.6585 22.676C45.6585 23.5507 45.5038 24.2867 45.1945 24.884C44.8905 25.4813 44.4692 25.932 43.9305 26.236C43.3972 26.54 42.7892 26.692 42.1065 26.692ZM42.0745 25.604C42.5705 25.604 42.9918 25.4867 43.3385 25.252C43.6852 25.012 43.9465 24.6733 44.1225 24.236C44.3038 23.7987 44.3945 23.2787 44.3945 22.676C44.3945 21.764 44.2052 21.0467 43.8265 20.524C43.4478 19.996 42.8852 19.732 42.1385 19.732C41.6372 19.732 41.2132 19.852 40.8665 20.092C40.5252 20.3267 40.2638 20.6653 40.0825 21.108C39.9065 21.5453 39.8185 22.068 39.8185 22.676C39.8185 23.5773 40.0078 24.292 40.3865 24.82C40.7705 25.3427 41.3332 25.604 42.0745 25.604ZM50.9414 18.852H52.3334L54.8294 25.412H54.5414L56.4774 18.852H57.7574L54.8774 28.036C54.6374 28.804 54.3174 29.396 53.9174 29.812C53.5174 30.228 53.0054 30.436 52.3814 30.436C52.0454 30.436 51.7254 30.388 51.4214 30.292C51.1227 30.196 50.8134 30.0573 50.4934 29.876V28.724C50.776 28.948 51.048 29.108 51.3094 29.204C51.576 29.3 51.8534 29.348 52.1414 29.348C52.4614 29.348 52.728 29.2467 52.9414 29.044C53.16 28.8413 53.3414 28.58 53.4854 28.26C53.6294 27.9453 53.752 27.6147 53.8534 27.268L54.0774 26.5L50.9414 18.852ZM62.5865 26.692C61.8985 26.692 61.2852 26.54 60.7465 26.236C60.2132 25.932 59.7918 25.4813 59.4825 24.884C59.1732 24.2867 59.0185 23.5507 59.0185 22.676C59.0185 21.796 59.1732 21.06 59.4825 20.468C59.7918 19.8707 60.2132 19.42 60.7465 19.116C61.2852 18.812 61.8985 18.66 62.5865 18.66C63.2692 18.66 63.8772 18.812 64.4105 19.116C64.9492 19.42 65.3705 19.8707 65.6745 20.468C65.9838 21.06 66.1385 21.796 66.1385 22.676C66.1385 23.5507 65.9838 24.2867 65.6745 24.884C65.3705 25.4813 64.9492 25.932 64.4105 26.236C63.8772 26.54 63.2692 26.692 62.5865 26.692ZM62.5545 25.604C63.0505 25.604 63.4718 25.4867 63.8185 25.252C64.1652 25.012 64.4265 24.6733 64.6025 24.236C64.7838 23.7987 64.8745 23.2787 64.8745 22.676C64.8745 21.764 64.6852 21.0467 64.3065 20.524C63.9278 19.996 63.3652 19.732 62.6185 19.732C62.1172 19.732 61.6932 19.852 61.3465 20.092C61.0052 20.3267 60.7438 20.6653 60.5625 21.108C60.3865 21.5453 60.2985 22.068 60.2985 22.676C60.2985 23.5773 60.4878 24.292 60.8665 24.82C61.2505 25.3427 61.8132 25.604 62.5545 25.604ZM73.9285 18.836H75.1765V26.5H73.9285V18.836ZM68.5045 18.836H69.7525V23.604C69.7525 24.244 69.9072 24.7293 70.2165 25.06C70.5312 25.3907 70.9792 25.556 71.5605 25.556C72.0405 25.556 72.4565 25.428 72.8085 25.172C73.1658 24.916 73.4405 24.564 73.6325 24.116C73.8298 23.6627 73.9285 23.1453 73.9285 22.564H74.3925C74.3925 23.4227 74.2672 24.156 74.0165 24.764C73.7712 25.372 73.4218 25.8387 72.9685 26.164C72.5205 26.484 71.9925 26.644 71.3845 26.644C70.8085 26.644 70.3045 26.5373 69.8725 26.324C69.4405 26.1107 69.1045 25.788 68.8645 25.356C68.6245 24.9187 68.5045 24.3667 68.5045 23.7V18.836ZM81.2049 18.852H82.5009L84.4529 25.236H84.2929L86.1969 19.22H87.2369L89.1249 25.252H88.9809L90.9329 18.852H92.1809L89.6689 26.5H88.4529L86.5969 20.852H86.7889L84.9489 26.5H83.7329L81.2049 18.852ZM99.0226 26.5L98.8626 24.82V21.54C98.8626 20.852 98.716 20.3587 98.4226 20.06C98.1293 19.756 97.6893 19.604 97.1026 19.604C96.772 19.604 96.4706 19.652 96.1986 19.748C95.932 19.844 95.7186 19.9933 95.5586 20.196C95.404 20.3933 95.3266 20.6493 95.3266 20.964H93.9346C93.9346 20.4093 94.0706 19.964 94.3426 19.628C94.6146 19.2867 94.988 19.0413 95.4626 18.892C95.9426 18.7373 96.4893 18.66 97.1026 18.66C97.6893 18.66 98.2093 18.7587 98.6626 18.956C99.116 19.1533 99.4706 19.468 99.7266 19.9C99.9826 20.3267 100.111 20.884 100.111 21.572V26.5H99.0226ZM96.4146 26.692C95.7853 26.692 95.2653 26.58 94.8546 26.356C94.444 26.132 94.1373 25.8413 93.9346 25.484C93.732 25.1267 93.6306 24.7507 93.6306 24.356C93.6306 23.8387 93.7586 23.4173 94.0146 23.092C94.276 22.7667 94.6306 22.5293 95.0786 22.38C95.5266 22.2253 96.0306 22.148 96.5906 22.148C96.9906 22.148 97.3906 22.188 97.7906 22.268C98.196 22.348 98.5906 22.4573 98.9746 22.596V23.38C98.6546 23.252 98.292 23.1507 97.8866 23.076C97.4866 23.0013 97.1186 22.964 96.7826 22.964C96.2706 22.964 95.8386 23.0707 95.4866 23.284C95.1346 23.492 94.9586 23.8493 94.9586 24.356C94.9586 24.7293 95.092 25.0493 95.3586 25.316C95.6306 25.5827 96.0626 25.716 96.6546 25.716C97.0706 25.716 97.444 25.62 97.7746 25.428C98.1106 25.2307 98.3746 24.9853 98.5666 24.692C98.764 24.3987 98.8626 24.1053 98.8626 23.812H99.1666C99.1666 24.324 99.0546 24.7987 98.8306 25.236C98.612 25.6733 98.2973 26.0253 97.8866 26.292C97.476 26.5587 96.9853 26.692 96.4146 26.692ZM108.699 26.5V22.004C108.699 21.2733 108.523 20.7187 108.171 20.34C107.824 19.956 107.35 19.764 106.747 19.764C106.288 19.764 105.891 19.8893 105.555 20.14C105.219 20.3907 104.96 20.7507 104.779 21.22C104.598 21.684 104.507 22.2387 104.507 22.884H104.027C104.027 21.9933 104.144 21.2333 104.379 20.604C104.614 19.9747 104.955 19.4947 105.403 19.164C105.856 18.828 106.406 18.66 107.051 18.66C107.654 18.66 108.168 18.796 108.595 19.068C109.027 19.3347 109.358 19.7187 109.587 20.22C109.816 20.7213 109.931 21.316 109.931 22.004V26.5H108.699ZM103.259 26.5V18.852H104.331L104.507 20.612V26.5H103.259ZM115.427 26.692C115.011 26.692 114.638 26.612 114.307 26.452C113.977 26.292 113.715 26.052 113.523 25.732C113.331 25.412 113.235 25.012 113.235 24.532V16.724H114.467V24.5C114.467 25.2893 114.835 25.684 115.571 25.684C115.79 25.684 116.001 25.66 116.203 25.612C116.411 25.564 116.643 25.492 116.899 25.396L117.075 26.292C116.803 26.4093 116.531 26.5053 116.259 26.58C115.993 26.6547 115.715 26.692 115.427 26.692ZM112.003 19.716V18.852H116.883V19.716H112.003ZM125.56 26.692C125.144 26.692 124.771 26.612 124.44 26.452C124.109 26.292 123.848 26.052 123.656 25.732C123.464 25.412 123.368 25.012 123.368 24.532V16.724H124.6V24.5C124.6 25.2893 124.968 25.684 125.704 25.684C125.923 25.684 126.133 25.66 126.336 25.612C126.544 25.564 126.776 25.492 127.032 25.396L127.208 26.292C126.936 26.4093 126.664 26.5053 126.392 26.58C126.125 26.6547 125.848 26.692 125.56 26.692ZM122.136 19.716V18.852H127.016V19.716H122.136ZM132.152 26.692C131.464 26.692 130.85 26.54 130.312 26.236C129.778 25.932 129.357 25.4813 129.048 24.884C128.738 24.2867 128.584 23.5507 128.584 22.676C128.584 21.796 128.738 21.06 129.048 20.468C129.357 19.8707 129.778 19.42 130.312 19.116C130.85 18.812 131.464 18.66 132.152 18.66C132.834 18.66 133.442 18.812 133.976 19.116C134.514 19.42 134.936 19.8707 135.24 20.468C135.549 21.06 135.704 21.796 135.704 22.676C135.704 23.5507 135.549 24.2867 135.24 24.884C134.936 25.4813 134.514 25.932 133.976 26.236C133.442 26.54 132.834 26.692 132.152 26.692ZM132.12 25.604C132.616 25.604 133.037 25.4867 133.384 25.252C133.73 25.012 133.992 24.6733 134.168 24.236C134.349 23.7987 134.44 23.2787 134.44 22.676C134.44 21.764 134.25 21.0467 133.872 20.524C133.493 19.996 132.93 19.732 132.184 19.732C131.682 19.732 131.258 19.852 130.912 20.092C130.57 20.3267 130.309 20.6653 130.128 21.108C129.952 21.5453 129.864 22.068 129.864 22.676C129.864 23.5773 130.053 24.292 130.432 24.82C130.816 25.3427 131.378 25.604 132.12 25.604ZM145.002 26.692C144.261 26.692 143.642 26.588 143.146 26.38C142.65 26.1667 142.274 25.876 142.018 25.508C141.762 25.1347 141.626 24.708 141.61 24.228H142.81C142.837 24.7133 143.032 25.0787 143.394 25.324C143.762 25.564 144.261 25.684 144.89 25.684C145.221 25.684 145.525 25.6307 145.802 25.524C146.08 25.4173 146.301 25.2707 146.466 25.084C146.632 24.8973 146.714 24.6867 146.714 24.452C146.714 24.1533 146.605 23.9187 146.386 23.748C146.168 23.5773 145.818 23.428 145.338 23.3L143.85 22.82C143.205 22.6173 142.709 22.34 142.362 21.988C142.021 21.6307 141.85 21.204 141.85 20.708C141.85 20.0893 142.122 19.5933 142.666 19.22C143.21 18.8467 143.925 18.66 144.81 18.66C145.749 18.66 146.477 18.852 146.994 19.236C147.512 19.62 147.781 20.1 147.802 20.676H146.57C146.522 20.34 146.352 20.0867 146.058 19.916C145.765 19.74 145.349 19.652 144.81 19.652C144.293 19.652 143.888 19.7693 143.594 20.004C143.306 20.2333 143.162 20.4893 143.162 20.772C143.162 21.3 143.616 21.6893 144.522 21.94L146.042 22.452C146.698 22.6493 147.2 22.908 147.546 23.228C147.898 23.548 148.074 23.956 148.074 24.452C148.074 24.836 147.949 25.1987 147.698 25.54C147.448 25.8813 147.093 26.1587 146.634 26.372C146.176 26.5853 145.632 26.692 145.002 26.692ZM155.553 26.5L155.393 24.82V21.54C155.393 20.852 155.246 20.3587 154.953 20.06C154.659 19.756 154.219 19.604 153.633 19.604C153.302 19.604 153.001 19.652 152.729 19.748C152.462 19.844 152.249 19.9933 152.089 20.196C151.934 20.3933 151.857 20.6493 151.857 20.964H150.465C150.465 20.4093 150.601 19.964 150.873 19.628C151.145 19.2867 151.518 19.0413 151.993 18.892C152.473 18.7373 153.019 18.66 153.633 18.66C154.219 18.66 154.739 18.7587 155.193 18.956C155.646 19.1533 156.001 19.468 156.257 19.9C156.513 20.3267 156.641 20.884 156.641 21.572V26.5H155.553ZM152.945 26.692C152.315 26.692 151.795 26.58 151.385 26.356C150.974 26.132 150.667 25.8413 150.465 25.484C150.262 25.1267 150.161 24.7507 150.161 24.356C150.161 23.8387 150.289 23.4173 150.545 23.092C150.806 22.7667 151.161 22.5293 151.609 22.38C152.057 22.2253 152.561 22.148 153.121 22.148C153.521 22.148 153.921 22.188 154.321 22.268C154.726 22.348 155.121 22.4573 155.505 22.596V23.38C155.185 23.252 154.822 23.1507 154.417 23.076C154.017 23.0013 153.649 22.964 153.313 22.964C152.801 22.964 152.369 23.0707 152.017 23.284C151.665 23.492 151.489 23.8493 151.489 24.356C151.489 24.7293 151.622 25.0493 151.889 25.316C152.161 25.5827 152.593 25.716 153.185 25.716C153.601 25.716 153.974 25.62 154.305 25.428C154.641 25.2307 154.905 24.9853 155.097 24.692C155.294 24.3987 155.393 24.1053 155.393 23.812H155.697C155.697 24.324 155.585 24.7987 155.361 25.236C155.142 25.6733 154.827 26.0253 154.417 26.292C154.006 26.5587 153.515 26.692 152.945 26.692ZM158.461 18.852H159.885L162.285 25.428H162.109L164.509 18.852H165.933L162.877 26.5H161.517L158.461 18.852ZM170.652 26.692C169.991 26.692 169.399 26.524 168.876 26.188C168.359 25.8467 167.948 25.3747 167.644 24.772C167.345 24.1693 167.196 23.476 167.196 22.692C167.196 21.8547 167.345 21.1347 167.644 20.532C167.943 19.9293 168.351 19.468 168.868 19.148C169.391 18.8227 169.985 18.66 170.652 18.66C171.233 18.66 171.729 18.7773 172.14 19.012C172.551 19.2467 172.881 19.564 173.132 19.964C173.383 20.364 173.556 20.8173 173.652 21.324C173.753 21.8253 173.783 22.3453 173.74 22.884H168.204V22.116H172.916L172.548 22.356C172.564 22.0413 172.545 21.7267 172.492 21.412C172.444 21.0973 172.351 20.8093 172.212 20.548C172.073 20.2813 171.879 20.068 171.628 19.908C171.377 19.748 171.057 19.668 170.668 19.668C170.177 19.668 169.767 19.7933 169.436 20.044C169.105 20.2947 168.857 20.6253 168.692 21.036C168.527 21.4413 168.444 21.8813 168.444 22.356V22.868C168.444 23.4013 168.524 23.8787 168.684 24.3C168.849 24.7213 169.095 25.0547 169.42 25.3C169.745 25.5453 170.156 25.668 170.652 25.668C171.148 25.668 171.556 25.548 171.876 25.308C172.196 25.068 172.391 24.7133 172.46 24.244H173.756C173.676 24.7507 173.495 25.188 173.212 25.556C172.929 25.9187 172.569 26.1987 172.132 26.396C171.695 26.5933 171.201 26.692 170.652 26.692ZM182.684 26.692C182.268 26.692 181.894 26.612 181.564 26.452C181.233 26.292 180.972 26.052 180.78 25.732C180.588 25.412 180.492 25.012 180.492 24.532V16.724H181.724V24.5C181.724 25.2893 182.092 25.684 182.828 25.684C183.046 25.684 183.257 25.66 183.46 25.612C183.668 25.564 183.9 25.492 184.156 25.396L184.332 26.292C184.06 26.4093 183.788 26.5053 183.516 26.58C183.249 26.6547 182.972 26.692 182.684 26.692ZM179.26 19.716V18.852H184.14V19.716H179.26ZM191.947 26.5V22.004C191.947 21.2733 191.771 20.7187 191.419 20.34C191.073 19.956 190.598 19.764 189.995 19.764C189.537 19.764 189.139 19.8893 188.803 20.14C188.467 20.3907 188.209 20.7507 188.027 21.22C187.846 21.684 187.755 22.2387 187.755 22.884H187.275C187.275 21.9933 187.393 21.2333 187.627 20.604C187.862 19.9747 188.203 19.4947 188.651 19.164C189.105 18.828 189.654 18.66 190.299 18.66C190.902 18.66 191.417 18.796 191.843 19.068C192.275 19.3347 192.606 19.7187 192.835 20.22C193.065 20.7213 193.179 21.316 193.179 22.004V26.5H191.947ZM186.507 26.5V15.588H187.755V26.5H186.507ZM198.98 26.692C198.318 26.692 197.726 26.524 197.204 26.188C196.686 25.8467 196.276 25.3747 195.972 24.772C195.673 24.1693 195.524 23.476 195.524 22.692C195.524 21.8547 195.673 21.1347 195.972 20.532C196.27 19.9293 196.678 19.468 197.196 19.148C197.718 18.8227 198.313 18.66 198.98 18.66C199.561 18.66 200.057 18.7773 200.468 19.012C200.878 19.2467 201.209 19.564 201.46 19.964C201.71 20.364 201.884 20.8173 201.98 21.324C202.081 21.8253 202.11 22.3453 202.068 22.884H196.532V22.116H201.244L200.876 22.356C200.892 22.0413 200.873 21.7267 200.82 21.412C200.772 21.0973 200.678 20.8093 200.54 20.548C200.401 20.2813 200.206 20.068 199.956 19.908C199.705 19.748 199.385 19.668 198.996 19.668C198.505 19.668 198.094 19.7933 197.764 20.044C197.433 20.2947 197.185 20.6253 197.02 21.036C196.854 21.4413 196.772 21.8813 196.772 22.356V22.868C196.772 23.4013 196.852 23.8787 197.012 24.3C197.177 24.7213 197.422 25.0547 197.748 25.3C198.073 25.5453 198.484 25.668 198.98 25.668C199.476 25.668 199.884 25.548 200.204 25.308C200.524 25.068 200.718 24.7133 200.788 24.244H202.084C202.004 24.7507 201.822 25.188 201.54 25.556C201.257 25.9187 200.897 26.1987 200.46 26.396C200.022 26.5933 199.529 26.692 198.98 26.692ZM32.088 46.692C31.528 46.692 31.04 46.564 30.624 46.308C30.2133 46.052 29.896 45.6787 29.672 45.188C29.448 44.692 29.336 44.0893 29.336 43.38H29.864C29.864 43.8547 29.9627 44.2547 30.16 44.58C30.3573 44.9053 30.6133 45.1533 30.928 45.324C31.248 45.4893 31.5867 45.572 31.944 45.572C32.328 45.572 32.696 45.4627 33.048 45.244C33.4 45.02 33.688 44.692 33.912 44.26C34.136 43.828 34.248 43.2947 34.248 42.66C34.248 42.052 34.144 41.532 33.936 41.1C33.7333 40.668 33.4587 40.3373 33.112 40.108C32.7653 39.8787 32.3813 39.764 31.96 39.764C31.5973 39.764 31.256 39.852 30.936 40.028C30.616 40.204 30.3573 40.4627 30.16 40.804C29.9627 41.14 29.864 41.556 29.864 42.052H29.336C29.336 41.3107 29.4587 40.6893 29.704 40.188C29.9493 39.6813 30.2827 39.3 30.704 39.044C31.1253 38.788 31.5973 38.66 32.12 38.66C32.7173 38.66 33.2747 38.82 33.792 39.14C34.3093 39.46 34.728 39.9187 35.048 40.516C35.368 41.1133 35.528 41.828 35.528 42.66C35.528 43.5027 35.3653 44.2253 35.04 44.828C34.72 45.4307 34.2987 45.892 33.776 46.212C33.2533 46.532 32.6907 46.692 32.088 46.692ZM28.616 50.26V38.852H29.656L29.864 40.644V50.26H28.616ZM42.8714 46.5L42.7114 44.82V41.54C42.7114 40.852 42.5647 40.3587 42.2714 40.06C41.978 39.756 41.538 39.604 40.9514 39.604C40.6207 39.604 40.3194 39.652 40.0474 39.748C39.7807 39.844 39.5674 39.9933 39.4074 40.196C39.2527 40.3933 39.1754 40.6493 39.1754 40.964H37.7834C37.7834 40.4093 37.9194 39.964 38.1914 39.628C38.4634 39.2867 38.8367 39.0413 39.3114 38.892C39.7914 38.7373 40.338 38.66 40.9514 38.66C41.538 38.66 42.058 38.7587 42.5114 38.956C42.9647 39.1533 43.3194 39.468 43.5754 39.9C43.8314 40.3267 43.9594 40.884 43.9594 41.572V46.5H42.8714ZM40.2634 46.692C39.634 46.692 39.114 46.58 38.7034 46.356C38.2927 46.132 37.986 45.8413 37.7834 45.484C37.5807 45.1267 37.4794 44.7507 37.4794 44.356C37.4794 43.8387 37.6074 43.4173 37.8634 43.092C38.1247 42.7667 38.4794 42.5293 38.9274 42.38C39.3754 42.2253 39.8794 42.148 40.4394 42.148C40.8394 42.148 41.2394 42.188 41.6394 42.268C42.0447 42.348 42.4394 42.4573 42.8234 42.596V43.38C42.5034 43.252 42.1407 43.1507 41.7354 43.076C41.3354 43.0013 40.9674 42.964 40.6314 42.964C40.1194 42.964 39.6874 43.0707 39.3354 43.284C38.9834 43.492 38.8074 43.8493 38.8074 44.356C38.8074 44.7293 38.9407 45.0493 39.2074 45.316C39.4794 45.5827 39.9114 45.716 40.5034 45.716C40.9194 45.716 41.2927 45.62 41.6234 45.428C41.9594 45.2307 42.2234 44.9853 42.4154 44.692C42.6127 44.3987 42.7114 44.1053 42.7114 43.812H43.0154C43.0154 44.324 42.9034 44.7987 42.6794 45.236C42.4607 45.6733 42.146 46.0253 41.7354 46.292C41.3247 46.5587 40.834 46.692 40.2634 46.692ZM49.8119 50.436C49.0279 50.436 48.3479 50.324 47.7719 50.1C47.1959 49.8813 46.7479 49.5853 46.4279 49.212C46.1132 48.844 45.9559 48.436 45.9559 47.988C45.9559 47.396 46.1719 46.9427 46.6039 46.628C47.0412 46.3187 47.6039 46.164 48.2919 46.164L48.9799 46.596C48.4039 46.596 47.9585 46.716 47.6439 46.956C47.3292 47.196 47.1719 47.524 47.1719 47.94C47.1719 48.356 47.3959 48.708 47.8439 48.996C48.2919 49.284 48.9479 49.428 49.8119 49.428C50.4519 49.428 51.0119 49.3347 51.4919 49.148C51.9772 48.9667 52.3532 48.7267 52.6199 48.428C52.8919 48.1347 53.0279 47.8173 53.0279 47.476C53.0279 47.236 52.9399 47.028 52.7639 46.852C52.5879 46.6813 52.3185 46.596 51.9559 46.596H48.9799C48.4625 46.596 48.0145 46.5187 47.6359 46.364C47.2625 46.204 46.9745 45.996 46.7719 45.74C46.5692 45.484 46.4679 45.204 46.4679 44.9C46.4679 44.58 46.5585 44.308 46.7399 44.084C46.9212 43.86 47.1559 43.6893 47.4439 43.572C47.7372 43.4547 48.0519 43.396 48.3879 43.396L48.6279 43.86C48.4679 43.86 48.3052 43.8973 48.1399 43.972C47.9799 44.0413 47.8439 44.148 47.7319 44.292C47.6252 44.4307 47.5719 44.6067 47.5719 44.82C47.5719 45.0653 47.6732 45.2707 47.8759 45.436C48.0785 45.6013 48.4465 45.684 48.9799 45.684H51.9559C52.6759 45.684 53.2412 45.836 53.6519 46.14C54.0679 46.444 54.2759 46.868 54.2759 47.412C54.2759 47.9133 54.0972 48.3933 53.7399 48.852C53.3825 49.316 52.8705 49.6947 52.2039 49.988C51.5372 50.2867 50.7399 50.436 49.8119 50.436ZM50.0359 44.26C49.4492 44.26 48.9185 44.1427 48.4439 43.908C47.9745 43.6733 47.6012 43.3453 47.3239 42.924C47.0519 42.5027 46.9159 42.0147 46.9159 41.46C46.9159 40.9 47.0519 40.4093 47.3239 39.988C47.6012 39.5667 47.9745 39.2413 48.4439 39.012C48.9185 38.7773 49.4492 38.66 50.0359 38.66C50.6065 38.66 51.1239 38.7773 51.5879 39.012C52.0572 39.2413 52.4305 39.5667 52.7079 39.988C52.9852 40.4093 53.1239 40.9 53.1239 41.46C53.1239 42.0147 52.9852 42.5027 52.7079 42.924C52.4305 43.3453 52.0572 43.6733 51.5879 43.908C51.1239 44.1427 50.6065 44.26 50.0359 44.26ZM50.0359 43.364C50.6225 43.364 51.0785 43.1827 51.4039 42.82C51.7292 42.4573 51.8919 42.004 51.8919 41.46C51.8919 40.9 51.7292 40.4467 51.4039 40.1C51.0785 39.748 50.6225 39.572 50.0359 39.572C49.4545 39.572 48.9959 39.748 48.6599 40.1C48.3292 40.4467 48.1639 40.9 48.1639 41.46C48.1639 42.004 48.3292 42.4573 48.6599 42.82C48.9959 43.1827 49.4545 43.364 50.0359 43.364ZM52.5479 39.876L51.9559 39.636C51.9559 39.188 52.0439 38.796 52.2199 38.46C52.3959 38.1187 52.6465 37.8547 52.9719 37.668C53.2972 37.476 53.6839 37.38 54.1319 37.38L54.0359 38.612C53.5559 38.612 53.1879 38.716 52.9319 38.924C52.6759 39.1267 52.5479 39.444 52.5479 39.876ZM58.9551 46.692C58.2938 46.692 57.7018 46.524 57.1791 46.188C56.6618 45.8467 56.2511 45.3747 55.9471 44.772C55.6485 44.1693 55.4991 43.476 55.4991 42.692C55.4991 41.8547 55.6485 41.1347 55.9471 40.532C56.2458 39.9293 56.6538 39.468 57.1711 39.148C57.6938 38.8227 58.2885 38.66 58.9551 38.66C59.5365 38.66 60.0325 38.7773 60.4431 39.012C60.8538 39.2467 61.1845 39.564 61.4351 39.964C61.6858 40.364 61.8591 40.8173 61.9551 41.324C62.0565 41.8253 62.0858 42.3453 62.0431 42.884H56.5071V42.116H61.2191L60.8511 42.356C60.8671 42.0413 60.8485 41.7267 60.7951 41.412C60.7471 41.0973 60.6538 40.8093 60.5151 40.548C60.3765 40.2813 60.1818 40.068 59.9311 39.908C59.6805 39.748 59.3605 39.668 58.9711 39.668C58.4805 39.668 58.0698 39.7933 57.7391 40.044C57.4085 40.2947 57.1605 40.6253 56.9951 41.036C56.8298 41.4413 56.7471 41.8813 56.7471 42.356V42.868C56.7471 43.4013 56.8271 43.8787 56.9871 44.3C57.1525 44.7213 57.3978 45.0547 57.7231 45.3C58.0485 45.5453 58.4591 45.668 58.9551 45.668C59.4511 45.668 59.8591 45.548 60.1791 45.308C60.4991 45.068 60.6938 44.7133 60.7631 44.244H62.0591C61.9791 44.7507 61.7978 45.188 61.5151 45.556C61.2325 45.9187 60.8725 46.1987 60.4351 46.396C59.9978 46.5933 59.5045 46.692 58.9551 46.692ZM67.3067 38.852H68.6027L70.5547 45.236H70.3947L72.2987 39.22H73.3387L75.2267 45.252H75.0827L77.0347 38.852H78.2828L75.7708 46.5H74.5547L72.6987 40.852H72.8907L71.0507 46.5H69.8347L67.3067 38.852ZM81.0925 37.044C80.8365 37.044 80.6338 36.972 80.4845 36.828C80.3352 36.6787 80.2605 36.484 80.2605 36.244C80.2605 36.0093 80.3352 35.8227 80.4845 35.684C80.6338 35.5453 80.8365 35.476 81.0925 35.476C81.3485 35.476 81.5512 35.5453 81.7005 35.684C81.8498 35.8227 81.9245 36.0093 81.9245 36.244C81.9245 36.484 81.8498 36.6787 81.7005 36.828C81.5512 36.972 81.3485 37.044 81.0925 37.044ZM80.4685 46.5V38.836H81.7165V46.5H80.4685ZM87.6661 46.692C87.2501 46.692 86.8768 46.612 86.5461 46.452C86.2155 46.292 85.9541 46.052 85.7621 45.732C85.5701 45.412 85.4741 45.012 85.4741 44.532V36.724H86.7061V44.5C86.7061 45.2893 87.0741 45.684 87.8101 45.684C88.0288 45.684 88.2395 45.66 88.4421 45.612C88.6501 45.564 88.8821 45.492 89.1381 45.396L89.3141 46.292C89.0421 46.4093 88.7701 46.5053 88.4981 46.58C88.2315 46.6547 87.9541 46.692 87.6661 46.692ZM84.2421 39.716V38.852H89.1221V39.716H84.2421ZM96.9297 46.5V42.004C96.9297 41.2733 96.7537 40.7187 96.4017 40.34C96.0551 39.956 95.5804 39.764 94.9777 39.764C94.5191 39.764 94.1217 39.8893 93.7857 40.14C93.4497 40.3907 93.1911 40.7507 93.0097 41.22C92.8284 41.684 92.7377 42.2387 92.7377 42.884H92.2577C92.2577 41.9933 92.3751 41.2333 92.6097 40.604C92.8444 39.9747 93.1857 39.4947 93.6337 39.164C94.0871 38.828 94.6364 38.66 95.2817 38.66C95.8844 38.66 96.3991 38.796 96.8257 39.068C97.2577 39.3347 97.5884 39.7187 97.8177 40.22C98.0471 40.7213 98.1617 41.316 98.1617 42.004V46.5H96.9297ZM91.4897 46.5V35.588H92.7377V46.5H91.4897ZM109.999 46.5L109.839 44.82V41.54C109.839 40.852 109.692 40.3587 109.399 40.06C109.106 39.756 108.666 39.604 108.079 39.604C107.748 39.604 107.447 39.652 107.175 39.748C106.908 39.844 106.695 39.9933 106.535 40.196C106.38 40.3933 106.303 40.6493 106.303 40.964H104.911C104.911 40.4093 105.047 39.964 105.319 39.628C105.591 39.2867 105.964 39.0413 106.439 38.892C106.919 38.7373 107.466 38.66 108.079 38.66C108.666 38.66 109.186 38.7587 109.639 38.956C110.092 39.1533 110.447 39.468 110.703 39.9C110.959 40.3267 111.087 40.884 111.087 41.572V46.5H109.999ZM107.391 46.692C106.762 46.692 106.242 46.58 105.831 46.356C105.42 46.132 105.114 45.8413 104.911 45.484C104.708 45.1267 104.607 44.7507 104.607 44.356C104.607 43.8387 104.735 43.4173 104.991 43.092C105.252 42.7667 105.607 42.5293 106.055 42.38C106.503 42.2253 107.007 42.148 107.567 42.148C107.967 42.148 108.367 42.188 108.767 42.268C109.172 42.348 109.567 42.4573 109.951 42.596V43.38C109.631 43.252 109.268 43.1507 108.863 43.076C108.463 43.0013 108.095 42.964 107.759 42.964C107.247 42.964 106.815 43.0707 106.463 43.284C106.111 43.492 105.935 43.8493 105.935 44.356C105.935 44.7293 106.068 45.0493 106.335 45.316C106.607 45.5827 107.039 45.716 107.631 45.716C108.047 45.716 108.42 45.62 108.751 45.428C109.087 45.2307 109.351 44.9853 109.543 44.692C109.74 44.3987 109.839 44.1053 109.839 43.812H110.143C110.143 44.324 110.031 44.7987 109.807 45.236C109.588 45.6733 109.274 46.0253 108.863 46.292C108.452 46.5587 107.962 46.692 107.391 46.692ZM120.88 46.692C120.267 46.692 119.694 46.5267 119.16 46.196C118.632 45.8653 118.206 45.3987 117.88 44.796C117.555 44.1933 117.392 43.4813 117.392 42.66C117.392 41.8173 117.555 41.0973 117.88 40.5C118.206 39.9027 118.632 39.4467 119.16 39.132C119.694 38.8173 120.267 38.66 120.88 38.66C121.312 38.66 121.699 38.7267 122.04 38.86C122.387 38.988 122.688 39.1667 122.944 39.396C123.2 39.6253 123.411 39.8867 123.576 40.18C123.747 40.468 123.872 40.772 123.952 41.092L122.672 41.204C122.539 40.7613 122.315 40.412 122 40.156C121.691 39.8947 121.312 39.764 120.864 39.764C120.486 39.764 120.128 39.8733 119.792 40.092C119.462 40.3053 119.192 40.628 118.984 41.06C118.776 41.4867 118.672 42.02 118.672 42.66C118.672 43.252 118.766 43.7667 118.952 44.204C119.144 44.636 119.406 44.972 119.736 45.212C120.067 45.452 120.443 45.572 120.864 45.572C121.456 45.572 121.904 45.428 122.208 45.14C122.518 44.8467 122.672 44.4413 122.672 43.924H123.952C123.952 44.4573 123.827 44.932 123.576 45.348C123.326 45.764 122.968 46.092 122.504 46.332C122.046 46.572 121.504 46.692 120.88 46.692ZM131.802 38.836H133.05V46.5H131.802V38.836ZM126.378 38.836H127.626V43.604C127.626 44.244 127.781 44.7293 128.09 45.06C128.405 45.3907 128.853 45.556 129.434 45.556C129.914 45.556 130.33 45.428 130.682 45.172C131.04 44.916 131.314 44.564 131.506 44.116C131.704 43.6627 131.802 43.1453 131.802 42.564H132.266C132.266 43.4227 132.141 44.156 131.89 44.764C131.645 45.372 131.296 45.8387 130.842 46.164C130.394 46.484 129.866 46.644 129.258 46.644C128.682 46.644 128.178 46.5373 127.746 46.324C127.314 46.1107 126.978 45.788 126.738 45.356C126.498 44.9187 126.378 44.3667 126.378 43.7V38.836ZM139.202 46.692C138.46 46.692 137.842 46.588 137.346 46.38C136.85 46.1667 136.474 45.876 136.218 45.508C135.962 45.1347 135.826 44.708 135.81 44.228H137.01C137.036 44.7133 137.231 45.0787 137.594 45.324C137.962 45.564 138.46 45.684 139.09 45.684C139.42 45.684 139.724 45.6307 140.002 45.524C140.279 45.4173 140.5 45.2707 140.666 45.084C140.831 44.8973 140.914 44.6867 140.914 44.452C140.914 44.1533 140.804 43.9187 140.586 43.748C140.367 43.5773 140.018 43.428 139.538 43.3L138.05 42.82C137.404 42.6173 136.908 42.34 136.562 41.988C136.22 41.6307 136.05 41.204 136.05 40.708C136.05 40.0893 136.322 39.5933 136.866 39.22C137.41 38.8467 138.124 38.66 139.01 38.66C139.948 38.66 140.676 38.852 141.194 39.236C141.711 39.62 141.98 40.1 142.002 40.676H140.77C140.722 40.34 140.551 40.0867 140.258 39.916C139.964 39.74 139.548 39.652 139.01 39.652C138.492 39.652 138.087 39.7693 137.794 40.004C137.506 40.2333 137.362 40.4893 137.362 40.772C137.362 41.3 137.815 41.6893 138.722 41.94L140.242 42.452C140.898 42.6493 141.399 42.908 141.746 43.228C142.098 43.548 142.274 43.956 142.274 44.452C142.274 44.836 142.148 45.1987 141.898 45.54C141.647 45.8813 141.292 46.1587 140.834 46.372C140.375 46.5853 139.831 46.692 139.202 46.692ZM147.368 46.692C146.952 46.692 146.579 46.612 146.248 46.452C145.917 46.292 145.656 46.052 145.464 45.732C145.272 45.412 145.176 45.012 145.176 44.532V36.724H146.408V44.5C146.408 45.2893 146.776 45.684 147.512 45.684C147.731 45.684 147.941 45.66 148.144 45.612C148.352 45.564 148.584 45.492 148.84 45.396L149.016 46.292C148.744 46.4093 148.472 46.5053 148.2 46.58C147.933 46.6547 147.656 46.692 147.368 46.692ZM143.944 39.716V38.852H148.824V39.716H143.944ZM153.96 46.692C153.272 46.692 152.658 46.54 152.12 46.236C151.586 45.932 151.165 45.4813 150.856 44.884C150.546 44.2867 150.392 43.5507 150.392 42.676C150.392 41.796 150.546 41.06 150.856 40.468C151.165 39.8707 151.586 39.42 152.12 39.116C152.658 38.812 153.272 38.66 153.96 38.66C154.642 38.66 155.25 38.812 155.784 39.116C156.322 39.42 156.744 39.8707 157.048 40.468C157.357 41.06 157.512 41.796 157.512 42.676C157.512 43.5507 157.357 44.2867 157.048 44.884C156.744 45.4813 156.322 45.932 155.784 46.236C155.25 46.54 154.642 46.692 153.96 46.692ZM153.928 45.604C154.424 45.604 154.845 45.4867 155.192 45.252C155.538 45.012 155.8 44.6733 155.976 44.236C156.157 43.7987 156.248 43.2787 156.248 42.676C156.248 41.764 156.058 41.0467 155.68 40.524C155.301 39.996 154.738 39.732 153.992 39.732C153.49 39.732 153.066 39.852 152.72 40.092C152.378 40.3267 152.117 40.6653 151.936 41.108C151.76 41.5453 151.672 42.068 151.672 42.676C151.672 43.5773 151.861 44.292 152.24 44.82C152.624 45.3427 153.186 45.604 153.928 45.604ZM170.854 46.5V42.004C170.854 41.2733 170.678 40.7187 170.326 40.34C169.979 39.956 169.51 39.764 168.918 39.764C168.224 39.764 167.694 40.0333 167.326 40.572C166.958 41.1053 166.774 41.844 166.774 42.788H166.198C166.198 42.1 166.264 41.4973 166.398 40.98C166.536 40.4627 166.736 40.0333 166.998 39.692C167.259 39.3453 167.576 39.0867 167.95 38.916C168.323 38.7453 168.747 38.66 169.222 38.66C169.824 38.66 170.339 38.796 170.766 39.068C171.198 39.3347 171.528 39.7187 171.758 40.22C171.987 40.7213 172.102 41.316 172.102 42.004V46.5H170.854ZM160.102 46.5V38.852H161.174L161.318 40.388C161.558 39.8333 161.894 39.4067 162.326 39.108C162.763 38.8093 163.286 38.66 163.894 38.66C164.496 38.66 165.011 38.796 165.438 39.068C165.87 39.3347 166.2 39.7187 166.43 40.22C166.659 40.7213 166.774 41.316 166.774 42.004V46.5H165.542V42.004C165.542 41.2733 165.366 40.7187 165.014 40.34C164.667 39.956 164.192 39.764 163.59 39.764C163.131 39.764 162.734 39.8893 162.398 40.14C162.062 40.3907 161.803 40.7507 161.622 41.22C161.44 41.684 161.35 42.2387 161.35 42.884V46.5H160.102ZM184.627 46.5V42.004C184.627 41.2733 184.451 40.7187 184.099 40.34C183.753 39.956 183.278 39.764 182.675 39.764C182.217 39.764 181.819 39.8893 181.483 40.14C181.147 40.3907 180.889 40.7507 180.707 41.22C180.526 41.684 180.435 42.2387 180.435 42.884H179.955C179.955 41.9933 180.073 41.2333 180.307 40.604C180.542 39.9747 180.883 39.4947 181.331 39.164C181.785 38.828 182.334 38.66 182.979 38.66C183.582 38.66 184.097 38.796 184.523 39.068C184.955 39.3347 185.286 39.7187 185.515 40.22C185.745 40.7213 185.859 41.316 185.859 42.004V46.5H184.627ZM179.187 46.5V38.852H180.259L180.435 40.612V46.5H179.187ZM193.739 46.5L193.579 44.82V41.54C193.579 40.852 193.433 40.3587 193.139 40.06C192.846 39.756 192.406 39.604 191.819 39.604C191.489 39.604 191.187 39.652 190.915 39.748C190.649 39.844 190.435 39.9933 190.275 40.196C190.121 40.3933 190.043 40.6493 190.043 40.964H188.651C188.651 40.4093 188.787 39.964 189.059 39.628C189.331 39.2867 189.705 39.0413 190.179 38.892C190.659 38.7373 191.206 38.66 191.819 38.66C192.406 38.66 192.926 38.7587 193.379 38.956C193.833 39.1533 194.187 39.468 194.443 39.9C194.699 40.3267 194.827 40.884 194.827 41.572V46.5H193.739ZM191.131 46.692C190.502 46.692 189.982 46.58 189.571 46.356C189.161 46.132 188.854 45.8413 188.651 45.484C188.449 45.1267 188.347 44.7507 188.347 44.356C188.347 43.8387 188.475 43.4173 188.731 43.092C188.993 42.7667 189.347 42.5293 189.795 42.38C190.243 42.2253 190.747 42.148 191.307 42.148C191.707 42.148 192.107 42.188 192.507 42.268C192.913 42.348 193.307 42.4573 193.691 42.596V43.38C193.371 43.252 193.009 43.1507 192.603 43.076C192.203 43.0013 191.835 42.964 191.499 42.964C190.987 42.964 190.555 43.0707 190.203 43.284C189.851 43.492 189.675 43.8493 189.675 44.356C189.675 44.7293 189.809 45.0493 190.075 45.316C190.347 45.5827 190.779 45.716 191.371 45.716C191.787 45.716 192.161 45.62 192.491 45.428C192.827 45.2307 193.091 44.9853 193.283 44.692C193.481 44.3987 193.579 44.1053 193.579 43.812H193.883C193.883 44.324 193.771 44.7987 193.547 45.236C193.329 45.6733 193.014 46.0253 192.603 46.292C192.193 46.5587 191.702 46.692 191.131 46.692ZM208.728 46.5V42.004C208.728 41.2733 208.552 40.7187 208.2 40.34C207.853 39.956 207.384 39.764 206.792 39.764C206.099 39.764 205.568 40.0333 205.2 40.572C204.832 41.1053 204.648 41.844 204.648 42.788H204.072C204.072 42.1 204.139 41.4973 204.272 40.98C204.411 40.4627 204.611 40.0333 204.872 39.692C205.133 39.3453 205.451 39.0867 205.824 38.916C206.197 38.7453 206.621 38.66 207.096 38.66C207.699 38.66 208.213 38.796 208.64 39.068C209.072 39.3347 209.403 39.7187 209.632 40.22C209.861 40.7213 209.976 41.316 209.976 42.004V46.5H208.728ZM197.976 46.5V38.852H199.048L199.192 40.388C199.432 39.8333 199.768 39.4067 200.2 39.108C200.637 38.8093 201.16 38.66 201.768 38.66C202.371 38.66 202.885 38.796 203.312 39.068C203.744 39.3347 204.075 39.7187 204.304 40.22C204.533 40.7213 204.648 41.316 204.648 42.004V46.5H203.416V42.004C203.416 41.2733 203.24 40.7187 202.888 40.34C202.541 39.956 202.067 39.764 201.464 39.764C201.005 39.764 200.608 39.8893 200.272 40.14C199.936 40.3907 199.677 40.7507 199.496 41.22C199.315 41.684 199.224 42.2387 199.224 42.884V46.5H197.976ZM215.761 46.692C215.099 46.692 214.507 46.524 213.985 46.188C213.467 45.8467 213.057 45.3747 212.753 44.772C212.454 44.1693 212.305 43.476 212.305 42.692C212.305 41.8547 212.454 41.1347 212.753 40.532C213.051 39.9293 213.459 39.468 213.977 39.148C214.499 38.8227 215.094 38.66 215.761 38.66C216.342 38.66 216.838 38.7773 217.249 39.012C217.659 39.2467 217.99 39.564 218.241 39.964C218.491 40.364 218.665 40.8173 218.761 41.324C218.862 41.8253 218.891 42.3453 218.849 42.884H213.313V42.116H218.025L217.657 42.356C217.673 42.0413 217.654 41.7267 217.601 41.412C217.553 41.0973 217.459 40.8093 217.321 40.548C217.182 40.2813 216.987 40.068 216.737 39.908C216.486 39.748 216.166 39.668 215.777 39.668C215.286 39.668 214.875 39.7933 214.545 40.044C214.214 40.2947 213.966 40.6253 213.801 41.036C213.635 41.4413 213.553 41.8813 213.553 42.356V42.868C213.553 43.4013 213.633 43.8787 213.793 44.3C213.958 44.7213 214.203 45.0547 214.529 45.3C214.854 45.5453 215.265 45.668 215.761 45.668C216.257 45.668 216.665 45.548 216.985 45.308C217.305 45.068 217.499 44.7133 217.569 44.244H218.865C218.785 44.7507 218.603 45.188 218.321 45.556C218.038 45.9187 217.678 46.1987 217.241 46.396C216.803 46.5933 216.31 46.692 215.761 46.692ZM222.699 43.94V43.22C222.699 42.756 222.747 42.3747 222.843 42.076C222.945 41.7773 223.11 41.5187 223.339 41.3C223.569 41.0813 223.883 40.8627 224.283 40.644C224.641 40.452 224.926 40.2733 225.139 40.108C225.353 39.9427 225.505 39.764 225.595 39.572C225.691 39.38 225.739 39.1453 225.739 38.868C225.739 38.452 225.569 38.1053 225.227 37.828C224.891 37.5507 224.427 37.412 223.835 37.412C223.179 37.412 222.678 37.5427 222.331 37.804C221.985 38.06 221.766 38.42 221.675 38.884H220.347C220.422 38.1053 220.747 37.476 221.323 36.996C221.905 36.516 222.731 36.276 223.803 36.276C224.486 36.276 225.073 36.396 225.563 36.636C226.059 36.8707 226.438 37.188 226.699 37.588C226.966 37.9827 227.099 38.42 227.099 38.9C227.099 39.4493 226.961 39.9107 226.683 40.284C226.406 40.652 225.958 41.0013 225.339 41.332C224.982 41.5293 224.699 41.7133 224.491 41.884C224.289 42.0493 224.145 42.2413 224.059 42.46C223.974 42.6733 223.931 42.9533 223.931 43.3V43.94H222.699ZM223.339 46.692C223.073 46.692 222.851 46.6067 222.675 46.436C222.499 46.26 222.411 46.0493 222.411 45.804C222.411 45.5533 222.497 45.3373 222.667 45.156C222.843 44.9747 223.065 44.884 223.331 44.884C223.598 44.884 223.825 44.9747 224.011 45.156C224.203 45.332 224.299 45.5453 224.299 45.796C224.299 46.0413 224.206 46.252 224.019 46.428C223.833 46.604 223.606 46.692 223.339 46.692Z" fill="#4A5DC8"/>
<path d="M16.3681 62.1281L16.8221 61.237L16.3681 62.1281ZM250.128 58.6319L251.019 59.0859L250.128 58.6319ZM246.632 62.1281L247.086 63.0191L246.632 62.1281ZM246.632 0.871948L247.086 -0.0190586L246.632 0.871948ZM250.128 4.36808L249.237 4.82207L250.128 4.36808ZM16.3681 0.871948L15.9141 -0.0190586L16.3681 0.871948ZM12.8719 4.36808L11.9809 3.91409L12.8719 4.36808ZM24.8 1H238.2V-1H24.8V1ZM250 12.8V50.2H252V12.8H250ZM238.2 62H24.8V64H238.2V62ZM13 50.2V12.8H11V50.2H13ZM24.8 62C22.5433 62 20.9109 61.9992 19.627 61.8943C18.3549 61.7904 17.5132 61.5892 16.8221 61.237L15.9141 63.0191C16.9342 63.5388 18.0683 63.7736 19.4642 63.8877C20.8484 64.0008 22.5763 64 24.8 64V62ZM11 50.2C11 52.4237 10.9992 54.1516 11.1123 55.5358C11.2264 56.9317 11.4612 58.0658 11.9809 59.0859L13.763 58.1779C13.4108 57.4868 13.2096 56.6451 13.1057 55.373C13.0008 54.0891 13 52.4567 13 50.2H11ZM16.8221 61.237C15.5049 60.5659 14.4341 59.4951 13.763 58.1779L11.9809 59.0859C12.8438 60.7794 14.2206 62.1562 15.9141 63.0191L16.8221 61.237ZM250 50.2C250 52.4567 249.999 54.0891 249.894 55.373C249.79 56.6451 249.589 57.4868 249.237 58.1779L251.019 59.0859C251.539 58.0658 251.774 56.9317 251.888 55.5358C252.001 54.1516 252 52.4237 252 50.2H250ZM238.2 64C240.424 64 242.152 64.0008 243.536 63.8877C244.932 63.7736 246.066 63.5388 247.086 63.0191L246.178 61.237C245.487 61.5892 244.645 61.7904 243.373 61.8943C242.089 61.9992 240.457 62 238.2 62V64ZM249.237 58.1779C248.566 59.4951 247.495 60.5659 246.178 61.237L247.086 63.0191C248.779 62.1562 250.156 60.7794 251.019 59.0859L249.237 58.1779ZM238.2 1C240.457 1 242.089 1.00078 243.373 1.10567C244.645 1.20961 245.487 1.41078 246.178 1.76295L247.086 -0.0190586C246.066 -0.538833 244.932 -0.773639 243.536 -0.887685C242.152 -1.00078 240.424 -1 238.2 -1V1ZM252 12.8C252 10.5763 252.001 8.84837 251.888 7.46418C251.774 6.06833 251.539 4.9342 251.019 3.91409L249.237 4.82207C249.589 5.51325 249.79 6.35487 249.894 7.62705C249.999 8.9109 250 10.5433 250 12.8H252ZM246.178 1.76295C247.495 2.43407 248.566 3.50493 249.237 4.82207L251.019 3.91409C250.156 2.22063 248.779 0.843802 247.086 -0.0190586L246.178 1.76295ZM24.8 -1C22.5763 -1 20.8484 -1.00078 19.4642 -0.887685C18.0683 -0.773639 16.9342 -0.538833 15.9141 -0.0190586L16.8221 1.76295C17.5132 1.41078 18.3549 1.20961 19.627 1.10567C20.9109 1.00078 22.5433 1 24.8 1V-1ZM13 12.8C13 10.5433 13.0008 8.9109 13.1057 7.62705C13.2096 6.35487 13.4108 5.51325 13.763 4.82207L11.9809 3.91409C11.4612 4.9342 11.2264 6.06833 11.1123 7.46418C10.9992 8.84837 11 10.5763 11 12.8H13ZM15.9141 -0.0190586C14.2206 0.843802 12.8438 2.22063 11.9809 3.91409L13.763 4.82207C14.4341 3.50493 15.5049 2.43407 16.8221 1.76295L15.9141 -0.0190586Z" fill="#4A5DC8"/>
<path d="M3.249 33.6625L14 44L14 19L3.249 29.3375C2.02143 30.5179 2.02144 32.4821 3.249 33.6625Z" fill="#F1F3FF"/>
<path d="M12.0227 42.012L3.44337 34.0135L4.39806 32.9895L12.9773 40.988L12.0227 42.012ZM3.52018 28.5313L12.0372 21.0256L12.9628 22.0759L4.4458 29.5816L3.52018 28.5313ZM3.44337 34.0135C1.84402 32.5224 1.87968 29.977 3.52018 28.5313L4.4458 29.5816C3.42603 30.4803 3.40387 32.0626 4.39806 32.9895L3.44337 34.0135Z" fill="#4A5DC8"/>
</svg>
