<svg width="256" height="88" viewBox="0 0 256 88" fill="none" xmlns="http://www.w3.org/2000/svg">
<mask id="path-1-inside-1_7049_5846" fill="white">
<path d="M254.724 27.3678L245 19.001L245 11.001C245 6.03041 240.971 2.00098 236 2.00097L15 2.00096C10.0294 2.00096 5.99997 6.03039 5.99997 11.001L5.99997 49.001C5.99997 53.9715 10.0294 58.001 15 58.001L236 58.001C240.971 58.001 245 53.9715 245 49.001L245 39.501L254.612 32.0079C256.106 30.8434 256.16 28.6032 254.724 27.3678Z"/>
</mask>
<path d="M254.724 27.3678L245 19.001L245 11.001C245 6.03041 240.971 2.00098 236 2.00097L15 2.00096C10.0294 2.00096 5.99997 6.03039 5.99997 11.001L5.99997 49.001C5.99997 53.9715 10.0294 58.001 15 58.001L236 58.001C240.971 58.001 245 53.9715 245 49.001L245 39.501L254.612 32.0079C256.106 30.8434 256.16 28.6032 254.724 27.3678Z" fill="white"/>
<path d="M245 19.001L243.6 19.001L243.6 19.6433L244.087 20.0622L245 19.001ZM254.724 27.3678L255.637 26.3066L255.637 26.3066L254.724 27.3678ZM254.612 32.0079L253.751 30.9038L253.751 30.9038L254.612 32.0079ZM245 39.501L244.139 38.3968L243.6 38.8172L243.6 39.501L245 39.501ZM244.087 20.0622L253.811 28.4291L255.637 26.3066L245.913 17.9397L244.087 20.0622ZM253.751 30.9038L244.139 38.3968L245.861 40.6051L255.473 33.1121L253.751 30.9038ZM253.811 28.4291C254.577 29.0879 254.548 30.2827 253.751 30.9038L255.473 33.1121C257.663 31.4041 257.743 28.1184 255.637 26.3066L253.811 28.4291ZM236 56.601L15 56.601L15 59.401L236 59.401L236 56.601ZM7.39996 49.001L7.39997 11.001L4.59998 11.001L4.59998 49.001L7.39996 49.001ZM15 3.40096L236 3.40098L236 0.600973L15 0.600954L15 3.40096ZM243.6 39.501L243.6 49.001L246.4 49.001L246.4 39.501L243.6 39.501ZM243.6 11.001L243.6 19.001L246.4 19.001L246.4 11.001L243.6 11.001ZM236 3.40098C240.197 3.40098 243.6 6.80361 243.6 11.001L246.4 11.001C246.4 5.25722 241.744 0.600974 236 0.600973L236 3.40098ZM7.39997 11.001C7.39997 6.80359 10.8026 3.40096 15 3.40096L15 0.600954C9.25622 0.600953 4.59998 5.2572 4.59998 11.001L7.39997 11.001ZM15 56.601C10.8026 56.601 7.39996 53.1983 7.39996 49.001L4.59998 49.001C4.59998 54.7447 9.25621 59.401 15 59.401L15 56.601ZM236 59.401C241.744 59.401 246.4 54.7447 246.4 49.001L243.6 49.001C243.6 53.1983 240.197 56.601 236 56.601L236 59.401Z" fill="white" mask="url(#path-1-inside-1_7049_5846)"/>
<g filter="url(#filter0_d_7049_5846)">
<mask id="path-3-inside-2_7049_5846" fill="white">
<path d="M7.04333 41.6331L16.7674 50V69C16.7674 73.9706 20.7968 78 25.7674 78L234.767 78C239.738 78 243.767 73.9706 243.767 69V11C243.767 6.02944 239.738 2 234.767 2L25.7674 2C20.7968 2 16.7674 6.02944 16.7674 11L16.7674 29.5L7.15555 36.9931C5.66179 38.1575 5.60761 40.3978 7.04333 41.6331Z"/>
</mask>
<path d="M7.04333 41.6331L16.7674 50V69C16.7674 73.9706 20.7968 78 25.7674 78L234.767 78C239.738 78 243.767 73.9706 243.767 69V11C243.767 6.02944 239.738 2 234.767 2L25.7674 2C20.7968 2 16.7674 6.02944 16.7674 11L16.7674 29.5L7.15555 36.9931C5.66179 38.1575 5.60761 40.3978 7.04333 41.6331Z" fill="white"/>
<path d="M16.7674 50H18.1674V49.3577L17.6805 48.9388L16.7674 50ZM7.04333 41.6331L6.13021 42.6944H6.13021L7.04333 41.6331ZM7.15555 36.9931L6.2948 35.8889H6.2948L7.15555 36.9931ZM16.7674 29.5L17.6281 30.6041L18.1674 30.1838V29.5H16.7674ZM25.7674 2V0.6V2ZM234.767 2V3.4V2ZM17.6805 48.9388L7.95644 40.5719L6.13021 42.6944L15.8542 51.0612L17.6805 48.9388ZM8.0163 38.0972L17.6281 30.6041L15.9066 28.3959L6.2948 35.8889L8.0163 38.0972ZM7.95644 40.5719C7.19073 39.9131 7.21963 38.7183 8.0163 38.0972L6.2948 35.8889C4.10396 37.5968 4.02449 40.8825 6.13021 42.6944L7.95644 40.5719ZM25.7674 3.4L234.767 3.4V0.600003L25.7674 0.6V3.4ZM242.367 11V69H245.167V11H242.367ZM234.767 76.6L25.7674 76.6V79.4L234.767 79.4V76.6ZM18.1674 29.5L18.1674 11H15.3674L15.3674 29.5H18.1674ZM18.1674 69V50H15.3674L15.3674 69H18.1674ZM25.7674 76.6C21.57 76.6 18.1674 73.1974 18.1674 69H15.3674C15.3674 74.7438 20.0236 79.4 25.7674 79.4V76.6ZM242.367 69C242.367 73.1974 238.965 76.6 234.767 76.6V79.4C240.511 79.4 245.167 74.7438 245.167 69H242.367ZM234.767 3.4C238.965 3.4 242.367 6.80264 242.367 11H245.167C245.167 5.25624 240.511 0.600003 234.767 0.600003V3.4ZM25.7674 0.6C20.0236 0.6 15.3674 5.25624 15.3674 11H18.1674C18.1674 6.80264 21.57 3.4 25.7674 3.4V0.6Z" fill="#333333" mask="url(#path-3-inside-2_7049_5846)"/>
</g>
<g filter="url(#filter1_d_7049_5846)">
<path d="M32.616 15.453H33.864V19.885H38.84V15.453H40.072V25.501H38.84V20.957H33.864V25.501H32.616V15.453ZM46.1351 25.693C45.4738 25.693 44.8818 25.525 44.3591 25.189C43.8418 24.8476 43.4311 24.3756 43.1271 23.773C42.8285 23.1703 42.6791 22.477 42.6791 21.693C42.6791 20.8556 42.8285 20.1356 43.1271 19.533C43.4258 18.9303 43.8338 18.469 44.3511 18.149C44.8738 17.8236 45.4685 17.661 46.1351 17.661C46.7165 17.661 47.2125 17.7783 47.6231 18.013C48.0338 18.2476 48.3645 18.565 48.6151 18.965C48.8658 19.365 49.0391 19.8183 49.1351 20.325C49.2365 20.8263 49.2658 21.3463 49.2231 21.885H43.6871V21.117H48.3991L48.0311 21.357C48.0471 21.0423 48.0285 20.7276 47.9751 20.413C47.9271 20.0983 47.8338 19.8103 47.6951 19.549C47.5565 19.2823 47.3618 19.069 47.1111 18.909C46.8605 18.749 46.5405 18.669 46.1511 18.669C45.6605 18.669 45.2498 18.7943 44.9191 19.045C44.5885 19.2956 44.3405 19.6263 44.1751 20.037C44.0098 20.4423 43.9271 20.8823 43.9271 21.357V21.869C43.9271 22.4023 44.0071 22.8796 44.1671 23.301C44.3325 23.7223 44.5778 24.0556 44.9031 24.301C45.2285 24.5463 45.6391 24.669 46.1351 24.669C46.6311 24.669 47.0391 24.549 47.3591 24.309C47.6791 24.069 47.8738 23.7143 47.9431 23.245H49.2391C49.1591 23.7516 48.9778 24.189 48.6951 24.557C48.4125 24.9196 48.0525 25.1996 47.6151 25.397C47.1778 25.5943 46.6845 25.693 46.1351 25.693ZM51.8579 25.501V17.837H53.1059V25.501H51.8579ZM52.7219 22.045C52.7219 21.0743 52.8152 20.269 53.0019 19.629C53.1885 18.9836 53.4605 18.5036 53.8179 18.189C54.1805 17.869 54.6205 17.709 55.1379 17.709C55.3085 17.709 55.4632 17.7223 55.6019 17.749C55.7459 17.7703 55.8899 17.805 56.0339 17.853L55.9539 19.085C55.8045 19.037 55.6419 18.997 55.4659 18.965C55.2899 18.9276 55.1325 18.909 54.9939 18.909C54.5405 18.909 54.1752 19.0396 53.8979 19.301C53.6205 19.557 53.4179 19.9196 53.2899 20.389C53.1672 20.8583 53.1059 21.4103 53.1059 22.045H52.7219ZM60.4551 25.693C59.7938 25.693 59.2018 25.525 58.6791 25.189C58.1618 24.8476 57.7511 24.3756 57.4471 23.773C57.1485 23.1703 56.9991 22.477 56.9991 21.693C56.9991 20.8556 57.1485 20.1356 57.4471 19.533C57.7458 18.9303 58.1538 18.469 58.6711 18.149C59.1938 17.8236 59.7885 17.661 60.4551 17.661C61.0365 17.661 61.5325 17.7783 61.9431 18.013C62.3538 18.2476 62.6845 18.565 62.9351 18.965C63.1858 19.365 63.3591 19.8183 63.4551 20.325C63.5565 20.8263 63.5858 21.3463 63.5431 21.885H58.0071V21.117H62.7191L62.3511 21.357C62.3671 21.0423 62.3485 20.7276 62.2951 20.413C62.2471 20.0983 62.1538 19.8103 62.0151 19.549C61.8765 19.2823 61.6818 19.069 61.4311 18.909C61.1805 18.749 60.8605 18.669 60.4711 18.669C59.9805 18.669 59.5698 18.7943 59.2391 19.045C58.9085 19.2956 58.6605 19.6263 58.4951 20.037C58.3298 20.4423 58.2471 20.8823 58.2471 21.357V21.869C58.2471 22.4023 58.3271 22.8796 58.4871 23.301C58.6525 23.7223 58.8978 24.0556 59.2231 24.301C59.5485 24.5463 59.9591 24.669 60.4551 24.669C60.9511 24.669 61.3591 24.549 61.6791 24.309C61.9991 24.069 62.1938 23.7143 62.2631 23.245H63.5591C63.4791 23.7516 63.2978 24.189 63.0151 24.557C62.7325 24.9196 62.3725 25.1996 61.9351 25.397C61.4978 25.5943 61.0045 25.693 60.4551 25.693ZM68.8707 17.853H70.2627L72.7587 24.413H72.4707L74.4067 17.853H75.6867L72.8067 27.037C72.5667 27.805 72.2467 28.397 71.8467 28.813C71.4467 29.229 70.9347 29.437 70.3107 29.437C69.9747 29.437 69.6547 29.389 69.3507 29.293C69.0521 29.197 68.7427 29.0583 68.4227 28.877V27.725C68.7054 27.949 68.9774 28.109 69.2387 28.205C69.5054 28.301 69.7827 28.349 70.0707 28.349C70.3907 28.349 70.6574 28.2476 70.8707 28.045C71.0894 27.8423 71.2707 27.581 71.4147 27.261C71.5587 26.9463 71.6814 26.6156 71.7827 26.269L72.0067 25.501L68.8707 17.853ZM80.5159 25.693C79.8279 25.693 79.2145 25.541 78.6759 25.237C78.1425 24.933 77.7212 24.4823 77.4119 23.885C77.1025 23.2876 76.9479 22.5516 76.9479 21.677C76.9479 20.797 77.1025 20.061 77.4119 19.469C77.7212 18.8716 78.1425 18.421 78.6759 18.117C79.2145 17.813 79.8279 17.661 80.5159 17.661C81.1985 17.661 81.8065 17.813 82.3399 18.117C82.8785 18.421 83.2999 18.8716 83.6039 19.469C83.9132 20.061 84.0679 20.797 84.0679 21.677C84.0679 22.5516 83.9132 23.2876 83.6039 23.885C83.2999 24.4823 82.8785 24.933 82.3399 25.237C81.8065 25.541 81.1985 25.693 80.5159 25.693ZM80.4839 24.605C80.9799 24.605 81.4012 24.4876 81.7479 24.253C82.0945 24.013 82.3559 23.6743 82.5319 23.237C82.7132 22.7996 82.8039 22.2796 82.8039 21.677C82.8039 20.765 82.6145 20.0476 82.2359 19.525C81.8572 18.997 81.2945 18.733 80.5479 18.733C80.0465 18.733 79.6225 18.853 79.2759 19.093C78.9345 19.3276 78.6732 19.6663 78.4919 20.109C78.3159 20.5463 78.2279 21.069 78.2279 21.677C78.2279 22.5783 78.4172 23.293 78.7959 23.821C79.1799 24.3436 79.7425 24.605 80.4839 24.605ZM91.8579 17.837H93.1059V25.501H91.8579V17.837ZM86.4339 17.837H87.6819V22.605C87.6819 23.245 87.8365 23.7303 88.1459 24.061C88.4605 24.3916 88.9085 24.557 89.4899 24.557C89.9699 24.557 90.3859 24.429 90.7379 24.173C91.0952 23.917 91.3699 23.565 91.5619 23.117C91.7592 22.6636 91.8579 22.1463 91.8579 21.565H92.3219C92.3219 22.4236 92.1965 23.157 91.9459 23.765C91.7005 24.373 91.3512 24.8396 90.8979 25.165C90.4499 25.485 89.9219 25.645 89.3139 25.645C88.7379 25.645 88.2339 25.5383 87.8019 25.325C87.3699 25.1116 87.0339 24.789 86.7939 24.357C86.5539 23.9196 86.4339 23.3676 86.4339 22.701V17.837ZM103.15 25.693C102.537 25.693 101.964 25.5276 101.43 25.197C100.902 24.8663 100.476 24.3996 100.15 23.797C99.8249 23.1943 99.6623 22.4823 99.6623 21.661C99.6623 20.8183 99.8249 20.0983 100.15 19.501C100.476 18.9036 100.902 18.4476 101.43 18.133C101.964 17.8183 102.537 17.661 103.15 17.661C103.582 17.661 103.969 17.7276 104.31 17.861C104.657 17.989 104.958 18.1676 105.214 18.397C105.47 18.6263 105.681 18.8876 105.846 19.181C106.017 19.469 106.142 19.773 106.222 20.093L104.942 20.205C104.809 19.7623 104.585 19.413 104.27 19.157C103.961 18.8956 103.582 18.765 103.134 18.765C102.756 18.765 102.398 18.8743 102.062 19.093C101.732 19.3063 101.462 19.629 101.254 20.061C101.046 20.4876 100.942 21.021 100.942 21.661C100.942 22.253 101.036 22.7676 101.222 23.205C101.414 23.637 101.676 23.973 102.006 24.213C102.337 24.453 102.713 24.573 103.134 24.573C103.726 24.573 104.174 24.429 104.478 24.141C104.788 23.8476 104.942 23.4423 104.942 22.925H106.222C106.222 23.4583 106.097 23.933 105.846 24.349C105.596 24.765 105.238 25.093 104.774 25.333C104.316 25.573 103.774 25.693 103.15 25.693ZM113.608 25.501L113.448 23.821V20.541C113.448 19.853 113.302 19.3596 113.008 19.061C112.715 18.757 112.275 18.605 111.688 18.605C111.358 18.605 111.056 18.653 110.784 18.749C110.518 18.845 110.304 18.9943 110.144 19.197C109.99 19.3943 109.912 19.6503 109.912 19.965H108.52C108.52 19.4103 108.656 18.965 108.928 18.629C109.2 18.2876 109.574 18.0423 110.048 17.893C110.528 17.7383 111.075 17.661 111.688 17.661C112.275 17.661 112.795 17.7596 113.248 17.957C113.702 18.1543 114.056 18.469 114.312 18.901C114.568 19.3276 114.696 19.885 114.696 20.573V25.501H113.608ZM111 25.693C110.371 25.693 109.851 25.581 109.44 25.357C109.03 25.133 108.723 24.8423 108.52 24.485C108.318 24.1276 108.216 23.7516 108.216 23.357C108.216 22.8396 108.344 22.4183 108.6 22.093C108.862 21.7676 109.216 21.5303 109.664 21.381C110.112 21.2263 110.616 21.149 111.176 21.149C111.576 21.149 111.976 21.189 112.376 21.269C112.782 21.349 113.176 21.4583 113.56 21.597V22.381C113.24 22.253 112.878 22.1516 112.472 22.077C112.072 22.0023 111.704 21.965 111.368 21.965C110.856 21.965 110.424 22.0716 110.072 22.285C109.72 22.493 109.544 22.8503 109.544 23.357C109.544 23.7303 109.678 24.0503 109.944 24.317C110.216 24.5836 110.648 24.717 111.24 24.717C111.656 24.717 112.03 24.621 112.36 24.429C112.696 24.2316 112.96 23.9863 113.152 23.693C113.35 23.3996 113.448 23.1063 113.448 22.813H113.752C113.752 23.325 113.64 23.7996 113.416 24.237C113.198 24.6743 112.883 25.0263 112.472 25.293C112.062 25.5596 111.571 25.693 111 25.693ZM123.285 25.501V21.005C123.285 20.2743 123.109 19.7196 122.757 19.341C122.41 18.957 121.935 18.765 121.333 18.765C120.874 18.765 120.477 18.8903 120.141 19.141C119.805 19.3916 119.546 19.7516 119.365 20.221C119.183 20.685 119.093 21.2396 119.093 21.885H118.613C118.613 20.9943 118.73 20.2343 118.965 19.605C119.199 18.9756 119.541 18.4956 119.989 18.165C120.442 17.829 120.991 17.661 121.637 17.661C122.239 17.661 122.754 17.797 123.181 18.069C123.613 18.3356 123.943 18.7196 124.173 19.221C124.402 19.7223 124.517 20.317 124.517 21.005V25.501H123.285ZM117.845 25.501V17.853H118.917L119.093 19.613V25.501H117.845ZM132.034 25.501V16.669C132.034 16.1623 132.13 15.749 132.322 15.429C132.519 15.1036 132.781 14.8636 133.106 14.709C133.437 14.5543 133.805 14.477 134.21 14.477C134.429 14.477 134.65 14.493 134.874 14.525C135.103 14.557 135.33 14.605 135.554 14.669L135.314 15.661C135.154 15.597 134.994 15.549 134.834 15.517C134.679 15.485 134.53 15.469 134.386 15.469C134.215 15.469 134.045 15.501 133.874 15.565C133.703 15.629 133.562 15.749 133.45 15.925C133.338 16.101 133.282 16.3543 133.282 16.685V25.501H132.034ZM130.786 18.717V17.853H134.866V18.717H130.786ZM137.802 16.045C137.546 16.045 137.343 15.973 137.194 15.829C137.045 15.6796 136.97 15.485 136.97 15.245C136.97 15.0103 137.045 14.8236 137.194 14.685C137.343 14.5463 137.546 14.477 137.802 14.477C138.058 14.477 138.261 14.5463 138.41 14.685C138.559 14.8236 138.634 15.0103 138.634 15.245C138.634 15.485 138.559 15.6796 138.41 15.829C138.261 15.973 138.058 16.045 137.802 16.045ZM137.178 25.501V17.837H138.426V25.501H137.178ZM147.468 25.501V21.005C147.468 20.2743 147.292 19.7196 146.94 19.341C146.593 18.957 146.119 18.765 145.516 18.765C145.057 18.765 144.66 18.8903 144.324 19.141C143.988 19.3916 143.729 19.7516 143.548 20.221C143.367 20.685 143.276 21.2396 143.276 21.885H142.796C142.796 20.9943 142.913 20.2343 143.148 19.605C143.383 18.9756 143.724 18.4956 144.172 18.165C144.625 17.829 145.175 17.661 145.82 17.661C146.423 17.661 146.937 17.797 147.364 18.069C147.796 18.3356 148.127 18.7196 148.356 19.221C148.585 19.7223 148.7 20.317 148.7 21.005V25.501H147.468ZM142.028 25.501V17.853H143.1L143.276 19.613V25.501H142.028ZM154.58 25.693C153.961 25.693 153.393 25.5276 152.876 25.197C152.359 24.861 151.945 24.3916 151.636 23.789C151.327 23.181 151.172 22.4663 151.172 21.645C151.172 20.829 151.324 20.1223 151.628 19.525C151.932 18.9276 152.335 18.469 152.836 18.149C153.343 17.8236 153.897 17.661 154.5 17.661C155.06 17.661 155.551 17.797 155.972 18.069C156.399 18.341 156.729 18.733 156.964 19.245C157.199 19.757 157.316 20.3756 157.316 21.101H156.836C156.836 20.5943 156.735 20.1676 156.532 19.821C156.335 19.4743 156.076 19.213 155.756 19.037C155.436 18.8556 155.092 18.765 154.724 18.765C154.308 18.765 153.927 18.8823 153.58 19.117C153.239 19.3463 152.964 19.677 152.756 20.109C152.553 20.5356 152.452 21.0476 152.452 21.645C152.452 22.253 152.553 22.7756 152.756 23.213C152.964 23.6503 153.239 23.9863 153.58 24.221C153.927 24.4556 154.308 24.573 154.724 24.573C155.071 24.573 155.404 24.4823 155.724 24.301C156.049 24.1196 156.316 23.8556 156.524 23.509C156.732 23.157 156.836 22.733 156.836 22.237H157.316C157.316 22.9783 157.193 23.6076 156.948 24.125C156.708 24.637 156.38 25.0263 155.964 25.293C155.553 25.5596 155.092 25.693 154.58 25.693ZM157.044 25.501L156.836 23.709V14.589H158.084V25.501H157.044ZM167.797 25.693C167.381 25.693 167.008 25.613 166.677 25.453C166.347 25.293 166.085 25.053 165.893 24.733C165.701 24.413 165.605 24.013 165.605 23.533V15.725H166.837V23.501C166.837 24.2903 167.205 24.685 167.941 24.685C168.16 24.685 168.371 24.661 168.573 24.613C168.781 24.565 169.013 24.493 169.269 24.397L169.445 25.293C169.173 25.4103 168.901 25.5063 168.629 25.581C168.363 25.6556 168.085 25.693 167.797 25.693ZM164.373 18.717V17.853H169.253V18.717H164.373ZM177.061 25.501V21.005C177.061 20.2743 176.885 19.7196 176.533 19.341C176.186 18.957 175.712 18.765 175.109 18.765C174.65 18.765 174.253 18.8903 173.917 19.141C173.581 19.3916 173.322 19.7516 173.141 20.221C172.96 20.685 172.869 21.2396 172.869 21.885H172.389C172.389 20.9943 172.506 20.2343 172.741 19.605C172.976 18.9756 173.317 18.4956 173.765 18.165C174.218 17.829 174.768 17.661 175.413 17.661C176.016 17.661 176.53 17.797 176.957 18.069C177.389 18.3356 177.72 18.7196 177.949 19.221C178.178 19.7223 178.293 20.317 178.293 21.005V25.501H177.061ZM171.621 25.501V14.589H172.869V25.501H171.621ZM184.093 25.693C183.432 25.693 182.84 25.525 182.317 25.189C181.8 24.8476 181.389 24.3756 181.085 23.773C180.787 23.1703 180.637 22.477 180.637 21.693C180.637 20.8556 180.787 20.1356 181.085 19.533C181.384 18.9303 181.792 18.469 182.309 18.149C182.832 17.8236 183.427 17.661 184.093 17.661C184.675 17.661 185.171 17.7783 185.581 18.013C185.992 18.2476 186.323 18.565 186.573 18.965C186.824 19.365 186.997 19.8183 187.093 20.325C187.195 20.8263 187.224 21.3463 187.181 21.885H181.645V21.117H186.357L185.989 21.357C186.005 21.0423 185.987 20.7276 185.933 20.413C185.885 20.0983 185.792 19.8103 185.653 19.549C185.515 19.2823 185.32 19.069 185.069 18.909C184.819 18.749 184.499 18.669 184.109 18.669C183.619 18.669 183.208 18.7943 182.877 19.045C182.547 19.2956 182.299 19.6263 182.133 20.037C181.968 20.4423 181.885 20.8823 181.885 21.357V21.869C181.885 22.4023 181.965 22.8796 182.125 23.301C182.291 23.7223 182.536 24.0556 182.861 24.301C183.187 24.5463 183.597 24.669 184.093 24.669C184.589 24.669 184.997 24.549 185.317 24.309C185.637 24.069 185.832 23.7143 185.901 23.245H187.197C187.117 23.7516 186.936 24.189 186.653 24.557C186.371 24.9196 186.011 25.1996 185.573 25.397C185.136 25.5943 184.643 25.693 184.093 25.693ZM32.44 45.501V35.117H36.104C37.272 35.117 38.1813 35.405 38.832 35.981C39.488 36.557 39.816 37.373 39.816 38.429C39.816 39.4743 39.488 40.285 38.832 40.861C38.1813 41.437 37.272 41.725 36.104 41.725H34.344V45.501H32.44ZM34.344 40.077H36.104C36.6907 40.077 37.1333 39.9223 37.432 39.613C37.7307 39.3036 37.88 38.909 37.88 38.429C37.88 37.9383 37.7307 37.5356 37.432 37.221C37.1333 36.9063 36.6907 36.749 36.104 36.749H34.344V40.077ZM41.9132 45.501V35.117H48.5852V36.749H43.8012V39.485H48.2973V41.117H43.8012V43.853H48.5852V45.501H41.9132ZM51.4799 45.501V35.117H55.3199C56.5625 35.117 57.5145 35.4076 58.1759 35.989C58.8425 36.5703 59.1759 37.341 59.1759 38.301C59.1759 39.245 58.8425 40.0076 58.1759 40.589C57.5145 41.165 56.5625 41.453 55.3199 41.453H53.3679V45.501H51.4799ZM57.0959 45.501L54.3439 40.637H56.3599L59.5599 45.501H57.0959ZM53.3679 40.189H55.1279C55.8212 40.189 56.3465 40.0316 56.7039 39.717C57.0612 39.397 57.2399 38.9836 57.2399 38.477C57.2399 37.9596 57.0772 37.5436 56.7519 37.229C56.4265 36.909 55.9492 36.749 55.3199 36.749H53.3679V40.189ZM61.9367 45.501V35.117H68.4808V36.749H63.8247V39.485H68.0807V41.101H63.8247V45.501H61.9367ZM70.8307 45.501V35.117H77.5027V36.749H72.7187V39.485H77.2147V41.117H72.7187V43.853H77.5027V45.501H70.8307ZM84.1734 45.725C83.2614 45.725 82.4667 45.509 81.7894 45.077C81.1174 44.6396 80.5947 44.0156 80.2214 43.205C79.848 42.3943 79.6614 41.421 79.6614 40.285C79.6614 39.1116 79.8534 38.1276 80.2374 37.333C80.6267 36.533 81.16 35.9303 81.8374 35.525C82.52 35.1143 83.2987 34.909 84.1734 34.909C85.384 34.909 86.328 35.2023 87.0054 35.789C87.688 36.3756 88.1254 37.1383 88.3174 38.077L86.3014 38.445C86.136 37.901 85.872 37.461 85.5094 37.125C85.1467 36.789 84.7014 36.621 84.1734 36.621C83.7094 36.621 83.2907 36.757 82.9174 37.029C82.544 37.2956 82.2454 37.701 82.0214 38.245C81.8027 38.789 81.6934 39.469 81.6934 40.285C81.6934 41.053 81.7894 41.7143 81.9814 42.269C82.1787 42.8236 82.4614 43.2503 82.8294 43.549C83.1974 43.8476 83.6454 43.997 84.1734 43.997C84.8507 43.997 85.3734 43.8183 85.7414 43.461C86.1147 43.0983 86.3014 42.637 86.3014 42.077H88.3174C88.3174 42.8503 88.1494 43.509 87.8134 44.053C87.4827 44.5916 87.008 45.005 86.3894 45.293C85.7707 45.581 85.032 45.725 84.1734 45.725ZM89.306 36.749V35.117H97.626V36.749H93.986L94.41 36.317V45.501H92.522V36.317L92.946 36.749H89.306ZM107.181 45.725C106.461 45.725 105.797 45.5996 105.189 45.349C104.586 45.0983 104.096 44.717 103.717 44.205C103.344 43.693 103.144 43.0423 103.117 42.253H104.973C104.973 42.653 105.072 42.981 105.269 43.237C105.466 43.493 105.73 43.685 106.061 43.813C106.397 43.9356 106.765 43.997 107.165 43.997C107.549 43.997 107.89 43.9463 108.189 43.845C108.493 43.7436 108.73 43.5996 108.901 43.413C109.077 43.221 109.165 42.9943 109.165 42.733C109.165 42.3863 109.058 42.1143 108.845 41.917C108.637 41.7196 108.301 41.5383 107.837 41.373L105.789 40.557C104.989 40.2423 104.376 39.877 103.949 39.461C103.522 39.045 103.309 38.4716 103.309 37.741C103.309 36.8983 103.642 36.2156 104.309 35.693C104.976 35.1703 105.906 34.909 107.101 34.909C108.264 34.909 109.162 35.181 109.797 35.725C110.432 36.2636 110.792 37.0156 110.877 37.981H109.021C108.952 37.5703 108.765 37.2423 108.461 36.997C108.157 36.7463 107.704 36.621 107.101 36.621C106.568 36.621 106.146 36.733 105.837 36.957C105.528 37.1756 105.373 37.453 105.373 37.789C105.373 38.077 105.469 38.3063 105.661 38.477C105.858 38.6423 106.162 38.8023 106.573 38.957L108.845 39.837C109.613 40.1356 110.202 40.5116 110.613 40.965C111.024 41.4183 111.229 41.9863 111.229 42.669C111.229 43.293 111.072 43.8343 110.757 44.293C110.442 44.7463 109.984 45.0983 109.381 45.349C108.778 45.5996 108.045 45.725 107.181 45.725ZM112.792 45.501L116.328 35.117H118.696L122.088 45.501H120.104L119.384 43.261H115.528L114.792 45.501H112.792ZM116.008 41.837H118.936L117.48 37.373L116.008 41.837ZM126.82 43.437L129.476 35.117H131.46L127.892 45.501H125.908L122.388 35.117H124.388L127.012 43.437H126.82ZM137.107 45.725C136.184 45.725 135.368 45.5223 134.659 45.117C133.955 44.7116 133.403 44.1063 133.003 43.301C132.603 42.4956 132.403 41.4956 132.403 40.301C132.403 39.085 132.603 38.0796 133.003 37.285C133.403 36.485 133.955 35.8903 134.659 35.501C135.368 35.1063 136.184 34.909 137.107 34.909C138.035 34.909 138.853 35.1116 139.563 35.517C140.272 35.917 140.827 36.517 141.227 37.317C141.627 38.117 141.827 39.1116 141.827 40.301C141.827 41.5116 141.627 42.5196 141.227 43.325C140.827 44.1303 140.272 44.733 139.563 45.133C138.853 45.5276 138.035 45.725 137.107 45.725ZM137.107 44.013C137.955 44.013 138.627 43.693 139.123 43.053C139.624 42.413 139.875 41.4903 139.875 40.285C139.875 39.1223 139.624 38.2183 139.123 37.573C138.627 36.9276 137.955 36.605 137.107 36.605C136.275 36.605 135.608 36.9303 135.107 37.581C134.605 38.2263 134.355 39.133 134.355 40.301C134.355 41.501 134.605 42.421 135.107 43.061C135.608 43.6956 136.275 44.013 137.107 44.013ZM144.22 45.501V35.117H148.06C149.303 35.117 150.255 35.4076 150.916 35.989C151.583 36.5703 151.916 37.341 151.916 38.301C151.916 39.245 151.583 40.0076 150.916 40.589C150.255 41.165 149.303 41.453 148.06 41.453H146.108V45.501H144.22ZM149.836 45.501L147.084 40.637H149.1L152.3 45.501H149.836ZM146.108 40.189H147.868C148.562 40.189 149.087 40.0316 149.444 39.717C149.802 39.397 149.98 38.9836 149.98 38.477C149.98 37.9596 149.818 37.5436 149.492 37.229C149.167 36.909 148.69 36.749 148.06 36.749H146.108V40.189ZM153.301 35.117H155.541L158.021 39.581H157.653L160.229 35.117H162.453L158.757 41.213V45.501H156.869V41.213L153.301 35.117ZM168.435 45.501V35.117H172.275C173.518 35.117 174.47 35.4076 175.131 35.989C175.798 36.5703 176.131 37.341 176.131 38.301C176.131 39.245 175.798 40.0076 175.131 40.589C174.47 41.165 173.518 41.453 172.275 41.453H170.323V45.501H168.435ZM174.051 45.501L171.299 40.637H173.315L176.515 45.501H174.051ZM170.323 40.189H172.083C172.776 40.189 173.302 40.0316 173.659 39.717C174.016 39.397 174.195 38.9836 174.195 38.477C174.195 37.9596 174.032 37.5436 173.707 37.229C173.382 36.909 172.904 36.749 172.275 36.749H170.323V40.189ZM178.876 45.501V35.117H185.548V36.749H180.764V39.485H185.26V41.117H180.764V43.853H185.548V45.501H178.876ZM192.218 45.725C191.306 45.725 190.512 45.509 189.834 45.077C189.162 44.6396 188.64 44.0156 188.266 43.205C187.893 42.3943 187.706 41.421 187.706 40.285C187.706 39.1116 187.898 38.1276 188.282 37.333C188.672 36.533 189.205 35.9303 189.882 35.525C190.565 35.1143 191.344 34.909 192.218 34.909C193.429 34.909 194.373 35.2023 195.05 35.789C195.733 36.3756 196.17 37.1383 196.362 38.077L194.346 38.445C194.181 37.901 193.917 37.461 193.554 37.125C193.192 36.789 192.746 36.621 192.218 36.621C191.754 36.621 191.336 36.757 190.962 37.029C190.589 37.2956 190.29 37.701 190.066 38.245C189.848 38.789 189.738 39.469 189.738 40.285C189.738 41.053 189.834 41.7143 190.026 42.269C190.224 42.8236 190.506 43.2503 190.874 43.549C191.242 43.8476 191.69 43.997 192.218 43.997C192.896 43.997 193.418 43.8183 193.786 43.461C194.16 43.0983 194.346 42.637 194.346 42.077H196.362C196.362 42.8503 196.194 43.509 195.858 44.053C195.528 44.5916 195.053 45.005 194.434 45.293C193.816 45.581 193.077 45.725 192.218 45.725ZM198.743 45.501V35.117H200.631V45.501H198.743ZM203.73 45.501V35.117H207.394C208.562 35.117 209.471 35.405 210.122 35.981C210.778 36.557 211.106 37.373 211.106 38.429C211.106 39.4743 210.778 40.285 210.122 40.861C209.471 41.437 208.562 41.725 207.394 41.725H205.634V45.501H203.73ZM205.634 40.077H207.394C207.981 40.077 208.423 39.9223 208.722 39.613C209.021 39.3036 209.17 38.909 209.17 38.429C209.17 37.9383 209.021 37.5356 208.722 37.221C208.423 36.9063 207.981 36.749 207.394 36.749H205.634V40.077ZM213.203 45.501V35.117H219.875V36.749H215.091V39.485H219.587V41.117H215.091V43.853H219.875V45.501H213.203ZM223.058 47.677L221.666 46.973C222.018 46.797 222.33 46.5943 222.602 46.365C222.874 46.1356 223.053 45.8743 223.138 45.581C222.845 45.5223 222.591 45.3996 222.378 45.213C222.17 45.0263 222.066 44.781 222.066 44.477C222.066 44.157 222.189 43.8876 222.434 43.669C222.679 43.4503 222.989 43.341 223.362 43.341C223.837 43.341 224.207 43.5063 224.474 43.837C224.746 44.1676 224.882 44.5596 224.882 45.013C224.882 45.5303 224.719 46.0316 224.394 46.517C224.069 47.0076 223.623 47.3943 223.058 47.677ZM32.472 65.501V55.117H39.144V56.749H34.36V59.485H38.856V61.117H34.36V63.853H39.144V65.501H32.472ZM40.9026 65.501L44.4386 55.117H46.8066L50.1986 65.501H48.2146L47.4946 63.261H43.6386L42.9026 65.501H40.9026ZM44.1186 61.837H47.0466L45.5906 57.373L44.1186 61.837ZM55.8302 65.725C55.1102 65.725 54.4462 65.5996 53.8382 65.349C53.2356 65.0983 52.7449 64.717 52.3662 64.205C51.9929 63.693 51.7929 63.0423 51.7662 62.253H53.6222C53.6222 62.653 53.7209 62.981 53.9182 63.237C54.1156 63.493 54.3796 63.685 54.7102 63.813C55.0463 63.9356 55.4143 63.997 55.8142 63.997C56.1982 63.997 56.5396 63.9463 56.8383 63.845C57.1423 63.7436 57.3796 63.5996 57.5503 63.413C57.7263 63.221 57.8142 62.9943 57.8142 62.733C57.8142 62.3863 57.7076 62.1143 57.4942 61.917C57.2862 61.7196 56.9502 61.5383 56.4862 61.373L54.4382 60.557C53.6382 60.2423 53.0249 59.877 52.5982 59.461C52.1716 59.045 51.9582 58.4716 51.9582 57.741C51.9582 56.8983 52.2916 56.2156 52.9582 55.693C53.6249 55.1703 54.5556 54.909 55.7502 54.909C56.9129 54.909 57.8116 55.181 58.4462 55.725C59.0809 56.2636 59.4409 57.0156 59.5262 57.981H57.6702C57.6009 57.5703 57.4142 57.2423 57.1102 56.997C56.8063 56.7463 56.3529 56.621 55.7502 56.621C55.2169 56.621 54.7956 56.733 54.4862 56.957C54.1769 57.1756 54.0222 57.453 54.0222 57.789C54.0222 58.077 54.1182 58.3063 54.3102 58.477C54.5076 58.6423 54.8116 58.8023 55.2222 58.957L57.4942 59.837C58.2623 60.1356 58.8516 60.5116 59.2622 60.965C59.6729 61.4183 59.8783 61.9863 59.8783 62.669C59.8783 63.293 59.7209 63.8343 59.4062 64.293C59.0916 64.7463 58.6329 65.0983 58.0303 65.349C57.4276 65.5996 56.6942 65.725 55.8302 65.725ZM60.7482 55.117H62.9882L65.4682 59.581H65.1002L67.6762 55.117H69.9003L66.2042 61.213V65.501H64.3162V61.213L60.7482 55.117ZM74.4897 56.749V55.117H82.8097V56.749H79.1697L79.5937 56.317V65.501H77.7057V56.317L78.1297 56.749H74.4897ZM88.5097 65.725C87.5871 65.725 86.7711 65.5223 86.0617 65.117C85.3577 64.7116 84.8057 64.1063 84.4057 63.301C84.0057 62.4956 83.8057 61.4956 83.8057 60.301C83.8057 59.085 84.0057 58.0796 84.4057 57.285C84.8057 56.485 85.3577 55.8903 86.0617 55.501C86.7711 55.1063 87.5871 54.909 88.5097 54.909C89.4377 54.909 90.2564 55.1116 90.9657 55.517C91.6751 55.917 92.2297 56.517 92.6297 57.317C93.0297 58.117 93.2297 59.1116 93.2297 60.301C93.2297 61.5116 93.0297 62.5196 92.6297 63.325C92.2297 64.1303 91.6751 64.733 90.9657 65.133C90.2564 65.5276 89.4377 65.725 88.5097 65.725ZM88.5097 64.013C89.3577 64.013 90.0297 63.693 90.5257 63.053C91.0271 62.413 91.2777 61.4903 91.2777 60.285C91.2777 59.1223 91.0271 58.2183 90.5257 57.573C90.0297 56.9276 89.3577 56.605 88.5097 56.605C87.6777 56.605 87.0111 56.9303 86.5097 57.581C86.0084 58.2263 85.7577 59.133 85.7577 60.301C85.7577 61.501 86.0084 62.421 86.5097 63.061C87.0111 63.6956 87.6777 64.013 88.5097 64.013ZM99.8305 65.501V55.117H104.022C104.822 55.117 105.486 55.2423 106.014 55.493C106.542 55.7383 106.937 56.069 107.198 56.485C107.46 56.901 107.59 57.3623 107.59 57.869C107.59 58.4556 107.425 58.957 107.094 59.373C106.769 59.789 106.31 60.0823 105.718 60.253C106.108 60.333 106.457 60.4796 106.766 60.693C107.076 60.9063 107.318 61.1756 107.494 61.501C107.676 61.8263 107.766 62.1996 107.766 62.621C107.766 62.9516 107.708 63.285 107.59 63.621C107.478 63.957 107.281 64.269 106.998 64.557C106.721 64.8396 106.34 65.069 105.854 65.245C105.374 65.4156 104.769 65.501 104.038 65.501H99.8305ZM101.718 63.853H103.99C104.593 63.853 105.033 63.733 105.31 63.493C105.593 63.2476 105.734 62.9196 105.734 62.509C105.734 62.0983 105.59 61.7703 105.302 61.525C105.014 61.2743 104.577 61.149 103.99 61.149H101.718V63.853ZM101.718 56.749V59.501H103.942C104.502 59.501 104.926 59.3783 105.214 59.133C105.508 58.8823 105.654 58.541 105.654 58.109C105.654 57.6983 105.51 57.3703 105.222 57.125C104.94 56.8743 104.518 56.749 103.958 56.749H101.718ZM109.23 65.501L112.766 55.117H115.134L118.526 65.501H116.542L115.822 63.261H111.966L111.23 65.501H109.23ZM112.446 61.837H115.374L113.918 57.373L112.446 61.837ZM126.541 55.117H129.133L122.285 62.125V59.549L126.541 55.117ZM124.237 59.405L129.421 65.501H126.989L122.925 60.637L124.237 59.405ZM120.541 55.117H122.445V65.501H120.541V55.117ZM131.154 65.501V55.117H137.826V56.749H133.042V59.485H137.538V61.117H133.042V63.853H137.826V65.501H131.154ZM140.816 61.997L140.608 54.893H142.656L142.432 61.997H140.816ZM141.64 65.645C141.251 65.645 140.934 65.5276 140.688 65.293C140.443 65.053 140.32 64.749 140.32 64.381C140.32 64.029 140.443 63.7303 140.688 63.485C140.934 63.2396 141.251 63.117 141.64 63.117C142.019 63.117 142.336 63.2396 142.592 63.485C142.848 63.7303 142.976 64.029 142.976 64.381C142.976 64.749 142.848 65.053 142.592 65.293C142.336 65.5276 142.019 65.645 141.64 65.645Z" fill="#333333"/>
</g>
<defs>
<filter id="filter0_d_7049_5846" x="0" y="0" width="249.767" height="88" filterUnits="userSpaceOnUse" color-interpolation-filters="sRGB">
<feFlood flood-opacity="0" result="BackgroundImageFix"/>
<feColorMatrix in="SourceAlpha" type="matrix" values="0 0 0 0 0 0 0 0 0 0 0 0 0 0 0 0 0 0 127 0" result="hardAlpha"/>
<feOffset dy="4"/>
<feGaussianBlur stdDeviation="3"/>
<feComposite in2="hardAlpha" operator="out"/>
<feColorMatrix type="matrix" values="0 0 0 0 0 0 0 0 0 0 0 0 0 0 0 0 0 0 0.1 0"/>
<feBlend mode="normal" in2="BackgroundImageFix" result="effect1_dropShadow_7049_5846"/>
<feBlend mode="normal" in="SourceGraphic" in2="effect1_dropShadow_7049_5846" result="shape"/>
</filter>
<filter id="filter1_d_7049_5846" x="26.4399" y="12.4766" width="204.442" height="63.248" filterUnits="userSpaceOnUse" color-interpolation-filters="sRGB">
<feFlood flood-opacity="0" result="BackgroundImageFix"/>
<feColorMatrix in="SourceAlpha" type="matrix" values="0 0 0 0 0 0 0 0 0 0 0 0 0 0 0 0 0 0 127 0" result="hardAlpha"/>
<feOffset dy="4"/>
<feGaussianBlur stdDeviation="3"/>
<feComposite in2="hardAlpha" operator="out"/>
<feColorMatrix type="matrix" values="0 0 0 0 0 0 0 0 0 0 0 0 0 0 0 0 0 0 0.05 0"/>
<feBlend mode="normal" in2="BackgroundImageFix" result="effect1_dropShadow_7049_5846"/>
<feBlend mode="normal" in="SourceGraphic" in2="effect1_dropShadow_7049_5846" result="shape"/>
</filter>
</defs>
</svg>
