<svg width="250" height="108" viewBox="0 0 250 108" fill="none" xmlns="http://www.w3.org/2000/svg">
<g filter="url(#filter0_d_7093_6122)">
<mask id="path-1-inside-1_7093_6122" fill="white">
<path d="M7.04332 52.6331L16.7673 61L16.7673 89C16.7673 93.9706 20.7968 98 25.7673 98L231.767 98C236.738 98 240.767 93.9706 240.767 89L240.767 11C240.767 6.02948 236.738 2.00004 231.767 2.00004L25.7674 2C20.7968 2 16.7674 6.02944 16.7674 11L16.7674 40.5L7.15554 47.9931C5.66179 49.1575 5.6076 51.3978 7.04332 52.6331Z"/>
</mask>
<path d="M7.04332 52.6331L16.7673 61L16.7673 89C16.7673 93.9706 20.7968 98 25.7673 98L231.767 98C236.738 98 240.767 93.9706 240.767 89L240.767 11C240.767 6.02948 236.738 2.00004 231.767 2.00004L25.7674 2C20.7968 2 16.7674 6.02944 16.7674 11L16.7674 40.5L7.15554 47.9931C5.66179 49.1575 5.6076 51.3978 7.04332 52.6331Z" fill="white"/>
<path d="M16.7673 61L18.1673 61L18.1673 60.3577L17.6805 59.9388L16.7673 61ZM7.04332 52.6331L6.1302 53.6944L6.1302 53.6944L7.04332 52.6331ZM7.15554 47.9931L6.29479 46.8889L6.29479 46.8889L7.15554 47.9931ZM16.7674 40.5L17.6281 41.6041L18.1674 41.1838L18.1674 40.5L16.7674 40.5ZM25.7674 2L25.7674 0.600003L25.7674 2ZM231.767 2.00004L231.767 3.40004L231.767 2.00004ZM16.7674 11L15.3674 11L16.7674 11ZM16.7673 89L18.1673 89L16.7673 89ZM17.6805 59.9388L7.95644 51.5719L6.1302 53.6944L15.8542 62.0612L17.6805 59.9388ZM8.01629 49.0972L17.6281 41.6041L15.9066 39.3959L6.29479 46.8889L8.01629 49.0972ZM7.95644 51.5719C7.19072 50.9131 7.21962 49.7183 8.01629 49.0972L6.29479 46.8889C4.10395 48.5968 4.02448 51.8825 6.1302 53.6944L7.95644 51.5719ZM25.7674 3.4L231.767 3.40004L231.767 0.600042L25.7674 0.600003L25.7674 3.4ZM239.367 11L239.367 89L242.167 89L242.167 11L239.367 11ZM231.767 96.6L25.7673 96.6L25.7673 99.4L231.767 99.4L231.767 96.6ZM18.1674 40.5L18.1674 11L15.3674 11L15.3674 40.5L18.1674 40.5ZM18.1673 89L18.1673 61L15.3673 61L15.3673 89L18.1673 89ZM25.7673 96.6C21.57 96.6 18.1673 93.1974 18.1673 89L15.3673 89C15.3673 94.7438 20.0236 99.4 25.7673 99.4L25.7673 96.6ZM239.367 89C239.367 93.1974 235.965 96.6 231.767 96.6L231.767 99.4C237.511 99.4 242.167 94.7438 242.167 89L239.367 89ZM231.767 3.40004C235.965 3.40004 239.367 6.80268 239.367 11L242.167 11C242.167 5.25628 237.511 0.600043 231.767 0.600042L231.767 3.40004ZM25.7674 0.600003C20.0236 0.600002 15.3674 5.25624 15.3674 11L18.1674 11C18.1674 6.80264 21.57 3.4 25.7674 3.4L25.7674 0.600003Z" fill="#333333" mask="url(#path-1-inside-1_7093_6122)"/>
<path d="M27.144 14.952H28.648L31.528 19.832H31.208L34.136 14.952H35.624L31.992 20.872V25H30.728V20.872L27.144 14.952ZM39.2784 25.192C38.5904 25.192 37.977 25.04 37.4384 24.736C36.905 24.432 36.4837 23.9813 36.1744 23.384C35.865 22.7867 35.7104 22.0507 35.7104 21.176C35.7104 20.296 35.865 19.56 36.1744 18.968C36.4837 18.3707 36.905 17.92 37.4384 17.616C37.977 17.312 38.5904 17.16 39.2784 17.16C39.961 17.16 40.569 17.312 41.1024 17.616C41.641 17.92 42.0624 18.3707 42.3664 18.968C42.6757 19.56 42.8304 20.296 42.8304 21.176C42.8304 22.0507 42.6757 22.7867 42.3664 23.384C42.0624 23.9813 41.641 24.432 41.1024 24.736C40.569 25.04 39.961 25.192 39.2784 25.192ZM39.2464 24.104C39.7424 24.104 40.1637 23.9867 40.5104 23.752C40.857 23.512 41.1184 23.1733 41.2944 22.736C41.4757 22.2987 41.5664 21.7787 41.5664 21.176C41.5664 20.264 41.377 19.5467 40.9984 19.024C40.6197 18.496 40.057 18.232 39.3104 18.232C38.809 18.232 38.385 18.352 38.0384 18.592C37.697 18.8267 37.4357 19.1653 37.2544 19.608C37.0784 20.0453 36.9904 20.568 36.9904 21.176C36.9904 22.0773 37.1797 22.792 37.5584 23.32C37.9424 23.8427 38.505 24.104 39.2464 24.104ZM50.6204 17.336H51.8684V25H50.6204V17.336ZM45.1964 17.336H46.4444V22.104C46.4444 22.744 46.599 23.2293 46.9084 23.56C47.223 23.8907 47.671 24.056 48.2524 24.056C48.7324 24.056 49.1484 23.928 49.5004 23.672C49.8577 23.416 50.1324 23.064 50.3244 22.616C50.5217 22.1627 50.6204 21.6453 50.6204 21.064H51.0844C51.0844 21.9227 50.959 22.656 50.7084 23.264C50.463 23.872 50.1137 24.3387 49.6604 24.664C49.2124 24.984 48.6844 25.144 48.0764 25.144C47.5004 25.144 46.9964 25.0373 46.5644 24.824C46.1324 24.6107 45.7964 24.288 45.5564 23.856C45.3164 23.4187 45.1964 22.8667 45.1964 22.2V17.336ZM61.9127 25.192C61.2994 25.192 60.7261 25.0267 60.1927 24.696C59.6647 24.3653 59.2381 23.8987 58.9127 23.296C58.5874 22.6933 58.4247 21.9813 58.4247 21.16C58.4247 20.3173 58.5874 19.5973 58.9127 19C59.2381 18.4027 59.6647 17.9467 60.1927 17.632C60.7261 17.3173 61.2994 17.16 61.9127 17.16C62.3447 17.16 62.7314 17.2267 63.0727 17.36C63.4194 17.488 63.7207 17.6667 63.9767 17.896C64.2327 18.1253 64.4434 18.3867 64.6087 18.68C64.7794 18.968 64.9047 19.272 64.9847 19.592L63.7047 19.704C63.5714 19.2613 63.3474 18.912 63.0327 18.656C62.7234 18.3947 62.3447 18.264 61.8967 18.264C61.5181 18.264 61.1607 18.3733 60.8247 18.592C60.4941 18.8053 60.2247 19.128 60.0167 19.56C59.8087 19.9867 59.7047 20.52 59.7047 21.16C59.7047 21.752 59.7981 22.2667 59.9847 22.704C60.1767 23.136 60.4381 23.472 60.7687 23.712C61.0994 23.952 61.4754 24.072 61.8967 24.072C62.4887 24.072 62.9367 23.928 63.2407 23.64C63.5501 23.3467 63.7047 22.9413 63.7047 22.424H64.9847C64.9847 22.9573 64.8594 23.432 64.6087 23.848C64.3581 24.264 64.0007 24.592 63.5367 24.832C63.0781 25.072 62.5367 25.192 61.9127 25.192ZM72.3707 25L72.2107 23.32V20.04C72.2107 19.352 72.0641 18.8587 71.7707 18.56C71.4774 18.256 71.0374 18.104 70.4507 18.104C70.1201 18.104 69.8187 18.152 69.5467 18.248C69.2801 18.344 69.0667 18.4933 68.9067 18.696C68.7521 18.8933 68.6747 19.1493 68.6747 19.464H67.2827C67.2827 18.9093 67.4187 18.464 67.6907 18.128C67.9627 17.7867 68.3361 17.5413 68.8107 17.392C69.2907 17.2373 69.8374 17.16 70.4507 17.16C71.0374 17.16 71.5574 17.2587 72.0107 17.456C72.4641 17.6533 72.8187 17.968 73.0747 18.4C73.3307 18.8267 73.4587 19.384 73.4587 20.072V25H72.3707ZM69.7627 25.192C69.1334 25.192 68.6134 25.08 68.2027 24.856C67.7921 24.632 67.4854 24.3413 67.2827 23.984C67.0801 23.6267 66.9787 23.2507 66.9787 22.856C66.9787 22.3387 67.1067 21.9173 67.3627 21.592C67.6241 21.2667 67.9787 21.0293 68.4267 20.88C68.8747 20.7253 69.3787 20.648 69.9387 20.648C70.3387 20.648 70.7387 20.688 71.1387 20.768C71.5441 20.848 71.9387 20.9573 72.3227 21.096V21.88C72.0027 21.752 71.6401 21.6507 71.2347 21.576C70.8347 21.5013 70.4667 21.464 70.1307 21.464C69.6187 21.464 69.1867 21.5707 68.8347 21.784C68.4827 21.992 68.3067 22.3493 68.3067 22.856C68.3067 23.2293 68.4401 23.5493 68.7067 23.816C68.9787 24.0827 69.4107 24.216 70.0027 24.216C70.4187 24.216 70.7921 24.12 71.1227 23.928C71.4587 23.7307 71.7227 23.4853 71.9147 23.192C72.1121 22.8987 72.2107 22.6053 72.2107 22.312H72.5147C72.5147 22.824 72.4027 23.2987 72.1787 23.736C71.9601 24.1733 71.6454 24.5253 71.2347 24.792C70.8241 25.0587 70.3334 25.192 69.7627 25.192ZM82.0472 25V20.504C82.0472 19.7733 81.8712 19.2187 81.5192 18.84C81.1726 18.456 80.6979 18.264 80.0952 18.264C79.6366 18.264 79.2392 18.3893 78.9032 18.64C78.5672 18.8907 78.3086 19.2507 78.1272 19.72C77.9459 20.184 77.8552 20.7387 77.8552 21.384H77.3752C77.3752 20.4933 77.4926 19.7333 77.7272 19.104C77.9619 18.4747 78.3032 17.9947 78.7512 17.664C79.2046 17.328 79.7539 17.16 80.3992 17.16C81.0019 17.16 81.5166 17.296 81.9432 17.568C82.3752 17.8347 82.7059 18.2187 82.9352 18.72C83.1646 19.2213 83.2792 19.816 83.2792 20.504V25H82.0472ZM76.6072 25V17.352H77.6792L77.8552 19.112V25H76.6072ZM90.7964 25V16.168C90.7964 15.6613 90.8924 15.248 91.0844 14.928C91.2817 14.6027 91.543 14.3627 91.8684 14.208C92.199 14.0533 92.567 13.976 92.9724 13.976C93.191 13.976 93.4124 13.992 93.6364 14.024C93.8657 14.056 94.0924 14.104 94.3164 14.168L94.0764 15.16C93.9164 15.096 93.7564 15.048 93.5964 15.016C93.4417 14.984 93.2924 14.968 93.1484 14.968C92.9777 14.968 92.807 15 92.6364 15.064C92.4657 15.128 92.3244 15.248 92.2124 15.424C92.1004 15.6 92.0444 15.8533 92.0444 16.184V25H90.7964ZM89.5484 18.216V17.352H93.6284V18.216H89.5484ZM96.5644 15.544C96.3084 15.544 96.1057 15.472 95.9564 15.328C95.807 15.1787 95.7324 14.984 95.7324 14.744C95.7324 14.5093 95.807 14.3227 95.9564 14.184C96.1057 14.0453 96.3084 13.976 96.5644 13.976C96.8204 13.976 97.023 14.0453 97.1724 14.184C97.3217 14.3227 97.3964 14.5093 97.3964 14.744C97.3964 14.984 97.3217 15.1787 97.1724 15.328C97.023 15.472 96.8204 15.544 96.5644 15.544ZM95.9404 25V17.336H97.1884V25H95.9404ZM106.23 25V20.504C106.23 19.7733 106.054 19.2187 105.702 18.84C105.356 18.456 104.881 18.264 104.278 18.264C103.82 18.264 103.422 18.3893 103.086 18.64C102.75 18.8907 102.492 19.2507 102.31 19.72C102.129 20.184 102.038 20.7387 102.038 21.384H101.558C101.558 20.4933 101.676 19.7333 101.91 19.104C102.145 18.4747 102.486 17.9947 102.934 17.664C103.388 17.328 103.937 17.16 104.582 17.16C105.185 17.16 105.7 17.296 106.126 17.568C106.558 17.8347 106.889 18.2187 107.118 18.72C107.348 19.2213 107.462 19.816 107.462 20.504V25H106.23ZM100.79 25V17.352H101.862L102.038 19.112V25H100.79ZM113.343 25.192C112.724 25.192 112.156 25.0267 111.639 24.696C111.121 24.36 110.708 23.8907 110.399 23.288C110.089 22.68 109.935 21.9653 109.935 21.144C109.935 20.328 110.087 19.6213 110.391 19.024C110.695 18.4267 111.097 17.968 111.599 17.648C112.105 17.3227 112.66 17.16 113.263 17.16C113.823 17.16 114.313 17.296 114.735 17.568C115.161 17.84 115.492 18.232 115.727 18.744C115.961 19.256 116.079 19.8747 116.079 20.6H115.599C115.599 20.0933 115.497 19.6667 115.295 19.32C115.097 18.9733 114.839 18.712 114.519 18.536C114.199 18.3547 113.855 18.264 113.487 18.264C113.071 18.264 112.689 18.3813 112.343 18.616C112.001 18.8453 111.727 19.176 111.519 19.608C111.316 20.0347 111.215 20.5467 111.215 21.144C111.215 21.752 111.316 22.2747 111.519 22.712C111.727 23.1493 112.001 23.4853 112.343 23.72C112.689 23.9547 113.071 24.072 113.487 24.072C113.833 24.072 114.167 23.9813 114.487 23.8C114.812 23.6187 115.079 23.3547 115.287 23.008C115.495 22.656 115.599 22.232 115.599 21.736H116.079C116.079 22.4773 115.956 23.1067 115.711 23.624C115.471 24.136 115.143 24.5253 114.727 24.792C114.316 25.0587 113.855 25.192 113.343 25.192ZM115.807 25L115.599 23.208V14.088H116.847V25H115.807ZM126.96 25.192C126.219 25.192 125.6 25.088 125.104 24.88C124.608 24.6667 124.232 24.376 123.976 24.008C123.72 23.6347 123.584 23.208 123.568 22.728H124.768C124.795 23.2133 124.989 23.5787 125.352 23.824C125.72 24.064 126.219 24.184 126.848 24.184C127.179 24.184 127.483 24.1307 127.76 24.024C128.037 23.9173 128.259 23.7707 128.424 23.584C128.589 23.3973 128.672 23.1867 128.672 22.952C128.672 22.6533 128.563 22.4187 128.344 22.248C128.125 22.0773 127.776 21.928 127.296 21.8L125.808 21.32C125.163 21.1173 124.667 20.84 124.32 20.488C123.979 20.1307 123.808 19.704 123.808 19.208C123.808 18.5893 124.08 18.0933 124.624 17.72C125.168 17.3467 125.883 17.16 126.768 17.16C127.707 17.16 128.435 17.352 128.952 17.736C129.469 18.12 129.739 18.6 129.76 19.176H128.528C128.48 18.84 128.309 18.5867 128.016 18.416C127.723 18.24 127.307 18.152 126.768 18.152C126.251 18.152 125.845 18.2693 125.552 18.504C125.264 18.7333 125.12 18.9893 125.12 19.272C125.12 19.8 125.573 20.1893 126.48 20.44L128 20.952C128.656 21.1493 129.157 21.408 129.504 21.728C129.856 22.048 130.032 22.456 130.032 22.952C130.032 23.336 129.907 23.6987 129.656 24.04C129.405 24.3813 129.051 24.6587 128.592 24.872C128.133 25.0853 127.589 25.192 126.96 25.192ZM135.542 25.192C134.854 25.192 134.241 25.04 133.702 24.736C133.169 24.432 132.747 23.9813 132.438 23.384C132.129 22.7867 131.974 22.0507 131.974 21.176C131.974 20.296 132.129 19.56 132.438 18.968C132.747 18.3707 133.169 17.92 133.702 17.616C134.241 17.312 134.854 17.16 135.542 17.16C136.225 17.16 136.833 17.312 137.366 17.616C137.905 17.92 138.326 18.3707 138.63 18.968C138.939 19.56 139.094 20.296 139.094 21.176C139.094 22.0507 138.939 22.7867 138.63 23.384C138.326 23.9813 137.905 24.432 137.366 24.736C136.833 25.04 136.225 25.192 135.542 25.192ZM135.51 24.104C136.006 24.104 136.427 23.9867 136.774 23.752C137.121 23.512 137.382 23.1733 137.558 22.736C137.739 22.2987 137.83 21.7787 137.83 21.176C137.83 20.264 137.641 19.5467 137.262 19.024C136.883 18.496 136.321 18.232 135.574 18.232C135.073 18.232 134.649 18.352 134.302 18.592C133.961 18.8267 133.699 19.1653 133.518 19.608C133.342 20.0453 133.254 20.568 133.254 21.176C133.254 22.0773 133.443 22.792 133.822 23.32C134.206 23.8427 134.769 24.104 135.51 24.104ZM152.436 25V20.504C152.436 19.7733 152.26 19.2187 151.908 18.84C151.561 18.456 151.092 18.264 150.5 18.264C149.807 18.264 149.276 18.5333 148.908 19.072C148.54 19.6053 148.356 20.344 148.356 21.288H147.78C147.78 20.6 147.847 19.9973 147.98 19.48C148.119 18.9627 148.319 18.5333 148.58 18.192C148.841 17.8453 149.159 17.5867 149.532 17.416C149.905 17.2453 150.329 17.16 150.804 17.16C151.407 17.16 151.921 17.296 152.348 17.568C152.78 17.8347 153.111 18.2187 153.34 18.72C153.569 19.2213 153.684 19.816 153.684 20.504V25H152.436ZM141.684 25V17.352H142.756L142.9 18.888C143.14 18.3333 143.476 17.9067 143.908 17.608C144.345 17.3093 144.868 17.16 145.476 17.16C146.079 17.16 146.593 17.296 147.02 17.568C147.452 17.8347 147.783 18.2187 148.012 18.72C148.241 19.2213 148.356 19.816 148.356 20.504V25H147.124V20.504C147.124 19.7733 146.948 19.2187 146.596 18.84C146.249 18.456 145.775 18.264 145.172 18.264C144.713 18.264 144.316 18.3893 143.98 18.64C143.644 18.8907 143.385 19.2507 143.204 19.72C143.023 20.184 142.932 20.7387 142.932 21.384V25H141.684ZM159.469 25.192C158.808 25.192 158.216 25.024 157.693 24.688C157.176 24.3467 156.765 23.8747 156.461 23.272C156.162 22.6693 156.013 21.976 156.013 21.192C156.013 20.3547 156.162 19.6347 156.461 19.032C156.76 18.4293 157.168 17.968 157.685 17.648C158.208 17.3227 158.802 17.16 159.469 17.16C160.05 17.16 160.546 17.2773 160.957 17.512C161.368 17.7467 161.698 18.064 161.949 18.464C162.2 18.864 162.373 19.3173 162.469 19.824C162.57 20.3253 162.6 20.8453 162.557 21.384H157.021V20.616H161.733L161.365 20.856C161.381 20.5413 161.362 20.2267 161.309 19.912C161.261 19.5973 161.168 19.3093 161.029 19.048C160.89 18.7813 160.696 18.568 160.445 18.408C160.194 18.248 159.874 18.168 159.485 18.168C158.994 18.168 158.584 18.2933 158.253 18.544C157.922 18.7947 157.674 19.1253 157.509 19.536C157.344 19.9413 157.261 20.3813 157.261 20.856V21.368C157.261 21.9013 157.341 22.3787 157.501 22.8C157.666 23.2213 157.912 23.5547 158.237 23.8C158.562 24.0453 158.973 24.168 159.469 24.168C159.965 24.168 160.373 24.048 160.693 23.808C161.013 23.568 161.208 23.2133 161.277 22.744H162.573C162.493 23.2507 162.312 23.688 162.029 24.056C161.746 24.4187 161.386 24.6987 160.949 24.896C160.512 25.0933 160.018 25.192 159.469 25.192ZM167.544 25.192C167.128 25.192 166.754 25.112 166.424 24.952C166.093 24.792 165.832 24.552 165.64 24.232C165.448 23.912 165.352 23.512 165.352 23.032V15.224H166.584V23C166.584 23.7893 166.952 24.184 167.688 24.184C167.906 24.184 168.117 24.16 168.32 24.112C168.528 24.064 168.76 23.992 169.016 23.896L169.192 24.792C168.92 24.9093 168.648 25.0053 168.376 25.08C168.109 25.1547 167.832 25.192 167.544 25.192ZM164.12 18.216V17.352H169V18.216H164.12ZM176.807 25V20.504C176.807 19.7733 176.631 19.2187 176.279 18.84C175.933 18.456 175.458 18.264 174.855 18.264C174.397 18.264 173.999 18.3893 173.663 18.64C173.327 18.8907 173.069 19.2507 172.887 19.72C172.706 20.184 172.615 20.7387 172.615 21.384H172.135C172.135 20.4933 172.253 19.7333 172.487 19.104C172.722 18.4747 173.063 17.9947 173.511 17.664C173.965 17.328 174.514 17.16 175.159 17.16C175.762 17.16 176.277 17.296 176.703 17.568C177.135 17.8347 177.466 18.2187 177.695 18.72C177.925 19.2213 178.039 19.816 178.039 20.504V25H176.807ZM171.367 25V14.088H172.615V25H171.367ZM181.888 15.544C181.632 15.544 181.429 15.472 181.28 15.328C181.13 15.1787 181.056 14.984 181.056 14.744C181.056 14.5093 181.13 14.3227 181.28 14.184C181.429 14.0453 181.632 13.976 181.888 13.976C182.144 13.976 182.346 14.0453 182.496 14.184C182.645 14.3227 182.72 14.5093 182.72 14.744C182.72 14.984 182.645 15.1787 182.496 15.328C182.346 15.472 182.144 15.544 181.888 15.544ZM181.264 25V17.336H182.512V25H181.264ZM191.549 25V20.504C191.549 19.7733 191.373 19.2187 191.021 18.84C190.674 18.456 190.2 18.264 189.597 18.264C189.138 18.264 188.741 18.3893 188.405 18.64C188.069 18.8907 187.81 19.2507 187.629 19.72C187.448 20.184 187.357 20.7387 187.357 21.384H186.877C186.877 20.4933 186.994 19.7333 187.229 19.104C187.464 18.4747 187.805 17.9947 188.253 17.664C188.706 17.328 189.256 17.16 189.901 17.16C190.504 17.16 191.018 17.296 191.445 17.568C191.877 17.8347 192.208 18.2187 192.437 18.72C192.666 19.2213 192.781 19.816 192.781 20.504V25H191.549ZM186.109 25V17.352H187.181L187.357 19.112V25H186.109ZM198.629 28.936C197.845 28.936 197.165 28.824 196.589 28.6C196.013 28.3813 195.565 28.0853 195.245 27.712C194.931 27.344 194.773 26.936 194.773 26.488C194.773 25.896 194.989 25.4427 195.421 25.128C195.859 24.8187 196.421 24.664 197.109 24.664L197.797 25.096C197.221 25.096 196.776 25.216 196.461 25.456C196.147 25.696 195.989 26.024 195.989 26.44C195.989 26.856 196.213 27.208 196.661 27.496C197.109 27.784 197.765 27.928 198.629 27.928C199.269 27.928 199.829 27.8347 200.309 27.648C200.795 27.4667 201.171 27.2267 201.437 26.928C201.709 26.6347 201.845 26.3173 201.845 25.976C201.845 25.736 201.757 25.528 201.581 25.352C201.405 25.1813 201.136 25.096 200.773 25.096H197.797C197.28 25.096 196.832 25.0187 196.453 24.864C196.08 24.704 195.792 24.496 195.589 24.24C195.387 23.984 195.285 23.704 195.285 23.4C195.285 23.08 195.376 22.808 195.557 22.584C195.739 22.36 195.973 22.1893 196.261 22.072C196.555 21.9547 196.869 21.896 197.205 21.896L197.445 22.36C197.285 22.36 197.123 22.3973 196.957 22.472C196.797 22.5413 196.661 22.648 196.549 22.792C196.443 22.9307 196.389 23.1067 196.389 23.32C196.389 23.5653 196.491 23.7707 196.693 23.936C196.896 24.1013 197.264 24.184 197.797 24.184H200.773C201.493 24.184 202.059 24.336 202.469 24.64C202.885 24.944 203.093 25.368 203.093 25.912C203.093 26.4133 202.915 26.8933 202.557 27.352C202.2 27.816 201.688 28.1947 201.021 28.488C200.355 28.7867 199.557 28.936 198.629 28.936ZM198.853 22.76C198.267 22.76 197.736 22.6427 197.261 22.408C196.792 22.1733 196.419 21.8453 196.141 21.424C195.869 21.0027 195.733 20.5147 195.733 19.96C195.733 19.4 195.869 18.9093 196.141 18.488C196.419 18.0667 196.792 17.7413 197.261 17.512C197.736 17.2773 198.267 17.16 198.853 17.16C199.424 17.16 199.941 17.2773 200.405 17.512C200.875 17.7413 201.248 18.0667 201.525 18.488C201.803 18.9093 201.941 19.4 201.941 19.96C201.941 20.5147 201.803 21.0027 201.525 21.424C201.248 21.8453 200.875 22.1733 200.405 22.408C199.941 22.6427 199.424 22.76 198.853 22.76ZM198.853 21.864C199.44 21.864 199.896 21.6827 200.221 21.32C200.547 20.9573 200.709 20.504 200.709 19.96C200.709 19.4 200.547 18.9467 200.221 18.6C199.896 18.248 199.44 18.072 198.853 18.072C198.272 18.072 197.813 18.248 197.477 18.6C197.147 18.9467 196.981 19.4 196.981 19.96C196.981 20.504 197.147 20.9573 197.477 21.32C197.813 21.6827 198.272 21.864 198.853 21.864ZM201.365 18.376L200.773 18.136C200.773 17.688 200.861 17.296 201.037 16.96C201.213 16.6187 201.464 16.3547 201.789 16.168C202.115 15.976 202.501 15.88 202.949 15.88L202.853 17.112C202.373 17.112 202.005 17.216 201.749 17.424C201.493 17.6267 201.365 17.944 201.365 18.376ZM209.778 15.544C209.522 15.544 209.319 15.472 209.17 15.328C209.02 15.1787 208.946 14.984 208.946 14.744C208.946 14.5093 209.02 14.3227 209.17 14.184C209.319 14.0453 209.522 13.976 209.778 13.976C210.034 13.976 210.236 14.0453 210.386 14.184C210.535 14.3227 210.61 14.5093 210.61 14.744C210.61 14.984 210.535 15.1787 210.386 15.328C210.236 15.472 210.034 15.544 209.778 15.544ZM209.154 25V17.336H210.402V25H209.154ZM219.439 25V20.504C219.439 19.7733 219.263 19.2187 218.911 18.84C218.564 18.456 218.09 18.264 217.487 18.264C217.028 18.264 216.631 18.3893 216.295 18.64C215.959 18.8907 215.7 19.2507 215.519 19.72C215.338 20.184 215.247 20.7387 215.247 21.384H214.767C214.767 20.4933 214.884 19.7333 215.119 19.104C215.354 18.4747 215.695 17.9947 216.143 17.664C216.596 17.328 217.146 17.16 217.791 17.16C218.394 17.16 218.908 17.296 219.335 17.568C219.767 17.8347 220.098 18.2187 220.327 18.72C220.556 19.2213 220.671 19.816 220.671 20.504V25H219.439ZM213.999 25V17.352H215.071L215.247 19.112V25H213.999ZM30.968 45.192C30.552 45.192 30.1787 45.112 29.848 44.952C29.5173 44.792 29.256 44.552 29.064 44.232C28.872 43.912 28.776 43.512 28.776 43.032V35.224H30.008V43C30.008 43.7893 30.376 44.184 31.112 44.184C31.3307 44.184 31.5413 44.16 31.744 44.112C31.952 44.064 32.184 43.992 32.44 43.896L32.616 44.792C32.344 44.9093 32.072 45.0053 31.8 45.08C31.5333 45.1547 31.256 45.192 30.968 45.192ZM27.544 38.216V37.352H32.424V38.216H27.544ZM40.2316 45V40.504C40.2316 39.7733 40.0556 39.2187 39.7036 38.84C39.357 38.456 38.8823 38.264 38.2796 38.264C37.821 38.264 37.4236 38.3893 37.0876 38.64C36.7516 38.8907 36.493 39.2507 36.3116 39.72C36.1303 40.184 36.0396 40.7387 36.0396 41.384H35.5596C35.5596 40.4933 35.677 39.7333 35.9116 39.104C36.1463 38.4747 36.4876 37.9947 36.9356 37.664C37.389 37.328 37.9383 37.16 38.5836 37.16C39.1863 37.16 39.701 37.296 40.1276 37.568C40.5596 37.8347 40.8903 38.2187 41.1196 38.72C41.349 39.2213 41.4636 39.816 41.4636 40.504V45H40.2316ZM34.7916 45V34.088H36.0396V45H34.7916ZM47.2639 45.192C46.6025 45.192 46.0105 45.024 45.4879 44.688C44.9705 44.3467 44.5599 43.8747 44.2559 43.272C43.9572 42.6693 43.8079 41.976 43.8079 41.192C43.8079 40.3547 43.9572 39.6347 44.2559 39.032C44.5545 38.4293 44.9625 37.968 45.4799 37.648C46.0025 37.3227 46.5972 37.16 47.2639 37.16C47.8452 37.16 48.3412 37.2773 48.7519 37.512C49.1625 37.7467 49.4932 38.064 49.7439 38.464C49.9945 38.864 50.1679 39.3173 50.2639 39.824C50.3652 40.3253 50.3945 40.8453 50.3519 41.384H44.8159V40.616H49.5279L49.1599 40.856C49.1759 40.5413 49.1572 40.2267 49.1039 39.912C49.0559 39.5973 48.9625 39.3093 48.8239 39.048C48.6852 38.7813 48.4905 38.568 48.2399 38.408C47.9892 38.248 47.6692 38.168 47.2799 38.168C46.7892 38.168 46.3785 38.2933 46.0479 38.544C45.7172 38.7947 45.4692 39.1253 45.3039 39.536C45.1385 39.9413 45.0559 40.3813 45.0559 40.856V41.368C45.0559 41.9013 45.1359 42.3787 45.2959 42.8C45.4612 43.2213 45.7065 43.5547 46.0319 43.8C46.3572 44.0453 46.7679 44.168 47.2639 44.168C47.7599 44.168 48.1679 44.048 48.4879 43.808C48.8079 43.568 49.0025 43.2133 49.0719 42.744H50.3679C50.2879 43.2507 50.1065 43.688 49.8239 44.056C49.5412 44.4187 49.1812 44.6987 48.7439 44.896C48.3065 45.0933 47.8132 45.192 47.2639 45.192ZM60.4155 45.192C59.8555 45.192 59.3675 45.064 58.9515 44.808C58.5408 44.552 58.2235 44.1787 57.9995 43.688C57.7755 43.192 57.6635 42.5893 57.6635 41.88H58.1915C58.1915 42.3547 58.2902 42.7547 58.4875 43.08C58.6848 43.4053 58.9408 43.6533 59.2555 43.824C59.5755 43.9893 59.9142 44.072 60.2715 44.072C60.6555 44.072 61.0235 43.9627 61.3755 43.744C61.7275 43.52 62.0155 43.192 62.2395 42.76C62.4635 42.328 62.5755 41.7947 62.5755 41.16C62.5755 40.552 62.4715 40.032 62.2635 39.6C62.0608 39.168 61.7862 38.8373 61.4395 38.608C61.0928 38.3787 60.7088 38.264 60.2875 38.264C59.9248 38.264 59.5835 38.352 59.2635 38.528C58.9435 38.704 58.6848 38.9627 58.4875 39.304C58.2902 39.64 58.1915 40.056 58.1915 40.552H57.6635C57.6635 39.8107 57.7862 39.1893 58.0315 38.688C58.2768 38.1813 58.6102 37.8 59.0315 37.544C59.4528 37.288 59.9248 37.16 60.4475 37.16C61.0448 37.16 61.6022 37.32 62.1195 37.64C62.6368 37.96 63.0555 38.4187 63.3755 39.016C63.6955 39.6133 63.8555 40.328 63.8555 41.16C63.8555 42.0027 63.6928 42.7253 63.3675 43.328C63.0475 43.9307 62.6262 44.392 62.1035 44.712C61.5808 45.032 61.0182 45.192 60.4155 45.192ZM56.9435 48.76V37.352H57.9835L58.1915 39.144V48.76H56.9435ZM71.1989 45L71.0389 43.32V40.04C71.0389 39.352 70.8922 38.8587 70.5989 38.56C70.3055 38.256 69.8655 38.104 69.2789 38.104C68.9482 38.104 68.6469 38.152 68.3749 38.248C68.1082 38.344 67.8949 38.4933 67.7349 38.696C67.5802 38.8933 67.5029 39.1493 67.5029 39.464H66.1109C66.1109 38.9093 66.2469 38.464 66.5189 38.128C66.7909 37.7867 67.1642 37.5413 67.6389 37.392C68.1189 37.2373 68.6655 37.16 69.2789 37.16C69.8655 37.16 70.3855 37.2587 70.8389 37.456C71.2922 37.6533 71.6469 37.968 71.9029 38.4C72.1589 38.8267 72.2869 39.384 72.2869 40.072V45H71.1989ZM68.5909 45.192C67.9615 45.192 67.4415 45.08 67.0309 44.856C66.6202 44.632 66.3135 44.3413 66.1109 43.984C65.9082 43.6267 65.8069 43.2507 65.8069 42.856C65.8069 42.3387 65.9349 41.9173 66.1909 41.592C66.4522 41.2667 66.8069 41.0293 67.2549 40.88C67.7029 40.7253 68.2069 40.648 68.7669 40.648C69.1669 40.648 69.5669 40.688 69.9669 40.768C70.3722 40.848 70.7669 40.9573 71.1509 41.096V41.88C70.8309 41.752 70.4682 41.6507 70.0629 41.576C69.6629 41.5013 69.2949 41.464 68.9589 41.464C68.4469 41.464 68.0149 41.5707 67.6629 41.784C67.3109 41.992 67.1349 42.3493 67.1349 42.856C67.1349 43.2293 67.2682 43.5493 67.5349 43.816C67.8069 44.0827 68.2389 44.216 68.8309 44.216C69.2469 44.216 69.6202 44.12 69.9509 43.928C70.2869 43.7307 70.5509 43.4853 70.7429 43.192C70.9402 42.8987 71.0389 42.6053 71.0389 42.312H71.3429C71.3429 42.824 71.2309 43.2987 71.0069 43.736C70.7882 44.1733 70.4735 44.5253 70.0629 44.792C69.6522 45.0587 69.1615 45.192 68.5909 45.192ZM75.4354 45V37.336H76.6834V45H75.4354ZM76.2994 41.544C76.2994 40.5733 76.3927 39.768 76.5794 39.128C76.766 38.4827 77.038 38.0027 77.3954 37.688C77.758 37.368 78.198 37.208 78.7154 37.208C78.886 37.208 79.0407 37.2213 79.1794 37.248C79.3234 37.2693 79.4674 37.304 79.6114 37.352L79.5314 38.584C79.382 38.536 79.2194 38.496 79.0434 38.464C78.8674 38.4267 78.71 38.408 78.5714 38.408C78.118 38.408 77.7527 38.5387 77.4754 38.8C77.198 39.056 76.9954 39.4187 76.8674 39.888C76.7447 40.3573 76.6834 40.9093 76.6834 41.544H76.2994ZM86.1126 45L85.9526 43.32V40.04C85.9526 39.352 85.806 38.8587 85.5126 38.56C85.2193 38.256 84.7793 38.104 84.1926 38.104C83.862 38.104 83.5606 38.152 83.2886 38.248C83.022 38.344 82.8086 38.4933 82.6486 38.696C82.494 38.8933 82.4166 39.1493 82.4166 39.464H81.0246C81.0246 38.9093 81.1606 38.464 81.4326 38.128C81.7046 37.7867 82.078 37.5413 82.5526 37.392C83.0326 37.2373 83.5793 37.16 84.1926 37.16C84.7793 37.16 85.2993 37.2587 85.7526 37.456C86.206 37.6533 86.5606 37.968 86.8166 38.4C87.0726 38.8267 87.2006 39.384 87.2006 40.072V45H86.1126ZM83.5046 45.192C82.8753 45.192 82.3553 45.08 81.9446 44.856C81.534 44.632 81.2273 44.3413 81.0246 43.984C80.822 43.6267 80.7206 43.2507 80.7206 42.856C80.7206 42.3387 80.8486 41.9173 81.1046 41.592C81.366 41.2667 81.7206 41.0293 82.1686 40.88C82.6166 40.7253 83.1206 40.648 83.6806 40.648C84.0806 40.648 84.4806 40.688 84.8806 40.768C85.286 40.848 85.6806 40.9573 86.0646 41.096V41.88C85.7446 41.752 85.382 41.6507 84.9766 41.576C84.5766 41.5013 84.2086 41.464 83.8726 41.464C83.3606 41.464 82.9286 41.5707 82.5766 41.784C82.2246 41.992 82.0486 42.3493 82.0486 42.856C82.0486 43.2293 82.182 43.5493 82.4486 43.816C82.7206 44.0827 83.1526 44.216 83.7446 44.216C84.1606 44.216 84.534 44.12 84.8646 43.928C85.2006 43.7307 85.4646 43.4853 85.6566 43.192C85.854 42.8987 85.9526 42.6053 85.9526 42.312H86.2566C86.2566 42.824 86.1446 43.2987 85.9206 43.736C85.702 44.1733 85.3873 44.5253 84.9766 44.792C84.566 45.0587 84.0753 45.192 83.5046 45.192ZM93.0531 48.936C92.2691 48.936 91.5891 48.824 91.0131 48.6C90.4371 48.3813 89.9891 48.0853 89.6691 47.712C89.3545 47.344 89.1971 46.936 89.1971 46.488C89.1971 45.896 89.4131 45.4427 89.8451 45.128C90.2825 44.8187 90.8451 44.664 91.5331 44.664L92.2211 45.096C91.6451 45.096 91.1998 45.216 90.8851 45.456C90.5705 45.696 90.4131 46.024 90.4131 46.44C90.4131 46.856 90.6371 47.208 91.0851 47.496C91.5331 47.784 92.1891 47.928 93.0531 47.928C93.6931 47.928 94.2531 47.8347 94.7331 47.648C95.2185 47.4667 95.5945 47.2267 95.8611 46.928C96.1331 46.6347 96.2691 46.3173 96.2691 45.976C96.2691 45.736 96.1811 45.528 96.0051 45.352C95.8291 45.1813 95.5598 45.096 95.1971 45.096H92.2211C91.7038 45.096 91.2558 45.0187 90.8771 44.864C90.5038 44.704 90.2158 44.496 90.0131 44.24C89.8105 43.984 89.7091 43.704 89.7091 43.4C89.7091 43.08 89.7998 42.808 89.9811 42.584C90.1625 42.36 90.3971 42.1893 90.6851 42.072C90.9785 41.9547 91.2931 41.896 91.6291 41.896L91.8691 42.36C91.7091 42.36 91.5465 42.3973 91.3811 42.472C91.2211 42.5413 91.0851 42.648 90.9731 42.792C90.8665 42.9307 90.8131 43.1067 90.8131 43.32C90.8131 43.5653 90.9145 43.7707 91.1171 43.936C91.3198 44.1013 91.6878 44.184 92.2211 44.184H95.1971C95.9171 44.184 96.4825 44.336 96.8931 44.64C97.3091 44.944 97.5171 45.368 97.5171 45.912C97.5171 46.4133 97.3385 46.8933 96.9811 47.352C96.6238 47.816 96.1118 48.1947 95.4451 48.488C94.7785 48.7867 93.9811 48.936 93.0531 48.936ZM93.2771 42.76C92.6905 42.76 92.1598 42.6427 91.6851 42.408C91.2158 42.1733 90.8425 41.8453 90.5651 41.424C90.2931 41.0027 90.1571 40.5147 90.1571 39.96C90.1571 39.4 90.2931 38.9093 90.5651 38.488C90.8425 38.0667 91.2158 37.7413 91.6851 37.512C92.1598 37.2773 92.6905 37.16 93.2771 37.16C93.8478 37.16 94.3651 37.2773 94.8291 37.512C95.2985 37.7413 95.6718 38.0667 95.9491 38.488C96.2265 38.9093 96.3651 39.4 96.3651 39.96C96.3651 40.5147 96.2265 41.0027 95.9491 41.424C95.6718 41.8453 95.2985 42.1733 94.8291 42.408C94.3651 42.6427 93.8478 42.76 93.2771 42.76ZM93.2771 41.864C93.8638 41.864 94.3198 41.6827 94.6451 41.32C94.9705 40.9573 95.1331 40.504 95.1331 39.96C95.1331 39.4 94.9705 38.9467 94.6451 38.6C94.3198 38.248 93.8638 38.072 93.2771 38.072C92.6958 38.072 92.2371 38.248 91.9011 38.6C91.5705 38.9467 91.4051 39.4 91.4051 39.96C91.4051 40.504 91.5705 40.9573 91.9011 41.32C92.2371 41.6827 92.6958 41.864 93.2771 41.864ZM95.7891 38.376L95.1971 38.136C95.1971 37.688 95.2851 37.296 95.4611 36.96C95.6371 36.6187 95.8878 36.3547 96.2131 36.168C96.5385 35.976 96.9251 35.88 97.3731 35.88L97.2771 37.112C96.7971 37.112 96.4291 37.216 96.1731 37.424C95.9171 37.6267 95.7891 37.944 95.7891 38.376ZM99.5404 45V37.336H100.788V45H99.5404ZM100.404 41.544C100.404 40.5733 100.498 39.768 100.684 39.128C100.871 38.4827 101.143 38.0027 101.5 37.688C101.863 37.368 102.303 37.208 102.82 37.208C102.991 37.208 103.146 37.2213 103.284 37.248C103.428 37.2693 103.572 37.304 103.716 37.352L103.636 38.584C103.487 38.536 103.324 38.496 103.148 38.464C102.972 38.4267 102.815 38.408 102.676 38.408C102.223 38.408 101.858 38.5387 101.58 38.8C101.303 39.056 101.1 39.4187 100.972 39.888C100.85 40.3573 100.788 40.9093 100.788 41.544H100.404ZM110.218 45L110.058 43.32V40.04C110.058 39.352 109.911 38.8587 109.618 38.56C109.324 38.256 108.884 38.104 108.298 38.104C107.967 38.104 107.666 38.152 107.394 38.248C107.127 38.344 106.914 38.4933 106.754 38.696C106.599 38.8933 106.522 39.1493 106.522 39.464H105.13C105.13 38.9093 105.266 38.464 105.538 38.128C105.81 37.7867 106.183 37.5413 106.658 37.392C107.138 37.2373 107.684 37.16 108.298 37.16C108.884 37.16 109.404 37.2587 109.858 37.456C110.311 37.6533 110.666 37.968 110.922 38.4C111.178 38.8267 111.306 39.384 111.306 40.072V45H110.218ZM107.61 45.192C106.98 45.192 106.46 45.08 106.05 44.856C105.639 44.632 105.332 44.3413 105.13 43.984C104.927 43.6267 104.826 43.2507 104.826 42.856C104.826 42.3387 104.954 41.9173 105.21 41.592C105.471 41.2667 105.826 41.0293 106.274 40.88C106.722 40.7253 107.226 40.648 107.786 40.648C108.186 40.648 108.586 40.688 108.986 40.768C109.391 40.848 109.786 40.9573 110.17 41.096V41.88C109.85 41.752 109.487 41.6507 109.082 41.576C108.682 41.5013 108.314 41.464 107.978 41.464C107.466 41.464 107.034 41.5707 106.682 41.784C106.33 41.992 106.154 42.3493 106.154 42.856C106.154 43.2293 106.287 43.5493 106.554 43.816C106.826 44.0827 107.258 44.216 107.85 44.216C108.266 44.216 108.639 44.12 108.97 43.928C109.306 43.7307 109.57 43.4853 109.762 43.192C109.959 42.8987 110.058 42.6053 110.058 42.312H110.362C110.362 42.824 110.25 43.2987 110.026 43.736C109.807 44.1733 109.492 44.5253 109.082 44.792C108.671 45.0587 108.18 45.192 107.61 45.192ZM117.926 45.192C117.366 45.192 116.878 45.064 116.462 44.808C116.051 44.552 115.734 44.1787 115.51 43.688C115.286 43.192 115.174 42.5893 115.174 41.88H115.702C115.702 42.3547 115.801 42.7547 115.998 43.08C116.195 43.4053 116.451 43.6533 116.766 43.824C117.086 43.9893 117.425 44.072 117.782 44.072C118.166 44.072 118.534 43.9627 118.886 43.744C119.238 43.52 119.526 43.192 119.75 42.76C119.974 42.328 120.086 41.7947 120.086 41.16C120.086 40.552 119.982 40.032 119.774 39.6C119.571 39.168 119.297 38.8373 118.95 38.608C118.603 38.3787 118.219 38.264 117.798 38.264C117.435 38.264 117.094 38.352 116.774 38.528C116.454 38.704 116.195 38.9627 115.998 39.304C115.801 39.64 115.702 40.056 115.702 40.552H115.174C115.174 39.8107 115.297 39.1893 115.542 38.688C115.787 38.1813 116.121 37.8 116.542 37.544C116.963 37.288 117.435 37.16 117.958 37.16C118.555 37.16 119.113 37.32 119.63 37.64C120.147 37.96 120.566 38.4187 120.886 39.016C121.206 39.6133 121.366 40.328 121.366 41.16C121.366 42.0027 121.203 42.7253 120.878 43.328C120.558 43.9307 120.137 44.392 119.614 44.712C119.091 45.032 118.529 45.192 117.926 45.192ZM114.454 48.76V37.352H115.494L115.702 39.144V48.76H114.454ZM129.413 45V40.504C129.413 39.7733 129.237 39.2187 128.885 38.84C128.539 38.456 128.064 38.264 127.461 38.264C127.003 38.264 126.605 38.3893 126.269 38.64C125.933 38.8907 125.675 39.2507 125.493 39.72C125.312 40.184 125.221 40.7387 125.221 41.384H124.741C124.741 40.4933 124.859 39.7333 125.093 39.104C125.328 38.4747 125.669 37.9947 126.117 37.664C126.571 37.328 127.12 37.16 127.765 37.16C128.368 37.16 128.883 37.296 129.309 37.568C129.741 37.8347 130.072 38.2187 130.301 38.72C130.531 39.2213 130.645 39.816 130.645 40.504V45H129.413ZM123.973 45V34.088H125.221V45H123.973ZM142.483 45L142.323 43.32V40.04C142.323 39.352 142.176 38.8587 141.883 38.56C141.589 38.256 141.149 38.104 140.563 38.104C140.232 38.104 139.931 38.152 139.659 38.248C139.392 38.344 139.179 38.4933 139.019 38.696C138.864 38.8933 138.787 39.1493 138.787 39.464H137.395C137.395 38.9093 137.531 38.464 137.803 38.128C138.075 37.7867 138.448 37.5413 138.923 37.392C139.403 37.2373 139.949 37.16 140.563 37.16C141.149 37.16 141.669 37.2587 142.123 37.456C142.576 37.6533 142.931 37.968 143.187 38.4C143.443 38.8267 143.571 39.384 143.571 40.072V45H142.483ZM139.875 45.192C139.245 45.192 138.725 45.08 138.315 44.856C137.904 44.632 137.597 44.3413 137.395 43.984C137.192 43.6267 137.091 43.2507 137.091 42.856C137.091 42.3387 137.219 41.9173 137.475 41.592C137.736 41.2667 138.091 41.0293 138.539 40.88C138.987 40.7253 139.491 40.648 140.051 40.648C140.451 40.648 140.851 40.688 141.251 40.768C141.656 40.848 142.051 40.9573 142.435 41.096V41.88C142.115 41.752 141.752 41.6507 141.347 41.576C140.947 41.5013 140.579 41.464 140.243 41.464C139.731 41.464 139.299 41.5707 138.947 41.784C138.595 41.992 138.419 42.3493 138.419 42.856C138.419 43.2293 138.552 43.5493 138.819 43.816C139.091 44.0827 139.523 44.216 140.115 44.216C140.531 44.216 140.904 44.12 141.235 43.928C141.571 43.7307 141.835 43.4853 142.027 43.192C142.224 42.8987 142.323 42.6053 142.323 42.312H142.627C142.627 42.824 142.515 43.2987 142.291 43.736C142.072 44.1733 141.757 44.5253 141.347 44.792C140.936 45.0587 140.445 45.192 139.875 45.192ZM150.223 45.192C149.711 45.192 149.247 45.0587 148.831 44.792C148.42 44.5253 148.092 44.136 147.847 43.624C147.607 43.1067 147.487 42.4773 147.487 41.736H147.967C147.967 42.232 148.068 42.656 148.271 43.008C148.479 43.3547 148.746 43.6187 149.071 43.8C149.396 43.9813 149.738 44.072 150.095 44.072C150.506 44.072 150.882 43.9547 151.223 43.72C151.564 43.4853 151.836 43.1493 152.039 42.712C152.247 42.2747 152.351 41.752 152.351 41.144C152.351 40.5467 152.25 40.0347 152.047 39.608C151.844 39.176 151.57 38.8453 151.223 38.616C150.882 38.3813 150.5 38.264 150.079 38.264C149.716 38.264 149.372 38.3547 149.047 38.536C148.727 38.712 148.466 38.9733 148.263 39.32C148.066 39.6667 147.967 40.0933 147.967 40.6H147.487C147.487 39.8747 147.604 39.256 147.839 38.744C148.079 38.232 148.41 37.84 148.831 37.568C149.252 37.296 149.743 37.16 150.303 37.16C150.906 37.16 151.458 37.3227 151.959 37.648C152.466 37.968 152.871 38.4267 153.175 39.024C153.479 39.6213 153.631 40.328 153.631 41.144C153.631 41.9653 153.476 42.68 153.167 43.288C152.858 43.8907 152.444 44.36 151.927 44.696C151.41 45.0267 150.842 45.192 150.223 45.192ZM146.719 45V34.088H147.967V43.208L147.599 45H146.719ZM159.131 45.192C158.443 45.192 157.83 45.04 157.291 44.736C156.758 44.432 156.337 43.9813 156.027 43.384C155.718 42.7867 155.563 42.0507 155.563 41.176C155.563 40.296 155.718 39.56 156.027 38.968C156.337 38.3707 156.758 37.92 157.291 37.616C157.83 37.312 158.443 37.16 159.131 37.16C159.814 37.16 160.422 37.312 160.955 37.616C161.494 37.92 161.915 38.3707 162.219 38.968C162.529 39.56 162.683 40.296 162.683 41.176C162.683 42.0507 162.529 42.7867 162.219 43.384C161.915 43.9813 161.494 44.432 160.955 44.736C160.422 45.04 159.814 45.192 159.131 45.192ZM159.099 44.104C159.595 44.104 160.017 43.9867 160.363 43.752C160.71 43.512 160.971 43.1733 161.147 42.736C161.329 42.2987 161.419 41.7787 161.419 41.176C161.419 40.264 161.23 39.5467 160.851 39.024C160.473 38.496 159.91 38.232 159.163 38.232C158.662 38.232 158.238 38.352 157.891 38.592C157.55 38.8267 157.289 39.1653 157.107 39.608C156.931 40.0453 156.843 40.568 156.843 41.176C156.843 42.0773 157.033 42.792 157.411 43.32C157.795 43.8427 158.358 44.104 159.099 44.104ZM170.474 37.336H171.722V45H170.474V37.336ZM165.05 37.336H166.298V42.104C166.298 42.744 166.452 43.2293 166.762 43.56C167.076 43.8907 167.524 44.056 168.106 44.056C168.586 44.056 169.002 43.928 169.354 43.672C169.711 43.416 169.986 43.064 170.178 42.616C170.375 42.1627 170.474 41.6453 170.474 41.064H170.938C170.938 41.9227 170.812 42.656 170.562 43.264C170.316 43.872 169.967 44.3387 169.514 44.664C169.066 44.984 168.538 45.144 167.93 45.144C167.354 45.144 166.85 45.0373 166.418 44.824C165.986 44.6107 165.65 44.288 165.41 43.856C165.17 43.4187 165.05 42.8667 165.05 42.2V37.336ZM177.473 45.192C177.057 45.192 176.684 45.112 176.353 44.952C176.022 44.792 175.761 44.552 175.569 44.232C175.377 43.912 175.281 43.512 175.281 43.032V35.224H176.513V43C176.513 43.7893 176.881 44.184 177.617 44.184C177.836 44.184 178.046 44.16 178.249 44.112C178.457 44.064 178.689 43.992 178.945 43.896L179.121 44.792C178.849 44.9093 178.577 45.0053 178.305 45.08C178.038 45.1547 177.761 45.192 177.473 45.192ZM174.049 38.216V37.352H178.929V38.216H174.049ZM32.264 65.224C31.352 65.224 30.5573 65.008 29.88 64.576C29.208 64.1387 28.6853 63.5147 28.312 62.704C27.9387 61.8933 27.752 60.92 27.752 59.784C27.752 58.6107 27.944 57.6267 28.328 56.832C28.7173 56.032 29.2507 55.4293 29.928 55.024C30.6107 54.6133 31.3893 54.408 32.264 54.408C33.4747 54.408 34.4187 54.7013 35.096 55.288C35.7787 55.8747 36.216 56.6373 36.408 57.576L34.392 57.944C34.2267 57.4 33.9627 56.96 33.6 56.624C33.2373 56.288 32.792 56.12 32.264 56.12C31.8 56.12 31.3813 56.256 31.008 56.528C30.6347 56.7947 30.336 57.2 30.112 57.744C29.8933 58.288 29.784 58.968 29.784 59.784C29.784 60.552 29.88 61.2133 30.072 61.768C30.2693 62.3227 30.552 62.7493 30.92 63.048C31.288 63.3467 31.736 63.496 32.264 63.496C32.9413 63.496 33.464 63.3173 33.832 62.96C34.2053 62.5973 34.392 62.136 34.392 61.576H36.408C36.408 62.3493 36.24 63.008 35.904 63.552C35.5733 64.0907 35.0987 64.504 34.48 64.792C33.8613 65.08 33.1227 65.224 32.264 65.224ZM38.7726 65V54.616H45.4446V56.248H40.6606V58.984H45.1566V60.616H40.6606V63.352H45.4446V65H38.7726ZM48.3392 65V54.616H52.1792C53.4219 54.616 54.3739 54.9067 55.0352 55.488C55.7019 56.0693 56.0352 56.84 56.0352 57.8C56.0352 58.744 55.7019 59.5067 55.0352 60.088C54.3739 60.664 53.4219 60.952 52.1792 60.952H50.2272V65H48.3392ZM53.9553 65L51.2032 60.136H53.2193L56.4193 65H53.9553ZM50.2272 59.688H51.9872C52.6806 59.688 53.2059 59.5307 53.5633 59.216C53.9206 58.896 54.0992 58.4827 54.0992 57.976C54.0992 57.4587 53.9366 57.0427 53.6112 56.728C53.2859 56.408 52.8086 56.248 52.1792 56.248H50.2272V59.688ZM57.6601 65L61.1961 54.616H63.5641L66.9561 65H64.9721L64.2521 62.76H60.3961L59.6601 65H57.6601ZM60.8761 61.336H63.8041L62.3481 56.872L60.8761 61.336ZM68.9717 54.616H71.6757L74.6037 60.968H74.4437L77.3717 54.616H79.9797V65H78.0758V56.792H78.3637L75.1317 63.864H73.8997L70.6837 56.824H70.8597V65H68.9717V54.616ZM83.1161 65V54.616H85.0041V65H83.1161ZM91.9271 65.224C91.0151 65.224 90.2205 65.008 89.5431 64.576C88.8711 64.1387 88.3485 63.5147 87.9751 62.704C87.6018 61.8933 87.4151 60.92 87.4151 59.784C87.4151 58.6107 87.6071 57.6267 87.9911 56.832C88.3805 56.032 88.9138 55.4293 89.5911 55.024C90.2738 54.6133 91.0525 54.408 91.9271 54.408C93.1378 54.408 94.0818 54.7013 94.7591 55.288C95.4418 55.8747 95.8791 56.6373 96.0711 57.576L94.0551 57.944C93.8898 57.4 93.6258 56.96 93.2631 56.624C92.9005 56.288 92.4551 56.12 91.9271 56.12C91.4631 56.12 91.0445 56.256 90.6711 56.528C90.2978 56.7947 89.9991 57.2 89.7751 57.744C89.5565 58.288 89.4471 58.968 89.4471 59.784C89.4471 60.552 89.5431 61.2133 89.7351 61.768C89.9325 62.3227 90.2151 62.7493 90.5831 63.048C90.9511 63.3467 91.3991 63.496 91.9271 63.496C92.6045 63.496 93.1271 63.3173 93.4951 62.96C93.8685 62.5973 94.0551 62.136 94.0551 61.576H96.0711C96.0711 62.3493 95.9031 63.008 95.5671 63.552C95.2365 64.0907 94.7618 64.504 94.1431 64.792C93.5245 65.08 92.7858 65.224 91.9271 65.224ZM102.611 65V54.616H106.275C107.443 54.616 108.352 54.904 109.003 55.48C109.659 56.056 109.987 56.872 109.987 57.928C109.987 58.9733 109.659 59.784 109.003 60.36C108.352 60.936 107.443 61.224 106.275 61.224H104.515V65H102.611ZM104.515 59.576H106.275C106.861 59.576 107.304 59.4213 107.603 59.112C107.901 58.8027 108.051 58.408 108.051 57.928C108.051 57.4373 107.901 57.0347 107.603 56.72C107.304 56.4053 106.861 56.248 106.275 56.248H104.515V59.576ZM112.1 65V54.616H115.94C117.183 54.616 118.135 54.9067 118.796 55.488C119.463 56.0693 119.796 56.84 119.796 57.8C119.796 58.744 119.463 59.5067 118.796 60.088C118.135 60.664 117.183 60.952 115.94 60.952H113.988V65H112.1ZM117.716 65L114.964 60.136H116.98L120.18 65H117.716ZM113.988 59.688H115.748C116.441 59.688 116.967 59.5307 117.324 59.216C117.681 58.896 117.86 58.4827 117.86 57.976C117.86 57.4587 117.697 57.0427 117.372 56.728C117.047 56.408 116.569 56.248 115.94 56.248H113.988V59.688ZM126.525 65.224C125.602 65.224 124.786 65.0213 124.077 64.616C123.373 64.2107 122.821 63.6053 122.421 62.8C122.021 61.9947 121.821 60.9947 121.821 59.8C121.821 58.584 122.021 57.5787 122.421 56.784C122.821 55.984 123.373 55.3893 124.077 55C124.786 54.6053 125.602 54.408 126.525 54.408C127.453 54.408 128.271 54.6107 128.981 55.016C129.69 55.416 130.245 56.016 130.645 56.816C131.045 57.616 131.245 58.6107 131.245 59.8C131.245 61.0107 131.045 62.0187 130.645 62.824C130.245 63.6293 129.69 64.232 128.981 64.632C128.271 65.0267 127.453 65.224 126.525 65.224ZM126.525 63.512C127.373 63.512 128.045 63.192 128.541 62.552C129.042 61.912 129.293 60.9893 129.293 59.784C129.293 58.6213 129.042 57.7173 128.541 57.072C128.045 56.4267 127.373 56.104 126.525 56.104C125.693 56.104 125.026 56.4293 124.525 57.08C124.023 57.7253 123.773 58.632 123.773 59.8C123.773 61 124.023 61.92 124.525 62.56C125.026 63.1947 125.693 63.512 126.525 63.512ZM133.639 54.616H136.999C138.055 54.616 138.98 54.8293 139.775 55.256C140.569 55.6773 141.188 56.2773 141.631 57.056C142.073 57.8347 142.295 58.7547 142.295 59.816C142.295 60.8667 142.073 61.7813 141.631 62.56C141.188 63.3333 140.569 63.9333 139.775 64.36C138.98 64.7867 138.055 65 136.999 65H133.639V54.616ZM135.527 56.328V63.304H136.999C137.671 63.304 138.249 63.152 138.735 62.848C139.225 62.544 139.601 62.1307 139.863 61.608C140.129 61.08 140.263 60.4827 140.263 59.816C140.263 59.1387 140.129 58.5387 139.863 58.016C139.601 57.4933 139.225 57.0827 138.735 56.784C138.249 56.48 137.671 56.328 136.999 56.328H135.527ZM144.623 54.616H146.511V61.08C146.511 61.9333 146.727 62.5493 147.159 62.928C147.596 63.3067 148.154 63.496 148.831 63.496C149.514 63.496 150.071 63.3067 150.503 62.928C150.935 62.5493 151.151 61.9333 151.151 61.08V54.616H153.039V61.08C153.039 61.9547 152.871 62.7013 152.535 63.32C152.199 63.9387 151.716 64.4107 151.087 64.736C150.463 65.0613 149.711 65.224 148.831 65.224C147.951 65.224 147.196 65.0613 146.567 64.736C145.943 64.4107 145.463 63.9387 145.127 63.32C144.791 62.7013 144.623 61.9547 144.623 61.08V54.616ZM159.766 65.224C158.854 65.224 158.059 65.008 157.382 64.576C156.71 64.1387 156.187 63.5147 155.814 62.704C155.441 61.8933 155.254 60.92 155.254 59.784C155.254 58.6107 155.446 57.6267 155.83 56.832C156.219 56.032 156.753 55.4293 157.43 55.024C158.113 54.6133 158.891 54.408 159.766 54.408C160.977 54.408 161.921 54.7013 162.598 55.288C163.281 55.8747 163.718 56.6373 163.91 57.576L161.894 57.944C161.729 57.4 161.465 56.96 161.102 56.624C160.739 56.288 160.294 56.12 159.766 56.12C159.302 56.12 158.883 56.256 158.51 56.528C158.137 56.7947 157.838 57.2 157.614 57.744C157.395 58.288 157.286 58.968 157.286 59.784C157.286 60.552 157.382 61.2133 157.574 61.768C157.771 62.3227 158.054 62.7493 158.422 63.048C158.79 63.3467 159.238 63.496 159.766 63.496C160.443 63.496 160.966 63.3173 161.334 62.96C161.707 62.5973 161.894 62.136 161.894 61.576H163.91C163.91 62.3493 163.742 63.008 163.406 63.552C163.075 64.0907 162.601 64.504 161.982 64.792C161.363 65.08 160.625 65.224 159.766 65.224ZM164.899 56.248V54.616H173.219V56.248H169.579L170.003 55.816V65H168.115V55.816L168.539 56.248H164.899ZM178.566 65.224C177.846 65.224 177.182 65.0987 176.574 64.848C175.972 64.5973 175.481 64.216 175.102 63.704C174.729 63.192 174.529 62.5413 174.502 61.752H176.358C176.358 62.152 176.457 62.48 176.654 62.736C176.852 62.992 177.116 63.184 177.446 63.312C177.782 63.4347 178.15 63.496 178.55 63.496C178.934 63.496 179.276 63.4453 179.574 63.344C179.878 63.2427 180.116 63.0987 180.286 62.912C180.462 62.72 180.55 62.4933 180.55 62.232C180.55 61.8853 180.444 61.6133 180.23 61.416C180.022 61.2187 179.686 61.0373 179.222 60.872L177.174 60.056C176.374 59.7413 175.761 59.376 175.334 58.96C174.908 58.544 174.694 57.9707 174.694 57.24C174.694 56.3973 175.028 55.7147 175.694 55.192C176.361 54.6693 177.292 54.408 178.486 54.408C179.649 54.408 180.548 54.68 181.182 55.224C181.817 55.7627 182.177 56.5147 182.262 57.48H180.406C180.337 57.0693 180.15 56.7413 179.846 56.496C179.542 56.2453 179.089 56.12 178.486 56.12C177.953 56.12 177.532 56.232 177.222 56.456C176.913 56.6747 176.758 56.952 176.758 57.288C176.758 57.576 176.854 57.8053 177.046 57.976C177.244 58.1413 177.548 58.3013 177.958 58.456L180.23 59.336C180.998 59.6347 181.588 60.0107 181.998 60.464C182.409 60.9173 182.614 61.4853 182.614 62.168C182.614 62.792 182.457 63.3333 182.142 63.792C181.828 64.2453 181.369 64.5973 180.766 64.848C180.164 65.0987 179.43 65.224 178.566 65.224ZM190.353 55.544C190.097 55.544 189.894 55.472 189.745 55.328C189.595 55.1787 189.521 54.984 189.521 54.744C189.521 54.5093 189.595 54.3227 189.745 54.184C189.894 54.0453 190.097 53.976 190.353 53.976C190.609 53.976 190.811 54.0453 190.961 54.184C191.11 54.3227 191.185 54.5093 191.185 54.744C191.185 54.984 191.11 55.1787 190.961 55.328C190.811 55.472 190.609 55.544 190.353 55.544ZM189.729 65V57.336H190.977V65H189.729ZM200.014 65V60.504C200.014 59.7733 199.838 59.2187 199.486 58.84C199.139 58.456 198.665 58.264 198.062 58.264C197.603 58.264 197.206 58.3893 196.87 58.64C196.534 58.8907 196.275 59.2507 196.094 59.72C195.913 60.184 195.822 60.7387 195.822 61.384H195.342C195.342 60.4933 195.459 59.7333 195.694 59.104C195.929 58.4747 196.27 57.9947 196.718 57.664C197.171 57.328 197.721 57.16 198.366 57.16C198.969 57.16 199.483 57.296 199.91 57.568C200.342 57.8347 200.673 58.2187 200.902 58.72C201.131 59.2213 201.246 59.816 201.246 60.504V65H200.014ZM194.574 65V57.352H195.646L195.822 59.112V65H194.574ZM210.699 65.192C210.283 65.192 209.91 65.112 209.579 64.952C209.249 64.792 208.987 64.552 208.795 64.232C208.603 63.912 208.507 63.512 208.507 63.032V55.224H209.739V63C209.739 63.7893 210.107 64.184 210.843 64.184C211.062 64.184 211.273 64.16 211.475 64.112C211.683 64.064 211.915 63.992 212.171 63.896L212.347 64.792C212.075 64.9093 211.803 65.0053 211.531 65.08C211.265 65.1547 210.987 65.192 210.699 65.192ZM207.275 58.216V57.352H212.155V58.216H207.275ZM219.963 65V60.504C219.963 59.7733 219.787 59.2187 219.435 58.84C219.088 58.456 218.614 58.264 218.011 58.264C217.552 58.264 217.155 58.3893 216.819 58.64C216.483 58.8907 216.224 59.2507 216.043 59.72C215.862 60.184 215.771 60.7387 215.771 61.384H215.291C215.291 60.4933 215.408 59.7333 215.643 59.104C215.878 58.4747 216.219 57.9947 216.667 57.664C217.12 57.328 217.67 57.16 218.315 57.16C218.918 57.16 219.432 57.296 219.859 57.568C220.291 57.8347 220.622 58.2187 220.851 58.72C221.08 59.2213 221.195 59.816 221.195 60.504V65H219.963ZM214.523 65V54.088H215.771V65H214.523ZM226.995 65.192C226.334 65.192 225.742 65.024 225.219 64.688C224.702 64.3467 224.291 63.8747 223.987 63.272C223.688 62.6693 223.539 61.976 223.539 61.192C223.539 60.3547 223.688 59.6347 223.987 59.032C224.286 58.4293 224.694 57.968 225.211 57.648C225.734 57.3227 226.328 57.16 226.995 57.16C227.576 57.16 228.072 57.2773 228.483 57.512C228.894 57.7467 229.224 58.064 229.475 58.464C229.726 58.864 229.899 59.3173 229.995 59.824C230.096 60.3253 230.126 60.8453 230.083 61.384H224.547V60.616H229.259L228.891 60.856C228.907 60.5413 228.888 60.2267 228.835 59.912C228.787 59.5973 228.694 59.3093 228.555 59.048C228.416 58.7813 228.222 58.568 227.971 58.408C227.72 58.248 227.4 58.168 227.011 58.168C226.52 58.168 226.11 58.2933 225.779 58.544C225.448 58.7947 225.2 59.1253 225.035 59.536C224.87 59.9413 224.787 60.3813 224.787 60.856V61.368C224.787 61.9013 224.867 62.3787 225.027 62.8C225.192 63.2213 225.438 63.5547 225.763 63.8C226.088 64.0453 226.499 64.168 226.995 64.168C227.491 64.168 227.899 64.048 228.219 63.808C228.539 63.568 228.734 63.2133 228.803 62.744H230.099C230.019 63.2507 229.838 63.688 229.555 64.056C229.272 64.4187 228.912 64.6987 228.475 64.896C228.038 65.0933 227.544 65.192 226.995 65.192ZM32.088 85.192C31.528 85.192 31.04 85.064 30.624 84.808C30.2133 84.552 29.896 84.1787 29.672 83.688C29.448 83.192 29.336 82.5893 29.336 81.88H29.864C29.864 82.3547 29.9627 82.7547 30.16 83.08C30.3573 83.4053 30.6133 83.6533 30.928 83.824C31.248 83.9893 31.5867 84.072 31.944 84.072C32.328 84.072 32.696 83.9627 33.048 83.744C33.4 83.52 33.688 83.192 33.912 82.76C34.136 82.328 34.248 81.7947 34.248 81.16C34.248 80.552 34.144 80.032 33.936 79.6C33.7333 79.168 33.4587 78.8373 33.112 78.608C32.7653 78.3787 32.3813 78.264 31.96 78.264C31.5973 78.264 31.256 78.352 30.936 78.528C30.616 78.704 30.3573 78.9627 30.16 79.304C29.9627 79.64 29.864 80.056 29.864 80.552H29.336C29.336 79.8107 29.4587 79.1893 29.704 78.688C29.9493 78.1813 30.2827 77.8 30.704 77.544C31.1253 77.288 31.5973 77.16 32.12 77.16C32.7173 77.16 33.2747 77.32 33.792 77.64C34.3093 77.96 34.728 78.4187 35.048 79.016C35.368 79.6133 35.528 80.328 35.528 81.16C35.528 82.0027 35.3653 82.7253 35.04 83.328C34.72 83.9307 34.2987 84.392 33.776 84.712C33.2533 85.032 32.6907 85.192 32.088 85.192ZM28.616 88.76V77.352H29.656L29.864 79.144V88.76H28.616ZM42.8714 85L42.7114 83.32V80.04C42.7114 79.352 42.5647 78.8587 42.2714 78.56C41.978 78.256 41.538 78.104 40.9514 78.104C40.6207 78.104 40.3194 78.152 40.0474 78.248C39.7807 78.344 39.5674 78.4933 39.4074 78.696C39.2527 78.8933 39.1754 79.1493 39.1754 79.464H37.7834C37.7834 78.9093 37.9194 78.464 38.1914 78.128C38.4634 77.7867 38.8367 77.5413 39.3114 77.392C39.7914 77.2373 40.338 77.16 40.9514 77.16C41.538 77.16 42.058 77.2587 42.5114 77.456C42.9647 77.6533 43.3194 77.968 43.5754 78.4C43.8314 78.8267 43.9594 79.384 43.9594 80.072V85H42.8714ZM40.2634 85.192C39.634 85.192 39.114 85.08 38.7034 84.856C38.2927 84.632 37.986 84.3413 37.7834 83.984C37.5807 83.6267 37.4794 83.2507 37.4794 82.856C37.4794 82.3387 37.6074 81.9173 37.8634 81.592C38.1247 81.2667 38.4794 81.0293 38.9274 80.88C39.3754 80.7253 39.8794 80.648 40.4394 80.648C40.8394 80.648 41.2394 80.688 41.6394 80.768C42.0447 80.848 42.4394 80.9573 42.8234 81.096V81.88C42.5034 81.752 42.1407 81.6507 41.7354 81.576C41.3354 81.5013 40.9674 81.464 40.6314 81.464C40.1194 81.464 39.6874 81.5707 39.3354 81.784C38.9834 81.992 38.8074 82.3493 38.8074 82.856C38.8074 83.2293 38.9407 83.5493 39.2074 83.816C39.4794 84.0827 39.9114 84.216 40.5034 84.216C40.9194 84.216 41.2927 84.12 41.6234 83.928C41.9594 83.7307 42.2234 83.4853 42.4154 83.192C42.6127 82.8987 42.7114 82.6053 42.7114 82.312H43.0154C43.0154 82.824 42.9034 83.2987 42.6794 83.736C42.4607 84.1733 42.146 84.5253 41.7354 84.792C41.3247 85.0587 40.834 85.192 40.2634 85.192ZM49.8119 88.936C49.0279 88.936 48.3479 88.824 47.7719 88.6C47.1959 88.3813 46.7479 88.0853 46.4279 87.712C46.1132 87.344 45.9559 86.936 45.9559 86.488C45.9559 85.896 46.1719 85.4427 46.6039 85.128C47.0412 84.8187 47.6039 84.664 48.2919 84.664L48.9799 85.096C48.4039 85.096 47.9585 85.216 47.6439 85.456C47.3292 85.696 47.1719 86.024 47.1719 86.44C47.1719 86.856 47.3959 87.208 47.8439 87.496C48.2919 87.784 48.9479 87.928 49.8119 87.928C50.4519 87.928 51.0119 87.8347 51.4919 87.648C51.9772 87.4667 52.3532 87.2267 52.6199 86.928C52.8919 86.6347 53.0279 86.3173 53.0279 85.976C53.0279 85.736 52.9399 85.528 52.7639 85.352C52.5879 85.1813 52.3185 85.096 51.9559 85.096H48.9799C48.4625 85.096 48.0145 85.0187 47.6359 84.864C47.2625 84.704 46.9745 84.496 46.7719 84.24C46.5692 83.984 46.4679 83.704 46.4679 83.4C46.4679 83.08 46.5585 82.808 46.7399 82.584C46.9212 82.36 47.1559 82.1893 47.4439 82.072C47.7372 81.9547 48.0519 81.896 48.3879 81.896L48.6279 82.36C48.4679 82.36 48.3052 82.3973 48.1399 82.472C47.9799 82.5413 47.8439 82.648 47.7319 82.792C47.6252 82.9307 47.5719 83.1067 47.5719 83.32C47.5719 83.5653 47.6732 83.7707 47.8759 83.936C48.0785 84.1013 48.4465 84.184 48.9799 84.184H51.9559C52.6759 84.184 53.2412 84.336 53.6519 84.64C54.0679 84.944 54.2759 85.368 54.2759 85.912C54.2759 86.4133 54.0972 86.8933 53.7399 87.352C53.3825 87.816 52.8705 88.1947 52.2039 88.488C51.5372 88.7867 50.7399 88.936 49.8119 88.936ZM50.0359 82.76C49.4492 82.76 48.9185 82.6427 48.4439 82.408C47.9745 82.1733 47.6012 81.8453 47.3239 81.424C47.0519 81.0027 46.9159 80.5147 46.9159 79.96C46.9159 79.4 47.0519 78.9093 47.3239 78.488C47.6012 78.0667 47.9745 77.7413 48.4439 77.512C48.9185 77.2773 49.4492 77.16 50.0359 77.16C50.6065 77.16 51.1239 77.2773 51.5879 77.512C52.0572 77.7413 52.4305 78.0667 52.7079 78.488C52.9852 78.9093 53.1239 79.4 53.1239 79.96C53.1239 80.5147 52.9852 81.0027 52.7079 81.424C52.4305 81.8453 52.0572 82.1733 51.5879 82.408C51.1239 82.6427 50.6065 82.76 50.0359 82.76ZM50.0359 81.864C50.6225 81.864 51.0785 81.6827 51.4039 81.32C51.7292 80.9573 51.8919 80.504 51.8919 79.96C51.8919 79.4 51.7292 78.9467 51.4039 78.6C51.0785 78.248 50.6225 78.072 50.0359 78.072C49.4545 78.072 48.9959 78.248 48.6599 78.6C48.3292 78.9467 48.1639 79.4 48.1639 79.96C48.1639 80.504 48.3292 80.9573 48.6599 81.32C48.9959 81.6827 49.4545 81.864 50.0359 81.864ZM52.5479 78.376L51.9559 78.136C51.9559 77.688 52.0439 77.296 52.2199 76.96C52.3959 76.6187 52.6465 76.3547 52.9719 76.168C53.2972 75.976 53.6839 75.88 54.1319 75.88L54.0359 77.112C53.5559 77.112 53.1879 77.216 52.9319 77.424C52.6759 77.6267 52.5479 77.944 52.5479 78.376ZM58.9551 85.192C58.2938 85.192 57.7018 85.024 57.1791 84.688C56.6618 84.3467 56.2511 83.8747 55.9471 83.272C55.6485 82.6693 55.4991 81.976 55.4991 81.192C55.4991 80.3547 55.6485 79.6347 55.9471 79.032C56.2458 78.4293 56.6538 77.968 57.1711 77.648C57.6938 77.3227 58.2885 77.16 58.9551 77.16C59.5365 77.16 60.0325 77.2773 60.4431 77.512C60.8538 77.7467 61.1845 78.064 61.4351 78.464C61.6858 78.864 61.8591 79.3173 61.9551 79.824C62.0565 80.3253 62.0858 80.8453 62.0431 81.384H56.5071V80.616H61.2191L60.8511 80.856C60.8671 80.5413 60.8485 80.2267 60.7951 79.912C60.7471 79.5973 60.6538 79.3093 60.5151 79.048C60.3765 78.7813 60.1818 78.568 59.9311 78.408C59.6805 78.248 59.3605 78.168 58.9711 78.168C58.4805 78.168 58.0698 78.2933 57.7391 78.544C57.4085 78.7947 57.1605 79.1253 56.9951 79.536C56.8298 79.9413 56.7471 80.3813 56.7471 80.856V81.368C56.7471 81.9013 56.8271 82.3787 56.9871 82.8C57.1525 83.2213 57.3978 83.5547 57.7231 83.8C58.0485 84.0453 58.4591 84.168 58.9551 84.168C59.4511 84.168 59.8591 84.048 60.1791 83.808C60.4991 83.568 60.6938 83.2133 60.7631 82.744H62.0591C61.9791 83.2507 61.7978 83.688 61.5151 84.056C61.2325 84.4187 60.8725 84.6987 60.4351 84.896C59.9978 85.0933 59.5045 85.192 58.9551 85.192ZM72.2827 85.224C71.3707 85.224 70.5761 85.008 69.8987 84.576C69.2267 84.1387 68.7041 83.5147 68.3307 82.704C67.9574 81.8933 67.7707 80.92 67.7707 79.784C67.7707 78.6107 67.9627 77.6267 68.3467 76.832C68.7361 76.032 69.2694 75.4293 69.9467 75.024C70.6294 74.6133 71.4081 74.408 72.2827 74.408C73.4934 74.408 74.4374 74.7013 75.1147 75.288C75.7974 75.8747 76.2347 76.6373 76.4267 77.576L74.4107 77.944C74.2454 77.4 73.9814 76.96 73.6187 76.624C73.2561 76.288 72.8107 76.12 72.2827 76.12C71.8187 76.12 71.4001 76.256 71.0267 76.528C70.6534 76.7947 70.3547 77.2 70.1307 77.744C69.9121 78.288 69.8027 78.968 69.8027 79.784C69.8027 80.552 69.8987 81.2133 70.0907 81.768C70.2881 82.3227 70.5707 82.7493 70.9387 83.048C71.3067 83.3467 71.7547 83.496 72.2827 83.496C72.9601 83.496 73.4827 83.3173 73.8507 82.96C74.2241 82.5973 74.4107 82.136 74.4107 81.576H76.4267C76.4267 82.3493 76.2587 83.008 75.9227 83.552C75.5921 84.0907 75.1174 84.504 74.4987 84.792C73.8801 85.08 73.1414 85.224 72.2827 85.224ZM78.7914 85V74.616H85.4634V76.248H80.6794V78.984H85.1754V80.616H80.6794V83.352H85.4634V85H78.7914ZM88.358 85V74.616H92.198C93.4407 74.616 94.3927 74.9067 95.054 75.488C95.7207 76.0693 96.054 76.84 96.054 77.8C96.054 78.744 95.7207 79.5067 95.054 80.088C94.3927 80.664 93.4407 80.952 92.198 80.952H90.246V85H88.358ZM93.974 85L91.222 80.136H93.238L96.438 85H93.974ZM90.246 79.688H92.006C92.6993 79.688 93.2247 79.5307 93.582 79.216C93.9393 78.896 94.118 78.4827 94.118 77.976C94.118 77.4587 93.9553 77.0427 93.63 76.728C93.3047 76.408 92.8273 76.248 92.198 76.248H90.246V79.688ZM97.6789 85L101.215 74.616H103.583L106.975 85H104.991L104.271 82.76H100.415L99.6789 85H97.6789ZM100.895 81.336H103.823L102.367 76.872L100.895 81.336ZM108.991 74.616H111.695L114.623 80.968H114.463L117.391 74.616H119.999V85H118.095V76.792H118.383L115.151 83.864H113.919L110.703 76.824H110.879V85H108.991V74.616ZM123.135 85V74.616H125.023V85H123.135ZM131.946 85.224C131.034 85.224 130.239 85.008 129.562 84.576C128.89 84.1387 128.367 83.5147 127.994 82.704C127.621 81.8933 127.434 80.92 127.434 79.784C127.434 78.6107 127.626 77.6267 128.01 76.832C128.399 76.032 128.933 75.4293 129.61 75.024C130.293 74.6133 131.071 74.408 131.946 74.408C133.157 74.408 134.101 74.7013 134.778 75.288C135.461 75.8747 135.898 76.6373 136.09 77.576L134.074 77.944C133.909 77.4 133.645 76.96 133.282 76.624C132.919 76.288 132.474 76.12 131.946 76.12C131.482 76.12 131.063 76.256 130.69 76.528C130.317 76.7947 130.018 77.2 129.794 77.744C129.575 78.288 129.466 78.968 129.466 79.784C129.466 80.552 129.562 81.2133 129.754 81.768C129.951 82.3227 130.234 82.7493 130.602 83.048C130.97 83.3467 131.418 83.496 131.946 83.496C132.623 83.496 133.146 83.3173 133.514 82.96C133.887 82.5973 134.074 82.136 134.074 81.576H136.09C136.09 82.3493 135.922 83.008 135.586 83.552C135.255 84.0907 134.781 84.504 134.162 84.792C133.543 85.08 132.805 85.224 131.946 85.224ZM142.677 74.616H145.381L148.309 80.968H148.149L151.077 74.616H153.685V85H151.781V76.792H152.069L148.837 83.864H147.605L144.389 76.824H144.565V85H142.677V74.616ZM155.686 85L159.222 74.616H161.59L164.982 85H162.998L162.278 82.76H158.422L157.686 85H155.686ZM158.902 81.336H161.83L160.374 76.872L158.902 81.336ZM164.887 76.248V74.616H173.207V76.248H169.567L169.991 75.816V85H168.103V75.816L168.527 76.248H164.887ZM174.923 85V74.616H181.595V76.248H176.811V78.984H181.307V80.616H176.811V83.352H181.595V85H174.923ZM184.489 85V74.616H188.329C189.572 74.616 190.524 74.9067 191.185 75.488C191.852 76.0693 192.185 76.84 192.185 77.8C192.185 78.744 191.852 79.5067 191.185 80.088C190.524 80.664 189.572 80.952 188.329 80.952H186.377V85H184.489ZM190.105 85L187.353 80.136H189.369L192.569 85H190.105ZM186.377 79.688H188.137C188.831 79.688 189.356 79.5307 189.713 79.216C190.071 78.896 190.249 78.4827 190.249 77.976C190.249 77.4587 190.087 77.0427 189.761 76.728C189.436 76.408 188.959 76.248 188.329 76.248H186.377V79.688ZM194.946 85V74.616H196.834V85H194.946ZM198.845 85L202.381 74.616H204.749L208.141 85H206.157L205.437 82.76H201.581L200.845 85H198.845ZM202.061 81.336H204.989L203.533 76.872L202.061 81.336ZM212.045 74.616V83.352H216.317V85H210.157V74.616H212.045ZM217.215 84.256C217.215 84.0053 217.303 83.7893 217.479 83.608C217.655 83.4267 217.876 83.336 218.143 83.336C218.41 83.336 218.636 83.4267 218.823 83.608C219.01 83.7893 219.103 84.0053 219.103 84.256C219.103 84.5067 219.01 84.7173 218.823 84.888C218.636 85.0587 218.41 85.144 218.143 85.144C217.876 85.144 217.655 85.0587 217.479 84.888C217.303 84.712 217.215 84.5013 217.215 84.256Z" fill="#333333"/>
</g>
<defs>
<filter id="filter0_d_7093_6122" x="0" y="0" width="246.768" height="108" filterUnits="userSpaceOnUse" color-interpolation-filters="sRGB">
<feFlood flood-opacity="0" result="BackgroundImageFix"/>
<feColorMatrix in="SourceAlpha" type="matrix" values="0 0 0 0 0 0 0 0 0 0 0 0 0 0 0 0 0 0 127 0" result="hardAlpha"/>
<feOffset dy="4"/>
<feGaussianBlur stdDeviation="3"/>
<feComposite in2="hardAlpha" operator="out"/>
<feColorMatrix type="matrix" values="0 0 0 0 0 0 0 0 0 0 0 0 0 0 0 0 0 0 0.1 0"/>
<feBlend mode="normal" in2="BackgroundImageFix" result="effect1_dropShadow_7093_6122"/>
<feBlend mode="normal" in="SourceGraphic" in2="effect1_dropShadow_7093_6122" result="shape"/>
</filter>
</defs>
</svg>
