<svg width="256" height="68" viewBox="0 0 256 68" fill="none" xmlns="http://www.w3.org/2000/svg">
<mask id="path-1-inside-1_7084_5700" fill="white">
<path d="M248.724 27.3669L239 19L239 11C239 6.02944 234.971 2 230 2L9.00022 1.99998C4.02965 1.99998 0.000218166 6.02942 0.000217732 11L0.00021441 49C0.000213975 53.9705 4.02965 58 9.00021 58L230 58C234.971 58 239 53.9706 239 49L239 39.5L248.612 32.0069C250.106 30.8425 250.16 28.6022 248.724 27.3669Z"/>
</mask>
<path d="M248.724 27.3669L239 19L239 11C239 6.02944 234.971 2 230 2L9.00022 1.99998C4.02965 1.99998 0.000218166 6.02942 0.000217732 11L0.00021441 49C0.000213975 53.9705 4.02965 58 9.00021 58L230 58C234.971 58 239 53.9706 239 49L239 39.5L248.612 32.0069C250.106 30.8425 250.16 28.6022 248.724 27.3669Z" fill="white"/>
<path d="M239 19L237.6 19L237.6 19.6423L238.087 20.0612L239 19ZM248.724 27.3669L249.637 26.3056L249.637 26.3056L248.724 27.3669ZM248.612 32.0069L247.751 30.9028L247.751 30.9028L248.612 32.0069ZM239 39.5L238.139 38.3959L237.6 38.8162L237.6 39.5L239 39.5ZM238.087 20.0612L247.811 28.4281L249.637 26.3056L239.913 17.9388L238.087 20.0612ZM247.751 30.9028L238.139 38.3959L239.861 40.6041L249.473 33.1111L247.751 30.9028ZM247.811 28.4281C248.577 29.0869 248.548 30.2817 247.751 30.9028L249.473 33.1111C251.664 31.4032 251.743 28.1175 249.637 26.3056L247.811 28.4281ZM230 56.6L9.00021 56.6L9.00021 59.4L230 59.4L230 56.6ZM1.40021 49L1.40022 11L-1.39978 11L-1.39979 49L1.40021 49ZM9.00022 3.39998L230 3.4L230 0.599998L9.00022 0.599979L9.00022 3.39998ZM237.6 39.5L237.6 49L240.4 49L240.4 39.5L237.6 39.5ZM237.6 11L237.6 19L240.4 19L240.4 11L237.6 11ZM230 3.4C234.198 3.4 237.6 6.80264 237.6 11L240.4 11C240.4 5.25624 235.744 0.599999 230 0.599998L230 3.4ZM1.40022 11C1.40022 6.80261 4.80285 3.39998 9.00022 3.39998L9.00022 0.599979C3.25645 0.599978 -1.39978 5.25622 -1.39978 11L1.40022 11ZM9.00021 56.6C4.80285 56.6 1.40021 53.1973 1.40021 49L-1.39979 49C-1.39979 54.7437 3.25645 59.4 9.00021 59.4L9.00021 56.6ZM230 59.4C235.744 59.4 240.4 54.7438 240.4 49L237.6 49C237.6 53.1974 234.198 56.6 230 56.6L230 59.4Z" fill="white" mask="url(#path-1-inside-1_7084_5700)"/>
<g filter="url(#filter0_d_7084_5700)">
<mask id="path-3-inside-2_7084_5700" fill="white">
<path d="M248.724 27.3669L239 19L239 11C239 6.02944 234.971 2 230 2L108 1.99999C103.03 1.99999 99.0002 6.02942 99.0002 11L99.0002 49C99.0002 53.9705 103.03 58 108 58L230 58C234.971 58 239 53.9706 239 49L239 39.5L248.612 32.0069C250.106 30.8425 250.16 28.6022 248.724 27.3669Z"/>
</mask>
<path d="M248.724 27.3669L239 19L239 11C239 6.02944 234.971 2 230 2L108 1.99999C103.03 1.99999 99.0002 6.02942 99.0002 11L99.0002 49C99.0002 53.9705 103.03 58 108 58L230 58C234.971 58 239 53.9706 239 49L239 39.5L248.612 32.0069C250.106 30.8425 250.16 28.6022 248.724 27.3669Z" fill="white"/>
<path d="M239 19L237.6 19L237.6 19.6423L238.087 20.0612L239 19ZM248.724 27.3669L249.637 26.3056L249.637 26.3056L248.724 27.3669ZM248.612 32.0069L247.751 30.9028L247.751 30.9028L248.612 32.0069ZM239 39.5L238.139 38.3959L237.6 38.8162L237.6 39.5L239 39.5ZM230 58L230 59.4L230 59.4L230 58ZM108 58L108 56.6L108 56.6L108 58ZM238.087 20.0612L247.811 28.4281L249.637 26.3056L239.913 17.9388L238.087 20.0612ZM247.751 30.9028L238.139 38.3959L239.861 40.6041L249.473 33.1111L247.751 30.9028ZM247.811 28.4281C248.577 29.0869 248.548 30.2817 247.751 30.9028L249.473 33.1111C251.664 31.4032 251.743 28.1175 249.637 26.3056L247.811 28.4281ZM230 56.6L108 56.6L108 59.4L230 59.4L230 56.6ZM100.4 49L100.4 11L97.6002 11L97.6002 49L100.4 49ZM108 3.39999L230 3.4L230 0.599998L108 0.599988L108 3.39999ZM237.6 39.5L237.6 49L240.4 49L240.4 39.5L237.6 39.5ZM237.6 11L237.6 19L240.4 19L240.4 11L237.6 11ZM230 3.4C234.198 3.4 237.6 6.80264 237.6 11L240.4 11C240.4 5.25624 235.744 0.599999 230 0.599998L230 3.4ZM100.4 11C100.4 6.80262 103.803 3.39999 108 3.39999L108 0.599988C102.256 0.599987 97.6002 5.25623 97.6002 11L100.4 11ZM108 56.6C103.803 56.6 100.4 53.1973 100.4 49L97.6002 49C97.6002 54.7437 102.256 59.4 108 59.4L108 56.6ZM230 59.4C235.744 59.4 240.4 54.7438 240.4 49L237.6 49C237.6 53.1974 234.198 56.6 230 56.6L230 59.4Z" fill="#333333" mask="url(#path-3-inside-2_7084_5700)"/>
</g>
<g filter="url(#filter1_d_7084_5700)">
<path d="M133.07 16.524V15.452H140.894V16.524H137.318L137.598 16.236V25.5H136.35V16.236L136.63 16.524H133.07ZM148.206 25.5V21.004C148.206 20.2733 148.03 19.7187 147.678 19.34C147.331 18.956 146.857 18.764 146.254 18.764C145.795 18.764 145.398 18.8893 145.062 19.14C144.726 19.3907 144.467 19.7507 144.286 20.22C144.105 20.684 144.014 21.2387 144.014 21.884H143.534C143.534 20.9933 143.651 20.2333 143.886 19.604C144.121 18.9747 144.462 18.4947 144.91 18.164C145.363 17.828 145.913 17.66 146.558 17.66C147.161 17.66 147.675 17.796 148.102 18.068C148.534 18.3347 148.865 18.7187 149.094 19.22C149.323 19.7213 149.438 20.316 149.438 21.004V25.5H148.206ZM142.766 25.5V14.588H144.014V25.5H142.766ZM155.238 25.692C154.577 25.692 153.985 25.524 153.462 25.188C152.945 24.8467 152.534 24.3747 152.23 23.772C151.932 23.1693 151.782 22.476 151.782 21.692C151.782 20.8547 151.932 20.1347 152.23 19.532C152.529 18.9293 152.937 18.468 153.454 18.148C153.977 17.8227 154.572 17.66 155.238 17.66C155.82 17.66 156.316 17.7773 156.726 18.012C157.137 18.2467 157.468 18.564 157.718 18.964C157.969 19.364 158.142 19.8173 158.238 20.324C158.34 20.8253 158.369 21.3453 158.326 21.884H152.79V21.116H157.502L157.134 21.356C157.15 21.0413 157.132 20.7267 157.078 20.412C157.03 20.0973 156.937 19.8093 156.798 19.548C156.66 19.2813 156.465 19.068 156.214 18.908C155.964 18.748 155.644 18.668 155.254 18.668C154.764 18.668 154.353 18.7933 154.022 19.044C153.692 19.2947 153.444 19.6253 153.278 20.036C153.113 20.4413 153.03 20.8813 153.03 21.356V21.868C153.03 22.4013 153.11 22.8787 153.27 23.3C153.436 23.7213 153.681 24.0547 154.006 24.3C154.332 24.5453 154.742 24.668 155.238 24.668C155.734 24.668 156.142 24.548 156.462 24.308C156.782 24.068 156.977 23.7133 157.046 23.244H158.342C158.262 23.7507 158.081 24.188 157.798 24.556C157.516 24.9187 157.156 25.1987 156.718 25.396C156.281 25.5933 155.788 25.692 155.238 25.692ZM166.401 25.5V21.004C166.401 20.2733 166.225 19.7187 165.873 19.34C165.526 18.956 165.052 18.764 164.449 18.764C163.99 18.764 163.593 18.8893 163.257 19.14C162.921 19.3907 162.662 19.7507 162.481 20.22C162.3 20.684 162.209 21.2387 162.209 21.884H161.729C161.729 20.9933 161.846 20.2333 162.081 19.604C162.316 18.9747 162.657 18.4947 163.105 18.164C163.558 17.828 164.108 17.66 164.753 17.66C165.356 17.66 165.87 17.796 166.297 18.068C166.729 18.3347 167.06 18.7187 167.289 19.22C167.518 19.7213 167.633 20.316 167.633 21.004V25.5H166.401ZM160.961 25.5V17.852H162.033L162.209 19.612V25.5H160.961ZM177.486 25.692C176.745 25.692 176.126 25.588 175.63 25.38C175.134 25.1667 174.758 24.876 174.502 24.508C174.246 24.1347 174.11 23.708 174.094 23.228H175.294C175.321 23.7133 175.515 24.0787 175.878 24.324C176.246 24.564 176.745 24.684 177.374 24.684C177.705 24.684 178.009 24.6307 178.286 24.524C178.563 24.4173 178.785 24.2707 178.95 24.084C179.115 23.8973 179.198 23.6867 179.198 23.452C179.198 23.1533 179.089 22.9187 178.87 22.748C178.651 22.5773 178.302 22.428 177.822 22.3L176.334 21.82C175.689 21.6173 175.193 21.34 174.846 20.988C174.505 20.6307 174.334 20.204 174.334 19.708C174.334 19.0893 174.606 18.5933 175.15 18.22C175.694 17.8467 176.409 17.66 177.294 17.66C178.233 17.66 178.961 17.852 179.478 18.236C179.995 18.62 180.265 19.1 180.286 19.676H179.054C179.006 19.34 178.835 19.0867 178.542 18.916C178.249 18.74 177.833 18.652 177.294 18.652C176.777 18.652 176.371 18.7693 176.078 19.004C175.79 19.2333 175.646 19.4893 175.646 19.772C175.646 20.3 176.099 20.6893 177.006 20.94L178.526 21.452C179.182 21.6493 179.683 21.908 180.03 22.228C180.382 22.548 180.558 22.956 180.558 23.452C180.558 23.836 180.433 24.1987 180.182 24.54C179.931 24.8813 179.577 25.1587 179.118 25.372C178.659 25.5853 178.115 25.692 177.486 25.692ZM185.956 25.692C185.295 25.692 184.703 25.524 184.18 25.188C183.663 24.8467 183.252 24.3747 182.948 23.772C182.65 23.1693 182.5 22.476 182.5 21.692C182.5 20.8547 182.65 20.1347 182.948 19.532C183.247 18.9293 183.655 18.468 184.172 18.148C184.695 17.8227 185.29 17.66 185.956 17.66C186.538 17.66 187.034 17.7773 187.444 18.012C187.855 18.2467 188.186 18.564 188.436 18.964C188.687 19.364 188.86 19.8173 188.956 20.324C189.058 20.8253 189.087 21.3453 189.044 21.884H183.508V21.116H188.22L187.852 21.356C187.868 21.0413 187.85 20.7267 187.796 20.412C187.748 20.0973 187.655 19.8093 187.516 19.548C187.378 19.2813 187.183 19.068 186.932 18.908C186.682 18.748 186.362 18.668 185.972 18.668C185.482 18.668 185.071 18.7933 184.74 19.044C184.41 19.2947 184.162 19.6253 183.996 20.036C183.831 20.4413 183.748 20.8813 183.748 21.356V21.868C183.748 22.4013 183.828 22.8787 183.988 23.3C184.154 23.7213 184.399 24.0547 184.724 24.3C185.05 24.5453 185.46 24.668 185.956 24.668C186.452 24.668 186.86 24.548 187.18 24.308C187.5 24.068 187.695 23.7133 187.764 23.244H189.06C188.98 23.7507 188.799 24.188 188.516 24.556C188.234 24.9187 187.874 25.1987 187.436 25.396C186.999 25.5933 186.506 25.692 185.956 25.692ZM196.415 25.5L196.255 23.82V20.54C196.255 19.852 196.108 19.3587 195.815 19.06C195.522 18.756 195.082 18.604 194.495 18.604C194.164 18.604 193.863 18.652 193.591 18.748C193.324 18.844 193.111 18.9933 192.951 19.196C192.796 19.3933 192.719 19.6493 192.719 19.964H191.327C191.327 19.4093 191.463 18.964 191.735 18.628C192.007 18.2867 192.38 18.0413 192.855 17.892C193.335 17.7373 193.882 17.66 194.495 17.66C195.082 17.66 195.602 17.7587 196.055 17.956C196.508 18.1533 196.863 18.468 197.119 18.9C197.375 19.3267 197.503 19.884 197.503 20.572V25.5H196.415ZM193.807 25.692C193.178 25.692 192.658 25.58 192.247 25.356C191.836 25.132 191.53 24.8413 191.327 24.484C191.124 24.1267 191.023 23.7507 191.023 23.356C191.023 22.8387 191.151 22.4173 191.407 22.092C191.668 21.7667 192.023 21.5293 192.471 21.38C192.919 21.2253 193.423 21.148 193.983 21.148C194.383 21.148 194.783 21.188 195.183 21.268C195.588 21.348 195.983 21.4573 196.367 21.596V22.38C196.047 22.252 195.684 22.1507 195.279 22.076C194.879 22.0013 194.511 21.964 194.175 21.964C193.663 21.964 193.231 22.0707 192.879 22.284C192.527 22.492 192.351 22.8493 192.351 23.356C192.351 23.7293 192.484 24.0493 192.751 24.316C193.023 24.5827 193.455 24.716 194.047 24.716C194.463 24.716 194.836 24.62 195.167 24.428C195.503 24.2307 195.767 23.9853 195.959 23.692C196.156 23.3987 196.255 23.1053 196.255 22.812H196.559C196.559 23.324 196.447 23.7987 196.223 24.236C196.004 24.6733 195.69 25.0253 195.279 25.292C194.868 25.5587 194.378 25.692 193.807 25.692ZM200.652 25.5V17.836H201.9V25.5H200.652ZM201.516 22.044C201.516 21.0733 201.609 20.268 201.796 19.628C201.982 18.9827 202.254 18.5027 202.612 18.188C202.974 17.868 203.414 17.708 203.932 17.708C204.102 17.708 204.257 17.7213 204.396 17.748C204.54 17.7693 204.684 17.804 204.828 17.852L204.748 19.084C204.598 19.036 204.436 18.996 204.26 18.964C204.084 18.9267 203.926 18.908 203.788 18.908C203.334 18.908 202.969 19.0387 202.692 19.3C202.414 19.556 202.212 19.9187 202.084 20.388C201.961 20.8573 201.9 21.4093 201.9 22.044H201.516ZM209.281 25.692C208.668 25.692 208.094 25.5267 207.561 25.196C207.033 24.8653 206.606 24.3987 206.281 23.796C205.956 23.1933 205.793 22.4813 205.793 21.66C205.793 20.8173 205.956 20.0973 206.281 19.5C206.606 18.9027 207.033 18.4467 207.561 18.132C208.094 17.8173 208.668 17.66 209.281 17.66C209.713 17.66 210.1 17.7267 210.441 17.86C210.788 17.988 211.089 18.1667 211.345 18.396C211.601 18.6253 211.812 18.8867 211.977 19.18C212.148 19.468 212.273 19.772 212.353 20.092L211.073 20.204C210.94 19.7613 210.716 19.412 210.401 19.156C210.092 18.8947 209.713 18.764 209.265 18.764C208.886 18.764 208.529 18.8733 208.193 19.092C207.862 19.3053 207.593 19.628 207.385 20.06C207.177 20.4867 207.073 21.02 207.073 21.66C207.073 22.252 207.166 22.7667 207.353 23.204C207.545 23.636 207.806 23.972 208.137 24.212C208.468 24.452 208.844 24.572 209.265 24.572C209.857 24.572 210.305 24.428 210.609 24.14C210.918 23.8467 211.073 23.4413 211.073 22.924H212.353C212.353 23.4573 212.228 23.932 211.977 24.348C211.726 24.764 211.369 25.092 210.905 25.332C210.446 25.572 209.905 25.692 209.281 25.692ZM220.443 25.5V21.004C220.443 20.2733 220.267 19.7187 219.915 19.34C219.568 18.956 219.094 18.764 218.491 18.764C218.032 18.764 217.635 18.8893 217.299 19.14C216.963 19.3907 216.704 19.7507 216.523 20.22C216.342 20.684 216.251 21.2387 216.251 21.884H215.771C215.771 20.9933 215.888 20.2333 216.123 19.604C216.358 18.9747 216.699 18.4947 217.147 18.164C217.6 17.828 218.15 17.66 218.795 17.66C219.398 17.66 219.912 17.796 220.339 18.068C220.771 18.3347 221.102 18.7187 221.331 19.22C221.56 19.7213 221.675 20.316 221.675 21.004V25.5H220.443ZM215.003 25.5V14.588H216.251V25.5H215.003ZM115.303 45.5L115.143 43.82V40.54C115.143 39.852 114.997 39.3587 114.703 39.06C114.41 38.756 113.97 38.604 113.383 38.604C113.053 38.604 112.751 38.652 112.479 38.748C112.213 38.844 111.999 38.9933 111.839 39.196C111.685 39.3933 111.607 39.6493 111.607 39.964H110.215C110.215 39.4093 110.351 38.964 110.623 38.628C110.895 38.2867 111.269 38.0413 111.743 37.892C112.223 37.7373 112.77 37.66 113.383 37.66C113.97 37.66 114.49 37.7587 114.943 37.956C115.397 38.1533 115.751 38.468 116.007 38.9C116.263 39.3267 116.391 39.884 116.391 40.572V45.5H115.303ZM112.695 45.692C112.066 45.692 111.546 45.58 111.135 45.356C110.725 45.132 110.418 44.8413 110.215 44.484C110.013 44.1267 109.911 43.7507 109.911 43.356C109.911 42.8387 110.039 42.4173 110.295 42.092C110.557 41.7667 110.911 41.5293 111.359 41.38C111.807 41.2253 112.311 41.148 112.871 41.148C113.271 41.148 113.671 41.188 114.071 41.268C114.477 41.348 114.871 41.4573 115.255 41.596V42.38C114.935 42.252 114.573 42.1507 114.167 42.076C113.767 42.0013 113.399 41.964 113.063 41.964C112.551 41.964 112.119 42.0707 111.767 42.284C111.415 42.492 111.239 42.8493 111.239 43.356C111.239 43.7293 111.373 44.0493 111.639 44.316C111.911 44.5827 112.343 44.716 112.935 44.716C113.351 44.716 113.725 44.62 114.055 44.428C114.391 44.2307 114.655 43.9853 114.847 43.692C115.045 43.3987 115.143 43.1053 115.143 42.812H115.447C115.447 43.324 115.335 43.7987 115.111 44.236C114.893 44.6733 114.578 45.0253 114.167 45.292C113.757 45.5587 113.266 45.692 112.695 45.692ZM123.044 45.692C122.532 45.692 122.068 45.5587 121.652 45.292C121.241 45.0253 120.913 44.636 120.668 44.124C120.428 43.6067 120.308 42.9773 120.308 42.236H120.788C120.788 42.732 120.889 43.156 121.092 43.508C121.3 43.8547 121.566 44.1187 121.892 44.3C122.217 44.4813 122.558 44.572 122.916 44.572C123.326 44.572 123.702 44.4547 124.044 44.22C124.385 43.9853 124.657 43.6493 124.86 43.212C125.068 42.7747 125.172 42.252 125.172 41.644C125.172 41.0467 125.07 40.5347 124.868 40.108C124.665 39.676 124.39 39.3453 124.044 39.116C123.702 38.8813 123.321 38.764 122.9 38.764C122.537 38.764 122.193 38.8547 121.868 39.036C121.548 39.212 121.286 39.4733 121.084 39.82C120.886 40.1667 120.788 40.5933 120.788 41.1H120.308C120.308 40.3747 120.425 39.756 120.66 39.244C120.9 38.732 121.23 38.34 121.652 38.068C122.073 37.796 122.564 37.66 123.124 37.66C123.726 37.66 124.278 37.8227 124.78 38.148C125.286 38.468 125.692 38.9267 125.996 39.524C126.3 40.1213 126.452 40.828 126.452 41.644C126.452 42.4653 126.297 43.18 125.988 43.788C125.678 44.3907 125.265 44.86 124.748 45.196C124.23 45.5267 123.662 45.692 123.044 45.692ZM119.54 45.5V34.588H120.788V43.708L120.42 45.5H119.54ZM131.952 45.692C131.264 45.692 130.651 45.54 130.112 45.236C129.579 44.932 129.157 44.4813 128.848 43.884C128.539 43.2867 128.384 42.5507 128.384 41.676C128.384 40.796 128.539 40.06 128.848 39.468C129.157 38.8707 129.579 38.42 130.112 38.116C130.651 37.812 131.264 37.66 131.952 37.66C132.635 37.66 133.243 37.812 133.776 38.116C134.315 38.42 134.736 38.8707 135.04 39.468C135.349 40.06 135.504 40.796 135.504 41.676C135.504 42.5507 135.349 43.2867 135.04 43.884C134.736 44.4813 134.315 44.932 133.776 45.236C133.243 45.54 132.635 45.692 131.952 45.692ZM131.92 44.604C132.416 44.604 132.837 44.4867 133.184 44.252C133.531 44.012 133.792 43.6733 133.968 43.236C134.149 42.7987 134.24 42.2787 134.24 41.676C134.24 40.764 134.051 40.0467 133.672 39.524C133.293 38.996 132.731 38.732 131.984 38.732C131.483 38.732 131.059 38.852 130.712 39.092C130.371 39.3267 130.109 39.6653 129.928 40.108C129.752 40.5453 129.664 41.068 129.664 41.676C129.664 42.5773 129.853 43.292 130.232 43.82C130.616 44.3427 131.179 44.604 131.92 44.604ZM143.294 37.836H144.542V45.5H143.294V37.836ZM137.87 37.836H139.118V42.604C139.118 43.244 139.273 43.7293 139.582 44.06C139.897 44.3907 140.345 44.556 140.926 44.556C141.406 44.556 141.822 44.428 142.174 44.172C142.531 43.916 142.806 43.564 142.998 43.116C143.195 42.6627 143.294 42.1453 143.294 41.564H143.758C143.758 42.4227 143.633 43.156 143.382 43.764C143.137 44.372 142.787 44.8387 142.334 45.164C141.886 45.484 141.358 45.644 140.75 45.644C140.174 45.644 139.67 45.5373 139.238 45.324C138.806 45.1107 138.47 44.788 138.23 44.356C137.99 43.9187 137.87 43.3667 137.87 42.7V37.836ZM150.294 45.692C149.878 45.692 149.504 45.612 149.174 45.452C148.843 45.292 148.582 45.052 148.39 44.732C148.198 44.412 148.102 44.012 148.102 43.532V35.724H149.334V43.5C149.334 44.2893 149.702 44.684 150.438 44.684C150.656 44.684 150.867 44.66 151.07 44.612C151.278 44.564 151.51 44.492 151.766 44.396L151.942 45.292C151.67 45.4093 151.398 45.5053 151.126 45.58C150.859 45.6547 150.582 45.692 150.294 45.692ZM146.87 38.716V37.852H151.75V38.716H146.87ZM161.738 45.724C160.89 45.724 160.125 45.5 159.442 45.052C158.759 44.604 158.215 43.98 157.81 43.18C157.41 42.3747 157.21 41.436 157.21 40.364C157.21 39.516 157.333 38.756 157.578 38.084C157.829 37.412 158.175 36.8387 158.618 36.364C159.061 35.8893 159.581 35.5293 160.178 35.284C160.775 35.0333 161.423 34.908 162.122 34.908C163.093 34.908 163.906 35.1187 164.562 35.54C165.223 35.9613 165.738 36.6253 166.106 37.532L164.17 37.98C163.898 37.5373 163.583 37.2013 163.226 36.972C162.874 36.7373 162.474 36.62 162.026 36.62C161.514 36.62 161.047 36.772 160.626 37.076C160.205 37.3747 159.869 37.804 159.618 38.364C159.367 38.924 159.242 39.5907 159.242 40.364C159.242 41.0893 159.351 41.724 159.57 42.268C159.794 42.812 160.106 43.236 160.506 43.54C160.906 43.844 161.37 43.996 161.898 43.996C162.346 43.996 162.746 43.8973 163.098 43.7C163.455 43.4973 163.735 43.2093 163.938 42.836C164.146 42.4627 164.25 42.012 164.25 41.484H164.666C164.666 42.348 164.562 43.0973 164.354 43.732C164.151 44.3667 163.834 44.8573 163.402 45.204C162.97 45.5507 162.415 45.724 161.738 45.724ZM164.522 45.5L164.25 43.212V41.42L161.914 41.372V40.172H166.058V45.5H164.522ZM170.822 35.116V43.852H175.094V45.5H168.934V35.116H170.822ZM175.864 45.5L179.4 35.116H181.768L185.16 45.5H183.176L182.456 43.26H178.6L177.864 45.5H175.864ZM179.08 41.836H182.008L180.552 37.372L179.08 41.836ZM186.856 45.5V43.868L192.888 36.172V36.86L186.856 36.844V35.116H194.712V36.732L189.048 43.996L189 43.756L194.712 43.772V45.5H186.856ZM197.399 45.5V35.116H199.287V45.5H197.399ZM202.402 35.116H204.466L209.186 42.524H209.042V35.116H210.93V45.5H209.01L203.986 37.644H204.29V45.5H202.402V35.116ZM217.854 45.724C217.006 45.724 216.241 45.5 215.558 45.052C214.876 44.604 214.332 43.98 213.926 43.18C213.526 42.3747 213.326 41.436 213.326 40.364C213.326 39.516 213.449 38.756 213.694 38.084C213.945 37.412 214.292 36.8387 214.734 36.364C215.177 35.8893 215.697 35.5293 216.294 35.284C216.892 35.0333 217.54 34.908 218.238 34.908C219.209 34.908 220.022 35.1187 220.678 35.54C221.34 35.9613 221.854 36.6253 222.222 37.532L220.286 37.98C220.014 37.5373 219.7 37.2013 219.342 36.972C218.99 36.7373 218.59 36.62 218.142 36.62C217.63 36.62 217.164 36.772 216.742 37.076C216.321 37.3747 215.985 37.804 215.734 38.364C215.484 38.924 215.358 39.5907 215.358 40.364C215.358 41.0893 215.468 41.724 215.686 42.268C215.91 42.812 216.222 43.236 216.622 43.54C217.022 43.844 217.486 43.996 218.014 43.996C218.462 43.996 218.862 43.8973 219.214 43.7C219.572 43.4973 219.852 43.2093 220.054 42.836C220.262 42.4627 220.366 42.012 220.366 41.484H220.782C220.782 42.348 220.678 43.0973 220.47 43.732C220.268 44.3667 219.95 44.8573 219.518 45.204C219.086 45.5507 218.532 45.724 217.854 45.724ZM220.638 45.5L220.366 43.212V41.42L218.03 41.372V40.172H222.174V45.5H220.638ZM223.947 44.396C223.947 44.0333 224.069 43.7293 224.315 43.484C224.56 43.2387 224.875 43.116 225.259 43.116C225.643 43.116 225.963 43.2387 226.219 43.484C226.475 43.7293 226.603 44.0333 226.603 44.396C226.603 44.7533 226.475 45.052 226.219 45.292C225.963 45.5267 225.643 45.644 225.259 45.644C224.875 45.644 224.56 45.524 224.315 45.284C224.069 45.044 223.947 44.748 223.947 44.396Z" fill="#333333"/>
</g>
<defs>
<filter id="filter0_d_7084_5700" x="93" y="0" width="162.768" height="68" filterUnits="userSpaceOnUse" color-interpolation-filters="sRGB">
<feFlood flood-opacity="0" result="BackgroundImageFix"/>
<feColorMatrix in="SourceAlpha" type="matrix" values="0 0 0 0 0 0 0 0 0 0 0 0 0 0 0 0 0 0 127 0" result="hardAlpha"/>
<feOffset dy="4"/>
<feGaussianBlur stdDeviation="3"/>
<feComposite in2="hardAlpha" operator="out"/>
<feColorMatrix type="matrix" values="0 0 0 0 0 0 0 0 0 0 0 0 0 0 0 0 0 0 0.1 0"/>
<feBlend mode="normal" in2="BackgroundImageFix" result="effect1_dropShadow_7084_5700"/>
<feBlend mode="normal" in="SourceGraphic" in2="effect1_dropShadow_7084_5700" result="shape"/>
</filter>
<filter id="filter1_d_7084_5700" x="103.911" y="12.5879" width="128.691" height="43.1357" filterUnits="userSpaceOnUse" color-interpolation-filters="sRGB">
<feFlood flood-opacity="0" result="BackgroundImageFix"/>
<feColorMatrix in="SourceAlpha" type="matrix" values="0 0 0 0 0 0 0 0 0 0 0 0 0 0 0 0 0 0 127 0" result="hardAlpha"/>
<feOffset dy="4"/>
<feGaussianBlur stdDeviation="3"/>
<feComposite in2="hardAlpha" operator="out"/>
<feColorMatrix type="matrix" values="0 0 0 0 0 0 0 0 0 0 0 0 0 0 0 0 0 0 0.05 0"/>
<feBlend mode="normal" in2="BackgroundImageFix" result="effect1_dropShadow_7084_5700"/>
<feBlend mode="normal" in="SourceGraphic" in2="effect1_dropShadow_7084_5700" result="shape"/>
</filter>
</defs>
</svg>
