<svg width="250" height="108" viewBox="0 0 250 108" fill="none" xmlns="http://www.w3.org/2000/svg">
<g filter="url(#filter0_d_7099_6257)">
<mask id="path-1-inside-1_7099_6257" fill="white">
<path d="M7.04332 52.6331L16.7673 61L16.7673 89C16.7673 93.9706 20.7968 98 25.7673 98L231.767 98C236.738 98 240.767 93.9706 240.767 89L240.767 11C240.767 6.02948 236.738 2.00004 231.767 2.00004L25.7674 2C20.7968 2 16.7674 6.02944 16.7674 11L16.7674 40.5L7.15554 47.9931C5.66179 49.1575 5.6076 51.3978 7.04332 52.6331Z"/>
</mask>
<path d="M7.04332 52.6331L16.7673 61L16.7673 89C16.7673 93.9706 20.7968 98 25.7673 98L231.767 98C236.738 98 240.767 93.9706 240.767 89L240.767 11C240.767 6.02948 236.738 2.00004 231.767 2.00004L25.7674 2C20.7968 2 16.7674 6.02944 16.7674 11L16.7674 40.5L7.15554 47.9931C5.66179 49.1575 5.6076 51.3978 7.04332 52.6331Z" fill="white"/>
<path d="M16.7673 61L18.1673 61L18.1673 60.3577L17.6805 59.9388L16.7673 61ZM7.04332 52.6331L6.1302 53.6944L6.1302 53.6944L7.04332 52.6331ZM7.15554 47.9931L6.29479 46.8889L6.29479 46.8889L7.15554 47.9931ZM16.7674 40.5L17.6281 41.6041L18.1674 41.1838L18.1674 40.5L16.7674 40.5ZM25.7674 2L25.7674 0.600003L25.7674 2ZM231.767 2.00004L231.767 3.40004L231.767 2.00004ZM16.7674 11L15.3674 11L16.7674 11ZM16.7673 89L18.1673 89L16.7673 89ZM17.6805 59.9388L7.95644 51.5719L6.1302 53.6944L15.8542 62.0612L17.6805 59.9388ZM8.01629 49.0972L17.6281 41.6041L15.9066 39.3959L6.29479 46.8889L8.01629 49.0972ZM7.95644 51.5719C7.19072 50.9131 7.21962 49.7183 8.01629 49.0972L6.29479 46.8889C4.10395 48.5968 4.02448 51.8825 6.1302 53.6944L7.95644 51.5719ZM25.7674 3.4L231.767 3.40004L231.767 0.600042L25.7674 0.600003L25.7674 3.4ZM239.367 11L239.367 89L242.167 89L242.167 11L239.367 11ZM231.767 96.6L25.7673 96.6L25.7673 99.4L231.767 99.4L231.767 96.6ZM18.1674 40.5L18.1674 11L15.3674 11L15.3674 40.5L18.1674 40.5ZM18.1673 89L18.1673 61L15.3673 61L15.3673 89L18.1673 89ZM25.7673 96.6C21.57 96.6 18.1673 93.1974 18.1673 89L15.3673 89C15.3673 94.7438 20.0236 99.4 25.7673 99.4L25.7673 96.6ZM239.367 89C239.367 93.1974 235.965 96.6 231.767 96.6L231.767 99.4C237.511 99.4 242.167 94.7438 242.167 89L239.367 89ZM231.767 3.40004C235.965 3.40004 239.367 6.80268 239.367 11L242.167 11C242.167 5.25628 237.511 0.600043 231.767 0.600042L231.767 3.40004ZM25.7674 0.600003C20.0236 0.600002 15.3674 5.25624 15.3674 11L18.1674 11C18.1674 6.80264 21.57 3.4 25.7674 3.4L25.7674 0.600003Z" fill="#333333" mask="url(#path-1-inside-1_7099_6257)"/>
<path d="M32.168 25.192C31.336 25.192 30.592 25 29.936 24.616C29.28 24.232 28.7627 23.656 28.384 22.888C28.0053 22.1147 27.816 21.1493 27.816 19.992C27.816 18.8187 28.0053 17.848 28.384 17.08C28.7627 16.3067 29.28 15.7307 29.936 15.352C30.592 14.968 31.336 14.776 32.168 14.776C33 14.776 33.744 14.968 34.4 15.352C35.056 15.736 35.5733 16.3147 35.952 17.088C36.3307 17.8613 36.52 18.8293 36.52 19.992C36.52 21.16 36.3307 22.1307 35.952 22.904C35.5733 23.672 35.056 24.2453 34.4 24.624C33.744 25.0027 33 25.192 32.168 25.192ZM32.168 24.04C33.112 24.04 33.856 23.696 34.4 23.008C34.9493 22.32 35.224 21.3093 35.224 19.976C35.224 18.6693 34.9493 17.664 34.4 16.96C33.856 16.2507 33.112 15.896 32.168 15.896C31.2347 15.896 30.4907 16.2507 29.936 16.96C29.3867 17.6693 29.112 18.68 29.112 19.992C29.112 21.32 29.3867 22.328 29.936 23.016C30.4907 23.6987 31.2347 24.04 32.168 24.04ZM44.8801 14.952H46.6081L40.1921 21.56V19.8L44.8801 14.952ZM42.0001 19.192L46.8801 25H45.2481L41.1041 20.008L42.0001 19.192ZM39.1041 14.952H40.3681V25H39.1041V14.952ZM49.1109 22.184L48.9509 14.984H50.2789L50.1189 22.184H49.1109ZM49.6149 25.144C49.3429 25.144 49.1189 25.0587 48.9429 24.888C48.7669 24.7173 48.6789 24.504 48.6789 24.248C48.6789 23.9973 48.7669 23.784 48.9429 23.608C49.1189 23.4267 49.3429 23.336 49.6149 23.336C49.8815 23.336 50.1055 23.4267 50.2869 23.608C50.4735 23.784 50.5669 23.9973 50.5669 24.248C50.5669 24.504 50.4735 24.7173 50.2869 24.888C50.1055 25.0587 49.8815 25.144 49.6149 25.144ZM57.5372 25V14.952H58.7852V25H57.5372ZM68.8265 25.192C68.2132 25.192 67.6398 25.0267 67.1065 24.696C66.5785 24.3653 66.1518 23.8987 65.8265 23.296C65.5012 22.6933 65.3385 21.9813 65.3385 21.16C65.3385 20.3173 65.5012 19.5973 65.8265 19C66.1518 18.4027 66.5785 17.9467 67.1065 17.632C67.6398 17.3173 68.2132 17.16 68.8265 17.16C69.2585 17.16 69.6452 17.2267 69.9865 17.36C70.3332 17.488 70.6345 17.6667 70.8905 17.896C71.1465 18.1253 71.3572 18.3867 71.5225 18.68C71.6932 18.968 71.8185 19.272 71.8985 19.592L70.6185 19.704C70.4852 19.2613 70.2612 18.912 69.9465 18.656C69.6372 18.3947 69.2585 18.264 68.8105 18.264C68.4318 18.264 68.0745 18.3733 67.7385 18.592C67.4078 18.8053 67.1385 19.128 66.9305 19.56C66.7225 19.9867 66.6185 20.52 66.6185 21.16C66.6185 21.752 66.7118 22.2667 66.8985 22.704C67.0905 23.136 67.3518 23.472 67.6825 23.712C68.0132 23.952 68.3892 24.072 68.8105 24.072C69.4025 24.072 69.8505 23.928 70.1545 23.64C70.4638 23.3467 70.6185 22.9413 70.6185 22.424H71.8985C71.8985 22.9573 71.7732 23.432 71.5225 23.848C71.2718 24.264 70.9145 24.592 70.4505 24.832C69.9918 25.072 69.4505 25.192 68.8265 25.192ZM79.2845 25L79.1245 23.32V20.04C79.1245 19.352 78.9778 18.8587 78.6845 18.56C78.3912 18.256 77.9512 18.104 77.3645 18.104C77.0338 18.104 76.7325 18.152 76.4605 18.248C76.1938 18.344 75.9805 18.4933 75.8205 18.696C75.6658 18.8933 75.5885 19.1493 75.5885 19.464H74.1965C74.1965 18.9093 74.3325 18.464 74.6045 18.128C74.8765 17.7867 75.2498 17.5413 75.7245 17.392C76.2045 17.2373 76.7512 17.16 77.3645 17.16C77.9512 17.16 78.4712 17.2587 78.9245 17.456C79.3778 17.6533 79.7325 17.968 79.9885 18.4C80.2445 18.8267 80.3725 19.384 80.3725 20.072V25H79.2845ZM76.6765 25.192C76.0472 25.192 75.5272 25.08 75.1165 24.856C74.7058 24.632 74.3992 24.3413 74.1965 23.984C73.9938 23.6267 73.8925 23.2507 73.8925 22.856C73.8925 22.3387 74.0205 21.9173 74.2765 21.592C74.5378 21.2667 74.8925 21.0293 75.3405 20.88C75.7885 20.7253 76.2925 20.648 76.8525 20.648C77.2525 20.648 77.6525 20.688 78.0525 20.768C78.4578 20.848 78.8525 20.9573 79.2365 21.096V21.88C78.9165 21.752 78.5538 21.6507 78.1485 21.576C77.7485 21.5013 77.3805 21.464 77.0445 21.464C76.5325 21.464 76.1005 21.5707 75.7485 21.784C75.3965 21.992 75.2205 22.3493 75.2205 22.856C75.2205 23.2293 75.3538 23.5493 75.6205 23.816C75.8925 24.0827 76.3245 24.216 76.9165 24.216C77.3325 24.216 77.7058 24.12 78.0365 23.928C78.3725 23.7307 78.6365 23.4853 78.8285 23.192C79.0258 22.8987 79.1245 22.6053 79.1245 22.312H79.4285C79.4285 22.824 79.3165 23.2987 79.0925 23.736C78.8738 24.1733 78.5592 24.5253 78.1485 24.792C77.7378 25.0587 77.2472 25.192 76.6765 25.192ZM88.961 25V20.504C88.961 19.7733 88.785 19.2187 88.433 18.84C88.0863 18.456 87.6117 18.264 87.009 18.264C86.5503 18.264 86.153 18.3893 85.817 18.64C85.481 18.8907 85.2223 19.2507 85.041 19.72C84.8597 20.184 84.769 20.7387 84.769 21.384H84.289C84.289 20.4933 84.4063 19.7333 84.641 19.104C84.8757 18.4747 85.217 17.9947 85.665 17.664C86.1183 17.328 86.6677 17.16 87.313 17.16C87.9157 17.16 88.4303 17.296 88.857 17.568C89.289 17.8347 89.6197 18.2187 89.849 18.72C90.0783 19.2213 90.193 19.816 90.193 20.504V25H88.961ZM83.521 25V17.352H84.593L84.769 19.112V25H83.521ZM102.734 25V20.504C102.734 19.7733 102.558 19.2187 102.206 18.84C101.859 18.456 101.385 18.264 100.782 18.264C100.323 18.264 99.9261 18.3893 99.5901 18.64C99.2541 18.8907 98.9955 19.2507 98.8141 19.72C98.6328 20.184 98.5421 20.7387 98.5421 21.384H98.0621C98.0621 20.4933 98.1795 19.7333 98.4141 19.104C98.6488 18.4747 98.9901 17.9947 99.4381 17.664C99.8915 17.328 100.441 17.16 101.086 17.16C101.689 17.16 102.203 17.296 102.63 17.568C103.062 17.8347 103.393 18.2187 103.622 18.72C103.851 19.2213 103.966 19.816 103.966 20.504V25H102.734ZM97.2941 25V17.352H98.3661L98.5421 19.112V25H97.2941ZM111.846 25L111.686 23.32V20.04C111.686 19.352 111.54 18.8587 111.246 18.56C110.953 18.256 110.513 18.104 109.926 18.104C109.596 18.104 109.294 18.152 109.022 18.248C108.756 18.344 108.542 18.4933 108.382 18.696C108.228 18.8933 108.15 19.1493 108.15 19.464H106.758C106.758 18.9093 106.894 18.464 107.166 18.128C107.438 17.7867 107.812 17.5413 108.286 17.392C108.766 17.2373 109.313 17.16 109.926 17.16C110.513 17.16 111.033 17.2587 111.486 17.456C111.94 17.6533 112.294 17.968 112.55 18.4C112.806 18.8267 112.934 19.384 112.934 20.072V25H111.846ZM109.238 25.192C108.609 25.192 108.089 25.08 107.678 24.856C107.268 24.632 106.961 24.3413 106.758 23.984C106.556 23.6267 106.454 23.2507 106.454 22.856C106.454 22.3387 106.582 21.9173 106.838 21.592C107.1 21.2667 107.454 21.0293 107.902 20.88C108.35 20.7253 108.854 20.648 109.414 20.648C109.814 20.648 110.214 20.688 110.614 20.768C111.02 20.848 111.414 20.9573 111.798 21.096V21.88C111.478 21.752 111.116 21.6507 110.71 21.576C110.31 21.5013 109.942 21.464 109.606 21.464C109.094 21.464 108.662 21.5707 108.31 21.784C107.958 21.992 107.782 22.3493 107.782 22.856C107.782 23.2293 107.916 23.5493 108.182 23.816C108.454 24.0827 108.886 24.216 109.478 24.216C109.894 24.216 110.268 24.12 110.598 23.928C110.934 23.7307 111.198 23.4853 111.39 23.192C111.588 22.8987 111.686 22.6053 111.686 22.312H111.99C111.99 22.824 111.878 23.2987 111.654 23.736C111.436 24.1733 111.121 24.5253 110.71 24.792C110.3 25.0587 109.809 25.192 109.238 25.192ZM114.755 17.352H116.179L118.579 23.928H118.403L120.803 17.352H122.227L119.171 25H117.811L114.755 17.352ZM124.994 15.544C124.738 15.544 124.535 15.472 124.386 15.328C124.236 15.1787 124.162 14.984 124.162 14.744C124.162 14.5093 124.236 14.3227 124.386 14.184C124.535 14.0453 124.738 13.976 124.994 13.976C125.25 13.976 125.452 14.0453 125.602 14.184C125.751 14.3227 125.826 14.5093 125.826 14.744C125.826 14.984 125.751 15.1787 125.602 15.328C125.452 15.472 125.25 15.544 124.994 15.544ZM124.37 25V17.336H125.618V25H124.37ZM131.919 28.936C131.135 28.936 130.455 28.824 129.879 28.6C129.303 28.3813 128.855 28.0853 128.535 27.712C128.221 27.344 128.063 26.936 128.063 26.488C128.063 25.896 128.279 25.4427 128.711 25.128C129.149 24.8187 129.711 24.664 130.399 24.664L131.087 25.096C130.511 25.096 130.066 25.216 129.751 25.456C129.437 25.696 129.279 26.024 129.279 26.44C129.279 26.856 129.503 27.208 129.951 27.496C130.399 27.784 131.055 27.928 131.919 27.928C132.559 27.928 133.119 27.8347 133.599 27.648C134.085 27.4667 134.461 27.2267 134.727 26.928C134.999 26.6347 135.135 26.3173 135.135 25.976C135.135 25.736 135.047 25.528 134.871 25.352C134.695 25.1813 134.426 25.096 134.063 25.096H131.087C130.57 25.096 130.122 25.0187 129.743 24.864C129.37 24.704 129.082 24.496 128.879 24.24C128.677 23.984 128.575 23.704 128.575 23.4C128.575 23.08 128.666 22.808 128.847 22.584C129.029 22.36 129.263 22.1893 129.551 22.072C129.845 21.9547 130.159 21.896 130.495 21.896L130.735 22.36C130.575 22.36 130.413 22.3973 130.247 22.472C130.087 22.5413 129.951 22.648 129.839 22.792C129.733 22.9307 129.679 23.1067 129.679 23.32C129.679 23.5653 129.781 23.7707 129.983 23.936C130.186 24.1013 130.554 24.184 131.087 24.184H134.063C134.783 24.184 135.349 24.336 135.759 24.64C136.175 24.944 136.383 25.368 136.383 25.912C136.383 26.4133 136.205 26.8933 135.847 27.352C135.49 27.816 134.978 28.1947 134.311 28.488C133.645 28.7867 132.847 28.936 131.919 28.936ZM132.143 22.76C131.557 22.76 131.026 22.6427 130.551 22.408C130.082 22.1733 129.709 21.8453 129.431 21.424C129.159 21.0027 129.023 20.5147 129.023 19.96C129.023 19.4 129.159 18.9093 129.431 18.488C129.709 18.0667 130.082 17.7413 130.551 17.512C131.026 17.2773 131.557 17.16 132.143 17.16C132.714 17.16 133.231 17.2773 133.695 17.512C134.165 17.7413 134.538 18.0667 134.815 18.488C135.093 18.9093 135.231 19.4 135.231 19.96C135.231 20.5147 135.093 21.0027 134.815 21.424C134.538 21.8453 134.165 22.1733 133.695 22.408C133.231 22.6427 132.714 22.76 132.143 22.76ZM132.143 21.864C132.73 21.864 133.186 21.6827 133.511 21.32C133.837 20.9573 133.999 20.504 133.999 19.96C133.999 19.4 133.837 18.9467 133.511 18.6C133.186 18.248 132.73 18.072 132.143 18.072C131.562 18.072 131.103 18.248 130.767 18.6C130.437 18.9467 130.271 19.4 130.271 19.96C130.271 20.504 130.437 20.9573 130.767 21.32C131.103 21.6827 131.562 21.864 132.143 21.864ZM134.655 18.376L134.063 18.136C134.063 17.688 134.151 17.296 134.327 16.96C134.503 16.6187 134.754 16.3547 135.079 16.168C135.405 15.976 135.791 15.88 136.239 15.88L136.143 17.112C135.663 17.112 135.295 17.216 135.039 17.424C134.783 17.6267 134.655 17.944 134.655 18.376ZM143.143 25L142.983 23.32V20.04C142.983 19.352 142.836 18.8587 142.543 18.56C142.249 18.256 141.809 18.104 141.223 18.104C140.892 18.104 140.591 18.152 140.319 18.248C140.052 18.344 139.839 18.4933 139.679 18.696C139.524 18.8933 139.447 19.1493 139.447 19.464H138.055C138.055 18.9093 138.191 18.464 138.463 18.128C138.735 17.7867 139.108 17.5413 139.583 17.392C140.063 17.2373 140.609 17.16 141.223 17.16C141.809 17.16 142.329 17.2587 142.783 17.456C143.236 17.6533 143.591 17.968 143.847 18.4C144.103 18.8267 144.231 19.384 144.231 20.072V25H143.143ZM140.535 25.192C139.905 25.192 139.385 25.08 138.975 24.856C138.564 24.632 138.257 24.3413 138.055 23.984C137.852 23.6267 137.751 23.2507 137.751 22.856C137.751 22.3387 137.879 21.9173 138.135 21.592C138.396 21.2667 138.751 21.0293 139.199 20.88C139.647 20.7253 140.151 20.648 140.711 20.648C141.111 20.648 141.511 20.688 141.911 20.768C142.316 20.848 142.711 20.9573 143.095 21.096V21.88C142.775 21.752 142.412 21.6507 142.007 21.576C141.607 21.5013 141.239 21.464 140.903 21.464C140.391 21.464 139.959 21.5707 139.607 21.784C139.255 21.992 139.079 22.3493 139.079 22.856C139.079 23.2293 139.212 23.5493 139.479 23.816C139.751 24.0827 140.183 24.216 140.775 24.216C141.191 24.216 141.564 24.12 141.895 23.928C142.231 23.7307 142.495 23.4853 142.687 23.192C142.884 22.8987 142.983 22.6053 142.983 22.312H143.287C143.287 22.824 143.175 23.2987 142.951 23.736C142.732 24.1733 142.417 24.5253 142.007 24.792C141.596 25.0587 141.105 25.192 140.535 25.192ZM149.731 25.192C149.315 25.192 148.942 25.112 148.611 24.952C148.28 24.792 148.019 24.552 147.827 24.232C147.635 23.912 147.539 23.512 147.539 23.032V15.224H148.771V23C148.771 23.7893 149.139 24.184 149.875 24.184C150.094 24.184 150.304 24.16 150.507 24.112C150.715 24.064 150.947 23.992 151.203 23.896L151.379 24.792C151.107 24.9093 150.835 25.0053 150.563 25.08C150.296 25.1547 150.019 25.192 149.731 25.192ZM146.307 18.216V17.352H151.187V18.216H146.307ZM156.211 25.192C155.549 25.192 154.957 25.024 154.435 24.688C153.917 24.3467 153.507 23.8747 153.203 23.272C152.904 22.6693 152.755 21.976 152.755 21.192C152.755 20.3547 152.904 19.6347 153.203 19.032C153.501 18.4293 153.909 17.968 154.427 17.648C154.949 17.3227 155.544 17.16 156.211 17.16C156.792 17.16 157.288 17.2773 157.699 17.512C158.109 17.7467 158.44 18.064 158.691 18.464C158.941 18.864 159.115 19.3173 159.211 19.824C159.312 20.3253 159.341 20.8453 159.299 21.384H153.763V20.616H158.475L158.107 20.856C158.123 20.5413 158.104 20.2267 158.051 19.912C158.003 19.5973 157.909 19.3093 157.771 19.048C157.632 18.7813 157.437 18.568 157.187 18.408C156.936 18.248 156.616 18.168 156.227 18.168C155.736 18.168 155.325 18.2933 154.995 18.544C154.664 18.7947 154.416 19.1253 154.251 19.536C154.085 19.9413 154.003 20.3813 154.003 20.856V21.368C154.003 21.9013 154.083 22.3787 154.243 22.8C154.408 23.2213 154.653 23.5547 154.979 23.8C155.304 24.0453 155.715 24.168 156.211 24.168C156.707 24.168 157.115 24.048 157.435 23.808C157.755 23.568 157.949 23.2133 158.019 22.744H159.315C159.235 23.2507 159.053 23.688 158.771 24.056C158.488 24.4187 158.128 24.6987 157.691 24.896C157.253 25.0933 156.76 25.192 156.211 25.192ZM168.626 25.192C168.008 25.192 167.44 25.0267 166.922 24.696C166.405 24.36 165.992 23.8907 165.682 23.288C165.373 22.68 165.218 21.9653 165.218 21.144C165.218 20.328 165.37 19.6213 165.674 19.024C165.978 18.4267 166.381 17.968 166.882 17.648C167.389 17.3227 167.944 17.16 168.546 17.16C169.106 17.16 169.597 17.296 170.018 17.568C170.445 17.84 170.776 18.232 171.01 18.744C171.245 19.256 171.362 19.8747 171.362 20.6H170.882C170.882 20.0933 170.781 19.6667 170.578 19.32C170.381 18.9733 170.122 18.712 169.802 18.536C169.482 18.3547 169.138 18.264 168.77 18.264C168.354 18.264 167.973 18.3813 167.626 18.616C167.285 18.8453 167.01 19.176 166.802 19.608C166.6 20.0347 166.498 20.5467 166.498 21.144C166.498 21.752 166.6 22.2747 166.802 22.712C167.01 23.1493 167.285 23.4853 167.626 23.72C167.973 23.9547 168.354 24.072 168.77 24.072C169.117 24.072 169.45 23.9813 169.77 23.8C170.096 23.6187 170.362 23.3547 170.57 23.008C170.778 22.656 170.882 22.232 170.882 21.736H171.362C171.362 22.4773 171.24 23.1067 170.994 23.624C170.754 24.136 170.426 24.5253 170.01 24.792C169.6 25.0587 169.138 25.192 168.626 25.192ZM171.09 25L170.882 23.208V14.088H172.13V25H171.09ZM176.239 15.544C175.983 15.544 175.78 15.472 175.631 15.328C175.481 15.1787 175.407 14.984 175.407 14.744C175.407 14.5093 175.481 14.3227 175.631 14.184C175.78 14.0453 175.983 13.976 176.239 13.976C176.495 13.976 176.697 14.0453 176.847 14.184C176.996 14.3227 177.071 14.5093 177.071 14.744C177.071 14.984 176.996 15.1787 176.847 15.328C176.697 15.472 176.495 15.544 176.239 15.544ZM175.615 25V17.336H176.863V25H175.615ZM180.876 25V16.168C180.876 15.6613 180.972 15.248 181.164 14.928C181.362 14.6027 181.623 14.3627 181.948 14.208C182.279 14.0533 182.647 13.976 183.052 13.976C183.271 13.976 183.492 13.992 183.716 14.024C183.946 14.056 184.172 14.104 184.396 14.168L184.156 15.16C183.996 15.096 183.836 15.048 183.676 15.016C183.522 14.984 183.372 14.968 183.228 14.968C183.058 14.968 182.887 15 182.716 15.064C182.546 15.128 182.404 15.248 182.292 15.424C182.18 15.6 182.124 15.8533 182.124 16.184V25H180.876ZM179.628 18.216V17.352H183.708V18.216H179.628ZM186.521 25V16.168C186.521 15.6613 186.617 15.248 186.809 14.928C187.006 14.6027 187.267 14.3627 187.593 14.208C187.923 14.0533 188.291 13.976 188.697 13.976C188.915 13.976 189.137 13.992 189.361 14.024C189.59 14.056 189.817 14.104 190.041 14.168L189.801 15.16C189.641 15.096 189.481 15.048 189.321 15.016C189.166 14.984 189.017 14.968 188.873 14.968C188.702 14.968 188.531 15 188.361 15.064C188.19 15.128 188.049 15.248 187.937 15.424C187.825 15.6 187.769 15.8533 187.769 16.184V25H186.521ZM185.273 18.216V17.352H189.353V18.216H185.273ZM194.405 25.192C193.744 25.192 193.152 25.024 192.629 24.688C192.112 24.3467 191.701 23.8747 191.397 23.272C191.098 22.6693 190.949 21.976 190.949 21.192C190.949 20.3547 191.098 19.6347 191.397 19.032C191.696 18.4293 192.104 17.968 192.621 17.648C193.144 17.3227 193.738 17.16 194.405 17.16C194.986 17.16 195.482 17.2773 195.893 17.512C196.304 17.7467 196.634 18.064 196.885 18.464C197.136 18.864 197.309 19.3173 197.405 19.824C197.506 20.3253 197.536 20.8453 197.493 21.384H191.957V20.616H196.669L196.301 20.856C196.317 20.5413 196.298 20.2267 196.245 19.912C196.197 19.5973 196.104 19.3093 195.965 19.048C195.826 18.7813 195.632 18.568 195.381 18.408C195.13 18.248 194.81 18.168 194.421 18.168C193.93 18.168 193.52 18.2933 193.189 18.544C192.858 18.7947 192.61 19.1253 192.445 19.536C192.28 19.9413 192.197 20.3813 192.197 20.856V21.368C192.197 21.9013 192.277 22.3787 192.437 22.8C192.602 23.2213 192.848 23.5547 193.173 23.8C193.498 24.0453 193.909 24.168 194.405 24.168C194.901 24.168 195.309 24.048 195.629 23.808C195.949 23.568 196.144 23.2133 196.213 22.744H197.509C197.429 23.2507 197.248 23.688 196.965 24.056C196.682 24.4187 196.322 24.6987 195.885 24.896C195.448 25.0933 194.954 25.192 194.405 25.192ZM200.128 25V17.336H201.376V25H200.128ZM200.992 21.544C200.992 20.5733 201.085 19.768 201.272 19.128C201.459 18.4827 201.731 18.0027 202.088 17.688C202.451 17.368 202.891 17.208 203.408 17.208C203.579 17.208 203.733 17.2213 203.872 17.248C204.016 17.2693 204.16 17.304 204.304 17.352L204.224 18.584C204.075 18.536 203.912 18.496 203.736 18.464C203.56 18.4267 203.403 18.408 203.264 18.408C202.811 18.408 202.445 18.5387 202.168 18.8C201.891 19.056 201.688 19.4187 201.56 19.888C201.437 20.3573 201.376 20.9093 201.376 21.544H200.992ZM208.725 25.192C208.064 25.192 207.472 25.024 206.949 24.688C206.432 24.3467 206.021 23.8747 205.717 23.272C205.418 22.6693 205.269 21.976 205.269 21.192C205.269 20.3547 205.418 19.6347 205.717 19.032C206.016 18.4293 206.424 17.968 206.941 17.648C207.464 17.3227 208.058 17.16 208.725 17.16C209.306 17.16 209.802 17.2773 210.213 17.512C210.624 17.7467 210.954 18.064 211.205 18.464C211.456 18.864 211.629 19.3173 211.725 19.824C211.826 20.3253 211.856 20.8453 211.813 21.384H206.277V20.616H210.989L210.621 20.856C210.637 20.5413 210.618 20.2267 210.565 19.912C210.517 19.5973 210.424 19.3093 210.285 19.048C210.146 18.7813 209.952 18.568 209.701 18.408C209.45 18.248 209.13 18.168 208.741 18.168C208.25 18.168 207.84 18.2933 207.509 18.544C207.178 18.7947 206.93 19.1253 206.765 19.536C206.6 19.9413 206.517 20.3813 206.517 20.856V21.368C206.517 21.9013 206.597 22.3787 206.757 22.8C206.922 23.2213 207.168 23.5547 207.493 23.8C207.818 24.0453 208.229 24.168 208.725 24.168C209.221 24.168 209.629 24.048 209.949 23.808C210.269 23.568 210.464 23.2133 210.533 22.744H211.829C211.749 23.2507 211.568 23.688 211.285 24.056C211.002 24.4187 210.642 24.6987 210.205 24.896C209.768 25.0933 209.274 25.192 208.725 25.192ZM219.888 25V20.504C219.888 19.7733 219.712 19.2187 219.36 18.84C219.013 18.456 218.539 18.264 217.936 18.264C217.477 18.264 217.08 18.3893 216.744 18.64C216.408 18.8907 216.149 19.2507 215.968 19.72C215.787 20.184 215.696 20.7387 215.696 21.384H215.216C215.216 20.4933 215.333 19.7333 215.568 19.104C215.803 18.4747 216.144 17.9947 216.592 17.664C217.045 17.328 217.595 17.16 218.24 17.16C218.843 17.16 219.357 17.296 219.784 17.568C220.216 17.8347 220.547 18.2187 220.776 18.72C221.005 19.2213 221.12 19.816 221.12 20.504V25H219.888ZM214.448 25V17.352H215.52L215.696 19.112V25H214.448ZM226.616 25.192C226.2 25.192 225.827 25.112 225.496 24.952C225.165 24.792 224.904 24.552 224.712 24.232C224.52 23.912 224.424 23.512 224.424 23.032V15.224H225.656V23C225.656 23.7893 226.024 24.184 226.76 24.184C226.979 24.184 227.189 24.16 227.392 24.112C227.6 24.064 227.832 23.992 228.088 23.896L228.264 24.792C227.992 24.9093 227.72 25.0053 227.448 25.08C227.181 25.1547 226.904 25.192 226.616 25.192ZM223.192 18.216V17.352H228.072V18.216H223.192ZM30.968 45.192C30.552 45.192 30.1787 45.112 29.848 44.952C29.5173 44.792 29.256 44.552 29.064 44.232C28.872 43.912 28.776 43.512 28.776 43.032V35.224H30.008V43C30.008 43.7893 30.376 44.184 31.112 44.184C31.3307 44.184 31.5413 44.16 31.744 44.112C31.952 44.064 32.184 43.992 32.44 43.896L32.616 44.792C32.344 44.9093 32.072 45.0053 31.8 45.08C31.5333 45.1547 31.256 45.192 30.968 45.192ZM27.544 38.216V37.352H32.424V38.216H27.544ZM37.5596 45.192C36.8716 45.192 36.2583 45.04 35.7196 44.736C35.1863 44.432 34.765 43.9813 34.4556 43.384C34.1463 42.7867 33.9916 42.0507 33.9916 41.176C33.9916 40.296 34.1463 39.56 34.4556 38.968C34.765 38.3707 35.1863 37.92 35.7196 37.616C36.2583 37.312 36.8716 37.16 37.5596 37.16C38.2423 37.16 38.8503 37.312 39.3836 37.616C39.9223 37.92 40.3436 38.3707 40.6476 38.968C40.957 39.56 41.1116 40.296 41.1116 41.176C41.1116 42.0507 40.957 42.7867 40.6476 43.384C40.3436 43.9813 39.9223 44.432 39.3836 44.736C38.8503 45.04 38.2423 45.192 37.5596 45.192ZM37.5276 44.104C38.0236 44.104 38.445 43.9867 38.7916 43.752C39.1383 43.512 39.3996 43.1733 39.5756 42.736C39.757 42.2987 39.8476 41.7787 39.8476 41.176C39.8476 40.264 39.6583 39.5467 39.2796 39.024C38.901 38.496 38.3383 38.232 37.5916 38.232C37.0903 38.232 36.6663 38.352 36.3196 38.592C35.9783 38.8267 35.717 39.1653 35.5356 39.608C35.3596 40.0453 35.2716 40.568 35.2716 41.176C35.2716 42.0773 35.461 42.792 35.8396 43.32C36.2236 43.8427 36.7863 44.104 37.5276 44.104ZM47.1736 45.192C46.6136 45.192 46.1256 45.064 45.7096 44.808C45.299 44.552 44.9816 44.1787 44.7576 43.688C44.5336 43.192 44.4216 42.5893 44.4216 41.88H44.9496C44.9496 42.3547 45.0483 42.7547 45.2456 43.08C45.443 43.4053 45.699 43.6533 46.0136 43.824C46.3336 43.9893 46.6723 44.072 47.0296 44.072C47.4136 44.072 47.7816 43.9627 48.1336 43.744C48.4856 43.52 48.7736 43.192 48.9976 42.76C49.2216 42.328 49.3336 41.7947 49.3336 41.16C49.3336 40.552 49.2296 40.032 49.0216 39.6C48.819 39.168 48.5443 38.8373 48.1976 38.608C47.851 38.3787 47.467 38.264 47.0456 38.264C46.683 38.264 46.3416 38.352 46.0216 38.528C45.7016 38.704 45.443 38.9627 45.2456 39.304C45.0483 39.64 44.9496 40.056 44.9496 40.552H44.4216C44.4216 39.8107 44.5443 39.1893 44.7896 38.688C45.035 38.1813 45.3683 37.8 45.7896 37.544C46.211 37.288 46.683 37.16 47.2056 37.16C47.803 37.16 48.3603 37.32 48.8776 37.64C49.395 37.96 49.8136 38.4187 50.1336 39.016C50.4536 39.6133 50.6136 40.328 50.6136 41.16C50.6136 42.0027 50.451 42.7253 50.1256 43.328C49.8056 43.9307 49.3843 44.392 48.8616 44.712C48.339 45.032 47.7763 45.192 47.1736 45.192ZM43.7016 48.76V37.352H44.7416L44.9496 39.144V48.76H43.7016ZM53.925 35.544C53.669 35.544 53.4663 35.472 53.317 35.328C53.1677 35.1787 53.093 34.984 53.093 34.744C53.093 34.5093 53.1677 34.3227 53.317 34.184C53.4663 34.0453 53.669 33.976 53.925 33.976C54.181 33.976 54.3837 34.0453 54.533 34.184C54.6823 34.3227 54.757 34.5093 54.757 34.744C54.757 34.984 54.6823 35.1787 54.533 35.328C54.3837 35.472 54.181 35.544 53.925 35.544ZM53.301 45V37.336H54.549V45H53.301ZM60.8346 45.192C60.2213 45.192 59.648 45.0267 59.1146 44.696C58.5866 44.3653 58.16 43.8987 57.8346 43.296C57.5093 42.6933 57.3466 41.9813 57.3466 41.16C57.3466 40.3173 57.5093 39.5973 57.8346 39C58.16 38.4027 58.5866 37.9467 59.1146 37.632C59.648 37.3173 60.2213 37.16 60.8346 37.16C61.2666 37.16 61.6533 37.2267 61.9946 37.36C62.3413 37.488 62.6426 37.6667 62.8986 37.896C63.1546 38.1253 63.3653 38.3867 63.5306 38.68C63.7013 38.968 63.8266 39.272 63.9066 39.592L62.6266 39.704C62.4933 39.2613 62.2693 38.912 61.9546 38.656C61.6453 38.3947 61.2666 38.264 60.8186 38.264C60.44 38.264 60.0826 38.3733 59.7466 38.592C59.416 38.8053 59.1466 39.128 58.9386 39.56C58.7306 39.9867 58.6266 40.52 58.6266 41.16C58.6266 41.752 58.72 42.2667 58.9066 42.704C59.0986 43.136 59.36 43.472 59.6906 43.712C60.0213 43.952 60.3973 44.072 60.8186 44.072C61.4106 44.072 61.8586 43.928 62.1626 43.64C62.472 43.3467 62.6266 42.9413 62.6266 42.424H63.9066C63.9066 42.9573 63.7813 43.432 63.5306 43.848C63.28 44.264 62.9226 44.592 62.4586 44.832C62 45.072 61.4586 45.192 60.8346 45.192ZM69.3086 45.192C68.5673 45.192 67.9486 45.088 67.4526 44.88C66.9566 44.6667 66.5806 44.376 66.3246 44.008C66.0686 43.6347 65.9326 43.208 65.9166 42.728H67.1166C67.1433 43.2133 67.338 43.5787 67.7006 43.824C68.0686 44.064 68.5673 44.184 69.1966 44.184C69.5273 44.184 69.8313 44.1307 70.1086 44.024C70.386 43.9173 70.6073 43.7707 70.7726 43.584C70.938 43.3973 71.0206 43.1867 71.0206 42.952C71.0206 42.6533 70.9113 42.4187 70.6926 42.248C70.474 42.0773 70.1246 41.928 69.6446 41.8L68.1566 41.32C67.5113 41.1173 67.0153 40.84 66.6686 40.488C66.3273 40.1307 66.1566 39.704 66.1566 39.208C66.1566 38.5893 66.4286 38.0933 66.9726 37.72C67.5166 37.3467 68.2313 37.16 69.1166 37.16C70.0553 37.16 70.7833 37.352 71.3006 37.736C71.818 38.12 72.0873 38.6 72.1086 39.176H70.8766C70.8286 38.84 70.658 38.5867 70.3646 38.416C70.0713 38.24 69.6553 38.152 69.1166 38.152C68.5993 38.152 68.194 38.2693 67.9006 38.504C67.6126 38.7333 67.4686 38.9893 67.4686 39.272C67.4686 39.8 67.922 40.1893 68.8286 40.44L70.3486 40.952C71.0046 41.1493 71.506 41.408 71.8526 41.728C72.2046 42.048 72.3806 42.456 72.3806 42.952C72.3806 43.336 72.2553 43.6987 72.0046 44.04C71.754 44.3813 71.3993 44.6587 70.9406 44.872C70.482 45.0853 69.938 45.192 69.3086 45.192ZM74.4029 43.728C74.4029 43.4773 74.4909 43.2613 74.6669 43.08C74.8429 42.8987 75.0642 42.808 75.3309 42.808C75.5975 42.808 75.8242 42.8987 76.0109 43.08C76.1975 43.2613 76.2909 43.4773 76.2909 43.728C76.2909 43.9787 76.1975 44.1893 76.0109 44.36C75.8242 44.5307 75.5975 44.616 75.3309 44.616C75.0642 44.616 74.8429 44.5307 74.6669 44.36C74.4909 44.184 74.4029 43.9733 74.4029 43.728ZM74.4029 38.832C74.4029 38.5813 74.4909 38.3653 74.6669 38.184C74.8429 38.0027 75.0642 37.912 75.3309 37.912C75.5975 37.912 75.8242 38.0027 76.0109 38.184C76.1975 38.3653 76.2909 38.5813 76.2909 38.832C76.2909 39.0827 76.1975 39.2933 76.0109 39.464C75.8242 39.6347 75.5975 39.72 75.3309 39.72C75.0642 39.72 74.8429 39.6347 74.6669 39.464C74.4909 39.288 74.4029 39.0773 74.4029 38.832ZM86.4152 45.224C85.6952 45.224 85.0312 45.0987 84.4232 44.848C83.8206 44.5973 83.3299 44.216 82.9512 43.704C82.5779 43.192 82.3779 42.5413 82.3512 41.752H84.2072C84.2072 42.152 84.3059 42.48 84.5032 42.736C84.7006 42.992 84.9646 43.184 85.2952 43.312C85.6312 43.4347 85.9992 43.496 86.3992 43.496C86.7832 43.496 87.1246 43.4453 87.4232 43.344C87.7272 43.2427 87.9646 43.0987 88.1352 42.912C88.3112 42.72 88.3992 42.4933 88.3992 42.232C88.3992 41.8853 88.2926 41.6133 88.0792 41.416C87.8712 41.2187 87.5352 41.0373 87.0712 40.872L85.0232 40.056C84.2232 39.7413 83.6099 39.376 83.1832 38.96C82.7566 38.544 82.5432 37.9707 82.5432 37.24C82.5432 36.3973 82.8766 35.7147 83.5432 35.192C84.2099 34.6693 85.1406 34.408 86.3352 34.408C87.4979 34.408 88.3966 34.68 89.0312 35.224C89.6659 35.7627 90.0259 36.5147 90.1112 37.48H88.2552C88.1859 37.0693 87.9992 36.7413 87.6952 36.496C87.3912 36.2453 86.9379 36.12 86.3352 36.12C85.8019 36.12 85.3806 36.232 85.0712 36.456C84.7619 36.6747 84.6072 36.952 84.6072 37.288C84.6072 37.576 84.7032 37.8053 84.8952 37.976C85.0926 38.1413 85.3966 38.3013 85.8072 38.456L88.0792 39.336C88.8472 39.6347 89.4366 40.0107 89.8472 40.464C90.2579 40.9173 90.4632 41.4853 90.4632 42.168C90.4632 42.792 90.3059 43.3333 89.9912 43.792C89.6766 44.2453 89.2179 44.5973 88.6152 44.848C88.0126 45.0987 87.2792 45.224 86.4152 45.224ZM92.0264 45L95.5624 34.616H97.9304L101.322 45H99.3384L98.6184 42.76H94.7624L94.0264 45H92.0264ZM95.2424 41.336H98.1704L96.7144 36.872L95.2424 41.336ZM105.226 34.616V43.352H109.498V45H103.338V34.616H105.226ZM109.059 36.248V34.616H117.379V36.248H113.739L114.163 35.816V45H112.275V35.816L112.699 36.248H109.059ZM117.735 34.616H119.975L122.455 39.08H122.087L124.663 34.616H126.887L123.191 40.712V45H121.303V40.712L117.735 34.616ZM132.869 45V34.616H136.709C137.951 34.616 138.903 34.9067 139.565 35.488C140.231 36.0693 140.565 36.84 140.565 37.8C140.565 38.744 140.231 39.5067 139.565 40.088C138.903 40.664 137.951 40.952 136.709 40.952H134.757V45H132.869ZM138.485 45L135.733 40.136H137.749L140.949 45H138.485ZM134.757 39.688H136.517C137.21 39.688 137.735 39.5307 138.093 39.216C138.45 38.896 138.629 38.4827 138.629 37.976C138.629 37.4587 138.466 37.0427 138.141 36.728C137.815 36.408 137.338 36.248 136.709 36.248H134.757V39.688ZM143.31 45V34.616H149.982V36.248H145.198V38.984H149.694V40.616H145.198V43.352H149.982V45H143.31ZM156.652 45.224C155.74 45.224 154.945 45.008 154.268 44.576C153.596 44.1387 153.073 43.5147 152.7 42.704C152.327 41.8933 152.14 40.92 152.14 39.784C152.14 38.6107 152.332 37.6267 152.716 36.832C153.105 36.032 153.639 35.4293 154.316 35.024C154.999 34.6133 155.777 34.408 156.652 34.408C157.863 34.408 158.807 34.7013 159.484 35.288C160.167 35.8747 160.604 36.6373 160.796 37.576L158.78 37.944C158.615 37.4 158.351 36.96 157.988 36.624C157.625 36.288 157.18 36.12 156.652 36.12C156.188 36.12 155.769 36.256 155.396 36.528C155.023 36.7947 154.724 37.2 154.5 37.744C154.281 38.288 154.172 38.968 154.172 39.784C154.172 40.552 154.268 41.2133 154.46 41.768C154.657 42.3227 154.94 42.7493 155.308 43.048C155.676 43.3467 156.124 43.496 156.652 43.496C157.329 43.496 157.852 43.3173 158.22 42.96C158.593 42.5973 158.78 42.136 158.78 41.576H160.796C160.796 42.3493 160.628 43.008 160.292 43.552C159.961 44.0907 159.487 44.504 158.868 44.792C158.249 45.08 157.511 45.224 156.652 45.224ZM163.177 45V34.616H165.065V45H163.177ZM168.164 45V34.616H171.828C172.996 34.616 173.905 34.904 174.556 35.48C175.212 36.056 175.54 36.872 175.54 37.928C175.54 38.9733 175.212 39.784 174.556 40.36C173.905 40.936 172.996 41.224 171.828 41.224H170.068V45H168.164ZM170.068 39.576H171.828C172.414 39.576 172.857 39.4213 173.156 39.112C173.454 38.8027 173.604 38.408 173.604 37.928C173.604 37.4373 173.454 37.0347 173.156 36.72C172.857 36.4053 172.414 36.248 171.828 36.248H170.068V39.576ZM177.637 45V34.616H184.309V36.248H179.525V38.984H184.021V40.616H179.525V43.352H184.309V45H177.637ZM190.82 45.224C190.1 45.224 189.436 45.0987 188.828 44.848C188.225 44.5973 187.734 44.216 187.356 43.704C186.982 43.192 186.782 42.5413 186.756 41.752H188.612C188.612 42.152 188.71 42.48 188.908 42.736C189.105 42.992 189.369 43.184 189.7 43.312C190.036 43.4347 190.404 43.496 190.804 43.496C191.188 43.496 191.529 43.4453 191.828 43.344C192.132 43.2427 192.369 43.0987 192.54 42.912C192.716 42.72 192.804 42.4933 192.804 42.232C192.804 41.8853 192.697 41.6133 192.484 41.416C192.276 41.2187 191.94 41.0373 191.476 40.872L189.428 40.056C188.628 39.7413 188.014 39.376 187.588 38.96C187.161 38.544 186.948 37.9707 186.948 37.24C186.948 36.3973 187.281 35.7147 187.948 35.192C188.614 34.6693 189.545 34.408 190.74 34.408C191.902 34.408 192.801 34.68 193.436 35.224C194.07 35.7627 194.43 36.5147 194.516 37.48H192.66C192.59 37.0693 192.404 36.7413 192.1 36.496C191.796 36.2453 191.342 36.12 190.74 36.12C190.206 36.12 189.785 36.232 189.476 36.456C189.166 36.6747 189.012 36.952 189.012 37.288C189.012 37.576 189.108 37.8053 189.3 37.976C189.497 38.1413 189.801 38.3013 190.212 38.456L192.484 39.336C193.252 39.6347 193.841 40.0107 194.252 40.464C194.662 40.9173 194.868 41.4853 194.868 42.168C194.868 42.792 194.71 43.3333 194.396 43.792C194.081 44.2453 193.622 44.5973 193.02 44.848C192.417 45.0987 191.684 45.224 190.82 45.224ZM197.503 46.744L196.559 46.28C196.863 46.1253 197.119 45.9547 197.327 45.768C197.54 45.5813 197.679 45.352 197.743 45.08C197.513 45.0533 197.316 44.9707 197.151 44.832C196.991 44.6933 196.911 44.5093 196.911 44.28C196.911 44.056 196.993 43.864 197.159 43.704C197.329 43.544 197.545 43.464 197.807 43.464C198.137 43.464 198.404 43.584 198.607 43.824C198.809 44.064 198.911 44.3493 198.911 44.68C198.911 45.0693 198.791 45.4507 198.551 45.824C198.316 46.2027 197.967 46.5093 197.503 46.744ZM32.104 65.224C31.384 65.224 30.72 65.0987 30.112 64.848C29.5093 64.5973 29.0187 64.216 28.64 63.704C28.2667 63.192 28.0667 62.5413 28.04 61.752H29.896C29.896 62.152 29.9947 62.48 30.192 62.736C30.3893 62.992 30.6533 63.184 30.984 63.312C31.32 63.4347 31.688 63.496 32.088 63.496C32.472 63.496 32.8133 63.4453 33.112 63.344C33.416 63.2427 33.6533 63.0987 33.824 62.912C34 62.72 34.088 62.4933 34.088 62.232C34.088 61.8853 33.9813 61.6133 33.768 61.416C33.56 61.2187 33.224 61.0373 32.76 60.872L30.712 60.056C29.912 59.7413 29.2987 59.376 28.872 58.96C28.4453 58.544 28.232 57.9707 28.232 57.24C28.232 56.3973 28.5653 55.7147 29.232 55.192C29.8987 54.6693 30.8293 54.408 32.024 54.408C33.1867 54.408 34.0853 54.68 34.72 55.224C35.3547 55.7627 35.7147 56.5147 35.8 57.48H33.944C33.8747 57.0693 33.688 56.7413 33.384 56.496C33.08 56.2453 32.6267 56.12 32.024 56.12C31.4907 56.12 31.0693 56.232 30.76 56.456C30.4507 56.6747 30.296 56.952 30.296 57.288C30.296 57.576 30.392 57.8053 30.584 57.976C30.7813 58.1413 31.0853 58.3013 31.496 58.456L33.768 59.336C34.536 59.6347 35.1253 60.0107 35.536 60.464C35.9467 60.9173 36.152 61.4853 36.152 62.168C36.152 62.792 35.9947 63.3333 35.68 63.792C35.3653 64.2453 34.9067 64.5973 34.304 64.848C33.7013 65.0987 32.968 65.224 32.104 65.224ZM37.5231 54.616H39.6351L42.1471 63.336H41.6671L44.1471 55.304H45.4271L48.0031 63.208H47.5711L50.2111 54.616H52.3391L48.7711 65H46.7871L44.7551 58.872H44.9311L42.8991 65H40.9151L37.5231 54.616ZM54.1357 65V54.616H60.8077V56.248H56.0237V58.984H60.5198V60.616H56.0237V63.352H60.8077V65H54.1357ZM63.6864 65V54.616H70.3584V56.248H65.5744V58.984H70.0704V60.616H65.5744V63.352H70.3584V65H63.6864ZM71.861 56.248V54.616H80.181V56.248H76.541L76.965 55.816V65H75.077V55.816L75.501 56.248H71.861ZM84.7279 56.248V54.616H93.0479V56.248H89.4079L89.8319 55.816V65H87.9439V55.816L88.3679 56.248H84.7279ZM94.7799 65V54.616H98.6199C99.8625 54.616 100.815 54.9067 101.476 55.488C102.143 56.0693 102.476 56.84 102.476 57.8C102.476 58.744 102.143 59.5067 101.476 60.088C100.815 60.664 99.8625 60.952 98.6199 60.952H96.6679V65H94.7799ZM100.396 65L97.6439 60.136H99.6599L102.86 65H100.396ZM96.6679 59.688H98.4279C99.1212 59.688 99.6465 59.5307 100.004 59.216C100.361 58.896 100.54 58.4827 100.54 57.976C100.54 57.4587 100.377 57.0427 100.052 56.728C99.7265 56.408 99.2492 56.248 98.6199 56.248H96.6679V59.688ZM105.221 65V54.616H111.893V56.248H107.109V58.984H111.605V60.616H107.109V63.352H111.893V65H105.221ZM113.651 65L117.187 54.616H119.555L122.947 65H120.963L120.243 62.76H116.387L115.651 65H113.651ZM116.867 61.336H119.795L118.339 56.872L116.867 61.336ZM122.852 56.248V54.616H131.172V56.248H127.532L127.956 55.816V65H126.068V55.816L126.492 56.248H122.852ZM136.52 65.224C135.8 65.224 135.136 65.0987 134.528 64.848C133.926 64.5973 133.435 64.216 133.056 63.704C132.683 63.192 132.483 62.5413 132.456 61.752H134.312C134.312 62.152 134.411 62.48 134.608 62.736C134.806 62.992 135.07 63.184 135.4 63.312C135.736 63.4347 136.104 63.496 136.504 63.496C136.888 63.496 137.23 63.4453 137.528 63.344C137.832 63.2427 138.07 63.0987 138.24 62.912C138.416 62.72 138.504 62.4933 138.504 62.232C138.504 61.8853 138.398 61.6133 138.184 61.416C137.976 61.2187 137.64 61.0373 137.176 60.872L135.128 60.056C134.328 59.7413 133.715 59.376 133.288 58.96C132.862 58.544 132.648 57.9707 132.648 57.24C132.648 56.3973 132.982 55.7147 133.648 55.192C134.315 54.6693 135.246 54.408 136.44 54.408C137.603 54.408 138.502 54.68 139.136 55.224C139.771 55.7627 140.131 56.5147 140.216 57.48H138.36C138.291 57.0693 138.104 56.7413 137.8 56.496C137.496 56.2453 137.043 56.12 136.44 56.12C135.907 56.12 135.486 56.232 135.176 56.456C134.867 56.6747 134.712 56.952 134.712 57.288C134.712 57.576 134.808 57.8053 135 57.976C135.198 58.1413 135.502 58.3013 135.912 58.456L138.184 59.336C138.952 59.6347 139.542 60.0107 139.952 60.464C140.363 60.9173 140.568 61.4853 140.568 62.168C140.568 62.792 140.411 63.3333 140.096 63.792C139.782 64.2453 139.323 64.5973 138.72 64.848C138.118 65.0987 137.384 65.224 136.52 65.224ZM143.203 66.744L142.259 66.28C142.563 66.1253 142.819 65.9547 143.027 65.768C143.241 65.5813 143.379 65.352 143.443 65.08C143.214 65.0533 143.017 64.9707 142.851 64.832C142.691 64.6933 142.611 64.5093 142.611 64.28C142.611 64.056 142.694 63.864 142.859 63.704C143.03 63.544 143.246 63.464 143.507 63.464C143.838 63.464 144.105 63.584 144.307 63.824C144.51 64.064 144.611 64.3493 144.611 64.68C144.611 65.0693 144.491 65.4507 144.251 65.824C144.017 66.2027 143.667 66.5093 143.203 66.744ZM150.728 65V54.616H157.272V56.248H152.616V58.984H156.872V60.6H152.616V65H150.728ZM159.622 65V54.616H166.294V56.248H161.51V58.984H166.006V60.616H161.51V63.352H166.294V65H159.622ZM172.805 65.224C172.085 65.224 171.421 65.0987 170.813 64.848C170.21 64.5973 169.719 64.216 169.341 63.704C168.967 63.192 168.767 62.5413 168.741 61.752H170.597C170.597 62.152 170.695 62.48 170.893 62.736C171.09 62.992 171.354 63.184 171.685 63.312C172.021 63.4347 172.389 63.496 172.789 63.496C173.173 63.496 173.514 63.4453 173.813 63.344C174.117 63.2427 174.354 63.0987 174.525 62.912C174.701 62.72 174.789 62.4933 174.789 62.232C174.789 61.8853 174.682 61.6133 174.469 61.416C174.261 61.2187 173.925 61.0373 173.461 60.872L171.413 60.056C170.613 59.7413 169.999 59.376 169.573 58.96C169.146 58.544 168.933 57.9707 168.933 57.24C168.933 56.3973 169.266 55.7147 169.933 55.192C170.599 54.6693 171.53 54.408 172.725 54.408C173.887 54.408 174.786 54.68 175.421 55.224C176.055 55.7627 176.415 56.5147 176.501 57.48H174.645C174.575 57.0693 174.389 56.7413 174.085 56.496C173.781 56.2453 173.327 56.12 172.725 56.12C172.191 56.12 171.77 56.232 171.461 56.456C171.151 56.6747 170.997 56.952 170.997 57.288C170.997 57.576 171.093 57.8053 171.285 57.976C171.482 58.1413 171.786 58.3013 172.197 58.456L174.469 59.336C175.237 59.6347 175.826 60.0107 176.237 60.464C176.647 60.9173 176.853 61.4853 176.853 62.168C176.853 62.792 176.695 63.3333 176.381 63.792C176.066 64.2453 175.607 64.5973 175.005 64.848C174.402 65.0987 173.669 65.224 172.805 65.224ZM178.16 56.248V54.616H186.48V56.248H182.84L183.264 55.816V65H181.376V55.816L181.8 56.248H178.16ZM188.212 65V54.616H190.1V65H188.212ZM196.479 62.936L199.135 54.616H201.119L197.551 65H195.567L192.047 54.616H194.047L196.671 62.936H196.479ZM203.031 65V54.616H209.703V56.248H204.919V58.984H209.415V60.616H204.919V63.352H209.703V65H203.031ZM28.472 85V74.616H35.144V76.248H30.36V78.984H34.856V80.616H30.36V83.352H35.144V85H28.472ZM41.2706 82.936L43.9266 74.616H45.9106L42.3426 85H40.3586L36.8386 74.616H38.8386L41.4626 82.936H41.2706ZM47.8232 85V74.616H54.4952V76.248H49.7112V78.984H54.2073V80.616H49.7112V83.352H54.4952V85H47.8232ZM57.3579 74.616H59.4219L64.1419 82.024H63.9979V74.616H65.8859V85H63.9659L58.9419 77.144H59.2459V85H57.3579V74.616ZM67.6266 76.248V74.616H75.9466V76.248H72.3066L72.7306 75.816V85H70.8426V75.816L71.2666 76.248H67.6266ZM81.2946 85.224C80.5746 85.224 79.9106 85.0987 79.3026 84.848C78.7 84.5973 78.2093 84.216 77.8306 83.704C77.4573 83.192 77.2573 82.5413 77.2306 81.752H79.0866C79.0866 82.152 79.1853 82.48 79.3826 82.736C79.58 82.992 79.844 83.184 80.1746 83.312C80.5106 83.4347 80.8786 83.496 81.2786 83.496C81.6626 83.496 82.004 83.4453 82.3026 83.344C82.6066 83.2427 82.844 83.0987 83.0146 82.912C83.1906 82.72 83.2786 82.4933 83.2786 82.232C83.2786 81.8853 83.172 81.6133 82.9586 81.416C82.7506 81.2187 82.4146 81.0373 81.9506 80.872L79.9026 80.056C79.1026 79.7413 78.4893 79.376 78.0626 78.96C77.636 78.544 77.4226 77.9707 77.4226 77.24C77.4226 76.3973 77.756 75.7147 78.4226 75.192C79.0893 74.6693 80.02 74.408 81.2146 74.408C82.3773 74.408 83.276 74.68 83.9106 75.224C84.5453 75.7627 84.9053 76.5147 84.9906 77.48H83.1346C83.0653 77.0693 82.8786 76.7413 82.5746 76.496C82.2706 76.2453 81.8173 76.12 81.2146 76.12C80.6813 76.12 80.26 76.232 79.9506 76.456C79.6413 76.6747 79.4866 76.952 79.4866 77.288C79.4866 77.576 79.5826 77.8053 79.7746 77.976C79.972 78.1413 80.276 78.3013 80.6866 78.456L82.9586 79.336C83.7266 79.6347 84.316 80.0107 84.7266 80.464C85.1373 80.9173 85.3426 81.4853 85.3426 82.168C85.3426 82.792 85.1853 83.3333 84.8706 83.792C84.556 84.2453 84.0973 84.5973 83.4946 84.848C82.892 85.0987 82.1586 85.224 81.2946 85.224ZM97.1126 85L96.9526 83.32V80.04C96.9526 79.352 96.806 78.8587 96.5126 78.56C96.2193 78.256 95.7793 78.104 95.1926 78.104C94.862 78.104 94.5606 78.152 94.2886 78.248C94.022 78.344 93.8086 78.4933 93.6486 78.696C93.494 78.8933 93.4166 79.1493 93.4166 79.464H92.0246C92.0246 78.9093 92.1606 78.464 92.4326 78.128C92.7046 77.7867 93.078 77.5413 93.5526 77.392C94.0326 77.2373 94.5793 77.16 95.1926 77.16C95.7793 77.16 96.2993 77.2587 96.7526 77.456C97.206 77.6533 97.5606 77.968 97.8166 78.4C98.0726 78.8267 98.2006 79.384 98.2006 80.072V85H97.1126ZM94.5046 85.192C93.8753 85.192 93.3553 85.08 92.9446 84.856C92.534 84.632 92.2273 84.3413 92.0246 83.984C91.822 83.6267 91.7206 83.2507 91.7206 82.856C91.7206 82.3387 91.8486 81.9173 92.1046 81.592C92.366 81.2667 92.7206 81.0293 93.1686 80.88C93.6166 80.7253 94.1206 80.648 94.6806 80.648C95.0806 80.648 95.4806 80.688 95.8806 80.768C96.286 80.848 96.6806 80.9573 97.0646 81.096V81.88C96.7446 81.752 96.382 81.6507 95.9766 81.576C95.5766 81.5013 95.2086 81.464 94.8726 81.464C94.3606 81.464 93.9286 81.5707 93.5766 81.784C93.2246 81.992 93.0486 82.3493 93.0486 82.856C93.0486 83.2293 93.182 83.5493 93.4486 83.816C93.7206 84.0827 94.1526 84.216 94.7446 84.216C95.1606 84.216 95.534 84.12 95.8646 83.928C96.2006 83.7307 96.4646 83.4853 96.6566 83.192C96.854 82.8987 96.9526 82.6053 96.9526 82.312H97.2566C97.2566 82.824 97.1446 83.2987 96.9206 83.736C96.702 84.1733 96.3873 84.5253 95.9766 84.792C95.566 85.0587 95.0753 85.192 94.5046 85.192ZM106.789 85V80.504C106.789 79.7733 106.613 79.2187 106.261 78.84C105.914 78.456 105.44 78.264 104.837 78.264C104.378 78.264 103.981 78.3893 103.645 78.64C103.309 78.8907 103.05 79.2507 102.869 79.72C102.688 80.184 102.597 80.7387 102.597 81.384H102.117C102.117 80.4933 102.234 79.7333 102.469 79.104C102.704 78.4747 103.045 77.9947 103.493 77.664C103.946 77.328 104.496 77.16 105.141 77.16C105.744 77.16 106.258 77.296 106.685 77.568C107.117 77.8347 107.448 78.2187 107.677 78.72C107.906 79.2213 108.021 79.816 108.021 80.504V85H106.789ZM101.349 85V77.352H102.421L102.597 79.112V85H101.349ZM113.901 85.192C113.283 85.192 112.715 85.0267 112.197 84.696C111.68 84.36 111.267 83.8907 110.957 83.288C110.648 82.68 110.493 81.9653 110.493 81.144C110.493 80.328 110.645 79.6213 110.949 79.024C111.253 78.4267 111.656 77.968 112.157 77.648C112.664 77.3227 113.219 77.16 113.821 77.16C114.381 77.16 114.872 77.296 115.293 77.568C115.72 77.84 116.051 78.232 116.285 78.744C116.52 79.256 116.637 79.8747 116.637 80.6H116.157C116.157 80.0933 116.056 79.6667 115.853 79.32C115.656 78.9733 115.397 78.712 115.077 78.536C114.757 78.3547 114.413 78.264 114.045 78.264C113.629 78.264 113.248 78.3813 112.901 78.616C112.56 78.8453 112.285 79.176 112.077 79.608C111.875 80.0347 111.773 80.5467 111.773 81.144C111.773 81.752 111.875 82.2747 112.077 82.712C112.285 83.1493 112.56 83.4853 112.901 83.72C113.248 83.9547 113.629 84.072 114.045 84.072C114.392 84.072 114.725 83.9813 115.045 83.8C115.371 83.6187 115.637 83.3547 115.845 83.008C116.053 82.656 116.157 82.232 116.157 81.736H116.637C116.637 82.4773 116.515 83.1067 116.269 83.624C116.029 84.136 115.701 84.5253 115.285 84.792C114.875 85.0587 114.413 85.192 113.901 85.192ZM116.365 85L116.157 83.208V74.088H117.405V85H116.365ZM135.519 85V80.504C135.519 79.7733 135.343 79.2187 134.991 78.84C134.644 78.456 134.175 78.264 133.583 78.264C132.889 78.264 132.359 78.5333 131.991 79.072C131.623 79.6053 131.439 80.344 131.439 81.288H130.863C130.863 80.6 130.929 79.9973 131.063 79.48C131.201 78.9627 131.401 78.5333 131.663 78.192C131.924 77.8453 132.241 77.5867 132.615 77.416C132.988 77.2453 133.412 77.16 133.887 77.16C134.489 77.16 135.004 77.296 135.431 77.568C135.863 77.8347 136.193 78.2187 136.423 78.72C136.652 79.2213 136.767 79.816 136.767 80.504V85H135.519ZM124.767 85V77.352H125.839L125.983 78.888C126.223 78.3333 126.559 77.9067 126.991 77.608C127.428 77.3093 127.951 77.16 128.559 77.16C129.161 77.16 129.676 77.296 130.103 77.568C130.535 77.8347 130.865 78.2187 131.095 78.72C131.324 79.2213 131.439 79.816 131.439 80.504V85H130.207V80.504C130.207 79.7733 130.031 79.2187 129.679 78.84C129.332 78.456 128.857 78.264 128.255 78.264C127.796 78.264 127.399 78.3893 127.063 78.64C126.727 78.8907 126.468 79.2507 126.287 79.72C126.105 80.184 126.015 80.7387 126.015 81.384V85H124.767ZM142.663 85.192C141.975 85.192 141.362 85.04 140.823 84.736C140.29 84.432 139.869 83.9813 139.559 83.384C139.25 82.7867 139.095 82.0507 139.095 81.176C139.095 80.296 139.25 79.56 139.559 78.968C139.869 78.3707 140.29 77.92 140.823 77.616C141.362 77.312 141.975 77.16 142.663 77.16C143.346 77.16 143.954 77.312 144.487 77.616C145.026 77.92 145.447 78.3707 145.751 78.968C146.061 79.56 146.215 80.296 146.215 81.176C146.215 82.0507 146.061 82.7867 145.751 83.384C145.447 83.9813 145.026 84.432 144.487 84.736C143.954 85.04 143.346 85.192 142.663 85.192ZM142.631 84.104C143.127 84.104 143.549 83.9867 143.895 83.752C144.242 83.512 144.503 83.1733 144.679 82.736C144.861 82.2987 144.951 81.7787 144.951 81.176C144.951 80.264 144.762 79.5467 144.383 79.024C144.005 78.496 143.442 78.232 142.695 78.232C142.194 78.232 141.77 78.352 141.423 78.592C141.082 78.8267 140.821 79.1653 140.639 79.608C140.463 80.0453 140.375 80.568 140.375 81.176C140.375 82.0773 140.565 82.792 140.943 83.32C141.327 83.8427 141.89 84.104 142.631 84.104ZM148.805 85V77.336H150.053V85H148.805ZM149.669 81.544C149.669 80.5733 149.763 79.768 149.949 79.128C150.136 78.4827 150.408 78.0027 150.765 77.688C151.128 77.368 151.568 77.208 152.085 77.208C152.256 77.208 152.411 77.2213 152.549 77.248C152.693 77.2693 152.837 77.304 152.981 77.352L152.901 78.584C152.752 78.536 152.589 78.496 152.413 78.464C152.237 78.4267 152.08 78.408 151.941 78.408C151.488 78.408 151.123 78.5387 150.845 78.8C150.568 79.056 150.365 79.4187 150.237 79.888C150.115 80.3573 150.053 80.9093 150.053 81.544H149.669ZM157.403 85.192C156.741 85.192 156.149 85.024 155.627 84.688C155.109 84.3467 154.699 83.8747 154.395 83.272C154.096 82.6693 153.947 81.976 153.947 81.192C153.947 80.3547 154.096 79.6347 154.395 79.032C154.693 78.4293 155.101 77.968 155.619 77.648C156.141 77.3227 156.736 77.16 157.403 77.16C157.984 77.16 158.48 77.2773 158.891 77.512C159.301 77.7467 159.632 78.064 159.883 78.464C160.133 78.864 160.307 79.3173 160.403 79.824C160.504 80.3253 160.533 80.8453 160.491 81.384H154.955V80.616H159.667L159.299 80.856C159.315 80.5413 159.296 80.2267 159.243 79.912C159.195 79.5973 159.101 79.3093 158.963 79.048C158.824 78.7813 158.629 78.568 158.379 78.408C158.128 78.248 157.808 78.168 157.419 78.168C156.928 78.168 156.517 78.2933 156.187 78.544C155.856 78.7947 155.608 79.1253 155.443 79.536C155.277 79.9413 155.195 80.3813 155.195 80.856V81.368C155.195 81.9013 155.275 82.3787 155.435 82.8C155.6 83.2213 155.845 83.5547 156.171 83.8C156.496 84.0453 156.907 84.168 157.403 84.168C157.899 84.168 158.307 84.048 158.627 83.808C158.947 83.568 159.141 83.2133 159.211 82.744H160.507C160.427 83.2507 160.245 83.688 159.963 84.056C159.68 84.4187 159.32 84.6987 158.883 84.896C158.445 85.0933 157.952 85.192 157.403 85.192ZM161.989 84.256C161.989 84.0053 162.077 83.7893 162.253 83.608C162.429 83.4267 162.651 83.336 162.917 83.336C163.184 83.336 163.411 83.4267 163.597 83.608C163.784 83.7893 163.877 84.0053 163.877 84.256C163.877 84.5067 163.784 84.7173 163.597 84.888C163.411 85.0587 163.184 85.144 162.917 85.144C162.651 85.144 162.429 85.0587 162.253 84.888C162.077 84.712 161.989 84.5013 161.989 84.256Z" fill="#333333"/>
</g>
<defs>
<filter id="filter0_d_7099_6257" x="0" y="0" width="246.768" height="108" filterUnits="userSpaceOnUse" color-interpolation-filters="sRGB">
<feFlood flood-opacity="0" result="BackgroundImageFix"/>
<feColorMatrix in="SourceAlpha" type="matrix" values="0 0 0 0 0 0 0 0 0 0 0 0 0 0 0 0 0 0 127 0" result="hardAlpha"/>
<feOffset dy="4"/>
<feGaussianBlur stdDeviation="3"/>
<feComposite in2="hardAlpha" operator="out"/>
<feColorMatrix type="matrix" values="0 0 0 0 0 0 0 0 0 0 0 0 0 0 0 0 0 0 0.1 0"/>
<feBlend mode="normal" in2="BackgroundImageFix" result="effect1_dropShadow_7099_6257"/>
<feBlend mode="normal" in="SourceGraphic" in2="effect1_dropShadow_7099_6257" result="shape"/>
</filter>
</defs>
</svg>
