<svg width="262" height="108" viewBox="0 0 262 108" fill="none" xmlns="http://www.w3.org/2000/svg">
<g filter="url(#filter0_d_7044_5940)">
<mask id="path-1-inside-1_7044_5940" fill="white">
<path d="M7.04338 52.6331L16.7674 61L16.7674 89C16.7674 93.9706 20.7968 98 25.7674 98L246.767 98C251.738 98 255.767 93.9706 255.767 89L255.767 11C255.767 6.02948 251.738 2.00004 246.767 2.00004L25.7674 2C20.7969 2 16.7674 6.02944 16.7674 11L16.7674 40.5L7.1556 47.9931C5.66185 49.1575 5.60766 51.3978 7.04338 52.6331Z"/>
</mask>
<path d="M7.04338 52.6331L16.7674 61L16.7674 89C16.7674 93.9706 20.7968 98 25.7674 98L246.767 98C251.738 98 255.767 93.9706 255.767 89L255.767 11C255.767 6.02948 251.738 2.00004 246.767 2.00004L25.7674 2C20.7969 2 16.7674 6.02944 16.7674 11L16.7674 40.5L7.1556 47.9931C5.66185 49.1575 5.60766 51.3978 7.04338 52.6331Z" fill="white"/>
<path d="M16.7674 61L18.1674 61L18.1674 60.3577L17.6805 59.9388L16.7674 61ZM7.04338 52.6331L6.13026 53.6944L6.13026 53.6944L7.04338 52.6331ZM7.1556 47.9931L6.29486 46.8889L6.29486 46.8889L7.1556 47.9931ZM16.7674 40.5L17.6282 41.6041L18.1674 41.1838L18.1674 40.5L16.7674 40.5ZM16.7674 11L15.3674 11L16.7674 11ZM16.7674 89L18.1674 89L16.7674 89ZM17.6805 59.9388L7.9565 51.5719L6.13026 53.6944L15.8543 62.0612L17.6805 59.9388ZM8.01635 49.0972L17.6282 41.6041L15.9067 39.3959L6.29486 46.8889L8.01635 49.0972ZM7.9565 51.5719C7.19078 50.9131 7.21968 49.7183 8.01635 49.0972L6.29486 46.8889C4.10401 48.5968 4.02454 51.8825 6.13026 53.6944L7.9565 51.5719ZM25.7674 3.4L246.767 3.40004L246.767 0.600042L25.7674 0.600003L25.7674 3.4ZM254.367 11L254.367 89L257.167 89L257.167 11L254.367 11ZM246.767 96.6L25.7674 96.6L25.7674 99.4L246.767 99.4L246.767 96.6ZM18.1674 40.5L18.1674 11L15.3674 11L15.3674 40.5L18.1674 40.5ZM18.1674 89L18.1674 61L15.3674 61L15.3674 89L18.1674 89ZM25.7674 96.6C21.57 96.6 18.1674 93.1974 18.1674 89L15.3674 89C15.3674 94.7438 20.0236 99.4 25.7674 99.4L25.7674 96.6ZM254.367 89C254.367 93.1974 250.965 96.6 246.767 96.6L246.767 99.4C252.511 99.4 257.167 94.7438 257.167 89L254.367 89ZM246.767 3.40004C250.965 3.40004 254.367 6.80268 254.367 11L257.167 11C257.167 5.25628 252.511 0.600043 246.767 0.600042L246.767 3.40004ZM25.7674 0.600003C20.0237 0.600002 15.3674 5.25624 15.3674 11L18.1674 11C18.1674 6.80264 21.5701 3.4 25.7674 3.4L25.7674 0.600003Z" fill="#333333" mask="url(#path-1-inside-1_7044_5940)"/>
<path d="M34.224 14.952H35.632L38.24 23.896H37.872L40.544 15.992H41.392L44.032 23.832H43.68L46.672 14.952H48.064L44.512 25H43.2L40.88 18.184H41.12L38.72 25H37.408L34.224 14.952ZM52.2133 25.192C51.5519 25.192 50.9599 25.024 50.4372 24.688C49.9199 24.3467 49.5092 23.8747 49.2052 23.272C48.9066 22.6693 48.7572 21.976 48.7572 21.192C48.7572 20.3547 48.9066 19.6347 49.2052 19.032C49.5039 18.4293 49.9119 17.968 50.4293 17.648C50.9519 17.3227 51.5466 17.16 52.2133 17.16C52.7946 17.16 53.2906 17.2773 53.7013 17.512C54.1119 17.7467 54.4426 18.064 54.6933 18.464C54.9439 18.864 55.1173 19.3173 55.2133 19.824C55.3146 20.3253 55.3439 20.8453 55.3012 21.384H49.7652V20.616H54.4773L54.1093 20.856C54.1253 20.5413 54.1066 20.2267 54.0533 19.912C54.0053 19.5973 53.9119 19.3093 53.7733 19.048C53.6346 18.7813 53.4399 18.568 53.1892 18.408C52.9386 18.248 52.6186 18.168 52.2292 18.168C51.7386 18.168 51.3279 18.2933 50.9973 18.544C50.6666 18.7947 50.4186 19.1253 50.2532 19.536C50.0879 19.9413 50.0052 20.3813 50.0052 20.856V21.368C50.0052 21.9013 50.0852 22.3787 50.2452 22.8C50.4106 23.2213 50.6559 23.5547 50.9813 23.8C51.3066 24.0453 51.7173 24.168 52.2133 24.168C52.7093 24.168 53.1173 24.048 53.4373 23.808C53.7573 23.568 53.9519 23.2133 54.0213 22.744H55.3173C55.2373 23.2507 55.0559 23.688 54.7733 24.056C54.4906 24.4187 54.1306 24.6987 53.6933 24.896C53.2559 25.0933 52.7626 25.192 52.2133 25.192ZM57.936 25V14.088H59.184V25H57.936ZM65.2684 25.192C64.655 25.192 64.0817 25.0267 63.5484 24.696C63.0204 24.3653 62.5937 23.8987 62.2684 23.296C61.943 22.6933 61.7804 21.9813 61.7804 21.16C61.7804 20.3173 61.943 19.5973 62.2684 19C62.5937 18.4027 63.0204 17.9467 63.5484 17.632C64.0817 17.3173 64.655 17.16 65.2684 17.16C65.7004 17.16 66.087 17.2267 66.4284 17.36C66.775 17.488 67.0764 17.6667 67.3324 17.896C67.5884 18.1253 67.799 18.3867 67.9644 18.68C68.135 18.968 68.2604 19.272 68.3404 19.592L67.0604 19.704C66.927 19.2613 66.703 18.912 66.3884 18.656C66.079 18.3947 65.7004 18.264 65.2524 18.264C64.8737 18.264 64.5164 18.3733 64.1804 18.592C63.8497 18.8053 63.5804 19.128 63.3724 19.56C63.1644 19.9867 63.0604 20.52 63.0604 21.16C63.0604 21.752 63.1537 22.2667 63.3404 22.704C63.5324 23.136 63.7937 23.472 64.1244 23.712C64.455 23.952 64.831 24.072 65.2524 24.072C65.8444 24.072 66.2924 23.928 66.5964 23.64C66.9057 23.3467 67.0604 22.9413 67.0604 22.424H68.3404C68.3404 22.9573 68.215 23.432 67.9644 23.848C67.7137 24.264 67.3564 24.592 66.8924 24.832C66.4337 25.072 65.8924 25.192 65.2684 25.192ZM73.7584 25.192C73.0704 25.192 72.457 25.04 71.9184 24.736C71.385 24.432 70.9637 23.9813 70.6544 23.384C70.345 22.7867 70.1904 22.0507 70.1904 21.176C70.1904 20.296 70.345 19.56 70.6544 18.968C70.9637 18.3707 71.385 17.92 71.9184 17.616C72.457 17.312 73.0704 17.16 73.7584 17.16C74.441 17.16 75.049 17.312 75.5824 17.616C76.121 17.92 76.5424 18.3707 76.8464 18.968C77.1557 19.56 77.3104 20.296 77.3104 21.176C77.3104 22.0507 77.1557 22.7867 76.8464 23.384C76.5424 23.9813 76.121 24.432 75.5824 24.736C75.049 25.04 74.441 25.192 73.7584 25.192ZM73.7264 24.104C74.2224 24.104 74.6437 23.9867 74.9904 23.752C75.337 23.512 75.5984 23.1733 75.7744 22.736C75.9557 22.2987 76.0464 21.7787 76.0464 21.176C76.0464 20.264 75.857 19.5467 75.4784 19.024C75.0997 18.496 74.537 18.232 73.7904 18.232C73.289 18.232 72.865 18.352 72.5184 18.592C72.177 18.8267 71.9157 19.1653 71.7344 19.608C71.5584 20.0453 71.4704 20.568 71.4704 21.176C71.4704 22.0773 71.6597 22.792 72.0384 23.32C72.4224 23.8427 72.985 24.104 73.7264 24.104ZM90.6524 25V20.504C90.6524 19.7733 90.4764 19.2187 90.1244 18.84C89.7777 18.456 89.3084 18.264 88.7164 18.264C88.023 18.264 87.4924 18.5333 87.1244 19.072C86.7564 19.6053 86.5724 20.344 86.5724 21.288H85.9964C85.9964 20.6 86.063 19.9973 86.1964 19.48C86.335 18.9627 86.535 18.5333 86.7964 18.192C87.0577 17.8453 87.375 17.5867 87.7484 17.416C88.1217 17.2453 88.5457 17.16 89.0204 17.16C89.623 17.16 90.1377 17.296 90.5644 17.568C90.9964 17.8347 91.327 18.2187 91.5564 18.72C91.7857 19.2213 91.9004 19.816 91.9004 20.504V25H90.6524ZM79.9004 25V17.352H80.9724L81.1164 18.888C81.3564 18.3333 81.6924 17.9067 82.1244 17.608C82.5617 17.3093 83.0844 17.16 83.6924 17.16C84.295 17.16 84.8097 17.296 85.2364 17.568C85.6684 17.8347 85.999 18.2187 86.2284 18.72C86.4577 19.2213 86.5724 19.816 86.5724 20.504V25H85.3404V20.504C85.3404 19.7733 85.1644 19.2187 84.8124 18.84C84.4657 18.456 83.991 18.264 83.3884 18.264C82.9297 18.264 82.5324 18.3893 82.1964 18.64C81.8604 18.8907 81.6017 19.2507 81.4204 19.72C81.239 20.184 81.1484 20.7387 81.1484 21.384V25H79.9004ZM97.6851 25.192C97.0238 25.192 96.4318 25.024 95.9091 24.688C95.3918 24.3467 94.9811 23.8747 94.6771 23.272C94.3785 22.6693 94.2291 21.976 94.2291 21.192C94.2291 20.3547 94.3785 19.6347 94.6771 19.032C94.9758 18.4293 95.3838 17.968 95.9011 17.648C96.4238 17.3227 97.0185 17.16 97.6851 17.16C98.2665 17.16 98.7625 17.2773 99.1731 17.512C99.5838 17.7467 99.9145 18.064 100.165 18.464C100.416 18.864 100.589 19.3173 100.685 19.824C100.786 20.3253 100.816 20.8453 100.773 21.384H95.2371V20.616H99.9491L99.5811 20.856C99.5971 20.5413 99.5785 20.2267 99.5251 19.912C99.4771 19.5973 99.3838 19.3093 99.2451 19.048C99.1065 18.7813 98.9118 18.568 98.6611 18.408C98.4105 18.248 98.0905 18.168 97.7011 18.168C97.2105 18.168 96.7998 18.2933 96.4691 18.544C96.1385 18.7947 95.8905 19.1253 95.7251 19.536C95.5598 19.9413 95.4771 20.3813 95.4771 20.856V21.368C95.4771 21.9013 95.5571 22.3787 95.7171 22.8C95.8825 23.2213 96.1278 23.5547 96.4531 23.8C96.7785 24.0453 97.1891 24.168 97.6851 24.168C98.1811 24.168 98.5891 24.048 98.9091 23.808C99.2291 23.568 99.4238 23.2133 99.4931 22.744H100.789C100.709 23.2507 100.528 23.688 100.245 24.056C99.9625 24.4187 99.6025 24.6987 99.1651 24.896C98.7278 25.0933 98.2345 25.192 97.6851 25.192ZM109.717 25.192C109.301 25.192 108.927 25.112 108.597 24.952C108.266 24.792 108.005 24.552 107.813 24.232C107.621 23.912 107.525 23.512 107.525 23.032V15.224H108.757V23C108.757 23.7893 109.125 24.184 109.861 24.184C110.079 24.184 110.29 24.16 110.493 24.112C110.701 24.064 110.933 23.992 111.189 23.896L111.365 24.792C111.093 24.9093 110.821 25.0053 110.549 25.08C110.282 25.1547 110.005 25.192 109.717 25.192ZM106.293 18.216V17.352H111.173V18.216H106.293ZM116.308 25.192C115.62 25.192 115.007 25.04 114.468 24.736C113.935 24.432 113.514 23.9813 113.204 23.384C112.895 22.7867 112.74 22.0507 112.74 21.176C112.74 20.296 112.895 19.56 113.204 18.968C113.514 18.3707 113.935 17.92 114.468 17.616C115.007 17.312 115.62 17.16 116.308 17.16C116.991 17.16 117.599 17.312 118.132 17.616C118.671 17.92 119.092 18.3707 119.396 18.968C119.706 19.56 119.86 20.296 119.86 21.176C119.86 22.0507 119.706 22.7867 119.396 23.384C119.092 23.9813 118.671 24.432 118.132 24.736C117.599 25.04 116.991 25.192 116.308 25.192ZM116.276 24.104C116.772 24.104 117.194 23.9867 117.54 23.752C117.887 23.512 118.148 23.1733 118.324 22.736C118.506 22.2987 118.596 21.7787 118.596 21.176C118.596 20.264 118.407 19.5467 118.028 19.024C117.65 18.496 117.087 18.232 116.34 18.232C115.839 18.232 115.415 18.352 115.068 18.592C114.727 18.8267 114.466 19.1653 114.284 19.608C114.108 20.0453 114.02 20.568 114.02 21.176C114.02 22.0773 114.21 22.792 114.588 23.32C114.972 23.8427 115.535 24.104 116.276 24.104ZM128.759 25.192C128.343 25.192 127.97 25.112 127.639 24.952C127.309 24.792 127.047 24.552 126.855 24.232C126.663 23.912 126.567 23.512 126.567 23.032V15.224H127.799V23C127.799 23.7893 128.167 24.184 128.903 24.184C129.122 24.184 129.333 24.16 129.535 24.112C129.743 24.064 129.975 23.992 130.231 23.896L130.407 24.792C130.135 24.9093 129.863 25.0053 129.591 25.08C129.325 25.1547 129.047 25.192 128.759 25.192ZM125.335 18.216V17.352H130.215V18.216H125.335ZM138.023 25V20.504C138.023 19.7733 137.847 19.2187 137.495 18.84C137.148 18.456 136.674 18.264 136.071 18.264C135.612 18.264 135.215 18.3893 134.879 18.64C134.543 18.8907 134.284 19.2507 134.103 19.72C133.922 20.184 133.831 20.7387 133.831 21.384H133.351C133.351 20.4933 133.468 19.7333 133.703 19.104C133.938 18.4747 134.279 17.9947 134.727 17.664C135.18 17.328 135.73 17.16 136.375 17.16C136.978 17.16 137.492 17.296 137.919 17.568C138.351 17.8347 138.682 18.2187 138.911 18.72C139.14 19.2213 139.255 19.816 139.255 20.504V25H138.023ZM132.583 25V14.088H133.831V25H132.583ZM145.055 25.192C144.394 25.192 143.802 25.024 143.279 24.688C142.762 24.3467 142.351 23.8747 142.047 23.272C141.748 22.6693 141.599 21.976 141.599 21.192C141.599 20.3547 141.748 19.6347 142.047 19.032C142.346 18.4293 142.754 17.968 143.271 17.648C143.794 17.3227 144.388 17.16 145.055 17.16C145.636 17.16 146.132 17.2773 146.543 17.512C146.954 17.7467 147.284 18.064 147.535 18.464C147.786 18.864 147.959 19.3173 148.055 19.824C148.156 20.3253 148.186 20.8453 148.143 21.384H142.607V20.616H147.319L146.951 20.856C146.967 20.5413 146.948 20.2267 146.895 19.912C146.847 19.5973 146.754 19.3093 146.615 19.048C146.476 18.7813 146.282 18.568 146.031 18.408C145.78 18.248 145.46 18.168 145.071 18.168C144.58 18.168 144.17 18.2933 143.839 18.544C143.508 18.7947 143.26 19.1253 143.095 19.536C142.93 19.9413 142.847 20.3813 142.847 20.856V21.368C142.847 21.9013 142.927 22.3787 143.087 22.8C143.252 23.2213 143.498 23.5547 143.823 23.8C144.148 24.0453 144.559 24.168 145.055 24.168C145.551 24.168 145.959 24.048 146.279 23.808C146.599 23.568 146.794 23.2133 146.863 22.744H148.159C148.079 23.2507 147.898 23.688 147.615 24.056C147.332 24.4187 146.972 24.6987 146.535 24.896C146.098 25.0933 145.604 25.192 145.055 25.192ZM158.089 22.936L160.745 14.616H162.729L159.161 25H157.177L153.657 14.616H155.657L158.281 22.936H158.089ZM164.657 25V14.616H166.545V25H164.657ZM168.3 16.248V14.616H176.62V16.248H172.98L173.404 15.816V25H171.516V15.816L171.94 16.248H168.3ZM176.498 25L180.034 14.616H182.402L185.794 25H183.81L183.09 22.76H179.234L178.498 25H176.498ZM179.714 21.336H182.642L181.186 16.872L179.714 21.336ZM187.809 14.616H190.513L193.441 20.968H193.281L196.209 14.616H198.817V25H196.913V16.792H197.201L193.969 23.864H192.737L189.521 16.824H189.697V25H187.809V14.616ZM201.954 25V14.616H203.842V25H201.954ZM206.957 14.616H209.021L213.741 22.024H213.597V14.616H215.485V25H213.565L208.541 17.144H208.845V25H206.957V14.616ZM226.6 25.224C225.688 25.224 224.894 25.008 224.216 24.576C223.544 24.1387 223.022 23.5147 222.648 22.704C222.275 21.8933 222.088 20.92 222.088 19.784C222.088 18.6107 222.28 17.6267 222.664 16.832C223.054 16.032 223.587 15.4293 224.264 15.024C224.947 14.6133 225.726 14.408 226.6 14.408C227.811 14.408 228.755 14.7013 229.432 15.288C230.115 15.8747 230.552 16.6373 230.744 17.576L228.728 17.944C228.563 17.4 228.299 16.96 227.936 16.624C227.574 16.288 227.128 16.12 226.6 16.12C226.136 16.12 225.718 16.256 225.344 16.528C224.971 16.7947 224.672 17.2 224.448 17.744C224.23 18.288 224.12 18.968 224.12 19.784C224.12 20.552 224.216 21.2133 224.408 21.768C224.606 22.3227 224.888 22.7493 225.256 23.048C225.624 23.3467 226.072 23.496 226.6 23.496C227.278 23.496 227.8 23.3173 228.168 22.96C228.542 22.5973 228.728 22.136 228.728 21.576H230.744C230.744 22.3493 230.576 23.008 230.24 23.552C229.91 24.0907 229.435 24.504 228.816 24.792C228.198 25.08 227.459 25.224 226.6 25.224ZM39.088 45.192C38.528 45.192 38.04 45.064 37.624 44.808C37.2133 44.552 36.896 44.1787 36.672 43.688C36.448 43.192 36.336 42.5893 36.336 41.88H36.864C36.864 42.3547 36.9627 42.7547 37.16 43.08C37.3573 43.4053 37.6133 43.6533 37.928 43.824C38.248 43.9893 38.5867 44.072 38.944 44.072C39.328 44.072 39.696 43.9627 40.048 43.744C40.4 43.52 40.688 43.192 40.912 42.76C41.136 42.328 41.248 41.7947 41.248 41.16C41.248 40.552 41.144 40.032 40.936 39.6C40.7333 39.168 40.4587 38.8373 40.112 38.608C39.7653 38.3787 39.3813 38.264 38.96 38.264C38.5973 38.264 38.256 38.352 37.936 38.528C37.616 38.704 37.3573 38.9627 37.16 39.304C36.9627 39.64 36.864 40.056 36.864 40.552H36.336C36.336 39.8107 36.4587 39.1893 36.704 38.688C36.9493 38.1813 37.2827 37.8 37.704 37.544C38.1253 37.288 38.5973 37.16 39.12 37.16C39.7173 37.16 40.2747 37.32 40.792 37.64C41.3093 37.96 41.728 38.4187 42.048 39.016C42.368 39.6133 42.528 40.328 42.528 41.16C42.528 42.0027 42.3653 42.7253 42.04 43.328C41.72 43.9307 41.2987 44.392 40.776 44.712C40.2533 45.032 39.6907 45.192 39.088 45.192ZM35.616 48.76V37.352H36.656L36.864 39.144V48.76H35.616ZM49.8714 45L49.7114 43.32V40.04C49.7114 39.352 49.5647 38.8587 49.2714 38.56C48.978 38.256 48.538 38.104 47.9514 38.104C47.6207 38.104 47.3194 38.152 47.0474 38.248C46.7807 38.344 46.5674 38.4933 46.4074 38.696C46.2527 38.8933 46.1754 39.1493 46.1754 39.464H44.7834C44.7834 38.9093 44.9194 38.464 45.1914 38.128C45.4634 37.7867 45.8367 37.5413 46.3114 37.392C46.7914 37.2373 47.338 37.16 47.9514 37.16C48.538 37.16 49.058 37.2587 49.5114 37.456C49.9647 37.6533 50.3194 37.968 50.5754 38.4C50.8314 38.8267 50.9594 39.384 50.9594 40.072V45H49.8714ZM47.2634 45.192C46.634 45.192 46.114 45.08 45.7034 44.856C45.2927 44.632 44.986 44.3413 44.7834 43.984C44.5807 43.6267 44.4794 43.2507 44.4794 42.856C44.4794 42.3387 44.6074 41.9173 44.8634 41.592C45.1247 41.2667 45.4794 41.0293 45.9274 40.88C46.3754 40.7253 46.8794 40.648 47.4394 40.648C47.8394 40.648 48.2394 40.688 48.6394 40.768C49.0447 40.848 49.4394 40.9573 49.8234 41.096V41.88C49.5034 41.752 49.1407 41.6507 48.7354 41.576C48.3354 41.5013 47.9674 41.464 47.6314 41.464C47.1194 41.464 46.6874 41.5707 46.3354 41.784C45.9834 41.992 45.8074 42.3493 45.8074 42.856C45.8074 43.2293 45.9407 43.5493 46.2074 43.816C46.4794 44.0827 46.9114 44.216 47.5034 44.216C47.9194 44.216 48.2927 44.12 48.6234 43.928C48.9594 43.7307 49.2234 43.4853 49.4154 43.192C49.6127 42.8987 49.7114 42.6053 49.7114 42.312H50.0154C50.0154 42.824 49.9034 43.2987 49.6794 43.736C49.4607 44.1733 49.146 44.5253 48.7354 44.792C48.3247 45.0587 47.834 45.192 47.2634 45.192ZM56.8119 48.936C56.0279 48.936 55.3479 48.824 54.7719 48.6C54.1959 48.3813 53.7479 48.0853 53.4279 47.712C53.1132 47.344 52.9559 46.936 52.9559 46.488C52.9559 45.896 53.1719 45.4427 53.6039 45.128C54.0412 44.8187 54.6039 44.664 55.2919 44.664L55.9799 45.096C55.4039 45.096 54.9585 45.216 54.6439 45.456C54.3292 45.696 54.1719 46.024 54.1719 46.44C54.1719 46.856 54.3959 47.208 54.8439 47.496C55.2919 47.784 55.9479 47.928 56.8119 47.928C57.4519 47.928 58.0119 47.8347 58.4919 47.648C58.9772 47.4667 59.3532 47.2267 59.6199 46.928C59.8919 46.6347 60.0279 46.3173 60.0279 45.976C60.0279 45.736 59.9399 45.528 59.7639 45.352C59.5879 45.1813 59.3185 45.096 58.9559 45.096H55.9799C55.4625 45.096 55.0145 45.0187 54.6359 44.864C54.2625 44.704 53.9745 44.496 53.7719 44.24C53.5692 43.984 53.4679 43.704 53.4679 43.4C53.4679 43.08 53.5585 42.808 53.7399 42.584C53.9212 42.36 54.1559 42.1893 54.4439 42.072C54.7372 41.9547 55.0519 41.896 55.3879 41.896L55.6279 42.36C55.4679 42.36 55.3052 42.3973 55.1399 42.472C54.9799 42.5413 54.8439 42.648 54.7319 42.792C54.6252 42.9307 54.5719 43.1067 54.5719 43.32C54.5719 43.5653 54.6732 43.7707 54.8759 43.936C55.0785 44.1013 55.4465 44.184 55.9799 44.184H58.9559C59.6759 44.184 60.2412 44.336 60.6519 44.64C61.0679 44.944 61.2759 45.368 61.2759 45.912C61.2759 46.4133 61.0972 46.8933 60.7399 47.352C60.3825 47.816 59.8705 48.1947 59.2039 48.488C58.5372 48.7867 57.7399 48.936 56.8119 48.936ZM57.0359 42.76C56.4492 42.76 55.9185 42.6427 55.4439 42.408C54.9745 42.1733 54.6012 41.8453 54.3239 41.424C54.0519 41.0027 53.9159 40.5147 53.9159 39.96C53.9159 39.4 54.0519 38.9093 54.3239 38.488C54.6012 38.0667 54.9745 37.7413 55.4439 37.512C55.9185 37.2773 56.4492 37.16 57.0359 37.16C57.6065 37.16 58.1239 37.2773 58.5879 37.512C59.0572 37.7413 59.4305 38.0667 59.7079 38.488C59.9852 38.9093 60.1239 39.4 60.1239 39.96C60.1239 40.5147 59.9852 41.0027 59.7079 41.424C59.4305 41.8453 59.0572 42.1733 58.5879 42.408C58.1239 42.6427 57.6065 42.76 57.0359 42.76ZM57.0359 41.864C57.6225 41.864 58.0785 41.6827 58.4039 41.32C58.7292 40.9573 58.8919 40.504 58.8919 39.96C58.8919 39.4 58.7292 38.9467 58.4039 38.6C58.0785 38.248 57.6225 38.072 57.0359 38.072C56.4545 38.072 55.9959 38.248 55.6599 38.6C55.3292 38.9467 55.1639 39.4 55.1639 39.96C55.1639 40.504 55.3292 40.9573 55.6599 41.32C55.9959 41.6827 56.4545 41.864 57.0359 41.864ZM59.5479 38.376L58.9559 38.136C58.9559 37.688 59.0439 37.296 59.2199 36.96C59.3959 36.6187 59.6465 36.3547 59.9719 36.168C60.2972 35.976 60.6839 35.88 61.1319 35.88L61.0359 37.112C60.5559 37.112 60.1879 37.216 59.9319 37.424C59.6759 37.6267 59.5479 37.944 59.5479 38.376ZM65.9551 45.192C65.2938 45.192 64.7018 45.024 64.1791 44.688C63.6618 44.3467 63.2511 43.8747 62.9471 43.272C62.6485 42.6693 62.4991 41.976 62.4991 41.192C62.4991 40.3547 62.6485 39.6347 62.9471 39.032C63.2458 38.4293 63.6538 37.968 64.1711 37.648C64.6938 37.3227 65.2885 37.16 65.9551 37.16C66.5365 37.16 67.0325 37.2773 67.4431 37.512C67.8538 37.7467 68.1845 38.064 68.4351 38.464C68.6858 38.864 68.8591 39.3173 68.9551 39.824C69.0565 40.3253 69.0858 40.8453 69.0431 41.384H63.5071V40.616H68.2191L67.8511 40.856C67.8671 40.5413 67.8485 40.2267 67.7951 39.912C67.7471 39.5973 67.6538 39.3093 67.5151 39.048C67.3765 38.7813 67.1818 38.568 66.9311 38.408C66.6805 38.248 66.3605 38.168 65.9711 38.168C65.4805 38.168 65.0698 38.2933 64.7391 38.544C64.4085 38.7947 64.1605 39.1253 63.9951 39.536C63.8298 39.9413 63.7471 40.3813 63.7471 40.856V41.368C63.7471 41.9013 63.8271 42.3787 63.9871 42.8C64.1525 43.2213 64.3978 43.5547 64.7231 43.8C65.0485 44.0453 65.4591 44.168 65.9551 44.168C66.4511 44.168 66.8591 44.048 67.1791 43.808C67.4991 43.568 67.6938 43.2133 67.7631 42.744H69.0591C68.9791 43.2507 68.7978 43.688 68.5151 44.056C68.2325 44.4187 67.8725 44.6987 67.4351 44.896C66.9978 45.0933 66.5045 45.192 65.9551 45.192ZM71.4859 46.744L70.5419 46.28C70.8459 46.1253 71.1019 45.9547 71.3099 45.768C71.5232 45.5813 71.6619 45.352 71.7259 45.08C71.4965 45.0533 71.2992 44.9707 71.1339 44.832C70.9739 44.6933 70.8939 44.5093 70.8939 44.28C70.8939 44.056 70.9765 43.864 71.1419 43.704C71.3125 43.544 71.5285 43.464 71.7899 43.464C72.1205 43.464 72.3872 43.584 72.5899 43.824C72.7925 44.064 72.8939 44.3493 72.8939 44.68C72.8939 45.0693 72.7739 45.4507 72.5339 45.824C72.2992 46.2027 71.9499 46.5093 71.4859 46.744ZM77.8745 37.352H79.2665L81.7625 43.912H81.4745L83.4105 37.352H84.6905L81.8105 46.536C81.5705 47.304 81.2505 47.896 80.8505 48.312C80.4505 48.728 79.9385 48.936 79.3145 48.936C78.9785 48.936 78.6585 48.888 78.3545 48.792C78.0558 48.696 77.7465 48.5573 77.4265 48.376V47.224C77.7092 47.448 77.9812 47.608 78.2425 47.704C78.5092 47.8 78.7865 47.848 79.0745 47.848C79.3945 47.848 79.6612 47.7467 79.8745 47.544C80.0932 47.3413 80.2745 47.08 80.4185 46.76C80.5625 46.4453 80.6852 46.1147 80.7865 45.768L81.0105 45L77.8745 37.352ZM89.5196 45.192C88.8316 45.192 88.2183 45.04 87.6796 44.736C87.1463 44.432 86.725 43.9813 86.4156 43.384C86.1063 42.7867 85.9516 42.0507 85.9516 41.176C85.9516 40.296 86.1063 39.56 86.4156 38.968C86.725 38.3707 87.1463 37.92 87.6796 37.616C88.2183 37.312 88.8316 37.16 89.5196 37.16C90.2023 37.16 90.8103 37.312 91.3436 37.616C91.8823 37.92 92.3036 38.3707 92.6076 38.968C92.917 39.56 93.0716 40.296 93.0716 41.176C93.0716 42.0507 92.917 42.7867 92.6076 43.384C92.3036 43.9813 91.8823 44.432 91.3436 44.736C90.8103 45.04 90.2023 45.192 89.5196 45.192ZM89.4876 44.104C89.9836 44.104 90.405 43.9867 90.7516 43.752C91.0983 43.512 91.3596 43.1733 91.5356 42.736C91.717 42.2987 91.8076 41.7787 91.8076 41.176C91.8076 40.264 91.6183 39.5467 91.2396 39.024C90.861 38.496 90.2983 38.232 89.5516 38.232C89.0503 38.232 88.6263 38.352 88.2796 38.592C87.9383 38.8267 87.677 39.1653 87.4956 39.608C87.3196 40.0453 87.2316 40.568 87.2316 41.176C87.2316 42.0773 87.421 42.792 87.7996 43.32C88.1836 43.8427 88.7463 44.104 89.4876 44.104ZM100.862 37.336H102.11V45H100.862V37.336ZM95.4376 37.336H96.6856V42.104C96.6856 42.744 96.8403 43.2293 97.1496 43.56C97.4643 43.8907 97.9123 44.056 98.4936 44.056C98.9736 44.056 99.3896 43.928 99.7416 43.672C100.099 43.416 100.374 43.064 100.566 42.616C100.763 42.1627 100.862 41.6453 100.862 41.064H101.326C101.326 41.9227 101.2 42.656 100.95 43.264C100.704 43.872 100.355 44.3387 99.9016 44.664C99.4536 44.984 98.9256 45.144 98.3176 45.144C97.7416 45.144 97.2376 45.0373 96.8056 44.824C96.3736 44.6107 96.0376 44.288 95.7976 43.856C95.5576 43.4187 95.4376 42.8667 95.4376 42.2V37.336ZM112.154 45.192C111.541 45.192 110.967 45.0267 110.434 44.696C109.906 44.3653 109.479 43.8987 109.154 43.296C108.829 42.6933 108.666 41.9813 108.666 41.16C108.666 40.3173 108.829 39.5973 109.154 39C109.479 38.4027 109.906 37.9467 110.434 37.632C110.967 37.3173 111.541 37.16 112.154 37.16C112.586 37.16 112.973 37.2267 113.314 37.36C113.661 37.488 113.962 37.6667 114.218 37.896C114.474 38.1253 114.685 38.3867 114.85 38.68C115.021 38.968 115.146 39.272 115.226 39.592L113.946 39.704C113.813 39.2613 113.589 38.912 113.274 38.656C112.965 38.3947 112.586 38.264 112.138 38.264C111.759 38.264 111.402 38.3733 111.066 38.592C110.735 38.8053 110.466 39.128 110.258 39.56C110.05 39.9867 109.946 40.52 109.946 41.16C109.946 41.752 110.039 42.2667 110.226 42.704C110.418 43.136 110.679 43.472 111.01 43.712C111.341 43.952 111.717 44.072 112.138 44.072C112.73 44.072 113.178 43.928 113.482 43.64C113.791 43.3467 113.946 42.9413 113.946 42.424H115.226C115.226 42.9573 115.101 43.432 114.85 43.848C114.599 44.264 114.242 44.592 113.778 44.832C113.319 45.072 112.778 45.192 112.154 45.192ZM122.612 45L122.452 43.32V40.04C122.452 39.352 122.305 38.8587 122.012 38.56C121.719 38.256 121.279 38.104 120.692 38.104C120.361 38.104 120.06 38.152 119.788 38.248C119.521 38.344 119.308 38.4933 119.148 38.696C118.993 38.8933 118.916 39.1493 118.916 39.464H117.524C117.524 38.9093 117.66 38.464 117.932 38.128C118.204 37.7867 118.577 37.5413 119.052 37.392C119.532 37.2373 120.079 37.16 120.692 37.16C121.279 37.16 121.799 37.2587 122.252 37.456C122.705 37.6533 123.06 37.968 123.316 38.4C123.572 38.8267 123.7 39.384 123.7 40.072V45H122.612ZM120.004 45.192C119.375 45.192 118.855 45.08 118.444 44.856C118.033 44.632 117.727 44.3413 117.524 43.984C117.321 43.6267 117.22 43.2507 117.22 42.856C117.22 42.3387 117.348 41.9173 117.604 41.592C117.865 41.2667 118.22 41.0293 118.668 40.88C119.116 40.7253 119.62 40.648 120.18 40.648C120.58 40.648 120.98 40.688 121.38 40.768C121.785 40.848 122.18 40.9573 122.564 41.096V41.88C122.244 41.752 121.881 41.6507 121.476 41.576C121.076 41.5013 120.708 41.464 120.372 41.464C119.86 41.464 119.428 41.5707 119.076 41.784C118.724 41.992 118.548 42.3493 118.548 42.856C118.548 43.2293 118.681 43.5493 118.948 43.816C119.22 44.0827 119.652 44.216 120.244 44.216C120.66 44.216 121.033 44.12 121.364 43.928C121.7 43.7307 121.964 43.4853 122.156 43.192C122.353 42.8987 122.452 42.6053 122.452 42.312H122.756C122.756 42.824 122.644 43.2987 122.42 43.736C122.201 44.1733 121.887 44.5253 121.476 44.792C121.065 45.0587 120.575 45.192 120.004 45.192ZM132.288 45V40.504C132.288 39.7733 132.112 39.2187 131.76 38.84C131.414 38.456 130.939 38.264 130.336 38.264C129.878 38.264 129.48 38.3893 129.144 38.64C128.808 38.8907 128.55 39.2507 128.368 39.72C128.187 40.184 128.096 40.7387 128.096 41.384H127.616C127.616 40.4933 127.734 39.7333 127.968 39.104C128.203 38.4747 128.544 37.9947 128.992 37.664C129.446 37.328 129.995 37.16 130.64 37.16C131.243 37.16 131.758 37.296 132.184 37.568C132.616 37.8347 132.947 38.2187 133.176 38.72C133.406 39.2213 133.52 39.816 133.52 40.504V45H132.288ZM126.848 45V37.352H127.92L128.096 39.112V45H126.848ZM145.358 45L145.198 43.32V40.04C145.198 39.352 145.051 38.8587 144.758 38.56C144.464 38.256 144.024 38.104 143.438 38.104C143.107 38.104 142.806 38.152 142.534 38.248C142.267 38.344 142.054 38.4933 141.894 38.696C141.739 38.8933 141.662 39.1493 141.662 39.464H140.27C140.27 38.9093 140.406 38.464 140.678 38.128C140.95 37.7867 141.323 37.5413 141.798 37.392C142.278 37.2373 142.824 37.16 143.438 37.16C144.024 37.16 144.544 37.2587 144.998 37.456C145.451 37.6533 145.806 37.968 146.062 38.4C146.318 38.8267 146.446 39.384 146.446 40.072V45H145.358ZM142.75 45.192C142.12 45.192 141.6 45.08 141.19 44.856C140.779 44.632 140.472 44.3413 140.27 43.984C140.067 43.6267 139.966 43.2507 139.966 42.856C139.966 42.3387 140.094 41.9173 140.35 41.592C140.611 41.2667 140.966 41.0293 141.414 40.88C141.862 40.7253 142.366 40.648 142.926 40.648C143.326 40.648 143.726 40.688 144.126 40.768C144.531 40.848 144.926 40.9573 145.31 41.096V41.88C144.99 41.752 144.627 41.6507 144.222 41.576C143.822 41.5013 143.454 41.464 143.118 41.464C142.606 41.464 142.174 41.5707 141.822 41.784C141.47 41.992 141.294 42.3493 141.294 42.856C141.294 43.2293 141.427 43.5493 141.694 43.816C141.966 44.0827 142.398 44.216 142.99 44.216C143.406 44.216 143.779 44.12 144.11 43.928C144.446 43.7307 144.71 43.4853 144.902 43.192C145.099 42.8987 145.198 42.6053 145.198 42.312H145.502C145.502 42.824 145.39 43.2987 145.166 43.736C144.947 44.1733 144.632 44.5253 144.222 44.792C143.811 45.0587 143.32 45.192 142.75 45.192ZM152.346 45.192C151.605 45.192 150.986 45.088 150.49 44.88C149.994 44.6667 149.618 44.376 149.362 44.008C149.106 43.6347 148.97 43.208 148.954 42.728H150.154C150.181 43.2133 150.375 43.5787 150.738 43.824C151.106 44.064 151.605 44.184 152.234 44.184C152.565 44.184 152.869 44.1307 153.146 44.024C153.423 43.9173 153.645 43.7707 153.81 43.584C153.975 43.3973 154.058 43.1867 154.058 42.952C154.058 42.6533 153.949 42.4187 153.73 42.248C153.511 42.0773 153.162 41.928 152.682 41.8L151.194 41.32C150.549 41.1173 150.053 40.84 149.706 40.488C149.365 40.1307 149.194 39.704 149.194 39.208C149.194 38.5893 149.466 38.0933 150.01 37.72C150.554 37.3467 151.269 37.16 152.154 37.16C153.093 37.16 153.821 37.352 154.338 37.736C154.855 38.12 155.125 38.6 155.146 39.176H153.914C153.866 38.84 153.695 38.5867 153.402 38.416C153.109 38.24 152.693 38.152 152.154 38.152C151.637 38.152 151.231 38.2693 150.938 38.504C150.65 38.7333 150.506 38.9893 150.506 39.272C150.506 39.8 150.959 40.1893 151.866 40.44L153.386 40.952C154.042 41.1493 154.543 41.408 154.89 41.728C155.242 42.048 155.418 42.456 155.418 42.952C155.418 43.336 155.293 43.6987 155.042 44.04C154.791 44.3813 154.437 44.6587 153.978 44.872C153.519 45.0853 152.975 45.192 152.346 45.192ZM158.16 45V34.088H159.408V45H158.16ZM159.216 40.616L163.12 37.352H164.864L159.216 41.944V40.616ZM163.504 45L159.872 40.168L161.136 39.944L165.04 45H163.504ZM182.045 45V40.504C182.045 39.7733 181.869 39.2187 181.517 38.84C181.17 38.456 180.701 38.264 180.109 38.264C179.416 38.264 178.885 38.5333 178.517 39.072C178.149 39.6053 177.965 40.344 177.965 41.288H177.389C177.389 40.6 177.456 39.9973 177.589 39.48C177.728 38.9627 177.928 38.5333 178.189 38.192C178.45 37.8453 178.768 37.5867 179.141 37.416C179.514 37.2453 179.938 37.16 180.413 37.16C181.016 37.16 181.53 37.296 181.957 37.568C182.389 37.8347 182.72 38.2187 182.949 38.72C183.178 39.2213 183.293 39.816 183.293 40.504V45H182.045ZM171.293 45V37.352H172.365L172.509 38.888C172.749 38.3333 173.085 37.9067 173.517 37.608C173.954 37.3093 174.477 37.16 175.085 37.16C175.688 37.16 176.202 37.296 176.629 37.568C177.061 37.8347 177.392 38.2187 177.621 38.72C177.85 39.2213 177.965 39.816 177.965 40.504V45H176.733V40.504C176.733 39.7733 176.557 39.2187 176.205 38.84C175.858 38.456 175.384 38.264 174.781 38.264C174.322 38.264 173.925 38.3893 173.589 38.64C173.253 38.8907 172.994 39.2507 172.813 39.72C172.632 40.184 172.541 40.7387 172.541 41.384V45H171.293ZM189.078 45.192C188.416 45.192 187.824 45.024 187.302 44.688C186.784 44.3467 186.374 43.8747 186.07 43.272C185.771 42.6693 185.622 41.976 185.622 41.192C185.622 40.3547 185.771 39.6347 186.07 39.032C186.368 38.4293 186.776 37.968 187.294 37.648C187.816 37.3227 188.411 37.16 189.078 37.16C189.659 37.16 190.155 37.2773 190.566 37.512C190.976 37.7467 191.307 38.064 191.558 38.464C191.808 38.864 191.982 39.3173 192.078 39.824C192.179 40.3253 192.208 40.8453 192.166 41.384H186.63V40.616H191.342L190.974 40.856C190.99 40.5413 190.971 40.2267 190.918 39.912C190.87 39.5973 190.776 39.3093 190.638 39.048C190.499 38.7813 190.304 38.568 190.054 38.408C189.803 38.248 189.483 38.168 189.094 38.168C188.603 38.168 188.192 38.2933 187.862 38.544C187.531 38.7947 187.283 39.1253 187.118 39.536C186.952 39.9413 186.87 40.3813 186.87 40.856V41.368C186.87 41.9013 186.95 42.3787 187.11 42.8C187.275 43.2213 187.52 43.5547 187.846 43.8C188.171 44.0453 188.582 44.168 189.078 44.168C189.574 44.168 189.982 44.048 190.302 43.808C190.622 43.568 190.816 43.2133 190.886 42.744H192.182C192.102 43.2507 191.92 43.688 191.638 44.056C191.355 44.4187 190.995 44.6987 190.558 44.896C190.12 45.0933 189.627 45.192 189.078 45.192ZM203.493 45L203.333 43.32V40.04C203.333 39.352 203.187 38.8587 202.893 38.56C202.6 38.256 202.16 38.104 201.573 38.104C201.243 38.104 200.941 38.152 200.669 38.248C200.403 38.344 200.189 38.4933 200.029 38.696C199.875 38.8933 199.797 39.1493 199.797 39.464H198.405C198.405 38.9093 198.541 38.464 198.813 38.128C199.085 37.7867 199.459 37.5413 199.933 37.392C200.413 37.2373 200.96 37.16 201.573 37.16C202.16 37.16 202.68 37.2587 203.133 37.456C203.587 37.6533 203.941 37.968 204.197 38.4C204.453 38.8267 204.581 39.384 204.581 40.072V45H203.493ZM200.885 45.192C200.256 45.192 199.736 45.08 199.325 44.856C198.915 44.632 198.608 44.3413 198.405 43.984C198.203 43.6267 198.101 43.2507 198.101 42.856C198.101 42.3387 198.229 41.9173 198.485 41.592C198.747 41.2667 199.101 41.0293 199.549 40.88C199.997 40.7253 200.501 40.648 201.061 40.648C201.461 40.648 201.861 40.688 202.261 40.768C202.667 40.848 203.061 40.9573 203.445 41.096V41.88C203.125 41.752 202.763 41.6507 202.357 41.576C201.957 41.5013 201.589 41.464 201.253 41.464C200.741 41.464 200.309 41.5707 199.957 41.784C199.605 41.992 199.429 42.3493 199.429 42.856C199.429 43.2293 199.563 43.5493 199.829 43.816C200.101 44.0827 200.533 44.216 201.125 44.216C201.541 44.216 201.915 44.12 202.245 43.928C202.581 43.7307 202.845 43.4853 203.037 43.192C203.235 42.8987 203.333 42.6053 203.333 42.312H203.637C203.637 42.824 203.525 43.2987 203.301 43.736C203.083 44.1733 202.768 44.5253 202.357 44.792C201.947 45.0587 201.456 45.192 200.885 45.192ZM211.234 45.192C210.722 45.192 210.258 45.0587 209.842 44.792C209.431 44.5253 209.103 44.136 208.858 43.624C208.618 43.1067 208.498 42.4773 208.498 41.736H208.978C208.978 42.232 209.079 42.656 209.282 43.008C209.49 43.3547 209.756 43.6187 210.082 43.8C210.407 43.9813 210.748 44.072 211.106 44.072C211.516 44.072 211.892 43.9547 212.234 43.72C212.575 43.4853 212.847 43.1493 213.05 42.712C213.258 42.2747 213.362 41.752 213.362 41.144C213.362 40.5467 213.26 40.0347 213.058 39.608C212.855 39.176 212.58 38.8453 212.234 38.616C211.892 38.3813 211.511 38.264 211.09 38.264C210.727 38.264 210.383 38.3547 210.058 38.536C209.738 38.712 209.476 38.9733 209.274 39.32C209.076 39.6667 208.978 40.0933 208.978 40.6H208.498C208.498 39.8747 208.615 39.256 208.85 38.744C209.09 38.232 209.42 37.84 209.842 37.568C210.263 37.296 210.754 37.16 211.314 37.16C211.916 37.16 212.468 37.3227 212.97 37.648C213.476 37.968 213.882 38.4267 214.186 39.024C214.49 39.6213 214.642 40.328 214.642 41.144C214.642 41.9653 214.487 42.68 214.178 43.288C213.868 43.8907 213.455 44.36 212.938 44.696C212.42 45.0267 211.852 45.192 211.234 45.192ZM207.73 45V34.088H208.978V43.208L208.61 45H207.73ZM220.142 45.192C219.454 45.192 218.841 45.04 218.302 44.736C217.769 44.432 217.347 43.9813 217.038 43.384C216.729 42.7867 216.574 42.0507 216.574 41.176C216.574 40.296 216.729 39.56 217.038 38.968C217.347 38.3707 217.769 37.92 218.302 37.616C218.841 37.312 219.454 37.16 220.142 37.16C220.825 37.16 221.433 37.312 221.966 37.616C222.505 37.92 222.926 38.3707 223.23 38.968C223.539 39.56 223.694 40.296 223.694 41.176C223.694 42.0507 223.539 42.7867 223.23 43.384C222.926 43.9813 222.505 44.432 221.966 44.736C221.433 45.04 220.825 45.192 220.142 45.192ZM220.11 44.104C220.606 44.104 221.027 43.9867 221.374 43.752C221.721 43.512 221.982 43.1733 222.158 42.736C222.339 42.2987 222.43 41.7787 222.43 41.176C222.43 40.264 222.241 39.5467 221.862 39.024C221.483 38.496 220.921 38.232 220.174 38.232C219.673 38.232 219.249 38.352 218.902 38.592C218.561 38.8267 218.299 39.1653 218.118 39.608C217.942 40.0453 217.854 40.568 217.854 41.176C217.854 42.0773 218.043 42.792 218.422 43.32C218.806 43.8427 219.369 44.104 220.11 44.104ZM231.484 37.336H232.732V45H231.484V37.336ZM226.06 37.336H227.308V42.104C227.308 42.744 227.463 43.2293 227.772 43.56C228.087 43.8907 228.535 44.056 229.116 44.056C229.596 44.056 230.012 43.928 230.364 43.672C230.721 43.416 230.996 43.064 231.188 42.616C231.385 42.1627 231.484 41.6453 231.484 41.064H231.948C231.948 41.9227 231.823 42.656 231.572 43.264C231.327 43.872 230.977 44.3387 230.524 44.664C230.076 44.984 229.548 45.144 228.94 45.144C228.364 45.144 227.86 45.0373 227.428 44.824C226.996 44.6107 226.66 44.288 226.42 43.856C226.18 43.4187 226.06 42.8667 226.06 42.2V37.336ZM238.484 45.192C238.068 45.192 237.694 45.112 237.364 44.952C237.033 44.792 236.772 44.552 236.58 44.232C236.388 43.912 236.292 43.512 236.292 43.032V35.224H237.524V43C237.524 43.7893 237.892 44.184 238.628 44.184C238.846 44.184 239.057 44.16 239.26 44.112C239.468 44.064 239.7 43.992 239.956 43.896L240.132 44.792C239.86 44.9093 239.588 45.0053 239.316 45.08C239.049 45.1547 238.772 45.192 238.484 45.192ZM235.06 38.216V37.352H239.94V38.216H235.06ZM37.968 65.192C37.552 65.192 37.1787 65.112 36.848 64.952C36.5173 64.792 36.256 64.552 36.064 64.232C35.872 63.912 35.776 63.512 35.776 63.032V55.224H37.008V63C37.008 63.7893 37.376 64.184 38.112 64.184C38.3307 64.184 38.5413 64.16 38.744 64.112C38.952 64.064 39.184 63.992 39.44 63.896L39.616 64.792C39.344 64.9093 39.072 65.0053 38.8 65.08C38.5333 65.1547 38.256 65.192 37.968 65.192ZM34.544 58.216V57.352H39.424V58.216H34.544ZM47.2316 65V60.504C47.2316 59.7733 47.0556 59.2187 46.7036 58.84C46.357 58.456 45.8823 58.264 45.2796 58.264C44.821 58.264 44.4236 58.3893 44.0876 58.64C43.7516 58.8907 43.493 59.2507 43.3116 59.72C43.1303 60.184 43.0396 60.7387 43.0396 61.384H42.5596C42.5596 60.4933 42.677 59.7333 42.9116 59.104C43.1463 58.4747 43.4876 57.9947 43.9356 57.664C44.389 57.328 44.9383 57.16 45.5836 57.16C46.1863 57.16 46.701 57.296 47.1276 57.568C47.5596 57.8347 47.8903 58.2187 48.1196 58.72C48.349 59.2213 48.4636 59.816 48.4636 60.504V65H47.2316ZM41.7916 65V54.088H43.0396V65H41.7916ZM54.2639 65.192C53.6025 65.192 53.0105 65.024 52.4879 64.688C51.9705 64.3467 51.5599 63.8747 51.2559 63.272C50.9572 62.6693 50.8079 61.976 50.8079 61.192C50.8079 60.3547 50.9572 59.6347 51.2559 59.032C51.5545 58.4293 51.9625 57.968 52.4799 57.648C53.0025 57.3227 53.5972 57.16 54.2639 57.16C54.8452 57.16 55.3412 57.2773 55.7519 57.512C56.1625 57.7467 56.4932 58.064 56.7439 58.464C56.9945 58.864 57.1679 59.3173 57.2639 59.824C57.3652 60.3253 57.3945 60.8453 57.3519 61.384H51.8159V60.616H56.5279L56.1599 60.856C56.1759 60.5413 56.1572 60.2267 56.1039 59.912C56.0559 59.5973 55.9625 59.3093 55.8239 59.048C55.6852 58.7813 55.4905 58.568 55.2399 58.408C54.9892 58.248 54.6692 58.168 54.2799 58.168C53.7892 58.168 53.3785 58.2933 53.0479 58.544C52.7172 58.7947 52.4692 59.1253 52.3039 59.536C52.1385 59.9413 52.0559 60.3813 52.0559 60.856V61.368C52.0559 61.9013 52.1359 62.3787 52.2959 62.8C52.4612 63.2213 52.7065 63.5547 53.0319 63.8C53.3572 64.0453 53.7679 64.168 54.2639 64.168C54.7599 64.168 55.1679 64.048 55.4879 63.808C55.8079 63.568 56.0025 63.2133 56.0719 62.744H57.3679C57.2879 63.2507 57.1065 63.688 56.8239 64.056C56.5412 64.4187 56.1812 64.6987 55.7439 64.896C55.3065 65.0933 54.8132 65.192 54.2639 65.192ZM66.6315 65.192C66.0182 65.192 65.4448 65.0267 64.9115 64.696C64.3835 64.3653 63.9568 63.8987 63.6315 63.296C63.3062 62.6933 63.1435 61.9813 63.1435 61.16C63.1435 60.3173 63.3062 59.5973 63.6315 59C63.9568 58.4027 64.3835 57.9467 64.9115 57.632C65.4448 57.3173 66.0182 57.16 66.6315 57.16C67.0635 57.16 67.4502 57.2267 67.7915 57.36C68.1382 57.488 68.4395 57.6667 68.6955 57.896C68.9515 58.1253 69.1622 58.3867 69.3275 58.68C69.4982 58.968 69.6235 59.272 69.7035 59.592L68.4235 59.704C68.2902 59.2613 68.0662 58.912 67.7515 58.656C67.4422 58.3947 67.0635 58.264 66.6155 58.264C66.2368 58.264 65.8795 58.3733 65.5435 58.592C65.2128 58.8053 64.9435 59.128 64.7355 59.56C64.5275 59.9867 64.4235 60.52 64.4235 61.16C64.4235 61.752 64.5168 62.2667 64.7035 62.704C64.8955 63.136 65.1568 63.472 65.4875 63.712C65.8182 63.952 66.1942 64.072 66.6155 64.072C67.2075 64.072 67.6555 63.928 67.9595 63.64C68.2688 63.3467 68.4235 62.9413 68.4235 62.424H69.7035C69.7035 62.9573 69.5782 63.432 69.3275 63.848C69.0768 64.264 68.7195 64.592 68.2555 64.832C67.7968 65.072 67.2555 65.192 66.6315 65.192ZM75.1215 65.192C74.4335 65.192 73.8202 65.04 73.2815 64.736C72.7482 64.432 72.3268 63.9813 72.0175 63.384C71.7082 62.7867 71.5535 62.0507 71.5535 61.176C71.5535 60.296 71.7082 59.56 72.0175 58.968C72.3268 58.3707 72.7482 57.92 73.2815 57.616C73.8202 57.312 74.4335 57.16 75.1215 57.16C75.8042 57.16 76.4122 57.312 76.9455 57.616C77.4842 57.92 77.9055 58.3707 78.2095 58.968C78.5188 59.56 78.6735 60.296 78.6735 61.176C78.6735 62.0507 78.5188 62.7867 78.2095 63.384C77.9055 63.9813 77.4842 64.432 76.9455 64.736C76.4122 65.04 75.8042 65.192 75.1215 65.192ZM75.0895 64.104C75.5855 64.104 76.0068 63.9867 76.3535 63.752C76.7002 63.512 76.9615 63.1733 77.1375 62.736C77.3188 62.2987 77.4095 61.7787 77.4095 61.176C77.4095 60.264 77.2202 59.5467 76.8415 59.024C76.4628 58.496 75.9002 58.232 75.1535 58.232C74.6522 58.232 74.2282 58.352 73.8815 58.592C73.5402 58.8267 73.2788 59.1653 73.0975 59.608C72.9215 60.0453 72.8335 60.568 72.8335 61.176C72.8335 62.0773 73.0228 62.792 73.4015 63.32C73.7855 63.8427 74.3482 64.104 75.0895 64.104ZM86.7035 65V60.504C86.7035 59.7733 86.5275 59.2187 86.1755 58.84C85.8288 58.456 85.3542 58.264 84.7515 58.264C84.2928 58.264 83.8955 58.3893 83.5595 58.64C83.2235 58.8907 82.9648 59.2507 82.7835 59.72C82.6022 60.184 82.5115 60.7387 82.5115 61.384H82.0315C82.0315 60.4933 82.1488 59.7333 82.3835 59.104C82.6182 58.4747 82.9595 57.9947 83.4075 57.664C83.8608 57.328 84.4102 57.16 85.0555 57.16C85.6582 57.16 86.1728 57.296 86.5995 57.568C87.0315 57.8347 87.3622 58.2187 87.5915 58.72C87.8208 59.2213 87.9355 59.816 87.9355 60.504V65H86.7035ZM81.2635 65V57.352H82.3355L82.5115 59.112V65H81.2635ZM93.4317 65.192C93.0157 65.192 92.6424 65.112 92.3117 64.952C91.9811 64.792 91.7197 64.552 91.5277 64.232C91.3357 63.912 91.2397 63.512 91.2397 63.032V55.224H92.4717V63C92.4717 63.7893 92.8397 64.184 93.5757 64.184C93.7944 64.184 94.0051 64.16 94.2077 64.112C94.4157 64.064 94.6477 63.992 94.9037 63.896L95.0797 64.792C94.8077 64.9093 94.5357 65.0053 94.2637 65.08C93.9971 65.1547 93.7197 65.192 93.4317 65.192ZM90.0077 58.216V57.352H94.8877V58.216H90.0077ZM99.9114 65.192C99.25 65.192 98.658 65.024 98.1354 64.688C97.618 64.3467 97.2074 63.8747 96.9034 63.272C96.6047 62.6693 96.4554 61.976 96.4554 61.192C96.4554 60.3547 96.6047 59.6347 96.9034 59.032C97.202 58.4293 97.61 57.968 98.1274 57.648C98.65 57.3227 99.2447 57.16 99.9114 57.16C100.493 57.16 100.989 57.2773 101.399 57.512C101.81 57.7467 102.141 58.064 102.391 58.464C102.642 58.864 102.815 59.3173 102.911 59.824C103.013 60.3253 103.042 60.8453 102.999 61.384H97.4634V60.616H102.175L101.807 60.856C101.823 60.5413 101.805 60.2267 101.751 59.912C101.703 59.5973 101.61 59.3093 101.471 59.048C101.333 58.7813 101.138 58.568 100.887 58.408C100.637 58.248 100.317 58.168 99.9274 58.168C99.4367 58.168 99.026 58.2933 98.6954 58.544C98.3647 58.7947 98.1167 59.1253 97.9514 59.536C97.786 59.9413 97.7034 60.3813 97.7034 60.856V61.368C97.7034 61.9013 97.7834 62.3787 97.9434 62.8C98.1087 63.2213 98.354 63.5547 98.6794 63.8C99.0047 64.0453 99.4154 64.168 99.9114 64.168C100.407 64.168 100.815 64.048 101.135 63.808C101.455 63.568 101.65 63.2133 101.719 62.744H103.015C102.935 63.2507 102.754 63.688 102.471 64.056C102.189 64.4187 101.829 64.6987 101.391 64.896C100.954 65.0933 100.461 65.192 99.9114 65.192ZM111.074 65V60.504C111.074 59.7733 110.898 59.2187 110.546 58.84C110.199 58.456 109.725 58.264 109.122 58.264C108.663 58.264 108.266 58.3893 107.93 58.64C107.594 58.8907 107.335 59.2507 107.154 59.72C106.973 60.184 106.882 60.7387 106.882 61.384H106.402C106.402 60.4933 106.519 59.7333 106.754 59.104C106.989 58.4747 107.33 57.9947 107.778 57.664C108.231 57.328 108.781 57.16 109.426 57.16C110.029 57.16 110.543 57.296 110.97 57.568C111.402 57.8347 111.733 58.2187 111.962 58.72C112.191 59.2213 112.306 59.816 112.306 60.504V65H111.074ZM105.634 65V57.352H106.706L106.882 59.112V65H105.634ZM117.802 65.192C117.386 65.192 117.013 65.112 116.682 64.952C116.352 64.792 116.09 64.552 115.898 64.232C115.706 63.912 115.61 63.512 115.61 63.032V55.224H116.842V63C116.842 63.7893 117.21 64.184 117.946 64.184C118.165 64.184 118.376 64.16 118.578 64.112C118.786 64.064 119.018 63.992 119.274 63.896L119.45 64.792C119.178 64.9093 118.906 65.0053 118.634 65.08C118.368 65.1547 118.09 65.192 117.802 65.192ZM114.378 58.216V57.352H119.258V58.216H114.378ZM128.351 65.192C127.663 65.192 127.05 65.04 126.511 64.736C125.978 64.432 125.556 63.9813 125.247 63.384C124.938 62.7867 124.783 62.0507 124.783 61.176C124.783 60.296 124.938 59.56 125.247 58.968C125.556 58.3707 125.978 57.92 126.511 57.616C127.05 57.312 127.663 57.16 128.351 57.16C129.034 57.16 129.642 57.312 130.175 57.616C130.714 57.92 131.135 58.3707 131.439 58.968C131.748 59.56 131.903 60.296 131.903 61.176C131.903 62.0507 131.748 62.7867 131.439 63.384C131.135 63.9813 130.714 64.432 130.175 64.736C129.642 65.04 129.034 65.192 128.351 65.192ZM128.319 64.104C128.815 64.104 129.236 63.9867 129.583 63.752C129.93 63.512 130.191 63.1733 130.367 62.736C130.548 62.2987 130.639 61.7787 130.639 61.176C130.639 60.264 130.45 59.5467 130.071 59.024C129.692 58.496 129.13 58.232 128.383 58.232C127.882 58.232 127.458 58.352 127.111 58.592C126.77 58.8267 126.508 59.1653 126.327 59.608C126.151 60.0453 126.063 60.568 126.063 61.176C126.063 62.0773 126.252 62.792 126.631 63.32C127.015 63.8427 127.578 64.104 128.319 64.104ZM134.493 65V57.336H135.741V65H134.493ZM135.357 61.544C135.357 60.5733 135.45 59.768 135.637 59.128C135.824 58.4827 136.096 58.0027 136.453 57.688C136.816 57.368 137.256 57.208 137.773 57.208C137.944 57.208 138.098 57.2213 138.237 57.248C138.381 57.2693 138.525 57.304 138.669 57.352L138.589 58.584C138.44 58.536 138.277 58.496 138.101 58.464C137.925 58.4267 137.768 58.408 137.629 58.408C137.176 58.408 136.81 58.5387 136.533 58.8C136.256 59.056 136.053 59.4187 135.925 59.888C135.802 60.3573 135.741 60.9093 135.741 61.544H135.357ZM144.391 65V54.952H145.639V65H144.391ZM155.68 65.192C155.067 65.192 154.494 65.0267 153.96 64.696C153.432 64.3653 153.006 63.8987 152.68 63.296C152.355 62.6933 152.192 61.9813 152.192 61.16C152.192 60.3173 152.355 59.5973 152.68 59C153.006 58.4027 153.432 57.9467 153.96 57.632C154.494 57.3173 155.067 57.16 155.68 57.16C156.112 57.16 156.499 57.2267 156.84 57.36C157.187 57.488 157.488 57.6667 157.744 57.896C158 58.1253 158.211 58.3867 158.376 58.68C158.547 58.968 158.672 59.272 158.752 59.592L157.472 59.704C157.339 59.2613 157.115 58.912 156.8 58.656C156.491 58.3947 156.112 58.264 155.664 58.264C155.286 58.264 154.928 58.3733 154.592 58.592C154.262 58.8053 153.992 59.128 153.784 59.56C153.576 59.9867 153.472 60.52 153.472 61.16C153.472 61.752 153.566 62.2667 153.752 62.704C153.944 63.136 154.206 63.472 154.536 63.712C154.867 63.952 155.243 64.072 155.664 64.072C156.256 64.072 156.704 63.928 157.008 63.64C157.318 63.3467 157.472 62.9413 157.472 62.424H158.752C158.752 62.9573 158.627 63.432 158.376 63.848C158.126 64.264 157.768 64.592 157.304 64.832C156.846 65.072 156.304 65.192 155.68 65.192ZM166.138 65L165.978 63.32V60.04C165.978 59.352 165.832 58.8587 165.538 58.56C165.245 58.256 164.805 58.104 164.218 58.104C163.888 58.104 163.586 58.152 163.314 58.248C163.048 58.344 162.834 58.4933 162.674 58.696C162.52 58.8933 162.442 59.1493 162.442 59.464H161.05C161.05 58.9093 161.186 58.464 161.458 58.128C161.73 57.7867 162.104 57.5413 162.578 57.392C163.058 57.2373 163.605 57.16 164.218 57.16C164.805 57.16 165.325 57.2587 165.778 57.456C166.232 57.6533 166.586 57.968 166.842 58.4C167.098 58.8267 167.226 59.384 167.226 60.072V65H166.138ZM163.53 65.192C162.901 65.192 162.381 65.08 161.97 64.856C161.56 64.632 161.253 64.3413 161.05 63.984C160.848 63.6267 160.746 63.2507 160.746 62.856C160.746 62.3387 160.874 61.9173 161.13 61.592C161.392 61.2667 161.746 61.0293 162.194 60.88C162.642 60.7253 163.146 60.648 163.706 60.648C164.106 60.648 164.506 60.688 164.906 60.768C165.312 60.848 165.706 60.9573 166.09 61.096V61.88C165.77 61.752 165.408 61.6507 165.002 61.576C164.602 61.5013 164.234 61.464 163.898 61.464C163.386 61.464 162.954 61.5707 162.602 61.784C162.25 61.992 162.074 62.3493 162.074 62.856C162.074 63.2293 162.208 63.5493 162.474 63.816C162.746 64.0827 163.178 64.216 163.77 64.216C164.186 64.216 164.56 64.12 164.89 63.928C165.226 63.7307 165.49 63.4853 165.682 63.192C165.88 62.8987 165.978 62.6053 165.978 62.312H166.282C166.282 62.824 166.17 63.2987 165.946 63.736C165.728 64.1733 165.413 64.5253 165.002 64.792C164.592 65.0587 164.101 65.192 163.53 65.192ZM175.815 65V60.504C175.815 59.7733 175.639 59.2187 175.287 58.84C174.94 58.456 174.465 58.264 173.863 58.264C173.404 58.264 173.007 58.3893 172.671 58.64C172.335 58.8907 172.076 59.2507 171.895 59.72C171.713 60.184 171.623 60.7387 171.623 61.384H171.143C171.143 60.4933 171.26 59.7333 171.495 59.104C171.729 58.4747 172.071 57.9947 172.519 57.664C172.972 57.328 173.521 57.16 174.167 57.16C174.769 57.16 175.284 57.296 175.711 57.568C176.143 57.8347 176.473 58.2187 176.703 58.72C176.932 59.2213 177.047 59.816 177.047 60.504V65H175.815ZM170.375 65V57.352H171.447L171.623 59.112V65H170.375ZM186.9 65.192C186.159 65.192 185.54 65.088 185.044 64.88C184.548 64.6667 184.172 64.376 183.916 64.008C183.66 63.6347 183.524 63.208 183.508 62.728H184.708C184.735 63.2133 184.929 63.5787 185.292 63.824C185.66 64.064 186.159 64.184 186.788 64.184C187.119 64.184 187.423 64.1307 187.7 64.024C187.977 63.9173 188.199 63.7707 188.364 63.584C188.529 63.3973 188.612 63.1867 188.612 62.952C188.612 62.6533 188.503 62.4187 188.284 62.248C188.065 62.0773 187.716 61.928 187.236 61.8L185.748 61.32C185.103 61.1173 184.607 60.84 184.26 60.488C183.919 60.1307 183.748 59.704 183.748 59.208C183.748 58.5893 184.02 58.0933 184.564 57.72C185.108 57.3467 185.823 57.16 186.708 57.16C187.647 57.16 188.375 57.352 188.892 57.736C189.409 58.12 189.679 58.6 189.7 59.176H188.468C188.42 58.84 188.249 58.5867 187.956 58.416C187.663 58.24 187.247 58.152 186.708 58.152C186.191 58.152 185.785 58.2693 185.492 58.504C185.204 58.7333 185.06 58.9893 185.06 59.272C185.06 59.8 185.513 60.1893 186.42 60.44L187.94 60.952C188.596 61.1493 189.097 61.408 189.444 61.728C189.796 62.048 189.972 62.456 189.972 62.952C189.972 63.336 189.847 63.6987 189.596 64.04C189.345 64.3813 188.991 64.6587 188.532 64.872C188.073 65.0853 187.529 65.192 186.9 65.192ZM195.066 65.192C194.65 65.192 194.277 65.112 193.946 64.952C193.615 64.792 193.354 64.552 193.162 64.232C192.97 63.912 192.874 63.512 192.874 63.032V55.224H194.106V63C194.106 63.7893 194.474 64.184 195.21 64.184C195.429 64.184 195.639 64.16 195.842 64.112C196.05 64.064 196.282 63.992 196.538 63.896L196.714 64.792C196.442 64.9093 196.17 65.0053 195.898 65.08C195.631 65.1547 195.354 65.192 195.066 65.192ZM191.642 58.216V57.352H196.522V58.216H191.642ZM203.626 65L203.466 63.32V60.04C203.466 59.352 203.319 58.8587 203.026 58.56C202.732 58.256 202.292 58.104 201.706 58.104C201.375 58.104 201.074 58.152 200.802 58.248C200.535 58.344 200.322 58.4933 200.162 58.696C200.007 58.8933 199.93 59.1493 199.93 59.464H198.538C198.538 58.9093 198.674 58.464 198.946 58.128C199.218 57.7867 199.591 57.5413 200.066 57.392C200.546 57.2373 201.092 57.16 201.706 57.16C202.292 57.16 202.812 57.2587 203.266 57.456C203.719 57.6533 204.074 57.968 204.33 58.4C204.586 58.8267 204.714 59.384 204.714 60.072V65H203.626ZM201.018 65.192C200.388 65.192 199.868 65.08 199.458 64.856C199.047 64.632 198.74 64.3413 198.538 63.984C198.335 63.6267 198.234 63.2507 198.234 62.856C198.234 62.3387 198.362 61.9173 198.618 61.592C198.879 61.2667 199.234 61.0293 199.682 60.88C200.13 60.7253 200.634 60.648 201.194 60.648C201.594 60.648 201.994 60.688 202.394 60.768C202.799 60.848 203.194 60.9573 203.578 61.096V61.88C203.258 61.752 202.895 61.6507 202.49 61.576C202.09 61.5013 201.722 61.464 201.386 61.464C200.874 61.464 200.442 61.5707 200.09 61.784C199.738 61.992 199.562 62.3493 199.562 62.856C199.562 63.2293 199.695 63.5493 199.962 63.816C200.234 64.0827 200.666 64.216 201.258 64.216C201.674 64.216 202.047 64.12 202.378 63.928C202.714 63.7307 202.978 63.4853 203.17 63.192C203.367 62.8987 203.466 62.6053 203.466 62.312H203.77C203.77 62.824 203.658 63.2987 203.434 63.736C203.215 64.1733 202.9 64.5253 202.49 64.792C202.079 65.0587 201.588 65.192 201.018 65.192ZM207.862 65V57.336H209.11V65H207.862ZM208.726 61.544C208.726 60.5733 208.82 59.768 209.006 59.128C209.193 58.4827 209.465 58.0027 209.822 57.688C210.185 57.368 210.625 57.208 211.142 57.208C211.313 57.208 211.468 57.2213 211.606 57.248C211.75 57.2693 211.894 57.304 212.038 57.352L211.958 58.584C211.809 58.536 211.646 58.496 211.47 58.464C211.294 58.4267 211.137 58.408 210.998 58.408C210.545 58.408 210.18 58.5387 209.902 58.8C209.625 59.056 209.422 59.4187 209.294 59.888C209.172 60.3573 209.11 60.9093 209.11 61.544H208.726ZM216.156 65.192C215.74 65.192 215.366 65.112 215.036 64.952C214.705 64.792 214.444 64.552 214.252 64.232C214.06 63.912 213.964 63.512 213.964 63.032V55.224H215.196V63C215.196 63.7893 215.564 64.184 216.299 64.184C216.518 64.184 216.729 64.16 216.932 64.112C217.14 64.064 217.372 63.992 217.628 63.896L217.804 64.792C217.532 64.9093 217.26 65.0053 216.988 65.08C216.721 65.1547 216.444 65.192 216.156 65.192ZM212.732 58.216V57.352H217.612V58.216H212.732ZM35.616 85V77.336H36.864V85H35.616ZM36.48 81.544C36.48 80.5733 36.5733 79.768 36.76 79.128C36.9467 78.4827 37.2187 78.0027 37.576 77.688C37.9387 77.368 38.3787 77.208 38.896 77.208C39.0667 77.208 39.2213 77.2213 39.36 77.248C39.504 77.2693 39.648 77.304 39.792 77.352L39.712 78.584C39.5627 78.536 39.4 78.496 39.224 78.464C39.048 78.4267 38.8907 78.408 38.752 78.408C38.2987 78.408 37.9333 78.5387 37.656 78.8C37.3787 79.056 37.176 79.4187 37.048 79.888C36.9253 80.3573 36.864 80.9093 36.864 81.544H36.48ZM44.2133 85.192C43.5519 85.192 42.9599 85.024 42.4372 84.688C41.9199 84.3467 41.5092 83.8747 41.2052 83.272C40.9066 82.6693 40.7572 81.976 40.7572 81.192C40.7572 80.3547 40.9066 79.6347 41.2052 79.032C41.5039 78.4293 41.9119 77.968 42.4293 77.648C42.9519 77.3227 43.5466 77.16 44.2133 77.16C44.7946 77.16 45.2906 77.2773 45.7013 77.512C46.1119 77.7467 46.4426 78.064 46.6933 78.464C46.9439 78.864 47.1173 79.3173 47.2133 79.824C47.3146 80.3253 47.3439 80.8453 47.3012 81.384H41.7652V80.616H46.4773L46.1093 80.856C46.1253 80.5413 46.1066 80.2267 46.0533 79.912C46.0053 79.5973 45.9119 79.3093 45.7733 79.048C45.6346 78.7813 45.4399 78.568 45.1892 78.408C44.9386 78.248 44.6186 78.168 44.2292 78.168C43.7386 78.168 43.3279 78.2933 42.9973 78.544C42.6666 78.7947 42.4186 79.1253 42.2532 79.536C42.0879 79.9413 42.0052 80.3813 42.0052 80.856V81.368C42.0052 81.9013 42.0852 82.3787 42.2452 82.8C42.4106 83.2213 42.6559 83.5547 42.9813 83.8C43.3066 84.0453 43.7173 84.168 44.2133 84.168C44.7093 84.168 45.1173 84.048 45.4373 83.808C45.7573 83.568 45.9519 83.2133 46.0213 82.744H47.3173C47.2373 83.2507 47.0559 83.688 46.7733 84.056C46.4906 84.4187 46.1306 84.6987 45.6933 84.896C45.2559 85.0933 44.7626 85.192 44.2133 85.192ZM54.672 85L54.512 83.32V80.04C54.512 79.352 54.3653 78.8587 54.072 78.56C53.7787 78.256 53.3387 78.104 52.752 78.104C52.4213 78.104 52.12 78.152 51.848 78.248C51.5813 78.344 51.368 78.4933 51.208 78.696C51.0533 78.8933 50.976 79.1493 50.976 79.464H49.584C49.584 78.9093 49.72 78.464 49.992 78.128C50.264 77.7867 50.6373 77.5413 51.112 77.392C51.592 77.2373 52.1387 77.16 52.752 77.16C53.3387 77.16 53.8587 77.2587 54.312 77.456C54.7653 77.6533 55.12 77.968 55.376 78.4C55.632 78.8267 55.76 79.384 55.76 80.072V85H54.672ZM52.064 85.192C51.4347 85.192 50.9147 85.08 50.504 84.856C50.0933 84.632 49.7867 84.3413 49.584 83.984C49.3813 83.6267 49.28 83.2507 49.28 82.856C49.28 82.3387 49.408 81.9173 49.664 81.592C49.9253 81.2667 50.28 81.0293 50.728 80.88C51.176 80.7253 51.68 80.648 52.24 80.648C52.64 80.648 53.04 80.688 53.44 80.768C53.8453 80.848 54.24 80.9573 54.624 81.096V81.88C54.304 81.752 53.9413 81.6507 53.536 81.576C53.136 81.5013 52.768 81.464 52.432 81.464C51.92 81.464 51.488 81.5707 51.136 81.784C50.784 81.992 50.608 82.3493 50.608 82.856C50.608 83.2293 50.7413 83.5493 51.008 83.816C51.28 84.0827 51.712 84.216 52.304 84.216C52.72 84.216 53.0933 84.12 53.424 83.928C53.76 83.7307 54.024 83.4853 54.216 83.192C54.4133 82.8987 54.512 82.6053 54.512 82.312H54.816C54.816 82.824 54.704 83.2987 54.48 83.736C54.2613 84.1733 53.9467 84.5253 53.536 84.792C53.1253 85.0587 52.6347 85.192 52.064 85.192ZM61.6445 85.192C61.0258 85.192 60.4578 85.0267 59.9405 84.696C59.4232 84.36 59.0098 83.8907 58.7005 83.288C58.3912 82.68 58.2365 81.9653 58.2365 81.144C58.2365 80.328 58.3885 79.6213 58.6925 79.024C58.9965 78.4267 59.3992 77.968 59.9005 77.648C60.4072 77.3227 60.9618 77.16 61.5645 77.16C62.1245 77.16 62.6152 77.296 63.0365 77.568C63.4632 77.84 63.7938 78.232 64.0285 78.744C64.2632 79.256 64.3805 79.8747 64.3805 80.6H63.9005C63.9005 80.0933 63.7992 79.6667 63.5965 79.32C63.3992 78.9733 63.1405 78.712 62.8205 78.536C62.5005 78.3547 62.1565 78.264 61.7885 78.264C61.3725 78.264 60.9912 78.3813 60.6445 78.616C60.3032 78.8453 60.0285 79.176 59.8205 79.608C59.6178 80.0347 59.5165 80.5467 59.5165 81.144C59.5165 81.752 59.6178 82.2747 59.8205 82.712C60.0285 83.1493 60.3032 83.4853 60.6445 83.72C60.9912 83.9547 61.3725 84.072 61.7885 84.072C62.1352 84.072 62.4685 83.9813 62.7885 83.8C63.1138 83.6187 63.3805 83.3547 63.5885 83.008C63.7965 82.656 63.9005 82.232 63.9005 81.736H64.3805C64.3805 82.4773 64.2578 83.1067 64.0125 83.624C63.7725 84.136 63.4445 84.5253 63.0285 84.792C62.6178 85.0587 62.1565 85.192 61.6445 85.192ZM64.1085 85L63.9005 83.208V74.088H65.1485V85H64.1085ZM69.2569 75.544C69.0009 75.544 68.7982 75.472 68.6489 75.328C68.4995 75.1787 68.4249 74.984 68.4249 74.744C68.4249 74.5093 68.4995 74.3227 68.6489 74.184C68.7982 74.0453 69.0009 73.976 69.2569 73.976C69.5129 73.976 69.7155 74.0453 69.8649 74.184C70.0142 74.3227 70.0889 74.5093 70.0889 74.744C70.0889 74.984 70.0142 75.1787 69.8649 75.328C69.7155 75.472 69.5129 75.544 69.2569 75.544ZM68.6329 85V77.336H69.8809V85H68.6329ZM78.9185 85V80.504C78.9185 79.7733 78.7425 79.2187 78.3905 78.84C78.0438 78.456 77.5692 78.264 76.9665 78.264C76.5078 78.264 76.1105 78.3893 75.7745 78.64C75.4385 78.8907 75.1798 79.2507 74.9985 79.72C74.8172 80.184 74.7265 80.7387 74.7265 81.384H74.2465C74.2465 80.4933 74.3638 79.7333 74.5985 79.104C74.8332 78.4747 75.1745 77.9947 75.6225 77.664C76.0758 77.328 76.6252 77.16 77.2705 77.16C77.8732 77.16 78.3878 77.296 78.8145 77.568C79.2465 77.8347 79.5772 78.2187 79.8065 78.72C80.0358 79.2213 80.1505 79.816 80.1505 80.504V85H78.9185ZM73.4785 85V77.352H74.5505L74.7265 79.112V85H73.4785ZM85.9987 88.936C85.2147 88.936 84.5347 88.824 83.9587 88.6C83.3827 88.3813 82.9347 88.0853 82.6147 87.712C82.3001 87.344 82.1427 86.936 82.1427 86.488C82.1427 85.896 82.3587 85.4427 82.7907 85.128C83.2281 84.8187 83.7907 84.664 84.4787 84.664L85.1667 85.096C84.5907 85.096 84.1454 85.216 83.8307 85.456C83.5161 85.696 83.3587 86.024 83.3587 86.44C83.3587 86.856 83.5827 87.208 84.0307 87.496C84.4787 87.784 85.1347 87.928 85.9987 87.928C86.6387 87.928 87.1987 87.8347 87.6787 87.648C88.1641 87.4667 88.5401 87.2267 88.8067 86.928C89.0787 86.6347 89.2147 86.3173 89.2147 85.976C89.2147 85.736 89.1267 85.528 88.9507 85.352C88.7747 85.1813 88.5054 85.096 88.1427 85.096H85.1667C84.6494 85.096 84.2014 85.0187 83.8227 84.864C83.4494 84.704 83.1614 84.496 82.9587 84.24C82.7561 83.984 82.6547 83.704 82.6547 83.4C82.6547 83.08 82.7454 82.808 82.9267 82.584C83.1081 82.36 83.3427 82.1893 83.6307 82.072C83.9241 81.9547 84.2387 81.896 84.5747 81.896L84.8147 82.36C84.6547 82.36 84.4921 82.3973 84.3267 82.472C84.1667 82.5413 84.0307 82.648 83.9187 82.792C83.8121 82.9307 83.7587 83.1067 83.7587 83.32C83.7587 83.5653 83.8601 83.7707 84.0627 83.936C84.2654 84.1013 84.6334 84.184 85.1667 84.184H88.1427C88.8627 84.184 89.4281 84.336 89.8387 84.64C90.2547 84.944 90.4627 85.368 90.4627 85.912C90.4627 86.4133 90.2841 86.8933 89.9267 87.352C89.5694 87.816 89.0574 88.1947 88.3907 88.488C87.7241 88.7867 86.9267 88.936 85.9987 88.936ZM86.2227 82.76C85.6361 82.76 85.1054 82.6427 84.6307 82.408C84.1614 82.1733 83.7881 81.8453 83.5107 81.424C83.2387 81.0027 83.1027 80.5147 83.1027 79.96C83.1027 79.4 83.2387 78.9093 83.5107 78.488C83.7881 78.0667 84.1614 77.7413 84.6307 77.512C85.1054 77.2773 85.6361 77.16 86.2227 77.16C86.7934 77.16 87.3107 77.2773 87.7747 77.512C88.2441 77.7413 88.6174 78.0667 88.8947 78.488C89.1721 78.9093 89.3107 79.4 89.3107 79.96C89.3107 80.5147 89.1721 81.0027 88.8947 81.424C88.6174 81.8453 88.2441 82.1733 87.7747 82.408C87.3107 82.6427 86.7934 82.76 86.2227 82.76ZM86.2227 81.864C86.8094 81.864 87.2654 81.6827 87.5907 81.32C87.9161 80.9573 88.0787 80.504 88.0787 79.96C88.0787 79.4 87.9161 78.9467 87.5907 78.6C87.2654 78.248 86.8094 78.072 86.2227 78.072C85.6414 78.072 85.1827 78.248 84.8467 78.6C84.5161 78.9467 84.3507 79.4 84.3507 79.96C84.3507 80.504 84.5161 80.9573 84.8467 81.32C85.1827 81.6827 85.6414 81.864 86.2227 81.864ZM88.7347 78.376L88.1427 78.136C88.1427 77.688 88.2307 77.296 88.4067 76.96C88.5827 76.6187 88.8334 76.3547 89.1587 76.168C89.4841 75.976 89.8707 75.88 90.3187 75.88L90.2227 77.112C89.7427 77.112 89.3747 77.216 89.1187 77.424C88.8627 77.6267 88.7347 77.944 88.7347 78.376ZM91.35 84.256C91.35 84.0053 91.438 83.7893 91.614 83.608C91.79 83.4267 92.0113 83.336 92.278 83.336C92.5447 83.336 92.7713 83.4267 92.958 83.608C93.1447 83.7893 93.238 84.0053 93.238 84.256C93.238 84.5067 93.1447 84.7173 92.958 84.888C92.7713 85.0587 92.5447 85.144 92.278 85.144C92.0113 85.144 91.79 85.0587 91.614 84.888C91.438 84.712 91.35 84.5013 91.35 84.256Z" fill="#333333"/>
</g>
<defs>
<filter id="filter0_d_7044_5940" x="6.10352e-05" y="0" width="261.767" height="108" filterUnits="userSpaceOnUse" color-interpolation-filters="sRGB">
<feFlood flood-opacity="0" result="BackgroundImageFix"/>
<feColorMatrix in="SourceAlpha" type="matrix" values="0 0 0 0 0 0 0 0 0 0 0 0 0 0 0 0 0 0 127 0" result="hardAlpha"/>
<feOffset dy="4"/>
<feGaussianBlur stdDeviation="3"/>
<feComposite in2="hardAlpha" operator="out"/>
<feColorMatrix type="matrix" values="0 0 0 0 0 0 0 0 0 0 0 0 0 0 0 0 0 0 0.1 0"/>
<feBlend mode="normal" in2="BackgroundImageFix" result="effect1_dropShadow_7044_5940"/>
<feBlend mode="normal" in="SourceGraphic" in2="effect1_dropShadow_7044_5940" result="shape"/>
</filter>
</defs>
</svg>
