<svg width="266" height="108" viewBox="0 0 266 108" fill="none" xmlns="http://www.w3.org/2000/svg">
<g filter="url(#filter0_d_7070_5664)">
<mask id="path-1-inside-1_7070_5664" fill="white">
<path d="M7.04332 52.6331L16.7673 61L16.7673 89C16.7673 93.9706 20.7968 98 25.7673 98L250.767 98C255.738 98 259.767 93.9706 259.767 89L259.767 11C259.767 6.02948 255.738 2.00004 250.767 2.00004L25.7674 2C20.7968 2 16.7674 6.02944 16.7674 11L16.7674 40.5L7.15554 47.9931C5.66179 49.1575 5.6076 51.3978 7.04332 52.6331Z"/>
</mask>
<path d="M7.04332 52.6331L16.7673 61L16.7673 89C16.7673 93.9706 20.7968 98 25.7673 98L250.767 98C255.738 98 259.767 93.9706 259.767 89L259.767 11C259.767 6.02948 255.738 2.00004 250.767 2.00004L25.7674 2C20.7968 2 16.7674 6.02944 16.7674 11L16.7674 40.5L7.15554 47.9931C5.66179 49.1575 5.6076 51.3978 7.04332 52.6331Z" fill="#F1F3FF"/>
<path d="M16.7673 61L18.1673 61L18.1673 60.3577L17.6805 59.9388L16.7673 61ZM7.04332 52.6331L6.1302 53.6944L6.1302 53.6944L7.04332 52.6331ZM7.15554 47.9931L6.29479 46.8889L6.29479 46.8889L7.15554 47.9931ZM16.7674 40.5L17.6281 41.6041L18.1674 41.1838L18.1674 40.5L16.7674 40.5ZM16.7674 11L15.3674 11L15.3674 11L16.7674 11ZM16.7673 89L18.1673 89L18.1673 89L16.7673 89ZM17.6805 59.9388L7.95644 51.5719L6.1302 53.6944L15.8542 62.0612L17.6805 59.9388ZM8.01629 49.0972L17.6281 41.6041L15.9066 39.3959L6.29479 46.8889L8.01629 49.0972ZM7.95644 51.5719C7.19072 50.9131 7.21962 49.7183 8.01629 49.0972L6.29479 46.8889C4.10395 48.5968 4.02448 51.8825 6.1302 53.6944L7.95644 51.5719ZM25.7674 3.4L250.767 3.40004L250.767 0.600043L25.7674 0.600003L25.7674 3.4ZM258.367 11L258.367 89L261.167 89L261.167 11L258.367 11ZM250.767 96.6L25.7673 96.6L25.7673 99.4L250.767 99.4L250.767 96.6ZM18.1674 40.5L18.1674 11L15.3674 11L15.3674 40.5L18.1674 40.5ZM18.1673 89L18.1673 61L15.3673 61L15.3673 89L18.1673 89ZM25.7673 96.6C21.57 96.6 18.1673 93.1974 18.1673 89L15.3673 89C15.3673 94.7438 20.0236 99.4 25.7673 99.4L25.7673 96.6ZM258.367 89C258.367 93.1974 254.965 96.6 250.767 96.6L250.767 99.4C256.511 99.4 261.167 94.7438 261.167 89L258.367 89ZM250.767 3.40004C254.965 3.40004 258.367 6.80268 258.367 11L261.167 11C261.167 5.25628 256.511 0.600044 250.767 0.600043L250.767 3.40004ZM25.7674 0.600003C20.0236 0.600002 15.3674 5.25624 15.3674 11L18.1674 11C18.1674 6.80264 21.57 3.4 25.7674 3.4L25.7674 0.600003Z" fill="#4A5DC8" mask="url(#path-1-inside-1_7070_5664)"/>
<path d="M28.096 16.024V14.952H35.92V16.024H32.344L32.624 15.736V25H31.376V15.736L31.656 16.024H28.096ZM43.2316 25V20.504C43.2316 19.7733 43.0556 19.2187 42.7036 18.84C42.357 18.456 41.8823 18.264 41.2796 18.264C40.821 18.264 40.4236 18.3893 40.0876 18.64C39.7516 18.8907 39.493 19.2507 39.3116 19.72C39.1303 20.184 39.0396 20.7387 39.0396 21.384H38.5596C38.5596 20.4933 38.677 19.7333 38.9116 19.104C39.1463 18.4747 39.4876 17.9947 39.9356 17.664C40.389 17.328 40.9383 17.16 41.5836 17.16C42.1863 17.16 42.701 17.296 43.1276 17.568C43.5596 17.8347 43.8903 18.2187 44.1196 18.72C44.349 19.2213 44.4636 19.816 44.4636 20.504V25H43.2316ZM37.7916 25V14.088H39.0396V25H37.7916ZM50.2639 25.192C49.6025 25.192 49.0105 25.024 48.4879 24.688C47.9705 24.3467 47.5599 23.8747 47.2559 23.272C46.9572 22.6693 46.8079 21.976 46.8079 21.192C46.8079 20.3547 46.9572 19.6347 47.2559 19.032C47.5545 18.4293 47.9625 17.968 48.4799 17.648C49.0025 17.3227 49.5972 17.16 50.2639 17.16C50.8452 17.16 51.3412 17.2773 51.7519 17.512C52.1625 17.7467 52.4932 18.064 52.7439 18.464C52.9945 18.864 53.1679 19.3173 53.2639 19.824C53.3652 20.3253 53.3945 20.8453 53.3519 21.384H47.8159V20.616H52.5279L52.1599 20.856C52.1759 20.5413 52.1572 20.2267 52.1039 19.912C52.0559 19.5973 51.9625 19.3093 51.8239 19.048C51.6852 18.7813 51.4905 18.568 51.2399 18.408C50.9892 18.248 50.6692 18.168 50.2799 18.168C49.7892 18.168 49.3785 18.2933 49.0479 18.544C48.7172 18.7947 48.4692 19.1253 48.3039 19.536C48.1385 19.9413 48.0559 20.3813 48.0559 20.856V21.368C48.0559 21.9013 48.1359 22.3787 48.2959 22.8C48.4612 23.2213 48.7065 23.5547 49.0319 23.8C49.3572 24.0453 49.7679 24.168 50.2639 24.168C50.7599 24.168 51.1679 24.048 51.4879 23.808C51.8079 23.568 52.0025 23.2133 52.0719 22.744H53.3679C53.2879 23.2507 53.1065 23.688 52.8239 24.056C52.5412 24.4187 52.1812 24.6987 51.7439 24.896C51.3065 25.0933 50.8132 25.192 50.2639 25.192ZM63.4155 25.192C62.8555 25.192 62.3675 25.064 61.9515 24.808C61.5408 24.552 61.2235 24.1787 60.9995 23.688C60.7755 23.192 60.6635 22.5893 60.6635 21.88H61.1915C61.1915 22.3547 61.2902 22.7547 61.4875 23.08C61.6848 23.4053 61.9408 23.6533 62.2555 23.824C62.5755 23.9893 62.9142 24.072 63.2715 24.072C63.6555 24.072 64.0235 23.9627 64.3755 23.744C64.7275 23.52 65.0155 23.192 65.2395 22.76C65.4635 22.328 65.5755 21.7947 65.5755 21.16C65.5755 20.552 65.4715 20.032 65.2635 19.6C65.0608 19.168 64.7862 18.8373 64.4395 18.608C64.0928 18.3787 63.7088 18.264 63.2875 18.264C62.9248 18.264 62.5835 18.352 62.2635 18.528C61.9435 18.704 61.6848 18.9627 61.4875 19.304C61.2902 19.64 61.1915 20.056 61.1915 20.552H60.6635C60.6635 19.8107 60.7862 19.1893 61.0315 18.688C61.2768 18.1813 61.6102 17.8 62.0315 17.544C62.4528 17.288 62.9248 17.16 63.4475 17.16C64.0448 17.16 64.6022 17.32 65.1195 17.64C65.6368 17.96 66.0555 18.4187 66.3755 19.016C66.6955 19.6133 66.8555 20.328 66.8555 21.16C66.8555 22.0027 66.6928 22.7253 66.3675 23.328C66.0475 23.9307 65.6262 24.392 65.1035 24.712C64.5808 25.032 64.0182 25.192 63.4155 25.192ZM59.9435 28.76V17.352H60.9835L61.1915 19.144V28.76H59.9435ZM69.4629 25V17.336H70.7109V25H69.4629ZM70.3269 21.544C70.3269 20.5733 70.4202 19.768 70.6069 19.128C70.7935 18.4827 71.0655 18.0027 71.4229 17.688C71.7855 17.368 72.2255 17.208 72.7429 17.208C72.9135 17.208 73.0682 17.2213 73.2069 17.248C73.3509 17.2693 73.4949 17.304 73.6389 17.352L73.5589 18.584C73.4095 18.536 73.2469 18.496 73.0709 18.464C72.8949 18.4267 72.7375 18.408 72.5989 18.408C72.1455 18.408 71.7802 18.5387 71.5029 18.8C71.2255 19.056 71.0229 19.4187 70.8949 19.888C70.7722 20.3573 70.7109 20.9093 70.7109 21.544H70.3269ZM78.0601 25.192C77.3988 25.192 76.8068 25.024 76.2841 24.688C75.7668 24.3467 75.3561 23.8747 75.0521 23.272C74.7535 22.6693 74.6041 21.976 74.6041 21.192C74.6041 20.3547 74.7535 19.6347 75.0521 19.032C75.3508 18.4293 75.7588 17.968 76.2761 17.648C76.7988 17.3227 77.3935 17.16 78.0601 17.16C78.6415 17.16 79.1375 17.2773 79.5481 17.512C79.9588 17.7467 80.2895 18.064 80.5401 18.464C80.7908 18.864 80.9641 19.3173 81.0601 19.824C81.1615 20.3253 81.1908 20.8453 81.1481 21.384H75.6121V20.616H80.3241L79.9561 20.856C79.9721 20.5413 79.9535 20.2267 79.9001 19.912C79.8521 19.5973 79.7588 19.3093 79.6201 19.048C79.4815 18.7813 79.2868 18.568 79.0361 18.408C78.7855 18.248 78.4655 18.168 78.0761 18.168C77.5855 18.168 77.1748 18.2933 76.8441 18.544C76.5135 18.7947 76.2655 19.1253 76.1001 19.536C75.9348 19.9413 75.8521 20.3813 75.8521 20.856V21.368C75.8521 21.9013 75.9321 22.3787 76.0921 22.8C76.2575 23.2213 76.5028 23.5547 76.8281 23.8C77.1535 24.0453 77.5641 24.168 78.0601 24.168C78.5561 24.168 78.9641 24.048 79.2841 23.808C79.6041 23.568 79.7988 23.2133 79.8681 22.744H81.1641C81.0841 23.2507 80.9028 23.688 80.6201 24.056C80.3375 24.4187 79.9775 24.6987 79.5401 24.896C79.1028 25.0933 78.6095 25.192 78.0601 25.192ZM82.4549 17.352H83.8789L86.2789 23.928H86.1029L88.5029 17.352H89.9269L86.8709 25H85.5109L82.4549 17.352ZM92.6937 15.544C92.4377 15.544 92.2351 15.472 92.0857 15.328C91.9364 15.1787 91.8617 14.984 91.8617 14.744C91.8617 14.5093 91.9364 14.3227 92.0857 14.184C92.2351 14.0453 92.4377 13.976 92.6937 13.976C92.9497 13.976 93.1524 14.0453 93.3017 14.184C93.4511 14.3227 93.5257 14.5093 93.5257 14.744C93.5257 14.984 93.4511 15.1787 93.3017 15.328C93.1524 15.472 92.9497 15.544 92.6937 15.544ZM92.0697 25V17.336H93.3177V25H92.0697ZM99.6834 25.192C98.9954 25.192 98.382 25.04 97.8434 24.736C97.31 24.432 96.8887 23.9813 96.5794 23.384C96.27 22.7867 96.1154 22.0507 96.1154 21.176C96.1154 20.296 96.27 19.56 96.5794 18.968C96.8887 18.3707 97.31 17.92 97.8434 17.616C98.382 17.312 98.9954 17.16 99.6834 17.16C100.366 17.16 100.974 17.312 101.507 17.616C102.046 17.92 102.467 18.3707 102.771 18.968C103.081 19.56 103.235 20.296 103.235 21.176C103.235 22.0507 103.081 22.7867 102.771 23.384C102.467 23.9813 102.046 24.432 101.507 24.736C100.974 25.04 100.366 25.192 99.6834 25.192ZM99.6514 24.104C100.147 24.104 100.569 23.9867 100.915 23.752C101.262 23.512 101.523 23.1733 101.699 22.736C101.881 22.2987 101.971 21.7787 101.971 21.176C101.971 20.264 101.782 19.5467 101.403 19.024C101.025 18.496 100.462 18.232 99.7154 18.232C99.214 18.232 98.79 18.352 98.4434 18.592C98.102 18.8267 97.8407 19.1653 97.6594 19.608C97.4834 20.0453 97.3954 20.568 97.3954 21.176C97.3954 22.0773 97.5847 22.792 97.9634 23.32C98.3474 23.8427 98.91 24.104 99.6514 24.104ZM111.025 17.336H112.273V25H111.025V17.336ZM105.601 17.336H106.849V22.104C106.849 22.744 107.004 23.2293 107.313 23.56C107.628 23.8907 108.076 24.056 108.657 24.056C109.137 24.056 109.553 23.928 109.905 23.672C110.263 23.416 110.537 23.064 110.729 22.616C110.927 22.1627 111.025 21.6453 111.025 21.064H111.489C111.489 21.9227 111.364 22.656 111.113 23.264C110.868 23.872 110.519 24.3387 110.065 24.664C109.617 24.984 109.089 25.144 108.481 25.144C107.905 25.144 107.401 25.0373 106.969 24.824C106.537 24.6107 106.201 24.288 105.961 23.856C105.721 23.4187 105.601 22.8667 105.601 22.2V17.336ZM118.425 25.192C117.684 25.192 117.065 25.088 116.569 24.88C116.073 24.6667 115.697 24.376 115.441 24.008C115.185 23.6347 115.049 23.208 115.033 22.728H116.233C116.26 23.2133 116.454 23.5787 116.817 23.824C117.185 24.064 117.684 24.184 118.313 24.184C118.644 24.184 118.948 24.1307 119.225 24.024C119.502 23.9173 119.724 23.7707 119.889 23.584C120.054 23.3973 120.137 23.1867 120.137 22.952C120.137 22.6533 120.028 22.4187 119.809 22.248C119.59 22.0773 119.241 21.928 118.761 21.8L117.273 21.32C116.628 21.1173 116.132 20.84 115.785 20.488C115.444 20.1307 115.273 19.704 115.273 19.208C115.273 18.5893 115.545 18.0933 116.089 17.72C116.633 17.3467 117.348 17.16 118.233 17.16C119.172 17.16 119.9 17.352 120.417 17.736C120.934 18.12 121.204 18.6 121.225 19.176H119.993C119.945 18.84 119.774 18.5867 119.481 18.416C119.188 18.24 118.772 18.152 118.233 18.152C117.716 18.152 117.31 18.2693 117.017 18.504C116.729 18.7333 116.585 18.9893 116.585 19.272C116.585 19.8 117.038 20.1893 117.945 20.44L119.465 20.952C120.121 21.1493 120.622 21.408 120.969 21.728C121.321 22.048 121.497 22.456 121.497 22.952C121.497 23.336 121.372 23.6987 121.121 24.04C120.87 24.3813 120.516 24.6587 120.057 24.872C119.598 25.0853 119.054 25.192 118.425 25.192ZM131.668 25.192C131.108 25.192 130.62 25.064 130.204 24.808C129.793 24.552 129.476 24.1787 129.252 23.688C129.028 23.192 128.916 22.5893 128.916 21.88H129.444C129.444 22.3547 129.543 22.7547 129.74 23.08C129.937 23.4053 130.193 23.6533 130.508 23.824C130.828 23.9893 131.167 24.072 131.524 24.072C131.908 24.072 132.276 23.9627 132.628 23.744C132.98 23.52 133.268 23.192 133.492 22.76C133.716 22.328 133.828 21.7947 133.828 21.16C133.828 20.552 133.724 20.032 133.516 19.6C133.313 19.168 133.039 18.8373 132.692 18.608C132.345 18.3787 131.961 18.264 131.54 18.264C131.177 18.264 130.836 18.352 130.516 18.528C130.196 18.704 129.937 18.9627 129.74 19.304C129.543 19.64 129.444 20.056 129.444 20.552H128.916C128.916 19.8107 129.039 19.1893 129.284 18.688C129.529 18.1813 129.863 17.8 130.284 17.544C130.705 17.288 131.177 17.16 131.7 17.16C132.297 17.16 132.855 17.32 133.372 17.64C133.889 17.96 134.308 18.4187 134.628 19.016C134.948 19.6133 135.108 20.328 135.108 21.16C135.108 22.0027 134.945 22.7253 134.62 23.328C134.3 23.9307 133.879 24.392 133.356 24.712C132.833 25.032 132.271 25.192 131.668 25.192ZM128.196 28.76V17.352H129.236L129.444 19.144V28.76H128.196ZM142.451 25L142.291 23.32V20.04C142.291 19.352 142.145 18.8587 141.851 18.56C141.558 18.256 141.118 18.104 140.531 18.104C140.201 18.104 139.899 18.152 139.627 18.248C139.361 18.344 139.147 18.4933 138.987 18.696C138.833 18.8933 138.755 19.1493 138.755 19.464H137.363C137.363 18.9093 137.499 18.464 137.771 18.128C138.043 17.7867 138.417 17.5413 138.891 17.392C139.371 17.2373 139.918 17.16 140.531 17.16C141.118 17.16 141.638 17.2587 142.091 17.456C142.545 17.6533 142.899 17.968 143.155 18.4C143.411 18.8267 143.539 19.384 143.539 20.072V25H142.451ZM139.843 25.192C139.214 25.192 138.694 25.08 138.283 24.856C137.873 24.632 137.566 24.3413 137.363 23.984C137.161 23.6267 137.059 23.2507 137.059 22.856C137.059 22.3387 137.187 21.9173 137.443 21.592C137.705 21.2667 138.059 21.0293 138.507 20.88C138.955 20.7253 139.459 20.648 140.019 20.648C140.419 20.648 140.819 20.688 141.219 20.768C141.625 20.848 142.019 20.9573 142.403 21.096V21.88C142.083 21.752 141.721 21.6507 141.315 21.576C140.915 21.5013 140.547 21.464 140.211 21.464C139.699 21.464 139.267 21.5707 138.915 21.784C138.563 21.992 138.387 22.3493 138.387 22.856C138.387 23.2293 138.521 23.5493 138.787 23.816C139.059 24.0827 139.491 24.216 140.083 24.216C140.499 24.216 140.873 24.12 141.203 23.928C141.539 23.7307 141.803 23.4853 141.995 23.192C142.193 22.8987 142.291 22.6053 142.291 22.312H142.595C142.595 22.824 142.483 23.2987 142.259 23.736C142.041 24.1733 141.726 24.5253 141.315 24.792C140.905 25.0587 140.414 25.192 139.843 25.192ZM146.688 25V17.336H147.936V25H146.688ZM147.552 21.544C147.552 20.5733 147.645 19.768 147.832 19.128C148.019 18.4827 148.291 18.0027 148.648 17.688C149.011 17.368 149.451 17.208 149.968 17.208C150.139 17.208 150.293 17.2213 150.432 17.248C150.576 17.2693 150.72 17.304 150.864 17.352L150.784 18.584C150.635 18.536 150.472 18.496 150.296 18.464C150.12 18.4267 149.963 18.408 149.824 18.408C149.371 18.408 149.005 18.5387 148.728 18.8C148.451 19.056 148.248 19.4187 148.12 19.888C147.997 20.3573 147.936 20.9093 147.936 21.544H147.552ZM157.365 25L157.205 23.32V20.04C157.205 19.352 157.058 18.8587 156.765 18.56C156.472 18.256 156.032 18.104 155.445 18.104C155.114 18.104 154.813 18.152 154.541 18.248C154.274 18.344 154.061 18.4933 153.901 18.696C153.746 18.8933 153.669 19.1493 153.669 19.464H152.277C152.277 18.9093 152.413 18.464 152.685 18.128C152.957 17.7867 153.33 17.5413 153.805 17.392C154.285 17.2373 154.832 17.16 155.445 17.16C156.032 17.16 156.552 17.2587 157.005 17.456C157.458 17.6533 157.813 17.968 158.069 18.4C158.325 18.8267 158.453 19.384 158.453 20.072V25H157.365ZM154.757 25.192C154.128 25.192 153.608 25.08 153.197 24.856C152.786 24.632 152.48 24.3413 152.277 23.984C152.074 23.6267 151.973 23.2507 151.973 22.856C151.973 22.3387 152.101 21.9173 152.357 21.592C152.618 21.2667 152.973 21.0293 153.421 20.88C153.869 20.7253 154.373 20.648 154.933 20.648C155.333 20.648 155.733 20.688 156.133 20.768C156.538 20.848 156.933 20.9573 157.317 21.096V21.88C156.997 21.752 156.634 21.6507 156.229 21.576C155.829 21.5013 155.461 21.464 155.125 21.464C154.613 21.464 154.181 21.5707 153.829 21.784C153.477 21.992 153.301 22.3493 153.301 22.856C153.301 23.2293 153.434 23.5493 153.701 23.816C153.973 24.0827 154.405 24.216 154.997 24.216C155.413 24.216 155.786 24.12 156.117 23.928C156.453 23.7307 156.717 23.4853 156.909 23.192C157.106 22.8987 157.205 22.6053 157.205 22.312H157.509C157.509 22.824 157.397 23.2987 157.173 23.736C156.954 24.1733 156.64 24.5253 156.229 24.792C155.818 25.0587 155.328 25.192 154.757 25.192ZM164.306 28.936C163.522 28.936 162.842 28.824 162.266 28.6C161.69 28.3813 161.242 28.0853 160.922 27.712C160.607 27.344 160.45 26.936 160.45 26.488C160.45 25.896 160.666 25.4427 161.098 25.128C161.535 24.8187 162.098 24.664 162.786 24.664L163.474 25.096C162.898 25.096 162.452 25.216 162.138 25.456C161.823 25.696 161.666 26.024 161.666 26.44C161.666 26.856 161.89 27.208 162.338 27.496C162.786 27.784 163.442 27.928 164.306 27.928C164.946 27.928 165.506 27.8347 165.986 27.648C166.471 27.4667 166.847 27.2267 167.114 26.928C167.386 26.6347 167.522 26.3173 167.522 25.976C167.522 25.736 167.434 25.528 167.258 25.352C167.082 25.1813 166.812 25.096 166.45 25.096H163.474C162.956 25.096 162.508 25.0187 162.13 24.864C161.756 24.704 161.468 24.496 161.266 24.24C161.063 23.984 160.962 23.704 160.962 23.4C160.962 23.08 161.052 22.808 161.234 22.584C161.415 22.36 161.65 22.1893 161.938 22.072C162.231 21.9547 162.546 21.896 162.882 21.896L163.122 22.36C162.962 22.36 162.799 22.3973 162.634 22.472C162.474 22.5413 162.338 22.648 162.226 22.792C162.119 22.9307 162.066 23.1067 162.066 23.32C162.066 23.5653 162.167 23.7707 162.37 23.936C162.572 24.1013 162.94 24.184 163.474 24.184H166.45C167.17 24.184 167.735 24.336 168.146 24.64C168.562 24.944 168.77 25.368 168.77 25.912C168.77 26.4133 168.591 26.8933 168.234 27.352C167.876 27.816 167.364 28.1947 166.698 28.488C166.031 28.7867 165.234 28.936 164.306 28.936ZM164.53 22.76C163.943 22.76 163.412 22.6427 162.938 22.408C162.468 22.1733 162.095 21.8453 161.818 21.424C161.546 21.0027 161.41 20.5147 161.41 19.96C161.41 19.4 161.546 18.9093 161.818 18.488C162.095 18.0667 162.468 17.7413 162.938 17.512C163.412 17.2773 163.943 17.16 164.53 17.16C165.1 17.16 165.618 17.2773 166.082 17.512C166.551 17.7413 166.924 18.0667 167.202 18.488C167.479 18.9093 167.618 19.4 167.618 19.96C167.618 20.5147 167.479 21.0027 167.202 21.424C166.924 21.8453 166.551 22.1733 166.082 22.408C165.618 22.6427 165.1 22.76 164.53 22.76ZM164.53 21.864C165.116 21.864 165.572 21.6827 165.898 21.32C166.223 20.9573 166.386 20.504 166.386 19.96C166.386 19.4 166.223 18.9467 165.898 18.6C165.572 18.248 165.116 18.072 164.53 18.072C163.948 18.072 163.49 18.248 163.154 18.6C162.823 18.9467 162.658 19.4 162.658 19.96C162.658 20.504 162.823 20.9573 163.154 21.32C163.49 21.6827 163.948 21.864 164.53 21.864ZM167.042 18.376L166.45 18.136C166.45 17.688 166.538 17.296 166.714 16.96C166.89 16.6187 167.14 16.3547 167.466 16.168C167.791 15.976 168.178 15.88 168.626 15.88L168.53 17.112C168.05 17.112 167.682 17.216 167.426 17.424C167.17 17.6267 167.042 17.944 167.042 18.376ZM170.793 25V17.336H172.041V25H170.793ZM171.657 21.544C171.657 20.5733 171.75 19.768 171.937 19.128C172.124 18.4827 172.396 18.0027 172.753 17.688C173.116 17.368 173.556 17.208 174.073 17.208C174.244 17.208 174.398 17.2213 174.537 17.248C174.681 17.2693 174.825 17.304 174.969 17.352L174.889 18.584C174.74 18.536 174.577 18.496 174.401 18.464C174.225 18.4267 174.068 18.408 173.929 18.408C173.476 18.408 173.11 18.5387 172.833 18.8C172.556 19.056 172.353 19.4187 172.225 19.888C172.102 20.3573 172.041 20.9093 172.041 21.544H171.657ZM181.47 25L181.31 23.32V20.04C181.31 19.352 181.163 18.8587 180.87 18.56C180.577 18.256 180.137 18.104 179.55 18.104C179.219 18.104 178.918 18.152 178.646 18.248C178.379 18.344 178.166 18.4933 178.006 18.696C177.851 18.8933 177.774 19.1493 177.774 19.464H176.382C176.382 18.9093 176.518 18.464 176.79 18.128C177.062 17.7867 177.435 17.5413 177.91 17.392C178.39 17.2373 178.937 17.16 179.55 17.16C180.137 17.16 180.657 17.2587 181.11 17.456C181.563 17.6533 181.918 17.968 182.174 18.4C182.43 18.8267 182.558 19.384 182.558 20.072V25H181.47ZM178.862 25.192C178.233 25.192 177.713 25.08 177.302 24.856C176.891 24.632 176.585 24.3413 176.382 23.984C176.179 23.6267 176.078 23.2507 176.078 22.856C176.078 22.3387 176.206 21.9173 176.462 21.592C176.723 21.2667 177.078 21.0293 177.526 20.88C177.974 20.7253 178.478 20.648 179.038 20.648C179.438 20.648 179.838 20.688 180.238 20.768C180.643 20.848 181.038 20.9573 181.422 21.096V21.88C181.102 21.752 180.739 21.6507 180.334 21.576C179.934 21.5013 179.566 21.464 179.23 21.464C178.718 21.464 178.286 21.5707 177.934 21.784C177.582 21.992 177.406 22.3493 177.406 22.856C177.406 23.2293 177.539 23.5493 177.806 23.816C178.078 24.0827 178.51 24.216 179.102 24.216C179.518 24.216 179.891 24.12 180.222 23.928C180.558 23.7307 180.822 23.4853 181.014 23.192C181.211 22.8987 181.31 22.6053 181.31 22.312H181.614C181.614 22.824 181.502 23.2987 181.278 23.736C181.059 24.1733 180.745 24.5253 180.334 24.792C179.923 25.0587 179.433 25.192 178.862 25.192ZM189.179 25.192C188.619 25.192 188.131 25.064 187.715 24.808C187.304 24.552 186.987 24.1787 186.763 23.688C186.539 23.192 186.427 22.5893 186.427 21.88H186.955C186.955 22.3547 187.053 22.7547 187.251 23.08C187.448 23.4053 187.704 23.6533 188.019 23.824C188.339 23.9893 188.677 24.072 189.035 24.072C189.419 24.072 189.787 23.9627 190.139 23.744C190.491 23.52 190.779 23.192 191.003 22.76C191.227 22.328 191.339 21.7947 191.339 21.16C191.339 20.552 191.235 20.032 191.027 19.6C190.824 19.168 190.549 18.8373 190.203 18.608C189.856 18.3787 189.472 18.264 189.051 18.264C188.688 18.264 188.347 18.352 188.027 18.528C187.707 18.704 187.448 18.9627 187.251 19.304C187.053 19.64 186.955 20.056 186.955 20.552H186.427C186.427 19.8107 186.549 19.1893 186.795 18.688C187.04 18.1813 187.373 17.8 187.795 17.544C188.216 17.288 188.688 17.16 189.211 17.16C189.808 17.16 190.365 17.32 190.883 17.64C191.4 17.96 191.819 18.4187 192.139 19.016C192.459 19.6133 192.619 20.328 192.619 21.16C192.619 22.0027 192.456 22.7253 192.131 23.328C191.811 23.9307 191.389 24.392 190.867 24.712C190.344 25.032 189.781 25.192 189.179 25.192ZM185.707 28.76V17.352H186.747L186.955 19.144V28.76H185.707ZM200.666 25V20.504C200.666 19.7733 200.49 19.2187 200.138 18.84C199.791 18.456 199.317 18.264 198.714 18.264C198.255 18.264 197.858 18.3893 197.522 18.64C197.186 18.8907 196.927 19.2507 196.746 19.72C196.565 20.184 196.474 20.7387 196.474 21.384H195.994C195.994 20.4933 196.111 19.7333 196.346 19.104C196.581 18.4747 196.922 17.9947 197.37 17.664C197.823 17.328 198.373 17.16 199.018 17.16C199.621 17.16 200.135 17.296 200.562 17.568C200.994 17.8347 201.325 18.2187 201.554 18.72C201.783 19.2213 201.898 19.816 201.898 20.504V25H200.666ZM195.226 25V14.088H196.474V25H195.226ZM209.703 15.544C209.447 15.544 209.244 15.472 209.095 15.328C208.946 15.1787 208.871 14.984 208.871 14.744C208.871 14.5093 208.946 14.3227 209.095 14.184C209.244 14.0453 209.447 13.976 209.703 13.976C209.959 13.976 210.162 14.0453 210.311 14.184C210.46 14.3227 210.535 14.5093 210.535 14.744C210.535 14.984 210.46 15.1787 210.311 15.328C210.162 15.472 209.959 15.544 209.703 15.544ZM209.079 25V17.336H210.327V25H209.079ZM216.677 25.192C215.935 25.192 215.317 25.088 214.821 24.88C214.325 24.6667 213.949 24.376 213.693 24.008C213.437 23.6347 213.301 23.208 213.285 22.728H214.485C214.511 23.2133 214.706 23.5787 215.069 23.824C215.437 24.064 215.935 24.184 216.565 24.184C216.895 24.184 217.199 24.1307 217.477 24.024C217.754 23.9173 217.975 23.7707 218.141 23.584C218.306 23.3973 218.389 23.1867 218.389 22.952C218.389 22.6533 218.279 22.4187 218.061 22.248C217.842 22.0773 217.493 21.928 217.013 21.8L215.525 21.32C214.879 21.1173 214.383 20.84 214.037 20.488C213.695 20.1307 213.525 19.704 213.525 19.208C213.525 18.5893 213.797 18.0933 214.341 17.72C214.885 17.3467 215.599 17.16 216.485 17.16C217.423 17.16 218.151 17.352 218.669 17.736C219.186 18.12 219.455 18.6 219.477 19.176H218.245C218.197 18.84 218.026 18.5867 217.733 18.416C217.439 18.24 217.023 18.152 216.485 18.152C215.967 18.152 215.562 18.2693 215.269 18.504C214.981 18.7333 214.837 18.9893 214.837 19.272C214.837 19.8 215.29 20.1893 216.197 20.44L217.717 20.952C218.373 21.1493 218.874 21.408 219.221 21.728C219.573 22.048 219.749 22.456 219.749 22.952C219.749 23.336 219.623 23.6987 219.373 24.04C219.122 24.3813 218.767 24.6587 218.309 24.872C217.85 25.0853 217.306 25.192 216.677 25.192ZM221.771 23.728C221.771 23.4773 221.859 23.2613 222.035 23.08C222.211 22.8987 222.432 22.808 222.699 22.808C222.966 22.808 223.192 22.8987 223.379 23.08C223.566 23.2613 223.659 23.4773 223.659 23.728C223.659 23.9787 223.566 24.1893 223.379 24.36C223.192 24.5307 222.966 24.616 222.699 24.616C222.432 24.616 222.211 24.5307 222.035 24.36C221.859 24.184 221.771 23.9733 221.771 23.728ZM221.771 18.832C221.771 18.5813 221.859 18.3653 222.035 18.184C222.211 18.0027 222.432 17.912 222.699 17.912C222.966 17.912 223.192 18.0027 223.379 18.184C223.566 18.3653 223.659 18.5813 223.659 18.832C223.659 19.0827 223.566 19.2933 223.379 19.464C223.192 19.6347 222.966 19.72 222.699 19.72C222.432 19.72 222.211 19.6347 222.035 19.464C221.859 19.288 221.771 19.0773 221.771 18.832ZM32.352 38.296C32.1387 38.296 31.9493 38.24 31.784 38.128C31.6187 38.016 31.488 37.864 31.392 37.672C31.296 37.48 31.248 37.2667 31.248 37.032C31.248 36.648 31.3733 36.272 31.624 35.904C31.88 35.5307 32.24 35.224 32.704 34.984L33.6 35.464C33.296 35.6133 33.0373 35.7867 32.824 35.984C32.616 36.1813 32.4747 36.4133 32.4 36.68C32.6507 36.7013 32.8533 36.7787 33.008 36.912C33.168 37.04 33.248 37.2187 33.248 37.448C33.248 37.6773 33.1653 37.8773 33 38.048C32.84 38.2133 32.624 38.296 32.352 38.296ZM29.68 38.296C29.4667 38.296 29.2773 38.24 29.112 38.128C28.9467 38.016 28.816 37.864 28.72 37.672C28.624 37.48 28.576 37.2667 28.576 37.032C28.576 36.648 28.7013 36.272 28.952 35.904C29.208 35.5307 29.568 35.224 30.032 34.984L30.928 35.464C30.624 35.6133 30.3653 35.7867 30.152 35.984C29.944 36.1813 29.8027 36.4133 29.728 36.68C29.9787 36.7013 30.1813 36.7787 30.336 36.912C30.496 37.04 30.576 37.2187 30.576 37.448C30.576 37.6773 30.4933 37.8773 30.328 38.048C30.168 38.2133 29.952 38.296 29.68 38.296ZM36.1659 45V34.952H39.3979C40.5019 34.952 41.3445 35.232 41.9259 35.792C42.5125 36.3467 42.8059 37.1013 42.8059 38.056C42.8059 39 42.5125 39.7493 41.9259 40.304C41.3445 40.8533 40.5019 41.128 39.3979 41.128H37.4299V45H36.1659ZM37.4299 40.04H39.3979C40.0965 40.04 40.6245 39.8613 40.9819 39.504C41.3445 39.1467 41.5259 38.664 41.5259 38.056C41.5259 37.4373 41.3445 36.944 40.9819 36.576C40.6245 36.208 40.0965 36.024 39.3979 36.024H37.4299V40.04ZM50.4173 37.336H51.6652V45H50.4173V37.336ZM44.9932 37.336H46.2412V42.104C46.2412 42.744 46.3959 43.2293 46.7052 43.56C47.0199 43.8907 47.4679 44.056 48.0493 44.056C48.5292 44.056 48.9452 43.928 49.2972 43.672C49.6546 43.416 49.9293 43.064 50.1213 42.616C50.3186 42.1627 50.4173 41.6453 50.4173 41.064H50.8812C50.8812 41.9227 50.7559 42.656 50.5052 43.264C50.2599 43.872 49.9106 44.3387 49.4573 44.664C49.0092 44.984 48.4812 45.144 47.8733 45.144C47.2972 45.144 46.7932 45.0373 46.3612 44.824C45.9292 44.6107 45.5932 44.288 45.3532 43.856C45.1132 43.4187 44.9932 42.8667 44.9932 42.2V37.336ZM57.4167 45.192C57.0007 45.192 56.6274 45.112 56.2967 44.952C55.9661 44.792 55.7047 44.552 55.5127 44.232C55.3207 43.912 55.2247 43.512 55.2247 43.032V35.224H56.4567V43C56.4567 43.7893 56.8247 44.184 57.5607 44.184C57.7794 44.184 57.9901 44.16 58.1927 44.112C58.4007 44.064 58.6327 43.992 58.8887 43.896L59.0647 44.792C58.7927 44.9093 58.5207 45.0053 58.2487 45.08C57.9821 45.1547 57.7047 45.192 57.4167 45.192ZM53.9927 38.216V37.352H58.8727V38.216H53.9927ZM67.5492 45.192C67.1332 45.192 66.7599 45.112 66.4292 44.952C66.0986 44.792 65.8372 44.552 65.6452 44.232C65.4532 43.912 65.3572 43.512 65.3572 43.032V35.224H66.5892V43C66.5892 43.7893 66.9572 44.184 67.6932 44.184C67.9119 44.184 68.1226 44.16 68.3252 44.112C68.5332 44.064 68.7652 43.992 69.0212 43.896L69.1972 44.792C68.9252 44.9093 68.6532 45.0053 68.3812 45.08C68.1146 45.1547 67.8372 45.192 67.5492 45.192ZM64.1252 38.216V37.352H69.0052V38.216H64.1252ZM76.8129 45V40.504C76.8129 39.7733 76.6369 39.2187 76.2849 38.84C75.9382 38.456 75.4635 38.264 74.8609 38.264C74.4022 38.264 74.0049 38.3893 73.6689 38.64C73.3329 38.8907 73.0742 39.2507 72.8929 39.72C72.7115 40.184 72.6209 40.7387 72.6209 41.384H72.1409C72.1409 40.4933 72.2582 39.7333 72.4929 39.104C72.7275 38.4747 73.0689 37.9947 73.5169 37.664C73.9702 37.328 74.5195 37.16 75.1649 37.16C75.7675 37.16 76.2822 37.296 76.7089 37.568C77.1409 37.8347 77.4715 38.2187 77.7009 38.72C77.9302 39.2213 78.0449 39.816 78.0449 40.504V45H76.8129ZM71.3729 45V34.088H72.6209V45H71.3729ZM83.8451 45.192C83.1838 45.192 82.5918 45.024 82.0691 44.688C81.5518 44.3467 81.1411 43.8747 80.8371 43.272C80.5385 42.6693 80.3891 41.976 80.3891 41.192C80.3891 40.3547 80.5385 39.6347 80.8371 39.032C81.1358 38.4293 81.5438 37.968 82.0611 37.648C82.5838 37.3227 83.1785 37.16 83.8451 37.16C84.4265 37.16 84.9225 37.2773 85.3331 37.512C85.7438 37.7467 86.0745 38.064 86.3251 38.464C86.5758 38.864 86.7491 39.3173 86.8451 39.824C86.9465 40.3253 86.9758 40.8453 86.9331 41.384H81.3971V40.616H86.1091L85.7411 40.856C85.7571 40.5413 85.7385 40.2267 85.6851 39.912C85.6371 39.5973 85.5438 39.3093 85.4051 39.048C85.2665 38.7813 85.0718 38.568 84.8211 38.408C84.5705 38.248 84.2505 38.168 83.8611 38.168C83.3705 38.168 82.9598 38.2933 82.6291 38.544C82.2985 38.7947 82.0505 39.1253 81.8851 39.536C81.7198 39.9413 81.6371 40.3813 81.6371 40.856V41.368C81.6371 41.9013 81.7171 42.3787 81.8771 42.8C82.0425 43.2213 82.2878 43.5547 82.6131 43.8C82.9385 44.0453 83.3491 44.168 83.8451 44.168C84.3411 44.168 84.7491 44.048 85.0691 43.808C85.3891 43.568 85.5838 43.2133 85.6531 42.744H86.9491C86.8691 43.2507 86.6878 43.688 86.4051 44.056C86.1225 44.4187 85.7625 44.6987 85.3251 44.896C84.8878 45.0933 84.3945 45.192 83.8451 45.192ZM96.2607 45.192C95.6421 45.192 95.0741 45.0267 94.5567 44.696C94.0394 44.36 93.6261 43.8907 93.3167 43.288C93.0074 42.68 92.8527 41.9653 92.8527 41.144C92.8527 40.328 93.0047 39.6213 93.3087 39.024C93.6127 38.4267 94.0154 37.968 94.5167 37.648C95.0234 37.3227 95.5781 37.16 96.1807 37.16C96.7407 37.16 97.2314 37.296 97.6527 37.568C98.0794 37.84 98.4101 38.232 98.6447 38.744C98.8794 39.256 98.9967 39.8747 98.9967 40.6H98.5167C98.5167 40.0933 98.4154 39.6667 98.2127 39.32C98.0154 38.9733 97.7567 38.712 97.4367 38.536C97.1167 38.3547 96.7727 38.264 96.4047 38.264C95.9887 38.264 95.6074 38.3813 95.2607 38.616C94.9194 38.8453 94.6447 39.176 94.4367 39.608C94.2341 40.0347 94.1327 40.5467 94.1327 41.144C94.1327 41.752 94.2341 42.2747 94.4367 42.712C94.6447 43.1493 94.9194 43.4853 95.2607 43.72C95.6074 43.9547 95.9887 44.072 96.4047 44.072C96.7514 44.072 97.0847 43.9813 97.4047 43.8C97.7301 43.6187 97.9967 43.3547 98.2047 43.008C98.4127 42.656 98.5167 42.232 98.5167 41.736H98.9967C98.9967 42.4773 98.8741 43.1067 98.6287 43.624C98.3887 44.136 98.0607 44.5253 97.6447 44.792C97.2341 45.0587 96.7727 45.192 96.2607 45.192ZM98.7247 45L98.5167 43.208V34.088H99.7647V45H98.7247ZM103.873 35.544C103.617 35.544 103.414 35.472 103.265 35.328C103.116 35.1787 103.041 34.984 103.041 34.744C103.041 34.5093 103.116 34.3227 103.265 34.184C103.414 34.0453 103.617 33.976 103.873 33.976C104.129 33.976 104.332 34.0453 104.481 34.184C104.63 34.3227 104.705 34.5093 104.705 34.744C104.705 34.984 104.63 35.1787 104.481 35.328C104.332 35.472 104.129 35.544 103.873 35.544ZM103.249 45V37.336H104.497V45H103.249ZM110.799 48.936C110.015 48.936 109.335 48.824 108.759 48.6C108.183 48.3813 107.735 48.0853 107.415 47.712C107.1 47.344 106.943 46.936 106.943 46.488C106.943 45.896 107.159 45.4427 107.591 45.128C108.028 44.8187 108.591 44.664 109.279 44.664L109.967 45.096C109.391 45.096 108.945 45.216 108.631 45.456C108.316 45.696 108.159 46.024 108.159 46.44C108.159 46.856 108.383 47.208 108.831 47.496C109.279 47.784 109.935 47.928 110.799 47.928C111.439 47.928 111.999 47.8347 112.479 47.648C112.964 47.4667 113.34 47.2267 113.607 46.928C113.879 46.6347 114.015 46.3173 114.015 45.976C114.015 45.736 113.927 45.528 113.751 45.352C113.575 45.1813 113.305 45.096 112.943 45.096H109.967C109.449 45.096 109.001 45.0187 108.623 44.864C108.249 44.704 107.961 44.496 107.759 44.24C107.556 43.984 107.455 43.704 107.455 43.4C107.455 43.08 107.545 42.808 107.727 42.584C107.908 42.36 108.143 42.1893 108.431 42.072C108.724 41.9547 109.039 41.896 109.375 41.896L109.615 42.36C109.455 42.36 109.292 42.3973 109.127 42.472C108.967 42.5413 108.831 42.648 108.719 42.792C108.612 42.9307 108.559 43.1067 108.559 43.32C108.559 43.5653 108.66 43.7707 108.863 43.936C109.065 44.1013 109.433 44.184 109.967 44.184H112.943C113.663 44.184 114.228 44.336 114.639 44.64C115.055 44.944 115.263 45.368 115.263 45.912C115.263 46.4133 115.084 46.8933 114.727 47.352C114.369 47.816 113.857 48.1947 113.191 48.488C112.524 48.7867 111.727 48.936 110.799 48.936ZM111.023 42.76C110.436 42.76 109.905 42.6427 109.431 42.408C108.961 42.1733 108.588 41.8453 108.311 41.424C108.039 41.0027 107.903 40.5147 107.903 39.96C107.903 39.4 108.039 38.9093 108.311 38.488C108.588 38.0667 108.961 37.7413 109.431 37.512C109.905 37.2773 110.436 37.16 111.023 37.16C111.593 37.16 112.111 37.2773 112.575 37.512C113.044 37.7413 113.417 38.0667 113.695 38.488C113.972 38.9093 114.111 39.4 114.111 39.96C114.111 40.5147 113.972 41.0027 113.695 41.424C113.417 41.8453 113.044 42.1733 112.575 42.408C112.111 42.6427 111.593 42.76 111.023 42.76ZM111.023 41.864C111.609 41.864 112.065 41.6827 112.391 41.32C112.716 40.9573 112.879 40.504 112.879 39.96C112.879 39.4 112.716 38.9467 112.391 38.6C112.065 38.248 111.609 38.072 111.023 38.072C110.441 38.072 109.983 38.248 109.647 38.6C109.316 38.9467 109.151 39.4 109.151 39.96C109.151 40.504 109.316 40.9573 109.647 41.32C109.983 41.6827 110.441 41.864 111.023 41.864ZM113.535 38.376L112.943 38.136C112.943 37.688 113.031 37.296 113.207 36.96C113.383 36.6187 113.633 36.3547 113.959 36.168C114.284 35.976 114.671 35.88 115.119 35.88L115.023 37.112C114.543 37.112 114.175 37.216 113.919 37.424C113.663 37.6267 113.535 37.944 113.535 38.376ZM119.942 45.192C119.281 45.192 118.689 45.024 118.166 44.688C117.649 44.3467 117.238 43.8747 116.934 43.272C116.635 42.6693 116.486 41.976 116.486 41.192C116.486 40.3547 116.635 39.6347 116.934 39.032C117.233 38.4293 117.641 37.968 118.158 37.648C118.681 37.3227 119.275 37.16 119.942 37.16C120.523 37.16 121.019 37.2773 121.43 37.512C121.841 37.7467 122.171 38.064 122.422 38.464C122.673 38.864 122.846 39.3173 122.942 39.824C123.043 40.3253 123.073 40.8453 123.03 41.384H117.494V40.616H122.206L121.838 40.856C121.854 40.5413 121.835 40.2267 121.782 39.912C121.734 39.5973 121.641 39.3093 121.502 39.048C121.363 38.7813 121.169 38.568 120.918 38.408C120.667 38.248 120.347 38.168 119.958 38.168C119.467 38.168 119.057 38.2933 118.726 38.544C118.395 38.7947 118.147 39.1253 117.982 39.536C117.817 39.9413 117.734 40.3813 117.734 40.856V41.368C117.734 41.9013 117.814 42.3787 117.974 42.8C118.139 43.2213 118.385 43.5547 118.71 43.8C119.035 44.0453 119.446 44.168 119.942 44.168C120.438 44.168 120.846 44.048 121.166 43.808C121.486 43.568 121.681 43.2133 121.75 42.744H123.046C122.966 43.2507 122.785 43.688 122.502 44.056C122.219 44.4187 121.859 44.6987 121.422 44.896C120.985 45.0933 120.491 45.192 119.942 45.192ZM128.417 45.192C127.675 45.192 127.057 45.088 126.561 44.88C126.065 44.6667 125.689 44.376 125.433 44.008C125.177 43.6347 125.041 43.208 125.025 42.728H126.225C126.251 43.2133 126.446 43.5787 126.809 43.824C127.177 44.064 127.675 44.184 128.305 44.184C128.635 44.184 128.939 44.1307 129.217 44.024C129.494 43.9173 129.715 43.7707 129.881 43.584C130.046 43.3973 130.129 43.1867 130.129 42.952C130.129 42.6533 130.019 42.4187 129.801 42.248C129.582 42.0773 129.233 41.928 128.753 41.8L127.265 41.32C126.619 41.1173 126.123 40.84 125.777 40.488C125.435 40.1307 125.265 39.704 125.265 39.208C125.265 38.5893 125.537 38.0933 126.081 37.72C126.625 37.3467 127.339 37.16 128.225 37.16C129.163 37.16 129.891 37.352 130.409 37.736C130.926 38.12 131.195 38.6 131.217 39.176H129.985C129.937 38.84 129.766 38.5867 129.473 38.416C129.179 38.24 128.763 38.152 128.225 38.152C127.707 38.152 127.302 38.2693 127.009 38.504C126.721 38.7333 126.577 38.9893 126.577 39.272C126.577 39.8 127.03 40.1893 127.937 40.44L129.457 40.952C130.113 41.1493 130.614 41.408 130.961 41.728C131.313 42.048 131.489 42.456 131.489 42.952C131.489 43.336 131.363 43.6987 131.113 44.04C130.862 44.3813 130.507 44.6587 130.049 44.872C129.59 45.0853 129.046 45.192 128.417 45.192ZM136.583 45.192C136.167 45.192 135.794 45.112 135.463 44.952C135.132 44.792 134.871 44.552 134.679 44.232C134.487 43.912 134.391 43.512 134.391 43.032V35.224H135.623V43C135.623 43.7893 135.991 44.184 136.727 44.184C136.946 44.184 137.156 44.16 137.359 44.112C137.567 44.064 137.799 43.992 138.055 43.896L138.231 44.792C137.959 44.9093 137.687 45.0053 137.415 45.08C137.148 45.1547 136.871 45.192 136.583 45.192ZM133.159 38.216V37.352H138.039V38.216H133.159ZM141.111 35.544C140.855 35.544 140.652 35.472 140.503 35.328C140.353 35.1787 140.279 34.984 140.279 34.744C140.279 34.5093 140.353 34.3227 140.503 34.184C140.652 34.0453 140.855 33.976 141.111 33.976C141.367 33.976 141.569 34.0453 141.719 34.184C141.868 34.3227 141.943 34.5093 141.943 34.744C141.943 34.984 141.868 35.1787 141.719 35.328C141.569 35.472 141.367 35.544 141.111 35.544ZM140.487 45V37.336H141.735V45H140.487ZM144.004 37.352H145.428L147.828 43.928H147.652L150.052 37.352H151.476L148.42 45H147.06L144.004 37.352ZM156.195 45.192C155.534 45.192 154.942 45.024 154.419 44.688C153.902 44.3467 153.491 43.8747 153.187 43.272C152.888 42.6693 152.739 41.976 152.739 41.192C152.739 40.3547 152.888 39.6347 153.187 39.032C153.486 38.4293 153.894 37.968 154.411 37.648C154.934 37.3227 155.528 37.16 156.195 37.16C156.776 37.16 157.272 37.2773 157.683 37.512C158.094 37.7467 158.424 38.064 158.675 38.464C158.926 38.864 159.099 39.3173 159.195 39.824C159.296 40.3253 159.326 40.8453 159.283 41.384H153.747V40.616H158.459L158.091 40.856C158.107 40.5413 158.088 40.2267 158.035 39.912C157.987 39.5973 157.894 39.3093 157.755 39.048C157.616 38.7813 157.422 38.568 157.171 38.408C156.92 38.248 156.6 38.168 156.211 38.168C155.72 38.168 155.31 38.2933 154.979 38.544C154.648 38.7947 154.4 39.1253 154.235 39.536C154.07 39.9413 153.987 40.3813 153.987 40.856V41.368C153.987 41.9013 154.067 42.3787 154.227 42.8C154.392 43.2213 154.638 43.5547 154.963 43.8C155.288 44.0453 155.699 44.168 156.195 44.168C156.691 44.168 157.099 44.048 157.419 43.808C157.739 43.568 157.934 43.2133 158.003 42.744H159.299C159.219 43.2507 159.038 43.688 158.755 44.056C158.472 44.4187 158.112 44.6987 157.675 44.896C157.238 45.0933 156.744 45.192 156.195 45.192ZM169.379 45.192C168.867 45.192 168.403 45.0587 167.987 44.792C167.576 44.5253 167.248 44.136 167.003 43.624C166.763 43.1067 166.643 42.4773 166.643 41.736H167.123C167.123 42.232 167.224 42.656 167.427 43.008C167.635 43.3547 167.901 43.6187 168.227 43.8C168.552 43.9813 168.893 44.072 169.251 44.072C169.661 44.072 170.037 43.9547 170.379 43.72C170.72 43.4853 170.992 43.1493 171.195 42.712C171.403 42.2747 171.507 41.752 171.507 41.144C171.507 40.5467 171.405 40.0347 171.203 39.608C171 39.176 170.725 38.8453 170.379 38.616C170.037 38.3813 169.656 38.264 169.235 38.264C168.872 38.264 168.528 38.3547 168.203 38.536C167.883 38.712 167.621 38.9733 167.419 39.32C167.221 39.6667 167.123 40.0933 167.123 40.6H166.643C166.643 39.8747 166.76 39.256 166.995 38.744C167.235 38.232 167.565 37.84 167.987 37.568C168.408 37.296 168.899 37.16 169.459 37.16C170.061 37.16 170.613 37.3227 171.115 37.648C171.621 37.968 172.027 38.4267 172.331 39.024C172.635 39.6213 172.787 40.328 172.787 41.144C172.787 41.9653 172.632 42.68 172.323 43.288C172.013 43.8907 171.6 44.36 171.083 44.696C170.565 45.0267 169.997 45.192 169.379 45.192ZM165.875 45V34.088H167.123V43.208L166.755 45H165.875ZM176.223 35.544C175.967 35.544 175.764 35.472 175.615 35.328C175.466 35.1787 175.391 34.984 175.391 34.744C175.391 34.5093 175.466 34.3227 175.615 34.184C175.764 34.0453 175.967 33.976 176.223 33.976C176.479 33.976 176.682 34.0453 176.831 34.184C176.98 34.3227 177.055 34.5093 177.055 34.744C177.055 34.984 176.98 35.1787 176.831 35.328C176.682 35.472 176.479 35.544 176.223 35.544ZM175.599 45V37.336H176.847V45H175.599ZM183.197 45.192C182.455 45.192 181.837 45.088 181.341 44.88C180.845 44.6667 180.469 44.376 180.213 44.008C179.957 43.6347 179.821 43.208 179.805 42.728H181.005C181.031 43.2133 181.226 43.5787 181.589 43.824C181.957 44.064 182.455 44.184 183.085 44.184C183.415 44.184 183.719 44.1307 183.997 44.024C184.274 43.9173 184.495 43.7707 184.661 43.584C184.826 43.3973 184.909 43.1867 184.909 42.952C184.909 42.6533 184.799 42.4187 184.581 42.248C184.362 42.0773 184.013 41.928 183.533 41.8L182.045 41.32C181.399 41.1173 180.903 40.84 180.557 40.488C180.215 40.1307 180.045 39.704 180.045 39.208C180.045 38.5893 180.317 38.0933 180.861 37.72C181.405 37.3467 182.119 37.16 183.005 37.16C183.943 37.16 184.671 37.352 185.189 37.736C185.706 38.12 185.975 38.6 185.997 39.176H184.765C184.717 38.84 184.546 38.5867 184.253 38.416C183.959 38.24 183.543 38.152 183.005 38.152C182.487 38.152 182.082 38.2693 181.789 38.504C181.501 38.7333 181.357 38.9893 181.357 39.272C181.357 39.8 181.81 40.1893 182.717 40.44L184.237 40.952C184.893 41.1493 185.394 41.408 185.741 41.728C186.093 42.048 186.269 42.456 186.269 42.952C186.269 43.336 186.143 43.6987 185.893 44.04C185.642 44.3813 185.287 44.6587 184.829 44.872C184.37 45.0853 183.826 45.192 183.197 45.192ZM191.699 45.192C191.086 45.192 190.512 45.0267 189.979 44.696C189.451 44.3653 189.024 43.8987 188.699 43.296C188.374 42.6933 188.211 41.9813 188.211 41.16C188.211 40.3173 188.374 39.5973 188.699 39C189.024 38.4027 189.451 37.9467 189.979 37.632C190.512 37.3173 191.086 37.16 191.699 37.16C192.131 37.16 192.518 37.2267 192.859 37.36C193.206 37.488 193.507 37.6667 193.763 37.896C194.019 38.1253 194.23 38.3867 194.395 38.68C194.566 38.968 194.691 39.272 194.771 39.592L193.491 39.704C193.358 39.2613 193.134 38.912 192.819 38.656C192.51 38.3947 192.131 38.264 191.683 38.264C191.304 38.264 190.947 38.3733 190.611 38.592C190.28 38.8053 190.011 39.128 189.803 39.56C189.595 39.9867 189.491 40.52 189.491 41.16C189.491 41.752 189.584 42.2667 189.771 42.704C189.963 43.136 190.224 43.472 190.555 43.712C190.886 43.952 191.262 44.072 191.683 44.072C192.275 44.072 192.723 43.928 193.027 43.64C193.336 43.3467 193.491 42.9413 193.491 42.424H194.771C194.771 42.9573 194.646 43.432 194.395 43.848C194.144 44.264 193.787 44.592 193.323 44.832C192.864 45.072 192.323 45.192 191.699 45.192ZM202.621 37.336H203.869V45H202.621V37.336ZM197.197 37.336H198.445V42.104C198.445 42.744 198.6 43.2293 198.909 43.56C199.224 43.8907 199.672 44.056 200.253 44.056C200.733 44.056 201.149 43.928 201.501 43.672C201.858 43.416 202.133 43.064 202.325 42.616C202.522 42.1627 202.621 41.6453 202.621 41.064H203.085C203.085 41.9227 202.96 42.656 202.709 43.264C202.464 43.872 202.114 44.3387 201.661 44.664C201.213 44.984 200.685 45.144 200.077 45.144C199.501 45.144 198.997 45.0373 198.565 44.824C198.133 44.6107 197.797 44.288 197.557 43.856C197.317 43.4187 197.197 42.8667 197.197 42.2V37.336ZM207.972 35.544C207.716 35.544 207.514 35.472 207.364 35.328C207.215 35.1787 207.14 34.984 207.14 34.744C207.14 34.5093 207.215 34.3227 207.364 34.184C207.514 34.0453 207.716 33.976 207.972 33.976C208.228 33.976 208.431 34.0453 208.58 34.184C208.73 34.3227 208.804 34.5093 208.804 34.744C208.804 34.984 208.73 35.1787 208.58 35.328C208.431 35.472 208.228 35.544 207.972 35.544ZM207.348 45V37.336H208.596V45H207.348ZM214.546 45.192C214.13 45.192 213.757 45.112 213.426 44.952C213.095 44.792 212.834 44.552 212.642 44.232C212.45 43.912 212.354 43.512 212.354 43.032V35.224H213.586V43C213.586 43.7893 213.954 44.184 214.69 44.184C214.909 44.184 215.119 44.16 215.322 44.112C215.53 44.064 215.762 43.992 216.018 43.896L216.194 44.792C215.922 44.9093 215.65 45.0053 215.378 45.08C215.111 45.1547 214.834 45.192 214.546 45.192ZM211.122 38.216V37.352H216.002V38.216H211.122ZM221.122 45.192C220.38 45.192 219.762 45.088 219.266 44.88C218.77 44.6667 218.394 44.376 218.138 44.008C217.882 43.6347 217.746 43.208 217.73 42.728H218.93C218.956 43.2133 219.151 43.5787 219.514 43.824C219.882 44.064 220.38 44.184 221.01 44.184C221.34 44.184 221.644 44.1307 221.922 44.024C222.199 43.9173 222.42 43.7707 222.586 43.584C222.751 43.3973 222.834 43.1867 222.834 42.952C222.834 42.6533 222.724 42.4187 222.506 42.248C222.287 42.0773 221.938 41.928 221.458 41.8L219.97 41.32C219.324 41.1173 218.828 40.84 218.482 40.488C218.14 40.1307 217.97 39.704 217.97 39.208C217.97 38.5893 218.242 38.0933 218.786 37.72C219.33 37.3467 220.044 37.16 220.93 37.16C221.868 37.16 222.596 37.352 223.114 37.736C223.631 38.12 223.9 38.6 223.922 39.176H222.69C222.642 38.84 222.471 38.5867 222.178 38.416C221.884 38.24 221.468 38.152 220.93 38.152C220.412 38.152 220.007 38.2693 219.714 38.504C219.426 38.7333 219.282 38.9893 219.282 39.272C219.282 39.8 219.735 40.1893 220.642 40.44L222.162 40.952C222.818 41.1493 223.319 41.408 223.666 41.728C224.018 42.048 224.194 42.456 224.194 42.952C224.194 43.336 224.068 43.6987 223.818 44.04C223.567 44.3813 223.212 44.6587 222.754 44.872C222.295 45.0853 221.751 45.192 221.122 45.192ZM231.597 35.544C231.341 35.544 231.138 35.472 230.989 35.328C230.84 35.1787 230.765 34.984 230.765 34.744C230.765 34.5093 230.84 34.3227 230.989 34.184C231.138 34.0453 231.341 33.976 231.597 33.976C231.853 33.976 232.056 34.0453 232.205 34.184C232.354 34.3227 232.429 34.5093 232.429 34.744C232.429 34.984 232.354 35.1787 232.205 35.328C232.056 35.472 231.853 35.544 231.597 35.544ZM230.973 45V37.336H232.221V45H230.973ZM241.258 45V40.504C241.258 39.7733 241.082 39.2187 240.73 38.84C240.384 38.456 239.909 38.264 239.306 38.264C238.848 38.264 238.45 38.3893 238.114 38.64C237.778 38.8907 237.52 39.2507 237.338 39.72C237.157 40.184 237.066 40.7387 237.066 41.384H236.586C236.586 40.4933 236.704 39.7333 236.938 39.104C237.173 38.4747 237.514 37.9947 237.962 37.664C238.416 37.328 238.965 37.16 239.61 37.16C240.213 37.16 240.728 37.296 241.154 37.568C241.586 37.8347 241.917 38.2187 242.146 38.72C242.376 39.2213 242.49 39.816 242.49 40.504V45H241.258ZM235.818 45V37.352H236.89L237.066 39.112V45H235.818ZM34.352 65L34.192 63.32V60.04C34.192 59.352 34.0453 58.8587 33.752 58.56C33.4587 58.256 33.0187 58.104 32.432 58.104C32.1013 58.104 31.8 58.152 31.528 58.248C31.2613 58.344 31.048 58.4933 30.888 58.696C30.7333 58.8933 30.656 59.1493 30.656 59.464H29.264C29.264 58.9093 29.4 58.464 29.672 58.128C29.944 57.7867 30.3173 57.5413 30.792 57.392C31.272 57.2373 31.8187 57.16 32.432 57.16C33.0187 57.16 33.5387 57.2587 33.992 57.456C34.4453 57.6533 34.8 57.968 35.056 58.4C35.312 58.8267 35.44 59.384 35.44 60.072V65H34.352ZM31.744 65.192C31.1147 65.192 30.5947 65.08 30.184 64.856C29.7733 64.632 29.4667 64.3413 29.264 63.984C29.0613 63.6267 28.96 63.2507 28.96 62.856C28.96 62.3387 29.088 61.9173 29.344 61.592C29.6053 61.2667 29.96 61.0293 30.408 60.88C30.856 60.7253 31.36 60.648 31.92 60.648C32.32 60.648 32.72 60.688 33.12 60.768C33.5253 60.848 33.92 60.9573 34.304 61.096V61.88C33.984 61.752 33.6213 61.6507 33.216 61.576C32.816 61.5013 32.448 61.464 32.112 61.464C31.6 61.464 31.168 61.5707 30.816 61.784C30.464 61.992 30.288 62.3493 30.288 62.856C30.288 63.2293 30.4213 63.5493 30.688 63.816C30.96 64.0827 31.392 64.216 31.984 64.216C32.4 64.216 32.7733 64.12 33.104 63.928C33.44 63.7307 33.704 63.4853 33.896 63.192C34.0933 62.8987 34.192 62.6053 34.192 62.312H34.496C34.496 62.824 34.384 63.2987 34.16 63.736C33.9413 64.1733 33.6267 64.5253 33.216 64.792C32.8053 65.0587 32.3147 65.192 31.744 65.192ZM46.0174 65.192C45.4574 65.192 44.9694 65.064 44.5534 64.808C44.1427 64.552 43.8254 64.1787 43.6014 63.688C43.3774 63.192 43.2654 62.5893 43.2654 61.88H43.7934C43.7934 62.3547 43.892 62.7547 44.0894 63.08C44.2867 63.4053 44.5427 63.6533 44.8574 63.824C45.1774 63.9893 45.516 64.072 45.8734 64.072C46.2574 64.072 46.6254 63.9627 46.9774 63.744C47.3294 63.52 47.6174 63.192 47.8414 62.76C48.0654 62.328 48.1774 61.7947 48.1774 61.16C48.1774 60.552 48.0734 60.032 47.8654 59.6C47.6627 59.168 47.388 58.8373 47.0414 58.608C46.6947 58.3787 46.3107 58.264 45.8894 58.264C45.5267 58.264 45.1854 58.352 44.8654 58.528C44.5454 58.704 44.2867 58.9627 44.0894 59.304C43.892 59.64 43.7934 60.056 43.7934 60.552H43.2654C43.2654 59.8107 43.388 59.1893 43.6334 58.688C43.8787 58.1813 44.212 57.8 44.6334 57.544C45.0547 57.288 45.5267 57.16 46.0494 57.16C46.6467 57.16 47.204 57.32 47.7214 57.64C48.2387 57.96 48.6574 58.4187 48.9774 59.016C49.2974 59.6133 49.4574 60.328 49.4574 61.16C49.4574 62.0027 49.2947 62.7253 48.9694 63.328C48.6494 63.9307 48.228 64.392 47.7054 64.712C47.1827 65.032 46.62 65.192 46.0174 65.192ZM42.5454 68.76V57.352H43.5854L43.7934 59.144V68.76H42.5454ZM52.0647 65V54.088H53.3127V65H52.0647ZM61.4451 65L61.2851 63.32V60.04C61.2851 59.352 61.1385 58.8587 60.8451 58.56C60.5518 58.256 60.1118 58.104 59.5251 58.104C59.1945 58.104 58.8931 58.152 58.6211 58.248C58.3545 58.344 58.1411 58.4933 57.9811 58.696C57.8265 58.8933 57.7491 59.1493 57.7491 59.464H56.3571C56.3571 58.9093 56.4931 58.464 56.7651 58.128C57.0371 57.7867 57.4105 57.5413 57.8851 57.392C58.3651 57.2373 58.9118 57.16 59.5251 57.16C60.1118 57.16 60.6318 57.2587 61.0851 57.456C61.5385 57.6533 61.8931 57.968 62.1491 58.4C62.4051 58.8267 62.5331 59.384 62.5331 60.072V65H61.4451ZM58.8371 65.192C58.2078 65.192 57.6878 65.08 57.2771 64.856C56.8665 64.632 56.5598 64.3413 56.3571 63.984C56.1545 63.6267 56.0531 63.2507 56.0531 62.856C56.0531 62.3387 56.1811 61.9173 56.4371 61.592C56.6985 61.2667 57.0531 61.0293 57.5011 60.88C57.9491 60.7253 58.4531 60.648 59.0131 60.648C59.4131 60.648 59.8131 60.688 60.2131 60.768C60.6185 60.848 61.0131 60.9573 61.3971 61.096V61.88C61.0771 61.752 60.7145 61.6507 60.3091 61.576C59.9091 61.5013 59.5411 61.464 59.2051 61.464C58.6931 61.464 58.2611 61.5707 57.9091 61.784C57.5571 61.992 57.3811 62.3493 57.3811 62.856C57.3811 63.2293 57.5145 63.5493 57.7811 63.816C58.0531 64.0827 58.4851 64.216 59.0771 64.216C59.4931 64.216 59.8665 64.12 60.1971 63.928C60.5331 63.7307 60.7971 63.4853 60.9891 63.192C61.1865 62.8987 61.2851 62.6053 61.2851 62.312H61.5891C61.5891 62.824 61.4771 63.2987 61.2531 63.736C61.0345 64.1733 60.7198 64.5253 60.3091 64.792C59.8985 65.0587 59.4078 65.192 58.8371 65.192ZM68.4336 65.192C67.6923 65.192 67.0736 65.088 66.5776 64.88C66.0816 64.6667 65.7056 64.376 65.4496 64.008C65.1936 63.6347 65.0576 63.208 65.0416 62.728H66.2416C66.2683 63.2133 66.463 63.5787 66.8256 63.824C67.1936 64.064 67.6923 64.184 68.3216 64.184C68.6523 64.184 68.9563 64.1307 69.2336 64.024C69.511 63.9173 69.7323 63.7707 69.8976 63.584C70.063 63.3973 70.1456 63.1867 70.1456 62.952C70.1456 62.6533 70.0363 62.4187 69.8176 62.248C69.599 62.0773 69.2496 61.928 68.7696 61.8L67.2816 61.32C66.6363 61.1173 66.1403 60.84 65.7936 60.488C65.4523 60.1307 65.2816 59.704 65.2816 59.208C65.2816 58.5893 65.5536 58.0933 66.0976 57.72C66.6416 57.3467 67.3563 57.16 68.2416 57.16C69.1803 57.16 69.9083 57.352 70.4256 57.736C70.943 58.12 71.2123 58.6 71.2336 59.176H70.0016C69.9536 58.84 69.783 58.5867 69.4896 58.416C69.1963 58.24 68.7803 58.152 68.2416 58.152C67.7243 58.152 67.319 58.2693 67.0256 58.504C66.7376 58.7333 66.5936 58.9893 66.5936 59.272C66.5936 59.8 67.047 60.1893 67.9536 60.44L69.4736 60.952C70.1296 61.1493 70.631 61.408 70.9776 61.728C71.3296 62.048 71.5056 62.456 71.5056 62.952C71.5056 63.336 71.3803 63.6987 71.1296 64.04C70.879 64.3813 70.5243 64.6587 70.0656 64.872C69.607 65.0853 69.063 65.192 68.4336 65.192ZM76.5999 65.192C76.1839 65.192 75.8105 65.112 75.4799 64.952C75.1492 64.792 74.8879 64.552 74.6959 64.232C74.5039 63.912 74.4079 63.512 74.4079 63.032V55.224H75.6399V63C75.6399 63.7893 76.0079 64.184 76.7439 64.184C76.9625 64.184 77.1732 64.16 77.3759 64.112C77.5839 64.064 77.8159 63.992 78.0719 63.896L78.2479 64.792C77.9759 64.9093 77.7039 65.0053 77.4319 65.08C77.1652 65.1547 76.8879 65.192 76.5999 65.192ZM73.1759 58.216V57.352H78.0559V58.216H73.1759ZM81.1275 55.544C80.8715 55.544 80.6688 55.472 80.5195 55.328C80.3702 55.1787 80.2955 54.984 80.2955 54.744C80.2955 54.5093 80.3702 54.3227 80.5195 54.184C80.6688 54.0453 80.8715 53.976 81.1275 53.976C81.3835 53.976 81.5862 54.0453 81.7355 54.184C81.8848 54.3227 81.9595 54.5093 81.9595 54.744C81.9595 54.984 81.8848 55.1787 81.7355 55.328C81.5862 55.472 81.3835 55.544 81.1275 55.544ZM80.5035 65V57.336H81.7515V65H80.5035ZM88.0371 65.192C87.4238 65.192 86.8505 65.0267 86.3171 64.696C85.7891 64.3653 85.3625 63.8987 85.0371 63.296C84.7118 62.6933 84.5491 61.9813 84.5491 61.16C84.5491 60.3173 84.7118 59.5973 85.0371 59C85.3625 58.4027 85.7891 57.9467 86.3171 57.632C86.8505 57.3173 87.4238 57.16 88.0371 57.16C88.4691 57.16 88.8558 57.2267 89.1971 57.36C89.5438 57.488 89.8451 57.6667 90.1011 57.896C90.3571 58.1253 90.5678 58.3867 90.7331 58.68C90.9038 58.968 91.0291 59.272 91.1091 59.592L89.8291 59.704C89.6958 59.2613 89.4718 58.912 89.1571 58.656C88.8478 58.3947 88.4691 58.264 88.0211 58.264C87.6425 58.264 87.2851 58.3733 86.9491 58.592C86.6185 58.8053 86.3491 59.128 86.1411 59.56C85.9331 59.9867 85.8291 60.52 85.8291 61.16C85.8291 61.752 85.9225 62.2667 86.1091 62.704C86.3011 63.136 86.5625 63.472 86.8931 63.712C87.2238 63.952 87.5998 64.072 88.0211 64.072C88.6131 64.072 89.0611 63.928 89.3651 63.64C89.6745 63.3467 89.8291 62.9413 89.8291 62.424H91.1091C91.1091 62.9573 90.9838 63.432 90.7331 63.848C90.4825 64.264 90.1251 64.592 89.6611 64.832C89.2025 65.072 88.6611 65.192 88.0371 65.192ZM98.132 65V56.168C98.132 55.6613 98.228 55.248 98.42 54.928C98.6173 54.6027 98.8787 54.3627 99.204 54.208C99.5347 54.0533 99.9027 53.976 100.308 53.976C100.527 53.976 100.748 53.992 100.972 54.024C101.201 54.056 101.428 54.104 101.652 54.168L101.412 55.16C101.252 55.096 101.092 55.048 100.932 55.016C100.777 54.984 100.628 54.968 100.484 54.968C100.313 54.968 100.143 55 99.972 55.064C99.8013 55.128 99.66 55.248 99.548 55.424C99.436 55.6 99.38 55.8533 99.38 56.184V65H98.132ZM96.884 58.216V57.352H100.964V58.216H96.884ZM106.128 65.192C105.44 65.192 104.827 65.04 104.288 64.736C103.755 64.432 103.334 63.9813 103.024 63.384C102.715 62.7867 102.56 62.0507 102.56 61.176C102.56 60.296 102.715 59.56 103.024 58.968C103.334 58.3707 103.755 57.92 104.288 57.616C104.827 57.312 105.44 57.16 106.128 57.16C106.811 57.16 107.419 57.312 107.952 57.616C108.491 57.92 108.912 58.3707 109.216 58.968C109.526 59.56 109.68 60.296 109.68 61.176C109.68 62.0507 109.526 62.7867 109.216 63.384C108.912 63.9813 108.491 64.432 107.952 64.736C107.419 65.04 106.811 65.192 106.128 65.192ZM106.096 64.104C106.592 64.104 107.014 63.9867 107.36 63.752C107.707 63.512 107.968 63.1733 108.144 62.736C108.326 62.2987 108.416 61.7787 108.416 61.176C108.416 60.264 108.227 59.5467 107.848 59.024C107.47 58.496 106.907 58.232 106.16 58.232C105.659 58.232 105.235 58.352 104.888 58.592C104.547 58.8267 104.286 59.1653 104.104 59.608C103.928 60.0453 103.84 60.568 103.84 61.176C103.84 62.0773 104.03 62.792 104.408 63.32C104.792 63.8427 105.355 64.104 106.096 64.104ZM115.038 65.192C114.35 65.192 113.737 65.04 113.198 64.736C112.665 64.432 112.244 63.9813 111.934 63.384C111.625 62.7867 111.47 62.0507 111.47 61.176C111.47 60.296 111.625 59.56 111.934 58.968C112.244 58.3707 112.665 57.92 113.198 57.616C113.737 57.312 114.35 57.16 115.038 57.16C115.721 57.16 116.329 57.312 116.862 57.616C117.401 57.92 117.822 58.3707 118.126 58.968C118.436 59.56 118.59 60.296 118.59 61.176C118.59 62.0507 118.436 62.7867 118.126 63.384C117.822 63.9813 117.401 64.432 116.862 64.736C116.329 65.04 115.721 65.192 115.038 65.192ZM115.006 64.104C115.502 64.104 115.924 63.9867 116.27 63.752C116.617 63.512 116.878 63.1733 117.054 62.736C117.236 62.2987 117.326 61.7787 117.326 61.176C117.326 60.264 117.137 59.5467 116.758 59.024C116.38 58.496 115.817 58.232 115.07 58.232C114.569 58.232 114.145 58.352 113.798 58.592C113.457 58.8267 113.196 59.1653 113.014 59.608C112.838 60.0453 112.75 60.568 112.75 61.176C112.75 62.0773 112.94 62.792 113.318 63.32C113.702 63.8427 114.265 64.104 115.006 64.104ZM123.916 65.192C123.298 65.192 122.73 65.0267 122.212 64.696C121.695 64.36 121.282 63.8907 120.972 63.288C120.663 62.68 120.508 61.9653 120.508 61.144C120.508 60.328 120.66 59.6213 120.964 59.024C121.268 58.4267 121.671 57.968 122.172 57.648C122.679 57.3227 123.234 57.16 123.836 57.16C124.396 57.16 124.887 57.296 125.308 57.568C125.735 57.84 126.066 58.232 126.3 58.744C126.535 59.256 126.652 59.8747 126.652 60.6H126.172C126.172 60.0933 126.071 59.6667 125.868 59.32C125.671 58.9733 125.412 58.712 125.092 58.536C124.772 58.3547 124.428 58.264 124.06 58.264C123.644 58.264 123.263 58.3813 122.916 58.616C122.575 58.8453 122.3 59.176 122.092 59.608C121.89 60.0347 121.788 60.5467 121.788 61.144C121.788 61.752 121.89 62.2747 122.092 62.712C122.3 63.1493 122.575 63.4853 122.916 63.72C123.263 63.9547 123.644 64.072 124.06 64.072C124.407 64.072 124.74 63.9813 125.06 63.8C125.386 63.6187 125.652 63.3547 125.86 63.008C126.068 62.656 126.172 62.232 126.172 61.736H126.652C126.652 62.4773 126.53 63.1067 126.284 63.624C126.044 64.136 125.716 64.5253 125.3 64.792C124.89 65.0587 124.428 65.192 123.916 65.192ZM126.38 65L126.172 63.208V54.088H127.42V65H126.38ZM138.286 65.192C137.774 65.192 137.31 65.0587 136.894 64.792C136.483 64.5253 136.155 64.136 135.91 63.624C135.67 63.1067 135.55 62.4773 135.55 61.736H136.03C136.03 62.232 136.131 62.656 136.334 63.008C136.542 63.3547 136.808 63.6187 137.134 63.8C137.459 63.9813 137.8 64.072 138.158 64.072C138.568 64.072 138.944 63.9547 139.286 63.72C139.627 63.4853 139.899 63.1493 140.102 62.712C140.31 62.2747 140.414 61.752 140.414 61.144C140.414 60.5467 140.312 60.0347 140.11 59.608C139.907 59.176 139.632 58.8453 139.286 58.616C138.944 58.3813 138.563 58.264 138.142 58.264C137.779 58.264 137.435 58.3547 137.11 58.536C136.79 58.712 136.528 58.9733 136.326 59.32C136.128 59.6667 136.03 60.0933 136.03 60.6H135.55C135.55 59.8747 135.667 59.256 135.902 58.744C136.142 58.232 136.472 57.84 136.894 57.568C137.315 57.296 137.806 57.16 138.366 57.16C138.968 57.16 139.52 57.3227 140.022 57.648C140.528 57.968 140.934 58.4267 141.238 59.024C141.542 59.6213 141.694 60.328 141.694 61.144C141.694 61.9653 141.539 62.68 141.23 63.288C140.92 63.8907 140.507 64.36 139.99 64.696C139.472 65.0267 138.904 65.192 138.286 65.192ZM134.782 65V54.088H136.03V63.208L135.662 65H134.782ZM149.162 65L149.002 63.32V60.04C149.002 59.352 148.855 58.8587 148.562 58.56C148.269 58.256 147.829 58.104 147.242 58.104C146.911 58.104 146.61 58.152 146.338 58.248C146.071 58.344 145.858 58.4933 145.698 58.696C145.543 58.8933 145.466 59.1493 145.466 59.464H144.074C144.074 58.9093 144.21 58.464 144.482 58.128C144.754 57.7867 145.127 57.5413 145.602 57.392C146.082 57.2373 146.629 57.16 147.242 57.16C147.829 57.16 148.349 57.2587 148.802 57.456C149.255 57.6533 149.61 57.968 149.866 58.4C150.122 58.8267 150.25 59.384 150.25 60.072V65H149.162ZM146.554 65.192C145.925 65.192 145.405 65.08 144.994 64.856C144.583 64.632 144.277 64.3413 144.074 63.984C143.871 63.6267 143.77 63.2507 143.77 62.856C143.77 62.3387 143.898 61.9173 144.154 61.592C144.415 61.2667 144.77 61.0293 145.218 60.88C145.666 60.7253 146.17 60.648 146.73 60.648C147.13 60.648 147.53 60.688 147.93 60.768C148.335 60.848 148.73 60.9573 149.114 61.096V61.88C148.794 61.752 148.431 61.6507 148.026 61.576C147.626 61.5013 147.258 61.464 146.922 61.464C146.41 61.464 145.978 61.5707 145.626 61.784C145.274 61.992 145.098 62.3493 145.098 62.856C145.098 63.2293 145.231 63.5493 145.498 63.816C145.77 64.0827 146.202 64.216 146.794 64.216C147.21 64.216 147.583 64.12 147.914 63.928C148.25 63.7307 148.514 63.4853 148.706 63.192C148.903 62.8987 149.002 62.6053 149.002 62.312H149.306C149.306 62.824 149.194 63.2987 148.97 63.736C148.751 64.1733 148.437 64.5253 148.026 64.792C147.615 65.0587 147.125 65.192 146.554 65.192ZM156.103 68.936C155.319 68.936 154.639 68.824 154.063 68.6C153.487 68.3813 153.039 68.0853 152.719 67.712C152.404 67.344 152.247 66.936 152.247 66.488C152.247 65.896 152.463 65.4427 152.895 65.128C153.332 64.8187 153.895 64.664 154.583 64.664L155.271 65.096C154.695 65.096 154.249 65.216 153.935 65.456C153.62 65.696 153.463 66.024 153.463 66.44C153.463 66.856 153.687 67.208 154.135 67.496C154.583 67.784 155.239 67.928 156.103 67.928C156.743 67.928 157.303 67.8347 157.783 67.648C158.268 67.4667 158.644 67.2267 158.911 66.928C159.183 66.6347 159.319 66.3173 159.319 65.976C159.319 65.736 159.231 65.528 159.055 65.352C158.879 65.1813 158.609 65.096 158.247 65.096H155.271C154.753 65.096 154.305 65.0187 153.927 64.864C153.553 64.704 153.265 64.496 153.063 64.24C152.86 63.984 152.759 63.704 152.759 63.4C152.759 63.08 152.849 62.808 153.031 62.584C153.212 62.36 153.447 62.1893 153.735 62.072C154.028 61.9547 154.343 61.896 154.679 61.896L154.919 62.36C154.759 62.36 154.596 62.3973 154.431 62.472C154.271 62.5413 154.135 62.648 154.023 62.792C153.916 62.9307 153.863 63.1067 153.863 63.32C153.863 63.5653 153.964 63.7707 154.167 63.936C154.369 64.1013 154.737 64.184 155.271 64.184H158.247C158.967 64.184 159.532 64.336 159.943 64.64C160.359 64.944 160.567 65.368 160.567 65.912C160.567 66.4133 160.388 66.8933 160.031 67.352C159.673 67.816 159.161 68.1947 158.495 68.488C157.828 68.7867 157.031 68.936 156.103 68.936ZM156.327 62.76C155.74 62.76 155.209 62.6427 154.735 62.408C154.265 62.1733 153.892 61.8453 153.615 61.424C153.343 61.0027 153.207 60.5147 153.207 59.96C153.207 59.4 153.343 58.9093 153.615 58.488C153.892 58.0667 154.265 57.7413 154.735 57.512C155.209 57.2773 155.74 57.16 156.327 57.16C156.897 57.16 157.415 57.2773 157.879 57.512C158.348 57.7413 158.721 58.0667 158.999 58.488C159.276 58.9093 159.415 59.4 159.415 59.96C159.415 60.5147 159.276 61.0027 158.999 61.424C158.721 61.8453 158.348 62.1733 157.879 62.408C157.415 62.6427 156.897 62.76 156.327 62.76ZM156.327 61.864C156.913 61.864 157.369 61.6827 157.695 61.32C158.02 60.9573 158.183 60.504 158.183 59.96C158.183 59.4 158.02 58.9467 157.695 58.6C157.369 58.248 156.913 58.072 156.327 58.072C155.745 58.072 155.287 58.248 154.951 58.6C154.62 58.9467 154.455 59.4 154.455 59.96C154.455 60.504 154.62 60.9573 154.951 61.32C155.287 61.6827 155.745 61.864 156.327 61.864ZM158.839 58.376L158.247 58.136C158.247 57.688 158.335 57.296 158.511 56.96C158.687 56.6187 158.937 56.3547 159.263 56.168C159.588 55.976 159.975 55.88 160.423 55.88L160.327 57.112C159.847 57.112 159.479 57.216 159.223 57.424C158.967 57.6267 158.839 57.944 158.839 58.376ZM171.283 65L171.123 63.32V60.04C171.123 59.352 170.976 58.8587 170.683 58.56C170.389 58.256 169.949 58.104 169.363 58.104C169.032 58.104 168.731 58.152 168.459 58.248C168.192 58.344 167.979 58.4933 167.819 58.696C167.664 58.8933 167.587 59.1493 167.587 59.464H166.195C166.195 58.9093 166.331 58.464 166.603 58.128C166.875 57.7867 167.248 57.5413 167.723 57.392C168.203 57.2373 168.749 57.16 169.363 57.16C169.949 57.16 170.469 57.2587 170.923 57.456C171.376 57.6533 171.731 57.968 171.987 58.4C172.243 58.8267 172.371 59.384 172.371 60.072V65H171.283ZM168.675 65.192C168.045 65.192 167.525 65.08 167.115 64.856C166.704 64.632 166.397 64.3413 166.195 63.984C165.992 63.6267 165.891 63.2507 165.891 62.856C165.891 62.3387 166.019 61.9173 166.275 61.592C166.536 61.2667 166.891 61.0293 167.339 60.88C167.787 60.7253 168.291 60.648 168.851 60.648C169.251 60.648 169.651 60.688 170.051 60.768C170.456 60.848 170.851 60.9573 171.235 61.096V61.88C170.915 61.752 170.552 61.6507 170.147 61.576C169.747 61.5013 169.379 61.464 169.043 61.464C168.531 61.464 168.099 61.5707 167.747 61.784C167.395 61.992 167.219 62.3493 167.219 62.856C167.219 63.2293 167.352 63.5493 167.619 63.816C167.891 64.0827 168.323 64.216 168.915 64.216C169.331 64.216 169.704 64.12 170.035 63.928C170.371 63.7307 170.635 63.4853 170.827 63.192C171.024 62.8987 171.123 62.6053 171.123 62.312H171.427C171.427 62.824 171.315 63.2987 171.091 63.736C170.872 64.1733 170.557 64.5253 170.147 64.792C169.736 65.0587 169.245 65.192 168.675 65.192ZM180.959 65V60.504C180.959 59.7733 180.783 59.2187 180.431 58.84C180.084 58.456 179.61 58.264 179.007 58.264C178.548 58.264 178.151 58.3893 177.815 58.64C177.479 58.8907 177.22 59.2507 177.039 59.72C176.858 60.184 176.767 60.7387 176.767 61.384H176.287C176.287 60.4933 176.404 59.7333 176.639 59.104C176.874 58.4747 177.215 57.9947 177.663 57.664C178.116 57.328 178.666 57.16 179.311 57.16C179.914 57.16 180.428 57.296 180.855 57.568C181.287 57.8347 181.618 58.2187 181.847 58.72C182.076 59.2213 182.191 59.816 182.191 60.504V65H180.959ZM175.519 65V57.352H176.591L176.767 59.112V65H175.519ZM188.071 65.192C187.453 65.192 186.885 65.0267 186.367 64.696C185.85 64.36 185.437 63.8907 185.127 63.288C184.818 62.68 184.663 61.9653 184.663 61.144C184.663 60.328 184.815 59.6213 185.119 59.024C185.423 58.4267 185.826 57.968 186.327 57.648C186.834 57.3227 187.389 57.16 187.991 57.16C188.551 57.16 189.042 57.296 189.463 57.568C189.89 57.84 190.221 58.232 190.455 58.744C190.69 59.256 190.807 59.8747 190.807 60.6H190.327C190.327 60.0933 190.226 59.6667 190.023 59.32C189.826 58.9733 189.567 58.712 189.247 58.536C188.927 58.3547 188.583 58.264 188.215 58.264C187.799 58.264 187.418 58.3813 187.071 58.616C186.73 58.8453 186.455 59.176 186.247 59.608C186.045 60.0347 185.943 60.5467 185.943 61.144C185.943 61.752 186.045 62.2747 186.247 62.712C186.455 63.1493 186.73 63.4853 187.071 63.72C187.418 63.9547 187.799 64.072 188.215 64.072C188.562 64.072 188.895 63.9813 189.215 63.8C189.541 63.6187 189.807 63.3547 190.015 63.008C190.223 62.656 190.327 62.232 190.327 61.736H190.807C190.807 62.4773 190.685 63.1067 190.439 63.624C190.199 64.136 189.871 64.5253 189.455 64.792C189.045 65.0587 188.583 65.192 188.071 65.192ZM190.535 65L190.327 63.208V54.088H191.575V65H190.535ZM201.625 65.192C201.011 65.192 200.438 65.0267 199.905 64.696C199.377 64.3653 198.95 63.8987 198.625 63.296C198.299 62.6933 198.137 61.9813 198.137 61.16C198.137 60.3173 198.299 59.5973 198.625 59C198.95 58.4027 199.377 57.9467 199.905 57.632C200.438 57.3173 201.011 57.16 201.625 57.16C202.057 57.16 202.443 57.2267 202.785 57.36C203.131 57.488 203.433 57.6667 203.689 57.896C203.945 58.1253 204.155 58.3867 204.321 58.68C204.491 58.968 204.617 59.272 204.697 59.592L203.417 59.704C203.283 59.2613 203.059 58.912 202.745 58.656C202.435 58.3947 202.057 58.264 201.609 58.264C201.23 58.264 200.873 58.3733 200.537 58.592C200.206 58.8053 199.937 59.128 199.729 59.56C199.521 59.9867 199.417 60.52 199.417 61.16C199.417 61.752 199.51 62.2667 199.697 62.704C199.889 63.136 200.15 63.472 200.481 63.712C200.811 63.952 201.187 64.072 201.609 64.072C202.201 64.072 202.649 63.928 202.953 63.64C203.262 63.3467 203.417 62.9413 203.417 62.424H204.697C204.697 62.9573 204.571 63.432 204.321 63.848C204.07 64.264 203.713 64.592 203.249 64.832C202.79 65.072 202.249 65.192 201.625 65.192ZM207.347 65V57.336H208.595V65H207.347ZM208.211 61.544C208.211 60.5733 208.304 59.768 208.491 59.128C208.677 58.4827 208.949 58.0027 209.307 57.688C209.669 57.368 210.109 57.208 210.627 57.208C210.797 57.208 210.952 57.2213 211.091 57.248C211.235 57.2693 211.379 57.304 211.523 57.352L211.443 58.584C211.293 58.536 211.131 58.496 210.955 58.464C210.779 58.4267 210.621 58.408 210.483 58.408C210.029 58.408 209.664 58.5387 209.387 58.8C209.109 59.056 208.907 59.4187 208.779 59.888C208.656 60.3573 208.595 60.9093 208.595 61.544H208.211ZM218.488 57.336H219.736V65H218.488V57.336ZM213.064 57.336H214.312V62.104C214.312 62.744 214.467 63.2293 214.776 63.56C215.091 63.8907 215.539 64.056 216.12 64.056C216.6 64.056 217.016 63.928 217.368 63.672C217.725 63.416 218 63.064 218.192 62.616C218.389 62.1627 218.488 61.6453 218.488 61.064H218.952C218.952 61.9227 218.827 62.656 218.576 63.264C218.331 63.872 217.981 64.3387 217.528 64.664C217.08 64.984 216.552 65.144 215.944 65.144C215.368 65.144 214.864 65.0373 214.432 64.824C214 64.6107 213.664 64.288 213.424 63.856C213.184 63.4187 213.064 62.8667 213.064 62.2V57.336ZM225.887 65.192C225.146 65.192 224.527 65.088 224.031 64.88C223.535 64.6667 223.159 64.376 222.903 64.008C222.647 63.6347 222.511 63.208 222.495 62.728H223.695C223.722 63.2133 223.917 63.5787 224.279 63.824C224.647 64.064 225.146 64.184 225.775 64.184C226.106 64.184 226.41 64.1307 226.687 64.024C226.965 63.9173 227.186 63.7707 227.351 63.584C227.517 63.3973 227.599 63.1867 227.599 62.952C227.599 62.6533 227.49 62.4187 227.271 62.248C227.053 62.0773 226.703 61.928 226.223 61.8L224.735 61.32C224.09 61.1173 223.594 60.84 223.247 60.488C222.906 60.1307 222.735 59.704 222.735 59.208C222.735 58.5893 223.007 58.0933 223.551 57.72C224.095 57.3467 224.81 57.16 225.695 57.16C226.634 57.16 227.362 57.352 227.879 57.736C228.397 58.12 228.666 58.6 228.687 59.176H227.455C227.407 58.84 227.237 58.5867 226.943 58.416C226.65 58.24 226.234 58.152 225.695 58.152C225.178 58.152 224.773 58.2693 224.479 58.504C224.191 58.7333 224.047 58.9893 224.047 59.272C224.047 59.8 224.501 60.1893 225.407 60.44L226.927 60.952C227.583 61.1493 228.085 61.408 228.431 61.728C228.783 62.048 228.959 62.456 228.959 62.952C228.959 63.336 228.834 63.6987 228.583 64.04C228.333 64.3813 227.978 64.6587 227.519 64.872C227.061 65.0853 226.517 65.192 225.887 65.192ZM237.142 65V60.504C237.142 59.7733 236.966 59.2187 236.614 58.84C236.267 58.456 235.792 58.264 235.19 58.264C234.731 58.264 234.334 58.3893 233.998 58.64C233.662 58.8907 233.403 59.2507 233.222 59.72C233.04 60.184 232.95 60.7387 232.95 61.384H232.47C232.47 60.4933 232.587 59.7333 232.822 59.104C233.056 58.4747 233.398 57.9947 233.846 57.664C234.299 57.328 234.848 57.16 235.494 57.16C236.096 57.16 236.611 57.296 237.038 57.568C237.47 57.8347 237.8 58.2187 238.03 58.72C238.259 59.2213 238.374 59.816 238.374 60.504V65H237.142ZM231.702 65V54.088H232.95V65H231.702ZM31.968 85.192C31.552 85.192 31.1787 85.112 30.848 84.952C30.5173 84.792 30.256 84.552 30.064 84.232C29.872 83.912 29.776 83.512 29.776 83.032V75.224H31.008V83C31.008 83.7893 31.376 84.184 32.112 84.184C32.3307 84.184 32.5413 84.16 32.744 84.112C32.952 84.064 33.184 83.992 33.44 83.896L33.616 84.792C33.344 84.9093 33.072 85.0053 32.8 85.08C32.5333 85.1547 32.256 85.192 31.968 85.192ZM28.544 78.216V77.352H33.424V78.216H28.544ZM38.5596 85.192C37.8716 85.192 37.2583 85.04 36.7196 84.736C36.1863 84.432 35.765 83.9813 35.4556 83.384C35.1463 82.7867 34.9916 82.0507 34.9916 81.176C34.9916 80.296 35.1463 79.56 35.4556 78.968C35.765 78.3707 36.1863 77.92 36.7196 77.616C37.2583 77.312 37.8716 77.16 38.5596 77.16C39.2423 77.16 39.8503 77.312 40.3836 77.616C40.9223 77.92 41.3436 78.3707 41.6476 78.968C41.957 79.56 42.1116 80.296 42.1116 81.176C42.1116 82.0507 41.957 82.7867 41.6476 83.384C41.3436 83.9813 40.9223 84.432 40.3836 84.736C39.8503 85.04 39.2423 85.192 38.5596 85.192ZM38.5276 84.104C39.0236 84.104 39.445 83.9867 39.7916 83.752C40.1383 83.512 40.3996 83.1733 40.5756 82.736C40.757 82.2987 40.8476 81.7787 40.8476 81.176C40.8476 80.264 40.6583 79.5467 40.2796 79.024C39.901 78.496 39.3383 78.232 38.5916 78.232C38.0903 78.232 37.6663 78.352 37.3196 78.592C36.9783 78.8267 36.717 79.1653 36.5356 79.608C36.3596 80.0453 36.2716 80.568 36.2716 81.176C36.2716 82.0773 36.461 82.792 36.8396 83.32C37.2236 83.8427 37.7863 84.104 38.5276 84.104ZM51.3465 85.192C50.7332 85.192 50.1598 85.0267 49.6265 84.696C49.0985 84.3653 48.6718 83.8987 48.3465 83.296C48.0212 82.6933 47.8585 81.9813 47.8585 81.16C47.8585 80.3173 48.0212 79.5973 48.3465 79C48.6718 78.4027 49.0985 77.9467 49.6265 77.632C50.1598 77.3173 50.7332 77.16 51.3465 77.16C51.7785 77.16 52.1652 77.2267 52.5065 77.36C52.8532 77.488 53.1545 77.6667 53.4105 77.896C53.6665 78.1253 53.8772 78.3867 54.0425 78.68C54.2132 78.968 54.3385 79.272 54.4185 79.592L53.1385 79.704C53.0052 79.2613 52.7812 78.912 52.4665 78.656C52.1572 78.3947 51.7785 78.264 51.3305 78.264C50.9518 78.264 50.5945 78.3733 50.2585 78.592C49.9278 78.8053 49.6585 79.128 49.4505 79.56C49.2425 79.9867 49.1385 80.52 49.1385 81.16C49.1385 81.752 49.2318 82.2667 49.4185 82.704C49.6105 83.136 49.8718 83.472 50.2025 83.712C50.5332 83.952 50.9092 84.072 51.3305 84.072C51.9225 84.072 52.3705 83.928 52.6745 83.64C52.9838 83.3467 53.1385 82.9413 53.1385 82.424H54.4185C54.4185 82.9573 54.2932 83.432 54.0425 83.848C53.7918 84.264 53.4345 84.592 52.9705 84.832C52.5118 85.072 51.9705 85.192 51.3465 85.192ZM57.0685 85V77.336H58.3165V85H57.0685ZM57.9325 81.544C57.9325 80.5733 58.0258 79.768 58.2125 79.128C58.3992 78.4827 58.6712 78.0027 59.0285 77.688C59.3912 77.368 59.8312 77.208 60.3485 77.208C60.5192 77.208 60.6738 77.2213 60.8125 77.248C60.9565 77.2693 61.1005 77.304 61.2445 77.352L61.1645 78.584C61.0152 78.536 60.8525 78.496 60.6765 78.464C60.5005 78.4267 60.3432 78.408 60.2045 78.408C59.7512 78.408 59.3858 78.5387 59.1085 78.8C58.8312 79.056 58.6285 79.4187 58.5005 79.888C58.3778 80.3573 58.3165 80.9093 58.3165 81.544H57.9325ZM68.2097 77.336H69.4577V85H68.2097V77.336ZM62.7857 77.336H64.0337V82.104C64.0337 82.744 64.1884 83.2293 64.4977 83.56C64.8124 83.8907 65.2604 84.056 65.8417 84.056C66.3217 84.056 66.7377 83.928 67.0897 83.672C67.4471 83.416 67.7217 83.064 67.9137 82.616C68.1111 82.1627 68.2097 81.6453 68.2097 81.064H68.6737C68.6737 81.9227 68.5484 82.656 68.2977 83.264C68.0524 83.872 67.7031 84.3387 67.2497 84.664C66.8017 84.984 66.2737 85.144 65.6657 85.144C65.0897 85.144 64.5857 85.0373 64.1537 84.824C63.7217 84.6107 63.3857 84.288 63.1457 83.856C62.9057 83.4187 62.7857 82.8667 62.7857 82.2V77.336ZM83.6093 85V80.504C83.6093 79.7733 83.4332 79.2187 83.0812 78.84C82.7346 78.456 82.2652 78.264 81.6732 78.264C80.9799 78.264 80.4492 78.5333 80.0812 79.072C79.7132 79.6053 79.5292 80.344 79.5292 81.288H78.9532C78.9532 80.6 79.0199 79.9973 79.1532 79.48C79.2919 78.9627 79.4919 78.5333 79.7532 78.192C80.0146 77.8453 80.3319 77.5867 80.7052 77.416C81.0786 77.2453 81.5026 77.16 81.9772 77.16C82.5799 77.16 83.0946 77.296 83.5212 77.568C83.9532 77.8347 84.2839 78.2187 84.5132 78.72C84.7426 79.2213 84.8572 79.816 84.8572 80.504V85H83.6093ZM72.8572 85V77.352H73.9292L74.0732 78.888C74.3132 78.3333 74.6492 77.9067 75.0812 77.608C75.5186 77.3093 76.0412 77.16 76.6492 77.16C77.2519 77.16 77.7666 77.296 78.1932 77.568C78.6252 77.8347 78.9559 78.2187 79.1852 78.72C79.4146 79.2213 79.5292 79.816 79.5292 80.504V85H78.2972V80.504C78.2972 79.7733 78.1212 79.2187 77.7692 78.84C77.4226 78.456 76.9479 78.264 76.3452 78.264C75.8866 78.264 75.4892 78.3893 75.1532 78.64C74.8172 78.8907 74.5586 79.2507 74.3772 79.72C74.1959 80.184 74.1052 80.7387 74.1052 81.384V85H72.8572ZM91.49 85.192C90.978 85.192 90.514 85.0587 90.098 84.792C89.6873 84.5253 89.3593 84.136 89.114 83.624C88.874 83.1067 88.754 82.4773 88.754 81.736H89.234C89.234 82.232 89.3353 82.656 89.538 83.008C89.746 83.3547 90.0127 83.6187 90.338 83.8C90.6633 83.9813 91.0047 84.072 91.362 84.072C91.7727 84.072 92.1487 83.9547 92.49 83.72C92.8313 83.4853 93.1033 83.1493 93.306 82.712C93.514 82.2747 93.618 81.752 93.618 81.144C93.618 80.5467 93.5167 80.0347 93.314 79.608C93.1113 79.176 92.8367 78.8453 92.49 78.616C92.1487 78.3813 91.7673 78.264 91.346 78.264C90.9833 78.264 90.6393 78.3547 90.314 78.536C89.994 78.712 89.7327 78.9733 89.53 79.32C89.3327 79.6667 89.234 80.0933 89.234 80.6H88.754C88.754 79.8747 88.8713 79.256 89.106 78.744C89.346 78.232 89.6767 77.84 90.098 77.568C90.5193 77.296 91.01 77.16 91.57 77.16C92.1727 77.16 92.7247 77.3227 93.226 77.648C93.7327 77.968 94.138 78.4267 94.442 79.024C94.746 79.6213 94.898 80.328 94.898 81.144C94.898 81.9653 94.7433 82.68 94.434 83.288C94.1247 83.8907 93.7113 84.36 93.194 84.696C92.6767 85.0267 92.1087 85.192 91.49 85.192ZM87.986 85V74.088H89.234V83.208L88.866 85H87.986ZM100.382 85.192C99.641 85.192 99.0224 85.088 98.5264 84.88C98.0304 84.6667 97.6544 84.376 97.3984 84.008C97.1424 83.6347 97.0064 83.208 96.9904 82.728H98.1904C98.217 83.2133 98.4117 83.5787 98.7744 83.824C99.1424 84.064 99.641 84.184 100.27 84.184C100.601 84.184 100.905 84.1307 101.182 84.024C101.46 83.9173 101.681 83.7707 101.846 83.584C102.012 83.3973 102.094 83.1867 102.094 82.952C102.094 82.6533 101.985 82.4187 101.766 82.248C101.548 82.0773 101.198 81.928 100.718 81.8L99.2304 81.32C98.585 81.1173 98.089 80.84 97.7424 80.488C97.401 80.1307 97.2304 79.704 97.2304 79.208C97.2304 78.5893 97.5024 78.0933 98.0464 77.72C98.5904 77.3467 99.305 77.16 100.19 77.16C101.129 77.16 101.857 77.352 102.374 77.736C102.892 78.12 103.161 78.6 103.182 79.176H101.95C101.902 78.84 101.732 78.5867 101.438 78.416C101.145 78.24 100.729 78.152 100.19 78.152C99.673 78.152 99.2677 78.2693 98.9744 78.504C98.6864 78.7333 98.5424 78.9893 98.5424 79.272C98.5424 79.8 98.9957 80.1893 99.9024 80.44L101.422 80.952C102.078 81.1493 102.58 81.408 102.926 81.728C103.278 82.048 103.454 82.456 103.454 82.952C103.454 83.336 103.329 83.6987 103.078 84.04C102.828 84.3813 102.473 84.6587 102.014 84.872C101.556 85.0853 101.012 85.192 100.382 85.192ZM115.353 77.336H116.601V85H115.353V77.336ZM109.929 77.336H111.177V82.104C111.177 82.744 111.332 83.2293 111.641 83.56C111.956 83.8907 112.404 84.056 112.985 84.056C113.465 84.056 113.881 83.928 114.233 83.672C114.591 83.416 114.865 83.064 115.057 82.616C115.255 82.1627 115.353 81.6453 115.353 81.064H115.817C115.817 81.9227 115.692 82.656 115.441 83.264C115.196 83.872 114.847 84.3387 114.393 84.664C113.945 84.984 113.417 85.144 112.809 85.144C112.233 85.144 111.729 85.0373 111.297 84.824C110.865 84.6107 110.529 84.288 110.289 83.856C110.049 83.4187 109.929 82.8667 109.929 82.2V77.336ZM122.753 85.192C122.012 85.192 121.393 85.088 120.897 84.88C120.401 84.6667 120.025 84.376 119.769 84.008C119.513 83.6347 119.377 83.208 119.361 82.728H120.561C120.588 83.2133 120.782 83.5787 121.145 83.824C121.513 84.064 122.012 84.184 122.641 84.184C122.972 84.184 123.276 84.1307 123.553 84.024C123.83 83.9173 124.052 83.7707 124.217 83.584C124.382 83.3973 124.465 83.1867 124.465 82.952C124.465 82.6533 124.356 82.4187 124.137 82.248C123.918 82.0773 123.569 81.928 123.089 81.8L121.601 81.32C120.956 81.1173 120.46 80.84 120.113 80.488C119.772 80.1307 119.601 79.704 119.601 79.208C119.601 78.5893 119.873 78.0933 120.417 77.72C120.961 77.3467 121.676 77.16 122.561 77.16C123.5 77.16 124.228 77.352 124.745 77.736C125.262 78.12 125.532 78.6 125.553 79.176H124.321C124.273 78.84 124.102 78.5867 123.809 78.416C123.516 78.24 123.1 78.152 122.561 78.152C122.044 78.152 121.638 78.2693 121.345 78.504C121.057 78.7333 120.913 78.9893 120.913 79.272C120.913 79.8 121.366 80.1893 122.273 80.44L123.793 80.952C124.449 81.1493 124.95 81.408 125.297 81.728C125.649 82.048 125.825 82.456 125.825 82.952C125.825 83.336 125.7 83.6987 125.449 84.04C125.198 84.3813 124.844 84.6587 124.385 84.872C123.926 85.0853 123.382 85.192 122.753 85.192ZM129.271 75.544C129.015 75.544 128.813 75.472 128.663 75.328C128.514 75.1787 128.439 74.984 128.439 74.744C128.439 74.5093 128.514 74.3227 128.663 74.184C128.813 74.0453 129.015 73.976 129.271 73.976C129.527 73.976 129.73 74.0453 129.879 74.184C130.029 74.3227 130.103 74.5093 130.103 74.744C130.103 74.984 130.029 75.1787 129.879 75.328C129.73 75.472 129.527 75.544 129.271 75.544ZM128.647 85V77.336H129.895V85H128.647ZM138.933 85V80.504C138.933 79.7733 138.757 79.2187 138.405 78.84C138.058 78.456 137.584 78.264 136.981 78.264C136.522 78.264 136.125 78.3893 135.789 78.64C135.453 78.8907 135.194 79.2507 135.013 79.72C134.832 80.184 134.741 80.7387 134.741 81.384H134.261C134.261 80.4933 134.378 79.7333 134.613 79.104C134.848 78.4747 135.189 77.9947 135.637 77.664C136.09 77.328 136.64 77.16 137.285 77.16C137.888 77.16 138.402 77.296 138.829 77.568C139.261 77.8347 139.592 78.2187 139.821 78.72C140.05 79.2213 140.165 79.816 140.165 80.504V85H138.933ZM133.493 85V77.352H134.565L134.741 79.112V85H133.493ZM146.013 88.936C145.229 88.936 144.549 88.824 143.973 88.6C143.397 88.3813 142.949 88.0853 142.629 87.712C142.314 87.344 142.157 86.936 142.157 86.488C142.157 85.896 142.373 85.4427 142.805 85.128C143.242 84.8187 143.805 84.664 144.493 84.664L145.181 85.096C144.605 85.096 144.16 85.216 143.845 85.456C143.53 85.696 143.373 86.024 143.373 86.44C143.373 86.856 143.597 87.208 144.045 87.496C144.493 87.784 145.149 87.928 146.013 87.928C146.653 87.928 147.213 87.8347 147.693 87.648C148.178 87.4667 148.554 87.2267 148.821 86.928C149.093 86.6347 149.229 86.3173 149.229 85.976C149.229 85.736 149.141 85.528 148.965 85.352C148.789 85.1813 148.52 85.096 148.157 85.096H145.181C144.664 85.096 144.216 85.0187 143.837 84.864C143.464 84.704 143.176 84.496 142.973 84.24C142.77 83.984 142.669 83.704 142.669 83.4C142.669 83.08 142.76 82.808 142.941 82.584C143.122 82.36 143.357 82.1893 143.645 82.072C143.938 81.9547 144.253 81.896 144.589 81.896L144.829 82.36C144.669 82.36 144.506 82.3973 144.341 82.472C144.181 82.5413 144.045 82.648 143.933 82.792C143.826 82.9307 143.773 83.1067 143.773 83.32C143.773 83.5653 143.874 83.7707 144.077 83.936C144.28 84.1013 144.648 84.184 145.181 84.184H148.157C148.877 84.184 149.442 84.336 149.853 84.64C150.269 84.944 150.477 85.368 150.477 85.912C150.477 86.4133 150.298 86.8933 149.941 87.352C149.584 87.816 149.072 88.1947 148.405 88.488C147.738 88.7867 146.941 88.936 146.013 88.936ZM146.237 82.76C145.65 82.76 145.12 82.6427 144.645 82.408C144.176 82.1733 143.802 81.8453 143.525 81.424C143.253 81.0027 143.117 80.5147 143.117 79.96C143.117 79.4 143.253 78.9093 143.525 78.488C143.802 78.0667 144.176 77.7413 144.645 77.512C145.12 77.2773 145.65 77.16 146.237 77.16C146.808 77.16 147.325 77.2773 147.789 77.512C148.258 77.7413 148.632 78.0667 148.909 78.488C149.186 78.9093 149.325 79.4 149.325 79.96C149.325 80.5147 149.186 81.0027 148.909 81.424C148.632 81.8453 148.258 82.1733 147.789 82.408C147.325 82.6427 146.808 82.76 146.237 82.76ZM146.237 81.864C146.824 81.864 147.28 81.6827 147.605 81.32C147.93 80.9573 148.093 80.504 148.093 79.96C148.093 79.4 147.93 78.9467 147.605 78.6C147.28 78.248 146.824 78.072 146.237 78.072C145.656 78.072 145.197 78.248 144.861 78.6C144.53 78.9467 144.365 79.4 144.365 79.96C144.365 80.504 144.53 80.9573 144.861 81.32C145.197 81.6827 145.656 81.864 146.237 81.864ZM148.749 78.376L148.157 78.136C148.157 77.688 148.245 77.296 148.421 76.96C148.597 76.6187 148.848 76.3547 149.173 76.168C149.498 75.976 149.885 75.88 150.333 75.88L150.237 77.112C149.757 77.112 149.389 77.216 149.133 77.424C148.877 77.6267 148.749 77.944 148.749 78.376ZM161.193 85L161.033 83.32V80.04C161.033 79.352 160.887 78.8587 160.593 78.56C160.3 78.256 159.86 78.104 159.273 78.104C158.943 78.104 158.641 78.152 158.369 78.248C158.103 78.344 157.889 78.4933 157.729 78.696C157.575 78.8933 157.497 79.1493 157.497 79.464H156.105C156.105 78.9093 156.241 78.464 156.513 78.128C156.785 77.7867 157.159 77.5413 157.633 77.392C158.113 77.2373 158.66 77.16 159.273 77.16C159.86 77.16 160.38 77.2587 160.833 77.456C161.287 77.6533 161.641 77.968 161.897 78.4C162.153 78.8267 162.281 79.384 162.281 80.072V85H161.193ZM158.585 85.192C157.956 85.192 157.436 85.08 157.025 84.856C156.615 84.632 156.308 84.3413 156.105 83.984C155.903 83.6267 155.801 83.2507 155.801 82.856C155.801 82.3387 155.929 81.9173 156.185 81.592C156.447 81.2667 156.801 81.0293 157.249 80.88C157.697 80.7253 158.201 80.648 158.761 80.648C159.161 80.648 159.561 80.688 159.961 80.768C160.367 80.848 160.761 80.9573 161.145 81.096V81.88C160.825 81.752 160.463 81.6507 160.057 81.576C159.657 81.5013 159.289 81.464 158.953 81.464C158.441 81.464 158.009 81.5707 157.657 81.784C157.305 81.992 157.129 82.3493 157.129 82.856C157.129 83.2293 157.263 83.5493 157.529 83.816C157.801 84.0827 158.233 84.216 158.825 84.216C159.241 84.216 159.615 84.12 159.945 83.928C160.281 83.7307 160.545 83.4853 160.737 83.192C160.935 82.8987 161.033 82.6053 161.033 82.312H161.337C161.337 82.824 161.225 83.2987 161.001 83.736C160.783 84.1733 160.468 84.5253 160.057 84.792C159.647 85.0587 159.156 85.192 158.585 85.192ZM169.387 85V77.336H170.635V85H169.387ZM170.251 81.544C170.251 80.5733 170.344 79.768 170.531 79.128C170.717 78.4827 170.989 78.0027 171.347 77.688C171.709 77.368 172.149 77.208 172.667 77.208C172.837 77.208 172.992 77.2213 173.131 77.248C173.275 77.2693 173.419 77.304 173.563 77.352L173.483 78.584C173.333 78.536 173.171 78.496 172.995 78.464C172.819 78.4267 172.661 78.408 172.523 78.408C172.069 78.408 171.704 78.5387 171.427 78.8C171.149 79.056 170.947 79.4187 170.819 79.888C170.696 80.3573 170.635 80.9093 170.635 81.544H170.251ZM178.096 85.192C177.408 85.192 176.795 85.04 176.256 84.736C175.723 84.432 175.301 83.9813 174.992 83.384C174.683 82.7867 174.528 82.0507 174.528 81.176C174.528 80.296 174.683 79.56 174.992 78.968C175.301 78.3707 175.723 77.92 176.256 77.616C176.795 77.312 177.408 77.16 178.096 77.16C178.779 77.16 179.387 77.312 179.92 77.616C180.459 77.92 180.88 78.3707 181.184 78.968C181.493 79.56 181.648 80.296 181.648 81.176C181.648 82.0507 181.493 82.7867 181.184 83.384C180.88 83.9813 180.459 84.432 179.92 84.736C179.387 85.04 178.779 85.192 178.096 85.192ZM178.064 84.104C178.56 84.104 178.981 83.9867 179.328 83.752C179.675 83.512 179.936 83.1733 180.112 82.736C180.293 82.2987 180.384 81.7787 180.384 81.176C180.384 80.264 180.195 79.5467 179.816 79.024C179.437 78.496 178.875 78.232 178.128 78.232C177.627 78.232 177.203 78.352 176.856 78.592C176.515 78.8267 176.253 79.1653 176.072 79.608C175.896 80.0453 175.808 80.568 175.808 81.176C175.808 82.0773 175.997 82.792 176.376 83.32C176.76 83.8427 177.323 84.104 178.064 84.104ZM184.238 85V74.088H185.486V85H184.238ZM188.882 85V74.088H190.13V85H188.882ZM194.231 75.544C193.975 75.544 193.772 75.472 193.623 75.328C193.473 75.1787 193.399 74.984 193.399 74.744C193.399 74.5093 193.473 74.3227 193.623 74.184C193.772 74.0453 193.975 73.976 194.231 73.976C194.487 73.976 194.689 74.0453 194.839 74.184C194.988 74.3227 195.063 74.5093 195.063 74.744C195.063 74.984 194.988 75.1787 194.839 75.328C194.689 75.472 194.487 75.544 194.231 75.544ZM193.607 85V77.336H194.855V85H193.607ZM203.892 85V80.504C203.892 79.7733 203.716 79.2187 203.364 78.84C203.018 78.456 202.543 78.264 201.94 78.264C201.482 78.264 201.084 78.3893 200.748 78.64C200.412 78.8907 200.154 79.2507 199.972 79.72C199.791 80.184 199.7 80.7387 199.7 81.384H199.22C199.22 80.4933 199.338 79.7333 199.572 79.104C199.807 78.4747 200.148 77.9947 200.596 77.664C201.05 77.328 201.599 77.16 202.244 77.16C202.847 77.16 203.362 77.296 203.788 77.568C204.22 77.8347 204.551 78.2187 204.78 78.72C205.01 79.2213 205.124 79.816 205.124 80.504V85H203.892ZM198.452 85V77.352H199.524L199.7 79.112V85H198.452ZM210.972 88.936C210.188 88.936 209.508 88.824 208.932 88.6C208.356 88.3813 207.908 88.0853 207.588 87.712C207.274 87.344 207.116 86.936 207.116 86.488C207.116 85.896 207.332 85.4427 207.764 85.128C208.202 84.8187 208.764 84.664 209.452 84.664L210.14 85.096C209.564 85.096 209.119 85.216 208.804 85.456C208.49 85.696 208.332 86.024 208.332 86.44C208.332 86.856 208.556 87.208 209.004 87.496C209.452 87.784 210.108 87.928 210.972 87.928C211.612 87.928 212.172 87.8347 212.652 87.648C213.138 87.4667 213.514 87.2267 213.78 86.928C214.052 86.6347 214.188 86.3173 214.188 85.976C214.188 85.736 214.1 85.528 213.924 85.352C213.748 85.1813 213.479 85.096 213.116 85.096H210.14C209.623 85.096 209.175 85.0187 208.796 84.864C208.423 84.704 208.135 84.496 207.932 84.24C207.73 83.984 207.628 83.704 207.628 83.4C207.628 83.08 207.719 82.808 207.9 82.584C208.082 82.36 208.316 82.1893 208.604 82.072C208.898 81.9547 209.212 81.896 209.548 81.896L209.788 82.36C209.628 82.36 209.466 82.3973 209.3 82.472C209.14 82.5413 209.004 82.648 208.892 82.792C208.786 82.9307 208.732 83.1067 208.732 83.32C208.732 83.5653 208.834 83.7707 209.036 83.936C209.239 84.1013 209.607 84.184 210.14 84.184H213.116C213.836 84.184 214.402 84.336 214.812 84.64C215.228 84.944 215.436 85.368 215.436 85.912C215.436 86.4133 215.258 86.8933 214.9 87.352C214.543 87.816 214.031 88.1947 213.364 88.488C212.698 88.7867 211.9 88.936 210.972 88.936ZM211.196 82.76C210.61 82.76 210.079 82.6427 209.604 82.408C209.135 82.1733 208.762 81.8453 208.484 81.424C208.212 81.0027 208.076 80.5147 208.076 79.96C208.076 79.4 208.212 78.9093 208.484 78.488C208.762 78.0667 209.135 77.7413 209.604 77.512C210.079 77.2773 210.61 77.16 211.196 77.16C211.767 77.16 212.284 77.2773 212.748 77.512C213.218 77.7413 213.591 78.0667 213.868 78.488C214.146 78.9093 214.284 79.4 214.284 79.96C214.284 80.5147 214.146 81.0027 213.868 81.424C213.591 81.8453 213.218 82.1733 212.748 82.408C212.284 82.6427 211.767 82.76 211.196 82.76ZM211.196 81.864C211.783 81.864 212.239 81.6827 212.564 81.32C212.89 80.9573 213.052 80.504 213.052 79.96C213.052 79.4 212.89 78.9467 212.564 78.6C212.239 78.248 211.783 78.072 211.196 78.072C210.615 78.072 210.156 78.248 209.82 78.6C209.49 78.9467 209.324 79.4 209.324 79.96C209.324 80.504 209.49 80.9573 209.82 81.32C210.156 81.6827 210.615 81.864 211.196 81.864ZM213.708 78.376L213.116 78.136C213.116 77.688 213.204 77.296 213.38 76.96C213.556 76.6187 213.807 76.3547 214.132 76.168C214.458 75.976 214.844 75.88 215.292 75.88L215.196 77.112C214.716 77.112 214.348 77.216 214.092 77.424C213.836 77.6267 213.708 77.944 213.708 78.376ZM224.889 85.192C224.329 85.192 223.841 85.064 223.425 84.808C223.014 84.552 222.697 84.1787 222.473 83.688C222.249 83.192 222.137 82.5893 222.137 81.88H222.665C222.665 82.3547 222.763 82.7547 222.961 83.08C223.158 83.4053 223.414 83.6533 223.729 83.824C224.049 83.9893 224.387 84.072 224.745 84.072C225.129 84.072 225.497 83.9627 225.849 83.744C226.201 83.52 226.489 83.192 226.713 82.76C226.937 82.328 227.049 81.7947 227.049 81.16C227.049 80.552 226.945 80.032 226.737 79.6C226.534 79.168 226.259 78.8373 225.913 78.608C225.566 78.3787 225.182 78.264 224.761 78.264C224.398 78.264 224.057 78.352 223.737 78.528C223.417 78.704 223.158 78.9627 222.961 79.304C222.763 79.64 222.665 80.056 222.665 80.552H222.137C222.137 79.8107 222.259 79.1893 222.505 78.688C222.75 78.1813 223.083 77.8 223.505 77.544C223.926 77.288 224.398 77.16 224.921 77.16C225.518 77.16 226.075 77.32 226.593 77.64C227.11 77.96 227.529 78.4187 227.849 79.016C228.169 79.6133 228.329 80.328 228.329 81.16C228.329 82.0027 228.166 82.7253 227.841 83.328C227.521 83.9307 227.099 84.392 226.577 84.712C226.054 85.032 225.491 85.192 224.889 85.192ZM221.417 88.76V77.352H222.457L222.665 79.144V88.76H221.417ZM231.64 75.544C231.384 75.544 231.181 75.472 231.032 75.328C230.883 75.1787 230.808 74.984 230.808 74.744C230.808 74.5093 230.883 74.3227 231.032 74.184C231.181 74.0453 231.384 73.976 231.64 73.976C231.896 73.976 232.099 74.0453 232.248 74.184C232.397 74.3227 232.472 74.5093 232.472 74.744C232.472 74.984 232.397 75.1787 232.248 75.328C232.099 75.472 231.896 75.544 231.64 75.544ZM231.016 85V77.336H232.264V85H231.016ZM241.302 85V80.504C241.302 79.7733 241.126 79.2187 240.774 78.84C240.427 78.456 239.952 78.264 239.35 78.264C238.891 78.264 238.494 78.3893 238.158 78.64C237.822 78.8907 237.563 79.2507 237.382 79.72C237.2 80.184 237.11 80.7387 237.11 81.384H236.63C236.63 80.4933 236.747 79.7333 236.982 79.104C237.216 78.4747 237.558 77.9947 238.006 77.664C238.459 77.328 239.008 77.16 239.654 77.16C240.256 77.16 240.771 77.296 241.198 77.568C241.63 77.8347 241.96 78.2187 242.19 78.72C242.419 79.2213 242.534 79.816 242.534 80.504V85H241.302ZM235.862 85V77.352H236.934L237.11 79.112V85H235.862ZM244.542 84.256C244.542 84.0053 244.63 83.7893 244.806 83.608C244.982 83.4267 245.203 83.336 245.47 83.336C245.737 83.336 245.963 83.4267 246.15 83.608C246.337 83.7893 246.43 84.0053 246.43 84.256C246.43 84.5067 246.337 84.7173 246.15 84.888C245.963 85.0587 245.737 85.144 245.47 85.144C245.203 85.144 244.982 85.0587 244.806 84.888C244.63 84.712 244.542 84.5013 244.542 84.256ZM251.169 78.296L250.273 77.816C250.577 77.6613 250.833 77.488 251.041 77.296C251.255 77.0987 251.393 76.872 251.457 76.616C251.217 76.5893 251.015 76.5067 250.849 76.368C250.689 76.2293 250.609 76.0453 250.609 75.816C250.609 75.5813 250.697 75.384 250.873 75.224C251.049 75.064 251.271 74.984 251.537 74.984C251.761 74.984 251.953 75.0427 252.113 75.16C252.273 75.272 252.396 75.424 252.481 75.616C252.567 75.8027 252.609 76.0133 252.609 76.248C252.609 76.632 252.484 77.008 252.233 77.376C251.983 77.7387 251.628 78.0453 251.169 78.296ZM248.553 78.296L247.657 77.816C247.961 77.6613 248.217 77.488 248.425 77.296C248.639 77.0987 248.777 76.872 248.841 76.616C248.601 76.5893 248.399 76.5067 248.233 76.368C248.073 76.2293 247.993 76.0453 247.993 75.816C247.993 75.5813 248.081 75.384 248.257 75.224C248.433 75.064 248.655 74.984 248.921 74.984C249.145 74.984 249.337 75.0427 249.497 75.16C249.657 75.272 249.78 75.424 249.865 75.616C249.951 75.8027 249.993 76.0133 249.993 76.248C249.993 76.632 249.868 77.008 249.617 77.376C249.367 77.7387 249.012 78.0453 248.553 78.296Z" fill="#4A5DC8"/>
</g>
<defs>
<filter id="filter0_d_7070_5664" x="0" y="0" width="265.767" height="108" filterUnits="userSpaceOnUse" color-interpolation-filters="sRGB">
<feFlood flood-opacity="0" result="BackgroundImageFix"/>
<feColorMatrix in="SourceAlpha" type="matrix" values="0 0 0 0 0 0 0 0 0 0 0 0 0 0 0 0 0 0 127 0" result="hardAlpha"/>
<feOffset dy="4"/>
<feGaussianBlur stdDeviation="3"/>
<feComposite in2="hardAlpha" operator="out"/>
<feColorMatrix type="matrix" values="0 0 0 0 0 0 0 0 0 0 0 0 0 0 0 0 0 0 0.1 0"/>
<feBlend mode="normal" in2="BackgroundImageFix" result="effect1_dropShadow_7070_5664"/>
<feBlend mode="normal" in="SourceGraphic" in2="effect1_dropShadow_7070_5664" result="shape"/>
</filter>
</defs>
</svg>
