<svg width="256" height="68" viewBox="0 0 256 68" fill="none" xmlns="http://www.w3.org/2000/svg">
<mask id="path-1-inside-1_7041_5838" fill="white">
<path d="M254.724 27.3678L245 19.001L245 11.001C245 6.03041 240.971 2.00098 236 2.00097L15 2.00096C10.0294 2.00096 6 6.03039 6 11.001L6 49.001C6 53.9715 10.0294 58.001 15 58.001L236 58.001C240.971 58.001 245 53.9715 245 49.001L245 39.501L254.612 32.0079C256.106 30.8434 256.16 28.6032 254.724 27.3678Z"/>
</mask>
<path d="M254.724 27.3678L245 19.001L245 11.001C245 6.03041 240.971 2.00098 236 2.00097L15 2.00096C10.0294 2.00096 6 6.03039 6 11.001L6 49.001C6 53.9715 10.0294 58.001 15 58.001L236 58.001C240.971 58.001 245 53.9715 245 49.001L245 39.501L254.612 32.0079C256.106 30.8434 256.16 28.6032 254.724 27.3678Z" fill="white"/>
<path d="M245 19.001L243.6 19.001L243.6 19.6433L244.087 20.0622L245 19.001ZM254.724 27.3678L255.637 26.3066L255.637 26.3066L254.724 27.3678ZM254.612 32.0079L253.751 30.9038L253.751 30.9038L254.612 32.0079ZM245 39.501L244.139 38.3968L243.6 38.8172L243.6 39.501L245 39.501ZM244.087 20.0622L253.811 28.4291L255.637 26.3066L245.913 17.9397L244.087 20.0622ZM253.751 30.9038L244.139 38.3968L245.861 40.6051L255.473 33.1121L253.751 30.9038ZM253.811 28.4291C254.577 29.0879 254.548 30.2827 253.751 30.9038L255.473 33.1121C257.663 31.4041 257.743 28.1184 255.637 26.3066L253.811 28.4291ZM236 56.601L15 56.601L15 59.401L236 59.401L236 56.601ZM7.39999 49.001L7.4 11.001L4.60001 11.001L4.60001 49.001L7.39999 49.001ZM15 3.40096L236 3.40098L236 0.600973L15 0.600954L15 3.40096ZM243.6 39.501L243.6 49.001L246.4 49.001L246.4 39.501L243.6 39.501ZM243.6 11.001L243.6 19.001L246.4 19.001L246.4 11.001L243.6 11.001ZM236 3.40098C240.197 3.40098 243.6 6.80361 243.6 11.001L246.4 11.001C246.4 5.25722 241.744 0.600974 236 0.600973L236 3.40098ZM7.4 11.001C7.4 6.80359 10.8026 3.40096 15 3.40096L15 0.600954C9.25625 0.600953 4.60001 5.2572 4.60001 11.001L7.4 11.001ZM15 56.601C10.8026 56.601 7.39999 53.1983 7.39999 49.001L4.60001 49.001C4.60001 54.7447 9.25624 59.401 15 59.401L15 56.601ZM236 59.401C241.744 59.401 246.4 54.7447 246.4 49.001L243.6 49.001C243.6 53.1983 240.197 56.601 236 56.601L236 59.401Z" fill="white" mask="url(#path-1-inside-1_7041_5838)"/>
<g filter="url(#filter0_d_7041_5838)">
<mask id="path-3-inside-2_7041_5838" fill="white">
<path d="M7.04333 32.6331L16.7674 41V49C16.7674 53.9706 20.7968 58 25.7674 58L183.767 58C188.738 58 192.767 53.9706 192.767 49V11C192.767 6.02944 188.738 2 183.767 2L25.7674 2C20.7968 2 16.7674 6.02944 16.7674 11V20.5L7.15555 27.9931C5.66179 29.1575 5.60761 31.3978 7.04333 32.6331Z"/>
</mask>
<path d="M7.04333 32.6331L16.7674 41V49C16.7674 53.9706 20.7968 58 25.7674 58L183.767 58C188.738 58 192.767 53.9706 192.767 49V11C192.767 6.02944 188.738 2 183.767 2L25.7674 2C20.7968 2 16.7674 6.02944 16.7674 11V20.5L7.15555 27.9931C5.66179 29.1575 5.60761 31.3978 7.04333 32.6331Z" fill="white"/>
<path d="M16.7674 41H18.1674V40.3577L17.6805 39.9388L16.7674 41ZM7.04333 32.6331L6.13021 33.6944H6.13021L7.04333 32.6331ZM7.15555 27.9931L8.0163 29.0972L8.0163 29.0972L7.15555 27.9931ZM16.7674 20.5L17.6281 21.6041L18.1674 21.1838V20.5H16.7674ZM25.7674 2V0.6V2ZM183.767 2V3.4V2ZM17.6805 39.9388L7.95644 31.5719L6.13021 33.6944L15.8542 42.0612L17.6805 39.9388ZM8.0163 29.0972L17.6281 21.6041L15.9066 19.3959L6.2948 26.8889L8.0163 29.0972ZM7.95644 31.5719C7.19073 30.9131 7.21963 29.7183 8.0163 29.0972L6.2948 26.8889C4.10396 28.5968 4.02449 31.8825 6.13021 33.6944L7.95644 31.5719ZM25.7674 3.4L183.767 3.4V0.600003L25.7674 0.6V3.4ZM191.367 11V49H194.167V11H191.367ZM183.767 56.6L25.7674 56.6V59.4L183.767 59.4V56.6ZM18.1674 20.5V11H15.3674V20.5H18.1674ZM18.1674 49V41H15.3674V49H18.1674ZM25.7674 56.6C21.57 56.6 18.1674 53.1974 18.1674 49H15.3674C15.3674 54.7438 20.0236 59.4 25.7674 59.4V56.6ZM191.367 49C191.367 53.1974 187.965 56.6 183.767 56.6V59.4C189.511 59.4 194.167 54.7438 194.167 49H191.367ZM183.767 3.4C187.965 3.4 191.367 6.80264 191.367 11H194.167C194.167 5.25624 189.511 0.600003 183.767 0.600003V3.4ZM25.7674 0.6C20.0236 0.6 15.3674 5.25624 15.3674 11H18.1674C18.1674 6.80264 21.57 3.4 25.7674 3.4V0.6Z" fill="#333333" mask="url(#path-3-inside-2_7041_5838)"/>
</g>
<g filter="url(#filter1_d_7041_5838)">
<path d="M30.616 15.453H33.56C34.5733 15.453 35.4533 15.661 36.2 16.077C36.9467 16.4876 37.5253 17.069 37.936 17.821C38.3467 18.573 38.552 19.4583 38.552 20.477C38.552 21.485 38.3467 22.365 37.936 23.117C37.5253 23.869 36.9467 24.4556 36.2 24.877C35.4533 25.293 34.5733 25.501 33.56 25.501H30.616V15.453ZM31.864 16.557V24.413H33.56C34.3173 24.413 34.968 24.2423 35.512 23.901C36.0613 23.5596 36.4827 23.093 36.776 22.501C37.0747 21.9036 37.224 21.229 37.224 20.477C37.224 19.7196 37.0747 19.0476 36.776 18.461C36.4827 17.869 36.0613 17.405 35.512 17.069C34.968 16.7276 34.3173 16.557 33.56 16.557H31.864ZM44.1065 25.693C43.4185 25.693 42.8052 25.541 42.2665 25.237C41.7332 24.933 41.3118 24.4823 41.0025 23.885C40.6932 23.2876 40.5385 22.5516 40.5385 21.677C40.5385 20.797 40.6932 20.061 41.0025 19.469C41.3118 18.8716 41.7332 18.421 42.2665 18.117C42.8052 17.813 43.4185 17.661 44.1065 17.661C44.7892 17.661 45.3972 17.813 45.9305 18.117C46.4692 18.421 46.8905 18.8716 47.1945 19.469C47.5038 20.061 47.6585 20.797 47.6585 21.677C47.6585 22.5516 47.5038 23.2876 47.1945 23.885C46.8905 24.4823 46.4692 24.933 45.9305 25.237C45.3972 25.541 44.7892 25.693 44.1065 25.693ZM44.0745 24.605C44.5705 24.605 44.9918 24.4876 45.3385 24.253C45.6852 24.013 45.9465 23.6743 46.1225 23.237C46.3038 22.7996 46.3945 22.2796 46.3945 21.677C46.3945 20.765 46.2052 20.0476 45.8265 19.525C45.4478 18.997 44.8852 18.733 44.1385 18.733C43.6372 18.733 43.2132 18.853 42.8665 19.093C42.5252 19.3276 42.2638 19.6663 42.0825 20.109C41.9065 20.5463 41.8185 21.069 41.8185 21.677C41.8185 22.5783 42.0078 23.293 42.3865 23.821C42.7705 24.3436 43.3332 24.605 44.0745 24.605ZM52.9414 17.853H54.3334L56.8294 24.413H56.5414L58.4774 17.853H59.7574L56.8774 27.037C56.6374 27.805 56.3174 28.397 55.9174 28.813C55.5174 29.229 55.0054 29.437 54.3814 29.437C54.0454 29.437 53.7254 29.389 53.4214 29.293C53.1227 29.197 52.8134 29.0583 52.4934 28.877V27.725C52.776 27.949 53.048 28.109 53.3094 28.205C53.576 28.301 53.8534 28.349 54.1414 28.349C54.4614 28.349 54.728 28.2476 54.9414 28.045C55.16 27.8423 55.3414 27.581 55.4854 27.261C55.6294 26.9463 55.752 26.6156 55.8534 26.269L56.0774 25.501L52.9414 17.853ZM64.5865 25.693C63.8985 25.693 63.2852 25.541 62.7465 25.237C62.2132 24.933 61.7918 24.4823 61.4825 23.885C61.1732 23.2876 61.0185 22.5516 61.0185 21.677C61.0185 20.797 61.1732 20.061 61.4825 19.469C61.7918 18.8716 62.2132 18.421 62.7465 18.117C63.2852 17.813 63.8985 17.661 64.5865 17.661C65.2692 17.661 65.8772 17.813 66.4105 18.117C66.9492 18.421 67.3705 18.8716 67.6745 19.469C67.9838 20.061 68.1385 20.797 68.1385 21.677C68.1385 22.5516 67.9838 23.2876 67.6745 23.885C67.3705 24.4823 66.9492 24.933 66.4105 25.237C65.8772 25.541 65.2692 25.693 64.5865 25.693ZM64.5545 24.605C65.0505 24.605 65.4718 24.4876 65.8185 24.253C66.1652 24.013 66.4265 23.6743 66.6025 23.237C66.7838 22.7996 66.8745 22.2796 66.8745 21.677C66.8745 20.765 66.6852 20.0476 66.3065 19.525C65.9278 18.997 65.3652 18.733 64.6185 18.733C64.1172 18.733 63.6932 18.853 63.3465 19.093C63.0052 19.3276 62.7438 19.6663 62.5625 20.109C62.3865 20.5463 62.2985 21.069 62.2985 21.677C62.2985 22.5783 62.4878 23.293 62.8665 23.821C63.2505 24.3436 63.8132 24.605 64.5545 24.605ZM75.9285 17.837H77.1765V25.501H75.9285V17.837ZM70.5045 17.837H71.7525V22.605C71.7525 23.245 71.9072 23.7303 72.2165 24.061C72.5312 24.3916 72.9792 24.557 73.5605 24.557C74.0405 24.557 74.4565 24.429 74.8085 24.173C75.1658 23.917 75.4405 23.565 75.6325 23.117C75.8298 22.6636 75.9285 22.1463 75.9285 21.565H76.3925C76.3925 22.4236 76.2672 23.157 76.0165 23.765C75.7712 24.373 75.4218 24.8396 74.9685 25.165C74.5205 25.485 73.9925 25.645 73.3845 25.645C72.8085 25.645 72.3045 25.5383 71.8725 25.325C71.4405 25.1116 71.1045 24.789 70.8645 24.357C70.6245 23.9196 70.5045 23.3676 70.5045 22.701V17.837ZM83.2049 17.853H84.5009L86.4529 24.237H86.2929L88.1969 18.221H89.2369L91.1249 24.253H90.9809L92.9329 17.853H94.1809L91.6689 25.501H90.4529L88.5969 19.853H88.7889L86.9489 25.501H85.7329L83.2049 17.853ZM101.023 25.501L100.863 23.821V20.541C100.863 19.853 100.716 19.3596 100.423 19.061C100.129 18.757 99.6893 18.605 99.1026 18.605C98.772 18.605 98.4706 18.653 98.1986 18.749C97.932 18.845 97.7186 18.9943 97.5586 19.197C97.404 19.3943 97.3266 19.6503 97.3266 19.965H95.9346C95.9346 19.4103 96.0706 18.965 96.3426 18.629C96.6146 18.2876 96.988 18.0423 97.4626 17.893C97.9426 17.7383 98.4893 17.661 99.1026 17.661C99.6893 17.661 100.209 17.7596 100.663 17.957C101.116 18.1543 101.471 18.469 101.727 18.901C101.983 19.3276 102.111 19.885 102.111 20.573V25.501H101.023ZM98.4146 25.693C97.7853 25.693 97.2653 25.581 96.8546 25.357C96.444 25.133 96.1373 24.8423 95.9346 24.485C95.732 24.1276 95.6306 23.7516 95.6306 23.357C95.6306 22.8396 95.7586 22.4183 96.0146 22.093C96.276 21.7676 96.6306 21.5303 97.0786 21.381C97.5266 21.2263 98.0306 21.149 98.5906 21.149C98.9906 21.149 99.3906 21.189 99.7906 21.269C100.196 21.349 100.591 21.4583 100.975 21.597V22.381C100.655 22.253 100.292 22.1516 99.8866 22.077C99.4866 22.0023 99.1186 21.965 98.7826 21.965C98.2706 21.965 97.8386 22.0716 97.4866 22.285C97.1346 22.493 96.9586 22.8503 96.9586 23.357C96.9586 23.7303 97.092 24.0503 97.3586 24.317C97.6306 24.5836 98.0626 24.717 98.6546 24.717C99.0706 24.717 99.444 24.621 99.7746 24.429C100.111 24.2316 100.375 23.9863 100.567 23.693C100.764 23.3996 100.863 23.1063 100.863 22.813H101.167C101.167 23.325 101.055 23.7996 100.831 24.237C100.612 24.6743 100.297 25.0263 99.8866 25.293C99.476 25.5596 98.9853 25.693 98.4146 25.693ZM110.699 25.501V21.005C110.699 20.2743 110.523 19.7196 110.171 19.341C109.824 18.957 109.35 18.765 108.747 18.765C108.288 18.765 107.891 18.8903 107.555 19.141C107.219 19.3916 106.96 19.7516 106.779 20.221C106.598 20.685 106.507 21.2396 106.507 21.885H106.027C106.027 20.9943 106.144 20.2343 106.379 19.605C106.614 18.9756 106.955 18.4956 107.403 18.165C107.856 17.829 108.406 17.661 109.051 17.661C109.654 17.661 110.168 17.797 110.595 18.069C111.027 18.3356 111.358 18.7196 111.587 19.221C111.816 19.7223 111.931 20.317 111.931 21.005V25.501H110.699ZM105.259 25.501V17.853H106.331L106.507 19.613V25.501H105.259ZM117.427 25.693C117.011 25.693 116.638 25.613 116.307 25.453C115.977 25.293 115.715 25.053 115.523 24.733C115.331 24.413 115.235 24.013 115.235 23.533V15.725H116.467V23.501C116.467 24.2903 116.835 24.685 117.571 24.685C117.79 24.685 118.001 24.661 118.203 24.613C118.411 24.565 118.643 24.493 118.899 24.397L119.075 25.293C118.803 25.4103 118.531 25.5063 118.259 25.581C117.993 25.6556 117.715 25.693 117.427 25.693ZM114.003 18.717V17.853H118.883V18.717H114.003ZM127.56 25.693C127.144 25.693 126.771 25.613 126.44 25.453C126.109 25.293 125.848 25.053 125.656 24.733C125.464 24.413 125.368 24.013 125.368 23.533V15.725H126.6V23.501C126.6 24.2903 126.968 24.685 127.704 24.685C127.923 24.685 128.133 24.661 128.336 24.613C128.544 24.565 128.776 24.493 129.032 24.397L129.208 25.293C128.936 25.4103 128.664 25.5063 128.392 25.581C128.125 25.6556 127.848 25.693 127.56 25.693ZM124.136 18.717V17.853H129.016V18.717H124.136ZM134.152 25.693C133.464 25.693 132.85 25.541 132.312 25.237C131.778 24.933 131.357 24.4823 131.048 23.885C130.738 23.2876 130.584 22.5516 130.584 21.677C130.584 20.797 130.738 20.061 131.048 19.469C131.357 18.8716 131.778 18.421 132.312 18.117C132.85 17.813 133.464 17.661 134.152 17.661C134.834 17.661 135.442 17.813 135.976 18.117C136.514 18.421 136.936 18.8716 137.24 19.469C137.549 20.061 137.704 20.797 137.704 21.677C137.704 22.5516 137.549 23.2876 137.24 23.885C136.936 24.4823 136.514 24.933 135.976 25.237C135.442 25.541 134.834 25.693 134.152 25.693ZM134.12 24.605C134.616 24.605 135.037 24.4876 135.384 24.253C135.73 24.013 135.992 23.6743 136.168 23.237C136.349 22.7996 136.44 22.2796 136.44 21.677C136.44 20.765 136.25 20.0476 135.872 19.525C135.493 18.997 134.93 18.733 134.184 18.733C133.682 18.733 133.258 18.853 132.912 19.093C132.57 19.3276 132.309 19.6663 132.128 20.109C131.952 20.5463 131.864 21.069 131.864 21.677C131.864 22.5783 132.053 23.293 132.432 23.821C132.816 24.3436 133.378 24.605 134.12 24.605ZM144.25 25.501V14.589H145.498V25.501H144.25ZM145.306 21.117L149.21 17.853H150.954L145.306 22.445V21.117ZM149.594 25.501L145.962 20.669L147.226 20.445L151.13 25.501H149.594ZM158.866 25.501V21.005C158.866 20.2743 158.69 19.7196 158.338 19.341C157.991 18.957 157.517 18.765 156.914 18.765C156.455 18.765 156.058 18.8903 155.722 19.141C155.386 19.3916 155.127 19.7516 154.946 20.221C154.765 20.685 154.674 21.2396 154.674 21.885H154.194C154.194 20.9943 154.311 20.2343 154.546 19.605C154.781 18.9756 155.122 18.4956 155.57 18.165C156.023 17.829 156.573 17.661 157.218 17.661C157.821 17.661 158.335 17.797 158.762 18.069C159.194 18.3356 159.525 18.7196 159.754 19.221C159.983 19.7223 160.098 20.317 160.098 21.005V25.501H158.866ZM153.426 25.501V17.853H154.498L154.674 19.613V25.501H153.426ZM166.01 25.693C165.322 25.693 164.709 25.541 164.17 25.237C163.637 24.933 163.216 24.4823 162.906 23.885C162.597 23.2876 162.442 22.5516 162.442 21.677C162.442 20.797 162.597 20.061 162.906 19.469C163.216 18.8716 163.637 18.421 164.17 18.117C164.709 17.813 165.322 17.661 166.01 17.661C166.693 17.661 167.301 17.813 167.834 18.117C168.373 18.421 168.794 18.8716 169.098 19.469C169.408 20.061 169.562 20.797 169.562 21.677C169.562 22.5516 169.408 23.2876 169.098 23.885C168.794 24.4823 168.373 24.933 167.834 25.237C167.301 25.541 166.693 25.693 166.01 25.693ZM165.978 24.605C166.474 24.605 166.896 24.4876 167.242 24.253C167.589 24.013 167.85 23.6743 168.026 23.237C168.208 22.7996 168.298 22.2796 168.298 21.677C168.298 20.765 168.109 20.0476 167.73 19.525C167.352 18.997 166.789 18.733 166.042 18.733C165.541 18.733 165.117 18.853 164.77 19.093C164.429 19.3276 164.168 19.6663 163.986 20.109C163.81 20.5463 163.722 21.069 163.722 21.677C163.722 22.5783 163.912 23.293 164.29 23.821C164.674 24.3436 165.237 24.605 165.978 24.605ZM170.824 17.853H172.12L174.072 24.237H173.912L175.816 18.221H176.856L178.744 24.253H178.6L180.552 17.853H181.8L179.288 25.501H178.072L176.216 19.853H176.408L174.568 25.501H173.352L170.824 17.853ZM41.368 45.501V41.005C41.368 40.2743 41.192 39.7196 40.84 39.341C40.4933 38.957 40.024 38.765 39.432 38.765C38.7387 38.765 38.208 39.0343 37.84 39.573C37.472 40.1063 37.288 40.845 37.288 41.789H36.712C36.712 41.101 36.7787 40.4983 36.912 39.981C37.0507 39.4636 37.2507 39.0343 37.512 38.693C37.7733 38.3463 38.0907 38.0876 38.464 37.917C38.8373 37.7463 39.2613 37.661 39.736 37.661C40.3387 37.661 40.8533 37.797 41.28 38.069C41.712 38.3356 42.0427 38.7196 42.272 39.221C42.5013 39.7223 42.616 40.317 42.616 41.005V45.501H41.368ZM30.616 45.501V37.853H31.688L31.832 39.389C32.072 38.8343 32.408 38.4076 32.84 38.109C33.2773 37.8103 33.8 37.661 34.408 37.661C35.0107 37.661 35.5253 37.797 35.952 38.069C36.384 38.3356 36.7147 38.7196 36.944 39.221C37.1733 39.7223 37.288 40.317 37.288 41.005V45.501H36.056V41.005C36.056 40.2743 35.88 39.7196 35.528 39.341C35.1813 38.957 34.7067 38.765 34.104 38.765C33.6453 38.765 33.248 38.8903 32.912 39.141C32.576 39.3916 32.3173 39.7516 32.136 40.221C31.9547 40.685 31.864 41.2396 31.864 41.885V45.501H30.616ZM48.5128 45.693C47.8248 45.693 47.2114 45.541 46.6728 45.237C46.1394 44.933 45.7181 44.4823 45.4088 43.885C45.0994 43.2876 44.9448 42.5516 44.9448 41.677C44.9448 40.797 45.0994 40.061 45.4088 39.469C45.7181 38.8716 46.1394 38.421 46.6728 38.117C47.2114 37.813 47.8248 37.661 48.5128 37.661C49.1954 37.661 49.8034 37.813 50.3368 38.117C50.8754 38.421 51.2968 38.8716 51.6008 39.469C51.9101 40.061 52.0648 40.797 52.0648 41.677C52.0648 42.5516 51.9101 43.2876 51.6008 43.885C51.2968 44.4823 50.8754 44.933 50.3368 45.237C49.8034 45.541 49.1954 45.693 48.5128 45.693ZM48.4808 44.605C48.9768 44.605 49.3981 44.4876 49.7448 44.253C50.0914 44.013 50.3528 43.6743 50.5288 43.237C50.7101 42.7996 50.8008 42.2796 50.8008 41.677C50.8008 40.765 50.6114 40.0476 50.2328 39.525C49.8541 38.997 49.2914 38.733 48.5448 38.733C48.0434 38.733 47.6194 38.853 47.2728 39.093C46.9314 39.3276 46.6701 39.6663 46.4888 40.109C46.3128 40.5463 46.2248 41.069 46.2248 41.677C46.2248 42.5783 46.4141 43.293 46.7928 43.821C47.1768 44.3436 47.7394 44.605 48.4808 44.605ZM54.6548 45.501V37.837H55.9028V45.501H54.6548ZM55.5188 42.045C55.5188 41.0743 55.6121 40.269 55.7988 39.629C55.9854 38.9836 56.2574 38.5036 56.6148 38.189C56.9774 37.869 57.4174 37.709 57.9348 37.709C58.1054 37.709 58.2601 37.7223 58.3988 37.749C58.5428 37.7703 58.6868 37.805 58.8308 37.853L58.7508 39.085C58.6014 39.037 58.4388 38.997 58.2628 38.965C58.0868 38.9276 57.9294 38.909 57.7908 38.909C57.3374 38.909 56.9721 39.0396 56.6948 39.301C56.4174 39.557 56.2148 39.9196 56.0868 40.389C55.9641 40.8583 55.9028 41.4103 55.9028 42.045H55.5188ZM63.252 45.693C62.5907 45.693 61.9987 45.525 61.476 45.189C60.9587 44.8476 60.548 44.3756 60.244 43.773C59.9453 43.1703 59.796 42.477 59.796 41.693C59.796 40.8556 59.9453 40.1356 60.244 39.533C60.5427 38.9303 60.9507 38.469 61.468 38.149C61.9907 37.8236 62.5853 37.661 63.252 37.661C63.8333 37.661 64.3293 37.7783 64.74 38.013C65.1507 38.2476 65.4813 38.565 65.732 38.965C65.9827 39.365 66.156 39.8183 66.252 40.325C66.3533 40.8263 66.3827 41.3463 66.34 41.885H60.804V41.117H65.516L65.148 41.357C65.164 41.0423 65.1453 40.7276 65.092 40.413C65.044 40.0983 64.9507 39.8103 64.812 39.549C64.6733 39.2823 64.4787 39.069 64.228 38.909C63.9773 38.749 63.6573 38.669 63.268 38.669C62.7773 38.669 62.3667 38.7943 62.036 39.045C61.7053 39.2956 61.4573 39.6263 61.292 40.037C61.1267 40.4423 61.044 40.8823 61.044 41.357V41.869C61.044 42.4023 61.124 42.8796 61.284 43.301C61.4493 43.7223 61.6947 44.0556 62.02 44.301C62.3453 44.5463 62.756 44.669 63.252 44.669C63.748 44.669 64.156 44.549 64.476 44.309C64.796 44.069 64.9907 43.7143 65.06 43.245H66.356C66.276 43.7516 66.0947 44.189 65.812 44.557C65.5293 44.9196 65.1693 45.1996 64.732 45.397C64.2947 45.5943 63.8013 45.693 63.252 45.693ZM77.6676 45.501L77.5076 43.821V40.541C77.5076 39.853 77.361 39.3596 77.0676 39.061C76.7743 38.757 76.3343 38.605 75.7476 38.605C75.417 38.605 75.1156 38.653 74.8436 38.749C74.577 38.845 74.3636 38.9943 74.2036 39.197C74.049 39.3943 73.9716 39.6503 73.9716 39.965H72.5796C72.5796 39.4103 72.7156 38.965 72.9876 38.629C73.2596 38.2876 73.633 38.0423 74.1076 37.893C74.5876 37.7383 75.1343 37.661 75.7476 37.661C76.3343 37.661 76.8543 37.7596 77.3076 37.957C77.761 38.1543 78.1156 38.469 78.3716 38.901C78.6276 39.3276 78.7556 39.885 78.7556 40.573V45.501H77.6676ZM75.0596 45.693C74.4303 45.693 73.9103 45.581 73.4996 45.357C73.089 45.133 72.7823 44.8423 72.5796 44.485C72.377 44.1276 72.2756 43.7516 72.2756 43.357C72.2756 42.8396 72.4036 42.4183 72.6596 42.093C72.921 41.7676 73.2756 41.5303 73.7236 41.381C74.1716 41.2263 74.6756 41.149 75.2356 41.149C75.6356 41.149 76.0356 41.189 76.4356 41.269C76.841 41.349 77.2356 41.4583 77.6196 41.597V42.381C77.2996 42.253 76.937 42.1516 76.5316 42.077C76.1316 42.0023 75.7636 41.965 75.4276 41.965C74.9156 41.965 74.4836 42.0716 74.1316 42.285C73.7796 42.493 73.6036 42.8503 73.6036 43.357C73.6036 43.7303 73.737 44.0503 74.0036 44.317C74.2756 44.5836 74.7076 44.717 75.2996 44.717C75.7156 44.717 76.089 44.621 76.4196 44.429C76.7556 44.2316 77.0196 43.9863 77.2116 43.693C77.409 43.3996 77.5076 43.1063 77.5076 42.813H77.8116C77.8116 43.325 77.6996 43.7996 77.4756 44.237C77.257 44.6743 76.9423 45.0263 76.5316 45.293C76.121 45.5596 75.6303 45.693 75.0596 45.693ZM85.4081 45.693C84.8961 45.693 84.4321 45.5596 84.0161 45.293C83.6055 45.0263 83.2775 44.637 83.0321 44.125C82.7921 43.6076 82.6721 42.9783 82.6721 42.237H83.1521C83.1521 42.733 83.2535 43.157 83.4561 43.509C83.6641 43.8556 83.9308 44.1196 84.2561 44.301C84.5815 44.4823 84.9228 44.573 85.2801 44.573C85.6908 44.573 86.0668 44.4556 86.4081 44.221C86.7495 43.9863 87.0215 43.6503 87.2241 43.213C87.4321 42.7756 87.5361 42.253 87.5361 41.645C87.5361 41.0476 87.4348 40.5356 87.2321 40.109C87.0295 39.677 86.7548 39.3463 86.4081 39.117C86.0668 38.8823 85.6855 38.765 85.2641 38.765C84.9015 38.765 84.5575 38.8556 84.2321 39.037C83.9121 39.213 83.6508 39.4743 83.4481 39.821C83.2508 40.1676 83.1521 40.5943 83.1521 41.101H82.6721C82.6721 40.3756 82.7895 39.757 83.0241 39.245C83.2641 38.733 83.5948 38.341 84.0161 38.069C84.4375 37.797 84.9281 37.661 85.4881 37.661C86.0908 37.661 86.6428 37.8236 87.1441 38.149C87.6508 38.469 88.0561 38.9276 88.3601 39.525C88.6641 40.1223 88.8161 40.829 88.8161 41.645C88.8161 42.4663 88.6615 43.181 88.3521 43.789C88.0428 44.3916 87.6295 44.861 87.1121 45.197C86.5948 45.5276 86.0268 45.693 85.4081 45.693ZM81.9041 45.501V34.589H83.1521V43.709L82.7841 45.501H81.9041ZM94.3165 45.693C93.6285 45.693 93.0152 45.541 92.4765 45.237C91.9432 44.933 91.5218 44.4823 91.2125 43.885C90.9032 43.2876 90.7485 42.5516 90.7485 41.677C90.7485 40.797 90.9032 40.061 91.2125 39.469C91.5218 38.8716 91.9432 38.421 92.4765 38.117C93.0152 37.813 93.6285 37.661 94.3165 37.661C94.9992 37.661 95.6072 37.813 96.1405 38.117C96.6792 38.421 97.1005 38.8716 97.4045 39.469C97.7138 40.061 97.8685 40.797 97.8685 41.677C97.8685 42.5516 97.7138 43.2876 97.4045 43.885C97.1005 44.4823 96.6792 44.933 96.1405 45.237C95.6072 45.541 94.9992 45.693 94.3165 45.693ZM94.2845 44.605C94.7805 44.605 95.2018 44.4876 95.5485 44.253C95.8952 44.013 96.1565 43.6743 96.3325 43.237C96.5138 42.7996 96.6045 42.2796 96.6045 41.677C96.6045 40.765 96.4152 40.0476 96.0365 39.525C95.6578 38.997 95.0952 38.733 94.3485 38.733C93.8472 38.733 93.4232 38.853 93.0765 39.093C92.7352 39.3276 92.4738 39.6663 92.2925 40.109C92.1165 40.5463 92.0285 41.069 92.0285 41.677C92.0285 42.5783 92.2178 43.293 92.5965 43.821C92.9805 44.3436 93.5432 44.605 94.2845 44.605ZM105.659 37.837H106.907V45.501H105.659V37.837ZM100.235 37.837H101.483V42.605C101.483 43.245 101.637 43.7303 101.947 44.061C102.261 44.3916 102.709 44.557 103.291 44.557C103.771 44.557 104.187 44.429 104.539 44.173C104.896 43.917 105.171 43.565 105.363 43.117C105.56 42.6636 105.659 42.1463 105.659 41.565H106.123C106.123 42.4236 105.997 43.157 105.747 43.765C105.501 44.373 105.152 44.8396 104.699 45.165C104.251 45.485 103.723 45.645 103.115 45.645C102.539 45.645 102.035 45.5383 101.603 45.325C101.171 45.1116 100.835 44.789 100.595 44.357C100.355 43.9196 100.235 43.3676 100.235 42.701V37.837ZM112.658 45.693C112.242 45.693 111.869 45.613 111.538 45.453C111.207 45.293 110.946 45.053 110.754 44.733C110.562 44.413 110.466 44.013 110.466 43.533V35.725H111.698V43.501C111.698 44.2903 112.066 44.685 112.802 44.685C113.021 44.685 113.231 44.661 113.434 44.613C113.642 44.565 113.874 44.493 114.13 44.397L114.306 45.293C114.034 45.4103 113.762 45.5063 113.49 45.581C113.223 45.6556 112.946 45.693 112.658 45.693ZM109.234 38.717V37.853H114.114V38.717H109.234ZM117.698 42.941V42.221C117.698 41.757 117.746 41.3756 117.842 41.077C117.943 40.7783 118.108 40.5196 118.338 40.301C118.567 40.0823 118.882 39.8636 119.282 39.645C119.639 39.453 119.924 39.2743 120.138 39.109C120.351 38.9436 120.503 38.765 120.594 38.573C120.69 38.381 120.738 38.1463 120.738 37.869C120.738 37.453 120.567 37.1063 120.226 36.829C119.89 36.5516 119.426 36.413 118.834 36.413C118.178 36.413 117.676 36.5436 117.33 36.805C116.983 37.061 116.764 37.421 116.674 37.885H115.346C115.42 37.1063 115.746 36.477 116.322 35.997C116.903 35.517 117.73 35.277 118.802 35.277C119.484 35.277 120.071 35.397 120.562 35.637C121.058 35.8716 121.436 36.189 121.698 36.589C121.964 36.9836 122.098 37.421 122.098 37.901C122.098 38.4503 121.959 38.9116 121.682 39.285C121.404 39.653 120.956 40.0023 120.338 40.333C119.98 40.5303 119.698 40.7143 119.49 40.885C119.287 41.0503 119.143 41.2423 119.058 41.461C118.972 41.6743 118.93 41.9543 118.93 42.301V42.941H117.698ZM118.338 45.693C118.071 45.693 117.85 45.6076 117.674 45.437C117.498 45.261 117.41 45.0503 117.41 44.805C117.41 44.5543 117.495 44.3383 117.666 44.157C117.842 43.9756 118.063 43.885 118.33 43.885C118.596 43.885 118.823 43.9756 119.01 44.157C119.202 44.333 119.298 44.5463 119.298 44.797C119.298 45.0423 119.204 45.253 119.018 45.429C118.831 45.605 118.604 45.693 118.338 45.693Z" fill="#333333"/>
</g>
<defs>
<filter id="filter0_d_7041_5838" x="0" y="0" width="198.767" height="68" filterUnits="userSpaceOnUse" color-interpolation-filters="sRGB">
<feFlood flood-opacity="0" result="BackgroundImageFix"/>
<feColorMatrix in="SourceAlpha" type="matrix" values="0 0 0 0 0 0 0 0 0 0 0 0 0 0 0 0 0 0 127 0" result="hardAlpha"/>
<feOffset dy="4"/>
<feGaussianBlur stdDeviation="3"/>
<feComposite in2="hardAlpha" operator="out"/>
<feColorMatrix type="matrix" values="0 0 0 0 0 0 0 0 0 0 0 0 0 0 0 0 0 0 0.1 0"/>
<feBlend mode="normal" in2="BackgroundImageFix" result="effect1_dropShadow_7041_5838"/>
<feBlend mode="normal" in="SourceGraphic" in2="effect1_dropShadow_7041_5838" result="shape"/>
</filter>
<filter id="filter1_d_7041_5838" x="24.616" y="12.5889" width="163.184" height="43.1045" filterUnits="userSpaceOnUse" color-interpolation-filters="sRGB">
<feFlood flood-opacity="0" result="BackgroundImageFix"/>
<feColorMatrix in="SourceAlpha" type="matrix" values="0 0 0 0 0 0 0 0 0 0 0 0 0 0 0 0 0 0 127 0" result="hardAlpha"/>
<feOffset dy="4"/>
<feGaussianBlur stdDeviation="3"/>
<feComposite in2="hardAlpha" operator="out"/>
<feColorMatrix type="matrix" values="0 0 0 0 0 0 0 0 0 0 0 0 0 0 0 0 0 0 0.05 0"/>
<feBlend mode="normal" in2="BackgroundImageFix" result="effect1_dropShadow_7041_5838"/>
<feBlend mode="normal" in="SourceGraphic" in2="effect1_dropShadow_7041_5838" result="shape"/>
</filter>
</defs>
</svg>
