<svg width="256" height="109" viewBox="0 0 256 109" fill="none" xmlns="http://www.w3.org/2000/svg">
<path d="M7.04318 53.8607L16.7659 64.5395L16.7659 87.5132C16.7659 93.8572 20.7947 99 25.7646 99L247.001 99C251.971 99 256 93.8572 256 87.5132V13.4868C256 7.14284 251.971 2 247.001 2L25.7646 2C20.7947 2 16.7659 7.14283 16.7659 13.4868L16.7659 38.375L7.15539 47.9385C5.66184 49.4248 5.60766 52.284 7.04318 53.8607Z" fill="white"/>
<g filter="url(#filter0_d_7069_6430)">
<mask id="path-2-inside-1_7069_6430" fill="white">
<path d="M7.04333 52.6331L16.7674 61L16.7674 90C16.7674 94.9706 20.7968 99 25.7674 99L228.035 99C233.005 99 237.035 94.9706 237.035 90V11C237.035 6.02944 233.005 2 228.035 2L25.7674 2C20.7968 2 16.7674 6.02944 16.7674 11L16.7674 40.5L7.15555 47.9931C5.66179 49.1575 5.60761 51.3978 7.04333 52.6331Z"/>
</mask>
<path d="M7.04333 52.6331L16.7674 61L16.7674 90C16.7674 94.9706 20.7968 99 25.7674 99L228.035 99C233.005 99 237.035 94.9706 237.035 90V11C237.035 6.02944 233.005 2 228.035 2L25.7674 2C20.7968 2 16.7674 6.02944 16.7674 11L16.7674 40.5L7.15555 47.9931C5.66179 49.1575 5.60761 51.3978 7.04333 52.6331Z" fill="white"/>
<path d="M16.7674 61H18.1674V60.3577L17.6805 59.9388L16.7674 61ZM7.04333 52.6331L6.13021 53.6944H6.13021L7.04333 52.6331ZM7.15555 47.9931L6.2948 46.8889H6.2948L7.15555 47.9931ZM16.7674 40.5L17.6281 41.6041L18.1674 41.1838V40.5H16.7674ZM25.7674 2V0.6V2ZM228.035 2V3.4V2ZM17.6805 59.9388L7.95644 51.5719L6.13021 53.6944L15.8542 62.0612L17.6805 59.9388ZM8.0163 49.0972L17.6281 41.6041L15.9066 39.3959L6.2948 46.8889L8.0163 49.0972ZM7.95644 51.5719C7.19073 50.9131 7.21963 49.7183 8.0163 49.0972L6.2948 46.8889C4.10396 48.5968 4.02449 51.8825 6.13021 53.6944L7.95644 51.5719ZM25.7674 3.4L228.035 3.4V0.600003L25.7674 0.6V3.4ZM235.635 11V90H238.435V11H235.635ZM228.035 97.6L25.7674 97.6V100.4L228.035 100.4V97.6ZM18.1674 40.5L18.1674 11H15.3674L15.3674 40.5H18.1674ZM18.1674 90L18.1674 61H15.3674L15.3674 90H18.1674ZM25.7674 97.6C21.57 97.6 18.1674 94.1974 18.1674 90H15.3674C15.3674 95.7438 20.0236 100.4 25.7674 100.4V97.6ZM235.635 90C235.635 94.1974 232.232 97.6 228.035 97.6V100.4C233.778 100.4 238.435 95.7438 238.435 90H235.635ZM228.035 3.4C232.232 3.4 235.635 6.80264 235.635 11H238.435C238.435 5.25624 233.778 0.600003 228.035 0.600003V3.4ZM25.7674 0.6C20.0236 0.6 15.3674 5.25624 15.3674 11H18.1674C18.1674 6.80264 21.57 3.4 25.7674 3.4V0.6Z" fill="#333333" mask="url(#path-2-inside-1_7069_6430)"/>
</g>
<g filter="url(#filter1_d_7069_6430)">
<path d="M32.352 18.296C32.1387 18.296 31.9493 18.24 31.784 18.128C31.6187 18.016 31.488 17.864 31.392 17.672C31.296 17.48 31.248 17.2667 31.248 17.032C31.248 16.648 31.3733 16.272 31.624 15.904C31.88 15.5307 32.24 15.224 32.704 14.984L33.6 15.464C33.296 15.6133 33.0373 15.7867 32.824 15.984C32.616 16.1813 32.4747 16.4133 32.4 16.68C32.6507 16.7013 32.8533 16.7787 33.008 16.912C33.168 17.04 33.248 17.2187 33.248 17.448C33.248 17.6773 33.1653 17.8773 33 18.048C32.84 18.2133 32.624 18.296 32.352 18.296ZM29.68 18.296C29.4667 18.296 29.2773 18.24 29.112 18.128C28.9467 18.016 28.816 17.864 28.72 17.672C28.624 17.48 28.576 17.2667 28.576 17.032C28.576 16.648 28.7013 16.272 28.952 15.904C29.208 15.5307 29.568 15.224 30.032 14.984L30.928 15.464C30.624 15.6133 30.3653 15.7867 30.152 15.984C29.944 16.1813 29.8027 16.4133 29.728 16.68C29.9787 16.7013 30.1813 16.7787 30.336 16.912C30.496 17.04 30.576 17.2187 30.576 17.448C30.576 17.6773 30.4933 17.8773 30.328 18.048C30.168 18.2133 29.952 18.296 29.68 18.296ZM36.1659 25L36.1659 14.952L39.3979 14.952C40.5019 14.952 41.3445 15.232 41.9259 15.792C42.5125 16.3467 42.8059 17.1013 42.8059 18.056C42.8059 19 42.5125 19.7493 41.9259 20.304C41.3445 20.8533 40.5019 21.128 39.3979 21.128L37.4299 21.128L37.4299 25L36.1659 25ZM37.4299 20.04L39.3979 20.04C40.0965 20.04 40.6245 19.8613 40.9819 19.504C41.3445 19.1467 41.5259 18.664 41.5259 18.056C41.5259 17.4373 41.3445 16.944 40.9819 16.576C40.6245 16.208 40.0965 16.024 39.3979 16.024L37.4299 16.024L37.4299 20.04ZM50.4173 17.336L51.6652 17.336L51.6652 25L50.4173 25L50.4173 17.336ZM44.9932 17.336L46.2412 17.336L46.2412 22.104C46.2412 22.744 46.3959 23.2293 46.7052 23.56C47.0199 23.8907 47.4679 24.056 48.0493 24.056C48.5293 24.056 48.9452 23.928 49.2972 23.672C49.6546 23.416 49.9293 23.064 50.1213 22.616C50.3186 22.1627 50.4173 21.6453 50.4173 21.064L50.8812 21.064C50.8812 21.9227 50.7559 22.656 50.5053 23.264C50.2599 23.872 49.9106 24.3387 49.4573 24.664C49.0092 24.984 48.4812 25.144 47.8733 25.144C47.2972 25.144 46.7932 25.0373 46.3612 24.824C45.9292 24.6107 45.5932 24.288 45.3532 23.856C45.1132 23.4187 44.9932 22.8667 44.9932 22.2L44.9932 17.336ZM57.4167 25.192C57.0007 25.192 56.6274 25.112 56.2967 24.952C55.9661 24.792 55.7047 24.552 55.5127 24.232C55.3207 23.912 55.2247 23.512 55.2247 23.032L55.2247 15.224L56.4567 15.224L56.4567 23C56.4567 23.7893 56.8247 24.184 57.5607 24.184C57.7794 24.184 57.9901 24.16 58.1928 24.112C58.4007 24.064 58.6327 23.992 58.8887 23.896L59.0647 24.792C58.7927 24.9093 58.5207 25.0053 58.2487 25.08C57.9821 25.1547 57.7047 25.192 57.4167 25.192ZM53.9927 18.216L53.9927 17.352L58.8727 17.352L58.8727 18.216L53.9927 18.216ZM67.5492 25.192C67.1332 25.192 66.7599 25.112 66.4292 24.952C66.0986 24.792 65.8372 24.552 65.6452 24.232C65.4532 23.912 65.3572 23.512 65.3572 23.032L65.3572 15.224L66.5892 15.224L66.5892 23C66.5892 23.7893 66.9572 24.184 67.6932 24.184C67.9119 24.184 68.1226 24.16 68.3252 24.112C68.5332 24.064 68.7652 23.992 69.0212 23.896L69.1972 24.792C68.9252 24.9093 68.6532 25.0053 68.3812 25.08C68.1146 25.1547 67.8372 25.192 67.5492 25.192ZM64.1252 18.216L64.1252 17.352L69.0052 17.352L69.0052 18.216L64.1252 18.216ZM76.8129 25L76.8129 20.504C76.8129 19.7733 76.6369 19.2187 76.2849 18.84C75.9382 18.456 75.4635 18.264 74.8609 18.264C74.4022 18.264 74.0049 18.3893 73.6689 18.64C73.3329 18.8907 73.0742 19.2507 72.8929 19.72C72.7115 20.184 72.6209 20.7387 72.6209 21.384L72.1409 21.384C72.1409 20.4933 72.2582 19.7333 72.4929 19.104C72.7275 18.4747 73.0689 17.9947 73.5169 17.664C73.9702 17.328 74.5195 17.16 75.1649 17.16C75.7675 17.16 76.2822 17.296 76.7089 17.568C77.1409 17.8347 77.4715 18.2187 77.7009 18.72C77.9302 19.2213 78.0449 19.816 78.0449 20.504L78.0449 25L76.8129 25ZM71.3729 25L71.3729 14.088L72.6209 14.088L72.6209 25L71.3729 25ZM83.8451 25.192C83.1838 25.192 82.5918 25.024 82.0691 24.688C81.5518 24.3467 81.1411 23.8747 80.8371 23.272C80.5385 22.6693 80.3891 21.976 80.3891 21.192C80.3891 20.3547 80.5385 19.6347 80.8371 19.032C81.1358 18.4293 81.5438 17.968 82.0611 17.648C82.5838 17.3227 83.1785 17.16 83.8451 17.16C84.4265 17.16 84.9225 17.2773 85.3331 17.512C85.7438 17.7467 86.0745 18.064 86.3251 18.464C86.5758 18.864 86.7491 19.3173 86.8451 19.824C86.9465 20.3253 86.9758 20.8453 86.9331 21.384L81.3971 21.384L81.3971 20.616L86.1091 20.616L85.7411 20.856C85.7571 20.5413 85.7385 20.2267 85.6851 19.912C85.6371 19.5973 85.5438 19.3093 85.4051 19.048C85.2665 18.7813 85.0718 18.568 84.8211 18.408C84.5705 18.248 84.2505 18.168 83.8611 18.168C83.3705 18.168 82.9598 18.2933 82.6291 18.544C82.2985 18.7947 82.0505 19.1253 81.8851 19.536C81.7198 19.9413 81.6371 20.3813 81.6371 20.856L81.6371 21.368C81.6371 21.9013 81.7171 22.3787 81.8771 22.8C82.0425 23.2213 82.2878 23.5547 82.6131 23.8C82.9385 24.0453 83.3491 24.168 83.8451 24.168C84.3411 24.168 84.7491 24.048 85.0691 23.808C85.3891 23.568 85.5838 23.2133 85.6531 22.744L86.9491 22.744C86.8691 23.2507 86.6878 23.688 86.4051 24.056C86.1225 24.4187 85.7625 24.6987 85.3251 24.896C84.8878 25.0933 84.3945 25.192 83.8451 25.192ZM96.2607 25.192C95.6421 25.192 95.0741 25.0267 94.5567 24.696C94.0394 24.36 93.6261 23.8907 93.3167 23.288C93.0074 22.68 92.8527 21.9653 92.8527 21.144C92.8527 20.328 93.0047 19.6213 93.3087 19.024C93.6127 18.4267 94.0154 17.968 94.5167 17.648C95.0234 17.3227 95.5781 17.16 96.1807 17.16C96.7407 17.16 97.2314 17.296 97.6527 17.568C98.0794 17.84 98.4101 18.232 98.6447 18.744C98.8794 19.256 98.9967 19.8747 98.9967 20.6L98.5167 20.6C98.5167 20.0933 98.4154 19.6667 98.2127 19.32C98.0154 18.9733 97.7567 18.712 97.4367 18.536C97.1167 18.3547 96.7727 18.264 96.4047 18.264C95.9887 18.264 95.6074 18.3813 95.2607 18.616C94.9194 18.8453 94.6447 19.176 94.4367 19.608C94.2341 20.0347 94.1327 20.5467 94.1327 21.144C94.1327 21.752 94.2341 22.2747 94.4367 22.712C94.6447 23.1493 94.9194 23.4853 95.2607 23.72C95.6074 23.9547 95.9887 24.072 96.4047 24.072C96.7514 24.072 97.0847 23.9813 97.4047 23.8C97.7301 23.6187 97.9967 23.3547 98.2047 23.008C98.4127 22.656 98.5167 22.232 98.5167 21.736L98.9967 21.736C98.9967 22.4773 98.8741 23.1067 98.6287 23.624C98.3887 24.136 98.0607 24.5253 97.6447 24.792C97.2341 25.0587 96.7727 25.192 96.2607 25.192ZM98.7247 25L98.5167 23.208L98.5167 14.088L99.7647 14.088L99.7647 25L98.7247 25ZM103.873 15.544C103.617 15.544 103.414 15.472 103.265 15.328C103.116 15.1787 103.041 14.984 103.041 14.744C103.041 14.5093 103.116 14.3227 103.265 14.184C103.414 14.0453 103.617 13.976 103.873 13.976C104.129 13.976 104.332 14.0453 104.481 14.184C104.63 14.3227 104.705 14.5093 104.705 14.744C104.705 14.984 104.63 15.1787 104.481 15.328C104.332 15.472 104.129 15.544 103.873 15.544ZM103.249 25L103.249 17.336L104.497 17.336L104.497 25L103.249 25ZM110.799 28.936C110.015 28.936 109.335 28.824 108.759 28.6C108.183 28.3813 107.735 28.0853 107.415 27.712C107.1 27.344 106.943 26.936 106.943 26.488C106.943 25.896 107.159 25.4427 107.591 25.128C108.028 24.8187 108.591 24.664 109.279 24.664L109.967 25.096C109.391 25.096 108.945 25.216 108.631 25.456C108.316 25.696 108.159 26.024 108.159 26.44C108.159 26.856 108.383 27.208 108.831 27.496C109.279 27.784 109.935 27.928 110.799 27.928C111.439 27.928 111.999 27.8347 112.479 27.648C112.964 27.4667 113.34 27.2267 113.607 26.928C113.879 26.6347 114.015 26.3173 114.015 25.976C114.015 25.736 113.927 25.528 113.751 25.352C113.575 25.1813 113.305 25.096 112.943 25.096L109.967 25.096C109.449 25.096 109.001 25.0187 108.623 24.864C108.249 24.704 107.961 24.496 107.759 24.24C107.556 23.984 107.455 23.704 107.455 23.4C107.455 23.08 107.545 22.808 107.727 22.584C107.908 22.36 108.143 22.1893 108.431 22.072C108.724 21.9547 109.039 21.896 109.375 21.896L109.615 22.36C109.455 22.36 109.292 22.3973 109.127 22.472C108.967 22.5413 108.831 22.648 108.719 22.792C108.612 22.9307 108.559 23.1067 108.559 23.32C108.559 23.5653 108.66 23.7707 108.863 23.936C109.065 24.1013 109.433 24.184 109.967 24.184L112.943 24.184C113.663 24.184 114.228 24.336 114.639 24.64C115.055 24.944 115.263 25.368 115.263 25.912C115.263 26.4133 115.084 26.8933 114.727 27.352C114.369 27.816 113.857 28.1947 113.191 28.488C112.524 28.7867 111.727 28.936 110.799 28.936ZM111.023 22.76C110.436 22.76 109.905 22.6427 109.431 22.408C108.961 22.1733 108.588 21.8453 108.311 21.424C108.039 21.0027 107.903 20.5147 107.903 19.96C107.903 19.4 108.039 18.9093 108.311 18.488C108.588 18.0667 108.961 17.7413 109.431 17.512C109.905 17.2773 110.436 17.16 111.023 17.16C111.593 17.16 112.111 17.2773 112.575 17.512C113.044 17.7413 113.417 18.0667 113.695 18.488C113.972 18.9093 114.111 19.4 114.111 19.96C114.111 20.5147 113.972 21.0027 113.695 21.424C113.417 21.8453 113.044 22.1733 112.575 22.408C112.111 22.6427 111.593 22.76 111.023 22.76ZM111.023 21.864C111.609 21.864 112.065 21.6827 112.391 21.32C112.716 20.9573 112.879 20.504 112.879 19.96C112.879 19.4 112.716 18.9467 112.391 18.6C112.065 18.248 111.609 18.072 111.023 18.072C110.441 18.072 109.983 18.248 109.647 18.6C109.316 18.9467 109.151 19.4 109.151 19.96C109.151 20.504 109.316 20.9573 109.647 21.32C109.983 21.6827 110.441 21.864 111.023 21.864ZM113.535 18.376L112.943 18.136C112.943 17.688 113.031 17.296 113.207 16.96C113.383 16.6187 113.633 16.3547 113.959 16.168C114.284 15.976 114.671 15.88 115.119 15.88L115.023 17.112C114.543 17.112 114.175 17.216 113.919 17.424C113.663 17.6267 113.535 17.944 113.535 18.376ZM119.942 25.192C119.281 25.192 118.689 25.024 118.166 24.688C117.649 24.3467 117.238 23.8747 116.934 23.272C116.635 22.6693 116.486 21.976 116.486 21.192C116.486 20.3547 116.635 19.6347 116.934 19.032C117.233 18.4293 117.641 17.968 118.158 17.648C118.681 17.3227 119.275 17.16 119.942 17.16C120.523 17.16 121.019 17.2773 121.43 17.512C121.841 17.7467 122.171 18.064 122.422 18.464C122.673 18.864 122.846 19.3173 122.942 19.824C123.043 20.3253 123.073 20.8453 123.03 21.384L117.494 21.384L117.494 20.616L122.206 20.616L121.838 20.856C121.854 20.5413 121.835 20.2267 121.782 19.912C121.734 19.5973 121.641 19.3093 121.502 19.048C121.363 18.7813 121.169 18.568 120.918 18.408C120.667 18.248 120.347 18.168 119.958 18.168C119.467 18.168 119.057 18.2933 118.726 18.544C118.395 18.7947 118.147 19.1253 117.982 19.536C117.817 19.9413 117.734 20.3813 117.734 20.856L117.734 21.368C117.734 21.9013 117.814 22.3787 117.974 22.8C118.139 23.2213 118.385 23.5547 118.71 23.8C119.035 24.0453 119.446 24.168 119.942 24.168C120.438 24.168 120.846 24.048 121.166 23.808C121.486 23.568 121.681 23.2133 121.75 22.744L123.046 22.744C122.966 23.2507 122.785 23.688 122.502 24.056C122.219 24.4187 121.859 24.6987 121.422 24.896C120.985 25.0933 120.491 25.192 119.942 25.192ZM128.417 25.192C127.675 25.192 127.057 25.088 126.561 24.88C126.065 24.6667 125.689 24.376 125.433 24.008C125.177 23.6347 125.041 23.208 125.025 22.728L126.225 22.728C126.251 23.2133 126.446 23.5787 126.809 23.824C127.177 24.064 127.675 24.184 128.305 24.184C128.635 24.184 128.939 24.1307 129.217 24.024C129.494 23.9173 129.715 23.7707 129.881 23.584C130.046 23.3973 130.129 23.1867 130.129 22.952C130.129 22.6533 130.019 22.4187 129.801 22.248C129.582 22.0773 129.233 21.928 128.753 21.8L127.265 21.32C126.619 21.1173 126.123 20.84 125.777 20.488C125.435 20.1307 125.265 19.704 125.265 19.208C125.265 18.5893 125.537 18.0933 126.081 17.72C126.625 17.3467 127.339 17.16 128.225 17.16C129.163 17.16 129.891 17.352 130.409 17.736C130.926 18.12 131.195 18.6 131.217 19.176L129.985 19.176C129.937 18.84 129.766 18.5867 129.473 18.416C129.179 18.24 128.763 18.152 128.225 18.152C127.707 18.152 127.302 18.2693 127.009 18.504C126.721 18.7333 126.577 18.9893 126.577 19.272C126.577 19.8 127.03 20.1893 127.937 20.44L129.457 20.952C130.113 21.1493 130.614 21.408 130.961 21.728C131.313 22.048 131.489 22.456 131.489 22.952C131.489 23.336 131.363 23.6987 131.113 24.04C130.862 24.3813 130.507 24.6587 130.049 24.872C129.59 25.0853 129.046 25.192 128.417 25.192ZM136.583 25.192C136.167 25.192 135.794 25.112 135.463 24.952C135.132 24.792 134.871 24.552 134.679 24.232C134.487 23.912 134.391 23.512 134.391 23.032L134.391 15.224L135.623 15.224L135.623 23C135.623 23.7893 135.991 24.184 136.727 24.184C136.946 24.184 137.156 24.16 137.359 24.112C137.567 24.064 137.799 23.992 138.055 23.896L138.231 24.792C137.959 24.9093 137.687 25.0053 137.415 25.08C137.148 25.1547 136.871 25.192 136.583 25.192ZM133.159 18.216L133.159 17.352L138.039 17.352L138.039 18.216L133.159 18.216ZM141.111 15.544C140.855 15.544 140.652 15.472 140.503 15.328C140.353 15.1787 140.279 14.984 140.279 14.744C140.279 14.5093 140.353 14.3227 140.503 14.184C140.652 14.0453 140.855 13.976 141.111 13.976C141.367 13.976 141.569 14.0453 141.719 14.184C141.868 14.3227 141.943 14.5093 141.943 14.744C141.943 14.984 141.868 15.1787 141.719 15.328C141.569 15.472 141.367 15.544 141.111 15.544ZM140.487 25L140.487 17.336L141.735 17.336L141.735 25L140.487 25ZM144.004 17.352L145.428 17.352L147.828 23.928L147.652 23.928L150.052 17.352L151.476 17.352L148.42 25L147.06 25L144.004 17.352ZM156.195 25.192C155.534 25.192 154.942 25.024 154.419 24.688C153.902 24.3467 153.491 23.8747 153.187 23.272C152.888 22.6693 152.739 21.976 152.739 21.192C152.739 20.3547 152.888 19.6347 153.187 19.032C153.486 18.4293 153.894 17.968 154.411 17.648C154.934 17.3227 155.528 17.16 156.195 17.16C156.776 17.16 157.272 17.2773 157.683 17.512C158.094 17.7467 158.424 18.064 158.675 18.464C158.926 18.864 159.099 19.3173 159.195 19.824C159.296 20.3253 159.326 20.8453 159.283 21.384L153.747 21.384L153.747 20.616L158.459 20.616L158.091 20.856C158.107 20.5413 158.088 20.2267 158.035 19.912C157.987 19.5973 157.894 19.3093 157.755 19.048C157.616 18.7813 157.422 18.568 157.171 18.408C156.92 18.248 156.6 18.168 156.211 18.168C155.72 18.168 155.31 18.2933 154.979 18.544C154.648 18.7947 154.4 19.1253 154.235 19.536C154.07 19.9413 153.987 20.3813 153.987 20.856L153.987 21.368C153.987 21.9013 154.067 22.3787 154.227 22.8C154.392 23.2213 154.638 23.5547 154.963 23.8C155.288 24.0453 155.699 24.168 156.195 24.168C156.691 24.168 157.099 24.048 157.419 23.808C157.739 23.568 157.934 23.2133 158.003 22.744L159.299 22.744C159.219 23.2507 159.038 23.688 158.755 24.056C158.472 24.4187 158.112 24.6987 157.675 24.896C157.238 25.0933 156.744 25.192 156.195 25.192ZM169.379 25.192C168.867 25.192 168.403 25.0587 167.987 24.792C167.576 24.5253 167.248 24.136 167.003 23.624C166.763 23.1067 166.643 22.4773 166.643 21.736L167.123 21.736C167.123 22.232 167.224 22.656 167.427 23.008C167.635 23.3547 167.901 23.6187 168.227 23.8C168.552 23.9813 168.893 24.072 169.251 24.072C169.661 24.072 170.037 23.9547 170.379 23.72C170.72 23.4853 170.992 23.1493 171.195 22.712C171.403 22.2747 171.507 21.752 171.507 21.144C171.507 20.5467 171.405 20.0347 171.203 19.608C171 19.176 170.725 18.8453 170.379 18.616C170.037 18.3813 169.656 18.264 169.235 18.264C168.872 18.264 168.528 18.3547 168.203 18.536C167.883 18.712 167.621 18.9733 167.419 19.32C167.221 19.6667 167.123 20.0933 167.123 20.6L166.643 20.6C166.643 19.8747 166.76 19.256 166.995 18.744C167.235 18.232 167.565 17.84 167.987 17.568C168.408 17.296 168.899 17.16 169.459 17.16C170.061 17.16 170.613 17.3227 171.115 17.648C171.621 17.968 172.027 18.4267 172.331 19.024C172.635 19.6213 172.787 20.328 172.787 21.144C172.787 21.9653 172.632 22.68 172.323 23.288C172.013 23.8907 171.6 24.36 171.083 24.696C170.565 25.0267 169.997 25.192 169.379 25.192ZM165.875 25L165.875 14.088L167.123 14.088L167.123 23.208L166.755 25L165.875 25ZM176.223 15.544C175.967 15.544 175.764 15.472 175.615 15.328C175.466 15.1787 175.391 14.984 175.391 14.744C175.391 14.5093 175.466 14.3227 175.615 14.184C175.764 14.0453 175.967 13.976 176.223 13.976C176.479 13.976 176.682 14.0453 176.831 14.184C176.98 14.3227 177.055 14.5093 177.055 14.744C177.055 14.984 176.98 15.1787 176.831 15.328C176.682 15.472 176.479 15.544 176.223 15.544ZM175.599 25L175.599 17.336L176.847 17.336L176.847 25L175.599 25ZM183.197 25.192C182.455 25.192 181.837 25.088 181.341 24.88C180.845 24.6667 180.469 24.376 180.213 24.008C179.957 23.6347 179.821 23.208 179.805 22.728L181.005 22.728C181.031 23.2133 181.226 23.5787 181.589 23.824C181.957 24.064 182.455 24.184 183.085 24.184C183.415 24.184 183.719 24.1307 183.997 24.024C184.274 23.9173 184.495 23.7707 184.661 23.584C184.826 23.3973 184.909 23.1867 184.909 22.952C184.909 22.6533 184.799 22.4187 184.581 22.248C184.362 22.0773 184.013 21.928 183.533 21.8L182.045 21.32C181.399 21.1173 180.903 20.84 180.557 20.488C180.215 20.1307 180.045 19.704 180.045 19.208C180.045 18.5893 180.317 18.0933 180.861 17.72C181.405 17.3467 182.119 17.16 183.005 17.16C183.943 17.16 184.671 17.352 185.189 17.736C185.706 18.12 185.975 18.6 185.997 19.176L184.765 19.176C184.717 18.84 184.546 18.5867 184.253 18.416C183.959 18.24 183.543 18.152 183.005 18.152C182.487 18.152 182.082 18.2693 181.789 18.504C181.501 18.7333 181.357 18.9893 181.357 19.272C181.357 19.8 181.81 20.1893 182.717 20.44L184.237 20.952C184.893 21.1493 185.394 21.408 185.741 21.728C186.093 22.048 186.269 22.456 186.269 22.952C186.269 23.336 186.143 23.6987 185.893 24.04C185.642 24.3813 185.287 24.6587 184.829 24.872C184.37 25.0853 183.826 25.192 183.197 25.192ZM191.699 25.192C191.086 25.192 190.512 25.0267 189.979 24.696C189.451 24.3653 189.024 23.8987 188.699 23.296C188.374 22.6933 188.211 21.9813 188.211 21.16C188.211 20.3173 188.374 19.5973 188.699 19C189.024 18.4027 189.451 17.9467 189.979 17.632C190.512 17.3173 191.086 17.16 191.699 17.16C192.131 17.16 192.518 17.2267 192.859 17.36C193.206 17.488 193.507 17.6667 193.763 17.896C194.019 18.1253 194.23 18.3867 194.395 18.68C194.566 18.968 194.691 19.272 194.771 19.592L193.491 19.704C193.358 19.2613 193.134 18.912 192.819 18.656C192.51 18.3947 192.131 18.264 191.683 18.264C191.304 18.264 190.947 18.3733 190.611 18.592C190.28 18.8053 190.011 19.128 189.803 19.56C189.595 19.9867 189.491 20.52 189.491 21.16C189.491 21.752 189.584 22.2667 189.771 22.704C189.963 23.136 190.224 23.472 190.555 23.712C190.886 23.952 191.262 24.072 191.683 24.072C192.275 24.072 192.723 23.928 193.027 23.64C193.336 23.3467 193.491 22.9413 193.491 22.424L194.771 22.424C194.771 22.9573 194.646 23.432 194.395 23.848C194.144 24.264 193.787 24.592 193.323 24.832C192.864 25.072 192.323 25.192 191.699 25.192ZM202.621 17.336L203.869 17.336L203.869 25L202.621 25L202.621 17.336ZM197.197 17.336L198.445 17.336L198.445 22.104C198.445 22.744 198.6 23.2293 198.909 23.56C199.224 23.8907 199.672 24.056 200.253 24.056C200.733 24.056 201.149 23.928 201.501 23.672C201.858 23.416 202.133 23.064 202.325 22.616C202.522 22.1627 202.621 21.6453 202.621 21.064L203.085 21.064C203.085 21.9227 202.96 22.656 202.709 23.264C202.464 23.872 202.114 24.3387 201.661 24.664C201.213 24.984 200.685 25.144 200.077 25.144C199.501 25.144 198.997 25.0373 198.565 24.824C198.133 24.6107 197.797 24.288 197.557 23.856C197.317 23.4187 197.197 22.8667 197.197 22.2L197.197 17.336ZM207.972 15.544C207.716 15.544 207.514 15.472 207.364 15.328C207.215 15.1787 207.14 14.984 207.14 14.744C207.14 14.5093 207.215 14.3227 207.364 14.184C207.514 14.0453 207.716 13.976 207.972 13.976C208.228 13.976 208.431 14.0453 208.58 14.184C208.73 14.3227 208.804 14.5093 208.804 14.744C208.804 14.984 208.73 15.1787 208.58 15.328C208.431 15.472 208.228 15.544 207.972 15.544ZM207.348 25L207.348 17.336L208.596 17.336L208.596 25L207.348 25ZM214.546 25.192C214.13 25.192 213.757 25.112 213.426 24.952C213.095 24.792 212.834 24.552 212.642 24.232C212.45 23.912 212.354 23.512 212.354 23.032L212.354 15.224L213.586 15.224L213.586 23C213.586 23.7893 213.954 24.184 214.69 24.184C214.909 24.184 215.119 24.16 215.322 24.112C215.53 24.064 215.762 23.992 216.018 23.896L216.194 24.792C215.922 24.9093 215.65 25.0053 215.378 25.08C215.111 25.1547 214.834 25.192 214.546 25.192ZM211.122 18.216L211.122 17.352L216.002 17.352L216.002 18.216L211.122 18.216ZM221.122 25.192C220.38 25.192 219.762 25.088 219.266 24.88C218.77 24.6667 218.394 24.376 218.138 24.008C217.882 23.6347 217.746 23.208 217.73 22.728L218.93 22.728C218.956 23.2133 219.151 23.5787 219.514 23.824C219.882 24.064 220.38 24.184 221.01 24.184C221.34 24.184 221.644 24.1307 221.922 24.024C222.199 23.9173 222.42 23.7707 222.586 23.584C222.751 23.3973 222.834 23.1867 222.834 22.952C222.834 22.6533 222.724 22.4187 222.506 22.248C222.287 22.0773 221.938 21.928 221.458 21.8L219.97 21.32C219.324 21.1173 218.828 20.84 218.482 20.488C218.14 20.1307 217.97 19.704 217.97 19.208C217.97 18.5893 218.242 18.0933 218.786 17.72C219.33 17.3467 220.044 17.16 220.93 17.16C221.868 17.16 222.596 17.352 223.114 17.736C223.631 18.12 223.9 18.6 223.922 19.176L222.69 19.176C222.642 18.84 222.471 18.5867 222.178 18.416C221.884 18.24 221.468 18.152 220.93 18.152C220.412 18.152 220.007 18.2693 219.714 18.504C219.426 18.7333 219.282 18.9893 219.282 19.272C219.282 19.8 219.735 20.1893 220.642 20.44L222.162 20.952C222.818 21.1493 223.319 21.408 223.666 21.728C224.018 22.048 224.194 22.456 224.194 22.952C224.194 23.336 224.068 23.6987 223.818 24.04C223.567 24.3813 223.212 24.6587 222.754 24.872C222.295 25.0853 221.751 25.192 221.122 25.192ZM30.32 35.544C30.064 35.544 29.8613 35.472 29.712 35.328C29.5627 35.1787 29.488 34.984 29.488 34.744C29.488 34.5093 29.5627 34.3227 29.712 34.184C29.8613 34.0453 30.064 33.976 30.32 33.976C30.576 33.976 30.7787 34.0453 30.928 34.184C31.0773 34.3227 31.152 34.5093 31.152 34.744C31.152 34.984 31.0773 35.1787 30.928 35.328C30.7787 35.472 30.576 35.544 30.32 35.544ZM29.696 45L29.696 37.336L30.944 37.336L30.944 45L29.696 45ZM39.9816 45L39.9816 40.504C39.9816 39.7733 39.8056 39.2187 39.4536 38.84C39.107 38.456 38.6323 38.264 38.0296 38.264C37.571 38.264 37.1736 38.3893 36.8376 38.64C36.5016 38.8907 36.243 39.2507 36.0616 39.72C35.8803 40.184 35.7896 40.7387 35.7896 41.384L35.3096 41.384C35.3096 40.4933 35.427 39.7333 35.6616 39.104C35.8963 38.4747 36.2376 37.9947 36.6856 37.664C37.139 37.328 37.6883 37.16 38.3336 37.16C38.9363 37.16 39.451 37.296 39.8776 37.568C40.3096 37.8347 40.6403 38.2187 40.8696 38.72C41.099 39.2213 41.2136 39.816 41.2136 40.504L41.2136 45L39.9816 45ZM34.5416 45L34.5416 37.352L35.6136 37.352L35.7896 39.112L35.7896 45L34.5416 45ZM53.0507 45L52.8907 43.32L52.8907 40.04C52.8907 39.352 52.7441 38.8587 52.4507 38.56C52.1574 38.256 51.7174 38.104 51.1307 38.104C50.8001 38.104 50.4987 38.152 50.2267 38.248C49.9601 38.344 49.7467 38.4933 49.5867 38.696C49.4321 38.8933 49.3547 39.1493 49.3547 39.464L47.9627 39.464C47.9627 38.9093 48.0987 38.464 48.3707 38.128C48.6427 37.7867 49.0161 37.5413 49.4907 37.392C49.9707 37.2373 50.5174 37.16 51.1307 37.16C51.7174 37.16 52.2374 37.2587 52.6907 37.456C53.1441 37.6533 53.4987 37.968 53.7547 38.4C54.0108 38.8267 54.1388 39.384 54.1388 40.072L54.1388 45L53.0507 45ZM50.4427 45.192C49.8134 45.192 49.2934 45.08 48.8827 44.856C48.4721 44.632 48.1654 44.3413 47.9627 43.984C47.7601 43.6267 47.6587 43.2507 47.6587 42.856C47.6587 42.3387 47.7867 41.9173 48.0427 41.592C48.3041 41.2667 48.6587 41.0293 49.1067 40.88C49.5547 40.7253 50.0587 40.648 50.6187 40.648C51.0187 40.648 51.4187 40.688 51.8187 40.768C52.2241 40.848 52.6187 40.9573 53.0027 41.096L53.0027 41.88C52.6827 41.752 52.3201 41.6507 51.9147 41.576C51.5147 41.5013 51.1467 41.464 50.8107 41.464C50.2987 41.464 49.8667 41.5707 49.5147 41.784C49.1627 41.992 48.9867 42.3493 48.9867 42.856C48.9867 43.2293 49.1201 43.5493 49.3867 43.816C49.6587 44.0827 50.0907 44.216 50.6827 44.216C51.0987 44.216 51.4721 44.12 51.8027 43.928C52.1387 43.7307 52.4027 43.4853 52.5947 43.192C52.7921 42.8987 52.8907 42.6053 52.8907 42.312L53.1947 42.312C53.1947 42.824 53.0827 43.2987 52.8587 43.736C52.6401 44.1733 52.3254 44.5253 51.9147 44.792C51.5041 45.0587 51.0134 45.192 50.4427 45.192ZM64.7161 45.192C64.1561 45.192 63.6681 45.064 63.2521 44.808C62.8415 44.552 62.5241 44.1787 62.3001 43.688C62.0761 43.192 61.9641 42.5893 61.9641 41.88L62.4921 41.88C62.4921 42.3547 62.5908 42.7547 62.7881 43.08C62.9855 43.4053 63.2415 43.6533 63.5561 43.824C63.8761 43.9893 64.2148 44.072 64.5721 44.072C64.9561 44.072 65.3241 43.9627 65.6761 43.744C66.0281 43.52 66.3161 43.192 66.5401 42.76C66.7641 42.328 66.8761 41.7947 66.8761 41.16C66.8761 40.552 66.7721 40.032 66.5641 39.6C66.3615 39.168 66.0868 38.8373 65.7401 38.608C65.3935 38.3787 65.0095 38.264 64.5881 38.264C64.2255 38.264 63.8841 38.352 63.5641 38.528C63.2441 38.704 62.9855 38.9627 62.7881 39.304C62.5908 39.64 62.4921 40.056 62.4921 40.552L61.9641 40.552C61.9641 39.8107 62.0868 39.1893 62.3321 38.688C62.5775 38.1813 62.9108 37.8 63.3321 37.544C63.7535 37.288 64.2255 37.16 64.7481 37.16C65.3455 37.16 65.9028 37.32 66.4201 37.64C66.9375 37.96 67.3561 38.4187 67.6761 39.016C67.9961 39.6133 68.1561 40.328 68.1561 41.16C68.1561 42.0027 67.9935 42.7253 67.6681 43.328C67.3481 43.9307 66.9268 44.392 66.4041 44.712C65.8815 45.032 65.3188 45.192 64.7161 45.192ZM61.2441 48.76L61.2441 37.352L62.2841 37.352L62.4921 39.144L62.4921 48.76L61.2441 48.76ZM70.7635 45L70.7635 34.088L72.0115 34.088L72.0115 45L70.7635 45ZM80.1439 45L79.9839 43.32L79.9839 40.04C79.9839 39.352 79.8372 38.8587 79.5439 38.56C79.2505 38.256 78.8105 38.104 78.2239 38.104C77.8932 38.104 77.5919 38.152 77.3199 38.248C77.0532 38.344 76.8399 38.4933 76.6799 38.696C76.5252 38.8933 76.4479 39.1493 76.4479 39.464L75.0559 39.464C75.0559 38.9093 75.1919 38.464 75.4639 38.128C75.7359 37.7867 76.1092 37.5413 76.5839 37.392C77.0639 37.2373 77.6105 37.16 78.2239 37.16C78.8105 37.16 79.3305 37.2587 79.7839 37.456C80.2372 37.6533 80.5919 37.968 80.8479 38.4C81.1039 38.8267 81.2319 39.384 81.2319 40.072L81.2319 45L80.1439 45ZM77.5359 45.192C76.9065 45.192 76.3865 45.08 75.9759 44.856C75.5652 44.632 75.2585 44.3413 75.0559 43.984C74.8532 43.6267 74.7519 43.2507 74.7519 42.856C74.7519 42.3387 74.8799 41.9173 75.1359 41.592C75.3972 41.2667 75.7519 41.0293 76.1999 40.88C76.6479 40.7253 77.1519 40.648 77.7119 40.648C78.1119 40.648 78.5119 40.688 78.9119 40.768C79.3172 40.848 79.7119 40.9573 80.0959 41.096L80.0959 41.88C79.7759 41.752 79.4132 41.6507 79.0079 41.576C78.6079 41.5013 78.2399 41.464 77.9039 41.464C77.3919 41.464 76.9599 41.5707 76.6079 41.784C76.2559 41.992 76.0799 42.3493 76.0799 42.856C76.0799 43.2293 76.2132 43.5493 76.4799 43.816C76.7519 44.0827 77.1839 44.216 77.7759 44.216C78.1919 44.216 78.5652 44.12 78.8959 43.928C79.2319 43.7307 79.4959 43.4853 79.6879 43.192C79.8852 42.8987 79.9839 42.6053 79.9839 42.312L80.2879 42.312C80.2879 42.824 80.1759 43.2987 79.9519 43.736C79.7332 44.1733 79.4185 44.5253 79.0079 44.792C78.5972 45.0587 78.1065 45.192 77.5359 45.192ZM87.1324 45.192C86.391 45.192 85.7724 45.088 85.2764 44.88C84.7804 44.6667 84.4044 44.376 84.1484 44.008C83.8924 43.6347 83.7564 43.208 83.7404 42.728L84.9404 42.728C84.967 43.2133 85.1617 43.5787 85.5244 43.824C85.8924 44.064 86.391 44.184 87.0204 44.184C87.351 44.184 87.655 44.1307 87.9324 44.024C88.2097 43.9173 88.431 43.7707 88.5964 43.584C88.7617 43.3973 88.8444 43.1867 88.8444 42.952C88.8444 42.6533 88.735 42.4187 88.5164 42.248C88.2977 42.0773 87.9484 41.928 87.4684 41.8L85.9804 41.32C85.335 41.1173 84.839 40.84 84.4924 40.488C84.151 40.1307 83.9804 39.704 83.9804 39.208C83.9804 38.5893 84.2524 38.0933 84.7964 37.72C85.3404 37.3467 86.055 37.16 86.9404 37.16C87.879 37.16 88.607 37.352 89.1244 37.736C89.6417 38.12 89.911 38.6 89.9324 39.176L88.7004 39.176C88.6524 38.84 88.4817 38.5867 88.1884 38.416C87.895 38.24 87.479 38.152 86.9404 38.152C86.423 38.152 86.0177 38.2693 85.7244 38.504C85.4364 38.7333 85.2924 38.9893 85.2924 39.272C85.2924 39.8 85.7457 40.1893 86.6524 40.44L88.1724 40.952C88.8284 41.1493 89.3297 41.408 89.6764 41.728C90.0284 42.048 90.2044 42.456 90.2044 42.952C90.2044 43.336 90.079 43.6987 89.8284 44.04C89.5777 44.3813 89.223 44.6587 88.7644 44.872C88.3057 45.0853 87.7617 45.192 87.1324 45.192ZM95.2986 45.192C94.8826 45.192 94.5093 45.112 94.1786 44.952C93.848 44.792 93.5866 44.552 93.3946 44.232C93.2026 43.912 93.1066 43.512 93.1066 43.032L93.1066 35.224L94.3386 35.224L94.3386 43C94.3386 43.7893 94.7066 44.184 95.4426 44.184C95.6613 44.184 95.872 44.16 96.0746 44.112C96.2826 44.064 96.5146 43.992 96.7706 43.896L96.9466 44.792C96.6746 44.9093 96.4026 45.0053 96.1306 45.08C95.864 45.1547 95.5866 45.192 95.2986 45.192ZM91.8746 38.216L91.8746 37.352L96.7546 37.352L96.7546 38.216L91.8746 38.216ZM99.8262 35.544C99.5702 35.544 99.3676 35.472 99.2182 35.328C99.0689 35.1787 98.9942 34.984 98.9942 34.744C98.9942 34.5093 99.0689 34.3227 99.2182 34.184C99.3676 34.0453 99.5702 33.976 99.8262 33.976C100.082 33.976 100.285 34.0453 100.434 34.184C100.584 34.3227 100.658 34.5093 100.658 34.744C100.658 34.984 100.584 35.1787 100.434 35.328C100.285 35.472 100.082 35.544 99.8262 35.544ZM99.2022 45L99.2022 37.336L100.45 37.336L100.45 45L99.2022 45ZM106.736 45.192C106.123 45.192 105.549 45.0267 105.016 44.696C104.488 44.3653 104.061 43.8987 103.736 43.296C103.411 42.6933 103.248 41.9813 103.248 41.16C103.248 40.3173 103.411 39.5973 103.736 39C104.061 38.4027 104.488 37.9467 105.016 37.632C105.549 37.3173 106.123 37.16 106.736 37.16C107.168 37.16 107.555 37.2267 107.896 37.36C108.243 37.488 108.544 37.6667 108.8 37.896C109.056 38.1253 109.267 38.3867 109.432 38.68C109.603 38.968 109.728 39.272 109.808 39.592L108.528 39.704C108.395 39.2613 108.171 38.912 107.856 38.656C107.547 38.3947 107.168 38.264 106.72 38.264C106.341 38.264 105.984 38.3733 105.648 38.592C105.317 38.8053 105.048 39.128 104.84 39.56C104.632 39.9867 104.528 40.52 104.528 41.16C104.528 41.752 104.621 42.2667 104.808 42.704C105 43.136 105.261 43.472 105.592 43.712C105.923 43.952 106.299 44.072 106.72 44.072C107.312 44.072 107.76 43.928 108.064 43.64C108.373 43.3467 108.528 42.9413 108.528 42.424L109.808 42.424C109.808 42.9573 109.683 43.432 109.432 43.848C109.181 44.264 108.824 44.592 108.36 44.832C107.901 45.072 107.36 45.192 106.736 45.192ZM116.831 45L116.831 36.168C116.831 35.6613 116.927 35.248 117.119 34.928C117.316 34.6027 117.577 34.3627 117.903 34.208C118.233 34.0533 118.601 33.976 119.007 33.976C119.225 33.976 119.447 33.992 119.671 34.024C119.9 34.056 120.127 34.104 120.351 34.168L120.111 35.16C119.951 35.096 119.791 35.048 119.631 35.016C119.476 34.984 119.327 34.968 119.183 34.968C119.012 34.968 118.841 35 118.671 35.064C118.5 35.128 118.359 35.248 118.247 35.424C118.135 35.6 118.079 35.8533 118.079 36.184L118.079 45L116.831 45ZM115.583 38.216L115.583 37.352L119.663 37.352L119.663 38.216L115.583 38.216ZM124.827 45.192C124.139 45.192 123.526 45.04 122.987 44.736C122.454 44.432 122.032 43.9813 121.723 43.384C121.414 42.7867 121.259 42.0507 121.259 41.176C121.259 40.296 121.414 39.56 121.723 38.968C122.032 38.3707 122.454 37.92 122.987 37.616C123.526 37.312 124.139 37.16 124.827 37.16C125.51 37.16 126.118 37.312 126.651 37.616C127.19 37.92 127.611 38.3707 127.915 38.968C128.224 39.56 128.379 40.296 128.379 41.176C128.379 42.0507 128.224 42.7867 127.915 43.384C127.611 43.9813 127.19 44.432 126.651 44.736C126.118 45.04 125.51 45.192 124.827 45.192ZM124.795 44.104C125.291 44.104 125.712 43.9867 126.059 43.752C126.406 43.512 126.667 43.1733 126.843 42.736C127.024 42.2987 127.115 41.7787 127.115 41.176C127.115 40.264 126.926 39.5467 126.547 39.024C126.168 38.496 125.606 38.232 124.859 38.232C124.358 38.232 123.934 38.352 123.587 38.592C123.246 38.8267 122.984 39.1653 122.803 39.608C122.627 40.0453 122.539 40.568 122.539 41.176C122.539 42.0773 122.728 42.792 123.107 43.32C123.491 43.8427 124.054 44.104 124.795 44.104ZM133.737 45.192C133.049 45.192 132.436 45.04 131.897 44.736C131.364 44.432 130.942 43.9813 130.633 43.384C130.324 42.7867 130.169 42.0507 130.169 41.176C130.169 40.296 130.324 39.56 130.633 38.968C130.942 38.3707 131.364 37.92 131.897 37.616C132.436 37.312 133.049 37.16 133.737 37.16C134.42 37.16 135.028 37.312 135.561 37.616C136.1 37.92 136.521 38.3707 136.825 38.968C137.134 39.56 137.289 40.296 137.289 41.176C137.289 42.0507 137.134 42.7867 136.825 43.384C136.521 43.9813 136.1 44.432 135.561 44.736C135.028 45.04 134.42 45.192 133.737 45.192ZM133.705 44.104C134.201 44.104 134.622 43.9867 134.969 43.752C135.316 43.512 135.577 43.1733 135.753 42.736C135.934 42.2987 136.025 41.7787 136.025 41.176C136.025 40.264 135.836 39.5467 135.457 39.024C135.078 38.496 134.516 38.232 133.769 38.232C133.268 38.232 132.844 38.352 132.497 38.592C132.156 38.8267 131.894 39.1653 131.713 39.608C131.537 40.0453 131.449 40.568 131.449 41.176C131.449 42.0773 131.638 42.792 132.017 43.32C132.401 43.8427 132.964 44.104 133.705 44.104ZM142.615 45.192C141.996 45.192 141.428 45.0267 140.911 44.696C140.394 44.36 139.98 43.8907 139.671 43.288C139.362 42.68 139.207 41.9653 139.207 41.144C139.207 40.328 139.359 39.6213 139.663 39.024C139.967 38.4267 140.37 37.968 140.871 37.648C141.378 37.3227 141.932 37.16 142.535 37.16C143.095 37.16 143.586 37.296 144.007 37.568C144.434 37.84 144.764 38.232 144.999 38.744C145.234 39.256 145.351 39.8747 145.351 40.6L144.871 40.6C144.871 40.0933 144.77 39.6667 144.567 39.32C144.37 38.9733 144.111 38.712 143.791 38.536C143.471 38.3547 143.127 38.264 142.759 38.264C142.343 38.264 141.962 38.3813 141.615 38.616C141.274 38.8453 140.999 39.176 140.791 39.608C140.588 40.0347 140.487 40.5467 140.487 41.144C140.487 41.752 140.588 42.2747 140.791 42.712C140.999 43.1493 141.274 43.4853 141.615 43.72C141.962 43.9547 142.343 44.072 142.759 44.072C143.106 44.072 143.439 43.9813 143.759 43.8C144.084 43.6187 144.351 43.3547 144.559 43.008C144.767 42.656 144.871 42.232 144.871 41.736L145.351 41.736C145.351 42.4773 145.228 43.1067 144.983 43.624C144.743 44.136 144.415 44.5253 143.999 44.792C143.588 45.0587 143.127 45.192 142.615 45.192ZM145.079 45L144.871 43.208L144.871 34.088L146.119 34.088L146.119 45L145.079 45ZM156.984 45.192C156.472 45.192 156.008 45.0587 155.592 44.792C155.182 44.5253 154.854 44.136 154.608 43.624C154.368 43.1067 154.248 42.4773 154.248 41.736L154.728 41.736C154.728 42.232 154.83 42.656 155.032 43.008C155.24 43.3547 155.507 43.6187 155.832 43.8C156.158 43.9813 156.499 44.072 156.856 44.072C157.267 44.072 157.643 43.9547 157.984 43.72C158.326 43.4853 158.598 43.1493 158.8 42.712C159.008 42.2747 159.112 41.752 159.112 41.144C159.112 40.5467 159.011 40.0347 158.808 39.608C158.606 39.176 158.331 38.8453 157.984 38.616C157.643 38.3813 157.262 38.264 156.84 38.264C156.478 38.264 156.134 38.3547 155.808 38.536C155.488 38.712 155.227 38.9733 155.024 39.32C154.827 39.6667 154.728 40.0933 154.728 40.6L154.248 40.6C154.248 39.8747 154.366 39.256 154.6 38.744C154.84 38.232 155.171 37.84 155.592 37.568C156.014 37.296 156.504 37.16 157.064 37.16C157.667 37.16 158.219 37.3227 158.72 37.648C159.227 37.968 159.632 38.4267 159.936 39.024C160.24 39.6213 160.392 40.328 160.392 41.144C160.392 41.9653 160.238 42.68 159.928 43.288C159.619 43.8907 159.206 44.36 158.688 44.696C158.171 45.0267 157.603 45.192 156.984 45.192ZM153.48 45L153.48 34.088L154.728 34.088L154.728 43.208L154.36 45L153.48 45ZM167.861 45L167.701 43.32L167.701 40.04C167.701 39.352 167.554 38.8587 167.261 38.56C166.967 38.256 166.527 38.104 165.941 38.104C165.61 38.104 165.309 38.152 165.037 38.248C164.77 38.344 164.557 38.4933 164.397 38.696C164.242 38.8933 164.165 39.1493 164.165 39.464L162.773 39.464C162.773 38.9093 162.909 38.464 163.181 38.128C163.453 37.7867 163.826 37.5413 164.301 37.392C164.781 37.2373 165.327 37.16 165.941 37.16C166.527 37.16 167.047 37.2587 167.501 37.456C167.954 37.6533 168.309 37.968 168.565 38.4C168.821 38.8267 168.949 39.384 168.949 40.072L168.949 45L167.861 45ZM165.253 45.192C164.623 45.192 164.103 45.08 163.693 44.856C163.282 44.632 162.975 44.3413 162.773 43.984C162.57 43.6267 162.469 43.2507 162.469 42.856C162.469 42.3387 162.597 41.9173 162.853 41.592C163.114 41.2667 163.469 41.0293 163.917 40.88C164.365 40.7253 164.869 40.648 165.429 40.648C165.829 40.648 166.229 40.688 166.629 40.768C167.034 40.848 167.429 40.9573 167.813 41.096L167.813 41.88C167.493 41.752 167.13 41.6507 166.725 41.576C166.325 41.5013 165.957 41.464 165.621 41.464C165.109 41.464 164.677 41.5707 164.325 41.784C163.973 41.992 163.797 42.3493 163.797 42.856C163.797 43.2293 163.93 43.5493 164.197 43.816C164.469 44.0827 164.901 44.216 165.493 44.216C165.909 44.216 166.282 44.12 166.613 43.928C166.949 43.7307 167.213 43.4853 167.405 43.192C167.602 42.8987 167.701 42.6053 167.701 42.312L168.005 42.312C168.005 42.824 167.893 43.2987 167.669 43.736C167.45 44.1733 167.135 44.5253 166.725 44.792C166.314 45.0587 165.823 45.192 165.253 45.192ZM174.801 48.936C174.017 48.936 173.337 48.824 172.761 48.6C172.185 48.3813 171.737 48.0853 171.417 47.712C171.103 47.344 170.945 46.936 170.945 46.488C170.945 45.896 171.161 45.4427 171.593 45.128C172.031 44.8187 172.593 44.664 173.281 44.664L173.969 45.096C173.393 45.096 172.948 45.216 172.633 45.456C172.319 45.696 172.161 46.024 172.161 46.44C172.161 46.856 172.385 47.208 172.833 47.496C173.281 47.784 173.937 47.928 174.801 47.928C175.441 47.928 176.001 47.8347 176.481 47.648C176.967 47.4667 177.343 47.2267 177.609 46.928C177.881 46.6347 178.017 46.3173 178.017 45.976C178.017 45.736 177.929 45.528 177.753 45.352C177.577 45.1813 177.308 45.096 176.945 45.096L173.969 45.096C173.452 45.096 173.004 45.0187 172.625 44.864C172.252 44.704 171.964 44.496 171.761 44.24C171.559 43.984 171.457 43.704 171.457 43.4C171.457 43.08 171.548 42.808 171.729 42.584C171.911 42.36 172.145 42.1893 172.433 42.072C172.727 41.9547 173.041 41.896 173.377 41.896L173.617 42.36C173.457 42.36 173.295 42.3973 173.129 42.472C172.969 42.5413 172.833 42.648 172.721 42.792C172.615 42.9307 172.561 43.1067 172.561 43.32C172.561 43.5653 172.663 43.7707 172.865 43.936C173.068 44.1013 173.436 44.184 173.969 44.184L176.945 44.184C177.665 44.184 178.231 44.336 178.641 44.64C179.057 44.944 179.265 45.368 179.265 45.912C179.265 46.4133 179.087 46.8933 178.729 47.352C178.372 47.816 177.86 48.1947 177.193 48.488C176.527 48.7867 175.729 48.936 174.801 48.936ZM175.025 42.76C174.439 42.76 173.908 42.6427 173.433 42.408C172.964 42.1733 172.591 41.8453 172.313 41.424C172.041 41.0027 171.905 40.5147 171.905 39.96C171.905 39.4 172.041 38.9093 172.313 38.488C172.591 38.0667 172.964 37.7413 173.433 37.512C173.908 37.2773 174.439 37.16 175.025 37.16C175.596 37.16 176.113 37.2773 176.577 37.512C177.047 37.7413 177.42 38.0667 177.697 38.488C177.975 38.9093 178.113 39.4 178.113 39.96C178.113 40.5147 177.975 41.0027 177.697 41.424C177.42 41.8453 177.047 42.1733 176.577 42.408C176.113 42.6427 175.596 42.76 175.025 42.76ZM175.025 41.864C175.612 41.864 176.068 41.6827 176.393 41.32C176.719 40.9573 176.881 40.504 176.881 39.96C176.881 39.4 176.719 38.9467 176.393 38.6C176.068 38.248 175.612 38.072 175.025 38.072C174.444 38.072 173.985 38.248 173.649 38.6C173.319 38.9467 173.153 39.4 173.153 39.96C173.153 40.504 173.319 40.9573 173.649 41.32C173.985 41.6827 174.444 41.864 175.025 41.864ZM177.537 38.376L176.945 38.136C176.945 37.688 177.033 37.296 177.209 36.96C177.385 36.6187 177.636 36.3547 177.961 36.168C178.287 35.976 178.673 35.88 179.121 35.88L179.025 37.112C178.545 37.112 178.177 37.216 177.921 37.424C177.665 37.6267 177.537 37.944 177.537 38.376ZM189.981 45L189.821 43.32L189.821 40.04C189.821 39.352 189.675 38.8587 189.381 38.56C189.088 38.256 188.648 38.104 188.061 38.104C187.731 38.104 187.429 38.152 187.157 38.248C186.891 38.344 186.677 38.4933 186.517 38.696C186.363 38.8933 186.285 39.1493 186.285 39.464L184.893 39.464C184.893 38.9093 185.029 38.464 185.301 38.128C185.573 37.7867 185.947 37.5413 186.421 37.392C186.901 37.2373 187.448 37.16 188.061 37.16C188.648 37.16 189.168 37.2587 189.621 37.456C190.075 37.6533 190.429 37.968 190.685 38.4C190.941 38.8267 191.069 39.384 191.069 40.072L191.069 45L189.981 45ZM187.373 45.192C186.744 45.192 186.224 45.08 185.813 44.856C185.403 44.632 185.096 44.3413 184.893 43.984C184.691 43.6267 184.589 43.2507 184.589 42.856C184.589 42.3387 184.717 41.9173 184.973 41.592C185.235 41.2667 185.589 41.0293 186.037 40.88C186.485 40.7253 186.989 40.648 187.549 40.648C187.949 40.648 188.349 40.688 188.749 40.768C189.155 40.848 189.549 40.9573 189.933 41.096L189.933 41.88C189.613 41.752 189.251 41.6507 188.845 41.576C188.445 41.5013 188.077 41.464 187.741 41.464C187.229 41.464 186.797 41.5707 186.445 41.784C186.093 41.992 185.917 42.3493 185.917 42.856C185.917 43.2293 186.051 43.5493 186.317 43.816C186.589 44.0827 187.021 44.216 187.613 44.216C188.029 44.216 188.403 44.12 188.733 43.928C189.069 43.7307 189.333 43.4853 189.525 43.192C189.723 42.8987 189.821 42.6053 189.821 42.312L190.125 42.312C190.125 42.824 190.013 43.2987 189.789 43.736C189.571 44.1733 189.256 44.5253 188.845 44.792C188.435 45.0587 187.944 45.192 187.373 45.192ZM199.658 45L199.658 40.504C199.658 39.7733 199.482 39.2187 199.13 38.84C198.783 38.456 198.309 38.264 197.706 38.264C197.247 38.264 196.85 38.3893 196.514 38.64C196.178 38.8907 195.919 39.2507 195.738 39.72C195.557 40.184 195.466 40.7387 195.466 41.384L194.986 41.384C194.986 40.4933 195.103 39.7333 195.338 39.104C195.573 38.4747 195.914 37.9947 196.362 37.664C196.815 37.328 197.365 37.16 198.01 37.16C198.613 37.16 199.127 37.296 199.554 37.568C199.986 37.8347 200.317 38.2187 200.546 38.72C200.775 39.2213 200.89 39.816 200.89 40.504L200.89 45L199.658 45ZM194.218 45L194.218 37.352L195.29 37.352L195.466 39.112L195.466 45L194.218 45ZM206.77 45.192C206.151 45.192 205.583 45.0267 205.066 44.696C204.549 44.36 204.135 43.8907 203.826 43.288C203.517 42.68 203.362 41.9653 203.362 41.144C203.362 40.328 203.514 39.6213 203.818 39.024C204.122 38.4267 204.525 37.968 205.026 37.648C205.533 37.3227 206.087 37.16 206.69 37.16C207.25 37.16 207.741 37.296 208.162 37.568C208.589 37.84 208.919 38.232 209.154 38.744C209.389 39.256 209.506 39.8747 209.506 40.6L209.026 40.6C209.026 40.0933 208.925 39.6667 208.722 39.32C208.525 38.9733 208.266 38.712 207.946 38.536C207.626 38.3547 207.282 38.264 206.914 38.264C206.498 38.264 206.117 38.3813 205.77 38.616C205.429 38.8453 205.154 39.176 204.946 39.608C204.743 40.0347 204.642 40.5467 204.642 41.144C204.642 41.752 204.743 42.2747 204.946 42.712C205.154 43.1493 205.429 43.4853 205.77 43.72C206.117 43.9547 206.498 44.072 206.914 44.072C207.261 44.072 207.594 43.9813 207.914 43.8C208.239 43.6187 208.506 43.3547 208.714 43.008C208.922 42.656 209.026 42.232 209.026 41.736L209.506 41.736C209.506 42.4773 209.383 43.1067 209.138 43.624C208.898 44.136 208.57 44.5253 208.154 44.792C207.743 45.0587 207.282 45.192 206.77 45.192ZM209.234 45L209.026 43.208L209.026 34.088L210.274 34.088L210.274 45L209.234 45ZM32.304 65.192C31.6907 65.192 31.1173 65.0267 30.584 64.696C30.056 64.3653 29.6293 63.8987 29.304 63.296C28.9787 62.6933 28.816 61.9813 28.816 61.16C28.816 60.3173 28.9787 59.5973 29.304 59C29.6293 58.4027 30.056 57.9467 30.584 57.632C31.1173 57.3173 31.6907 57.16 32.304 57.16C32.736 57.16 33.1227 57.2267 33.464 57.36C33.8107 57.488 34.112 57.6667 34.368 57.896C34.624 58.1253 34.8347 58.3867 35 58.68C35.1707 58.968 35.296 59.272 35.376 59.592L34.096 59.704C33.9627 59.2613 33.7387 58.912 33.424 58.656C33.1147 58.3947 32.736 58.264 32.288 58.264C31.9093 58.264 31.552 58.3733 31.216 58.592C30.8853 58.8053 30.616 59.128 30.408 59.56C30.2 59.9867 30.096 60.52 30.096 61.16C30.096 61.752 30.1893 62.2667 30.376 62.704C30.568 63.136 30.8293 63.472 31.16 63.712C31.4907 63.952 31.8667 64.072 32.288 64.072C32.88 64.072 33.328 63.928 33.632 63.64C33.9413 63.3467 34.096 62.9413 34.096 62.424L35.376 62.424C35.376 62.9573 35.2507 63.432 35 63.848C34.7493 64.264 34.392 64.592 33.928 64.832C33.4693 65.072 32.928 65.192 32.304 65.192ZM38.026 65L38.026 57.336L39.274 57.336L39.274 65L38.026 65ZM38.89 61.544C38.89 60.5733 38.9833 59.768 39.17 59.128C39.3567 58.4827 39.6287 58.0027 39.986 57.688C40.3487 57.368 40.7887 57.208 41.306 57.208C41.4767 57.208 41.6313 57.2213 41.77 57.248C41.914 57.2693 42.058 57.304 42.202 57.352L42.122 58.584C41.9727 58.536 41.81 58.496 41.634 58.464C41.458 58.4267 41.3007 58.408 41.162 58.408C40.7087 58.408 40.3433 58.5387 40.066 58.8C39.7887 59.056 39.586 59.4187 39.458 59.888C39.3353 60.3573 39.274 60.9093 39.274 61.544L38.89 61.544ZM49.1673 57.336L50.4152 57.336L50.4152 65L49.1673 65L49.1673 57.336ZM43.7432 57.336L44.9912 57.336L44.9912 62.104C44.9912 62.744 45.1459 63.2293 45.4552 63.56C45.7699 63.8907 46.2179 64.056 46.7993 64.056C47.2793 64.056 47.6952 63.928 48.0472 63.672C48.4046 63.416 48.6793 63.064 48.8713 62.616C49.0686 62.1627 49.1673 61.6453 49.1673 61.064L49.6313 61.064C49.6313 61.9227 49.5059 62.656 49.2553 63.264C49.0099 63.872 48.6606 64.3387 48.2073 64.664C47.7592 64.984 47.2312 65.144 46.6233 65.144C46.0473 65.144 45.5433 65.0373 45.1113 64.824C44.6792 64.6107 44.3432 64.288 44.1032 63.856C43.8632 63.4187 43.7432 62.8667 43.7432 62.2L43.7432 57.336ZM56.5667 65.192C55.8254 65.192 55.2067 65.088 54.7107 64.88C54.2147 64.6667 53.8387 64.376 53.5827 64.008C53.3267 63.6347 53.1907 63.208 53.1747 62.728L54.3747 62.728C54.4014 63.2133 54.5961 63.5787 54.9587 63.824C55.3267 64.064 55.8254 64.184 56.4547 64.184C56.7854 64.184 57.0894 64.1307 57.3667 64.024C57.6441 63.9173 57.8654 63.7707 58.0307 63.584C58.1961 63.3973 58.2788 63.1867 58.2788 62.952C58.2788 62.6533 58.1694 62.4187 57.9507 62.248C57.7321 62.0773 57.3827 61.928 56.9027 61.8L55.4147 61.32C54.7694 61.1173 54.2734 60.84 53.9267 60.488C53.5854 60.1307 53.4147 59.704 53.4147 59.208C53.4147 58.5893 53.6867 58.0933 54.2307 57.72C54.7747 57.3467 55.4894 57.16 56.3747 57.16C57.3134 57.16 58.0414 57.352 58.5587 57.736C59.0761 58.12 59.3454 58.6 59.3667 59.176L58.1347 59.176C58.0867 58.84 57.9161 58.5867 57.6227 58.416C57.3294 58.24 56.9134 58.152 56.3747 58.152C55.8574 58.152 55.4521 58.2693 55.1587 58.504C54.8707 58.7333 54.7267 58.9893 54.7267 59.272C54.7267 59.8 55.1801 60.1893 56.0867 60.44L57.6068 60.952C58.2627 61.1493 58.7641 61.408 59.1107 61.728C59.4628 62.048 59.6388 62.456 59.6388 62.952C59.6388 63.336 59.5134 63.6987 59.2627 64.04C59.0121 64.3813 58.6574 64.6587 58.1988 64.872C57.7401 65.0853 57.1961 65.192 56.5667 65.192ZM67.821 65L67.821 60.504C67.821 59.7733 67.645 59.2187 67.293 58.84C66.9463 58.456 66.4717 58.264 65.869 58.264C65.4103 58.264 65.013 58.3893 64.677 58.64C64.341 58.8907 64.0823 59.2507 63.901 59.72C63.7197 60.184 63.629 60.7387 63.629 61.384L63.149 61.384C63.149 60.4933 63.2663 59.7333 63.501 59.104C63.7357 58.4747 64.077 57.9947 64.525 57.664C64.9783 57.328 65.5277 57.16 66.173 57.16C66.7757 57.16 67.2903 57.296 67.717 57.568C68.149 57.8347 68.4797 58.2187 68.709 58.72C68.9383 59.2213 69.053 59.816 69.053 60.504L69.053 65L67.821 65ZM62.381 65L62.381 54.088L63.629 54.088L63.629 65L62.381 65ZM78.5061 65.192C78.0901 65.192 77.7168 65.112 77.3861 64.952C77.0555 64.792 76.7941 64.552 76.6021 64.232C76.4101 63.912 76.3141 63.512 76.3141 63.032L76.3141 55.224L77.5461 55.224L77.5461 63C77.5461 63.7893 77.9141 64.184 78.6501 64.184C78.8688 64.184 79.0795 64.16 79.2821 64.112C79.4901 64.064 79.7221 63.992 79.9781 63.896L80.1541 64.792C79.8821 64.9093 79.6101 65.0053 79.3381 65.08C79.0715 65.1547 78.7941 65.192 78.5061 65.192ZM75.0821 58.216L75.0821 57.352L79.9621 57.352L79.9621 58.216L75.0821 58.216ZM85.0977 65.192C84.4097 65.192 83.7964 65.04 83.2577 64.736C82.7244 64.432 82.3031 63.9813 81.9937 63.384C81.6844 62.7867 81.5297 62.0507 81.5297 61.176C81.5297 60.296 81.6844 59.56 81.9937 58.968C82.3031 58.3707 82.7244 57.92 83.2577 57.616C83.7964 57.312 84.4097 57.16 85.0977 57.16C85.7804 57.16 86.3884 57.312 86.9217 57.616C87.4604 57.92 87.8817 58.3707 88.1857 58.968C88.4951 59.56 88.6497 60.296 88.6497 61.176C88.6497 62.0507 88.4951 62.7867 88.1857 63.384C87.8817 63.9813 87.4604 64.432 86.9217 64.736C86.3884 65.04 85.7804 65.192 85.0977 65.192ZM85.0657 64.104C85.5617 64.104 85.9831 63.9867 86.3297 63.752C86.6764 63.512 86.9377 63.1733 87.1137 62.736C87.2951 62.2987 87.3857 61.7787 87.3857 61.176C87.3857 60.264 87.1964 59.5467 86.8177 59.024C86.4391 58.496 85.8764 58.232 85.1297 58.232C84.6284 58.232 84.2044 58.352 83.8577 58.592C83.5164 58.8267 83.2551 59.1653 83.0737 59.608C82.8977 60.0453 82.8097 60.568 82.8097 61.176C82.8097 62.0773 82.9991 62.792 83.3777 63.32C83.7617 63.8427 84.3244 64.104 85.0657 64.104ZM97.8846 65.192C97.2713 65.192 96.698 65.0267 96.1646 64.696C95.6366 64.3653 95.21 63.8987 94.8846 63.296C94.5593 62.6933 94.3966 61.9813 94.3966 61.16C94.3966 60.3173 94.5593 59.5973 94.8846 59C95.21 58.4027 95.6366 57.9467 96.1646 57.632C96.698 57.3173 97.2713 57.16 97.8846 57.16C98.3166 57.16 98.7033 57.2267 99.0446 57.36C99.3913 57.488 99.6926 57.6667 99.9486 57.896C100.205 58.1253 100.415 58.3867 100.581 58.68C100.751 58.968 100.877 59.272 100.957 59.592L99.6766 59.704C99.5433 59.2613 99.3193 58.912 99.0046 58.656C98.6953 58.3947 98.3166 58.264 97.8686 58.264C97.49 58.264 97.1326 58.3733 96.7966 58.592C96.466 58.8053 96.1966 59.128 95.9886 59.56C95.7806 59.9867 95.6766 60.52 95.6766 61.16C95.6766 61.752 95.77 62.2667 95.9566 62.704C96.1486 63.136 96.41 63.472 96.7406 63.712C97.0713 63.952 97.4473 64.072 97.8686 64.072C98.4606 64.072 98.9086 63.928 99.2126 63.64C99.522 63.3467 99.6766 62.9413 99.6766 62.424L100.957 62.424C100.957 62.9573 100.831 63.432 100.581 63.848C100.33 64.264 99.9726 64.592 99.5086 64.832C99.05 65.072 98.5086 65.192 97.8846 65.192ZM103.607 65L103.607 57.336L104.855 57.336L104.855 65L103.607 65ZM104.471 61.544C104.471 60.5733 104.564 59.768 104.751 59.128C104.937 58.4827 105.209 58.0027 105.567 57.688C105.929 57.368 106.369 57.208 106.887 57.208C107.057 57.208 107.212 57.2213 107.351 57.248C107.495 57.2693 107.639 57.304 107.783 57.352L107.703 58.584C107.553 58.536 107.391 58.496 107.215 58.464C107.039 58.4267 106.881 58.408 106.743 58.408C106.289 58.408 105.924 58.5387 105.647 58.8C105.369 59.056 105.167 59.4187 105.039 59.888C104.916 60.3573 104.855 60.9093 104.855 61.544L104.471 61.544ZM114.748 57.336L115.996 57.336L115.996 65L114.748 65L114.748 57.336ZM109.324 57.336L110.572 57.336L110.572 62.104C110.572 62.744 110.727 63.2293 111.036 63.56C111.351 63.8907 111.799 64.056 112.38 64.056C112.86 64.056 113.276 63.928 113.628 63.672C113.985 63.416 114.26 63.064 114.452 62.616C114.649 62.1627 114.748 61.6453 114.748 61.064L115.212 61.064C115.212 61.9227 115.087 62.656 114.836 63.264C114.591 63.872 114.241 64.3387 113.788 64.664C113.34 64.984 112.812 65.144 112.204 65.144C111.628 65.144 111.124 65.0373 110.692 64.824C110.26 64.6107 109.924 64.288 109.684 63.856C109.444 63.4187 109.324 62.8667 109.324 62.2L109.324 57.336ZM130.147 65L130.147 60.504C130.147 59.7733 129.971 59.2187 129.619 58.84C129.273 58.456 128.803 58.264 128.211 58.264C127.518 58.264 126.987 58.5333 126.619 59.072C126.251 59.6053 126.067 60.344 126.067 61.288L125.491 61.288C125.491 60.6 125.558 59.9973 125.691 59.48C125.83 58.9627 126.03 58.5333 126.291 58.192C126.553 57.8453 126.87 57.5867 127.243 57.416C127.617 57.2453 128.041 57.16 128.515 57.16C129.118 57.16 129.633 57.296 130.059 57.568C130.491 57.8347 130.822 58.2187 131.051 58.72C131.281 59.2213 131.395 59.816 131.395 60.504L131.395 65L130.147 65ZM119.395 65L119.395 57.352L120.467 57.352L120.611 58.888C120.851 58.3333 121.187 57.9067 121.619 57.608C122.057 57.3093 122.579 57.16 123.187 57.16C123.79 57.16 124.305 57.296 124.731 57.568C125.163 57.8347 125.494 58.2187 125.723 58.72C125.953 59.2213 126.067 59.816 126.067 60.504L126.067 65L124.835 65L124.835 60.504C124.835 59.7733 124.659 59.2187 124.307 58.84C123.961 58.456 123.486 58.264 122.883 58.264C122.425 58.264 122.027 58.3893 121.691 58.64C121.355 58.8907 121.097 59.2507 120.915 59.72C120.734 60.184 120.643 60.7387 120.643 61.384L120.643 65L119.395 65ZM138.028 65.192C137.516 65.192 137.052 65.0587 136.636 64.792C136.225 64.5253 135.897 64.136 135.652 63.624C135.412 63.1067 135.292 62.4773 135.292 61.736L135.772 61.736C135.772 62.232 135.873 62.656 136.076 63.008C136.284 63.3547 136.551 63.6187 136.876 63.8C137.201 63.9813 137.543 64.072 137.9 64.072C138.311 64.072 138.687 63.9547 139.028 63.72C139.369 63.4853 139.641 63.1493 139.844 62.712C140.052 62.2747 140.156 61.752 140.156 61.144C140.156 60.5467 140.055 60.0347 139.852 59.608C139.649 59.176 139.375 58.8453 139.028 58.616C138.687 58.3813 138.305 58.264 137.884 58.264C137.521 58.264 137.177 58.3547 136.852 58.536C136.532 58.712 136.271 58.9733 136.068 59.32C135.871 59.6667 135.772 60.0933 135.772 60.6L135.292 60.6C135.292 59.8747 135.409 59.256 135.644 58.744C135.884 58.232 136.215 57.84 136.636 57.568C137.057 57.296 137.548 57.16 138.108 57.16C138.711 57.16 139.263 57.3227 139.764 57.648C140.271 57.968 140.676 58.4267 140.98 59.024C141.284 59.6213 141.436 60.328 141.436 61.144C141.436 61.9653 141.281 62.68 140.972 63.288C140.663 63.8907 140.249 64.36 139.732 64.696C139.215 65.0267 138.647 65.192 138.028 65.192ZM134.524 65L134.524 54.088L135.772 54.088L135.772 63.208L135.404 65L134.524 65ZM146.92 65.192C146.179 65.192 145.56 65.088 145.064 64.88C144.568 64.6667 144.192 64.376 143.936 64.008C143.68 63.6347 143.544 63.208 143.528 62.728L144.728 62.728C144.755 63.2133 144.95 63.5787 145.312 63.824C145.68 64.064 146.179 64.184 146.808 64.184C147.139 64.184 147.443 64.1307 147.72 64.024C147.998 63.9173 148.219 63.7707 148.384 63.584C148.55 63.3973 148.632 63.1867 148.632 62.952C148.632 62.6533 148.523 62.4187 148.304 62.248C148.086 62.0773 147.736 61.928 147.256 61.8L145.768 61.32C145.123 61.1173 144.627 60.84 144.28 60.488C143.939 60.1307 143.768 59.704 143.768 59.208C143.768 58.5893 144.04 58.0933 144.584 57.72C145.128 57.3467 145.843 57.16 146.728 57.16C147.667 57.16 148.395 57.352 148.912 57.736C149.43 58.12 149.699 58.6 149.72 59.176L148.488 59.176C148.44 58.84 148.27 58.5867 147.976 58.416C147.683 58.24 147.267 58.152 146.728 58.152C146.211 58.152 145.806 58.2693 145.512 58.504C145.224 58.7333 145.08 58.9893 145.08 59.272C145.08 59.8 145.534 60.1893 146.44 60.44L147.96 60.952C148.616 61.1493 149.118 61.408 149.464 61.728C149.816 62.048 149.992 62.456 149.992 62.952C149.992 63.336 149.867 63.6987 149.616 64.04C149.366 64.3813 149.011 64.6587 148.552 64.872C148.094 65.0853 147.55 65.192 146.92 65.192ZM161.892 57.336L163.14 57.336L163.14 65L161.892 65L161.892 57.336ZM156.468 57.336L157.716 57.336L157.716 62.104C157.716 62.744 157.87 63.2293 158.18 63.56C158.494 63.8907 158.942 64.056 159.524 64.056C160.004 64.056 160.42 63.928 160.772 63.672C161.129 63.416 161.404 63.064 161.596 62.616C161.793 62.1627 161.892 61.6453 161.892 61.064L162.356 61.064C162.356 61.9227 162.23 62.656 161.98 63.264C161.734 63.872 161.385 64.3387 160.932 64.664C160.484 64.984 159.956 65.144 159.348 65.144C158.772 65.144 158.268 65.0373 157.836 64.824C157.404 64.6107 157.068 64.288 156.828 63.856C156.588 63.4187 156.468 62.8667 156.468 62.2L156.468 57.336ZM169.291 65.192C168.55 65.192 167.931 65.088 167.435 64.88C166.939 64.6667 166.563 64.376 166.307 64.008C166.051 63.6347 165.915 63.208 165.899 62.728L167.099 62.728C167.126 63.2133 167.32 63.5787 167.683 63.824C168.051 64.064 168.55 64.184 169.179 64.184C169.51 64.184 169.814 64.1307 170.091 64.024C170.368 63.9173 170.59 63.7707 170.755 63.584C170.92 63.3973 171.003 63.1867 171.003 62.952C171.003 62.6533 170.894 62.4187 170.675 62.248C170.456 62.0773 170.107 61.928 169.627 61.8L168.139 61.32C167.494 61.1173 166.998 60.84 166.651 60.488C166.31 60.1307 166.139 59.704 166.139 59.208C166.139 58.5893 166.411 58.0933 166.955 57.72C167.499 57.3467 168.214 57.16 169.099 57.16C170.038 57.16 170.766 57.352 171.283 57.736C171.8 58.12 172.07 58.6 172.091 59.176L170.859 59.176C170.811 58.84 170.64 58.5867 170.347 58.416C170.054 58.24 169.638 58.152 169.099 58.152C168.582 58.152 168.176 58.2693 167.883 58.504C167.595 58.7333 167.451 58.9893 167.451 59.272C167.451 59.8 167.904 60.1893 168.811 60.44L170.331 60.952C170.987 61.1493 171.488 61.408 171.835 61.728C172.187 62.048 172.363 62.456 172.363 62.952C172.363 63.336 172.238 63.6987 171.987 64.04C171.736 64.3813 171.382 64.6587 170.923 64.872C170.464 65.0853 169.92 65.192 169.291 65.192ZM175.809 55.544C175.553 55.544 175.351 55.472 175.201 55.328C175.052 55.1787 174.977 54.984 174.977 54.744C174.977 54.5093 175.052 54.3227 175.201 54.184C175.351 54.0453 175.553 53.976 175.809 53.976C176.065 53.976 176.268 54.0453 176.417 54.184C176.567 54.3227 176.641 54.5093 176.641 54.744C176.641 54.984 176.567 55.1787 176.417 55.328C176.268 55.472 176.065 55.544 175.809 55.544ZM175.185 65L175.185 57.336L176.433 57.336L176.433 65L175.185 65ZM185.471 65L185.471 60.504C185.471 59.7733 185.295 59.2187 184.943 58.84C184.596 58.456 184.122 58.264 183.519 58.264C183.06 58.264 182.663 58.3893 182.327 58.64C181.991 58.8907 181.732 59.2507 181.551 59.72C181.37 60.184 181.279 60.7387 181.279 61.384L180.799 61.384C180.799 60.4933 180.916 59.7333 181.151 59.104C181.386 58.4747 181.727 57.9947 182.175 57.664C182.628 57.328 183.178 57.16 183.823 57.16C184.426 57.16 184.94 57.296 185.367 57.568C185.799 57.8347 186.13 58.2187 186.359 58.72C186.588 59.2213 186.703 59.816 186.703 60.504L186.703 65L185.471 65ZM180.031 65L180.031 57.352L181.103 57.352L181.279 59.112L181.279 65L180.031 65ZM192.551 68.936C191.767 68.936 191.087 68.824 190.511 68.6C189.935 68.3813 189.487 68.0853 189.167 67.712C188.853 67.344 188.695 66.936 188.695 66.488C188.695 65.896 188.911 65.4427 189.343 65.128C189.781 64.8187 190.343 64.664 191.031 64.664L191.719 65.096C191.143 65.096 190.698 65.216 190.383 65.456C190.069 65.696 189.911 66.024 189.911 66.44C189.911 66.856 190.135 67.208 190.583 67.496C191.031 67.784 191.687 67.928 192.551 67.928C193.191 67.928 193.751 67.8347 194.231 67.648C194.717 67.4667 195.093 67.2267 195.359 66.928C195.631 66.6347 195.767 66.3173 195.767 65.976C195.767 65.736 195.679 65.528 195.503 65.352C195.327 65.1813 195.058 65.096 194.695 65.096L191.719 65.096C191.202 65.096 190.754 65.0187 190.375 64.864C190.002 64.704 189.714 64.496 189.511 64.24C189.309 63.984 189.207 63.704 189.207 63.4C189.207 63.08 189.298 62.808 189.479 62.584C189.661 62.36 189.895 62.1893 190.183 62.072C190.477 61.9547 190.791 61.896 191.127 61.896L191.367 62.36C191.207 62.36 191.045 62.3973 190.879 62.472C190.719 62.5413 190.583 62.648 190.471 62.792C190.365 62.9307 190.311 63.1067 190.311 63.32C190.311 63.5653 190.413 63.7707 190.615 63.936C190.818 64.1013 191.186 64.184 191.719 64.184L194.695 64.184C195.415 64.184 195.981 64.336 196.391 64.64C196.807 64.944 197.015 65.368 197.015 65.912C197.015 66.4133 196.837 66.8933 196.479 67.352C196.122 67.816 195.61 68.1947 194.943 68.488C194.277 68.7867 193.479 68.936 192.551 68.936ZM192.775 62.76C192.189 62.76 191.658 62.6427 191.183 62.408C190.714 62.1733 190.341 61.8453 190.063 61.424C189.791 61.0027 189.655 60.5147 189.655 59.96C189.655 59.4 189.791 58.9093 190.063 58.488C190.341 58.0667 190.714 57.7413 191.183 57.512C191.658 57.2773 192.189 57.16 192.775 57.16C193.346 57.16 193.863 57.2773 194.327 57.512C194.797 57.7413 195.17 58.0667 195.447 58.488C195.725 58.9093 195.863 59.4 195.863 59.96C195.863 60.5147 195.725 61.0027 195.447 61.424C195.17 61.8453 194.797 62.1733 194.327 62.408C193.863 62.6427 193.346 62.76 192.775 62.76ZM192.775 61.864C193.362 61.864 193.818 61.6827 194.143 61.32C194.469 60.9573 194.631 60.504 194.631 59.96C194.631 59.4 194.469 58.9467 194.143 58.6C193.818 58.248 193.362 58.072 192.775 58.072C192.194 58.072 191.735 58.248 191.399 58.6C191.069 58.9467 190.903 59.4 190.903 59.96C190.903 60.504 191.069 60.9573 191.399 61.32C191.735 61.6827 192.194 61.864 192.775 61.864ZM195.287 58.376L194.695 58.136C194.695 57.688 194.783 57.296 194.959 56.96C195.135 56.6187 195.386 56.3547 195.711 56.168C196.037 55.976 196.423 55.88 196.871 55.88L196.775 57.112C196.295 57.112 195.927 57.216 195.671 57.424C195.415 57.6267 195.287 57.944 195.287 58.376ZM34.352 85L34.192 83.32L34.192 80.04C34.192 79.352 34.0453 78.8587 33.752 78.56C33.4587 78.256 33.0187 78.104 32.432 78.104C32.1013 78.104 31.8 78.152 31.528 78.248C31.2613 78.344 31.048 78.4933 30.888 78.696C30.7333 78.8933 30.656 79.1493 30.656 79.464L29.264 79.464C29.264 78.9093 29.4 78.464 29.672 78.128C29.944 77.7867 30.3173 77.5413 30.792 77.392C31.272 77.2373 31.8187 77.16 32.432 77.16C33.0187 77.16 33.5387 77.2587 33.992 77.456C34.4453 77.6533 34.8 77.968 35.056 78.4C35.312 78.8267 35.44 79.384 35.44 80.072L35.44 85L34.352 85ZM31.744 85.192C31.1147 85.192 30.5947 85.08 30.184 84.856C29.7733 84.632 29.4667 84.3413 29.264 83.984C29.0613 83.6267 28.96 83.2507 28.96 82.856C28.96 82.3387 29.088 81.9173 29.344 81.592C29.6053 81.2667 29.96 81.0293 30.408 80.88C30.856 80.7253 31.36 80.648 31.92 80.648C32.32 80.648 32.72 80.688 33.12 80.768C33.5253 80.848 33.92 80.9573 34.304 81.096L34.304 81.88C33.984 81.752 33.6213 81.6507 33.216 81.576C32.816 81.5013 32.448 81.464 32.112 81.464C31.6 81.464 31.168 81.5707 30.816 81.784C30.464 81.992 30.288 82.3493 30.288 82.856C30.288 83.2293 30.4213 83.5493 30.688 83.816C30.96 84.0827 31.392 84.216 31.984 84.216C32.4 84.216 32.7733 84.12 33.104 83.928C33.44 83.7307 33.704 83.4853 33.896 83.192C34.0933 82.8987 34.192 82.6053 34.192 82.312L34.496 82.312C34.496 82.824 34.384 83.2987 34.16 83.736C33.9413 84.1733 33.6267 84.5253 33.216 84.792C32.8053 85.0587 32.3147 85.192 31.744 85.192ZM42.5454 85L42.5454 77.336L43.7934 77.336L43.7934 85L42.5454 85ZM43.4094 81.544C43.4094 80.5733 43.5027 79.768 43.6894 79.128C43.876 78.4827 44.148 78.0027 44.5054 77.688C44.868 77.368 45.308 77.208 45.8254 77.208C45.996 77.208 46.1507 77.2213 46.2894 77.248C46.4334 77.2693 46.5774 77.304 46.7214 77.352L46.6414 78.584C46.492 78.536 46.3294 78.496 46.1534 78.464C45.9774 78.4267 45.82 78.408 45.6814 78.408C45.228 78.408 44.8627 78.5387 44.5854 78.8C44.308 79.056 44.1054 79.4187 43.9774 79.888C43.8547 80.3573 43.7934 80.9093 43.7934 81.544L43.4094 81.544ZM51.2546 85.192C50.5666 85.192 49.9533 85.04 49.4146 84.736C48.8813 84.432 48.46 83.9813 48.1506 83.384C47.8413 82.7867 47.6866 82.0507 47.6866 81.176C47.6866 80.296 47.8413 79.56 48.1506 78.968C48.46 78.3707 48.8813 77.92 49.4146 77.616C49.9533 77.312 50.5666 77.16 51.2546 77.16C51.9373 77.16 52.5453 77.312 53.0786 77.616C53.6173 77.92 54.0386 78.3707 54.3426 78.968C54.652 79.56 54.8066 80.296 54.8066 81.176C54.8066 82.0507 54.652 82.7867 54.3426 83.384C54.0386 83.9813 53.6173 84.432 53.0786 84.736C52.5453 85.04 51.9373 85.192 51.2546 85.192ZM51.2226 84.104C51.7186 84.104 52.14 83.9867 52.4866 83.752C52.8333 83.512 53.0946 83.1733 53.2706 82.736C53.452 82.2987 53.5426 81.7787 53.5426 81.176C53.5426 80.264 53.3533 79.5467 52.9746 79.024C52.596 78.496 52.0333 78.232 51.2866 78.232C50.7853 78.232 50.3613 78.352 50.0146 78.592C49.6733 78.8267 49.412 79.1653 49.2306 79.608C49.0546 80.0453 48.9666 80.568 48.9666 81.176C48.9666 82.0773 49.156 82.792 49.5346 83.32C49.9186 83.8427 50.4813 84.104 51.2226 84.104ZM57.3966 85L57.3966 74.088L58.6446 74.088L58.6446 85L57.3966 85ZM62.041 85L62.041 74.088L63.289 74.088L63.289 85L62.041 85ZM67.3894 75.544C67.1334 75.544 66.9307 75.472 66.7814 75.328C66.632 75.1787 66.5574 74.984 66.5574 74.744C66.5574 74.5093 66.632 74.3227 66.7814 74.184C66.9307 74.0453 67.1334 73.976 67.3894 73.976C67.6454 73.976 67.848 74.0453 67.9974 74.184C68.1467 74.3227 68.2214 74.5093 68.2214 74.744C68.2214 74.984 68.1467 75.1787 67.9974 75.328C67.848 75.472 67.6454 75.544 67.3894 75.544ZM66.7654 85L66.7654 77.336L68.0134 77.336L68.0134 85L66.7654 85ZM77.051 85L77.051 80.504C77.051 79.7733 76.875 79.2187 76.523 78.84C76.1763 78.456 75.7017 78.264 75.099 78.264C74.6403 78.264 74.243 78.3893 73.907 78.64C73.571 78.8907 73.3123 79.2507 73.131 79.72C72.9497 80.184 72.859 80.7387 72.859 81.384L72.379 81.384C72.379 80.4933 72.4963 79.7333 72.731 79.104C72.9657 78.4747 73.307 77.9947 73.755 77.664C74.2083 77.328 74.7577 77.16 75.403 77.16C76.0057 77.16 76.5203 77.296 76.947 77.568C77.379 77.8347 77.7097 78.2187 77.939 78.72C78.1683 79.2213 78.283 79.816 78.283 80.504L78.283 85L77.051 85ZM71.611 85L71.611 77.352L72.683 77.352L72.859 79.112L72.859 85L71.611 85ZM84.1312 88.936C83.3472 88.936 82.6672 88.824 82.0912 88.6C81.5152 88.3813 81.0672 88.0853 80.7472 87.712C80.4326 87.344 80.2752 86.936 80.2752 86.488C80.2752 85.896 80.4912 85.4427 80.9232 85.128C81.3606 84.8187 81.9232 84.664 82.6112 84.664L83.2992 85.096C82.7232 85.096 82.2779 85.216 81.9632 85.456C81.6486 85.696 81.4912 86.024 81.4912 86.44C81.4912 86.856 81.7152 87.208 82.1632 87.496C82.6112 87.784 83.2672 87.928 84.1312 87.928C84.7712 87.928 85.3312 87.8347 85.8112 87.648C86.2966 87.4667 86.6726 87.2267 86.9392 86.928C87.2112 86.6347 87.3472 86.3173 87.3472 85.976C87.3472 85.736 87.2592 85.528 87.0832 85.352C86.9072 85.1813 86.6379 85.096 86.2752 85.096L83.2992 85.096C82.7819 85.096 82.3339 85.0187 81.9552 84.864C81.5819 84.704 81.2939 84.496 81.0912 84.24C80.8886 83.984 80.7872 83.704 80.7872 83.4C80.7872 83.08 80.8779 82.808 81.0592 82.584C81.2406 82.36 81.4752 82.1893 81.7632 82.072C82.0566 81.9547 82.3712 81.896 82.7072 81.896L82.9472 82.36C82.7872 82.36 82.6246 82.3973 82.4592 82.472C82.2992 82.5413 82.1632 82.648 82.0512 82.792C81.9446 82.9307 81.8912 83.1067 81.8912 83.32C81.8912 83.5653 81.9926 83.7707 82.1952 83.936C82.3979 84.1013 82.7659 84.184 83.2992 84.184L86.2752 84.184C86.9952 84.184 87.5606 84.336 87.9712 84.64C88.3872 84.944 88.5952 85.368 88.5952 85.912C88.5952 86.4133 88.4166 86.8933 88.0592 87.352C87.7019 87.816 87.1899 88.1947 86.5232 88.488C85.8566 88.7867 85.0592 88.936 84.1312 88.936ZM84.3552 82.76C83.7686 82.76 83.2379 82.6427 82.7632 82.408C82.2939 82.1733 81.9206 81.8453 81.6432 81.424C81.3712 81.0027 81.2352 80.5147 81.2352 79.96C81.2352 79.4 81.3712 78.9093 81.6432 78.488C81.9206 78.0667 82.2939 77.7413 82.7632 77.512C83.2379 77.2773 83.7686 77.16 84.3552 77.16C84.9259 77.16 85.4432 77.2773 85.9072 77.512C86.3766 77.7413 86.7499 78.0667 87.0272 78.488C87.3046 78.9093 87.4432 79.4 87.4432 79.96C87.4432 80.5147 87.3046 81.0027 87.0272 81.424C86.7499 81.8453 86.3766 82.1733 85.9072 82.408C85.4432 82.6427 84.9259 82.76 84.3552 82.76ZM84.3552 81.864C84.9419 81.864 85.3979 81.6827 85.7232 81.32C86.0486 80.9573 86.2112 80.504 86.2112 79.96C86.2112 79.4 86.0486 78.9467 85.7232 78.6C85.3979 78.248 84.9419 78.072 84.3552 78.072C83.7739 78.072 83.3152 78.248 82.9792 78.6C82.6486 78.9467 82.4832 79.4 82.4832 79.96C82.4832 80.504 82.6486 80.9573 82.9792 81.32C83.3152 81.6827 83.7739 81.864 84.3552 81.864ZM86.8672 78.376L86.2752 78.136C86.2752 77.688 86.3632 77.296 86.5392 76.96C86.7152 76.6187 86.9659 76.3547 87.2912 76.168C87.6166 75.976 88.0032 75.88 88.4512 75.88L88.3552 77.112C87.8752 77.112 87.5072 77.216 87.2512 77.424C86.9952 77.6267 86.8672 77.944 86.8672 78.376ZM98.0474 85.192C97.4874 85.192 96.9994 85.064 96.5834 84.808C96.1727 84.552 95.8554 84.1787 95.6314 83.688C95.4074 83.192 95.2954 82.5893 95.2954 81.88L95.8234 81.88C95.8234 82.3547 95.922 82.7547 96.1194 83.08C96.3167 83.4053 96.5727 83.6533 96.8874 83.824C97.2074 83.9893 97.546 84.072 97.9034 84.072C98.2874 84.072 98.6554 83.9627 99.0074 83.744C99.3594 83.52 99.6474 83.192 99.8714 82.76C100.095 82.328 100.207 81.7947 100.207 81.16C100.207 80.552 100.103 80.032 99.8954 79.6C99.6927 79.168 99.418 78.8373 99.0714 78.608C98.7247 78.3787 98.3407 78.264 97.9194 78.264C97.5567 78.264 97.2154 78.352 96.8954 78.528C96.5754 78.704 96.3167 78.9627 96.1194 79.304C95.922 79.64 95.8234 80.056 95.8234 80.552L95.2954 80.552C95.2954 79.8107 95.418 79.1893 95.6634 78.688C95.9087 78.1813 96.242 77.8 96.6634 77.544C97.0847 77.288 97.5567 77.16 98.0794 77.16C98.6767 77.16 99.234 77.32 99.7514 77.64C100.269 77.96 100.687 78.4187 101.007 79.016C101.327 79.6133 101.487 80.328 101.487 81.16C101.487 82.0027 101.325 82.7253 100.999 83.328C100.679 83.9307 100.258 84.392 99.7354 84.712C99.2127 85.032 98.65 85.192 98.0474 85.192ZM94.5754 88.76L94.5754 77.352L95.6154 77.352L95.8234 79.144L95.8234 88.76L94.5754 88.76ZM104.799 75.544C104.543 75.544 104.34 75.472 104.191 75.328C104.041 75.1787 103.967 74.984 103.967 74.744C103.967 74.5093 104.041 74.3227 104.191 74.184C104.34 74.0453 104.543 73.976 104.799 73.976C105.055 73.976 105.257 74.0453 105.407 74.184C105.556 74.3227 105.631 74.5093 105.631 74.744C105.631 74.984 105.556 75.1787 105.407 75.328C105.257 75.472 105.055 75.544 104.799 75.544ZM104.175 85L104.175 77.336L105.423 77.336L105.423 85L104.175 85ZM114.46 85L114.46 80.504C114.46 79.7733 114.284 79.2187 113.932 78.84C113.586 78.456 113.111 78.264 112.508 78.264C112.05 78.264 111.652 78.3893 111.316 78.64C110.98 78.8907 110.722 79.2507 110.54 79.72C110.359 80.184 110.268 80.7387 110.268 81.384L109.788 81.384C109.788 80.4933 109.906 79.7333 110.14 79.104C110.375 78.4747 110.716 77.9947 111.164 77.664C111.618 77.328 112.167 77.16 112.812 77.16C113.415 77.16 113.93 77.296 114.356 77.568C114.788 77.8347 115.119 78.2187 115.348 78.72C115.578 79.2213 115.692 79.816 115.692 80.504L115.692 85L114.46 85ZM109.02 85L109.02 77.352L110.092 77.352L110.268 79.112L110.268 85L109.02 85ZM117.701 84.256C117.701 84.0053 117.789 83.7893 117.965 83.608C118.141 83.4267 118.362 83.336 118.629 83.336C118.895 83.336 119.122 83.4267 119.309 83.608C119.495 83.7893 119.589 84.0053 119.589 84.256C119.589 84.5067 119.495 84.7173 119.309 84.888C119.122 85.0587 118.895 85.144 118.629 85.144C118.362 85.144 118.141 85.0587 117.965 84.888C117.789 84.712 117.701 84.5013 117.701 84.256ZM124.328 78.296L123.432 77.816C123.736 77.6613 123.992 77.488 124.2 77.296C124.413 77.0987 124.552 76.872 124.616 76.616C124.376 76.5893 124.173 76.5067 124.008 76.368C123.848 76.2293 123.768 76.0453 123.768 75.816C123.768 75.5813 123.856 75.384 124.032 75.224C124.208 75.064 124.429 74.984 124.696 74.984C124.92 74.984 125.112 75.0427 125.272 75.16C125.432 75.272 125.555 75.424 125.64 75.616C125.725 75.8027 125.768 76.0133 125.768 76.248C125.768 76.632 125.643 77.008 125.392 77.376C125.141 77.7387 124.787 78.0453 124.328 78.296ZM121.712 78.296L120.816 77.816C121.12 77.6613 121.376 77.488 121.584 77.296C121.797 77.0987 121.936 76.872 122 76.616C121.76 76.5893 121.557 76.5067 121.392 76.368C121.232 76.2293 121.152 76.0453 121.152 75.816C121.152 75.5813 121.24 75.384 121.416 75.224C121.592 75.064 121.813 74.984 122.08 74.984C122.304 74.984 122.496 75.0427 122.656 75.16C122.816 75.272 122.939 75.424 123.024 75.616C123.109 75.8027 123.152 76.0133 123.152 76.248C123.152 76.632 123.027 77.008 122.776 77.376C122.525 77.7387 122.171 78.0453 121.712 78.296Z" fill="#333333"/>
</g>
<defs>
<filter id="filter0_d_7069_6430" x="0" y="0" width="243.035" height="109" filterUnits="userSpaceOnUse" color-interpolation-filters="sRGB">
<feFlood flood-opacity="0" result="BackgroundImageFix"/>
<feColorMatrix in="SourceAlpha" type="matrix" values="0 0 0 0 0 0 0 0 0 0 0 0 0 0 0 0 0 0 127 0" result="hardAlpha"/>
<feOffset dy="4"/>
<feGaussianBlur stdDeviation="3"/>
<feComposite in2="hardAlpha" operator="out"/>
<feColorMatrix type="matrix" values="0 0 0 0 0 0 0 0 0 0 0 0 0 0 0 0 0 0 0.1 0"/>
<feBlend mode="normal" in2="BackgroundImageFix" result="effect1_dropShadow_7069_6430"/>
<feBlend mode="normal" in="SourceGraphic" in2="effect1_dropShadow_7069_6430" result="shape"/>
</filter>
<filter id="filter1_d_7069_6430" x="22.5759" y="11.9756" width="207.618" height="86.96" filterUnits="userSpaceOnUse" color-interpolation-filters="sRGB">
<feFlood flood-opacity="0" result="BackgroundImageFix"/>
<feColorMatrix in="SourceAlpha" type="matrix" values="0 0 0 0 0 0 0 0 0 0 0 0 0 0 0 0 0 0 127 0" result="hardAlpha"/>
<feOffset dy="4"/>
<feGaussianBlur stdDeviation="3"/>
<feComposite in2="hardAlpha" operator="out"/>
<feColorMatrix type="matrix" values="0 0 0 0 0 0 0 0 0 0 0 0 0 0 0 0 0 0 0.05 0"/>
<feBlend mode="normal" in2="BackgroundImageFix" result="effect1_dropShadow_7069_6430"/>
<feBlend mode="normal" in="SourceGraphic" in2="effect1_dropShadow_7069_6430" result="shape"/>
</filter>
</defs>
</svg>
