<svg width="256" height="70" viewBox="0 0 256 70" fill="none" xmlns="http://www.w3.org/2000/svg">
<path d="M7.22436 32.6331L18.6357 41V51C18.6357 55.9706 23.3643 60 29.1973 60L245.438 60C251.271 60 256 55.9706 256 51V11C256 6.02944 251.271 2 245.438 2L29.1973 2C23.3643 2 18.6357 6.02944 18.6357 11V20.5L7.35606 27.9931C5.60311 29.1575 5.53952 31.3978 7.22436 32.6331Z" fill="white"/>
<g filter="url(#filter0_d_7084_5690)">
<mask id="path-2-inside-1_7084_5690" fill="white">
<path d="M7.04333 32.6331L16.7674 41V51C16.7674 55.9706 20.7968 60 25.7674 60L210.035 60C215.005 60 219.035 55.9706 219.035 51V11C219.035 6.02944 215.005 2 210.035 2L25.7674 2C20.7968 2 16.7674 6.02944 16.7674 11V20.5L7.15555 27.9931C5.66179 29.1575 5.60761 31.3978 7.04333 32.6331Z"/>
</mask>
<path d="M7.04333 32.6331L16.7674 41V51C16.7674 55.9706 20.7968 60 25.7674 60L210.035 60C215.005 60 219.035 55.9706 219.035 51V11C219.035 6.02944 215.005 2 210.035 2L25.7674 2C20.7968 2 16.7674 6.02944 16.7674 11V20.5L7.15555 27.9931C5.66179 29.1575 5.60761 31.3978 7.04333 32.6331Z" fill="#F1F3FF"/>
<path d="M16.7674 41H18.1674V40.3577L17.6805 39.9388L16.7674 41ZM7.04333 32.6331L6.13021 33.6944L6.13021 33.6944L7.04333 32.6331ZM7.15555 27.9931L8.0163 29.0972L8.0163 29.0972L7.15555 27.9931ZM16.7674 20.5L17.6281 21.6041L18.1674 21.1838V20.5H16.7674ZM25.7674 2V0.6V2ZM210.035 2V3.4V2ZM17.6805 39.9388L7.95644 31.5719L6.13021 33.6944L15.8542 42.0612L17.6805 39.9388ZM8.0163 29.0972L17.6281 21.6041L15.9066 19.3959L6.2948 26.8889L8.0163 29.0972ZM7.95644 31.5719C7.19073 30.9131 7.21963 29.7183 8.0163 29.0972L6.2948 26.8889C4.10396 28.5968 4.02449 31.8825 6.13021 33.6944L7.95644 31.5719ZM25.7674 3.4L210.035 3.4L210.035 0.600003L25.7674 0.6L25.7674 3.4ZM217.635 11V51H220.435V11H217.635ZM210.035 58.6L25.7674 58.6V61.4L210.035 61.4V58.6ZM18.1674 20.5V11H15.3674V20.5H18.1674ZM18.1674 51V41H15.3674V51H18.1674ZM25.7674 58.6C21.57 58.6 18.1674 55.1974 18.1674 51H15.3674C15.3674 56.7438 20.0236 61.4 25.7674 61.4V58.6ZM217.635 51C217.635 55.1974 214.232 58.6 210.035 58.6V61.4C215.778 61.4 220.435 56.7438 220.435 51H217.635ZM210.035 3.4C214.232 3.4 217.635 6.80264 217.635 11H220.435C220.435 5.25624 215.778 0.600003 210.035 0.600003V3.4ZM25.7674 0.6C20.0236 0.6 15.3674 5.25624 15.3674 11H18.1674C18.1674 6.80264 21.57 3.4 25.7674 3.4V0.6Z" fill="#4A5DC8" mask="url(#path-2-inside-1_7084_5690)"/>
</g>
<g filter="url(#filter1_d_7084_5690)">
<path d="M35.832 26.192C35.16 26.192 34.544 26.072 33.984 25.832C33.424 25.5867 32.9733 25.2267 32.632 24.752C32.2907 24.2773 32.1147 23.6907 32.104 22.992H33.32C33.32 23.4613 33.4347 23.848 33.664 24.152C33.8933 24.4507 34.1973 24.6747 34.576 24.824C34.9547 24.968 35.368 25.04 35.816 25.04C36.3013 25.04 36.7227 24.9627 37.08 24.808C37.4373 24.6533 37.712 24.4507 37.904 24.2C38.1013 23.944 38.2 23.664 38.2 23.36C38.2 22.9333 38.0693 22.5893 37.808 22.328C37.5467 22.0613 37.16 21.8453 36.648 21.68L34.872 21.056C34.04 20.7573 33.4107 20.416 32.984 20.032C32.5573 19.648 32.344 19.1093 32.344 18.416C32.344 17.6373 32.6427 17.0027 33.24 16.512C33.8427 16.0213 34.696 15.776 35.8 15.776C36.824 15.776 37.624 16.0133 38.2 16.488C38.776 16.9573 39.1067 17.5893 39.192 18.384H37.96C37.88 17.92 37.6613 17.56 37.304 17.304C36.952 17.0427 36.4507 16.912 35.8 16.912C35.1387 16.912 34.624 17.0587 34.256 17.352C33.888 17.6453 33.704 18.016 33.704 18.464C33.704 18.832 33.8187 19.1253 34.048 19.344C34.2827 19.5573 34.648 19.7493 35.144 19.92L37.224 20.64C37.944 20.88 38.512 21.216 38.928 21.648C39.3493 22.08 39.56 22.64 39.56 23.328C39.56 23.8613 39.416 24.344 39.128 24.776C38.8453 25.208 38.4267 25.552 37.872 25.808C37.3173 26.064 36.6373 26.192 35.832 26.192ZM45.2159 26.192C44.5279 26.192 43.9145 26.04 43.3759 25.736C42.8425 25.432 42.4212 24.9813 42.1119 24.384C41.8025 23.7867 41.6479 23.0507 41.6479 22.176C41.6479 21.296 41.8025 20.56 42.1119 19.968C42.4212 19.3707 42.8425 18.92 43.3759 18.616C43.9145 18.312 44.5279 18.16 45.2159 18.16C45.8985 18.16 46.5065 18.312 47.0399 18.616C47.5785 18.92 47.9999 19.3707 48.3039 19.968C48.6132 20.56 48.7679 21.296 48.7679 22.176C48.7679 23.0507 48.6132 23.7867 48.3039 24.384C47.9999 24.9813 47.5785 25.432 47.0399 25.736C46.5065 26.04 45.8985 26.192 45.2159 26.192ZM45.1839 25.104C45.6799 25.104 46.1012 24.9867 46.4479 24.752C46.7945 24.512 47.0559 24.1733 47.2319 23.736C47.4132 23.2987 47.5039 22.7787 47.5039 22.176C47.5039 21.264 47.3145 20.5467 46.9359 20.024C46.5572 19.496 45.9945 19.232 45.2479 19.232C44.7465 19.232 44.3225 19.352 43.9759 19.592C43.6345 19.8267 43.3732 20.1653 43.1919 20.608C43.0159 21.0453 42.9279 21.568 42.9279 22.176C42.9279 23.0773 43.1172 23.792 43.4959 24.32C43.8799 24.8427 44.4425 25.104 45.1839 25.104ZM51.3579 26V18.336H52.6059V26H51.3579ZM52.2219 22.544C52.2219 21.5733 52.3152 20.768 52.5019 20.128C52.6885 19.4827 52.9605 19.0027 53.3179 18.688C53.6805 18.368 54.1205 18.208 54.6379 18.208C54.8085 18.208 54.9632 18.2213 55.1019 18.248C55.2459 18.2693 55.3899 18.304 55.5339 18.352L55.4539 19.584C55.3045 19.536 55.1419 19.496 54.9659 19.464C54.7899 19.4267 54.6325 19.408 54.4939 19.408C54.0405 19.408 53.6752 19.5387 53.3979 19.8C53.1205 20.056 52.9179 20.4187 52.7899 20.888C52.6672 21.3573 52.6059 21.9093 52.6059 22.544H52.2219ZM57.2991 26V18.336H58.5471V26H57.2991ZM58.1631 22.544C58.1631 21.5733 58.2565 20.768 58.4431 20.128C58.6298 19.4827 58.9018 19.0027 59.2591 18.688C59.6218 18.368 60.0618 18.208 60.5791 18.208C60.7498 18.208 60.9045 18.2213 61.0431 18.248C61.1871 18.2693 61.3311 18.304 61.4751 18.352L61.3951 19.584C61.2458 19.536 61.0831 19.496 60.9071 19.464C60.7311 19.4267 60.5738 19.408 60.4351 19.408C59.9818 19.408 59.6165 19.5387 59.3391 19.8C59.0618 20.056 58.8591 20.4187 58.7311 20.888C58.6085 21.3573 58.5471 21.9093 58.5471 22.544H58.1631ZM61.9764 18.352H63.3684L65.8644 24.912H65.5764L67.5124 18.352H68.7924L65.9124 27.536C65.6724 28.304 65.3524 28.896 64.9524 29.312C64.5524 29.728 64.0404 29.936 63.4164 29.936C63.0804 29.936 62.7604 29.888 62.4564 29.792C62.1577 29.696 61.8484 29.5573 61.5284 29.376V28.224C61.811 28.448 62.083 28.608 62.3444 28.704C62.611 28.8 62.8884 28.848 63.1764 28.848C63.4964 28.848 63.763 28.7467 63.9764 28.544C64.195 28.3413 64.3764 28.08 64.5204 27.76C64.6644 27.4453 64.787 27.1147 64.8884 26.768L65.1124 26L61.9764 18.352ZM70.6615 27.744L69.7175 27.28C70.0215 27.1253 70.2775 26.9547 70.4855 26.768C70.6988 26.5813 70.8375 26.352 70.9015 26.08C70.6722 26.0533 70.4748 25.9707 70.3095 25.832C70.1495 25.6933 70.0695 25.5093 70.0695 25.28C70.0695 25.056 70.1522 24.864 70.3175 24.704C70.4882 24.544 70.7042 24.464 70.9655 24.464C71.2962 24.464 71.5628 24.584 71.7655 24.824C71.9682 25.064 72.0695 25.3493 72.0695 25.68C72.0695 26.0693 71.9495 26.4507 71.7095 26.824C71.4748 27.2027 71.1255 27.5093 70.6615 27.744ZM80.6661 26.192C80.2501 26.192 79.8768 26.112 79.5461 25.952C79.2155 25.792 78.9541 25.552 78.7621 25.232C78.5701 24.912 78.4741 24.512 78.4741 24.032V16.224H79.7061V24C79.7061 24.7893 80.0741 25.184 80.8101 25.184C81.0288 25.184 81.2395 25.16 81.4421 25.112C81.6501 25.064 81.8821 24.992 82.1381 24.896L82.3141 25.792C82.0421 25.9093 81.7701 26.0053 81.4981 26.08C81.2315 26.1547 80.9541 26.192 80.6661 26.192ZM77.2421 19.216V18.352H82.1221V19.216H77.2421ZM89.9297 26V21.504C89.9297 20.7733 89.7537 20.2187 89.4017 19.84C89.0551 19.456 88.5804 19.264 87.9777 19.264C87.5191 19.264 87.1217 19.3893 86.7857 19.64C86.4497 19.8907 86.1911 20.2507 86.0097 20.72C85.8284 21.184 85.7377 21.7387 85.7377 22.384H85.2577C85.2577 21.4933 85.3751 20.7333 85.6097 20.104C85.8444 19.4747 86.1857 18.9947 86.6337 18.664C87.0871 18.328 87.6364 18.16 88.2817 18.16C88.8844 18.16 89.3991 18.296 89.8257 18.568C90.2577 18.8347 90.5884 19.2187 90.8177 19.72C91.0471 20.2213 91.1617 20.816 91.1617 21.504V26H89.9297ZM84.4897 26V15.088H85.7377V26H84.4897ZM96.962 26.192C96.3007 26.192 95.7087 26.024 95.186 25.688C94.6687 25.3467 94.258 24.8747 93.954 24.272C93.6553 23.6693 93.506 22.976 93.506 22.192C93.506 21.3547 93.6553 20.6347 93.954 20.032C94.2527 19.4293 94.6607 18.968 95.178 18.648C95.7007 18.3227 96.2953 18.16 96.962 18.16C97.5433 18.16 98.0393 18.2773 98.45 18.512C98.8607 18.7467 99.1913 19.064 99.442 19.464C99.6927 19.864 99.866 20.3173 99.962 20.824C100.063 21.3253 100.093 21.8453 100.05 22.384H94.514V21.616H99.226L98.858 21.856C98.874 21.5413 98.8553 21.2267 98.802 20.912C98.754 20.5973 98.6607 20.3093 98.522 20.048C98.3833 19.7813 98.1887 19.568 97.938 19.408C97.6873 19.248 97.3673 19.168 96.978 19.168C96.4873 19.168 96.0767 19.2933 95.746 19.544C95.4153 19.7947 95.1673 20.1253 95.002 20.536C94.8367 20.9413 94.754 21.3813 94.754 21.856V22.368C94.754 22.9013 94.834 23.3787 94.994 23.8C95.1593 24.2213 95.4047 24.5547 95.73 24.8C96.0553 25.0453 96.466 25.168 96.962 25.168C97.458 25.168 97.866 25.048 98.186 24.808C98.506 24.568 98.7007 24.2133 98.77 23.744H100.066C99.986 24.2507 99.8047 24.688 99.522 25.056C99.2393 25.4187 98.8793 25.6987 98.442 25.896C98.0047 26.0933 97.5113 26.192 96.962 26.192ZM102.685 26V18.336H103.933V26H102.685ZM103.549 22.544C103.549 21.5733 103.642 20.768 103.829 20.128C104.015 19.4827 104.287 19.0027 104.645 18.688C105.007 18.368 105.447 18.208 105.965 18.208C106.135 18.208 106.29 18.2213 106.429 18.248C106.573 18.2693 106.717 18.304 106.861 18.352L106.781 19.584C106.631 19.536 106.469 19.496 106.293 19.464C106.117 19.4267 105.959 19.408 105.821 19.408C105.367 19.408 105.002 19.5387 104.725 19.8C104.447 20.056 104.245 20.4187 104.117 20.888C103.994 21.3573 103.933 21.9093 103.933 22.544H103.549ZM111.282 26.192C110.621 26.192 110.029 26.024 109.506 25.688C108.989 25.3467 108.578 24.8747 108.274 24.272C107.975 23.6693 107.826 22.976 107.826 22.192C107.826 21.3547 107.975 20.6347 108.274 20.032C108.573 19.4293 108.981 18.968 109.498 18.648C110.021 18.3227 110.615 18.16 111.282 18.16C111.863 18.16 112.359 18.2773 112.77 18.512C113.181 18.7467 113.511 19.064 113.762 19.464C114.013 19.864 114.186 20.3173 114.282 20.824C114.383 21.3253 114.413 21.8453 114.37 22.384H108.834V21.616H113.546L113.178 21.856C113.194 21.5413 113.175 21.2267 113.122 20.912C113.074 20.5973 112.981 20.3093 112.842 20.048C112.703 19.7813 112.509 19.568 112.258 19.408C112.007 19.248 111.687 19.168 111.298 19.168C110.807 19.168 110.397 19.2933 110.066 19.544C109.735 19.7947 109.487 20.1253 109.322 20.536C109.157 20.9413 109.074 21.3813 109.074 21.856V22.368C109.074 22.9013 109.154 23.3787 109.314 23.8C109.479 24.2213 109.725 24.5547 110.05 24.8C110.375 25.0453 110.786 25.168 111.282 25.168C111.778 25.168 112.186 25.048 112.506 24.808C112.826 24.568 113.021 24.2133 113.09 23.744H114.386C114.306 24.2507 114.125 24.688 113.842 25.056C113.559 25.4187 113.199 25.6987 112.762 25.896C112.325 26.0933 111.831 26.192 111.282 26.192ZM125.698 26L125.538 24.32V21.04C125.538 20.352 125.391 19.8587 125.098 19.56C124.804 19.256 124.364 19.104 123.778 19.104C123.447 19.104 123.146 19.152 122.874 19.248C122.607 19.344 122.394 19.4933 122.234 19.696C122.079 19.8933 122.002 20.1493 122.002 20.464H120.61C120.61 19.9093 120.746 19.464 121.018 19.128C121.29 18.7867 121.663 18.5413 122.138 18.392C122.618 18.2373 123.164 18.16 123.778 18.16C124.364 18.16 124.884 18.2587 125.338 18.456C125.791 18.6533 126.146 18.968 126.402 19.4C126.658 19.8267 126.786 20.384 126.786 21.072V26H125.698ZM123.09 26.192C122.46 26.192 121.94 26.08 121.53 25.856C121.119 25.632 120.812 25.3413 120.61 24.984C120.407 24.6267 120.306 24.2507 120.306 23.856C120.306 23.3387 120.434 22.9173 120.69 22.592C120.951 22.2667 121.306 22.0293 121.754 21.88C122.202 21.7253 122.706 21.648 123.266 21.648C123.666 21.648 124.066 21.688 124.466 21.768C124.871 21.848 125.266 21.9573 125.65 22.096V22.88C125.33 22.752 124.967 22.6507 124.562 22.576C124.162 22.5013 123.794 22.464 123.458 22.464C122.946 22.464 122.514 22.5707 122.162 22.784C121.81 22.992 121.634 23.3493 121.634 23.856C121.634 24.2293 121.767 24.5493 122.034 24.816C122.306 25.0827 122.738 25.216 123.33 25.216C123.746 25.216 124.119 25.12 124.45 24.928C124.786 24.7307 125.05 24.4853 125.242 24.192C125.439 23.8987 125.538 23.6053 125.538 23.312H125.842C125.842 23.824 125.73 24.2987 125.506 24.736C125.287 25.1733 124.972 25.5253 124.562 25.792C124.151 26.0587 123.66 26.192 123.09 26.192ZM129.934 26V18.336H131.182V26H129.934ZM130.798 22.544C130.798 21.5733 130.891 20.768 131.078 20.128C131.265 19.4827 131.537 19.0027 131.894 18.688C132.257 18.368 132.697 18.208 133.214 18.208C133.385 18.208 133.539 18.2213 133.678 18.248C133.822 18.2693 133.966 18.304 134.11 18.352L134.03 19.584C133.881 19.536 133.718 19.496 133.542 19.464C133.366 19.4267 133.209 19.408 133.07 19.408C132.617 19.408 132.251 19.5387 131.974 19.8C131.697 20.056 131.494 20.4187 131.366 20.888C131.243 21.3573 131.182 21.9093 131.182 22.544H130.798ZM138.531 26.192C137.87 26.192 137.278 26.024 136.755 25.688C136.238 25.3467 135.827 24.8747 135.523 24.272C135.225 23.6693 135.075 22.976 135.075 22.192C135.075 21.3547 135.225 20.6347 135.523 20.032C135.822 19.4293 136.23 18.968 136.747 18.648C137.27 18.3227 137.865 18.16 138.531 18.16C139.113 18.16 139.609 18.2773 140.019 18.512C140.43 18.7467 140.761 19.064 141.011 19.464C141.262 19.864 141.435 20.3173 141.531 20.824C141.633 21.3253 141.662 21.8453 141.619 22.384H136.083V21.616H140.795L140.427 21.856C140.443 21.5413 140.425 21.2267 140.371 20.912C140.323 20.5973 140.23 20.3093 140.091 20.048C139.953 19.7813 139.758 19.568 139.507 19.408C139.257 19.248 138.937 19.168 138.547 19.168C138.057 19.168 137.646 19.2933 137.315 19.544C136.985 19.7947 136.737 20.1253 136.571 20.536C136.406 20.9413 136.323 21.3813 136.323 21.856V22.368C136.323 22.9013 136.403 23.3787 136.563 23.8C136.729 24.2213 136.974 24.5547 137.299 24.8C137.625 25.0453 138.035 25.168 138.531 25.168C139.027 25.168 139.435 25.048 139.755 24.808C140.075 24.568 140.27 24.2133 140.339 23.744H141.635C141.555 24.2507 141.374 24.688 141.091 25.056C140.809 25.4187 140.449 25.6987 140.011 25.896C139.574 26.0933 139.081 26.192 138.531 26.192ZM153.651 26V21.504C153.651 20.7733 153.475 20.2187 153.123 19.84C152.776 19.456 152.302 19.264 151.699 19.264C151.24 19.264 150.843 19.3893 150.507 19.64C150.171 19.8907 149.912 20.2507 149.731 20.72C149.55 21.184 149.459 21.7387 149.459 22.384H148.979C148.979 21.4933 149.096 20.7333 149.331 20.104C149.566 19.4747 149.907 18.9947 150.355 18.664C150.808 18.328 151.358 18.16 152.003 18.16C152.606 18.16 153.12 18.296 153.547 18.568C153.979 18.8347 154.31 19.2187 154.539 19.72C154.768 20.2213 154.883 20.816 154.883 21.504V26H153.651ZM148.211 26V18.352H149.283L149.459 20.112V26H148.211ZM160.795 26.192C160.107 26.192 159.494 26.04 158.955 25.736C158.422 25.432 158.001 24.9813 157.691 24.384C157.382 23.7867 157.227 23.0507 157.227 22.176C157.227 21.296 157.382 20.56 157.691 19.968C158.001 19.3707 158.422 18.92 158.955 18.616C159.494 18.312 160.107 18.16 160.795 18.16C161.478 18.16 162.086 18.312 162.619 18.616C163.158 18.92 163.579 19.3707 163.883 19.968C164.193 20.56 164.347 21.296 164.347 22.176C164.347 23.0507 164.193 23.7867 163.883 24.384C163.579 24.9813 163.158 25.432 162.619 25.736C162.086 26.04 161.478 26.192 160.795 26.192ZM160.763 25.104C161.259 25.104 161.681 24.9867 162.027 24.752C162.374 24.512 162.635 24.1733 162.811 23.736C162.993 23.2987 163.083 22.7787 163.083 22.176C163.083 21.264 162.894 20.5467 162.515 20.024C162.137 19.496 161.574 19.232 160.827 19.232C160.326 19.232 159.902 19.352 159.555 19.592C159.214 19.8267 158.953 20.1653 158.771 20.608C158.595 21.0453 158.507 21.568 158.507 22.176C158.507 23.0773 158.697 23.792 159.075 24.32C159.459 24.8427 160.022 25.104 160.763 25.104ZM170.894 26V15.088H172.142V26H170.894ZM176.243 16.544C175.987 16.544 175.784 16.472 175.635 16.328C175.485 16.1787 175.411 15.984 175.411 15.744C175.411 15.5093 175.485 15.3227 175.635 15.184C175.784 15.0453 175.987 14.976 176.243 14.976C176.499 14.976 176.701 15.0453 176.851 15.184C177 15.3227 177.075 15.5093 177.075 15.744C177.075 15.984 177 16.1787 176.851 16.328C176.701 16.472 176.499 16.544 176.243 16.544ZM175.619 26V18.336H176.867V26H175.619ZM185.904 26V21.504C185.904 20.7733 185.728 20.2187 185.376 19.84C185.029 19.456 184.555 19.264 183.952 19.264C183.493 19.264 183.096 19.3893 182.76 19.64C182.424 19.8907 182.165 20.2507 181.984 20.72C181.803 21.184 181.712 21.7387 181.712 22.384H181.232C181.232 21.4933 181.349 20.7333 181.584 20.104C181.819 19.4747 182.16 18.9947 182.608 18.664C183.061 18.328 183.611 18.16 184.256 18.16C184.859 18.16 185.373 18.296 185.8 18.568C186.232 18.8347 186.563 19.2187 186.792 19.72C187.021 20.2213 187.136 20.816 187.136 21.504V26H185.904ZM180.464 26V18.352H181.536L181.712 20.112V26H180.464ZM190.28 26V15.088H191.528V26H190.28ZM191.336 21.616L195.24 18.352H196.984L191.336 22.944V21.616ZM195.624 26L191.992 21.168L193.256 20.944L197.16 26H195.624ZM202.208 26.192C201.467 26.192 200.848 26.088 200.352 25.88C199.856 25.6667 199.48 25.376 199.224 25.008C198.968 24.6347 198.832 24.208 198.816 23.728H200.016C200.043 24.2133 200.237 24.5787 200.6 24.824C200.968 25.064 201.467 25.184 202.096 25.184C202.427 25.184 202.731 25.1307 203.008 25.024C203.285 24.9173 203.507 24.7707 203.672 24.584C203.837 24.3973 203.92 24.1867 203.92 23.952C203.92 23.6533 203.811 23.4187 203.592 23.248C203.373 23.0773 203.024 22.928 202.544 22.8L201.056 22.32C200.411 22.1173 199.915 21.84 199.568 21.488C199.227 21.1307 199.056 20.704 199.056 20.208C199.056 19.5893 199.328 19.0933 199.872 18.72C200.416 18.3467 201.131 18.16 202.016 18.16C202.955 18.16 203.683 18.352 204.2 18.736C204.717 19.12 204.987 19.6 205.008 20.176H203.776C203.728 19.84 203.557 19.5867 203.264 19.416C202.971 19.24 202.555 19.152 202.016 19.152C201.499 19.152 201.093 19.2693 200.8 19.504C200.512 19.7333 200.368 19.9893 200.368 20.272C200.368 20.8 200.821 21.1893 201.728 21.44L203.248 21.952C203.904 22.1493 204.405 22.408 204.752 22.728C205.104 23.048 205.28 23.456 205.28 23.952C205.28 24.336 205.155 24.6987 204.904 25.04C204.653 25.3813 204.299 25.6587 203.84 25.872C203.381 26.0853 202.837 26.192 202.208 26.192ZM33.32 36.544C33.064 36.544 32.8613 36.472 32.712 36.328C32.5627 36.1787 32.488 35.984 32.488 35.744C32.488 35.5093 32.5627 35.3227 32.712 35.184C32.8613 35.0453 33.064 34.976 33.32 34.976C33.576 34.976 33.7787 35.0453 33.928 35.184C34.0773 35.3227 34.152 35.5093 34.152 35.744C34.152 35.984 34.0773 36.1787 33.928 36.328C33.7787 36.472 33.576 36.544 33.32 36.544ZM32.696 46V38.336H33.944V46H32.696ZM42.9816 46V41.504C42.9816 40.7733 42.8056 40.2187 42.4536 39.84C42.107 39.456 41.6323 39.264 41.0296 39.264C40.571 39.264 40.1736 39.3893 39.8376 39.64C39.5016 39.8907 39.243 40.2507 39.0616 40.72C38.8803 41.184 38.7896 41.7387 38.7896 42.384H38.3096C38.3096 41.4933 38.427 40.7333 38.6616 40.104C38.8963 39.4747 39.2376 38.9947 39.6856 38.664C40.139 38.328 40.6883 38.16 41.3336 38.16C41.9363 38.16 42.451 38.296 42.8776 38.568C43.3096 38.8347 43.6403 39.2187 43.8696 39.72C44.099 40.2213 44.2136 40.816 44.2136 41.504V46H42.9816ZM37.5416 46V38.352H38.6136L38.7896 40.112V46H37.5416ZM53.6667 46.192C53.2507 46.192 52.8774 46.112 52.5467 45.952C52.2161 45.792 51.9547 45.552 51.7627 45.232C51.5707 44.912 51.4747 44.512 51.4747 44.032V36.224H52.7067V44C52.7067 44.7893 53.0747 45.184 53.8107 45.184C54.0294 45.184 54.2401 45.16 54.4427 45.112C54.6507 45.064 54.8827 44.992 55.1387 44.896L55.3147 45.792C55.0427 45.9093 54.7707 46.0053 54.4987 46.08C54.2321 46.1547 53.9547 46.192 53.6667 46.192ZM50.2427 39.216V38.352H55.1227V39.216H50.2427ZM62.9304 46V41.504C62.9304 40.7733 62.7544 40.2187 62.4024 39.84C62.0557 39.456 61.581 39.264 60.9784 39.264C60.5197 39.264 60.1224 39.3893 59.7864 39.64C59.4504 39.8907 59.1917 40.2507 59.0104 40.72C58.829 41.184 58.7384 41.7387 58.7384 42.384H58.2584C58.2584 41.4933 58.3757 40.7333 58.6104 40.104C58.845 39.4747 59.1864 38.9947 59.6344 38.664C60.0877 38.328 60.637 38.16 61.2824 38.16C61.885 38.16 62.3997 38.296 62.8264 38.568C63.2584 38.8347 63.589 39.2187 63.8184 39.72C64.0477 40.2213 64.1624 40.816 64.1624 41.504V46H62.9304ZM57.4904 46V35.088H58.7384V46H57.4904ZM68.0106 36.544C67.7546 36.544 67.552 36.472 67.4026 36.328C67.2533 36.1787 67.1786 35.984 67.1786 35.744C67.1786 35.5093 67.2533 35.3227 67.4026 35.184C67.552 35.0453 67.7546 34.976 68.0106 34.976C68.2666 34.976 68.4693 35.0453 68.6186 35.184C68.768 35.3227 68.8426 35.5093 68.8426 35.744C68.8426 35.984 68.768 36.1787 68.6186 36.328C68.4693 36.472 68.2666 36.544 68.0106 36.544ZM67.3866 46V38.336H68.6346V46H67.3866ZM74.9842 46.192C74.2429 46.192 73.6242 46.088 73.1282 45.88C72.6322 45.6667 72.2562 45.376 72.0002 45.008C71.7442 44.6347 71.6082 44.208 71.5922 43.728H72.7922C72.8189 44.2133 73.0136 44.5787 73.3762 44.824C73.7442 45.064 74.2429 45.184 74.8722 45.184C75.2029 45.184 75.5069 45.1307 75.7842 45.024C76.0616 44.9173 76.2829 44.7707 76.4482 44.584C76.6136 44.3973 76.6962 44.1867 76.6962 43.952C76.6962 43.6533 76.5869 43.4187 76.3682 43.248C76.1496 43.0773 75.8002 42.928 75.3202 42.8L73.8322 42.32C73.1869 42.1173 72.6909 41.84 72.3442 41.488C72.0029 41.1307 71.8322 40.704 71.8322 40.208C71.8322 39.5893 72.1042 39.0933 72.6482 38.72C73.1922 38.3467 73.9069 38.16 74.7922 38.16C75.7309 38.16 76.4589 38.352 76.9762 38.736C77.4936 39.12 77.7629 39.6 77.7842 40.176H76.5522C76.5042 39.84 76.3336 39.5867 76.0402 39.416C75.7469 39.24 75.3309 39.152 74.7922 39.152C74.2749 39.152 73.8696 39.2693 73.5762 39.504C73.2882 39.7333 73.1442 39.9893 73.1442 40.272C73.1442 40.8 73.5976 41.1893 74.5042 41.44L76.0242 41.952C76.6802 42.1493 77.1816 42.408 77.5282 42.728C77.8802 43.048 78.0562 43.456 78.0562 43.952C78.0562 44.336 77.9309 44.6987 77.6802 45.04C77.4296 45.3813 77.0749 45.6587 76.6162 45.872C76.1576 46.0853 75.6136 46.192 74.9842 46.192ZM88.2274 46.192C87.6674 46.192 87.1794 46.064 86.7634 45.808C86.3527 45.552 86.0354 45.1787 85.8114 44.688C85.5874 44.192 85.4754 43.5893 85.4754 42.88H86.0034C86.0034 43.3547 86.102 43.7547 86.2994 44.08C86.4967 44.4053 86.7527 44.6533 87.0674 44.824C87.3874 44.9893 87.726 45.072 88.0834 45.072C88.4674 45.072 88.8354 44.9627 89.1874 44.744C89.5394 44.52 89.8274 44.192 90.0514 43.76C90.2754 43.328 90.3874 42.7947 90.3874 42.16C90.3874 41.552 90.2834 41.032 90.0754 40.6C89.8727 40.168 89.598 39.8373 89.2514 39.608C88.9047 39.3787 88.5207 39.264 88.0994 39.264C87.7367 39.264 87.3954 39.352 87.0754 39.528C86.7554 39.704 86.4967 39.9627 86.2994 40.304C86.102 40.64 86.0034 41.056 86.0034 41.552H85.4754C85.4754 40.8107 85.598 40.1893 85.8434 39.688C86.0887 39.1813 86.422 38.8 86.8434 38.544C87.2647 38.288 87.7367 38.16 88.2594 38.16C88.8567 38.16 89.414 38.32 89.9314 38.64C90.4487 38.96 90.8674 39.4187 91.1874 40.016C91.5074 40.6133 91.6674 41.328 91.6674 42.16C91.6674 43.0027 91.5047 43.7253 91.1794 44.328C90.8594 44.9307 90.438 45.392 89.9154 45.712C89.3927 46.032 88.83 46.192 88.2274 46.192ZM84.7554 49.76V38.352H85.7954L86.0034 40.144V49.76H84.7554ZM99.0107 46L98.8507 44.32V41.04C98.8507 40.352 98.7041 39.8587 98.4107 39.56C98.1174 39.256 97.6774 39.104 97.0907 39.104C96.7601 39.104 96.4587 39.152 96.1867 39.248C95.9201 39.344 95.7067 39.4933 95.5467 39.696C95.3921 39.8933 95.3147 40.1493 95.3147 40.464H93.9227C93.9227 39.9093 94.0587 39.464 94.3307 39.128C94.6027 38.7867 94.9761 38.5413 95.4507 38.392C95.9307 38.2373 96.4774 38.16 97.0907 38.16C97.6774 38.16 98.1974 38.2587 98.6507 38.456C99.1041 38.6533 99.4587 38.968 99.7147 39.4C99.9707 39.8267 100.099 40.384 100.099 41.072V46H99.0107ZM96.4027 46.192C95.7734 46.192 95.2534 46.08 94.8427 45.856C94.4321 45.632 94.1254 45.3413 93.9227 44.984C93.7201 44.6267 93.6187 44.2507 93.6187 43.856C93.6187 43.3387 93.7467 42.9173 94.0027 42.592C94.2641 42.2667 94.6187 42.0293 95.0667 41.88C95.5147 41.7253 96.0187 41.648 96.5787 41.648C96.9787 41.648 97.3787 41.688 97.7787 41.768C98.1841 41.848 98.5787 41.9573 98.9627 42.096V42.88C98.6427 42.752 98.2801 42.6507 97.8747 42.576C97.4747 42.5013 97.1067 42.464 96.7707 42.464C96.2587 42.464 95.8267 42.5707 95.4747 42.784C95.1227 42.992 94.9467 43.3493 94.9467 43.856C94.9467 44.2293 95.0801 44.5493 95.3467 44.816C95.6187 45.0827 96.0507 45.216 96.6427 45.216C97.0587 45.216 97.4321 45.12 97.7627 44.928C98.0987 44.7307 98.3627 44.4853 98.5547 44.192C98.7521 43.8987 98.8507 43.6053 98.8507 43.312H99.1547C99.1547 43.824 99.0427 44.2987 98.8187 44.736C98.6001 45.1733 98.2854 45.5253 97.8747 45.792C97.4641 46.0587 96.9734 46.192 96.4027 46.192ZM103.247 46V38.336H104.495V46H103.247ZM104.111 42.544C104.111 41.5733 104.205 40.768 104.391 40.128C104.578 39.4827 104.85 39.0027 105.207 38.688C105.57 38.368 106.01 38.208 106.527 38.208C106.698 38.208 106.853 38.2213 106.991 38.248C107.135 38.2693 107.279 38.304 107.423 38.352L107.343 39.584C107.194 39.536 107.031 39.496 106.855 39.464C106.679 39.4267 106.522 39.408 106.383 39.408C105.93 39.408 105.565 39.5387 105.287 39.8C105.01 40.056 104.807 40.4187 104.679 40.888C104.557 41.3573 104.495 41.9093 104.495 42.544H104.111ZM113.925 46L113.765 44.32V41.04C113.765 40.352 113.618 39.8587 113.325 39.56C113.031 39.256 112.591 39.104 112.005 39.104C111.674 39.104 111.373 39.152 111.101 39.248C110.834 39.344 110.621 39.4933 110.461 39.696C110.306 39.8933 110.229 40.1493 110.229 40.464H108.837C108.837 39.9093 108.973 39.464 109.245 39.128C109.517 38.7867 109.89 38.5413 110.365 38.392C110.845 38.2373 111.391 38.16 112.005 38.16C112.591 38.16 113.111 38.2587 113.565 38.456C114.018 38.6533 114.373 38.968 114.629 39.4C114.885 39.8267 115.013 40.384 115.013 41.072V46H113.925ZM111.317 46.192C110.687 46.192 110.167 46.08 109.757 45.856C109.346 45.632 109.039 45.3413 108.837 44.984C108.634 44.6267 108.533 44.2507 108.533 43.856C108.533 43.3387 108.661 42.9173 108.917 42.592C109.178 42.2667 109.533 42.0293 109.981 41.88C110.429 41.7253 110.933 41.648 111.493 41.648C111.893 41.648 112.293 41.688 112.693 41.768C113.098 41.848 113.493 41.9573 113.877 42.096V42.88C113.557 42.752 113.194 42.6507 112.789 42.576C112.389 42.5013 112.021 42.464 111.685 42.464C111.173 42.464 110.741 42.5707 110.389 42.784C110.037 42.992 109.861 43.3493 109.861 43.856C109.861 44.2293 109.994 44.5493 110.261 44.816C110.533 45.0827 110.965 45.216 111.557 45.216C111.973 45.216 112.346 45.12 112.677 44.928C113.013 44.7307 113.277 44.4853 113.469 44.192C113.666 43.8987 113.765 43.6053 113.765 43.312H114.069C114.069 43.824 113.957 44.2987 113.733 44.736C113.514 45.1733 113.199 45.5253 112.789 45.792C112.378 46.0587 111.887 46.192 111.317 46.192ZM120.865 49.936C120.081 49.936 119.401 49.824 118.825 49.6C118.249 49.3813 117.801 49.0853 117.481 48.712C117.166 48.344 117.009 47.936 117.009 47.488C117.009 46.896 117.225 46.4427 117.657 46.128C118.094 45.8187 118.657 45.664 119.345 45.664L120.033 46.096C119.457 46.096 119.012 46.216 118.697 46.456C118.382 46.696 118.225 47.024 118.225 47.44C118.225 47.856 118.449 48.208 118.897 48.496C119.345 48.784 120.001 48.928 120.865 48.928C121.505 48.928 122.065 48.8347 122.545 48.648C123.03 48.4667 123.406 48.2267 123.673 47.928C123.945 47.6347 124.081 47.3173 124.081 46.976C124.081 46.736 123.993 46.528 123.817 46.352C123.641 46.1813 123.372 46.096 123.009 46.096H120.033C119.516 46.096 119.068 46.0187 118.689 45.864C118.316 45.704 118.028 45.496 117.825 45.24C117.622 44.984 117.521 44.704 117.521 44.4C117.521 44.08 117.612 43.808 117.793 43.584C117.974 43.36 118.209 43.1893 118.497 43.072C118.79 42.9547 119.105 42.896 119.441 42.896L119.681 43.36C119.521 43.36 119.358 43.3973 119.193 43.472C119.033 43.5413 118.897 43.648 118.785 43.792C118.678 43.9307 118.625 44.1067 118.625 44.32C118.625 44.5653 118.726 44.7707 118.929 44.936C119.132 45.1013 119.5 45.184 120.033 45.184H123.009C123.729 45.184 124.294 45.336 124.705 45.64C125.121 45.944 125.329 46.368 125.329 46.912C125.329 47.4133 125.15 47.8933 124.793 48.352C124.436 48.816 123.924 49.1947 123.257 49.488C122.59 49.7867 121.793 49.936 120.865 49.936ZM121.089 43.76C120.502 43.76 119.972 43.6427 119.497 43.408C119.028 43.1733 118.654 42.8453 118.377 42.424C118.105 42.0027 117.969 41.5147 117.969 40.96C117.969 40.4 118.105 39.9093 118.377 39.488C118.654 39.0667 119.028 38.7413 119.497 38.512C119.972 38.2773 120.502 38.16 121.089 38.16C121.66 38.16 122.177 38.2773 122.641 38.512C123.11 38.7413 123.484 39.0667 123.761 39.488C124.038 39.9093 124.177 40.4 124.177 40.96C124.177 41.5147 124.038 42.0027 123.761 42.424C123.484 42.8453 123.11 43.1733 122.641 43.408C122.177 43.6427 121.66 43.76 121.089 43.76ZM121.089 42.864C121.676 42.864 122.132 42.6827 122.457 42.32C122.782 41.9573 122.945 41.504 122.945 40.96C122.945 40.4 122.782 39.9467 122.457 39.6C122.132 39.248 121.676 39.072 121.089 39.072C120.508 39.072 120.049 39.248 119.713 39.6C119.382 39.9467 119.217 40.4 119.217 40.96C119.217 41.504 119.382 41.9573 119.713 42.32C120.049 42.6827 120.508 42.864 121.089 42.864ZM123.601 39.376L123.009 39.136C123.009 38.688 123.097 38.296 123.273 37.96C123.449 37.6187 123.7 37.3547 124.025 37.168C124.35 36.976 124.737 36.88 125.185 36.88L125.089 38.112C124.609 38.112 124.241 38.216 123.985 38.424C123.729 38.6267 123.601 38.944 123.601 39.376ZM127.352 46V38.336H128.6V46H127.352ZM128.216 42.544C128.216 41.5733 128.31 40.768 128.496 40.128C128.683 39.4827 128.955 39.0027 129.312 38.688C129.675 38.368 130.115 38.208 130.632 38.208C130.803 38.208 130.958 38.2213 131.096 38.248C131.24 38.2693 131.384 38.304 131.528 38.352L131.448 39.584C131.299 39.536 131.136 39.496 130.96 39.464C130.784 39.4267 130.627 39.408 130.488 39.408C130.035 39.408 129.67 39.5387 129.392 39.8C129.115 40.056 128.912 40.4187 128.784 40.888C128.662 41.3573 128.6 41.9093 128.6 42.544H128.216ZM138.029 46L137.869 44.32V41.04C137.869 40.352 137.723 39.8587 137.429 39.56C137.136 39.256 136.696 39.104 136.109 39.104C135.779 39.104 135.477 39.152 135.205 39.248C134.939 39.344 134.725 39.4933 134.565 39.696C134.411 39.8933 134.333 40.1493 134.333 40.464H132.941C132.941 39.9093 133.077 39.464 133.349 39.128C133.621 38.7867 133.995 38.5413 134.469 38.392C134.949 38.2373 135.496 38.16 136.109 38.16C136.696 38.16 137.216 38.2587 137.669 38.456C138.123 38.6533 138.477 38.968 138.733 39.4C138.989 39.8267 139.117 40.384 139.117 41.072V46H138.029ZM135.421 46.192C134.792 46.192 134.272 46.08 133.861 45.856C133.451 45.632 133.144 45.3413 132.941 44.984C132.739 44.6267 132.637 44.2507 132.637 43.856C132.637 43.3387 132.765 42.9173 133.021 42.592C133.283 42.2667 133.637 42.0293 134.085 41.88C134.533 41.7253 135.037 41.648 135.597 41.648C135.997 41.648 136.397 41.688 136.797 41.768C137.203 41.848 137.597 41.9573 137.981 42.096V42.88C137.661 42.752 137.299 42.6507 136.893 42.576C136.493 42.5013 136.125 42.464 135.789 42.464C135.277 42.464 134.845 42.5707 134.493 42.784C134.141 42.992 133.965 43.3493 133.965 43.856C133.965 44.2293 134.099 44.5493 134.365 44.816C134.637 45.0827 135.069 45.216 135.661 45.216C136.077 45.216 136.451 45.12 136.781 44.928C137.117 44.7307 137.381 44.4853 137.573 44.192C137.771 43.8987 137.869 43.6053 137.869 43.312H138.173C138.173 43.824 138.061 44.2987 137.837 44.736C137.619 45.1733 137.304 45.5253 136.893 45.792C136.483 46.0587 135.992 46.192 135.421 46.192ZM145.738 46.192C145.178 46.192 144.69 46.064 144.274 45.808C143.863 45.552 143.546 45.1787 143.322 44.688C143.098 44.192 142.986 43.5893 142.986 42.88H143.514C143.514 43.3547 143.613 43.7547 143.81 44.08C144.007 44.4053 144.263 44.6533 144.578 44.824C144.898 44.9893 145.237 45.072 145.594 45.072C145.978 45.072 146.346 44.9627 146.698 44.744C147.05 44.52 147.338 44.192 147.562 43.76C147.786 43.328 147.898 42.7947 147.898 42.16C147.898 41.552 147.794 41.032 147.586 40.6C147.383 40.168 147.109 39.8373 146.762 39.608C146.415 39.3787 146.031 39.264 145.61 39.264C145.247 39.264 144.906 39.352 144.586 39.528C144.266 39.704 144.007 39.9627 143.81 40.304C143.613 40.64 143.514 41.056 143.514 41.552H142.986C142.986 40.8107 143.109 40.1893 143.354 39.688C143.599 39.1813 143.933 38.8 144.354 38.544C144.775 38.288 145.247 38.16 145.77 38.16C146.367 38.16 146.925 38.32 147.442 38.64C147.959 38.96 148.378 39.4187 148.698 40.016C149.018 40.6133 149.178 41.328 149.178 42.16C149.178 43.0027 149.015 43.7253 148.69 44.328C148.37 44.9307 147.949 45.392 147.426 45.712C146.903 46.032 146.341 46.192 145.738 46.192ZM142.266 49.76V38.352H143.306L143.514 40.144V49.76H142.266ZM157.225 46V41.504C157.225 40.7733 157.049 40.2187 156.697 39.84C156.351 39.456 155.876 39.264 155.273 39.264C154.815 39.264 154.417 39.3893 154.081 39.64C153.745 39.8907 153.487 40.2507 153.305 40.72C153.124 41.184 153.033 41.7387 153.033 42.384H152.553C152.553 41.4933 152.671 40.7333 152.905 40.104C153.14 39.4747 153.481 38.9947 153.929 38.664C154.383 38.328 154.932 38.16 155.577 38.16C156.18 38.16 156.695 38.296 157.121 38.568C157.553 38.8347 157.884 39.2187 158.113 39.72C158.343 40.2213 158.457 40.816 158.457 41.504V46H157.225ZM151.785 46V35.088H153.033V46H151.785ZM160.466 45.256C160.466 45.0053 160.554 44.7893 160.73 44.608C160.906 44.4267 161.127 44.336 161.394 44.336C161.66 44.336 161.887 44.4267 162.074 44.608C162.26 44.7893 162.354 45.0053 162.354 45.256C162.354 45.5067 162.26 45.7173 162.074 45.888C161.887 46.0587 161.66 46.144 161.394 46.144C161.127 46.144 160.906 46.0587 160.73 45.888C160.554 45.712 160.466 45.5013 160.466 45.256Z" fill="#4A5DC8"/>
</g>
<defs>
<filter id="filter0_d_7084_5690" x="0" y="0" width="225.035" height="70" filterUnits="userSpaceOnUse" color-interpolation-filters="sRGB">
<feFlood flood-opacity="0" result="BackgroundImageFix"/>
<feColorMatrix in="SourceAlpha" type="matrix" values="0 0 0 0 0 0 0 0 0 0 0 0 0 0 0 0 0 0 127 0" result="hardAlpha"/>
<feOffset dy="4"/>
<feGaussianBlur stdDeviation="3"/>
<feComposite in2="hardAlpha" operator="out"/>
<feColorMatrix type="matrix" values="0 0 0 0 0 0 0 0 0 0 0 0 0 0 0 0 0 0 0.1 0"/>
<feBlend mode="normal" in2="BackgroundImageFix" result="effect1_dropShadow_7084_5690"/>
<feBlend mode="normal" in="SourceGraphic" in2="effect1_dropShadow_7084_5690" result="shape"/>
</filter>
<filter id="filter1_d_7084_5690" x="26.104" y="12.9756" width="185.176" height="46.96" filterUnits="userSpaceOnUse" color-interpolation-filters="sRGB">
<feFlood flood-opacity="0" result="BackgroundImageFix"/>
<feColorMatrix in="SourceAlpha" type="matrix" values="0 0 0 0 0 0 0 0 0 0 0 0 0 0 0 0 0 0 127 0" result="hardAlpha"/>
<feOffset dy="4"/>
<feGaussianBlur stdDeviation="3"/>
<feComposite in2="hardAlpha" operator="out"/>
<feColorMatrix type="matrix" values="0 0 0 0 0 0 0 0 0 0 0 0 0 0 0 0 0 0 0.05 0"/>
<feBlend mode="normal" in2="BackgroundImageFix" result="effect1_dropShadow_7084_5690"/>
<feBlend mode="normal" in="SourceGraphic" in2="effect1_dropShadow_7084_5690" result="shape"/>
</filter>
</defs>
</svg>
