<svg width="259" height="67" viewBox="0 0 259 67" fill="none" xmlns="http://www.w3.org/2000/svg">
<path d="M7.15907 31.0643L17.9619 37.2L17.9619 50.4C17.9619 54.0451 22.4383 57 27.9603 57L246.002 57C251.524 57 256 54.0451 256 50.4V8.6C256 4.95492 251.524 2 246.002 2L27.9603 2C22.4383 2 17.9619 4.95492 17.9619 8.6V22.1667L7.28375 27.6616C5.62427 28.5155 5.56408 30.1584 7.15907 31.0643Z" fill="white"/>
<g filter="url(#filter0_d_7100_5717)">
<mask id="path-2-inside-1_7100_5717" fill="white">
<path d="M7.04333 31.6331L16.7674 40V48C16.7674 52.9706 20.7968 57 25.7674 57L172.035 57C177.005 57 181.035 52.9706 181.035 48V11C181.035 6.02944 177.005 2 172.035 2L25.7674 2C20.7968 2 16.7674 6.02944 16.7674 11V19.5L7.15555 26.9931C5.66179 28.1575 5.60761 30.3978 7.04333 31.6331Z"/>
</mask>
<path d="M7.04333 31.6331L16.7674 40V48C16.7674 52.9706 20.7968 57 25.7674 57L172.035 57C177.005 57 181.035 52.9706 181.035 48V11C181.035 6.02944 177.005 2 172.035 2L25.7674 2C20.7968 2 16.7674 6.02944 16.7674 11V19.5L7.15555 26.9931C5.66179 28.1575 5.60761 30.3978 7.04333 31.6331Z" fill="#FFF2EA"/>
<path d="M16.7674 40H18.1674V39.3577L17.6805 38.9388L16.7674 40ZM7.04333 31.6331L6.13021 32.6944L6.13021 32.6944L7.04333 31.6331ZM7.15555 26.9931L8.0163 28.0972L8.0163 28.0972L7.15555 26.9931ZM16.7674 19.5L17.6281 20.6041L18.1674 20.1838V19.5H16.7674ZM25.7674 2V0.6V2ZM172.035 2V3.4V2ZM17.6805 38.9388L7.95644 30.5719L6.13021 32.6944L15.8542 41.0612L17.6805 38.9388ZM8.0163 28.0972L17.6281 20.6041L15.9066 18.3959L6.2948 25.8889L8.0163 28.0972ZM7.95644 30.5719C7.19073 29.9131 7.21963 28.7183 8.0163 28.0972L6.2948 25.8889C4.10396 27.5968 4.02449 30.8825 6.13021 32.6944L7.95644 30.5719ZM25.7674 3.4L172.035 3.4L172.035 0.600003L25.7674 0.6L25.7674 3.4ZM179.635 11V48H182.435V11H179.635ZM172.035 55.6L25.7674 55.6V58.4L172.035 58.4V55.6ZM18.1674 19.5V11H15.3674V19.5H18.1674ZM18.1674 48V40H15.3674V48H18.1674ZM25.7674 55.6C21.57 55.6 18.1674 52.1974 18.1674 48H15.3674C15.3674 53.7438 20.0236 58.4 25.7674 58.4V55.6ZM179.635 48C179.635 52.1974 176.232 55.6 172.035 55.6V58.4C177.778 58.4 182.435 53.7438 182.435 48H179.635ZM172.035 3.4C176.232 3.4 179.635 6.80264 179.635 11H182.435C182.435 5.25624 177.778 0.600003 172.035 0.600003V3.4ZM25.7674 0.6C20.0236 0.6 15.3674 5.25624 15.3674 11H18.1674C18.1674 6.80264 21.57 3.4 25.7674 3.4V0.6Z" fill="#997452" mask="url(#path-2-inside-1_7100_5717)"/>
</g>
<g filter="url(#filter1_d_7100_5717)">
<path d="M31.3636 15.024V13.952H39.1876V15.024H35.6116L35.8916 14.736V24H34.6436V14.736L34.9236 15.024H31.3636ZM46.4992 24V19.504C46.4992 18.7733 46.3232 18.2187 45.9712 17.84C45.6245 17.456 45.1499 17.264 44.5472 17.264C44.0885 17.264 43.6912 17.3893 43.3552 17.64C43.0192 17.8907 42.7605 18.2507 42.5792 18.72C42.3979 19.184 42.3072 19.7387 42.3072 20.384H41.8272C41.8272 19.4933 41.9445 18.7333 42.1792 18.104C42.4139 17.4747 42.7552 16.9947 43.2032 16.664C43.6565 16.328 44.2059 16.16 44.8512 16.16C45.4539 16.16 45.9685 16.296 46.3952 16.568C46.8272 16.8347 47.1579 17.2187 47.3872 17.72C47.6165 18.2213 47.7312 18.816 47.7312 19.504V24H46.4992ZM41.0592 24V13.088H42.3072V24H41.0592ZM53.5315 24.192C52.8701 24.192 52.2781 24.024 51.7555 23.688C51.2381 23.3467 50.8275 22.8747 50.5235 22.272C50.2248 21.6693 50.0755 20.976 50.0755 20.192C50.0755 19.3547 50.2248 18.6347 50.5235 18.032C50.8221 17.4293 51.2301 16.968 51.7475 16.648C52.2701 16.3227 52.8648 16.16 53.5315 16.16C54.1128 16.16 54.6088 16.2773 55.0195 16.512C55.4301 16.7467 55.7608 17.064 56.0115 17.464C56.2621 17.864 56.4355 18.3173 56.5315 18.824C56.6328 19.3253 56.6621 19.8453 56.6195 20.384H51.0835V19.616H55.7955L55.4275 19.856C55.4435 19.5413 55.4248 19.2267 55.3715 18.912C55.3235 18.5973 55.2301 18.3093 55.0915 18.048C54.9528 17.7813 54.7581 17.568 54.5075 17.408C54.2568 17.248 53.9368 17.168 53.5475 17.168C53.0568 17.168 52.6461 17.2933 52.3155 17.544C51.9848 17.7947 51.7368 18.1253 51.5715 18.536C51.4061 18.9413 51.3235 19.3813 51.3235 19.856V20.368C51.3235 20.9013 51.4035 21.3787 51.5635 21.8C51.7288 22.2213 51.9741 22.5547 52.2995 22.8C52.6248 23.0453 53.0355 23.168 53.5315 23.168C54.0275 23.168 54.4355 23.048 54.7555 22.808C55.0755 22.568 55.2701 22.2133 55.3395 21.744H56.6355C56.5555 22.2507 56.3741 22.688 56.0915 23.056C55.8088 23.4187 55.4488 23.6987 55.0115 23.896C54.5741 24.0933 54.0808 24.192 53.5315 24.192ZM59.2542 24V16.336H60.5022V24H59.2542ZM60.1182 20.544C60.1182 19.5733 60.2115 18.768 60.3982 18.128C60.5849 17.4827 60.8569 17.0027 61.2142 16.688C61.5769 16.368 62.0169 16.208 62.5342 16.208C62.7049 16.208 62.8595 16.2213 62.9982 16.248C63.1422 16.2693 63.2862 16.304 63.4302 16.352L63.3502 17.584C63.2009 17.536 63.0382 17.496 62.8622 17.464C62.6862 17.4267 62.5289 17.408 62.3902 17.408C61.9369 17.408 61.5715 17.5387 61.2942 17.8C61.0169 18.056 60.8142 18.4187 60.6862 18.888C60.5635 19.3573 60.5022 19.9093 60.5022 20.544H60.1182ZM67.8515 24.192C67.1901 24.192 66.5981 24.024 66.0755 23.688C65.5581 23.3467 65.1475 22.8747 64.8435 22.272C64.5448 21.6693 64.3955 20.976 64.3955 20.192C64.3955 19.3547 64.5448 18.6347 64.8435 18.032C65.1421 17.4293 65.5501 16.968 66.0675 16.648C66.5901 16.3227 67.1848 16.16 67.8515 16.16C68.4328 16.16 68.9288 16.2773 69.3395 16.512C69.7501 16.7467 70.0808 17.064 70.3315 17.464C70.5821 17.864 70.7555 18.3173 70.8515 18.824C70.9528 19.3253 70.9821 19.8453 70.9395 20.384H65.4035V19.616H70.1155L69.7475 19.856C69.7635 19.5413 69.7448 19.2267 69.6915 18.912C69.6435 18.5973 69.5501 18.3093 69.4115 18.048C69.2728 17.7813 69.0781 17.568 68.8275 17.408C68.5768 17.248 68.2568 17.168 67.8675 17.168C67.3768 17.168 66.9661 17.2933 66.6355 17.544C66.3048 17.7947 66.0568 18.1253 65.8915 18.536C65.7261 18.9413 65.6435 19.3813 65.6435 19.856V20.368C65.6435 20.9013 65.7235 21.3787 65.8835 21.8C66.0488 22.2213 66.2941 22.5547 66.6195 22.8C66.9448 23.0453 67.3555 23.168 67.8515 23.168C68.3475 23.168 68.7555 23.048 69.0755 22.808C69.3955 22.568 69.5901 22.2133 69.6595 21.744H70.9555C70.8755 22.2507 70.6941 22.688 70.4115 23.056C70.1288 23.4187 69.7688 23.6987 69.3315 23.896C68.8941 24.0933 68.4008 24.192 67.8515 24.192ZM76.2671 16.352H77.6591L80.1551 22.912H79.8671L81.8031 16.352H83.0831L80.2031 25.536C79.9631 26.304 79.6431 26.896 79.2431 27.312C78.8431 27.728 78.3311 27.936 77.7071 27.936C77.3711 27.936 77.0511 27.888 76.7471 27.792C76.4484 27.696 76.1391 27.5573 75.8191 27.376V26.224C76.1017 26.448 76.3737 26.608 76.6351 26.704C76.9017 26.8 77.1791 26.848 77.4671 26.848C77.7871 26.848 78.0537 26.7467 78.2671 26.544C78.4857 26.3413 78.6671 26.08 78.8111 25.76C78.9551 25.4453 79.0777 25.1147 79.1791 24.768L79.4031 24L76.2671 16.352ZM87.9122 24.192C87.2242 24.192 86.6109 24.04 86.0722 23.736C85.5389 23.432 85.1175 22.9813 84.8082 22.384C84.4989 21.7867 84.3442 21.0507 84.3442 20.176C84.3442 19.296 84.4989 18.56 84.8082 17.968C85.1175 17.3707 85.5389 16.92 86.0722 16.616C86.6109 16.312 87.2242 16.16 87.9122 16.16C88.5949 16.16 89.2029 16.312 89.7362 16.616C90.2749 16.92 90.6962 17.3707 91.0002 17.968C91.3095 18.56 91.4642 19.296 91.4642 20.176C91.4642 21.0507 91.3095 21.7867 91.0002 22.384C90.6962 22.9813 90.2749 23.432 89.7362 23.736C89.2029 24.04 88.5949 24.192 87.9122 24.192ZM87.8802 23.104C88.3762 23.104 88.7975 22.9867 89.1442 22.752C89.4909 22.512 89.7522 22.1733 89.9282 21.736C90.1095 21.2987 90.2002 20.7787 90.2002 20.176C90.2002 19.264 90.0109 18.5467 89.6322 18.024C89.2535 17.496 88.6909 17.232 87.9442 17.232C87.4429 17.232 87.0189 17.352 86.6722 17.592C86.3309 17.8267 86.0695 18.1653 85.8882 18.608C85.7122 19.0453 85.6242 19.568 85.6242 20.176C85.6242 21.0773 85.8135 21.792 86.1922 22.32C86.5762 22.8427 87.1389 23.104 87.8802 23.104ZM99.2542 16.336H100.502V24H99.2542V16.336ZM93.8302 16.336H95.0782V21.104C95.0782 21.744 95.2329 22.2293 95.5422 22.56C95.8569 22.8907 96.3049 23.056 96.8862 23.056C97.3662 23.056 97.7822 22.928 98.1342 22.672C98.4915 22.416 98.7662 22.064 98.9582 21.616C99.1555 21.1627 99.2542 20.6453 99.2542 20.064H99.7182C99.7182 20.9227 99.5929 21.656 99.3422 22.264C99.0969 22.872 98.7475 23.3387 98.2942 23.664C97.8462 23.984 97.3182 24.144 96.7102 24.144C96.1342 24.144 95.6302 24.0373 95.1982 23.824C94.7662 23.6107 94.4302 23.288 94.1902 22.856C93.9502 22.4187 93.8302 21.8667 93.8302 21.2V16.336ZM106.531 16.352H107.827L109.779 22.736H109.619L111.523 16.72H112.563L114.451 22.752H114.307L116.259 16.352H117.507L114.995 24H113.779L111.923 18.352H112.115L110.275 24H109.059L106.531 16.352ZM120.316 14.544C120.06 14.544 119.858 14.472 119.708 14.328C119.559 14.1787 119.484 13.984 119.484 13.744C119.484 13.5093 119.559 13.3227 119.708 13.184C119.858 13.0453 120.06 12.976 120.316 12.976C120.572 12.976 120.775 13.0453 120.924 13.184C121.074 13.3227 121.148 13.5093 121.148 13.744C121.148 13.984 121.074 14.1787 120.924 14.328C120.775 14.472 120.572 14.544 120.316 14.544ZM119.692 24V16.336H120.94V24H119.692ZM124.538 24V13.088H125.786V24H124.538ZM129.182 24V13.088H130.43V24H129.182ZM138.2 24V15.168C138.2 14.6613 138.296 14.248 138.488 13.928C138.685 13.6027 138.946 13.3627 139.272 13.208C139.602 13.0533 139.97 12.976 140.376 12.976C140.594 12.976 140.816 12.992 141.04 13.024C141.269 13.056 141.496 13.104 141.72 13.168L141.48 14.16C141.32 14.096 141.16 14.048 141 14.016C140.845 13.984 140.696 13.968 140.552 13.968C140.381 13.968 140.21 14 140.04 14.064C139.869 14.128 139.728 14.248 139.616 14.424C139.504 14.6 139.448 14.8533 139.448 15.184V24H138.2ZM136.952 17.216V16.352H141.032V17.216H136.952ZM143.968 14.544C143.712 14.544 143.509 14.472 143.36 14.328C143.21 14.1787 143.136 13.984 143.136 13.744C143.136 13.5093 143.21 13.3227 143.36 13.184C143.509 13.0453 143.712 12.976 143.968 12.976C144.224 12.976 144.426 13.0453 144.576 13.184C144.725 13.3227 144.8 13.5093 144.8 13.744C144.8 13.984 144.725 14.1787 144.576 14.328C144.426 14.472 144.224 14.544 143.968 14.544ZM143.344 24V16.336H144.592V24H143.344ZM153.634 24V19.504C153.634 18.7733 153.458 18.2187 153.106 17.84C152.759 17.456 152.284 17.264 151.682 17.264C151.223 17.264 150.826 17.3893 150.49 17.64C150.154 17.8907 149.895 18.2507 149.714 18.72C149.532 19.184 149.442 19.7387 149.442 20.384H148.962C148.962 19.4933 149.079 18.7333 149.314 18.104C149.548 17.4747 149.89 16.9947 150.338 16.664C150.791 16.328 151.34 16.16 151.986 16.16C152.588 16.16 153.103 16.296 153.53 16.568C153.962 16.8347 154.292 17.2187 154.522 17.72C154.751 18.2213 154.866 18.816 154.866 19.504V24H153.634ZM148.194 24V16.352H149.266L149.442 18.112V24H148.194ZM160.746 24.192C160.127 24.192 159.559 24.0267 159.042 23.696C158.524 23.36 158.111 22.8907 157.802 22.288C157.492 21.68 157.338 20.9653 157.338 20.144C157.338 19.328 157.49 18.6213 157.794 18.024C158.098 17.4267 158.5 16.968 159.002 16.648C159.508 16.3227 160.063 16.16 160.666 16.16C161.226 16.16 161.716 16.296 162.138 16.568C162.564 16.84 162.895 17.232 163.13 17.744C163.364 18.256 163.482 18.8747 163.482 19.6H163.002C163.002 19.0933 162.9 18.6667 162.698 18.32C162.5 17.9733 162.242 17.712 161.922 17.536C161.602 17.3547 161.258 17.264 160.89 17.264C160.474 17.264 160.092 17.3813 159.746 17.616C159.404 17.8453 159.13 18.176 158.922 18.608C158.719 19.0347 158.618 19.5467 158.618 20.144C158.618 20.752 158.719 21.2747 158.922 21.712C159.13 22.1493 159.404 22.4853 159.746 22.72C160.092 22.9547 160.474 23.072 160.89 23.072C161.236 23.072 161.57 22.9813 161.89 22.8C162.215 22.6187 162.482 22.3547 162.69 22.008C162.898 21.656 163.002 21.232 163.002 20.736H163.482C163.482 21.4773 163.359 22.1067 163.114 22.624C162.874 23.136 162.546 23.5253 162.13 23.792C161.719 24.0587 161.258 24.192 160.746 24.192ZM163.21 24L163.002 22.208V13.088H164.25V24H163.21ZM33.9236 33.92H34.9316V44H33.6836V35.392C33.4276 35.568 33.1582 35.704 32.8756 35.8C32.5982 35.8907 32.3182 35.9413 32.0356 35.952V34.736C32.3716 34.688 32.6969 34.6 33.0116 34.472C33.3316 34.344 33.6356 34.16 33.9236 33.92ZM41.2208 44.192C40.5862 44.192 40.0075 44.0773 39.4848 43.848C38.9622 43.6187 38.5435 43.2827 38.2288 42.84C37.9142 42.392 37.7542 41.8453 37.7488 41.2H38.9968C38.9968 41.808 39.2102 42.2667 39.6368 42.576C40.0688 42.8853 40.5968 43.04 41.2208 43.04C41.9408 43.04 42.5062 42.8213 42.9168 42.384C43.3328 41.9413 43.5408 41.3973 43.5408 40.752C43.5408 39.4613 42.7088 38.816 41.0448 38.816H38.3568L38.7888 33.952H44.3568V35.088H39.7968L40.0528 34.656L39.7168 38.16L39.5568 38.016C39.8128 37.9573 40.1035 37.9173 40.4288 37.896C40.7542 37.8693 41.0448 37.856 41.3008 37.856C42.3888 37.856 43.2502 38.0987 43.8848 38.584C44.5195 39.0693 44.8368 39.792 44.8368 40.752C44.8368 41.4027 44.6902 41.9893 44.3968 42.512C44.1035 43.0293 43.6848 43.44 43.1408 43.744C42.6022 44.0427 41.9622 44.192 41.2208 44.192ZM51.473 44V36.336H52.721V44H51.473ZM52.337 40.544C52.337 39.5733 52.4303 38.768 52.617 38.128C52.8036 37.4827 53.0756 37.0027 53.433 36.688C53.7956 36.368 54.2356 36.208 54.753 36.208C54.9236 36.208 55.0783 36.2213 55.217 36.248C55.361 36.2693 55.505 36.304 55.649 36.352L55.569 37.584C55.4196 37.536 55.257 37.496 55.081 37.464C54.905 37.4267 54.7476 37.408 54.609 37.408C54.1556 37.408 53.7903 37.5387 53.513 37.8C53.2356 38.056 53.033 38.4187 52.905 38.888C52.7823 39.3573 52.721 39.9093 52.721 40.544H52.337ZM60.0702 44.192C59.4089 44.192 58.8169 44.024 58.2942 43.688C57.7769 43.3467 57.3662 42.8747 57.0622 42.272C56.7635 41.6693 56.6142 40.976 56.6142 40.192C56.6142 39.3547 56.7635 38.6347 57.0622 38.032C57.3609 37.4293 57.7689 36.968 58.2862 36.648C58.8089 36.3227 59.4035 36.16 60.0702 36.16C60.6515 36.16 61.1475 36.2773 61.5582 36.512C61.9689 36.7467 62.2995 37.064 62.5502 37.464C62.8009 37.864 62.9742 38.3173 63.0702 38.824C63.1715 39.3253 63.2009 39.8453 63.1582 40.384H57.6222V39.616H62.3342L61.9662 39.856C61.9822 39.5413 61.9635 39.2267 61.9102 38.912C61.8622 38.5973 61.7689 38.3093 61.6302 38.048C61.4915 37.7813 61.2969 37.568 61.0462 37.408C60.7955 37.248 60.4755 37.168 60.0862 37.168C59.5955 37.168 59.1849 37.2933 58.8542 37.544C58.5235 37.7947 58.2755 38.1253 58.1102 38.536C57.9449 38.9413 57.8622 39.3813 57.8622 39.856V40.368C57.8622 40.9013 57.9422 41.3787 58.1022 41.8C58.2675 42.2213 58.5129 42.5547 58.8382 42.8C59.1635 43.0453 59.5742 43.168 60.0702 43.168C60.5662 43.168 60.9742 43.048 61.2942 42.808C61.6142 42.568 61.8089 42.2133 61.8782 41.744H63.1742C63.0942 42.2507 62.9129 42.688 62.6302 43.056C62.3475 43.4187 61.9875 43.6987 61.5502 43.896C61.1129 44.0933 60.6195 44.192 60.0702 44.192ZM68.481 44.192C67.8676 44.192 67.2943 44.0267 66.761 43.696C66.233 43.3653 65.8063 42.8987 65.481 42.296C65.1556 41.6933 64.993 40.9813 64.993 40.16C64.993 39.3173 65.1556 38.5973 65.481 38C65.8063 37.4027 66.233 36.9467 66.761 36.632C67.2943 36.3173 67.8676 36.16 68.481 36.16C68.913 36.16 69.2996 36.2267 69.641 36.36C69.9876 36.488 70.289 36.6667 70.545 36.896C70.801 37.1253 71.0116 37.3867 71.177 37.68C71.3476 37.968 71.473 38.272 71.553 38.592L70.273 38.704C70.1396 38.2613 69.9156 37.912 69.601 37.656C69.2916 37.3947 68.913 37.264 68.465 37.264C68.0863 37.264 67.729 37.3733 67.393 37.592C67.0623 37.8053 66.793 38.128 66.585 38.56C66.377 38.9867 66.273 39.52 66.273 40.16C66.273 40.752 66.3663 41.2667 66.553 41.704C66.745 42.136 67.0063 42.472 67.337 42.712C67.6676 42.952 68.0436 43.072 68.465 43.072C69.057 43.072 69.505 42.928 69.809 42.64C70.1183 42.3467 70.273 41.9413 70.273 41.424H71.553C71.553 41.9573 71.4276 42.432 71.177 42.848C70.9263 43.264 70.569 43.592 70.105 43.832C69.6463 44.072 69.105 44.192 68.481 44.192ZM74.907 34.544C74.651 34.544 74.4483 34.472 74.299 34.328C74.1496 34.1787 74.075 33.984 74.075 33.744C74.075 33.5093 74.1496 33.3227 74.299 33.184C74.4483 33.0453 74.651 32.976 74.907 32.976C75.163 32.976 75.3656 33.0453 75.515 33.184C75.6643 33.3227 75.739 33.5093 75.739 33.744C75.739 33.984 75.6643 34.1787 75.515 34.328C75.3656 34.472 75.163 34.544 74.907 34.544ZM74.283 44V36.336H75.531V44H74.283ZM82.6006 44.192C82.0406 44.192 81.5526 44.064 81.1366 43.808C80.7259 43.552 80.4086 43.1787 80.1846 42.688C79.9606 42.192 79.8486 41.5893 79.8486 40.88H80.3766C80.3766 41.3547 80.4752 41.7547 80.6726 42.08C80.8699 42.4053 81.1259 42.6533 81.4406 42.824C81.7606 42.9893 82.0992 43.072 82.4566 43.072C82.8406 43.072 83.2086 42.9627 83.5606 42.744C83.9126 42.52 84.2006 42.192 84.4246 41.76C84.6486 41.328 84.7606 40.7947 84.7606 40.16C84.7606 39.552 84.6566 39.032 84.4486 38.6C84.2459 38.168 83.9712 37.8373 83.6246 37.608C83.2779 37.3787 82.8939 37.264 82.4726 37.264C82.1099 37.264 81.7686 37.352 81.4486 37.528C81.1286 37.704 80.8699 37.9627 80.6726 38.304C80.4752 38.64 80.3766 39.056 80.3766 39.552H79.8486C79.8486 38.8107 79.9712 38.1893 80.2166 37.688C80.4619 37.1813 80.7952 36.8 81.2166 36.544C81.6379 36.288 82.1099 36.16 82.6326 36.16C83.2299 36.16 83.7872 36.32 84.3046 36.64C84.8219 36.96 85.2406 37.4187 85.5606 38.016C85.8806 38.6133 86.0406 39.328 86.0406 40.16C86.0406 41.0027 85.8779 41.7253 85.5526 42.328C85.2326 42.9307 84.8112 43.392 84.2886 43.712C83.7659 44.032 83.2032 44.192 82.6006 44.192ZM79.1286 47.76V36.352H80.1686L80.3766 38.144V47.76H79.1286ZM91.304 44.192C90.6426 44.192 90.0506 44.024 89.528 43.688C89.0106 43.3467 88.6 42.8747 88.296 42.272C87.9973 41.6693 87.848 40.976 87.848 40.192C87.848 39.3547 87.9973 38.6347 88.296 38.032C88.5946 37.4293 89.0026 36.968 89.52 36.648C90.0426 36.3227 90.6373 36.16 91.304 36.16C91.8853 36.16 92.3813 36.2773 92.792 36.512C93.2026 36.7467 93.5333 37.064 93.784 37.464C94.0346 37.864 94.208 38.3173 94.304 38.824C94.4053 39.3253 94.4346 39.8453 94.392 40.384H88.856V39.616H93.568L93.2 39.856C93.216 39.5413 93.1973 39.2267 93.144 38.912C93.096 38.5973 93.0026 38.3093 92.864 38.048C92.7253 37.7813 92.5306 37.568 92.28 37.408C92.0293 37.248 91.7093 37.168 91.32 37.168C90.8293 37.168 90.4186 37.2933 90.088 37.544C89.7573 37.7947 89.5093 38.1253 89.344 38.536C89.1786 38.9413 89.096 39.3813 89.096 39.856V40.368C89.096 40.9013 89.176 41.3787 89.336 41.8C89.5013 42.2213 89.7466 42.5547 90.072 42.8C90.3973 43.0453 90.808 43.168 91.304 43.168C91.8 43.168 92.208 43.048 92.528 42.808C92.848 42.568 93.0426 42.2133 93.112 41.744H94.408C94.328 42.2507 94.1466 42.688 93.864 43.056C93.5813 43.4187 93.2213 43.6987 92.784 43.896C92.3466 44.0933 91.8533 44.192 91.304 44.192ZM99.7787 44.192C99.0374 44.192 98.4187 44.088 97.9227 43.88C97.4267 43.6667 97.0507 43.376 96.7947 43.008C96.5387 42.6347 96.4027 42.208 96.3867 41.728H97.5867C97.6134 42.2133 97.808 42.5787 98.1707 42.824C98.5387 43.064 99.0374 43.184 99.6667 43.184C99.9974 43.184 100.301 43.1307 100.579 43.024C100.856 42.9173 101.077 42.7707 101.243 42.584C101.408 42.3973 101.491 42.1867 101.491 41.952C101.491 41.6533 101.381 41.4187 101.163 41.248C100.944 41.0773 100.595 40.928 100.115 40.8L98.6267 40.32C97.9814 40.1173 97.4854 39.84 97.1387 39.488C96.7974 39.1307 96.6267 38.704 96.6267 38.208C96.6267 37.5893 96.8987 37.0933 97.4427 36.72C97.9867 36.3467 98.7014 36.16 99.5867 36.16C100.525 36.16 101.253 36.352 101.771 36.736C102.288 37.12 102.557 37.6 102.579 38.176H101.347C101.299 37.84 101.128 37.5867 100.835 37.416C100.541 37.24 100.125 37.152 99.5867 37.152C99.0694 37.152 98.664 37.2693 98.3707 37.504C98.0827 37.7333 97.9387 37.9893 97.9387 38.272C97.9387 38.8 98.392 39.1893 99.2987 39.44L100.819 39.952C101.475 40.1493 101.976 40.408 102.323 40.728C102.675 41.048 102.851 41.456 102.851 41.952C102.851 42.336 102.725 42.6987 102.475 43.04C102.224 43.3813 101.869 43.6587 101.411 43.872C100.952 44.0853 100.408 44.192 99.7787 44.192ZM109.55 45.616V32.32H112.702V33.424H110.798V44.512H112.702V45.616H109.55ZM113.636 43.256C113.636 43.0053 113.724 42.7893 113.9 42.608C114.076 42.4267 114.298 42.336 114.564 42.336C114.831 42.336 115.058 42.4267 115.244 42.608C115.431 42.7893 115.524 43.0053 115.524 43.256C115.524 43.5067 115.431 43.7173 115.244 43.888C115.058 44.0587 114.831 44.144 114.564 44.144C114.298 44.144 114.076 44.0587 113.9 43.888C113.724 43.712 113.636 43.5013 113.636 43.256ZM116.656 43.256C116.656 43.0053 116.744 42.7893 116.92 42.608C117.096 42.4267 117.317 42.336 117.584 42.336C117.85 42.336 118.077 42.4267 118.264 42.608C118.45 42.7893 118.544 43.0053 118.544 43.256C118.544 43.5067 118.45 43.7173 118.264 43.888C118.077 44.0587 117.85 44.144 117.584 44.144C117.317 44.144 117.096 44.0587 116.92 43.888C116.744 43.712 116.656 43.5013 116.656 43.256ZM119.675 43.256C119.675 43.0053 119.763 42.7893 119.939 42.608C120.115 42.4267 120.336 42.336 120.603 42.336C120.87 42.336 121.096 42.4267 121.283 42.608C121.47 42.7893 121.563 43.0053 121.563 43.256C121.563 43.5067 121.47 43.7173 121.283 43.888C121.096 44.0587 120.87 44.144 120.603 44.144C120.336 44.144 120.115 44.0587 119.939 43.888C119.763 43.712 119.675 43.5013 119.675 43.256ZM125.142 45.616V32.32H121.99V33.424H123.894V44.512H121.99V45.616H125.142Z" fill="#997452"/>
</g>
<defs>
<filter id="filter0_d_7100_5717" x="0" y="0" width="187.035" height="67" filterUnits="userSpaceOnUse" color-interpolation-filters="sRGB">
<feFlood flood-opacity="0" result="BackgroundImageFix"/>
<feColorMatrix in="SourceAlpha" type="matrix" values="0 0 0 0 0 0 0 0 0 0 0 0 0 0 0 0 0 0 127 0" result="hardAlpha"/>
<feOffset dy="4"/>
<feGaussianBlur stdDeviation="3"/>
<feComposite in2="hardAlpha" operator="out"/>
<feColorMatrix type="matrix" values="0 0 0 0 0 0 0 0 0 0 0 0 0 0 0 0 0 0 0.1 0"/>
<feBlend mode="normal" in2="BackgroundImageFix" result="effect1_dropShadow_7100_5717"/>
<feBlend mode="normal" in="SourceGraphic" in2="effect1_dropShadow_7100_5717" result="shape"/>
</filter>
<filter id="filter1_d_7100_5717" x="25.3638" y="10.9756" width="144.886" height="46.7842" filterUnits="userSpaceOnUse" color-interpolation-filters="sRGB">
<feFlood flood-opacity="0" result="BackgroundImageFix"/>
<feColorMatrix in="SourceAlpha" type="matrix" values="0 0 0 0 0 0 0 0 0 0 0 0 0 0 0 0 0 0 127 0" result="hardAlpha"/>
<feOffset dy="4"/>
<feGaussianBlur stdDeviation="3"/>
<feComposite in2="hardAlpha" operator="out"/>
<feColorMatrix type="matrix" values="0 0 0 0 0 0 0 0 0 0 0 0 0 0 0 0 0 0 0.05 0"/>
<feBlend mode="normal" in2="BackgroundImageFix" result="effect1_dropShadow_7100_5717"/>
<feBlend mode="normal" in="SourceGraphic" in2="effect1_dropShadow_7100_5717" result="shape"/>
</filter>
</defs>
</svg>
