<svg width="250" height="108" viewBox="0 0 250 108" fill="none" xmlns="http://www.w3.org/2000/svg">
<g filter="url(#filter0_d_7093_6097)">
<mask id="path-1-inside-1_7093_6097" fill="white">
<path d="M7.04332 52.6331L16.7673 61L16.7673 89C16.7673 93.9706 20.7968 98 25.7673 98L231.767 98C236.738 98 240.767 93.9706 240.767 89L240.767 11C240.767 6.02948 236.738 2.00004 231.767 2.00004L25.7674 2C20.7968 2 16.7674 6.02944 16.7674 11L16.7674 40.5L7.15554 47.9931C5.66179 49.1575 5.6076 51.3978 7.04332 52.6331Z"/>
</mask>
<path d="M7.04332 52.6331L16.7673 61L16.7673 89C16.7673 93.9706 20.7968 98 25.7673 98L231.767 98C236.738 98 240.767 93.9706 240.767 89L240.767 11C240.767 6.02948 236.738 2.00004 231.767 2.00004L25.7674 2C20.7968 2 16.7674 6.02944 16.7674 11L16.7674 40.5L7.15554 47.9931C5.66179 49.1575 5.6076 51.3978 7.04332 52.6331Z" fill="white"/>
<path d="M16.7673 61L18.1673 61L18.1673 60.3577L17.6805 59.9388L16.7673 61ZM7.04332 52.6331L6.1302 53.6944L6.1302 53.6944L7.04332 52.6331ZM7.15554 47.9931L6.29479 46.8889L6.29479 46.8889L7.15554 47.9931ZM16.7674 40.5L17.6281 41.6041L18.1674 41.1838L18.1674 40.5L16.7674 40.5ZM25.7674 2L25.7674 0.600003L25.7674 2ZM231.767 2.00004L231.767 3.40004L231.767 2.00004ZM16.7674 11L15.3674 11L16.7674 11ZM16.7673 89L18.1673 89L16.7673 89ZM17.6805 59.9388L7.95644 51.5719L6.1302 53.6944L15.8542 62.0612L17.6805 59.9388ZM8.01629 49.0972L17.6281 41.6041L15.9066 39.3959L6.29479 46.8889L8.01629 49.0972ZM7.95644 51.5719C7.19072 50.9131 7.21962 49.7183 8.01629 49.0972L6.29479 46.8889C4.10395 48.5968 4.02448 51.8825 6.1302 53.6944L7.95644 51.5719ZM25.7674 3.4L231.767 3.40004L231.767 0.600042L25.7674 0.600003L25.7674 3.4ZM239.367 11L239.367 89L242.167 89L242.167 11L239.367 11ZM231.767 96.6L25.7673 96.6L25.7673 99.4L231.767 99.4L231.767 96.6ZM18.1674 40.5L18.1674 11L15.3674 11L15.3674 40.5L18.1674 40.5ZM18.1673 89L18.1673 61L15.3673 61L15.3673 89L18.1673 89ZM25.7673 96.6C21.57 96.6 18.1673 93.1974 18.1673 89L15.3673 89C15.3673 94.7438 20.0236 99.4 25.7673 99.4L25.7673 96.6ZM239.367 89C239.367 93.1974 235.965 96.6 231.767 96.6L231.767 99.4C237.511 99.4 242.167 94.7438 242.167 89L239.367 89ZM231.767 3.40004C235.965 3.40004 239.367 6.80268 239.367 11L242.167 11C242.167 5.25628 237.511 0.600043 231.767 0.600042L231.767 3.40004ZM25.7674 0.600003C20.0236 0.600002 15.3674 5.25624 15.3674 11L18.1674 11C18.1674 6.80264 21.57 3.4 25.7674 3.4L25.7674 0.600003Z" fill="#333333" mask="url(#path-1-inside-1_7093_6097)"/>
<path d="M27.144 14.952H28.648L31.528 19.832H31.208L34.136 14.952H35.624L31.992 20.872V25H30.728V20.872L27.144 14.952ZM39.2784 25.192C38.5904 25.192 37.977 25.04 37.4384 24.736C36.905 24.432 36.4837 23.9813 36.1744 23.384C35.865 22.7867 35.7104 22.0507 35.7104 21.176C35.7104 20.296 35.865 19.56 36.1744 18.968C36.4837 18.3707 36.905 17.92 37.4384 17.616C37.977 17.312 38.5904 17.16 39.2784 17.16C39.961 17.16 40.569 17.312 41.1024 17.616C41.641 17.92 42.0624 18.3707 42.3664 18.968C42.6757 19.56 42.8304 20.296 42.8304 21.176C42.8304 22.0507 42.6757 22.7867 42.3664 23.384C42.0624 23.9813 41.641 24.432 41.1024 24.736C40.569 25.04 39.961 25.192 39.2784 25.192ZM39.2464 24.104C39.7424 24.104 40.1637 23.9867 40.5104 23.752C40.857 23.512 41.1184 23.1733 41.2944 22.736C41.4757 22.2987 41.5664 21.7787 41.5664 21.176C41.5664 20.264 41.377 19.5467 40.9984 19.024C40.6197 18.496 40.057 18.232 39.3104 18.232C38.809 18.232 38.385 18.352 38.0384 18.592C37.697 18.8267 37.4357 19.1653 37.2544 19.608C37.0784 20.0453 36.9904 20.568 36.9904 21.176C36.9904 22.0773 37.1797 22.792 37.5584 23.32C37.9424 23.8427 38.505 24.104 39.2464 24.104ZM50.6204 17.336H51.8684V25H50.6204V17.336ZM45.1964 17.336H46.4444V22.104C46.4444 22.744 46.599 23.2293 46.9084 23.56C47.223 23.8907 47.671 24.056 48.2524 24.056C48.7324 24.056 49.1484 23.928 49.5004 23.672C49.8577 23.416 50.1324 23.064 50.3244 22.616C50.5217 22.1627 50.6204 21.6453 50.6204 21.064H51.0844C51.0844 21.9227 50.959 22.656 50.7084 23.264C50.463 23.872 50.1137 24.3387 49.6604 24.664C49.2124 24.984 48.6844 25.144 48.0764 25.144C47.5004 25.144 46.9964 25.0373 46.5644 24.824C46.1324 24.6107 45.7964 24.288 45.5564 23.856C45.3164 23.4187 45.1964 22.8667 45.1964 22.2V17.336ZM61.9127 25.192C61.2994 25.192 60.7261 25.0267 60.1927 24.696C59.6647 24.3653 59.2381 23.8987 58.9127 23.296C58.5874 22.6933 58.4247 21.9813 58.4247 21.16C58.4247 20.3173 58.5874 19.5973 58.9127 19C59.2381 18.4027 59.6647 17.9467 60.1927 17.632C60.7261 17.3173 61.2994 17.16 61.9127 17.16C62.3447 17.16 62.7314 17.2267 63.0727 17.36C63.4194 17.488 63.7207 17.6667 63.9767 17.896C64.2327 18.1253 64.4434 18.3867 64.6087 18.68C64.7794 18.968 64.9047 19.272 64.9847 19.592L63.7047 19.704C63.5714 19.2613 63.3474 18.912 63.0327 18.656C62.7234 18.3947 62.3447 18.264 61.8967 18.264C61.5181 18.264 61.1607 18.3733 60.8247 18.592C60.4941 18.8053 60.2247 19.128 60.0167 19.56C59.8087 19.9867 59.7047 20.52 59.7047 21.16C59.7047 21.752 59.7981 22.2667 59.9847 22.704C60.1767 23.136 60.4381 23.472 60.7687 23.712C61.0994 23.952 61.4754 24.072 61.8967 24.072C62.4887 24.072 62.9367 23.928 63.2407 23.64C63.5501 23.3467 63.7047 22.9413 63.7047 22.424H64.9847C64.9847 22.9573 64.8594 23.432 64.6087 23.848C64.3581 24.264 64.0007 24.592 63.5367 24.832C63.0781 25.072 62.5367 25.192 61.9127 25.192ZM72.3707 25L72.2107 23.32V20.04C72.2107 19.352 72.0641 18.8587 71.7707 18.56C71.4774 18.256 71.0374 18.104 70.4507 18.104C70.1201 18.104 69.8187 18.152 69.5467 18.248C69.2801 18.344 69.0667 18.4933 68.9067 18.696C68.7521 18.8933 68.6747 19.1493 68.6747 19.464H67.2827C67.2827 18.9093 67.4187 18.464 67.6907 18.128C67.9627 17.7867 68.3361 17.5413 68.8107 17.392C69.2907 17.2373 69.8374 17.16 70.4507 17.16C71.0374 17.16 71.5574 17.2587 72.0107 17.456C72.4641 17.6533 72.8187 17.968 73.0747 18.4C73.3307 18.8267 73.4587 19.384 73.4587 20.072V25H72.3707ZM69.7627 25.192C69.1334 25.192 68.6134 25.08 68.2027 24.856C67.7921 24.632 67.4854 24.3413 67.2827 23.984C67.0801 23.6267 66.9787 23.2507 66.9787 22.856C66.9787 22.3387 67.1067 21.9173 67.3627 21.592C67.6241 21.2667 67.9787 21.0293 68.4267 20.88C68.8747 20.7253 69.3787 20.648 69.9387 20.648C70.3387 20.648 70.7387 20.688 71.1387 20.768C71.5441 20.848 71.9387 20.9573 72.3227 21.096V21.88C72.0027 21.752 71.6401 21.6507 71.2347 21.576C70.8347 21.5013 70.4667 21.464 70.1307 21.464C69.6187 21.464 69.1867 21.5707 68.8347 21.784C68.4827 21.992 68.3067 22.3493 68.3067 22.856C68.3067 23.2293 68.4401 23.5493 68.7067 23.816C68.9787 24.0827 69.4107 24.216 70.0027 24.216C70.4187 24.216 70.7921 24.12 71.1227 23.928C71.4587 23.7307 71.7227 23.4853 71.9147 23.192C72.1121 22.8987 72.2107 22.6053 72.2107 22.312H72.5147C72.5147 22.824 72.4027 23.2987 72.1787 23.736C71.9601 24.1733 71.6454 24.5253 71.2347 24.792C70.8241 25.0587 70.3334 25.192 69.7627 25.192ZM82.0472 25V20.504C82.0472 19.7733 81.8712 19.2187 81.5192 18.84C81.1726 18.456 80.6979 18.264 80.0952 18.264C79.6366 18.264 79.2392 18.3893 78.9032 18.64C78.5672 18.8907 78.3086 19.2507 78.1272 19.72C77.9459 20.184 77.8552 20.7387 77.8552 21.384H77.3752C77.3752 20.4933 77.4926 19.7333 77.7272 19.104C77.9619 18.4747 78.3032 17.9947 78.7512 17.664C79.2046 17.328 79.7539 17.16 80.3992 17.16C81.0019 17.16 81.5166 17.296 81.9432 17.568C82.3752 17.8347 82.7059 18.2187 82.9352 18.72C83.1646 19.2213 83.2792 19.816 83.2792 20.504V25H82.0472ZM76.6072 25V17.352H77.6792L77.8552 19.112V25H76.6072ZM90.7964 25V16.168C90.7964 15.6613 90.8924 15.248 91.0844 14.928C91.2817 14.6027 91.543 14.3627 91.8684 14.208C92.199 14.0533 92.567 13.976 92.9724 13.976C93.191 13.976 93.4124 13.992 93.6364 14.024C93.8657 14.056 94.0924 14.104 94.3164 14.168L94.0764 15.16C93.9164 15.096 93.7564 15.048 93.5964 15.016C93.4417 14.984 93.2924 14.968 93.1484 14.968C92.9777 14.968 92.807 15 92.6364 15.064C92.4657 15.128 92.3244 15.248 92.2124 15.424C92.1004 15.6 92.0444 15.8533 92.0444 16.184V25H90.7964ZM89.5484 18.216V17.352H93.6284V18.216H89.5484ZM96.5644 15.544C96.3084 15.544 96.1057 15.472 95.9564 15.328C95.807 15.1787 95.7324 14.984 95.7324 14.744C95.7324 14.5093 95.807 14.3227 95.9564 14.184C96.1057 14.0453 96.3084 13.976 96.5644 13.976C96.8204 13.976 97.023 14.0453 97.1724 14.184C97.3217 14.3227 97.3964 14.5093 97.3964 14.744C97.3964 14.984 97.3217 15.1787 97.1724 15.328C97.023 15.472 96.8204 15.544 96.5644 15.544ZM95.9404 25V17.336H97.1884V25H95.9404ZM106.23 25V20.504C106.23 19.7733 106.054 19.2187 105.702 18.84C105.356 18.456 104.881 18.264 104.278 18.264C103.82 18.264 103.422 18.3893 103.086 18.64C102.75 18.8907 102.492 19.2507 102.31 19.72C102.129 20.184 102.038 20.7387 102.038 21.384H101.558C101.558 20.4933 101.676 19.7333 101.91 19.104C102.145 18.4747 102.486 17.9947 102.934 17.664C103.388 17.328 103.937 17.16 104.582 17.16C105.185 17.16 105.7 17.296 106.126 17.568C106.558 17.8347 106.889 18.2187 107.118 18.72C107.348 19.2213 107.462 19.816 107.462 20.504V25H106.23ZM100.79 25V17.352H101.862L102.038 19.112V25H100.79ZM113.343 25.192C112.724 25.192 112.156 25.0267 111.639 24.696C111.121 24.36 110.708 23.8907 110.399 23.288C110.089 22.68 109.935 21.9653 109.935 21.144C109.935 20.328 110.087 19.6213 110.391 19.024C110.695 18.4267 111.097 17.968 111.599 17.648C112.105 17.3227 112.66 17.16 113.263 17.16C113.823 17.16 114.313 17.296 114.735 17.568C115.161 17.84 115.492 18.232 115.727 18.744C115.961 19.256 116.079 19.8747 116.079 20.6H115.599C115.599 20.0933 115.497 19.6667 115.295 19.32C115.097 18.9733 114.839 18.712 114.519 18.536C114.199 18.3547 113.855 18.264 113.487 18.264C113.071 18.264 112.689 18.3813 112.343 18.616C112.001 18.8453 111.727 19.176 111.519 19.608C111.316 20.0347 111.215 20.5467 111.215 21.144C111.215 21.752 111.316 22.2747 111.519 22.712C111.727 23.1493 112.001 23.4853 112.343 23.72C112.689 23.9547 113.071 24.072 113.487 24.072C113.833 24.072 114.167 23.9813 114.487 23.8C114.812 23.6187 115.079 23.3547 115.287 23.008C115.495 22.656 115.599 22.232 115.599 21.736H116.079C116.079 22.4773 115.956 23.1067 115.711 23.624C115.471 24.136 115.143 24.5253 114.727 24.792C114.316 25.0587 113.855 25.192 113.343 25.192ZM115.807 25L115.599 23.208V14.088H116.847V25H115.807ZM126.96 25.192C126.219 25.192 125.6 25.088 125.104 24.88C124.608 24.6667 124.232 24.376 123.976 24.008C123.72 23.6347 123.584 23.208 123.568 22.728H124.768C124.795 23.2133 124.989 23.5787 125.352 23.824C125.72 24.064 126.219 24.184 126.848 24.184C127.179 24.184 127.483 24.1307 127.76 24.024C128.037 23.9173 128.259 23.7707 128.424 23.584C128.589 23.3973 128.672 23.1867 128.672 22.952C128.672 22.6533 128.563 22.4187 128.344 22.248C128.125 22.0773 127.776 21.928 127.296 21.8L125.808 21.32C125.163 21.1173 124.667 20.84 124.32 20.488C123.979 20.1307 123.808 19.704 123.808 19.208C123.808 18.5893 124.08 18.0933 124.624 17.72C125.168 17.3467 125.883 17.16 126.768 17.16C127.707 17.16 128.435 17.352 128.952 17.736C129.469 18.12 129.739 18.6 129.76 19.176H128.528C128.48 18.84 128.309 18.5867 128.016 18.416C127.723 18.24 127.307 18.152 126.768 18.152C126.251 18.152 125.845 18.2693 125.552 18.504C125.264 18.7333 125.12 18.9893 125.12 19.272C125.12 19.8 125.573 20.1893 126.48 20.44L128 20.952C128.656 21.1493 129.157 21.408 129.504 21.728C129.856 22.048 130.032 22.456 130.032 22.952C130.032 23.336 129.907 23.6987 129.656 24.04C129.405 24.3813 129.051 24.6587 128.592 24.872C128.133 25.0853 127.589 25.192 126.96 25.192ZM135.542 25.192C134.854 25.192 134.241 25.04 133.702 24.736C133.169 24.432 132.747 23.9813 132.438 23.384C132.129 22.7867 131.974 22.0507 131.974 21.176C131.974 20.296 132.129 19.56 132.438 18.968C132.747 18.3707 133.169 17.92 133.702 17.616C134.241 17.312 134.854 17.16 135.542 17.16C136.225 17.16 136.833 17.312 137.366 17.616C137.905 17.92 138.326 18.3707 138.63 18.968C138.939 19.56 139.094 20.296 139.094 21.176C139.094 22.0507 138.939 22.7867 138.63 23.384C138.326 23.9813 137.905 24.432 137.366 24.736C136.833 25.04 136.225 25.192 135.542 25.192ZM135.51 24.104C136.006 24.104 136.427 23.9867 136.774 23.752C137.121 23.512 137.382 23.1733 137.558 22.736C137.739 22.2987 137.83 21.7787 137.83 21.176C137.83 20.264 137.641 19.5467 137.262 19.024C136.883 18.496 136.321 18.232 135.574 18.232C135.073 18.232 134.649 18.352 134.302 18.592C133.961 18.8267 133.699 19.1653 133.518 19.608C133.342 20.0453 133.254 20.568 133.254 21.176C133.254 22.0773 133.443 22.792 133.822 23.32C134.206 23.8427 134.769 24.104 135.51 24.104ZM152.436 25V20.504C152.436 19.7733 152.26 19.2187 151.908 18.84C151.561 18.456 151.092 18.264 150.5 18.264C149.807 18.264 149.276 18.5333 148.908 19.072C148.54 19.6053 148.356 20.344 148.356 21.288H147.78C147.78 20.6 147.847 19.9973 147.98 19.48C148.119 18.9627 148.319 18.5333 148.58 18.192C148.841 17.8453 149.159 17.5867 149.532 17.416C149.905 17.2453 150.329 17.16 150.804 17.16C151.407 17.16 151.921 17.296 152.348 17.568C152.78 17.8347 153.111 18.2187 153.34 18.72C153.569 19.2213 153.684 19.816 153.684 20.504V25H152.436ZM141.684 25V17.352H142.756L142.9 18.888C143.14 18.3333 143.476 17.9067 143.908 17.608C144.345 17.3093 144.868 17.16 145.476 17.16C146.079 17.16 146.593 17.296 147.02 17.568C147.452 17.8347 147.783 18.2187 148.012 18.72C148.241 19.2213 148.356 19.816 148.356 20.504V25H147.124V20.504C147.124 19.7733 146.948 19.2187 146.596 18.84C146.249 18.456 145.775 18.264 145.172 18.264C144.713 18.264 144.316 18.3893 143.98 18.64C143.644 18.8907 143.385 19.2507 143.204 19.72C143.023 20.184 142.932 20.7387 142.932 21.384V25H141.684ZM159.469 25.192C158.808 25.192 158.216 25.024 157.693 24.688C157.176 24.3467 156.765 23.8747 156.461 23.272C156.162 22.6693 156.013 21.976 156.013 21.192C156.013 20.3547 156.162 19.6347 156.461 19.032C156.76 18.4293 157.168 17.968 157.685 17.648C158.208 17.3227 158.802 17.16 159.469 17.16C160.05 17.16 160.546 17.2773 160.957 17.512C161.368 17.7467 161.698 18.064 161.949 18.464C162.2 18.864 162.373 19.3173 162.469 19.824C162.57 20.3253 162.6 20.8453 162.557 21.384H157.021V20.616H161.733L161.365 20.856C161.381 20.5413 161.362 20.2267 161.309 19.912C161.261 19.5973 161.168 19.3093 161.029 19.048C160.89 18.7813 160.696 18.568 160.445 18.408C160.194 18.248 159.874 18.168 159.485 18.168C158.994 18.168 158.584 18.2933 158.253 18.544C157.922 18.7947 157.674 19.1253 157.509 19.536C157.344 19.9413 157.261 20.3813 157.261 20.856V21.368C157.261 21.9013 157.341 22.3787 157.501 22.8C157.666 23.2213 157.912 23.5547 158.237 23.8C158.562 24.0453 158.973 24.168 159.469 24.168C159.965 24.168 160.373 24.048 160.693 23.808C161.013 23.568 161.208 23.2133 161.277 22.744H162.573C162.493 23.2507 162.312 23.688 162.029 24.056C161.746 24.4187 161.386 24.6987 160.949 24.896C160.512 25.0933 160.018 25.192 159.469 25.192ZM167.544 25.192C167.128 25.192 166.754 25.112 166.424 24.952C166.093 24.792 165.832 24.552 165.64 24.232C165.448 23.912 165.352 23.512 165.352 23.032V15.224H166.584V23C166.584 23.7893 166.952 24.184 167.688 24.184C167.906 24.184 168.117 24.16 168.32 24.112C168.528 24.064 168.76 23.992 169.016 23.896L169.192 24.792C168.92 24.9093 168.648 25.0053 168.376 25.08C168.109 25.1547 167.832 25.192 167.544 25.192ZM164.12 18.216V17.352H169V18.216H164.12ZM176.807 25V20.504C176.807 19.7733 176.631 19.2187 176.279 18.84C175.933 18.456 175.458 18.264 174.855 18.264C174.397 18.264 173.999 18.3893 173.663 18.64C173.327 18.8907 173.069 19.2507 172.887 19.72C172.706 20.184 172.615 20.7387 172.615 21.384H172.135C172.135 20.4933 172.253 19.7333 172.487 19.104C172.722 18.4747 173.063 17.9947 173.511 17.664C173.965 17.328 174.514 17.16 175.159 17.16C175.762 17.16 176.277 17.296 176.703 17.568C177.135 17.8347 177.466 18.2187 177.695 18.72C177.925 19.2213 178.039 19.816 178.039 20.504V25H176.807ZM171.367 25V14.088H172.615V25H171.367ZM181.888 15.544C181.632 15.544 181.429 15.472 181.28 15.328C181.13 15.1787 181.056 14.984 181.056 14.744C181.056 14.5093 181.13 14.3227 181.28 14.184C181.429 14.0453 181.632 13.976 181.888 13.976C182.144 13.976 182.346 14.0453 182.496 14.184C182.645 14.3227 182.72 14.5093 182.72 14.744C182.72 14.984 182.645 15.1787 182.496 15.328C182.346 15.472 182.144 15.544 181.888 15.544ZM181.264 25V17.336H182.512V25H181.264ZM191.549 25V20.504C191.549 19.7733 191.373 19.2187 191.021 18.84C190.674 18.456 190.2 18.264 189.597 18.264C189.138 18.264 188.741 18.3893 188.405 18.64C188.069 18.8907 187.81 19.2507 187.629 19.72C187.448 20.184 187.357 20.7387 187.357 21.384H186.877C186.877 20.4933 186.994 19.7333 187.229 19.104C187.464 18.4747 187.805 17.9947 188.253 17.664C188.706 17.328 189.256 17.16 189.901 17.16C190.504 17.16 191.018 17.296 191.445 17.568C191.877 17.8347 192.208 18.2187 192.437 18.72C192.666 19.2213 192.781 19.816 192.781 20.504V25H191.549ZM186.109 25V17.352H187.181L187.357 19.112V25H186.109ZM198.629 28.936C197.845 28.936 197.165 28.824 196.589 28.6C196.013 28.3813 195.565 28.0853 195.245 27.712C194.931 27.344 194.773 26.936 194.773 26.488C194.773 25.896 194.989 25.4427 195.421 25.128C195.859 24.8187 196.421 24.664 197.109 24.664L197.797 25.096C197.221 25.096 196.776 25.216 196.461 25.456C196.147 25.696 195.989 26.024 195.989 26.44C195.989 26.856 196.213 27.208 196.661 27.496C197.109 27.784 197.765 27.928 198.629 27.928C199.269 27.928 199.829 27.8347 200.309 27.648C200.795 27.4667 201.171 27.2267 201.437 26.928C201.709 26.6347 201.845 26.3173 201.845 25.976C201.845 25.736 201.757 25.528 201.581 25.352C201.405 25.1813 201.136 25.096 200.773 25.096H197.797C197.28 25.096 196.832 25.0187 196.453 24.864C196.08 24.704 195.792 24.496 195.589 24.24C195.387 23.984 195.285 23.704 195.285 23.4C195.285 23.08 195.376 22.808 195.557 22.584C195.739 22.36 195.973 22.1893 196.261 22.072C196.555 21.9547 196.869 21.896 197.205 21.896L197.445 22.36C197.285 22.36 197.123 22.3973 196.957 22.472C196.797 22.5413 196.661 22.648 196.549 22.792C196.443 22.9307 196.389 23.1067 196.389 23.32C196.389 23.5653 196.491 23.7707 196.693 23.936C196.896 24.1013 197.264 24.184 197.797 24.184H200.773C201.493 24.184 202.059 24.336 202.469 24.64C202.885 24.944 203.093 25.368 203.093 25.912C203.093 26.4133 202.915 26.8933 202.557 27.352C202.2 27.816 201.688 28.1947 201.021 28.488C200.355 28.7867 199.557 28.936 198.629 28.936ZM198.853 22.76C198.267 22.76 197.736 22.6427 197.261 22.408C196.792 22.1733 196.419 21.8453 196.141 21.424C195.869 21.0027 195.733 20.5147 195.733 19.96C195.733 19.4 195.869 18.9093 196.141 18.488C196.419 18.0667 196.792 17.7413 197.261 17.512C197.736 17.2773 198.267 17.16 198.853 17.16C199.424 17.16 199.941 17.2773 200.405 17.512C200.875 17.7413 201.248 18.0667 201.525 18.488C201.803 18.9093 201.941 19.4 201.941 19.96C201.941 20.5147 201.803 21.0027 201.525 21.424C201.248 21.8453 200.875 22.1733 200.405 22.408C199.941 22.6427 199.424 22.76 198.853 22.76ZM198.853 21.864C199.44 21.864 199.896 21.6827 200.221 21.32C200.547 20.9573 200.709 20.504 200.709 19.96C200.709 19.4 200.547 18.9467 200.221 18.6C199.896 18.248 199.44 18.072 198.853 18.072C198.272 18.072 197.813 18.248 197.477 18.6C197.147 18.9467 196.981 19.4 196.981 19.96C196.981 20.504 197.147 20.9573 197.477 21.32C197.813 21.6827 198.272 21.864 198.853 21.864ZM201.365 18.376L200.773 18.136C200.773 17.688 200.861 17.296 201.037 16.96C201.213 16.6187 201.464 16.3547 201.789 16.168C202.115 15.976 202.501 15.88 202.949 15.88L202.853 17.112C202.373 17.112 202.005 17.216 201.749 17.424C201.493 17.6267 201.365 17.944 201.365 18.376ZM209.778 15.544C209.522 15.544 209.319 15.472 209.17 15.328C209.02 15.1787 208.946 14.984 208.946 14.744C208.946 14.5093 209.02 14.3227 209.17 14.184C209.319 14.0453 209.522 13.976 209.778 13.976C210.034 13.976 210.236 14.0453 210.386 14.184C210.535 14.3227 210.61 14.5093 210.61 14.744C210.61 14.984 210.535 15.1787 210.386 15.328C210.236 15.472 210.034 15.544 209.778 15.544ZM209.154 25V17.336H210.402V25H209.154ZM219.439 25V20.504C219.439 19.7733 219.263 19.2187 218.911 18.84C218.564 18.456 218.09 18.264 217.487 18.264C217.028 18.264 216.631 18.3893 216.295 18.64C215.959 18.8907 215.7 19.2507 215.519 19.72C215.338 20.184 215.247 20.7387 215.247 21.384H214.767C214.767 20.4933 214.884 19.7333 215.119 19.104C215.354 18.4747 215.695 17.9947 216.143 17.664C216.596 17.328 217.146 17.16 217.791 17.16C218.394 17.16 218.908 17.296 219.335 17.568C219.767 17.8347 220.098 18.2187 220.327 18.72C220.556 19.2213 220.671 19.816 220.671 20.504V25H219.439ZM213.999 25V17.352H215.071L215.247 19.112V25H213.999ZM30.968 45.192C30.552 45.192 30.1787 45.112 29.848 44.952C29.5173 44.792 29.256 44.552 29.064 44.232C28.872 43.912 28.776 43.512 28.776 43.032V35.224H30.008V43C30.008 43.7893 30.376 44.184 31.112 44.184C31.3307 44.184 31.5413 44.16 31.744 44.112C31.952 44.064 32.184 43.992 32.44 43.896L32.616 44.792C32.344 44.9093 32.072 45.0053 31.8 45.08C31.5333 45.1547 31.256 45.192 30.968 45.192ZM27.544 38.216V37.352H32.424V38.216H27.544ZM40.2316 45V40.504C40.2316 39.7733 40.0556 39.2187 39.7036 38.84C39.357 38.456 38.8823 38.264 38.2796 38.264C37.821 38.264 37.4236 38.3893 37.0876 38.64C36.7516 38.8907 36.493 39.2507 36.3116 39.72C36.1303 40.184 36.0396 40.7387 36.0396 41.384H35.5596C35.5596 40.4933 35.677 39.7333 35.9116 39.104C36.1463 38.4747 36.4876 37.9947 36.9356 37.664C37.389 37.328 37.9383 37.16 38.5836 37.16C39.1863 37.16 39.701 37.296 40.1276 37.568C40.5596 37.8347 40.8903 38.2187 41.1196 38.72C41.349 39.2213 41.4636 39.816 41.4636 40.504V45H40.2316ZM34.7916 45V34.088H36.0396V45H34.7916ZM47.2639 45.192C46.6025 45.192 46.0105 45.024 45.4879 44.688C44.9705 44.3467 44.5599 43.8747 44.2559 43.272C43.9572 42.6693 43.8079 41.976 43.8079 41.192C43.8079 40.3547 43.9572 39.6347 44.2559 39.032C44.5545 38.4293 44.9625 37.968 45.4799 37.648C46.0025 37.3227 46.5972 37.16 47.2639 37.16C47.8452 37.16 48.3412 37.2773 48.7519 37.512C49.1625 37.7467 49.4932 38.064 49.7439 38.464C49.9945 38.864 50.1679 39.3173 50.2639 39.824C50.3652 40.3253 50.3945 40.8453 50.3519 41.384H44.8159V40.616H49.5279L49.1599 40.856C49.1759 40.5413 49.1572 40.2267 49.1039 39.912C49.0559 39.5973 48.9625 39.3093 48.8239 39.048C48.6852 38.7813 48.4905 38.568 48.2399 38.408C47.9892 38.248 47.6692 38.168 47.2799 38.168C46.7892 38.168 46.3785 38.2933 46.0479 38.544C45.7172 38.7947 45.4692 39.1253 45.3039 39.536C45.1385 39.9413 45.0559 40.3813 45.0559 40.856V41.368C45.0559 41.9013 45.1359 42.3787 45.2959 42.8C45.4612 43.2213 45.7065 43.5547 46.0319 43.8C46.3572 44.0453 46.7679 44.168 47.2639 44.168C47.7599 44.168 48.1679 44.048 48.4879 43.808C48.8079 43.568 49.0025 43.2133 49.0719 42.744H50.3679C50.2879 43.2507 50.1065 43.688 49.8239 44.056C49.5412 44.4187 49.1812 44.6987 48.7439 44.896C48.3065 45.0933 47.8132 45.192 47.2639 45.192ZM60.4155 45.192C59.8555 45.192 59.3675 45.064 58.9515 44.808C58.5408 44.552 58.2235 44.1787 57.9995 43.688C57.7755 43.192 57.6635 42.5893 57.6635 41.88H58.1915C58.1915 42.3547 58.2902 42.7547 58.4875 43.08C58.6848 43.4053 58.9408 43.6533 59.2555 43.824C59.5755 43.9893 59.9142 44.072 60.2715 44.072C60.6555 44.072 61.0235 43.9627 61.3755 43.744C61.7275 43.52 62.0155 43.192 62.2395 42.76C62.4635 42.328 62.5755 41.7947 62.5755 41.16C62.5755 40.552 62.4715 40.032 62.2635 39.6C62.0608 39.168 61.7862 38.8373 61.4395 38.608C61.0928 38.3787 60.7088 38.264 60.2875 38.264C59.9248 38.264 59.5835 38.352 59.2635 38.528C58.9435 38.704 58.6848 38.9627 58.4875 39.304C58.2902 39.64 58.1915 40.056 58.1915 40.552H57.6635C57.6635 39.8107 57.7862 39.1893 58.0315 38.688C58.2768 38.1813 58.6102 37.8 59.0315 37.544C59.4528 37.288 59.9248 37.16 60.4475 37.16C61.0448 37.16 61.6022 37.32 62.1195 37.64C62.6368 37.96 63.0555 38.4187 63.3755 39.016C63.6955 39.6133 63.8555 40.328 63.8555 41.16C63.8555 42.0027 63.6928 42.7253 63.3675 43.328C63.0475 43.9307 62.6262 44.392 62.1035 44.712C61.5808 45.032 61.0182 45.192 60.4155 45.192ZM56.9435 48.76V37.352H57.9835L58.1915 39.144V48.76H56.9435ZM71.1989 45L71.0389 43.32V40.04C71.0389 39.352 70.8922 38.8587 70.5989 38.56C70.3055 38.256 69.8655 38.104 69.2789 38.104C68.9482 38.104 68.6469 38.152 68.3749 38.248C68.1082 38.344 67.8949 38.4933 67.7349 38.696C67.5802 38.8933 67.5029 39.1493 67.5029 39.464H66.1109C66.1109 38.9093 66.2469 38.464 66.5189 38.128C66.7909 37.7867 67.1642 37.5413 67.6389 37.392C68.1189 37.2373 68.6655 37.16 69.2789 37.16C69.8655 37.16 70.3855 37.2587 70.8389 37.456C71.2922 37.6533 71.6469 37.968 71.9029 38.4C72.1589 38.8267 72.2869 39.384 72.2869 40.072V45H71.1989ZM68.5909 45.192C67.9615 45.192 67.4415 45.08 67.0309 44.856C66.6202 44.632 66.3135 44.3413 66.1109 43.984C65.9082 43.6267 65.8069 43.2507 65.8069 42.856C65.8069 42.3387 65.9349 41.9173 66.1909 41.592C66.4522 41.2667 66.8069 41.0293 67.2549 40.88C67.7029 40.7253 68.2069 40.648 68.7669 40.648C69.1669 40.648 69.5669 40.688 69.9669 40.768C70.3722 40.848 70.7669 40.9573 71.1509 41.096V41.88C70.8309 41.752 70.4682 41.6507 70.0629 41.576C69.6629 41.5013 69.2949 41.464 68.9589 41.464C68.4469 41.464 68.0149 41.5707 67.6629 41.784C67.3109 41.992 67.1349 42.3493 67.1349 42.856C67.1349 43.2293 67.2682 43.5493 67.5349 43.816C67.8069 44.0827 68.2389 44.216 68.8309 44.216C69.2469 44.216 69.6202 44.12 69.9509 43.928C70.2869 43.7307 70.5509 43.4853 70.7429 43.192C70.9402 42.8987 71.0389 42.6053 71.0389 42.312H71.3429C71.3429 42.824 71.2309 43.2987 71.0069 43.736C70.7882 44.1733 70.4735 44.5253 70.0629 44.792C69.6522 45.0587 69.1615 45.192 68.5909 45.192ZM75.4354 45V37.336H76.6834V45H75.4354ZM76.2994 41.544C76.2994 40.5733 76.3927 39.768 76.5794 39.128C76.766 38.4827 77.038 38.0027 77.3954 37.688C77.758 37.368 78.198 37.208 78.7154 37.208C78.886 37.208 79.0407 37.2213 79.1794 37.248C79.3234 37.2693 79.4674 37.304 79.6114 37.352L79.5314 38.584C79.382 38.536 79.2194 38.496 79.0434 38.464C78.8674 38.4267 78.71 38.408 78.5714 38.408C78.118 38.408 77.7527 38.5387 77.4754 38.8C77.198 39.056 76.9954 39.4187 76.8674 39.888C76.7447 40.3573 76.6834 40.9093 76.6834 41.544H76.2994ZM86.1126 45L85.9526 43.32V40.04C85.9526 39.352 85.806 38.8587 85.5126 38.56C85.2193 38.256 84.7793 38.104 84.1926 38.104C83.862 38.104 83.5606 38.152 83.2886 38.248C83.022 38.344 82.8086 38.4933 82.6486 38.696C82.494 38.8933 82.4166 39.1493 82.4166 39.464H81.0246C81.0246 38.9093 81.1606 38.464 81.4326 38.128C81.7046 37.7867 82.078 37.5413 82.5526 37.392C83.0326 37.2373 83.5793 37.16 84.1926 37.16C84.7793 37.16 85.2993 37.2587 85.7526 37.456C86.206 37.6533 86.5606 37.968 86.8166 38.4C87.0726 38.8267 87.2006 39.384 87.2006 40.072V45H86.1126ZM83.5046 45.192C82.8753 45.192 82.3553 45.08 81.9446 44.856C81.534 44.632 81.2273 44.3413 81.0246 43.984C80.822 43.6267 80.7206 43.2507 80.7206 42.856C80.7206 42.3387 80.8486 41.9173 81.1046 41.592C81.366 41.2667 81.7206 41.0293 82.1686 40.88C82.6166 40.7253 83.1206 40.648 83.6806 40.648C84.0806 40.648 84.4806 40.688 84.8806 40.768C85.286 40.848 85.6806 40.9573 86.0646 41.096V41.88C85.7446 41.752 85.382 41.6507 84.9766 41.576C84.5766 41.5013 84.2086 41.464 83.8726 41.464C83.3606 41.464 82.9286 41.5707 82.5766 41.784C82.2246 41.992 82.0486 42.3493 82.0486 42.856C82.0486 43.2293 82.182 43.5493 82.4486 43.816C82.7206 44.0827 83.1526 44.216 83.7446 44.216C84.1606 44.216 84.534 44.12 84.8646 43.928C85.2006 43.7307 85.4646 43.4853 85.6566 43.192C85.854 42.8987 85.9526 42.6053 85.9526 42.312H86.2566C86.2566 42.824 86.1446 43.2987 85.9206 43.736C85.702 44.1733 85.3873 44.5253 84.9766 44.792C84.566 45.0587 84.0753 45.192 83.5046 45.192ZM93.0531 48.936C92.2691 48.936 91.5891 48.824 91.0131 48.6C90.4371 48.3813 89.9891 48.0853 89.6691 47.712C89.3545 47.344 89.1971 46.936 89.1971 46.488C89.1971 45.896 89.4131 45.4427 89.8451 45.128C90.2825 44.8187 90.8451 44.664 91.5331 44.664L92.2211 45.096C91.6451 45.096 91.1998 45.216 90.8851 45.456C90.5705 45.696 90.4131 46.024 90.4131 46.44C90.4131 46.856 90.6371 47.208 91.0851 47.496C91.5331 47.784 92.1891 47.928 93.0531 47.928C93.6931 47.928 94.2531 47.8347 94.7331 47.648C95.2185 47.4667 95.5945 47.2267 95.8611 46.928C96.1331 46.6347 96.2691 46.3173 96.2691 45.976C96.2691 45.736 96.1811 45.528 96.0051 45.352C95.8291 45.1813 95.5598 45.096 95.1971 45.096H92.2211C91.7038 45.096 91.2558 45.0187 90.8771 44.864C90.5038 44.704 90.2158 44.496 90.0131 44.24C89.8105 43.984 89.7091 43.704 89.7091 43.4C89.7091 43.08 89.7998 42.808 89.9811 42.584C90.1625 42.36 90.3971 42.1893 90.6851 42.072C90.9785 41.9547 91.2931 41.896 91.6291 41.896L91.8691 42.36C91.7091 42.36 91.5465 42.3973 91.3811 42.472C91.2211 42.5413 91.0851 42.648 90.9731 42.792C90.8665 42.9307 90.8131 43.1067 90.8131 43.32C90.8131 43.5653 90.9145 43.7707 91.1171 43.936C91.3198 44.1013 91.6878 44.184 92.2211 44.184H95.1971C95.9171 44.184 96.4825 44.336 96.8931 44.64C97.3091 44.944 97.5171 45.368 97.5171 45.912C97.5171 46.4133 97.3385 46.8933 96.9811 47.352C96.6238 47.816 96.1118 48.1947 95.4451 48.488C94.7785 48.7867 93.9811 48.936 93.0531 48.936ZM93.2771 42.76C92.6905 42.76 92.1598 42.6427 91.6851 42.408C91.2158 42.1733 90.8425 41.8453 90.5651 41.424C90.2931 41.0027 90.1571 40.5147 90.1571 39.96C90.1571 39.4 90.2931 38.9093 90.5651 38.488C90.8425 38.0667 91.2158 37.7413 91.6851 37.512C92.1598 37.2773 92.6905 37.16 93.2771 37.16C93.8478 37.16 94.3651 37.2773 94.8291 37.512C95.2985 37.7413 95.6718 38.0667 95.9491 38.488C96.2265 38.9093 96.3651 39.4 96.3651 39.96C96.3651 40.5147 96.2265 41.0027 95.9491 41.424C95.6718 41.8453 95.2985 42.1733 94.8291 42.408C94.3651 42.6427 93.8478 42.76 93.2771 42.76ZM93.2771 41.864C93.8638 41.864 94.3198 41.6827 94.6451 41.32C94.9705 40.9573 95.1331 40.504 95.1331 39.96C95.1331 39.4 94.9705 38.9467 94.6451 38.6C94.3198 38.248 93.8638 38.072 93.2771 38.072C92.6958 38.072 92.2371 38.248 91.9011 38.6C91.5705 38.9467 91.4051 39.4 91.4051 39.96C91.4051 40.504 91.5705 40.9573 91.9011 41.32C92.2371 41.6827 92.6958 41.864 93.2771 41.864ZM95.7891 38.376L95.1971 38.136C95.1971 37.688 95.2851 37.296 95.4611 36.96C95.6371 36.6187 95.8878 36.3547 96.2131 36.168C96.5385 35.976 96.9251 35.88 97.3731 35.88L97.2771 37.112C96.7971 37.112 96.4291 37.216 96.1731 37.424C95.9171 37.6267 95.7891 37.944 95.7891 38.376ZM99.5404 45V37.336H100.788V45H99.5404ZM100.404 41.544C100.404 40.5733 100.498 39.768 100.684 39.128C100.871 38.4827 101.143 38.0027 101.5 37.688C101.863 37.368 102.303 37.208 102.82 37.208C102.991 37.208 103.146 37.2213 103.284 37.248C103.428 37.2693 103.572 37.304 103.716 37.352L103.636 38.584C103.487 38.536 103.324 38.496 103.148 38.464C102.972 38.4267 102.815 38.408 102.676 38.408C102.223 38.408 101.858 38.5387 101.58 38.8C101.303 39.056 101.1 39.4187 100.972 39.888C100.85 40.3573 100.788 40.9093 100.788 41.544H100.404ZM110.218 45L110.058 43.32V40.04C110.058 39.352 109.911 38.8587 109.618 38.56C109.324 38.256 108.884 38.104 108.298 38.104C107.967 38.104 107.666 38.152 107.394 38.248C107.127 38.344 106.914 38.4933 106.754 38.696C106.599 38.8933 106.522 39.1493 106.522 39.464H105.13C105.13 38.9093 105.266 38.464 105.538 38.128C105.81 37.7867 106.183 37.5413 106.658 37.392C107.138 37.2373 107.684 37.16 108.298 37.16C108.884 37.16 109.404 37.2587 109.858 37.456C110.311 37.6533 110.666 37.968 110.922 38.4C111.178 38.8267 111.306 39.384 111.306 40.072V45H110.218ZM107.61 45.192C106.98 45.192 106.46 45.08 106.05 44.856C105.639 44.632 105.332 44.3413 105.13 43.984C104.927 43.6267 104.826 43.2507 104.826 42.856C104.826 42.3387 104.954 41.9173 105.21 41.592C105.471 41.2667 105.826 41.0293 106.274 40.88C106.722 40.7253 107.226 40.648 107.786 40.648C108.186 40.648 108.586 40.688 108.986 40.768C109.391 40.848 109.786 40.9573 110.17 41.096V41.88C109.85 41.752 109.487 41.6507 109.082 41.576C108.682 41.5013 108.314 41.464 107.978 41.464C107.466 41.464 107.034 41.5707 106.682 41.784C106.33 41.992 106.154 42.3493 106.154 42.856C106.154 43.2293 106.287 43.5493 106.554 43.816C106.826 44.0827 107.258 44.216 107.85 44.216C108.266 44.216 108.639 44.12 108.97 43.928C109.306 43.7307 109.57 43.4853 109.762 43.192C109.959 42.8987 110.058 42.6053 110.058 42.312H110.362C110.362 42.824 110.25 43.2987 110.026 43.736C109.807 44.1733 109.492 44.5253 109.082 44.792C108.671 45.0587 108.18 45.192 107.61 45.192ZM117.926 45.192C117.366 45.192 116.878 45.064 116.462 44.808C116.051 44.552 115.734 44.1787 115.51 43.688C115.286 43.192 115.174 42.5893 115.174 41.88H115.702C115.702 42.3547 115.801 42.7547 115.998 43.08C116.195 43.4053 116.451 43.6533 116.766 43.824C117.086 43.9893 117.425 44.072 117.782 44.072C118.166 44.072 118.534 43.9627 118.886 43.744C119.238 43.52 119.526 43.192 119.75 42.76C119.974 42.328 120.086 41.7947 120.086 41.16C120.086 40.552 119.982 40.032 119.774 39.6C119.571 39.168 119.297 38.8373 118.95 38.608C118.603 38.3787 118.219 38.264 117.798 38.264C117.435 38.264 117.094 38.352 116.774 38.528C116.454 38.704 116.195 38.9627 115.998 39.304C115.801 39.64 115.702 40.056 115.702 40.552H115.174C115.174 39.8107 115.297 39.1893 115.542 38.688C115.787 38.1813 116.121 37.8 116.542 37.544C116.963 37.288 117.435 37.16 117.958 37.16C118.555 37.16 119.113 37.32 119.63 37.64C120.147 37.96 120.566 38.4187 120.886 39.016C121.206 39.6133 121.366 40.328 121.366 41.16C121.366 42.0027 121.203 42.7253 120.878 43.328C120.558 43.9307 120.137 44.392 119.614 44.712C119.091 45.032 118.529 45.192 117.926 45.192ZM114.454 48.76V37.352H115.494L115.702 39.144V48.76H114.454ZM129.413 45V40.504C129.413 39.7733 129.237 39.2187 128.885 38.84C128.539 38.456 128.064 38.264 127.461 38.264C127.003 38.264 126.605 38.3893 126.269 38.64C125.933 38.8907 125.675 39.2507 125.493 39.72C125.312 40.184 125.221 40.7387 125.221 41.384H124.741C124.741 40.4933 124.859 39.7333 125.093 39.104C125.328 38.4747 125.669 37.9947 126.117 37.664C126.571 37.328 127.12 37.16 127.765 37.16C128.368 37.16 128.883 37.296 129.309 37.568C129.741 37.8347 130.072 38.2187 130.301 38.72C130.531 39.2213 130.645 39.816 130.645 40.504V45H129.413ZM123.973 45V34.088H125.221V45H123.973ZM142.483 45L142.323 43.32V40.04C142.323 39.352 142.176 38.8587 141.883 38.56C141.589 38.256 141.149 38.104 140.563 38.104C140.232 38.104 139.931 38.152 139.659 38.248C139.392 38.344 139.179 38.4933 139.019 38.696C138.864 38.8933 138.787 39.1493 138.787 39.464H137.395C137.395 38.9093 137.531 38.464 137.803 38.128C138.075 37.7867 138.448 37.5413 138.923 37.392C139.403 37.2373 139.949 37.16 140.563 37.16C141.149 37.16 141.669 37.2587 142.123 37.456C142.576 37.6533 142.931 37.968 143.187 38.4C143.443 38.8267 143.571 39.384 143.571 40.072V45H142.483ZM139.875 45.192C139.245 45.192 138.725 45.08 138.315 44.856C137.904 44.632 137.597 44.3413 137.395 43.984C137.192 43.6267 137.091 43.2507 137.091 42.856C137.091 42.3387 137.219 41.9173 137.475 41.592C137.736 41.2667 138.091 41.0293 138.539 40.88C138.987 40.7253 139.491 40.648 140.051 40.648C140.451 40.648 140.851 40.688 141.251 40.768C141.656 40.848 142.051 40.9573 142.435 41.096V41.88C142.115 41.752 141.752 41.6507 141.347 41.576C140.947 41.5013 140.579 41.464 140.243 41.464C139.731 41.464 139.299 41.5707 138.947 41.784C138.595 41.992 138.419 42.3493 138.419 42.856C138.419 43.2293 138.552 43.5493 138.819 43.816C139.091 44.0827 139.523 44.216 140.115 44.216C140.531 44.216 140.904 44.12 141.235 43.928C141.571 43.7307 141.835 43.4853 142.027 43.192C142.224 42.8987 142.323 42.6053 142.323 42.312H142.627C142.627 42.824 142.515 43.2987 142.291 43.736C142.072 44.1733 141.757 44.5253 141.347 44.792C140.936 45.0587 140.445 45.192 139.875 45.192ZM150.223 45.192C149.711 45.192 149.247 45.0587 148.831 44.792C148.42 44.5253 148.092 44.136 147.847 43.624C147.607 43.1067 147.487 42.4773 147.487 41.736H147.967C147.967 42.232 148.068 42.656 148.271 43.008C148.479 43.3547 148.746 43.6187 149.071 43.8C149.396 43.9813 149.738 44.072 150.095 44.072C150.506 44.072 150.882 43.9547 151.223 43.72C151.564 43.4853 151.836 43.1493 152.039 42.712C152.247 42.2747 152.351 41.752 152.351 41.144C152.351 40.5467 152.25 40.0347 152.047 39.608C151.844 39.176 151.57 38.8453 151.223 38.616C150.882 38.3813 150.5 38.264 150.079 38.264C149.716 38.264 149.372 38.3547 149.047 38.536C148.727 38.712 148.466 38.9733 148.263 39.32C148.066 39.6667 147.967 40.0933 147.967 40.6H147.487C147.487 39.8747 147.604 39.256 147.839 38.744C148.079 38.232 148.41 37.84 148.831 37.568C149.252 37.296 149.743 37.16 150.303 37.16C150.906 37.16 151.458 37.3227 151.959 37.648C152.466 37.968 152.871 38.4267 153.175 39.024C153.479 39.6213 153.631 40.328 153.631 41.144C153.631 41.9653 153.476 42.68 153.167 43.288C152.858 43.8907 152.444 44.36 151.927 44.696C151.41 45.0267 150.842 45.192 150.223 45.192ZM146.719 45V34.088H147.967V43.208L147.599 45H146.719ZM159.131 45.192C158.443 45.192 157.83 45.04 157.291 44.736C156.758 44.432 156.337 43.9813 156.027 43.384C155.718 42.7867 155.563 42.0507 155.563 41.176C155.563 40.296 155.718 39.56 156.027 38.968C156.337 38.3707 156.758 37.92 157.291 37.616C157.83 37.312 158.443 37.16 159.131 37.16C159.814 37.16 160.422 37.312 160.955 37.616C161.494 37.92 161.915 38.3707 162.219 38.968C162.529 39.56 162.683 40.296 162.683 41.176C162.683 42.0507 162.529 42.7867 162.219 43.384C161.915 43.9813 161.494 44.432 160.955 44.736C160.422 45.04 159.814 45.192 159.131 45.192ZM159.099 44.104C159.595 44.104 160.017 43.9867 160.363 43.752C160.71 43.512 160.971 43.1733 161.147 42.736C161.329 42.2987 161.419 41.7787 161.419 41.176C161.419 40.264 161.23 39.5467 160.851 39.024C160.473 38.496 159.91 38.232 159.163 38.232C158.662 38.232 158.238 38.352 157.891 38.592C157.55 38.8267 157.289 39.1653 157.107 39.608C156.931 40.0453 156.843 40.568 156.843 41.176C156.843 42.0773 157.033 42.792 157.411 43.32C157.795 43.8427 158.358 44.104 159.099 44.104ZM170.474 37.336H171.722V45H170.474V37.336ZM165.05 37.336H166.298V42.104C166.298 42.744 166.452 43.2293 166.762 43.56C167.076 43.8907 167.524 44.056 168.106 44.056C168.586 44.056 169.002 43.928 169.354 43.672C169.711 43.416 169.986 43.064 170.178 42.616C170.375 42.1627 170.474 41.6453 170.474 41.064H170.938C170.938 41.9227 170.812 42.656 170.562 43.264C170.316 43.872 169.967 44.3387 169.514 44.664C169.066 44.984 168.538 45.144 167.93 45.144C167.354 45.144 166.85 45.0373 166.418 44.824C165.986 44.6107 165.65 44.288 165.41 43.856C165.17 43.4187 165.05 42.8667 165.05 42.2V37.336ZM177.473 45.192C177.057 45.192 176.684 45.112 176.353 44.952C176.022 44.792 175.761 44.552 175.569 44.232C175.377 43.912 175.281 43.512 175.281 43.032V35.224H176.513V43C176.513 43.7893 176.881 44.184 177.617 44.184C177.836 44.184 178.046 44.16 178.249 44.112C178.457 44.064 178.689 43.992 178.945 43.896L179.121 44.792C178.849 44.9093 178.577 45.0053 178.305 45.08C178.038 45.1547 177.761 45.192 177.473 45.192ZM174.049 38.216V37.352H178.929V38.216H174.049ZM183.797 34.616H185.909L188.421 43.336H187.941L190.421 35.304H191.701L194.277 43.208H193.845L196.485 34.616H198.613L195.045 45H193.061L191.029 38.872H191.205L189.173 45H187.189L183.797 34.616ZM204.394 45.224C203.471 45.224 202.655 45.0213 201.946 44.616C201.242 44.2107 200.69 43.6053 200.29 42.8C199.89 41.9947 199.69 40.9947 199.69 39.8C199.69 38.584 199.89 37.5787 200.29 36.784C200.69 35.984 201.242 35.3893 201.946 35C202.655 34.6053 203.471 34.408 204.394 34.408C205.322 34.408 206.141 34.6107 206.85 35.016C207.559 35.416 208.114 36.016 208.514 36.816C208.914 37.616 209.114 38.6107 209.114 39.8C209.114 41.0107 208.914 42.0187 208.514 42.824C208.114 43.6293 207.559 44.232 206.85 44.632C206.141 45.0267 205.322 45.224 204.394 45.224ZM204.394 43.512C205.242 43.512 205.914 43.192 206.41 42.552C206.911 41.912 207.162 40.9893 207.162 39.784C207.162 38.6213 206.911 37.7173 206.41 37.072C205.914 36.4267 205.242 36.104 204.394 36.104C203.562 36.104 202.895 36.4293 202.394 37.08C201.893 37.7253 201.642 38.632 201.642 39.8C201.642 41 201.893 41.92 202.394 42.56C202.895 43.1947 203.562 43.512 204.394 43.512ZM215.476 45.224C214.553 45.224 213.737 45.0213 213.028 44.616C212.324 44.2107 211.772 43.6053 211.372 42.8C210.972 41.9947 210.772 40.9947 210.772 39.8C210.772 38.584 210.972 37.5787 211.372 36.784C211.772 35.984 212.324 35.3893 213.028 35C213.737 34.6053 214.553 34.408 215.476 34.408C216.404 34.408 217.223 34.6107 217.932 35.016C218.641 35.416 219.196 36.016 219.596 36.816C219.996 37.616 220.196 38.6107 220.196 39.8C220.196 41.0107 219.996 42.0187 219.596 42.824C219.196 43.6293 218.641 44.232 217.932 44.632C217.223 45.0267 216.404 45.224 215.476 45.224ZM215.476 43.512C216.324 43.512 216.996 43.192 217.492 42.552C217.993 41.912 218.244 40.9893 218.244 39.784C218.244 38.6213 217.993 37.7173 217.492 37.072C216.996 36.4267 216.324 36.104 215.476 36.104C214.644 36.104 213.977 36.4293 213.476 37.08C212.975 37.7253 212.724 38.632 212.724 39.8C212.724 41 212.975 41.92 213.476 42.56C213.977 43.1947 214.644 43.512 215.476 43.512ZM222.59 34.616H225.95C227.006 34.616 227.931 34.8293 228.726 35.256C229.521 35.6773 230.139 36.2773 230.582 37.056C231.025 37.8347 231.246 38.7547 231.246 39.816C231.246 40.8667 231.025 41.7813 230.582 42.56C230.139 43.3333 229.521 43.9333 228.726 44.36C227.931 44.7867 227.006 45 225.95 45H222.59V34.616ZM224.478 36.328V43.304H225.95C226.622 43.304 227.201 43.152 227.686 42.848C228.177 42.544 228.553 42.1307 228.814 41.608C229.081 41.08 229.214 40.4827 229.214 39.816C229.214 39.1387 229.081 38.5387 228.814 38.016C228.553 37.4933 228.177 37.0827 227.686 36.784C227.201 36.48 226.622 36.328 225.95 36.328H224.478ZM28.44 65V54.616H32.104C33.272 54.616 34.1813 54.904 34.832 55.48C35.488 56.056 35.816 56.872 35.816 57.928C35.816 58.9733 35.488 59.784 34.832 60.36C34.1813 60.936 33.272 61.224 32.104 61.224H30.344V65H28.44ZM30.344 59.576H32.104C32.6907 59.576 33.1333 59.4213 33.432 59.112C33.7307 58.8027 33.88 58.408 33.88 57.928C33.88 57.4373 33.7307 57.0347 33.432 56.72C33.1333 56.4053 32.6907 56.248 32.104 56.248H30.344V59.576ZM37.9292 65V54.616H41.7692C43.0119 54.616 43.9639 54.9067 44.6252 55.488C45.2919 56.0693 45.6252 56.84 45.6252 57.8C45.6252 58.744 45.2919 59.5067 44.6252 60.088C43.9639 60.664 43.0119 60.952 41.7692 60.952H39.8173V65H37.9292ZM43.5453 65L40.7933 60.136H42.8093L46.0093 65H43.5453ZM39.8173 59.688H41.5773C42.2706 59.688 42.7959 59.5307 43.1533 59.216C43.5106 58.896 43.6892 58.4827 43.6892 57.976C43.6892 57.4587 43.5266 57.0427 43.2013 56.728C42.8759 56.408 42.3986 56.248 41.7692 56.248H39.8173V59.688ZM52.3541 65.224C51.4315 65.224 50.6155 65.0213 49.9061 64.616C49.2021 64.2107 48.6501 63.6053 48.2501 62.8C47.8501 61.9947 47.6501 60.9947 47.6501 59.8C47.6501 58.584 47.8501 57.5787 48.2501 56.784C48.6501 55.984 49.2021 55.3893 49.9061 55C50.6155 54.6053 51.4315 54.408 52.3541 54.408C53.2821 54.408 54.1008 54.6107 54.8101 55.016C55.5195 55.416 56.0741 56.016 56.4741 56.816C56.8741 57.616 57.0741 58.6107 57.0741 59.8C57.0741 61.0107 56.8741 62.0187 56.4741 62.824C56.0741 63.6293 55.5195 64.232 54.8101 64.632C54.1008 65.0267 53.2821 65.224 52.3541 65.224ZM52.3541 63.512C53.2021 63.512 53.8741 63.192 54.3701 62.552C54.8715 61.912 55.1221 60.9893 55.1221 59.784C55.1221 58.6213 54.8715 57.7173 54.3701 57.072C53.8741 56.4267 53.2021 56.104 52.3541 56.104C51.5221 56.104 50.8555 56.4293 50.3541 57.08C49.8528 57.7253 49.6021 58.632 49.6021 59.8C49.6021 61 49.8528 61.92 50.3541 62.56C50.8555 63.1947 51.5221 63.512 52.3541 63.512ZM59.468 54.616H62.828C63.884 54.616 64.8093 54.8293 65.604 55.256C66.3987 55.6773 67.0173 56.2773 67.46 57.056C67.9027 57.8347 68.124 58.7547 68.124 59.816C68.124 60.8667 67.9027 61.7813 67.46 62.56C67.0173 63.3333 66.3987 63.9333 65.604 64.36C64.8093 64.7867 63.884 65 62.828 65H59.468V54.616ZM61.356 56.328V63.304H62.828C63.5 63.304 64.0787 63.152 64.564 62.848C65.0547 62.544 65.4307 62.1307 65.692 61.608C65.9587 61.08 66.092 60.4827 66.092 59.816C66.092 59.1387 65.9587 58.5387 65.692 58.016C65.4307 57.4933 65.0547 57.0827 64.564 56.784C64.0787 56.48 63.5 56.328 62.828 56.328H61.356ZM70.4524 54.616H72.3404V61.08C72.3404 61.9333 72.5564 62.5493 72.9884 62.928C73.4257 63.3067 73.983 63.496 74.6604 63.496C75.343 63.496 75.9004 63.3067 76.3324 62.928C76.7644 62.5493 76.9804 61.9333 76.9804 61.08V54.616H78.8684V61.08C78.8684 61.9547 78.7004 62.7013 78.3644 63.32C78.0284 63.9387 77.5457 64.4107 76.9164 64.736C76.2924 65.0613 75.5404 65.224 74.6604 65.224C73.7804 65.224 73.0257 65.0613 72.3964 64.736C71.7724 64.4107 71.2924 63.9387 70.9564 63.32C70.6204 62.7013 70.4524 61.9547 70.4524 61.08V54.616ZM85.5952 65.224C84.6832 65.224 83.8886 65.008 83.2112 64.576C82.5392 64.1387 82.0166 63.5147 81.6432 62.704C81.2699 61.8933 81.0832 60.92 81.0832 59.784C81.0832 58.6107 81.2752 57.6267 81.6592 56.832C82.0486 56.032 82.5819 55.4293 83.2592 55.024C83.9419 54.6133 84.7206 54.408 85.5952 54.408C86.8059 54.408 87.7499 54.7013 88.4272 55.288C89.1099 55.8747 89.5472 56.6373 89.7392 57.576L87.7232 57.944C87.5579 57.4 87.2939 56.96 86.9312 56.624C86.5686 56.288 86.1232 56.12 85.5952 56.12C85.1312 56.12 84.7126 56.256 84.3392 56.528C83.9659 56.7947 83.6672 57.2 83.4432 57.744C83.2246 58.288 83.1152 58.968 83.1152 59.784C83.1152 60.552 83.2112 61.2133 83.4032 61.768C83.6006 62.3227 83.8832 62.7493 84.2512 63.048C84.6192 63.3467 85.0672 63.496 85.5952 63.496C86.2726 63.496 86.7952 63.3173 87.1632 62.96C87.5366 62.5973 87.7232 62.136 87.7232 61.576H89.7392C89.7392 62.3493 89.5712 63.008 89.2352 63.552C88.9046 64.0907 88.4299 64.504 87.8112 64.792C87.1926 65.08 86.4539 65.224 85.5952 65.224ZM90.7279 56.248V54.616H99.0479V56.248H95.4079L95.8319 55.816V65H93.9439V55.816L94.3679 56.248H90.7279ZM104.396 65.224C103.676 65.224 103.012 65.0987 102.404 64.848C101.801 64.5973 101.311 64.216 100.932 63.704C100.559 63.192 100.359 62.5413 100.332 61.752H102.188C102.188 62.152 102.287 62.48 102.484 62.736C102.681 62.992 102.945 63.184 103.276 63.312C103.612 63.4347 103.98 63.496 104.38 63.496C104.764 63.496 105.105 63.4453 105.404 63.344C105.708 63.2427 105.945 63.0987 106.116 62.912C106.292 62.72 106.38 62.4933 106.38 62.232C106.38 61.8853 106.273 61.6133 106.06 61.416C105.852 61.2187 105.516 61.0373 105.052 60.872L103.004 60.056C102.204 59.7413 101.591 59.376 101.164 58.96C100.737 58.544 100.524 57.9707 100.524 57.24C100.524 56.3973 100.857 55.7147 101.524 55.192C102.191 54.6693 103.121 54.408 104.316 54.408C105.479 54.408 106.377 54.68 107.012 55.224C107.647 55.7627 108.007 56.5147 108.092 57.48H106.236C106.167 57.0693 105.98 56.7413 105.676 56.496C105.372 56.2453 104.919 56.12 104.316 56.12C103.783 56.12 103.361 56.232 103.052 56.456C102.743 56.6747 102.588 56.952 102.588 57.288C102.588 57.576 102.684 57.8053 102.876 57.976C103.073 58.1413 103.377 58.3013 103.788 58.456L106.06 59.336C106.828 59.6347 107.417 60.0107 107.828 60.464C108.239 60.9173 108.444 61.4853 108.444 62.168C108.444 62.792 108.287 63.3333 107.972 63.792C107.657 64.2453 107.199 64.5973 106.596 64.848C105.993 65.0987 105.26 65.224 104.396 65.224ZM116.182 55.544C115.926 55.544 115.723 55.472 115.574 55.328C115.425 55.1787 115.35 54.984 115.35 54.744C115.35 54.5093 115.425 54.3227 115.574 54.184C115.723 54.0453 115.926 53.976 116.182 53.976C116.438 53.976 116.641 54.0453 116.79 54.184C116.939 54.3227 117.014 54.5093 117.014 54.744C117.014 54.984 116.939 55.1787 116.79 55.328C116.641 55.472 116.438 55.544 116.182 55.544ZM115.558 65V57.336H116.806V65H115.558ZM125.843 65V60.504C125.843 59.7733 125.667 59.2187 125.315 58.84C124.969 58.456 124.494 58.264 123.891 58.264C123.433 58.264 123.035 58.3893 122.699 58.64C122.363 58.8907 122.105 59.2507 121.923 59.72C121.742 60.184 121.651 60.7387 121.651 61.384H121.171C121.171 60.4933 121.289 59.7333 121.523 59.104C121.758 58.4747 122.099 57.9947 122.547 57.664C123.001 57.328 123.55 57.16 124.195 57.16C124.798 57.16 125.313 57.296 125.739 57.568C126.171 57.8347 126.502 58.2187 126.731 58.72C126.961 59.2213 127.075 59.816 127.075 60.504V65H125.843ZM120.403 65V57.352H121.475L121.651 59.112V65H120.403ZM136.529 65.192C136.113 65.192 135.739 65.112 135.409 64.952C135.078 64.792 134.817 64.552 134.625 64.232C134.433 63.912 134.337 63.512 134.337 63.032V55.224H135.569V63C135.569 63.7893 135.937 64.184 136.673 64.184C136.891 64.184 137.102 64.16 137.305 64.112C137.513 64.064 137.745 63.992 138.001 63.896L138.177 64.792C137.905 64.9093 137.633 65.0053 137.361 65.08C137.094 65.1547 136.817 65.192 136.529 65.192ZM133.105 58.216V57.352H137.985V58.216H133.105ZM145.792 65V60.504C145.792 59.7733 145.616 59.2187 145.264 58.84C144.918 58.456 144.443 58.264 143.84 58.264C143.382 58.264 142.984 58.3893 142.648 58.64C142.312 58.8907 142.054 59.2507 141.872 59.72C141.691 60.184 141.6 60.7387 141.6 61.384H141.12C141.12 60.4933 141.238 59.7333 141.472 59.104C141.707 58.4747 142.048 57.9947 142.496 57.664C142.95 57.328 143.499 57.16 144.144 57.16C144.747 57.16 145.262 57.296 145.688 57.568C146.12 57.8347 146.451 58.2187 146.68 58.72C146.91 59.2213 147.024 59.816 147.024 60.504V65H145.792ZM140.352 65V54.088H141.6V65H140.352ZM152.824 65.192C152.163 65.192 151.571 65.024 151.048 64.688C150.531 64.3467 150.12 63.8747 149.816 63.272C149.518 62.6693 149.368 61.976 149.368 61.192C149.368 60.3547 149.518 59.6347 149.816 59.032C150.115 58.4293 150.523 57.968 151.04 57.648C151.563 57.3227 152.158 57.16 152.824 57.16C153.406 57.16 153.902 57.2773 154.312 57.512C154.723 57.7467 155.054 58.064 155.304 58.464C155.555 58.864 155.728 59.3173 155.824 59.824C155.926 60.3253 155.955 60.8453 155.912 61.384H150.376V60.616H155.088L154.72 60.856C154.736 60.5413 154.718 60.2267 154.664 59.912C154.616 59.5973 154.523 59.3093 154.384 59.048C154.246 58.7813 154.051 58.568 153.8 58.408C153.55 58.248 153.23 58.168 152.84 58.168C152.35 58.168 151.939 58.2933 151.608 58.544C151.278 58.7947 151.03 59.1253 150.864 59.536C150.699 59.9413 150.616 60.3813 150.616 60.856V61.368C150.616 61.9013 150.696 62.3787 150.856 62.8C151.022 63.2213 151.267 63.5547 151.592 63.8C151.918 64.0453 152.328 64.168 152.824 64.168C153.32 64.168 153.728 64.048 154.048 63.808C154.368 63.568 154.563 63.2133 154.632 62.744H155.928C155.848 63.2507 155.667 63.688 155.384 64.056C155.102 64.4187 154.742 64.6987 154.304 64.896C153.867 65.0933 153.374 65.192 152.824 65.192ZM165.976 65.192C165.416 65.192 164.928 65.064 164.512 64.808C164.101 64.552 163.784 64.1787 163.56 63.688C163.336 63.192 163.224 62.5893 163.224 61.88H163.752C163.752 62.3547 163.851 62.7547 164.048 63.08C164.245 63.4053 164.501 63.6533 164.816 63.824C165.136 63.9893 165.475 64.072 165.832 64.072C166.216 64.072 166.584 63.9627 166.936 63.744C167.288 63.52 167.576 63.192 167.8 62.76C168.024 62.328 168.136 61.7947 168.136 61.16C168.136 60.552 168.032 60.032 167.824 59.6C167.621 59.168 167.347 58.8373 167 58.608C166.653 58.3787 166.269 58.264 165.848 58.264C165.485 58.264 165.144 58.352 164.824 58.528C164.504 58.704 164.245 58.9627 164.048 59.304C163.851 59.64 163.752 60.056 163.752 60.552H163.224C163.224 59.8107 163.347 59.1893 163.592 58.688C163.837 58.1813 164.171 57.8 164.592 57.544C165.013 57.288 165.485 57.16 166.008 57.16C166.605 57.16 167.163 57.32 167.68 57.64C168.197 57.96 168.616 58.4187 168.936 59.016C169.256 59.6133 169.416 60.328 169.416 61.16C169.416 62.0027 169.253 62.7253 168.928 63.328C168.608 63.9307 168.187 64.392 167.664 64.712C167.141 65.032 166.579 65.192 165.976 65.192ZM162.504 68.76V57.352H163.544L163.752 59.144V68.76H162.504ZM176.76 65L176.6 63.32V60.04C176.6 59.352 176.453 58.8587 176.16 58.56C175.866 58.256 175.426 58.104 174.84 58.104C174.509 58.104 174.208 58.152 173.936 58.248C173.669 58.344 173.456 58.4933 173.296 58.696C173.141 58.8933 173.064 59.1493 173.064 59.464H171.672C171.672 58.9093 171.808 58.464 172.08 58.128C172.352 57.7867 172.725 57.5413 173.2 57.392C173.68 57.2373 174.226 57.16 174.84 57.16C175.426 57.16 175.946 57.2587 176.4 57.456C176.853 57.6533 177.208 57.968 177.464 58.4C177.72 58.8267 177.848 59.384 177.848 60.072V65H176.76ZM174.152 65.192C173.522 65.192 173.002 65.08 172.592 64.856C172.181 64.632 171.874 64.3413 171.672 63.984C171.469 63.6267 171.368 63.2507 171.368 62.856C171.368 62.3387 171.496 61.9173 171.752 61.592C172.013 61.2667 172.368 61.0293 172.816 60.88C173.264 60.7253 173.768 60.648 174.328 60.648C174.728 60.648 175.128 60.688 175.528 60.768C175.933 60.848 176.328 60.9573 176.712 61.096V61.88C176.392 61.752 176.029 61.6507 175.624 61.576C175.224 61.5013 174.856 61.464 174.52 61.464C174.008 61.464 173.576 61.5707 173.224 61.784C172.872 61.992 172.696 62.3493 172.696 62.856C172.696 63.2293 172.829 63.5493 173.096 63.816C173.368 64.0827 173.8 64.216 174.392 64.216C174.808 64.216 175.181 64.12 175.512 63.928C175.848 63.7307 176.112 63.4853 176.304 63.192C176.501 62.8987 176.6 62.6053 176.6 62.312H176.904C176.904 62.824 176.792 63.2987 176.568 63.736C176.349 64.1733 176.034 64.5253 175.624 64.792C175.213 65.0587 174.722 65.192 174.152 65.192ZM183.7 68.936C182.916 68.936 182.236 68.824 181.66 68.6C181.084 68.3813 180.636 68.0853 180.316 67.712C180.001 67.344 179.844 66.936 179.844 66.488C179.844 65.896 180.06 65.4427 180.492 65.128C180.929 64.8187 181.492 64.664 182.18 64.664L182.868 65.096C182.292 65.096 181.847 65.216 181.532 65.456C181.217 65.696 181.06 66.024 181.06 66.44C181.06 66.856 181.284 67.208 181.732 67.496C182.18 67.784 182.836 67.928 183.7 67.928C184.34 67.928 184.9 67.8347 185.38 67.648C185.865 67.4667 186.241 67.2267 186.508 66.928C186.78 66.6347 186.916 66.3173 186.916 65.976C186.916 65.736 186.828 65.528 186.652 65.352C186.476 65.1813 186.207 65.096 185.844 65.096H182.868C182.351 65.096 181.903 65.0187 181.524 64.864C181.151 64.704 180.863 64.496 180.66 64.24C180.457 63.984 180.356 63.704 180.356 63.4C180.356 63.08 180.447 62.808 180.628 62.584C180.809 62.36 181.044 62.1893 181.332 62.072C181.625 61.9547 181.94 61.896 182.276 61.896L182.516 62.36C182.356 62.36 182.193 62.3973 182.028 62.472C181.868 62.5413 181.732 62.648 181.62 62.792C181.513 62.9307 181.46 63.1067 181.46 63.32C181.46 63.5653 181.561 63.7707 181.764 63.936C181.967 64.1013 182.335 64.184 182.868 64.184H185.844C186.564 64.184 187.129 64.336 187.54 64.64C187.956 64.944 188.164 65.368 188.164 65.912C188.164 66.4133 187.985 66.8933 187.628 67.352C187.271 67.816 186.759 68.1947 186.092 68.488C185.425 68.7867 184.628 68.936 183.7 68.936ZM183.924 62.76C183.337 62.76 182.807 62.6427 182.332 62.408C181.863 62.1733 181.489 61.8453 181.212 61.424C180.94 61.0027 180.804 60.5147 180.804 59.96C180.804 59.4 180.94 58.9093 181.212 58.488C181.489 58.0667 181.863 57.7413 182.332 57.512C182.807 57.2773 183.337 57.16 183.924 57.16C184.495 57.16 185.012 57.2773 185.476 57.512C185.945 57.7413 186.319 58.0667 186.596 58.488C186.873 58.9093 187.012 59.4 187.012 59.96C187.012 60.5147 186.873 61.0027 186.596 61.424C186.319 61.8453 185.945 62.1733 185.476 62.408C185.012 62.6427 184.495 62.76 183.924 62.76ZM183.924 61.864C184.511 61.864 184.967 61.6827 185.292 61.32C185.617 60.9573 185.78 60.504 185.78 59.96C185.78 59.4 185.617 58.9467 185.292 58.6C184.967 58.248 184.511 58.072 183.924 58.072C183.343 58.072 182.884 58.248 182.548 58.6C182.217 58.9467 182.052 59.4 182.052 59.96C182.052 60.504 182.217 60.9573 182.548 61.32C182.884 61.6827 183.343 61.864 183.924 61.864ZM186.436 58.376L185.844 58.136C185.844 57.688 185.932 57.296 186.108 56.96C186.284 56.6187 186.535 56.3547 186.86 56.168C187.185 55.976 187.572 55.88 188.02 55.88L187.924 57.112C187.444 57.112 187.076 57.216 186.82 57.424C186.564 57.6267 186.436 57.944 186.436 58.376ZM192.843 65.192C192.182 65.192 191.59 65.024 191.067 64.688C190.55 64.3467 190.139 63.8747 189.835 63.272C189.537 62.6693 189.387 61.976 189.387 61.192C189.387 60.3547 189.537 59.6347 189.835 59.032C190.134 58.4293 190.542 57.968 191.059 57.648C191.582 57.3227 192.177 57.16 192.843 57.16C193.425 57.16 193.921 57.2773 194.331 57.512C194.742 57.7467 195.073 58.064 195.323 58.464C195.574 58.864 195.747 59.3173 195.843 59.824C195.945 60.3253 195.974 60.8453 195.931 61.384H190.395V60.616H195.107L194.739 60.856C194.755 60.5413 194.737 60.2267 194.683 59.912C194.635 59.5973 194.542 59.3093 194.403 59.048C194.265 58.7813 194.07 58.568 193.819 58.408C193.569 58.248 193.249 58.168 192.859 58.168C192.369 58.168 191.958 58.2933 191.627 58.544C191.297 58.7947 191.049 59.1253 190.883 59.536C190.718 59.9413 190.635 60.3813 190.635 60.856V61.368C190.635 61.9013 190.715 62.3787 190.875 62.8C191.041 63.2213 191.286 63.5547 191.611 63.8C191.937 64.0453 192.347 64.168 192.843 64.168C193.339 64.168 193.747 64.048 194.067 63.808C194.387 63.568 194.582 63.2133 194.651 62.744H195.947C195.867 63.2507 195.686 63.688 195.403 64.056C195.121 64.4187 194.761 64.6987 194.323 64.896C193.886 65.0933 193.393 65.192 192.843 65.192ZM27.16 74.616H29.272L31.784 83.336H31.304L33.784 75.304H35.064L37.64 83.208H37.208L39.848 74.616H41.976L38.408 85H36.424L34.392 78.872H34.568L32.536 85H30.552L27.16 74.616ZM47.7566 85.224C46.834 85.224 46.018 85.0213 45.3086 84.616C44.6046 84.2107 44.0526 83.6053 43.6526 82.8C43.2526 81.9947 43.0526 80.9947 43.0526 79.8C43.0526 78.584 43.2526 77.5787 43.6526 76.784C44.0526 75.984 44.6046 75.3893 45.3086 75C46.018 74.6053 46.834 74.408 47.7566 74.408C48.6846 74.408 49.5033 74.6107 50.2126 75.016C50.922 75.416 51.4766 76.016 51.8766 76.816C52.2766 77.616 52.4766 78.6107 52.4766 79.8C52.4766 81.0107 52.2766 82.0187 51.8766 82.824C51.4766 83.6293 50.922 84.232 50.2126 84.632C49.5033 85.0267 48.6846 85.224 47.7566 85.224ZM47.7566 83.512C48.6046 83.512 49.2766 83.192 49.7726 82.552C50.274 81.912 50.5246 80.9893 50.5246 79.784C50.5246 78.6213 50.274 77.7173 49.7726 77.072C49.2766 76.4267 48.6046 76.104 47.7566 76.104C46.9246 76.104 46.258 76.4293 45.7566 77.08C45.2553 77.7253 45.0046 78.632 45.0046 79.8C45.0046 81 45.2553 81.92 45.7566 82.56C46.258 83.1947 46.9246 83.512 47.7566 83.512ZM58.8385 85.224C57.9158 85.224 57.0998 85.0213 56.3905 84.616C55.6865 84.2107 55.1345 83.6053 54.7345 82.8C54.3345 81.9947 54.1345 80.9947 54.1345 79.8C54.1345 78.584 54.3345 77.5787 54.7345 76.784C55.1345 75.984 55.6865 75.3893 56.3905 75C57.0998 74.6053 57.9158 74.408 58.8385 74.408C59.7665 74.408 60.5852 74.6107 61.2945 75.016C62.0038 75.416 62.5585 76.016 62.9585 76.816C63.3585 77.616 63.5585 78.6107 63.5585 79.8C63.5585 81.0107 63.3585 82.0187 62.9585 82.824C62.5585 83.6293 62.0038 84.232 61.2945 84.632C60.5852 85.0267 59.7665 85.224 58.8385 85.224ZM58.8385 83.512C59.6865 83.512 60.3585 83.192 60.8545 82.552C61.3558 81.912 61.6065 80.9893 61.6065 79.784C61.6065 78.6213 61.3558 77.7173 60.8545 77.072C60.3585 76.4267 59.6865 76.104 58.8385 76.104C58.0065 76.104 57.3398 76.4293 56.8385 77.08C56.3372 77.7253 56.0865 78.632 56.0865 79.8C56.0865 81 56.3372 81.92 56.8385 82.56C57.3398 83.1947 58.0065 83.512 58.8385 83.512ZM65.9524 74.616H69.3124C70.3684 74.616 71.2937 74.8293 72.0884 75.256C72.883 75.6773 73.5017 76.2773 73.9444 77.056C74.387 77.8347 74.6084 78.7547 74.6084 79.816C74.6084 80.8667 74.387 81.7813 73.9444 82.56C73.5017 83.3333 72.883 83.9333 72.0884 84.36C71.2937 84.7867 70.3684 85 69.3124 85H65.9524V74.616ZM67.8404 76.328V83.304H69.3124C69.9844 83.304 70.563 83.152 71.0484 82.848C71.539 82.544 71.915 82.1307 72.1764 81.608C72.443 81.08 72.5764 80.4827 72.5764 79.816C72.5764 79.1387 72.443 78.5387 72.1764 78.016C71.915 77.4933 71.539 77.0827 71.0484 76.784C70.563 76.48 69.9844 76.328 69.3124 76.328H67.8404ZM81.3036 74.616H84.0076L86.9356 80.968H86.7756L89.7036 74.616H92.3116V85H90.4076V76.792H90.6956L87.4636 83.864H86.2316L83.0156 76.824H83.1916V85H81.3036V74.616ZM94.312 85L97.848 74.616H100.216L103.608 85H101.624L100.904 82.76H97.048L96.312 85H94.312ZM97.528 81.336H100.456L99 76.872L97.528 81.336ZM103.513 76.248V74.616H111.833V76.248H108.193L108.617 75.816V85H106.729V75.816L107.153 76.248H103.513ZM113.549 85V74.616H120.221V76.248H115.437V78.984H119.933V80.616H115.437V83.352H120.221V85H113.549ZM123.116 85V74.616H126.956C128.198 74.616 129.15 74.9067 129.812 75.488C130.478 76.0693 130.812 76.84 130.812 77.8C130.812 78.744 130.478 79.5067 129.812 80.088C129.15 80.664 128.198 80.952 126.956 80.952H125.004V85H123.116ZM128.732 85L125.98 80.136H127.996L131.196 85H128.732ZM125.004 79.688H126.764C127.457 79.688 127.982 79.5307 128.34 79.216C128.697 78.896 128.876 78.4827 128.876 77.976C128.876 77.4587 128.713 77.0427 128.388 76.728C128.062 76.408 127.585 76.248 126.956 76.248H125.004V79.688ZM133.572 85V74.616H135.46V85H133.572ZM137.471 85L141.007 74.616H143.375L146.767 85H144.783L144.063 82.76H140.207L139.471 85H137.471ZM140.687 81.336H143.615L142.159 76.872L140.687 81.336ZM150.671 74.616V83.352H154.943V85H148.783V74.616H150.671ZM160.465 85.224C159.745 85.224 159.081 85.0987 158.473 84.848C157.871 84.5973 157.38 84.216 157.001 83.704C156.628 83.192 156.428 82.5413 156.401 81.752H158.257C158.257 82.152 158.356 82.48 158.553 82.736C158.751 82.992 159.015 83.184 159.345 83.312C159.681 83.4347 160.049 83.496 160.449 83.496C160.833 83.496 161.175 83.4453 161.473 83.344C161.777 83.2427 162.015 83.0987 162.185 82.912C162.361 82.72 162.449 82.4933 162.449 82.232C162.449 81.8853 162.343 81.6133 162.129 81.416C161.921 81.2187 161.585 81.0373 161.121 80.872L159.073 80.056C158.273 79.7413 157.66 79.376 157.233 78.96C156.807 78.544 156.593 77.9707 156.593 77.24C156.593 76.3973 156.927 75.7147 157.593 75.192C158.26 74.6693 159.191 74.408 160.385 74.408C161.548 74.408 162.447 74.68 163.081 75.224C163.716 75.7627 164.076 76.5147 164.161 77.48H162.305C162.236 77.0693 162.049 76.7413 161.745 76.496C161.441 76.2453 160.988 76.12 160.385 76.12C159.852 76.12 159.431 76.232 159.121 76.456C158.812 76.6747 158.657 76.952 158.657 77.288C158.657 77.576 158.753 77.8053 158.945 77.976C159.143 78.1413 159.447 78.3013 159.857 78.456L162.129 79.336C162.897 79.6347 163.487 80.0107 163.897 80.464C164.308 80.9173 164.513 81.4853 164.513 82.168C164.513 82.792 164.356 83.3333 164.041 83.792C163.727 84.2453 163.268 84.5973 162.665 84.848C162.063 85.0987 161.329 85.224 160.465 85.224Z" fill="#333333"/>
</g>
<defs>
<filter id="filter0_d_7093_6097" x="0" y="0" width="246.768" height="108" filterUnits="userSpaceOnUse" color-interpolation-filters="sRGB">
<feFlood flood-opacity="0" result="BackgroundImageFix"/>
<feColorMatrix in="SourceAlpha" type="matrix" values="0 0 0 0 0 0 0 0 0 0 0 0 0 0 0 0 0 0 127 0" result="hardAlpha"/>
<feOffset dy="4"/>
<feGaussianBlur stdDeviation="3"/>
<feComposite in2="hardAlpha" operator="out"/>
<feColorMatrix type="matrix" values="0 0 0 0 0 0 0 0 0 0 0 0 0 0 0 0 0 0 0.1 0"/>
<feBlend mode="normal" in2="BackgroundImageFix" result="effect1_dropShadow_7093_6097"/>
<feBlend mode="normal" in="SourceGraphic" in2="effect1_dropShadow_7093_6097" result="shape"/>
</filter>
</defs>
</svg>
