<svg width="256" height="68" viewBox="0 0 256 68" fill="none" xmlns="http://www.w3.org/2000/svg">
<mask id="path-1-inside-1_7098_5739" fill="white">
<path d="M248.724 27.3669L239 19L239 11C239 6.02944 234.971 2 230 2L9.00022 1.99998C4.02965 1.99998 0.000218166 6.02942 0.000217732 11L0.00021441 49C0.000213975 53.9705 4.02965 58 9.00021 58L230 58C234.971 58 239 53.9706 239 49L239 39.5L248.612 32.0069C250.106 30.8425 250.16 28.6022 248.724 27.3669Z"/>
</mask>
<path d="M248.724 27.3669L239 19L239 11C239 6.02944 234.971 2 230 2L9.00022 1.99998C4.02965 1.99998 0.000218166 6.02942 0.000217732 11L0.00021441 49C0.000213975 53.9705 4.02965 58 9.00021 58L230 58C234.971 58 239 53.9706 239 49L239 39.5L248.612 32.0069C250.106 30.8425 250.16 28.6022 248.724 27.3669Z" fill="white"/>
<path d="M239 19L237.6 19L237.6 19.6423L238.087 20.0612L239 19ZM248.724 27.3669L249.637 26.3056L249.637 26.3056L248.724 27.3669ZM248.612 32.0069L247.751 30.9028L247.751 30.9028L248.612 32.0069ZM239 39.5L238.139 38.3959L237.6 38.8162L237.6 39.5L239 39.5ZM238.087 20.0612L247.811 28.4281L249.637 26.3056L239.913 17.9388L238.087 20.0612ZM247.751 30.9028L238.139 38.3959L239.861 40.6041L249.473 33.1111L247.751 30.9028ZM247.811 28.4281C248.577 29.0869 248.548 30.2817 247.751 30.9028L249.473 33.1111C251.664 31.4032 251.743 28.1175 249.637 26.3056L247.811 28.4281ZM230 56.6L9.00021 56.6L9.00021 59.4L230 59.4L230 56.6ZM1.40021 49L1.40021 11L-1.39978 11L-1.39978 49L1.40021 49ZM9.00022 3.39998L230 3.4L230 0.599997L9.00022 0.599977L9.00022 3.39998ZM237.6 39.5L237.6 49L240.4 49L240.4 39.5L237.6 39.5ZM237.6 11L237.6 19L240.4 19L240.4 11L237.6 11ZM230 3.4C234.198 3.4 237.6 6.80263 237.6 11L240.4 11C240.4 5.25624 235.744 0.599997 230 0.599997L230 3.4ZM1.40021 11C1.40021 6.80261 4.80285 3.39998 9.00022 3.39998L9.00022 0.599977C3.25646 0.599977 -1.39978 5.25622 -1.39978 11L1.40021 11ZM9.00021 56.6C4.80284 56.6 1.40021 53.1973 1.40021 49L-1.39978 49C-1.39978 54.7437 3.25645 59.4 9.00021 59.4L9.00021 56.6ZM230 59.4C235.744 59.4 240.4 54.7438 240.4 49L237.6 49C237.6 53.1974 234.198 56.6 230 56.6L230 59.4Z" fill="white" mask="url(#path-1-inside-1_7098_5739)"/>
<g filter="url(#filter0_d_7098_5739)">
<mask id="path-3-inside-2_7098_5739" fill="white">
<path d="M248.724 27.3669L239 19L239 11C239 6.02944 234.971 2 230 2L169 1.99999C164.03 1.99999 160 6.02943 160 11L160 49C160 53.9705 164.03 58 169 58L230 58C234.971 58 239 53.9706 239 49L239 39.5L248.612 32.0069C250.106 30.8425 250.16 28.6022 248.724 27.3669Z"/>
</mask>
<path d="M248.724 27.3669L239 19L239 11C239 6.02944 234.971 2 230 2L169 1.99999C164.03 1.99999 160 6.02943 160 11L160 49C160 53.9705 164.03 58 169 58L230 58C234.971 58 239 53.9706 239 49L239 39.5L248.612 32.0069C250.106 30.8425 250.16 28.6022 248.724 27.3669Z" fill="white"/>
<path d="M239 19L237.6 19L237.6 19.6423L238.087 20.0612L239 19ZM248.724 27.3669L249.637 26.3056L249.637 26.3056L248.724 27.3669ZM248.612 32.0069L247.751 30.9028L247.751 30.9028L248.612 32.0069ZM239 39.5L238.139 38.3959L237.6 38.8162L237.6 39.5L239 39.5ZM230 58L230 59.4L230 58ZM169 58L169 56.6L169 58ZM238.087 20.0612L247.811 28.4281L249.637 26.3056L239.913 17.9388L238.087 20.0612ZM247.751 30.9028L238.139 38.3959L239.861 40.6041L249.473 33.1111L247.751 30.9028ZM247.811 28.4281C248.577 29.0869 248.548 30.2817 247.751 30.9028L249.473 33.1111C251.664 31.4032 251.743 28.1175 249.637 26.3056L247.811 28.4281ZM230 56.6L169 56.6L169 59.4L230 59.4L230 56.6ZM161.4 49L161.4 11L158.6 11L158.6 49L161.4 49ZM169 3.39999L230 3.4L230 0.599997L169 0.599991L169 3.39999ZM237.6 39.5L237.6 49L240.4 49L240.4 39.5L237.6 39.5ZM237.6 11L237.6 19L240.4 19L240.4 11L237.6 11ZM230 3.4C234.198 3.4 237.6 6.80263 237.6 11L240.4 11C240.4 5.25624 235.744 0.599997 230 0.599997L230 3.4ZM161.4 11C161.4 6.80263 164.803 3.39999 169 3.39999L169 0.599991C163.256 0.599991 158.6 5.25623 158.6 11L161.4 11ZM169 56.6C164.803 56.6 161.4 53.1973 161.4 49L158.6 49C158.6 54.7437 163.256 59.4 169 59.4L169 56.6ZM230 59.4C235.744 59.4 240.4 54.7438 240.4 49L237.6 49C237.6 53.1974 234.198 56.6 230 56.6L230 59.4Z" fill="#333333" mask="url(#path-3-inside-2_7098_5739)"/>
</g>
<g filter="url(#filter1_d_7098_5739)">
<path d="M207.964 25.5V15.452H209.212V25.5H207.964ZM212.129 18.796L211.233 18.316C211.537 18.1613 211.793 17.988 212.001 17.796C212.214 17.5987 212.353 17.372 212.417 17.116C212.177 17.0893 211.974 17.0067 211.809 16.868C211.649 16.7293 211.569 16.5453 211.569 16.316C211.569 16.0813 211.657 15.884 211.833 15.724C212.009 15.564 212.23 15.484 212.497 15.484C212.721 15.484 212.913 15.5427 213.073 15.66C213.233 15.772 213.355 15.924 213.441 16.116C213.526 16.3027 213.569 16.5133 213.569 16.748C213.569 17.132 213.443 17.508 213.193 17.876C212.942 18.2387 212.587 18.5453 212.129 18.796ZM218.911 25.692C218.292 25.692 217.724 25.5267 217.207 25.196C216.689 24.86 216.276 24.3907 215.967 23.788C215.657 23.18 215.503 22.4653 215.503 21.644C215.503 20.828 215.655 20.1213 215.959 19.524C216.263 18.9267 216.665 18.468 217.167 18.148C217.673 17.8227 218.228 17.66 218.831 17.66C219.391 17.66 219.881 17.796 220.303 18.068C220.729 18.34 221.06 18.732 221.295 19.244C221.529 19.756 221.647 20.3747 221.647 21.1H221.167C221.167 20.5933 221.065 20.1667 220.863 19.82C220.665 19.4733 220.407 19.212 220.087 19.036C219.767 18.8547 219.423 18.764 219.055 18.764C218.639 18.764 218.257 18.8813 217.911 19.116C217.569 19.3453 217.295 19.676 217.087 20.108C216.884 20.5347 216.783 21.0467 216.783 21.644C216.783 22.252 216.884 22.7747 217.087 23.212C217.295 23.6493 217.569 23.9853 217.911 24.22C218.257 24.4547 218.639 24.572 219.055 24.572C219.401 24.572 219.735 24.4813 220.055 24.3C220.38 24.1187 220.647 23.8547 220.855 23.508C221.063 23.156 221.167 22.732 221.167 22.236H221.647C221.647 22.9773 221.524 23.6067 221.279 24.124C221.039 24.636 220.711 25.0253 220.295 25.292C219.884 25.5587 219.423 25.692 218.911 25.692ZM221.375 25.5L221.167 23.708V14.588H222.415V25.5H221.375ZM175.996 45.5V34.588H177.244V45.5H175.996ZM183.408 45.692C182.72 45.692 182.107 45.54 181.568 45.236C181.035 44.932 180.614 44.4813 180.304 43.884C179.995 43.2867 179.84 42.5507 179.84 41.676C179.84 40.796 179.995 40.06 180.304 39.468C180.614 38.8707 181.035 38.42 181.568 38.116C182.107 37.812 182.72 37.66 183.408 37.66C184.091 37.66 184.699 37.812 185.232 38.116C185.771 38.42 186.192 38.8707 186.496 39.468C186.806 40.06 186.96 40.796 186.96 41.676C186.96 42.5507 186.806 43.2867 186.496 43.884C186.192 44.4813 185.771 44.932 185.232 45.236C184.699 45.54 184.091 45.692 183.408 45.692ZM183.376 44.604C183.872 44.604 184.294 44.4867 184.64 44.252C184.987 44.012 185.248 43.6733 185.424 43.236C185.606 42.7987 185.696 42.2787 185.696 41.676C185.696 40.764 185.507 40.0467 185.128 39.524C184.75 38.996 184.187 38.732 183.44 38.732C182.939 38.732 182.515 38.852 182.168 39.092C181.827 39.3267 181.566 39.6653 181.384 40.108C181.208 40.5453 181.12 41.068 181.12 41.676C181.12 42.5773 181.31 43.292 181.688 43.82C182.072 44.3427 182.635 44.604 183.376 44.604ZM188.222 37.852H189.646L192.046 44.428H191.87L194.27 37.852H195.694L192.638 45.5H191.278L188.222 37.852ZM200.413 45.692C199.752 45.692 199.16 45.524 198.637 45.188C198.12 44.8467 197.709 44.3747 197.405 43.772C197.107 43.1693 196.957 42.476 196.957 41.692C196.957 40.8547 197.107 40.1347 197.405 39.532C197.704 38.9293 198.112 38.468 198.629 38.148C199.152 37.8227 199.747 37.66 200.413 37.66C200.995 37.66 201.491 37.7773 201.901 38.012C202.312 38.2467 202.643 38.564 202.893 38.964C203.144 39.364 203.317 39.8173 203.413 40.324C203.515 40.8253 203.544 41.3453 203.501 41.884H197.965V41.116H202.677L202.309 41.356C202.325 41.0413 202.307 40.7267 202.253 40.412C202.205 40.0973 202.112 39.8093 201.973 39.548C201.835 39.2813 201.64 39.068 201.389 38.908C201.139 38.748 200.819 38.668 200.429 38.668C199.939 38.668 199.528 38.7933 199.197 39.044C198.867 39.2947 198.619 39.6253 198.453 40.036C198.288 40.4413 198.205 40.8813 198.205 41.356V41.868C198.205 42.4013 198.285 42.8787 198.445 43.3C198.611 43.7213 198.856 44.0547 199.181 44.3C199.507 44.5453 199.917 44.668 200.413 44.668C200.909 44.668 201.317 44.548 201.637 44.308C201.957 44.068 202.152 43.7133 202.221 43.244H203.517C203.437 43.7507 203.256 44.188 202.973 44.556C202.691 44.9187 202.331 45.1987 201.893 45.396C201.456 45.5933 200.963 45.692 200.413 45.692ZM212.445 45.692C212.029 45.692 211.656 45.612 211.325 45.452C210.994 45.292 210.733 45.052 210.541 44.732C210.349 44.412 210.253 44.012 210.253 43.532V35.724H211.485V43.5C211.485 44.2893 211.853 44.684 212.589 44.684C212.808 44.684 213.018 44.66 213.221 44.612C213.429 44.564 213.661 44.492 213.917 44.396L214.093 45.292C213.821 45.4093 213.549 45.5053 213.277 45.58C213.01 45.6547 212.733 45.692 212.445 45.692ZM209.021 38.716V37.852H213.901V38.716H209.021ZM219.037 45.692C218.349 45.692 217.735 45.54 217.197 45.236C216.663 44.932 216.242 44.4813 215.933 43.884C215.623 43.2867 215.469 42.5507 215.469 41.676C215.469 40.796 215.623 40.06 215.933 39.468C216.242 38.8707 216.663 38.42 217.197 38.116C217.735 37.812 218.349 37.66 219.037 37.66C219.719 37.66 220.327 37.812 220.861 38.116C221.399 38.42 221.821 38.8707 222.125 39.468C222.434 40.06 222.589 40.796 222.589 41.676C222.589 42.5507 222.434 43.2867 222.125 43.884C221.821 44.4813 221.399 44.932 220.861 45.236C220.327 45.54 219.719 45.692 219.037 45.692ZM219.005 44.604C219.501 44.604 219.922 44.4867 220.269 44.252C220.615 44.012 220.877 43.6733 221.053 43.236C221.234 42.7987 221.325 42.2787 221.325 41.676C221.325 40.764 221.135 40.0467 220.757 39.524C220.378 38.996 219.815 38.732 219.069 38.732C218.567 38.732 218.143 38.852 217.797 39.092C217.455 39.3267 217.194 39.6653 217.013 40.108C216.837 40.5453 216.749 41.068 216.749 41.676C216.749 42.5773 216.938 43.292 217.317 43.82C217.701 44.3427 218.263 44.604 219.005 44.604ZM225.307 42.684L225.147 35.484H226.475L226.315 42.684H225.307ZM225.811 45.644C225.539 45.644 225.315 45.5587 225.139 45.388C224.963 45.2173 224.875 45.004 224.875 44.748C224.875 44.4973 224.963 44.284 225.139 44.108C225.315 43.9267 225.539 43.836 225.811 43.836C226.077 43.836 226.301 43.9267 226.483 44.108C226.669 44.284 226.763 44.4973 226.763 44.748C226.763 45.004 226.669 45.2173 226.483 45.388C226.301 45.5587 226.077 45.644 225.811 45.644Z" fill="#333333"/>
</g>
<defs>
<filter id="filter0_d_7098_5739" x="154" y="0" width="101.768" height="68" filterUnits="userSpaceOnUse" color-interpolation-filters="sRGB">
<feFlood flood-opacity="0" result="BackgroundImageFix"/>
<feColorMatrix in="SourceAlpha" type="matrix" values="0 0 0 0 0 0 0 0 0 0 0 0 0 0 0 0 0 0 127 0" result="hardAlpha"/>
<feOffset dy="4"/>
<feGaussianBlur stdDeviation="3"/>
<feComposite in2="hardAlpha" operator="out"/>
<feColorMatrix type="matrix" values="0 0 0 0 0 0 0 0 0 0 0 0 0 0 0 0 0 0 0.1 0"/>
<feBlend mode="normal" in2="BackgroundImageFix" result="effect1_dropShadow_7098_5739"/>
<feBlend mode="normal" in="SourceGraphic" in2="effect1_dropShadow_7098_5739" result="shape"/>
</filter>
<filter id="filter1_d_7098_5739" x="169.996" y="12.5879" width="62.7666" height="43.1045" filterUnits="userSpaceOnUse" color-interpolation-filters="sRGB">
<feFlood flood-opacity="0" result="BackgroundImageFix"/>
<feColorMatrix in="SourceAlpha" type="matrix" values="0 0 0 0 0 0 0 0 0 0 0 0 0 0 0 0 0 0 127 0" result="hardAlpha"/>
<feOffset dy="4"/>
<feGaussianBlur stdDeviation="3"/>
<feComposite in2="hardAlpha" operator="out"/>
<feColorMatrix type="matrix" values="0 0 0 0 0 0 0 0 0 0 0 0 0 0 0 0 0 0 0.05 0"/>
<feBlend mode="normal" in2="BackgroundImageFix" result="effect1_dropShadow_7098_5739"/>
<feBlend mode="normal" in="SourceGraphic" in2="effect1_dropShadow_7098_5739" result="shape"/>
</filter>
</defs>
</svg>
