<svg width="260" height="68" viewBox="0 0 260 68" fill="none" xmlns="http://www.w3.org/2000/svg">
<mask id="path-1-inside-1_7075_5708" fill="white">
<path d="M252.724 27.3669L243 19L243 11C243 6.02944 238.971 2 234 2L13 1.99998C8.02941 1.99998 3.99997 6.02942 3.99997 11L3.99997 49C3.99997 53.9705 8.0294 58 13 58L234 58C238.971 58 243 53.9706 243 49L243 39.5L252.612 32.0069C254.106 30.8425 254.16 28.6022 252.724 27.3669Z"/>
</mask>
<path d="M252.724 27.3669L243 19L243 11C243 6.02944 238.971 2 234 2L13 1.99998C8.02941 1.99998 3.99997 6.02942 3.99997 11L3.99997 49C3.99997 53.9705 8.0294 58 13 58L234 58C238.971 58 243 53.9706 243 49L243 39.5L252.612 32.0069C254.106 30.8425 254.16 28.6022 252.724 27.3669Z" fill="white"/>
<path d="M243 19L241.6 19L241.6 19.6423L242.087 20.0612L243 19ZM252.724 27.3669L253.637 26.3056L253.637 26.3056L252.724 27.3669ZM252.612 32.0069L251.751 30.9028L251.751 30.9028L252.612 32.0069ZM243 39.5L242.139 38.3959L241.6 38.8162L241.6 39.5L243 39.5ZM242.087 20.0612L251.811 28.4281L253.637 26.3056L243.913 17.9388L242.087 20.0612ZM251.751 30.9028L242.139 38.3959L243.861 40.6041L253.473 33.1111L251.751 30.9028ZM251.811 28.4281C252.577 29.0869 252.548 30.2817 251.751 30.9028L253.473 33.1111C255.663 31.4032 255.743 28.1175 253.637 26.3056L251.811 28.4281ZM234 56.6L13 56.6L13 59.4L234 59.4L234 56.6ZM5.39997 49L5.39997 11L2.59997 11L2.59997 49L5.39997 49ZM13 3.39998L234 3.4L234 0.599998L13 0.599979L13 3.39998ZM241.6 39.5L241.6 49L244.4 49L244.4 39.5L241.6 39.5ZM241.6 11L241.6 19L244.4 19L244.4 11L241.6 11ZM234 3.4C238.197 3.4 241.6 6.80264 241.6 11L244.4 11C244.4 5.25624 239.744 0.599999 234 0.599998L234 3.4ZM5.39997 11C5.39997 6.80261 8.80261 3.39998 13 3.39998L13 0.599979C7.25621 0.599978 2.59997 5.25622 2.59997 11L5.39997 11ZM13 56.6C8.8026 56.6 5.39997 53.1973 5.39997 49L2.59997 49C2.59997 54.7437 7.2562 59.4 13 59.4L13 56.6ZM234 59.4C239.744 59.4 244.4 54.7438 244.4 49L241.6 49C241.6 53.1974 238.197 56.6 234 56.6L234 59.4Z" fill="white" mask="url(#path-1-inside-1_7075_5708)"/>
<g filter="url(#filter0_d_7075_5708)">
<mask id="path-3-inside-2_7075_5708" fill="white">
<path d="M252.724 27.3669L243 19L243 11C243 6.02944 238.971 2 234 2L15 1.99998C10.0294 1.99998 5.99997 6.02942 5.99997 11L5.99997 49C5.99997 53.9705 10.0294 58 15 58L234 58C238.971 58 243 53.9706 243 49L243 39.5L252.612 32.0069C254.106 30.8425 254.16 28.6022 252.724 27.3669Z"/>
</mask>
<path d="M252.724 27.3669L243 19L243 11C243 6.02944 238.971 2 234 2L15 1.99998C10.0294 1.99998 5.99997 6.02942 5.99997 11L5.99997 49C5.99997 53.9705 10.0294 58 15 58L234 58C238.971 58 243 53.9706 243 49L243 39.5L252.612 32.0069C254.106 30.8425 254.16 28.6022 252.724 27.3669Z" fill="white"/>
<path d="M243 19L241.6 19L241.6 19.6423L242.087 20.0612L243 19ZM252.724 27.3669L253.637 26.3056L253.637 26.3056L252.724 27.3669ZM252.612 32.0069L251.751 30.9028L251.751 30.9028L252.612 32.0069ZM243 39.5L242.139 38.3959L241.6 38.8162L241.6 39.5L243 39.5ZM242.087 20.0612L251.811 28.4281L253.637 26.3056L243.913 17.9388L242.087 20.0612ZM251.751 30.9028L242.139 38.3959L243.861 40.6041L253.473 33.1111L251.751 30.9028ZM251.811 28.4281C252.577 29.0869 252.548 30.2817 251.751 30.9028L253.473 33.1111C255.663 31.4032 255.743 28.1175 253.637 26.3056L251.811 28.4281ZM234 56.6L15 56.6L15 59.4L234 59.4L234 56.6ZM7.39997 49L7.39997 11L4.59997 11L4.59997 49L7.39997 49ZM15 3.39998L234 3.4L234 0.599998L15 0.599979L15 3.39998ZM241.6 39.5L241.6 49L244.4 49L244.4 39.5L241.6 39.5ZM241.6 11L241.6 19L244.4 19L244.4 11L241.6 11ZM234 3.4C238.197 3.4 241.6 6.80264 241.6 11L244.4 11C244.4 5.25624 239.744 0.599999 234 0.599998L234 3.4ZM7.39997 11C7.39997 6.80261 10.8026 3.39998 15 3.39998L15 0.599979C9.25621 0.599979 4.59997 5.25622 4.59997 11L7.39997 11ZM15 56.6C10.8026 56.6 7.39997 53.1973 7.39997 49L4.59997 49C4.59997 54.7437 9.2562 59.4 15 59.4L15 56.6ZM234 59.4C239.744 59.4 244.4 54.7438 244.4 49L241.6 49C241.6 53.1974 238.197 56.6 234 56.6L234 59.4Z" fill="#333333" mask="url(#path-3-inside-2_7075_5708)"/>
</g>
<g filter="url(#filter1_d_7075_5708)">
<path d="M40.1055 25.692C39.2735 25.692 38.5295 25.5 37.8735 25.116C37.2175 24.732 36.7002 24.156 36.3215 23.388C35.9428 22.6147 35.7535 21.6493 35.7535 20.492C35.7535 19.3187 35.9428 18.348 36.3215 17.58C36.7002 16.8067 37.2175 16.2307 37.8735 15.852C38.5295 15.468 39.2735 15.276 40.1055 15.276C40.9375 15.276 41.6815 15.468 42.3375 15.852C42.9935 16.236 43.5108 16.8147 43.8895 17.588C44.2682 18.3613 44.4575 19.3293 44.4575 20.492C44.4575 21.66 44.2682 22.6307 43.8895 23.404C43.5108 24.172 42.9935 24.7453 42.3375 25.124C41.6815 25.5027 40.9375 25.692 40.1055 25.692ZM40.1055 24.54C41.0495 24.54 41.7935 24.196 42.3375 23.508C42.8868 22.82 43.1615 21.8093 43.1615 20.476C43.1615 19.1693 42.8868 18.164 42.3375 17.46C41.7935 16.7507 41.0495 16.396 40.1055 16.396C39.1722 16.396 38.4282 16.7507 37.8735 17.46C37.3242 18.1693 37.0495 19.18 37.0495 20.492C37.0495 21.82 37.3242 22.828 37.8735 23.516C38.4282 24.1987 39.1722 24.54 40.1055 24.54ZM52.8176 15.452H54.5456L48.1296 22.06V20.3L52.8176 15.452ZM49.9376 19.692L54.8176 25.5H53.1856L49.0416 20.508L49.9376 19.692ZM47.0416 15.452H48.3056V25.5H47.0416V15.452ZM57.0484 22.684L56.8884 15.484H58.2164L58.0564 22.684H57.0484ZM57.5524 25.644C57.2804 25.644 57.0564 25.5587 56.8804 25.388C56.7044 25.2173 56.6164 25.004 56.6164 24.748C56.6164 24.4973 56.7044 24.284 56.8804 24.108C57.0564 23.9267 57.2804 23.836 57.5524 23.836C57.819 23.836 58.043 23.9267 58.2244 24.108C58.411 24.284 58.5044 24.4973 58.5044 24.748C58.5044 25.004 58.411 25.2173 58.2244 25.388C58.043 25.5587 57.819 25.644 57.5524 25.644ZM65.4587 15.452H66.9467L72.0507 23.724H71.9387V15.452H73.1867V25.5H71.7947L66.5147 16.956H66.7067V25.5H65.4587V15.452ZM79.3402 25.692C78.6522 25.692 78.0389 25.54 77.5002 25.236C76.9669 24.932 76.5456 24.4813 76.2362 23.884C75.9269 23.2867 75.7722 22.5507 75.7722 21.676C75.7722 20.796 75.9269 20.06 76.2362 19.468C76.5456 18.8707 76.9669 18.42 77.5002 18.116C78.0389 17.812 78.6522 17.66 79.3402 17.66C80.0229 17.66 80.6309 17.812 81.1642 18.116C81.7029 18.42 82.1242 18.8707 82.4282 19.468C82.7376 20.06 82.8922 20.796 82.8922 21.676C82.8922 22.5507 82.7376 23.2867 82.4282 23.884C82.1242 24.4813 81.7029 24.932 81.1642 25.236C80.6309 25.54 80.0229 25.692 79.3402 25.692ZM79.3082 24.604C79.8042 24.604 80.2256 24.4867 80.5722 24.252C80.9189 24.012 81.1802 23.6733 81.3562 23.236C81.5376 22.7987 81.6282 22.2787 81.6282 21.676C81.6282 20.764 81.4389 20.0467 81.0602 19.524C80.6816 18.996 80.1189 18.732 79.3722 18.732C78.8709 18.732 78.4469 18.852 78.1002 19.092C77.7589 19.3267 77.4976 19.6653 77.3162 20.108C77.1402 20.5453 77.0522 21.068 77.0522 21.676C77.0522 22.5773 77.2416 23.292 77.6202 23.82C78.0042 24.3427 78.5669 24.604 79.3082 24.604ZM84.1542 17.852H85.4502L87.4022 24.236H87.2422L89.1462 18.22H90.1862L92.0742 24.252H91.9302L93.8822 17.852H95.1302L92.6182 25.5H91.4022L89.5462 19.852H89.7382L87.8982 25.5H86.6822L84.1542 17.852ZM101.193 25.5V15.452H102.441V25.5H101.193ZM108.466 17.852H109.762L111.714 24.236H111.554L113.458 18.22H114.498L116.386 24.252H116.242L118.194 17.852H119.442L116.93 25.5H115.714L113.858 19.852H114.05L112.21 25.5H110.994L108.466 17.852ZM126.284 25.5L126.124 23.82V20.54C126.124 19.852 125.977 19.3587 125.684 19.06C125.391 18.756 124.951 18.604 124.364 18.604C124.033 18.604 123.732 18.652 123.46 18.748C123.193 18.844 122.98 18.9933 122.82 19.196C122.665 19.3933 122.588 19.6493 122.588 19.964H121.196C121.196 19.4093 121.332 18.964 121.604 18.628C121.876 18.2867 122.249 18.0413 122.724 17.892C123.204 17.7373 123.751 17.66 124.364 17.66C124.951 17.66 125.471 17.7587 125.924 17.956C126.377 18.1533 126.732 18.468 126.988 18.9C127.244 19.3267 127.372 19.884 127.372 20.572V25.5H126.284ZM123.676 25.692C123.047 25.692 122.527 25.58 122.116 25.356C121.705 25.132 121.399 24.8413 121.196 24.484C120.993 24.1267 120.892 23.7507 120.892 23.356C120.892 22.8387 121.02 22.4173 121.276 22.092C121.537 21.7667 121.892 21.5293 122.34 21.38C122.788 21.2253 123.292 21.148 123.852 21.148C124.252 21.148 124.652 21.188 125.052 21.268C125.457 21.348 125.852 21.4573 126.236 21.596V22.38C125.916 22.252 125.553 22.1507 125.148 22.076C124.748 22.0013 124.38 21.964 124.044 21.964C123.532 21.964 123.1 22.0707 122.748 22.284C122.396 22.492 122.22 22.8493 122.22 23.356C122.22 23.7293 122.353 24.0493 122.62 24.316C122.892 24.5827 123.324 24.716 123.916 24.716C124.332 24.716 124.705 24.62 125.036 24.428C125.372 24.2307 125.636 23.9853 125.828 23.692C126.025 23.3987 126.124 23.1053 126.124 22.812H126.428C126.428 23.324 126.316 23.7987 126.092 24.236C125.873 24.6733 125.559 25.0253 125.148 25.292C124.737 25.5587 124.247 25.692 123.676 25.692ZM135.96 25.5V21.004C135.96 20.2733 135.784 19.7187 135.432 19.34C135.086 18.956 134.611 18.764 134.008 18.764C133.55 18.764 133.152 18.8893 132.816 19.14C132.48 19.3907 132.222 19.7507 132.04 20.22C131.859 20.684 131.768 21.2387 131.768 21.884H131.288C131.288 20.9933 131.406 20.2333 131.64 19.604C131.875 18.9747 132.216 18.4947 132.664 18.164C133.118 17.828 133.667 17.66 134.312 17.66C134.915 17.66 135.43 17.796 135.856 18.068C136.288 18.3347 136.619 18.7187 136.848 19.22C137.078 19.7213 137.192 20.316 137.192 21.004V25.5H135.96ZM130.52 25.5V17.852H131.592L131.768 19.612V25.5H130.52ZM142.689 25.692C142.273 25.692 141.899 25.612 141.569 25.452C141.238 25.292 140.977 25.052 140.785 24.732C140.593 24.412 140.497 24.012 140.497 23.532V15.724H141.729V23.5C141.729 24.2893 142.097 24.684 142.833 24.684C143.051 24.684 143.262 24.66 143.465 24.612C143.673 24.564 143.905 24.492 144.161 24.396L144.337 25.292C144.065 25.4093 143.793 25.5053 143.521 25.58C143.254 25.6547 142.977 25.692 142.689 25.692ZM139.265 18.716V17.852H144.145V18.716H139.265ZM152.821 25.692C152.405 25.692 152.032 25.612 151.701 25.452C151.37 25.292 151.109 25.052 150.917 24.732C150.725 24.412 150.629 24.012 150.629 23.532V15.724H151.861V23.5C151.861 24.2893 152.229 24.684 152.965 24.684C153.184 24.684 153.394 24.66 153.597 24.612C153.805 24.564 154.037 24.492 154.293 24.396L154.469 25.292C154.197 25.4093 153.925 25.5053 153.653 25.58C153.386 25.6547 153.109 25.692 152.821 25.692ZM149.397 18.716V17.852H154.277V18.716H149.397ZM159.413 25.692C158.725 25.692 158.111 25.54 157.573 25.236C157.039 24.932 156.618 24.4813 156.309 23.884C155.999 23.2867 155.845 22.5507 155.845 21.676C155.845 20.796 155.999 20.06 156.309 19.468C156.618 18.8707 157.039 18.42 157.573 18.116C158.111 17.812 158.725 17.66 159.413 17.66C160.095 17.66 160.703 17.812 161.237 18.116C161.775 18.42 162.197 18.8707 162.501 19.468C162.81 20.06 162.965 20.796 162.965 21.676C162.965 22.5507 162.81 23.2867 162.501 23.884C162.197 24.4813 161.775 24.932 161.237 25.236C160.703 25.54 160.095 25.692 159.413 25.692ZM159.381 24.604C159.877 24.604 160.298 24.4867 160.645 24.252C160.991 24.012 161.253 23.6733 161.429 23.236C161.61 22.7987 161.701 22.2787 161.701 21.676C161.701 20.764 161.511 20.0467 161.133 19.524C160.754 18.996 160.191 18.732 159.445 18.732C158.943 18.732 158.519 18.852 158.173 19.092C157.831 19.3267 157.57 19.6653 157.389 20.108C157.213 20.5453 157.125 21.068 157.125 21.676C157.125 22.5773 157.314 23.292 157.693 23.82C158.077 24.3427 158.639 24.604 159.381 24.604ZM169.512 25.5V17.836H170.76V25.5H169.512ZM170.376 22.044C170.376 21.0733 170.469 20.268 170.656 19.628C170.842 18.9827 171.114 18.5027 171.472 18.188C171.834 17.868 172.274 17.708 172.792 17.708C172.962 17.708 173.117 17.7213 173.256 17.748C173.4 17.7693 173.544 17.804 173.688 17.852L173.608 19.084C173.458 19.036 173.296 18.996 173.12 18.964C172.944 18.9267 172.786 18.908 172.648 18.908C172.194 18.908 171.829 19.0387 171.552 19.3C171.274 19.556 171.072 19.9187 170.944 20.388C170.821 20.8573 170.76 21.4093 170.76 22.044H170.376ZM178.109 25.692C177.448 25.692 176.856 25.524 176.333 25.188C175.816 24.8467 175.405 24.3747 175.101 23.772C174.802 23.1693 174.653 22.476 174.653 21.692C174.653 20.8547 174.802 20.1347 175.101 19.532C175.4 18.9293 175.808 18.468 176.325 18.148C176.848 17.8227 177.442 17.66 178.109 17.66C178.69 17.66 179.186 17.7773 179.597 18.012C180.008 18.2467 180.338 18.564 180.589 18.964C180.84 19.364 181.013 19.8173 181.109 20.324C181.21 20.8253 181.24 21.3453 181.197 21.884H175.661V21.116H180.373L180.005 21.356C180.021 21.0413 180.002 20.7267 179.949 20.412C179.901 20.0973 179.808 19.8093 179.669 19.548C179.53 19.2813 179.336 19.068 179.085 18.908C178.834 18.748 178.514 18.668 178.125 18.668C177.634 18.668 177.224 18.7933 176.893 19.044C176.562 19.2947 176.314 19.6253 176.149 20.036C175.984 20.4413 175.901 20.8813 175.901 21.356V21.868C175.901 22.4013 175.981 22.8787 176.141 23.3C176.306 23.7213 176.552 24.0547 176.877 24.3C177.202 24.5453 177.613 24.668 178.109 24.668C178.605 24.668 179.013 24.548 179.333 24.308C179.653 24.068 179.848 23.7133 179.917 23.244H181.213C181.133 23.7507 180.952 24.188 180.669 24.556C180.386 24.9187 180.026 25.1987 179.589 25.396C179.152 25.5933 178.658 25.692 178.109 25.692ZM188.568 25.5L188.408 23.82V20.54C188.408 19.852 188.261 19.3587 187.968 19.06C187.674 18.756 187.234 18.604 186.648 18.604C186.317 18.604 186.016 18.652 185.744 18.748C185.477 18.844 185.264 18.9933 185.104 19.196C184.949 19.3933 184.872 19.6493 184.872 19.964H183.48C183.48 19.4093 183.616 18.964 183.888 18.628C184.16 18.2867 184.533 18.0413 185.008 17.892C185.488 17.7373 186.034 17.66 186.648 17.66C187.234 17.66 187.754 17.7587 188.208 17.956C188.661 18.1533 189.016 18.468 189.272 18.9C189.528 19.3267 189.656 19.884 189.656 20.572V25.5H188.568ZM185.96 25.692C185.33 25.692 184.81 25.58 184.4 25.356C183.989 25.132 183.682 24.8413 183.48 24.484C183.277 24.1267 183.176 23.7507 183.176 23.356C183.176 22.8387 183.304 22.4173 183.56 22.092C183.821 21.7667 184.176 21.5293 184.624 21.38C185.072 21.2253 185.576 21.148 186.136 21.148C186.536 21.148 186.936 21.188 187.336 21.268C187.741 21.348 188.136 21.4573 188.52 21.596V22.38C188.2 22.252 187.837 22.1507 187.432 22.076C187.032 22.0013 186.664 21.964 186.328 21.964C185.816 21.964 185.384 22.0707 185.032 22.284C184.68 22.492 184.504 22.8493 184.504 23.356C184.504 23.7293 184.637 24.0493 184.904 24.316C185.176 24.5827 185.608 24.716 186.2 24.716C186.616 24.716 186.989 24.62 187.32 24.428C187.656 24.2307 187.92 23.9853 188.112 23.692C188.309 23.3987 188.408 23.1053 188.408 22.812H188.712C188.712 23.324 188.6 23.7987 188.376 24.236C188.157 24.6733 187.842 25.0253 187.432 25.292C187.021 25.5587 186.53 25.692 185.96 25.692ZM195.54 25.692C194.921 25.692 194.353 25.5267 193.836 25.196C193.319 24.86 192.905 24.3907 192.596 23.788C192.287 23.18 192.132 22.4653 192.132 21.644C192.132 20.828 192.284 20.1213 192.588 19.524C192.892 18.9267 193.295 18.468 193.796 18.148C194.303 17.8227 194.857 17.66 195.46 17.66C196.02 17.66 196.511 17.796 196.932 18.068C197.359 18.34 197.689 18.732 197.924 19.244C198.159 19.756 198.276 20.3747 198.276 21.1H197.796C197.796 20.5933 197.695 20.1667 197.492 19.82C197.295 19.4733 197.036 19.212 196.716 19.036C196.396 18.8547 196.052 18.764 195.684 18.764C195.268 18.764 194.887 18.8813 194.54 19.116C194.199 19.3453 193.924 19.676 193.716 20.108C193.513 20.5347 193.412 21.0467 193.412 21.644C193.412 22.252 193.513 22.7747 193.716 23.212C193.924 23.6493 194.199 23.9853 194.54 24.22C194.887 24.4547 195.268 24.572 195.684 24.572C196.031 24.572 196.364 24.4813 196.684 24.3C197.009 24.1187 197.276 23.8547 197.484 23.508C197.692 23.156 197.796 22.732 197.796 22.236H198.276C198.276 22.9773 198.153 23.6067 197.908 24.124C197.668 24.636 197.34 25.0253 196.924 25.292C196.513 25.5587 196.052 25.692 195.54 25.692ZM198.004 25.5L197.796 23.708V14.588H199.044V25.5H198.004ZM208.757 25.692C208.341 25.692 207.968 25.612 207.637 25.452C207.307 25.292 207.045 25.052 206.853 24.732C206.661 24.412 206.565 24.012 206.565 23.532V15.724H207.797V23.5C207.797 24.2893 208.165 24.684 208.901 24.684C209.12 24.684 209.331 24.66 209.533 24.612C209.741 24.564 209.973 24.492 210.229 24.396L210.405 25.292C210.133 25.4093 209.861 25.5053 209.589 25.58C209.323 25.6547 209.045 25.692 208.757 25.692ZM205.333 18.716V17.852H210.213V18.716H205.333ZM218.021 25.5V21.004C218.021 20.2733 217.845 19.7187 217.493 19.34C217.146 18.956 216.672 18.764 216.069 18.764C215.61 18.764 215.213 18.8893 214.877 19.14C214.541 19.3907 214.282 19.7507 214.101 20.22C213.92 20.684 213.829 21.2387 213.829 21.884H213.349C213.349 20.9933 213.466 20.2333 213.701 19.604C213.936 18.9747 214.277 18.4947 214.725 18.164C215.178 17.828 215.728 17.66 216.373 17.66C216.976 17.66 217.49 17.796 217.917 18.068C218.349 18.3347 218.68 18.7187 218.909 19.22C219.138 19.7213 219.253 20.316 219.253 21.004V25.5H218.021ZM212.581 25.5V14.588H213.829V25.5H212.581ZM225.053 25.692C224.392 25.692 223.8 25.524 223.277 25.188C222.76 24.8467 222.349 24.3747 222.045 23.772C221.747 23.1693 221.597 22.476 221.597 21.692C221.597 20.8547 221.747 20.1347 222.045 19.532C222.344 18.9293 222.752 18.468 223.269 18.148C223.792 17.8227 224.387 17.66 225.053 17.66C225.635 17.66 226.131 17.7773 226.541 18.012C226.952 18.2467 227.283 18.564 227.533 18.964C227.784 19.364 227.957 19.8173 228.053 20.324C228.155 20.8253 228.184 21.3453 228.141 21.884H222.605V21.116H227.317L226.949 21.356C226.965 21.0413 226.947 20.7267 226.893 20.412C226.845 20.0973 226.752 19.8093 226.613 19.548C226.475 19.2813 226.28 19.068 226.029 18.908C225.779 18.748 225.459 18.668 225.069 18.668C224.579 18.668 224.168 18.7933 223.837 19.044C223.507 19.2947 223.259 19.6253 223.093 20.036C222.928 20.4413 222.845 20.8813 222.845 21.356V21.868C222.845 22.4013 222.925 22.8787 223.085 23.3C223.251 23.7213 223.496 24.0547 223.821 24.3C224.147 24.5453 224.557 24.668 225.053 24.668C225.549 24.668 225.957 24.548 226.277 24.308C226.597 24.068 226.792 23.7133 226.861 23.244H228.157C228.077 23.7507 227.896 24.188 227.613 24.556C227.331 24.9187 226.971 25.1987 226.533 25.396C226.096 25.5933 225.603 25.692 225.053 25.692ZM18.6284 45.692C18.015 45.692 17.4417 45.5267 16.9084 45.196C16.3804 44.8653 15.9537 44.3987 15.6284 43.796C15.303 43.1933 15.1404 42.4813 15.1404 41.66C15.1404 40.8173 15.303 40.0973 15.6284 39.5C15.9537 38.9027 16.3804 38.4467 16.9084 38.132C17.4417 37.8173 18.015 37.66 18.6284 37.66C19.0604 37.66 19.447 37.7267 19.7884 37.86C20.135 37.988 20.4364 38.1667 20.6924 38.396C20.9484 38.6253 21.159 38.8867 21.3244 39.18C21.495 39.468 21.6204 39.772 21.7004 40.092L20.4204 40.204C20.287 39.7613 20.063 39.412 19.7484 39.156C19.439 38.8947 19.0604 38.764 18.6124 38.764C18.2337 38.764 17.8764 38.8733 17.5404 39.092C17.2097 39.3053 16.9404 39.628 16.7324 40.06C16.5244 40.4867 16.4204 41.02 16.4204 41.66C16.4204 42.252 16.5137 42.7667 16.7004 43.204C16.8924 43.636 17.1537 43.972 17.4844 44.212C17.815 44.452 18.191 44.572 18.6124 44.572C19.2044 44.572 19.6524 44.428 19.9564 44.14C20.2657 43.8467 20.4204 43.4413 20.4204 42.924H21.7004C21.7004 43.4573 21.575 43.932 21.3244 44.348C21.0737 44.764 20.7164 45.092 20.2524 45.332C19.7937 45.572 19.2524 45.692 18.6284 45.692ZM27.1184 45.692C26.4304 45.692 25.817 45.54 25.2784 45.236C24.745 44.932 24.3237 44.4813 24.0144 43.884C23.705 43.2867 23.5504 42.5507 23.5504 41.676C23.5504 40.796 23.705 40.06 24.0144 39.468C24.3237 38.8707 24.745 38.42 25.2784 38.116C25.817 37.812 26.4304 37.66 27.1184 37.66C27.801 37.66 28.409 37.812 28.9424 38.116C29.481 38.42 29.9024 38.8707 30.2064 39.468C30.5157 40.06 30.6704 40.796 30.6704 41.676C30.6704 42.5507 30.5157 43.2867 30.2064 43.884C29.9024 44.4813 29.481 44.932 28.9424 45.236C28.409 45.54 27.801 45.692 27.1184 45.692ZM27.0864 44.604C27.5824 44.604 28.0037 44.4867 28.3504 44.252C28.697 44.012 28.9584 43.6733 29.1344 43.236C29.3157 42.7987 29.4064 42.2787 29.4064 41.676C29.4064 40.764 29.217 40.0467 28.8384 39.524C28.4597 38.996 27.897 38.732 27.1504 38.732C26.649 38.732 26.225 38.852 25.8784 39.092C25.537 39.3267 25.2757 39.6653 25.0944 40.108C24.9184 40.5453 24.8304 41.068 24.8304 41.676C24.8304 42.5773 25.0197 43.292 25.3984 43.82C25.7824 44.3427 26.345 44.604 27.0864 44.604ZM38.7004 45.5V41.004C38.7004 40.2733 38.5244 39.7187 38.1724 39.34C37.8257 38.956 37.351 38.764 36.7484 38.764C36.2897 38.764 35.8924 38.8893 35.5564 39.14C35.2204 39.3907 34.9617 39.7507 34.7804 40.22C34.599 40.684 34.5084 41.2387 34.5084 41.884H34.0284C34.0284 40.9933 34.1457 40.2333 34.3804 39.604C34.615 38.9747 34.9564 38.4947 35.4044 38.164C35.8577 37.828 36.407 37.66 37.0524 37.66C37.655 37.66 38.1697 37.796 38.5964 38.068C39.0284 38.3347 39.359 38.7187 39.5884 39.22C39.8177 39.7213 39.9324 40.316 39.9324 41.004V45.5H38.7004ZM33.2604 45.5V37.852H34.3324L34.5084 39.612V45.5H33.2604ZM45.4286 45.692C45.0126 45.692 44.6393 45.612 44.3086 45.452C43.978 45.292 43.7166 45.052 43.5246 44.732C43.3326 44.412 43.2366 44.012 43.2366 43.532V35.724H44.4686V43.5C44.4686 44.2893 44.8366 44.684 45.5726 44.684C45.7913 44.684 46.002 44.66 46.2046 44.612C46.4126 44.564 46.6446 44.492 46.9006 44.396L47.0766 45.292C46.8046 45.4093 46.5326 45.5053 46.2606 45.58C45.994 45.6547 45.7166 45.692 45.4286 45.692ZM42.0046 38.716V37.852H46.8846V38.716H42.0046ZM51.9082 45.692C51.2469 45.692 50.6549 45.524 50.1322 45.188C49.6149 44.8467 49.2042 44.3747 48.9002 43.772C48.6016 43.1693 48.4522 42.476 48.4522 41.692C48.4522 40.8547 48.6016 40.1347 48.9002 39.532C49.1989 38.9293 49.6069 38.468 50.1242 38.148C50.6469 37.8227 51.2416 37.66 51.9082 37.66C52.4896 37.66 52.9856 37.7773 53.3962 38.012C53.8069 38.2467 54.1376 38.564 54.3882 38.964C54.6389 39.364 54.8122 39.8173 54.9082 40.324C55.0096 40.8253 55.0389 41.3453 54.9962 41.884H49.4602V41.116H54.1722L53.8042 41.356C53.8202 41.0413 53.8016 40.7267 53.7482 40.412C53.7002 40.0973 53.6069 39.8093 53.4682 39.548C53.3296 39.2813 53.1349 39.068 52.8842 38.908C52.6336 38.748 52.3136 38.668 51.9242 38.668C51.4336 38.668 51.0229 38.7933 50.6922 39.044C50.3616 39.2947 50.1136 39.6253 49.9482 40.036C49.7829 40.4413 49.7002 40.8813 49.7002 41.356V41.868C49.7002 42.4013 49.7802 42.8787 49.9402 43.3C50.1056 43.7213 50.3509 44.0547 50.6762 44.3C51.0016 44.5453 51.4122 44.668 51.9082 44.668C52.4042 44.668 52.8122 44.548 53.1322 44.308C53.4522 44.068 53.6469 43.7133 53.7162 43.244H55.0122C54.9322 43.7507 54.7509 44.188 54.4682 44.556C54.1856 44.9187 53.8256 45.1987 53.3882 45.396C52.9509 45.5933 52.4576 45.692 51.9082 45.692ZM63.071 45.5V41.004C63.071 40.2733 62.895 39.7187 62.543 39.34C62.1963 38.956 61.7217 38.764 61.119 38.764C60.6603 38.764 60.263 38.8893 59.927 39.14C59.591 39.3907 59.3323 39.7507 59.151 40.22C58.9697 40.684 58.879 41.2387 58.879 41.884H58.399C58.399 40.9933 58.5163 40.2333 58.751 39.604C58.9857 38.9747 59.327 38.4947 59.775 38.164C60.2283 37.828 60.7777 37.66 61.423 37.66C62.0257 37.66 62.5403 37.796 62.967 38.068C63.399 38.3347 63.7297 38.7187 63.959 39.22C64.1883 39.7213 64.303 40.316 64.303 41.004V45.5H63.071ZM57.631 45.5V37.852H58.703L58.879 39.612V45.5H57.631ZM69.7992 45.692C69.3832 45.692 69.0099 45.612 68.6792 45.452C68.3486 45.292 68.0872 45.052 67.8952 44.732C67.7032 44.412 67.6072 44.012 67.6072 43.532V35.724H68.8392V43.5C68.8392 44.2893 69.2072 44.684 69.9432 44.684C70.1619 44.684 70.3726 44.66 70.5752 44.612C70.7832 44.564 71.0152 44.492 71.2712 44.396L71.4472 45.292C71.1752 45.4093 70.9032 45.5053 70.6312 45.58C70.3646 45.6547 70.0872 45.692 69.7992 45.692ZM66.3752 38.716V37.852H71.2552V38.716H66.3752ZM82.3157 45.5L82.1557 43.82V40.54C82.1557 39.852 82.0091 39.3587 81.7157 39.06C81.4224 38.756 80.9824 38.604 80.3957 38.604C80.0651 38.604 79.7637 38.652 79.4917 38.748C79.2251 38.844 79.0117 38.9933 78.8517 39.196C78.6971 39.3933 78.6197 39.6493 78.6197 39.964H77.2277C77.2277 39.4093 77.3637 38.964 77.6357 38.628C77.9077 38.2867 78.2811 38.0413 78.7557 37.892C79.2357 37.7373 79.7824 37.66 80.3957 37.66C80.9824 37.66 81.5024 37.7587 81.9557 37.956C82.4091 38.1533 82.7637 38.468 83.0197 38.9C83.2757 39.3267 83.4037 39.884 83.4037 40.572V45.5H82.3157ZM79.7077 45.692C79.0784 45.692 78.5584 45.58 78.1477 45.356C77.7371 45.132 77.4304 44.8413 77.2277 44.484C77.0251 44.1267 76.9237 43.7507 76.9237 43.356C76.9237 42.8387 77.0517 42.4173 77.3077 42.092C77.5691 41.7667 77.9237 41.5293 78.3717 41.38C78.8197 41.2253 79.3237 41.148 79.8837 41.148C80.2837 41.148 80.6837 41.188 81.0837 41.268C81.4891 41.348 81.8837 41.4573 82.2677 41.596V42.38C81.9477 42.252 81.5851 42.1507 81.1797 42.076C80.7797 42.0013 80.4117 41.964 80.0757 41.964C79.5637 41.964 79.1317 42.0707 78.7797 42.284C78.4277 42.492 78.2517 42.8493 78.2517 43.356C78.2517 43.7293 78.3851 44.0493 78.6517 44.316C78.9237 44.5827 79.3557 44.716 79.9477 44.716C80.3637 44.716 80.7371 44.62 81.0677 44.428C81.4037 44.2307 81.6677 43.9853 81.8597 43.692C82.0571 43.3987 82.1557 43.1053 82.1557 42.812H82.4597C82.4597 43.324 82.3477 43.7987 82.1237 44.236C81.9051 44.6733 81.5904 45.0253 81.1797 45.292C80.7691 45.5587 80.2784 45.692 79.7077 45.692ZM90.0562 45.692C89.5442 45.692 89.0802 45.5587 88.6642 45.292C88.2536 45.0253 87.9256 44.636 87.6802 44.124C87.4402 43.6067 87.3202 42.9773 87.3202 42.236H87.8002C87.8002 42.732 87.9016 43.156 88.1042 43.508C88.3122 43.8547 88.5789 44.1187 88.9042 44.3C89.2296 44.4813 89.5709 44.572 89.9282 44.572C90.3389 44.572 90.7149 44.4547 91.0562 44.22C91.3976 43.9853 91.6696 43.6493 91.8722 43.212C92.0802 42.7747 92.1842 42.252 92.1842 41.644C92.1842 41.0467 92.0829 40.5347 91.8802 40.108C91.6776 39.676 91.4029 39.3453 91.0562 39.116C90.7149 38.8813 90.3336 38.764 89.9122 38.764C89.5496 38.764 89.2056 38.8547 88.8802 39.036C88.5602 39.212 88.2989 39.4733 88.0962 39.82C87.8989 40.1667 87.8002 40.5933 87.8002 41.1H87.3202C87.3202 40.3747 87.4376 39.756 87.6722 39.244C87.9122 38.732 88.2429 38.34 88.6642 38.068C89.0856 37.796 89.5762 37.66 90.1362 37.66C90.7389 37.66 91.2909 37.8227 91.7922 38.148C92.2989 38.468 92.7042 38.9267 93.0082 39.524C93.3122 40.1213 93.4642 40.828 93.4642 41.644C93.4642 42.4653 93.3096 43.18 93.0002 43.788C92.6909 44.3907 92.2776 44.86 91.7602 45.196C91.2429 45.5267 90.6749 45.692 90.0562 45.692ZM86.5522 45.5V34.588H87.8002V43.708L87.4322 45.5H86.5522ZM98.9646 45.692C98.2766 45.692 97.6633 45.54 97.1246 45.236C96.5913 44.932 96.17 44.4813 95.8606 43.884C95.5513 43.2867 95.3966 42.5507 95.3966 41.676C95.3966 40.796 95.5513 40.06 95.8606 39.468C96.17 38.8707 96.5913 38.42 97.1246 38.116C97.6633 37.812 98.2766 37.66 98.9646 37.66C99.6473 37.66 100.255 37.812 100.789 38.116C101.327 38.42 101.749 38.8707 102.053 39.468C102.362 40.06 102.517 40.796 102.517 41.676C102.517 42.5507 102.362 43.2867 102.053 43.884C101.749 44.4813 101.327 44.932 100.789 45.236C100.255 45.54 99.6473 45.692 98.9646 45.692ZM98.9326 44.604C99.4286 44.604 99.85 44.4867 100.197 44.252C100.543 44.012 100.805 43.6733 100.981 43.236C101.162 42.7987 101.253 42.2787 101.253 41.676C101.253 40.764 101.063 40.0467 100.685 39.524C100.306 38.996 99.7433 38.732 98.9966 38.732C98.4953 38.732 98.0713 38.852 97.7246 39.092C97.3833 39.3267 97.122 39.6653 96.9406 40.108C96.7646 40.5453 96.6766 41.068 96.6766 41.676C96.6766 42.5773 96.866 43.292 97.2446 43.82C97.6286 44.3427 98.1913 44.604 98.9326 44.604ZM110.307 37.836H111.555V45.5H110.307V37.836ZM104.883 37.836H106.131V42.604C106.131 43.244 106.285 43.7293 106.595 44.06C106.909 44.3907 107.357 44.556 107.939 44.556C108.419 44.556 108.835 44.428 109.187 44.172C109.544 43.916 109.819 43.564 110.011 43.116C110.208 42.6627 110.307 42.1453 110.307 41.564H110.771C110.771 42.4227 110.645 43.156 110.395 43.764C110.149 44.372 109.8 44.8387 109.347 45.164C108.899 45.484 108.371 45.644 107.763 45.644C107.187 45.644 106.683 45.5373 106.251 45.324C105.819 45.1107 105.483 44.788 105.243 44.356C105.003 43.9187 104.883 43.3667 104.883 42.7V37.836ZM117.306 45.692C116.89 45.692 116.517 45.612 116.186 45.452C115.855 45.292 115.594 45.052 115.402 44.732C115.21 44.412 115.114 44.012 115.114 43.532V35.724H116.346V43.5C116.346 44.2893 116.714 44.684 117.45 44.684C117.669 44.684 117.879 44.66 118.082 44.612C118.29 44.564 118.522 44.492 118.778 44.396L118.954 45.292C118.682 45.4093 118.41 45.5053 118.138 45.58C117.871 45.6547 117.594 45.692 117.306 45.692ZM113.882 38.716V37.852H118.762V38.716H113.882ZM123.887 45.5L127.343 35.452H128.863L132.239 45.5H130.927L130.079 42.924H126.079L125.199 45.5H123.887ZM126.399 41.948H129.759L128.079 36.972L126.399 41.948ZM133.666 45.5V44.492L138.178 38.86H133.666V37.852H139.586V38.86L135.138 44.492H139.586V45.5H133.666ZM146.924 45.5L146.764 43.82V40.54C146.764 39.852 146.617 39.3587 146.324 39.06C146.031 38.756 145.591 38.604 145.004 38.604C144.673 38.604 144.372 38.652 144.1 38.748C143.833 38.844 143.62 38.9933 143.46 39.196C143.305 39.3933 143.228 39.6493 143.228 39.964H141.836C141.836 39.4093 141.972 38.964 142.244 38.628C142.516 38.2867 142.889 38.0413 143.364 37.892C143.844 37.7373 144.391 37.66 145.004 37.66C145.591 37.66 146.111 37.7587 146.564 37.956C147.017 38.1533 147.372 38.468 147.628 38.9C147.884 39.3267 148.012 39.884 148.012 40.572V45.5H146.924ZM144.316 45.692C143.687 45.692 143.167 45.58 142.756 45.356C142.345 45.132 142.039 44.8413 141.836 44.484C141.633 44.1267 141.532 43.7507 141.532 43.356C141.532 42.8387 141.66 42.4173 141.916 42.092C142.177 41.7667 142.532 41.5293 142.98 41.38C143.428 41.2253 143.932 41.148 144.492 41.148C144.892 41.148 145.292 41.188 145.692 41.268C146.097 41.348 146.492 41.4573 146.876 41.596V42.38C146.556 42.252 146.193 42.1507 145.788 42.076C145.388 42.0013 145.02 41.964 144.684 41.964C144.172 41.964 143.74 42.0707 143.388 42.284C143.036 42.492 142.86 42.8493 142.86 43.356C142.86 43.7293 142.993 44.0493 143.26 44.316C143.532 44.5827 143.964 44.716 144.556 44.716C144.972 44.716 145.345 44.62 145.676 44.428C146.012 44.2307 146.276 43.9853 146.468 43.692C146.665 43.3987 146.764 43.1053 146.764 42.812H147.068C147.068 43.324 146.956 43.7987 146.732 44.236C146.513 44.6733 146.199 45.0253 145.788 45.292C145.377 45.5587 144.887 45.692 144.316 45.692ZM151.16 45.5V34.588H152.408V45.5H151.16ZM158.461 45.692C157.799 45.692 157.207 45.524 156.685 45.188C156.167 44.8467 155.757 44.3747 155.453 43.772C155.154 43.1693 155.005 42.476 155.005 41.692C155.005 40.8547 155.154 40.1347 155.453 39.532C155.751 38.9293 156.159 38.468 156.677 38.148C157.199 37.8227 157.794 37.66 158.461 37.66C159.042 37.66 159.538 37.7773 159.949 38.012C160.359 38.2467 160.69 38.564 160.941 38.964C161.191 39.364 161.365 39.8173 161.461 40.324C161.562 40.8253 161.591 41.3453 161.549 41.884H156.013V41.116H160.725L160.357 41.356C160.373 41.0413 160.354 40.7267 160.301 40.412C160.253 40.0973 160.159 39.8093 160.021 39.548C159.882 39.2813 159.687 39.068 159.437 38.908C159.186 38.748 158.866 38.668 158.477 38.668C157.986 38.668 157.575 38.7933 157.245 39.044C156.914 39.2947 156.666 39.6253 156.501 40.036C156.335 40.4413 156.253 40.8813 156.253 41.356V41.868C156.253 42.4013 156.333 42.8787 156.493 43.3C156.658 43.7213 156.903 44.0547 157.229 44.3C157.554 44.5453 157.965 44.668 158.461 44.668C158.957 44.668 159.365 44.548 159.685 44.308C160.005 44.068 160.199 43.7133 160.269 43.244H161.565C161.485 43.7507 161.303 44.188 161.021 44.556C160.738 44.9187 160.378 45.1987 159.941 45.396C159.503 45.5933 159.01 45.692 158.461 45.692ZM168.919 45.5L168.759 43.82V40.54C168.759 39.852 168.613 39.3587 168.319 39.06C168.026 38.756 167.586 38.604 166.999 38.604C166.669 38.604 166.367 38.652 166.095 38.748C165.829 38.844 165.615 38.9933 165.455 39.196C165.301 39.3933 165.223 39.6493 165.223 39.964H163.831C163.831 39.4093 163.967 38.964 164.239 38.628C164.511 38.2867 164.885 38.0413 165.359 37.892C165.839 37.7373 166.386 37.66 166.999 37.66C167.586 37.66 168.106 37.7587 168.559 37.956C169.013 38.1533 169.367 38.468 169.623 38.9C169.879 39.3267 170.007 39.884 170.007 40.572V45.5H168.919ZM166.311 45.692C165.682 45.692 165.162 45.58 164.751 45.356C164.341 45.132 164.034 44.8413 163.831 44.484C163.629 44.1267 163.527 43.7507 163.527 43.356C163.527 42.8387 163.655 42.4173 163.911 42.092C164.173 41.7667 164.527 41.5293 164.975 41.38C165.423 41.2253 165.927 41.148 166.487 41.148C166.887 41.148 167.287 41.188 167.687 41.268C168.093 41.348 168.487 41.4573 168.871 41.596V42.38C168.551 42.252 168.189 42.1507 167.783 42.076C167.383 42.0013 167.015 41.964 166.679 41.964C166.167 41.964 165.735 42.0707 165.383 42.284C165.031 42.492 164.855 42.8493 164.855 43.356C164.855 43.7293 164.989 44.0493 165.255 44.316C165.527 44.5827 165.959 44.716 166.551 44.716C166.967 44.716 167.341 44.62 167.671 44.428C168.007 44.2307 168.271 43.9853 168.463 43.692C168.661 43.3987 168.759 43.1053 168.759 42.812H169.063C169.063 43.324 168.951 43.7987 168.727 44.236C168.509 44.6733 168.194 45.0253 167.783 45.292C167.373 45.5587 166.882 45.692 166.311 45.692ZM177.529 45.5V36.668C177.529 36.1613 177.625 35.748 177.817 35.428C178.014 35.1027 178.276 34.8627 178.601 34.708C178.932 34.5533 179.3 34.476 179.705 34.476C179.924 34.476 180.145 34.492 180.369 34.524C180.598 34.556 180.825 34.604 181.049 34.668L180.809 35.66C180.649 35.596 180.489 35.548 180.329 35.516C180.174 35.484 180.025 35.468 179.881 35.468C179.71 35.468 179.54 35.5 179.369 35.564C179.198 35.628 179.057 35.748 178.945 35.924C178.833 36.1 178.777 36.3533 178.777 36.684V45.5H177.529ZM176.281 38.716V37.852H180.361V38.716H176.281ZM182.593 45.5V34.588H183.841V45.5H182.593ZM189.994 45.692C189.306 45.692 188.693 45.54 188.154 45.236C187.621 44.932 187.199 44.4813 186.89 43.884C186.581 43.2867 186.426 42.5507 186.426 41.676C186.426 40.796 186.581 40.06 186.89 39.468C187.199 38.8707 187.621 38.42 188.154 38.116C188.693 37.812 189.306 37.66 189.994 37.66C190.677 37.66 191.285 37.812 191.818 38.116C192.357 38.42 192.778 38.8707 193.082 39.468C193.391 40.06 193.546 40.796 193.546 41.676C193.546 42.5507 193.391 43.2867 193.082 43.884C192.778 44.4813 192.357 44.932 191.818 45.236C191.285 45.54 190.677 45.692 189.994 45.692ZM189.962 44.604C190.458 44.604 190.879 44.4867 191.226 44.252C191.573 44.012 191.834 43.6733 192.01 43.236C192.191 42.7987 192.282 42.2787 192.282 41.676C192.282 40.764 192.093 40.0467 191.714 39.524C191.335 38.996 190.773 38.732 190.026 38.732C189.525 38.732 189.101 38.852 188.754 39.092C188.413 39.3267 188.151 39.6653 187.97 40.108C187.794 40.5453 187.706 41.068 187.706 41.676C187.706 42.5773 187.895 43.292 188.274 43.82C188.658 44.3427 189.221 44.604 189.962 44.604ZM194.808 37.852H196.104L198.056 44.236H197.896L199.8 38.22H200.84L202.728 44.252H202.584L204.536 37.852H205.784L203.272 45.5H202.056L200.2 39.852H200.392L198.552 45.5H197.336L194.808 37.852ZM210.546 45.692C209.884 45.692 209.292 45.524 208.77 45.188C208.252 44.8467 207.842 44.3747 207.538 43.772C207.239 43.1693 207.09 42.476 207.09 41.692C207.09 40.8547 207.239 40.1347 207.538 39.532C207.836 38.9293 208.244 38.468 208.762 38.148C209.284 37.8227 209.879 37.66 210.546 37.66C211.127 37.66 211.623 37.7773 212.034 38.012C212.444 38.2467 212.775 38.564 213.026 38.964C213.276 39.364 213.45 39.8173 213.546 40.324C213.647 40.8253 213.676 41.3453 213.634 41.884H208.098V41.116H212.81L212.442 41.356C212.458 41.0413 212.439 40.7267 212.386 40.412C212.338 40.0973 212.244 39.8093 212.106 39.548C211.967 39.2813 211.772 39.068 211.522 38.908C211.271 38.748 210.951 38.668 210.562 38.668C210.071 38.668 209.66 38.7933 209.33 39.044C208.999 39.2947 208.751 39.6253 208.586 40.036C208.42 40.4413 208.338 40.8813 208.338 41.356V41.868C208.338 42.4013 208.418 42.8787 208.578 43.3C208.743 43.7213 208.988 44.0547 209.314 44.3C209.639 44.5453 210.05 44.668 210.546 44.668C211.042 44.668 211.45 44.548 211.77 44.308C212.09 44.068 212.284 43.7133 212.354 43.244H213.65C213.57 43.7507 213.388 44.188 213.106 44.556C212.823 44.9187 212.463 45.1987 212.026 45.396C211.588 45.5933 211.095 45.692 210.546 45.692ZM216.268 45.5V37.836H217.516V45.5H216.268ZM217.132 42.044C217.132 41.0733 217.226 40.268 217.412 39.628C217.599 38.9827 217.871 38.5027 218.228 38.188C218.591 37.868 219.031 37.708 219.548 37.708C219.719 37.708 219.874 37.7213 220.012 37.748C220.156 37.7693 220.3 37.804 220.444 37.852L220.364 39.084C220.215 39.036 220.052 38.996 219.876 38.964C219.7 38.9267 219.543 38.908 219.404 38.908C218.951 38.908 218.586 39.0387 218.308 39.3C218.031 39.556 217.828 39.9187 217.7 40.388C217.578 40.8573 217.516 41.4093 217.516 42.044H217.132ZM224.962 45.692C224.22 45.692 223.602 45.588 223.106 45.38C222.61 45.1667 222.234 44.876 221.978 44.508C221.722 44.1347 221.586 43.708 221.57 43.228H222.77C222.796 43.7133 222.991 44.0787 223.354 44.324C223.722 44.564 224.22 44.684 224.85 44.684C225.18 44.684 225.484 44.6307 225.762 44.524C226.039 44.4173 226.26 44.2707 226.426 44.084C226.591 43.8973 226.674 43.6867 226.674 43.452C226.674 43.1533 226.564 42.9187 226.346 42.748C226.127 42.5773 225.778 42.428 225.298 42.3L223.81 41.82C223.164 41.6173 222.668 41.34 222.322 40.988C221.98 40.6307 221.81 40.204 221.81 39.708C221.81 39.0893 222.082 38.5933 222.626 38.22C223.17 37.8467 223.884 37.66 224.77 37.66C225.708 37.66 226.436 37.852 226.954 38.236C227.471 38.62 227.74 39.1 227.762 39.676H226.53C226.482 39.34 226.311 39.0867 226.018 38.916C225.724 38.74 225.308 38.652 224.77 38.652C224.252 38.652 223.847 38.7693 223.554 39.004C223.266 39.2333 223.122 39.4893 223.122 39.772C223.122 40.3 223.575 40.6893 224.482 40.94L226.002 41.452C226.658 41.6493 227.159 41.908 227.506 42.228C227.858 42.548 228.034 42.956 228.034 43.452C228.034 43.836 227.908 44.1987 227.658 44.54C227.407 44.8813 227.052 45.1587 226.594 45.372C226.135 45.5853 225.591 45.692 224.962 45.692Z" fill="#333333"/>
</g>
<defs>
<filter id="filter0_d_7075_5708" x="0" y="0" width="259.767" height="68" filterUnits="userSpaceOnUse" color-interpolation-filters="sRGB">
<feFlood flood-opacity="0" result="BackgroundImageFix"/>
<feColorMatrix in="SourceAlpha" type="matrix" values="0 0 0 0 0 0 0 0 0 0 0 0 0 0 0 0 0 0 127 0" result="hardAlpha"/>
<feOffset dy="4"/>
<feGaussianBlur stdDeviation="3"/>
<feComposite in2="hardAlpha" operator="out"/>
<feColorMatrix type="matrix" values="0 0 0 0 0 0 0 0 0 0 0 0 0 0 0 0 0 0 0.1 0"/>
<feBlend mode="normal" in2="BackgroundImageFix" result="effect1_dropShadow_7075_5708"/>
<feBlend mode="normal" in="SourceGraphic" in2="effect1_dropShadow_7075_5708" result="shape"/>
</filter>
<filter id="filter1_d_7075_5708" x="9.14038" y="12.5879" width="225.065" height="43.1045" filterUnits="userSpaceOnUse" color-interpolation-filters="sRGB">
<feFlood flood-opacity="0" result="BackgroundImageFix"/>
<feColorMatrix in="SourceAlpha" type="matrix" values="0 0 0 0 0 0 0 0 0 0 0 0 0 0 0 0 0 0 127 0" result="hardAlpha"/>
<feOffset dy="4"/>
<feGaussianBlur stdDeviation="3"/>
<feComposite in2="hardAlpha" operator="out"/>
<feColorMatrix type="matrix" values="0 0 0 0 0 0 0 0 0 0 0 0 0 0 0 0 0 0 0.05 0"/>
<feBlend mode="normal" in2="BackgroundImageFix" result="effect1_dropShadow_7075_5708"/>
<feBlend mode="normal" in="SourceGraphic" in2="effect1_dropShadow_7075_5708" result="shape"/>
</filter>
</defs>
</svg>
