<svg width="256" height="68" viewBox="0 0 256 68" fill="none" xmlns="http://www.w3.org/2000/svg">
<mask id="path-1-inside-1_7098_5725" fill="white">
<path d="M248.724 27.3669L239 19L239 11C239 6.02944 234.971 2 230 2L9.00022 1.99998C4.02965 1.99998 0.000218166 6.02942 0.000217732 11L0.00021441 49C0.000213975 53.9705 4.02965 58 9.00021 58L230 58C234.971 58 239 53.9706 239 49L239 39.5L248.612 32.0069C250.106 30.8425 250.16 28.6022 248.724 27.3669Z"/>
</mask>
<path d="M248.724 27.3669L239 19L239 11C239 6.02944 234.971 2 230 2L9.00022 1.99998C4.02965 1.99998 0.000218166 6.02942 0.000217732 11L0.00021441 49C0.000213975 53.9705 4.02965 58 9.00021 58L230 58C234.971 58 239 53.9706 239 49L239 39.5L248.612 32.0069C250.106 30.8425 250.16 28.6022 248.724 27.3669Z" fill="white"/>
<path d="M239 19L237.6 19L237.6 19.6423L238.087 20.0612L239 19ZM248.724 27.3669L249.637 26.3056L249.637 26.3056L248.724 27.3669ZM248.612 32.0069L247.751 30.9028L247.751 30.9028L248.612 32.0069ZM239 39.5L238.139 38.3959L237.6 38.8162L237.6 39.5L239 39.5ZM238.087 20.0612L247.811 28.4281L249.637 26.3056L239.913 17.9388L238.087 20.0612ZM247.751 30.9028L238.139 38.3959L239.861 40.6041L249.473 33.1111L247.751 30.9028ZM247.811 28.4281C248.577 29.0869 248.548 30.2817 247.751 30.9028L249.473 33.1111C251.664 31.4032 251.743 28.1175 249.637 26.3056L247.811 28.4281ZM230 56.6L9.00021 56.6L9.00021 59.4L230 59.4L230 56.6ZM1.40021 49L1.40021 11L-1.39978 11L-1.39978 49L1.40021 49ZM9.00022 3.39998L230 3.4L230 0.599997L9.00022 0.599977L9.00022 3.39998ZM237.6 39.5L237.6 49L240.4 49L240.4 39.5L237.6 39.5ZM237.6 11L237.6 19L240.4 19L240.4 11L237.6 11ZM230 3.4C234.198 3.4 237.6 6.80263 237.6 11L240.4 11C240.4 5.25624 235.744 0.599997 230 0.599997L230 3.4ZM1.40021 11C1.40021 6.80261 4.80285 3.39998 9.00022 3.39998L9.00022 0.599977C3.25646 0.599977 -1.39978 5.25622 -1.39978 11L1.40021 11ZM9.00021 56.6C4.80284 56.6 1.40021 53.1973 1.40021 49L-1.39978 49C-1.39978 54.7437 3.25645 59.4 9.00021 59.4L9.00021 56.6ZM230 59.4C235.744 59.4 240.4 54.7438 240.4 49L237.6 49C237.6 53.1974 234.198 56.6 230 56.6L230 59.4Z" fill="white" mask="url(#path-1-inside-1_7098_5725)"/>
<g filter="url(#filter0_d_7098_5725)">
<mask id="path-3-inside-2_7098_5725" fill="white">
<path d="M248.724 27.3669L239 19L239 11C239 6.02944 234.971 2 230 2L24.0002 1.99998C19.0297 1.99998 15.0002 6.02942 15.0002 11L15.0002 49C15.0002 53.9705 19.0296 58 24.0002 58L230 58C234.971 58 239 53.9706 239 49L239 39.5L248.612 32.0069C250.106 30.8425 250.16 28.6022 248.724 27.3669Z"/>
</mask>
<path d="M248.724 27.3669L239 19L239 11C239 6.02944 234.971 2 230 2L24.0002 1.99998C19.0297 1.99998 15.0002 6.02942 15.0002 11L15.0002 49C15.0002 53.9705 19.0296 58 24.0002 58L230 58C234.971 58 239 53.9706 239 49L239 39.5L248.612 32.0069C250.106 30.8425 250.16 28.6022 248.724 27.3669Z" fill="white"/>
<path d="M239 19L237.6 19L237.6 19.6423L238.087 20.0612L239 19ZM248.724 27.3669L249.637 26.3056L249.637 26.3056L248.724 27.3669ZM248.612 32.0069L247.751 30.9028L247.751 30.9028L248.612 32.0069ZM239 39.5L238.139 38.3959L237.6 38.8162L237.6 39.5L239 39.5ZM238.087 20.0612L247.811 28.4281L249.637 26.3056L239.913 17.9388L238.087 20.0612ZM247.751 30.9028L238.139 38.3959L239.861 40.6041L249.473 33.1111L247.751 30.9028ZM247.811 28.4281C248.577 29.0869 248.548 30.2817 247.751 30.9028L249.473 33.1111C251.664 31.4032 251.743 28.1175 249.637 26.3056L247.811 28.4281ZM230 56.6L24.0002 56.6L24.0002 59.4L230 59.4L230 56.6ZM16.4002 49L16.4002 11L13.6002 11L13.6002 49L16.4002 49ZM24.0002 3.39998L230 3.4L230 0.599997L24.0002 0.599979L24.0002 3.39998ZM237.6 39.5L237.6 49L240.4 49L240.4 39.5L237.6 39.5ZM237.6 11L237.6 19L240.4 19L240.4 11L237.6 11ZM230 3.4C234.198 3.4 237.6 6.80263 237.6 11L240.4 11C240.4 5.25624 235.744 0.599997 230 0.599997L230 3.4ZM16.4002 11C16.4002 6.80261 19.8028 3.39998 24.0002 3.39998L24.0002 0.599979C18.2565 0.599978 13.6002 5.25622 13.6002 11L16.4002 11ZM24.0002 56.6C19.8028 56.6 16.4002 53.1973 16.4002 49L13.6002 49C13.6002 54.7437 18.2565 59.4 24.0002 59.4L24.0002 56.6ZM230 59.4C235.744 59.4 240.4 54.7438 240.4 49L237.6 49C237.6 53.1974 234.198 56.6 230 56.6L230 59.4Z" fill="#333333" mask="url(#path-3-inside-2_7098_5725)"/>
</g>
<g filter="url(#filter1_d_7098_5725)">
<path d="M32.3333 15.452H33.5813V21.868C33.5813 22.812 33.8186 23.4947 34.2933 23.916C34.7679 24.332 35.3893 24.54 36.1573 24.54C36.9199 24.54 37.5359 24.332 38.0053 23.916C38.4799 23.4947 38.7173 22.812 38.7173 21.868V15.452H39.9653V21.868C39.9653 22.7107 39.8079 23.4173 39.4933 23.988C39.1839 24.5533 38.7439 24.98 38.1733 25.268C37.6026 25.5507 36.9306 25.692 36.1573 25.692C35.3839 25.692 34.7093 25.5507 34.1333 25.268C33.5626 24.98 33.1199 24.5533 32.8053 23.988C32.4906 23.4173 32.3333 22.7107 32.3333 21.868V15.452ZM48.6104 25.5V21.004C48.6104 20.2733 48.4344 19.7187 48.0824 19.34C47.7357 18.956 47.261 18.764 46.6584 18.764C46.1997 18.764 45.8024 18.8893 45.4664 19.14C45.1304 19.3907 44.8717 19.7507 44.6904 20.22C44.509 20.684 44.4184 21.2387 44.4184 21.884H43.9384C43.9384 20.9933 44.0557 20.2333 44.2904 19.604C44.525 18.9747 44.8664 18.4947 45.3144 18.164C45.7677 17.828 46.317 17.66 46.9624 17.66C47.565 17.66 48.0797 17.796 48.5064 18.068C48.9384 18.3347 49.269 18.7187 49.4984 19.22C49.7277 19.7213 49.8424 20.316 49.8424 21.004V25.5H48.6104ZM43.1704 25.5V14.588H44.4184V25.5H43.1704ZM63.7386 25.5V21.004C63.7386 20.2733 63.5626 19.7187 63.2106 19.34C62.864 18.956 62.3946 18.764 61.8026 18.764C61.1093 18.764 60.5786 19.0333 60.2106 19.572C59.8426 20.1053 59.6586 20.844 59.6586 21.788H59.0826C59.0826 21.1 59.1493 20.4973 59.2826 19.98C59.4213 19.4627 59.6213 19.0333 59.8826 18.692C60.144 18.3453 60.4613 18.0867 60.8346 17.916C61.208 17.7453 61.632 17.66 62.1066 17.66C62.7093 17.66 63.224 17.796 63.6506 18.068C64.0826 18.3347 64.4133 18.7187 64.6426 19.22C64.872 19.7213 64.9866 20.316 64.9866 21.004V25.5H63.7386ZM52.9866 25.5V17.852H54.0586L54.2026 19.388C54.4426 18.8333 54.7786 18.4067 55.2106 18.108C55.648 17.8093 56.1706 17.66 56.7786 17.66C57.3813 17.66 57.896 17.796 58.3226 18.068C58.7546 18.3347 59.0853 18.7187 59.3146 19.22C59.544 19.7213 59.6586 20.316 59.6586 21.004V25.5H58.4266V21.004C58.4266 20.2733 58.2506 19.7187 57.8986 19.34C57.552 18.956 57.0773 18.764 56.4746 18.764C56.016 18.764 55.6186 18.8893 55.2826 19.14C54.9466 19.3907 54.688 19.7507 54.5066 20.22C54.3253 20.684 54.2346 21.2387 54.2346 21.884V25.5H52.9866ZM67.9234 27.244L66.9794 26.78C67.2834 26.6253 67.5394 26.4547 67.7474 26.268C67.9607 26.0813 68.0994 25.852 68.1634 25.58C67.934 25.5533 67.7367 25.4707 67.5714 25.332C67.4114 25.1933 67.3314 25.0093 67.3314 24.78C67.3314 24.556 67.414 24.364 67.5794 24.204C67.75 24.044 67.966 23.964 68.2274 23.964C68.558 23.964 68.8247 24.084 69.0274 24.324C69.23 24.564 69.3314 24.8493 69.3314 25.18C69.3314 25.5693 69.2114 25.9507 68.9714 26.324C68.7367 26.7027 68.3874 27.0093 67.9234 27.244ZM80.312 25.5L80.152 23.82V20.54C80.152 19.852 80.0053 19.3587 79.712 19.06C79.4187 18.756 78.9787 18.604 78.392 18.604C78.0613 18.604 77.76 18.652 77.488 18.748C77.2213 18.844 77.008 18.9933 76.848 19.196C76.6933 19.3933 76.616 19.6493 76.616 19.964H75.224C75.224 19.4093 75.36 18.964 75.632 18.628C75.904 18.2867 76.2773 18.0413 76.752 17.892C77.232 17.7373 77.7787 17.66 78.392 17.66C78.9787 17.66 79.4987 17.7587 79.952 17.956C80.4053 18.1533 80.76 18.468 81.016 18.9C81.272 19.3267 81.4 19.884 81.4 20.572V25.5H80.312ZM77.704 25.692C77.0747 25.692 76.5547 25.58 76.144 25.356C75.7333 25.132 75.4267 24.8413 75.224 24.484C75.0213 24.1267 74.92 23.7507 74.92 23.356C74.92 22.8387 75.048 22.4173 75.304 22.092C75.5653 21.7667 75.92 21.5293 76.368 21.38C76.816 21.2253 77.32 21.148 77.88 21.148C78.28 21.148 78.68 21.188 79.08 21.268C79.4853 21.348 79.88 21.4573 80.264 21.596V22.38C79.944 22.252 79.5813 22.1507 79.176 22.076C78.776 22.0013 78.408 21.964 78.072 21.964C77.56 21.964 77.128 22.0707 76.776 22.284C76.424 22.492 76.248 22.8493 76.248 23.356C76.248 23.7293 76.3813 24.0493 76.648 24.316C76.92 24.5827 77.352 24.716 77.944 24.716C78.36 24.716 78.7333 24.62 79.064 24.428C79.4 24.2307 79.664 23.9853 79.856 23.692C80.0533 23.3987 80.152 23.1053 80.152 22.812H80.456C80.456 23.324 80.344 23.7987 80.12 24.236C79.9013 24.6733 79.5867 25.0253 79.176 25.292C78.7653 25.5587 78.2747 25.692 77.704 25.692ZM89.9885 25.5V21.004C89.9885 20.2733 89.8125 19.7187 89.4605 19.34C89.1138 18.956 88.6392 18.764 88.0365 18.764C87.5778 18.764 87.1805 18.8893 86.8445 19.14C86.5085 19.3907 86.2498 19.7507 86.0685 20.22C85.8872 20.684 85.7965 21.2387 85.7965 21.884H85.3165C85.3165 20.9933 85.4338 20.2333 85.6685 19.604C85.9032 18.9747 86.2445 18.4947 86.6925 18.164C87.1458 17.828 87.6952 17.66 88.3405 17.66C88.9432 17.66 89.4578 17.796 89.8845 18.068C90.3165 18.3347 90.6472 18.7187 90.8765 19.22C91.1058 19.7213 91.2205 20.316 91.2205 21.004V25.5H89.9885ZM84.5485 25.5V17.852H85.6205L85.7965 19.612V25.5H84.5485ZM97.1007 25.692C96.4821 25.692 95.9141 25.5267 95.3967 25.196C94.8794 24.86 94.4661 24.3907 94.1567 23.788C93.8474 23.18 93.6927 22.4653 93.6927 21.644C93.6927 20.828 93.8447 20.1213 94.1487 19.524C94.4527 18.9267 94.8554 18.468 95.3567 18.148C95.8634 17.8227 96.4181 17.66 97.0207 17.66C97.5807 17.66 98.0714 17.796 98.4927 18.068C98.9194 18.34 99.2501 18.732 99.4847 19.244C99.7194 19.756 99.8367 20.3747 99.8367 21.1H99.3567C99.3567 20.5933 99.2554 20.1667 99.0527 19.82C98.8554 19.4733 98.5967 19.212 98.2767 19.036C97.9567 18.8547 97.6127 18.764 97.2447 18.764C96.8287 18.764 96.4474 18.8813 96.1007 19.116C95.7594 19.3453 95.4847 19.676 95.2767 20.108C95.0741 20.5347 94.9727 21.0467 94.9727 21.644C94.9727 22.252 95.0741 22.7747 95.2767 23.212C95.4847 23.6493 95.7594 23.9853 96.1007 24.22C96.4474 24.4547 96.8287 24.572 97.2447 24.572C97.5914 24.572 97.9247 24.4813 98.2447 24.3C98.5701 24.1187 98.8367 23.8547 99.0447 23.508C99.2527 23.156 99.3567 22.732 99.3567 22.236H99.8367C99.8367 22.9773 99.7141 23.6067 99.4687 24.124C99.2287 24.636 98.9007 25.0253 98.4847 25.292C98.0741 25.5587 97.6127 25.692 97.1007 25.692ZM99.5647 25.5L99.3567 23.708V14.588H100.605V25.5H99.5647ZM106.638 17.852H107.934L109.886 24.236H109.726L111.63 18.22H112.67L114.558 24.252H114.414L116.366 17.852H117.614L115.102 25.5H113.886L112.03 19.852H112.222L110.382 25.5H109.166L106.638 17.852ZM125.16 25.5V21.004C125.16 20.2733 124.984 19.7187 124.632 19.34C124.285 18.956 123.81 18.764 123.208 18.764C122.749 18.764 122.352 18.8893 122.016 19.14C121.68 19.3907 121.421 19.7507 121.24 20.22C121.058 20.684 120.968 21.2387 120.968 21.884H120.488C120.488 20.9933 120.605 20.2333 120.84 19.604C121.074 18.9747 121.416 18.4947 121.864 18.164C122.317 17.828 122.866 17.66 123.512 17.66C124.114 17.66 124.629 17.796 125.056 18.068C125.488 18.3347 125.818 18.7187 126.048 19.22C126.277 19.7213 126.392 20.316 126.392 21.004V25.5H125.16ZM119.72 25.5V14.588H120.968V25.5H119.72ZM132.192 25.692C131.531 25.692 130.939 25.524 130.416 25.188C129.899 24.8467 129.488 24.3747 129.184 23.772C128.885 23.1693 128.736 22.476 128.736 21.692C128.736 20.8547 128.885 20.1347 129.184 19.532C129.483 18.9293 129.891 18.468 130.408 18.148C130.931 17.8227 131.525 17.66 132.192 17.66C132.773 17.66 133.269 17.7773 133.68 18.012C134.091 18.2467 134.421 18.564 134.672 18.964C134.923 19.364 135.096 19.8173 135.192 20.324C135.293 20.8253 135.323 21.3453 135.28 21.884H129.744V21.116H134.456L134.088 21.356C134.104 21.0413 134.085 20.7267 134.032 20.412C133.984 20.0973 133.891 19.8093 133.752 19.548C133.613 19.2813 133.419 19.068 133.168 18.908C132.917 18.748 132.597 18.668 132.208 18.668C131.717 18.668 131.307 18.7933 130.976 19.044C130.645 19.2947 130.397 19.6253 130.232 20.036C130.067 20.4413 129.984 20.8813 129.984 21.356V21.868C129.984 22.4013 130.064 22.8787 130.224 23.3C130.389 23.7213 130.635 24.0547 130.96 24.3C131.285 24.5453 131.696 24.668 132.192 24.668C132.688 24.668 133.096 24.548 133.416 24.308C133.736 24.068 133.931 23.7133 134 23.244H135.296C135.216 23.7507 135.035 24.188 134.752 24.556C134.469 24.9187 134.109 25.1987 133.672 25.396C133.235 25.5933 132.741 25.692 132.192 25.692ZM137.915 25.5V17.836H139.163V25.5H137.915ZM138.779 22.044C138.779 21.0733 138.872 20.268 139.059 19.628C139.245 18.9827 139.517 18.5027 139.875 18.188C140.237 17.868 140.677 17.708 141.195 17.708C141.365 17.708 141.52 17.7213 141.659 17.748C141.803 17.7693 141.947 17.804 142.091 17.852L142.011 19.084C141.861 19.036 141.699 18.996 141.523 18.964C141.347 18.9267 141.189 18.908 141.051 18.908C140.597 18.908 140.232 19.0387 139.955 19.3C139.677 19.556 139.475 19.9187 139.347 20.388C139.224 20.8573 139.163 21.4093 139.163 22.044H138.779ZM146.512 25.692C145.851 25.692 145.259 25.524 144.736 25.188C144.219 24.8467 143.808 24.3747 143.504 23.772C143.205 23.1693 143.056 22.476 143.056 21.692C143.056 20.8547 143.205 20.1347 143.504 19.532C143.803 18.9293 144.211 18.468 144.728 18.148C145.251 17.8227 145.845 17.66 146.512 17.66C147.093 17.66 147.589 17.7773 148 18.012C148.411 18.2467 148.741 18.564 148.992 18.964C149.243 19.364 149.416 19.8173 149.512 20.324C149.613 20.8253 149.643 21.3453 149.6 21.884H144.064V21.116H148.776L148.408 21.356C148.424 21.0413 148.405 20.7267 148.352 20.412C148.304 20.0973 148.211 19.8093 148.072 19.548C147.933 19.2813 147.739 19.068 147.488 18.908C147.237 18.748 146.917 18.668 146.528 18.668C146.037 18.668 145.627 18.7933 145.296 19.044C144.965 19.2947 144.717 19.6253 144.552 20.036C144.387 20.4413 144.304 20.8813 144.304 21.356V21.868C144.304 22.4013 144.384 22.8787 144.544 23.3C144.709 23.7213 144.955 24.0547 145.28 24.3C145.605 24.5453 146.016 24.668 146.512 24.668C147.008 24.668 147.416 24.548 147.736 24.308C148.056 24.068 148.251 23.7133 148.32 23.244H149.616C149.536 23.7507 149.355 24.188 149.072 24.556C148.789 24.9187 148.429 25.1987 147.992 25.396C147.555 25.5933 147.061 25.692 146.512 25.692ZM158.88 25.692C158.266 25.692 157.693 25.5267 157.16 25.196C156.632 24.8653 156.205 24.3987 155.88 23.796C155.554 23.1933 155.392 22.4813 155.392 21.66C155.392 20.8173 155.554 20.0973 155.88 19.5C156.205 18.9027 156.632 18.4467 157.16 18.132C157.693 17.8173 158.266 17.66 158.88 17.66C159.312 17.66 159.698 17.7267 160.04 17.86C160.386 17.988 160.688 18.1667 160.944 18.396C161.2 18.6253 161.41 18.8867 161.576 19.18C161.746 19.468 161.872 19.772 161.952 20.092L160.672 20.204C160.538 19.7613 160.314 19.412 160 19.156C159.69 18.8947 159.312 18.764 158.864 18.764C158.485 18.764 158.128 18.8733 157.792 19.092C157.461 19.3053 157.192 19.628 156.984 20.06C156.776 20.4867 156.672 21.02 156.672 21.66C156.672 22.252 156.765 22.7667 156.952 23.204C157.144 23.636 157.405 23.972 157.736 24.212C158.066 24.452 158.442 24.572 158.864 24.572C159.456 24.572 159.904 24.428 160.208 24.14C160.517 23.8467 160.672 23.4413 160.672 22.924H161.952C161.952 23.4573 161.826 23.932 161.576 24.348C161.325 24.764 160.968 25.092 160.504 25.332C160.045 25.572 159.504 25.692 158.88 25.692ZM169.338 25.5L169.178 23.82V20.54C169.178 19.852 169.031 19.3587 168.738 19.06C168.444 18.756 168.004 18.604 167.418 18.604C167.087 18.604 166.786 18.652 166.514 18.748C166.247 18.844 166.034 18.9933 165.874 19.196C165.719 19.3933 165.642 19.6493 165.642 19.964H164.25C164.25 19.4093 164.386 18.964 164.658 18.628C164.93 18.2867 165.303 18.0413 165.778 17.892C166.258 17.7373 166.804 17.66 167.418 17.66C168.004 17.66 168.524 17.7587 168.978 17.956C169.431 18.1533 169.786 18.468 170.042 18.9C170.298 19.3267 170.426 19.884 170.426 20.572V25.5H169.338ZM166.73 25.692C166.1 25.692 165.58 25.58 165.17 25.356C164.759 25.132 164.452 24.8413 164.25 24.484C164.047 24.1267 163.946 23.7507 163.946 23.356C163.946 22.8387 164.074 22.4173 164.33 22.092C164.591 21.7667 164.946 21.5293 165.394 21.38C165.842 21.2253 166.346 21.148 166.906 21.148C167.306 21.148 167.706 21.188 168.106 21.268C168.511 21.348 168.906 21.4573 169.29 21.596V22.38C168.97 22.252 168.607 22.1507 168.202 22.076C167.802 22.0013 167.434 21.964 167.098 21.964C166.586 21.964 166.154 22.0707 165.802 22.284C165.45 22.492 165.274 22.8493 165.274 23.356C165.274 23.7293 165.407 24.0493 165.674 24.316C165.946 24.5827 166.378 24.716 166.97 24.716C167.386 24.716 167.759 24.62 168.09 24.428C168.426 24.2307 168.69 23.9853 168.882 23.692C169.079 23.3987 169.178 23.1053 169.178 22.812H169.482C169.482 23.324 169.37 23.7987 169.146 24.236C168.927 24.6733 168.612 25.0253 168.202 25.292C167.791 25.5587 167.3 25.692 166.73 25.692ZM179.014 25.5V21.004C179.014 20.2733 178.838 19.7187 178.486 19.34C178.139 18.956 177.665 18.764 177.062 18.764C176.603 18.764 176.206 18.8893 175.87 19.14C175.534 19.3907 175.275 19.7507 175.094 20.22C174.913 20.684 174.822 21.2387 174.822 21.884H174.342C174.342 20.9933 174.459 20.2333 174.694 19.604C174.929 18.9747 175.27 18.4947 175.718 18.164C176.171 17.828 176.721 17.66 177.366 17.66C177.969 17.66 178.483 17.796 178.91 18.068C179.342 18.3347 179.673 18.7187 179.902 19.22C180.131 19.7213 180.246 20.316 180.246 21.004V25.5H179.014ZM173.574 25.5V17.852H174.646L174.822 19.612V25.5H173.574ZM187.347 25.5V15.452H188.595V25.5H187.347ZM196.365 25.5V16.668C196.365 16.1613 196.461 15.748 196.653 15.428C196.85 15.1027 197.111 14.8627 197.437 14.708C197.767 14.5533 198.135 14.476 198.541 14.476C198.759 14.476 198.981 14.492 199.205 14.524C199.434 14.556 199.661 14.604 199.885 14.668L199.645 15.66C199.485 15.596 199.325 15.548 199.165 15.516C199.01 15.484 198.861 15.468 198.717 15.468C198.546 15.468 198.375 15.5 198.205 15.564C198.034 15.628 197.893 15.748 197.781 15.924C197.669 16.1 197.613 16.3533 197.613 16.684V25.5H196.365ZM195.117 18.716V17.852H199.197V18.716H195.117ZM202.133 16.044C201.877 16.044 201.674 15.972 201.525 15.828C201.375 15.6787 201.301 15.484 201.301 15.244C201.301 15.0093 201.375 14.8227 201.525 14.684C201.674 14.5453 201.877 14.476 202.133 14.476C202.389 14.476 202.591 14.5453 202.741 14.684C202.89 14.8227 202.965 15.0093 202.965 15.244C202.965 15.484 202.89 15.6787 202.741 15.828C202.591 15.972 202.389 16.044 202.133 16.044ZM201.509 25.5V17.836H202.757V25.5H201.509ZM211.799 25.5V21.004C211.799 20.2733 211.623 19.7187 211.271 19.34C210.924 18.956 210.449 18.764 209.847 18.764C209.388 18.764 208.991 18.8893 208.655 19.14C208.319 19.3907 208.06 19.7507 207.879 20.22C207.697 20.684 207.607 21.2387 207.607 21.884H207.127C207.127 20.9933 207.244 20.2333 207.479 19.604C207.713 18.9747 208.055 18.4947 208.503 18.164C208.956 17.828 209.505 17.66 210.151 17.66C210.753 17.66 211.268 17.796 211.695 18.068C212.127 18.3347 212.457 18.7187 212.687 19.22C212.916 19.7213 213.031 20.316 213.031 21.004V25.5H211.799ZM206.359 25.5V17.852H207.431L207.607 19.612V25.5H206.359ZM218.911 25.692C218.292 25.692 217.724 25.5267 217.207 25.196C216.689 24.86 216.276 24.3907 215.967 23.788C215.657 23.18 215.503 22.4653 215.503 21.644C215.503 20.828 215.655 20.1213 215.959 19.524C216.263 18.9267 216.665 18.468 217.167 18.148C217.673 17.8227 218.228 17.66 218.831 17.66C219.391 17.66 219.881 17.796 220.303 18.068C220.729 18.34 221.06 18.732 221.295 19.244C221.529 19.756 221.647 20.3747 221.647 21.1H221.167C221.167 20.5933 221.065 20.1667 220.863 19.82C220.665 19.4733 220.407 19.212 220.087 19.036C219.767 18.8547 219.423 18.764 219.055 18.764C218.639 18.764 218.257 18.8813 217.911 19.116C217.569 19.3453 217.295 19.676 217.087 20.108C216.884 20.5347 216.783 21.0467 216.783 21.644C216.783 22.252 216.884 22.7747 217.087 23.212C217.295 23.6493 217.569 23.9853 217.911 24.22C218.257 24.4547 218.639 24.572 219.055 24.572C219.401 24.572 219.735 24.4813 220.055 24.3C220.38 24.1187 220.647 23.8547 220.855 23.508C221.063 23.156 221.167 22.732 221.167 22.236H221.647C221.647 22.9773 221.524 23.6067 221.279 24.124C221.039 24.636 220.711 25.0253 220.295 25.292C219.884 25.5587 219.423 25.692 218.911 25.692ZM221.375 25.5L221.167 23.708V14.588H222.415V25.5H221.375ZM30.3974 45.5V35.116H34.5894C35.3894 35.116 36.0534 35.2413 36.5814 35.492C37.1094 35.7373 37.504 36.068 37.7654 36.484C38.0267 36.9 38.1574 37.3613 38.1574 37.868C38.1574 38.4547 37.992 38.956 37.6614 39.372C37.336 39.788 36.8774 40.0813 36.2854 40.252C36.6747 40.332 37.024 40.4787 37.3334 40.692C37.6427 40.9053 37.8854 41.1747 38.0614 41.5C38.2427 41.8253 38.3334 42.1987 38.3334 42.62C38.3334 42.9507 38.2747 43.284 38.1574 43.62C38.0454 43.956 37.848 44.268 37.5654 44.556C37.288 44.8387 36.9067 45.068 36.4214 45.244C35.9414 45.4147 35.336 45.5 34.6054 45.5H30.3974ZM32.2854 43.852H34.5574C35.16 43.852 35.6 43.732 35.8774 43.492C36.16 43.2467 36.3014 42.9187 36.3014 42.508C36.3014 42.0973 36.1574 41.7693 35.8694 41.524C35.5814 41.2733 35.144 41.148 34.5574 41.148H32.2854V43.852ZM32.2854 36.748V39.5H34.5094C35.0694 39.5 35.4934 39.3773 35.7814 39.132C36.0747 38.8813 36.2214 38.54 36.2214 38.108C36.2214 37.6973 36.0774 37.3693 35.7894 37.124C35.5067 36.8733 35.0854 36.748 34.5254 36.748H32.2854ZM42.8204 35.116V43.852H47.0924V45.5H40.9324V35.116H42.8204ZM48.8386 35.116H50.7266V41.58C50.7266 42.4333 50.9426 43.0493 51.3746 43.428C51.812 43.8067 52.3693 43.996 53.0466 43.996C53.7293 43.996 54.2866 43.8067 54.7186 43.428C55.1506 43.0493 55.3666 42.4333 55.3666 41.58V35.116H57.2546V41.58C57.2546 42.4547 57.0866 43.2013 56.7506 43.82C56.4146 44.4387 55.932 44.9107 55.3026 45.236C54.6786 45.5613 53.9266 45.724 53.0466 45.724C52.1666 45.724 51.412 45.5613 50.7826 45.236C50.1586 44.9107 49.6786 44.4387 49.3426 43.82C49.0066 43.2013 48.8386 42.4547 48.8386 41.58V35.116ZM60.1895 45.5V35.116H66.8615V36.748H62.0775V39.484H66.5735V41.116H62.0775V43.852H66.8615V45.5H60.1895ZM69.7561 45.5V35.116H73.9481C74.7481 35.116 75.4121 35.2413 75.9401 35.492C76.4681 35.7373 76.8628 36.068 77.1241 36.484C77.3855 36.9 77.5161 37.3613 77.5161 37.868C77.5161 38.4547 77.3508 38.956 77.0201 39.372C76.6948 39.788 76.2361 40.0813 75.6441 40.252C76.0335 40.332 76.3828 40.4787 76.6921 40.692C77.0015 40.9053 77.2441 41.1747 77.4201 41.5C77.6015 41.8253 77.6921 42.1987 77.6921 42.62C77.6921 42.9507 77.6335 43.284 77.5161 43.62C77.4041 43.956 77.2068 44.268 76.9241 44.556C76.6468 44.8387 76.2655 45.068 75.7801 45.244C75.3001 45.4147 74.6948 45.5 73.9641 45.5H69.7561ZM71.6441 43.852H73.9161C74.5188 43.852 74.9588 43.732 75.2361 43.492C75.5188 43.2467 75.6601 42.9187 75.6601 42.508C75.6601 42.0973 75.5161 41.7693 75.2281 41.524C74.9401 41.2733 74.5028 41.148 73.9161 41.148H71.6441V43.852ZM71.6441 36.748V39.5H73.8681C74.4281 39.5 74.8521 39.3773 75.1401 39.132C75.4335 38.8813 75.5801 38.54 75.5801 38.108C75.5801 37.6973 75.4361 37.3693 75.1481 37.124C74.8655 36.8733 74.4441 36.748 73.8841 36.748H71.6441ZM80.2751 45.5V35.116H86.9471V36.748H82.1631V39.484H86.6591V41.116H82.1631V43.852H86.9471V45.5H80.2751ZM89.8418 45.5V35.116H93.6818C94.9244 35.116 95.8764 35.4067 96.5378 35.988C97.2044 36.5693 97.5378 37.34 97.5378 38.3C97.5378 39.244 97.2044 40.0067 96.5378 40.588C95.8764 41.164 94.9244 41.452 93.6818 41.452H91.7298V45.5H89.8418ZM95.4578 45.5L92.7058 40.636H94.7218L97.9218 45.5H95.4578ZM91.7298 40.188H93.4898C94.1831 40.188 94.7084 40.0307 95.0658 39.716C95.4231 39.396 95.6018 38.9827 95.6018 38.476C95.6018 37.9587 95.4391 37.5427 95.1138 37.228C94.7884 36.908 94.3111 36.748 93.6818 36.748H91.7298V40.188ZM100.299 45.5V35.116H104.139C105.381 35.116 106.333 35.4067 106.995 35.988C107.661 36.5693 107.995 37.34 107.995 38.3C107.995 39.244 107.661 40.0067 106.995 40.588C106.333 41.164 105.381 41.452 104.139 41.452H102.187V45.5H100.299ZM105.915 45.5L103.163 40.636H105.179L108.379 45.5H105.915ZM102.187 40.188H103.947C104.64 40.188 105.165 40.0307 105.523 39.716C105.88 39.396 106.059 38.9827 106.059 38.476C106.059 37.9587 105.896 37.5427 105.571 37.228C105.245 36.908 104.768 36.748 104.139 36.748H102.187V40.188ZM110.756 45.5V35.116H112.644V45.5H110.756ZM115.775 45.5V35.116H122.447V36.748H117.663V39.484H122.159V41.116H117.663V43.852H122.447V45.5H115.775ZM128.957 45.724C128.237 45.724 127.573 45.5987 126.965 45.348C126.362 45.0973 125.872 44.716 125.493 44.204C125.12 43.692 124.92 43.0413 124.893 42.252H126.749C126.749 42.652 126.848 42.98 127.045 43.236C127.242 43.492 127.506 43.684 127.837 43.812C128.173 43.9347 128.541 43.996 128.941 43.996C129.325 43.996 129.666 43.9453 129.965 43.844C130.269 43.7427 130.506 43.5987 130.677 43.412C130.853 43.22 130.941 42.9933 130.941 42.732C130.941 42.3853 130.834 42.1133 130.621 41.916C130.413 41.7187 130.077 41.5373 129.613 41.372L127.565 40.556C126.765 40.2413 126.152 39.876 125.725 39.46C125.298 39.044 125.085 38.4707 125.085 37.74C125.085 36.8973 125.418 36.2147 126.085 35.692C126.752 35.1693 127.682 34.908 128.877 34.908C130.04 34.908 130.938 35.18 131.573 35.724C132.208 36.2627 132.568 37.0147 132.653 37.98H130.797C130.728 37.5693 130.541 37.2413 130.237 36.996C129.933 36.7453 129.48 36.62 128.877 36.62C128.344 36.62 127.922 36.732 127.613 36.956C127.304 37.1747 127.149 37.452 127.149 37.788C127.149 38.076 127.245 38.3053 127.437 38.476C127.634 38.6413 127.938 38.8013 128.349 38.956L130.621 39.836C131.389 40.1347 131.978 40.5107 132.389 40.964C132.8 41.4173 133.005 41.9853 133.005 42.668C133.005 43.292 132.848 43.8333 132.533 44.292C132.218 44.7453 131.76 45.0973 131.157 45.348C130.554 45.5987 129.821 45.724 128.957 45.724ZM139.863 45.5V35.116H143.527C144.695 35.116 145.604 35.404 146.255 35.98C146.911 36.556 147.239 37.372 147.239 38.428C147.239 39.4733 146.911 40.284 146.255 40.86C145.604 41.436 144.695 41.724 143.527 41.724H141.767V45.5H139.863ZM141.767 40.076H143.527C144.114 40.076 144.556 39.9213 144.855 39.612C145.154 39.3027 145.303 38.908 145.303 38.428C145.303 37.9373 145.154 37.5347 144.855 37.22C144.556 36.9053 144.114 36.748 143.527 36.748H141.767V40.076ZM147.56 45.5L151.096 35.116H153.464L156.856 45.5H154.872L154.152 43.26H150.296L149.56 45.5H147.56ZM150.776 41.836H153.704L152.248 37.372L150.776 41.836ZM158.84 35.116H160.904L165.624 42.524H165.48V35.116H167.368V45.5H165.448L160.424 37.644H160.728V45.5H158.84V35.116ZM174.276 45.724C173.364 45.724 172.57 45.508 171.892 45.076C171.22 44.6387 170.698 44.0147 170.324 43.204C169.951 42.3933 169.764 41.42 169.764 40.284C169.764 39.1107 169.956 38.1267 170.34 37.332C170.73 36.532 171.263 35.9293 171.94 35.524C172.623 35.1133 173.402 34.908 174.276 34.908C175.487 34.908 176.431 35.2013 177.108 35.788C177.791 36.3747 178.228 37.1373 178.42 38.076L176.404 38.444C176.239 37.9 175.975 37.46 175.612 37.124C175.25 36.788 174.804 36.62 174.276 36.62C173.812 36.62 173.394 36.756 173.02 37.028C172.647 37.2947 172.348 37.7 172.124 38.244C171.906 38.788 171.796 39.468 171.796 40.284C171.796 41.052 171.892 41.7133 172.084 42.268C172.282 42.8227 172.564 43.2493 172.932 43.548C173.3 43.8467 173.748 43.996 174.276 43.996C174.954 43.996 175.476 43.8173 175.844 43.46C176.218 43.0973 176.404 42.636 176.404 42.076H178.42C178.42 42.8493 178.252 43.508 177.916 44.052C177.586 44.5907 177.111 45.004 176.492 45.292C175.874 45.58 175.135 45.724 174.276 45.724ZM179.665 45.5L183.201 35.116H185.569L188.961 45.5H186.977L186.257 43.26H182.401L181.665 45.5H179.665ZM182.881 41.836H185.809L184.353 37.372L182.881 41.836ZM196.977 35.116H199.569L192.721 42.124V39.548L196.977 35.116ZM194.673 39.404L199.857 45.5H197.425L193.361 40.636L194.673 39.404ZM190.977 35.116H192.881V45.5H190.977V35.116ZM201.59 45.5V35.116H208.262V36.748H203.478V39.484H207.974V41.116H203.478V43.852H208.262V45.5H201.59ZM214.772 45.724C214.052 45.724 213.388 45.5987 212.78 45.348C212.177 45.0973 211.687 44.716 211.308 44.204C210.935 43.692 210.735 43.0413 210.708 42.252H212.564C212.564 42.652 212.663 42.98 212.86 43.236C213.057 43.492 213.321 43.684 213.652 43.812C213.988 43.9347 214.356 43.996 214.756 43.996C215.14 43.996 215.481 43.9453 215.78 43.844C216.084 43.7427 216.321 43.5987 216.492 43.412C216.668 43.22 216.756 42.9933 216.756 42.732C216.756 42.3853 216.649 42.1133 216.436 41.916C216.228 41.7187 215.892 41.5373 215.428 41.372L213.38 40.556C212.58 40.2413 211.967 39.876 211.54 39.46C211.113 39.044 210.9 38.4707 210.9 37.74C210.9 36.8973 211.233 36.2147 211.9 35.692C212.567 35.1693 213.497 34.908 214.692 34.908C215.855 34.908 216.753 35.18 217.388 35.724C218.023 36.2627 218.383 37.0147 218.468 37.98H216.612C216.543 37.5693 216.356 37.2413 216.052 36.996C215.748 36.7453 215.295 36.62 214.692 36.62C214.159 36.62 213.737 36.732 213.428 36.956C213.119 37.1747 212.964 37.452 212.964 37.788C212.964 38.076 213.06 38.3053 213.252 38.476C213.449 38.6413 213.753 38.8013 214.164 38.956L216.436 39.836C217.204 40.1347 217.793 40.5107 218.204 40.964C218.615 41.4173 218.82 41.9853 218.82 42.668C218.82 43.292 218.663 43.8333 218.348 44.292C218.033 44.7453 217.575 45.0973 216.972 45.348C216.369 45.5987 215.636 45.724 214.772 45.724ZM222.863 42.94V42.22C222.863 41.756 222.911 41.3747 223.007 41.076C223.109 40.7773 223.274 40.5187 223.503 40.3C223.733 40.0813 224.047 39.8627 224.447 39.644C224.805 39.452 225.09 39.2733 225.303 39.108C225.517 38.9427 225.669 38.764 225.759 38.572C225.855 38.38 225.903 38.1453 225.903 37.868C225.903 37.452 225.733 37.1053 225.391 36.828C225.055 36.5507 224.591 36.412 223.999 36.412C223.343 36.412 222.842 36.5427 222.495 36.804C222.149 37.06 221.93 37.42 221.839 37.884H220.511C220.586 37.1053 220.911 36.476 221.487 35.996C222.069 35.516 222.895 35.276 223.967 35.276C224.65 35.276 225.237 35.396 225.727 35.636C226.223 35.8707 226.602 36.188 226.863 36.588C227.13 36.9827 227.263 37.42 227.263 37.9C227.263 38.4493 227.125 38.9107 226.847 39.284C226.57 39.652 226.122 40.0013 225.503 40.332C225.146 40.5293 224.863 40.7133 224.655 40.884C224.453 41.0493 224.309 41.2413 224.223 41.46C224.138 41.6733 224.095 41.9533 224.095 42.3V42.94H222.863ZM223.503 45.692C223.237 45.692 223.015 45.6067 222.839 45.436C222.663 45.26 222.575 45.0493 222.575 44.804C222.575 44.5533 222.661 44.3373 222.831 44.156C223.007 43.9747 223.229 43.884 223.495 43.884C223.762 43.884 223.989 43.9747 224.175 44.156C224.367 44.332 224.463 44.5453 224.463 44.796C224.463 45.0413 224.37 45.252 224.183 45.428C223.997 45.604 223.77 45.692 223.503 45.692Z" fill="#333333"/>
</g>
<defs>
<filter id="filter0_d_7098_5725" x="9" y="0" width="246.768" height="68" filterUnits="userSpaceOnUse" color-interpolation-filters="sRGB">
<feFlood flood-opacity="0" result="BackgroundImageFix"/>
<feColorMatrix in="SourceAlpha" type="matrix" values="0 0 0 0 0 0 0 0 0 0 0 0 0 0 0 0 0 0 127 0" result="hardAlpha"/>
<feOffset dy="4"/>
<feGaussianBlur stdDeviation="3"/>
<feComposite in2="hardAlpha" operator="out"/>
<feColorMatrix type="matrix" values="0 0 0 0 0 0 0 0 0 0 0 0 0 0 0 0 0 0 0.1 0"/>
<feBlend mode="normal" in2="BackgroundImageFix" result="effect1_dropShadow_7098_5725"/>
<feBlend mode="normal" in="SourceGraphic" in2="effect1_dropShadow_7098_5725" result="shape"/>
</filter>
<filter id="filter1_d_7098_5725" x="24.3975" y="12.4756" width="208.866" height="43.248" filterUnits="userSpaceOnUse" color-interpolation-filters="sRGB">
<feFlood flood-opacity="0" result="BackgroundImageFix"/>
<feColorMatrix in="SourceAlpha" type="matrix" values="0 0 0 0 0 0 0 0 0 0 0 0 0 0 0 0 0 0 127 0" result="hardAlpha"/>
<feOffset dy="4"/>
<feGaussianBlur stdDeviation="3"/>
<feComposite in2="hardAlpha" operator="out"/>
<feColorMatrix type="matrix" values="0 0 0 0 0 0 0 0 0 0 0 0 0 0 0 0 0 0 0.05 0"/>
<feBlend mode="normal" in2="BackgroundImageFix" result="effect1_dropShadow_7098_5725"/>
<feBlend mode="normal" in="SourceGraphic" in2="effect1_dropShadow_7098_5725" result="shape"/>
</filter>
</defs>
</svg>
