<svg width="263" height="88" viewBox="0 0 263 88" fill="none" xmlns="http://www.w3.org/2000/svg">
<g filter="url(#filter0_d_7049_5831)">
<mask id="path-1-inside-1_7049_5831" fill="white">
<path d="M7.04333 42.6331L16.7674 51V69C16.7674 73.9706 20.7968 78 25.7674 78L247.035 78C252.005 78 256.035 73.9706 256.035 69V11C256.035 6.02944 252.005 2 247.035 2L25.7674 2C20.7968 2 16.7674 6.02944 16.7674 11L16.7674 30.5L7.15555 37.9931C5.66179 39.1575 5.60761 41.3978 7.04333 42.6331Z"/>
</mask>
<path d="M7.04333 42.6331L16.7674 51V69C16.7674 73.9706 20.7968 78 25.7674 78L247.035 78C252.005 78 256.035 73.9706 256.035 69V11C256.035 6.02944 252.005 2 247.035 2L25.7674 2C20.7968 2 16.7674 6.02944 16.7674 11L16.7674 30.5L7.15555 37.9931C5.66179 39.1575 5.60761 41.3978 7.04333 42.6331Z" fill="#F1F3FF"/>
<path d="M16.7674 51H18.1674V50.3577L17.6805 49.9388L16.7674 51ZM7.04333 42.6331L6.13021 43.6944H6.13021L7.04333 42.6331ZM7.15555 37.9931L6.2948 36.8889H6.2948L7.15555 37.9931ZM16.7674 30.5L17.6281 31.6041L18.1674 31.1838V30.5H16.7674ZM25.7674 2V0.6V2ZM247.035 2V3.4V2ZM17.6805 49.9388L7.95644 41.5719L6.13021 43.6944L15.8542 52.0612L17.6805 49.9388ZM8.0163 39.0972L17.6281 31.6041L15.9066 29.3959L6.2948 36.8889L8.0163 39.0972ZM7.95644 41.5719C7.19073 40.9131 7.21963 39.7183 8.0163 39.0972L6.2948 36.8889C4.10396 38.5968 4.02449 41.8825 6.13021 43.6944L7.95644 41.5719ZM25.7674 3.4L247.035 3.4V0.600003L25.7674 0.6V3.4ZM254.635 11V69H257.435V11H254.635ZM247.035 76.6L25.7674 76.6V79.4L247.035 79.4V76.6ZM18.1674 30.5L18.1674 11H15.3674L15.3674 30.5H18.1674ZM18.1674 69V51H15.3674L15.3674 69H18.1674ZM25.7674 76.6C21.57 76.6 18.1674 73.1974 18.1674 69H15.3674C15.3674 74.7438 20.0236 79.4 25.7674 79.4V76.6ZM254.635 69C254.635 73.1974 251.232 76.6 247.035 76.6V79.4C252.778 79.4 257.435 74.7438 257.435 69H254.635ZM247.035 3.4C251.232 3.4 254.635 6.80264 254.635 11H257.435C257.435 5.25624 252.778 0.600003 247.035 0.600003V3.4ZM25.7674 0.6C20.0236 0.6 15.3674 5.25624 15.3674 11H18.1674C18.1674 6.80264 21.57 3.4 25.7674 3.4V0.6Z" fill="#4A5DC8" mask="url(#path-1-inside-1_7049_5831)"/>
</g>
<g filter="url(#filter1_d_7049_5831)">
<path d="M31.224 14.952H32.632L35.24 23.896H34.872L37.544 15.992H38.392L41.032 23.832H40.68L43.672 14.952H45.064L41.512 25H40.2L37.88 18.184H38.12L35.72 25H34.408L31.224 14.952ZM49.3253 25.192C48.6373 25.192 48.0239 25.04 47.4852 24.736C46.9519 24.432 46.5306 23.9813 46.2212 23.384C45.9119 22.7867 45.7572 22.0507 45.7572 21.176C45.7572 20.296 45.9119 19.56 46.2212 18.968C46.5306 18.3707 46.9519 17.92 47.4852 17.616C48.0239 17.312 48.6373 17.16 49.3253 17.16C50.0079 17.16 50.6159 17.312 51.1493 17.616C51.6879 17.92 52.1093 18.3707 52.4132 18.968C52.7226 19.56 52.8773 20.296 52.8773 21.176C52.8773 22.0507 52.7226 22.7867 52.4132 23.384C52.1093 23.9813 51.6879 24.432 51.1493 24.736C50.6159 25.04 50.0079 25.192 49.3253 25.192ZM49.2933 24.104C49.7893 24.104 50.2106 23.9867 50.5573 23.752C50.9039 23.512 51.1652 23.1733 51.3412 22.736C51.5226 22.2987 51.6133 21.7787 51.6133 21.176C51.6133 20.264 51.4239 19.5467 51.0452 19.024C50.6666 18.496 50.1039 18.232 49.3573 18.232C48.8559 18.232 48.4319 18.352 48.0852 18.592C47.7439 18.8267 47.4826 19.1653 47.3012 19.608C47.1253 20.0453 47.0373 20.568 47.0373 21.176C47.0373 22.0773 47.2266 22.792 47.6052 23.32C47.9893 23.8427 48.5519 24.104 49.2933 24.104ZM60.6673 17.336H61.9152V25H60.6673V17.336ZM55.2432 17.336H56.4912V22.104C56.4912 22.744 56.6459 23.2293 56.9552 23.56C57.2699 23.8907 57.7179 24.056 58.2993 24.056C58.7792 24.056 59.1952 23.928 59.5472 23.672C59.9046 23.416 60.1793 23.064 60.3713 22.616C60.5686 22.1627 60.6673 21.6453 60.6673 21.064H61.1312C61.1312 21.9227 61.0059 22.656 60.7552 23.264C60.5099 23.872 60.1606 24.3387 59.7073 24.664C59.2592 24.984 58.7312 25.144 58.1233 25.144C57.5472 25.144 57.0432 25.0373 56.6112 24.824C56.1792 24.6107 55.8432 24.288 55.6032 23.856C55.3632 23.4187 55.2432 22.8667 55.2432 22.2V17.336ZM65.3147 25V14.088H66.5627V25H65.3147ZM72.6951 25.192C72.0765 25.192 71.5085 25.0267 70.9911 24.696C70.4738 24.36 70.0605 23.8907 69.7511 23.288C69.4418 22.68 69.2871 21.9653 69.2871 21.144C69.2871 20.328 69.4391 19.6213 69.7431 19.024C70.0471 18.4267 70.4498 17.968 70.9511 17.648C71.4578 17.3227 72.0125 17.16 72.6151 17.16C73.1751 17.16 73.6658 17.296 74.0871 17.568C74.5138 17.84 74.8445 18.232 75.0791 18.744C75.3138 19.256 75.4311 19.8747 75.4311 20.6H74.9511C74.9511 20.0933 74.8498 19.6667 74.6471 19.32C74.4498 18.9733 74.1911 18.712 73.8711 18.536C73.5511 18.3547 73.2071 18.264 72.8391 18.264C72.4231 18.264 72.0418 18.3813 71.6951 18.616C71.3538 18.8453 71.0791 19.176 70.8711 19.608C70.6685 20.0347 70.5671 20.5467 70.5671 21.144C70.5671 21.752 70.6685 22.2747 70.8711 22.712C71.0791 23.1493 71.3538 23.4853 71.6951 23.72C72.0418 23.9547 72.4231 24.072 72.8391 24.072C73.1858 24.072 73.5191 23.9813 73.8391 23.8C74.1645 23.6187 74.4311 23.3547 74.6391 23.008C74.8471 22.656 74.9511 22.232 74.9511 21.736H75.4311C75.4311 22.4773 75.3085 23.1067 75.0631 23.624C74.8231 24.136 74.4951 24.5253 74.0791 24.792C73.6685 25.0587 73.2071 25.192 72.6951 25.192ZM75.1591 25L74.9511 23.208V14.088H76.1991V25H75.1591ZM82.2964 17.352H83.6884L86.1844 23.912H85.8964L87.8324 17.352H89.1124L86.2324 26.536C85.9924 27.304 85.6724 27.896 85.2724 28.312C84.8724 28.728 84.3604 28.936 83.7364 28.936C83.4004 28.936 83.0804 28.888 82.7764 28.792C82.4777 28.696 82.1684 28.5573 81.8484 28.376V27.224C82.131 27.448 82.403 27.608 82.6644 27.704C82.931 27.8 83.2084 27.848 83.4964 27.848C83.8164 27.848 84.083 27.7467 84.2964 27.544C84.515 27.3413 84.6964 27.08 84.8404 26.76C84.9844 26.4453 85.107 26.1147 85.2084 25.768L85.4324 25L82.2964 17.352ZM93.9415 25.192C93.2535 25.192 92.6402 25.04 92.1015 24.736C91.5682 24.432 91.1468 23.9813 90.8375 23.384C90.5282 22.7867 90.3735 22.0507 90.3735 21.176C90.3735 20.296 90.5282 19.56 90.8375 18.968C91.1468 18.3707 91.5682 17.92 92.1015 17.616C92.6402 17.312 93.2535 17.16 93.9415 17.16C94.6242 17.16 95.2322 17.312 95.7655 17.616C96.3042 17.92 96.7255 18.3707 97.0295 18.968C97.3388 19.56 97.4935 20.296 97.4935 21.176C97.4935 22.0507 97.3388 22.7867 97.0295 23.384C96.7255 23.9813 96.3042 24.432 95.7655 24.736C95.2322 25.04 94.6242 25.192 93.9415 25.192ZM93.9095 24.104C94.4055 24.104 94.8268 23.9867 95.1735 23.752C95.5202 23.512 95.7815 23.1733 95.9575 22.736C96.1388 22.2987 96.2295 21.7787 96.2295 21.176C96.2295 20.264 96.0402 19.5467 95.6615 19.024C95.2828 18.496 94.7202 18.232 93.9735 18.232C93.4722 18.232 93.0482 18.352 92.7015 18.592C92.3602 18.8267 92.0988 19.1653 91.9175 19.608C91.7415 20.0453 91.6535 20.568 91.6535 21.176C91.6535 22.0773 91.8428 22.792 92.2215 23.32C92.6055 23.8427 93.1682 24.104 93.9095 24.104ZM105.283 17.336H106.531V25H105.283V17.336ZM99.8595 17.336H101.107V22.104C101.107 22.744 101.262 23.2293 101.571 23.56C101.886 23.8907 102.334 24.056 102.915 24.056C103.395 24.056 103.811 23.928 104.163 23.672C104.521 23.416 104.795 23.064 104.987 22.616C105.185 22.1627 105.283 21.6453 105.283 21.064H105.747C105.747 21.9227 105.622 22.656 105.371 23.264C105.126 23.872 104.777 24.3387 104.323 24.664C103.875 24.984 103.347 25.144 102.739 25.144C102.163 25.144 101.659 25.0373 101.227 24.824C100.795 24.6107 100.459 24.288 100.219 23.856C99.9795 23.4187 99.8595 22.8667 99.8595 22.2V17.336ZM113.888 25V14.088H115.136V25H113.888ZM119.236 15.544C118.98 15.544 118.778 15.472 118.628 15.328C118.479 15.1787 118.404 14.984 118.404 14.744C118.404 14.5093 118.479 14.3227 118.628 14.184C118.778 14.0453 118.98 13.976 119.236 13.976C119.492 13.976 119.695 14.0453 119.844 14.184C119.994 14.3227 120.068 14.5093 120.068 14.744C120.068 14.984 119.994 15.1787 119.844 15.328C119.695 15.472 119.492 15.544 119.236 15.544ZM118.612 25V17.336H119.86V25H118.612ZM123.458 25V14.088H124.706V25H123.458ZM124.514 20.616L128.418 17.352H130.162L124.514 21.944V20.616ZM128.802 25L125.17 20.168L126.434 19.944L130.338 25H128.802ZM135.29 25.192C134.628 25.192 134.036 25.024 133.514 24.688C132.996 24.3467 132.586 23.8747 132.282 23.272C131.983 22.6693 131.834 21.976 131.834 21.192C131.834 20.3547 131.983 19.6347 132.282 19.032C132.58 18.4293 132.988 17.968 133.506 17.648C134.028 17.3227 134.623 17.16 135.29 17.16C135.871 17.16 136.367 17.2773 136.778 17.512C137.188 17.7467 137.519 18.064 137.77 18.464C138.02 18.864 138.194 19.3173 138.29 19.824C138.391 20.3253 138.42 20.8453 138.378 21.384H132.842V20.616H137.554L137.186 20.856C137.202 20.5413 137.183 20.2267 137.13 19.912C137.082 19.5973 136.988 19.3093 136.85 19.048C136.711 18.7813 136.516 18.568 136.266 18.408C136.015 18.248 135.695 18.168 135.306 18.168C134.815 18.168 134.404 18.2933 134.074 18.544C133.743 18.7947 133.495 19.1253 133.33 19.536C133.164 19.9413 133.082 20.3813 133.082 20.856V21.368C133.082 21.9013 133.162 22.3787 133.322 22.8C133.487 23.2213 133.732 23.5547 134.058 23.8C134.383 24.0453 134.794 24.168 135.29 24.168C135.786 24.168 136.194 24.048 136.514 23.808C136.834 23.568 137.028 23.2133 137.098 22.744H138.394C138.314 23.2507 138.132 23.688 137.85 24.056C137.567 24.4187 137.207 24.6987 136.77 24.896C136.332 25.0933 135.839 25.192 135.29 25.192ZM147.321 25.192C146.905 25.192 146.532 25.112 146.201 24.952C145.87 24.792 145.609 24.552 145.417 24.232C145.225 23.912 145.129 23.512 145.129 23.032V15.224H146.361V23C146.361 23.7893 146.729 24.184 147.465 24.184C147.684 24.184 147.894 24.16 148.097 24.112C148.305 24.064 148.537 23.992 148.793 23.896L148.969 24.792C148.697 24.9093 148.425 25.0053 148.153 25.08C147.886 25.1547 147.609 25.192 147.321 25.192ZM143.897 18.216V17.352H148.777V18.216H143.897ZM153.913 25.192C153.225 25.192 152.611 25.04 152.073 24.736C151.539 24.432 151.118 23.9813 150.809 23.384C150.499 22.7867 150.345 22.0507 150.345 21.176C150.345 20.296 150.499 19.56 150.809 18.968C151.118 18.3707 151.539 17.92 152.073 17.616C152.611 17.312 153.225 17.16 153.913 17.16C154.595 17.16 155.203 17.312 155.737 17.616C156.275 17.92 156.697 18.3707 157.001 18.968C157.31 19.56 157.465 20.296 157.465 21.176C157.465 22.0507 157.31 22.7867 157.001 23.384C156.697 23.9813 156.275 24.432 155.737 24.736C155.203 25.04 154.595 25.192 153.913 25.192ZM153.881 24.104C154.377 24.104 154.798 23.9867 155.145 23.752C155.491 23.512 155.753 23.1733 155.929 22.736C156.11 22.2987 156.201 21.7787 156.201 21.176C156.201 20.264 156.011 19.5467 155.633 19.024C155.254 18.496 154.691 18.232 153.945 18.232C153.443 18.232 153.019 18.352 152.673 18.592C152.331 18.8267 152.07 19.1653 151.889 19.608C151.713 20.0453 151.625 20.568 151.625 21.176C151.625 22.0773 151.814 22.792 152.193 23.32C152.577 23.8427 153.139 24.104 153.881 24.104ZM164.012 25V14.088H165.26V25H164.012ZM165.068 20.616L168.972 17.352H170.716L165.068 21.944V20.616ZM169.356 25L165.724 20.168L166.988 19.944L170.892 25H169.356ZM178.627 25V20.504C178.627 19.7733 178.451 19.2187 178.099 18.84C177.753 18.456 177.278 18.264 176.675 18.264C176.217 18.264 175.819 18.3893 175.483 18.64C175.147 18.8907 174.889 19.2507 174.707 19.72C174.526 20.184 174.435 20.7387 174.435 21.384H173.955C173.955 20.4933 174.073 19.7333 174.307 19.104C174.542 18.4747 174.883 17.9947 175.331 17.664C175.785 17.328 176.334 17.16 176.979 17.16C177.582 17.16 178.097 17.296 178.523 17.568C178.955 17.8347 179.286 18.2187 179.515 18.72C179.745 19.2213 179.859 19.816 179.859 20.504V25H178.627ZM173.187 25V17.352H174.259L174.435 19.112V25H173.187ZM185.771 25.192C185.083 25.192 184.47 25.04 183.931 24.736C183.398 24.432 182.977 23.9813 182.667 23.384C182.358 22.7867 182.203 22.0507 182.203 21.176C182.203 20.296 182.358 19.56 182.667 18.968C182.977 18.3707 183.398 17.92 183.931 17.616C184.47 17.312 185.083 17.16 185.771 17.16C186.454 17.16 187.062 17.312 187.595 17.616C188.134 17.92 188.555 18.3707 188.859 18.968C189.169 19.56 189.323 20.296 189.323 21.176C189.323 22.0507 189.169 22.7867 188.859 23.384C188.555 23.9813 188.134 24.432 187.595 24.736C187.062 25.04 186.454 25.192 185.771 25.192ZM185.739 24.104C186.235 24.104 186.657 23.9867 187.003 23.752C187.35 23.512 187.611 23.1733 187.787 22.736C187.969 22.2987 188.059 21.7787 188.059 21.176C188.059 20.264 187.87 19.5467 187.491 19.024C187.113 18.496 186.55 18.232 185.803 18.232C185.302 18.232 184.878 18.352 184.531 18.592C184.19 18.8267 183.929 19.1653 183.747 19.608C183.571 20.0453 183.483 20.568 183.483 21.176C183.483 22.0773 183.673 22.792 184.051 23.32C184.435 23.8427 184.998 24.104 185.739 24.104ZM190.586 17.352H191.882L193.834 23.736H193.674L195.578 17.72H196.618L198.506 23.752H198.362L200.314 17.352H201.562L199.05 25H197.834L195.978 19.352H196.17L194.33 25H193.114L190.586 17.352ZM218.376 25V20.504C218.376 19.7733 218.2 19.2187 217.848 18.84C217.501 18.456 217.032 18.264 216.44 18.264C215.747 18.264 215.216 18.5333 214.848 19.072C214.48 19.6053 214.296 20.344 214.296 21.288H213.72C213.72 20.6 213.787 19.9973 213.92 19.48C214.059 18.9627 214.259 18.5333 214.52 18.192C214.781 17.8453 215.099 17.5867 215.472 17.416C215.845 17.2453 216.269 17.16 216.744 17.16C217.347 17.16 217.861 17.296 218.288 17.568C218.72 17.8347 219.051 18.2187 219.28 18.72C219.509 19.2213 219.624 19.816 219.624 20.504V25H218.376ZM207.624 25V17.352H208.696L208.84 18.888C209.08 18.3333 209.416 17.9067 209.848 17.608C210.285 17.3093 210.808 17.16 211.416 17.16C212.019 17.16 212.533 17.296 212.96 17.568C213.392 17.8347 213.723 18.2187 213.952 18.72C214.181 19.2213 214.296 19.816 214.296 20.504V25H213.064V20.504C213.064 19.7733 212.888 19.2187 212.536 18.84C212.189 18.456 211.715 18.264 211.112 18.264C210.653 18.264 210.256 18.3893 209.92 18.64C209.584 18.8907 209.325 19.2507 209.144 19.72C208.963 20.184 208.872 20.7387 208.872 21.384V25H207.624ZM225.521 25.192C224.833 25.192 224.22 25.04 223.681 24.736C223.148 24.432 222.726 23.9813 222.417 23.384C222.108 22.7867 221.953 22.0507 221.953 21.176C221.953 20.296 222.108 19.56 222.417 18.968C222.726 18.3707 223.148 17.92 223.681 17.616C224.22 17.312 224.833 17.16 225.521 17.16C226.204 17.16 226.812 17.312 227.345 17.616C227.884 17.92 228.305 18.3707 228.609 18.968C228.918 19.56 229.073 20.296 229.073 21.176C229.073 22.0507 228.918 22.7867 228.609 23.384C228.305 23.9813 227.884 24.432 227.345 24.736C226.812 25.04 226.204 25.192 225.521 25.192ZM225.489 24.104C225.985 24.104 226.406 23.9867 226.753 23.752C227.1 23.512 227.361 23.1733 227.537 22.736C227.718 22.2987 227.809 21.7787 227.809 21.176C227.809 20.264 227.62 19.5467 227.241 19.024C226.862 18.496 226.3 18.232 225.553 18.232C225.052 18.232 224.628 18.352 224.281 18.592C223.94 18.8267 223.678 19.1653 223.497 19.608C223.321 20.0453 223.233 20.568 223.233 21.176C223.233 22.0773 223.422 22.792 223.801 23.32C224.185 23.8427 224.748 24.104 225.489 24.104ZM231.663 25V17.336H232.911V25H231.663ZM232.527 21.544C232.527 20.5733 232.62 19.768 232.807 19.128C232.994 18.4827 233.266 18.0027 233.623 17.688C233.986 17.368 234.426 17.208 234.943 17.208C235.114 17.208 235.268 17.2213 235.407 17.248C235.551 17.2693 235.695 17.304 235.839 17.352L235.759 18.584C235.61 18.536 235.447 18.496 235.271 18.464C235.095 18.4267 234.938 18.408 234.799 18.408C234.346 18.408 233.98 18.5387 233.703 18.8C233.426 19.056 233.223 19.4187 233.095 19.888C232.972 20.3573 232.911 20.9093 232.911 21.544H232.527ZM240.26 25.192C239.599 25.192 239.007 25.024 238.484 24.688C237.967 24.3467 237.556 23.8747 237.252 23.272C236.953 22.6693 236.804 21.976 236.804 21.192C236.804 20.3547 236.953 19.6347 237.252 19.032C237.551 18.4293 237.959 17.968 238.476 17.648C238.999 17.3227 239.593 17.16 240.26 17.16C240.841 17.16 241.337 17.2773 241.748 17.512C242.159 17.7467 242.489 18.064 242.74 18.464C242.991 18.864 243.164 19.3173 243.26 19.824C243.361 20.3253 243.391 20.8453 243.348 21.384H237.812V20.616H242.524L242.156 20.856C242.172 20.5413 242.153 20.2267 242.1 19.912C242.052 19.5973 241.959 19.3093 241.82 19.048C241.681 18.7813 241.487 18.568 241.236 18.408C240.985 18.248 240.665 18.168 240.276 18.168C239.785 18.168 239.375 18.2933 239.044 18.544C238.713 18.7947 238.465 19.1253 238.3 19.536C238.135 19.9413 238.052 20.3813 238.052 20.856V21.368C238.052 21.9013 238.132 22.3787 238.292 22.8C238.457 23.2213 238.703 23.5547 239.028 23.8C239.353 24.0453 239.764 24.168 240.26 24.168C240.756 24.168 241.164 24.048 241.484 23.808C241.804 23.568 241.999 23.2133 242.068 22.744H243.364C243.284 23.2507 243.103 23.688 242.82 24.056C242.537 24.4187 242.177 24.6987 241.74 24.896C241.303 25.0933 240.809 25.192 240.26 25.192ZM34.968 45.192C34.552 45.192 34.1787 45.112 33.848 44.952C33.5173 44.792 33.256 44.552 33.064 44.232C32.872 43.912 32.776 43.512 32.776 43.032V35.224H34.008V43C34.008 43.7893 34.376 44.184 35.112 44.184C35.3307 44.184 35.5413 44.16 35.744 44.112C35.952 44.064 36.184 43.992 36.44 43.896L36.616 44.792C36.344 44.9093 36.072 45.0053 35.8 45.08C35.5333 45.1547 35.256 45.192 34.968 45.192ZM31.544 38.216V37.352H36.424V38.216H31.544ZM41.5596 45.192C40.8716 45.192 40.2583 45.04 39.7196 44.736C39.1863 44.432 38.765 43.9813 38.4556 43.384C38.1463 42.7867 37.9916 42.0507 37.9916 41.176C37.9916 40.296 38.1463 39.56 38.4556 38.968C38.765 38.3707 39.1863 37.92 39.7196 37.616C40.2583 37.312 40.8716 37.16 41.5596 37.16C42.2423 37.16 42.8503 37.312 43.3836 37.616C43.9223 37.92 44.3436 38.3707 44.6476 38.968C44.957 39.56 45.1116 40.296 45.1116 41.176C45.1116 42.0507 44.957 42.7867 44.6476 43.384C44.3436 43.9813 43.9223 44.432 43.3836 44.736C42.8503 45.04 42.2423 45.192 41.5596 45.192ZM41.5276 44.104C42.0236 44.104 42.445 43.9867 42.7916 43.752C43.1383 43.512 43.3996 43.1733 43.5756 42.736C43.757 42.2987 43.8476 41.7787 43.8476 41.176C43.8476 40.264 43.6583 39.5467 43.2796 39.024C42.901 38.496 42.3383 38.232 41.5916 38.232C41.0903 38.232 40.6663 38.352 40.3196 38.592C39.9783 38.8267 39.717 39.1653 39.5356 39.608C39.3596 40.0453 39.2716 40.568 39.2716 41.176C39.2716 42.0773 39.461 42.792 39.8396 43.32C40.2236 43.8427 40.7863 44.104 41.5276 44.104ZM51.1736 45.192C50.6136 45.192 50.1256 45.064 49.7096 44.808C49.299 44.552 48.9816 44.1787 48.7576 43.688C48.5336 43.192 48.4216 42.5893 48.4216 41.88H48.9496C48.9496 42.3547 49.0483 42.7547 49.2456 43.08C49.443 43.4053 49.699 43.6533 50.0136 43.824C50.3336 43.9893 50.6723 44.072 51.0296 44.072C51.4136 44.072 51.7816 43.9627 52.1336 43.744C52.4856 43.52 52.7736 43.192 52.9976 42.76C53.2216 42.328 53.3336 41.7947 53.3336 41.16C53.3336 40.552 53.2296 40.032 53.0216 39.6C52.819 39.168 52.5443 38.8373 52.1976 38.608C51.851 38.3787 51.467 38.264 51.0456 38.264C50.683 38.264 50.3416 38.352 50.0216 38.528C49.7016 38.704 49.443 38.9627 49.2456 39.304C49.0483 39.64 48.9496 40.056 48.9496 40.552H48.4216C48.4216 39.8107 48.5443 39.1893 48.7896 38.688C49.035 38.1813 49.3683 37.8 49.7896 37.544C50.211 37.288 50.683 37.16 51.2056 37.16C51.803 37.16 52.3603 37.32 52.8776 37.64C53.395 37.96 53.8136 38.4187 54.1336 39.016C54.4536 39.6133 54.6136 40.328 54.6136 41.16C54.6136 42.0027 54.451 42.7253 54.1256 43.328C53.8056 43.9307 53.3843 44.392 52.8616 44.712C52.339 45.032 51.7763 45.192 51.1736 45.192ZM47.7016 48.76V37.352H48.7416L48.9496 39.144V48.76H47.7016ZM57.925 35.544C57.669 35.544 57.4663 35.472 57.317 35.328C57.1677 35.1787 57.093 34.984 57.093 34.744C57.093 34.5093 57.1677 34.3227 57.317 34.184C57.4663 34.0453 57.669 33.976 57.925 33.976C58.181 33.976 58.3837 34.0453 58.533 34.184C58.6823 34.3227 58.757 34.5093 58.757 34.744C58.757 34.984 58.6823 35.1787 58.533 35.328C58.3837 35.472 58.181 35.544 57.925 35.544ZM57.301 45V37.336H58.549V45H57.301ZM64.8346 45.192C64.2213 45.192 63.648 45.0267 63.1146 44.696C62.5866 44.3653 62.16 43.8987 61.8346 43.296C61.5093 42.6933 61.3466 41.9813 61.3466 41.16C61.3466 40.3173 61.5093 39.5973 61.8346 39C62.16 38.4027 62.5866 37.9467 63.1146 37.632C63.648 37.3173 64.2213 37.16 64.8346 37.16C65.2666 37.16 65.6533 37.2267 65.9946 37.36C66.3413 37.488 66.6426 37.6667 66.8986 37.896C67.1546 38.1253 67.3653 38.3867 67.5306 38.68C67.7013 38.968 67.8266 39.272 67.9066 39.592L66.6266 39.704C66.4933 39.2613 66.2693 38.912 65.9546 38.656C65.6453 38.3947 65.2666 38.264 64.8186 38.264C64.44 38.264 64.0826 38.3733 63.7466 38.592C63.416 38.8053 63.1466 39.128 62.9386 39.56C62.7306 39.9867 62.6266 40.52 62.6266 41.16C62.6266 41.752 62.72 42.2667 62.9066 42.704C63.0986 43.136 63.36 43.472 63.6906 43.712C64.0213 43.952 64.3973 44.072 64.8186 44.072C65.4106 44.072 65.8586 43.928 66.1626 43.64C66.472 43.3467 66.6266 42.9413 66.6266 42.424H67.9066C67.9066 42.9573 67.7813 43.432 67.5306 43.848C67.28 44.264 66.9226 44.592 66.4586 44.832C66 45.072 65.4586 45.192 64.8346 45.192ZM73.3086 45.192C72.5673 45.192 71.9486 45.088 71.4526 44.88C70.9566 44.6667 70.5806 44.376 70.3246 44.008C70.0686 43.6347 69.9326 43.208 69.9166 42.728H71.1166C71.1433 43.2133 71.338 43.5787 71.7006 43.824C72.0686 44.064 72.5673 44.184 73.1966 44.184C73.5273 44.184 73.8313 44.1307 74.1086 44.024C74.386 43.9173 74.6073 43.7707 74.7726 43.584C74.938 43.3973 75.0206 43.1867 75.0206 42.952C75.0206 42.6533 74.9113 42.4187 74.6926 42.248C74.474 42.0773 74.1246 41.928 73.6446 41.8L72.1566 41.32C71.5113 41.1173 71.0153 40.84 70.6686 40.488C70.3273 40.1307 70.1566 39.704 70.1566 39.208C70.1566 38.5893 70.4286 38.0933 70.9726 37.72C71.5166 37.3467 72.2313 37.16 73.1166 37.16C74.0553 37.16 74.7833 37.352 75.3006 37.736C75.818 38.12 76.0873 38.6 76.1086 39.176H74.8766C74.8286 38.84 74.658 38.5867 74.3646 38.416C74.0713 38.24 73.6553 38.152 73.1166 38.152C72.5993 38.152 72.194 38.2693 71.9006 38.504C71.6126 38.7333 71.4686 38.9893 71.4686 39.272C71.4686 39.8 71.922 40.1893 72.8286 40.44L74.3486 40.952C75.0046 41.1493 75.506 41.408 75.8526 41.728C76.2046 42.048 76.3806 42.456 76.3806 42.952C76.3806 43.336 76.2553 43.6987 76.0046 44.04C75.754 44.3813 75.3993 44.6587 74.9406 44.872C74.482 45.0853 73.938 45.192 73.3086 45.192ZM85.8477 45.192C85.1597 45.192 84.5464 45.04 84.0077 44.736C83.4744 44.432 83.0531 43.9813 82.7437 43.384C82.4344 42.7867 82.2797 42.0507 82.2797 41.176C82.2797 40.296 82.4344 39.56 82.7437 38.968C83.0531 38.3707 83.4744 37.92 84.0077 37.616C84.5464 37.312 85.1597 37.16 85.8477 37.16C86.5304 37.16 87.1384 37.312 87.6717 37.616C88.2104 37.92 88.6317 38.3707 88.9357 38.968C89.2451 39.56 89.3997 40.296 89.3997 41.176C89.3997 42.0507 89.2451 42.7867 88.9357 43.384C88.6317 43.9813 88.2104 44.432 87.6717 44.736C87.1384 45.04 86.5304 45.192 85.8477 45.192ZM85.8157 44.104C86.3117 44.104 86.7331 43.9867 87.0797 43.752C87.4264 43.512 87.6877 43.1733 87.8637 42.736C88.0451 42.2987 88.1357 41.7787 88.1357 41.176C88.1357 40.264 87.9464 39.5467 87.5677 39.024C87.1891 38.496 86.6264 38.232 85.8797 38.232C85.3784 38.232 84.9544 38.352 84.6077 38.592C84.2664 38.8267 84.0051 39.1653 83.8237 39.608C83.6477 40.0453 83.5597 40.568 83.5597 41.176C83.5597 42.0773 83.7491 42.792 84.1277 43.32C84.5117 43.8427 85.0744 44.104 85.8157 44.104ZM91.9897 45V37.336H93.2377V45H91.9897ZM92.8537 41.544C92.8537 40.5733 92.9471 39.768 93.1337 39.128C93.3204 38.4827 93.5924 38.0027 93.9497 37.688C94.3124 37.368 94.7524 37.208 95.2697 37.208C95.4404 37.208 95.5951 37.2213 95.7337 37.248C95.8777 37.2693 96.0217 37.304 96.1657 37.352L96.0857 38.584C95.9364 38.536 95.7737 38.496 95.5977 38.464C95.4217 38.4267 95.2644 38.408 95.1257 38.408C94.6724 38.408 94.3071 38.5387 94.0297 38.8C93.7524 39.056 93.5497 39.4187 93.4217 39.888C93.2991 40.3573 93.2377 40.9093 93.2377 41.544H92.8537ZM105.392 45.192C104.88 45.192 104.416 45.0587 104 44.792C103.589 44.5253 103.261 44.136 103.016 43.624C102.776 43.1067 102.656 42.4773 102.656 41.736H103.136C103.136 42.232 103.237 42.656 103.44 43.008C103.648 43.3547 103.915 43.6187 104.24 43.8C104.565 43.9813 104.907 44.072 105.264 44.072C105.675 44.072 106.051 43.9547 106.392 43.72C106.733 43.4853 107.005 43.1493 107.208 42.712C107.416 42.2747 107.52 41.752 107.52 41.144C107.52 40.5467 107.419 40.0347 107.216 39.608C107.013 39.176 106.739 38.8453 106.392 38.616C106.051 38.3813 105.669 38.264 105.248 38.264C104.885 38.264 104.541 38.3547 104.216 38.536C103.896 38.712 103.635 38.9733 103.432 39.32C103.235 39.6667 103.136 40.0933 103.136 40.6H102.656C102.656 39.8747 102.773 39.256 103.008 38.744C103.248 38.232 103.579 37.84 104 37.568C104.421 37.296 104.912 37.16 105.472 37.16C106.075 37.16 106.627 37.3227 107.128 37.648C107.635 37.968 108.04 38.4267 108.344 39.024C108.648 39.6213 108.8 40.328 108.8 41.144C108.8 41.9653 108.645 42.68 108.336 43.288C108.027 43.8907 107.613 44.36 107.096 44.696C106.579 45.0267 106.011 45.192 105.392 45.192ZM101.888 45V34.088H103.136V43.208L102.768 45H101.888ZM111.532 45V37.336H112.78V45H111.532ZM112.396 41.544C112.396 40.5733 112.49 39.768 112.676 39.128C112.863 38.4827 113.135 38.0027 113.492 37.688C113.855 37.368 114.295 37.208 114.812 37.208C114.983 37.208 115.138 37.2213 115.276 37.248C115.42 37.2693 115.564 37.304 115.708 37.352L115.628 38.584C115.479 38.536 115.316 38.496 115.14 38.464C114.964 38.4267 114.807 38.408 114.668 38.408C114.215 38.408 113.85 38.5387 113.572 38.8C113.295 39.056 113.092 39.4187 112.964 39.888C112.842 40.3573 112.78 40.9093 112.78 41.544H112.396ZM120.241 45.192C119.553 45.192 118.94 45.04 118.401 44.736C117.868 44.432 117.447 43.9813 117.137 43.384C116.828 42.7867 116.673 42.0507 116.673 41.176C116.673 40.296 116.828 39.56 117.137 38.968C117.447 38.3707 117.868 37.92 118.401 37.616C118.94 37.312 119.553 37.16 120.241 37.16C120.924 37.16 121.532 37.312 122.065 37.616C122.604 37.92 123.025 38.3707 123.329 38.968C123.639 39.56 123.793 40.296 123.793 41.176C123.793 42.0507 123.639 42.7867 123.329 43.384C123.025 43.9813 122.604 44.432 122.065 44.736C121.532 45.04 120.924 45.192 120.241 45.192ZM120.209 44.104C120.705 44.104 121.127 43.9867 121.473 43.752C121.82 43.512 122.081 43.1733 122.257 42.736C122.439 42.2987 122.529 41.7787 122.529 41.176C122.529 40.264 122.34 39.5467 121.961 39.024C121.583 38.496 121.02 38.232 120.273 38.232C119.772 38.232 119.348 38.352 119.001 38.592C118.66 38.8267 118.399 39.1653 118.217 39.608C118.041 40.0453 117.953 40.568 117.953 41.176C117.953 42.0773 118.143 42.792 118.521 43.32C118.905 43.8427 119.468 44.104 120.209 44.104ZM125.056 37.352H126.352L128.304 43.736H128.144L130.048 37.72H131.088L132.976 43.752H132.832L134.784 37.352H136.032L133.52 45H132.304L130.448 39.352H130.64L128.8 45H127.584L125.056 37.352ZM140.889 45.192C140.148 45.192 139.529 45.088 139.033 44.88C138.537 44.6667 138.161 44.376 137.905 44.008C137.649 43.6347 137.513 43.208 137.497 42.728H138.697C138.724 43.2133 138.919 43.5787 139.281 43.824C139.649 44.064 140.148 44.184 140.777 44.184C141.108 44.184 141.412 44.1307 141.689 44.024C141.967 43.9173 142.188 43.7707 142.353 43.584C142.519 43.3973 142.601 43.1867 142.601 42.952C142.601 42.6533 142.492 42.4187 142.273 42.248C142.055 42.0773 141.705 41.928 141.225 41.8L139.737 41.32C139.092 41.1173 138.596 40.84 138.249 40.488C137.908 40.1307 137.737 39.704 137.737 39.208C137.737 38.5893 138.009 38.0933 138.553 37.72C139.097 37.3467 139.812 37.16 140.697 37.16C141.636 37.16 142.364 37.352 142.881 37.736C143.399 38.12 143.668 38.6 143.689 39.176H142.457C142.409 38.84 142.239 38.5867 141.945 38.416C141.652 38.24 141.236 38.152 140.697 38.152C140.18 38.152 139.775 38.2693 139.481 38.504C139.193 38.7333 139.049 38.9893 139.049 39.272C139.049 39.8 139.503 40.1893 140.409 40.44L141.929 40.952C142.585 41.1493 143.087 41.408 143.433 41.728C143.785 42.048 143.961 42.456 143.961 42.952C143.961 43.336 143.836 43.6987 143.585 44.04C143.335 44.3813 142.98 44.6587 142.521 44.872C142.063 45.0853 141.519 45.192 140.889 45.192ZM149.36 45.192C148.698 45.192 148.106 45.024 147.584 44.688C147.066 44.3467 146.656 43.8747 146.352 43.272C146.053 42.6693 145.904 41.976 145.904 41.192C145.904 40.3547 146.053 39.6347 146.352 39.032C146.65 38.4293 147.058 37.968 147.576 37.648C148.098 37.3227 148.693 37.16 149.36 37.16C149.941 37.16 150.437 37.2773 150.848 37.512C151.258 37.7467 151.589 38.064 151.84 38.464C152.09 38.864 152.264 39.3173 152.36 39.824C152.461 40.3253 152.49 40.8453 152.448 41.384H146.912V40.616H151.624L151.256 40.856C151.272 40.5413 151.253 40.2267 151.2 39.912C151.152 39.5973 151.058 39.3093 150.92 39.048C150.781 38.7813 150.586 38.568 150.336 38.408C150.085 38.248 149.765 38.168 149.376 38.168C148.885 38.168 148.474 38.2933 148.144 38.544C147.813 38.7947 147.565 39.1253 147.4 39.536C147.234 39.9413 147.152 40.3813 147.152 40.856V41.368C147.152 41.9013 147.232 42.3787 147.392 42.8C147.557 43.2213 147.802 43.5547 148.128 43.8C148.453 44.0453 148.864 44.168 149.36 44.168C149.856 44.168 150.264 44.048 150.584 43.808C150.904 43.568 151.098 43.2133 151.168 42.744H152.464C152.384 43.2507 152.202 43.688 151.92 44.056C151.637 44.4187 151.277 44.6987 150.84 44.896C150.402 45.0933 149.909 45.192 149.36 45.192ZM161.807 45.192C161.119 45.192 160.506 45.04 159.967 44.736C159.434 44.432 159.012 43.9813 158.703 43.384C158.394 42.7867 158.239 42.0507 158.239 41.176C158.239 40.296 158.394 39.56 158.703 38.968C159.012 38.3707 159.434 37.92 159.967 37.616C160.506 37.312 161.119 37.16 161.807 37.16C162.49 37.16 163.098 37.312 163.631 37.616C164.17 37.92 164.591 38.3707 164.895 38.968C165.204 39.56 165.359 40.296 165.359 41.176C165.359 42.0507 165.204 42.7867 164.895 43.384C164.591 43.9813 164.17 44.432 163.631 44.736C163.098 45.04 162.49 45.192 161.807 45.192ZM161.775 44.104C162.271 44.104 162.692 43.9867 163.039 43.752C163.386 43.512 163.647 43.1733 163.823 42.736C164.004 42.2987 164.095 41.7787 164.095 41.176C164.095 40.264 163.906 39.5467 163.527 39.024C163.148 38.496 162.586 38.232 161.839 38.232C161.338 38.232 160.914 38.352 160.567 38.592C160.226 38.8267 159.964 39.1653 159.783 39.608C159.607 40.0453 159.519 40.568 159.519 41.176C159.519 42.0773 159.708 42.792 160.087 43.32C160.471 43.8427 161.034 44.104 161.775 44.104ZM173.389 45V40.504C173.389 39.7733 173.213 39.2187 172.861 38.84C172.514 38.456 172.04 38.264 171.437 38.264C170.978 38.264 170.581 38.3893 170.245 38.64C169.909 38.8907 169.65 39.2507 169.469 39.72C169.288 40.184 169.197 40.7387 169.197 41.384H168.717C168.717 40.4933 168.834 39.7333 169.069 39.104C169.304 38.4747 169.645 37.9947 170.093 37.664C170.546 37.328 171.096 37.16 171.741 37.16C172.344 37.16 172.858 37.296 173.285 37.568C173.717 37.8347 174.048 38.2187 174.277 38.72C174.506 39.2213 174.621 39.816 174.621 40.504V45H173.389ZM167.949 45V37.352H169.021L169.197 39.112V45H167.949ZM180.421 45.192C179.76 45.192 179.168 45.024 178.645 44.688C178.128 44.3467 177.717 43.8747 177.413 43.272C177.115 42.6693 176.965 41.976 176.965 41.192C176.965 40.3547 177.115 39.6347 177.413 39.032C177.712 38.4293 178.12 37.968 178.637 37.648C179.16 37.3227 179.755 37.16 180.421 37.16C181.003 37.16 181.499 37.2773 181.909 37.512C182.32 37.7467 182.651 38.064 182.901 38.464C183.152 38.864 183.325 39.3173 183.421 39.824C183.523 40.3253 183.552 40.8453 183.509 41.384H177.973V40.616H182.685L182.317 40.856C182.333 40.5413 182.315 40.2267 182.261 39.912C182.213 39.5973 182.12 39.3093 181.981 39.048C181.843 38.7813 181.648 38.568 181.397 38.408C181.147 38.248 180.827 38.168 180.437 38.168C179.947 38.168 179.536 38.2933 179.205 38.544C178.875 38.7947 178.627 39.1253 178.461 39.536C178.296 39.9413 178.213 40.3813 178.213 40.856V41.368C178.213 41.9013 178.293 42.3787 178.453 42.8C178.619 43.2213 178.864 43.5547 179.189 43.8C179.515 44.0453 179.925 44.168 180.421 44.168C180.917 44.168 181.325 44.048 181.645 43.808C181.965 43.568 182.16 43.2133 182.229 42.744H183.525C183.445 43.2507 183.264 43.688 182.981 44.056C182.699 44.4187 182.339 44.6987 181.901 44.896C181.464 45.0933 180.971 45.192 180.421 45.192ZM192.869 45.192C192.181 45.192 191.568 45.04 191.029 44.736C190.496 44.432 190.074 43.9813 189.765 43.384C189.456 42.7867 189.301 42.0507 189.301 41.176C189.301 40.296 189.456 39.56 189.765 38.968C190.074 38.3707 190.496 37.92 191.029 37.616C191.568 37.312 192.181 37.16 192.869 37.16C193.552 37.16 194.16 37.312 194.693 37.616C195.232 37.92 195.653 38.3707 195.957 38.968C196.266 39.56 196.421 40.296 196.421 41.176C196.421 42.0507 196.266 42.7867 195.957 43.384C195.653 43.9813 195.232 44.432 194.693 44.736C194.16 45.04 193.552 45.192 192.869 45.192ZM192.837 44.104C193.333 44.104 193.754 43.9867 194.101 43.752C194.448 43.512 194.709 43.1733 194.885 42.736C195.066 42.2987 195.157 41.7787 195.157 41.176C195.157 40.264 194.968 39.5467 194.589 39.024C194.21 38.496 193.648 38.232 192.901 38.232C192.4 38.232 191.976 38.352 191.629 38.592C191.288 38.8267 191.026 39.1653 190.845 39.608C190.669 40.0453 190.581 40.568 190.581 41.176C190.581 42.0773 190.77 42.792 191.149 43.32C191.533 43.8427 192.096 44.104 192.837 44.104ZM199.427 45V36.168C199.427 35.6613 199.523 35.248 199.715 34.928C199.912 34.6027 200.174 34.3627 200.499 34.208C200.83 34.0533 201.198 33.976 201.603 33.976C201.822 33.976 202.043 33.992 202.267 34.024C202.496 34.056 202.723 34.104 202.947 34.168L202.707 35.16C202.547 35.096 202.387 35.048 202.227 35.016C202.072 34.984 201.923 34.968 201.779 34.968C201.608 34.968 201.438 35 201.267 35.064C201.096 35.128 200.955 35.248 200.843 35.424C200.731 35.6 200.675 35.8533 200.675 36.184V45H199.427ZM198.179 38.216V37.352H202.259V38.216H198.179ZM34.968 65.192C34.552 65.192 34.1787 65.112 33.848 64.952C33.5173 64.792 33.256 64.552 33.064 64.232C32.872 63.912 32.776 63.512 32.776 63.032V55.224H34.008V63C34.008 63.7893 34.376 64.184 35.112 64.184C35.3307 64.184 35.5413 64.16 35.744 64.112C35.952 64.064 36.184 63.992 36.44 63.896L36.616 64.792C36.344 64.9093 36.072 65.0053 35.8 65.08C35.5333 65.1547 35.256 65.192 34.968 65.192ZM31.544 58.216V57.352H36.424V58.216H31.544ZM44.2316 65V60.504C44.2316 59.7733 44.0556 59.2187 43.7036 58.84C43.357 58.456 42.8823 58.264 42.2796 58.264C41.821 58.264 41.4236 58.3893 41.0876 58.64C40.7516 58.8907 40.493 59.2507 40.3116 59.72C40.1303 60.184 40.0396 60.7387 40.0396 61.384H39.5596C39.5596 60.4933 39.677 59.7333 39.9116 59.104C40.1463 58.4747 40.4876 57.9947 40.9356 57.664C41.389 57.328 41.9383 57.16 42.5836 57.16C43.1863 57.16 43.701 57.296 44.1276 57.568C44.5596 57.8347 44.8903 58.2187 45.1196 58.72C45.349 59.2213 45.4636 59.816 45.4636 60.504V65H44.2316ZM38.7916 65V54.088H40.0396V65H38.7916ZM51.2639 65.192C50.6025 65.192 50.0105 65.024 49.4879 64.688C48.9705 64.3467 48.5599 63.8747 48.2559 63.272C47.9572 62.6693 47.8079 61.976 47.8079 61.192C47.8079 60.3547 47.9572 59.6347 48.2559 59.032C48.5545 58.4293 48.9625 57.968 49.4799 57.648C50.0025 57.3227 50.5972 57.16 51.2639 57.16C51.8452 57.16 52.3412 57.2773 52.7519 57.512C53.1625 57.7467 53.4932 58.064 53.7439 58.464C53.9945 58.864 54.1679 59.3173 54.2639 59.824C54.3652 60.3253 54.3945 60.8453 54.3519 61.384H48.8159V60.616H53.5279L53.1599 60.856C53.1759 60.5413 53.1572 60.2267 53.1039 59.912C53.0559 59.5973 52.9625 59.3093 52.8239 59.048C52.6852 58.7813 52.4905 58.568 52.2399 58.408C51.9892 58.248 51.6692 58.168 51.2799 58.168C50.7892 58.168 50.3785 58.2933 50.0479 58.544C49.7172 58.7947 49.4692 59.1253 49.3039 59.536C49.1385 59.9413 49.0559 60.3813 49.0559 60.856V61.368C49.0559 61.9013 49.1359 62.3787 49.2959 62.8C49.4612 63.2213 49.7065 63.5547 50.0319 63.8C50.3572 64.0453 50.7679 64.168 51.2639 64.168C51.7599 64.168 52.1679 64.048 52.4879 63.808C52.8079 63.568 53.0025 63.2133 53.0719 62.744H54.3679C54.2879 63.2507 54.1065 63.688 53.8239 64.056C53.5412 64.4187 53.1812 64.6987 52.7439 64.896C52.3065 65.0933 51.8132 65.192 51.2639 65.192ZM67.7386 65V60.504C67.7386 59.7733 67.5626 59.2187 67.2106 58.84C66.864 58.456 66.3946 58.264 65.8026 58.264C65.1093 58.264 64.5786 58.5333 64.2106 59.072C63.8426 59.6053 63.6586 60.344 63.6586 61.288H63.0826C63.0826 60.6 63.1493 59.9973 63.2826 59.48C63.4213 58.9627 63.6213 58.5333 63.8826 58.192C64.144 57.8453 64.4613 57.5867 64.8346 57.416C65.208 57.2453 65.632 57.16 66.1066 57.16C66.7093 57.16 67.224 57.296 67.6506 57.568C68.0826 57.8347 68.4133 58.2187 68.6426 58.72C68.872 59.2213 68.9866 59.816 68.9866 60.504V65H67.7386ZM56.9866 65V57.352H58.0586L58.2026 58.888C58.4426 58.3333 58.7786 57.9067 59.2106 57.608C59.648 57.3093 60.1706 57.16 60.7786 57.16C61.3813 57.16 61.896 57.296 62.3226 57.568C62.7546 57.8347 63.0853 58.2187 63.3146 58.72C63.544 59.2213 63.6586 59.816 63.6586 60.504V65H62.4266V60.504C62.4266 59.7733 62.2506 59.2187 61.8986 58.84C61.552 58.456 61.0773 58.264 60.4746 58.264C60.016 58.264 59.6186 58.3893 59.2826 58.64C58.9466 58.8907 58.688 59.2507 58.5066 59.72C58.3253 60.184 58.2346 60.7387 58.2346 61.384V65H56.9866ZM73.3314 62.44V61.72C73.3314 61.256 73.3794 60.8747 73.4754 60.576C73.5767 60.2773 73.742 60.0187 73.9714 59.8C74.2007 59.5813 74.5154 59.3627 74.9154 59.144C75.2727 58.952 75.558 58.7733 75.7714 58.608C75.9847 58.4427 76.1367 58.264 76.2274 58.072C76.3234 57.88 76.3714 57.6453 76.3714 57.368C76.3714 56.952 76.2007 56.6053 75.8594 56.328C75.5234 56.0507 75.0594 55.912 74.4674 55.912C73.8114 55.912 73.31 56.0427 72.9634 56.304C72.6167 56.56 72.398 56.92 72.3074 57.384H70.9794C71.054 56.6053 71.3794 55.976 71.9554 55.496C72.5367 55.016 73.3634 54.776 74.4354 54.776C75.118 54.776 75.7047 54.896 76.1954 55.136C76.6914 55.3707 77.07 55.688 77.3314 56.088C77.598 56.4827 77.7314 56.92 77.7314 57.4C77.7314 57.9493 77.5927 58.4107 77.3154 58.784C77.038 59.152 76.59 59.5013 75.9714 59.832C75.614 60.0293 75.3314 60.2133 75.1234 60.384C74.9207 60.5493 74.7767 60.7413 74.6914 60.96C74.606 61.1733 74.5634 61.4533 74.5634 61.8V62.44H73.3314ZM73.9714 65.192C73.7047 65.192 73.4834 65.1067 73.3074 64.936C73.1314 64.76 73.0434 64.5493 73.0434 64.304C73.0434 64.0533 73.1287 63.8373 73.2994 63.656C73.4754 63.4747 73.6967 63.384 73.9634 63.384C74.23 63.384 74.4567 63.4747 74.6434 63.656C74.8354 63.832 74.9314 64.0453 74.9314 64.296C74.9314 64.5413 74.838 64.752 74.6514 64.928C74.4647 65.104 74.238 65.192 73.9714 65.192Z" fill="#4A5DC8"/>
</g>
<defs>
<filter id="filter0_d_7049_5831" x="0" y="0" width="262.035" height="88" filterUnits="userSpaceOnUse" color-interpolation-filters="sRGB">
<feFlood flood-opacity="0" result="BackgroundImageFix"/>
<feColorMatrix in="SourceAlpha" type="matrix" values="0 0 0 0 0 0 0 0 0 0 0 0 0 0 0 0 0 0 127 0" result="hardAlpha"/>
<feOffset dy="4"/>
<feGaussianBlur stdDeviation="3"/>
<feComposite in2="hardAlpha" operator="out"/>
<feColorMatrix type="matrix" values="0 0 0 0 0 0 0 0 0 0 0 0 0 0 0 0 0 0 0.1 0"/>
<feBlend mode="normal" in2="BackgroundImageFix" result="effect1_dropShadow_7049_5831"/>
<feBlend mode="normal" in="SourceGraphic" in2="effect1_dropShadow_7049_5831" result="shape"/>
</filter>
<filter id="filter1_d_7049_5831" x="25.224" y="11.9756" width="224.188" height="63.2168" filterUnits="userSpaceOnUse" color-interpolation-filters="sRGB">
<feFlood flood-opacity="0" result="BackgroundImageFix"/>
<feColorMatrix in="SourceAlpha" type="matrix" values="0 0 0 0 0 0 0 0 0 0 0 0 0 0 0 0 0 0 127 0" result="hardAlpha"/>
<feOffset dy="4"/>
<feGaussianBlur stdDeviation="3"/>
<feComposite in2="hardAlpha" operator="out"/>
<feColorMatrix type="matrix" values="0 0 0 0 0 0 0 0 0 0 0 0 0 0 0 0 0 0 0.05 0"/>
<feBlend mode="normal" in2="BackgroundImageFix" result="effect1_dropShadow_7049_5831"/>
<feBlend mode="normal" in="SourceGraphic" in2="effect1_dropShadow_7049_5831" result="shape"/>
</filter>
</defs>
</svg>
