<svg width="256" height="68" viewBox="0 0 256 68" fill="none" xmlns="http://www.w3.org/2000/svg">
<mask id="path-1-inside-1_7054_5747" fill="white">
<path d="M248.724 27.3669L239 19L239 11C239 6.02944 234.971 2 230 2L8.99997 1.99998C4.02941 1.99998 -2.59742e-05 6.02942 -2.64087e-05 11L-2.97308e-05 49C-3.01653e-05 53.9705 4.0294 58 8.99997 58L230 58C234.971 58 239 53.9706 239 49L239 39.5L248.612 32.0069C250.106 30.8425 250.16 28.6022 248.724 27.3669Z"/>
</mask>
<path d="M248.724 27.3669L239 19L239 11C239 6.02944 234.971 2 230 2L8.99997 1.99998C4.02941 1.99998 -2.59742e-05 6.02942 -2.64087e-05 11L-2.97308e-05 49C-3.01653e-05 53.9705 4.0294 58 8.99997 58L230 58C234.971 58 239 53.9706 239 49L239 39.5L248.612 32.0069C250.106 30.8425 250.16 28.6022 248.724 27.3669Z" fill="white"/>
<path d="M239 19L237.6 19L237.6 19.6423L238.087 20.0612L239 19ZM248.724 27.3669L249.637 26.3056L249.637 26.3056L248.724 27.3669ZM248.612 32.0069L247.751 30.9028L247.751 30.9028L248.612 32.0069ZM239 39.5L238.139 38.3959L237.6 38.8162L237.6 39.5L239 39.5ZM238.087 20.0612L247.811 28.4281L249.637 26.3056L239.913 17.9388L238.087 20.0612ZM247.751 30.9028L238.139 38.3959L239.861 40.6041L249.473 33.1111L247.751 30.9028ZM247.811 28.4281C248.577 29.0869 248.548 30.2817 247.751 30.9028L249.473 33.1111C251.663 31.4032 251.743 28.1175 249.637 26.3056L247.811 28.4281ZM230 56.6L8.99997 56.6L8.99997 59.4L230 59.4L230 56.6ZM1.39997 49L1.39997 11L-1.40003 11L-1.40003 49L1.39997 49ZM8.99997 3.39998L230 3.4L230 0.599998L8.99997 0.599979L8.99997 3.39998ZM237.6 39.5L237.6 49L240.4 49L240.4 39.5L237.6 39.5ZM237.6 11L237.6 19L240.4 19L240.4 11L237.6 11ZM230 3.4C234.197 3.4 237.6 6.80264 237.6 11L240.4 11C240.4 5.25624 235.744 0.599999 230 0.599998L230 3.4ZM1.39997 11C1.39997 6.80261 4.80261 3.39998 8.99997 3.39998L8.99997 0.599979C3.25621 0.599978 -1.40003 5.25622 -1.40003 11L1.39997 11ZM8.99997 56.6C4.8026 56.6 1.39997 53.1973 1.39997 49L-1.40003 49C-1.40003 54.7437 3.2562 59.4 8.99997 59.4L8.99997 56.6ZM230 59.4C235.744 59.4 240.4 54.7438 240.4 49L237.6 49C237.6 53.1974 234.197 56.6 230 56.6L230 59.4Z" fill="white" mask="url(#path-1-inside-1_7054_5747)"/>
<g filter="url(#filter0_d_7054_5747)">
<mask id="path-3-inside-2_7054_5747" fill="white">
<path d="M248.724 27.3669L239 19L239 11C239 6.02944 234.971 2 230 2L129 1.99999C124.029 1.99999 120 6.02943 120 11L120 49C120 53.9705 124.029 58 129 58L230 58C234.971 58 239 53.9706 239 49L239 39.5L248.612 32.0069C250.106 30.8425 250.16 28.6022 248.724 27.3669Z"/>
</mask>
<path d="M248.724 27.3669L239 19L239 11C239 6.02944 234.971 2 230 2L129 1.99999C124.029 1.99999 120 6.02943 120 11L120 49C120 53.9705 124.029 58 129 58L230 58C234.971 58 239 53.9706 239 49L239 39.5L248.612 32.0069C250.106 30.8425 250.16 28.6022 248.724 27.3669Z" fill="#F1F3FF"/>
<path d="M239 19L237.6 19L237.6 19.6423L238.087 20.0612L239 19ZM248.724 27.3669L249.637 26.3056L249.637 26.3056L248.724 27.3669ZM248.612 32.0069L247.751 30.9028L247.751 30.9028L248.612 32.0069ZM239 39.5L238.139 38.3959L237.6 38.8162L237.6 39.5L239 39.5ZM230 58L230 59.4L230 59.4L230 58ZM129 58L129 56.6L129 56.6L129 58ZM238.087 20.0612L247.811 28.4281L249.637 26.3056L239.913 17.9388L238.087 20.0612ZM247.751 30.9028L238.139 38.3959L239.861 40.6041L249.473 33.1111L247.751 30.9028ZM247.811 28.4281C248.577 29.0869 248.548 30.2817 247.751 30.9028L249.473 33.1111C251.663 31.4032 251.743 28.1175 249.637 26.3056L247.811 28.4281ZM230 56.6L129 56.6L129 59.4L230 59.4L230 56.6ZM121.4 49L121.4 11L118.6 11L118.6 49L121.4 49ZM129 3.39999L230 3.4L230 0.599998L129 0.599989L129 3.39999ZM237.6 39.5L237.6 49L240.4 49L240.4 39.5L237.6 39.5ZM237.6 11L237.6 19L240.4 19L240.4 11L237.6 11ZM230 3.4C234.197 3.4 237.6 6.80264 237.6 11L240.4 11C240.4 5.25624 235.744 0.599999 230 0.599998L230 3.4ZM121.4 11C121.4 6.80263 124.803 3.39999 129 3.39999L129 0.599989C123.256 0.599989 118.6 5.25623 118.6 11L121.4 11ZM129 56.6C124.803 56.6 121.4 53.1973 121.4 49L118.6 49C118.6 54.7437 123.256 59.4 129 59.4L129 56.6ZM230 59.4C235.744 59.4 240.4 54.7438 240.4 49L237.6 49C237.6 53.1974 234.197 56.6 230 56.6L230 59.4Z" fill="#4A5DC8" mask="url(#path-3-inside-2_7054_5747)"/>
</g>
<g filter="url(#filter1_d_7054_5747)">
<path d="M132.93 14.452H134.418L139.522 22.724H139.41V14.452H140.658V24.5H139.266L133.986 15.956H134.178V24.5H132.93V14.452ZM146.812 24.692C146.124 24.692 145.51 24.54 144.972 24.236C144.438 23.932 144.017 23.4813 143.708 22.884C143.398 22.2867 143.244 21.5507 143.244 20.676C143.244 19.796 143.398 19.06 143.708 18.468C144.017 17.8707 144.438 17.42 144.972 17.116C145.51 16.812 146.124 16.66 146.812 16.66C147.494 16.66 148.102 16.812 148.636 17.116C149.174 17.42 149.596 17.8707 149.9 18.468C150.209 19.06 150.364 19.796 150.364 20.676C150.364 21.5507 150.209 22.2867 149.9 22.884C149.596 23.4813 149.174 23.932 148.636 24.236C148.102 24.54 147.494 24.692 146.812 24.692ZM146.78 23.604C147.276 23.604 147.697 23.4867 148.044 23.252C148.39 23.012 148.652 22.6733 148.828 22.236C149.009 21.7987 149.1 21.2787 149.1 20.676C149.1 19.764 148.91 19.0467 148.532 18.524C148.153 17.996 147.59 17.732 146.844 17.732C146.342 17.732 145.918 17.852 145.572 18.092C145.23 18.3267 144.969 18.6653 144.788 19.108C144.612 19.5453 144.524 20.068 144.524 20.676C144.524 21.5773 144.713 22.292 145.092 22.82C145.476 23.3427 146.038 23.604 146.78 23.604ZM152.762 26.244L151.818 25.78C152.122 25.6253 152.378 25.4547 152.586 25.268C152.799 25.0813 152.938 24.852 153.002 24.58C152.772 24.5533 152.575 24.4707 152.41 24.332C152.25 24.1933 152.17 24.0093 152.17 23.78C152.17 23.556 152.252 23.364 152.418 23.204C152.588 23.044 152.804 22.964 153.066 22.964C153.396 22.964 153.663 23.084 153.866 23.324C154.068 23.564 154.17 23.8493 154.17 24.18C154.17 24.5693 154.05 24.9507 153.81 25.324C153.575 25.7027 153.226 26.0093 152.762 26.244ZM160.414 24.5V14.452H161.662V24.5H160.414ZM167.687 16.852H168.983L170.935 23.236H170.775L172.679 17.22H173.719L175.607 23.252H175.463L177.415 16.852H178.663L176.151 24.5H174.935L173.079 18.852H173.271L171.431 24.5H170.215L167.687 16.852ZM185.505 24.5L185.345 22.82V19.54C185.345 18.852 185.198 18.3587 184.905 18.06C184.612 17.756 184.172 17.604 183.585 17.604C183.254 17.604 182.953 17.652 182.681 17.748C182.414 17.844 182.201 17.9933 182.041 18.196C181.886 18.3933 181.809 18.6493 181.809 18.964H180.417C180.417 18.4093 180.553 17.964 180.825 17.628C181.097 17.2867 181.47 17.0413 181.945 16.892C182.425 16.7373 182.972 16.66 183.585 16.66C184.172 16.66 184.692 16.7587 185.145 16.956C185.598 17.1533 185.953 17.468 186.209 17.9C186.465 18.3267 186.593 18.884 186.593 19.572V24.5H185.505ZM182.897 24.692C182.268 24.692 181.748 24.58 181.337 24.356C180.926 24.132 180.62 23.8413 180.417 23.484C180.214 23.1267 180.113 22.7507 180.113 22.356C180.113 21.8387 180.241 21.4173 180.497 21.092C180.758 20.7667 181.113 20.5293 181.561 20.38C182.009 20.2253 182.513 20.148 183.073 20.148C183.473 20.148 183.873 20.188 184.273 20.268C184.678 20.348 185.073 20.4573 185.457 20.596V21.38C185.137 21.252 184.774 21.1507 184.369 21.076C183.969 21.0013 183.601 20.964 183.265 20.964C182.753 20.964 182.321 21.0707 181.969 21.284C181.617 21.492 181.441 21.8493 181.441 22.356C181.441 22.7293 181.574 23.0493 181.841 23.316C182.113 23.5827 182.545 23.716 183.137 23.716C183.553 23.716 183.926 23.62 184.257 23.428C184.593 23.2307 184.857 22.9853 185.049 22.692C185.246 22.3987 185.345 22.1053 185.345 21.812H185.649C185.649 22.324 185.537 22.7987 185.313 23.236C185.094 23.6733 184.78 24.0253 184.369 24.292C183.958 24.5587 183.468 24.692 182.897 24.692ZM195.182 24.5V20.004C195.182 19.2733 195.006 18.7187 194.654 18.34C194.307 17.956 193.832 17.764 193.23 17.764C192.771 17.764 192.374 17.8893 192.038 18.14C191.702 18.3907 191.443 18.7507 191.262 19.22C191.08 19.684 190.99 20.2387 190.99 20.884H190.51C190.51 19.9933 190.627 19.2333 190.862 18.604C191.096 17.9747 191.438 17.4947 191.886 17.164C192.339 16.828 192.888 16.66 193.534 16.66C194.136 16.66 194.651 16.796 195.078 17.068C195.51 17.3347 195.84 17.7187 196.07 18.22C196.299 18.7213 196.414 19.316 196.414 20.004V24.5H195.182ZM189.742 24.5V16.852H190.814L190.99 18.612V24.5H189.742ZM201.91 24.692C201.494 24.692 201.121 24.612 200.79 24.452C200.459 24.292 200.198 24.052 200.006 23.732C199.814 23.412 199.718 23.012 199.718 22.532V14.724H200.95V22.5C200.95 23.2893 201.318 23.684 202.054 23.684C202.273 23.684 202.483 23.66 202.686 23.612C202.894 23.564 203.126 23.492 203.382 23.396L203.558 24.292C203.286 24.4093 203.014 24.5053 202.742 24.58C202.475 24.6547 202.198 24.692 201.91 24.692ZM198.486 17.716V16.852H203.366V17.716H198.486ZM212.042 24.692C211.626 24.692 211.253 24.612 210.922 24.452C210.592 24.292 210.33 24.052 210.138 23.732C209.946 23.412 209.85 23.012 209.85 22.532V14.724H211.082V22.5C211.082 23.2893 211.45 23.684 212.186 23.684C212.405 23.684 212.616 23.66 212.818 23.612C213.026 23.564 213.258 23.492 213.514 23.396L213.69 24.292C213.418 24.4093 213.146 24.5053 212.874 24.58C212.608 24.6547 212.33 24.692 212.042 24.692ZM208.618 17.716V16.852H213.498V17.716H208.618ZM218.634 24.692C217.946 24.692 217.333 24.54 216.794 24.236C216.261 23.932 215.839 23.4813 215.53 22.884C215.221 22.2867 215.066 21.5507 215.066 20.676C215.066 19.796 215.221 19.06 215.53 18.468C215.839 17.8707 216.261 17.42 216.794 17.116C217.333 16.812 217.946 16.66 218.634 16.66C219.317 16.66 219.925 16.812 220.458 17.116C220.997 17.42 221.418 17.8707 221.722 18.468C222.031 19.06 222.186 19.796 222.186 20.676C222.186 21.5507 222.031 22.2867 221.722 22.884C221.418 23.4813 220.997 23.932 220.458 24.236C219.925 24.54 219.317 24.692 218.634 24.692ZM218.602 23.604C219.098 23.604 219.519 23.4867 219.866 23.252C220.213 23.012 220.474 22.6733 220.65 22.236C220.831 21.7987 220.922 21.2787 220.922 20.676C220.922 19.764 220.733 19.0467 220.354 18.524C219.975 17.996 219.413 17.732 218.666 17.732C218.165 17.732 217.741 17.852 217.394 18.092C217.053 18.3267 216.791 18.6653 216.61 19.108C216.434 19.5453 216.346 20.068 216.346 20.676C216.346 21.5773 216.535 22.292 216.914 22.82C217.298 23.3427 217.861 23.604 218.602 23.604ZM164.462 46.436C163.678 46.436 162.998 46.324 162.422 46.1C161.846 45.8813 161.398 45.5853 161.078 45.212C160.763 44.844 160.606 44.436 160.606 43.988C160.606 43.396 160.822 42.9427 161.254 42.628C161.691 42.3187 162.254 42.164 162.942 42.164L163.63 42.596C163.054 42.596 162.609 42.716 162.294 42.956C161.979 43.196 161.822 43.524 161.822 43.94C161.822 44.356 162.046 44.708 162.494 44.996C162.942 45.284 163.598 45.428 164.462 45.428C165.102 45.428 165.662 45.3347 166.142 45.148C166.627 44.9667 167.003 44.7267 167.27 44.428C167.542 44.1347 167.678 43.8173 167.678 43.476C167.678 43.236 167.59 43.028 167.414 42.852C167.238 42.6813 166.969 42.596 166.606 42.596H163.63C163.113 42.596 162.665 42.5187 162.286 42.364C161.913 42.204 161.625 41.996 161.422 41.74C161.219 41.484 161.118 41.204 161.118 40.9C161.118 40.58 161.209 40.308 161.39 40.084C161.571 39.86 161.806 39.6893 162.094 39.572C162.387 39.4547 162.702 39.396 163.038 39.396L163.278 39.86C163.118 39.86 162.955 39.8973 162.79 39.972C162.63 40.0413 162.494 40.148 162.382 40.292C162.275 40.4307 162.222 40.6067 162.222 40.82C162.222 41.0653 162.323 41.2707 162.526 41.436C162.729 41.6013 163.097 41.684 163.63 41.684H166.606C167.326 41.684 167.891 41.836 168.302 42.14C168.718 42.444 168.926 42.868 168.926 43.412C168.926 43.9133 168.747 44.3933 168.39 44.852C168.033 45.316 167.521 45.6947 166.854 45.988C166.187 46.2867 165.39 46.436 164.462 46.436ZM164.686 40.26C164.099 40.26 163.569 40.1427 163.094 39.908C162.625 39.6733 162.251 39.3453 161.974 38.924C161.702 38.5027 161.566 38.0147 161.566 37.46C161.566 36.9 161.702 36.4093 161.974 35.988C162.251 35.5667 162.625 35.2413 163.094 35.012C163.569 34.7773 164.099 34.66 164.686 34.66C165.257 34.66 165.774 34.7773 166.238 35.012C166.707 35.2413 167.081 35.5667 167.358 35.988C167.635 36.4093 167.774 36.9 167.774 37.46C167.774 38.0147 167.635 38.5027 167.358 38.924C167.081 39.3453 166.707 39.6733 166.238 39.908C165.774 40.1427 165.257 40.26 164.686 40.26ZM164.686 39.364C165.273 39.364 165.729 39.1827 166.054 38.82C166.379 38.4573 166.542 38.004 166.542 37.46C166.542 36.9 166.379 36.4467 166.054 36.1C165.729 35.748 165.273 35.572 164.686 35.572C164.105 35.572 163.646 35.748 163.31 36.1C162.979 36.4467 162.814 36.9 162.814 37.46C162.814 38.004 162.979 38.4573 163.31 38.82C163.646 39.1827 164.105 39.364 164.686 39.364ZM167.198 35.876L166.606 35.636C166.606 35.188 166.694 34.796 166.87 34.46C167.046 34.1187 167.297 33.8547 167.622 33.668C167.947 33.476 168.334 33.38 168.782 33.38L168.686 34.612C168.206 34.612 167.838 34.716 167.582 34.924C167.326 35.1267 167.198 35.444 167.198 35.876ZM173.717 42.692C173.029 42.692 172.416 42.54 171.877 42.236C171.344 41.932 170.922 41.4813 170.613 40.884C170.304 40.2867 170.149 39.5507 170.149 38.676C170.149 37.796 170.304 37.06 170.613 36.468C170.922 35.8707 171.344 35.42 171.877 35.116C172.416 34.812 173.029 34.66 173.717 34.66C174.4 34.66 175.008 34.812 175.541 35.116C176.08 35.42 176.501 35.8707 176.805 36.468C177.114 37.06 177.269 37.796 177.269 38.676C177.269 39.5507 177.114 40.2867 176.805 40.884C176.501 41.4813 176.08 41.932 175.541 42.236C175.008 42.54 174.4 42.692 173.717 42.692ZM173.685 41.604C174.181 41.604 174.602 41.4867 174.949 41.252C175.296 41.012 175.557 40.6733 175.733 40.236C175.914 39.7987 176.005 39.2787 176.005 38.676C176.005 37.764 175.816 37.0467 175.437 36.524C175.058 35.996 174.496 35.732 173.749 35.732C173.248 35.732 172.824 35.852 172.477 36.092C172.136 36.3267 171.874 36.6653 171.693 37.108C171.517 37.5453 171.429 38.068 171.429 38.676C171.429 39.5773 171.618 40.292 171.997 40.82C172.381 41.3427 172.944 41.604 173.685 41.604ZM187.32 42.692C186.808 42.692 186.344 42.5587 185.928 42.292C185.517 42.0253 185.189 41.636 184.944 41.124C184.704 40.6067 184.584 39.9773 184.584 39.236H185.064C185.064 39.732 185.165 40.156 185.368 40.508C185.576 40.8547 185.843 41.1187 186.168 41.3C186.493 41.4813 186.835 41.572 187.192 41.572C187.603 41.572 187.979 41.4547 188.32 41.22C188.661 40.9853 188.933 40.6493 189.136 40.212C189.344 39.7747 189.448 39.252 189.448 38.644C189.448 38.0467 189.347 37.5347 189.144 37.108C188.941 36.676 188.667 36.3453 188.32 36.116C187.979 35.8813 187.597 35.764 187.176 35.764C186.813 35.764 186.469 35.8547 186.144 36.036C185.824 36.212 185.563 36.4733 185.36 36.82C185.163 37.1667 185.064 37.5933 185.064 38.1H184.584C184.584 37.3747 184.701 36.756 184.936 36.244C185.176 35.732 185.507 35.34 185.928 35.068C186.349 34.796 186.84 34.66 187.4 34.66C188.003 34.66 188.555 34.8227 189.056 35.148C189.563 35.468 189.968 35.9267 190.272 36.524C190.576 37.1213 190.728 37.828 190.728 38.644C190.728 39.4653 190.573 40.18 190.264 40.788C189.955 41.3907 189.541 41.86 189.024 42.196C188.507 42.5267 187.939 42.692 187.32 42.692ZM183.816 42.5V31.588H185.064V40.708L184.696 42.5H183.816ZM198.196 42.5L198.036 40.82V37.54C198.036 36.852 197.89 36.3587 197.596 36.06C197.303 35.756 196.863 35.604 196.276 35.604C195.946 35.604 195.644 35.652 195.372 35.748C195.106 35.844 194.892 35.9933 194.732 36.196C194.578 36.3933 194.5 36.6493 194.5 36.964H193.108C193.108 36.4093 193.244 35.964 193.516 35.628C193.788 35.2867 194.162 35.0413 194.636 34.892C195.116 34.7373 195.663 34.66 196.276 34.66C196.863 34.66 197.383 34.7587 197.836 34.956C198.29 35.1533 198.644 35.468 198.9 35.9C199.156 36.3267 199.284 36.884 199.284 37.572V42.5H198.196ZM195.588 42.692C194.959 42.692 194.439 42.58 194.028 42.356C193.618 42.132 193.311 41.8413 193.108 41.484C192.906 41.1267 192.804 40.7507 192.804 40.356C192.804 39.8387 192.932 39.4173 193.188 39.092C193.45 38.7667 193.804 38.5293 194.252 38.38C194.7 38.2253 195.204 38.148 195.764 38.148C196.164 38.148 196.564 38.188 196.964 38.268C197.37 38.348 197.764 38.4573 198.148 38.596V39.38C197.828 39.252 197.466 39.1507 197.06 39.076C196.66 39.0013 196.292 38.964 195.956 38.964C195.444 38.964 195.012 39.0707 194.66 39.284C194.308 39.492 194.132 39.8493 194.132 40.356C194.132 40.7293 194.266 41.0493 194.532 41.316C194.804 41.5827 195.236 41.716 195.828 41.716C196.244 41.716 196.618 41.62 196.948 41.428C197.284 41.2307 197.548 40.9853 197.74 40.692C197.938 40.3987 198.036 40.1053 198.036 39.812H198.34C198.34 40.324 198.228 40.7987 198.004 41.236C197.786 41.6733 197.471 42.0253 197.06 42.292C196.65 42.5587 196.159 42.692 195.588 42.692ZM205.121 42.692C204.508 42.692 203.934 42.5267 203.401 42.196C202.873 41.8653 202.446 41.3987 202.121 40.796C201.796 40.1933 201.633 39.4813 201.633 38.66C201.633 37.8173 201.796 37.0973 202.121 36.5C202.446 35.9027 202.873 35.4467 203.401 35.132C203.934 34.8173 204.508 34.66 205.121 34.66C205.553 34.66 205.94 34.7267 206.281 34.86C206.628 34.988 206.929 35.1667 207.185 35.396C207.441 35.6253 207.652 35.8867 207.817 36.18C207.988 36.468 208.113 36.772 208.193 37.092L206.913 37.204C206.78 36.7613 206.556 36.412 206.241 36.156C205.932 35.8947 205.553 35.764 205.105 35.764C204.726 35.764 204.369 35.8733 204.033 36.092C203.702 36.3053 203.433 36.628 203.225 37.06C203.017 37.4867 202.913 38.02 202.913 38.66C202.913 39.252 203.006 39.7667 203.193 40.204C203.385 40.636 203.646 40.972 203.977 41.212C204.308 41.452 204.684 41.572 205.105 41.572C205.697 41.572 206.145 41.428 206.449 41.14C206.758 40.8467 206.913 40.4413 206.913 39.924H208.193C208.193 40.4573 208.068 40.932 207.817 41.348C207.566 41.764 207.209 42.092 206.745 42.332C206.286 42.572 205.745 42.692 205.121 42.692ZM210.843 42.5V31.588H212.091V42.5H210.843ZM211.899 38.116L215.803 34.852H217.547L211.899 39.444V38.116ZM216.187 42.5L212.555 37.668L213.819 37.444L217.723 42.5H216.187ZM220.146 39.684L219.986 32.484H221.314L221.154 39.684H220.146ZM220.65 42.644C220.378 42.644 220.154 42.5587 219.978 42.388C219.802 42.2173 219.714 42.004 219.714 41.748C219.714 41.4973 219.802 41.284 219.978 41.108C220.154 40.9267 220.378 40.836 220.65 40.836C220.917 40.836 221.141 40.9267 221.322 41.108C221.509 41.284 221.602 41.4973 221.602 41.748C221.602 42.004 221.509 42.2173 221.322 42.388C221.141 42.5587 220.917 42.644 220.65 42.644Z" fill="#4A5DC8"/>
</g>
<defs>
<filter id="filter0_d_7054_5747" x="114" y="0" width="141.767" height="68" filterUnits="userSpaceOnUse" color-interpolation-filters="sRGB">
<feFlood flood-opacity="0" result="BackgroundImageFix"/>
<feColorMatrix in="SourceAlpha" type="matrix" values="0 0 0 0 0 0 0 0 0 0 0 0 0 0 0 0 0 0 127 0" result="hardAlpha"/>
<feOffset dy="4"/>
<feGaussianBlur stdDeviation="3"/>
<feComposite in2="hardAlpha" operator="out"/>
<feColorMatrix type="matrix" values="0 0 0 0 0 0 0 0 0 0 0 0 0 0 0 0 0 0 0.1 0"/>
<feBlend mode="normal" in2="BackgroundImageFix" result="effect1_dropShadow_7054_5747"/>
<feBlend mode="normal" in="SourceGraphic" in2="effect1_dropShadow_7054_5747" result="shape"/>
</filter>
<filter id="filter1_d_7054_5747" x="126.93" y="12.4521" width="101.256" height="43.9834" filterUnits="userSpaceOnUse" color-interpolation-filters="sRGB">
<feFlood flood-opacity="0" result="BackgroundImageFix"/>
<feColorMatrix in="SourceAlpha" type="matrix" values="0 0 0 0 0 0 0 0 0 0 0 0 0 0 0 0 0 0 127 0" result="hardAlpha"/>
<feOffset dy="4"/>
<feGaussianBlur stdDeviation="3"/>
<feComposite in2="hardAlpha" operator="out"/>
<feColorMatrix type="matrix" values="0 0 0 0 0 0 0 0 0 0 0 0 0 0 0 0 0 0 0.05 0"/>
<feBlend mode="normal" in2="BackgroundImageFix" result="effect1_dropShadow_7054_5747"/>
<feBlend mode="normal" in="SourceGraphic" in2="effect1_dropShadow_7054_5747" result="shape"/>
</filter>
</defs>
</svg>
