<svg width="257" height="68" viewBox="0 0 257 68" fill="none" xmlns="http://www.w3.org/2000/svg">
<path d="M7.04333 32.6331L16.7674 41V49C16.7674 53.9706 20.7968 58 25.7674 58L247.035 58C252.005 58 256.035 53.9706 256.035 49V11C256.035 6.02944 252.005 2 247.035 2L25.7674 2C20.7968 2 16.7674 6.02944 16.7674 11V20.5L7.15555 27.9931C5.66179 29.1575 5.60761 31.3978 7.04333 32.6331Z" fill="white"/>
<g filter="url(#filter0_d_7084_5705)">
<mask id="path-2-inside-1_7084_5705" fill="white">
<path d="M7.04333 32.6331L16.7674 41V49C16.7674 53.9706 20.7968 58 25.7674 58L217.035 58C222.005 58 226.035 53.9706 226.035 49V11C226.035 6.02944 222.005 2 217.035 2L25.7674 2C20.7968 2 16.7674 6.02944 16.7674 11V20.5L7.15555 27.9931C5.66179 29.1575 5.60761 31.3978 7.04333 32.6331Z"/>
</mask>
<path d="M7.04333 32.6331L16.7674 41V49C16.7674 53.9706 20.7968 58 25.7674 58L217.035 58C222.005 58 226.035 53.9706 226.035 49V11C226.035 6.02944 222.005 2 217.035 2L25.7674 2C20.7968 2 16.7674 6.02944 16.7674 11V20.5L7.15555 27.9931C5.66179 29.1575 5.60761 31.3978 7.04333 32.6331Z" fill="white"/>
<path d="M16.7674 41H18.1674V40.3577L17.6805 39.9388L16.7674 41ZM7.04333 32.6331L6.13021 33.6944L6.13021 33.6944L7.04333 32.6331ZM7.15555 27.9931L8.0163 29.0972L8.0163 29.0972L7.15555 27.9931ZM16.7674 20.5L17.6281 21.6041L18.1674 21.1838V20.5H16.7674ZM25.7674 2V0.6V2ZM217.035 2V3.4V2ZM17.6805 39.9388L7.95644 31.5719L6.13021 33.6944L15.8542 42.0612L17.6805 39.9388ZM8.0163 29.0972L17.6281 21.6041L15.9066 19.3959L6.2948 26.8889L8.0163 29.0972ZM7.95644 31.5719C7.19073 30.9131 7.21963 29.7183 8.0163 29.0972L6.2948 26.8889C4.10396 28.5968 4.02449 31.8825 6.13021 33.6944L7.95644 31.5719ZM25.7674 3.4L217.035 3.4L217.035 0.600003L25.7674 0.6L25.7674 3.4ZM224.635 11V49H227.435V11H224.635ZM217.035 56.6L25.7674 56.6V59.4L217.035 59.4V56.6ZM18.1674 20.5V11H15.3674V20.5H18.1674ZM18.1674 49V41H15.3674V49H18.1674ZM25.7674 56.6C21.57 56.6 18.1674 53.1974 18.1674 49H15.3674C15.3674 54.7438 20.0236 59.4 25.7674 59.4V56.6ZM224.635 49C224.635 53.1974 221.232 56.6 217.035 56.6V59.4C222.778 59.4 227.435 54.7438 227.435 49H224.635ZM217.035 3.4C221.232 3.4 224.635 6.80264 224.635 11H227.435C227.435 5.25624 222.778 0.600003 217.035 0.600003V3.4ZM25.7674 0.6C20.0236 0.6 15.3674 5.25624 15.3674 11H18.1674C18.1674 6.80264 21.57 3.4 25.7674 3.4V0.6Z" fill="#333333" mask="url(#path-2-inside-1_7084_5705)"/>
</g>
<g filter="url(#filter1_d_7084_5705)">
<path d="M28.224 14.952H29.632L32.24 23.896H31.872L34.544 15.992H35.392L38.032 23.832H37.68L40.672 14.952H42.064L38.512 25H37.2L34.88 18.184H35.12L32.72 25H31.408L28.224 14.952ZM49.5129 25V20.504C49.5129 19.7733 49.3369 19.2187 48.9849 18.84C48.6382 18.456 48.1635 18.264 47.5609 18.264C47.1022 18.264 46.7049 18.3893 46.3689 18.64C46.0329 18.8907 45.7742 19.2507 45.5929 19.72C45.4115 20.184 45.3209 20.7387 45.3209 21.384H44.8409C44.8409 20.4933 44.9582 19.7333 45.1929 19.104C45.4275 18.4747 45.7689 17.9947 46.2169 17.664C46.6702 17.328 47.2195 17.16 47.8649 17.16C48.4675 17.16 48.9822 17.296 49.4089 17.568C49.8409 17.8347 50.1715 18.2187 50.4009 18.72C50.6302 19.2213 50.7449 19.816 50.7449 20.504V25H49.5129ZM44.0729 25V14.088H45.3209V25H44.0729ZM58.6251 25L58.4651 23.32V20.04C58.4651 19.352 58.3185 18.8587 58.0251 18.56C57.7318 18.256 57.2918 18.104 56.7051 18.104C56.3745 18.104 56.0731 18.152 55.8011 18.248C55.5345 18.344 55.3211 18.4933 55.1611 18.696C55.0065 18.8933 54.9291 19.1493 54.9291 19.464H53.5371C53.5371 18.9093 53.6731 18.464 53.9451 18.128C54.2171 17.7867 54.5905 17.5413 55.0651 17.392C55.5451 17.2373 56.0918 17.16 56.7051 17.16C57.2918 17.16 57.8118 17.2587 58.2651 17.456C58.7185 17.6533 59.0731 17.968 59.3291 18.4C59.5851 18.8267 59.7131 19.384 59.7131 20.072V25H58.6251ZM56.0171 25.192C55.3878 25.192 54.8678 25.08 54.4571 24.856C54.0465 24.632 53.7398 24.3413 53.5371 23.984C53.3345 23.6267 53.2331 23.2507 53.2331 22.856C53.2331 22.3387 53.3611 21.9173 53.6171 21.592C53.8785 21.2667 54.2331 21.0293 54.6811 20.88C55.1291 20.7253 55.6331 20.648 56.1931 20.648C56.5931 20.648 56.9931 20.688 57.3931 20.768C57.7985 20.848 58.1931 20.9573 58.5771 21.096V21.88C58.2571 21.752 57.8945 21.6507 57.4891 21.576C57.0891 21.5013 56.7211 21.464 56.3851 21.464C55.8731 21.464 55.4411 21.5707 55.0891 21.784C54.7371 21.992 54.5611 22.3493 54.5611 22.856C54.5611 23.2293 54.6945 23.5493 54.9611 23.816C55.2331 24.0827 55.6651 24.216 56.2571 24.216C56.6731 24.216 57.0465 24.12 57.3771 23.928C57.7131 23.7307 57.9771 23.4853 58.1691 23.192C58.3665 22.8987 58.4651 22.6053 58.4651 22.312H58.7691C58.7691 22.824 58.6571 23.2987 58.4331 23.736C58.2145 24.1733 57.8998 24.5253 57.4891 24.792C57.0785 25.0587 56.5878 25.192 56.0171 25.192ZM65.2136 25.192C64.7976 25.192 64.4243 25.112 64.0936 24.952C63.763 24.792 63.5016 24.552 63.3096 24.232C63.1176 23.912 63.0216 23.512 63.0216 23.032V15.224H64.2536V23C64.2536 23.7893 64.6216 24.184 65.3576 24.184C65.5763 24.184 65.787 24.16 65.9896 24.112C66.1976 24.064 66.4296 23.992 66.6856 23.896L66.8616 24.792C66.5896 24.9093 66.3176 25.0053 66.0456 25.08C65.779 25.1547 65.5016 25.192 65.2136 25.192ZM61.7896 18.216V17.352H66.6696V18.216H61.7896ZM71.7301 17.352H73.1221L75.6181 23.912H75.3301L77.2661 17.352H78.5461L75.6661 26.536C75.4261 27.304 75.1061 27.896 74.7061 28.312C74.3061 28.728 73.7941 28.936 73.1701 28.936C72.8341 28.936 72.5141 28.888 72.2101 28.792C71.9115 28.696 71.6021 28.5573 71.2821 28.376V27.224C71.5648 27.448 71.8368 27.608 72.0981 27.704C72.3648 27.8 72.6421 27.848 72.9301 27.848C73.2501 27.848 73.5168 27.7467 73.7301 27.544C73.9488 27.3413 74.1301 27.08 74.2741 26.76C74.4181 26.4453 74.5408 26.1147 74.6421 25.768L74.8661 25L71.7301 17.352ZM83.3752 25.192C82.6872 25.192 82.0739 25.04 81.5352 24.736C81.0019 24.432 80.5806 23.9813 80.2712 23.384C79.9619 22.7867 79.8072 22.0507 79.8072 21.176C79.8072 20.296 79.9619 19.56 80.2712 18.968C80.5806 18.3707 81.0019 17.92 81.5352 17.616C82.0739 17.312 82.6872 17.16 83.3752 17.16C84.0579 17.16 84.6659 17.312 85.1992 17.616C85.7379 17.92 86.1592 18.3707 86.4632 18.968C86.7726 19.56 86.9272 20.296 86.9272 21.176C86.9272 22.0507 86.7726 22.7867 86.4632 23.384C86.1592 23.9813 85.7379 24.432 85.1992 24.736C84.6659 25.04 84.0579 25.192 83.3752 25.192ZM83.3432 24.104C83.8392 24.104 84.2606 23.9867 84.6072 23.752C84.9539 23.512 85.2152 23.1733 85.3912 22.736C85.5726 22.2987 85.6632 21.7787 85.6632 21.176C85.6632 20.264 85.4739 19.5467 85.0952 19.024C84.7166 18.496 84.1539 18.232 83.4072 18.232C82.9059 18.232 82.4819 18.352 82.1352 18.592C81.7939 18.8267 81.5326 19.1653 81.3512 19.608C81.1752 20.0453 81.0872 20.568 81.0872 21.176C81.0872 22.0773 81.2766 22.792 81.6552 23.32C82.0392 23.8427 82.6019 24.104 83.3432 24.104ZM94.7172 17.336H95.9652V25H94.7172V17.336ZM89.2932 17.336H90.5412V22.104C90.5412 22.744 90.6959 23.2293 91.0052 23.56C91.3199 23.8907 91.7679 24.056 92.3492 24.056C92.8292 24.056 93.2452 23.928 93.5972 23.672C93.9546 23.416 94.2292 23.064 94.4212 22.616C94.6186 22.1627 94.7172 21.6453 94.7172 21.064H95.1812C95.1812 21.9227 95.0559 22.656 94.8052 23.264C94.5599 23.872 94.2106 24.3387 93.7572 24.664C93.3092 24.984 92.7812 25.144 92.1732 25.144C91.5972 25.144 91.0932 25.0373 90.6612 24.824C90.2292 24.6107 89.8932 24.288 89.6532 23.856C89.4132 23.4187 89.2932 22.8667 89.2932 22.2V17.336ZM106.074 25.192C105.332 25.192 104.714 25.088 104.218 24.88C103.722 24.6667 103.346 24.376 103.09 24.008C102.834 23.6347 102.698 23.208 102.682 22.728H103.882C103.908 23.2133 104.103 23.5787 104.466 23.824C104.834 24.064 105.332 24.184 105.962 24.184C106.292 24.184 106.596 24.1307 106.874 24.024C107.151 23.9173 107.372 23.7707 107.538 23.584C107.703 23.3973 107.786 23.1867 107.786 22.952C107.786 22.6533 107.676 22.4187 107.458 22.248C107.239 22.0773 106.89 21.928 106.41 21.8L104.922 21.32C104.276 21.1173 103.78 20.84 103.434 20.488C103.092 20.1307 102.922 19.704 102.922 19.208C102.922 18.5893 103.194 18.0933 103.738 17.72C104.282 17.3467 104.996 17.16 105.882 17.16C106.82 17.16 107.548 17.352 108.066 17.736C108.583 18.12 108.852 18.6 108.874 19.176H107.642C107.594 18.84 107.423 18.5867 107.13 18.416C106.836 18.24 106.42 18.152 105.882 18.152C105.364 18.152 104.959 18.2693 104.666 18.504C104.378 18.7333 104.234 18.9893 104.234 19.272C104.234 19.8 104.687 20.1893 105.594 20.44L107.114 20.952C107.77 21.1493 108.271 21.408 108.618 21.728C108.97 22.048 109.146 22.456 109.146 22.952C109.146 23.336 109.02 23.6987 108.77 24.04C108.519 24.3813 108.164 24.6587 107.706 24.872C107.247 25.0853 106.703 25.192 106.074 25.192ZM114.544 25.192C113.883 25.192 113.291 25.024 112.768 24.688C112.251 24.3467 111.84 23.8747 111.536 23.272C111.237 22.6693 111.088 21.976 111.088 21.192C111.088 20.3547 111.237 19.6347 111.536 19.032C111.835 18.4293 112.243 17.968 112.76 17.648C113.283 17.3227 113.877 17.16 114.544 17.16C115.125 17.16 115.621 17.2773 116.032 17.512C116.443 17.7467 116.773 18.064 117.024 18.464C117.275 18.864 117.448 19.3173 117.544 19.824C117.645 20.3253 117.675 20.8453 117.632 21.384H112.096V20.616H116.808L116.44 20.856C116.456 20.5413 116.437 20.2267 116.384 19.912C116.336 19.5973 116.243 19.3093 116.104 19.048C115.965 18.7813 115.771 18.568 115.52 18.408C115.269 18.248 114.949 18.168 114.56 18.168C114.069 18.168 113.659 18.2933 113.328 18.544C112.997 18.7947 112.749 19.1253 112.584 19.536C112.419 19.9413 112.336 20.3813 112.336 20.856V21.368C112.336 21.9013 112.416 22.3787 112.576 22.8C112.741 23.2213 112.987 23.5547 113.312 23.8C113.637 24.0453 114.048 24.168 114.544 24.168C115.04 24.168 115.448 24.048 115.768 23.808C116.088 23.568 116.283 23.2133 116.352 22.744H117.648C117.568 23.2507 117.387 23.688 117.104 24.056C116.821 24.4187 116.461 24.6987 116.024 24.896C115.587 25.0933 115.093 25.192 114.544 25.192ZM125.003 25L124.843 23.32V20.04C124.843 19.352 124.696 18.8587 124.403 18.56C124.109 18.256 123.669 18.104 123.083 18.104C122.752 18.104 122.451 18.152 122.179 18.248C121.912 18.344 121.699 18.4933 121.539 18.696C121.384 18.8933 121.307 19.1493 121.307 19.464H119.915C119.915 18.9093 120.051 18.464 120.323 18.128C120.595 17.7867 120.968 17.5413 121.443 17.392C121.923 17.2373 122.469 17.16 123.083 17.16C123.669 17.16 124.189 17.2587 124.643 17.456C125.096 17.6533 125.451 17.968 125.707 18.4C125.963 18.8267 126.091 19.384 126.091 20.072V25H125.003ZM122.395 25.192C121.765 25.192 121.245 25.08 120.835 24.856C120.424 24.632 120.117 24.3413 119.915 23.984C119.712 23.6267 119.611 23.2507 119.611 22.856C119.611 22.3387 119.739 21.9173 119.995 21.592C120.256 21.2667 120.611 21.0293 121.059 20.88C121.507 20.7253 122.011 20.648 122.571 20.648C122.971 20.648 123.371 20.688 123.771 20.768C124.176 20.848 124.571 20.9573 124.955 21.096V21.88C124.635 21.752 124.272 21.6507 123.867 21.576C123.467 21.5013 123.099 21.464 122.763 21.464C122.251 21.464 121.819 21.5707 121.467 21.784C121.115 21.992 120.939 22.3493 120.939 22.856C120.939 23.2293 121.072 23.5493 121.339 23.816C121.611 24.0827 122.043 24.216 122.635 24.216C123.051 24.216 123.424 24.12 123.755 23.928C124.091 23.7307 124.355 23.4853 124.547 23.192C124.744 22.8987 124.843 22.6053 124.843 22.312H125.147C125.147 22.824 125.035 23.2987 124.811 23.736C124.592 24.1733 124.277 24.5253 123.867 24.792C123.456 25.0587 122.965 25.192 122.395 25.192ZM129.239 25V17.336H130.487V25H129.239ZM130.103 21.544C130.103 20.5733 130.196 19.768 130.383 19.128C130.57 18.4827 130.842 18.0027 131.199 17.688C131.562 17.368 132.002 17.208 132.519 17.208C132.69 17.208 132.844 17.2213 132.983 17.248C133.127 17.2693 133.271 17.304 133.415 17.352L133.335 18.584C133.186 18.536 133.023 18.496 132.847 18.464C132.671 18.4267 132.514 18.408 132.375 18.408C131.922 18.408 131.556 18.5387 131.279 18.8C131.002 19.056 130.799 19.4187 130.671 19.888C130.548 20.3573 130.487 20.9093 130.487 21.544H130.103ZM137.868 25.192C137.255 25.192 136.682 25.0267 136.148 24.696C135.62 24.3653 135.194 23.8987 134.868 23.296C134.543 22.6933 134.38 21.9813 134.38 21.16C134.38 20.3173 134.543 19.5973 134.868 19C135.194 18.4027 135.62 17.9467 136.148 17.632C136.682 17.3173 137.255 17.16 137.868 17.16C138.3 17.16 138.687 17.2267 139.028 17.36C139.375 17.488 139.676 17.6667 139.932 17.896C140.188 18.1253 140.399 18.3867 140.564 18.68C140.735 18.968 140.86 19.272 140.94 19.592L139.66 19.704C139.527 19.2613 139.303 18.912 138.988 18.656C138.679 18.3947 138.3 18.264 137.852 18.264C137.474 18.264 137.116 18.3733 136.78 18.592C136.45 18.8053 136.18 19.128 135.972 19.56C135.764 19.9867 135.66 20.52 135.66 21.16C135.66 21.752 135.754 22.2667 135.94 22.704C136.132 23.136 136.394 23.472 136.724 23.712C137.055 23.952 137.431 24.072 137.852 24.072C138.444 24.072 138.892 23.928 139.196 23.64C139.506 23.3467 139.66 22.9413 139.66 22.424H140.94C140.94 22.9573 140.815 23.432 140.564 23.848C140.314 24.264 139.956 24.592 139.492 24.832C139.034 25.072 138.492 25.192 137.868 25.192ZM149.03 25V20.504C149.03 19.7733 148.854 19.2187 148.502 18.84C148.156 18.456 147.681 18.264 147.078 18.264C146.62 18.264 146.222 18.3893 145.886 18.64C145.55 18.8907 145.292 19.2507 145.11 19.72C144.929 20.184 144.838 20.7387 144.838 21.384H144.358C144.358 20.4933 144.476 19.7333 144.71 19.104C144.945 18.4747 145.286 17.9947 145.734 17.664C146.188 17.328 146.737 17.16 147.382 17.16C147.985 17.16 148.5 17.296 148.926 17.568C149.358 17.8347 149.689 18.2187 149.918 18.72C150.148 19.2213 150.262 19.816 150.262 20.504V25H149.03ZM143.59 25V14.088H144.838V25H143.59ZM162.099 25L161.939 23.32V20.04C161.939 19.352 161.793 18.8587 161.499 18.56C161.206 18.256 160.766 18.104 160.179 18.104C159.849 18.104 159.547 18.152 159.275 18.248C159.009 18.344 158.795 18.4933 158.635 18.696C158.481 18.8933 158.403 19.1493 158.403 19.464H157.011C157.011 18.9093 157.147 18.464 157.419 18.128C157.691 17.7867 158.065 17.5413 158.539 17.392C159.019 17.2373 159.566 17.16 160.179 17.16C160.766 17.16 161.286 17.2587 161.739 17.456C162.193 17.6533 162.547 17.968 162.803 18.4C163.059 18.8267 163.187 19.384 163.187 20.072V25H162.099ZM159.491 25.192C158.862 25.192 158.342 25.08 157.931 24.856C157.521 24.632 157.214 24.3413 157.011 23.984C156.809 23.6267 156.707 23.2507 156.707 22.856C156.707 22.3387 156.835 21.9173 157.091 21.592C157.353 21.2667 157.707 21.0293 158.155 20.88C158.603 20.7253 159.107 20.648 159.667 20.648C160.067 20.648 160.467 20.688 160.867 20.768C161.273 20.848 161.667 20.9573 162.051 21.096V21.88C161.731 21.752 161.369 21.6507 160.963 21.576C160.563 21.5013 160.195 21.464 159.859 21.464C159.347 21.464 158.915 21.5707 158.563 21.784C158.211 21.992 158.035 22.3493 158.035 22.856C158.035 23.2293 158.169 23.5493 158.435 23.816C158.707 24.0827 159.139 24.216 159.731 24.216C160.147 24.216 160.521 24.12 160.851 23.928C161.187 23.7307 161.451 23.4853 161.643 23.192C161.841 22.8987 161.939 22.6053 161.939 22.312H162.243C162.243 22.824 162.131 23.2987 161.907 23.736C161.689 24.1733 161.374 24.5253 160.963 24.792C160.553 25.0587 160.062 25.192 159.491 25.192ZM169.808 25.192C169.248 25.192 168.76 25.064 168.344 24.808C167.933 24.552 167.616 24.1787 167.392 23.688C167.168 23.192 167.056 22.5893 167.056 21.88H167.584C167.584 22.3547 167.683 22.7547 167.88 23.08C168.077 23.4053 168.333 23.6533 168.648 23.824C168.968 23.9893 169.307 24.072 169.664 24.072C170.048 24.072 170.416 23.9627 170.768 23.744C171.12 23.52 171.408 23.192 171.632 22.76C171.856 22.328 171.968 21.7947 171.968 21.16C171.968 20.552 171.864 20.032 171.656 19.6C171.453 19.168 171.179 18.8373 170.832 18.608C170.485 18.3787 170.101 18.264 169.68 18.264C169.317 18.264 168.976 18.352 168.656 18.528C168.336 18.704 168.077 18.9627 167.88 19.304C167.683 19.64 167.584 20.056 167.584 20.552H167.056C167.056 19.8107 167.179 19.1893 167.424 18.688C167.669 18.1813 168.003 17.8 168.424 17.544C168.845 17.288 169.317 17.16 169.84 17.16C170.437 17.16 170.995 17.32 171.512 17.64C172.029 17.96 172.448 18.4187 172.768 19.016C173.088 19.6133 173.248 20.328 173.248 21.16C173.248 22.0027 173.085 22.7253 172.76 23.328C172.44 23.9307 172.019 24.392 171.496 24.712C170.973 25.032 170.411 25.192 169.808 25.192ZM166.336 28.76V17.352H167.376L167.584 19.144V28.76H166.336ZM179.327 25.192C178.767 25.192 178.279 25.064 177.863 24.808C177.453 24.552 177.135 24.1787 176.911 23.688C176.687 23.192 176.575 22.5893 176.575 21.88H177.103C177.103 22.3547 177.202 22.7547 177.399 23.08C177.597 23.4053 177.853 23.6533 178.167 23.824C178.487 23.9893 178.826 24.072 179.183 24.072C179.567 24.072 179.935 23.9627 180.287 23.744C180.639 23.52 180.927 23.192 181.151 22.76C181.375 22.328 181.487 21.7947 181.487 21.16C181.487 20.552 181.383 20.032 181.175 19.6C180.973 19.168 180.698 18.8373 180.351 18.608C180.005 18.3787 179.621 18.264 179.199 18.264C178.837 18.264 178.495 18.352 178.175 18.528C177.855 18.704 177.597 18.9627 177.399 19.304C177.202 19.64 177.103 20.056 177.103 20.552H176.575C176.575 19.8107 176.698 19.1893 176.943 18.688C177.189 18.1813 177.522 17.8 177.943 17.544C178.365 17.288 178.837 17.16 179.359 17.16C179.957 17.16 180.514 17.32 181.031 17.64C181.549 17.96 181.967 18.4187 182.287 19.016C182.607 19.6133 182.767 20.328 182.767 21.16C182.767 22.0027 182.605 22.7253 182.279 23.328C181.959 23.9307 181.538 24.392 181.015 24.712C180.493 25.032 179.93 25.192 179.327 25.192ZM175.855 28.76V17.352H176.895L177.103 19.144V28.76H175.855ZM188.031 25.192C187.369 25.192 186.777 25.024 186.255 24.688C185.737 24.3467 185.327 23.8747 185.023 23.272C184.724 22.6693 184.575 21.976 184.575 21.192C184.575 20.3547 184.724 19.6347 185.023 19.032C185.321 18.4293 185.729 17.968 186.247 17.648C186.769 17.3227 187.364 17.16 188.031 17.16C188.612 17.16 189.108 17.2773 189.519 17.512C189.929 17.7467 190.26 18.064 190.511 18.464C190.761 18.864 190.935 19.3173 191.031 19.824C191.132 20.3253 191.161 20.8453 191.119 21.384H185.583V20.616H190.295L189.927 20.856C189.943 20.5413 189.924 20.2267 189.871 19.912C189.823 19.5973 189.729 19.3093 189.591 19.048C189.452 18.7813 189.257 18.568 189.007 18.408C188.756 18.248 188.436 18.168 188.047 18.168C187.556 18.168 187.145 18.2933 186.815 18.544C186.484 18.7947 186.236 19.1253 186.071 19.536C185.905 19.9413 185.823 20.3813 185.823 20.856V21.368C185.823 21.9013 185.903 22.3787 186.063 22.8C186.228 23.2213 186.473 23.5547 186.799 23.8C187.124 24.0453 187.535 24.168 188.031 24.168C188.527 24.168 188.935 24.048 189.255 23.808C189.575 23.568 189.769 23.2133 189.839 22.744H191.135C191.055 23.2507 190.873 23.688 190.591 24.056C190.308 24.4187 189.948 24.6987 189.511 24.896C189.073 25.0933 188.58 25.192 188.031 25.192ZM198.489 25L198.329 23.32V20.04C198.329 19.352 198.183 18.8587 197.889 18.56C197.596 18.256 197.156 18.104 196.569 18.104C196.239 18.104 195.937 18.152 195.665 18.248C195.399 18.344 195.185 18.4933 195.025 18.696C194.871 18.8933 194.793 19.1493 194.793 19.464H193.401C193.401 18.9093 193.537 18.464 193.809 18.128C194.081 17.7867 194.455 17.5413 194.929 17.392C195.409 17.2373 195.956 17.16 196.569 17.16C197.156 17.16 197.676 17.2587 198.129 17.456C198.583 17.6533 198.937 17.968 199.193 18.4C199.449 18.8267 199.577 19.384 199.577 20.072V25H198.489ZM195.881 25.192C195.252 25.192 194.732 25.08 194.321 24.856C193.911 24.632 193.604 24.3413 193.401 23.984C193.199 23.6267 193.097 23.2507 193.097 22.856C193.097 22.3387 193.225 21.9173 193.481 21.592C193.743 21.2667 194.097 21.0293 194.545 20.88C194.993 20.7253 195.497 20.648 196.057 20.648C196.457 20.648 196.857 20.688 197.257 20.768C197.663 20.848 198.057 20.9573 198.441 21.096V21.88C198.121 21.752 197.759 21.6507 197.353 21.576C196.953 21.5013 196.585 21.464 196.249 21.464C195.737 21.464 195.305 21.5707 194.953 21.784C194.601 21.992 194.425 22.3493 194.425 22.856C194.425 23.2293 194.559 23.5493 194.825 23.816C195.097 24.0827 195.529 24.216 196.121 24.216C196.537 24.216 196.911 24.12 197.241 23.928C197.577 23.7307 197.841 23.4853 198.033 23.192C198.231 22.8987 198.329 22.6053 198.329 22.312H198.633C198.633 22.824 198.521 23.2987 198.297 23.736C198.079 24.1733 197.764 24.5253 197.353 24.792C196.943 25.0587 196.452 25.192 195.881 25.192ZM202.726 25V17.336H203.974V25H202.726ZM203.59 21.544C203.59 20.5733 203.683 19.768 203.87 19.128C204.057 18.4827 204.329 18.0027 204.686 17.688C205.049 17.368 205.489 17.208 206.006 17.208C206.177 17.208 206.331 17.2213 206.47 17.248C206.614 17.2693 206.758 17.304 206.902 17.352L206.822 18.584C206.673 18.536 206.51 18.496 206.334 18.464C206.158 18.4267 206.001 18.408 205.862 18.408C205.409 18.408 205.043 18.5387 204.766 18.8C204.489 19.056 204.286 19.4187 204.158 19.888C204.035 20.3573 203.974 20.9093 203.974 21.544H203.59ZM211.419 25.192C210.678 25.192 210.059 25.088 209.563 24.88C209.067 24.6667 208.691 24.376 208.435 24.008C208.179 23.6347 208.043 23.208 208.027 22.728H209.227C209.254 23.2133 209.449 23.5787 209.811 23.824C210.179 24.064 210.678 24.184 211.307 24.184C211.638 24.184 211.942 24.1307 212.219 24.024C212.497 23.9173 212.718 23.7707 212.883 23.584C213.049 23.3973 213.131 23.1867 213.131 22.952C213.131 22.6533 213.022 22.4187 212.803 22.248C212.585 22.0773 212.235 21.928 211.755 21.8L210.267 21.32C209.622 21.1173 209.126 20.84 208.779 20.488C208.438 20.1307 208.267 19.704 208.267 19.208C208.267 18.5893 208.539 18.0933 209.083 17.72C209.627 17.3467 210.342 17.16 211.227 17.16C212.166 17.16 212.894 17.352 213.411 17.736C213.929 18.12 214.198 18.6 214.219 19.176H212.987C212.939 18.84 212.769 18.5867 212.475 18.416C212.182 18.24 211.766 18.152 211.227 18.152C210.71 18.152 210.305 18.2693 210.011 18.504C209.723 18.7333 209.579 18.9893 209.579 19.272C209.579 19.8 210.033 20.1893 210.939 20.44L212.459 20.952C213.115 21.1493 213.617 21.408 213.963 21.728C214.315 22.048 214.491 22.456 214.491 22.952C214.491 23.336 214.366 23.6987 214.115 24.04C213.865 24.3813 213.51 24.6587 213.051 24.872C212.593 25.0853 212.049 25.192 211.419 25.192ZM30.32 35.544C30.064 35.544 29.8613 35.472 29.712 35.328C29.5627 35.1787 29.488 34.984 29.488 34.744C29.488 34.5093 29.5627 34.3227 29.712 34.184C29.8613 34.0453 30.064 33.976 30.32 33.976C30.576 33.976 30.7787 34.0453 30.928 34.184C31.0773 34.3227 31.152 34.5093 31.152 34.744C31.152 34.984 31.0773 35.1787 30.928 35.328C30.7787 35.472 30.576 35.544 30.32 35.544ZM29.696 45V37.336H30.944V45H29.696ZM39.9816 45V40.504C39.9816 39.7733 39.8056 39.2187 39.4536 38.84C39.107 38.456 38.6323 38.264 38.0296 38.264C37.571 38.264 37.1736 38.3893 36.8376 38.64C36.5016 38.8907 36.243 39.2507 36.0616 39.72C35.8803 40.184 35.7896 40.7387 35.7896 41.384H35.3096C35.3096 40.4933 35.427 39.7333 35.6616 39.104C35.8963 38.4747 36.2376 37.9947 36.6856 37.664C37.139 37.328 37.6883 37.16 38.3336 37.16C38.9363 37.16 39.451 37.296 39.8776 37.568C40.3096 37.8347 40.6403 38.2187 40.8696 38.72C41.099 39.2213 41.2136 39.816 41.2136 40.504V45H39.9816ZM34.5416 45V37.352H35.6136L35.7896 39.112V45H34.5416ZM50.6667 45.192C50.2507 45.192 49.8774 45.112 49.5467 44.952C49.2161 44.792 48.9547 44.552 48.7627 44.232C48.5707 43.912 48.4747 43.512 48.4747 43.032V35.224H49.7067V43C49.7067 43.7893 50.0747 44.184 50.8107 44.184C51.0294 44.184 51.2401 44.16 51.4427 44.112C51.6507 44.064 51.8827 43.992 52.1387 43.896L52.3147 44.792C52.0427 44.9093 51.7707 45.0053 51.4987 45.08C51.2321 45.1547 50.9547 45.192 50.6667 45.192ZM47.2427 38.216V37.352H52.1227V38.216H47.2427ZM59.9304 45V40.504C59.9304 39.7733 59.7544 39.2187 59.4024 38.84C59.0557 38.456 58.581 38.264 57.9784 38.264C57.5197 38.264 57.1224 38.3893 56.7864 38.64C56.4504 38.8907 56.1917 39.2507 56.0104 39.72C55.829 40.184 55.7384 40.7387 55.7384 41.384H55.2584C55.2584 40.4933 55.3757 39.7333 55.6104 39.104C55.845 38.4747 56.1864 37.9947 56.6344 37.664C57.0877 37.328 57.637 37.16 58.2824 37.16C58.885 37.16 59.3997 37.296 59.8264 37.568C60.2584 37.8347 60.589 38.2187 60.8184 38.72C61.0477 39.2213 61.1624 39.816 61.1624 40.504V45H59.9304ZM54.4904 45V34.088H55.7384V45H54.4904ZM66.9626 45.192C66.3013 45.192 65.7093 45.024 65.1866 44.688C64.6693 44.3467 64.2586 43.8747 63.9546 43.272C63.656 42.6693 63.5066 41.976 63.5066 41.192C63.5066 40.3547 63.656 39.6347 63.9546 39.032C64.2533 38.4293 64.6613 37.968 65.1786 37.648C65.7013 37.3227 66.296 37.16 66.9626 37.16C67.544 37.16 68.04 37.2773 68.4506 37.512C68.8613 37.7467 69.192 38.064 69.4426 38.464C69.6933 38.864 69.8666 39.3173 69.9626 39.824C70.064 40.3253 70.0933 40.8453 70.0506 41.384H64.5146V40.616H69.2266L68.8586 40.856C68.8746 40.5413 68.856 40.2267 68.8026 39.912C68.7546 39.5973 68.6613 39.3093 68.5226 39.048C68.384 38.7813 68.1893 38.568 67.9386 38.408C67.688 38.248 67.368 38.168 66.9786 38.168C66.488 38.168 66.0773 38.2933 65.7466 38.544C65.416 38.7947 65.168 39.1253 65.0026 39.536C64.8373 39.9413 64.7546 40.3813 64.7546 40.856V41.368C64.7546 41.9013 64.8346 42.3787 64.9946 42.8C65.16 43.2213 65.4053 43.5547 65.7306 43.8C66.056 44.0453 66.4666 44.168 66.9626 44.168C67.4586 44.168 67.8666 44.048 68.1866 43.808C68.5066 43.568 68.7013 43.2133 68.7706 42.744H70.0666C69.9866 43.2507 69.8053 43.688 69.5226 44.056C69.24 44.4187 68.88 44.6987 68.4426 44.896C68.0053 45.0933 67.512 45.192 66.9626 45.192ZM80.2902 45.224C79.3782 45.224 78.5836 45.008 77.9062 44.576C77.2342 44.1387 76.7116 43.5147 76.3382 42.704C75.9649 41.8933 75.7782 40.92 75.7782 39.784C75.7782 38.6107 75.9702 37.6267 76.3542 36.832C76.7436 36.032 77.2769 35.4293 77.9542 35.024C78.6369 34.6133 79.4156 34.408 80.2902 34.408C81.5009 34.408 82.4449 34.7013 83.1222 35.288C83.8049 35.8747 84.2422 36.6373 84.4342 37.576L82.4182 37.944C82.2529 37.4 81.9889 36.96 81.6262 36.624C81.2636 36.288 80.8182 36.12 80.2902 36.12C79.8262 36.12 79.4076 36.256 79.0342 36.528C78.6609 36.7947 78.3622 37.2 78.1382 37.744C77.9196 38.288 77.8102 38.968 77.8102 39.784C77.8102 40.552 77.9062 41.2133 78.0982 41.768C78.2956 42.3227 78.5782 42.7493 78.9462 43.048C79.3142 43.3467 79.7622 43.496 80.2902 43.496C80.9676 43.496 81.4902 43.3173 81.8582 42.96C82.2316 42.5973 82.4182 42.136 82.4182 41.576H84.4342C84.4342 42.3493 84.2662 43.008 83.9302 43.552C83.5996 44.0907 83.1249 44.504 82.5062 44.792C81.8876 45.08 81.1489 45.224 80.2902 45.224ZM90.7829 45.224C89.8602 45.224 89.0442 45.0213 88.3349 44.616C87.6309 44.2107 87.0789 43.6053 86.6789 42.8C86.2789 41.9947 86.0789 40.9947 86.0789 39.8C86.0789 38.584 86.2789 37.5787 86.6789 36.784C87.0789 35.984 87.6309 35.3893 88.3349 35C89.0442 34.6053 89.8602 34.408 90.7829 34.408C91.7109 34.408 92.5295 34.6107 93.2389 35.016C93.9482 35.416 94.5029 36.016 94.9029 36.816C95.3029 37.616 95.5029 38.6107 95.5029 39.8C95.5029 41.0107 95.3029 42.0187 94.9029 42.824C94.5029 43.6293 93.9482 44.232 93.2389 44.632C92.5295 45.0267 91.7109 45.224 90.7829 45.224ZM90.7829 43.512C91.6309 43.512 92.3029 43.192 92.7989 42.552C93.3002 41.912 93.5509 40.9893 93.5509 39.784C93.5509 38.6213 93.3002 37.7173 92.7989 37.072C92.3029 36.4267 91.6309 36.104 90.7829 36.104C89.9509 36.104 89.2842 36.4293 88.7829 37.08C88.2815 37.7253 88.0309 38.632 88.0309 39.8C88.0309 41 88.2815 41.92 88.7829 42.56C89.2842 43.1947 89.9509 43.512 90.7829 43.512ZM96.7608 45L100.297 34.616H102.665L106.057 45H104.073L103.353 42.76H99.4968L98.7608 45H96.7608ZM99.9768 41.336H102.905L101.449 36.872L99.9768 41.336ZM105.962 36.248V34.616H114.282V36.248H110.642L111.066 35.816V45H109.178V35.816L109.602 36.248H105.962ZM116.014 45V34.616H117.902V45H116.014ZM121.017 34.616H123.081L127.801 42.024H127.657V34.616H129.545V45H127.625L122.601 37.144H122.905V45H121.017V34.616ZM136.469 45.224C135.621 45.224 134.856 45 134.173 44.552C133.491 44.104 132.947 43.48 132.541 42.68C132.141 41.8747 131.941 40.936 131.941 39.864C131.941 39.016 132.064 38.256 132.309 37.584C132.56 36.912 132.907 36.3387 133.349 35.864C133.792 35.3893 134.312 35.0293 134.909 34.784C135.507 34.5333 136.155 34.408 136.853 34.408C137.824 34.408 138.637 34.6187 139.293 35.04C139.955 35.4613 140.469 36.1253 140.837 37.032L138.901 37.48C138.629 37.0373 138.315 36.7013 137.957 36.472C137.605 36.2373 137.205 36.12 136.757 36.12C136.245 36.12 135.779 36.272 135.357 36.576C134.936 36.8747 134.6 37.304 134.349 37.864C134.099 38.424 133.973 39.0907 133.973 39.864C133.973 40.5893 134.083 41.224 134.301 41.768C134.525 42.312 134.837 42.736 135.237 43.04C135.637 43.344 136.101 43.496 136.629 43.496C137.077 43.496 137.477 43.3973 137.829 43.2C138.187 42.9973 138.467 42.7093 138.669 42.336C138.877 41.9627 138.981 41.512 138.981 40.984H139.397C139.397 41.848 139.293 42.5973 139.085 43.232C138.883 43.8667 138.565 44.3573 138.133 44.704C137.701 45.0507 137.147 45.224 136.469 45.224ZM139.253 45L138.981 42.712V40.92L136.645 40.872V39.672H140.789V45H139.253ZM147.281 45.224C146.561 45.224 145.897 45.0987 145.289 44.848C144.687 44.5973 144.196 44.216 143.817 43.704C143.444 43.192 143.244 42.5413 143.217 41.752H145.073C145.073 42.152 145.172 42.48 145.369 42.736C145.567 42.992 145.831 43.184 146.161 43.312C146.497 43.4347 146.865 43.496 147.265 43.496C147.649 43.496 147.991 43.4453 148.289 43.344C148.593 43.2427 148.831 43.0987 149.001 42.912C149.177 42.72 149.265 42.4933 149.265 42.232C149.265 41.8853 149.159 41.6133 148.945 41.416C148.737 41.2187 148.401 41.0373 147.937 40.872L145.889 40.056C145.089 39.7413 144.476 39.376 144.049 38.96C143.623 38.544 143.409 37.9707 143.409 37.24C143.409 36.3973 143.743 35.7147 144.409 35.192C145.076 34.6693 146.007 34.408 147.201 34.408C148.364 34.408 149.263 34.68 149.897 35.224C150.532 35.7627 150.892 36.5147 150.977 37.48H149.121C149.052 37.0693 148.865 36.7413 148.561 36.496C148.257 36.2453 147.804 36.12 147.201 36.12C146.668 36.12 146.247 36.232 145.937 36.456C145.628 36.6747 145.473 36.952 145.473 37.288C145.473 37.576 145.569 37.8053 145.761 37.976C145.959 38.1413 146.263 38.3013 146.673 38.456L148.945 39.336C149.713 39.6347 150.303 40.0107 150.713 40.464C151.124 40.9173 151.329 41.4853 151.329 42.168C151.329 42.792 151.172 43.3333 150.857 43.792C150.543 44.2453 150.084 44.5973 149.481 44.848C148.879 45.0987 148.145 45.224 147.281 45.224ZM161.585 45.192C161.025 45.192 160.537 45.064 160.121 44.808C159.711 44.552 159.393 44.1787 159.169 43.688C158.945 43.192 158.833 42.5893 158.833 41.88H159.361C159.361 42.3547 159.46 42.7547 159.657 43.08C159.855 43.4053 160.111 43.6533 160.425 43.824C160.745 43.9893 161.084 44.072 161.441 44.072C161.825 44.072 162.193 43.9627 162.545 43.744C162.897 43.52 163.185 43.192 163.409 42.76C163.633 42.328 163.745 41.7947 163.745 41.16C163.745 40.552 163.641 40.032 163.433 39.6C163.231 39.168 162.956 38.8373 162.609 38.608C162.263 38.3787 161.879 38.264 161.457 38.264C161.095 38.264 160.753 38.352 160.433 38.528C160.113 38.704 159.855 38.9627 159.657 39.304C159.46 39.64 159.361 40.056 159.361 40.552H158.833C158.833 39.8107 158.956 39.1893 159.201 38.688C159.447 38.1813 159.78 37.8 160.201 37.544C160.623 37.288 161.095 37.16 161.617 37.16C162.215 37.16 162.772 37.32 163.289 37.64C163.807 37.96 164.225 38.4187 164.545 39.016C164.865 39.6133 165.025 40.328 165.025 41.16C165.025 42.0027 164.863 42.7253 164.537 43.328C164.217 43.9307 163.796 44.392 163.273 44.712C162.751 45.032 162.188 45.192 161.585 45.192ZM158.113 48.76V37.352H159.153L159.361 39.144V48.76H158.113ZM172.369 45L172.209 43.32V40.04C172.209 39.352 172.062 38.8587 171.769 38.56C171.476 38.256 171.036 38.104 170.449 38.104C170.118 38.104 169.817 38.152 169.545 38.248C169.278 38.344 169.065 38.4933 168.905 38.696C168.75 38.8933 168.673 39.1493 168.673 39.464H167.281C167.281 38.9093 167.417 38.464 167.689 38.128C167.961 37.7867 168.334 37.5413 168.809 37.392C169.289 37.2373 169.836 37.16 170.449 37.16C171.036 37.16 171.556 37.2587 172.009 37.456C172.462 37.6533 172.817 37.968 173.073 38.4C173.329 38.8267 173.457 39.384 173.457 40.072V45H172.369ZM169.761 45.192C169.132 45.192 168.612 45.08 168.201 44.856C167.79 44.632 167.484 44.3413 167.281 43.984C167.078 43.6267 166.977 43.2507 166.977 42.856C166.977 42.3387 167.105 41.9173 167.361 41.592C167.622 41.2667 167.977 41.0293 168.425 40.88C168.873 40.7253 169.377 40.648 169.937 40.648C170.337 40.648 170.737 40.688 171.137 40.768C171.542 40.848 171.937 40.9573 172.321 41.096V41.88C172.001 41.752 171.638 41.6507 171.233 41.576C170.833 41.5013 170.465 41.464 170.129 41.464C169.617 41.464 169.185 41.5707 168.833 41.784C168.481 41.992 168.305 42.3493 168.305 42.856C168.305 43.2293 168.438 43.5493 168.705 43.816C168.977 44.0827 169.409 44.216 170.001 44.216C170.417 44.216 170.79 44.12 171.121 43.928C171.457 43.7307 171.721 43.4853 171.913 43.192C172.11 42.8987 172.209 42.6053 172.209 42.312H172.513C172.513 42.824 172.401 43.2987 172.177 43.736C171.958 44.1733 171.644 44.5253 171.233 44.792C170.822 45.0587 170.332 45.192 169.761 45.192ZM179.309 48.936C178.525 48.936 177.845 48.824 177.269 48.6C176.693 48.3813 176.245 48.0853 175.925 47.712C175.611 47.344 175.453 46.936 175.453 46.488C175.453 45.896 175.669 45.4427 176.101 45.128C176.539 44.8187 177.101 44.664 177.789 44.664L178.477 45.096C177.901 45.096 177.456 45.216 177.141 45.456C176.827 45.696 176.669 46.024 176.669 46.44C176.669 46.856 176.893 47.208 177.341 47.496C177.789 47.784 178.445 47.928 179.309 47.928C179.949 47.928 180.509 47.8347 180.989 47.648C181.475 47.4667 181.851 47.2267 182.117 46.928C182.389 46.6347 182.525 46.3173 182.525 45.976C182.525 45.736 182.437 45.528 182.261 45.352C182.085 45.1813 181.816 45.096 181.453 45.096H178.477C177.96 45.096 177.512 45.0187 177.133 44.864C176.76 44.704 176.472 44.496 176.269 44.24C176.067 43.984 175.965 43.704 175.965 43.4C175.965 43.08 176.056 42.808 176.237 42.584C176.419 42.36 176.653 42.1893 176.941 42.072C177.235 41.9547 177.549 41.896 177.885 41.896L178.125 42.36C177.965 42.36 177.803 42.3973 177.637 42.472C177.477 42.5413 177.341 42.648 177.229 42.792C177.123 42.9307 177.069 43.1067 177.069 43.32C177.069 43.5653 177.171 43.7707 177.373 43.936C177.576 44.1013 177.944 44.184 178.477 44.184H181.453C182.173 44.184 182.739 44.336 183.149 44.64C183.565 44.944 183.773 45.368 183.773 45.912C183.773 46.4133 183.595 46.8933 183.237 47.352C182.88 47.816 182.368 48.1947 181.701 48.488C181.035 48.7867 180.237 48.936 179.309 48.936ZM179.533 42.76C178.947 42.76 178.416 42.6427 177.941 42.408C177.472 42.1733 177.099 41.8453 176.821 41.424C176.549 41.0027 176.413 40.5147 176.413 39.96C176.413 39.4 176.549 38.9093 176.821 38.488C177.099 38.0667 177.472 37.7413 177.941 37.512C178.416 37.2773 178.947 37.16 179.533 37.16C180.104 37.16 180.621 37.2773 181.085 37.512C181.555 37.7413 181.928 38.0667 182.205 38.488C182.483 38.9093 182.621 39.4 182.621 39.96C182.621 40.5147 182.483 41.0027 182.205 41.424C181.928 41.8453 181.555 42.1733 181.085 42.408C180.621 42.6427 180.104 42.76 179.533 42.76ZM179.533 41.864C180.12 41.864 180.576 41.6827 180.901 41.32C181.227 40.9573 181.389 40.504 181.389 39.96C181.389 39.4 181.227 38.9467 180.901 38.6C180.576 38.248 180.12 38.072 179.533 38.072C178.952 38.072 178.493 38.248 178.157 38.6C177.827 38.9467 177.661 39.4 177.661 39.96C177.661 40.504 177.827 40.9573 178.157 41.32C178.493 41.6827 178.952 41.864 179.533 41.864ZM182.045 38.376L181.453 38.136C181.453 37.688 181.541 37.296 181.717 36.96C181.893 36.6187 182.144 36.3547 182.469 36.168C182.795 35.976 183.181 35.88 183.629 35.88L183.533 37.112C183.053 37.112 182.685 37.216 182.429 37.424C182.173 37.6267 182.045 37.944 182.045 38.376ZM188.453 45.192C187.791 45.192 187.199 45.024 186.677 44.688C186.159 44.3467 185.749 43.8747 185.445 43.272C185.146 42.6693 184.997 41.976 184.997 41.192C184.997 40.3547 185.146 39.6347 185.445 39.032C185.743 38.4293 186.151 37.968 186.669 37.648C187.191 37.3227 187.786 37.16 188.453 37.16C189.034 37.16 189.53 37.2773 189.941 37.512C190.351 37.7467 190.682 38.064 190.933 38.464C191.183 38.864 191.357 39.3173 191.453 39.824C191.554 40.3253 191.583 40.8453 191.541 41.384H186.005V40.616H190.717L190.349 40.856C190.365 40.5413 190.346 40.2267 190.293 39.912C190.245 39.5973 190.151 39.3093 190.013 39.048C189.874 38.7813 189.679 38.568 189.429 38.408C189.178 38.248 188.858 38.168 188.469 38.168C187.978 38.168 187.567 38.2933 187.237 38.544C186.906 38.7947 186.658 39.1253 186.493 39.536C186.327 39.9413 186.245 40.3813 186.245 40.856V41.368C186.245 41.9013 186.325 42.3787 186.485 42.8C186.65 43.2213 186.895 43.5547 187.221 43.8C187.546 44.0453 187.957 44.168 188.453 44.168C188.949 44.168 189.357 44.048 189.677 43.808C189.997 43.568 190.191 43.2133 190.261 42.744H191.557C191.477 43.2507 191.295 43.688 191.013 44.056C190.73 44.4187 190.37 44.6987 189.933 44.896C189.495 45.0933 189.002 45.192 188.453 45.192ZM193.039 44.256C193.039 44.0053 193.127 43.7893 193.303 43.608C193.479 43.4267 193.701 43.336 193.967 43.336C194.234 43.336 194.461 43.4267 194.647 43.608C194.834 43.7893 194.927 44.0053 194.927 44.256C194.927 44.5067 194.834 44.7173 194.647 44.888C194.461 45.0587 194.234 45.144 193.967 45.144C193.701 45.144 193.479 45.0587 193.303 44.888C193.127 44.712 193.039 44.5013 193.039 44.256Z" fill="#333333"/>
</g>
<defs>
<filter id="filter0_d_7084_5705" x="0" y="0" width="232.035" height="68" filterUnits="userSpaceOnUse" color-interpolation-filters="sRGB">
<feFlood flood-opacity="0" result="BackgroundImageFix"/>
<feColorMatrix in="SourceAlpha" type="matrix" values="0 0 0 0 0 0 0 0 0 0 0 0 0 0 0 0 0 0 127 0" result="hardAlpha"/>
<feOffset dy="4"/>
<feGaussianBlur stdDeviation="3"/>
<feComposite in2="hardAlpha" operator="out"/>
<feColorMatrix type="matrix" values="0 0 0 0 0 0 0 0 0 0 0 0 0 0 0 0 0 0 0.1 0"/>
<feBlend mode="normal" in2="BackgroundImageFix" result="effect1_dropShadow_7084_5705"/>
<feBlend mode="normal" in="SourceGraphic" in2="effect1_dropShadow_7084_5705" result="shape"/>
</filter>
<filter id="filter1_d_7084_5705" x="22.2241" y="12.0879" width="198.267" height="46.8477" filterUnits="userSpaceOnUse" color-interpolation-filters="sRGB">
<feFlood flood-opacity="0" result="BackgroundImageFix"/>
<feColorMatrix in="SourceAlpha" type="matrix" values="0 0 0 0 0 0 0 0 0 0 0 0 0 0 0 0 0 0 127 0" result="hardAlpha"/>
<feOffset dy="4"/>
<feGaussianBlur stdDeviation="3"/>
<feComposite in2="hardAlpha" operator="out"/>
<feColorMatrix type="matrix" values="0 0 0 0 0 0 0 0 0 0 0 0 0 0 0 0 0 0 0.05 0"/>
<feBlend mode="normal" in2="BackgroundImageFix" result="effect1_dropShadow_7084_5705"/>
<feBlend mode="normal" in="SourceGraphic" in2="effect1_dropShadow_7084_5705" result="shape"/>
</filter>
</defs>
</svg>
