<svg width="256" height="68" viewBox="0 0 256 68" fill="none" xmlns="http://www.w3.org/2000/svg">
<mask id="path-1-inside-1_7093_6117" fill="white">
<path d="M248.724 27.3669L239 19L239 11C239 6.02944 234.971 2 230 2L9.00022 1.99998C4.02965 1.99998 0.000218166 6.02942 0.000217732 11L0.00021441 49C0.000213975 53.9705 4.02965 58 9.00021 58L230 58C234.971 58 239 53.9706 239 49L239 39.5L248.612 32.0069C250.106 30.8425 250.16 28.6022 248.724 27.3669Z"/>
</mask>
<path d="M248.724 27.3669L239 19L239 11C239 6.02944 234.971 2 230 2L9.00022 1.99998C4.02965 1.99998 0.000218166 6.02942 0.000217732 11L0.00021441 49C0.000213975 53.9705 4.02965 58 9.00021 58L230 58C234.971 58 239 53.9706 239 49L239 39.5L248.612 32.0069C250.106 30.8425 250.16 28.6022 248.724 27.3669Z" fill="white"/>
<path d="M239 19L237.6 19L237.6 19.6423L238.087 20.0612L239 19ZM248.724 27.3669L249.637 26.3056L249.637 26.3056L248.724 27.3669ZM248.612 32.0069L247.751 30.9028L247.751 30.9028L248.612 32.0069ZM239 39.5L238.139 38.3959L237.6 38.8162L237.6 39.5L239 39.5ZM238.087 20.0612L247.811 28.4281L249.637 26.3056L239.913 17.9388L238.087 20.0612ZM247.751 30.9028L238.139 38.3959L239.861 40.6041L249.473 33.1111L247.751 30.9028ZM247.811 28.4281C248.577 29.0869 248.548 30.2817 247.751 30.9028L249.473 33.1111C251.664 31.4032 251.743 28.1175 249.637 26.3056L247.811 28.4281ZM230 56.6L9.00021 56.6L9.00021 59.4L230 59.4L230 56.6ZM1.40021 49L1.40021 11L-1.39978 11L-1.39978 49L1.40021 49ZM9.00022 3.39998L230 3.4L230 0.599997L9.00022 0.599977L9.00022 3.39998ZM237.6 39.5L237.6 49L240.4 49L240.4 39.5L237.6 39.5ZM237.6 11L237.6 19L240.4 19L240.4 11L237.6 11ZM230 3.4C234.198 3.4 237.6 6.80263 237.6 11L240.4 11C240.4 5.25624 235.744 0.599997 230 0.599997L230 3.4ZM1.40021 11C1.40021 6.80261 4.80285 3.39998 9.00022 3.39998L9.00022 0.599977C3.25646 0.599977 -1.39978 5.25622 -1.39978 11L1.40021 11ZM9.00021 56.6C4.80284 56.6 1.40021 53.1973 1.40021 49L-1.39978 49C-1.39978 54.7437 3.25645 59.4 9.00021 59.4L9.00021 56.6ZM230 59.4C235.744 59.4 240.4 54.7438 240.4 49L237.6 49C237.6 53.1974 234.198 56.6 230 56.6L230 59.4Z" fill="white" mask="url(#path-1-inside-1_7093_6117)"/>
<g filter="url(#filter0_d_7093_6117)">
<mask id="path-3-inside-2_7093_6117" fill="white">
<path d="M248.724 27.3669L239 19L239 11C239 6.02944 234.971 2 230 2L100 1.99999C95.0297 1.99999 91.0002 6.02942 91.0002 11L91.0002 49C91.0002 53.9705 95.0296 58 100 58L230 58C234.971 58 239 53.9706 239 49L239 39.5L248.612 32.0069C250.106 30.8425 250.16 28.6022 248.724 27.3669Z"/>
</mask>
<path d="M248.724 27.3669L239 19L239 11C239 6.02944 234.971 2 230 2L100 1.99999C95.0297 1.99999 91.0002 6.02942 91.0002 11L91.0002 49C91.0002 53.9705 95.0296 58 100 58L230 58C234.971 58 239 53.9706 239 49L239 39.5L248.612 32.0069C250.106 30.8425 250.16 28.6022 248.724 27.3669Z" fill="white"/>
<path d="M239 19L237.6 19L237.6 19.6423L238.087 20.0612L239 19ZM248.724 27.3669L249.637 26.3056L249.637 26.3056L248.724 27.3669ZM248.612 32.0069L247.751 30.9028L247.751 30.9028L248.612 32.0069ZM239 39.5L238.139 38.3959L237.6 38.8162L237.6 39.5L239 39.5ZM230 58L230 59.4L230 59.4L230 58ZM100 58L100 56.6L100 56.6L100 58ZM238.087 20.0612L247.811 28.4281L249.637 26.3056L239.913 17.9388L238.087 20.0612ZM247.751 30.9028L238.139 38.3959L239.861 40.6041L249.473 33.1111L247.751 30.9028ZM247.811 28.4281C248.577 29.0869 248.548 30.2817 247.751 30.9028L249.473 33.1111C251.664 31.4032 251.743 28.1175 249.637 26.3056L247.811 28.4281ZM230 56.6L100 56.6L100 59.4L230 59.4L230 56.6ZM92.4002 49L92.4002 11L89.6002 11L89.6002 49L92.4002 49ZM100 3.39999L230 3.4L230 0.599998L100 0.599987L100 3.39999ZM237.6 39.5L237.6 49L240.4 49L240.4 39.5L237.6 39.5ZM237.6 11L237.6 19L240.4 19L240.4 11L237.6 11ZM230 3.4C234.198 3.4 237.6 6.80264 237.6 11L240.4 11C240.4 5.25624 235.744 0.599999 230 0.599998L230 3.4ZM92.4002 11C92.4002 6.80262 95.8029 3.39999 100 3.39999L100 0.599987C94.2565 0.599986 89.6002 5.25623 89.6002 11L92.4002 11ZM100 56.6C95.8028 56.6 92.4002 53.1973 92.4002 49L89.6002 49C89.6002 54.7437 94.2564 59.4 100 59.4L100 56.6ZM230 59.4C235.744 59.4 240.4 54.7438 240.4 49L237.6 49C237.6 53.1974 234.198 56.6 230 56.6L230 59.4Z" fill="#333333" mask="url(#path-3-inside-2_7093_6117)"/>
</g>
<g filter="url(#filter1_d_7093_6117)">
<path d="M164.367 15.452H165.855L170.959 23.724H170.847V15.452H172.095V25.5H170.703L165.423 16.956H165.615V25.5H164.367V15.452ZM178.248 25.692C177.56 25.692 176.947 25.54 176.408 25.236C175.875 24.932 175.454 24.4813 175.144 23.884C174.835 23.2867 174.68 22.5507 174.68 21.676C174.68 20.796 174.835 20.06 175.144 19.468C175.454 18.8707 175.875 18.42 176.408 18.116C176.947 17.812 177.56 17.66 178.248 17.66C178.931 17.66 179.539 17.812 180.072 18.116C180.611 18.42 181.032 18.8707 181.336 19.468C181.646 20.06 181.8 20.796 181.8 21.676C181.8 22.5507 181.646 23.2867 181.336 23.884C181.032 24.4813 180.611 24.932 180.072 25.236C179.539 25.54 178.931 25.692 178.248 25.692ZM178.216 24.604C178.712 24.604 179.134 24.4867 179.48 24.252C179.827 24.012 180.088 23.6733 180.264 23.236C180.446 22.7987 180.536 22.2787 180.536 21.676C180.536 20.764 180.347 20.0467 179.968 19.524C179.59 18.996 179.027 18.732 178.28 18.732C177.779 18.732 177.355 18.852 177.008 19.092C176.667 19.3267 176.406 19.6653 176.224 20.108C176.048 20.5453 175.96 21.068 175.96 21.676C175.96 22.5773 176.15 23.292 176.528 23.82C176.912 24.3427 177.475 24.604 178.216 24.604ZM183.254 24.756C183.254 24.5053 183.342 24.2893 183.518 24.108C183.694 23.9267 183.916 23.836 184.182 23.836C184.449 23.836 184.676 23.9267 184.862 24.108C185.049 24.2893 185.142 24.5053 185.142 24.756C185.142 25.0067 185.049 25.2173 184.862 25.388C184.676 25.5587 184.449 25.644 184.182 25.644C183.916 25.644 183.694 25.5587 183.518 25.388C183.342 25.212 183.254 25.0013 183.254 24.756ZM194.903 25.692C194.103 25.692 193.375 25.484 192.719 25.068C192.063 24.652 191.54 24.0627 191.151 23.3C190.761 22.5373 190.567 21.6333 190.567 20.588C190.567 19.7187 190.692 18.9533 190.943 18.292C191.193 17.6307 191.537 17.076 191.975 16.628C192.412 16.18 192.913 15.844 193.479 15.62C194.049 15.3907 194.652 15.276 195.287 15.276C196.071 15.276 196.759 15.4387 197.351 15.764C197.943 16.084 198.449 16.5933 198.871 17.292L197.687 17.708C197.329 17.2653 196.945 16.94 196.535 16.732C196.129 16.5187 195.697 16.412 195.239 16.412C194.636 16.412 194.081 16.58 193.575 16.916C193.068 17.252 192.66 17.732 192.351 18.356C192.047 18.98 191.895 19.724 191.895 20.588C191.895 21.356 192.02 22.0387 192.271 22.636C192.521 23.228 192.876 23.6947 193.335 24.036C193.799 24.372 194.348 24.54 194.983 24.54C195.468 24.54 195.903 24.428 196.287 24.204C196.676 23.98 196.983 23.644 197.207 23.196C197.431 22.7427 197.543 22.172 197.543 21.484H197.927C197.927 22.3373 197.825 23.0787 197.623 23.708C197.42 24.3373 197.095 24.8253 196.647 25.172C196.204 25.5187 195.623 25.692 194.903 25.692ZM197.767 25.5L197.543 23.132V21.452L195.015 21.372V20.524H198.759V25.5H197.767ZM204.592 25.692C203.904 25.692 203.29 25.54 202.752 25.236C202.218 24.932 201.797 24.4813 201.488 23.884C201.178 23.2867 201.024 22.5507 201.024 21.676C201.024 20.796 201.178 20.06 201.488 19.468C201.797 18.8707 202.218 18.42 202.752 18.116C203.29 17.812 203.904 17.66 204.592 17.66C205.274 17.66 205.882 17.812 206.416 18.116C206.954 18.42 207.376 18.8707 207.68 19.468C207.989 20.06 208.144 20.796 208.144 21.676C208.144 22.5507 207.989 23.2867 207.68 23.884C207.376 24.4813 206.954 24.932 206.416 25.236C205.882 25.54 205.274 25.692 204.592 25.692ZM204.56 24.604C205.056 24.604 205.477 24.4867 205.824 24.252C206.17 24.012 206.432 23.6733 206.608 23.236C206.789 22.7987 206.88 22.2787 206.88 21.676C206.88 20.764 206.69 20.0467 206.312 19.524C205.933 18.996 205.37 18.732 204.624 18.732C204.122 18.732 203.698 18.852 203.352 19.092C203.01 19.3267 202.749 19.6653 202.568 20.108C202.392 20.5453 202.304 21.068 202.304 21.676C202.304 22.5773 202.493 23.292 202.872 23.82C203.256 24.3427 203.818 24.604 204.56 24.604ZM217.042 25.692C216.626 25.692 216.253 25.612 215.922 25.452C215.592 25.292 215.33 25.052 215.138 24.732C214.946 24.412 214.85 24.012 214.85 23.532V15.724H216.082V23.5C216.082 24.2893 216.45 24.684 217.186 24.684C217.405 24.684 217.616 24.66 217.818 24.612C218.026 24.564 218.258 24.492 218.514 24.396L218.69 25.292C218.418 25.4093 218.146 25.5053 217.874 25.58C217.608 25.6547 217.33 25.692 217.042 25.692ZM213.618 18.716V17.852H218.498V18.716H213.618ZM223.634 25.692C222.946 25.692 222.333 25.54 221.794 25.236C221.261 24.932 220.839 24.4813 220.53 23.884C220.221 23.2867 220.066 22.5507 220.066 21.676C220.066 20.796 220.221 20.06 220.53 19.468C220.839 18.8707 221.261 18.42 221.794 18.116C222.333 17.812 222.946 17.66 223.634 17.66C224.317 17.66 224.925 17.812 225.458 18.116C225.997 18.42 226.418 18.8707 226.722 19.468C227.031 20.06 227.186 20.796 227.186 21.676C227.186 22.5507 227.031 23.2867 226.722 23.884C226.418 24.4813 225.997 24.932 225.458 25.236C224.925 25.54 224.317 25.692 223.634 25.692ZM223.602 24.604C224.098 24.604 224.519 24.4867 224.866 24.252C225.213 24.012 225.474 23.6733 225.65 23.236C225.831 22.7987 225.922 22.2787 225.922 21.676C225.922 20.764 225.733 20.0467 225.354 19.524C224.975 18.996 224.413 18.732 223.666 18.732C223.165 18.732 222.741 18.852 222.394 19.092C222.053 19.3267 221.791 19.6653 221.61 20.108C221.434 20.5453 221.346 21.068 221.346 21.676C221.346 22.5773 221.535 23.292 221.914 23.82C222.298 24.3427 222.861 24.604 223.602 24.604ZM102.559 45.5V35.116H106.223C107.391 35.116 108.301 35.404 108.951 35.98C109.607 36.556 109.935 37.372 109.935 38.428C109.935 39.4733 109.607 40.284 108.951 40.86C108.301 41.436 107.391 41.724 106.223 41.724H104.463V45.5H102.559ZM104.463 40.076H106.223C106.81 40.076 107.253 39.9213 107.551 39.612C107.85 39.3027 107.999 38.908 107.999 38.428C107.999 37.9373 107.85 37.5347 107.551 37.22C107.253 36.9053 106.81 36.748 106.223 36.748H104.463V40.076ZM116.017 45.724C115.094 45.724 114.278 45.5213 113.569 45.116C112.865 44.7107 112.313 44.1053 111.913 43.3C111.513 42.4947 111.313 41.4947 111.313 40.3C111.313 39.084 111.513 38.0787 111.913 37.284C112.313 36.484 112.865 35.8893 113.569 35.5C114.278 35.1053 115.094 34.908 116.017 34.908C116.945 34.908 117.763 35.1107 118.473 35.516C119.182 35.916 119.737 36.516 120.137 37.316C120.537 38.116 120.737 39.1107 120.737 40.3C120.737 41.5107 120.537 42.5187 120.137 43.324C119.737 44.1293 119.182 44.732 118.473 45.132C117.763 45.5267 116.945 45.724 116.017 45.724ZM116.017 44.012C116.865 44.012 117.537 43.692 118.033 43.052C118.534 42.412 118.785 41.4893 118.785 40.284C118.785 39.1213 118.534 38.2173 118.033 37.572C117.537 36.9267 116.865 36.604 116.017 36.604C115.185 36.604 114.518 36.9293 114.017 37.58C113.515 38.2253 113.265 39.132 113.265 40.3C113.265 41.5 113.515 42.42 114.017 43.06C114.518 43.6947 115.185 44.012 116.017 44.012ZM121.739 36.748V35.116H130.059V36.748H126.419L126.843 36.316V45.5H124.955V36.316L125.379 36.748H121.739ZM130.399 36.748V35.116H138.719V36.748H135.079L135.503 36.316V45.5H133.615V36.316L134.039 36.748H130.399ZM140.435 45.5V35.116H147.107V36.748H142.323V39.484H146.819V41.116H142.323V43.852H147.107V45.5H140.435ZM150.001 45.5V35.116H153.841C155.084 35.116 156.036 35.4067 156.697 35.988C157.364 36.5693 157.697 37.34 157.697 38.3C157.697 39.244 157.364 40.0067 156.697 40.588C156.036 41.164 155.084 41.452 153.841 41.452H151.889V45.5H150.001ZM155.617 45.5L152.865 40.636H154.881L158.081 45.5H155.617ZM151.889 40.188H153.649C154.342 40.188 154.868 40.0307 155.225 39.716C155.582 39.396 155.761 38.9827 155.761 38.476C155.761 37.9587 155.598 37.5427 155.273 37.228C154.948 36.908 154.47 36.748 153.841 36.748H151.889V40.188ZM159.082 35.116H161.322L163.802 39.58H163.434L166.01 35.116H168.234L164.538 41.212V45.5H162.65V41.212L159.082 35.116ZM174.216 45.5V35.116H180.76V36.748H176.104V39.484H180.36V41.1H176.104V45.5H174.216ZM183.126 45.5V35.116H185.014V45.5H183.126ZM188.129 35.116H190.193L194.913 42.524H194.769V35.116H196.657V45.5H194.737L189.713 37.644H190.017V45.5H188.129V35.116ZM199.789 45.5V35.116H201.677V45.5H199.789ZM208.44 45.724C207.72 45.724 207.056 45.5987 206.448 45.348C205.846 45.0973 205.355 44.716 204.976 44.204C204.603 43.692 204.403 43.0413 204.376 42.252H206.232C206.232 42.652 206.331 42.98 206.528 43.236C206.726 43.492 206.99 43.684 207.32 43.812C207.656 43.9347 208.024 43.996 208.424 43.996C208.808 43.996 209.15 43.9453 209.448 43.844C209.752 43.7427 209.99 43.5987 210.16 43.412C210.336 43.22 210.424 42.9933 210.424 42.732C210.424 42.3853 210.318 42.1133 210.104 41.916C209.896 41.7187 209.56 41.5373 209.096 41.372L207.048 40.556C206.248 40.2413 205.635 39.876 205.208 39.46C204.782 39.044 204.568 38.4707 204.568 37.74C204.568 36.8973 204.902 36.2147 205.568 35.692C206.235 35.1693 207.166 34.908 208.36 34.908C209.523 34.908 210.422 35.18 211.056 35.724C211.691 36.2627 212.051 37.0147 212.136 37.98H210.28C210.211 37.5693 210.024 37.2413 209.72 36.996C209.416 36.7453 208.963 36.62 208.36 36.62C207.827 36.62 207.406 36.732 207.096 36.956C206.787 37.1747 206.632 37.452 206.632 37.788C206.632 38.076 206.728 38.3053 206.92 38.476C207.118 38.6413 207.422 38.8013 207.832 38.956L210.104 39.836C210.872 40.1347 211.462 40.5107 211.872 40.964C212.283 41.4173 212.488 41.9853 212.488 42.668C212.488 43.292 212.331 43.8333 212.016 44.292C211.702 44.7453 211.243 45.0973 210.64 45.348C210.038 45.5987 209.304 45.724 208.44 45.724ZM215.187 35.116H217.075V39.452H221.603V35.116H223.491V45.5H221.603V41.1H217.075V45.5H215.187V35.116ZM225.621 44.756C225.621 44.5053 225.709 44.2893 225.885 44.108C226.061 43.9267 226.282 43.836 226.549 43.836C226.815 43.836 227.042 43.9267 227.229 44.108C227.415 44.2893 227.509 44.5053 227.509 44.756C227.509 45.0067 227.415 45.2173 227.229 45.388C227.042 45.5587 226.815 45.644 226.549 45.644C226.282 45.644 226.061 45.5587 225.885 45.388C225.709 45.212 225.621 45.0013 225.621 44.756Z" fill="#333333"/>
</g>
<defs>
<filter id="filter0_d_7093_6117" x="85" y="0" width="170.768" height="68" filterUnits="userSpaceOnUse" color-interpolation-filters="sRGB">
<feFlood flood-opacity="0" result="BackgroundImageFix"/>
<feColorMatrix in="SourceAlpha" type="matrix" values="0 0 0 0 0 0 0 0 0 0 0 0 0 0 0 0 0 0 127 0" result="hardAlpha"/>
<feOffset dy="4"/>
<feGaussianBlur stdDeviation="3"/>
<feComposite in2="hardAlpha" operator="out"/>
<feColorMatrix type="matrix" values="0 0 0 0 0 0 0 0 0 0 0 0 0 0 0 0 0 0 0.1 0"/>
<feBlend mode="normal" in2="BackgroundImageFix" result="effect1_dropShadow_7093_6117"/>
<feBlend mode="normal" in="SourceGraphic" in2="effect1_dropShadow_7093_6117" result="shape"/>
</filter>
<filter id="filter1_d_7093_6117" x="96.5596" y="13.2764" width="136.949" height="42.4473" filterUnits="userSpaceOnUse" color-interpolation-filters="sRGB">
<feFlood flood-opacity="0" result="BackgroundImageFix"/>
<feColorMatrix in="SourceAlpha" type="matrix" values="0 0 0 0 0 0 0 0 0 0 0 0 0 0 0 0 0 0 127 0" result="hardAlpha"/>
<feOffset dy="4"/>
<feGaussianBlur stdDeviation="3"/>
<feComposite in2="hardAlpha" operator="out"/>
<feColorMatrix type="matrix" values="0 0 0 0 0 0 0 0 0 0 0 0 0 0 0 0 0 0 0.05 0"/>
<feBlend mode="normal" in2="BackgroundImageFix" result="effect1_dropShadow_7093_6117"/>
<feBlend mode="normal" in="SourceGraphic" in2="effect1_dropShadow_7093_6117" result="shape"/>
</filter>
</defs>
</svg>
