<svg width="257" height="88" viewBox="0 0 257 88" fill="none" xmlns="http://www.w3.org/2000/svg">
<path d="M7.04333 42.6331L16.7674 51V69C16.7674 73.9706 20.7968 78 25.7674 78L247.035 78C252.005 78 256.035 73.9706 256.035 69V11C256.035 6.02944 252.005 2 247.035 2L25.7674 2C20.7968 2 16.7674 6.02944 16.7674 11L16.7674 30.5L7.15555 37.9931C5.66179 39.1575 5.60761 41.3978 7.04333 42.6331Z" fill="white"/>
<g filter="url(#filter0_d_7073_5870)">
<mask id="path-2-inside-1_7073_5870" fill="white">
<path d="M7.04333 42.6331L16.7674 51V69C16.7674 73.9706 20.7968 78 25.7674 78L171.035 78C176.005 78 180.035 73.9706 180.035 69V11C180.035 6.02944 176.005 2 171.035 2L25.7674 2C20.7968 2 16.7674 6.02944 16.7674 11L16.7674 30.5L7.15555 37.9931C5.66179 39.1575 5.60761 41.3978 7.04333 42.6331Z"/>
</mask>
<path d="M7.04333 42.6331L16.7674 51V69C16.7674 73.9706 20.7968 78 25.7674 78L171.035 78C176.005 78 180.035 73.9706 180.035 69V11C180.035 6.02944 176.005 2 171.035 2L25.7674 2C20.7968 2 16.7674 6.02944 16.7674 11L16.7674 30.5L7.15555 37.9931C5.66179 39.1575 5.60761 41.3978 7.04333 42.6331Z" fill="white"/>
<path d="M16.7674 51H18.1674V50.3577L17.6805 49.9388L16.7674 51ZM7.04333 42.6331L6.13021 43.6944H6.13021L7.04333 42.6331ZM7.15555 37.9931L6.2948 36.8889H6.2948L7.15555 37.9931ZM16.7674 30.5L17.6281 31.6041L18.1674 31.1838V30.5H16.7674ZM25.7674 2V0.6V2ZM171.035 2V3.4V2ZM17.6805 49.9388L7.95644 41.5719L6.13021 43.6944L15.8542 52.0612L17.6805 49.9388ZM8.0163 39.0972L17.6281 31.6041L15.9066 29.3959L6.2948 36.8889L8.0163 39.0972ZM7.95644 41.5719C7.19073 40.9131 7.21963 39.7183 8.0163 39.0972L6.2948 36.8889C4.10396 38.5968 4.02449 41.8825 6.13021 43.6944L7.95644 41.5719ZM25.7674 3.4L171.035 3.4V0.600003L25.7674 0.6V3.4ZM178.635 11V69L181.435 69V11H178.635ZM171.035 76.6L25.7674 76.6V79.4L171.035 79.4V76.6ZM18.1674 30.5L18.1674 11H15.3674L15.3674 30.5H18.1674ZM18.1674 69V51H15.3674L15.3674 69H18.1674ZM25.7674 76.6C21.57 76.6 18.1674 73.1974 18.1674 69H15.3674C15.3674 74.7438 20.0236 79.4 25.7674 79.4V76.6ZM178.635 69C178.635 73.1974 175.232 76.6 171.035 76.6V79.4C176.778 79.4 181.435 74.7438 181.435 69L178.635 69ZM171.035 3.4C175.232 3.4 178.635 6.80264 178.635 11H181.435C181.435 5.25624 176.778 0.600003 171.035 0.600003V3.4ZM25.7674 0.6C20.0236 0.6 15.3674 5.25624 15.3674 11H18.1674C18.1674 6.80264 21.57 3.4 25.7674 3.4V0.6Z" fill="#333333" mask="url(#path-2-inside-1_7073_5870)"/>
</g>
<g filter="url(#filter1_d_7073_5870)">
<path d="M31.224 14.952H32.632L35.24 23.896H34.872L37.544 15.992H38.392L41.032 23.832H40.68L43.672 14.952H45.064L41.512 25H40.2L37.88 18.184H38.12L35.72 25H34.408L31.224 14.952ZM49.3253 25.192C48.6373 25.192 48.0239 25.04 47.4852 24.736C46.9519 24.432 46.5306 23.9813 46.2212 23.384C45.9119 22.7867 45.7572 22.0507 45.7572 21.176C45.7572 20.296 45.9119 19.56 46.2212 18.968C46.5306 18.3707 46.9519 17.92 47.4852 17.616C48.0239 17.312 48.6373 17.16 49.3253 17.16C50.0079 17.16 50.6159 17.312 51.1493 17.616C51.6879 17.92 52.1093 18.3707 52.4132 18.968C52.7226 19.56 52.8773 20.296 52.8773 21.176C52.8773 22.0507 52.7226 22.7867 52.4132 23.384C52.1093 23.9813 51.6879 24.432 51.1493 24.736C50.6159 25.04 50.0079 25.192 49.3253 25.192ZM49.2933 24.104C49.7893 24.104 50.2106 23.9867 50.5573 23.752C50.9039 23.512 51.1652 23.1733 51.3412 22.736C51.5226 22.2987 51.6133 21.7787 51.6133 21.176C51.6133 20.264 51.4239 19.5467 51.0452 19.024C50.6666 18.496 50.1039 18.232 49.3573 18.232C48.8559 18.232 48.4319 18.352 48.0852 18.592C47.7439 18.8267 47.4826 19.1653 47.3012 19.608C47.1253 20.0453 47.0373 20.568 47.0373 21.176C47.0373 22.0773 47.2266 22.792 47.6052 23.32C47.9893 23.8427 48.5519 24.104 49.2933 24.104ZM60.6673 17.336H61.9152V25H60.6673V17.336ZM55.2432 17.336H56.4912V22.104C56.4912 22.744 56.6459 23.2293 56.9552 23.56C57.2699 23.8907 57.7179 24.056 58.2993 24.056C58.7792 24.056 59.1952 23.928 59.5472 23.672C59.9046 23.416 60.1793 23.064 60.3713 22.616C60.5686 22.1627 60.6673 21.6453 60.6673 21.064H61.1312C61.1312 21.9227 61.0059 22.656 60.7552 23.264C60.5099 23.872 60.1606 24.3387 59.7073 24.664C59.2592 24.984 58.7312 25.144 58.1233 25.144C57.5472 25.144 57.0432 25.0373 56.6112 24.824C56.1792 24.6107 55.8432 24.288 55.6032 23.856C55.3632 23.4187 55.2432 22.8667 55.2432 22.2V17.336ZM65.3147 25V14.088H66.5627V25H65.3147ZM72.6951 25.192C72.0765 25.192 71.5085 25.0267 70.9911 24.696C70.4738 24.36 70.0605 23.8907 69.7511 23.288C69.4418 22.68 69.2871 21.9653 69.2871 21.144C69.2871 20.328 69.4391 19.6213 69.7431 19.024C70.0471 18.4267 70.4498 17.968 70.9511 17.648C71.4578 17.3227 72.0125 17.16 72.6151 17.16C73.1751 17.16 73.6658 17.296 74.0871 17.568C74.5138 17.84 74.8445 18.232 75.0791 18.744C75.3138 19.256 75.4311 19.8747 75.4311 20.6H74.9511C74.9511 20.0933 74.8498 19.6667 74.6471 19.32C74.4498 18.9733 74.1911 18.712 73.8711 18.536C73.5511 18.3547 73.2071 18.264 72.8391 18.264C72.4231 18.264 72.0418 18.3813 71.6951 18.616C71.3538 18.8453 71.0791 19.176 70.8711 19.608C70.6685 20.0347 70.5671 20.5467 70.5671 21.144C70.5671 21.752 70.6685 22.2747 70.8711 22.712C71.0791 23.1493 71.3538 23.4853 71.6951 23.72C72.0418 23.9547 72.4231 24.072 72.8391 24.072C73.1858 24.072 73.5191 23.9813 73.8391 23.8C74.1645 23.6187 74.4311 23.3547 74.6391 23.008C74.8471 22.656 74.9511 22.232 74.9511 21.736H75.4311C75.4311 22.4773 75.3085 23.1067 75.0631 23.624C74.8231 24.136 74.4951 24.5253 74.0791 24.792C73.6685 25.0587 73.2071 25.192 72.6951 25.192ZM75.1591 25L74.9511 23.208V14.088H76.1991V25H75.1591ZM82.2964 17.352H83.6884L86.1844 23.912H85.8964L87.8324 17.352H89.1124L86.2324 26.536C85.9924 27.304 85.6724 27.896 85.2724 28.312C84.8724 28.728 84.3604 28.936 83.7364 28.936C83.4004 28.936 83.0804 28.888 82.7764 28.792C82.4777 28.696 82.1684 28.5573 81.8484 28.376V27.224C82.131 27.448 82.403 27.608 82.6644 27.704C82.931 27.8 83.2084 27.848 83.4964 27.848C83.8164 27.848 84.083 27.7467 84.2964 27.544C84.515 27.3413 84.6964 27.08 84.8404 26.76C84.9844 26.4453 85.107 26.1147 85.2084 25.768L85.4324 25L82.2964 17.352ZM93.9415 25.192C93.2535 25.192 92.6402 25.04 92.1015 24.736C91.5682 24.432 91.1468 23.9813 90.8375 23.384C90.5282 22.7867 90.3735 22.0507 90.3735 21.176C90.3735 20.296 90.5282 19.56 90.8375 18.968C91.1468 18.3707 91.5682 17.92 92.1015 17.616C92.6402 17.312 93.2535 17.16 93.9415 17.16C94.6242 17.16 95.2322 17.312 95.7655 17.616C96.3042 17.92 96.7255 18.3707 97.0295 18.968C97.3388 19.56 97.4935 20.296 97.4935 21.176C97.4935 22.0507 97.3388 22.7867 97.0295 23.384C96.7255 23.9813 96.3042 24.432 95.7655 24.736C95.2322 25.04 94.6242 25.192 93.9415 25.192ZM93.9095 24.104C94.4055 24.104 94.8268 23.9867 95.1735 23.752C95.5202 23.512 95.7815 23.1733 95.9575 22.736C96.1388 22.2987 96.2295 21.7787 96.2295 21.176C96.2295 20.264 96.0402 19.5467 95.6615 19.024C95.2828 18.496 94.7202 18.232 93.9735 18.232C93.4722 18.232 93.0482 18.352 92.7015 18.592C92.3602 18.8267 92.0988 19.1653 91.9175 19.608C91.7415 20.0453 91.6535 20.568 91.6535 21.176C91.6535 22.0773 91.8428 22.792 92.2215 23.32C92.6055 23.8427 93.1682 24.104 93.9095 24.104ZM105.283 17.336H106.531V25H105.283V17.336ZM99.8595 17.336H101.107V22.104C101.107 22.744 101.262 23.2293 101.571 23.56C101.886 23.8907 102.334 24.056 102.915 24.056C103.395 24.056 103.811 23.928 104.163 23.672C104.521 23.416 104.795 23.064 104.987 22.616C105.185 22.1627 105.283 21.6453 105.283 21.064H105.747C105.747 21.9227 105.622 22.656 105.371 23.264C105.126 23.872 104.777 24.3387 104.323 24.664C103.875 24.984 103.347 25.144 102.739 25.144C102.163 25.144 101.659 25.0373 101.227 24.824C100.795 24.6107 100.459 24.288 100.219 23.856C99.9795 23.4187 99.8595 22.8667 99.8595 22.2V17.336ZM113.888 25V14.088H115.136V25H113.888ZM119.236 15.544C118.98 15.544 118.778 15.472 118.628 15.328C118.479 15.1787 118.404 14.984 118.404 14.744C118.404 14.5093 118.479 14.3227 118.628 14.184C118.778 14.0453 118.98 13.976 119.236 13.976C119.492 13.976 119.695 14.0453 119.844 14.184C119.994 14.3227 120.068 14.5093 120.068 14.744C120.068 14.984 119.994 15.1787 119.844 15.328C119.695 15.472 119.492 15.544 119.236 15.544ZM118.612 25V17.336H119.86V25H118.612ZM123.458 25V14.088H124.706V25H123.458ZM124.514 20.616L128.418 17.352H130.162L124.514 21.944V20.616ZM128.802 25L125.17 20.168L126.434 19.944L130.338 25H128.802ZM135.29 25.192C134.628 25.192 134.036 25.024 133.514 24.688C132.996 24.3467 132.586 23.8747 132.282 23.272C131.983 22.6693 131.834 21.976 131.834 21.192C131.834 20.3547 131.983 19.6347 132.282 19.032C132.58 18.4293 132.988 17.968 133.506 17.648C134.028 17.3227 134.623 17.16 135.29 17.16C135.871 17.16 136.367 17.2773 136.778 17.512C137.188 17.7467 137.519 18.064 137.77 18.464C138.02 18.864 138.194 19.3173 138.29 19.824C138.391 20.3253 138.42 20.8453 138.378 21.384H132.842V20.616H137.554L137.186 20.856C137.202 20.5413 137.183 20.2267 137.13 19.912C137.082 19.5973 136.988 19.3093 136.85 19.048C136.711 18.7813 136.516 18.568 136.266 18.408C136.015 18.248 135.695 18.168 135.306 18.168C134.815 18.168 134.404 18.2933 134.074 18.544C133.743 18.7947 133.495 19.1253 133.33 19.536C133.164 19.9413 133.082 20.3813 133.082 20.856V21.368C133.082 21.9013 133.162 22.3787 133.322 22.8C133.487 23.2213 133.732 23.5547 134.058 23.8C134.383 24.0453 134.794 24.168 135.29 24.168C135.786 24.168 136.194 24.048 136.514 23.808C136.834 23.568 137.028 23.2133 137.098 22.744H138.394C138.314 23.2507 138.132 23.688 137.85 24.056C137.567 24.4187 137.207 24.6987 136.77 24.896C136.332 25.0933 135.839 25.192 135.29 25.192ZM147.321 25.192C146.905 25.192 146.532 25.112 146.201 24.952C145.87 24.792 145.609 24.552 145.417 24.232C145.225 23.912 145.129 23.512 145.129 23.032V15.224H146.361V23C146.361 23.7893 146.729 24.184 147.465 24.184C147.684 24.184 147.894 24.16 148.097 24.112C148.305 24.064 148.537 23.992 148.793 23.896L148.969 24.792C148.697 24.9093 148.425 25.0053 148.153 25.08C147.886 25.1547 147.609 25.192 147.321 25.192ZM143.897 18.216V17.352H148.777V18.216H143.897ZM153.913 25.192C153.225 25.192 152.611 25.04 152.073 24.736C151.539 24.432 151.118 23.9813 150.809 23.384C150.499 22.7867 150.345 22.0507 150.345 21.176C150.345 20.296 150.499 19.56 150.809 18.968C151.118 18.3707 151.539 17.92 152.073 17.616C152.611 17.312 153.225 17.16 153.913 17.16C154.595 17.16 155.203 17.312 155.737 17.616C156.275 17.92 156.697 18.3707 157.001 18.968C157.31 19.56 157.465 20.296 157.465 21.176C157.465 22.0507 157.31 22.7867 157.001 23.384C156.697 23.9813 156.275 24.432 155.737 24.736C155.203 25.04 154.595 25.192 153.913 25.192ZM153.881 24.104C154.377 24.104 154.798 23.9867 155.145 23.752C155.491 23.512 155.753 23.1733 155.929 22.736C156.11 22.2987 156.201 21.7787 156.201 21.176C156.201 20.264 156.011 19.5467 155.633 19.024C155.254 18.496 154.691 18.232 153.945 18.232C153.443 18.232 153.019 18.352 152.673 18.592C152.331 18.8267 152.07 19.1653 151.889 19.608C151.713 20.0453 151.625 20.568 151.625 21.176C151.625 22.0773 151.814 22.792 152.193 23.32C152.577 23.8427 153.139 24.104 153.881 24.104ZM32.616 45V34.088H33.864V45H32.616ZM33.672 40.616L37.576 37.352H39.32L33.672 41.944V40.616ZM37.96 45L34.328 40.168L35.592 39.944L39.496 45H37.96ZM47.2316 45V40.504C47.2316 39.7733 47.0556 39.2187 46.7036 38.84C46.357 38.456 45.8823 38.264 45.2796 38.264C44.821 38.264 44.4236 38.3893 44.0876 38.64C43.7516 38.8907 43.493 39.2507 43.3116 39.72C43.1303 40.184 43.0396 40.7387 43.0396 41.384H42.5596C42.5596 40.4933 42.677 39.7333 42.9116 39.104C43.1463 38.4747 43.4876 37.9947 43.9356 37.664C44.389 37.328 44.9383 37.16 45.5836 37.16C46.1863 37.16 46.701 37.296 47.1276 37.568C47.5596 37.8347 47.8903 38.2187 48.1196 38.72C48.349 39.2213 48.4636 39.816 48.4636 40.504V45H47.2316ZM41.7916 45V37.352H42.8636L43.0396 39.112V45H41.7916ZM54.3759 45.192C53.6879 45.192 53.0745 45.04 52.5359 44.736C52.0025 44.432 51.5812 43.9813 51.2719 43.384C50.9625 42.7867 50.8079 42.0507 50.8079 41.176C50.8079 40.296 50.9625 39.56 51.2719 38.968C51.5812 38.3707 52.0025 37.92 52.5359 37.616C53.0745 37.312 53.6879 37.16 54.3759 37.16C55.0585 37.16 55.6665 37.312 56.1999 37.616C56.7385 37.92 57.1599 38.3707 57.4639 38.968C57.7732 39.56 57.9279 40.296 57.9279 41.176C57.9279 42.0507 57.7732 42.7867 57.4639 43.384C57.1599 43.9813 56.7385 44.432 56.1999 44.736C55.6665 45.04 55.0585 45.192 54.3759 45.192ZM54.3439 44.104C54.8399 44.104 55.2612 43.9867 55.6079 43.752C55.9545 43.512 56.2159 43.1733 56.3919 42.736C56.5732 42.2987 56.6639 41.7787 56.6639 41.176C56.6639 40.264 56.4745 39.5467 56.0959 39.024C55.7172 38.496 55.1545 38.232 54.4079 38.232C53.9065 38.232 53.4825 38.352 53.1359 38.592C52.7945 38.8267 52.5332 39.1653 52.3519 39.608C52.1759 40.0453 52.0879 40.568 52.0879 41.176C52.0879 42.0773 52.2772 42.792 52.6559 43.32C53.0399 43.8427 53.6025 44.104 54.3439 44.104ZM59.1899 37.352H60.4859L62.4379 43.736H62.2779L64.1819 37.72H65.2219L67.1099 43.752H66.9659L68.9179 37.352H70.1659L67.6539 45H66.4379L64.5819 39.352H64.7739L62.9339 45H61.7179L59.1899 37.352ZM74.9005 37.352H76.1965L78.1485 43.736H77.9885L79.8925 37.72H80.9325L82.8205 43.752H82.6765L84.6285 37.352H85.8765L83.3645 45H82.1485L80.2925 39.352H80.4845L78.6445 45H77.4285L74.9005 37.352ZM93.4222 45V40.504C93.4222 39.7733 93.2462 39.2187 92.8942 38.84C92.5476 38.456 92.0729 38.264 91.4702 38.264C91.0116 38.264 90.6142 38.3893 90.2782 38.64C89.9422 38.8907 89.6836 39.2507 89.5022 39.72C89.3209 40.184 89.2302 40.7387 89.2302 41.384H88.7502C88.7502 40.4933 88.8676 39.7333 89.1022 39.104C89.3369 38.4747 89.6782 37.9947 90.1262 37.664C90.5796 37.328 91.1289 37.16 91.7742 37.16C92.3769 37.16 92.8916 37.296 93.3182 37.568C93.7502 37.8347 94.0809 38.2187 94.3102 38.72C94.5396 39.2213 94.6542 39.816 94.6542 40.504V45H93.4222ZM87.9822 45V34.088H89.2302V45H87.9822ZM100.455 45.192C99.7932 45.192 99.2012 45.024 98.6785 44.688C98.1612 44.3467 97.7505 43.8747 97.4465 43.272C97.1478 42.6693 96.9985 41.976 96.9985 41.192C96.9985 40.3547 97.1478 39.6347 97.4465 39.032C97.7452 38.4293 98.1532 37.968 98.6705 37.648C99.1932 37.3227 99.7878 37.16 100.455 37.16C101.036 37.16 101.532 37.2773 101.943 37.512C102.353 37.7467 102.684 38.064 102.935 38.464C103.185 38.864 103.359 39.3173 103.455 39.824C103.556 40.3253 103.585 40.8453 103.543 41.384H98.0065V40.616H102.719L102.351 40.856C102.367 40.5413 102.348 40.2267 102.295 39.912C102.247 39.5973 102.153 39.3093 102.015 39.048C101.876 38.7813 101.681 38.568 101.431 38.408C101.18 38.248 100.86 38.168 100.471 38.168C99.9798 38.168 99.5692 38.2933 99.2385 38.544C98.9078 38.7947 98.6598 39.1253 98.4945 39.536C98.3292 39.9413 98.2465 40.3813 98.2465 40.856V41.368C98.2465 41.9013 98.3265 42.3787 98.4865 42.8C98.6518 43.2213 98.8972 43.5547 99.2225 43.8C99.5478 44.0453 99.9585 44.168 100.455 44.168C100.951 44.168 101.359 44.048 101.679 43.808C101.999 43.568 102.193 43.2133 102.263 42.744H103.559C103.479 43.2507 103.297 43.688 103.015 44.056C102.732 44.4187 102.372 44.6987 101.935 44.896C101.497 45.0933 101.004 45.192 100.455 45.192ZM106.177 45V37.336H107.425V45H106.177ZM107.041 41.544C107.041 40.5733 107.135 39.768 107.321 39.128C107.508 38.4827 107.78 38.0027 108.137 37.688C108.5 37.368 108.94 37.208 109.457 37.208C109.628 37.208 109.783 37.2213 109.921 37.248C110.065 37.2693 110.209 37.304 110.353 37.352L110.273 38.584C110.124 38.536 109.961 38.496 109.785 38.464C109.609 38.4267 109.452 38.408 109.313 38.408C108.86 38.408 108.495 38.5387 108.217 38.8C107.94 39.056 107.737 39.4187 107.609 39.888C107.487 40.3573 107.425 40.9093 107.425 41.544H107.041ZM114.775 45.192C114.113 45.192 113.521 45.024 112.999 44.688C112.481 44.3467 112.071 43.8747 111.767 43.272C111.468 42.6693 111.319 41.976 111.319 41.192C111.319 40.3547 111.468 39.6347 111.767 39.032C112.065 38.4293 112.473 37.968 112.991 37.648C113.513 37.3227 114.108 37.16 114.775 37.16C115.356 37.16 115.852 37.2773 116.263 37.512C116.673 37.7467 117.004 38.064 117.255 38.464C117.505 38.864 117.679 39.3173 117.775 39.824C117.876 40.3253 117.905 40.8453 117.863 41.384H112.327V40.616H117.039L116.671 40.856C116.687 40.5413 116.668 40.2267 116.615 39.912C116.567 39.5973 116.473 39.3093 116.335 39.048C116.196 38.7813 116.001 38.568 115.751 38.408C115.5 38.248 115.18 38.168 114.791 38.168C114.3 38.168 113.889 38.2933 113.559 38.544C113.228 38.7947 112.98 39.1253 112.815 39.536C112.649 39.9413 112.567 40.3813 112.567 40.856V41.368C112.567 41.9013 112.647 42.3787 112.807 42.8C112.972 43.2213 113.217 43.5547 113.543 43.8C113.868 44.0453 114.279 44.168 114.775 44.168C115.271 44.168 115.679 44.048 115.999 43.808C116.319 43.568 116.513 43.2133 116.583 42.744H117.879C117.799 43.2507 117.617 43.688 117.335 44.056C117.052 44.4187 116.692 44.6987 116.255 44.896C115.817 45.0933 115.324 45.192 114.775 45.192ZM31.352 57.352H32.744L35.24 63.912H34.952L36.888 57.352H38.168L35.288 66.536C35.048 67.304 34.728 67.896 34.328 68.312C33.928 68.728 33.416 68.936 32.792 68.936C32.456 68.936 32.136 68.888 31.832 68.792C31.5333 68.696 31.224 68.5573 30.904 68.376V67.224C31.1867 67.448 31.4587 67.608 31.72 67.704C31.9867 67.8 32.264 67.848 32.552 67.848C32.872 67.848 33.1387 67.7467 33.352 67.544C33.5707 67.3413 33.752 67.08 33.896 66.76C34.04 66.4453 34.1627 66.1147 34.264 65.768L34.488 65L31.352 57.352ZM42.9971 65.192C42.3091 65.192 41.6958 65.04 41.1571 64.736C40.6238 64.432 40.2025 63.9813 39.8931 63.384C39.5838 62.7867 39.4291 62.0507 39.4291 61.176C39.4291 60.296 39.5838 59.56 39.8931 58.968C40.2025 58.3707 40.6238 57.92 41.1571 57.616C41.6958 57.312 42.3091 57.16 42.9971 57.16C43.6798 57.16 44.2878 57.312 44.8211 57.616C45.3598 57.92 45.7811 58.3707 46.0851 58.968C46.3945 59.56 46.5491 60.296 46.5491 61.176C46.5491 62.0507 46.3945 62.7867 46.0851 63.384C45.7811 63.9813 45.3598 64.432 44.8211 64.736C44.2878 65.04 43.6798 65.192 42.9971 65.192ZM42.9651 64.104C43.4611 64.104 43.8825 63.9867 44.2291 63.752C44.5758 63.512 44.8371 63.1733 45.0131 62.736C45.1945 62.2987 45.2851 61.7787 45.2851 61.176C45.2851 60.264 45.0958 59.5467 44.7171 59.024C44.3385 58.496 43.7758 58.232 43.0291 58.232C42.5278 58.232 42.1038 58.352 41.7571 58.592C41.4158 58.8267 41.1545 59.1653 40.9731 59.608C40.7971 60.0453 40.7091 60.568 40.7091 61.176C40.7091 62.0773 40.8985 62.792 41.2771 63.32C41.6611 63.8427 42.2238 64.104 42.9651 64.104ZM54.3391 57.336H55.5871V65H54.3391V57.336ZM48.9151 57.336H50.1631V62.104C50.1631 62.744 50.3178 63.2293 50.6271 63.56C50.9418 63.8907 51.3898 64.056 51.9711 64.056C52.4511 64.056 52.8671 63.928 53.2191 63.672C53.5765 63.416 53.8511 63.064 54.0431 62.616C54.2405 62.1627 54.3391 61.6453 54.3391 61.064H54.8031C54.8031 61.9227 54.6778 62.656 54.4271 63.264C54.1818 63.872 53.8325 64.3387 53.3791 64.664C52.9311 64.984 52.4031 65.144 51.7951 65.144C51.2191 65.144 50.7151 65.0373 50.2831 64.824C49.8511 64.6107 49.5151 64.288 49.2751 63.856C49.0351 63.4187 48.9151 62.8667 48.9151 62.2V57.336ZM65.6315 65.192C65.0182 65.192 64.4448 65.0267 63.9115 64.696C63.3835 64.3653 62.9568 63.8987 62.6315 63.296C62.3062 62.6933 62.1435 61.9813 62.1435 61.16C62.1435 60.3173 62.3062 59.5973 62.6315 59C62.9568 58.4027 63.3835 57.9467 63.9115 57.632C64.4448 57.3173 65.0182 57.16 65.6315 57.16C66.0635 57.16 66.4502 57.2267 66.7915 57.36C67.1382 57.488 67.4395 57.6667 67.6955 57.896C67.9515 58.1253 68.1622 58.3867 68.3275 58.68C68.4982 58.968 68.6235 59.272 68.7035 59.592L67.4235 59.704C67.2902 59.2613 67.0662 58.912 66.7515 58.656C66.4422 58.3947 66.0635 58.264 65.6155 58.264C65.2368 58.264 64.8795 58.3733 64.5435 58.592C64.2128 58.8053 63.9435 59.128 63.7355 59.56C63.5275 59.9867 63.4235 60.52 63.4235 61.16C63.4235 61.752 63.5168 62.2667 63.7035 62.704C63.8955 63.136 64.1568 63.472 64.4875 63.712C64.8182 63.952 65.1942 64.072 65.6155 64.072C66.2075 64.072 66.6555 63.928 66.9595 63.64C67.2688 63.3467 67.4235 62.9413 67.4235 62.424H68.7035C68.7035 62.9573 68.5782 63.432 68.3275 63.848C68.0768 64.264 67.7195 64.592 67.2555 64.832C66.7968 65.072 66.2555 65.192 65.6315 65.192ZM76.0895 65L75.9295 63.32V60.04C75.9295 59.352 75.7828 58.8587 75.4895 58.56C75.1962 58.256 74.7562 58.104 74.1695 58.104C73.8388 58.104 73.5375 58.152 73.2655 58.248C72.9988 58.344 72.7855 58.4933 72.6255 58.696C72.4708 58.8933 72.3935 59.1493 72.3935 59.464H71.0015C71.0015 58.9093 71.1375 58.464 71.4095 58.128C71.6815 57.7867 72.0548 57.5413 72.5295 57.392C73.0095 57.2373 73.5562 57.16 74.1695 57.16C74.7562 57.16 75.2762 57.2587 75.7295 57.456C76.1828 57.6533 76.5375 57.968 76.7935 58.4C77.0495 58.8267 77.1775 59.384 77.1775 60.072V65H76.0895ZM73.4815 65.192C72.8522 65.192 72.3322 65.08 71.9215 64.856C71.5108 64.632 71.2042 64.3413 71.0015 63.984C70.7988 63.6267 70.6975 63.2507 70.6975 62.856C70.6975 62.3387 70.8255 61.9173 71.0815 61.592C71.3428 61.2667 71.6975 61.0293 72.1455 60.88C72.5935 60.7253 73.0975 60.648 73.6575 60.648C74.0575 60.648 74.4575 60.688 74.8575 60.768C75.2628 60.848 75.6575 60.9573 76.0415 61.096V61.88C75.7215 61.752 75.3588 61.6507 74.9535 61.576C74.5535 61.5013 74.1855 61.464 73.8495 61.464C73.3375 61.464 72.9055 61.5707 72.5535 61.784C72.2015 61.992 72.0255 62.3493 72.0255 62.856C72.0255 63.2293 72.1588 63.5493 72.4255 63.816C72.6975 64.0827 73.1295 64.216 73.7215 64.216C74.1375 64.216 74.5108 64.12 74.8415 63.928C75.1775 63.7307 75.4415 63.4853 75.6335 63.192C75.8308 62.8987 75.9295 62.6053 75.9295 62.312H76.2335C76.2335 62.824 76.1215 63.2987 75.8975 63.736C75.6788 64.1733 75.3642 64.5253 74.9535 64.792C74.5428 65.0587 74.0522 65.192 73.4815 65.192ZM85.766 65V60.504C85.766 59.7733 85.59 59.2187 85.238 58.84C84.8913 58.456 84.4167 58.264 83.814 58.264C83.3553 58.264 82.958 58.3893 82.622 58.64C82.286 58.8907 82.0273 59.2507 81.846 59.72C81.6647 60.184 81.574 60.7387 81.574 61.384H81.094C81.094 60.4933 81.2113 59.7333 81.446 59.104C81.6807 58.4747 82.022 57.9947 82.47 57.664C82.9233 57.328 83.4727 57.16 84.118 57.16C84.7207 57.16 85.2353 57.296 85.662 57.568C86.094 57.8347 86.4247 58.2187 86.654 58.72C86.8833 59.2213 86.998 59.816 86.998 60.504V65H85.766ZM80.326 65V57.352H81.398L81.574 59.112V65H80.326ZM99.5391 65V60.504C99.5391 59.7733 99.3631 59.2187 99.0111 58.84C98.6645 58.456 98.1898 58.264 97.5871 58.264C97.1285 58.264 96.7311 58.3893 96.3951 58.64C96.0591 58.8907 95.8005 59.2507 95.6191 59.72C95.4378 60.184 95.3471 60.7387 95.3471 61.384H94.8671C94.8671 60.4933 94.9845 59.7333 95.2191 59.104C95.4538 58.4747 95.7951 57.9947 96.2431 57.664C96.6965 57.328 97.2458 57.16 97.8911 57.16C98.4938 57.16 99.0085 57.296 99.4351 57.568C99.8671 57.8347 100.198 58.2187 100.427 58.72C100.656 59.2213 100.771 59.816 100.771 60.504V65H99.5391ZM94.0991 65V57.352H95.1711L95.3471 59.112V65H94.0991ZM108.651 65L108.491 63.32V60.04C108.491 59.352 108.345 58.8587 108.051 58.56C107.758 58.256 107.318 58.104 106.731 58.104C106.401 58.104 106.099 58.152 105.827 58.248C105.561 58.344 105.347 58.4933 105.187 58.696C105.033 58.8933 104.955 59.1493 104.955 59.464H103.563C103.563 58.9093 103.699 58.464 103.971 58.128C104.243 57.7867 104.617 57.5413 105.091 57.392C105.571 57.2373 106.118 57.16 106.731 57.16C107.318 57.16 107.838 57.2587 108.291 57.456C108.745 57.6533 109.099 57.968 109.355 58.4C109.611 58.8267 109.739 59.384 109.739 60.072V65H108.651ZM106.043 65.192C105.414 65.192 104.894 65.08 104.483 64.856C104.073 64.632 103.766 64.3413 103.563 63.984C103.361 63.6267 103.259 63.2507 103.259 62.856C103.259 62.3387 103.387 61.9173 103.643 61.592C103.905 61.2667 104.259 61.0293 104.707 60.88C105.155 60.7253 105.659 60.648 106.219 60.648C106.619 60.648 107.019 60.688 107.419 60.768C107.825 60.848 108.219 60.9573 108.603 61.096V61.88C108.283 61.752 107.921 61.6507 107.515 61.576C107.115 61.5013 106.747 61.464 106.411 61.464C105.899 61.464 105.467 61.5707 105.115 61.784C104.763 61.992 104.587 62.3493 104.587 62.856C104.587 63.2293 104.721 63.5493 104.987 63.816C105.259 64.0827 105.691 64.216 106.283 64.216C106.699 64.216 107.073 64.12 107.403 63.928C107.739 63.7307 108.003 63.4853 108.195 63.192C108.393 62.8987 108.491 62.6053 108.491 62.312H108.795C108.795 62.824 108.683 63.2987 108.459 63.736C108.241 64.1733 107.926 64.5253 107.515 64.792C107.105 65.0587 106.614 65.192 106.043 65.192ZM111.56 57.352H112.984L115.384 63.928H115.208L117.608 57.352H119.032L115.976 65H114.616L111.56 57.352ZM121.799 55.544C121.543 55.544 121.34 55.472 121.191 55.328C121.041 55.1787 120.967 54.984 120.967 54.744C120.967 54.5093 121.041 54.3227 121.191 54.184C121.34 54.0453 121.543 53.976 121.799 53.976C122.055 53.976 122.257 54.0453 122.407 54.184C122.556 54.3227 122.631 54.5093 122.631 54.744C122.631 54.984 122.556 55.1787 122.407 55.328C122.257 55.472 122.055 55.544 121.799 55.544ZM121.175 65V57.336H122.423V65H121.175ZM128.724 68.936C127.94 68.936 127.26 68.824 126.684 68.6C126.108 68.3813 125.66 68.0853 125.34 67.712C125.026 67.344 124.868 66.936 124.868 66.488C124.868 65.896 125.084 65.4427 125.516 65.128C125.954 64.8187 126.516 64.664 127.204 64.664L127.892 65.096C127.316 65.096 126.871 65.216 126.556 65.456C126.242 65.696 126.084 66.024 126.084 66.44C126.084 66.856 126.308 67.208 126.756 67.496C127.204 67.784 127.86 67.928 128.724 67.928C129.364 67.928 129.924 67.8347 130.404 67.648C130.89 67.4667 131.266 67.2267 131.532 66.928C131.804 66.6347 131.94 66.3173 131.94 65.976C131.94 65.736 131.852 65.528 131.676 65.352C131.5 65.1813 131.231 65.096 130.868 65.096H127.892C127.375 65.096 126.927 65.0187 126.548 64.864C126.175 64.704 125.887 64.496 125.684 64.24C125.482 63.984 125.38 63.704 125.38 63.4C125.38 63.08 125.471 62.808 125.652 62.584C125.834 62.36 126.068 62.1893 126.356 62.072C126.65 61.9547 126.964 61.896 127.3 61.896L127.54 62.36C127.38 62.36 127.218 62.3973 127.052 62.472C126.892 62.5413 126.756 62.648 126.644 62.792C126.538 62.9307 126.484 63.1067 126.484 63.32C126.484 63.5653 126.586 63.7707 126.788 63.936C126.991 64.1013 127.359 64.184 127.892 64.184H130.868C131.588 64.184 132.154 64.336 132.564 64.64C132.98 64.944 133.188 65.368 133.188 65.912C133.188 66.4133 133.01 66.8933 132.652 67.352C132.295 67.816 131.783 68.1947 131.116 68.488C130.45 68.7867 129.652 68.936 128.724 68.936ZM128.948 62.76C128.362 62.76 127.831 62.6427 127.356 62.408C126.887 62.1733 126.514 61.8453 126.236 61.424C125.964 61.0027 125.828 60.5147 125.828 59.96C125.828 59.4 125.964 58.9093 126.236 58.488C126.514 58.0667 126.887 57.7413 127.356 57.512C127.831 57.2773 128.362 57.16 128.948 57.16C129.519 57.16 130.036 57.2773 130.5 57.512C130.97 57.7413 131.343 58.0667 131.62 58.488C131.898 58.9093 132.036 59.4 132.036 59.96C132.036 60.5147 131.898 61.0027 131.62 61.424C131.343 61.8453 130.97 62.1733 130.5 62.408C130.036 62.6427 129.519 62.76 128.948 62.76ZM128.948 61.864C129.535 61.864 129.991 61.6827 130.316 61.32C130.642 60.9573 130.804 60.504 130.804 59.96C130.804 59.4 130.642 58.9467 130.316 58.6C129.991 58.248 129.535 58.072 128.948 58.072C128.367 58.072 127.908 58.248 127.572 58.6C127.242 58.9467 127.076 59.4 127.076 59.96C127.076 60.504 127.242 60.9573 127.572 61.32C127.908 61.6827 128.367 61.864 128.948 61.864ZM131.46 58.376L130.868 58.136C130.868 57.688 130.956 57.296 131.132 56.96C131.308 56.6187 131.559 56.3547 131.884 56.168C132.21 55.976 132.596 55.88 133.044 55.88L132.948 57.112C132.468 57.112 132.1 57.216 131.844 57.424C131.588 57.6267 131.46 57.944 131.46 58.376ZM139.948 65L139.788 63.32V60.04C139.788 59.352 139.641 58.8587 139.348 58.56C139.054 58.256 138.614 58.104 138.028 58.104C137.697 58.104 137.396 58.152 137.124 58.248C136.857 58.344 136.644 58.4933 136.484 58.696C136.329 58.8933 136.252 59.1493 136.252 59.464H134.86C134.86 58.9093 134.996 58.464 135.268 58.128C135.54 57.7867 135.913 57.5413 136.388 57.392C136.868 57.2373 137.414 57.16 138.028 57.16C138.614 57.16 139.134 57.2587 139.588 57.456C140.041 57.6533 140.396 57.968 140.652 58.4C140.908 58.8267 141.036 59.384 141.036 60.072V65H139.948ZM137.34 65.192C136.71 65.192 136.19 65.08 135.78 64.856C135.369 64.632 135.062 64.3413 134.86 63.984C134.657 63.6267 134.556 63.2507 134.556 62.856C134.556 62.3387 134.684 61.9173 134.94 61.592C135.201 61.2667 135.556 61.0293 136.004 60.88C136.452 60.7253 136.956 60.648 137.516 60.648C137.916 60.648 138.316 60.688 138.716 60.768C139.121 60.848 139.516 60.9573 139.9 61.096V61.88C139.58 61.752 139.217 61.6507 138.812 61.576C138.412 61.5013 138.044 61.464 137.708 61.464C137.196 61.464 136.764 61.5707 136.412 61.784C136.06 61.992 135.884 62.3493 135.884 62.856C135.884 63.2293 136.017 63.5493 136.284 63.816C136.556 64.0827 136.988 64.216 137.58 64.216C137.996 64.216 138.369 64.12 138.7 63.928C139.036 63.7307 139.3 63.4853 139.492 63.192C139.689 62.8987 139.788 62.6053 139.788 62.312H140.092C140.092 62.824 139.98 63.2987 139.756 63.736C139.537 64.1733 139.222 64.5253 138.812 64.792C138.401 65.0587 137.91 65.192 137.34 65.192ZM146.536 65.192C146.12 65.192 145.747 65.112 145.416 64.952C145.085 64.792 144.824 64.552 144.632 64.232C144.44 63.912 144.344 63.512 144.344 63.032V55.224H145.576V63C145.576 63.7893 145.944 64.184 146.68 64.184C146.899 64.184 147.109 64.16 147.312 64.112C147.52 64.064 147.752 63.992 148.008 63.896L148.184 64.792C147.912 64.9093 147.64 65.0053 147.368 65.08C147.101 65.1547 146.824 65.192 146.536 65.192ZM143.112 58.216V57.352H147.992V58.216H143.112ZM153.016 65.192C152.354 65.192 151.762 65.024 151.24 64.688C150.722 64.3467 150.312 63.8747 150.008 63.272C149.709 62.6693 149.56 61.976 149.56 61.192C149.56 60.3547 149.709 59.6347 150.008 59.032C150.306 58.4293 150.714 57.968 151.232 57.648C151.754 57.3227 152.349 57.16 153.016 57.16C153.597 57.16 154.093 57.2773 154.504 57.512C154.914 57.7467 155.245 58.064 155.496 58.464C155.746 58.864 155.92 59.3173 156.016 59.824C156.117 60.3253 156.146 60.8453 156.104 61.384H150.568V60.616H155.28L154.912 60.856C154.928 60.5413 154.909 60.2267 154.856 59.912C154.808 59.5973 154.714 59.3093 154.576 59.048C154.437 58.7813 154.242 58.568 153.992 58.408C153.741 58.248 153.421 58.168 153.032 58.168C152.541 58.168 152.13 58.2933 151.8 58.544C151.469 58.7947 151.221 59.1253 151.056 59.536C150.89 59.9413 150.808 60.3813 150.808 60.856V61.368C150.808 61.9013 150.888 62.3787 151.048 62.8C151.213 63.2213 151.458 63.5547 151.784 63.8C152.109 64.0453 152.52 64.168 153.016 64.168C153.512 64.168 153.92 64.048 154.24 63.808C154.56 63.568 154.754 63.2133 154.824 62.744H156.12C156.04 63.2507 155.858 63.688 155.576 64.056C155.293 64.4187 154.933 64.6987 154.496 64.896C154.058 65.0933 153.565 65.192 153.016 65.192ZM159.954 62.44V61.72C159.954 61.256 160.002 60.8747 160.098 60.576C160.2 60.2773 160.365 60.0187 160.594 59.8C160.824 59.5813 161.138 59.3627 161.538 59.144C161.896 58.952 162.181 58.7733 162.394 58.608C162.608 58.4427 162.76 58.264 162.85 58.072C162.946 57.88 162.994 57.6453 162.994 57.368C162.994 56.952 162.824 56.6053 162.482 56.328C162.146 56.0507 161.682 55.912 161.09 55.912C160.434 55.912 159.933 56.0427 159.586 56.304C159.24 56.56 159.021 56.92 158.93 57.384H157.602C157.677 56.6053 158.002 55.976 158.578 55.496C159.16 55.016 159.986 54.776 161.058 54.776C161.741 54.776 162.328 54.896 162.818 55.136C163.314 55.3707 163.693 55.688 163.954 56.088C164.221 56.4827 164.354 56.92 164.354 57.4C164.354 57.9493 164.216 58.4107 163.938 58.784C163.661 59.152 163.213 59.5013 162.594 59.832C162.237 60.0293 161.954 60.2133 161.746 60.384C161.544 60.5493 161.4 60.7413 161.314 60.96C161.229 61.1733 161.186 61.4533 161.186 61.8V62.44H159.954ZM160.594 65.192C160.328 65.192 160.106 65.1067 159.93 64.936C159.754 64.76 159.666 64.5493 159.666 64.304C159.666 64.0533 159.752 63.8373 159.922 63.656C160.098 63.4747 160.32 63.384 160.586 63.384C160.853 63.384 161.08 63.4747 161.266 63.656C161.458 63.832 161.554 64.0453 161.554 64.296C161.554 64.5413 161.461 64.752 161.274 64.928C161.088 65.104 160.861 65.192 160.594 65.192Z" fill="#333333"/>
</g>
<defs>
<filter id="filter0_d_7073_5870" x="0" y="0" width="186.035" height="88" filterUnits="userSpaceOnUse" color-interpolation-filters="sRGB">
<feFlood flood-opacity="0" result="BackgroundImageFix"/>
<feColorMatrix in="SourceAlpha" type="matrix" values="0 0 0 0 0 0 0 0 0 0 0 0 0 0 0 0 0 0 127 0" result="hardAlpha"/>
<feOffset dy="4"/>
<feGaussianBlur stdDeviation="3"/>
<feComposite in2="hardAlpha" operator="out"/>
<feColorMatrix type="matrix" values="0 0 0 0 0 0 0 0 0 0 0 0 0 0 0 0 0 0 0.1 0"/>
<feBlend mode="normal" in2="BackgroundImageFix" result="effect1_dropShadow_7073_5870"/>
<feBlend mode="normal" in="SourceGraphic" in2="effect1_dropShadow_7073_5870" result="shape"/>
</filter>
<filter id="filter1_d_7073_5870" x="24.9041" y="11.9756" width="145.45" height="66.96" filterUnits="userSpaceOnUse" color-interpolation-filters="sRGB">
<feFlood flood-opacity="0" result="BackgroundImageFix"/>
<feColorMatrix in="SourceAlpha" type="matrix" values="0 0 0 0 0 0 0 0 0 0 0 0 0 0 0 0 0 0 127 0" result="hardAlpha"/>
<feOffset dy="4"/>
<feGaussianBlur stdDeviation="3"/>
<feComposite in2="hardAlpha" operator="out"/>
<feColorMatrix type="matrix" values="0 0 0 0 0 0 0 0 0 0 0 0 0 0 0 0 0 0 0.05 0"/>
<feBlend mode="normal" in2="BackgroundImageFix" result="effect1_dropShadow_7073_5870"/>
<feBlend mode="normal" in="SourceGraphic" in2="effect1_dropShadow_7073_5870" result="shape"/>
</filter>
</defs>
</svg>
