<svg width="256" height="68" viewBox="0 0 256 68" fill="none" xmlns="http://www.w3.org/2000/svg">
<mask id="path-1-inside-1_7093_6117" fill="white">
<path d="M248.724 27.3669L239 19L239 11C239 6.02944 234.971 2 230 2L9.00022 1.99998C4.02965 1.99998 0.000218166 6.02942 0.000217732 11L0.00021441 49C0.000213975 53.9705 4.02965 58 9.00021 58L230 58C234.971 58 239 53.9706 239 49L239 39.5L248.612 32.0069C250.106 30.8425 250.16 28.6022 248.724 27.3669Z"/>
</mask>
<path d="M248.724 27.3669L239 19L239 11C239 6.02944 234.971 2 230 2L9.00022 1.99998C4.02965 1.99998 0.000218166 6.02942 0.000217732 11L0.00021441 49C0.000213975 53.9705 4.02965 58 9.00021 58L230 58C234.971 58 239 53.9706 239 49L239 39.5L248.612 32.0069C250.106 30.8425 250.16 28.6022 248.724 27.3669Z" fill="white"/>
<path d="M239 19L237.6 19L237.6 19.6423L238.087 20.0612L239 19ZM248.724 27.3669L249.637 26.3056L249.637 26.3056L248.724 27.3669ZM248.612 32.0069L247.751 30.9028L247.751 30.9028L248.612 32.0069ZM239 39.5L238.139 38.3959L237.6 38.8162L237.6 39.5L239 39.5ZM238.087 20.0612L247.811 28.4281L249.637 26.3056L239.913 17.9388L238.087 20.0612ZM247.751 30.9028L238.139 38.3959L239.861 40.6041L249.473 33.1111L247.751 30.9028ZM247.811 28.4281C248.577 29.0869 248.548 30.2817 247.751 30.9028L249.473 33.1111C251.664 31.4032 251.743 28.1175 249.637 26.3056L247.811 28.4281ZM230 56.6L9.00021 56.6L9.00021 59.4L230 59.4L230 56.6ZM1.40021 49L1.40022 11L-1.39978 11L-1.39979 49L1.40021 49ZM9.00022 3.39998L230 3.4L230 0.599998L9.00022 0.599979L9.00022 3.39998ZM237.6 39.5L237.6 49L240.4 49L240.4 39.5L237.6 39.5ZM237.6 11L237.6 19L240.4 19L240.4 11L237.6 11ZM230 3.4C234.198 3.4 237.6 6.80264 237.6 11L240.4 11C240.4 5.25624 235.744 0.599999 230 0.599998L230 3.4ZM1.40022 11C1.40022 6.80261 4.80285 3.39998 9.00022 3.39998L9.00022 0.599979C3.25645 0.599978 -1.39978 5.25622 -1.39978 11L1.40022 11ZM9.00021 56.6C4.80285 56.6 1.40021 53.1973 1.40021 49L-1.39979 49C-1.39979 54.7437 3.25645 59.4 9.00021 59.4L9.00021 56.6ZM230 59.4C235.744 59.4 240.4 54.7438 240.4 49L237.6 49C237.6 53.1974 234.198 56.6 230 56.6L230 59.4Z" fill="white" mask="url(#path-1-inside-1_7093_6117)"/>
<g filter="url(#filter0_d_7093_6117)">
<mask id="path-3-inside-2_7093_6117" fill="white">
<path d="M248.724 27.3669L239 19L239 11C239 6.02944 234.971 2 230 2L126 1.99999C121.03 1.99999 117 6.02943 117 11L117 49C117 53.9705 121.03 58 126 58L230 58C234.971 58 239 53.9706 239 49L239 39.5L248.612 32.0069C250.106 30.8425 250.16 28.6022 248.724 27.3669Z"/>
</mask>
<path d="M248.724 27.3669L239 19L239 11C239 6.02944 234.971 2 230 2L126 1.99999C121.03 1.99999 117 6.02943 117 11L117 49C117 53.9705 121.03 58 126 58L230 58C234.971 58 239 53.9706 239 49L239 39.5L248.612 32.0069C250.106 30.8425 250.16 28.6022 248.724 27.3669Z" fill="white"/>
<path d="M239 19L237.6 19L237.6 19.6423L238.087 20.0612L239 19ZM248.724 27.3669L249.637 26.3056L249.637 26.3056L248.724 27.3669ZM248.612 32.0069L247.751 30.9028L247.751 30.9028L248.612 32.0069ZM239 39.5L238.139 38.3959L237.6 38.8162L237.6 39.5L239 39.5ZM230 58L230 59.4L230 59.4L230 58ZM126 58L126 56.6L126 56.6L126 58ZM238.087 20.0612L247.811 28.4281L249.637 26.3056L239.913 17.9388L238.087 20.0612ZM247.751 30.9028L238.139 38.3959L239.861 40.6041L249.473 33.1111L247.751 30.9028ZM247.811 28.4281C248.577 29.0869 248.548 30.2817 247.751 30.9028L249.473 33.1111C251.664 31.4032 251.743 28.1175 249.637 26.3056L247.811 28.4281ZM230 56.6L126 56.6L126 59.4L230 59.4L230 56.6ZM118.4 49L118.4 11L115.6 11L115.6 49L118.4 49ZM126 3.39999L230 3.4L230 0.599998L126 0.599989L126 3.39999ZM237.6 39.5L237.6 49L240.4 49L240.4 39.5L237.6 39.5ZM237.6 11L237.6 19L240.4 19L240.4 11L237.6 11ZM230 3.4C234.198 3.4 237.6 6.80264 237.6 11L240.4 11C240.4 5.25624 235.744 0.599999 230 0.599998L230 3.4ZM118.4 11C118.4 6.80262 121.803 3.39999 126 3.39999L126 0.599989C120.256 0.599989 115.6 5.25623 115.6 11L118.4 11ZM126 56.6C121.803 56.6 118.4 53.1973 118.4 49L115.6 49C115.6 54.7437 120.256 59.4 126 59.4L126 56.6ZM230 59.4C235.744 59.4 240.4 54.7438 240.4 49L237.6 49C237.6 53.1974 234.198 56.6 230 56.6L230 59.4Z" fill="#333333" mask="url(#path-3-inside-2_7093_6117)"/>
</g>
<g filter="url(#filter1_d_7093_6117)">
<path d="M164.367 15.452H165.855L170.959 23.724H170.847V15.452H172.095V25.5H170.703L165.423 16.956H165.615V25.5H164.367V15.452ZM178.248 25.692C177.56 25.692 176.947 25.54 176.408 25.236C175.875 24.932 175.454 24.4813 175.144 23.884C174.835 23.2867 174.68 22.5507 174.68 21.676C174.68 20.796 174.835 20.06 175.144 19.468C175.454 18.8707 175.875 18.42 176.408 18.116C176.947 17.812 177.56 17.66 178.248 17.66C178.931 17.66 179.539 17.812 180.072 18.116C180.611 18.42 181.032 18.8707 181.336 19.468C181.646 20.06 181.8 20.796 181.8 21.676C181.8 22.5507 181.646 23.2867 181.336 23.884C181.032 24.4813 180.611 24.932 180.072 25.236C179.539 25.54 178.931 25.692 178.248 25.692ZM178.216 24.604C178.712 24.604 179.134 24.4867 179.48 24.252C179.827 24.012 180.088 23.6733 180.264 23.236C180.446 22.7987 180.536 22.2787 180.536 21.676C180.536 20.764 180.347 20.0467 179.968 19.524C179.59 18.996 179.027 18.732 178.28 18.732C177.779 18.732 177.355 18.852 177.008 19.092C176.667 19.3267 176.406 19.6653 176.224 20.108C176.048 20.5453 175.96 21.068 175.96 21.676C175.96 22.5773 176.15 23.292 176.528 23.82C176.912 24.3427 177.475 24.604 178.216 24.604ZM183.254 24.756C183.254 24.5053 183.342 24.2893 183.518 24.108C183.694 23.9267 183.916 23.836 184.182 23.836C184.449 23.836 184.676 23.9267 184.862 24.108C185.049 24.2893 185.142 24.5053 185.142 24.756C185.142 25.0067 185.049 25.2173 184.862 25.388C184.676 25.5587 184.449 25.644 184.182 25.644C183.916 25.644 183.694 25.5587 183.518 25.388C183.342 25.212 183.254 25.0013 183.254 24.756ZM194.903 25.692C194.103 25.692 193.375 25.484 192.719 25.068C192.063 24.652 191.54 24.0627 191.151 23.3C190.761 22.5373 190.567 21.6333 190.567 20.588C190.567 19.7187 190.692 18.9533 190.943 18.292C191.193 17.6307 191.537 17.076 191.975 16.628C192.412 16.18 192.913 15.844 193.479 15.62C194.049 15.3907 194.652 15.276 195.287 15.276C196.071 15.276 196.759 15.4387 197.351 15.764C197.943 16.084 198.449 16.5933 198.871 17.292L197.687 17.708C197.329 17.2653 196.945 16.94 196.535 16.732C196.129 16.5187 195.697 16.412 195.239 16.412C194.636 16.412 194.081 16.58 193.575 16.916C193.068 17.252 192.66 17.732 192.351 18.356C192.047 18.98 191.895 19.724 191.895 20.588C191.895 21.356 192.02 22.0387 192.271 22.636C192.521 23.228 192.876 23.6947 193.335 24.036C193.799 24.372 194.348 24.54 194.983 24.54C195.468 24.54 195.903 24.428 196.287 24.204C196.676 23.98 196.983 23.644 197.207 23.196C197.431 22.7427 197.543 22.172 197.543 21.484H197.927C197.927 22.3373 197.825 23.0787 197.623 23.708C197.42 24.3373 197.095 24.8253 196.647 25.172C196.204 25.5187 195.623 25.692 194.903 25.692ZM197.767 25.5L197.543 23.132V21.452L195.015 21.372V20.524H198.759V25.5H197.767ZM204.592 25.692C203.904 25.692 203.29 25.54 202.752 25.236C202.218 24.932 201.797 24.4813 201.488 23.884C201.178 23.2867 201.024 22.5507 201.024 21.676C201.024 20.796 201.178 20.06 201.488 19.468C201.797 18.8707 202.218 18.42 202.752 18.116C203.29 17.812 203.904 17.66 204.592 17.66C205.274 17.66 205.882 17.812 206.416 18.116C206.954 18.42 207.376 18.8707 207.68 19.468C207.989 20.06 208.144 20.796 208.144 21.676C208.144 22.5507 207.989 23.2867 207.68 23.884C207.376 24.4813 206.954 24.932 206.416 25.236C205.882 25.54 205.274 25.692 204.592 25.692ZM204.56 24.604C205.056 24.604 205.477 24.4867 205.824 24.252C206.17 24.012 206.432 23.6733 206.608 23.236C206.789 22.7987 206.88 22.2787 206.88 21.676C206.88 20.764 206.69 20.0467 206.312 19.524C205.933 18.996 205.37 18.732 204.624 18.732C204.122 18.732 203.698 18.852 203.352 19.092C203.01 19.3267 202.749 19.6653 202.568 20.108C202.392 20.5453 202.304 21.068 202.304 21.676C202.304 22.5773 202.493 23.292 202.872 23.82C203.256 24.3427 203.818 24.604 204.56 24.604ZM217.042 25.692C216.626 25.692 216.253 25.612 215.922 25.452C215.592 25.292 215.33 25.052 215.138 24.732C214.946 24.412 214.85 24.012 214.85 23.532V15.724H216.082V23.5C216.082 24.2893 216.45 24.684 217.186 24.684C217.405 24.684 217.616 24.66 217.818 24.612C218.026 24.564 218.258 24.492 218.514 24.396L218.69 25.292C218.418 25.4093 218.146 25.5053 217.874 25.58C217.608 25.6547 217.33 25.692 217.042 25.692ZM213.618 18.716V17.852H218.498V18.716H213.618ZM223.634 25.692C222.946 25.692 222.333 25.54 221.794 25.236C221.261 24.932 220.839 24.4813 220.53 23.884C220.221 23.2867 220.066 22.5507 220.066 21.676C220.066 20.796 220.221 20.06 220.53 19.468C220.839 18.8707 221.261 18.42 221.794 18.116C222.333 17.812 222.946 17.66 223.634 17.66C224.317 17.66 224.925 17.812 225.458 18.116C225.997 18.42 226.418 18.8707 226.722 19.468C227.031 20.06 227.186 20.796 227.186 21.676C227.186 22.5507 227.031 23.2867 226.722 23.884C226.418 24.4813 225.997 24.932 225.458 25.236C224.925 25.54 224.317 25.692 223.634 25.692ZM223.602 24.604C224.098 24.604 224.519 24.4867 224.866 24.252C225.213 24.012 225.474 23.6733 225.65 23.236C225.831 22.7987 225.922 22.2787 225.922 21.676C225.922 20.764 225.733 20.0467 225.354 19.524C224.975 18.996 224.413 18.732 223.666 18.732C223.165 18.732 222.741 18.852 222.394 19.092C222.053 19.3267 221.791 19.6653 221.61 20.108C221.434 20.5453 221.346 21.068 221.346 21.676C221.346 22.5773 221.535 23.292 221.914 23.82C222.298 24.3427 222.861 24.604 223.602 24.604ZM130.024 45.692C129.464 45.692 128.976 45.564 128.56 45.308C128.149 45.052 127.832 44.6787 127.608 44.188C127.384 43.692 127.272 43.0893 127.272 42.38H127.8C127.8 42.8547 127.898 43.2547 128.096 43.58C128.293 43.9053 128.549 44.1533 128.864 44.324C129.184 44.4893 129.522 44.572 129.88 44.572C130.264 44.572 130.632 44.4627 130.984 44.244C131.336 44.02 131.624 43.692 131.848 43.26C132.072 42.828 132.184 42.2947 132.184 41.66C132.184 41.052 132.08 40.532 131.872 40.1C131.669 39.668 131.394 39.3373 131.048 39.108C130.701 38.8787 130.317 38.764 129.896 38.764C129.533 38.764 129.192 38.852 128.872 39.028C128.552 39.204 128.293 39.4627 128.096 39.804C127.898 40.14 127.8 40.556 127.8 41.052H127.272C127.272 40.3107 127.394 39.6893 127.64 39.188C127.885 38.6813 128.218 38.3 128.64 38.044C129.061 37.788 129.533 37.66 130.056 37.66C130.653 37.66 131.21 37.82 131.728 38.14C132.245 38.46 132.664 38.9187 132.984 39.516C133.304 40.1133 133.464 40.828 133.464 41.66C133.464 42.5027 133.301 43.2253 132.976 43.828C132.656 44.4307 132.234 44.892 131.712 45.212C131.189 45.532 130.626 45.692 130.024 45.692ZM126.552 49.26V37.852H127.592L127.8 39.644V49.26H126.552ZM138.839 45.692C138.151 45.692 137.538 45.54 136.999 45.236C136.466 44.932 136.044 44.4813 135.735 43.884C135.426 43.2867 135.271 42.5507 135.271 41.676C135.271 40.796 135.426 40.06 135.735 39.468C136.044 38.8707 136.466 38.42 136.999 38.116C137.538 37.812 138.151 37.66 138.839 37.66C139.522 37.66 140.13 37.812 140.663 38.116C141.202 38.42 141.623 38.8707 141.927 39.468C142.236 40.06 142.391 40.796 142.391 41.676C142.391 42.5507 142.236 43.2867 141.927 43.884C141.623 44.4813 141.202 44.932 140.663 45.236C140.13 45.54 139.522 45.692 138.839 45.692ZM138.807 44.604C139.303 44.604 139.724 44.4867 140.071 44.252C140.418 44.012 140.679 43.6733 140.855 43.236C141.036 42.7987 141.127 42.2787 141.127 41.676C141.127 40.764 140.938 40.0467 140.559 39.524C140.18 38.996 139.618 38.732 138.871 38.732C138.37 38.732 137.946 38.852 137.599 39.092C137.258 39.3267 136.996 39.6653 136.815 40.108C136.639 40.5453 136.551 41.068 136.551 41.676C136.551 42.5773 136.74 43.292 137.119 43.82C137.503 44.3427 138.066 44.604 138.807 44.604ZM147.333 45.692C146.917 45.692 146.544 45.612 146.213 45.452C145.882 45.292 145.621 45.052 145.429 44.732C145.237 44.412 145.141 44.012 145.141 43.532V35.724H146.373V43.5C146.373 44.2893 146.741 44.684 147.477 44.684C147.696 44.684 147.906 44.66 148.109 44.612C148.317 44.564 148.549 44.492 148.805 44.396L148.981 45.292C148.709 45.4093 148.437 45.5053 148.165 45.58C147.898 45.6547 147.621 45.692 147.333 45.692ZM143.909 38.716V37.852H148.789V38.716H143.909ZM153.509 45.692C153.093 45.692 152.719 45.612 152.389 45.452C152.058 45.292 151.797 45.052 151.605 44.732C151.413 44.412 151.317 44.012 151.317 43.532V35.724H152.549V43.5C152.549 44.2893 152.917 44.684 153.653 44.684C153.871 44.684 154.082 44.66 154.285 44.612C154.493 44.564 154.725 44.492 154.981 44.396L155.157 45.292C154.885 45.4093 154.613 45.5053 154.341 45.58C154.074 45.6547 153.797 45.692 153.509 45.692ZM150.085 38.716V37.852H154.965V38.716H150.085ZM159.988 45.692C159.327 45.692 158.735 45.524 158.212 45.188C157.695 44.8467 157.284 44.3747 156.98 43.772C156.682 43.1693 156.532 42.476 156.532 41.692C156.532 40.8547 156.682 40.1347 156.98 39.532C157.279 38.9293 157.687 38.468 158.204 38.148C158.727 37.8227 159.322 37.66 159.988 37.66C160.57 37.66 161.066 37.7773 161.476 38.012C161.887 38.2467 162.218 38.564 162.468 38.964C162.719 39.364 162.892 39.8173 162.988 40.324C163.09 40.8253 163.119 41.3453 163.076 41.884H157.54V41.116H162.252L161.884 41.356C161.9 41.0413 161.882 40.7267 161.828 40.412C161.78 40.0973 161.687 39.8093 161.548 39.548C161.41 39.2813 161.215 39.068 160.964 38.908C160.714 38.748 160.394 38.668 160.004 38.668C159.514 38.668 159.103 38.7933 158.772 39.044C158.442 39.2947 158.194 39.6253 158.028 40.036C157.863 40.4413 157.78 40.8813 157.78 41.356V41.868C157.78 42.4013 157.86 42.8787 158.02 43.3C158.186 43.7213 158.431 44.0547 158.756 44.3C159.082 44.5453 159.492 44.668 159.988 44.668C160.484 44.668 160.892 44.548 161.212 44.308C161.532 44.068 161.727 43.7133 161.796 43.244H163.092C163.012 43.7507 162.831 44.188 162.548 44.556C162.266 44.9187 161.906 45.1987 161.468 45.396C161.031 45.5933 160.538 45.692 159.988 45.692ZM165.711 45.5V37.836H166.959V45.5H165.711ZM166.575 42.044C166.575 41.0733 166.668 40.268 166.855 39.628C167.042 38.9827 167.314 38.5027 167.671 38.188C168.034 37.868 168.474 37.708 168.991 37.708C169.162 37.708 169.316 37.7213 169.455 37.748C169.599 37.7693 169.743 37.804 169.887 37.852L169.807 39.084C169.658 39.036 169.495 38.996 169.319 38.964C169.143 38.9267 168.986 38.908 168.847 38.908C168.394 38.908 168.028 39.0387 167.751 39.3C167.474 39.556 167.271 39.9187 167.143 40.388C167.02 40.8573 166.959 41.4093 166.959 42.044H166.575ZM170.388 37.852H171.78L174.276 44.412H173.988L175.924 37.852H177.204L174.324 47.036C174.084 47.804 173.764 48.396 173.364 48.812C172.964 49.228 172.452 49.436 171.828 49.436C171.492 49.436 171.172 49.388 170.868 49.292C170.57 49.196 170.26 49.0573 169.94 48.876V47.724C170.223 47.948 170.495 48.108 170.756 48.204C171.023 48.3 171.3 48.348 171.588 48.348C171.908 48.348 172.175 48.2467 172.388 48.044C172.607 47.8413 172.788 47.58 172.932 47.26C173.076 46.9453 173.199 46.6147 173.3 46.268L173.524 45.5L170.388 37.852ZM183.638 45.5V36.668C183.638 36.1613 183.734 35.748 183.926 35.428C184.124 35.1027 184.385 34.8627 184.71 34.708C185.041 34.5533 185.409 34.476 185.814 34.476C186.033 34.476 186.254 34.492 186.478 34.524C186.708 34.556 186.934 34.604 187.158 34.668L186.918 35.66C186.758 35.596 186.598 35.548 186.438 35.516C186.284 35.484 186.134 35.468 185.99 35.468C185.82 35.468 185.649 35.5 185.478 35.564C185.308 35.628 185.166 35.748 185.054 35.924C184.942 36.1 184.886 36.3533 184.886 36.684V45.5H183.638ZM182.39 38.716V37.852H186.47V38.716H182.39ZM189.406 36.044C189.15 36.044 188.948 35.972 188.798 35.828C188.649 35.6787 188.574 35.484 188.574 35.244C188.574 35.0093 188.649 34.8227 188.798 34.684C188.948 34.5453 189.15 34.476 189.406 34.476C189.662 34.476 189.865 34.5453 190.014 34.684C190.164 34.8227 190.238 35.0093 190.238 35.244C190.238 35.484 190.164 35.6787 190.014 35.828C189.865 35.972 189.662 36.044 189.406 36.044ZM188.782 45.5V37.836H190.03V45.5H188.782ZM199.072 45.5V41.004C199.072 40.2733 198.896 39.7187 198.544 39.34C198.198 38.956 197.723 38.764 197.12 38.764C196.662 38.764 196.264 38.8893 195.928 39.14C195.592 39.3907 195.334 39.7507 195.152 40.22C194.971 40.684 194.88 41.2387 194.88 41.884H194.4C194.4 40.9933 194.518 40.2333 194.752 39.604C194.987 38.9747 195.328 38.4947 195.776 38.164C196.23 37.828 196.779 37.66 197.424 37.66C198.027 37.66 198.542 37.796 198.968 38.068C199.4 38.3347 199.731 38.7187 199.96 39.22C200.19 39.7213 200.304 40.316 200.304 41.004V45.5H199.072ZM193.632 45.5V37.852H194.704L194.88 39.612V45.5H193.632ZM204.152 36.044C203.896 36.044 203.694 35.972 203.544 35.828C203.395 35.6787 203.32 35.484 203.32 35.244C203.32 35.0093 203.395 34.8227 203.544 34.684C203.694 34.5453 203.896 34.476 204.152 34.476C204.408 34.476 204.611 34.5453 204.76 34.684C204.91 34.8227 204.984 35.0093 204.984 35.244C204.984 35.484 204.91 35.6787 204.76 35.828C204.611 35.972 204.408 36.044 204.152 36.044ZM203.528 45.5V37.836H204.776V45.5H203.528ZM211.126 45.692C210.385 45.692 209.766 45.588 209.27 45.38C208.774 45.1667 208.398 44.876 208.142 44.508C207.886 44.1347 207.75 43.708 207.734 43.228H208.934C208.961 43.7133 209.155 44.0787 209.518 44.324C209.886 44.564 210.385 44.684 211.014 44.684C211.345 44.684 211.649 44.6307 211.926 44.524C212.203 44.4173 212.425 44.2707 212.59 44.084C212.755 43.8973 212.838 43.6867 212.838 43.452C212.838 43.1533 212.729 42.9187 212.51 42.748C212.291 42.5773 211.942 42.428 211.462 42.3L209.974 41.82C209.329 41.6173 208.833 41.34 208.486 40.988C208.145 40.6307 207.974 40.204 207.974 39.708C207.974 39.0893 208.246 38.5933 208.79 38.22C209.334 37.8467 210.049 37.66 210.934 37.66C211.873 37.66 212.601 37.852 213.118 38.236C213.635 38.62 213.905 39.1 213.926 39.676H212.694C212.646 39.34 212.475 39.0867 212.182 38.916C211.889 38.74 211.473 38.652 210.934 38.652C210.417 38.652 210.011 38.7693 209.718 39.004C209.43 39.2333 209.286 39.4893 209.286 39.772C209.286 40.3 209.739 40.6893 210.646 40.94L212.166 41.452C212.822 41.6493 213.323 41.908 213.67 42.228C214.022 42.548 214.198 42.956 214.198 43.452C214.198 43.836 214.073 44.1987 213.822 44.54C213.571 44.8813 213.217 45.1587 212.758 45.372C212.299 45.5853 211.755 45.692 211.126 45.692ZM222.38 45.5V41.004C222.38 40.2733 222.204 39.7187 221.852 39.34C221.506 38.956 221.031 38.764 220.428 38.764C219.97 38.764 219.572 38.8893 219.236 39.14C218.9 39.3907 218.642 39.7507 218.46 40.22C218.279 40.684 218.188 41.2387 218.188 41.884H217.708C217.708 40.9933 217.826 40.2333 218.06 39.604C218.295 38.9747 218.636 38.4947 219.084 38.164C219.538 37.828 220.087 37.66 220.732 37.66C221.335 37.66 221.85 37.796 222.276 38.068C222.708 38.3347 223.039 38.7187 223.268 39.22C223.498 39.7213 223.612 40.316 223.612 41.004V45.5H222.38ZM216.94 45.5V34.588H218.188V45.5H216.94ZM225.621 44.756C225.621 44.5053 225.709 44.2893 225.885 44.108C226.061 43.9267 226.282 43.836 226.549 43.836C226.815 43.836 227.042 43.9267 227.229 44.108C227.415 44.2893 227.509 44.5053 227.509 44.756C227.509 45.0067 227.415 45.2173 227.229 45.388C227.042 45.5587 226.815 45.644 226.549 45.644C226.282 45.644 226.061 45.5587 225.885 45.388C225.709 45.212 225.621 45.0013 225.621 44.756Z" fill="#333333"/>
</g>
<defs>
<filter id="filter0_d_7093_6117" x="111" y="0" width="144.768" height="68" filterUnits="userSpaceOnUse" color-interpolation-filters="sRGB">
<feFlood flood-opacity="0" result="BackgroundImageFix"/>
<feColorMatrix in="SourceAlpha" type="matrix" values="0 0 0 0 0 0 0 0 0 0 0 0 0 0 0 0 0 0 127 0" result="hardAlpha"/>
<feOffset dy="4"/>
<feGaussianBlur stdDeviation="3"/>
<feComposite in2="hardAlpha" operator="out"/>
<feColorMatrix type="matrix" values="0 0 0 0 0 0 0 0 0 0 0 0 0 0 0 0 0 0 0.1 0"/>
<feBlend mode="normal" in2="BackgroundImageFix" result="effect1_dropShadow_7093_6117"/>
<feBlend mode="normal" in="SourceGraphic" in2="effect1_dropShadow_7093_6117" result="shape"/>
</filter>
<filter id="filter1_d_7093_6117" x="120.552" y="13.2764" width="112.957" height="46.1592" filterUnits="userSpaceOnUse" color-interpolation-filters="sRGB">
<feFlood flood-opacity="0" result="BackgroundImageFix"/>
<feColorMatrix in="SourceAlpha" type="matrix" values="0 0 0 0 0 0 0 0 0 0 0 0 0 0 0 0 0 0 127 0" result="hardAlpha"/>
<feOffset dy="4"/>
<feGaussianBlur stdDeviation="3"/>
<feComposite in2="hardAlpha" operator="out"/>
<feColorMatrix type="matrix" values="0 0 0 0 0 0 0 0 0 0 0 0 0 0 0 0 0 0 0.05 0"/>
<feBlend mode="normal" in2="BackgroundImageFix" result="effect1_dropShadow_7093_6117"/>
<feBlend mode="normal" in="SourceGraphic" in2="effect1_dropShadow_7093_6117" result="shape"/>
</filter>
</defs>
</svg>
