<svg width="257" height="68" viewBox="0 0 257 68" fill="none" xmlns="http://www.w3.org/2000/svg">
<path d="M7.04333 32.6331L16.7674 41V49C16.7674 53.9706 20.7968 58 25.7674 58L247.035 58C252.005 58 256.035 53.9706 256.035 49V11C256.035 6.02944 252.005 2 247.035 2L25.7674 2C20.7968 2 16.7674 6.02944 16.7674 11V20.5L7.15555 27.9931C5.66179 29.1575 5.60761 31.3978 7.04333 32.6331Z" fill="white"/>
<g filter="url(#filter0_d_7084_5695)">
<mask id="path-2-inside-1_7084_5695" fill="white">
<path d="M7.04333 32.6331L16.7674 41V49C16.7674 53.9706 20.7968 58 25.7674 58L198.035 58C203.005 58 207.035 53.9706 207.035 49V11C207.035 6.02944 203.005 2 198.035 2L25.7674 2C20.7968 2 16.7674 6.02944 16.7674 11V20.5L7.15555 27.9931C5.66179 29.1575 5.60761 31.3978 7.04333 32.6331Z"/>
</mask>
<path d="M7.04333 32.6331L16.7674 41V49C16.7674 53.9706 20.7968 58 25.7674 58L198.035 58C203.005 58 207.035 53.9706 207.035 49V11C207.035 6.02944 203.005 2 198.035 2L25.7674 2C20.7968 2 16.7674 6.02944 16.7674 11V20.5L7.15555 27.9931C5.66179 29.1575 5.60761 31.3978 7.04333 32.6331Z" fill="white"/>
<path d="M16.7674 41H18.1674V40.3577L17.6805 39.9388L16.7674 41ZM7.04333 32.6331L6.13021 33.6944L6.13021 33.6944L7.04333 32.6331ZM7.15555 27.9931L8.0163 29.0972L8.0163 29.0972L7.15555 27.9931ZM16.7674 20.5L17.6281 21.6041L18.1674 21.1838V20.5H16.7674ZM25.7674 2L25.7674 0.6H25.7674V2ZM198.035 2L198.035 3.4H198.035V2ZM17.6805 39.9388L7.95644 31.5719L6.13021 33.6944L15.8542 42.0612L17.6805 39.9388ZM8.0163 29.0972L17.6281 21.6041L15.9066 19.3959L6.2948 26.8889L8.0163 29.0972ZM7.95644 31.5719C7.19073 30.9131 7.21963 29.7183 8.0163 29.0972L6.2948 26.8889C4.10396 28.5968 4.02449 31.8825 6.13021 33.6944L7.95644 31.5719ZM25.7674 3.4L198.035 3.4L198.035 0.600003L25.7674 0.6L25.7674 3.4ZM205.635 11V49H208.435V11H205.635ZM198.035 56.6L25.7674 56.6V59.4L198.035 59.4V56.6ZM18.1674 20.5V11H15.3674V20.5H18.1674ZM18.1674 49V41H15.3674V49H18.1674ZM25.7674 56.6C21.57 56.6 18.1674 53.1974 18.1674 49H15.3674C15.3674 54.7438 20.0236 59.4 25.7674 59.4V56.6ZM205.635 49C205.635 53.1974 202.232 56.6 198.035 56.6V59.4C203.778 59.4 208.435 54.7438 208.435 49H205.635ZM198.035 3.4C202.232 3.4 205.635 6.80264 205.635 11H208.435C208.435 5.25624 203.778 0.600003 198.035 0.600003V3.4ZM25.7674 0.6C20.0236 0.6 15.3674 5.25624 15.3674 11H18.1674C18.1674 6.80264 21.57 3.4 25.7674 3.4V0.6Z" fill="#333333" mask="url(#path-2-inside-1_7084_5695)"/>
</g>
<g filter="url(#filter1_d_7084_5695)">
<path d="M31.144 14.952H32.648L35.528 19.832H35.208L38.136 14.952H39.624L35.992 20.872V25H34.728V20.872L31.144 14.952ZM43.2784 25.192C42.5904 25.192 41.977 25.04 41.4384 24.736C40.905 24.432 40.4837 23.9813 40.1744 23.384C39.865 22.7867 39.7104 22.0507 39.7104 21.176C39.7104 20.296 39.865 19.56 40.1744 18.968C40.4837 18.3707 40.905 17.92 41.4384 17.616C41.977 17.312 42.5904 17.16 43.2784 17.16C43.961 17.16 44.569 17.312 45.1024 17.616C45.641 17.92 46.0624 18.3707 46.3664 18.968C46.6757 19.56 46.8304 20.296 46.8304 21.176C46.8304 22.0507 46.6757 22.7867 46.3664 23.384C46.0624 23.9813 45.641 24.432 45.1024 24.736C44.569 25.04 43.961 25.192 43.2784 25.192ZM43.2464 24.104C43.7424 24.104 44.1637 23.9867 44.5104 23.752C44.857 23.512 45.1184 23.1733 45.2944 22.736C45.4757 22.2987 45.5664 21.7787 45.5664 21.176C45.5664 20.264 45.377 19.5467 44.9984 19.024C44.6197 18.496 44.057 18.232 43.3104 18.232C42.809 18.232 42.385 18.352 42.0384 18.592C41.697 18.8267 41.4357 19.1653 41.2544 19.608C41.0784 20.0453 40.9904 20.568 40.9904 21.176C40.9904 22.0773 41.1797 22.792 41.5584 23.32C41.9424 23.8427 42.505 24.104 43.2464 24.104ZM54.6204 17.336H55.8684V25H54.6204V17.336ZM49.1964 17.336H50.4444V22.104C50.4444 22.744 50.599 23.2293 50.9084 23.56C51.223 23.8907 51.671 24.056 52.2524 24.056C52.7324 24.056 53.1484 23.928 53.5004 23.672C53.8577 23.416 54.1324 23.064 54.3244 22.616C54.5217 22.1627 54.6204 21.6453 54.6204 21.064H55.0844C55.0844 21.9227 54.959 22.656 54.7084 23.264C54.463 23.872 54.1137 24.3387 53.6604 24.664C53.2124 24.984 52.6844 25.144 52.0764 25.144C51.5004 25.144 50.9964 25.0373 50.5644 24.824C50.1324 24.6107 49.7964 24.288 49.5564 23.856C49.3164 23.4187 49.1964 22.8667 49.1964 22.2V17.336ZM65.9127 25.192C65.2994 25.192 64.7261 25.0267 64.1927 24.696C63.6647 24.3653 63.2381 23.8987 62.9127 23.296C62.5874 22.6933 62.4247 21.9813 62.4247 21.16C62.4247 20.3173 62.5874 19.5973 62.9127 19C63.2381 18.4027 63.6647 17.9467 64.1927 17.632C64.7261 17.3173 65.2994 17.16 65.9127 17.16C66.3447 17.16 66.7314 17.2267 67.0727 17.36C67.4194 17.488 67.7207 17.6667 67.9767 17.896C68.2327 18.1253 68.4434 18.3867 68.6087 18.68C68.7794 18.968 68.9047 19.272 68.9847 19.592L67.7047 19.704C67.5714 19.2613 67.3474 18.912 67.0327 18.656C66.7234 18.3947 66.3447 18.264 65.8967 18.264C65.5181 18.264 65.1607 18.3733 64.8247 18.592C64.4941 18.8053 64.2247 19.128 64.0167 19.56C63.8087 19.9867 63.7047 20.52 63.7047 21.16C63.7047 21.752 63.7981 22.2667 63.9847 22.704C64.1767 23.136 64.4381 23.472 64.7687 23.712C65.0994 23.952 65.4754 24.072 65.8967 24.072C66.4887 24.072 66.9367 23.928 67.2407 23.64C67.5501 23.3467 67.7047 22.9413 67.7047 22.424H68.9847C68.9847 22.9573 68.8594 23.432 68.6087 23.848C68.3581 24.264 68.0007 24.592 67.5367 24.832C67.0781 25.072 66.5367 25.192 65.9127 25.192ZM76.3707 25L76.2107 23.32V20.04C76.2107 19.352 76.0641 18.8587 75.7707 18.56C75.4774 18.256 75.0374 18.104 74.4507 18.104C74.1201 18.104 73.8187 18.152 73.5467 18.248C73.2801 18.344 73.0667 18.4933 72.9067 18.696C72.7521 18.8933 72.6747 19.1493 72.6747 19.464H71.2827C71.2827 18.9093 71.4187 18.464 71.6907 18.128C71.9627 17.7867 72.3361 17.5413 72.8107 17.392C73.2907 17.2373 73.8374 17.16 74.4507 17.16C75.0374 17.16 75.5574 17.2587 76.0107 17.456C76.4641 17.6533 76.8187 17.968 77.0747 18.4C77.3307 18.8267 77.4587 19.384 77.4587 20.072V25H76.3707ZM73.7627 25.192C73.1334 25.192 72.6134 25.08 72.2027 24.856C71.7921 24.632 71.4854 24.3413 71.2827 23.984C71.0801 23.6267 70.9787 23.2507 70.9787 22.856C70.9787 22.3387 71.1067 21.9173 71.3627 21.592C71.6241 21.2667 71.9787 21.0293 72.4267 20.88C72.8747 20.7253 73.3787 20.648 73.9387 20.648C74.3387 20.648 74.7387 20.688 75.1387 20.768C75.5441 20.848 75.9387 20.9573 76.3227 21.096V21.88C76.0027 21.752 75.6401 21.6507 75.2347 21.576C74.8347 21.5013 74.4667 21.464 74.1307 21.464C73.6187 21.464 73.1867 21.5707 72.8347 21.784C72.4827 21.992 72.3067 22.3493 72.3067 22.856C72.3067 23.2293 72.4401 23.5493 72.7067 23.816C72.9787 24.0827 73.4107 24.216 74.0027 24.216C74.4187 24.216 74.7921 24.12 75.1227 23.928C75.4587 23.7307 75.7227 23.4853 75.9147 23.192C76.1121 22.8987 76.2107 22.6053 76.2107 22.312H76.5147C76.5147 22.824 76.4027 23.2987 76.1787 23.736C75.9601 24.1733 75.6454 24.5253 75.2347 24.792C74.8241 25.0587 74.3334 25.192 73.7627 25.192ZM86.0472 25V20.504C86.0472 19.7733 85.8712 19.2187 85.5192 18.84C85.1726 18.456 84.6979 18.264 84.0952 18.264C83.6366 18.264 83.2392 18.3893 82.9032 18.64C82.5672 18.8907 82.3086 19.2507 82.1272 19.72C81.9459 20.184 81.8552 20.7387 81.8552 21.384H81.3752C81.3752 20.4933 81.4926 19.7333 81.7272 19.104C81.9619 18.4747 82.3032 17.9947 82.7512 17.664C83.2046 17.328 83.7539 17.16 84.3992 17.16C85.0019 17.16 85.5166 17.296 85.9432 17.568C86.3752 17.8347 86.7059 18.2187 86.9352 18.72C87.1646 19.2213 87.2792 19.816 87.2792 20.504V25H86.0472ZM80.6072 25V17.352H81.6792L81.8552 19.112V25H80.6072ZM99.1164 25L98.9564 23.32V20.04C98.9564 19.352 98.8097 18.8587 98.5164 18.56C98.223 18.256 97.783 18.104 97.1964 18.104C96.8657 18.104 96.5644 18.152 96.2924 18.248C96.0257 18.344 95.8124 18.4933 95.6524 18.696C95.4977 18.8933 95.4204 19.1493 95.4204 19.464H94.0284C94.0284 18.9093 94.1644 18.464 94.4364 18.128C94.7084 17.7867 95.0817 17.5413 95.5564 17.392C96.0364 17.2373 96.583 17.16 97.1964 17.16C97.783 17.16 98.303 17.2587 98.7564 17.456C99.2097 17.6533 99.5644 17.968 99.8204 18.4C100.076 18.8267 100.204 19.384 100.204 20.072V25H99.1164ZM96.5084 25.192C95.879 25.192 95.359 25.08 94.9484 24.856C94.5377 24.632 94.231 24.3413 94.0284 23.984C93.8257 23.6267 93.7244 23.2507 93.7244 22.856C93.7244 22.3387 93.8524 21.9173 94.1084 21.592C94.3697 21.2667 94.7244 21.0293 95.1724 20.88C95.6204 20.7253 96.1244 20.648 96.6844 20.648C97.0844 20.648 97.4844 20.688 97.8844 20.768C98.2897 20.848 98.6844 20.9573 99.0684 21.096V21.88C98.7484 21.752 98.3857 21.6507 97.9804 21.576C97.5804 21.5013 97.2124 21.464 96.8764 21.464C96.3644 21.464 95.9324 21.5707 95.5804 21.784C95.2284 21.992 95.0524 22.3493 95.0524 22.856C95.0524 23.2293 95.1857 23.5493 95.4524 23.816C95.7244 24.0827 96.1564 24.216 96.7484 24.216C97.1644 24.216 97.5377 24.12 97.8684 23.928C98.2044 23.7307 98.4684 23.4853 98.6604 23.192C98.8577 22.8987 98.9564 22.6053 98.9564 22.312H99.2604C99.2604 22.824 99.1484 23.2987 98.9244 23.736C98.7057 24.1733 98.391 24.5253 97.9804 24.792C97.5697 25.0587 97.079 25.192 96.5084 25.192ZM106.105 25.192C105.364 25.192 104.745 25.088 104.249 24.88C103.753 24.6667 103.377 24.376 103.121 24.008C102.865 23.6347 102.729 23.208 102.713 22.728H103.913C103.94 23.2133 104.134 23.5787 104.497 23.824C104.865 24.064 105.364 24.184 105.993 24.184C106.324 24.184 106.628 24.1307 106.905 24.024C107.182 23.9173 107.404 23.7707 107.569 23.584C107.734 23.3973 107.817 23.1867 107.817 22.952C107.817 22.6533 107.708 22.4187 107.489 22.248C107.27 22.0773 106.921 21.928 106.441 21.8L104.953 21.32C104.308 21.1173 103.812 20.84 103.465 20.488C103.124 20.1307 102.953 19.704 102.953 19.208C102.953 18.5893 103.225 18.0933 103.769 17.72C104.313 17.3467 105.028 17.16 105.913 17.16C106.852 17.16 107.58 17.352 108.097 17.736C108.614 18.12 108.884 18.6 108.905 19.176H107.673C107.625 18.84 107.454 18.5867 107.161 18.416C106.868 18.24 106.452 18.152 105.913 18.152C105.396 18.152 104.99 18.2693 104.697 18.504C104.409 18.7333 104.265 18.9893 104.265 19.272C104.265 19.8 104.718 20.1893 105.625 20.44L107.145 20.952C107.801 21.1493 108.302 21.408 108.649 21.728C109.001 22.048 109.177 22.456 109.177 22.952C109.177 23.336 109.052 23.6987 108.801 24.04C108.55 24.3813 108.196 24.6587 107.737 24.872C107.278 25.0853 106.734 25.192 106.105 25.192ZM111.919 25V14.088H113.167V25H111.919ZM112.975 20.616L116.879 17.352H118.623L112.975 21.944V20.616ZM117.263 25L113.631 20.168L114.895 19.944L118.799 25H117.263ZM135.804 25V20.504C135.804 19.7733 135.628 19.2187 135.276 18.84C134.929 18.456 134.46 18.264 133.868 18.264C133.174 18.264 132.644 18.5333 132.276 19.072C131.908 19.6053 131.724 20.344 131.724 21.288H131.148C131.148 20.6 131.214 19.9973 131.348 19.48C131.486 18.9627 131.686 18.5333 131.948 18.192C132.209 17.8453 132.526 17.5867 132.9 17.416C133.273 17.2453 133.697 17.16 134.172 17.16C134.774 17.16 135.289 17.296 135.716 17.568C136.148 17.8347 136.478 18.2187 136.708 18.72C136.937 19.2213 137.052 19.816 137.052 20.504V25H135.804ZM125.052 25V17.352H126.124L126.268 18.888C126.508 18.3333 126.844 17.9067 127.276 17.608C127.713 17.3093 128.236 17.16 128.844 17.16C129.446 17.16 129.961 17.296 130.388 17.568C130.82 17.8347 131.15 18.2187 131.38 18.72C131.609 19.2213 131.724 19.816 131.724 20.504V25H130.492V20.504C130.492 19.7733 130.316 19.2187 129.964 18.84C129.617 18.456 129.142 18.264 128.54 18.264C128.081 18.264 127.684 18.3893 127.348 18.64C127.012 18.8907 126.753 19.2507 126.572 19.72C126.39 20.184 126.3 20.7387 126.3 21.384V25H125.052ZM142.836 25.192C142.175 25.192 141.583 25.024 141.06 24.688C140.543 24.3467 140.132 23.8747 139.828 23.272C139.53 22.6693 139.38 21.976 139.38 21.192C139.38 20.3547 139.53 19.6347 139.828 19.032C140.127 18.4293 140.535 17.968 141.052 17.648C141.575 17.3227 142.17 17.16 142.836 17.16C143.418 17.16 143.914 17.2773 144.324 17.512C144.735 17.7467 145.066 18.064 145.316 18.464C145.567 18.864 145.74 19.3173 145.836 19.824C145.938 20.3253 145.967 20.8453 145.924 21.384H140.388V20.616H145.1L144.732 20.856C144.748 20.5413 144.73 20.2267 144.676 19.912C144.628 19.5973 144.535 19.3093 144.396 19.048C144.258 18.7813 144.063 18.568 143.812 18.408C143.562 18.248 143.242 18.168 142.852 18.168C142.362 18.168 141.951 18.2933 141.62 18.544C141.29 18.7947 141.042 19.1253 140.876 19.536C140.711 19.9413 140.628 20.3813 140.628 20.856V21.368C140.628 21.9013 140.708 22.3787 140.868 22.8C141.034 23.2213 141.279 23.5547 141.604 23.8C141.93 24.0453 142.34 24.168 142.836 24.168C143.332 24.168 143.74 24.048 144.06 23.808C144.38 23.568 144.575 23.2133 144.644 22.744H145.94C145.86 23.2507 145.679 23.688 145.396 24.056C145.114 24.4187 144.754 24.6987 144.316 24.896C143.879 25.0933 143.386 25.192 142.836 25.192ZM157.252 25L157.092 23.32V20.04C157.092 19.352 156.945 18.8587 156.652 18.56C156.359 18.256 155.919 18.104 155.332 18.104C155.001 18.104 154.7 18.152 154.428 18.248C154.161 18.344 153.948 18.4933 153.788 18.696C153.633 18.8933 153.556 19.1493 153.556 19.464H152.164C152.164 18.9093 152.3 18.464 152.572 18.128C152.844 17.7867 153.217 17.5413 153.692 17.392C154.172 17.2373 154.719 17.16 155.332 17.16C155.919 17.16 156.439 17.2587 156.892 17.456C157.345 17.6533 157.7 17.968 157.956 18.4C158.212 18.8267 158.34 19.384 158.34 20.072V25H157.252ZM154.644 25.192C154.015 25.192 153.495 25.08 153.084 24.856C152.673 24.632 152.367 24.3413 152.164 23.984C151.961 23.6267 151.86 23.2507 151.86 22.856C151.86 22.3387 151.988 21.9173 152.244 21.592C152.505 21.2667 152.86 21.0293 153.308 20.88C153.756 20.7253 154.26 20.648 154.82 20.648C155.22 20.648 155.62 20.688 156.02 20.768C156.425 20.848 156.82 20.9573 157.204 21.096V21.88C156.884 21.752 156.521 21.6507 156.116 21.576C155.716 21.5013 155.348 21.464 155.012 21.464C154.5 21.464 154.068 21.5707 153.716 21.784C153.364 21.992 153.188 22.3493 153.188 22.856C153.188 23.2293 153.321 23.5493 153.588 23.816C153.86 24.0827 154.292 24.216 154.884 24.216C155.3 24.216 155.673 24.12 156.004 23.928C156.34 23.7307 156.604 23.4853 156.796 23.192C156.993 22.8987 157.092 22.6053 157.092 22.312H157.396C157.396 22.824 157.284 23.2987 157.06 23.736C156.841 24.1733 156.527 24.5253 156.116 24.792C155.705 25.0587 155.215 25.192 154.644 25.192ZM164.992 25.192C164.48 25.192 164.016 25.0587 163.6 24.792C163.19 24.5253 162.862 24.136 162.616 23.624C162.376 23.1067 162.256 22.4773 162.256 21.736H162.736C162.736 22.232 162.838 22.656 163.04 23.008C163.248 23.3547 163.515 23.6187 163.84 23.8C164.166 23.9813 164.507 24.072 164.864 24.072C165.275 24.072 165.651 23.9547 165.992 23.72C166.334 23.4853 166.606 23.1493 166.808 22.712C167.016 22.2747 167.12 21.752 167.12 21.144C167.12 20.5467 167.019 20.0347 166.816 19.608C166.614 19.176 166.339 18.8453 165.992 18.616C165.651 18.3813 165.27 18.264 164.848 18.264C164.486 18.264 164.142 18.3547 163.816 18.536C163.496 18.712 163.235 18.9733 163.032 19.32C162.835 19.6667 162.736 20.0933 162.736 20.6H162.256C162.256 19.8747 162.374 19.256 162.608 18.744C162.848 18.232 163.179 17.84 163.6 17.568C164.022 17.296 164.512 17.16 165.072 17.16C165.675 17.16 166.227 17.3227 166.728 17.648C167.235 17.968 167.64 18.4267 167.944 19.024C168.248 19.6213 168.4 20.328 168.4 21.144C168.4 21.9653 168.246 22.68 167.936 23.288C167.627 23.8907 167.214 24.36 166.696 24.696C166.179 25.0267 165.611 25.192 164.992 25.192ZM161.488 25V14.088H162.736V23.208L162.368 25H161.488ZM173.901 25.192C173.213 25.192 172.6 25.04 172.061 24.736C171.528 24.432 171.106 23.9813 170.797 23.384C170.488 22.7867 170.333 22.0507 170.333 21.176C170.333 20.296 170.488 19.56 170.797 18.968C171.106 18.3707 171.528 17.92 172.061 17.616C172.6 17.312 173.213 17.16 173.901 17.16C174.584 17.16 175.192 17.312 175.725 17.616C176.264 17.92 176.685 18.3707 176.989 18.968C177.298 19.56 177.453 20.296 177.453 21.176C177.453 22.0507 177.298 22.7867 176.989 23.384C176.685 23.9813 176.264 24.432 175.725 24.736C175.192 25.04 174.584 25.192 173.901 25.192ZM173.869 24.104C174.365 24.104 174.786 23.9867 175.133 23.752C175.48 23.512 175.741 23.1733 175.917 22.736C176.098 22.2987 176.189 21.7787 176.189 21.176C176.189 20.264 176 19.5467 175.621 19.024C175.242 18.496 174.68 18.232 173.933 18.232C173.432 18.232 173.008 18.352 172.661 18.592C172.32 18.8267 172.058 19.1653 171.877 19.608C171.701 20.0453 171.613 20.568 171.613 21.176C171.613 22.0773 171.802 22.792 172.181 23.32C172.565 23.8427 173.128 24.104 173.869 24.104ZM185.243 17.336H186.491V25H185.243V17.336ZM179.819 17.336H181.067V22.104C181.067 22.744 181.222 23.2293 181.531 23.56C181.846 23.8907 182.294 24.056 182.875 24.056C183.355 24.056 183.771 23.928 184.123 23.672C184.48 23.416 184.755 23.064 184.947 22.616C185.144 22.1627 185.243 21.6453 185.243 21.064H185.707C185.707 21.9227 185.582 22.656 185.331 23.264C185.086 23.872 184.736 24.3387 184.283 24.664C183.835 24.984 183.307 25.144 182.699 25.144C182.123 25.144 181.619 25.0373 181.187 24.824C180.755 24.6107 180.419 24.288 180.179 23.856C179.939 23.4187 179.819 22.8667 179.819 22.2V17.336ZM192.242 25.192C191.826 25.192 191.453 25.112 191.122 24.952C190.792 24.792 190.53 24.552 190.338 24.232C190.146 23.912 190.05 23.512 190.05 23.032V15.224H191.282V23C191.282 23.7893 191.65 24.184 192.386 24.184C192.605 24.184 192.816 24.16 193.018 24.112C193.226 24.064 193.458 23.992 193.714 23.896L193.89 24.792C193.618 24.9093 193.346 25.0053 193.074 25.08C192.808 25.1547 192.53 25.192 192.242 25.192ZM188.818 18.216V17.352H193.698V18.216H188.818ZM35.368 45.192C34.6267 45.192 34.008 45.088 33.512 44.88C33.016 44.6667 32.64 44.376 32.384 44.008C32.128 43.6347 31.992 43.208 31.976 42.728H33.176C33.2027 43.2133 33.3973 43.5787 33.76 43.824C34.128 44.064 34.6267 44.184 35.256 44.184C35.5867 44.184 35.8907 44.1307 36.168 44.024C36.4453 43.9173 36.6667 43.7707 36.832 43.584C36.9973 43.3973 37.08 43.1867 37.08 42.952C37.08 42.6533 36.9707 42.4187 36.752 42.248C36.5333 42.0773 36.184 41.928 35.704 41.8L34.216 41.32C33.5707 41.1173 33.0747 40.84 32.728 40.488C32.3867 40.1307 32.216 39.704 32.216 39.208C32.216 38.5893 32.488 38.0933 33.032 37.72C33.576 37.3467 34.2907 37.16 35.176 37.16C36.1147 37.16 36.8427 37.352 37.36 37.736C37.8773 38.12 38.1467 38.6 38.168 39.176H36.936C36.888 38.84 36.7173 38.5867 36.424 38.416C36.1307 38.24 35.7147 38.152 35.176 38.152C34.6587 38.152 34.2533 38.2693 33.96 38.504C33.672 38.7333 33.528 38.9893 33.528 39.272C33.528 39.8 33.9813 40.1893 34.888 40.44L36.408 40.952C37.064 41.1493 37.5653 41.408 37.912 41.728C38.264 42.048 38.44 42.456 38.44 42.952C38.44 43.336 38.3147 43.6987 38.064 44.04C37.8133 44.3813 37.4587 44.6587 37 44.872C36.5413 45.0853 35.9973 45.192 35.368 45.192ZM43.9503 45.192C43.2623 45.192 42.6489 45.04 42.1102 44.736C41.5769 44.432 41.1556 43.9813 40.8462 43.384C40.5369 42.7867 40.3822 42.0507 40.3822 41.176C40.3822 40.296 40.5369 39.56 40.8462 38.968C41.1556 38.3707 41.5769 37.92 42.1102 37.616C42.6489 37.312 43.2623 37.16 43.9503 37.16C44.6329 37.16 45.2409 37.312 45.7743 37.616C46.3129 37.92 46.7343 38.3707 47.0382 38.968C47.3476 39.56 47.5023 40.296 47.5023 41.176C47.5023 42.0507 47.3476 42.7867 47.0382 43.384C46.7343 43.9813 46.3129 44.432 45.7743 44.736C45.2409 45.04 44.6329 45.192 43.9503 45.192ZM43.9183 44.104C44.4143 44.104 44.8356 43.9867 45.1823 43.752C45.5289 43.512 45.7902 43.1733 45.9662 42.736C46.1476 42.2987 46.2383 41.7787 46.2383 41.176C46.2383 40.264 46.0489 39.5467 45.6702 39.024C45.2916 38.496 44.7289 38.232 43.9823 38.232C43.4809 38.232 43.0569 38.352 42.7102 38.592C42.3689 38.8267 42.1076 39.1653 41.9262 39.608C41.7503 40.0453 41.6623 40.568 41.6623 41.176C41.6623 42.0773 41.8516 42.792 42.2302 43.32C42.6143 43.8427 43.1769 44.104 43.9183 44.104ZM60.8443 45V40.504C60.8443 39.7733 60.6683 39.2187 60.3162 38.84C59.9696 38.456 59.5003 38.264 58.9082 38.264C58.2149 38.264 57.6842 38.5333 57.3162 39.072C56.9482 39.6053 56.7642 40.344 56.7642 41.288H56.1883C56.1883 40.6 56.2549 39.9973 56.3882 39.48C56.5269 38.9627 56.7269 38.5333 56.9882 38.192C57.2496 37.8453 57.5669 37.5867 57.9403 37.416C58.3136 37.2453 58.7376 37.16 59.2122 37.16C59.8149 37.16 60.3296 37.296 60.7563 37.568C61.1883 37.8347 61.5189 38.2187 61.7483 38.72C61.9776 39.2213 62.0922 39.816 62.0922 40.504V45H60.8443ZM50.0922 45V37.352H51.1642L51.3082 38.888C51.5482 38.3333 51.8842 37.9067 52.3162 37.608C52.7536 37.3093 53.2763 37.16 53.8843 37.16C54.4869 37.16 55.0016 37.296 55.4282 37.568C55.8602 37.8347 56.1909 38.2187 56.4202 38.72C56.6496 39.2213 56.7642 39.816 56.7642 40.504V45H55.5322V40.504C55.5322 39.7733 55.3562 39.2187 55.0043 38.84C54.6576 38.456 54.1829 38.264 53.5802 38.264C53.1216 38.264 52.7242 38.3893 52.3882 38.64C52.0522 38.8907 51.7936 39.2507 51.6122 39.72C51.4309 40.184 51.3402 40.7387 51.3402 41.384V45H50.0922ZM67.877 45.192C67.2157 45.192 66.6237 45.024 66.101 44.688C65.5837 44.3467 65.173 43.8747 64.869 43.272C64.5703 42.6693 64.421 41.976 64.421 41.192C64.421 40.3547 64.5703 39.6347 64.869 39.032C65.1677 38.4293 65.5757 37.968 66.093 37.648C66.6157 37.3227 67.2103 37.16 67.877 37.16C68.4583 37.16 68.9543 37.2773 69.365 37.512C69.7757 37.7467 70.1063 38.064 70.357 38.464C70.6077 38.864 70.781 39.3173 70.877 39.824C70.9783 40.3253 71.0077 40.8453 70.965 41.384H65.429V40.616H70.141L69.773 40.856C69.789 40.5413 69.7703 40.2267 69.717 39.912C69.669 39.5973 69.5757 39.3093 69.437 39.048C69.2983 38.7813 69.1037 38.568 68.853 38.408C68.6023 38.248 68.2823 38.168 67.893 38.168C67.4023 38.168 66.9917 38.2933 66.661 38.544C66.3303 38.7947 66.0823 39.1253 65.917 39.536C65.7517 39.9413 65.669 40.3813 65.669 40.856V41.368C65.669 41.9013 65.749 42.3787 65.909 42.8C66.0743 43.2213 66.3197 43.5547 66.645 43.8C66.9703 44.0453 67.381 44.168 67.877 44.168C68.373 44.168 68.781 44.048 69.101 43.808C69.421 43.568 69.6157 43.2133 69.685 42.744H70.981C70.901 43.2507 70.7197 43.688 70.437 44.056C70.1543 44.4187 69.7943 44.6987 69.357 44.896C68.9197 45.0933 68.4263 45.192 67.877 45.192ZM75.9517 45.192C75.5357 45.192 75.1624 45.112 74.8317 44.952C74.5011 44.792 74.2397 44.552 74.0477 44.232C73.8557 43.912 73.7597 43.512 73.7597 43.032V35.224H74.9917V43C74.9917 43.7893 75.3597 44.184 76.0957 44.184C76.3144 44.184 76.5251 44.16 76.7277 44.112C76.9357 44.064 77.1677 43.992 77.4237 43.896L77.5997 44.792C77.3277 44.9093 77.0557 45.0053 76.7837 45.08C76.5171 45.1547 76.2397 45.192 75.9517 45.192ZM72.5277 38.216V37.352H77.4077V38.216H72.5277ZM85.2154 45V40.504C85.2154 39.7733 85.0394 39.2187 84.6874 38.84C84.3407 38.456 83.866 38.264 83.2634 38.264C82.8047 38.264 82.4074 38.3893 82.0714 38.64C81.7354 38.8907 81.4767 39.2507 81.2954 39.72C81.114 40.184 81.0234 40.7387 81.0234 41.384H80.5434C80.5434 40.4933 80.6607 39.7333 80.8954 39.104C81.13 38.4747 81.4714 37.9947 81.9194 37.664C82.3727 37.328 82.922 37.16 83.5674 37.16C84.17 37.16 84.6847 37.296 85.1114 37.568C85.5434 37.8347 85.874 38.2187 86.1034 38.72C86.3327 39.2213 86.4474 39.816 86.4474 40.504V45H85.2154ZM79.7754 45V34.088H81.0234V45H79.7754ZM90.2956 35.544C90.0396 35.544 89.837 35.472 89.6876 35.328C89.5383 35.1787 89.4636 34.984 89.4636 34.744C89.4636 34.5093 89.5383 34.3227 89.6876 34.184C89.837 34.0453 90.0396 33.976 90.2956 33.976C90.5516 33.976 90.7543 34.0453 90.9036 34.184C91.053 34.3227 91.1276 34.5093 91.1276 34.744C91.1276 34.984 91.053 35.1787 90.9036 35.328C90.7543 35.472 90.5516 35.544 90.2956 35.544ZM89.6716 45V37.336H90.9196V45H89.6716ZM99.9572 45V40.504C99.9572 39.7733 99.7812 39.2187 99.4292 38.84C99.0826 38.456 98.6079 38.264 98.0052 38.264C97.5466 38.264 97.1492 38.3893 96.8132 38.64C96.4772 38.8907 96.2186 39.2507 96.0372 39.72C95.8559 40.184 95.7652 40.7387 95.7652 41.384H95.2852C95.2852 40.4933 95.4026 39.7333 95.6372 39.104C95.8719 38.4747 96.2132 37.9947 96.6612 37.664C97.1146 37.328 97.6639 37.16 98.3092 37.16C98.9119 37.16 99.4266 37.296 99.8532 37.568C100.285 37.8347 100.616 38.2187 100.845 38.72C101.075 39.2213 101.189 39.816 101.189 40.504V45H99.9572ZM94.5172 45V37.352H95.5892L95.7652 39.112V45H94.5172ZM107.037 48.936C106.253 48.936 105.573 48.824 104.997 48.6C104.421 48.3813 103.973 48.0853 103.653 47.712C103.339 47.344 103.181 46.936 103.181 46.488C103.181 45.896 103.397 45.4427 103.829 45.128C104.267 44.8187 104.829 44.664 105.517 44.664L106.205 45.096C105.629 45.096 105.184 45.216 104.869 45.456C104.555 45.696 104.397 46.024 104.397 46.44C104.397 46.856 104.621 47.208 105.069 47.496C105.517 47.784 106.173 47.928 107.037 47.928C107.677 47.928 108.237 47.8347 108.717 47.648C109.203 47.4667 109.579 47.2267 109.845 46.928C110.117 46.6347 110.253 46.3173 110.253 45.976C110.253 45.736 110.165 45.528 109.989 45.352C109.813 45.1813 109.544 45.096 109.181 45.096H106.205C105.688 45.096 105.24 45.0187 104.861 44.864C104.488 44.704 104.2 44.496 103.997 44.24C103.795 43.984 103.693 43.704 103.693 43.4C103.693 43.08 103.784 42.808 103.965 42.584C104.147 42.36 104.381 42.1893 104.669 42.072C104.963 41.9547 105.277 41.896 105.613 41.896L105.853 42.36C105.693 42.36 105.531 42.3973 105.365 42.472C105.205 42.5413 105.069 42.648 104.957 42.792C104.851 42.9307 104.797 43.1067 104.797 43.32C104.797 43.5653 104.899 43.7707 105.101 43.936C105.304 44.1013 105.672 44.184 106.205 44.184H109.181C109.901 44.184 110.467 44.336 110.877 44.64C111.293 44.944 111.501 45.368 111.501 45.912C111.501 46.4133 111.323 46.8933 110.965 47.352C110.608 47.816 110.096 48.1947 109.429 48.488C108.763 48.7867 107.965 48.936 107.037 48.936ZM107.261 42.76C106.675 42.76 106.144 42.6427 105.669 42.408C105.2 42.1733 104.827 41.8453 104.549 41.424C104.277 41.0027 104.141 40.5147 104.141 39.96C104.141 39.4 104.277 38.9093 104.549 38.488C104.827 38.0667 105.2 37.7413 105.669 37.512C106.144 37.2773 106.675 37.16 107.261 37.16C107.832 37.16 108.349 37.2773 108.813 37.512C109.283 37.7413 109.656 38.0667 109.933 38.488C110.211 38.9093 110.349 39.4 110.349 39.96C110.349 40.5147 110.211 41.0027 109.933 41.424C109.656 41.8453 109.283 42.1733 108.813 42.408C108.349 42.6427 107.832 42.76 107.261 42.76ZM107.261 41.864C107.848 41.864 108.304 41.6827 108.629 41.32C108.955 40.9573 109.117 40.504 109.117 39.96C109.117 39.4 108.955 38.9467 108.629 38.6C108.304 38.248 107.848 38.072 107.261 38.072C106.68 38.072 106.221 38.248 105.885 38.6C105.555 38.9467 105.389 39.4 105.389 39.96C105.389 40.504 105.555 40.9573 105.885 41.32C106.221 41.6827 106.68 41.864 107.261 41.864ZM109.773 38.376L109.181 38.136C109.181 37.688 109.269 37.296 109.445 36.96C109.621 36.6187 109.872 36.3547 110.197 36.168C110.523 35.976 110.909 35.88 111.357 35.88L111.261 37.112C110.781 37.112 110.413 37.216 110.157 37.424C109.901 37.6267 109.773 37.944 109.773 38.376ZM120.138 45.192C119.476 45.192 118.884 45.024 118.362 44.688C117.844 44.3467 117.434 43.8747 117.13 43.272C116.831 42.6693 116.682 41.976 116.682 41.192C116.682 40.3547 116.831 39.6347 117.13 39.032C117.428 38.4293 117.836 37.968 118.354 37.648C118.876 37.3227 119.471 37.16 120.138 37.16C120.719 37.16 121.215 37.2773 121.626 37.512C122.036 37.7467 122.367 38.064 122.618 38.464C122.868 38.864 123.042 39.3173 123.138 39.824C123.239 40.3253 123.268 40.8453 123.226 41.384H117.69V40.616H122.402L122.034 40.856C122.05 40.5413 122.031 40.2267 121.978 39.912C121.93 39.5973 121.836 39.3093 121.698 39.048C121.559 38.7813 121.364 38.568 121.114 38.408C120.863 38.248 120.543 38.168 120.154 38.168C119.663 38.168 119.252 38.2933 118.922 38.544C118.591 38.7947 118.343 39.1253 118.178 39.536C118.012 39.9413 117.93 40.3813 117.93 40.856V41.368C117.93 41.9013 118.01 42.3787 118.17 42.8C118.335 43.2213 118.58 43.5547 118.906 43.8C119.231 44.0453 119.642 44.168 120.138 44.168C120.634 44.168 121.042 44.048 121.362 43.808C121.682 43.568 121.876 43.2133 121.946 42.744H123.242C123.162 43.2507 122.98 43.688 122.698 44.056C122.415 44.4187 122.055 44.6987 121.618 44.896C121.18 45.0933 120.687 45.192 120.138 45.192ZM125.86 45V34.088H127.108V45H125.86ZM133.257 45.192C132.515 45.192 131.897 45.088 131.401 44.88C130.905 44.6667 130.529 44.376 130.273 44.008C130.017 43.6347 129.881 43.208 129.865 42.728H131.065C131.091 43.2133 131.286 43.5787 131.649 43.824C132.017 44.064 132.515 44.184 133.145 44.184C133.475 44.184 133.779 44.1307 134.057 44.024C134.334 43.9173 134.555 43.7707 134.721 43.584C134.886 43.3973 134.969 43.1867 134.969 42.952C134.969 42.6533 134.859 42.4187 134.641 42.248C134.422 42.0773 134.073 41.928 133.593 41.8L132.105 41.32C131.459 41.1173 130.963 40.84 130.617 40.488C130.275 40.1307 130.105 39.704 130.105 39.208C130.105 38.5893 130.377 38.0933 130.921 37.72C131.465 37.3467 132.179 37.16 133.065 37.16C134.003 37.16 134.731 37.352 135.249 37.736C135.766 38.12 136.035 38.6 136.057 39.176H134.825C134.777 38.84 134.606 38.5867 134.313 38.416C134.019 38.24 133.603 38.152 133.065 38.152C132.547 38.152 132.142 38.2693 131.849 38.504C131.561 38.7333 131.417 38.9893 131.417 39.272C131.417 39.8 131.87 40.1893 132.777 40.44L134.297 40.952C134.953 41.1493 135.454 41.408 135.801 41.728C136.153 42.048 136.329 42.456 136.329 42.952C136.329 43.336 136.203 43.6987 135.953 44.04C135.702 44.3813 135.347 44.6587 134.889 44.872C134.43 45.0853 133.886 45.192 133.257 45.192ZM141.727 45.192C141.066 45.192 140.474 45.024 139.951 44.688C139.434 44.3467 139.023 43.8747 138.719 43.272C138.42 42.6693 138.271 41.976 138.271 41.192C138.271 40.3547 138.42 39.6347 138.719 39.032C139.018 38.4293 139.426 37.968 139.943 37.648C140.466 37.3227 141.06 37.16 141.727 37.16C142.308 37.16 142.804 37.2773 143.215 37.512C143.626 37.7467 143.956 38.064 144.207 38.464C144.458 38.864 144.631 39.3173 144.727 39.824C144.828 40.3253 144.858 40.8453 144.815 41.384H139.279V40.616H143.991L143.623 40.856C143.639 40.5413 143.62 40.2267 143.567 39.912C143.519 39.5973 143.426 39.3093 143.287 39.048C143.148 38.7813 142.954 38.568 142.703 38.408C142.452 38.248 142.132 38.168 141.743 38.168C141.252 38.168 140.842 38.2933 140.511 38.544C140.18 38.7947 139.932 39.1253 139.767 39.536C139.602 39.9413 139.519 40.3813 139.519 40.856V41.368C139.519 41.9013 139.599 42.3787 139.759 42.8C139.924 43.2213 140.17 43.5547 140.495 43.8C140.82 44.0453 141.231 44.168 141.727 44.168C142.223 44.168 142.631 44.048 142.951 43.808C143.271 43.568 143.466 43.2133 143.535 42.744H144.831C144.751 43.2507 144.57 43.688 144.287 44.056C144.004 44.4187 143.644 44.6987 143.207 44.896C142.77 45.0933 142.276 45.192 141.727 45.192ZM147.578 42.184L147.418 34.984H148.746L148.586 42.184H147.578ZM148.082 45.144C147.81 45.144 147.586 45.0587 147.41 44.888C147.234 44.7173 147.146 44.504 147.146 44.248C147.146 43.9973 147.234 43.784 147.41 43.608C147.586 43.4267 147.81 43.336 148.082 43.336C148.348 43.336 148.572 43.4267 148.754 43.608C148.94 43.784 149.034 43.9973 149.034 44.248C149.034 44.504 148.94 44.7173 148.754 44.888C148.572 45.0587 148.348 45.144 148.082 45.144Z" fill="#333333"/>
</g>
<defs>
<filter id="filter0_d_7084_5695" x="0" y="0" width="213.035" height="68" filterUnits="userSpaceOnUse" color-interpolation-filters="sRGB">
<feFlood flood-opacity="0" result="BackgroundImageFix"/>
<feColorMatrix in="SourceAlpha" type="matrix" values="0 0 0 0 0 0 0 0 0 0 0 0 0 0 0 0 0 0 127 0" result="hardAlpha"/>
<feOffset dy="4"/>
<feGaussianBlur stdDeviation="3"/>
<feComposite in2="hardAlpha" operator="out"/>
<feColorMatrix type="matrix" values="0 0 0 0 0 0 0 0 0 0 0 0 0 0 0 0 0 0 0.1 0"/>
<feBlend mode="normal" in2="BackgroundImageFix" result="effect1_dropShadow_7084_5695"/>
<feBlend mode="normal" in="SourceGraphic" in2="effect1_dropShadow_7084_5695" result="shape"/>
</filter>
<filter id="filter1_d_7084_5695" x="25.144" y="12.0879" width="174.746" height="46.8477" filterUnits="userSpaceOnUse" color-interpolation-filters="sRGB">
<feFlood flood-opacity="0" result="BackgroundImageFix"/>
<feColorMatrix in="SourceAlpha" type="matrix" values="0 0 0 0 0 0 0 0 0 0 0 0 0 0 0 0 0 0 127 0" result="hardAlpha"/>
<feOffset dy="4"/>
<feGaussianBlur stdDeviation="3"/>
<feComposite in2="hardAlpha" operator="out"/>
<feColorMatrix type="matrix" values="0 0 0 0 0 0 0 0 0 0 0 0 0 0 0 0 0 0 0.05 0"/>
<feBlend mode="normal" in2="BackgroundImageFix" result="effect1_dropShadow_7084_5695"/>
<feBlend mode="normal" in="SourceGraphic" in2="effect1_dropShadow_7084_5695" result="shape"/>
</filter>
</defs>
</svg>
