<svg width="256" height="68" viewBox="0 0 256 68" fill="none" xmlns="http://www.w3.org/2000/svg">
<mask id="path-1-inside-1_7041_5805" fill="white">
<path d="M248.724 27.3669L239 19L239 11C239 6.02944 234.971 2 230 2L9 1.99998C4.02944 1.99998 4.54341e-06 6.02942 4.10887e-06 11L7.86805e-07 49C3.52265e-07 53.9705 4.02943 58 9 58L230 58C234.971 58 239 53.9706 239 49L239 39.5L248.612 32.0069C250.106 30.8425 250.16 28.6022 248.724 27.3669Z"/>
</mask>
<path d="M248.724 27.3669L239 19L239 11C239 6.02944 234.971 2 230 2L9 1.99998C4.02944 1.99998 4.54341e-06 6.02942 4.10887e-06 11L7.86805e-07 49C3.52265e-07 53.9705 4.02943 58 9 58L230 58C234.971 58 239 53.9706 239 49L239 39.5L248.612 32.0069C250.106 30.8425 250.16 28.6022 248.724 27.3669Z" fill="white"/>
<path d="M239 19L237.6 19L237.6 19.6423L238.087 20.0612L239 19ZM248.724 27.3669L249.637 26.3056L249.637 26.3056L248.724 27.3669ZM248.612 32.0069L247.751 30.9028L247.751 30.9028L248.612 32.0069ZM239 39.5L238.139 38.3959L237.6 38.8162L237.6 39.5L239 39.5ZM238.087 20.0612L247.811 28.4281L249.637 26.3056L239.913 17.9388L238.087 20.0612ZM247.751 30.9028L238.139 38.3959L239.861 40.6041L249.473 33.1111L247.751 30.9028ZM247.811 28.4281C248.577 29.0869 248.548 30.2817 247.751 30.9028L249.473 33.1111C251.663 31.4032 251.743 28.1175 249.637 26.3056L247.811 28.4281ZM230 56.6L9 56.6L9 59.4L230 59.4L230 56.6ZM1.39999 49L1.4 11L-1.39999 11L-1.39999 49L1.39999 49ZM9 3.39998L230 3.4L230 0.599997L9.00001 0.599977L9 3.39998ZM237.6 39.5L237.6 49L240.4 49L240.4 39.5L237.6 39.5ZM237.6 11L237.6 19L240.4 19L240.4 11L237.6 11ZM230 3.4C234.197 3.4 237.6 6.80263 237.6 11L240.4 11C240.4 5.25624 235.744 0.599997 230 0.599997L230 3.4ZM1.4 11C1.4 6.80261 4.80263 3.39998 9 3.39998L9.00001 0.599977C3.25625 0.599977 -1.39999 5.25622 -1.39999 11L1.4 11ZM9 56.6C4.80263 56.6 1.39999 53.1973 1.39999 49L-1.39999 49C-1.39999 54.7437 3.25624 59.4 9 59.4L9 56.6ZM230 59.4C235.744 59.4 240.4 54.7438 240.4 49L237.6 49C237.6 53.1974 234.197 56.6 230 56.6L230 59.4Z" fill="white" mask="url(#path-1-inside-1_7041_5805)"/>
<g filter="url(#filter0_d_7041_5805)">
<mask id="path-3-inside-2_7041_5805" fill="white">
<path d="M248.724 27.3669L239 19L239 11C239 6.02944 234.971 2 230 2L42 1.99998C37.0294 1.99998 33 6.02942 33 11L33 49C33 53.9705 37.0294 58 42 58L230 58C234.971 58 239 53.9706 239 49L239 39.5L248.612 32.0069C250.106 30.8425 250.16 28.6022 248.724 27.3669Z"/>
</mask>
<path d="M248.724 27.3669L239 19L239 11C239 6.02944 234.971 2 230 2L42 1.99998C37.0294 1.99998 33 6.02942 33 11L33 49C33 53.9705 37.0294 58 42 58L230 58C234.971 58 239 53.9706 239 49L239 39.5L248.612 32.0069C250.106 30.8425 250.16 28.6022 248.724 27.3669Z" fill="white"/>
<path d="M239 19L237.6 19L237.6 19.6423L238.087 20.0612L239 19ZM248.724 27.3669L249.637 26.3056L249.637 26.3056L248.724 27.3669ZM248.612 32.0069L247.751 30.9028L247.751 30.9028L248.612 32.0069ZM239 39.5L238.139 38.3959L237.6 38.8162L237.6 39.5L239 39.5ZM230 58L230 59.4L230 58ZM42 58L42 56.6L42 58ZM238.087 20.0612L247.811 28.4281L249.637 26.3056L239.913 17.9388L238.087 20.0612ZM247.751 30.9028L238.139 38.3959L239.861 40.6041L249.473 33.1111L247.751 30.9028ZM247.811 28.4281C248.577 29.0869 248.548 30.2817 247.751 30.9028L249.473 33.1111C251.663 31.4032 251.743 28.1175 249.637 26.3056L247.811 28.4281ZM230 56.6L42 56.6L42 59.4L230 59.4L230 56.6ZM34.4 49L34.4 11L31.6 11L31.6 49L34.4 49ZM42 3.39998L230 3.4L230 0.599997L42 0.59998L42 3.39998ZM237.6 39.5L237.6 49L240.4 49L240.4 39.5L237.6 39.5ZM237.6 11L237.6 19L240.4 19L240.4 11L237.6 11ZM230 3.4C234.197 3.4 237.6 6.80263 237.6 11L240.4 11C240.4 5.25624 235.744 0.599997 230 0.599997L230 3.4ZM34.4 11C34.4 6.80262 37.8026 3.39998 42 3.39998L42 0.59998C36.2562 0.59998 31.6 5.25622 31.6 11L34.4 11ZM42 56.6C37.8026 56.6 34.4 53.1973 34.4 49L31.6 49C31.6 54.7437 36.2562 59.4 42 59.4L42 56.6ZM230 59.4C235.744 59.4 240.4 54.7438 240.4 49L237.6 49C237.6 53.1974 234.197 56.6 230 56.6L230 59.4Z" fill="#333333" mask="url(#path-3-inside-2_7041_5805)"/>
</g>
<g filter="url(#filter1_d_7041_5805)">
<path d="M58.6243 25.692C57.7923 25.692 57.0483 25.5 56.3923 25.116C55.7363 24.732 55.2189 24.156 54.8403 23.388C54.4616 22.6147 54.2723 21.6493 54.2723 20.492C54.2723 19.3187 54.4616 18.348 54.8403 17.58C55.2189 16.8067 55.7363 16.2307 56.3923 15.852C57.0483 15.468 57.7923 15.276 58.6243 15.276C59.4563 15.276 60.2003 15.468 60.8563 15.852C61.5123 16.236 62.0296 16.8147 62.4083 17.588C62.7869 18.3613 62.9763 19.3293 62.9763 20.492C62.9763 21.66 62.7869 22.6307 62.4083 23.404C62.0296 24.172 61.5123 24.7453 60.8563 25.124C60.2003 25.5027 59.4563 25.692 58.6243 25.692ZM58.6243 24.54C59.5683 24.54 60.3123 24.196 60.8563 23.508C61.4056 22.82 61.6803 21.8093 61.6803 20.476C61.6803 19.1693 61.4056 18.164 60.8563 17.46C60.3123 16.7507 59.5683 16.396 58.6243 16.396C57.6909 16.396 56.9469 16.7507 56.3923 17.46C55.8429 18.1693 55.5683 19.18 55.5683 20.492C55.5683 21.82 55.8429 22.828 56.3923 23.516C56.9469 24.1987 57.6909 24.54 58.6243 24.54ZM71.3364 15.452H73.0644L66.6484 22.06V20.3L71.3364 15.452ZM68.4564 19.692L73.3364 25.5H71.7044L67.5604 20.508L68.4564 19.692ZM65.5604 15.452H66.8244V25.5H65.5604V15.452ZM75.5671 22.684L75.4071 15.484H76.7351L76.5751 22.684H75.5671ZM76.0711 25.644C75.7991 25.644 75.5751 25.5587 75.3991 25.388C75.2231 25.2173 75.1351 25.004 75.1351 24.748C75.1351 24.4973 75.2231 24.284 75.3991 24.108C75.5751 23.9267 75.7991 23.836 76.0711 23.836C76.3378 23.836 76.5618 23.9267 76.7431 24.108C76.9298 24.284 77.0231 24.4973 77.0231 24.748C77.0231 25.004 76.9298 25.2173 76.7431 25.388C76.5618 25.5587 76.3378 25.644 76.0711 25.644ZM85.2415 15.452V24.412H89.7215V25.5H83.9935V15.452H85.2415ZM94.2939 25.692C93.6325 25.692 93.0405 25.524 92.5179 25.188C92.0005 24.8467 91.5899 24.3747 91.2859 23.772C90.9872 23.1693 90.8379 22.476 90.8379 21.692C90.8379 20.8547 90.9872 20.1347 91.2859 19.532C91.5845 18.9293 91.9925 18.468 92.5099 18.148C93.0325 17.8227 93.6272 17.66 94.2939 17.66C94.8752 17.66 95.3712 17.7773 95.7819 18.012C96.1925 18.2467 96.5232 18.564 96.7739 18.964C97.0245 19.364 97.1979 19.8173 97.2939 20.324C97.3952 20.8253 97.4245 21.3453 97.3819 21.884H91.8459V21.116H96.5579L96.1899 21.356C96.2059 21.0413 96.1872 20.7267 96.1339 20.412C96.0859 20.0973 95.9925 19.8093 95.8539 19.548C95.7152 19.2813 95.5205 19.068 95.2699 18.908C95.0192 18.748 94.6992 18.668 94.3099 18.668C93.8192 18.668 93.4085 18.7933 93.0779 19.044C92.7472 19.2947 92.4992 19.6253 92.3339 20.036C92.1685 20.4413 92.0859 20.8813 92.0859 21.356V21.868C92.0859 22.4013 92.1659 22.8787 92.3259 23.3C92.4912 23.7213 92.7365 24.0547 93.0619 24.3C93.3872 24.5453 93.7979 24.668 94.2939 24.668C94.7899 24.668 95.1979 24.548 95.5179 24.308C95.8379 24.068 96.0325 23.7133 96.1019 23.244H97.3979C97.3179 23.7507 97.1365 24.188 96.8539 24.556C96.5712 24.9187 96.2112 25.1987 95.7739 25.396C95.3365 25.5933 94.8432 25.692 94.2939 25.692ZM102.369 25.692C101.953 25.692 101.579 25.612 101.249 25.452C100.918 25.292 100.657 25.052 100.465 24.732C100.273 24.412 100.177 24.012 100.177 23.532V15.724H101.409V23.5C101.409 24.2893 101.777 24.684 102.513 24.684C102.731 24.684 102.942 24.66 103.145 24.612C103.353 24.564 103.585 24.492 103.841 24.396L104.017 25.292C103.745 25.4093 103.473 25.5053 103.201 25.58C102.934 25.6547 102.657 25.692 102.369 25.692ZM98.9446 18.716V17.852H103.825V18.716H98.9446ZM120.901 25.5V21.004C120.901 20.2733 120.725 19.7187 120.373 19.34C120.026 18.956 119.557 18.764 118.965 18.764C118.272 18.764 117.741 19.0333 117.373 19.572C117.005 20.1053 116.821 20.844 116.821 21.788H116.245C116.245 21.1 116.312 20.4973 116.445 19.98C116.584 19.4627 116.784 19.0333 117.045 18.692C117.306 18.3453 117.624 18.0867 117.997 17.916C118.37 17.7453 118.794 17.66 119.269 17.66C119.872 17.66 120.386 17.796 120.813 18.068C121.245 18.3347 121.576 18.7187 121.805 19.22C122.034 19.7213 122.149 20.316 122.149 21.004V25.5H120.901ZM110.149 25.5V17.852H111.221L111.365 19.388C111.605 18.8333 111.941 18.4067 112.373 18.108C112.81 17.8093 113.333 17.66 113.941 17.66C114.544 17.66 115.058 17.796 115.485 18.068C115.917 18.3347 116.248 18.7187 116.477 19.22C116.706 19.7213 116.821 20.316 116.821 21.004V25.5H115.589V21.004C115.589 20.2733 115.413 19.7187 115.061 19.34C114.714 18.956 114.24 18.764 113.637 18.764C113.178 18.764 112.781 18.8893 112.445 19.14C112.109 19.3907 111.85 19.7507 111.669 20.22C111.488 20.684 111.397 21.2387 111.397 21.884V25.5H110.149ZM127.934 25.692C127.273 25.692 126.681 25.524 126.158 25.188C125.641 24.8467 125.23 24.3747 124.926 23.772C124.627 23.1693 124.478 22.476 124.478 21.692C124.478 20.8547 124.627 20.1347 124.926 19.532C125.225 18.9293 125.633 18.468 126.15 18.148C126.673 17.8227 127.267 17.66 127.934 17.66C128.515 17.66 129.011 17.7773 129.422 18.012C129.833 18.2467 130.163 18.564 130.414 18.964C130.665 19.364 130.838 19.8173 130.934 20.324C131.035 20.8253 131.065 21.3453 131.022 21.884H125.486V21.116H130.198L129.83 21.356C129.846 21.0413 129.827 20.7267 129.774 20.412C129.726 20.0973 129.633 19.8093 129.494 19.548C129.355 19.2813 129.161 19.068 128.91 18.908C128.659 18.748 128.339 18.668 127.95 18.668C127.459 18.668 127.049 18.7933 126.718 19.044C126.387 19.2947 126.139 19.6253 125.974 20.036C125.809 20.4413 125.726 20.8813 125.726 21.356V21.868C125.726 22.4013 125.806 22.8787 125.966 23.3C126.131 23.7213 126.377 24.0547 126.702 24.3C127.027 24.5453 127.438 24.668 127.934 24.668C128.43 24.668 128.838 24.548 129.158 24.308C129.478 24.068 129.673 23.7133 129.742 23.244H131.038C130.958 23.7507 130.777 24.188 130.494 24.556C130.211 24.9187 129.851 25.1987 129.414 25.396C128.977 25.5933 128.483 25.692 127.934 25.692ZM137.614 25.5V14.588H138.862V25.5H137.614ZM138.67 21.116L142.574 17.852H144.318L138.67 22.444V21.116ZM142.958 25.5L139.326 20.668L140.59 20.444L144.494 25.5H142.958ZM152.229 25.5V21.004C152.229 20.2733 152.053 19.7187 151.701 19.34C151.354 18.956 150.88 18.764 150.277 18.764C149.818 18.764 149.421 18.8893 149.085 19.14C148.749 19.3907 148.49 19.7507 148.309 20.22C148.128 20.684 148.037 21.2387 148.037 21.884H147.557C147.557 20.9933 147.674 20.2333 147.909 19.604C148.144 18.9747 148.485 18.4947 148.933 18.164C149.386 17.828 149.936 17.66 150.581 17.66C151.184 17.66 151.698 17.796 152.125 18.068C152.557 18.3347 152.888 18.7187 153.117 19.22C153.346 19.7213 153.461 20.316 153.461 21.004V25.5H152.229ZM146.789 25.5V17.852H147.861L148.037 19.612V25.5H146.789ZM159.373 25.692C158.685 25.692 158.072 25.54 157.533 25.236C157 24.932 156.579 24.4813 156.269 23.884C155.96 23.2867 155.805 22.5507 155.805 21.676C155.805 20.796 155.96 20.06 156.269 19.468C156.579 18.8707 157 18.42 157.533 18.116C158.072 17.812 158.685 17.66 159.373 17.66C160.056 17.66 160.664 17.812 161.197 18.116C161.736 18.42 162.157 18.8707 162.461 19.468C162.771 20.06 162.925 20.796 162.925 21.676C162.925 22.5507 162.771 23.2867 162.461 23.884C162.157 24.4813 161.736 24.932 161.197 25.236C160.664 25.54 160.056 25.692 159.373 25.692ZM159.341 24.604C159.837 24.604 160.259 24.4867 160.605 24.252C160.952 24.012 161.213 23.6733 161.389 23.236C161.571 22.7987 161.661 22.2787 161.661 21.676C161.661 20.764 161.472 20.0467 161.093 19.524C160.715 18.996 160.152 18.732 159.405 18.732C158.904 18.732 158.48 18.852 158.133 19.092C157.792 19.3267 157.531 19.6653 157.349 20.108C157.173 20.5453 157.085 21.068 157.085 21.676C157.085 22.5773 157.275 23.292 157.653 23.82C158.037 24.3427 158.6 24.604 159.341 24.604ZM164.187 17.852H165.483L167.435 24.236H167.275L169.179 18.22H170.219L172.107 24.252H171.963L173.915 17.852H175.163L172.651 25.5H171.435L169.579 19.852H169.771L167.931 25.5H166.715L164.187 17.852ZM185.962 25.5L185.802 23.82V20.54C185.802 19.852 185.655 19.3587 185.362 19.06C185.069 18.756 184.629 18.604 184.042 18.604C183.711 18.604 183.41 18.652 183.138 18.748C182.871 18.844 182.658 18.9933 182.498 19.196C182.343 19.3933 182.266 19.6493 182.266 19.964H180.874C180.874 19.4093 181.01 18.964 181.282 18.628C181.554 18.2867 181.927 18.0413 182.402 17.892C182.882 17.7373 183.429 17.66 184.042 17.66C184.629 17.66 185.149 17.7587 185.602 17.956C186.055 18.1533 186.41 18.468 186.666 18.9C186.922 19.3267 187.05 19.884 187.05 20.572V25.5H185.962ZM183.354 25.692C182.725 25.692 182.205 25.58 181.794 25.356C181.383 25.132 181.077 24.8413 180.874 24.484C180.671 24.1267 180.57 23.7507 180.57 23.356C180.57 22.8387 180.698 22.4173 180.954 22.092C181.215 21.7667 181.57 21.5293 182.018 21.38C182.466 21.2253 182.97 21.148 183.53 21.148C183.93 21.148 184.33 21.188 184.73 21.268C185.135 21.348 185.53 21.4573 185.914 21.596V22.38C185.594 22.252 185.231 22.1507 184.826 22.076C184.426 22.0013 184.058 21.964 183.722 21.964C183.21 21.964 182.778 22.0707 182.426 22.284C182.074 22.492 181.898 22.8493 181.898 23.356C181.898 23.7293 182.031 24.0493 182.298 24.316C182.57 24.5827 183.002 24.716 183.594 24.716C184.01 24.716 184.383 24.62 184.714 24.428C185.05 24.2307 185.314 23.9853 185.506 23.692C185.703 23.3987 185.802 23.1053 185.802 22.812H186.106C186.106 23.324 185.994 23.7987 185.77 24.236C185.551 24.6733 185.237 25.0253 184.826 25.292C184.415 25.5587 183.925 25.692 183.354 25.692ZM193.703 25.692C193.191 25.692 192.727 25.5587 192.311 25.292C191.9 25.0253 191.572 24.636 191.327 24.124C191.087 23.6067 190.967 22.9773 190.967 22.236H191.447C191.447 22.732 191.548 23.156 191.751 23.508C191.959 23.8547 192.225 24.1187 192.551 24.3C192.876 24.4813 193.217 24.572 193.575 24.572C193.985 24.572 194.361 24.4547 194.703 24.22C195.044 23.9853 195.316 23.6493 195.519 23.212C195.727 22.7747 195.831 22.252 195.831 21.644C195.831 21.0467 195.729 20.5347 195.527 20.108C195.324 19.676 195.049 19.3453 194.703 19.116C194.361 18.8813 193.98 18.764 193.559 18.764C193.196 18.764 192.852 18.8547 192.527 19.036C192.207 19.212 191.945 19.4733 191.743 19.82C191.545 20.1667 191.447 20.5933 191.447 21.1H190.967C190.967 20.3747 191.084 19.756 191.319 19.244C191.559 18.732 191.889 18.34 192.311 18.068C192.732 17.796 193.223 17.66 193.783 17.66C194.385 17.66 194.937 17.8227 195.439 18.148C195.945 18.468 196.351 18.9267 196.655 19.524C196.959 20.1213 197.111 20.828 197.111 21.644C197.111 22.4653 196.956 23.18 196.647 23.788C196.337 24.3907 195.924 24.86 195.407 25.196C194.889 25.5267 194.321 25.692 193.703 25.692ZM190.199 25.5V14.588H191.447V23.708L191.079 25.5H190.199ZM202.611 25.692C201.923 25.692 201.31 25.54 200.771 25.236C200.238 24.932 199.816 24.4813 199.507 23.884C199.198 23.2867 199.043 22.5507 199.043 21.676C199.043 20.796 199.198 20.06 199.507 19.468C199.816 18.8707 200.238 18.42 200.771 18.116C201.31 17.812 201.923 17.66 202.611 17.66C203.294 17.66 203.902 17.812 204.435 18.116C204.974 18.42 205.395 18.8707 205.699 19.468C206.008 20.06 206.163 20.796 206.163 21.676C206.163 22.5507 206.008 23.2867 205.699 23.884C205.395 24.4813 204.974 24.932 204.435 25.236C203.902 25.54 203.294 25.692 202.611 25.692ZM202.579 24.604C203.075 24.604 203.496 24.4867 203.843 24.252C204.19 24.012 204.451 23.6733 204.627 23.236C204.808 22.7987 204.899 22.2787 204.899 21.676C204.899 20.764 204.71 20.0467 204.331 19.524C203.952 18.996 203.39 18.732 202.643 18.732C202.142 18.732 201.718 18.852 201.371 19.092C201.03 19.3267 200.768 19.6653 200.587 20.108C200.411 20.5453 200.323 21.068 200.323 21.676C200.323 22.5773 200.512 23.292 200.891 23.82C201.275 24.3427 201.838 24.604 202.579 24.604ZM213.953 17.836H215.201V25.5H213.953V17.836ZM208.529 17.836H209.777V22.604C209.777 23.244 209.932 23.7293 210.241 24.06C210.556 24.3907 211.004 24.556 211.585 24.556C212.065 24.556 212.481 24.428 212.833 24.172C213.19 23.916 213.465 23.564 213.657 23.116C213.854 22.6627 213.953 22.1453 213.953 21.564H214.417C214.417 22.4227 214.292 23.156 214.041 23.764C213.796 24.372 213.446 24.8387 212.993 25.164C212.545 25.484 212.017 25.644 211.409 25.644C210.833 25.644 210.329 25.5373 209.897 25.324C209.465 25.1107 209.129 24.788 208.889 24.356C208.649 23.9187 208.529 23.3667 208.529 22.7V17.836ZM220.952 25.692C220.536 25.692 220.163 25.612 219.832 25.452C219.502 25.292 219.24 25.052 219.048 24.732C218.856 24.412 218.76 24.012 218.76 23.532V15.724H219.992V23.5C219.992 24.2893 220.36 24.684 221.096 24.684C221.315 24.684 221.526 24.66 221.728 24.612C221.936 24.564 222.168 24.492 222.424 24.396L222.6 25.292C222.328 25.4093 222.056 25.5053 221.784 25.58C221.518 25.6547 221.24 25.692 220.952 25.692ZM217.528 18.716V17.852H222.408V18.716H217.528ZM56.9567 45.692C56.2154 45.692 55.5967 45.588 55.1007 45.38C54.6047 45.1667 54.2287 44.876 53.9727 44.508C53.7167 44.1347 53.5807 43.708 53.5647 43.228H54.7647C54.7914 43.7133 54.9861 44.0787 55.3487 44.324C55.7167 44.564 56.2154 44.684 56.8447 44.684C57.1754 44.684 57.4794 44.6307 57.7567 44.524C58.0341 44.4173 58.2554 44.2707 58.4207 44.084C58.5861 43.8973 58.6687 43.6867 58.6687 43.452C58.6687 43.1533 58.5594 42.9187 58.3407 42.748C58.1221 42.5773 57.7727 42.428 57.2927 42.3L55.8047 41.82C55.1594 41.6173 54.6634 41.34 54.3167 40.988C53.9754 40.6307 53.8047 40.204 53.8047 39.708C53.8047 39.0893 54.0767 38.5933 54.6207 38.22C55.1647 37.8467 55.8794 37.66 56.7647 37.66C57.7034 37.66 58.4314 37.852 58.9487 38.236C59.4661 38.62 59.7354 39.1 59.7567 39.676H58.5247C58.4767 39.34 58.3061 39.0867 58.0127 38.916C57.7194 38.74 57.3034 38.652 56.7647 38.652C56.2474 38.652 55.8421 38.7693 55.5487 39.004C55.2607 39.2333 55.1167 39.4893 55.1167 39.772C55.1167 40.3 55.5701 40.6893 56.4767 40.94L57.9967 41.452C58.6527 41.6493 59.1541 41.908 59.5007 42.228C59.8527 42.548 60.0287 42.956 60.0287 43.452C60.0287 43.836 59.9034 44.1987 59.6527 44.54C59.4021 44.8813 59.0474 45.1587 58.5887 45.372C58.1301 45.5853 57.5861 45.692 56.9567 45.692ZM65.539 45.692C64.851 45.692 64.2377 45.54 63.699 45.236C63.1657 44.932 62.7443 44.4813 62.435 43.884C62.1257 43.2867 61.971 42.5507 61.971 41.676C61.971 40.796 62.1257 40.06 62.435 39.468C62.7443 38.8707 63.1657 38.42 63.699 38.116C64.2377 37.812 64.851 37.66 65.539 37.66C66.2217 37.66 66.8297 37.812 67.363 38.116C67.9017 38.42 68.323 38.8707 68.627 39.468C68.9363 40.06 69.091 40.796 69.091 41.676C69.091 42.5507 68.9363 43.2867 68.627 43.884C68.323 44.4813 67.9017 44.932 67.363 45.236C66.8297 45.54 66.2217 45.692 65.539 45.692ZM65.507 44.604C66.003 44.604 66.4243 44.4867 66.771 44.252C67.1177 44.012 67.379 43.6733 67.555 43.236C67.7363 42.7987 67.827 42.2787 67.827 41.676C67.827 40.764 67.6377 40.0467 67.259 39.524C66.8803 38.996 66.3177 38.732 65.571 38.732C65.0697 38.732 64.6457 38.852 64.299 39.092C63.9577 39.3267 63.6963 39.6653 63.515 40.108C63.339 40.5453 63.251 41.068 63.251 41.676C63.251 42.5773 63.4403 43.292 63.819 43.82C64.203 44.3427 64.7657 44.604 65.507 44.604ZM82.433 45.5V41.004C82.433 40.2733 82.257 39.7187 81.905 39.34C81.5583 38.956 81.089 38.764 80.497 38.764C79.8037 38.764 79.273 39.0333 78.905 39.572C78.537 40.1053 78.353 40.844 78.353 41.788H77.777C77.777 41.1 77.8437 40.4973 77.977 39.98C78.1157 39.4627 78.3157 39.0333 78.577 38.692C78.8383 38.3453 79.1557 38.0867 79.529 37.916C79.9023 37.7453 80.3263 37.66 80.801 37.66C81.4037 37.66 81.9183 37.796 82.345 38.068C82.777 38.3347 83.1077 38.7187 83.337 39.22C83.5663 39.7213 83.681 40.316 83.681 41.004V45.5H82.433ZM71.681 45.5V37.852H72.753L72.897 39.388C73.137 38.8333 73.473 38.4067 73.905 38.108C74.3423 37.8093 74.865 37.66 75.473 37.66C76.0757 37.66 76.5903 37.796 77.017 38.068C77.449 38.3347 77.7797 38.7187 78.009 39.22C78.2383 39.7213 78.353 40.316 78.353 41.004V45.5H77.121V41.004C77.121 40.2733 76.945 39.7187 76.593 39.34C76.2463 38.956 75.7717 38.764 75.169 38.764C74.7103 38.764 74.313 38.8893 73.977 39.14C73.641 39.3907 73.3823 39.7507 73.201 40.22C73.0197 40.684 72.929 41.2387 72.929 41.884V45.5H71.681ZM89.4657 45.692C88.8044 45.692 88.2124 45.524 87.6897 45.188C87.1724 44.8467 86.7617 44.3747 86.4577 43.772C86.1591 43.1693 86.0097 42.476 86.0097 41.692C86.0097 40.8547 86.1591 40.1347 86.4577 39.532C86.7564 38.9293 87.1644 38.468 87.6817 38.148C88.2044 37.8227 88.7991 37.66 89.4657 37.66C90.0471 37.66 90.5431 37.7773 90.9537 38.012C91.3644 38.2467 91.6951 38.564 91.9457 38.964C92.1964 39.364 92.3697 39.8173 92.4657 40.324C92.5671 40.8253 92.5964 41.3453 92.5537 41.884H87.0177V41.116H91.7297L91.3617 41.356C91.3777 41.0413 91.3591 40.7267 91.3057 40.412C91.2577 40.0973 91.1644 39.8093 91.0257 39.548C90.8871 39.2813 90.6924 39.068 90.4417 38.908C90.1911 38.748 89.8711 38.668 89.4817 38.668C88.9911 38.668 88.5804 38.7933 88.2497 39.044C87.9191 39.2947 87.6711 39.6253 87.5057 40.036C87.3404 40.4413 87.2577 40.8813 87.2577 41.356V41.868C87.2577 42.4013 87.3377 42.8787 87.4977 43.3C87.6631 43.7213 87.9084 44.0547 88.2337 44.3C88.5591 44.5453 88.9697 44.668 89.4657 44.668C89.9617 44.668 90.3697 44.548 90.6897 44.308C91.0097 44.068 91.2044 43.7133 91.2737 43.244H92.5697C92.4897 43.7507 92.3084 44.188 92.0257 44.556C91.7431 44.9187 91.3831 45.1987 90.9457 45.396C90.5084 45.5933 90.0151 45.692 89.4657 45.692ZM101.801 45.692C101.193 45.692 100.625 45.532 100.097 45.212C99.5747 44.892 99.1507 44.4307 98.8254 43.828C98.5054 43.2253 98.3454 42.5027 98.3454 41.66C98.3454 40.828 98.5054 40.1133 98.8254 39.516C99.1454 38.9187 99.564 38.46 100.081 38.14C100.604 37.82 101.161 37.66 101.753 37.66C102.276 37.66 102.748 37.788 103.169 38.044C103.596 38.3 103.932 38.6813 104.177 39.188C104.428 39.6893 104.553 40.3107 104.553 41.052H104.009C104.009 40.556 103.911 40.14 103.713 39.804C103.516 39.4627 103.257 39.204 102.937 39.028C102.617 38.852 102.276 38.764 101.913 38.764C101.497 38.764 101.116 38.8787 100.769 39.108C100.423 39.3373 100.145 39.668 99.9374 40.1C99.7294 40.532 99.6254 41.052 99.6254 41.66C99.6254 42.2947 99.7347 42.828 99.9534 43.26C100.177 43.692 100.465 44.02 100.817 44.244C101.169 44.4627 101.54 44.572 101.929 44.572C102.281 44.572 102.615 44.4893 102.929 44.324C103.249 44.1587 103.508 43.9133 103.705 43.588C103.908 43.2627 104.009 42.86 104.009 42.38H104.377C104.377 43.0413 104.279 43.62 104.081 44.116C103.884 44.612 103.593 44.9987 103.209 45.276C102.825 45.5533 102.356 45.692 101.801 45.692ZM105.993 49.436C105.268 49.2333 104.756 48.9213 104.457 48.5C104.159 48.0787 104.009 47.484 104.009 46.716V39.644L104.393 37.852H105.241V46.796C105.241 47.1587 105.276 47.444 105.345 47.652C105.415 47.86 105.535 48.0227 105.705 48.14C105.876 48.2627 106.111 48.3747 106.409 48.476L105.993 49.436ZM113.865 37.836H115.113V45.5H113.865V37.836ZM108.441 37.836H109.689V42.604C109.689 43.244 109.843 43.7293 110.153 44.06C110.467 44.3907 110.915 44.556 111.497 44.556C111.977 44.556 112.393 44.428 112.745 44.172C113.102 43.916 113.377 43.564 113.569 43.116C113.766 42.6627 113.865 42.1453 113.865 41.564H114.329C114.329 42.4227 114.203 43.156 113.953 43.764C113.707 44.372 113.358 44.8387 112.905 45.164C112.457 45.484 111.929 45.644 111.321 45.644C110.745 45.644 110.241 45.5373 109.809 45.324C109.377 45.1107 109.041 44.788 108.801 44.356C108.561 43.9187 108.441 43.3667 108.441 42.7V37.836ZM119.216 36.044C118.96 36.044 118.758 35.972 118.608 35.828C118.459 35.6787 118.384 35.484 118.384 35.244C118.384 35.0093 118.459 34.8227 118.608 34.684C118.758 34.5453 118.96 34.476 119.216 34.476C119.472 34.476 119.675 34.5453 119.824 34.684C119.974 34.8227 120.048 35.0093 120.048 35.244C120.048 35.484 119.974 35.6787 119.824 35.828C119.675 35.972 119.472 36.044 119.216 36.044ZM118.592 45.5V37.836H119.84V45.5H118.592ZM126.126 45.692C125.513 45.692 124.939 45.5267 124.406 45.196C123.878 44.8653 123.451 44.3987 123.126 43.796C122.801 43.1933 122.638 42.4813 122.638 41.66C122.638 40.8173 122.801 40.0973 123.126 39.5C123.451 38.9027 123.878 38.4467 124.406 38.132C124.939 37.8173 125.513 37.66 126.126 37.66C126.558 37.66 126.945 37.7267 127.286 37.86C127.633 37.988 127.934 38.1667 128.19 38.396C128.446 38.6253 128.657 38.8867 128.822 39.18C128.993 39.468 129.118 39.772 129.198 40.092L127.918 40.204C127.785 39.7613 127.561 39.412 127.246 39.156C126.937 38.8947 126.558 38.764 126.11 38.764C125.731 38.764 125.374 38.8733 125.038 39.092C124.707 39.3053 124.438 39.628 124.23 40.06C124.022 40.4867 123.918 41.02 123.918 41.66C123.918 42.252 124.011 42.7667 124.198 43.204C124.39 43.636 124.651 43.972 124.982 44.212C125.313 44.452 125.689 44.572 126.11 44.572C126.702 44.572 127.15 44.428 127.454 44.14C127.763 43.8467 127.918 43.4413 127.918 42.924H129.198C129.198 43.4573 129.073 43.932 128.822 44.348C128.571 44.764 128.214 45.092 127.75 45.332C127.291 45.572 126.75 45.692 126.126 45.692ZM131.848 45.5V34.588H133.096V45.5H131.848ZM132.904 41.116L136.808 37.852H138.552L132.904 42.444V41.116ZM137.192 45.5L133.56 40.668L134.824 40.444L138.728 45.5H137.192ZM144.852 45.5V35.116H148.692C149.935 35.116 150.887 35.4067 151.548 35.988C152.215 36.5693 152.548 37.34 152.548 38.3C152.548 39.244 152.215 40.0067 151.548 40.588C150.887 41.164 149.935 41.452 148.692 41.452H146.74V45.5H144.852ZM150.468 45.5L147.716 40.636H149.732L152.932 45.5H150.468ZM146.74 40.188H148.5C149.194 40.188 149.719 40.0307 150.076 39.716C150.434 39.396 150.612 38.9827 150.612 38.476C150.612 37.9587 150.45 37.5427 150.124 37.228C149.799 36.908 149.322 36.748 148.692 36.748H146.74V40.188ZM155.293 45.5V35.116H161.965V36.748H157.181V39.484H161.677V41.116H157.181V43.852H161.965V45.5H155.293ZM164.86 35.116H167.564L170.492 41.468H170.332L173.26 35.116H175.868V45.5H173.964V37.292H174.252L171.02 44.364H169.788L166.572 37.324H166.748V45.5H164.86V35.116ZM178.988 45.5V35.116H185.66V36.748H180.876V39.484H185.372V41.116H180.876V43.852H185.66V45.5H178.988ZM188.555 35.116H191.915C192.971 35.116 193.896 35.3293 194.691 35.756C195.486 36.1773 196.104 36.7773 196.547 37.556C196.99 38.3347 197.211 39.2547 197.211 40.316C197.211 41.3667 196.99 42.2813 196.547 43.06C196.104 43.8333 195.486 44.4333 194.691 44.86C193.896 45.2867 192.971 45.5 191.915 45.5H188.555V35.116ZM190.443 36.828V43.804H191.915C192.587 43.804 193.166 43.652 193.651 43.348C194.142 43.044 194.518 42.6307 194.779 42.108C195.046 41.58 195.179 40.9827 195.179 40.316C195.179 39.6387 195.046 39.0387 194.779 38.516C194.518 37.9933 194.142 37.5827 193.651 37.284C193.166 36.98 192.587 36.828 191.915 36.828H190.443ZM199.699 45.5V35.116H201.587V45.5H199.699ZM204.718 45.5V35.116H211.39V36.748H206.606V39.484H211.102V41.116H206.606V43.852H211.39V45.5H204.718ZM217.901 45.724C217.181 45.724 216.517 45.5987 215.909 45.348C215.306 45.0973 214.816 44.716 214.437 44.204C214.064 43.692 213.864 43.0413 213.837 42.252H215.693C215.693 42.652 215.792 42.98 215.989 43.236C216.186 43.492 216.45 43.684 216.781 43.812C217.117 43.9347 217.485 43.996 217.885 43.996C218.269 43.996 218.61 43.9453 218.909 43.844C219.213 43.7427 219.45 43.5987 219.621 43.412C219.797 43.22 219.885 42.9933 219.885 42.732C219.885 42.3853 219.778 42.1133 219.565 41.916C219.357 41.7187 219.021 41.5373 218.557 41.372L216.509 40.556C215.709 40.2413 215.096 39.876 214.669 39.46C214.242 39.044 214.029 38.4707 214.029 37.74C214.029 36.8973 214.362 36.2147 215.029 35.692C215.696 35.1693 216.626 34.908 217.821 34.908C218.984 34.908 219.882 35.18 220.517 35.724C221.152 36.2627 221.512 37.0147 221.597 37.98H219.741C219.672 37.5693 219.485 37.2413 219.181 36.996C218.877 36.7453 218.424 36.62 217.821 36.62C217.288 36.62 216.866 36.732 216.557 36.956C216.248 37.1747 216.093 37.452 216.093 37.788C216.093 38.076 216.189 38.3053 216.381 38.476C216.578 38.6413 216.882 38.8013 217.293 38.956L219.565 39.836C220.333 40.1347 220.922 40.5107 221.333 40.964C221.744 41.4173 221.949 41.9853 221.949 42.668C221.949 43.292 221.792 43.8333 221.477 44.292C221.162 44.7453 220.704 45.0973 220.101 45.348C219.498 45.5987 218.765 45.724 217.901 45.724Z" fill="#333333"/>
</g>
<defs>
<filter id="filter0_d_7041_5805" x="27" y="0" width="228.767" height="68" filterUnits="userSpaceOnUse" color-interpolation-filters="sRGB">
<feFlood flood-opacity="0" result="BackgroundImageFix"/>
<feColorMatrix in="SourceAlpha" type="matrix" values="0 0 0 0 0 0 0 0 0 0 0 0 0 0 0 0 0 0 127 0" result="hardAlpha"/>
<feOffset dy="4"/>
<feGaussianBlur stdDeviation="3"/>
<feComposite in2="hardAlpha" operator="out"/>
<feColorMatrix type="matrix" values="0 0 0 0 0 0 0 0 0 0 0 0 0 0 0 0 0 0 0.1 0"/>
<feBlend mode="normal" in2="BackgroundImageFix" result="effect1_dropShadow_7041_5805"/>
<feBlend mode="normal" in="SourceGraphic" in2="effect1_dropShadow_7041_5805" result="shape"/>
</filter>
<filter id="filter1_d_7041_5805" x="47.5647" y="12.5879" width="181.036" height="46.8477" filterUnits="userSpaceOnUse" color-interpolation-filters="sRGB">
<feFlood flood-opacity="0" result="BackgroundImageFix"/>
<feColorMatrix in="SourceAlpha" type="matrix" values="0 0 0 0 0 0 0 0 0 0 0 0 0 0 0 0 0 0 127 0" result="hardAlpha"/>
<feOffset dy="4"/>
<feGaussianBlur stdDeviation="3"/>
<feComposite in2="hardAlpha" operator="out"/>
<feColorMatrix type="matrix" values="0 0 0 0 0 0 0 0 0 0 0 0 0 0 0 0 0 0 0.05 0"/>
<feBlend mode="normal" in2="BackgroundImageFix" result="effect1_dropShadow_7041_5805"/>
<feBlend mode="normal" in="SourceGraphic" in2="effect1_dropShadow_7041_5805" result="shape"/>
</filter>
</defs>
</svg>
