<svg width="257" height="88" viewBox="0 0 257 88" fill="none" xmlns="http://www.w3.org/2000/svg">
<path d="M7.04333 32.6331L16.7674 41V49C16.7674 53.9706 20.7968 58 25.7674 58L247.035 58C252.005 58 256.035 53.9706 256.035 49V11C256.035 6.02944 252.005 2 247.035 2L25.7674 2C20.7968 2 16.7674 6.02944 16.7674 11V20.5L7.15555 27.9931C5.66179 29.1575 5.60761 31.3978 7.04333 32.6331Z" fill="white"/>
<g filter="url(#filter0_d_7075_5714)">
<mask id="path-2-inside-1_7075_5714" fill="white">
<path d="M7.04333 42.6331L16.7674 51V69C16.7674 73.9706 20.7968 78 25.7674 78L213.035 78C218.005 78 222.035 73.9706 222.035 69V11C222.035 6.02944 218.005 2 213.035 2L25.7674 2C20.7968 2 16.7674 6.02944 16.7674 11L16.7674 30.5L7.15555 37.9931C5.66179 39.1575 5.60761 41.3978 7.04333 42.6331Z"/>
</mask>
<path d="M7.04333 42.6331L16.7674 51V69C16.7674 73.9706 20.7968 78 25.7674 78L213.035 78C218.005 78 222.035 73.9706 222.035 69V11C222.035 6.02944 218.005 2 213.035 2L25.7674 2C20.7968 2 16.7674 6.02944 16.7674 11L16.7674 30.5L7.15555 37.9931C5.66179 39.1575 5.60761 41.3978 7.04333 42.6331Z" fill="white"/>
<path d="M16.7674 51H18.1674V50.3577L17.6805 49.9388L16.7674 51ZM7.04333 42.6331L6.13021 43.6944L6.13021 43.6944L7.04333 42.6331ZM7.15555 37.9931L6.2948 36.8889L6.2948 36.8889L7.15555 37.9931ZM16.7674 30.5L17.6281 31.6041L18.1674 31.1838V30.5H16.7674ZM25.7674 2V0.6V2ZM213.035 2V3.4V2ZM17.6805 49.9388L7.95644 41.5719L6.13021 43.6944L15.8542 52.0612L17.6805 49.9388ZM8.0163 39.0972L17.6281 31.6041L15.9066 29.3959L6.2948 36.8889L8.0163 39.0972ZM7.95644 41.5719C7.19073 40.9131 7.21963 39.7183 8.0163 39.0972L6.2948 36.8889C4.10396 38.5968 4.02449 41.8825 6.13021 43.6944L7.95644 41.5719ZM25.7674 3.4L213.035 3.4L213.035 0.600003L25.7674 0.6L25.7674 3.4ZM220.635 11V69H223.435V11H220.635ZM213.035 76.6L25.7674 76.6V79.4L213.035 79.4V76.6ZM18.1674 30.5L18.1674 11H15.3674L15.3674 30.5H18.1674ZM18.1674 69V51H15.3674L15.3674 69H18.1674ZM25.7674 76.6C21.57 76.6 18.1674 73.1974 18.1674 69H15.3674C15.3674 74.7438 20.0236 79.4 25.7674 79.4V76.6ZM220.635 69C220.635 73.1974 217.232 76.6 213.035 76.6V79.4C218.778 79.4 223.435 74.7438 223.435 69H220.635ZM213.035 3.4C217.232 3.4 220.635 6.80264 220.635 11H223.435C223.435 5.25624 218.778 0.600003 213.035 0.600003V3.4ZM25.7674 0.6C20.0236 0.6 15.3674 5.25624 15.3674 11H18.1674C18.1674 6.80264 21.57 3.4 25.7674 3.4V0.6Z" fill="#333333" mask="url(#path-2-inside-1_7075_5714)"/>
</g>
<g filter="url(#filter1_d_7075_5714)">
<path d="M30.616 25L30.616 14.952L31.864 14.952L31.864 25L30.616 25ZM43.9532 25L43.7933 23.32L43.7933 20.04C43.7933 19.352 43.6466 18.8587 43.3533 18.56C43.0599 18.256 42.6199 18.104 42.0332 18.104C41.7026 18.104 41.4012 18.152 41.1292 18.248C40.8626 18.344 40.6492 18.4933 40.4892 18.696C40.3346 18.8933 40.2572 19.1493 40.2572 19.464L38.8652 19.464C38.8652 18.9093 39.0012 18.464 39.2732 18.128C39.5452 17.7867 39.9186 17.5413 40.3932 17.392C40.8732 17.2373 41.4199 17.16 42.0332 17.16C42.6199 17.16 43.1399 17.2587 43.5932 17.456C44.0466 17.6533 44.4013 17.968 44.6572 18.4C44.9133 18.8267 45.0413 19.384 45.0413 20.072L45.0413 25L43.9532 25ZM41.3452 25.192C40.7159 25.192 40.1959 25.08 39.7852 24.856C39.3746 24.632 39.0679 24.3413 38.8652 23.984C38.6626 23.6267 38.5612 23.2507 38.5612 22.856C38.5612 22.3387 38.6892 21.9173 38.9452 21.592C39.2066 21.2667 39.5612 21.0293 40.0092 20.88C40.4572 20.7253 40.9612 20.648 41.5212 20.648C41.9212 20.648 42.3212 20.688 42.7213 20.768C43.1266 20.848 43.5212 20.9573 43.9053 21.096L43.9053 21.88C43.5853 21.752 43.2226 21.6507 42.8172 21.576C42.4172 21.5013 42.0492 21.464 41.7132 21.464C41.2012 21.464 40.7692 21.5707 40.4172 21.784C40.0652 21.992 39.8892 22.3493 39.8892 22.856C39.8892 23.2293 40.0226 23.5493 40.2892 23.816C40.5612 24.0827 40.9932 24.216 41.5852 24.216C42.0012 24.216 42.3746 24.12 42.7052 23.928C43.0412 23.7307 43.3052 23.4853 43.4973 23.192C43.6946 22.8987 43.7933 22.6053 43.7933 22.312L44.0972 22.312C44.0972 22.824 43.9852 23.2987 43.7612 23.736C43.5426 24.1733 43.2279 24.5253 42.8172 24.792C42.4066 25.0587 41.9159 25.192 41.3452 25.192ZM58.9418 25L58.9418 20.504C58.9418 19.7733 58.7658 19.2187 58.4137 18.84C58.0671 18.456 57.5978 18.264 57.0057 18.264C56.3124 18.264 55.7817 18.5333 55.4137 19.072C55.0457 19.6053 54.8617 20.344 54.8617 21.288L54.2857 21.288C54.2857 20.6 54.3524 19.9973 54.4857 19.48C54.6244 18.9627 54.8244 18.5333 55.0857 18.192C55.3471 17.8453 55.6644 17.5867 56.0378 17.416C56.4111 17.2453 56.8351 17.16 57.3097 17.16C57.9124 17.16 58.4271 17.296 58.8538 17.568C59.2858 17.8347 59.6164 18.2187 59.8457 18.72C60.0751 19.2213 60.1897 19.816 60.1897 20.504L60.1897 25L58.9418 25ZM48.1897 25L48.1897 17.352L49.2617 17.352L49.4057 18.888C49.6457 18.3333 49.9817 17.9067 50.4137 17.608C50.8511 17.3093 51.3737 17.16 51.9817 17.16C52.5844 17.16 53.0991 17.296 53.5257 17.568C53.9577 17.8347 54.2884 18.2187 54.5177 18.72C54.7471 19.2213 54.8617 19.816 54.8617 20.504L54.8617 25L53.6297 25L53.6297 20.504C53.6297 19.7733 53.4537 19.2187 53.1017 18.84C52.7551 18.456 52.2804 18.264 51.6777 18.264C51.2191 18.264 50.8217 18.3893 50.4857 18.64C50.1497 18.8907 49.8911 19.2507 49.7097 19.72C49.5284 20.184 49.4377 20.7387 49.4377 21.384L49.4377 25L48.1897 25ZM70.0274 25.192C69.286 25.192 68.6674 25.088 68.1714 24.88C67.6754 24.6667 67.2994 24.376 67.0434 24.008C66.7874 23.6347 66.6514 23.208 66.6354 22.728L67.8354 22.728C67.862 23.2133 68.0567 23.5787 68.4194 23.824C68.7874 24.064 69.286 24.184 69.9154 24.184C70.246 24.184 70.55 24.1307 70.8274 24.024C71.1047 23.9173 71.326 23.7707 71.4914 23.584C71.6567 23.3973 71.7394 23.1867 71.7394 22.952C71.7394 22.6533 71.63 22.4187 71.4114 22.248C71.1927 22.0773 70.8434 21.928 70.3634 21.8L68.8754 21.32C68.23 21.1173 67.734 20.84 67.3874 20.488C67.046 20.1307 66.8754 19.704 66.8754 19.208C66.8754 18.5893 67.1474 18.0933 67.6914 17.72C68.2354 17.3467 68.95 17.16 69.8354 17.16C70.774 17.16 71.502 17.352 72.0194 17.736C72.5367 18.12 72.806 18.6 72.8274 19.176L71.5954 19.176C71.5474 18.84 71.3767 18.5867 71.0834 18.416C70.79 18.24 70.374 18.152 69.8354 18.152C69.318 18.152 68.9127 18.2693 68.6194 18.504C68.3314 18.7333 68.1874 18.9893 68.1874 19.272C68.1874 19.8 68.6407 20.1893 69.5474 20.44L71.0674 20.952C71.7234 21.1493 72.2247 21.408 72.5714 21.728C72.9234 22.048 73.0994 22.456 73.0994 22.952C73.0994 23.336 72.974 23.6987 72.7234 24.04C72.4727 24.3813 72.118 24.6587 71.6594 24.872C71.2007 25.0853 70.6567 25.192 70.0274 25.192ZM78.6096 25.192C77.9216 25.192 77.3083 25.04 76.7696 24.736C76.2363 24.432 75.815 23.9813 75.5056 23.384C75.1963 22.7867 75.0416 22.0507 75.0416 21.176C75.0416 20.296 75.1963 19.56 75.5056 18.968C75.815 18.3707 76.2363 17.92 76.7696 17.616C77.3083 17.312 77.9216 17.16 78.6096 17.16C79.2923 17.16 79.9003 17.312 80.4336 17.616C80.9723 17.92 81.3936 18.3707 81.6976 18.968C82.007 19.56 82.1616 20.296 82.1616 21.176C82.1616 22.0507 82.007 22.7867 81.6976 23.384C81.3936 23.9813 80.9723 24.432 80.4336 24.736C79.9003 25.04 79.2923 25.192 78.6096 25.192ZM78.5776 24.104C79.0736 24.104 79.495 23.9867 79.8416 23.752C80.1883 23.512 80.4496 23.1733 80.6256 22.736C80.807 22.2987 80.8976 21.7787 80.8976 21.176C80.8976 20.264 80.7083 19.5467 80.3296 19.024C79.951 18.496 79.3883 18.232 78.6416 18.232C78.1403 18.232 77.7163 18.352 77.3696 18.592C77.0283 18.8267 76.767 19.1653 76.5856 19.608C76.4096 20.0453 76.3216 20.568 76.3216 21.176C76.3216 22.0773 76.511 22.792 76.8896 23.32C77.2736 23.8427 77.8363 24.104 78.5776 24.104ZM84.7516 25L84.7516 17.336L85.9996 17.336L85.9996 25L84.7516 25ZM85.6156 21.544C85.6156 20.5733 85.709 19.768 85.8956 19.128C86.0823 18.4827 86.3543 18.0027 86.7116 17.688C87.0743 17.368 87.5143 17.208 88.0316 17.208C88.2023 17.208 88.357 17.2213 88.4956 17.248C88.6396 17.2693 88.7836 17.304 88.9276 17.352L88.8476 18.584C88.6983 18.536 88.5356 18.496 88.3596 18.464C88.1836 18.4267 88.0263 18.408 87.8876 18.408C87.4343 18.408 87.069 18.5387 86.7916 18.8C86.5143 19.056 86.3116 19.4187 86.1836 19.888C86.061 20.3573 85.9996 20.9093 85.9996 21.544L85.6156 21.544ZM90.6929 25L90.6929 17.336L91.9409 17.336L91.9409 25L90.6929 25ZM91.5569 21.544C91.5569 20.5733 91.6502 19.768 91.8369 19.128C92.0235 18.4827 92.2955 18.0027 92.6529 17.688C93.0155 17.368 93.4555 17.208 93.9729 17.208C94.1435 17.208 94.2982 17.2213 94.4369 17.248C94.5809 17.2693 94.7249 17.304 94.8689 17.352L94.7889 18.584C94.6395 18.536 94.4769 18.496 94.3009 18.464C94.1249 18.4267 93.9675 18.408 93.8289 18.408C93.3755 18.408 93.0102 18.5387 92.7329 18.8C92.4555 19.056 92.2529 19.4187 92.1249 19.888C92.0022 20.3573 91.9409 20.9093 91.9409 21.544L91.5569 21.544ZM95.3701 17.352L96.7621 17.352L99.2581 23.912L98.9701 23.912L100.906 17.352L102.186 17.352L99.3061 26.536C99.0661 27.304 98.7461 27.896 98.3461 28.312C97.9461 28.728 97.4341 28.936 96.8101 28.936C96.4741 28.936 96.1541 28.888 95.8501 28.792C95.5515 28.696 95.2421 28.5573 94.9221 28.376L94.9221 27.224C95.2048 27.448 95.4768 27.608 95.7381 27.704C96.0048 27.8 96.2821 27.848 96.5701 27.848C96.8901 27.848 97.1568 27.7467 97.3701 27.544C97.5888 27.3413 97.7701 27.08 97.9141 26.76C98.0581 26.4453 98.1808 26.1147 98.2821 25.768L98.5061 25L95.3701 17.352ZM111.708 25.192C111.196 25.192 110.732 25.0587 110.316 24.792C109.905 24.5253 109.577 24.136 109.332 23.624C109.092 23.1067 108.972 22.4773 108.972 21.736L109.452 21.736C109.452 22.232 109.553 22.656 109.756 23.008C109.964 23.3547 110.231 23.6187 110.556 23.8C110.881 23.9813 111.223 24.072 111.58 24.072C111.991 24.072 112.367 23.9547 112.708 23.72C113.049 23.4853 113.321 23.1493 113.524 22.712C113.732 22.2747 113.836 21.752 113.836 21.144C113.836 20.5467 113.735 20.0347 113.532 19.608C113.329 19.176 113.055 18.8453 112.708 18.616C112.367 18.3813 111.985 18.264 111.564 18.264C111.201 18.264 110.857 18.3547 110.532 18.536C110.212 18.712 109.951 18.9733 109.748 19.32C109.551 19.6667 109.452 20.0933 109.452 20.6L108.972 20.6C108.972 19.8747 109.089 19.256 109.324 18.744C109.564 18.232 109.895 17.84 110.316 17.568C110.737 17.296 111.228 17.16 111.788 17.16C112.391 17.16 112.943 17.3227 113.444 17.648C113.951 17.968 114.356 18.4267 114.66 19.024C114.964 19.6213 115.116 20.328 115.116 21.144C115.116 21.9653 114.961 22.68 114.652 23.288C114.343 23.8907 113.929 24.36 113.412 24.696C112.895 25.0267 112.327 25.192 111.708 25.192ZM108.204 25L108.204 14.088L109.452 14.088L109.452 23.208L109.084 25L108.204 25ZM123.048 17.336L124.296 17.336L124.296 25L123.048 25L123.048 17.336ZM117.624 17.336L118.872 17.336L118.872 22.104C118.872 22.744 119.027 23.2293 119.336 23.56C119.651 23.8907 120.099 24.056 120.68 24.056C121.16 24.056 121.576 23.928 121.928 23.672C122.286 23.416 122.56 23.064 122.752 22.616C122.95 22.1627 123.048 21.6453 123.048 21.064L123.512 21.064C123.512 21.9227 123.387 22.656 123.136 23.264C122.891 23.872 122.542 24.3387 122.088 24.664C121.64 24.984 121.112 25.144 120.504 25.144C119.928 25.144 119.424 25.0373 118.992 24.824C118.56 24.6107 118.224 24.288 117.984 23.856C117.744 23.4187 117.624 22.8667 117.624 22.2L117.624 17.336ZM130.048 25.192C129.632 25.192 129.259 25.112 128.928 24.952C128.597 24.792 128.336 24.552 128.144 24.232C127.952 23.912 127.856 23.512 127.856 23.032L127.856 15.224L129.088 15.224L129.088 23C129.088 23.7893 129.456 24.184 130.192 24.184C130.411 24.184 130.621 24.16 130.824 24.112C131.032 24.064 131.264 23.992 131.52 23.896L131.696 24.792C131.424 24.9093 131.152 25.0053 130.88 25.08C130.613 25.1547 130.336 25.192 130.048 25.192ZM126.624 18.216L126.624 17.352L131.504 17.352L131.504 18.216L126.624 18.216ZM137.829 25L137.829 14.952L139.077 14.952L139.077 25L137.829 25ZM149.118 25.192C148.504 25.192 147.931 25.0267 147.398 24.696C146.87 24.3653 146.443 23.8987 146.118 23.296C145.792 22.6933 145.63 21.9813 145.63 21.16C145.63 20.3173 145.792 19.5973 146.118 19C146.443 18.4027 146.87 17.9467 147.398 17.632C147.931 17.3173 148.504 17.16 149.118 17.16C149.55 17.16 149.936 17.2267 150.278 17.36C150.624 17.488 150.926 17.6667 151.182 17.896C151.438 18.1253 151.648 18.3867 151.814 18.68C151.984 18.968 152.11 19.272 152.19 19.592L150.91 19.704C150.776 19.2613 150.552 18.912 150.238 18.656C149.928 18.3947 149.55 18.264 149.102 18.264C148.723 18.264 148.366 18.3733 148.03 18.592C147.699 18.8053 147.43 19.128 147.222 19.56C147.014 19.9867 146.91 20.52 146.91 21.16C146.91 21.752 147.003 22.2667 147.19 22.704C147.382 23.136 147.643 23.472 147.974 23.712C148.304 23.952 148.68 24.072 149.102 24.072C149.694 24.072 150.142 23.928 150.446 23.64C150.755 23.3467 150.91 22.9413 150.91 22.424L152.19 22.424C152.19 22.9573 152.064 23.432 151.814 23.848C151.563 24.264 151.206 24.592 150.742 24.832C150.283 25.072 149.742 25.192 149.118 25.192ZM159.576 25L159.416 23.32L159.416 20.04C159.416 19.352 159.269 18.8587 158.976 18.56C158.682 18.256 158.242 18.104 157.656 18.104C157.325 18.104 157.024 18.152 156.752 18.248C156.485 18.344 156.272 18.4933 156.112 18.696C155.957 18.8933 155.88 19.1493 155.88 19.464L154.488 19.464C154.488 18.9093 154.624 18.464 154.896 18.128C155.168 17.7867 155.541 17.5413 156.016 17.392C156.496 17.2373 157.042 17.16 157.656 17.16C158.242 17.16 158.762 17.2587 159.216 17.456C159.669 17.6533 160.024 17.968 160.28 18.4C160.536 18.8267 160.664 19.384 160.664 20.072L160.664 25L159.576 25ZM156.968 25.192C156.338 25.192 155.818 25.08 155.408 24.856C154.997 24.632 154.69 24.3413 154.488 23.984C154.285 23.6267 154.184 23.2507 154.184 22.856C154.184 22.3387 154.312 21.9173 154.568 21.592C154.829 21.2667 155.184 21.0293 155.632 20.88C156.08 20.7253 156.584 20.648 157.144 20.648C157.544 20.648 157.944 20.688 158.344 20.768C158.749 20.848 159.144 20.9573 159.528 21.096L159.528 21.88C159.208 21.752 158.845 21.6507 158.44 21.576C158.04 21.5013 157.672 21.464 157.336 21.464C156.824 21.464 156.392 21.5707 156.04 21.784C155.688 21.992 155.512 22.3493 155.512 22.856C155.512 23.2293 155.645 23.5493 155.912 23.816C156.184 24.0827 156.616 24.216 157.208 24.216C157.624 24.216 157.997 24.12 158.328 23.928C158.664 23.7307 158.928 23.4853 159.12 23.192C159.317 22.8987 159.416 22.6053 159.416 22.312L159.72 22.312C159.72 22.824 159.608 23.2987 159.384 23.736C159.165 24.1733 158.85 24.5253 158.44 24.792C158.029 25.0587 157.538 25.192 156.968 25.192ZM169.252 25L169.252 20.504C169.252 19.7733 169.076 19.2187 168.724 18.84C168.378 18.456 167.903 18.264 167.3 18.264C166.842 18.264 166.444 18.3893 166.108 18.64C165.772 18.8907 165.514 19.2507 165.332 19.72C165.151 20.184 165.06 20.7387 165.06 21.384L164.58 21.384C164.58 20.4933 164.698 19.7333 164.932 19.104C165.167 18.4747 165.508 17.9947 165.956 17.664C166.41 17.328 166.959 17.16 167.604 17.16C168.207 17.16 168.722 17.296 169.148 17.568C169.58 17.8347 169.911 18.2187 170.14 18.72C170.37 19.2213 170.484 19.816 170.484 20.504L170.484 25L169.252 25ZM163.812 25L163.812 17.352L164.884 17.352L165.06 19.112L165.06 25L163.812 25ZM183.025 25L183.025 20.504C183.025 19.7733 182.849 19.2187 182.497 18.84C182.151 18.456 181.676 18.264 181.073 18.264C180.615 18.264 180.217 18.3893 179.881 18.64C179.545 18.8907 179.287 19.2507 179.105 19.72C178.924 20.184 178.833 20.7387 178.833 21.384L178.353 21.384C178.353 20.4933 178.471 19.7333 178.705 19.104C178.94 18.4747 179.281 17.9947 179.729 17.664C180.183 17.328 180.732 17.16 181.377 17.16C181.98 17.16 182.495 17.296 182.921 17.568C183.353 17.8347 183.684 18.2187 183.913 18.72C184.143 19.2213 184.257 19.816 184.257 20.504L184.257 25L183.025 25ZM177.585 25L177.585 17.352L178.657 17.352L178.833 19.112L178.833 25L177.585 25ZM190.17 25.192C189.482 25.192 188.868 25.04 188.33 24.736C187.796 24.432 187.375 23.9813 187.066 23.384C186.756 22.7867 186.602 22.0507 186.602 21.176C186.602 20.296 186.756 19.56 187.066 18.968C187.375 18.3707 187.796 17.92 188.33 17.616C188.868 17.312 189.482 17.16 190.17 17.16C190.852 17.16 191.46 17.312 191.994 17.616C192.532 17.92 192.954 18.3707 193.258 18.968C193.567 19.56 193.722 20.296 193.722 21.176C193.722 22.0507 193.567 22.7867 193.258 23.384C192.954 23.9813 192.532 24.432 191.994 24.736C191.46 25.04 190.852 25.192 190.17 25.192ZM190.138 24.104C190.634 24.104 191.055 23.9867 191.402 23.752C191.748 23.512 192.01 23.1733 192.186 22.736C192.367 22.2987 192.458 21.7787 192.458 21.176C192.458 20.264 192.268 19.5467 191.89 19.024C191.511 18.496 190.948 18.232 190.202 18.232C189.7 18.232 189.276 18.352 188.93 18.592C188.588 18.8267 188.327 19.1653 188.146 19.608C187.97 20.0453 187.882 20.568 187.882 21.176C187.882 22.0773 188.071 22.792 188.45 23.32C188.834 23.8427 189.396 24.104 190.138 24.104ZM198.664 25.192C198.248 25.192 197.874 25.112 197.544 24.952C197.213 24.792 196.952 24.552 196.76 24.232C196.568 23.912 196.472 23.512 196.472 23.032L196.472 15.224L197.704 15.224L197.704 23C197.704 23.7893 198.072 24.184 198.808 24.184C199.026 24.184 199.237 24.16 199.44 24.112C199.648 24.064 199.88 23.992 200.136 23.896L200.312 24.792C200.04 24.9093 199.768 25.0053 199.496 25.08C199.229 25.1547 198.952 25.192 198.664 25.192ZM195.24 18.216L195.24 17.352L200.12 17.352L200.12 18.216L195.24 18.216ZM31.032 45L31.032 36.168C31.032 35.6613 31.128 35.248 31.32 34.928C31.5173 34.6027 31.7787 34.3627 32.104 34.208C32.4347 34.0533 32.8027 33.976 33.208 33.976C33.4267 33.976 33.648 33.992 33.872 34.024C34.1013 34.056 34.328 34.104 34.552 34.168L34.312 35.16C34.152 35.096 33.992 35.048 33.832 35.016C33.6773 34.984 33.528 34.968 33.384 34.968C33.2133 34.968 33.0427 35 32.872 35.064C32.7013 35.128 32.56 35.248 32.448 35.424C32.336 35.6 32.28 35.8533 32.28 36.184L32.28 45L31.032 45ZM29.784 38.216L29.784 37.352L33.864 37.352L33.864 38.216L29.784 38.216ZM36.8 35.544C36.544 35.544 36.3413 35.472 36.192 35.328C36.0427 35.1787 35.968 34.984 35.968 34.744C35.968 34.5093 36.0427 34.3227 36.192 34.184C36.3413 34.0453 36.544 33.976 36.8 33.976C37.056 33.976 37.2587 34.0453 37.408 34.184C37.5573 34.3227 37.632 34.5093 37.632 34.744C37.632 34.984 37.5573 35.1787 37.408 35.328C37.2587 35.472 37.056 35.544 36.8 35.544ZM36.176 45L36.176 37.336L37.424 37.336L37.424 45L36.176 45ZM46.466 45L46.466 40.504C46.466 39.7733 46.29 39.2187 45.938 38.84C45.5913 38.456 45.1167 38.264 44.514 38.264C44.0553 38.264 43.658 38.3893 43.322 38.64C42.986 38.8907 42.7273 39.2507 42.546 39.72C42.3647 40.184 42.274 40.7387 42.274 41.384L41.794 41.384C41.794 40.4933 41.9113 39.7333 42.146 39.104C42.3807 38.4747 42.722 37.9947 43.17 37.664C43.6233 37.328 44.1727 37.16 44.818 37.16C45.4207 37.16 45.9353 37.296 46.362 37.568C46.794 37.8347 47.1247 38.2187 47.354 38.72C47.5833 39.2213 47.698 39.816 47.698 40.504L47.698 45L46.466 45ZM41.026 45L41.026 37.352L42.098 37.352L42.274 39.112L42.274 45L41.026 45ZM53.5782 45.192C52.9596 45.192 52.3916 45.0267 51.8742 44.696C51.3569 44.36 50.9436 43.8907 50.6342 43.288C50.3249 42.68 50.1702 41.9653 50.1702 41.144C50.1702 40.328 50.3222 39.6213 50.6262 39.024C50.9302 38.4267 51.3329 37.968 51.8342 37.648C52.3409 37.3227 52.8956 37.16 53.4982 37.16C54.0583 37.16 54.5489 37.296 54.9703 37.568C55.3969 37.84 55.7276 38.232 55.9623 38.744C56.1969 39.256 56.3142 39.8747 56.3142 40.6L55.8342 40.6C55.8342 40.0933 55.7329 39.6667 55.5302 39.32C55.3329 38.9733 55.0742 38.712 54.7542 38.536C54.4342 38.3547 54.0902 38.264 53.7222 38.264C53.3062 38.264 52.9249 38.3813 52.5782 38.616C52.2369 38.8453 51.9622 39.176 51.7542 39.608C51.5516 40.0347 51.4502 40.5467 51.4502 41.144C51.4502 41.752 51.5516 42.2747 51.7542 42.712C51.9622 43.1493 52.2369 43.4853 52.5782 43.72C52.9249 43.9547 53.3062 44.072 53.7222 44.072C54.0689 44.072 54.4022 43.9813 54.7222 43.8C55.0476 43.6187 55.3142 43.3547 55.5223 43.008C55.7302 42.656 55.8342 42.232 55.8342 41.736L56.3142 41.736C56.3142 42.4773 56.1916 43.1067 55.9462 43.624C55.7062 44.136 55.3782 44.5253 54.9622 44.792C54.5516 45.0587 54.0902 45.192 53.5782 45.192ZM56.0423 45L55.8342 43.208L55.8342 34.088L57.0823 34.088L57.0823 45L56.0423 45ZM69.1795 45L69.0195 43.32L69.0195 40.04C69.0195 39.352 68.8728 38.8587 68.5795 38.56C68.2862 38.256 67.8462 38.104 67.2595 38.104C66.9288 38.104 66.6275 38.152 66.3555 38.248C66.0888 38.344 65.8755 38.4933 65.7155 38.696C65.5608 38.8933 65.4835 39.1493 65.4835 39.464L64.0915 39.464C64.0915 38.9093 64.2275 38.464 64.4995 38.128C64.7715 37.7867 65.1448 37.5413 65.6195 37.392C66.0995 37.2373 66.6462 37.16 67.2595 37.16C67.8462 37.16 68.3662 37.2587 68.8195 37.456C69.2728 37.6533 69.6275 37.968 69.8835 38.4C70.1395 38.8267 70.2675 39.384 70.2675 40.072L70.2675 45L69.1795 45ZM66.5715 45.192C65.9422 45.192 65.4222 45.08 65.0115 44.856C64.6008 44.632 64.2942 44.3413 64.0915 43.984C63.8888 43.6267 63.7875 43.2507 63.7875 42.856C63.7875 42.3387 63.9155 41.9173 64.1715 41.592C64.4328 41.2667 64.7875 41.0293 65.2355 40.88C65.6835 40.7253 66.1875 40.648 66.7475 40.648C67.1475 40.648 67.5475 40.688 67.9475 40.768C68.3528 40.848 68.7475 40.9573 69.1315 41.096L69.1315 41.88C68.8115 41.752 68.4488 41.6507 68.0435 41.576C67.6435 41.5013 67.2755 41.464 66.9395 41.464C66.4275 41.464 65.9955 41.5707 65.6435 41.784C65.2915 41.992 65.1155 42.3493 65.1155 42.856C65.1155 43.2293 65.2488 43.5493 65.5155 43.816C65.7875 44.0827 66.2195 44.216 66.8115 44.216C67.2275 44.216 67.6008 44.12 67.9315 43.928C68.2675 43.7307 68.5315 43.4853 68.7235 43.192C68.9208 42.8987 69.0195 42.6053 69.0195 42.312L69.3235 42.312C69.3235 42.824 69.2115 43.2987 68.9875 43.736C68.7688 44.1733 68.4542 44.5253 68.0435 44.792C67.6328 45.0587 67.1422 45.192 66.5715 45.192ZM78.856 45L78.856 40.504C78.856 39.7733 78.68 39.2187 78.328 38.84C77.9813 38.456 77.5067 38.264 76.904 38.264C76.4453 38.264 76.048 38.3893 75.712 38.64C75.376 38.8907 75.1173 39.2507 74.936 39.72C74.7547 40.184 74.664 40.7387 74.664 41.384L74.184 41.384C74.184 40.4933 74.3013 39.7333 74.536 39.104C74.7707 38.4747 75.112 37.9947 75.56 37.664C76.0133 37.328 76.5627 37.16 77.208 37.16C77.8107 37.16 78.3253 37.296 78.752 37.568C79.184 37.8347 79.5147 38.2187 79.744 38.72C79.9733 39.2213 80.088 39.816 80.088 40.504L80.088 45L78.856 45ZM73.416 45L73.416 37.352L74.488 37.352L74.664 39.112L74.664 45L73.416 45ZM81.9682 37.352L83.3602 37.352L85.8562 43.912L85.5682 43.912L87.5042 37.352L88.7842 37.352L85.9042 46.536C85.6642 47.304 85.3442 47.896 84.9442 48.312C84.5442 48.728 84.0322 48.936 83.4082 48.936C83.0722 48.936 82.7522 48.888 82.4482 48.792C82.1496 48.696 81.8402 48.5573 81.5202 48.376L81.5202 47.224C81.8029 47.448 82.0749 47.608 82.3362 47.704C82.6029 47.8 82.8802 47.848 83.1682 47.848C83.4882 47.848 83.7549 47.7467 83.9682 47.544C84.1869 47.3413 84.3682 47.08 84.5122 46.76C84.6562 46.4453 84.7789 46.1147 84.8802 45.768L85.1042 45L81.9682 37.352ZM93.1974 45.192C92.7814 45.192 92.408 45.112 92.0774 44.952C91.7467 44.792 91.4854 44.552 91.2934 44.232C91.1014 43.912 91.0054 43.512 91.0054 43.032L91.0054 35.224L92.2374 35.224L92.2374 43C92.2374 43.7893 92.6054 44.184 93.3414 44.184C93.56 44.184 93.7707 44.16 93.9734 44.112C94.1814 44.064 94.4134 43.992 94.6694 43.896L94.8454 44.792C94.5734 44.9093 94.3014 45.0053 94.0294 45.08C93.7627 45.1547 93.4854 45.192 93.1974 45.192ZM89.7734 38.216L89.7734 37.352L94.6534 37.352L94.6534 38.216L89.7734 38.216ZM102.461 45L102.461 40.504C102.461 39.7733 102.285 39.2187 101.933 38.84C101.586 38.456 101.112 38.264 100.509 38.264C100.05 38.264 99.653 38.3893 99.317 38.64C98.981 38.8907 98.7223 39.2507 98.541 39.72C98.3597 40.184 98.269 40.7387 98.269 41.384L97.789 41.384C97.789 40.4933 97.9063 39.7333 98.141 39.104C98.3757 38.4747 98.717 37.9947 99.165 37.664C99.6183 37.328 100.168 37.16 100.813 37.16C101.416 37.16 101.93 37.296 102.357 37.568C102.789 37.8347 103.12 38.2187 103.349 38.72C103.578 39.2213 103.693 39.816 103.693 40.504L103.693 45L102.461 45ZM97.021 45L97.021 34.088L98.269 34.088L98.269 45L97.021 45ZM107.541 35.544C107.285 35.544 107.083 35.472 106.933 35.328C106.784 35.1787 106.709 34.984 106.709 34.744C106.709 34.5093 106.784 34.3227 106.933 34.184C107.083 34.0453 107.285 33.976 107.541 33.976C107.797 33.976 108 34.0453 108.149 34.184C108.299 34.3227 108.373 34.5093 108.373 34.744C108.373 34.984 108.299 35.1787 108.149 35.328C108 35.472 107.797 35.544 107.541 35.544ZM106.917 45L106.917 37.336L108.165 37.336L108.165 45L106.917 45ZM117.203 45L117.203 40.504C117.203 39.7733 117.027 39.2187 116.675 38.84C116.328 38.456 115.854 38.264 115.251 38.264C114.792 38.264 114.395 38.3893 114.059 38.64C113.723 38.8907 113.464 39.2507 113.283 39.72C113.102 40.184 113.011 40.7387 113.011 41.384L112.531 41.384C112.531 40.4933 112.648 39.7333 112.883 39.104C113.118 38.4747 113.459 37.9947 113.907 37.664C114.36 37.328 114.91 37.16 115.555 37.16C116.158 37.16 116.672 37.296 117.099 37.568C117.531 37.8347 117.862 38.2187 118.091 38.72C118.32 39.2213 118.435 39.816 118.435 40.504L118.435 45L117.203 45ZM111.763 45L111.763 37.352L112.835 37.352L113.011 39.112L113.011 45L111.763 45ZM124.283 48.936C123.499 48.936 122.819 48.824 122.243 48.6C121.667 48.3813 121.219 48.0853 120.899 47.712C120.584 47.344 120.427 46.936 120.427 46.488C120.427 45.896 120.643 45.4427 121.075 45.128C121.512 44.8187 122.075 44.664 122.763 44.664L123.451 45.096C122.875 45.096 122.43 45.216 122.115 45.456C121.8 45.696 121.643 46.024 121.643 46.44C121.643 46.856 121.867 47.208 122.315 47.496C122.763 47.784 123.419 47.928 124.283 47.928C124.923 47.928 125.483 47.8347 125.963 47.648C126.448 47.4667 126.824 47.2267 127.091 46.928C127.363 46.6347 127.499 46.3173 127.499 45.976C127.499 45.736 127.411 45.528 127.235 45.352C127.059 45.1813 126.79 45.096 126.427 45.096L123.451 45.096C122.934 45.096 122.486 45.0187 122.107 44.864C121.734 44.704 121.446 44.496 121.243 44.24C121.04 43.984 120.939 43.704 120.939 43.4C120.939 43.08 121.03 42.808 121.211 42.584C121.392 42.36 121.627 42.1893 121.915 42.072C122.208 41.9547 122.523 41.896 122.859 41.896L123.099 42.36C122.939 42.36 122.776 42.3973 122.611 42.472C122.451 42.5413 122.315 42.648 122.203 42.792C122.096 42.9307 122.043 43.1067 122.043 43.32C122.043 43.5653 122.144 43.7707 122.347 43.936C122.55 44.1013 122.918 44.184 123.451 44.184L126.427 44.184C127.147 44.184 127.712 44.336 128.123 44.64C128.539 44.944 128.747 45.368 128.747 45.912C128.747 46.4133 128.568 46.8933 128.211 47.352C127.854 47.816 127.342 48.1947 126.675 48.488C126.008 48.7867 125.211 48.936 124.283 48.936ZM124.507 42.76C123.92 42.76 123.39 42.6427 122.915 42.408C122.446 42.1733 122.072 41.8453 121.795 41.424C121.523 41.0027 121.387 40.5147 121.387 39.96C121.387 39.4 121.523 38.9093 121.795 38.488C122.072 38.0667 122.446 37.7413 122.915 37.512C123.39 37.2773 123.92 37.16 124.507 37.16C125.078 37.16 125.595 37.2773 126.059 37.512C126.528 37.7413 126.902 38.0667 127.179 38.488C127.456 38.9093 127.595 39.4 127.595 39.96C127.595 40.5147 127.456 41.0027 127.179 41.424C126.902 41.8453 126.528 42.1733 126.059 42.408C125.595 42.6427 125.078 42.76 124.507 42.76ZM124.507 41.864C125.094 41.864 125.55 41.6827 125.875 41.32C126.2 40.9573 126.363 40.504 126.363 39.96C126.363 39.4 126.2 38.9467 125.875 38.6C125.55 38.248 125.094 38.072 124.507 38.072C123.926 38.072 123.467 38.248 123.131 38.6C122.8 38.9467 122.635 39.4 122.635 39.96C122.635 40.504 122.8 40.9573 123.131 41.32C123.467 41.6827 123.926 41.864 124.507 41.864ZM127.019 38.376L126.427 38.136C126.427 37.688 126.515 37.296 126.691 36.96C126.867 36.6187 127.118 36.3547 127.443 36.168C127.768 35.976 128.155 35.88 128.603 35.88L128.507 37.112C128.027 37.112 127.659 37.216 127.403 37.424C127.147 37.6267 127.019 37.944 127.019 38.376ZM139.463 45L139.303 43.32L139.303 40.04C139.303 39.352 139.157 38.8587 138.863 38.56C138.57 38.256 138.13 38.104 137.543 38.104C137.213 38.104 136.911 38.152 136.639 38.248C136.373 38.344 136.159 38.4933 135.999 38.696C135.845 38.8933 135.767 39.1493 135.767 39.464L134.375 39.464C134.375 38.9093 134.511 38.464 134.783 38.128C135.055 37.7867 135.429 37.5413 135.903 37.392C136.383 37.2373 136.93 37.16 137.543 37.16C138.13 37.16 138.65 37.2587 139.103 37.456C139.557 37.6533 139.911 37.968 140.167 38.4C140.423 38.8267 140.551 39.384 140.551 40.072L140.551 45L139.463 45ZM136.855 45.192C136.226 45.192 135.706 45.08 135.295 44.856C134.885 44.632 134.578 44.3413 134.375 43.984C134.173 43.6267 134.071 43.2507 134.071 42.856C134.071 42.3387 134.199 41.9173 134.455 41.592C134.717 41.2667 135.071 41.0293 135.519 40.88C135.967 40.7253 136.471 40.648 137.031 40.648C137.431 40.648 137.831 40.688 138.231 40.768C138.637 40.848 139.031 40.9573 139.415 41.096L139.415 41.88C139.095 41.752 138.733 41.6507 138.327 41.576C137.927 41.5013 137.559 41.464 137.223 41.464C136.711 41.464 136.279 41.5707 135.927 41.784C135.575 41.992 135.399 42.3493 135.399 42.856C135.399 43.2293 135.533 43.5493 135.799 43.816C136.071 44.0827 136.503 44.216 137.095 44.216C137.511 44.216 137.885 44.12 138.215 43.928C138.551 43.7307 138.815 43.4853 139.007 43.192C139.205 42.8987 139.303 42.6053 139.303 42.312L139.607 42.312C139.607 42.824 139.495 43.2987 139.271 43.736C139.053 44.1733 138.738 44.5253 138.327 44.792C137.917 45.0587 137.426 45.192 136.855 45.192ZM147.204 45.192C146.692 45.192 146.228 45.0587 145.812 44.792C145.401 44.5253 145.073 44.136 144.828 43.624C144.588 43.1067 144.468 42.4773 144.468 41.736L144.948 41.736C144.948 42.232 145.049 42.656 145.252 43.008C145.46 43.3547 145.726 43.6187 146.052 43.8C146.377 43.9813 146.718 44.072 147.076 44.072C147.486 44.072 147.862 43.9547 148.204 43.72C148.545 43.4853 148.817 43.1493 149.02 42.712C149.228 42.2747 149.332 41.752 149.332 41.144C149.332 40.5467 149.23 40.0347 149.028 39.608C148.825 39.176 148.55 38.8453 148.204 38.616C147.862 38.3813 147.481 38.264 147.06 38.264C146.697 38.264 146.353 38.3547 146.028 38.536C145.708 38.712 145.446 38.9733 145.244 39.32C145.046 39.6667 144.948 40.0933 144.948 40.6L144.468 40.6C144.468 39.8747 144.585 39.256 144.82 38.744C145.06 38.232 145.39 37.84 145.812 37.568C146.233 37.296 146.724 37.16 147.284 37.16C147.886 37.16 148.438 37.3227 148.94 37.648C149.446 37.968 149.852 38.4267 150.156 39.024C150.46 39.6213 150.612 40.328 150.612 41.144C150.612 41.9653 150.457 42.68 150.148 43.288C149.838 43.8907 149.425 44.36 148.908 44.696C148.39 45.0267 147.822 45.192 147.204 45.192ZM143.7 45L143.7 34.088L144.948 34.088L144.948 43.208L144.58 45L143.7 45ZM156.112 45.192C155.424 45.192 154.811 45.04 154.272 44.736C153.739 44.432 153.317 43.9813 153.008 43.384C152.699 42.7867 152.544 42.0507 152.544 41.176C152.544 40.296 152.699 39.56 153.008 38.968C153.317 38.3707 153.739 37.92 154.272 37.616C154.811 37.312 155.424 37.16 156.112 37.16C156.795 37.16 157.403 37.312 157.936 37.616C158.475 37.92 158.896 38.3707 159.2 38.968C159.509 39.56 159.664 40.296 159.664 41.176C159.664 42.0507 159.509 42.7867 159.2 43.384C158.896 43.9813 158.475 44.432 157.936 44.736C157.403 45.04 156.795 45.192 156.112 45.192ZM156.08 44.104C156.576 44.104 156.997 43.9867 157.344 43.752C157.691 43.512 157.952 43.1733 158.128 42.736C158.309 42.2987 158.4 41.7787 158.4 41.176C158.4 40.264 158.211 39.5467 157.832 39.024C157.453 38.496 156.891 38.232 156.144 38.232C155.643 38.232 155.219 38.352 154.872 38.592C154.531 38.8267 154.269 39.1653 154.088 39.608C153.912 40.0453 153.824 40.568 153.824 41.176C153.824 42.0773 154.013 42.792 154.392 43.32C154.776 43.8427 155.339 44.104 156.08 44.104ZM167.454 37.336L168.702 37.336L168.702 45L167.454 45L167.454 37.336ZM162.03 37.336L163.278 37.336L163.278 42.104C163.278 42.744 163.433 43.2293 163.742 43.56C164.057 43.8907 164.505 44.056 165.086 44.056C165.566 44.056 165.982 43.928 166.334 43.672C166.691 43.416 166.966 43.064 167.158 42.616C167.355 42.1627 167.454 41.6453 167.454 41.064L167.918 41.064C167.918 41.9227 167.793 42.656 167.542 43.264C167.297 43.872 166.947 44.3387 166.494 44.664C166.046 44.984 165.518 45.144 164.91 45.144C164.334 45.144 163.83 45.0373 163.398 44.824C162.966 44.6107 162.63 44.288 162.39 43.856C162.15 43.4187 162.03 42.8667 162.03 42.2L162.03 37.336ZM174.454 45.192C174.038 45.192 173.664 45.112 173.334 44.952C173.003 44.792 172.742 44.552 172.55 44.232C172.358 43.912 172.262 43.512 172.262 43.032L172.262 35.224L173.494 35.224L173.494 43C173.494 43.7893 173.862 44.184 174.598 44.184C174.816 44.184 175.027 44.16 175.23 44.112C175.438 44.064 175.67 43.992 175.926 43.896L176.102 44.792C175.83 44.9093 175.558 45.0053 175.286 45.08C175.019 45.1547 174.742 45.192 174.454 45.192ZM171.03 38.216L171.03 37.352L175.91 37.352L175.91 38.216L171.03 38.216ZM184.586 45.192C184.17 45.192 183.797 45.112 183.466 44.952C183.135 44.792 182.874 44.552 182.682 44.232C182.49 43.912 182.394 43.512 182.394 43.032L182.394 35.224L183.626 35.224L183.626 43C183.626 43.7893 183.994 44.184 184.73 44.184C184.949 44.184 185.159 44.16 185.362 44.112C185.57 44.064 185.802 43.992 186.058 43.896L186.234 44.792C185.962 44.9093 185.69 45.0053 185.418 45.08C185.151 45.1547 184.874 45.192 184.586 45.192ZM181.162 38.216L181.162 37.352L186.042 37.352L186.042 38.216L181.162 38.216ZM193.85 45L193.85 40.504C193.85 39.7733 193.674 39.2187 193.322 38.84C192.975 38.456 192.5 38.264 191.898 38.264C191.439 38.264 191.042 38.3893 190.706 38.64C190.37 38.8907 190.111 39.2507 189.93 39.72C189.748 40.184 189.658 40.7387 189.658 41.384L189.178 41.384C189.178 40.4933 189.295 39.7333 189.53 39.104C189.764 38.4747 190.106 37.9947 190.554 37.664C191.007 37.328 191.556 37.16 192.202 37.16C192.804 37.16 193.319 37.296 193.746 37.568C194.178 37.8347 194.508 38.2187 194.738 38.72C194.967 39.2213 195.082 39.816 195.082 40.504L195.082 45L193.85 45ZM188.41 45L188.41 34.088L189.658 34.088L189.658 45L188.41 45ZM202.962 45L202.802 43.32L202.802 40.04C202.802 39.352 202.655 38.8587 202.362 38.56C202.069 38.256 201.629 38.104 201.042 38.104C200.711 38.104 200.41 38.152 200.138 38.248C199.871 38.344 199.658 38.4933 199.498 38.696C199.343 38.8933 199.266 39.1493 199.266 39.464L197.874 39.464C197.874 38.9093 198.01 38.464 198.282 38.128C198.554 37.7867 198.927 37.5413 199.402 37.392C199.882 37.2373 200.429 37.16 201.042 37.16C201.629 37.16 202.149 37.2587 202.602 37.456C203.055 37.6533 203.41 37.968 203.666 38.4C203.922 38.8267 204.05 39.384 204.05 40.072L204.05 45L202.962 45ZM200.354 45.192C199.725 45.192 199.205 45.08 198.794 44.856C198.383 44.632 198.077 44.3413 197.874 43.984C197.671 43.6267 197.57 43.2507 197.57 42.856C197.57 42.3387 197.698 41.9173 197.954 41.592C198.215 41.2667 198.57 41.0293 199.018 40.88C199.466 40.7253 199.97 40.648 200.53 40.648C200.93 40.648 201.33 40.688 201.73 40.768C202.135 40.848 202.53 40.9573 202.914 41.096L202.914 41.88C202.594 41.752 202.231 41.6507 201.826 41.576C201.426 41.5013 201.058 41.464 200.722 41.464C200.21 41.464 199.778 41.5707 199.426 41.784C199.074 41.992 198.898 42.3493 198.898 42.856C198.898 43.2293 199.031 43.5493 199.298 43.816C199.57 44.0827 200.002 44.216 200.594 44.216C201.01 44.216 201.383 44.12 201.714 43.928C202.05 43.7307 202.314 43.4853 202.506 43.192C202.703 42.8987 202.802 42.6053 202.802 42.312L203.106 42.312C203.106 42.824 202.994 43.2987 202.77 43.736C202.551 44.1733 202.237 44.5253 201.826 44.792C201.415 45.0587 200.925 45.192 200.354 45.192ZM209.551 45.192C209.135 45.192 208.761 45.112 208.431 44.952C208.1 44.792 207.839 44.552 207.647 44.232C207.455 43.912 207.359 43.512 207.359 43.032L207.359 35.224L208.591 35.224L208.591 43C208.591 43.7893 208.959 44.184 209.695 44.184C209.913 44.184 210.124 44.16 210.327 44.112C210.535 44.064 210.767 43.992 211.023 43.896L211.199 44.792C210.927 44.9093 210.655 45.0053 210.383 45.08C210.116 45.1547 209.839 45.192 209.551 45.192ZM206.127 38.216L206.127 37.352L211.007 37.352L211.007 38.216L206.127 38.216ZM31.32 55.544C31.064 55.544 30.8613 55.472 30.712 55.328C30.5627 55.1787 30.488 54.984 30.488 54.744C30.488 54.5093 30.5627 54.3227 30.712 54.184C30.8613 54.0453 31.064 53.976 31.32 53.976C31.576 53.976 31.7787 54.0453 31.928 54.184C32.0773 54.3227 32.152 54.5093 32.152 54.744C32.152 54.984 32.0773 55.1787 31.928 55.328C31.7787 55.472 31.576 55.544 31.32 55.544ZM30.696 65L30.696 57.336L31.944 57.336L31.944 65L30.696 65ZM40.9816 65L40.9816 60.504C40.9816 59.7733 40.8056 59.2187 40.4536 58.84C40.107 58.456 39.6323 58.264 39.0296 58.264C38.571 58.264 38.1736 58.3893 37.8376 58.64C37.5016 58.8907 37.243 59.2507 37.0616 59.72C36.8803 60.184 36.7896 60.7387 36.7896 61.384L36.3096 61.384C36.3096 60.4933 36.427 59.7333 36.6616 59.104C36.8963 58.4747 37.2376 57.9947 37.6856 57.664C38.139 57.328 38.6883 57.16 39.3336 57.16C39.9363 57.16 40.451 57.296 40.8776 57.568C41.3096 57.8347 41.6403 58.2187 41.8696 58.72C42.099 59.2213 42.2136 59.816 42.2136 60.504L42.2136 65L40.9816 65ZM35.5416 65L35.5416 57.352L36.6136 57.352L36.7896 59.112L36.7896 65L35.5416 65ZM51.6667 65.192C51.2507 65.192 50.8774 65.112 50.5467 64.952C50.2161 64.792 49.9547 64.552 49.7627 64.232C49.5707 63.912 49.4747 63.512 49.4747 63.032L49.4747 55.224L50.7067 55.224L50.7067 63C50.7067 63.7893 51.0747 64.184 51.8107 64.184C52.0294 64.184 52.2401 64.16 52.4427 64.112C52.6507 64.064 52.8827 63.992 53.1387 63.896L53.3147 64.792C53.0427 64.9093 52.7707 65.0053 52.4987 65.08C52.2321 65.1547 51.9547 65.192 51.6667 65.192ZM48.2427 58.216L48.2427 57.352L53.1227 57.352L53.1227 58.216L48.2427 58.216ZM60.9304 65L60.9304 60.504C60.9304 59.7733 60.7544 59.2187 60.4024 58.84C60.0557 58.456 59.581 58.264 58.9784 58.264C58.5197 58.264 58.1224 58.3893 57.7864 58.64C57.4504 58.8907 57.1917 59.2507 57.0104 59.72C56.829 60.184 56.7384 60.7387 56.7384 61.384L56.2584 61.384C56.2584 60.4933 56.3757 59.7333 56.6104 59.104C56.845 58.4747 57.1864 57.9947 57.6344 57.664C58.0877 57.328 58.637 57.16 59.2824 57.16C59.885 57.16 60.3997 57.296 60.8264 57.568C61.2584 57.8347 61.589 58.2187 61.8184 58.72C62.0477 59.2213 62.1624 59.816 62.1624 60.504L62.1624 65L60.9304 65ZM55.4904 65L55.4904 54.088L56.7384 54.088L56.7384 65L55.4904 65ZM67.9626 65.192C67.3013 65.192 66.7093 65.024 66.1866 64.688C65.6693 64.3467 65.2586 63.8747 64.9546 63.272C64.656 62.6693 64.5066 61.976 64.5066 61.192C64.5066 60.3547 64.656 59.6347 64.9546 59.032C65.2533 58.4293 65.6613 57.968 66.1786 57.648C66.7013 57.3227 67.296 57.16 67.9626 57.16C68.544 57.16 69.04 57.2773 69.4506 57.512C69.8613 57.7467 70.192 58.064 70.4426 58.464C70.6933 58.864 70.8666 59.3173 70.9626 59.824C71.064 60.3253 71.0933 60.8453 71.0506 61.384L65.5146 61.384L65.5146 60.616L70.2266 60.616L69.8586 60.856C69.8746 60.5413 69.856 60.2267 69.8026 59.912C69.7546 59.5973 69.6613 59.3093 69.5226 59.048C69.384 58.7813 69.1893 58.568 68.9386 58.408C68.688 58.248 68.368 58.168 67.9786 58.168C67.488 58.168 67.0773 58.2933 66.7466 58.544C66.416 58.7947 66.168 59.1253 66.0026 59.536C65.8373 59.9413 65.7546 60.3813 65.7546 60.856L65.7546 61.368C65.7546 61.9013 65.8346 62.3787 65.9946 62.8C66.16 63.2213 66.4053 63.5547 66.7306 63.8C67.056 64.0453 67.4666 64.168 67.9626 64.168C68.4586 64.168 68.8666 64.048 69.1866 63.808C69.5066 63.568 69.7013 63.2133 69.7706 62.744L71.0666 62.744C70.9866 63.2507 70.8053 63.688 70.5226 64.056C70.24 64.4187 69.88 64.6987 69.4426 64.896C69.0053 65.0933 68.512 65.192 67.9626 65.192ZM80.3942 65.192C79.6529 65.192 79.0342 65.088 78.5382 64.88C78.0422 64.6667 77.6662 64.376 77.4102 64.008C77.1542 63.6347 77.0182 63.208 77.0022 62.728L78.2022 62.728C78.2289 63.2133 78.4236 63.5787 78.7862 63.824C79.1542 64.064 79.6529 64.184 80.2822 64.184C80.6129 64.184 80.9169 64.1307 81.1942 64.024C81.4716 63.9173 81.6929 63.7707 81.8582 63.584C82.0236 63.3973 82.1062 63.1867 82.1062 62.952C82.1062 62.6533 81.9969 62.4187 81.7782 62.248C81.5596 62.0773 81.2102 61.928 80.7302 61.8L79.2422 61.32C78.5969 61.1173 78.1009 60.84 77.7542 60.488C77.4129 60.1307 77.2422 59.704 77.2422 59.208C77.2422 58.5893 77.5142 58.0933 78.0582 57.72C78.6022 57.3467 79.3169 57.16 80.2022 57.16C81.1409 57.16 81.8689 57.352 82.3862 57.736C82.9036 58.12 83.1729 58.6 83.1942 59.176L81.9622 59.176C81.9142 58.84 81.7436 58.5867 81.4502 58.416C81.1569 58.24 80.7409 58.152 80.2022 58.152C79.6849 58.152 79.2796 58.2693 78.9862 58.504C78.6982 58.7333 78.5542 58.9893 78.5542 59.272C78.5542 59.8 79.0076 60.1893 79.9142 60.44L81.4342 60.952C82.0902 61.1493 82.5916 61.408 82.9382 61.728C83.2902 62.048 83.4662 62.456 83.4662 62.952C83.4662 63.336 83.3409 63.6987 83.0902 64.04C82.8396 64.3813 82.4849 64.6587 82.0262 64.872C81.5676 65.0853 81.0236 65.192 80.3942 65.192ZM86.9125 55.544C86.6565 55.544 86.4538 55.472 86.3045 55.328C86.1552 55.1787 86.0805 54.984 86.0805 54.744C86.0805 54.5093 86.1552 54.3227 86.3045 54.184C86.4538 54.0453 86.6565 53.976 86.9125 53.976C87.1685 53.976 87.3712 54.0453 87.5205 54.184C87.6698 54.3227 87.7445 54.5093 87.7445 54.744C87.7445 54.984 87.6698 55.1787 87.5205 55.328C87.3712 55.472 87.1685 55.544 86.9125 55.544ZM86.2885 65L86.2885 57.336L87.5365 57.336L87.5365 65L86.2885 65ZM93.4861 65.192C93.0701 65.192 92.6968 65.112 92.3661 64.952C92.0355 64.792 91.7741 64.552 91.5821 64.232C91.3901 63.912 91.2941 63.512 91.2941 63.032L91.2941 55.224L92.5261 55.224L92.5261 63C92.5261 63.7893 92.8941 64.184 93.6301 64.184C93.8488 64.184 94.0595 64.16 94.2621 64.112C94.4701 64.064 94.7021 63.992 94.9581 63.896L95.1341 64.792C94.8621 64.9093 94.5901 65.0053 94.3181 65.08C94.0515 65.1547 93.7741 65.192 93.4861 65.192ZM90.0621 58.216L90.0621 57.352L94.9421 57.352L94.9421 58.216L90.0621 58.216ZM99.9657 65.192C99.3044 65.192 98.7124 65.024 98.1897 64.688C97.6724 64.3467 97.2617 63.8747 96.9577 63.272C96.6591 62.6693 96.5097 61.976 96.5097 61.192C96.5097 60.3547 96.6591 59.6347 96.9577 59.032C97.2564 58.4293 97.6644 57.968 98.1817 57.648C98.7044 57.3227 99.2991 57.16 99.9657 57.16C100.547 57.16 101.043 57.2773 101.454 57.512C101.864 57.7467 102.195 58.064 102.446 58.464C102.696 58.864 102.87 59.3173 102.966 59.824C103.067 60.3253 103.096 60.8453 103.054 61.384L97.5177 61.384L97.5177 60.616L102.23 60.616L101.862 60.856C101.878 60.5413 101.859 60.2267 101.806 59.912C101.758 59.5973 101.664 59.3093 101.526 59.048C101.387 58.7813 101.192 58.568 100.942 58.408C100.691 58.248 100.371 58.168 99.9817 58.168C99.4911 58.168 99.0804 58.2933 98.7497 58.544C98.4191 58.7947 98.1711 59.1253 98.0057 59.536C97.8404 59.9413 97.7577 60.3813 97.7577 60.856L97.7577 61.368C97.7577 61.9013 97.8377 62.3787 97.9977 62.8C98.1631 63.2213 98.4084 63.5547 98.7337 63.8C99.0591 64.0453 99.4697 64.168 99.9657 64.168C100.462 64.168 100.87 64.048 101.19 63.808C101.51 63.568 101.704 63.2133 101.774 62.744L103.07 62.744C102.99 63.2507 102.808 63.688 102.526 64.056C102.243 64.4187 101.883 64.6987 101.446 64.896C101.008 65.0933 100.515 65.192 99.9657 65.192ZM104.553 64.256C104.553 64.0053 104.641 63.7893 104.817 63.608C104.993 63.4267 105.214 63.336 105.481 63.336C105.747 63.336 105.974 63.4267 106.161 63.608C106.347 63.7893 106.441 64.0053 106.441 64.256C106.441 64.5067 106.347 64.7173 106.161 64.888C105.974 65.0587 105.747 65.144 105.481 65.144C105.214 65.144 104.993 65.0587 104.817 64.888C104.641 64.712 104.553 64.5013 104.553 64.256Z" fill="#333333"/>
</g>
<defs>
<filter id="filter0_d_7075_5714" x="0" y="0" width="228.035" height="88" filterUnits="userSpaceOnUse" color-interpolation-filters="sRGB">
<feFlood flood-opacity="0" result="BackgroundImageFix"/>
<feColorMatrix in="SourceAlpha" type="matrix" values="0 0 0 0 0 0 0 0 0 0 0 0 0 0 0 0 0 0 127 0" result="hardAlpha"/>
<feOffset dy="4"/>
<feGaussianBlur stdDeviation="3"/>
<feComposite in2="hardAlpha" operator="out"/>
<feColorMatrix type="matrix" values="0 0 0 0 0 0 0 0 0 0 0 0 0 0 0 0 0 0 0.1 0"/>
<feBlend mode="normal" in2="BackgroundImageFix" result="effect1_dropShadow_7075_5714"/>
<feBlend mode="normal" in="SourceGraphic" in2="effect1_dropShadow_7075_5714" result="shape"/>
</filter>
<filter id="filter1_d_7075_5714" x="23.7839" y="12.0879" width="193.415" height="63.1045" filterUnits="userSpaceOnUse" color-interpolation-filters="sRGB">
<feFlood flood-opacity="0" result="BackgroundImageFix"/>
<feColorMatrix in="SourceAlpha" type="matrix" values="0 0 0 0 0 0 0 0 0 0 0 0 0 0 0 0 0 0 127 0" result="hardAlpha"/>
<feOffset dy="4"/>
<feGaussianBlur stdDeviation="3"/>
<feComposite in2="hardAlpha" operator="out"/>
<feColorMatrix type="matrix" values="0 0 0 0 0 0 0 0 0 0 0 0 0 0 0 0 0 0 0.05 0"/>
<feBlend mode="normal" in2="BackgroundImageFix" result="effect1_dropShadow_7075_5714"/>
<feBlend mode="normal" in="SourceGraphic" in2="effect1_dropShadow_7075_5714" result="shape"/>
</filter>
</defs>
</svg>
