<svg width="255" height="108" viewBox="0 0 255 108" fill="none" xmlns="http://www.w3.org/2000/svg">
<g filter="url(#filter0_d_7084_5721)">
<mask id="path-1-inside-1_7084_5721" fill="white">
<path d="M7.04332 52.6331L16.7673 61L16.7673 89C16.7673 93.9706 20.7968 98 25.7673 98L239.767 98C244.738 98 248.767 93.9706 248.767 89L248.767 11C248.767 6.02948 244.738 2.00004 239.767 2.00004L25.7674 2C20.7968 2 16.7674 6.02944 16.7674 11L16.7674 40.5L7.15554 47.9931C5.66179 49.1575 5.6076 51.3978 7.04332 52.6331Z"/>
</mask>
<path d="M7.04332 52.6331L16.7673 61L16.7673 89C16.7673 93.9706 20.7968 98 25.7673 98L239.767 98C244.738 98 248.767 93.9706 248.767 89L248.767 11C248.767 6.02948 244.738 2.00004 239.767 2.00004L25.7674 2C20.7968 2 16.7674 6.02944 16.7674 11L16.7674 40.5L7.15554 47.9931C5.66179 49.1575 5.6076 51.3978 7.04332 52.6331Z" fill="white"/>
<path d="M16.7673 61L18.1673 61L18.1673 60.3577L17.6805 59.9388L16.7673 61ZM7.04332 52.6331L6.1302 53.6944L6.1302 53.6944L7.04332 52.6331ZM7.15554 47.9931L6.29479 46.8889L6.29479 46.8889L7.15554 47.9931ZM16.7674 40.5L17.6281 41.6041L18.1674 41.1838L18.1674 40.5L16.7674 40.5ZM16.7674 11L15.3674 11L15.3674 11L16.7674 11ZM16.7673 89L18.1673 89L18.1673 89L16.7673 89ZM17.6805 59.9388L7.95644 51.5719L6.1302 53.6944L15.8542 62.0612L17.6805 59.9388ZM8.01629 49.0972L17.6281 41.6041L15.9066 39.3959L6.29479 46.8889L8.01629 49.0972ZM7.95644 51.5719C7.19072 50.9131 7.21962 49.7183 8.01629 49.0972L6.29479 46.8889C4.10395 48.5968 4.02448 51.8825 6.1302 53.6944L7.95644 51.5719ZM25.7674 3.4L239.767 3.40004L239.767 0.600041L25.7674 0.600003L25.7674 3.4ZM247.367 11L247.367 89L250.167 89L250.167 11L247.367 11ZM239.767 96.6L25.7673 96.6L25.7673 99.4L239.767 99.4L239.767 96.6ZM18.1674 40.5L18.1674 11L15.3674 11L15.3674 40.5L18.1674 40.5ZM18.1673 89L18.1673 61L15.3673 61L15.3673 89L18.1673 89ZM25.7673 96.6C21.57 96.6 18.1673 93.1974 18.1673 89L15.3673 89C15.3673 94.7438 20.0236 99.4 25.7673 99.4L25.7673 96.6ZM247.367 89C247.367 93.1974 243.965 96.6 239.767 96.6L239.767 99.4C245.511 99.4 250.167 94.7438 250.167 89L247.367 89ZM239.767 3.40004C243.965 3.40004 247.367 6.80268 247.367 11L250.167 11C250.167 5.25628 245.511 0.600042 239.767 0.600041L239.767 3.40004ZM25.7674 0.600003C20.0236 0.600002 15.3674 5.25624 15.3674 11L18.1674 11C18.1674 6.80264 21.57 3.4 25.7674 3.4L25.7674 0.600003Z" fill="#333333" mask="url(#path-1-inside-1_7084_5721)"/>
<path d="M27.144 14.952H28.648L31.528 19.832H31.208L34.136 14.952H35.624L31.992 20.872V25H30.728V20.872L27.144 14.952ZM39.2784 25.192C38.5904 25.192 37.977 25.04 37.4384 24.736C36.905 24.432 36.4837 23.9813 36.1744 23.384C35.865 22.7867 35.7104 22.0507 35.7104 21.176C35.7104 20.296 35.865 19.56 36.1744 18.968C36.4837 18.3707 36.905 17.92 37.4384 17.616C37.977 17.312 38.5904 17.16 39.2784 17.16C39.961 17.16 40.569 17.312 41.1024 17.616C41.641 17.92 42.0624 18.3707 42.3664 18.968C42.6757 19.56 42.8304 20.296 42.8304 21.176C42.8304 22.0507 42.6757 22.7867 42.3664 23.384C42.0624 23.9813 41.641 24.432 41.1024 24.736C40.569 25.04 39.961 25.192 39.2784 25.192ZM39.2464 24.104C39.7424 24.104 40.1637 23.9867 40.5104 23.752C40.857 23.512 41.1184 23.1733 41.2944 22.736C41.4757 22.2987 41.5664 21.7787 41.5664 21.176C41.5664 20.264 41.377 19.5467 40.9984 19.024C40.6197 18.496 40.057 18.232 39.3104 18.232C38.809 18.232 38.385 18.352 38.0384 18.592C37.697 18.8267 37.4357 19.1653 37.2544 19.608C37.0784 20.0453 36.9904 20.568 36.9904 21.176C36.9904 22.0773 37.1797 22.792 37.5584 23.32C37.9424 23.8427 38.505 24.104 39.2464 24.104ZM50.6204 17.336H51.8684V25H50.6204V17.336ZM45.1964 17.336H46.4444V22.104C46.4444 22.744 46.599 23.2293 46.9084 23.56C47.223 23.8907 47.671 24.056 48.2524 24.056C48.7324 24.056 49.1484 23.928 49.5004 23.672C49.8577 23.416 50.1324 23.064 50.3244 22.616C50.5217 22.1627 50.6204 21.6453 50.6204 21.064H51.0844C51.0844 21.9227 50.959 22.656 50.7084 23.264C50.463 23.872 50.1137 24.3387 49.6604 24.664C49.2124 24.984 48.6844 25.144 48.0764 25.144C47.5004 25.144 46.9964 25.0373 46.5644 24.824C46.1324 24.6107 45.7964 24.288 45.5564 23.856C45.3164 23.4187 45.1964 22.8667 45.1964 22.2V17.336ZM63.9607 25L63.8007 23.32V20.04C63.8007 19.352 63.6541 18.8587 63.3607 18.56C63.0674 18.256 62.6274 18.104 62.0407 18.104C61.7101 18.104 61.4087 18.152 61.1367 18.248C60.8701 18.344 60.6567 18.4933 60.4967 18.696C60.3421 18.8933 60.2647 19.1493 60.2647 19.464H58.8727C58.8727 18.9093 59.0087 18.464 59.2807 18.128C59.5527 17.7867 59.9261 17.5413 60.4007 17.392C60.8807 17.2373 61.4274 17.16 62.0407 17.16C62.6274 17.16 63.1474 17.2587 63.6007 17.456C64.0541 17.6533 64.4087 17.968 64.6647 18.4C64.9207 18.8267 65.0487 19.384 65.0487 20.072V25H63.9607ZM61.3527 25.192C60.7234 25.192 60.2034 25.08 59.7927 24.856C59.3821 24.632 59.0754 24.3413 58.8727 23.984C58.6701 23.6267 58.5687 23.2507 58.5687 22.856C58.5687 22.3387 58.6967 21.9173 58.9527 21.592C59.2141 21.2667 59.5687 21.0293 60.0167 20.88C60.4647 20.7253 60.9687 20.648 61.5287 20.648C61.9287 20.648 62.3287 20.688 62.7287 20.768C63.1341 20.848 63.5287 20.9573 63.9127 21.096V21.88C63.5927 21.752 63.2301 21.6507 62.8247 21.576C62.4247 21.5013 62.0567 21.464 61.7207 21.464C61.2087 21.464 60.7767 21.5707 60.4247 21.784C60.0727 21.992 59.8967 22.3493 59.8967 22.856C59.8967 23.2293 60.0301 23.5493 60.2967 23.816C60.5687 24.0827 61.0007 24.216 61.5927 24.216C62.0087 24.216 62.3821 24.12 62.7127 23.928C63.0487 23.7307 63.3127 23.4853 63.5047 23.192C63.7021 22.8987 63.8007 22.6053 63.8007 22.312H64.1047C64.1047 22.824 63.9927 23.2987 63.7687 23.736C63.5501 24.1733 63.2354 24.5253 62.8247 24.792C62.4141 25.0587 61.9234 25.192 61.3527 25.192ZM68.1972 25V17.336H69.4452V25H68.1972ZM69.0612 21.544C69.0612 20.5733 69.1546 19.768 69.3412 19.128C69.5279 18.4827 69.7999 18.0027 70.1572 17.688C70.5199 17.368 70.9599 17.208 71.4772 17.208C71.6479 17.208 71.8026 17.2213 71.9412 17.248C72.0852 17.2693 72.2292 17.304 72.3732 17.352L72.2932 18.584C72.1439 18.536 71.9812 18.496 71.8052 18.464C71.6292 18.4267 71.4719 18.408 71.3332 18.408C70.8799 18.408 70.5146 18.5387 70.2372 18.8C69.9599 19.056 69.7572 19.4187 69.6292 19.888C69.5066 20.3573 69.4452 20.9093 69.4452 21.544H69.0612ZM76.7945 25.192C76.1332 25.192 75.5412 25.024 75.0185 24.688C74.5012 24.3467 74.0905 23.8747 73.7865 23.272C73.4878 22.6693 73.3385 21.976 73.3385 21.192C73.3385 20.3547 73.4878 19.6347 73.7865 19.032C74.0852 18.4293 74.4932 17.968 75.0105 17.648C75.5332 17.3227 76.1278 17.16 76.7945 17.16C77.3758 17.16 77.8718 17.2773 78.2825 17.512C78.6932 17.7467 79.0238 18.064 79.2745 18.464C79.5252 18.864 79.6985 19.3173 79.7945 19.824C79.8958 20.3253 79.9252 20.8453 79.8825 21.384H74.3465V20.616H79.0585L78.6905 20.856C78.7065 20.5413 78.6878 20.2267 78.6345 19.912C78.5865 19.5973 78.4932 19.3093 78.3545 19.048C78.2158 18.7813 78.0212 18.568 77.7705 18.408C77.5198 18.248 77.1998 18.168 76.8105 18.168C76.3198 18.168 75.9092 18.2933 75.5785 18.544C75.2478 18.7947 74.9998 19.1253 74.8345 19.536C74.6692 19.9413 74.5865 20.3813 74.5865 20.856V21.368C74.5865 21.9013 74.6665 22.3787 74.8265 22.8C74.9918 23.2213 75.2372 23.5547 75.5625 23.8C75.8878 24.0453 76.2985 24.168 76.7945 24.168C77.2905 24.168 77.6985 24.048 78.0185 23.808C78.3385 23.568 78.5332 23.2133 78.6025 22.744H79.8985C79.8185 23.2507 79.6372 23.688 79.3545 24.056C79.0718 24.4187 78.7118 24.6987 78.2745 24.896C77.8372 25.0933 77.3438 25.192 76.7945 25.192ZM86.4741 25V17.336H87.7221V25H86.4741ZM87.3381 21.544C87.3381 20.5733 87.4315 19.768 87.6181 19.128C87.8048 18.4827 88.0768 18.0027 88.4341 17.688C88.7968 17.368 89.2368 17.208 89.7541 17.208C89.9248 17.208 90.0795 17.2213 90.2181 17.248C90.3621 17.2693 90.5061 17.304 90.6501 17.352L90.5701 18.584C90.4208 18.536 90.2581 18.496 90.0821 18.464C89.9061 18.4267 89.7488 18.408 89.6101 18.408C89.1568 18.408 88.7915 18.5387 88.5141 18.8C88.2368 19.056 88.0341 19.4187 87.9061 19.888C87.7835 20.3573 87.7221 20.9093 87.7221 21.544H87.3381ZM95.0714 25.192C94.41 25.192 93.818 25.024 93.2954 24.688C92.778 24.3467 92.3674 23.8747 92.0634 23.272C91.7647 22.6693 91.6154 21.976 91.6154 21.192C91.6154 20.3547 91.7647 19.6347 92.0634 19.032C92.362 18.4293 92.77 17.968 93.2874 17.648C93.81 17.3227 94.4047 17.16 95.0714 17.16C95.6527 17.16 96.1487 17.2773 96.5594 17.512C96.97 17.7467 97.3007 18.064 97.5514 18.464C97.802 18.864 97.9754 19.3173 98.0714 19.824C98.1727 20.3253 98.202 20.8453 98.1594 21.384H92.6234V20.616H97.3354L96.9674 20.856C96.9834 20.5413 96.9647 20.2267 96.9114 19.912C96.8634 19.5973 96.77 19.3093 96.6314 19.048C96.4927 18.7813 96.298 18.568 96.0474 18.408C95.7967 18.248 95.4767 18.168 95.0874 18.168C94.5967 18.168 94.186 18.2933 93.8554 18.544C93.5247 18.7947 93.2767 19.1253 93.1114 19.536C92.946 19.9413 92.8634 20.3813 92.8634 20.856V21.368C92.8634 21.9013 92.9434 22.3787 93.1034 22.8C93.2687 23.2213 93.514 23.5547 93.8394 23.8C94.1647 24.0453 94.5754 24.168 95.0714 24.168C95.5674 24.168 95.9754 24.048 96.2954 23.808C96.6154 23.568 96.81 23.2133 96.8794 22.744H98.1754C98.0954 23.2507 97.914 23.688 97.6314 24.056C97.3487 24.4187 96.9887 24.6987 96.5514 24.896C96.114 25.0933 95.6207 25.192 95.0714 25.192ZM105.53 25L105.37 23.32V20.04C105.37 19.352 105.223 18.8587 104.93 18.56C104.637 18.256 104.197 18.104 103.61 18.104C103.279 18.104 102.978 18.152 102.706 18.248C102.439 18.344 102.226 18.4933 102.066 18.696C101.911 18.8933 101.834 19.1493 101.834 19.464H100.442C100.442 18.9093 100.578 18.464 100.85 18.128C101.122 17.7867 101.495 17.5413 101.97 17.392C102.45 17.2373 102.997 17.16 103.61 17.16C104.197 17.16 104.717 17.2587 105.17 17.456C105.623 17.6533 105.978 17.968 106.234 18.4C106.49 18.8267 106.618 19.384 106.618 20.072V25H105.53ZM102.922 25.192C102.293 25.192 101.773 25.08 101.362 24.856C100.951 24.632 100.645 24.3413 100.442 23.984C100.239 23.6267 100.138 23.2507 100.138 22.856C100.138 22.3387 100.266 21.9173 100.522 21.592C100.783 21.2667 101.138 21.0293 101.586 20.88C102.034 20.7253 102.538 20.648 103.098 20.648C103.498 20.648 103.898 20.688 104.298 20.768C104.703 20.848 105.098 20.9573 105.482 21.096V21.88C105.162 21.752 104.799 21.6507 104.394 21.576C103.994 21.5013 103.626 21.464 103.29 21.464C102.778 21.464 102.346 21.5707 101.994 21.784C101.642 21.992 101.466 22.3493 101.466 22.856C101.466 23.2293 101.599 23.5493 101.866 23.816C102.138 24.0827 102.57 24.216 103.162 24.216C103.578 24.216 103.951 24.12 104.282 23.928C104.618 23.7307 104.882 23.4853 105.074 23.192C105.271 22.8987 105.37 22.6053 105.37 22.312H105.674C105.674 22.824 105.562 23.2987 105.338 23.736C105.119 24.1733 104.805 24.5253 104.394 24.792C103.983 25.0587 103.493 25.192 102.922 25.192ZM112.503 25.192C111.884 25.192 111.316 25.0267 110.799 24.696C110.281 24.36 109.868 23.8907 109.559 23.288C109.249 22.68 109.095 21.9653 109.095 21.144C109.095 20.328 109.247 19.6213 109.551 19.024C109.855 18.4267 110.257 17.968 110.759 17.648C111.265 17.3227 111.82 17.16 112.423 17.16C112.983 17.16 113.473 17.296 113.895 17.568C114.321 17.84 114.652 18.232 114.887 18.744C115.121 19.256 115.239 19.8747 115.239 20.6H114.759C114.759 20.0933 114.657 19.6667 114.455 19.32C114.257 18.9733 113.999 18.712 113.679 18.536C113.359 18.3547 113.015 18.264 112.647 18.264C112.231 18.264 111.849 18.3813 111.503 18.616C111.161 18.8453 110.887 19.176 110.679 19.608C110.476 20.0347 110.375 20.5467 110.375 21.144C110.375 21.752 110.476 22.2747 110.679 22.712C110.887 23.1493 111.161 23.4853 111.503 23.72C111.849 23.9547 112.231 24.072 112.647 24.072C112.993 24.072 113.327 23.9813 113.647 23.8C113.972 23.6187 114.239 23.3547 114.447 23.008C114.655 22.656 114.759 22.232 114.759 21.736H115.239C115.239 22.4773 115.116 23.1067 114.871 23.624C114.631 24.136 114.303 24.5253 113.887 24.792C113.476 25.0587 113.015 25.192 112.503 25.192ZM114.967 25L114.759 23.208V14.088H116.007V25H114.967ZM120.115 15.544C119.859 15.544 119.656 15.472 119.507 15.328C119.358 15.1787 119.283 14.984 119.283 14.744C119.283 14.5093 119.358 14.3227 119.507 14.184C119.656 14.0453 119.859 13.976 120.115 13.976C120.371 13.976 120.574 14.0453 120.723 14.184C120.872 14.3227 120.947 14.5093 120.947 14.744C120.947 14.984 120.872 15.1787 120.723 15.328C120.574 15.472 120.371 15.544 120.115 15.544ZM119.491 25V17.336H120.739V25H119.491ZM129.777 25V20.504C129.777 19.7733 129.601 19.2187 129.249 18.84C128.902 18.456 128.427 18.264 127.825 18.264C127.366 18.264 126.969 18.3893 126.633 18.64C126.297 18.8907 126.038 19.2507 125.857 19.72C125.675 20.184 125.585 20.7387 125.585 21.384H125.105C125.105 20.4933 125.222 19.7333 125.457 19.104C125.691 18.4747 126.033 17.9947 126.481 17.664C126.934 17.328 127.483 17.16 128.129 17.16C128.731 17.16 129.246 17.296 129.673 17.568C130.105 17.8347 130.435 18.2187 130.665 18.72C130.894 19.2213 131.009 19.816 131.009 20.504V25H129.777ZM124.337 25V17.352H125.409L125.585 19.112V25H124.337ZM136.857 28.936C136.073 28.936 135.393 28.824 134.817 28.6C134.241 28.3813 133.793 28.0853 133.473 27.712C133.158 27.344 133.001 26.936 133.001 26.488C133.001 25.896 133.217 25.4427 133.649 25.128C134.086 24.8187 134.649 24.664 135.337 24.664L136.025 25.096C135.449 25.096 135.004 25.216 134.689 25.456C134.374 25.696 134.217 26.024 134.217 26.44C134.217 26.856 134.441 27.208 134.889 27.496C135.337 27.784 135.993 27.928 136.857 27.928C137.497 27.928 138.057 27.8347 138.537 27.648C139.022 27.4667 139.398 27.2267 139.665 26.928C139.937 26.6347 140.073 26.3173 140.073 25.976C140.073 25.736 139.985 25.528 139.809 25.352C139.633 25.1813 139.364 25.096 139.001 25.096H136.025C135.508 25.096 135.06 25.0187 134.681 24.864C134.308 24.704 134.02 24.496 133.817 24.24C133.614 23.984 133.513 23.704 133.513 23.4C133.513 23.08 133.604 22.808 133.785 22.584C133.966 22.36 134.201 22.1893 134.489 22.072C134.782 21.9547 135.097 21.896 135.433 21.896L135.673 22.36C135.513 22.36 135.35 22.3973 135.185 22.472C135.025 22.5413 134.889 22.648 134.777 22.792C134.67 22.9307 134.617 23.1067 134.617 23.32C134.617 23.5653 134.718 23.7707 134.921 23.936C135.124 24.1013 135.492 24.184 136.025 24.184H139.001C139.721 24.184 140.286 24.336 140.697 24.64C141.113 24.944 141.321 25.368 141.321 25.912C141.321 26.4133 141.142 26.8933 140.785 27.352C140.428 27.816 139.916 28.1947 139.249 28.488C138.582 28.7867 137.785 28.936 136.857 28.936ZM137.081 22.76C136.494 22.76 135.964 22.6427 135.489 22.408C135.02 22.1733 134.646 21.8453 134.369 21.424C134.097 21.0027 133.961 20.5147 133.961 19.96C133.961 19.4 134.097 18.9093 134.369 18.488C134.646 18.0667 135.02 17.7413 135.489 17.512C135.964 17.2773 136.494 17.16 137.081 17.16C137.652 17.16 138.169 17.2773 138.633 17.512C139.102 17.7413 139.476 18.0667 139.753 18.488C140.03 18.9093 140.169 19.4 140.169 19.96C140.169 20.5147 140.03 21.0027 139.753 21.424C139.476 21.8453 139.102 22.1733 138.633 22.408C138.169 22.6427 137.652 22.76 137.081 22.76ZM137.081 21.864C137.668 21.864 138.124 21.6827 138.449 21.32C138.774 20.9573 138.937 20.504 138.937 19.96C138.937 19.4 138.774 18.9467 138.449 18.6C138.124 18.248 137.668 18.072 137.081 18.072C136.5 18.072 136.041 18.248 135.705 18.6C135.374 18.9467 135.209 19.4 135.209 19.96C135.209 20.504 135.374 20.9573 135.705 21.32C136.041 21.6827 136.5 21.864 137.081 21.864ZM139.593 18.376L139.001 18.136C139.001 17.688 139.089 17.296 139.265 16.96C139.441 16.6187 139.692 16.3547 140.017 16.168C140.342 15.976 140.729 15.88 141.177 15.88L141.081 17.112C140.601 17.112 140.233 17.216 139.977 17.424C139.721 17.6267 139.593 17.944 139.593 18.376ZM152.037 25L151.877 23.32V20.04C151.877 19.352 151.73 18.8587 151.437 18.56C151.144 18.256 150.704 18.104 150.117 18.104C149.786 18.104 149.485 18.152 149.213 18.248C148.946 18.344 148.733 18.4933 148.573 18.696C148.418 18.8933 148.341 19.1493 148.341 19.464H146.949C146.949 18.9093 147.085 18.464 147.357 18.128C147.629 17.7867 148.002 17.5413 148.477 17.392C148.957 17.2373 149.504 17.16 150.117 17.16C150.704 17.16 151.224 17.2587 151.677 17.456C152.13 17.6533 152.485 17.968 152.741 18.4C152.997 18.8267 153.125 19.384 153.125 20.072V25H152.037ZM149.429 25.192C148.8 25.192 148.28 25.08 147.869 24.856C147.458 24.632 147.152 24.3413 146.949 23.984C146.746 23.6267 146.645 23.2507 146.645 22.856C146.645 22.3387 146.773 21.9173 147.029 21.592C147.29 21.2667 147.645 21.0293 148.093 20.88C148.541 20.7253 149.045 20.648 149.605 20.648C150.005 20.648 150.405 20.688 150.805 20.768C151.21 20.848 151.605 20.9573 151.989 21.096V21.88C151.669 21.752 151.306 21.6507 150.901 21.576C150.501 21.5013 150.133 21.464 149.797 21.464C149.285 21.464 148.853 21.5707 148.501 21.784C148.149 21.992 147.973 22.3493 147.973 22.856C147.973 23.2293 148.106 23.5493 148.373 23.816C148.645 24.0827 149.077 24.216 149.669 24.216C150.085 24.216 150.458 24.12 150.789 23.928C151.125 23.7307 151.389 23.4853 151.581 23.192C151.778 22.8987 151.877 22.6053 151.877 22.312H152.181C152.181 22.824 152.069 23.2987 151.845 23.736C151.626 24.1733 151.312 24.5253 150.901 24.792C150.49 25.0587 150 25.192 149.429 25.192ZM163.702 25.192C163.142 25.192 162.654 25.064 162.238 24.808C161.828 24.552 161.51 24.1787 161.286 23.688C161.062 23.192 160.95 22.5893 160.95 21.88H161.478C161.478 22.3547 161.577 22.7547 161.774 23.08C161.972 23.4053 162.228 23.6533 162.542 23.824C162.862 23.9893 163.201 24.072 163.558 24.072C163.942 24.072 164.31 23.9627 164.662 23.744C165.014 23.52 165.302 23.192 165.526 22.76C165.75 22.328 165.862 21.7947 165.862 21.16C165.862 20.552 165.758 20.032 165.55 19.6C165.348 19.168 165.073 18.8373 164.726 18.608C164.38 18.3787 163.996 18.264 163.574 18.264C163.212 18.264 162.87 18.352 162.55 18.528C162.23 18.704 161.972 18.9627 161.774 19.304C161.577 19.64 161.478 20.056 161.478 20.552H160.95C160.95 19.8107 161.073 19.1893 161.318 18.688C161.564 18.1813 161.897 17.8 162.318 17.544C162.74 17.288 163.212 17.16 163.734 17.16C164.332 17.16 164.889 17.32 165.406 17.64C165.924 17.96 166.342 18.4187 166.662 19.016C166.982 19.6133 167.142 20.328 167.142 21.16C167.142 22.0027 166.98 22.7253 166.654 23.328C166.334 23.9307 165.913 24.392 165.39 24.712C164.868 25.032 164.305 25.192 163.702 25.192ZM160.23 28.76V17.352H161.27L161.478 19.144V28.76H160.23ZM174.486 25L174.326 23.32V20.04C174.326 19.352 174.179 18.8587 173.886 18.56C173.592 18.256 173.152 18.104 172.566 18.104C172.235 18.104 171.934 18.152 171.662 18.248C171.395 18.344 171.182 18.4933 171.022 18.696C170.867 18.8933 170.79 19.1493 170.79 19.464H169.398C169.398 18.9093 169.534 18.464 169.806 18.128C170.078 17.7867 170.451 17.5413 170.926 17.392C171.406 17.2373 171.952 17.16 172.566 17.16C173.152 17.16 173.672 17.2587 174.126 17.456C174.579 17.6533 174.934 17.968 175.19 18.4C175.446 18.8267 175.574 19.384 175.574 20.072V25H174.486ZM171.878 25.192C171.248 25.192 170.728 25.08 170.318 24.856C169.907 24.632 169.6 24.3413 169.398 23.984C169.195 23.6267 169.094 23.2507 169.094 22.856C169.094 22.3387 169.222 21.9173 169.478 21.592C169.739 21.2667 170.094 21.0293 170.542 20.88C170.99 20.7253 171.494 20.648 172.054 20.648C172.454 20.648 172.854 20.688 173.254 20.768C173.659 20.848 174.054 20.9573 174.438 21.096V21.88C174.118 21.752 173.755 21.6507 173.35 21.576C172.95 21.5013 172.582 21.464 172.246 21.464C171.734 21.464 171.302 21.5707 170.95 21.784C170.598 21.992 170.422 22.3493 170.422 22.856C170.422 23.2293 170.555 23.5493 170.822 23.816C171.094 24.0827 171.526 24.216 172.118 24.216C172.534 24.216 172.907 24.12 173.238 23.928C173.574 23.7307 173.838 23.4853 174.03 23.192C174.227 22.8987 174.326 22.6053 174.326 22.312H174.63C174.63 22.824 174.518 23.2987 174.294 23.736C174.075 24.1733 173.76 24.5253 173.35 24.792C172.939 25.0587 172.448 25.192 171.878 25.192ZM178.722 25V17.336H179.97V25H178.722ZM179.586 21.544C179.586 20.5733 179.68 19.768 179.866 19.128C180.053 18.4827 180.325 18.0027 180.682 17.688C181.045 17.368 181.485 17.208 182.002 17.208C182.173 17.208 182.328 17.2213 182.466 17.248C182.61 17.2693 182.754 17.304 182.898 17.352L182.818 18.584C182.669 18.536 182.506 18.496 182.33 18.464C182.154 18.4267 181.997 18.408 181.858 18.408C181.405 18.408 181.04 18.5387 180.762 18.8C180.485 19.056 180.282 19.4187 180.154 19.888C180.032 20.3573 179.97 20.9093 179.97 21.544H179.586ZM189.4 25L189.24 23.32V20.04C189.24 19.352 189.093 18.8587 188.8 18.56C188.506 18.256 188.066 18.104 187.48 18.104C187.149 18.104 186.848 18.152 186.576 18.248C186.309 18.344 186.096 18.4933 185.936 18.696C185.781 18.8933 185.704 19.1493 185.704 19.464H184.312C184.312 18.9093 184.448 18.464 184.72 18.128C184.992 17.7867 185.365 17.5413 185.84 17.392C186.32 17.2373 186.866 17.16 187.48 17.16C188.066 17.16 188.586 17.2587 189.04 17.456C189.493 17.6533 189.848 17.968 190.104 18.4C190.36 18.8267 190.488 19.384 190.488 20.072V25H189.4ZM186.792 25.192C186.162 25.192 185.642 25.08 185.232 24.856C184.821 24.632 184.514 24.3413 184.312 23.984C184.109 23.6267 184.008 23.2507 184.008 22.856C184.008 22.3387 184.136 21.9173 184.392 21.592C184.653 21.2667 185.008 21.0293 185.456 20.88C185.904 20.7253 186.408 20.648 186.968 20.648C187.368 20.648 187.768 20.688 188.168 20.768C188.573 20.848 188.968 20.9573 189.352 21.096V21.88C189.032 21.752 188.669 21.6507 188.264 21.576C187.864 21.5013 187.496 21.464 187.16 21.464C186.648 21.464 186.216 21.5707 185.864 21.784C185.512 21.992 185.336 22.3493 185.336 22.856C185.336 23.2293 185.469 23.5493 185.736 23.816C186.008 24.0827 186.44 24.216 187.032 24.216C187.448 24.216 187.821 24.12 188.152 23.928C188.488 23.7307 188.752 23.4853 188.944 23.192C189.141 22.8987 189.24 22.6053 189.24 22.312H189.544C189.544 22.824 189.432 23.2987 189.208 23.736C188.989 24.1733 188.674 24.5253 188.264 24.792C187.853 25.0587 187.362 25.192 186.792 25.192ZM196.34 28.936C195.556 28.936 194.876 28.824 194.3 28.6C193.724 28.3813 193.276 28.0853 192.956 27.712C192.641 27.344 192.484 26.936 192.484 26.488C192.484 25.896 192.7 25.4427 193.132 25.128C193.569 24.8187 194.132 24.664 194.82 24.664L195.508 25.096C194.932 25.096 194.487 25.216 194.172 25.456C193.857 25.696 193.7 26.024 193.7 26.44C193.7 26.856 193.924 27.208 194.372 27.496C194.82 27.784 195.476 27.928 196.34 27.928C196.98 27.928 197.54 27.8347 198.02 27.648C198.505 27.4667 198.881 27.2267 199.148 26.928C199.42 26.6347 199.556 26.3173 199.556 25.976C199.556 25.736 199.468 25.528 199.292 25.352C199.116 25.1813 198.847 25.096 198.484 25.096H195.508C194.991 25.096 194.543 25.0187 194.164 24.864C193.791 24.704 193.503 24.496 193.3 24.24C193.097 23.984 192.996 23.704 192.996 23.4C192.996 23.08 193.087 22.808 193.268 22.584C193.449 22.36 193.684 22.1893 193.972 22.072C194.265 21.9547 194.58 21.896 194.916 21.896L195.156 22.36C194.996 22.36 194.833 22.3973 194.668 22.472C194.508 22.5413 194.372 22.648 194.26 22.792C194.153 22.9307 194.1 23.1067 194.1 23.32C194.1 23.5653 194.201 23.7707 194.404 23.936C194.607 24.1013 194.975 24.184 195.508 24.184H198.484C199.204 24.184 199.769 24.336 200.18 24.64C200.596 24.944 200.804 25.368 200.804 25.912C200.804 26.4133 200.625 26.8933 200.268 27.352C199.911 27.816 199.399 28.1947 198.732 28.488C198.065 28.7867 197.268 28.936 196.34 28.936ZM196.564 22.76C195.977 22.76 195.447 22.6427 194.972 22.408C194.503 22.1733 194.129 21.8453 193.852 21.424C193.58 21.0027 193.444 20.5147 193.444 19.96C193.444 19.4 193.58 18.9093 193.852 18.488C194.129 18.0667 194.503 17.7413 194.972 17.512C195.447 17.2773 195.977 17.16 196.564 17.16C197.135 17.16 197.652 17.2773 198.116 17.512C198.585 17.7413 198.959 18.0667 199.236 18.488C199.513 18.9093 199.652 19.4 199.652 19.96C199.652 20.5147 199.513 21.0027 199.236 21.424C198.959 21.8453 198.585 22.1733 198.116 22.408C197.652 22.6427 197.135 22.76 196.564 22.76ZM196.564 21.864C197.151 21.864 197.607 21.6827 197.932 21.32C198.257 20.9573 198.42 20.504 198.42 19.96C198.42 19.4 198.257 18.9467 197.932 18.6C197.607 18.248 197.151 18.072 196.564 18.072C195.983 18.072 195.524 18.248 195.188 18.6C194.857 18.9467 194.692 19.4 194.692 19.96C194.692 20.504 194.857 20.9573 195.188 21.32C195.524 21.6827 195.983 21.864 196.564 21.864ZM199.076 18.376L198.484 18.136C198.484 17.688 198.572 17.296 198.748 16.96C198.924 16.6187 199.175 16.3547 199.5 16.168C199.825 15.976 200.212 15.88 200.66 15.88L200.564 17.112C200.084 17.112 199.716 17.216 199.46 17.424C199.204 17.6267 199.076 17.944 199.076 18.376ZM202.827 25V17.336H204.075V25H202.827ZM203.691 21.544C203.691 20.5733 203.785 19.768 203.971 19.128C204.158 18.4827 204.43 18.0027 204.787 17.688C205.15 17.368 205.59 17.208 206.107 17.208C206.278 17.208 206.433 17.2213 206.571 17.248C206.715 17.2693 206.859 17.304 207.003 17.352L206.923 18.584C206.774 18.536 206.611 18.496 206.435 18.464C206.259 18.4267 206.102 18.408 205.963 18.408C205.51 18.408 205.145 18.5387 204.867 18.8C204.59 19.056 204.387 19.4187 204.259 19.888C204.137 20.3573 204.075 20.9093 204.075 21.544H203.691ZM213.504 25L213.344 23.32V20.04C213.344 19.352 213.198 18.8587 212.904 18.56C212.611 18.256 212.171 18.104 211.584 18.104C211.254 18.104 210.952 18.152 210.68 18.248C210.414 18.344 210.2 18.4933 210.04 18.696C209.886 18.8933 209.808 19.1493 209.808 19.464H208.416C208.416 18.9093 208.552 18.464 208.824 18.128C209.096 17.7867 209.47 17.5413 209.944 17.392C210.424 17.2373 210.971 17.16 211.584 17.16C212.171 17.16 212.691 17.2587 213.144 17.456C213.598 17.6533 213.952 17.968 214.208 18.4C214.464 18.8267 214.592 19.384 214.592 20.072V25H213.504ZM210.896 25.192C210.267 25.192 209.747 25.08 209.336 24.856C208.926 24.632 208.619 24.3413 208.416 23.984C208.214 23.6267 208.112 23.2507 208.112 22.856C208.112 22.3387 208.24 21.9173 208.496 21.592C208.758 21.2667 209.112 21.0293 209.56 20.88C210.008 20.7253 210.512 20.648 211.072 20.648C211.472 20.648 211.872 20.688 212.272 20.768C212.678 20.848 213.072 20.9573 213.456 21.096V21.88C213.136 21.752 212.774 21.6507 212.368 21.576C211.968 21.5013 211.6 21.464 211.264 21.464C210.752 21.464 210.32 21.5707 209.968 21.784C209.616 21.992 209.44 22.3493 209.44 22.856C209.44 23.2293 209.574 23.5493 209.84 23.816C210.112 24.0827 210.544 24.216 211.136 24.216C211.552 24.216 211.926 24.12 212.256 23.928C212.592 23.7307 212.856 23.4853 213.048 23.192C213.246 22.8987 213.344 22.6053 213.344 22.312H213.648C213.648 22.824 213.536 23.2987 213.312 23.736C213.094 24.1733 212.779 24.5253 212.368 24.792C211.958 25.0587 211.467 25.192 210.896 25.192ZM221.213 25.192C220.653 25.192 220.165 25.064 219.749 24.808C219.338 24.552 219.021 24.1787 218.797 23.688C218.573 23.192 218.461 22.5893 218.461 21.88H218.989C218.989 22.3547 219.088 22.7547 219.285 23.08C219.482 23.4053 219.738 23.6533 220.053 23.824C220.373 23.9893 220.712 24.072 221.069 24.072C221.453 24.072 221.821 23.9627 222.173 23.744C222.525 23.52 222.813 23.192 223.037 22.76C223.261 22.328 223.373 21.7947 223.373 21.16C223.373 20.552 223.269 20.032 223.061 19.6C222.858 19.168 222.584 18.8373 222.237 18.608C221.89 18.3787 221.506 18.264 221.085 18.264C220.722 18.264 220.381 18.352 220.061 18.528C219.741 18.704 219.482 18.9627 219.285 19.304C219.088 19.64 218.989 20.056 218.989 20.552H218.461C218.461 19.8107 218.584 19.1893 218.829 18.688C219.074 18.1813 219.408 17.8 219.829 17.544C220.25 17.288 220.722 17.16 221.245 17.16C221.842 17.16 222.4 17.32 222.917 17.64C223.434 17.96 223.853 18.4187 224.173 19.016C224.493 19.6133 224.653 20.328 224.653 21.16C224.653 22.0027 224.49 22.7253 224.165 23.328C223.845 23.9307 223.424 24.392 222.901 24.712C222.378 25.032 221.816 25.192 221.213 25.192ZM217.741 28.76V17.352H218.781L218.989 19.144V28.76H217.741ZM232.7 25V20.504C232.7 19.7733 232.524 19.2187 232.172 18.84C231.826 18.456 231.351 18.264 230.748 18.264C230.29 18.264 229.892 18.3893 229.556 18.64C229.22 18.8907 228.962 19.2507 228.78 19.72C228.599 20.184 228.508 20.7387 228.508 21.384H228.028C228.028 20.4933 228.146 19.7333 228.38 19.104C228.615 18.4747 228.956 17.9947 229.404 17.664C229.858 17.328 230.407 17.16 231.052 17.16C231.655 17.16 232.17 17.296 232.596 17.568C233.028 17.8347 233.359 18.2187 233.588 18.72C233.818 19.2213 233.932 19.816 233.932 20.504V25H232.7ZM227.26 25V14.088H228.508V25H227.26ZM29.032 45V36.168C29.032 35.6613 29.128 35.248 29.32 34.928C29.5173 34.6027 29.7787 34.3627 30.104 34.208C30.4347 34.0533 30.8027 33.976 31.208 33.976C31.4267 33.976 31.648 33.992 31.872 34.024C32.1013 34.056 32.328 34.104 32.552 34.168L32.312 35.16C32.152 35.096 31.992 35.048 31.832 35.016C31.6773 34.984 31.528 34.968 31.384 34.968C31.2133 34.968 31.0427 35 30.872 35.064C30.7013 35.128 30.56 35.248 30.448 35.424C30.336 35.6 30.28 35.8533 30.28 36.184V45H29.032ZM27.784 38.216V37.352H31.864V38.216H27.784ZM34.2604 45V37.336H35.5084V45H34.2604ZM35.1244 41.544C35.1244 40.5733 35.2177 39.768 35.4044 39.128C35.591 38.4827 35.863 38.0027 36.2204 37.688C36.583 37.368 37.023 37.208 37.5404 37.208C37.711 37.208 37.8657 37.2213 38.0044 37.248C38.1484 37.2693 38.2924 37.304 38.4364 37.352L38.3564 38.584C38.207 38.536 38.0444 38.496 37.8684 38.464C37.6924 38.4267 37.535 38.408 37.3964 38.408C36.943 38.408 36.5777 38.5387 36.3004 38.8C36.023 39.056 35.8204 39.4187 35.6924 39.888C35.5697 40.3573 35.5084 40.9093 35.5084 41.544H35.1244ZM42.9696 45.192C42.2816 45.192 41.6683 45.04 41.1296 44.736C40.5963 44.432 40.175 43.9813 39.8656 43.384C39.5563 42.7867 39.4016 42.0507 39.4016 41.176C39.4016 40.296 39.5563 39.56 39.8656 38.968C40.175 38.3707 40.5963 37.92 41.1296 37.616C41.6683 37.312 42.2816 37.16 42.9696 37.16C43.6523 37.16 44.2603 37.312 44.7936 37.616C45.3323 37.92 45.7536 38.3707 46.0576 38.968C46.367 39.56 46.5216 40.296 46.5216 41.176C46.5216 42.0507 46.367 42.7867 46.0576 43.384C45.7536 43.9813 45.3323 44.432 44.7936 44.736C44.2603 45.04 43.6523 45.192 42.9696 45.192ZM42.9376 44.104C43.4336 44.104 43.855 43.9867 44.2016 43.752C44.5483 43.512 44.8096 43.1733 44.9856 42.736C45.167 42.2987 45.2576 41.7787 45.2576 41.176C45.2576 40.264 45.0683 39.5467 44.6896 39.024C44.311 38.496 43.7483 38.232 43.0016 38.232C42.5003 38.232 42.0763 38.352 41.7296 38.592C41.3883 38.8267 41.127 39.1653 40.9456 39.608C40.7696 40.0453 40.6816 40.568 40.6816 41.176C40.6816 42.0773 40.871 42.792 41.2496 43.32C41.6336 43.8427 42.1963 44.104 42.9376 44.104ZM59.8636 45V40.504C59.8636 39.7733 59.6876 39.2187 59.3356 38.84C58.989 38.456 58.5196 38.264 57.9276 38.264C57.2343 38.264 56.7036 38.5333 56.3356 39.072C55.9676 39.6053 55.7836 40.344 55.7836 41.288H55.2076C55.2076 40.6 55.2743 39.9973 55.4076 39.48C55.5463 38.9627 55.7463 38.5333 56.0076 38.192C56.269 37.8453 56.5863 37.5867 56.9596 37.416C57.333 37.2453 57.757 37.16 58.2316 37.16C58.8343 37.16 59.349 37.296 59.7756 37.568C60.2076 37.8347 60.5383 38.2187 60.7676 38.72C60.997 39.2213 61.1116 39.816 61.1116 40.504V45H59.8636ZM49.1116 45V37.352H50.1836L50.3276 38.888C50.5676 38.3333 50.9036 37.9067 51.3356 37.608C51.773 37.3093 52.2956 37.16 52.9036 37.16C53.5063 37.16 54.021 37.296 54.4476 37.568C54.8796 37.8347 55.2103 38.2187 55.4396 38.72C55.669 39.2213 55.7836 39.816 55.7836 40.504V45H54.5516V40.504C54.5516 39.7733 54.3756 39.2187 54.0236 38.84C53.677 38.456 53.2023 38.264 52.5996 38.264C52.141 38.264 51.7436 38.3893 51.4076 38.64C51.0716 38.8907 50.813 39.2507 50.6316 39.72C50.4503 40.184 50.3596 40.7387 50.3596 41.384V45H49.1116ZM70.5492 45.192C70.1332 45.192 69.7599 45.112 69.4292 44.952C69.0986 44.792 68.8372 44.552 68.6452 44.232C68.4532 43.912 68.3572 43.512 68.3572 43.032V35.224H69.5892V43C69.5892 43.7893 69.9572 44.184 70.6932 44.184C70.9119 44.184 71.1226 44.16 71.3252 44.112C71.5332 44.064 71.7652 43.992 72.0212 43.896L72.1972 44.792C71.9252 44.9093 71.6532 45.0053 71.3812 45.08C71.1146 45.1547 70.8372 45.192 70.5492 45.192ZM67.1252 38.216V37.352H72.0052V38.216H67.1252ZM79.8129 45V40.504C79.8129 39.7733 79.6369 39.2187 79.2849 38.84C78.9382 38.456 78.4635 38.264 77.8609 38.264C77.4022 38.264 77.0049 38.3893 76.6689 38.64C76.3329 38.8907 76.0742 39.2507 75.8929 39.72C75.7115 40.184 75.6209 40.7387 75.6209 41.384H75.1409C75.1409 40.4933 75.2582 39.7333 75.4929 39.104C75.7275 38.4747 76.0689 37.9947 76.5169 37.664C76.9702 37.328 77.5195 37.16 78.1649 37.16C78.7675 37.16 79.2822 37.296 79.7089 37.568C80.1409 37.8347 80.4715 38.2187 80.7009 38.72C80.9302 39.2213 81.0449 39.816 81.0449 40.504V45H79.8129ZM74.3729 45V34.088H75.6209V45H74.3729ZM86.8451 45.192C86.1838 45.192 85.5918 45.024 85.0691 44.688C84.5518 44.3467 84.1411 43.8747 83.8371 43.272C83.5385 42.6693 83.3891 41.976 83.3891 41.192C83.3891 40.3547 83.5385 39.6347 83.8371 39.032C84.1358 38.4293 84.5438 37.968 85.0611 37.648C85.5838 37.3227 86.1785 37.16 86.8451 37.16C87.4265 37.16 87.9225 37.2773 88.3331 37.512C88.7438 37.7467 89.0745 38.064 89.3251 38.464C89.5758 38.864 89.7491 39.3173 89.8451 39.824C89.9465 40.3253 89.9758 40.8453 89.9331 41.384H84.3971V40.616H89.1091L88.7411 40.856C88.7571 40.5413 88.7385 40.2267 88.6851 39.912C88.6371 39.5973 88.5438 39.3093 88.4051 39.048C88.2665 38.7813 88.0718 38.568 87.8211 38.408C87.5705 38.248 87.2505 38.168 86.8611 38.168C86.3705 38.168 85.9598 38.2933 85.6291 38.544C85.2985 38.7947 85.0505 39.1253 84.8851 39.536C84.7198 39.9413 84.6371 40.3813 84.6371 40.856V41.368C84.6371 41.9013 84.7171 42.3787 84.8771 42.8C85.0425 43.2213 85.2878 43.5547 85.6131 43.8C85.9385 44.0453 86.3491 44.168 86.8451 44.168C87.3411 44.168 87.7491 44.048 88.0691 43.808C88.3891 43.568 88.5838 43.2133 88.6531 42.744H89.9491C89.8691 43.2507 89.6878 43.688 89.4051 44.056C89.1225 44.4187 88.7625 44.6987 88.3251 44.896C87.8878 45.0933 87.3945 45.192 86.8451 45.192ZM100.173 45.224C99.2608 45.224 98.4661 45.008 97.7888 44.576C97.1168 44.1387 96.5941 43.5147 96.2208 42.704C95.8474 41.8933 95.6608 40.92 95.6608 39.784C95.6608 38.6107 95.8528 37.6267 96.2368 36.832C96.6261 36.032 97.1594 35.4293 97.8368 35.024C98.5194 34.6133 99.2981 34.408 100.173 34.408C101.383 34.408 102.327 34.7013 103.005 35.288C103.687 35.8747 104.125 36.6373 104.317 37.576L102.301 37.944C102.135 37.4 101.871 36.96 101.509 36.624C101.146 36.288 100.701 36.12 100.173 36.12C99.7088 36.12 99.2901 36.256 98.9168 36.528C98.5434 36.7947 98.2448 37.2 98.0208 37.744C97.8021 38.288 97.6928 38.968 97.6928 39.784C97.6928 40.552 97.7888 41.2133 97.9808 41.768C98.1781 42.3227 98.4608 42.7493 98.8288 43.048C99.1968 43.3467 99.6448 43.496 100.173 43.496C100.85 43.496 101.373 43.3173 101.741 42.96C102.114 42.5973 102.301 42.136 102.301 41.576H104.317C104.317 42.3493 104.149 43.008 103.813 43.552C103.482 44.0907 103.007 44.504 102.389 44.792C101.77 45.08 101.031 45.224 100.173 45.224ZM110.665 45.224C109.743 45.224 108.927 45.0213 108.217 44.616C107.513 44.2107 106.961 43.6053 106.561 42.8C106.161 41.9947 105.961 40.9947 105.961 39.8C105.961 38.584 106.161 37.5787 106.561 36.784C106.961 35.984 107.513 35.3893 108.217 35C108.927 34.6053 109.743 34.408 110.665 34.408C111.593 34.408 112.412 34.6107 113.121 35.016C113.831 35.416 114.385 36.016 114.785 36.816C115.185 37.616 115.385 38.6107 115.385 39.8C115.385 41.0107 115.185 42.0187 114.785 42.824C114.385 43.6293 113.831 44.232 113.121 44.632C112.412 45.0267 111.593 45.224 110.665 45.224ZM110.665 43.512C111.513 43.512 112.185 43.192 112.681 42.552C113.183 41.912 113.433 40.9893 113.433 39.784C113.433 38.6213 113.183 37.7173 112.681 37.072C112.185 36.4267 111.513 36.104 110.665 36.104C109.833 36.104 109.167 36.4293 108.665 37.08C108.164 37.7253 107.913 38.632 107.913 39.8C107.913 41 108.164 41.92 108.665 42.56C109.167 43.1947 109.833 43.512 110.665 43.512ZM116.643 45L120.179 34.616H122.547L125.939 45H123.955L123.235 42.76H119.379L118.643 45H116.643ZM119.859 41.336H122.787L121.331 36.872L119.859 41.336ZM125.844 36.248V34.616H134.164V36.248H130.524L130.948 35.816V45H129.06V35.816L129.484 36.248H125.844ZM135.896 45V34.616H137.784V45H135.896ZM140.899 34.616H142.963L147.683 42.024H147.539V34.616H149.427V45H147.507L142.483 37.144H142.787V45H140.899V34.616ZM156.352 45.224C155.504 45.224 154.739 45 154.056 44.552C153.373 44.104 152.829 43.48 152.424 42.68C152.024 41.8747 151.824 40.936 151.824 39.864C151.824 39.016 151.947 38.256 152.192 37.584C152.443 36.912 152.789 36.3387 153.232 35.864C153.675 35.3893 154.195 35.0293 154.792 34.784C155.389 34.5333 156.037 34.408 156.736 34.408C157.707 34.408 158.52 34.6187 159.176 35.04C159.837 35.4613 160.352 36.1253 160.72 37.032L158.784 37.48C158.512 37.0373 158.197 36.7013 157.84 36.472C157.488 36.2373 157.088 36.12 156.64 36.12C156.128 36.12 155.661 36.272 155.24 36.576C154.819 36.8747 154.483 37.304 154.232 37.864C153.981 38.424 153.856 39.0907 153.856 39.864C153.856 40.5893 153.965 41.224 154.184 41.768C154.408 42.312 154.72 42.736 155.12 43.04C155.52 43.344 155.984 43.496 156.512 43.496C156.96 43.496 157.36 43.3973 157.712 43.2C158.069 42.9973 158.349 42.7093 158.552 42.336C158.76 41.9627 158.864 41.512 158.864 40.984H159.28C159.28 41.848 159.176 42.5973 158.968 43.232C158.765 43.8667 158.448 44.3573 158.016 44.704C157.584 45.0507 157.029 45.224 156.352 45.224ZM159.136 45L158.864 42.712V40.92L156.528 40.872V39.672H160.672V45H159.136ZM167.164 45.224C166.444 45.224 165.78 45.0987 165.172 44.848C164.569 44.5973 164.079 44.216 163.7 43.704C163.327 43.192 163.127 42.5413 163.1 41.752H164.956C164.956 42.152 165.055 42.48 165.252 42.736C165.449 42.992 165.713 43.184 166.044 43.312C166.38 43.4347 166.748 43.496 167.148 43.496C167.532 43.496 167.873 43.4453 168.172 43.344C168.476 43.2427 168.713 43.0987 168.884 42.912C169.06 42.72 169.148 42.4933 169.148 42.232C169.148 41.8853 169.041 41.6133 168.828 41.416C168.62 41.2187 168.284 41.0373 167.82 40.872L165.772 40.056C164.972 39.7413 164.359 39.376 163.932 38.96C163.505 38.544 163.292 37.9707 163.292 37.24C163.292 36.3973 163.625 35.7147 164.292 35.192C164.959 34.6693 165.889 34.408 167.084 34.408C168.247 34.408 169.145 34.68 169.78 35.224C170.415 35.7627 170.775 36.5147 170.86 37.48H169.004C168.935 37.0693 168.748 36.7413 168.444 36.496C168.14 36.2453 167.687 36.12 167.084 36.12C166.551 36.12 166.129 36.232 165.82 36.456C165.511 36.6747 165.356 36.952 165.356 37.288C165.356 37.576 165.452 37.8053 165.644 37.976C165.841 38.1413 166.145 38.3013 166.556 38.456L168.828 39.336C169.596 39.6347 170.185 40.0107 170.596 40.464C171.007 40.9173 171.212 41.4853 171.212 42.168C171.212 42.792 171.055 43.3333 170.74 43.792C170.425 44.2453 169.967 44.5973 169.364 44.848C168.761 45.0987 168.028 45.224 167.164 45.224ZM181.468 45.192C180.908 45.192 180.42 45.064 180.004 44.808C179.593 44.552 179.276 44.1787 179.052 43.688C178.828 43.192 178.716 42.5893 178.716 41.88H179.244C179.244 42.3547 179.343 42.7547 179.54 43.08C179.737 43.4053 179.993 43.6533 180.308 43.824C180.628 43.9893 180.967 44.072 181.324 44.072C181.708 44.072 182.076 43.9627 182.428 43.744C182.78 43.52 183.068 43.192 183.292 42.76C183.516 42.328 183.628 41.7947 183.628 41.16C183.628 40.552 183.524 40.032 183.316 39.6C183.113 39.168 182.839 38.8373 182.492 38.608C182.145 38.3787 181.761 38.264 181.34 38.264C180.977 38.264 180.636 38.352 180.316 38.528C179.996 38.704 179.737 38.9627 179.54 39.304C179.343 39.64 179.244 40.056 179.244 40.552H178.716C178.716 39.8107 178.839 39.1893 179.084 38.688C179.329 38.1813 179.663 37.8 180.084 37.544C180.505 37.288 180.977 37.16 181.5 37.16C182.097 37.16 182.655 37.32 183.172 37.64C183.689 37.96 184.108 38.4187 184.428 39.016C184.748 39.6133 184.908 40.328 184.908 41.16C184.908 42.0027 184.745 42.7253 184.42 43.328C184.1 43.9307 183.679 44.392 183.156 44.712C182.633 45.032 182.071 45.192 181.468 45.192ZM177.996 48.76V37.352H179.036L179.244 39.144V48.76H177.996ZM192.251 45L192.091 43.32V40.04C192.091 39.352 191.945 38.8587 191.651 38.56C191.358 38.256 190.918 38.104 190.331 38.104C190.001 38.104 189.699 38.152 189.427 38.248C189.161 38.344 188.947 38.4933 188.787 38.696C188.633 38.8933 188.555 39.1493 188.555 39.464H187.163C187.163 38.9093 187.299 38.464 187.571 38.128C187.843 37.7867 188.217 37.5413 188.691 37.392C189.171 37.2373 189.718 37.16 190.331 37.16C190.918 37.16 191.438 37.2587 191.891 37.456C192.345 37.6533 192.699 37.968 192.955 38.4C193.211 38.8267 193.339 39.384 193.339 40.072V45H192.251ZM189.643 45.192C189.014 45.192 188.494 45.08 188.083 44.856C187.673 44.632 187.366 44.3413 187.163 43.984C186.961 43.6267 186.859 43.2507 186.859 42.856C186.859 42.3387 186.987 41.9173 187.243 41.592C187.505 41.2667 187.859 41.0293 188.307 40.88C188.755 40.7253 189.259 40.648 189.819 40.648C190.219 40.648 190.619 40.688 191.019 40.768C191.425 40.848 191.819 40.9573 192.203 41.096V41.88C191.883 41.752 191.521 41.6507 191.115 41.576C190.715 41.5013 190.347 41.464 190.011 41.464C189.499 41.464 189.067 41.5707 188.715 41.784C188.363 41.992 188.187 42.3493 188.187 42.856C188.187 43.2293 188.321 43.5493 188.587 43.816C188.859 44.0827 189.291 44.216 189.883 44.216C190.299 44.216 190.673 44.12 191.003 43.928C191.339 43.7307 191.603 43.4853 191.795 43.192C191.993 42.8987 192.091 42.6053 192.091 42.312H192.395C192.395 42.824 192.283 43.2987 192.059 43.736C191.841 44.1733 191.526 44.5253 191.115 44.792C190.705 45.0587 190.214 45.192 189.643 45.192ZM199.192 48.936C198.408 48.936 197.728 48.824 197.152 48.6C196.576 48.3813 196.128 48.0853 195.808 47.712C195.493 47.344 195.336 46.936 195.336 46.488C195.336 45.896 195.552 45.4427 195.984 45.128C196.421 44.8187 196.984 44.664 197.672 44.664L198.36 45.096C197.784 45.096 197.339 45.216 197.024 45.456C196.709 45.696 196.552 46.024 196.552 46.44C196.552 46.856 196.776 47.208 197.224 47.496C197.672 47.784 198.328 47.928 199.192 47.928C199.832 47.928 200.392 47.8347 200.872 47.648C201.357 47.4667 201.733 47.2267 202 46.928C202.272 46.6347 202.408 46.3173 202.408 45.976C202.408 45.736 202.32 45.528 202.144 45.352C201.968 45.1813 201.699 45.096 201.336 45.096H198.36C197.843 45.096 197.395 45.0187 197.016 44.864C196.643 44.704 196.355 44.496 196.152 44.24C195.949 43.984 195.848 43.704 195.848 43.4C195.848 43.08 195.939 42.808 196.12 42.584C196.301 42.36 196.536 42.1893 196.824 42.072C197.117 41.9547 197.432 41.896 197.768 41.896L198.008 42.36C197.848 42.36 197.685 42.3973 197.52 42.472C197.36 42.5413 197.224 42.648 197.112 42.792C197.005 42.9307 196.952 43.1067 196.952 43.32C196.952 43.5653 197.053 43.7707 197.256 43.936C197.459 44.1013 197.827 44.184 198.36 44.184H201.336C202.056 44.184 202.621 44.336 203.032 44.64C203.448 44.944 203.656 45.368 203.656 45.912C203.656 46.4133 203.477 46.8933 203.12 47.352C202.763 47.816 202.251 48.1947 201.584 48.488C200.917 48.7867 200.12 48.936 199.192 48.936ZM199.416 42.76C198.829 42.76 198.299 42.6427 197.824 42.408C197.355 42.1733 196.981 41.8453 196.704 41.424C196.432 41.0027 196.296 40.5147 196.296 39.96C196.296 39.4 196.432 38.9093 196.704 38.488C196.981 38.0667 197.355 37.7413 197.824 37.512C198.299 37.2773 198.829 37.16 199.416 37.16C199.987 37.16 200.504 37.2773 200.968 37.512C201.437 37.7413 201.811 38.0667 202.088 38.488C202.365 38.9093 202.504 39.4 202.504 39.96C202.504 40.5147 202.365 41.0027 202.088 41.424C201.811 41.8453 201.437 42.1733 200.968 42.408C200.504 42.6427 199.987 42.76 199.416 42.76ZM199.416 41.864C200.003 41.864 200.459 41.6827 200.784 41.32C201.109 40.9573 201.272 40.504 201.272 39.96C201.272 39.4 201.109 38.9467 200.784 38.6C200.459 38.248 200.003 38.072 199.416 38.072C198.835 38.072 198.376 38.248 198.04 38.6C197.709 38.9467 197.544 39.4 197.544 39.96C197.544 40.504 197.709 40.9573 198.04 41.32C198.376 41.6827 198.835 41.864 199.416 41.864ZM201.928 38.376L201.336 38.136C201.336 37.688 201.424 37.296 201.6 36.96C201.776 36.6187 202.027 36.3547 202.352 36.168C202.677 35.976 203.064 35.88 203.512 35.88L203.416 37.112C202.936 37.112 202.568 37.216 202.312 37.424C202.056 37.6267 201.928 37.944 201.928 38.376ZM208.335 45.192C207.674 45.192 207.082 45.024 206.559 44.688C206.042 44.3467 205.631 43.8747 205.327 43.272C205.028 42.6693 204.879 41.976 204.879 41.192C204.879 40.3547 205.028 39.6347 205.327 39.032C205.626 38.4293 206.034 37.968 206.551 37.648C207.074 37.3227 207.668 37.16 208.335 37.16C208.916 37.16 209.412 37.2773 209.823 37.512C210.234 37.7467 210.564 38.064 210.815 38.464C211.066 38.864 211.239 39.3173 211.335 39.824C211.436 40.3253 211.466 40.8453 211.423 41.384H205.887V40.616H210.599L210.231 40.856C210.247 40.5413 210.228 40.2267 210.175 39.912C210.127 39.5973 210.034 39.3093 209.895 39.048C209.756 38.7813 209.562 38.568 209.311 38.408C209.06 38.248 208.74 38.168 208.351 38.168C207.86 38.168 207.45 38.2933 207.119 38.544C206.788 38.7947 206.54 39.1253 206.375 39.536C206.21 39.9413 206.127 40.3813 206.127 40.856V41.368C206.127 41.9013 206.207 42.3787 206.367 42.8C206.532 43.2213 206.778 43.5547 207.103 43.8C207.428 44.0453 207.839 44.168 208.335 44.168C208.831 44.168 209.239 44.048 209.559 43.808C209.879 43.568 210.074 43.2133 210.143 42.744H211.439C211.359 43.2507 211.178 43.688 210.895 44.056C210.612 44.4187 210.252 44.6987 209.815 44.896C209.378 45.0933 208.884 45.192 208.335 45.192ZM212.922 44.256C212.922 44.0053 213.01 43.7893 213.186 43.608C213.362 43.4267 213.583 43.336 213.85 43.336C214.117 43.336 214.343 43.4267 214.53 43.608C214.717 43.7893 214.81 44.0053 214.81 44.256C214.81 44.5067 214.717 44.7173 214.53 44.888C214.343 45.0587 214.117 45.144 213.85 45.144C213.583 45.144 213.362 45.0587 213.186 44.888C213.01 44.712 212.922 44.5013 212.922 44.256ZM28.616 54.952H31.56C32.5733 54.952 33.4533 55.16 34.2 55.576C34.9467 55.9867 35.5253 56.568 35.936 57.32C36.3467 58.072 36.552 58.9573 36.552 59.976C36.552 60.984 36.3467 61.864 35.936 62.616C35.5253 63.368 34.9467 63.9547 34.2 64.376C33.4533 64.792 32.5733 65 31.56 65H28.616V54.952ZM29.864 56.056V63.912H31.56C32.3173 63.912 32.968 63.7413 33.512 63.4C34.0613 63.0587 34.4827 62.592 34.776 62C35.0747 61.4027 35.224 60.728 35.224 59.976C35.224 59.2187 35.0747 58.5467 34.776 57.96C34.4827 57.368 34.0613 56.904 33.512 56.568C32.968 56.2267 32.3173 56.056 31.56 56.056H29.864ZM42.1065 65.192C41.4185 65.192 40.8052 65.04 40.2665 64.736C39.7332 64.432 39.3118 63.9813 39.0025 63.384C38.6932 62.7867 38.5385 62.0507 38.5385 61.176C38.5385 60.296 38.6932 59.56 39.0025 58.968C39.3118 58.3707 39.7332 57.92 40.2665 57.616C40.8052 57.312 41.4185 57.16 42.1065 57.16C42.7892 57.16 43.3972 57.312 43.9305 57.616C44.4692 57.92 44.8905 58.3707 45.1945 58.968C45.5038 59.56 45.6585 60.296 45.6585 61.176C45.6585 62.0507 45.5038 62.7867 45.1945 63.384C44.8905 63.9813 44.4692 64.432 43.9305 64.736C43.3972 65.04 42.7892 65.192 42.1065 65.192ZM42.0745 64.104C42.5705 64.104 42.9918 63.9867 43.3385 63.752C43.6852 63.512 43.9465 63.1733 44.1225 62.736C44.3038 62.2987 44.3945 61.7787 44.3945 61.176C44.3945 60.264 44.2052 59.5467 43.8265 59.024C43.4478 58.496 42.8852 58.232 42.1385 58.232C41.6372 58.232 41.2132 58.352 40.8665 58.592C40.5252 58.8267 40.2638 59.1653 40.0825 59.608C39.9065 60.0453 39.8185 60.568 39.8185 61.176C39.8185 62.0773 40.0078 62.792 40.3865 63.32C40.7705 63.8427 41.3332 64.104 42.0745 64.104ZM50.9414 57.352H52.3334L54.8294 63.912H54.5414L56.4774 57.352H57.7574L54.8774 66.536C54.6374 67.304 54.3174 67.896 53.9174 68.312C53.5174 68.728 53.0054 68.936 52.3814 68.936C52.0454 68.936 51.7254 68.888 51.4214 68.792C51.1227 68.696 50.8134 68.5573 50.4934 68.376V67.224C50.776 67.448 51.048 67.608 51.3094 67.704C51.576 67.8 51.8534 67.848 52.1414 67.848C52.4614 67.848 52.728 67.7467 52.9414 67.544C53.16 67.3413 53.3414 67.08 53.4854 66.76C53.6294 66.4453 53.752 66.1147 53.8534 65.768L54.0774 65L50.9414 57.352ZM62.5865 65.192C61.8985 65.192 61.2852 65.04 60.7465 64.736C60.2132 64.432 59.7918 63.9813 59.4825 63.384C59.1732 62.7867 59.0185 62.0507 59.0185 61.176C59.0185 60.296 59.1732 59.56 59.4825 58.968C59.7918 58.3707 60.2132 57.92 60.7465 57.616C61.2852 57.312 61.8985 57.16 62.5865 57.16C63.2692 57.16 63.8772 57.312 64.4105 57.616C64.9492 57.92 65.3705 58.3707 65.6745 58.968C65.9838 59.56 66.1385 60.296 66.1385 61.176C66.1385 62.0507 65.9838 62.7867 65.6745 63.384C65.3705 63.9813 64.9492 64.432 64.4105 64.736C63.8772 65.04 63.2692 65.192 62.5865 65.192ZM62.5545 64.104C63.0505 64.104 63.4718 63.9867 63.8185 63.752C64.1652 63.512 64.4265 63.1733 64.6025 62.736C64.7838 62.2987 64.8745 61.7787 64.8745 61.176C64.8745 60.264 64.6852 59.5467 64.3065 59.024C63.9278 58.496 63.3652 58.232 62.6185 58.232C62.1172 58.232 61.6932 58.352 61.3465 58.592C61.0052 58.8267 60.7438 59.1653 60.5625 59.608C60.3865 60.0453 60.2985 60.568 60.2985 61.176C60.2985 62.0773 60.4878 62.792 60.8665 63.32C61.2505 63.8427 61.8132 64.104 62.5545 64.104ZM73.9285 57.336H75.1765V65H73.9285V57.336ZM68.5045 57.336H69.7525V62.104C69.7525 62.744 69.9072 63.2293 70.2165 63.56C70.5312 63.8907 70.9792 64.056 71.5605 64.056C72.0405 64.056 72.4565 63.928 72.8085 63.672C73.1658 63.416 73.4405 63.064 73.6325 62.616C73.8298 62.1627 73.9285 61.6453 73.9285 61.064H74.3925C74.3925 61.9227 74.2672 62.656 74.0165 63.264C73.7712 63.872 73.4218 64.3387 72.9685 64.664C72.5205 64.984 71.9925 65.144 71.3845 65.144C70.8085 65.144 70.3045 65.0373 69.8725 64.824C69.4405 64.6107 69.1045 64.288 68.8645 63.856C68.6245 63.4187 68.5045 62.8667 68.5045 62.2V57.336ZM81.2049 57.352H82.5009L84.4529 63.736H84.2929L86.1969 57.72H87.2369L89.1249 63.752H88.9809L90.9329 57.352H92.1809L89.6689 65H88.4529L86.5969 59.352H86.7889L84.9489 65H83.7329L81.2049 57.352ZM99.0226 65L98.8626 63.32V60.04C98.8626 59.352 98.716 58.8587 98.4226 58.56C98.1293 58.256 97.6893 58.104 97.1026 58.104C96.772 58.104 96.4706 58.152 96.1986 58.248C95.932 58.344 95.7186 58.4933 95.5586 58.696C95.404 58.8933 95.3266 59.1493 95.3266 59.464H93.9346C93.9346 58.9093 94.0706 58.464 94.3426 58.128C94.6146 57.7867 94.988 57.5413 95.4626 57.392C95.9426 57.2373 96.4893 57.16 97.1026 57.16C97.6893 57.16 98.2093 57.2587 98.6626 57.456C99.116 57.6533 99.4706 57.968 99.7266 58.4C99.9826 58.8267 100.111 59.384 100.111 60.072V65H99.0226ZM96.4146 65.192C95.7853 65.192 95.2653 65.08 94.8546 64.856C94.444 64.632 94.1373 64.3413 93.9346 63.984C93.732 63.6267 93.6306 63.2507 93.6306 62.856C93.6306 62.3387 93.7586 61.9173 94.0146 61.592C94.276 61.2667 94.6306 61.0293 95.0786 60.88C95.5266 60.7253 96.0306 60.648 96.5906 60.648C96.9906 60.648 97.3906 60.688 97.7906 60.768C98.196 60.848 98.5906 60.9573 98.9746 61.096V61.88C98.6546 61.752 98.292 61.6507 97.8866 61.576C97.4866 61.5013 97.1186 61.464 96.7826 61.464C96.2706 61.464 95.8386 61.5707 95.4866 61.784C95.1346 61.992 94.9586 62.3493 94.9586 62.856C94.9586 63.2293 95.092 63.5493 95.3586 63.816C95.6306 64.0827 96.0626 64.216 96.6546 64.216C97.0706 64.216 97.444 64.12 97.7746 63.928C98.1106 63.7307 98.3746 63.4853 98.5666 63.192C98.764 62.8987 98.8626 62.6053 98.8626 62.312H99.1666C99.1666 62.824 99.0546 63.2987 98.8306 63.736C98.612 64.1733 98.2973 64.5253 97.8866 64.792C97.476 65.0587 96.9853 65.192 96.4146 65.192ZM108.699 65V60.504C108.699 59.7733 108.523 59.2187 108.171 58.84C107.824 58.456 107.35 58.264 106.747 58.264C106.288 58.264 105.891 58.3893 105.555 58.64C105.219 58.8907 104.96 59.2507 104.779 59.72C104.598 60.184 104.507 60.7387 104.507 61.384H104.027C104.027 60.4933 104.144 59.7333 104.379 59.104C104.614 58.4747 104.955 57.9947 105.403 57.664C105.856 57.328 106.406 57.16 107.051 57.16C107.654 57.16 108.168 57.296 108.595 57.568C109.027 57.8347 109.358 58.2187 109.587 58.72C109.816 59.2213 109.931 59.816 109.931 60.504V65H108.699ZM103.259 65V57.352H104.331L104.507 59.112V65H103.259ZM115.427 65.192C115.011 65.192 114.638 65.112 114.307 64.952C113.977 64.792 113.715 64.552 113.523 64.232C113.331 63.912 113.235 63.512 113.235 63.032V55.224H114.467V63C114.467 63.7893 114.835 64.184 115.571 64.184C115.79 64.184 116.001 64.16 116.203 64.112C116.411 64.064 116.643 63.992 116.899 63.896L117.075 64.792C116.803 64.9093 116.531 65.0053 116.259 65.08C115.993 65.1547 115.715 65.192 115.427 65.192ZM112.003 58.216V57.352H116.883V58.216H112.003ZM125.56 65.192C125.144 65.192 124.771 65.112 124.44 64.952C124.109 64.792 123.848 64.552 123.656 64.232C123.464 63.912 123.368 63.512 123.368 63.032V55.224H124.6V63C124.6 63.7893 124.968 64.184 125.704 64.184C125.923 64.184 126.133 64.16 126.336 64.112C126.544 64.064 126.776 63.992 127.032 63.896L127.208 64.792C126.936 64.9093 126.664 65.0053 126.392 65.08C126.125 65.1547 125.848 65.192 125.56 65.192ZM122.136 58.216V57.352H127.016V58.216H122.136ZM132.152 65.192C131.464 65.192 130.85 65.04 130.312 64.736C129.778 64.432 129.357 63.9813 129.048 63.384C128.738 62.7867 128.584 62.0507 128.584 61.176C128.584 60.296 128.738 59.56 129.048 58.968C129.357 58.3707 129.778 57.92 130.312 57.616C130.85 57.312 131.464 57.16 132.152 57.16C132.834 57.16 133.442 57.312 133.976 57.616C134.514 57.92 134.936 58.3707 135.24 58.968C135.549 59.56 135.704 60.296 135.704 61.176C135.704 62.0507 135.549 62.7867 135.24 63.384C134.936 63.9813 134.514 64.432 133.976 64.736C133.442 65.04 132.834 65.192 132.152 65.192ZM132.12 64.104C132.616 64.104 133.037 63.9867 133.384 63.752C133.73 63.512 133.992 63.1733 134.168 62.736C134.349 62.2987 134.44 61.7787 134.44 61.176C134.44 60.264 134.25 59.5467 133.872 59.024C133.493 58.496 132.93 58.232 132.184 58.232C131.682 58.232 131.258 58.352 130.912 58.592C130.57 58.8267 130.309 59.1653 130.128 59.608C129.952 60.0453 129.864 60.568 129.864 61.176C129.864 62.0773 130.053 62.792 130.432 63.32C130.816 63.8427 131.378 64.104 132.12 64.104ZM142.25 65V54.088H143.498V65H142.25ZM143.306 60.616L147.21 57.352H148.954L143.306 61.944V60.616ZM147.594 65L143.962 60.168L145.226 59.944L149.13 65H147.594ZM156.866 65V60.504C156.866 59.7733 156.69 59.2187 156.338 58.84C155.991 58.456 155.517 58.264 154.914 58.264C154.455 58.264 154.058 58.3893 153.722 58.64C153.386 58.8907 153.127 59.2507 152.946 59.72C152.765 60.184 152.674 60.7387 152.674 61.384H152.194C152.194 60.4933 152.311 59.7333 152.546 59.104C152.781 58.4747 153.122 57.9947 153.57 57.664C154.023 57.328 154.573 57.16 155.218 57.16C155.821 57.16 156.335 57.296 156.762 57.568C157.194 57.8347 157.525 58.2187 157.754 58.72C157.983 59.2213 158.098 59.816 158.098 60.504V65H156.866ZM151.426 65V57.352H152.498L152.674 59.112V65H151.426ZM164.01 65.192C163.322 65.192 162.709 65.04 162.17 64.736C161.637 64.432 161.216 63.9813 160.906 63.384C160.597 62.7867 160.442 62.0507 160.442 61.176C160.442 60.296 160.597 59.56 160.906 58.968C161.216 58.3707 161.637 57.92 162.17 57.616C162.709 57.312 163.322 57.16 164.01 57.16C164.693 57.16 165.301 57.312 165.834 57.616C166.373 57.92 166.794 58.3707 167.098 58.968C167.408 59.56 167.562 60.296 167.562 61.176C167.562 62.0507 167.408 62.7867 167.098 63.384C166.794 63.9813 166.373 64.432 165.834 64.736C165.301 65.04 164.693 65.192 164.01 65.192ZM163.978 64.104C164.474 64.104 164.896 63.9867 165.242 63.752C165.589 63.512 165.85 63.1733 166.026 62.736C166.208 62.2987 166.298 61.7787 166.298 61.176C166.298 60.264 166.109 59.5467 165.73 59.024C165.352 58.496 164.789 58.232 164.042 58.232C163.541 58.232 163.117 58.352 162.77 58.592C162.429 58.8267 162.168 59.1653 161.986 59.608C161.81 60.0453 161.722 60.568 161.722 61.176C161.722 62.0773 161.912 62.792 162.29 63.32C162.674 63.8427 163.237 64.104 163.978 64.104ZM168.824 57.352H170.12L172.072 63.736H171.912L173.816 57.72H174.856L176.744 63.752H176.6L178.552 57.352H179.8L177.288 65H176.072L174.216 59.352H174.408L172.568 65H171.352L168.824 57.352ZM184.535 57.352H185.831L187.783 63.736H187.623L189.527 57.72H190.567L192.455 63.752H192.311L194.263 57.352H195.511L192.999 65H191.783L189.927 59.352H190.119L188.279 65H187.063L184.535 57.352ZM203.057 65V60.504C203.057 59.7733 202.881 59.2187 202.529 58.84C202.182 58.456 201.707 58.264 201.105 58.264C200.646 58.264 200.249 58.3893 199.913 58.64C199.577 58.8907 199.318 59.2507 199.137 59.72C198.955 60.184 198.865 60.7387 198.865 61.384H198.385C198.385 60.4933 198.502 59.7333 198.737 59.104C198.971 58.4747 199.313 57.9947 199.761 57.664C200.214 57.328 200.763 57.16 201.409 57.16C202.011 57.16 202.526 57.296 202.953 57.568C203.385 57.8347 203.715 58.2187 203.945 58.72C204.174 59.2213 204.289 59.816 204.289 60.504V65H203.057ZM197.617 65V54.088H198.865V65H197.617ZM210.089 65.192C209.428 65.192 208.836 65.024 208.313 64.688C207.796 64.3467 207.385 63.8747 207.081 63.272C206.782 62.6693 206.633 61.976 206.633 61.192C206.633 60.3547 206.782 59.6347 207.081 59.032C207.38 58.4293 207.788 57.968 208.305 57.648C208.828 57.3227 209.422 57.16 210.089 57.16C210.67 57.16 211.166 57.2773 211.577 57.512C211.988 57.7467 212.318 58.064 212.569 58.464C212.82 58.864 212.993 59.3173 213.089 59.824C213.19 60.3253 213.22 60.8453 213.177 61.384H207.641V60.616H212.353L211.985 60.856C212.001 60.5413 211.982 60.2267 211.929 59.912C211.881 59.5973 211.788 59.3093 211.649 59.048C211.51 58.7813 211.316 58.568 211.065 58.408C210.814 58.248 210.494 58.168 210.105 58.168C209.614 58.168 209.204 58.2933 208.873 58.544C208.542 58.7947 208.294 59.1253 208.129 59.536C207.964 59.9413 207.881 60.3813 207.881 60.856V61.368C207.881 61.9013 207.961 62.3787 208.121 62.8C208.286 63.2213 208.532 63.5547 208.857 63.8C209.182 64.0453 209.593 64.168 210.089 64.168C210.585 64.168 210.993 64.048 211.313 63.808C211.633 63.568 211.828 63.2133 211.897 62.744H213.193C213.113 63.2507 212.932 63.688 212.649 64.056C212.366 64.4187 212.006 64.6987 211.569 64.896C211.132 65.0933 210.638 65.192 210.089 65.192ZM215.812 65V57.336H217.06V65H215.812ZM216.676 61.544C216.676 60.5733 216.769 59.768 216.956 59.128C217.142 58.4827 217.414 58.0027 217.772 57.688C218.134 57.368 218.574 57.208 219.092 57.208C219.262 57.208 219.417 57.2213 219.556 57.248C219.7 57.2693 219.844 57.304 219.988 57.352L219.908 58.584C219.758 58.536 219.596 58.496 219.42 58.464C219.244 58.4267 219.086 58.408 218.948 58.408C218.494 58.408 218.129 58.5387 217.852 58.8C217.574 59.056 217.372 59.4187 217.244 59.888C217.121 60.3573 217.06 60.9093 217.06 61.544H216.676ZM224.409 65.192C223.748 65.192 223.156 65.024 222.633 64.688C222.116 64.3467 221.705 63.8747 221.401 63.272C221.102 62.6693 220.953 61.976 220.953 61.192C220.953 60.3547 221.102 59.6347 221.401 59.032C221.7 58.4293 222.108 57.968 222.625 57.648C223.148 57.3227 223.742 57.16 224.409 57.16C224.99 57.16 225.486 57.2773 225.897 57.512C226.308 57.7467 226.638 58.064 226.889 58.464C227.14 58.864 227.313 59.3173 227.409 59.824C227.51 60.3253 227.54 60.8453 227.497 61.384H221.961V60.616H226.673L226.305 60.856C226.321 60.5413 226.302 60.2267 226.249 59.912C226.201 59.5973 226.108 59.3093 225.969 59.048C225.83 58.7813 225.636 58.568 225.385 58.408C225.134 58.248 224.814 58.168 224.425 58.168C223.934 58.168 223.524 58.2933 223.193 58.544C222.862 58.7947 222.614 59.1253 222.449 59.536C222.284 59.9413 222.201 60.3813 222.201 60.856V61.368C222.201 61.9013 222.281 62.3787 222.441 62.8C222.606 63.2213 222.852 63.5547 223.177 63.8C223.502 64.0453 223.913 64.168 224.409 64.168C224.905 64.168 225.313 64.048 225.633 63.808C225.953 63.568 226.148 63.2133 226.217 62.744H227.513C227.433 63.2507 227.252 63.688 226.969 64.056C226.686 64.4187 226.326 64.6987 225.889 64.896C225.452 65.0933 224.958 65.192 224.409 65.192ZM27.352 77.352H28.744L31.24 83.912H30.952L32.888 77.352H34.168L31.288 86.536C31.048 87.304 30.728 87.896 30.328 88.312C29.928 88.728 29.416 88.936 28.792 88.936C28.456 88.936 28.136 88.888 27.832 88.792C27.5333 88.696 27.224 88.5573 26.904 88.376V87.224C27.1867 87.448 27.4587 87.608 27.72 87.704C27.9867 87.8 28.264 87.848 28.552 87.848C28.872 87.848 29.1387 87.7467 29.352 87.544C29.5707 87.3413 29.752 87.08 29.896 86.76C30.04 86.4453 30.1627 86.1147 30.264 85.768L30.488 85L27.352 77.352ZM38.9971 85.192C38.3091 85.192 37.6958 85.04 37.1571 84.736C36.6238 84.432 36.2025 83.9813 35.8931 83.384C35.5838 82.7867 35.4291 82.0507 35.4291 81.176C35.4291 80.296 35.5838 79.56 35.8931 78.968C36.2025 78.3707 36.6238 77.92 37.1571 77.616C37.6958 77.312 38.3091 77.16 38.9971 77.16C39.6798 77.16 40.2878 77.312 40.8211 77.616C41.3598 77.92 41.7811 78.3707 42.0851 78.968C42.3945 79.56 42.5491 80.296 42.5491 81.176C42.5491 82.0507 42.3945 82.7867 42.0851 83.384C41.7811 83.9813 41.3598 84.432 40.8211 84.736C40.2878 85.04 39.6798 85.192 38.9971 85.192ZM38.9651 84.104C39.4611 84.104 39.8825 83.9867 40.2291 83.752C40.5758 83.512 40.8371 83.1733 41.0131 82.736C41.1945 82.2987 41.2851 81.7787 41.2851 81.176C41.2851 80.264 41.0958 79.5467 40.7171 79.024C40.3385 78.496 39.7758 78.232 39.0291 78.232C38.5278 78.232 38.1038 78.352 37.7571 78.592C37.4158 78.8267 37.1545 79.1653 36.9731 79.608C36.7971 80.0453 36.7091 80.568 36.7091 81.176C36.7091 82.0773 36.8985 82.792 37.2771 83.32C37.6611 83.8427 38.2238 84.104 38.9651 84.104ZM50.3391 77.336H51.5871V85H50.3391V77.336ZM44.9151 77.336H46.1631V82.104C46.1631 82.744 46.3178 83.2293 46.6271 83.56C46.9418 83.8907 47.3898 84.056 47.9711 84.056C48.4511 84.056 48.8671 83.928 49.2191 83.672C49.5765 83.416 49.8511 83.064 50.0431 82.616C50.2405 82.1627 50.3391 81.6453 50.3391 81.064H50.8031C50.8031 81.9227 50.6778 82.656 50.4271 83.264C50.1818 83.872 49.8325 84.3387 49.3791 84.664C48.9311 84.984 48.4031 85.144 47.7951 85.144C47.2191 85.144 46.7151 85.0373 46.2831 84.824C45.8511 84.6107 45.5151 84.288 45.2751 83.856C45.0351 83.4187 44.9151 82.8667 44.9151 82.2V77.336ZM61.6315 85.192C61.0182 85.192 60.4448 85.0267 59.9115 84.696C59.3835 84.3653 58.9568 83.8987 58.6315 83.296C58.3062 82.6933 58.1435 81.9813 58.1435 81.16C58.1435 80.3173 58.3062 79.5973 58.6315 79C58.9568 78.4027 59.3835 77.9467 59.9115 77.632C60.4448 77.3173 61.0182 77.16 61.6315 77.16C62.0635 77.16 62.4502 77.2267 62.7915 77.36C63.1382 77.488 63.4395 77.6667 63.6955 77.896C63.9515 78.1253 64.1622 78.3867 64.3275 78.68C64.4982 78.968 64.6235 79.272 64.7035 79.592L63.4235 79.704C63.2902 79.2613 63.0662 78.912 62.7515 78.656C62.4422 78.3947 62.0635 78.264 61.6155 78.264C61.2368 78.264 60.8795 78.3733 60.5435 78.592C60.2128 78.8053 59.9435 79.128 59.7355 79.56C59.5275 79.9867 59.4235 80.52 59.4235 81.16C59.4235 81.752 59.5168 82.2667 59.7035 82.704C59.8955 83.136 60.1568 83.472 60.4875 83.712C60.8182 83.952 61.1942 84.072 61.6155 84.072C62.2075 84.072 62.6555 83.928 62.9595 83.64C63.2688 83.3467 63.4235 82.9413 63.4235 82.424H64.7035C64.7035 82.9573 64.5782 83.432 64.3275 83.848C64.0768 84.264 63.7195 84.592 63.2555 84.832C62.7968 85.072 62.2555 85.192 61.6315 85.192ZM72.0895 85L71.9295 83.32V80.04C71.9295 79.352 71.7828 78.8587 71.4895 78.56C71.1962 78.256 70.7562 78.104 70.1695 78.104C69.8388 78.104 69.5375 78.152 69.2655 78.248C68.9988 78.344 68.7855 78.4933 68.6255 78.696C68.4708 78.8933 68.3935 79.1493 68.3935 79.464H67.0015C67.0015 78.9093 67.1375 78.464 67.4095 78.128C67.6815 77.7867 68.0548 77.5413 68.5295 77.392C69.0095 77.2373 69.5562 77.16 70.1695 77.16C70.7562 77.16 71.2762 77.2587 71.7295 77.456C72.1828 77.6533 72.5375 77.968 72.7935 78.4C73.0495 78.8267 73.1775 79.384 73.1775 80.072V85H72.0895ZM69.4815 85.192C68.8522 85.192 68.3322 85.08 67.9215 84.856C67.5108 84.632 67.2042 84.3413 67.0015 83.984C66.7988 83.6267 66.6975 83.2507 66.6975 82.856C66.6975 82.3387 66.8255 81.9173 67.0815 81.592C67.3428 81.2667 67.6975 81.0293 68.1455 80.88C68.5935 80.7253 69.0975 80.648 69.6575 80.648C70.0575 80.648 70.4575 80.688 70.8575 80.768C71.2628 80.848 71.6575 80.9573 72.0415 81.096V81.88C71.7215 81.752 71.3588 81.6507 70.9535 81.576C70.5535 81.5013 70.1855 81.464 69.8495 81.464C69.3375 81.464 68.9055 81.5707 68.5535 81.784C68.2015 81.992 68.0255 82.3493 68.0255 82.856C68.0255 83.2293 68.1588 83.5493 68.4255 83.816C68.6975 84.0827 69.1295 84.216 69.7215 84.216C70.1375 84.216 70.5108 84.12 70.8415 83.928C71.1775 83.7307 71.4415 83.4853 71.6335 83.192C71.8308 82.8987 71.9295 82.6053 71.9295 82.312H72.2335C72.2335 82.824 72.1215 83.2987 71.8975 83.736C71.6788 84.1733 71.3642 84.5253 70.9535 84.792C70.5428 85.0587 70.0522 85.192 69.4815 85.192ZM81.766 85V80.504C81.766 79.7733 81.59 79.2187 81.238 78.84C80.8913 78.456 80.4167 78.264 79.814 78.264C79.3553 78.264 78.958 78.3893 78.622 78.64C78.286 78.8907 78.0273 79.2507 77.846 79.72C77.6647 80.184 77.574 80.7387 77.574 81.384H77.094C77.094 80.4933 77.2113 79.7333 77.446 79.104C77.6807 78.4747 78.022 77.9947 78.47 77.664C78.9233 77.328 79.4727 77.16 80.118 77.16C80.7207 77.16 81.2353 77.296 81.662 77.568C82.094 77.8347 82.4247 78.2187 82.654 78.72C82.8833 79.2213 82.998 79.816 82.998 80.504V85H81.766ZM76.326 85V77.352H77.398L77.574 79.112V85H76.326ZM95.5391 85V80.504C95.5391 79.7733 95.3631 79.2187 95.0111 78.84C94.6645 78.456 94.1898 78.264 93.5871 78.264C93.1285 78.264 92.7311 78.3893 92.3951 78.64C92.0591 78.8907 91.8005 79.2507 91.6191 79.72C91.4378 80.184 91.3471 80.7387 91.3471 81.384H90.8671C90.8671 80.4933 90.9845 79.7333 91.2191 79.104C91.4538 78.4747 91.7951 77.9947 92.2431 77.664C92.6965 77.328 93.2458 77.16 93.8911 77.16C94.4938 77.16 95.0085 77.296 95.4351 77.568C95.8671 77.8347 96.1978 78.2187 96.4271 78.72C96.6565 79.2213 96.7711 79.816 96.7711 80.504V85H95.5391ZM90.0991 85V77.352H91.1711L91.3471 79.112V85H90.0991ZM104.651 85L104.491 83.32V80.04C104.491 79.352 104.345 78.8587 104.051 78.56C103.758 78.256 103.318 78.104 102.731 78.104C102.401 78.104 102.099 78.152 101.827 78.248C101.561 78.344 101.347 78.4933 101.187 78.696C101.033 78.8933 100.955 79.1493 100.955 79.464H99.5634C99.5634 78.9093 99.6994 78.464 99.9714 78.128C100.243 77.7867 100.617 77.5413 101.091 77.392C101.571 77.2373 102.118 77.16 102.731 77.16C103.318 77.16 103.838 77.2587 104.291 77.456C104.745 77.6533 105.099 77.968 105.355 78.4C105.611 78.8267 105.739 79.384 105.739 80.072V85H104.651ZM102.043 85.192C101.414 85.192 100.894 85.08 100.483 84.856C100.073 84.632 99.766 84.3413 99.5634 83.984C99.3607 83.6267 99.2594 83.2507 99.2594 82.856C99.2594 82.3387 99.3874 81.9173 99.6434 81.592C99.9047 81.2667 100.259 81.0293 100.707 80.88C101.155 80.7253 101.659 80.648 102.219 80.648C102.619 80.648 103.019 80.688 103.419 80.768C103.825 80.848 104.219 80.9573 104.603 81.096V81.88C104.283 81.752 103.921 81.6507 103.515 81.576C103.115 81.5013 102.747 81.464 102.411 81.464C101.899 81.464 101.467 81.5707 101.115 81.784C100.763 81.992 100.587 82.3493 100.587 82.856C100.587 83.2293 100.721 83.5493 100.987 83.816C101.259 84.0827 101.691 84.216 102.283 84.216C102.699 84.216 103.073 84.12 103.403 83.928C103.739 83.7307 104.003 83.4853 104.195 83.192C104.393 82.8987 104.491 82.6053 104.491 82.312H104.795C104.795 82.824 104.683 83.2987 104.459 83.736C104.241 84.1733 103.926 84.5253 103.515 84.792C103.105 85.0587 102.614 85.192 102.043 85.192ZM107.56 77.352H108.984L111.384 83.928H111.208L113.608 77.352H115.032L111.976 85H110.616L107.56 77.352ZM117.799 75.544C117.543 75.544 117.34 75.472 117.191 75.328C117.041 75.1787 116.967 74.984 116.967 74.744C116.967 74.5093 117.041 74.3227 117.191 74.184C117.34 74.0453 117.543 73.976 117.799 73.976C118.055 73.976 118.257 74.0453 118.407 74.184C118.556 74.3227 118.631 74.5093 118.631 74.744C118.631 74.984 118.556 75.1787 118.407 75.328C118.257 75.472 118.055 75.544 117.799 75.544ZM117.175 85V77.336H118.423V85H117.175ZM124.724 88.936C123.94 88.936 123.26 88.824 122.684 88.6C122.108 88.3813 121.66 88.0853 121.34 87.712C121.026 87.344 120.868 86.936 120.868 86.488C120.868 85.896 121.084 85.4427 121.516 85.128C121.954 84.8187 122.516 84.664 123.204 84.664L123.892 85.096C123.316 85.096 122.871 85.216 122.556 85.456C122.242 85.696 122.084 86.024 122.084 86.44C122.084 86.856 122.308 87.208 122.756 87.496C123.204 87.784 123.86 87.928 124.724 87.928C125.364 87.928 125.924 87.8347 126.404 87.648C126.89 87.4667 127.266 87.2267 127.532 86.928C127.804 86.6347 127.94 86.3173 127.94 85.976C127.94 85.736 127.852 85.528 127.676 85.352C127.5 85.1813 127.231 85.096 126.868 85.096H123.892C123.375 85.096 122.927 85.0187 122.548 84.864C122.175 84.704 121.887 84.496 121.684 84.24C121.482 83.984 121.38 83.704 121.38 83.4C121.38 83.08 121.471 82.808 121.652 82.584C121.834 82.36 122.068 82.1893 122.356 82.072C122.65 81.9547 122.964 81.896 123.3 81.896L123.54 82.36C123.38 82.36 123.218 82.3973 123.052 82.472C122.892 82.5413 122.756 82.648 122.644 82.792C122.538 82.9307 122.484 83.1067 122.484 83.32C122.484 83.5653 122.586 83.7707 122.788 83.936C122.991 84.1013 123.359 84.184 123.892 84.184H126.868C127.588 84.184 128.154 84.336 128.564 84.64C128.98 84.944 129.188 85.368 129.188 85.912C129.188 86.4133 129.01 86.8933 128.652 87.352C128.295 87.816 127.783 88.1947 127.116 88.488C126.45 88.7867 125.652 88.936 124.724 88.936ZM124.948 82.76C124.362 82.76 123.831 82.6427 123.356 82.408C122.887 82.1733 122.514 81.8453 122.236 81.424C121.964 81.0027 121.828 80.5147 121.828 79.96C121.828 79.4 121.964 78.9093 122.236 78.488C122.514 78.0667 122.887 77.7413 123.356 77.512C123.831 77.2773 124.362 77.16 124.948 77.16C125.519 77.16 126.036 77.2773 126.5 77.512C126.97 77.7413 127.343 78.0667 127.62 78.488C127.898 78.9093 128.036 79.4 128.036 79.96C128.036 80.5147 127.898 81.0027 127.62 81.424C127.343 81.8453 126.97 82.1733 126.5 82.408C126.036 82.6427 125.519 82.76 124.948 82.76ZM124.948 81.864C125.535 81.864 125.991 81.6827 126.316 81.32C126.642 80.9573 126.804 80.504 126.804 79.96C126.804 79.4 126.642 78.9467 126.316 78.6C125.991 78.248 125.535 78.072 124.948 78.072C124.367 78.072 123.908 78.248 123.572 78.6C123.242 78.9467 123.076 79.4 123.076 79.96C123.076 80.504 123.242 80.9573 123.572 81.32C123.908 81.6827 124.367 81.864 124.948 81.864ZM127.46 78.376L126.868 78.136C126.868 77.688 126.956 77.296 127.132 76.96C127.308 76.6187 127.559 76.3547 127.884 76.168C128.21 75.976 128.596 75.88 129.044 75.88L128.948 77.112C128.468 77.112 128.1 77.216 127.844 77.424C127.588 77.6267 127.46 77.944 127.46 78.376ZM135.948 85L135.788 83.32V80.04C135.788 79.352 135.641 78.8587 135.348 78.56C135.054 78.256 134.614 78.104 134.028 78.104C133.697 78.104 133.396 78.152 133.124 78.248C132.857 78.344 132.644 78.4933 132.484 78.696C132.329 78.8933 132.252 79.1493 132.252 79.464H130.86C130.86 78.9093 130.996 78.464 131.268 78.128C131.54 77.7867 131.913 77.5413 132.388 77.392C132.868 77.2373 133.414 77.16 134.028 77.16C134.614 77.16 135.134 77.2587 135.588 77.456C136.041 77.6533 136.396 77.968 136.652 78.4C136.908 78.8267 137.036 79.384 137.036 80.072V85H135.948ZM133.34 85.192C132.71 85.192 132.19 85.08 131.78 84.856C131.369 84.632 131.062 84.3413 130.86 83.984C130.657 83.6267 130.556 83.2507 130.556 82.856C130.556 82.3387 130.684 81.9173 130.94 81.592C131.201 81.2667 131.556 81.0293 132.004 80.88C132.452 80.7253 132.956 80.648 133.516 80.648C133.916 80.648 134.316 80.688 134.716 80.768C135.121 80.848 135.516 80.9573 135.9 81.096V81.88C135.58 81.752 135.217 81.6507 134.812 81.576C134.412 81.5013 134.044 81.464 133.708 81.464C133.196 81.464 132.764 81.5707 132.412 81.784C132.06 81.992 131.884 82.3493 131.884 82.856C131.884 83.2293 132.017 83.5493 132.284 83.816C132.556 84.0827 132.988 84.216 133.58 84.216C133.996 84.216 134.369 84.12 134.7 83.928C135.036 83.7307 135.3 83.4853 135.492 83.192C135.689 82.8987 135.788 82.6053 135.788 82.312H136.092C136.092 82.824 135.98 83.2987 135.756 83.736C135.537 84.1733 135.222 84.5253 134.812 84.792C134.401 85.0587 133.91 85.192 133.34 85.192ZM142.536 85.192C142.12 85.192 141.747 85.112 141.416 84.952C141.085 84.792 140.824 84.552 140.632 84.232C140.44 83.912 140.344 83.512 140.344 83.032V75.224H141.576V83C141.576 83.7893 141.944 84.184 142.68 84.184C142.899 84.184 143.109 84.16 143.312 84.112C143.52 84.064 143.752 83.992 144.008 83.896L144.184 84.792C143.912 84.9093 143.64 85.0053 143.368 85.08C143.101 85.1547 142.824 85.192 142.536 85.192ZM139.112 78.216V77.352H143.992V78.216H139.112ZM149.016 85.192C148.354 85.192 147.762 85.024 147.24 84.688C146.722 84.3467 146.312 83.8747 146.008 83.272C145.709 82.6693 145.56 81.976 145.56 81.192C145.56 80.3547 145.709 79.6347 146.008 79.032C146.306 78.4293 146.714 77.968 147.232 77.648C147.754 77.3227 148.349 77.16 149.016 77.16C149.597 77.16 150.093 77.2773 150.504 77.512C150.914 77.7467 151.245 78.064 151.496 78.464C151.746 78.864 151.92 79.3173 152.016 79.824C152.117 80.3253 152.146 80.8453 152.104 81.384H146.568V80.616H151.28L150.912 80.856C150.928 80.5413 150.909 80.2267 150.856 79.912C150.808 79.5973 150.714 79.3093 150.576 79.048C150.437 78.7813 150.242 78.568 149.992 78.408C149.741 78.248 149.421 78.168 149.032 78.168C148.541 78.168 148.13 78.2933 147.8 78.544C147.469 78.7947 147.221 79.1253 147.056 79.536C146.89 79.9413 146.808 80.3813 146.808 80.856V81.368C146.808 81.9013 146.888 82.3787 147.048 82.8C147.213 83.2213 147.458 83.5547 147.784 83.8C148.109 84.0453 148.52 84.168 149.016 84.168C149.512 84.168 149.92 84.048 150.24 83.808C150.56 83.568 150.754 83.2133 150.824 82.744H152.12C152.04 83.2507 151.858 83.688 151.576 84.056C151.293 84.4187 150.933 84.6987 150.496 84.896C150.058 85.0933 149.565 85.192 149.016 85.192ZM155.954 82.44V81.72C155.954 81.256 156.002 80.8747 156.098 80.576C156.2 80.2773 156.365 80.0187 156.594 79.8C156.824 79.5813 157.138 79.3627 157.538 79.144C157.896 78.952 158.181 78.7733 158.394 78.608C158.608 78.4427 158.76 78.264 158.85 78.072C158.946 77.88 158.994 77.6453 158.994 77.368C158.994 76.952 158.824 76.6053 158.482 76.328C158.146 76.0507 157.682 75.912 157.09 75.912C156.434 75.912 155.933 76.0427 155.586 76.304C155.24 76.56 155.021 76.92 154.93 77.384H153.602C153.677 76.6053 154.002 75.976 154.578 75.496C155.16 75.016 155.986 74.776 157.058 74.776C157.741 74.776 158.328 74.896 158.818 75.136C159.314 75.3707 159.693 75.688 159.954 76.088C160.221 76.4827 160.354 76.92 160.354 77.4C160.354 77.9493 160.216 78.4107 159.938 78.784C159.661 79.152 159.213 79.5013 158.594 79.832C158.237 80.0293 157.954 80.2133 157.746 80.384C157.544 80.5493 157.4 80.7413 157.314 80.96C157.229 81.1733 157.186 81.4533 157.186 81.8V82.44H155.954ZM156.594 85.192C156.328 85.192 156.106 85.1067 155.93 84.936C155.754 84.76 155.666 84.5493 155.666 84.304C155.666 84.0533 155.752 83.8373 155.922 83.656C156.098 83.4747 156.32 83.384 156.586 83.384C156.853 83.384 157.08 83.4747 157.266 83.656C157.458 83.832 157.554 84.0453 157.554 84.296C157.554 84.5413 157.461 84.752 157.274 84.928C157.088 85.104 156.861 85.192 156.594 85.192Z" fill="#333333"/>
</g>
<defs>
<filter id="filter0_d_7084_5721" x="0" y="0" width="254.768" height="108" filterUnits="userSpaceOnUse" color-interpolation-filters="sRGB">
<feFlood flood-opacity="0" result="BackgroundImageFix"/>
<feColorMatrix in="SourceAlpha" type="matrix" values="0 0 0 0 0 0 0 0 0 0 0 0 0 0 0 0 0 0 127 0" result="hardAlpha"/>
<feOffset dy="4"/>
<feGaussianBlur stdDeviation="3"/>
<feComposite in2="hardAlpha" operator="out"/>
<feColorMatrix type="matrix" values="0 0 0 0 0 0 0 0 0 0 0 0 0 0 0 0 0 0 0.1 0"/>
<feBlend mode="normal" in2="BackgroundImageFix" result="effect1_dropShadow_7084_5721"/>
<feBlend mode="normal" in="SourceGraphic" in2="effect1_dropShadow_7084_5721" result="shape"/>
</filter>
</defs>
</svg>
