<svg width="256" height="68" viewBox="0 0 256 68" fill="none" xmlns="http://www.w3.org/2000/svg">
<path d="M254.724 27.3678L245 19.001L245 11.001C245 6.03041 240.971 2.00098 236 2.00097L15 2.00096C10.0294 2.00096 5.99997 6.03039 5.99997 11.001L5.99997 49.001C5.99997 53.9715 10.0294 58.001 15 58.001L236 58.001C240.971 58.001 245 53.9715 245 49.001L245 39.501L254.612 32.0079C256.106 30.8434 256.16 28.6032 254.724 27.3678Z" fill="white"/>
<g filter="url(#filter0_d_7044_5971)">
<mask id="path-2-inside-1_7044_5971" fill="white">
<path d="M7.04333 32.6331L16.7674 41V49C16.7674 53.9706 20.7968 58 25.7674 58L163.767 58C168.738 58 172.767 53.9706 172.767 49V11C172.767 6.02944 168.738 2 163.767 2L25.7674 2C20.7968 2 16.7674 6.02944 16.7674 11V20.5L7.15555 27.9931C5.66179 29.1575 5.60761 31.3978 7.04333 32.6331Z"/>
</mask>
<path d="M7.04333 32.6331L16.7674 41V49C16.7674 53.9706 20.7968 58 25.7674 58L163.767 58C168.738 58 172.767 53.9706 172.767 49V11C172.767 6.02944 168.738 2 163.767 2L25.7674 2C20.7968 2 16.7674 6.02944 16.7674 11V20.5L7.15555 27.9931C5.66179 29.1575 5.60761 31.3978 7.04333 32.6331Z" fill="#E8FAFA"/>
<path d="M16.7674 41H18.1674V40.3577L17.6805 39.9388L16.7674 41ZM7.04333 32.6331L6.13021 33.6944H6.13021L7.04333 32.6331ZM7.15555 27.9931L8.0163 29.0972L8.0163 29.0972L7.15555 27.9931ZM16.7674 20.5L17.6281 21.6041L18.1674 21.1838V20.5H16.7674ZM25.7674 2V0.6V2ZM163.767 2V3.4V2ZM17.6805 39.9388L7.95644 31.5719L6.13021 33.6944L15.8542 42.0612L17.6805 39.9388ZM8.0163 29.0972L17.6281 21.6041L15.9066 19.3959L6.2948 26.8889L8.0163 29.0972ZM7.95644 31.5719C7.19073 30.9131 7.21963 29.7183 8.0163 29.0972L6.2948 26.8889C4.10396 28.5968 4.02449 31.8825 6.13021 33.6944L7.95644 31.5719ZM25.7674 3.4L163.767 3.4V0.600003L25.7674 0.6V3.4ZM171.367 11V49H174.167V11L171.367 11ZM163.767 56.6L25.7674 56.6V59.4L163.767 59.4V56.6ZM18.1674 20.5V11H15.3674V20.5H18.1674ZM18.1674 49V41H15.3674V49H18.1674ZM25.7674 56.6C21.57 56.6 18.1674 53.1974 18.1674 49H15.3674C15.3674 54.7438 20.0236 59.4 25.7674 59.4V56.6ZM171.367 49C171.367 53.1974 167.965 56.6 163.767 56.6V59.4C169.511 59.4 174.167 54.7438 174.167 49H171.367ZM163.767 3.4C167.965 3.4 171.367 6.80264 171.367 11L174.167 11C174.167 5.25624 169.511 0.600003 163.767 0.600003V3.4ZM25.7674 0.6C20.0236 0.6 15.3674 5.25624 15.3674 11H18.1674C18.1674 6.80264 21.57 3.4 25.7674 3.4V0.6Z" fill="#567979" mask="url(#path-2-inside-1_7044_5971)"/>
</g>
<g filter="url(#filter1_d_7044_5971)">
<path d="M32.224 15.453L33.632 15.453L36.24 24.397L35.872 24.397L38.544 16.493L39.392 16.493L42.032 24.333L41.68 24.333L44.672 15.453L46.064 15.453L42.512 25.501L41.2 25.501L38.88 18.685L39.12 18.685L36.72 25.501L35.408 25.501L32.224 15.453ZM50.3253 25.693C49.6373 25.693 49.0239 25.541 48.4852 25.237C47.9519 24.933 47.5306 24.4823 47.2212 23.885C46.9119 23.2876 46.7572 22.5516 46.7572 21.677C46.7572 20.797 46.9119 20.061 47.2212 19.469C47.5306 18.8716 47.9519 18.421 48.4852 18.117C49.0239 17.813 49.6373 17.661 50.3253 17.661C51.0079 17.661 51.6159 17.813 52.1493 18.117C52.6879 18.421 53.1093 18.8716 53.4132 19.469C53.7226 20.061 53.8773 20.797 53.8773 21.677C53.8773 22.5516 53.7226 23.2876 53.4132 23.885C53.1093 24.4823 52.6879 24.933 52.1493 25.237C51.6159 25.541 51.0079 25.693 50.3253 25.693ZM50.2933 24.605C50.7893 24.605 51.2106 24.4876 51.5573 24.253C51.9039 24.013 52.1652 23.6743 52.3412 23.237C52.5226 22.7996 52.6133 22.2796 52.6133 21.677C52.6133 20.765 52.4239 20.0476 52.0452 19.525C51.6666 18.997 51.1039 18.733 50.3573 18.733C49.8559 18.733 49.4319 18.853 49.0852 19.093C48.7439 19.3276 48.4826 19.6663 48.3012 20.109C48.1253 20.5463 48.0373 21.069 48.0373 21.677C48.0373 22.5783 48.2266 23.293 48.6052 23.821C48.9893 24.3436 49.5519 24.605 50.2933 24.605ZM61.6673 17.837L62.9152 17.837L62.9152 25.501L61.6673 25.501L61.6673 17.837ZM56.2432 17.837L57.4912 17.837L57.4912 22.605C57.4912 23.245 57.6459 23.7303 57.9552 24.061C58.2699 24.3916 58.7179 24.557 59.2993 24.557C59.7792 24.557 60.1952 24.429 60.5472 24.173C60.9046 23.917 61.1793 23.565 61.3713 23.117C61.5686 22.6636 61.6673 22.1463 61.6673 21.565L62.1312 21.565C62.1312 22.4236 62.0059 23.157 61.7552 23.765C61.5099 24.373 61.1606 24.8396 60.7073 25.165C60.2592 25.485 59.7312 25.645 59.1232 25.645C58.5472 25.645 58.0432 25.5383 57.6112 25.325C57.1792 25.1116 56.8432 24.789 56.6032 24.357C56.3632 23.9196 56.2432 23.3676 56.2432 22.701L56.2432 17.837ZM66.3147 25.501L66.3147 14.589L67.5627 14.589L67.5627 25.501L66.3147 25.501ZM73.6951 25.693C73.0765 25.693 72.5085 25.5276 71.9911 25.197C71.4738 24.861 71.0605 24.3916 70.7511 23.789C70.4418 23.181 70.2871 22.4663 70.2871 21.645C70.2871 20.829 70.4391 20.1223 70.7431 19.525C71.0471 18.9276 71.4498 18.469 71.9511 18.149C72.4578 17.8236 73.0125 17.661 73.6151 17.661C74.1751 17.661 74.6658 17.797 75.0871 18.069C75.5138 18.341 75.8445 18.733 76.0791 19.245C76.3138 19.757 76.4311 20.3756 76.4311 21.101L75.9511 21.101C75.9511 20.5943 75.8498 20.1676 75.6471 19.821C75.4498 19.4743 75.1911 19.213 74.8711 19.037C74.5511 18.8556 74.2071 18.765 73.8391 18.765C73.4231 18.765 73.0418 18.8823 72.6951 19.117C72.3538 19.3463 72.0791 19.677 71.8711 20.109C71.6685 20.5356 71.5671 21.0476 71.5671 21.645C71.5671 22.253 71.6685 22.7756 71.8711 23.213C72.0791 23.6503 72.3538 23.9863 72.6951 24.221C73.0418 24.4556 73.4231 24.573 73.8391 24.573C74.1858 24.573 74.5191 24.4823 74.8391 24.301C75.1645 24.1196 75.4311 23.8556 75.6391 23.509C75.8471 23.157 75.9511 22.733 75.9511 22.237L76.4311 22.237C76.4311 22.9783 76.3085 23.6076 76.0631 24.125C75.8231 24.637 75.4951 25.0263 75.0791 25.293C74.6685 25.5596 74.2071 25.693 73.6951 25.693ZM76.1591 25.501L75.9511 23.709L75.9511 14.589L77.1991 14.589L77.1991 25.501L76.1591 25.501ZM83.2964 17.853L84.6884 17.853L87.1844 24.413L86.8964 24.413L88.8324 17.853L90.1124 17.853L87.2324 27.037C86.9924 27.805 86.6724 28.397 86.2724 28.813C85.8724 29.229 85.3604 29.437 84.7364 29.437C84.4004 29.437 84.0804 29.389 83.7764 29.293C83.4777 29.197 83.1684 29.0583 82.8484 28.877L82.8484 27.725C83.131 27.949 83.403 28.109 83.6644 28.205C83.931 28.301 84.2084 28.349 84.4964 28.349C84.8164 28.349 85.083 28.2476 85.2964 28.045C85.515 27.8423 85.6964 27.581 85.8404 27.261C85.9844 26.9463 86.107 26.6156 86.2084 26.269L86.4324 25.501L83.2964 17.853ZM94.9415 25.693C94.2535 25.693 93.6402 25.541 93.1015 25.237C92.5682 24.933 92.1468 24.4823 91.8375 23.885C91.5282 23.2876 91.3735 22.5516 91.3735 21.677C91.3735 20.797 91.5282 20.061 91.8375 19.469C92.1468 18.8716 92.5682 18.421 93.1015 18.117C93.6402 17.813 94.2535 17.661 94.9415 17.661C95.6242 17.661 96.2322 17.813 96.7655 18.117C97.3042 18.421 97.7255 18.8716 98.0295 19.469C98.3388 20.061 98.4935 20.797 98.4935 21.677C98.4935 22.5516 98.3388 23.2876 98.0295 23.885C97.7255 24.4823 97.3042 24.933 96.7655 25.237C96.2322 25.541 95.6242 25.693 94.9415 25.693ZM94.9095 24.605C95.4055 24.605 95.8268 24.4876 96.1735 24.253C96.5202 24.013 96.7815 23.6743 96.9575 23.237C97.1388 22.7996 97.2295 22.2796 97.2295 21.677C97.2295 20.765 97.0402 20.0476 96.6615 19.525C96.2828 18.997 95.7202 18.733 94.9735 18.733C94.4722 18.733 94.0482 18.853 93.7015 19.093C93.3602 19.3276 93.0988 19.6663 92.9175 20.109C92.7415 20.5463 92.6535 21.069 92.6535 21.677C92.6535 22.5783 92.8428 23.293 93.2215 23.821C93.6055 24.3436 94.1682 24.605 94.9095 24.605ZM106.283 17.837L107.531 17.837L107.531 25.501L106.283 25.501L106.283 17.837ZM100.859 17.837L102.107 17.837L102.107 22.605C102.107 23.245 102.262 23.7303 102.571 24.061C102.886 24.3916 103.334 24.557 103.915 24.557C104.395 24.557 104.811 24.429 105.163 24.173C105.521 23.917 105.795 23.565 105.987 23.117C106.185 22.6636 106.283 22.1463 106.283 21.565L106.747 21.565C106.747 22.4236 106.622 23.157 106.371 23.765C106.126 24.373 105.777 24.8396 105.323 25.165C104.875 25.485 104.347 25.645 103.739 25.645C103.163 25.645 102.659 25.5383 102.227 25.325C101.795 25.1116 101.459 24.789 101.219 24.357C100.979 23.9196 100.859 23.3676 100.859 22.701L100.859 17.837ZM114.888 25.501L114.888 14.589L116.136 14.589L116.136 25.501L114.888 25.501ZM120.236 16.045C119.98 16.045 119.778 15.973 119.628 15.829C119.479 15.6796 119.404 15.485 119.404 15.245C119.404 15.0103 119.479 14.8236 119.628 14.685C119.778 14.5463 119.98 14.477 120.236 14.477C120.492 14.477 120.695 14.5463 120.844 14.685C120.994 14.8236 121.068 15.0103 121.068 15.245C121.068 15.485 120.994 15.6796 120.844 15.829C120.695 15.973 120.492 16.045 120.236 16.045ZM119.612 25.501L119.612 17.837L120.86 17.837L120.86 25.501L119.612 25.501ZM124.458 25.501L124.458 14.589L125.706 14.589L125.706 25.501L124.458 25.501ZM125.514 21.117L129.418 17.853L131.162 17.853L125.514 22.445L125.514 21.117ZM129.802 25.501L126.17 20.669L127.434 20.445L131.338 25.501L129.802 25.501ZM136.29 25.693C135.628 25.693 135.036 25.525 134.514 25.189C133.996 24.8476 133.586 24.3756 133.282 23.773C132.983 23.1703 132.834 22.477 132.834 21.693C132.834 20.8556 132.983 20.1356 133.282 19.533C133.58 18.9303 133.988 18.469 134.506 18.149C135.028 17.8236 135.623 17.661 136.29 17.661C136.871 17.661 137.367 17.7783 137.778 18.013C138.188 18.2476 138.519 18.565 138.77 18.965C139.02 19.365 139.194 19.8183 139.29 20.325C139.391 20.8263 139.42 21.3463 139.378 21.885L133.842 21.885L133.842 21.117L138.554 21.117L138.186 21.357C138.202 21.0423 138.183 20.7276 138.13 20.413C138.082 20.0983 137.988 19.8103 137.85 19.549C137.711 19.2823 137.516 19.069 137.266 18.909C137.015 18.749 136.695 18.669 136.306 18.669C135.815 18.669 135.404 18.7943 135.074 19.045C134.743 19.2956 134.495 19.6263 134.33 20.037C134.164 20.4423 134.082 20.8823 134.082 21.357L134.082 21.869C134.082 22.4023 134.162 22.8796 134.322 23.301C134.487 23.7223 134.732 24.0556 135.058 24.301C135.383 24.5463 135.794 24.669 136.29 24.669C136.786 24.669 137.194 24.549 137.514 24.309C137.834 24.069 138.028 23.7143 138.098 23.245L139.394 23.245C139.314 23.7516 139.132 24.189 138.85 24.557C138.567 24.9196 138.207 25.1996 137.77 25.397C137.332 25.5943 136.839 25.693 136.29 25.693ZM148.321 25.693C147.905 25.693 147.532 25.613 147.201 25.453C146.87 25.293 146.609 25.053 146.417 24.733C146.225 24.413 146.129 24.013 146.129 23.533L146.129 15.725L147.361 15.725L147.361 23.501C147.361 24.2903 147.729 24.685 148.465 24.685C148.684 24.685 148.894 24.661 149.097 24.613C149.305 24.565 149.537 24.493 149.793 24.397L149.969 25.293C149.697 25.4103 149.425 25.5063 149.153 25.581C148.886 25.6556 148.609 25.693 148.321 25.693ZM144.897 18.717L144.897 17.853L149.777 17.853L149.777 18.717L144.897 18.717ZM154.913 25.693C154.225 25.693 153.611 25.541 153.073 25.237C152.539 24.933 152.118 24.4823 151.809 23.885C151.499 23.2876 151.345 22.5516 151.345 21.677C151.345 20.797 151.499 20.061 151.809 19.469C152.118 18.8716 152.539 18.421 153.073 18.117C153.611 17.813 154.225 17.661 154.913 17.661C155.595 17.661 156.203 17.813 156.737 18.117C157.275 18.421 157.697 18.8716 158.001 19.469C158.31 20.061 158.465 20.797 158.465 21.677C158.465 22.5516 158.31 23.2876 158.001 23.885C157.697 24.4823 157.275 24.933 156.737 25.237C156.203 25.541 155.595 25.693 154.913 25.693ZM154.881 24.605C155.377 24.605 155.798 24.4876 156.145 24.253C156.491 24.013 156.753 23.6743 156.929 23.237C157.11 22.7996 157.201 22.2796 157.201 21.677C157.201 20.765 157.011 20.0476 156.633 19.525C156.254 18.997 155.691 18.733 154.945 18.733C154.443 18.733 154.019 18.853 153.673 19.093C153.331 19.3276 153.07 19.6663 152.889 20.109C152.713 20.5463 152.625 21.069 152.625 21.677C152.625 22.5783 152.814 23.293 153.193 23.821C153.577 24.3436 154.139 24.605 154.881 24.605ZM39.056 45.501L39.056 41.005C39.056 40.2743 38.88 39.7196 38.528 39.341C38.1813 38.957 37.7067 38.765 37.104 38.765C36.6453 38.765 36.248 38.8903 35.912 39.141C35.576 39.3916 35.3173 39.7516 35.136 40.221C34.9547 40.685 34.864 41.2396 34.864 41.885L34.384 41.885C34.384 40.9943 34.5013 40.2343 34.736 39.605C34.9707 38.9756 35.312 38.4956 35.76 38.165C36.2133 37.829 36.7627 37.661 37.408 37.661C38.0107 37.661 38.5253 37.797 38.952 38.069C39.384 38.3356 39.7147 38.7196 39.944 39.221C40.1733 39.7223 40.288 40.317 40.288 41.005L40.288 45.501L39.056 45.501ZM33.616 45.501L33.616 37.853L34.688 37.853L34.864 39.613L34.864 45.501L33.616 45.501ZM48.1683 45.501L48.0083 43.821L48.0083 40.541C48.0083 39.853 47.8616 39.3596 47.5683 39.061C47.2749 38.757 46.8349 38.605 46.2482 38.605C45.9176 38.605 45.6162 38.653 45.3442 38.749C45.0776 38.845 44.8643 38.9943 44.7043 39.197C44.5496 39.3943 44.4722 39.6503 44.4722 39.965L43.0802 39.965C43.0802 39.4103 43.2162 38.965 43.4882 38.629C43.7602 38.2876 44.1336 38.0423 44.6082 37.893C45.0882 37.7383 45.6349 37.661 46.2482 37.661C46.8349 37.661 47.3549 37.7596 47.8082 37.957C48.2616 38.1543 48.6163 38.469 48.8723 38.901C49.1283 39.3276 49.2563 39.885 49.2563 40.573L49.2563 45.501L48.1683 45.501ZM45.5603 45.693C44.9309 45.693 44.4109 45.581 44.0002 45.357C43.5896 45.133 43.2829 44.8423 43.0802 44.485C42.8776 44.1276 42.7762 43.7516 42.7762 43.357C42.7762 42.8396 42.9042 42.4183 43.1602 42.093C43.4216 41.7676 43.7762 41.5303 44.2243 41.381C44.6723 41.2263 45.1762 41.149 45.7362 41.149C46.1362 41.149 46.5362 41.189 46.9363 41.269C47.3416 41.349 47.7363 41.4583 48.1203 41.597L48.1203 42.381C47.8003 42.253 47.4376 42.1516 47.0322 42.077C46.6322 42.0023 46.2642 41.965 45.9282 41.965C45.4162 41.965 44.9842 42.0716 44.6323 42.285C44.2802 42.493 44.1042 42.8503 44.1042 43.357C44.1042 43.7303 44.2376 44.0503 44.5043 44.317C44.7763 44.5836 45.2083 44.717 45.8003 44.717C46.2163 44.717 46.5896 44.621 46.9202 44.429C47.2563 44.2316 47.5203 43.9863 47.7123 43.693C47.9096 43.3996 48.0083 43.1063 48.0083 42.813L48.3123 42.813C48.3123 43.325 48.2003 43.7996 47.9763 44.237C47.7576 44.6743 47.4429 45.0263 47.0322 45.293C46.6216 45.5596 46.1309 45.693 45.5603 45.693ZM51.0767 37.853L52.5007 37.853L54.9007 44.429L54.7247 44.429L57.1248 37.853L58.5487 37.853L55.4927 45.501L54.1327 45.501L51.0767 37.853ZM61.3156 36.045C61.0596 36.045 60.857 35.973 60.7076 35.829C60.5583 35.6796 60.4836 35.485 60.4836 35.245C60.4836 35.0103 60.5583 34.8236 60.7076 34.685C60.857 34.5463 61.0596 34.477 61.3156 34.477C61.5716 34.477 61.7743 34.5463 61.9236 34.685C62.073 34.8236 62.1476 35.0103 62.1476 35.245C62.1476 35.485 62.073 35.6796 61.9236 35.829C61.7743 35.973 61.5716 36.045 61.3156 36.045ZM60.6916 45.501L60.6916 37.837L61.9396 37.837L61.9396 45.501L60.6916 45.501ZM68.2412 49.437C67.4572 49.437 66.7772 49.325 66.2012 49.101C65.6252 48.8823 65.1772 48.5863 64.8572 48.213C64.5426 47.845 64.3852 47.437 64.3852 46.989C64.3852 46.397 64.6012 45.9436 65.0332 45.629C65.4706 45.3196 66.0332 45.165 66.7212 45.165L67.4092 45.597C66.8332 45.597 66.3879 45.717 66.0732 45.957C65.7586 46.197 65.6012 46.525 65.6012 46.941C65.6012 47.357 65.8252 47.709 66.2732 47.997C66.7212 48.285 67.3772 48.429 68.2412 48.429C68.8812 48.429 69.4412 48.3356 69.9212 48.149C70.4066 47.9676 70.7826 47.7276 71.0492 47.429C71.3212 47.1356 71.4572 46.8183 71.4572 46.477C71.4572 46.237 71.3692 46.029 71.1932 45.853C71.0172 45.6823 70.7479 45.597 70.3852 45.597L67.4092 45.597C66.8919 45.597 66.4439 45.5196 66.0652 45.365C65.6919 45.205 65.4039 44.997 65.2012 44.741C64.9986 44.485 64.8972 44.205 64.8972 43.901C64.8972 43.581 64.9879 43.309 65.1692 43.085C65.3506 42.861 65.5852 42.6903 65.8732 42.573C66.1666 42.4556 66.4812 42.397 66.8172 42.397L67.0572 42.861C66.8972 42.861 66.7346 42.8983 66.5692 42.973C66.4092 43.0423 66.2732 43.149 66.1612 43.293C66.0546 43.4316 66.0012 43.6076 66.0012 43.821C66.0012 44.0663 66.1026 44.2716 66.3052 44.437C66.5079 44.6023 66.8759 44.685 67.4092 44.685L70.3852 44.685C71.1052 44.685 71.6706 44.837 72.0813 45.141C72.4972 45.445 72.7052 45.869 72.7052 46.413C72.7052 46.9143 72.5266 47.3943 72.1692 47.853C71.8119 48.317 71.2999 48.6956 70.6332 48.989C69.9666 49.2876 69.1692 49.437 68.2412 49.437ZM68.4652 43.261C67.8786 43.261 67.3479 43.1436 66.8732 42.909C66.4039 42.6743 66.0306 42.3463 65.7532 41.925C65.4812 41.5036 65.3452 41.0156 65.3452 40.461C65.3452 39.901 65.4812 39.4103 65.7532 38.989C66.0306 38.5676 66.4039 38.2423 66.8732 38.013C67.3479 37.7783 67.8786 37.661 68.4652 37.661C69.0359 37.661 69.5532 37.7783 70.0172 38.013C70.4866 38.2423 70.8599 38.5676 71.1372 38.989C71.4146 39.4103 71.5532 39.901 71.5532 40.461C71.5532 41.0156 71.4146 41.5036 71.1372 41.925C70.8599 42.3463 70.4866 42.6743 70.0172 42.909C69.5532 43.1436 69.0359 43.261 68.4652 43.261ZM68.4652 42.365C69.0519 42.365 69.5079 42.1836 69.8332 41.821C70.1586 41.4583 70.3212 41.005 70.3212 40.461C70.3212 39.901 70.1586 39.4476 69.8332 39.101C69.5079 38.749 69.0519 38.573 68.4652 38.573C67.8839 38.573 67.4252 38.749 67.0892 39.101C66.7586 39.4476 66.5932 39.901 66.5932 40.461C66.5932 41.005 66.7586 41.4583 67.0892 41.821C67.4252 42.1836 67.8839 42.365 68.4652 42.365ZM70.9772 38.877L70.3852 38.637C70.3852 38.189 70.4732 37.797 70.6492 37.461C70.8252 37.1196 71.0759 36.8556 71.4012 36.669C71.7266 36.477 72.1132 36.381 72.5612 36.381L72.4652 37.613C71.9852 37.613 71.6172 37.717 71.3612 37.925C71.1052 38.1276 70.9772 38.445 70.9772 38.877ZM79.4645 45.501L79.3045 43.821L79.3045 40.541C79.3045 39.853 79.1578 39.3596 78.8645 39.061C78.5712 38.757 78.1312 38.605 77.5445 38.605C77.2138 38.605 76.9125 38.653 76.6405 38.749C76.3738 38.845 76.1605 38.9943 76.0005 39.197C75.8458 39.3943 75.7685 39.6503 75.7685 39.965L74.3765 39.965C74.3765 39.4103 74.5125 38.965 74.7845 38.629C75.0565 38.2876 75.4298 38.0423 75.9045 37.893C76.3845 37.7383 76.9312 37.661 77.5445 37.661C78.1312 37.661 78.6512 37.7596 79.1045 37.957C79.5578 38.1543 79.9125 38.469 80.1685 38.901C80.4245 39.3276 80.5525 39.885 80.5525 40.573L80.5525 45.501L79.4645 45.501ZM76.8565 45.693C76.2272 45.693 75.7072 45.581 75.2965 45.357C74.8858 45.133 74.5792 44.8423 74.3765 44.485C74.1738 44.1276 74.0725 43.7516 74.0725 43.357C74.0725 42.8396 74.2005 42.4183 74.4565 42.093C74.7178 41.7676 75.0725 41.5303 75.5205 41.381C75.9685 41.2263 76.4725 41.149 77.0325 41.149C77.4325 41.149 77.8325 41.189 78.2325 41.269C78.6378 41.349 79.0325 41.4583 79.4165 41.597L79.4165 42.381C79.0965 42.253 78.7338 42.1516 78.3285 42.077C77.9285 42.0023 77.5605 41.965 77.2245 41.965C76.7125 41.965 76.2805 42.0716 75.9285 42.285C75.5765 42.493 75.4005 42.8503 75.4005 43.357C75.4005 43.7303 75.5338 44.0503 75.8005 44.317C76.0725 44.5836 76.5045 44.717 77.0965 44.717C77.5125 44.717 77.8858 44.621 78.2165 44.429C78.5525 44.2316 78.8165 43.9863 79.0085 43.693C79.2058 43.3996 79.3045 43.1063 79.3045 42.813L79.6085 42.813C79.6085 43.325 79.4965 43.7996 79.2725 44.237C79.0538 44.6743 78.7392 45.0263 78.3285 45.293C77.9178 45.5596 77.4272 45.693 76.8565 45.693ZM86.053 45.693C85.637 45.693 85.2637 45.613 84.933 45.453C84.6023 45.293 84.341 45.053 84.149 44.733C83.957 44.413 83.861 44.013 83.861 43.533L83.861 35.725L85.093 35.725L85.093 43.501C85.093 44.2903 85.461 44.685 86.197 44.685C86.4157 44.685 86.6263 44.661 86.829 44.613C87.037 44.565 87.269 44.493 87.525 44.397L87.701 45.293C87.429 45.4103 87.157 45.5063 86.885 45.581C86.6183 45.6556 86.341 45.693 86.053 45.693ZM82.629 38.717L82.629 37.853L87.509 37.853L87.509 38.717L82.629 38.717ZM92.5326 45.693C91.8713 45.693 91.2793 45.525 90.7566 45.189C90.2393 44.8476 89.8286 44.3756 89.5246 43.773C89.226 43.1703 89.0766 42.477 89.0766 41.693C89.0766 40.8556 89.226 40.1356 89.5246 39.533C89.8233 38.9303 90.2313 38.469 90.7486 38.149C91.2713 37.8236 91.866 37.661 92.5326 37.661C93.114 37.661 93.61 37.7783 94.0206 38.013C94.4313 38.2476 94.762 38.565 95.0126 38.965C95.2633 39.365 95.4366 39.8183 95.5326 40.325C95.634 40.8263 95.6633 41.3463 95.6206 41.885L90.0846 41.885L90.0846 41.117L94.7966 41.117L94.4286 41.357C94.4446 41.0423 94.426 40.7276 94.3726 40.413C94.3246 40.0983 94.2313 39.8103 94.0926 39.549C93.954 39.2823 93.7593 39.069 93.5086 38.909C93.258 38.749 92.938 38.669 92.5486 38.669C92.058 38.669 91.6473 38.7943 91.3166 39.045C90.986 39.2956 90.738 39.6263 90.5726 40.037C90.4073 40.4423 90.3246 40.8823 90.3246 41.357L90.3246 41.869C90.3246 42.4023 90.4046 42.8796 90.5646 43.301C90.73 43.7223 90.9753 44.0556 91.3006 44.301C91.626 44.5463 92.0366 44.669 92.5326 44.669C93.0286 44.669 93.4366 44.549 93.7566 44.309C94.0766 44.069 94.2713 43.7143 94.3406 43.245L95.6366 43.245C95.5566 43.7516 95.3753 44.189 95.0926 44.557C94.81 44.9196 94.45 45.1996 94.0126 45.397C93.5753 45.5943 93.082 45.693 92.5326 45.693ZM104.564 45.693C104.148 45.693 103.775 45.613 103.444 45.453C103.114 45.293 102.852 45.053 102.66 44.733C102.468 44.413 102.372 44.013 102.372 43.533L102.372 35.725L103.604 35.725L103.604 43.501C103.604 44.2903 103.972 44.685 104.708 44.685C104.927 44.685 105.138 44.661 105.34 44.613C105.548 44.565 105.78 44.493 106.036 44.397L106.212 45.293C105.94 45.4103 105.668 45.5063 105.396 45.581C105.13 45.6556 104.852 45.693 104.564 45.693ZM101.14 38.717L101.14 37.853L106.02 37.853L106.02 38.717L101.14 38.717ZM113.828 45.501L113.828 41.005C113.828 40.2743 113.652 39.7196 113.3 39.341C112.953 38.957 112.479 38.765 111.876 38.765C111.417 38.765 111.02 38.8903 110.684 39.141C110.348 39.3916 110.089 39.7516 109.908 40.221C109.727 40.685 109.636 41.2396 109.636 41.885L109.156 41.885C109.156 40.9943 109.273 40.2343 109.508 39.605C109.743 38.9756 110.084 38.4956 110.532 38.165C110.985 37.829 111.535 37.661 112.18 37.661C112.783 37.661 113.297 37.797 113.724 38.069C114.156 38.3356 114.487 38.7196 114.716 39.221C114.945 39.7223 115.06 40.317 115.06 41.005L115.06 45.501L113.828 45.501ZM108.388 45.501L108.388 34.589L109.636 34.589L109.636 45.501L108.388 45.501ZM120.86 45.693C120.199 45.693 119.607 45.525 119.084 45.189C118.567 44.8476 118.156 44.3756 117.852 43.773C117.553 43.1703 117.404 42.477 117.404 41.693C117.404 40.8556 117.553 40.1356 117.852 39.533C118.151 38.9303 118.559 38.469 119.076 38.149C119.599 37.8236 120.193 37.661 120.86 37.661C121.441 37.661 121.937 37.7783 122.348 38.013C122.759 38.2476 123.089 38.565 123.34 38.965C123.591 39.365 123.764 39.8183 123.86 40.325C123.961 40.8263 123.991 41.3463 123.948 41.885L118.412 41.885L118.412 41.117L123.124 41.117L122.756 41.357C122.772 41.0423 122.753 40.7276 122.7 40.413C122.652 40.0983 122.559 39.8103 122.42 39.549C122.281 39.2823 122.087 39.069 121.836 38.909C121.585 38.749 121.265 38.669 120.876 38.669C120.385 38.669 119.975 38.7943 119.644 39.045C119.313 39.2956 119.065 39.6263 118.9 40.037C118.735 40.4423 118.652 40.8823 118.652 41.357L118.652 41.869C118.652 42.4023 118.732 42.8796 118.892 43.301C119.057 43.7223 119.303 44.0556 119.628 44.301C119.953 44.5463 120.364 44.669 120.86 44.669C121.356 44.669 121.764 44.549 122.084 44.309C122.404 44.069 122.599 43.7143 122.668 43.245L123.964 43.245C123.884 43.7516 123.703 44.189 123.42 44.557C123.137 44.9196 122.777 45.1996 122.34 45.397C121.903 45.5943 121.409 45.693 120.86 45.693ZM126.583 45.501L126.583 37.837L127.831 37.837L127.831 45.501L126.583 45.501ZM127.447 42.045C127.447 41.0743 127.54 40.269 127.727 39.629C127.914 38.9836 128.186 38.5036 128.543 38.189C128.906 37.869 129.346 37.709 129.863 37.709C130.034 37.709 130.188 37.7223 130.327 37.749C130.471 37.7703 130.615 37.805 130.759 37.853L130.679 39.085C130.53 39.037 130.367 38.997 130.191 38.965C130.015 38.9276 129.858 38.909 129.719 38.909C129.266 38.909 128.9 39.0396 128.623 39.301C128.346 39.557 128.143 39.9196 128.015 40.389C127.892 40.8583 127.831 41.4103 127.831 42.045L127.447 42.045ZM135.18 45.693C134.519 45.693 133.927 45.525 133.404 45.189C132.887 44.8476 132.476 44.3756 132.172 43.773C131.873 43.1703 131.724 42.477 131.724 41.693C131.724 40.8556 131.873 40.1356 132.172 39.533C132.471 38.9303 132.879 38.469 133.396 38.149C133.919 37.8236 134.513 37.661 135.18 37.661C135.761 37.661 136.257 37.7783 136.668 38.013C137.079 38.2476 137.409 38.565 137.66 38.965C137.911 39.365 138.084 39.8183 138.18 40.325C138.281 40.8263 138.311 41.3463 138.268 41.885L132.732 41.885L132.732 41.117L137.444 41.117L137.076 41.357C137.092 41.0423 137.073 40.7276 137.02 40.413C136.972 40.0983 136.879 39.8103 136.74 39.549C136.601 39.2823 136.407 39.069 136.156 38.909C135.905 38.749 135.585 38.669 135.196 38.669C134.705 38.669 134.295 38.7943 133.964 39.045C133.633 39.2956 133.385 39.6263 133.22 40.037C133.055 40.4423 132.972 40.8823 132.972 41.357L132.972 41.869C132.972 42.4023 133.052 42.8796 133.212 43.301C133.377 43.7223 133.623 44.0556 133.948 44.301C134.273 44.5463 134.684 44.669 135.18 44.669C135.676 44.669 136.084 44.549 136.404 44.309C136.724 44.069 136.919 43.7143 136.988 43.245L138.284 43.245C138.204 43.7516 138.023 44.189 137.74 44.557C137.457 44.9196 137.097 45.1996 136.66 45.397C136.223 45.5943 135.729 45.693 135.18 45.693ZM142.119 42.941L142.119 42.221C142.119 41.757 142.167 41.3756 142.263 41.077C142.364 40.7783 142.53 40.5196 142.759 40.301C142.988 40.0823 143.303 39.8636 143.703 39.645C144.06 39.453 144.346 39.2743 144.559 39.109C144.772 38.9436 144.924 38.765 145.015 38.573C145.111 38.381 145.159 38.1463 145.159 37.869C145.159 37.453 144.988 37.1063 144.647 36.829C144.311 36.5516 143.847 36.413 143.255 36.413C142.599 36.413 142.098 36.5436 141.751 36.805C141.404 37.061 141.186 37.421 141.095 37.885L139.767 37.885C139.842 37.1063 140.167 36.477 140.743 35.997C141.324 35.517 142.151 35.277 143.223 35.277C143.906 35.277 144.492 35.397 144.983 35.637C145.479 35.8716 145.858 36.189 146.119 36.589C146.386 36.9836 146.519 37.421 146.519 37.901C146.519 38.4503 146.38 38.9116 146.103 39.285C145.826 39.653 145.378 40.0023 144.759 40.333C144.402 40.5303 144.119 40.7143 143.911 40.885C143.708 41.0503 143.564 41.2423 143.479 41.461C143.394 41.6743 143.351 41.9543 143.351 42.301L143.351 42.941L142.119 42.941ZM142.759 45.693C142.492 45.693 142.271 45.6076 142.095 45.437C141.919 45.261 141.831 45.0503 141.831 44.805C141.831 44.5543 141.916 44.3383 142.087 44.157C142.263 43.9756 142.484 43.885 142.751 43.885C143.018 43.885 143.244 43.9756 143.431 44.157C143.623 44.333 143.719 44.5463 143.719 44.797C143.719 45.0423 143.626 45.253 143.439 45.429C143.252 45.605 143.026 45.693 142.759 45.693Z" fill="#567979"/>
</g>
<defs>
<filter id="filter0_d_7044_5971" x="0" y="0" width="178.767" height="68" filterUnits="userSpaceOnUse" color-interpolation-filters="sRGB">
<feFlood flood-opacity="0" result="BackgroundImageFix"/>
<feColorMatrix in="SourceAlpha" type="matrix" values="0 0 0 0 0 0 0 0 0 0 0 0 0 0 0 0 0 0 127 0" result="hardAlpha"/>
<feOffset dy="4"/>
<feGaussianBlur stdDeviation="3"/>
<feComposite in2="hardAlpha" operator="out"/>
<feColorMatrix type="matrix" values="0 0 0 0 0 0 0 0 0 0 0 0 0 0 0 0 0 0 0.1 0"/>
<feBlend mode="normal" in2="BackgroundImageFix" result="effect1_dropShadow_7044_5971"/>
<feBlend mode="normal" in="SourceGraphic" in2="effect1_dropShadow_7044_5971" result="shape"/>
</filter>
<filter id="filter1_d_7044_5971" x="26.224" y="12.4766" width="138.241" height="46.96" filterUnits="userSpaceOnUse" color-interpolation-filters="sRGB">
<feFlood flood-opacity="0" result="BackgroundImageFix"/>
<feColorMatrix in="SourceAlpha" type="matrix" values="0 0 0 0 0 0 0 0 0 0 0 0 0 0 0 0 0 0 127 0" result="hardAlpha"/>
<feOffset dy="4"/>
<feGaussianBlur stdDeviation="3"/>
<feComposite in2="hardAlpha" operator="out"/>
<feColorMatrix type="matrix" values="0 0 0 0 0 0 0 0 0 0 0 0 0 0 0 0 0 0 0.05 0"/>
<feBlend mode="normal" in2="BackgroundImageFix" result="effect1_dropShadow_7044_5971"/>
<feBlend mode="normal" in="SourceGraphic" in2="effect1_dropShadow_7044_5971" result="shape"/>
</filter>
</defs>
</svg>
