<svg width="262" height="109" viewBox="0 0 262 109" fill="none" xmlns="http://www.w3.org/2000/svg">
<g filter="url(#filter0_d_7061_5968)">
<mask id="path-1-inside-1_7061_5968" fill="white">
<path d="M7.04332 53.6331L16.7674 62L16.7674 90C16.7674 94.9706 20.7968 99 25.7674 99H246.767C251.738 99 255.767 94.9706 255.767 90V11C255.767 6.02944 251.738 2 246.767 2H25.7674C20.7968 2 16.7674 6.02944 16.7674 11L16.7674 41.5L7.15555 48.9931C5.66179 50.1575 5.60761 52.3978 7.04332 53.6331Z"/>
</mask>
<path d="M7.04332 53.6331L16.7674 62L16.7674 90C16.7674 94.9706 20.7968 99 25.7674 99H246.767C251.738 99 255.767 94.9706 255.767 90V11C255.767 6.02944 251.738 2 246.767 2H25.7674C20.7968 2 16.7674 6.02944 16.7674 11L16.7674 41.5L7.15555 48.9931C5.66179 50.1575 5.60761 52.3978 7.04332 53.6331Z" fill="#FFF2EA"/>
<path d="M16.7674 62L18.1674 62L18.1674 61.3577L17.6805 60.9388L16.7674 62ZM7.04332 53.6331L6.13021 54.6944L6.13021 54.6944L7.04332 53.6331ZM7.15555 48.9931L6.2948 47.8889L6.2948 47.8889L7.15555 48.9931ZM16.7674 41.5L17.6281 42.6041L18.1674 42.1838L18.1674 41.5L16.7674 41.5ZM16.7674 11L15.3674 11L15.3674 11L16.7674 11ZM16.7674 90L15.3674 90V90H16.7674ZM17.6805 60.9388L7.95644 52.5719L6.13021 54.6944L15.8542 63.0612L17.6805 60.9388ZM8.0163 50.0972L17.6281 42.6041L15.9066 40.3959L6.2948 47.8889L8.0163 50.0972ZM7.95644 52.5719C7.19073 51.9131 7.21963 50.7183 8.0163 50.0972L6.2948 47.8889C4.10396 49.5968 4.02449 52.8825 6.13021 54.6944L7.95644 52.5719ZM25.7674 3.4H246.767V0.6H25.7674V3.4ZM254.367 11V90H257.167V11H254.367ZM246.767 97.6H25.7674V100.4H246.767V97.6ZM18.1674 41.5L18.1674 11L15.3674 11L15.3674 41.5L18.1674 41.5ZM18.1674 90L18.1674 62L15.3674 62L15.3674 90L18.1674 90ZM25.7674 97.6C21.57 97.6 18.1674 94.1974 18.1674 90H15.3674C15.3674 95.7438 20.0236 100.4 25.7674 100.4V97.6ZM254.367 90C254.367 94.1974 250.965 97.6 246.767 97.6V100.4C252.511 100.4 257.167 95.7438 257.167 90H254.367ZM246.767 3.4C250.965 3.4 254.367 6.80264 254.367 11H257.167C257.167 5.25624 252.511 0.6 246.767 0.6V3.4ZM25.7674 0.6C20.0236 0.6 15.3674 5.25624 15.3674 11H18.1674C18.1674 6.80264 21.57 3.4 25.7674 3.4V0.6Z" fill="#997452" mask="url(#path-1-inside-1_7061_5968)"/>
<path d="M37.6165 25.0029V14.9549H38.8645V25.0029H37.6165ZM47.7009 25.0029V20.5069C47.7009 19.7763 47.5249 19.2216 47.1729 18.8429C46.8262 18.4589 46.3515 18.2669 45.7489 18.2669C45.2902 18.2669 44.8929 18.3923 44.5569 18.6429C44.2209 18.8936 43.9622 19.2536 43.7809 19.7229C43.5995 20.1869 43.5089 20.7416 43.5089 21.3869H43.0289C43.0289 20.4963 43.1462 19.7363 43.3809 19.1069C43.6155 18.4776 43.9569 17.9976 44.4049 17.6669C44.8582 17.3309 45.4075 17.1629 46.0529 17.1629C46.6555 17.1629 47.1702 17.2989 47.5969 17.5709C48.0289 17.8376 48.3595 18.2216 48.5889 18.7229C48.8182 19.2243 48.9329 19.8189 48.9329 20.5069V25.0029H47.7009ZM42.2609 25.0029V17.3549H43.3329L43.5089 19.1149V25.0029H42.2609ZM58.386 25.1949C57.97 25.1949 57.5967 25.1149 57.266 24.9549C56.9353 24.7949 56.674 24.5549 56.482 24.2349C56.29 23.9149 56.194 23.5149 56.194 23.0349V15.2269H57.426V23.0029C57.426 23.7923 57.794 24.1869 58.53 24.1869C58.7487 24.1869 58.9593 24.1629 59.162 24.1149C59.37 24.0669 59.602 23.9949 59.858 23.8989L60.034 24.7949C59.762 24.9123 59.49 25.0083 59.218 25.0829C58.9513 25.1576 58.674 25.1949 58.386 25.1949ZM54.962 18.2189V17.3549H59.842V18.2189H54.962ZM67.6496 25.0029V20.5069C67.6496 19.7763 67.4736 19.2216 67.1216 18.8429C66.7749 18.4589 66.3003 18.2669 65.6976 18.2669C65.2389 18.2669 64.8416 18.3923 64.5056 18.6429C64.1696 18.8936 63.9109 19.2536 63.7296 19.7229C63.5483 20.1869 63.4576 20.7416 63.4576 21.3869H62.9776C62.9776 20.4963 63.0949 19.7363 63.3296 19.1069C63.5643 18.4776 63.9056 17.9976 64.3536 17.6669C64.8069 17.3309 65.3563 17.1629 66.0016 17.1629C66.6043 17.1629 67.1189 17.2989 67.5456 17.5709C67.9776 17.8376 68.3083 18.2216 68.5376 18.7229C68.7669 19.2243 68.8816 19.8189 68.8816 20.5069V25.0029H67.6496ZM62.2096 25.0029V14.0909H63.4576V25.0029H62.2096ZM74.6819 25.1949C74.0205 25.1949 73.4285 25.0269 72.9059 24.6909C72.3885 24.3496 71.9779 23.8776 71.6739 23.2749C71.3752 22.6723 71.2259 21.9789 71.2259 21.1949C71.2259 20.3576 71.3752 19.6376 71.6739 19.0349C71.9725 18.4323 72.3805 17.9709 72.8979 17.6509C73.4205 17.3256 74.0152 17.1629 74.6819 17.1629C75.2632 17.1629 75.7592 17.2803 76.1699 17.5149C76.5805 17.7496 76.9112 18.0669 77.1619 18.4669C77.4125 18.8669 77.5859 19.3203 77.6819 19.8269C77.7832 20.3283 77.8125 20.8483 77.7699 21.3869H72.2339V20.6189H76.9459L76.5779 20.8589C76.5939 20.5443 76.5752 20.2296 76.5219 19.9149C76.4739 19.6003 76.3805 19.3123 76.2419 19.0509C76.1032 18.7843 75.9085 18.5709 75.6579 18.4109C75.4072 18.2509 75.0872 18.1709 74.6979 18.1709C74.2072 18.1709 73.7965 18.2963 73.4659 18.5469C73.1352 18.7976 72.8872 19.1283 72.7219 19.5389C72.5565 19.9443 72.4739 20.3843 72.4739 20.8589V21.3709C72.4739 21.9043 72.5539 22.3816 72.7139 22.8029C72.8792 23.2243 73.1245 23.5576 73.4499 23.8029C73.7752 24.0483 74.1859 24.1709 74.6819 24.1709C75.1779 24.1709 75.5859 24.0509 75.9059 23.8109C76.2259 23.5709 76.4205 23.2163 76.4899 22.7469H77.7859C77.7059 23.2536 77.5245 23.6909 77.2419 24.0589C76.9592 24.4216 76.5992 24.7016 76.1619 24.8989C75.7245 25.0963 75.2312 25.1949 74.6819 25.1949ZM87.1135 25.1949C86.3722 25.1949 85.7535 25.0909 85.2575 24.8829C84.7615 24.6696 84.3855 24.3789 84.1295 24.0109C83.8735 23.6376 83.7375 23.2109 83.7215 22.7309H84.9215C84.9482 23.2163 85.1428 23.5816 85.5055 23.8269C85.8735 24.0669 86.3722 24.1869 87.0015 24.1869C87.3322 24.1869 87.6362 24.1336 87.9135 24.0269C88.1908 23.9203 88.4122 23.7736 88.5775 23.5869C88.7428 23.4003 88.8255 23.1896 88.8255 22.9549C88.8255 22.6563 88.7162 22.4216 88.4975 22.2509C88.2788 22.0803 87.9295 21.9309 87.4495 21.8029L85.9615 21.3229C85.3162 21.1203 84.8202 20.8429 84.4735 20.4909C84.1322 20.1336 83.9615 19.7069 83.9615 19.2109C83.9615 18.5923 84.2335 18.0963 84.7775 17.7229C85.3215 17.3496 86.0362 17.1629 86.9215 17.1629C87.8602 17.1629 88.5882 17.3549 89.1055 17.7389C89.6228 18.1229 89.8922 18.6029 89.9135 19.1789H88.6815C88.6335 18.8429 88.4628 18.5896 88.1695 18.4189C87.8762 18.2429 87.4602 18.1549 86.9215 18.1549C86.4042 18.1549 85.9988 18.2723 85.7055 18.5069C85.4175 18.7363 85.2735 18.9923 85.2735 19.2749C85.2735 19.8029 85.7268 20.1923 86.6335 20.4429L88.1535 20.9549C88.8095 21.1523 89.3108 21.4109 89.6575 21.7309C90.0095 22.0509 90.1855 22.4589 90.1855 22.9549C90.1855 23.3389 90.0602 23.7016 89.8095 24.0429C89.5588 24.3843 89.2042 24.6616 88.7455 24.8749C88.2868 25.0883 87.7428 25.1949 87.1135 25.1949ZM95.5837 25.1949C94.9224 25.1949 94.3304 25.0269 93.8077 24.6909C93.2904 24.3496 92.8797 23.8776 92.5757 23.2749C92.2771 22.6723 92.1277 21.9789 92.1277 21.1949C92.1277 20.3576 92.2771 19.6376 92.5757 19.0349C92.8744 18.4323 93.2824 17.9709 93.7997 17.6509C94.3224 17.3256 94.9171 17.1629 95.5837 17.1629C96.1651 17.1629 96.6611 17.2803 97.0717 17.5149C97.4824 17.7496 97.8131 18.0669 98.0637 18.4669C98.3144 18.8669 98.4877 19.3203 98.5837 19.8269C98.6851 20.3283 98.7144 20.8483 98.6717 21.3869H93.1357V20.6189H97.8477L97.4797 20.8589C97.4957 20.5443 97.4771 20.2296 97.4237 19.9149C97.3757 19.6003 97.2824 19.3123 97.1437 19.0509C97.0051 18.7843 96.8104 18.5709 96.5597 18.4109C96.3091 18.2509 95.9891 18.1709 95.5997 18.1709C95.1091 18.1709 94.6984 18.2963 94.3677 18.5469C94.0371 18.7976 93.7891 19.1283 93.6237 19.5389C93.4584 19.9443 93.3757 20.3843 93.3757 20.8589V21.3709C93.3757 21.9043 93.4557 22.3816 93.6157 22.8029C93.7811 23.2243 94.0264 23.5576 94.3517 23.8029C94.6771 24.0483 95.0877 24.1709 95.5837 24.1709C96.0797 24.1709 96.4877 24.0509 96.8077 23.8109C97.1277 23.5709 97.3224 23.2163 97.3917 22.7469H98.6877C98.6077 23.2536 98.4264 23.6909 98.1437 24.0589C97.8611 24.4216 97.5011 24.7016 97.0637 24.8989C96.6264 25.0963 96.1331 25.1949 95.5837 25.1949ZM103.994 25.1949C103.381 25.1949 102.808 25.0296 102.274 24.6989C101.746 24.3683 101.32 23.9016 100.994 23.2989C100.669 22.6963 100.506 21.9843 100.506 21.1629C100.506 20.3203 100.669 19.6003 100.994 19.0029C101.32 18.4056 101.746 17.9496 102.274 17.6349C102.808 17.3203 103.381 17.1629 103.994 17.1629C104.426 17.1629 104.813 17.2296 105.154 17.3629C105.501 17.4909 105.802 17.6696 106.058 17.8989C106.314 18.1283 106.525 18.3896 106.69 18.6829C106.861 18.9709 106.986 19.2749 107.066 19.5949L105.786 19.7069C105.653 19.2643 105.429 18.9149 105.114 18.6589C104.805 18.3976 104.426 18.2669 103.978 18.2669C103.6 18.2669 103.242 18.3763 102.906 18.5949C102.576 18.8083 102.306 19.1309 102.098 19.5629C101.89 19.9896 101.786 20.5229 101.786 21.1629C101.786 21.7549 101.88 22.2696 102.066 22.7069C102.258 23.1389 102.52 23.4749 102.85 23.7149C103.181 23.9549 103.557 24.0749 103.978 24.0749C104.57 24.0749 105.018 23.9309 105.322 23.6429C105.632 23.3496 105.786 22.9443 105.786 22.4269H107.066C107.066 22.9603 106.941 23.4349 106.69 23.8509C106.44 24.2669 106.082 24.5949 105.618 24.8349C105.16 25.0749 104.618 25.1949 103.994 25.1949ZM112.068 25.1949C111.652 25.1949 111.279 25.1149 110.948 24.9549C110.618 24.7949 110.356 24.5549 110.164 24.2349C109.972 23.9149 109.876 23.5149 109.876 23.0349V15.2269H111.108V23.0029C111.108 23.7923 111.476 24.1869 112.212 24.1869C112.431 24.1869 112.642 24.1629 112.844 24.1149C113.052 24.0669 113.284 23.9949 113.54 23.8989L113.716 24.7949C113.444 24.9123 113.172 25.0083 112.9 25.0829C112.634 25.1576 112.356 25.1949 112.068 25.1949ZM108.644 18.2189V17.3549H113.524V18.2189H108.644ZM116.596 15.5469C116.34 15.5469 116.137 15.4749 115.988 15.3309C115.839 15.1816 115.764 14.9869 115.764 14.7469C115.764 14.5123 115.839 14.3256 115.988 14.1869C116.137 14.0483 116.34 13.9789 116.596 13.9789C116.852 13.9789 117.055 14.0483 117.204 14.1869C117.353 14.3256 117.428 14.5123 117.428 14.7469C117.428 14.9869 117.353 15.1816 117.204 15.3309C117.055 15.4749 116.852 15.5469 116.596 15.5469ZM115.972 25.0029V17.3389H117.22V25.0029H115.972ZM123.586 25.1949C122.898 25.1949 122.284 25.0429 121.746 24.7389C121.212 24.4349 120.791 23.9843 120.482 23.3869C120.172 22.7896 120.018 22.0536 120.018 21.1789C120.018 20.2989 120.172 19.5629 120.482 18.9709C120.791 18.3736 121.212 17.9229 121.746 17.6189C122.284 17.3149 122.898 17.1629 123.586 17.1629C124.268 17.1629 124.876 17.3149 125.41 17.6189C125.948 17.9229 126.37 18.3736 126.674 18.9709C126.983 19.5629 127.138 20.2989 127.138 21.1789C127.138 22.0536 126.983 22.7896 126.674 23.3869C126.37 23.9843 125.948 24.4349 125.41 24.7389C124.876 25.0429 124.268 25.1949 123.586 25.1949ZM123.554 24.1069C124.05 24.1069 124.471 23.9896 124.818 23.7549C125.164 23.5149 125.426 23.1763 125.602 22.7389C125.783 22.3016 125.874 21.7816 125.874 21.1789C125.874 20.2669 125.684 19.5496 125.306 19.0269C124.927 18.4989 124.364 18.2349 123.618 18.2349C123.116 18.2349 122.692 18.3549 122.346 18.5949C122.004 18.8296 121.743 19.1683 121.562 19.6109C121.386 20.0483 121.298 20.5709 121.298 21.1789C121.298 22.0803 121.487 22.7949 121.866 23.3229C122.25 23.8456 122.812 24.1069 123.554 24.1069ZM135.168 25.0029V20.5069C135.168 19.7763 134.992 19.2216 134.64 18.8429C134.293 18.4589 133.818 18.2669 133.216 18.2669C132.757 18.2669 132.36 18.3923 132.024 18.6429C131.688 18.8936 131.429 19.2536 131.248 19.7229C131.066 20.1869 130.976 20.7416 130.976 21.3869H130.496C130.496 20.4963 130.613 19.7363 130.848 19.1069C131.082 18.4776 131.424 17.9976 131.872 17.6669C132.325 17.3309 132.874 17.1629 133.52 17.1629C134.122 17.1629 134.637 17.2989 135.064 17.5709C135.496 17.8376 135.826 18.2216 136.056 18.7229C136.285 19.2243 136.4 19.8189 136.4 20.5069V25.0029H135.168ZM129.728 25.0029V17.3549H130.8L130.976 19.1149V25.0029H129.728ZM148.237 25.0029L148.077 23.3229V20.0429C148.077 19.3549 147.93 18.8616 147.637 18.5629C147.344 18.2589 146.904 18.1069 146.317 18.1069C145.986 18.1069 145.685 18.1549 145.413 18.2509C145.146 18.3469 144.933 18.4963 144.773 18.6989C144.618 18.8963 144.541 19.1523 144.541 19.4669H143.149C143.149 18.9123 143.285 18.4669 143.557 18.1309C143.829 17.7896 144.202 17.5443 144.677 17.3949C145.157 17.2403 145.704 17.1629 146.317 17.1629C146.904 17.1629 147.424 17.2616 147.877 17.4589C148.33 17.6563 148.685 17.9709 148.941 18.4029C149.197 18.8296 149.325 19.3869 149.325 20.0749V25.0029H148.237ZM145.629 25.1949C145 25.1949 144.48 25.0829 144.069 24.8589C143.658 24.6349 143.352 24.3443 143.149 23.9869C142.946 23.6296 142.845 23.2536 142.845 22.8589C142.845 22.3416 142.973 21.9203 143.229 21.5949C143.49 21.2696 143.845 21.0323 144.293 20.8829C144.741 20.7283 145.245 20.6509 145.805 20.6509C146.205 20.6509 146.605 20.6909 147.005 20.7709C147.41 20.8509 147.805 20.9603 148.189 21.0989V21.8829C147.869 21.7549 147.506 21.6536 147.101 21.5789C146.701 21.5043 146.333 21.4669 145.997 21.4669C145.485 21.4669 145.053 21.5736 144.701 21.7869C144.349 21.9949 144.173 22.3523 144.173 22.8589C144.173 23.2323 144.306 23.5523 144.573 23.8189C144.845 24.0856 145.277 24.2189 145.869 24.2189C146.285 24.2189 146.658 24.1229 146.989 23.9309C147.325 23.7336 147.589 23.4883 147.781 23.1949C147.978 22.9016 148.077 22.6083 148.077 22.3149H148.381C148.381 22.8269 148.269 23.3016 148.045 23.7389C147.826 24.1763 147.512 24.5283 147.101 24.7949C146.69 25.0616 146.2 25.1949 145.629 25.1949ZM155.977 25.1949C155.465 25.1949 155.001 25.0616 154.585 24.7949C154.175 24.5283 153.847 24.1389 153.601 23.6269C153.361 23.1096 153.241 22.4803 153.241 21.7389H153.721C153.721 22.2349 153.823 22.6589 154.025 23.0109C154.233 23.3576 154.5 23.6216 154.825 23.8029C155.151 23.9843 155.492 24.0749 155.849 24.0749C156.26 24.0749 156.636 23.9576 156.977 23.7229C157.319 23.4883 157.591 23.1523 157.793 22.7149C158.001 22.2776 158.105 21.7549 158.105 21.1469C158.105 20.5496 158.004 20.0376 157.801 19.6109C157.599 19.1789 157.324 18.8483 156.977 18.6189C156.636 18.3843 156.255 18.2669 155.833 18.2669C155.471 18.2669 155.127 18.3576 154.801 18.5389C154.481 18.7149 154.22 18.9763 154.017 19.3229C153.82 19.6696 153.721 20.0963 153.721 20.6029H153.241C153.241 19.8776 153.359 19.2589 153.593 18.7469C153.833 18.2349 154.164 17.8429 154.585 17.5709C155.007 17.2989 155.497 17.1629 156.057 17.1629C156.66 17.1629 157.212 17.3256 157.713 17.6509C158.22 17.9709 158.625 18.4296 158.929 19.0269C159.233 19.6243 159.385 20.3309 159.385 21.1469C159.385 21.9683 159.231 22.6829 158.921 23.2909C158.612 23.8936 158.199 24.3629 157.681 24.6989C157.164 25.0296 156.596 25.1949 155.977 25.1949ZM152.473 25.0029V14.0909H153.721V23.2109L153.353 25.0029H152.473ZM164.886 25.1949C164.198 25.1949 163.584 25.0429 163.046 24.7389C162.512 24.4349 162.091 23.9843 161.782 23.3869C161.472 22.7896 161.318 22.0536 161.318 21.1789C161.318 20.2989 161.472 19.5629 161.782 18.9709C162.091 18.3736 162.512 17.9229 163.046 17.6189C163.584 17.3149 164.198 17.1629 164.886 17.1629C165.568 17.1629 166.176 17.3149 166.71 17.6189C167.248 17.9229 167.67 18.3736 167.974 18.9709C168.283 19.5629 168.438 20.2989 168.438 21.1789C168.438 22.0536 168.283 22.7896 167.974 23.3869C167.67 23.9843 167.248 24.4349 166.71 24.7389C166.176 25.0429 165.568 25.1949 164.886 25.1949ZM164.854 24.1069C165.35 24.1069 165.771 23.9896 166.118 23.7549C166.464 23.5149 166.726 23.1763 166.902 22.7389C167.083 22.3016 167.174 21.7816 167.174 21.1789C167.174 20.2669 166.984 19.5496 166.606 19.0269C166.227 18.4989 165.664 18.2349 164.918 18.2349C164.416 18.2349 163.992 18.3549 163.646 18.5949C163.304 18.8296 163.043 19.1683 162.862 19.6109C162.686 20.0483 162.598 20.5709 162.598 21.1789C162.598 22.0803 162.787 22.7949 163.166 23.3229C163.55 23.8456 164.112 24.1069 164.854 24.1069ZM176.228 17.3389H177.476V25.0029H176.228V17.3389ZM170.804 17.3389H172.052V22.1069C172.052 22.7469 172.206 23.2323 172.516 23.5629C172.83 23.8936 173.278 24.0589 173.86 24.0589C174.34 24.0589 174.756 23.9309 175.108 23.6749C175.465 23.4189 175.74 23.0669 175.932 22.6189C176.129 22.1656 176.228 21.6483 176.228 21.0669H176.692C176.692 21.9256 176.566 22.6589 176.316 23.2669C176.07 23.8749 175.721 24.3416 175.268 24.6669C174.82 24.9869 174.292 25.1469 173.684 25.1469C173.108 25.1469 172.604 25.0403 172.172 24.8269C171.74 24.6136 171.404 24.2909 171.164 23.8589C170.924 23.4216 170.804 22.8696 170.804 22.2029V17.3389ZM183.227 25.1949C182.811 25.1949 182.438 25.1149 182.107 24.9549C181.777 24.7949 181.515 24.5549 181.323 24.2349C181.131 23.9149 181.035 23.5149 181.035 23.0349V15.2269H182.267V23.0029C182.267 23.7923 182.635 24.1869 183.371 24.1869C183.59 24.1869 183.801 24.1629 184.003 24.1149C184.211 24.0669 184.443 23.9949 184.699 23.8989L184.875 24.7949C184.603 24.9123 184.331 25.0083 184.059 25.0829C183.793 25.1576 183.515 25.1949 183.227 25.1949ZM179.803 18.2189V17.3549H184.683V18.2189H179.803ZM40.8325 45.1949C40.1605 45.1949 39.5445 45.0749 38.9845 44.8349C38.4245 44.5896 37.9738 44.2296 37.6325 43.7549C37.2912 43.2803 37.1152 42.6936 37.1045 41.9949H38.3205C38.3205 42.4643 38.4352 42.8509 38.6645 43.1549C38.8938 43.4536 39.1978 43.6776 39.5765 43.8269C39.9552 43.9709 40.3685 44.0429 40.8165 44.0429C41.3018 44.0429 41.7232 43.9656 42.0805 43.8109C42.4378 43.6563 42.7125 43.4536 42.9045 43.2029C43.1018 42.9469 43.2005 42.6669 43.2005 42.3629C43.2005 41.9363 43.0698 41.5923 42.8085 41.3309C42.5472 41.0643 42.1605 40.8483 41.6485 40.6829L39.8725 40.0589C39.0405 39.7603 38.4112 39.4189 37.9845 39.0349C37.5578 38.6509 37.3445 38.1123 37.3445 37.4189C37.3445 36.6403 37.6432 36.0056 38.2405 35.5149C38.8432 35.0243 39.6965 34.7789 40.8005 34.7789C41.8245 34.7789 42.6245 35.0163 43.2005 35.4909C43.7765 35.9603 44.1072 36.5923 44.1925 37.3869H42.9605C42.8805 36.9229 42.6618 36.5629 42.3045 36.3069C41.9525 36.0456 41.4512 35.9149 40.8005 35.9149C40.1392 35.9149 39.6245 36.0616 39.2565 36.3549C38.8885 36.6483 38.7045 37.0189 38.7045 37.4669C38.7045 37.8349 38.8192 38.1283 39.0485 38.3469C39.2832 38.5603 39.6485 38.7523 40.1445 38.9229L42.2245 39.6429C42.9445 39.8829 43.5125 40.2189 43.9285 40.6509C44.3498 41.0829 44.5605 41.6429 44.5605 42.3309C44.5605 42.8643 44.4165 43.3469 44.1285 43.7789C43.8458 44.2109 43.4272 44.5549 42.8725 44.8109C42.3178 45.0669 41.6378 45.1949 40.8325 45.1949ZM45.5545 34.9549H47.0585L49.9385 39.8349H49.6185L52.5465 34.9549H54.0345L50.4025 40.8749V45.0029H49.1385V40.8749L45.5545 34.9549ZM55.9677 34.9549H57.7597L61.2157 41.8989H61.0877L64.5437 34.9549H66.2877V45.0029H65.0237V36.2509H65.2477L61.5677 43.7389H60.7357L57.0717 36.2989H57.2157V45.0029H55.9677V34.9549ZM69.6426 45.0029V34.9549H72.8746C73.9786 34.9549 74.8213 35.2349 75.4026 35.7949C75.9893 36.3496 76.2826 37.1043 76.2826 38.0589C76.2826 39.0029 75.9893 39.7523 75.4026 40.3069C74.8213 40.8563 73.9786 41.1309 72.8746 41.1309H70.9066V45.0029H69.6426ZM70.9066 40.0429H72.8746C73.5733 40.0429 74.1013 39.8643 74.4586 39.5069C74.8213 39.1496 75.0026 38.6669 75.0026 38.0589C75.0026 37.4403 74.8213 36.9469 74.4586 36.5789C74.1013 36.2109 73.5733 36.0269 72.8746 36.0269H70.9066V40.0429ZM77.174 36.0269V34.9549H84.998V36.0269H81.422L81.702 35.7389V45.0029H80.454V35.7389L80.734 36.0269H77.174ZM90.4216 45.1949C89.5896 45.1949 88.8456 45.0029 88.1896 44.6189C87.5336 44.2349 87.0163 43.6589 86.6376 42.8909C86.2589 42.1176 86.0696 41.1523 86.0696 39.9949C86.0696 38.8216 86.2589 37.8509 86.6376 37.0829C87.0163 36.3096 87.5336 35.7336 88.1896 35.3549C88.8456 34.9709 89.5896 34.7789 90.4216 34.7789C91.2536 34.7789 91.9976 34.9709 92.6536 35.3549C93.3096 35.7389 93.8269 36.3176 94.2056 37.0909C94.5843 37.8643 94.7736 38.8323 94.7736 39.9949C94.7736 41.1629 94.5843 42.1336 94.2056 42.9069C93.8269 43.6749 93.3096 44.2483 92.6536 44.6269C91.9976 45.0056 91.2536 45.1949 90.4216 45.1949ZM90.4216 44.0429C91.3656 44.0429 92.1096 43.6989 92.6536 43.0109C93.2029 42.3229 93.4776 41.3123 93.4776 39.9789C93.4776 38.6723 93.2029 37.6669 92.6536 36.9629C92.1096 36.2536 91.3656 35.8989 90.4216 35.8989C89.4883 35.8989 88.7443 36.2536 88.1896 36.9629C87.6403 37.6723 87.3656 38.6829 87.3656 39.9949C87.3656 41.3229 87.6403 42.3309 88.1896 43.0189C88.7443 43.7016 89.4883 44.0429 90.4216 44.0429ZM97.3577 34.9549H99.1497L102.606 41.8989H102.478L105.934 34.9549H107.678V45.0029H106.414V36.2509H106.638L102.958 43.7389H102.126L98.4617 36.2989H98.6057V45.0029H97.3577V34.9549ZM114.281 45.1949C113.609 45.1949 112.993 45.0749 112.433 44.8349C111.873 44.5896 111.422 44.2296 111.081 43.7549C110.739 43.2803 110.563 42.6936 110.553 41.9949H111.769C111.769 42.4643 111.883 42.8509 112.113 43.1549C112.342 43.4536 112.646 43.6776 113.025 43.8269C113.403 43.9709 113.817 44.0429 114.265 44.0429C114.75 44.0429 115.171 43.9656 115.529 43.8109C115.886 43.6563 116.161 43.4536 116.353 43.2029C116.55 42.9469 116.649 42.6669 116.649 42.3629C116.649 41.9363 116.518 41.5923 116.257 41.3309C115.995 41.0643 115.609 40.8483 115.097 40.6829L113.321 40.0589C112.489 39.7603 111.859 39.4189 111.433 39.0349C111.006 38.6509 110.793 38.1123 110.793 37.4189C110.793 36.6403 111.091 36.0056 111.689 35.5149C112.291 35.0243 113.145 34.7789 114.249 34.7789C115.273 34.7789 116.073 35.0163 116.649 35.4909C117.225 35.9603 117.555 36.5923 117.641 37.3869H116.409C116.329 36.9229 116.11 36.5629 115.753 36.3069C115.401 36.0456 114.899 35.9149 114.249 35.9149C113.587 35.9149 113.073 36.0616 112.705 36.3549C112.337 36.6483 112.153 37.0189 112.153 37.4669C112.153 37.8349 112.267 38.1283 112.497 38.3469C112.731 38.5603 113.097 38.7523 113.593 38.9229L115.673 39.6429C116.393 39.8829 116.961 40.2189 117.377 40.6509C117.798 41.0829 118.009 41.6429 118.009 42.3309C118.009 42.8643 117.865 43.3469 117.577 43.7789C117.294 44.2109 116.875 44.5549 116.321 44.8109C115.766 45.0669 115.086 45.1949 114.281 45.1949ZM123.589 37.3549H124.981L127.477 43.9149H127.189L129.125 37.3549H130.405L127.525 46.5389C127.285 47.3069 126.965 47.8989 126.565 48.3149C126.165 48.7309 125.653 48.9389 125.029 48.9389C124.693 48.9389 124.373 48.8909 124.069 48.7949C123.771 48.6989 123.461 48.5603 123.141 48.3789V47.2269C123.424 47.4509 123.696 47.6109 123.957 47.7069C124.224 47.8029 124.501 47.8509 124.789 47.8509C125.109 47.8509 125.376 47.7496 125.589 47.5469C125.808 47.3443 125.989 47.0829 126.133 46.7629C126.277 46.4483 126.4 46.1176 126.501 45.7709L126.725 45.0029L123.589 37.3549ZM135.234 45.1949C134.546 45.1949 133.933 45.0429 133.394 44.7389C132.861 44.4349 132.44 43.9843 132.13 43.3869C131.821 42.7896 131.666 42.0536 131.666 41.1789C131.666 40.2989 131.821 39.5629 132.13 38.9709C132.44 38.3736 132.861 37.9229 133.394 37.6189C133.933 37.3149 134.546 37.1629 135.234 37.1629C135.917 37.1629 136.525 37.3149 137.058 37.6189C137.597 37.9229 138.018 38.3736 138.322 38.9709C138.632 39.5629 138.786 40.2989 138.786 41.1789C138.786 42.0536 138.632 42.7896 138.322 43.3869C138.018 43.9843 137.597 44.4349 137.058 44.7389C136.525 45.0429 135.917 45.1949 135.234 45.1949ZM135.202 44.1069C135.698 44.1069 136.12 43.9896 136.466 43.7549C136.813 43.5149 137.074 43.1763 137.25 42.7389C137.432 42.3016 137.522 41.7816 137.522 41.1789C137.522 40.2669 137.333 39.5496 136.954 39.0269C136.576 38.4989 136.013 38.2349 135.266 38.2349C134.765 38.2349 134.341 38.3549 133.994 38.5949C133.653 38.8296 133.392 39.1683 133.21 39.6109C133.034 40.0483 132.946 40.5709 132.946 41.1789C132.946 42.0803 133.136 42.7949 133.514 43.3229C133.898 43.8456 134.461 44.1069 135.202 44.1069ZM146.576 37.3389H147.824V45.0029H146.576V37.3389ZM141.152 37.3389H142.4V42.1069C142.4 42.7469 142.555 43.2323 142.864 43.5629C143.179 43.8936 143.627 44.0589 144.208 44.0589C144.688 44.0589 145.104 43.9309 145.456 43.6749C145.814 43.4189 146.088 43.0669 146.28 42.6189C146.478 42.1656 146.576 41.6483 146.576 41.0669H147.04C147.04 41.9256 146.915 42.6589 146.664 43.2669C146.419 43.8749 146.07 44.3416 145.616 44.6669C145.168 44.9869 144.64 45.1469 144.032 45.1469C143.456 45.1469 142.952 45.0403 142.52 44.8269C142.088 44.6136 141.752 44.2909 141.512 43.8589C141.272 43.4216 141.152 42.8696 141.152 42.2029V37.3389ZM157.869 45.1949C157.256 45.1949 156.682 45.0296 156.149 44.6989C155.621 44.3683 155.194 43.9016 154.869 43.2989C154.544 42.6963 154.381 41.9843 154.381 41.1629C154.381 40.3203 154.544 39.6003 154.869 39.0029C155.194 38.4056 155.621 37.9496 156.149 37.6349C156.682 37.3203 157.256 37.1629 157.869 37.1629C158.301 37.1629 158.688 37.2296 159.029 37.3629C159.376 37.4909 159.677 37.6696 159.933 37.8989C160.189 38.1283 160.4 38.3896 160.565 38.6829C160.736 38.9709 160.861 39.2749 160.941 39.5949L159.661 39.7069C159.528 39.2643 159.304 38.9149 158.989 38.6589C158.68 38.3976 158.301 38.2669 157.853 38.2669C157.474 38.2669 157.117 38.3763 156.781 38.5949C156.45 38.8083 156.181 39.1309 155.973 39.5629C155.765 39.9896 155.661 40.5229 155.661 41.1629C155.661 41.7549 155.754 42.2696 155.941 42.7069C156.133 43.1389 156.394 43.4749 156.725 43.7149C157.056 43.9549 157.432 44.0749 157.853 44.0749C158.445 44.0749 158.893 43.9309 159.197 43.6429C159.506 43.3496 159.661 42.9443 159.661 42.4269H160.941C160.941 42.9603 160.816 43.4349 160.565 43.8509C160.314 44.2669 159.957 44.5949 159.493 44.8349C159.034 45.0749 158.493 45.1949 157.869 45.1949ZM168.327 45.0029L168.167 43.3229V40.0429C168.167 39.3549 168.02 38.8616 167.727 38.5629C167.434 38.2589 166.994 38.1069 166.407 38.1069C166.076 38.1069 165.775 38.1549 165.503 38.2509C165.236 38.3469 165.023 38.4963 164.863 38.6989C164.708 38.8963 164.631 39.1523 164.631 39.4669H163.239C163.239 38.9123 163.375 38.4669 163.647 38.1309C163.919 37.7896 164.292 37.5443 164.767 37.3949C165.247 37.2403 165.794 37.1629 166.407 37.1629C166.994 37.1629 167.514 37.2616 167.967 37.4589C168.42 37.6563 168.775 37.9709 169.031 38.4029C169.287 38.8296 169.415 39.3869 169.415 40.0749V45.0029H168.327ZM165.719 45.1949C165.09 45.1949 164.57 45.0829 164.159 44.8589C163.748 44.6349 163.442 44.3443 163.239 43.9869C163.036 43.6296 162.935 43.2536 162.935 42.8589C162.935 42.3416 163.063 41.9203 163.319 41.5949C163.58 41.2696 163.935 41.0323 164.383 40.8829C164.831 40.7283 165.335 40.6509 165.895 40.6509C166.295 40.6509 166.695 40.6909 167.095 40.7709C167.5 40.8509 167.895 40.9603 168.279 41.0989V41.8829C167.959 41.7549 167.596 41.6536 167.191 41.5789C166.791 41.5043 166.423 41.4669 166.087 41.4669C165.575 41.4669 165.143 41.5736 164.791 41.7869C164.439 41.9949 164.263 42.3523 164.263 42.8589C164.263 43.2323 164.396 43.5523 164.663 43.8189C164.935 44.0856 165.367 44.2189 165.959 44.2189C166.375 44.2189 166.748 44.1229 167.079 43.9309C167.415 43.7336 167.679 43.4883 167.871 43.1949C168.068 42.9016 168.167 42.6083 168.167 42.3149H168.471C168.471 42.8269 168.359 43.3016 168.135 43.7389C167.916 44.1763 167.602 44.5283 167.191 44.7949C166.78 45.0616 166.29 45.1949 165.719 45.1949ZM178.003 45.0029V40.5069C178.003 39.7763 177.827 39.2216 177.475 38.8429C177.129 38.4589 176.654 38.2669 176.051 38.2669C175.593 38.2669 175.195 38.3923 174.859 38.6429C174.523 38.8936 174.265 39.2536 174.083 39.7229C173.902 40.1869 173.811 40.7416 173.811 41.3869H173.331C173.331 40.4963 173.449 39.7363 173.683 39.1069C173.918 38.4776 174.259 37.9976 174.707 37.6669C175.161 37.3309 175.71 37.1629 176.355 37.1629C176.958 37.1629 177.473 37.2989 177.899 37.5709C178.331 37.8376 178.662 38.2216 178.891 38.7229C179.121 39.2243 179.235 39.8189 179.235 40.5069V45.0029H178.003ZM172.563 45.0029V37.3549H173.635L173.811 39.1149V45.0029H172.563ZM186.752 45.0029V36.1709C186.752 35.6643 186.848 35.2509 187.04 34.9309C187.238 34.6056 187.499 34.3656 187.824 34.2109C188.155 34.0563 188.523 33.9789 188.928 33.9789C189.147 33.9789 189.368 33.9949 189.592 34.0269C189.822 34.0589 190.048 34.1069 190.272 34.1709L190.032 35.1629C189.872 35.0989 189.712 35.0509 189.552 35.0189C189.398 34.9869 189.248 34.9709 189.104 34.9709C188.934 34.9709 188.763 35.0029 188.592 35.0669C188.422 35.1309 188.28 35.2509 188.168 35.4269C188.056 35.6029 188 35.8563 188 36.1869V45.0029H186.752ZM185.504 38.2189V37.3549H189.584V38.2189H185.504ZM192.52 35.5469C192.264 35.5469 192.062 35.4749 191.912 35.3309C191.763 35.1816 191.688 34.9869 191.688 34.7469C191.688 34.5123 191.763 34.3256 191.912 34.1869C192.062 34.0483 192.264 33.9789 192.52 33.9789C192.776 33.9789 192.979 34.0483 193.128 34.1869C193.278 34.3256 193.352 34.5123 193.352 34.7469C193.352 34.9869 193.278 35.1816 193.128 35.3309C192.979 35.4749 192.776 35.5469 192.52 35.5469ZM191.896 45.0029V37.3389H193.144V45.0029H191.896ZM202.186 45.0029V40.5069C202.186 39.7763 202.01 39.2216 201.658 38.8429C201.312 38.4589 200.837 38.2669 200.234 38.2669C199.776 38.2669 199.378 38.3923 199.042 38.6429C198.706 38.8936 198.448 39.2536 198.266 39.7229C198.085 40.1869 197.994 40.7416 197.994 41.3869H197.514C197.514 40.4963 197.632 39.7363 197.866 39.1069C198.101 38.4776 198.442 37.9976 198.89 37.6669C199.344 37.3309 199.893 37.1629 200.538 37.1629C201.141 37.1629 201.656 37.2989 202.082 37.5709C202.514 37.8376 202.845 38.2216 203.074 38.7229C203.304 39.2243 203.418 39.8189 203.418 40.5069V45.0029H202.186ZM196.746 45.0029V37.3549H197.818L197.994 39.1149V45.0029H196.746ZM209.299 45.1949C208.68 45.1949 208.112 45.0296 207.595 44.6989C207.077 44.3629 206.664 43.8936 206.355 43.2909C206.045 42.6829 205.891 41.9683 205.891 41.1469C205.891 40.3309 206.043 39.6243 206.347 39.0269C206.651 38.4296 207.053 37.9709 207.555 37.6509C208.061 37.3256 208.616 37.1629 209.219 37.1629C209.779 37.1629 210.269 37.2989 210.691 37.5709C211.117 37.8429 211.448 38.2349 211.683 38.7469C211.917 39.2589 212.035 39.8776 212.035 40.6029H211.555C211.555 40.0963 211.453 39.6696 211.251 39.3229C211.053 38.9763 210.795 38.7149 210.475 38.5389C210.155 38.3576 209.811 38.2669 209.443 38.2669C209.027 38.2669 208.645 38.3843 208.299 38.6189C207.957 38.8483 207.683 39.1789 207.475 39.6109C207.272 40.0376 207.171 40.5496 207.171 41.1469C207.171 41.7549 207.272 42.2776 207.475 42.7149C207.683 43.1523 207.957 43.4883 208.299 43.7229C208.645 43.9576 209.027 44.0749 209.443 44.0749C209.789 44.0749 210.123 43.9843 210.443 43.8029C210.768 43.6216 211.035 43.3576 211.243 43.0109C211.451 42.6589 211.555 42.2349 211.555 41.7389H212.035C212.035 42.4803 211.912 43.1096 211.667 43.6269C211.427 44.1389 211.099 44.5283 210.683 44.7949C210.272 45.0616 209.811 45.1949 209.299 45.1949ZM211.763 45.0029L211.555 43.2109V34.0909H212.803V45.0029H211.763ZM39.9685 65.1949C39.5525 65.1949 39.1792 65.1149 38.8485 64.9549C38.5178 64.7949 38.2565 64.5549 38.0645 64.2349C37.8725 63.9149 37.7765 63.5149 37.7765 63.0349V55.2269H39.0085V63.0029C39.0085 63.7923 39.3765 64.1869 40.1125 64.1869C40.3312 64.1869 40.5418 64.1629 40.7445 64.1149C40.9525 64.0669 41.1845 63.9949 41.4405 63.8989L41.6165 64.7949C41.3445 64.9123 41.0725 65.0083 40.8005 65.0829C40.5338 65.1576 40.2565 65.1949 39.9685 65.1949ZM36.5445 58.2189V57.3549H41.4245V58.2189H36.5445ZM49.2321 65.0029V60.5069C49.2321 59.7763 49.0561 59.2216 48.7041 58.8429C48.3574 58.4589 47.8828 58.2669 47.2801 58.2669C46.8214 58.2669 46.4241 58.3923 46.0881 58.6429C45.7521 58.8936 45.4934 59.2536 45.3121 59.7229C45.1308 60.1869 45.0401 60.7416 45.0401 61.3869H44.5601C44.5601 60.4963 44.6774 59.7363 44.9121 59.1069C45.1468 58.4776 45.4881 57.9976 45.9361 57.6669C46.3894 57.3309 46.9388 57.1629 47.5841 57.1629C48.1868 57.1629 48.7014 57.2989 49.1281 57.5709C49.5601 57.8376 49.8908 58.2216 50.1201 58.7229C50.3494 59.2243 50.4641 59.8189 50.4641 60.5069V65.0029H49.2321ZM43.7921 65.0029V54.0909H45.0401V65.0029H43.7921ZM56.2644 65.1949C55.603 65.1949 55.011 65.0269 54.4884 64.6909C53.971 64.3496 53.5604 63.8776 53.2564 63.2749C52.9577 62.6723 52.8084 61.9789 52.8084 61.1949C52.8084 60.3576 52.9577 59.6376 53.2564 59.0349C53.555 58.4323 53.963 57.9709 54.4804 57.6509C55.003 57.3256 55.5977 57.1629 56.2644 57.1629C56.8457 57.1629 57.3417 57.2803 57.7524 57.5149C58.163 57.7496 58.4937 58.0669 58.7444 58.4669C58.995 58.8669 59.1684 59.3203 59.2644 59.8269C59.3657 60.3283 59.395 60.8483 59.3524 61.3869H53.8164V60.6189H58.5284L58.1604 60.8589C58.1764 60.5443 58.1577 60.2296 58.1044 59.9149C58.0564 59.6003 57.963 59.3123 57.8244 59.0509C57.6857 58.7843 57.491 58.5709 57.2404 58.4109C56.9897 58.2509 56.6697 58.1709 56.2804 58.1709C55.7897 58.1709 55.379 58.2963 55.0484 58.5469C54.7177 58.7976 54.4697 59.1283 54.3044 59.5389C54.139 59.9443 54.0564 60.3843 54.0564 60.8589V61.3709C54.0564 61.9043 54.1364 62.3816 54.2964 62.8029C54.4617 63.2243 54.707 63.5576 55.0324 63.8029C55.3577 64.0483 55.7684 64.1709 56.2644 64.1709C56.7604 64.1709 57.1684 64.0509 57.4884 63.8109C57.8084 63.5709 58.003 63.2163 58.0724 62.7469H59.3684C59.2884 63.2536 59.107 63.6909 58.8244 64.0589C58.5417 64.4216 58.1817 64.7016 57.7444 64.8989C57.307 65.0963 56.8137 65.1949 56.2644 65.1949ZM66.36 65.0029V56.1709C66.36 55.6643 66.456 55.2509 66.648 54.9309C66.8453 54.6056 67.1067 54.3656 67.432 54.2109C67.7627 54.0563 68.1307 53.9789 68.536 53.9789C68.7547 53.9789 68.976 53.9949 69.2 54.0269C69.4293 54.0589 69.656 54.1069 69.88 54.1709L69.64 55.1629C69.48 55.0989 69.32 55.0509 69.16 55.0189C69.0053 54.9869 68.856 54.9709 68.712 54.9709C68.5413 54.9709 68.3707 55.0029 68.2 55.0669C68.0293 55.1309 67.888 55.2509 67.776 55.4269C67.664 55.6029 67.608 55.8563 67.608 56.1869V65.0029H66.36ZM65.112 58.2189V57.3549H69.192V58.2189H65.112ZM74.3564 65.1949C73.6684 65.1949 73.055 65.0429 72.5164 64.7389C71.983 64.4349 71.5617 63.9843 71.2524 63.3869C70.943 62.7896 70.7884 62.0536 70.7884 61.1789C70.7884 60.2989 70.943 59.5629 71.2524 58.9709C71.5617 58.3736 71.983 57.9229 72.5164 57.6189C73.055 57.3149 73.6684 57.1629 74.3564 57.1629C75.039 57.1629 75.647 57.3149 76.1804 57.6189C76.719 57.9229 77.1404 58.3736 77.4444 58.9709C77.7537 59.5629 77.9084 60.2989 77.9084 61.1789C77.9084 62.0536 77.7537 62.7896 77.4444 63.3869C77.1404 63.9843 76.719 64.4349 76.1804 64.7389C75.647 65.0429 75.039 65.1949 74.3564 65.1949ZM74.3244 64.1069C74.8204 64.1069 75.2417 63.9896 75.5884 63.7549C75.935 63.5149 76.1964 63.1763 76.3724 62.7389C76.5537 62.3016 76.6444 61.7816 76.6444 61.1789C76.6444 60.2669 76.455 59.5496 76.0764 59.0269C75.6977 58.4989 75.135 58.2349 74.3884 58.2349C73.887 58.2349 73.463 58.3549 73.1164 58.5949C72.775 58.8296 72.5137 59.1683 72.3324 59.6109C72.1564 60.0483 72.0684 60.5709 72.0684 61.1789C72.0684 62.0803 72.2577 62.7949 72.6364 63.3229C73.0204 63.8456 73.583 64.1069 74.3244 64.1069ZM80.4984 65.0029V54.0909H81.7464V65.0029H80.4984ZM85.1427 65.0029V54.0909H86.3907V65.0029H85.1427ZM92.5551 65.1949C91.8671 65.1949 91.2538 65.0429 90.7151 64.7389C90.1818 64.4349 89.7604 63.9843 89.4511 63.3869C89.1418 62.7896 88.9871 62.0536 88.9871 61.1789C88.9871 60.2989 89.1418 59.5629 89.4511 58.9709C89.7604 58.3736 90.1818 57.9229 90.7151 57.6189C91.2538 57.3149 91.8671 57.1629 92.5551 57.1629C93.2378 57.1629 93.8458 57.3149 94.3791 57.6189C94.9178 57.9229 95.3391 58.3736 95.6431 58.9709C95.9524 59.5629 96.1071 60.2989 96.1071 61.1789C96.1071 62.0536 95.9524 62.7896 95.6431 63.3869C95.3391 63.9843 94.9178 64.4349 94.3791 64.7389C93.8458 65.0429 93.2378 65.1949 92.5551 65.1949ZM92.5231 64.1069C93.0191 64.1069 93.4404 63.9896 93.7871 63.7549C94.1338 63.5149 94.3951 63.1763 94.5711 62.7389C94.7524 62.3016 94.8431 61.7816 94.8431 61.1789C94.8431 60.2669 94.6538 59.5496 94.2751 59.0269C93.8964 58.4989 93.3338 58.2349 92.5871 58.2349C92.0858 58.2349 91.6618 58.3549 91.3151 58.5949C90.9738 58.8296 90.7124 59.1683 90.5311 59.6109C90.3551 60.0483 90.2671 60.5709 90.2671 61.1789C90.2671 62.0803 90.4564 62.7949 90.8351 63.3229C91.2191 63.8456 91.7818 64.1069 92.5231 64.1069ZM97.3691 57.3549H98.6651L100.617 63.7389H100.457L102.361 57.7229H103.401L105.289 63.7549H105.145L107.097 57.3549H108.345L105.833 65.0029H104.617L102.761 59.3549H102.953L101.113 65.0029H99.8971L97.3691 57.3549ZM111.155 55.5469C110.899 55.5469 110.696 55.4749 110.547 55.3309C110.398 55.1816 110.323 54.9869 110.323 54.7469C110.323 54.5123 110.398 54.3256 110.547 54.1869C110.696 54.0483 110.899 53.9789 111.155 53.9789C111.411 53.9789 111.614 54.0483 111.763 54.1869C111.912 54.3256 111.987 54.5123 111.987 54.7469C111.987 54.9869 111.912 55.1816 111.763 55.3309C111.614 55.4749 111.411 55.5469 111.155 55.5469ZM110.531 65.0029V57.3389H111.779V65.0029H110.531ZM120.816 65.0029V60.5069C120.816 59.7763 120.64 59.2216 120.288 58.8429C119.942 58.4589 119.467 58.2669 118.864 58.2669C118.406 58.2669 118.008 58.3923 117.672 58.6429C117.336 58.8936 117.078 59.2536 116.896 59.7229C116.715 60.1869 116.624 60.7416 116.624 61.3869H116.144C116.144 60.4963 116.262 59.7363 116.496 59.1069C116.731 58.4776 117.072 57.9976 117.52 57.6669C117.974 57.3309 118.523 57.1629 119.168 57.1629C119.771 57.1629 120.286 57.2989 120.712 57.5709C121.144 57.8376 121.475 58.2216 121.704 58.7229C121.934 59.2243 122.048 59.8189 122.048 60.5069V65.0029H120.816ZM115.376 65.0029V57.3549H116.448L116.624 59.1149V65.0029H115.376ZM127.897 68.9389C127.113 68.9389 126.433 68.8269 125.857 68.6029C125.281 68.3843 124.833 68.0883 124.513 67.7149C124.198 67.3469 124.041 66.9389 124.041 66.4909C124.041 65.8989 124.257 65.4456 124.689 65.1309C125.126 64.8216 125.689 64.6669 126.377 64.6669L127.065 65.0989C126.489 65.0989 126.043 65.2189 125.729 65.4589C125.414 65.6989 125.257 66.0269 125.257 66.4429C125.257 66.8589 125.481 67.2109 125.929 67.4989C126.377 67.7869 127.033 67.9309 127.897 67.9309C128.537 67.9309 129.097 67.8376 129.577 67.6509C130.062 67.4696 130.438 67.2296 130.705 66.9309C130.977 66.6376 131.113 66.3203 131.113 65.9789C131.113 65.7389 131.025 65.5309 130.849 65.3549C130.673 65.1843 130.403 65.0989 130.041 65.0989H127.065C126.547 65.0989 126.099 65.0216 125.721 64.8669C125.347 64.7069 125.059 64.4989 124.857 64.2429C124.654 63.9869 124.553 63.7069 124.553 63.4029C124.553 63.0829 124.643 62.8109 124.825 62.5869C125.006 62.3629 125.241 62.1923 125.529 62.0749C125.822 61.9576 126.137 61.8989 126.473 61.8989L126.713 62.3629C126.553 62.3629 126.39 62.4003 126.225 62.4749C126.065 62.5443 125.929 62.6509 125.817 62.7949C125.71 62.9336 125.657 63.1096 125.657 63.3229C125.657 63.5683 125.758 63.7736 125.961 63.9389C126.163 64.1043 126.531 64.1869 127.065 64.1869H130.041C130.761 64.1869 131.326 64.3389 131.737 64.6429C132.153 64.9469 132.361 65.3709 132.361 65.9149C132.361 66.4163 132.182 66.8963 131.825 67.3549C131.467 67.8189 130.955 68.1976 130.289 68.4909C129.622 68.7896 128.825 68.9389 127.897 68.9389ZM128.121 62.7629C127.534 62.7629 127.003 62.6456 126.529 62.4109C126.059 62.1763 125.686 61.8483 125.409 61.4269C125.137 61.0056 125.001 60.5176 125.001 59.9629C125.001 59.4029 125.137 58.9123 125.409 58.4909C125.686 58.0696 126.059 57.7443 126.529 57.5149C127.003 57.2803 127.534 57.1629 128.121 57.1629C128.691 57.1629 129.209 57.2803 129.673 57.5149C130.142 57.7443 130.515 58.0696 130.793 58.4909C131.07 58.9123 131.209 59.4029 131.209 59.9629C131.209 60.5176 131.07 61.0056 130.793 61.4269C130.515 61.8483 130.142 62.1763 129.673 62.4109C129.209 62.6456 128.691 62.7629 128.121 62.7629ZM128.121 61.8669C128.707 61.8669 129.163 61.6856 129.489 61.3229C129.814 60.9603 129.977 60.5069 129.977 59.9629C129.977 59.4029 129.814 58.9496 129.489 58.6029C129.163 58.2509 128.707 58.0749 128.121 58.0749C127.539 58.0749 127.081 58.2509 126.745 58.6029C126.414 58.9496 126.249 59.4029 126.249 59.9629C126.249 60.5069 126.414 60.9603 126.745 61.3229C127.081 61.6856 127.539 61.8669 128.121 61.8669ZM130.633 58.3789L130.041 58.1389C130.041 57.6909 130.129 57.2989 130.305 56.9629C130.481 56.6216 130.731 56.3576 131.057 56.1709C131.382 55.9789 131.769 55.8829 132.217 55.8829L132.121 57.1149C131.641 57.1149 131.273 57.2189 131.017 57.4269C130.761 57.6296 130.633 57.9469 130.633 58.3789ZM140.693 65.1949C140.277 65.1949 139.904 65.1149 139.573 64.9549C139.242 64.7949 138.981 64.5549 138.789 64.2349C138.597 63.9149 138.501 63.5149 138.501 63.0349V55.2269H139.733V63.0029C139.733 63.7923 140.101 64.1869 140.837 64.1869C141.056 64.1869 141.266 64.1629 141.469 64.1149C141.677 64.0669 141.909 63.9949 142.165 63.8989L142.341 64.7949C142.069 64.9123 141.797 65.0083 141.525 65.0829C141.258 65.1576 140.981 65.1949 140.693 65.1949ZM137.269 58.2189V57.3549H142.149V58.2189H137.269ZM147.284 65.1949C146.596 65.1949 145.983 65.0429 145.444 64.7389C144.911 64.4349 144.49 63.9843 144.18 63.3869C143.871 62.7896 143.716 62.0536 143.716 61.1789C143.716 60.2989 143.871 59.5629 144.18 58.9709C144.49 58.3736 144.911 57.9229 145.444 57.6189C145.983 57.3149 146.596 57.1629 147.284 57.1629C147.967 57.1629 148.575 57.3149 149.108 57.6189C149.647 57.9229 150.068 58.3736 150.372 58.9709C150.682 59.5629 150.836 60.2989 150.836 61.1789C150.836 62.0536 150.682 62.7896 150.372 63.3869C150.068 63.9843 149.647 64.4349 149.108 64.7389C148.575 65.0429 147.967 65.1949 147.284 65.1949ZM147.252 64.1069C147.748 64.1069 148.17 63.9896 148.516 63.7549C148.863 63.5149 149.124 63.1763 149.3 62.7389C149.482 62.3016 149.572 61.7816 149.572 61.1789C149.572 60.2669 149.383 59.5496 149.004 59.0269C148.626 58.4989 148.063 58.2349 147.316 58.2349C146.815 58.2349 146.391 58.3549 146.044 58.5949C145.703 58.8296 145.442 59.1683 145.26 59.6109C145.084 60.0483 144.996 60.5709 144.996 61.1789C144.996 62.0803 145.186 62.7949 145.564 63.3229C145.948 63.8456 146.511 64.1069 147.252 64.1069ZM156.898 65.1949C156.338 65.1949 155.85 65.0669 155.434 64.8109C155.024 64.5549 154.706 64.1816 154.482 63.6909C154.258 63.1949 154.146 62.5923 154.146 61.8829H154.674C154.674 62.3576 154.773 62.7576 154.97 63.0829C155.168 63.4083 155.424 63.6563 155.738 63.8269C156.058 63.9923 156.397 64.0749 156.754 64.0749C157.138 64.0749 157.506 63.9656 157.858 63.7469C158.21 63.5229 158.498 63.1949 158.722 62.7629C158.946 62.3309 159.058 61.7976 159.058 61.1629C159.058 60.5549 158.954 60.0349 158.746 59.6029C158.544 59.1709 158.269 58.8403 157.922 58.6109C157.576 58.3816 157.192 58.2669 156.77 58.2669C156.408 58.2669 156.066 58.3549 155.746 58.5309C155.426 58.7069 155.168 58.9656 154.97 59.3069C154.773 59.6429 154.674 60.0589 154.674 60.5549H154.146C154.146 59.8136 154.269 59.1923 154.514 58.6909C154.76 58.1843 155.093 57.8029 155.514 57.5469C155.936 57.2909 156.408 57.1629 156.93 57.1629C157.528 57.1629 158.085 57.3229 158.602 57.6429C159.12 57.9629 159.538 58.4216 159.858 59.0189C160.178 59.6163 160.338 60.3309 160.338 61.1629C160.338 62.0056 160.176 62.7283 159.85 63.3309C159.53 63.9336 159.109 64.3949 158.586 64.7149C158.064 65.0349 157.501 65.1949 156.898 65.1949ZM153.426 68.7629V57.3549H154.466L154.674 59.1469V68.7629H153.426ZM163.65 55.5469C163.394 55.5469 163.191 55.4749 163.042 55.3309C162.893 55.1816 162.818 54.9869 162.818 54.7469C162.818 54.5123 162.893 54.3256 163.042 54.1869C163.191 54.0483 163.394 53.9789 163.65 53.9789C163.906 53.9789 164.109 54.0483 164.258 54.1869C164.407 54.3256 164.482 54.5123 164.482 54.7469C164.482 54.9869 164.407 55.1816 164.258 55.3309C164.109 55.4749 163.906 55.5469 163.65 55.5469ZM163.026 65.0029V57.3389H164.274V65.0029H163.026ZM170.559 65.1949C169.946 65.1949 169.373 65.0296 168.839 64.6989C168.311 64.3683 167.885 63.9016 167.559 63.2989C167.234 62.6963 167.071 61.9843 167.071 61.1629C167.071 60.3203 167.234 59.6003 167.559 59.0029C167.885 58.4056 168.311 57.9496 168.839 57.6349C169.373 57.3203 169.946 57.1629 170.559 57.1629C170.991 57.1629 171.378 57.2296 171.719 57.3629C172.066 57.4909 172.367 57.6696 172.623 57.8989C172.879 58.1283 173.09 58.3896 173.255 58.6829C173.426 58.9709 173.551 59.2749 173.631 59.5949L172.351 59.7069C172.218 59.2643 171.994 58.9149 171.679 58.6589C171.37 58.3976 170.991 58.2669 170.543 58.2669C170.165 58.2669 169.807 58.3763 169.471 58.5949C169.141 58.8083 168.871 59.1309 168.663 59.5629C168.455 59.9896 168.351 60.5229 168.351 61.1629C168.351 61.7549 168.445 62.2696 168.631 62.7069C168.823 63.1389 169.085 63.4749 169.415 63.7149C169.746 63.9549 170.122 64.0749 170.543 64.0749C171.135 64.0749 171.583 63.9309 171.887 63.6429C172.197 63.3496 172.351 62.9443 172.351 62.4269H173.631C173.631 62.9603 173.506 63.4349 173.255 63.8509C173.005 64.2669 172.647 64.5949 172.183 64.8349C171.725 65.0749 171.183 65.1949 170.559 65.1949ZM179.033 65.1949C178.292 65.1949 177.673 65.0909 177.177 64.8829C176.681 64.6696 176.305 64.3789 176.049 64.0109C175.793 63.6376 175.657 63.2109 175.641 62.7309H176.841C176.868 63.2163 177.063 63.5816 177.425 63.8269C177.793 64.0669 178.292 64.1869 178.921 64.1869C179.252 64.1869 179.556 64.1336 179.833 64.0269C180.111 63.9203 180.332 63.7736 180.497 63.5869C180.663 63.4003 180.745 63.1896 180.745 62.9549C180.745 62.6563 180.636 62.4216 180.417 62.2509C180.199 62.0803 179.849 61.9309 179.369 61.8029L177.881 61.3229C177.236 61.1203 176.74 60.8429 176.393 60.4909C176.052 60.1336 175.881 59.7069 175.881 59.2109C175.881 58.5923 176.153 58.0963 176.697 57.7229C177.241 57.3496 177.956 57.1629 178.841 57.1629C179.78 57.1629 180.508 57.3549 181.025 57.7389C181.543 58.1229 181.812 58.6029 181.833 59.1789H180.601C180.553 58.8429 180.383 58.5896 180.089 58.4189C179.796 58.2429 179.38 58.1549 178.841 58.1549C178.324 58.1549 177.919 58.2723 177.625 58.5069C177.337 58.7363 177.193 58.9923 177.193 59.2749C177.193 59.8029 177.647 60.1923 178.553 60.4429L180.073 60.9549C180.729 61.1523 181.231 61.4109 181.577 61.7309C181.929 62.0509 182.105 62.4589 182.105 62.9549C182.105 63.3389 181.98 63.7016 181.729 64.0429C181.479 64.3843 181.124 64.6616 180.665 64.8749C180.207 65.0883 179.663 65.1949 179.033 65.1949ZM184.128 63.7309C184.128 63.4803 184.216 63.2643 184.392 63.0829C184.568 62.9016 184.789 62.8109 185.056 62.8109C185.322 62.8109 185.549 62.9016 185.736 63.0829C185.922 63.2643 186.016 63.4803 186.016 63.7309C186.016 63.9816 185.922 64.1923 185.736 64.3629C185.549 64.5336 185.322 64.6189 185.056 64.6189C184.789 64.6189 184.568 64.5336 184.392 64.3629C184.216 64.1869 184.128 63.9763 184.128 63.7309ZM184.128 58.8349C184.128 58.5843 184.216 58.3683 184.392 58.1869C184.568 58.0056 184.789 57.9149 185.056 57.9149C185.322 57.9149 185.549 58.0056 185.736 58.1869C185.922 58.3683 186.016 58.5843 186.016 58.8349C186.016 59.0856 185.922 59.2963 185.736 59.4669C185.549 59.6376 185.322 59.7229 185.056 59.7229C184.789 59.7229 184.568 59.6376 184.392 59.4669C184.216 59.2909 184.128 59.0803 184.128 58.8349ZM192.524 65.0029V54.6189H196.364C197.607 54.6189 198.559 54.9096 199.22 55.4909C199.887 56.0723 200.22 56.8429 200.22 57.8029C200.22 58.7469 199.887 59.5096 199.22 60.0909C198.559 60.6669 197.607 60.9549 196.364 60.9549H194.412V65.0029H192.524ZM198.14 65.0029L195.388 60.1389H197.404L200.604 65.0029H198.14ZM194.412 59.6909H196.172C196.865 59.6909 197.391 59.5336 197.748 59.2189C198.105 58.8989 198.284 58.4856 198.284 57.9789C198.284 57.4616 198.121 57.0456 197.796 56.7309C197.471 56.4109 196.993 56.2509 196.364 56.2509H194.412V59.6909ZM202.965 65.0029V54.6189H209.637V56.2509H204.853V58.9869H209.349V60.6189H204.853V63.3549H209.637V65.0029H202.965ZM212.532 54.6189H215.892C216.948 54.6189 217.873 54.8323 218.668 55.2589C219.462 55.6803 220.081 56.2803 220.524 57.0589C220.966 57.8376 221.188 58.7576 221.188 59.8189C221.188 60.8696 220.966 61.7843 220.524 62.5629C220.081 63.3363 219.462 63.9363 218.668 64.3629C217.873 64.7896 216.948 65.0029 215.892 65.0029H212.532V54.6189ZM214.42 56.3309V63.3069H215.892C216.564 63.3069 217.142 63.1549 217.628 62.8509C218.118 62.5469 218.494 62.1336 218.756 61.6109C219.022 61.0829 219.156 60.4856 219.156 59.8189C219.156 59.1416 219.022 58.5416 218.756 58.0189C218.494 57.4963 218.118 57.0856 217.628 56.7869C217.142 56.4829 216.564 56.3309 215.892 56.3309H214.42ZM37.4725 85.0029V74.6189H44.1445V76.2509H39.3605V78.9869H43.8565V80.6189H39.3605V83.3549H44.1445V85.0029H37.4725ZM45.6631 74.6189H47.9031L50.3831 79.0829H50.0151L52.5911 74.6189H54.8151L51.1191 80.7149V85.0029H49.2311V80.7149L45.6631 74.6189ZM56.5737 85.0029V74.6189H63.2457V76.2509H58.4617V78.9869H62.9577V80.6189H58.4617V83.3549H63.2457V85.0029H56.5737ZM69.7564 85.2269C69.0364 85.2269 68.3724 85.1016 67.7644 84.8509C67.1617 84.6003 66.671 84.2189 66.2924 83.7069C65.919 83.1949 65.719 82.5443 65.6924 81.7549H67.5484C67.5484 82.1549 67.647 82.4829 67.8444 82.7389C68.0417 82.9949 68.3057 83.1869 68.6364 83.3149C68.9724 83.4376 69.3404 83.4989 69.7404 83.4989C70.1244 83.4989 70.4657 83.4483 70.7644 83.3469C71.0684 83.2456 71.3057 83.1016 71.4764 82.9149C71.6524 82.7229 71.7404 82.4963 71.7404 82.2349C71.7404 81.8883 71.6337 81.6163 71.4204 81.4189C71.2124 81.2216 70.8764 81.0403 70.4124 80.8749L68.3644 80.0589C67.5644 79.7443 66.951 79.3789 66.5244 78.9629C66.0977 78.5469 65.8844 77.9736 65.8844 77.2429C65.8844 76.4003 66.2177 75.7176 66.8844 75.1949C67.551 74.6723 68.4817 74.4109 69.6764 74.4109C70.839 74.4109 71.7377 74.6829 72.3724 75.2269C73.007 75.7656 73.367 76.5176 73.4524 77.4829H71.5964C71.527 77.0723 71.3404 76.7443 71.0364 76.4989C70.7324 76.2483 70.279 76.1229 69.6764 76.1229C69.143 76.1229 68.7217 76.2349 68.4124 76.4589C68.103 76.6776 67.9484 76.9549 67.9484 77.2909C67.9484 77.5789 68.0444 77.8083 68.2364 77.9789C68.4337 78.1443 68.7377 78.3043 69.1484 78.4589L71.4204 79.3389C72.1884 79.6376 72.7777 80.0136 73.1884 80.4669C73.599 80.9203 73.8044 81.4883 73.8044 82.1709C73.8044 82.7949 73.647 83.3363 73.3324 83.7949C73.0177 84.2483 72.559 84.6003 71.9564 84.8509C71.3537 85.1016 70.6204 85.2269 69.7564 85.2269ZM85.3244 85.0029L85.1644 83.3229V80.0429C85.1644 79.3549 85.0177 78.8616 84.7244 78.5629C84.431 78.2589 83.991 78.1069 83.4044 78.1069C83.0737 78.1069 82.7724 78.1549 82.5004 78.2509C82.2337 78.3469 82.0204 78.4963 81.8604 78.6989C81.7057 78.8963 81.6284 79.1523 81.6284 79.4669H80.2364C80.2364 78.9123 80.3724 78.4669 80.6444 78.1309C80.9164 77.7896 81.2897 77.5443 81.7644 77.3949C82.2444 77.2403 82.791 77.1629 83.4044 77.1629C83.991 77.1629 84.511 77.2616 84.9644 77.4589C85.4177 77.6563 85.7724 77.9709 86.0284 78.4029C86.2844 78.8296 86.4124 79.3869 86.4124 80.0749V85.0029H85.3244ZM82.7164 85.1949C82.087 85.1949 81.567 85.0829 81.1564 84.8589C80.7457 84.6349 80.439 84.3443 80.2364 83.9869C80.0337 83.6296 79.9324 83.2536 79.9324 82.8589C79.9324 82.3416 80.0604 81.9203 80.3164 81.5949C80.5777 81.2696 80.9324 81.0323 81.3804 80.8829C81.8284 80.7283 82.3324 80.6509 82.8924 80.6509C83.2924 80.6509 83.6924 80.6909 84.0924 80.7709C84.4977 80.8509 84.8924 80.9603 85.2764 81.0989V81.8829C84.9564 81.7549 84.5937 81.6536 84.1884 81.5789C83.7884 81.5043 83.4204 81.4669 83.0844 81.4669C82.5724 81.4669 82.1404 81.5736 81.7884 81.7869C81.4364 81.9949 81.2604 82.3523 81.2604 82.8589C81.2604 83.2323 81.3937 83.5523 81.6604 83.8189C81.9324 84.0856 82.3644 84.2189 82.9564 84.2189C83.3724 84.2189 83.7457 84.1229 84.0764 83.9309C84.4124 83.7336 84.6764 83.4883 84.8684 83.1949C85.0657 82.9016 85.1644 82.6083 85.1644 82.3149H85.4684C85.4684 82.8269 85.3564 83.3016 85.1324 83.7389C84.9137 84.1763 84.599 84.5283 84.1884 84.7949C83.7777 85.0616 83.287 85.1949 82.7164 85.1949ZM95.0009 85.0029V80.5069C95.0009 79.7763 94.8249 79.2216 94.4729 78.8429C94.1262 78.4589 93.6515 78.2669 93.0489 78.2669C92.5902 78.2669 92.1929 78.3923 91.8569 78.6429C91.5209 78.8936 91.2622 79.2536 91.0809 79.7229C90.8995 80.1869 90.8089 80.7416 90.8089 81.3869H90.3289C90.3289 80.4963 90.4462 79.7363 90.6809 79.1069C90.9155 78.4776 91.2569 77.9976 91.7049 77.6669C92.1582 77.3309 92.7075 77.1629 93.3529 77.1629C93.9555 77.1629 94.4702 77.2989 94.8969 77.5709C95.3289 77.8376 95.6595 78.2216 95.8889 78.7229C96.1182 79.2243 96.2329 79.8189 96.2329 80.5069V85.0029H95.0009ZM89.5609 85.0029V77.3549H90.6329L90.8089 79.1149V85.0029H89.5609ZM102.113 85.1949C101.494 85.1949 100.926 85.0296 100.409 84.6989C99.8918 84.3629 99.4784 83.8936 99.1691 83.2909C98.8598 82.6829 98.7051 81.9683 98.7051 81.1469C98.7051 80.3309 98.8571 79.6243 99.1611 79.0269C99.4651 78.4296 99.8678 77.9709 100.369 77.6509C100.876 77.3256 101.43 77.1629 102.033 77.1629C102.593 77.1629 103.084 77.2989 103.505 77.5709C103.932 77.8429 104.262 78.2349 104.497 78.7469C104.732 79.2589 104.849 79.8776 104.849 80.6029H104.369C104.369 80.0963 104.268 79.6696 104.065 79.3229C103.868 78.9763 103.609 78.7149 103.289 78.5389C102.969 78.3576 102.625 78.2669 102.257 78.2669C101.841 78.2669 101.46 78.3843 101.113 78.6189C100.772 78.8483 100.497 79.1789 100.289 79.6109C100.086 80.0376 99.9851 80.5496 99.9851 81.1469C99.9851 81.7549 100.086 82.2776 100.289 82.7149C100.497 83.1523 100.772 83.4883 101.113 83.7229C101.46 83.9576 101.841 84.0749 102.257 84.0749C102.604 84.0749 102.937 83.9843 103.257 83.8029C103.582 83.6216 103.849 83.3576 104.057 83.0109C104.265 82.6589 104.369 82.2349 104.369 81.7389H104.849C104.849 82.4803 104.726 83.1096 104.481 83.6269C104.241 84.1389 103.913 84.5283 103.497 84.7949C103.086 85.0616 102.625 85.1949 102.113 85.1949ZM104.577 85.0029L104.369 83.2109V74.0909H105.617V85.0029H104.577ZM112.85 85.0029V74.6189H116.69C117.933 74.6189 118.885 74.9096 119.546 75.4909C120.213 76.0723 120.546 76.8429 120.546 77.8029C120.546 78.7469 120.213 79.5096 119.546 80.0909C118.885 80.6669 117.933 80.9549 116.69 80.9549H114.738V85.0029H112.85ZM118.466 85.0029L115.714 80.1389H117.73L120.93 85.0029H118.466ZM114.738 79.6909H116.498C117.192 79.6909 117.717 79.5336 118.074 79.2189C118.432 78.8989 118.61 78.4856 118.61 77.9789C118.61 77.4616 118.448 77.0456 118.122 76.7309C117.797 76.4109 117.32 76.2509 116.69 76.2509H114.738V79.6909ZM123.147 74.6189H125.035V81.0829C125.035 81.9363 125.251 82.5523 125.683 82.9309C126.121 83.3096 126.678 83.4989 127.355 83.4989C128.038 83.4989 128.595 83.3096 129.027 82.9309C129.459 82.5523 129.675 81.9363 129.675 81.0829V74.6189H131.563V81.0829C131.563 81.9576 131.395 82.7043 131.059 83.3229C130.723 83.9416 130.241 84.4136 129.611 84.7389C128.987 85.0643 128.235 85.2269 127.355 85.2269C126.475 85.2269 125.721 85.0643 125.091 84.7389C124.467 84.4136 123.987 83.9416 123.651 83.3229C123.315 82.7043 123.147 81.9576 123.147 81.0829V74.6189ZM134.482 74.6189H136.546L141.266 82.0269H141.122V74.6189H143.01V85.0029H141.09L136.066 77.1469H136.37V85.0029H134.482V74.6189ZM146.111 74.6189H148.175L152.895 82.0269H152.751V74.6189H154.639V85.0029H152.719L147.695 77.1469H147.999V85.0029H146.111V74.6189ZM157.772 85.0029V74.6189H159.66V85.0029H157.772ZM162.775 74.6189H164.839L169.559 82.0269H169.415V74.6189H171.303V85.0029H169.383L164.359 77.1469H164.663V85.0029H162.775V74.6189ZM178.227 85.2269C177.379 85.2269 176.614 85.0029 175.931 84.5549C175.249 84.1069 174.705 83.4829 174.299 82.6829C173.899 81.8776 173.699 80.9389 173.699 79.8669C173.699 79.0189 173.822 78.2589 174.067 77.5869C174.318 76.9149 174.665 76.3416 175.107 75.8669C175.55 75.3923 176.07 75.0323 176.667 74.7869C177.265 74.5363 177.913 74.4109 178.611 74.4109C179.582 74.4109 180.395 74.6216 181.051 75.0429C181.713 75.4643 182.227 76.1283 182.595 77.0349L180.659 77.4829C180.387 77.0403 180.073 76.7043 179.715 76.4749C179.363 76.2403 178.963 76.1229 178.515 76.1229C178.003 76.1229 177.537 76.2749 177.115 76.5789C176.694 76.8776 176.358 77.3069 176.107 77.8669C175.857 78.4269 175.731 79.0936 175.731 79.8669C175.731 80.5923 175.841 81.2269 176.059 81.7709C176.283 82.3149 176.595 82.7389 176.995 83.0429C177.395 83.3469 177.859 83.4989 178.387 83.4989C178.835 83.4989 179.235 83.4003 179.587 83.2029C179.945 83.0003 180.225 82.7123 180.427 82.3389C180.635 81.9656 180.739 81.5149 180.739 80.9869H181.155C181.155 81.8509 181.051 82.6003 180.843 83.2349C180.641 83.8696 180.323 84.3603 179.891 84.7069C179.459 85.0536 178.905 85.2269 178.227 85.2269ZM181.011 85.0029L180.739 82.7149V80.9229L178.403 80.8749V79.6749H182.547V85.0029H181.011ZM189.598 74.6189H191.662L196.382 82.0269H196.238V74.6189H198.126V85.0029H196.206L191.182 77.1469H191.486V85.0029H189.598V74.6189ZM205.227 85.2269C204.304 85.2269 203.488 85.0243 202.779 84.6189C202.075 84.2136 201.523 83.6083 201.123 82.8029C200.723 81.9976 200.523 80.9976 200.523 79.8029C200.523 78.5869 200.723 77.5816 201.123 76.7869C201.523 75.9869 202.075 75.3923 202.779 75.0029C203.488 74.6083 204.304 74.4109 205.227 74.4109C206.155 74.4109 206.974 74.6136 207.683 75.0189C208.392 75.4189 208.947 76.0189 209.347 76.8189C209.747 77.6189 209.947 78.6136 209.947 79.8029C209.947 81.0136 209.747 82.0216 209.347 82.8269C208.947 83.6323 208.392 84.2349 207.683 84.6349C206.974 85.0296 206.155 85.2269 205.227 85.2269ZM205.227 83.5149C206.075 83.5149 206.747 83.1949 207.243 82.5549C207.744 81.9149 207.995 80.9923 207.995 79.7869C207.995 78.6243 207.744 77.7203 207.243 77.0749C206.747 76.4296 206.075 76.1069 205.227 76.1069C204.395 76.1069 203.728 76.4323 203.227 77.0829C202.726 77.7283 202.475 78.6349 202.475 79.8029C202.475 81.0029 202.726 81.9229 203.227 82.5629C203.728 83.1976 204.395 83.5149 205.227 83.5149ZM215.957 85.2269C215.237 85.2269 214.573 85.1016 213.965 84.8509C213.362 84.6003 212.872 84.2189 212.493 83.7069C212.12 83.1949 211.92 82.5443 211.893 81.7549H213.749C213.749 82.1549 213.848 82.4829 214.045 82.7389C214.242 82.9949 214.506 83.1869 214.837 83.3149C215.173 83.4376 215.541 83.4989 215.941 83.4989C216.325 83.4989 216.666 83.4483 216.965 83.3469C217.269 83.2456 217.506 83.1016 217.677 82.9149C217.853 82.7229 217.941 82.4963 217.941 82.2349C217.941 81.8883 217.834 81.6163 217.621 81.4189C217.413 81.2216 217.077 81.0403 216.613 80.8749L214.565 80.0589C213.765 79.7443 213.152 79.3789 212.725 78.9629C212.298 78.5469 212.085 77.9736 212.085 77.2429C212.085 76.4003 212.418 75.7176 213.085 75.1949C213.752 74.6723 214.682 74.4109 215.877 74.4109C217.04 74.4109 217.938 74.6829 218.573 75.2269C219.208 75.7656 219.568 76.5176 219.653 77.4829H217.797C217.728 77.0723 217.541 76.7443 217.237 76.4989C216.933 76.2483 216.48 76.1229 215.877 76.1229C215.344 76.1229 214.922 76.2349 214.613 76.4589C214.304 76.6776 214.149 76.9549 214.149 77.2909C214.149 77.5789 214.245 77.8083 214.437 77.9789C214.634 78.1443 214.938 78.3043 215.349 78.4589L217.621 79.3389C218.389 79.6376 218.978 80.0136 219.389 80.4669C219.8 80.9203 220.005 81.4883 220.005 82.1709C220.005 82.7949 219.848 83.3363 219.533 83.7949C219.218 84.2483 218.76 84.6003 218.157 84.8509C217.554 85.1016 216.821 85.2269 215.957 85.2269ZM222.688 85.0029V74.6189H229.36V76.2509H224.576V78.9869H229.072V80.6189H224.576V83.3549H229.36V85.0029H222.688Z" fill="#997452"/>
</g>
<defs>
<filter id="filter0_d_7061_5968" x="0" y="0" width="261.767" height="109" filterUnits="userSpaceOnUse" color-interpolation-filters="sRGB">
<feFlood flood-opacity="0" result="BackgroundImageFix"/>
<feColorMatrix in="SourceAlpha" type="matrix" values="0 0 0 0 0 0 0 0 0 0 0 0 0 0 0 0 0 0 127 0" result="hardAlpha"/>
<feOffset dy="4"/>
<feGaussianBlur stdDeviation="3"/>
<feComposite in2="hardAlpha" operator="out"/>
<feColorMatrix type="matrix" values="0 0 0 0 0 0 0 0 0 0 0 0 0 0 0 0 0 0 0.1 0"/>
<feBlend mode="normal" in2="BackgroundImageFix" result="effect1_dropShadow_7061_5968"/>
<feBlend mode="normal" in="SourceGraphic" in2="effect1_dropShadow_7061_5968" result="shape"/>
</filter>
</defs>
</svg>
