<svg width="263" height="88" viewBox="0 0 263 88" fill="none" xmlns="http://www.w3.org/2000/svg">
<g filter="url(#filter0_d_7054_5738)">
<mask id="path-1-inside-1_7054_5738" fill="white">
<path d="M7.04333 42.6331L16.7674 51V69C16.7674 73.9706 20.7968 78 25.7674 78L247.035 78C252.005 78 256.035 73.9706 256.035 69V11C256.035 6.02944 252.005 2 247.035 2L25.7674 2C20.7968 2 16.7674 6.02944 16.7674 11L16.7674 30.5L7.15555 37.9931C5.66179 39.1575 5.60761 41.3978 7.04333 42.6331Z"/>
</mask>
<path d="M7.04333 42.6331L16.7674 51V69C16.7674 73.9706 20.7968 78 25.7674 78L247.035 78C252.005 78 256.035 73.9706 256.035 69V11C256.035 6.02944 252.005 2 247.035 2L25.7674 2C20.7968 2 16.7674 6.02944 16.7674 11L16.7674 30.5L7.15555 37.9931C5.66179 39.1575 5.60761 41.3978 7.04333 42.6331Z" fill="white"/>
<path d="M16.7674 51H18.1674V50.3577L17.6805 49.9388L16.7674 51ZM7.04333 42.6331L6.13021 43.6944L6.13021 43.6944L7.04333 42.6331ZM7.15555 37.9931L6.2948 36.8889L6.2948 36.8889L7.15555 37.9931ZM16.7674 30.5L17.6281 31.6041L18.1674 31.1838V30.5H16.7674ZM25.7674 2V0.6V2ZM247.035 2V3.4V2ZM17.6805 49.9388L7.95644 41.5719L6.13021 43.6944L15.8542 52.0612L17.6805 49.9388ZM8.0163 39.0972L17.6281 31.6041L15.9066 29.3959L6.2948 36.8889L8.0163 39.0972ZM7.95644 41.5719C7.19073 40.9131 7.21963 39.7183 8.0163 39.0972L6.2948 36.8889C4.10396 38.5968 4.02449 41.8825 6.13021 43.6944L7.95644 41.5719ZM25.7674 3.4L247.035 3.4L247.035 0.600003L25.7674 0.6L25.7674 3.4ZM254.635 11V69H257.435V11H254.635ZM247.035 76.6L25.7674 76.6V79.4L247.035 79.4V76.6ZM18.1674 30.5L18.1674 11H15.3674L15.3674 30.5H18.1674ZM18.1674 69V51H15.3674L15.3674 69H18.1674ZM25.7674 76.6C21.57 76.6 18.1674 73.1974 18.1674 69H15.3674C15.3674 74.7438 20.0236 79.4 25.7674 79.4V76.6ZM254.635 69C254.635 73.1974 251.232 76.6 247.035 76.6V79.4C252.778 79.4 257.435 74.7438 257.435 69H254.635ZM247.035 3.4C251.232 3.4 254.635 6.80264 254.635 11H257.435C257.435 5.25624 252.778 0.600003 247.035 0.600003V3.4ZM25.7674 0.6C20.0236 0.6 15.3674 5.25624 15.3674 11H18.1674C18.1674 6.80264 21.57 3.4 25.7674 3.4V0.6Z" fill="#333333" mask="url(#path-1-inside-1_7054_5738)"/>
</g>
<g filter="url(#filter1_d_7054_5738)">
<path d="M35.352 18.296C35.1387 18.296 34.9493 18.24 34.784 18.128C34.6187 18.016 34.488 17.864 34.392 17.672C34.296 17.48 34.248 17.2667 34.248 17.032C34.248 16.648 34.3733 16.272 34.624 15.904C34.88 15.5307 35.24 15.224 35.704 14.984L36.6 15.464C36.296 15.6133 36.0373 15.7867 35.824 15.984C35.616 16.1813 35.4747 16.4133 35.4 16.68C35.6507 16.7013 35.8533 16.7787 36.008 16.912C36.168 17.04 36.248 17.2187 36.248 17.448C36.248 17.6773 36.1653 17.8773 36 18.048C35.84 18.2133 35.624 18.296 35.352 18.296ZM32.68 18.296C32.4667 18.296 32.2773 18.24 32.112 18.128C31.9467 18.016 31.816 17.864 31.72 17.672C31.624 17.48 31.576 17.2667 31.576 17.032C31.576 16.648 31.7013 16.272 31.952 15.904C32.208 15.5307 32.568 15.224 33.032 14.984L33.928 15.464C33.624 15.6133 33.3653 15.7867 33.152 15.984C32.944 16.1813 32.8027 16.4133 32.728 16.68C32.9787 16.7013 33.1813 16.7787 33.336 16.912C33.496 17.04 33.576 17.2187 33.576 17.448C33.576 17.6773 33.4933 17.8773 33.328 18.048C33.168 18.2133 32.952 18.296 32.68 18.296ZM39.1979 25V14.952H42.7019C43.8485 14.952 44.7152 15.2267 45.3019 15.776C45.8939 16.32 46.1899 17.0373 46.1899 17.928C46.1899 18.808 45.8939 19.5227 45.3019 20.072C44.7152 20.616 43.8485 20.888 42.7019 20.888H40.4459V25H39.1979ZM44.8299 25L41.9499 20.44H43.3099L46.4459 25H44.8299ZM40.4459 20.008H42.6059C43.3579 20.008 43.9285 19.824 44.3179 19.456C44.7125 19.0827 44.9099 18.6 44.9099 18.008C44.9099 17.4 44.7205 16.9173 44.3419 16.56C43.9685 16.2027 43.4219 16.024 42.7019 16.024H40.4459V20.008ZM51.9227 25.192C51.2347 25.192 50.6214 25.04 50.0827 24.736C49.5494 24.432 49.1281 23.9813 48.8187 23.384C48.5094 22.7867 48.3547 22.0507 48.3547 21.176C48.3547 20.296 48.5094 19.56 48.8187 18.968C49.1281 18.3707 49.5494 17.92 50.0827 17.616C50.6214 17.312 51.2347 17.16 51.9227 17.16C52.6054 17.16 53.2134 17.312 53.7467 17.616C54.2854 17.92 54.7067 18.3707 55.0107 18.968C55.3201 19.56 55.4748 20.296 55.4748 21.176C55.4748 22.0507 55.3201 22.7867 55.0107 23.384C54.7067 23.9813 54.2854 24.432 53.7467 24.736C53.2134 25.04 52.6054 25.192 51.9227 25.192ZM51.8907 24.104C52.3867 24.104 52.8081 23.9867 53.1547 23.752C53.5014 23.512 53.7627 23.1733 53.9387 22.736C54.1201 22.2987 54.2108 21.7787 54.2108 21.176C54.2108 20.264 54.0214 19.5467 53.6427 19.024C53.2641 18.496 52.7014 18.232 51.9548 18.232C51.4534 18.232 51.0294 18.352 50.6827 18.592C50.3414 18.8267 50.0801 19.1653 49.8987 19.608C49.7227 20.0453 49.6347 20.568 49.6347 21.176C49.6347 22.0773 49.8241 22.792 50.2027 23.32C50.5867 23.8427 51.1494 24.104 51.8907 24.104ZM60.8327 25.192C60.1447 25.192 59.5314 25.04 58.9927 24.736C58.4594 24.432 58.0381 23.9813 57.7287 23.384C57.4194 22.7867 57.2647 22.0507 57.2647 21.176C57.2647 20.296 57.4194 19.56 57.7287 18.968C58.0381 18.3707 58.4594 17.92 58.9927 17.616C59.5314 17.312 60.1447 17.16 60.8327 17.16C61.5154 17.16 62.1234 17.312 62.6567 17.616C63.1954 17.92 63.6167 18.3707 63.9207 18.968C64.2301 19.56 64.3847 20.296 64.3847 21.176C64.3847 22.0507 64.2301 22.7867 63.9207 23.384C63.6167 23.9813 63.1954 24.432 62.6567 24.736C62.1234 25.04 61.5154 25.192 60.8327 25.192ZM60.8007 24.104C61.2967 24.104 61.7181 23.9867 62.0647 23.752C62.4114 23.512 62.6727 23.1733 62.8487 22.736C63.0301 22.2987 63.1207 21.7787 63.1207 21.176C63.1207 20.264 62.9314 19.5467 62.5527 19.024C62.1741 18.496 61.6114 18.232 60.8647 18.232C60.3634 18.232 59.9394 18.352 59.5927 18.592C59.2514 18.8267 58.9901 19.1653 58.8087 19.608C58.6327 20.0453 58.5447 20.568 58.5447 21.176C58.5447 22.0773 58.7341 22.792 59.1127 23.32C59.4967 23.8427 60.0594 24.104 60.8007 24.104ZM69.3267 25.192C68.9107 25.192 68.5374 25.112 68.2067 24.952C67.8761 24.792 67.6147 24.552 67.4227 24.232C67.2307 23.912 67.1347 23.512 67.1347 23.032V15.224H68.3667V23C68.3667 23.7893 68.7347 24.184 69.4707 24.184C69.6894 24.184 69.9001 24.16 70.1027 24.112C70.3107 24.064 70.5427 23.992 70.7987 23.896L70.9747 24.792C70.7027 24.9093 70.4307 25.0053 70.1587 25.08C69.8921 25.1547 69.6147 25.192 69.3267 25.192ZM65.9027 18.216V17.352H70.7827V18.216H65.9027ZM79.7952 25.192C79.1819 25.192 78.6086 25.0267 78.0752 24.696C77.5472 24.3653 77.1206 23.8987 76.7952 23.296C76.4699 22.6933 76.3072 21.9813 76.3072 21.16C76.3072 20.3173 76.4699 19.5973 76.7952 19C77.1206 18.4027 77.5472 17.9467 78.0752 17.632C78.6086 17.3173 79.1819 17.16 79.7952 17.16C80.2272 17.16 80.6139 17.2267 80.9552 17.36C81.3019 17.488 81.6032 17.6667 81.8592 17.896C82.1152 18.1253 82.3259 18.3867 82.4912 18.68C82.6619 18.968 82.7872 19.272 82.8672 19.592L81.5872 19.704C81.4539 19.2613 81.2299 18.912 80.9152 18.656C80.6059 18.3947 80.2272 18.264 79.7792 18.264C79.4006 18.264 79.0432 18.3733 78.7072 18.592C78.3766 18.8053 78.1072 19.128 77.8992 19.56C77.6912 19.9867 77.5872 20.52 77.5872 21.16C77.5872 21.752 77.6806 22.2667 77.8672 22.704C78.0592 23.136 78.3206 23.472 78.6512 23.712C78.9819 23.952 79.3579 24.072 79.7792 24.072C80.3712 24.072 80.8192 23.928 81.1232 23.64C81.4326 23.3467 81.5872 22.9413 81.5872 22.424H82.8672C82.8672 22.9573 82.7419 23.432 82.4912 23.848C82.2406 24.264 81.8832 24.592 81.4192 24.832C80.9606 25.072 80.4192 25.192 79.7952 25.192ZM90.7172 17.336H91.9652V25H90.7172V17.336ZM85.2932 17.336H86.5412V22.104C86.5412 22.744 86.6959 23.2293 87.0052 23.56C87.3199 23.8907 87.7679 24.056 88.3492 24.056C88.8292 24.056 89.2452 23.928 89.5972 23.672C89.9546 23.416 90.2292 23.064 90.4212 22.616C90.6186 22.1627 90.7172 21.6453 90.7172 21.064H91.1812C91.1812 21.9227 91.0559 22.656 90.8052 23.264C90.5599 23.872 90.2106 24.3387 89.7572 24.664C89.3092 24.984 88.7812 25.144 88.1732 25.144C87.5972 25.144 87.0932 25.0373 86.6612 24.824C86.2292 24.6107 85.8932 24.288 85.6532 23.856C85.4132 23.4187 85.2932 22.8667 85.2932 22.2V17.336ZM97.7167 25.192C97.3007 25.192 96.9274 25.112 96.5967 24.952C96.2661 24.792 96.0047 24.552 95.8127 24.232C95.6207 23.912 95.5247 23.512 95.5247 23.032V15.224H96.7567V23C96.7567 23.7893 97.1247 24.184 97.8607 24.184C98.0794 24.184 98.2901 24.16 98.4927 24.112C98.7007 24.064 98.9327 23.992 99.1887 23.896L99.3647 24.792C99.0927 24.9093 98.8207 25.0053 98.5487 25.08C98.2821 25.1547 98.0047 25.192 97.7167 25.192ZM94.2927 18.216V17.352H99.1727V18.216H94.2927ZM103.892 25.192C103.476 25.192 103.103 25.112 102.772 24.952C102.442 24.792 102.18 24.552 101.988 24.232C101.796 23.912 101.7 23.512 101.7 23.032V15.224H102.932V23C102.932 23.7893 103.3 24.184 104.036 24.184C104.255 24.184 104.466 24.16 104.668 24.112C104.876 24.064 105.108 23.992 105.364 23.896L105.54 24.792C105.268 24.9093 104.996 25.0053 104.724 25.08C104.458 25.1547 104.18 25.192 103.892 25.192ZM100.468 18.216V17.352H105.348V18.216H100.468ZM108.42 15.544C108.164 15.544 107.961 15.472 107.812 15.328C107.663 15.1787 107.588 14.984 107.588 14.744C107.588 14.5093 107.663 14.3227 107.812 14.184C107.961 14.0453 108.164 13.976 108.42 13.976C108.676 13.976 108.879 14.0453 109.028 14.184C109.177 14.3227 109.252 14.5093 109.252 14.744C109.252 14.984 109.177 15.1787 109.028 15.328C108.879 15.472 108.676 15.544 108.42 15.544ZM107.796 25V17.336H109.044V25H107.796ZM118.082 25V20.504C118.082 19.7733 117.906 19.2187 117.554 18.84C117.207 18.456 116.732 18.264 116.13 18.264C115.671 18.264 115.274 18.3893 114.938 18.64C114.602 18.8907 114.343 19.2507 114.162 19.72C113.98 20.184 113.89 20.7387 113.89 21.384H113.41C113.41 20.4933 113.527 19.7333 113.762 19.104C113.996 18.4747 114.338 17.9947 114.786 17.664C115.239 17.328 115.788 17.16 116.434 17.16C117.036 17.16 117.551 17.296 117.978 17.568C118.41 17.8347 118.74 18.2187 118.97 18.72C119.199 19.2213 119.314 19.816 119.314 20.504V25H118.082ZM112.642 25V17.352H113.714L113.89 19.112V25H112.642ZM125.162 28.936C124.378 28.936 123.698 28.824 123.122 28.6C122.546 28.3813 122.098 28.0853 121.778 27.712C121.463 27.344 121.306 26.936 121.306 26.488C121.306 25.896 121.522 25.4427 121.954 25.128C122.391 24.8187 122.954 24.664 123.642 24.664L124.33 25.096C123.754 25.096 123.309 25.216 122.994 25.456C122.679 25.696 122.522 26.024 122.522 26.44C122.522 26.856 122.746 27.208 123.194 27.496C123.642 27.784 124.298 27.928 125.162 27.928C125.802 27.928 126.362 27.8347 126.842 27.648C127.327 27.4667 127.703 27.2267 127.97 26.928C128.242 26.6347 128.378 26.3173 128.378 25.976C128.378 25.736 128.29 25.528 128.114 25.352C127.938 25.1813 127.669 25.096 127.306 25.096H124.33C123.813 25.096 123.365 25.0187 122.986 24.864C122.613 24.704 122.325 24.496 122.122 24.24C121.919 23.984 121.818 23.704 121.818 23.4C121.818 23.08 121.909 22.808 122.09 22.584C122.271 22.36 122.506 22.1893 122.794 22.072C123.087 21.9547 123.402 21.896 123.738 21.896L123.978 22.36C123.818 22.36 123.655 22.3973 123.49 22.472C123.33 22.5413 123.194 22.648 123.082 22.792C122.975 22.9307 122.922 23.1067 122.922 23.32C122.922 23.5653 123.023 23.7707 123.226 23.936C123.429 24.1013 123.797 24.184 124.33 24.184H127.306C128.026 24.184 128.591 24.336 129.002 24.64C129.418 24.944 129.626 25.368 129.626 25.912C129.626 26.4133 129.447 26.8933 129.09 27.352C128.733 27.816 128.221 28.1947 127.554 28.488C126.887 28.7867 126.09 28.936 125.162 28.936ZM125.386 22.76C124.799 22.76 124.269 22.6427 123.794 22.408C123.325 22.1733 122.951 21.8453 122.674 21.424C122.402 21.0027 122.266 20.5147 122.266 19.96C122.266 19.4 122.402 18.9093 122.674 18.488C122.951 18.0667 123.325 17.7413 123.794 17.512C124.269 17.2773 124.799 17.16 125.386 17.16C125.957 17.16 126.474 17.2773 126.938 17.512C127.407 17.7413 127.781 18.0667 128.058 18.488C128.335 18.9093 128.474 19.4 128.474 19.96C128.474 20.5147 128.335 21.0027 128.058 21.424C127.781 21.8453 127.407 22.1733 126.938 22.408C126.474 22.6427 125.957 22.76 125.386 22.76ZM125.386 21.864C125.973 21.864 126.429 21.6827 126.754 21.32C127.079 20.9573 127.242 20.504 127.242 19.96C127.242 19.4 127.079 18.9467 126.754 18.6C126.429 18.248 125.973 18.072 125.386 18.072C124.805 18.072 124.346 18.248 124.01 18.6C123.679 18.9467 123.514 19.4 123.514 19.96C123.514 20.504 123.679 20.9573 124.01 21.32C124.346 21.6827 124.805 21.864 125.386 21.864ZM127.898 18.376L127.306 18.136C127.306 17.688 127.394 17.296 127.57 16.96C127.746 16.6187 127.997 16.3547 128.322 16.168C128.647 15.976 129.034 15.88 129.482 15.88L129.386 17.112C128.906 17.112 128.538 17.216 128.282 17.424C128.026 17.6267 127.898 17.944 127.898 18.376ZM134.401 25.192C133.66 25.192 133.041 25.088 132.545 24.88C132.049 24.6667 131.673 24.376 131.417 24.008C131.161 23.6347 131.025 23.208 131.009 22.728H132.209C132.236 23.2133 132.43 23.5787 132.793 23.824C133.161 24.064 133.66 24.184 134.289 24.184C134.62 24.184 134.924 24.1307 135.201 24.024C135.478 23.9173 135.7 23.7707 135.865 23.584C136.03 23.3973 136.113 23.1867 136.113 22.952C136.113 22.6533 136.004 22.4187 135.785 22.248C135.566 22.0773 135.217 21.928 134.737 21.8L133.249 21.32C132.604 21.1173 132.108 20.84 131.761 20.488C131.42 20.1307 131.249 19.704 131.249 19.208C131.249 18.5893 131.521 18.0933 132.065 17.72C132.609 17.3467 133.324 17.16 134.209 17.16C135.148 17.16 135.876 17.352 136.393 17.736C136.91 18.12 137.18 18.6 137.201 19.176H135.969C135.921 18.84 135.75 18.5867 135.457 18.416C135.164 18.24 134.748 18.152 134.209 18.152C133.692 18.152 133.286 18.2693 132.993 18.504C132.705 18.7333 132.561 18.9893 132.561 19.272C132.561 19.8 133.014 20.1893 133.921 20.44L135.441 20.952C136.097 21.1493 136.598 21.408 136.945 21.728C137.297 22.048 137.473 22.456 137.473 22.952C137.473 23.336 137.348 23.6987 137.097 24.04C136.846 24.3813 136.492 24.6587 136.033 24.872C135.574 25.0853 135.03 25.192 134.401 25.192ZM148.908 25L148.748 23.32V20.04C148.748 19.352 148.602 18.8587 148.308 18.56C148.015 18.256 147.575 18.104 146.988 18.104C146.658 18.104 146.356 18.152 146.084 18.248C145.818 18.344 145.604 18.4933 145.444 18.696C145.29 18.8933 145.212 19.1493 145.212 19.464H143.82C143.82 18.9093 143.956 18.464 144.228 18.128C144.5 17.7867 144.874 17.5413 145.348 17.392C145.828 17.2373 146.375 17.16 146.988 17.16C147.575 17.16 148.095 17.2587 148.548 17.456C149.002 17.6533 149.356 17.968 149.612 18.4C149.868 18.8267 149.996 19.384 149.996 20.072V25H148.908ZM146.3 25.192C145.671 25.192 145.151 25.08 144.74 24.856C144.33 24.632 144.023 24.3413 143.82 23.984C143.618 23.6267 143.516 23.2507 143.516 22.856C143.516 22.3387 143.644 21.9173 143.9 21.592C144.162 21.2667 144.516 21.0293 144.964 20.88C145.412 20.7253 145.916 20.648 146.476 20.648C146.876 20.648 147.276 20.688 147.676 20.768C148.082 20.848 148.476 20.9573 148.86 21.096V21.88C148.54 21.752 148.178 21.6507 147.772 21.576C147.372 21.5013 147.004 21.464 146.668 21.464C146.156 21.464 145.724 21.5707 145.372 21.784C145.02 21.992 144.844 22.3493 144.844 22.856C144.844 23.2293 144.978 23.5493 145.244 23.816C145.516 24.0827 145.948 24.216 146.54 24.216C146.956 24.216 147.33 24.12 147.66 23.928C147.996 23.7307 148.26 23.4853 148.452 23.192C148.65 22.8987 148.748 22.6053 148.748 22.312H149.052C149.052 22.824 148.94 23.2987 148.716 23.736C148.498 24.1733 148.183 24.5253 147.772 24.792C147.362 25.0587 146.871 25.192 146.3 25.192ZM153.145 25V17.336H154.393V25H153.145ZM154.009 21.544C154.009 20.5733 154.102 19.768 154.289 19.128C154.475 18.4827 154.747 18.0027 155.105 17.688C155.467 17.368 155.907 17.208 156.425 17.208C156.595 17.208 156.75 17.2213 156.889 17.248C157.033 17.2693 157.177 17.304 157.321 17.352L157.241 18.584C157.091 18.536 156.929 18.496 156.753 18.464C156.577 18.4267 156.419 18.408 156.281 18.408C155.827 18.408 155.462 18.5387 155.185 18.8C154.907 19.056 154.705 19.4187 154.577 19.888C154.454 20.3573 154.393 20.9093 154.393 21.544H154.009ZM161.742 25.192C161.081 25.192 160.489 25.024 159.966 24.688C159.449 24.3467 159.038 23.8747 158.734 23.272C158.435 22.6693 158.286 21.976 158.286 21.192C158.286 20.3547 158.435 19.6347 158.734 19.032C159.033 18.4293 159.441 17.968 159.958 17.648C160.481 17.3227 161.075 17.16 161.742 17.16C162.323 17.16 162.819 17.2773 163.23 17.512C163.641 17.7467 163.971 18.064 164.222 18.464C164.473 18.864 164.646 19.3173 164.742 19.824C164.843 20.3253 164.873 20.8453 164.83 21.384H159.294V20.616H164.006L163.638 20.856C163.654 20.5413 163.635 20.2267 163.582 19.912C163.534 19.5973 163.441 19.3093 163.302 19.048C163.163 18.7813 162.969 18.568 162.718 18.408C162.467 18.248 162.147 18.168 161.758 18.168C161.267 18.168 160.857 18.2933 160.526 18.544C160.195 18.7947 159.947 19.1253 159.782 19.536C159.617 19.9413 159.534 20.3813 159.534 20.856V21.368C159.534 21.9013 159.614 22.3787 159.774 22.8C159.939 23.2213 160.185 23.5547 160.51 23.8C160.835 24.0453 161.246 24.168 161.742 24.168C162.238 24.168 162.646 24.048 162.966 23.808C163.286 23.568 163.481 23.2133 163.55 22.744H164.846C164.766 23.2507 164.585 23.688 164.302 24.056C164.019 24.4187 163.659 24.6987 163.222 24.896C162.785 25.0933 162.291 25.192 161.742 25.192ZM174.894 25.192C174.334 25.192 173.846 25.064 173.43 24.808C173.019 24.552 172.702 24.1787 172.478 23.688C172.254 23.192 172.142 22.5893 172.142 21.88H172.67C172.67 22.3547 172.768 22.7547 172.966 23.08C173.163 23.4053 173.419 23.6533 173.734 23.824C174.054 23.9893 174.392 24.072 174.75 24.072C175.134 24.072 175.502 23.9627 175.854 23.744C176.206 23.52 176.494 23.192 176.718 22.76C176.942 22.328 177.054 21.7947 177.054 21.16C177.054 20.552 176.95 20.032 176.742 19.6C176.539 19.168 176.264 18.8373 175.918 18.608C175.571 18.3787 175.187 18.264 174.766 18.264C174.403 18.264 174.062 18.352 173.742 18.528C173.422 18.704 173.163 18.9627 172.966 19.304C172.768 19.64 172.67 20.056 172.67 20.552H172.142C172.142 19.8107 172.264 19.1893 172.51 18.688C172.755 18.1813 173.088 17.8 173.51 17.544C173.931 17.288 174.403 17.16 174.926 17.16C175.523 17.16 176.08 17.32 176.598 17.64C177.115 17.96 177.534 18.4187 177.854 19.016C178.174 19.6133 178.334 20.328 178.334 21.16C178.334 22.0027 178.171 22.7253 177.846 23.328C177.526 23.9307 177.104 24.392 176.582 24.712C176.059 25.032 175.496 25.192 174.894 25.192ZM171.422 28.76V17.352H172.462L172.67 19.144V28.76H171.422ZM181.645 15.544C181.389 15.544 181.186 15.472 181.037 15.328C180.888 15.1787 180.813 14.984 180.813 14.744C180.813 14.5093 180.888 14.3227 181.037 14.184C181.186 14.0453 181.389 13.976 181.645 13.976C181.901 13.976 182.104 14.0453 182.253 14.184C182.402 14.3227 182.477 14.5093 182.477 14.744C182.477 14.984 182.402 15.1787 182.253 15.328C182.104 15.472 181.901 15.544 181.645 15.544ZM181.021 25V17.336H182.269V25H181.021ZM188.523 25.192C187.861 25.192 187.269 25.024 186.747 24.688C186.229 24.3467 185.819 23.8747 185.515 23.272C185.216 22.6693 185.067 21.976 185.067 21.192C185.067 20.3547 185.216 19.6347 185.515 19.032C185.813 18.4293 186.221 17.968 186.739 17.648C187.261 17.3227 187.856 17.16 188.523 17.16C189.104 17.16 189.6 17.2773 190.011 17.512C190.421 17.7467 190.752 18.064 191.003 18.464C191.253 18.864 191.427 19.3173 191.523 19.824C191.624 20.3253 191.653 20.8453 191.611 21.384H186.075V20.616H190.787L190.419 20.856C190.435 20.5413 190.416 20.2267 190.363 19.912C190.315 19.5973 190.221 19.3093 190.083 19.048C189.944 18.7813 189.749 18.568 189.499 18.408C189.248 18.248 188.928 18.168 188.539 18.168C188.048 18.168 187.637 18.2933 187.307 18.544C186.976 18.7947 186.728 19.1253 186.563 19.536C186.397 19.9413 186.315 20.3813 186.315 20.856V21.368C186.315 21.9013 186.395 22.3787 186.555 22.8C186.72 23.2213 186.965 23.5547 187.291 23.8C187.616 24.0453 188.027 24.168 188.523 24.168C189.019 24.168 189.427 24.048 189.747 23.808C190.067 23.568 190.261 23.2133 190.331 22.744H191.627C191.547 23.2507 191.365 23.688 191.083 24.056C190.8 24.4187 190.44 24.6987 190.003 24.896C189.565 25.0933 189.072 25.192 188.523 25.192ZM196.933 25.192C196.32 25.192 195.747 25.0267 195.213 24.696C194.685 24.3653 194.259 23.8987 193.933 23.296C193.608 22.6933 193.445 21.9813 193.445 21.16C193.445 20.3173 193.608 19.5973 193.933 19C194.259 18.4027 194.685 17.9467 195.213 17.632C195.747 17.3173 196.32 17.16 196.933 17.16C197.365 17.16 197.752 17.2267 198.093 17.36C198.44 17.488 198.741 17.6667 198.997 17.896C199.253 18.1253 199.464 18.3867 199.629 18.68C199.8 18.968 199.925 19.272 200.005 19.592L198.725 19.704C198.592 19.2613 198.368 18.912 198.053 18.656C197.744 18.3947 197.365 18.264 196.917 18.264C196.539 18.264 196.181 18.3733 195.845 18.592C195.515 18.8053 195.245 19.128 195.037 19.56C194.829 19.9867 194.725 20.52 194.725 21.16C194.725 21.752 194.819 22.2667 195.005 22.704C195.197 23.136 195.459 23.472 195.789 23.712C196.12 23.952 196.496 24.072 196.917 24.072C197.509 24.072 197.957 23.928 198.261 23.64C198.571 23.3467 198.725 22.9413 198.725 22.424H200.005C200.005 22.9573 199.88 23.432 199.629 23.848C199.379 24.264 199.021 24.592 198.557 24.832C198.099 25.072 197.557 25.192 196.933 25.192ZM205.311 25.192C204.65 25.192 204.058 25.024 203.535 24.688C203.018 24.3467 202.607 23.8747 202.303 23.272C202.005 22.6693 201.855 21.976 201.855 21.192C201.855 20.3547 202.005 19.6347 202.303 19.032C202.602 18.4293 203.01 17.968 203.527 17.648C204.05 17.3227 204.645 17.16 205.311 17.16C205.893 17.16 206.389 17.2773 206.799 17.512C207.21 17.7467 207.541 18.064 207.791 18.464C208.042 18.864 208.215 19.3173 208.311 19.824C208.413 20.3253 208.442 20.8453 208.399 21.384H202.863V20.616H207.575L207.207 20.856C207.223 20.5413 207.205 20.2267 207.151 19.912C207.103 19.5973 207.01 19.3093 206.871 19.048C206.733 18.7813 206.538 18.568 206.287 18.408C206.037 18.248 205.717 18.168 205.327 18.168C204.837 18.168 204.426 18.2933 204.095 18.544C203.765 18.7947 203.517 19.1253 203.351 19.536C203.186 19.9413 203.103 20.3813 203.103 20.856V21.368C203.103 21.9013 203.183 22.3787 203.343 22.8C203.509 23.2213 203.754 23.5547 204.079 23.8C204.405 24.0453 204.815 24.168 205.311 24.168C205.807 24.168 206.215 24.048 206.535 23.808C206.855 23.568 207.05 23.2133 207.119 22.744H208.415C208.335 23.2507 208.154 23.688 207.871 24.056C207.589 24.4187 207.229 24.6987 206.791 24.896C206.354 25.0933 205.861 25.192 205.311 25.192ZM213.786 25.192C213.045 25.192 212.426 25.088 211.93 24.88C211.434 24.6667 211.058 24.376 210.802 24.008C210.546 23.6347 210.41 23.208 210.394 22.728H211.594C211.621 23.2133 211.815 23.5787 212.178 23.824C212.546 24.064 213.045 24.184 213.674 24.184C214.005 24.184 214.309 24.1307 214.586 24.024C214.863 23.9173 215.085 23.7707 215.25 23.584C215.415 23.3973 215.498 23.1867 215.498 22.952C215.498 22.6533 215.389 22.4187 215.17 22.248C214.951 22.0773 214.602 21.928 214.122 21.8L212.634 21.32C211.989 21.1173 211.493 20.84 211.146 20.488C210.805 20.1307 210.634 19.704 210.634 19.208C210.634 18.5893 210.906 18.0933 211.45 17.72C211.994 17.3467 212.709 17.16 213.594 17.16C214.533 17.16 215.261 17.352 215.778 17.736C216.295 18.12 216.565 18.6 216.586 19.176H215.354C215.306 18.84 215.135 18.5867 214.842 18.416C214.549 18.24 214.133 18.152 213.594 18.152C213.077 18.152 212.671 18.2693 212.378 18.504C212.09 18.7333 211.946 18.9893 211.946 19.272C211.946 19.8 212.399 20.1893 213.306 20.44L214.826 20.952C215.482 21.1493 215.983 21.408 216.33 21.728C216.682 22.048 216.858 22.456 216.858 22.952C216.858 23.336 216.733 23.6987 216.482 24.04C216.231 24.3813 215.877 24.6587 215.418 24.872C214.959 25.0853 214.415 25.192 213.786 25.192ZM226.325 25.192C225.637 25.192 225.024 25.04 224.485 24.736C223.952 24.432 223.531 23.9813 223.221 23.384C222.912 22.7867 222.757 22.0507 222.757 21.176C222.757 20.296 222.912 19.56 223.221 18.968C223.531 18.3707 223.952 17.92 224.485 17.616C225.024 17.312 225.637 17.16 226.325 17.16C227.008 17.16 227.616 17.312 228.149 17.616C228.688 17.92 229.109 18.3707 229.413 18.968C229.723 19.56 229.877 20.296 229.877 21.176C229.877 22.0507 229.723 22.7867 229.413 23.384C229.109 23.9813 228.688 24.432 228.149 24.736C227.616 25.04 227.008 25.192 226.325 25.192ZM226.293 24.104C226.789 24.104 227.211 23.9867 227.557 23.752C227.904 23.512 228.165 23.1733 228.341 22.736C228.523 22.2987 228.613 21.7787 228.613 21.176C228.613 20.264 228.424 19.5467 228.045 19.024C227.667 18.496 227.104 18.232 226.357 18.232C225.856 18.232 225.432 18.352 225.085 18.592C224.744 18.8267 224.483 19.1653 224.301 19.608C224.125 20.0453 224.037 20.568 224.037 21.176C224.037 22.0773 224.227 22.792 224.605 23.32C224.989 23.8427 225.552 24.104 226.293 24.104ZM232.883 25V16.168C232.883 15.6613 232.979 15.248 233.171 14.928C233.369 14.6027 233.63 14.3627 233.955 14.208C234.286 14.0533 234.654 13.976 235.059 13.976C235.278 13.976 235.499 13.992 235.723 14.024C235.953 14.056 236.179 14.104 236.403 14.168L236.163 15.16C236.003 15.096 235.843 15.048 235.683 15.016C235.529 14.984 235.379 14.968 235.235 14.968C235.065 14.968 234.894 15 234.723 15.064C234.553 15.128 234.411 15.248 234.299 15.424C234.187 15.6 234.131 15.8533 234.131 16.184V25H232.883ZM231.635 18.216V17.352H235.715V18.216H231.635ZM32.616 45V37.336H33.864V45H32.616ZM33.48 41.544C33.48 40.5733 33.5733 39.768 33.76 39.128C33.9467 38.4827 34.2187 38.0027 34.576 37.688C34.9387 37.368 35.3787 37.208 35.896 37.208C36.0667 37.208 36.2213 37.2213 36.36 37.248C36.504 37.2693 36.648 37.304 36.792 37.352L36.712 38.584C36.5627 38.536 36.4 38.496 36.224 38.464C36.048 38.4267 35.8907 38.408 35.752 38.408C35.2987 38.408 34.9333 38.5387 34.656 38.8C34.3787 39.056 34.176 39.4187 34.048 39.888C33.9253 40.3573 33.864 40.9093 33.864 41.544H33.48ZM41.3253 45.192C40.6373 45.192 40.0239 45.04 39.4852 44.736C38.9519 44.432 38.5306 43.9813 38.2212 43.384C37.9119 42.7867 37.7572 42.0507 37.7572 41.176C37.7572 40.296 37.9119 39.56 38.2212 38.968C38.5306 38.3707 38.9519 37.92 39.4852 37.616C40.0239 37.312 40.6373 37.16 41.3253 37.16C42.0079 37.16 42.6159 37.312 43.1493 37.616C43.6879 37.92 44.1093 38.3707 44.4132 38.968C44.7226 39.56 44.8773 40.296 44.8773 41.176C44.8773 42.0507 44.7226 42.7867 44.4132 43.384C44.1093 43.9813 43.6879 44.432 43.1493 44.736C42.6159 45.04 42.0079 45.192 41.3253 45.192ZM41.2933 44.104C41.7893 44.104 42.2106 43.9867 42.5573 43.752C42.9039 43.512 43.1652 43.1733 43.3412 42.736C43.5226 42.2987 43.6133 41.7787 43.6133 41.176C43.6133 40.264 43.4239 39.5467 43.0452 39.024C42.6666 38.496 42.1039 38.232 41.3573 38.232C40.8559 38.232 40.4319 38.352 40.0852 38.592C39.7439 38.8267 39.4826 39.1653 39.3012 39.608C39.1253 40.0453 39.0373 40.568 39.0373 41.176C39.0373 42.0773 39.2266 42.792 39.6052 43.32C39.9893 43.8427 40.5519 44.104 41.2933 44.104ZM50.2352 45.192C49.5472 45.192 48.9339 45.04 48.3952 44.736C47.8619 44.432 47.4406 43.9813 47.1312 43.384C46.8219 42.7867 46.6672 42.0507 46.6672 41.176C46.6672 40.296 46.8219 39.56 47.1312 38.968C47.4406 38.3707 47.8619 37.92 48.3952 37.616C48.9339 37.312 49.5472 37.16 50.2352 37.16C50.9179 37.16 51.5259 37.312 52.0592 37.616C52.5979 37.92 53.0192 38.3707 53.3232 38.968C53.6326 39.56 53.7873 40.296 53.7873 41.176C53.7873 42.0507 53.6326 42.7867 53.3232 43.384C53.0192 43.9813 52.5979 44.432 52.0592 44.736C51.5259 45.04 50.9179 45.192 50.2352 45.192ZM50.2032 44.104C50.6992 44.104 51.1206 43.9867 51.4672 43.752C51.8139 43.512 52.0752 43.1733 52.2512 42.736C52.4326 42.2987 52.5233 41.7787 52.5233 41.176C52.5233 40.264 52.3339 39.5467 51.9552 39.024C51.5766 38.496 51.0139 38.232 50.2673 38.232C49.7659 38.232 49.3419 38.352 48.9952 38.592C48.6539 38.8267 48.3926 39.1653 48.2112 39.608C48.0352 40.0453 47.9472 40.568 47.9472 41.176C47.9472 42.0773 48.1366 42.792 48.5152 43.32C48.8992 43.8427 49.4619 44.104 50.2032 44.104ZM58.7292 45.192C58.3132 45.192 57.9399 45.112 57.6092 44.952C57.2786 44.792 57.0172 44.552 56.8252 44.232C56.6332 43.912 56.5372 43.512 56.5372 43.032V35.224H57.7692V43C57.7692 43.7893 58.1372 44.184 58.8732 44.184C59.0919 44.184 59.3026 44.16 59.5052 44.112C59.7132 44.064 59.9452 43.992 60.2012 43.896L60.3772 44.792C60.1052 44.9093 59.8332 45.0053 59.5612 45.08C59.2946 45.1547 59.0172 45.192 58.7292 45.192ZM55.3052 38.216V37.352H60.1852V38.216H55.3052ZM69.1977 45.192C68.5844 45.192 68.0111 45.0267 67.4777 44.696C66.9497 44.3653 66.5231 43.8987 66.1977 43.296C65.8724 42.6933 65.7097 41.9813 65.7097 41.16C65.7097 40.3173 65.8724 39.5973 66.1977 39C66.5231 38.4027 66.9497 37.9467 67.4777 37.632C68.0111 37.3173 68.5844 37.16 69.1977 37.16C69.6297 37.16 70.0164 37.2267 70.3577 37.36C70.7044 37.488 71.0057 37.6667 71.2617 37.896C71.5177 38.1253 71.7284 38.3867 71.8937 38.68C72.0644 38.968 72.1897 39.272 72.2697 39.592L70.9897 39.704C70.8564 39.2613 70.6324 38.912 70.3177 38.656C70.0084 38.3947 69.6297 38.264 69.1817 38.264C68.8031 38.264 68.4457 38.3733 68.1097 38.592C67.7791 38.8053 67.5097 39.128 67.3017 39.56C67.0937 39.9867 66.9897 40.52 66.9897 41.16C66.9897 41.752 67.0831 42.2667 67.2697 42.704C67.4617 43.136 67.7231 43.472 68.0537 43.712C68.3844 43.952 68.7604 44.072 69.1817 44.072C69.7737 44.072 70.2217 43.928 70.5257 43.64C70.8351 43.3467 70.9897 42.9413 70.9897 42.424H72.2697C72.2697 42.9573 72.1444 43.432 71.8937 43.848C71.6431 44.264 71.2857 44.592 70.8217 44.832C70.3631 45.072 69.8217 45.192 69.1977 45.192ZM80.1197 37.336H81.3677V45H80.1197V37.336ZM74.6957 37.336H75.9437V42.104C75.9437 42.744 76.0984 43.2293 76.4077 43.56C76.7224 43.8907 77.1704 44.056 77.7517 44.056C78.2317 44.056 78.6477 43.928 78.9997 43.672C79.3571 43.416 79.6317 43.064 79.8237 42.616C80.0211 42.1627 80.1197 41.6453 80.1197 41.064H80.5837C80.5837 41.9227 80.4584 42.656 80.2077 43.264C79.9624 43.872 79.6131 44.3387 79.1597 44.664C78.7117 44.984 78.1837 45.144 77.5757 45.144C76.9997 45.144 76.4957 45.0373 76.0637 44.824C75.6317 44.6107 75.2957 44.288 75.0557 43.856C74.8157 43.4187 74.6957 42.8667 74.6957 42.2V37.336ZM87.1192 45.192C86.7032 45.192 86.3299 45.112 85.9992 44.952C85.6686 44.792 85.4072 44.552 85.2152 44.232C85.0232 43.912 84.9272 43.512 84.9272 43.032V35.224H86.1592V43C86.1592 43.7893 86.5272 44.184 87.2632 44.184C87.4819 44.184 87.6926 44.16 87.8952 44.112C88.1032 44.064 88.3352 43.992 88.5912 43.896L88.7672 44.792C88.4952 44.9093 88.2232 45.0053 87.9512 45.08C87.6846 45.1547 87.4072 45.192 87.1192 45.192ZM83.6952 38.216V37.352H88.5752V38.216H83.6952ZM95.3157 45V36.168C95.3157 35.6613 95.4117 35.248 95.6037 34.928C95.8011 34.6027 96.0624 34.3627 96.3877 34.208C96.7184 34.0533 97.0864 33.976 97.4917 33.976C97.7104 33.976 97.9317 33.992 98.1557 34.024C98.3851 34.056 98.6117 34.104 98.8357 34.168L98.5957 35.16C98.4357 35.096 98.2757 35.048 98.1157 35.016C97.9611 34.984 97.8117 34.968 97.6677 34.968C97.4971 34.968 97.3264 35 97.1557 35.064C96.9851 35.128 96.8437 35.248 96.7317 35.424C96.6197 35.6 96.5637 35.8533 96.5637 36.184V45H95.3157ZM94.0677 38.216V37.352H98.1477V38.216H94.0677ZM100.544 45V37.336H101.792V45H100.544ZM101.408 41.544C101.408 40.5733 101.501 39.768 101.688 39.128C101.875 38.4827 102.147 38.0027 102.504 37.688C102.867 37.368 103.307 37.208 103.824 37.208C103.995 37.208 104.149 37.2213 104.288 37.248C104.432 37.2693 104.576 37.304 104.72 37.352L104.64 38.584C104.491 38.536 104.328 38.496 104.152 38.464C103.976 38.4267 103.819 38.408 103.68 38.408C103.227 38.408 102.861 38.5387 102.584 38.8C102.307 39.056 102.104 39.4187 101.976 39.888C101.853 40.3573 101.792 40.9093 101.792 41.544H101.408ZM109.253 45.192C108.565 45.192 107.952 45.04 107.413 44.736C106.88 44.432 106.459 43.9813 106.149 43.384C105.84 42.7867 105.685 42.0507 105.685 41.176C105.685 40.296 105.84 39.56 106.149 38.968C106.459 38.3707 106.88 37.92 107.413 37.616C107.952 37.312 108.565 37.16 109.253 37.16C109.936 37.16 110.544 37.312 111.077 37.616C111.616 37.92 112.037 38.3707 112.341 38.968C112.651 39.56 112.805 40.296 112.805 41.176C112.805 42.0507 112.651 42.7867 112.341 43.384C112.037 43.9813 111.616 44.432 111.077 44.736C110.544 45.04 109.936 45.192 109.253 45.192ZM109.221 44.104C109.717 44.104 110.139 43.9867 110.485 43.752C110.832 43.512 111.093 43.1733 111.269 42.736C111.451 42.2987 111.541 41.7787 111.541 41.176C111.541 40.264 111.352 39.5467 110.973 39.024C110.595 38.496 110.032 38.232 109.285 38.232C108.784 38.232 108.36 38.352 108.013 38.592C107.672 38.8267 107.411 39.1653 107.229 39.608C107.053 40.0453 106.965 40.568 106.965 41.176C106.965 42.0773 107.155 42.792 107.533 43.32C107.917 43.8427 108.48 44.104 109.221 44.104ZM126.147 45V40.504C126.147 39.7733 125.971 39.2187 125.619 38.84C125.273 38.456 124.803 38.264 124.211 38.264C123.518 38.264 122.987 38.5333 122.619 39.072C122.251 39.6053 122.067 40.344 122.067 41.288H121.491C121.491 40.6 121.558 39.9973 121.691 39.48C121.83 38.9627 122.03 38.5333 122.291 38.192C122.553 37.8453 122.87 37.5867 123.243 37.416C123.617 37.2453 124.041 37.16 124.515 37.16C125.118 37.16 125.633 37.296 126.059 37.568C126.491 37.8347 126.822 38.2187 127.051 38.72C127.281 39.2213 127.395 39.816 127.395 40.504V45H126.147ZM115.395 45V37.352H116.467L116.611 38.888C116.851 38.3333 117.187 37.9067 117.619 37.608C118.057 37.3093 118.579 37.16 119.187 37.16C119.79 37.16 120.305 37.296 120.731 37.568C121.163 37.8347 121.494 38.2187 121.723 38.72C121.953 39.2213 122.067 39.816 122.067 40.504V45H120.835V40.504C120.835 39.7733 120.659 39.2187 120.307 38.84C119.961 38.456 119.486 38.264 118.883 38.264C118.425 38.264 118.027 38.3893 117.691 38.64C117.355 38.8907 117.097 39.2507 116.915 39.72C116.734 40.184 116.643 40.7387 116.643 41.384V45H115.395ZM137.953 45.192C137.393 45.192 136.905 45.064 136.489 44.808C136.078 44.552 135.761 44.1787 135.537 43.688C135.313 43.192 135.201 42.5893 135.201 41.88H135.729C135.729 42.3547 135.828 42.7547 136.025 43.08C136.222 43.4053 136.478 43.6533 136.793 43.824C137.113 43.9893 137.452 44.072 137.809 44.072C138.193 44.072 138.561 43.9627 138.913 43.744C139.265 43.52 139.553 43.192 139.777 42.76C140.001 42.328 140.113 41.7947 140.113 41.16C140.113 40.552 140.009 40.032 139.801 39.6C139.598 39.168 139.324 38.8373 138.977 38.608C138.63 38.3787 138.246 38.264 137.825 38.264C137.462 38.264 137.121 38.352 136.801 38.528C136.481 38.704 136.222 38.9627 136.025 39.304C135.828 39.64 135.729 40.056 135.729 40.552H135.201C135.201 39.8107 135.324 39.1893 135.569 38.688C135.814 38.1813 136.148 37.8 136.569 37.544C136.99 37.288 137.462 37.16 137.985 37.16C138.582 37.16 139.14 37.32 139.657 37.64C140.174 37.96 140.593 38.4187 140.913 39.016C141.233 39.6133 141.393 40.328 141.393 41.16C141.393 42.0027 141.23 42.7253 140.905 43.328C140.585 43.9307 140.164 44.392 139.641 44.712C139.118 45.032 138.556 45.192 137.953 45.192ZM134.481 48.76V37.352H135.521L135.729 39.144V48.76H134.481ZM144 45V34.088H145.248V45H144ZM153.381 45L153.221 43.32V40.04C153.221 39.352 153.074 38.8587 152.781 38.56C152.487 38.256 152.047 38.104 151.461 38.104C151.13 38.104 150.829 38.152 150.557 38.248C150.29 38.344 150.077 38.4933 149.917 38.696C149.762 38.8933 149.685 39.1493 149.685 39.464H148.293C148.293 38.9093 148.429 38.464 148.701 38.128C148.973 37.7867 149.346 37.5413 149.821 37.392C150.301 37.2373 150.847 37.16 151.461 37.16C152.047 37.16 152.567 37.2587 153.021 37.456C153.474 37.6533 153.829 37.968 154.085 38.4C154.341 38.8267 154.469 39.384 154.469 40.072V45H153.381ZM150.773 45.192C150.143 45.192 149.623 45.08 149.213 44.856C148.802 44.632 148.495 44.3413 148.293 43.984C148.09 43.6267 147.989 43.2507 147.989 42.856C147.989 42.3387 148.117 41.9173 148.373 41.592C148.634 41.2667 148.989 41.0293 149.437 40.88C149.885 40.7253 150.389 40.648 150.949 40.648C151.349 40.648 151.749 40.688 152.149 40.768C152.554 40.848 152.949 40.9573 153.333 41.096V41.88C153.013 41.752 152.65 41.6507 152.245 41.576C151.845 41.5013 151.477 41.464 151.141 41.464C150.629 41.464 150.197 41.5707 149.845 41.784C149.493 41.992 149.317 42.3493 149.317 42.856C149.317 43.2293 149.45 43.5493 149.717 43.816C149.989 44.0827 150.421 44.216 151.013 44.216C151.429 44.216 151.802 44.12 152.133 43.928C152.469 43.7307 152.733 43.4853 152.925 43.192C153.122 42.8987 153.221 42.6053 153.221 42.312H153.525C153.525 42.824 153.413 43.2987 153.189 43.736C152.97 44.1733 152.655 44.5253 152.245 44.792C151.834 45.0587 151.343 45.192 150.773 45.192ZM163.057 45V40.504C163.057 39.7733 162.881 39.2187 162.529 38.84C162.183 38.456 161.708 38.264 161.105 38.264C160.647 38.264 160.249 38.3893 159.913 38.64C159.577 38.8907 159.319 39.2507 159.137 39.72C158.956 40.184 158.865 40.7387 158.865 41.384H158.385C158.385 40.4933 158.503 39.7333 158.737 39.104C158.972 38.4747 159.313 37.9947 159.761 37.664C160.215 37.328 160.764 37.16 161.409 37.16C162.012 37.16 162.527 37.296 162.953 37.568C163.385 37.8347 163.716 38.2187 163.945 38.72C164.175 39.2213 164.289 39.816 164.289 40.504V45H163.057ZM157.617 45V37.352H158.689L158.865 39.112V45H157.617ZM169.786 45.192C169.37 45.192 168.996 45.112 168.666 44.952C168.335 44.792 168.074 44.552 167.882 44.232C167.69 43.912 167.594 43.512 167.594 43.032V35.224H168.826V43C168.826 43.7893 169.194 44.184 169.93 44.184C170.148 44.184 170.359 44.16 170.562 44.112C170.77 44.064 171.002 43.992 171.258 43.896L171.434 44.792C171.162 44.9093 170.89 45.0053 170.618 45.08C170.351 45.1547 170.074 45.192 169.786 45.192ZM166.362 38.216V37.352H171.242V38.216H166.362ZM176.361 45.192C175.62 45.192 175.001 45.088 174.505 44.88C174.009 44.6667 173.633 44.376 173.377 44.008C173.121 43.6347 172.985 43.208 172.969 42.728H174.169C174.196 43.2133 174.39 43.5787 174.753 43.824C175.121 44.064 175.62 44.184 176.249 44.184C176.58 44.184 176.884 44.1307 177.161 44.024C177.438 43.9173 177.66 43.7707 177.825 43.584C177.99 43.3973 178.073 43.1867 178.073 42.952C178.073 42.6533 177.964 42.4187 177.745 42.248C177.526 42.0773 177.177 41.928 176.697 41.8L175.209 41.32C174.564 41.1173 174.068 40.84 173.721 40.488C173.38 40.1307 173.209 39.704 173.209 39.208C173.209 38.5893 173.481 38.0933 174.025 37.72C174.569 37.3467 175.284 37.16 176.169 37.16C177.108 37.16 177.836 37.352 178.353 37.736C178.87 38.12 179.14 38.6 179.161 39.176H177.929C177.881 38.84 177.71 38.5867 177.417 38.416C177.124 38.24 176.708 38.152 176.169 38.152C175.652 38.152 175.246 38.2693 174.953 38.504C174.665 38.7333 174.521 38.9893 174.521 39.272C174.521 39.8 174.974 40.1893 175.881 40.44L177.401 40.952C178.057 41.1493 178.558 41.408 178.905 41.728C179.257 42.048 179.433 42.456 179.433 42.952C179.433 43.336 179.308 43.6987 179.057 44.04C178.806 44.3813 178.452 44.6587 177.993 44.872C177.534 45.0853 176.99 45.192 176.361 45.192ZM188.484 45.192C188.068 45.192 187.695 45.112 187.364 44.952C187.034 44.792 186.772 44.552 186.58 44.232C186.388 43.912 186.292 43.512 186.292 43.032V35.224H187.524V43C187.524 43.7893 187.892 44.184 188.628 44.184C188.847 44.184 189.058 44.16 189.26 44.112C189.468 44.064 189.7 43.992 189.956 43.896L190.132 44.792C189.86 44.9093 189.588 45.0053 189.316 45.08C189.05 45.1547 188.772 45.192 188.484 45.192ZM185.06 38.216V37.352H189.94V38.216H185.06ZM197.748 45V40.504C197.748 39.7733 197.572 39.2187 197.22 38.84C196.873 38.456 196.399 38.264 195.796 38.264C195.337 38.264 194.94 38.3893 194.604 38.64C194.268 38.8907 194.009 39.2507 193.828 39.72C193.647 40.184 193.556 40.7387 193.556 41.384H193.076C193.076 40.4933 193.193 39.7333 193.428 39.104C193.663 38.4747 194.004 37.9947 194.452 37.664C194.905 37.328 195.455 37.16 196.1 37.16C196.703 37.16 197.217 37.296 197.644 37.568C198.076 37.8347 198.407 38.2187 198.636 38.72C198.865 39.2213 198.98 39.816 198.98 40.504V45H197.748ZM192.308 45V34.088H193.556V45H192.308ZM206.86 45L206.7 43.32V40.04C206.7 39.352 206.553 38.8587 206.26 38.56C205.967 38.256 205.527 38.104 204.94 38.104C204.609 38.104 204.308 38.152 204.036 38.248C203.769 38.344 203.556 38.4933 203.396 38.696C203.241 38.8933 203.164 39.1493 203.164 39.464H201.772C201.772 38.9093 201.908 38.464 202.18 38.128C202.452 37.7867 202.825 37.5413 203.3 37.392C203.78 37.2373 204.327 37.16 204.94 37.16C205.527 37.16 206.047 37.2587 206.5 37.456C206.953 37.6533 207.308 37.968 207.564 38.4C207.82 38.8267 207.948 39.384 207.948 40.072V45H206.86ZM204.252 45.192C203.623 45.192 203.103 45.08 202.692 44.856C202.281 44.632 201.975 44.3413 201.772 43.984C201.569 43.6267 201.468 43.2507 201.468 42.856C201.468 42.3387 201.596 41.9173 201.852 41.592C202.113 41.2667 202.468 41.0293 202.916 40.88C203.364 40.7253 203.868 40.648 204.428 40.648C204.828 40.648 205.228 40.688 205.628 40.768C206.033 40.848 206.428 40.9573 206.812 41.096V41.88C206.492 41.752 206.129 41.6507 205.724 41.576C205.324 41.5013 204.956 41.464 204.62 41.464C204.108 41.464 203.676 41.5707 203.324 41.784C202.972 41.992 202.796 42.3493 202.796 42.856C202.796 43.2293 202.929 43.5493 203.196 43.816C203.468 44.0827 203.9 44.216 204.492 44.216C204.908 44.216 205.281 44.12 205.612 43.928C205.948 43.7307 206.212 43.4853 206.404 43.192C206.601 42.8987 206.7 42.6053 206.7 42.312H207.004C207.004 42.824 206.892 43.2987 206.668 43.736C206.449 44.1733 206.135 44.5253 205.724 44.792C205.313 45.0587 204.823 45.192 204.252 45.192ZM213.449 45.192C213.033 45.192 212.659 45.112 212.329 44.952C211.998 44.792 211.737 44.552 211.545 44.232C211.353 43.912 211.257 43.512 211.257 43.032V35.224H212.489V43C212.489 43.7893 212.857 44.184 213.593 44.184C213.811 44.184 214.022 44.16 214.225 44.112C214.433 44.064 214.665 43.992 214.921 43.896L215.097 44.792C214.825 44.9093 214.553 45.0053 214.281 45.08C214.014 45.1547 213.737 45.192 213.449 45.192ZM210.025 38.216V37.352H214.905V38.216H210.025ZM219.965 37.352H221.357L223.853 43.912H223.565L225.501 37.352H226.781L223.901 46.536C223.661 47.304 223.341 47.896 222.941 48.312C222.541 48.728 222.029 48.936 221.405 48.936C221.069 48.936 220.749 48.888 220.445 48.792C220.146 48.696 219.837 48.5573 219.517 48.376V47.224C219.8 47.448 220.072 47.608 220.333 47.704C220.6 47.8 220.877 47.848 221.165 47.848C221.485 47.848 221.752 47.7467 221.965 47.544C222.184 47.3413 222.365 47.08 222.509 46.76C222.653 46.4453 222.776 46.1147 222.877 45.768L223.101 45L219.965 37.352ZM231.61 45.192C230.922 45.192 230.309 45.04 229.77 44.736C229.237 44.432 228.816 43.9813 228.506 43.384C228.197 42.7867 228.042 42.0507 228.042 41.176C228.042 40.296 228.197 39.56 228.506 38.968C228.816 38.3707 229.237 37.92 229.77 37.616C230.309 37.312 230.922 37.16 231.61 37.16C232.293 37.16 232.901 37.312 233.434 37.616C233.973 37.92 234.394 38.3707 234.698 38.968C235.008 39.56 235.162 40.296 235.162 41.176C235.162 42.0507 235.008 42.7867 234.698 43.384C234.394 43.9813 233.973 44.432 233.434 44.736C232.901 45.04 232.293 45.192 231.61 45.192ZM231.578 44.104C232.074 44.104 232.496 43.9867 232.842 43.752C233.189 43.512 233.45 43.1733 233.626 42.736C233.808 42.2987 233.898 41.7787 233.898 41.176C233.898 40.264 233.709 39.5467 233.33 39.024C232.952 38.496 232.389 38.232 231.642 38.232C231.141 38.232 230.717 38.352 230.37 38.592C230.029 38.8267 229.768 39.1653 229.586 39.608C229.41 40.0453 229.322 40.568 229.322 41.176C229.322 42.0773 229.512 42.792 229.89 43.32C230.274 43.8427 230.837 44.104 231.578 44.104ZM242.952 37.336H244.2V45H242.952V37.336ZM237.528 37.336H238.776V42.104C238.776 42.744 238.931 43.2293 239.24 43.56C239.555 43.8907 240.003 44.056 240.584 44.056C241.064 44.056 241.48 43.928 241.832 43.672C242.19 43.416 242.464 43.064 242.656 42.616C242.854 42.1627 242.952 41.6453 242.952 41.064H243.416C243.416 41.9227 243.291 42.656 243.04 43.264C242.795 43.872 242.446 44.3387 241.992 44.664C241.544 44.984 241.016 45.144 240.408 45.144C239.832 45.144 239.328 45.0373 238.896 44.824C238.464 44.6107 238.128 44.288 237.888 43.856C237.648 43.4187 237.528 42.8667 237.528 42.2V37.336ZM31.288 57.352H32.584L34.536 63.736H34.376L36.28 57.72H37.32L39.208 63.752H39.064L41.016 57.352H42.264L39.752 65H38.536L36.68 59.352H36.872L35.032 65H33.816L31.288 57.352ZM49.1058 65L48.9458 63.32V60.04C48.9458 59.352 48.7991 58.8587 48.5058 58.56C48.2124 58.256 47.7724 58.104 47.1858 58.104C46.8551 58.104 46.5537 58.152 46.2817 58.248C46.0151 58.344 45.8018 58.4933 45.6418 58.696C45.4871 58.8933 45.4097 59.1493 45.4097 59.464H44.0177C44.0177 58.9093 44.1537 58.464 44.4257 58.128C44.6977 57.7867 45.0711 57.5413 45.5457 57.392C46.0257 57.2373 46.5724 57.16 47.1858 57.16C47.7724 57.16 48.2924 57.2587 48.7457 57.456C49.1991 57.6533 49.5538 57.968 49.8098 58.4C50.0658 58.8267 50.1938 59.384 50.1938 60.072V65H49.1058ZM46.4978 65.192C45.8684 65.192 45.3484 65.08 44.9377 64.856C44.5271 64.632 44.2204 64.3413 44.0177 63.984C43.8151 63.6267 43.7137 63.2507 43.7137 62.856C43.7137 62.3387 43.8417 61.9173 44.0977 61.592C44.3591 61.2667 44.7137 61.0293 45.1618 60.88C45.6098 60.7253 46.1137 60.648 46.6737 60.648C47.0737 60.648 47.4737 60.688 47.8738 60.768C48.2791 60.848 48.6738 60.9573 49.0578 61.096V61.88C48.7378 61.752 48.3751 61.6507 47.9697 61.576C47.5697 61.5013 47.2017 61.464 46.8657 61.464C46.3537 61.464 45.9217 61.5707 45.5698 61.784C45.2177 61.992 45.0417 62.3493 45.0417 62.856C45.0417 63.2293 45.1751 63.5493 45.4418 63.816C45.7138 64.0827 46.1458 64.216 46.7378 64.216C47.1538 64.216 47.5271 64.12 47.8577 63.928C48.1938 63.7307 48.4578 63.4853 48.6498 63.192C48.8471 62.8987 48.9458 62.6053 48.9458 62.312H49.2498C49.2498 62.824 49.1378 63.2987 48.9138 63.736C48.6951 64.1733 48.3804 64.5253 47.9697 64.792C47.5591 65.0587 47.0684 65.192 46.4978 65.192ZM58.7822 65V60.504C58.7822 59.7733 58.6062 59.2187 58.2543 58.84C57.9076 58.456 57.4329 58.264 56.8302 58.264C56.3716 58.264 55.9742 58.3893 55.6382 58.64C55.3022 58.8907 55.0436 59.2507 54.8622 59.72C54.6809 60.184 54.5902 60.7387 54.5902 61.384H54.1102C54.1102 60.4933 54.2276 59.7333 54.4622 59.104C54.6969 58.4747 55.0382 57.9947 55.4862 57.664C55.9396 57.328 56.4889 57.16 57.1343 57.16C57.7369 57.16 58.2516 57.296 58.6782 57.568C59.1102 57.8347 59.4409 58.2187 59.6702 58.72C59.8996 59.2213 60.0142 59.816 60.0142 60.504V65H58.7822ZM53.3422 65V57.352H54.4142L54.5902 59.112V65H53.3422ZM65.5105 65.192C65.0945 65.192 64.7212 65.112 64.3905 64.952C64.0598 64.792 63.7985 64.552 63.6065 64.232C63.4145 63.912 63.3185 63.512 63.3185 63.032V55.224H64.5505V63C64.5505 63.7893 64.9185 64.184 65.6545 64.184C65.8732 64.184 66.0838 64.16 66.2865 64.112C66.4945 64.064 66.7265 63.992 66.9825 63.896L67.1585 64.792C66.8865 64.9093 66.6145 65.0053 66.3425 65.08C66.0758 65.1547 65.7985 65.192 65.5105 65.192ZM62.0865 58.216V57.352H66.9665V58.216H62.0865ZM75.643 65.192C75.227 65.192 74.8537 65.112 74.523 64.952C74.1923 64.792 73.931 64.552 73.739 64.232C73.547 63.912 73.451 63.512 73.451 63.032V55.224H74.683V63C74.683 63.7893 75.051 64.184 75.787 64.184C76.0057 64.184 76.2163 64.16 76.419 64.112C76.627 64.064 76.859 63.992 77.115 63.896L77.291 64.792C77.019 64.9093 76.747 65.0053 76.475 65.08C76.2083 65.1547 75.931 65.192 75.643 65.192ZM72.219 58.216V57.352H77.099V58.216H72.219ZM82.2346 65.192C81.5466 65.192 80.9333 65.04 80.3946 64.736C79.8613 64.432 79.44 63.9813 79.1306 63.384C78.8213 62.7867 78.6666 62.0507 78.6666 61.176C78.6666 60.296 78.8213 59.56 79.1306 58.968C79.44 58.3707 79.8613 57.92 80.3946 57.616C80.9333 57.312 81.5466 57.16 82.2346 57.16C82.9173 57.16 83.5253 57.312 84.0586 57.616C84.5973 57.92 85.0186 58.3707 85.3226 58.968C85.632 59.56 85.7866 60.296 85.7866 61.176C85.7866 62.0507 85.632 62.7867 85.3226 63.384C85.0186 63.9813 84.5973 64.432 84.0586 64.736C83.5253 65.04 82.9173 65.192 82.2346 65.192ZM82.2026 64.104C82.6986 64.104 83.12 63.9867 83.4666 63.752C83.8133 63.512 84.0746 63.1733 84.2506 62.736C84.432 62.2987 84.5226 61.7787 84.5226 61.176C84.5226 60.264 84.3333 59.5467 83.9546 59.024C83.576 58.496 83.0133 58.232 82.2666 58.232C81.7653 58.232 81.3413 58.352 80.9946 58.592C80.6533 58.8267 80.392 59.1653 80.2106 59.608C80.0346 60.0453 79.9466 60.568 79.9466 61.176C79.9466 62.0773 80.136 62.792 80.5146 63.32C80.8986 63.8427 81.4613 64.104 82.2026 64.104ZM95.8055 65.192C95.2455 65.192 94.7575 65.064 94.3415 64.808C93.9308 64.552 93.6135 64.1787 93.3895 63.688C93.1655 63.192 93.0535 62.5893 93.0535 61.88H93.5815C93.5815 62.3547 93.6802 62.7547 93.8775 63.08C94.0748 63.4053 94.3308 63.6533 94.6455 63.824C94.9655 63.9893 95.3042 64.072 95.6615 64.072C96.0455 64.072 96.4135 63.9627 96.7655 63.744C97.1175 63.52 97.4055 63.192 97.6295 62.76C97.8535 62.328 97.9655 61.7947 97.9655 61.16C97.9655 60.552 97.8615 60.032 97.6535 59.6C97.4508 59.168 97.1762 58.8373 96.8295 58.608C96.4828 58.3787 96.0988 58.264 95.6775 58.264C95.3148 58.264 94.9735 58.352 94.6535 58.528C94.3335 58.704 94.0748 58.9627 93.8775 59.304C93.6802 59.64 93.5815 60.056 93.5815 60.552H93.0535C93.0535 59.8107 93.1762 59.1893 93.4215 58.688C93.6668 58.1813 94.0002 57.8 94.4215 57.544C94.8428 57.288 95.3148 57.16 95.8375 57.16C96.4348 57.16 96.9922 57.32 97.5095 57.64C98.0268 57.96 98.4455 58.4187 98.7655 59.016C99.0855 59.6133 99.2455 60.328 99.2455 61.16C99.2455 62.0027 99.0828 62.7253 98.7575 63.328C98.4375 63.9307 98.0162 64.392 97.4935 64.712C96.9708 65.032 96.4082 65.192 95.8055 65.192ZM92.3335 68.76V57.352H93.3735L93.5815 59.144V68.76H92.3335ZM101.853 65V57.336H103.101V65H101.853ZM102.717 61.544C102.717 60.5733 102.81 59.768 102.997 59.128C103.184 58.4827 103.456 58.0027 103.813 57.688C104.176 57.368 104.616 57.208 105.133 57.208C105.304 57.208 105.458 57.2213 105.597 57.248C105.741 57.2693 105.885 57.304 106.029 57.352L105.949 58.584C105.8 58.536 105.637 58.496 105.461 58.464C105.285 58.4267 105.128 58.408 104.989 58.408C104.536 58.408 104.17 58.5387 103.893 58.8C103.616 59.056 103.413 59.4187 103.285 59.888C103.162 60.3573 103.101 60.9093 103.101 61.544H102.717ZM110.562 65.192C109.874 65.192 109.261 65.04 108.722 64.736C108.189 64.432 107.767 63.9813 107.458 63.384C107.149 62.7867 106.994 62.0507 106.994 61.176C106.994 60.296 107.149 59.56 107.458 58.968C107.767 58.3707 108.189 57.92 108.722 57.616C109.261 57.312 109.874 57.16 110.562 57.16C111.245 57.16 111.853 57.312 112.386 57.616C112.925 57.92 113.346 58.3707 113.65 58.968C113.959 59.56 114.114 60.296 114.114 61.176C114.114 62.0507 113.959 62.7867 113.65 63.384C113.346 63.9813 112.925 64.432 112.386 64.736C111.853 65.04 111.245 65.192 110.562 65.192ZM110.53 64.104C111.026 64.104 111.447 63.9867 111.794 63.752C112.141 63.512 112.402 63.1733 112.578 62.736C112.759 62.2987 112.85 61.7787 112.85 61.176C112.85 60.264 112.661 59.5467 112.282 59.024C111.903 58.496 111.341 58.232 110.594 58.232C110.093 58.232 109.669 58.352 109.322 58.592C108.981 58.8267 108.719 59.1653 108.538 59.608C108.362 60.0453 108.274 60.568 108.274 61.176C108.274 62.0773 108.463 62.792 108.842 63.32C109.226 63.8427 109.789 64.104 110.53 64.104ZM120.176 65.192C119.616 65.192 119.128 65.064 118.712 64.808C118.301 64.552 117.984 64.1787 117.76 63.688C117.536 63.192 117.424 62.5893 117.424 61.88H117.952C117.952 62.3547 118.051 62.7547 118.248 63.08C118.445 63.4053 118.701 63.6533 119.016 63.824C119.336 63.9893 119.675 64.072 120.032 64.072C120.416 64.072 120.784 63.9627 121.136 63.744C121.488 63.52 121.776 63.192 122 62.76C122.224 62.328 122.336 61.7947 122.336 61.16C122.336 60.552 122.232 60.032 122.024 59.6C121.821 59.168 121.547 58.8373 121.2 58.608C120.853 58.3787 120.469 58.264 120.048 58.264C119.685 58.264 119.344 58.352 119.024 58.528C118.704 58.704 118.445 58.9627 118.248 59.304C118.051 59.64 117.952 60.056 117.952 60.552H117.424C117.424 59.8107 117.547 59.1893 117.792 58.688C118.037 58.1813 118.371 57.8 118.792 57.544C119.213 57.288 119.685 57.16 120.208 57.16C120.805 57.16 121.363 57.32 121.88 57.64C122.397 57.96 122.816 58.4187 123.136 59.016C123.456 59.6133 123.616 60.328 123.616 61.16C123.616 62.0027 123.453 62.7253 123.128 63.328C122.808 63.9307 122.387 64.392 121.864 64.712C121.341 65.032 120.779 65.192 120.176 65.192ZM116.704 68.76V57.352H117.744L117.952 59.144V68.76H116.704ZM130.959 65L130.799 63.32V60.04C130.799 59.352 130.653 58.8587 130.359 58.56C130.066 58.256 129.626 58.104 129.039 58.104C128.709 58.104 128.407 58.152 128.135 58.248C127.869 58.344 127.655 58.4933 127.495 58.696C127.341 58.8933 127.263 59.1493 127.263 59.464H125.871C125.871 58.9093 126.007 58.464 126.279 58.128C126.551 57.7867 126.925 57.5413 127.399 57.392C127.879 57.2373 128.426 57.16 129.039 57.16C129.626 57.16 130.146 57.2587 130.599 57.456C131.053 57.6533 131.407 57.968 131.663 58.4C131.919 58.8267 132.047 59.384 132.047 60.072V65H130.959ZM128.351 65.192C127.722 65.192 127.202 65.08 126.791 64.856C126.381 64.632 126.074 64.3413 125.871 63.984C125.669 63.6267 125.567 63.2507 125.567 62.856C125.567 62.3387 125.695 61.9173 125.951 61.592C126.213 61.2667 126.567 61.0293 127.015 60.88C127.463 60.7253 127.967 60.648 128.527 60.648C128.927 60.648 129.327 60.688 129.727 60.768C130.133 60.848 130.527 60.9573 130.911 61.096V61.88C130.591 61.752 130.229 61.6507 129.823 61.576C129.423 61.5013 129.055 61.464 128.719 61.464C128.207 61.464 127.775 61.5707 127.423 61.784C127.071 61.992 126.895 62.3493 126.895 62.856C126.895 63.2293 127.029 63.5493 127.295 63.816C127.567 64.0827 127.999 64.216 128.591 64.216C129.007 64.216 129.381 64.12 129.711 63.928C130.047 63.7307 130.311 63.4853 130.503 63.192C130.701 62.8987 130.799 62.6053 130.799 62.312H131.103C131.103 62.824 130.991 63.2987 130.767 63.736C130.549 64.1733 130.234 64.5253 129.823 64.792C129.413 65.0587 128.922 65.192 128.351 65.192ZM137.9 68.936C137.116 68.936 136.436 68.824 135.86 68.6C135.284 68.3813 134.836 68.0853 134.516 67.712C134.201 67.344 134.044 66.936 134.044 66.488C134.044 65.896 134.26 65.4427 134.692 65.128C135.129 64.8187 135.692 64.664 136.38 64.664L137.068 65.096C136.492 65.096 136.047 65.216 135.732 65.456C135.417 65.696 135.26 66.024 135.26 66.44C135.26 66.856 135.484 67.208 135.932 67.496C136.38 67.784 137.036 67.928 137.9 67.928C138.54 67.928 139.1 67.8347 139.58 67.648C140.065 67.4667 140.441 67.2267 140.708 66.928C140.98 66.6347 141.116 66.3173 141.116 65.976C141.116 65.736 141.028 65.528 140.852 65.352C140.676 65.1813 140.407 65.096 140.044 65.096H137.068C136.551 65.096 136.103 65.0187 135.724 64.864C135.351 64.704 135.063 64.496 134.86 64.24C134.657 63.984 134.556 63.704 134.556 63.4C134.556 63.08 134.647 62.808 134.828 62.584C135.009 62.36 135.244 62.1893 135.532 62.072C135.825 61.9547 136.14 61.896 136.476 61.896L136.716 62.36C136.556 62.36 136.393 62.3973 136.228 62.472C136.068 62.5413 135.932 62.648 135.82 62.792C135.713 62.9307 135.66 63.1067 135.66 63.32C135.66 63.5653 135.761 63.7707 135.964 63.936C136.167 64.1013 136.535 64.184 137.068 64.184H140.044C140.764 64.184 141.329 64.336 141.74 64.64C142.156 64.944 142.364 65.368 142.364 65.912C142.364 66.4133 142.185 66.8933 141.828 67.352C141.471 67.816 140.959 68.1947 140.292 68.488C139.625 68.7867 138.828 68.936 137.9 68.936ZM138.124 62.76C137.537 62.76 137.007 62.6427 136.532 62.408C136.063 62.1733 135.689 61.8453 135.412 61.424C135.14 61.0027 135.004 60.5147 135.004 59.96C135.004 59.4 135.14 58.9093 135.412 58.488C135.689 58.0667 136.063 57.7413 136.532 57.512C137.007 57.2773 137.537 57.16 138.124 57.16C138.695 57.16 139.212 57.2773 139.676 57.512C140.145 57.7413 140.519 58.0667 140.796 58.488C141.073 58.9093 141.212 59.4 141.212 59.96C141.212 60.5147 141.073 61.0027 140.796 61.424C140.519 61.8453 140.145 62.1733 139.676 62.408C139.212 62.6427 138.695 62.76 138.124 62.76ZM138.124 61.864C138.711 61.864 139.167 61.6827 139.492 61.32C139.817 60.9573 139.98 60.504 139.98 59.96C139.98 59.4 139.817 58.9467 139.492 58.6C139.167 58.248 138.711 58.072 138.124 58.072C137.543 58.072 137.084 58.248 136.748 58.6C136.417 58.9467 136.252 59.4 136.252 59.96C136.252 60.504 136.417 60.9573 136.748 61.32C137.084 61.6827 137.543 61.864 138.124 61.864ZM140.636 58.376L140.044 58.136C140.044 57.688 140.132 57.296 140.308 56.96C140.484 56.6187 140.735 56.3547 141.06 56.168C141.385 55.976 141.772 55.88 142.22 55.88L142.124 57.112C141.644 57.112 141.276 57.216 141.02 57.424C140.764 57.6267 140.636 57.944 140.636 58.376ZM149.123 65L148.963 63.32V60.04C148.963 59.352 148.817 58.8587 148.523 58.56C148.23 58.256 147.79 58.104 147.203 58.104C146.873 58.104 146.571 58.152 146.299 58.248C146.033 58.344 145.819 58.4933 145.659 58.696C145.505 58.8933 145.427 59.1493 145.427 59.464H144.035C144.035 58.9093 144.171 58.464 144.443 58.128C144.715 57.7867 145.089 57.5413 145.563 57.392C146.043 57.2373 146.59 57.16 147.203 57.16C147.79 57.16 148.31 57.2587 148.763 57.456C149.217 57.6533 149.571 57.968 149.827 58.4C150.083 58.8267 150.211 59.384 150.211 60.072V65H149.123ZM146.515 65.192C145.886 65.192 145.366 65.08 144.955 64.856C144.545 64.632 144.238 64.3413 144.035 63.984C143.833 63.6267 143.731 63.2507 143.731 62.856C143.731 62.3387 143.859 61.9173 144.115 61.592C144.377 61.2667 144.731 61.0293 145.179 60.88C145.627 60.7253 146.131 60.648 146.691 60.648C147.091 60.648 147.491 60.688 147.891 60.768C148.297 60.848 148.691 60.9573 149.075 61.096V61.88C148.755 61.752 148.393 61.6507 147.987 61.576C147.587 61.5013 147.219 61.464 146.883 61.464C146.371 61.464 145.939 61.5707 145.587 61.784C145.235 61.992 145.059 62.3493 145.059 62.856C145.059 63.2293 145.193 63.5493 145.459 63.816C145.731 64.0827 146.163 64.216 146.755 64.216C147.171 64.216 147.545 64.12 147.875 63.928C148.211 63.7307 148.475 63.4853 148.667 63.192C148.865 62.8987 148.963 62.6053 148.963 62.312H149.267C149.267 62.824 149.155 63.2987 148.931 63.736C148.713 64.1733 148.398 64.5253 147.987 64.792C147.577 65.0587 147.086 65.192 146.515 65.192ZM155.712 65.192C155.296 65.192 154.922 65.112 154.592 64.952C154.261 64.792 154 64.552 153.808 64.232C153.616 63.912 153.52 63.512 153.52 63.032V55.224H154.752V63C154.752 63.7893 155.12 64.184 155.856 64.184C156.074 64.184 156.285 64.16 156.488 64.112C156.696 64.064 156.928 63.992 157.184 63.896L157.36 64.792C157.088 64.9093 156.816 65.0053 156.544 65.08C156.277 65.1547 156 65.192 155.712 65.192ZM152.288 58.216V57.352H157.168V58.216H152.288ZM162.191 65.192C161.53 65.192 160.938 65.024 160.415 64.688C159.898 64.3467 159.487 63.8747 159.183 63.272C158.885 62.6693 158.735 61.976 158.735 61.192C158.735 60.3547 158.885 59.6347 159.183 59.032C159.482 58.4293 159.89 57.968 160.407 57.648C160.93 57.3227 161.525 57.16 162.191 57.16C162.773 57.16 163.269 57.2773 163.679 57.512C164.09 57.7467 164.421 58.064 164.671 58.464C164.922 58.864 165.095 59.3173 165.191 59.824C165.293 60.3253 165.322 60.8453 165.279 61.384H159.743V60.616H164.455L164.087 60.856C164.103 60.5413 164.085 60.2267 164.031 59.912C163.983 59.5973 163.89 59.3093 163.751 59.048C163.613 58.7813 163.418 58.568 163.167 58.408C162.917 58.248 162.597 58.168 162.207 58.168C161.717 58.168 161.306 58.2933 160.975 58.544C160.645 58.7947 160.397 59.1253 160.231 59.536C160.066 59.9413 159.983 60.3813 159.983 60.856V61.368C159.983 61.9013 160.063 62.3787 160.223 62.8C160.389 63.2213 160.634 63.5547 160.959 63.8C161.285 64.0453 161.695 64.168 162.191 64.168C162.687 64.168 163.095 64.048 163.415 63.808C163.735 63.568 163.93 63.2133 163.999 62.744H165.295C165.215 63.2507 165.034 63.688 164.751 64.056C164.469 64.4187 164.109 64.6987 163.671 64.896C163.234 65.0933 162.741 65.192 162.191 65.192ZM170.386 58.296L169.49 57.816C169.794 57.6613 170.05 57.488 170.258 57.296C170.471 57.0987 170.61 56.872 170.674 56.616C170.434 56.5893 170.231 56.5067 170.066 56.368C169.906 56.2293 169.826 56.0453 169.826 55.816C169.826 55.5813 169.914 55.384 170.09 55.224C170.266 55.064 170.487 54.984 170.754 54.984C170.978 54.984 171.17 55.0427 171.33 55.16C171.49 55.272 171.613 55.424 171.698 55.616C171.783 55.8027 171.826 56.0133 171.826 56.248C171.826 56.632 171.701 57.008 171.45 57.376C171.199 57.7387 170.845 58.0453 170.386 58.296ZM167.77 58.296L166.874 57.816C167.178 57.6613 167.434 57.488 167.642 57.296C167.855 57.0987 167.994 56.872 168.058 56.616C167.818 56.5893 167.615 56.5067 167.45 56.368C167.29 56.2293 167.21 56.0453 167.21 55.816C167.21 55.5813 167.298 55.384 167.474 55.224C167.65 55.064 167.871 54.984 168.138 54.984C168.362 54.984 168.554 55.0427 168.714 55.16C168.874 55.272 168.997 55.424 169.082 55.616C169.167 55.8027 169.21 56.0133 169.21 56.248C169.21 56.632 169.085 57.008 168.834 57.376C168.583 57.7387 168.229 58.0453 167.77 58.296ZM173.298 64.256C173.298 64.0053 173.386 63.7893 173.562 63.608C173.738 63.4267 173.959 63.336 174.226 63.336C174.492 63.336 174.719 63.4267 174.906 63.608C175.092 63.7893 175.186 64.0053 175.186 64.256C175.186 64.5067 175.092 64.7173 174.906 64.888C174.719 65.0587 174.492 65.144 174.226 65.144C173.959 65.144 173.738 65.0587 173.562 64.888C173.386 64.712 173.298 64.5013 173.298 64.256Z" fill="#333333"/>
</g>
<defs>
<filter id="filter0_d_7054_5738" x="0" y="0" width="262.035" height="88" filterUnits="userSpaceOnUse" color-interpolation-filters="sRGB">
<feFlood flood-opacity="0" result="BackgroundImageFix"/>
<feColorMatrix in="SourceAlpha" type="matrix" values="0 0 0 0 0 0 0 0 0 0 0 0 0 0 0 0 0 0 127 0" result="hardAlpha"/>
<feOffset dy="4"/>
<feGaussianBlur stdDeviation="3"/>
<feComposite in2="hardAlpha" operator="out"/>
<feColorMatrix type="matrix" values="0 0 0 0 0 0 0 0 0 0 0 0 0 0 0 0 0 0 0.1 0"/>
<feBlend mode="normal" in2="BackgroundImageFix" result="effect1_dropShadow_7054_5738"/>
<feBlend mode="normal" in="SourceGraphic" in2="effect1_dropShadow_7054_5738" result="shape"/>
</filter>
<filter id="filter1_d_7054_5738" x="25.288" y="11.9756" width="224.912" height="66.96" filterUnits="userSpaceOnUse" color-interpolation-filters="sRGB">
<feFlood flood-opacity="0" result="BackgroundImageFix"/>
<feColorMatrix in="SourceAlpha" type="matrix" values="0 0 0 0 0 0 0 0 0 0 0 0 0 0 0 0 0 0 127 0" result="hardAlpha"/>
<feOffset dy="4"/>
<feGaussianBlur stdDeviation="3"/>
<feComposite in2="hardAlpha" operator="out"/>
<feColorMatrix type="matrix" values="0 0 0 0 0 0 0 0 0 0 0 0 0 0 0 0 0 0 0.05 0"/>
<feBlend mode="normal" in2="BackgroundImageFix" result="effect1_dropShadow_7054_5738"/>
<feBlend mode="normal" in="SourceGraphic" in2="effect1_dropShadow_7054_5738" result="shape"/>
</filter>
</defs>
</svg>
