<svg width="256" height="68" viewBox="0 0 256 68" fill="none" xmlns="http://www.w3.org/2000/svg">
<mask id="path-1-inside-1_7049_5822" fill="white">
<path d="M248.724 27.3669L239 19L239 11C239 6.02944 234.971 2 230 2L8.99997 1.99998C4.02941 1.99998 -2.59742e-05 6.02942 -2.64087e-05 11L-2.97308e-05 49C-3.01653e-05 53.9705 4.0294 58 8.99997 58L230 58C234.971 58 239 53.9706 239 49L239 39.5L248.612 32.0069C250.106 30.8425 250.16 28.6022 248.724 27.3669Z"/>
</mask>
<path d="M248.724 27.3669L239 19L239 11C239 6.02944 234.971 2 230 2L8.99997 1.99998C4.02941 1.99998 -2.59742e-05 6.02942 -2.64087e-05 11L-2.97308e-05 49C-3.01653e-05 53.9705 4.0294 58 8.99997 58L230 58C234.971 58 239 53.9706 239 49L239 39.5L248.612 32.0069C250.106 30.8425 250.16 28.6022 248.724 27.3669Z" fill="white"/>
<path d="M239 19L237.6 19L237.6 19.6423L238.087 20.0612L239 19ZM248.724 27.3669L249.637 26.3056L249.637 26.3056L248.724 27.3669ZM248.612 32.0069L247.751 30.9028L247.751 30.9028L248.612 32.0069ZM239 39.5L238.139 38.3959L237.6 38.8162L237.6 39.5L239 39.5ZM238.087 20.0612L247.811 28.4281L249.637 26.3056L239.913 17.9388L238.087 20.0612ZM247.751 30.9028L238.139 38.3959L239.861 40.6041L249.473 33.1111L247.751 30.9028ZM247.811 28.4281C248.577 29.0869 248.548 30.2817 247.751 30.9028L249.473 33.1111C251.663 31.4032 251.743 28.1175 249.637 26.3056L247.811 28.4281ZM230 56.6L8.99997 56.6L8.99997 59.4L230 59.4L230 56.6ZM1.39996 49L1.39997 11L-1.40002 11L-1.40002 49L1.39996 49ZM8.99997 3.39998L230 3.4L230 0.599997L8.99997 0.599977L8.99997 3.39998ZM237.6 39.5L237.6 49L240.4 49L240.4 39.5L237.6 39.5ZM237.6 11L237.6 19L240.4 19L240.4 11L237.6 11ZM230 3.4C234.197 3.4 237.6 6.80263 237.6 11L240.4 11C240.4 5.25624 235.744 0.599997 230 0.599997L230 3.4ZM1.39997 11C1.39997 6.80261 4.8026 3.39998 8.99997 3.39998L8.99997 0.599977C3.25622 0.599977 -1.40002 5.25622 -1.40002 11L1.39997 11ZM8.99997 56.6C4.8026 56.6 1.39996 53.1973 1.39996 49L-1.40002 49C-1.40002 54.7437 3.25621 59.4 8.99997 59.4L8.99997 56.6ZM230 59.4C235.744 59.4 240.4 54.7438 240.4 49L237.6 49C237.6 53.1974 234.197 56.6 230 56.6L230 59.4Z" fill="white" mask="url(#path-1-inside-1_7049_5822)"/>
<g filter="url(#filter0_d_7049_5822)">
<mask id="path-3-inside-2_7049_5822" fill="white">
<path d="M248.724 27.3669L239 19L239 11C239 6.02944 234.971 2 230 2L91 1.99999C86.0294 1.99999 82 6.02942 82 11L82 49C82 53.9705 86.0294 58 91 58L230 58C234.971 58 239 53.9706 239 49L239 39.5L248.612 32.0069C250.106 30.8425 250.16 28.6022 248.724 27.3669Z"/>
</mask>
<path d="M248.724 27.3669L239 19L239 11C239 6.02944 234.971 2 230 2L91 1.99999C86.0294 1.99999 82 6.02942 82 11L82 49C82 53.9705 86.0294 58 91 58L230 58C234.971 58 239 53.9706 239 49L239 39.5L248.612 32.0069C250.106 30.8425 250.16 28.6022 248.724 27.3669Z" fill="white"/>
<path d="M239 19L237.6 19L237.6 19.6423L238.087 20.0612L239 19ZM248.724 27.3669L249.637 26.3056L249.637 26.3056L248.724 27.3669ZM248.612 32.0069L247.751 30.9028L247.751 30.9028L248.612 32.0069ZM239 39.5L238.139 38.3959L237.6 38.8162L237.6 39.5L239 39.5ZM230 58L230 59.4L230 58ZM91 58L91 56.6L91 58ZM238.087 20.0612L247.811 28.4281L249.637 26.3056L239.913 17.9388L238.087 20.0612ZM247.751 30.9028L238.139 38.3959L239.861 40.6041L249.473 33.1111L247.751 30.9028ZM247.811 28.4281C248.577 29.0869 248.548 30.2817 247.751 30.9028L249.473 33.1111C251.663 31.4032 251.743 28.1175 249.637 26.3056L247.811 28.4281ZM230 56.6L91 56.6L91 59.4L230 59.4L230 56.6ZM83.4 49L83.4 11L80.6 11L80.6 49L83.4 49ZM91 3.39999L230 3.4L230 0.599997L91 0.599985L91 3.39999ZM237.6 39.5L237.6 49L240.4 49L240.4 39.5L237.6 39.5ZM237.6 11L237.6 19L240.4 19L240.4 11L237.6 11ZM230 3.4C234.197 3.4 237.6 6.80263 237.6 11L240.4 11C240.4 5.25624 235.744 0.599997 230 0.599997L230 3.4ZM83.4 11C83.4 6.80262 86.8026 3.39999 91 3.39999L91 0.599985C85.2562 0.599984 80.6 5.25623 80.6 11L83.4 11ZM91 56.6C86.8026 56.6 83.4 53.1973 83.4 49L80.6 49C80.6 54.7437 85.2562 59.4 91 59.4L91 56.6ZM230 59.4C235.744 59.4 240.4 54.7438 240.4 49L237.6 49C237.6 53.1974 234.197 56.6 230 56.6L230 59.4Z" fill="#333333" mask="url(#path-3-inside-2_7049_5822)"/>
</g>
<g filter="url(#filter1_d_7049_5822)">
<path d="M95.3173 16.524V15.452H103.141V16.524H99.5653L99.8453 16.236V25.5H98.5973V16.236L98.8773 16.524H95.3173ZM106.466 25.692C105.804 25.692 105.212 25.524 104.69 25.188C104.172 24.8467 103.762 24.3747 103.458 23.772C103.159 23.1693 103.01 22.476 103.01 21.692C103.01 20.8547 103.159 20.1347 103.458 19.532C103.756 18.9293 104.164 18.468 104.682 18.148C105.204 17.8227 105.799 17.66 106.466 17.66C107.047 17.66 107.543 17.7773 107.954 18.012C108.364 18.2467 108.695 18.564 108.946 18.964C109.196 19.364 109.37 19.8173 109.466 20.324C109.567 20.8253 109.596 21.3453 109.554 21.884H104.018V21.116H108.73L108.362 21.356C108.378 21.0413 108.359 20.7267 108.306 20.412C108.258 20.0973 108.164 19.8093 108.026 19.548C107.887 19.2813 107.692 19.068 107.442 18.908C107.191 18.748 106.871 18.668 106.482 18.668C105.991 18.668 105.58 18.7933 105.25 19.044C104.919 19.2947 104.671 19.6253 104.506 20.036C104.34 20.4413 104.258 20.8813 104.258 21.356V21.868C104.258 22.4013 104.338 22.8787 104.498 23.3C104.663 23.7213 104.908 24.0547 105.234 24.3C105.559 24.5453 105.97 24.668 106.466 24.668C106.962 24.668 107.37 24.548 107.69 24.308C108.01 24.068 108.204 23.7133 108.274 23.244H109.57C109.49 23.7507 109.308 24.188 109.026 24.556C108.743 24.9187 108.383 25.1987 107.946 25.396C107.508 25.5933 107.015 25.692 106.466 25.692ZM112.189 25.5V14.588H113.437V25.5H112.189ZM116.833 25.5V14.588H118.081V25.5H116.833ZM136.186 25.5V21.004C136.186 20.2733 136.01 19.7187 135.658 19.34C135.311 18.956 134.842 18.764 134.25 18.764C133.557 18.764 133.026 19.0333 132.658 19.572C132.29 20.1053 132.106 20.844 132.106 21.788H131.53C131.53 21.1 131.597 20.4973 131.73 19.98C131.869 19.4627 132.069 19.0333 132.33 18.692C132.591 18.3453 132.909 18.0867 133.282 17.916C133.655 17.7453 134.079 17.66 134.554 17.66C135.157 17.66 135.671 17.796 136.098 18.068C136.53 18.3347 136.861 18.7187 137.09 19.22C137.319 19.7213 137.434 20.316 137.434 21.004V25.5H136.186ZM125.434 25.5V17.852H126.506L126.65 19.388C126.89 18.8333 127.226 18.4067 127.658 18.108C128.095 17.8093 128.618 17.66 129.226 17.66C129.829 17.66 130.343 17.796 130.77 18.068C131.202 18.3347 131.533 18.7187 131.762 19.22C131.991 19.7213 132.106 20.316 132.106 21.004V25.5H130.874V21.004C130.874 20.2733 130.698 19.7187 130.346 19.34C129.999 18.956 129.525 18.764 128.922 18.764C128.463 18.764 128.066 18.8893 127.73 19.14C127.394 19.3907 127.135 19.7507 126.954 20.22C126.773 20.684 126.682 21.2387 126.682 21.884V25.5H125.434ZM143.219 25.692C142.558 25.692 141.966 25.524 141.443 25.188C140.926 24.8467 140.515 24.3747 140.211 23.772C139.912 23.1693 139.763 22.476 139.763 21.692C139.763 20.8547 139.912 20.1347 140.211 19.532C140.51 18.9293 140.918 18.468 141.435 18.148C141.958 17.8227 142.552 17.66 143.219 17.66C143.8 17.66 144.296 17.7773 144.707 18.012C145.118 18.2467 145.448 18.564 145.699 18.964C145.95 19.364 146.123 19.8173 146.219 20.324C146.32 20.8253 146.35 21.3453 146.307 21.884H140.771V21.116H145.483L145.115 21.356C145.131 21.0413 145.112 20.7267 145.059 20.412C145.011 20.0973 144.918 19.8093 144.779 19.548C144.64 19.2813 144.446 19.068 144.195 18.908C143.944 18.748 143.624 18.668 143.235 18.668C142.744 18.668 142.334 18.7933 142.003 19.044C141.672 19.2947 141.424 19.6253 141.259 20.036C141.094 20.4413 141.011 20.8813 141.011 21.356V21.868C141.011 22.4013 141.091 22.8787 141.251 23.3C141.416 23.7213 141.662 24.0547 141.987 24.3C142.312 24.5453 142.723 24.668 143.219 24.668C143.715 24.668 144.123 24.548 144.443 24.308C144.763 24.068 144.958 23.7133 145.027 23.244H146.323C146.243 23.7507 146.062 24.188 145.779 24.556C145.496 24.9187 145.136 25.1987 144.699 25.396C144.262 25.5933 143.768 25.692 143.219 25.692ZM157.635 25.5L157.475 23.82V20.54C157.475 19.852 157.328 19.3587 157.035 19.06C156.741 18.756 156.301 18.604 155.715 18.604C155.384 18.604 155.083 18.652 154.811 18.748C154.544 18.844 154.331 18.9933 154.171 19.196C154.016 19.3933 153.939 19.6493 153.939 19.964H152.547C152.547 19.4093 152.683 18.964 152.955 18.628C153.227 18.2867 153.6 18.0413 154.075 17.892C154.555 17.7373 155.101 17.66 155.715 17.66C156.301 17.66 156.821 17.7587 157.275 17.956C157.728 18.1533 158.083 18.468 158.339 18.9C158.595 19.3267 158.723 19.884 158.723 20.572V25.5H157.635ZM155.027 25.692C154.397 25.692 153.877 25.58 153.467 25.356C153.056 25.132 152.749 24.8413 152.547 24.484C152.344 24.1267 152.243 23.7507 152.243 23.356C152.243 22.8387 152.371 22.4173 152.627 22.092C152.888 21.7667 153.243 21.5293 153.691 21.38C154.139 21.2253 154.643 21.148 155.203 21.148C155.603 21.148 156.003 21.188 156.403 21.268C156.808 21.348 157.203 21.4573 157.587 21.596V22.38C157.267 22.252 156.904 22.1507 156.499 22.076C156.099 22.0013 155.731 21.964 155.395 21.964C154.883 21.964 154.451 22.0707 154.099 22.284C153.747 22.492 153.571 22.8493 153.571 23.356C153.571 23.7293 153.704 24.0493 153.971 24.316C154.243 24.5827 154.675 24.716 155.267 24.716C155.683 24.716 156.056 24.62 156.387 24.428C156.723 24.2307 156.987 23.9853 157.179 23.692C157.376 23.3987 157.475 23.1053 157.475 22.812H157.779C157.779 23.324 157.667 23.7987 157.443 24.236C157.224 24.6733 156.909 25.0253 156.499 25.292C156.088 25.5587 155.597 25.692 155.027 25.692ZM165.375 25.692C164.863 25.692 164.399 25.5587 163.983 25.292C163.572 25.0253 163.244 24.636 162.999 24.124C162.759 23.6067 162.639 22.9773 162.639 22.236H163.119C163.119 22.732 163.22 23.156 163.423 23.508C163.631 23.8547 163.898 24.1187 164.223 24.3C164.548 24.4813 164.89 24.572 165.247 24.572C165.658 24.572 166.034 24.4547 166.375 24.22C166.716 23.9853 166.988 23.6493 167.191 23.212C167.399 22.7747 167.503 22.252 167.503 21.644C167.503 21.0467 167.402 20.5347 167.199 20.108C166.996 19.676 166.722 19.3453 166.375 19.116C166.034 18.8813 165.652 18.764 165.231 18.764C164.868 18.764 164.524 18.8547 164.199 19.036C163.879 19.212 163.618 19.4733 163.415 19.82C163.218 20.1667 163.119 20.5933 163.119 21.1H162.639C162.639 20.3747 162.756 19.756 162.991 19.244C163.231 18.732 163.562 18.34 163.983 18.068C164.404 17.796 164.895 17.66 165.455 17.66C166.058 17.66 166.61 17.8227 167.111 18.148C167.618 18.468 168.023 18.9267 168.327 19.524C168.631 20.1213 168.783 20.828 168.783 21.644C168.783 22.4653 168.628 23.18 168.319 23.788C168.01 24.3907 167.596 24.86 167.079 25.196C166.562 25.5267 165.994 25.692 165.375 25.692ZM161.871 25.5V14.588H163.119V23.708L162.751 25.5H161.871ZM174.283 25.692C173.595 25.692 172.982 25.54 172.443 25.236C171.91 24.932 171.489 24.4813 171.179 23.884C170.87 23.2867 170.715 22.5507 170.715 21.676C170.715 20.796 170.87 20.06 171.179 19.468C171.489 18.8707 171.91 18.42 172.443 18.116C172.982 17.812 173.595 17.66 174.283 17.66C174.966 17.66 175.574 17.812 176.107 18.116C176.646 18.42 177.067 18.8707 177.371 19.468C177.681 20.06 177.835 20.796 177.835 21.676C177.835 22.5507 177.681 23.2867 177.371 23.884C177.067 24.4813 176.646 24.932 176.107 25.236C175.574 25.54 174.966 25.692 174.283 25.692ZM174.251 24.604C174.747 24.604 175.169 24.4867 175.515 24.252C175.862 24.012 176.123 23.6733 176.299 23.236C176.481 22.7987 176.571 22.2787 176.571 21.676C176.571 20.764 176.382 20.0467 176.003 19.524C175.625 18.996 175.062 18.732 174.315 18.732C173.814 18.732 173.39 18.852 173.043 19.092C172.702 19.3267 172.441 19.6653 172.259 20.108C172.083 20.5453 171.995 21.068 171.995 21.676C171.995 22.5773 172.185 23.292 172.563 23.82C172.947 24.3427 173.51 24.604 174.251 24.604ZM185.625 17.836H186.873V25.5H185.625V17.836ZM180.201 17.836H181.449V22.604C181.449 23.244 181.604 23.7293 181.913 24.06C182.228 24.3907 182.676 24.556 183.257 24.556C183.737 24.556 184.153 24.428 184.505 24.172C184.863 23.916 185.137 23.564 185.329 23.116C185.527 22.6627 185.625 22.1453 185.625 21.564H186.089C186.089 22.4227 185.964 23.156 185.713 23.764C185.468 24.372 185.119 24.8387 184.665 25.164C184.217 25.484 183.689 25.644 183.081 25.644C182.505 25.644 182.001 25.5373 181.569 25.324C181.137 25.1107 180.801 24.788 180.561 24.356C180.321 23.9187 180.201 23.3667 180.201 22.7V17.836ZM192.625 25.692C192.209 25.692 191.836 25.612 191.505 25.452C191.174 25.292 190.913 25.052 190.721 24.732C190.529 24.412 190.433 24.012 190.433 23.532V15.724H191.665V23.5C191.665 24.2893 192.033 24.684 192.769 24.684C192.988 24.684 193.198 24.66 193.401 24.612C193.609 24.564 193.841 24.492 194.097 24.396L194.273 25.292C194.001 25.4093 193.729 25.5053 193.457 25.58C193.19 25.6547 192.913 25.692 192.625 25.692ZM189.201 18.716V17.852H194.081V18.716H189.201ZM202.757 25.692C202.341 25.692 201.968 25.612 201.637 25.452C201.307 25.292 201.045 25.052 200.853 24.732C200.661 24.412 200.565 24.012 200.565 23.532V15.724H201.797V23.5C201.797 24.2893 202.165 24.684 202.901 24.684C203.12 24.684 203.331 24.66 203.533 24.612C203.741 24.564 203.973 24.492 204.229 24.396L204.405 25.292C204.133 25.4093 203.861 25.5053 203.589 25.58C203.323 25.6547 203.045 25.692 202.757 25.692ZM199.333 18.716V17.852H204.213V18.716H199.333ZM212.021 25.5V21.004C212.021 20.2733 211.845 19.7187 211.493 19.34C211.146 18.956 210.672 18.764 210.069 18.764C209.61 18.764 209.213 18.8893 208.877 19.14C208.541 19.3907 208.282 19.7507 208.101 20.22C207.92 20.684 207.829 21.2387 207.829 21.884H207.349C207.349 20.9933 207.466 20.2333 207.701 19.604C207.936 18.9747 208.277 18.4947 208.725 18.164C209.178 17.828 209.728 17.66 210.373 17.66C210.976 17.66 211.49 17.796 211.917 18.068C212.349 18.3347 212.68 18.7187 212.909 19.22C213.138 19.7213 213.253 20.316 213.253 21.004V25.5H212.021ZM206.581 25.5V14.588H207.829V25.5H206.581ZM219.053 25.692C218.392 25.692 217.8 25.524 217.277 25.188C216.76 24.8467 216.349 24.3747 216.045 23.772C215.747 23.1693 215.597 22.476 215.597 21.692C215.597 20.8547 215.747 20.1347 216.045 19.532C216.344 18.9293 216.752 18.468 217.269 18.148C217.792 17.8227 218.387 17.66 219.053 17.66C219.635 17.66 220.131 17.7773 220.541 18.012C220.952 18.2467 221.283 18.564 221.533 18.964C221.784 19.364 221.957 19.8173 222.053 20.324C222.155 20.8253 222.184 21.3453 222.141 21.884H216.605V21.116H221.317L220.949 21.356C220.965 21.0413 220.947 20.7267 220.893 20.412C220.845 20.0973 220.752 19.8093 220.613 19.548C220.475 19.2813 220.28 19.068 220.029 18.908C219.779 18.748 219.459 18.668 219.069 18.668C218.579 18.668 218.168 18.7933 217.837 19.044C217.507 19.2947 217.259 19.6253 217.093 20.036C216.928 20.4413 216.845 20.8813 216.845 21.356V21.868C216.845 22.4013 216.925 22.8787 217.085 23.3C217.251 23.7213 217.496 24.0547 217.821 24.3C218.147 24.5453 218.557 24.668 219.053 24.668C219.549 24.668 219.957 24.548 220.277 24.308C220.597 24.068 220.792 23.7133 220.861 23.244H222.157C222.077 23.7507 221.896 24.188 221.613 24.556C221.331 24.9187 220.971 25.1987 220.533 25.396C220.096 25.5933 219.603 25.692 219.053 25.692ZM146.221 45.5V41.004C146.221 40.2733 146.045 39.7187 145.693 39.34C145.346 38.956 144.877 38.764 144.285 38.764C143.592 38.764 143.061 39.0333 142.693 39.572C142.325 40.1053 142.141 40.844 142.141 41.788H141.565C141.565 41.1 141.632 40.4973 141.765 39.98C141.904 39.4627 142.104 39.0333 142.365 38.692C142.626 38.3453 142.944 38.0867 143.317 37.916C143.69 37.7453 144.114 37.66 144.589 37.66C145.192 37.66 145.706 37.796 146.133 38.068C146.565 38.3347 146.896 38.7187 147.125 39.22C147.354 39.7213 147.469 40.316 147.469 41.004V45.5H146.221ZM135.469 45.5V37.852H136.541L136.685 39.388C136.925 38.8333 137.261 38.4067 137.693 38.108C138.13 37.8093 138.653 37.66 139.261 37.66C139.864 37.66 140.378 37.796 140.805 38.068C141.237 38.3347 141.568 38.7187 141.797 39.22C142.026 39.7213 142.141 40.316 142.141 41.004V45.5H140.909V41.004C140.909 40.2733 140.733 39.7187 140.381 39.34C140.034 38.956 139.56 38.764 138.957 38.764C138.498 38.764 138.101 38.8893 137.765 39.14C137.429 39.3907 137.17 39.7507 136.989 40.22C136.808 40.684 136.717 41.2387 136.717 41.884V45.5H135.469ZM155.334 45.5L155.174 43.82V40.54C155.174 39.852 155.027 39.3587 154.734 39.06C154.441 38.756 154.001 38.604 153.414 38.604C153.083 38.604 152.782 38.652 152.51 38.748C152.243 38.844 152.03 38.9933 151.87 39.196C151.715 39.3933 151.638 39.6493 151.638 39.964H150.246C150.246 39.4093 150.382 38.964 150.654 38.628C150.926 38.2867 151.299 38.0413 151.774 37.892C152.254 37.7373 152.801 37.66 153.414 37.66C154.001 37.66 154.521 37.7587 154.974 37.956C155.427 38.1533 155.782 38.468 156.038 38.9C156.294 39.3267 156.422 39.884 156.422 40.572V45.5H155.334ZM152.726 45.692C152.097 45.692 151.577 45.58 151.166 45.356C150.755 45.132 150.449 44.8413 150.246 44.484C150.043 44.1267 149.942 43.7507 149.942 43.356C149.942 42.8387 150.07 42.4173 150.326 42.092C150.587 41.7667 150.942 41.5293 151.39 41.38C151.838 41.2253 152.342 41.148 152.902 41.148C153.302 41.148 153.702 41.188 154.102 41.268C154.507 41.348 154.902 41.4573 155.286 41.596V42.38C154.966 42.252 154.603 42.1507 154.198 42.076C153.798 42.0013 153.43 41.964 153.094 41.964C152.582 41.964 152.15 42.0707 151.798 42.284C151.446 42.492 151.27 42.8493 151.27 43.356C151.27 43.7293 151.403 44.0493 151.67 44.316C151.942 44.5827 152.374 44.716 152.966 44.716C153.382 44.716 153.755 44.62 154.086 44.428C154.422 44.2307 154.686 43.9853 154.878 43.692C155.075 43.3987 155.174 43.1053 155.174 42.812H155.478C155.478 43.324 155.366 43.7987 155.142 44.236C154.923 44.6733 154.609 45.0253 154.198 45.292C153.787 45.5587 153.297 45.692 152.726 45.692ZM160.274 36.044C160.018 36.044 159.816 35.972 159.666 35.828C159.517 35.6787 159.442 35.484 159.442 35.244C159.442 35.0093 159.517 34.8227 159.666 34.684C159.816 34.5453 160.018 34.476 160.274 34.476C160.53 34.476 160.733 34.5453 160.882 34.684C161.032 34.8227 161.106 35.0093 161.106 35.244C161.106 35.484 161.032 35.6787 160.882 35.828C160.733 35.972 160.53 36.044 160.274 36.044ZM159.65 45.5V37.836H160.898V45.5H159.65ZM169.936 45.5V41.004C169.936 40.2733 169.76 39.7187 169.408 39.34C169.061 38.956 168.587 38.764 167.984 38.764C167.525 38.764 167.128 38.8893 166.792 39.14C166.456 39.3907 166.197 39.7507 166.016 40.22C165.835 40.684 165.744 41.2387 165.744 41.884H165.264C165.264 40.9933 165.381 40.2333 165.616 39.604C165.851 38.9747 166.192 38.4947 166.64 38.164C167.093 37.828 167.643 37.66 168.288 37.66C168.891 37.66 169.405 37.796 169.832 38.068C170.264 38.3347 170.595 38.7187 170.824 39.22C171.053 39.7213 171.168 40.316 171.168 41.004V45.5H169.936ZM164.496 45.5V37.852H165.568L165.744 39.612V45.5H164.496ZM180.621 45.692C180.205 45.692 179.832 45.612 179.501 45.452C179.17 45.292 178.909 45.052 178.717 44.732C178.525 44.412 178.429 44.012 178.429 43.532V35.724H179.661V43.5C179.661 44.2893 180.029 44.684 180.765 44.684C180.984 44.684 181.194 44.66 181.397 44.612C181.605 44.564 181.837 44.492 182.093 44.396L182.269 45.292C181.997 45.4093 181.725 45.5053 181.453 45.58C181.186 45.6547 180.909 45.692 180.621 45.692ZM177.197 38.716V37.852H182.077V38.716H177.197ZM187.213 45.692C186.525 45.692 185.911 45.54 185.373 45.236C184.839 44.932 184.418 44.4813 184.109 43.884C183.799 43.2867 183.645 42.5507 183.645 41.676C183.645 40.796 183.799 40.06 184.109 39.468C184.418 38.8707 184.839 38.42 185.373 38.116C185.911 37.812 186.525 37.66 187.213 37.66C187.895 37.66 188.503 37.812 189.037 38.116C189.575 38.42 189.997 38.8707 190.301 39.468C190.61 40.06 190.765 40.796 190.765 41.676C190.765 42.5507 190.61 43.2867 190.301 43.884C189.997 44.4813 189.575 44.932 189.037 45.236C188.503 45.54 187.895 45.692 187.213 45.692ZM187.181 44.604C187.677 44.604 188.098 44.4867 188.445 44.252C188.791 44.012 189.053 43.6733 189.229 43.236C189.41 42.7987 189.501 42.2787 189.501 41.676C189.501 40.764 189.311 40.0467 188.933 39.524C188.554 38.996 187.991 38.732 187.245 38.732C186.743 38.732 186.319 38.852 185.973 39.092C185.631 39.3267 185.37 39.6653 185.189 40.108C185.013 40.5453 184.925 41.068 184.925 41.676C184.925 42.5773 185.114 43.292 185.493 43.82C185.877 44.3427 186.439 44.604 187.181 44.604ZM196.827 45.692C196.267 45.692 195.779 45.564 195.363 45.308C194.952 45.052 194.635 44.6787 194.411 44.188C194.187 43.692 194.075 43.0893 194.075 42.38H194.603C194.603 42.8547 194.701 43.2547 194.899 43.58C195.096 43.9053 195.352 44.1533 195.667 44.324C195.987 44.4893 196.325 44.572 196.683 44.572C197.067 44.572 197.435 44.4627 197.787 44.244C198.139 44.02 198.427 43.692 198.651 43.26C198.875 42.828 198.987 42.2947 198.987 41.66C198.987 41.052 198.883 40.532 198.675 40.1C198.472 39.668 198.197 39.3373 197.851 39.108C197.504 38.8787 197.12 38.764 196.699 38.764C196.336 38.764 195.995 38.852 195.675 39.028C195.355 39.204 195.096 39.4627 194.899 39.804C194.701 40.14 194.603 40.556 194.603 41.052H194.075C194.075 40.3107 194.197 39.6893 194.443 39.188C194.688 38.6813 195.021 38.3 195.443 38.044C195.864 37.788 196.336 37.66 196.859 37.66C197.456 37.66 198.013 37.82 198.531 38.14C199.048 38.46 199.467 38.9187 199.787 39.516C200.107 40.1133 200.267 40.828 200.267 41.66C200.267 42.5027 200.104 43.2253 199.779 43.828C199.459 44.4307 199.037 44.892 198.515 45.212C197.992 45.532 197.429 45.692 196.827 45.692ZM193.355 49.26V37.852H194.395L194.603 39.644V49.26H193.355ZM203.578 36.044C203.322 36.044 203.119 35.972 202.97 35.828C202.821 35.6787 202.746 35.484 202.746 35.244C202.746 35.0093 202.821 34.8227 202.97 34.684C203.119 34.5453 203.322 34.476 203.578 34.476C203.834 34.476 204.037 34.5453 204.186 34.684C204.335 34.8227 204.41 35.0093 204.41 35.244C204.41 35.484 204.335 35.6787 204.186 35.828C204.037 35.972 203.834 36.044 203.578 36.044ZM202.954 45.5V37.836H204.202V45.5H202.954ZM210.488 45.692C209.874 45.692 209.301 45.5267 208.768 45.196C208.24 44.8653 207.813 44.3987 207.488 43.796C207.162 43.1933 207 42.4813 207 41.66C207 40.8173 207.162 40.0973 207.488 39.5C207.813 38.9027 208.24 38.4467 208.768 38.132C209.301 37.8173 209.874 37.66 210.488 37.66C210.92 37.66 211.306 37.7267 211.648 37.86C211.994 37.988 212.296 38.1667 212.552 38.396C212.808 38.6253 213.018 38.8867 213.184 39.18C213.354 39.468 213.48 39.772 213.56 40.092L212.28 40.204C212.146 39.7613 211.922 39.412 211.608 39.156C211.298 38.8947 210.92 38.764 210.472 38.764C210.093 38.764 209.736 38.8733 209.4 39.092C209.069 39.3053 208.8 39.628 208.592 40.06C208.384 40.4867 208.28 41.02 208.28 41.66C208.28 42.252 208.373 42.7667 208.56 43.204C208.752 43.636 209.013 43.972 209.344 44.212C209.674 44.452 210.05 44.572 210.472 44.572C211.064 44.572 211.512 44.428 211.816 44.14C212.125 43.8467 212.28 43.4413 212.28 42.924H213.56C213.56 43.4573 213.434 43.932 213.184 44.348C212.933 44.764 212.576 45.092 212.112 45.332C211.653 45.572 211.112 45.692 210.488 45.692ZM218.962 45.692C218.22 45.692 217.602 45.588 217.106 45.38C216.61 45.1667 216.234 44.876 215.978 44.508C215.722 44.1347 215.586 43.708 215.57 43.228H216.77C216.796 43.7133 216.991 44.0787 217.354 44.324C217.722 44.564 218.22 44.684 218.85 44.684C219.18 44.684 219.484 44.6307 219.762 44.524C220.039 44.4173 220.26 44.2707 220.426 44.084C220.591 43.8973 220.674 43.6867 220.674 43.452C220.674 43.1533 220.564 42.9187 220.346 42.748C220.127 42.5773 219.778 42.428 219.298 42.3L217.81 41.82C217.164 41.6173 216.668 41.34 216.322 40.988C215.98 40.6307 215.81 40.204 215.81 39.708C215.81 39.0893 216.082 38.5933 216.626 38.22C217.17 37.8467 217.884 37.66 218.77 37.66C219.708 37.66 220.436 37.852 220.954 38.236C221.471 38.62 221.74 39.1 221.762 39.676H220.53C220.482 39.34 220.311 39.0867 220.018 38.916C219.724 38.74 219.308 38.652 218.77 38.652C218.252 38.652 217.847 38.7693 217.554 39.004C217.266 39.2333 217.122 39.4893 217.122 39.772C217.122 40.3 217.575 40.6893 218.482 40.94L220.002 41.452C220.658 41.6493 221.159 41.908 221.506 42.228C221.858 42.548 222.034 42.956 222.034 43.452C222.034 43.836 221.908 44.1987 221.658 44.54C221.407 44.8813 221.052 45.1587 220.594 45.372C220.135 45.5853 219.591 45.692 218.962 45.692Z" fill="#333333"/>
</g>
<defs>
<filter id="filter0_d_7049_5822" x="76" y="0" width="179.767" height="68" filterUnits="userSpaceOnUse" color-interpolation-filters="sRGB">
<feFlood flood-opacity="0" result="BackgroundImageFix"/>
<feColorMatrix in="SourceAlpha" type="matrix" values="0 0 0 0 0 0 0 0 0 0 0 0 0 0 0 0 0 0 127 0" result="hardAlpha"/>
<feOffset dy="4"/>
<feGaussianBlur stdDeviation="3"/>
<feComposite in2="hardAlpha" operator="out"/>
<feColorMatrix type="matrix" values="0 0 0 0 0 0 0 0 0 0 0 0 0 0 0 0 0 0 0.1 0"/>
<feBlend mode="normal" in2="BackgroundImageFix" result="effect1_dropShadow_7049_5822"/>
<feBlend mode="normal" in="SourceGraphic" in2="effect1_dropShadow_7049_5822" result="shape"/>
</filter>
<filter id="filter1_d_7049_5822" x="89.3173" y="12.5879" width="138.888" height="46.6719" filterUnits="userSpaceOnUse" color-interpolation-filters="sRGB">
<feFlood flood-opacity="0" result="BackgroundImageFix"/>
<feColorMatrix in="SourceAlpha" type="matrix" values="0 0 0 0 0 0 0 0 0 0 0 0 0 0 0 0 0 0 127 0" result="hardAlpha"/>
<feOffset dy="4"/>
<feGaussianBlur stdDeviation="3"/>
<feComposite in2="hardAlpha" operator="out"/>
<feColorMatrix type="matrix" values="0 0 0 0 0 0 0 0 0 0 0 0 0 0 0 0 0 0 0.05 0"/>
<feBlend mode="normal" in2="BackgroundImageFix" result="effect1_dropShadow_7049_5822"/>
<feBlend mode="normal" in="SourceGraphic" in2="effect1_dropShadow_7049_5822" result="shape"/>
</filter>
</defs>
</svg>
