<svg width="257" height="68" viewBox="0 0 257 68" fill="none" xmlns="http://www.w3.org/2000/svg">
<path d="M7.04333 32.6331L16.7674 41V49C16.7674 53.9706 20.7968 58 25.7674 58L247.035 58C252.005 58 256.035 53.9706 256.035 49V11C256.035 6.02944 252.005 2 247.035 2L25.7674 2C20.7968 2 16.7674 6.02944 16.7674 11V20.5L7.15555 27.9931C5.66179 29.1575 5.60761 31.3978 7.04333 32.6331Z" fill="white"/>
<g filter="url(#filter0_d_7075_5679)">
<mask id="path-2-inside-1_7075_5679" fill="white">
<path d="M7.04333 32.6331L16.7674 41V49C16.7674 53.9706 20.7968 58 25.7674 58L170.035 58C175.005 58 179.035 53.9706 179.035 49V11C179.035 6.02944 175.005 2 170.035 2L25.7674 2C20.7968 2 16.7674 6.02944 16.7674 11V20.5L7.15555 27.9931C5.66179 29.1575 5.60761 31.3978 7.04333 32.6331Z"/>
</mask>
<path d="M7.04333 32.6331L16.7674 41V49C16.7674 53.9706 20.7968 58 25.7674 58L170.035 58C175.005 58 179.035 53.9706 179.035 49V11C179.035 6.02944 175.005 2 170.035 2L25.7674 2C20.7968 2 16.7674 6.02944 16.7674 11V20.5L7.15555 27.9931C5.66179 29.1575 5.60761 31.3978 7.04333 32.6331Z" fill="white"/>
<path d="M16.7674 41H18.1674V40.3577L17.6805 39.9388L16.7674 41ZM7.04333 32.6331L6.13021 33.6944L6.13021 33.6944L7.04333 32.6331ZM7.15555 27.9931L8.0163 29.0972L8.0163 29.0972L7.15555 27.9931ZM16.7674 20.5L17.6281 21.6041L18.1674 21.1838V20.5H16.7674ZM25.7674 2L25.7674 0.6H25.7674V2ZM170.035 2L170.035 3.4H170.035V2ZM17.6805 39.9388L7.95644 31.5719L6.13021 33.6944L15.8542 42.0612L17.6805 39.9388ZM8.0163 29.0972L17.6281 21.6041L15.9066 19.3959L6.2948 26.8889L8.0163 29.0972ZM7.95644 31.5719C7.19073 30.9131 7.21963 29.7183 8.0163 29.0972L6.2948 26.8889C4.10396 28.5968 4.02449 31.8825 6.13021 33.6944L7.95644 31.5719ZM25.7674 3.4L170.035 3.4L170.035 0.600003L25.7674 0.6L25.7674 3.4ZM177.635 11V49H180.435V11H177.635ZM170.035 56.6L25.7674 56.6V59.4L170.035 59.4V56.6ZM18.1674 20.5V11H15.3674V20.5H18.1674ZM18.1674 49V41H15.3674V49H18.1674ZM25.7674 56.6C21.57 56.6 18.1674 53.1974 18.1674 49H15.3674C15.3674 54.7438 20.0236 59.4 25.7674 59.4V56.6ZM177.635 49C177.635 53.1974 174.232 56.6 170.035 56.6V59.4C175.778 59.4 180.435 54.7438 180.435 49H177.635ZM170.035 3.4C174.232 3.4 177.635 6.80264 177.635 11H180.435C180.435 5.25624 175.778 0.600003 170.035 0.600003V3.4ZM25.7674 0.6C20.0236 0.6 15.3674 5.25624 15.3674 11H18.1674C18.1674 6.80264 21.57 3.4 25.7674 3.4V0.6Z" fill="#333333" mask="url(#path-2-inside-1_7075_5679)"/>
</g>
<g filter="url(#filter1_d_7075_5679)">
<path d="M32.616 14.952H33.864V19.384H38.84V14.952H40.072V25H38.84V20.456H33.864V25H32.616V14.952ZM44.1831 15.544C43.9271 15.544 43.7245 15.472 43.5751 15.328C43.4258 15.1787 43.3511 14.984 43.3511 14.744C43.3511 14.5093 43.4258 14.3227 43.5751 14.184C43.7245 14.0453 43.9271 13.976 44.1831 13.976C44.4391 13.976 44.6418 14.0453 44.7911 14.184C44.9405 14.3227 45.0151 14.5093 45.0151 14.744C45.0151 14.984 44.9405 15.1787 44.7911 15.328C44.6418 15.472 44.4391 15.544 44.1831 15.544ZM43.5591 25V17.336H44.8071V25H43.5591ZM48.5327 22.184L48.3727 14.984H49.7007L49.5407 22.184H48.5327ZM49.0367 25.144C48.7647 25.144 48.5407 25.0587 48.3647 24.888C48.1887 24.7173 48.1007 24.504 48.1007 24.248C48.1007 23.9973 48.1887 23.784 48.3647 23.608C48.5407 23.4267 48.7647 23.336 49.0367 23.336C49.3034 23.336 49.5274 23.4267 49.7087 23.608C49.8954 23.784 49.9887 23.9973 49.9887 24.248C49.9887 24.504 49.8954 24.7173 49.7087 24.888C49.5274 25.0587 49.3034 25.144 49.0367 25.144ZM55.4871 14.952H56.9911L59.8711 19.832H59.5511L62.4791 14.952H63.9671L60.3351 20.872V25H59.0711V20.872L55.4871 14.952ZM67.6215 25.192C66.9335 25.192 66.3202 25.04 65.7815 24.736C65.2482 24.432 64.8268 23.9813 64.5175 23.384C64.2082 22.7867 64.0535 22.0507 64.0535 21.176C64.0535 20.296 64.2082 19.56 64.5175 18.968C64.8268 18.3707 65.2482 17.92 65.7815 17.616C66.3202 17.312 66.9335 17.16 67.6215 17.16C68.3042 17.16 68.9122 17.312 69.4455 17.616C69.9842 17.92 70.4055 18.3707 70.7095 18.968C71.0188 19.56 71.1735 20.296 71.1735 21.176C71.1735 22.0507 71.0188 22.7867 70.7095 23.384C70.4055 23.9813 69.9842 24.432 69.4455 24.736C68.9122 25.04 68.3042 25.192 67.6215 25.192ZM67.5895 24.104C68.0855 24.104 68.5068 23.9867 68.8535 23.752C69.2002 23.512 69.4615 23.1733 69.6375 22.736C69.8188 22.2987 69.9095 21.7787 69.9095 21.176C69.9095 20.264 69.7202 19.5467 69.3415 19.024C68.9628 18.496 68.4002 18.232 67.6535 18.232C67.1522 18.232 66.7282 18.352 66.3815 18.592C66.0402 18.8267 65.7788 19.1653 65.5975 19.608C65.4215 20.0453 65.3335 20.568 65.3335 21.176C65.3335 22.0773 65.5228 22.792 65.9015 23.32C66.2855 23.8427 66.8482 24.104 67.5895 24.104ZM78.9635 17.336H80.2115V25H78.9635V17.336ZM73.5395 17.336H74.7875V22.104C74.7875 22.744 74.9422 23.2293 75.2515 23.56C75.5662 23.8907 76.0142 24.056 76.5955 24.056C77.0755 24.056 77.4915 23.928 77.8435 23.672C78.2008 23.416 78.4755 23.064 78.6675 22.616C78.8648 22.1627 78.9635 21.6453 78.9635 21.064H79.4275C79.4275 21.9227 79.3022 22.656 79.0515 23.264C78.8062 23.872 78.4568 24.3387 78.0035 24.664C77.5555 24.984 77.0275 25.144 76.4195 25.144C75.8435 25.144 75.3395 25.0373 74.9075 24.824C74.4755 24.6107 74.1395 24.288 73.8995 23.856C73.6595 23.4187 73.5395 22.8667 73.5395 22.2V17.336ZM92.3039 25L92.1439 23.32V20.04C92.1439 19.352 91.9972 18.8587 91.7039 18.56C91.4105 18.256 90.9705 18.104 90.3839 18.104C90.0532 18.104 89.7519 18.152 89.4799 18.248C89.2132 18.344 88.9999 18.4933 88.8399 18.696C88.6852 18.8933 88.6079 19.1493 88.6079 19.464H87.2159C87.2159 18.9093 87.3519 18.464 87.6239 18.128C87.8959 17.7867 88.2692 17.5413 88.7439 17.392C89.2239 17.2373 89.7705 17.16 90.3839 17.16C90.9705 17.16 91.4905 17.2587 91.9439 17.456C92.3972 17.6533 92.7519 17.968 93.0079 18.4C93.2639 18.8267 93.3919 19.384 93.3919 20.072V25H92.3039ZM89.6959 25.192C89.0665 25.192 88.5465 25.08 88.1359 24.856C87.7252 24.632 87.4185 24.3413 87.2159 23.984C87.0132 23.6267 86.9119 23.2507 86.9119 22.856C86.9119 22.3387 87.0399 21.9173 87.2959 21.592C87.5572 21.2667 87.9119 21.0293 88.3599 20.88C88.8079 20.7253 89.3119 20.648 89.8719 20.648C90.2719 20.648 90.6719 20.688 91.0719 20.768C91.4772 20.848 91.8719 20.9573 92.2559 21.096V21.88C91.9359 21.752 91.5732 21.6507 91.1679 21.576C90.7679 21.5013 90.3999 21.464 90.0639 21.464C89.5519 21.464 89.1199 21.5707 88.7679 21.784C88.4159 21.992 88.2399 22.3493 88.2399 22.856C88.2399 23.2293 88.3732 23.5493 88.6399 23.816C88.9119 24.0827 89.3439 24.216 89.9359 24.216C90.3519 24.216 90.7252 24.12 91.0559 23.928C91.3919 23.7307 91.6559 23.4853 91.8479 23.192C92.0452 22.8987 92.1439 22.6053 92.1439 22.312H92.4479C92.4479 22.824 92.3359 23.2987 92.1119 23.736C91.8932 24.1733 91.5785 24.5253 91.1679 24.792C90.7572 25.0587 90.2665 25.192 89.6959 25.192ZM96.5404 25V17.336H97.7884V25H96.5404ZM97.4044 21.544C97.4044 20.5733 97.4977 19.768 97.6844 19.128C97.871 18.4827 98.143 18.0027 98.5004 17.688C98.863 17.368 99.303 17.208 99.8204 17.208C99.991 17.208 100.146 17.2213 100.284 17.248C100.428 17.2693 100.572 17.304 100.716 17.352L100.636 18.584C100.487 18.536 100.324 18.496 100.148 18.464C99.9724 18.4267 99.815 18.408 99.6764 18.408C99.223 18.408 98.8577 18.5387 98.5804 18.8C98.303 19.056 98.1004 19.4187 97.9724 19.888C97.8497 20.3573 97.7884 20.9093 97.7884 21.544H97.4044ZM105.138 25.192C104.476 25.192 103.884 25.024 103.362 24.688C102.844 24.3467 102.434 23.8747 102.13 23.272C101.831 22.6693 101.682 21.976 101.682 21.192C101.682 20.3547 101.831 19.6347 102.13 19.032C102.428 18.4293 102.836 17.968 103.354 17.648C103.876 17.3227 104.471 17.16 105.138 17.16C105.719 17.16 106.215 17.2773 106.626 17.512C107.036 17.7467 107.367 18.064 107.618 18.464C107.868 18.864 108.042 19.3173 108.138 19.824C108.239 20.3253 108.268 20.8453 108.226 21.384H102.69V20.616H107.402L107.034 20.856C107.05 20.5413 107.031 20.2267 106.978 19.912C106.93 19.5973 106.836 19.3093 106.698 19.048C106.559 18.7813 106.364 18.568 106.114 18.408C105.863 18.248 105.543 18.168 105.154 18.168C104.663 18.168 104.252 18.2933 103.922 18.544C103.591 18.7947 103.343 19.1253 103.178 19.536C103.012 19.9413 102.93 20.3813 102.93 20.856V21.368C102.93 21.9013 103.01 22.3787 103.17 22.8C103.335 23.2213 103.58 23.5547 103.906 23.8C104.231 24.0453 104.642 24.168 105.138 24.168C105.634 24.168 106.042 24.048 106.362 23.808C106.682 23.568 106.876 23.2133 106.946 22.744H108.242C108.162 23.2507 107.98 23.688 107.698 24.056C107.415 24.4187 107.055 24.6987 106.618 24.896C106.18 25.0933 105.687 25.192 105.138 25.192ZM115.521 15.544C115.265 15.544 115.063 15.472 114.913 15.328C114.764 15.1787 114.689 14.984 114.689 14.744C114.689 14.5093 114.764 14.3227 114.913 14.184C115.063 14.0453 115.265 13.976 115.521 13.976C115.777 13.976 115.98 14.0453 116.129 14.184C116.279 14.3227 116.353 14.5093 116.353 14.744C116.353 14.984 116.279 15.1787 116.129 15.328C115.98 15.472 115.777 15.544 115.521 15.544ZM114.897 25V17.336H116.145V25H114.897ZM125.183 25V20.504C125.183 19.7733 125.007 19.2187 124.655 18.84C124.308 18.456 123.834 18.264 123.231 18.264C122.772 18.264 122.375 18.3893 122.039 18.64C121.703 18.8907 121.444 19.2507 121.263 19.72C121.082 20.184 120.991 20.7387 120.991 21.384H120.511C120.511 20.4933 120.628 19.7333 120.863 19.104C121.098 18.4747 121.439 17.9947 121.887 17.664C122.34 17.328 122.89 17.16 123.535 17.16C124.138 17.16 124.652 17.296 125.079 17.568C125.511 17.8347 125.842 18.2187 126.071 18.72C126.3 19.2213 126.415 19.816 126.415 20.504V25H125.183ZM119.743 25V17.352H120.815L120.991 19.112V25H119.743ZM135.868 25.192C135.452 25.192 135.079 25.112 134.748 24.952C134.417 24.792 134.156 24.552 133.964 24.232C133.772 23.912 133.676 23.512 133.676 23.032V15.224H134.908V23C134.908 23.7893 135.276 24.184 136.012 24.184C136.231 24.184 136.441 24.16 136.644 24.112C136.852 24.064 137.084 23.992 137.34 23.896L137.516 24.792C137.244 24.9093 136.972 25.0053 136.7 25.08C136.433 25.1547 136.156 25.192 135.868 25.192ZM132.444 18.216V17.352H137.324V18.216H132.444ZM145.132 25V20.504C145.132 19.7733 144.956 19.2187 144.604 18.84C144.257 18.456 143.782 18.264 143.18 18.264C142.721 18.264 142.324 18.3893 141.988 18.64C141.652 18.8907 141.393 19.2507 141.212 19.72C141.03 20.184 140.94 20.7387 140.94 21.384H140.46C140.46 20.4933 140.577 19.7333 140.812 19.104C141.046 18.4747 141.388 17.9947 141.836 17.664C142.289 17.328 142.838 17.16 143.484 17.16C144.086 17.16 144.601 17.296 145.028 17.568C145.46 17.8347 145.79 18.2187 146.02 18.72C146.249 19.2213 146.364 19.816 146.364 20.504V25H145.132ZM139.692 25V14.088H140.94V25H139.692ZM152.164 25.192C151.503 25.192 150.911 25.024 150.388 24.688C149.871 24.3467 149.46 23.8747 149.156 23.272C148.857 22.6693 148.708 21.976 148.708 21.192C148.708 20.3547 148.857 19.6347 149.156 19.032C149.455 18.4293 149.863 17.968 150.38 17.648C150.903 17.3227 151.497 17.16 152.164 17.16C152.745 17.16 153.241 17.2773 153.652 17.512C154.063 17.7467 154.393 18.064 154.644 18.464C154.895 18.864 155.068 19.3173 155.164 19.824C155.265 20.3253 155.295 20.8453 155.252 21.384H149.716V20.616H154.428L154.06 20.856C154.076 20.5413 154.057 20.2267 154.004 19.912C153.956 19.5973 153.863 19.3093 153.724 19.048C153.585 18.7813 153.391 18.568 153.14 18.408C152.889 18.248 152.569 18.168 152.18 18.168C151.689 18.168 151.279 18.2933 150.948 18.544C150.617 18.7947 150.369 19.1253 150.204 19.536C150.039 19.9413 149.956 20.3813 149.956 20.856V21.368C149.956 21.9013 150.036 22.3787 150.196 22.8C150.361 23.2213 150.607 23.5547 150.932 23.8C151.257 24.0453 151.668 24.168 152.164 24.168C152.66 24.168 153.068 24.048 153.388 23.808C153.708 23.568 153.903 23.2133 153.972 22.744H155.268C155.188 23.2507 155.007 23.688 154.724 24.056C154.441 24.4187 154.081 24.6987 153.644 24.896C153.207 25.0933 152.713 25.192 152.164 25.192ZM36.28 45.224C35.432 45.224 34.6667 45 33.984 44.552C33.3013 44.104 32.7573 43.48 32.352 42.68C31.952 41.8747 31.752 40.936 31.752 39.864C31.752 39.016 31.8747 38.256 32.12 37.584C32.3707 36.912 32.7173 36.3387 33.16 35.864C33.6027 35.3893 34.1227 35.0293 34.72 34.784C35.3173 34.5333 35.9653 34.408 36.664 34.408C37.6347 34.408 38.448 34.6187 39.104 35.04C39.7653 35.4613 40.28 36.1253 40.648 37.032L38.712 37.48C38.44 37.0373 38.1253 36.7013 37.768 36.472C37.416 36.2373 37.016 36.12 36.568 36.12C36.056 36.12 35.5893 36.272 35.168 36.576C34.7467 36.8747 34.4107 37.304 34.16 37.864C33.9093 38.424 33.784 39.0907 33.784 39.864C33.784 40.5893 33.8933 41.224 34.112 41.768C34.336 42.312 34.648 42.736 35.048 43.04C35.448 43.344 35.912 43.496 36.44 43.496C36.888 43.496 37.288 43.3973 37.64 43.2C37.9973 42.9973 38.2773 42.7093 38.48 42.336C38.688 41.9627 38.792 41.512 38.792 40.984H39.208C39.208 41.848 39.104 42.5973 38.896 43.232C38.6933 43.8667 38.376 44.3573 37.944 44.704C37.512 45.0507 36.9573 45.224 36.28 45.224ZM39.064 45L38.792 42.712V40.92L36.456 40.872V39.672H40.6V45H39.064ZM42.3401 45L45.8761 34.616H48.2441L51.6361 45H49.6521L48.9321 42.76H45.0761L44.3401 45H42.3401ZM45.5561 41.336H48.4841L47.0281 36.872L45.5561 41.336ZM53.6517 45V34.616H57.4917C58.7344 34.616 59.6864 34.9067 60.3477 35.488C61.0144 36.0693 61.3477 36.84 61.3477 37.8C61.3477 38.744 61.0144 39.5067 60.3477 40.088C59.6864 40.664 58.7344 40.952 57.4917 40.952H55.5397V45H53.6517ZM59.2678 45L56.5157 40.136H58.5318L61.7318 45H59.2678ZM55.5397 39.688H57.2997C57.9931 39.688 58.5184 39.5307 58.8758 39.216C59.2331 38.896 59.4117 38.4827 59.4117 37.976C59.4117 37.4587 59.2491 37.0427 58.9237 36.728C58.5984 36.408 58.1211 36.248 57.4917 36.248H55.5397V39.688ZM64.1086 34.616H67.4686C68.5246 34.616 69.45 34.8293 70.2446 35.256C71.0393 35.6773 71.658 36.2773 72.1006 37.056C72.5433 37.8347 72.7646 38.7547 72.7646 39.816C72.7646 40.8667 72.5433 41.7813 72.1006 42.56C71.658 43.3333 71.0393 43.9333 70.2446 44.36C69.45 44.7867 68.5246 45 67.4686 45H64.1086V34.616ZM65.9966 36.328V43.304H67.4686C68.1406 43.304 68.7193 43.152 69.2046 42.848C69.6953 42.544 70.0713 42.1307 70.3326 41.608C70.5993 41.08 70.7326 40.4827 70.7326 39.816C70.7326 39.1387 70.5993 38.5387 70.3326 38.016C70.0713 37.4933 69.6953 37.0827 69.2046 36.784C68.7193 36.48 68.1406 36.328 67.4686 36.328H65.9966ZM75.237 45V34.616H81.909V36.248H77.125V38.984H81.621V40.616H77.125V43.352H81.909V45H75.237ZM84.7716 34.616H86.8356L91.5556 42.024H91.4116V34.616H93.2996V45H91.3796L86.3556 37.144H86.6596V45H84.7716V34.616ZM96.4324 45V34.616H98.3204V45H96.4324ZM101.435 34.616H103.499L108.219 42.024H108.075V34.616H109.963V45H108.043L103.019 37.144H103.323V45H101.435V34.616ZM116.888 45.224C116.04 45.224 115.275 45 114.592 44.552C113.909 44.104 113.365 43.48 112.96 42.68C112.56 41.8747 112.36 40.936 112.36 39.864C112.36 39.016 112.483 38.256 112.728 37.584C112.979 36.912 113.325 36.3387 113.768 35.864C114.211 35.3893 114.731 35.0293 115.328 34.784C115.925 34.5333 116.573 34.408 117.272 34.408C118.243 34.408 119.056 34.6187 119.712 35.04C120.373 35.4613 120.888 36.1253 121.256 37.032L119.32 37.48C119.048 37.0373 118.733 36.7013 118.376 36.472C118.024 36.2373 117.624 36.12 117.176 36.12C116.664 36.12 116.197 36.272 115.776 36.576C115.355 36.8747 115.019 37.304 114.768 37.864C114.517 38.424 114.392 39.0907 114.392 39.864C114.392 40.5893 114.501 41.224 114.72 41.768C114.944 42.312 115.256 42.736 115.656 43.04C116.056 43.344 116.52 43.496 117.048 43.496C117.496 43.496 117.896 43.3973 118.248 43.2C118.605 42.9973 118.885 42.7093 119.088 42.336C119.296 41.9627 119.4 41.512 119.4 40.984H119.816C119.816 41.848 119.712 42.5973 119.504 43.232C119.301 43.8667 118.984 44.3573 118.552 44.704C118.12 45.0507 117.565 45.224 116.888 45.224ZM119.672 45L119.4 42.712V40.92L117.064 40.872V39.672H121.208V45H119.672ZM131.891 45.192C131.331 45.192 130.843 45.064 130.427 44.808C130.016 44.552 129.699 44.1787 129.475 43.688C129.251 43.192 129.139 42.5893 129.139 41.88H129.667C129.667 42.3547 129.766 42.7547 129.963 43.08C130.16 43.4053 130.416 43.6533 130.731 43.824C131.051 43.9893 131.39 44.072 131.747 44.072C132.131 44.072 132.499 43.9627 132.851 43.744C133.203 43.52 133.491 43.192 133.715 42.76C133.939 42.328 134.051 41.7947 134.051 41.16C134.051 40.552 133.947 40.032 133.739 39.6C133.536 39.168 133.262 38.8373 132.915 38.608C132.568 38.3787 132.184 38.264 131.763 38.264C131.4 38.264 131.059 38.352 130.739 38.528C130.419 38.704 130.16 38.9627 129.963 39.304C129.766 39.64 129.667 40.056 129.667 40.552H129.139C129.139 39.8107 129.262 39.1893 129.507 38.688C129.752 38.1813 130.086 37.8 130.507 37.544C130.928 37.288 131.4 37.16 131.923 37.16C132.52 37.16 133.078 37.32 133.595 37.64C134.112 37.96 134.531 38.4187 134.851 39.016C135.171 39.6133 135.331 40.328 135.331 41.16C135.331 42.0027 135.168 42.7253 134.843 43.328C134.523 43.9307 134.102 44.392 133.579 44.712C133.056 45.032 132.494 45.192 131.891 45.192ZM128.419 48.76V37.352H129.459L129.667 39.144V48.76H128.419ZM142.675 45L142.515 43.32V40.04C142.515 39.352 142.368 38.8587 142.075 38.56C141.781 38.256 141.341 38.104 140.755 38.104C140.424 38.104 140.123 38.152 139.851 38.248C139.584 38.344 139.371 38.4933 139.211 38.696C139.056 38.8933 138.979 39.1493 138.979 39.464H137.587C137.587 38.9093 137.723 38.464 137.995 38.128C138.267 37.7867 138.64 37.5413 139.115 37.392C139.595 37.2373 140.141 37.16 140.755 37.16C141.341 37.16 141.861 37.2587 142.315 37.456C142.768 37.6533 143.123 37.968 143.379 38.4C143.635 38.8267 143.763 39.384 143.763 40.072V45H142.675ZM140.067 45.192C139.437 45.192 138.917 45.08 138.507 44.856C138.096 44.632 137.789 44.3413 137.587 43.984C137.384 43.6267 137.283 43.2507 137.283 42.856C137.283 42.3387 137.411 41.9173 137.667 41.592C137.928 41.2667 138.283 41.0293 138.731 40.88C139.179 40.7253 139.683 40.648 140.243 40.648C140.643 40.648 141.043 40.688 141.443 40.768C141.848 40.848 142.243 40.9573 142.627 41.096V41.88C142.307 41.752 141.944 41.6507 141.539 41.576C141.139 41.5013 140.771 41.464 140.435 41.464C139.923 41.464 139.491 41.5707 139.139 41.784C138.787 41.992 138.611 42.3493 138.611 42.856C138.611 43.2293 138.744 43.5493 139.011 43.816C139.283 44.0827 139.715 44.216 140.307 44.216C140.723 44.216 141.096 44.12 141.427 43.928C141.763 43.7307 142.027 43.4853 142.219 43.192C142.416 42.8987 142.515 42.6053 142.515 42.312H142.819C142.819 42.824 142.707 43.2987 142.483 43.736C142.264 44.1733 141.949 44.5253 141.539 44.792C141.128 45.0587 140.637 45.192 140.067 45.192ZM149.615 48.936C148.831 48.936 148.151 48.824 147.575 48.6C146.999 48.3813 146.551 48.0853 146.231 47.712C145.916 47.344 145.759 46.936 145.759 46.488C145.759 45.896 145.975 45.4427 146.407 45.128C146.844 44.8187 147.407 44.664 148.095 44.664L148.783 45.096C148.207 45.096 147.762 45.216 147.447 45.456C147.132 45.696 146.975 46.024 146.975 46.44C146.975 46.856 147.199 47.208 147.647 47.496C148.095 47.784 148.751 47.928 149.615 47.928C150.255 47.928 150.815 47.8347 151.295 47.648C151.78 47.4667 152.156 47.2267 152.423 46.928C152.695 46.6347 152.831 46.3173 152.831 45.976C152.831 45.736 152.743 45.528 152.567 45.352C152.391 45.1813 152.122 45.096 151.759 45.096H148.783C148.266 45.096 147.818 45.0187 147.439 44.864C147.066 44.704 146.778 44.496 146.575 44.24C146.372 43.984 146.271 43.704 146.271 43.4C146.271 43.08 146.362 42.808 146.543 42.584C146.724 42.36 146.959 42.1893 147.247 42.072C147.54 41.9547 147.855 41.896 148.191 41.896L148.431 42.36C148.271 42.36 148.108 42.3973 147.943 42.472C147.783 42.5413 147.647 42.648 147.535 42.792C147.428 42.9307 147.375 43.1067 147.375 43.32C147.375 43.5653 147.476 43.7707 147.679 43.936C147.882 44.1013 148.25 44.184 148.783 44.184H151.759C152.479 44.184 153.044 44.336 153.455 44.64C153.871 44.944 154.079 45.368 154.079 45.912C154.079 46.4133 153.9 46.8933 153.543 47.352C153.186 47.816 152.674 48.1947 152.007 48.488C151.34 48.7867 150.543 48.936 149.615 48.936ZM149.839 42.76C149.252 42.76 148.722 42.6427 148.247 42.408C147.778 42.1733 147.404 41.8453 147.127 41.424C146.855 41.0027 146.719 40.5147 146.719 39.96C146.719 39.4 146.855 38.9093 147.127 38.488C147.404 38.0667 147.778 37.7413 148.247 37.512C148.722 37.2773 149.252 37.16 149.839 37.16C150.41 37.16 150.927 37.2773 151.391 37.512C151.86 37.7413 152.234 38.0667 152.511 38.488C152.788 38.9093 152.927 39.4 152.927 39.96C152.927 40.5147 152.788 41.0027 152.511 41.424C152.234 41.8453 151.86 42.1733 151.391 42.408C150.927 42.6427 150.41 42.76 149.839 42.76ZM149.839 41.864C150.426 41.864 150.882 41.6827 151.207 41.32C151.532 40.9573 151.695 40.504 151.695 39.96C151.695 39.4 151.532 38.9467 151.207 38.6C150.882 38.248 150.426 38.072 149.839 38.072C149.258 38.072 148.799 38.248 148.463 38.6C148.132 38.9467 147.967 39.4 147.967 39.96C147.967 40.504 148.132 40.9573 148.463 41.32C148.799 41.6827 149.258 41.864 149.839 41.864ZM152.351 38.376L151.759 38.136C151.759 37.688 151.847 37.296 152.023 36.96C152.199 36.6187 152.45 36.3547 152.775 36.168C153.1 35.976 153.487 35.88 153.935 35.88L153.839 37.112C153.359 37.112 152.991 37.216 152.735 37.424C152.479 37.6267 152.351 37.944 152.351 38.376ZM158.758 45.192C158.097 45.192 157.505 45.024 156.982 44.688C156.465 44.3467 156.054 43.8747 155.75 43.272C155.452 42.6693 155.302 41.976 155.302 41.192C155.302 40.3547 155.452 39.6347 155.75 39.032C156.049 38.4293 156.457 37.968 156.974 37.648C157.497 37.3227 158.092 37.16 158.758 37.16C159.34 37.16 159.836 37.2773 160.246 37.512C160.657 37.7467 160.988 38.064 161.238 38.464C161.489 38.864 161.662 39.3173 161.758 39.824C161.86 40.3253 161.889 40.8453 161.846 41.384H156.31V40.616H161.022L160.654 40.856C160.67 40.5413 160.652 40.2267 160.598 39.912C160.55 39.5973 160.457 39.3093 160.318 39.048C160.18 38.7813 159.985 38.568 159.734 38.408C159.484 38.248 159.164 38.168 158.774 38.168C158.284 38.168 157.873 38.2933 157.542 38.544C157.212 38.7947 156.964 39.1253 156.798 39.536C156.633 39.9413 156.55 40.3813 156.55 40.856V41.368C156.55 41.9013 156.63 42.3787 156.79 42.8C156.956 43.2213 157.201 43.5547 157.526 43.8C157.852 44.0453 158.262 44.168 158.758 44.168C159.254 44.168 159.662 44.048 159.982 43.808C160.302 43.568 160.497 43.2133 160.566 42.744H161.862C161.782 43.2507 161.601 43.688 161.318 44.056C161.036 44.4187 160.676 44.6987 160.238 44.896C159.801 45.0933 159.308 45.192 158.758 45.192ZM163.345 44.256C163.345 44.0053 163.433 43.7893 163.609 43.608C163.785 43.4267 164.006 43.336 164.273 43.336C164.54 43.336 164.766 43.4267 164.953 43.608C165.14 43.7893 165.233 44.0053 165.233 44.256C165.233 44.5067 165.14 44.7173 164.953 44.888C164.766 45.0587 164.54 45.144 164.273 45.144C164.006 45.144 163.785 45.0587 163.609 44.888C163.433 44.712 163.345 44.5013 163.345 44.256Z" fill="#333333"/>
</g>
<defs>
<filter id="filter0_d_7075_5679" x="0" y="0" width="185.035" height="68" filterUnits="userSpaceOnUse" color-interpolation-filters="sRGB">
<feFlood flood-opacity="0" result="BackgroundImageFix"/>
<feColorMatrix in="SourceAlpha" type="matrix" values="0 0 0 0 0 0 0 0 0 0 0 0 0 0 0 0 0 0 127 0" result="hardAlpha"/>
<feOffset dy="4"/>
<feGaussianBlur stdDeviation="3"/>
<feComposite in2="hardAlpha" operator="out"/>
<feColorMatrix type="matrix" values="0 0 0 0 0 0 0 0 0 0 0 0 0 0 0 0 0 0 0.1 0"/>
<feBlend mode="normal" in2="BackgroundImageFix" result="effect1_dropShadow_7075_5679"/>
<feBlend mode="normal" in="SourceGraphic" in2="effect1_dropShadow_7075_5679" result="shape"/>
</filter>
<filter id="filter1_d_7075_5679" x="25.752" y="11.9756" width="145.481" height="46.96" filterUnits="userSpaceOnUse" color-interpolation-filters="sRGB">
<feFlood flood-opacity="0" result="BackgroundImageFix"/>
<feColorMatrix in="SourceAlpha" type="matrix" values="0 0 0 0 0 0 0 0 0 0 0 0 0 0 0 0 0 0 127 0" result="hardAlpha"/>
<feOffset dy="4"/>
<feGaussianBlur stdDeviation="3"/>
<feComposite in2="hardAlpha" operator="out"/>
<feColorMatrix type="matrix" values="0 0 0 0 0 0 0 0 0 0 0 0 0 0 0 0 0 0 0.05 0"/>
<feBlend mode="normal" in2="BackgroundImageFix" result="effect1_dropShadow_7075_5679"/>
<feBlend mode="normal" in="SourceGraphic" in2="effect1_dropShadow_7075_5679" result="shape"/>
</filter>
</defs>
</svg>
