<svg width="262" height="76" viewBox="0 0 262 76" fill="none" xmlns="http://www.w3.org/2000/svg">
<g filter="url(#filter0_d_7029_5616)">
<mask id="path-1-inside-1_7029_5616" fill="white">
<path d="M7.04333 36.6331L16.7674 45V57C16.7674 61.9706 20.7968 66 25.7674 66H246.767C251.738 66 255.767 61.9706 255.767 57V11C255.767 6.02944 251.738 2 246.767 2H25.7674C20.7968 2 16.7674 6.02944 16.7674 11V24.5L7.15555 31.9931C5.66179 33.1575 5.60761 35.3978 7.04333 36.6331Z"/>
</mask>
<path d="M7.04333 36.6331L16.7674 45V57C16.7674 61.9706 20.7968 66 25.7674 66H246.767C251.738 66 255.767 61.9706 255.767 57V11C255.767 6.02944 251.738 2 246.767 2H25.7674C20.7968 2 16.7674 6.02944 16.7674 11V24.5L7.15555 31.9931C5.66179 33.1575 5.60761 35.3978 7.04333 36.6331Z" fill="#F1F3FF"/>
<path d="M16.7674 45H18.1674V44.3577L17.6805 43.9388L16.7674 45ZM7.04333 36.6331L6.13021 37.6944L6.13021 37.6944L7.04333 36.6331ZM7.15555 31.9931L8.0163 33.0972L8.0163 33.0972L7.15555 31.9931ZM16.7674 24.5L17.6281 25.6041L18.1674 25.1838V24.5H16.7674ZM17.6805 43.9388L7.95644 35.5719L6.13021 37.6944L15.8542 46.0612L17.6805 43.9388ZM8.0163 33.0972L17.6281 25.6041L15.9066 23.3959L6.2948 30.8889L8.0163 33.0972ZM7.95644 35.5719C7.19073 34.9131 7.21963 33.7183 8.0163 33.0972L6.2948 30.8889C4.10396 32.5968 4.02449 35.8825 6.13021 37.6944L7.95644 35.5719ZM25.7674 3.4H246.767V0.6H25.7674V3.4ZM254.367 11V57H257.167V11H254.367ZM246.767 64.6H25.7674V67.4H246.767V64.6ZM18.1674 24.5V11H15.3674V24.5H18.1674ZM18.1674 57V45H15.3674V57H18.1674ZM25.7674 64.6C21.57 64.6 18.1674 61.1974 18.1674 57H15.3674C15.3674 62.7438 20.0236 67.4 25.7674 67.4V64.6ZM254.367 57C254.367 61.1974 250.965 64.6 246.767 64.6V67.4C252.511 67.4 257.167 62.7438 257.167 57H254.367ZM246.767 3.4C250.965 3.4 254.367 6.80264 254.367 11H257.167C257.167 5.25624 252.511 0.6 246.767 0.6V3.4ZM25.7674 0.6C20.0236 0.6 15.3674 5.25624 15.3674 11H18.1674C18.1674 6.80264 21.57 3.4 25.7674 3.4V0.6Z" fill="#4A5DC8" mask="url(#path-1-inside-1_7029_5616)"/>
<path d="M35.8834 18.952H38.8274C39.8407 18.952 40.7207 19.16 41.4674 19.576C42.214 19.9867 42.7927 20.568 43.2034 21.32C43.614 22.072 43.8194 22.9573 43.8194 23.976C43.8194 24.984 43.614 25.864 43.2034 26.616C42.7927 27.368 42.214 27.9547 41.4674 28.376C40.7207 28.792 39.8407 29 38.8274 29H35.8834V18.952ZM37.1314 20.056V27.912H38.8274C39.5847 27.912 40.2354 27.7413 40.7794 27.4C41.3287 27.0587 41.75 26.592 42.0434 26C42.342 25.4027 42.4914 24.728 42.4914 23.976C42.4914 23.2187 42.342 22.5467 42.0434 21.96C41.75 21.368 41.3287 20.904 40.7794 20.568C40.2354 20.2267 39.5847 20.056 38.8274 20.056H37.1314ZM49.3739 29.192C48.6859 29.192 48.0725 29.04 47.5339 28.736C47.0005 28.432 46.5792 27.9813 46.2699 27.384C45.9605 26.7867 45.8059 26.0507 45.8059 25.176C45.8059 24.296 45.9605 23.56 46.2699 22.968C46.5792 22.3707 47.0005 21.92 47.5339 21.616C48.0725 21.312 48.6859 21.16 49.3739 21.16C50.0565 21.16 50.6645 21.312 51.1979 21.616C51.7365 21.92 52.1579 22.3707 52.4619 22.968C52.7712 23.56 52.9259 24.296 52.9259 25.176C52.9259 26.0507 52.7712 26.7867 52.4619 27.384C52.1579 27.9813 51.7365 28.432 51.1979 28.736C50.6645 29.04 50.0565 29.192 49.3739 29.192ZM49.3419 28.104C49.8379 28.104 50.2592 27.9867 50.6059 27.752C50.9525 27.512 51.2139 27.1733 51.3899 26.736C51.5712 26.2987 51.6619 25.7787 51.6619 25.176C51.6619 24.264 51.4725 23.5467 51.0939 23.024C50.7152 22.496 50.1525 22.232 49.4059 22.232C48.9045 22.232 48.4805 22.352 48.1339 22.592C47.7925 22.8267 47.5312 23.1653 47.3499 23.608C47.1739 24.0453 47.0859 24.568 47.0859 25.176C47.0859 26.0773 47.2752 26.792 47.6539 27.32C48.0379 27.8427 48.6005 28.104 49.3419 28.104ZM58.2087 21.352H59.6007L62.0967 27.912H61.8087L63.7447 21.352H65.0247L62.1447 30.536C61.9047 31.304 61.5847 31.896 61.1847 32.312C60.7847 32.728 60.2727 32.936 59.6487 32.936C59.3127 32.936 58.9927 32.888 58.6887 32.792C58.3901 32.696 58.0807 32.5573 57.7607 32.376V31.224C58.0434 31.448 58.3154 31.608 58.5767 31.704C58.8434 31.8 59.1207 31.848 59.4087 31.848C59.7287 31.848 59.9954 31.7467 60.2087 31.544C60.4274 31.3413 60.6087 31.08 60.7527 30.76C60.8967 30.4453 61.0194 30.1147 61.1207 29.768L61.3447 29L58.2087 21.352ZM69.8539 29.192C69.1659 29.192 68.5525 29.04 68.0139 28.736C67.4805 28.432 67.0592 27.9813 66.7499 27.384C66.4405 26.7867 66.2859 26.0507 66.2859 25.176C66.2859 24.296 66.4405 23.56 66.7499 22.968C67.0592 22.3707 67.4805 21.92 68.0139 21.616C68.5525 21.312 69.1659 21.16 69.8539 21.16C70.5365 21.16 71.1445 21.312 71.6779 21.616C72.2165 21.92 72.6379 22.3707 72.9419 22.968C73.2512 23.56 73.4059 24.296 73.4059 25.176C73.4059 26.0507 73.2512 26.7867 72.9419 27.384C72.6379 27.9813 72.2165 28.432 71.6779 28.736C71.1445 29.04 70.5365 29.192 69.8539 29.192ZM69.8219 28.104C70.3179 28.104 70.7392 27.9867 71.0859 27.752C71.4325 27.512 71.6939 27.1733 71.8699 26.736C72.0512 26.2987 72.1419 25.7787 72.1419 25.176C72.1419 24.264 71.9525 23.5467 71.5739 23.024C71.1952 22.496 70.6325 22.232 69.8859 22.232C69.3845 22.232 68.9605 22.352 68.6139 22.592C68.2725 22.8267 68.0112 23.1653 67.8299 23.608C67.6539 24.0453 67.5659 24.568 67.5659 25.176C67.5659 26.0773 67.7552 26.792 68.1339 27.32C68.5179 27.8427 69.0805 28.104 69.8219 28.104ZM81.1959 21.336H82.4439V29H81.1959V21.336ZM75.7719 21.336H77.0199V26.104C77.0199 26.744 77.1745 27.2293 77.4839 27.56C77.7985 27.8907 78.2465 28.056 78.8279 28.056C79.3079 28.056 79.7239 27.928 80.0759 27.672C80.4332 27.416 80.7079 27.064 80.8999 26.616C81.0972 26.1627 81.1959 25.6453 81.1959 25.064H81.6599C81.6599 25.9227 81.5345 26.656 81.2839 27.264C81.0385 27.872 80.6892 28.3387 80.2359 28.664C79.7879 28.984 79.2599 29.144 78.6519 29.144C78.0759 29.144 77.5719 29.0373 77.1399 28.824C76.7079 28.6107 76.3719 28.288 76.1319 27.856C75.8919 27.4187 75.7719 26.8667 75.7719 26.2V21.336ZM88.4722 21.352H89.7682L91.7202 27.736H91.5602L93.4642 21.72H94.5042L96.3922 27.752H96.2482L98.2002 21.352H99.4482L96.9362 29H95.7202L93.8642 23.352H94.0562L92.2162 29H91.0002L88.4722 21.352ZM106.29 29L106.13 27.32V24.04C106.13 23.352 105.983 22.8587 105.69 22.56C105.397 22.256 104.957 22.104 104.37 22.104C104.039 22.104 103.738 22.152 103.466 22.248C103.199 22.344 102.986 22.4933 102.826 22.696C102.671 22.8933 102.594 23.1493 102.594 23.464H101.202C101.202 22.9093 101.338 22.464 101.61 22.128C101.882 21.7867 102.255 21.5413 102.73 21.392C103.21 21.2373 103.757 21.16 104.37 21.16C104.957 21.16 105.477 21.2587 105.93 21.456C106.383 21.6533 106.738 21.968 106.994 22.4C107.25 22.8267 107.378 23.384 107.378 24.072V29H106.29ZM103.682 29.192C103.053 29.192 102.533 29.08 102.122 28.856C101.711 28.632 101.405 28.3413 101.202 27.984C100.999 27.6267 100.898 27.2507 100.898 26.856C100.898 26.3387 101.026 25.9173 101.282 25.592C101.543 25.2667 101.898 25.0293 102.346 24.88C102.794 24.7253 103.298 24.648 103.858 24.648C104.258 24.648 104.658 24.688 105.058 24.768C105.463 24.848 105.858 24.9573 106.242 25.096V25.88C105.922 25.752 105.559 25.6507 105.154 25.576C104.754 25.5013 104.386 25.464 104.05 25.464C103.538 25.464 103.106 25.5707 102.754 25.784C102.402 25.992 102.226 26.3493 102.226 26.856C102.226 27.2293 102.359 27.5493 102.626 27.816C102.898 28.0827 103.33 28.216 103.922 28.216C104.338 28.216 104.711 28.12 105.042 27.928C105.378 27.7307 105.642 27.4853 105.834 27.192C106.031 26.8987 106.13 26.6053 106.13 26.312H106.434C106.434 26.824 106.322 27.2987 106.098 27.736C105.879 28.1733 105.565 28.5253 105.154 28.792C104.743 29.0587 104.253 29.192 103.682 29.192ZM115.966 29V24.504C115.966 23.7733 115.79 23.2187 115.438 22.84C115.092 22.456 114.617 22.264 114.014 22.264C113.556 22.264 113.158 22.3893 112.822 22.64C112.486 22.8907 112.228 23.2507 112.046 23.72C111.865 24.184 111.774 24.7387 111.774 25.384H111.294C111.294 24.4933 111.412 23.7333 111.646 23.104C111.881 22.4747 112.222 21.9947 112.67 21.664C113.124 21.328 113.673 21.16 114.318 21.16C114.921 21.16 115.436 21.296 115.862 21.568C116.294 21.8347 116.625 22.2187 116.854 22.72C117.084 23.2213 117.198 23.816 117.198 24.504V29H115.966ZM110.526 29V21.352H111.598L111.774 23.112V29H110.526ZM122.695 29.192C122.279 29.192 121.905 29.112 121.575 28.952C121.244 28.792 120.983 28.552 120.791 28.232C120.599 27.912 120.503 27.512 120.503 27.032V19.224H121.735V27C121.735 27.7893 122.103 28.184 122.839 28.184C123.057 28.184 123.268 28.16 123.471 28.112C123.679 28.064 123.911 27.992 124.167 27.896L124.343 28.792C124.071 28.9093 123.799 29.0053 123.527 29.08C123.26 29.1547 122.983 29.192 122.695 29.192ZM119.271 22.216V21.352H124.151V22.216H119.271ZM132.827 29.192C132.411 29.192 132.038 29.112 131.707 28.952C131.377 28.792 131.115 28.552 130.923 28.232C130.731 27.912 130.635 27.512 130.635 27.032V19.224H131.867V27C131.867 27.7893 132.235 28.184 132.971 28.184C133.19 28.184 133.401 28.16 133.603 28.112C133.811 28.064 134.043 27.992 134.299 27.896L134.475 28.792C134.203 28.9093 133.931 29.0053 133.659 29.08C133.393 29.1547 133.115 29.192 132.827 29.192ZM129.403 22.216V21.352H134.283V22.216H129.403ZM139.419 29.192C138.731 29.192 138.118 29.04 137.579 28.736C137.046 28.432 136.624 27.9813 136.315 27.384C136.006 26.7867 135.851 26.0507 135.851 25.176C135.851 24.296 136.006 23.56 136.315 22.968C136.624 22.3707 137.046 21.92 137.579 21.616C138.118 21.312 138.731 21.16 139.419 21.16C140.102 21.16 140.71 21.312 141.243 21.616C141.782 21.92 142.203 22.3707 142.507 22.968C142.816 23.56 142.971 24.296 142.971 25.176C142.971 26.0507 142.816 26.7867 142.507 27.384C142.203 27.9813 141.782 28.432 141.243 28.736C140.71 29.04 140.102 29.192 139.419 29.192ZM139.387 28.104C139.883 28.104 140.304 27.9867 140.651 27.752C140.998 27.512 141.259 27.1733 141.435 26.736C141.616 26.2987 141.707 25.7787 141.707 25.176C141.707 24.264 141.518 23.5467 141.139 23.024C140.76 22.496 140.198 22.232 139.451 22.232C138.95 22.232 138.526 22.352 138.179 22.592C137.838 22.8267 137.576 23.1653 137.395 23.608C137.219 24.0453 137.131 24.568 137.131 25.176C137.131 26.0773 137.32 26.792 137.699 27.32C138.083 27.8427 138.646 28.104 139.387 28.104ZM152.27 29.192C151.528 29.192 150.91 29.088 150.414 28.88C149.918 28.6667 149.542 28.376 149.286 28.008C149.03 27.6347 148.894 27.208 148.878 26.728H150.078C150.104 27.2133 150.299 27.5787 150.662 27.824C151.03 28.064 151.528 28.184 152.158 28.184C152.488 28.184 152.792 28.1307 153.07 28.024C153.347 27.9173 153.568 27.7707 153.734 27.584C153.899 27.3973 153.982 27.1867 153.982 26.952C153.982 26.6533 153.872 26.4187 153.654 26.248C153.435 26.0773 153.086 25.928 152.606 25.8L151.118 25.32C150.472 25.1173 149.976 24.84 149.63 24.488C149.288 24.1307 149.118 23.704 149.118 23.208C149.118 22.5893 149.39 22.0933 149.934 21.72C150.478 21.3467 151.192 21.16 152.078 21.16C153.016 21.16 153.744 21.352 154.262 21.736C154.779 22.12 155.048 22.6 155.07 23.176H153.838C153.79 22.84 153.619 22.5867 153.326 22.416C153.032 22.24 152.616 22.152 152.078 22.152C151.56 22.152 151.155 22.2693 150.862 22.504C150.574 22.7333 150.43 22.9893 150.43 23.272C150.43 23.8 150.883 24.1893 151.79 24.44L153.31 24.952C153.966 25.1493 154.467 25.408 154.814 25.728C155.166 26.048 155.342 26.456 155.342 26.952C155.342 27.336 155.216 27.6987 154.966 28.04C154.715 28.3813 154.36 28.6587 153.902 28.872C153.443 29.0853 152.899 29.192 152.27 29.192ZM162.82 29L162.66 27.32V24.04C162.66 23.352 162.513 22.8587 162.22 22.56C161.927 22.256 161.487 22.104 160.9 22.104C160.569 22.104 160.268 22.152 159.996 22.248C159.729 22.344 159.516 22.4933 159.356 22.696C159.201 22.8933 159.124 23.1493 159.124 23.464H157.732C157.732 22.9093 157.868 22.464 158.14 22.128C158.412 21.7867 158.785 21.5413 159.26 21.392C159.74 21.2373 160.287 21.16 160.9 21.16C161.487 21.16 162.007 21.2587 162.46 21.456C162.913 21.6533 163.268 21.968 163.524 22.4C163.78 22.8267 163.908 23.384 163.908 24.072V29H162.82ZM160.212 29.192C159.583 29.192 159.063 29.08 158.652 28.856C158.241 28.632 157.935 28.3413 157.732 27.984C157.529 27.6267 157.428 27.2507 157.428 26.856C157.428 26.3387 157.556 25.9173 157.812 25.592C158.073 25.2667 158.428 25.0293 158.876 24.88C159.324 24.7253 159.828 24.648 160.388 24.648C160.788 24.648 161.188 24.688 161.588 24.768C161.993 24.848 162.388 24.9573 162.772 25.096V25.88C162.452 25.752 162.089 25.6507 161.684 25.576C161.284 25.5013 160.916 25.464 160.58 25.464C160.068 25.464 159.636 25.5707 159.284 25.784C158.932 25.992 158.756 26.3493 158.756 26.856C158.756 27.2293 158.889 27.5493 159.156 27.816C159.428 28.0827 159.86 28.216 160.452 28.216C160.868 28.216 161.241 28.12 161.572 27.928C161.908 27.7307 162.172 27.4853 162.364 27.192C162.561 26.8987 162.66 26.6053 162.66 26.312H162.964C162.964 26.824 162.852 27.2987 162.628 27.736C162.409 28.1733 162.095 28.5253 161.684 28.792C161.273 29.0587 160.783 29.192 160.212 29.192ZM165.728 21.352H167.152L169.552 27.928H169.376L171.776 21.352H173.2L170.144 29H168.784L165.728 21.352ZM177.919 29.192C177.258 29.192 176.666 29.024 176.143 28.688C175.626 28.3467 175.215 27.8747 174.911 27.272C174.613 26.6693 174.463 25.976 174.463 25.192C174.463 24.3547 174.613 23.6347 174.911 23.032C175.21 22.4293 175.618 21.968 176.135 21.648C176.658 21.3227 177.253 21.16 177.919 21.16C178.501 21.16 178.997 21.2773 179.407 21.512C179.818 21.7467 180.149 22.064 180.399 22.464C180.65 22.864 180.823 23.3173 180.919 23.824C181.021 24.3253 181.05 24.8453 181.007 25.384H175.471V24.616H180.183L179.815 24.856C179.831 24.5413 179.813 24.2267 179.759 23.912C179.711 23.5973 179.618 23.3093 179.479 23.048C179.341 22.7813 179.146 22.568 178.895 22.408C178.645 22.248 178.325 22.168 177.935 22.168C177.445 22.168 177.034 22.2933 176.703 22.544C176.373 22.7947 176.125 23.1253 175.959 23.536C175.794 23.9413 175.711 24.3813 175.711 24.856V25.368C175.711 25.9013 175.791 26.3787 175.951 26.8C176.117 27.2213 176.362 27.5547 176.687 27.8C177.013 28.0453 177.423 28.168 177.919 28.168C178.415 28.168 178.823 28.048 179.143 27.808C179.463 27.568 179.658 27.2133 179.727 26.744H181.023C180.943 27.2507 180.762 27.688 180.479 28.056C180.197 28.4187 179.837 28.6987 179.399 28.896C178.962 29.0933 178.469 29.192 177.919 29.192ZM189.951 29.192C189.535 29.192 189.162 29.112 188.831 28.952C188.5 28.792 188.239 28.552 188.047 28.232C187.855 27.912 187.759 27.512 187.759 27.032V19.224H188.991V27C188.991 27.7893 189.359 28.184 190.095 28.184C190.314 28.184 190.524 28.16 190.727 28.112C190.935 28.064 191.167 27.992 191.423 27.896L191.599 28.792C191.327 28.9093 191.055 29.0053 190.783 29.08C190.516 29.1547 190.239 29.192 189.951 29.192ZM186.527 22.216V21.352H191.407V22.216H186.527ZM199.215 29V24.504C199.215 23.7733 199.039 23.2187 198.687 22.84C198.34 22.456 197.865 22.264 197.263 22.264C196.804 22.264 196.407 22.3893 196.071 22.64C195.735 22.8907 195.476 23.2507 195.295 23.72C195.113 24.184 195.023 24.7387 195.023 25.384H194.543C194.543 24.4933 194.66 23.7333 194.895 23.104C195.129 22.4747 195.471 21.9947 195.919 21.664C196.372 21.328 196.921 21.16 197.567 21.16C198.169 21.16 198.684 21.296 199.111 21.568C199.543 21.8347 199.873 22.2187 200.103 22.72C200.332 23.2213 200.447 23.816 200.447 24.504V29H199.215ZM193.775 29V18.088H195.023V29H193.775ZM206.247 29.192C205.586 29.192 204.994 29.024 204.471 28.688C203.954 28.3467 203.543 27.8747 203.239 27.272C202.94 26.6693 202.791 25.976 202.791 25.192C202.791 24.3547 202.94 23.6347 203.239 23.032C203.538 22.4293 203.946 21.968 204.463 21.648C204.986 21.3227 205.58 21.16 206.247 21.16C206.828 21.16 207.324 21.2773 207.735 21.512C208.146 21.7467 208.476 22.064 208.727 22.464C208.978 22.864 209.151 23.3173 209.247 23.824C209.348 24.3253 209.378 24.8453 209.335 25.384H203.799V24.616H208.511L208.143 24.856C208.159 24.5413 208.14 24.2267 208.087 23.912C208.039 23.5973 207.946 23.3093 207.807 23.048C207.668 22.7813 207.474 22.568 207.223 22.408C206.972 22.248 206.652 22.168 206.263 22.168C205.772 22.168 205.362 22.2933 205.031 22.544C204.7 22.7947 204.452 23.1253 204.287 23.536C204.122 23.9413 204.039 24.3813 204.039 24.856V25.368C204.039 25.9013 204.119 26.3787 204.279 26.8C204.444 27.2213 204.69 27.5547 205.015 27.8C205.34 28.0453 205.751 28.168 206.247 28.168C206.743 28.168 207.151 28.048 207.471 27.808C207.791 27.568 207.986 27.2133 208.055 26.744H209.351C209.271 27.2507 209.09 27.688 208.807 28.056C208.524 28.4187 208.164 28.6987 207.727 28.896C207.29 29.0933 206.796 29.192 206.247 29.192ZM39.3554 49.192C38.7954 49.192 38.3074 49.064 37.8914 48.808C37.4807 48.552 37.1634 48.1787 36.9394 47.688C36.7154 47.192 36.6034 46.5893 36.6034 45.88H37.1314C37.1314 46.3547 37.23 46.7547 37.4274 47.08C37.6247 47.4053 37.8807 47.6533 38.1954 47.824C38.5154 47.9893 38.854 48.072 39.2114 48.072C39.5954 48.072 39.9634 47.9627 40.3154 47.744C40.6674 47.52 40.9554 47.192 41.1794 46.76C41.4034 46.328 41.5154 45.7947 41.5154 45.16C41.5154 44.552 41.4114 44.032 41.2034 43.6C41.0007 43.168 40.726 42.8373 40.3794 42.608C40.0327 42.3787 39.6487 42.264 39.2274 42.264C38.8647 42.264 38.5234 42.352 38.2034 42.528C37.8834 42.704 37.6247 42.9627 37.4274 43.304C37.23 43.64 37.1314 44.056 37.1314 44.552H36.6034C36.6034 43.8107 36.726 43.1893 36.9714 42.688C37.2167 42.1813 37.55 41.8 37.9714 41.544C38.3927 41.288 38.8647 41.16 39.3874 41.16C39.9847 41.16 40.542 41.32 41.0594 41.64C41.5767 41.96 41.9954 42.4187 42.3154 43.016C42.6354 43.6133 42.7954 44.328 42.7954 45.16C42.7954 46.0027 42.6327 46.7253 42.3074 47.328C41.9874 47.9307 41.566 48.392 41.0434 48.712C40.5207 49.032 39.958 49.192 39.3554 49.192ZM35.8834 52.76V41.352H36.9234L37.1314 43.144V52.76H35.8834ZM50.1387 49L49.9787 47.32V44.04C49.9787 43.352 49.8321 42.8587 49.5387 42.56C49.2454 42.256 48.8054 42.104 48.2187 42.104C47.8881 42.104 47.5867 42.152 47.3147 42.248C47.0481 42.344 46.8347 42.4933 46.6747 42.696C46.5201 42.8933 46.4427 43.1493 46.4427 43.464H45.0507C45.0507 42.9093 45.1867 42.464 45.4587 42.128C45.7307 41.7867 46.1041 41.5413 46.5787 41.392C47.0587 41.2373 47.6054 41.16 48.2187 41.16C48.8054 41.16 49.3254 41.2587 49.7787 41.456C50.2321 41.6533 50.5867 41.968 50.8427 42.4C51.0987 42.8267 51.2267 43.384 51.2267 44.072V49H50.1387ZM47.5307 49.192C46.9014 49.192 46.3814 49.08 45.9707 48.856C45.5601 48.632 45.2534 48.3413 45.0507 47.984C44.8481 47.6267 44.7467 47.2507 44.7467 46.856C44.7467 46.3387 44.8747 45.9173 45.1307 45.592C45.3921 45.2667 45.7467 45.0293 46.1947 44.88C46.6427 44.7253 47.1467 44.648 47.7067 44.648C48.1067 44.648 48.5067 44.688 48.9067 44.768C49.3121 44.848 49.7067 44.9573 50.0907 45.096V45.88C49.7707 45.752 49.4081 45.6507 49.0027 45.576C48.6027 45.5013 48.2347 45.464 47.8987 45.464C47.3867 45.464 46.9547 45.5707 46.6027 45.784C46.2507 45.992 46.0747 46.3493 46.0747 46.856C46.0747 47.2293 46.2081 47.5493 46.4747 47.816C46.7467 48.0827 47.1787 48.216 47.7707 48.216C48.1867 48.216 48.5601 48.12 48.8907 47.928C49.2267 47.7307 49.4907 47.4853 49.6827 47.192C49.8801 46.8987 49.9787 46.6053 49.9787 46.312H50.2827C50.2827 46.824 50.1707 47.2987 49.9467 47.736C49.7281 48.1733 49.4134 48.5253 49.0027 48.792C48.5921 49.0587 48.1014 49.192 47.5307 49.192ZM57.0792 52.936C56.2952 52.936 55.6152 52.824 55.0392 52.6C54.4632 52.3813 54.0152 52.0853 53.6952 51.712C53.3806 51.344 53.2232 50.936 53.2232 50.488C53.2232 49.896 53.4392 49.4427 53.8712 49.128C54.3086 48.8187 54.8712 48.664 55.5592 48.664L56.2472 49.096C55.6712 49.096 55.2259 49.216 54.9112 49.456C54.5966 49.696 54.4392 50.024 54.4392 50.44C54.4392 50.856 54.6632 51.208 55.1112 51.496C55.5592 51.784 56.2152 51.928 57.0792 51.928C57.7192 51.928 58.2792 51.8347 58.7592 51.648C59.2446 51.4667 59.6206 51.2267 59.8872 50.928C60.1592 50.6347 60.2952 50.3173 60.2952 49.976C60.2952 49.736 60.2072 49.528 60.0312 49.352C59.8552 49.1813 59.5859 49.096 59.2232 49.096H56.2472C55.7299 49.096 55.2819 49.0187 54.9032 48.864C54.5299 48.704 54.2419 48.496 54.0392 48.24C53.8366 47.984 53.7352 47.704 53.7352 47.4C53.7352 47.08 53.8259 46.808 54.0072 46.584C54.1886 46.36 54.4232 46.1893 54.7112 46.072C55.0046 45.9547 55.3192 45.896 55.6552 45.896L55.8952 46.36C55.7352 46.36 55.5726 46.3973 55.4072 46.472C55.2472 46.5413 55.1112 46.648 54.9992 46.792C54.8926 46.9307 54.8392 47.1067 54.8392 47.32C54.8392 47.5653 54.9406 47.7707 55.1432 47.936C55.3459 48.1013 55.7139 48.184 56.2472 48.184H59.2232C59.9432 48.184 60.5086 48.336 60.9192 48.64C61.3352 48.944 61.5432 49.368 61.5432 49.912C61.5432 50.4133 61.3646 50.8933 61.0072 51.352C60.6499 51.816 60.1379 52.1947 59.4712 52.488C58.8046 52.7867 58.0072 52.936 57.0792 52.936ZM57.3032 46.76C56.7166 46.76 56.1859 46.6427 55.7112 46.408C55.2419 46.1733 54.8686 45.8453 54.5912 45.424C54.3192 45.0027 54.1832 44.5147 54.1832 43.96C54.1832 43.4 54.3192 42.9093 54.5912 42.488C54.8686 42.0667 55.2419 41.7413 55.7112 41.512C56.1859 41.2773 56.7166 41.16 57.3032 41.16C57.8739 41.16 58.3912 41.2773 58.8552 41.512C59.3246 41.7413 59.6979 42.0667 59.9752 42.488C60.2526 42.9093 60.3912 43.4 60.3912 43.96C60.3912 44.5147 60.2526 45.0027 59.9752 45.424C59.6979 45.8453 59.3246 46.1733 58.8552 46.408C58.3912 46.6427 57.8739 46.76 57.3032 46.76ZM57.3032 45.864C57.8899 45.864 58.3459 45.6827 58.6712 45.32C58.9966 44.9573 59.1592 44.504 59.1592 43.96C59.1592 43.4 58.9966 42.9467 58.6712 42.6C58.3459 42.248 57.8899 42.072 57.3032 42.072C56.7219 42.072 56.2632 42.248 55.9272 42.6C55.5966 42.9467 55.4312 43.4 55.4312 43.96C55.4312 44.504 55.5966 44.9573 55.9272 45.32C56.2632 45.6827 56.7219 45.864 57.3032 45.864ZM59.8152 42.376L59.2232 42.136C59.2232 41.688 59.3112 41.296 59.4872 40.96C59.6632 40.6187 59.9139 40.3547 60.2392 40.168C60.5646 39.976 60.9512 39.88 61.3992 39.88L61.3032 41.112C60.8232 41.112 60.4552 41.216 60.1992 41.424C59.9432 41.6267 59.8152 41.944 59.8152 42.376ZM66.2225 49.192C65.5612 49.192 64.9692 49.024 64.4465 48.688C63.9292 48.3467 63.5185 47.8747 63.2145 47.272C62.9158 46.6693 62.7665 45.976 62.7665 45.192C62.7665 44.3547 62.9158 43.6347 63.2145 43.032C63.5132 42.4293 63.9212 41.968 64.4385 41.648C64.9612 41.3227 65.5558 41.16 66.2225 41.16C66.8038 41.16 67.2998 41.2773 67.7105 41.512C68.1212 41.7467 68.4518 42.064 68.7025 42.464C68.9532 42.864 69.1265 43.3173 69.2225 43.824C69.3238 44.3253 69.3532 44.8453 69.3105 45.384H63.7745V44.616H68.4865L68.1185 44.856C68.1345 44.5413 68.1158 44.2267 68.0625 43.912C68.0145 43.5973 67.9212 43.3093 67.7825 43.048C67.6438 42.7813 67.4492 42.568 67.1985 42.408C66.9478 42.248 66.6278 42.168 66.2385 42.168C65.7478 42.168 65.3372 42.2933 65.0065 42.544C64.6758 42.7947 64.4278 43.1253 64.2625 43.536C64.0972 43.9413 64.0145 44.3813 64.0145 44.856V45.368C64.0145 45.9013 64.0945 46.3787 64.2545 46.8C64.4198 47.2213 64.6652 47.5547 64.9905 47.8C65.3158 48.0453 65.7265 48.168 66.2225 48.168C66.7185 48.168 67.1265 48.048 67.4465 47.808C67.7665 47.568 67.9612 47.2133 68.0305 46.744H69.3265C69.2465 47.2507 69.0652 47.688 68.7825 48.056C68.4998 48.4187 68.1398 48.6987 67.7025 48.896C67.2652 49.0933 66.7718 49.192 66.2225 49.192ZM74.5741 41.352H75.8701L77.8221 47.736H77.6621L79.5661 41.72H80.6061L82.4941 47.752H82.3501L84.3021 41.352H85.5501L83.0381 49H81.8221L79.9661 43.352H80.1581L78.3181 49H77.1021L74.5741 41.352ZM88.3599 39.544C88.1039 39.544 87.9012 39.472 87.7519 39.328C87.6025 39.1787 87.5279 38.984 87.5279 38.744C87.5279 38.5093 87.6025 38.3227 87.7519 38.184C87.9012 38.0453 88.1039 37.976 88.3599 37.976C88.6159 37.976 88.8185 38.0453 88.9679 38.184C89.1172 38.3227 89.1919 38.5093 89.1919 38.744C89.1919 38.984 89.1172 39.1787 88.9679 39.328C88.8185 39.472 88.6159 39.544 88.3599 39.544ZM87.7359 49V41.336H88.9839V49H87.7359ZM94.9335 49.192C94.5175 49.192 94.1442 49.112 93.8135 48.952C93.4828 48.792 93.2215 48.552 93.0295 48.232C92.8375 47.912 92.7415 47.512 92.7415 47.032V39.224H93.9735V47C93.9735 47.7893 94.3415 48.184 95.0775 48.184C95.2962 48.184 95.5068 48.16 95.7095 48.112C95.9175 48.064 96.1495 47.992 96.4055 47.896L96.5815 48.792C96.3095 48.9093 96.0375 49.0053 95.7655 49.08C95.4988 49.1547 95.2215 49.192 94.9335 49.192ZM91.5095 42.216V41.352H96.3895V42.216H91.5095ZM104.197 49V44.504C104.197 43.7733 104.021 43.2187 103.669 42.84C103.322 42.456 102.848 42.264 102.245 42.264C101.786 42.264 101.389 42.3893 101.053 42.64C100.717 42.8907 100.458 43.2507 100.277 43.72C100.096 44.184 100.005 44.7387 100.005 45.384H99.5251C99.5251 44.4933 99.6424 43.7333 99.8771 43.104C100.112 42.4747 100.453 41.9947 100.901 41.664C101.354 41.328 101.904 41.16 102.549 41.16C103.152 41.16 103.666 41.296 104.093 41.568C104.525 41.8347 104.856 42.2187 105.085 42.72C105.314 43.2213 105.429 43.816 105.429 44.504V49H104.197ZM98.7571 49V38.088H100.005V49H98.7571ZM117.266 49L117.106 47.32V44.04C117.106 43.352 116.96 42.8587 116.666 42.56C116.373 42.256 115.933 42.104 115.346 42.104C115.016 42.104 114.714 42.152 114.442 42.248C114.176 42.344 113.962 42.4933 113.802 42.696C113.648 42.8933 113.57 43.1493 113.57 43.464H112.178C112.178 42.9093 112.314 42.464 112.586 42.128C112.858 41.7867 113.232 41.5413 113.706 41.392C114.186 41.2373 114.733 41.16 115.346 41.16C115.933 41.16 116.453 41.2587 116.906 41.456C117.36 41.6533 117.714 41.968 117.97 42.4C118.226 42.8267 118.354 43.384 118.354 44.072V49H117.266ZM114.658 49.192C114.029 49.192 113.509 49.08 113.098 48.856C112.688 48.632 112.381 48.3413 112.178 47.984C111.976 47.6267 111.874 47.2507 111.874 46.856C111.874 46.3387 112.002 45.9173 112.258 45.592C112.52 45.2667 112.874 45.0293 113.322 44.88C113.77 44.7253 114.274 44.648 114.834 44.648C115.234 44.648 115.634 44.688 116.034 44.768C116.44 44.848 116.834 44.9573 117.218 45.096V45.88C116.898 45.752 116.536 45.6507 116.13 45.576C115.73 45.5013 115.362 45.464 115.026 45.464C114.514 45.464 114.082 45.5707 113.73 45.784C113.378 45.992 113.202 46.3493 113.202 46.856C113.202 47.2293 113.336 47.5493 113.602 47.816C113.874 48.0827 114.306 48.216 114.898 48.216C115.314 48.216 115.688 48.12 116.018 47.928C116.354 47.7307 116.618 47.4853 116.81 47.192C117.008 46.8987 117.106 46.6053 117.106 46.312H117.41C117.41 46.824 117.298 47.2987 117.074 47.736C116.856 48.1733 116.541 48.5253 116.13 48.792C115.72 49.0587 115.229 49.192 114.658 49.192ZM128.148 49.192C127.534 49.192 126.961 49.0267 126.428 48.696C125.9 48.3653 125.473 47.8987 125.148 47.296C124.822 46.6933 124.66 45.9813 124.66 45.16C124.66 44.3173 124.822 43.5973 125.148 43C125.473 42.4027 125.9 41.9467 126.428 41.632C126.961 41.3173 127.534 41.16 128.148 41.16C128.58 41.16 128.966 41.2267 129.308 41.36C129.654 41.488 129.956 41.6667 130.212 41.896C130.468 42.1253 130.678 42.3867 130.844 42.68C131.014 42.968 131.14 43.272 131.22 43.592L129.94 43.704C129.806 43.2613 129.582 42.912 129.268 42.656C128.958 42.3947 128.58 42.264 128.132 42.264C127.753 42.264 127.396 42.3733 127.06 42.592C126.729 42.8053 126.46 43.128 126.252 43.56C126.044 43.9867 125.94 44.52 125.94 45.16C125.94 45.752 126.033 46.2667 126.22 46.704C126.412 47.136 126.673 47.472 127.004 47.712C127.334 47.952 127.71 48.072 128.132 48.072C128.724 48.072 129.172 47.928 129.476 47.64C129.785 47.3467 129.94 46.9413 129.94 46.424H131.22C131.22 46.9573 131.094 47.432 130.844 47.848C130.593 48.264 130.236 48.592 129.772 48.832C129.313 49.072 128.772 49.192 128.148 49.192ZM139.07 41.336H140.318V49H139.07V41.336ZM133.646 41.336H134.894V46.104C134.894 46.744 135.048 47.2293 135.358 47.56C135.672 47.8907 136.12 48.056 136.702 48.056C137.182 48.056 137.598 47.928 137.95 47.672C138.307 47.416 138.582 47.064 138.774 46.616C138.971 46.1627 139.07 45.6453 139.07 45.064H139.534C139.534 45.9227 139.408 46.656 139.158 47.264C138.912 47.872 138.563 48.3387 138.11 48.664C137.662 48.984 137.134 49.144 136.526 49.144C135.95 49.144 135.446 49.0373 135.014 48.824C134.582 48.6107 134.246 48.288 134.006 47.856C133.766 47.4187 133.646 46.8667 133.646 46.2V41.336ZM146.469 49.192C145.728 49.192 145.109 49.088 144.613 48.88C144.117 48.6667 143.741 48.376 143.485 48.008C143.229 47.6347 143.093 47.208 143.077 46.728H144.277C144.304 47.2133 144.498 47.5787 144.861 47.824C145.229 48.064 145.728 48.184 146.357 48.184C146.688 48.184 146.992 48.1307 147.269 48.024C147.546 47.9173 147.768 47.7707 147.933 47.584C148.098 47.3973 148.181 47.1867 148.181 46.952C148.181 46.6533 148.072 46.4187 147.853 46.248C147.634 46.0773 147.285 45.928 146.805 45.8L145.317 45.32C144.672 45.1173 144.176 44.84 143.829 44.488C143.488 44.1307 143.317 43.704 143.317 43.208C143.317 42.5893 143.589 42.0933 144.133 41.72C144.677 41.3467 145.392 41.16 146.277 41.16C147.216 41.16 147.944 41.352 148.461 41.736C148.978 42.12 149.248 42.6 149.269 43.176H148.037C147.989 42.84 147.818 42.5867 147.525 42.416C147.232 42.24 146.816 42.152 146.277 42.152C145.76 42.152 145.354 42.2693 145.061 42.504C144.773 42.7333 144.629 42.9893 144.629 43.272C144.629 43.8 145.082 44.1893 145.989 44.44L147.509 44.952C148.165 45.1493 148.666 45.408 149.013 45.728C149.365 46.048 149.541 46.456 149.541 46.952C149.541 47.336 149.416 47.6987 149.165 48.04C148.914 48.3813 148.56 48.6587 148.101 48.872C147.642 49.0853 147.098 49.192 146.469 49.192ZM154.635 49.192C154.219 49.192 153.846 49.112 153.515 48.952C153.185 48.792 152.923 48.552 152.731 48.232C152.539 47.912 152.443 47.512 152.443 47.032V39.224H153.675V47C153.675 47.7893 154.043 48.184 154.779 48.184C154.998 48.184 155.209 48.16 155.411 48.112C155.619 48.064 155.851 47.992 156.107 47.896L156.283 48.792C156.011 48.9093 155.739 49.0053 155.467 49.08C155.201 49.1547 154.923 49.192 154.635 49.192ZM151.211 42.216V41.352H156.091V42.216H151.211ZM161.227 49.192C160.539 49.192 159.926 49.04 159.387 48.736C158.854 48.432 158.432 47.9813 158.123 47.384C157.814 46.7867 157.659 46.0507 157.659 45.176C157.659 44.296 157.814 43.56 158.123 42.968C158.432 42.3707 158.854 41.92 159.387 41.616C159.926 41.312 160.539 41.16 161.227 41.16C161.91 41.16 162.518 41.312 163.051 41.616C163.59 41.92 164.011 42.3707 164.315 42.968C164.624 43.56 164.779 44.296 164.779 45.176C164.779 46.0507 164.624 46.7867 164.315 47.384C164.011 47.9813 163.59 48.432 163.051 48.736C162.518 49.04 161.91 49.192 161.227 49.192ZM161.195 48.104C161.691 48.104 162.112 47.9867 162.459 47.752C162.806 47.512 163.067 47.1733 163.243 46.736C163.424 46.2987 163.515 45.7787 163.515 45.176C163.515 44.264 163.326 43.5467 162.947 43.024C162.568 42.496 162.006 42.232 161.259 42.232C160.758 42.232 160.334 42.352 159.987 42.592C159.646 42.8267 159.384 43.1653 159.203 43.608C159.027 44.0453 158.939 44.568 158.939 45.176C158.939 46.0773 159.128 46.792 159.507 47.32C159.891 47.8427 160.454 48.104 161.195 48.104ZM178.121 49V44.504C178.121 43.7733 177.945 43.2187 177.593 42.84C177.246 42.456 176.777 42.264 176.185 42.264C175.492 42.264 174.961 42.5333 174.593 43.072C174.225 43.6053 174.041 44.344 174.041 45.288H173.465C173.465 44.6 173.532 43.9973 173.665 43.48C173.804 42.9627 174.004 42.5333 174.265 42.192C174.526 41.8453 174.844 41.5867 175.217 41.416C175.59 41.2453 176.014 41.16 176.489 41.16C177.092 41.16 177.606 41.296 178.033 41.568C178.465 41.8347 178.796 42.2187 179.025 42.72C179.254 43.2213 179.369 43.816 179.369 44.504V49H178.121ZM167.369 49V41.352H168.441L168.585 42.888C168.825 42.3333 169.161 41.9067 169.593 41.608C170.03 41.3093 170.553 41.16 171.161 41.16C171.764 41.16 172.278 41.296 172.705 41.568C173.137 41.8347 173.468 42.2187 173.697 42.72C173.926 43.2213 174.041 43.816 174.041 44.504V49H172.809V44.504C172.809 43.7733 172.633 43.2187 172.281 42.84C171.934 42.456 171.46 42.264 170.857 42.264C170.398 42.264 170.001 42.3893 169.665 42.64C169.329 42.8907 169.07 43.2507 168.889 43.72C168.708 44.184 168.617 44.7387 168.617 45.384V49H167.369ZM191.895 49V44.504C191.895 43.7733 191.719 43.2187 191.367 42.84C191.02 42.456 190.545 42.264 189.943 42.264C189.484 42.264 189.087 42.3893 188.751 42.64C188.415 42.8907 188.156 43.2507 187.975 43.72C187.793 44.184 187.703 44.7387 187.703 45.384H187.223C187.223 44.4933 187.34 43.7333 187.575 43.104C187.809 42.4747 188.151 41.9947 188.599 41.664C189.052 41.328 189.601 41.16 190.247 41.16C190.849 41.16 191.364 41.296 191.791 41.568C192.223 41.8347 192.553 42.2187 192.783 42.72C193.012 43.2213 193.127 43.816 193.127 44.504V49H191.895ZM186.455 49V41.352H187.527L187.703 43.112V49H186.455ZM201.007 49L200.847 47.32V44.04C200.847 43.352 200.7 42.8587 200.407 42.56C200.114 42.256 199.674 42.104 199.087 42.104C198.756 42.104 198.455 42.152 198.183 42.248C197.916 42.344 197.703 42.4933 197.543 42.696C197.388 42.8933 197.311 43.1493 197.311 43.464H195.919C195.919 42.9093 196.055 42.464 196.327 42.128C196.599 41.7867 196.972 41.5413 197.447 41.392C197.927 41.2373 198.474 41.16 199.087 41.16C199.674 41.16 200.194 41.2587 200.647 41.456C201.1 41.6533 201.455 41.968 201.711 42.4C201.967 42.8267 202.095 43.384 202.095 44.072V49H201.007ZM198.399 49.192C197.77 49.192 197.25 49.08 196.839 48.856C196.428 48.632 196.122 48.3413 195.919 47.984C195.716 47.6267 195.615 47.2507 195.615 46.856C195.615 46.3387 195.743 45.9173 195.999 45.592C196.26 45.2667 196.615 45.0293 197.063 44.88C197.511 44.7253 198.015 44.648 198.575 44.648C198.975 44.648 199.375 44.688 199.775 44.768C200.18 44.848 200.575 44.9573 200.959 45.096V45.88C200.639 45.752 200.276 45.6507 199.871 45.576C199.471 45.5013 199.103 45.464 198.767 45.464C198.255 45.464 197.823 45.5707 197.471 45.784C197.119 45.992 196.943 46.3493 196.943 46.856C196.943 47.2293 197.076 47.5493 197.343 47.816C197.615 48.0827 198.047 48.216 198.639 48.216C199.055 48.216 199.428 48.12 199.759 47.928C200.095 47.7307 200.359 47.4853 200.551 47.192C200.748 46.8987 200.847 46.6053 200.847 46.312H201.151C201.151 46.824 201.039 47.2987 200.815 47.736C200.596 48.1733 200.282 48.5253 199.871 48.792C199.46 49.0587 198.97 49.192 198.399 49.192ZM215.995 49V44.504C215.995 43.7733 215.819 43.2187 215.467 42.84C215.121 42.456 214.651 42.264 214.059 42.264C213.366 42.264 212.835 42.5333 212.467 43.072C212.099 43.6053 211.915 44.344 211.915 45.288H211.339C211.339 44.6 211.406 43.9973 211.539 43.48C211.678 42.9627 211.878 42.5333 212.139 42.192C212.401 41.8453 212.718 41.5867 213.091 41.416C213.465 41.2453 213.889 41.16 214.363 41.16C214.966 41.16 215.481 41.296 215.907 41.568C216.339 41.8347 216.67 42.2187 216.899 42.72C217.129 43.2213 217.243 43.816 217.243 44.504V49H215.995ZM205.243 49V41.352H206.315L206.459 42.888C206.699 42.3333 207.035 41.9067 207.467 41.608C207.905 41.3093 208.427 41.16 209.035 41.16C209.638 41.16 210.153 41.296 210.579 41.568C211.011 41.8347 211.342 42.2187 211.571 42.72C211.801 43.2213 211.915 43.816 211.915 44.504V49H210.683V44.504C210.683 43.7733 210.507 43.2187 210.155 42.84C209.809 42.456 209.334 42.264 208.731 42.264C208.273 42.264 207.875 42.3893 207.539 42.64C207.203 42.8907 206.945 43.2507 206.763 43.72C206.582 44.184 206.491 44.7387 206.491 45.384V49H205.243ZM223.028 49.192C222.367 49.192 221.775 49.024 221.252 48.688C220.735 48.3467 220.324 47.8747 220.02 47.272C219.721 46.6693 219.572 45.976 219.572 45.192C219.572 44.3547 219.721 43.6347 220.02 43.032C220.319 42.4293 220.727 41.968 221.244 41.648C221.767 41.3227 222.361 41.16 223.028 41.16C223.609 41.16 224.105 41.2773 224.516 41.512C224.927 41.7467 225.257 42.064 225.508 42.464C225.759 42.864 225.932 43.3173 226.028 43.824C226.129 44.3253 226.159 44.8453 226.116 45.384H220.58V44.616H225.292L224.924 44.856C224.94 44.5413 224.921 44.2267 224.868 43.912C224.82 43.5973 224.727 43.3093 224.588 43.048C224.449 42.7813 224.255 42.568 224.004 42.408C223.753 42.248 223.433 42.168 223.044 42.168C222.553 42.168 222.143 42.2933 221.812 42.544C221.481 42.7947 221.233 43.1253 221.068 43.536C220.903 43.9413 220.82 44.3813 220.82 44.856V45.368C220.82 45.9013 220.9 46.3787 221.06 46.8C221.225 47.2213 221.471 47.5547 221.796 47.8C222.121 48.0453 222.532 48.168 223.028 48.168C223.524 48.168 223.932 48.048 224.252 47.808C224.572 47.568 224.767 47.2133 224.836 46.744H226.132C226.052 47.2507 225.871 47.688 225.588 48.056C225.305 48.4187 224.945 48.6987 224.508 48.896C224.071 49.0933 223.577 49.192 223.028 49.192ZM229.967 46.44V45.72C229.967 45.256 230.015 44.8747 230.111 44.576C230.212 44.2773 230.378 44.0187 230.607 43.8C230.836 43.5813 231.151 43.3627 231.551 43.144C231.908 42.952 232.194 42.7733 232.407 42.608C232.62 42.4427 232.772 42.264 232.863 42.072C232.959 41.88 233.007 41.6453 233.007 41.368C233.007 40.952 232.836 40.6053 232.495 40.328C232.159 40.0507 231.695 39.912 231.103 39.912C230.447 39.912 229.946 40.0427 229.599 40.304C229.252 40.56 229.034 40.92 228.943 41.384H227.615C227.69 40.6053 228.015 39.976 228.591 39.496C229.172 39.016 229.999 38.776 231.071 38.776C231.754 38.776 232.34 38.896 232.831 39.136C233.327 39.3707 233.706 39.688 233.967 40.088C234.234 40.4827 234.367 40.92 234.367 41.4C234.367 41.9493 234.228 42.4107 233.951 42.784C233.674 43.152 233.226 43.5013 232.607 43.832C232.25 44.0293 231.967 44.2133 231.759 44.384C231.556 44.5493 231.412 44.7413 231.327 44.96C231.242 45.1733 231.199 45.4533 231.199 45.8V46.44H229.967ZM230.607 49.192C230.34 49.192 230.119 49.1067 229.943 48.936C229.767 48.76 229.679 48.5493 229.679 48.304C229.679 48.0533 229.764 47.8373 229.935 47.656C230.111 47.4747 230.332 47.384 230.599 47.384C230.866 47.384 231.092 47.4747 231.279 47.656C231.471 47.832 231.567 48.0453 231.567 48.296C231.567 48.5413 231.474 48.752 231.287 48.928C231.1 49.104 230.874 49.192 230.607 49.192Z" fill="#4A5DC8"/>
</g>
<defs>
<filter id="filter0_d_7029_5616" x="0" y="0" width="261.767" height="76" filterUnits="userSpaceOnUse" color-interpolation-filters="sRGB">
<feFlood flood-opacity="0" result="BackgroundImageFix"/>
<feColorMatrix in="SourceAlpha" type="matrix" values="0 0 0 0 0 0 0 0 0 0 0 0 0 0 0 0 0 0 127 0" result="hardAlpha"/>
<feOffset dy="4"/>
<feGaussianBlur stdDeviation="3"/>
<feComposite in2="hardAlpha" operator="out"/>
<feColorMatrix type="matrix" values="0 0 0 0 0 0 0 0 0 0 0 0 0 0 0 0 0 0 0.1 0"/>
<feBlend mode="normal" in2="BackgroundImageFix" result="effect1_dropShadow_7029_5616"/>
<feBlend mode="normal" in="SourceGraphic" in2="effect1_dropShadow_7029_5616" result="shape"/>
</filter>
</defs>
</svg>
