<svg width="259" height="67" viewBox="0 0 259 67" fill="none" xmlns="http://www.w3.org/2000/svg">
<path d="M7.15907 31.0643L17.9619 37.2L17.9619 50.4C17.9619 54.0451 22.4383 57 27.9603 57L246.002 57C251.524 57 256 54.0451 256 50.4V8.6C256 4.95492 251.524 2 246.002 2L27.9603 2C22.4383 2 17.9619 4.95492 17.9619 8.6V22.1667L7.28375 27.6616C5.62427 28.5155 5.56408 30.1584 7.15907 31.0643Z" fill="white"/>
<g filter="url(#filter0_d_7099_6271)">
<mask id="path-2-inside-1_7099_6271" fill="white">
<path d="M7.04333 31.6331L16.7674 40V48C16.7674 52.9706 20.7968 57 25.7674 57L202.035 57C207.005 57 211.035 52.9706 211.035 48V11C211.035 6.02944 207.005 2 202.035 2L25.7674 2C20.7968 2 16.7674 6.02944 16.7674 11V19.5L7.15555 26.9931C5.66179 28.1575 5.60761 30.3978 7.04333 31.6331Z"/>
</mask>
<path d="M7.04333 31.6331L16.7674 40V48C16.7674 52.9706 20.7968 57 25.7674 57L202.035 57C207.005 57 211.035 52.9706 211.035 48V11C211.035 6.02944 207.005 2 202.035 2L25.7674 2C20.7968 2 16.7674 6.02944 16.7674 11V19.5L7.15555 26.9931C5.66179 28.1575 5.60761 30.3978 7.04333 31.6331Z" fill="#FFF2EA"/>
<path d="M16.7674 40H18.1674V39.3577L17.6805 38.9388L16.7674 40ZM7.04333 31.6331L6.13021 32.6944L6.13021 32.6944L7.04333 31.6331ZM7.15555 26.9931L8.0163 28.0972L8.0163 28.0972L7.15555 26.9931ZM16.7674 19.5L17.6281 20.6041L18.1674 20.1838V19.5H16.7674ZM25.7674 2L25.7674 0.6H25.7674V2ZM202.035 2L202.035 3.4H202.035V2ZM17.6805 38.9388L7.95644 30.5719L6.13021 32.6944L15.8542 41.0612L17.6805 38.9388ZM8.0163 28.0972L17.6281 20.6041L15.9066 18.3959L6.2948 25.8889L8.0163 28.0972ZM7.95644 30.5719C7.19073 29.9131 7.21963 28.7183 8.0163 28.0972L6.2948 25.8889C4.10396 27.5968 4.02449 30.8825 6.13021 32.6944L7.95644 30.5719ZM25.7674 3.4L202.035 3.4L202.035 0.600003L25.7674 0.6L25.7674 3.4ZM209.635 11V48H212.435V11H209.635ZM202.035 55.6L25.7674 55.6V58.4L202.035 58.4V55.6ZM18.1674 19.5V11H15.3674V19.5H18.1674ZM18.1674 48V40H15.3674V48H18.1674ZM25.7674 55.6C21.57 55.6 18.1674 52.1974 18.1674 48H15.3674C15.3674 53.7438 20.0236 58.4 25.7674 58.4V55.6ZM209.635 48C209.635 52.1974 206.232 55.6 202.035 55.6V58.4C207.778 58.4 212.435 53.7438 212.435 48H209.635ZM202.035 3.4C206.232 3.4 209.635 6.80264 209.635 11H212.435C212.435 5.25624 207.778 0.600003 202.035 0.600003V3.4ZM25.7674 0.6C20.0236 0.6 15.3674 5.25624 15.3674 11H18.1674C18.1674 6.80264 21.57 3.4 25.7674 3.4V0.6Z" fill="#997452" mask="url(#path-2-inside-1_7099_6271)"/>
</g>
<g filter="url(#filter1_d_7099_6271)">
<path d="M32.8836 24V13.952H34.1316V24H32.8836ZM42.968 24V19.504C42.968 18.7733 42.792 18.2187 42.44 17.84C42.0933 17.456 41.6186 17.264 41.016 17.264C40.5573 17.264 40.16 17.3893 39.824 17.64C39.488 17.8907 39.2293 18.2507 39.048 18.72C38.8666 19.184 38.776 19.7387 38.776 20.384H38.296C38.296 19.4933 38.4133 18.7333 38.648 18.104C38.8826 17.4747 39.224 16.9947 39.672 16.664C40.1253 16.328 40.6746 16.16 41.32 16.16C41.9226 16.16 42.4373 16.296 42.864 16.568C43.296 16.8347 43.6266 17.2187 43.856 17.72C44.0853 18.2213 44.2 18.816 44.2 19.504V24H42.968ZM37.528 24V16.352H38.6L38.776 18.112V24H37.528ZM53.6531 24.192C53.2371 24.192 52.8637 24.112 52.5331 23.952C52.2024 23.792 51.9411 23.552 51.7491 23.232C51.5571 22.912 51.4611 22.512 51.4611 22.032V14.224H52.6931V22C52.6931 22.7893 53.0611 23.184 53.7971 23.184C54.0157 23.184 54.2264 23.16 54.4291 23.112C54.6371 23.064 54.8691 22.992 55.1251 22.896L55.3011 23.792C55.0291 23.9093 54.7571 24.0053 54.4851 24.08C54.2184 24.1547 53.9411 24.192 53.6531 24.192ZM50.2291 17.216V16.352H55.1091V17.216H50.2291ZM62.9167 24V19.504C62.9167 18.7733 62.7407 18.2187 62.3887 17.84C62.042 17.456 61.5674 17.264 60.9647 17.264C60.506 17.264 60.1087 17.3893 59.7727 17.64C59.4367 17.8907 59.178 18.2507 58.9967 18.72C58.8154 19.184 58.7247 19.7387 58.7247 20.384H58.2447C58.2447 19.4933 58.362 18.7333 58.5967 18.104C58.8314 17.4747 59.1727 16.9947 59.6207 16.664C60.074 16.328 60.6234 16.16 61.2687 16.16C61.8714 16.16 62.386 16.296 62.8127 16.568C63.2447 16.8347 63.5754 17.2187 63.8047 17.72C64.034 18.2213 64.1487 18.816 64.1487 19.504V24H62.9167ZM57.4767 24V13.088H58.7247V24H57.4767ZM67.997 14.544C67.741 14.544 67.5383 14.472 67.389 14.328C67.2396 14.1787 67.165 13.984 67.165 13.744C67.165 13.5093 67.2396 13.3227 67.389 13.184C67.5383 13.0453 67.741 12.976 67.997 12.976C68.253 12.976 68.4556 13.0453 68.605 13.184C68.7543 13.3227 68.829 13.5093 68.829 13.744C68.829 13.984 68.7543 14.1787 68.605 14.328C68.4556 14.472 68.253 14.544 67.997 14.544ZM67.373 24V16.336H68.621V24H67.373ZM74.9706 24.192C74.2292 24.192 73.6106 24.088 73.1146 23.88C72.6186 23.6667 72.2426 23.376 71.9866 23.008C71.7306 22.6347 71.5946 22.208 71.5786 21.728H72.7786C72.8052 22.2133 72.9999 22.5787 73.3626 22.824C73.7306 23.064 74.2292 23.184 74.8586 23.184C75.1892 23.184 75.4932 23.1307 75.7706 23.024C76.0479 22.9173 76.2692 22.7707 76.4346 22.584C76.5999 22.3973 76.6826 22.1867 76.6826 21.952C76.6826 21.6533 76.5732 21.4187 76.3546 21.248C76.1359 21.0773 75.7866 20.928 75.3066 20.8L73.8186 20.32C73.1732 20.1173 72.6772 19.84 72.3306 19.488C71.9892 19.1307 71.8186 18.704 71.8186 18.208C71.8186 17.5893 72.0906 17.0933 72.6346 16.72C73.1786 16.3467 73.8932 16.16 74.7786 16.16C75.7172 16.16 76.4452 16.352 76.9626 16.736C77.4799 17.12 77.7492 17.6 77.7706 18.176H76.5386C76.4906 17.84 76.3199 17.5867 76.0266 17.416C75.7332 17.24 75.3172 17.152 74.7786 17.152C74.2612 17.152 73.8559 17.2693 73.5626 17.504C73.2746 17.7333 73.1306 17.9893 73.1306 18.272C73.1306 18.8 73.5839 19.1893 74.4906 19.44L76.0106 19.952C76.6666 20.1493 77.1679 20.408 77.5146 20.728C77.8666 21.048 78.0426 21.456 78.0426 21.952C78.0426 22.336 77.9172 22.6987 77.6666 23.04C77.4159 23.3813 77.0612 23.6587 76.6026 23.872C76.1439 24.0853 75.5999 24.192 74.9706 24.192ZM87.4937 24.192C86.7524 24.192 86.1337 24.088 85.6377 23.88C85.1417 23.6667 84.7657 23.376 84.5097 23.008C84.2537 22.6347 84.1177 22.208 84.1017 21.728H85.3017C85.3284 22.2133 85.523 22.5787 85.8857 22.824C86.2537 23.064 86.7524 23.184 87.3817 23.184C87.7124 23.184 88.0164 23.1307 88.2937 23.024C88.571 22.9173 88.7924 22.7707 88.9577 22.584C89.123 22.3973 89.2057 22.1867 89.2057 21.952C89.2057 21.6533 89.0964 21.4187 88.8777 21.248C88.659 21.0773 88.3097 20.928 87.8297 20.8L86.3417 20.32C85.6964 20.1173 85.2004 19.84 84.8537 19.488C84.5124 19.1307 84.3417 18.704 84.3417 18.208C84.3417 17.5893 84.6137 17.0933 85.1577 16.72C85.7017 16.3467 86.4164 16.16 87.3017 16.16C88.2404 16.16 88.9684 16.352 89.4857 16.736C90.003 17.12 90.2724 17.6 90.2937 18.176H89.0617C89.0137 17.84 88.843 17.5867 88.5497 17.416C88.2564 17.24 87.8404 17.152 87.3017 17.152C86.7844 17.152 86.379 17.2693 86.0857 17.504C85.7977 17.7333 85.6537 17.9893 85.6537 18.272C85.6537 18.8 86.107 19.1893 87.0137 19.44L88.5337 19.952C89.1897 20.1493 89.691 20.408 90.0377 20.728C90.3897 21.048 90.5657 21.456 90.5657 21.952C90.5657 22.336 90.4404 22.6987 90.1897 23.04C89.939 23.3813 89.5844 23.6587 89.1257 23.872C88.667 24.0853 88.123 24.192 87.4937 24.192ZM95.964 24.192C95.3026 24.192 94.7106 24.024 94.188 23.688C93.6706 23.3467 93.26 22.8747 92.956 22.272C92.6573 21.6693 92.508 20.976 92.508 20.192C92.508 19.3547 92.6573 18.6347 92.956 18.032C93.2546 17.4293 93.6626 16.968 94.18 16.648C94.7026 16.3227 95.2973 16.16 95.964 16.16C96.5453 16.16 97.0413 16.2773 97.452 16.512C97.8626 16.7467 98.1933 17.064 98.444 17.464C98.6946 17.864 98.868 18.3173 98.964 18.824C99.0653 19.3253 99.0946 19.8453 99.052 20.384H93.516V19.616H98.228L97.86 19.856C97.876 19.5413 97.8573 19.2267 97.804 18.912C97.756 18.5973 97.6626 18.3093 97.524 18.048C97.3853 17.7813 97.1906 17.568 96.94 17.408C96.6893 17.248 96.3693 17.168 95.98 17.168C95.4893 17.168 95.0786 17.2933 94.748 17.544C94.4173 17.7947 94.1693 18.1253 94.004 18.536C93.8386 18.9413 93.756 19.3813 93.756 19.856V20.368C93.756 20.9013 93.836 21.3787 93.996 21.8C94.1613 22.2213 94.4066 22.5547 94.732 22.8C95.0573 23.0453 95.468 23.168 95.964 23.168C96.46 23.168 96.868 23.048 97.188 22.808C97.508 22.568 97.7026 22.2133 97.772 21.744H99.068C98.988 22.2507 98.8066 22.688 98.524 23.056C98.2413 23.4187 97.8813 23.6987 97.444 23.896C97.0066 24.0933 96.5133 24.192 95.964 24.192ZM104.375 24.192C103.761 24.192 103.188 24.0267 102.655 23.696C102.127 23.3653 101.7 22.8987 101.375 22.296C101.049 21.6933 100.887 20.9813 100.887 20.16C100.887 19.3173 101.049 18.5973 101.375 18C101.7 17.4027 102.127 16.9467 102.655 16.632C103.188 16.3173 103.761 16.16 104.375 16.16C104.807 16.16 105.193 16.2267 105.535 16.36C105.881 16.488 106.183 16.6667 106.439 16.896C106.695 17.1253 106.905 17.3867 107.071 17.68C107.241 17.968 107.367 18.272 107.447 18.592L106.167 18.704C106.033 18.2613 105.809 17.912 105.495 17.656C105.185 17.3947 104.807 17.264 104.359 17.264C103.98 17.264 103.623 17.3733 103.287 17.592C102.956 17.8053 102.687 18.128 102.479 18.56C102.271 18.9867 102.167 19.52 102.167 20.16C102.167 20.752 102.26 21.2667 102.447 21.704C102.639 22.136 102.9 22.472 103.231 22.712C103.561 22.952 103.937 23.072 104.359 23.072C104.951 23.072 105.399 22.928 105.703 22.64C106.012 22.3467 106.167 21.9413 106.167 21.424H107.447C107.447 21.9573 107.321 22.432 107.071 22.848C106.82 23.264 106.463 23.592 105.999 23.832C105.54 24.072 104.999 24.192 104.375 24.192ZM112.449 24.192C112.033 24.192 111.659 24.112 111.329 23.952C110.998 23.792 110.737 23.552 110.545 23.232C110.353 22.912 110.257 22.512 110.257 22.032V14.224H111.489V22C111.489 22.7893 111.857 23.184 112.593 23.184C112.811 23.184 113.022 23.16 113.225 23.112C113.433 23.064 113.665 22.992 113.921 22.896L114.097 23.792C113.825 23.9093 113.553 24.0053 113.281 24.08C113.014 24.1547 112.737 24.192 112.449 24.192ZM109.025 17.216V16.352H113.905V17.216H109.025ZM116.976 14.544C116.72 14.544 116.518 14.472 116.368 14.328C116.219 14.1787 116.144 13.984 116.144 13.744C116.144 13.5093 116.219 13.3227 116.368 13.184C116.518 13.0453 116.72 12.976 116.976 12.976C117.232 12.976 117.435 13.0453 117.584 13.184C117.734 13.3227 117.808 13.5093 117.808 13.744C117.808 13.984 117.734 14.1787 117.584 14.328C117.435 14.472 117.232 14.544 116.976 14.544ZM116.352 24V16.336H117.6V24H116.352ZM123.966 24.192C123.278 24.192 122.665 24.04 122.126 23.736C121.593 23.432 121.171 22.9813 120.862 22.384C120.553 21.7867 120.398 21.0507 120.398 20.176C120.398 19.296 120.553 18.56 120.862 17.968C121.171 17.3707 121.593 16.92 122.126 16.616C122.665 16.312 123.278 16.16 123.966 16.16C124.649 16.16 125.257 16.312 125.79 16.616C126.329 16.92 126.75 17.3707 127.054 17.968C127.363 18.56 127.518 19.296 127.518 20.176C127.518 21.0507 127.363 21.7867 127.054 22.384C126.75 22.9813 126.329 23.432 125.79 23.736C125.257 24.04 124.649 24.192 123.966 24.192ZM123.934 23.104C124.43 23.104 124.851 22.9867 125.198 22.752C125.545 22.512 125.806 22.1733 125.982 21.736C126.163 21.2987 126.254 20.7787 126.254 20.176C126.254 19.264 126.065 18.5467 125.686 18.024C125.307 17.496 124.745 17.232 123.998 17.232C123.497 17.232 123.073 17.352 122.726 17.592C122.385 17.8267 122.123 18.1653 121.942 18.608C121.766 19.0453 121.678 19.568 121.678 20.176C121.678 21.0773 121.867 21.792 122.246 22.32C122.63 22.8427 123.193 23.104 123.934 23.104ZM135.548 24V19.504C135.548 18.7733 135.372 18.2187 135.02 17.84C134.673 17.456 134.199 17.264 133.596 17.264C133.137 17.264 132.74 17.3893 132.404 17.64C132.068 17.8907 131.809 18.2507 131.628 18.72C131.447 19.184 131.356 19.7387 131.356 20.384H130.876C130.876 19.4933 130.993 18.7333 131.228 18.104C131.463 17.4747 131.804 16.9947 132.252 16.664C132.705 16.328 133.255 16.16 133.9 16.16C134.503 16.16 135.017 16.296 135.444 16.568C135.876 16.8347 136.207 17.2187 136.436 17.72C136.665 18.2213 136.78 18.816 136.78 19.504V24H135.548ZM130.108 24V16.352H131.18L131.356 18.112V24H130.108ZM142.617 16.352H144.009L146.505 22.912H146.217L148.153 16.352H149.433L146.553 25.536C146.313 26.304 145.993 26.896 145.593 27.312C145.193 27.728 144.681 27.936 144.057 27.936C143.721 27.936 143.401 27.888 143.097 27.792C142.798 27.696 142.489 27.5573 142.169 27.376V26.224C142.452 26.448 142.724 26.608 142.985 26.704C143.252 26.8 143.529 26.848 143.817 26.848C144.137 26.848 144.404 26.7467 144.617 26.544C144.836 26.3413 145.017 26.08 145.161 25.76C145.305 25.4453 145.428 25.1147 145.529 24.768L145.753 24L142.617 16.352ZM154.262 24.192C153.574 24.192 152.961 24.04 152.422 23.736C151.889 23.432 151.468 22.9813 151.158 22.384C150.849 21.7867 150.694 21.0507 150.694 20.176C150.694 19.296 150.849 18.56 151.158 17.968C151.468 17.3707 151.889 16.92 152.422 16.616C152.961 16.312 153.574 16.16 154.262 16.16C154.945 16.16 155.553 16.312 156.086 16.616C156.625 16.92 157.046 17.3707 157.35 17.968C157.66 18.56 157.814 19.296 157.814 20.176C157.814 21.0507 157.66 21.7867 157.35 22.384C157.046 22.9813 156.625 23.432 156.086 23.736C155.553 24.04 154.945 24.192 154.262 24.192ZM154.23 23.104C154.726 23.104 155.148 22.9867 155.494 22.752C155.841 22.512 156.102 22.1733 156.278 21.736C156.46 21.2987 156.55 20.7787 156.55 20.176C156.55 19.264 156.361 18.5467 155.982 18.024C155.604 17.496 155.041 17.232 154.294 17.232C153.793 17.232 153.369 17.352 153.022 17.592C152.681 17.8267 152.42 18.1653 152.238 18.608C152.062 19.0453 151.974 19.568 151.974 20.176C151.974 21.0773 152.164 21.792 152.542 22.32C152.926 22.8427 153.489 23.104 154.23 23.104ZM165.604 16.336H166.852V24H165.604V16.336ZM160.18 16.336H161.428V21.104C161.428 21.744 161.583 22.2293 161.892 22.56C162.207 22.8907 162.655 23.056 163.236 23.056C163.716 23.056 164.132 22.928 164.484 22.672C164.842 22.416 165.116 22.064 165.308 21.616C165.506 21.1627 165.604 20.6453 165.604 20.064H166.068C166.068 20.9227 165.943 21.656 165.692 22.264C165.447 22.872 165.098 23.3387 164.644 23.664C164.196 23.984 163.668 24.144 163.06 24.144C162.484 24.144 161.98 24.0373 161.548 23.824C161.116 23.6107 160.78 23.288 160.54 22.856C160.3 22.4187 160.18 21.8667 160.18 21.2V16.336ZM176.897 24.192C176.283 24.192 175.71 24.0267 175.177 23.696C174.649 23.3653 174.222 22.8987 173.897 22.296C173.571 21.6933 173.409 20.9813 173.409 20.16C173.409 19.3173 173.571 18.5973 173.897 18C174.222 17.4027 174.649 16.9467 175.177 16.632C175.71 16.3173 176.283 16.16 176.897 16.16C177.329 16.16 177.715 16.2267 178.057 16.36C178.403 16.488 178.705 16.6667 178.961 16.896C179.217 17.1253 179.427 17.3867 179.593 17.68C179.763 17.968 179.889 18.272 179.969 18.592L178.689 18.704C178.555 18.2613 178.331 17.912 178.017 17.656C177.707 17.3947 177.329 17.264 176.881 17.264C176.502 17.264 176.145 17.3733 175.809 17.592C175.478 17.8053 175.209 18.128 175.001 18.56C174.793 18.9867 174.689 19.52 174.689 20.16C174.689 20.752 174.782 21.2667 174.969 21.704C175.161 22.136 175.422 22.472 175.753 22.712C176.083 22.952 176.459 23.072 176.881 23.072C177.473 23.072 177.921 22.928 178.225 22.64C178.534 22.3467 178.689 21.9413 178.689 21.424H179.969C179.969 21.9573 179.843 22.432 179.593 22.848C179.342 23.264 178.985 23.592 178.521 23.832C178.062 24.072 177.521 24.192 176.897 24.192ZM187.355 24L187.195 22.32V19.04C187.195 18.352 187.048 17.8587 186.755 17.56C186.461 17.256 186.021 17.104 185.435 17.104C185.104 17.104 184.803 17.152 184.531 17.248C184.264 17.344 184.051 17.4933 183.891 17.696C183.736 17.8933 183.659 18.1493 183.659 18.464H182.267C182.267 17.9093 182.403 17.464 182.675 17.128C182.947 16.7867 183.32 16.5413 183.795 16.392C184.275 16.2373 184.821 16.16 185.435 16.16C186.021 16.16 186.541 16.2587 186.995 16.456C187.448 16.6533 187.803 16.968 188.059 17.4C188.315 17.8267 188.443 18.384 188.443 19.072V24H187.355ZM184.747 24.192C184.117 24.192 183.597 24.08 183.187 23.856C182.776 23.632 182.469 23.3413 182.267 22.984C182.064 22.6267 181.963 22.2507 181.963 21.856C181.963 21.3387 182.091 20.9173 182.347 20.592C182.608 20.2667 182.963 20.0293 183.411 19.88C183.859 19.7253 184.363 19.648 184.923 19.648C185.323 19.648 185.723 19.688 186.123 19.768C186.528 19.848 186.923 19.9573 187.307 20.096V20.88C186.987 20.752 186.624 20.6507 186.219 20.576C185.819 20.5013 185.451 20.464 185.115 20.464C184.603 20.464 184.171 20.5707 183.819 20.784C183.467 20.992 183.291 21.3493 183.291 21.856C183.291 22.2293 183.424 22.5493 183.691 22.816C183.963 23.0827 184.395 23.216 184.987 23.216C185.403 23.216 185.776 23.12 186.107 22.928C186.443 22.7307 186.707 22.4853 186.899 22.192C187.096 21.8987 187.195 21.6053 187.195 21.312H187.499C187.499 21.824 187.387 22.2987 187.163 22.736C186.944 23.1733 186.629 23.5253 186.219 23.792C185.808 24.0587 185.317 24.192 184.747 24.192ZM197.031 24V19.504C197.031 18.7733 196.855 18.2187 196.503 17.84C196.156 17.456 195.682 17.264 195.079 17.264C194.62 17.264 194.223 17.3893 193.887 17.64C193.551 17.8907 193.292 18.2507 193.111 18.72C192.93 19.184 192.839 19.7387 192.839 20.384H192.359C192.359 19.4933 192.476 18.7333 192.711 18.104C192.946 17.4747 193.287 16.9947 193.735 16.664C194.188 16.328 194.738 16.16 195.383 16.16C195.986 16.16 196.5 16.296 196.927 16.568C197.359 16.8347 197.69 17.2187 197.919 17.72C198.148 18.2213 198.263 18.816 198.263 19.504V24H197.031ZM191.591 24V16.352H192.663L192.839 18.112V24H191.591ZM33.2996 44V35.168C33.2996 34.6613 33.3956 34.248 33.5876 33.928C33.7849 33.6027 34.0462 33.3627 34.3716 33.208C34.7022 33.0533 35.0702 32.976 35.4756 32.976C35.6942 32.976 35.9156 32.992 36.1396 33.024C36.3689 33.056 36.5956 33.104 36.8196 33.168L36.5796 34.16C36.4196 34.096 36.2596 34.048 36.0996 34.016C35.9449 33.984 35.7956 33.968 35.6516 33.968C35.4809 33.968 35.3102 34 35.1396 34.064C34.9689 34.128 34.8276 34.248 34.7156 34.424C34.6036 34.6 34.5476 34.8533 34.5476 35.184V44H33.2996ZM32.0516 37.216V36.352H36.1316V37.216H32.0516ZM39.0676 34.544C38.8116 34.544 38.6089 34.472 38.4596 34.328C38.3102 34.1787 38.2356 33.984 38.2356 33.744C38.2356 33.5093 38.3102 33.3227 38.4596 33.184C38.6089 33.0453 38.8116 32.976 39.0676 32.976C39.3236 32.976 39.5262 33.0453 39.6756 33.184C39.8249 33.3227 39.8996 33.5093 39.8996 33.744C39.8996 33.984 39.8249 34.1787 39.6756 34.328C39.5262 34.472 39.3236 34.544 39.0676 34.544ZM38.4436 44V36.336H39.6916V44H38.4436ZM48.7336 44V39.504C48.7336 38.7733 48.5576 38.2187 48.2056 37.84C47.8589 37.456 47.3842 37.264 46.7816 37.264C46.3229 37.264 45.9256 37.3893 45.5896 37.64C45.2536 37.8907 44.9949 38.2507 44.8136 38.72C44.6322 39.184 44.5416 39.7387 44.5416 40.384H44.0616C44.0616 39.4933 44.1789 38.7333 44.4136 38.104C44.6482 37.4747 44.9896 36.9947 45.4376 36.664C45.8909 36.328 46.4402 36.16 47.0856 36.16C47.6882 36.16 48.2029 36.296 48.6296 36.568C49.0616 36.8347 49.3922 37.2187 49.6216 37.72C49.8509 38.2213 49.9656 38.816 49.9656 39.504V44H48.7336ZM43.2936 44V36.352H44.3656L44.5416 38.112V44H43.2936ZM55.8458 44.192C55.2272 44.192 54.6592 44.0267 54.1418 43.696C53.6245 43.36 53.2112 42.8907 52.9018 42.288C52.5925 41.68 52.4378 40.9653 52.4378 40.144C52.4378 39.328 52.5898 38.6213 52.8938 38.024C53.1978 37.4267 53.6005 36.968 54.1018 36.648C54.6085 36.3227 55.1632 36.16 55.7658 36.16C56.3258 36.16 56.8165 36.296 57.2378 36.568C57.6645 36.84 57.9952 37.232 58.2298 37.744C58.4645 38.256 58.5818 38.8747 58.5818 39.6H58.1018C58.1018 39.0933 58.0005 38.6667 57.7978 38.32C57.6005 37.9733 57.3418 37.712 57.0218 37.536C56.7018 37.3547 56.3578 37.264 55.9898 37.264C55.5738 37.264 55.1925 37.3813 54.8458 37.616C54.5045 37.8453 54.2298 38.176 54.0218 38.608C53.8192 39.0347 53.7178 39.5467 53.7178 40.144C53.7178 40.752 53.8192 41.2747 54.0218 41.712C54.2298 42.1493 54.5045 42.4853 54.8458 42.72C55.1925 42.9547 55.5738 43.072 55.9898 43.072C56.3365 43.072 56.6698 42.9813 56.9898 42.8C57.3152 42.6187 57.5818 42.3547 57.7898 42.008C57.9978 41.656 58.1018 41.232 58.1018 40.736H58.5818C58.5818 41.4773 58.4592 42.1067 58.2138 42.624C57.9738 43.136 57.6458 43.5253 57.2298 43.792C56.8192 44.0587 56.3578 44.192 55.8458 44.192ZM58.3098 44L58.1018 42.208V33.088H59.3498V44H58.3098ZM66.1191 44V42.512C66.1191 41.9307 66.2124 41.4453 66.3991 41.056C66.5911 40.6667 66.8577 40.344 67.1991 40.088C67.5457 39.832 67.9537 39.6107 68.4231 39.424L70.4071 38.64C70.9191 38.432 71.3031 38.1653 71.5591 37.84C71.8151 37.5147 71.9431 37.1093 71.9431 36.624C71.9431 36.112 71.7644 35.6933 71.4071 35.368C71.0551 35.0427 70.5617 34.88 69.9271 34.88C69.2977 34.88 68.7804 35.016 68.3751 35.288C67.9751 35.5547 67.7457 35.9573 67.6871 36.496H66.2951C66.3324 35.9147 66.5031 35.4213 66.8071 35.016C67.1164 34.6107 67.5351 34.304 68.0631 34.096C68.5911 33.8827 69.2071 33.776 69.9111 33.776C70.5564 33.776 71.1351 33.9013 71.6471 34.152C72.1591 34.4027 72.5617 34.7493 72.8551 35.192C73.1537 35.6293 73.3031 36.1333 73.3031 36.704C73.3031 37.2213 73.2071 37.672 73.0151 38.056C72.8231 38.44 72.5484 38.7707 72.1911 39.048C71.8391 39.3253 71.4204 39.5627 70.9351 39.76L68.9031 40.576C68.3911 40.7733 68.0071 41.0107 67.7511 41.288C67.4951 41.5653 67.3671 41.9253 67.3671 42.368V42.848H73.2071V44H66.1191ZM79.2727 44.192C78.7714 44.192 78.286 44.1227 77.8167 43.984C77.3527 43.84 76.934 43.632 76.5607 43.36C76.1927 43.0827 75.902 42.7413 75.6887 42.336C75.4754 41.9307 75.3687 41.4613 75.3687 40.928H76.6487C76.6594 41.3867 76.782 41.7733 77.0167 42.088C77.2514 42.4027 77.5634 42.64 77.9527 42.8C78.3474 42.96 78.7874 43.04 79.2727 43.04C80.0194 43.04 80.598 42.8587 81.0087 42.496C81.4194 42.1333 81.6247 41.68 81.6247 41.136C81.6247 40.7893 81.5394 40.4827 81.3687 40.216C81.198 39.9493 80.926 39.7413 80.5527 39.592C80.1847 39.4373 79.6994 39.36 79.0967 39.36H77.9607V38.368H78.7287C79.5074 38.368 80.1207 38.2133 80.5687 37.904C81.0167 37.5947 81.2407 37.168 81.2407 36.624C81.2407 36.144 81.0594 35.7387 80.6967 35.408C80.334 35.0773 79.8167 34.912 79.1447 34.912C78.6274 34.912 78.166 35.0187 77.7607 35.232C77.3554 35.44 77.0807 35.824 76.9367 36.384H75.6567C75.742 35.76 75.9447 35.256 76.2647 34.872C76.5847 34.488 76.99 34.2107 77.4807 34.04C77.9714 33.864 78.5154 33.776 79.1127 33.776C79.7794 33.776 80.374 33.8933 80.8967 34.128C81.4194 34.3627 81.83 34.6853 82.1287 35.096C82.4327 35.5067 82.5847 35.9787 82.5847 36.512C82.5847 37.04 82.4327 37.4933 82.1287 37.872C81.83 38.2453 81.3954 38.5333 80.8247 38.736C81.4594 38.9173 81.9767 39.216 82.3767 39.632C82.782 40.048 82.9847 40.5813 82.9847 41.232C82.9847 41.808 82.8327 42.32 82.5287 42.768C82.23 43.2107 81.8034 43.56 81.2487 43.816C80.694 44.0667 80.0354 44.192 79.2727 44.192ZM89.7067 44V36.336H90.9547V44H89.7067ZM90.5707 40.544C90.5707 39.5733 90.664 38.768 90.8507 38.128C91.0374 37.4827 91.3094 37.0027 91.6667 36.688C92.0294 36.368 92.4694 36.208 92.9867 36.208C93.1574 36.208 93.312 36.2213 93.4507 36.248C93.5947 36.2693 93.7387 36.304 93.8827 36.352L93.8027 37.584C93.6534 37.536 93.4907 37.496 93.3147 37.464C93.1387 37.4267 92.9814 37.408 92.8427 37.408C92.3894 37.408 92.024 37.5387 91.7467 37.8C91.4694 38.056 91.2667 38.4187 91.1387 38.888C91.016 39.3573 90.9547 39.9093 90.9547 40.544H90.5707ZM98.304 44.192C97.6426 44.192 97.0506 44.024 96.528 43.688C96.0106 43.3467 95.6 42.8747 95.296 42.272C94.9973 41.6693 94.848 40.976 94.848 40.192C94.848 39.3547 94.9973 38.6347 95.296 38.032C95.5946 37.4293 96.0026 36.968 96.52 36.648C97.0426 36.3227 97.6373 36.16 98.304 36.16C98.8853 36.16 99.3813 36.2773 99.792 36.512C100.203 36.7467 100.533 37.064 100.784 37.464C101.035 37.864 101.208 38.3173 101.304 38.824C101.405 39.3253 101.435 39.8453 101.392 40.384H95.856V39.616H100.568L100.2 39.856C100.216 39.5413 100.197 39.2267 100.144 38.912C100.096 38.5973 100.003 38.3093 99.864 38.048C99.7253 37.7813 99.5306 37.568 99.28 37.408C99.0293 37.248 98.7093 37.168 98.32 37.168C97.8293 37.168 97.4186 37.2933 97.088 37.544C96.7573 37.7947 96.5093 38.1253 96.344 38.536C96.1786 38.9413 96.096 39.3813 96.096 39.856V40.368C96.096 40.9013 96.176 41.3787 96.336 41.8C96.5013 42.2213 96.7466 42.5547 97.072 42.8C97.3973 43.0453 97.808 43.168 98.304 43.168C98.8 43.168 99.208 43.048 99.528 42.808C99.848 42.568 100.043 42.2133 100.112 41.744H101.408C101.328 42.2507 101.147 42.688 100.864 43.056C100.581 43.4187 100.221 43.6987 99.784 43.896C99.3466 44.0933 98.8533 44.192 98.304 44.192ZM106.715 44.192C106.101 44.192 105.528 44.0267 104.995 43.696C104.467 43.3653 104.04 42.8987 103.715 42.296C103.389 41.6933 103.227 40.9813 103.227 40.16C103.227 39.3173 103.389 38.5973 103.715 38C104.04 37.4027 104.467 36.9467 104.995 36.632C105.528 36.3173 106.101 36.16 106.715 36.16C107.147 36.16 107.533 36.2267 107.875 36.36C108.221 36.488 108.523 36.6667 108.779 36.896C109.035 37.1253 109.245 37.3867 109.411 37.68C109.581 37.968 109.707 38.272 109.787 38.592L108.507 38.704C108.373 38.2613 108.149 37.912 107.835 37.656C107.525 37.3947 107.147 37.264 106.699 37.264C106.32 37.264 105.963 37.3733 105.627 37.592C105.296 37.8053 105.027 38.128 104.819 38.56C104.611 38.9867 104.507 39.52 104.507 40.16C104.507 40.752 104.6 41.2667 104.787 41.704C104.979 42.136 105.24 42.472 105.571 42.712C105.901 42.952 106.277 43.072 106.699 43.072C107.291 43.072 107.739 42.928 108.043 42.64C108.352 42.3467 108.507 41.9413 108.507 41.424H109.787C109.787 41.9573 109.661 42.432 109.411 42.848C109.16 43.264 108.803 43.592 108.339 43.832C107.88 44.072 107.339 44.192 106.715 44.192ZM113.141 34.544C112.885 34.544 112.682 34.472 112.533 34.328C112.383 34.1787 112.309 33.984 112.309 33.744C112.309 33.5093 112.383 33.3227 112.533 33.184C112.682 33.0453 112.885 32.976 113.141 32.976C113.397 32.976 113.599 33.0453 113.749 33.184C113.898 33.3227 113.973 33.5093 113.973 33.744C113.973 33.984 113.898 34.1787 113.749 34.328C113.599 34.472 113.397 34.544 113.141 34.544ZM112.517 44V36.336H113.765V44H112.517ZM120.834 44.192C120.274 44.192 119.786 44.064 119.37 43.808C118.96 43.552 118.642 43.1787 118.418 42.688C118.194 42.192 118.082 41.5893 118.082 40.88H118.61C118.61 41.3547 118.709 41.7547 118.906 42.08C119.104 42.4053 119.36 42.6533 119.674 42.824C119.994 42.9893 120.333 43.072 120.69 43.072C121.074 43.072 121.442 42.9627 121.794 42.744C122.146 42.52 122.434 42.192 122.658 41.76C122.882 41.328 122.994 40.7947 122.994 40.16C122.994 39.552 122.89 39.032 122.682 38.6C122.48 38.168 122.205 37.8373 121.858 37.608C121.512 37.3787 121.128 37.264 120.706 37.264C120.344 37.264 120.002 37.352 119.682 37.528C119.362 37.704 119.104 37.9627 118.906 38.304C118.709 38.64 118.61 39.056 118.61 39.552H118.082C118.082 38.8107 118.205 38.1893 118.45 37.688C118.696 37.1813 119.029 36.8 119.45 36.544C119.872 36.288 120.344 36.16 120.866 36.16C121.464 36.16 122.021 36.32 122.538 36.64C123.056 36.96 123.474 37.4187 123.794 38.016C124.114 38.6133 124.274 39.328 124.274 40.16C124.274 41.0027 124.112 41.7253 123.786 42.328C123.466 42.9307 123.045 43.392 122.522 43.712C122 44.032 121.437 44.192 120.834 44.192ZM117.362 47.76V36.352H118.402L118.61 38.144V47.76H117.362ZM129.538 44.192C128.876 44.192 128.284 44.024 127.762 43.688C127.244 43.3467 126.834 42.8747 126.53 42.272C126.231 41.6693 126.082 40.976 126.082 40.192C126.082 39.3547 126.231 38.6347 126.53 38.032C126.828 37.4293 127.236 36.968 127.754 36.648C128.276 36.3227 128.871 36.16 129.538 36.16C130.119 36.16 130.615 36.2773 131.026 36.512C131.436 36.7467 131.767 37.064 132.018 37.464C132.268 37.864 132.442 38.3173 132.538 38.824C132.639 39.3253 132.668 39.8453 132.626 40.384H127.09V39.616H131.802L131.434 39.856C131.45 39.5413 131.431 39.2267 131.378 38.912C131.33 38.5973 131.236 38.3093 131.098 38.048C130.959 37.7813 130.764 37.568 130.514 37.408C130.263 37.248 129.943 37.168 129.554 37.168C129.063 37.168 128.652 37.2933 128.322 37.544C127.991 37.7947 127.743 38.1253 127.578 38.536C127.412 38.9413 127.33 39.3813 127.33 39.856V40.368C127.33 40.9013 127.41 41.3787 127.57 41.8C127.735 42.2213 127.98 42.5547 128.306 42.8C128.631 43.0453 129.042 43.168 129.538 43.168C130.034 43.168 130.442 43.048 130.762 42.808C131.082 42.568 131.276 42.2133 131.346 41.744H132.642C132.562 42.2507 132.38 42.688 132.098 43.056C131.815 43.4187 131.455 43.6987 131.018 43.896C130.58 44.0933 130.087 44.192 129.538 44.192ZM138.012 44.192C137.271 44.192 136.652 44.088 136.156 43.88C135.66 43.6667 135.284 43.376 135.028 43.008C134.772 42.6347 134.636 42.208 134.62 41.728H135.82C135.847 42.2133 136.042 42.5787 136.404 42.824C136.772 43.064 137.271 43.184 137.9 43.184C138.231 43.184 138.535 43.1307 138.812 43.024C139.09 42.9173 139.311 42.7707 139.476 42.584C139.642 42.3973 139.724 42.1867 139.724 41.952C139.724 41.6533 139.615 41.4187 139.396 41.248C139.178 41.0773 138.828 40.928 138.348 40.8L136.86 40.32C136.215 40.1173 135.719 39.84 135.372 39.488C135.031 39.1307 134.86 38.704 134.86 38.208C134.86 37.5893 135.132 37.0933 135.676 36.72C136.22 36.3467 136.935 36.16 137.82 36.16C138.759 36.16 139.487 36.352 140.004 36.736C140.522 37.12 140.791 37.6 140.812 38.176H139.58C139.532 37.84 139.362 37.5867 139.068 37.416C138.775 37.24 138.359 37.152 137.82 37.152C137.303 37.152 136.898 37.2693 136.604 37.504C136.316 37.7333 136.172 37.9893 136.172 38.272C136.172 38.8 136.626 39.1893 137.532 39.44L139.052 39.952C139.708 40.1493 140.21 40.408 140.556 40.728C140.908 41.048 141.084 41.456 141.084 41.952C141.084 42.336 140.959 42.6987 140.708 43.04C140.458 43.3813 140.103 43.6587 139.644 43.872C139.186 44.0853 138.642 44.192 138.012 44.192ZM147.784 45.616V32.32H150.936V33.424H149.032V44.512H150.936V45.616H147.784ZM151.87 43.256C151.87 43.0053 151.958 42.7893 152.134 42.608C152.31 42.4267 152.531 42.336 152.798 42.336C153.065 42.336 153.291 42.4267 153.478 42.608C153.665 42.7893 153.758 43.0053 153.758 43.256C153.758 43.5067 153.665 43.7173 153.478 43.888C153.291 44.0587 153.065 44.144 152.798 44.144C152.531 44.144 152.31 44.0587 152.134 43.888C151.958 43.712 151.87 43.5013 151.87 43.256ZM154.889 43.256C154.889 43.0053 154.977 42.7893 155.153 42.608C155.329 42.4267 155.551 42.336 155.817 42.336C156.084 42.336 156.311 42.4267 156.497 42.608C156.684 42.7893 156.777 43.0053 156.777 43.256C156.777 43.5067 156.684 43.7173 156.497 43.888C156.311 44.0587 156.084 44.144 155.817 44.144C155.551 44.144 155.329 44.0587 155.153 43.888C154.977 43.712 154.889 43.5013 154.889 43.256ZM157.909 43.256C157.909 43.0053 157.997 42.7893 158.173 42.608C158.349 42.4267 158.57 42.336 158.837 42.336C159.103 42.336 159.33 42.4267 159.517 42.608C159.703 42.7893 159.797 43.0053 159.797 43.256C159.797 43.5067 159.703 43.7173 159.517 43.888C159.33 44.0587 159.103 44.144 158.837 44.144C158.57 44.144 158.349 44.0587 158.173 43.888C157.997 43.712 157.909 43.5013 157.909 43.256ZM163.376 45.616V32.32H160.224V33.424H162.128V44.512H160.224V45.616H163.376Z" fill="#997452"/>
</g>
<defs>
<filter id="filter0_d_7099_6271" x="0" y="0" width="217.035" height="67" filterUnits="userSpaceOnUse" color-interpolation-filters="sRGB">
<feFlood flood-opacity="0" result="BackgroundImageFix"/>
<feColorMatrix in="SourceAlpha" type="matrix" values="0 0 0 0 0 0 0 0 0 0 0 0 0 0 0 0 0 0 127 0" result="hardAlpha"/>
<feOffset dy="4"/>
<feGaussianBlur stdDeviation="3"/>
<feComposite in2="hardAlpha" operator="out"/>
<feColorMatrix type="matrix" values="0 0 0 0 0 0 0 0 0 0 0 0 0 0 0 0 0 0 0.1 0"/>
<feBlend mode="normal" in2="BackgroundImageFix" result="effect1_dropShadow_7099_6271"/>
<feBlend mode="normal" in="SourceGraphic" in2="effect1_dropShadow_7099_6271" result="shape"/>
</filter>
<filter id="filter1_d_7099_6271" x="26.0518" y="10.9756" width="178.211" height="46.7842" filterUnits="userSpaceOnUse" color-interpolation-filters="sRGB">
<feFlood flood-opacity="0" result="BackgroundImageFix"/>
<feColorMatrix in="SourceAlpha" type="matrix" values="0 0 0 0 0 0 0 0 0 0 0 0 0 0 0 0 0 0 127 0" result="hardAlpha"/>
<feOffset dy="4"/>
<feGaussianBlur stdDeviation="3"/>
<feComposite in2="hardAlpha" operator="out"/>
<feColorMatrix type="matrix" values="0 0 0 0 0 0 0 0 0 0 0 0 0 0 0 0 0 0 0.05 0"/>
<feBlend mode="normal" in2="BackgroundImageFix" result="effect1_dropShadow_7099_6271"/>
<feBlend mode="normal" in="SourceGraphic" in2="effect1_dropShadow_7099_6271" result="shape"/>
</filter>
</defs>
</svg>
