<svg width="262" height="109" viewBox="0 0 262 109" fill="none" xmlns="http://www.w3.org/2000/svg">
<g filter="url(#filter0_d_7049_5827)">
<mask id="path-1-inside-1_7049_5827" fill="white">
<path d="M7.04333 53.6331L16.7674 62L16.7674 90C16.7674 94.9706 20.7968 99 25.7674 99H246.767C251.738 99 255.767 94.9706 255.767 90V11C255.767 6.02944 251.738 2 246.767 2H25.7674C20.7968 2 16.7674 6.02944 16.7674 11L16.7674 41.5L7.15555 48.9931C5.66179 50.1575 5.60761 52.3978 7.04333 53.6331Z"/>
</mask>
<path d="M7.04333 53.6331L16.7674 62L16.7674 90C16.7674 94.9706 20.7968 99 25.7674 99H246.767C251.738 99 255.767 94.9706 255.767 90V11C255.767 6.02944 251.738 2 246.767 2H25.7674C20.7968 2 16.7674 6.02944 16.7674 11L16.7674 41.5L7.15555 48.9931C5.66179 50.1575 5.60761 52.3978 7.04333 53.6331Z" fill="#F1F3FF"/>
<path d="M16.7674 62H18.1674V61.3577L17.6805 60.9388L16.7674 62ZM7.04333 53.6331L6.13021 54.6944H6.13021L7.04333 53.6331ZM7.15555 48.9931L6.2948 47.8889H6.2948L7.15555 48.9931ZM16.7674 41.5L17.6281 42.6041L18.1674 42.1838V41.5H16.7674ZM16.7674 11H15.3674H16.7674ZM16.7674 90H15.3674H16.7674ZM17.6805 60.9388L7.95644 52.5719L6.13021 54.6944L15.8542 63.0612L17.6805 60.9388ZM8.0163 50.0972L17.6281 42.6041L15.9066 40.3959L6.2948 47.8889L8.0163 50.0972ZM7.95644 52.5719C7.19073 51.9131 7.21963 50.7183 8.0163 50.0972L6.2948 47.8889C4.10396 49.5968 4.02449 52.8825 6.13021 54.6944L7.95644 52.5719ZM25.7674 3.4H246.767V0.6H25.7674V3.4ZM254.367 11V90H257.167V11H254.367ZM246.767 97.6H25.7674V100.4H246.767V97.6ZM18.1674 41.5L18.1674 11H15.3674L15.3674 41.5H18.1674ZM18.1674 90L18.1674 62H15.3674L15.3674 90H18.1674ZM25.7674 97.6C21.57 97.6 18.1674 94.1974 18.1674 90H15.3674C15.3674 95.7438 20.0236 100.4 25.7674 100.4V97.6ZM254.367 90C254.367 94.1974 250.965 97.6 246.767 97.6V100.4C252.511 100.4 257.167 95.7438 257.167 90H254.367ZM246.767 3.4C250.965 3.4 254.367 6.80264 254.367 11H257.167C257.167 5.25624 252.511 0.6 246.767 0.6V3.4ZM25.7674 0.6C20.0236 0.6 15.3674 5.25624 15.3674 11H18.1674C18.1674 6.80264 21.57 3.4 25.7674 3.4V0.6Z" fill="#4A5DC8" mask="url(#path-1-inside-1_7049_5827)"/>
<path d="M37.168 25.192C36.336 25.192 35.592 25 34.936 24.616C34.28 24.232 33.7627 23.656 33.384 22.888C33.0053 22.1147 32.816 21.1493 32.816 19.992C32.816 18.8187 33.0053 17.848 33.384 17.08C33.7627 16.3067 34.28 15.7307 34.936 15.352C35.592 14.968 36.336 14.776 37.168 14.776C38 14.776 38.744 14.968 39.4 15.352C40.056 15.736 40.5733 16.3147 40.952 17.088C41.3307 17.8613 41.52 18.8293 41.52 19.992C41.52 21.16 41.3307 22.1307 40.952 22.904C40.5733 23.672 40.056 24.2453 39.4 24.624C38.744 25.0027 38 25.192 37.168 25.192ZM37.168 24.04C38.112 24.04 38.856 23.696 39.4 23.008C39.9493 22.32 40.224 21.3093 40.224 19.976C40.224 18.6693 39.9493 17.664 39.4 16.96C38.856 16.2507 38.112 15.896 37.168 15.896C36.2347 15.896 35.4907 16.2507 34.936 16.96C34.3867 17.6693 34.112 18.68 34.112 19.992C34.112 21.32 34.3867 22.328 34.936 23.016C35.4907 23.6987 36.2347 24.04 37.168 24.04ZM49.8801 14.952H51.6081L45.1921 21.56V19.8L49.8801 14.952ZM47.0001 19.192L51.8801 25H50.2481L46.1041 20.008L47.0001 19.192ZM44.1041 14.952H45.3681V25H44.1041V14.952ZM54.1109 22.184L53.9509 14.984H55.2789L55.1189 22.184H54.1109ZM54.6149 25.144C54.3429 25.144 54.1189 25.0587 53.9429 24.888C53.7669 24.7173 53.6789 24.504 53.6789 24.248C53.6789 23.9973 53.7669 23.784 53.9429 23.608C54.1189 23.4267 54.3429 23.336 54.6149 23.336C54.8815 23.336 55.1055 23.4267 55.2869 23.608C55.4735 23.784 55.5669 23.9973 55.5669 24.248C55.5669 24.504 55.4735 24.7173 55.2869 24.888C55.1055 25.0587 54.8815 25.144 54.6149 25.144ZM62.5372 25V14.952H63.7852V25H62.5372ZM73.8265 25.192C73.2132 25.192 72.6398 25.0267 72.1065 24.696C71.5785 24.3653 71.1518 23.8987 70.8265 23.296C70.5012 22.6933 70.3385 21.9813 70.3385 21.16C70.3385 20.3173 70.5012 19.5973 70.8265 19C71.1518 18.4027 71.5785 17.9467 72.1065 17.632C72.6398 17.3173 73.2132 17.16 73.8265 17.16C74.2585 17.16 74.6452 17.2267 74.9865 17.36C75.3332 17.488 75.6345 17.6667 75.8905 17.896C76.1465 18.1253 76.3572 18.3867 76.5225 18.68C76.6932 18.968 76.8185 19.272 76.8985 19.592L75.6185 19.704C75.4852 19.2613 75.2612 18.912 74.9465 18.656C74.6372 18.3947 74.2585 18.264 73.8105 18.264C73.4318 18.264 73.0745 18.3733 72.7385 18.592C72.4078 18.8053 72.1385 19.128 71.9305 19.56C71.7225 19.9867 71.6185 20.52 71.6185 21.16C71.6185 21.752 71.7118 22.2667 71.8985 22.704C72.0905 23.136 72.3518 23.472 72.6825 23.712C73.0132 23.952 73.3892 24.072 73.8105 24.072C74.4025 24.072 74.8505 23.928 75.1545 23.64C75.4638 23.3467 75.6185 22.9413 75.6185 22.424H76.8985C76.8985 22.9573 76.7732 23.432 76.5225 23.848C76.2718 24.264 75.9145 24.592 75.4505 24.832C74.9918 25.072 74.4505 25.192 73.8265 25.192ZM84.2845 25L84.1245 23.32V20.04C84.1245 19.352 83.9778 18.8587 83.6845 18.56C83.3912 18.256 82.9512 18.104 82.3645 18.104C82.0338 18.104 81.7325 18.152 81.4605 18.248C81.1938 18.344 80.9805 18.4933 80.8205 18.696C80.6658 18.8933 80.5885 19.1493 80.5885 19.464H79.1965C79.1965 18.9093 79.3325 18.464 79.6045 18.128C79.8765 17.7867 80.2498 17.5413 80.7245 17.392C81.2045 17.2373 81.7512 17.16 82.3645 17.16C82.9512 17.16 83.4712 17.2587 83.9245 17.456C84.3778 17.6533 84.7325 17.968 84.9885 18.4C85.2445 18.8267 85.3725 19.384 85.3725 20.072V25H84.2845ZM81.6765 25.192C81.0472 25.192 80.5272 25.08 80.1165 24.856C79.7058 24.632 79.3992 24.3413 79.1965 23.984C78.9938 23.6267 78.8925 23.2507 78.8925 22.856C78.8925 22.3387 79.0205 21.9173 79.2765 21.592C79.5378 21.2667 79.8925 21.0293 80.3405 20.88C80.7885 20.7253 81.2925 20.648 81.8525 20.648C82.2525 20.648 82.6525 20.688 83.0525 20.768C83.4578 20.848 83.8525 20.9573 84.2365 21.096V21.88C83.9165 21.752 83.5538 21.6507 83.1485 21.576C82.7485 21.5013 82.3805 21.464 82.0445 21.464C81.5325 21.464 81.1005 21.5707 80.7485 21.784C80.3965 21.992 80.2205 22.3493 80.2205 22.856C80.2205 23.2293 80.3538 23.5493 80.6205 23.816C80.8925 24.0827 81.3245 24.216 81.9165 24.216C82.3325 24.216 82.7058 24.12 83.0365 23.928C83.3725 23.7307 83.6365 23.4853 83.8285 23.192C84.0258 22.8987 84.1245 22.6053 84.1245 22.312H84.4285C84.4285 22.824 84.3165 23.2987 84.0925 23.736C83.8738 24.1733 83.5592 24.5253 83.1485 24.792C82.7378 25.0587 82.2472 25.192 81.6765 25.192ZM93.961 25V20.504C93.961 19.7733 93.785 19.2187 93.433 18.84C93.0863 18.456 92.6117 18.264 92.009 18.264C91.5503 18.264 91.153 18.3893 90.817 18.64C90.481 18.8907 90.2223 19.2507 90.041 19.72C89.8597 20.184 89.769 20.7387 89.769 21.384H89.289C89.289 20.4933 89.4063 19.7333 89.641 19.104C89.8757 18.4747 90.217 17.9947 90.665 17.664C91.1183 17.328 91.6677 17.16 92.313 17.16C92.9157 17.16 93.4303 17.296 93.857 17.568C94.289 17.8347 94.6197 18.2187 94.849 18.72C95.0783 19.2213 95.193 19.816 95.193 20.504V25H93.961ZM88.521 25V17.352H89.593L89.769 19.112V25H88.521ZM107.734 25V20.504C107.734 19.7733 107.558 19.2187 107.206 18.84C106.859 18.456 106.385 18.264 105.782 18.264C105.323 18.264 104.926 18.3893 104.59 18.64C104.254 18.8907 103.995 19.2507 103.814 19.72C103.633 20.184 103.542 20.7387 103.542 21.384H103.062C103.062 20.4933 103.179 19.7333 103.414 19.104C103.649 18.4747 103.99 17.9947 104.438 17.664C104.891 17.328 105.441 17.16 106.086 17.16C106.689 17.16 107.203 17.296 107.63 17.568C108.062 17.8347 108.393 18.2187 108.622 18.72C108.851 19.2213 108.966 19.816 108.966 20.504V25H107.734ZM102.294 25V17.352H103.366L103.542 19.112V25H102.294ZM116.846 25L116.686 23.32V20.04C116.686 19.352 116.54 18.8587 116.246 18.56C115.953 18.256 115.513 18.104 114.926 18.104C114.596 18.104 114.294 18.152 114.022 18.248C113.756 18.344 113.542 18.4933 113.382 18.696C113.228 18.8933 113.15 19.1493 113.15 19.464H111.758C111.758 18.9093 111.894 18.464 112.166 18.128C112.438 17.7867 112.812 17.5413 113.286 17.392C113.766 17.2373 114.313 17.16 114.926 17.16C115.513 17.16 116.033 17.2587 116.486 17.456C116.94 17.6533 117.294 17.968 117.55 18.4C117.806 18.8267 117.934 19.384 117.934 20.072V25H116.846ZM114.238 25.192C113.609 25.192 113.089 25.08 112.678 24.856C112.268 24.632 111.961 24.3413 111.758 23.984C111.556 23.6267 111.454 23.2507 111.454 22.856C111.454 22.3387 111.582 21.9173 111.838 21.592C112.1 21.2667 112.454 21.0293 112.902 20.88C113.35 20.7253 113.854 20.648 114.414 20.648C114.814 20.648 115.214 20.688 115.614 20.768C116.02 20.848 116.414 20.9573 116.798 21.096V21.88C116.478 21.752 116.116 21.6507 115.71 21.576C115.31 21.5013 114.942 21.464 114.606 21.464C114.094 21.464 113.662 21.5707 113.31 21.784C112.958 21.992 112.782 22.3493 112.782 22.856C112.782 23.2293 112.916 23.5493 113.182 23.816C113.454 24.0827 113.886 24.216 114.478 24.216C114.894 24.216 115.268 24.12 115.598 23.928C115.934 23.7307 116.198 23.4853 116.39 23.192C116.588 22.8987 116.686 22.6053 116.686 22.312H116.99C116.99 22.824 116.878 23.2987 116.654 23.736C116.436 24.1733 116.121 24.5253 115.71 24.792C115.3 25.0587 114.809 25.192 114.238 25.192ZM119.755 17.352H121.179L123.579 23.928H123.403L125.803 17.352H127.227L124.171 25H122.811L119.755 17.352ZM129.994 15.544C129.738 15.544 129.535 15.472 129.386 15.328C129.236 15.1787 129.162 14.984 129.162 14.744C129.162 14.5093 129.236 14.3227 129.386 14.184C129.535 14.0453 129.738 13.976 129.994 13.976C130.25 13.976 130.452 14.0453 130.602 14.184C130.751 14.3227 130.826 14.5093 130.826 14.744C130.826 14.984 130.751 15.1787 130.602 15.328C130.452 15.472 130.25 15.544 129.994 15.544ZM129.37 25V17.336H130.618V25H129.37ZM136.919 28.936C136.135 28.936 135.455 28.824 134.879 28.6C134.303 28.3813 133.855 28.0853 133.535 27.712C133.221 27.344 133.063 26.936 133.063 26.488C133.063 25.896 133.279 25.4427 133.711 25.128C134.149 24.8187 134.711 24.664 135.399 24.664L136.087 25.096C135.511 25.096 135.066 25.216 134.751 25.456C134.437 25.696 134.279 26.024 134.279 26.44C134.279 26.856 134.503 27.208 134.951 27.496C135.399 27.784 136.055 27.928 136.919 27.928C137.559 27.928 138.119 27.8347 138.599 27.648C139.085 27.4667 139.461 27.2267 139.727 26.928C139.999 26.6347 140.135 26.3173 140.135 25.976C140.135 25.736 140.047 25.528 139.871 25.352C139.695 25.1813 139.426 25.096 139.063 25.096H136.087C135.57 25.096 135.122 25.0187 134.743 24.864C134.37 24.704 134.082 24.496 133.879 24.24C133.677 23.984 133.575 23.704 133.575 23.4C133.575 23.08 133.666 22.808 133.847 22.584C134.029 22.36 134.263 22.1893 134.551 22.072C134.845 21.9547 135.159 21.896 135.495 21.896L135.735 22.36C135.575 22.36 135.413 22.3973 135.247 22.472C135.087 22.5413 134.951 22.648 134.839 22.792C134.733 22.9307 134.679 23.1067 134.679 23.32C134.679 23.5653 134.781 23.7707 134.983 23.936C135.186 24.1013 135.554 24.184 136.087 24.184H139.063C139.783 24.184 140.349 24.336 140.759 24.64C141.175 24.944 141.383 25.368 141.383 25.912C141.383 26.4133 141.205 26.8933 140.847 27.352C140.49 27.816 139.978 28.1947 139.311 28.488C138.645 28.7867 137.847 28.936 136.919 28.936ZM137.143 22.76C136.557 22.76 136.026 22.6427 135.551 22.408C135.082 22.1733 134.709 21.8453 134.431 21.424C134.159 21.0027 134.023 20.5147 134.023 19.96C134.023 19.4 134.159 18.9093 134.431 18.488C134.709 18.0667 135.082 17.7413 135.551 17.512C136.026 17.2773 136.557 17.16 137.143 17.16C137.714 17.16 138.231 17.2773 138.695 17.512C139.165 17.7413 139.538 18.0667 139.815 18.488C140.093 18.9093 140.231 19.4 140.231 19.96C140.231 20.5147 140.093 21.0027 139.815 21.424C139.538 21.8453 139.165 22.1733 138.695 22.408C138.231 22.6427 137.714 22.76 137.143 22.76ZM137.143 21.864C137.73 21.864 138.186 21.6827 138.511 21.32C138.837 20.9573 138.999 20.504 138.999 19.96C138.999 19.4 138.837 18.9467 138.511 18.6C138.186 18.248 137.73 18.072 137.143 18.072C136.562 18.072 136.103 18.248 135.767 18.6C135.437 18.9467 135.271 19.4 135.271 19.96C135.271 20.504 135.437 20.9573 135.767 21.32C136.103 21.6827 136.562 21.864 137.143 21.864ZM139.655 18.376L139.063 18.136C139.063 17.688 139.151 17.296 139.327 16.96C139.503 16.6187 139.754 16.3547 140.079 16.168C140.405 15.976 140.791 15.88 141.239 15.88L141.143 17.112C140.663 17.112 140.295 17.216 140.039 17.424C139.783 17.6267 139.655 17.944 139.655 18.376ZM148.143 25L147.983 23.32V20.04C147.983 19.352 147.836 18.8587 147.543 18.56C147.249 18.256 146.809 18.104 146.223 18.104C145.892 18.104 145.591 18.152 145.319 18.248C145.052 18.344 144.839 18.4933 144.679 18.696C144.524 18.8933 144.447 19.1493 144.447 19.464H143.055C143.055 18.9093 143.191 18.464 143.463 18.128C143.735 17.7867 144.108 17.5413 144.583 17.392C145.063 17.2373 145.609 17.16 146.223 17.16C146.809 17.16 147.329 17.2587 147.783 17.456C148.236 17.6533 148.591 17.968 148.847 18.4C149.103 18.8267 149.231 19.384 149.231 20.072V25H148.143ZM145.535 25.192C144.905 25.192 144.385 25.08 143.975 24.856C143.564 24.632 143.257 24.3413 143.055 23.984C142.852 23.6267 142.751 23.2507 142.751 22.856C142.751 22.3387 142.879 21.9173 143.135 21.592C143.396 21.2667 143.751 21.0293 144.199 20.88C144.647 20.7253 145.151 20.648 145.711 20.648C146.111 20.648 146.511 20.688 146.911 20.768C147.316 20.848 147.711 20.9573 148.095 21.096V21.88C147.775 21.752 147.412 21.6507 147.007 21.576C146.607 21.5013 146.239 21.464 145.903 21.464C145.391 21.464 144.959 21.5707 144.607 21.784C144.255 21.992 144.079 22.3493 144.079 22.856C144.079 23.2293 144.212 23.5493 144.479 23.816C144.751 24.0827 145.183 24.216 145.775 24.216C146.191 24.216 146.564 24.12 146.895 23.928C147.231 23.7307 147.495 23.4853 147.687 23.192C147.884 22.8987 147.983 22.6053 147.983 22.312H148.287C148.287 22.824 148.175 23.2987 147.951 23.736C147.732 24.1733 147.417 24.5253 147.007 24.792C146.596 25.0587 146.105 25.192 145.535 25.192ZM154.731 25.192C154.315 25.192 153.942 25.112 153.611 24.952C153.28 24.792 153.019 24.552 152.827 24.232C152.635 23.912 152.539 23.512 152.539 23.032V15.224H153.771V23C153.771 23.7893 154.139 24.184 154.875 24.184C155.094 24.184 155.304 24.16 155.507 24.112C155.715 24.064 155.947 23.992 156.203 23.896L156.379 24.792C156.107 24.9093 155.835 25.0053 155.563 25.08C155.296 25.1547 155.019 25.192 154.731 25.192ZM151.307 18.216V17.352H156.187V18.216H151.307ZM161.211 25.192C160.549 25.192 159.957 25.024 159.435 24.688C158.917 24.3467 158.507 23.8747 158.203 23.272C157.904 22.6693 157.755 21.976 157.755 21.192C157.755 20.3547 157.904 19.6347 158.203 19.032C158.501 18.4293 158.909 17.968 159.427 17.648C159.949 17.3227 160.544 17.16 161.211 17.16C161.792 17.16 162.288 17.2773 162.699 17.512C163.109 17.7467 163.44 18.064 163.691 18.464C163.941 18.864 164.115 19.3173 164.211 19.824C164.312 20.3253 164.341 20.8453 164.299 21.384H158.763V20.616H163.475L163.107 20.856C163.123 20.5413 163.104 20.2267 163.051 19.912C163.003 19.5973 162.909 19.3093 162.771 19.048C162.632 18.7813 162.437 18.568 162.187 18.408C161.936 18.248 161.616 18.168 161.227 18.168C160.736 18.168 160.325 18.2933 159.995 18.544C159.664 18.7947 159.416 19.1253 159.251 19.536C159.085 19.9413 159.003 20.3813 159.003 20.856V21.368C159.003 21.9013 159.083 22.3787 159.243 22.8C159.408 23.2213 159.653 23.5547 159.979 23.8C160.304 24.0453 160.715 24.168 161.211 24.168C161.707 24.168 162.115 24.048 162.435 23.808C162.755 23.568 162.949 23.2133 163.019 22.744H164.315C164.235 23.2507 164.053 23.688 163.771 24.056C163.488 24.4187 163.128 24.6987 162.691 24.896C162.253 25.0933 161.76 25.192 161.211 25.192ZM173.626 25.192C173.008 25.192 172.44 25.0267 171.922 24.696C171.405 24.36 170.992 23.8907 170.682 23.288C170.373 22.68 170.218 21.9653 170.218 21.144C170.218 20.328 170.37 19.6213 170.674 19.024C170.978 18.4267 171.381 17.968 171.882 17.648C172.389 17.3227 172.944 17.16 173.546 17.16C174.106 17.16 174.597 17.296 175.018 17.568C175.445 17.84 175.776 18.232 176.01 18.744C176.245 19.256 176.362 19.8747 176.362 20.6H175.882C175.882 20.0933 175.781 19.6667 175.578 19.32C175.381 18.9733 175.122 18.712 174.802 18.536C174.482 18.3547 174.138 18.264 173.77 18.264C173.354 18.264 172.973 18.3813 172.626 18.616C172.285 18.8453 172.01 19.176 171.802 19.608C171.6 20.0347 171.498 20.5467 171.498 21.144C171.498 21.752 171.6 22.2747 171.802 22.712C172.01 23.1493 172.285 23.4853 172.626 23.72C172.973 23.9547 173.354 24.072 173.77 24.072C174.117 24.072 174.45 23.9813 174.77 23.8C175.096 23.6187 175.362 23.3547 175.57 23.008C175.778 22.656 175.882 22.232 175.882 21.736H176.362C176.362 22.4773 176.24 23.1067 175.994 23.624C175.754 24.136 175.426 24.5253 175.01 24.792C174.6 25.0587 174.138 25.192 173.626 25.192ZM176.09 25L175.882 23.208V14.088H177.13V25H176.09ZM181.239 15.544C180.983 15.544 180.78 15.472 180.631 15.328C180.481 15.1787 180.407 14.984 180.407 14.744C180.407 14.5093 180.481 14.3227 180.631 14.184C180.78 14.0453 180.983 13.976 181.239 13.976C181.495 13.976 181.697 14.0453 181.847 14.184C181.996 14.3227 182.071 14.5093 182.071 14.744C182.071 14.984 181.996 15.1787 181.847 15.328C181.697 15.472 181.495 15.544 181.239 15.544ZM180.615 25V17.336H181.863V25H180.615ZM185.876 25V16.168C185.876 15.6613 185.972 15.248 186.164 14.928C186.362 14.6027 186.623 14.3627 186.948 14.208C187.279 14.0533 187.647 13.976 188.052 13.976C188.271 13.976 188.492 13.992 188.716 14.024C188.946 14.056 189.172 14.104 189.396 14.168L189.156 15.16C188.996 15.096 188.836 15.048 188.676 15.016C188.522 14.984 188.372 14.968 188.228 14.968C188.058 14.968 187.887 15 187.716 15.064C187.546 15.128 187.404 15.248 187.292 15.424C187.18 15.6 187.124 15.8533 187.124 16.184V25H185.876ZM184.628 18.216V17.352H188.708V18.216H184.628ZM191.521 25V16.168C191.521 15.6613 191.617 15.248 191.809 14.928C192.006 14.6027 192.267 14.3627 192.593 14.208C192.923 14.0533 193.291 13.976 193.697 13.976C193.915 13.976 194.137 13.992 194.361 14.024C194.59 14.056 194.817 14.104 195.041 14.168L194.801 15.16C194.641 15.096 194.481 15.048 194.321 15.016C194.166 14.984 194.017 14.968 193.873 14.968C193.702 14.968 193.531 15 193.361 15.064C193.19 15.128 193.049 15.248 192.937 15.424C192.825 15.6 192.769 15.8533 192.769 16.184V25H191.521ZM190.273 18.216V17.352H194.353V18.216H190.273ZM199.405 25.192C198.744 25.192 198.152 25.024 197.629 24.688C197.112 24.3467 196.701 23.8747 196.397 23.272C196.098 22.6693 195.949 21.976 195.949 21.192C195.949 20.3547 196.098 19.6347 196.397 19.032C196.696 18.4293 197.104 17.968 197.621 17.648C198.144 17.3227 198.738 17.16 199.405 17.16C199.986 17.16 200.482 17.2773 200.893 17.512C201.304 17.7467 201.634 18.064 201.885 18.464C202.136 18.864 202.309 19.3173 202.405 19.824C202.506 20.3253 202.536 20.8453 202.493 21.384H196.957V20.616H201.669L201.301 20.856C201.317 20.5413 201.298 20.2267 201.245 19.912C201.197 19.5973 201.104 19.3093 200.965 19.048C200.826 18.7813 200.632 18.568 200.381 18.408C200.13 18.248 199.81 18.168 199.421 18.168C198.93 18.168 198.52 18.2933 198.189 18.544C197.858 18.7947 197.61 19.1253 197.445 19.536C197.28 19.9413 197.197 20.3813 197.197 20.856V21.368C197.197 21.9013 197.277 22.3787 197.437 22.8C197.602 23.2213 197.848 23.5547 198.173 23.8C198.498 24.0453 198.909 24.168 199.405 24.168C199.901 24.168 200.309 24.048 200.629 23.808C200.949 23.568 201.144 23.2133 201.213 22.744H202.509C202.429 23.2507 202.248 23.688 201.965 24.056C201.682 24.4187 201.322 24.6987 200.885 24.896C200.448 25.0933 199.954 25.192 199.405 25.192ZM205.128 25V17.336H206.376V25H205.128ZM205.992 21.544C205.992 20.5733 206.085 19.768 206.272 19.128C206.459 18.4827 206.731 18.0027 207.088 17.688C207.451 17.368 207.891 17.208 208.408 17.208C208.579 17.208 208.733 17.2213 208.872 17.248C209.016 17.2693 209.16 17.304 209.304 17.352L209.224 18.584C209.075 18.536 208.912 18.496 208.736 18.464C208.56 18.4267 208.403 18.408 208.264 18.408C207.811 18.408 207.445 18.5387 207.168 18.8C206.891 19.056 206.688 19.4187 206.56 19.888C206.437 20.3573 206.376 20.9093 206.376 21.544H205.992ZM213.725 25.192C213.064 25.192 212.472 25.024 211.949 24.688C211.432 24.3467 211.021 23.8747 210.717 23.272C210.418 22.6693 210.269 21.976 210.269 21.192C210.269 20.3547 210.418 19.6347 210.717 19.032C211.016 18.4293 211.424 17.968 211.941 17.648C212.464 17.3227 213.058 17.16 213.725 17.16C214.306 17.16 214.802 17.2773 215.213 17.512C215.624 17.7467 215.954 18.064 216.205 18.464C216.456 18.864 216.629 19.3173 216.725 19.824C216.826 20.3253 216.856 20.8453 216.813 21.384H211.277V20.616H215.989L215.621 20.856C215.637 20.5413 215.618 20.2267 215.565 19.912C215.517 19.5973 215.424 19.3093 215.285 19.048C215.146 18.7813 214.952 18.568 214.701 18.408C214.45 18.248 214.13 18.168 213.741 18.168C213.25 18.168 212.84 18.2933 212.509 18.544C212.178 18.7947 211.93 19.1253 211.765 19.536C211.6 19.9413 211.517 20.3813 211.517 20.856V21.368C211.517 21.9013 211.597 22.3787 211.757 22.8C211.922 23.2213 212.168 23.5547 212.493 23.8C212.818 24.0453 213.229 24.168 213.725 24.168C214.221 24.168 214.629 24.048 214.949 23.808C215.269 23.568 215.464 23.2133 215.533 22.744H216.829C216.749 23.2507 216.568 23.688 216.285 24.056C216.002 24.4187 215.642 24.6987 215.205 24.896C214.768 25.0933 214.274 25.192 213.725 25.192ZM224.888 25V20.504C224.888 19.7733 224.712 19.2187 224.36 18.84C224.013 18.456 223.539 18.264 222.936 18.264C222.477 18.264 222.08 18.3893 221.744 18.64C221.408 18.8907 221.149 19.2507 220.968 19.72C220.787 20.184 220.696 20.7387 220.696 21.384H220.216C220.216 20.4933 220.333 19.7333 220.568 19.104C220.803 18.4747 221.144 17.9947 221.592 17.664C222.045 17.328 222.595 17.16 223.24 17.16C223.843 17.16 224.357 17.296 224.784 17.568C225.216 17.8347 225.547 18.2187 225.776 18.72C226.005 19.2213 226.12 19.816 226.12 20.504V25H224.888ZM219.448 25V17.352H220.52L220.696 19.112V25H219.448ZM231.616 25.192C231.2 25.192 230.827 25.112 230.496 24.952C230.165 24.792 229.904 24.552 229.712 24.232C229.52 23.912 229.424 23.512 229.424 23.032V15.224H230.656V23C230.656 23.7893 231.024 24.184 231.76 24.184C231.979 24.184 232.189 24.16 232.392 24.112C232.6 24.064 232.832 23.992 233.088 23.896L233.264 24.792C232.992 24.9093 232.72 25.0053 232.448 25.08C232.181 25.1547 231.904 25.192 231.616 25.192ZM228.192 18.216V17.352H233.072V18.216H228.192ZM35.968 45.192C35.552 45.192 35.1787 45.112 34.848 44.952C34.5173 44.792 34.256 44.552 34.064 44.232C33.872 43.912 33.776 43.512 33.776 43.032V35.224H35.008V43C35.008 43.7893 35.376 44.184 36.112 44.184C36.3307 44.184 36.5413 44.16 36.744 44.112C36.952 44.064 37.184 43.992 37.44 43.896L37.616 44.792C37.344 44.9093 37.072 45.0053 36.8 45.08C36.5333 45.1547 36.256 45.192 35.968 45.192ZM32.544 38.216V37.352H37.424V38.216H32.544ZM42.5596 45.192C41.8716 45.192 41.2583 45.04 40.7196 44.736C40.1863 44.432 39.765 43.9813 39.4556 43.384C39.1463 42.7867 38.9916 42.0507 38.9916 41.176C38.9916 40.296 39.1463 39.56 39.4556 38.968C39.765 38.3707 40.1863 37.92 40.7196 37.616C41.2583 37.312 41.8716 37.16 42.5596 37.16C43.2423 37.16 43.8503 37.312 44.3836 37.616C44.9223 37.92 45.3436 38.3707 45.6476 38.968C45.957 39.56 46.1116 40.296 46.1116 41.176C46.1116 42.0507 45.957 42.7867 45.6476 43.384C45.3436 43.9813 44.9223 44.432 44.3836 44.736C43.8503 45.04 43.2423 45.192 42.5596 45.192ZM42.5276 44.104C43.0236 44.104 43.445 43.9867 43.7916 43.752C44.1383 43.512 44.3996 43.1733 44.5756 42.736C44.757 42.2987 44.8476 41.7787 44.8476 41.176C44.8476 40.264 44.6583 39.5467 44.2796 39.024C43.901 38.496 43.3383 38.232 42.5916 38.232C42.0903 38.232 41.6663 38.352 41.3196 38.592C40.9783 38.8267 40.717 39.1653 40.5356 39.608C40.3596 40.0453 40.2716 40.568 40.2716 41.176C40.2716 42.0773 40.461 42.792 40.8396 43.32C41.2236 43.8427 41.7863 44.104 42.5276 44.104ZM52.1736 45.192C51.6136 45.192 51.1256 45.064 50.7096 44.808C50.299 44.552 49.9816 44.1787 49.7576 43.688C49.5336 43.192 49.4216 42.5893 49.4216 41.88H49.9496C49.9496 42.3547 50.0483 42.7547 50.2456 43.08C50.443 43.4053 50.699 43.6533 51.0136 43.824C51.3336 43.9893 51.6723 44.072 52.0296 44.072C52.4136 44.072 52.7816 43.9627 53.1336 43.744C53.4856 43.52 53.7736 43.192 53.9976 42.76C54.2216 42.328 54.3336 41.7947 54.3336 41.16C54.3336 40.552 54.2296 40.032 54.0216 39.6C53.819 39.168 53.5443 38.8373 53.1976 38.608C52.851 38.3787 52.467 38.264 52.0456 38.264C51.683 38.264 51.3416 38.352 51.0216 38.528C50.7016 38.704 50.443 38.9627 50.2456 39.304C50.0483 39.64 49.9496 40.056 49.9496 40.552H49.4216C49.4216 39.8107 49.5443 39.1893 49.7896 38.688C50.035 38.1813 50.3683 37.8 50.7896 37.544C51.211 37.288 51.683 37.16 52.2056 37.16C52.803 37.16 53.3603 37.32 53.8776 37.64C54.395 37.96 54.8136 38.4187 55.1336 39.016C55.4536 39.6133 55.6136 40.328 55.6136 41.16C55.6136 42.0027 55.451 42.7253 55.1256 43.328C54.8056 43.9307 54.3843 44.392 53.8616 44.712C53.339 45.032 52.7763 45.192 52.1736 45.192ZM48.7016 48.76V37.352H49.7416L49.9496 39.144V48.76H48.7016ZM58.925 35.544C58.669 35.544 58.4663 35.472 58.317 35.328C58.1677 35.1787 58.093 34.984 58.093 34.744C58.093 34.5093 58.1677 34.3227 58.317 34.184C58.4663 34.0453 58.669 33.976 58.925 33.976C59.181 33.976 59.3837 34.0453 59.533 34.184C59.6823 34.3227 59.757 34.5093 59.757 34.744C59.757 34.984 59.6823 35.1787 59.533 35.328C59.3837 35.472 59.181 35.544 58.925 35.544ZM58.301 45V37.336H59.549V45H58.301ZM65.8346 45.192C65.2213 45.192 64.648 45.0267 64.1146 44.696C63.5866 44.3653 63.16 43.8987 62.8346 43.296C62.5093 42.6933 62.3466 41.9813 62.3466 41.16C62.3466 40.3173 62.5093 39.5973 62.8346 39C63.16 38.4027 63.5866 37.9467 64.1146 37.632C64.648 37.3173 65.2213 37.16 65.8346 37.16C66.2666 37.16 66.6533 37.2267 66.9946 37.36C67.3413 37.488 67.6426 37.6667 67.8986 37.896C68.1546 38.1253 68.3653 38.3867 68.5306 38.68C68.7013 38.968 68.8266 39.272 68.9066 39.592L67.6266 39.704C67.4933 39.2613 67.2693 38.912 66.9546 38.656C66.6453 38.3947 66.2666 38.264 65.8186 38.264C65.44 38.264 65.0826 38.3733 64.7466 38.592C64.416 38.8053 64.1466 39.128 63.9386 39.56C63.7306 39.9867 63.6266 40.52 63.6266 41.16C63.6266 41.752 63.72 42.2667 63.9066 42.704C64.0986 43.136 64.36 43.472 64.6906 43.712C65.0213 43.952 65.3973 44.072 65.8186 44.072C66.4106 44.072 66.8586 43.928 67.1626 43.64C67.472 43.3467 67.6266 42.9413 67.6266 42.424H68.9066C68.9066 42.9573 68.7813 43.432 68.5306 43.848C68.28 44.264 67.9226 44.592 67.4586 44.832C67 45.072 66.4586 45.192 65.8346 45.192ZM74.3086 45.192C73.5673 45.192 72.9486 45.088 72.4526 44.88C71.9566 44.6667 71.5806 44.376 71.3246 44.008C71.0686 43.6347 70.9326 43.208 70.9166 42.728H72.1166C72.1433 43.2133 72.338 43.5787 72.7006 43.824C73.0686 44.064 73.5673 44.184 74.1966 44.184C74.5273 44.184 74.8313 44.1307 75.1086 44.024C75.386 43.9173 75.6073 43.7707 75.7726 43.584C75.938 43.3973 76.0206 43.1867 76.0206 42.952C76.0206 42.6533 75.9113 42.4187 75.6926 42.248C75.474 42.0773 75.1246 41.928 74.6446 41.8L73.1566 41.32C72.5113 41.1173 72.0153 40.84 71.6686 40.488C71.3273 40.1307 71.1566 39.704 71.1566 39.208C71.1566 38.5893 71.4286 38.0933 71.9726 37.72C72.5166 37.3467 73.2313 37.16 74.1166 37.16C75.0553 37.16 75.7833 37.352 76.3006 37.736C76.818 38.12 77.0873 38.6 77.1086 39.176H75.8766C75.8286 38.84 75.658 38.5867 75.3646 38.416C75.0713 38.24 74.6553 38.152 74.1166 38.152C73.5993 38.152 73.194 38.2693 72.9006 38.504C72.6126 38.7333 72.4686 38.9893 72.4686 39.272C72.4686 39.8 72.922 40.1893 73.8286 40.44L75.3486 40.952C76.0046 41.1493 76.506 41.408 76.8526 41.728C77.2046 42.048 77.3806 42.456 77.3806 42.952C77.3806 43.336 77.2553 43.6987 77.0046 44.04C76.754 44.3813 76.3993 44.6587 75.9406 44.872C75.482 45.0853 74.938 45.192 74.3086 45.192ZM79.4029 43.728C79.4029 43.4773 79.4909 43.2613 79.6669 43.08C79.8429 42.8987 80.0642 42.808 80.3309 42.808C80.5975 42.808 80.8242 42.8987 81.0109 43.08C81.1975 43.2613 81.2909 43.4773 81.2909 43.728C81.2909 43.9787 81.1975 44.1893 81.0109 44.36C80.8242 44.5307 80.5975 44.616 80.3309 44.616C80.0642 44.616 79.8429 44.5307 79.6669 44.36C79.4909 44.184 79.4029 43.9733 79.4029 43.728ZM79.4029 38.832C79.4029 38.5813 79.4909 38.3653 79.6669 38.184C79.8429 38.0027 80.0642 37.912 80.3309 37.912C80.5975 37.912 80.8242 38.0027 81.0109 38.184C81.1975 38.3653 81.2909 38.5813 81.2909 38.832C81.2909 39.0827 81.1975 39.2933 81.0109 39.464C80.8242 39.6347 80.5975 39.72 80.3309 39.72C80.0642 39.72 79.8429 39.6347 79.6669 39.464C79.4909 39.288 79.4029 39.0773 79.4029 38.832ZM91.4152 45.224C90.6952 45.224 90.0312 45.0987 89.4232 44.848C88.8206 44.5973 88.3299 44.216 87.9512 43.704C87.5779 43.192 87.3779 42.5413 87.3512 41.752H89.2072C89.2072 42.152 89.3059 42.48 89.5032 42.736C89.7006 42.992 89.9646 43.184 90.2952 43.312C90.6312 43.4347 90.9992 43.496 91.3992 43.496C91.7832 43.496 92.1246 43.4453 92.4232 43.344C92.7272 43.2427 92.9646 43.0987 93.1352 42.912C93.3112 42.72 93.3992 42.4933 93.3992 42.232C93.3992 41.8853 93.2926 41.6133 93.0792 41.416C92.8712 41.2187 92.5352 41.0373 92.0712 40.872L90.0232 40.056C89.2232 39.7413 88.6099 39.376 88.1832 38.96C87.7566 38.544 87.5432 37.9707 87.5432 37.24C87.5432 36.3973 87.8766 35.7147 88.5432 35.192C89.2099 34.6693 90.1406 34.408 91.3352 34.408C92.4979 34.408 93.3966 34.68 94.0312 35.224C94.6659 35.7627 95.0259 36.5147 95.1112 37.48H93.2552C93.1859 37.0693 92.9992 36.7413 92.6952 36.496C92.3912 36.2453 91.9379 36.12 91.3352 36.12C90.8019 36.12 90.3806 36.232 90.0712 36.456C89.7619 36.6747 89.6072 36.952 89.6072 37.288C89.6072 37.576 89.7032 37.8053 89.8952 37.976C90.0926 38.1413 90.3966 38.3013 90.8072 38.456L93.0792 39.336C93.8472 39.6347 94.4366 40.0107 94.8472 40.464C95.2579 40.9173 95.4632 41.4853 95.4632 42.168C95.4632 42.792 95.3059 43.3333 94.9912 43.792C94.6766 44.2453 94.2179 44.5973 93.6152 44.848C93.0126 45.0987 92.2792 45.224 91.4152 45.224ZM97.0264 45L100.562 34.616H102.93L106.322 45H104.338L103.618 42.76H99.7624L99.0264 45H97.0264ZM100.242 41.336H103.17L101.714 36.872L100.242 41.336ZM110.226 34.616V43.352H114.498V45H108.338V34.616H110.226ZM114.059 36.248V34.616H122.379V36.248H118.739L119.163 35.816V45H117.275V35.816L117.699 36.248H114.059ZM122.735 34.616H124.975L127.455 39.08H127.087L129.663 34.616H131.887L128.191 40.712V45H126.303V40.712L122.735 34.616ZM137.869 45V34.616H141.709C142.951 34.616 143.903 34.9067 144.565 35.488C145.231 36.0693 145.565 36.84 145.565 37.8C145.565 38.744 145.231 39.5067 144.565 40.088C143.903 40.664 142.951 40.952 141.709 40.952H139.757V45H137.869ZM143.485 45L140.733 40.136H142.749L145.949 45H143.485ZM139.757 39.688H141.517C142.21 39.688 142.735 39.5307 143.093 39.216C143.45 38.896 143.629 38.4827 143.629 37.976C143.629 37.4587 143.466 37.0427 143.141 36.728C142.815 36.408 142.338 36.248 141.709 36.248H139.757V39.688ZM148.31 45V34.616H154.982V36.248H150.198V38.984H154.694V40.616H150.198V43.352H154.982V45H148.31ZM161.652 45.224C160.74 45.224 159.945 45.008 159.268 44.576C158.596 44.1387 158.073 43.5147 157.7 42.704C157.327 41.8933 157.14 40.92 157.14 39.784C157.14 38.6107 157.332 37.6267 157.716 36.832C158.105 36.032 158.639 35.4293 159.316 35.024C159.999 34.6133 160.777 34.408 161.652 34.408C162.863 34.408 163.807 34.7013 164.484 35.288C165.167 35.8747 165.604 36.6373 165.796 37.576L163.78 37.944C163.615 37.4 163.351 36.96 162.988 36.624C162.625 36.288 162.18 36.12 161.652 36.12C161.188 36.12 160.769 36.256 160.396 36.528C160.023 36.7947 159.724 37.2 159.5 37.744C159.281 38.288 159.172 38.968 159.172 39.784C159.172 40.552 159.268 41.2133 159.46 41.768C159.657 42.3227 159.94 42.7493 160.308 43.048C160.676 43.3467 161.124 43.496 161.652 43.496C162.329 43.496 162.852 43.3173 163.22 42.96C163.593 42.5973 163.78 42.136 163.78 41.576H165.796C165.796 42.3493 165.628 43.008 165.292 43.552C164.961 44.0907 164.487 44.504 163.868 44.792C163.249 45.08 162.511 45.224 161.652 45.224ZM168.177 45V34.616H170.065V45H168.177ZM173.164 45V34.616H176.828C177.996 34.616 178.905 34.904 179.556 35.48C180.212 36.056 180.54 36.872 180.54 37.928C180.54 38.9733 180.212 39.784 179.556 40.36C178.905 40.936 177.996 41.224 176.828 41.224H175.068V45H173.164ZM175.068 39.576H176.828C177.414 39.576 177.857 39.4213 178.156 39.112C178.454 38.8027 178.604 38.408 178.604 37.928C178.604 37.4373 178.454 37.0347 178.156 36.72C177.857 36.4053 177.414 36.248 176.828 36.248H175.068V39.576ZM182.637 45V34.616H189.309V36.248H184.525V38.984H189.021V40.616H184.525V43.352H189.309V45H182.637ZM195.82 45.224C195.1 45.224 194.436 45.0987 193.828 44.848C193.225 44.5973 192.734 44.216 192.356 43.704C191.982 43.192 191.782 42.5413 191.756 41.752H193.612C193.612 42.152 193.71 42.48 193.908 42.736C194.105 42.992 194.369 43.184 194.7 43.312C195.036 43.4347 195.404 43.496 195.804 43.496C196.188 43.496 196.529 43.4453 196.828 43.344C197.132 43.2427 197.369 43.0987 197.54 42.912C197.716 42.72 197.804 42.4933 197.804 42.232C197.804 41.8853 197.697 41.6133 197.484 41.416C197.276 41.2187 196.94 41.0373 196.476 40.872L194.428 40.056C193.628 39.7413 193.014 39.376 192.588 38.96C192.161 38.544 191.948 37.9707 191.948 37.24C191.948 36.3973 192.281 35.7147 192.948 35.192C193.614 34.6693 194.545 34.408 195.74 34.408C196.902 34.408 197.801 34.68 198.436 35.224C199.07 35.7627 199.43 36.5147 199.516 37.48H197.66C197.59 37.0693 197.404 36.7413 197.1 36.496C196.796 36.2453 196.342 36.12 195.74 36.12C195.206 36.12 194.785 36.232 194.476 36.456C194.166 36.6747 194.012 36.952 194.012 37.288C194.012 37.576 194.108 37.8053 194.3 37.976C194.497 38.1413 194.801 38.3013 195.212 38.456L197.484 39.336C198.252 39.6347 198.841 40.0107 199.252 40.464C199.662 40.9173 199.868 41.4853 199.868 42.168C199.868 42.792 199.71 43.3333 199.396 43.792C199.081 44.2453 198.622 44.5973 198.02 44.848C197.417 45.0987 196.684 45.224 195.82 45.224ZM202.503 46.744L201.559 46.28C201.863 46.1253 202.119 45.9547 202.327 45.768C202.54 45.5813 202.679 45.352 202.743 45.08C202.513 45.0533 202.316 44.9707 202.151 44.832C201.991 44.6933 201.911 44.5093 201.911 44.28C201.911 44.056 201.993 43.864 202.159 43.704C202.329 43.544 202.545 43.464 202.807 43.464C203.137 43.464 203.404 43.584 203.607 43.824C203.809 44.064 203.911 44.3493 203.911 44.68C203.911 45.0693 203.791 45.4507 203.551 45.824C203.316 46.2027 202.967 46.5093 202.503 46.744ZM37.104 65.224C36.384 65.224 35.72 65.0987 35.112 64.848C34.5093 64.5973 34.0187 64.216 33.64 63.704C33.2667 63.192 33.0667 62.5413 33.04 61.752H34.896C34.896 62.152 34.9947 62.48 35.192 62.736C35.3893 62.992 35.6533 63.184 35.984 63.312C36.32 63.4347 36.688 63.496 37.088 63.496C37.472 63.496 37.8133 63.4453 38.112 63.344C38.416 63.2427 38.6533 63.0987 38.824 62.912C39 62.72 39.088 62.4933 39.088 62.232C39.088 61.8853 38.9813 61.6133 38.768 61.416C38.56 61.2187 38.224 61.0373 37.76 60.872L35.712 60.056C34.912 59.7413 34.2987 59.376 33.872 58.96C33.4453 58.544 33.232 57.9707 33.232 57.24C33.232 56.3973 33.5653 55.7147 34.232 55.192C34.8987 54.6693 35.8293 54.408 37.024 54.408C38.1867 54.408 39.0853 54.68 39.72 55.224C40.3547 55.7627 40.7147 56.5147 40.8 57.48H38.944C38.8747 57.0693 38.688 56.7413 38.384 56.496C38.08 56.2453 37.6267 56.12 37.024 56.12C36.4907 56.12 36.0693 56.232 35.76 56.456C35.4507 56.6747 35.296 56.952 35.296 57.288C35.296 57.576 35.392 57.8053 35.584 57.976C35.7813 58.1413 36.0853 58.3013 36.496 58.456L38.768 59.336C39.536 59.6347 40.1253 60.0107 40.536 60.464C40.9467 60.9173 41.152 61.4853 41.152 62.168C41.152 62.792 40.9947 63.3333 40.68 63.792C40.3653 64.2453 39.9067 64.5973 39.304 64.848C38.7013 65.0987 37.968 65.224 37.104 65.224ZM42.5231 54.616H44.6351L47.1471 63.336H46.6671L49.1471 55.304H50.4271L53.0031 63.208H52.5711L55.2111 54.616H57.3391L53.7711 65H51.7871L49.7551 58.872H49.9311L47.8991 65H45.9151L42.5231 54.616ZM59.1357 65V54.616H65.8077V56.248H61.0237V58.984H65.5198V60.616H61.0237V63.352H65.8077V65H59.1357ZM68.6864 65V54.616H75.3584V56.248H70.5744V58.984H75.0704V60.616H70.5744V63.352H75.3584V65H68.6864ZM76.861 56.248V54.616H85.181V56.248H81.541L81.965 55.816V65H80.077V55.816L80.501 56.248H76.861ZM89.7279 56.248V54.616H98.0479V56.248H94.4079L94.8319 55.816V65H92.9439V55.816L93.3679 56.248H89.7279ZM99.7799 65V54.616H103.62C104.863 54.616 105.815 54.9067 106.476 55.488C107.143 56.0693 107.476 56.84 107.476 57.8C107.476 58.744 107.143 59.5067 106.476 60.088C105.815 60.664 104.863 60.952 103.62 60.952H101.668V65H99.7799ZM105.396 65L102.644 60.136H104.66L107.86 65H105.396ZM101.668 59.688H103.428C104.121 59.688 104.647 59.5307 105.004 59.216C105.361 58.896 105.54 58.4827 105.54 57.976C105.54 57.4587 105.377 57.0427 105.052 56.728C104.727 56.408 104.249 56.248 103.62 56.248H101.668V59.688ZM110.221 65V54.616H116.893V56.248H112.109V58.984H116.605V60.616H112.109V63.352H116.893V65H110.221ZM118.651 65L122.187 54.616H124.555L127.947 65H125.963L125.243 62.76H121.387L120.651 65H118.651ZM121.867 61.336H124.795L123.339 56.872L121.867 61.336ZM127.852 56.248V54.616H136.172V56.248H132.532L132.956 55.816V65H131.068V55.816L131.492 56.248H127.852ZM141.52 65.224C140.8 65.224 140.136 65.0987 139.528 64.848C138.926 64.5973 138.435 64.216 138.056 63.704C137.683 63.192 137.483 62.5413 137.456 61.752H139.312C139.312 62.152 139.411 62.48 139.608 62.736C139.806 62.992 140.07 63.184 140.4 63.312C140.736 63.4347 141.104 63.496 141.504 63.496C141.888 63.496 142.23 63.4453 142.528 63.344C142.832 63.2427 143.07 63.0987 143.24 62.912C143.416 62.72 143.504 62.4933 143.504 62.232C143.504 61.8853 143.398 61.6133 143.184 61.416C142.976 61.2187 142.64 61.0373 142.176 60.872L140.128 60.056C139.328 59.7413 138.715 59.376 138.288 58.96C137.862 58.544 137.648 57.9707 137.648 57.24C137.648 56.3973 137.982 55.7147 138.648 55.192C139.315 54.6693 140.246 54.408 141.44 54.408C142.603 54.408 143.502 54.68 144.136 55.224C144.771 55.7627 145.131 56.5147 145.216 57.48H143.36C143.291 57.0693 143.104 56.7413 142.8 56.496C142.496 56.2453 142.043 56.12 141.44 56.12C140.907 56.12 140.486 56.232 140.176 56.456C139.867 56.6747 139.712 56.952 139.712 57.288C139.712 57.576 139.808 57.8053 140 57.976C140.198 58.1413 140.502 58.3013 140.912 58.456L143.184 59.336C143.952 59.6347 144.542 60.0107 144.952 60.464C145.363 60.9173 145.568 61.4853 145.568 62.168C145.568 62.792 145.411 63.3333 145.096 63.792C144.782 64.2453 144.323 64.5973 143.72 64.848C143.118 65.0987 142.384 65.224 141.52 65.224ZM148.203 66.744L147.259 66.28C147.563 66.1253 147.819 65.9547 148.027 65.768C148.241 65.5813 148.379 65.352 148.443 65.08C148.214 65.0533 148.017 64.9707 147.851 64.832C147.691 64.6933 147.611 64.5093 147.611 64.28C147.611 64.056 147.694 63.864 147.859 63.704C148.03 63.544 148.246 63.464 148.507 63.464C148.838 63.464 149.105 63.584 149.307 63.824C149.51 64.064 149.611 64.3493 149.611 64.68C149.611 65.0693 149.491 65.4507 149.251 65.824C149.017 66.2027 148.667 66.5093 148.203 66.744ZM155.728 65V54.616H162.272V56.248H157.616V58.984H161.872V60.6H157.616V65H155.728ZM164.622 65V54.616H171.294V56.248H166.51V58.984H171.006V60.616H166.51V63.352H171.294V65H164.622ZM177.805 65.224C177.085 65.224 176.421 65.0987 175.813 64.848C175.21 64.5973 174.719 64.216 174.341 63.704C173.967 63.192 173.767 62.5413 173.741 61.752H175.597C175.597 62.152 175.695 62.48 175.893 62.736C176.09 62.992 176.354 63.184 176.685 63.312C177.021 63.4347 177.389 63.496 177.789 63.496C178.173 63.496 178.514 63.4453 178.813 63.344C179.117 63.2427 179.354 63.0987 179.525 62.912C179.701 62.72 179.789 62.4933 179.789 62.232C179.789 61.8853 179.682 61.6133 179.469 61.416C179.261 61.2187 178.925 61.0373 178.461 60.872L176.413 60.056C175.613 59.7413 174.999 59.376 174.573 58.96C174.146 58.544 173.933 57.9707 173.933 57.24C173.933 56.3973 174.266 55.7147 174.933 55.192C175.599 54.6693 176.53 54.408 177.725 54.408C178.887 54.408 179.786 54.68 180.421 55.224C181.055 55.7627 181.415 56.5147 181.501 57.48H179.645C179.575 57.0693 179.389 56.7413 179.085 56.496C178.781 56.2453 178.327 56.12 177.725 56.12C177.191 56.12 176.77 56.232 176.461 56.456C176.151 56.6747 175.997 56.952 175.997 57.288C175.997 57.576 176.093 57.8053 176.285 57.976C176.482 58.1413 176.786 58.3013 177.197 58.456L179.469 59.336C180.237 59.6347 180.826 60.0107 181.237 60.464C181.647 60.9173 181.853 61.4853 181.853 62.168C181.853 62.792 181.695 63.3333 181.381 63.792C181.066 64.2453 180.607 64.5973 180.005 64.848C179.402 65.0987 178.669 65.224 177.805 65.224ZM183.16 56.248V54.616H191.48V56.248H187.84L188.264 55.816V65H186.376V55.816L186.8 56.248H183.16ZM193.212 65V54.616H195.1V65H193.212ZM201.479 62.936L204.135 54.616H206.119L202.551 65H200.567L197.047 54.616H199.047L201.671 62.936H201.479ZM208.031 65V54.616H214.703V56.248H209.919V58.984H214.415V60.616H209.919V63.352H214.703V65H208.031ZM33.472 85V74.616H40.144V76.248H35.36V78.984H39.856V80.616H35.36V83.352H40.144V85H33.472ZM46.2706 82.936L48.9266 74.616H50.9106L47.3426 85H45.3586L41.8386 74.616H43.8386L46.4626 82.936H46.2706ZM52.8232 85V74.616H59.4952V76.248H54.7112V78.984H59.2073V80.616H54.7112V83.352H59.4952V85H52.8232ZM62.3579 74.616H64.4219L69.1419 82.024H68.9979V74.616H70.8859V85H68.9659L63.9419 77.144H64.2459V85H62.3579V74.616ZM72.6266 76.248V74.616H80.9466V76.248H77.3066L77.7306 75.816V85H75.8426V75.816L76.2666 76.248H72.6266ZM86.2946 85.224C85.5746 85.224 84.9106 85.0987 84.3026 84.848C83.7 84.5973 83.2093 84.216 82.8306 83.704C82.4573 83.192 82.2573 82.5413 82.2306 81.752H84.0866C84.0866 82.152 84.1853 82.48 84.3826 82.736C84.58 82.992 84.844 83.184 85.1746 83.312C85.5106 83.4347 85.8786 83.496 86.2786 83.496C86.6626 83.496 87.004 83.4453 87.3026 83.344C87.6066 83.2427 87.844 83.0987 88.0146 82.912C88.1906 82.72 88.2786 82.4933 88.2786 82.232C88.2786 81.8853 88.172 81.6133 87.9586 81.416C87.7506 81.2187 87.4146 81.0373 86.9506 80.872L84.9026 80.056C84.1026 79.7413 83.4893 79.376 83.0626 78.96C82.636 78.544 82.4226 77.9707 82.4226 77.24C82.4226 76.3973 82.756 75.7147 83.4226 75.192C84.0893 74.6693 85.02 74.408 86.2146 74.408C87.3773 74.408 88.276 74.68 88.9106 75.224C89.5453 75.7627 89.9053 76.5147 89.9906 77.48H88.1346C88.0653 77.0693 87.8786 76.7413 87.5746 76.496C87.2706 76.2453 86.8173 76.12 86.2146 76.12C85.6813 76.12 85.26 76.232 84.9506 76.456C84.6413 76.6747 84.4866 76.952 84.4866 77.288C84.4866 77.576 84.5826 77.8053 84.7746 77.976C84.972 78.1413 85.276 78.3013 85.6866 78.456L87.9586 79.336C88.7266 79.6347 89.316 80.0107 89.7266 80.464C90.1373 80.9173 90.3426 81.4853 90.3426 82.168C90.3426 82.792 90.1853 83.3333 89.8706 83.792C89.556 84.2453 89.0973 84.5973 88.4946 84.848C87.892 85.0987 87.1586 85.224 86.2946 85.224ZM102.113 85L101.953 83.32V80.04C101.953 79.352 101.806 78.8587 101.513 78.56C101.219 78.256 100.779 78.104 100.193 78.104C99.862 78.104 99.5606 78.152 99.2886 78.248C99.022 78.344 98.8086 78.4933 98.6486 78.696C98.494 78.8933 98.4166 79.1493 98.4166 79.464H97.0246C97.0246 78.9093 97.1606 78.464 97.4326 78.128C97.7046 77.7867 98.078 77.5413 98.5526 77.392C99.0326 77.2373 99.5793 77.16 100.193 77.16C100.779 77.16 101.299 77.2587 101.753 77.456C102.206 77.6533 102.561 77.968 102.817 78.4C103.073 78.8267 103.201 79.384 103.201 80.072V85H102.113ZM99.5046 85.192C98.8753 85.192 98.3553 85.08 97.9446 84.856C97.534 84.632 97.2273 84.3413 97.0246 83.984C96.822 83.6267 96.7206 83.2507 96.7206 82.856C96.7206 82.3387 96.8486 81.9173 97.1046 81.592C97.366 81.2667 97.7206 81.0293 98.1686 80.88C98.6166 80.7253 99.1206 80.648 99.6806 80.648C100.081 80.648 100.481 80.688 100.881 80.768C101.286 80.848 101.681 80.9573 102.065 81.096V81.88C101.745 81.752 101.382 81.6507 100.977 81.576C100.577 81.5013 100.209 81.464 99.8726 81.464C99.3606 81.464 98.9286 81.5707 98.5766 81.784C98.2246 81.992 98.0486 82.3493 98.0486 82.856C98.0486 83.2293 98.182 83.5493 98.4486 83.816C98.7206 84.0827 99.1526 84.216 99.7446 84.216C100.161 84.216 100.534 84.12 100.865 83.928C101.201 83.7307 101.465 83.4853 101.657 83.192C101.854 82.8987 101.953 82.6053 101.953 82.312H102.257C102.257 82.824 102.145 83.2987 101.921 83.736C101.702 84.1733 101.387 84.5253 100.977 84.792C100.566 85.0587 100.075 85.192 99.5046 85.192ZM111.789 85V80.504C111.789 79.7733 111.613 79.2187 111.261 78.84C110.914 78.456 110.44 78.264 109.837 78.264C109.378 78.264 108.981 78.3893 108.645 78.64C108.309 78.8907 108.05 79.2507 107.869 79.72C107.688 80.184 107.597 80.7387 107.597 81.384H107.117C107.117 80.4933 107.234 79.7333 107.469 79.104C107.704 78.4747 108.045 77.9947 108.493 77.664C108.946 77.328 109.496 77.16 110.141 77.16C110.744 77.16 111.258 77.296 111.685 77.568C112.117 77.8347 112.448 78.2187 112.677 78.72C112.906 79.2213 113.021 79.816 113.021 80.504V85H111.789ZM106.349 85V77.352H107.421L107.597 79.112V85H106.349ZM118.901 85.192C118.283 85.192 117.715 85.0267 117.197 84.696C116.68 84.36 116.267 83.8907 115.957 83.288C115.648 82.68 115.493 81.9653 115.493 81.144C115.493 80.328 115.645 79.6213 115.949 79.024C116.253 78.4267 116.656 77.968 117.157 77.648C117.664 77.3227 118.219 77.16 118.821 77.16C119.381 77.16 119.872 77.296 120.293 77.568C120.72 77.84 121.051 78.232 121.285 78.744C121.52 79.256 121.637 79.8747 121.637 80.6H121.157C121.157 80.0933 121.056 79.6667 120.853 79.32C120.656 78.9733 120.397 78.712 120.077 78.536C119.757 78.3547 119.413 78.264 119.045 78.264C118.629 78.264 118.248 78.3813 117.901 78.616C117.56 78.8453 117.285 79.176 117.077 79.608C116.875 80.0347 116.773 80.5467 116.773 81.144C116.773 81.752 116.875 82.2747 117.077 82.712C117.285 83.1493 117.56 83.4853 117.901 83.72C118.248 83.9547 118.629 84.072 119.045 84.072C119.392 84.072 119.725 83.9813 120.045 83.8C120.371 83.6187 120.637 83.3547 120.845 83.008C121.053 82.656 121.157 82.232 121.157 81.736H121.637C121.637 82.4773 121.515 83.1067 121.269 83.624C121.029 84.136 120.701 84.5253 120.285 84.792C119.875 85.0587 119.413 85.192 118.901 85.192ZM121.365 85L121.157 83.208V74.088H122.405V85H121.365ZM140.519 85V80.504C140.519 79.7733 140.343 79.2187 139.991 78.84C139.644 78.456 139.175 78.264 138.583 78.264C137.889 78.264 137.359 78.5333 136.991 79.072C136.623 79.6053 136.439 80.344 136.439 81.288H135.863C135.863 80.6 135.929 79.9973 136.063 79.48C136.201 78.9627 136.401 78.5333 136.663 78.192C136.924 77.8453 137.241 77.5867 137.615 77.416C137.988 77.2453 138.412 77.16 138.887 77.16C139.489 77.16 140.004 77.296 140.431 77.568C140.863 77.8347 141.193 78.2187 141.423 78.72C141.652 79.2213 141.767 79.816 141.767 80.504V85H140.519ZM129.767 85V77.352H130.839L130.983 78.888C131.223 78.3333 131.559 77.9067 131.991 77.608C132.428 77.3093 132.951 77.16 133.559 77.16C134.161 77.16 134.676 77.296 135.103 77.568C135.535 77.8347 135.865 78.2187 136.095 78.72C136.324 79.2213 136.439 79.816 136.439 80.504V85H135.207V80.504C135.207 79.7733 135.031 79.2187 134.679 78.84C134.332 78.456 133.857 78.264 133.255 78.264C132.796 78.264 132.399 78.3893 132.063 78.64C131.727 78.8907 131.468 79.2507 131.287 79.72C131.105 80.184 131.015 80.7387 131.015 81.384V85H129.767ZM147.663 85.192C146.975 85.192 146.362 85.04 145.823 84.736C145.29 84.432 144.869 83.9813 144.559 83.384C144.25 82.7867 144.095 82.0507 144.095 81.176C144.095 80.296 144.25 79.56 144.559 78.968C144.869 78.3707 145.29 77.92 145.823 77.616C146.362 77.312 146.975 77.16 147.663 77.16C148.346 77.16 148.954 77.312 149.487 77.616C150.026 77.92 150.447 78.3707 150.751 78.968C151.061 79.56 151.215 80.296 151.215 81.176C151.215 82.0507 151.061 82.7867 150.751 83.384C150.447 83.9813 150.026 84.432 149.487 84.736C148.954 85.04 148.346 85.192 147.663 85.192ZM147.631 84.104C148.127 84.104 148.549 83.9867 148.895 83.752C149.242 83.512 149.503 83.1733 149.679 82.736C149.861 82.2987 149.951 81.7787 149.951 81.176C149.951 80.264 149.762 79.5467 149.383 79.024C149.005 78.496 148.442 78.232 147.695 78.232C147.194 78.232 146.77 78.352 146.423 78.592C146.082 78.8267 145.821 79.1653 145.639 79.608C145.463 80.0453 145.375 80.568 145.375 81.176C145.375 82.0773 145.565 82.792 145.943 83.32C146.327 83.8427 146.89 84.104 147.631 84.104ZM153.805 85V77.336H155.053V85H153.805ZM154.669 81.544C154.669 80.5733 154.763 79.768 154.949 79.128C155.136 78.4827 155.408 78.0027 155.765 77.688C156.128 77.368 156.568 77.208 157.085 77.208C157.256 77.208 157.411 77.2213 157.549 77.248C157.693 77.2693 157.837 77.304 157.981 77.352L157.901 78.584C157.752 78.536 157.589 78.496 157.413 78.464C157.237 78.4267 157.08 78.408 156.941 78.408C156.488 78.408 156.123 78.5387 155.845 78.8C155.568 79.056 155.365 79.4187 155.237 79.888C155.115 80.3573 155.053 80.9093 155.053 81.544H154.669ZM162.403 85.192C161.741 85.192 161.149 85.024 160.627 84.688C160.109 84.3467 159.699 83.8747 159.395 83.272C159.096 82.6693 158.947 81.976 158.947 81.192C158.947 80.3547 159.096 79.6347 159.395 79.032C159.693 78.4293 160.101 77.968 160.619 77.648C161.141 77.3227 161.736 77.16 162.403 77.16C162.984 77.16 163.48 77.2773 163.891 77.512C164.301 77.7467 164.632 78.064 164.883 78.464C165.133 78.864 165.307 79.3173 165.403 79.824C165.504 80.3253 165.533 80.8453 165.491 81.384H159.955V80.616H164.667L164.299 80.856C164.315 80.5413 164.296 80.2267 164.243 79.912C164.195 79.5973 164.101 79.3093 163.963 79.048C163.824 78.7813 163.629 78.568 163.379 78.408C163.128 78.248 162.808 78.168 162.419 78.168C161.928 78.168 161.517 78.2933 161.187 78.544C160.856 78.7947 160.608 79.1253 160.443 79.536C160.277 79.9413 160.195 80.3813 160.195 80.856V81.368C160.195 81.9013 160.275 82.3787 160.435 82.8C160.6 83.2213 160.845 83.5547 161.171 83.8C161.496 84.0453 161.907 84.168 162.403 84.168C162.899 84.168 163.307 84.048 163.627 83.808C163.947 83.568 164.141 83.2133 164.211 82.744H165.507C165.427 83.2507 165.245 83.688 164.963 84.056C164.68 84.4187 164.32 84.6987 163.883 84.896C163.445 85.0933 162.952 85.192 162.403 85.192ZM166.989 84.256C166.989 84.0053 167.077 83.7893 167.253 83.608C167.429 83.4267 167.651 83.336 167.917 83.336C168.184 83.336 168.411 83.4267 168.597 83.608C168.784 83.7893 168.877 84.0053 168.877 84.256C168.877 84.5067 168.784 84.7173 168.597 84.888C168.411 85.0587 168.184 85.144 167.917 85.144C167.651 85.144 167.429 85.0587 167.253 84.888C167.077 84.712 166.989 84.5013 166.989 84.256Z" fill="#4A5DC8"/>
</g>
<defs>
<filter id="filter0_d_7049_5827" x="0" y="0" width="261.767" height="109" filterUnits="userSpaceOnUse" color-interpolation-filters="sRGB">
<feFlood flood-opacity="0" result="BackgroundImageFix"/>
<feColorMatrix in="SourceAlpha" type="matrix" values="0 0 0 0 0 0 0 0 0 0 0 0 0 0 0 0 0 0 127 0" result="hardAlpha"/>
<feOffset dy="4"/>
<feGaussianBlur stdDeviation="3"/>
<feComposite in2="hardAlpha" operator="out"/>
<feColorMatrix type="matrix" values="0 0 0 0 0 0 0 0 0 0 0 0 0 0 0 0 0 0 0.1 0"/>
<feBlend mode="normal" in2="BackgroundImageFix" result="effect1_dropShadow_7049_5827"/>
<feBlend mode="normal" in="SourceGraphic" in2="effect1_dropShadow_7049_5827" result="shape"/>
</filter>
</defs>
</svg>
