<svg width="262" height="109" viewBox="0 0 262 109" fill="none" xmlns="http://www.w3.org/2000/svg">
<g filter="url(#filter0_d_7041_5848)">
<mask id="path-1-inside-1_7041_5848" fill="white">
<path d="M254.724 47.3669L245 39L245 11C245 6.02943 240.971 2 236 2L15 1.99998C10.0295 1.99998 6.00002 6.02941 6.00002 11L6.00002 90C6.00002 94.9705 10.0294 99 15 99L236 99C240.971 99 245 94.9706 245 90L245 59.5L254.612 52.0069C256.106 50.8425 256.16 48.6022 254.724 47.3669Z"/>
</mask>
<path d="M254.724 47.3669L245 39L245 11C245 6.02943 240.971 2 236 2L15 1.99998C10.0295 1.99998 6.00002 6.02941 6.00002 11L6.00002 90C6.00002 94.9705 10.0294 99 15 99L236 99C240.971 99 245 94.9706 245 90L245 59.5L254.612 52.0069C256.106 50.8425 256.16 48.6022 254.724 47.3669Z" fill="#FFF2EA"/>
<path d="M245 39L243.6 39L243.6 39.6423L244.087 40.0612L245 39ZM254.724 47.3669L255.637 46.3056L255.637 46.3056L254.724 47.3669ZM254.612 52.0069L255.473 53.1111L255.473 53.1111L254.612 52.0069ZM245 59.5L244.139 58.3959L243.6 58.8162L243.6 59.5L245 59.5ZM245 90L246.4 90L245 90ZM245 11L246.4 11L245 11ZM244.087 40.0612L253.811 48.4281L255.637 46.3056L245.913 37.9388L244.087 40.0612ZM253.751 50.9028L244.139 58.3959L245.861 60.6041L255.473 53.1111L253.751 50.9028ZM253.811 48.4281C254.577 49.0869 254.548 50.2817 253.751 50.9028L255.473 53.1111C257.663 51.4032 257.743 48.1175 255.637 46.3056L253.811 48.4281ZM236 97.6L15 97.6L15 100.4L236 100.4L236 97.6ZM7.40001 90L7.40002 11L4.60003 11L4.60002 90L7.40001 90ZM15 3.39998L236 3.4L236 0.599997L15 0.599977L15 3.39998ZM243.6 59.5L243.6 90L246.4 90L246.4 59.5L243.6 59.5ZM243.6 11L243.6 39L246.4 39L246.4 11L243.6 11ZM236 3.4C240.197 3.4 243.6 6.80263 243.6 11L246.4 11C246.4 5.25623 241.744 0.599997 236 0.599997L236 3.4ZM7.40002 11C7.40002 6.80261 10.8027 3.39998 15 3.39998L15 0.599977C9.25626 0.599977 4.60003 5.25621 4.60003 11L7.40002 11ZM15 97.6C10.8026 97.6 7.40001 94.1973 7.40001 90L4.60002 90C4.60002 95.7437 9.25626 100.4 15 100.4L15 97.6ZM236 100.4C241.744 100.4 246.4 95.7438 246.4 90L243.6 90C243.6 94.1974 240.197 97.6 236 97.6L236 100.4Z" fill="#997452" mask="url(#path-1-inside-1_7041_5848)"/>
<path d="M24.224 14.952H25.632L28.24 23.896H27.872L30.544 15.992H31.392L34.032 23.832H33.68L36.672 14.952H38.064L34.512 25H33.2L30.88 18.184H31.12L28.72 25H27.408L24.224 14.952ZM44.2933 25L44.1333 23.32V20.04C44.1333 19.352 43.9866 18.8587 43.6933 18.56C43.3999 18.256 42.9599 18.104 42.3733 18.104C42.0426 18.104 41.7412 18.152 41.4692 18.248C41.2026 18.344 40.9893 18.4933 40.8293 18.696C40.6746 18.8933 40.5972 19.1493 40.5972 19.464H39.2052C39.2052 18.9093 39.3412 18.464 39.6132 18.128C39.8852 17.7867 40.2586 17.5413 40.7332 17.392C41.2132 17.2373 41.7599 17.16 42.3733 17.16C42.9599 17.16 43.4799 17.2587 43.9332 17.456C44.3866 17.6533 44.7413 17.968 44.9973 18.4C45.2533 18.8267 45.3813 19.384 45.3813 20.072V25H44.2933ZM41.6853 25.192C41.0559 25.192 40.5359 25.08 40.1252 24.856C39.7146 24.632 39.4079 24.3413 39.2052 23.984C39.0026 23.6267 38.9012 23.2507 38.9012 22.856C38.9012 22.3387 39.0292 21.9173 39.2852 21.592C39.5466 21.2667 39.9012 21.0293 40.3493 20.88C40.7973 20.7253 41.3012 20.648 41.8612 20.648C42.2612 20.648 42.6612 20.688 43.0613 20.768C43.4666 20.848 43.8613 20.9573 44.2453 21.096V21.88C43.9253 21.752 43.5626 21.6507 43.1572 21.576C42.7572 21.5013 42.3892 21.464 42.0532 21.464C41.5412 21.464 41.1092 21.5707 40.7573 21.784C40.4052 21.992 40.2292 22.3493 40.2292 22.856C40.2292 23.2293 40.3626 23.5493 40.6293 23.816C40.9013 24.0827 41.3333 24.216 41.9253 24.216C42.3413 24.216 42.7146 24.12 43.0452 23.928C43.3813 23.7307 43.6453 23.4853 43.8373 23.192C44.0346 22.8987 44.1333 22.6053 44.1333 22.312H44.4373C44.4373 22.824 44.3253 23.2987 44.1013 23.736C43.8826 24.1733 43.5679 24.5253 43.1572 24.792C42.7466 25.0587 42.2559 25.192 41.6853 25.192ZM49.2337 15.544C48.9777 15.544 48.7751 15.472 48.6257 15.328C48.4764 15.1787 48.4017 14.984 48.4017 14.744C48.4017 14.5093 48.4764 14.3227 48.6257 14.184C48.7751 14.0453 48.9777 13.976 49.2337 13.976C49.4897 13.976 49.6924 14.0453 49.8417 14.184C49.9911 14.3227 50.0657 14.5093 50.0657 14.744C50.0657 14.984 49.9911 15.1787 49.8417 15.328C49.6924 15.472 49.4897 15.544 49.2337 15.544ZM48.6097 25V17.336H49.8577V25H48.6097ZM55.8074 25.192C55.3914 25.192 55.018 25.112 54.6874 24.952C54.3567 24.792 54.0954 24.552 53.9034 24.232C53.7114 23.912 53.6154 23.512 53.6154 23.032V15.224H54.8474V23C54.8474 23.7893 55.2154 24.184 55.9514 24.184C56.17 24.184 56.3807 24.16 56.5834 24.112C56.7914 24.064 57.0234 23.992 57.2794 23.896L57.4554 24.792C57.1834 24.9093 56.9114 25.0053 56.6394 25.08C56.3727 25.1547 56.0954 25.192 55.8074 25.192ZM52.3834 18.216V17.352H57.2634V18.216H52.3834ZM59.439 26.744L58.495 26.28C58.799 26.1253 59.055 25.9547 59.263 25.768C59.4763 25.5813 59.615 25.352 59.679 25.08C59.4497 25.0533 59.2523 24.9707 59.087 24.832C58.927 24.6933 58.847 24.5093 58.847 24.28C58.847 24.056 58.9297 23.864 59.095 23.704C59.2657 23.544 59.4817 23.464 59.743 23.464C60.0737 23.464 60.3403 23.584 60.543 23.824C60.7457 24.064 60.847 24.3493 60.847 24.68C60.847 25.0693 60.727 25.4507 60.487 25.824C60.2523 26.2027 59.903 26.5093 59.439 26.744ZM67.0916 25V14.952H68.3396V25H67.0916ZM78.3969 28.936C77.6129 28.936 76.9329 28.824 76.3569 28.6C75.7809 28.3813 75.3329 28.0853 75.0129 27.712C74.6982 27.344 74.5409 26.936 74.5409 26.488C74.5409 25.896 74.7569 25.4427 75.1889 25.128C75.6262 24.8187 76.1889 24.664 76.8769 24.664L77.5649 25.096C76.9889 25.096 76.5435 25.216 76.2289 25.456C75.9142 25.696 75.7569 26.024 75.7569 26.44C75.7569 26.856 75.9809 27.208 76.4289 27.496C76.8769 27.784 77.5329 27.928 78.3969 27.928C79.0369 27.928 79.5969 27.8347 80.0769 27.648C80.5622 27.4667 80.9382 27.2267 81.2049 26.928C81.4769 26.6347 81.6129 26.3173 81.6129 25.976C81.6129 25.736 81.5249 25.528 81.3489 25.352C81.1729 25.1813 80.9035 25.096 80.5409 25.096H77.5649C77.0475 25.096 76.5995 25.0187 76.2209 24.864C75.8475 24.704 75.5595 24.496 75.3569 24.24C75.1542 23.984 75.0529 23.704 75.0529 23.4C75.0529 23.08 75.1435 22.808 75.3249 22.584C75.5062 22.36 75.7409 22.1893 76.0289 22.072C76.3222 21.9547 76.6369 21.896 76.9729 21.896L77.2129 22.36C77.0529 22.36 76.8902 22.3973 76.7249 22.472C76.5649 22.5413 76.4289 22.648 76.3169 22.792C76.2102 22.9307 76.1569 23.1067 76.1569 23.32C76.1569 23.5653 76.2582 23.7707 76.4609 23.936C76.6635 24.1013 77.0315 24.184 77.5649 24.184H80.5409C81.2609 24.184 81.8262 24.336 82.2369 24.64C82.6529 24.944 82.8609 25.368 82.8609 25.912C82.8609 26.4133 82.6822 26.8933 82.3249 27.352C81.9675 27.816 81.4555 28.1947 80.7889 28.488C80.1222 28.7867 79.3249 28.936 78.3969 28.936ZM78.6209 22.76C78.0342 22.76 77.5035 22.6427 77.0289 22.408C76.5595 22.1733 76.1862 21.8453 75.9089 21.424C75.6369 21.0027 75.5009 20.5147 75.5009 19.96C75.5009 19.4 75.6369 18.9093 75.9089 18.488C76.1862 18.0667 76.5595 17.7413 77.0289 17.512C77.5035 17.2773 78.0342 17.16 78.6209 17.16C79.1915 17.16 79.7089 17.2773 80.1729 17.512C80.6422 17.7413 81.0155 18.0667 81.2929 18.488C81.5702 18.9093 81.7089 19.4 81.7089 19.96C81.7089 20.5147 81.5702 21.0027 81.2929 21.424C81.0155 21.8453 80.6422 22.1733 80.1729 22.408C79.7089 22.6427 79.1915 22.76 78.6209 22.76ZM78.6209 21.864C79.2075 21.864 79.6635 21.6827 79.9889 21.32C80.3142 20.9573 80.4769 20.504 80.4769 19.96C80.4769 19.4 80.3142 18.9467 79.9889 18.6C79.6635 18.248 79.2075 18.072 78.6209 18.072C78.0395 18.072 77.5809 18.248 77.2449 18.6C76.9142 18.9467 76.7489 19.4 76.7489 19.96C76.7489 20.504 76.9142 20.9573 77.2449 21.32C77.5809 21.6827 78.0395 21.864 78.6209 21.864ZM81.1329 18.376L80.5409 18.136C80.5409 17.688 80.6289 17.296 80.8049 16.96C80.9809 16.6187 81.2315 16.3547 81.5569 16.168C81.8822 15.976 82.2689 15.88 82.7169 15.88L82.6209 17.112C82.1409 17.112 81.7729 17.216 81.5169 17.424C81.2609 17.6267 81.1329 17.944 81.1329 18.376ZM90.0841 17.336H91.3321V25H90.0841V17.336ZM84.6601 17.336H85.9081V22.104C85.9081 22.744 86.0628 23.2293 86.3721 23.56C86.6868 23.8907 87.1348 24.056 87.7161 24.056C88.1961 24.056 88.6121 23.928 88.9641 23.672C89.3215 23.416 89.5961 23.064 89.7881 22.616C89.9855 22.1627 90.0841 21.6453 90.0841 21.064H90.5481C90.5481 21.9227 90.4228 22.656 90.1721 23.264C89.9268 23.872 89.5775 24.3387 89.1241 24.664C88.6761 24.984 88.1481 25.144 87.5401 25.144C86.9641 25.144 86.4601 25.0373 86.0281 24.824C85.5961 24.6107 85.2601 24.288 85.0201 23.856C84.7801 23.4187 84.6601 22.8667 84.6601 22.2V17.336ZM97.3876 25.192C96.7263 25.192 96.1343 25.024 95.6116 24.688C95.0943 24.3467 94.6836 23.8747 94.3796 23.272C94.081 22.6693 93.9316 21.976 93.9316 21.192C93.9316 20.3547 94.081 19.6347 94.3796 19.032C94.6783 18.4293 95.0863 17.968 95.6036 17.648C96.1263 17.3227 96.721 17.16 97.3876 17.16C97.969 17.16 98.465 17.2773 98.8756 17.512C99.2863 17.7467 99.617 18.064 99.8676 18.464C100.118 18.864 100.292 19.3173 100.388 19.824C100.489 20.3253 100.518 20.8453 100.476 21.384H94.9396V20.616H99.6516L99.2836 20.856C99.2996 20.5413 99.281 20.2267 99.2276 19.912C99.1796 19.5973 99.0863 19.3093 98.9476 19.048C98.809 18.7813 98.6143 18.568 98.3636 18.408C98.113 18.248 97.793 18.168 97.4036 18.168C96.913 18.168 96.5023 18.2933 96.1716 18.544C95.841 18.7947 95.593 19.1253 95.4276 19.536C95.2623 19.9413 95.1796 20.3813 95.1796 20.856V21.368C95.1796 21.9013 95.2596 22.3787 95.4196 22.8C95.585 23.2213 95.8303 23.5547 96.1556 23.8C96.481 24.0453 96.8916 24.168 97.3876 24.168C97.8836 24.168 98.2916 24.048 98.6116 23.808C98.9316 23.568 99.1263 23.2133 99.1956 22.744H100.492C100.412 23.2507 100.23 23.688 99.9476 24.056C99.665 24.4187 99.305 24.6987 98.8676 24.896C98.4303 25.0933 97.937 25.192 97.3876 25.192ZM105.862 25.192C105.121 25.192 104.502 25.088 104.006 24.88C103.51 24.6667 103.134 24.376 102.878 24.008C102.622 23.6347 102.486 23.208 102.47 22.728H103.67C103.697 23.2133 103.892 23.5787 104.254 23.824C104.622 24.064 105.121 24.184 105.75 24.184C106.081 24.184 106.385 24.1307 106.662 24.024C106.94 23.9173 107.161 23.7707 107.326 23.584C107.492 23.3973 107.574 23.1867 107.574 22.952C107.574 22.6533 107.465 22.4187 107.246 22.248C107.028 22.0773 106.678 21.928 106.198 21.8L104.71 21.32C104.065 21.1173 103.569 20.84 103.222 20.488C102.881 20.1307 102.71 19.704 102.71 19.208C102.71 18.5893 102.982 18.0933 103.526 17.72C104.07 17.3467 104.785 17.16 105.67 17.16C106.609 17.16 107.337 17.352 107.854 17.736C108.372 18.12 108.641 18.6 108.662 19.176H107.43C107.382 18.84 107.212 18.5867 106.918 18.416C106.625 18.24 106.209 18.152 105.67 18.152C105.153 18.152 104.748 18.2693 104.454 18.504C104.166 18.7333 104.022 18.9893 104.022 19.272C104.022 19.8 104.476 20.1893 105.382 20.44L106.902 20.952C107.558 21.1493 108.06 21.408 108.406 21.728C108.758 22.048 108.934 22.456 108.934 22.952C108.934 23.336 108.809 23.6987 108.558 24.04C108.308 24.3813 107.953 24.6587 107.494 24.872C107.036 25.0853 106.492 25.192 105.862 25.192ZM114.429 25.192C113.687 25.192 113.069 25.088 112.573 24.88C112.077 24.6667 111.701 24.376 111.445 24.008C111.189 23.6347 111.053 23.208 111.037 22.728H112.237C112.263 23.2133 112.458 23.5787 112.821 23.824C113.189 24.064 113.687 24.184 114.317 24.184C114.647 24.184 114.951 24.1307 115.229 24.024C115.506 23.9173 115.727 23.7707 115.893 23.584C116.058 23.3973 116.141 23.1867 116.141 22.952C116.141 22.6533 116.031 22.4187 115.813 22.248C115.594 22.0773 115.245 21.928 114.765 21.8L113.277 21.32C112.631 21.1173 112.135 20.84 111.789 20.488C111.447 20.1307 111.277 19.704 111.277 19.208C111.277 18.5893 111.549 18.0933 112.093 17.72C112.637 17.3467 113.351 17.16 114.237 17.16C115.175 17.16 115.903 17.352 116.421 17.736C116.938 18.12 117.207 18.6 117.229 19.176H115.997C115.949 18.84 115.778 18.5867 115.485 18.416C115.191 18.24 114.775 18.152 114.237 18.152C113.719 18.152 113.314 18.2693 113.021 18.504C112.733 18.7333 112.589 18.9893 112.589 19.272C112.589 19.8 113.042 20.1893 113.949 20.44L115.469 20.952C116.125 21.1493 116.626 21.408 116.973 21.728C117.325 22.048 117.501 22.456 117.501 22.952C117.501 23.336 117.375 23.6987 117.125 24.04C116.874 24.3813 116.519 24.6587 116.061 24.872C115.602 25.0853 115.058 25.192 114.429 25.192ZM124.904 15.544C124.648 15.544 124.445 15.472 124.296 15.328C124.146 15.1787 124.072 14.984 124.072 14.744C124.072 14.5093 124.146 14.3227 124.296 14.184C124.445 14.0453 124.648 13.976 124.904 13.976C125.16 13.976 125.362 14.0453 125.512 14.184C125.661 14.3227 125.736 14.5093 125.736 14.744C125.736 14.984 125.661 15.1787 125.512 15.328C125.362 15.472 125.16 15.544 124.904 15.544ZM124.28 25V17.336H125.528V25H124.28ZM131.477 25.192C131.061 25.192 130.688 25.112 130.357 24.952C130.027 24.792 129.765 24.552 129.573 24.232C129.381 23.912 129.285 23.512 129.285 23.032V15.224H130.517V23C130.517 23.7893 130.885 24.184 131.621 24.184C131.84 24.184 132.051 24.16 132.253 24.112C132.461 24.064 132.693 23.992 132.949 23.896L133.125 24.792C132.853 24.9093 132.581 25.0053 132.309 25.08C132.043 25.1547 131.765 25.192 131.477 25.192ZM128.053 18.216V17.352H132.933V18.216H128.053ZM137.93 17.352H139.226L141.178 23.736H141.018L142.922 17.72H143.962L145.85 23.752H145.706L147.658 17.352H148.906L146.394 25H145.178L143.322 19.352H143.514L141.674 25H140.458L137.93 17.352ZM155.748 25L155.588 23.32V20.04C155.588 19.352 155.441 18.8587 155.148 18.56C154.854 18.256 154.414 18.104 153.828 18.104C153.497 18.104 153.196 18.152 152.924 18.248C152.657 18.344 152.444 18.4933 152.284 18.696C152.129 18.8933 152.052 19.1493 152.052 19.464H150.66C150.66 18.9093 150.796 18.464 151.068 18.128C151.34 17.7867 151.713 17.5413 152.188 17.392C152.668 17.2373 153.214 17.16 153.828 17.16C154.414 17.16 154.934 17.2587 155.388 17.456C155.841 17.6533 156.196 17.968 156.452 18.4C156.708 18.8267 156.836 19.384 156.836 20.072V25H155.748ZM153.14 25.192C152.51 25.192 151.99 25.08 151.58 24.856C151.169 24.632 150.862 24.3413 150.66 23.984C150.457 23.6267 150.356 23.2507 150.356 22.856C150.356 22.3387 150.484 21.9173 150.74 21.592C151.001 21.2667 151.356 21.0293 151.804 20.88C152.252 20.7253 152.756 20.648 153.316 20.648C153.716 20.648 154.116 20.688 154.516 20.768C154.921 20.848 155.316 20.9573 155.7 21.096V21.88C155.38 21.752 155.017 21.6507 154.612 21.576C154.212 21.5013 153.844 21.464 153.508 21.464C152.996 21.464 152.564 21.5707 152.212 21.784C151.86 21.992 151.684 22.3493 151.684 22.856C151.684 23.2293 151.817 23.5493 152.084 23.816C152.356 24.0827 152.788 24.216 153.38 24.216C153.796 24.216 154.169 24.12 154.5 23.928C154.836 23.7307 155.1 23.4853 155.292 23.192C155.489 22.8987 155.588 22.6053 155.588 22.312H155.892C155.892 22.824 155.78 23.2987 155.556 23.736C155.337 24.1733 155.022 24.5253 154.612 24.792C154.201 25.0587 153.71 25.192 153.14 25.192ZM162.736 25.192C161.995 25.192 161.376 25.088 160.88 24.88C160.384 24.6667 160.008 24.376 159.752 24.008C159.496 23.6347 159.36 23.208 159.344 22.728H160.544C160.571 23.2133 160.765 23.5787 161.128 23.824C161.496 24.064 161.995 24.184 162.624 24.184C162.955 24.184 163.259 24.1307 163.536 24.024C163.813 23.9173 164.035 23.7707 164.2 23.584C164.365 23.3973 164.448 23.1867 164.448 22.952C164.448 22.6533 164.339 22.4187 164.12 22.248C163.901 22.0773 163.552 21.928 163.072 21.8L161.584 21.32C160.939 21.1173 160.443 20.84 160.096 20.488C159.755 20.1307 159.584 19.704 159.584 19.208C159.584 18.5893 159.856 18.0933 160.4 17.72C160.944 17.3467 161.659 17.16 162.544 17.16C163.483 17.16 164.211 17.352 164.728 17.736C165.245 18.12 165.515 18.6 165.536 19.176H164.304C164.256 18.84 164.085 18.5867 163.792 18.416C163.499 18.24 163.083 18.152 162.544 18.152C162.027 18.152 161.621 18.2693 161.328 18.504C161.04 18.7333 160.896 18.9893 160.896 19.272C160.896 19.8 161.349 20.1893 162.256 20.44L163.776 20.952C164.432 21.1493 164.933 21.408 165.28 21.728C165.632 22.048 165.808 22.456 165.808 22.952C165.808 23.336 165.683 23.6987 165.432 24.04C165.181 24.3813 164.827 24.6587 164.368 24.872C163.909 25.0853 163.365 25.192 162.736 25.192ZM177.243 25L177.083 23.32V20.04C177.083 19.352 176.937 18.8587 176.643 18.56C176.35 18.256 175.91 18.104 175.323 18.104C174.993 18.104 174.691 18.152 174.419 18.248C174.153 18.344 173.939 18.4933 173.779 18.696C173.625 18.8933 173.547 19.1493 173.547 19.464H172.155C172.155 18.9093 172.291 18.464 172.563 18.128C172.835 17.7867 173.209 17.5413 173.683 17.392C174.163 17.2373 174.71 17.16 175.323 17.16C175.91 17.16 176.43 17.2587 176.883 17.456C177.337 17.6533 177.691 17.968 177.947 18.4C178.203 18.8267 178.331 19.384 178.331 20.072V25H177.243ZM174.635 25.192C174.006 25.192 173.486 25.08 173.075 24.856C172.665 24.632 172.358 24.3413 172.155 23.984C171.953 23.6267 171.851 23.2507 171.851 22.856C171.851 22.3387 171.979 21.9173 172.235 21.592C172.497 21.2667 172.851 21.0293 173.299 20.88C173.747 20.7253 174.251 20.648 174.811 20.648C175.211 20.648 175.611 20.688 176.011 20.768C176.417 20.848 176.811 20.9573 177.195 21.096V21.88C176.875 21.752 176.513 21.6507 176.107 21.576C175.707 21.5013 175.339 21.464 175.003 21.464C174.491 21.464 174.059 21.5707 173.707 21.784C173.355 21.992 173.179 22.3493 173.179 22.856C173.179 23.2293 173.313 23.5493 173.579 23.816C173.851 24.0827 174.283 24.216 174.875 24.216C175.291 24.216 175.665 24.12 175.995 23.928C176.331 23.7307 176.595 23.4853 176.787 23.192C176.985 22.8987 177.083 22.6053 177.083 22.312H177.387C177.387 22.824 177.275 23.2987 177.051 23.736C176.833 24.1733 176.518 24.5253 176.107 24.792C175.697 25.0587 175.206 25.192 174.635 25.192ZM24.288 37.352H25.584L27.536 43.736H27.376L29.28 37.72H30.32L32.208 43.752H32.064L34.016 37.352H35.264L32.752 45H31.536L29.68 39.352H29.872L28.032 45H26.816L24.288 37.352ZM42.1058 45L41.9458 43.32V40.04C41.9458 39.352 41.7991 38.8587 41.5058 38.56C41.2124 38.256 40.7724 38.104 40.1858 38.104C39.8551 38.104 39.5537 38.152 39.2817 38.248C39.0151 38.344 38.8018 38.4933 38.6418 38.696C38.4871 38.8933 38.4097 39.1493 38.4097 39.464H37.0177C37.0177 38.9093 37.1537 38.464 37.4257 38.128C37.6977 37.7867 38.0711 37.5413 38.5457 37.392C39.0257 37.2373 39.5724 37.16 40.1858 37.16C40.7724 37.16 41.2924 37.2587 41.7457 37.456C42.1991 37.6533 42.5538 37.968 42.8098 38.4C43.0658 38.8267 43.1938 39.384 43.1938 40.072V45H42.1058ZM39.4978 45.192C38.8684 45.192 38.3484 45.08 37.9377 44.856C37.5271 44.632 37.2204 44.3413 37.0177 43.984C36.8151 43.6267 36.7137 43.2507 36.7137 42.856C36.7137 42.3387 36.8417 41.9173 37.0977 41.592C37.3591 41.2667 37.7137 41.0293 38.1618 40.88C38.6098 40.7253 39.1137 40.648 39.6737 40.648C40.0737 40.648 40.4737 40.688 40.8738 40.768C41.2791 40.848 41.6738 40.9573 42.0578 41.096V41.88C41.7378 41.752 41.3751 41.6507 40.9697 41.576C40.5697 41.5013 40.2017 41.464 39.8657 41.464C39.3537 41.464 38.9217 41.5707 38.5698 41.784C38.2177 41.992 38.0417 42.3493 38.0417 42.856C38.0417 43.2293 38.1751 43.5493 38.4418 43.816C38.7138 44.0827 39.1458 44.216 39.7378 44.216C40.1538 44.216 40.5271 44.12 40.8577 43.928C41.1938 43.7307 41.4578 43.4853 41.6498 43.192C41.8471 42.8987 41.9458 42.6053 41.9458 42.312H42.2498C42.2498 42.824 42.1378 43.2987 41.9138 43.736C41.6951 44.1733 41.3804 44.5253 40.9697 44.792C40.5591 45.0587 40.0684 45.192 39.4978 45.192ZM49.0942 45.192C48.3529 45.192 47.7342 45.088 47.2382 44.88C46.7422 44.6667 46.3662 44.376 46.1102 44.008C45.8542 43.6347 45.7182 43.208 45.7022 42.728H46.9022C46.9289 43.2133 47.1236 43.5787 47.4862 43.824C47.8542 44.064 48.3529 44.184 48.9822 44.184C49.3129 44.184 49.6169 44.1307 49.8942 44.024C50.1716 43.9173 50.3929 43.7707 50.5582 43.584C50.7236 43.3973 50.8063 43.1867 50.8063 42.952C50.8063 42.6533 50.6969 42.4187 50.4783 42.248C50.2596 42.0773 49.9102 41.928 49.4302 41.8L47.9422 41.32C47.2969 41.1173 46.8009 40.84 46.4542 40.488C46.1129 40.1307 45.9422 39.704 45.9422 39.208C45.9422 38.5893 46.2142 38.0933 46.7582 37.72C47.3022 37.3467 48.0169 37.16 48.9022 37.16C49.8409 37.16 50.5689 37.352 51.0862 37.736C51.6036 38.12 51.8729 38.6 51.8942 39.176H50.6623C50.6143 38.84 50.4436 38.5867 50.1502 38.416C49.8569 38.24 49.4409 38.152 48.9022 38.152C48.3849 38.152 47.9796 38.2693 47.6862 38.504C47.3982 38.7333 47.2542 38.9893 47.2542 39.272C47.2542 39.8 47.7076 40.1893 48.6142 40.44L50.1343 40.952C50.7902 41.1493 51.2916 41.408 51.6382 41.728C51.9903 42.048 52.1663 42.456 52.1663 42.952C52.1663 43.336 52.0409 43.6987 51.7902 44.04C51.5396 44.3813 51.1849 44.6587 50.7263 44.872C50.2676 45.0853 49.7236 45.192 49.0942 45.192ZM58.3805 45.192C57.8205 45.192 57.3325 45.064 56.9165 44.808C56.5058 44.552 56.1885 44.1787 55.9645 43.688C55.7405 43.192 55.6285 42.5893 55.6285 41.88H56.1565C56.1565 42.3547 56.2552 42.7547 56.4525 43.08C56.6498 43.4053 56.9058 43.6533 57.2205 43.824C57.5405 43.9893 57.8792 44.072 58.2365 44.072C58.6205 44.072 58.9885 43.9627 59.3405 43.744C59.6925 43.52 59.9805 43.192 60.2045 42.76C60.4285 42.328 60.5405 41.7947 60.5405 41.16C60.5405 40.552 60.4365 40.032 60.2285 39.6C60.0258 39.168 59.7512 38.8373 59.4045 38.608C59.0578 38.3787 58.6738 38.264 58.2525 38.264C57.8898 38.264 57.5485 38.352 57.2285 38.528C56.9085 38.704 56.6498 38.9627 56.4525 39.304C56.2552 39.64 56.1565 40.056 56.1565 40.552H55.6285C55.6285 39.8107 55.7512 39.1893 55.9965 38.688C56.2418 38.1813 56.5752 37.8 56.9965 37.544C57.4178 37.288 57.8898 37.16 58.4125 37.16C59.0098 37.16 59.5672 37.32 60.0845 37.64C60.6018 37.96 61.0205 38.4187 61.3405 39.016C61.6605 39.6133 61.8205 40.328 61.8205 41.16C61.8205 42.0027 61.6578 42.7253 61.3325 43.328C61.0125 43.9307 60.5912 44.392 60.0685 44.712C59.5458 45.032 58.9832 45.192 58.3805 45.192ZM54.9085 48.76V37.352H55.9485L56.1565 39.144V48.76H54.9085ZM63.2919 44.256C63.2919 44.0053 63.3799 43.7893 63.5559 43.608C63.7319 43.4267 63.9532 43.336 64.2199 43.336C64.4865 43.336 64.7132 43.4267 64.8999 43.608C65.0865 43.7893 65.1799 44.0053 65.1799 44.256C65.1799 44.5067 65.0865 44.7173 64.8999 44.888C64.7132 45.0587 64.4865 45.144 64.2199 45.144C63.9532 45.144 63.7319 45.0587 63.5559 44.888C63.3799 44.712 63.2919 44.5013 63.2919 44.256ZM66.3112 44.256C66.3112 44.0053 66.3992 43.7893 66.5752 43.608C66.7512 43.4267 66.9726 43.336 67.2392 43.336C67.5059 43.336 67.7326 43.4267 67.9192 43.608C68.1059 43.7893 68.1992 44.0053 68.1992 44.256C68.1992 44.5067 68.1059 44.7173 67.9192 44.888C67.7326 45.0587 67.5059 45.144 67.2392 45.144C66.9726 45.144 66.7512 45.0587 66.5752 44.888C66.3992 44.712 66.3112 44.5013 66.3112 44.256ZM69.3306 44.256C69.3306 44.0053 69.4186 43.7893 69.5946 43.608C69.7706 43.4267 69.992 43.336 70.2586 43.336C70.5253 43.336 70.752 43.4267 70.9386 43.608C71.1253 43.7893 71.2186 44.0053 71.2186 44.256C71.2186 44.5067 71.1253 44.7173 70.9386 44.888C70.752 45.0587 70.5253 45.144 70.2586 45.144C69.992 45.144 69.7706 45.0587 69.5946 44.888C69.4186 44.712 69.3306 44.5013 69.3306 44.256ZM80.1949 45.192C79.4535 45.192 78.8349 45.088 78.3389 44.88C77.8429 44.6667 77.4669 44.376 77.2109 44.008C76.9549 43.6347 76.8189 43.208 76.8029 42.728H78.0029C78.0295 43.2133 78.2242 43.5787 78.5869 43.824C78.9549 44.064 79.4535 44.184 80.0829 44.184C80.4135 44.184 80.7175 44.1307 80.9949 44.024C81.2722 43.9173 81.4935 43.7707 81.6589 43.584C81.8242 43.3973 81.9069 43.1867 81.9069 42.952C81.9069 42.6533 81.7975 42.4187 81.5789 42.248C81.3602 42.0773 81.0109 41.928 80.5309 41.8L79.0429 41.32C78.3975 41.1173 77.9015 40.84 77.5549 40.488C77.2135 40.1307 77.0429 39.704 77.0429 39.208C77.0429 38.5893 77.3149 38.0933 77.8589 37.72C78.4029 37.3467 79.1175 37.16 80.0029 37.16C80.9415 37.16 81.6695 37.352 82.1869 37.736C82.7042 38.12 82.9735 38.6 82.9949 39.176H81.7629C81.7149 38.84 81.5442 38.5867 81.2509 38.416C80.9575 38.24 80.5415 38.152 80.0029 38.152C79.4855 38.152 79.0802 38.2693 78.7869 38.504C78.4989 38.7333 78.3549 38.9893 78.3549 39.272C78.3549 39.8 78.8082 40.1893 79.7149 40.44L81.2349 40.952C81.8909 41.1493 82.3922 41.408 82.7389 41.728C83.0909 42.048 83.2669 42.456 83.2669 42.952C83.2669 43.336 83.1415 43.6987 82.8909 44.04C82.6402 44.3813 82.2855 44.6587 81.8269 44.872C81.3682 45.0853 80.8242 45.192 80.1949 45.192ZM88.6651 45.192C88.0038 45.192 87.4118 45.024 86.8891 44.688C86.3718 44.3467 85.9611 43.8747 85.6571 43.272C85.3585 42.6693 85.2091 41.976 85.2091 41.192C85.2091 40.3547 85.3585 39.6347 85.6571 39.032C85.9558 38.4293 86.3638 37.968 86.8811 37.648C87.4038 37.3227 87.9985 37.16 88.6651 37.16C89.2465 37.16 89.7425 37.2773 90.1531 37.512C90.5638 37.7467 90.8945 38.064 91.1451 38.464C91.3958 38.864 91.5691 39.3173 91.6651 39.824C91.7665 40.3253 91.7958 40.8453 91.7531 41.384H86.2171V40.616H90.9291L90.5611 40.856C90.5771 40.5413 90.5585 40.2267 90.5051 39.912C90.4571 39.5973 90.3638 39.3093 90.2251 39.048C90.0865 38.7813 89.8918 38.568 89.6411 38.408C89.3905 38.248 89.0705 38.168 88.6811 38.168C88.1905 38.168 87.7798 38.2933 87.4491 38.544C87.1185 38.7947 86.8705 39.1253 86.7051 39.536C86.5398 39.9413 86.4571 40.3813 86.4571 40.856V41.368C86.4571 41.9013 86.5371 42.3787 86.6971 42.8C86.8625 43.2213 87.1078 43.5547 87.4331 43.8C87.7585 44.0453 88.1691 44.168 88.6651 44.168C89.1611 44.168 89.5691 44.048 89.8891 43.808C90.2091 43.568 90.4038 43.2133 90.4731 42.744H91.7691C91.6891 43.2507 91.5078 43.688 91.2251 44.056C90.9425 44.4187 90.5825 44.6987 90.1451 44.896C89.7078 45.0933 89.2145 45.192 88.6651 45.192ZM99.1239 45L98.9639 43.32V40.04C98.9639 39.352 98.8172 38.8587 98.5239 38.56C98.2305 38.256 97.7905 38.104 97.2039 38.104C96.8732 38.104 96.5719 38.152 96.2999 38.248C96.0332 38.344 95.8199 38.4933 95.6599 38.696C95.5052 38.8933 95.4279 39.1493 95.4279 39.464H94.0359C94.0359 38.9093 94.1719 38.464 94.4439 38.128C94.7159 37.7867 95.0892 37.5413 95.5639 37.392C96.0439 37.2373 96.5905 37.16 97.2039 37.16C97.7905 37.16 98.3105 37.2587 98.7639 37.456C99.2172 37.6533 99.5719 37.968 99.8279 38.4C100.084 38.8267 100.212 39.384 100.212 40.072V45H99.1239ZM96.5159 45.192C95.8865 45.192 95.3665 45.08 94.9559 44.856C94.5452 44.632 94.2385 44.3413 94.0359 43.984C93.8332 43.6267 93.7319 43.2507 93.7319 42.856C93.7319 42.3387 93.8599 41.9173 94.1159 41.592C94.3772 41.2667 94.7319 41.0293 95.1799 40.88C95.6279 40.7253 96.1319 40.648 96.6919 40.648C97.0919 40.648 97.4919 40.688 97.8919 40.768C98.2972 40.848 98.6919 40.9573 99.0759 41.096V41.88C98.7559 41.752 98.3932 41.6507 97.9879 41.576C97.5879 41.5013 97.2199 41.464 96.8839 41.464C96.3719 41.464 95.9399 41.5707 95.5879 41.784C95.2359 41.992 95.0599 42.3493 95.0599 42.856C95.0599 43.2293 95.1932 43.5493 95.4599 43.816C95.7319 44.0827 96.1639 44.216 96.7559 44.216C97.1719 44.216 97.5452 44.12 97.8759 43.928C98.2119 43.7307 98.4759 43.4853 98.6679 43.192C98.8652 42.8987 98.9639 42.6053 98.9639 42.312H99.2679C99.2679 42.824 99.1559 43.2987 98.9319 43.736C98.7132 44.1733 98.3985 44.5253 97.9879 44.792C97.5772 45.0587 97.0865 45.192 96.5159 45.192ZM103.36 45V37.336H104.608V45H103.36ZM104.224 41.544C104.224 40.5733 104.318 39.768 104.504 39.128C104.691 38.4827 104.963 38.0027 105.32 37.688C105.683 37.368 106.123 37.208 106.64 37.208C106.811 37.208 106.966 37.2213 107.104 37.248C107.248 37.2693 107.392 37.304 107.536 37.352L107.456 38.584C107.307 38.536 107.144 38.496 106.968 38.464C106.792 38.4267 106.635 38.408 106.496 38.408C106.043 38.408 105.678 38.5387 105.4 38.8C105.123 39.056 104.92 39.4187 104.792 39.888C104.67 40.3573 104.608 40.9093 104.608 41.544H104.224ZM111.99 45.192C111.376 45.192 110.803 45.0267 110.27 44.696C109.742 44.3653 109.315 43.8987 108.99 43.296C108.664 42.6933 108.502 41.9813 108.502 41.16C108.502 40.3173 108.664 39.5973 108.99 39C109.315 38.4027 109.742 37.9467 110.27 37.632C110.803 37.3173 111.376 37.16 111.99 37.16C112.422 37.16 112.808 37.2267 113.15 37.36C113.496 37.488 113.798 37.6667 114.054 37.896C114.31 38.1253 114.52 38.3867 114.686 38.68C114.856 38.968 114.982 39.272 115.062 39.592L113.782 39.704C113.648 39.2613 113.424 38.912 113.11 38.656C112.8 38.3947 112.422 38.264 111.974 38.264C111.595 38.264 111.238 38.3733 110.902 38.592C110.571 38.8053 110.302 39.128 110.094 39.56C109.886 39.9867 109.782 40.52 109.782 41.16C109.782 41.752 109.875 42.2667 110.062 42.704C110.254 43.136 110.515 43.472 110.846 43.712C111.176 43.952 111.552 44.072 111.974 44.072C112.566 44.072 113.014 43.928 113.318 43.64C113.627 43.3467 113.782 42.9413 113.782 42.424H115.062C115.062 42.9573 114.936 43.432 114.686 43.848C114.435 44.264 114.078 44.592 113.614 44.832C113.155 45.072 112.614 45.192 111.99 45.192ZM123.152 45V40.504C123.152 39.7733 122.976 39.2187 122.624 38.84C122.277 38.456 121.802 38.264 121.2 38.264C120.741 38.264 120.344 38.3893 120.008 38.64C119.672 38.8907 119.413 39.2507 119.232 39.72C119.05 40.184 118.96 40.7387 118.96 41.384H118.48C118.48 40.4933 118.597 39.7333 118.832 39.104C119.066 38.4747 119.408 37.9947 119.856 37.664C120.309 37.328 120.858 37.16 121.504 37.16C122.106 37.16 122.621 37.296 123.048 37.568C123.48 37.8347 123.81 38.2187 124.04 38.72C124.269 39.2213 124.384 39.816 124.384 40.504V45H123.152ZM117.712 45V34.088H118.96V45H117.712ZM132.189 35.544C131.933 35.544 131.73 35.472 131.581 35.328C131.431 35.1787 131.357 34.984 131.357 34.744C131.357 34.5093 131.431 34.3227 131.581 34.184C131.73 34.0453 131.933 33.976 132.189 33.976C132.445 33.976 132.647 34.0453 132.797 34.184C132.946 34.3227 133.021 34.5093 133.021 34.744C133.021 34.984 132.946 35.1787 132.797 35.328C132.647 35.472 132.445 35.544 132.189 35.544ZM131.565 45V37.336H132.813V45H131.565ZM141.85 45V40.504C141.85 39.7733 141.674 39.2187 141.322 38.84C140.976 38.456 140.501 38.264 139.898 38.264C139.44 38.264 139.042 38.3893 138.706 38.64C138.37 38.8907 138.112 39.2507 137.93 39.72C137.749 40.184 137.658 40.7387 137.658 41.384H137.178C137.178 40.4933 137.296 39.7333 137.53 39.104C137.765 38.4747 138.106 37.9947 138.554 37.664C139.008 37.328 139.557 37.16 140.202 37.16C140.805 37.16 141.32 37.296 141.746 37.568C142.178 37.8347 142.509 38.2187 142.738 38.72C142.968 39.2213 143.082 39.816 143.082 40.504V45H141.85ZM136.41 45V37.352H137.482L137.658 39.112V45H136.41ZM152.535 45.192C152.119 45.192 151.746 45.112 151.415 44.952C151.085 44.792 150.823 44.552 150.631 44.232C150.439 43.912 150.343 43.512 150.343 43.032V35.224H151.575V43C151.575 43.7893 151.943 44.184 152.679 44.184C152.898 44.184 153.109 44.16 153.311 44.112C153.519 44.064 153.751 43.992 154.007 43.896L154.183 44.792C153.911 44.9093 153.639 45.0053 153.367 45.08C153.101 45.1547 152.823 45.192 152.535 45.192ZM149.111 38.216V37.352H153.991V38.216H149.111ZM161.799 45V40.504C161.799 39.7733 161.623 39.2187 161.271 38.84C160.924 38.456 160.45 38.264 159.847 38.264C159.388 38.264 158.991 38.3893 158.655 38.64C158.319 38.8907 158.06 39.2507 157.879 39.72C157.698 40.184 157.607 40.7387 157.607 41.384H157.127C157.127 40.4933 157.244 39.7333 157.479 39.104C157.714 38.4747 158.055 37.9947 158.503 37.664C158.956 37.328 159.506 37.16 160.151 37.16C160.754 37.16 161.268 37.296 161.695 37.568C162.127 37.8347 162.458 38.2187 162.687 38.72C162.916 39.2213 163.031 39.816 163.031 40.504V45H161.799ZM156.359 45V34.088H157.607V45H156.359ZM168.831 45.192C168.17 45.192 167.578 45.024 167.055 44.688C166.538 44.3467 166.127 43.8747 165.823 43.272C165.525 42.6693 165.375 41.976 165.375 41.192C165.375 40.3547 165.525 39.6347 165.823 39.032C166.122 38.4293 166.53 37.968 167.047 37.648C167.57 37.3227 168.165 37.16 168.831 37.16C169.413 37.16 169.909 37.2773 170.319 37.512C170.73 37.7467 171.061 38.064 171.311 38.464C171.562 38.864 171.735 39.3173 171.831 39.824C171.933 40.3253 171.962 40.8453 171.919 41.384H166.383V40.616H171.095L170.727 40.856C170.743 40.5413 170.725 40.2267 170.671 39.912C170.623 39.5973 170.53 39.3093 170.391 39.048C170.253 38.7813 170.058 38.568 169.807 38.408C169.557 38.248 169.237 38.168 168.847 38.168C168.357 38.168 167.946 38.2933 167.615 38.544C167.285 38.7947 167.037 39.1253 166.871 39.536C166.706 39.9413 166.623 40.3813 166.623 40.856V41.368C166.623 41.9013 166.703 42.3787 166.863 42.8C167.029 43.2213 167.274 43.5547 167.599 43.8C167.925 44.0453 168.335 44.168 168.831 44.168C169.327 44.168 169.735 44.048 170.055 43.808C170.375 43.568 170.57 43.2133 170.639 42.744H171.935C171.855 43.2507 171.674 43.688 171.391 44.056C171.109 44.4187 170.749 44.6987 170.311 44.896C169.874 45.0933 169.381 45.192 168.831 45.192ZM181.279 45.192C180.591 45.192 179.978 45.04 179.439 44.736C178.906 44.432 178.484 43.9813 178.175 43.384C177.866 42.7867 177.711 42.0507 177.711 41.176C177.711 40.296 177.866 39.56 178.175 38.968C178.484 38.3707 178.906 37.92 179.439 37.616C179.978 37.312 180.591 37.16 181.279 37.16C181.962 37.16 182.57 37.312 183.103 37.616C183.642 37.92 184.063 38.3707 184.367 38.968C184.676 39.56 184.831 40.296 184.831 41.176C184.831 42.0507 184.676 42.7867 184.367 43.384C184.063 43.9813 183.642 44.432 183.103 44.736C182.57 45.04 181.962 45.192 181.279 45.192ZM181.247 44.104C181.743 44.104 182.164 43.9867 182.511 43.752C182.858 43.512 183.119 43.1733 183.295 42.736C183.476 42.2987 183.567 41.7787 183.567 41.176C183.567 40.264 183.378 39.5467 182.999 39.024C182.62 38.496 182.058 38.232 181.311 38.232C180.81 38.232 180.386 38.352 180.039 38.592C179.698 38.8267 179.436 39.1653 179.255 39.608C179.079 40.0453 178.991 40.568 178.991 41.176C178.991 42.0773 179.18 42.792 179.559 43.32C179.943 43.8427 180.506 44.104 181.247 44.104ZM189.773 45.192C189.357 45.192 188.984 45.112 188.653 44.952C188.322 44.792 188.061 44.552 187.869 44.232C187.677 43.912 187.581 43.512 187.581 43.032V35.224H188.813V43C188.813 43.7893 189.181 44.184 189.917 44.184C190.136 44.184 190.346 44.16 190.549 44.112C190.757 44.064 190.989 43.992 191.245 43.896L191.421 44.792C191.149 44.9093 190.877 45.0053 190.605 45.08C190.338 45.1547 190.061 45.192 189.773 45.192ZM186.349 38.216V37.352H191.229V38.216H186.349ZM199.037 45V40.504C199.037 39.7733 198.861 39.2187 198.509 38.84C198.162 38.456 197.687 38.264 197.085 38.264C196.626 38.264 196.229 38.3893 195.893 38.64C195.557 38.8907 195.298 39.2507 195.117 39.72C194.935 40.184 194.845 40.7387 194.845 41.384H194.365C194.365 40.4933 194.482 39.7333 194.717 39.104C194.951 38.4747 195.293 37.9947 195.741 37.664C196.194 37.328 196.743 37.16 197.389 37.16C197.991 37.16 198.506 37.296 198.933 37.568C199.365 37.8347 199.695 38.2187 199.925 38.72C200.154 39.2213 200.269 39.816 200.269 40.504V45H199.037ZM193.597 45V34.088H194.845V45H193.597ZM206.069 45.192C205.408 45.192 204.816 45.024 204.293 44.688C203.776 44.3467 203.365 43.8747 203.061 43.272C202.762 42.6693 202.613 41.976 202.613 41.192C202.613 40.3547 202.762 39.6347 203.061 39.032C203.36 38.4293 203.768 37.968 204.285 37.648C204.808 37.3227 205.402 37.16 206.069 37.16C206.65 37.16 207.146 37.2773 207.557 37.512C207.968 37.7467 208.298 38.064 208.549 38.464C208.8 38.864 208.973 39.3173 209.069 39.824C209.17 40.3253 209.2 40.8453 209.157 41.384H203.621V40.616H208.333L207.965 40.856C207.981 40.5413 207.962 40.2267 207.909 39.912C207.861 39.5973 207.768 39.3093 207.629 39.048C207.49 38.7813 207.296 38.568 207.045 38.408C206.794 38.248 206.474 38.168 206.085 38.168C205.594 38.168 205.184 38.2933 204.853 38.544C204.522 38.7947 204.274 39.1253 204.109 39.536C203.944 39.9413 203.861 40.3813 203.861 40.856V41.368C203.861 41.9013 203.941 42.3787 204.101 42.8C204.266 43.2213 204.512 43.5547 204.837 43.8C205.162 44.0453 205.573 44.168 206.069 44.168C206.565 44.168 206.973 44.048 207.293 43.808C207.613 43.568 207.808 43.2133 207.877 42.744H209.173C209.093 43.2507 208.912 43.688 208.629 44.056C208.346 44.4187 207.986 44.6987 207.549 44.896C207.112 45.0933 206.618 45.192 206.069 45.192ZM211.792 45V37.336H213.04V45H211.792ZM212.656 41.544C212.656 40.5733 212.749 39.768 212.936 39.128C213.122 38.4827 213.394 38.0027 213.752 37.688C214.114 37.368 214.554 37.208 215.072 37.208C215.242 37.208 215.397 37.2213 215.536 37.248C215.68 37.2693 215.824 37.304 215.968 37.352L215.888 38.584C215.738 38.536 215.576 38.496 215.4 38.464C215.224 38.4267 215.066 38.408 214.928 38.408C214.474 38.408 214.109 38.5387 213.832 38.8C213.554 39.056 213.352 39.4187 213.224 39.888C213.101 40.3573 213.04 40.9093 213.04 41.544H212.656ZM29.088 65.192C28.528 65.192 28.04 65.064 27.624 64.808C27.2133 64.552 26.896 64.1787 26.672 63.688C26.448 63.192 26.336 62.5893 26.336 61.88H26.864C26.864 62.3547 26.9627 62.7547 27.16 63.08C27.3573 63.4053 27.6133 63.6533 27.928 63.824C28.248 63.9893 28.5867 64.072 28.944 64.072C29.328 64.072 29.696 63.9627 30.048 63.744C30.4 63.52 30.688 63.192 30.912 62.76C31.136 62.328 31.248 61.7947 31.248 61.16C31.248 60.552 31.144 60.032 30.936 59.6C30.7333 59.168 30.4587 58.8373 30.112 58.608C29.7653 58.3787 29.3813 58.264 28.96 58.264C28.5973 58.264 28.256 58.352 27.936 58.528C27.616 58.704 27.3573 58.9627 27.16 59.304C26.9627 59.64 26.864 60.056 26.864 60.552H26.336C26.336 59.8107 26.4587 59.1893 26.704 58.688C26.9493 58.1813 27.2827 57.8 27.704 57.544C28.1253 57.288 28.5973 57.16 29.12 57.16C29.7173 57.16 30.2747 57.32 30.792 57.64C31.3093 57.96 31.728 58.4187 32.048 59.016C32.368 59.6133 32.528 60.328 32.528 61.16C32.528 62.0027 32.3653 62.7253 32.04 63.328C31.72 63.9307 31.2987 64.392 30.776 64.712C30.2533 65.032 29.6907 65.192 29.088 65.192ZM25.616 68.76V57.352H26.656L26.864 59.144V68.76H25.616ZM39.8714 65L39.7114 63.32V60.04C39.7114 59.352 39.5647 58.8587 39.2714 58.56C38.978 58.256 38.538 58.104 37.9514 58.104C37.6207 58.104 37.3194 58.152 37.0474 58.248C36.7807 58.344 36.5674 58.4933 36.4074 58.696C36.2527 58.8933 36.1754 59.1493 36.1754 59.464H34.7834C34.7834 58.9093 34.9194 58.464 35.1914 58.128C35.4634 57.7867 35.8367 57.5413 36.3114 57.392C36.7914 57.2373 37.338 57.16 37.9514 57.16C38.538 57.16 39.058 57.2587 39.5114 57.456C39.9647 57.6533 40.3194 57.968 40.5754 58.4C40.8314 58.8267 40.9594 59.384 40.9594 60.072V65H39.8714ZM37.2634 65.192C36.634 65.192 36.114 65.08 35.7034 64.856C35.2927 64.632 34.986 64.3413 34.7834 63.984C34.5807 63.6267 34.4794 63.2507 34.4794 62.856C34.4794 62.3387 34.6074 61.9173 34.8634 61.592C35.1247 61.2667 35.4794 61.0293 35.9274 60.88C36.3754 60.7253 36.8794 60.648 37.4394 60.648C37.8394 60.648 38.2394 60.688 38.6394 60.768C39.0447 60.848 39.4394 60.9573 39.8234 61.096V61.88C39.5034 61.752 39.1407 61.6507 38.7354 61.576C38.3354 61.5013 37.9674 61.464 37.6314 61.464C37.1194 61.464 36.6874 61.5707 36.3354 61.784C35.9834 61.992 35.8074 62.3493 35.8074 62.856C35.8074 63.2293 35.9407 63.5493 36.2074 63.816C36.4794 64.0827 36.9114 64.216 37.5034 64.216C37.9194 64.216 38.2927 64.12 38.6234 63.928C38.9594 63.7307 39.2234 63.4853 39.4154 63.192C39.6127 62.8987 39.7114 62.6053 39.7114 62.312H40.0154C40.0154 62.824 39.9034 63.2987 39.6794 63.736C39.4607 64.1733 39.146 64.5253 38.7354 64.792C38.3247 65.0587 37.834 65.192 37.2634 65.192ZM46.8119 68.936C46.0279 68.936 45.3479 68.824 44.7719 68.6C44.1959 68.3813 43.7479 68.0853 43.4279 67.712C43.1132 67.344 42.9559 66.936 42.9559 66.488C42.9559 65.896 43.1719 65.4427 43.6039 65.128C44.0412 64.8187 44.6039 64.664 45.2919 64.664L45.9799 65.096C45.4039 65.096 44.9585 65.216 44.6439 65.456C44.3292 65.696 44.1719 66.024 44.1719 66.44C44.1719 66.856 44.3959 67.208 44.8439 67.496C45.2919 67.784 45.9479 67.928 46.8119 67.928C47.4519 67.928 48.0119 67.8347 48.4919 67.648C48.9772 67.4667 49.3532 67.2267 49.6199 66.928C49.8919 66.6347 50.0279 66.3173 50.0279 65.976C50.0279 65.736 49.9399 65.528 49.7639 65.352C49.5879 65.1813 49.3185 65.096 48.9559 65.096H45.9799C45.4625 65.096 45.0145 65.0187 44.6359 64.864C44.2625 64.704 43.9745 64.496 43.7719 64.24C43.5692 63.984 43.4679 63.704 43.4679 63.4C43.4679 63.08 43.5585 62.808 43.7399 62.584C43.9212 62.36 44.1559 62.1893 44.4439 62.072C44.7372 61.9547 45.0519 61.896 45.3879 61.896L45.6279 62.36C45.4679 62.36 45.3052 62.3973 45.1399 62.472C44.9799 62.5413 44.8439 62.648 44.7319 62.792C44.6252 62.9307 44.5719 63.1067 44.5719 63.32C44.5719 63.5653 44.6732 63.7707 44.8759 63.936C45.0785 64.1013 45.4465 64.184 45.9799 64.184H48.9559C49.6759 64.184 50.2412 64.336 50.6519 64.64C51.0679 64.944 51.2759 65.368 51.2759 65.912C51.2759 66.4133 51.0972 66.8933 50.7399 67.352C50.3825 67.816 49.8705 68.1947 49.2039 68.488C48.5372 68.7867 47.7399 68.936 46.8119 68.936ZM47.0359 62.76C46.4492 62.76 45.9185 62.6427 45.4439 62.408C44.9745 62.1733 44.6012 61.8453 44.3239 61.424C44.0519 61.0027 43.9159 60.5147 43.9159 59.96C43.9159 59.4 44.0519 58.9093 44.3239 58.488C44.6012 58.0667 44.9745 57.7413 45.4439 57.512C45.9185 57.2773 46.4492 57.16 47.0359 57.16C47.6065 57.16 48.1239 57.2773 48.5879 57.512C49.0572 57.7413 49.4305 58.0667 49.7079 58.488C49.9852 58.9093 50.1239 59.4 50.1239 59.96C50.1239 60.5147 49.9852 61.0027 49.7079 61.424C49.4305 61.8453 49.0572 62.1733 48.5879 62.408C48.1239 62.6427 47.6065 62.76 47.0359 62.76ZM47.0359 61.864C47.6225 61.864 48.0785 61.6827 48.4039 61.32C48.7292 60.9573 48.8919 60.504 48.8919 59.96C48.8919 59.4 48.7292 58.9467 48.4039 58.6C48.0785 58.248 47.6225 58.072 47.0359 58.072C46.4545 58.072 45.9959 58.248 45.6599 58.6C45.3292 58.9467 45.1639 59.4 45.1639 59.96C45.1639 60.504 45.3292 60.9573 45.6599 61.32C45.9959 61.6827 46.4545 61.864 47.0359 61.864ZM49.5479 58.376L48.9559 58.136C48.9559 57.688 49.0439 57.296 49.2199 56.96C49.3959 56.6187 49.6465 56.3547 49.9719 56.168C50.2972 55.976 50.6839 55.88 51.1319 55.88L51.0359 57.112C50.5559 57.112 50.1879 57.216 49.9319 57.424C49.6759 57.6267 49.5479 57.944 49.5479 58.376ZM55.9551 65.192C55.2938 65.192 54.7018 65.024 54.1791 64.688C53.6618 64.3467 53.2511 63.8747 52.9471 63.272C52.6485 62.6693 52.4991 61.976 52.4991 61.192C52.4991 60.3547 52.6485 59.6347 52.9471 59.032C53.2458 58.4293 53.6538 57.968 54.1711 57.648C54.6938 57.3227 55.2885 57.16 55.9551 57.16C56.5365 57.16 57.0325 57.2773 57.4431 57.512C57.8538 57.7467 58.1845 58.064 58.4351 58.464C58.6858 58.864 58.8591 59.3173 58.9551 59.824C59.0565 60.3253 59.0858 60.8453 59.0431 61.384H53.5071V60.616H58.2191L57.8511 60.856C57.8671 60.5413 57.8485 60.2267 57.7951 59.912C57.7471 59.5973 57.6538 59.3093 57.5151 59.048C57.3765 58.7813 57.1818 58.568 56.9311 58.408C56.6805 58.248 56.3605 58.168 55.9711 58.168C55.4805 58.168 55.0698 58.2933 54.7391 58.544C54.4085 58.7947 54.1605 59.1253 53.9951 59.536C53.8298 59.9413 53.7471 60.3813 53.7471 60.856V61.368C53.7471 61.9013 53.8271 62.3787 53.9871 62.8C54.1525 63.2213 54.3978 63.5547 54.7231 63.8C55.0485 64.0453 55.4591 64.168 55.9551 64.168C56.4511 64.168 56.8591 64.048 57.1791 63.808C57.4991 63.568 57.6938 63.2133 57.7631 62.744H59.0591C58.9791 63.2507 58.7978 63.688 58.5151 64.056C58.2325 64.4187 57.8725 64.6987 57.4351 64.896C56.9978 65.0933 56.5045 65.192 55.9551 65.192ZM70.3707 65L70.2107 63.32V60.04C70.2107 59.352 70.0641 58.8587 69.7707 58.56C69.4774 58.256 69.0374 58.104 68.4507 58.104C68.1201 58.104 67.8187 58.152 67.5467 58.248C67.2801 58.344 67.0667 58.4933 66.9067 58.696C66.7521 58.8933 66.6747 59.1493 66.6747 59.464H65.2827C65.2827 58.9093 65.4187 58.464 65.6907 58.128C65.9627 57.7867 66.3361 57.5413 66.8107 57.392C67.2907 57.2373 67.8374 57.16 68.4507 57.16C69.0374 57.16 69.5574 57.2587 70.0107 57.456C70.4641 57.6533 70.8187 57.968 71.0747 58.4C71.3307 58.8267 71.4587 59.384 71.4587 60.072V65H70.3707ZM67.7627 65.192C67.1334 65.192 66.6134 65.08 66.2027 64.856C65.7921 64.632 65.4854 64.3413 65.2827 63.984C65.0801 63.6267 64.9787 63.2507 64.9787 62.856C64.9787 62.3387 65.1067 61.9173 65.3627 61.592C65.6241 61.2667 65.9787 61.0293 66.4267 60.88C66.8747 60.7253 67.3787 60.648 67.9387 60.648C68.3387 60.648 68.7387 60.688 69.1387 60.768C69.5441 60.848 69.9387 60.9573 70.3227 61.096V61.88C70.0027 61.752 69.6401 61.6507 69.2347 61.576C68.8347 61.5013 68.4667 61.464 68.1307 61.464C67.6187 61.464 67.1867 61.5707 66.8347 61.784C66.4827 61.992 66.3067 62.3493 66.3067 62.856C66.3067 63.2293 66.4401 63.5493 66.7067 63.816C66.9787 64.0827 67.4107 64.216 68.0027 64.216C68.4187 64.216 68.7921 64.12 69.1227 63.928C69.4587 63.7307 69.7227 63.4853 69.9147 63.192C70.1121 62.8987 70.2107 62.6053 70.2107 62.312H70.5147C70.5147 62.824 70.4027 63.2987 70.1787 63.736C69.9601 64.1733 69.6454 64.5253 69.2347 64.792C68.8241 65.0587 68.3334 65.192 67.7627 65.192ZM78.1112 65.192C77.5992 65.192 77.1352 65.0587 76.7192 64.792C76.3086 64.5253 75.9806 64.136 75.7352 63.624C75.4952 63.1067 75.3752 62.4773 75.3752 61.736H75.8552C75.8552 62.232 75.9566 62.656 76.1592 63.008C76.3672 63.3547 76.6339 63.6187 76.9592 63.8C77.2846 63.9813 77.6259 64.072 77.9832 64.072C78.3939 64.072 78.7699 63.9547 79.1112 63.72C79.4526 63.4853 79.7246 63.1493 79.9272 62.712C80.1352 62.2747 80.2392 61.752 80.2392 61.144C80.2392 60.5467 80.1379 60.0347 79.9352 59.608C79.7326 59.176 79.4579 58.8453 79.1112 58.616C78.7699 58.3813 78.3886 58.264 77.9672 58.264C77.6046 58.264 77.2606 58.3547 76.9352 58.536C76.6152 58.712 76.3539 58.9733 76.1512 59.32C75.9539 59.6667 75.8552 60.0933 75.8552 60.6H75.3752C75.3752 59.8747 75.4926 59.256 75.7272 58.744C75.9672 58.232 76.2979 57.84 76.7192 57.568C77.1406 57.296 77.6312 57.16 78.1912 57.16C78.7939 57.16 79.3459 57.3227 79.8472 57.648C80.3539 57.968 80.7592 58.4267 81.0632 59.024C81.3672 59.6213 81.5192 60.328 81.5192 61.144C81.5192 61.9653 81.3646 62.68 81.0552 63.288C80.7459 63.8907 80.3326 64.36 79.8152 64.696C79.2979 65.0267 78.7299 65.192 78.1112 65.192ZM74.6072 65V54.088H75.8552V63.208L75.4872 65H74.6072ZM87.0196 65.192C86.3316 65.192 85.7183 65.04 85.1796 64.736C84.6463 64.432 84.225 63.9813 83.9156 63.384C83.6063 62.7867 83.4516 62.0507 83.4516 61.176C83.4516 60.296 83.6063 59.56 83.9156 58.968C84.225 58.3707 84.6463 57.92 85.1796 57.616C85.7183 57.312 86.3316 57.16 87.0196 57.16C87.7023 57.16 88.3103 57.312 88.8436 57.616C89.3823 57.92 89.8036 58.3707 90.1076 58.968C90.417 59.56 90.5716 60.296 90.5716 61.176C90.5716 62.0507 90.417 62.7867 90.1076 63.384C89.8036 63.9813 89.3823 64.432 88.8436 64.736C88.3103 65.04 87.7023 65.192 87.0196 65.192ZM86.9876 64.104C87.4836 64.104 87.905 63.9867 88.2516 63.752C88.5983 63.512 88.8596 63.1733 89.0356 62.736C89.217 62.2987 89.3076 61.7787 89.3076 61.176C89.3076 60.264 89.1183 59.5467 88.7396 59.024C88.361 58.496 87.7983 58.232 87.0516 58.232C86.5503 58.232 86.1263 58.352 85.7796 58.592C85.4383 58.8267 85.177 59.1653 84.9956 59.608C84.8196 60.0453 84.7316 60.568 84.7316 61.176C84.7316 62.0773 84.921 62.792 85.2996 63.32C85.6836 63.8427 86.2463 64.104 86.9876 64.104ZM98.3616 57.336H99.6096V65H98.3616V57.336ZM92.9376 57.336H94.1856V62.104C94.1856 62.744 94.3403 63.2293 94.6496 63.56C94.9643 63.8907 95.4123 64.056 95.9936 64.056C96.4736 64.056 96.8896 63.928 97.2416 63.672C97.599 63.416 97.8736 63.064 98.0656 62.616C98.263 62.1627 98.3616 61.6453 98.3616 61.064H98.8256C98.8256 61.9227 98.7003 62.656 98.4496 63.264C98.2043 63.872 97.855 64.3387 97.4016 64.664C96.9536 64.984 96.4256 65.144 95.8176 65.144C95.2416 65.144 94.7376 65.0373 94.3056 64.824C93.8736 64.6107 93.5376 64.288 93.2976 63.856C93.0576 63.4187 92.9376 62.8667 92.9376 62.2V57.336ZM105.361 65.192C104.945 65.192 104.572 65.112 104.241 64.952C103.91 64.792 103.649 64.552 103.457 64.232C103.265 63.912 103.169 63.512 103.169 63.032V55.224H104.401V63C104.401 63.7893 104.769 64.184 105.505 64.184C105.724 64.184 105.934 64.16 106.137 64.112C106.345 64.064 106.577 63.992 106.833 63.896L107.009 64.792C106.737 64.9093 106.465 65.0053 106.193 65.08C105.926 65.1547 105.649 65.192 105.361 65.192ZM101.937 58.216V57.352H106.817V58.216H101.937ZM111.686 54.616H113.798L116.31 63.336H115.83L118.31 55.304H119.59L122.166 63.208H121.734L124.374 54.616H126.502L122.934 65H120.95L118.918 58.872H119.094L117.062 65H115.078L111.686 54.616ZM126.538 65L130.074 54.616H132.442L135.834 65H133.85L133.13 62.76H129.274L128.538 65H126.538ZM129.754 61.336H132.682L131.226 56.872L129.754 61.336ZM141.465 65.224C140.745 65.224 140.081 65.0987 139.473 64.848C138.871 64.5973 138.38 64.216 138.001 63.704C137.628 63.192 137.428 62.5413 137.401 61.752H139.257C139.257 62.152 139.356 62.48 139.553 62.736C139.751 62.992 140.015 63.184 140.345 63.312C140.681 63.4347 141.049 63.496 141.449 63.496C141.833 63.496 142.175 63.4453 142.473 63.344C142.777 63.2427 143.015 63.0987 143.185 62.912C143.361 62.72 143.449 62.4933 143.449 62.232C143.449 61.8853 143.343 61.6133 143.129 61.416C142.921 61.2187 142.585 61.0373 142.121 60.872L140.073 60.056C139.273 59.7413 138.66 59.376 138.233 58.96C137.807 58.544 137.593 57.9707 137.593 57.24C137.593 56.3973 137.927 55.7147 138.593 55.192C139.26 54.6693 140.191 54.408 141.385 54.408C142.548 54.408 143.447 54.68 144.081 55.224C144.716 55.7627 145.076 56.5147 145.161 57.48H143.305C143.236 57.0693 143.049 56.7413 142.745 56.496C142.441 56.2453 141.988 56.12 141.385 56.12C140.852 56.12 140.431 56.232 140.121 56.456C139.812 56.6747 139.657 56.952 139.657 57.288C139.657 57.576 139.753 57.8053 139.945 57.976C140.143 58.1413 140.447 58.3013 140.857 58.456L143.129 59.336C143.897 59.6347 144.487 60.0107 144.897 60.464C145.308 60.9173 145.513 61.4853 145.513 62.168C145.513 62.792 145.356 63.3333 145.041 63.792C144.727 64.2453 144.268 64.5973 143.665 64.848C143.063 65.0987 142.329 65.224 141.465 65.224ZM148.164 65V54.616H151.828C152.996 54.616 153.906 54.904 154.556 55.48C155.212 56.056 155.54 56.872 155.54 57.928C155.54 58.9733 155.212 59.784 154.556 60.36C153.906 60.936 152.996 61.224 151.828 61.224H150.068V65H148.164ZM150.068 59.576H151.828C152.415 59.576 152.858 59.4213 153.156 59.112C153.455 58.8027 153.604 58.408 153.604 57.928C153.604 57.4373 153.455 57.0347 153.156 56.72C152.858 56.4053 152.415 56.248 151.828 56.248H150.068V59.576ZM165.476 65.224C164.756 65.224 164.092 65.0987 163.484 64.848C162.882 64.5973 162.391 64.216 162.012 63.704C161.639 63.192 161.439 62.5413 161.412 61.752H163.268C163.268 62.152 163.367 62.48 163.564 62.736C163.762 62.992 164.026 63.184 164.356 63.312C164.692 63.4347 165.06 63.496 165.46 63.496C165.844 63.496 166.186 63.4453 166.484 63.344C166.788 63.2427 167.026 63.0987 167.196 62.912C167.372 62.72 167.46 62.4933 167.46 62.232C167.46 61.8853 167.354 61.6133 167.14 61.416C166.932 61.2187 166.596 61.0373 166.132 60.872L164.084 60.056C163.284 59.7413 162.671 59.376 162.244 58.96C161.818 58.544 161.604 57.9707 161.604 57.24C161.604 56.3973 161.938 55.7147 162.604 55.192C163.271 54.6693 164.202 54.408 165.396 54.408C166.559 54.408 167.458 54.68 168.092 55.224C168.727 55.7627 169.087 56.5147 169.172 57.48H167.316C167.247 57.0693 167.06 56.7413 166.756 56.496C166.452 56.2453 165.999 56.12 165.396 56.12C164.863 56.12 164.442 56.232 164.132 56.456C163.823 56.6747 163.668 56.952 163.668 57.288C163.668 57.576 163.764 57.8053 163.956 57.976C164.154 58.1413 164.458 58.3013 164.868 58.456L167.14 59.336C167.908 59.6347 168.498 60.0107 168.908 60.464C169.319 60.9173 169.524 61.4853 169.524 62.168C169.524 62.792 169.367 63.3333 169.052 63.792C168.738 64.2453 168.279 64.5973 167.676 64.848C167.074 65.0987 166.34 65.224 165.476 65.224ZM170.832 56.248V54.616H179.152V56.248H175.512L175.936 55.816V65H174.048V55.816L174.472 56.248H170.832ZM180.884 65V54.616H182.772V65H180.884ZM185.887 54.616H187.951L192.671 62.024H192.527V54.616H194.415V65H192.495L187.471 57.144H187.775V65H185.887V54.616ZM201.339 65.224C200.491 65.224 199.726 65 199.043 64.552C198.361 64.104 197.817 63.48 197.411 62.68C197.011 61.8747 196.811 60.936 196.811 59.864C196.811 59.016 196.934 58.256 197.179 57.584C197.43 56.912 197.777 56.3387 198.219 55.864C198.662 55.3893 199.182 55.0293 199.779 54.784C200.377 54.5333 201.025 54.408 201.723 54.408C202.694 54.408 203.507 54.6187 204.163 55.04C204.825 55.4613 205.339 56.1253 205.707 57.032L203.771 57.48C203.499 57.0373 203.185 56.7013 202.827 56.472C202.475 56.2373 202.075 56.12 201.627 56.12C201.115 56.12 200.649 56.272 200.227 56.576C199.806 56.8747 199.47 57.304 199.219 57.864C198.969 58.424 198.843 59.0907 198.843 59.864C198.843 60.5893 198.953 61.224 199.171 61.768C199.395 62.312 199.707 62.736 200.107 63.04C200.507 63.344 200.971 63.496 201.499 63.496C201.947 63.496 202.347 63.3973 202.699 63.2C203.057 62.9973 203.337 62.7093 203.539 62.336C203.747 61.9627 203.851 61.512 203.851 60.984H204.267C204.267 61.848 204.163 62.5973 203.955 63.232C203.753 63.8667 203.435 64.3573 203.003 64.704C202.571 65.0507 202.017 65.224 201.339 65.224ZM204.123 65L203.851 62.712V60.92L201.515 60.872V59.672H205.659V65H204.123ZM25.488 85V74.616H29.328C30.5707 74.616 31.5227 74.9067 32.184 75.488C32.8507 76.0693 33.184 76.84 33.184 77.8C33.184 78.744 32.8507 79.5067 32.184 80.088C31.5227 80.664 30.5707 80.952 29.328 80.952H27.376V85H25.488ZM31.104 85L28.352 80.136H30.368L33.568 85H31.104ZM27.376 79.688H29.136C29.8293 79.688 30.3547 79.5307 30.712 79.216C31.0693 78.896 31.248 78.4827 31.248 77.976C31.248 77.4587 31.0853 77.0427 30.76 76.728C30.4347 76.408 29.9573 76.248 29.328 76.248H27.376V79.688ZM35.9289 85V74.616H42.6009V76.248H37.8169V78.984H42.3129V80.616H37.8169V83.352H42.6009V85H35.9289ZM45.4955 74.616H48.1995L51.1275 80.968H50.9675L53.8955 74.616H56.5035V85H54.5995V76.792H54.8875L51.6555 83.864H50.4235L47.2075 76.824H47.3835V85H45.4955V74.616ZM59.6239 85V74.616H66.2959V76.248H61.5119V78.984H66.0079V80.616H61.5119V83.352H66.2959V85H59.6239ZM69.1905 74.616H72.5505C73.6065 74.616 74.5318 74.8293 75.3265 75.256C76.1212 75.6773 76.7398 76.2773 77.1825 77.056C77.6252 77.8347 77.8465 78.7547 77.8465 79.816C77.8465 80.8667 77.6252 81.7813 77.1825 82.56C76.7398 83.3333 76.1212 83.9333 75.3265 84.36C74.5318 84.7867 73.6065 85 72.5505 85H69.1905V74.616ZM71.0785 76.328V83.304H72.5505C73.2225 83.304 73.8012 83.152 74.2865 82.848C74.7772 82.544 75.1532 82.1307 75.4145 81.608C75.6812 81.08 75.8145 80.4827 75.8145 79.816C75.8145 79.1387 75.6812 78.5387 75.4145 78.016C75.1532 77.4933 74.7772 77.0827 74.2865 76.784C73.8012 76.48 73.2225 76.328 72.5505 76.328H71.0785ZM80.3349 85V74.616H82.2229V85H80.3349ZM85.3539 85V74.616H92.0259V76.248H87.2419V78.984H91.7379V80.616H87.2419V83.352H92.0259V85H85.3539ZM98.5365 85.224C97.8165 85.224 97.1525 85.0987 96.5445 84.848C95.9418 84.5973 95.4512 84.216 95.0725 83.704C94.6992 83.192 94.4992 82.5413 94.4725 81.752H96.3285C96.3285 82.152 96.4272 82.48 96.6245 82.736C96.8218 82.992 97.0858 83.184 97.4165 83.312C97.7525 83.4347 98.1205 83.496 98.5205 83.496C98.9045 83.496 99.2458 83.4453 99.5445 83.344C99.8485 83.2427 100.086 83.0987 100.257 82.912C100.433 82.72 100.521 82.4933 100.521 82.232C100.521 81.8853 100.414 81.6133 100.201 81.416C99.9925 81.2187 99.6565 81.0373 99.1925 80.872L97.1445 80.056C96.3445 79.7413 95.7312 79.376 95.3045 78.96C94.8778 78.544 94.6645 77.9707 94.6645 77.24C94.6645 76.3973 94.9978 75.7147 95.6645 75.192C96.3312 74.6693 97.2618 74.408 98.4565 74.408C99.6192 74.408 100.518 74.68 101.153 75.224C101.787 75.7627 102.147 76.5147 102.233 77.48H100.377C100.307 77.0693 100.121 76.7413 99.8165 76.496C99.5125 76.2453 99.0592 76.12 98.4565 76.12C97.9232 76.12 97.5018 76.232 97.1925 76.456C96.8832 76.6747 96.7285 76.952 96.7285 77.288C96.7285 77.576 96.8245 77.8053 97.0165 77.976C97.2138 78.1413 97.5178 78.3013 97.9285 78.456L100.201 79.336C100.969 79.6347 101.558 80.0107 101.969 80.464C102.379 80.9173 102.585 81.4853 102.585 82.168C102.585 82.792 102.427 83.3333 102.113 83.792C101.798 84.2453 101.339 84.5973 100.737 84.848C100.134 85.0987 99.4005 85.224 98.5365 85.224Z" fill="#997452"/>
</g>
<defs>
<filter id="filter0_d_7041_5848" x="1.62125e-05" y="0" width="261.767" height="109" filterUnits="userSpaceOnUse" color-interpolation-filters="sRGB">
<feFlood flood-opacity="0" result="BackgroundImageFix"/>
<feColorMatrix in="SourceAlpha" type="matrix" values="0 0 0 0 0 0 0 0 0 0 0 0 0 0 0 0 0 0 127 0" result="hardAlpha"/>
<feOffset dy="4"/>
<feGaussianBlur stdDeviation="3"/>
<feComposite in2="hardAlpha" operator="out"/>
<feColorMatrix type="matrix" values="0 0 0 0 0 0 0 0 0 0 0 0 0 0 0 0 0 0 0.1 0"/>
<feBlend mode="normal" in2="BackgroundImageFix" result="effect1_dropShadow_7041_5848"/>
<feBlend mode="normal" in="SourceGraphic" in2="effect1_dropShadow_7041_5848" result="shape"/>
</filter>
</defs>
</svg>
