<svg width="256" height="68" viewBox="0 0 256 68" fill="none" xmlns="http://www.w3.org/2000/svg">
<mask id="path-1-inside-1_7055_5762" fill="white">
<path d="M248.724 27.3669L239 19L239 11C239 6.02944 234.971 2 230 2L8.99997 1.99998C4.02941 1.99998 -2.59742e-05 6.02942 -2.64087e-05 11L-2.97308e-05 49C-3.01653e-05 53.9705 4.0294 58 8.99997 58L230 58C234.971 58 239 53.9706 239 49L239 39.5L248.612 32.0069C250.106 30.8425 250.16 28.6022 248.724 27.3669Z"/>
</mask>
<path d="M248.724 27.3669L239 19L239 11C239 6.02944 234.971 2 230 2L8.99997 1.99998C4.02941 1.99998 -2.59742e-05 6.02942 -2.64087e-05 11L-2.97308e-05 49C-3.01653e-05 53.9705 4.0294 58 8.99997 58L230 58C234.971 58 239 53.9706 239 49L239 39.5L248.612 32.0069C250.106 30.8425 250.16 28.6022 248.724 27.3669Z" fill="white"/>
<path d="M239 19L237.6 19L237.6 19.6423L238.087 20.0612L239 19ZM248.724 27.3669L249.637 26.3056L249.637 26.3056L248.724 27.3669ZM248.612 32.0069L247.751 30.9028L247.751 30.9028L248.612 32.0069ZM239 39.5L238.139 38.3959L237.6 38.8162L237.6 39.5L239 39.5ZM238.087 20.0612L247.811 28.4281L249.637 26.3056L239.913 17.9388L238.087 20.0612ZM247.751 30.9028L238.139 38.3959L239.861 40.6041L249.473 33.1111L247.751 30.9028ZM247.811 28.4281C248.577 29.0869 248.548 30.2817 247.751 30.9028L249.473 33.1111C251.663 31.4032 251.743 28.1175 249.637 26.3056L247.811 28.4281ZM230 56.6L8.99997 56.6L8.99997 59.4L230 59.4L230 56.6ZM1.39997 49L1.39997 11L-1.40003 11L-1.40003 49L1.39997 49ZM8.99997 3.39998L230 3.4L230 0.599998L8.99997 0.599979L8.99997 3.39998ZM237.6 39.5L237.6 49L240.4 49L240.4 39.5L237.6 39.5ZM237.6 11L237.6 19L240.4 19L240.4 11L237.6 11ZM230 3.4C234.197 3.4 237.6 6.80264 237.6 11L240.4 11C240.4 5.25624 235.744 0.599999 230 0.599998L230 3.4ZM1.39997 11C1.39997 6.80261 4.80261 3.39998 8.99997 3.39998L8.99997 0.599979C3.25621 0.599978 -1.40003 5.25622 -1.40003 11L1.39997 11ZM8.99997 56.6C4.8026 56.6 1.39997 53.1973 1.39997 49L-1.40003 49C-1.40003 54.7437 3.2562 59.4 8.99997 59.4L8.99997 56.6ZM230 59.4C235.744 59.4 240.4 54.7438 240.4 49L237.6 49C237.6 53.1974 234.197 56.6 230 56.6L230 59.4Z" fill="white" mask="url(#path-1-inside-1_7055_5762)"/>
<g filter="url(#filter0_d_7055_5762)">
<mask id="path-3-inside-2_7055_5762" fill="white">
<path d="M248.724 27.3669L239 19L239 11C239 6.02944 234.971 2 230 2L16 1.99998C11.0294 1.99998 6.99997 6.02942 6.99997 11L6.99997 49C6.99997 53.9705 11.0294 58 16 58L230 58C234.971 58 239 53.9706 239 49L239 39.5L248.612 32.0069C250.106 30.8425 250.16 28.6022 248.724 27.3669Z"/>
</mask>
<path d="M248.724 27.3669L239 19L239 11C239 6.02944 234.971 2 230 2L16 1.99998C11.0294 1.99998 6.99997 6.02942 6.99997 11L6.99997 49C6.99997 53.9705 11.0294 58 16 58L230 58C234.971 58 239 53.9706 239 49L239 39.5L248.612 32.0069C250.106 30.8425 250.16 28.6022 248.724 27.3669Z" fill="white"/>
<path d="M239 19L237.6 19L237.6 19.6423L238.087 20.0612L239 19ZM248.724 27.3669L249.637 26.3056L249.637 26.3056L248.724 27.3669ZM248.612 32.0069L247.751 30.9028L247.751 30.9028L248.612 32.0069ZM239 39.5L238.139 38.3959L237.6 38.8162L237.6 39.5L239 39.5ZM238.087 20.0612L247.811 28.4281L249.637 26.3056L239.913 17.9388L238.087 20.0612ZM247.751 30.9028L238.139 38.3959L239.861 40.6041L249.473 33.1111L247.751 30.9028ZM247.811 28.4281C248.577 29.0869 248.548 30.2817 247.751 30.9028L249.473 33.1111C251.663 31.4032 251.743 28.1175 249.637 26.3056L247.811 28.4281ZM230 56.6L16 56.6L16 59.4L230 59.4L230 56.6ZM8.39997 49L8.39997 11L5.59997 11L5.59997 49L8.39997 49ZM16 3.39998L230 3.4L230 0.599998L16 0.59998L16 3.39998ZM237.6 39.5L237.6 49L240.4 49L240.4 39.5L237.6 39.5ZM237.6 11L237.6 19L240.4 19L240.4 11L237.6 11ZM230 3.4C234.197 3.4 237.6 6.80264 237.6 11L240.4 11C240.4 5.25624 235.744 0.599999 230 0.599998L230 3.4ZM8.39997 11C8.39997 6.80262 11.8026 3.39998 16 3.39998L16 0.59998C10.2562 0.599979 5.59997 5.25622 5.59997 11L8.39997 11ZM16 56.6C11.8026 56.6 8.39997 53.1973 8.39997 49L5.59997 49C5.59997 54.7437 10.2562 59.4 16 59.4L16 56.6ZM230 59.4C235.744 59.4 240.4 54.7438 240.4 49L237.6 49C237.6 53.1974 234.197 56.6 230 56.6L230 59.4Z" fill="#333333" mask="url(#path-3-inside-2_7055_5762)"/>
</g>
<g filter="url(#filter1_d_7055_5762)">
<path d="M18.0691 25.5V15.452H19.3171V25.5H18.0691ZM25.3424 17.852H26.6384L28.5904 24.236H28.4304L30.3344 18.22H31.3744L33.2624 24.252H33.1184L35.0704 17.852H36.3184L33.8064 25.5H32.5904L30.7344 19.852H30.9264L29.0864 25.5H27.8704L25.3424 17.852ZM43.1601 25.5L43.0001 23.82V20.54C43.0001 19.852 42.8535 19.3587 42.5601 19.06C42.2668 18.756 41.8268 18.604 41.2401 18.604C40.9095 18.604 40.6081 18.652 40.3361 18.748C40.0695 18.844 39.8561 18.9933 39.6961 19.196C39.5415 19.3933 39.4641 19.6493 39.4641 19.964H38.0721C38.0721 19.4093 38.2081 18.964 38.4801 18.628C38.7521 18.2867 39.1255 18.0413 39.6001 17.892C40.0801 17.7373 40.6268 17.66 41.2401 17.66C41.8268 17.66 42.3468 17.7587 42.8001 17.956C43.2535 18.1533 43.6081 18.468 43.8641 18.9C44.1201 19.3267 44.2481 19.884 44.2481 20.572V25.5H43.1601ZM40.5521 25.692C39.9228 25.692 39.4028 25.58 38.9921 25.356C38.5815 25.132 38.2748 24.8413 38.0721 24.484C37.8695 24.1267 37.7681 23.7507 37.7681 23.356C37.7681 22.8387 37.8961 22.4173 38.1521 22.092C38.4135 21.7667 38.7681 21.5293 39.2161 21.38C39.6641 21.2253 40.1681 21.148 40.7281 21.148C41.1281 21.148 41.5281 21.188 41.9281 21.268C42.3335 21.348 42.7281 21.4573 43.1121 21.596V22.38C42.7921 22.252 42.4295 22.1507 42.0241 22.076C41.6241 22.0013 41.2561 21.964 40.9201 21.964C40.4081 21.964 39.9761 22.0707 39.6241 22.284C39.2721 22.492 39.0961 22.8493 39.0961 23.356C39.0961 23.7293 39.2295 24.0493 39.4961 24.316C39.7681 24.5827 40.2001 24.716 40.7921 24.716C41.2081 24.716 41.5815 24.62 41.9121 24.428C42.2481 24.2307 42.5121 23.9853 42.7041 23.692C42.9015 23.3987 43.0001 23.1053 43.0001 22.812H43.3041C43.3041 23.324 43.1921 23.7987 42.9681 24.236C42.7495 24.6733 42.4348 25.0253 42.0241 25.292C41.6135 25.5587 41.1228 25.692 40.5521 25.692ZM52.8366 25.5V21.004C52.8366 20.2733 52.6606 19.7187 52.3086 19.34C51.962 18.956 51.4873 18.764 50.8846 18.764C50.426 18.764 50.0286 18.8893 49.6926 19.14C49.3566 19.3907 49.098 19.7507 48.9166 20.22C48.7353 20.684 48.6446 21.2387 48.6446 21.884H48.1646C48.1646 20.9933 48.282 20.2333 48.5166 19.604C48.7513 18.9747 49.0926 18.4947 49.5406 18.164C49.994 17.828 50.5433 17.66 51.1886 17.66C51.7913 17.66 52.306 17.796 52.7326 18.068C53.1646 18.3347 53.4953 18.7187 53.7246 19.22C53.954 19.7213 54.0686 20.316 54.0686 21.004V25.5H52.8366ZM47.3966 25.5V17.852H48.4686L48.6446 19.612V25.5H47.3966ZM59.5649 25.692C59.1489 25.692 58.7755 25.612 58.4449 25.452C58.1142 25.292 57.8529 25.052 57.6609 24.732C57.4689 24.412 57.3729 24.012 57.3729 23.532V15.724H58.6049V23.5C58.6049 24.2893 58.9729 24.684 59.7089 24.684C59.9275 24.684 60.1382 24.66 60.3409 24.612C60.5489 24.564 60.7809 24.492 61.0369 24.396L61.2129 25.292C60.9409 25.4093 60.6689 25.5053 60.3969 25.58C60.1302 25.6547 59.8529 25.692 59.5649 25.692ZM56.1409 18.716V17.852H61.0209V18.716H56.1409ZM66.1565 25.692C65.4685 25.692 64.8552 25.54 64.3165 25.236C63.7832 24.932 63.3618 24.4813 63.0525 23.884C62.7432 23.2867 62.5885 22.5507 62.5885 21.676C62.5885 20.796 62.7432 20.06 63.0525 19.468C63.3618 18.8707 63.7832 18.42 64.3165 18.116C64.8552 17.812 65.4685 17.66 66.1565 17.66C66.8392 17.66 67.4472 17.812 67.9805 18.116C68.5192 18.42 68.9405 18.8707 69.2445 19.468C69.5538 20.06 69.7085 20.796 69.7085 21.676C69.7085 22.5507 69.5538 23.2867 69.2445 23.884C68.9405 24.4813 68.5192 24.932 67.9805 25.236C67.4472 25.54 66.8392 25.692 66.1565 25.692ZM66.1245 24.604C66.6205 24.604 67.0418 24.4867 67.3885 24.252C67.7352 24.012 67.9965 23.6733 68.1725 23.236C68.3538 22.7987 68.4445 22.2787 68.4445 21.676C68.4445 20.764 68.2552 20.0467 67.8765 19.524C67.4978 18.996 66.9352 18.732 66.1885 18.732C65.6872 18.732 65.2632 18.852 64.9165 19.092C64.5752 19.3267 64.3138 19.6653 64.1325 20.108C63.9565 20.5453 63.8685 21.068 63.8685 21.676C63.8685 22.5773 64.0578 23.292 64.4365 23.82C64.8205 24.3427 65.3832 24.604 66.1245 24.604ZM78.6074 25.692C78.1914 25.692 77.818 25.612 77.4874 25.452C77.1567 25.292 76.8954 25.052 76.7034 24.732C76.5114 24.412 76.4154 24.012 76.4154 23.532V15.724H77.6474V23.5C77.6474 24.2893 78.0154 24.684 78.7514 24.684C78.97 24.684 79.1807 24.66 79.3834 24.612C79.5914 24.564 79.8234 24.492 80.0794 24.396L80.2554 25.292C79.9834 25.4093 79.7114 25.5053 79.4394 25.58C79.1727 25.6547 78.8954 25.692 78.6074 25.692ZM75.1834 18.716V17.852H80.0634V18.716H75.1834ZM85.199 25.692C84.511 25.692 83.8977 25.54 83.359 25.236C82.8257 24.932 82.4043 24.4813 82.095 23.884C81.7857 23.2867 81.631 22.5507 81.631 21.676C81.631 20.796 81.7857 20.06 82.095 19.468C82.4043 18.8707 82.8257 18.42 83.359 18.116C83.8977 17.812 84.511 17.66 85.199 17.66C85.8817 17.66 86.4897 17.812 87.023 18.116C87.5617 18.42 87.983 18.8707 88.287 19.468C88.5963 20.06 88.751 20.796 88.751 21.676C88.751 22.5507 88.5963 23.2867 88.287 23.884C87.983 24.4813 87.5617 24.932 87.023 25.236C86.4897 25.54 85.8817 25.692 85.199 25.692ZM85.167 24.604C85.663 24.604 86.0843 24.4867 86.431 24.252C86.7777 24.012 87.039 23.6733 87.215 23.236C87.3963 22.7987 87.487 22.2787 87.487 21.676C87.487 20.764 87.2977 20.0467 86.919 19.524C86.5403 18.996 85.9777 18.732 85.231 18.732C84.7297 18.732 84.3057 18.852 83.959 19.092C83.6177 19.3267 83.3563 19.6653 83.175 20.108C82.999 20.5453 82.911 21.068 82.911 21.676C82.911 22.5773 83.1003 23.292 83.479 23.82C83.863 24.3427 84.4257 24.604 85.167 24.604ZM95.2979 25.5V14.588H96.5459V25.5H95.2979ZM96.3539 21.116L100.258 17.852H102.002L96.3539 22.444V21.116ZM100.642 25.5L97.0099 20.668L98.2739 20.444L102.178 25.5H100.642ZM109.913 25.5V21.004C109.913 20.2733 109.737 19.7187 109.385 19.34C109.039 18.956 108.564 18.764 107.961 18.764C107.503 18.764 107.105 18.8893 106.769 19.14C106.433 19.3907 106.175 19.7507 105.993 20.22C105.812 20.684 105.721 21.2387 105.721 21.884H105.241C105.241 20.9933 105.359 20.2333 105.593 19.604C105.828 18.9747 106.169 18.4947 106.617 18.164C107.071 17.828 107.62 17.66 108.265 17.66C108.868 17.66 109.383 17.796 109.809 18.068C110.241 18.3347 110.572 18.7187 110.801 19.22C111.031 19.7213 111.145 20.316 111.145 21.004V25.5H109.913ZM104.473 25.5V17.852H105.545L105.721 19.612V25.5H104.473ZM117.058 25.692C116.37 25.692 115.756 25.54 115.218 25.236C114.684 24.932 114.263 24.4813 113.954 23.884C113.644 23.2867 113.49 22.5507 113.49 21.676C113.49 20.796 113.644 20.06 113.954 19.468C114.263 18.8707 114.684 18.42 115.218 18.116C115.756 17.812 116.37 17.66 117.058 17.66C117.74 17.66 118.348 17.812 118.882 18.116C119.42 18.42 119.842 18.8707 120.146 19.468C120.455 20.06 120.61 20.796 120.61 21.676C120.61 22.5507 120.455 23.2867 120.146 23.884C119.842 24.4813 119.42 24.932 118.882 25.236C118.348 25.54 117.74 25.692 117.058 25.692ZM117.026 24.604C117.522 24.604 117.943 24.4867 118.29 24.252C118.636 24.012 118.898 23.6733 119.074 23.236C119.255 22.7987 119.346 22.2787 119.346 21.676C119.346 20.764 119.156 20.0467 118.778 19.524C118.399 18.996 117.836 18.732 117.09 18.732C116.588 18.732 116.164 18.852 115.818 19.092C115.476 19.3267 115.215 19.6653 115.034 20.108C114.858 20.5453 114.77 21.068 114.77 21.676C114.77 22.5773 114.959 23.292 115.338 23.82C115.722 24.3427 116.284 24.604 117.026 24.604ZM121.872 17.852H123.168L125.12 24.236H124.96L126.864 18.22H127.904L129.792 24.252H129.648L131.6 17.852H132.848L130.336 25.5H129.12L127.264 19.852H127.456L125.616 25.5H124.4L121.872 17.852ZM149.662 25.5V21.004C149.662 20.2733 149.486 19.7187 149.134 19.34C148.788 18.956 148.318 18.764 147.726 18.764C147.033 18.764 146.502 19.0333 146.134 19.572C145.766 20.1053 145.582 20.844 145.582 21.788H145.006C145.006 21.1 145.073 20.4973 145.206 19.98C145.345 19.4627 145.545 19.0333 145.806 18.692C146.068 18.3453 146.385 18.0867 146.758 17.916C147.132 17.7453 147.556 17.66 148.03 17.66C148.633 17.66 149.148 17.796 149.574 18.068C150.006 18.3347 150.337 18.7187 150.566 19.22C150.796 19.7213 150.91 20.316 150.91 21.004V25.5H149.662ZM138.91 25.5V17.852H139.982L140.126 19.388C140.366 18.8333 140.702 18.4067 141.134 18.108C141.572 17.8093 142.094 17.66 142.702 17.66C143.305 17.66 143.82 17.796 144.246 18.068C144.678 18.3347 145.009 18.7187 145.238 19.22C145.468 19.7213 145.582 20.316 145.582 21.004V25.5H144.35V21.004C144.35 20.2733 144.174 19.7187 143.822 19.34C143.476 18.956 143.001 18.764 142.398 18.764C141.94 18.764 141.542 18.8893 141.206 19.14C140.87 19.3907 140.612 19.7507 140.43 20.22C140.249 20.684 140.158 21.2387 140.158 21.884V25.5H138.91ZM156.807 25.692C156.119 25.692 155.506 25.54 154.967 25.236C154.434 24.932 154.012 24.4813 153.703 23.884C153.394 23.2867 153.239 22.5507 153.239 21.676C153.239 20.796 153.394 20.06 153.703 19.468C154.012 18.8707 154.434 18.42 154.967 18.116C155.506 17.812 156.119 17.66 156.807 17.66C157.49 17.66 158.098 17.812 158.631 18.116C159.17 18.42 159.591 18.8707 159.895 19.468C160.204 20.06 160.359 20.796 160.359 21.676C160.359 22.5507 160.204 23.2867 159.895 23.884C159.591 24.4813 159.17 24.932 158.631 25.236C158.098 25.54 157.49 25.692 156.807 25.692ZM156.775 24.604C157.271 24.604 157.692 24.4867 158.039 24.252C158.386 24.012 158.647 23.6733 158.823 23.236C159.004 22.7987 159.095 22.2787 159.095 21.676C159.095 20.764 158.906 20.0467 158.527 19.524C158.148 18.996 157.586 18.732 156.839 18.732C156.338 18.732 155.914 18.852 155.567 19.092C155.226 19.3267 154.964 19.6653 154.783 20.108C154.607 20.5453 154.519 21.068 154.519 21.676C154.519 22.5773 154.708 23.292 155.087 23.82C155.471 24.3427 156.034 24.604 156.775 24.604ZM162.949 25.5V17.836H164.197V25.5H162.949ZM163.813 22.044C163.813 21.0733 163.906 20.268 164.093 19.628C164.28 18.9827 164.552 18.5027 164.909 18.188C165.272 17.868 165.712 17.708 166.229 17.708C166.4 17.708 166.554 17.7213 166.693 17.748C166.837 17.7693 166.981 17.804 167.125 17.852L167.045 19.084C166.896 19.036 166.733 18.996 166.557 18.964C166.381 18.9267 166.224 18.908 166.085 18.908C165.632 18.908 165.266 19.0387 164.989 19.3C164.712 19.556 164.509 19.9187 164.381 20.388C164.258 20.8573 164.197 21.4093 164.197 22.044H163.813ZM171.546 25.692C170.885 25.692 170.293 25.524 169.77 25.188C169.253 24.8467 168.842 24.3747 168.538 23.772C168.24 23.1693 168.09 22.476 168.09 21.692C168.09 20.8547 168.24 20.1347 168.538 19.532C168.837 18.9293 169.245 18.468 169.762 18.148C170.285 17.8227 170.88 17.66 171.546 17.66C172.128 17.66 172.624 17.7773 173.034 18.012C173.445 18.2467 173.776 18.564 174.026 18.964C174.277 19.364 174.45 19.8173 174.546 20.324C174.648 20.8253 174.677 21.3453 174.634 21.884H169.098V21.116H173.81L173.442 21.356C173.458 21.0413 173.44 20.7267 173.386 20.412C173.338 20.0973 173.245 19.8093 173.106 19.548C172.968 19.2813 172.773 19.068 172.522 18.908C172.272 18.748 171.952 18.668 171.562 18.668C171.072 18.668 170.661 18.7933 170.33 19.044C170 19.2947 169.752 19.6253 169.586 20.036C169.421 20.4413 169.338 20.8813 169.338 21.356V21.868C169.338 22.4013 169.418 22.8787 169.578 23.3C169.744 23.7213 169.989 24.0547 170.314 24.3C170.64 24.5453 171.05 24.668 171.546 24.668C172.042 24.668 172.45 24.548 172.77 24.308C173.09 24.068 173.285 23.7133 173.354 23.244H174.65C174.57 23.7507 174.389 24.188 174.106 24.556C173.824 24.9187 173.464 25.1987 173.026 25.396C172.589 25.5933 172.096 25.692 171.546 25.692ZM185.962 25.5L185.802 23.82V20.54C185.802 19.852 185.655 19.3587 185.362 19.06C185.069 18.756 184.629 18.604 184.042 18.604C183.711 18.604 183.41 18.652 183.138 18.748C182.871 18.844 182.658 18.9933 182.498 19.196C182.343 19.3933 182.266 19.6493 182.266 19.964H180.874C180.874 19.4093 181.01 18.964 181.282 18.628C181.554 18.2867 181.927 18.0413 182.402 17.892C182.882 17.7373 183.429 17.66 184.042 17.66C184.629 17.66 185.149 17.7587 185.602 17.956C186.055 18.1533 186.41 18.468 186.666 18.9C186.922 19.3267 187.05 19.884 187.05 20.572V25.5H185.962ZM183.354 25.692C182.725 25.692 182.205 25.58 181.794 25.356C181.383 25.132 181.077 24.8413 180.874 24.484C180.671 24.1267 180.57 23.7507 180.57 23.356C180.57 22.8387 180.698 22.4173 180.954 22.092C181.215 21.7667 181.57 21.5293 182.018 21.38C182.466 21.2253 182.97 21.148 183.53 21.148C183.93 21.148 184.33 21.188 184.73 21.268C185.135 21.348 185.53 21.4573 185.914 21.596V22.38C185.594 22.252 185.231 22.1507 184.826 22.076C184.426 22.0013 184.058 21.964 183.722 21.964C183.21 21.964 182.778 22.0707 182.426 22.284C182.074 22.492 181.898 22.8493 181.898 23.356C181.898 23.7293 182.031 24.0493 182.298 24.316C182.57 24.5827 183.002 24.716 183.594 24.716C184.01 24.716 184.383 24.62 184.714 24.428C185.05 24.2307 185.314 23.9853 185.506 23.692C185.703 23.3987 185.802 23.1053 185.802 22.812H186.106C186.106 23.324 185.994 23.7987 185.77 24.236C185.551 24.6733 185.237 25.0253 184.826 25.292C184.415 25.5587 183.925 25.692 183.354 25.692ZM193.703 25.692C193.191 25.692 192.727 25.5587 192.311 25.292C191.9 25.0253 191.572 24.636 191.327 24.124C191.087 23.6067 190.967 22.9773 190.967 22.236H191.447C191.447 22.732 191.548 23.156 191.751 23.508C191.959 23.8547 192.225 24.1187 192.551 24.3C192.876 24.4813 193.217 24.572 193.575 24.572C193.985 24.572 194.361 24.4547 194.703 24.22C195.044 23.9853 195.316 23.6493 195.519 23.212C195.727 22.7747 195.831 22.252 195.831 21.644C195.831 21.0467 195.729 20.5347 195.527 20.108C195.324 19.676 195.049 19.3453 194.703 19.116C194.361 18.8813 193.98 18.764 193.559 18.764C193.196 18.764 192.852 18.8547 192.527 19.036C192.207 19.212 191.945 19.4733 191.743 19.82C191.545 20.1667 191.447 20.5933 191.447 21.1H190.967C190.967 20.3747 191.084 19.756 191.319 19.244C191.559 18.732 191.889 18.34 192.311 18.068C192.732 17.796 193.223 17.66 193.783 17.66C194.385 17.66 194.937 17.8227 195.439 18.148C195.945 18.468 196.351 18.9267 196.655 19.524C196.959 20.1213 197.111 20.828 197.111 21.644C197.111 22.4653 196.956 23.18 196.647 23.788C196.337 24.3907 195.924 24.86 195.407 25.196C194.889 25.5267 194.321 25.692 193.703 25.692ZM190.199 25.5V14.588H191.447V23.708L191.079 25.5H190.199ZM202.611 25.692C201.923 25.692 201.31 25.54 200.771 25.236C200.238 24.932 199.816 24.4813 199.507 23.884C199.198 23.2867 199.043 22.5507 199.043 21.676C199.043 20.796 199.198 20.06 199.507 19.468C199.816 18.8707 200.238 18.42 200.771 18.116C201.31 17.812 201.923 17.66 202.611 17.66C203.294 17.66 203.902 17.812 204.435 18.116C204.974 18.42 205.395 18.8707 205.699 19.468C206.008 20.06 206.163 20.796 206.163 21.676C206.163 22.5507 206.008 23.2867 205.699 23.884C205.395 24.4813 204.974 24.932 204.435 25.236C203.902 25.54 203.294 25.692 202.611 25.692ZM202.579 24.604C203.075 24.604 203.496 24.4867 203.843 24.252C204.19 24.012 204.451 23.6733 204.627 23.236C204.808 22.7987 204.899 22.2787 204.899 21.676C204.899 20.764 204.71 20.0467 204.331 19.524C203.952 18.996 203.39 18.732 202.643 18.732C202.142 18.732 201.718 18.852 201.371 19.092C201.03 19.3267 200.768 19.6653 200.587 20.108C200.411 20.5453 200.323 21.068 200.323 21.676C200.323 22.5773 200.512 23.292 200.891 23.82C201.275 24.3427 201.838 24.604 202.579 24.604ZM213.953 17.836H215.201V25.5H213.953V17.836ZM208.529 17.836H209.777V22.604C209.777 23.244 209.932 23.7293 210.241 24.06C210.556 24.3907 211.004 24.556 211.585 24.556C212.065 24.556 212.481 24.428 212.833 24.172C213.19 23.916 213.465 23.564 213.657 23.116C213.854 22.6627 213.953 22.1453 213.953 21.564H214.417C214.417 22.4227 214.292 23.156 214.041 23.764C213.796 24.372 213.446 24.8387 212.993 25.164C212.545 25.484 212.017 25.644 211.409 25.644C210.833 25.644 210.329 25.5373 209.897 25.324C209.465 25.1107 209.129 24.788 208.889 24.356C208.649 23.9187 208.529 23.3667 208.529 22.7V17.836ZM220.952 25.692C220.536 25.692 220.163 25.612 219.832 25.452C219.502 25.292 219.24 25.052 219.048 24.732C218.856 24.412 218.76 24.012 218.76 23.532V15.724H219.992V23.5C219.992 24.2893 220.36 24.684 221.096 24.684C221.315 24.684 221.526 24.66 221.728 24.612C221.936 24.564 222.168 24.492 222.424 24.396L222.6 25.292C222.328 25.4093 222.056 25.5053 221.784 25.58C221.518 25.6547 221.24 25.692 220.952 25.692ZM217.528 18.716V17.852H222.408V18.716H217.528ZM65.63 45.5V35.116H69.294C70.462 35.116 71.3713 35.404 72.022 35.98C72.678 36.556 73.006 37.372 73.006 38.428C73.006 39.4733 72.678 40.284 72.022 40.86C71.3713 41.436 70.462 41.724 69.294 41.724H67.534V45.5H65.63ZM67.534 40.076H69.294C69.8807 40.076 70.3233 39.9213 70.622 39.612C70.9207 39.3027 71.07 38.908 71.07 38.428C71.07 37.9373 70.9207 37.5347 70.622 37.22C70.3233 36.9053 69.8807 36.748 69.294 36.748H67.534V40.076ZM77.0073 35.116V43.852H81.2793V45.5H75.1193V35.116H77.0073ZM82.0495 45.5L85.5855 35.116H87.9535L91.3455 45.5H89.3615L88.6415 43.26H84.7855L84.0495 45.5H82.0495ZM85.2655 41.836H88.1935L86.7375 37.372L85.2655 41.836ZM93.3291 35.116H95.3931L100.113 42.524H99.9691V35.116H101.857V45.5H99.9371L94.9131 37.644H95.2171V45.5H93.3291V35.116ZM103.598 36.748V35.116H111.918V36.748H108.278L108.702 36.316V45.5H106.814V36.316L107.238 36.748H103.598ZM117.809 45.5V35.116H121.473C122.641 35.116 123.55 35.404 124.201 35.98C124.857 36.556 125.185 37.372 125.185 38.428C125.185 39.4733 124.857 40.284 124.201 40.86C123.55 41.436 122.641 41.724 121.473 41.724H119.713V45.5H117.809ZM119.713 40.076H121.473C122.059 40.076 122.502 39.9213 122.801 39.612C123.099 39.3027 123.249 38.908 123.249 38.428C123.249 37.9373 123.099 37.5347 122.801 37.22C122.502 36.9053 122.059 36.748 121.473 36.748H119.713V40.076ZM127.298 45.5V35.116H131.138C132.381 35.116 133.333 35.4067 133.994 35.988C134.661 36.5693 134.994 37.34 134.994 38.3C134.994 39.244 134.661 40.0067 133.994 40.588C133.333 41.164 132.381 41.452 131.138 41.452H129.186V45.5H127.298ZM132.914 45.5L130.162 40.636H132.178L135.378 45.5H132.914ZM129.186 40.188H130.946C131.639 40.188 132.165 40.0307 132.522 39.716C132.879 39.396 133.058 38.9827 133.058 38.476C133.058 37.9587 132.895 37.5427 132.57 37.228C132.245 36.908 131.767 36.748 131.138 36.748H129.186V40.188ZM141.723 45.724C140.8 45.724 139.984 45.5213 139.275 45.116C138.571 44.7107 138.019 44.1053 137.619 43.3C137.219 42.4947 137.019 41.4947 137.019 40.3C137.019 39.084 137.219 38.0787 137.619 37.284C138.019 36.484 138.571 35.8893 139.275 35.5C139.984 35.1053 140.8 34.908 141.723 34.908C142.651 34.908 143.47 35.1107 144.179 35.516C144.888 35.916 145.443 36.516 145.843 37.316C146.243 38.116 146.443 39.1107 146.443 40.3C146.443 41.5107 146.243 42.5187 145.843 43.324C145.443 44.1293 144.888 44.732 144.179 45.132C143.47 45.5267 142.651 45.724 141.723 45.724ZM141.723 44.012C142.571 44.012 143.243 43.692 143.739 43.052C144.24 42.412 144.491 41.4893 144.491 40.284C144.491 39.1213 144.24 38.2173 143.739 37.572C143.243 36.9267 142.571 36.604 141.723 36.604C140.891 36.604 140.224 36.9293 139.723 37.58C139.222 38.2253 138.971 39.132 138.971 40.3C138.971 41.5 139.222 42.42 139.723 43.06C140.224 43.6947 140.891 44.012 141.723 44.012ZM148.789 45.5V35.116H152.453C153.621 35.116 154.53 35.404 155.181 35.98C155.837 36.556 156.165 37.372 156.165 38.428C156.165 39.4733 155.837 40.284 155.181 40.86C154.53 41.436 153.621 41.724 152.453 41.724H150.693V45.5H148.789ZM150.693 40.076H152.453C153.039 40.076 153.482 39.9213 153.781 39.612C154.079 39.3027 154.229 38.908 154.229 38.428C154.229 37.9373 154.079 37.5347 153.781 37.22C153.482 36.9053 153.039 36.748 152.453 36.748H150.693V40.076ZM156.486 45.5L160.022 35.116H162.39L165.782 45.5H163.798L163.078 43.26H159.222L158.486 45.5H156.486ZM159.702 41.836H162.63L161.174 37.372L159.702 41.836ZM171.589 45.724C170.741 45.724 169.976 45.5 169.293 45.052C168.611 44.604 168.067 43.98 167.661 43.18C167.261 42.3747 167.061 41.436 167.061 40.364C167.061 39.516 167.184 38.756 167.429 38.084C167.68 37.412 168.027 36.8387 168.469 36.364C168.912 35.8893 169.432 35.5293 170.029 35.284C170.627 35.0333 171.275 34.908 171.973 34.908C172.944 34.908 173.757 35.1187 174.413 35.54C175.075 35.9613 175.589 36.6253 175.957 37.532L174.021 37.98C173.749 37.5373 173.435 37.2013 173.077 36.972C172.725 36.7373 172.325 36.62 171.877 36.62C171.365 36.62 170.899 36.772 170.477 37.076C170.056 37.3747 169.72 37.804 169.469 38.364C169.219 38.924 169.093 39.5907 169.093 40.364C169.093 41.0893 169.203 41.724 169.421 42.268C169.645 42.812 169.957 43.236 170.357 43.54C170.757 43.844 171.221 43.996 171.749 43.996C172.197 43.996 172.597 43.8973 172.949 43.7C173.307 43.4973 173.587 43.2093 173.789 42.836C173.997 42.4627 174.101 42.012 174.101 41.484H174.517C174.517 42.348 174.413 43.0973 174.205 43.732C174.003 44.3667 173.685 44.8573 173.253 45.204C172.821 45.5507 172.267 45.724 171.589 45.724ZM174.373 45.5L174.101 43.212V41.42L171.765 41.372V40.172H175.909V45.5H174.373ZM177.65 45.5L181.186 35.116H183.554L186.946 45.5H184.962L184.242 43.26H180.386L179.65 45.5H177.65ZM180.866 41.836H183.794L182.338 37.372L180.866 41.836ZM186.85 36.748V35.116H195.17V36.748H191.53L191.954 36.316V45.5H190.066V36.316L190.49 36.748H186.85ZM196.902 45.5V35.116H198.79V45.5H196.902ZM205.905 45.724C204.983 45.724 204.167 45.5213 203.457 45.116C202.753 44.7107 202.201 44.1053 201.801 43.3C201.401 42.4947 201.201 41.4947 201.201 40.3C201.201 39.084 201.401 38.0787 201.801 37.284C202.201 36.484 202.753 35.8893 203.457 35.5C204.167 35.1053 204.983 34.908 205.905 34.908C206.833 34.908 207.652 35.1107 208.361 35.516C209.071 35.916 209.625 36.516 210.025 37.316C210.425 38.116 210.625 39.1107 210.625 40.3C210.625 41.5107 210.425 42.5187 210.025 43.324C209.625 44.1293 209.071 44.732 208.361 45.132C207.652 45.5267 206.833 45.724 205.905 45.724ZM205.905 44.012C206.753 44.012 207.425 43.692 207.921 43.052C208.423 42.412 208.673 41.4893 208.673 40.284C208.673 39.1213 208.423 38.2173 207.921 37.572C207.425 36.9267 206.753 36.604 205.905 36.604C205.073 36.604 204.407 36.9293 203.905 37.58C203.404 38.2253 203.153 39.132 203.153 40.3C203.153 41.5 203.404 42.42 203.905 43.06C204.407 43.6947 205.073 44.012 205.905 44.012ZM212.987 35.116H215.051L219.771 42.524H219.627V35.116H221.515V45.5H219.595L214.571 37.644H214.875V45.5H212.987V35.116Z" fill="#333333"/>
</g>
<defs>
<filter id="filter0_d_7055_5762" x="1" y="0" width="254.767" height="68" filterUnits="userSpaceOnUse" color-interpolation-filters="sRGB">
<feFlood flood-opacity="0" result="BackgroundImageFix"/>
<feColorMatrix in="SourceAlpha" type="matrix" values="0 0 0 0 0 0 0 0 0 0 0 0 0 0 0 0 0 0 127 0" result="hardAlpha"/>
<feOffset dy="4"/>
<feGaussianBlur stdDeviation="3"/>
<feComposite in2="hardAlpha" operator="out"/>
<feColorMatrix type="matrix" values="0 0 0 0 0 0 0 0 0 0 0 0 0 0 0 0 0 0 0.1 0"/>
<feBlend mode="normal" in2="BackgroundImageFix" result="effect1_dropShadow_7055_5762"/>
<feBlend mode="normal" in="SourceGraphic" in2="effect1_dropShadow_7055_5762" result="shape"/>
</filter>
<filter id="filter1_d_7055_5762" x="12.0691" y="12.5879" width="216.531" height="43.1357" filterUnits="userSpaceOnUse" color-interpolation-filters="sRGB">
<feFlood flood-opacity="0" result="BackgroundImageFix"/>
<feColorMatrix in="SourceAlpha" type="matrix" values="0 0 0 0 0 0 0 0 0 0 0 0 0 0 0 0 0 0 127 0" result="hardAlpha"/>
<feOffset dy="4"/>
<feGaussianBlur stdDeviation="3"/>
<feComposite in2="hardAlpha" operator="out"/>
<feColorMatrix type="matrix" values="0 0 0 0 0 0 0 0 0 0 0 0 0 0 0 0 0 0 0.05 0"/>
<feBlend mode="normal" in2="BackgroundImageFix" result="effect1_dropShadow_7055_5762"/>
<feBlend mode="normal" in="SourceGraphic" in2="effect1_dropShadow_7055_5762" result="shape"/>
</filter>
</defs>
</svg>
