<svg width="256" height="68" viewBox="0 0 256 68" fill="none" xmlns="http://www.w3.org/2000/svg">
<mask id="path-1-inside-1_7073_5885" fill="white">
<path d="M248.724 27.3669L239 19L239 11C239 6.02944 234.971 2 230 2L8.99997 1.99998C4.02941 1.99998 -2.59742e-05 6.02942 -2.64087e-05 11L-2.97308e-05 49C-3.01653e-05 53.9705 4.0294 58 8.99997 58L230 58C234.971 58 239 53.9706 239 49L239 39.5L248.612 32.0069C250.106 30.8425 250.16 28.6022 248.724 27.3669Z"/>
</mask>
<path d="M248.724 27.3669L239 19L239 11C239 6.02944 234.971 2 230 2L8.99997 1.99998C4.02941 1.99998 -2.59742e-05 6.02942 -2.64087e-05 11L-2.97308e-05 49C-3.01653e-05 53.9705 4.0294 58 8.99997 58L230 58C234.971 58 239 53.9706 239 49L239 39.5L248.612 32.0069C250.106 30.8425 250.16 28.6022 248.724 27.3669Z" fill="white"/>
<path d="M239 19L237.6 19L237.6 19.6423L238.087 20.0612L239 19ZM248.724 27.3669L249.637 26.3056L249.637 26.3056L248.724 27.3669ZM248.612 32.0069L247.751 30.9028L247.751 30.9028L248.612 32.0069ZM239 39.5L238.139 38.3959L237.6 38.8162L237.6 39.5L239 39.5ZM238.087 20.0612L247.811 28.4281L249.637 26.3056L239.913 17.9388L238.087 20.0612ZM247.751 30.9028L238.139 38.3959L239.861 40.6041L249.473 33.1111L247.751 30.9028ZM247.811 28.4281C248.577 29.0869 248.548 30.2817 247.751 30.9028L249.473 33.1111C251.663 31.4032 251.743 28.1175 249.637 26.3056L247.811 28.4281ZM230 56.6L8.99997 56.6L8.99997 59.4L230 59.4L230 56.6ZM1.39996 49L1.39997 11L-1.40002 11L-1.40002 49L1.39996 49ZM8.99997 3.39998L230 3.4L230 0.599997L8.99997 0.599977L8.99997 3.39998ZM237.6 39.5L237.6 49L240.4 49L240.4 39.5L237.6 39.5ZM237.6 11L237.6 19L240.4 19L240.4 11L237.6 11ZM230 3.4C234.197 3.4 237.6 6.80263 237.6 11L240.4 11C240.4 5.25624 235.744 0.599997 230 0.599997L230 3.4ZM1.39997 11C1.39997 6.80261 4.8026 3.39998 8.99997 3.39998L8.99997 0.599977C3.25622 0.599977 -1.40002 5.25622 -1.40002 11L1.39997 11ZM8.99997 56.6C4.8026 56.6 1.39996 53.1973 1.39996 49L-1.40002 49C-1.40002 54.7437 3.25621 59.4 8.99997 59.4L8.99997 56.6ZM230 59.4C235.744 59.4 240.4 54.7438 240.4 49L237.6 49C237.6 53.1974 234.197 56.6 230 56.6L230 59.4Z" fill="white" mask="url(#path-1-inside-1_7073_5885)"/>
<g filter="url(#filter0_d_7073_5885)">
<mask id="path-3-inside-2_7073_5885" fill="white">
<path d="M248.724 27.3669L239 19L239 11C239 6.02944 234.971 2 230 2L87 1.99999C82.0294 1.99999 78 6.02942 78 11L78 49C78 53.9705 82.0294 58 87 58L230 58C234.971 58 239 53.9706 239 49L239 39.5L248.612 32.0069C250.106 30.8425 250.16 28.6022 248.724 27.3669Z"/>
</mask>
<path d="M248.724 27.3669L239 19L239 11C239 6.02944 234.971 2 230 2L87 1.99999C82.0294 1.99999 78 6.02942 78 11L78 49C78 53.9705 82.0294 58 87 58L230 58C234.971 58 239 53.9706 239 49L239 39.5L248.612 32.0069C250.106 30.8425 250.16 28.6022 248.724 27.3669Z" fill="white"/>
<path d="M239 19L237.6 19L237.6 19.6423L238.087 20.0612L239 19ZM248.724 27.3669L249.637 26.3056L249.637 26.3056L248.724 27.3669ZM248.612 32.0069L247.751 30.9028L247.751 30.9028L248.612 32.0069ZM239 39.5L238.139 38.3959L237.6 38.8162L237.6 39.5L239 39.5ZM230 58L230 59.4L230 58ZM87 58L87 56.6L87 58ZM238.087 20.0612L247.811 28.4281L249.637 26.3056L239.913 17.9388L238.087 20.0612ZM247.751 30.9028L238.139 38.3959L239.861 40.6041L249.473 33.1111L247.751 30.9028ZM247.811 28.4281C248.577 29.0869 248.548 30.2817 247.751 30.9028L249.473 33.1111C251.663 31.4032 251.743 28.1175 249.637 26.3056L247.811 28.4281ZM230 56.6L87 56.6L87 59.4L230 59.4L230 56.6ZM79.4 49L79.4 11L76.6 11L76.6 49L79.4 49ZM87 3.39999L230 3.4L230 0.599997L87 0.599984L87 3.39999ZM237.6 39.5L237.6 49L240.4 49L240.4 39.5L237.6 39.5ZM237.6 11L237.6 19L240.4 19L240.4 11L237.6 11ZM230 3.4C234.197 3.4 237.6 6.80263 237.6 11L240.4 11C240.4 5.25624 235.744 0.599997 230 0.599997L230 3.4ZM79.4 11C79.4 6.80262 82.8026 3.39999 87 3.39999L87 0.599984C81.2562 0.599984 76.6 5.25623 76.6 11L79.4 11ZM87 56.6C82.8026 56.6 79.4 53.1973 79.4 49L76.6 49C76.6 54.7437 81.2562 59.4 87 59.4L87 56.6ZM230 59.4C235.744 59.4 240.4 54.7438 240.4 49L237.6 49C237.6 53.1974 234.197 56.6 230 56.6L230 59.4Z" fill="#333333" mask="url(#path-3-inside-2_7073_5885)"/>
</g>
<g filter="url(#filter1_d_7073_5885)">
<path d="M109.512 15.452H111L116.104 23.724H115.992V15.452H117.24V25.5H115.848L110.568 16.956H110.76V25.5H109.512V15.452ZM125.362 25.5L125.202 23.82V20.54C125.202 19.852 125.055 19.3587 124.762 19.06C124.469 18.756 124.029 18.604 123.442 18.604C123.111 18.604 122.81 18.652 122.538 18.748C122.271 18.844 122.058 18.9933 121.898 19.196C121.743 19.3933 121.666 19.6493 121.666 19.964H120.274C120.274 19.4093 120.41 18.964 120.682 18.628C120.954 18.2867 121.327 18.0413 121.802 17.892C122.282 17.7373 122.829 17.66 123.442 17.66C124.029 17.66 124.549 17.7587 125.002 17.956C125.455 18.1533 125.81 18.468 126.066 18.9C126.322 19.3267 126.45 19.884 126.45 20.572V25.5H125.362ZM122.754 25.692C122.125 25.692 121.605 25.58 121.194 25.356C120.783 25.132 120.477 24.8413 120.274 24.484C120.071 24.1267 119.97 23.7507 119.97 23.356C119.97 22.8387 120.098 22.4173 120.354 22.092C120.615 21.7667 120.97 21.5293 121.418 21.38C121.866 21.2253 122.37 21.148 122.93 21.148C123.33 21.148 123.73 21.188 124.13 21.268C124.535 21.348 124.93 21.4573 125.314 21.596V22.38C124.994 22.252 124.631 22.1507 124.226 22.076C123.826 22.0013 123.458 21.964 123.122 21.964C122.61 21.964 122.178 22.0707 121.826 22.284C121.474 22.492 121.298 22.8493 121.298 23.356C121.298 23.7293 121.431 24.0493 121.698 24.316C121.97 24.5827 122.402 24.716 122.994 24.716C123.41 24.716 123.783 24.62 124.114 24.428C124.45 24.2307 124.714 23.9853 124.906 23.692C125.103 23.3987 125.202 23.1053 125.202 22.812H125.506C125.506 23.324 125.394 23.7987 125.17 24.236C124.951 24.6733 124.637 25.0253 124.226 25.292C123.815 25.5587 123.325 25.692 122.754 25.692ZM128.27 17.852H129.694L132.094 24.428H131.918L134.318 17.852H135.742L132.686 25.5H131.326L128.27 17.852ZM138.509 16.044C138.253 16.044 138.051 15.972 137.901 15.828C137.752 15.6787 137.677 15.484 137.677 15.244C137.677 15.0093 137.752 14.8227 137.901 14.684C138.051 14.5453 138.253 14.476 138.509 14.476C138.765 14.476 138.968 14.5453 139.117 14.684C139.267 14.8227 139.341 15.0093 139.341 15.244C139.341 15.484 139.267 15.6787 139.117 15.828C138.968 15.972 138.765 16.044 138.509 16.044ZM137.885 25.5V17.836H139.133V25.5H137.885ZM145.435 29.436C144.651 29.436 143.971 29.324 143.395 29.1C142.819 28.8813 142.371 28.5853 142.051 28.212C141.736 27.844 141.579 27.436 141.579 26.988C141.579 26.396 141.795 25.9427 142.227 25.628C142.664 25.3187 143.227 25.164 143.915 25.164L144.603 25.596C144.027 25.596 143.582 25.716 143.267 25.956C142.952 26.196 142.795 26.524 142.795 26.94C142.795 27.356 143.019 27.708 143.467 27.996C143.915 28.284 144.571 28.428 145.435 28.428C146.075 28.428 146.635 28.3347 147.115 28.148C147.6 27.9667 147.976 27.7267 148.243 27.428C148.515 27.1347 148.651 26.8173 148.651 26.476C148.651 26.236 148.563 26.028 148.387 25.852C148.211 25.6813 147.942 25.596 147.579 25.596H144.603C144.086 25.596 143.638 25.5187 143.259 25.364C142.886 25.204 142.598 24.996 142.395 24.74C142.192 24.484 142.091 24.204 142.091 23.9C142.091 23.58 142.182 23.308 142.363 23.084C142.544 22.86 142.779 22.6893 143.067 22.572C143.36 22.4547 143.675 22.396 144.011 22.396L144.251 22.86C144.091 22.86 143.928 22.8973 143.763 22.972C143.603 23.0413 143.467 23.148 143.355 23.292C143.248 23.4307 143.195 23.6067 143.195 23.82C143.195 24.0653 143.296 24.2707 143.499 24.436C143.702 24.6013 144.07 24.684 144.603 24.684H147.579C148.299 24.684 148.864 24.836 149.275 25.14C149.691 25.444 149.899 25.868 149.899 26.412C149.899 26.9133 149.72 27.3933 149.363 27.852C149.006 28.316 148.494 28.6947 147.827 28.988C147.16 29.2867 146.363 29.436 145.435 29.436ZM145.659 23.26C145.072 23.26 144.542 23.1427 144.067 22.908C143.598 22.6733 143.224 22.3453 142.947 21.924C142.675 21.5027 142.539 21.0147 142.539 20.46C142.539 19.9 142.675 19.4093 142.947 18.988C143.224 18.5667 143.598 18.2413 144.067 18.012C144.542 17.7773 145.072 17.66 145.659 17.66C146.23 17.66 146.747 17.7773 147.211 18.012C147.68 18.2413 148.054 18.5667 148.331 18.988C148.608 19.4093 148.747 19.9 148.747 20.46C148.747 21.0147 148.608 21.5027 148.331 21.924C148.054 22.3453 147.68 22.6733 147.211 22.908C146.747 23.1427 146.23 23.26 145.659 23.26ZM145.659 22.364C146.246 22.364 146.702 22.1827 147.027 21.82C147.352 21.4573 147.515 21.004 147.515 20.46C147.515 19.9 147.352 19.4467 147.027 19.1C146.702 18.748 146.246 18.572 145.659 18.572C145.078 18.572 144.619 18.748 144.283 19.1C143.952 19.4467 143.787 19.9 143.787 20.46C143.787 21.004 143.952 21.4573 144.283 21.82C144.619 22.1827 145.078 22.364 145.659 22.364ZM148.171 18.876L147.579 18.636C147.579 18.188 147.667 17.796 147.843 17.46C148.019 17.1187 148.27 16.8547 148.595 16.668C148.92 16.476 149.307 16.38 149.755 16.38L149.659 17.612C149.179 17.612 148.811 17.716 148.555 17.924C148.299 18.1267 148.171 18.444 148.171 18.876ZM156.658 25.5L156.498 23.82V20.54C156.498 19.852 156.352 19.3587 156.058 19.06C155.765 18.756 155.325 18.604 154.738 18.604C154.408 18.604 154.106 18.652 153.834 18.748C153.568 18.844 153.354 18.9933 153.194 19.196C153.04 19.3933 152.962 19.6493 152.962 19.964H151.57C151.57 19.4093 151.706 18.964 151.978 18.628C152.25 18.2867 152.624 18.0413 153.098 17.892C153.578 17.7373 154.125 17.66 154.738 17.66C155.325 17.66 155.845 17.7587 156.298 17.956C156.752 18.1533 157.106 18.468 157.362 18.9C157.618 19.3267 157.746 19.884 157.746 20.572V25.5H156.658ZM154.05 25.692C153.421 25.692 152.901 25.58 152.49 25.356C152.08 25.132 151.773 24.8413 151.57 24.484C151.368 24.1267 151.266 23.7507 151.266 23.356C151.266 22.8387 151.394 22.4173 151.65 22.092C151.912 21.7667 152.266 21.5293 152.714 21.38C153.162 21.2253 153.666 21.148 154.226 21.148C154.626 21.148 155.026 21.188 155.426 21.268C155.832 21.348 156.226 21.4573 156.61 21.596V22.38C156.29 22.252 155.928 22.1507 155.522 22.076C155.122 22.0013 154.754 21.964 154.418 21.964C153.906 21.964 153.474 22.0707 153.122 22.284C152.77 22.492 152.594 22.8493 152.594 23.356C152.594 23.7293 152.728 24.0493 152.994 24.316C153.266 24.5827 153.698 24.716 154.29 24.716C154.706 24.716 155.08 24.62 155.41 24.428C155.746 24.2307 156.01 23.9853 156.202 23.692C156.4 23.3987 156.498 23.1053 156.498 22.812H156.802C156.802 23.324 156.69 23.7987 156.466 24.236C156.248 24.6733 155.933 25.0253 155.522 25.292C155.112 25.5587 154.621 25.692 154.05 25.692ZM163.247 25.692C162.831 25.692 162.457 25.612 162.127 25.452C161.796 25.292 161.535 25.052 161.343 24.732C161.151 24.412 161.055 24.012 161.055 23.532V15.724H162.287V23.5C162.287 24.2893 162.655 24.684 163.391 24.684C163.609 24.684 163.82 24.66 164.023 24.612C164.231 24.564 164.463 24.492 164.719 24.396L164.895 25.292C164.623 25.4093 164.351 25.5053 164.079 25.58C163.812 25.6547 163.535 25.692 163.247 25.692ZM159.823 18.716V17.852H164.703V18.716H159.823ZM169.726 25.692C169.065 25.692 168.473 25.524 167.95 25.188C167.433 24.8467 167.022 24.3747 166.718 23.772C166.42 23.1693 166.27 22.476 166.27 21.692C166.27 20.8547 166.42 20.1347 166.718 19.532C167.017 18.9293 167.425 18.468 167.942 18.148C168.465 17.8227 169.06 17.66 169.726 17.66C170.308 17.66 170.804 17.7773 171.214 18.012C171.625 18.2467 171.956 18.564 172.206 18.964C172.457 19.364 172.63 19.8173 172.726 20.324C172.828 20.8253 172.857 21.3453 172.814 21.884H167.278V21.116H171.99L171.622 21.356C171.638 21.0413 171.62 20.7267 171.566 20.412C171.518 20.0973 171.425 19.8093 171.286 19.548C171.148 19.2813 170.953 19.068 170.702 18.908C170.452 18.748 170.132 18.668 169.742 18.668C169.252 18.668 168.841 18.7933 168.51 19.044C168.18 19.2947 167.932 19.6253 167.766 20.036C167.601 20.4413 167.518 20.8813 167.518 21.356V21.868C167.518 22.4013 167.598 22.8787 167.758 23.3C167.924 23.7213 168.169 24.0547 168.494 24.3C168.82 24.5453 169.23 24.668 169.726 24.668C170.222 24.668 170.63 24.548 170.95 24.308C171.27 24.068 171.465 23.7133 171.534 23.244H172.83C172.75 23.7507 172.569 24.188 172.286 24.556C172.004 24.9187 171.644 25.1987 171.206 25.396C170.769 25.5933 170.276 25.692 169.726 25.692ZM181.758 25.692C181.342 25.692 180.969 25.612 180.638 25.452C180.307 25.292 180.046 25.052 179.854 24.732C179.662 24.412 179.566 24.012 179.566 23.532V15.724H180.798V23.5C180.798 24.2893 181.166 24.684 181.902 24.684C182.121 24.684 182.331 24.66 182.534 24.612C182.742 24.564 182.974 24.492 183.23 24.396L183.406 25.292C183.134 25.4093 182.862 25.5053 182.59 25.58C182.323 25.6547 182.046 25.692 181.758 25.692ZM178.334 18.716V17.852H183.214V18.716H178.334ZM188.35 25.692C187.662 25.692 187.048 25.54 186.51 25.236C185.976 24.932 185.555 24.4813 185.246 23.884C184.936 23.2867 184.782 22.5507 184.782 21.676C184.782 20.796 184.936 20.06 185.246 19.468C185.555 18.8707 185.976 18.42 186.51 18.116C187.048 17.812 187.662 17.66 188.35 17.66C189.032 17.66 189.64 17.812 190.174 18.116C190.712 18.42 191.134 18.8707 191.438 19.468C191.747 20.06 191.902 20.796 191.902 21.676C191.902 22.5507 191.747 23.2867 191.438 23.884C191.134 24.4813 190.712 24.932 190.174 25.236C189.64 25.54 189.032 25.692 188.35 25.692ZM188.318 24.604C188.814 24.604 189.235 24.4867 189.582 24.252C189.928 24.012 190.19 23.6733 190.366 23.236C190.547 22.7987 190.638 22.2787 190.638 21.676C190.638 20.764 190.448 20.0467 190.07 19.524C189.691 18.996 189.128 18.732 188.382 18.732C187.88 18.732 187.456 18.852 187.11 19.092C186.768 19.3267 186.507 19.6653 186.326 20.108C186.15 20.5453 186.062 21.068 186.062 21.676C186.062 22.5773 186.251 23.292 186.63 23.82C187.014 24.3427 187.576 24.604 188.318 24.604ZM200.8 25.692C200.384 25.692 200.011 25.612 199.68 25.452C199.35 25.292 199.088 25.052 198.896 24.732C198.704 24.412 198.608 24.012 198.608 23.532V15.724H199.84V23.5C199.84 24.2893 200.208 24.684 200.944 24.684C201.163 24.684 201.374 24.66 201.576 24.612C201.784 24.564 202.016 24.492 202.272 24.396L202.448 25.292C202.176 25.4093 201.904 25.5053 201.632 25.58C201.366 25.6547 201.088 25.692 200.8 25.692ZM197.376 18.716V17.852H202.256V18.716H197.376ZM210.064 25.5V21.004C210.064 20.2733 209.888 19.7187 209.536 19.34C209.189 18.956 208.715 18.764 208.112 18.764C207.653 18.764 207.256 18.8893 206.92 19.14C206.584 19.3907 206.325 19.7507 206.144 20.22C205.963 20.684 205.872 21.2387 205.872 21.884H205.392C205.392 20.9933 205.509 20.2333 205.744 19.604C205.979 18.9747 206.32 18.4947 206.768 18.164C207.221 17.828 207.771 17.66 208.416 17.66C209.019 17.66 209.533 17.796 209.96 18.068C210.392 18.3347 210.723 18.7187 210.952 19.22C211.181 19.7213 211.296 20.316 211.296 21.004V25.5H210.064ZM204.624 25.5V14.588H205.872V25.5H204.624ZM217.096 25.692C216.435 25.692 215.843 25.524 215.32 25.188C214.803 24.8467 214.392 24.3747 214.088 23.772C213.79 23.1693 213.64 22.476 213.64 21.692C213.64 20.8547 213.79 20.1347 214.088 19.532C214.387 18.9293 214.795 18.468 215.312 18.148C215.835 17.8227 216.43 17.66 217.096 17.66C217.678 17.66 218.174 17.7773 218.584 18.012C218.995 18.2467 219.326 18.564 219.576 18.964C219.827 19.364 220 19.8173 220.096 20.324C220.198 20.8253 220.227 21.3453 220.184 21.884H214.648V21.116H219.36L218.992 21.356C219.008 21.0413 218.99 20.7267 218.936 20.412C218.888 20.0973 218.795 19.8093 218.656 19.548C218.518 19.2813 218.323 19.068 218.072 18.908C217.822 18.748 217.502 18.668 217.112 18.668C216.622 18.668 216.211 18.7933 215.88 19.044C215.55 19.2947 215.302 19.6253 215.136 20.036C214.971 20.4413 214.888 20.8813 214.888 21.356V21.868C214.888 22.4013 214.968 22.8787 215.128 23.3C215.294 23.7213 215.539 24.0547 215.864 24.3C216.19 24.5453 216.6 24.668 217.096 24.668C217.592 24.668 218 24.548 218.32 24.308C218.64 24.068 218.835 23.7133 218.904 23.244H220.2C220.12 23.7507 219.939 24.188 219.656 24.556C219.374 24.9187 219.014 25.1987 218.576 25.396C218.139 25.5933 217.646 25.692 217.096 25.692ZM98.825 45.724C97.977 45.724 97.2117 45.5 96.529 45.052C95.8463 44.604 95.3023 43.98 94.897 43.18C94.497 42.3747 94.297 41.436 94.297 40.364C94.297 39.516 94.4197 38.756 94.665 38.084C94.9157 37.412 95.2623 36.8387 95.705 36.364C96.1477 35.8893 96.6677 35.5293 97.265 35.284C97.8623 35.0333 98.5103 34.908 99.209 34.908C100.18 34.908 100.993 35.1187 101.649 35.54C102.31 35.9613 102.825 36.6253 103.193 37.532L101.257 37.98C100.985 37.5373 100.67 37.2013 100.313 36.972C99.961 36.7373 99.561 36.62 99.113 36.62C98.601 36.62 98.1343 36.772 97.713 37.076C97.2917 37.3747 96.9557 37.804 96.705 38.364C96.4543 38.924 96.329 39.5907 96.329 40.364C96.329 41.0893 96.4383 41.724 96.657 42.268C96.881 42.812 97.193 43.236 97.593 43.54C97.993 43.844 98.457 43.996 98.985 43.996C99.433 43.996 99.833 43.8973 100.185 43.7C100.542 43.4973 100.822 43.2093 101.025 42.836C101.233 42.4627 101.337 42.012 101.337 41.484H101.753C101.753 42.348 101.649 43.0973 101.441 43.732C101.238 44.3667 100.921 44.8573 100.489 45.204C100.057 45.5507 99.5023 45.724 98.825 45.724ZM101.609 45.5L101.337 43.212V41.42L99.001 41.372V40.172H103.145V45.5H101.609ZM104.885 45.5L108.421 35.116H110.789L114.181 45.5H112.197L111.477 43.26H107.621L106.885 45.5H104.885ZM108.101 41.836H111.029L109.573 37.372L108.101 41.836ZM116.197 45.5V35.116H120.037C121.279 35.116 122.231 35.4067 122.893 35.988C123.559 36.5693 123.893 37.34 123.893 38.3C123.893 39.244 123.559 40.0067 122.893 40.588C122.231 41.164 121.279 41.452 120.037 41.452H118.085V45.5H116.197ZM121.813 45.5L119.061 40.636H121.077L124.277 45.5H121.813ZM118.085 40.188H119.845C120.538 40.188 121.063 40.0307 121.421 39.716C121.778 39.396 121.957 38.9827 121.957 38.476C121.957 37.9587 121.794 37.5427 121.469 37.228C121.143 36.908 120.666 36.748 120.037 36.748H118.085V40.188ZM126.654 35.116H130.014C131.07 35.116 131.995 35.3293 132.79 35.756C133.584 36.1773 134.203 36.7773 134.646 37.556C135.088 38.3347 135.31 39.2547 135.31 40.316C135.31 41.3667 135.088 42.2813 134.646 43.06C134.203 43.8333 133.584 44.4333 132.79 44.86C131.995 45.2867 131.07 45.5 130.014 45.5H126.654V35.116ZM128.542 36.828V43.804H130.014C130.686 43.804 131.264 43.652 131.75 43.348C132.24 43.044 132.616 42.6307 132.878 42.108C133.144 41.58 133.278 40.9827 133.278 40.316C133.278 39.6387 133.144 39.0387 132.878 38.516C132.616 37.9933 132.24 37.5827 131.75 37.284C131.264 36.98 130.686 36.828 130.014 36.828H128.542ZM137.782 45.5V35.116H144.454V36.748H139.67V39.484H144.166V41.116H139.67V43.852H144.454V45.5H137.782ZM147.317 35.116H149.381L154.101 42.524H153.957V35.116H155.845V45.5H153.925L148.901 37.644H149.205V45.5H147.317V35.116ZM158.977 45.5V35.116H160.865V45.5H158.977ZM163.98 35.116H166.044L170.764 42.524H170.62V35.116H172.508V45.5H170.588L165.564 37.644H165.868V45.5H163.98V35.116ZM179.433 45.724C178.585 45.724 177.82 45.5 177.137 45.052C176.454 44.604 175.91 43.98 175.505 43.18C175.105 42.3747 174.905 41.436 174.905 40.364C174.905 39.516 175.028 38.756 175.273 38.084C175.524 37.412 175.87 36.8387 176.313 36.364C176.756 35.8893 177.276 35.5293 177.873 35.284C178.47 35.0333 179.118 34.908 179.817 34.908C180.788 34.908 181.601 35.1187 182.257 35.54C182.918 35.9613 183.433 36.6253 183.801 37.532L181.865 37.98C181.593 37.5373 181.278 37.2013 180.921 36.972C180.569 36.7373 180.169 36.62 179.721 36.62C179.209 36.62 178.742 36.772 178.321 37.076C177.9 37.3747 177.564 37.804 177.313 38.364C177.062 38.924 176.937 39.5907 176.937 40.364C176.937 41.0893 177.046 41.724 177.265 42.268C177.489 42.812 177.801 43.236 178.201 43.54C178.601 43.844 179.065 43.996 179.593 43.996C180.041 43.996 180.441 43.8973 180.793 43.7C181.15 43.4973 181.43 43.2093 181.633 42.836C181.841 42.4627 181.945 42.012 181.945 41.484H182.361C182.361 42.348 182.257 43.0973 182.049 43.732C181.846 44.3667 181.529 44.8573 181.097 45.204C180.665 45.5507 180.11 45.724 179.433 45.724ZM182.217 45.5L181.945 43.212V41.42L179.609 41.372V40.172H183.753V45.5H182.217ZM194.186 45.692C193.626 45.692 193.138 45.564 192.722 45.308C192.311 45.052 191.994 44.6787 191.77 44.188C191.546 43.692 191.434 43.0893 191.434 42.38H191.962C191.962 42.8547 192.061 43.2547 192.258 43.58C192.455 43.9053 192.711 44.1533 193.026 44.324C193.346 44.4893 193.685 44.572 194.042 44.572C194.426 44.572 194.794 44.4627 195.146 44.244C195.498 44.02 195.786 43.692 196.01 43.26C196.234 42.828 196.346 42.2947 196.346 41.66C196.346 41.052 196.242 40.532 196.034 40.1C195.831 39.668 195.557 39.3373 195.21 39.108C194.863 38.8787 194.479 38.764 194.058 38.764C193.695 38.764 193.354 38.852 193.034 39.028C192.714 39.204 192.455 39.4627 192.258 39.804C192.061 40.14 191.962 40.556 191.962 41.052H191.434C191.434 40.3107 191.557 39.6893 191.802 39.188C192.047 38.6813 192.381 38.3 192.802 38.044C193.223 37.788 193.695 37.66 194.218 37.66C194.815 37.66 195.373 37.82 195.89 38.14C196.407 38.46 196.826 38.9187 197.146 39.516C197.466 40.1133 197.626 40.828 197.626 41.66C197.626 42.5027 197.463 43.2253 197.138 43.828C196.818 44.4307 196.397 44.892 195.874 45.212C195.351 45.532 194.789 45.692 194.186 45.692ZM190.714 49.26V37.852H191.754L191.962 39.644V49.26H190.714ZM204.97 45.5L204.81 43.82V40.54C204.81 39.852 204.663 39.3587 204.37 39.06C204.076 38.756 203.636 38.604 203.05 38.604C202.719 38.604 202.418 38.652 202.146 38.748C201.879 38.844 201.666 38.9933 201.506 39.196C201.351 39.3933 201.274 39.6493 201.274 39.964H199.882C199.882 39.4093 200.018 38.964 200.29 38.628C200.562 38.2867 200.935 38.0413 201.41 37.892C201.89 37.7373 202.436 37.66 203.05 37.66C203.636 37.66 204.156 37.7587 204.61 37.956C205.063 38.1533 205.418 38.468 205.674 38.9C205.93 39.3267 206.058 39.884 206.058 40.572V45.5H204.97ZM202.362 45.692C201.732 45.692 201.212 45.58 200.802 45.356C200.391 45.132 200.084 44.8413 199.882 44.484C199.679 44.1267 199.578 43.7507 199.578 43.356C199.578 42.8387 199.706 42.4173 199.962 42.092C200.223 41.7667 200.578 41.5293 201.026 41.38C201.474 41.2253 201.978 41.148 202.538 41.148C202.938 41.148 203.338 41.188 203.738 41.268C204.143 41.348 204.538 41.4573 204.922 41.596V42.38C204.602 42.252 204.239 42.1507 203.834 42.076C203.434 42.0013 203.066 41.964 202.73 41.964C202.218 41.964 201.786 42.0707 201.434 42.284C201.082 42.492 200.906 42.8493 200.906 43.356C200.906 43.7293 201.039 44.0493 201.306 44.316C201.578 44.5827 202.01 44.716 202.602 44.716C203.018 44.716 203.391 44.62 203.722 44.428C204.058 44.2307 204.322 43.9853 204.514 43.692C204.711 43.3987 204.81 43.1053 204.81 42.812H205.114C205.114 43.324 205.002 43.7987 204.778 44.236C204.559 44.6733 204.244 45.0253 203.834 45.292C203.423 45.5587 202.932 45.692 202.362 45.692ZM211.91 49.436C211.126 49.436 210.446 49.324 209.87 49.1C209.294 48.8813 208.846 48.5853 208.526 48.212C208.211 47.844 208.054 47.436 208.054 46.988C208.054 46.396 208.27 45.9427 208.702 45.628C209.139 45.3187 209.702 45.164 210.39 45.164L211.078 45.596C210.502 45.596 210.057 45.716 209.742 45.956C209.427 46.196 209.27 46.524 209.27 46.94C209.27 47.356 209.494 47.708 209.942 47.996C210.39 48.284 211.046 48.428 211.91 48.428C212.55 48.428 213.11 48.3347 213.59 48.148C214.075 47.9667 214.451 47.7267 214.718 47.428C214.99 47.1347 215.126 46.8173 215.126 46.476C215.126 46.236 215.038 46.028 214.862 45.852C214.686 45.6813 214.417 45.596 214.054 45.596H211.078C210.561 45.596 210.113 45.5187 209.734 45.364C209.361 45.204 209.073 44.996 208.87 44.74C208.667 44.484 208.566 44.204 208.566 43.9C208.566 43.58 208.657 43.308 208.838 43.084C209.019 42.86 209.254 42.6893 209.542 42.572C209.835 42.4547 210.15 42.396 210.486 42.396L210.726 42.86C210.566 42.86 210.403 42.8973 210.238 42.972C210.078 43.0413 209.942 43.148 209.83 43.292C209.723 43.4307 209.67 43.6067 209.67 43.82C209.67 44.0653 209.771 44.2707 209.974 44.436C210.177 44.6013 210.545 44.684 211.078 44.684H214.054C214.774 44.684 215.339 44.836 215.75 45.14C216.166 45.444 216.374 45.868 216.374 46.412C216.374 46.9133 216.195 47.3933 215.838 47.852C215.481 48.316 214.969 48.6947 214.302 48.988C213.635 49.2867 212.838 49.436 211.91 49.436ZM212.134 43.26C211.547 43.26 211.017 43.1427 210.542 42.908C210.073 42.6733 209.699 42.3453 209.422 41.924C209.15 41.5027 209.014 41.0147 209.014 40.46C209.014 39.9 209.15 39.4093 209.422 38.988C209.699 38.5667 210.073 38.2413 210.542 38.012C211.017 37.7773 211.547 37.66 212.134 37.66C212.705 37.66 213.222 37.7773 213.686 38.012C214.155 38.2413 214.529 38.5667 214.806 38.988C215.083 39.4093 215.222 39.9 215.222 40.46C215.222 41.0147 215.083 41.5027 214.806 41.924C214.529 42.3453 214.155 42.6733 213.686 42.908C213.222 43.1427 212.705 43.26 212.134 43.26ZM212.134 42.364C212.721 42.364 213.177 42.1827 213.502 41.82C213.827 41.4573 213.99 41.004 213.99 40.46C213.99 39.9 213.827 39.4467 213.502 39.1C213.177 38.748 212.721 38.572 212.134 38.572C211.553 38.572 211.094 38.748 210.758 39.1C210.427 39.4467 210.262 39.9 210.262 40.46C210.262 41.004 210.427 41.4573 210.758 41.82C211.094 42.1827 211.553 42.364 212.134 42.364ZM214.646 38.876L214.054 38.636C214.054 38.188 214.142 37.796 214.318 37.46C214.494 37.1187 214.745 36.8547 215.07 36.668C215.395 36.476 215.782 36.38 216.23 36.38L216.134 37.612C215.654 37.612 215.286 37.716 215.03 37.924C214.774 38.1267 214.646 38.444 214.646 38.876ZM221.053 45.692C220.392 45.692 219.8 45.524 219.277 45.188C218.76 44.8467 218.349 44.3747 218.045 43.772C217.747 43.1693 217.597 42.476 217.597 41.692C217.597 40.8547 217.747 40.1347 218.045 39.532C218.344 38.9293 218.752 38.468 219.269 38.148C219.792 37.8227 220.387 37.66 221.053 37.66C221.635 37.66 222.131 37.7773 222.541 38.012C222.952 38.2467 223.283 38.564 223.533 38.964C223.784 39.364 223.957 39.8173 224.053 40.324C224.155 40.8253 224.184 41.3453 224.141 41.884H218.605V41.116H223.317L222.949 41.356C222.965 41.0413 222.947 40.7267 222.893 40.412C222.845 40.0973 222.752 39.8093 222.613 39.548C222.475 39.2813 222.28 39.068 222.029 38.908C221.779 38.748 221.459 38.668 221.069 38.668C220.579 38.668 220.168 38.7933 219.837 39.044C219.507 39.2947 219.259 39.6253 219.093 40.036C218.928 40.4413 218.845 40.8813 218.845 41.356V41.868C218.845 42.4013 218.925 42.8787 219.085 43.3C219.251 43.7213 219.496 44.0547 219.821 44.3C220.147 44.5453 220.557 44.668 221.053 44.668C221.549 44.668 221.957 44.548 222.277 44.308C222.597 44.068 222.792 43.7133 222.861 43.244H224.157C224.077 43.7507 223.896 44.188 223.613 44.556C223.331 44.9187 222.971 45.1987 222.533 45.396C222.096 45.5933 221.603 45.692 221.053 45.692Z" fill="#333333"/>
</g>
<defs>
<filter id="filter0_d_7073_5885" x="72" y="0" width="183.767" height="68" filterUnits="userSpaceOnUse" color-interpolation-filters="sRGB">
<feFlood flood-opacity="0" result="BackgroundImageFix"/>
<feColorMatrix in="SourceAlpha" type="matrix" values="0 0 0 0 0 0 0 0 0 0 0 0 0 0 0 0 0 0 127 0" result="hardAlpha"/>
<feOffset dy="4"/>
<feGaussianBlur stdDeviation="3"/>
<feComposite in2="hardAlpha" operator="out"/>
<feColorMatrix type="matrix" values="0 0 0 0 0 0 0 0 0 0 0 0 0 0 0 0 0 0 0.1 0"/>
<feBlend mode="normal" in2="BackgroundImageFix" result="effect1_dropShadow_7073_5885"/>
<feBlend mode="normal" in="SourceGraphic" in2="effect1_dropShadow_7073_5885" result="shape"/>
</filter>
<filter id="filter1_d_7073_5885" x="88.2971" y="12.4756" width="141.908" height="46.96" filterUnits="userSpaceOnUse" color-interpolation-filters="sRGB">
<feFlood flood-opacity="0" result="BackgroundImageFix"/>
<feColorMatrix in="SourceAlpha" type="matrix" values="0 0 0 0 0 0 0 0 0 0 0 0 0 0 0 0 0 0 127 0" result="hardAlpha"/>
<feOffset dy="4"/>
<feGaussianBlur stdDeviation="3"/>
<feComposite in2="hardAlpha" operator="out"/>
<feColorMatrix type="matrix" values="0 0 0 0 0 0 0 0 0 0 0 0 0 0 0 0 0 0 0.05 0"/>
<feBlend mode="normal" in2="BackgroundImageFix" result="effect1_dropShadow_7073_5885"/>
<feBlend mode="normal" in="SourceGraphic" in2="effect1_dropShadow_7073_5885" result="shape"/>
</filter>
</defs>
</svg>
