<svg width="257" height="68" viewBox="0 0 257 68" fill="none" xmlns="http://www.w3.org/2000/svg">
<path d="M7.04333 32.6331L16.7674 41V49C16.7674 53.9706 20.7968 58 25.7674 58L247.035 58C252.005 58 256.035 53.9706 256.035 49V11C256.035 6.02944 252.005 2 247.035 2L25.7674 2C20.7968 2 16.7674 6.02944 16.7674 11V20.5L7.15555 27.9931C5.66179 29.1575 5.60761 31.3978 7.04333 32.6331Z" fill="white"/>
<g filter="url(#filter0_d_7098_5710)">
<mask id="path-2-inside-1_7098_5710" fill="white">
<path d="M7.04333 32.6331L16.7674 41V49C16.7674 53.9706 20.7968 58 25.7674 58L156.035 58C161.005 58 165.035 53.9706 165.035 49V11C165.035 6.02944 161.005 2 156.035 2L25.7674 2C20.7968 2 16.7674 6.02944 16.7674 11V20.5L7.15555 27.9931C5.66179 29.1575 5.60761 31.3978 7.04333 32.6331Z"/>
</mask>
<path d="M7.04333 32.6331L16.7674 41V49C16.7674 53.9706 20.7968 58 25.7674 58L156.035 58C161.005 58 165.035 53.9706 165.035 49V11C165.035 6.02944 161.005 2 156.035 2L25.7674 2C20.7968 2 16.7674 6.02944 16.7674 11V20.5L7.15555 27.9931C5.66179 29.1575 5.60761 31.3978 7.04333 32.6331Z" fill="white"/>
<path d="M16.7674 41H18.1674V40.3577L17.6805 39.9388L16.7674 41ZM7.04333 32.6331L6.13021 33.6944H6.13021L7.04333 32.6331ZM7.15555 27.9931L8.0163 29.0972L8.0163 29.0972L7.15555 27.9931ZM16.7674 20.5L17.6281 21.6041L18.1674 21.1838V20.5H16.7674ZM25.7674 2V0.6V2ZM156.035 2V3.4V2ZM17.6805 39.9388L7.95644 31.5719L6.13021 33.6944L15.8542 42.0612L17.6805 39.9388ZM8.0163 29.0972L17.6281 21.6041L15.9066 19.3959L6.2948 26.8889L8.0163 29.0972ZM7.95644 31.5719C7.19073 30.9131 7.21963 29.7183 8.0163 29.0972L6.2948 26.8889C4.10396 28.5968 4.02449 31.8825 6.13021 33.6944L7.95644 31.5719ZM25.7674 3.4L156.035 3.4V0.600003L25.7674 0.6V3.4ZM163.635 11V49H166.435V11H163.635ZM156.035 56.6L25.7674 56.6V59.4L156.035 59.4V56.6ZM18.1674 20.5V11H15.3674V20.5H18.1674ZM18.1674 49V41H15.3674V49H18.1674ZM25.7674 56.6C21.57 56.6 18.1674 53.1974 18.1674 49H15.3674C15.3674 54.7438 20.0236 59.4 25.7674 59.4V56.6ZM163.635 49C163.635 53.1974 160.232 56.6 156.035 56.6V59.4C161.778 59.4 166.435 54.7438 166.435 49H163.635ZM156.035 3.4C160.232 3.4 163.635 6.80264 163.635 11H166.435C166.435 5.25624 161.778 0.600003 156.035 0.600003V3.4ZM25.7674 0.6C20.0236 0.6 15.3674 5.25624 15.3674 11H18.1674C18.1674 6.80264 21.57 3.4 25.7674 3.4V0.6Z" fill="#333333" mask="url(#path-2-inside-1_7098_5710)"/>
</g>
<g filter="url(#filter1_d_7098_5710)">
<path d="M32.616 14.952H35.56C36.5733 14.952 37.4533 15.16 38.2 15.576C38.9467 15.9867 39.5253 16.568 39.936 17.32C40.3467 18.072 40.552 18.9573 40.552 19.976C40.552 20.984 40.3467 21.864 39.936 22.616C39.5253 23.368 38.9467 23.9547 38.2 24.376C37.4533 24.792 36.5733 25 35.56 25H32.616V14.952ZM33.864 16.056V23.912H35.56C36.3173 23.912 36.968 23.7413 37.512 23.4C38.0613 23.0587 38.4827 22.592 38.776 22C39.0747 21.4027 39.224 20.728 39.224 19.976C39.224 19.2187 39.0747 18.5467 38.776 17.96C38.4827 17.368 38.0613 16.904 37.512 16.568C36.968 16.2267 36.3173 16.056 35.56 16.056H33.864ZM46.1065 25.192C45.4185 25.192 44.8052 25.04 44.2665 24.736C43.7332 24.432 43.3118 23.9813 43.0025 23.384C42.6932 22.7867 42.5385 22.0507 42.5385 21.176C42.5385 20.296 42.6932 19.56 43.0025 18.968C43.3118 18.3707 43.7332 17.92 44.2665 17.616C44.8052 17.312 45.4185 17.16 46.1065 17.16C46.7892 17.16 47.3972 17.312 47.9305 17.616C48.4692 17.92 48.8905 18.3707 49.1945 18.968C49.5038 19.56 49.6585 20.296 49.6585 21.176C49.6585 22.0507 49.5038 22.7867 49.1945 23.384C48.8905 23.9813 48.4692 24.432 47.9305 24.736C47.3972 25.04 46.7892 25.192 46.1065 25.192ZM46.0745 24.104C46.5705 24.104 46.9918 23.9867 47.3385 23.752C47.6852 23.512 47.9465 23.1733 48.1225 22.736C48.3038 22.2987 48.3945 21.7787 48.3945 21.176C48.3945 20.264 48.2052 19.5467 47.8265 19.024C47.4478 18.496 46.8852 18.232 46.1385 18.232C45.6372 18.232 45.2132 18.352 44.8665 18.592C44.5252 18.8267 44.2638 19.1653 44.0825 19.608C43.9065 20.0453 43.8185 20.568 43.8185 21.176C43.8185 22.0773 44.0078 22.792 44.3865 23.32C44.7705 23.8427 45.3332 24.104 46.0745 24.104ZM54.9414 17.352H56.3334L58.8294 23.912H58.5414L60.4774 17.352H61.7574L58.8774 26.536C58.6374 27.304 58.3174 27.896 57.9174 28.312C57.5174 28.728 57.0054 28.936 56.3814 28.936C56.0454 28.936 55.7254 28.888 55.4214 28.792C55.1227 28.696 54.8134 28.5573 54.4934 28.376V27.224C54.776 27.448 55.048 27.608 55.3094 27.704C55.576 27.8 55.8534 27.848 56.1414 27.848C56.4614 27.848 56.728 27.7467 56.9414 27.544C57.16 27.3413 57.3414 27.08 57.4854 26.76C57.6294 26.4453 57.752 26.1147 57.8534 25.768L58.0774 25L54.9414 17.352ZM66.5865 25.192C65.8985 25.192 65.2852 25.04 64.7465 24.736C64.2132 24.432 63.7918 23.9813 63.4825 23.384C63.1732 22.7867 63.0185 22.0507 63.0185 21.176C63.0185 20.296 63.1732 19.56 63.4825 18.968C63.7918 18.3707 64.2132 17.92 64.7465 17.616C65.2852 17.312 65.8985 17.16 66.5865 17.16C67.2692 17.16 67.8772 17.312 68.4105 17.616C68.9492 17.92 69.3705 18.3707 69.6745 18.968C69.9838 19.56 70.1385 20.296 70.1385 21.176C70.1385 22.0507 69.9838 22.7867 69.6745 23.384C69.3705 23.9813 68.9492 24.432 68.4105 24.736C67.8772 25.04 67.2692 25.192 66.5865 25.192ZM66.5545 24.104C67.0505 24.104 67.4718 23.9867 67.8185 23.752C68.1652 23.512 68.4265 23.1733 68.6025 22.736C68.7838 22.2987 68.8745 21.7787 68.8745 21.176C68.8745 20.264 68.6852 19.5467 68.3065 19.024C67.9278 18.496 67.3652 18.232 66.6185 18.232C66.1172 18.232 65.6932 18.352 65.3465 18.592C65.0052 18.8267 64.7438 19.1653 64.5625 19.608C64.3865 20.0453 64.2985 20.568 64.2985 21.176C64.2985 22.0773 64.4878 22.792 64.8665 23.32C65.2505 23.8427 65.8132 24.104 66.5545 24.104ZM77.9285 17.336H79.1765V25H77.9285V17.336ZM72.5045 17.336H73.7525V22.104C73.7525 22.744 73.9072 23.2293 74.2165 23.56C74.5312 23.8907 74.9792 24.056 75.5605 24.056C76.0405 24.056 76.4565 23.928 76.8085 23.672C77.1658 23.416 77.4405 23.064 77.6325 22.616C77.8298 22.1627 77.9285 21.6453 77.9285 21.064H78.3925C78.3925 21.9227 78.2672 22.656 78.0165 23.264C77.7712 23.872 77.4218 24.3387 76.9685 24.664C76.5205 24.984 75.9925 25.144 75.3845 25.144C74.8085 25.144 74.3045 25.0373 73.8725 24.824C73.4405 24.6107 73.1045 24.288 72.8645 23.856C72.6245 23.4187 72.5045 22.8667 72.5045 22.2V17.336ZM85.2049 17.352H86.5009L88.4529 23.736H88.2929L90.1969 17.72H91.2369L93.1249 23.752H92.9809L94.9329 17.352H96.1809L93.6689 25H92.4529L90.5969 19.352H90.7889L88.9489 25H87.7329L85.2049 17.352ZM103.023 25L102.863 23.32V20.04C102.863 19.352 102.716 18.8587 102.423 18.56C102.129 18.256 101.689 18.104 101.103 18.104C100.772 18.104 100.471 18.152 100.199 18.248C99.932 18.344 99.7186 18.4933 99.5586 18.696C99.404 18.8933 99.3266 19.1493 99.3266 19.464H97.9346C97.9346 18.9093 98.0706 18.464 98.3426 18.128C98.6146 17.7867 98.988 17.5413 99.4626 17.392C99.9426 17.2373 100.489 17.16 101.103 17.16C101.689 17.16 102.209 17.2587 102.663 17.456C103.116 17.6533 103.471 17.968 103.727 18.4C103.983 18.8267 104.111 19.384 104.111 20.072V25H103.023ZM100.415 25.192C99.7853 25.192 99.2653 25.08 98.8546 24.856C98.444 24.632 98.1373 24.3413 97.9346 23.984C97.732 23.6267 97.6306 23.2507 97.6306 22.856C97.6306 22.3387 97.7586 21.9173 98.0146 21.592C98.276 21.2667 98.6306 21.0293 99.0786 20.88C99.5266 20.7253 100.031 20.648 100.591 20.648C100.991 20.648 101.391 20.688 101.791 20.768C102.196 20.848 102.591 20.9573 102.975 21.096V21.88C102.655 21.752 102.292 21.6507 101.887 21.576C101.487 21.5013 101.119 21.464 100.783 21.464C100.271 21.464 99.8386 21.5707 99.4866 21.784C99.1346 21.992 98.9586 22.3493 98.9586 22.856C98.9586 23.2293 99.092 23.5493 99.3586 23.816C99.6306 24.0827 100.063 24.216 100.655 24.216C101.071 24.216 101.444 24.12 101.775 23.928C102.111 23.7307 102.375 23.4853 102.567 23.192C102.764 22.8987 102.863 22.6053 102.863 22.312H103.167C103.167 22.824 103.055 23.2987 102.831 23.736C102.612 24.1733 102.297 24.5253 101.887 24.792C101.476 25.0587 100.985 25.192 100.415 25.192ZM112.699 25V20.504C112.699 19.7733 112.523 19.2187 112.171 18.84C111.824 18.456 111.35 18.264 110.747 18.264C110.288 18.264 109.891 18.3893 109.555 18.64C109.219 18.8907 108.96 19.2507 108.779 19.72C108.598 20.184 108.507 20.7387 108.507 21.384H108.027C108.027 20.4933 108.144 19.7333 108.379 19.104C108.614 18.4747 108.955 17.9947 109.403 17.664C109.856 17.328 110.406 17.16 111.051 17.16C111.654 17.16 112.168 17.296 112.595 17.568C113.027 17.8347 113.358 18.2187 113.587 18.72C113.816 19.2213 113.931 19.816 113.931 20.504V25H112.699ZM107.259 25V17.352H108.331L108.507 19.112V25H107.259ZM119.427 25.192C119.011 25.192 118.638 25.112 118.307 24.952C117.977 24.792 117.715 24.552 117.523 24.232C117.331 23.912 117.235 23.512 117.235 23.032V15.224H118.467V23C118.467 23.7893 118.835 24.184 119.571 24.184C119.79 24.184 120.001 24.16 120.203 24.112C120.411 24.064 120.643 23.992 120.899 23.896L121.075 24.792C120.803 24.9093 120.531 25.0053 120.259 25.08C119.993 25.1547 119.715 25.192 119.427 25.192ZM116.003 18.216V17.352H120.883V18.216H116.003ZM129.56 25.192C129.144 25.192 128.771 25.112 128.44 24.952C128.109 24.792 127.848 24.552 127.656 24.232C127.464 23.912 127.368 23.512 127.368 23.032V15.224H128.6V23C128.6 23.7893 128.968 24.184 129.704 24.184C129.923 24.184 130.133 24.16 130.336 24.112C130.544 24.064 130.776 23.992 131.032 23.896L131.208 24.792C130.936 24.9093 130.664 25.0053 130.392 25.08C130.125 25.1547 129.848 25.192 129.56 25.192ZM126.136 18.216V17.352H131.016V18.216H126.136ZM136.152 25.192C135.464 25.192 134.85 25.04 134.312 24.736C133.778 24.432 133.357 23.9813 133.048 23.384C132.738 22.7867 132.584 22.0507 132.584 21.176C132.584 20.296 132.738 19.56 133.048 18.968C133.357 18.3707 133.778 17.92 134.312 17.616C134.85 17.312 135.464 17.16 136.152 17.16C136.834 17.16 137.442 17.312 137.976 17.616C138.514 17.92 138.936 18.3707 139.24 18.968C139.549 19.56 139.704 20.296 139.704 21.176C139.704 22.0507 139.549 22.7867 139.24 23.384C138.936 23.9813 138.514 24.432 137.976 24.736C137.442 25.04 136.834 25.192 136.152 25.192ZM136.12 24.104C136.616 24.104 137.037 23.9867 137.384 23.752C137.73 23.512 137.992 23.1733 138.168 22.736C138.349 22.2987 138.44 21.7787 138.44 21.176C138.44 20.264 138.25 19.5467 137.872 19.024C137.493 18.496 136.93 18.232 136.184 18.232C135.682 18.232 135.258 18.352 134.912 18.592C134.57 18.8267 134.309 19.1653 134.128 19.608C133.952 20.0453 133.864 20.568 133.864 21.176C133.864 22.0773 134.053 22.792 134.432 23.32C134.816 23.8427 135.378 24.104 136.12 24.104ZM38.056 45V40.504C38.056 39.7733 37.88 39.2187 37.528 38.84C37.1813 38.456 36.7067 38.264 36.104 38.264C35.6453 38.264 35.248 38.3893 34.912 38.64C34.576 38.8907 34.3173 39.2507 34.136 39.72C33.9547 40.184 33.864 40.7387 33.864 41.384H33.384C33.384 40.4933 33.5013 39.7333 33.736 39.104C33.9707 38.4747 34.312 37.9947 34.76 37.664C35.2133 37.328 35.7627 37.16 36.408 37.16C37.0107 37.16 37.5253 37.296 37.952 37.568C38.384 37.8347 38.7147 38.2187 38.944 38.72C39.1733 39.2213 39.288 39.816 39.288 40.504V45H38.056ZM32.616 45V37.352H33.688L33.864 39.112V45H32.616ZM47.1683 45L47.0083 43.32V40.04C47.0083 39.352 46.8616 38.8587 46.5683 38.56C46.2749 38.256 45.8349 38.104 45.2483 38.104C44.9176 38.104 44.6162 38.152 44.3442 38.248C44.0776 38.344 43.8643 38.4933 43.7043 38.696C43.5496 38.8933 43.4722 39.1493 43.4722 39.464H42.0802C42.0802 38.9093 42.2162 38.464 42.4882 38.128C42.7602 37.7867 43.1336 37.5413 43.6082 37.392C44.0882 37.2373 44.6349 37.16 45.2483 37.16C45.8349 37.16 46.3549 37.2587 46.8082 37.456C47.2616 37.6533 47.6163 37.968 47.8723 38.4C48.1283 38.8267 48.2563 39.384 48.2563 40.072V45H47.1683ZM44.5603 45.192C43.9309 45.192 43.4109 45.08 43.0002 44.856C42.5896 44.632 42.2829 44.3413 42.0802 43.984C41.8776 43.6267 41.7762 43.2507 41.7762 42.856C41.7762 42.3387 41.9042 41.9173 42.1602 41.592C42.4216 41.2667 42.7762 41.0293 43.2243 40.88C43.6723 40.7253 44.1762 40.648 44.7362 40.648C45.1362 40.648 45.5362 40.688 45.9363 40.768C46.3416 40.848 46.7363 40.9573 47.1203 41.096V41.88C46.8003 41.752 46.4376 41.6507 46.0322 41.576C45.6322 41.5013 45.2642 41.464 44.9282 41.464C44.4162 41.464 43.9842 41.5707 43.6323 41.784C43.2802 41.992 43.1042 42.3493 43.1042 42.856C43.1042 43.2293 43.2376 43.5493 43.5043 43.816C43.7763 44.0827 44.2083 44.216 44.8003 44.216C45.2163 44.216 45.5896 44.12 45.9202 43.928C46.2563 43.7307 46.5203 43.4853 46.7123 43.192C46.9096 42.8987 47.0083 42.6053 47.0083 42.312H47.3123C47.3123 42.824 47.2003 43.2987 46.9763 43.736C46.7576 44.1733 46.4429 44.5253 46.0322 44.792C45.6216 45.0587 45.1309 45.192 44.5603 45.192ZM50.0767 37.352H51.5007L53.9007 43.928H53.7247L56.1248 37.352H57.5487L54.4927 45H53.1327L50.0767 37.352ZM60.3156 35.544C60.0596 35.544 59.857 35.472 59.7076 35.328C59.5583 35.1787 59.4836 34.984 59.4836 34.744C59.4836 34.5093 59.5583 34.3227 59.7076 34.184C59.857 34.0453 60.0596 33.976 60.3156 33.976C60.5716 33.976 60.7743 34.0453 60.9236 34.184C61.073 34.3227 61.1476 34.5093 61.1476 34.744C61.1476 34.984 61.073 35.1787 60.9236 35.328C60.7743 35.472 60.5716 35.544 60.3156 35.544ZM59.6916 45V37.336H60.9396V45H59.6916ZM67.2412 48.936C66.4572 48.936 65.7772 48.824 65.2012 48.6C64.6252 48.3813 64.1772 48.0853 63.8572 47.712C63.5426 47.344 63.3852 46.936 63.3852 46.488C63.3852 45.896 63.6012 45.4427 64.0332 45.128C64.4706 44.8187 65.0332 44.664 65.7212 44.664L66.4092 45.096C65.8332 45.096 65.3879 45.216 65.0732 45.456C64.7586 45.696 64.6012 46.024 64.6012 46.44C64.6012 46.856 64.8252 47.208 65.2732 47.496C65.7212 47.784 66.3772 47.928 67.2412 47.928C67.8812 47.928 68.4412 47.8347 68.9212 47.648C69.4066 47.4667 69.7826 47.2267 70.0492 46.928C70.3212 46.6347 70.4572 46.3173 70.4572 45.976C70.4572 45.736 70.3692 45.528 70.1932 45.352C70.0172 45.1813 69.7479 45.096 69.3852 45.096H66.4092C65.8919 45.096 65.4439 45.0187 65.0652 44.864C64.6919 44.704 64.4039 44.496 64.2012 44.24C63.9986 43.984 63.8972 43.704 63.8972 43.4C63.8972 43.08 63.9879 42.808 64.1692 42.584C64.3506 42.36 64.5852 42.1893 64.8732 42.072C65.1666 41.9547 65.4812 41.896 65.8172 41.896L66.0572 42.36C65.8972 42.36 65.7346 42.3973 65.5692 42.472C65.4092 42.5413 65.2732 42.648 65.1612 42.792C65.0546 42.9307 65.0012 43.1067 65.0012 43.32C65.0012 43.5653 65.1026 43.7707 65.3052 43.936C65.5079 44.1013 65.8759 44.184 66.4092 44.184H69.3852C70.1052 44.184 70.6706 44.336 71.0813 44.64C71.4972 44.944 71.7052 45.368 71.7052 45.912C71.7052 46.4133 71.5266 46.8933 71.1692 47.352C70.8119 47.816 70.2999 48.1947 69.6332 48.488C68.9666 48.7867 68.1692 48.936 67.2412 48.936ZM67.4652 42.76C66.8786 42.76 66.3479 42.6427 65.8732 42.408C65.4039 42.1733 65.0306 41.8453 64.7532 41.424C64.4812 41.0027 64.3452 40.5147 64.3452 39.96C64.3452 39.4 64.4812 38.9093 64.7532 38.488C65.0306 38.0667 65.4039 37.7413 65.8732 37.512C66.3479 37.2773 66.8786 37.16 67.4652 37.16C68.0359 37.16 68.5532 37.2773 69.0172 37.512C69.4866 37.7413 69.8599 38.0667 70.1372 38.488C70.4146 38.9093 70.5532 39.4 70.5532 39.96C70.5532 40.5147 70.4146 41.0027 70.1372 41.424C69.8599 41.8453 69.4866 42.1733 69.0172 42.408C68.5532 42.6427 68.0359 42.76 67.4652 42.76ZM67.4652 41.864C68.0519 41.864 68.5079 41.6827 68.8332 41.32C69.1586 40.9573 69.3212 40.504 69.3212 39.96C69.3212 39.4 69.1586 38.9467 68.8332 38.6C68.5079 38.248 68.0519 38.072 67.4652 38.072C66.8839 38.072 66.4252 38.248 66.0892 38.6C65.7586 38.9467 65.5932 39.4 65.5932 39.96C65.5932 40.504 65.7586 40.9573 66.0892 41.32C66.4252 41.6827 66.8839 41.864 67.4652 41.864ZM69.9772 38.376L69.3852 38.136C69.3852 37.688 69.4732 37.296 69.6492 36.96C69.8252 36.6187 70.0759 36.3547 70.4012 36.168C70.7266 35.976 71.1132 35.88 71.5612 35.88L71.4653 37.112C70.9852 37.112 70.6172 37.216 70.3612 37.424C70.1052 37.6267 69.9772 37.944 69.9772 38.376ZM78.4645 45L78.3045 43.32V40.04C78.3045 39.352 78.1578 38.8587 77.8645 38.56C77.5712 38.256 77.1312 38.104 76.5445 38.104C76.2138 38.104 75.9125 38.152 75.6405 38.248C75.3738 38.344 75.1605 38.4933 75.0005 38.696C74.8458 38.8933 74.7685 39.1493 74.7685 39.464H73.3765C73.3765 38.9093 73.5125 38.464 73.7845 38.128C74.0565 37.7867 74.4298 37.5413 74.9045 37.392C75.3845 37.2373 75.9312 37.16 76.5445 37.16C77.1312 37.16 77.6512 37.2587 78.1045 37.456C78.5578 37.6533 78.9125 37.968 79.1685 38.4C79.4245 38.8267 79.5525 39.384 79.5525 40.072V45H78.4645ZM75.8565 45.192C75.2272 45.192 74.7072 45.08 74.2965 44.856C73.8858 44.632 73.5792 44.3413 73.3765 43.984C73.1738 43.6267 73.0725 43.2507 73.0725 42.856C73.0725 42.3387 73.2005 41.9173 73.4565 41.592C73.7178 41.2667 74.0725 41.0293 74.5205 40.88C74.9685 40.7253 75.4725 40.648 76.0325 40.648C76.4325 40.648 76.8325 40.688 77.2325 40.768C77.6378 40.848 78.0325 40.9573 78.4165 41.096V41.88C78.0965 41.752 77.7338 41.6507 77.3285 41.576C76.9285 41.5013 76.5605 41.464 76.2245 41.464C75.7125 41.464 75.2805 41.5707 74.9285 41.784C74.5765 41.992 74.4005 42.3493 74.4005 42.856C74.4005 43.2293 74.5338 43.5493 74.8005 43.816C75.0725 44.0827 75.5045 44.216 76.0965 44.216C76.5125 44.216 76.8858 44.12 77.2165 43.928C77.5525 43.7307 77.8165 43.4853 78.0085 43.192C78.2058 42.8987 78.3045 42.6053 78.3045 42.312H78.6085C78.6085 42.824 78.4965 43.2987 78.2725 43.736C78.0538 44.1733 77.7392 44.5253 77.3285 44.792C76.9178 45.0587 76.4272 45.192 75.8565 45.192ZM85.053 45.192C84.637 45.192 84.2637 45.112 83.933 44.952C83.6023 44.792 83.341 44.552 83.149 44.232C82.957 43.912 82.861 43.512 82.861 43.032V35.224H84.093V43C84.093 43.7893 84.461 44.184 85.197 44.184C85.4157 44.184 85.6263 44.16 85.829 44.112C86.037 44.064 86.269 43.992 86.525 43.896L86.701 44.792C86.429 44.9093 86.157 45.0053 85.885 45.08C85.6183 45.1547 85.341 45.192 85.053 45.192ZM81.629 38.216V37.352H86.509V38.216H81.629ZM91.5326 45.192C90.8713 45.192 90.2793 45.024 89.7566 44.688C89.2393 44.3467 88.8286 43.8747 88.5246 43.272C88.226 42.6693 88.0766 41.976 88.0766 41.192C88.0766 40.3547 88.226 39.6347 88.5246 39.032C88.8233 38.4293 89.2313 37.968 89.7486 37.648C90.2713 37.3227 90.866 37.16 91.5326 37.16C92.114 37.16 92.61 37.2773 93.0206 37.512C93.4313 37.7467 93.762 38.064 94.0126 38.464C94.2633 38.864 94.4366 39.3173 94.5326 39.824C94.634 40.3253 94.6633 40.8453 94.6206 41.384H89.0846V40.616H93.7966L93.4286 40.856C93.4446 40.5413 93.426 40.2267 93.3726 39.912C93.3246 39.5973 93.2313 39.3093 93.0926 39.048C92.954 38.7813 92.7593 38.568 92.5086 38.408C92.258 38.248 91.938 38.168 91.5486 38.168C91.058 38.168 90.6473 38.2933 90.3166 38.544C89.986 38.7947 89.738 39.1253 89.5726 39.536C89.4073 39.9413 89.3246 40.3813 89.3246 40.856V41.368C89.3246 41.9013 89.4046 42.3787 89.5646 42.8C89.73 43.2213 89.9753 43.5547 90.3006 43.8C90.626 44.0453 91.0366 44.168 91.5326 44.168C92.0286 44.168 92.4366 44.048 92.7566 43.808C93.0766 43.568 93.2713 43.2133 93.3406 42.744H94.6366C94.5566 43.2507 94.3753 43.688 94.0926 44.056C93.81 44.4187 93.45 44.6987 93.0126 44.896C92.5753 45.0933 92.082 45.192 91.5326 45.192ZM103.564 45.192C103.148 45.192 102.775 45.112 102.444 44.952C102.114 44.792 101.852 44.552 101.66 44.232C101.468 43.912 101.372 43.512 101.372 43.032V35.224H102.604V43C102.604 43.7893 102.972 44.184 103.708 44.184C103.927 44.184 104.138 44.16 104.34 44.112C104.548 44.064 104.78 43.992 105.036 43.896L105.212 44.792C104.94 44.9093 104.668 45.0053 104.396 45.08C104.13 45.1547 103.852 45.192 103.564 45.192ZM100.14 38.216V37.352H105.02V38.216H100.14ZM112.828 45V40.504C112.828 39.7733 112.652 39.2187 112.3 38.84C111.953 38.456 111.479 38.264 110.876 38.264C110.417 38.264 110.02 38.3893 109.684 38.64C109.348 38.8907 109.089 39.2507 108.908 39.72C108.727 40.184 108.636 40.7387 108.636 41.384H108.156C108.156 40.4933 108.273 39.7333 108.508 39.104C108.743 38.4747 109.084 37.9947 109.532 37.664C109.985 37.328 110.535 37.16 111.18 37.16C111.783 37.16 112.297 37.296 112.724 37.568C113.156 37.8347 113.487 38.2187 113.716 38.72C113.945 39.2213 114.06 39.816 114.06 40.504V45H112.828ZM107.388 45V34.088H108.636V45H107.388ZM119.86 45.192C119.199 45.192 118.607 45.024 118.084 44.688C117.567 44.3467 117.156 43.8747 116.852 43.272C116.553 42.6693 116.404 41.976 116.404 41.192C116.404 40.3547 116.553 39.6347 116.852 39.032C117.151 38.4293 117.559 37.968 118.076 37.648C118.599 37.3227 119.193 37.16 119.86 37.16C120.441 37.16 120.937 37.2773 121.348 37.512C121.759 37.7467 122.089 38.064 122.34 38.464C122.591 38.864 122.764 39.3173 122.86 39.824C122.961 40.3253 122.991 40.8453 122.948 41.384H117.412V40.616H122.124L121.756 40.856C121.772 40.5413 121.753 40.2267 121.7 39.912C121.652 39.5973 121.559 39.3093 121.42 39.048C121.281 38.7813 121.087 38.568 120.836 38.408C120.585 38.248 120.265 38.168 119.876 38.168C119.385 38.168 118.975 38.2933 118.644 38.544C118.313 38.7947 118.065 39.1253 117.9 39.536C117.735 39.9413 117.652 40.3813 117.652 40.856V41.368C117.652 41.9013 117.732 42.3787 117.892 42.8C118.057 43.2213 118.303 43.5547 118.628 43.8C118.953 44.0453 119.364 44.168 119.86 44.168C120.356 44.168 120.764 44.048 121.084 43.808C121.404 43.568 121.599 43.2133 121.668 42.744H122.964C122.884 43.2507 122.703 43.688 122.42 44.056C122.137 44.4187 121.777 44.6987 121.34 44.896C120.903 45.0933 120.409 45.192 119.86 45.192ZM125.583 45V37.336H126.831V45H125.583ZM126.447 41.544C126.447 40.5733 126.54 39.768 126.727 39.128C126.914 38.4827 127.186 38.0027 127.543 37.688C127.906 37.368 128.346 37.208 128.863 37.208C129.034 37.208 129.188 37.2213 129.327 37.248C129.471 37.2693 129.615 37.304 129.759 37.352L129.679 38.584C129.53 38.536 129.367 38.496 129.191 38.464C129.015 38.4267 128.858 38.408 128.719 38.408C128.266 38.408 127.9 38.5387 127.623 38.8C127.346 39.056 127.143 39.4187 127.015 39.888C126.892 40.3573 126.831 40.9093 126.831 41.544H126.447ZM134.18 45.192C133.519 45.192 132.927 45.024 132.404 44.688C131.887 44.3467 131.476 43.8747 131.172 43.272C130.873 42.6693 130.724 41.976 130.724 41.192C130.724 40.3547 130.873 39.6347 131.172 39.032C131.471 38.4293 131.879 37.968 132.396 37.648C132.919 37.3227 133.513 37.16 134.18 37.16C134.761 37.16 135.257 37.2773 135.668 37.512C136.079 37.7467 136.409 38.064 136.66 38.464C136.911 38.864 137.084 39.3173 137.18 39.824C137.281 40.3253 137.311 40.8453 137.268 41.384H131.732V40.616H136.444L136.076 40.856C136.092 40.5413 136.073 40.2267 136.02 39.912C135.972 39.5973 135.879 39.3093 135.74 39.048C135.601 38.7813 135.407 38.568 135.156 38.408C134.905 38.248 134.585 38.168 134.196 38.168C133.705 38.168 133.295 38.2933 132.964 38.544C132.633 38.7947 132.385 39.1253 132.22 39.536C132.055 39.9413 131.972 40.3813 131.972 40.856V41.368C131.972 41.9013 132.052 42.3787 132.212 42.8C132.377 43.2213 132.623 43.5547 132.948 43.8C133.273 44.0453 133.684 44.168 134.18 44.168C134.676 44.168 135.084 44.048 135.404 43.808C135.724 43.568 135.919 43.2133 135.988 42.744H137.284C137.204 43.2507 137.023 43.688 136.74 44.056C136.457 44.4187 136.097 44.6987 135.66 44.896C135.223 45.0933 134.729 45.192 134.18 45.192ZM141.119 42.44V41.72C141.119 41.256 141.167 40.8747 141.263 40.576C141.364 40.2773 141.53 40.0187 141.759 39.8C141.988 39.5813 142.303 39.3627 142.703 39.144C143.06 38.952 143.346 38.7733 143.559 38.608C143.772 38.4427 143.924 38.264 144.015 38.072C144.111 37.88 144.159 37.6453 144.159 37.368C144.159 36.952 143.988 36.6053 143.647 36.328C143.311 36.0507 142.847 35.912 142.255 35.912C141.599 35.912 141.098 36.0427 140.751 36.304C140.404 36.56 140.186 36.92 140.095 37.384H138.767C138.842 36.6053 139.167 35.976 139.743 35.496C140.324 35.016 141.151 34.776 142.223 34.776C142.906 34.776 143.492 34.896 143.983 35.136C144.479 35.3707 144.858 35.688 145.119 36.088C145.386 36.4827 145.519 36.92 145.519 37.4C145.519 37.9493 145.38 38.4107 145.103 38.784C144.826 39.152 144.378 39.5013 143.759 39.832C143.402 40.0293 143.119 40.2133 142.911 40.384C142.708 40.5493 142.564 40.7413 142.479 40.96C142.394 41.1733 142.351 41.4533 142.351 41.8V42.44H141.119ZM141.759 45.192C141.492 45.192 141.271 45.1067 141.095 44.936C140.919 44.76 140.831 44.5493 140.831 44.304C140.831 44.0533 140.916 43.8373 141.087 43.656C141.263 43.4747 141.484 43.384 141.751 43.384C142.018 43.384 142.244 43.4747 142.431 43.656C142.623 43.832 142.719 44.0453 142.719 44.296C142.719 44.5413 142.626 44.752 142.439 44.928C142.252 45.104 142.026 45.192 141.759 45.192Z" fill="#333333"/>
</g>
<defs>
<filter id="filter0_d_7098_5710" x="0" y="0" width="171.035" height="68" filterUnits="userSpaceOnUse" color-interpolation-filters="sRGB">
<feFlood flood-opacity="0" result="BackgroundImageFix"/>
<feColorMatrix in="SourceAlpha" type="matrix" values="0 0 0 0 0 0 0 0 0 0 0 0 0 0 0 0 0 0 127 0" result="hardAlpha"/>
<feOffset dy="4"/>
<feGaussianBlur stdDeviation="3"/>
<feComposite in2="hardAlpha" operator="out"/>
<feColorMatrix type="matrix" values="0 0 0 0 0 0 0 0 0 0 0 0 0 0 0 0 0 0 0.1 0"/>
<feBlend mode="normal" in2="BackgroundImageFix" result="effect1_dropShadow_7098_5710"/>
<feBlend mode="normal" in="SourceGraphic" in2="effect1_dropShadow_7098_5710" result="shape"/>
</filter>
<filter id="filter1_d_7098_5710" x="26.6162" y="12.9521" width="124.903" height="45.9834" filterUnits="userSpaceOnUse" color-interpolation-filters="sRGB">
<feFlood flood-opacity="0" result="BackgroundImageFix"/>
<feColorMatrix in="SourceAlpha" type="matrix" values="0 0 0 0 0 0 0 0 0 0 0 0 0 0 0 0 0 0 127 0" result="hardAlpha"/>
<feOffset dy="4"/>
<feGaussianBlur stdDeviation="3"/>
<feComposite in2="hardAlpha" operator="out"/>
<feColorMatrix type="matrix" values="0 0 0 0 0 0 0 0 0 0 0 0 0 0 0 0 0 0 0.05 0"/>
<feBlend mode="normal" in2="BackgroundImageFix" result="effect1_dropShadow_7098_5710"/>
<feBlend mode="normal" in="SourceGraphic" in2="effect1_dropShadow_7098_5710" result="shape"/>
</filter>
</defs>
</svg>
