<svg width="256" height="68" viewBox="0 0 256 68" fill="none" xmlns="http://www.w3.org/2000/svg">
<mask id="path-1-inside-1_7073_5860" fill="white">
<path d="M248.724 27.3669L239 19L239 11C239 6.02944 234.971 2 230 2L8.99997 1.99998C4.02941 1.99998 -2.59742e-05 6.02942 -2.64087e-05 11L-2.97308e-05 49C-3.01653e-05 53.9705 4.0294 58 8.99997 58L230 58C234.971 58 239 53.9706 239 49L239 39.5L248.612 32.0069C250.106 30.8425 250.16 28.6022 248.724 27.3669Z"/>
</mask>
<path d="M248.724 27.3669L239 19L239 11C239 6.02944 234.971 2 230 2L8.99997 1.99998C4.02941 1.99998 -2.59742e-05 6.02942 -2.64087e-05 11L-2.97308e-05 49C-3.01653e-05 53.9705 4.0294 58 8.99997 58L230 58C234.971 58 239 53.9706 239 49L239 39.5L248.612 32.0069C250.106 30.8425 250.16 28.6022 248.724 27.3669Z" fill="white"/>
<path d="M239 19L237.6 19L237.6 19.6423L238.087 20.0612L239 19ZM248.724 27.3669L249.637 26.3056L249.637 26.3056L248.724 27.3669ZM248.612 32.0069L247.751 30.9028L247.751 30.9028L248.612 32.0069ZM239 39.5L238.139 38.3959L237.6 38.8162L237.6 39.5L239 39.5ZM238.087 20.0612L247.811 28.4281L249.637 26.3056L239.913 17.9388L238.087 20.0612ZM247.751 30.9028L238.139 38.3959L239.861 40.6041L249.473 33.1111L247.751 30.9028ZM247.811 28.4281C248.577 29.0869 248.548 30.2817 247.751 30.9028L249.473 33.1111C251.663 31.4032 251.743 28.1175 249.637 26.3056L247.811 28.4281ZM230 56.6L8.99997 56.6L8.99997 59.4L230 59.4L230 56.6ZM1.39996 49L1.39997 11L-1.40002 11L-1.40002 49L1.39996 49ZM8.99997 3.39998L230 3.4L230 0.599997L8.99997 0.599977L8.99997 3.39998ZM237.6 39.5L237.6 49L240.4 49L240.4 39.5L237.6 39.5ZM237.6 11L237.6 19L240.4 19L240.4 11L237.6 11ZM230 3.4C234.197 3.4 237.6 6.80263 237.6 11L240.4 11C240.4 5.25624 235.744 0.599997 230 0.599997L230 3.4ZM1.39997 11C1.39997 6.80261 4.8026 3.39998 8.99997 3.39998L8.99997 0.599977C3.25622 0.599977 -1.40002 5.25622 -1.40002 11L1.39997 11ZM8.99997 56.6C4.8026 56.6 1.39996 53.1973 1.39996 49L-1.40002 49C-1.40002 54.7437 3.25621 59.4 8.99997 59.4L8.99997 56.6ZM230 59.4C235.744 59.4 240.4 54.7438 240.4 49L237.6 49C237.6 53.1974 234.197 56.6 230 56.6L230 59.4Z" fill="white" mask="url(#path-1-inside-1_7073_5860)"/>
<g filter="url(#filter0_d_7073_5860)">
<mask id="path-3-inside-2_7073_5860" fill="white">
<path d="M248.724 27.3669L239 19L239 11C239 6.02944 234.971 2 230 2L131 1.99999C126.029 1.99999 122 6.02943 122 11L122 49C122 53.9705 126.029 58 131 58L230 58C234.971 58 239 53.9706 239 49L239 39.5L248.612 32.0069C250.106 30.8425 250.16 28.6022 248.724 27.3669Z"/>
</mask>
<path d="M248.724 27.3669L239 19L239 11C239 6.02944 234.971 2 230 2L131 1.99999C126.029 1.99999 122 6.02943 122 11L122 49C122 53.9705 126.029 58 131 58L230 58C234.971 58 239 53.9706 239 49L239 39.5L248.612 32.0069C250.106 30.8425 250.16 28.6022 248.724 27.3669Z" fill="white"/>
<path d="M239 19L237.6 19L237.6 19.6423L238.087 20.0612L239 19ZM248.724 27.3669L249.637 26.3056L249.637 26.3056L248.724 27.3669ZM248.612 32.0069L247.751 30.9028L247.751 30.9028L248.612 32.0069ZM239 39.5L238.139 38.3959L237.6 38.8162L237.6 39.5L239 39.5ZM230 58L230 59.4L230 58ZM131 58L131 56.6L131 58ZM238.087 20.0612L247.811 28.4281L249.637 26.3056L239.913 17.9388L238.087 20.0612ZM247.751 30.9028L238.139 38.3959L239.861 40.6041L249.473 33.1111L247.751 30.9028ZM247.811 28.4281C248.577 29.0869 248.548 30.2817 247.751 30.9028L249.473 33.1111C251.663 31.4032 251.743 28.1175 249.637 26.3056L247.811 28.4281ZM230 56.6L131 56.6L131 59.4L230 59.4L230 56.6ZM123.4 49L123.4 11L120.6 11L120.6 49L123.4 49ZM131 3.39999L230 3.4L230 0.599997L131 0.599988L131 3.39999ZM237.6 39.5L237.6 49L240.4 49L240.4 39.5L237.6 39.5ZM237.6 11L237.6 19L240.4 19L240.4 11L237.6 11ZM230 3.4C234.197 3.4 237.6 6.80263 237.6 11L240.4 11C240.4 5.25624 235.744 0.599997 230 0.599997L230 3.4ZM123.4 11C123.4 6.80262 126.803 3.39999 131 3.39999L131 0.599988C125.256 0.599988 120.6 5.25623 120.6 11L123.4 11ZM131 56.6C126.803 56.6 123.4 53.1973 123.4 49L120.6 49C120.6 54.7437 125.256 59.4 131 59.4L131 56.6ZM230 59.4C235.744 59.4 240.4 54.7438 240.4 49L237.6 49C237.6 53.1974 234.197 56.6 230 56.6L230 59.4Z" fill="#333333" mask="url(#path-3-inside-2_7073_5860)"/>
</g>
<g filter="url(#filter1_d_7073_5860)">
<path d="M148.016 15.952H149.504L154.608 24.224H154.496V15.952H155.744V26H154.352L149.072 17.456H149.264V26H148.016V15.952ZM161.897 26.192C161.209 26.192 160.596 26.04 160.057 25.736C159.524 25.432 159.102 24.9813 158.793 24.384C158.484 23.7867 158.329 23.0507 158.329 22.176C158.329 21.296 158.484 20.56 158.793 19.968C159.102 19.3707 159.524 18.92 160.057 18.616C160.596 18.312 161.209 18.16 161.897 18.16C162.58 18.16 163.188 18.312 163.721 18.616C164.26 18.92 164.681 19.3707 164.985 19.968C165.294 20.56 165.449 21.296 165.449 22.176C165.449 23.0507 165.294 23.7867 164.985 24.384C164.681 24.9813 164.26 25.432 163.721 25.736C163.188 26.04 162.58 26.192 161.897 26.192ZM161.865 25.104C162.361 25.104 162.782 24.9867 163.129 24.752C163.476 24.512 163.737 24.1733 163.913 23.736C164.094 23.2987 164.185 22.7787 164.185 22.176C164.185 21.264 163.996 20.5467 163.617 20.024C163.238 19.496 162.676 19.232 161.929 19.232C161.428 19.232 161.004 19.352 160.657 19.592C160.316 19.8267 160.054 20.1653 159.873 20.608C159.697 21.0453 159.609 21.568 159.609 22.176C159.609 23.0773 159.798 23.792 160.177 24.32C160.561 24.8427 161.124 25.104 161.865 25.104ZM167.847 27.744L166.903 27.28C167.207 27.1253 167.463 26.9547 167.671 26.768C167.884 26.5813 168.023 26.352 168.087 26.08C167.858 26.0533 167.66 25.9707 167.495 25.832C167.335 25.6933 167.255 25.5093 167.255 25.28C167.255 25.056 167.338 24.864 167.503 24.704C167.674 24.544 167.89 24.464 168.151 24.464C168.482 24.464 168.748 24.584 168.951 24.824C169.154 25.064 169.255 25.3493 169.255 25.68C169.255 26.0693 169.135 26.4507 168.895 26.824C168.66 27.2027 168.311 27.5093 167.847 27.744ZM175.5 26V15.952H176.748V26H175.5ZM182.773 18.352H184.069L186.021 24.736H185.861L187.765 18.72H188.805L190.693 24.752H190.549L192.501 18.352H193.749L191.237 26H190.021L188.165 20.352H188.357L186.517 26H185.301L182.773 18.352ZM200.591 26L200.431 24.32V21.04C200.431 20.352 200.284 19.8587 199.991 19.56C199.697 19.256 199.257 19.104 198.671 19.104C198.34 19.104 198.039 19.152 197.767 19.248C197.5 19.344 197.287 19.4933 197.127 19.696C196.972 19.8933 196.895 20.1493 196.895 20.464H195.503C195.503 19.9093 195.639 19.464 195.911 19.128C196.183 18.7867 196.556 18.5413 197.031 18.392C197.511 18.2373 198.057 18.16 198.671 18.16C199.257 18.16 199.777 18.2587 200.231 18.456C200.684 18.6533 201.039 18.968 201.295 19.4C201.551 19.8267 201.679 20.384 201.679 21.072V26H200.591ZM197.983 26.192C197.353 26.192 196.833 26.08 196.423 25.856C196.012 25.632 195.705 25.3413 195.503 24.984C195.3 24.6267 195.199 24.2507 195.199 23.856C195.199 23.3387 195.327 22.9173 195.583 22.592C195.844 22.2667 196.199 22.0293 196.647 21.88C197.095 21.7253 197.599 21.648 198.159 21.648C198.559 21.648 198.959 21.688 199.359 21.768C199.764 21.848 200.159 21.9573 200.543 22.096V22.88C200.223 22.752 199.86 22.6507 199.455 22.576C199.055 22.5013 198.687 22.464 198.351 22.464C197.839 22.464 197.407 22.5707 197.055 22.784C196.703 22.992 196.527 23.3493 196.527 23.856C196.527 24.2293 196.66 24.5493 196.927 24.816C197.199 25.0827 197.631 25.216 198.223 25.216C198.639 25.216 199.012 25.12 199.343 24.928C199.679 24.7307 199.943 24.4853 200.135 24.192C200.332 23.8987 200.431 23.6053 200.431 23.312H200.735C200.735 23.824 200.623 24.2987 200.399 24.736C200.18 25.1733 199.865 25.5253 199.455 25.792C199.044 26.0587 198.553 26.192 197.983 26.192ZM210.267 26V21.504C210.267 20.7733 210.091 20.2187 209.739 19.84C209.393 19.456 208.918 19.264 208.315 19.264C207.857 19.264 207.459 19.3893 207.123 19.64C206.787 19.8907 206.529 20.2507 206.347 20.72C206.166 21.184 206.075 21.7387 206.075 22.384H205.595C205.595 21.4933 205.713 20.7333 205.947 20.104C206.182 19.4747 206.523 18.9947 206.971 18.664C207.425 18.328 207.974 18.16 208.619 18.16C209.222 18.16 209.737 18.296 210.163 18.568C210.595 18.8347 210.926 19.2187 211.155 19.72C211.385 20.2213 211.499 20.816 211.499 21.504V26H210.267ZM204.827 26V18.352H205.899L206.075 20.112V26H204.827ZM216.996 26.192C216.58 26.192 216.206 26.112 215.876 25.952C215.545 25.792 215.284 25.552 215.092 25.232C214.9 24.912 214.804 24.512 214.804 24.032V16.224H216.036V24C216.036 24.7893 216.404 25.184 217.14 25.184C217.358 25.184 217.569 25.16 217.772 25.112C217.98 25.064 218.212 24.992 218.468 24.896L218.644 25.792C218.372 25.9093 218.1 26.0053 217.828 26.08C217.561 26.1547 217.284 26.192 216.996 26.192ZM213.572 19.216V18.352H218.452V19.216H213.572ZM140.286 44.192C139.87 44.192 139.497 44.112 139.166 43.952C138.835 43.792 138.574 43.552 138.382 43.232C138.19 42.912 138.094 42.512 138.094 42.032V34.224H139.326V42C139.326 42.7893 139.694 43.184 140.43 43.184C140.649 43.184 140.859 43.16 141.062 43.112C141.27 43.064 141.502 42.992 141.758 42.896L141.934 43.792C141.662 43.9093 141.39 44.0053 141.118 44.08C140.851 44.1547 140.574 44.192 140.286 44.192ZM136.862 37.216V36.352H141.742V37.216H136.862ZM146.878 44.192C146.19 44.192 145.576 44.04 145.038 43.736C144.504 43.432 144.083 42.9813 143.774 42.384C143.464 41.7867 143.31 41.0507 143.31 40.176C143.31 39.296 143.464 38.56 143.774 37.968C144.083 37.3707 144.504 36.92 145.038 36.616C145.576 36.312 146.19 36.16 146.878 36.16C147.56 36.16 148.168 36.312 148.702 36.616C149.24 36.92 149.662 37.3707 149.966 37.968C150.275 38.56 150.43 39.296 150.43 40.176C150.43 41.0507 150.275 41.7867 149.966 42.384C149.662 42.9813 149.24 43.432 148.702 43.736C148.168 44.04 147.56 44.192 146.878 44.192ZM146.846 43.104C147.342 43.104 147.763 42.9867 148.11 42.752C148.456 42.512 148.718 42.1733 148.894 41.736C149.075 41.2987 149.166 40.7787 149.166 40.176C149.166 39.264 148.976 38.5467 148.598 38.024C148.219 37.496 147.656 37.232 146.91 37.232C146.408 37.232 145.984 37.352 145.638 37.592C145.296 37.8267 145.035 38.1653 144.854 38.608C144.678 39.0453 144.59 39.568 144.59 40.176C144.59 41.0773 144.779 41.792 145.158 42.32C145.542 42.8427 146.104 43.104 146.846 43.104ZM159.729 44.192C158.987 44.192 158.369 44.088 157.873 43.88C157.377 43.6667 157.001 43.376 156.745 43.008C156.489 42.6347 156.353 42.208 156.337 41.728H157.537C157.563 42.2133 157.758 42.5787 158.121 42.824C158.489 43.064 158.987 43.184 159.617 43.184C159.947 43.184 160.251 43.1307 160.529 43.024C160.806 42.9173 161.027 42.7707 161.193 42.584C161.358 42.3973 161.441 42.1867 161.441 41.952C161.441 41.6533 161.331 41.4187 161.113 41.248C160.894 41.0773 160.545 40.928 160.065 40.8L158.577 40.32C157.931 40.1173 157.435 39.84 157.089 39.488C156.747 39.1307 156.577 38.704 156.577 38.208C156.577 37.5893 156.849 37.0933 157.393 36.72C157.937 36.3467 158.651 36.16 159.537 36.16C160.475 36.16 161.203 36.352 161.721 36.736C162.238 37.12 162.507 37.6 162.529 38.176H161.297C161.249 37.84 161.078 37.5867 160.785 37.416C160.491 37.24 160.075 37.152 159.537 37.152C159.019 37.152 158.614 37.2693 158.321 37.504C158.033 37.7333 157.889 37.9893 157.889 38.272C157.889 38.8 158.342 39.1893 159.249 39.44L160.769 39.952C161.425 40.1493 161.926 40.408 162.273 40.728C162.625 41.048 162.801 41.456 162.801 41.952C162.801 42.336 162.675 42.6987 162.425 43.04C162.174 43.3813 161.819 43.6587 161.361 43.872C160.902 44.0853 160.358 44.192 159.729 44.192ZM167.895 44.192C167.479 44.192 167.106 44.112 166.775 43.952C166.444 43.792 166.183 43.552 165.991 43.232C165.799 42.912 165.703 42.512 165.703 42.032V34.224H166.935V42C166.935 42.7893 167.303 43.184 168.039 43.184C168.258 43.184 168.468 43.16 168.671 43.112C168.879 43.064 169.111 42.992 169.367 42.896L169.543 43.792C169.271 43.9093 168.999 44.0053 168.727 44.08C168.46 44.1547 168.183 44.192 167.895 44.192ZM164.471 37.216V36.352H169.351V37.216H164.471ZM176.454 44L176.294 42.32V39.04C176.294 38.352 176.148 37.8587 175.854 37.56C175.561 37.256 175.121 37.104 174.534 37.104C174.204 37.104 173.902 37.152 173.63 37.248C173.364 37.344 173.15 37.4933 172.99 37.696C172.836 37.8933 172.758 38.1493 172.758 38.464H171.366C171.366 37.9093 171.502 37.464 171.774 37.128C172.046 36.7867 172.42 36.5413 172.894 36.392C173.374 36.2373 173.921 36.16 174.534 36.16C175.121 36.16 175.641 36.2587 176.094 36.456C176.548 36.6533 176.902 36.968 177.158 37.4C177.414 37.8267 177.542 38.384 177.542 39.072V44H176.454ZM173.846 44.192C173.217 44.192 172.697 44.08 172.286 43.856C171.876 43.632 171.569 43.3413 171.366 42.984C171.164 42.6267 171.062 42.2507 171.062 41.856C171.062 41.3387 171.19 40.9173 171.446 40.592C171.708 40.2667 172.062 40.0293 172.51 39.88C172.958 39.7253 173.462 39.648 174.022 39.648C174.422 39.648 174.822 39.688 175.222 39.768C175.628 39.848 176.022 39.9573 176.406 40.096V40.88C176.086 40.752 175.724 40.6507 175.318 40.576C174.918 40.5013 174.55 40.464 174.214 40.464C173.702 40.464 173.27 40.5707 172.918 40.784C172.566 40.992 172.39 41.3493 172.39 41.856C172.39 42.2293 172.524 42.5493 172.79 42.816C173.062 43.0827 173.494 43.216 174.086 43.216C174.502 43.216 174.876 43.12 175.206 42.928C175.542 42.7307 175.806 42.4853 175.998 42.192C176.196 41.8987 176.294 41.6053 176.294 41.312H176.598C176.598 41.824 176.486 42.2987 176.262 42.736C176.044 43.1733 175.729 43.5253 175.318 43.792C174.908 44.0587 174.417 44.192 173.846 44.192ZM179.427 36.352H180.819L183.315 42.912H183.027L184.963 36.352H186.243L183.363 45.536C183.123 46.304 182.803 46.896 182.403 47.312C182.003 47.728 181.491 47.936 180.867 47.936C180.531 47.936 180.211 47.888 179.907 47.792C179.608 47.696 179.299 47.5573 178.979 47.376V46.224C179.262 46.448 179.534 46.608 179.795 46.704C180.062 46.8 180.339 46.848 180.627 46.848C180.947 46.848 181.214 46.7467 181.427 46.544C181.646 46.3413 181.827 46.08 181.971 45.76C182.115 45.4453 182.238 45.1147 182.339 44.768L182.563 44L179.427 36.352ZM197.701 44V39.504C197.701 38.7733 197.525 38.2187 197.173 37.84C196.826 37.456 196.352 37.264 195.749 37.264C195.29 37.264 194.893 37.3893 194.557 37.64C194.221 37.8907 193.962 38.2507 193.781 38.72C193.6 39.184 193.509 39.7387 193.509 40.384H193.029C193.029 39.4933 193.146 38.7333 193.381 38.104C193.616 37.4747 193.957 36.9947 194.405 36.664C194.858 36.328 195.408 36.16 196.053 36.16C196.656 36.16 197.17 36.296 197.597 36.568C198.029 36.8347 198.36 37.2187 198.589 37.72C198.818 38.2213 198.933 38.816 198.933 39.504V44H197.701ZM192.261 44V33.088H193.509V44H192.261ZM204.733 44.192C204.072 44.192 203.48 44.024 202.957 43.688C202.44 43.3467 202.029 42.8747 201.725 42.272C201.427 41.6693 201.277 40.976 201.277 40.192C201.277 39.3547 201.427 38.6347 201.725 38.032C202.024 37.4293 202.432 36.968 202.949 36.648C203.472 36.3227 204.067 36.16 204.733 36.16C205.315 36.16 205.811 36.2773 206.221 36.512C206.632 36.7467 206.963 37.064 207.213 37.464C207.464 37.864 207.637 38.3173 207.733 38.824C207.835 39.3253 207.864 39.8453 207.821 40.384H202.285V39.616H206.997L206.629 39.856C206.645 39.5413 206.627 39.2267 206.573 38.912C206.525 38.5973 206.432 38.3093 206.293 38.048C206.155 37.7813 205.96 37.568 205.709 37.408C205.459 37.248 205.139 37.168 204.749 37.168C204.259 37.168 203.848 37.2933 203.517 37.544C203.187 37.7947 202.939 38.1253 202.773 38.536C202.608 38.9413 202.525 39.3813 202.525 39.856V40.368C202.525 40.9013 202.605 41.3787 202.765 41.8C202.931 42.2213 203.176 42.5547 203.501 42.8C203.827 43.0453 204.237 43.168 204.733 43.168C205.229 43.168 205.637 43.048 205.957 42.808C206.277 42.568 206.472 42.2133 206.541 41.744H207.837C207.757 42.2507 207.576 42.688 207.293 43.056C207.011 43.4187 206.651 43.6987 206.213 43.896C205.776 44.0933 205.283 44.192 204.733 44.192ZM210.456 44V36.336H211.704V44H210.456ZM211.32 40.544C211.32 39.5733 211.413 38.768 211.6 38.128C211.787 37.4827 212.059 37.0027 212.416 36.688C212.779 36.368 213.219 36.208 213.736 36.208C213.907 36.208 214.061 36.2213 214.2 36.248C214.344 36.2693 214.488 36.304 214.632 36.352L214.552 37.584C214.403 37.536 214.24 37.496 214.064 37.464C213.888 37.4267 213.731 37.408 213.592 37.408C213.139 37.408 212.773 37.5387 212.496 37.8C212.219 38.056 212.016 38.4187 211.888 38.888C211.765 39.3573 211.704 39.9093 211.704 40.544H211.32ZM219.053 44.192C218.392 44.192 217.8 44.024 217.277 43.688C216.76 43.3467 216.349 42.8747 216.045 42.272C215.747 41.6693 215.597 40.976 215.597 40.192C215.597 39.3547 215.747 38.6347 216.045 38.032C216.344 37.4293 216.752 36.968 217.269 36.648C217.792 36.3227 218.387 36.16 219.053 36.16C219.635 36.16 220.131 36.2773 220.541 36.512C220.952 36.7467 221.283 37.064 221.533 37.464C221.784 37.864 221.957 38.3173 222.053 38.824C222.155 39.3253 222.184 39.8453 222.141 40.384H216.605V39.616H221.317L220.949 39.856C220.965 39.5413 220.947 39.2267 220.893 38.912C220.845 38.5973 220.752 38.3093 220.613 38.048C220.475 37.7813 220.28 37.568 220.029 37.408C219.779 37.248 219.459 37.168 219.069 37.168C218.579 37.168 218.168 37.2933 217.837 37.544C217.507 37.7947 217.259 38.1253 217.093 38.536C216.928 38.9413 216.845 39.3813 216.845 39.856V40.368C216.845 40.9013 216.925 41.3787 217.085 41.8C217.251 42.2213 217.496 42.5547 217.821 42.8C218.147 43.0453 218.557 43.168 219.053 43.168C219.549 43.168 219.957 43.048 220.277 42.808C220.597 42.568 220.792 42.2133 220.861 41.744H222.157C222.077 42.2507 221.896 42.688 221.613 43.056C221.331 43.4187 220.971 43.6987 220.533 43.896C220.096 44.0933 219.603 44.192 219.053 44.192Z" fill="#333333"/>
</g>
<defs>
<filter id="filter0_d_7073_5860" x="116" y="0" width="139.767" height="68" filterUnits="userSpaceOnUse" color-interpolation-filters="sRGB">
<feFlood flood-opacity="0" result="BackgroundImageFix"/>
<feColorMatrix in="SourceAlpha" type="matrix" values="0 0 0 0 0 0 0 0 0 0 0 0 0 0 0 0 0 0 127 0" result="hardAlpha"/>
<feOffset dy="4"/>
<feGaussianBlur stdDeviation="3"/>
<feComposite in2="hardAlpha" operator="out"/>
<feColorMatrix type="matrix" values="0 0 0 0 0 0 0 0 0 0 0 0 0 0 0 0 0 0 0.1 0"/>
<feBlend mode="normal" in2="BackgroundImageFix" result="effect1_dropShadow_7073_5860"/>
<feBlend mode="normal" in="SourceGraphic" in2="effect1_dropShadow_7073_5860" result="shape"/>
</filter>
<filter id="filter1_d_7073_5860" x="130.862" y="13.9521" width="97.3433" height="43.9834" filterUnits="userSpaceOnUse" color-interpolation-filters="sRGB">
<feFlood flood-opacity="0" result="BackgroundImageFix"/>
<feColorMatrix in="SourceAlpha" type="matrix" values="0 0 0 0 0 0 0 0 0 0 0 0 0 0 0 0 0 0 127 0" result="hardAlpha"/>
<feOffset dy="4"/>
<feGaussianBlur stdDeviation="3"/>
<feComposite in2="hardAlpha" operator="out"/>
<feColorMatrix type="matrix" values="0 0 0 0 0 0 0 0 0 0 0 0 0 0 0 0 0 0 0.05 0"/>
<feBlend mode="normal" in2="BackgroundImageFix" result="effect1_dropShadow_7073_5860"/>
<feBlend mode="normal" in="SourceGraphic" in2="effect1_dropShadow_7073_5860" result="shape"/>
</filter>
</defs>
</svg>
