<svg width="257" height="68" viewBox="0 0 257 68" fill="none" xmlns="http://www.w3.org/2000/svg">
<path d="M7.04333 32.6331L16.7674 41V49C16.7674 53.9706 20.7968 58 25.7674 58L247.035 58C252.005 58 256.035 53.9706 256.035 49V11C256.035 6.02944 252.005 2 247.035 2L25.7674 2C20.7968 2 16.7674 6.02944 16.7674 11V20.5L7.15555 27.9931C5.66179 29.1575 5.60761 31.3978 7.04333 32.6331Z" fill="white"/>
<g filter="url(#filter0_d_7075_5693)">
<mask id="path-2-inside-1_7075_5693" fill="white">
<path d="M7.04333 32.6331L16.7674 41V49C16.7674 53.9706 20.7968 58 25.7674 58L207.035 58C212.005 58 216.035 53.9706 216.035 49V11C216.035 6.02944 212.005 2 207.035 2L25.7674 2C20.7968 2 16.7674 6.02944 16.7674 11V20.5L7.15555 27.9931C5.66179 29.1575 5.60761 31.3978 7.04333 32.6331Z"/>
</mask>
<path d="M7.04333 32.6331L16.7674 41V49C16.7674 53.9706 20.7968 58 25.7674 58L207.035 58C212.005 58 216.035 53.9706 216.035 49V11C216.035 6.02944 212.005 2 207.035 2L25.7674 2C20.7968 2 16.7674 6.02944 16.7674 11V20.5L7.15555 27.9931C5.66179 29.1575 5.60761 31.3978 7.04333 32.6331Z" fill="white"/>
<path d="M16.7674 41H18.1674V40.3577L17.6805 39.9388L16.7674 41ZM7.04333 32.6331L6.13021 33.6944L6.13021 33.6944L7.04333 32.6331ZM7.15555 27.9931L8.0163 29.0972L8.0163 29.0972L7.15555 27.9931ZM16.7674 20.5L17.6281 21.6041L18.1674 21.1838V20.5H16.7674ZM25.7674 2V0.6V2ZM207.035 2V3.4V2ZM17.6805 39.9388L7.95644 31.5719L6.13021 33.6944L15.8542 42.0612L17.6805 39.9388ZM8.0163 29.0972L17.6281 21.6041L15.9066 19.3959L6.2948 26.8889L8.0163 29.0972ZM7.95644 31.5719C7.19073 30.9131 7.21963 29.7183 8.0163 29.0972L6.2948 26.8889C4.10396 28.5968 4.02449 31.8825 6.13021 33.6944L7.95644 31.5719ZM25.7674 3.4L207.035 3.4L207.035 0.600003L25.7674 0.6L25.7674 3.4ZM214.635 11V49H217.435V11L214.635 11ZM207.035 56.6L25.7674 56.6V59.4L207.035 59.4V56.6ZM18.1674 20.5V11H15.3674V20.5H18.1674ZM18.1674 49V41H15.3674V49H18.1674ZM25.7674 56.6C21.57 56.6 18.1674 53.1974 18.1674 49H15.3674C15.3674 54.7438 20.0236 59.4 25.7674 59.4V56.6ZM214.635 49C214.635 53.1974 211.232 56.6 207.035 56.6V59.4C212.778 59.4 217.435 54.7438 217.435 49H214.635ZM207.035 3.4C211.232 3.4 214.635 6.80264 214.635 11L217.435 11C217.435 5.25624 212.778 0.600003 207.035 0.600003V3.4ZM25.7674 0.6C20.0236 0.6 15.3674 5.25624 15.3674 11H18.1674C18.1674 6.80264 21.57 3.4 25.7674 3.4V0.6Z" fill="#333333" mask="url(#path-2-inside-1_7075_5693)"/>
</g>
<g filter="url(#filter1_d_7075_5693)">
<path d="M31.224 14.952H32.632L35.24 23.896H34.872L37.544 15.992H38.392L41.032 23.832H40.68L43.672 14.952H45.064L41.512 25H40.2L37.88 18.184H38.12L35.72 25H34.408L31.224 14.952ZM49.3253 25.192C48.6373 25.192 48.0239 25.04 47.4852 24.736C46.9519 24.432 46.5306 23.9813 46.2212 23.384C45.9119 22.7867 45.7572 22.0507 45.7572 21.176C45.7572 20.296 45.9119 19.56 46.2212 18.968C46.5306 18.3707 46.9519 17.92 47.4852 17.616C48.0239 17.312 48.6373 17.16 49.3253 17.16C50.0079 17.16 50.6159 17.312 51.1493 17.616C51.6879 17.92 52.1093 18.3707 52.4132 18.968C52.7226 19.56 52.8773 20.296 52.8773 21.176C52.8773 22.0507 52.7226 22.7867 52.4132 23.384C52.1093 23.9813 51.6879 24.432 51.1493 24.736C50.6159 25.04 50.0079 25.192 49.3253 25.192ZM49.2933 24.104C49.7893 24.104 50.2106 23.9867 50.5573 23.752C50.9039 23.512 51.1652 23.1733 51.3412 22.736C51.5226 22.2987 51.6133 21.7787 51.6133 21.176C51.6133 20.264 51.4239 19.5467 51.0452 19.024C50.6666 18.496 50.1039 18.232 49.3573 18.232C48.8559 18.232 48.4319 18.352 48.0852 18.592C47.7439 18.8267 47.4826 19.1653 47.3012 19.608C47.1253 20.0453 47.0373 20.568 47.0373 21.176C47.0373 22.0773 47.2266 22.792 47.6052 23.32C47.9893 23.8427 48.5519 24.104 49.2933 24.104ZM60.6673 17.336H61.9152V25H60.6673V17.336ZM55.2432 17.336H56.4912V22.104C56.4912 22.744 56.6459 23.2293 56.9552 23.56C57.2699 23.8907 57.7179 24.056 58.2993 24.056C58.7792 24.056 59.1952 23.928 59.5472 23.672C59.9046 23.416 60.1793 23.064 60.3713 22.616C60.5686 22.1627 60.6673 21.6453 60.6673 21.064H61.1312C61.1312 21.9227 61.0059 22.656 60.7552 23.264C60.5099 23.872 60.1606 24.3387 59.7073 24.664C59.2592 24.984 58.7312 25.144 58.1233 25.144C57.5472 25.144 57.0432 25.0373 56.6112 24.824C56.1792 24.6107 55.8432 24.288 55.6032 23.856C55.3632 23.4187 55.2432 22.8667 55.2432 22.2V17.336ZM65.3147 25V14.088H66.5627V25H65.3147ZM72.6951 25.192C72.0765 25.192 71.5085 25.0267 70.9911 24.696C70.4738 24.36 70.0605 23.8907 69.7511 23.288C69.4418 22.68 69.2871 21.9653 69.2871 21.144C69.2871 20.328 69.4391 19.6213 69.7431 19.024C70.0471 18.4267 70.4498 17.968 70.9511 17.648C71.4578 17.3227 72.0125 17.16 72.6151 17.16C73.1751 17.16 73.6658 17.296 74.0871 17.568C74.5138 17.84 74.8445 18.232 75.0791 18.744C75.3138 19.256 75.4311 19.8747 75.4311 20.6H74.9511C74.9511 20.0933 74.8498 19.6667 74.6471 19.32C74.4498 18.9733 74.1911 18.712 73.8711 18.536C73.5511 18.3547 73.2071 18.264 72.8391 18.264C72.4231 18.264 72.0418 18.3813 71.6951 18.616C71.3538 18.8453 71.0791 19.176 70.8711 19.608C70.6685 20.0347 70.5671 20.5467 70.5671 21.144C70.5671 21.752 70.6685 22.2747 70.8711 22.712C71.0791 23.1493 71.3538 23.4853 71.6951 23.72C72.0418 23.9547 72.4231 24.072 72.8391 24.072C73.1858 24.072 73.5191 23.9813 73.8391 23.8C74.1645 23.6187 74.4311 23.3547 74.6391 23.008C74.8471 22.656 74.9511 22.232 74.9511 21.736H75.4311C75.4311 22.4773 75.3085 23.1067 75.0631 23.624C74.8231 24.136 74.4951 24.5253 74.0791 24.792C73.6685 25.0587 73.2071 25.192 72.6951 25.192ZM75.1591 25L74.9511 23.208V14.088H76.1991V25H75.1591ZM82.2964 17.352H83.6884L86.1844 23.912H85.8964L87.8324 17.352H89.1124L86.2324 26.536C85.9924 27.304 85.6724 27.896 85.2724 28.312C84.8724 28.728 84.3604 28.936 83.7364 28.936C83.4004 28.936 83.0804 28.888 82.7764 28.792C82.4777 28.696 82.1684 28.5573 81.8484 28.376V27.224C82.131 27.448 82.403 27.608 82.6644 27.704C82.931 27.8 83.2084 27.848 83.4964 27.848C83.8164 27.848 84.083 27.7467 84.2964 27.544C84.515 27.3413 84.6964 27.08 84.8404 26.76C84.9844 26.4453 85.107 26.1147 85.2084 25.768L85.4324 25L82.2964 17.352ZM93.9415 25.192C93.2535 25.192 92.6402 25.04 92.1015 24.736C91.5682 24.432 91.1468 23.9813 90.8375 23.384C90.5282 22.7867 90.3735 22.0507 90.3735 21.176C90.3735 20.296 90.5282 19.56 90.8375 18.968C91.1468 18.3707 91.5682 17.92 92.1015 17.616C92.6402 17.312 93.2535 17.16 93.9415 17.16C94.6242 17.16 95.2322 17.312 95.7655 17.616C96.3042 17.92 96.7255 18.3707 97.0295 18.968C97.3388 19.56 97.4935 20.296 97.4935 21.176C97.4935 22.0507 97.3388 22.7867 97.0295 23.384C96.7255 23.9813 96.3042 24.432 95.7655 24.736C95.2322 25.04 94.6242 25.192 93.9415 25.192ZM93.9095 24.104C94.4055 24.104 94.8268 23.9867 95.1735 23.752C95.5202 23.512 95.7815 23.1733 95.9575 22.736C96.1388 22.2987 96.2295 21.7787 96.2295 21.176C96.2295 20.264 96.0402 19.5467 95.6615 19.024C95.2828 18.496 94.7202 18.232 93.9735 18.232C93.4722 18.232 93.0482 18.352 92.7015 18.592C92.3602 18.8267 92.0988 19.1653 91.9175 19.608C91.7415 20.0453 91.6535 20.568 91.6535 21.176C91.6535 22.0773 91.8428 22.792 92.2215 23.32C92.6055 23.8427 93.1682 24.104 93.9095 24.104ZM105.283 17.336H106.531V25H105.283V17.336ZM99.8595 17.336H101.107V22.104C101.107 22.744 101.262 23.2293 101.571 23.56C101.886 23.8907 102.334 24.056 102.915 24.056C103.395 24.056 103.811 23.928 104.163 23.672C104.521 23.416 104.795 23.064 104.987 22.616C105.185 22.1627 105.283 21.6453 105.283 21.064H105.747C105.747 21.9227 105.622 22.656 105.371 23.264C105.126 23.872 104.777 24.3387 104.323 24.664C103.875 24.984 103.347 25.144 102.739 25.144C102.163 25.144 101.659 25.0373 101.227 24.824C100.795 24.6107 100.459 24.288 100.219 23.856C99.9795 23.4187 99.8595 22.8667 99.8595 22.2V17.336ZM113.888 25V14.088H115.136V25H113.888ZM119.236 15.544C118.98 15.544 118.778 15.472 118.628 15.328C118.479 15.1787 118.404 14.984 118.404 14.744C118.404 14.5093 118.479 14.3227 118.628 14.184C118.778 14.0453 118.98 13.976 119.236 13.976C119.492 13.976 119.695 14.0453 119.844 14.184C119.994 14.3227 120.068 14.5093 120.068 14.744C120.068 14.984 119.994 15.1787 119.844 15.328C119.695 15.472 119.492 15.544 119.236 15.544ZM118.612 25V17.336H119.86V25H118.612ZM123.458 25V14.088H124.706V25H123.458ZM124.514 20.616L128.418 17.352H130.162L124.514 21.944V20.616ZM128.802 25L125.17 20.168L126.434 19.944L130.338 25H128.802ZM135.29 25.192C134.628 25.192 134.036 25.024 133.514 24.688C132.996 24.3467 132.586 23.8747 132.282 23.272C131.983 22.6693 131.834 21.976 131.834 21.192C131.834 20.3547 131.983 19.6347 132.282 19.032C132.58 18.4293 132.988 17.968 133.506 17.648C134.028 17.3227 134.623 17.16 135.29 17.16C135.871 17.16 136.367 17.2773 136.778 17.512C137.188 17.7467 137.519 18.064 137.77 18.464C138.02 18.864 138.194 19.3173 138.29 19.824C138.391 20.3253 138.42 20.8453 138.378 21.384H132.842V20.616H137.554L137.186 20.856C137.202 20.5413 137.183 20.2267 137.13 19.912C137.082 19.5973 136.988 19.3093 136.85 19.048C136.711 18.7813 136.516 18.568 136.266 18.408C136.015 18.248 135.695 18.168 135.306 18.168C134.815 18.168 134.404 18.2933 134.074 18.544C133.743 18.7947 133.495 19.1253 133.33 19.536C133.164 19.9413 133.082 20.3813 133.082 20.856V21.368C133.082 21.9013 133.162 22.3787 133.322 22.8C133.487 23.2213 133.732 23.5547 134.058 23.8C134.383 24.0453 134.794 24.168 135.29 24.168C135.786 24.168 136.194 24.048 136.514 23.808C136.834 23.568 137.028 23.2133 137.098 22.744H138.394C138.314 23.2507 138.132 23.688 137.85 24.056C137.567 24.4187 137.207 24.6987 136.77 24.896C136.332 25.0933 135.839 25.192 135.29 25.192ZM147.321 25.192C146.905 25.192 146.532 25.112 146.201 24.952C145.87 24.792 145.609 24.552 145.417 24.232C145.225 23.912 145.129 23.512 145.129 23.032V15.224H146.361V23C146.361 23.7893 146.729 24.184 147.465 24.184C147.684 24.184 147.894 24.16 148.097 24.112C148.305 24.064 148.537 23.992 148.793 23.896L148.969 24.792C148.697 24.9093 148.425 25.0053 148.153 25.08C147.886 25.1547 147.609 25.192 147.321 25.192ZM143.897 18.216V17.352H148.777V18.216H143.897ZM153.913 25.192C153.225 25.192 152.611 25.04 152.073 24.736C151.539 24.432 151.118 23.9813 150.809 23.384C150.499 22.7867 150.345 22.0507 150.345 21.176C150.345 20.296 150.499 19.56 150.809 18.968C151.118 18.3707 151.539 17.92 152.073 17.616C152.611 17.312 153.225 17.16 153.913 17.16C154.595 17.16 155.203 17.312 155.737 17.616C156.275 17.92 156.697 18.3707 157.001 18.968C157.31 19.56 157.465 20.296 157.465 21.176C157.465 22.0507 157.31 22.7867 157.001 23.384C156.697 23.9813 156.275 24.432 155.737 24.736C155.203 25.04 154.595 25.192 153.913 25.192ZM153.881 24.104C154.377 24.104 154.798 23.9867 155.145 23.752C155.491 23.512 155.753 23.1733 155.929 22.736C156.11 22.2987 156.201 21.7787 156.201 21.176C156.201 20.264 156.011 19.5467 155.633 19.024C155.254 18.496 154.691 18.232 153.945 18.232C153.443 18.232 153.019 18.352 152.673 18.592C152.331 18.8267 152.07 19.1653 151.889 19.608C151.713 20.0453 151.625 20.568 151.625 21.176C151.625 22.0773 151.814 22.792 152.193 23.32C152.577 23.8427 153.139 24.104 153.881 24.104ZM164.012 25V14.088H165.26V25H164.012ZM165.068 20.616L168.972 17.352H170.716L165.068 21.944V20.616ZM169.356 25L165.724 20.168L166.988 19.944L170.892 25H169.356ZM178.627 25V20.504C178.627 19.7733 178.451 19.2187 178.099 18.84C177.753 18.456 177.278 18.264 176.675 18.264C176.217 18.264 175.819 18.3893 175.483 18.64C175.147 18.8907 174.889 19.2507 174.707 19.72C174.526 20.184 174.435 20.7387 174.435 21.384H173.955C173.955 20.4933 174.073 19.7333 174.307 19.104C174.542 18.4747 174.883 17.9947 175.331 17.664C175.785 17.328 176.334 17.16 176.979 17.16C177.582 17.16 178.097 17.296 178.523 17.568C178.955 17.8347 179.286 18.2187 179.515 18.72C179.745 19.2213 179.859 19.816 179.859 20.504V25H178.627ZM173.187 25V17.352H174.259L174.435 19.112V25H173.187ZM185.771 25.192C185.083 25.192 184.47 25.04 183.931 24.736C183.398 24.432 182.977 23.9813 182.667 23.384C182.358 22.7867 182.203 22.0507 182.203 21.176C182.203 20.296 182.358 19.56 182.667 18.968C182.977 18.3707 183.398 17.92 183.931 17.616C184.47 17.312 185.083 17.16 185.771 17.16C186.454 17.16 187.062 17.312 187.595 17.616C188.134 17.92 188.555 18.3707 188.859 18.968C189.169 19.56 189.323 20.296 189.323 21.176C189.323 22.0507 189.169 22.7867 188.859 23.384C188.555 23.9813 188.134 24.432 187.595 24.736C187.062 25.04 186.454 25.192 185.771 25.192ZM185.739 24.104C186.235 24.104 186.657 23.9867 187.003 23.752C187.35 23.512 187.611 23.1733 187.787 22.736C187.969 22.2987 188.059 21.7787 188.059 21.176C188.059 20.264 187.87 19.5467 187.491 19.024C187.113 18.496 186.55 18.232 185.803 18.232C185.302 18.232 184.878 18.352 184.531 18.592C184.19 18.8267 183.929 19.1653 183.747 19.608C183.571 20.0453 183.483 20.568 183.483 21.176C183.483 22.0773 183.673 22.792 184.051 23.32C184.435 23.8427 184.998 24.104 185.739 24.104ZM190.586 17.352H191.882L193.834 23.736H193.674L195.578 17.72H196.618L198.506 23.752H198.362L200.314 17.352H201.562L199.05 25H197.834L195.978 19.352H196.17L194.33 25H193.114L190.586 17.352ZM43.368 45V40.504C43.368 39.7733 43.192 39.2187 42.84 38.84C42.4933 38.456 42.024 38.264 41.432 38.264C40.7387 38.264 40.208 38.5333 39.84 39.072C39.472 39.6053 39.288 40.344 39.288 41.288H38.712C38.712 40.6 38.7787 39.9973 38.912 39.48C39.0507 38.9627 39.2507 38.5333 39.512 38.192C39.7733 37.8453 40.0907 37.5867 40.464 37.416C40.8373 37.2453 41.2613 37.16 41.736 37.16C42.3387 37.16 42.8533 37.296 43.28 37.568C43.712 37.8347 44.0427 38.2187 44.272 38.72C44.5013 39.2213 44.616 39.816 44.616 40.504V45H43.368ZM32.616 45V37.352H33.688L33.832 38.888C34.072 38.3333 34.408 37.9067 34.84 37.608C35.2773 37.3093 35.8 37.16 36.408 37.16C37.0107 37.16 37.5253 37.296 37.952 37.568C38.384 37.8347 38.7147 38.2187 38.944 38.72C39.1733 39.2213 39.288 39.816 39.288 40.504V45H38.056V40.504C38.056 39.7733 37.88 39.2187 37.528 38.84C37.1813 38.456 36.7067 38.264 36.104 38.264C35.6453 38.264 35.248 38.3893 34.912 38.64C34.576 38.8907 34.3173 39.2507 34.136 39.72C33.9547 40.184 33.864 40.7387 33.864 41.384V45H32.616ZM50.5128 45.192C49.8248 45.192 49.2114 45.04 48.6727 44.736C48.1394 44.432 47.7181 43.9813 47.4087 43.384C47.0994 42.7867 46.9447 42.0507 46.9447 41.176C46.9447 40.296 47.0994 39.56 47.4087 38.968C47.7181 38.3707 48.1394 37.92 48.6727 37.616C49.2114 37.312 49.8248 37.16 50.5128 37.16C51.1954 37.16 51.8034 37.312 52.3368 37.616C52.8754 37.92 53.2968 38.3707 53.6007 38.968C53.9101 39.56 54.0648 40.296 54.0648 41.176C54.0648 42.0507 53.9101 42.7867 53.6007 43.384C53.2968 43.9813 52.8754 44.432 52.3368 44.736C51.8034 45.04 51.1954 45.192 50.5128 45.192ZM50.4808 44.104C50.9768 44.104 51.3981 43.9867 51.7448 43.752C52.0914 43.512 52.3527 43.1733 52.5287 42.736C52.7101 42.2987 52.8008 41.7787 52.8008 41.176C52.8008 40.264 52.6114 39.5467 52.2327 39.024C51.8541 38.496 51.2914 38.232 50.5448 38.232C50.0434 38.232 49.6194 38.352 49.2727 38.592C48.9314 38.8267 48.6701 39.1653 48.4887 39.608C48.3128 40.0453 48.2248 40.568 48.2248 41.176C48.2248 42.0773 48.4141 42.792 48.7927 43.32C49.1768 43.8427 49.7394 44.104 50.4808 44.104ZM56.6547 45V37.336H57.9027V45H56.6547ZM57.5187 41.544C57.5187 40.5733 57.6121 39.768 57.7987 39.128C57.9854 38.4827 58.2574 38.0027 58.6147 37.688C58.9774 37.368 59.4174 37.208 59.9348 37.208C60.1054 37.208 60.2601 37.2213 60.3987 37.248C60.5427 37.2693 60.6867 37.304 60.8307 37.352L60.7508 38.584C60.6014 38.536 60.4388 38.496 60.2628 38.464C60.0867 38.4267 59.9294 38.408 59.7908 38.408C59.3374 38.408 58.9721 38.5387 58.6947 38.8C58.4174 39.056 58.2147 39.4187 58.0867 39.888C57.9641 40.3573 57.9027 40.9093 57.9027 41.544H57.5187ZM65.252 45.192C64.5907 45.192 63.9987 45.024 63.476 44.688C62.9587 44.3467 62.548 43.8747 62.244 43.272C61.9453 42.6693 61.796 41.976 61.796 41.192C61.796 40.3547 61.9453 39.6347 62.244 39.032C62.5427 38.4293 62.9507 37.968 63.468 37.648C63.9907 37.3227 64.5853 37.16 65.252 37.16C65.8333 37.16 66.3293 37.2773 66.74 37.512C67.1507 37.7467 67.4813 38.064 67.732 38.464C67.9827 38.864 68.156 39.3173 68.252 39.824C68.3533 40.3253 68.3827 40.8453 68.34 41.384H62.804V40.616H67.516L67.148 40.856C67.164 40.5413 67.1453 40.2267 67.092 39.912C67.044 39.5973 66.9507 39.3093 66.812 39.048C66.6733 38.7813 66.4787 38.568 66.228 38.408C65.9773 38.248 65.6573 38.168 65.268 38.168C64.7773 38.168 64.3667 38.2933 64.036 38.544C63.7053 38.7947 63.4573 39.1253 63.292 39.536C63.1267 39.9413 63.044 40.3813 63.044 40.856V41.368C63.044 41.9013 63.124 42.3787 63.284 42.8C63.4493 43.2213 63.6947 43.5547 64.02 43.8C64.3453 44.0453 64.756 44.168 65.252 44.168C65.748 44.168 66.156 44.048 66.476 43.808C66.796 43.568 66.9907 43.2133 67.06 42.744H68.356C68.276 43.2507 68.0947 43.688 67.812 44.056C67.5293 44.4187 67.1693 44.6987 66.732 44.896C66.2947 45.0933 65.8013 45.192 65.252 45.192ZM79.6676 45L79.5076 43.32V40.04C79.5076 39.352 79.361 38.8587 79.0676 38.56C78.7743 38.256 78.3343 38.104 77.7476 38.104C77.417 38.104 77.1156 38.152 76.8436 38.248C76.577 38.344 76.3636 38.4933 76.2036 38.696C76.049 38.8933 75.9716 39.1493 75.9716 39.464H74.5796C74.5796 38.9093 74.7156 38.464 74.9876 38.128C75.2596 37.7867 75.633 37.5413 76.1076 37.392C76.5876 37.2373 77.1343 37.16 77.7476 37.16C78.3343 37.16 78.8543 37.2587 79.3076 37.456C79.761 37.6533 80.1156 37.968 80.3716 38.4C80.6276 38.8267 80.7556 39.384 80.7556 40.072V45H79.6676ZM77.0596 45.192C76.4303 45.192 75.9103 45.08 75.4996 44.856C75.089 44.632 74.7823 44.3413 74.5796 43.984C74.377 43.6267 74.2756 43.2507 74.2756 42.856C74.2756 42.3387 74.4036 41.9173 74.6596 41.592C74.921 41.2667 75.2756 41.0293 75.7236 40.88C76.1716 40.7253 76.6756 40.648 77.2356 40.648C77.6356 40.648 78.0356 40.688 78.4356 40.768C78.841 40.848 79.2356 40.9573 79.6196 41.096V41.88C79.2996 41.752 78.937 41.6507 78.5316 41.576C78.1316 41.5013 77.7636 41.464 77.4276 41.464C76.9156 41.464 76.4836 41.5707 76.1316 41.784C75.7796 41.992 75.6036 42.3493 75.6036 42.856C75.6036 43.2293 75.737 43.5493 76.0036 43.816C76.2756 44.0827 76.7076 44.216 77.2996 44.216C77.7156 44.216 78.089 44.12 78.4196 43.928C78.7556 43.7307 79.0196 43.4853 79.2116 43.192C79.409 42.8987 79.5076 42.6053 79.5076 42.312H79.8116C79.8116 42.824 79.6996 43.2987 79.4756 43.736C79.257 44.1733 78.9423 44.5253 78.5316 44.792C78.121 45.0587 77.6303 45.192 77.0596 45.192ZM87.4081 45.192C86.8961 45.192 86.4321 45.0587 86.0161 44.792C85.6055 44.5253 85.2775 44.136 85.0321 43.624C84.7921 43.1067 84.6721 42.4773 84.6721 41.736H85.1521C85.1521 42.232 85.2535 42.656 85.4561 43.008C85.6641 43.3547 85.9308 43.6187 86.2561 43.8C86.5815 43.9813 86.9228 44.072 87.2801 44.072C87.6908 44.072 88.0668 43.9547 88.4081 43.72C88.7495 43.4853 89.0215 43.1493 89.2241 42.712C89.4321 42.2747 89.5361 41.752 89.5361 41.144C89.5361 40.5467 89.4348 40.0347 89.2321 39.608C89.0295 39.176 88.7548 38.8453 88.4081 38.616C88.0668 38.3813 87.6855 38.264 87.2641 38.264C86.9015 38.264 86.5575 38.3547 86.2321 38.536C85.9121 38.712 85.6508 38.9733 85.4481 39.32C85.2508 39.6667 85.1521 40.0933 85.1521 40.6H84.6721C84.6721 39.8747 84.7895 39.256 85.0241 38.744C85.2641 38.232 85.5948 37.84 86.0161 37.568C86.4375 37.296 86.9281 37.16 87.4881 37.16C88.0908 37.16 88.6428 37.3227 89.1441 37.648C89.6508 37.968 90.0561 38.4267 90.3601 39.024C90.6641 39.6213 90.8161 40.328 90.8161 41.144C90.8161 41.9653 90.6615 42.68 90.3521 43.288C90.0428 43.8907 89.6295 44.36 89.1121 44.696C88.5948 45.0267 88.0268 45.192 87.4081 45.192ZM83.9041 45V34.088H85.1521V43.208L84.7841 45H83.9041ZM96.3165 45.192C95.6285 45.192 95.0152 45.04 94.4765 44.736C93.9432 44.432 93.5218 43.9813 93.2125 43.384C92.9032 42.7867 92.7485 42.0507 92.7485 41.176C92.7485 40.296 92.9032 39.56 93.2125 38.968C93.5218 38.3707 93.9432 37.92 94.4765 37.616C95.0152 37.312 95.6285 37.16 96.3165 37.16C96.9992 37.16 97.6072 37.312 98.1405 37.616C98.6792 37.92 99.1005 38.3707 99.4045 38.968C99.7138 39.56 99.8685 40.296 99.8685 41.176C99.8685 42.0507 99.7138 42.7867 99.4045 43.384C99.1005 43.9813 98.6792 44.432 98.1405 44.736C97.6072 45.04 96.9992 45.192 96.3165 45.192ZM96.2845 44.104C96.7805 44.104 97.2018 43.9867 97.5485 43.752C97.8952 43.512 98.1565 43.1733 98.3325 42.736C98.5138 42.2987 98.6045 41.7787 98.6045 41.176C98.6045 40.264 98.4152 39.5467 98.0365 39.024C97.6578 38.496 97.0952 38.232 96.3485 38.232C95.8472 38.232 95.4232 38.352 95.0765 38.592C94.7352 38.8267 94.4738 39.1653 94.2925 39.608C94.1165 40.0453 94.0285 40.568 94.0285 41.176C94.0285 42.0773 94.2178 42.792 94.5965 43.32C94.9805 43.8427 95.5432 44.104 96.2845 44.104ZM107.658 37.336H108.906V45H107.658V37.336ZM102.234 37.336H103.482V42.104C103.482 42.744 103.637 43.2293 103.946 43.56C104.261 43.8907 104.709 44.056 105.29 44.056C105.77 44.056 106.186 43.928 106.538 43.672C106.896 43.416 107.17 43.064 107.362 42.616C107.56 42.1627 107.658 41.6453 107.658 41.064H108.122C108.122 41.9227 107.997 42.656 107.746 43.264C107.501 43.872 107.152 44.3387 106.698 44.664C106.25 44.984 105.722 45.144 105.114 45.144C104.538 45.144 104.034 45.0373 103.602 44.824C103.17 44.6107 102.834 44.288 102.594 43.856C102.354 43.4187 102.234 42.8667 102.234 42.2V37.336ZM114.658 45.192C114.242 45.192 113.869 45.112 113.538 44.952C113.207 44.792 112.946 44.552 112.754 44.232C112.562 43.912 112.466 43.512 112.466 43.032V35.224H113.698V43C113.698 43.7893 114.066 44.184 114.802 44.184C115.021 44.184 115.231 44.16 115.434 44.112C115.642 44.064 115.874 43.992 116.13 43.896L116.306 44.792C116.034 44.9093 115.762 45.0053 115.49 45.08C115.223 45.1547 114.946 45.192 114.658 45.192ZM111.234 38.216V37.352H116.114V38.216H111.234ZM124.791 45.192C124.375 45.192 124.001 45.112 123.671 44.952C123.34 44.792 123.079 44.552 122.887 44.232C122.695 43.912 122.599 43.512 122.599 43.032V35.224H123.831V43C123.831 43.7893 124.199 44.184 124.935 44.184C125.153 44.184 125.364 44.16 125.567 44.112C125.775 44.064 126.007 43.992 126.263 43.896L126.439 44.792C126.167 44.9093 125.895 45.0053 125.623 45.08C125.356 45.1547 125.079 45.192 124.791 45.192ZM121.367 38.216V37.352H126.247V38.216H121.367ZM134.054 45V40.504C134.054 39.7733 133.878 39.2187 133.526 38.84C133.179 38.456 132.705 38.264 132.102 38.264C131.643 38.264 131.246 38.3893 130.91 38.64C130.574 38.8907 130.315 39.2507 130.134 39.72C129.953 40.184 129.862 40.7387 129.862 41.384H129.382C129.382 40.4933 129.499 39.7333 129.734 39.104C129.969 38.4747 130.31 37.9947 130.758 37.664C131.211 37.328 131.761 37.16 132.406 37.16C133.009 37.16 133.523 37.296 133.95 37.568C134.382 37.8347 134.713 38.2187 134.942 38.72C135.171 39.2213 135.286 39.816 135.286 40.504V45H134.054ZM128.614 45V34.088H129.862V45H128.614ZM141.086 45.192C140.425 45.192 139.833 45.024 139.31 44.688C138.793 44.3467 138.382 43.8747 138.078 43.272C137.78 42.6693 137.63 41.976 137.63 41.192C137.63 40.3547 137.78 39.6347 138.078 39.032C138.377 38.4293 138.785 37.968 139.302 37.648C139.825 37.3227 140.42 37.16 141.086 37.16C141.668 37.16 142.164 37.2773 142.574 37.512C142.985 37.7467 143.316 38.064 143.566 38.464C143.817 38.864 143.99 39.3173 144.086 39.824C144.188 40.3253 144.217 40.8453 144.174 41.384H138.638V40.616H143.35L142.982 40.856C142.998 40.5413 142.98 40.2267 142.926 39.912C142.878 39.5973 142.785 39.3093 142.646 39.048C142.508 38.7813 142.313 38.568 142.062 38.408C141.812 38.248 141.492 38.168 141.102 38.168C140.612 38.168 140.201 38.2933 139.87 38.544C139.54 38.7947 139.292 39.1253 139.126 39.536C138.961 39.9413 138.878 40.3813 138.878 40.856V41.368C138.878 41.9013 138.958 42.3787 139.118 42.8C139.284 43.2213 139.529 43.5547 139.854 43.8C140.18 44.0453 140.59 44.168 141.086 44.168C141.582 44.168 141.99 44.048 142.31 43.808C142.63 43.568 142.825 43.2133 142.894 42.744H144.19C144.11 43.2507 143.929 43.688 143.646 44.056C143.364 44.4187 143.004 44.6987 142.566 44.896C142.129 45.0933 141.636 45.192 141.086 45.192ZM153.47 48.936C152.686 48.936 152.006 48.824 151.43 48.6C150.854 48.3813 150.406 48.0853 150.086 47.712C149.771 47.344 149.614 46.936 149.614 46.488C149.614 45.896 149.83 45.4427 150.262 45.128C150.699 44.8187 151.262 44.664 151.95 44.664L152.638 45.096C152.062 45.096 151.617 45.216 151.302 45.456C150.987 45.696 150.83 46.024 150.83 46.44C150.83 46.856 151.054 47.208 151.502 47.496C151.95 47.784 152.606 47.928 153.47 47.928C154.11 47.928 154.67 47.8347 155.15 47.648C155.635 47.4667 156.011 47.2267 156.278 46.928C156.55 46.6347 156.686 46.3173 156.686 45.976C156.686 45.736 156.598 45.528 156.422 45.352C156.246 45.1813 155.977 45.096 155.614 45.096H152.638C152.121 45.096 151.673 45.0187 151.294 44.864C150.921 44.704 150.633 44.496 150.43 44.24C150.227 43.984 150.126 43.704 150.126 43.4C150.126 43.08 150.217 42.808 150.398 42.584C150.579 42.36 150.814 42.1893 151.102 42.072C151.395 41.9547 151.71 41.896 152.046 41.896L152.286 42.36C152.126 42.36 151.963 42.3973 151.798 42.472C151.638 42.5413 151.502 42.648 151.39 42.792C151.283 42.9307 151.23 43.1067 151.23 43.32C151.23 43.5653 151.331 43.7707 151.534 43.936C151.737 44.1013 152.105 44.184 152.638 44.184H155.614C156.334 44.184 156.899 44.336 157.31 44.64C157.726 44.944 157.934 45.368 157.934 45.912C157.934 46.4133 157.755 46.8933 157.398 47.352C157.041 47.816 156.529 48.1947 155.862 48.488C155.195 48.7867 154.398 48.936 153.47 48.936ZM153.694 42.76C153.107 42.76 152.577 42.6427 152.102 42.408C151.633 42.1733 151.259 41.8453 150.982 41.424C150.71 41.0027 150.574 40.5147 150.574 39.96C150.574 39.4 150.71 38.9093 150.982 38.488C151.259 38.0667 151.633 37.7413 152.102 37.512C152.577 37.2773 153.107 37.16 153.694 37.16C154.265 37.16 154.782 37.2773 155.246 37.512C155.715 37.7413 156.089 38.0667 156.366 38.488C156.643 38.9093 156.782 39.4 156.782 39.96C156.782 40.5147 156.643 41.0027 156.366 41.424C156.089 41.8453 155.715 42.1733 155.246 42.408C154.782 42.6427 154.265 42.76 153.694 42.76ZM153.694 41.864C154.281 41.864 154.737 41.6827 155.062 41.32C155.387 40.9573 155.55 40.504 155.55 39.96C155.55 39.4 155.387 38.9467 155.062 38.6C154.737 38.248 154.281 38.072 153.694 38.072C153.113 38.072 152.654 38.248 152.318 38.6C151.987 38.9467 151.822 39.4 151.822 39.96C151.822 40.504 151.987 40.9573 152.318 41.32C152.654 41.6827 153.113 41.864 153.694 41.864ZM156.206 38.376L155.614 38.136C155.614 37.688 155.702 37.296 155.878 36.96C156.054 36.6187 156.305 36.3547 156.63 36.168C156.955 35.976 157.342 35.88 157.79 35.88L157.694 37.112C157.214 37.112 156.846 37.216 156.59 37.424C156.334 37.6267 156.206 37.944 156.206 38.376ZM165.157 37.336H166.405V45H165.157V37.336ZM159.733 37.336H160.981V42.104C160.981 42.744 161.136 43.2293 161.445 43.56C161.76 43.8907 162.208 44.056 162.789 44.056C163.269 44.056 163.685 43.928 164.037 43.672C164.395 43.416 164.669 43.064 164.861 42.616C165.059 42.1627 165.157 41.6453 165.157 41.064H165.621C165.621 41.9227 165.496 42.656 165.245 43.264C165 43.872 164.651 44.3387 164.197 44.664C163.749 44.984 163.221 45.144 162.613 45.144C162.037 45.144 161.533 45.0373 161.101 44.824C160.669 44.6107 160.333 44.288 160.093 43.856C159.853 43.4187 159.733 42.8667 159.733 42.2V37.336ZM170.509 35.544C170.253 35.544 170.05 35.472 169.901 35.328C169.751 35.1787 169.677 34.984 169.677 34.744C169.677 34.5093 169.751 34.3227 169.901 34.184C170.05 34.0453 170.253 33.976 170.509 33.976C170.765 33.976 170.967 34.0453 171.117 34.184C171.266 34.3227 171.341 34.5093 171.341 34.744C171.341 34.984 171.266 35.1787 171.117 35.328C170.967 35.472 170.765 35.544 170.509 35.544ZM169.885 45V37.336H171.133V45H169.885ZM177.466 45.192C176.848 45.192 176.28 45.0267 175.762 44.696C175.245 44.36 174.832 43.8907 174.522 43.288C174.213 42.68 174.058 41.9653 174.058 41.144C174.058 40.328 174.21 39.6213 174.514 39.024C174.818 38.4267 175.221 37.968 175.722 37.648C176.229 37.3227 176.784 37.16 177.386 37.16C177.946 37.16 178.437 37.296 178.858 37.568C179.285 37.84 179.616 38.232 179.85 38.744C180.085 39.256 180.202 39.8747 180.202 40.6H179.722C179.722 40.0933 179.621 39.6667 179.418 39.32C179.221 38.9733 178.962 38.712 178.642 38.536C178.322 38.3547 177.978 38.264 177.61 38.264C177.194 38.264 176.813 38.3813 176.466 38.616C176.125 38.8453 175.85 39.176 175.642 39.608C175.44 40.0347 175.338 40.5467 175.338 41.144C175.338 41.752 175.44 42.2747 175.642 42.712C175.85 43.1493 176.125 43.4853 176.466 43.72C176.813 43.9547 177.194 44.072 177.61 44.072C177.957 44.072 178.29 43.9813 178.61 43.8C178.936 43.6187 179.202 43.3547 179.41 43.008C179.618 42.656 179.722 42.232 179.722 41.736H180.202C180.202 42.4773 180.08 43.1067 179.834 43.624C179.594 44.136 179.266 44.5253 178.85 44.792C178.44 45.0587 177.978 45.192 177.466 45.192ZM179.93 45L179.722 43.208V34.088H180.97V45H179.93ZM187.031 45.192C186.369 45.192 185.777 45.024 185.255 44.688C184.737 44.3467 184.327 43.8747 184.023 43.272C183.724 42.6693 183.575 41.976 183.575 41.192C183.575 40.3547 183.724 39.6347 184.023 39.032C184.321 38.4293 184.729 37.968 185.247 37.648C185.769 37.3227 186.364 37.16 187.031 37.16C187.612 37.16 188.108 37.2773 188.519 37.512C188.929 37.7467 189.26 38.064 189.511 38.464C189.761 38.864 189.935 39.3173 190.031 39.824C190.132 40.3253 190.161 40.8453 190.119 41.384H184.583V40.616H189.295L188.927 40.856C188.943 40.5413 188.924 40.2267 188.871 39.912C188.823 39.5973 188.729 39.3093 188.591 39.048C188.452 38.7813 188.257 38.568 188.007 38.408C187.756 38.248 187.436 38.168 187.047 38.168C186.556 38.168 186.145 38.2933 185.815 38.544C185.484 38.7947 185.236 39.1253 185.071 39.536C184.905 39.9413 184.823 40.3813 184.823 40.856V41.368C184.823 41.9013 184.903 42.3787 185.063 42.8C185.228 43.2213 185.473 43.5547 185.799 43.8C186.124 44.0453 186.535 44.168 187.031 44.168C187.527 44.168 187.935 44.048 188.255 43.808C188.575 43.568 188.769 43.2133 188.839 42.744H190.135C190.055 43.2507 189.873 43.688 189.591 44.056C189.308 44.4187 188.948 44.6987 188.511 44.896C188.073 45.0933 187.58 45.192 187.031 45.192ZM193.969 42.44V41.72C193.969 41.256 194.017 40.8747 194.113 40.576C194.215 40.2773 194.38 40.0187 194.609 39.8C194.839 39.5813 195.153 39.3627 195.553 39.144C195.911 38.952 196.196 38.7733 196.409 38.608C196.623 38.4427 196.775 38.264 196.865 38.072C196.961 37.88 197.009 37.6453 197.009 37.368C197.009 36.952 196.839 36.6053 196.497 36.328C196.161 36.0507 195.697 35.912 195.105 35.912C194.449 35.912 193.948 36.0427 193.601 36.304C193.255 36.56 193.036 36.92 192.945 37.384H191.617C191.692 36.6053 192.017 35.976 192.593 35.496C193.175 35.016 194.001 34.776 195.073 34.776C195.756 34.776 196.343 34.896 196.833 35.136C197.329 35.3707 197.708 35.688 197.969 36.088C198.236 36.4827 198.369 36.92 198.369 37.4C198.369 37.9493 198.231 38.4107 197.953 38.784C197.676 39.152 197.228 39.5013 196.609 39.832C196.252 40.0293 195.969 40.2133 195.761 40.384C195.559 40.5493 195.415 40.7413 195.329 40.96C195.244 41.1733 195.201 41.4533 195.201 41.8V42.44H193.969ZM194.609 45.192C194.343 45.192 194.121 45.1067 193.945 44.936C193.769 44.76 193.681 44.5493 193.681 44.304C193.681 44.0533 193.767 43.8373 193.937 43.656C194.113 43.4747 194.335 43.384 194.601 43.384C194.868 43.384 195.095 43.4747 195.281 43.656C195.473 43.832 195.569 44.0453 195.569 44.296C195.569 44.5413 195.476 44.752 195.289 44.928C195.103 45.104 194.876 45.192 194.609 45.192Z" fill="#333333"/>
</g>
<defs>
<filter id="filter0_d_7075_5693" x="0" y="0" width="222.035" height="68" filterUnits="userSpaceOnUse" color-interpolation-filters="sRGB">
<feFlood flood-opacity="0" result="BackgroundImageFix"/>
<feColorMatrix in="SourceAlpha" type="matrix" values="0 0 0 0 0 0 0 0 0 0 0 0 0 0 0 0 0 0 127 0" result="hardAlpha"/>
<feOffset dy="4"/>
<feGaussianBlur stdDeviation="3"/>
<feComposite in2="hardAlpha" operator="out"/>
<feColorMatrix type="matrix" values="0 0 0 0 0 0 0 0 0 0 0 0 0 0 0 0 0 0 0.1 0"/>
<feBlend mode="normal" in2="BackgroundImageFix" result="effect1_dropShadow_7075_5693"/>
<feBlend mode="normal" in="SourceGraphic" in2="effect1_dropShadow_7075_5693" result="shape"/>
</filter>
<filter id="filter1_d_7075_5693" x="25.2241" y="11.9756" width="182.337" height="46.96" filterUnits="userSpaceOnUse" color-interpolation-filters="sRGB">
<feFlood flood-opacity="0" result="BackgroundImageFix"/>
<feColorMatrix in="SourceAlpha" type="matrix" values="0 0 0 0 0 0 0 0 0 0 0 0 0 0 0 0 0 0 127 0" result="hardAlpha"/>
<feOffset dy="4"/>
<feGaussianBlur stdDeviation="3"/>
<feComposite in2="hardAlpha" operator="out"/>
<feColorMatrix type="matrix" values="0 0 0 0 0 0 0 0 0 0 0 0 0 0 0 0 0 0 0.05 0"/>
<feBlend mode="normal" in2="BackgroundImageFix" result="effect1_dropShadow_7075_5693"/>
<feBlend mode="normal" in="SourceGraphic" in2="effect1_dropShadow_7075_5693" result="shape"/>
</filter>
</defs>
</svg>
