<svg width="266" height="108" viewBox="0 0 266 108" fill="none" xmlns="http://www.w3.org/2000/svg">
<g filter="url(#filter0_d_7098_5730)">
<mask id="path-1-inside-1_7098_5730" fill="white">
<path d="M7.04332 52.6331L16.7673 61L16.7673 89C16.7673 93.9706 20.7968 98 25.7673 98L250.767 98C255.738 98 259.767 93.9706 259.767 89L259.767 11C259.767 6.02948 255.738 2.00004 250.767 2.00004L25.7674 2C20.7968 2 16.7674 6.02944 16.7674 11L16.7674 40.5L7.15554 47.9931C5.66179 49.1575 5.6076 51.3978 7.04332 52.6331Z"/>
</mask>
<path d="M7.04332 52.6331L16.7673 61L16.7673 89C16.7673 93.9706 20.7968 98 25.7673 98L250.767 98C255.738 98 259.767 93.9706 259.767 89L259.767 11C259.767 6.02948 255.738 2.00004 250.767 2.00004L25.7674 2C20.7968 2 16.7674 6.02944 16.7674 11L16.7674 40.5L7.15554 47.9931C5.66179 49.1575 5.6076 51.3978 7.04332 52.6331Z" fill="#F1F3FF"/>
<path d="M16.7673 61L18.1673 61L18.1673 60.3577L17.6805 59.9388L16.7673 61ZM7.04332 52.6331L6.1302 53.6944L6.1302 53.6944L7.04332 52.6331ZM7.15554 47.9931L6.29479 46.8889L6.29479 46.8889L7.15554 47.9931ZM16.7674 40.5L17.6281 41.6041L18.1674 41.1838L18.1674 40.5L16.7674 40.5ZM16.7674 11L15.3674 11L16.7674 11ZM16.7673 89L18.1673 89L16.7673 89ZM17.6805 59.9388L7.95644 51.5719L6.1302 53.6944L15.8542 62.0612L17.6805 59.9388ZM8.01629 49.0972L17.6281 41.6041L15.9066 39.3959L6.29479 46.8889L8.01629 49.0972ZM7.95644 51.5719C7.19072 50.9131 7.21962 49.7183 8.01629 49.0972L6.29479 46.8889C4.10395 48.5968 4.02448 51.8825 6.1302 53.6944L7.95644 51.5719ZM25.7674 3.4L250.767 3.40004L250.767 0.600043L25.7674 0.600003L25.7674 3.4ZM258.367 11L258.367 89L261.167 89L261.167 11L258.367 11ZM250.767 96.6L25.7673 96.6L25.7673 99.4L250.767 99.4L250.767 96.6ZM18.1674 40.5L18.1674 11L15.3674 11L15.3674 40.5L18.1674 40.5ZM18.1673 89L18.1673 61L15.3673 61L15.3673 89L18.1673 89ZM25.7673 96.6C21.57 96.6 18.1673 93.1974 18.1673 89L15.3673 89C15.3673 94.7438 20.0236 99.4 25.7673 99.4L25.7673 96.6ZM258.367 89C258.367 93.1974 254.965 96.6 250.767 96.6L250.767 99.4C256.511 99.4 261.167 94.7438 261.167 89L258.367 89ZM250.767 3.40004C254.965 3.40004 258.367 6.80268 258.367 11L261.167 11C261.167 5.25628 256.511 0.600044 250.767 0.600043L250.767 3.40004ZM25.7674 0.600003C20.0236 0.600002 15.3674 5.25624 15.3674 11L18.1674 11C18.1674 6.80264 21.57 3.4 25.7674 3.4L25.7674 0.600003Z" fill="#4A5DC8" mask="url(#path-1-inside-1_7098_5730)"/>
<path d="M29.616 25V14.952H30.864V25H29.616ZM40.9053 25.192C40.2919 25.192 39.7186 25.0267 39.1852 24.696C38.6572 24.3653 38.2306 23.8987 37.9052 23.296C37.5799 22.6933 37.4172 21.9813 37.4172 21.16C37.4172 20.3173 37.5799 19.5973 37.9052 19C38.2306 18.4027 38.6572 17.9467 39.1852 17.632C39.7186 17.3173 40.2919 17.16 40.9053 17.16C41.3372 17.16 41.7239 17.2267 42.0652 17.36C42.4119 17.488 42.7133 17.6667 42.9693 17.896C43.2253 18.1253 43.4359 18.3867 43.6013 18.68C43.7719 18.968 43.8973 19.272 43.9773 19.592L42.6972 19.704C42.5639 19.2613 42.3399 18.912 42.0252 18.656C41.7159 18.3947 41.3372 18.264 40.8892 18.264C40.5106 18.264 40.1532 18.3733 39.8172 18.592C39.4866 18.8053 39.2172 19.128 39.0092 19.56C38.8012 19.9867 38.6972 20.52 38.6972 21.16C38.6972 21.752 38.7906 22.2667 38.9772 22.704C39.1692 23.136 39.4306 23.472 39.7612 23.712C40.0919 23.952 40.4679 24.072 40.8892 24.072C41.4812 24.072 41.9292 23.928 42.2333 23.64C42.5426 23.3467 42.6972 22.9413 42.6972 22.424H43.9773C43.9773 22.9573 43.8519 23.432 43.6013 23.848C43.3506 24.264 42.9933 24.592 42.5293 24.832C42.0706 25.072 41.5292 25.192 40.9053 25.192ZM51.3632 25L51.2032 23.32V20.04C51.2032 19.352 51.0566 18.8587 50.7632 18.56C50.4699 18.256 50.0299 18.104 49.4432 18.104C49.1126 18.104 48.8112 18.152 48.5392 18.248C48.2726 18.344 48.0592 18.4933 47.8992 18.696C47.7446 18.8933 47.6672 19.1493 47.6672 19.464H46.2752C46.2752 18.9093 46.4112 18.464 46.6832 18.128C46.9552 17.7867 47.3286 17.5413 47.8032 17.392C48.2832 17.2373 48.8299 17.16 49.4432 17.16C50.0299 17.16 50.5499 17.2587 51.0032 17.456C51.4566 17.6533 51.8112 17.968 52.0672 18.4C52.3232 18.8267 52.4513 19.384 52.4513 20.072V25H51.3632ZM48.7552 25.192C48.1259 25.192 47.6059 25.08 47.1952 24.856C46.7846 24.632 46.4779 24.3413 46.2752 23.984C46.0726 23.6267 45.9712 23.2507 45.9712 22.856C45.9712 22.3387 46.0992 21.9173 46.3552 21.592C46.6166 21.2667 46.9712 21.0293 47.4192 20.88C47.8672 20.7253 48.3712 20.648 48.9312 20.648C49.3312 20.648 49.7312 20.688 50.1312 20.768C50.5366 20.848 50.9312 20.9573 51.3152 21.096V21.88C50.9952 21.752 50.6326 21.6507 50.2272 21.576C49.8272 21.5013 49.4592 21.464 49.1232 21.464C48.6112 21.464 48.1792 21.5707 47.8272 21.784C47.4752 21.992 47.2992 22.3493 47.2992 22.856C47.2992 23.2293 47.4326 23.5493 47.6992 23.816C47.9712 24.0827 48.4032 24.216 48.9952 24.216C49.4112 24.216 49.7846 24.12 50.1152 23.928C50.4512 23.7307 50.7152 23.4853 50.9072 23.192C51.1046 22.8987 51.2032 22.6053 51.2032 22.312H51.5072C51.5072 22.824 51.3952 23.2987 51.1712 23.736C50.9526 24.1733 50.6379 24.5253 50.2272 24.792C49.8166 25.0587 49.3259 25.192 48.7552 25.192ZM61.0397 25V20.504C61.0397 19.7733 60.8637 19.2187 60.5117 18.84C60.1651 18.456 59.6904 18.264 59.0877 18.264C58.6291 18.264 58.2317 18.3893 57.8957 18.64C57.5597 18.8907 57.3011 19.2507 57.1197 19.72C56.9384 20.184 56.8477 20.7387 56.8477 21.384H56.3677C56.3677 20.4933 56.4851 19.7333 56.7197 19.104C56.9544 18.4747 57.2957 17.9947 57.7437 17.664C58.1971 17.328 58.7464 17.16 59.3917 17.16C59.9944 17.16 60.5091 17.296 60.9357 17.568C61.3677 17.8347 61.6984 18.2187 61.9277 18.72C62.1571 19.2213 62.2717 19.816 62.2717 20.504V25H61.0397ZM55.5997 25V17.352H56.6717L56.8477 19.112V25H55.5997ZM74.8129 25V20.504C74.8129 19.7733 74.6369 19.2187 74.2849 18.84C73.9382 18.456 73.4635 18.264 72.8609 18.264C72.4022 18.264 72.0049 18.3893 71.6689 18.64C71.3329 18.8907 71.0742 19.2507 70.8929 19.72C70.7115 20.184 70.6209 20.7387 70.6209 21.384H70.1409C70.1409 20.4933 70.2582 19.7333 70.4929 19.104C70.7275 18.4747 71.0689 17.9947 71.5169 17.664C71.9702 17.328 72.5195 17.16 73.1649 17.16C73.7675 17.16 74.2822 17.296 74.7089 17.568C75.1409 17.8347 75.4715 18.2187 75.7009 18.72C75.9302 19.2213 76.0449 19.816 76.0449 20.504V25H74.8129ZM69.3729 25V17.352H70.4449L70.6209 19.112V25H69.3729ZM81.9571 25.192C81.2691 25.192 80.6558 25.04 80.1171 24.736C79.5838 24.432 79.1625 23.9813 78.8531 23.384C78.5438 22.7867 78.3891 22.0507 78.3891 21.176C78.3891 20.296 78.5438 19.56 78.8531 18.968C79.1625 18.3707 79.5838 17.92 80.1171 17.616C80.6558 17.312 81.2691 17.16 81.9571 17.16C82.6398 17.16 83.2478 17.312 83.7811 17.616C84.3198 17.92 84.7411 18.3707 85.0451 18.968C85.3545 19.56 85.5091 20.296 85.5091 21.176C85.5091 22.0507 85.3545 22.7867 85.0451 23.384C84.7411 23.9813 84.3198 24.432 83.7811 24.736C83.2478 25.04 82.6398 25.192 81.9571 25.192ZM81.9251 24.104C82.4211 24.104 82.8425 23.9867 83.1891 23.752C83.5358 23.512 83.7971 23.1733 83.9731 22.736C84.1545 22.2987 84.2451 21.7787 84.2451 21.176C84.2451 20.264 84.0558 19.5467 83.6771 19.024C83.2985 18.496 82.7358 18.232 81.9891 18.232C81.4878 18.232 81.0638 18.352 80.7171 18.592C80.3758 18.8267 80.1145 19.1653 79.9331 19.608C79.7571 20.0453 79.6691 20.568 79.6691 21.176C79.6691 22.0773 79.8585 22.792 80.2371 23.32C80.6211 23.8427 81.1838 24.104 81.9251 24.104ZM90.4511 25.192C90.0351 25.192 89.6618 25.112 89.3311 24.952C89.0005 24.792 88.7391 24.552 88.5471 24.232C88.3551 23.912 88.2591 23.512 88.2591 23.032V15.224H89.4911V23C89.4911 23.7893 89.8591 24.184 90.5951 24.184C90.8138 24.184 91.0245 24.16 91.2271 24.112C91.4351 24.064 91.6671 23.992 91.9231 23.896L92.0991 24.792C91.8271 24.9093 91.5551 25.0053 91.2831 25.08C91.0165 25.1547 90.7391 25.192 90.4511 25.192ZM87.0271 18.216V17.352H91.9071V18.216H87.0271ZM98.6476 25V16.168C98.6476 15.6613 98.7436 15.248 98.9356 14.928C99.133 14.6027 99.3943 14.3627 99.7196 14.208C100.05 14.0533 100.418 13.976 100.824 13.976C101.042 13.976 101.264 13.992 101.488 14.024C101.717 14.056 101.944 14.104 102.168 14.168L101.928 15.16C101.768 15.096 101.608 15.048 101.448 15.016C101.293 14.984 101.144 14.968 101 14.968C100.829 14.968 100.658 15 100.488 15.064C100.317 15.128 100.176 15.248 100.064 15.424C99.9516 15.6 99.8956 15.8533 99.8956 16.184V25H98.6476ZM97.3996 18.216V17.352H101.48V18.216H97.3996ZM104.416 15.544C104.16 15.544 103.957 15.472 103.808 15.328C103.658 15.1787 103.584 14.984 103.584 14.744C103.584 14.5093 103.658 14.3227 103.808 14.184C103.957 14.0453 104.16 13.976 104.416 13.976C104.672 13.976 104.874 14.0453 105.024 14.184C105.173 14.3227 105.248 14.5093 105.248 14.744C105.248 14.984 105.173 15.1787 105.024 15.328C104.874 15.472 104.672 15.544 104.416 15.544ZM103.792 25V17.336H105.04V25H103.792ZM114.082 25V20.504C114.082 19.7733 113.906 19.2187 113.554 18.84C113.207 18.456 112.732 18.264 112.13 18.264C111.671 18.264 111.274 18.3893 110.938 18.64C110.602 18.8907 110.343 19.2507 110.162 19.72C109.98 20.184 109.89 20.7387 109.89 21.384H109.41C109.41 20.4933 109.527 19.7333 109.762 19.104C109.996 18.4747 110.338 17.9947 110.786 17.664C111.239 17.328 111.788 17.16 112.434 17.16C113.036 17.16 113.551 17.296 113.978 17.568C114.41 17.8347 114.74 18.2187 114.97 18.72C115.199 19.2213 115.314 19.816 115.314 20.504V25H114.082ZM108.642 25V17.352H109.714L109.89 19.112V25H108.642ZM121.194 25.192C120.575 25.192 120.007 25.0267 119.49 24.696C118.973 24.36 118.559 23.8907 118.25 23.288C117.941 22.68 117.786 21.9653 117.786 21.144C117.786 20.328 117.938 19.6213 118.242 19.024C118.546 18.4267 118.949 17.968 119.45 17.648C119.957 17.3227 120.511 17.16 121.114 17.16C121.674 17.16 122.165 17.296 122.586 17.568C123.013 17.84 123.343 18.232 123.578 18.744C123.813 19.256 123.93 19.8747 123.93 20.6H123.45C123.45 20.0933 123.349 19.6667 123.146 19.32C122.949 18.9733 122.69 18.712 122.37 18.536C122.05 18.3547 121.706 18.264 121.338 18.264C120.922 18.264 120.541 18.3813 120.194 18.616C119.853 18.8453 119.578 19.176 119.37 19.608C119.167 20.0347 119.066 20.5467 119.066 21.144C119.066 21.752 119.167 22.2747 119.37 22.712C119.578 23.1493 119.853 23.4853 120.194 23.72C120.541 23.9547 120.922 24.072 121.338 24.072C121.685 24.072 122.018 23.9813 122.338 23.8C122.663 23.6187 122.93 23.3547 123.138 23.008C123.346 22.656 123.45 22.232 123.45 21.736H123.93C123.93 22.4773 123.807 23.1067 123.562 23.624C123.322 24.136 122.994 24.5253 122.578 24.792C122.167 25.0587 121.706 25.192 121.194 25.192ZM123.658 25L123.45 23.208V14.088H124.698V25H123.658ZM142.811 25V20.504C142.811 19.7733 142.635 19.2187 142.283 18.84C141.936 18.456 141.467 18.264 140.875 18.264C140.182 18.264 139.651 18.5333 139.283 19.072C138.915 19.6053 138.731 20.344 138.731 21.288H138.155C138.155 20.6 138.222 19.9973 138.355 19.48C138.494 18.9627 138.694 18.5333 138.955 18.192C139.216 17.8453 139.534 17.5867 139.907 17.416C140.28 17.2453 140.704 17.16 141.179 17.16C141.782 17.16 142.296 17.296 142.723 17.568C143.155 17.8347 143.486 18.2187 143.715 18.72C143.944 19.2213 144.059 19.816 144.059 20.504V25H142.811ZM132.059 25V17.352H133.131L133.275 18.888C133.515 18.3333 133.851 17.9067 134.283 17.608C134.72 17.3093 135.243 17.16 135.851 17.16C136.454 17.16 136.968 17.296 137.395 17.568C137.827 17.8347 138.158 18.2187 138.387 18.72C138.616 19.2213 138.731 19.816 138.731 20.504V25H137.499V20.504C137.499 19.7733 137.323 19.2187 136.971 18.84C136.624 18.456 136.15 18.264 135.547 18.264C135.088 18.264 134.691 18.3893 134.355 18.64C134.019 18.8907 133.76 19.2507 133.579 19.72C133.398 20.184 133.307 20.7387 133.307 21.384V25H132.059ZM152.388 17.336H153.636V25H152.388V17.336ZM146.964 17.336H148.212V22.104C148.212 22.744 148.367 23.2293 148.676 23.56C148.991 23.8907 149.439 24.056 150.02 24.056C150.5 24.056 150.916 23.928 151.268 23.672C151.625 23.416 151.9 23.064 152.092 22.616C152.289 22.1627 152.388 21.6453 152.388 21.064H152.852C152.852 21.9227 152.727 22.656 152.476 23.264C152.231 23.872 151.881 24.3387 151.428 24.664C150.98 24.984 150.452 25.144 149.844 25.144C149.268 25.144 148.764 25.0373 148.332 24.824C147.9 24.6107 147.564 24.288 147.324 23.856C147.084 23.4187 146.964 22.8667 146.964 22.2V17.336ZM159.723 25.192C159.11 25.192 158.537 25.0267 158.003 24.696C157.475 24.3653 157.049 23.8987 156.723 23.296C156.398 22.6933 156.235 21.9813 156.235 21.16C156.235 20.3173 156.398 19.5973 156.723 19C157.049 18.4027 157.475 17.9467 158.003 17.632C158.537 17.3173 159.11 17.16 159.723 17.16C160.155 17.16 160.542 17.2267 160.883 17.36C161.23 17.488 161.531 17.6667 161.787 17.896C162.043 18.1253 162.254 18.3867 162.419 18.68C162.59 18.968 162.715 19.272 162.795 19.592L161.515 19.704C161.382 19.2613 161.158 18.912 160.843 18.656C160.534 18.3947 160.155 18.264 159.707 18.264C159.329 18.264 158.971 18.3733 158.635 18.592C158.305 18.8053 158.035 19.128 157.827 19.56C157.619 19.9867 157.515 20.52 157.515 21.16C157.515 21.752 157.609 22.2667 157.795 22.704C157.987 23.136 158.249 23.472 158.579 23.712C158.91 23.952 159.286 24.072 159.707 24.072C160.299 24.072 160.747 23.928 161.051 23.64C161.361 23.3467 161.515 22.9413 161.515 22.424H162.795C162.795 22.9573 162.67 23.432 162.419 23.848C162.169 24.264 161.811 24.592 161.347 24.832C160.889 25.072 160.347 25.192 159.723 25.192ZM170.885 25V20.504C170.885 19.7733 170.709 19.2187 170.357 18.84C170.011 18.456 169.536 18.264 168.933 18.264C168.475 18.264 168.077 18.3893 167.741 18.64C167.405 18.8907 167.147 19.2507 166.965 19.72C166.784 20.184 166.693 20.7387 166.693 21.384H166.213C166.213 20.4933 166.331 19.7333 166.565 19.104C166.8 18.4747 167.141 17.9947 167.589 17.664C168.043 17.328 168.592 17.16 169.237 17.16C169.84 17.16 170.355 17.296 170.781 17.568C171.213 17.8347 171.544 18.2187 171.773 18.72C172.003 19.2213 172.117 19.816 172.117 20.504V25H170.885ZM165.445 25V14.088H166.693V25H165.445ZM183.954 25L183.794 23.32V20.04C183.794 19.352 183.648 18.8587 183.354 18.56C183.061 18.256 182.621 18.104 182.034 18.104C181.704 18.104 181.402 18.152 181.13 18.248C180.864 18.344 180.65 18.4933 180.49 18.696C180.336 18.8933 180.258 19.1493 180.258 19.464H178.866C178.866 18.9093 179.002 18.464 179.274 18.128C179.546 17.7867 179.92 17.5413 180.394 17.392C180.874 17.2373 181.421 17.16 182.034 17.16C182.621 17.16 183.141 17.2587 183.594 17.456C184.048 17.6533 184.402 17.968 184.658 18.4C184.914 18.8267 185.042 19.384 185.042 20.072V25H183.954ZM181.346 25.192C180.717 25.192 180.197 25.08 179.786 24.856C179.376 24.632 179.069 24.3413 178.866 23.984C178.664 23.6267 178.562 23.2507 178.562 22.856C178.562 22.3387 178.69 21.9173 178.946 21.592C179.208 21.2667 179.562 21.0293 180.01 20.88C180.458 20.7253 180.962 20.648 181.522 20.648C181.922 20.648 182.322 20.688 182.722 20.768C183.128 20.848 183.522 20.9573 183.906 21.096V21.88C183.586 21.752 183.224 21.6507 182.818 21.576C182.418 21.5013 182.05 21.464 181.714 21.464C181.202 21.464 180.77 21.5707 180.418 21.784C180.066 21.992 179.89 22.3493 179.89 22.856C179.89 23.2293 180.024 23.5493 180.29 23.816C180.562 24.0827 180.994 24.216 181.586 24.216C182.002 24.216 182.376 24.12 182.706 23.928C183.042 23.7307 183.306 23.4853 183.498 23.192C183.696 22.8987 183.794 22.6053 183.794 22.312H184.098C184.098 22.824 183.986 23.2987 183.762 23.736C183.544 24.1733 183.229 24.5253 182.818 24.792C182.408 25.0587 181.917 25.192 181.346 25.192ZM191.695 25.192C191.183 25.192 190.719 25.0587 190.303 24.792C189.892 24.5253 189.564 24.136 189.319 23.624C189.079 23.1067 188.959 22.4773 188.959 21.736H189.439C189.439 22.232 189.54 22.656 189.743 23.008C189.951 23.3547 190.218 23.6187 190.543 23.8C190.868 23.9813 191.21 24.072 191.567 24.072C191.978 24.072 192.354 23.9547 192.695 23.72C193.036 23.4853 193.308 23.1493 193.511 22.712C193.719 22.2747 193.823 21.752 193.823 21.144C193.823 20.5467 193.722 20.0347 193.519 19.608C193.316 19.176 193.042 18.8453 192.695 18.616C192.354 18.3813 191.972 18.264 191.551 18.264C191.188 18.264 190.844 18.3547 190.519 18.536C190.199 18.712 189.938 18.9733 189.735 19.32C189.538 19.6667 189.439 20.0933 189.439 20.6H188.959C188.959 19.8747 189.076 19.256 189.311 18.744C189.551 18.232 189.882 17.84 190.303 17.568C190.724 17.296 191.215 17.16 191.775 17.16C192.378 17.16 192.93 17.3227 193.431 17.648C193.938 17.968 194.343 18.4267 194.647 19.024C194.951 19.6213 195.103 20.328 195.103 21.144C195.103 21.9653 194.948 22.68 194.639 23.288C194.33 23.8907 193.916 24.36 193.399 24.696C192.882 25.0267 192.314 25.192 191.695 25.192ZM188.191 25V14.088H189.439V23.208L189.071 25H188.191ZM200.603 25.192C199.915 25.192 199.302 25.04 198.763 24.736C198.23 24.432 197.809 23.9813 197.499 23.384C197.19 22.7867 197.035 22.0507 197.035 21.176C197.035 20.296 197.19 19.56 197.499 18.968C197.809 18.3707 198.23 17.92 198.763 17.616C199.302 17.312 199.915 17.16 200.603 17.16C201.286 17.16 201.894 17.312 202.427 17.616C202.966 17.92 203.387 18.3707 203.691 18.968C204.001 19.56 204.155 20.296 204.155 21.176C204.155 22.0507 204.001 22.7867 203.691 23.384C203.387 23.9813 202.966 24.432 202.427 24.736C201.894 25.04 201.286 25.192 200.603 25.192ZM200.571 24.104C201.067 24.104 201.489 23.9867 201.835 23.752C202.182 23.512 202.443 23.1733 202.619 22.736C202.801 22.2987 202.891 21.7787 202.891 21.176C202.891 20.264 202.702 19.5467 202.323 19.024C201.945 18.496 201.382 18.232 200.635 18.232C200.134 18.232 199.71 18.352 199.363 18.592C199.022 18.8267 198.761 19.1653 198.579 19.608C198.403 20.0453 198.315 20.568 198.315 21.176C198.315 22.0773 198.505 22.792 198.883 23.32C199.267 23.8427 199.83 24.104 200.571 24.104ZM211.945 17.336H213.193V25H211.945V17.336ZM206.521 17.336H207.769V22.104C207.769 22.744 207.924 23.2293 208.233 23.56C208.548 23.8907 208.996 24.056 209.577 24.056C210.057 24.056 210.473 23.928 210.825 23.672C211.183 23.416 211.457 23.064 211.649 22.616C211.847 22.1627 211.945 21.6453 211.945 21.064H212.409C212.409 21.9227 212.284 22.656 212.033 23.264C211.788 23.872 211.439 24.3387 210.985 24.664C210.537 24.984 210.009 25.144 209.401 25.144C208.825 25.144 208.321 25.0373 207.889 24.824C207.457 24.6107 207.121 24.288 206.881 23.856C206.641 23.4187 206.521 22.8667 206.521 22.2V17.336ZM218.945 25.192C218.529 25.192 218.156 25.112 217.825 24.952C217.494 24.792 217.233 24.552 217.041 24.232C216.849 23.912 216.753 23.512 216.753 23.032V15.224H217.985V23C217.985 23.7893 218.353 24.184 219.089 24.184C219.308 24.184 219.518 24.16 219.721 24.112C219.929 24.064 220.161 23.992 220.417 23.896L220.593 24.792C220.321 24.9093 220.049 25.0053 219.777 25.08C219.51 25.1547 219.233 25.192 218.945 25.192ZM215.521 18.216V17.352H220.401V18.216H215.521ZM29.488 45V34.616H33.68C34.48 34.616 35.144 34.7413 35.672 34.992C36.2 35.2373 36.5947 35.568 36.856 35.984C37.1173 36.4 37.248 36.8613 37.248 37.368C37.248 37.9547 37.0827 38.456 36.752 38.872C36.4267 39.288 35.968 39.5813 35.376 39.752C35.7653 39.832 36.1147 39.9787 36.424 40.192C36.7333 40.4053 36.976 40.6747 37.152 41C37.3333 41.3253 37.424 41.6987 37.424 42.12C37.424 42.4507 37.3653 42.784 37.248 43.12C37.136 43.456 36.9387 43.768 36.656 44.056C36.3787 44.3387 35.9973 44.568 35.512 44.744C35.032 44.9147 34.4267 45 33.696 45H29.488ZM31.376 43.352H33.648C34.2507 43.352 34.6907 43.232 34.968 42.992C35.2507 42.7467 35.392 42.4187 35.392 42.008C35.392 41.5973 35.248 41.2693 34.96 41.024C34.672 40.7733 34.2347 40.648 33.648 40.648H31.376V43.352ZM31.376 36.248V39H33.6C34.16 39 34.584 38.8773 34.872 38.632C35.1653 38.3813 35.312 38.04 35.312 37.608C35.312 37.1973 35.168 36.8693 34.88 36.624C34.5973 36.3733 34.176 36.248 33.616 36.248H31.376ZM41.911 34.616V43.352H46.183V45H40.023V34.616H41.911ZM47.9292 34.616H49.8172V41.08C49.8172 41.9333 50.0332 42.5493 50.4652 42.928C50.9026 43.3067 51.4599 43.496 52.1372 43.496C52.8199 43.496 53.3773 43.3067 53.8092 42.928C54.2413 42.5493 54.4573 41.9333 54.4573 41.08V34.616H56.3453V41.08C56.3453 41.9547 56.1773 42.7013 55.8413 43.32C55.5052 43.9387 55.0226 44.4107 54.3932 44.736C53.7693 45.0613 53.0173 45.224 52.1372 45.224C51.2572 45.224 50.5026 45.0613 49.8732 44.736C49.2492 44.4107 48.7692 43.9387 48.4332 43.32C48.0972 42.7013 47.9292 41.9547 47.9292 41.08V34.616ZM59.2801 45V34.616H65.9521V36.248H61.1681V38.984H65.6641V40.616H61.1681V43.352H65.9521V45H59.2801ZM68.8467 45V34.616H73.0387C73.8387 34.616 74.5027 34.7413 75.0307 34.992C75.5587 35.2373 75.9534 35.568 76.2147 35.984C76.4761 36.4 76.6067 36.8613 76.6067 37.368C76.6067 37.9547 76.4414 38.456 76.1108 38.872C75.7854 39.288 75.3267 39.5813 74.7347 39.752C75.1241 39.832 75.4734 39.9787 75.7828 40.192C76.0921 40.4053 76.3347 40.6747 76.5107 41C76.6921 41.3253 76.7828 41.6987 76.7828 42.12C76.7828 42.4507 76.7241 42.784 76.6067 43.12C76.4948 43.456 76.2974 43.768 76.0147 44.056C75.7374 44.3387 75.3561 44.568 74.8707 44.744C74.3907 44.9147 73.7854 45 73.0547 45H68.8467ZM70.7347 43.352H73.0067C73.6094 43.352 74.0494 43.232 74.3267 42.992C74.6094 42.7467 74.7507 42.4187 74.7507 42.008C74.7507 41.5973 74.6067 41.2693 74.3187 41.024C74.0307 40.7733 73.5934 40.648 73.0067 40.648H70.7347V43.352ZM70.7347 36.248V39H72.9587C73.5187 39 73.9427 38.8773 74.2307 38.632C74.5241 38.3813 74.6707 38.04 74.6707 37.608C74.6707 37.1973 74.5267 36.8693 74.2387 36.624C73.9561 36.3733 73.5347 36.248 72.9747 36.248H70.7347ZM79.3657 45V34.616H86.0377V36.248H81.2537V38.984H85.7497V40.616H81.2537V43.352H86.0377V45H79.3657ZM88.9324 45V34.616H92.7724C94.015 34.616 94.967 34.9067 95.6284 35.488C96.295 36.0693 96.6284 36.84 96.6284 37.8C96.6284 38.744 96.295 39.5067 95.6284 40.088C94.967 40.664 94.015 40.952 92.7724 40.952H90.8204V45H88.9324ZM94.5484 45L91.7964 40.136H93.8124L97.0124 45H94.5484ZM90.8204 39.688H92.5804C93.2737 39.688 93.799 39.5307 94.1564 39.216C94.5137 38.896 94.6924 38.4827 94.6924 37.976C94.6924 37.4587 94.5297 37.0427 94.2044 36.728C93.879 36.408 93.4017 36.248 92.7724 36.248H90.8204V39.688ZM99.3893 45V34.616H103.229C104.472 34.616 105.424 34.9067 106.085 35.488C106.752 36.0693 107.085 36.84 107.085 37.8C107.085 38.744 106.752 39.5067 106.085 40.088C105.424 40.664 104.472 40.952 103.229 40.952H101.277V45H99.3893ZM105.005 45L102.253 40.136H104.269L107.469 45H105.005ZM101.277 39.688H103.037C103.731 39.688 104.256 39.5307 104.613 39.216C104.971 38.896 105.149 38.4827 105.149 37.976C105.149 37.4587 104.987 37.0427 104.661 36.728C104.336 36.408 103.859 36.248 103.229 36.248H101.277V39.688ZM108.47 34.616H110.71L113.19 39.08H112.822L115.398 34.616H117.622L113.926 40.712V45H112.038V40.712L108.47 34.616ZM123.556 45V34.616H127.22C128.388 34.616 129.297 34.904 129.948 35.48C130.604 36.056 130.932 36.872 130.932 37.928C130.932 38.9733 130.604 39.784 129.948 40.36C129.297 40.936 128.388 41.224 127.22 41.224H125.46V45H123.556ZM125.46 39.576H127.22C127.806 39.576 128.249 39.4213 128.548 39.112C128.846 38.8027 128.996 38.408 128.996 37.928C128.996 37.4373 128.846 37.0347 128.548 36.72C128.249 36.4053 127.806 36.248 127.22 36.248H125.46V39.576ZM131.253 45L134.789 34.616H137.157L140.549 45H138.565L137.845 42.76H133.989L133.253 45H131.253ZM134.469 41.336H137.397L135.941 36.872L134.469 41.336ZM142.532 34.616H144.596L149.316 42.024H149.172V34.616H151.06V45H149.14L144.116 37.144H144.42V45H142.532V34.616ZM157.969 45.224C157.057 45.224 156.262 45.008 155.585 44.576C154.913 44.1387 154.39 43.5147 154.017 42.704C153.644 41.8933 153.457 40.92 153.457 39.784C153.457 38.6107 153.649 37.6267 154.033 36.832C154.422 36.032 154.956 35.4293 155.633 35.024C156.316 34.6133 157.094 34.408 157.969 34.408C159.18 34.408 160.124 34.7013 160.801 35.288C161.484 35.8747 161.921 36.6373 162.113 37.576L160.097 37.944C159.932 37.4 159.668 36.96 159.305 36.624C158.942 36.288 158.497 36.12 157.969 36.12C157.505 36.12 157.086 36.256 156.713 36.528C156.34 36.7947 156.041 37.2 155.817 37.744C155.598 38.288 155.489 38.968 155.489 39.784C155.489 40.552 155.585 41.2133 155.777 41.768C155.974 42.3227 156.257 42.7493 156.625 43.048C156.993 43.3467 157.441 43.496 157.969 43.496C158.646 43.496 159.169 43.3173 159.537 42.96C159.91 42.5973 160.097 42.136 160.097 41.576H162.113C162.113 42.3493 161.945 43.008 161.609 43.552C161.278 44.0907 160.804 44.504 160.185 44.792C159.566 45.08 158.828 45.224 157.969 45.224ZM163.358 45L166.894 34.616H169.262L172.654 45H170.67L169.95 42.76H166.094L165.358 45H163.358ZM166.574 41.336H169.502L168.046 36.872L166.574 41.336ZM180.669 34.616H183.261L176.413 41.624V39.048L180.669 34.616ZM178.365 38.904L183.549 45H181.117L177.053 40.136L178.365 38.904ZM174.669 34.616H176.573V45H174.669V34.616ZM185.282 45V34.616H191.954V36.248H187.17V38.984H191.666V40.616H187.17V43.352H191.954V45H185.282ZM198.465 45.224C197.745 45.224 197.081 45.0987 196.473 44.848C195.87 44.5973 195.379 44.216 195.001 43.704C194.627 43.192 194.427 42.5413 194.401 41.752H196.257C196.257 42.152 196.355 42.48 196.553 42.736C196.75 42.992 197.014 43.184 197.345 43.312C197.681 43.4347 198.049 43.496 198.449 43.496C198.833 43.496 199.174 43.4453 199.473 43.344C199.777 43.2427 200.014 43.0987 200.185 42.912C200.361 42.72 200.449 42.4933 200.449 42.232C200.449 41.8853 200.342 41.6133 200.129 41.416C199.921 41.2187 199.585 41.0373 199.121 40.872L197.073 40.056C196.273 39.7413 195.659 39.376 195.233 38.96C194.806 38.544 194.593 37.9707 194.593 37.24C194.593 36.3973 194.926 35.7147 195.593 35.192C196.259 34.6693 197.19 34.408 198.385 34.408C199.547 34.408 200.446 34.68 201.081 35.224C201.715 35.7627 202.075 36.5147 202.161 37.48H200.305C200.235 37.0693 200.049 36.7413 199.745 36.496C199.441 36.2453 198.987 36.12 198.385 36.12C197.851 36.12 197.43 36.232 197.121 36.456C196.811 36.6747 196.657 36.952 196.657 37.288C196.657 37.576 196.753 37.8053 196.945 37.976C197.142 38.1413 197.446 38.3013 197.857 38.456L200.129 39.336C200.897 39.6347 201.486 40.0107 201.897 40.464C202.307 40.9173 202.513 41.4853 202.513 42.168C202.513 42.792 202.355 43.3333 202.041 43.792C201.726 44.2453 201.267 44.5973 200.665 44.848C200.062 45.0987 199.329 45.224 198.465 45.224ZM205.148 46.744L204.204 46.28C204.508 46.1253 204.764 45.9547 204.972 45.768C205.185 45.5813 205.324 45.352 205.388 45.08C205.158 45.0533 204.961 44.9707 204.796 44.832C204.636 44.6933 204.556 44.5093 204.556 44.28C204.556 44.056 204.638 43.864 204.804 43.704C204.974 43.544 205.19 43.464 205.452 43.464C205.782 43.464 206.049 43.584 206.252 43.824C206.454 44.064 206.556 44.3493 206.556 44.68C206.556 45.0693 206.436 45.4507 206.196 45.824C205.961 46.2027 205.612 46.5093 205.148 46.744ZM33.12 65.192C32.608 65.192 32.144 65.0587 31.728 64.792C31.3173 64.5253 30.9893 64.136 30.744 63.624C30.504 63.1067 30.384 62.4773 30.384 61.736H30.864C30.864 62.232 30.9653 62.656 31.168 63.008C31.376 63.3547 31.6427 63.6187 31.968 63.8C32.2933 63.9813 32.6347 64.072 32.992 64.072C33.4027 64.072 33.7787 63.9547 34.12 63.72C34.4613 63.4853 34.7333 63.1493 34.936 62.712C35.144 62.2747 35.248 61.752 35.248 61.144C35.248 60.5467 35.1467 60.0347 34.944 59.608C34.7413 59.176 34.4667 58.8453 34.12 58.616C33.7787 58.3813 33.3973 58.264 32.976 58.264C32.6133 58.264 32.2693 58.3547 31.944 58.536C31.624 58.712 31.3627 58.9733 31.16 59.32C30.9627 59.6667 30.864 60.0933 30.864 60.6H30.384C30.384 59.8747 30.5013 59.256 30.736 58.744C30.976 58.232 31.3067 57.84 31.728 57.568C32.1493 57.296 32.64 57.16 33.2 57.16C33.8027 57.16 34.3547 57.3227 34.856 57.648C35.3627 57.968 35.768 58.4267 36.072 59.024C36.376 59.6213 36.528 60.328 36.528 61.144C36.528 61.9653 36.3733 62.68 36.064 63.288C35.7547 63.8907 35.3413 64.36 34.824 64.696C34.3067 65.0267 33.7387 65.192 33.12 65.192ZM29.616 65V54.088H30.864V63.208L30.496 65H29.616ZM44.4604 57.336H45.7084V65H44.4604V57.336ZM39.0364 57.336H40.2844V62.104C40.2844 62.744 40.439 63.2293 40.7484 63.56C41.063 63.8907 41.511 64.056 42.0924 64.056C42.5724 64.056 42.9884 63.928 43.3404 63.672C43.6977 63.416 43.9724 63.064 44.1644 62.616C44.3617 62.1627 44.4604 61.6453 44.4604 61.064H44.9244C44.9244 61.9227 44.799 62.656 44.5484 63.264C44.303 63.872 43.9537 64.3387 43.5004 64.664C43.0524 64.984 42.5244 65.144 41.9164 65.144C41.3404 65.144 40.8364 65.0373 40.4044 64.824C39.9724 64.6107 39.6364 64.288 39.3964 63.856C39.1564 63.4187 39.0364 62.8667 39.0364 62.2V57.336ZM51.4599 65.192C51.0439 65.192 50.6705 65.112 50.3399 64.952C50.0092 64.792 49.7479 64.552 49.5559 64.232C49.3639 63.912 49.2679 63.512 49.2679 63.032V55.224H50.4999V63C50.4999 63.7893 50.8679 64.184 51.6039 64.184C51.8225 64.184 52.0332 64.16 52.2359 64.112C52.4439 64.064 52.6759 63.992 52.9319 63.896L53.1079 64.792C52.8359 64.9093 52.5639 65.0053 52.2919 65.08C52.0252 65.1547 51.7479 65.192 51.4599 65.192ZM48.0359 58.216V57.352H52.9159V58.216H48.0359ZM59.2404 65V54.952H60.4884V65H59.2404ZM70.5456 68.936C69.7616 68.936 69.0816 68.824 68.5056 68.6C67.9296 68.3813 67.4816 68.0853 67.1616 67.712C66.847 67.344 66.6896 66.936 66.6896 66.488C66.6896 65.896 66.9056 65.4427 67.3376 65.128C67.775 64.8187 68.3376 64.664 69.0256 64.664L69.7136 65.096C69.1376 65.096 68.6923 65.216 68.3776 65.456C68.063 65.696 67.9056 66.024 67.9056 66.44C67.9056 66.856 68.1296 67.208 68.5776 67.496C69.0256 67.784 69.6816 67.928 70.5456 67.928C71.1856 67.928 71.7456 67.8347 72.2256 67.648C72.711 67.4667 73.087 67.2267 73.3536 66.928C73.6256 66.6347 73.7616 66.3173 73.7616 65.976C73.7616 65.736 73.6736 65.528 73.4976 65.352C73.3216 65.1813 73.0523 65.096 72.6896 65.096H69.7136C69.1963 65.096 68.7483 65.0187 68.3696 64.864C67.9963 64.704 67.7083 64.496 67.5056 64.24C67.303 63.984 67.2016 63.704 67.2016 63.4C67.2016 63.08 67.2923 62.808 67.4736 62.584C67.655 62.36 67.8896 62.1893 68.1776 62.072C68.471 61.9547 68.7856 61.896 69.1216 61.896L69.3616 62.36C69.2016 62.36 69.039 62.3973 68.8736 62.472C68.7136 62.5413 68.5776 62.648 68.4656 62.792C68.359 62.9307 68.3056 63.1067 68.3056 63.32C68.3056 63.5653 68.407 63.7707 68.6096 63.936C68.8123 64.1013 69.1803 64.184 69.7136 64.184H72.6896C73.4096 64.184 73.975 64.336 74.3856 64.64C74.8016 64.944 75.0096 65.368 75.0096 65.912C75.0096 66.4133 74.831 66.8933 74.4736 67.352C74.1163 67.816 73.6043 68.1947 72.9376 68.488C72.271 68.7867 71.4736 68.936 70.5456 68.936ZM70.7696 62.76C70.183 62.76 69.6523 62.6427 69.1776 62.408C68.7083 62.1733 68.335 61.8453 68.0576 61.424C67.7856 61.0027 67.6496 60.5147 67.6496 59.96C67.6496 59.4 67.7856 58.9093 68.0576 58.488C68.335 58.0667 68.7083 57.7413 69.1776 57.512C69.6523 57.2773 70.183 57.16 70.7696 57.16C71.3403 57.16 71.8576 57.2773 72.3216 57.512C72.791 57.7413 73.1643 58.0667 73.4416 58.488C73.719 58.9093 73.8576 59.4 73.8576 59.96C73.8576 60.5147 73.719 61.0027 73.4416 61.424C73.1643 61.8453 72.791 62.1733 72.3216 62.408C71.8576 62.6427 71.3403 62.76 70.7696 62.76ZM70.7696 61.864C71.3563 61.864 71.8123 61.6827 72.1376 61.32C72.463 60.9573 72.6256 60.504 72.6256 59.96C72.6256 59.4 72.463 58.9467 72.1376 58.6C71.8123 58.248 71.3563 58.072 70.7696 58.072C70.1883 58.072 69.7296 58.248 69.3936 58.6C69.063 58.9467 68.8976 59.4 68.8976 59.96C68.8976 60.504 69.063 60.9573 69.3936 61.32C69.7296 61.6827 70.1883 61.864 70.7696 61.864ZM73.2816 58.376L72.6896 58.136C72.6896 57.688 72.7776 57.296 72.9536 56.96C73.1296 56.6187 73.3803 56.3547 73.7056 56.168C74.031 55.976 74.4176 55.88 74.8656 55.88L74.7696 57.112C74.2896 57.112 73.9216 57.216 73.6656 57.424C73.4096 57.6267 73.2816 57.944 73.2816 58.376ZM82.2329 57.336H83.4809V65H82.2329V57.336ZM76.8089 57.336H78.0569V62.104C78.0569 62.744 78.2115 63.2293 78.5209 63.56C78.8355 63.8907 79.2835 64.056 79.8649 64.056C80.3449 64.056 80.7609 63.928 81.1129 63.672C81.4702 63.416 81.7449 63.064 81.9369 62.616C82.1342 62.1627 82.2329 61.6453 82.2329 61.064H82.6969C82.6969 61.9227 82.5715 62.656 82.3209 63.264C82.0755 63.872 81.7262 64.3387 81.2729 64.664C80.8249 64.984 80.2969 65.144 79.6889 65.144C79.1129 65.144 78.6089 65.0373 78.1769 64.824C77.7449 64.6107 77.4089 64.288 77.1689 63.856C76.9289 63.4187 76.8089 62.8667 76.8089 62.2V57.336ZM89.5364 65.192C88.875 65.192 88.283 65.024 87.7604 64.688C87.243 64.3467 86.8324 63.8747 86.5284 63.272C86.2297 62.6693 86.0804 61.976 86.0804 61.192C86.0804 60.3547 86.2297 59.6347 86.5284 59.032C86.827 58.4293 87.235 57.968 87.7524 57.648C88.275 57.3227 88.8697 57.16 89.5364 57.16C90.1177 57.16 90.6137 57.2773 91.0244 57.512C91.435 57.7467 91.7657 58.064 92.0164 58.464C92.267 58.864 92.4404 59.3173 92.5364 59.824C92.6377 60.3253 92.667 60.8453 92.6244 61.384H87.0884V60.616H91.8004L91.4324 60.856C91.4484 60.5413 91.4297 60.2267 91.3764 59.912C91.3284 59.5973 91.235 59.3093 91.0964 59.048C90.9577 58.7813 90.763 58.568 90.5124 58.408C90.2617 58.248 89.9417 58.168 89.5524 58.168C89.0617 58.168 88.651 58.2933 88.3204 58.544C87.9897 58.7947 87.7417 59.1253 87.5764 59.536C87.411 59.9413 87.3284 60.3813 87.3284 60.856V61.368C87.3284 61.9013 87.4084 62.3787 87.5684 62.8C87.7337 63.2213 87.979 63.5547 88.3044 63.8C88.6297 64.0453 89.0404 64.168 89.5364 64.168C90.0324 64.168 90.4404 64.048 90.7604 63.808C91.0804 63.568 91.275 63.2133 91.3444 62.744H92.6404C92.5604 63.2507 92.379 63.688 92.0964 64.056C91.8137 64.4187 91.4537 64.6987 91.0164 64.896C90.579 65.0933 90.0857 65.192 89.5364 65.192ZM98.0111 65.192C97.2698 65.192 96.6511 65.088 96.1551 64.88C95.6591 64.6667 95.2831 64.376 95.0271 64.008C94.7711 63.6347 94.6351 63.208 94.6191 62.728H95.8191C95.8458 63.2133 96.0405 63.5787 96.4031 63.824C96.7711 64.064 97.2698 64.184 97.8991 64.184C98.2298 64.184 98.5338 64.1307 98.8111 64.024C99.0885 63.9173 99.3098 63.7707 99.4751 63.584C99.6405 63.3973 99.7231 63.1867 99.7231 62.952C99.7231 62.6533 99.6138 62.4187 99.3951 62.248C99.1765 62.0773 98.8271 61.928 98.3471 61.8L96.8591 61.32C96.2138 61.1173 95.7178 60.84 95.3711 60.488C95.0298 60.1307 94.8591 59.704 94.8591 59.208C94.8591 58.5893 95.1311 58.0933 95.6751 57.72C96.2191 57.3467 96.9338 57.16 97.8191 57.16C98.7578 57.16 99.4858 57.352 100.003 57.736C100.52 58.12 100.79 58.6 100.811 59.176H99.5791C99.5311 58.84 99.3605 58.5867 99.0671 58.416C98.7738 58.24 98.3578 58.152 97.8191 58.152C97.3018 58.152 96.8965 58.2693 96.6031 58.504C96.3151 58.7333 96.1711 58.9893 96.1711 59.272C96.1711 59.8 96.6245 60.1893 97.5311 60.44L99.0511 60.952C99.7071 61.1493 100.208 61.408 100.555 61.728C100.907 62.048 101.083 62.456 101.083 62.952C101.083 63.336 100.958 63.6987 100.707 64.04C100.456 64.3813 100.102 64.6587 99.6431 64.872C99.1845 65.0853 98.6405 65.192 98.0111 65.192ZM106.577 65.192C105.836 65.192 105.217 65.088 104.721 64.88C104.225 64.6667 103.849 64.376 103.593 64.008C103.337 63.6347 103.201 63.208 103.185 62.728H104.385C104.412 63.2133 104.607 63.5787 104.969 63.824C105.337 64.064 105.836 64.184 106.465 64.184C106.796 64.184 107.1 64.1307 107.377 64.024C107.655 63.9173 107.876 63.7707 108.041 63.584C108.207 63.3973 108.289 63.1867 108.289 62.952C108.289 62.6533 108.18 62.4187 107.961 62.248C107.743 62.0773 107.393 61.928 106.913 61.8L105.425 61.32C104.78 61.1173 104.284 60.84 103.937 60.488C103.596 60.1307 103.425 59.704 103.425 59.208C103.425 58.5893 103.697 58.0933 104.241 57.72C104.785 57.3467 105.5 57.16 106.385 57.16C107.324 57.16 108.052 57.352 108.569 57.736C109.087 58.12 109.356 58.6 109.377 59.176H108.145C108.097 58.84 107.927 58.5867 107.633 58.416C107.34 58.24 106.924 58.152 106.385 58.152C105.868 58.152 105.463 58.2693 105.169 58.504C104.881 58.7333 104.737 58.9893 104.737 59.272C104.737 59.8 105.191 60.1893 106.097 60.44L107.617 60.952C108.273 61.1493 108.775 61.408 109.121 61.728C109.473 62.048 109.649 62.456 109.649 62.952C109.649 63.336 109.524 63.6987 109.273 64.04C109.023 64.3813 108.668 64.6587 108.209 64.872C107.751 65.0853 107.207 65.192 106.577 65.192ZM115.084 57.352H116.476L118.972 63.912H118.684L120.62 57.352H121.9L119.02 66.536C118.78 67.304 118.46 67.896 118.06 68.312C117.66 68.728 117.148 68.936 116.524 68.936C116.188 68.936 115.868 68.888 115.564 68.792C115.266 68.696 114.956 68.5573 114.636 68.376V67.224C114.919 67.448 115.191 67.608 115.452 67.704C115.719 67.8 115.996 67.848 116.284 67.848C116.604 67.848 116.871 67.7467 117.084 67.544C117.303 67.3413 117.484 67.08 117.628 66.76C117.772 66.4453 117.895 66.1147 117.996 65.768L118.22 65L115.084 57.352ZM126.73 65.192C126.042 65.192 125.428 65.04 124.89 64.736C124.356 64.432 123.935 63.9813 123.626 63.384C123.316 62.7867 123.162 62.0507 123.162 61.176C123.162 60.296 123.316 59.56 123.626 58.968C123.935 58.3707 124.356 57.92 124.89 57.616C125.428 57.312 126.042 57.16 126.73 57.16C127.412 57.16 128.02 57.312 128.554 57.616C129.092 57.92 129.514 58.3707 129.818 58.968C130.127 59.56 130.282 60.296 130.282 61.176C130.282 62.0507 130.127 62.7867 129.818 63.384C129.514 63.9813 129.092 64.432 128.554 64.736C128.02 65.04 127.412 65.192 126.73 65.192ZM126.698 64.104C127.194 64.104 127.615 63.9867 127.962 63.752C128.308 63.512 128.57 63.1733 128.746 62.736C128.927 62.2987 129.018 61.7787 129.018 61.176C129.018 60.264 128.828 59.5467 128.45 59.024C128.071 58.496 127.508 58.232 126.762 58.232C126.26 58.232 125.836 58.352 125.49 58.592C125.148 58.8267 124.887 59.1653 124.706 59.608C124.53 60.0453 124.442 60.568 124.442 61.176C124.442 62.0773 124.631 62.792 125.01 63.32C125.394 63.8427 125.956 64.104 126.698 64.104ZM138.072 57.336H139.32V65H138.072V57.336ZM132.648 57.336H133.896V62.104C133.896 62.744 134.05 63.2293 134.36 63.56C134.674 63.8907 135.122 64.056 135.704 64.056C136.184 64.056 136.6 63.928 136.952 63.672C137.309 63.416 137.584 63.064 137.776 62.616C137.973 62.1627 138.072 61.6453 138.072 61.064H138.536C138.536 61.9227 138.41 62.656 138.16 63.264C137.914 63.872 137.565 64.3387 137.112 64.664C136.664 64.984 136.136 65.144 135.528 65.144C134.952 65.144 134.448 65.0373 134.016 64.824C133.584 64.6107 133.248 64.288 133.008 63.856C132.768 63.4187 132.648 62.8667 132.648 62.2V57.336ZM151.412 65L151.252 63.32V60.04C151.252 59.352 151.105 58.8587 150.812 58.56C150.519 58.256 150.079 58.104 149.492 58.104C149.161 58.104 148.86 58.152 148.588 58.248C148.321 58.344 148.108 58.4933 147.948 58.696C147.793 58.8933 147.716 59.1493 147.716 59.464H146.324C146.324 58.9093 146.46 58.464 146.732 58.128C147.004 57.7867 147.377 57.5413 147.852 57.392C148.332 57.2373 148.879 57.16 149.492 57.16C150.079 57.16 150.599 57.2587 151.052 57.456C151.505 57.6533 151.86 57.968 152.116 58.4C152.372 58.8267 152.5 59.384 152.5 60.072V65H151.412ZM148.804 65.192C148.175 65.192 147.655 65.08 147.244 64.856C146.833 64.632 146.527 64.3413 146.324 63.984C146.121 63.6267 146.02 63.2507 146.02 62.856C146.02 62.3387 146.148 61.9173 146.404 61.592C146.665 61.2667 147.02 61.0293 147.468 60.88C147.916 60.7253 148.42 60.648 148.98 60.648C149.38 60.648 149.78 60.688 150.18 60.768C150.585 60.848 150.98 60.9573 151.364 61.096V61.88C151.044 61.752 150.681 61.6507 150.276 61.576C149.876 61.5013 149.508 61.464 149.172 61.464C148.66 61.464 148.228 61.5707 147.876 61.784C147.524 61.992 147.348 62.3493 147.348 62.856C147.348 63.2293 147.481 63.5493 147.748 63.816C148.02 64.0827 148.452 64.216 149.044 64.216C149.46 64.216 149.833 64.12 150.164 63.928C150.5 63.7307 150.764 63.4853 150.956 63.192C151.153 62.8987 151.252 62.6053 151.252 62.312H151.556C151.556 62.824 151.444 63.2987 151.22 63.736C151.001 64.1733 150.687 64.5253 150.276 64.792C149.865 65.0587 149.375 65.192 148.804 65.192ZM155.649 65V57.336H156.897V65H155.649ZM156.513 61.544C156.513 60.5733 156.606 59.768 156.793 59.128C156.979 58.4827 157.251 58.0027 157.609 57.688C157.971 57.368 158.411 57.208 158.929 57.208C159.099 57.208 159.254 57.2213 159.393 57.248C159.537 57.2693 159.681 57.304 159.825 57.352L159.745 58.584C159.595 58.536 159.433 58.496 159.257 58.464C159.081 58.4267 158.923 58.408 158.785 58.408C158.331 58.408 157.966 58.5387 157.689 58.8C157.411 59.056 157.209 59.4187 157.081 59.888C156.958 60.3573 156.897 60.9093 156.897 61.544H156.513ZM164.246 65.192C163.584 65.192 162.992 65.024 162.47 64.688C161.952 64.3467 161.542 63.8747 161.238 63.272C160.939 62.6693 160.79 61.976 160.79 61.192C160.79 60.3547 160.939 59.6347 161.238 59.032C161.536 58.4293 161.944 57.968 162.462 57.648C162.984 57.3227 163.579 57.16 164.246 57.16C164.827 57.16 165.323 57.2773 165.734 57.512C166.144 57.7467 166.475 58.064 166.726 58.464C166.976 58.864 167.15 59.3173 167.246 59.824C167.347 60.3253 167.376 60.8453 167.334 61.384H161.798V60.616H166.51L166.142 60.856C166.158 60.5413 166.139 60.2267 166.086 59.912C166.038 59.5973 165.944 59.3093 165.806 59.048C165.667 58.7813 165.472 58.568 165.222 58.408C164.971 58.248 164.651 58.168 164.262 58.168C163.771 58.168 163.36 58.2933 163.03 58.544C162.699 58.7947 162.451 59.1253 162.286 59.536C162.12 59.9413 162.038 60.3813 162.038 60.856V61.368C162.038 61.9013 162.118 62.3787 162.278 62.8C162.443 63.2213 162.688 63.5547 163.014 63.8C163.339 64.0453 163.75 64.168 164.246 64.168C164.742 64.168 165.15 64.048 165.47 63.808C165.79 63.568 165.984 63.2133 166.054 62.744H167.35C167.27 63.2507 167.088 63.688 166.806 64.056C166.523 64.4187 166.163 64.6987 165.726 64.896C165.288 65.0933 164.795 65.192 164.246 65.192ZM176.677 65.192C175.936 65.192 175.317 65.088 174.821 64.88C174.325 64.6667 173.949 64.376 173.693 64.008C173.437 63.6347 173.301 63.208 173.285 62.728H174.485C174.512 63.2133 174.707 63.5787 175.069 63.824C175.437 64.064 175.936 64.184 176.565 64.184C176.896 64.184 177.2 64.1307 177.477 64.024C177.755 63.9173 177.976 63.7707 178.141 63.584C178.307 63.3973 178.389 63.1867 178.389 62.952C178.389 62.6533 178.28 62.4187 178.061 62.248C177.843 62.0773 177.493 61.928 177.013 61.8L175.525 61.32C174.88 61.1173 174.384 60.84 174.037 60.488C173.696 60.1307 173.525 59.704 173.525 59.208C173.525 58.5893 173.797 58.0933 174.341 57.72C174.885 57.3467 175.6 57.16 176.485 57.16C177.424 57.16 178.152 57.352 178.669 57.736C179.187 58.12 179.456 58.6 179.477 59.176H178.245C178.197 58.84 178.027 58.5867 177.733 58.416C177.44 58.24 177.024 58.152 176.485 58.152C175.968 58.152 175.563 58.2693 175.269 58.504C174.981 58.7333 174.837 58.9893 174.837 59.272C174.837 59.8 175.291 60.1893 176.197 60.44L177.717 60.952C178.373 61.1493 178.875 61.408 179.221 61.728C179.573 62.048 179.749 62.456 179.749 62.952C179.749 63.336 179.624 63.6987 179.373 64.04C179.123 64.3813 178.768 64.6587 178.309 64.872C177.851 65.0853 177.307 65.192 176.677 65.192ZM185.148 65.192C184.486 65.192 183.894 65.024 183.372 64.688C182.854 64.3467 182.444 63.8747 182.14 63.272C181.841 62.6693 181.692 61.976 181.692 61.192C181.692 60.3547 181.841 59.6347 182.14 59.032C182.438 58.4293 182.846 57.968 183.364 57.648C183.886 57.3227 184.481 57.16 185.148 57.16C185.729 57.16 186.225 57.2773 186.636 57.512C187.046 57.7467 187.377 58.064 187.628 58.464C187.878 58.864 188.052 59.3173 188.148 59.824C188.249 60.3253 188.278 60.8453 188.236 61.384H182.7V60.616H187.412L187.044 60.856C187.06 60.5413 187.041 60.2267 186.988 59.912C186.94 59.5973 186.846 59.3093 186.708 59.048C186.569 58.7813 186.374 58.568 186.124 58.408C185.873 58.248 185.553 58.168 185.164 58.168C184.673 58.168 184.262 58.2933 183.932 58.544C183.601 58.7947 183.353 59.1253 183.188 59.536C183.022 59.9413 182.94 60.3813 182.94 60.856V61.368C182.94 61.9013 183.02 62.3787 183.18 62.8C183.345 63.2213 183.59 63.5547 183.916 63.8C184.241 64.0453 184.652 64.168 185.148 64.168C185.644 64.168 186.052 64.048 186.372 63.808C186.692 63.568 186.886 63.2133 186.956 62.744H188.252C188.172 63.2507 187.99 63.688 187.708 64.056C187.425 64.4187 187.065 64.6987 186.628 64.896C186.19 65.0933 185.697 65.192 185.148 65.192ZM195.606 65L195.446 63.32V60.04C195.446 59.352 195.3 58.8587 195.006 58.56C194.713 58.256 194.273 58.104 193.686 58.104C193.356 58.104 193.054 58.152 192.782 58.248C192.516 58.344 192.302 58.4933 192.142 58.696C191.988 58.8933 191.91 59.1493 191.91 59.464H190.518C190.518 58.9093 190.654 58.464 190.926 58.128C191.198 57.7867 191.572 57.5413 192.046 57.392C192.526 57.2373 193.073 57.16 193.686 57.16C194.273 57.16 194.793 57.2587 195.246 57.456C195.7 57.6533 196.054 57.968 196.31 58.4C196.566 58.8267 196.694 59.384 196.694 60.072V65H195.606ZM192.998 65.192C192.369 65.192 191.849 65.08 191.438 64.856C191.028 64.632 190.721 64.3413 190.518 63.984C190.316 63.6267 190.214 63.2507 190.214 62.856C190.214 62.3387 190.342 61.9173 190.598 61.592C190.86 61.2667 191.214 61.0293 191.662 60.88C192.11 60.7253 192.614 60.648 193.174 60.648C193.574 60.648 193.974 60.688 194.374 60.768C194.78 60.848 195.174 60.9573 195.558 61.096V61.88C195.238 61.752 194.876 61.6507 194.47 61.576C194.07 61.5013 193.702 61.464 193.366 61.464C192.854 61.464 192.422 61.5707 192.07 61.784C191.718 61.992 191.542 62.3493 191.542 62.856C191.542 63.2293 191.676 63.5493 191.942 63.816C192.214 64.0827 192.646 64.216 193.238 64.216C193.654 64.216 194.028 64.12 194.358 63.928C194.694 63.7307 194.958 63.4853 195.15 63.192C195.348 62.8987 195.446 62.6053 195.446 62.312H195.75C195.75 62.824 195.638 63.2987 195.414 63.736C195.196 64.1733 194.881 64.5253 194.47 64.792C194.06 65.0587 193.569 65.192 192.998 65.192ZM199.843 65V57.336H201.091V65H199.843ZM200.707 61.544C200.707 60.5733 200.8 59.768 200.987 59.128C201.174 58.4827 201.446 58.0027 201.803 57.688C202.166 57.368 202.606 57.208 203.123 57.208C203.294 57.208 203.448 57.2213 203.587 57.248C203.731 57.2693 203.875 57.304 204.019 57.352L203.939 58.584C203.79 58.536 203.627 58.496 203.451 58.464C203.275 58.4267 203.118 58.408 202.979 58.408C202.526 58.408 202.16 58.5387 201.883 58.8C201.606 59.056 201.403 59.4187 201.275 59.888C201.152 60.3573 201.091 60.9093 201.091 61.544H200.707ZM208.472 65.192C207.859 65.192 207.285 65.0267 206.752 64.696C206.224 64.3653 205.797 63.8987 205.472 63.296C205.147 62.6933 204.984 61.9813 204.984 61.16C204.984 60.3173 205.147 59.5973 205.472 59C205.797 58.4027 206.224 57.9467 206.752 57.632C207.285 57.3173 207.859 57.16 208.472 57.16C208.904 57.16 209.291 57.2267 209.632 57.36C209.979 57.488 210.28 57.6667 210.536 57.896C210.792 58.1253 211.003 58.3867 211.168 58.68C211.339 58.968 211.464 59.272 211.544 59.592L210.264 59.704C210.131 59.2613 209.907 58.912 209.592 58.656C209.283 58.3947 208.904 58.264 208.456 58.264C208.077 58.264 207.72 58.3733 207.384 58.592C207.053 58.8053 206.784 59.128 206.576 59.56C206.368 59.9867 206.264 60.52 206.264 61.16C206.264 61.752 206.357 62.2667 206.544 62.704C206.736 63.136 206.997 63.472 207.328 63.712C207.659 63.952 208.035 64.072 208.456 64.072C209.048 64.072 209.496 63.928 209.8 63.64C210.109 63.3467 210.264 62.9413 210.264 62.424H211.544C211.544 62.9573 211.419 63.432 211.168 63.848C210.917 64.264 210.56 64.592 210.096 64.832C209.637 65.072 209.096 65.192 208.472 65.192ZM219.634 65V60.504C219.634 59.7733 219.458 59.2187 219.106 58.84C218.759 58.456 218.285 58.264 217.682 58.264C217.223 58.264 216.826 58.3893 216.49 58.64C216.154 58.8907 215.895 59.2507 215.714 59.72C215.533 60.184 215.442 60.7387 215.442 61.384H214.962C214.962 60.4933 215.079 59.7333 215.314 59.104C215.549 58.4747 215.89 57.9947 216.338 57.664C216.791 57.328 217.341 57.16 217.986 57.16C218.589 57.16 219.103 57.296 219.53 57.568C219.962 57.8347 220.293 58.2187 220.522 58.72C220.751 59.2213 220.866 59.816 220.866 60.504V65H219.634ZM214.194 65V54.088H215.442V65H214.194ZM224.714 55.544C224.458 55.544 224.256 55.472 224.106 55.328C223.957 55.1787 223.882 54.984 223.882 54.744C223.882 54.5093 223.957 54.3227 224.106 54.184C224.256 54.0453 224.458 53.976 224.714 53.976C224.97 53.976 225.173 54.0453 225.322 54.184C225.472 54.3227 225.546 54.5093 225.546 54.744C225.546 54.984 225.472 55.1787 225.322 55.328C225.173 55.472 224.97 55.544 224.714 55.544ZM224.09 65V57.336H225.338V65H224.09ZM234.376 65V60.504C234.376 59.7733 234.2 59.2187 233.848 58.84C233.501 58.456 233.027 58.264 232.424 58.264C231.965 58.264 231.568 58.3893 231.232 58.64C230.896 58.8907 230.637 59.2507 230.456 59.72C230.275 60.184 230.184 60.7387 230.184 61.384H229.704C229.704 60.4933 229.821 59.7333 230.056 59.104C230.291 58.4747 230.632 57.9947 231.08 57.664C231.533 57.328 232.083 57.16 232.728 57.16C233.331 57.16 233.845 57.296 234.272 57.568C234.704 57.8347 235.035 58.2187 235.264 58.72C235.493 59.2213 235.608 59.816 235.608 60.504V65H234.376ZM228.936 65V57.352H230.008L230.184 59.112V65H228.936ZM241.456 68.936C240.672 68.936 239.992 68.824 239.416 68.6C238.84 68.3813 238.392 68.0853 238.072 67.712C237.758 67.344 237.6 66.936 237.6 66.488C237.6 65.896 237.816 65.4427 238.248 65.128C238.686 64.8187 239.248 64.664 239.936 64.664L240.624 65.096C240.048 65.096 239.603 65.216 239.288 65.456C238.974 65.696 238.816 66.024 238.816 66.44C238.816 66.856 239.04 67.208 239.488 67.496C239.936 67.784 240.592 67.928 241.456 67.928C242.096 67.928 242.656 67.8347 243.136 67.648C243.622 67.4667 243.998 67.2267 244.264 66.928C244.536 66.6347 244.672 66.3173 244.672 65.976C244.672 65.736 244.584 65.528 244.408 65.352C244.232 65.1813 243.963 65.096 243.6 65.096H240.624C240.107 65.096 239.659 65.0187 239.28 64.864C238.907 64.704 238.619 64.496 238.416 64.24C238.214 63.984 238.112 63.704 238.112 63.4C238.112 63.08 238.203 62.808 238.384 62.584C238.566 62.36 238.8 62.1893 239.088 62.072C239.382 61.9547 239.696 61.896 240.032 61.896L240.272 62.36C240.112 62.36 239.95 62.3973 239.784 62.472C239.624 62.5413 239.488 62.648 239.376 62.792C239.27 62.9307 239.216 63.1067 239.216 63.32C239.216 63.5653 239.318 63.7707 239.52 63.936C239.723 64.1013 240.091 64.184 240.624 64.184H243.6C244.32 64.184 244.886 64.336 245.296 64.64C245.712 64.944 245.92 65.368 245.92 65.912C245.92 66.4133 245.742 66.8933 245.384 67.352C245.027 67.816 244.515 68.1947 243.848 68.488C243.182 68.7867 242.384 68.936 241.456 68.936ZM241.68 62.76C241.094 62.76 240.563 62.6427 240.088 62.408C239.619 62.1733 239.246 61.8453 238.968 61.424C238.696 61.0027 238.56 60.5147 238.56 59.96C238.56 59.4 238.696 58.9093 238.968 58.488C239.246 58.0667 239.619 57.7413 240.088 57.512C240.563 57.2773 241.094 57.16 241.68 57.16C242.251 57.16 242.768 57.2773 243.232 57.512C243.702 57.7413 244.075 58.0667 244.352 58.488C244.63 58.9093 244.768 59.4 244.768 59.96C244.768 60.5147 244.63 61.0027 244.352 61.424C244.075 61.8453 243.702 62.1733 243.232 62.408C242.768 62.6427 242.251 62.76 241.68 62.76ZM241.68 61.864C242.267 61.864 242.723 61.6827 243.048 61.32C243.374 60.9573 243.536 60.504 243.536 59.96C243.536 59.4 243.374 58.9467 243.048 58.6C242.723 58.248 242.267 58.072 241.68 58.072C241.099 58.072 240.64 58.248 240.304 58.6C239.974 58.9467 239.808 59.4 239.808 59.96C239.808 60.504 239.974 60.9573 240.304 61.32C240.64 61.6827 241.099 61.864 241.68 61.864ZM244.192 58.376L243.6 58.136C243.6 57.688 243.688 57.296 243.864 56.96C244.04 56.6187 244.291 56.3547 244.616 56.168C244.942 55.976 245.328 55.88 245.776 55.88L245.68 57.112C245.2 57.112 244.832 57.216 244.576 57.424C244.32 57.6267 244.192 57.944 244.192 58.376ZM32.368 85.192C31.6267 85.192 31.008 85.088 30.512 84.88C30.016 84.6667 29.64 84.376 29.384 84.008C29.128 83.6347 28.992 83.208 28.976 82.728H30.176C30.2027 83.2133 30.3973 83.5787 30.76 83.824C31.128 84.064 31.6267 84.184 32.256 84.184C32.5867 84.184 32.8907 84.1307 33.168 84.024C33.4453 83.9173 33.6667 83.7707 33.832 83.584C33.9973 83.3973 34.08 83.1867 34.08 82.952C34.08 82.6533 33.9707 82.4187 33.752 82.248C33.5333 82.0773 33.184 81.928 32.704 81.8L31.216 81.32C30.5707 81.1173 30.0747 80.84 29.728 80.488C29.3867 80.1307 29.216 79.704 29.216 79.208C29.216 78.5893 29.488 78.0933 30.032 77.72C30.576 77.3467 31.2907 77.16 32.176 77.16C33.1147 77.16 33.8427 77.352 34.36 77.736C34.8773 78.12 35.1467 78.6 35.168 79.176H33.936C33.888 78.84 33.7173 78.5867 33.424 78.416C33.1307 78.24 32.7147 78.152 32.176 78.152C31.6587 78.152 31.2533 78.2693 30.96 78.504C30.672 78.7333 30.528 78.9893 30.528 79.272C30.528 79.8 30.9813 80.1893 31.888 80.44L33.408 80.952C34.064 81.1493 34.5653 81.408 34.912 81.728C35.264 82.048 35.44 82.456 35.44 82.952C35.44 83.336 35.3147 83.6987 35.064 84.04C34.8133 84.3813 34.4587 84.6587 34 84.872C33.5413 85.0853 32.9973 85.192 32.368 85.192ZM40.9503 85.192C40.2623 85.192 39.6489 85.04 39.1102 84.736C38.5769 84.432 38.1556 83.9813 37.8462 83.384C37.5369 82.7867 37.3822 82.0507 37.3822 81.176C37.3822 80.296 37.5369 79.56 37.8462 78.968C38.1556 78.3707 38.5769 77.92 39.1102 77.616C39.6489 77.312 40.2623 77.16 40.9503 77.16C41.6329 77.16 42.2409 77.312 42.7743 77.616C43.3129 77.92 43.7343 78.3707 44.0382 78.968C44.3476 79.56 44.5023 80.296 44.5023 81.176C44.5023 82.0507 44.3476 82.7867 44.0382 83.384C43.7343 83.9813 43.3129 84.432 42.7743 84.736C42.2409 85.04 41.6329 85.192 40.9503 85.192ZM40.9183 84.104C41.4143 84.104 41.8356 83.9867 42.1823 83.752C42.5289 83.512 42.7902 83.1733 42.9662 82.736C43.1476 82.2987 43.2383 81.7787 43.2383 81.176C43.2383 80.264 43.0489 79.5467 42.6702 79.024C42.2916 78.496 41.7289 78.232 40.9823 78.232C40.4809 78.232 40.0569 78.352 39.7102 78.592C39.3689 78.8267 39.1076 79.1653 38.9262 79.608C38.7503 80.0453 38.6623 80.568 38.6623 81.176C38.6623 82.0773 38.8516 82.792 39.2302 83.32C39.6143 83.8427 40.1769 84.104 40.9183 84.104ZM57.8443 85V80.504C57.8443 79.7733 57.6683 79.2187 57.3162 78.84C56.9696 78.456 56.5003 78.264 55.9082 78.264C55.2149 78.264 54.6842 78.5333 54.3162 79.072C53.9482 79.6053 53.7642 80.344 53.7642 81.288H53.1883C53.1883 80.6 53.2549 79.9973 53.3882 79.48C53.5269 78.9627 53.7269 78.5333 53.9882 78.192C54.2496 77.8453 54.5669 77.5867 54.9403 77.416C55.3136 77.2453 55.7376 77.16 56.2122 77.16C56.8149 77.16 57.3296 77.296 57.7563 77.568C58.1883 77.8347 58.5189 78.2187 58.7483 78.72C58.9776 79.2213 59.0922 79.816 59.0922 80.504V85H57.8443ZM47.0922 85V77.352H48.1642L48.3082 78.888C48.5482 78.3333 48.8842 77.9067 49.3162 77.608C49.7536 77.3093 50.2763 77.16 50.8843 77.16C51.4869 77.16 52.0016 77.296 52.4282 77.568C52.8602 77.8347 53.1909 78.2187 53.4202 78.72C53.6496 79.2213 53.7642 79.816 53.7642 80.504V85H52.5322V80.504C52.5322 79.7733 52.3562 79.2187 52.0043 78.84C51.6576 78.456 51.1829 78.264 50.5802 78.264C50.1216 78.264 49.7242 78.3893 49.3882 78.64C49.0522 78.8907 48.7936 79.2507 48.6122 79.72C48.4309 80.184 48.3402 80.7387 48.3402 81.384V85H47.0922ZM64.877 85.192C64.2157 85.192 63.6237 85.024 63.101 84.688C62.5837 84.3467 62.173 83.8747 61.869 83.272C61.5703 82.6693 61.421 81.976 61.421 81.192C61.421 80.3547 61.5703 79.6347 61.869 79.032C62.1677 78.4293 62.5757 77.968 63.093 77.648C63.6157 77.3227 64.2103 77.16 64.877 77.16C65.4583 77.16 65.9543 77.2773 66.365 77.512C66.7757 77.7467 67.1063 78.064 67.357 78.464C67.6077 78.864 67.781 79.3173 67.877 79.824C67.9783 80.3253 68.0077 80.8453 67.965 81.384H62.429V80.616H67.141L66.773 80.856C66.789 80.5413 66.7703 80.2267 66.717 79.912C66.669 79.5973 66.5757 79.3093 66.437 79.048C66.2983 78.7813 66.1037 78.568 65.853 78.408C65.6023 78.248 65.2823 78.168 64.893 78.168C64.4023 78.168 63.9917 78.2933 63.661 78.544C63.3303 78.7947 63.0823 79.1253 62.917 79.536C62.7517 79.9413 62.669 80.3813 62.669 80.856V81.368C62.669 81.9013 62.749 82.3787 62.909 82.8C63.0743 83.2213 63.3197 83.5547 63.645 83.8C63.9703 84.0453 64.381 84.168 64.877 84.168C65.373 84.168 65.781 84.048 66.101 83.808C66.421 83.568 66.6157 83.2133 66.685 82.744H67.981C67.901 83.2507 67.7197 83.688 67.437 84.056C67.1543 84.4187 66.7943 84.6987 66.357 84.896C65.9197 85.0933 65.4263 85.192 64.877 85.192ZM74.4286 85V74.616H78.6206C79.4206 74.616 80.0846 74.7413 80.6126 74.992C81.1406 75.2373 81.5353 75.568 81.7966 75.984C82.058 76.4 82.1886 76.8613 82.1886 77.368C82.1886 77.9547 82.0233 78.456 81.6926 78.872C81.3673 79.288 80.9086 79.5813 80.3166 79.752C80.706 79.832 81.0553 79.9787 81.3646 80.192C81.674 80.4053 81.9166 80.6747 82.0926 81C82.274 81.3253 82.3646 81.6987 82.3646 82.12C82.3646 82.4507 82.306 82.784 82.1886 83.12C82.0766 83.456 81.8793 83.768 81.5966 84.056C81.3193 84.3387 80.938 84.568 80.4526 84.744C79.9726 84.9147 79.3673 85 78.6366 85H74.4286ZM76.3166 83.352H78.5886C79.1913 83.352 79.6313 83.232 79.9086 82.992C80.1913 82.7467 80.3326 82.4187 80.3326 82.008C80.3326 81.5973 80.1886 81.2693 79.9006 81.024C79.6126 80.7733 79.1753 80.648 78.5886 80.648H76.3166V83.352ZM76.3166 76.248V79H78.5406C79.1006 79 79.5246 78.8773 79.8126 78.632C80.106 78.3813 80.2526 78.04 80.2526 77.608C80.2526 77.1973 80.1086 76.8693 79.8206 76.624C79.538 76.3733 79.1166 76.248 78.5566 76.248H76.3166ZM84.9636 85V74.616H88.8036C90.0463 74.616 90.9983 74.9067 91.6596 75.488C92.3263 76.0693 92.6596 76.84 92.6596 77.8C92.6596 78.744 92.3263 79.5067 91.6596 80.088C90.9983 80.664 90.0463 80.952 88.8036 80.952H86.8516V85H84.9636ZM90.5796 85L87.8276 80.136H89.8436L93.0436 85H90.5796ZM86.8516 79.688H88.6116C89.305 79.688 89.8303 79.5307 90.1876 79.216C90.545 78.896 90.7236 78.4827 90.7236 77.976C90.7236 77.4587 90.561 77.0427 90.2356 76.728C89.9103 76.408 89.433 76.248 88.8036 76.248H86.8516V79.688ZM95.4045 85V74.616H102.077V76.248H97.2925V78.984H101.789V80.616H97.2925V83.352H102.077V85H95.4045ZM103.835 85L107.371 74.616H109.739L113.131 85H111.147L110.427 82.76H106.571L105.835 85H103.835ZM107.051 81.336H109.979L108.523 76.872L107.051 81.336ZM121.147 74.616H123.739L116.891 81.624V79.048L121.147 74.616ZM118.843 78.904L124.027 85H121.595L117.531 80.136L118.843 78.904ZM115.147 74.616H117.051V85H115.147V74.616ZM125.775 85V74.616H132.319V76.248H127.663V78.984H131.919V80.6H127.663V85H125.775ZM132.518 85L136.054 74.616H138.422L141.814 85H139.83L139.11 82.76H135.254L134.518 85H132.518ZM135.734 81.336H138.662L137.206 76.872L135.734 81.336ZM147.446 85.224C146.726 85.224 146.062 85.0987 145.454 84.848C144.851 84.5973 144.361 84.216 143.982 83.704C143.609 83.192 143.409 82.5413 143.382 81.752H145.238C145.238 82.152 145.337 82.48 145.534 82.736C145.731 82.992 145.995 83.184 146.326 83.312C146.662 83.4347 147.03 83.496 147.43 83.496C147.814 83.496 148.155 83.4453 148.454 83.344C148.758 83.2427 148.995 83.0987 149.166 82.912C149.342 82.72 149.43 82.4933 149.43 82.232C149.43 81.8853 149.323 81.6133 149.11 81.416C148.902 81.2187 148.566 81.0373 148.102 80.872L146.054 80.056C145.254 79.7413 144.641 79.376 144.214 78.96C143.787 78.544 143.574 77.9707 143.574 77.24C143.574 76.3973 143.907 75.7147 144.574 75.192C145.241 74.6693 146.171 74.408 147.366 74.408C148.529 74.408 149.427 74.68 150.062 75.224C150.697 75.7627 151.057 76.5147 151.142 77.48H149.286C149.217 77.0693 149.03 76.7413 148.726 76.496C148.422 76.2453 147.969 76.12 147.366 76.12C146.833 76.12 146.411 76.232 146.102 76.456C145.793 76.6747 145.638 76.952 145.638 77.288C145.638 77.576 145.734 77.8053 145.926 77.976C146.123 78.1413 146.427 78.3013 146.838 78.456L149.11 79.336C149.878 79.6347 150.467 80.0107 150.878 80.464C151.289 80.9173 151.494 81.4853 151.494 82.168C151.494 82.792 151.337 83.3333 151.022 83.792C150.707 84.2453 150.249 84.5973 149.646 84.848C149.043 85.0987 148.31 85.224 147.446 85.224ZM152.801 76.248V74.616H161.121V76.248H157.481L157.905 75.816V85H156.017V75.816L156.441 76.248H152.801ZM167.06 85V74.616H170.9C172.143 74.616 173.095 74.9067 173.756 75.488C174.423 76.0693 174.756 76.84 174.756 77.8C174.756 78.744 174.423 79.5067 173.756 80.088C173.095 80.664 172.143 80.952 170.9 80.952H168.948V85H167.06ZM172.676 85L169.924 80.136H171.94L175.14 85H172.676ZM168.948 79.688H170.708C171.401 79.688 171.927 79.5307 172.284 79.216C172.641 78.896 172.82 78.4827 172.82 77.976C172.82 77.4587 172.657 77.0427 172.332 76.728C172.007 76.408 171.529 76.248 170.9 76.248H168.948V79.688ZM177.501 85V74.616H184.173V76.248H179.389V78.984H183.885V80.616H179.389V83.352H184.173V85H177.501ZM190.843 85.224C189.931 85.224 189.137 85.008 188.459 84.576C187.787 84.1387 187.265 83.5147 186.891 82.704C186.518 81.8933 186.331 80.92 186.331 79.784C186.331 78.6107 186.523 77.6267 186.907 76.832C187.297 76.032 187.83 75.4293 188.507 75.024C189.19 74.6133 189.969 74.408 190.843 74.408C192.054 74.408 192.998 74.7013 193.675 75.288C194.358 75.8747 194.795 76.6373 194.987 77.576L192.971 77.944C192.806 77.4 192.542 76.96 192.179 76.624C191.817 76.288 191.371 76.12 190.843 76.12C190.379 76.12 189.961 76.256 189.587 76.528C189.214 76.7947 188.915 77.2 188.691 77.744C188.473 78.288 188.363 78.968 188.363 79.784C188.363 80.552 188.459 81.2133 188.651 81.768C188.849 82.3227 189.131 82.7493 189.499 83.048C189.867 83.3467 190.315 83.496 190.843 83.496C191.521 83.496 192.043 83.3173 192.411 82.96C192.785 82.5973 192.971 82.136 192.971 81.576H194.987C194.987 82.3493 194.819 83.008 194.483 83.552C194.153 84.0907 193.678 84.504 193.059 84.792C192.441 85.08 191.702 85.224 190.843 85.224ZM197.368 85V74.616H199.256V85H197.368ZM202.355 85V74.616H206.019C207.187 74.616 208.096 74.904 208.747 75.48C209.403 76.056 209.731 76.872 209.731 77.928C209.731 78.9733 209.403 79.784 208.747 80.36C208.096 80.936 207.187 81.224 206.019 81.224H204.259V85H202.355ZM204.259 79.576H206.019C206.606 79.576 207.048 79.4213 207.347 79.112C207.646 78.8027 207.795 78.408 207.795 77.928C207.795 77.4373 207.646 77.0347 207.347 76.72C207.048 76.4053 206.606 76.248 206.019 76.248H204.259V79.576ZM211.844 85V74.616H213.732V85H211.844ZM216.863 85V74.616H223.535V76.248H218.751V78.984H223.247V80.616H218.751V83.352H223.535V85H216.863ZM230.046 85.224C229.326 85.224 228.662 85.0987 228.054 84.848C227.451 84.5973 226.961 84.216 226.582 83.704C226.209 83.192 226.009 82.5413 225.982 81.752H227.838C227.838 82.152 227.937 82.48 228.134 82.736C228.331 82.992 228.595 83.184 228.926 83.312C229.262 83.4347 229.63 83.496 230.03 83.496C230.414 83.496 230.755 83.4453 231.054 83.344C231.358 83.2427 231.595 83.0987 231.766 82.912C231.942 82.72 232.03 82.4933 232.03 82.232C232.03 81.8853 231.923 81.6133 231.71 81.416C231.502 81.2187 231.166 81.0373 230.702 80.872L228.654 80.056C227.854 79.7413 227.241 79.376 226.814 78.96C226.387 78.544 226.174 77.9707 226.174 77.24C226.174 76.3973 226.507 75.7147 227.174 75.192C227.841 74.6693 228.771 74.408 229.966 74.408C231.129 74.408 232.027 74.68 232.662 75.224C233.297 75.7627 233.657 76.5147 233.742 77.48H231.886C231.817 77.0693 231.63 76.7413 231.326 76.496C231.022 76.2453 230.569 76.12 229.966 76.12C229.433 76.12 229.011 76.232 228.702 76.456C228.393 76.6747 228.238 76.952 228.238 77.288C228.238 77.576 228.334 77.8053 228.526 77.976C228.723 78.1413 229.027 78.3013 229.438 78.456L231.71 79.336C232.478 79.6347 233.067 80.0107 233.478 80.464C233.889 80.9173 234.094 81.4853 234.094 82.168C234.094 82.792 233.937 83.3333 233.622 83.792C233.307 84.2453 232.849 84.5973 232.246 84.848C231.643 85.0987 230.91 85.224 230.046 85.224ZM235.785 84.256C235.785 84.0053 235.873 83.7893 236.049 83.608C236.225 83.4267 236.446 83.336 236.713 83.336C236.98 83.336 237.206 83.4267 237.393 83.608C237.58 83.7893 237.673 84.0053 237.673 84.256C237.673 84.5067 237.58 84.7173 237.393 84.888C237.206 85.0587 236.98 85.144 236.713 85.144C236.446 85.144 236.225 85.0587 236.049 84.888C235.873 84.712 235.785 84.5013 235.785 84.256Z" fill="#4A5DC8"/>
</g>
<defs>
<filter id="filter0_d_7098_5730" x="0" y="0" width="265.768" height="108" filterUnits="userSpaceOnUse" color-interpolation-filters="sRGB">
<feFlood flood-opacity="0" result="BackgroundImageFix"/>
<feColorMatrix in="SourceAlpha" type="matrix" values="0 0 0 0 0 0 0 0 0 0 0 0 0 0 0 0 0 0 127 0" result="hardAlpha"/>
<feOffset dy="4"/>
<feGaussianBlur stdDeviation="3"/>
<feComposite in2="hardAlpha" operator="out"/>
<feColorMatrix type="matrix" values="0 0 0 0 0 0 0 0 0 0 0 0 0 0 0 0 0 0 0.1 0"/>
<feBlend mode="normal" in2="BackgroundImageFix" result="effect1_dropShadow_7098_5730"/>
<feBlend mode="normal" in="SourceGraphic" in2="effect1_dropShadow_7098_5730" result="shape"/>
</filter>
</defs>
</svg>
