<svg width="262" height="108" viewBox="0 0 262 108" fill="none" xmlns="http://www.w3.org/2000/svg">
<g filter="url(#filter0_d_7055_5767)">
<mask id="path-1-inside-1_7055_5767" fill="white">
<path d="M7.04332 52.6331L16.7673 61L16.7673 89C16.7673 93.9706 20.7968 98 25.7673 98L246.767 98C251.738 98 255.767 93.9706 255.767 89L255.767 11C255.767 6.02948 251.738 2.00004 246.767 2.00004L25.7674 2C20.7968 2 16.7674 6.02944 16.7674 11L16.7674 40.5L7.15554 47.9931C5.66179 49.1575 5.6076 51.3978 7.04332 52.6331Z"/>
</mask>
<path d="M7.04332 52.6331L16.7673 61L16.7673 89C16.7673 93.9706 20.7968 98 25.7673 98L246.767 98C251.738 98 255.767 93.9706 255.767 89L255.767 11C255.767 6.02948 251.738 2.00004 246.767 2.00004L25.7674 2C20.7968 2 16.7674 6.02944 16.7674 11L16.7674 40.5L7.15554 47.9931C5.66179 49.1575 5.6076 51.3978 7.04332 52.6331Z" fill="white"/>
<path d="M16.7673 61L18.1673 61L18.1673 60.3577L17.6805 59.9388L16.7673 61ZM7.04332 52.6331L6.1302 53.6944L6.1302 53.6944L7.04332 52.6331ZM7.15554 47.9931L6.29479 46.8889L6.29479 46.8889L7.15554 47.9931ZM16.7674 40.5L17.6281 41.6041L18.1674 41.1838L18.1674 40.5L16.7674 40.5ZM16.7674 11L15.3674 11L15.3674 11L16.7674 11ZM16.7673 89L18.1673 89L18.1673 89L16.7673 89ZM17.6805 59.9388L7.95644 51.5719L6.1302 53.6944L15.8542 62.0612L17.6805 59.9388ZM8.01629 49.0972L17.6281 41.6041L15.9066 39.3959L6.29479 46.8889L8.01629 49.0972ZM7.95644 51.5719C7.19072 50.9131 7.21962 49.7183 8.01629 49.0972L6.29479 46.8889C4.10395 48.5968 4.02448 51.8825 6.1302 53.6944L7.95644 51.5719ZM25.7674 3.4L246.767 3.40004L246.767 0.600042L25.7674 0.600003L25.7674 3.4ZM254.367 11L254.367 89L257.167 89L257.167 11L254.367 11ZM246.767 96.6L25.7673 96.6L25.7673 99.4L246.767 99.4L246.767 96.6ZM18.1674 40.5L18.1674 11L15.3674 11L15.3674 40.5L18.1674 40.5ZM18.1673 89L18.1673 61L15.3673 61L15.3673 89L18.1673 89ZM25.7673 96.6C21.57 96.6 18.1673 93.1974 18.1673 89L15.3673 89C15.3673 94.7438 20.0236 99.4 25.7673 99.4L25.7673 96.6ZM254.367 89C254.367 93.1974 250.965 96.6 246.767 96.6L246.767 99.4C252.511 99.4 257.167 94.7438 257.167 89L254.367 89ZM246.767 3.40004C250.965 3.40004 254.367 6.80268 254.367 11L257.167 11C257.167 5.25628 252.511 0.600043 246.767 0.600042L246.767 3.40004ZM25.7674 0.600003C20.0236 0.600002 15.3674 5.25624 15.3674 11L18.1674 11C18.1674 6.80264 21.57 3.4 25.7674 3.4L25.7674 0.600003Z" fill="#333333" mask="url(#path-1-inside-1_7055_5767)"/>
<path d="M38.352 18.296C38.1387 18.296 37.9493 18.24 37.784 18.128C37.6187 18.016 37.488 17.864 37.392 17.672C37.296 17.48 37.248 17.2667 37.248 17.032C37.248 16.648 37.3733 16.272 37.624 15.904C37.88 15.5307 38.24 15.224 38.704 14.984L39.6 15.464C39.296 15.6133 39.0373 15.7867 38.824 15.984C38.616 16.1813 38.4747 16.4133 38.4 16.68C38.6507 16.7013 38.8533 16.7787 39.008 16.912C39.168 17.04 39.248 17.2187 39.248 17.448C39.248 17.6773 39.1653 17.8773 39 18.048C38.84 18.2133 38.624 18.296 38.352 18.296ZM35.68 18.296C35.4667 18.296 35.2773 18.24 35.112 18.128C34.9467 18.016 34.816 17.864 34.72 17.672C34.624 17.48 34.576 17.2667 34.576 17.032C34.576 16.648 34.7013 16.272 34.952 15.904C35.208 15.5307 35.568 15.224 36.032 14.984L36.928 15.464C36.624 15.6133 36.3653 15.7867 36.152 15.984C35.944 16.1813 35.8027 16.4133 35.728 16.68C35.9787 16.7013 36.1813 16.7787 36.336 16.912C36.496 17.04 36.576 17.2187 36.576 17.448C36.576 17.6773 36.4933 17.8773 36.328 18.048C36.168 18.2133 35.952 18.296 35.68 18.296ZM42.1659 25V14.952H45.3979C46.5019 14.952 47.3445 15.232 47.9259 15.792C48.5125 16.3467 48.8059 17.1013 48.8059 18.056C48.8059 19 48.5125 19.7493 47.9259 20.304C47.3445 20.8533 46.5019 21.128 45.3979 21.128H43.4299V25H42.1659ZM43.4299 20.04H45.3979C46.0965 20.04 46.6245 19.8613 46.9819 19.504C47.3445 19.1467 47.5259 18.664 47.5259 18.056C47.5259 17.4373 47.3445 16.944 46.9819 16.576C46.6245 16.208 46.0965 16.024 45.3979 16.024H43.4299V20.04ZM51.2172 25V14.088H52.4652V25H51.2172ZM60.5976 25L60.4376 23.32V20.04C60.4376 19.352 60.291 18.8587 59.9976 18.56C59.7043 18.256 59.2643 18.104 58.6776 18.104C58.347 18.104 58.0456 18.152 57.7736 18.248C57.507 18.344 57.2936 18.4933 57.1336 18.696C56.979 18.8933 56.9016 19.1493 56.9016 19.464H55.5096C55.5096 18.9093 55.6456 18.464 55.9176 18.128C56.1896 17.7867 56.563 17.5413 57.0376 17.392C57.5176 17.2373 58.0643 17.16 58.6776 17.16C59.2643 17.16 59.7843 17.2587 60.2376 17.456C60.691 17.6533 61.0456 17.968 61.3016 18.4C61.5576 18.8267 61.6856 19.384 61.6856 20.072V25H60.5976ZM57.9896 25.192C57.3603 25.192 56.8403 25.08 56.4296 24.856C56.019 24.632 55.7123 24.3413 55.5096 23.984C55.307 23.6267 55.2056 23.2507 55.2056 22.856C55.2056 22.3387 55.3336 21.9173 55.5896 21.592C55.851 21.2667 56.2056 21.0293 56.6536 20.88C57.1016 20.7253 57.6056 20.648 58.1656 20.648C58.5656 20.648 58.9656 20.688 59.3656 20.768C59.771 20.848 60.1656 20.9573 60.5496 21.096V21.88C60.2296 21.752 59.867 21.6507 59.4616 21.576C59.0616 21.5013 58.6936 21.464 58.3576 21.464C57.8456 21.464 57.4136 21.5707 57.0616 21.784C56.7096 21.992 56.5336 22.3493 56.5336 22.856C56.5336 23.2293 56.667 23.5493 56.9336 23.816C57.2056 24.0827 57.6376 24.216 58.2296 24.216C58.6456 24.216 59.019 24.12 59.3496 23.928C59.6856 23.7307 59.9496 23.4853 60.1416 23.192C60.339 22.8987 60.4376 22.6053 60.4376 22.312H60.7416C60.7416 22.824 60.6296 23.2987 60.4056 23.736C60.187 24.1733 59.8723 24.5253 59.4616 24.792C59.051 25.0587 58.5603 25.192 57.9896 25.192ZM70.2741 25V20.504C70.2741 19.7733 70.0981 19.2187 69.7461 18.84C69.3995 18.456 68.9248 18.264 68.3221 18.264C67.8635 18.264 67.4661 18.3893 67.1301 18.64C66.7941 18.8907 66.5355 19.2507 66.3541 19.72C66.1728 20.184 66.0821 20.7387 66.0821 21.384H65.6021C65.6021 20.4933 65.7195 19.7333 65.9541 19.104C66.1888 18.4747 66.5301 17.9947 66.9781 17.664C67.4315 17.328 67.9808 17.16 68.6261 17.16C69.2288 17.16 69.7435 17.296 70.1701 17.568C70.6021 17.8347 70.9328 18.2187 71.1621 18.72C71.3915 19.2213 71.5061 19.816 71.5061 20.504V25H70.2741ZM64.8341 25V17.352H65.9061L66.0821 19.112V25H64.8341ZM77.0024 25.192C76.5864 25.192 76.213 25.112 75.8824 24.952C75.5517 24.792 75.2904 24.552 75.0984 24.232C74.9064 23.912 74.8104 23.512 74.8104 23.032V15.224H76.0424V23C76.0424 23.7893 76.4104 24.184 77.1464 24.184C77.365 24.184 77.5757 24.16 77.7784 24.112C77.9864 24.064 78.2184 23.992 78.4744 23.896L78.6504 24.792C78.3784 24.9093 78.1064 25.0053 77.8344 25.08C77.5677 25.1547 77.2904 25.192 77.0024 25.192ZM73.5784 18.216V17.352H78.4584V18.216H73.5784ZM88.2549 25.192C87.6949 25.192 87.2069 25.064 86.7909 24.808C86.3802 24.552 86.0629 24.1787 85.8389 23.688C85.6149 23.192 85.5029 22.5893 85.5029 21.88H86.0309C86.0309 22.3547 86.1295 22.7547 86.3269 23.08C86.5242 23.4053 86.7802 23.6533 87.0949 23.824C87.4149 23.9893 87.7535 24.072 88.1109 24.072C88.4949 24.072 88.8629 23.9627 89.2149 23.744C89.5669 23.52 89.8549 23.192 90.0789 22.76C90.3029 22.328 90.4149 21.7947 90.4149 21.16C90.4149 20.552 90.3109 20.032 90.1029 19.6C89.9002 19.168 89.6255 18.8373 89.2789 18.608C88.9322 18.3787 88.5482 18.264 88.1269 18.264C87.7642 18.264 87.4229 18.352 87.1029 18.528C86.7829 18.704 86.5242 18.9627 86.3269 19.304C86.1295 19.64 86.0309 20.056 86.0309 20.552H85.5029C85.5029 19.8107 85.6255 19.1893 85.8709 18.688C86.1162 18.1813 86.4495 17.8 86.8709 17.544C87.2922 17.288 87.7642 17.16 88.2869 17.16C88.8842 17.16 89.4415 17.32 89.9589 17.64C90.4762 17.96 90.8949 18.4187 91.2149 19.016C91.5349 19.6133 91.6949 20.328 91.6949 21.16C91.6949 22.0027 91.5322 22.7253 91.2069 23.328C90.8869 23.9307 90.4655 24.392 89.9429 24.712C89.4202 25.032 88.8575 25.192 88.2549 25.192ZM84.7829 28.76V17.352H85.8229L86.0309 19.144V28.76H84.7829ZM94.3022 25V17.336H95.5502V25H94.3022ZM95.1662 21.544C95.1662 20.5733 95.2596 19.768 95.4462 19.128C95.6329 18.4827 95.9049 18.0027 96.2622 17.688C96.6249 17.368 97.0649 17.208 97.5822 17.208C97.7529 17.208 97.9076 17.2213 98.0462 17.248C98.1902 17.2693 98.3342 17.304 98.4782 17.352L98.3982 18.584C98.2489 18.536 98.0862 18.496 97.9102 18.464C97.7342 18.4267 97.5769 18.408 97.4382 18.408C96.9849 18.408 96.6196 18.5387 96.3422 18.8C96.0649 19.056 95.8622 19.4187 95.7342 19.888C95.6116 20.3573 95.5502 20.9093 95.5502 21.544H95.1662ZM103.012 25.192C102.324 25.192 101.71 25.04 101.172 24.736C100.638 24.432 100.217 23.9813 99.9075 23.384C99.5982 22.7867 99.4435 22.0507 99.4435 21.176C99.4435 20.296 99.5982 19.56 99.9075 18.968C100.217 18.3707 100.638 17.92 101.172 17.616C101.71 17.312 102.324 17.16 103.012 17.16C103.694 17.16 104.302 17.312 104.836 17.616C105.374 17.92 105.796 18.3707 106.1 18.968C106.409 19.56 106.564 20.296 106.564 21.176C106.564 22.0507 106.409 22.7867 106.1 23.384C105.796 23.9813 105.374 24.432 104.836 24.736C104.302 25.04 103.694 25.192 103.012 25.192ZM102.98 24.104C103.476 24.104 103.897 23.9867 104.244 23.752C104.59 23.512 104.852 23.1733 105.028 22.736C105.209 22.2987 105.3 21.7787 105.3 21.176C105.3 20.264 105.11 19.5467 104.732 19.024C104.353 18.496 103.79 18.232 103.044 18.232C102.542 18.232 102.118 18.352 101.772 18.592C101.43 18.8267 101.169 19.1653 100.988 19.608C100.812 20.0453 100.724 20.568 100.724 21.176C100.724 22.0773 100.913 22.792 101.292 23.32C101.676 23.8427 102.238 24.104 102.98 24.104ZM112.625 25.192C112.065 25.192 111.577 25.064 111.161 24.808C110.751 24.552 110.433 24.1787 110.209 23.688C109.985 23.192 109.873 22.5893 109.873 21.88H110.401C110.401 22.3547 110.5 22.7547 110.697 23.08C110.895 23.4053 111.151 23.6533 111.465 23.824C111.785 23.9893 112.124 24.072 112.481 24.072C112.865 24.072 113.233 23.9627 113.585 23.744C113.937 23.52 114.225 23.192 114.449 22.76C114.673 22.328 114.785 21.7947 114.785 21.16C114.785 20.552 114.681 20.032 114.473 19.6C114.271 19.168 113.996 18.8373 113.649 18.608C113.303 18.3787 112.919 18.264 112.497 18.264C112.135 18.264 111.793 18.352 111.473 18.528C111.153 18.704 110.895 18.9627 110.697 19.304C110.5 19.64 110.401 20.056 110.401 20.552H109.873C109.873 19.8107 109.996 19.1893 110.241 18.688C110.487 18.1813 110.82 17.8 111.241 17.544C111.663 17.288 112.135 17.16 112.657 17.16C113.255 17.16 113.812 17.32 114.329 17.64C114.847 17.96 115.265 18.4187 115.585 19.016C115.905 19.6133 116.065 20.328 116.065 21.16C116.065 22.0027 115.903 22.7253 115.577 23.328C115.257 23.9307 114.836 24.392 114.313 24.712C113.791 25.032 113.228 25.192 112.625 25.192ZM109.153 28.76V17.352H110.193L110.401 19.144V28.76H109.153ZM123.409 25L123.249 23.32V20.04C123.249 19.352 123.102 18.8587 122.809 18.56C122.516 18.256 122.076 18.104 121.489 18.104C121.158 18.104 120.857 18.152 120.585 18.248C120.318 18.344 120.105 18.4933 119.945 18.696C119.79 18.8933 119.713 19.1493 119.713 19.464H118.321C118.321 18.9093 118.457 18.464 118.729 18.128C119.001 17.7867 119.374 17.5413 119.849 17.392C120.329 17.2373 120.876 17.16 121.489 17.16C122.076 17.16 122.596 17.2587 123.049 17.456C123.502 17.6533 123.857 17.968 124.113 18.4C124.369 18.8267 124.497 19.384 124.497 20.072V25H123.409ZM120.801 25.192C120.172 25.192 119.652 25.08 119.241 24.856C118.83 24.632 118.524 24.3413 118.321 23.984C118.118 23.6267 118.017 23.2507 118.017 22.856C118.017 22.3387 118.145 21.9173 118.401 21.592C118.662 21.2667 119.017 21.0293 119.465 20.88C119.913 20.7253 120.417 20.648 120.977 20.648C121.377 20.648 121.777 20.688 122.177 20.768C122.582 20.848 122.977 20.9573 123.361 21.096V21.88C123.041 21.752 122.678 21.6507 122.273 21.576C121.873 21.5013 121.505 21.464 121.169 21.464C120.657 21.464 120.225 21.5707 119.873 21.784C119.521 21.992 119.345 22.3493 119.345 22.856C119.345 23.2293 119.478 23.5493 119.745 23.816C120.017 24.0827 120.449 24.216 121.041 24.216C121.457 24.216 121.83 24.12 122.161 23.928C122.497 23.7307 122.761 23.4853 122.953 23.192C123.15 22.8987 123.249 22.6053 123.249 22.312H123.553C123.553 22.824 123.441 23.2987 123.217 23.736C122.998 24.1733 122.684 24.5253 122.273 24.792C121.862 25.0587 121.372 25.192 120.801 25.192ZM130.349 28.936C129.565 28.936 128.885 28.824 128.309 28.6C127.733 28.3813 127.285 28.0853 126.965 27.712C126.651 27.344 126.493 26.936 126.493 26.488C126.493 25.896 126.709 25.4427 127.141 25.128C127.579 24.8187 128.141 24.664 128.829 24.664L129.517 25.096C128.941 25.096 128.496 25.216 128.181 25.456C127.867 25.696 127.709 26.024 127.709 26.44C127.709 26.856 127.933 27.208 128.381 27.496C128.829 27.784 129.485 27.928 130.349 27.928C130.989 27.928 131.549 27.8347 132.029 27.648C132.515 27.4667 132.891 27.2267 133.157 26.928C133.429 26.6347 133.565 26.3173 133.565 25.976C133.565 25.736 133.477 25.528 133.301 25.352C133.125 25.1813 132.856 25.096 132.493 25.096H129.517C129 25.096 128.552 25.0187 128.173 24.864C127.8 24.704 127.512 24.496 127.309 24.24C127.107 23.984 127.005 23.704 127.005 23.4C127.005 23.08 127.096 22.808 127.277 22.584C127.459 22.36 127.693 22.1893 127.981 22.072C128.275 21.9547 128.589 21.896 128.925 21.896L129.165 22.36C129.005 22.36 128.843 22.3973 128.677 22.472C128.517 22.5413 128.381 22.648 128.269 22.792C128.163 22.9307 128.109 23.1067 128.109 23.32C128.109 23.5653 128.211 23.7707 128.413 23.936C128.616 24.1013 128.984 24.184 129.517 24.184H132.493C133.213 24.184 133.779 24.336 134.189 24.64C134.605 24.944 134.813 25.368 134.813 25.912C134.813 26.4133 134.635 26.8933 134.277 27.352C133.92 27.816 133.408 28.1947 132.741 28.488C132.075 28.7867 131.277 28.936 130.349 28.936ZM130.573 22.76C129.987 22.76 129.456 22.6427 128.981 22.408C128.512 22.1733 128.139 21.8453 127.861 21.424C127.589 21.0027 127.453 20.5147 127.453 19.96C127.453 19.4 127.589 18.9093 127.861 18.488C128.139 18.0667 128.512 17.7413 128.981 17.512C129.456 17.2773 129.987 17.16 130.573 17.16C131.144 17.16 131.661 17.2773 132.125 17.512C132.595 17.7413 132.968 18.0667 133.245 18.488C133.523 18.9093 133.661 19.4 133.661 19.96C133.661 20.5147 133.523 21.0027 133.245 21.424C132.968 21.8453 132.595 22.1733 132.125 22.408C131.661 22.6427 131.144 22.76 130.573 22.76ZM130.573 21.864C131.16 21.864 131.616 21.6827 131.941 21.32C132.267 20.9573 132.429 20.504 132.429 19.96C132.429 19.4 132.267 18.9467 131.941 18.6C131.616 18.248 131.16 18.072 130.573 18.072C129.992 18.072 129.533 18.248 129.197 18.6C128.867 18.9467 128.701 19.4 128.701 19.96C128.701 20.504 128.867 20.9573 129.197 21.32C129.533 21.6827 129.992 21.864 130.573 21.864ZM133.085 18.376L132.493 18.136C132.493 17.688 132.581 17.296 132.757 16.96C132.933 16.6187 133.184 16.3547 133.509 16.168C133.835 15.976 134.221 15.88 134.669 15.88L134.573 17.112C134.093 17.112 133.725 17.216 133.469 17.424C133.213 17.6267 133.085 17.944 133.085 18.376ZM141.573 25L141.413 23.32V20.04C141.413 19.352 141.266 18.8587 140.973 18.56C140.679 18.256 140.239 18.104 139.653 18.104C139.322 18.104 139.021 18.152 138.749 18.248C138.482 18.344 138.269 18.4933 138.109 18.696C137.954 18.8933 137.877 19.1493 137.877 19.464H136.485C136.485 18.9093 136.621 18.464 136.893 18.128C137.165 17.7867 137.538 17.5413 138.013 17.392C138.493 17.2373 139.039 17.16 139.653 17.16C140.239 17.16 140.759 17.2587 141.213 17.456C141.666 17.6533 142.021 17.968 142.277 18.4C142.533 18.8267 142.661 19.384 142.661 20.072V25H141.573ZM138.965 25.192C138.335 25.192 137.815 25.08 137.405 24.856C136.994 24.632 136.687 24.3413 136.485 23.984C136.282 23.6267 136.181 23.2507 136.181 22.856C136.181 22.3387 136.309 21.9173 136.565 21.592C136.826 21.2667 137.181 21.0293 137.629 20.88C138.077 20.7253 138.581 20.648 139.141 20.648C139.541 20.648 139.941 20.688 140.341 20.768C140.746 20.848 141.141 20.9573 141.525 21.096V21.88C141.205 21.752 140.842 21.6507 140.437 21.576C140.037 21.5013 139.669 21.464 139.333 21.464C138.821 21.464 138.389 21.5707 138.037 21.784C137.685 21.992 137.509 22.3493 137.509 22.856C137.509 23.2293 137.642 23.5493 137.909 23.816C138.181 24.0827 138.613 24.216 139.205 24.216C139.621 24.216 139.994 24.12 140.325 23.928C140.661 23.7307 140.925 23.4853 141.117 23.192C141.314 22.8987 141.413 22.6053 141.413 22.312H141.717C141.717 22.824 141.605 23.2987 141.381 23.736C141.162 24.1733 140.847 24.5253 140.437 24.792C140.026 25.0587 139.535 25.192 138.965 25.192ZM148.161 25.192C147.745 25.192 147.372 25.112 147.041 24.952C146.71 24.792 146.449 24.552 146.257 24.232C146.065 23.912 145.969 23.512 145.969 23.032V15.224H147.201V23C147.201 23.7893 147.569 24.184 148.305 24.184C148.524 24.184 148.734 24.16 148.937 24.112C149.145 24.064 149.377 23.992 149.633 23.896L149.809 24.792C149.537 24.9093 149.265 25.0053 148.993 25.08C148.726 25.1547 148.449 25.192 148.161 25.192ZM144.737 18.216V17.352H149.617V18.216H144.737ZM152.689 15.544C152.433 15.544 152.23 15.472 152.081 15.328C151.931 15.1787 151.857 14.984 151.857 14.744C151.857 14.5093 151.931 14.3227 152.081 14.184C152.23 14.0453 152.433 13.976 152.689 13.976C152.945 13.976 153.147 14.0453 153.297 14.184C153.446 14.3227 153.521 14.5093 153.521 14.744C153.521 14.984 153.446 15.1787 153.297 15.328C153.147 15.472 152.945 15.544 152.689 15.544ZM152.065 25V17.336H153.313V25H152.065ZM159.678 25.192C158.99 25.192 158.377 25.04 157.838 24.736C157.305 24.432 156.884 23.9813 156.574 23.384C156.265 22.7867 156.11 22.0507 156.11 21.176C156.11 20.296 156.265 19.56 156.574 18.968C156.884 18.3707 157.305 17.92 157.838 17.616C158.377 17.312 158.99 17.16 159.678 17.16C160.361 17.16 160.969 17.312 161.502 17.616C162.041 17.92 162.462 18.3707 162.766 18.968C163.076 19.56 163.23 20.296 163.23 21.176C163.23 22.0507 163.076 22.7867 162.766 23.384C162.462 23.9813 162.041 24.432 161.502 24.736C160.969 25.04 160.361 25.192 159.678 25.192ZM159.646 24.104C160.142 24.104 160.564 23.9867 160.91 23.752C161.257 23.512 161.518 23.1733 161.694 22.736C161.876 22.2987 161.966 21.7787 161.966 21.176C161.966 20.264 161.777 19.5467 161.398 19.024C161.02 18.496 160.457 18.232 159.71 18.232C159.209 18.232 158.785 18.352 158.438 18.592C158.097 18.8267 157.836 19.1653 157.654 19.608C157.478 20.0453 157.39 20.568 157.39 21.176C157.39 22.0773 157.58 22.792 157.958 23.32C158.342 23.8427 158.905 24.104 159.646 24.104ZM171.26 25V20.504C171.26 19.7733 171.084 19.2187 170.732 18.84C170.386 18.456 169.911 18.264 169.308 18.264C168.85 18.264 168.452 18.3893 168.116 18.64C167.78 18.8907 167.522 19.2507 167.34 19.72C167.159 20.184 167.068 20.7387 167.068 21.384H166.588C166.588 20.4933 166.706 19.7333 166.94 19.104C167.175 18.4747 167.516 17.9947 167.964 17.664C168.418 17.328 168.967 17.16 169.612 17.16C170.215 17.16 170.73 17.296 171.156 17.568C171.588 17.8347 171.919 18.2187 172.148 18.72C172.378 19.2213 172.492 19.816 172.492 20.504V25H171.26ZM165.82 25V17.352H166.892L167.068 19.112V25H165.82ZM180.297 15.544C180.041 15.544 179.839 15.472 179.689 15.328C179.54 15.1787 179.465 14.984 179.465 14.744C179.465 14.5093 179.54 14.3227 179.689 14.184C179.839 14.0453 180.041 13.976 180.297 13.976C180.553 13.976 180.756 14.0453 180.905 14.184C181.055 14.3227 181.129 14.5093 181.129 14.744C181.129 14.984 181.055 15.1787 180.905 15.328C180.756 15.472 180.553 15.544 180.297 15.544ZM179.673 25V17.336H180.921V25H179.673ZM187.271 25.192C186.53 25.192 185.911 25.088 185.415 24.88C184.919 24.6667 184.543 24.376 184.287 24.008C184.031 23.6347 183.895 23.208 183.879 22.728H185.079C185.106 23.2133 185.3 23.5787 185.663 23.824C186.031 24.064 186.53 24.184 187.159 24.184C187.49 24.184 187.794 24.1307 188.071 24.024C188.348 23.9173 188.57 23.7707 188.735 23.584C188.9 23.3973 188.983 23.1867 188.983 22.952C188.983 22.6533 188.874 22.4187 188.655 22.248C188.436 22.0773 188.087 21.928 187.607 21.8L186.119 21.32C185.474 21.1173 184.978 20.84 184.631 20.488C184.29 20.1307 184.119 19.704 184.119 19.208C184.119 18.5893 184.391 18.0933 184.935 17.72C185.479 17.3467 186.194 17.16 187.079 17.16C188.018 17.16 188.746 17.352 189.263 17.736C189.78 18.12 190.05 18.6 190.071 19.176H188.839C188.791 18.84 188.62 18.5867 188.327 18.416C188.034 18.24 187.618 18.152 187.079 18.152C186.562 18.152 186.156 18.2693 185.863 18.504C185.575 18.7333 185.431 18.9893 185.431 19.272C185.431 19.8 185.884 20.1893 186.791 20.44L188.311 20.952C188.967 21.1493 189.468 21.408 189.815 21.728C190.167 22.048 190.343 22.456 190.343 22.952C190.343 23.336 190.218 23.6987 189.967 24.04C189.716 24.3813 189.362 24.6587 188.903 24.872C188.444 25.0853 187.9 25.192 187.271 25.192ZM199.394 25.192C198.978 25.192 198.605 25.112 198.274 24.952C197.944 24.792 197.682 24.552 197.49 24.232C197.298 23.912 197.202 23.512 197.202 23.032V15.224H198.434V23C198.434 23.7893 198.802 24.184 199.538 24.184C199.757 24.184 199.968 24.16 200.17 24.112C200.378 24.064 200.61 23.992 200.866 23.896L201.042 24.792C200.77 24.9093 200.498 25.0053 200.226 25.08C199.96 25.1547 199.682 25.192 199.394 25.192ZM195.97 18.216V17.352H200.85V18.216H195.97ZM208.658 25V20.504C208.658 19.7733 208.482 19.2187 208.13 18.84C207.783 18.456 207.309 18.264 206.706 18.264C206.247 18.264 205.85 18.3893 205.514 18.64C205.178 18.8907 204.919 19.2507 204.738 19.72C204.557 20.184 204.466 20.7387 204.466 21.384H203.986C203.986 20.4933 204.103 19.7333 204.338 19.104C204.573 18.4747 204.914 17.9947 205.362 17.664C205.815 17.328 206.365 17.16 207.01 17.16C207.613 17.16 208.127 17.296 208.554 17.568C208.986 17.8347 209.317 18.2187 209.546 18.72C209.775 19.2213 209.89 19.816 209.89 20.504V25H208.658ZM203.218 25V14.088H204.466V25H203.218ZM215.69 25.192C215.029 25.192 214.437 25.024 213.914 24.688C213.397 24.3467 212.986 23.8747 212.682 23.272C212.383 22.6693 212.234 21.976 212.234 21.192C212.234 20.3547 212.383 19.6347 212.682 19.032C212.981 18.4293 213.389 17.968 213.906 17.648C214.429 17.3227 215.023 17.16 215.69 17.16C216.271 17.16 216.767 17.2773 217.178 17.512C217.589 17.7467 217.919 18.064 218.17 18.464C218.421 18.864 218.594 19.3173 218.69 19.824C218.791 20.3253 218.821 20.8453 218.778 21.384H213.242V20.616H217.954L217.586 20.856C217.602 20.5413 217.583 20.2267 217.53 19.912C217.482 19.5973 217.389 19.3093 217.25 19.048C217.111 18.7813 216.917 18.568 216.666 18.408C216.415 18.248 216.095 18.168 215.706 18.168C215.215 18.168 214.805 18.2933 214.474 18.544C214.143 18.7947 213.895 19.1253 213.73 19.536C213.565 19.9413 213.482 20.3813 213.482 20.856V21.368C213.482 21.9013 213.562 22.3787 213.722 22.8C213.887 23.2213 214.133 23.5547 214.458 23.8C214.783 24.0453 215.194 24.168 215.69 24.168C216.186 24.168 216.594 24.048 216.914 23.808C217.234 23.568 217.429 23.2133 217.498 22.744H218.794C218.714 23.2507 218.533 23.688 218.25 24.056C217.967 24.4187 217.607 24.6987 217.17 24.896C216.733 25.0933 216.239 25.192 215.69 25.192ZM39.088 45.192C38.528 45.192 38.04 45.064 37.624 44.808C37.2133 44.552 36.896 44.1787 36.672 43.688C36.448 43.192 36.336 42.5893 36.336 41.88H36.864C36.864 42.3547 36.9627 42.7547 37.16 43.08C37.3573 43.4053 37.6133 43.6533 37.928 43.824C38.248 43.9893 38.5867 44.072 38.944 44.072C39.328 44.072 39.696 43.9627 40.048 43.744C40.4 43.52 40.688 43.192 40.912 42.76C41.136 42.328 41.248 41.7947 41.248 41.16C41.248 40.552 41.144 40.032 40.936 39.6C40.7333 39.168 40.4587 38.8373 40.112 38.608C39.7653 38.3787 39.3813 38.264 38.96 38.264C38.5973 38.264 38.256 38.352 37.936 38.528C37.616 38.704 37.3573 38.9627 37.16 39.304C36.9627 39.64 36.864 40.056 36.864 40.552H36.336C36.336 39.8107 36.4587 39.1893 36.704 38.688C36.9493 38.1813 37.2827 37.8 37.704 37.544C38.1253 37.288 38.5973 37.16 39.12 37.16C39.7173 37.16 40.2747 37.32 40.792 37.64C41.3093 37.96 41.728 38.4187 42.048 39.016C42.368 39.6133 42.528 40.328 42.528 41.16C42.528 42.0027 42.3653 42.7253 42.04 43.328C41.72 43.9307 41.2987 44.392 40.776 44.712C40.2533 45.032 39.6907 45.192 39.088 45.192ZM35.616 48.76V37.352H36.656L36.864 39.144V48.76H35.616ZM45.1354 45V37.336H46.3834V45H45.1354ZM45.9994 41.544C45.9994 40.5733 46.0927 39.768 46.2794 39.128C46.466 38.4827 46.738 38.0027 47.0954 37.688C47.458 37.368 47.898 37.208 48.4154 37.208C48.586 37.208 48.7407 37.2213 48.8794 37.248C49.0234 37.2693 49.1674 37.304 49.3114 37.352L49.2314 38.584C49.082 38.536 48.9194 38.496 48.7434 38.464C48.5674 38.4267 48.41 38.408 48.2714 38.408C47.818 38.408 47.4527 38.5387 47.1754 38.8C46.898 39.056 46.6954 39.4187 46.5674 39.888C46.4447 40.3573 46.3834 40.9093 46.3834 41.544H45.9994ZM53.8446 45.192C53.1566 45.192 52.5433 45.04 52.0046 44.736C51.4713 44.432 51.05 43.9813 50.7406 43.384C50.4313 42.7867 50.2766 42.0507 50.2766 41.176C50.2766 40.296 50.4313 39.56 50.7406 38.968C51.05 38.3707 51.4713 37.92 52.0046 37.616C52.5433 37.312 53.1566 37.16 53.8446 37.16C54.5273 37.16 55.1353 37.312 55.6686 37.616C56.2073 37.92 56.6286 38.3707 56.9326 38.968C57.242 39.56 57.3966 40.296 57.3966 41.176C57.3966 42.0507 57.242 42.7867 56.9326 43.384C56.6286 43.9813 56.2073 44.432 55.6686 44.736C55.1353 45.04 54.5273 45.192 53.8446 45.192ZM53.8126 44.104C54.3086 44.104 54.73 43.9867 55.0766 43.752C55.4233 43.512 55.6846 43.1733 55.8606 42.736C56.042 42.2987 56.1326 41.7787 56.1326 41.176C56.1326 40.264 55.9433 39.5467 55.5646 39.024C55.186 38.496 54.6233 38.232 53.8766 38.232C53.3753 38.232 52.9513 38.352 52.6046 38.592C52.2633 38.8267 52.002 39.1653 51.8206 39.608C51.6446 40.0453 51.5566 40.568 51.5566 41.176C51.5566 42.0773 51.746 42.792 52.1246 43.32C52.5086 43.8427 53.0713 44.104 53.8126 44.104ZM62.6746 45.192C62.0613 45.192 61.488 45.0267 60.9546 44.696C60.4266 44.3653 60 43.8987 59.6746 43.296C59.3493 42.6933 59.1866 41.9813 59.1866 41.16C59.1866 40.3173 59.3493 39.5973 59.6746 39C60 38.4027 60.4266 37.9467 60.9546 37.632C61.488 37.3173 62.0613 37.16 62.6746 37.16C63.1066 37.16 63.4933 37.2267 63.8346 37.36C64.1813 37.488 64.4826 37.6667 64.7386 37.896C64.9946 38.1253 65.2053 38.3867 65.3706 38.68C65.5413 38.968 65.6666 39.272 65.7466 39.592L64.4666 39.704C64.3333 39.2613 64.1093 38.912 63.7946 38.656C63.4853 38.3947 63.1066 38.264 62.6586 38.264C62.28 38.264 61.9226 38.3733 61.5866 38.592C61.256 38.8053 60.9866 39.128 60.7786 39.56C60.5706 39.9867 60.4666 40.52 60.4666 41.16C60.4666 41.752 60.56 42.2667 60.7466 42.704C60.9386 43.136 61.2 43.472 61.5306 43.712C61.8613 43.952 62.2373 44.072 62.6586 44.072C63.2506 44.072 63.6986 43.928 64.0026 43.64C64.312 43.3467 64.4666 42.9413 64.4666 42.424H65.7466C65.7466 42.9573 65.6213 43.432 65.3706 43.848C65.12 44.264 64.7626 44.592 64.2986 44.832C63.84 45.072 63.2986 45.192 62.6746 45.192ZM71.0526 45.192C70.3913 45.192 69.7993 45.024 69.2766 44.688C68.7593 44.3467 68.3486 43.8747 68.0446 43.272C67.746 42.6693 67.5966 41.976 67.5966 41.192C67.5966 40.3547 67.746 39.6347 68.0446 39.032C68.3433 38.4293 68.7513 37.968 69.2686 37.648C69.7913 37.3227 70.386 37.16 71.0526 37.16C71.634 37.16 72.13 37.2773 72.5406 37.512C72.9513 37.7467 73.282 38.064 73.5326 38.464C73.7833 38.864 73.9566 39.3173 74.0526 39.824C74.154 40.3253 74.1833 40.8453 74.1406 41.384H68.6046V40.616H73.3166L72.9486 40.856C72.9646 40.5413 72.946 40.2267 72.8926 39.912C72.8446 39.5973 72.7513 39.3093 72.6126 39.048C72.474 38.7813 72.2793 38.568 72.0286 38.408C71.778 38.248 71.458 38.168 71.0686 38.168C70.578 38.168 70.1673 38.2933 69.8366 38.544C69.506 38.7947 69.258 39.1253 69.0926 39.536C68.9273 39.9413 68.8446 40.3813 68.8446 40.856V41.368C68.8446 41.9013 68.9246 42.3787 69.0846 42.8C69.25 43.2213 69.4953 43.5547 69.8206 43.8C70.146 44.0453 70.5566 44.168 71.0526 44.168C71.5486 44.168 71.9566 44.048 72.2766 43.808C72.5966 43.568 72.7913 43.2133 72.8606 42.744H74.1566C74.0766 43.2507 73.8953 43.688 73.6126 44.056C73.33 44.4187 72.97 44.6987 72.5326 44.896C72.0953 45.0933 71.602 45.192 71.0526 45.192ZM79.5274 45.192C78.786 45.192 78.1674 45.088 77.6714 44.88C77.1754 44.6667 76.7994 44.376 76.5434 44.008C76.2874 43.6347 76.1514 43.208 76.1354 42.728H77.3354C77.362 43.2133 77.5567 43.5787 77.9194 43.824C78.2874 44.064 78.786 44.184 79.4154 44.184C79.746 44.184 80.05 44.1307 80.3274 44.024C80.6047 43.9173 80.826 43.7707 80.9914 43.584C81.1567 43.3973 81.2394 43.1867 81.2394 42.952C81.2394 42.6533 81.13 42.4187 80.9114 42.248C80.6927 42.0773 80.3434 41.928 79.8634 41.8L78.3754 41.32C77.73 41.1173 77.234 40.84 76.8874 40.488C76.546 40.1307 76.3754 39.704 76.3754 39.208C76.3754 38.5893 76.6474 38.0933 77.1914 37.72C77.7354 37.3467 78.45 37.16 79.3354 37.16C80.274 37.16 81.002 37.352 81.5194 37.736C82.0367 38.12 82.306 38.6 82.3274 39.176H81.0954C81.0474 38.84 80.8767 38.5867 80.5834 38.416C80.29 38.24 79.874 38.152 79.3354 38.152C78.818 38.152 78.4127 38.2693 78.1194 38.504C77.8314 38.7333 77.6874 38.9893 77.6874 39.272C77.6874 39.8 78.1407 40.1893 79.0474 40.44L80.5674 40.952C81.2234 41.1493 81.7247 41.408 82.0714 41.728C82.4234 42.048 82.5994 42.456 82.5994 42.952C82.5994 43.336 82.474 43.6987 82.2234 44.04C81.9727 44.3813 81.618 44.6587 81.1594 44.872C80.7007 45.0853 80.1567 45.192 79.5274 45.192ZM88.0936 45.192C87.3523 45.192 86.7336 45.088 86.2376 44.88C85.7416 44.6667 85.3656 44.376 85.1096 44.008C84.8536 43.6347 84.7176 43.208 84.7016 42.728H85.9016C85.9283 43.2133 86.123 43.5787 86.4856 43.824C86.8536 44.064 87.3523 44.184 87.9816 44.184C88.3123 44.184 88.6163 44.1307 88.8936 44.024C89.171 43.9173 89.3923 43.7707 89.5576 43.584C89.723 43.3973 89.8056 43.1867 89.8056 42.952C89.8056 42.6533 89.6963 42.4187 89.4776 42.248C89.259 42.0773 88.9096 41.928 88.4296 41.8L86.9416 41.32C86.2963 41.1173 85.8003 40.84 85.4536 40.488C85.1123 40.1307 84.9416 39.704 84.9416 39.208C84.9416 38.5893 85.2136 38.0933 85.7576 37.72C86.3016 37.3467 87.0163 37.16 87.9016 37.16C88.8403 37.16 89.5683 37.352 90.0856 37.736C90.603 38.12 90.8723 38.6 90.8936 39.176H89.6616C89.6136 38.84 89.443 38.5867 89.1496 38.416C88.8563 38.24 88.4403 38.152 87.9016 38.152C87.3843 38.152 86.979 38.2693 86.6856 38.504C86.3976 38.7333 86.2536 38.9893 86.2536 39.272C86.2536 39.8 86.707 40.1893 87.6136 40.44L89.1336 40.952C89.7896 41.1493 90.291 41.408 90.6376 41.728C90.9896 42.048 91.1656 42.456 91.1656 42.952C91.1656 43.336 91.0403 43.6987 90.7896 44.04C90.539 44.3813 90.1843 44.6587 89.7256 44.872C89.267 45.0853 88.723 45.192 88.0936 45.192ZM100.633 45.192C99.9447 45.192 99.3314 45.04 98.7927 44.736C98.2594 44.432 97.8381 43.9813 97.5287 43.384C97.2194 42.7867 97.0647 42.0507 97.0647 41.176C97.0647 40.296 97.2194 39.56 97.5287 38.968C97.8381 38.3707 98.2594 37.92 98.7927 37.616C99.3314 37.312 99.9447 37.16 100.633 37.16C101.315 37.16 101.923 37.312 102.457 37.616C102.995 37.92 103.417 38.3707 103.721 38.968C104.03 39.56 104.185 40.296 104.185 41.176C104.185 42.0507 104.03 42.7867 103.721 43.384C103.417 43.9813 102.995 44.432 102.457 44.736C101.923 45.04 101.315 45.192 100.633 45.192ZM100.601 44.104C101.097 44.104 101.518 43.9867 101.865 43.752C102.211 43.512 102.473 43.1733 102.649 42.736C102.83 42.2987 102.921 41.7787 102.921 41.176C102.921 40.264 102.731 39.5467 102.353 39.024C101.974 38.496 101.411 38.232 100.665 38.232C100.163 38.232 99.7394 38.352 99.3927 38.592C99.0514 38.8267 98.7901 39.1653 98.6087 39.608C98.4327 40.0453 98.3447 40.568 98.3447 41.176C98.3447 42.0773 98.5341 42.792 98.9127 43.32C99.2967 43.8427 99.8594 44.104 100.601 44.104ZM107.191 45V36.168C107.191 35.6613 107.287 35.248 107.479 34.928C107.676 34.6027 107.937 34.3627 108.263 34.208C108.593 34.0533 108.961 33.976 109.367 33.976C109.585 33.976 109.807 33.992 110.031 34.024C110.26 34.056 110.487 34.104 110.711 34.168L110.471 35.16C110.311 35.096 110.151 35.048 109.991 35.016C109.836 34.984 109.687 34.968 109.543 34.968C109.372 34.968 109.201 35 109.031 35.064C108.86 35.128 108.719 35.248 108.607 35.424C108.495 35.6 108.439 35.8533 108.439 36.184V45H107.191ZM105.943 38.216V37.352H110.023V38.216H105.943ZM117.08 35.544C116.824 35.544 116.621 35.472 116.472 35.328C116.323 35.1787 116.248 34.984 116.248 34.744C116.248 34.5093 116.323 34.3227 116.472 34.184C116.621 34.0453 116.824 33.976 117.08 33.976C117.336 33.976 117.539 34.0453 117.688 34.184C117.837 34.3227 117.912 34.5093 117.912 34.744C117.912 34.984 117.837 35.1787 117.688 35.328C117.539 35.472 117.336 35.544 117.08 35.544ZM116.456 45V37.336H117.704V45H116.456ZM126.742 45V40.504C126.742 39.7733 126.566 39.2187 126.214 38.84C125.867 38.456 125.392 38.264 124.79 38.264C124.331 38.264 123.934 38.3893 123.598 38.64C123.262 38.8907 123.003 39.2507 122.822 39.72C122.64 40.184 122.55 40.7387 122.55 41.384H122.07C122.07 40.4933 122.187 39.7333 122.422 39.104C122.656 38.4747 122.998 37.9947 123.446 37.664C123.899 37.328 124.448 37.16 125.094 37.16C125.696 37.16 126.211 37.296 126.638 37.568C127.07 37.8347 127.4 38.2187 127.63 38.72C127.859 39.2213 127.974 39.816 127.974 40.504V45H126.742ZM121.302 45V37.352H122.374L122.55 39.112V45H121.302ZM133.806 45.192C133.193 45.192 132.619 45.0267 132.086 44.696C131.558 44.3653 131.131 43.8987 130.806 43.296C130.481 42.6933 130.318 41.9813 130.318 41.16C130.318 40.3173 130.481 39.5973 130.806 39C131.131 38.4027 131.558 37.9467 132.086 37.632C132.619 37.3173 133.193 37.16 133.806 37.16C134.238 37.16 134.625 37.2267 134.966 37.36C135.313 37.488 135.614 37.6667 135.87 37.896C136.126 38.1253 136.337 38.3867 136.502 38.68C136.673 38.968 136.798 39.272 136.878 39.592L135.598 39.704C135.465 39.2613 135.241 38.912 134.926 38.656C134.617 38.3947 134.238 38.264 133.79 38.264C133.411 38.264 133.054 38.3733 132.718 38.592C132.387 38.8053 132.118 39.128 131.91 39.56C131.702 39.9867 131.598 40.52 131.598 41.16C131.598 41.752 131.691 42.2667 131.878 42.704C132.07 43.136 132.331 43.472 132.662 43.712C132.993 43.952 133.369 44.072 133.79 44.072C134.382 44.072 134.83 43.928 135.134 43.64C135.443 43.3467 135.598 42.9413 135.598 42.424H136.878C136.878 42.9573 136.753 43.432 136.502 43.848C136.251 44.264 135.894 44.592 135.43 44.832C134.971 45.072 134.43 45.192 133.806 45.192ZM139.528 45V37.336H140.776V45H139.528ZM140.392 41.544C140.392 40.5733 140.485 39.768 140.672 39.128C140.859 38.4827 141.131 38.0027 141.488 37.688C141.851 37.368 142.291 37.208 142.808 37.208C142.979 37.208 143.133 37.2213 143.272 37.248C143.416 37.2693 143.56 37.304 143.704 37.352L143.624 38.584C143.475 38.536 143.312 38.496 143.136 38.464C142.96 38.4267 142.803 38.408 142.664 38.408C142.211 38.408 141.845 38.5387 141.568 38.8C141.291 39.056 141.088 39.4187 140.96 39.888C140.837 40.3573 140.776 40.9093 140.776 41.544H140.392ZM148.125 45.192C147.464 45.192 146.872 45.024 146.349 44.688C145.832 44.3467 145.421 43.8747 145.117 43.272C144.818 42.6693 144.669 41.976 144.669 41.192C144.669 40.3547 144.818 39.6347 145.117 39.032C145.416 38.4293 145.824 37.968 146.341 37.648C146.864 37.3227 147.458 37.16 148.125 37.16C148.706 37.16 149.202 37.2773 149.613 37.512C150.024 37.7467 150.354 38.064 150.605 38.464C150.856 38.864 151.029 39.3173 151.125 39.824C151.226 40.3253 151.256 40.8453 151.213 41.384H145.677V40.616H150.389L150.021 40.856C150.037 40.5413 150.018 40.2267 149.965 39.912C149.917 39.5973 149.824 39.3093 149.685 39.048C149.546 38.7813 149.352 38.568 149.101 38.408C148.85 38.248 148.53 38.168 148.141 38.168C147.65 38.168 147.24 38.2933 146.909 38.544C146.578 38.7947 146.33 39.1253 146.165 39.536C146 39.9413 145.917 40.3813 145.917 40.856V41.368C145.917 41.9013 145.997 42.3787 146.157 42.8C146.322 43.2213 146.568 43.5547 146.893 43.8C147.218 44.0453 147.629 44.168 148.125 44.168C148.621 44.168 149.029 44.048 149.349 43.808C149.669 43.568 149.864 43.2133 149.933 42.744H151.229C151.149 43.2507 150.968 43.688 150.685 44.056C150.402 44.4187 150.042 44.6987 149.605 44.896C149.168 45.0933 148.674 45.192 148.125 45.192ZM158.584 45L158.424 43.32V40.04C158.424 39.352 158.277 38.8587 157.984 38.56C157.691 38.256 157.251 38.104 156.664 38.104C156.333 38.104 156.032 38.152 155.76 38.248C155.493 38.344 155.28 38.4933 155.12 38.696C154.965 38.8933 154.888 39.1493 154.888 39.464H153.496C153.496 38.9093 153.632 38.464 153.904 38.128C154.176 37.7867 154.549 37.5413 155.024 37.392C155.504 37.2373 156.051 37.16 156.664 37.16C157.251 37.16 157.771 37.2587 158.224 37.456C158.677 37.6533 159.032 37.968 159.288 38.4C159.544 38.8267 159.672 39.384 159.672 40.072V45H158.584ZM155.976 45.192C155.347 45.192 154.827 45.08 154.416 44.856C154.005 44.632 153.699 44.3413 153.496 43.984C153.293 43.6267 153.192 43.2507 153.192 42.856C153.192 42.3387 153.32 41.9173 153.576 41.592C153.837 41.2667 154.192 41.0293 154.64 40.88C155.088 40.7253 155.592 40.648 156.152 40.648C156.552 40.648 156.952 40.688 157.352 40.768C157.757 40.848 158.152 40.9573 158.536 41.096V41.88C158.216 41.752 157.853 41.6507 157.448 41.576C157.048 41.5013 156.68 41.464 156.344 41.464C155.832 41.464 155.4 41.5707 155.048 41.784C154.696 41.992 154.52 42.3493 154.52 42.856C154.52 43.2293 154.653 43.5493 154.92 43.816C155.192 44.0827 155.624 44.216 156.216 44.216C156.632 44.216 157.005 44.12 157.336 43.928C157.672 43.7307 157.936 43.4853 158.128 43.192C158.325 42.8987 158.424 42.6053 158.424 42.312H158.728C158.728 42.824 158.616 43.2987 158.392 43.736C158.173 44.1733 157.859 44.5253 157.448 44.792C157.037 45.0587 156.547 45.192 155.976 45.192ZM165.572 45.192C164.831 45.192 164.212 45.088 163.716 44.88C163.22 44.6667 162.844 44.376 162.588 44.008C162.332 43.6347 162.196 43.208 162.18 42.728H163.38C163.407 43.2133 163.602 43.5787 163.964 43.824C164.332 44.064 164.831 44.184 165.46 44.184C165.791 44.184 166.095 44.1307 166.372 44.024C166.65 43.9173 166.871 43.7707 167.036 43.584C167.202 43.3973 167.284 43.1867 167.284 42.952C167.284 42.6533 167.175 42.4187 166.956 42.248C166.738 42.0773 166.388 41.928 165.908 41.8L164.42 41.32C163.775 41.1173 163.279 40.84 162.932 40.488C162.591 40.1307 162.42 39.704 162.42 39.208C162.42 38.5893 162.692 38.0933 163.236 37.72C163.78 37.3467 164.495 37.16 165.38 37.16C166.319 37.16 167.047 37.352 167.564 37.736C168.082 38.12 168.351 38.6 168.372 39.176H167.14C167.092 38.84 166.922 38.5867 166.628 38.416C166.335 38.24 165.919 38.152 165.38 38.152C164.863 38.152 164.458 38.2693 164.164 38.504C163.876 38.7333 163.732 38.9893 163.732 39.272C163.732 39.8 164.186 40.1893 165.092 40.44L166.612 40.952C167.268 41.1493 167.77 41.408 168.116 41.728C168.468 42.048 168.644 42.456 168.644 42.952C168.644 43.336 168.519 43.6987 168.268 44.04C168.018 44.3813 167.663 44.6587 167.204 44.872C166.746 45.0853 166.202 45.192 165.572 45.192ZM172.091 35.544C171.835 35.544 171.632 35.472 171.483 35.328C171.333 35.1787 171.259 34.984 171.259 34.744C171.259 34.5093 171.333 34.3227 171.483 34.184C171.632 34.0453 171.835 33.976 172.091 33.976C172.347 33.976 172.549 34.0453 172.699 34.184C172.848 34.3227 172.923 34.5093 172.923 34.744C172.923 34.984 172.848 35.1787 172.699 35.328C172.549 35.472 172.347 35.544 172.091 35.544ZM171.467 45V37.336H172.715V45H171.467ZM181.752 45V40.504C181.752 39.7733 181.576 39.2187 181.224 38.84C180.878 38.456 180.403 38.264 179.8 38.264C179.342 38.264 178.944 38.3893 178.608 38.64C178.272 38.8907 178.014 39.2507 177.832 39.72C177.651 40.184 177.56 40.7387 177.56 41.384H177.08C177.08 40.4933 177.198 39.7333 177.432 39.104C177.667 38.4747 178.008 37.9947 178.456 37.664C178.91 37.328 179.459 37.16 180.104 37.16C180.707 37.16 181.222 37.296 181.648 37.568C182.08 37.8347 182.411 38.2187 182.64 38.72C182.87 39.2213 182.984 39.816 182.984 40.504V45H181.752ZM176.312 45V37.352H177.384L177.56 39.112V45H176.312ZM188.832 48.936C188.048 48.936 187.368 48.824 186.792 48.6C186.216 48.3813 185.768 48.0853 185.448 47.712C185.134 47.344 184.976 46.936 184.976 46.488C184.976 45.896 185.192 45.4427 185.624 45.128C186.062 44.8187 186.624 44.664 187.312 44.664L188 45.096C187.424 45.096 186.979 45.216 186.664 45.456C186.35 45.696 186.192 46.024 186.192 46.44C186.192 46.856 186.416 47.208 186.864 47.496C187.312 47.784 187.968 47.928 188.832 47.928C189.472 47.928 190.032 47.8347 190.512 47.648C190.998 47.4667 191.374 47.2267 191.64 46.928C191.912 46.6347 192.048 46.3173 192.048 45.976C192.048 45.736 191.96 45.528 191.784 45.352C191.608 45.1813 191.339 45.096 190.976 45.096H188C187.483 45.096 187.035 45.0187 186.656 44.864C186.283 44.704 185.995 44.496 185.792 44.24C185.59 43.984 185.488 43.704 185.488 43.4C185.488 43.08 185.579 42.808 185.76 42.584C185.942 42.36 186.176 42.1893 186.464 42.072C186.758 41.9547 187.072 41.896 187.408 41.896L187.648 42.36C187.488 42.36 187.326 42.3973 187.16 42.472C187 42.5413 186.864 42.648 186.752 42.792C186.646 42.9307 186.592 43.1067 186.592 43.32C186.592 43.5653 186.694 43.7707 186.896 43.936C187.099 44.1013 187.467 44.184 188 44.184H190.976C191.696 44.184 192.262 44.336 192.672 44.64C193.088 44.944 193.296 45.368 193.296 45.912C193.296 46.4133 193.118 46.8933 192.76 47.352C192.403 47.816 191.891 48.1947 191.224 48.488C190.558 48.7867 189.76 48.936 188.832 48.936ZM189.056 42.76C188.47 42.76 187.939 42.6427 187.464 42.408C186.995 42.1733 186.622 41.8453 186.344 41.424C186.072 41.0027 185.936 40.5147 185.936 39.96C185.936 39.4 186.072 38.9093 186.344 38.488C186.622 38.0667 186.995 37.7413 187.464 37.512C187.939 37.2773 188.47 37.16 189.056 37.16C189.627 37.16 190.144 37.2773 190.608 37.512C191.078 37.7413 191.451 38.0667 191.728 38.488C192.006 38.9093 192.144 39.4 192.144 39.96C192.144 40.5147 192.006 41.0027 191.728 41.424C191.451 41.8453 191.078 42.1733 190.608 42.408C190.144 42.6427 189.627 42.76 189.056 42.76ZM189.056 41.864C189.643 41.864 190.099 41.6827 190.424 41.32C190.75 40.9573 190.912 40.504 190.912 39.96C190.912 39.4 190.75 38.9467 190.424 38.6C190.099 38.248 189.643 38.072 189.056 38.072C188.475 38.072 188.016 38.248 187.68 38.6C187.35 38.9467 187.184 39.4 187.184 39.96C187.184 40.504 187.35 40.9573 187.68 41.32C188.016 41.6827 188.475 41.864 189.056 41.864ZM191.568 38.376L190.976 38.136C190.976 37.688 191.064 37.296 191.24 36.96C191.416 36.6187 191.667 36.3547 191.992 36.168C192.318 35.976 192.704 35.88 193.152 35.88L193.056 37.112C192.576 37.112 192.208 37.216 191.952 37.424C191.696 37.6267 191.568 37.944 191.568 38.376ZM201.629 45.192C201.213 45.192 200.839 45.112 200.509 44.952C200.178 44.792 199.917 44.552 199.725 44.232C199.533 43.912 199.437 43.512 199.437 43.032V35.224H200.669V43C200.669 43.7893 201.037 44.184 201.773 44.184C201.991 44.184 202.202 44.16 202.405 44.112C202.613 44.064 202.845 43.992 203.101 43.896L203.277 44.792C203.005 44.9093 202.733 45.0053 202.461 45.08C202.194 45.1547 201.917 45.192 201.629 45.192ZM198.205 38.216V37.352H203.085V38.216H198.205ZM210.892 45V40.504C210.892 39.7733 210.716 39.2187 210.364 38.84C210.018 38.456 209.543 38.264 208.94 38.264C208.482 38.264 208.084 38.3893 207.748 38.64C207.412 38.8907 207.154 39.2507 206.972 39.72C206.791 40.184 206.7 40.7387 206.7 41.384H206.22C206.22 40.4933 206.338 39.7333 206.572 39.104C206.807 38.4747 207.148 37.9947 207.596 37.664C208.05 37.328 208.599 37.16 209.244 37.16C209.847 37.16 210.362 37.296 210.788 37.568C211.22 37.8347 211.551 38.2187 211.78 38.72C212.01 39.2213 212.124 39.816 212.124 40.504V45H210.892ZM205.452 45V34.088H206.7V45H205.452ZM217.924 45.192C217.263 45.192 216.671 45.024 216.148 44.688C215.631 44.3467 215.22 43.8747 214.916 43.272C214.618 42.6693 214.468 41.976 214.468 41.192C214.468 40.3547 214.618 39.6347 214.916 39.032C215.215 38.4293 215.623 37.968 216.14 37.648C216.663 37.3227 217.258 37.16 217.924 37.16C218.506 37.16 219.002 37.2773 219.412 37.512C219.823 37.7467 220.154 38.064 220.404 38.464C220.655 38.864 220.828 39.3173 220.924 39.824C221.026 40.3253 221.055 40.8453 221.012 41.384H215.476V40.616H220.188L219.82 40.856C219.836 40.5413 219.818 40.2267 219.764 39.912C219.716 39.5973 219.623 39.3093 219.484 39.048C219.346 38.7813 219.151 38.568 218.9 38.408C218.65 38.248 218.33 38.168 217.94 38.168C217.45 38.168 217.039 38.2933 216.708 38.544C216.378 38.7947 216.13 39.1253 215.964 39.536C215.799 39.9413 215.716 40.3813 215.716 40.856V41.368C215.716 41.9013 215.796 42.3787 215.956 42.8C216.122 43.2213 216.367 43.5547 216.692 43.8C217.018 44.0453 217.428 44.168 217.924 44.168C218.42 44.168 218.828 44.048 219.148 43.808C219.468 43.568 219.663 43.2133 219.732 42.744H221.028C220.948 43.2507 220.767 43.688 220.484 44.056C220.202 44.4187 219.842 44.6987 219.404 44.896C218.967 45.0933 218.474 45.192 217.924 45.192ZM41.056 65V60.504C41.056 59.7733 40.88 59.2187 40.528 58.84C40.1813 58.456 39.7067 58.264 39.104 58.264C38.6453 58.264 38.248 58.3893 37.912 58.64C37.576 58.8907 37.3173 59.2507 37.136 59.72C36.9547 60.184 36.864 60.7387 36.864 61.384H36.384C36.384 60.4933 36.5013 59.7333 36.736 59.104C36.9707 58.4747 37.312 57.9947 37.76 57.664C38.2133 57.328 38.7627 57.16 39.408 57.16C40.0107 57.16 40.5253 57.296 40.952 57.568C41.384 57.8347 41.7147 58.2187 41.944 58.72C42.1733 59.2213 42.288 59.816 42.288 60.504V65H41.056ZM35.616 65V57.352H36.688L36.864 59.112V65H35.616ZM50.6323 57.336H51.8802V65H50.6323V57.336ZM45.2082 57.336H46.4562V62.104C46.4562 62.744 46.6109 63.2293 46.9202 63.56C47.2349 63.8907 47.6829 64.056 48.2643 64.056C48.7443 64.056 49.1603 63.928 49.5122 63.672C49.8696 63.416 50.1443 63.064 50.3363 62.616C50.5336 62.1627 50.6323 61.6453 50.6323 61.064H51.0963C51.0963 61.9227 50.9709 62.656 50.7203 63.264C50.4749 63.872 50.1256 64.3387 49.6723 64.664C49.2242 64.984 48.6962 65.144 48.0883 65.144C47.5123 65.144 47.0083 65.0373 46.5763 64.824C46.1442 64.6107 45.8082 64.288 45.5682 63.856C45.3282 63.4187 45.2082 62.8667 45.2082 62.2V57.336ZM66.0318 65V60.504C66.0318 59.7733 65.8558 59.2187 65.5037 58.84C65.1571 58.456 64.6878 58.264 64.0957 58.264C63.4024 58.264 62.8717 58.5333 62.5037 59.072C62.1357 59.6053 61.9517 60.344 61.9517 61.288H61.3758C61.3758 60.6 61.4424 59.9973 61.5757 59.48C61.7144 58.9627 61.9144 58.5333 62.1757 58.192C62.4371 57.8453 62.7544 57.5867 63.1278 57.416C63.5011 57.2453 63.9251 57.16 64.3997 57.16C65.0024 57.16 65.5171 57.296 65.9438 57.568C66.3758 57.8347 66.7064 58.2187 66.9358 58.72C67.1651 59.2213 67.2797 59.816 67.2797 60.504V65H66.0318ZM55.2797 65V57.352H56.3517L56.4957 58.888C56.7357 58.3333 57.0717 57.9067 57.5037 57.608C57.9411 57.3093 58.4638 57.16 59.0718 57.16C59.6744 57.16 60.1891 57.296 60.6157 57.568C61.0477 57.8347 61.3784 58.2187 61.6077 58.72C61.8371 59.2213 61.9517 59.816 61.9517 60.504V65H60.7197V60.504C60.7197 59.7733 60.5437 59.2187 60.1918 58.84C59.8451 58.456 59.3704 58.264 58.7677 58.264C58.3091 58.264 57.9117 58.3893 57.5757 58.64C57.2397 58.8907 56.9811 59.2507 56.7997 59.72C56.6184 60.184 56.5277 60.7387 56.5277 61.384V65H55.2797ZM73.9125 65.192C73.4005 65.192 72.9365 65.0587 72.5205 64.792C72.1098 64.5253 71.7818 64.136 71.5365 63.624C71.2965 63.1067 71.1765 62.4773 71.1765 61.736H71.6565C71.6565 62.232 71.7578 62.656 71.9605 63.008C72.1685 63.3547 72.4352 63.6187 72.7605 63.8C73.0858 63.9813 73.4272 64.072 73.7845 64.072C74.1952 64.072 74.5712 63.9547 74.9125 63.72C75.2538 63.4853 75.5258 63.1493 75.7285 62.712C75.9365 62.2747 76.0405 61.752 76.0405 61.144C76.0405 60.5467 75.9392 60.0347 75.7365 59.608C75.5338 59.176 75.2592 58.8453 74.9125 58.616C74.5712 58.3813 74.1898 58.264 73.7685 58.264C73.4058 58.264 73.0618 58.3547 72.7365 58.536C72.4165 58.712 72.1552 58.9733 71.9525 59.32C71.7552 59.6667 71.6565 60.0933 71.6565 60.6H71.1765C71.1765 59.8747 71.2938 59.256 71.5285 58.744C71.7685 58.232 72.0992 57.84 72.5205 57.568C72.9418 57.296 73.4325 57.16 73.9925 57.16C74.5952 57.16 75.1472 57.3227 75.6485 57.648C76.1552 57.968 76.5605 58.4267 76.8645 59.024C77.1685 59.6213 77.3205 60.328 77.3205 61.144C77.3205 61.9653 77.1658 62.68 76.8565 63.288C76.5472 63.8907 76.1338 64.36 75.6165 64.696C75.0992 65.0267 74.5312 65.192 73.9125 65.192ZM70.4085 65V54.088H71.6565V63.208L71.2885 65H70.4085ZM82.7089 65.192C82.0475 65.192 81.4555 65.024 80.9329 64.688C80.4155 64.3467 80.0049 63.8747 79.7009 63.272C79.4022 62.6693 79.2529 61.976 79.2529 61.192C79.2529 60.3547 79.4022 59.6347 79.7009 59.032C79.9995 58.4293 80.4075 57.968 80.9249 57.648C81.4475 57.3227 82.0422 57.16 82.7089 57.16C83.2902 57.16 83.7862 57.2773 84.1969 57.512C84.6075 57.7467 84.9382 58.064 85.1889 58.464C85.4395 58.864 85.6129 59.3173 85.7089 59.824C85.8102 60.3253 85.8395 60.8453 85.7969 61.384H80.2609V60.616H84.9729L84.6049 60.856C84.6209 60.5413 84.6022 60.2267 84.5489 59.912C84.5009 59.5973 84.4075 59.3093 84.2689 59.048C84.1302 58.7813 83.9355 58.568 83.6849 58.408C83.4342 58.248 83.1142 58.168 82.7249 58.168C82.2342 58.168 81.8235 58.2933 81.4929 58.544C81.1622 58.7947 80.9142 59.1253 80.7489 59.536C80.5835 59.9413 80.5009 60.3813 80.5009 60.856V61.368C80.5009 61.9013 80.5809 62.3787 80.7409 62.8C80.9062 63.2213 81.1515 63.5547 81.4769 63.8C81.8022 64.0453 82.2129 64.168 82.7089 64.168C83.2049 64.168 83.6129 64.048 83.9329 63.808C84.2529 63.568 84.4475 63.2133 84.5169 62.744H85.8129C85.7329 63.2507 85.5515 63.688 85.2689 64.056C84.9862 64.4187 84.6262 64.6987 84.1889 64.896C83.7515 65.0933 83.2582 65.192 82.7089 65.192ZM88.4316 65V57.336H89.6796V65H88.4316ZM89.2956 61.544C89.2956 60.5733 89.389 59.768 89.5756 59.128C89.7623 58.4827 90.0343 58.0027 90.3916 57.688C90.7543 57.368 91.1943 57.208 91.7116 57.208C91.8823 57.208 92.037 57.2213 92.1756 57.248C92.3196 57.2693 92.4636 57.304 92.6076 57.352L92.5276 58.584C92.3783 58.536 92.2156 58.496 92.0396 58.464C91.8636 58.4267 91.7063 58.408 91.5676 58.408C91.1143 58.408 90.749 58.5387 90.4716 58.8C90.1943 59.056 89.9916 59.4187 89.8636 59.888C89.741 60.3573 89.6796 60.9093 89.6796 61.544H89.2956ZM101.098 65.192C100.41 65.192 99.7964 65.04 99.2577 64.736C98.7244 64.432 98.3031 63.9813 97.9937 63.384C97.6844 62.7867 97.5297 62.0507 97.5297 61.176C97.5297 60.296 97.6844 59.56 97.9937 58.968C98.3031 58.3707 98.7244 57.92 99.2577 57.616C99.7964 57.312 100.41 57.16 101.098 57.16C101.78 57.16 102.388 57.312 102.922 57.616C103.46 57.92 103.882 58.3707 104.186 58.968C104.495 59.56 104.65 60.296 104.65 61.176C104.65 62.0507 104.495 62.7867 104.186 63.384C103.882 63.9813 103.46 64.432 102.922 64.736C102.388 65.04 101.78 65.192 101.098 65.192ZM101.066 64.104C101.562 64.104 101.983 63.9867 102.33 63.752C102.676 63.512 102.938 63.1733 103.114 62.736C103.295 62.2987 103.386 61.7787 103.386 61.176C103.386 60.264 103.196 59.5467 102.818 59.024C102.439 58.496 101.876 58.232 101.13 58.232C100.628 58.232 100.204 58.352 99.8577 58.592C99.5164 58.8267 99.2551 59.1653 99.0737 59.608C98.8977 60.0453 98.8097 60.568 98.8097 61.176C98.8097 62.0773 98.9991 62.792 99.3777 63.32C99.7617 63.8427 100.324 64.104 101.066 64.104ZM107.656 65V56.168C107.656 55.6613 107.752 55.248 107.944 54.928C108.141 54.6027 108.402 54.3627 108.728 54.208C109.058 54.0533 109.426 53.976 109.832 53.976C110.05 53.976 110.272 53.992 110.496 54.024C110.725 54.056 110.952 54.104 111.176 54.168L110.936 55.16C110.776 55.096 110.616 55.048 110.456 55.016C110.301 54.984 110.152 54.968 110.008 54.968C109.837 54.968 109.666 55 109.496 55.064C109.325 55.128 109.184 55.248 109.072 55.424C108.96 55.6 108.904 55.8533 108.904 56.184V65H107.656ZM106.408 58.216V57.352H110.488V58.216H106.408ZM124.27 65.192C123.71 65.192 123.222 65.064 122.806 64.808C122.395 64.552 122.078 64.1787 121.854 63.688C121.63 63.192 121.518 62.5893 121.518 61.88H122.046C122.046 62.3547 122.145 62.7547 122.342 63.08C122.539 63.4053 122.795 63.6533 123.11 63.824C123.43 63.9893 123.769 64.072 124.126 64.072C124.51 64.072 124.878 63.9627 125.23 63.744C125.582 63.52 125.87 63.192 126.094 62.76C126.318 62.328 126.43 61.7947 126.43 61.16C126.43 60.552 126.326 60.032 126.118 59.6C125.915 59.168 125.641 58.8373 125.294 58.608C124.947 58.3787 124.563 58.264 124.142 58.264C123.779 58.264 123.438 58.352 123.118 58.528C122.798 58.704 122.539 58.9627 122.342 59.304C122.145 59.64 122.046 60.056 122.046 60.552H121.518C121.518 59.8107 121.641 59.1893 121.886 58.688C122.131 58.1813 122.465 57.8 122.886 57.544C123.307 57.288 123.779 57.16 124.302 57.16C124.899 57.16 125.457 57.32 125.974 57.64C126.491 57.96 126.91 58.4187 127.23 59.016C127.55 59.6133 127.71 60.328 127.71 61.16C127.71 62.0027 127.547 62.7253 127.222 63.328C126.902 63.9307 126.481 64.392 125.958 64.712C125.435 65.032 124.873 65.192 124.27 65.192ZM120.798 68.76V57.352H121.838L122.046 59.144V68.76H120.798ZM130.317 65V54.088H131.565V65H130.317ZM139.698 65L139.538 63.32V60.04C139.538 59.352 139.391 58.8587 139.098 58.56C138.804 58.256 138.364 58.104 137.778 58.104C137.447 58.104 137.146 58.152 136.874 58.248C136.607 58.344 136.394 58.4933 136.234 58.696C136.079 58.8933 136.002 59.1493 136.002 59.464H134.61C134.61 58.9093 134.746 58.464 135.018 58.128C135.29 57.7867 135.663 57.5413 136.138 57.392C136.618 57.2373 137.164 57.16 137.778 57.16C138.364 57.16 138.884 57.2587 139.338 57.456C139.791 57.6533 140.146 57.968 140.402 58.4C140.658 58.8267 140.786 59.384 140.786 60.072V65H139.698ZM137.09 65.192C136.46 65.192 135.94 65.08 135.53 64.856C135.119 64.632 134.812 64.3413 134.61 63.984C134.407 63.6267 134.306 63.2507 134.306 62.856C134.306 62.3387 134.434 61.9173 134.69 61.592C134.951 61.2667 135.306 61.0293 135.754 60.88C136.202 60.7253 136.706 60.648 137.266 60.648C137.666 60.648 138.066 60.688 138.466 60.768C138.871 60.848 139.266 60.9573 139.65 61.096V61.88C139.33 61.752 138.967 61.6507 138.562 61.576C138.162 61.5013 137.794 61.464 137.458 61.464C136.946 61.464 136.514 61.5707 136.162 61.784C135.81 61.992 135.634 62.3493 135.634 62.856C135.634 63.2293 135.767 63.5493 136.034 63.816C136.306 64.0827 136.738 64.216 137.33 64.216C137.746 64.216 138.119 64.12 138.45 63.928C138.786 63.7307 139.05 63.4853 139.242 63.192C139.439 62.8987 139.538 62.6053 139.538 62.312H139.842C139.842 62.824 139.73 63.2987 139.506 63.736C139.287 64.1733 138.972 64.5253 138.562 64.792C138.151 65.0587 137.66 65.192 137.09 65.192ZM149.374 65V60.504C149.374 59.7733 149.198 59.2187 148.846 58.84C148.499 58.456 148.025 58.264 147.422 58.264C146.963 58.264 146.566 58.3893 146.23 58.64C145.894 58.8907 145.635 59.2507 145.454 59.72C145.273 60.184 145.182 60.7387 145.182 61.384H144.702C144.702 60.4933 144.819 59.7333 145.054 59.104C145.289 58.4747 145.63 57.9947 146.078 57.664C146.531 57.328 147.081 57.16 147.726 57.16C148.329 57.16 148.843 57.296 149.27 57.568C149.702 57.8347 150.033 58.2187 150.262 58.72C150.491 59.2213 150.606 59.816 150.606 60.504V65H149.374ZM143.934 65V57.352H145.006L145.182 59.112V65H143.934ZM156.102 65.192C155.686 65.192 155.313 65.112 154.982 64.952C154.652 64.792 154.39 64.552 154.198 64.232C154.006 63.912 153.91 63.512 153.91 63.032V55.224H155.142V63C155.142 63.7893 155.51 64.184 156.246 64.184C156.465 64.184 156.676 64.16 156.878 64.112C157.086 64.064 157.318 63.992 157.574 63.896L157.75 64.792C157.478 64.9093 157.206 65.0053 156.934 65.08C156.668 65.1547 156.39 65.192 156.102 65.192ZM152.678 58.216V57.352H157.558V58.216H152.678ZM162.678 65.192C161.937 65.192 161.318 65.088 160.822 64.88C160.326 64.6667 159.95 64.376 159.694 64.008C159.438 63.6347 159.302 63.208 159.286 62.728H160.486C160.513 63.2133 160.707 63.5787 161.07 63.824C161.438 64.064 161.937 64.184 162.566 64.184C162.897 64.184 163.201 64.1307 163.478 64.024C163.755 63.9173 163.977 63.7707 164.142 63.584C164.307 63.3973 164.39 63.1867 164.39 62.952C164.39 62.6533 164.281 62.4187 164.062 62.248C163.843 62.0773 163.494 61.928 163.014 61.8L161.526 61.32C160.881 61.1173 160.385 60.84 160.038 60.488C159.697 60.1307 159.526 59.704 159.526 59.208C159.526 58.5893 159.798 58.0933 160.342 57.72C160.886 57.3467 161.601 57.16 162.486 57.16C163.425 57.16 164.153 57.352 164.67 57.736C165.187 58.12 165.457 58.6 165.478 59.176H164.246C164.198 58.84 164.027 58.5867 163.734 58.416C163.441 58.24 163.025 58.152 162.486 58.152C161.969 58.152 161.563 58.2693 161.27 58.504C160.982 58.7333 160.838 58.9893 160.838 59.272C160.838 59.8 161.291 60.1893 162.198 60.44L163.718 60.952C164.374 61.1493 164.875 61.408 165.222 61.728C165.574 62.048 165.75 62.456 165.75 62.952C165.75 63.336 165.625 63.6987 165.374 64.04C165.123 64.3813 164.769 64.6587 164.31 64.872C163.851 65.0853 163.307 65.192 162.678 65.192ZM175.217 65.192C174.529 65.192 173.916 65.04 173.377 64.736C172.844 64.432 172.422 63.9813 172.113 63.384C171.804 62.7867 171.649 62.0507 171.649 61.176C171.649 60.296 171.804 59.56 172.113 58.968C172.422 58.3707 172.844 57.92 173.377 57.616C173.916 57.312 174.529 57.16 175.217 57.16C175.9 57.16 176.508 57.312 177.041 57.616C177.58 57.92 178.001 58.3707 178.305 58.968C178.614 59.56 178.769 60.296 178.769 61.176C178.769 62.0507 178.614 62.7867 178.305 63.384C178.001 63.9813 177.58 64.432 177.041 64.736C176.508 65.04 175.9 65.192 175.217 65.192ZM175.185 64.104C175.681 64.104 176.102 63.9867 176.449 63.752C176.796 63.512 177.057 63.1733 177.233 62.736C177.414 62.2987 177.505 61.7787 177.505 61.176C177.505 60.264 177.316 59.5467 176.937 59.024C176.558 58.496 175.996 58.232 175.249 58.232C174.748 58.232 174.324 58.352 173.977 58.592C173.636 58.8267 173.374 59.1653 173.193 59.608C173.017 60.0453 172.929 60.568 172.929 61.176C172.929 62.0773 173.118 62.792 173.497 63.32C173.881 63.8427 174.444 64.104 175.185 64.104ZM181.775 65V56.168C181.775 55.6613 181.871 55.248 182.063 54.928C182.26 54.6027 182.522 54.3627 182.847 54.208C183.178 54.0533 183.546 53.976 183.951 53.976C184.17 53.976 184.391 53.992 184.615 54.024C184.844 54.056 185.071 54.104 185.295 54.168L185.055 55.16C184.895 55.096 184.735 55.048 184.575 55.016C184.42 54.984 184.271 54.968 184.127 54.968C183.956 54.968 183.786 55 183.615 55.064C183.444 55.128 183.303 55.248 183.191 55.424C183.079 55.6 183.023 55.8533 183.023 56.184V65H181.775ZM180.527 58.216V57.352H184.607V58.216H180.527ZM195.696 65L195.536 63.32V60.04C195.536 59.352 195.39 58.8587 195.096 58.56C194.803 58.256 194.363 58.104 193.776 58.104C193.446 58.104 193.144 58.152 192.872 58.248C192.606 58.344 192.392 58.4933 192.232 58.696C192.078 58.8933 192 59.1493 192 59.464H190.608C190.608 58.9093 190.744 58.464 191.016 58.128C191.288 57.7867 191.662 57.5413 192.136 57.392C192.616 57.2373 193.163 57.16 193.776 57.16C194.363 57.16 194.883 57.2587 195.336 57.456C195.79 57.6533 196.144 57.968 196.4 58.4C196.656 58.8267 196.784 59.384 196.784 60.072V65H195.696ZM193.088 65.192C192.459 65.192 191.939 65.08 191.528 64.856C191.118 64.632 190.811 64.3413 190.608 63.984C190.406 63.6267 190.304 63.2507 190.304 62.856C190.304 62.3387 190.432 61.9173 190.688 61.592C190.95 61.2667 191.304 61.0293 191.752 60.88C192.2 60.7253 192.704 60.648 193.264 60.648C193.664 60.648 194.064 60.688 194.464 60.768C194.87 60.848 195.264 60.9573 195.648 61.096V61.88C195.328 61.752 194.966 61.6507 194.56 61.576C194.16 61.5013 193.792 61.464 193.456 61.464C192.944 61.464 192.512 61.5707 192.16 61.784C191.808 61.992 191.632 62.3493 191.632 62.856C191.632 63.2293 191.766 63.5493 192.032 63.816C192.304 64.0827 192.736 64.216 193.328 64.216C193.744 64.216 194.118 64.12 194.448 63.928C194.784 63.7307 195.048 63.4853 195.24 63.192C195.438 62.8987 195.536 62.6053 195.536 62.312H195.84C195.84 62.824 195.728 63.2987 195.504 63.736C195.286 64.1733 194.971 64.5253 194.56 64.792C194.15 65.0587 193.659 65.192 193.088 65.192ZM39.088 85.192C38.528 85.192 38.04 85.064 37.624 84.808C37.2133 84.552 36.896 84.1787 36.672 83.688C36.448 83.192 36.336 82.5893 36.336 81.88H36.864C36.864 82.3547 36.9627 82.7547 37.16 83.08C37.3573 83.4053 37.6133 83.6533 37.928 83.824C38.248 83.9893 38.5867 84.072 38.944 84.072C39.328 84.072 39.696 83.9627 40.048 83.744C40.4 83.52 40.688 83.192 40.912 82.76C41.136 82.328 41.248 81.7947 41.248 81.16C41.248 80.552 41.144 80.032 40.936 79.6C40.7333 79.168 40.4587 78.8373 40.112 78.608C39.7653 78.3787 39.3813 78.264 38.96 78.264C38.5973 78.264 38.256 78.352 37.936 78.528C37.616 78.704 37.3573 78.9627 37.16 79.304C36.9627 79.64 36.864 80.056 36.864 80.552H36.336C36.336 79.8107 36.4587 79.1893 36.704 78.688C36.9493 78.1813 37.2827 77.8 37.704 77.544C38.1253 77.288 38.5973 77.16 39.12 77.16C39.7173 77.16 40.2747 77.32 40.792 77.64C41.3093 77.96 41.728 78.4187 42.048 79.016C42.368 79.6133 42.528 80.328 42.528 81.16C42.528 82.0027 42.3653 82.7253 42.04 83.328C41.72 83.9307 41.2987 84.392 40.776 84.712C40.2533 85.032 39.6907 85.192 39.088 85.192ZM35.616 88.76V77.352H36.656L36.864 79.144V88.76H35.616ZM49.8714 85L49.7114 83.32V80.04C49.7114 79.352 49.5647 78.8587 49.2714 78.56C48.978 78.256 48.538 78.104 47.9514 78.104C47.6207 78.104 47.3194 78.152 47.0474 78.248C46.7807 78.344 46.5674 78.4933 46.4074 78.696C46.2527 78.8933 46.1754 79.1493 46.1754 79.464H44.7834C44.7834 78.9093 44.9194 78.464 45.1914 78.128C45.4634 77.7867 45.8367 77.5413 46.3114 77.392C46.7914 77.2373 47.338 77.16 47.9514 77.16C48.538 77.16 49.058 77.2587 49.5114 77.456C49.9647 77.6533 50.3194 77.968 50.5754 78.4C50.8314 78.8267 50.9594 79.384 50.9594 80.072V85H49.8714ZM47.2634 85.192C46.634 85.192 46.114 85.08 45.7034 84.856C45.2927 84.632 44.986 84.3413 44.7834 83.984C44.5807 83.6267 44.4794 83.2507 44.4794 82.856C44.4794 82.3387 44.6074 81.9173 44.8634 81.592C45.1247 81.2667 45.4794 81.0293 45.9274 80.88C46.3754 80.7253 46.8794 80.648 47.4394 80.648C47.8394 80.648 48.2394 80.688 48.6394 80.768C49.0447 80.848 49.4394 80.9573 49.8234 81.096V81.88C49.5034 81.752 49.1407 81.6507 48.7354 81.576C48.3354 81.5013 47.9674 81.464 47.6314 81.464C47.1194 81.464 46.6874 81.5707 46.3354 81.784C45.9834 81.992 45.8074 82.3493 45.8074 82.856C45.8074 83.2293 45.9407 83.5493 46.2074 83.816C46.4794 84.0827 46.9114 84.216 47.5034 84.216C47.9194 84.216 48.2927 84.12 48.6234 83.928C48.9594 83.7307 49.2234 83.4853 49.4154 83.192C49.6127 82.8987 49.7114 82.6053 49.7114 82.312H50.0154C50.0154 82.824 49.9034 83.2987 49.6794 83.736C49.4607 84.1733 49.146 84.5253 48.7354 84.792C48.3247 85.0587 47.834 85.192 47.2634 85.192ZM54.1079 85V77.336H55.3559V85H54.1079ZM54.9719 81.544C54.9719 80.5733 55.0652 79.768 55.2519 79.128C55.4385 78.4827 55.7105 78.0027 56.0679 77.688C56.4305 77.368 56.8705 77.208 57.3879 77.208C57.5585 77.208 57.7132 77.2213 57.8519 77.248C57.9959 77.2693 58.1399 77.304 58.2839 77.352L58.2039 78.584C58.0545 78.536 57.8919 78.496 57.7159 78.464C57.5399 78.4267 57.3825 78.408 57.2439 78.408C56.7905 78.408 56.4252 78.5387 56.1479 78.8C55.8705 79.056 55.6679 79.4187 55.5399 79.888C55.4172 80.3573 55.3559 80.9093 55.3559 81.544H54.9719ZM62.4011 85.192C61.9851 85.192 61.6118 85.112 61.2811 84.952C60.9505 84.792 60.6891 84.552 60.4971 84.232C60.3051 83.912 60.2091 83.512 60.2091 83.032V75.224H61.4411V83C61.4411 83.7893 61.8091 84.184 62.5451 84.184C62.7638 84.184 62.9745 84.16 63.1771 84.112C63.3851 84.064 63.6171 83.992 63.8731 83.896L64.0491 84.792C63.7771 84.9093 63.5051 85.0053 63.2331 85.08C62.9665 85.1547 62.6891 85.192 62.4011 85.192ZM58.9771 78.216V77.352H63.8571V78.216H58.9771ZM66.9287 75.544C66.6727 75.544 66.4701 75.472 66.3207 75.328C66.1714 75.1787 66.0967 74.984 66.0967 74.744C66.0967 74.5093 66.1714 74.3227 66.3207 74.184C66.4701 74.0453 66.6727 73.976 66.9287 73.976C67.1847 73.976 67.3874 74.0453 67.5367 74.184C67.6861 74.3227 67.7607 74.5093 67.7607 74.744C67.7607 74.984 67.6861 75.1787 67.5367 75.328C67.3874 75.472 67.1847 75.544 66.9287 75.544ZM66.3047 85V77.336H67.5527V85H66.3047ZM73.8384 85.192C73.225 85.192 72.6517 85.0267 72.1184 84.696C71.5904 84.3653 71.1637 83.8987 70.8384 83.296C70.513 82.6933 70.3504 81.9813 70.3504 81.16C70.3504 80.3173 70.513 79.5973 70.8384 79C71.1637 78.4027 71.5904 77.9467 72.1184 77.632C72.6517 77.3173 73.225 77.16 73.8384 77.16C74.2704 77.16 74.657 77.2267 74.9984 77.36C75.345 77.488 75.6464 77.6667 75.9024 77.896C76.1584 78.1253 76.369 78.3867 76.5344 78.68C76.705 78.968 76.8304 79.272 76.9104 79.592L75.6304 79.704C75.497 79.2613 75.273 78.912 74.9584 78.656C74.649 78.3947 74.2704 78.264 73.8224 78.264C73.4437 78.264 73.0864 78.3733 72.7504 78.592C72.4197 78.8053 72.1504 79.128 71.9424 79.56C71.7344 79.9867 71.6304 80.52 71.6304 81.16C71.6304 81.752 71.7237 82.2667 71.9104 82.704C72.1024 83.136 72.3637 83.472 72.6944 83.712C73.025 83.952 73.401 84.072 73.8224 84.072C74.4144 84.072 74.8624 83.928 75.1664 83.64C75.4757 83.3467 75.6304 82.9413 75.6304 82.424H76.9104C76.9104 82.9573 76.785 83.432 76.5344 83.848C76.2837 84.264 75.9264 84.592 75.4624 84.832C75.0037 85.072 74.4624 85.192 73.8384 85.192ZM84.7604 77.336H86.0084V85H84.7604V77.336ZM79.3364 77.336H80.5844V82.104C80.5844 82.744 80.739 83.2293 81.0484 83.56C81.363 83.8907 81.811 84.056 82.3924 84.056C82.8724 84.056 83.2884 83.928 83.6404 83.672C83.9977 83.416 84.2724 83.064 84.4644 82.616C84.6617 82.1627 84.7604 81.6453 84.7604 81.064H85.2244C85.2244 81.9227 85.099 82.656 84.8484 83.264C84.603 83.872 84.2537 84.3387 83.8004 84.664C83.3524 84.984 82.8244 85.144 82.2164 85.144C81.6404 85.144 81.1364 85.0373 80.7044 84.824C80.2724 84.6107 79.9364 84.288 79.6964 83.856C79.4564 83.4187 79.3364 82.8667 79.3364 82.2V77.336ZM89.4079 85V74.088H90.6559V85H89.4079ZM98.7882 85L98.6282 83.32V80.04C98.6282 79.352 98.4816 78.8587 98.1882 78.56C97.8949 78.256 97.4549 78.104 96.8682 78.104C96.5376 78.104 96.2362 78.152 95.9642 78.248C95.6976 78.344 95.4842 78.4933 95.3242 78.696C95.1696 78.8933 95.0922 79.1493 95.0922 79.464H93.7002C93.7002 78.9093 93.8362 78.464 94.1082 78.128C94.3802 77.7867 94.7536 77.5413 95.2282 77.392C95.7082 77.2373 96.2549 77.16 96.8682 77.16C97.4549 77.16 97.9749 77.2587 98.4282 77.456C98.8816 77.6533 99.2362 77.968 99.4922 78.4C99.7482 78.8267 99.8762 79.384 99.8762 80.072V85H98.7882ZM96.1802 85.192C95.5509 85.192 95.0309 85.08 94.6202 84.856C94.2096 84.632 93.9029 84.3413 93.7002 83.984C93.4976 83.6267 93.3962 83.2507 93.3962 82.856C93.3962 82.3387 93.5242 81.9173 93.7802 81.592C94.0416 81.2667 94.3962 81.0293 94.8442 80.88C95.2922 80.7253 95.7962 80.648 96.3562 80.648C96.7562 80.648 97.1562 80.688 97.5562 80.768C97.9616 80.848 98.3562 80.9573 98.7402 81.096V81.88C98.4202 81.752 98.0576 81.6507 97.6522 81.576C97.2522 81.5013 96.8842 81.464 96.5482 81.464C96.0362 81.464 95.6042 81.5707 95.2522 81.784C94.9002 81.992 94.7242 82.3493 94.7242 82.856C94.7242 83.2293 94.8576 83.5493 95.1242 83.816C95.3962 84.0827 95.8282 84.216 96.4202 84.216C96.8362 84.216 97.2096 84.12 97.5402 83.928C97.8762 83.7307 98.1402 83.4853 98.3322 83.192C98.5296 82.8987 98.6282 82.6053 98.6282 82.312H98.9322C98.9322 82.824 98.8202 83.2987 98.5962 83.736C98.3776 84.1733 98.0629 84.5253 97.6522 84.792C97.2416 85.0587 96.7509 85.192 96.1802 85.192ZM103.025 85V77.336H104.273V85H103.025ZM103.889 81.544C103.889 80.5733 103.982 79.768 104.169 79.128C104.355 78.4827 104.627 78.0027 104.985 77.688C105.347 77.368 105.787 77.208 106.305 77.208C106.475 77.208 106.63 77.2213 106.769 77.248C106.913 77.2693 107.057 77.304 107.201 77.352L107.121 78.584C106.971 78.536 106.809 78.496 106.633 78.464C106.457 78.4267 106.299 78.408 106.161 78.408C105.707 78.408 105.342 78.5387 105.065 78.8C104.787 79.056 104.585 79.4187 104.457 79.888C104.334 80.3573 104.273 80.9093 104.273 81.544H103.889ZM115.675 85.192C114.934 85.192 114.315 85.088 113.819 84.88C113.323 84.6667 112.947 84.376 112.691 84.008C112.435 83.6347 112.299 83.208 112.283 82.728H113.483C113.51 83.2133 113.704 83.5787 114.067 83.824C114.435 84.064 114.934 84.184 115.563 84.184C115.894 84.184 116.198 84.1307 116.475 84.024C116.752 83.9173 116.974 83.7707 117.139 83.584C117.304 83.3973 117.387 83.1867 117.387 82.952C117.387 82.6533 117.278 82.4187 117.059 82.248C116.84 82.0773 116.491 81.928 116.011 81.8L114.523 81.32C113.878 81.1173 113.382 80.84 113.035 80.488C112.694 80.1307 112.523 79.704 112.523 79.208C112.523 78.5893 112.795 78.0933 113.339 77.72C113.883 77.3467 114.598 77.16 115.483 77.16C116.422 77.16 117.15 77.352 117.667 77.736C118.184 78.12 118.454 78.6 118.475 79.176H117.243C117.195 78.84 117.024 78.5867 116.731 78.416C116.438 78.24 116.022 78.152 115.483 78.152C114.966 78.152 114.56 78.2693 114.267 78.504C113.979 78.7333 113.835 78.9893 113.835 79.272C113.835 79.8 114.288 80.1893 115.195 80.44L116.715 80.952C117.371 81.1493 117.872 81.408 118.219 81.728C118.571 82.048 118.747 82.456 118.747 82.952C118.747 83.336 118.622 83.6987 118.371 84.04C118.12 84.3813 117.766 84.6587 117.307 84.872C116.848 85.0853 116.304 85.192 115.675 85.192ZM124.961 85.192C124.401 85.192 123.913 85.064 123.497 84.808C123.086 84.552 122.769 84.1787 122.545 83.688C122.321 83.192 122.209 82.5893 122.209 81.88H122.737C122.737 82.3547 122.836 82.7547 123.033 83.08C123.23 83.4053 123.486 83.6533 123.801 83.824C124.121 83.9893 124.46 84.072 124.817 84.072C125.201 84.072 125.569 83.9627 125.921 83.744C126.273 83.52 126.561 83.192 126.785 82.76C127.009 82.328 127.121 81.7947 127.121 81.16C127.121 80.552 127.017 80.032 126.809 79.6C126.606 79.168 126.332 78.8373 125.985 78.608C125.638 78.3787 125.254 78.264 124.833 78.264C124.47 78.264 124.129 78.352 123.809 78.528C123.489 78.704 123.23 78.9627 123.033 79.304C122.836 79.64 122.737 80.056 122.737 80.552H122.209C122.209 79.8107 122.332 79.1893 122.577 78.688C122.822 78.1813 123.156 77.8 123.577 77.544C123.998 77.288 124.47 77.16 124.993 77.16C125.59 77.16 126.148 77.32 126.665 77.64C127.182 77.96 127.601 78.4187 127.921 79.016C128.241 79.6133 128.401 80.328 128.401 81.16C128.401 82.0027 128.238 82.7253 127.913 83.328C127.593 83.9307 127.172 84.392 126.649 84.712C126.126 85.032 125.564 85.192 124.961 85.192ZM121.489 88.76V77.352H122.529L122.737 79.144V88.76H121.489ZM133.665 85.192C133.003 85.192 132.411 85.024 131.889 84.688C131.371 84.3467 130.961 83.8747 130.657 83.272C130.358 82.6693 130.209 81.976 130.209 81.192C130.209 80.3547 130.358 79.6347 130.657 79.032C130.955 78.4293 131.363 77.968 131.881 77.648C132.403 77.3227 132.998 77.16 133.665 77.16C134.246 77.16 134.742 77.2773 135.153 77.512C135.563 77.7467 135.894 78.064 136.145 78.464C136.395 78.864 136.569 79.3173 136.665 79.824C136.766 80.3253 136.795 80.8453 136.753 81.384H131.217V80.616H135.929L135.561 80.856C135.577 80.5413 135.558 80.2267 135.505 79.912C135.457 79.5973 135.363 79.3093 135.225 79.048C135.086 78.7813 134.891 78.568 134.641 78.408C134.39 78.248 134.07 78.168 133.681 78.168C133.19 78.168 132.779 78.2933 132.449 78.544C132.118 78.7947 131.87 79.1253 131.705 79.536C131.539 79.9413 131.457 80.3813 131.457 80.856V81.368C131.457 81.9013 131.537 82.3787 131.697 82.8C131.862 83.2213 132.107 83.5547 132.433 83.8C132.758 84.0453 133.169 84.168 133.665 84.168C134.161 84.168 134.569 84.048 134.889 83.808C135.209 83.568 135.403 83.2133 135.473 82.744H136.769C136.689 83.2507 136.507 83.688 136.225 84.056C135.942 84.4187 135.582 84.6987 135.145 84.896C134.707 85.0933 134.214 85.192 133.665 85.192ZM142.075 85.192C141.462 85.192 140.889 85.0267 140.355 84.696C139.827 84.3653 139.401 83.8987 139.075 83.296C138.75 82.6933 138.587 81.9813 138.587 81.16C138.587 80.3173 138.75 79.5973 139.075 79C139.401 78.4027 139.827 77.9467 140.355 77.632C140.889 77.3173 141.462 77.16 142.075 77.16C142.507 77.16 142.894 77.2267 143.235 77.36C143.582 77.488 143.883 77.6667 144.139 77.896C144.395 78.1253 144.606 78.3867 144.771 78.68C144.942 78.968 145.067 79.272 145.147 79.592L143.867 79.704C143.734 79.2613 143.51 78.912 143.195 78.656C142.886 78.3947 142.507 78.264 142.059 78.264C141.681 78.264 141.323 78.3733 140.987 78.592C140.657 78.8053 140.387 79.128 140.179 79.56C139.971 79.9867 139.867 80.52 139.867 81.16C139.867 81.752 139.961 82.2667 140.147 82.704C140.339 83.136 140.601 83.472 140.931 83.712C141.262 83.952 141.638 84.072 142.059 84.072C142.651 84.072 143.099 83.928 143.403 83.64C143.713 83.3467 143.867 82.9413 143.867 82.424H145.147C145.147 82.9573 145.022 83.432 144.771 83.848C144.521 84.264 144.163 84.592 143.699 84.832C143.241 85.072 142.699 85.192 142.075 85.192ZM148.501 75.544C148.245 75.544 148.043 75.472 147.893 75.328C147.744 75.1787 147.669 74.984 147.669 74.744C147.669 74.5093 147.744 74.3227 147.893 74.184C148.043 74.0453 148.245 73.976 148.501 73.976C148.757 73.976 148.96 74.0453 149.109 74.184C149.259 74.3227 149.333 74.5093 149.333 74.744C149.333 74.984 149.259 75.1787 149.109 75.328C148.96 75.472 148.757 75.544 148.501 75.544ZM147.877 85V77.336H149.125V85H147.877ZM155.379 85.192C154.718 85.192 154.126 85.024 153.603 84.688C153.086 84.3467 152.675 83.8747 152.371 83.272C152.072 82.6693 151.923 81.976 151.923 81.192C151.923 80.3547 152.072 79.6347 152.371 79.032C152.67 78.4293 153.078 77.968 153.595 77.648C154.118 77.3227 154.712 77.16 155.379 77.16C155.96 77.16 156.456 77.2773 156.867 77.512C157.278 77.7467 157.608 78.064 157.859 78.464C158.11 78.864 158.283 79.3173 158.379 79.824C158.48 80.3253 158.51 80.8453 158.467 81.384H152.931V80.616H157.643L157.275 80.856C157.291 80.5413 157.272 80.2267 157.219 79.912C157.171 79.5973 157.078 79.3093 156.939 79.048C156.8 78.7813 156.606 78.568 156.355 78.408C156.104 78.248 155.784 78.168 155.395 78.168C154.904 78.168 154.494 78.2933 154.163 78.544C153.832 78.7947 153.584 79.1253 153.419 79.536C153.254 79.9413 153.171 80.3813 153.171 80.856V81.368C153.171 81.9013 153.251 82.3787 153.411 82.8C153.576 83.2213 153.822 83.5547 154.147 83.8C154.472 84.0453 154.883 84.168 155.379 84.168C155.875 84.168 156.283 84.048 156.603 83.808C156.923 83.568 157.118 83.2133 157.187 82.744H158.483C158.403 83.2507 158.222 83.688 157.939 84.056C157.656 84.4187 157.296 84.6987 156.859 84.896C156.422 85.0933 155.928 85.192 155.379 85.192ZM163.854 85.192C163.112 85.192 162.494 85.088 161.998 84.88C161.502 84.6667 161.126 84.376 160.87 84.008C160.614 83.6347 160.478 83.208 160.462 82.728H161.662C161.688 83.2133 161.883 83.5787 162.246 83.824C162.614 84.064 163.112 84.184 163.742 84.184C164.072 84.184 164.376 84.1307 164.654 84.024C164.931 83.9173 165.152 83.7707 165.318 83.584C165.483 83.3973 165.566 83.1867 165.566 82.952C165.566 82.6533 165.456 82.4187 165.238 82.248C165.019 82.0773 164.67 81.928 164.19 81.8L162.702 81.32C162.056 81.1173 161.56 80.84 161.214 80.488C160.872 80.1307 160.702 79.704 160.702 79.208C160.702 78.5893 160.974 78.0933 161.518 77.72C162.062 77.3467 162.776 77.16 163.662 77.16C164.6 77.16 165.328 77.352 165.846 77.736C166.363 78.12 166.632 78.6 166.654 79.176H165.422C165.374 78.84 165.203 78.5867 164.91 78.416C164.616 78.24 164.2 78.152 163.662 78.152C163.144 78.152 162.739 78.2693 162.446 78.504C162.158 78.7333 162.014 78.9893 162.014 79.272C162.014 79.8 162.467 80.1893 163.374 80.44L164.894 80.952C165.55 81.1493 166.051 81.408 166.398 81.728C166.75 82.048 166.926 82.456 166.926 82.952C166.926 83.336 166.8 83.6987 166.55 84.04C166.299 84.3813 165.944 84.6587 165.486 84.872C165.027 85.0853 164.483 85.192 163.854 85.192ZM172.14 78.296L171.244 77.816C171.548 77.6613 171.804 77.488 172.012 77.296C172.225 77.0987 172.364 76.872 172.428 76.616C172.188 76.5893 171.985 76.5067 171.82 76.368C171.66 76.2293 171.58 76.0453 171.58 75.816C171.58 75.5813 171.668 75.384 171.844 75.224C172.02 75.064 172.241 74.984 172.508 74.984C172.732 74.984 172.924 75.0427 173.084 75.16C173.244 75.272 173.367 75.424 173.452 75.616C173.537 75.8027 173.58 76.0133 173.58 76.248C173.58 76.632 173.455 77.008 173.204 77.376C172.953 77.7387 172.599 78.0453 172.14 78.296ZM169.524 78.296L168.628 77.816C168.932 77.6613 169.188 77.488 169.396 77.296C169.609 77.0987 169.748 76.872 169.812 76.616C169.572 76.5893 169.369 76.5067 169.204 76.368C169.044 76.2293 168.964 76.0453 168.964 75.816C168.964 75.5813 169.052 75.384 169.228 75.224C169.404 75.064 169.625 74.984 169.892 74.984C170.116 74.984 170.308 75.0427 170.468 75.16C170.628 75.272 170.751 75.424 170.836 75.616C170.921 75.8027 170.964 76.0133 170.964 76.248C170.964 76.632 170.839 77.008 170.588 77.376C170.337 77.7387 169.983 78.0453 169.524 78.296ZM175.051 84.256C175.051 84.0053 175.139 83.7893 175.315 83.608C175.491 83.4267 175.713 83.336 175.979 83.336C176.246 83.336 176.473 83.4267 176.659 83.608C176.846 83.7893 176.939 84.0053 176.939 84.256C176.939 84.5067 176.846 84.7173 176.659 84.888C176.473 85.0587 176.246 85.144 175.979 85.144C175.713 85.144 175.491 85.0587 175.315 84.888C175.139 84.712 175.051 84.5013 175.051 84.256Z" fill="#333333"/>
</g>
<defs>
<filter id="filter0_d_7055_5767" x="0" y="0" width="261.767" height="108" filterUnits="userSpaceOnUse" color-interpolation-filters="sRGB">
<feFlood flood-opacity="0" result="BackgroundImageFix"/>
<feColorMatrix in="SourceAlpha" type="matrix" values="0 0 0 0 0 0 0 0 0 0 0 0 0 0 0 0 0 0 127 0" result="hardAlpha"/>
<feOffset dy="4"/>
<feGaussianBlur stdDeviation="3"/>
<feComposite in2="hardAlpha" operator="out"/>
<feColorMatrix type="matrix" values="0 0 0 0 0 0 0 0 0 0 0 0 0 0 0 0 0 0 0.1 0"/>
<feBlend mode="normal" in2="BackgroundImageFix" result="effect1_dropShadow_7055_5767"/>
<feBlend mode="normal" in="SourceGraphic" in2="effect1_dropShadow_7055_5767" result="shape"/>
</filter>
</defs>
</svg>
