<svg width="266" height="128" viewBox="0 0 266 128" fill="none" xmlns="http://www.w3.org/2000/svg">
<g filter="url(#filter0_d_7093_6107)">
<mask id="path-1-inside-1_7093_6107" fill="white">
<path d="M7.04332 62.6331L16.7673 71L16.7673 109C16.7673 113.971 20.7968 118 25.7673 118L250.767 118C255.738 118 259.767 113.971 259.767 109L259.767 11C259.767 6.02948 255.738 2.00004 250.767 2.00004L25.7674 2C20.7968 2 16.7674 6.02944 16.7674 11L16.7673 50.5L7.15554 57.9931C5.66178 59.1575 5.6076 61.3978 7.04332 62.6331Z"/>
</mask>
<path d="M7.04332 62.6331L16.7673 71L16.7673 109C16.7673 113.971 20.7968 118 25.7673 118L250.767 118C255.738 118 259.767 113.971 259.767 109L259.767 11C259.767 6.02948 255.738 2.00004 250.767 2.00004L25.7674 2C20.7968 2 16.7674 6.02944 16.7674 11L16.7673 50.5L7.15554 57.9931C5.66178 59.1575 5.6076 61.3978 7.04332 62.6331Z" fill="#F1F3FF"/>
<path d="M16.7673 71L18.1673 71L18.1673 70.3577L17.6805 69.9388L16.7673 71ZM7.04332 62.6331L6.1302 63.6944L6.1302 63.6944L7.04332 62.6331ZM7.15554 57.9931L6.29479 56.8889L6.29479 56.8889L7.15554 57.9931ZM16.7673 50.5L17.6281 51.6041L18.1673 51.1838L18.1673 50.5L16.7673 50.5ZM16.7674 11L15.3674 11L15.3674 11L16.7674 11ZM16.7673 109L18.1673 109L18.1673 109L16.7673 109ZM17.6805 69.9388L7.95643 61.5719L6.1302 63.6944L15.8542 72.0612L17.6805 69.9388ZM8.01629 59.0972L17.6281 51.6041L15.9066 49.3959L6.29479 56.8889L8.01629 59.0972ZM7.95643 61.5719C7.19072 60.9131 7.21962 59.7183 8.01629 59.0972L6.29479 56.8889C4.10395 58.5968 4.02448 61.8825 6.1302 63.6944L7.95643 61.5719ZM25.7674 3.4L250.767 3.40004L250.767 0.600043L25.7674 0.600003L25.7674 3.4ZM258.367 11L258.367 109L261.167 109L261.167 11L258.367 11ZM250.767 116.6L25.7673 116.6L25.7673 119.4L250.767 119.4L250.767 116.6ZM18.1673 50.5L18.1674 11L15.3674 11L15.3673 50.5L18.1673 50.5ZM18.1673 109L18.1673 71L15.3673 71L15.3673 109L18.1673 109ZM25.7673 116.6C21.57 116.6 18.1673 113.197 18.1673 109L15.3673 109C15.3673 114.744 20.0236 119.4 25.7673 119.4L25.7673 116.6ZM258.367 109C258.367 113.197 254.965 116.6 250.767 116.6L250.767 119.4C256.511 119.4 261.167 114.744 261.167 109L258.367 109ZM250.767 3.40004C254.965 3.40004 258.367 6.80268 258.367 11L261.167 11C261.167 5.25628 256.511 0.600044 250.767 0.600043L250.767 3.40004ZM25.7674 0.600003C20.0236 0.600002 15.3674 5.25624 15.3674 11L18.1674 11C18.1674 6.80264 21.57 3.4 25.7674 3.4L25.7674 0.600003Z" fill="#4A5DC8" mask="url(#path-1-inside-1_7093_6107)"/>
<path d="M32.352 18.296C32.1387 18.296 31.9493 18.24 31.784 18.128C31.6187 18.016 31.488 17.864 31.392 17.672C31.296 17.48 31.248 17.2667 31.248 17.032C31.248 16.648 31.3733 16.272 31.624 15.904C31.88 15.5307 32.24 15.224 32.704 14.984L33.6 15.464C33.296 15.6133 33.0373 15.7867 32.824 15.984C32.616 16.1813 32.4747 16.4133 32.4 16.68C32.6507 16.7013 32.8533 16.7787 33.008 16.912C33.168 17.04 33.248 17.2187 33.248 17.448C33.248 17.6773 33.1653 17.8773 33 18.048C32.84 18.2133 32.624 18.296 32.352 18.296ZM29.68 18.296C29.4667 18.296 29.2773 18.24 29.112 18.128C28.9467 18.016 28.816 17.864 28.72 17.672C28.624 17.48 28.576 17.2667 28.576 17.032C28.576 16.648 28.7013 16.272 28.952 15.904C29.208 15.5307 29.568 15.224 30.032 14.984L30.928 15.464C30.624 15.6133 30.3653 15.7867 30.152 15.984C29.944 16.1813 29.8027 16.4133 29.728 16.68C29.9787 16.7013 30.1813 16.7787 30.336 16.912C30.496 17.04 30.576 17.2187 30.576 17.448C30.576 17.6773 30.4933 17.8773 30.328 18.048C30.168 18.2133 29.952 18.296 29.68 18.296ZM36.1979 25V14.952H37.4459V25H36.1979ZM46.2822 25V20.504C46.2822 19.7733 46.1062 19.2187 45.7543 18.84C45.4076 18.456 44.9329 18.264 44.3302 18.264C43.8716 18.264 43.4742 18.3893 43.1382 18.64C42.8022 18.8907 42.5436 19.2507 42.3622 19.72C42.1809 20.184 42.0902 20.7387 42.0902 21.384H41.6102C41.6102 20.4933 41.7276 19.7333 41.9622 19.104C42.1969 18.4747 42.5382 17.9947 42.9862 17.664C43.4396 17.328 43.9889 17.16 44.6343 17.16C45.2369 17.16 45.7516 17.296 46.1782 17.568C46.6102 17.8347 46.9409 18.2187 47.1702 18.72C47.3996 19.2213 47.5142 19.816 47.5142 20.504V25H46.2822ZM40.8422 25V17.352H41.9142L42.0902 19.112V25H40.8422ZM56.9674 25.192C56.5514 25.192 56.178 25.112 55.8474 24.952C55.5167 24.792 55.2554 24.552 55.0634 24.232C54.8714 23.912 54.7754 23.512 54.7754 23.032V15.224H56.0074V23C56.0074 23.7893 56.3754 24.184 57.1114 24.184C57.33 24.184 57.5407 24.16 57.7434 24.112C57.9514 24.064 58.1834 23.992 58.4394 23.896L58.6154 24.792C58.3434 24.9093 58.0714 25.0053 57.7994 25.08C57.5327 25.1547 57.2554 25.192 56.9674 25.192ZM53.5434 18.216V17.352H58.4234V18.216H53.5434ZM66.231 25V20.504C66.231 19.7733 66.055 19.2187 65.703 18.84C65.3563 18.456 64.8817 18.264 64.279 18.264C63.8203 18.264 63.423 18.3893 63.087 18.64C62.751 18.8907 62.4923 19.2507 62.311 19.72C62.1297 20.184 62.039 20.7387 62.039 21.384H61.559C61.559 20.4933 61.6763 19.7333 61.911 19.104C62.1457 18.4747 62.487 17.9947 62.935 17.664C63.3883 17.328 63.9377 17.16 64.583 17.16C65.1857 17.16 65.7003 17.296 66.127 17.568C66.559 17.8347 66.8897 18.2187 67.119 18.72C67.3483 19.2213 67.463 19.816 67.463 20.504V25H66.231ZM60.791 25V14.088H62.039V25H60.791ZM73.2632 25.192C72.6019 25.192 72.0099 25.024 71.4872 24.688C70.9699 24.3467 70.5592 23.8747 70.2552 23.272C69.9566 22.6693 69.8072 21.976 69.8072 21.192C69.8072 20.3547 69.9566 19.6347 70.2552 19.032C70.5539 18.4293 70.9619 17.968 71.4792 17.648C72.0019 17.3227 72.5966 17.16 73.2632 17.16C73.8446 17.16 74.3406 17.2773 74.7512 17.512C75.1619 17.7467 75.4926 18.064 75.7432 18.464C75.9939 18.864 76.1672 19.3173 76.2632 19.824C76.3646 20.3253 76.3939 20.8453 76.3512 21.384H70.8152V20.616H75.5272L75.1592 20.856C75.1752 20.5413 75.1566 20.2267 75.1032 19.912C75.0552 19.5973 74.9619 19.3093 74.8232 19.048C74.6846 18.7813 74.4899 18.568 74.2392 18.408C73.9886 18.248 73.6686 18.168 73.2792 18.168C72.7886 18.168 72.3779 18.2933 72.0472 18.544C71.7166 18.7947 71.4686 19.1253 71.3032 19.536C71.1379 19.9413 71.0552 20.3813 71.0552 20.856V21.368C71.0552 21.9013 71.1352 22.3787 71.2952 22.8C71.4606 23.2213 71.7059 23.5547 72.0312 23.8C72.3566 24.0453 72.7672 24.168 73.2632 24.168C73.7592 24.168 74.1672 24.048 74.4872 23.808C74.8072 23.568 75.0019 23.2133 75.0712 22.744H76.3672C76.2872 23.2507 76.1059 23.688 75.8232 24.056C75.5406 24.4187 75.1806 24.6987 74.7432 24.896C74.3059 25.0933 73.8126 25.192 73.2632 25.192ZM86.4149 25.192C85.8549 25.192 85.3669 25.064 84.9509 24.808C84.5402 24.552 84.2229 24.1787 83.9989 23.688C83.7749 23.192 83.6629 22.5893 83.6629 21.88H84.1909C84.1909 22.3547 84.2895 22.7547 84.4869 23.08C84.6842 23.4053 84.9402 23.6533 85.2549 23.824C85.5749 23.9893 85.9135 24.072 86.2709 24.072C86.6549 24.072 87.0229 23.9627 87.3749 23.744C87.7269 23.52 88.0149 23.192 88.2389 22.76C88.4629 22.328 88.5749 21.7947 88.5749 21.16C88.5749 20.552 88.4709 20.032 88.2629 19.6C88.0602 19.168 87.7855 18.8373 87.4389 18.608C87.0922 18.3787 86.7082 18.264 86.2869 18.264C85.9242 18.264 85.5829 18.352 85.2629 18.528C84.9429 18.704 84.6842 18.9627 84.4869 19.304C84.2895 19.64 84.1909 20.056 84.1909 20.552H83.6629C83.6629 19.8107 83.7855 19.1893 84.0309 18.688C84.2762 18.1813 84.6095 17.8 85.0309 17.544C85.4522 17.288 85.9242 17.16 86.4469 17.16C87.0442 17.16 87.6015 17.32 88.1189 17.64C88.6362 17.96 89.0549 18.4187 89.3749 19.016C89.6949 19.6133 89.8549 20.328 89.8549 21.16C89.8549 22.0027 89.6922 22.7253 89.3669 23.328C89.0469 23.9307 88.6255 24.392 88.1029 24.712C87.5802 25.032 87.0175 25.192 86.4149 25.192ZM82.9429 28.76V17.352H83.9829L84.1909 19.144V28.76H82.9429ZM97.1982 25L97.0382 23.32V20.04C97.0382 19.352 96.8916 18.8587 96.5982 18.56C96.3049 18.256 95.8649 18.104 95.2782 18.104C94.9476 18.104 94.6462 18.152 94.3742 18.248C94.1076 18.344 93.8942 18.4933 93.7342 18.696C93.5796 18.8933 93.5022 19.1493 93.5022 19.464H92.1102C92.1102 18.9093 92.2462 18.464 92.5182 18.128C92.7902 17.7867 93.1636 17.5413 93.6382 17.392C94.1182 17.2373 94.6649 17.16 95.2782 17.16C95.8649 17.16 96.3849 17.2587 96.8382 17.456C97.2916 17.6533 97.6462 17.968 97.9022 18.4C98.1582 18.8267 98.2862 19.384 98.2862 20.072V25H97.1982ZM94.5902 25.192C93.9609 25.192 93.4409 25.08 93.0302 24.856C92.6196 24.632 92.3129 24.3413 92.1102 23.984C91.9076 23.6267 91.8062 23.2507 91.8062 22.856C91.8062 22.3387 91.9342 21.9173 92.1902 21.592C92.4516 21.2667 92.8062 21.0293 93.2542 20.88C93.7022 20.7253 94.2062 20.648 94.7662 20.648C95.1662 20.648 95.5662 20.688 95.9662 20.768C96.3716 20.848 96.7662 20.9573 97.1502 21.096V21.88C96.8302 21.752 96.4676 21.6507 96.0622 21.576C95.6622 21.5013 95.2942 21.464 94.9582 21.464C94.4462 21.464 94.0142 21.5707 93.6622 21.784C93.3102 21.992 93.1342 22.3493 93.1342 22.856C93.1342 23.2293 93.2676 23.5493 93.5342 23.816C93.8062 24.0827 94.2382 24.216 94.8302 24.216C95.2462 24.216 95.6196 24.12 95.9502 23.928C96.2862 23.7307 96.5502 23.4853 96.7422 23.192C96.9396 22.8987 97.0382 22.6053 97.0382 22.312H97.3422C97.3422 22.824 97.2302 23.2987 97.0062 23.736C96.7876 24.1733 96.4729 24.5253 96.0622 24.792C95.6516 25.0587 95.1609 25.192 94.5902 25.192ZM101.435 25V17.336H102.683V25H101.435ZM102.299 21.544C102.299 20.5733 102.392 19.768 102.579 19.128C102.765 18.4827 103.037 18.0027 103.395 17.688C103.757 17.368 104.197 17.208 104.715 17.208C104.885 17.208 105.04 17.2213 105.179 17.248C105.323 17.2693 105.467 17.304 105.611 17.352L105.531 18.584C105.381 18.536 105.219 18.496 105.043 18.464C104.867 18.4267 104.709 18.408 104.571 18.408C104.117 18.408 103.752 18.5387 103.475 18.8C103.197 19.056 102.995 19.4187 102.867 19.888C102.744 20.3573 102.683 20.9093 102.683 21.544H102.299ZM112.112 25L111.952 23.32V20.04C111.952 19.352 111.805 18.8587 111.512 18.56C111.219 18.256 110.779 18.104 110.192 18.104C109.861 18.104 109.56 18.152 109.288 18.248C109.021 18.344 108.808 18.4933 108.648 18.696C108.493 18.8933 108.416 19.1493 108.416 19.464H107.024C107.024 18.9093 107.16 18.464 107.432 18.128C107.704 17.7867 108.077 17.5413 108.552 17.392C109.032 17.2373 109.579 17.16 110.192 17.16C110.779 17.16 111.299 17.2587 111.752 17.456C112.205 17.6533 112.56 17.968 112.816 18.4C113.072 18.8267 113.2 19.384 113.2 20.072V25H112.112ZM109.504 25.192C108.875 25.192 108.355 25.08 107.944 24.856C107.533 24.632 107.227 24.3413 107.024 23.984C106.821 23.6267 106.72 23.2507 106.72 22.856C106.72 22.3387 106.848 21.9173 107.104 21.592C107.365 21.2667 107.72 21.0293 108.168 20.88C108.616 20.7253 109.12 20.648 109.68 20.648C110.08 20.648 110.48 20.688 110.88 20.768C111.285 20.848 111.68 20.9573 112.064 21.096V21.88C111.744 21.752 111.381 21.6507 110.976 21.576C110.576 21.5013 110.208 21.464 109.872 21.464C109.36 21.464 108.928 21.5707 108.576 21.784C108.224 21.992 108.048 22.3493 108.048 22.856C108.048 23.2293 108.181 23.5493 108.448 23.816C108.72 24.0827 109.152 24.216 109.744 24.216C110.16 24.216 110.533 24.12 110.864 23.928C111.2 23.7307 111.464 23.4853 111.656 23.192C111.853 22.8987 111.952 22.6053 111.952 22.312H112.256C112.256 22.824 112.144 23.2987 111.92 23.736C111.701 24.1733 111.387 24.5253 110.976 24.792C110.565 25.0587 110.075 25.192 109.504 25.192ZM119.052 28.936C118.268 28.936 117.588 28.824 117.012 28.6C116.436 28.3813 115.988 28.0853 115.668 27.712C115.354 27.344 115.196 26.936 115.196 26.488C115.196 25.896 115.412 25.4427 115.844 25.128C116.282 24.8187 116.844 24.664 117.532 24.664L118.22 25.096C117.644 25.096 117.199 25.216 116.884 25.456C116.57 25.696 116.412 26.024 116.412 26.44C116.412 26.856 116.636 27.208 117.084 27.496C117.532 27.784 118.188 27.928 119.052 27.928C119.692 27.928 120.252 27.8347 120.732 27.648C121.218 27.4667 121.594 27.2267 121.86 26.928C122.132 26.6347 122.268 26.3173 122.268 25.976C122.268 25.736 122.18 25.528 122.004 25.352C121.828 25.1813 121.559 25.096 121.196 25.096H118.22C117.703 25.096 117.255 25.0187 116.876 24.864C116.503 24.704 116.215 24.496 116.012 24.24C115.81 23.984 115.708 23.704 115.708 23.4C115.708 23.08 115.799 22.808 115.98 22.584C116.162 22.36 116.396 22.1893 116.684 22.072C116.978 21.9547 117.292 21.896 117.628 21.896L117.868 22.36C117.708 22.36 117.546 22.3973 117.38 22.472C117.22 22.5413 117.084 22.648 116.972 22.792C116.866 22.9307 116.812 23.1067 116.812 23.32C116.812 23.5653 116.914 23.7707 117.116 23.936C117.319 24.1013 117.687 24.184 118.22 24.184H121.196C121.916 24.184 122.482 24.336 122.892 24.64C123.308 24.944 123.516 25.368 123.516 25.912C123.516 26.4133 123.338 26.8933 122.98 27.352C122.623 27.816 122.111 28.1947 121.444 28.488C120.778 28.7867 119.98 28.936 119.052 28.936ZM119.276 22.76C118.69 22.76 118.159 22.6427 117.684 22.408C117.215 22.1733 116.842 21.8453 116.564 21.424C116.292 21.0027 116.156 20.5147 116.156 19.96C116.156 19.4 116.292 18.9093 116.564 18.488C116.842 18.0667 117.215 17.7413 117.684 17.512C118.159 17.2773 118.69 17.16 119.276 17.16C119.847 17.16 120.364 17.2773 120.828 17.512C121.298 17.7413 121.671 18.0667 121.948 18.488C122.226 18.9093 122.364 19.4 122.364 19.96C122.364 20.5147 122.226 21.0027 121.948 21.424C121.671 21.8453 121.298 22.1733 120.828 22.408C120.364 22.6427 119.847 22.76 119.276 22.76ZM119.276 21.864C119.863 21.864 120.319 21.6827 120.644 21.32C120.97 20.9573 121.132 20.504 121.132 19.96C121.132 19.4 120.97 18.9467 120.644 18.6C120.319 18.248 119.863 18.072 119.276 18.072C118.695 18.072 118.236 18.248 117.9 18.6C117.57 18.9467 117.404 19.4 117.404 19.96C117.404 20.504 117.57 20.9573 117.9 21.32C118.236 21.6827 118.695 21.864 119.276 21.864ZM121.788 18.376L121.196 18.136C121.196 17.688 121.284 17.296 121.46 16.96C121.636 16.6187 121.887 16.3547 122.212 16.168C122.538 15.976 122.924 15.88 123.372 15.88L123.276 17.112C122.796 17.112 122.428 17.216 122.172 17.424C121.916 17.6267 121.788 17.944 121.788 18.376ZM125.54 25V17.336H126.788V25H125.54ZM126.404 21.544C126.404 20.5733 126.497 19.768 126.684 19.128C126.87 18.4827 127.142 18.0027 127.5 17.688C127.862 17.368 128.302 17.208 128.82 17.208C128.99 17.208 129.145 17.2213 129.284 17.248C129.428 17.2693 129.572 17.304 129.716 17.352L129.636 18.584C129.486 18.536 129.324 18.496 129.148 18.464C128.972 18.4267 128.814 18.408 128.676 18.408C128.222 18.408 127.857 18.5387 127.58 18.8C127.302 19.056 127.1 19.4187 126.972 19.888C126.849 20.3573 126.788 20.9093 126.788 21.544H126.404ZM136.217 25L136.057 23.32V20.04C136.057 19.352 135.91 18.8587 135.617 18.56C135.324 18.256 134.884 18.104 134.297 18.104C133.966 18.104 133.665 18.152 133.393 18.248C133.126 18.344 132.913 18.4933 132.753 18.696C132.598 18.8933 132.521 19.1493 132.521 19.464H131.129C131.129 18.9093 131.265 18.464 131.537 18.128C131.809 17.7867 132.182 17.5413 132.657 17.392C133.137 17.2373 133.684 17.16 134.297 17.16C134.884 17.16 135.404 17.2587 135.857 17.456C136.31 17.6533 136.665 17.968 136.921 18.4C137.177 18.8267 137.305 19.384 137.305 20.072V25H136.217ZM133.609 25.192C132.98 25.192 132.46 25.08 132.049 24.856C131.638 24.632 131.332 24.3413 131.129 23.984C130.926 23.6267 130.825 23.2507 130.825 22.856C130.825 22.3387 130.953 21.9173 131.209 21.592C131.47 21.2667 131.825 21.0293 132.273 20.88C132.721 20.7253 133.225 20.648 133.785 20.648C134.185 20.648 134.585 20.688 134.985 20.768C135.39 20.848 135.785 20.9573 136.169 21.096V21.88C135.849 21.752 135.486 21.6507 135.081 21.576C134.681 21.5013 134.313 21.464 133.977 21.464C133.465 21.464 133.033 21.5707 132.681 21.784C132.329 21.992 132.153 22.3493 132.153 22.856C132.153 23.2293 132.286 23.5493 132.553 23.816C132.825 24.0827 133.257 24.216 133.849 24.216C134.265 24.216 134.638 24.12 134.969 23.928C135.305 23.7307 135.569 23.4853 135.761 23.192C135.958 22.8987 136.057 22.6053 136.057 22.312H136.361C136.361 22.824 136.249 23.2987 136.025 23.736C135.806 24.1733 135.492 24.5253 135.081 24.792C134.67 25.0587 134.18 25.192 133.609 25.192ZM143.926 25.192C143.366 25.192 142.878 25.064 142.462 24.808C142.051 24.552 141.734 24.1787 141.51 23.688C141.286 23.192 141.174 22.5893 141.174 21.88H141.702C141.702 22.3547 141.8 22.7547 141.998 23.08C142.195 23.4053 142.451 23.6533 142.766 23.824C143.086 23.9893 143.424 24.072 143.782 24.072C144.166 24.072 144.534 23.9627 144.886 23.744C145.238 23.52 145.526 23.192 145.75 22.76C145.974 22.328 146.086 21.7947 146.086 21.16C146.086 20.552 145.982 20.032 145.774 19.6C145.571 19.168 145.296 18.8373 144.95 18.608C144.603 18.3787 144.219 18.264 143.798 18.264C143.435 18.264 143.094 18.352 142.774 18.528C142.454 18.704 142.195 18.9627 141.998 19.304C141.8 19.64 141.702 20.056 141.702 20.552H141.174C141.174 19.8107 141.296 19.1893 141.542 18.688C141.787 18.1813 142.12 17.8 142.542 17.544C142.963 17.288 143.435 17.16 143.958 17.16C144.555 17.16 145.112 17.32 145.63 17.64C146.147 17.96 146.566 18.4187 146.886 19.016C147.206 19.6133 147.366 20.328 147.366 21.16C147.366 22.0027 147.203 22.7253 146.878 23.328C146.558 23.9307 146.136 24.392 145.614 24.712C145.091 25.032 144.528 25.192 143.926 25.192ZM140.454 28.76V17.352H141.494L141.702 19.144V28.76H140.454ZM155.413 25V20.504C155.413 19.7733 155.237 19.2187 154.885 18.84C154.538 18.456 154.064 18.264 153.461 18.264C153.002 18.264 152.605 18.3893 152.269 18.64C151.933 18.8907 151.674 19.2507 151.493 19.72C151.312 20.184 151.221 20.7387 151.221 21.384H150.741C150.741 20.4933 150.858 19.7333 151.093 19.104C151.328 18.4747 151.669 17.9947 152.117 17.664C152.57 17.328 153.12 17.16 153.765 17.16C154.368 17.16 154.882 17.296 155.309 17.568C155.741 17.8347 156.072 18.2187 156.301 18.72C156.53 19.2213 156.645 19.816 156.645 20.504V25H155.413ZM149.973 25V14.088H151.221V25H149.973ZM162.418 17.352H163.714L165.666 23.736H165.506L167.41 17.72H168.45L170.338 23.752H170.194L172.146 17.352H173.394L170.882 25H169.666L167.81 19.352H168.002L166.162 25H164.946L162.418 17.352ZM178.268 25.192C177.58 25.192 176.966 25.04 176.428 24.736C175.894 24.432 175.473 23.9813 175.164 23.384C174.854 22.7867 174.7 22.0507 174.7 21.176C174.7 20.296 174.854 19.56 175.164 18.968C175.473 18.3707 175.894 17.92 176.428 17.616C176.966 17.312 177.58 17.16 178.268 17.16C178.95 17.16 179.558 17.312 180.092 17.616C180.63 17.92 181.052 18.3707 181.356 18.968C181.665 19.56 181.82 20.296 181.82 21.176C181.82 22.0507 181.665 22.7867 181.356 23.384C181.052 23.9813 180.63 24.432 180.092 24.736C179.558 25.04 178.95 25.192 178.268 25.192ZM178.236 24.104C178.732 24.104 179.153 23.9867 179.5 23.752C179.846 23.512 180.108 23.1733 180.284 22.736C180.465 22.2987 180.556 21.7787 180.556 21.176C180.556 20.264 180.366 19.5467 179.988 19.024C179.609 18.496 179.046 18.232 178.3 18.232C177.798 18.232 177.374 18.352 177.028 18.592C176.686 18.8267 176.425 19.1653 176.244 19.608C176.068 20.0453 175.98 20.568 175.98 21.176C175.98 22.0773 176.169 22.792 176.548 23.32C176.932 23.8427 177.494 24.104 178.236 24.104ZM187.178 25.192C186.49 25.192 185.876 25.04 185.338 24.736C184.804 24.432 184.383 23.9813 184.074 23.384C183.764 22.7867 183.61 22.0507 183.61 21.176C183.61 20.296 183.764 19.56 184.074 18.968C184.383 18.3707 184.804 17.92 185.338 17.616C185.876 17.312 186.49 17.16 187.178 17.16C187.86 17.16 188.468 17.312 189.002 17.616C189.54 17.92 189.962 18.3707 190.266 18.968C190.575 19.56 190.73 20.296 190.73 21.176C190.73 22.0507 190.575 22.7867 190.266 23.384C189.962 23.9813 189.54 24.432 189.002 24.736C188.468 25.04 187.86 25.192 187.178 25.192ZM187.146 24.104C187.642 24.104 188.063 23.9867 188.41 23.752C188.756 23.512 189.018 23.1733 189.194 22.736C189.375 22.2987 189.466 21.7787 189.466 21.176C189.466 20.264 189.276 19.5467 188.898 19.024C188.519 18.496 187.956 18.232 187.21 18.232C186.708 18.232 186.284 18.352 185.938 18.592C185.596 18.8267 185.335 19.1653 185.154 19.608C184.978 20.0453 184.89 20.568 184.89 21.176C184.89 22.0773 185.079 22.792 185.458 23.32C185.842 23.8427 186.404 24.104 187.146 24.104ZM196.056 25.192C195.437 25.192 194.869 25.0267 194.352 24.696C193.834 24.36 193.421 23.8907 193.112 23.288C192.802 22.68 192.648 21.9653 192.648 21.144C192.648 20.328 192.8 19.6213 193.104 19.024C193.408 18.4267 193.81 17.968 194.312 17.648C194.818 17.3227 195.373 17.16 195.976 17.16C196.536 17.16 197.026 17.296 197.448 17.568C197.874 17.84 198.205 18.232 198.44 18.744C198.674 19.256 198.792 19.8747 198.792 20.6H198.312C198.312 20.0933 198.21 19.6667 198.008 19.32C197.81 18.9733 197.552 18.712 197.232 18.536C196.912 18.3547 196.568 18.264 196.2 18.264C195.784 18.264 195.402 18.3813 195.056 18.616C194.714 18.8453 194.44 19.176 194.232 19.608C194.029 20.0347 193.928 20.5467 193.928 21.144C193.928 21.752 194.029 22.2747 194.232 22.712C194.44 23.1493 194.714 23.4853 195.056 23.72C195.402 23.9547 195.784 24.072 196.2 24.072C196.546 24.072 196.88 23.9813 197.2 23.8C197.525 23.6187 197.792 23.3547 198 23.008C198.208 22.656 198.312 22.232 198.312 21.736H198.792C198.792 22.4773 198.669 23.1067 198.424 23.624C198.184 24.136 197.856 24.5253 197.44 24.792C197.029 25.0587 196.568 25.192 196.056 25.192ZM198.52 25L198.312 23.208V14.088H199.56V25H198.52ZM33.088 45.192C32.528 45.192 32.04 45.064 31.624 44.808C31.2133 44.552 30.896 44.1787 30.672 43.688C30.448 43.192 30.336 42.5893 30.336 41.88H30.864C30.864 42.3547 30.9627 42.7547 31.16 43.08C31.3573 43.4053 31.6133 43.6533 31.928 43.824C32.248 43.9893 32.5867 44.072 32.944 44.072C33.328 44.072 33.696 43.9627 34.048 43.744C34.4 43.52 34.688 43.192 34.912 42.76C35.136 42.328 35.248 41.7947 35.248 41.16C35.248 40.552 35.144 40.032 34.936 39.6C34.7333 39.168 34.4587 38.8373 34.112 38.608C33.7653 38.3787 33.3813 38.264 32.96 38.264C32.5973 38.264 32.256 38.352 31.936 38.528C31.616 38.704 31.3573 38.9627 31.16 39.304C30.9627 39.64 30.864 40.056 30.864 40.552H30.336C30.336 39.8107 30.4587 39.1893 30.704 38.688C30.9493 38.1813 31.2827 37.8 31.704 37.544C32.1253 37.288 32.5973 37.16 33.12 37.16C33.7173 37.16 34.2747 37.32 34.792 37.64C35.3093 37.96 35.728 38.4187 36.048 39.016C36.368 39.6133 36.528 40.328 36.528 41.16C36.528 42.0027 36.3653 42.7253 36.04 43.328C35.72 43.9307 35.2987 44.392 34.776 44.712C34.2533 45.032 33.6907 45.192 33.088 45.192ZM29.616 48.76V37.352H30.656L30.864 39.144V48.76H29.616ZM39.1354 45V37.336H40.3834V45H39.1354ZM39.9994 41.544C39.9994 40.5733 40.0927 39.768 40.2794 39.128C40.466 38.4827 40.738 38.0027 41.0954 37.688C41.458 37.368 41.898 37.208 42.4154 37.208C42.586 37.208 42.7407 37.2213 42.8794 37.248C43.0234 37.2693 43.1674 37.304 43.3114 37.352L43.2314 38.584C43.082 38.536 42.9194 38.496 42.7434 38.464C42.5674 38.4267 42.41 38.408 42.2714 38.408C41.818 38.408 41.4527 38.5387 41.1754 38.8C40.898 39.056 40.6954 39.4187 40.5674 39.888C40.4447 40.3573 40.3834 40.9093 40.3834 41.544H39.9994ZM47.8446 45.192C47.1566 45.192 46.5433 45.04 46.0046 44.736C45.4713 44.432 45.05 43.9813 44.7406 43.384C44.4313 42.7867 44.2766 42.0507 44.2766 41.176C44.2766 40.296 44.4313 39.56 44.7406 38.968C45.05 38.3707 45.4713 37.92 46.0046 37.616C46.5433 37.312 47.1566 37.16 47.8446 37.16C48.5273 37.16 49.1353 37.312 49.6686 37.616C50.2073 37.92 50.6286 38.3707 50.9326 38.968C51.242 39.56 51.3966 40.296 51.3966 41.176C51.3966 42.0507 51.242 42.7867 50.9326 43.384C50.6286 43.9813 50.2073 44.432 49.6686 44.736C49.1353 45.04 48.5273 45.192 47.8446 45.192ZM47.8126 44.104C48.3086 44.104 48.73 43.9867 49.0766 43.752C49.4233 43.512 49.6846 43.1733 49.8606 42.736C50.042 42.2987 50.1326 41.7787 50.1326 41.176C50.1326 40.264 49.9433 39.5467 49.5646 39.024C49.186 38.496 48.6233 38.232 47.8766 38.232C47.3753 38.232 46.9513 38.352 46.6046 38.592C46.2633 38.8267 46.002 39.1653 45.8206 39.608C45.6446 40.0453 45.5566 40.568 45.5566 41.176C45.5566 42.0773 45.746 42.792 46.1246 43.32C46.5086 43.8427 47.0713 44.104 47.8126 44.104ZM56.7226 45.192C56.104 45.192 55.536 45.0267 55.0186 44.696C54.5013 44.36 54.088 43.8907 53.7786 43.288C53.4693 42.68 53.3146 41.9653 53.3146 41.144C53.3146 40.328 53.4666 39.6213 53.7706 39.024C54.0746 38.4267 54.4773 37.968 54.9786 37.648C55.4853 37.3227 56.04 37.16 56.6426 37.16C57.2026 37.16 57.6933 37.296 58.1146 37.568C58.5413 37.84 58.872 38.232 59.1066 38.744C59.3413 39.256 59.4586 39.8747 59.4586 40.6H58.9786C58.9786 40.0933 58.8773 39.6667 58.6746 39.32C58.4773 38.9733 58.2186 38.712 57.8986 38.536C57.5786 38.3547 57.2346 38.264 56.8666 38.264C56.4506 38.264 56.0693 38.3813 55.7226 38.616C55.3813 38.8453 55.1066 39.176 54.8986 39.608C54.696 40.0347 54.5946 40.5467 54.5946 41.144C54.5946 41.752 54.696 42.2747 54.8986 42.712C55.1066 43.1493 55.3813 43.4853 55.7226 43.72C56.0693 43.9547 56.4506 44.072 56.8666 44.072C57.2133 44.072 57.5466 43.9813 57.8666 43.8C58.192 43.6187 58.4586 43.3547 58.6666 43.008C58.8746 42.656 58.9786 42.232 58.9786 41.736H59.4586C59.4586 42.4773 59.336 43.1067 59.0906 43.624C58.8506 44.136 58.5226 44.5253 58.1066 44.792C57.696 45.0587 57.2346 45.192 56.7226 45.192ZM59.1866 45L58.9786 43.208V34.088H60.2266V45H59.1866ZM68.831 37.336H70.079V45H68.831V37.336ZM63.407 37.336H64.655V42.104C64.655 42.744 64.8097 43.2293 65.119 43.56C65.4337 43.8907 65.8817 44.056 66.463 44.056C66.943 44.056 67.359 43.928 67.711 43.672C68.0683 43.416 68.343 43.064 68.535 42.616C68.7323 42.1627 68.831 41.6453 68.831 41.064H69.295C69.295 41.9227 69.1697 42.656 68.919 43.264C68.6737 43.872 68.3243 44.3387 67.871 44.664C67.423 44.984 66.895 45.144 66.287 45.144C65.711 45.144 65.207 45.0373 64.775 44.824C64.343 44.6107 64.007 44.288 63.767 43.856C63.527 43.4187 63.407 42.8667 63.407 42.2V37.336ZM76.1665 45.192C75.5532 45.192 74.9798 45.0267 74.4465 44.696C73.9185 44.3653 73.4918 43.8987 73.1665 43.296C72.8412 42.6933 72.6785 41.9813 72.6785 41.16C72.6785 40.3173 72.8412 39.5973 73.1665 39C73.4918 38.4027 73.9185 37.9467 74.4465 37.632C74.9798 37.3173 75.5532 37.16 76.1665 37.16C76.5985 37.16 76.9852 37.2267 77.3265 37.36C77.6732 37.488 77.9745 37.6667 78.2305 37.896C78.4865 38.1253 78.6972 38.3867 78.8625 38.68C79.0332 38.968 79.1585 39.272 79.2385 39.592L77.9585 39.704C77.8252 39.2613 77.6012 38.912 77.2865 38.656C76.9772 38.3947 76.5985 38.264 76.1505 38.264C75.7718 38.264 75.4145 38.3733 75.0785 38.592C74.7478 38.8053 74.4785 39.128 74.2705 39.56C74.0625 39.9867 73.9585 40.52 73.9585 41.16C73.9585 41.752 74.0518 42.2667 74.2385 42.704C74.4305 43.136 74.6918 43.472 75.0225 43.712C75.3532 43.952 75.7292 44.072 76.1505 44.072C76.7425 44.072 77.1905 43.928 77.4945 43.64C77.8038 43.3467 77.9585 42.9413 77.9585 42.424H79.2385C79.2385 42.9573 79.1132 43.432 78.8625 43.848C78.6118 44.264 78.2545 44.592 77.7905 44.832C77.3318 45.072 76.7905 45.192 76.1665 45.192ZM84.2405 45.192C83.8245 45.192 83.4512 45.112 83.1205 44.952C82.7898 44.792 82.5285 44.552 82.3365 44.232C82.1445 43.912 82.0485 43.512 82.0485 43.032V35.224H83.2805V43C83.2805 43.7893 83.6485 44.184 84.3845 44.184C84.6032 44.184 84.8138 44.16 85.0165 44.112C85.2245 44.064 85.4565 43.992 85.7125 43.896L85.8885 44.792C85.6165 44.9093 85.3445 45.0053 85.0725 45.08C84.8058 45.1547 84.5285 45.192 84.2405 45.192ZM80.8165 38.216V37.352H85.6965V38.216H80.8165ZM90.8161 45.192C90.0748 45.192 89.4561 45.088 88.9601 44.88C88.4641 44.6667 88.0881 44.376 87.8321 44.008C87.5761 43.6347 87.4401 43.208 87.4241 42.728H88.6241C88.6508 43.2133 88.8455 43.5787 89.2081 43.824C89.5761 44.064 90.0748 44.184 90.7041 44.184C91.0348 44.184 91.3388 44.1307 91.6161 44.024C91.8935 43.9173 92.1148 43.7707 92.2801 43.584C92.4455 43.3973 92.5281 43.1867 92.5281 42.952C92.5281 42.6533 92.4188 42.4187 92.2001 42.248C91.9815 42.0773 91.6321 41.928 91.1521 41.8L89.6641 41.32C89.0188 41.1173 88.5228 40.84 88.1761 40.488C87.8348 40.1307 87.6641 39.704 87.6641 39.208C87.6641 38.5893 87.9361 38.0933 88.4801 37.72C89.0241 37.3467 89.7388 37.16 90.6241 37.16C91.5628 37.16 92.2908 37.352 92.8081 37.736C93.3255 38.12 93.5948 38.6 93.6161 39.176H92.3841C92.3361 38.84 92.1655 38.5867 91.8721 38.416C91.5788 38.24 91.1628 38.152 90.6241 38.152C90.1068 38.152 89.7015 38.2693 89.4081 38.504C89.1201 38.7333 88.9761 38.9893 88.9761 39.272C88.9761 39.8 89.4295 40.1893 90.3361 40.44L91.8561 40.952C92.5121 41.1493 93.0135 41.408 93.3601 41.728C93.7121 42.048 93.8881 42.456 93.8881 42.952C93.8881 43.336 93.7628 43.6987 93.5121 44.04C93.2615 44.3813 92.9068 44.6587 92.4481 44.872C91.9895 45.0853 91.4455 45.192 90.8161 45.192ZM105.323 45L105.163 43.32V40.04C105.163 39.352 105.017 38.8587 104.723 38.56C104.43 38.256 103.99 38.104 103.403 38.104C103.073 38.104 102.771 38.152 102.499 38.248C102.233 38.344 102.019 38.4933 101.859 38.696C101.705 38.8933 101.627 39.1493 101.627 39.464H100.235C100.235 38.9093 100.371 38.464 100.643 38.128C100.915 37.7867 101.289 37.5413 101.763 37.392C102.243 37.2373 102.79 37.16 103.403 37.16C103.99 37.16 104.51 37.2587 104.963 37.456C105.417 37.6533 105.771 37.968 106.027 38.4C106.283 38.8267 106.411 39.384 106.411 40.072V45H105.323ZM102.715 45.192C102.086 45.192 101.566 45.08 101.155 44.856C100.745 44.632 100.438 44.3413 100.235 43.984C100.033 43.6267 99.9313 43.2507 99.9313 42.856C99.9313 42.3387 100.059 41.9173 100.315 41.592C100.577 41.2667 100.931 41.0293 101.379 40.88C101.827 40.7253 102.331 40.648 102.891 40.648C103.291 40.648 103.691 40.688 104.091 40.768C104.497 40.848 104.891 40.9573 105.275 41.096V41.88C104.955 41.752 104.593 41.6507 104.187 41.576C103.787 41.5013 103.419 41.464 103.083 41.464C102.571 41.464 102.139 41.5707 101.787 41.784C101.435 41.992 101.259 42.3493 101.259 42.856C101.259 43.2293 101.393 43.5493 101.659 43.816C101.931 44.0827 102.363 44.216 102.955 44.216C103.371 44.216 103.745 44.12 104.075 43.928C104.411 43.7307 104.675 43.4853 104.867 43.192C105.065 42.8987 105.163 42.6053 105.163 42.312H105.467C105.467 42.824 105.355 43.2987 105.131 43.736C104.913 44.1733 104.598 44.5253 104.187 44.792C103.777 45.0587 103.286 45.192 102.715 45.192ZM109.56 45V37.336H110.808V45H109.56ZM110.424 41.544C110.424 40.5733 110.517 39.768 110.704 39.128C110.89 38.4827 111.162 38.0027 111.52 37.688C111.882 37.368 112.322 37.208 112.84 37.208C113.01 37.208 113.165 37.2213 113.304 37.248C113.448 37.2693 113.592 37.304 113.736 37.352L113.656 38.584C113.506 38.536 113.344 38.496 113.168 38.464C112.992 38.4267 112.834 38.408 112.696 38.408C112.242 38.408 111.877 38.5387 111.6 38.8C111.322 39.056 111.12 39.4187 110.992 39.888C110.869 40.3573 110.808 40.9093 110.808 41.544H110.424ZM118.157 45.192C117.496 45.192 116.904 45.024 116.381 44.688C115.864 44.3467 115.453 43.8747 115.149 43.272C114.85 42.6693 114.701 41.976 114.701 41.192C114.701 40.3547 114.85 39.6347 115.149 39.032C115.448 38.4293 115.856 37.968 116.373 37.648C116.896 37.3227 117.49 37.16 118.157 37.16C118.738 37.16 119.234 37.2773 119.645 37.512C120.056 37.7467 120.386 38.064 120.637 38.464C120.888 38.864 121.061 39.3173 121.157 39.824C121.258 40.3253 121.288 40.8453 121.245 41.384H115.709V40.616H120.421L120.053 40.856C120.069 40.5413 120.05 40.2267 119.997 39.912C119.949 39.5973 119.856 39.3093 119.717 39.048C119.578 38.7813 119.384 38.568 119.133 38.408C118.882 38.248 118.562 38.168 118.173 38.168C117.682 38.168 117.272 38.2933 116.941 38.544C116.61 38.7947 116.362 39.1253 116.197 39.536C116.032 39.9413 115.949 40.3813 115.949 40.856V41.368C115.949 41.9013 116.029 42.3787 116.189 42.8C116.354 43.2213 116.6 43.5547 116.925 43.8C117.25 44.0453 117.661 44.168 118.157 44.168C118.653 44.168 119.061 44.048 119.381 43.808C119.701 43.568 119.896 43.2133 119.965 42.744H121.261C121.181 43.2507 121 43.688 120.717 44.056C120.434 44.4187 120.074 44.6987 119.637 44.896C119.2 45.0933 118.706 45.192 118.157 45.192ZM130.573 45.192C129.954 45.192 129.386 45.0267 128.869 44.696C128.351 44.36 127.938 43.8907 127.629 43.288C127.319 42.68 127.165 41.9653 127.165 41.144C127.165 40.328 127.317 39.6213 127.621 39.024C127.925 38.4267 128.327 37.968 128.829 37.648C129.335 37.3227 129.89 37.16 130.493 37.16C131.053 37.16 131.543 37.296 131.965 37.568C132.391 37.84 132.722 38.232 132.957 38.744C133.191 39.256 133.309 39.8747 133.309 40.6H132.829C132.829 40.0933 132.727 39.6667 132.525 39.32C132.327 38.9733 132.069 38.712 131.749 38.536C131.429 38.3547 131.085 38.264 130.717 38.264C130.301 38.264 129.919 38.3813 129.573 38.616C129.231 38.8453 128.957 39.176 128.749 39.608C128.546 40.0347 128.445 40.5467 128.445 41.144C128.445 41.752 128.546 42.2747 128.749 42.712C128.957 43.1493 129.231 43.4853 129.573 43.72C129.919 43.9547 130.301 44.072 130.717 44.072C131.063 44.072 131.397 43.9813 131.717 43.8C132.042 43.6187 132.309 43.3547 132.517 43.008C132.725 42.656 132.829 42.232 132.829 41.736H133.309C133.309 42.4773 133.186 43.1067 132.941 43.624C132.701 44.136 132.373 44.5253 131.957 44.792C131.546 45.0587 131.085 45.192 130.573 45.192ZM133.037 45L132.829 43.208V34.088H134.077V45H133.037ZM140.137 45.192C139.476 45.192 138.884 45.024 138.361 44.688C137.844 44.3467 137.433 43.8747 137.129 43.272C136.83 42.6693 136.681 41.976 136.681 41.192C136.681 40.3547 136.83 39.6347 137.129 39.032C137.428 38.4293 137.836 37.968 138.353 37.648C138.876 37.3227 139.47 37.16 140.137 37.16C140.718 37.16 141.214 37.2773 141.625 37.512C142.036 37.7467 142.366 38.064 142.617 38.464C142.868 38.864 143.041 39.3173 143.137 39.824C143.238 40.3253 143.268 40.8453 143.225 41.384H137.689V40.616H142.401L142.033 40.856C142.049 40.5413 142.03 40.2267 141.977 39.912C141.929 39.5973 141.836 39.3093 141.697 39.048C141.558 38.7813 141.364 38.568 141.113 38.408C140.862 38.248 140.542 38.168 140.153 38.168C139.662 38.168 139.252 38.2933 138.921 38.544C138.59 38.7947 138.342 39.1253 138.177 39.536C138.012 39.9413 137.929 40.3813 137.929 40.856V41.368C137.929 41.9013 138.009 42.3787 138.169 42.8C138.334 43.2213 138.58 43.5547 138.905 43.8C139.23 44.0453 139.641 44.168 140.137 44.168C140.633 44.168 141.041 44.048 141.361 43.808C141.681 43.568 141.876 43.2133 141.945 42.744H143.241C143.161 43.2507 142.98 43.688 142.697 44.056C142.414 44.4187 142.054 44.6987 141.617 44.896C141.18 45.0933 140.686 45.192 140.137 45.192ZM148.612 45.192C147.87 45.192 147.252 45.088 146.756 44.88C146.26 44.6667 145.884 44.376 145.628 44.008C145.372 43.6347 145.236 43.208 145.22 42.728H146.42C146.446 43.2133 146.641 43.5787 147.004 43.824C147.372 44.064 147.87 44.184 148.5 44.184C148.83 44.184 149.134 44.1307 149.412 44.024C149.689 43.9173 149.91 43.7707 150.076 43.584C150.241 43.3973 150.324 43.1867 150.324 42.952C150.324 42.6533 150.214 42.4187 149.996 42.248C149.777 42.0773 149.428 41.928 148.948 41.8L147.46 41.32C146.814 41.1173 146.318 40.84 145.972 40.488C145.63 40.1307 145.46 39.704 145.46 39.208C145.46 38.5893 145.732 38.0933 146.276 37.72C146.82 37.3467 147.534 37.16 148.42 37.16C149.358 37.16 150.086 37.352 150.604 37.736C151.121 38.12 151.39 38.6 151.412 39.176H150.18C150.132 38.84 149.961 38.5867 149.668 38.416C149.374 38.24 148.958 38.152 148.42 38.152C147.902 38.152 147.497 38.2693 147.204 38.504C146.916 38.7333 146.772 38.9893 146.772 39.272C146.772 39.8 147.225 40.1893 148.132 40.44L149.652 40.952C150.308 41.1493 150.809 41.408 151.156 41.728C151.508 42.048 151.684 42.456 151.684 42.952C151.684 43.336 151.558 43.6987 151.308 44.04C151.057 44.3813 150.702 44.6587 150.244 44.872C149.785 45.0853 149.241 45.192 148.612 45.192ZM157.114 45.192C156.501 45.192 155.927 45.0267 155.394 44.696C154.866 44.3653 154.439 43.8987 154.114 43.296C153.789 42.6933 153.626 41.9813 153.626 41.16C153.626 40.3173 153.789 39.5973 154.114 39C154.439 38.4027 154.866 37.9467 155.394 37.632C155.927 37.3173 156.501 37.16 157.114 37.16C157.546 37.16 157.933 37.2267 158.274 37.36C158.621 37.488 158.922 37.6667 159.178 37.896C159.434 38.1253 159.645 38.3867 159.81 38.68C159.981 38.968 160.106 39.272 160.186 39.592L158.906 39.704C158.773 39.2613 158.549 38.912 158.234 38.656C157.925 38.3947 157.546 38.264 157.098 38.264C156.719 38.264 156.362 38.3733 156.026 38.592C155.695 38.8053 155.426 39.128 155.218 39.56C155.01 39.9867 154.906 40.52 154.906 41.16C154.906 41.752 154.999 42.2667 155.186 42.704C155.378 43.136 155.639 43.472 155.97 43.712C156.301 43.952 156.677 44.072 157.098 44.072C157.69 44.072 158.138 43.928 158.442 43.64C158.751 43.3467 158.906 42.9413 158.906 42.424H160.186C160.186 42.9573 160.061 43.432 159.81 43.848C159.559 44.264 159.202 44.592 158.738 44.832C158.279 45.072 157.738 45.192 157.114 45.192ZM162.836 45V37.336H164.084V45H162.836ZM163.7 41.544C163.7 40.5733 163.793 39.768 163.98 39.128C164.167 38.4827 164.439 38.0027 164.796 37.688C165.159 37.368 165.599 37.208 166.116 37.208C166.287 37.208 166.441 37.2213 166.58 37.248C166.724 37.2693 166.868 37.304 167.012 37.352L166.932 38.584C166.783 38.536 166.62 38.496 166.444 38.464C166.268 38.4267 166.111 38.408 165.972 38.408C165.519 38.408 165.153 38.5387 164.876 38.8C164.599 39.056 164.396 39.4187 164.268 39.888C164.145 40.3573 164.084 40.9093 164.084 41.544H163.7ZM169.481 35.544C169.225 35.544 169.023 35.472 168.873 35.328C168.724 35.1787 168.649 34.984 168.649 34.744C168.649 34.5093 168.724 34.3227 168.873 34.184C169.023 34.0453 169.225 33.976 169.481 33.976C169.737 33.976 169.94 34.0453 170.089 34.184C170.239 34.3227 170.313 34.5093 170.313 34.744C170.313 34.984 170.239 35.1787 170.089 35.328C169.94 35.472 169.737 35.544 169.481 35.544ZM168.857 45V37.336H170.105V45H168.857ZM177.207 45.192C176.695 45.192 176.231 45.0587 175.815 44.792C175.404 44.5253 175.076 44.136 174.831 43.624C174.591 43.1067 174.471 42.4773 174.471 41.736H174.951C174.951 42.232 175.052 42.656 175.255 43.008C175.463 43.3547 175.73 43.6187 176.055 43.8C176.38 43.9813 176.722 44.072 177.079 44.072C177.49 44.072 177.866 43.9547 178.207 43.72C178.548 43.4853 178.82 43.1493 179.023 42.712C179.231 42.2747 179.335 41.752 179.335 41.144C179.335 40.5467 179.234 40.0347 179.031 39.608C178.828 39.176 178.554 38.8453 178.207 38.616C177.866 38.3813 177.484 38.264 177.063 38.264C176.7 38.264 176.356 38.3547 176.031 38.536C175.711 38.712 175.45 38.9733 175.247 39.32C175.05 39.6667 174.951 40.0933 174.951 40.6H174.471C174.471 39.8747 174.588 39.256 174.823 38.744C175.063 38.232 175.394 37.84 175.815 37.568C176.236 37.296 176.727 37.16 177.287 37.16C177.89 37.16 178.442 37.3227 178.943 37.648C179.45 37.968 179.855 38.4267 180.159 39.024C180.463 39.6213 180.615 40.328 180.615 41.144C180.615 41.9653 180.46 42.68 180.151 43.288C179.842 43.8907 179.428 44.36 178.911 44.696C178.394 45.0267 177.826 45.192 177.207 45.192ZM173.703 45V34.088H174.951V43.208L174.583 45H173.703ZM186.003 45.192C185.342 45.192 184.75 45.024 184.227 44.688C183.71 44.3467 183.299 43.8747 182.995 43.272C182.697 42.6693 182.547 41.976 182.547 41.192C182.547 40.3547 182.697 39.6347 182.995 39.032C183.294 38.4293 183.702 37.968 184.219 37.648C184.742 37.3227 185.337 37.16 186.003 37.16C186.585 37.16 187.081 37.2773 187.491 37.512C187.902 37.7467 188.233 38.064 188.483 38.464C188.734 38.864 188.907 39.3173 189.003 39.824C189.105 40.3253 189.134 40.8453 189.091 41.384H183.555V40.616H188.267L187.899 40.856C187.915 40.5413 187.897 40.2267 187.843 39.912C187.795 39.5973 187.702 39.3093 187.563 39.048C187.425 38.7813 187.23 38.568 186.979 38.408C186.729 38.248 186.409 38.168 186.019 38.168C185.529 38.168 185.118 38.2933 184.787 38.544C184.457 38.7947 184.209 39.1253 184.043 39.536C183.878 39.9413 183.795 40.3813 183.795 40.856V41.368C183.795 41.9013 183.875 42.3787 184.035 42.8C184.201 43.2213 184.446 43.5547 184.771 43.8C185.097 44.0453 185.507 44.168 186.003 44.168C186.499 44.168 186.907 44.048 187.227 43.808C187.547 43.568 187.742 43.2133 187.811 42.744H189.107C189.027 43.2507 188.846 43.688 188.563 44.056C188.281 44.4187 187.921 44.6987 187.483 44.896C187.046 45.0933 186.553 45.192 186.003 45.192ZM194.462 45.192C193.843 45.192 193.275 45.0267 192.758 44.696C192.241 44.36 191.827 43.8907 191.518 43.288C191.209 42.68 191.054 41.9653 191.054 41.144C191.054 40.328 191.206 39.6213 191.51 39.024C191.814 38.4267 192.217 37.968 192.718 37.648C193.225 37.3227 193.779 37.16 194.382 37.16C194.942 37.16 195.433 37.296 195.854 37.568C196.281 37.84 196.611 38.232 196.846 38.744C197.081 39.256 197.198 39.8747 197.198 40.6H196.718C196.718 40.0933 196.617 39.6667 196.414 39.32C196.217 38.9733 195.958 38.712 195.638 38.536C195.318 38.3547 194.974 38.264 194.606 38.264C194.19 38.264 193.809 38.3813 193.462 38.616C193.121 38.8453 192.846 39.176 192.638 39.608C192.435 40.0347 192.334 40.5467 192.334 41.144C192.334 41.752 192.435 42.2747 192.638 42.712C192.846 43.1493 193.121 43.4853 193.462 43.72C193.809 43.9547 194.19 44.072 194.606 44.072C194.953 44.072 195.286 43.9813 195.606 43.8C195.931 43.6187 196.198 43.3547 196.406 43.008C196.614 42.656 196.718 42.232 196.718 41.736H197.198C197.198 42.4773 197.075 43.1067 196.83 43.624C196.59 44.136 196.262 44.5253 195.846 44.792C195.435 45.0587 194.974 45.192 194.462 45.192ZM196.926 45L196.718 43.208V34.088H197.966V45H196.926ZM203.999 37.352H205.295L207.247 43.736H207.087L208.991 37.72H210.031L211.919 43.752H211.775L213.727 37.352H214.975L212.463 45H211.247L209.391 39.352H209.583L207.743 45H206.527L203.999 37.352ZM219.849 45.192C219.161 45.192 218.548 45.04 218.009 44.736C217.476 44.432 217.054 43.9813 216.745 43.384C216.436 42.7867 216.281 42.0507 216.281 41.176C216.281 40.296 216.436 39.56 216.745 38.968C217.054 38.3707 217.476 37.92 218.009 37.616C218.548 37.312 219.161 37.16 219.849 37.16C220.532 37.16 221.14 37.312 221.673 37.616C222.212 37.92 222.633 38.3707 222.937 38.968C223.246 39.56 223.401 40.296 223.401 41.176C223.401 42.0507 223.246 42.7867 222.937 43.384C222.633 43.9813 222.212 44.432 221.673 44.736C221.14 45.04 220.532 45.192 219.849 45.192ZM219.817 44.104C220.313 44.104 220.734 43.9867 221.081 43.752C221.428 43.512 221.689 43.1733 221.865 42.736C222.046 42.2987 222.137 41.7787 222.137 41.176C222.137 40.264 221.948 39.5467 221.569 39.024C221.19 38.496 220.628 38.232 219.881 38.232C219.38 38.232 218.956 38.352 218.609 38.592C218.268 38.8267 218.006 39.1653 217.825 39.608C217.649 40.0453 217.561 40.568 217.561 41.176C217.561 42.0773 217.75 42.792 218.129 43.32C218.513 43.8427 219.076 44.104 219.817 44.104ZM228.759 45.192C228.071 45.192 227.458 45.04 226.919 44.736C226.386 44.432 225.964 43.9813 225.655 43.384C225.346 42.7867 225.191 42.0507 225.191 41.176C225.191 40.296 225.346 39.56 225.655 38.968C225.964 38.3707 226.386 37.92 226.919 37.616C227.458 37.312 228.071 37.16 228.759 37.16C229.442 37.16 230.05 37.312 230.583 37.616C231.122 37.92 231.543 38.3707 231.847 38.968C232.156 39.56 232.311 40.296 232.311 41.176C232.311 42.0507 232.156 42.7867 231.847 43.384C231.543 43.9813 231.122 44.432 230.583 44.736C230.05 45.04 229.442 45.192 228.759 45.192ZM228.727 44.104C229.223 44.104 229.644 43.9867 229.991 43.752C230.338 43.512 230.599 43.1733 230.775 42.736C230.956 42.2987 231.047 41.7787 231.047 41.176C231.047 40.264 230.858 39.5467 230.479 39.024C230.1 38.496 229.538 38.232 228.791 38.232C228.29 38.232 227.866 38.352 227.519 38.592C227.178 38.8267 226.916 39.1653 226.735 39.608C226.559 40.0453 226.471 40.568 226.471 41.176C226.471 42.0773 226.66 42.792 227.039 43.32C227.423 43.8427 227.986 44.104 228.727 44.104ZM237.637 45.192C237.018 45.192 236.45 45.0267 235.933 44.696C235.416 44.36 235.002 43.8907 234.693 43.288C234.384 42.68 234.229 41.9653 234.229 41.144C234.229 40.328 234.381 39.6213 234.685 39.024C234.989 38.4267 235.392 37.968 235.893 37.648C236.4 37.3227 236.954 37.16 237.557 37.16C238.117 37.16 238.608 37.296 239.029 37.568C239.456 37.84 239.786 38.232 240.021 38.744C240.256 39.256 240.373 39.8747 240.373 40.6H239.893C239.893 40.0933 239.792 39.6667 239.589 39.32C239.392 38.9733 239.133 38.712 238.813 38.536C238.493 38.3547 238.149 38.264 237.781 38.264C237.365 38.264 236.984 38.3813 236.637 38.616C236.296 38.8453 236.021 39.176 235.813 39.608C235.61 40.0347 235.509 40.5467 235.509 41.144C235.509 41.752 235.61 42.2747 235.813 42.712C236.021 43.1493 236.296 43.4853 236.637 43.72C236.984 43.9547 237.365 44.072 237.781 44.072C238.128 44.072 238.461 43.9813 238.781 43.8C239.106 43.6187 239.373 43.3547 239.581 43.008C239.789 42.656 239.893 42.232 239.893 41.736H240.373C240.373 42.4773 240.25 43.1067 240.005 43.624C239.765 44.136 239.437 44.5253 239.021 44.792C238.61 45.0587 238.149 45.192 237.637 45.192ZM240.101 45L239.893 43.208V34.088H241.141V45H240.101ZM32.304 65.192C31.6907 65.192 31.1173 65.0267 30.584 64.696C30.056 64.3653 29.6293 63.8987 29.304 63.296C28.9787 62.6933 28.816 61.9813 28.816 61.16C28.816 60.3173 28.9787 59.5973 29.304 59C29.6293 58.4027 30.056 57.9467 30.584 57.632C31.1173 57.3173 31.6907 57.16 32.304 57.16C32.736 57.16 33.1227 57.2267 33.464 57.36C33.8107 57.488 34.112 57.6667 34.368 57.896C34.624 58.1253 34.8347 58.3867 35 58.68C35.1707 58.968 35.296 59.272 35.376 59.592L34.096 59.704C33.9627 59.2613 33.7387 58.912 33.424 58.656C33.1147 58.3947 32.736 58.264 32.288 58.264C31.9093 58.264 31.552 58.3733 31.216 58.592C30.8853 58.8053 30.616 59.128 30.408 59.56C30.2 59.9867 30.096 60.52 30.096 61.16C30.096 61.752 30.1893 62.2667 30.376 62.704C30.568 63.136 30.8293 63.472 31.16 63.712C31.4907 63.952 31.8667 64.072 32.288 64.072C32.88 64.072 33.328 63.928 33.632 63.64C33.9413 63.3467 34.096 62.9413 34.096 62.424H35.376C35.376 62.9573 35.2507 63.432 35 63.848C34.7493 64.264 34.392 64.592 33.928 64.832C33.4693 65.072 32.928 65.192 32.304 65.192ZM42.762 65L42.602 63.32V60.04C42.602 59.352 42.4553 58.8587 42.162 58.56C41.8687 58.256 41.4287 58.104 40.842 58.104C40.5113 58.104 40.21 58.152 39.938 58.248C39.6713 58.344 39.458 58.4933 39.298 58.696C39.1433 58.8933 39.066 59.1493 39.066 59.464H37.674C37.674 58.9093 37.81 58.464 38.082 58.128C38.354 57.7867 38.7273 57.5413 39.202 57.392C39.682 57.2373 40.2287 57.16 40.842 57.16C41.4287 57.16 41.9487 57.2587 42.402 57.456C42.8553 57.6533 43.21 57.968 43.466 58.4C43.722 58.8267 43.85 59.384 43.85 60.072V65H42.762ZM40.154 65.192C39.5247 65.192 39.0047 65.08 38.594 64.856C38.1833 64.632 37.8767 64.3413 37.674 63.984C37.4713 63.6267 37.37 63.2507 37.37 62.856C37.37 62.3387 37.498 61.9173 37.754 61.592C38.0153 61.2667 38.37 61.0293 38.818 60.88C39.266 60.7253 39.77 60.648 40.33 60.648C40.73 60.648 41.13 60.688 41.53 60.768C41.9353 60.848 42.33 60.9573 42.714 61.096V61.88C42.394 61.752 42.0313 61.6507 41.626 61.576C41.226 61.5013 40.858 61.464 40.522 61.464C40.01 61.464 39.578 61.5707 39.226 61.784C38.874 61.992 38.698 62.3493 38.698 62.856C38.698 63.2293 38.8313 63.5493 39.098 63.816C39.37 64.0827 39.802 64.216 40.394 64.216C40.81 64.216 41.1833 64.12 41.514 63.928C41.85 63.7307 42.114 63.4853 42.306 63.192C42.5033 62.8987 42.602 62.6053 42.602 62.312H42.906C42.906 62.824 42.794 63.2987 42.57 63.736C42.3513 64.1733 42.0367 64.5253 41.626 64.792C41.2153 65.0587 40.7247 65.192 40.154 65.192ZM46.9985 65V57.336H48.2465V65H46.9985ZM47.8625 61.544C47.8625 60.5733 47.9558 59.768 48.1425 59.128C48.3292 58.4827 48.6012 58.0027 48.9585 57.688C49.3212 57.368 49.7612 57.208 50.2785 57.208C50.4492 57.208 50.6038 57.2213 50.7425 57.248C50.8865 57.2693 51.0305 57.304 51.1745 57.352L51.0945 58.584C50.9452 58.536 50.7825 58.496 50.6065 58.464C50.4305 58.4267 50.2732 58.408 50.1345 58.408C49.6812 58.408 49.3158 58.5387 49.0385 58.8C48.7612 59.056 48.5585 59.4187 48.4305 59.888C48.3078 60.3573 48.2465 60.9093 48.2465 61.544H47.8625ZM51.6117 57.352H53.0357L55.4357 63.928H55.2597L57.6597 57.352H59.0837L56.0277 65H54.6677L51.6117 57.352ZM61.8506 55.544C61.5946 55.544 61.392 55.472 61.2426 55.328C61.0933 55.1787 61.0186 54.984 61.0186 54.744C61.0186 54.5093 61.0933 54.3227 61.2426 54.184C61.392 54.0453 61.5946 53.976 61.8506 53.976C62.1066 53.976 62.3093 54.0453 62.4586 54.184C62.608 54.3227 62.6826 54.5093 62.6826 54.744C62.6826 54.984 62.608 55.1787 62.4586 55.328C62.3093 55.472 62.1066 55.544 61.8506 55.544ZM61.2266 65V57.336H62.4746V65H61.2266ZM71.5122 65V60.504C71.5122 59.7733 71.3362 59.2187 70.9842 58.84C70.6376 58.456 70.1629 58.264 69.5602 58.264C69.1016 58.264 68.7042 58.3893 68.3682 58.64C68.0322 58.8907 67.7736 59.2507 67.5922 59.72C67.4109 60.184 67.3202 60.7387 67.3202 61.384H66.8402C66.8402 60.4933 66.9576 59.7333 67.1922 59.104C67.4269 58.4747 67.7682 57.9947 68.2162 57.664C68.6696 57.328 69.2189 57.16 69.8642 57.16C70.4669 57.16 70.9816 57.296 71.4082 57.568C71.8402 57.8347 72.1709 58.2187 72.4002 58.72C72.6296 59.2213 72.7442 59.816 72.7442 60.504V65H71.5122ZM66.0722 65V57.352H67.1442L67.3202 59.112V65H66.0722ZM78.5925 68.936C77.8085 68.936 77.1285 68.824 76.5525 68.6C75.9765 68.3813 75.5285 68.0853 75.2085 67.712C74.8938 67.344 74.7365 66.936 74.7365 66.488C74.7365 65.896 74.9525 65.4427 75.3845 65.128C75.8218 64.8187 76.3845 64.664 77.0725 64.664L77.7605 65.096C77.1845 65.096 76.7392 65.216 76.4245 65.456C76.1098 65.696 75.9525 66.024 75.9525 66.44C75.9525 66.856 76.1765 67.208 76.6245 67.496C77.0725 67.784 77.7285 67.928 78.5925 67.928C79.2325 67.928 79.7925 67.8347 80.2725 67.648C80.7578 67.4667 81.1338 67.2267 81.4005 66.928C81.6725 66.6347 81.8085 66.3173 81.8085 65.976C81.8085 65.736 81.7205 65.528 81.5445 65.352C81.3685 65.1813 81.0992 65.096 80.7365 65.096H77.7605C77.2432 65.096 76.7952 65.0187 76.4165 64.864C76.0432 64.704 75.7552 64.496 75.5525 64.24C75.3498 63.984 75.2485 63.704 75.2485 63.4C75.2485 63.08 75.3392 62.808 75.5205 62.584C75.7018 62.36 75.9365 62.1893 76.2245 62.072C76.5178 61.9547 76.8325 61.896 77.1685 61.896L77.4085 62.36C77.2485 62.36 77.0858 62.3973 76.9205 62.472C76.7605 62.5413 76.6245 62.648 76.5125 62.792C76.4058 62.9307 76.3525 63.1067 76.3525 63.32C76.3525 63.5653 76.4538 63.7707 76.6565 63.936C76.8592 64.1013 77.2272 64.184 77.7605 64.184H80.7365C81.4565 64.184 82.0218 64.336 82.4325 64.64C82.8485 64.944 83.0565 65.368 83.0565 65.912C83.0565 66.4133 82.8778 66.8933 82.5205 67.352C82.1632 67.816 81.6512 68.1947 80.9845 68.488C80.3178 68.7867 79.5205 68.936 78.5925 68.936ZM78.8165 62.76C78.2298 62.76 77.6992 62.6427 77.2245 62.408C76.7552 62.1733 76.3818 61.8453 76.1045 61.424C75.8325 61.0027 75.6965 60.5147 75.6965 59.96C75.6965 59.4 75.8325 58.9093 76.1045 58.488C76.3818 58.0667 76.7552 57.7413 77.2245 57.512C77.6992 57.2773 78.2298 57.16 78.8165 57.16C79.3872 57.16 79.9045 57.2773 80.3685 57.512C80.8378 57.7413 81.2112 58.0667 81.4885 58.488C81.7658 58.9093 81.9045 59.4 81.9045 59.96C81.9045 60.5147 81.7658 61.0027 81.4885 61.424C81.2112 61.8453 80.8378 62.1733 80.3685 62.408C79.9045 62.6427 79.3872 62.76 78.8165 62.76ZM78.8165 61.864C79.4032 61.864 79.8592 61.6827 80.1845 61.32C80.5098 60.9573 80.6725 60.504 80.6725 59.96C80.6725 59.4 80.5098 58.9467 80.1845 58.6C79.8592 58.248 79.4032 58.072 78.8165 58.072C78.2352 58.072 77.7765 58.248 77.4405 58.6C77.1098 58.9467 76.9445 59.4 76.9445 59.96C76.9445 60.504 77.1098 60.9573 77.4405 61.32C77.7765 61.6827 78.2352 61.864 78.8165 61.864ZM81.3285 58.376L80.7365 58.136C80.7365 57.688 80.8245 57.296 81.0005 56.96C81.1765 56.6187 81.4272 56.3547 81.7525 56.168C82.0778 55.976 82.4645 55.88 82.9125 55.88L82.8165 57.112C82.3365 57.112 81.9685 57.216 81.7125 57.424C81.4565 57.6267 81.3285 57.944 81.3285 58.376ZM84.8877 66.744L83.9437 66.28C84.2477 66.1253 84.5037 65.9547 84.7117 65.768C84.9251 65.5813 85.0637 65.352 85.1277 65.08C84.8984 65.0533 84.7011 64.9707 84.5357 64.832C84.3757 64.6933 84.2957 64.5093 84.2957 64.28C84.2957 64.056 84.3784 63.864 84.5437 63.704C84.7144 63.544 84.9304 63.464 85.1917 63.464C85.5224 63.464 85.7891 63.584 85.9917 63.824C86.1944 64.064 86.2957 64.3493 86.2957 64.68C86.2957 65.0693 86.1757 65.4507 85.9357 65.824C85.7011 66.2027 85.3517 66.5093 84.8877 66.744ZM92.9564 65V56.168C92.9564 55.6613 93.0524 55.248 93.2444 54.928C93.4417 54.6027 93.703 54.3627 94.0284 54.208C94.359 54.0533 94.727 53.976 95.1324 53.976C95.351 53.976 95.5724 53.992 95.7964 54.024C96.0257 54.056 96.2524 54.104 96.4764 54.168L96.2364 55.16C96.0764 55.096 95.9164 55.048 95.7564 55.016C95.6017 54.984 95.4524 54.968 95.3084 54.968C95.1377 54.968 94.967 55 94.7964 55.064C94.6257 55.128 94.4844 55.248 94.3724 55.424C94.2604 55.6 94.2044 55.8533 94.2044 56.184V65H92.9564ZM91.7084 58.216V57.352H95.7884V58.216H91.7084ZM98.7244 55.544C98.4684 55.544 98.2657 55.472 98.1164 55.328C97.967 55.1787 97.8924 54.984 97.8924 54.744C97.8924 54.5093 97.967 54.3227 98.1164 54.184C98.2657 54.0453 98.4684 53.976 98.7244 53.976C98.9804 53.976 99.183 54.0453 99.3324 54.184C99.4817 54.3227 99.5564 54.5093 99.5564 54.744C99.5564 54.984 99.4817 55.1787 99.3324 55.328C99.183 55.472 98.9804 55.544 98.7244 55.544ZM98.1004 65V57.336H99.3484V65H98.1004ZM108.39 65V60.504C108.39 59.7733 108.214 59.2187 107.862 58.84C107.516 58.456 107.041 58.264 106.438 58.264C105.98 58.264 105.582 58.3893 105.246 58.64C104.91 58.8907 104.652 59.2507 104.47 59.72C104.289 60.184 104.198 60.7387 104.198 61.384H103.718C103.718 60.4933 103.836 59.7333 104.07 59.104C104.305 58.4747 104.646 57.9947 105.094 57.664C105.548 57.328 106.097 57.16 106.742 57.16C107.345 57.16 107.86 57.296 108.286 57.568C108.718 57.8347 109.049 58.2187 109.278 58.72C109.508 59.2213 109.622 59.816 109.622 60.504V65H108.39ZM102.95 65V57.352H104.022L104.198 59.112V65H102.95ZM113.471 55.544C113.215 55.544 113.012 55.472 112.863 55.328C112.713 55.1787 112.639 54.984 112.639 54.744C112.639 54.5093 112.713 54.3227 112.863 54.184C113.012 54.0453 113.215 53.976 113.471 53.976C113.727 53.976 113.929 54.0453 114.079 54.184C114.228 54.3227 114.303 54.5093 114.303 54.744C114.303 54.984 114.228 55.1787 114.079 55.328C113.929 55.472 113.727 55.544 113.471 55.544ZM112.847 65V57.336H114.095V65H112.847ZM120.444 65.192C119.703 65.192 119.084 65.088 118.588 64.88C118.092 64.6667 117.716 64.376 117.46 64.008C117.204 63.6347 117.068 63.208 117.052 62.728H118.252C118.279 63.2133 118.474 63.5787 118.836 63.824C119.204 64.064 119.703 64.184 120.332 64.184C120.663 64.184 120.967 64.1307 121.244 64.024C121.522 63.9173 121.743 63.7707 121.908 63.584C122.074 63.3973 122.156 63.1867 122.156 62.952C122.156 62.6533 122.047 62.4187 121.828 62.248C121.61 62.0773 121.26 61.928 120.78 61.8L119.292 61.32C118.647 61.1173 118.151 60.84 117.804 60.488C117.463 60.1307 117.292 59.704 117.292 59.208C117.292 58.5893 117.564 58.0933 118.108 57.72C118.652 57.3467 119.367 57.16 120.252 57.16C121.191 57.16 121.919 57.352 122.436 57.736C122.954 58.12 123.223 58.6 123.244 59.176H122.012C121.964 58.84 121.794 58.5867 121.5 58.416C121.207 58.24 120.791 58.152 120.252 58.152C119.735 58.152 119.33 58.2693 119.036 58.504C118.748 58.7333 118.604 58.9893 118.604 59.272C118.604 59.8 119.058 60.1893 119.964 60.44L121.484 60.952C122.14 61.1493 122.642 61.408 122.988 61.728C123.34 62.048 123.516 62.456 123.516 62.952C123.516 63.336 123.391 63.6987 123.14 64.04C122.89 64.3813 122.535 64.6587 122.076 64.872C121.618 65.0853 121.074 65.192 120.444 65.192ZM131.699 65V60.504C131.699 59.7733 131.523 59.2187 131.171 58.84C130.824 58.456 130.349 58.264 129.747 58.264C129.288 58.264 128.891 58.3893 128.555 58.64C128.219 58.8907 127.96 59.2507 127.779 59.72C127.597 60.184 127.507 60.7387 127.507 61.384H127.027C127.027 60.4933 127.144 59.7333 127.379 59.104C127.613 58.4747 127.955 57.9947 128.403 57.664C128.856 57.328 129.405 57.16 130.051 57.16C130.653 57.16 131.168 57.296 131.595 57.568C132.027 57.8347 132.357 58.2187 132.587 58.72C132.816 59.2213 132.931 59.816 132.931 60.504V65H131.699ZM126.259 65V54.088H127.507V65H126.259ZM144.768 65L144.608 63.32V60.04C144.608 59.352 144.461 58.8587 144.168 58.56C143.874 58.256 143.434 58.104 142.848 58.104C142.517 58.104 142.216 58.152 141.944 58.248C141.677 58.344 141.464 58.4933 141.304 58.696C141.149 58.8933 141.072 59.1493 141.072 59.464H139.68C139.68 58.9093 139.816 58.464 140.088 58.128C140.36 57.7867 140.733 57.5413 141.208 57.392C141.688 57.2373 142.234 57.16 142.848 57.16C143.434 57.16 143.954 57.2587 144.408 57.456C144.861 57.6533 145.216 57.968 145.472 58.4C145.728 58.8267 145.856 59.384 145.856 60.072V65H144.768ZM142.16 65.192C141.53 65.192 141.01 65.08 140.6 64.856C140.189 64.632 139.882 64.3413 139.68 63.984C139.477 63.6267 139.376 63.2507 139.376 62.856C139.376 62.3387 139.504 61.9173 139.76 61.592C140.021 61.2667 140.376 61.0293 140.824 60.88C141.272 60.7253 141.776 60.648 142.336 60.648C142.736 60.648 143.136 60.688 143.536 60.768C143.941 60.848 144.336 60.9573 144.72 61.096V61.88C144.4 61.752 144.037 61.6507 143.632 61.576C143.232 61.5013 142.864 61.464 142.528 61.464C142.016 61.464 141.584 61.5707 141.232 61.784C140.88 61.992 140.704 62.3493 140.704 62.856C140.704 63.2293 140.837 63.5493 141.104 63.816C141.376 64.0827 141.808 64.216 142.4 64.216C142.816 64.216 143.189 64.12 143.52 63.928C143.856 63.7307 144.12 63.4853 144.312 63.192C144.509 62.8987 144.608 62.6053 144.608 62.312H144.912C144.912 62.824 144.8 63.2987 144.576 63.736C144.357 64.1733 144.042 64.5253 143.632 64.792C143.221 65.0587 142.73 65.192 142.16 65.192ZM154.444 65V60.504C154.444 59.7733 154.268 59.2187 153.916 58.84C153.569 58.456 153.095 58.264 152.492 58.264C152.033 58.264 151.636 58.3893 151.3 58.64C150.964 58.8907 150.705 59.2507 150.524 59.72C150.343 60.184 150.252 60.7387 150.252 61.384H149.772C149.772 60.4933 149.889 59.7333 150.124 59.104C150.359 58.4747 150.7 57.9947 151.148 57.664C151.601 57.328 152.151 57.16 152.796 57.16C153.399 57.16 153.913 57.296 154.34 57.568C154.772 57.8347 155.103 58.2187 155.332 58.72C155.561 59.2213 155.676 59.816 155.676 60.504V65H154.444ZM149.004 65V57.352H150.076L150.252 59.112V65H149.004ZM161.556 65.192C160.938 65.192 160.37 65.0267 159.852 64.696C159.335 64.36 158.922 63.8907 158.612 63.288C158.303 62.68 158.148 61.9653 158.148 61.144C158.148 60.328 158.3 59.6213 158.604 59.024C158.908 58.4267 159.311 57.968 159.812 57.648C160.319 57.3227 160.874 57.16 161.476 57.16C162.036 57.16 162.527 57.296 162.948 57.568C163.375 57.84 163.706 58.232 163.94 58.744C164.175 59.256 164.292 59.8747 164.292 60.6H163.812C163.812 60.0933 163.711 59.6667 163.508 59.32C163.311 58.9733 163.052 58.712 162.732 58.536C162.412 58.3547 162.068 58.264 161.7 58.264C161.284 58.264 160.903 58.3813 160.556 58.616C160.215 58.8453 159.94 59.176 159.732 59.608C159.53 60.0347 159.428 60.5467 159.428 61.144C159.428 61.752 159.53 62.2747 159.732 62.712C159.94 63.1493 160.215 63.4853 160.556 63.72C160.903 63.9547 161.284 64.072 161.7 64.072C162.047 64.072 162.38 63.9813 162.7 63.8C163.026 63.6187 163.292 63.3547 163.5 63.008C163.708 62.656 163.812 62.232 163.812 61.736H164.292C164.292 62.4773 164.17 63.1067 163.924 63.624C163.684 64.136 163.356 64.5253 162.94 64.792C162.53 65.0587 162.068 65.192 161.556 65.192ZM164.02 65L163.812 63.208V54.088H165.06V65H164.02ZM40.368 85V80.504C40.368 79.7733 40.192 79.2187 39.84 78.84C39.4933 78.456 39.024 78.264 38.432 78.264C37.7387 78.264 37.208 78.5333 36.84 79.072C36.472 79.6053 36.288 80.344 36.288 81.288H35.712C35.712 80.6 35.7787 79.9973 35.912 79.48C36.0507 78.9627 36.2507 78.5333 36.512 78.192C36.7733 77.8453 37.0907 77.5867 37.464 77.416C37.8373 77.2453 38.2613 77.16 38.736 77.16C39.3387 77.16 39.8533 77.296 40.28 77.568C40.712 77.8347 41.0427 78.2187 41.272 78.72C41.5013 79.2213 41.616 79.816 41.616 80.504V85H40.368ZM29.616 85V77.352H30.688L30.832 78.888C31.072 78.3333 31.408 77.9067 31.84 77.608C32.2773 77.3093 32.8 77.16 33.408 77.16C34.0107 77.16 34.5253 77.296 34.952 77.568C35.384 77.8347 35.7147 78.2187 35.944 78.72C36.1733 79.2213 36.288 79.816 36.288 80.504V85H35.056V80.504C35.056 79.7733 34.88 79.2187 34.528 78.84C34.1813 78.456 33.7067 78.264 33.104 78.264C32.6453 78.264 32.248 78.3893 31.912 78.64C31.576 78.8907 31.3173 79.2507 31.136 79.72C30.9547 80.184 30.864 80.7387 30.864 81.384V85H29.616ZM49.4808 85L49.3208 83.32V80.04C49.3208 79.352 49.1741 78.8587 48.8808 78.56C48.5874 78.256 48.1474 78.104 47.5608 78.104C47.2301 78.104 46.9287 78.152 46.6567 78.248C46.3901 78.344 46.1768 78.4933 46.0168 78.696C45.8621 78.8933 45.7847 79.1493 45.7847 79.464H44.3927C44.3927 78.9093 44.5287 78.464 44.8007 78.128C45.0727 77.7867 45.4461 77.5413 45.9207 77.392C46.4007 77.2373 46.9474 77.16 47.5608 77.16C48.1474 77.16 48.6674 77.2587 49.1207 77.456C49.5741 77.6533 49.9288 77.968 50.1848 78.4C50.4408 78.8267 50.5688 79.384 50.5688 80.072V85H49.4808ZM46.8728 85.192C46.2434 85.192 45.7234 85.08 45.3127 84.856C44.9021 84.632 44.5954 84.3413 44.3927 83.984C44.1901 83.6267 44.0887 83.2507 44.0887 82.856C44.0887 82.3387 44.2167 81.9173 44.4727 81.592C44.7341 81.2667 45.0887 81.0293 45.5368 80.88C45.9848 80.7253 46.4887 80.648 47.0487 80.648C47.4487 80.648 47.8487 80.688 48.2488 80.768C48.6541 80.848 49.0488 80.9573 49.4328 81.096V81.88C49.1128 81.752 48.7501 81.6507 48.3447 81.576C47.9447 81.5013 47.5767 81.464 47.2407 81.464C46.7287 81.464 46.2967 81.5707 45.9448 81.784C45.5927 81.992 45.4167 82.3493 45.4167 82.856C45.4167 83.2293 45.5501 83.5493 45.8168 83.816C46.0888 84.0827 46.5208 84.216 47.1128 84.216C47.5288 84.216 47.9021 84.12 48.2327 83.928C48.5688 83.7307 48.8328 83.4853 49.0248 83.192C49.2221 82.8987 49.3208 82.6053 49.3208 82.312H49.6248C49.6248 82.824 49.5128 83.2987 49.2888 83.736C49.0701 84.1733 48.7554 84.5253 48.3447 84.792C47.9341 85.0587 47.4434 85.192 46.8728 85.192ZM54.4212 75.544C54.1652 75.544 53.9626 75.472 53.8132 75.328C53.6639 75.1787 53.5892 74.984 53.5892 74.744C53.5892 74.5093 53.6639 74.3227 53.8132 74.184C53.9626 74.0453 54.1652 73.976 54.4212 73.976C54.6772 73.976 54.8799 74.0453 55.0292 74.184C55.1786 74.3227 55.2532 74.5093 55.2532 74.744C55.2532 74.984 55.1786 75.1787 55.0292 75.328C54.8799 75.472 54.6772 75.544 54.4212 75.544ZM53.7972 85V77.336H55.0452V85H53.7972ZM64.0829 85V80.504C64.0829 79.7733 63.9069 79.2187 63.5549 78.84C63.2082 78.456 62.7335 78.264 62.1309 78.264C61.6722 78.264 61.2749 78.3893 60.9389 78.64C60.6029 78.8907 60.3442 79.2507 60.1629 79.72C59.9815 80.184 59.8909 80.7387 59.8909 81.384H59.4109C59.4109 80.4933 59.5282 79.7333 59.7629 79.104C59.9975 78.4747 60.3389 77.9947 60.7869 77.664C61.2402 77.328 61.7895 77.16 62.4349 77.16C63.0375 77.16 63.5522 77.296 63.9789 77.568C64.4109 77.8347 64.7415 78.2187 64.9709 78.72C65.2002 79.2213 65.3149 79.816 65.3149 80.504V85H64.0829ZM58.6429 85V77.352H59.7149L59.8909 79.112V85H58.6429ZM70.8111 85.192C70.3951 85.192 70.0218 85.112 69.6911 84.952C69.3605 84.792 69.0991 84.552 68.9071 84.232C68.7151 83.912 68.6191 83.512 68.6191 83.032V75.224H69.8511V83C69.8511 83.7893 70.2191 84.184 70.9551 84.184C71.1738 84.184 71.3845 84.16 71.5871 84.112C71.7951 84.064 72.0271 83.992 72.2831 83.896L72.4591 84.792C72.1871 84.9093 71.9151 85.0053 71.6431 85.08C71.3765 85.1547 71.0991 85.192 70.8111 85.192ZM67.3871 78.216V77.352H72.2671V78.216H67.3871ZM77.2907 85.192C76.6294 85.192 76.0374 85.024 75.5147 84.688C74.9974 84.3467 74.5867 83.8747 74.2827 83.272C73.9841 82.6693 73.8347 81.976 73.8347 81.192C73.8347 80.3547 73.9841 79.6347 74.2827 79.032C74.5814 78.4293 74.9894 77.968 75.5067 77.648C76.0294 77.3227 76.6241 77.16 77.2907 77.16C77.8721 77.16 78.3681 77.2773 78.7787 77.512C79.1894 77.7467 79.5201 78.064 79.7707 78.464C80.0214 78.864 80.1947 79.3173 80.2907 79.824C80.3921 80.3253 80.4214 80.8453 80.3787 81.384H74.8427V80.616H79.5547L79.1867 80.856C79.2027 80.5413 79.1841 80.2267 79.1307 79.912C79.0827 79.5973 78.9894 79.3093 78.8507 79.048C78.7121 78.7813 78.5174 78.568 78.2667 78.408C78.0161 78.248 77.6961 78.168 77.3067 78.168C76.8161 78.168 76.4054 78.2933 76.0747 78.544C75.7441 78.7947 75.4961 79.1253 75.3307 79.536C75.1654 79.9413 75.0827 80.3813 75.0827 80.856V81.368C75.0827 81.9013 75.1627 82.3787 75.3227 82.8C75.4881 83.2213 75.7334 83.5547 76.0587 83.8C76.3841 84.0453 76.7947 84.168 77.2907 84.168C77.7867 84.168 78.1947 84.048 78.5147 83.808C78.8347 83.568 79.0294 83.2133 79.0987 82.744H80.3947C80.3147 83.2507 80.1334 83.688 79.8507 84.056C79.5681 84.4187 79.2081 84.6987 78.7707 84.896C78.3334 85.0933 77.8401 85.192 77.2907 85.192ZM88.4535 85V80.504C88.4535 79.7733 88.2775 79.2187 87.9255 78.84C87.5788 78.456 87.1042 78.264 86.5015 78.264C86.0428 78.264 85.6455 78.3893 85.3095 78.64C84.9735 78.8907 84.7148 79.2507 84.5335 79.72C84.3522 80.184 84.2615 80.7387 84.2615 81.384H83.7815C83.7815 80.4933 83.8988 79.7333 84.1335 79.104C84.3682 78.4747 84.7095 77.9947 85.1575 77.664C85.6108 77.328 86.1602 77.16 86.8055 77.16C87.4082 77.16 87.9228 77.296 88.3495 77.568C88.7815 77.8347 89.1122 78.2187 89.3415 78.72C89.5708 79.2213 89.6855 79.816 89.6855 80.504V85H88.4535ZM83.0135 85V77.352H84.0855L84.2615 79.112V85H83.0135ZM97.5657 85L97.4057 83.32V80.04C97.4057 79.352 97.2591 78.8587 96.9657 78.56C96.6724 78.256 96.2324 78.104 95.6457 78.104C95.3151 78.104 95.0137 78.152 94.7417 78.248C94.4751 78.344 94.2617 78.4933 94.1017 78.696C93.9471 78.8933 93.8697 79.1493 93.8697 79.464H92.4777C92.4777 78.9093 92.6137 78.464 92.8857 78.128C93.1577 77.7867 93.5311 77.5413 94.0057 77.392C94.4857 77.2373 95.0324 77.16 95.6457 77.16C96.2324 77.16 96.7524 77.2587 97.2057 77.456C97.6591 77.6533 98.0137 77.968 98.2697 78.4C98.5257 78.8267 98.6537 79.384 98.6537 80.072V85H97.5657ZM94.9577 85.192C94.3284 85.192 93.8084 85.08 93.3977 84.856C92.9871 84.632 92.6804 84.3413 92.4777 83.984C92.2751 83.6267 92.1737 83.2507 92.1737 82.856C92.1737 82.3387 92.3017 81.9173 92.5577 81.592C92.8191 81.2667 93.1737 81.0293 93.6217 80.88C94.0697 80.7253 94.5737 80.648 95.1337 80.648C95.5337 80.648 95.9337 80.688 96.3337 80.768C96.7391 80.848 97.1337 80.9573 97.5177 81.096V81.88C97.1977 81.752 96.8351 81.6507 96.4297 81.576C96.0297 81.5013 95.6617 81.464 95.3257 81.464C94.8137 81.464 94.3817 81.5707 94.0297 81.784C93.6777 81.992 93.5017 82.3493 93.5017 82.856C93.5017 83.2293 93.6351 83.5493 93.9017 83.816C94.1737 84.0827 94.6057 84.216 95.1977 84.216C95.6137 84.216 95.9871 84.12 96.3177 83.928C96.6537 83.7307 96.9177 83.4853 97.1097 83.192C97.3071 82.8987 97.4057 82.6053 97.4057 82.312H97.7097C97.7097 82.824 97.5977 83.2987 97.3737 83.736C97.1551 84.1733 96.8404 84.5253 96.4297 84.792C96.0191 85.0587 95.5284 85.192 94.9577 85.192ZM107.242 85V80.504C107.242 79.7733 107.066 79.2187 106.714 78.84C106.368 78.456 105.893 78.264 105.29 78.264C104.832 78.264 104.434 78.3893 104.098 78.64C103.762 78.8907 103.504 79.2507 103.322 79.72C103.141 80.184 103.05 80.7387 103.05 81.384H102.57C102.57 80.4933 102.688 79.7333 102.922 79.104C103.157 78.4747 103.498 77.9947 103.946 77.664C104.4 77.328 104.949 77.16 105.594 77.16C106.197 77.16 106.712 77.296 107.138 77.568C107.57 77.8347 107.901 78.2187 108.13 78.72C108.36 79.2213 108.474 79.816 108.474 80.504V85H107.242ZM101.802 85V77.352H102.874L103.05 79.112V85H101.802ZM114.307 85.192C113.693 85.192 113.12 85.0267 112.587 84.696C112.059 84.3653 111.632 83.8987 111.307 83.296C110.981 82.6933 110.819 81.9813 110.819 81.16C110.819 80.3173 110.981 79.5973 111.307 79C111.632 78.4027 112.059 77.9467 112.587 77.632C113.12 77.3173 113.693 77.16 114.307 77.16C114.739 77.16 115.125 77.2267 115.467 77.36C115.813 77.488 116.115 77.6667 116.371 77.896C116.627 78.1253 116.837 78.3867 117.003 78.68C117.173 78.968 117.299 79.272 117.379 79.592L116.099 79.704C115.965 79.2613 115.741 78.912 115.427 78.656C115.117 78.3947 114.739 78.264 114.291 78.264C113.912 78.264 113.555 78.3733 113.219 78.592C112.888 78.8053 112.619 79.128 112.411 79.56C112.203 79.9867 112.099 80.52 112.099 81.16C112.099 81.752 112.192 82.2667 112.379 82.704C112.571 83.136 112.832 83.472 113.163 83.712C113.493 83.952 113.869 84.072 114.291 84.072C114.883 84.072 115.331 83.928 115.635 83.64C115.944 83.3467 116.099 82.9413 116.099 82.424H117.379C117.379 82.9573 117.253 83.432 117.003 83.848C116.752 84.264 116.395 84.592 115.931 84.832C115.472 85.072 114.931 85.192 114.307 85.192ZM122.684 85.192C122.023 85.192 121.431 85.024 120.908 84.688C120.391 84.3467 119.98 83.8747 119.676 83.272C119.378 82.6693 119.228 81.976 119.228 81.192C119.228 80.3547 119.378 79.6347 119.676 79.032C119.975 78.4293 120.383 77.968 120.9 77.648C121.423 77.3227 122.018 77.16 122.684 77.16C123.266 77.16 123.762 77.2773 124.172 77.512C124.583 77.7467 124.914 78.064 125.164 78.464C125.415 78.864 125.588 79.3173 125.684 79.824C125.786 80.3253 125.815 80.8453 125.772 81.384H120.236V80.616H124.948L124.58 80.856C124.596 80.5413 124.578 80.2267 124.524 79.912C124.476 79.5973 124.383 79.3093 124.244 79.048C124.106 78.7813 123.911 78.568 123.66 78.408C123.41 78.248 123.09 78.168 122.7 78.168C122.21 78.168 121.799 78.2933 121.468 78.544C121.138 78.7947 120.89 79.1253 120.724 79.536C120.559 79.9413 120.476 80.3813 120.476 80.856V81.368C120.476 81.9013 120.556 82.3787 120.716 82.8C120.882 83.2213 121.127 83.5547 121.452 83.8C121.778 84.0453 122.188 84.168 122.684 84.168C123.18 84.168 123.588 84.048 123.908 83.808C124.228 83.568 124.423 83.2133 124.492 82.744H125.788C125.708 83.2507 125.527 83.688 125.244 84.056C124.962 84.4187 124.602 84.6987 124.164 84.896C123.727 85.0933 123.234 85.192 122.684 85.192ZM135.068 88.936C134.284 88.936 133.604 88.824 133.028 88.6C132.452 88.3813 132.004 88.0853 131.684 87.712C131.369 87.344 131.212 86.936 131.212 86.488C131.212 85.896 131.428 85.4427 131.86 85.128C132.297 84.8187 132.86 84.664 133.548 84.664L134.236 85.096C133.66 85.096 133.215 85.216 132.9 85.456C132.585 85.696 132.428 86.024 132.428 86.44C132.428 86.856 132.652 87.208 133.1 87.496C133.548 87.784 134.204 87.928 135.068 87.928C135.708 87.928 136.268 87.8347 136.748 87.648C137.233 87.4667 137.609 87.2267 137.876 86.928C138.148 86.6347 138.284 86.3173 138.284 85.976C138.284 85.736 138.196 85.528 138.02 85.352C137.844 85.1813 137.575 85.096 137.212 85.096H134.236C133.719 85.096 133.271 85.0187 132.892 84.864C132.519 84.704 132.231 84.496 132.028 84.24C131.825 83.984 131.724 83.704 131.724 83.4C131.724 83.08 131.815 82.808 131.996 82.584C132.177 82.36 132.412 82.1893 132.7 82.072C132.993 81.9547 133.308 81.896 133.644 81.896L133.884 82.36C133.724 82.36 133.561 82.3973 133.396 82.472C133.236 82.5413 133.1 82.648 132.988 82.792C132.881 82.9307 132.828 83.1067 132.828 83.32C132.828 83.5653 132.929 83.7707 133.132 83.936C133.335 84.1013 133.703 84.184 134.236 84.184H137.212C137.932 84.184 138.497 84.336 138.908 84.64C139.324 84.944 139.532 85.368 139.532 85.912C139.532 86.4133 139.353 86.8933 138.996 87.352C138.639 87.816 138.127 88.1947 137.46 88.488C136.793 88.7867 135.996 88.936 135.068 88.936ZM135.292 82.76C134.705 82.76 134.175 82.6427 133.7 82.408C133.231 82.1733 132.857 81.8453 132.58 81.424C132.308 81.0027 132.172 80.5147 132.172 79.96C132.172 79.4 132.308 78.9093 132.58 78.488C132.857 78.0667 133.231 77.7413 133.7 77.512C134.175 77.2773 134.705 77.16 135.292 77.16C135.863 77.16 136.38 77.2773 136.844 77.512C137.313 77.7413 137.687 78.0667 137.964 78.488C138.241 78.9093 138.38 79.4 138.38 79.96C138.38 80.5147 138.241 81.0027 137.964 81.424C137.687 81.8453 137.313 82.1733 136.844 82.408C136.38 82.6427 135.863 82.76 135.292 82.76ZM135.292 81.864C135.879 81.864 136.335 81.6827 136.66 81.32C136.985 80.9573 137.148 80.504 137.148 79.96C137.148 79.4 136.985 78.9467 136.66 78.6C136.335 78.248 135.879 78.072 135.292 78.072C134.711 78.072 134.252 78.248 133.916 78.6C133.585 78.9467 133.42 79.4 133.42 79.96C133.42 80.504 133.585 80.9573 133.916 81.32C134.252 81.6827 134.711 81.864 135.292 81.864ZM137.804 78.376L137.212 78.136C137.212 77.688 137.3 77.296 137.476 76.96C137.652 76.6187 137.903 76.3547 138.228 76.168C138.553 75.976 138.94 75.88 139.388 75.88L139.292 77.112C138.812 77.112 138.444 77.216 138.188 77.424C137.932 77.6267 137.804 77.944 137.804 78.376ZM144.323 85.192C143.635 85.192 143.022 85.04 142.483 84.736C141.95 84.432 141.529 83.9813 141.219 83.384C140.91 82.7867 140.755 82.0507 140.755 81.176C140.755 80.296 140.91 79.56 141.219 78.968C141.529 78.3707 141.95 77.92 142.483 77.616C143.022 77.312 143.635 77.16 144.323 77.16C145.006 77.16 145.614 77.312 146.147 77.616C146.686 77.92 147.107 78.3707 147.411 78.968C147.721 79.56 147.875 80.296 147.875 81.176C147.875 82.0507 147.721 82.7867 147.411 83.384C147.107 83.9813 146.686 84.432 146.147 84.736C145.614 85.04 145.006 85.192 144.323 85.192ZM144.291 84.104C144.787 84.104 145.209 83.9867 145.555 83.752C145.902 83.512 146.163 83.1733 146.339 82.736C146.521 82.2987 146.611 81.7787 146.611 81.176C146.611 80.264 146.422 79.5467 146.043 79.024C145.665 78.496 145.102 78.232 144.355 78.232C143.854 78.232 143.43 78.352 143.083 78.592C142.742 78.8267 142.481 79.1653 142.299 79.608C142.123 80.0453 142.035 80.568 142.035 81.176C142.035 82.0773 142.225 82.792 142.603 83.32C142.987 83.8427 143.55 84.104 144.291 84.104ZM153.233 85.192C152.545 85.192 151.932 85.04 151.393 84.736C150.86 84.432 150.439 83.9813 150.129 83.384C149.82 82.7867 149.665 82.0507 149.665 81.176C149.665 80.296 149.82 79.56 150.129 78.968C150.439 78.3707 150.86 77.92 151.393 77.616C151.932 77.312 152.545 77.16 153.233 77.16C153.916 77.16 154.524 77.312 155.057 77.616C155.596 77.92 156.017 78.3707 156.321 78.968C156.631 79.56 156.785 80.296 156.785 81.176C156.785 82.0507 156.631 82.7867 156.321 83.384C156.017 83.9813 155.596 84.432 155.057 84.736C154.524 85.04 153.916 85.192 153.233 85.192ZM153.201 84.104C153.697 84.104 154.119 83.9867 154.465 83.752C154.812 83.512 155.073 83.1733 155.249 82.736C155.431 82.2987 155.521 81.7787 155.521 81.176C155.521 80.264 155.332 79.5467 154.953 79.024C154.575 78.496 154.012 78.232 153.265 78.232C152.764 78.232 152.34 78.352 151.993 78.592C151.652 78.8267 151.391 79.1653 151.209 79.608C151.033 80.0453 150.945 80.568 150.945 81.176C150.945 82.0773 151.135 82.792 151.513 83.32C151.897 83.8427 152.46 84.104 153.201 84.104ZM162.111 85.192C161.493 85.192 160.925 85.0267 160.407 84.696C159.89 84.36 159.477 83.8907 159.167 83.288C158.858 82.68 158.703 81.9653 158.703 81.144C158.703 80.328 158.855 79.6213 159.159 79.024C159.463 78.4267 159.866 77.968 160.367 77.648C160.874 77.3227 161.429 77.16 162.031 77.16C162.591 77.16 163.082 77.296 163.503 77.568C163.93 77.84 164.261 78.232 164.495 78.744C164.73 79.256 164.847 79.8747 164.847 80.6H164.367C164.367 80.0933 164.266 79.6667 164.063 79.32C163.866 78.9733 163.607 78.712 163.287 78.536C162.967 78.3547 162.623 78.264 162.255 78.264C161.839 78.264 161.458 78.3813 161.111 78.616C160.77 78.8453 160.495 79.176 160.287 79.608C160.085 80.0347 159.983 80.5467 159.983 81.144C159.983 81.752 160.085 82.2747 160.287 82.712C160.495 83.1493 160.77 83.4853 161.111 83.72C161.458 83.9547 161.839 84.072 162.255 84.072C162.602 84.072 162.935 83.9813 163.255 83.8C163.581 83.6187 163.847 83.3547 164.055 83.008C164.263 82.656 164.367 82.232 164.367 81.736H164.847C164.847 82.4773 164.725 83.1067 164.479 83.624C164.239 84.136 163.911 84.5253 163.495 84.792C163.085 85.0587 162.623 85.192 162.111 85.192ZM164.575 85L164.367 83.208V74.088H165.615V85H164.575ZM171.772 85.192C171.03 85.192 170.412 85.088 169.916 84.88C169.42 84.6667 169.044 84.376 168.788 84.008C168.532 83.6347 168.396 83.208 168.38 82.728H169.58C169.606 83.2133 169.801 83.5787 170.164 83.824C170.532 84.064 171.03 84.184 171.66 84.184C171.99 84.184 172.294 84.1307 172.572 84.024C172.849 83.9173 173.07 83.7707 173.236 83.584C173.401 83.3973 173.484 83.1867 173.484 82.952C173.484 82.6533 173.374 82.4187 173.156 82.248C172.937 82.0773 172.588 81.928 172.108 81.8L170.62 81.32C169.974 81.1173 169.478 80.84 169.132 80.488C168.79 80.1307 168.62 79.704 168.62 79.208C168.62 78.5893 168.892 78.0933 169.436 77.72C169.98 77.3467 170.694 77.16 171.58 77.16C172.518 77.16 173.246 77.352 173.764 77.736C174.281 78.12 174.55 78.6 174.572 79.176H173.34C173.292 78.84 173.121 78.5867 172.828 78.416C172.534 78.24 172.118 78.152 171.58 78.152C171.062 78.152 170.657 78.2693 170.364 78.504C170.076 78.7333 169.932 78.9893 169.932 79.272C169.932 79.8 170.385 80.1893 171.292 80.44L172.812 80.952C173.468 81.1493 173.969 81.408 174.316 81.728C174.668 82.048 174.844 82.456 174.844 82.952C174.844 83.336 174.718 83.6987 174.468 84.04C174.217 84.3813 173.862 84.6587 173.404 84.872C172.945 85.0853 172.401 85.192 171.772 85.192ZM181.959 85V76.168C181.959 75.6613 182.055 75.248 182.247 74.928C182.444 74.6027 182.706 74.3627 183.031 74.208C183.362 74.0533 183.73 73.976 184.135 73.976C184.354 73.976 184.575 73.992 184.799 74.024C185.028 74.056 185.255 74.104 185.479 74.168L185.239 75.16C185.079 75.096 184.919 75.048 184.759 75.016C184.604 74.984 184.455 74.968 184.311 74.968C184.14 74.968 183.97 75 183.799 75.064C183.628 75.128 183.487 75.248 183.375 75.424C183.263 75.6 183.207 75.8533 183.207 76.184V85H181.959ZM180.711 78.216V77.352H184.791V78.216H180.711ZM189.955 85.192C189.267 85.192 188.654 85.04 188.115 84.736C187.582 84.432 187.161 83.9813 186.851 83.384C186.542 82.7867 186.387 82.0507 186.387 81.176C186.387 80.296 186.542 79.56 186.851 78.968C187.161 78.3707 187.582 77.92 188.115 77.616C188.654 77.312 189.267 77.16 189.955 77.16C190.638 77.16 191.246 77.312 191.779 77.616C192.318 77.92 192.739 78.3707 193.043 78.968C193.353 79.56 193.507 80.296 193.507 81.176C193.507 82.0507 193.353 82.7867 193.043 83.384C192.739 83.9813 192.318 84.432 191.779 84.736C191.246 85.04 190.638 85.192 189.955 85.192ZM189.923 84.104C190.419 84.104 190.841 83.9867 191.187 83.752C191.534 83.512 191.795 83.1733 191.971 82.736C192.153 82.2987 192.243 81.7787 192.243 81.176C192.243 80.264 192.054 79.5467 191.675 79.024C191.297 78.496 190.734 78.232 189.987 78.232C189.486 78.232 189.062 78.352 188.715 78.592C188.374 78.8267 188.113 79.1653 187.931 79.608C187.755 80.0453 187.667 80.568 187.667 81.176C187.667 82.0773 187.857 82.792 188.235 83.32C188.619 83.8427 189.182 84.104 189.923 84.104ZM196.097 85V77.336H197.345V85H196.097ZM196.961 81.544C196.961 80.5733 197.055 79.768 197.241 79.128C197.428 78.4827 197.7 78.0027 198.057 77.688C198.42 77.368 198.86 77.208 199.377 77.208C199.548 77.208 199.703 77.2213 199.841 77.248C199.985 77.2693 200.129 77.304 200.273 77.352L200.193 78.584C200.044 78.536 199.881 78.496 199.705 78.464C199.529 78.4267 199.372 78.408 199.233 78.408C198.78 78.408 198.415 78.5387 198.137 78.8C197.86 79.056 197.657 79.4187 197.529 79.888C197.407 80.3573 197.345 80.9093 197.345 81.544H196.961ZM204.731 77.352H206.123L208.619 83.912H208.331L210.267 77.352H211.547L208.667 86.536C208.427 87.304 208.107 87.896 207.707 88.312C207.307 88.728 206.795 88.936 206.171 88.936C205.835 88.936 205.515 88.888 205.211 88.792C204.913 88.696 204.603 88.5573 204.283 88.376V87.224C204.566 87.448 204.838 87.608 205.099 87.704C205.366 87.8 205.643 87.848 205.931 87.848C206.251 87.848 206.518 87.7467 206.731 87.544C206.95 87.3413 207.131 87.08 207.275 86.76C207.419 86.4453 207.542 86.1147 207.643 85.768L207.867 85L204.731 77.352ZM216.376 85.192C215.688 85.192 215.075 85.04 214.536 84.736C214.003 84.432 213.582 83.9813 213.272 83.384C212.963 82.7867 212.808 82.0507 212.808 81.176C212.808 80.296 212.963 79.56 213.272 78.968C213.582 78.3707 214.003 77.92 214.536 77.616C215.075 77.312 215.688 77.16 216.376 77.16C217.059 77.16 217.667 77.312 218.2 77.616C218.739 77.92 219.16 78.3707 219.464 78.968C219.774 79.56 219.928 80.296 219.928 81.176C219.928 82.0507 219.774 82.7867 219.464 83.384C219.16 83.9813 218.739 84.432 218.2 84.736C217.667 85.04 217.059 85.192 216.376 85.192ZM216.344 84.104C216.84 84.104 217.262 83.9867 217.608 83.752C217.955 83.512 218.216 83.1733 218.392 82.736C218.574 82.2987 218.664 81.7787 218.664 81.176C218.664 80.264 218.475 79.5467 218.096 79.024C217.718 78.496 217.155 78.232 216.408 78.232C215.907 78.232 215.483 78.352 215.136 78.592C214.795 78.8267 214.534 79.1653 214.352 79.608C214.176 80.0453 214.088 80.568 214.088 81.176C214.088 82.0773 214.278 82.792 214.656 83.32C215.04 83.8427 215.603 84.104 216.344 84.104ZM227.718 77.336H228.966V85H227.718V77.336ZM222.294 77.336H223.542V82.104C223.542 82.744 223.697 83.2293 224.006 83.56C224.321 83.8907 224.769 84.056 225.35 84.056C225.83 84.056 226.246 83.928 226.598 83.672C226.956 83.416 227.23 83.064 227.422 82.616C227.62 82.1627 227.718 81.6453 227.718 81.064H228.182C228.182 81.9227 228.057 82.656 227.806 83.264C227.561 83.872 227.212 84.3387 226.758 84.664C226.31 84.984 225.782 85.144 225.174 85.144C224.598 85.144 224.094 85.0373 223.662 84.824C223.23 84.6107 222.894 84.288 222.654 83.856C222.414 83.4187 222.294 82.8667 222.294 82.2V77.336ZM232.366 85V77.336H233.614V85H232.366ZM233.23 81.544C233.23 80.5733 233.323 79.768 233.51 79.128C233.697 78.4827 233.969 78.0027 234.326 77.688C234.689 77.368 235.129 77.208 235.646 77.208C235.817 77.208 235.971 77.2213 236.11 77.248C236.254 77.2693 236.398 77.304 236.542 77.352L236.462 78.584C236.313 78.536 236.15 78.496 235.974 78.464C235.798 78.4267 235.641 78.408 235.502 78.408C235.049 78.408 234.683 78.5387 234.406 78.8C234.129 79.056 233.926 79.4187 233.798 79.888C233.675 80.3573 233.614 80.9093 233.614 81.544H233.23ZM33.12 105.192C32.608 105.192 32.144 105.059 31.728 104.792C31.3173 104.525 30.9893 104.136 30.744 103.624C30.504 103.107 30.384 102.477 30.384 101.736H30.864C30.864 102.232 30.9653 102.656 31.168 103.008C31.376 103.355 31.6427 103.619 31.968 103.8C32.2933 103.981 32.6347 104.072 32.992 104.072C33.4027 104.072 33.7787 103.955 34.12 103.72C34.4613 103.485 34.7333 103.149 34.936 102.712C35.144 102.275 35.248 101.752 35.248 101.144C35.248 100.547 35.1467 100.035 34.944 99.608C34.7413 99.176 34.4667 98.8453 34.12 98.616C33.7787 98.3813 33.3973 98.264 32.976 98.264C32.6133 98.264 32.2693 98.3547 31.944 98.536C31.624 98.712 31.3627 98.9733 31.16 99.32C30.9627 99.6667 30.864 100.093 30.864 100.6H30.384C30.384 99.8747 30.5013 99.256 30.736 98.744C30.976 98.232 31.3067 97.84 31.728 97.568C32.1493 97.296 32.64 97.16 33.2 97.16C33.8027 97.16 34.3547 97.3227 34.856 97.648C35.3627 97.968 35.768 98.4267 36.072 99.024C36.376 99.6213 36.528 100.328 36.528 101.144C36.528 101.965 36.3733 102.68 36.064 103.288C35.7547 103.891 35.3413 104.36 34.824 104.696C34.3067 105.027 33.7387 105.192 33.12 105.192ZM29.616 105V94.088H30.864V103.208L30.496 105H29.616ZM39.2604 105V97.336H40.5084V105H39.2604ZM40.1244 101.544C40.1244 100.573 40.2177 99.768 40.4044 99.128C40.591 98.4827 40.863 98.0027 41.2204 97.688C41.583 97.368 42.023 97.208 42.5404 97.208C42.711 97.208 42.8657 97.2213 43.0044 97.248C43.1484 97.2693 43.2924 97.304 43.4364 97.352L43.3564 98.584C43.207 98.536 43.0444 98.496 42.8684 98.464C42.6924 98.4267 42.535 98.408 42.3964 98.408C41.943 98.408 41.5777 98.5387 41.3004 98.8C41.023 99.056 40.8204 99.4187 40.6924 99.888C40.5697 100.357 40.5084 100.909 40.5084 101.544H40.1244ZM45.9056 95.544C45.6496 95.544 45.447 95.472 45.2976 95.328C45.1483 95.1787 45.0736 94.984 45.0736 94.744C45.0736 94.5093 45.1483 94.3227 45.2976 94.184C45.447 94.0453 45.6496 93.976 45.9056 93.976C46.1616 93.976 46.3643 94.0453 46.5136 94.184C46.663 94.3227 46.7376 94.5093 46.7376 94.744C46.7376 94.984 46.663 95.1787 46.5136 95.328C46.3643 95.472 46.1616 95.544 45.9056 95.544ZM45.2816 105V97.336H46.5296V105H45.2816ZM52.8152 105.192C52.2019 105.192 51.6286 105.027 51.0952 104.696C50.5672 104.365 50.1406 103.899 49.8152 103.296C49.4899 102.693 49.3272 101.981 49.3272 101.16C49.3272 100.317 49.4899 99.5973 49.8152 99C50.1406 98.4027 50.5672 97.9467 51.0952 97.632C51.6286 97.3173 52.2019 97.16 52.8152 97.16C53.2472 97.16 53.6339 97.2267 53.9752 97.36C54.3219 97.488 54.6232 97.6667 54.8793 97.896C55.1352 98.1253 55.3459 98.3867 55.5113 98.68C55.6819 98.968 55.8073 99.272 55.8872 99.592L54.6072 99.704C54.4739 99.2613 54.2499 98.912 53.9352 98.656C53.6259 98.3947 53.2472 98.264 52.7992 98.264C52.4206 98.264 52.0632 98.3733 51.7272 98.592C51.3966 98.8053 51.1272 99.128 50.9192 99.56C50.7112 99.9867 50.6072 100.52 50.6072 101.16C50.6072 101.752 50.7006 102.267 50.8872 102.704C51.0792 103.136 51.3406 103.472 51.6712 103.712C52.0019 103.952 52.3779 104.072 52.7992 104.072C53.3912 104.072 53.8392 103.928 54.1432 103.64C54.4526 103.347 54.6072 102.941 54.6072 102.424H55.8872C55.8872 102.957 55.7619 103.432 55.5113 103.848C55.2606 104.264 54.9033 104.592 54.4392 104.832C53.9806 105.072 53.4392 105.192 52.8152 105.192ZM61.3052 105.192C60.6172 105.192 60.0039 105.04 59.4652 104.736C58.9319 104.432 58.5106 103.981 58.2012 103.384C57.8919 102.787 57.7372 102.051 57.7372 101.176C57.7372 100.296 57.8919 99.56 58.2012 98.968C58.5106 98.3707 58.9319 97.92 59.4652 97.616C60.0039 97.312 60.6172 97.16 61.3052 97.16C61.9879 97.16 62.5959 97.312 63.1292 97.616C63.6679 97.92 64.0892 98.3707 64.3932 98.968C64.7026 99.56 64.8572 100.296 64.8572 101.176C64.8572 102.051 64.7026 102.787 64.3932 103.384C64.0892 103.981 63.6679 104.432 63.1292 104.736C62.5959 105.04 61.9879 105.192 61.3052 105.192ZM61.2732 104.104C61.7692 104.104 62.1906 103.987 62.5372 103.752C62.8839 103.512 63.1452 103.173 63.3212 102.736C63.5026 102.299 63.5932 101.779 63.5932 101.176C63.5932 100.264 63.4039 99.5467 63.0252 99.024C62.6466 98.496 62.0839 98.232 61.3372 98.232C60.8359 98.232 60.4119 98.352 60.0652 98.592C59.7239 98.8267 59.4626 99.1653 59.2812 99.608C59.1052 100.045 59.0172 100.568 59.0172 101.176C59.0172 102.077 59.2066 102.792 59.5852 103.32C59.9692 103.843 60.5319 104.104 61.2732 104.104ZM67.4472 105V94.088H68.6952V105H67.4472ZM76.8276 105L76.6676 103.32V100.04C76.6676 99.352 76.521 98.8587 76.2276 98.56C75.9343 98.256 75.4943 98.104 74.9076 98.104C74.577 98.104 74.2756 98.152 74.0036 98.248C73.737 98.344 73.5236 98.4933 73.3636 98.696C73.209 98.8933 73.1316 99.1493 73.1316 99.464H71.7396C71.7396 98.9093 71.8756 98.464 72.1476 98.128C72.4196 97.7867 72.793 97.5413 73.2676 97.392C73.7476 97.2373 74.2943 97.16 74.9076 97.16C75.4943 97.16 76.0143 97.2587 76.4676 97.456C76.921 97.6533 77.2756 97.968 77.5316 98.4C77.7876 98.8267 77.9156 99.384 77.9156 100.072V105H76.8276ZM74.2196 105.192C73.5903 105.192 73.0703 105.08 72.6596 104.856C72.249 104.632 71.9423 104.341 71.7396 103.984C71.537 103.627 71.4356 103.251 71.4356 102.856C71.4356 102.339 71.5636 101.917 71.8196 101.592C72.081 101.267 72.4356 101.029 72.8836 100.88C73.3316 100.725 73.8356 100.648 74.3956 100.648C74.7956 100.648 75.1956 100.688 75.5956 100.768C76.001 100.848 76.3956 100.957 76.7796 101.096V101.88C76.4596 101.752 76.097 101.651 75.6916 101.576C75.2916 101.501 74.9236 101.464 74.5876 101.464C74.0756 101.464 73.6436 101.571 73.2916 101.784C72.9396 101.992 72.7636 102.349 72.7636 102.856C72.7636 103.229 72.897 103.549 73.1636 103.816C73.4356 104.083 73.8676 104.216 74.4596 104.216C74.8756 104.216 75.249 104.12 75.5796 103.928C75.9156 103.731 76.1796 103.485 76.3716 103.192C76.569 102.899 76.6676 102.605 76.6676 102.312H76.9716C76.9716 102.824 76.8596 103.299 76.6356 103.736C76.417 104.173 76.1023 104.525 75.6916 104.792C75.281 105.059 74.7903 105.192 74.2196 105.192ZM83.7681 108.936C82.9841 108.936 82.3041 108.824 81.7281 108.6C81.1521 108.381 80.7041 108.085 80.3841 107.712C80.0695 107.344 79.9121 106.936 79.9121 106.488C79.9121 105.896 80.1281 105.443 80.5601 105.128C80.9975 104.819 81.5601 104.664 82.2481 104.664L82.9361 105.096C82.3601 105.096 81.9148 105.216 81.6001 105.456C81.2855 105.696 81.1281 106.024 81.1281 106.44C81.1281 106.856 81.3521 107.208 81.8001 107.496C82.2481 107.784 82.9041 107.928 83.7681 107.928C84.4081 107.928 84.9681 107.835 85.4481 107.648C85.9335 107.467 86.3095 107.227 86.5761 106.928C86.8481 106.635 86.9841 106.317 86.9841 105.976C86.9841 105.736 86.8961 105.528 86.7201 105.352C86.5441 105.181 86.2748 105.096 85.9121 105.096H82.9361C82.4188 105.096 81.9708 105.019 81.5921 104.864C81.2188 104.704 80.9308 104.496 80.7281 104.24C80.5255 103.984 80.4241 103.704 80.4241 103.4C80.4241 103.08 80.5148 102.808 80.6961 102.584C80.8775 102.36 81.1121 102.189 81.4001 102.072C81.6935 101.955 82.0081 101.896 82.3441 101.896L82.5841 102.36C82.4241 102.36 82.2615 102.397 82.0961 102.472C81.9361 102.541 81.8001 102.648 81.6881 102.792C81.5815 102.931 81.5281 103.107 81.5281 103.32C81.5281 103.565 81.6295 103.771 81.8321 103.936C82.0348 104.101 82.4028 104.184 82.9361 104.184H85.9121C86.6321 104.184 87.1975 104.336 87.6081 104.64C88.0241 104.944 88.2321 105.368 88.2321 105.912C88.2321 106.413 88.0535 106.893 87.6961 107.352C87.3388 107.816 86.8268 108.195 86.1601 108.488C85.4935 108.787 84.6961 108.936 83.7681 108.936ZM83.9921 102.76C83.4055 102.76 82.8748 102.643 82.4001 102.408C81.9308 102.173 81.5575 101.845 81.2801 101.424C81.0081 101.003 80.8721 100.515 80.8721 99.96C80.8721 99.4 81.0081 98.9093 81.2801 98.488C81.5575 98.0667 81.9308 97.7413 82.4001 97.512C82.8748 97.2773 83.4055 97.16 83.9921 97.16C84.5628 97.16 85.0801 97.2773 85.5441 97.512C86.0135 97.7413 86.3868 98.0667 86.6641 98.488C86.9415 98.9093 87.0801 99.4 87.0801 99.96C87.0801 100.515 86.9415 101.003 86.6641 101.424C86.3868 101.845 86.0135 102.173 85.5441 102.408C85.0801 102.643 84.5628 102.76 83.9921 102.76ZM83.9921 101.864C84.5788 101.864 85.0348 101.683 85.3601 101.32C85.6855 100.957 85.8481 100.504 85.8481 99.96C85.8481 99.4 85.6855 98.9467 85.3601 98.6C85.0348 98.248 84.5788 98.072 83.9921 98.072C83.4108 98.072 82.9521 98.248 82.6161 98.6C82.2855 98.9467 82.1201 99.4 82.1201 99.96C82.1201 100.504 82.2855 100.957 82.6161 101.32C82.9521 101.683 83.4108 101.864 83.9921 101.864ZM86.5041 98.376L85.9121 98.136C85.9121 97.688 86.0001 97.296 86.1761 96.96C86.3521 96.6187 86.6028 96.3547 86.9281 96.168C87.2535 95.976 87.6401 95.88 88.0881 95.88L87.9921 97.112C87.5121 97.112 87.1441 97.216 86.8881 97.424C86.6321 97.6267 86.5041 97.944 86.5041 98.376ZM92.9114 105.192C92.25 105.192 91.658 105.024 91.1354 104.688C90.618 104.347 90.2074 103.875 89.9034 103.272C89.6047 102.669 89.4554 101.976 89.4554 101.192C89.4554 100.355 89.6047 99.6347 89.9034 99.032C90.202 98.4293 90.61 97.968 91.1274 97.648C91.65 97.3227 92.2447 97.16 92.9114 97.16C93.4927 97.16 93.9887 97.2773 94.3994 97.512C94.81 97.7467 95.1407 98.064 95.3914 98.464C95.642 98.864 95.8154 99.3173 95.9114 99.824C96.0127 100.325 96.042 100.845 95.9994 101.384H90.4634V100.616H95.1754L94.8074 100.856C94.8234 100.541 94.8047 100.227 94.7514 99.912C94.7034 99.5973 94.61 99.3093 94.4714 99.048C94.3327 98.7813 94.138 98.568 93.8874 98.408C93.6367 98.248 93.3167 98.168 92.9274 98.168C92.4367 98.168 92.026 98.2933 91.6954 98.544C91.3647 98.7947 91.1167 99.1253 90.9514 99.536C90.786 99.9413 90.7034 100.381 90.7034 100.856V101.368C90.7034 101.901 90.7834 102.379 90.9434 102.8C91.1087 103.221 91.354 103.555 91.6794 103.8C92.0047 104.045 92.4154 104.168 92.9114 104.168C93.4074 104.168 93.8154 104.048 94.1354 103.808C94.4554 103.568 94.65 103.213 94.7194 102.744H96.0154C95.9354 103.251 95.754 103.688 95.4714 104.056C95.1887 104.419 94.8287 104.699 94.3914 104.896C93.954 105.093 93.4607 105.192 92.9114 105.192ZM97.4981 104.256C97.4981 104.005 97.5861 103.789 97.7621 103.608C97.9381 103.427 98.1595 103.336 98.4261 103.336C98.6928 103.336 98.9195 103.427 99.1061 103.608C99.2928 103.789 99.3861 104.005 99.3861 104.256C99.3861 104.507 99.2928 104.717 99.1061 104.888C98.9195 105.059 98.6928 105.144 98.4261 105.144C98.1595 105.144 97.9381 105.059 97.7621 104.888C97.5861 104.712 97.4981 104.501 97.4981 104.256ZM104.125 98.296L103.229 97.816C103.533 97.6613 103.789 97.488 103.997 97.296C104.211 97.0987 104.349 96.872 104.413 96.616C104.173 96.5893 103.971 96.5067 103.805 96.368C103.645 96.2293 103.565 96.0453 103.565 95.816C103.565 95.5813 103.653 95.384 103.829 95.224C104.005 95.064 104.227 94.984 104.493 94.984C104.717 94.984 104.909 95.0427 105.069 95.16C105.229 95.272 105.352 95.424 105.437 95.616C105.523 95.8027 105.565 96.0133 105.565 96.248C105.565 96.632 105.44 97.008 105.189 97.376C104.939 97.7387 104.584 98.0453 104.125 98.296ZM101.509 98.296L100.613 97.816C100.917 97.6613 101.173 97.488 101.381 97.296C101.595 97.0987 101.733 96.872 101.797 96.616C101.557 96.5893 101.355 96.5067 101.189 96.368C101.029 96.2293 100.949 96.0453 100.949 95.816C100.949 95.5813 101.037 95.384 101.213 95.224C101.389 95.064 101.611 94.984 101.877 94.984C102.101 94.984 102.293 95.0427 102.453 95.16C102.613 95.272 102.736 95.424 102.821 95.616C102.907 95.8027 102.949 96.0133 102.949 96.248C102.949 96.632 102.824 97.008 102.573 97.376C102.323 97.7387 101.968 98.0453 101.509 98.296Z" fill="#4A5DC8"/>
</g>
<defs>
<filter id="filter0_d_7093_6107" x="0" y="0" width="265.768" height="128" filterUnits="userSpaceOnUse" color-interpolation-filters="sRGB">
<feFlood flood-opacity="0" result="BackgroundImageFix"/>
<feColorMatrix in="SourceAlpha" type="matrix" values="0 0 0 0 0 0 0 0 0 0 0 0 0 0 0 0 0 0 127 0" result="hardAlpha"/>
<feOffset dy="4"/>
<feGaussianBlur stdDeviation="3"/>
<feComposite in2="hardAlpha" operator="out"/>
<feColorMatrix type="matrix" values="0 0 0 0 0 0 0 0 0 0 0 0 0 0 0 0 0 0 0.1 0"/>
<feBlend mode="normal" in2="BackgroundImageFix" result="effect1_dropShadow_7093_6107"/>
<feBlend mode="normal" in="SourceGraphic" in2="effect1_dropShadow_7093_6107" result="shape"/>
</filter>
</defs>
</svg>
