<svg width="257" height="68" viewBox="0 0 257 68" fill="none" xmlns="http://www.w3.org/2000/svg">
<path d="M8.14016 32.6331L18.7667 41V49C18.7667 53.9706 23.1701 58 28.602 58L247.165 58C252.597 58 257 53.9706 257 49V11C257 6.02944 252.597 2 247.165 2L28.602 2C23.1701 2 18.7667 6.02944 18.7667 11V20.5L8.2628 27.9931C6.6304 29.1575 6.57119 31.3978 8.14016 32.6331Z" fill="white"/>
<g filter="url(#filter0_d_7041_5862)">
<mask id="path-2-inside-1_7041_5862" fill="white">
<path d="M7.77597 32.6331L17.5 41V49C17.5 53.9706 21.5294 58 26.5 58L226.5 58C231.471 58 235.5 53.9706 235.5 49V11C235.5 6.02944 231.471 2 226.5 2L26.5 2C21.5294 2 17.5 6.02944 17.5 11V20.5L7.88819 27.9931C6.39444 29.1575 6.34025 31.3978 7.77597 32.6331Z"/>
</mask>
<path d="M7.77597 32.6331L17.5 41V49C17.5 53.9706 21.5294 58 26.5 58L226.5 58C231.471 58 235.5 53.9706 235.5 49V11C235.5 6.02944 231.471 2 226.5 2L26.5 2C21.5294 2 17.5 6.02944 17.5 11V20.5L7.88819 27.9931C6.39444 29.1575 6.34025 31.3978 7.77597 32.6331Z" fill="white"/>
<path d="M17.5 41H18.9V40.3577L18.4131 39.9388L17.5 41ZM7.77597 32.6331L6.86285 33.6944H6.86285L7.77597 32.6331ZM7.88819 27.9931L8.74894 29.0972L8.74894 29.0972L7.88819 27.9931ZM17.5 20.5L18.3607 21.6041L18.9 21.1838V20.5H17.5ZM26.5 2V0.6V2ZM226.5 2V3.4V2ZM18.4131 39.9388L8.68909 31.5719L6.86285 33.6944L16.5869 42.0612L18.4131 39.9388ZM8.74894 29.0972L18.3607 21.6041L16.6393 19.3959L7.02744 26.8889L8.74894 29.0972ZM8.68909 31.5719C7.92337 30.9131 7.95227 29.7183 8.74894 29.0972L7.02744 26.8889C4.8366 28.5968 4.75713 31.8825 6.86285 33.6944L8.68909 31.5719ZM26.5 3.4L226.5 3.4V0.600003L26.5 0.6V3.4ZM234.1 11V49H236.9V11H234.1ZM226.5 56.6L26.5 56.6V59.4L226.5 59.4V56.6ZM18.9 20.5V11H16.1V20.5H18.9ZM18.9 49V41H16.1V49H18.9ZM26.5 56.6C22.3026 56.6 18.9 53.1974 18.9 49H16.1C16.1 54.7438 20.7562 59.4 26.5 59.4V56.6ZM234.1 49C234.1 53.1974 230.697 56.6 226.5 56.6V59.4C232.244 59.4 236.9 54.7438 236.9 49H234.1ZM226.5 3.4C230.697 3.4 234.1 6.80264 234.1 11H236.9C236.9 5.25624 232.244 0.600003 226.5 0.600003V3.4ZM26.5 0.6C20.7562 0.6 16.1 5.25624 16.1 11H18.9C18.9 6.80264 22.3026 3.4 26.5 3.4V0.6Z" fill="#333333" mask="url(#path-2-inside-1_7041_5862)"/>
</g>
<g filter="url(#filter1_d_7041_5862)">
<path d="M37.168 25.6949C36.336 25.6949 35.592 25.5029 34.936 25.1189C34.28 24.7349 33.7627 24.1589 33.384 23.3909C33.0053 22.6176 32.816 21.6523 32.816 20.4949C32.816 19.3216 33.0053 18.3509 33.384 17.5829C33.7627 16.8096 34.28 16.2336 34.936 15.8549C35.592 15.4709 36.336 15.2789 37.168 15.2789C38 15.2789 38.744 15.4709 39.4 15.8549C40.056 16.2389 40.5733 16.8176 40.952 17.5909C41.3307 18.3643 41.52 19.3323 41.52 20.4949C41.52 21.6629 41.3307 22.6336 40.952 23.4069C40.5733 24.1749 40.056 24.7483 39.4 25.1269C38.744 25.5056 38 25.6949 37.168 25.6949ZM37.168 24.5429C38.112 24.5429 38.856 24.1989 39.4 23.5109C39.9493 22.8229 40.224 21.8123 40.224 20.4789C40.224 19.1723 39.9493 18.1669 39.4 17.4629C38.856 16.7536 38.112 16.3989 37.168 16.3989C36.2347 16.3989 35.4907 16.7536 34.936 17.4629C34.3867 18.1723 34.112 19.1829 34.112 20.4949C34.112 21.8229 34.3867 22.8309 34.936 23.5189C35.4907 24.2016 36.2347 24.5429 37.168 24.5429ZM49.8801 15.4549H51.6081L45.1921 22.0629V20.3029L49.8801 15.4549ZM47.0001 19.6949L51.8801 25.5029H50.2481L46.1041 20.5109L47.0001 19.6949ZM44.1041 15.4549H45.3681V25.5029H44.1041V15.4549ZM54.1109 22.6869L53.9509 15.4869H55.2789L55.1189 22.6869H54.1109ZM54.6149 25.6469C54.3429 25.6469 54.1189 25.5616 53.9429 25.3909C53.7669 25.2203 53.6789 25.0069 53.6789 24.7509C53.6789 24.5003 53.7669 24.2869 53.9429 24.1109C54.1189 23.9296 54.3429 23.8389 54.6149 23.8389C54.8815 23.8389 55.1055 23.9296 55.2869 24.1109C55.4735 24.2869 55.5669 24.5003 55.5669 24.7509C55.5669 25.0069 55.4735 25.2203 55.2869 25.3909C55.1055 25.5616 54.8815 25.6469 54.6149 25.6469ZM61.0653 15.4549H62.5693L65.4493 20.3349H65.1293L68.0573 15.4549H69.5453L65.9133 21.3749V25.5029H64.6493V21.3749L61.0653 15.4549ZM73.1996 25.6949C72.5116 25.6949 71.8983 25.5429 71.3596 25.2389C70.8263 24.9349 70.405 24.4843 70.0956 23.8869C69.7863 23.2896 69.6316 22.5536 69.6316 21.6789C69.6316 20.7989 69.7863 20.0629 70.0956 19.4709C70.405 18.8736 70.8263 18.4229 71.3596 18.1189C71.8983 17.8149 72.5116 17.6629 73.1996 17.6629C73.8823 17.6629 74.4903 17.8149 75.0236 18.1189C75.5623 18.4229 75.9836 18.8736 76.2876 19.4709C76.597 20.0629 76.7516 20.7989 76.7516 21.6789C76.7516 22.5536 76.597 23.2896 76.2876 23.8869C75.9836 24.4843 75.5623 24.9349 75.0236 25.2389C74.4903 25.5429 73.8823 25.6949 73.1996 25.6949ZM73.1676 24.6069C73.6636 24.6069 74.085 24.4896 74.4316 24.2549C74.7783 24.0149 75.0396 23.6763 75.2156 23.2389C75.397 22.8016 75.4876 22.2816 75.4876 21.6789C75.4876 20.7669 75.2983 20.0496 74.9196 19.5269C74.541 18.9989 73.9783 18.7349 73.2316 18.7349C72.7303 18.7349 72.3063 18.8549 71.9596 19.0949C71.6183 19.3296 71.357 19.6683 71.1756 20.1109C70.9996 20.5483 70.9116 21.0709 70.9116 21.6789C70.9116 22.5803 71.101 23.2949 71.4796 23.8229C71.8636 24.3456 72.4263 24.6069 73.1676 24.6069ZM84.5416 17.8389H85.7896V25.5029H84.5416V17.8389ZM79.1176 17.8389H80.3656V22.6069C80.3656 23.2469 80.5203 23.7323 80.8296 24.0629C81.1443 24.3936 81.5923 24.5589 82.1736 24.5589C82.6536 24.5589 83.0696 24.4309 83.4216 24.1749C83.779 23.9189 84.0536 23.5669 84.2456 23.1189C84.443 22.6656 84.5416 22.1483 84.5416 21.5669H85.0056C85.0056 22.4256 84.8803 23.1589 84.6296 23.7669C84.3843 24.3749 84.035 24.8416 83.5816 25.1669C83.1336 25.4869 82.6056 25.6469 81.9976 25.6469C81.4216 25.6469 80.9176 25.5403 80.4856 25.3269C80.0536 25.1136 79.7176 24.7909 79.4776 24.3589C79.2376 23.9216 79.1176 23.3696 79.1176 22.7029V17.8389ZM97.882 25.5029L97.722 23.8229V20.5429C97.722 19.8549 97.5753 19.3616 97.282 19.0629C96.9887 18.7589 96.5487 18.6069 95.962 18.6069C95.6313 18.6069 95.33 18.6549 95.058 18.7509C94.7913 18.8469 94.578 18.9963 94.418 19.1989C94.2633 19.3963 94.186 19.6523 94.186 19.9669H92.794C92.794 19.4123 92.93 18.9669 93.202 18.6309C93.474 18.2896 93.8473 18.0443 94.322 17.8949C94.802 17.7403 95.3487 17.6629 95.962 17.6629C96.5487 17.6629 97.0687 17.7616 97.522 17.9589C97.9753 18.1563 98.33 18.4709 98.586 18.9029C98.842 19.3296 98.97 19.8869 98.97 20.5749V25.5029H97.882ZM95.274 25.6949C94.6447 25.6949 94.1247 25.5829 93.714 25.3589C93.3033 25.1349 92.9967 24.8443 92.794 24.4869C92.5913 24.1296 92.49 23.7536 92.49 23.3589C92.49 22.8416 92.618 22.4203 92.874 22.0949C93.1353 21.7696 93.49 21.5323 93.938 21.3829C94.386 21.2283 94.89 21.1509 95.45 21.1509C95.85 21.1509 96.25 21.1909 96.65 21.2709C97.0553 21.3509 97.45 21.4603 97.834 21.5989V22.3829C97.514 22.2549 97.1513 22.1536 96.746 22.0789C96.346 22.0043 95.978 21.9669 95.642 21.9669C95.13 21.9669 94.698 22.0736 94.346 22.2869C93.994 22.4949 93.818 22.8523 93.818 23.3589C93.818 23.7323 93.9513 24.0523 94.218 24.3189C94.49 24.5856 94.922 24.7189 95.514 24.7189C95.93 24.7189 96.3033 24.6229 96.634 24.4309C96.97 24.2336 97.234 23.9883 97.426 23.6949C97.6233 23.4016 97.722 23.1083 97.722 22.8149H98.026C98.026 23.3269 97.914 23.8016 97.69 24.2389C97.4713 24.6763 97.1567 25.0283 96.746 25.2949C96.3353 25.5616 95.8447 25.6949 95.274 25.6949ZM102.119 25.5029V17.8389H103.367V25.5029H102.119ZM102.983 22.0469C102.983 21.0763 103.076 20.2709 103.263 19.6309C103.449 18.9856 103.721 18.5056 104.079 18.1909C104.441 17.8709 104.881 17.7109 105.399 17.7109C105.569 17.7109 105.724 17.7243 105.863 17.7509C106.007 17.7723 106.151 17.8069 106.295 17.8549L106.215 19.0869C106.065 19.0389 105.903 18.9989 105.727 18.9669C105.551 18.9296 105.393 18.9109 105.255 18.9109C104.801 18.9109 104.436 19.0416 104.159 19.3029C103.881 19.5589 103.679 19.9216 103.551 20.3909C103.428 20.8603 103.367 21.4123 103.367 22.0469H102.983ZM110.716 25.6949C110.054 25.6949 109.462 25.5269 108.94 25.1909C108.422 24.8496 108.012 24.3776 107.708 23.7749C107.409 23.1723 107.26 22.4789 107.26 21.6949C107.26 20.8576 107.409 20.1376 107.708 19.5349C108.006 18.9323 108.414 18.4709 108.932 18.1509C109.454 17.8256 110.049 17.6629 110.716 17.6629C111.297 17.6629 111.793 17.7803 112.204 18.0149C112.614 18.2496 112.945 18.5669 113.196 18.9669C113.446 19.3669 113.62 19.8203 113.716 20.3269C113.817 20.8283 113.846 21.3483 113.804 21.8869H108.268V21.1189H112.98L112.612 21.3589C112.628 21.0443 112.609 20.7296 112.556 20.4149C112.508 20.1003 112.414 19.8123 112.276 19.5509C112.137 19.2843 111.942 19.0709 111.692 18.9109C111.441 18.7509 111.121 18.6709 110.732 18.6709C110.241 18.6709 109.83 18.7963 109.5 19.0469C109.169 19.2976 108.921 19.6283 108.756 20.0389C108.59 20.4443 108.508 20.8843 108.508 21.3589V21.8709C108.508 22.4043 108.588 22.8816 108.748 23.3029C108.913 23.7243 109.158 24.0576 109.484 24.3029C109.809 24.5483 110.22 24.6709 110.716 24.6709C111.212 24.6709 111.62 24.5509 111.94 24.3109C112.26 24.0709 112.454 23.7163 112.524 23.2469H113.82C113.74 23.7536 113.558 24.1909 113.276 24.5589C112.993 24.9216 112.633 25.2016 112.196 25.3989C111.758 25.5963 111.265 25.6949 110.716 25.6949ZM125.835 25.5029V21.0069C125.835 20.2763 125.659 19.7216 125.307 19.3429C124.961 18.9589 124.486 18.7669 123.883 18.7669C123.425 18.7669 123.027 18.8923 122.691 19.1429C122.355 19.3936 122.097 19.7536 121.915 20.2229C121.734 20.6869 121.643 21.2416 121.643 21.8869H121.163C121.163 20.9963 121.281 20.2363 121.515 19.6069C121.75 18.9776 122.091 18.4976 122.539 18.1669C122.993 17.8309 123.542 17.6629 124.187 17.6629C124.79 17.6629 125.305 17.7989 125.731 18.0709C126.163 18.3376 126.494 18.7216 126.723 19.2229C126.953 19.7243 127.067 20.3189 127.067 21.0069V25.5029H125.835ZM120.395 25.5029V17.8549H121.467L121.643 19.6149V25.5029H120.395ZM132.98 25.6949C132.292 25.6949 131.678 25.5429 131.14 25.2389C130.606 24.9349 130.185 24.4843 129.876 23.8869C129.566 23.2896 129.412 22.5536 129.412 21.6789C129.412 20.7989 129.566 20.0629 129.876 19.4709C130.185 18.8736 130.606 18.4229 131.14 18.1189C131.678 17.8149 132.292 17.6629 132.98 17.6629C133.662 17.6629 134.27 17.8149 134.804 18.1189C135.342 18.4229 135.764 18.8736 136.068 19.4709C136.377 20.0629 136.532 20.7989 136.532 21.6789C136.532 22.5536 136.377 23.2896 136.068 23.8869C135.764 24.4843 135.342 24.9349 134.804 25.2389C134.27 25.5429 133.662 25.6949 132.98 25.6949ZM132.948 24.6069C133.444 24.6069 133.865 24.4896 134.212 24.2549C134.558 24.0149 134.82 23.6763 134.996 23.2389C135.177 22.8016 135.268 22.2816 135.268 21.6789C135.268 20.7669 135.078 20.0496 134.7 19.5269C134.321 18.9989 133.758 18.7349 133.012 18.7349C132.51 18.7349 132.086 18.8549 131.74 19.0949C131.398 19.3296 131.137 19.6683 130.956 20.1109C130.78 20.5483 130.692 21.0709 130.692 21.6789C130.692 22.5803 130.881 23.2949 131.26 23.8229C131.644 24.3456 132.206 24.6069 132.948 24.6069ZM137.794 17.8549H139.09L141.042 24.2389H140.882L142.786 18.2229H143.826L145.714 24.2549H145.57L147.522 17.8549H148.77L146.258 25.5029H145.042L143.186 19.8549H143.378L141.538 25.5029H140.322L137.794 17.8549ZM154.832 25.5029V17.8389H156.08V25.5029H154.832ZM155.696 22.0469C155.696 21.0763 155.79 20.2709 155.976 19.6309C156.163 18.9856 156.435 18.5056 156.792 18.1909C157.155 17.8709 157.595 17.7109 158.112 17.7109C158.283 17.7109 158.438 17.7243 158.576 17.7509C158.72 17.7723 158.864 17.8069 159.008 17.8549L158.928 19.0869C158.779 19.0389 158.616 18.9989 158.44 18.9669C158.264 18.9296 158.107 18.9109 157.968 18.9109C157.515 18.9109 157.15 19.0416 156.872 19.3029C156.595 19.5589 156.392 19.9216 156.264 20.3909C156.142 20.8603 156.08 21.4123 156.08 22.0469H155.696ZM163.43 25.6949C162.768 25.6949 162.176 25.5269 161.654 25.1909C161.136 24.8496 160.726 24.3776 160.422 23.7749C160.123 23.1723 159.974 22.4789 159.974 21.6949C159.974 20.8576 160.123 20.1376 160.422 19.5349C160.72 18.9323 161.128 18.4709 161.646 18.1509C162.168 17.8256 162.763 17.6629 163.43 17.6629C164.011 17.6629 164.507 17.7803 164.918 18.0149C165.328 18.2496 165.659 18.5669 165.91 18.9669C166.16 19.3669 166.334 19.8203 166.43 20.3269C166.531 20.8283 166.56 21.3483 166.518 21.8869H160.982V21.1189H165.694L165.326 21.3589C165.342 21.0443 165.323 20.7296 165.27 20.4149C165.222 20.1003 165.128 19.8123 164.99 19.5509C164.851 19.2843 164.656 19.0709 164.406 18.9109C164.155 18.7509 163.835 18.6709 163.446 18.6709C162.955 18.6709 162.544 18.7963 162.214 19.0469C161.883 19.2976 161.635 19.6283 161.47 20.0389C161.304 20.4443 161.222 20.8843 161.222 21.3589V21.8709C161.222 22.4043 161.302 22.8816 161.462 23.3029C161.627 23.7243 161.872 24.0576 162.198 24.3029C162.523 24.5483 162.934 24.6709 163.43 24.6709C163.926 24.6709 164.334 24.5509 164.654 24.3109C164.974 24.0709 165.168 23.7163 165.238 23.2469H166.534C166.454 23.7536 166.272 24.1909 165.99 24.5589C165.707 24.9216 165.347 25.2016 164.91 25.3989C164.472 25.5963 163.979 25.6949 163.43 25.6949ZM173.888 25.5029L173.728 23.8229V20.5429C173.728 19.8549 173.582 19.3616 173.288 19.0629C172.995 18.7589 172.555 18.6069 171.968 18.6069C171.638 18.6069 171.336 18.6549 171.064 18.7509C170.798 18.8469 170.584 18.9963 170.424 19.1989C170.27 19.3963 170.192 19.6523 170.192 19.9669H168.8C168.8 19.4123 168.936 18.9669 169.208 18.6309C169.48 18.2896 169.854 18.0443 170.328 17.8949C170.808 17.7403 171.355 17.6629 171.968 17.6629C172.555 17.6629 173.075 17.7616 173.528 17.9589C173.982 18.1563 174.336 18.4709 174.592 18.9029C174.848 19.3296 174.976 19.8869 174.976 20.5749V25.5029H173.888ZM171.28 25.6949C170.651 25.6949 170.131 25.5829 169.72 25.3589C169.31 25.1349 169.003 24.8443 168.8 24.4869C168.598 24.1296 168.496 23.7536 168.496 23.3589C168.496 22.8416 168.624 22.4203 168.88 22.0949C169.142 21.7696 169.496 21.5323 169.944 21.3829C170.392 21.2283 170.896 21.1509 171.456 21.1509C171.856 21.1509 172.256 21.1909 172.656 21.2709C173.062 21.3509 173.456 21.4603 173.84 21.5989V22.3829C173.52 22.2549 173.158 22.1536 172.752 22.0789C172.352 22.0043 171.984 21.9669 171.648 21.9669C171.136 21.9669 170.704 22.0736 170.352 22.2869C170 22.4949 169.824 22.8523 169.824 23.3589C169.824 23.7323 169.958 24.0523 170.224 24.3189C170.496 24.5856 170.928 24.7189 171.52 24.7189C171.936 24.7189 172.31 24.6229 172.64 24.4309C172.976 24.2336 173.24 23.9883 173.432 23.6949C173.63 23.4016 173.728 23.1083 173.728 22.8149H174.032C174.032 23.3269 173.92 23.8016 173.696 24.2389C173.478 24.6763 173.163 25.0283 172.752 25.2949C172.342 25.5616 171.851 25.6949 171.28 25.6949ZM180.861 25.6949C180.242 25.6949 179.674 25.5296 179.157 25.1989C178.639 24.8629 178.226 24.3936 177.917 23.7909C177.607 23.1829 177.453 22.4683 177.453 21.6469C177.453 20.8309 177.605 20.1243 177.909 19.5269C178.213 18.9296 178.615 18.4709 179.117 18.1509C179.623 17.8256 180.178 17.6629 180.781 17.6629C181.341 17.6629 181.831 17.7989 182.253 18.0709C182.679 18.3429 183.01 18.7349 183.245 19.2469C183.479 19.7589 183.597 20.3776 183.597 21.1029H183.117C183.117 20.5963 183.015 20.1696 182.813 19.8229C182.615 19.4763 182.357 19.2149 182.037 19.0389C181.717 18.8576 181.373 18.7669 181.005 18.7669C180.589 18.7669 180.207 18.8843 179.861 19.1189C179.519 19.3483 179.245 19.6789 179.037 20.1109C178.834 20.5376 178.733 21.0496 178.733 21.6469C178.733 22.2549 178.834 22.7776 179.037 23.2149C179.245 23.6523 179.519 23.9883 179.861 24.2229C180.207 24.4576 180.589 24.5749 181.005 24.5749C181.351 24.5749 181.685 24.4843 182.005 24.3029C182.33 24.1216 182.597 23.8576 182.805 23.5109C183.013 23.1589 183.117 22.7349 183.117 22.2389H183.597C183.597 22.9803 183.474 23.6096 183.229 24.1269C182.989 24.6389 182.661 25.0283 182.245 25.2949C181.834 25.5616 181.373 25.6949 180.861 25.6949ZM183.325 25.5029L183.117 23.7109V14.5909H184.365V25.5029H183.325ZM188.473 16.0469C188.217 16.0469 188.014 15.9749 187.865 15.8309C187.716 15.6816 187.641 15.4869 187.641 15.2469C187.641 15.0123 187.716 14.8256 187.865 14.6869C188.014 14.5483 188.217 14.4789 188.473 14.4789C188.729 14.4789 188.932 14.5483 189.081 14.6869C189.23 14.8256 189.305 15.0123 189.305 15.2469C189.305 15.4869 189.23 15.6816 189.081 15.8309C188.932 15.9749 188.729 16.0469 188.473 16.0469ZM187.849 25.5029V17.8389H189.097V25.5029H187.849ZM198.135 25.5029V21.0069C198.135 20.2763 197.959 19.7216 197.607 19.3429C197.26 18.9589 196.785 18.7669 196.183 18.7669C195.724 18.7669 195.327 18.8923 194.991 19.1429C194.655 19.3936 194.396 19.7536 194.215 20.2229C194.033 20.6869 193.943 21.2416 193.943 21.8869H193.463C193.463 20.9963 193.58 20.2363 193.815 19.6069C194.049 18.9776 194.391 18.4976 194.839 18.1669C195.292 17.8309 195.841 17.6629 196.487 17.6629C197.089 17.6629 197.604 17.7989 198.031 18.0709C198.463 18.3376 198.793 18.7216 199.023 19.2229C199.252 19.7243 199.367 20.3189 199.367 21.0069V25.5029H198.135ZM192.695 25.5029V17.8549H193.767L193.943 19.6149V25.5029H192.695ZM205.215 29.4389C204.431 29.4389 203.751 29.3269 203.175 29.1029C202.599 28.8843 202.151 28.5883 201.831 28.2149C201.516 27.8469 201.359 27.4389 201.359 26.9909C201.359 26.3989 201.575 25.9456 202.007 25.6309C202.444 25.3216 203.007 25.1669 203.695 25.1669L204.383 25.5989C203.807 25.5989 203.362 25.7189 203.047 25.9589C202.732 26.1989 202.575 26.5269 202.575 26.9429C202.575 27.3589 202.799 27.7109 203.247 27.9989C203.695 28.2869 204.351 28.4309 205.215 28.4309C205.855 28.4309 206.415 28.3376 206.895 28.1509C207.38 27.9696 207.756 27.7296 208.023 27.4309C208.295 27.1376 208.431 26.8203 208.431 26.4789C208.431 26.2389 208.343 26.0309 208.167 25.8549C207.991 25.6843 207.722 25.5989 207.359 25.5989H204.383C203.866 25.5989 203.418 25.5216 203.039 25.3669C202.666 25.2069 202.378 24.9989 202.175 24.7429C201.972 24.4869 201.871 24.2069 201.871 23.9029C201.871 23.5829 201.962 23.3109 202.143 23.0869C202.324 22.8629 202.559 22.6923 202.847 22.5749C203.14 22.4576 203.455 22.3989 203.791 22.3989L204.031 22.8629C203.871 22.8629 203.708 22.9003 203.543 22.9749C203.383 23.0443 203.247 23.1509 203.135 23.2949C203.028 23.4336 202.975 23.6096 202.975 23.8229C202.975 24.0683 203.076 24.2736 203.279 24.4389C203.482 24.6043 203.85 24.6869 204.383 24.6869H207.359C208.079 24.6869 208.644 24.8389 209.055 25.1429C209.471 25.4469 209.679 25.8709 209.679 26.4149C209.679 26.9163 209.5 27.3963 209.143 27.8549C208.786 28.3189 208.274 28.6976 207.607 28.9909C206.94 29.2896 206.143 29.4389 205.215 29.4389ZM205.439 23.2629C204.852 23.2629 204.322 23.1456 203.847 22.9109C203.378 22.6763 203.004 22.3483 202.727 21.9269C202.455 21.5056 202.319 21.0176 202.319 20.4629C202.319 19.9029 202.455 19.4123 202.727 18.9909C203.004 18.5696 203.378 18.2443 203.847 18.0149C204.322 17.7803 204.852 17.6629 205.439 17.6629C206.01 17.6629 206.527 17.7803 206.991 18.0149C207.46 18.2443 207.834 18.5696 208.111 18.9909C208.388 19.4123 208.527 19.9029 208.527 20.4629C208.527 21.0176 208.388 21.5056 208.111 21.9269C207.834 22.3483 207.46 22.6763 206.991 22.9109C206.527 23.1456 206.01 23.2629 205.439 23.2629ZM205.439 22.3669C206.026 22.3669 206.482 22.1856 206.807 21.8229C207.132 21.4603 207.295 21.0069 207.295 20.4629C207.295 19.9029 207.132 19.4496 206.807 19.1029C206.482 18.7509 206.026 18.5749 205.439 18.5749C204.858 18.5749 204.399 18.7509 204.063 19.1029C203.732 19.4496 203.567 19.9029 203.567 20.4629C203.567 21.0069 203.732 21.4603 204.063 21.8229C204.399 22.1856 204.858 22.3669 205.439 22.3669ZM207.951 18.8789L207.359 18.6389C207.359 18.1909 207.447 17.7989 207.623 17.4629C207.799 17.1216 208.05 16.8576 208.375 16.6709C208.7 16.4789 209.087 16.3829 209.535 16.3829L209.439 17.6149C208.959 17.6149 208.591 17.7189 208.335 17.9269C208.079 18.1296 207.951 18.4469 207.951 18.8789ZM32.16 35.1189H34.272L36.784 43.8389H36.304L38.784 35.8069H40.064L42.64 43.7109H42.208L44.848 35.1189H46.976L43.408 45.5029H41.424L39.392 39.3749H39.568L37.536 45.5029H35.552L32.16 35.1189ZM47.012 45.5029L50.548 35.1189H52.916L56.308 45.5029H54.324L53.604 43.2629H49.748L49.012 45.5029H47.012ZM50.228 41.8389H53.156L51.7 37.3749L50.228 41.8389ZM61.9396 45.7269C61.2196 45.7269 60.5556 45.6016 59.9476 45.3509C59.345 45.1003 58.8543 44.7189 58.4756 44.2069C58.1023 43.6949 57.9023 43.0443 57.8756 42.2549H59.7316C59.7316 42.6549 59.8303 42.9829 60.0276 43.2389C60.225 43.4949 60.489 43.6869 60.8196 43.8149C61.1556 43.9376 61.5236 43.9989 61.9236 43.9989C62.3076 43.9989 62.649 43.9483 62.9476 43.8469C63.2516 43.7456 63.489 43.6016 63.6596 43.4149C63.8356 43.2229 63.9236 42.9963 63.9236 42.7349C63.9236 42.3883 63.817 42.1163 63.6036 41.9189C63.3956 41.7216 63.0596 41.5403 62.5956 41.3749L60.5476 40.5589C59.7476 40.2443 59.1343 39.8789 58.7076 39.4629C58.281 39.0469 58.0676 38.4736 58.0676 37.7429C58.0676 36.9003 58.401 36.2176 59.0676 35.6949C59.7343 35.1723 60.665 34.9109 61.8596 34.9109C63.0223 34.9109 63.921 35.1829 64.5556 35.7269C65.1903 36.2656 65.5503 37.0176 65.6356 37.9829H63.7796C63.7103 37.5723 63.5236 37.2443 63.2196 36.9989C62.9156 36.7483 62.4623 36.6229 61.8596 36.6229C61.3263 36.6229 60.905 36.7349 60.5956 36.9589C60.2863 37.1776 60.1316 37.4549 60.1316 37.7909C60.1316 38.0789 60.2276 38.3083 60.4196 38.4789C60.617 38.6443 60.921 38.8043 61.3316 38.9589L63.6036 39.8389C64.3716 40.1376 64.961 40.5136 65.3716 40.9669C65.7823 41.4203 65.9876 41.9883 65.9876 42.6709C65.9876 43.2949 65.8303 43.8363 65.5156 44.2949C65.201 44.7483 64.7423 45.1003 64.1396 45.3509C63.537 45.6016 62.8036 45.7269 61.9396 45.7269ZM68.6388 45.5029V35.1189H72.3028C73.4708 35.1189 74.3801 35.4069 75.0308 35.9829C75.6868 36.5589 76.0148 37.3749 76.0148 38.4309C76.0148 39.4763 75.6868 40.2869 75.0308 40.8629C74.3801 41.4389 73.4708 41.7269 72.3028 41.7269H70.5428V45.5029H68.6388ZM70.5428 40.0789H72.3028C72.8894 40.0789 73.3321 39.9243 73.6308 39.6149C73.9294 39.3056 74.0788 38.9109 74.0788 38.4309C74.0788 37.9403 73.9294 37.5376 73.6308 37.2229C73.3321 36.9083 72.8894 36.7509 72.3028 36.7509H70.5428V40.0789ZM85.9509 45.7269C85.2309 45.7269 84.5669 45.6016 83.9589 45.3509C83.3562 45.1003 82.8655 44.7189 82.4869 44.2069C82.1135 43.6949 81.9135 43.0443 81.8869 42.2549H83.7429C83.7429 42.6549 83.8415 42.9829 84.0389 43.2389C84.2362 43.4949 84.5002 43.6869 84.8309 43.8149C85.1669 43.9376 85.5349 43.9989 85.9349 43.9989C86.3189 43.9989 86.6602 43.9483 86.9589 43.8469C87.2629 43.7456 87.5002 43.6016 87.6709 43.4149C87.8469 43.2229 87.9349 42.9963 87.9349 42.7349C87.9349 42.3883 87.8282 42.1163 87.6149 41.9189C87.4069 41.7216 87.0709 41.5403 86.6069 41.3749L84.5589 40.5589C83.7589 40.2443 83.1455 39.8789 82.7189 39.4629C82.2922 39.0469 82.0789 38.4736 82.0789 37.7429C82.0789 36.9003 82.4122 36.2176 83.0789 35.6949C83.7455 35.1723 84.6762 34.9109 85.8709 34.9109C87.0335 34.9109 87.9322 35.1829 88.5669 35.7269C89.2015 36.2656 89.5615 37.0176 89.6469 37.9829H87.7909C87.7215 37.5723 87.5349 37.2443 87.2309 36.9989C86.9269 36.7483 86.4735 36.6229 85.8709 36.6229C85.3375 36.6229 84.9162 36.7349 84.6069 36.9589C84.2975 37.1776 84.1429 37.4549 84.1429 37.7909C84.1429 38.0789 84.2389 38.3083 84.4309 38.4789C84.6282 38.6443 84.9322 38.8043 85.3429 38.9589L87.6149 39.8389C88.3829 40.1376 88.9722 40.5136 89.3829 40.9669C89.7935 41.4203 89.9989 41.9883 89.9989 42.6709C89.9989 43.2949 89.8415 43.8363 89.5269 44.2949C89.2122 44.7483 88.7535 45.1003 88.1509 45.3509C87.5482 45.6016 86.8149 45.7269 85.9509 45.7269ZM91.306 36.7509V35.1189H99.626V36.7509H95.986L96.41 36.3189V45.5029H94.522V36.3189L94.946 36.7509H91.306ZM101.358 45.5029V35.1189H103.246V45.5029H101.358ZM106.361 35.1189H108.425L113.145 42.5269H113.001V35.1189H114.889V45.5029H112.969L107.945 37.6469H108.249V45.5029H106.361V35.1189ZM121.814 45.7269C120.966 45.7269 120.2 45.5029 119.518 45.0549C118.835 44.6069 118.291 43.9829 117.886 43.1829C117.486 42.3776 117.286 41.4389 117.286 40.3669C117.286 39.5189 117.408 38.7589 117.654 38.0869C117.904 37.4149 118.251 36.8416 118.694 36.3669C119.136 35.8923 119.656 35.5323 120.254 35.2869C120.851 35.0363 121.499 34.9109 122.198 34.9109C123.168 34.9109 123.982 35.1216 124.638 35.5429C125.299 35.9643 125.814 36.6283 126.182 37.5349L124.246 37.9829C123.974 37.5403 123.659 37.2043 123.302 36.9749C122.95 36.7403 122.55 36.6229 122.102 36.6229C121.59 36.6229 121.123 36.7749 120.702 37.0789C120.28 37.3776 119.944 37.8069 119.694 38.3669C119.443 38.9269 119.318 39.5936 119.318 40.3669C119.318 41.0923 119.427 41.7269 119.646 42.2709C119.87 42.8149 120.182 43.2389 120.582 43.5429C120.982 43.8469 121.446 43.9989 121.974 43.9989C122.422 43.9989 122.822 43.9003 123.174 43.7029C123.531 43.5003 123.811 43.2123 124.014 42.8389C124.222 42.4656 124.326 42.0149 124.326 41.4869H124.742C124.742 42.3509 124.638 43.1003 124.43 43.7349C124.227 44.3696 123.91 44.8603 123.478 45.2069C123.046 45.5536 122.491 45.7269 121.814 45.7269ZM124.598 45.5029L124.326 43.2149V41.4229L121.99 41.3749V40.1749H126.134V45.5029H124.598ZM131.825 36.7509V35.1189H140.145V36.7509H136.505L136.929 36.3189V45.5029H135.041V36.3189L135.465 36.7509H131.825ZM141.877 45.5029V35.1189H145.717C146.959 35.1189 147.911 35.4096 148.573 35.9909C149.239 36.5723 149.573 37.3429 149.573 38.3029C149.573 39.2469 149.239 40.0096 148.573 40.5909C147.911 41.1669 146.959 41.4549 145.717 41.4549H143.765V45.5029H141.877ZM147.493 45.5029L144.741 40.6389H146.757L149.957 45.5029H147.493ZM143.765 40.1909H145.525C146.218 40.1909 146.743 40.0336 147.101 39.7189C147.458 39.3989 147.637 38.9856 147.637 38.4789C147.637 37.9616 147.474 37.5456 147.149 37.2309C146.823 36.9109 146.346 36.7509 145.717 36.7509H143.765V40.1909ZM152.318 45.5029V35.1189H158.99V36.7509H154.206V39.4869H158.702V41.1189H154.206V43.8549H158.99V45.5029H152.318ZM160.748 45.5029L164.284 35.1189H166.652L170.044 45.5029H168.06L167.34 43.2629H163.484L162.748 45.5029H160.748ZM163.964 41.8389H166.892L165.436 37.3749L163.964 41.8389ZM169.949 36.7509V35.1189H178.269V36.7509H174.629L175.053 36.3189V45.5029H173.165V36.3189L173.589 36.7509H169.949ZM180.001 35.1189H182.705L185.633 41.4709H185.473L188.401 35.1189H191.009V45.5029H189.105V37.2949H189.393L186.161 44.3669H184.929L181.713 37.3269H181.889V45.5029H180.001V35.1189ZM194.13 45.5029V35.1189H200.802V36.7509H196.018V39.4869H200.514V41.1189H196.018V43.8549H200.802V45.5029H194.13ZM203.664 35.1189H205.728L210.448 42.5269H210.304V35.1189H212.192V45.5029H210.272L205.248 37.6469H205.552V45.5029H203.664V35.1189ZM213.933 36.7509V35.1189H222.253V36.7509H218.613L219.037 36.3189V45.5029H217.149V36.3189L217.573 36.7509H213.933Z" fill="#333333"/>
</g>
<defs>
<filter id="filter0_d_7041_5862" x="0.732642" y="0" width="240.767" height="68" filterUnits="userSpaceOnUse" color-interpolation-filters="sRGB">
<feFlood flood-opacity="0" result="BackgroundImageFix"/>
<feColorMatrix in="SourceAlpha" type="matrix" values="0 0 0 0 0 0 0 0 0 0 0 0 0 0 0 0 0 0 127 0" result="hardAlpha"/>
<feOffset dy="4"/>
<feGaussianBlur stdDeviation="3"/>
<feComposite in2="hardAlpha" operator="out"/>
<feColorMatrix type="matrix" values="0 0 0 0 0 0 0 0 0 0 0 0 0 0 0 0 0 0 0.1 0"/>
<feBlend mode="normal" in2="BackgroundImageFix" result="effect1_dropShadow_7041_5862"/>
<feBlend mode="normal" in="SourceGraphic" in2="effect1_dropShadow_7041_5862" result="shape"/>
</filter>
<filter id="filter1_d_7041_5862" x="26.16" y="12.4785" width="202.093" height="43.248" filterUnits="userSpaceOnUse" color-interpolation-filters="sRGB">
<feFlood flood-opacity="0" result="BackgroundImageFix"/>
<feColorMatrix in="SourceAlpha" type="matrix" values="0 0 0 0 0 0 0 0 0 0 0 0 0 0 0 0 0 0 127 0" result="hardAlpha"/>
<feOffset dy="4"/>
<feGaussianBlur stdDeviation="3"/>
<feComposite in2="hardAlpha" operator="out"/>
<feColorMatrix type="matrix" values="0 0 0 0 0 0 0 0 0 0 0 0 0 0 0 0 0 0 0.05 0"/>
<feBlend mode="normal" in2="BackgroundImageFix" result="effect1_dropShadow_7041_5862"/>
<feBlend mode="normal" in="SourceGraphic" in2="effect1_dropShadow_7041_5862" result="shape"/>
</filter>
</defs>
</svg>
