<svg width="257" height="68" viewBox="0 0 257 68" fill="none" xmlns="http://www.w3.org/2000/svg">
<path d="M7.04333 32.6331L16.7674 41V49C16.7674 53.9706 20.7968 58 25.7674 58L247.035 58C252.005 58 256.035 53.9706 256.035 49V11C256.035 6.02944 252.005 2 247.035 2L25.7674 2C20.7968 2 16.7674 6.02944 16.7674 11V20.5L7.15555 27.9931C5.66179 29.1575 5.60761 31.3978 7.04333 32.6331Z" fill="white"/>
<g filter="url(#filter0_d_7049_5840)">
<mask id="path-2-inside-1_7049_5840" fill="white">
<path d="M7.04333 32.6331L16.7674 41V49C16.7674 53.9706 20.7968 58 25.7674 58L196.035 58C201.005 58 205.035 53.9706 205.035 49V11C205.035 6.02944 201.005 2 196.035 2L25.7674 2C20.7968 2 16.7674 6.02944 16.7674 11V20.5L7.15555 27.9931C5.66179 29.1575 5.60761 31.3978 7.04333 32.6331Z"/>
</mask>
<path d="M7.04333 32.6331L16.7674 41V49C16.7674 53.9706 20.7968 58 25.7674 58L196.035 58C201.005 58 205.035 53.9706 205.035 49V11C205.035 6.02944 201.005 2 196.035 2L25.7674 2C20.7968 2 16.7674 6.02944 16.7674 11V20.5L7.15555 27.9931C5.66179 29.1575 5.60761 31.3978 7.04333 32.6331Z" fill="white"/>
<path d="M16.7674 41H18.1674V40.3577L17.6805 39.9388L16.7674 41ZM7.04333 32.6331L6.13021 33.6944H6.13021L7.04333 32.6331ZM7.15555 27.9931L8.0163 29.0972L8.0163 29.0972L7.15555 27.9931ZM16.7674 20.5L17.6281 21.6041L18.1674 21.1838V20.5H16.7674ZM25.7674 2V0.6V2ZM196.035 2V3.4V2ZM17.6805 39.9388L7.95644 31.5719L6.13021 33.6944L15.8542 42.0612L17.6805 39.9388ZM8.0163 29.0972L17.6281 21.6041L15.9066 19.3959L6.2948 26.8889L8.0163 29.0972ZM7.95644 31.5719C7.19073 30.9131 7.21963 29.7183 8.0163 29.0972L6.2948 26.8889C4.10396 28.5968 4.02449 31.8825 6.13021 33.6944L7.95644 31.5719ZM25.7674 3.4L196.035 3.4V0.600003L25.7674 0.6V3.4ZM203.635 11V49H206.435V11H203.635ZM196.035 56.6L25.7674 56.6V59.4L196.035 59.4V56.6ZM18.1674 20.5V11H15.3674V20.5H18.1674ZM18.1674 49V41H15.3674V49H18.1674ZM25.7674 56.6C21.57 56.6 18.1674 53.1974 18.1674 49H15.3674C15.3674 54.7438 20.0236 59.4 25.7674 59.4V56.6ZM203.635 49C203.635 53.1974 200.232 56.6 196.035 56.6V59.4C201.778 59.4 206.435 54.7438 206.435 49H203.635ZM196.035 3.4C200.232 3.4 203.635 6.80264 203.635 11H206.435C206.435 5.25624 201.778 0.600003 196.035 0.600003V3.4ZM25.7674 0.6C20.0236 0.6 15.3674 5.25624 15.3674 11H18.1674C18.1674 6.80264 21.57 3.4 25.7674 3.4V0.6Z" fill="#333333" mask="url(#path-2-inside-1_7049_5840)"/>
</g>
<g filter="url(#filter1_d_7049_5840)">
<path d="M38.168 25.192C37.336 25.192 36.592 25 35.936 24.616C35.28 24.232 34.7627 23.656 34.384 22.888C34.0053 22.1147 33.816 21.1493 33.816 19.992C33.816 18.8187 34.0053 17.848 34.384 17.08C34.7627 16.3067 35.28 15.7307 35.936 15.352C36.592 14.968 37.336 14.776 38.168 14.776C39 14.776 39.744 14.968 40.4 15.352C41.056 15.736 41.5733 16.3147 41.952 17.088C42.3307 17.8613 42.52 18.8293 42.52 19.992C42.52 21.16 42.3307 22.1307 41.952 22.904C41.5733 23.672 41.056 24.2453 40.4 24.624C39.744 25.0027 39 25.192 38.168 25.192ZM38.168 24.04C39.112 24.04 39.856 23.696 40.4 23.008C40.9493 22.32 41.224 21.3093 41.224 19.976C41.224 18.6693 40.9493 17.664 40.4 16.96C39.856 16.2507 39.112 15.896 38.168 15.896C37.2347 15.896 36.4907 16.2507 35.936 16.96C35.3867 17.6693 35.112 18.68 35.112 19.992C35.112 21.32 35.3867 22.328 35.936 23.016C36.4907 23.6987 37.2347 24.04 38.168 24.04ZM50.8801 14.952H52.6081L46.1921 21.56V19.8L50.8801 14.952ZM48.0001 19.192L52.8801 25H51.2481L47.1041 20.008L48.0001 19.192ZM45.1041 14.952H46.3681V25H45.1041V14.952ZM55.1109 22.184L54.9509 14.984H56.2789L56.1189 22.184H55.1109ZM55.6149 25.144C55.3429 25.144 55.1189 25.0587 54.9429 24.888C54.7669 24.7173 54.6789 24.504 54.6789 24.248C54.6789 23.9973 54.7669 23.784 54.9429 23.608C55.1189 23.4267 55.3429 23.336 55.6149 23.336C55.8815 23.336 56.1055 23.4267 56.2869 23.608C56.4735 23.784 56.5669 23.9973 56.5669 24.248C56.5669 24.504 56.4735 24.7173 56.2869 24.888C56.1055 25.0587 55.8815 25.144 55.6149 25.144ZM62.0652 14.952H63.5692L66.4492 19.832H66.1292L69.0572 14.952H70.5452L66.9132 20.872V25H65.6492V20.872L62.0652 14.952ZM74.1996 25.192C73.5116 25.192 72.8983 25.04 72.3596 24.736C71.8263 24.432 71.405 23.9813 71.0956 23.384C70.7863 22.7867 70.6316 22.0507 70.6316 21.176C70.6316 20.296 70.7863 19.56 71.0956 18.968C71.405 18.3707 71.8263 17.92 72.3596 17.616C72.8983 17.312 73.5116 17.16 74.1996 17.16C74.8823 17.16 75.4903 17.312 76.0236 17.616C76.5623 17.92 76.9836 18.3707 77.2876 18.968C77.597 19.56 77.7516 20.296 77.7516 21.176C77.7516 22.0507 77.597 22.7867 77.2876 23.384C76.9836 23.9813 76.5623 24.432 76.0236 24.736C75.4903 25.04 74.8823 25.192 74.1996 25.192ZM74.1676 24.104C74.6636 24.104 75.085 23.9867 75.4316 23.752C75.7783 23.512 76.0396 23.1733 76.2156 22.736C76.397 22.2987 76.4876 21.7787 76.4876 21.176C76.4876 20.264 76.2983 19.5467 75.9196 19.024C75.541 18.496 74.9783 18.232 74.2316 18.232C73.7303 18.232 73.3063 18.352 72.9596 18.592C72.6183 18.8267 72.357 19.1653 72.1756 19.608C71.9996 20.0453 71.9116 20.568 71.9116 21.176C71.9116 22.0773 72.101 22.792 72.4796 23.32C72.8636 23.8427 73.4263 24.104 74.1676 24.104ZM85.5416 17.336H86.7896V25H85.5416V17.336ZM80.1176 17.336H81.3656V22.104C81.3656 22.744 81.5203 23.2293 81.8296 23.56C82.1443 23.8907 82.5923 24.056 83.1736 24.056C83.6536 24.056 84.0696 23.928 84.4216 23.672C84.779 23.416 85.0536 23.064 85.2456 22.616C85.443 22.1627 85.5416 21.6453 85.5416 21.064H86.0056C86.0056 21.9227 85.8803 22.656 85.6296 23.264C85.3843 23.872 85.035 24.3387 84.5816 24.664C84.1336 24.984 83.6056 25.144 82.9976 25.144C82.4216 25.144 81.9176 25.0373 81.4856 24.824C81.0536 24.6107 80.7176 24.288 80.4776 23.856C80.2376 23.4187 80.1176 22.8667 80.1176 22.2V17.336ZM104.898 25V20.504C104.898 19.7733 104.722 19.2187 104.37 18.84C104.023 18.456 103.554 18.264 102.962 18.264C102.269 18.264 101.738 18.5333 101.37 19.072C101.002 19.6053 100.818 20.344 100.818 21.288H100.242C100.242 20.6 100.309 19.9973 100.442 19.48C100.581 18.9627 100.781 18.5333 101.042 18.192C101.303 17.8453 101.621 17.5867 101.994 17.416C102.367 17.2453 102.791 17.16 103.266 17.16C103.869 17.16 104.383 17.296 104.81 17.568C105.242 17.8347 105.573 18.2187 105.802 18.72C106.031 19.2213 106.146 19.816 106.146 20.504V25H104.898ZM94.146 25V17.352H95.218L95.362 18.888C95.602 18.3333 95.938 17.9067 96.37 17.608C96.8073 17.3093 97.33 17.16 97.938 17.16C98.5407 17.16 99.0553 17.296 99.482 17.568C99.914 17.8347 100.245 18.2187 100.474 18.72C100.703 19.2213 100.818 19.816 100.818 20.504V25H99.586V20.504C99.586 19.7733 99.41 19.2187 99.058 18.84C98.7113 18.456 98.2367 18.264 97.634 18.264C97.1753 18.264 96.778 18.3893 96.442 18.64C96.106 18.8907 95.8473 19.2507 95.666 19.72C95.4847 20.184 95.394 20.7387 95.394 21.384V25H94.146ZM112.043 25.192C111.355 25.192 110.741 25.04 110.203 24.736C109.669 24.432 109.248 23.9813 108.939 23.384C108.629 22.7867 108.475 22.0507 108.475 21.176C108.475 20.296 108.629 19.56 108.939 18.968C109.248 18.3707 109.669 17.92 110.203 17.616C110.741 17.312 111.355 17.16 112.043 17.16C112.725 17.16 113.333 17.312 113.867 17.616C114.405 17.92 114.827 18.3707 115.131 18.968C115.44 19.56 115.595 20.296 115.595 21.176C115.595 22.0507 115.44 22.7867 115.131 23.384C114.827 23.9813 114.405 24.432 113.867 24.736C113.333 25.04 112.725 25.192 112.043 25.192ZM112.011 24.104C112.507 24.104 112.928 23.9867 113.275 23.752C113.621 23.512 113.883 23.1733 114.059 22.736C114.24 22.2987 114.331 21.7787 114.331 21.176C114.331 20.264 114.141 19.5467 113.763 19.024C113.384 18.496 112.821 18.232 112.075 18.232C111.573 18.232 111.149 18.352 110.803 18.592C110.461 18.8267 110.2 19.1653 110.019 19.608C109.843 20.0453 109.755 20.568 109.755 21.176C109.755 22.0773 109.944 22.792 110.323 23.32C110.707 23.8427 111.269 24.104 112.011 24.104ZM116.857 17.352H118.281L120.681 23.928H120.505L122.905 17.352H124.329L121.273 25H119.913L116.857 17.352ZM129.048 25.192C128.386 25.192 127.794 25.024 127.272 24.688C126.754 24.3467 126.344 23.8747 126.04 23.272C125.741 22.6693 125.592 21.976 125.592 21.192C125.592 20.3547 125.741 19.6347 126.04 19.032C126.338 18.4293 126.746 17.968 127.264 17.648C127.786 17.3227 128.381 17.16 129.048 17.16C129.629 17.16 130.125 17.2773 130.536 17.512C130.946 17.7467 131.277 18.064 131.528 18.464C131.778 18.864 131.952 19.3173 132.048 19.824C132.149 20.3253 132.178 20.8453 132.136 21.384H126.6V20.616H131.312L130.944 20.856C130.96 20.5413 130.941 20.2267 130.888 19.912C130.84 19.5973 130.746 19.3093 130.608 19.048C130.469 18.7813 130.274 18.568 130.024 18.408C129.773 18.248 129.453 18.168 129.064 18.168C128.573 18.168 128.162 18.2933 127.832 18.544C127.501 18.7947 127.253 19.1253 127.088 19.536C126.922 19.9413 126.84 20.3813 126.84 20.856V21.368C126.84 21.9013 126.92 22.3787 127.08 22.8C127.245 23.2213 127.49 23.5547 127.816 23.8C128.141 24.0453 128.552 24.168 129.048 24.168C129.544 24.168 129.952 24.048 130.272 23.808C130.592 23.568 130.786 23.2133 130.856 22.744H132.152C132.072 23.2507 131.89 23.688 131.608 24.056C131.325 24.4187 130.965 24.6987 130.528 24.896C130.09 25.0933 129.597 25.192 129.048 25.192ZM137.506 25.192C136.888 25.192 136.32 25.0267 135.802 24.696C135.285 24.36 134.872 23.8907 134.562 23.288C134.253 22.68 134.098 21.9653 134.098 21.144C134.098 20.328 134.25 19.6213 134.554 19.024C134.858 18.4267 135.261 17.968 135.762 17.648C136.269 17.3227 136.824 17.16 137.426 17.16C137.986 17.16 138.477 17.296 138.898 17.568C139.325 17.84 139.656 18.232 139.89 18.744C140.125 19.256 140.242 19.8747 140.242 20.6H139.762C139.762 20.0933 139.661 19.6667 139.458 19.32C139.261 18.9733 139.002 18.712 138.682 18.536C138.362 18.3547 138.018 18.264 137.65 18.264C137.234 18.264 136.853 18.3813 136.506 18.616C136.165 18.8453 135.89 19.176 135.682 19.608C135.48 20.0347 135.378 20.5467 135.378 21.144C135.378 21.752 135.48 22.2747 135.682 22.712C135.89 23.1493 136.165 23.4853 136.506 23.72C136.853 23.9547 137.234 24.072 137.65 24.072C137.997 24.072 138.33 23.9813 138.65 23.8C138.976 23.6187 139.242 23.3547 139.45 23.008C139.658 22.656 139.762 22.232 139.762 21.736H140.242C140.242 22.4773 140.12 23.1067 139.874 23.624C139.634 24.136 139.306 24.5253 138.89 24.792C138.48 25.0587 138.018 25.192 137.506 25.192ZM139.97 25L139.762 23.208V14.088H141.01V25H139.97ZM150.724 25.192C150.308 25.192 149.934 25.112 149.604 24.952C149.273 24.792 149.012 24.552 148.82 24.232C148.628 23.912 148.532 23.512 148.532 23.032V15.224H149.764V23C149.764 23.7893 150.132 24.184 150.868 24.184C151.086 24.184 151.297 24.16 151.5 24.112C151.708 24.064 151.94 23.992 152.196 23.896L152.372 24.792C152.1 24.9093 151.828 25.0053 151.556 25.08C151.289 25.1547 151.012 25.192 150.724 25.192ZM147.3 18.216V17.352H152.18V18.216H147.3ZM157.315 25.192C156.627 25.192 156.014 25.04 155.475 24.736C154.942 24.432 154.521 23.9813 154.211 23.384C153.902 22.7867 153.747 22.0507 153.747 21.176C153.747 20.296 153.902 19.56 154.211 18.968C154.521 18.3707 154.942 17.92 155.475 17.616C156.014 17.312 156.627 17.16 157.315 17.16C157.998 17.16 158.606 17.312 159.139 17.616C159.678 17.92 160.099 18.3707 160.403 18.968C160.713 19.56 160.867 20.296 160.867 21.176C160.867 22.0507 160.713 22.7867 160.403 23.384C160.099 23.9813 159.678 24.432 159.139 24.736C158.606 25.04 157.998 25.192 157.315 25.192ZM157.283 24.104C157.779 24.104 158.201 23.9867 158.547 23.752C158.894 23.512 159.155 23.1733 159.331 22.736C159.513 22.2987 159.603 21.7787 159.603 21.176C159.603 20.264 159.414 19.5467 159.035 19.024C158.657 18.496 158.094 18.232 157.347 18.232C156.846 18.232 156.422 18.352 156.075 18.592C155.734 18.8267 155.473 19.1653 155.291 19.608C155.115 20.0453 155.027 20.568 155.027 21.176C155.027 22.0773 155.217 22.792 155.595 23.32C155.979 23.8427 156.542 24.104 157.283 24.104ZM169.766 25.192C169.35 25.192 168.977 25.112 168.646 24.952C168.315 24.792 168.054 24.552 167.862 24.232C167.67 23.912 167.574 23.512 167.574 23.032V15.224H168.806V23C168.806 23.7893 169.174 24.184 169.91 24.184C170.129 24.184 170.339 24.16 170.542 24.112C170.75 24.064 170.982 23.992 171.238 23.896L171.414 24.792C171.142 24.9093 170.87 25.0053 170.598 25.08C170.331 25.1547 170.054 25.192 169.766 25.192ZM166.342 18.216V17.352H171.222V18.216H166.342ZM179.03 25V20.504C179.03 19.7733 178.854 19.2187 178.502 18.84C178.155 18.456 177.68 18.264 177.078 18.264C176.619 18.264 176.222 18.3893 175.886 18.64C175.55 18.8907 175.291 19.2507 175.11 19.72C174.928 20.184 174.838 20.7387 174.838 21.384H174.358C174.358 20.4933 174.475 19.7333 174.71 19.104C174.944 18.4747 175.286 17.9947 175.734 17.664C176.187 17.328 176.736 17.16 177.382 17.16C177.984 17.16 178.499 17.296 178.926 17.568C179.358 17.8347 179.688 18.2187 179.918 18.72C180.147 19.2213 180.262 19.816 180.262 20.504V25H179.03ZM173.59 25V14.088H174.838V25H173.59ZM186.062 25.192C185.401 25.192 184.809 25.024 184.286 24.688C183.769 24.3467 183.358 23.8747 183.054 23.272C182.755 22.6693 182.606 21.976 182.606 21.192C182.606 20.3547 182.755 19.6347 183.054 19.032C183.353 18.4293 183.761 17.968 184.278 17.648C184.801 17.3227 185.395 17.16 186.062 17.16C186.643 17.16 187.139 17.2773 187.55 17.512C187.961 17.7467 188.291 18.064 188.542 18.464C188.793 18.864 188.966 19.3173 189.062 19.824C189.163 20.3253 189.193 20.8453 189.15 21.384H183.614V20.616H188.326L187.958 20.856C187.974 20.5413 187.955 20.2267 187.902 19.912C187.854 19.5973 187.761 19.3093 187.622 19.048C187.483 18.7813 187.289 18.568 187.038 18.408C186.787 18.248 186.467 18.168 186.078 18.168C185.587 18.168 185.177 18.2933 184.846 18.544C184.515 18.7947 184.267 19.1253 184.102 19.536C183.937 19.9413 183.854 20.3813 183.854 20.856V21.368C183.854 21.9013 183.934 22.3787 184.094 22.8C184.259 23.2213 184.505 23.5547 184.83 23.8C185.155 24.0453 185.566 24.168 186.062 24.168C186.558 24.168 186.966 24.048 187.286 23.808C187.606 23.568 187.801 23.2133 187.87 22.744H189.166C189.086 23.2507 188.905 23.688 188.622 24.056C188.339 24.4187 187.979 24.6987 187.542 24.896C187.105 25.0933 186.611 25.192 186.062 25.192ZM34.616 45V37.336H35.864V45H34.616ZM35.48 41.544C35.48 40.5733 35.5733 39.768 35.76 39.128C35.9467 38.4827 36.2187 38.0027 36.576 37.688C36.9387 37.368 37.3787 37.208 37.896 37.208C38.0667 37.208 38.2213 37.2213 38.36 37.248C38.504 37.2693 38.648 37.304 38.792 37.352L38.712 38.584C38.5627 38.536 38.4 38.496 38.224 38.464C38.048 38.4267 37.8907 38.408 37.752 38.408C37.2987 38.408 36.9333 38.5387 36.656 38.8C36.3787 39.056 36.176 39.4187 36.048 39.888C35.9253 40.3573 35.864 40.9093 35.864 41.544H35.48ZM43.2133 45.192C42.5519 45.192 41.9599 45.024 41.4372 44.688C40.9199 44.3467 40.5092 43.8747 40.2052 43.272C39.9066 42.6693 39.7572 41.976 39.7572 41.192C39.7572 40.3547 39.9066 39.6347 40.2052 39.032C40.5039 38.4293 40.9119 37.968 41.4293 37.648C41.9519 37.3227 42.5466 37.16 43.2133 37.16C43.7946 37.16 44.2906 37.2773 44.7013 37.512C45.1119 37.7467 45.4426 38.064 45.6933 38.464C45.9439 38.864 46.1173 39.3173 46.2133 39.824C46.3146 40.3253 46.3439 40.8453 46.3012 41.384H40.7652V40.616H45.4773L45.1093 40.856C45.1253 40.5413 45.1066 40.2267 45.0533 39.912C45.0053 39.5973 44.9119 39.3093 44.7733 39.048C44.6346 38.7813 44.4399 38.568 44.1892 38.408C43.9386 38.248 43.6186 38.168 43.2292 38.168C42.7386 38.168 42.3279 38.2933 41.9973 38.544C41.6666 38.7947 41.4186 39.1253 41.2532 39.536C41.0879 39.9413 41.0052 40.3813 41.0052 40.856V41.368C41.0052 41.9013 41.0852 42.3787 41.2452 42.8C41.4106 43.2213 41.6559 43.5547 41.9813 43.8C42.3066 44.0453 42.7173 44.168 43.2133 44.168C43.7093 44.168 44.1173 44.048 44.4373 43.808C44.7573 43.568 44.9519 43.2133 45.0213 42.744H46.3173C46.2373 43.2507 46.0559 43.688 45.7733 44.056C45.4906 44.4187 45.1306 44.6987 44.6933 44.896C44.2559 45.0933 43.7626 45.192 43.2133 45.192ZM51.592 45.192C50.984 45.192 50.416 45.032 49.888 44.712C49.3653 44.392 48.9413 43.9307 48.616 43.328C48.296 42.7253 48.136 42.0027 48.136 41.16C48.136 40.328 48.296 39.6133 48.616 39.016C48.936 38.4187 49.3547 37.96 49.872 37.64C50.3947 37.32 50.952 37.16 51.544 37.16C52.0667 37.16 52.5387 37.288 52.96 37.544C53.3867 37.8 53.7227 38.1813 53.968 38.688C54.2187 39.1893 54.344 39.8107 54.344 40.552H53.8C53.8 40.056 53.7013 39.64 53.504 39.304C53.3067 38.9627 53.048 38.704 52.728 38.528C52.408 38.352 52.0667 38.264 51.704 38.264C51.288 38.264 50.9067 38.3787 50.56 38.608C50.2133 38.8373 49.936 39.168 49.728 39.6C49.52 40.032 49.416 40.552 49.416 41.16C49.416 41.7947 49.5253 42.328 49.744 42.76C49.968 43.192 50.256 43.52 50.608 43.744C50.96 43.9627 51.3307 44.072 51.72 44.072C52.072 44.072 52.4053 43.9893 52.72 43.824C53.04 43.6587 53.2987 43.4133 53.496 43.088C53.6987 42.7627 53.8 42.36 53.8 41.88H54.168C54.168 42.5413 54.0693 43.12 53.872 43.616C53.6747 44.112 53.384 44.4987 53 44.776C52.616 45.0533 52.1467 45.192 51.592 45.192ZM55.784 48.936C55.0587 48.7333 54.5467 48.4213 54.248 48C53.9493 47.5787 53.8 46.984 53.8 46.216V39.144L54.184 37.352H55.032V46.296C55.032 46.6587 55.0667 46.944 55.136 47.152C55.2053 47.36 55.3253 47.5227 55.496 47.64C55.6667 47.7627 55.9013 47.8747 56.2 47.976L55.784 48.936ZM63.6554 37.336H64.9034V45H63.6554V37.336ZM58.2314 37.336H59.4794V42.104C59.4794 42.744 59.634 43.2293 59.9434 43.56C60.258 43.8907 60.706 44.056 61.2874 44.056C61.7674 44.056 62.1834 43.928 62.5354 43.672C62.8927 43.416 63.1674 43.064 63.3594 42.616C63.5567 42.1627 63.6554 41.6453 63.6554 41.064H64.1194C64.1194 41.9227 63.994 42.656 63.7434 43.264C63.498 43.872 63.1487 44.3387 62.6954 44.664C62.2474 44.984 61.7194 45.144 61.1114 45.144C60.5354 45.144 60.0314 45.0373 59.5994 44.824C59.1674 44.6107 58.8314 44.288 58.5914 43.856C58.3514 43.4187 58.2314 42.8667 58.2314 42.2V37.336ZM70.9589 45.192C70.2975 45.192 69.7055 45.024 69.1829 44.688C68.6655 44.3467 68.2549 43.8747 67.9509 43.272C67.6522 42.6693 67.5029 41.976 67.5029 41.192C67.5029 40.3547 67.6522 39.6347 67.9509 39.032C68.2495 38.4293 68.6575 37.968 69.1749 37.648C69.6975 37.3227 70.2922 37.16 70.9589 37.16C71.5402 37.16 72.0362 37.2773 72.4469 37.512C72.8575 37.7467 73.1882 38.064 73.4389 38.464C73.6895 38.864 73.8629 39.3173 73.9589 39.824C74.0602 40.3253 74.0895 40.8453 74.0469 41.384H68.5109V40.616H73.2229L72.8549 40.856C72.8709 40.5413 72.8522 40.2267 72.7989 39.912C72.7509 39.5973 72.6575 39.3093 72.5189 39.048C72.3802 38.7813 72.1855 38.568 71.9349 38.408C71.6842 38.248 71.3642 38.168 70.9749 38.168C70.4842 38.168 70.0735 38.2933 69.7429 38.544C69.4122 38.7947 69.1642 39.1253 68.9989 39.536C68.8335 39.9413 68.7509 40.3813 68.7509 40.856V41.368C68.7509 41.9013 68.8309 42.3787 68.9909 42.8C69.1562 43.2213 69.4015 43.5547 69.7269 43.8C70.0522 44.0453 70.4629 44.168 70.9589 44.168C71.4549 44.168 71.8629 44.048 72.1829 43.808C72.5029 43.568 72.6975 43.2133 72.7669 42.744H74.0629C73.9829 43.2507 73.8015 43.688 73.5189 44.056C73.2362 44.4187 72.8762 44.6987 72.4389 44.896C72.0015 45.0933 71.5082 45.192 70.9589 45.192ZM79.4336 45.192C78.6923 45.192 78.0736 45.088 77.5776 44.88C77.0816 44.6667 76.7056 44.376 76.4496 44.008C76.1936 43.6347 76.0576 43.208 76.0416 42.728H77.2416C77.2683 43.2133 77.463 43.5787 77.8256 43.824C78.1936 44.064 78.6923 44.184 79.3216 44.184C79.6523 44.184 79.9563 44.1307 80.2336 44.024C80.511 43.9173 80.7323 43.7707 80.8976 43.584C81.063 43.3973 81.1456 43.1867 81.1456 42.952C81.1456 42.6533 81.0363 42.4187 80.8176 42.248C80.599 42.0773 80.2496 41.928 79.7696 41.8L78.2816 41.32C77.6363 41.1173 77.1403 40.84 76.7936 40.488C76.4523 40.1307 76.2816 39.704 76.2816 39.208C76.2816 38.5893 76.5536 38.0933 77.0976 37.72C77.6416 37.3467 78.3563 37.16 79.2416 37.16C80.1803 37.16 80.9083 37.352 81.4256 37.736C81.943 38.12 82.2123 38.6 82.2336 39.176H81.0016C80.9536 38.84 80.783 38.5867 80.4896 38.416C80.1963 38.24 79.7803 38.152 79.2416 38.152C78.7243 38.152 78.319 38.2693 78.0256 38.504C77.7376 38.7333 77.5936 38.9893 77.5936 39.272C77.5936 39.8 78.047 40.1893 78.9536 40.44L80.4736 40.952C81.1296 41.1493 81.631 41.408 81.9776 41.728C82.3296 42.048 82.5056 42.456 82.5056 42.952C82.5056 43.336 82.3803 43.6987 82.1296 44.04C81.879 44.3813 81.5243 44.6587 81.0656 44.872C80.607 45.0853 80.063 45.192 79.4336 45.192ZM87.5999 45.192C87.1839 45.192 86.8105 45.112 86.4799 44.952C86.1492 44.792 85.8879 44.552 85.6959 44.232C85.5039 43.912 85.4079 43.512 85.4079 43.032V35.224H86.6399V43C86.6399 43.7893 87.0079 44.184 87.7439 44.184C87.9625 44.184 88.1732 44.16 88.3759 44.112C88.5839 44.064 88.8159 43.992 89.0719 43.896L89.2479 44.792C88.9759 44.9093 88.7039 45.0053 88.4319 45.08C88.1652 45.1547 87.8879 45.192 87.5999 45.192ZM84.1759 38.216V37.352H89.0559V38.216H84.1759ZM94.0795 45.192C93.4182 45.192 92.8262 45.024 92.3035 44.688C91.7862 44.3467 91.3755 43.8747 91.0715 43.272C90.7728 42.6693 90.6235 41.976 90.6235 41.192C90.6235 40.3547 90.7728 39.6347 91.0715 39.032C91.3702 38.4293 91.7782 37.968 92.2955 37.648C92.8182 37.3227 93.4128 37.16 94.0795 37.16C94.6608 37.16 95.1568 37.2773 95.5675 37.512C95.9782 37.7467 96.3088 38.064 96.5595 38.464C96.8102 38.864 96.9835 39.3173 97.0795 39.824C97.1808 40.3253 97.2102 40.8453 97.1675 41.384H91.6315V40.616H96.3435L95.9755 40.856C95.9915 40.5413 95.9728 40.2267 95.9195 39.912C95.8715 39.5973 95.7782 39.3093 95.6395 39.048C95.5008 38.7813 95.3062 38.568 95.0555 38.408C94.8048 38.248 94.4848 38.168 94.0955 38.168C93.6048 38.168 93.1942 38.2933 92.8635 38.544C92.5328 38.7947 92.2848 39.1253 92.1195 39.536C91.9542 39.9413 91.8715 40.3813 91.8715 40.856V41.368C91.8715 41.9013 91.9515 42.3787 92.1115 42.8C92.2768 43.2213 92.5222 43.5547 92.8475 43.8C93.1728 44.0453 93.5835 44.168 94.0795 44.168C94.5755 44.168 94.9835 44.048 95.3035 43.808C95.6235 43.568 95.8182 43.2133 95.8875 42.744H97.1835C97.1035 43.2507 96.9222 43.688 96.6395 44.056C96.3568 44.4187 95.9968 44.6987 95.5595 44.896C95.1222 45.0933 94.6288 45.192 94.0795 45.192ZM102.538 45.192C101.92 45.192 101.352 45.0267 100.834 44.696C100.317 44.36 99.9036 43.8907 99.5942 43.288C99.2849 42.68 99.1302 41.9653 99.1302 41.144C99.1302 40.328 99.2822 39.6213 99.5862 39.024C99.8902 38.4267 100.293 37.968 100.794 37.648C101.301 37.3227 101.856 37.16 102.458 37.16C103.018 37.16 103.509 37.296 103.93 37.568C104.357 37.84 104.688 38.232 104.922 38.744C105.157 39.256 105.274 39.8747 105.274 40.6H104.794C104.794 40.0933 104.693 39.6667 104.49 39.32C104.293 38.9733 104.034 38.712 103.714 38.536C103.394 38.3547 103.05 38.264 102.682 38.264C102.266 38.264 101.885 38.3813 101.538 38.616C101.197 38.8453 100.922 39.176 100.714 39.608C100.512 40.0347 100.41 40.5467 100.41 41.144C100.41 41.752 100.512 42.2747 100.714 42.712C100.922 43.1493 101.197 43.4853 101.538 43.72C101.885 43.9547 102.266 44.072 102.682 44.072C103.029 44.072 103.362 43.9813 103.682 43.8C104.008 43.6187 104.274 43.3547 104.482 43.008C104.69 42.656 104.794 42.232 104.794 41.736H105.274C105.274 42.4773 105.152 43.1067 104.906 43.624C104.666 44.136 104.338 44.5253 103.922 44.792C103.512 45.0587 103.05 45.192 102.538 45.192ZM105.002 45L104.794 43.208V34.088H106.042V45H105.002ZM116.875 45.192C116.315 45.192 115.827 45.064 115.411 44.808C115.001 44.552 114.683 44.1787 114.459 43.688C114.235 43.192 114.123 42.5893 114.123 41.88H114.651C114.651 42.3547 114.75 42.7547 114.947 43.08C115.145 43.4053 115.401 43.6533 115.715 43.824C116.035 43.9893 116.374 44.072 116.731 44.072C117.115 44.072 117.483 43.9627 117.835 43.744C118.187 43.52 118.475 43.192 118.699 42.76C118.923 42.328 119.035 41.7947 119.035 41.16C119.035 40.552 118.931 40.032 118.723 39.6C118.521 39.168 118.246 38.8373 117.899 38.608C117.553 38.3787 117.169 38.264 116.747 38.264C116.385 38.264 116.043 38.352 115.723 38.528C115.403 38.704 115.145 38.9627 114.947 39.304C114.75 39.64 114.651 40.056 114.651 40.552H114.123C114.123 39.8107 114.246 39.1893 114.491 38.688C114.737 38.1813 115.07 37.8 115.491 37.544C115.913 37.288 116.385 37.16 116.907 37.16C117.505 37.16 118.062 37.32 118.579 37.64C119.097 37.96 119.515 38.4187 119.835 39.016C120.155 39.6133 120.315 40.328 120.315 41.16C120.315 42.0027 120.153 42.7253 119.827 43.328C119.507 43.9307 119.086 44.392 118.563 44.712C118.041 45.032 117.478 45.192 116.875 45.192ZM113.403 48.76V37.352H114.443L114.651 39.144V48.76H113.403ZM127.659 45L127.499 43.32V40.04C127.499 39.352 127.352 38.8587 127.059 38.56C126.766 38.256 126.326 38.104 125.739 38.104C125.408 38.104 125.107 38.152 124.835 38.248C124.568 38.344 124.355 38.4933 124.195 38.696C124.04 38.8933 123.963 39.1493 123.963 39.464H122.571C122.571 38.9093 122.707 38.464 122.979 38.128C123.251 37.7867 123.624 37.5413 124.099 37.392C124.579 37.2373 125.126 37.16 125.739 37.16C126.326 37.16 126.846 37.2587 127.299 37.456C127.752 37.6533 128.107 37.968 128.363 38.4C128.619 38.8267 128.747 39.384 128.747 40.072V45H127.659ZM125.051 45.192C124.422 45.192 123.902 45.08 123.491 44.856C123.08 44.632 122.774 44.3413 122.571 43.984C122.368 43.6267 122.267 43.2507 122.267 42.856C122.267 42.3387 122.395 41.9173 122.651 41.592C122.912 41.2667 123.267 41.0293 123.715 40.88C124.163 40.7253 124.667 40.648 125.227 40.648C125.627 40.648 126.027 40.688 126.427 40.768C126.832 40.848 127.227 40.9573 127.611 41.096V41.88C127.291 41.752 126.928 41.6507 126.523 41.576C126.123 41.5013 125.755 41.464 125.419 41.464C124.907 41.464 124.475 41.5707 124.123 41.784C123.771 41.992 123.595 42.3493 123.595 42.856C123.595 43.2293 123.728 43.5493 123.995 43.816C124.267 44.0827 124.699 44.216 125.291 44.216C125.707 44.216 126.08 44.12 126.411 43.928C126.747 43.7307 127.011 43.4853 127.203 43.192C127.4 42.8987 127.499 42.6053 127.499 42.312H127.803C127.803 42.824 127.691 43.2987 127.467 43.736C127.248 44.1733 126.934 44.5253 126.523 44.792C126.112 45.0587 125.622 45.192 125.051 45.192ZM134.599 48.936C133.815 48.936 133.135 48.824 132.559 48.6C131.983 48.3813 131.535 48.0853 131.215 47.712C130.901 47.344 130.743 46.936 130.743 46.488C130.743 45.896 130.959 45.4427 131.391 45.128C131.829 44.8187 132.391 44.664 133.079 44.664L133.767 45.096C133.191 45.096 132.746 45.216 132.431 45.456C132.117 45.696 131.959 46.024 131.959 46.44C131.959 46.856 132.183 47.208 132.631 47.496C133.079 47.784 133.735 47.928 134.599 47.928C135.239 47.928 135.799 47.8347 136.279 47.648C136.765 47.4667 137.141 47.2267 137.407 46.928C137.679 46.6347 137.815 46.3173 137.815 45.976C137.815 45.736 137.727 45.528 137.551 45.352C137.375 45.1813 137.106 45.096 136.743 45.096H133.767C133.25 45.096 132.802 45.0187 132.423 44.864C132.05 44.704 131.762 44.496 131.559 44.24C131.357 43.984 131.255 43.704 131.255 43.4C131.255 43.08 131.346 42.808 131.527 42.584C131.709 42.36 131.943 42.1893 132.231 42.072C132.525 41.9547 132.839 41.896 133.175 41.896L133.415 42.36C133.255 42.36 133.093 42.3973 132.927 42.472C132.767 42.5413 132.631 42.648 132.519 42.792C132.413 42.9307 132.359 43.1067 132.359 43.32C132.359 43.5653 132.461 43.7707 132.663 43.936C132.866 44.1013 133.234 44.184 133.767 44.184H136.743C137.463 44.184 138.029 44.336 138.439 44.64C138.855 44.944 139.063 45.368 139.063 45.912C139.063 46.4133 138.885 46.8933 138.527 47.352C138.17 47.816 137.658 48.1947 136.991 48.488C136.325 48.7867 135.527 48.936 134.599 48.936ZM134.823 42.76C134.237 42.76 133.706 42.6427 133.231 42.408C132.762 42.1733 132.389 41.8453 132.111 41.424C131.839 41.0027 131.703 40.5147 131.703 39.96C131.703 39.4 131.839 38.9093 132.111 38.488C132.389 38.0667 132.762 37.7413 133.231 37.512C133.706 37.2773 134.237 37.16 134.823 37.16C135.394 37.16 135.911 37.2773 136.375 37.512C136.845 37.7413 137.218 38.0667 137.495 38.488C137.773 38.9093 137.911 39.4 137.911 39.96C137.911 40.5147 137.773 41.0027 137.495 41.424C137.218 41.8453 136.845 42.1733 136.375 42.408C135.911 42.6427 135.394 42.76 134.823 42.76ZM134.823 41.864C135.41 41.864 135.866 41.6827 136.191 41.32C136.517 40.9573 136.679 40.504 136.679 39.96C136.679 39.4 136.517 38.9467 136.191 38.6C135.866 38.248 135.41 38.072 134.823 38.072C134.242 38.072 133.783 38.248 133.447 38.6C133.117 38.9467 132.951 39.4 132.951 39.96C132.951 40.504 133.117 40.9573 133.447 41.32C133.783 41.6827 134.242 41.864 134.823 41.864ZM137.335 38.376L136.743 38.136C136.743 37.688 136.831 37.296 137.007 36.96C137.183 36.6187 137.434 36.3547 137.759 36.168C138.085 35.976 138.471 35.88 138.919 35.88L138.823 37.112C138.343 37.112 137.975 37.216 137.719 37.424C137.463 37.6267 137.335 37.944 137.335 38.376ZM143.743 45.192C143.081 45.192 142.489 45.024 141.967 44.688C141.449 44.3467 141.039 43.8747 140.735 43.272C140.436 42.6693 140.287 41.976 140.287 41.192C140.287 40.3547 140.436 39.6347 140.735 39.032C141.033 38.4293 141.441 37.968 141.959 37.648C142.481 37.3227 143.076 37.16 143.743 37.16C144.324 37.16 144.82 37.2773 145.231 37.512C145.641 37.7467 145.972 38.064 146.223 38.464C146.473 38.864 146.647 39.3173 146.743 39.824C146.844 40.3253 146.873 40.8453 146.831 41.384H141.295V40.616H146.007L145.639 40.856C145.655 40.5413 145.636 40.2267 145.583 39.912C145.535 39.5973 145.441 39.3093 145.303 39.048C145.164 38.7813 144.969 38.568 144.719 38.408C144.468 38.248 144.148 38.168 143.759 38.168C143.268 38.168 142.857 38.2933 142.527 38.544C142.196 38.7947 141.948 39.1253 141.783 39.536C141.617 39.9413 141.535 40.3813 141.535 40.856V41.368C141.535 41.9013 141.615 42.3787 141.775 42.8C141.94 43.2213 142.185 43.5547 142.511 43.8C142.836 44.0453 143.247 44.168 143.743 44.168C144.239 44.168 144.647 44.048 144.967 43.808C145.287 43.568 145.481 43.2133 145.551 42.744H146.847C146.767 43.2507 146.585 43.688 146.303 44.056C146.02 44.4187 145.66 44.6987 145.223 44.896C144.785 45.0933 144.292 45.192 143.743 45.192ZM148.329 44.256C148.329 44.0053 148.417 43.7893 148.593 43.608C148.769 43.4267 148.991 43.336 149.257 43.336C149.524 43.336 149.751 43.4267 149.937 43.608C150.124 43.7893 150.217 44.0053 150.217 44.256C150.217 44.5067 150.124 44.7173 149.937 44.888C149.751 45.0587 149.524 45.144 149.257 45.144C148.991 45.144 148.769 45.0587 148.593 44.888C148.417 44.712 148.329 44.5013 148.329 44.256Z" fill="#333333"/>
</g>
<defs>
<filter id="filter0_d_7049_5840" x="0" y="0" width="211.035" height="68" filterUnits="userSpaceOnUse" color-interpolation-filters="sRGB">
<feFlood flood-opacity="0" result="BackgroundImageFix"/>
<feColorMatrix in="SourceAlpha" type="matrix" values="0 0 0 0 0 0 0 0 0 0 0 0 0 0 0 0 0 0 127 0" result="hardAlpha"/>
<feOffset dy="4"/>
<feGaussianBlur stdDeviation="3"/>
<feComposite in2="hardAlpha" operator="out"/>
<feColorMatrix type="matrix" values="0 0 0 0 0 0 0 0 0 0 0 0 0 0 0 0 0 0 0.1 0"/>
<feBlend mode="normal" in2="BackgroundImageFix" result="effect1_dropShadow_7049_5840"/>
<feBlend mode="normal" in="SourceGraphic" in2="effect1_dropShadow_7049_5840" result="shape"/>
</filter>
<filter id="filter1_d_7049_5840" x="27.816" y="12.0879" width="167.398" height="46.8477" filterUnits="userSpaceOnUse" color-interpolation-filters="sRGB">
<feFlood flood-opacity="0" result="BackgroundImageFix"/>
<feColorMatrix in="SourceAlpha" type="matrix" values="0 0 0 0 0 0 0 0 0 0 0 0 0 0 0 0 0 0 127 0" result="hardAlpha"/>
<feOffset dy="4"/>
<feGaussianBlur stdDeviation="3"/>
<feComposite in2="hardAlpha" operator="out"/>
<feColorMatrix type="matrix" values="0 0 0 0 0 0 0 0 0 0 0 0 0 0 0 0 0 0 0.05 0"/>
<feBlend mode="normal" in2="BackgroundImageFix" result="effect1_dropShadow_7049_5840"/>
<feBlend mode="normal" in="SourceGraphic" in2="effect1_dropShadow_7049_5840" result="shape"/>
</filter>
</defs>
</svg>
