<svg width="257" height="88" viewBox="0 0 257 88" fill="none" xmlns="http://www.w3.org/2000/svg">
<path d="M7.04333 42.6331L16.7674 51V69C16.7674 73.9706 20.7968 78 25.7674 78L247.035 78C252.005 78 256.035 73.9706 256.035 69V11C256.035 6.02944 252.005 2 247.035 2L25.7674 2C20.7968 2 16.7674 6.02944 16.7674 11L16.7674 30.5L7.15555 37.9931C5.66179 39.1575 5.60761 41.3978 7.04333 42.6331Z" fill="white"/>
<g filter="url(#filter0_d_7069_6424)">
<mask id="path-2-inside-1_7069_6424" fill="white">
<path d="M7.04333 42.6331L16.7674 51V69C16.7674 73.9706 20.7968 78 25.7674 78L214.035 78C219.005 78 223.035 73.9706 223.035 69V11C223.035 6.02944 219.005 2 214.035 2L25.7674 2C20.7968 2 16.7674 6.02944 16.7674 11L16.7674 30.5L7.15555 37.9931C5.66179 39.1575 5.60761 41.3978 7.04333 42.6331Z"/>
</mask>
<path d="M7.04333 42.6331L16.7674 51V69C16.7674 73.9706 20.7968 78 25.7674 78L214.035 78C219.005 78 223.035 73.9706 223.035 69V11C223.035 6.02944 219.005 2 214.035 2L25.7674 2C20.7968 2 16.7674 6.02944 16.7674 11L16.7674 30.5L7.15555 37.9931C5.66179 39.1575 5.60761 41.3978 7.04333 42.6331Z" fill="white"/>
<path d="M16.7674 51H18.1674V50.3577L17.6805 49.9388L16.7674 51ZM7.04333 42.6331L6.13021 43.6944L6.13021 43.6944L7.04333 42.6331ZM7.15555 37.9931L6.2948 36.8889L6.2948 36.8889L7.15555 37.9931ZM16.7674 30.5L17.6281 31.6041L18.1674 31.1838V30.5H16.7674ZM25.7674 2V0.6V2ZM214.035 2V3.4V2ZM17.6805 49.9388L7.95644 41.5719L6.13021 43.6944L15.8542 52.0612L17.6805 49.9388ZM8.0163 39.0972L17.6281 31.6041L15.9066 29.3959L6.2948 36.8889L8.0163 39.0972ZM7.95644 41.5719C7.19073 40.9131 7.21963 39.7183 8.0163 39.0972L6.2948 36.8889C4.10396 38.5968 4.02449 41.8825 6.13021 43.6944L7.95644 41.5719ZM25.7674 3.4L214.035 3.4L214.035 0.600003L25.7674 0.6L25.7674 3.4ZM221.635 11V69H224.435V11H221.635ZM214.035 76.6L25.7674 76.6V79.4L214.035 79.4V76.6ZM18.1674 30.5L18.1674 11H15.3674L15.3674 30.5H18.1674ZM18.1674 69V51H15.3674L15.3674 69H18.1674ZM25.7674 76.6C21.57 76.6 18.1674 73.1974 18.1674 69H15.3674C15.3674 74.7438 20.0236 79.4 25.7674 79.4V76.6ZM221.635 69C221.635 73.1974 218.232 76.6 214.035 76.6V79.4C219.778 79.4 224.435 74.7438 224.435 69H221.635ZM214.035 3.4C218.232 3.4 221.635 6.80264 221.635 11H224.435C224.435 5.25624 219.778 0.600003 214.035 0.600003V3.4ZM25.7674 0.6C20.0236 0.6 15.3674 5.25624 15.3674 11H18.1674C18.1674 6.80264 21.57 3.4 25.7674 3.4V0.6Z" fill="#333333" mask="url(#path-2-inside-1_7069_6424)"/>
</g>
<g filter="url(#filter1_d_7069_6424)">
<path d="M36.168 25.192C35.336 25.192 34.592 25 33.936 24.616C33.28 24.232 32.7627 23.656 32.384 22.888C32.0053 22.1147 31.816 21.1493 31.816 19.992C31.816 18.8187 32.0053 17.848 32.384 17.08C32.7627 16.3067 33.28 15.7307 33.936 15.352C34.592 14.968 35.336 14.776 36.168 14.776C37 14.776 37.744 14.968 38.4 15.352C39.056 15.736 39.5733 16.3147 39.952 17.088C40.3307 17.8613 40.52 18.8293 40.52 19.992C40.52 21.16 40.3307 22.1307 39.952 22.904C39.5733 23.672 39.056 24.2453 38.4 24.624C37.744 25.0027 37 25.192 36.168 25.192ZM36.168 24.04C37.112 24.04 37.856 23.696 38.4 23.008C38.9493 22.32 39.224 21.3093 39.224 19.976C39.224 18.6693 38.9493 17.664 38.4 16.96C37.856 16.2507 37.112 15.896 36.168 15.896C35.2347 15.896 34.4907 16.2507 33.936 16.96C33.3867 17.6693 33.112 18.68 33.112 19.992C33.112 21.32 33.3867 22.328 33.936 23.016C34.4907 23.6987 35.2347 24.04 36.168 24.04ZM48.8801 14.952H50.6081L44.1921 21.56V19.8L48.8801 14.952ZM46.0001 19.192L50.8801 25H49.2481L45.1041 20.008L46.0001 19.192ZM43.1041 14.952H44.3681V25H43.1041V14.952ZM53.1109 22.184L52.9509 14.984H54.2789L54.1189 22.184H53.1109ZM53.6149 25.144C53.3429 25.144 53.1189 25.0587 52.9429 24.888C52.7669 24.7173 52.6789 24.504 52.6789 24.248C52.6789 23.9973 52.7669 23.784 52.9429 23.608C53.1189 23.4267 53.3429 23.336 53.6149 23.336C53.8815 23.336 54.1055 23.4267 54.2869 23.608C54.4735 23.784 54.5669 23.9973 54.5669 24.248C54.5669 24.504 54.4735 24.7173 54.2869 24.888C54.1055 25.0587 53.8815 25.144 53.6149 25.144ZM62.7852 14.952V23.912H67.2652V25H61.5372V14.952H62.7852ZM71.8376 25.192C71.1763 25.192 70.5843 25.024 70.0616 24.688C69.5443 24.3467 69.1336 23.8747 68.8296 23.272C68.531 22.6693 68.3816 21.976 68.3816 21.192C68.3816 20.3547 68.531 19.6347 68.8296 19.032C69.1283 18.4293 69.5363 17.968 70.0536 17.648C70.5763 17.3227 71.171 17.16 71.8376 17.16C72.419 17.16 72.915 17.2773 73.3256 17.512C73.7363 17.7467 74.067 18.064 74.3176 18.464C74.5683 18.864 74.7416 19.3173 74.8376 19.824C74.939 20.3253 74.9683 20.8453 74.9256 21.384H69.3896V20.616H74.1016L73.7336 20.856C73.7496 20.5413 73.731 20.2267 73.6776 19.912C73.6296 19.5973 73.5363 19.3093 73.3976 19.048C73.259 18.7813 73.0643 18.568 72.8136 18.408C72.563 18.248 72.243 18.168 71.8536 18.168C71.363 18.168 70.9523 18.2933 70.6216 18.544C70.291 18.7947 70.043 19.1253 69.8776 19.536C69.7123 19.9413 69.6296 20.3813 69.6296 20.856V21.368C69.6296 21.9013 69.7096 22.3787 69.8696 22.8C70.035 23.2213 70.2803 23.5547 70.6056 23.8C70.931 24.0453 71.3416 24.168 71.8376 24.168C72.3336 24.168 72.7416 24.048 73.0616 23.808C73.3816 23.568 73.5763 23.2133 73.6456 22.744H74.9416C74.8616 23.2507 74.6803 23.688 74.3976 24.056C74.115 24.4187 73.755 24.6987 73.3176 24.896C72.8803 25.0933 72.387 25.192 71.8376 25.192ZM79.9124 25.192C79.4964 25.192 79.123 25.112 78.7924 24.952C78.4617 24.792 78.2004 24.552 78.0084 24.232C77.8164 23.912 77.7204 23.512 77.7204 23.032V15.224H78.9524V23C78.9524 23.7893 79.3204 24.184 80.0564 24.184C80.275 24.184 80.4857 24.16 80.6884 24.112C80.8964 24.064 81.1284 23.992 81.3844 23.896L81.5604 24.792C81.2884 24.9093 81.0164 25.0053 80.7444 25.08C80.4777 25.1547 80.2004 25.192 79.9124 25.192ZM76.4884 18.216V17.352H81.3684V18.216H76.4884ZM83.256 18.296L82.36 17.816C82.664 17.6613 82.92 17.488 83.128 17.296C83.3413 17.0987 83.48 16.872 83.544 16.616C83.304 16.5893 83.1013 16.5067 82.936 16.368C82.776 16.2293 82.696 16.0453 82.696 15.816C82.696 15.5813 82.784 15.384 82.96 15.224C83.136 15.064 83.3573 14.984 83.624 14.984C83.848 14.984 84.04 15.0427 84.2 15.16C84.36 15.272 84.4827 15.424 84.568 15.616C84.6533 15.8027 84.696 16.0133 84.696 16.248C84.696 16.632 84.5707 17.008 84.32 17.376C84.0693 17.7387 83.7147 18.0453 83.256 18.296ZM90.0542 25.192C89.3129 25.192 88.6942 25.088 88.1982 24.88C87.7022 24.6667 87.3262 24.376 87.0702 24.008C86.8142 23.6347 86.6782 23.208 86.6622 22.728H87.8622C87.8889 23.2133 88.0836 23.5787 88.4462 23.824C88.8142 24.064 89.3129 24.184 89.9422 24.184C90.2729 24.184 90.5769 24.1307 90.8542 24.024C91.1316 23.9173 91.3529 23.7707 91.5182 23.584C91.6836 23.3973 91.7662 23.1867 91.7662 22.952C91.7662 22.6533 91.6569 22.4187 91.4382 22.248C91.2196 22.0773 90.8702 21.928 90.3902 21.8L88.9022 21.32C88.2569 21.1173 87.7609 20.84 87.4142 20.488C87.0729 20.1307 86.9022 19.704 86.9022 19.208C86.9022 18.5893 87.1742 18.0933 87.7182 17.72C88.2622 17.3467 88.9769 17.16 89.8622 17.16C90.8009 17.16 91.5289 17.352 92.0462 17.736C92.5636 18.12 92.8329 18.6 92.8542 19.176H91.6222C91.5742 18.84 91.4036 18.5867 91.1102 18.416C90.8169 18.24 90.4009 18.152 89.8622 18.152C89.3449 18.152 88.9396 18.2693 88.6462 18.504C88.3582 18.7333 88.2142 18.9893 88.2142 19.272C88.2142 19.8 88.6676 20.1893 89.5742 20.44L91.0942 20.952C91.7502 21.1493 92.2516 21.408 92.5982 21.728C92.9502 22.048 93.1262 22.456 93.1262 22.952C93.1262 23.336 93.0009 23.6987 92.7502 24.04C92.4996 24.3813 92.1449 24.6587 91.6862 24.872C91.2276 25.0853 90.6836 25.192 90.0542 25.192ZM99.8254 25V17.336H101.073V25H99.8254ZM100.689 21.544C100.689 20.5733 100.783 19.768 100.969 19.128C101.156 18.4827 101.428 18.0027 101.785 17.688C102.148 17.368 102.588 17.208 103.105 17.208C103.276 17.208 103.431 17.2213 103.569 17.248C103.713 17.2693 103.857 17.304 104.001 17.352L103.921 18.584C103.772 18.536 103.609 18.496 103.433 18.464C103.257 18.4267 103.1 18.408 102.961 18.408C102.508 18.408 102.143 18.5387 101.865 18.8C101.588 19.056 101.385 19.4187 101.257 19.888C101.135 20.3573 101.073 20.9093 101.073 21.544H100.689ZM108.423 25.192C107.761 25.192 107.169 25.024 106.647 24.688C106.129 24.3467 105.719 23.8747 105.415 23.272C105.116 22.6693 104.967 21.976 104.967 21.192C104.967 20.3547 105.116 19.6347 105.415 19.032C105.713 18.4293 106.121 17.968 106.639 17.648C107.161 17.3227 107.756 17.16 108.423 17.16C109.004 17.16 109.5 17.2773 109.911 17.512C110.321 17.7467 110.652 18.064 110.903 18.464C111.153 18.864 111.327 19.3173 111.423 19.824C111.524 20.3253 111.553 20.8453 111.511 21.384H105.975V20.616H110.687L110.319 20.856C110.335 20.5413 110.316 20.2267 110.263 19.912C110.215 19.5973 110.121 19.3093 109.983 19.048C109.844 18.7813 109.649 18.568 109.399 18.408C109.148 18.248 108.828 18.168 108.439 18.168C107.948 18.168 107.537 18.2933 107.207 18.544C106.876 18.7947 106.628 19.1253 106.463 19.536C106.297 19.9413 106.215 20.3813 106.215 20.856V21.368C106.215 21.9013 106.295 22.3787 106.455 22.8C106.62 23.2213 106.865 23.5547 107.191 23.8C107.516 24.0453 107.927 24.168 108.423 24.168C108.919 24.168 109.327 24.048 109.647 23.808C109.967 23.568 110.161 23.2133 110.231 22.744H111.527C111.447 23.2507 111.265 23.688 110.983 24.056C110.7 24.4187 110.34 24.6987 109.903 24.896C109.465 25.0933 108.972 25.192 108.423 25.192ZM118.881 25L118.721 23.32V20.04C118.721 19.352 118.575 18.8587 118.281 18.56C117.988 18.256 117.548 18.104 116.961 18.104C116.631 18.104 116.329 18.152 116.057 18.248C115.791 18.344 115.577 18.4933 115.417 18.696C115.263 18.8933 115.185 19.1493 115.185 19.464H113.793C113.793 18.9093 113.929 18.464 114.201 18.128C114.473 17.7867 114.847 17.5413 115.321 17.392C115.801 17.2373 116.348 17.16 116.961 17.16C117.548 17.16 118.068 17.2587 118.521 17.456C118.975 17.6533 119.329 17.968 119.585 18.4C119.841 18.8267 119.969 19.384 119.969 20.072V25H118.881ZM116.273 25.192C115.644 25.192 115.124 25.08 114.713 24.856C114.303 24.632 113.996 24.3413 113.793 23.984C113.591 23.6267 113.489 23.2507 113.489 22.856C113.489 22.3387 113.617 21.9173 113.873 21.592C114.135 21.2667 114.489 21.0293 114.937 20.88C115.385 20.7253 115.889 20.648 116.449 20.648C116.849 20.648 117.249 20.688 117.649 20.768C118.055 20.848 118.449 20.9573 118.833 21.096V21.88C118.513 21.752 118.151 21.6507 117.745 21.576C117.345 21.5013 116.977 21.464 116.641 21.464C116.129 21.464 115.697 21.5707 115.345 21.784C114.993 21.992 114.817 22.3493 114.817 22.856C114.817 23.2293 114.951 23.5493 115.217 23.816C115.489 24.0827 115.921 24.216 116.513 24.216C116.929 24.216 117.303 24.12 117.633 23.928C117.969 23.7307 118.233 23.4853 118.425 23.192C118.623 22.8987 118.721 22.6053 118.721 22.312H119.025C119.025 22.824 118.913 23.2987 118.689 23.736C118.471 24.1733 118.156 24.5253 117.745 24.792C117.335 25.0587 116.844 25.192 116.273 25.192ZM125.854 25.192C125.235 25.192 124.667 25.0267 124.15 24.696C123.633 24.36 123.219 23.8907 122.91 23.288C122.601 22.68 122.446 21.9653 122.446 21.144C122.446 20.328 122.598 19.6213 122.902 19.024C123.206 18.4267 123.609 17.968 124.11 17.648C124.617 17.3227 125.171 17.16 125.774 17.16C126.334 17.16 126.825 17.296 127.246 17.568C127.673 17.84 128.003 18.232 128.238 18.744C128.473 19.256 128.59 19.8747 128.59 20.6H128.11C128.11 20.0933 128.009 19.6667 127.806 19.32C127.609 18.9733 127.35 18.712 127.03 18.536C126.71 18.3547 126.366 18.264 125.998 18.264C125.582 18.264 125.201 18.3813 124.854 18.616C124.513 18.8453 124.238 19.176 124.03 19.608C123.827 20.0347 123.726 20.5467 123.726 21.144C123.726 21.752 123.827 22.2747 124.03 22.712C124.238 23.1493 124.513 23.4853 124.854 23.72C125.201 23.9547 125.582 24.072 125.998 24.072C126.345 24.072 126.678 23.9813 126.998 23.8C127.323 23.6187 127.59 23.3547 127.798 23.008C128.006 22.656 128.11 22.232 128.11 21.736H128.59C128.59 22.4773 128.467 23.1067 128.222 23.624C127.982 24.136 127.654 24.5253 127.238 24.792C126.827 25.0587 126.366 25.192 125.854 25.192ZM128.318 25L128.11 23.208V14.088H129.358V25H128.318ZM141.455 25L141.295 23.32V20.04C141.295 19.352 141.148 18.8587 140.855 18.56C140.562 18.256 140.122 18.104 139.535 18.104C139.204 18.104 138.903 18.152 138.631 18.248C138.364 18.344 138.151 18.4933 137.991 18.696C137.836 18.8933 137.759 19.1493 137.759 19.464H136.367C136.367 18.9093 136.503 18.464 136.775 18.128C137.047 17.7867 137.42 17.5413 137.895 17.392C138.375 17.2373 138.922 17.16 139.535 17.16C140.122 17.16 140.642 17.2587 141.095 17.456C141.548 17.6533 141.903 17.968 142.159 18.4C142.415 18.8267 142.543 19.384 142.543 20.072V25H141.455ZM138.847 25.192C138.218 25.192 137.698 25.08 137.287 24.856C136.876 24.632 136.57 24.3413 136.367 23.984C136.164 23.6267 136.063 23.2507 136.063 22.856C136.063 22.3387 136.191 21.9173 136.447 21.592C136.708 21.2667 137.063 21.0293 137.511 20.88C137.959 20.7253 138.463 20.648 139.023 20.648C139.423 20.648 139.823 20.688 140.223 20.768C140.628 20.848 141.023 20.9573 141.407 21.096V21.88C141.087 21.752 140.724 21.6507 140.319 21.576C139.919 21.5013 139.551 21.464 139.215 21.464C138.703 21.464 138.271 21.5707 137.919 21.784C137.567 21.992 137.391 22.3493 137.391 22.856C137.391 23.2293 137.524 23.5493 137.791 23.816C138.063 24.0827 138.495 24.216 139.087 24.216C139.503 24.216 139.876 24.12 140.207 23.928C140.543 23.7307 140.807 23.4853 140.999 23.192C141.196 22.8987 141.295 22.6053 141.295 22.312H141.599C141.599 22.824 141.487 23.2987 141.263 23.736C141.044 24.1733 140.73 24.5253 140.319 24.792C139.908 25.0587 139.418 25.192 138.847 25.192ZM149.196 25.192C148.684 25.192 148.22 25.0587 147.804 24.792C147.393 24.5253 147.065 24.136 146.82 23.624C146.58 23.1067 146.46 22.4773 146.46 21.736H146.94C146.94 22.232 147.041 22.656 147.244 23.008C147.452 23.3547 147.718 23.6187 148.044 23.8C148.369 23.9813 148.71 24.072 149.068 24.072C149.478 24.072 149.854 23.9547 150.196 23.72C150.537 23.4853 150.809 23.1493 151.012 22.712C151.22 22.2747 151.324 21.752 151.324 21.144C151.324 20.5467 151.222 20.0347 151.02 19.608C150.817 19.176 150.542 18.8453 150.196 18.616C149.854 18.3813 149.473 18.264 149.052 18.264C148.689 18.264 148.345 18.3547 148.02 18.536C147.7 18.712 147.438 18.9733 147.236 19.32C147.038 19.6667 146.94 20.0933 146.94 20.6H146.46C146.46 19.8747 146.577 19.256 146.812 18.744C147.052 18.232 147.382 17.84 147.804 17.568C148.225 17.296 148.716 17.16 149.276 17.16C149.878 17.16 150.43 17.3227 150.932 17.648C151.438 17.968 151.844 18.4267 152.148 19.024C152.452 19.6213 152.604 20.328 152.604 21.144C152.604 21.9653 152.449 22.68 152.14 23.288C151.83 23.8907 151.417 24.36 150.9 24.696C150.382 25.0267 149.814 25.192 149.196 25.192ZM145.692 25V14.088H146.94V23.208L146.572 25H145.692ZM158.104 25.192C157.416 25.192 156.803 25.04 156.264 24.736C155.731 24.432 155.309 23.9813 155 23.384C154.691 22.7867 154.536 22.0507 154.536 21.176C154.536 20.296 154.691 19.56 155 18.968C155.309 18.3707 155.731 17.92 156.264 17.616C156.803 17.312 157.416 17.16 158.104 17.16C158.787 17.16 159.395 17.312 159.928 17.616C160.467 17.92 160.888 18.3707 161.192 18.968C161.501 19.56 161.656 20.296 161.656 21.176C161.656 22.0507 161.501 22.7867 161.192 23.384C160.888 23.9813 160.467 24.432 159.928 24.736C159.395 25.04 158.787 25.192 158.104 25.192ZM158.072 24.104C158.568 24.104 158.989 23.9867 159.336 23.752C159.683 23.512 159.944 23.1733 160.12 22.736C160.301 22.2987 160.392 21.7787 160.392 21.176C160.392 20.264 160.203 19.5467 159.824 19.024C159.445 18.496 158.883 18.232 158.136 18.232C157.635 18.232 157.211 18.352 156.864 18.592C156.523 18.8267 156.261 19.1653 156.08 19.608C155.904 20.0453 155.816 20.568 155.816 21.176C155.816 22.0773 156.005 22.792 156.384 23.32C156.768 23.8427 157.331 24.104 158.072 24.104ZM169.446 17.336H170.694V25H169.446V17.336ZM164.022 17.336H165.27V22.104C165.27 22.744 165.425 23.2293 165.734 23.56C166.049 23.8907 166.497 24.056 167.078 24.056C167.558 24.056 167.974 23.928 168.326 23.672C168.683 23.416 168.958 23.064 169.15 22.616C169.347 22.1627 169.446 21.6453 169.446 21.064H169.91C169.91 21.9227 169.785 22.656 169.534 23.264C169.289 23.872 168.939 24.3387 168.486 24.664C168.038 24.984 167.51 25.144 166.902 25.144C166.326 25.144 165.822 25.0373 165.39 24.824C164.958 24.6107 164.622 24.288 164.382 23.856C164.142 23.4187 164.022 22.8667 164.022 22.2V17.336ZM176.445 25.192C176.029 25.192 175.656 25.112 175.325 24.952C174.995 24.792 174.733 24.552 174.541 24.232C174.349 23.912 174.253 23.512 174.253 23.032V15.224H175.485V23C175.485 23.7893 175.853 24.184 176.589 24.184C176.808 24.184 177.019 24.16 177.221 24.112C177.429 24.064 177.661 23.992 177.917 23.896L178.093 24.792C177.821 24.9093 177.549 25.0053 177.277 25.08C177.011 25.1547 176.733 25.192 176.445 25.192ZM173.021 18.216V17.352H177.901V18.216H173.021ZM186.578 25.192C186.162 25.192 185.789 25.112 185.458 24.952C185.127 24.792 184.866 24.552 184.674 24.232C184.482 23.912 184.386 23.512 184.386 23.032V15.224H185.618V23C185.618 23.7893 185.986 24.184 186.722 24.184C186.941 24.184 187.151 24.16 187.354 24.112C187.562 24.064 187.794 23.992 188.05 23.896L188.226 24.792C187.954 24.9093 187.682 25.0053 187.41 25.08C187.143 25.1547 186.866 25.192 186.578 25.192ZM183.154 18.216V17.352H188.034V18.216H183.154ZM195.842 25V20.504C195.842 19.7733 195.666 19.2187 195.314 18.84C194.967 18.456 194.492 18.264 193.89 18.264C193.431 18.264 193.034 18.3893 192.698 18.64C192.362 18.8907 192.103 19.2507 191.922 19.72C191.74 20.184 191.65 20.7387 191.65 21.384H191.17C191.17 20.4933 191.287 19.7333 191.522 19.104C191.756 18.4747 192.098 17.9947 192.546 17.664C192.999 17.328 193.548 17.16 194.194 17.16C194.796 17.16 195.311 17.296 195.738 17.568C196.17 17.8347 196.5 18.2187 196.73 18.72C196.959 19.2213 197.074 19.816 197.074 20.504V25H195.842ZM190.402 25V14.088H191.65V25H190.402ZM202.874 25.192C202.213 25.192 201.621 25.024 201.098 24.688C200.581 24.3467 200.17 23.8747 199.866 23.272C199.567 22.6693 199.418 21.976 199.418 21.192C199.418 20.3547 199.567 19.6347 199.866 19.032C200.165 18.4293 200.573 17.968 201.09 17.648C201.613 17.3227 202.207 17.16 202.874 17.16C203.455 17.16 203.951 17.2773 204.362 17.512C204.773 17.7467 205.103 18.064 205.354 18.464C205.605 18.864 205.778 19.3173 205.874 19.824C205.975 20.3253 206.005 20.8453 205.962 21.384H200.426V20.616H205.138L204.77 20.856C204.786 20.5413 204.767 20.2267 204.714 19.912C204.666 19.5973 204.573 19.3093 204.434 19.048C204.295 18.7813 204.101 18.568 203.85 18.408C203.599 18.248 203.279 18.168 202.89 18.168C202.399 18.168 201.989 18.2933 201.658 18.544C201.327 18.7947 201.079 19.1253 200.914 19.536C200.749 19.9413 200.666 20.3813 200.666 20.856V21.368C200.666 21.9013 200.746 22.3787 200.906 22.8C201.071 23.2213 201.317 23.5547 201.642 23.8C201.967 24.0453 202.378 24.168 202.874 24.168C203.37 24.168 203.778 24.048 204.098 23.808C204.418 23.568 204.613 23.2133 204.682 22.744H205.978C205.898 23.2507 205.717 23.688 205.434 24.056C205.151 24.4187 204.791 24.6987 204.354 24.896C203.917 25.0933 203.423 25.192 202.874 25.192ZM32.44 45V34.616H36.104C37.272 34.616 38.1813 34.904 38.832 35.48C39.488 36.056 39.816 36.872 39.816 37.928C39.816 38.9733 39.488 39.784 38.832 40.36C38.1813 40.936 37.272 41.224 36.104 41.224H34.344V45H32.44ZM34.344 39.576H36.104C36.6907 39.576 37.1333 39.4213 37.432 39.112C37.7307 38.8027 37.88 38.408 37.88 37.928C37.88 37.4373 37.7307 37.0347 37.432 36.72C37.1333 36.4053 36.6907 36.248 36.104 36.248H34.344V39.576ZM40.137 45L43.673 34.616H46.041L49.433 45H47.449L46.729 42.76H42.873L42.137 45H40.137ZM43.353 41.336H46.281L44.825 36.872L43.353 41.336ZM55.0646 45.224C54.3446 45.224 53.6806 45.0987 53.0726 44.848C52.47 44.5973 51.9793 44.216 51.6006 43.704C51.2273 43.192 51.0273 42.5413 51.0006 41.752H52.8566C52.8566 42.152 52.9553 42.48 53.1526 42.736C53.35 42.992 53.614 43.184 53.9446 43.312C54.2806 43.4347 54.6486 43.496 55.0486 43.496C55.4326 43.496 55.774 43.4453 56.0726 43.344C56.3766 43.2427 56.614 43.0987 56.7846 42.912C56.9606 42.72 57.0486 42.4933 57.0486 42.232C57.0486 41.8853 56.942 41.6133 56.7286 41.416C56.5206 41.2187 56.1846 41.0373 55.7206 40.872L53.6726 40.056C52.8726 39.7413 52.2593 39.376 51.8326 38.96C51.406 38.544 51.1926 37.9707 51.1926 37.24C51.1926 36.3973 51.526 35.7147 52.1926 35.192C52.8593 34.6693 53.79 34.408 54.9846 34.408C56.1473 34.408 57.046 34.68 57.6806 35.224C58.3153 35.7627 58.6753 36.5147 58.7606 37.48H56.9046C56.8353 37.0693 56.6486 36.7413 56.3446 36.496C56.0406 36.2453 55.5873 36.12 54.9846 36.12C54.4513 36.12 54.03 36.232 53.7206 36.456C53.4113 36.6747 53.2566 36.952 53.2566 37.288C53.2566 37.576 53.3526 37.8053 53.5446 37.976C53.742 38.1413 54.046 38.3013 54.4566 38.456L56.7286 39.336C57.4966 39.6347 58.086 40.0107 58.4966 40.464C58.9073 40.9173 59.1126 41.4853 59.1126 42.168C59.1126 42.792 58.9553 43.3333 58.6406 43.792C58.326 44.2453 57.8673 44.5973 57.2646 44.848C56.662 45.0987 55.9286 45.224 55.0646 45.224ZM65.4277 45.224C64.7077 45.224 64.0437 45.0987 63.4357 44.848C62.8331 44.5973 62.3424 44.216 61.9637 43.704C61.5904 43.192 61.3904 42.5413 61.3637 41.752H63.2197C63.2197 42.152 63.3184 42.48 63.5157 42.736C63.7131 42.992 63.9771 43.184 64.3077 43.312C64.6437 43.4347 65.0117 43.496 65.4117 43.496C65.7957 43.496 66.1371 43.4453 66.4358 43.344C66.7397 43.2427 66.9771 43.0987 67.1477 42.912C67.3237 42.72 67.4117 42.4933 67.4117 42.232C67.4117 41.8853 67.3051 41.6133 67.0917 41.416C66.8837 41.2187 66.5477 41.0373 66.0837 40.872L64.0357 40.056C63.2357 39.7413 62.6224 39.376 62.1957 38.96C61.7691 38.544 61.5557 37.9707 61.5557 37.24C61.5557 36.3973 61.8891 35.7147 62.5557 35.192C63.2224 34.6693 64.1531 34.408 65.3477 34.408C66.5104 34.408 67.4091 34.68 68.0437 35.224C68.6784 35.7627 69.0384 36.5147 69.1237 37.48H67.2677C67.1984 37.0693 67.0117 36.7413 66.7077 36.496C66.4037 36.2453 65.9504 36.12 65.3477 36.12C64.8144 36.12 64.3931 36.232 64.0837 36.456C63.7744 36.6747 63.6197 36.952 63.6197 37.288C63.6197 37.576 63.7157 37.8053 63.9077 37.976C64.1051 38.1413 64.4091 38.3013 64.8197 38.456L67.0917 39.336C67.8597 39.6347 68.4491 40.0107 68.8597 40.464C69.2704 40.9173 69.4757 41.4853 69.4757 42.168C69.4757 42.792 69.3184 43.3333 69.0037 43.792C68.6891 44.2453 68.2304 44.5973 67.6277 44.848C67.0251 45.0987 66.2917 45.224 65.4277 45.224ZM71.0389 45L74.5749 34.616H76.9429L80.3349 45H78.3509L77.6309 42.76H73.7749L73.0389 45H71.0389ZM74.2549 41.336H77.1829L75.7269 36.872L74.2549 41.336ZM86.1425 45.224C85.2945 45.224 84.5292 45 83.8465 44.552C83.1638 44.104 82.6198 43.48 82.2145 42.68C81.8145 41.8747 81.6145 40.936 81.6145 39.864C81.6145 39.016 81.7372 38.256 81.9825 37.584C82.2332 36.912 82.5798 36.3387 83.0225 35.864C83.4652 35.3893 83.9852 35.0293 84.5825 34.784C85.1798 34.5333 85.8278 34.408 86.5265 34.408C87.4972 34.408 88.3105 34.6187 88.9665 35.04C89.6278 35.4613 90.1425 36.1253 90.5105 37.032L88.5745 37.48C88.3025 37.0373 87.9878 36.7013 87.6305 36.472C87.2785 36.2373 86.8785 36.12 86.4305 36.12C85.9185 36.12 85.4518 36.272 85.0305 36.576C84.6092 36.8747 84.2732 37.304 84.0225 37.864C83.7718 38.424 83.6465 39.0907 83.6465 39.864C83.6465 40.5893 83.7558 41.224 83.9745 41.768C84.1985 42.312 84.5105 42.736 84.9105 43.04C85.3105 43.344 85.7745 43.496 86.3025 43.496C86.7505 43.496 87.1505 43.3973 87.5025 43.2C87.8598 42.9973 88.1398 42.7093 88.3425 42.336C88.5505 41.9627 88.6545 41.512 88.6545 40.984H89.0705C89.0705 41.848 88.9665 42.5973 88.7585 43.232C88.5558 43.8667 88.2385 44.3573 87.8065 44.704C87.3745 45.0507 86.8198 45.224 86.1425 45.224ZM88.9265 45L88.6545 42.712V40.92L86.3185 40.872V39.672H90.4625V45H88.9265ZM93.3226 45V34.616H99.9946V36.248H95.2106V38.984H99.7066V40.616H95.2106V43.352H99.9946V45H93.3226ZM106.505 45.224C105.785 45.224 105.121 45.0987 104.513 44.848C103.911 44.5973 103.42 44.216 103.041 43.704C102.668 43.192 102.468 42.5413 102.441 41.752H104.297C104.297 42.152 104.396 42.48 104.593 42.736C104.791 42.992 105.055 43.184 105.385 43.312C105.721 43.4347 106.089 43.496 106.489 43.496C106.873 43.496 107.215 43.4453 107.513 43.344C107.817 43.2427 108.055 43.0987 108.225 42.912C108.401 42.72 108.489 42.4933 108.489 42.232C108.489 41.8853 108.383 41.6133 108.169 41.416C107.961 41.2187 107.625 41.0373 107.161 40.872L105.113 40.056C104.313 39.7413 103.7 39.376 103.273 38.96C102.847 38.544 102.633 37.9707 102.633 37.24C102.633 36.3973 102.967 35.7147 103.633 35.192C104.3 34.6693 105.231 34.408 106.425 34.408C107.588 34.408 108.487 34.68 109.121 35.224C109.756 35.7627 110.116 36.5147 110.201 37.48H108.345C108.276 37.0693 108.089 36.7413 107.785 36.496C107.481 36.2453 107.028 36.12 106.425 36.12C105.892 36.12 105.471 36.232 105.161 36.456C104.852 36.6747 104.697 36.952 104.697 37.288C104.697 37.576 104.793 37.8053 104.985 37.976C105.183 38.1413 105.487 38.3013 105.897 38.456L108.169 39.336C108.937 39.6347 109.527 40.0107 109.937 40.464C110.348 40.9173 110.553 41.4853 110.553 42.168C110.553 42.792 110.396 43.3333 110.081 43.792C109.767 44.2453 109.308 44.5973 108.705 44.848C108.103 45.0987 107.369 45.224 106.505 45.224ZM117.753 45V36.168C117.753 35.6613 117.849 35.248 118.041 34.928C118.239 34.6027 118.5 34.3627 118.825 34.208C119.156 34.0533 119.524 33.976 119.929 33.976C120.148 33.976 120.369 33.992 120.593 34.024C120.823 34.056 121.049 34.104 121.273 34.168L121.033 35.16C120.873 35.096 120.713 35.048 120.553 35.016C120.399 34.984 120.249 34.968 120.105 34.968C119.935 34.968 119.764 35 119.593 35.064C119.423 35.128 119.281 35.248 119.169 35.424C119.057 35.6 119.001 35.8533 119.001 36.184V45H117.753ZM116.505 38.216V37.352H120.585V38.216H116.505ZM125.75 45.192C125.062 45.192 124.448 45.04 123.91 44.736C123.376 44.432 122.955 43.9813 122.646 43.384C122.336 42.7867 122.182 42.0507 122.182 41.176C122.182 40.296 122.336 39.56 122.646 38.968C122.955 38.3707 123.376 37.92 123.91 37.616C124.448 37.312 125.062 37.16 125.75 37.16C126.432 37.16 127.04 37.312 127.574 37.616C128.112 37.92 128.534 38.3707 128.838 38.968C129.147 39.56 129.302 40.296 129.302 41.176C129.302 42.0507 129.147 42.7867 128.838 43.384C128.534 43.9813 128.112 44.432 127.574 44.736C127.04 45.04 126.432 45.192 125.75 45.192ZM125.718 44.104C126.214 44.104 126.635 43.9867 126.982 43.752C127.328 43.512 127.59 43.1733 127.766 42.736C127.947 42.2987 128.038 41.7787 128.038 41.176C128.038 40.264 127.848 39.5467 127.47 39.024C127.091 38.496 126.528 38.232 125.782 38.232C125.28 38.232 124.856 38.352 124.51 38.592C124.168 38.8267 123.907 39.1653 123.726 39.608C123.55 40.0453 123.462 40.568 123.462 41.176C123.462 42.0773 123.651 42.792 124.03 43.32C124.414 43.8427 124.976 44.104 125.718 44.104ZM131.892 45V37.336H133.14V45H131.892ZM132.756 41.544C132.756 40.5733 132.849 39.768 133.036 39.128C133.222 38.4827 133.494 38.0027 133.852 37.688C134.214 37.368 134.654 37.208 135.172 37.208C135.342 37.208 135.497 37.2213 135.636 37.248C135.78 37.2693 135.924 37.304 136.068 37.352L135.988 38.584C135.838 38.536 135.676 38.496 135.5 38.464C135.324 38.4267 135.166 38.408 135.028 38.408C134.574 38.408 134.209 38.5387 133.932 38.8C133.654 39.056 133.452 39.4187 133.324 39.888C133.201 40.3573 133.14 40.9093 133.14 41.544H132.756ZM144.142 45.192C143.726 45.192 143.352 45.112 143.022 44.952C142.691 44.792 142.43 44.552 142.238 44.232C142.046 43.912 141.95 43.512 141.95 43.032V35.224H143.182V43C143.182 43.7893 143.55 44.184 144.286 44.184C144.504 44.184 144.715 44.16 144.918 44.112C145.126 44.064 145.358 43.992 145.614 43.896L145.79 44.792C145.518 44.9093 145.246 45.0053 144.974 45.08C144.707 45.1547 144.43 45.192 144.142 45.192ZM140.718 38.216V37.352H145.598V38.216H140.718ZM153.405 45V40.504C153.405 39.7733 153.229 39.2187 152.877 38.84C152.531 38.456 152.056 38.264 151.453 38.264C150.995 38.264 150.597 38.3893 150.261 38.64C149.925 38.8907 149.667 39.2507 149.485 39.72C149.304 40.184 149.213 40.7387 149.213 41.384H148.733C148.733 40.4933 148.851 39.7333 149.085 39.104C149.32 38.4747 149.661 37.9947 150.109 37.664C150.563 37.328 151.112 37.16 151.757 37.16C152.36 37.16 152.875 37.296 153.301 37.568C153.733 37.8347 154.064 38.2187 154.293 38.72C154.523 39.2213 154.637 39.816 154.637 40.504V45H153.405ZM147.965 45V34.088H149.213V45H147.965ZM160.438 45.192C159.776 45.192 159.184 45.024 158.662 44.688C158.144 44.3467 157.734 43.8747 157.43 43.272C157.131 42.6693 156.982 41.976 156.982 41.192C156.982 40.3547 157.131 39.6347 157.43 39.032C157.728 38.4293 158.136 37.968 158.654 37.648C159.176 37.3227 159.771 37.16 160.438 37.16C161.019 37.16 161.515 37.2773 161.926 37.512C162.336 37.7467 162.667 38.064 162.918 38.464C163.168 38.864 163.342 39.3173 163.438 39.824C163.539 40.3253 163.568 40.8453 163.526 41.384H157.99V40.616H162.702L162.334 40.856C162.35 40.5413 162.331 40.2267 162.278 39.912C162.23 39.5973 162.136 39.3093 161.998 39.048C161.859 38.7813 161.664 38.568 161.414 38.408C161.163 38.248 160.843 38.168 160.454 38.168C159.963 38.168 159.552 38.2933 159.222 38.544C158.891 38.7947 158.643 39.1253 158.478 39.536C158.312 39.9413 158.23 40.3813 158.23 40.856V41.368C158.23 41.9013 158.31 42.3787 158.47 42.8C158.635 43.2213 158.88 43.5547 159.206 43.8C159.531 44.0453 159.942 44.168 160.438 44.168C160.934 44.168 161.342 44.048 161.662 43.808C161.982 43.568 162.176 43.2133 162.246 42.744H163.542C163.462 43.2507 163.28 43.688 162.998 44.056C162.715 44.4187 162.355 44.6987 161.918 44.896C161.48 45.0933 160.987 45.192 160.438 45.192ZM36.264 65.224C35.352 65.224 34.5573 65.008 33.88 64.576C33.208 64.1387 32.6853 63.5147 32.312 62.704C31.9387 61.8933 31.752 60.92 31.752 59.784C31.752 58.6107 31.944 57.6267 32.328 56.832C32.7173 56.032 33.2507 55.4293 33.928 55.024C34.6107 54.6133 35.3893 54.408 36.264 54.408C37.4747 54.408 38.4187 54.7013 39.096 55.288C39.7787 55.8747 40.216 56.6373 40.408 57.576L38.392 57.944C38.2267 57.4 37.9627 56.96 37.6 56.624C37.2373 56.288 36.792 56.12 36.264 56.12C35.8 56.12 35.3813 56.256 35.008 56.528C34.6347 56.7947 34.336 57.2 34.112 57.744C33.8933 58.288 33.784 58.968 33.784 59.784C33.784 60.552 33.88 61.2133 34.072 61.768C34.2693 62.3227 34.552 62.7493 34.92 63.048C35.288 63.3467 35.736 63.496 36.264 63.496C36.9413 63.496 37.464 63.3173 37.832 62.96C38.2053 62.5973 38.392 62.136 38.392 61.576H40.408C40.408 62.3493 40.24 63.008 39.904 63.552C39.5733 64.0907 39.0987 64.504 38.48 64.792C37.8613 65.08 37.1227 65.224 36.264 65.224ZM42.7886 54.616H44.6766V58.952H49.2046V54.616H51.0926V65H49.2046V60.6H44.6766V65H42.7886V54.616ZM54.2139 65V54.616H60.8859V56.248H56.1019V58.984H60.5979V60.616H56.1019V63.352H60.8859V65H54.2139ZM63.7645 65V54.616H70.4365V56.248H65.6525V58.984H70.1485V60.616H65.6525V63.352H70.4365V65H63.7645ZM76.9471 65.224C76.2271 65.224 75.5631 65.0987 74.9551 64.848C74.3525 64.5973 73.8618 64.216 73.4831 63.704C73.1098 63.192 72.9098 62.5413 72.8831 61.752H74.7391C74.7391 62.152 74.8378 62.48 75.0351 62.736C75.2325 62.992 75.4965 63.184 75.8271 63.312C76.1631 63.4347 76.5311 63.496 76.9311 63.496C77.3151 63.496 77.6565 63.4453 77.9551 63.344C78.2591 63.2427 78.4965 63.0987 78.6671 62.912C78.8431 62.72 78.9311 62.4933 78.9311 62.232C78.9311 61.8853 78.8245 61.6133 78.6111 61.416C78.4031 61.2187 78.0671 61.0373 77.6031 60.872L75.5551 60.056C74.7551 59.7413 74.1418 59.376 73.7151 58.96C73.2885 58.544 73.0751 57.9707 73.0751 57.24C73.0751 56.3973 73.4085 55.7147 74.0751 55.192C74.7418 54.6693 75.6725 54.408 76.8671 54.408C78.0298 54.408 78.9285 54.68 79.5631 55.224C80.1978 55.7627 80.5578 56.5147 80.6431 57.48H78.7871C78.7178 57.0693 78.5311 56.7413 78.2271 56.496C77.9231 56.2453 77.4698 56.12 76.8671 56.12C76.3338 56.12 75.9125 56.232 75.6031 56.456C75.2938 56.6747 75.1391 56.952 75.1391 57.288C75.1391 57.576 75.2351 57.8053 75.4271 57.976C75.6245 58.1413 75.9285 58.3013 76.3391 58.456L78.6111 59.336C79.3791 59.6347 79.9685 60.0107 80.3791 60.464C80.7898 60.9173 80.9951 61.4853 80.9951 62.168C80.9951 62.792 80.8378 63.3333 80.5231 63.792C80.2085 64.2453 79.7498 64.5973 79.1471 64.848C78.5445 65.0987 77.8111 65.224 76.9471 65.224ZM83.6782 65V54.616H90.3502V56.248H85.5662V58.984H90.0622V60.616H85.5662V63.352H90.3502V65H83.6782ZM97.0209 65.224C96.1089 65.224 95.3142 65.008 94.6369 64.576C93.9649 64.1387 93.4422 63.5147 93.0689 62.704C92.6955 61.8933 92.5089 60.92 92.5089 59.784C92.5089 58.6107 92.7009 57.6267 93.0849 56.832C93.4742 56.032 94.0075 55.4293 94.6849 55.024C95.3675 54.6133 96.1462 54.408 97.0209 54.408C98.2315 54.408 99.1755 54.7013 99.8529 55.288C100.536 55.8747 100.973 56.6373 101.165 57.576L99.1489 57.944C98.9835 57.4 98.7195 56.96 98.3569 56.624C97.9942 56.288 97.5489 56.12 97.0209 56.12C96.5569 56.12 96.1382 56.256 95.7649 56.528C95.3915 56.7947 95.0929 57.2 94.8689 57.744C94.6502 58.288 94.5409 58.968 94.5409 59.784C94.5409 60.552 94.6369 61.2133 94.8289 61.768C95.0262 62.3227 95.3089 62.7493 95.6769 63.048C96.0449 63.3467 96.4929 63.496 97.0209 63.496C97.6982 63.496 98.2209 63.3173 98.5889 62.96C98.9622 62.5973 99.1489 62.136 99.1489 61.576H101.165C101.165 62.3493 100.997 63.008 100.661 63.552C100.33 64.0907 99.8555 64.504 99.2369 64.792C98.6182 65.08 97.8795 65.224 97.0209 65.224ZM102.41 65L105.946 54.616H108.314L111.706 65H109.722L109.002 62.76H105.146L104.41 65H102.41ZM105.626 61.336H108.554L107.098 56.872L105.626 61.336ZM119.721 54.616H122.313L115.465 61.624V59.048L119.721 54.616ZM117.417 58.904L122.601 65H120.169L116.105 60.136L117.417 58.904ZM113.721 54.616H115.625V65H113.721V54.616ZM124.334 65V54.616H131.006V56.248H126.222V58.984H130.718V60.616H126.222V63.352H131.006V65H124.334ZM138.107 65V54.616H141.947C143.19 54.616 144.142 54.9067 144.803 55.488C145.47 56.0693 145.803 56.84 145.803 57.8C145.803 58.744 145.47 59.5067 144.803 60.088C144.142 60.664 143.19 60.952 141.947 60.952H139.995V65H138.107ZM143.723 65L140.971 60.136H142.987L146.187 65H143.723ZM139.995 59.688H141.755C142.449 59.688 142.974 59.5307 143.331 59.216C143.689 58.896 143.867 58.4827 143.867 57.976C143.867 57.4587 143.705 57.0427 143.379 56.728C143.054 56.408 142.577 56.248 141.947 56.248H139.995V59.688ZM148.548 65V54.616H155.22V56.248H150.436V58.984H154.932V60.616H150.436V63.352H155.22V65H148.548ZM161.891 65.224C160.979 65.224 160.184 65.008 159.507 64.576C158.835 64.1387 158.312 63.5147 157.939 62.704C157.566 61.8933 157.379 60.92 157.379 59.784C157.379 58.6107 157.571 57.6267 157.955 56.832C158.344 56.032 158.878 55.4293 159.555 55.024C160.238 54.6133 161.016 54.408 161.891 54.408C163.102 54.408 164.046 54.7013 164.723 55.288C165.406 55.8747 165.843 56.6373 166.035 57.576L164.019 57.944C163.854 57.4 163.59 56.96 163.227 56.624C162.864 56.288 162.419 56.12 161.891 56.12C161.427 56.12 161.008 56.256 160.635 56.528C160.262 56.7947 159.963 57.2 159.739 57.744C159.52 58.288 159.411 58.968 159.411 59.784C159.411 60.552 159.507 61.2133 159.699 61.768C159.896 62.3227 160.179 62.7493 160.547 63.048C160.915 63.3467 161.363 63.496 161.891 63.496C162.568 63.496 163.091 63.3173 163.459 62.96C163.832 62.5973 164.019 62.136 164.019 61.576H166.035C166.035 62.3493 165.867 63.008 165.531 63.552C165.2 64.0907 164.726 64.504 164.107 64.792C163.488 65.08 162.75 65.224 161.891 65.224ZM168.416 65V54.616H170.304V65H168.416ZM173.402 65V54.616H177.066C178.234 54.616 179.144 54.904 179.794 55.48C180.45 56.056 180.778 56.872 180.778 57.928C180.778 58.9733 180.45 59.784 179.794 60.36C179.144 60.936 178.234 61.224 177.066 61.224H175.306V65H173.402ZM175.306 59.576H177.066C177.653 59.576 178.096 59.4213 178.394 59.112C178.693 58.8027 178.842 58.408 178.842 57.928C178.842 57.4373 178.693 57.0347 178.394 56.72C178.096 56.4053 177.653 56.248 177.066 56.248H175.306V59.576ZM182.876 65V54.616H189.548V56.248H184.764V58.984H189.26V60.616H184.764V63.352H189.548V65H182.876ZM191.89 63.776C191.89 63.584 191.96 63.4133 192.098 63.264C192.242 63.1147 192.418 63.04 192.626 63.04C192.84 63.04 193.021 63.1147 193.17 63.264C193.32 63.4133 193.394 63.584 193.394 63.776C193.394 63.9733 193.32 64.1413 193.17 64.28C193.021 64.4187 192.84 64.488 192.626 64.488C192.418 64.488 192.242 64.4187 192.098 64.28C191.96 64.1413 191.89 63.9733 191.89 63.776ZM191.89 58.816C191.89 58.624 191.96 58.4533 192.098 58.304C192.242 58.1547 192.418 58.08 192.626 58.08C192.84 58.08 193.021 58.1547 193.17 58.304C193.32 58.4533 193.394 58.624 193.394 58.816C193.394 59.0133 193.32 59.1813 193.17 59.32C193.021 59.4587 192.84 59.528 192.626 59.528C192.418 59.528 192.242 59.4587 192.098 59.32C191.96 59.1813 191.89 59.0133 191.89 58.816Z" fill="#333333"/>
</g>
<defs>
<filter id="filter0_d_7069_6424" x="0" y="0" width="229.035" height="88" filterUnits="userSpaceOnUse" color-interpolation-filters="sRGB">
<feFlood flood-opacity="0" result="BackgroundImageFix"/>
<feColorMatrix in="SourceAlpha" type="matrix" values="0 0 0 0 0 0 0 0 0 0 0 0 0 0 0 0 0 0 127 0" result="hardAlpha"/>
<feOffset dy="4"/>
<feGaussianBlur stdDeviation="3"/>
<feComposite in2="hardAlpha" operator="out"/>
<feColorMatrix type="matrix" values="0 0 0 0 0 0 0 0 0 0 0 0 0 0 0 0 0 0 0.1 0"/>
<feBlend mode="normal" in2="BackgroundImageFix" result="effect1_dropShadow_7069_6424"/>
<feBlend mode="normal" in="SourceGraphic" in2="effect1_dropShadow_7069_6424" result="shape"/>
</filter>
<filter id="filter1_d_7069_6424" x="25.752" y="12.0879" width="186.274" height="63.1357" filterUnits="userSpaceOnUse" color-interpolation-filters="sRGB">
<feFlood flood-opacity="0" result="BackgroundImageFix"/>
<feColorMatrix in="SourceAlpha" type="matrix" values="0 0 0 0 0 0 0 0 0 0 0 0 0 0 0 0 0 0 127 0" result="hardAlpha"/>
<feOffset dy="4"/>
<feGaussianBlur stdDeviation="3"/>
<feComposite in2="hardAlpha" operator="out"/>
<feColorMatrix type="matrix" values="0 0 0 0 0 0 0 0 0 0 0 0 0 0 0 0 0 0 0.05 0"/>
<feBlend mode="normal" in2="BackgroundImageFix" result="effect1_dropShadow_7069_6424"/>
<feBlend mode="normal" in="SourceGraphic" in2="effect1_dropShadow_7069_6424" result="shape"/>
</filter>
</defs>
</svg>
