<svg width="256" height="68" viewBox="0 0 256 68" fill="none" xmlns="http://www.w3.org/2000/svg">
<mask id="path-1-inside-1_7092_6090" fill="white">
<path d="M248.724 27.3669L239 19L239 11C239 6.02944 234.971 2 230 2L9.00022 1.99998C4.02965 1.99998 0.000218166 6.02942 0.000217732 11L0.00021441 49C0.000213975 53.9705 4.02965 58 9.00021 58L230 58C234.971 58 239 53.9706 239 49L239 39.5L248.612 32.0069C250.106 30.8425 250.16 28.6022 248.724 27.3669Z"/>
</mask>
<path d="M248.724 27.3669L239 19L239 11C239 6.02944 234.971 2 230 2L9.00022 1.99998C4.02965 1.99998 0.000218166 6.02942 0.000217732 11L0.00021441 49C0.000213975 53.9705 4.02965 58 9.00021 58L230 58C234.971 58 239 53.9706 239 49L239 39.5L248.612 32.0069C250.106 30.8425 250.16 28.6022 248.724 27.3669Z" fill="white"/>
<path d="M239 19L237.6 19L237.6 19.6423L238.087 20.0612L239 19ZM248.724 27.3669L249.637 26.3056L249.637 26.3056L248.724 27.3669ZM248.612 32.0069L247.751 30.9028L247.751 30.9028L248.612 32.0069ZM239 39.5L238.139 38.3959L237.6 38.8162L237.6 39.5L239 39.5ZM238.087 20.0612L247.811 28.4281L249.637 26.3056L239.913 17.9388L238.087 20.0612ZM247.751 30.9028L238.139 38.3959L239.861 40.6041L249.473 33.1111L247.751 30.9028ZM247.811 28.4281C248.577 29.0869 248.548 30.2817 247.751 30.9028L249.473 33.1111C251.664 31.4032 251.743 28.1175 249.637 26.3056L247.811 28.4281ZM230 56.6L9.00021 56.6L9.00021 59.4L230 59.4L230 56.6ZM1.40021 49L1.40021 11L-1.39978 11L-1.39978 49L1.40021 49ZM9.00022 3.39998L230 3.4L230 0.599997L9.00022 0.599977L9.00022 3.39998ZM237.6 39.5L237.6 49L240.4 49L240.4 39.5L237.6 39.5ZM237.6 11L237.6 19L240.4 19L240.4 11L237.6 11ZM230 3.4C234.198 3.4 237.6 6.80263 237.6 11L240.4 11C240.4 5.25624 235.744 0.599997 230 0.599997L230 3.4ZM1.40021 11C1.40021 6.80261 4.80285 3.39998 9.00022 3.39998L9.00022 0.599977C3.25646 0.599977 -1.39978 5.25622 -1.39978 11L1.40021 11ZM9.00021 56.6C4.80284 56.6 1.40021 53.1973 1.40021 49L-1.39978 49C-1.39978 54.7437 3.25645 59.4 9.00021 59.4L9.00021 56.6ZM230 59.4C235.744 59.4 240.4 54.7438 240.4 49L237.6 49C237.6 53.1974 234.198 56.6 230 56.6L230 59.4Z" fill="white" mask="url(#path-1-inside-1_7092_6090)"/>
<g filter="url(#filter0_d_7092_6090)">
<mask id="path-3-inside-2_7092_6090" fill="white">
<path d="M248.724 27.3669L239 19L239 11C239 6.02944 234.971 2 230 2L34.0002 1.99998C29.0297 1.99998 25.0002 6.02942 25.0002 11L25.0002 49C25.0002 53.9705 29.0296 58 34.0002 58L230 58C234.971 58 239 53.9706 239 49L239 39.5L248.612 32.0069C250.106 30.8425 250.16 28.6022 248.724 27.3669Z"/>
</mask>
<path d="M248.724 27.3669L239 19L239 11C239 6.02944 234.971 2 230 2L34.0002 1.99998C29.0297 1.99998 25.0002 6.02942 25.0002 11L25.0002 49C25.0002 53.9705 29.0296 58 34.0002 58L230 58C234.971 58 239 53.9706 239 49L239 39.5L248.612 32.0069C250.106 30.8425 250.16 28.6022 248.724 27.3669Z" fill="white"/>
<path d="M239 19L237.6 19L237.6 19.6423L238.087 20.0612L239 19ZM248.724 27.3669L249.637 26.3056L249.637 26.3056L248.724 27.3669ZM248.612 32.0069L247.751 30.9028L247.751 30.9028L248.612 32.0069ZM239 39.5L238.139 38.3959L237.6 38.8162L237.6 39.5L239 39.5ZM230 58L230 59.4L230 58ZM34.0002 58L34.0002 56.6L34.0002 58ZM238.087 20.0612L247.811 28.4281L249.637 26.3056L239.913 17.9388L238.087 20.0612ZM247.751 30.9028L238.139 38.3959L239.861 40.6041L249.473 33.1111L247.751 30.9028ZM247.811 28.4281C248.577 29.0869 248.548 30.2817 247.751 30.9028L249.473 33.1111C251.664 31.4032 251.743 28.1175 249.637 26.3056L247.811 28.4281ZM230 56.6L34.0002 56.6L34.0002 59.4L230 59.4L230 56.6ZM26.4002 49L26.4002 11L23.6002 11L23.6002 49L26.4002 49ZM34.0002 3.39998L230 3.4L230 0.599997L34.0002 0.59998L34.0002 3.39998ZM237.6 39.5L237.6 49L240.4 49L240.4 39.5L237.6 39.5ZM237.6 11L237.6 19L240.4 19L240.4 11L237.6 11ZM230 3.4C234.198 3.4 237.6 6.80263 237.6 11L240.4 11C240.4 5.25624 235.744 0.599997 230 0.599997L230 3.4ZM26.4002 11C26.4002 6.80262 29.8028 3.39998 34.0002 3.39998L34.0002 0.59998C28.2565 0.599979 23.6002 5.25622 23.6002 11L26.4002 11ZM34.0002 56.6C29.8028 56.6 26.4002 53.1973 26.4002 49L23.6002 49C23.6002 54.7437 28.2565 59.4 34.0002 59.4L34.0002 56.6ZM230 59.4C235.744 59.4 240.4 54.7438 240.4 49L237.6 49C237.6 53.1974 234.198 56.6 230 56.6L230 59.4Z" fill="#333333" mask="url(#path-3-inside-2_7092_6090)"/>
</g>
<g filter="url(#filter1_d_7092_6090)">
<path d="M42.7509 15.452H44.1589L46.7669 24.396H46.3989L49.0709 16.492H49.9189L52.5589 24.332H52.2069L55.1989 15.452H56.5909L53.0389 25.5H51.7269L49.4069 18.684H49.6469L47.2469 25.5H45.9349L42.7509 15.452ZM64.0397 25.5V21.004C64.0397 20.2733 63.8637 19.7187 63.5117 19.34C63.1651 18.956 62.6904 18.764 62.0877 18.764C61.6291 18.764 61.2317 18.8893 60.8957 19.14C60.5597 19.3907 60.3011 19.7507 60.1197 20.22C59.9384 20.684 59.8477 21.2387 59.8477 21.884H59.3677C59.3677 20.9933 59.4851 20.2333 59.7197 19.604C59.9544 18.9747 60.2957 18.4947 60.7437 18.164C61.1971 17.828 61.7464 17.66 62.3917 17.66C62.9944 17.66 63.5091 17.796 63.9357 18.068C64.3677 18.3347 64.6984 18.7187 64.9277 19.22C65.1571 19.7213 65.2717 20.316 65.2717 21.004V25.5H64.0397ZM58.5997 25.5V14.588H59.8477V25.5H58.5997ZM71.072 25.692C70.4107 25.692 69.8187 25.524 69.296 25.188C68.7787 24.8467 68.368 24.3747 68.064 23.772C67.7653 23.1693 67.616 22.476 67.616 21.692C67.616 20.8547 67.7653 20.1347 68.064 19.532C68.3627 18.9293 68.7707 18.468 69.288 18.148C69.8107 17.8227 70.4053 17.66 71.072 17.66C71.6533 17.66 72.1493 17.7773 72.56 18.012C72.9707 18.2467 73.3013 18.564 73.552 18.964C73.8027 19.364 73.976 19.8173 74.072 20.324C74.1733 20.8253 74.2027 21.3453 74.16 21.884H68.624V21.116H73.336L72.968 21.356C72.984 21.0413 72.9653 20.7267 72.912 20.412C72.864 20.0973 72.7707 19.8093 72.632 19.548C72.4933 19.2813 72.2987 19.068 72.048 18.908C71.7973 18.748 71.4773 18.668 71.088 18.668C70.5973 18.668 70.1867 18.7933 69.856 19.044C69.5253 19.2947 69.2773 19.6253 69.112 20.036C68.9467 20.4413 68.864 20.8813 68.864 21.356V21.868C68.864 22.4013 68.944 22.8787 69.104 23.3C69.2693 23.7213 69.5147 24.0547 69.84 24.3C70.1653 24.5453 70.576 24.668 71.072 24.668C71.568 24.668 71.976 24.548 72.296 24.308C72.616 24.068 72.8107 23.7133 72.88 23.244H74.176C74.096 23.7507 73.9147 24.188 73.632 24.556C73.3493 24.9187 72.9893 25.1987 72.552 25.396C72.1147 25.5933 71.6213 25.692 71.072 25.692ZM76.7947 25.5V17.836H78.0427V25.5H76.7947ZM77.6587 22.044C77.6587 21.0733 77.7521 20.268 77.9387 19.628C78.1254 18.9827 78.3974 18.5027 78.7547 18.188C79.1174 17.868 79.5574 17.708 80.0747 17.708C80.2454 17.708 80.4001 17.7213 80.5387 17.748C80.6827 17.7693 80.8267 17.804 80.9707 17.852L80.8907 19.084C80.7414 19.036 80.5787 18.996 80.4027 18.964C80.2267 18.9267 80.0694 18.908 79.9307 18.908C79.4774 18.908 79.1121 19.0387 78.8347 19.3C78.5574 19.556 78.3547 19.9187 78.2267 20.388C78.1041 20.8573 78.0427 21.4093 78.0427 22.044H77.6587ZM85.392 25.692C84.7307 25.692 84.1387 25.524 83.616 25.188C83.0987 24.8467 82.688 24.3747 82.384 23.772C82.0853 23.1693 81.936 22.476 81.936 21.692C81.936 20.8547 82.0853 20.1347 82.384 19.532C82.6827 18.9293 83.0907 18.468 83.608 18.148C84.1307 17.8227 84.7253 17.66 85.392 17.66C85.9733 17.66 86.4693 17.7773 86.88 18.012C87.2907 18.2467 87.6213 18.564 87.872 18.964C88.1227 19.364 88.296 19.8173 88.392 20.324C88.4933 20.8253 88.5227 21.3453 88.48 21.884H82.944V21.116H87.656L87.288 21.356C87.304 21.0413 87.2853 20.7267 87.232 20.412C87.184 20.0973 87.0907 19.8093 86.952 19.548C86.8133 19.2813 86.6187 19.068 86.368 18.908C86.1173 18.748 85.7973 18.668 85.408 18.668C84.9173 18.668 84.5067 18.7933 84.176 19.044C83.8453 19.2947 83.5973 19.6253 83.432 20.036C83.2667 20.4413 83.184 20.8813 83.184 21.356V21.868C83.184 22.4013 83.264 22.8787 83.424 23.3C83.5893 23.7213 83.8347 24.0547 84.16 24.3C84.4853 24.5453 84.896 24.668 85.392 24.668C85.888 24.668 86.296 24.548 86.616 24.308C86.936 24.068 87.1307 23.7133 87.2 23.244H88.496C88.416 23.7507 88.2347 24.188 87.952 24.556C87.6693 24.9187 87.3093 25.1987 86.872 25.396C86.4347 25.5933 85.9413 25.692 85.392 25.692ZM95.0716 25.5V15.452H96.3196V25.5H95.0716ZM106.361 25.692C105.748 25.692 105.174 25.5267 104.641 25.196C104.113 24.8653 103.686 24.3987 103.361 23.796C103.036 23.1933 102.873 22.4813 102.873 21.66C102.873 20.8173 103.036 20.0973 103.361 19.5C103.686 18.9027 104.113 18.4467 104.641 18.132C105.174 17.8173 105.748 17.66 106.361 17.66C106.793 17.66 107.18 17.7267 107.521 17.86C107.868 17.988 108.169 18.1667 108.425 18.396C108.681 18.6253 108.892 18.8867 109.057 19.18C109.228 19.468 109.353 19.772 109.433 20.092L108.153 20.204C108.02 19.7613 107.796 19.412 107.481 19.156C107.172 18.8947 106.793 18.764 106.345 18.764C105.966 18.764 105.609 18.8733 105.273 19.092C104.942 19.3053 104.673 19.628 104.465 20.06C104.257 20.4867 104.153 21.02 104.153 21.66C104.153 22.252 104.246 22.7667 104.433 23.204C104.625 23.636 104.886 23.972 105.217 24.212C105.548 24.452 105.924 24.572 106.345 24.572C106.937 24.572 107.385 24.428 107.689 24.14C107.998 23.8467 108.153 23.4413 108.153 22.924H109.433C109.433 23.4573 109.308 23.932 109.057 24.348C108.806 24.764 108.449 25.092 107.985 25.332C107.526 25.572 106.985 25.692 106.361 25.692ZM116.819 25.5L116.659 23.82V20.54C116.659 19.852 116.512 19.3587 116.219 19.06C115.926 18.756 115.486 18.604 114.899 18.604C114.568 18.604 114.267 18.652 113.995 18.748C113.728 18.844 113.515 18.9933 113.355 19.196C113.2 19.3933 113.123 19.6493 113.123 19.964H111.731C111.731 19.4093 111.867 18.964 112.139 18.628C112.411 18.2867 112.784 18.0413 113.259 17.892C113.739 17.7373 114.286 17.66 114.899 17.66C115.486 17.66 116.006 17.7587 116.459 17.956C116.912 18.1533 117.267 18.468 117.523 18.9C117.779 19.3267 117.907 19.884 117.907 20.572V25.5H116.819ZM114.211 25.692C113.582 25.692 113.062 25.58 112.651 25.356C112.24 25.132 111.934 24.8413 111.731 24.484C111.528 24.1267 111.427 23.7507 111.427 23.356C111.427 22.8387 111.555 22.4173 111.811 22.092C112.072 21.7667 112.427 21.5293 112.875 21.38C113.323 21.2253 113.827 21.148 114.387 21.148C114.787 21.148 115.187 21.188 115.587 21.268C115.992 21.348 116.387 21.4573 116.771 21.596V22.38C116.451 22.252 116.088 22.1507 115.683 22.076C115.283 22.0013 114.915 21.964 114.579 21.964C114.067 21.964 113.635 22.0707 113.283 22.284C112.931 22.492 112.755 22.8493 112.755 23.356C112.755 23.7293 112.888 24.0493 113.155 24.316C113.427 24.5827 113.859 24.716 114.451 24.716C114.867 24.716 115.24 24.62 115.571 24.428C115.907 24.2307 116.171 23.9853 116.363 23.692C116.56 23.3987 116.659 23.1053 116.659 22.812H116.963C116.963 23.324 116.851 23.7987 116.627 24.236C116.408 24.6733 116.094 25.0253 115.683 25.292C115.272 25.5587 114.782 25.692 114.211 25.692ZM126.495 25.5V21.004C126.495 20.2733 126.319 19.7187 125.967 19.34C125.621 18.956 125.146 18.764 124.543 18.764C124.085 18.764 123.687 18.8893 123.351 19.14C123.015 19.3907 122.757 19.7507 122.575 20.22C122.394 20.684 122.303 21.2387 122.303 21.884H121.823C121.823 20.9933 121.941 20.2333 122.175 19.604C122.41 18.9747 122.751 18.4947 123.199 18.164C123.653 17.828 124.202 17.66 124.847 17.66C125.45 17.66 125.965 17.796 126.391 18.068C126.823 18.3347 127.154 18.7187 127.383 19.22C127.613 19.7213 127.727 20.316 127.727 21.004V25.5H126.495ZM121.055 25.5V17.852H122.127L122.303 19.612V25.5H121.055ZM135.244 25.5V16.668C135.244 16.1613 135.34 15.748 135.532 15.428C135.73 15.1027 135.991 14.8627 136.316 14.708C136.647 14.5533 137.015 14.476 137.42 14.476C137.639 14.476 137.86 14.492 138.084 14.524C138.314 14.556 138.54 14.604 138.764 14.668L138.524 15.66C138.364 15.596 138.204 15.548 138.044 15.516C137.89 15.484 137.74 15.468 137.596 15.468C137.426 15.468 137.255 15.5 137.084 15.564C136.914 15.628 136.772 15.748 136.66 15.924C136.548 16.1 136.492 16.3533 136.492 16.684V25.5H135.244ZM133.996 18.716V17.852H138.076V18.716H133.996ZM141.012 16.044C140.756 16.044 140.554 15.972 140.404 15.828C140.255 15.6787 140.18 15.484 140.18 15.244C140.18 15.0093 140.255 14.8227 140.404 14.684C140.554 14.5453 140.756 14.476 141.012 14.476C141.268 14.476 141.471 14.5453 141.62 14.684C141.77 14.8227 141.844 15.0093 141.844 15.244C141.844 15.484 141.77 15.6787 141.62 15.828C141.471 15.972 141.268 16.044 141.012 16.044ZM140.388 25.5V17.836H141.636V25.5H140.388ZM150.678 25.5V21.004C150.678 20.2733 150.502 19.7187 150.15 19.34C149.804 18.956 149.329 18.764 148.726 18.764C148.268 18.764 147.87 18.8893 147.534 19.14C147.198 19.3907 146.94 19.7507 146.758 20.22C146.577 20.684 146.486 21.2387 146.486 21.884H146.006C146.006 20.9933 146.124 20.2333 146.358 19.604C146.593 18.9747 146.934 18.4947 147.382 18.164C147.836 17.828 148.385 17.66 149.03 17.66C149.633 17.66 150.148 17.796 150.574 18.068C151.006 18.3347 151.337 18.7187 151.566 19.22C151.796 19.7213 151.91 20.316 151.91 21.004V25.5H150.678ZM145.238 25.5V17.852H146.31L146.486 19.612V25.5H145.238ZM157.791 25.692C157.172 25.692 156.604 25.5267 156.087 25.196C155.569 24.86 155.156 24.3907 154.847 23.788C154.537 23.18 154.383 22.4653 154.383 21.644C154.383 20.828 154.535 20.1213 154.839 19.524C155.143 18.9267 155.545 18.468 156.047 18.148C156.553 17.8227 157.108 17.66 157.711 17.66C158.271 17.66 158.761 17.796 159.183 18.068C159.609 18.34 159.94 18.732 160.175 19.244C160.409 19.756 160.527 20.3747 160.527 21.1H160.047C160.047 20.5933 159.945 20.1667 159.743 19.82C159.545 19.4733 159.287 19.212 158.967 19.036C158.647 18.8547 158.303 18.764 157.935 18.764C157.519 18.764 157.137 18.8813 156.791 19.116C156.449 19.3453 156.175 19.676 155.967 20.108C155.764 20.5347 155.663 21.0467 155.663 21.644C155.663 22.252 155.764 22.7747 155.967 23.212C156.175 23.6493 156.449 23.9853 156.791 24.22C157.137 24.4547 157.519 24.572 157.935 24.572C158.281 24.572 158.615 24.4813 158.935 24.3C159.26 24.1187 159.527 23.8547 159.735 23.508C159.943 23.156 160.047 22.732 160.047 22.236H160.527C160.527 22.9773 160.404 23.6067 160.159 24.124C159.919 24.636 159.591 25.0253 159.175 25.292C158.764 25.5587 158.303 25.692 157.791 25.692ZM160.255 25.5L160.047 23.708V14.588H161.295V25.5H160.255ZM174.096 25.5V21.004C174.096 20.2733 173.92 19.7187 173.568 19.34C173.221 18.956 172.747 18.764 172.144 18.764C171.685 18.764 171.288 18.8893 170.952 19.14C170.616 19.3907 170.357 19.7507 170.176 20.22C169.995 20.684 169.904 21.2387 169.904 21.884H169.424C169.424 20.9933 169.541 20.2333 169.776 19.604C170.011 18.9747 170.352 18.4947 170.8 18.164C171.253 17.828 171.803 17.66 172.448 17.66C173.051 17.66 173.565 17.796 173.992 18.068C174.424 18.3347 174.755 18.7187 174.984 19.22C175.213 19.7213 175.328 20.316 175.328 21.004V25.5H174.096ZM168.656 25.5V17.852H169.728L169.904 19.612V25.5H168.656ZM181.24 25.692C180.552 25.692 179.939 25.54 179.4 25.236C178.867 24.932 178.446 24.4813 178.136 23.884C177.827 23.2867 177.672 22.5507 177.672 21.676C177.672 20.796 177.827 20.06 178.136 19.468C178.446 18.8707 178.867 18.42 179.4 18.116C179.939 17.812 180.552 17.66 181.24 17.66C181.923 17.66 182.531 17.812 183.064 18.116C183.603 18.42 184.024 18.8707 184.328 19.468C184.638 20.06 184.792 20.796 184.792 21.676C184.792 22.5507 184.638 23.2867 184.328 23.884C184.024 24.4813 183.603 24.932 183.064 25.236C182.531 25.54 181.923 25.692 181.24 25.692ZM181.208 24.604C181.704 24.604 182.126 24.4867 182.472 24.252C182.819 24.012 183.08 23.6733 183.256 23.236C183.438 22.7987 183.528 22.2787 183.528 21.676C183.528 20.764 183.339 20.0467 182.96 19.524C182.582 18.996 182.019 18.732 181.272 18.732C180.771 18.732 180.347 18.852 180 19.092C179.659 19.3267 179.398 19.6653 179.216 20.108C179.04 20.5453 178.952 21.068 178.952 21.676C178.952 22.5773 179.142 23.292 179.52 23.82C179.904 24.3427 180.467 24.604 181.208 24.604ZM189.734 25.692C189.318 25.692 188.945 25.612 188.614 25.452C188.284 25.292 188.022 25.052 187.83 24.732C187.638 24.412 187.542 24.012 187.542 23.532V15.724H188.774V23.5C188.774 24.2893 189.142 24.684 189.878 24.684C190.097 24.684 190.308 24.66 190.51 24.612C190.718 24.564 190.95 24.492 191.206 24.396L191.382 25.292C191.11 25.4093 190.838 25.5053 190.566 25.58C190.3 25.6547 190.022 25.692 189.734 25.692ZM186.31 18.716V17.852H191.19V18.716H186.31ZM194.262 16.044C194.006 16.044 193.803 15.972 193.654 15.828C193.505 15.6787 193.43 15.484 193.43 15.244C193.43 15.0093 193.505 14.8227 193.654 14.684C193.803 14.5453 194.006 14.476 194.262 14.476C194.518 14.476 194.721 14.5453 194.87 14.684C195.019 14.8227 195.094 15.0093 195.094 15.244C195.094 15.484 195.019 15.6787 194.87 15.828C194.721 15.972 194.518 16.044 194.262 16.044ZM193.638 25.5V17.836H194.886V25.5H193.638ZM201.251 25.692C200.563 25.692 199.95 25.54 199.411 25.236C198.878 24.932 198.457 24.4813 198.147 23.884C197.838 23.2867 197.683 22.5507 197.683 21.676C197.683 20.796 197.838 20.06 198.147 19.468C198.457 18.8707 198.878 18.42 199.411 18.116C199.95 17.812 200.563 17.66 201.251 17.66C201.934 17.66 202.542 17.812 203.075 18.116C203.614 18.42 204.035 18.8707 204.339 19.468C204.649 20.06 204.803 20.796 204.803 21.676C204.803 22.5507 204.649 23.2867 204.339 23.884C204.035 24.4813 203.614 24.932 203.075 25.236C202.542 25.54 201.934 25.692 201.251 25.692ZM201.219 24.604C201.715 24.604 202.137 24.4867 202.483 24.252C202.83 24.012 203.091 23.6733 203.267 23.236C203.449 22.7987 203.539 22.2787 203.539 21.676C203.539 20.764 203.35 20.0467 202.971 19.524C202.593 18.996 202.03 18.732 201.283 18.732C200.782 18.732 200.358 18.852 200.011 19.092C199.67 19.3267 199.409 19.6653 199.227 20.108C199.051 20.5453 198.963 21.068 198.963 21.676C198.963 22.5773 199.153 23.292 199.531 23.82C199.915 24.3427 200.478 24.604 201.219 24.604ZM212.833 25.5V21.004C212.833 20.2733 212.657 19.7187 212.305 19.34C211.959 18.956 211.484 18.764 210.881 18.764C210.423 18.764 210.025 18.8893 209.689 19.14C209.353 19.3907 209.095 19.7507 208.913 20.22C208.732 20.684 208.641 21.2387 208.641 21.884H208.161C208.161 20.9933 208.279 20.2333 208.513 19.604C208.748 18.9747 209.089 18.4947 209.537 18.164C209.991 17.828 210.54 17.66 211.185 17.66C211.788 17.66 212.303 17.796 212.729 18.068C213.161 18.3347 213.492 18.7187 213.721 19.22C213.951 19.7213 214.065 20.316 214.065 21.004V25.5H212.833ZM207.393 25.5V17.852H208.465L208.641 19.612V25.5H207.393ZM219.962 25.692C219.22 25.692 218.602 25.588 218.106 25.38C217.61 25.1667 217.234 24.876 216.978 24.508C216.722 24.1347 216.586 23.708 216.57 23.228H217.77C217.796 23.7133 217.991 24.0787 218.354 24.324C218.722 24.564 219.22 24.684 219.85 24.684C220.18 24.684 220.484 24.6307 220.762 24.524C221.039 24.4173 221.26 24.2707 221.426 24.084C221.591 23.8973 221.674 23.6867 221.674 23.452C221.674 23.1533 221.564 22.9187 221.346 22.748C221.127 22.5773 220.778 22.428 220.298 22.3L218.81 21.82C218.164 21.6173 217.668 21.34 217.322 20.988C216.98 20.6307 216.81 20.204 216.81 19.708C216.81 19.0893 217.082 18.5933 217.626 18.22C218.17 17.8467 218.884 17.66 219.77 17.66C220.708 17.66 221.436 17.852 221.954 18.236C222.471 18.62 222.74 19.1 222.762 19.676H221.53C221.482 19.34 221.311 19.0867 221.018 18.916C220.724 18.74 220.308 18.652 219.77 18.652C219.252 18.652 218.847 18.7693 218.554 19.004C218.266 19.2333 218.122 19.4893 218.122 19.772C218.122 20.3 218.575 20.6893 219.482 20.94L221.002 21.452C221.658 21.6493 222.159 21.908 222.506 22.228C222.858 22.548 223.034 22.956 223.034 23.452C223.034 23.836 222.908 24.1987 222.658 24.54C222.407 24.8813 222.052 25.1587 221.594 25.372C221.135 25.5853 220.591 25.692 219.962 25.692ZM77.8121 45.692C77.1241 45.692 76.5108 45.54 75.9721 45.236C75.4388 44.932 75.0175 44.4813 74.7081 43.884C74.3988 43.2867 74.2441 42.5507 74.2441 41.676C74.2441 40.796 74.3988 40.06 74.7081 39.468C75.0175 38.8707 75.4388 38.42 75.9721 38.116C76.5108 37.812 77.1241 37.66 77.8121 37.66C78.4948 37.66 79.1028 37.812 79.6361 38.116C80.1748 38.42 80.5961 38.8707 80.9001 39.468C81.2095 40.06 81.3641 40.796 81.3641 41.676C81.3641 42.5507 81.2095 43.2867 80.9001 43.884C80.5961 44.4813 80.1748 44.932 79.6361 45.236C79.1028 45.54 78.4948 45.692 77.8121 45.692ZM77.7801 44.604C78.2761 44.604 78.6975 44.4867 79.0441 44.252C79.3908 44.012 79.6521 43.6733 79.8281 43.236C80.0095 42.7987 80.1001 42.2787 80.1001 41.676C80.1001 40.764 79.9108 40.0467 79.5321 39.524C79.1535 38.996 78.5908 38.732 77.8441 38.732C77.3428 38.732 76.9188 38.852 76.5721 39.092C76.2308 39.3267 75.9695 39.6653 75.7881 40.108C75.6121 40.5453 75.5241 41.068 75.5241 41.676C75.5241 42.5773 75.7135 43.292 76.0921 43.82C76.4761 44.3427 77.0388 44.604 77.7801 44.604ZM89.3941 45.5V41.004C89.3941 40.2733 89.2181 39.7187 88.8661 39.34C88.5195 38.956 88.0448 38.764 87.4421 38.764C86.9835 38.764 86.5861 38.8893 86.2501 39.14C85.9141 39.3907 85.6555 39.7507 85.4741 40.22C85.2928 40.684 85.2021 41.2387 85.2021 41.884H84.7221C84.7221 40.9933 84.8395 40.2333 85.0741 39.604C85.3088 38.9747 85.6501 38.4947 86.0981 38.164C86.5515 37.828 87.1008 37.66 87.7461 37.66C88.3488 37.66 88.8635 37.796 89.2901 38.068C89.7221 38.3347 90.0528 38.7187 90.2821 39.22C90.5115 39.7213 90.6261 40.316 90.6261 41.004V45.5H89.3941ZM83.9541 45.5V37.852H85.0261L85.2021 39.612V45.5H83.9541ZM101.391 45.724C100.543 45.724 99.7779 45.5 99.0953 45.052C98.4126 44.604 97.8686 43.98 97.4633 43.18C97.0633 42.3747 96.8633 41.436 96.8633 40.364C96.8633 39.516 96.9859 38.756 97.2313 38.084C97.4819 37.412 97.8286 36.8387 98.2713 36.364C98.7139 35.8893 99.2339 35.5293 99.8313 35.284C100.429 35.0333 101.077 34.908 101.775 34.908C102.746 34.908 103.559 35.1187 104.215 35.54C104.877 35.9613 105.391 36.6253 105.759 37.532L103.823 37.98C103.551 37.5373 103.237 37.2013 102.879 36.972C102.527 36.7373 102.127 36.62 101.679 36.62C101.167 36.62 100.701 36.772 100.279 37.076C99.8579 37.3747 99.5219 37.804 99.2713 38.364C99.0206 38.924 98.8953 39.5907 98.8953 40.364C98.8953 41.0893 99.0046 41.724 99.2233 42.268C99.4473 42.812 99.7593 43.236 100.159 43.54C100.559 43.844 101.023 43.996 101.551 43.996C101.999 43.996 102.399 43.8973 102.751 43.7C103.109 43.4973 103.389 43.2093 103.591 42.836C103.799 42.4627 103.903 42.012 103.903 41.484H104.319C104.319 42.348 104.215 43.0973 104.007 43.732C103.805 44.3667 103.487 44.8573 103.055 45.204C102.623 45.5507 102.069 45.724 101.391 45.724ZM104.175 45.5L103.903 43.212V41.42L101.567 41.372V40.172H105.711V45.5H104.175ZM110.475 35.116V43.852H114.747V45.5H108.587V35.116H110.475ZM115.518 45.5L119.054 35.116H121.422L124.814 45.5H122.83L122.11 43.26H118.254L117.518 45.5H115.518ZM118.734 41.836H121.662L120.206 37.372L118.734 41.836ZM126.509 45.5V43.868L132.541 36.172V36.86L126.509 36.844V35.116H134.365V36.732L128.701 43.996L128.653 43.756L134.365 43.772V45.5H126.509ZM137.052 45.5V35.116H138.94V45.5H137.052ZM142.055 35.116H144.119L148.839 42.524H148.695V35.116H150.583V45.5H148.663L143.639 37.644H143.943V45.5H142.055V35.116ZM157.508 45.724C156.66 45.724 155.894 45.5 155.212 45.052C154.529 44.604 153.985 43.98 153.58 43.18C153.18 42.3747 152.98 41.436 152.98 40.364C152.98 39.516 153.102 38.756 153.348 38.084C153.598 37.412 153.945 36.8387 154.388 36.364C154.83 35.8893 155.35 35.5293 155.948 35.284C156.545 35.0333 157.193 34.908 157.892 34.908C158.862 34.908 159.676 35.1187 160.332 35.54C160.993 35.9613 161.508 36.6253 161.876 37.532L159.94 37.98C159.668 37.5373 159.353 37.2013 158.996 36.972C158.644 36.7373 158.244 36.62 157.796 36.62C157.284 36.62 156.817 36.772 156.396 37.076C155.974 37.3747 155.638 37.804 155.388 38.364C155.137 38.924 155.012 39.5907 155.012 40.364C155.012 41.0893 155.121 41.724 155.34 42.268C155.564 42.812 155.876 43.236 156.276 43.54C156.676 43.844 157.14 43.996 157.668 43.996C158.116 43.996 158.516 43.8973 158.868 43.7C159.225 43.4973 159.505 43.2093 159.708 42.836C159.916 42.4627 160.02 42.012 160.02 41.484H160.436C160.436 42.348 160.332 43.0973 160.124 43.732C159.921 44.3667 159.604 44.8573 159.172 45.204C158.74 45.5507 158.185 45.724 157.508 45.724ZM160.292 45.5L160.02 43.212V41.42L157.684 41.372V40.172H161.828V45.5H160.292ZM167.583 35.116H169.695L172.207 43.836H171.727L174.207 35.804H175.487L178.063 43.708H177.631L180.271 35.116H182.399L178.831 45.5H176.847L174.815 39.372H174.991L172.959 45.5H170.975L167.583 35.116ZM188.179 45.724C187.256 45.724 186.44 45.5213 185.731 45.116C185.027 44.7107 184.475 44.1053 184.075 43.3C183.675 42.4947 183.475 41.4947 183.475 40.3C183.475 39.084 183.675 38.0787 184.075 37.284C184.475 36.484 185.027 35.8893 185.731 35.5C186.44 35.1053 187.256 34.908 188.179 34.908C189.107 34.908 189.926 35.1107 190.635 35.516C191.344 35.916 191.899 36.516 192.299 37.316C192.699 38.116 192.899 39.1107 192.899 40.3C192.899 41.5107 192.699 42.5187 192.299 43.324C191.899 44.1293 191.344 44.732 190.635 45.132C189.926 45.5267 189.107 45.724 188.179 45.724ZM188.179 44.012C189.027 44.012 189.699 43.692 190.195 43.052C190.696 42.412 190.947 41.4893 190.947 40.284C190.947 39.1213 190.696 38.2173 190.195 37.572C189.699 36.9267 189.027 36.604 188.179 36.604C187.347 36.604 186.68 36.9293 186.179 37.58C185.678 38.2253 185.427 39.132 185.427 40.3C185.427 41.5 185.678 42.42 186.179 43.06C186.68 43.6947 187.347 44.012 188.179 44.012ZM199.261 45.724C198.338 45.724 197.522 45.5213 196.813 45.116C196.109 44.7107 195.557 44.1053 195.157 43.3C194.757 42.4947 194.557 41.4947 194.557 40.3C194.557 39.084 194.757 38.0787 195.157 37.284C195.557 36.484 196.109 35.8893 196.813 35.5C197.522 35.1053 198.338 34.908 199.261 34.908C200.189 34.908 201.008 35.1107 201.717 35.516C202.426 35.916 202.981 36.516 203.381 37.316C203.781 38.116 203.981 39.1107 203.981 40.3C203.981 41.5107 203.781 42.5187 203.381 43.324C202.981 44.1293 202.426 44.732 201.717 45.132C201.008 45.5267 200.189 45.724 199.261 45.724ZM199.261 44.012C200.109 44.012 200.781 43.692 201.277 43.052C201.778 42.412 202.029 41.4893 202.029 40.284C202.029 39.1213 201.778 38.2173 201.277 37.572C200.781 36.9267 200.109 36.604 199.261 36.604C198.429 36.604 197.762 36.9293 197.261 37.58C196.76 38.2253 196.509 39.132 196.509 40.3C196.509 41.5 196.76 42.42 197.261 43.06C197.762 43.6947 198.429 44.012 199.261 44.012ZM206.375 35.116H209.735C210.791 35.116 211.716 35.3293 212.511 35.756C213.306 36.1773 213.924 36.7773 214.367 37.556C214.81 38.3347 215.031 39.2547 215.031 40.316C215.031 41.3667 214.81 42.2813 214.367 43.06C213.924 43.8333 213.306 44.4333 212.511 44.86C211.716 45.2867 210.791 45.5 209.735 45.5H206.375V35.116ZM208.263 36.828V43.804H209.735C210.407 43.804 210.986 43.652 211.471 43.348C211.962 43.044 212.338 42.6307 212.599 42.108C212.866 41.58 212.999 40.9827 212.999 40.316C212.999 39.6387 212.866 39.0387 212.599 38.516C212.338 37.9933 211.962 37.5827 211.471 37.284C210.986 36.98 210.407 36.828 209.735 36.828H208.263ZM218.863 42.94V42.22C218.863 41.756 218.911 41.3747 219.007 41.076C219.109 40.7773 219.274 40.5187 219.503 40.3C219.733 40.0813 220.047 39.8627 220.447 39.644C220.805 39.452 221.09 39.2733 221.303 39.108C221.517 38.9427 221.669 38.764 221.759 38.572C221.855 38.38 221.903 38.1453 221.903 37.868C221.903 37.452 221.733 37.1053 221.391 36.828C221.055 36.5507 220.591 36.412 219.999 36.412C219.343 36.412 218.842 36.5427 218.495 36.804C218.149 37.06 217.93 37.42 217.839 37.884H216.511C216.586 37.1053 216.911 36.476 217.487 35.996C218.069 35.516 218.895 35.276 219.967 35.276C220.65 35.276 221.237 35.396 221.727 35.636C222.223 35.8707 222.602 36.188 222.863 36.588C223.13 36.9827 223.263 37.42 223.263 37.9C223.263 38.4493 223.125 38.9107 222.847 39.284C222.57 39.652 222.122 40.0013 221.503 40.332C221.146 40.5293 220.863 40.7133 220.655 40.884C220.453 41.0493 220.309 41.2413 220.223 41.46C220.138 41.6733 220.095 41.9533 220.095 42.3V42.94H218.863ZM219.503 45.692C219.237 45.692 219.015 45.6067 218.839 45.436C218.663 45.26 218.575 45.0493 218.575 44.804C218.575 44.5533 218.661 44.3373 218.831 44.156C219.007 43.9747 219.229 43.884 219.495 43.884C219.762 43.884 219.989 43.9747 220.175 44.156C220.367 44.332 220.463 44.5453 220.463 44.796C220.463 45.0413 220.37 45.252 220.183 45.428C219.997 45.604 219.77 45.692 219.503 45.692Z" fill="#333333"/>
</g>
<defs>
<filter id="filter0_d_7092_6090" x="19" y="0" width="236.768" height="68" filterUnits="userSpaceOnUse" color-interpolation-filters="sRGB">
<feFlood flood-opacity="0" result="BackgroundImageFix"/>
<feColorMatrix in="SourceAlpha" type="matrix" values="0 0 0 0 0 0 0 0 0 0 0 0 0 0 0 0 0 0 127 0" result="hardAlpha"/>
<feOffset dy="4"/>
<feGaussianBlur stdDeviation="3"/>
<feComposite in2="hardAlpha" operator="out"/>
<feColorMatrix type="matrix" values="0 0 0 0 0 0 0 0 0 0 0 0 0 0 0 0 0 0 0.1 0"/>
<feBlend mode="normal" in2="BackgroundImageFix" result="effect1_dropShadow_7092_6090"/>
<feBlend mode="normal" in="SourceGraphic" in2="effect1_dropShadow_7092_6090" result="shape"/>
</filter>
<filter id="filter1_d_7092_6090" x="36.751" y="12.4756" width="192.512" height="43.248" filterUnits="userSpaceOnUse" color-interpolation-filters="sRGB">
<feFlood flood-opacity="0" result="BackgroundImageFix"/>
<feColorMatrix in="SourceAlpha" type="matrix" values="0 0 0 0 0 0 0 0 0 0 0 0 0 0 0 0 0 0 127 0" result="hardAlpha"/>
<feOffset dy="4"/>
<feGaussianBlur stdDeviation="3"/>
<feComposite in2="hardAlpha" operator="out"/>
<feColorMatrix type="matrix" values="0 0 0 0 0 0 0 0 0 0 0 0 0 0 0 0 0 0 0.05 0"/>
<feBlend mode="normal" in2="BackgroundImageFix" result="effect1_dropShadow_7092_6090"/>
<feBlend mode="normal" in="SourceGraphic" in2="effect1_dropShadow_7092_6090" result="shape"/>
</filter>
</defs>
</svg>
