<svg width="256" height="68" viewBox="0 0 256 68" fill="none" xmlns="http://www.w3.org/2000/svg">
<path d="M248.724 27.3669L239 19L239 11C239 6.02944 234.971 2 230 2L9.00022 1.99998C4.02965 1.99998 0.000218166 6.02942 0.000217732 11L0.00021441 49C0.000213975 53.9705 4.02965 58 9.00021 58L230 58C234.971 58 239 53.9706 239 49L239 39.5L248.612 32.0069C250.106 30.8425 250.16 28.6022 248.724 27.3669Z" fill="white"/>
<g filter="url(#filter0_d_7100_5712)">
<mask id="path-2-inside-1_7100_5712" fill="white">
<path d="M248.724 27.3669L239 19L239 11C239 6.02944 234.971 2 230 2L97.0002 1.99999C92.0297 1.99999 88.0002 6.02942 88.0002 11L88.0002 49C88.0002 53.9705 92.0296 58 97.0002 58L230 58C234.971 58 239 53.9706 239 49L239 39.5L248.612 32.0069C250.106 30.8425 250.16 28.6022 248.724 27.3669Z"/>
</mask>
<path d="M248.724 27.3669L239 19L239 11C239 6.02944 234.971 2 230 2L97.0002 1.99999C92.0297 1.99999 88.0002 6.02942 88.0002 11L88.0002 49C88.0002 53.9705 92.0296 58 97.0002 58L230 58C234.971 58 239 53.9706 239 49L239 39.5L248.612 32.0069C250.106 30.8425 250.16 28.6022 248.724 27.3669Z" fill="#FFF2EA"/>
<path d="M239 19L237.6 19L237.6 19.6423L238.087 20.0612L239 19ZM248.724 27.3669L249.637 26.3056L249.637 26.3056L248.724 27.3669ZM248.612 32.0069L247.751 30.9028L247.751 30.9028L248.612 32.0069ZM239 39.5L238.139 38.3959L237.6 38.8162L237.6 39.5L239 39.5ZM230 58L230 59.4L230 59.4L230 58ZM97.0002 58L97.0002 56.6L97.0002 56.6L97.0002 58ZM238.087 20.0612L247.811 28.4281L249.637 26.3056L239.913 17.9388L238.087 20.0612ZM247.751 30.9028L238.139 38.3959L239.861 40.6041L249.473 33.1111L247.751 30.9028ZM247.811 28.4281C248.577 29.0869 248.548 30.2817 247.751 30.9028L249.473 33.1111C251.664 31.4032 251.743 28.1175 249.637 26.3056L247.811 28.4281ZM230 56.6L97.0002 56.6L97.0002 59.4L230 59.4L230 56.6ZM89.4002 49L89.4002 11L86.6002 11L86.6002 49L89.4002 49ZM97.0002 3.39999L230 3.4L230 0.599998L97.0002 0.599987L97.0002 3.39999ZM237.6 39.5L237.6 49L240.4 49L240.4 39.5L237.6 39.5ZM237.6 11L237.6 19L240.4 19L240.4 11L237.6 11ZM230 3.4C234.198 3.4 237.6 6.80264 237.6 11L240.4 11C240.4 5.25624 235.744 0.599999 230 0.599998L230 3.4ZM89.4002 11C89.4002 6.80262 92.8029 3.39999 97.0002 3.39999L97.0002 0.599987C91.2565 0.599986 86.6002 5.25623 86.6002 11L89.4002 11ZM97.0002 56.6C92.8028 56.6 89.4002 53.1973 89.4002 49L86.6002 49C86.6002 54.7437 91.2564 59.4 97.0002 59.4L97.0002 56.6ZM230 59.4C235.744 59.4 240.4 54.7438 240.4 49L237.6 49C237.6 53.1974 234.198 56.6 230 56.6L230 59.4Z" fill="#997452" mask="url(#path-2-inside-1_7100_5712)"/>
</g>
<g filter="url(#filter1_d_7100_5712)">
<path d="M133.847 15.452H135.095V21.868C135.095 22.812 135.332 23.4947 135.807 23.916C136.282 24.332 136.903 24.54 137.671 24.54C138.434 24.54 139.05 24.332 139.519 23.916C139.994 23.4947 140.231 22.812 140.231 21.868V15.452H141.479V21.868C141.479 22.7107 141.322 23.4173 141.007 23.988C140.698 24.5533 140.258 24.98 139.687 25.268C139.116 25.5507 138.444 25.692 137.671 25.692C136.898 25.692 136.223 25.5507 135.647 25.268C135.076 24.98 134.634 24.5533 134.319 23.988C134.004 23.4173 133.847 22.7107 133.847 21.868V15.452ZM150.124 25.5V21.004C150.124 20.2733 149.948 19.7187 149.596 19.34C149.249 18.956 148.775 18.764 148.172 18.764C147.713 18.764 147.316 18.8893 146.98 19.14C146.644 19.3907 146.385 19.7507 146.204 20.22C146.023 20.684 145.932 21.2387 145.932 21.884H145.452C145.452 20.9933 145.569 20.2333 145.804 19.604C146.039 18.9747 146.38 18.4947 146.828 18.164C147.281 17.828 147.831 17.66 148.476 17.66C149.079 17.66 149.593 17.796 150.02 18.068C150.452 18.3347 150.783 18.7187 151.012 19.22C151.241 19.7213 151.356 20.316 151.356 21.004V25.5H150.124ZM144.684 25.5V14.588H145.932V25.5H144.684ZM165.252 25.5V21.004C165.252 20.2733 165.076 19.7187 164.724 19.34C164.378 18.956 163.908 18.764 163.316 18.764C162.623 18.764 162.092 19.0333 161.724 19.572C161.356 20.1053 161.172 20.844 161.172 21.788H160.596C160.596 21.1 160.663 20.4973 160.796 19.98C160.935 19.4627 161.135 19.0333 161.396 18.692C161.658 18.3453 161.975 18.0867 162.348 17.916C162.722 17.7453 163.146 17.66 163.62 17.66C164.223 17.66 164.738 17.796 165.164 18.068C165.596 18.3347 165.927 18.7187 166.156 19.22C166.386 19.7213 166.5 20.316 166.5 21.004V25.5H165.252ZM154.5 25.5V17.852H155.572L155.716 19.388C155.956 18.8333 156.292 18.4067 156.724 18.108C157.162 17.8093 157.684 17.66 158.292 17.66C158.895 17.66 159.41 17.796 159.836 18.068C160.268 18.3347 160.599 18.7187 160.828 19.22C161.058 19.7213 161.172 20.316 161.172 21.004V25.5H159.94V21.004C159.94 20.2733 159.764 19.7187 159.412 19.34C159.066 18.956 158.591 18.764 157.988 18.764C157.53 18.764 157.132 18.8893 156.796 19.14C156.46 19.3907 156.202 19.7507 156.02 20.22C155.839 20.684 155.748 21.2387 155.748 21.884V25.5H154.5ZM168.493 24.756C168.493 24.5053 168.581 24.2893 168.757 24.108C168.933 23.9267 169.154 23.836 169.421 23.836C169.688 23.836 169.914 23.9267 170.101 24.108C170.288 24.2893 170.381 24.5053 170.381 24.756C170.381 25.0067 170.288 25.2173 170.101 25.388C169.914 25.5587 169.688 25.644 169.421 25.644C169.154 25.644 168.933 25.5587 168.757 25.388C168.581 25.212 168.493 25.0013 168.493 24.756ZM171.513 24.756C171.513 24.5053 171.601 24.2893 171.777 24.108C171.953 23.9267 172.174 23.836 172.441 23.836C172.707 23.836 172.934 23.9267 173.121 24.108C173.307 24.2893 173.401 24.5053 173.401 24.756C173.401 25.0067 173.307 25.2173 173.121 25.388C172.934 25.5587 172.707 25.644 172.441 25.644C172.174 25.644 171.953 25.5587 171.777 25.388C171.601 25.212 171.513 25.0013 171.513 24.756ZM174.532 24.756C174.532 24.5053 174.62 24.2893 174.796 24.108C174.972 23.9267 175.193 23.836 175.46 23.836C175.727 23.836 175.953 23.9267 176.14 24.108C176.327 24.2893 176.42 24.5053 176.42 24.756C176.42 25.0067 176.327 25.2173 176.14 25.388C175.953 25.5587 175.727 25.644 175.46 25.644C175.193 25.644 174.972 25.5587 174.796 25.388C174.62 25.212 174.532 25.0013 174.532 24.756ZM187.38 25.5L187.22 23.82V20.54C187.22 19.852 187.073 19.3587 186.78 19.06C186.487 18.756 186.047 18.604 185.46 18.604C185.129 18.604 184.828 18.652 184.556 18.748C184.289 18.844 184.076 18.9933 183.916 19.196C183.761 19.3933 183.684 19.6493 183.684 19.964H182.292C182.292 19.4093 182.428 18.964 182.7 18.628C182.972 18.2867 183.345 18.0413 183.82 17.892C184.3 17.7373 184.847 17.66 185.46 17.66C186.047 17.66 186.567 17.7587 187.02 17.956C187.473 18.1533 187.828 18.468 188.084 18.9C188.34 19.3267 188.468 19.884 188.468 20.572V25.5H187.38ZM184.772 25.692C184.143 25.692 183.623 25.58 183.212 25.356C182.801 25.132 182.495 24.8413 182.292 24.484C182.089 24.1267 181.988 23.7507 181.988 23.356C181.988 22.8387 182.116 22.4173 182.372 22.092C182.633 21.7667 182.988 21.5293 183.436 21.38C183.884 21.2253 184.388 21.148 184.948 21.148C185.348 21.148 185.748 21.188 186.148 21.268C186.553 21.348 186.948 21.4573 187.332 21.596V22.38C187.012 22.252 186.649 22.1507 186.244 22.076C185.844 22.0013 185.476 21.964 185.14 21.964C184.628 21.964 184.196 22.0707 183.844 22.284C183.492 22.492 183.316 22.8493 183.316 23.356C183.316 23.7293 183.449 24.0493 183.716 24.316C183.988 24.5827 184.42 24.716 185.012 24.716C185.428 24.716 185.801 24.62 186.132 24.428C186.468 24.2307 186.732 23.9853 186.924 23.692C187.121 23.3987 187.22 23.1053 187.22 22.812H187.524C187.524 23.324 187.412 23.7987 187.188 24.236C186.969 24.6733 186.655 25.0253 186.244 25.292C185.833 25.5587 185.343 25.692 184.772 25.692ZM197.057 25.5V21.004C197.057 20.2733 196.881 19.7187 196.529 19.34C196.182 18.956 195.707 18.764 195.105 18.764C194.646 18.764 194.249 18.8893 193.913 19.14C193.577 19.3907 193.318 19.7507 193.137 20.22C192.955 20.684 192.865 21.2387 192.865 21.884H192.385C192.385 20.9933 192.502 20.2333 192.737 19.604C192.971 18.9747 193.313 18.4947 193.761 18.164C194.214 17.828 194.763 17.66 195.409 17.66C196.011 17.66 196.526 17.796 196.953 18.068C197.385 18.3347 197.715 18.7187 197.945 19.22C198.174 19.7213 198.289 20.316 198.289 21.004V25.5H197.057ZM191.617 25.5V17.852H192.689L192.865 19.612V25.5H191.617ZM204.169 25.692C203.55 25.692 202.982 25.5267 202.465 25.196C201.948 24.86 201.534 24.3907 201.225 23.788C200.916 23.18 200.761 22.4653 200.761 21.644C200.761 20.828 200.913 20.1213 201.217 19.524C201.521 18.9267 201.924 18.468 202.425 18.148C202.932 17.8227 203.486 17.66 204.089 17.66C204.649 17.66 205.14 17.796 205.561 18.068C205.988 18.34 206.318 18.732 206.553 19.244C206.788 19.756 206.905 20.3747 206.905 21.1H206.425C206.425 20.5933 206.324 20.1667 206.121 19.82C205.924 19.4733 205.665 19.212 205.345 19.036C205.025 18.8547 204.681 18.764 204.313 18.764C203.897 18.764 203.516 18.8813 203.169 19.116C202.828 19.3453 202.553 19.676 202.345 20.108C202.142 20.5347 202.041 21.0467 202.041 21.644C202.041 22.252 202.142 22.7747 202.345 23.212C202.553 23.6493 202.828 23.9853 203.169 24.22C203.516 24.4547 203.897 24.572 204.313 24.572C204.66 24.572 204.993 24.4813 205.313 24.3C205.638 24.1187 205.905 23.8547 206.113 23.508C206.321 23.156 206.425 22.732 206.425 22.236H206.905C206.905 22.9773 206.782 23.6067 206.537 24.124C206.297 24.636 205.969 25.0253 205.553 25.292C205.142 25.5587 204.681 25.692 204.169 25.692ZM206.633 25.5L206.425 23.708V14.588H207.673V25.5H206.633ZM215.738 16.044C215.482 16.044 215.279 15.972 215.13 15.828C214.981 15.6787 214.906 15.484 214.906 15.244C214.906 15.0093 214.981 14.8227 215.13 14.684C215.279 14.5453 215.482 14.476 215.738 14.476C215.994 14.476 216.197 14.5453 216.346 14.684C216.495 14.8227 216.57 15.0093 216.57 15.244C216.57 15.484 216.495 15.6787 216.346 15.828C216.197 15.972 215.994 16.044 215.738 16.044ZM215.114 25.5V17.836H216.362V25.5H215.114ZM225.4 25.5V21.004C225.4 20.2733 225.224 19.7187 224.872 19.34C224.525 18.956 224.05 18.764 223.448 18.764C222.989 18.764 222.592 18.8893 222.256 19.14C221.92 19.3907 221.661 19.7507 221.48 20.22C221.298 20.684 221.208 21.2387 221.208 21.884H220.728C220.728 20.9933 220.845 20.2333 221.08 19.604C221.314 18.9747 221.656 18.4947 222.104 18.164C222.557 17.828 223.106 17.66 223.752 17.66C224.354 17.66 224.869 17.796 225.296 18.068C225.728 18.3347 226.058 18.7187 226.288 19.22C226.517 19.7213 226.632 20.316 226.632 21.004V25.5H225.4ZM219.96 25.5V17.852H221.032L221.208 19.612V25.5H219.96ZM110.356 45.724C109.636 45.724 108.972 45.5987 108.364 45.348C107.761 45.0973 107.271 44.716 106.892 44.204C106.519 43.692 106.319 43.0413 106.292 42.252H108.148C108.148 42.652 108.247 42.98 108.444 43.236C108.641 43.492 108.905 43.684 109.236 43.812C109.572 43.9347 109.94 43.996 110.34 43.996C110.724 43.996 111.065 43.9453 111.364 43.844C111.668 43.7427 111.905 43.5987 112.076 43.412C112.252 43.22 112.34 42.9933 112.34 42.732C112.34 42.3853 112.233 42.1133 112.02 41.916C111.812 41.7187 111.476 41.5373 111.012 41.372L108.964 40.556C108.164 40.2413 107.551 39.876 107.124 39.46C106.697 39.044 106.484 38.4707 106.484 37.74C106.484 36.8973 106.817 36.2147 107.484 35.692C108.151 35.1693 109.081 34.908 110.276 34.908C111.439 34.908 112.337 35.18 112.972 35.724C113.607 36.2627 113.967 37.0147 114.052 37.98H112.196C112.127 37.5693 111.94 37.2413 111.636 36.996C111.332 36.7453 110.879 36.62 110.276 36.62C109.743 36.62 109.321 36.732 109.012 36.956C108.703 37.1747 108.548 37.452 108.548 37.788C108.548 38.076 108.644 38.3053 108.836 38.476C109.033 38.6413 109.337 38.8013 109.748 38.956L112.02 39.836C112.788 40.1347 113.377 40.5107 113.788 40.964C114.199 41.4173 114.404 41.9853 114.404 42.668C114.404 43.292 114.247 43.8333 113.932 44.292C113.617 44.7453 113.159 45.0973 112.556 45.348C111.953 45.5987 111.22 45.724 110.356 45.724ZM115.775 35.116H117.887L120.399 43.836H119.919L122.399 35.804H123.679L126.255 43.708H125.823L128.463 35.116H130.591L127.023 45.5H125.039L123.007 39.372H123.183L121.151 45.5H119.167L115.775 35.116ZM132.388 45.5V35.116H139.06V36.748H134.276V39.484H138.772V41.116H134.276V43.852H139.06V45.5H132.388ZM141.938 45.5V35.116H148.61V36.748H143.826V39.484H148.322V41.116H143.826V43.852H148.61V45.5H141.938ZM150.113 36.748V35.116H158.433V36.748H154.793L155.217 36.316V45.5H153.329V36.316L153.753 36.748H150.113ZM162.98 36.748V35.116H171.3V36.748H167.66L168.084 36.316V45.5H166.196V36.316L166.62 36.748H162.98ZM173.032 45.5V35.116H176.872C178.114 35.116 179.066 35.4067 179.728 35.988C180.394 36.5693 180.728 37.34 180.728 38.3C180.728 39.244 180.394 40.0067 179.728 40.588C179.066 41.164 178.114 41.452 176.872 41.452H174.92V45.5H173.032ZM178.648 45.5L175.896 40.636H177.912L181.112 45.5H178.648ZM174.92 40.188H176.68C177.373 40.188 177.898 40.0307 178.256 39.716C178.613 39.396 178.792 38.9827 178.792 38.476C178.792 37.9587 178.629 37.5427 178.304 37.228C177.978 36.908 177.501 36.748 176.872 36.748H174.92V40.188ZM183.473 45.5V35.116H190.145V36.748H185.361V39.484H189.857V41.116H185.361V43.852H190.145V45.5H183.473ZM191.903 45.5L195.439 35.116H197.807L201.199 45.5H199.215L198.495 43.26H194.639L193.903 45.5H191.903ZM195.119 41.836H198.047L196.591 37.372L195.119 41.836ZM201.104 36.748V35.116H209.424V36.748H205.784L206.208 36.316V45.5H204.32V36.316L204.744 36.748H201.104ZM214.772 45.724C214.052 45.724 213.388 45.5987 212.78 45.348C212.177 45.0973 211.687 44.716 211.308 44.204C210.935 43.692 210.735 43.0413 210.708 42.252H212.564C212.564 42.652 212.663 42.98 212.86 43.236C213.057 43.492 213.321 43.684 213.652 43.812C213.988 43.9347 214.356 43.996 214.756 43.996C215.14 43.996 215.481 43.9453 215.78 43.844C216.084 43.7427 216.321 43.5987 216.492 43.412C216.668 43.22 216.756 42.9933 216.756 42.732C216.756 42.3853 216.649 42.1133 216.436 41.916C216.228 41.7187 215.892 41.5373 215.428 41.372L213.38 40.556C212.58 40.2413 211.967 39.876 211.54 39.46C211.113 39.044 210.9 38.4707 210.9 37.74C210.9 36.8973 211.233 36.2147 211.9 35.692C212.567 35.1693 213.497 34.908 214.692 34.908C215.855 34.908 216.753 35.18 217.388 35.724C218.023 36.2627 218.383 37.0147 218.468 37.98H216.612C216.543 37.5693 216.356 37.2413 216.052 36.996C215.748 36.7453 215.295 36.62 214.692 36.62C214.159 36.62 213.737 36.732 213.428 36.956C213.119 37.1747 212.964 37.452 212.964 37.788C212.964 38.076 213.06 38.3053 213.252 38.476C213.449 38.6413 213.753 38.8013 214.164 38.956L216.436 39.836C217.204 40.1347 217.793 40.5107 218.204 40.964C218.615 41.4173 218.82 41.9853 218.82 42.668C218.82 43.292 218.663 43.8333 218.348 44.292C218.033 44.7453 217.575 45.0973 216.972 45.348C216.369 45.5987 215.636 45.724 214.772 45.724ZM222.863 42.94V42.22C222.863 41.756 222.911 41.3747 223.007 41.076C223.109 40.7773 223.274 40.5187 223.503 40.3C223.733 40.0813 224.047 39.8627 224.447 39.644C224.805 39.452 225.09 39.2733 225.303 39.108C225.517 38.9427 225.669 38.764 225.759 38.572C225.855 38.38 225.903 38.1453 225.903 37.868C225.903 37.452 225.733 37.1053 225.391 36.828C225.055 36.5507 224.591 36.412 223.999 36.412C223.343 36.412 222.842 36.5427 222.495 36.804C222.149 37.06 221.93 37.42 221.839 37.884H220.511C220.586 37.1053 220.911 36.476 221.487 35.996C222.069 35.516 222.895 35.276 223.967 35.276C224.65 35.276 225.237 35.396 225.727 35.636C226.223 35.8707 226.602 36.188 226.863 36.588C227.13 36.9827 227.263 37.42 227.263 37.9C227.263 38.4493 227.125 38.9107 226.847 39.284C226.57 39.652 226.122 40.0013 225.503 40.332C225.146 40.5293 224.863 40.7133 224.655 40.884C224.453 41.0493 224.309 41.2413 224.223 41.46C224.138 41.6733 224.095 41.9533 224.095 42.3V42.94H222.863ZM223.503 45.692C223.237 45.692 223.015 45.6067 222.839 45.436C222.663 45.26 222.575 45.0493 222.575 44.804C222.575 44.5533 222.661 44.3373 222.831 44.156C223.007 43.9747 223.229 43.884 223.495 43.884C223.762 43.884 223.989 43.9747 224.175 44.156C224.367 44.332 224.463 44.5453 224.463 44.796C224.463 45.0413 224.37 45.252 224.183 45.428C223.997 45.604 223.77 45.692 223.503 45.692Z" fill="#997452"/>
</g>
<defs>
<filter id="filter0_d_7100_5712" x="82" y="0" width="173.768" height="68" filterUnits="userSpaceOnUse" color-interpolation-filters="sRGB">
<feFlood flood-opacity="0" result="BackgroundImageFix"/>
<feColorMatrix in="SourceAlpha" type="matrix" values="0 0 0 0 0 0 0 0 0 0 0 0 0 0 0 0 0 0 127 0" result="hardAlpha"/>
<feOffset dy="4"/>
<feGaussianBlur stdDeviation="3"/>
<feComposite in2="hardAlpha" operator="out"/>
<feColorMatrix type="matrix" values="0 0 0 0 0 0 0 0 0 0 0 0 0 0 0 0 0 0 0.1 0"/>
<feBlend mode="normal" in2="BackgroundImageFix" result="effect1_dropShadow_7100_5712"/>
<feBlend mode="normal" in="SourceGraphic" in2="effect1_dropShadow_7100_5712" result="shape"/>
</filter>
<filter id="filter1_d_7100_5712" x="100.292" y="12.4756" width="132.971" height="43.248" filterUnits="userSpaceOnUse" color-interpolation-filters="sRGB">
<feFlood flood-opacity="0" result="BackgroundImageFix"/>
<feColorMatrix in="SourceAlpha" type="matrix" values="0 0 0 0 0 0 0 0 0 0 0 0 0 0 0 0 0 0 127 0" result="hardAlpha"/>
<feOffset dy="4"/>
<feGaussianBlur stdDeviation="3"/>
<feComposite in2="hardAlpha" operator="out"/>
<feColorMatrix type="matrix" values="0 0 0 0 0 0 0 0 0 0 0 0 0 0 0 0 0 0 0.05 0"/>
<feBlend mode="normal" in2="BackgroundImageFix" result="effect1_dropShadow_7100_5712"/>
<feBlend mode="normal" in="SourceGraphic" in2="effect1_dropShadow_7100_5712" result="shape"/>
</filter>
</defs>
</svg>
