<svg width="319" height="104" viewBox="0 0 319 104" fill="none" xmlns="http://www.w3.org/2000/svg">
<g filter="url(#filter0_d_6957_5444)">
<g filter="url(#filter1_d_6957_5444)">
<path d="M186.8 13C193.521 13 196.881 13 199.448 14.3079C201.706 15.4584 203.542 17.2942 204.692 19.5521C206 22.1191 206 25.4794 206 32.2L206 46.8C206 53.5206 206 56.8809 204.692 59.4479C203.542 61.7058 201.706 63.5416 199.448 64.6921C196.881 66 193.521 66 186.8 66L97.2 66C90.4794 66 87.1191 66 84.5521 64.6921C82.2942 63.5416 80.4584 61.7058 79.3079 59.4479C78 56.8809 78 53.5206 78 46.8L78 32.2C78 25.4794 78 22.119 79.3079 19.5521C80.4584 17.2942 82.2942 15.4584 84.5521 14.3079C87.1191 13 90.4794 13 97.2 13L186.8 13Z" fill="white"/>
<path d="M79.3079 19.5521L81.0899 20.4601L79.3079 19.5521ZM84.5521 64.6921L85.4601 62.9101L84.5521 64.6921ZM79.3079 59.4479L81.0899 58.5399L79.3079 59.4479ZM204.692 59.4479L202.91 58.5399L204.692 59.4479ZM199.448 64.6921L198.54 62.9101L199.448 64.6921ZM204 32.2L204 46.8L208 46.8L208 32.2L204 32.2ZM186.8 64L97.2 64L97.2 68L186.8 68L186.8 64ZM80 46.8L80 32.2L76 32.2L76 46.8L80 46.8ZM97.2 15L186.8 15L186.8 11L97.2 11L97.2 15ZM80 32.2C80 28.8067 80.0016 26.382 80.1568 24.4813C80.3102 22.6039 80.6036 21.4146 81.0899 20.4601L77.5259 18.6441C76.7043 20.2565 76.3437 22.0308 76.1701 24.1556C75.9984 26.2569 76 28.8727 76 32.2L80 32.2ZM97.2 11C93.8727 11 91.2569 10.9984 89.1556 11.1701C87.0309 11.3437 85.2565 11.7043 83.6441 12.5259L85.4601 16.0899C86.4146 15.6036 87.6039 15.3102 89.4813 15.1568C91.382 15.0016 93.8067 15 97.2 15L97.2 11ZM81.0899 20.4601C82.0487 18.5785 83.5785 17.0487 85.4601 16.0899L83.6441 12.5259C81.0099 13.8681 78.8681 16.0099 77.5259 18.6441L81.0899 20.4601ZM97.2 64C93.8067 64 91.382 63.9984 89.4813 63.8432C87.6039 63.6898 86.4146 63.3964 85.4601 62.9101L83.6441 66.4741C85.2565 67.2957 87.0308 67.6563 89.1556 67.8299C91.2569 68.0016 93.8727 68 97.2 68L97.2 64ZM76 46.8C76 50.1273 75.9984 52.7431 76.1701 54.8444C76.3437 56.9691 76.7043 58.7435 77.5259 60.3559L81.0899 58.5399C80.6036 57.5854 80.3102 56.3961 80.1568 54.5187C80.0016 52.618 80 50.1933 80 46.8L76 46.8ZM85.4601 62.9101C83.5785 61.9513 82.0487 60.4215 81.0899 58.5399L77.5259 60.3559C78.8681 62.9901 81.0099 65.1319 83.6441 66.4741L85.4601 62.9101ZM204 46.8C204 50.1933 203.998 52.618 203.843 54.5187C203.69 56.3961 203.396 57.5854 202.91 58.5399L206.474 60.3559C207.296 58.7435 207.656 56.9692 207.83 54.8444C208.002 52.7431 208 50.1273 208 46.8L204 46.8ZM186.8 68C190.127 68 192.743 68.0016 194.844 67.8299C196.969 67.6563 198.743 67.2957 200.356 66.4741L198.54 62.9101C197.585 63.3964 196.396 63.6898 194.519 63.8432C192.618 63.9984 190.193 64 186.8 64L186.8 68ZM202.91 58.5399C201.951 60.4215 200.422 61.9513 198.54 62.9101L200.356 66.4741C202.99 65.1319 205.132 62.9901 206.474 60.3559L202.91 58.5399ZM208 32.2C208 28.8727 208.002 26.2569 207.83 24.1556C207.656 22.0309 207.296 20.2565 206.474 18.6441L202.91 20.4601C203.396 21.4146 203.69 22.6039 203.843 24.4813C203.998 26.382 204 28.8067 204 32.2L208 32.2ZM186.8 15C190.193 15 192.618 15.0016 194.519 15.1568C196.396 15.3102 197.585 15.6036 198.54 16.0899L200.356 12.5259C198.743 11.7043 196.969 11.3437 194.844 11.1701C192.743 10.9984 190.127 11 186.8 11L186.8 15ZM206.474 18.6441C205.132 16.0099 202.99 13.8681 200.356 12.5259L198.54 16.0899C200.422 17.0487 201.951 18.5785 202.91 20.4601L206.474 18.6441Z" fill="#333333"/>
<path d="M71.7065 41.2902L82 50L82 28L71.7066 36.7098C70.2903 37.9082 70.2903 40.0918 71.7065 41.2902Z" fill="white"/>
<path d="M79 50L79 47.3061L71.6755 41.0579C70.2715 39.8602 70.2715 37.6908 71.6755 36.4931L79 30.2449L79 28" stroke="#333333" stroke-width="2"/>
</g>
<g filter="url(#filter2_d_6957_5444)">
<path d="M110.2 80C103.479 80 100.119 80 97.5521 78.6921C95.2942 77.5416 93.4584 75.7058 92.3079 73.4479C91 70.8809 91 67.5206 91 60.8L91 46.2C91 39.4794 91 36.1191 92.3079 33.5521C93.4584 31.2942 95.2942 29.4584 97.5521 28.3079C100.119 27 103.479 27 110.2 27L199.8 27C206.521 27 209.881 27 212.448 28.3079C214.706 29.4584 216.542 31.2942 217.692 33.5521C219 36.1191 219 39.4794 219 46.2L219 60.8C219 67.5206 219 70.8809 217.692 73.4479C216.542 75.7058 214.706 77.5416 212.448 78.6921C209.881 80 206.521 80 199.8 80L110.2 80Z" fill="white"/>
<path d="M217.692 73.4479L215.91 72.5399L217.692 73.4479ZM212.448 28.3079L211.54 30.0899L212.448 28.3079ZM217.692 33.5521L219.474 32.6441L217.692 33.5521ZM97.5521 28.3079L96.6441 26.5259L97.5521 28.3079ZM93 60.8L93 46.2L89 46.2L89 60.8L93 60.8ZM110.2 29L199.8 29L199.8 25L110.2 25L110.2 29ZM217 46.2L217 60.8L221 60.8L221 46.2L217 46.2ZM199.8 78L110.2 78L110.2 82L199.8 82L199.8 78ZM217 60.8C217 64.1933 216.998 66.618 216.843 68.5187C216.69 70.3961 216.396 71.5854 215.91 72.5399L219.474 74.3559C220.296 72.7435 220.656 70.9691 220.83 68.8444C221.002 66.7431 221 64.1273 221 60.8L217 60.8ZM199.8 82C203.127 82 205.743 82.0016 207.844 81.8299C209.969 81.6563 211.743 81.2956 213.356 80.4741L211.54 76.9101C210.585 77.3964 209.396 77.6898 207.519 77.8431C205.618 77.9984 203.193 78 199.8 78L199.8 82ZM215.91 72.5399C214.951 74.4215 213.422 75.9513 211.54 76.9101L213.356 80.4741C215.99 79.1319 218.132 76.9901 219.474 74.3559L215.91 72.5399ZM199.8 29C203.193 29 205.618 29.0016 207.519 29.1568C209.396 29.3102 210.585 29.6036 211.54 30.0899L213.356 26.5259C211.743 25.7043 209.969 25.3437 207.844 25.1701C205.743 24.9984 203.127 25 199.8 25L199.8 29ZM221 46.2C221 42.8727 221.002 40.2569 220.83 38.1556C220.656 36.0309 220.296 34.2565 219.474 32.6441L215.91 34.4601C216.396 35.4146 216.69 36.6039 216.843 38.4813C216.998 40.382 217 42.8067 217 46.2L221 46.2ZM211.54 30.0899C213.422 31.0487 214.951 32.5785 215.91 34.4601L219.474 32.6441C218.132 30.0099 215.99 27.8681 213.356 26.5259L211.54 30.0899ZM93 46.2C93 42.8067 93.0016 40.382 93.1568 38.4813C93.3102 36.6039 93.6036 35.4146 94.0899 34.4601L90.5259 32.6441C89.7043 34.2565 89.3437 36.0309 89.1701 38.1556C88.9984 40.2569 89 42.8727 89 46.2L93 46.2ZM110.2 25C106.873 25 104.257 24.9984 102.156 25.1701C100.031 25.3437 98.2565 25.7044 96.6441 26.5259L98.4601 30.0899C99.4146 29.6036 100.604 29.3102 102.481 29.1569C104.382 29.0016 106.807 29 110.2 29L110.2 25ZM94.0899 34.4601C95.0487 32.5785 96.5785 31.0487 98.4601 30.0899L96.6441 26.5259C94.0099 27.8681 91.8681 30.0099 90.5259 32.6441L94.0899 34.4601ZM89 60.8C89 64.1273 88.9984 66.7431 89.1701 68.8444C89.3437 70.9691 89.7043 72.7435 90.5259 74.3559L94.0899 72.5399C93.6036 71.5854 93.3102 70.3961 93.1568 68.5187C93.0016 66.618 93 64.1933 93 60.8L89 60.8ZM110.2 78C106.807 78 104.382 77.9984 102.481 77.8432C100.604 77.6898 99.4146 77.3964 98.4601 76.9101L96.6441 80.4741C98.2565 81.2957 100.031 81.6563 102.156 81.8299C104.257 82.0016 106.873 82 110.2 82L110.2 78ZM90.5259 74.3559C91.8681 76.9901 94.0099 79.1319 96.6441 80.4741L98.4601 76.9101C96.5785 75.9513 95.0487 74.4215 94.0899 72.5399L90.5259 74.3559Z" fill="#333333"/>
<path d="M225.16 51.4952L214.588 42.8994L214.588 64.7463L225.16 56.1506C226.637 54.95 226.637 52.6957 225.16 51.4952Z" fill="white"/>
<path d="M218.072 43.3364L218.072 45.9581L225.262 51.9562C226.7 53.1555 226.7 55.3642 225.262 56.5636L218.072 62.5617L218.072 64.7464" stroke="#333333" stroke-width="2"/>
</g>
<g clip-path="url(#clip0_6957_5444)" filter="url(#filter3_d_6957_5444)">
<g filter="url(#filter4_d_6957_5444)">
<path d="M255.464 52.4675C254.936 52.2377 254.352 52.1695 253.786 52.2715C253.219 52.3735 252.696 52.6412 252.282 53.0406C251.868 53.4401 251.581 53.9534 251.459 54.5156C251.336 55.0779 251.383 55.6638 251.594 56.1994C251.804 56.7349 252.169 57.196 252.642 57.5243C253.114 57.8526 253.674 58.0334 254.249 58.0438C254.824 58.0543 255.39 57.8938 255.874 57.5829C256.358 57.2719 256.739 56.8243 256.969 56.2968C257.277 55.5894 257.292 54.7885 257.009 54.0704C256.727 53.3522 256.171 52.7757 255.464 52.4675ZM237.954 41.6667C237.247 41.3585 236.446 41.344 235.728 41.6264C235.009 41.9087 234.433 42.4647 234.125 43.1721L231.801 48.5068C231.493 49.2143 231.478 50.0151 231.761 50.7333C232.043 51.4514 232.599 52.0279 233.306 52.3361C234.014 52.6443 234.815 52.6588 235.533 52.3765C236.251 52.0941 236.827 51.5381 237.136 50.8307L239.459 45.496C239.768 44.7886 239.782 43.9877 239.5 43.2696C239.217 42.5514 238.661 41.9749 237.954 41.6667ZM291.301 64.9052C290.594 64.597 289.793 64.5825 289.075 64.8648C288.356 65.1471 287.78 65.7032 287.472 66.4106L285.148 71.7453C284.84 72.4527 284.825 73.2536 285.107 73.9717C285.39 74.6899 285.946 75.2664 286.653 75.5746C287.361 75.8827 288.162 75.8973 288.88 75.6149C289.598 75.3326 290.174 74.7766 290.483 74.0691L292.806 68.7345C293.115 68.027 293.129 67.2262 292.847 66.508C292.564 65.7899 292.008 65.2133 291.301 64.9052ZM286.098 40.4241L275.428 35.7764L276.916 32.3622C277.925 32.248 278.886 31.8716 279.705 31.2706C280.523 30.6696 281.17 29.8648 281.581 28.9363C282.198 27.5215 282.227 25.9197 281.662 24.4835C281.097 23.0472 279.985 21.8941 278.571 21.2778C277.156 20.6614 275.554 20.6324 274.118 21.1971C272.681 21.7617 271.528 22.8738 270.912 24.2886C270.512 25.222 270.363 26.2439 270.481 27.2526C270.598 28.2613 270.977 29.2217 271.581 30.0384L270.094 33.4526L259.424 28.8049C257.302 27.8804 254.899 27.8369 252.745 28.6838C250.591 29.5308 248.861 31.1989 247.936 33.3212L237.479 57.3273C236.555 59.4496 236.511 61.8522 237.358 64.0066C238.205 66.1609 239.873 67.8906 241.995 68.8151L268.669 80.4343C270.791 81.3588 273.194 81.4024 275.348 80.5554C277.502 79.7085 279.232 78.0403 280.157 75.9181L290.614 51.9119C291.538 49.7897 291.582 47.3871 290.735 45.2327C289.888 43.0783 288.22 41.3486 286.098 40.4241ZM275.025 41.9477L271.367 46.7014L264.859 43.8664L265.849 37.9507L275.025 41.9477ZM274.822 73.5942C274.514 74.3017 273.937 74.8577 273.219 75.14C272.501 75.4223 271.7 75.4078 270.993 75.0997L244.319 63.4804C243.612 63.1723 243.056 62.5957 242.773 61.8776C242.491 61.1594 242.506 60.3586 242.814 59.6511L253.271 35.645C253.579 34.9376 254.156 34.3816 254.874 34.0992C255.592 33.8169 256.393 33.8314 257.1 34.1396L260.355 35.5571L258.67 45.1056C258.559 45.7611 258.675 46.435 258.999 47.0153C259.324 47.5955 259.838 48.0471 260.455 48.2948L271.124 52.9424C271.726 53.2256 272.406 53.2942 273.052 53.1368C273.698 52.9793 274.271 52.6054 274.675 52.0772L280.52 44.3413L283.774 45.7588C284.481 46.067 285.037 46.6436 285.32 47.3617C285.602 48.0798 285.587 48.8807 285.279 49.5881L274.822 73.5942ZM271.468 59.4391C270.94 59.2093 270.356 59.141 269.79 59.2431C269.224 59.3451 268.7 59.6127 268.286 60.0122C267.872 60.4116 267.585 60.9249 267.463 61.4872C267.34 62.0494 267.387 62.6354 267.598 63.1709C267.809 63.7064 268.173 64.1675 268.646 64.4958C269.118 64.8241 269.678 65.0049 270.253 65.0154C270.828 65.0258 271.394 64.8654 271.878 64.5544C272.362 64.2434 272.743 63.7959 272.973 63.2683C273.281 62.5609 273.296 61.76 273.013 61.0419C272.731 60.3238 272.175 59.7472 271.468 59.4391Z" fill="#333333"/>
<path d="M274.649 35.437L274.31 36.2162L275.089 36.5557L285.758 41.2034C287.674 42.0379 289.179 43.5991 289.944 45.5437C290.708 47.4883 290.669 49.6569 289.835 51.5725L279.377 75.5786C278.543 77.4942 276.982 78.9999 275.037 79.7644C273.093 80.5288 270.924 80.4895 269.008 79.6551L242.335 68.0358C240.419 67.2014 238.914 65.6401 238.149 63.6956C237.385 61.751 237.424 59.5824 238.258 57.6668L248.716 33.6606C249.55 31.745 251.111 30.2394 253.056 29.4749C255.001 28.7104 257.169 28.7497 259.085 29.5842L269.754 34.2319L270.533 34.5713L270.873 33.792L272.36 30.3778L272.556 29.9279L272.264 29.5332C271.749 28.8358 271.425 28.0157 271.325 27.1544C271.225 26.2939 271.352 25.4221 271.692 24.6257C272.219 23.4187 273.203 22.47 274.429 21.9881C275.655 21.506 277.023 21.5308 278.231 22.057C279.439 22.5833 280.389 23.568 280.871 24.7945C281.353 26.0201 281.328 27.3869 280.803 28.5945C280.452 29.3864 279.9 30.0728 279.202 30.5855C278.503 31.0987 277.682 31.4201 276.82 31.5176L276.332 31.5728L276.136 32.0228L274.649 35.437ZM275.699 42.466L276.362 41.6032L275.364 41.1684L266.189 37.1714L265.191 36.7367L265.011 37.8104L264.021 43.726L263.911 44.3806L264.52 44.6456L271.028 47.4807L271.636 47.7458L272.041 47.2198L275.699 42.466ZM261.192 35.7048L261.308 35.0453L260.694 34.7779L257.44 33.3603C256.526 32.9621 255.491 32.9434 254.563 33.3082C253.635 33.673 252.89 34.3915 252.492 35.3056L242.035 59.3117C241.636 60.2258 241.618 61.2606 241.982 62.1886C242.347 63.1165 243.066 63.8615 243.98 64.2597L270.653 75.8789C271.567 76.2771 272.602 76.2959 273.53 75.9311C274.458 75.5663 275.203 74.8478 275.601 73.9337L286.059 49.9276C286.457 49.0135 286.475 47.9786 286.111 47.0507C285.746 46.1228 285.027 45.3777 284.113 44.9796L280.859 43.562L280.245 43.2946L279.842 43.8289L273.999 51.5609C273.999 51.5615 273.998 51.5621 273.998 51.5627C273.712 51.9356 273.307 52.1997 272.851 52.3109C272.394 52.4224 271.912 52.3738 271.486 52.1734L271.475 52.1681L271.464 52.1632L260.794 47.5155L260.783 47.5105L260.771 47.5059C260.335 47.3306 259.971 47.011 259.741 46.6003C259.512 46.1901 259.429 45.7138 259.508 45.2505C259.508 45.2498 259.508 45.2492 259.508 45.2485L261.192 35.7048ZM253.936 53.1081C254.337 53.0358 254.751 53.0841 255.124 53.2468C255.625 53.4649 256.018 53.873 256.218 54.3814C256.418 54.8897 256.408 55.4566 256.19 55.9573C256.027 56.3308 255.757 56.6476 255.415 56.8677C255.072 57.0878 254.672 57.2013 254.264 57.194C253.857 57.1866 253.461 57.0586 253.127 56.8262C252.792 56.5938 252.534 56.2674 252.385 55.8884C252.236 55.5093 252.203 55.0945 252.289 54.6966C252.376 54.2986 252.579 53.9352 252.872 53.6525C253.165 53.3697 253.536 53.1803 253.936 53.1081ZM236.039 42.4174C236.547 42.2176 237.114 42.2279 237.615 42.446C238.115 42.6641 238.509 43.0722 238.709 43.5806C238.909 44.0889 238.898 44.6558 238.68 45.1565L236.356 50.4912C236.138 50.992 235.73 51.3856 235.222 51.5854C234.713 51.7852 234.147 51.775 233.646 51.5568C233.145 51.3387 232.751 50.9306 232.552 50.4223C232.352 49.9139 232.362 49.347 232.58 48.8463L234.904 43.5116C235.122 43.0108 235.53 42.6173 236.039 42.4174ZM289.386 65.6559C289.894 65.456 290.461 65.4663 290.962 65.6845C291.462 65.9026 291.856 66.3107 292.056 66.819C292.256 67.3274 292.245 67.8942 292.027 68.395L289.703 73.7297C289.485 74.2304 289.077 74.624 288.569 74.8239C288.06 75.0237 287.493 75.0134 286.993 74.7953C286.492 74.5772 286.098 74.1691 285.899 73.6607C285.699 73.1524 285.709 72.5855 285.927 72.0848L288.251 66.7501C288.469 66.2493 288.877 65.8557 289.386 65.6559ZM269.941 60.0796C270.341 60.0074 270.755 60.0557 271.128 60.2183C271.629 60.4365 272.022 60.8446 272.222 61.3529C272.422 61.8612 272.412 62.4281 272.194 62.9289C272.031 63.3023 271.761 63.6191 271.419 63.8392C271.076 64.0593 270.676 64.1729 270.268 64.1655C269.861 64.1581 269.465 64.0301 269.131 63.7978C268.796 63.5654 268.538 63.239 268.389 62.8599C268.24 62.4808 268.207 62.0661 268.293 61.6681C268.38 61.2701 268.583 60.9068 268.876 60.624C269.169 60.3413 269.54 60.1518 269.941 60.0796Z" stroke="white" stroke-width="1.7"/>
</g>
</g>
<g clip-path="url(#clip1_6957_5444)" filter="url(#filter5_d_6957_5444)">
<g filter="url(#filter6_d_6957_5444)">
<path d="M45.4871 42.6929C44.1471 44.2446 42.3211 45.2822 40.3127 45.6333C38.3043 45.9845 36.2345 45.6279 34.4475 44.6229C33.8995 44.3038 33.2498 44.2178 32.6415 44.3837C32.0331 44.5497 31.5159 44.954 31.2036 45.5078C30.8913 46.0615 30.8094 46.7194 30.9761 47.3366C31.1428 47.9538 31.5443 48.4798 32.0923 48.7989C34.8346 50.4035 38.0413 50.9845 41.1531 50.4405C44.2648 49.8964 47.0842 48.262 49.1194 45.8221C49.5267 45.336 49.7259 44.705 49.6733 44.0678C49.6207 43.4307 49.3205 42.8396 48.8388 42.4247C48.6003 42.2192 48.3244 42.0631 48.0269 41.9654C47.7294 41.8677 47.4161 41.8302 47.1048 41.8551C46.4763 41.9054 45.8943 42.2068 45.4871 42.6929V42.6929ZM31.6113 37.2236C32.0739 37.1427 32.5017 36.9245 32.8408 36.5967C33.1799 36.2688 33.4149 35.846 33.5162 35.3816C33.6174 34.9173 33.5804 34.4323 33.4097 33.988C33.239 33.5436 32.9423 33.16 32.5573 32.8854C32.1722 32.6109 31.7159 32.4579 31.2462 32.4457C30.7765 32.4335 30.3145 32.5627 29.9185 32.8169C29.5225 33.0711 29.2103 33.439 29.0215 33.874C28.8327 34.309 28.7757 34.7915 28.8577 35.2606C28.9677 35.8897 29.3196 36.4499 29.836 36.818C30.3524 37.1861 30.991 37.332 31.6113 37.2236ZM44.8153 30.0265C44.3527 30.1074 43.9248 30.3255 43.5858 30.6534C43.2467 30.9812 43.0117 31.4041 42.9104 31.8684C42.8092 32.3328 42.8462 32.8178 43.0169 33.2621C43.1876 33.7064 43.4842 34.0901 43.8693 34.3646C44.2544 34.6391 44.7107 34.7921 45.1804 34.8043C45.6501 34.8165 46.1121 34.6874 46.5081 34.4331C46.9041 34.1789 47.2162 33.811 47.4051 33.376C47.5939 32.9411 47.6509 32.4585 47.5689 31.9894C47.4589 31.3604 47.107 30.8002 46.5906 30.432C46.0742 30.0639 45.4356 29.918 44.8153 30.0265ZM34.896 14.6503C30.2701 15.4591 25.9913 17.6407 22.6007 20.9193C19.21 24.198 16.8598 28.4264 15.8472 33.0698C14.8347 37.7133 15.2052 42.5632 16.9121 47.0063C18.6189 51.4495 21.5853 55.2862 25.4362 58.0314C29.2871 60.7767 33.8496 62.307 38.5466 62.429C43.2436 62.551 47.8642 61.2591 51.8241 58.7168C55.784 56.1744 58.9054 52.4958 60.7935 48.146C62.6816 43.7962 63.2516 38.9707 62.4315 34.2797C61.887 31.1649 60.7428 28.1865 59.0643 25.5143C57.3858 22.8422 55.2059 20.5287 52.649 18.7059C50.0921 16.8832 47.2083 15.5869 44.1622 14.891C41.1161 14.1951 37.9675 14.1134 34.896 14.6503V14.6503ZM42.3599 57.3434C38.6592 57.9903 34.847 57.51 31.4055 55.9629C27.9639 54.4159 25.0476 51.8718 23.0252 48.6522C21.0029 45.4326 19.9653 41.6822 20.0438 37.8753C20.1223 34.0683 21.3133 30.3758 23.4662 27.2647C25.619 24.1535 28.6371 21.7635 32.1387 20.3968C35.6403 19.0301 39.4682 18.7481 43.1383 19.5865C46.8084 20.425 50.1558 22.3461 52.7574 25.107C55.3589 27.8679 57.0976 31.3446 57.7537 35.0975C58.6335 40.1299 57.506 45.3008 54.6191 49.4727C51.7321 53.6446 47.3224 56.4758 42.3599 57.3434V57.3434Z" fill="#333333"/>
<path d="M34.1456 45.1414L34.1456 45.1415L34.1534 45.1458C36.0603 46.2183 38.2704 46.5995 40.416 46.2244C42.5616 45.8493 44.5112 44.7408 45.9412 43.085L45.4871 42.6929L45.947 43.0782C46.2516 42.7146 46.6855 42.4906 47.1527 42.4532C47.3842 42.4347 47.6177 42.4625 47.8397 42.5355C48.0617 42.6084 48.2683 42.7251 48.4472 42.8792C48.8089 43.1908 49.0356 43.636 49.0753 44.1172C49.1151 44.5984 48.9644 45.0729 48.6595 45.4368L48.6587 45.4378C46.7138 47.7693 44.0208 49.33 41.0497 49.8494C38.0787 50.3688 35.0159 49.8144 32.3953 48.281L32.3942 48.2804C31.9839 48.0415 31.6812 47.6463 31.5554 47.1802C31.4295 46.714 31.4917 46.2183 31.7262 45.8025C31.9605 45.3871 32.3471 45.0859 32.7994 44.9626C33.2516 44.8392 33.7357 44.9027 34.1456 45.1414ZM32.4237 36.1653C32.1705 36.4102 31.8518 36.5724 31.5079 36.6325C31.0471 36.7131 30.5709 36.6051 30.1843 36.3294C29.7973 36.0535 29.5318 35.6322 29.4488 35.1573C29.3869 34.8033 29.43 34.4397 29.5719 34.1129C29.7137 33.7862 29.9476 33.5112 30.2426 33.3218C30.5376 33.1324 30.8813 33.0364 31.2306 33.0455C31.58 33.0546 31.9205 33.1684 32.209 33.374C32.4975 33.5797 32.7208 33.868 32.8496 34.2031C32.9783 34.5383 33.0062 34.904 32.9299 35.2538C32.8537 35.6034 32.677 35.9204 32.4237 36.1653ZM44.0028 31.0847C44.2561 30.8399 44.5748 30.6776 44.9186 30.6175C45.3795 30.5369 45.8556 30.645 46.2423 30.9206C46.6293 31.1965 46.8948 31.6178 46.9778 32.0927C47.0397 32.4468 46.9965 32.8103 46.8547 33.1371C46.7128 33.4639 46.479 33.7388 46.184 33.9282C45.889 34.1176 45.5453 34.2136 45.1959 34.2046C44.8466 34.1955 44.506 34.0816 44.2176 33.876C43.9291 33.6703 43.7057 33.382 43.577 33.0469C43.4483 32.7118 43.4204 32.346 43.4967 31.9963C43.5729 31.6466 43.7496 31.3296 44.0028 31.0847ZM23.0177 21.3507C26.3225 18.155 30.4922 16.0293 34.9993 15.2414C37.992 14.7182 41.0601 14.7978 44.0286 15.4759C46.997 16.1541 49.808 17.4175 52.3007 19.1945C54.7935 20.9715 56.9192 23.2273 58.5562 25.8335C60.1933 28.4396 61.3093 31.3448 61.8405 34.383C62.6405 38.959 62.0843 43.6655 60.2431 47.9071C58.402 52.1486 55.359 55.7343 51.5 58.2119C47.6411 60.6894 43.1388 61.9481 38.5622 61.8292C33.9855 61.7104 29.5388 60.2192 25.7845 57.5429C22.0302 54.8665 19.137 51.1251 17.4722 46.7912C15.8073 42.4572 15.4459 37.7265 16.4335 33.1976C17.421 28.6689 19.7128 24.5464 23.0177 21.3507ZM31.1595 56.5102C34.7099 58.1062 38.6438 58.6021 42.4632 57.9344C47.5852 57.0389 52.1349 54.117 55.1124 49.8141C58.0898 45.5116 59.2515 40.1807 58.3448 34.9942C57.6686 31.1262 55.8764 27.5423 53.1941 24.6955C50.5116 21.8487 47.0589 19.8667 43.2719 19.0016C39.4848 18.1365 35.5344 18.4274 31.9206 19.8378C28.3068 21.2483 25.1932 23.7145 22.9728 26.9232C20.7524 30.1319 19.5249 33.939 19.444 37.8629C19.3631 41.7867 20.4324 45.6524 22.5172 48.9713C24.602 52.2903 27.6091 54.9143 31.1595 56.5102Z" stroke="white" stroke-width="1.2"/>
</g>
</g>
<path d="M114.457 62.286C113.045 62.286 111.831 61.922 110.817 61.194C109.803 60.4573 109.023 59.4563 108.477 58.191C107.94 56.917 107.671 55.4653 107.671 53.836C107.671 52.068 107.97 50.5817 108.568 49.377C109.175 48.1637 109.99 47.245 111.012 46.621C112.044 45.997 113.192 45.685 114.457 45.685C116.095 45.685 117.43 46.101 118.461 46.933C119.501 47.765 120.242 48.844 120.684 50.17L119.046 50.534C118.682 49.4507 118.089 48.597 117.265 47.973C116.451 47.3403 115.515 47.024 114.457 47.024C113.547 47.024 112.698 47.284 111.909 47.804C111.129 48.3153 110.497 49.078 110.011 50.092C109.535 51.106 109.296 52.354 109.296 53.836C109.296 55.162 109.478 56.3623 109.842 57.437C110.215 58.503 110.783 59.3523 111.545 59.985C112.308 60.609 113.279 60.921 114.457 60.921C115.844 60.921 116.953 60.5483 117.785 59.803C118.626 59.0577 119.046 58.0653 119.046 56.826H120.723C120.723 57.9527 120.455 58.9233 119.917 59.738C119.38 60.5527 118.639 61.181 117.694 61.623C116.75 62.065 115.671 62.286 114.457 62.286ZM129.213 62.286C128.113 62.286 127.142 62.039 126.301 61.545C125.461 61.051 124.798 60.323 124.312 59.361C123.836 58.399 123.597 57.2203 123.597 55.825C123.597 54.4297 123.836 53.2553 124.312 52.302C124.798 51.34 125.461 50.612 126.301 50.118C127.142 49.624 128.113 49.377 129.213 49.377C130.314 49.377 131.285 49.624 132.125 50.118C132.966 50.612 133.625 51.34 134.101 52.302C134.578 53.2553 134.816 54.4297 134.816 55.825C134.816 57.2203 134.578 58.399 134.101 59.361C133.625 60.323 132.966 61.051 132.125 61.545C131.285 62.039 130.314 62.286 129.213 62.286ZM129.187 60.973C130.097 60.973 130.856 60.7607 131.462 60.336C132.069 59.9027 132.52 59.3003 132.814 58.529C133.118 57.7577 133.269 56.8563 133.269 55.825C133.269 54.2737 132.936 53.0257 132.268 52.081C131.61 51.1363 130.6 50.664 129.239 50.664C128.329 50.664 127.571 50.8807 126.964 51.314C126.366 51.7387 125.916 52.341 125.612 53.121C125.318 53.8923 125.17 54.7937 125.17 55.825C125.17 57.3677 125.5 58.6113 126.158 59.556C126.826 60.5007 127.835 60.973 129.187 60.973ZM148.08 62V54.733C148.08 53.4243 147.763 52.4233 147.131 51.73C146.507 51.0367 145.644 50.69 144.544 50.69C143.738 50.69 143.04 50.911 142.451 51.353C141.87 51.795 141.424 52.4147 141.112 53.212C140.808 54.0093 140.657 54.941 140.657 56.007H139.994C139.994 54.655 140.176 53.485 140.54 52.497C140.912 51.5003 141.458 50.7333 142.178 50.196C142.906 49.65 143.807 49.377 144.882 49.377C145.835 49.377 146.658 49.5893 147.352 50.014C148.054 50.4387 148.595 51.054 148.977 51.86C149.358 52.6573 149.549 53.615 149.549 54.733V62H148.08ZM139.149 62V49.663H140.423L140.657 52.705V62H139.149ZM152.532 45.945H154.248L158.564 60.661H158.057L162.555 47.921H163.582L167.924 60.609H167.417L172.565 45.945H174.229L168.47 62H166.884L162.88 50.365H163.322L159.123 62H157.537L152.532 45.945ZM181.038 62.286C179.963 62.286 179.014 62.013 178.191 61.467C177.376 60.9123 176.735 60.154 176.267 59.192C175.799 58.2213 175.565 57.1163 175.565 55.877C175.565 54.525 175.795 53.3637 176.254 52.393C176.722 51.4223 177.363 50.677 178.178 50.157C179.001 49.637 179.955 49.377 181.038 49.377C181.948 49.377 182.719 49.5633 183.352 49.936C183.993 50.3 184.509 50.7983 184.899 51.431C185.289 52.0637 185.562 52.7787 185.718 53.576C185.883 54.3733 185.948 55.1967 185.913 56.046H176.8V55.006H184.99L184.392 55.396C184.418 54.8327 184.383 54.2737 184.288 53.719C184.201 53.1557 184.032 52.64 183.781 52.172C183.538 51.704 183.196 51.327 182.754 51.041C182.312 50.755 181.744 50.612 181.051 50.612C180.167 50.612 179.43 50.8417 178.841 51.301C178.252 51.7517 177.81 52.341 177.515 53.069C177.229 53.7883 177.086 54.5597 177.086 55.383V56.02C177.086 56.9647 177.229 57.814 177.515 58.568C177.81 59.322 178.247 59.92 178.828 60.362C179.417 60.804 180.154 61.025 181.038 61.025C181.948 61.025 182.689 60.804 183.261 60.362C183.842 59.9113 184.188 59.2527 184.301 58.386H185.913C185.783 59.2093 185.493 59.9113 185.042 60.492C184.6 61.0727 184.037 61.519 183.352 61.831C182.667 62.1343 181.896 62.286 181.038 62.286ZM195.621 62.286C194.771 62.286 194.004 62.0737 193.32 61.649C192.644 61.2157 192.106 60.5917 191.708 59.777C191.309 58.9623 191.11 57.983 191.11 56.839H191.812C191.812 57.7317 191.989 58.4857 192.345 59.101C192.709 59.7077 193.172 60.167 193.736 60.479C194.299 60.791 194.897 60.947 195.53 60.947C196.232 60.947 196.882 60.7433 197.48 60.336C198.078 59.9287 198.559 59.3393 198.923 58.568C199.287 57.7967 199.469 56.8693 199.469 55.786C199.469 54.7113 199.287 53.797 198.923 53.043C198.559 52.289 198.078 51.7083 197.48 51.301C196.882 50.8937 196.223 50.69 195.504 50.69C194.871 50.69 194.273 50.846 193.71 51.158C193.146 51.47 192.687 51.9337 192.332 52.549C191.985 53.1557 191.812 53.914 191.812 54.824H191.11C191.11 53.6887 191.305 52.718 191.695 51.912C192.093 51.0973 192.635 50.4733 193.32 50.04C194.013 49.598 194.806 49.377 195.699 49.377C196.661 49.377 197.545 49.637 198.351 50.157C199.165 50.6683 199.815 51.405 200.301 52.367C200.795 53.3203 201.042 54.46 201.042 55.786C201.042 57.112 200.795 58.2603 200.301 59.231C199.807 60.2017 199.148 60.9557 198.325 61.493C197.501 62.0217 196.6 62.286 195.621 62.286ZM190.304 62V44.32H191.812V59.192L191.448 62H190.304Z" fill="#333333"/>
</g>
<defs>
<filter id="filter0_d_6957_5444" x="0" y="0" width="318.903" height="104" filterUnits="userSpaceOnUse" color-interpolation-filters="sRGB">
<feFlood flood-opacity="0" result="BackgroundImageFix"/>
<feColorMatrix in="SourceAlpha" type="matrix" values="0 0 0 0 0 0 0 0 0 0 0 0 0 0 0 0 0 0 127 0" result="hardAlpha"/>
<feOffset dy="4"/>
<feGaussianBlur stdDeviation="3"/>
<feComposite in2="hardAlpha" operator="out"/>
<feColorMatrix type="matrix" values="0 0 0 0 0 0 0 0 0 0 0 0 0 0 0 0 0 0 0.05 0"/>
<feBlend mode="normal" in2="BackgroundImageFix" result="effect1_dropShadow_6957_5444"/>
<feBlend mode="normal" in="SourceGraphic" in2="effect1_dropShadow_6957_5444" result="shape"/>
</filter>
<filter id="filter1_d_6957_5444" x="63.6226" y="11" width="148.377" height="65" filterUnits="userSpaceOnUse" color-interpolation-filters="sRGB">
<feFlood flood-opacity="0" result="BackgroundImageFix"/>
<feColorMatrix in="SourceAlpha" type="matrix" values="0 0 0 0 0 0 0 0 0 0 0 0 0 0 0 0 0 0 127 0" result="hardAlpha"/>
<feOffset dy="4"/>
<feGaussianBlur stdDeviation="3"/>
<feComposite in2="hardAlpha" operator="out"/>
<feColorMatrix type="matrix" values="0 0 0 0 0 0 0 0 0 0 0 0 0 0 0 0 0 0 0.05 0"/>
<feBlend mode="normal" in2="BackgroundImageFix" result="effect1_dropShadow_6957_5444"/>
<feBlend mode="normal" in="SourceGraphic" in2="effect1_dropShadow_6957_5444" result="shape"/>
</filter>
<filter id="filter2_d_6957_5444" x="85" y="25" width="148.34" height="65" filterUnits="userSpaceOnUse" color-interpolation-filters="sRGB">
<feFlood flood-opacity="0" result="BackgroundImageFix"/>
<feColorMatrix in="SourceAlpha" type="matrix" values="0 0 0 0 0 0 0 0 0 0 0 0 0 0 0 0 0 0 127 0" result="hardAlpha"/>
<feOffset dy="4"/>
<feGaussianBlur stdDeviation="3"/>
<feComposite in2="hardAlpha" operator="out"/>
<feColorMatrix type="matrix" values="0 0 0 0 0 0 0 0 0 0 0 0 0 0 0 0 0 0 0.05 0"/>
<feBlend mode="normal" in2="BackgroundImageFix" result="effect1_dropShadow_6957_5444"/>
<feBlend mode="normal" in="SourceGraphic" in2="effect1_dropShadow_6957_5444" result="shape"/>
</filter>
<filter id="filter3_d_6957_5444" x="215" y="0" width="103.902" height="103.903" filterUnits="userSpaceOnUse" color-interpolation-filters="sRGB">
<feFlood flood-opacity="0" result="BackgroundImageFix"/>
<feColorMatrix in="SourceAlpha" type="matrix" values="0 0 0 0 0 0 0 0 0 0 0 0 0 0 0 0 0 0 127 0" result="hardAlpha"/>
<feOffset dy="4"/>
<feGaussianBlur stdDeviation="3"/>
<feComposite in2="hardAlpha" operator="out"/>
<feColorMatrix type="matrix" values="0 0 0 0 0 0 0 0 0 0 0 0 0 0 0 0 0 0 0.05 0"/>
<feBlend mode="normal" in2="BackgroundImageFix" result="effect1_dropShadow_6957_5444"/>
<feBlend mode="normal" in="SourceGraphic" in2="effect1_dropShadow_6957_5444" result="shape"/>
</filter>
<filter id="filter4_d_6957_5444" x="225.559" y="18.7936" width="73.4896" height="72.367" filterUnits="userSpaceOnUse" color-interpolation-filters="sRGB">
<feFlood flood-opacity="0" result="BackgroundImageFix"/>
<feColorMatrix in="SourceAlpha" type="matrix" values="0 0 0 0 0 0 0 0 0 0 0 0 0 0 0 0 0 0 127 0" result="hardAlpha"/>
<feOffset dy="4"/>
<feGaussianBlur stdDeviation="3"/>
<feComposite in2="hardAlpha" operator="out"/>
<feColorMatrix type="matrix" values="0 0 0 0 0 0 0 0 0 0 0 0 0 0 0 0 0 0 0.05 0"/>
<feBlend mode="normal" in2="BackgroundImageFix" result="effect1_dropShadow_6957_5444"/>
<feBlend mode="normal" in="SourceGraphic" in2="effect1_dropShadow_6957_5444" result="shape"/>
</filter>
<filter id="filter5_d_6957_5444" x="0" y="2.99986" width="78.0852" height="78.7376" filterUnits="userSpaceOnUse" color-interpolation-filters="sRGB">
<feFlood flood-opacity="0" result="BackgroundImageFix"/>
<feColorMatrix in="SourceAlpha" type="matrix" values="0 0 0 0 0 0 0 0 0 0 0 0 0 0 0 0 0 0 127 0" result="hardAlpha"/>
<feOffset dy="4"/>
<feGaussianBlur stdDeviation="3"/>
<feComposite in2="hardAlpha" operator="out"/>
<feColorMatrix type="matrix" values="0 0 0 0 0 0 0 0 0 0 0 0 0 0 0 0 0 0 0.05 0"/>
<feBlend mode="normal" in2="BackgroundImageFix" result="effect1_dropShadow_6957_5444"/>
<feBlend mode="normal" in="SourceGraphic" in2="effect1_dropShadow_6957_5444" result="shape"/>
</filter>
<filter id="filter6_d_6957_5444" x="9.28894" y="12.3005" width="59.5073" height="60.1365" filterUnits="userSpaceOnUse" color-interpolation-filters="sRGB">
<feFlood flood-opacity="0" result="BackgroundImageFix"/>
<feColorMatrix in="SourceAlpha" type="matrix" values="0 0 0 0 0 0 0 0 0 0 0 0 0 0 0 0 0 0 127 0" result="hardAlpha"/>
<feOffset dy="4"/>
<feGaussianBlur stdDeviation="3"/>
<feComposite in2="hardAlpha" operator="out"/>
<feColorMatrix type="matrix" values="0 0 0 0 0 0 0 0 0 0 0 0 0 0 0 0 0 0 0.05 0"/>
<feBlend mode="normal" in2="BackgroundImageFix" result="effect1_dropShadow_6957_5444"/>
<feBlend mode="normal" in="SourceGraphic" in2="effect1_dropShadow_6957_5444" result="shape"/>
</filter>
<clipPath id="clip0_6957_5444">
<rect width="69.8264" height="69.8264" fill="white" transform="translate(248.886 2) rotate(23.5384)"/>
</clipPath>
<clipPath id="clip1_6957_5444">
<rect width="56.9848" height="57.7874" fill="white" transform="translate(6 14.8135) rotate(-9.9166)"/>
</clipPath>
</defs>
</svg>
