<svg width="52" height="52" viewBox="0 0 52 52" fill="none" xmlns="http://www.w3.org/2000/svg">
<g clip-path="url(#clip0_7044_5978)">
<g filter="url(#filter0_d_7044_5978)">
<rect x="11" y="17" width="30" height="28" fill="white"/>
<rect x="11.5" y="17.5" width="29" height="27" stroke="white"/>
</g>
<path d="M27.5667 15.1663V15.7663H28.1667H36.8333C38.3981 15.7663 39.8988 16.3879 41.0053 17.4944C42.1117 18.6009 42.7333 20.1016 42.7333 21.6663V41.1663C42.7333 42.7311 42.1117 44.2318 41.0053 45.3383C39.8988 46.4447 38.3981 47.0663 36.8333 47.0663H15.1667C13.6019 47.0663 12.1012 46.4447 10.9947 45.3383C9.88826 44.2318 9.26666 42.7311 9.26666 41.1663V21.6663C9.26666 20.1016 9.88826 18.6009 10.9947 17.4944C12.1012 16.3879 13.6019 15.7663 15.1667 15.7663H23.8333H24.4333V15.1663V12.393V12.0466L24.1333 11.8734C23.5691 11.5476 23.0999 11.0799 22.7724 10.5166C22.4453 9.95393 22.2709 9.31547 22.2667 8.66461C22.2671 7.67509 22.6604 6.7262 23.3601 6.02648C24.0603 5.32634 25.0098 4.93301 26 4.93301C26.9901 4.93301 27.9397 5.32634 28.6399 6.02648C29.3396 6.7262 29.7329 7.67509 29.7333 8.6646C29.7291 9.31547 29.5547 9.95393 29.2276 10.5166C28.9001 11.0799 28.4309 11.5476 27.8667 11.8734L27.5667 12.0466V12.393V15.1663ZM30.3087 19.6452L30.4951 18.8997H29.7267H22.2733H21.5049L21.6912 19.6452L22.7746 23.9785L22.8882 24.433H23.3567H28.6433H29.1118L29.2254 23.9785L30.3087 19.6452ZM18.3933 19.3592L18.2827 18.8997H17.81H15.1667C14.4329 18.8997 13.7292 19.1912 13.2103 19.71C12.6915 20.2289 12.4 20.9326 12.4 21.6663V41.1663C12.4 41.9001 12.6915 42.6038 13.2103 43.1227C13.7292 43.6415 14.4329 43.933 15.1667 43.933H36.8333C37.5671 43.933 38.2708 43.6415 38.7896 43.1227C39.3085 42.6038 39.6 41.9001 39.6 41.1663V21.6663C39.6 20.9326 39.3085 20.2289 38.7896 19.71C38.2708 19.1912 37.5671 18.8997 36.8333 18.8997H34.19H33.7173L33.6067 19.3592L31.9175 26.3759C31.9173 26.3764 31.9172 26.3769 31.9171 26.3773C31.8311 26.7244 31.629 27.0316 31.3444 27.2479C31.0593 27.4646 30.7087 27.577 30.3508 27.5666L30.3421 27.5663H30.3333H21.6667H21.6579L21.6492 27.5666C21.2913 27.577 20.9406 27.4646 20.6556 27.2479C20.3709 27.0316 20.1688 26.7244 20.0829 26.3773C20.0828 26.3769 20.0826 26.3764 20.0825 26.3759L18.3933 19.3592ZM18.6296 33.3637C18.8872 33.1916 19.1901 33.0997 19.5 33.0997C19.9155 33.0997 20.314 33.2647 20.6078 33.5585C20.9016 33.8523 21.0667 34.2508 21.0667 34.6663C21.0667 34.9762 20.9748 35.2791 20.8026 35.5367C20.6305 35.7944 20.3858 35.9952 20.0995 36.1138C19.8133 36.2323 19.4983 36.2634 19.1943 36.2029C18.8904 36.1425 18.6113 35.9932 18.3922 35.7741C18.1731 35.555 18.0239 35.2759 17.9634 34.972C17.903 34.6681 17.934 34.3531 18.0526 34.0668C18.1712 33.7805 18.372 33.5359 18.6296 33.3637ZM3.22552 31.3919C3.51933 31.0981 3.91782 30.933 4.33332 30.933C4.74883 30.933 5.14732 31.0981 5.44112 31.3919C5.73493 31.6857 5.89999 32.0842 5.89999 32.4997V36.833C5.89999 37.2485 5.73493 37.647 5.44112 37.9408C5.14732 38.2346 4.74883 38.3997 4.33332 38.3997C3.91782 38.3997 3.51933 38.2346 3.22552 37.9408C2.93172 37.647 2.76666 37.2485 2.76666 36.833V32.4997C2.76666 32.0842 2.93172 31.6857 3.22552 31.3919ZM46.5588 31.3919C46.8527 31.0981 47.2511 30.933 47.6667 30.933C48.0822 30.933 48.4806 31.0981 48.7745 31.3919C49.0683 31.6857 49.2333 32.0842 49.2333 32.4997V36.833C49.2333 37.2485 49.0683 37.647 48.7745 37.9408C48.4806 38.2346 48.0822 38.3997 47.6667 38.3997C47.2511 38.3997 46.8527 38.2346 46.5588 37.9408C46.265 37.647 46.1 37.2485 46.1 36.833V32.4997C46.1 32.0842 46.265 31.6857 46.5588 31.3919ZM31.6296 33.3637C31.8872 33.1916 32.1901 33.0997 32.5 33.0997C32.9155 33.0997 33.314 33.2647 33.6078 33.5585C33.9016 33.8523 34.0667 34.2508 34.0667 34.6663C34.0667 34.9762 33.9748 35.2791 33.8026 35.5367C33.6305 35.7944 33.3858 35.9952 33.0995 36.1138C32.8133 36.2323 32.4983 36.2634 32.1943 36.2029C31.8904 36.1425 31.6113 35.9932 31.3922 35.7741C31.1731 35.555 31.0239 35.2759 30.9634 34.972C30.903 34.6681 30.934 34.3531 31.0526 34.0668C31.1712 33.7805 31.372 33.5359 31.6296 33.3637Z" fill="#567979" stroke="white" stroke-width="1.2"/>
</g>
<defs>
<filter id="filter0_d_7044_5978" x="5" y="15" width="42" height="40" filterUnits="userSpaceOnUse" color-interpolation-filters="sRGB">
<feFlood flood-opacity="0" result="BackgroundImageFix"/>
<feColorMatrix in="SourceAlpha" type="matrix" values="0 0 0 0 0 0 0 0 0 0 0 0 0 0 0 0 0 0 127 0" result="hardAlpha"/>
<feOffset dy="4"/>
<feGaussianBlur stdDeviation="3"/>
<feComposite in2="hardAlpha" operator="out"/>
<feColorMatrix type="matrix" values="0 0 0 0 0 0 0 0 0 0 0 0 0 0 0 0 0 0 0.05 0"/>
<feBlend mode="normal" in2="BackgroundImageFix" result="effect1_dropShadow_7044_5978"/>
<feBlend mode="normal" in="SourceGraphic" in2="effect1_dropShadow_7044_5978" result="shape"/>
</filter>
<clipPath id="clip0_7044_5978">
<rect width="52" height="52" fill="white"/>
</clipPath>
</defs>
</svg>
