<svg width="54" height="57" viewBox="0 0 54 57" fill="none" xmlns="http://www.w3.org/2000/svg">
<g filter="url(#filter0_d_6962_5460)">
<circle cx="27" cy="26" r="21" fill="white"/>
</g>
<path d="M21.5031 31.2928L21.5031 31.2928L21.5101 31.2984C23.0651 32.5522 25.0025 33.2359 27 33.2359C28.9975 33.2359 30.9349 32.5522 32.4899 31.2984L32.1133 30.8313L32.4968 31.2928C32.8169 31.0267 33.2296 30.8987 33.6441 30.9369C33.8493 30.9559 34.0488 31.015 34.2311 31.111C34.4135 31.207 34.5752 31.338 34.7069 31.4965C34.9729 31.8166 35.1009 32.2293 35.0627 32.6438C35.0245 33.0582 34.8232 33.4405 34.5031 33.7066L34.5021 33.7074C32.3971 35.4647 29.7421 36.4272 27 36.4272C24.2579 36.4272 21.6028 35.4647 19.4978 33.7074L19.4968 33.7066C19.1768 33.4405 18.9755 33.0582 18.9372 32.6438C18.899 32.2293 19.027 31.8166 19.2931 31.4965C19.5591 31.1764 19.9414 30.9751 20.3559 30.9369C20.7704 30.8987 21.183 31.0267 21.5031 31.2928ZM21.3704 22.969C21.1127 23.1411 20.8098 23.233 20.5 23.233C20.0845 23.233 19.686 23.0679 19.3922 22.7741C19.0984 22.4803 18.9333 22.0818 18.9333 21.6663C18.9333 21.3565 19.0252 21.0536 19.1974 20.7959C19.3695 20.5383 19.6142 20.3375 19.9004 20.2189C20.1867 20.1004 20.5017 20.0693 20.8056 20.1298C21.1095 20.1902 21.3887 20.3394 21.6078 20.5585C21.8269 20.7776 21.9761 21.0568 22.0366 21.3607C22.097 21.6646 22.066 21.9796 21.9474 22.2659C21.8288 22.5522 21.628 22.7968 21.3704 22.969ZM32.6296 20.3637C32.8872 20.1916 33.1901 20.0997 33.5 20.0997C33.9155 20.0997 34.314 20.2647 34.6078 20.5585C34.9016 20.8523 35.0667 21.2508 35.0667 21.6663C35.0667 21.9762 34.9748 22.2791 34.8026 22.5367C34.6305 22.7944 34.3858 22.9952 34.0995 23.1138C33.8133 23.2323 33.4983 23.2634 33.1943 23.2029C32.8904 23.1425 32.6113 22.9932 32.3922 22.7741C32.1731 22.555 32.0239 22.2759 31.9634 21.972C31.903 21.6681 31.934 21.3531 32.0526 21.0668C32.1712 20.7805 32.372 20.5359 32.6296 20.3637ZM15.296 8.48338C18.7604 6.16855 22.8334 4.93301 27 4.93301C29.7665 4.93301 32.5059 5.47791 35.0619 6.53661C37.6178 7.59531 39.9401 9.14707 41.8964 11.1033C43.8526 13.0595 45.4044 15.3819 46.4631 17.9378C47.5217 20.4937 48.0667 23.2332 48.0667 25.9997C48.0667 30.1663 46.8311 34.2393 44.5163 37.7037C42.2014 41.1681 38.9113 43.8683 35.0619 45.4627C31.2124 47.0572 26.9766 47.4744 22.8901 46.6616C18.8036 45.8487 15.0498 43.8423 12.1036 40.8961C9.15738 37.9498 7.15097 34.1961 6.33811 30.1096C5.52525 26.023 5.94244 21.7872 7.53693 17.9378C9.13141 14.0884 11.8316 10.7982 15.296 8.48338ZM17.0368 40.9107C19.9859 42.8812 23.4531 43.933 27 43.933C31.7562 43.933 36.3176 42.0436 39.6808 38.6805C43.0439 35.3173 44.9333 30.7559 44.9333 25.9997C44.9333 22.4528 43.8815 18.9856 41.911 16.0364C39.9405 13.0873 37.1397 10.7888 33.8628 9.43144C30.5859 8.0741 26.9801 7.71896 23.5014 8.41093C20.0226 9.10289 16.8272 10.8109 14.3192 13.3189C11.8112 15.8269 10.1032 19.0223 9.41124 22.5011C8.71928 25.9798 9.07442 29.5856 10.4317 32.8625C11.7891 36.1394 14.0876 38.9402 17.0368 40.9107Z" fill="#333333" stroke="white" stroke-width="1.2"/>
<defs>
<filter id="filter0_d_6962_5460" x="0" y="3" width="54" height="54" filterUnits="userSpaceOnUse" color-interpolation-filters="sRGB">
<feFlood flood-opacity="0" result="BackgroundImageFix"/>
<feColorMatrix in="SourceAlpha" type="matrix" values="0 0 0 0 0 0 0 0 0 0 0 0 0 0 0 0 0 0 127 0" result="hardAlpha"/>
<feOffset dy="4"/>
<feGaussianBlur stdDeviation="3"/>
<feComposite in2="hardAlpha" operator="out"/>
<feColorMatrix type="matrix" values="0 0 0 0 0 0 0 0 0 0 0 0 0 0 0 0 0 0 0.05 0"/>
<feBlend mode="normal" in2="BackgroundImageFix" result="effect1_dropShadow_6962_5460"/>
<feBlend mode="normal" in="SourceGraphic" in2="effect1_dropShadow_6962_5460" result="shape"/>
</filter>
</defs>
</svg>
