<svg width="339" height="83" viewBox="0 0 339 83" fill="none" xmlns="http://www.w3.org/2000/svg">
<path d="M27.7667 30.1666V30.5666H28.1667H36.8333C38.4512 30.5666 40.0027 31.2093 41.1467 32.3532C42.2907 33.4972 42.9333 35.0488 42.9333 36.6666V56.1666C42.9333 57.7844 42.2907 59.336 41.1467 60.4799C40.0027 61.6239 38.4512 62.2666 36.8333 62.2666H15.1667C13.5489 62.2666 11.9973 61.6239 10.8533 60.4799C9.70935 59.336 9.06667 57.7844 9.06667 56.1666V36.6666C9.06667 35.0488 9.70935 33.4972 10.8533 32.3532C11.9973 31.2093 13.5489 30.5666 15.1667 30.5666H23.8333H24.2333V30.1666V27.3933V27.1623L24.0333 27.0468C23.4389 26.7036 22.9445 26.2108 22.5995 25.6174C22.2547 25.0243 22.071 24.3512 22.0667 23.6651C22.0671 22.6225 22.4814 21.6226 23.2187 20.8853C23.9564 20.1477 24.9568 19.7333 26 19.7333C27.0432 19.7333 28.0436 20.1477 28.7813 20.8853C29.5187 21.6227 29.933 22.6227 29.9333 23.6654C29.929 24.3514 29.7453 25.0243 29.4005 25.6174C29.0555 26.2108 28.5612 26.7036 27.9667 27.0468L27.7667 27.1623V27.3933V30.1666ZM30.1147 34.5969L30.239 34.0999H29.7267H22.2733H21.761L21.8853 34.5969L22.9686 38.9303L23.0444 39.2333H23.3567H28.6433H28.9556L29.0314 38.9303L30.1147 34.5969ZM18.1989 34.4063L18.1251 34.0999H17.81H15.1667C14.4859 34.0999 13.8331 34.3703 13.3518 34.8517C12.8704 35.333 12.6 35.9859 12.6 36.6666V56.1666C12.6 56.8473 12.8704 57.5002 13.3518 57.9815C13.8331 58.4628 14.4859 58.7333 15.1667 58.7333H36.8333C37.5141 58.7333 38.1669 58.4628 38.6482 57.9815C39.1296 57.5002 39.4 56.8473 39.4 56.1666V36.6666C39.4 35.9859 39.1296 35.333 38.6482 34.8517C38.1669 34.3703 37.5141 34.0999 36.8333 34.0999H34.19H33.8749L33.8011 34.4063L32.1117 41.4241C32.1115 41.4245 32.1114 41.4249 32.1113 41.4253C32.0144 41.8168 31.7865 42.1634 31.4654 42.4074C31.144 42.6517 30.7486 42.7785 30.345 42.7668L30.345 42.7666H30.3333H21.6667V42.7664L21.655 42.7668C21.2515 42.7785 20.856 42.6517 20.5346 42.4074C20.2134 42.1633 19.9855 41.8166 19.8886 41.4251C19.8885 41.4247 19.8884 41.4244 19.8884 41.4241L18.1989 34.4063ZM18.5185 48.1977C18.809 48.0035 19.1506 47.8999 19.5 47.8999C19.9686 47.8999 20.4179 48.0861 20.7492 48.4174C21.0805 48.7487 21.2667 49.198 21.2667 49.6666C21.2667 50.016 21.1631 50.3576 20.9689 50.6481C20.7748 50.9386 20.4989 51.1651 20.1761 51.2988C19.8533 51.4325 19.498 51.4675 19.1553 51.3993C18.8126 51.3311 18.4979 51.1629 18.2508 50.9158C18.0037 50.6687 17.8355 50.3539 17.7673 50.0112C17.6991 49.6685 17.7341 49.3133 17.8678 48.9905C18.0015 48.6677 18.228 48.3918 18.5185 48.1977ZM3.08412 46.2507C3.41543 45.9194 3.86479 45.7333 4.33334 45.7333C4.80189 45.7333 5.25125 45.9194 5.58256 46.2507C5.91387 46.582 6.1 47.0314 6.1 47.4999V51.8333C6.1 52.3018 5.91387 52.7512 5.58256 53.0825C5.25125 53.4138 4.80189 53.5999 4.33334 53.5999C3.86479 53.5999 3.41543 53.4138 3.08412 53.0825C2.7528 52.7512 2.56667 52.3018 2.56667 51.8333V47.4999C2.56667 47.0314 2.7528 46.582 3.08412 46.2507ZM46.4174 46.2507C46.7488 45.9194 47.1981 45.7333 47.6667 45.7333C48.1352 45.7333 48.5846 45.9194 48.9159 46.2507C49.2472 46.582 49.4333 47.0314 49.4333 47.4999V51.8333C49.4333 52.3018 49.2472 52.7512 48.9159 53.0825C48.5846 53.4138 48.1352 53.5999 47.6667 53.5999C47.1981 53.5999 46.7488 53.4138 46.4174 53.0825C46.0861 52.7512 45.9 52.3018 45.9 51.8333V47.4999C45.9 47.0314 46.0861 46.582 46.4174 46.2507ZM31.5185 48.1977C31.809 48.0035 32.1506 47.8999 32.5 47.8999C32.9686 47.8999 33.4179 48.0861 33.7492 48.4174C34.0805 48.7487 34.2667 49.198 34.2667 49.6666C34.2667 50.016 34.1631 50.3576 33.9689 50.6481C33.7748 50.9386 33.4989 51.1651 33.1761 51.2988C32.8533 51.4325 32.498 51.4675 32.1553 51.3993C31.8126 51.3311 31.4979 51.1629 31.2508 50.9158C31.0037 50.6687 30.8354 50.3539 30.7673 50.0112C30.6991 49.6685 30.7341 49.3133 30.8678 48.9905C31.0015 48.6677 31.228 48.3918 31.5185 48.1977Z" fill="#333333" stroke="white" stroke-width="0.8"/>
<path d="M69 12.8C69 8.31958 69 6.07937 69.8719 4.36808C70.6389 2.86278 71.8628 1.63893 73.3681 0.871948C75.0794 0 77.3196 0 81.8 0H326.2C330.68 0 332.921 0 334.632 0.871948C336.137 1.63893 337.361 2.86278 338.128 4.36808C339 6.07937 339 8.31958 339 12.8V70.2C339 74.6804 339 76.9206 338.128 78.6319C337.361 80.1372 336.137 81.3611 334.632 82.1281C332.921 83 330.68 83 326.2 83H81.8C77.3196 83 75.0794 83 73.3681 82.1281C71.8628 81.3611 70.6389 80.1372 69.8719 78.6319C69 76.9206 69 74.6804 69 70.2V12.8Z" fill="white"/>
<path d="M84.096 17.524V16.452H91.92V17.524H88.344L88.624 17.236V26.5H87.376V17.236L87.656 17.524H84.096ZM99.2316 26.5V22.004C99.2316 21.2733 99.0556 20.7187 98.7036 20.34C98.357 19.956 97.8823 19.764 97.2796 19.764C96.821 19.764 96.4236 19.8893 96.0876 20.14C95.7516 20.3907 95.493 20.7507 95.3116 21.22C95.1303 21.684 95.0396 22.2387 95.0396 22.884H94.5596C94.5596 21.9933 94.677 21.2333 94.9116 20.604C95.1463 19.9747 95.4876 19.4947 95.9356 19.164C96.389 18.828 96.9383 18.66 97.5836 18.66C98.1863 18.66 98.701 18.796 99.1276 19.068C99.5596 19.3347 99.8903 19.7187 100.12 20.22C100.349 20.7213 100.464 21.316 100.464 22.004V26.5H99.2316ZM93.7916 26.5V15.588H95.0396V26.5H93.7916ZM104.312 17.044C104.056 17.044 103.853 16.972 103.704 16.828C103.555 16.6787 103.48 16.484 103.48 16.244C103.48 16.0093 103.555 15.8227 103.704 15.684C103.853 15.5453 104.056 15.476 104.312 15.476C104.568 15.476 104.771 15.5453 104.92 15.684C105.069 15.8227 105.144 16.0093 105.144 16.244C105.144 16.484 105.069 16.6787 104.92 16.828C104.771 16.972 104.568 17.044 104.312 17.044ZM103.688 26.5V18.836H104.936V26.5H103.688ZM111.285 26.692C110.544 26.692 109.925 26.588 109.429 26.38C108.933 26.1667 108.557 25.876 108.301 25.508C108.045 25.1347 107.909 24.708 107.893 24.228H109.093C109.12 24.7133 109.315 25.0787 109.677 25.324C110.045 25.564 110.544 25.684 111.173 25.684C111.504 25.684 111.808 25.6307 112.085 25.524C112.363 25.4173 112.584 25.2707 112.749 25.084C112.915 24.8973 112.997 24.6867 112.997 24.452C112.997 24.1533 112.888 23.9187 112.669 23.748C112.451 23.5773 112.101 23.428 111.621 23.3L110.133 22.82C109.488 22.6173 108.992 22.34 108.645 21.988C108.304 21.6307 108.133 21.204 108.133 20.708C108.133 20.0893 108.405 19.5933 108.949 19.22C109.493 18.8467 110.208 18.66 111.093 18.66C112.032 18.66 112.76 18.852 113.277 19.236C113.795 19.62 114.064 20.1 114.085 20.676H112.853C112.805 20.34 112.635 20.0867 112.341 19.916C112.048 19.74 111.632 19.652 111.093 19.652C110.576 19.652 110.171 19.7693 109.877 20.004C109.589 20.2333 109.445 20.4893 109.445 20.772C109.445 21.3 109.899 21.6893 110.805 21.94L112.326 22.452C112.981 22.6493 113.483 22.908 113.829 23.228C114.181 23.548 114.358 23.956 114.358 24.452C114.358 24.836 114.232 25.1987 113.981 25.54C113.731 25.8813 113.376 26.1587 112.918 26.372C112.459 26.5853 111.915 26.692 111.285 26.692ZM121.761 17.044C121.505 17.044 121.302 16.972 121.153 16.828C121.003 16.6787 120.929 16.484 120.929 16.244C120.929 16.0093 121.003 15.8227 121.153 15.684C121.302 15.5453 121.505 15.476 121.761 15.476C122.017 15.476 122.219 15.5453 122.369 15.684C122.518 15.8227 122.593 16.0093 122.593 16.244C122.593 16.484 122.518 16.6787 122.369 16.828C122.219 16.972 122.017 17.044 121.761 17.044ZM121.137 26.5V18.836H122.385V26.5H121.137ZM128.734 26.692C127.993 26.692 127.374 26.588 126.878 26.38C126.382 26.1667 126.006 25.876 125.75 25.508C125.494 25.1347 125.358 24.708 125.342 24.228H126.542C126.569 24.7133 126.764 25.0787 127.126 25.324C127.494 25.564 127.993 25.684 128.622 25.684C128.953 25.684 129.257 25.6307 129.534 25.524C129.812 25.4173 130.033 25.2707 130.198 25.084C130.364 24.8973 130.446 24.6867 130.446 24.452C130.446 24.1533 130.337 23.9187 130.118 23.748C129.9 23.5773 129.55 23.428 129.07 23.3L127.582 22.82C126.937 22.6173 126.441 22.34 126.094 21.988C125.753 21.6307 125.582 21.204 125.582 20.708C125.582 20.0893 125.854 19.5933 126.398 19.22C126.942 18.8467 127.657 18.66 128.542 18.66C129.481 18.66 130.209 18.852 130.726 19.236C131.244 19.62 131.513 20.1 131.534 20.676H130.302C130.254 20.34 130.084 20.0867 129.79 19.916C129.497 19.74 129.081 19.652 128.542 19.652C128.025 19.652 127.62 19.7693 127.326 20.004C127.038 20.2333 126.894 20.4893 126.894 20.772C126.894 21.3 127.348 21.6893 128.254 21.94L129.774 22.452C130.43 22.6493 130.932 22.908 131.278 23.228C131.63 23.548 131.806 23.956 131.806 24.452C131.806 24.836 131.681 25.1987 131.43 25.54C131.18 25.8813 130.825 26.1587 130.366 26.372C129.908 26.5853 129.364 26.692 128.734 26.692ZM140.857 26.692C140.441 26.692 140.068 26.612 139.737 26.452C139.407 26.292 139.145 26.052 138.953 25.732C138.761 25.412 138.665 25.012 138.665 24.532V16.724H139.897V24.5C139.897 25.2893 140.265 25.684 141.001 25.684C141.22 25.684 141.431 25.66 141.633 25.612C141.841 25.564 142.073 25.492 142.329 25.396L142.505 26.292C142.233 26.4093 141.961 26.5053 141.689 26.58C141.423 26.6547 141.145 26.692 140.857 26.692ZM137.433 19.716V18.852H142.313V19.716H137.433ZM150.121 26.5V22.004C150.121 21.2733 149.945 20.7187 149.593 20.34C149.246 19.956 148.772 19.764 148.169 19.764C147.71 19.764 147.313 19.8893 146.977 20.14C146.641 20.3907 146.382 20.7507 146.201 21.22C146.02 21.684 145.929 22.2387 145.929 22.884H145.449C145.449 21.9933 145.566 21.2333 145.801 20.604C146.036 19.9747 146.377 19.4947 146.825 19.164C147.278 18.828 147.828 18.66 148.473 18.66C149.076 18.66 149.59 18.796 150.017 19.068C150.449 19.3347 150.78 19.7187 151.009 20.22C151.238 20.7213 151.353 21.316 151.353 22.004V26.5H150.121ZM144.681 26.5V15.588H145.929V26.5H144.681ZM157.153 26.692C156.492 26.692 155.9 26.524 155.377 26.188C154.86 25.8467 154.449 25.3747 154.145 24.772C153.847 24.1693 153.697 23.476 153.697 22.692C153.697 21.8547 153.847 21.1347 154.145 20.532C154.444 19.9293 154.852 19.468 155.369 19.148C155.892 18.8227 156.487 18.66 157.153 18.66C157.735 18.66 158.231 18.7773 158.641 19.012C159.052 19.2467 159.383 19.564 159.633 19.964C159.884 20.364 160.057 20.8173 160.153 21.324C160.255 21.8253 160.284 22.3453 160.241 22.884H154.705V22.116H159.417L159.049 22.356C159.065 22.0413 159.047 21.7267 158.993 21.412C158.945 21.0973 158.852 20.8093 158.713 20.548C158.575 20.2813 158.38 20.068 158.129 19.908C157.879 19.748 157.559 19.668 157.169 19.668C156.679 19.668 156.268 19.7933 155.937 20.044C155.607 20.2947 155.359 20.6253 155.193 21.036C155.028 21.4413 154.945 21.8813 154.945 22.356V22.868C154.945 23.4013 155.025 23.8787 155.185 24.3C155.351 24.7213 155.596 25.0547 155.921 25.3C156.247 25.5453 156.657 25.668 157.153 25.668C157.649 25.668 158.057 25.548 158.377 25.308C158.697 25.068 158.892 24.7133 158.961 24.244H160.257C160.177 24.7507 159.996 25.188 159.713 25.556C159.431 25.9187 159.071 26.1987 158.633 26.396C158.196 26.5933 157.703 26.692 157.153 26.692ZM166.705 16.116H168.593V20.452H173.121V16.116H175.009V26.5H173.121V22.1H168.593V26.5H166.705V16.116ZM177.01 26.5L180.546 16.116H182.914L186.306 26.5H184.322L183.602 24.26H179.746L179.01 26.5H177.01ZM180.226 22.836H183.154L181.698 18.372L180.226 22.836ZM188.002 26.5V24.868L194.034 17.172V17.86L188.002 17.844V16.116H195.858V17.732L190.194 24.996L190.146 24.756L195.858 24.772V26.5H188.002ZM198.528 26.5V16.116H205.2V17.748H200.416V20.484H204.912V22.116H200.416V24.852H205.2V26.5H198.528ZM209.983 16.116V24.852H214.255V26.5H208.095V16.116H209.983ZM216.129 16.116H218.193L222.913 23.524H222.769V16.116H224.657V26.5H222.737L217.713 18.644H218.017V26.5H216.129V16.116ZM227.63 16.116H229.518V22.58C229.518 23.4333 229.734 24.0493 230.166 24.428C230.603 24.8067 231.161 24.996 231.838 24.996C232.521 24.996 233.078 24.8067 233.51 24.428C233.942 24.0493 234.158 23.4333 234.158 22.58V16.116H236.046V22.58C236.046 23.4547 235.878 24.2013 235.542 24.82C235.206 25.4387 234.723 25.9107 234.094 26.236C233.47 26.5613 232.718 26.724 231.838 26.724C230.958 26.724 230.203 26.5613 229.574 26.236C228.95 25.9107 228.47 25.4387 228.134 24.82C227.798 24.2013 227.63 23.4547 227.63 22.58V16.116ZM237.605 17.748V16.116H245.925V17.748H242.285L242.709 17.316V26.5H240.821V17.316L241.245 17.748H237.605ZM255.64 26.724C254.728 26.724 253.933 26.508 253.256 26.076C252.584 25.6387 252.061 25.0147 251.688 24.204C251.314 23.3933 251.128 22.42 251.128 21.284C251.128 20.1107 251.32 19.1267 251.704 18.332C252.093 17.532 252.626 16.9293 253.304 16.524C253.986 16.1133 254.765 15.908 255.64 15.908C256.85 15.908 257.794 16.2013 258.472 16.788C259.154 17.3747 259.592 18.1373 259.784 19.076L257.768 19.444C257.602 18.9 257.338 18.46 256.976 18.124C256.613 17.788 256.168 17.62 255.64 17.62C255.176 17.62 254.757 17.756 254.384 18.028C254.01 18.2947 253.712 18.7 253.488 19.244C253.269 19.788 253.16 20.468 253.16 21.284C253.16 22.052 253.256 22.7133 253.448 23.268C253.645 23.8227 253.928 24.2493 254.296 24.548C254.664 24.8467 255.112 24.996 255.64 24.996C256.317 24.996 256.84 24.8173 257.208 24.46C257.581 24.0973 257.768 23.636 257.768 23.076H259.784C259.784 23.8493 259.616 24.508 259.28 25.052C258.949 25.5907 258.474 26.004 257.856 26.292C257.237 26.58 256.498 26.724 255.64 26.724ZM261.028 26.5L264.564 16.116H266.932L270.324 26.5H268.34L267.62 24.26H263.764L263.028 26.5H261.028ZM264.244 22.836H267.172L265.716 18.372L264.244 22.836ZM278.34 16.116H280.932L274.084 23.124V20.548L278.34 16.116ZM276.036 20.404L281.22 26.5H278.788L274.724 21.636L276.036 20.404ZM272.34 16.116H274.244V26.5H272.34V16.116ZM282.953 26.5V16.116H289.625V17.748H284.841V20.484H289.337V22.116H284.841V24.852H289.625V26.5H282.953ZM85.488 46.5V36.116H89.328C90.5707 36.116 91.5227 36.4067 92.184 36.988C92.8507 37.5693 93.184 38.34 93.184 39.3C93.184 40.244 92.8507 41.0067 92.184 41.588C91.5227 42.164 90.5707 42.452 89.328 42.452H87.376V46.5H85.488ZM91.104 46.5L88.352 41.636H90.368L93.568 46.5H91.104ZM87.376 41.188H89.136C89.8293 41.188 90.3547 41.0307 90.712 40.716C91.0693 40.396 91.248 39.9827 91.248 39.476C91.248 38.9587 91.0853 38.5427 90.76 38.228C90.4347 37.908 89.9573 37.748 89.328 37.748H87.376V41.188ZM95.9289 46.5V36.116H102.601V37.748H97.8169V40.484H102.313V42.116H97.8169V44.852H102.601V46.5H95.9289ZM109.272 46.724C108.359 46.724 107.565 46.508 106.887 46.076C106.215 45.6387 105.693 45.0147 105.319 44.204C104.946 43.3933 104.759 42.42 104.759 41.284C104.759 40.1107 104.951 39.1267 105.335 38.332C105.725 37.532 106.258 36.9293 106.935 36.524C107.618 36.1133 108.397 35.908 109.272 35.908C110.482 35.908 111.426 36.2013 112.104 36.788C112.786 37.3747 113.224 38.1373 113.415 39.076L111.399 39.444C111.234 38.9 110.97 38.46 110.608 38.124C110.245 37.788 109.799 37.62 109.272 37.62C108.808 37.62 108.389 37.756 108.016 38.028C107.642 38.2947 107.343 38.7 107.119 39.244C106.901 39.788 106.791 40.468 106.791 41.284C106.791 42.052 106.887 42.7133 107.079 43.268C107.277 43.8227 107.559 44.2493 107.927 44.548C108.295 44.8467 108.743 44.996 109.272 44.996C109.949 44.996 110.471 44.8173 110.839 44.46C111.213 44.0973 111.399 43.636 111.399 43.076H113.415C113.415 43.8493 113.247 44.508 112.911 45.052C112.581 45.5907 112.106 46.004 111.488 46.292C110.869 46.58 110.13 46.724 109.272 46.724ZM115.796 46.5V36.116H117.684V46.5H115.796ZM120.783 46.5V36.116H124.447C125.615 36.116 126.524 36.404 127.175 36.98C127.831 37.556 128.159 38.372 128.159 39.428C128.159 40.4733 127.831 41.284 127.175 41.86C126.524 42.436 125.615 42.724 124.447 42.724H122.687V46.5H120.783ZM122.687 41.076H124.447C125.034 41.076 125.476 40.9213 125.775 40.612C126.074 40.3027 126.223 39.908 126.223 39.428C126.223 38.9373 126.074 38.5347 125.775 38.22C125.476 37.9053 125.034 37.748 124.447 37.748H122.687V41.076ZM130.256 46.5V36.116H136.928V37.748H132.144V40.484H136.64V42.116H132.144V44.852H136.928V46.5H130.256ZM147.38 46.692C146.82 46.692 146.332 46.564 145.916 46.308C145.505 46.052 145.188 45.6787 144.964 45.188C144.74 44.692 144.628 44.0893 144.628 43.38H145.156C145.156 43.8547 145.255 44.2547 145.452 44.58C145.649 44.9053 145.905 45.1533 146.22 45.324C146.54 45.4893 146.879 45.572 147.236 45.572C147.62 45.572 147.988 45.4627 148.34 45.244C148.692 45.02 148.98 44.692 149.204 44.26C149.428 43.828 149.54 43.2947 149.54 42.66C149.54 42.052 149.436 41.532 149.228 41.1C149.025 40.668 148.751 40.3373 148.404 40.108C148.057 39.8787 147.673 39.764 147.252 39.764C146.889 39.764 146.548 39.852 146.228 40.028C145.908 40.204 145.649 40.4627 145.452 40.804C145.255 41.14 145.156 41.556 145.156 42.052H144.628C144.628 41.3107 144.751 40.6893 144.996 40.188C145.241 39.6813 145.575 39.3 145.996 39.044C146.417 38.788 146.889 38.66 147.412 38.66C148.009 38.66 148.567 38.82 149.084 39.14C149.601 39.46 150.02 39.9187 150.34 40.516C150.66 41.1133 150.82 41.828 150.82 42.66C150.82 43.5027 150.657 44.2253 150.332 44.828C150.012 45.4307 149.591 45.892 149.068 46.212C148.545 46.532 147.983 46.692 147.38 46.692ZM143.908 50.26V38.852H144.948L145.156 40.644V50.26H143.908ZM158.163 46.5L158.003 44.82V41.54C158.003 40.852 157.857 40.3587 157.563 40.06C157.27 39.756 156.83 39.604 156.243 39.604C155.913 39.604 155.611 39.652 155.339 39.748C155.073 39.844 154.859 39.9933 154.699 40.196C154.545 40.3933 154.467 40.6493 154.467 40.964H153.075C153.075 40.4093 153.211 39.964 153.483 39.628C153.755 39.2867 154.129 39.0413 154.603 38.892C155.083 38.7373 155.63 38.66 156.243 38.66C156.83 38.66 157.35 38.7587 157.803 38.956C158.257 39.1533 158.611 39.468 158.867 39.9C159.123 40.3267 159.251 40.884 159.251 41.572V46.5H158.163ZM155.555 46.692C154.926 46.692 154.406 46.58 153.995 46.356C153.585 46.132 153.278 45.8413 153.075 45.484C152.873 45.1267 152.771 44.7507 152.771 44.356C152.771 43.8387 152.899 43.4173 153.155 43.092C153.417 42.7667 153.771 42.5293 154.219 42.38C154.667 42.2253 155.171 42.148 155.731 42.148C156.131 42.148 156.531 42.188 156.931 42.268C157.337 42.348 157.731 42.4573 158.115 42.596V43.38C157.795 43.252 157.433 43.1507 157.027 43.076C156.627 43.0013 156.259 42.964 155.923 42.964C155.411 42.964 154.979 43.0707 154.627 43.284C154.275 43.492 154.099 43.8493 154.099 44.356C154.099 44.7293 154.233 45.0493 154.499 45.316C154.771 45.5827 155.203 45.716 155.795 45.716C156.211 45.716 156.585 45.62 156.915 45.428C157.251 45.2307 157.515 44.9853 157.707 44.692C157.905 44.3987 158.003 44.1053 158.003 43.812H158.307C158.307 44.324 158.195 44.7987 157.971 45.236C157.753 45.6733 157.438 46.0253 157.027 46.292C156.617 46.5587 156.126 46.692 155.555 46.692ZM165.104 50.436C164.32 50.436 163.64 50.324 163.064 50.1C162.488 49.8813 162.04 49.5853 161.72 49.212C161.405 48.844 161.248 48.436 161.248 47.988C161.248 47.396 161.464 46.9427 161.896 46.628C162.333 46.3187 162.896 46.164 163.584 46.164L164.272 46.596C163.696 46.596 163.25 46.716 162.936 46.956C162.621 47.196 162.464 47.524 162.464 47.94C162.464 48.356 162.688 48.708 163.136 48.996C163.584 49.284 164.24 49.428 165.104 49.428C165.744 49.428 166.304 49.3347 166.784 49.148C167.269 48.9667 167.645 48.7267 167.912 48.428C168.184 48.1347 168.32 47.8173 168.32 47.476C168.32 47.236 168.232 47.028 168.056 46.852C167.88 46.6813 167.61 46.596 167.248 46.596H164.272C163.754 46.596 163.306 46.5187 162.928 46.364C162.554 46.204 162.266 45.996 162.064 45.74C161.861 45.484 161.76 45.204 161.76 44.9C161.76 44.58 161.85 44.308 162.032 44.084C162.213 43.86 162.448 43.6893 162.736 43.572C163.029 43.4547 163.344 43.396 163.68 43.396L163.92 43.86C163.76 43.86 163.597 43.8973 163.432 43.972C163.272 44.0413 163.136 44.148 163.024 44.292C162.917 44.4307 162.864 44.6067 162.864 44.82C162.864 45.0653 162.965 45.2707 163.168 45.436C163.37 45.6013 163.738 45.684 164.272 45.684H167.248C167.968 45.684 168.533 45.836 168.944 46.14C169.36 46.444 169.568 46.868 169.568 47.412C169.568 47.9133 169.389 48.3933 169.032 48.852C168.674 49.316 168.162 49.6947 167.496 49.988C166.829 50.2867 166.032 50.436 165.104 50.436ZM165.328 44.26C164.741 44.26 164.21 44.1427 163.736 43.908C163.266 43.6733 162.893 43.3453 162.616 42.924C162.344 42.5027 162.208 42.0147 162.208 41.46C162.208 40.9 162.344 40.4093 162.616 39.988C162.893 39.5667 163.266 39.2413 163.736 39.012C164.21 38.7773 164.741 38.66 165.328 38.66C165.898 38.66 166.416 38.7773 166.88 39.012C167.349 39.2413 167.722 39.5667 168 39.988C168.277 40.4093 168.416 40.9 168.416 41.46C168.416 42.0147 168.277 42.5027 168 42.924C167.722 43.3453 167.349 43.6733 166.88 43.908C166.416 44.1427 165.898 44.26 165.328 44.26ZM165.328 43.364C165.914 43.364 166.37 43.1827 166.696 42.82C167.021 42.4573 167.184 42.004 167.184 41.46C167.184 40.9 167.021 40.4467 166.696 40.1C166.37 39.748 165.914 39.572 165.328 39.572C164.746 39.572 164.288 39.748 163.952 40.1C163.621 40.4467 163.456 40.9 163.456 41.46C163.456 42.004 163.621 42.4573 163.952 42.82C164.288 43.1827 164.746 43.364 165.328 43.364ZM167.84 39.876L167.248 39.636C167.248 39.188 167.336 38.796 167.512 38.46C167.688 38.1187 167.938 37.8547 168.264 37.668C168.589 37.476 168.976 37.38 169.424 37.38L169.328 38.612C168.848 38.612 168.48 38.716 168.224 38.924C167.968 39.1267 167.84 39.444 167.84 39.876ZM174.247 46.692C173.586 46.692 172.994 46.524 172.471 46.188C171.954 45.8467 171.543 45.3747 171.239 44.772C170.94 44.1693 170.791 43.476 170.791 42.692C170.791 41.8547 170.94 41.1347 171.239 40.532C171.538 39.9293 171.946 39.468 172.463 39.148C172.986 38.8227 173.58 38.66 174.247 38.66C174.828 38.66 175.324 38.7773 175.735 39.012C176.146 39.2467 176.476 39.564 176.727 39.964C176.978 40.364 177.151 40.8173 177.247 41.324C177.348 41.8253 177.378 42.3453 177.335 42.884H171.799V42.116H176.511L176.143 42.356C176.159 42.0413 176.14 41.7267 176.087 41.412C176.039 41.0973 175.946 40.8093 175.807 40.548C175.668 40.2813 175.474 40.068 175.223 39.908C174.972 39.748 174.652 39.668 174.263 39.668C173.772 39.668 173.362 39.7933 173.031 40.044C172.7 40.2947 172.452 40.6253 172.287 41.036C172.122 41.4413 172.039 41.8813 172.039 42.356V42.868C172.039 43.4013 172.119 43.8787 172.279 44.3C172.444 44.7213 172.69 45.0547 173.015 45.3C173.34 45.5453 173.751 45.668 174.247 45.668C174.743 45.668 175.151 45.548 175.471 45.308C175.791 45.068 175.986 44.7133 176.055 44.244H177.351C177.271 44.7507 177.09 45.188 176.807 45.556C176.524 45.9187 176.164 46.1987 175.727 46.396C175.29 46.5933 174.796 46.692 174.247 46.692ZM179.778 48.244L178.834 47.78C179.138 47.6253 179.394 47.4547 179.602 47.268C179.815 47.0813 179.954 46.852 180.018 46.58C179.788 46.5533 179.591 46.4707 179.426 46.332C179.266 46.1933 179.186 46.0093 179.186 45.78C179.186 45.556 179.268 45.364 179.434 45.204C179.604 45.044 179.82 44.964 180.082 44.964C180.412 44.964 180.679 45.084 180.882 45.324C181.084 45.564 181.186 45.8493 181.186 46.18C181.186 46.5693 181.066 46.9507 180.826 47.324C180.591 47.7027 180.242 48.0093 179.778 48.244ZM187.43 46.5V36.452H188.678V46.5H187.43ZM198.72 46.692C198.106 46.692 197.533 46.5267 197 46.196C196.472 45.8653 196.045 45.3987 195.72 44.796C195.394 44.1933 195.232 43.4813 195.232 42.66C195.232 41.8173 195.394 41.0973 195.72 40.5C196.045 39.9027 196.472 39.4467 197 39.132C197.533 38.8173 198.106 38.66 198.72 38.66C199.152 38.66 199.538 38.7267 199.88 38.86C200.226 38.988 200.528 39.1667 200.784 39.396C201.04 39.6253 201.25 39.8867 201.416 40.18C201.586 40.468 201.712 40.772 201.792 41.092L200.512 41.204C200.378 40.7613 200.154 40.412 199.84 40.156C199.53 39.8947 199.152 39.764 198.704 39.764C198.325 39.764 197.968 39.8733 197.632 40.092C197.301 40.3053 197.032 40.628 196.824 41.06C196.616 41.4867 196.512 42.02 196.512 42.66C196.512 43.252 196.605 43.7667 196.792 44.204C196.984 44.636 197.245 44.972 197.576 45.212C197.906 45.452 198.282 45.572 198.704 45.572C199.296 45.572 199.744 45.428 200.048 45.14C200.357 44.8467 200.512 44.4413 200.512 43.924H201.792C201.792 44.4573 201.666 44.932 201.416 45.348C201.165 45.764 200.808 46.092 200.344 46.332C199.885 46.572 199.344 46.692 198.72 46.692ZM209.178 46.5L209.018 44.82V41.54C209.018 40.852 208.871 40.3587 208.578 40.06C208.284 39.756 207.844 39.604 207.258 39.604C206.927 39.604 206.626 39.652 206.354 39.748C206.087 39.844 205.874 39.9933 205.714 40.196C205.559 40.3933 205.482 40.6493 205.482 40.964H204.09C204.09 40.4093 204.226 39.964 204.498 39.628C204.77 39.2867 205.143 39.0413 205.618 38.892C206.098 38.7373 206.644 38.66 207.258 38.66C207.844 38.66 208.364 38.7587 208.818 38.956C209.271 39.1533 209.626 39.468 209.882 39.9C210.138 40.3267 210.266 40.884 210.266 41.572V46.5H209.178ZM206.57 46.692C205.94 46.692 205.42 46.58 205.01 46.356C204.599 46.132 204.292 45.8413 204.09 45.484C203.887 45.1267 203.786 44.7507 203.786 44.356C203.786 43.8387 203.914 43.4173 204.17 43.092C204.431 42.7667 204.786 42.5293 205.234 42.38C205.682 42.2253 206.186 42.148 206.746 42.148C207.146 42.148 207.546 42.188 207.946 42.268C208.351 42.348 208.746 42.4573 209.13 42.596V43.38C208.81 43.252 208.447 43.1507 208.042 43.076C207.642 43.0013 207.274 42.964 206.938 42.964C206.426 42.964 205.994 43.0707 205.642 43.284C205.29 43.492 205.114 43.8493 205.114 44.356C205.114 44.7293 205.247 45.0493 205.514 45.316C205.786 45.5827 206.218 45.716 206.81 45.716C207.226 45.716 207.599 45.62 207.93 45.428C208.266 45.2307 208.53 44.9853 208.722 44.692C208.919 44.3987 209.018 44.1053 209.018 43.812H209.322C209.322 44.324 209.21 44.7987 208.986 45.236C208.767 45.6733 208.452 46.0253 208.042 46.292C207.631 46.5587 207.14 46.692 206.57 46.692ZM218.854 46.5V42.004C218.854 41.2733 218.678 40.7187 218.326 40.34C217.979 39.956 217.505 39.764 216.902 39.764C216.443 39.764 216.046 39.8893 215.71 40.14C215.374 40.3907 215.115 40.7507 214.934 41.22C214.753 41.684 214.662 42.2387 214.662 42.884H214.182C214.182 41.9933 214.299 41.2333 214.534 40.604C214.769 39.9747 215.11 39.4947 215.558 39.164C216.011 38.828 216.561 38.66 217.206 38.66C217.809 38.66 218.323 38.796 218.75 39.068C219.182 39.3347 219.513 39.7187 219.742 40.22C219.971 40.7213 220.086 41.316 220.086 42.004V46.5H218.854ZM213.414 46.5V38.852H214.486L214.662 40.612V46.5H213.414ZM229.843 46.692C229.182 46.692 228.59 46.524 228.067 46.188C227.55 45.8467 227.139 45.3747 226.835 44.772C226.537 44.1693 226.387 43.476 226.387 42.692C226.387 41.8547 226.537 41.1347 226.835 40.532C227.134 39.9293 227.542 39.468 228.059 39.148C228.582 38.8227 229.177 38.66 229.843 38.66C230.425 38.66 230.921 38.7773 231.331 39.012C231.742 39.2467 232.073 39.564 232.323 39.964C232.574 40.364 232.747 40.8173 232.843 41.324C232.945 41.8253 232.974 42.3453 232.931 42.884H227.395V42.116H232.107L231.739 42.356C231.755 42.0413 231.737 41.7267 231.683 41.412C231.635 41.0973 231.542 40.8093 231.403 40.548C231.265 40.2813 231.07 40.068 230.819 39.908C230.569 39.748 230.249 39.668 229.859 39.668C229.369 39.668 228.958 39.7933 228.627 40.044C228.297 40.2947 228.049 40.6253 227.883 41.036C227.718 41.4413 227.635 41.8813 227.635 42.356V42.868C227.635 43.4013 227.715 43.8787 227.875 44.3C228.041 44.7213 228.286 45.0547 228.611 45.3C228.937 45.5453 229.347 45.668 229.843 45.668C230.339 45.668 230.747 45.548 231.067 45.308C231.387 45.068 231.582 44.7133 231.651 44.244H232.947C232.867 44.7507 232.686 45.188 232.403 45.556C232.121 45.9187 231.761 46.1987 231.323 46.396C230.886 46.5933 230.393 46.692 229.843 46.692ZM234.366 46.5L237.262 42.676L234.366 38.836H235.886L238.078 41.732L240.19 38.836H241.71L238.798 42.676L241.694 46.5H240.174L237.982 43.588L235.886 46.5H234.366ZM247.386 46.692C246.826 46.692 246.338 46.564 245.922 46.308C245.511 46.052 245.194 45.6787 244.97 45.188C244.746 44.692 244.634 44.0893 244.634 43.38H245.162C245.162 43.8547 245.26 44.2547 245.458 44.58C245.655 44.9053 245.911 45.1533 246.226 45.324C246.546 45.4893 246.884 45.572 247.242 45.572C247.626 45.572 247.994 45.4627 248.346 45.244C248.698 45.02 248.986 44.692 249.21 44.26C249.434 43.828 249.546 43.2947 249.546 42.66C249.546 42.052 249.442 41.532 249.234 41.1C249.031 40.668 248.756 40.3373 248.41 40.108C248.063 39.8787 247.679 39.764 247.258 39.764C246.895 39.764 246.554 39.852 246.234 40.028C245.914 40.204 245.655 40.4627 245.458 40.804C245.26 41.14 245.162 41.556 245.162 42.052H244.634C244.634 41.3107 244.756 40.6893 245.002 40.188C245.247 39.6813 245.58 39.3 246.002 39.044C246.423 38.788 246.895 38.66 247.418 38.66C248.015 38.66 248.572 38.82 249.09 39.14C249.607 39.46 250.026 39.9187 250.346 40.516C250.666 41.1133 250.826 41.828 250.826 42.66C250.826 43.5027 250.663 44.2253 250.338 44.828C250.018 45.4307 249.596 45.892 249.074 46.212C248.551 46.532 247.988 46.692 247.386 46.692ZM243.914 50.26V38.852H244.954L245.162 40.644V50.26H243.914ZM253.433 46.5V35.588H254.681V46.5H253.433ZM260.845 46.692C260.157 46.692 259.544 46.54 259.005 46.236C258.472 45.932 258.051 45.4813 257.741 44.884C257.432 44.2867 257.277 43.5507 257.277 42.676C257.277 41.796 257.432 41.06 257.741 40.468C258.051 39.8707 258.472 39.42 259.005 39.116C259.544 38.812 260.157 38.66 260.845 38.66C261.528 38.66 262.136 38.812 262.669 39.116C263.208 39.42 263.629 39.8707 263.933 40.468C264.243 41.06 264.397 41.796 264.397 42.676C264.397 43.5507 264.243 44.2867 263.933 44.884C263.629 45.4813 263.208 45.932 262.669 46.236C262.136 46.54 261.528 46.692 260.845 46.692ZM260.813 45.604C261.309 45.604 261.731 45.4867 262.077 45.252C262.424 45.012 262.685 44.6733 262.861 44.236C263.043 43.7987 263.133 43.2787 263.133 42.676C263.133 41.764 262.944 41.0467 262.565 40.524C262.187 39.996 261.624 39.732 260.877 39.732C260.376 39.732 259.952 39.852 259.605 40.092C259.264 40.3267 259.003 40.6653 258.821 41.108C258.645 41.5453 258.557 42.068 258.557 42.676C258.557 43.5773 258.747 44.292 259.125 44.82C259.509 45.3427 260.072 45.604 260.813 45.604ZM266.987 46.5V38.836H268.235V46.5H266.987ZM267.851 43.044C267.851 42.0733 267.945 41.268 268.131 40.628C268.318 39.9827 268.59 39.5027 268.947 39.188C269.31 38.868 269.75 38.708 270.267 38.708C270.438 38.708 270.593 38.7213 270.731 38.748C270.875 38.7693 271.019 38.804 271.163 38.852L271.083 40.084C270.934 40.036 270.771 39.996 270.595 39.964C270.419 39.9267 270.262 39.908 270.123 39.908C269.67 39.908 269.305 40.0387 269.027 40.3C268.75 40.556 268.547 40.9187 268.419 41.388C268.297 41.8573 268.235 42.4093 268.235 43.044H267.851ZM275.585 46.692C274.923 46.692 274.331 46.524 273.809 46.188C273.291 45.8467 272.881 45.3747 272.577 44.772C272.278 44.1693 272.129 43.476 272.129 42.692C272.129 41.8547 272.278 41.1347 272.577 40.532C272.875 39.9293 273.283 39.468 273.801 39.148C274.323 38.8227 274.918 38.66 275.585 38.66C276.166 38.66 276.662 38.7773 277.073 39.012C277.483 39.2467 277.814 39.564 278.065 39.964C278.315 40.364 278.489 40.8173 278.585 41.324C278.686 41.8253 278.715 42.3453 278.673 42.884H273.137V42.116H277.849L277.481 42.356C277.497 42.0413 277.478 41.7267 277.425 41.412C277.377 41.0973 277.283 40.8093 277.145 40.548C277.006 40.2813 276.811 40.068 276.561 39.908C276.31 39.748 275.99 39.668 275.601 39.668C275.11 39.668 274.699 39.7933 274.369 40.044C274.038 40.2947 273.79 40.6253 273.625 41.036C273.459 41.4413 273.377 41.8813 273.377 42.356V42.868C273.377 43.4013 273.457 43.8787 273.617 44.3C273.782 44.7213 274.027 45.0547 274.353 45.3C274.678 45.5453 275.089 45.668 275.585 45.668C276.081 45.668 276.489 45.548 276.809 45.308C277.129 45.068 277.323 44.7133 277.393 44.244H278.689C278.609 44.7507 278.427 45.188 278.145 45.556C277.862 45.9187 277.502 46.1987 277.065 46.396C276.627 46.5933 276.134 46.692 275.585 46.692ZM287.616 46.692C287.2 46.692 286.827 46.612 286.496 46.452C286.165 46.292 285.904 46.052 285.712 45.732C285.52 45.412 285.424 45.012 285.424 44.532V36.724H286.656V44.5C286.656 45.2893 287.024 45.684 287.76 45.684C287.979 45.684 288.189 45.66 288.392 45.612C288.6 45.564 288.832 45.492 289.088 45.396L289.264 46.292C288.992 46.4093 288.72 46.5053 288.448 46.58C288.181 46.6547 287.904 46.692 287.616 46.692ZM284.192 39.716V38.852H289.072V39.716H284.192ZM296.88 46.5V42.004C296.88 41.2733 296.704 40.7187 296.352 40.34C296.005 39.956 295.53 39.764 294.928 39.764C294.469 39.764 294.072 39.8893 293.736 40.14C293.4 40.3907 293.141 40.7507 292.96 41.22C292.778 41.684 292.688 42.2387 292.688 42.884H292.208C292.208 41.9933 292.325 41.2333 292.56 40.604C292.794 39.9747 293.136 39.4947 293.584 39.164C294.037 38.828 294.586 38.66 295.232 38.66C295.834 38.66 296.349 38.796 296.776 39.068C297.208 39.3347 297.538 39.7187 297.768 40.22C297.997 40.7213 298.112 41.316 298.112 42.004V46.5H296.88ZM291.44 46.5V35.588H292.688V46.5H291.44ZM303.912 46.692C303.251 46.692 302.659 46.524 302.136 46.188C301.619 45.8467 301.208 45.3747 300.904 44.772C300.605 44.1693 300.456 43.476 300.456 42.692C300.456 41.8547 300.605 41.1347 300.904 40.532C301.203 39.9293 301.611 39.468 302.128 39.148C302.651 38.8227 303.245 38.66 303.912 38.66C304.493 38.66 304.989 38.7773 305.4 39.012C305.811 39.2467 306.141 39.564 306.392 39.964C306.643 40.364 306.816 40.8173 306.912 41.324C307.013 41.8253 307.043 42.3453 307 42.884H301.464V42.116H306.176L305.808 42.356C305.824 42.0413 305.805 41.7267 305.752 41.412C305.704 41.0973 305.611 40.8093 305.472 40.548C305.333 40.2813 305.139 40.068 304.888 39.908C304.637 39.748 304.317 39.668 303.928 39.668C303.437 39.668 303.027 39.7933 302.696 40.044C302.365 40.2947 302.117 40.6253 301.952 41.036C301.787 41.4413 301.704 41.8813 301.704 42.356V42.868C301.704 43.4013 301.784 43.8787 301.944 44.3C302.109 44.7213 302.355 45.0547 302.68 45.3C303.005 45.5453 303.416 45.668 303.912 45.668C304.408 45.668 304.816 45.548 305.136 45.308C305.456 45.068 305.651 44.7133 305.72 44.244H307.016C306.936 44.7507 306.755 45.188 306.472 45.556C306.189 45.9187 305.829 46.1987 305.392 46.396C304.955 46.5933 304.461 46.692 303.912 46.692ZM88.304 66.692C87.6907 66.692 87.1173 66.5267 86.584 66.196C86.056 65.8653 85.6293 65.3987 85.304 64.796C84.9787 64.1933 84.816 63.4813 84.816 62.66C84.816 61.8173 84.9787 61.0973 85.304 60.5C85.6293 59.9027 86.056 59.4467 86.584 59.132C87.1173 58.8173 87.6907 58.66 88.304 58.66C88.736 58.66 89.1227 58.7267 89.464 58.86C89.8107 58.988 90.112 59.1667 90.368 59.396C90.624 59.6253 90.8347 59.8867 91 60.18C91.1707 60.468 91.296 60.772 91.376 61.092L90.096 61.204C89.9627 60.7613 89.7387 60.412 89.424 60.156C89.1147 59.8947 88.736 59.764 88.288 59.764C87.9093 59.764 87.552 59.8733 87.216 60.092C86.8853 60.3053 86.616 60.628 86.408 61.06C86.2 61.4867 86.096 62.02 86.096 62.66C86.096 63.252 86.1893 63.7667 86.376 64.204C86.568 64.636 86.8293 64.972 87.16 65.212C87.4907 65.452 87.8667 65.572 88.288 65.572C88.88 65.572 89.328 65.428 89.632 65.14C89.9413 64.8467 90.096 64.4413 90.096 63.924H91.376C91.376 64.4573 91.2507 64.932 91 65.348C90.7493 65.764 90.392 66.092 89.928 66.332C89.4693 66.572 88.928 66.692 88.304 66.692ZM96.794 66.692C96.106 66.692 95.4927 66.54 94.954 66.236C94.4207 65.932 93.9993 65.4813 93.69 64.884C93.3807 64.2867 93.226 63.5507 93.226 62.676C93.226 61.796 93.3807 61.06 93.69 60.468C93.9993 59.8707 94.4207 59.42 94.954 59.116C95.4927 58.812 96.106 58.66 96.794 58.66C97.4767 58.66 98.0847 58.812 98.618 59.116C99.1567 59.42 99.578 59.8707 99.882 60.468C100.191 61.06 100.346 61.796 100.346 62.676C100.346 63.5507 100.191 64.2867 99.882 64.884C99.578 65.4813 99.1567 65.932 98.618 66.236C98.0847 66.54 97.4767 66.692 96.794 66.692ZM96.762 65.604C97.258 65.604 97.6793 65.4867 98.026 65.252C98.3727 65.012 98.634 64.6733 98.81 64.236C98.9913 63.7987 99.082 63.2787 99.082 62.676C99.082 61.764 98.8927 61.0467 98.514 60.524C98.1353 59.996 97.5727 59.732 96.826 59.732C96.3247 59.732 95.9007 59.852 95.554 60.092C95.2127 60.3267 94.9513 60.6653 94.77 61.108C94.594 61.5453 94.506 62.068 94.506 62.676C94.506 63.5773 94.6953 64.292 95.074 64.82C95.458 65.3427 96.0207 65.604 96.762 65.604ZM108.376 66.5V62.004C108.376 61.2733 108.2 60.7187 107.848 60.34C107.501 59.956 107.027 59.764 106.424 59.764C105.965 59.764 105.568 59.8893 105.232 60.14C104.896 60.3907 104.637 60.7507 104.456 61.22C104.275 61.684 104.184 62.2387 104.184 62.884H103.704C103.704 61.9933 103.821 61.2333 104.056 60.604C104.291 59.9747 104.632 59.4947 105.08 59.164C105.533 58.828 106.083 58.66 106.728 58.66C107.331 58.66 107.845 58.796 108.272 59.068C108.704 59.3347 109.035 59.7187 109.264 60.22C109.493 60.7213 109.608 61.316 109.608 62.004V66.5H108.376ZM102.936 66.5V58.852H104.008L104.184 60.612V66.5H102.936ZM115.104 66.692C114.688 66.692 114.315 66.612 113.984 66.452C113.654 66.292 113.392 66.052 113.2 65.732C113.008 65.412 112.912 65.012 112.912 64.532V56.724H114.144V64.5C114.144 65.2893 114.512 65.684 115.248 65.684C115.467 65.684 115.678 65.66 115.88 65.612C116.088 65.564 116.32 65.492 116.576 65.396L116.752 66.292C116.48 66.4093 116.208 66.5053 115.936 66.58C115.67 66.6547 115.392 66.692 115.104 66.692ZM111.68 59.716V58.852H116.56V59.716H111.68ZM121.584 66.692C120.923 66.692 120.331 66.524 119.808 66.188C119.291 65.8467 118.88 65.3747 118.576 64.772C118.277 64.1693 118.128 63.476 118.128 62.692C118.128 61.8547 118.277 61.1347 118.576 60.532C118.875 59.9293 119.283 59.468 119.8 59.148C120.323 58.8227 120.917 58.66 121.584 58.66C122.165 58.66 122.661 58.7773 123.072 59.012C123.483 59.2467 123.813 59.564 124.064 59.964C124.315 60.364 124.488 60.8173 124.584 61.324C124.685 61.8253 124.715 62.3453 124.672 62.884H119.136V62.116H123.848L123.48 62.356C123.496 62.0413 123.477 61.7267 123.424 61.412C123.376 61.0973 123.283 60.8093 123.144 60.548C123.005 60.2813 122.811 60.068 122.56 59.908C122.309 59.748 121.989 59.668 121.6 59.668C121.109 59.668 120.699 59.7933 120.368 60.044C120.037 60.2947 119.789 60.6253 119.624 61.036C119.459 61.4413 119.376 61.8813 119.376 62.356V62.868C119.376 63.4013 119.456 63.8787 119.616 64.3C119.781 64.7213 120.027 65.0547 120.352 65.3C120.677 65.5453 121.088 65.668 121.584 65.668C122.08 65.668 122.488 65.548 122.808 65.308C123.128 65.068 123.323 64.7133 123.392 64.244H124.688C124.608 64.7507 124.427 65.188 124.144 65.556C123.861 65.9187 123.501 66.1987 123.064 66.396C122.627 66.5933 122.133 66.692 121.584 66.692ZM132.747 66.5V62.004C132.747 61.2733 132.571 60.7187 132.219 60.34C131.872 59.956 131.397 59.764 130.795 59.764C130.336 59.764 129.939 59.8893 129.603 60.14C129.267 60.3907 129.008 60.7507 128.827 61.22C128.645 61.684 128.555 62.2387 128.555 62.884H128.075C128.075 61.9933 128.192 61.2333 128.427 60.604C128.661 59.9747 129.003 59.4947 129.451 59.164C129.904 58.828 130.453 58.66 131.099 58.66C131.701 58.66 132.216 58.796 132.643 59.068C133.075 59.3347 133.405 59.7187 133.635 60.22C133.864 60.7213 133.979 61.316 133.979 62.004V66.5H132.747ZM127.307 66.5V58.852H128.379L128.555 60.612V66.5H127.307ZM139.475 66.692C139.059 66.692 138.686 66.612 138.355 66.452C138.024 66.292 137.763 66.052 137.571 65.732C137.379 65.412 137.283 65.012 137.283 64.532V56.724H138.515V64.5C138.515 65.2893 138.883 65.684 139.619 65.684C139.838 65.684 140.048 65.66 140.251 65.612C140.459 65.564 140.691 65.492 140.947 65.396L141.123 66.292C140.851 66.4093 140.579 66.5053 140.307 66.58C140.04 66.6547 139.763 66.692 139.475 66.692ZM136.051 59.716V58.852H140.931V59.716H136.051ZM150.023 66.692C149.335 66.692 148.722 66.54 148.183 66.236C147.65 65.932 147.229 65.4813 146.919 64.884C146.61 64.2867 146.455 63.5507 146.455 62.676C146.455 61.796 146.61 61.06 146.919 60.468C147.229 59.8707 147.65 59.42 148.183 59.116C148.722 58.812 149.335 58.66 150.023 58.66C150.706 58.66 151.314 58.812 151.847 59.116C152.386 59.42 152.807 59.8707 153.111 60.468C153.421 61.06 153.575 61.796 153.575 62.676C153.575 63.5507 153.421 64.2867 153.111 64.884C152.807 65.4813 152.386 65.932 151.847 66.236C151.314 66.54 150.706 66.692 150.023 66.692ZM149.991 65.604C150.487 65.604 150.909 65.4867 151.255 65.252C151.602 65.012 151.863 64.6733 152.039 64.236C152.221 63.7987 152.311 63.2787 152.311 62.676C152.311 61.764 152.122 61.0467 151.743 60.524C151.365 59.996 150.802 59.732 150.055 59.732C149.554 59.732 149.13 59.852 148.783 60.092C148.442 60.3267 148.181 60.6653 147.999 61.108C147.823 61.5453 147.735 62.068 147.735 62.676C147.735 63.5773 147.925 64.292 148.303 64.82C148.687 65.3427 149.25 65.604 149.991 65.604ZM156.165 66.5V58.836H157.413V66.5H156.165ZM157.029 63.044C157.029 62.0733 157.123 61.268 157.309 60.628C157.496 59.9827 157.768 59.5027 158.125 59.188C158.488 58.868 158.928 58.708 159.445 58.708C159.616 58.708 159.771 58.7213 159.909 58.748C160.053 58.7693 160.197 58.804 160.341 58.852L160.261 60.084C160.112 60.036 159.949 59.996 159.773 59.964C159.597 59.9267 159.44 59.908 159.301 59.908C158.848 59.908 158.483 60.0387 158.205 60.3C157.928 60.556 157.725 60.9187 157.597 61.388C157.475 61.8573 157.413 62.4093 157.413 63.044H157.029ZM168.816 66.692C168.074 66.692 167.456 66.588 166.96 66.38C166.464 66.1667 166.088 65.876 165.832 65.508C165.576 65.1347 165.44 64.708 165.424 64.228H166.624C166.65 64.7133 166.845 65.0787 167.208 65.324C167.576 65.564 168.074 65.684 168.704 65.684C169.034 65.684 169.338 65.6307 169.616 65.524C169.893 65.4173 170.114 65.2707 170.28 65.084C170.445 64.8973 170.528 64.6867 170.528 64.452C170.528 64.1533 170.418 63.9187 170.2 63.748C169.981 63.5773 169.632 63.428 169.152 63.3L167.664 62.82C167.018 62.6173 166.522 62.34 166.176 61.988C165.834 61.6307 165.664 61.204 165.664 60.708C165.664 60.0893 165.936 59.5933 166.48 59.22C167.024 58.8467 167.738 58.66 168.624 58.66C169.562 58.66 170.29 58.852 170.808 59.236C171.325 59.62 171.594 60.1 171.616 60.676H170.384C170.336 60.34 170.165 60.0867 169.872 59.916C169.578 59.74 169.162 59.652 168.624 59.652C168.106 59.652 167.701 59.7693 167.408 60.004C167.12 60.2333 166.976 60.4893 166.976 60.772C166.976 61.3 167.429 61.6893 168.336 61.94L169.856 62.452C170.512 62.6493 171.013 62.908 171.36 63.228C171.712 63.548 171.888 63.956 171.888 64.452C171.888 64.836 171.762 65.1987 171.512 65.54C171.261 65.8813 170.906 66.1587 170.448 66.372C169.989 66.5853 169.445 66.692 168.816 66.692ZM176.982 66.692C176.566 66.692 176.192 66.612 175.862 66.452C175.531 66.292 175.27 66.052 175.078 65.732C174.886 65.412 174.79 65.012 174.79 64.532V56.724H176.022V64.5C176.022 65.2893 176.39 65.684 177.126 65.684C177.344 65.684 177.555 65.66 177.758 65.612C177.966 65.564 178.198 65.492 178.454 65.396L178.63 66.292C178.358 66.4093 178.086 66.5053 177.814 66.58C177.547 66.6547 177.27 66.692 176.982 66.692ZM173.558 59.716V58.852H178.438V59.716H173.558ZM185.541 66.5L185.381 64.82V61.54C185.381 60.852 185.235 60.3587 184.941 60.06C184.648 59.756 184.208 59.604 183.621 59.604C183.291 59.604 182.989 59.652 182.717 59.748C182.451 59.844 182.237 59.9933 182.077 60.196C181.923 60.3933 181.845 60.6493 181.845 60.964H180.453C180.453 60.4093 180.589 59.964 180.861 59.628C181.133 59.2867 181.507 59.0413 181.981 58.892C182.461 58.7373 183.008 58.66 183.621 58.66C184.208 58.66 184.728 58.7587 185.181 58.956C185.635 59.1533 185.989 59.468 186.245 59.9C186.501 60.3267 186.629 60.884 186.629 61.572V66.5H185.541ZM182.933 66.692C182.304 66.692 181.784 66.58 181.373 66.356C180.963 66.132 180.656 65.8413 180.453 65.484C180.251 65.1267 180.149 64.7507 180.149 64.356C180.149 63.8387 180.277 63.4173 180.533 63.092C180.795 62.7667 181.149 62.5293 181.597 62.38C182.045 62.2253 182.549 62.148 183.109 62.148C183.509 62.148 183.909 62.188 184.309 62.268C184.715 62.348 185.109 62.4573 185.493 62.596V63.38C185.173 63.252 184.811 63.1507 184.405 63.076C184.005 63.0013 183.637 62.964 183.301 62.964C182.789 62.964 182.357 63.0707 182.005 63.284C181.653 63.492 181.477 63.8493 181.477 64.356C181.477 64.7293 181.611 65.0493 181.877 65.316C182.149 65.5827 182.581 65.716 183.173 65.716C183.589 65.716 183.963 65.62 184.293 65.428C184.629 65.2307 184.893 64.9853 185.085 64.692C185.283 64.3987 185.381 64.1053 185.381 63.812H185.685C185.685 64.324 185.573 64.7987 185.349 65.236C185.131 65.6733 184.816 66.0253 184.405 66.292C183.995 66.5587 183.504 66.692 182.933 66.692ZM189.778 66.5V58.836H191.026V66.5H189.778ZM190.642 63.044C190.642 62.0733 190.735 61.268 190.922 60.628C191.109 59.9827 191.381 59.5027 191.738 59.188C192.101 58.868 192.541 58.708 193.058 58.708C193.229 58.708 193.383 58.7213 193.522 58.748C193.666 58.7693 193.81 58.804 193.954 58.852L193.874 60.084C193.725 60.036 193.562 59.996 193.386 59.964C193.21 59.9267 193.053 59.908 192.914 59.908C192.461 59.908 192.095 60.0387 191.818 60.3C191.541 60.556 191.338 60.9187 191.21 61.388C191.087 61.8573 191.026 62.4093 191.026 63.044H190.642ZM198.071 66.692C197.655 66.692 197.282 66.612 196.951 66.452C196.62 66.292 196.359 66.052 196.167 65.732C195.975 65.412 195.879 65.012 195.879 64.532V56.724H197.111V64.5C197.111 65.2893 197.479 65.684 198.215 65.684C198.434 65.684 198.644 65.66 198.847 65.612C199.055 65.564 199.287 65.492 199.543 65.396L199.719 66.292C199.447 66.4093 199.175 66.5053 198.903 66.58C198.636 66.6547 198.359 66.692 198.071 66.692ZM194.647 59.716V58.852H199.527V59.716H194.647ZM205.852 66.5V58.836H207.1V66.5H205.852ZM206.716 63.044C206.716 62.0733 206.809 61.268 206.996 60.628C207.182 59.9827 207.454 59.5027 207.812 59.188C208.174 58.868 208.614 58.708 209.132 58.708C209.302 58.708 209.457 58.7213 209.596 58.748C209.74 58.7693 209.884 58.804 210.028 58.852L209.948 60.084C209.798 60.036 209.636 59.996 209.46 59.964C209.284 59.9267 209.126 59.908 208.988 59.908C208.534 59.908 208.169 60.0387 207.892 60.3C207.614 60.556 207.412 60.9187 207.284 61.388C207.161 61.8573 207.1 62.4093 207.1 63.044H206.716ZM214.449 66.692C213.788 66.692 213.196 66.524 212.673 66.188C212.156 65.8467 211.745 65.3747 211.441 64.772C211.142 64.1693 210.993 63.476 210.993 62.692C210.993 61.8547 211.142 61.1347 211.441 60.532C211.74 59.9293 212.148 59.468 212.665 59.148C213.188 58.8227 213.782 58.66 214.449 58.66C215.03 58.66 215.526 58.7773 215.937 59.012C216.348 59.2467 216.678 59.564 216.929 59.964C217.18 60.364 217.353 60.8173 217.449 61.324C217.55 61.8253 217.58 62.3453 217.537 62.884H212.001V62.116H216.713L216.345 62.356C216.361 62.0413 216.342 61.7267 216.289 61.412C216.241 61.0973 216.148 60.8093 216.009 60.548C215.87 60.2813 215.676 60.068 215.425 59.908C215.174 59.748 214.854 59.668 214.465 59.668C213.974 59.668 213.564 59.7933 213.233 60.044C212.902 60.2947 212.654 60.6253 212.489 61.036C212.324 61.4413 212.241 61.8813 212.241 62.356V62.868C212.241 63.4013 212.321 63.8787 212.481 64.3C212.646 64.7213 212.892 65.0547 213.217 65.3C213.542 65.5453 213.953 65.668 214.449 65.668C214.945 65.668 215.353 65.548 215.673 65.308C215.993 65.068 216.188 64.7133 216.257 64.244H217.553C217.473 64.7507 217.292 65.188 217.009 65.556C216.726 65.9187 216.366 66.1987 215.929 66.396C215.492 66.5933 214.998 66.692 214.449 66.692ZM224.908 66.5L224.748 64.82V61.54C224.748 60.852 224.601 60.3587 224.308 60.06C224.014 59.756 223.574 59.604 222.988 59.604C222.657 59.604 222.356 59.652 222.084 59.748C221.817 59.844 221.604 59.9933 221.444 60.196C221.289 60.3933 221.212 60.6493 221.212 60.964H219.82C219.82 60.4093 219.956 59.964 220.228 59.628C220.5 59.2867 220.873 59.0413 221.348 58.892C221.828 58.7373 222.374 58.66 222.988 58.66C223.574 58.66 224.094 58.7587 224.548 58.956C225.001 59.1533 225.356 59.468 225.612 59.9C225.868 60.3267 225.996 60.884 225.996 61.572V66.5H224.908ZM222.3 66.692C221.67 66.692 221.15 66.58 220.74 66.356C220.329 66.132 220.022 65.8413 219.82 65.484C219.617 65.1267 219.516 64.7507 219.516 64.356C219.516 63.8387 219.644 63.4173 219.9 63.092C220.161 62.7667 220.516 62.5293 220.964 62.38C221.412 62.2253 221.916 62.148 222.476 62.148C222.876 62.148 223.276 62.188 223.676 62.268C224.081 62.348 224.476 62.4573 224.86 62.596V63.38C224.54 63.252 224.177 63.1507 223.772 63.076C223.372 63.0013 223.004 62.964 222.668 62.964C222.156 62.964 221.724 63.0707 221.372 63.284C221.02 63.492 220.844 63.8493 220.844 64.356C220.844 64.7293 220.977 65.0493 221.244 65.316C221.516 65.5827 221.948 65.716 222.54 65.716C222.956 65.716 223.329 65.62 223.66 65.428C223.996 65.2307 224.26 64.9853 224.452 64.692C224.649 64.3987 224.748 64.1053 224.748 63.812H225.052C225.052 64.324 224.94 64.7987 224.716 65.236C224.497 65.6733 224.182 66.0253 223.772 66.292C223.361 66.5587 222.87 66.692 222.3 66.692ZM231.88 66.692C231.261 66.692 230.693 66.5267 230.176 66.196C229.659 65.86 229.245 65.3907 228.936 64.788C228.627 64.18 228.472 63.4653 228.472 62.644C228.472 61.828 228.624 61.1213 228.928 60.524C229.232 59.9267 229.635 59.468 230.136 59.148C230.643 58.8227 231.197 58.66 231.8 58.66C232.36 58.66 232.851 58.796 233.272 59.068C233.699 59.34 234.029 59.732 234.264 60.244C234.499 60.756 234.616 61.3747 234.616 62.1H234.136C234.136 61.5933 234.035 61.1667 233.832 60.82C233.635 60.4733 233.376 60.212 233.056 60.036C232.736 59.8547 232.392 59.764 232.024 59.764C231.608 59.764 231.227 59.8813 230.88 60.116C230.539 60.3453 230.264 60.676 230.056 61.108C229.853 61.5347 229.752 62.0467 229.752 62.644C229.752 63.252 229.853 63.7747 230.056 64.212C230.264 64.6493 230.539 64.9853 230.88 65.22C231.227 65.4547 231.608 65.572 232.024 65.572C232.371 65.572 232.704 65.4813 233.024 65.3C233.349 65.1187 233.616 64.8547 233.824 64.508C234.032 64.156 234.136 63.732 234.136 63.236H234.616C234.616 63.9773 234.493 64.6067 234.248 65.124C234.008 65.636 233.68 66.0253 233.264 66.292C232.853 66.5587 232.392 66.692 231.88 66.692ZM234.344 66.5L234.136 64.708V55.588H235.384V66.5H234.344ZM239.493 57.044C239.237 57.044 239.034 56.972 238.885 56.828C238.735 56.6787 238.661 56.484 238.661 56.244C238.661 56.0093 238.735 55.8227 238.885 55.684C239.034 55.5453 239.237 55.476 239.493 55.476C239.749 55.476 239.951 55.5453 240.101 55.684C240.25 55.8227 240.325 56.0093 240.325 56.244C240.325 56.484 240.25 56.6787 240.101 56.828C239.951 56.972 239.749 57.044 239.493 57.044ZM238.869 66.5V58.836H240.117V66.5H238.869ZM249.154 66.5V62.004C249.154 61.2733 248.978 60.7187 248.626 60.34C248.279 59.956 247.805 59.764 247.202 59.764C246.743 59.764 246.346 59.8893 246.01 60.14C245.674 60.3907 245.415 60.7507 245.234 61.22C245.053 61.684 244.962 62.2387 244.962 62.884H244.482C244.482 61.9933 244.599 61.2333 244.834 60.604C245.069 59.9747 245.41 59.4947 245.858 59.164C246.311 58.828 246.861 58.66 247.506 58.66C248.109 58.66 248.623 58.796 249.05 59.068C249.482 59.3347 249.813 59.7187 250.042 60.22C250.271 60.7213 250.386 61.316 250.386 62.004V66.5H249.154ZM243.714 66.5V58.852H244.786L244.962 60.612V66.5H243.714ZM256.234 70.436C255.45 70.436 254.77 70.324 254.194 70.1C253.618 69.8813 253.17 69.5853 252.85 69.212C252.536 68.844 252.378 68.436 252.378 67.988C252.378 67.396 252.594 66.9427 253.026 66.628C253.464 66.3187 254.026 66.164 254.714 66.164L255.402 66.596C254.826 66.596 254.381 66.716 254.066 66.956C253.752 67.196 253.594 67.524 253.594 67.94C253.594 68.356 253.818 68.708 254.266 68.996C254.714 69.284 255.37 69.428 256.234 69.428C256.874 69.428 257.434 69.3347 257.914 69.148C258.4 68.9667 258.776 68.7267 259.042 68.428C259.314 68.1347 259.45 67.8173 259.45 67.476C259.45 67.236 259.362 67.028 259.186 66.852C259.01 66.6813 258.741 66.596 258.378 66.596H255.402C254.885 66.596 254.437 66.5187 254.058 66.364C253.685 66.204 253.397 65.996 253.194 65.74C252.992 65.484 252.89 65.204 252.89 64.9C252.89 64.58 252.981 64.308 253.162 64.084C253.344 63.86 253.578 63.6893 253.866 63.572C254.16 63.4547 254.474 63.396 254.81 63.396L255.05 63.86C254.89 63.86 254.728 63.8973 254.562 63.972C254.402 64.0413 254.266 64.148 254.154 64.292C254.048 64.4307 253.994 64.6067 253.994 64.82C253.994 65.0653 254.096 65.2707 254.298 65.436C254.501 65.6013 254.869 65.684 255.402 65.684H258.378C259.098 65.684 259.664 65.836 260.074 66.14C260.49 66.444 260.698 66.868 260.698 67.412C260.698 67.9133 260.52 68.3933 260.162 68.852C259.805 69.316 259.293 69.6947 258.626 69.988C257.96 70.2867 257.162 70.436 256.234 70.436ZM256.458 64.26C255.872 64.26 255.341 64.1427 254.866 63.908C254.397 63.6733 254.024 63.3453 253.746 62.924C253.474 62.5027 253.338 62.0147 253.338 61.46C253.338 60.9 253.474 60.4093 253.746 59.988C254.024 59.5667 254.397 59.2413 254.866 59.012C255.341 58.7773 255.872 58.66 256.458 58.66C257.029 58.66 257.546 58.7773 258.01 59.012C258.48 59.2413 258.853 59.5667 259.13 59.988C259.408 60.4093 259.546 60.9 259.546 61.46C259.546 62.0147 259.408 62.5027 259.13 62.924C258.853 63.3453 258.48 63.6733 258.01 63.908C257.546 64.1427 257.029 64.26 256.458 64.26ZM256.458 63.364C257.045 63.364 257.501 63.1827 257.826 62.82C258.152 62.4573 258.314 62.004 258.314 61.46C258.314 60.9 258.152 60.4467 257.826 60.1C257.501 59.748 257.045 59.572 256.458 59.572C255.877 59.572 255.418 59.748 255.082 60.1C254.752 60.4467 254.586 60.9 254.586 61.46C254.586 62.004 254.752 62.4573 255.082 62.82C255.418 63.1827 255.877 63.364 256.458 63.364ZM258.97 59.876L258.378 59.636C258.378 59.188 258.466 58.796 258.642 58.46C258.818 58.1187 259.069 57.8547 259.394 57.668C259.72 57.476 260.106 57.38 260.554 57.38L260.458 58.612C259.978 58.612 259.61 58.716 259.354 58.924C259.098 59.1267 258.97 59.444 258.97 59.876ZM261.586 65.756C261.586 65.5053 261.674 65.2893 261.85 65.108C262.026 64.9267 262.247 64.836 262.514 64.836C262.78 64.836 263.007 64.9267 263.194 65.108C263.38 65.2893 263.474 65.5053 263.474 65.756C263.474 66.0067 263.38 66.2173 263.194 66.388C263.007 66.5587 262.78 66.644 262.514 66.644C262.247 66.644 262.026 66.5587 261.85 66.388C261.674 66.212 261.586 66.0013 261.586 65.756Z" fill="#333333"/>
<path d="M73.3681 82.1281L74.2761 80.346L73.3681 82.1281ZM69.8719 78.6319L68.0899 79.5399L69.8719 78.6319ZM338.128 78.6319L339.91 79.5399L338.128 78.6319ZM334.632 82.1281L335.54 83.9101L334.632 82.1281ZM334.632 0.871948L335.54 -0.910065L334.632 0.871948ZM338.128 4.36808L339.91 3.46009L338.128 4.36808ZM73.3681 0.871948L72.4601 -0.910065L73.3681 0.871948ZM69.8719 4.36808L68.0899 3.46009L69.8719 4.36808ZM81.8 2H326.2V-2H81.8V2ZM337 12.8V70.2H341V12.8H337ZM326.2 81H81.8V85H326.2V81ZM71 70.2V12.8H67V70.2H71ZM81.8 81C79.5268 81 77.9422 80.9984 76.7085 80.8976C75.4981 80.7988 74.8028 80.6144 74.2761 80.346L72.4601 83.9101C73.6447 84.5136 74.9251 84.7653 76.3828 84.8844C77.8171 85.0016 79.5928 85 81.8 85V81ZM67 70.2C67 72.4072 66.9984 74.1829 67.1156 75.6172C67.2347 77.0749 67.4864 78.3553 68.0899 79.5399L71.654 77.7239C71.3856 77.1972 71.2012 76.5019 71.1024 75.2915C71.0016 74.0578 71 72.4732 71 70.2H67ZM74.2761 80.346C73.1471 79.7708 72.2292 78.8529 71.654 77.7239L68.0899 79.5399C69.0487 81.4215 70.5785 82.9513 72.4601 83.9101L74.2761 80.346ZM337 70.2C337 72.4732 336.998 74.0578 336.898 75.2915C336.799 76.5019 336.614 77.1972 336.346 77.7239L339.91 79.5399C340.514 78.3553 340.765 77.0749 340.884 75.6172C341.002 74.1829 341 72.4072 341 70.2H337ZM326.2 85C328.407 85 330.183 85.0016 331.617 84.8844C333.075 84.7653 334.355 84.5136 335.54 83.9101L333.724 80.346C333.197 80.6144 332.502 80.7988 331.292 80.8976C330.058 80.9984 328.473 81 326.2 81V85ZM336.346 77.7239C335.771 78.8529 334.853 79.7708 333.724 80.346L335.54 83.9101C337.422 82.9513 338.951 81.4215 339.91 79.5399L336.346 77.7239ZM326.2 2C328.473 2 330.058 2.00156 331.292 2.10235C332.502 2.20124 333.197 2.38559 333.724 2.65396L335.54 -0.910065C334.355 -1.51364 333.075 -1.76527 331.617 -1.88436C330.183 -2.00156 328.407 -2 326.2 -2V2ZM341 12.8C341 10.5928 341.002 8.8171 340.884 7.38275C340.765 5.92505 340.514 4.64468 339.91 3.46009L336.346 5.27606C336.614 5.80277 336.799 6.49814 336.898 7.70848C336.998 8.94216 337 10.5268 337 12.8H341ZM333.724 2.65396C334.853 3.2292 335.771 4.14708 336.346 5.27606L339.91 3.46009C338.951 1.57847 337.422 0.0486685 335.54 -0.910065L333.724 2.65396ZM81.8 -2C79.5928 -2 77.8171 -2.00156 76.3828 -1.88436C74.9251 -1.76527 73.6447 -1.51364 72.4601 -0.910065L74.2761 2.65396C74.8028 2.38559 75.4981 2.20124 76.7085 2.10235C77.9422 2.00156 79.5268 2 81.8 2V-2ZM71 12.8C71 10.5268 71.0016 8.94216 71.1024 7.70848C71.2012 6.49814 71.3856 5.80277 71.654 5.27606L68.0899 3.46009C67.4864 4.64468 67.2347 5.92505 67.1156 7.38275C66.9984 8.8171 67 10.5928 67 12.8H71ZM72.4601 -0.910065C70.5785 0.0486685 69.0487 1.57847 68.0899 3.46009L71.654 5.27606C72.2292 4.14708 73.1471 3.2292 74.2761 2.65396L72.4601 -0.910065Z" fill="#333333"/>
<path d="M62.3774 43.7013L73.5 54L73.5 29L62.3774 39.2987C61.095 40.4861 61.095 42.5139 62.3774 43.7013Z" fill="white"/>
<path d="M70 54L70 51L62.2895 43.675C61.0445 42.4922 61.0445 40.5078 62.2895 39.325L70 32L70 29.5" stroke="#333333" stroke-width="2"/>
</svg>
