<svg width="300" height="50" viewBox="0 0 300 50" fill="none" xmlns="http://www.w3.org/2000/svg">
<rect width="300" height="50" rx="12" fill="#E4F5F5"/>
<path d="M22.3239 27.5341L22.3239 27.5342L22.3262 27.536C23.2252 28.2609 24.3452 28.6561 25.5 28.6561C26.6549 28.6561 27.7749 28.2609 28.6739 27.536L28.5484 27.3804L28.6762 27.5341C28.8992 27.3488 29.1867 27.2596 29.4754 27.2863C29.6184 27.2994 29.7574 27.3406 29.8844 27.4075C30.0114 27.4744 30.1241 27.5657 30.2158 27.6761C30.4012 27.8991 30.4903 28.1866 30.4637 28.4753C30.4371 28.764 30.2969 29.0304 30.0739 29.2157L30.0735 29.216C28.7903 30.2872 27.1717 30.874 25.5 30.874C23.8284 30.874 22.2098 30.2872 20.9265 29.216L20.9262 29.2157C20.7032 29.0304 20.563 28.764 20.5364 28.4753C20.5098 28.1866 20.5989 27.8991 20.7843 27.6761C20.9696 27.4531 21.2359 27.3129 21.5247 27.2863C21.8134 27.2596 22.1009 27.3488 22.3239 27.5341ZM22.2315 22.8243C22.052 22.9442 21.841 23.0083 21.625 23.0083C21.3355 23.0083 21.0578 22.8932 20.8531 22.6885C20.6484 22.4838 20.5334 22.2061 20.5334 21.9166C20.5334 21.7007 20.5974 21.4896 20.7174 21.3101C20.8373 21.1306 21.0078 20.9906 21.2073 20.908C21.4068 20.8254 21.6263 20.8038 21.838 20.8459C22.0498 20.888 22.2443 20.992 22.397 21.1447C22.5496 21.2973 22.6536 21.4918 22.6957 21.7036C22.7379 21.9154 22.7162 22.1349 22.6336 22.3343C22.551 22.5338 22.4111 22.7043 22.2315 22.8243ZM28.7685 21.0089C28.9481 20.8889 29.1591 20.8249 29.375 20.8249C29.6646 20.8249 29.9422 20.9399 30.147 21.1447C30.3517 21.3494 30.4667 21.6271 30.4667 21.9166C30.4667 22.1325 30.4027 22.3436 30.2827 22.5231C30.1628 22.7026 29.9923 22.8425 29.7928 22.9252C29.5933 23.0078 29.3738 23.0294 29.1621 22.9873C28.9503 22.9452 28.7558 22.8412 28.6031 22.6885C28.4504 22.5358 28.3465 22.3413 28.3044 22.1296C28.2622 21.9178 28.2839 21.6983 28.3665 21.4988C28.4491 21.2993 28.589 21.1289 28.7685 21.0089ZM18.435 13.9264C20.5263 12.5291 22.9849 11.7833 25.5 11.7833C27.17 11.7833 28.8236 12.1122 30.3665 12.7513C31.9094 13.3903 33.3112 14.327 34.4921 15.5079C35.6729 16.6887 36.6096 18.0906 37.2487 19.6335C37.8878 21.1763 38.2167 22.8299 38.2167 24.4999C38.2167 27.015 37.4709 29.4737 36.0736 31.5649C34.6762 33.6562 32.6902 35.2861 30.3665 36.2486C28.0428 37.2111 25.4859 37.4629 23.0191 36.9722C20.5524 36.4816 18.2865 35.2704 16.508 33.492C14.7295 31.7135 13.5184 29.4476 13.0277 26.9808C12.5371 24.514 12.7889 21.9571 13.7514 19.6335C14.7139 17.3098 16.3438 15.3237 18.435 13.9264ZM19.648 33.2581C21.3802 34.4155 23.4167 35.0333 25.5 35.0333C28.2937 35.0333 30.9729 33.9235 32.9482 31.9481C34.9236 29.9727 36.0334 27.2935 36.0334 24.4999C36.0334 22.4166 35.4156 20.3801 34.2582 18.6479C33.1008 16.9157 31.4557 15.5656 29.531 14.7684C27.6063 13.9711 25.4884 13.7625 23.4451 14.169C21.4018 14.5754 19.525 15.5786 18.0519 17.0517C16.5787 18.5248 15.5755 20.4017 15.1691 22.445C14.7627 24.4882 14.9713 26.6061 15.7685 28.5309C16.5658 30.4556 17.9158 32.1006 19.648 33.2581Z" fill="#567979" stroke="white" stroke-width="0.4"/>
<path d="M53.424 35.928V15H55.296V35.928H53.424ZM75.4699 33.288C74.4619 33.288 73.5379 33.108 72.6979 32.748C71.8579 32.38 71.1819 31.84 70.6699 31.128C70.1579 30.416 69.8939 29.536 69.8779 28.488H71.7019C71.7019 29.192 71.8739 29.772 72.2179 30.228C72.5619 30.676 73.0179 31.012 73.5859 31.236C74.1539 31.452 74.7739 31.56 75.4459 31.56C76.1739 31.56 76.8059 31.444 77.3419 31.212C77.8779 30.98 78.2899 30.676 78.5779 30.3C78.8739 29.916 79.0219 29.496 79.0219 29.04C79.0219 28.4 78.8259 27.884 78.4339 27.492C78.0419 27.092 77.4619 26.768 76.6939 26.52L74.0299 25.584C72.7819 25.136 71.8379 24.624 71.1979 24.048C70.5579 23.472 70.2379 22.664 70.2379 21.624C70.2379 20.456 70.6859 19.504 71.5819 18.768C72.4859 18.032 73.7659 17.664 75.4219 17.664C76.9579 17.664 78.1579 18.02 79.0219 18.732C79.8859 19.436 80.3819 20.384 80.5099 21.576H78.6619C78.5419 20.88 78.2139 20.34 77.6779 19.956C77.1499 19.564 76.3979 19.368 75.4219 19.368C74.4299 19.368 73.6579 19.588 73.1059 20.028C72.5539 20.468 72.2779 21.024 72.2779 21.696C72.2779 22.248 72.4499 22.688 72.7939 23.016C73.1459 23.336 73.6939 23.624 74.4379 23.88L77.5579 24.96C78.6379 25.32 79.4899 25.824 80.1139 26.472C80.7459 27.12 81.0619 27.96 81.0619 28.992C81.0619 29.792 80.8459 30.516 80.4139 31.164C79.9899 31.812 79.3619 32.328 78.5299 32.712C77.6979 33.096 76.6779 33.288 75.4699 33.288ZM87.5537 33V17.928H89.4257V33H87.5537ZM96.6802 17.928H99.3682L104.552 28.344H104.36L109.544 17.928H112.16V33H110.264V19.872H110.6L105.08 31.104H103.832L98.3362 19.944H98.5522V33H96.6802V17.928ZM119.353 33V17.928H124.201C125.857 17.928 127.121 18.348 127.993 19.188C128.873 20.02 129.313 21.152 129.313 22.584C129.313 24 128.873 25.124 127.993 25.956C127.121 26.78 125.857 27.192 124.201 27.192H121.249V33H119.353ZM121.249 25.56H124.201C125.249 25.56 126.041 25.292 126.577 24.756C127.121 24.22 127.393 23.496 127.393 22.584C127.393 21.656 127.121 20.916 126.577 20.364C126.041 19.812 125.249 19.536 124.201 19.536H121.249V25.56ZM136.962 17.928V31.368H143.682V33H135.09V17.928H136.962ZM148.692 33V17.928H157.98V19.536H150.564V24.6H157.548V26.208H150.564V31.368H157.98V33H148.692ZM172.688 33V17.928H177.944C179.664 17.928 180.964 18.34 181.844 19.164C182.732 19.98 183.176 21.056 183.176 22.392C183.176 23.712 182.732 24.784 181.844 25.608C180.964 26.424 179.664 26.832 177.944 26.832H174.56V33H172.688ZM181.136 33L176.816 26.16H178.856L183.56 33H181.136ZM174.56 25.512H177.8C178.928 25.512 179.784 25.236 180.368 24.684C180.96 24.124 181.256 23.4 181.256 22.512C181.256 21.6 180.972 20.876 180.404 20.34C179.844 19.804 179.024 19.536 177.944 19.536H174.56V25.512ZM189.759 33V17.928H199.047V19.536H191.631V24.6H198.615V26.208H191.631V31.368H199.047V33H189.759ZM210.988 33.288C209.74 33.288 208.624 33 207.64 32.424C206.656 31.848 205.88 30.984 205.312 29.832C204.744 28.672 204.46 27.224 204.46 25.488C204.46 23.728 204.744 22.272 205.312 21.12C205.88 19.96 206.656 19.096 207.64 18.528C208.624 17.952 209.74 17.664 210.988 17.664C212.236 17.664 213.352 17.952 214.336 18.528C215.32 19.104 216.096 19.972 216.664 21.132C217.232 22.292 217.516 23.744 217.516 25.488C217.516 27.24 217.232 28.696 216.664 29.856C216.096 31.008 215.32 31.868 214.336 32.436C213.352 33.004 212.236 33.288 210.988 33.288ZM215.5 37.008C214.796 37.008 214.16 36.824 213.592 36.456C213.024 36.096 212.5 35.568 212.02 34.872L210.46 32.64L212.14 32.112L213.532 34.104C213.796 34.464 214.068 34.716 214.348 34.86C214.636 35.012 214.916 35.096 215.188 35.112C215.612 35.112 216.004 35.056 216.364 34.944C216.724 34.832 217.108 34.68 217.516 34.488V36.552C217.156 36.704 216.812 36.816 216.484 36.888C216.156 36.968 215.828 37.008 215.5 37.008ZM210.988 31.56C212.404 31.56 213.52 31.044 214.336 30.012C215.16 28.98 215.572 27.464 215.572 25.464C215.572 23.504 215.16 21.996 214.336 20.94C213.52 19.876 212.404 19.344 210.988 19.344C209.588 19.344 208.472 19.876 207.64 20.94C206.816 22.004 206.404 23.52 206.404 25.488C206.404 27.48 206.816 28.992 207.64 30.024C208.472 31.048 209.588 31.56 210.988 31.56ZM223.357 17.928H225.229V27.552C225.229 28.968 225.585 29.992 226.297 30.624C227.009 31.248 227.941 31.56 229.093 31.56C230.237 31.56 231.161 31.248 231.865 30.624C232.577 29.992 232.933 28.968 232.933 27.552V17.928H234.805V27.552C234.805 28.816 234.569 29.876 234.097 30.732C233.633 31.58 232.973 32.22 232.117 32.652C231.261 33.076 230.253 33.288 229.093 33.288C227.933 33.288 226.921 33.076 226.057 32.652C225.201 32.22 224.537 31.58 224.065 30.732C223.593 29.876 223.357 28.816 223.357 27.552V17.928ZM241.748 33V17.928H251.036V19.536H243.62V24.6H250.604V26.208H243.62V31.368H251.036V33H241.748ZM262.473 33.288C261.465 33.288 260.541 33.108 259.701 32.748C258.861 32.38 258.185 31.84 257.673 31.128C257.161 30.416 256.897 29.536 256.881 28.488H258.705C258.705 29.192 258.877 29.772 259.221 30.228C259.565 30.676 260.021 31.012 260.589 31.236C261.157 31.452 261.777 31.56 262.449 31.56C263.177 31.56 263.809 31.444 264.345 31.212C264.881 30.98 265.293 30.676 265.581 30.3C265.877 29.916 266.025 29.496 266.025 29.04C266.025 28.4 265.829 27.884 265.437 27.492C265.045 27.092 264.465 26.768 263.697 26.52L261.033 25.584C259.785 25.136 258.841 24.624 258.201 24.048C257.561 23.472 257.241 22.664 257.241 21.624C257.241 20.456 257.689 19.504 258.585 18.768C259.489 18.032 260.769 17.664 262.425 17.664C263.961 17.664 265.161 18.02 266.025 18.732C266.889 19.436 267.385 20.384 267.513 21.576H265.665C265.545 20.88 265.217 20.34 264.681 19.956C264.153 19.564 263.401 19.368 262.425 19.368C261.433 19.368 260.661 19.588 260.109 20.028C259.557 20.468 259.281 21.024 259.281 21.696C259.281 22.248 259.453 22.688 259.797 23.016C260.149 23.336 260.697 23.624 261.441 23.88L264.561 24.96C265.641 25.32 266.493 25.824 267.117 26.472C267.749 27.12 268.065 27.96 268.065 28.992C268.065 29.792 267.849 30.516 267.417 31.164C266.993 31.812 266.365 32.328 265.533 32.712C264.701 33.096 263.681 33.288 262.473 33.288ZM272.277 19.536V17.928H284.013V19.536H278.649L279.069 19.104V33H277.197V19.104L277.617 19.536H272.277Z" fill="#567979"/>
</svg>
