<svg width="270" height="50" viewBox="0 0 270 50" fill="none" xmlns="http://www.w3.org/2000/svg">
<rect width="270" height="50" rx="12" fill="#E4F5F5"/>
<path d="M26.5916 18.0416V18.2416H26.7916H31.9583C32.933 18.2416 33.8677 18.6288 34.5569 19.318C35.2461 20.0072 35.6333 20.9419 35.6333 21.9166V33.5416C35.6333 34.5163 35.2461 35.451 34.5569 36.1402C33.8677 36.8294 32.933 37.2166 31.9583 37.2166H19.0416C18.067 37.2166 17.1322 36.8294 16.443 36.1402C15.7538 35.451 15.3666 34.5163 15.3666 33.5416V21.9166C15.3666 20.9419 15.7538 20.0072 16.443 19.318C17.1322 18.6288 18.067 18.2416 19.0416 18.2416H24.2083H24.4083V18.0416V16.3883V16.2728L24.3083 16.215C23.9481 16.0071 23.6486 15.7085 23.4395 15.3489C23.2306 14.9895 23.1192 14.5817 23.1166 14.166C23.1168 13.5341 23.3679 12.9281 23.8147 12.4813C24.2617 12.0344 24.8679 11.7833 25.5 11.7833C26.1321 11.7833 26.7383 12.0344 27.1852 12.4813C27.6321 12.9281 27.8831 13.5341 27.8833 14.166C27.8807 14.5817 27.7694 14.9895 27.5604 15.3489C27.3514 15.7085 27.0518 16.0071 26.6916 16.215L26.5916 16.2728V16.3883V18.0416ZM27.9157 20.6734L27.9778 20.4249H27.7216H23.2783H23.0221L23.0843 20.6734L23.7301 23.2568L23.768 23.4083H23.9241H27.0758H27.2319L27.2698 23.2568L27.9157 20.6734ZM20.8119 20.5781L20.775 20.4249H20.6175H19.0416C18.646 20.4249 18.2666 20.5821 17.9869 20.8618C17.7071 21.1416 17.55 21.521 17.55 21.9166V33.5416C17.55 33.9372 17.7071 34.3166 17.9869 34.5964C18.2666 34.8761 18.646 35.0333 19.0416 35.0333H31.9583C32.3539 35.0333 32.7333 34.8761 33.0131 34.5964C33.2928 34.3166 33.45 33.9372 33.45 33.5416V21.9166C33.45 21.521 33.2928 21.1416 33.0131 20.8618C32.7333 20.5821 32.3539 20.4249 31.9583 20.4249H30.3825H30.2249L30.188 20.5781L29.1808 24.762C29.1807 24.7622 29.1807 24.7623 29.1807 24.7625C29.1208 25.0045 28.98 25.2188 28.7815 25.3696C28.5828 25.5206 28.3385 25.5989 28.0891 25.5917L28.0891 25.5916H28.0833H22.9166V25.5915L22.9108 25.5917C22.6614 25.5989 22.4171 25.5206 22.2185 25.3696C22.02 25.2188 21.8791 25.0045 21.8193 24.7625C21.8192 24.7623 21.8192 24.7622 21.8191 24.762L20.8119 20.5781ZM21.0185 28.7589C21.198 28.6389 21.409 28.5749 21.625 28.5749C21.9145 28.5749 22.1922 28.6899 22.3969 28.8947C22.6016 29.0994 22.7166 29.3771 22.7166 29.6666C22.7166 29.8825 22.6526 30.0936 22.5326 30.2731C22.4127 30.4526 22.2422 30.5925 22.0427 30.6752C21.8432 30.7578 21.6237 30.7794 21.412 30.7373C21.2002 30.6952 21.0057 30.5912 20.853 30.4385C20.7004 30.2858 20.5964 30.0913 20.5543 29.8796C20.5121 29.6678 20.5338 29.4483 20.6164 29.2488C20.699 29.0493 20.8389 28.8789 21.0185 28.7589ZM11.8114 27.603C12.0161 27.3983 12.2938 27.2833 12.5833 27.2833C12.8728 27.2833 13.1505 27.3983 13.3552 27.603C13.5599 27.8077 13.675 28.0854 13.675 28.3749V30.9583C13.675 31.2478 13.5599 31.5255 13.3552 31.7302C13.1505 31.9349 12.8728 32.0499 12.5833 32.0499C12.2938 32.0499 12.0161 31.9349 11.8114 31.7302C11.6066 31.5255 11.4916 31.2478 11.4916 30.9583V28.3749C11.4916 28.0854 11.6066 27.8077 11.8114 27.603ZM37.6447 27.603C37.8494 27.3983 38.1271 27.2833 38.4166 27.2833C38.7062 27.2833 38.9838 27.3983 39.1886 27.603C39.3933 27.8077 39.5083 28.0854 39.5083 28.3749V30.9583C39.5083 31.2478 39.3933 31.5255 39.1886 31.7302C38.9838 31.9349 38.7062 32.0499 38.4166 32.0499C38.1271 32.0499 37.8494 31.9349 37.6447 31.7302C37.44 31.5255 37.325 31.2478 37.325 30.9583V28.3749C37.325 28.0854 37.44 27.8077 37.6447 27.603ZM28.7685 28.7589C28.948 28.6389 29.159 28.5749 29.375 28.5749C29.6645 28.5749 29.9422 28.6899 30.1469 28.8947C30.3516 29.0994 30.4666 29.3771 30.4666 29.6666C30.4666 29.8825 30.4026 30.0936 30.2826 30.2731C30.1627 30.4526 29.9922 30.5925 29.7927 30.6752C29.5932 30.7578 29.3737 30.7794 29.162 30.7373C28.9502 30.6952 28.7557 30.5912 28.603 30.4385C28.4504 30.2858 28.3464 30.0913 28.3043 29.8796C28.2621 29.6678 28.2838 29.4483 28.3664 29.2488C28.449 29.0493 28.5889 28.8789 28.7685 28.7589Z" fill="#567979" stroke="white" stroke-width="0.4"/>
<path d="M53.424 35.928V15H55.296V35.928H53.424ZM70.6459 33V17.928H72.5179V33H70.6459ZM79.7484 17.928H81.9804L89.6364 30.336H89.4684V17.928H91.3404V33H89.2524L81.3324 20.184H81.6204V33H79.7484V17.928ZM96.2987 19.536V17.928H108.035V19.536H102.671L103.091 19.104V33H101.219V19.104L101.639 19.536H96.2987ZM113.002 33V17.928H118.258C119.978 17.928 121.278 18.34 122.158 19.164C123.046 19.98 123.49 21.056 123.49 22.392C123.49 23.712 123.046 24.784 122.158 25.608C121.278 26.424 119.978 26.832 118.258 26.832H114.874V33H113.002ZM121.45 33L117.13 26.16H119.17L123.874 33H121.45ZM114.874 25.512H118.114C119.242 25.512 120.098 25.236 120.682 24.684C121.274 24.124 121.57 23.4 121.57 22.512C121.57 21.6 121.286 20.876 120.718 20.34C120.158 19.804 119.338 19.536 118.258 19.536H114.874V25.512ZM135.425 33.288C134.177 33.288 133.061 33 132.077 32.424C131.093 31.848 130.317 30.984 129.749 29.832C129.181 28.672 128.897 27.224 128.897 25.488C128.897 23.728 129.181 22.272 129.749 21.12C130.317 19.96 131.093 19.096 132.077 18.528C133.061 17.952 134.177 17.664 135.425 17.664C136.673 17.664 137.789 17.952 138.773 18.528C139.757 19.104 140.533 19.972 141.101 21.132C141.669 22.292 141.953 23.744 141.953 25.488C141.953 27.24 141.669 28.696 141.101 29.856C140.533 31.008 139.757 31.868 138.773 32.436C137.789 33.004 136.673 33.288 135.425 33.288ZM135.425 31.56C136.841 31.56 137.957 31.044 138.773 30.012C139.597 28.98 140.009 27.464 140.009 25.464C140.009 23.504 139.597 21.996 138.773 20.94C137.957 19.876 136.841 19.344 135.425 19.344C134.025 19.344 132.909 19.876 132.077 20.94C131.253 22.004 130.841 23.52 130.841 25.488C130.841 27.48 131.253 28.992 132.077 30.024C132.909 31.048 134.025 31.56 135.425 31.56ZM147.99 17.928H152.406C153.926 17.928 155.246 18.24 156.366 18.864C157.486 19.48 158.354 20.352 158.97 21.48C159.586 22.608 159.894 23.936 159.894 25.464C159.894 26.976 159.586 28.296 158.97 29.424C158.354 30.552 157.486 31.432 156.366 32.064C155.246 32.688 153.926 33 152.406 33H147.99V17.928ZM149.862 19.584V31.368H152.406C153.542 31.368 154.518 31.112 155.334 30.6C156.158 30.088 156.79 29.388 157.23 28.5C157.678 27.604 157.902 26.592 157.902 25.464C157.902 24.328 157.678 23.32 157.23 22.44C156.79 21.552 156.158 20.856 155.334 20.352C154.518 19.84 153.542 19.584 152.406 19.584H149.862ZM165.897 17.928H167.769V27.552C167.769 28.968 168.125 29.992 168.837 30.624C169.549 31.248 170.481 31.56 171.633 31.56C172.777 31.56 173.701 31.248 174.405 30.624C175.117 29.992 175.473 28.968 175.473 27.552V17.928H177.345V27.552C177.345 28.816 177.109 29.876 176.637 30.732C176.173 31.58 175.513 32.22 174.657 32.652C173.801 33.076 172.793 33.288 171.633 33.288C170.473 33.288 169.461 33.076 168.597 32.652C167.741 32.22 167.077 31.58 166.605 30.732C166.133 29.876 165.897 28.816 165.897 27.552V17.928ZM189.545 33.288C188.217 33.288 187.073 32.956 186.113 32.292C185.153 31.62 184.413 30.692 183.893 29.508C183.373 28.316 183.113 26.936 183.113 25.368C183.113 23.696 183.393 22.288 183.953 21.144C184.521 20 185.289 19.136 186.257 18.552C187.233 17.96 188.329 17.664 189.545 17.664C191.153 17.664 192.445 18.068 193.421 18.876C194.405 19.676 195.081 20.72 195.449 22.008L193.433 22.416C193.121 21.48 192.621 20.736 191.933 20.184C191.253 19.624 190.457 19.344 189.545 19.344C188.753 19.344 188.021 19.572 187.349 20.028C186.685 20.476 186.149 21.148 185.741 22.044C185.333 22.94 185.129 24.048 185.129 25.368C185.129 26.568 185.289 27.636 185.609 28.572C185.937 29.508 186.425 30.244 187.073 30.78C187.729 31.316 188.553 31.584 189.545 31.584C190.737 31.584 191.681 31.264 192.377 30.624C193.081 29.984 193.433 29.144 193.433 28.104H195.473C195.473 29.184 195.225 30.112 194.729 30.888C194.233 31.656 193.537 32.248 192.641 32.664C191.753 33.08 190.721 33.288 189.545 33.288ZM199.152 19.536V17.928H210.888V19.536H205.524L205.944 19.104V33H204.072V19.104L204.492 19.536H199.152ZM215.855 33V17.928H217.727V33H215.855ZM230.31 33.288C229.062 33.288 227.946 33 226.962 32.424C225.978 31.848 225.202 30.984 224.634 29.832C224.066 28.672 223.782 27.224 223.782 25.488C223.782 23.728 224.066 22.272 224.634 21.12C225.202 19.96 225.978 19.096 226.962 18.528C227.946 17.952 229.062 17.664 230.31 17.664C231.558 17.664 232.674 17.952 233.658 18.528C234.642 19.104 235.418 19.972 235.986 21.132C236.554 22.292 236.838 23.744 236.838 25.488C236.838 27.24 236.554 28.696 235.986 29.856C235.418 31.008 234.642 31.868 233.658 32.436C232.674 33.004 231.558 33.288 230.31 33.288ZM230.31 31.56C231.726 31.56 232.842 31.044 233.658 30.012C234.482 28.98 234.894 27.464 234.894 25.464C234.894 23.504 234.482 21.996 233.658 20.94C232.842 19.876 231.726 19.344 230.31 19.344C228.91 19.344 227.794 19.876 226.962 20.94C226.138 22.004 225.726 23.52 225.726 25.488C225.726 27.48 226.138 28.992 226.962 30.024C227.794 31.048 228.91 31.56 230.31 31.56ZM242.85 17.928H245.082L252.738 30.336H252.57V17.928H254.442V33H252.354L244.434 20.184H244.722V33H242.85V17.928Z" fill="#567979"/>
</svg>
