<svg width="36" height="37" viewBox="0 0 36 37" fill="none" xmlns="http://www.w3.org/2000/svg">
<path d="M13.9027 21.8446L13.9026 21.8446L13.9067 21.8479C14.9485 22.6997 16.2473 23.1648 17.587 23.1648C18.9267 23.1648 20.2255 22.6997 21.2673 21.8479L21.0458 21.5769L21.2714 21.8446C21.4994 21.6524 21.7924 21.5606 22.0859 21.588C22.2314 21.6016 22.3729 21.6441 22.5026 21.7134C22.6322 21.7826 22.7474 21.8772 22.8416 21.992C23.0317 22.2241 23.1239 22.5242 23.0964 22.8263C23.0689 23.1283 22.9244 23.4058 22.6962 23.5981L22.6956 23.5986C21.2615 24.8126 19.4535 25.477 17.587 25.477C15.7205 25.477 13.9125 24.8126 12.4784 23.5986L12.4778 23.5981C12.2496 23.4058 12.1051 23.1283 12.0776 22.8263C12.0501 22.5242 12.1423 22.2241 12.3324 21.992C12.5225 21.7601 12.7945 21.6155 13.0881 21.588C13.3816 21.5606 13.6746 21.6524 13.9027 21.8446ZM13.8082 16.2362C13.6248 16.3604 13.4098 16.4264 13.1902 16.4264C12.896 16.4264 12.6127 16.3079 12.4031 16.0954C12.1934 15.8827 12.0747 15.5931 12.0747 15.2902C12.0747 15.0644 12.1407 14.8441 12.2639 14.6571C12.3871 14.4701 12.5616 14.3252 12.7649 14.2398C12.9682 14.1544 13.1915 14.1322 13.407 14.1756C13.6224 14.2191 13.821 14.3265 13.9774 14.485C14.1338 14.6436 14.2408 14.8463 14.2842 15.0676C14.3276 15.289 14.3053 15.5184 14.2203 15.7266C14.1352 15.9348 13.9916 16.1119 13.8082 16.2362ZM21.3659 14.3442C21.5492 14.22 21.7642 14.154 21.9838 14.154C22.278 14.154 22.5613 14.2725 22.7709 14.485C22.9806 14.6978 23.0993 14.9873 23.0993 15.2902C23.0993 15.516 23.0333 15.7363 22.9101 15.9233C22.7869 16.1103 22.6124 16.2552 22.4091 16.3406C22.2058 16.426 21.9825 16.4482 21.767 16.4048C21.5516 16.3613 21.353 16.2539 21.1966 16.0954C21.0403 15.9368 20.9332 15.7341 20.8898 15.5128C20.8464 15.2914 20.8687 15.062 20.9537 14.8538C21.0388 14.6456 21.1825 14.4685 21.3659 14.3442ZM9.64098 6.19488C11.9934 4.60088 14.7587 3.75039 17.587 3.75039C19.465 3.75039 21.3247 4.12549 23.06 4.8544C24.7953 5.58332 26.3724 6.65184 27.701 7.9992C29.0297 9.34657 30.0839 10.9464 30.8032 12.7075C31.5226 14.4685 31.8928 16.3562 31.8928 18.2627C31.8928 21.134 31.0532 23.9405 29.4806 26.3271C27.9081 28.7137 25.6735 30.5731 23.06 31.6709C20.4466 32.7687 17.5711 33.0558 14.797 32.4963C12.0229 31.9367 9.474 30.5553 7.47297 28.5261C5.47188 26.4968 4.10859 23.9108 3.55622 21.0948C3.00385 18.2787 3.28739 15.3598 4.37078 12.7075C5.45415 10.0551 7.28846 7.78893 9.64098 6.19488ZM10.8768 28.4384C12.8626 29.784 15.1978 30.5025 17.587 30.5025C20.791 30.5025 23.8628 29.2117 26.1268 26.9158C28.3907 24.62 29.6617 21.5073 29.6617 18.2627C29.6617 15.8429 28.9541 13.4772 27.628 11.4645C26.3018 9.45171 24.4163 7.88222 22.2094 6.95521C20.0024 6.02818 17.5737 5.78555 15.2304 6.25821C12.8872 6.73087 10.7355 7.89741 9.04719 9.60954C7.3589 11.3216 6.20969 13.5023 5.74416 15.8757C5.27863 18.249 5.51751 20.7091 6.4308 22.945C7.34411 25.181 8.89106 27.0929 10.8768 28.4384Z" fill="#333333" stroke="white" stroke-width="0.7"/>
</svg>
