<svg width="307" height="92" viewBox="0 0 307 92" fill="none" xmlns="http://www.w3.org/2000/svg">
<path d="M180.8 11C187.521 11 190.881 11 193.448 12.3079C195.706 13.4584 197.542 15.2942 198.692 17.5521C200 20.1191 200 23.4794 200 30.2L200 44.8C200 51.5206 200 54.8809 198.692 57.4479C197.542 59.7058 195.706 61.5416 193.448 62.6921C190.881 64 187.521 64 180.8 64L91.2 64C84.4794 64 81.1191 64 78.5521 62.6921C76.2942 61.5416 74.4584 59.7058 73.3079 57.4479C72 54.8809 72 51.5206 72 44.8L72 30.2C72 23.4794 72 20.119 73.3079 17.5521C74.4584 15.2942 76.2942 13.4584 78.5521 12.3079C81.1191 11 84.4794 11 91.2 11L180.8 11Z" fill="white"/>
<path d="M73.3079 17.5521L74.1989 18.0061L73.3079 17.5521ZM78.5521 62.6921L79.0061 61.8011L78.5521 62.6921ZM73.3079 57.4479L74.1989 56.9939L73.3079 57.4479ZM198.692 57.4479L197.801 56.9939L198.692 57.4479ZM193.448 62.6921L192.994 61.8011L193.448 62.6921ZM199 30.2L199 44.8L201 44.8L201 30.2L199 30.2ZM180.8 63L91.2 63L91.2 65L180.8 65L180.8 63ZM73 44.8L73 30.2L71 30.2L71 44.8L73 44.8ZM91.2 12L180.8 12L180.8 10L91.2 10L91.2 12ZM73 30.2C73 26.8232 73.0008 24.3507 73.1602 22.3999C73.3186 20.4607 73.6288 19.1251 74.1989 18.0061L72.4169 17.0981C71.6792 18.5461 71.3354 20.1741 71.1668 22.237C70.9992 24.2882 71 26.8562 71 30.2L73 30.2ZM91.2 10C87.8562 10 85.2882 9.99922 83.237 10.1668C81.1741 10.3353 79.5461 10.6791 78.0981 11.4169L79.0061 13.1989C80.1251 12.6288 81.4607 12.3186 83.3999 12.1602C85.3507 12.0008 87.8232 12 91.2 12L91.2 10ZM74.1989 18.0061C75.2535 15.9363 76.9363 14.2535 79.0061 13.1989L78.0981 11.4169C75.652 12.6633 73.6633 14.652 72.4169 17.0981L74.1989 18.0061ZM91.2 63C87.8232 63 85.3507 62.9992 83.3999 62.8398C81.4607 62.6814 80.1251 62.3712 79.0061 61.8011L78.0981 63.5831C79.5461 64.3208 81.1741 64.6646 83.237 64.8332C85.2882 65.0008 87.8562 65 91.2 65L91.2 63ZM71 44.8C71 48.1438 70.9992 50.7118 71.1668 52.763C71.3354 54.8259 71.6792 56.4539 72.4169 57.9019L74.1989 56.9939C73.6288 55.8749 73.3186 54.5393 73.1602 52.6001C73.0008 50.6493 73 48.1768 73 44.8L71 44.8ZM79.0061 61.8011C76.9363 60.7465 75.2535 59.0637 74.1989 56.9939L72.4169 57.9019C73.6633 60.348 75.652 62.3367 78.0981 63.5831L79.0061 61.8011ZM199 44.8C199 48.1768 198.999 50.6493 198.84 52.6001C198.681 54.5393 198.371 55.8749 197.801 56.9939L199.583 57.9019C200.321 56.4539 200.665 54.8259 200.833 52.763C201.001 50.7118 201 48.1438 201 44.8L199 44.8ZM180.8 65C184.144 65 186.712 65.0008 188.763 64.8332C190.826 64.6646 192.454 64.3208 193.902 63.5831L192.994 61.8011C191.875 62.3712 190.539 62.6814 188.6 62.8398C186.649 62.9992 184.177 63 180.8 63L180.8 65ZM197.801 56.9939C196.746 59.0637 195.064 60.7465 192.994 61.8011L193.902 63.5831C196.348 62.3367 198.337 60.348 199.583 57.9019L197.801 56.9939ZM201 30.2C201 26.8562 201.001 24.2882 200.833 22.237C200.665 20.1741 200.321 18.5461 199.583 17.0981L197.801 18.0061C198.371 19.1251 198.681 20.4607 198.84 22.3999C198.999 24.3507 199 26.8232 199 30.2L201 30.2ZM180.8 12C184.177 12 186.649 12.0008 188.6 12.1602C190.539 12.3186 191.875 12.6288 192.994 13.1989L193.902 11.4169C192.454 10.6792 190.826 10.3354 188.763 10.1668C186.712 9.99922 184.144 10 180.8 10L180.8 12ZM199.583 17.0981C198.337 14.652 196.348 12.6633 193.902 11.4169L192.994 13.1989C195.064 14.2535 196.746 15.9363 197.801 18.0061L199.583 17.0981Z" fill="#333333"/>
<path d="M65.7065 39.2902L76 48L76 26L65.7066 34.7098C64.2903 35.9082 64.2903 38.0918 65.7065 39.2902Z" fill="white"/>
<path d="M73 45.3062L65.6755 39.0579C64.2715 37.8602 64.2715 35.6909 65.6755 34.4932L73 28.2449" stroke="#333333" stroke-width="2"/>
<path d="M104.2 78C97.4794 78 94.1191 78 91.5521 76.6921C89.2942 75.5416 87.4584 73.7058 86.3079 71.4479C85 68.8809 85 65.5206 85 58.8L85 44.2C85 37.4794 85 34.1191 86.3079 31.5521C87.4584 29.2942 89.2942 27.4584 91.5521 26.3079C94.1191 25 97.4794 25 104.2 25L193.8 25C200.521 25 203.881 25 206.448 26.3079C208.706 27.4584 210.542 29.2942 211.692 31.5521C213 34.1191 213 37.4794 213 44.2L213 58.8C213 65.5206 213 68.8809 211.692 71.4479C210.542 73.7058 208.706 75.5416 206.448 76.6921C203.881 78 200.521 78 193.8 78L104.2 78Z" fill="white"/>
<path d="M211.692 71.4479L210.801 70.9939L211.692 71.4479ZM206.448 26.3079L205.994 27.1989L206.448 26.3079ZM211.692 31.5521L212.583 31.0981L211.692 31.5521ZM91.5521 26.3079L91.0981 25.4169L91.5521 26.3079ZM86 58.8L86 44.2L84 44.2L84 58.8L86 58.8ZM104.2 26L193.8 26L193.8 24L104.2 24L104.2 26ZM212 44.2L212 58.8L214 58.8L214 44.2L212 44.2ZM193.8 77L104.2 77L104.2 79L193.8 79L193.8 77ZM212 58.8C212 62.1768 211.999 64.6493 211.84 66.6001C211.681 68.5393 211.371 69.8749 210.801 70.9939L212.583 71.9019C213.321 70.4539 213.665 68.8259 213.833 66.763C214.001 64.7118 214 62.1438 214 58.8L212 58.8ZM193.8 79C197.144 79 199.712 79.0008 201.763 78.8332C203.826 78.6646 205.454 78.3208 206.902 77.5831L205.994 75.8011C204.875 76.3712 203.539 76.6814 201.6 76.8398C199.649 76.9992 197.177 77 193.8 77L193.8 79ZM210.801 70.9939C209.746 73.0637 208.064 74.7465 205.994 75.8011L206.902 77.5831C209.348 76.3367 211.337 74.348 212.583 71.9019L210.801 70.9939ZM193.8 26C197.177 26 199.649 26.0008 201.6 26.1602C203.539 26.3186 204.875 26.6288 205.994 27.1989L206.902 25.4169C205.454 24.6792 203.826 24.3354 201.763 24.1668C199.712 23.9992 197.144 24 193.8 24L193.8 26ZM214 44.2C214 40.8562 214.001 38.2882 213.833 36.237C213.665 34.1741 213.321 32.5461 212.583 31.0981L210.801 32.0061C211.371 33.1251 211.681 34.4607 211.84 36.3999C211.999 38.3507 212 40.8232 212 44.2L214 44.2ZM205.994 27.1989C208.064 28.2535 209.746 29.9363 210.801 32.0061L212.583 31.0981C211.337 28.652 209.348 26.6633 206.902 25.4169L205.994 27.1989ZM86 44.2C86 40.8232 86.0008 38.3507 86.1602 36.3999C86.3186 34.4607 86.6288 33.1251 87.1989 32.0061L85.4169 31.0981C84.6792 32.5461 84.3354 34.1741 84.1668 36.237C83.9992 38.2882 84 40.8562 84 44.2L86 44.2ZM104.2 24C100.856 24 98.2882 23.9992 96.237 24.1668C94.1741 24.3354 92.5461 24.6792 91.0981 25.4169L92.0061 27.1989C93.1251 26.6288 94.4607 26.3186 96.3999 26.1602C98.3507 26.0008 100.823 26 104.2 26L104.2 24ZM87.1989 32.0061C88.2535 29.9363 89.9363 28.2535 92.0061 27.1989L91.0981 25.4169C88.652 26.6633 86.6633 28.652 85.4169 31.0981L87.1989 32.0061ZM84 58.8C84 62.1438 83.9992 64.7118 84.1668 66.763C84.3354 68.8259 84.6792 70.4539 85.4169 71.9019L87.1989 70.9939C86.6288 69.8749 86.3186 68.5393 86.1602 66.6001C86.0008 64.6493 86 62.1768 86 58.8L84 58.8ZM104.2 77C100.823 77 98.3507 76.9992 96.3999 76.8398C94.4607 76.6814 93.1251 76.3712 92.0061 75.8011L91.0981 77.5831C92.5461 78.3208 94.1741 78.6646 96.237 78.8332C98.2882 79.0008 100.856 79 104.2 79L104.2 77ZM85.4169 71.9019C86.6633 74.348 88.652 76.3367 91.0981 77.5831L92.0061 75.8011C89.9363 74.7465 88.2535 73.0637 87.1989 70.9939L85.4169 71.9019Z" fill="#333333"/>
<path d="M219.16 49.4952L208.588 40.8994L208.588 62.7463L219.16 54.1506C220.637 52.95 220.637 50.6957 219.16 49.4952Z" fill="white"/>
<path d="M212.071 43.958L219.262 49.9562C220.699 51.1555 220.699 53.3642 219.262 54.5635L212.071 60.5617" stroke="#333333" stroke-width="2"/>
<g clip-path="url(#clip0_6989_5438)">
<path d="M268.649 33.4369L268.309 34.2162L269.089 34.5557L279.758 39.2034C281.674 40.0378 283.179 41.5991 283.944 43.5437C284.708 45.4882 284.669 47.6569 283.834 49.5725L273.377 73.5786C272.543 75.4942 270.981 76.9998 269.037 77.7643C267.092 78.5288 264.924 78.4895 263.008 77.655L236.335 66.0358C234.419 65.2014 232.913 63.6401 232.149 61.6955C231.384 59.7509 231.424 57.5823 232.258 55.6667L242.715 31.6606C243.55 29.745 245.111 28.2393 247.056 27.4749C249 26.7104 251.169 26.7497 253.085 27.5841L263.754 32.2318L264.533 32.5713L264.873 31.792L266.36 28.3778L266.556 27.9279L266.264 27.5332C265.749 26.8358 265.425 26.0157 265.325 25.1543C265.225 24.2938 265.351 23.4221 265.692 22.6257C266.219 21.4186 267.203 20.4699 268.428 19.9881C269.655 19.5059 271.023 19.5307 272.231 20.057C273.439 20.5833 274.389 21.568 274.871 22.7944C275.353 24.0201 275.328 25.3869 274.803 26.5944C274.452 27.3864 273.9 28.0727 273.201 28.5854C272.502 29.0987 271.681 29.42 270.82 29.5176L270.332 29.5728L270.136 30.0227L268.649 33.4369ZM269.698 40.466L270.362 39.6032L269.364 39.1684L260.188 35.1714L259.19 34.7366L259.011 35.8103L258.021 41.726L257.911 42.3806L258.519 42.6456L265.028 45.4807L265.636 45.7457L266.041 45.2197L269.698 40.466ZM255.191 33.7047L255.308 33.0453L254.694 32.7778L251.44 31.3603C250.525 30.9621 249.491 30.9433 248.563 31.3081C247.635 31.6729 246.89 32.3914 246.492 33.3055L236.034 57.3117C235.636 58.2258 235.617 59.2606 235.982 60.1885C236.347 61.1165 237.065 61.8615 237.979 62.2597L264.653 73.8789C265.567 74.2771 266.602 74.2958 267.53 73.931C268.458 73.5662 269.203 72.8478 269.601 71.9337L280.058 47.9275C280.456 47.0134 280.475 45.9786 280.11 45.0507C279.746 44.1227 279.027 43.3777 278.113 42.9795L274.859 41.562L274.245 41.2945L273.841 41.8288L267.999 49.5609C267.999 49.5615 267.998 49.5621 267.998 49.5627C267.712 49.9356 267.307 50.1996 266.851 50.3109C266.393 50.4223 265.912 50.3738 265.486 50.1734L265.475 50.1681L265.463 50.1631L254.794 45.5154L254.783 45.5105L254.771 45.5059C254.334 45.3306 253.971 45.011 253.741 44.6002C253.511 44.1901 253.429 43.7138 253.508 43.2504C253.508 43.2498 253.508 43.2491 253.508 43.2485L255.191 33.7047ZM247.936 51.108C248.337 51.0358 248.75 51.0841 249.124 51.2468C249.625 51.4649 250.018 51.873 250.218 52.3813C250.418 52.8897 250.408 53.4566 250.189 53.9573C250.027 54.3307 249.757 54.6475 249.414 54.8677C249.072 55.0878 248.671 55.2013 248.264 55.1939C247.857 55.1866 247.461 55.0586 247.126 54.8262C246.792 54.5938 246.534 54.2674 246.385 53.8883C246.236 53.5093 246.202 53.0945 246.289 52.6965C246.376 52.2985 246.579 51.9352 246.872 51.6524C247.165 51.3697 247.535 51.1802 247.936 51.108ZM230.038 40.4174C230.547 40.2175 231.114 40.2278 231.614 40.446C232.115 40.6641 232.509 41.0722 232.708 41.5805C232.908 42.0889 232.898 42.6557 232.68 43.1565L230.356 48.4912C230.138 48.9919 229.73 49.3855 229.221 49.5854C228.713 49.7852 228.146 49.7749 227.646 49.5568C227.145 49.3387 226.751 48.9305 226.551 48.4222C226.352 47.9139 226.362 47.347 226.58 46.8463L228.904 41.5116C229.122 41.0108 229.53 40.6172 230.038 40.4174ZM283.385 63.6559C283.894 63.456 284.461 63.4663 284.961 63.6844C285.462 63.9026 285.856 64.3107 286.055 64.819C286.255 65.3273 286.245 65.8942 286.027 66.395L283.703 71.7297C283.485 72.2304 283.077 72.624 282.568 72.8238C282.06 73.0237 281.493 73.0134 280.992 72.7953C280.492 72.5771 280.098 72.169 279.898 71.6607C279.698 71.1524 279.709 70.5855 279.927 70.0847L282.251 64.75C282.469 64.2493 282.877 63.8557 283.385 63.6559ZM263.94 58.0796C264.341 58.0074 264.754 58.0556 265.128 58.2183C265.629 58.4364 266.022 58.8446 266.222 59.3529C266.422 59.8612 266.412 60.4281 266.194 60.9288C266.031 61.3023 265.761 61.6191 265.418 61.8392C265.076 62.0593 264.675 62.1729 264.268 62.1655C263.861 62.1581 263.465 62.0301 263.13 61.7977C262.796 61.5653 262.538 61.239 262.389 60.8599C262.24 60.4808 262.206 60.0661 262.293 59.6681C262.38 59.2701 262.583 58.9067 262.876 58.624C263.169 58.3412 263.539 58.1518 263.94 58.0796Z" fill="#333333" stroke="white" stroke-width="1.7"/>
</g>
<path d="M28.1459 43.1413L28.1458 43.1414L28.1536 43.1458C30.0606 44.2182 32.2707 44.5994 34.4162 44.2243C36.5618 43.8492 38.5115 42.7408 39.9414 41.0849L39.4873 40.6928L39.9472 41.0781C40.2519 40.7145 40.6857 40.4905 41.1529 40.4531C41.3845 40.4346 41.6179 40.4624 41.8399 40.5354C42.062 40.6083 42.2685 40.725 42.4475 40.8791C42.8091 41.1907 43.0358 41.6359 43.0756 42.1171C43.1153 42.5983 42.9647 43.0728 42.6598 43.4367L42.6589 43.4377C40.714 45.7692 38.021 47.3299 35.05 47.8493C32.079 48.3687 29.0162 47.8143 26.3956 46.2809L26.3945 46.2803C25.9842 46.0414 25.6815 45.6462 25.5556 45.1801C25.4297 44.7139 25.4919 44.2182 25.7264 43.8024C25.9607 43.387 26.3473 43.0858 26.7996 42.9625C27.2518 42.8391 27.7359 42.9026 28.1459 43.1413ZM26.424 34.1652C26.1708 34.4101 25.852 34.5723 25.5082 34.6324C25.0473 34.713 24.5712 34.605 24.1845 34.3293C23.7975 34.0535 23.532 33.6321 23.449 33.1572C23.3871 32.8032 23.4303 32.4396 23.5722 32.1128C23.714 31.7861 23.9478 31.5112 24.2429 31.3217C24.5378 31.1323 24.8816 31.0363 25.2309 31.0454C25.5802 31.0545 25.9208 31.1683 26.2092 31.3739C26.4977 31.5796 26.7211 31.8679 26.8498 32.203C26.9786 32.5382 27.0064 32.9039 26.9302 33.2537C26.8539 33.6033 26.6773 33.9203 26.424 34.1652ZM38.0031 29.0846C38.2563 28.8398 38.575 28.6775 38.9189 28.6174C39.3798 28.5369 39.8559 28.6449 40.2426 28.9205C40.6296 29.1964 40.895 29.6177 40.9781 30.0927C41.04 30.4467 40.9968 30.8102 40.8549 31.1371C40.7131 31.4638 40.4793 31.7387 40.1842 31.9281C39.8892 32.1175 39.5455 32.2135 39.1962 32.2045C38.8468 32.1954 38.5063 32.0815 38.2179 31.8759C37.9293 31.6703 37.706 31.3819 37.5772 31.0468C37.4485 30.7117 37.4206 30.3459 37.4969 29.9962C37.5731 29.6465 37.7498 29.3295 38.0031 29.0846ZM17.018 19.3506C20.3228 16.155 24.4924 14.0293 28.9996 13.2413C31.9923 12.7181 35.0604 12.7977 38.0288 13.4758C40.9973 14.154 43.8082 15.4174 46.3009 17.1944C48.7937 18.9714 50.9195 21.2273 52.5565 23.8334C54.1935 26.4395 55.3096 29.3447 55.8407 32.3829C56.6407 36.9589 56.0845 41.6654 54.2434 45.907C52.4022 50.1485 49.3592 53.7342 45.5002 56.2118C41.6413 58.6893 37.139 59.948 32.5624 59.8291C27.9857 59.7103 23.539 58.2191 19.7848 55.5428C16.0304 52.8664 13.1373 49.125 11.4724 44.7911C9.8075 40.4571 9.44613 35.7264 10.4337 31.1976C11.4212 26.6688 13.7131 22.5463 17.018 19.3506ZM25.1597 54.5101C28.7102 56.1061 32.644 56.602 36.4635 55.9343C41.5854 55.0389 46.1351 52.117 49.1127 47.814C52.09 43.5115 53.2518 38.1806 52.345 32.9941C51.6688 29.1262 49.8767 25.5422 47.1943 22.6955C44.5118 19.8486 41.0592 17.8666 37.2722 17.0015C33.485 16.1364 29.5346 16.4273 25.9208 17.8378C22.3071 19.2482 19.1934 21.7144 16.973 24.9231C14.7527 28.1318 13.5251 31.9389 13.4442 35.8628C13.3633 39.7867 14.4327 43.6523 16.5174 46.9712C18.6022 50.2902 21.6094 52.9142 25.1597 54.5101Z" fill="#333333" stroke="white" stroke-width="1.2"/>
<path d="M108.457 60.286C107.045 60.286 105.831 59.922 104.817 59.194C103.803 58.4573 103.023 57.4563 102.477 56.191C101.94 54.917 101.671 53.4653 101.671 51.836C101.671 50.068 101.97 48.5817 102.568 47.377C103.175 46.1637 103.99 45.245 105.012 44.621C106.044 43.997 107.192 43.685 108.457 43.685C110.095 43.685 111.43 44.101 112.461 44.933C113.501 45.765 114.242 46.844 114.684 48.17L113.046 48.534C112.682 47.4507 112.089 46.597 111.265 45.973C110.451 45.3403 109.515 45.024 108.457 45.024C107.547 45.024 106.698 45.284 105.909 45.804C105.129 46.3153 104.497 47.078 104.011 48.092C103.535 49.106 103.296 50.354 103.296 51.836C103.296 53.162 103.478 54.3623 103.842 55.437C104.215 56.503 104.783 57.3523 105.545 57.985C106.308 58.609 107.279 58.921 108.457 58.921C109.844 58.921 110.953 58.5483 111.785 57.803C112.626 57.0577 113.046 56.0653 113.046 54.826H114.723C114.723 55.9527 114.455 56.9233 113.917 57.738C113.38 58.5527 112.639 59.181 111.694 59.623C110.75 60.065 109.671 60.286 108.457 60.286ZM123.213 60.286C122.113 60.286 121.142 60.039 120.301 59.545C119.461 59.051 118.798 58.323 118.312 57.361C117.836 56.399 117.597 55.2203 117.597 53.825C117.597 52.4297 117.836 51.2553 118.312 50.302C118.798 49.34 119.461 48.612 120.301 48.118C121.142 47.624 122.113 47.377 123.213 47.377C124.314 47.377 125.285 47.624 126.125 48.118C126.966 48.612 127.625 49.34 128.101 50.302C128.578 51.2553 128.816 52.4297 128.816 53.825C128.816 55.2203 128.578 56.399 128.101 57.361C127.625 58.323 126.966 59.051 126.125 59.545C125.285 60.039 124.314 60.286 123.213 60.286ZM123.187 58.973C124.097 58.973 124.856 58.7607 125.462 58.336C126.069 57.9027 126.52 57.3003 126.814 56.529C127.118 55.7577 127.269 54.8563 127.269 53.825C127.269 52.2737 126.936 51.0257 126.268 50.081C125.61 49.1363 124.6 48.664 123.239 48.664C122.329 48.664 121.571 48.8807 120.964 49.314C120.366 49.7387 119.916 50.341 119.612 51.121C119.318 51.8923 119.17 52.7937 119.17 53.825C119.17 55.3677 119.5 56.6113 120.158 57.556C120.826 58.5007 121.835 58.973 123.187 58.973ZM142.08 60V52.733C142.08 51.4243 141.763 50.4233 141.131 49.73C140.507 49.0367 139.644 48.69 138.544 48.69C137.738 48.69 137.04 48.911 136.451 49.353C135.87 49.795 135.424 50.4147 135.112 51.212C134.808 52.0093 134.657 52.941 134.657 54.007H133.994C133.994 52.655 134.176 51.485 134.54 50.497C134.912 49.5003 135.458 48.7333 136.178 48.196C136.906 47.65 137.807 47.377 138.882 47.377C139.835 47.377 140.658 47.5893 141.352 48.014C142.054 48.4387 142.595 49.054 142.977 49.86C143.358 50.6573 143.549 51.615 143.549 52.733V60H142.08ZM133.149 60V47.663H134.423L134.657 50.705V60H133.149ZM146.532 43.945H148.248L152.564 58.661H152.057L156.555 45.921H157.582L161.924 58.609H161.417L166.565 43.945H168.229L162.47 60H160.884L156.88 48.365H157.322L153.123 60H151.537L146.532 43.945ZM175.038 60.286C173.963 60.286 173.014 60.013 172.191 59.467C171.376 58.9123 170.735 58.154 170.267 57.192C169.799 56.2213 169.565 55.1163 169.565 53.877C169.565 52.525 169.795 51.3637 170.254 50.393C170.722 49.4223 171.363 48.677 172.178 48.157C173.001 47.637 173.955 47.377 175.038 47.377C175.948 47.377 176.719 47.5633 177.352 47.936C177.993 48.3 178.509 48.7983 178.899 49.431C179.289 50.0637 179.562 50.7787 179.718 51.576C179.883 52.3733 179.948 53.1967 179.913 54.046H170.8V53.006H178.99L178.392 53.396C178.418 52.8327 178.383 52.2737 178.288 51.719C178.201 51.1557 178.032 50.64 177.781 50.172C177.538 49.704 177.196 49.327 176.754 49.041C176.312 48.755 175.744 48.612 175.051 48.612C174.167 48.612 173.43 48.8417 172.841 49.301C172.252 49.7517 171.81 50.341 171.515 51.069C171.229 51.7883 171.086 52.5597 171.086 53.383V54.02C171.086 54.9647 171.229 55.814 171.515 56.568C171.81 57.322 172.247 57.92 172.828 58.362C173.417 58.804 174.154 59.025 175.038 59.025C175.948 59.025 176.689 58.804 177.261 58.362C177.842 57.9113 178.188 57.2527 178.301 56.386H179.913C179.783 57.2093 179.493 57.9113 179.042 58.492C178.6 59.0727 178.037 59.519 177.352 59.831C176.667 60.1343 175.896 60.286 175.038 60.286ZM189.621 60.286C188.771 60.286 188.004 60.0737 187.32 59.649C186.644 59.2157 186.106 58.5917 185.708 57.777C185.309 56.9623 185.11 55.983 185.11 54.839H185.812C185.812 55.7317 185.989 56.4857 186.345 57.101C186.709 57.7077 187.172 58.167 187.736 58.479C188.299 58.791 188.897 58.947 189.53 58.947C190.232 58.947 190.882 58.7433 191.48 58.336C192.078 57.9287 192.559 57.3393 192.923 56.568C193.287 55.7967 193.469 54.8693 193.469 53.786C193.469 52.7113 193.287 51.797 192.923 51.043C192.559 50.289 192.078 49.7083 191.48 49.301C190.882 48.8937 190.223 48.69 189.504 48.69C188.871 48.69 188.273 48.846 187.71 49.158C187.146 49.47 186.687 49.9337 186.332 50.549C185.985 51.1557 185.812 51.914 185.812 52.824H185.11C185.11 51.6887 185.305 50.718 185.695 49.912C186.093 49.0973 186.635 48.4733 187.32 48.04C188.013 47.598 188.806 47.377 189.699 47.377C190.661 47.377 191.545 47.637 192.351 48.157C193.165 48.6683 193.815 49.405 194.301 50.367C194.795 51.3203 195.042 52.46 195.042 53.786C195.042 55.112 194.795 56.2603 194.301 57.231C193.807 58.2017 193.148 58.9557 192.325 59.493C191.501 60.0217 190.6 60.286 189.621 60.286ZM184.304 60V42.32H185.812V57.192L185.448 60H184.304Z" fill="#333333"/>
<defs>
<clipPath id="clip0_6989_5438">
<rect width="69.8264" height="69.8264" fill="white" transform="translate(242.886) rotate(23.5384)"/>
</clipPath>
</defs>
</svg>
