<svg width="44" height="44" viewBox="0 0 44 44" fill="none" xmlns="http://www.w3.org/2000/svg">
<path d="M23.3335 12.8332V13.3332H23.8335H31.1668C32.4929 13.3332 33.7647 13.86 34.7024 14.7976C35.64 15.7353 36.1668 17.0071 36.1668 18.3332V34.8332C36.1668 36.1593 35.64 37.431 34.7024 38.3687C33.7647 39.3064 32.4929 39.8332 31.1668 39.8332H12.8335C11.5074 39.8332 10.2356 39.3064 9.29796 38.3687C8.36028 37.431 7.8335 36.1593 7.8335 34.8332V18.3332C7.8335 17.0071 8.36028 15.7353 9.29796 14.7976C10.2356 13.86 11.5074 13.3332 12.8335 13.3332H20.1668H20.6668V12.8332V10.4865V10.1978L20.4168 10.0535C19.9382 9.77718 19.5403 9.38043 19.2625 8.90267C18.985 8.42536 18.8371 7.88381 18.8335 7.33172C18.8339 6.49239 19.1675 5.68752 19.761 5.094C20.3549 4.50013 21.1603 4.1665 22.0002 4.1665C22.84 4.1665 23.6455 4.50013 24.2393 5.094C24.8329 5.68752 25.1664 6.49239 25.1668 7.33172C25.1632 7.8838 25.0153 8.42536 24.7378 8.90267C24.4601 9.38043 24.0621 9.77718 23.5835 10.0535L23.3335 10.1978V10.4865V12.8332ZM25.6386 16.6211L25.7939 15.9998H25.1535H18.8468H18.2064L18.3618 16.6211L19.2784 20.2878L19.3731 20.6665H19.7635H24.2368H24.6272L24.7219 20.2878L25.6386 16.6211ZM15.5563 16.3828L15.4641 15.9998H15.0702H12.8335C12.2147 15.9998 11.6212 16.2457 11.1836 16.6833C10.746 17.1208 10.5002 17.7143 10.5002 18.3332V34.8332C10.5002 35.452 10.746 36.0455 11.1836 36.4831C11.6212 36.9207 12.2147 37.1665 12.8335 37.1665H31.1668C31.7857 37.1665 32.3792 36.9207 32.8167 36.4831C33.2543 36.0455 33.5002 35.452 33.5002 34.8332V18.3332C33.5002 17.7143 33.2543 17.1208 32.8167 16.6833C32.3792 16.2457 31.7857 15.9998 31.1668 15.9998H28.9302H28.5362L28.4441 16.3828L27.0147 22.32C27.0146 22.3205 27.0145 22.3209 27.0144 22.3213C26.9412 22.6166 26.7692 22.8781 26.527 23.0622C26.2844 23.2465 25.986 23.3423 25.6814 23.3334L25.6741 23.3332H25.6668H18.3335H18.3262L18.3189 23.3334C18.0144 23.3423 17.7159 23.2465 17.4733 23.0622C17.2311 22.8781 17.0591 22.6166 16.9859 22.3213C16.9858 22.3209 16.9857 22.3205 16.9856 22.32L15.5563 16.3828ZM15.7594 28.2245C15.9787 28.078 16.2365 27.9998 16.5002 27.9998C16.8538 27.9998 17.1929 28.1403 17.443 28.3904C17.693 28.6404 17.8335 28.9795 17.8335 29.3332C17.8335 29.5969 17.7553 29.8547 17.6088 30.0739C17.4623 30.2932 17.254 30.4641 17.0104 30.565C16.7668 30.6659 16.4987 30.6923 16.24 30.6409C15.9814 30.5894 15.7438 30.4625 15.5574 30.276C15.3709 30.0895 15.2439 29.8519 15.1924 29.5933C15.141 29.3347 15.1674 29.0666 15.2683 28.8229C15.3692 28.5793 15.5401 28.3711 15.7594 28.2245ZM2.72402 26.557C2.97407 26.307 3.31321 26.1665 3.66683 26.1665C4.02045 26.1665 4.35959 26.307 4.60964 26.557C4.85969 26.8071 5.00016 27.1462 5.00016 27.4998V31.1665C5.00016 31.5201 4.85969 31.8593 4.60964 32.1093C4.35959 32.3594 4.02045 32.4998 3.66683 32.4998C3.31321 32.4998 2.97407 32.3594 2.72402 32.1093C2.47397 31.8593 2.3335 31.5201 2.3335 31.1665V27.4998C2.3335 27.1462 2.47397 26.8071 2.72402 26.557ZM39.3907 26.557C39.6407 26.307 39.9799 26.1665 40.3335 26.1665C40.6871 26.1665 41.0263 26.307 41.2763 26.557C41.5264 26.8071 41.6668 27.1462 41.6668 27.4998V31.1665C41.6668 31.5201 41.5264 31.8593 41.2763 32.1093C41.0263 32.3594 40.6871 32.4998 40.3335 32.4998C39.9799 32.4998 39.6407 32.3594 39.3907 32.1093C39.1406 31.8593 39.0002 31.5201 39.0002 31.1665V27.4998C39.0002 27.1462 39.1406 26.8071 39.3907 26.557ZM26.7594 28.2245C26.9787 28.078 27.2365 27.9998 27.5002 27.9998C27.8538 27.9998 28.1929 28.1403 28.443 28.3904C28.693 28.6404 28.8335 28.9795 28.8335 29.3332C28.8335 29.5969 28.7553 29.8547 28.6088 30.0739C28.4623 30.2932 28.254 30.4641 28.0104 30.565C27.7668 30.6659 27.4987 30.6923 27.24 30.6409C26.9814 30.5894 26.7438 30.4625 26.5574 30.276C26.3709 30.0895 26.2439 29.8519 26.1925 29.5933C26.141 29.3347 26.1674 29.0666 26.2683 28.8229C26.3692 28.5793 26.5401 28.3711 26.7594 28.2245Z" fill="#333333" stroke="white"/>
</svg>
